<svg width="181" height="181" viewBox="0 0 181 181" xmlns="http://www.w3.org/2000/svg" xmlns:xlink="http://www.w3.org/1999/xlink">
    <defs>
        <path id="c" d="M.168.32h55.375v66.678H.168z"/>
        <path id="e" d="M.268.32h42.415v66.678H.268z"/>
        <path id="g" d="M.161.207h61.631V78.22H.161z"/>
        <path id="i" d="M.044.207h52.515V78.22H.044z"/>
        <circle id="a" cx="90.5" cy="90.5" r="90.5"/>
    </defs>
    <g fill="none" fill-rule="evenodd">
        <mask id="b" fill="#fff">
            <use xlink:href="#a"/>
        </mask>
        <use fill="#00A7A7" xlink:href="#a"/>
        <g mask="url(#b)">
            <g transform="translate(91.298 118.222)">
                <mask id="d" fill="#fff">
                    <use xlink:href="#c"/>
                </mask>
                <path d="M.168 60.932S7.05 12.327 39.435.319c31.62 26.94 6.936 66.771 6.936 66.771L11.479 92.097.17 60.932z" fill="#59C09C" mask="url(#d)"/>
            </g>
            <g transform="translate(102.145 118.222)">
                <mask id="f" fill="#fff">
                    <use xlink:href="#e"/>
                </mask>
                <path d="M.838 26.734 14.78 43.45 27.828.618c.253-.1.504-.203.76-.299.125.106.24.214.364.32L21.963 23.58l18.414-8.36c.084.172.161.346.243.518l.21.462-19.286 8.757L9.9 63.187l32.784-13.642c-.116.444-.235.886-.357 1.318L9.491 64.527 1.22 91.674l-.59.423-.363-1.003 14.136-46.408L.287 27.762c.181-.343.365-.685.55-1.028" fill="#006769" mask="url(#f)"/>
            </g>
            <g transform="translate(61 107)">
                <mask id="h" fill="#fff">
                    <use xlink:href="#g"/>
                </mask>
                <path d="M14.13 81.85S-14.689 33.159 10.46.207c68.476 19.95 48.673 87.245 48.673 87.245L14.13 81.85z" fill="#004966" mask="url(#h)"/>
            </g>
            <g transform="translate(61.374 107)">
                <mask id="j" fill="#fff">
                    <use xlink:href="#i"/>
                </mask>
                <path d="M10.086.207c.238.07.471.141.709.212L29.34 64.454l22.506-34.96c.243.396.48.79.712 1.188L29.8 66.035l5.352 18.478-1.341-.166L23.141 47.51.17 40.23a71.54 71.54 0 0 1-.125-1.343l22.682 7.19L9.624.839c.155-.21.302-.422.462-.631" fill="#59C09C" mask="url(#j)"/>
            </g>
            <g transform="translate(26.084 32)">
                <circle fill="#F7F7F7" cx="82.916" cy="32" r="32"/>
                <circle fill="#FF7900" cx="23.958" cy="44.413" r="23.958"/>
                <path d="M24.237 71.687c1.091 3.814.013 7.918-3.235 12.313-4.872 6.592-11.968 16.181 0 27.292 11.968 11.11 14.41 22.46-1.136 40.708" stroke="#F7F7F7" stroke-width="2"/>
                <path d="M82.916 69.455c1.451 20.494-9.215 32.426-32 35.796-22.785 3.37-37.896 13.49-45.332 30.36" stroke="#FF7900" stroke-width="2"/>
                <path d="M97.823 14.685c5.89 3.101 8.834 8.343 8.834 15.725" stroke="#FF7900" stroke-width="2" stroke-linecap="round"/>
                <path d="M35.119 31.45c4.409 2.321 6.613 6.246 6.613 11.772" stroke="#F7F7F7" stroke-width="2" stroke-linecap="round"/>
                <path fill="#F7F7F7" d="m79.232 62.45-1.781 7.005h11l-2.37-7.005z"/>
                <path fill="#FF7900" d="m21.2 67.21-1.334 5.245h8.236l-1.775-5.244z"/>
            </g>
            <path fill="#F80" d="m152.936 102.284-.462 4.716-5.573-7.75 5.144-3.563 5.573 7.749zM125.116 89.157l-3.008-3.662 9.42 1.54-1.117 6.157-9.42-1.539zM35.877 135.438l-4.128 2.325 3.152-9.01 5.87 2.17-3.152 9.01z"/>
            <path d="M19.548 92.716c2.219 2.287 2.219 5.995 0 8.284l-8.033-8.284a5.56 5.56 0 0 1 8.033 0M152.089 48.483c3.129.602 5.256 3.639 4.751 6.786l-11.332-2.178a5.56 5.56 0 0 1 6.58-4.608M124.32 11.296c-1.682 2.705-5.28 3.602-8.037 2.004l6.094-9.799a5.56 5.56 0 0 1 1.944 7.795M18.233 29.825c2.867 1.39 4.135 4.875 2.834 7.784l-10.383-5.037a5.56 5.56 0 0 1 7.55-2.747" fill="#50E3C2"/>
            <path fill="#A80F7E" d="M74.297 26.06 72 21.033 77.28 20l2.296 5.028zM89.297 102.06 87 97.033 92.28 96l2.296 5.028zM23.297 69.06 21 64.033 26.28 63l2.296 5.028z"/>
        </g>
    </g>
</svg>
