<svg xmlns="http://www.w3.org/2000/svg" xmlns:xlink="http://www.w3.org/1999/xlink" width="226" height="203" viewBox="0 0 226 203">
    <defs>
        <ellipse id="a" cx="90.962" cy="92.268" rx="90.962" ry="92.268"/>
        <path id="c" d="M0 0h128.946v171.355H0z"/>
    </defs>
    <g fill="none" fill-rule="evenodd">
        <g transform="translate(0 17.789)">
            <mask id="b" fill="#fff">
                <use xlink:href="#a"/>
            </mask>
            <use fill="#005150" xlink:href="#a"/>
            <g mask="url(#b)">
                <path fill="#008181" d="M38.43 126.05l160.374 160.374c-45.858 43.288-116.994 43.605-160.487.112-43.492-43.493-43.175-114.628.113-160.486z"/>
                <path fill="#FF9445" d="M90.134 165.756l88.261-50.957c13.387 24.759 5.17 55.554-18.782 69.383-23.953 13.83-54.73 5.548-69.479-18.426z"/>
                <g transform="translate(34.985 46.641)">
                    <mask id="d" fill="#fff">
                        <use xlink:href="#c"/>
                    </mask>
                    <path fill="#00BCBC" d="M112.224 162.23V55.742c0-2.057-.112-4.09-.328-6.088-.89-8.26-.168-16.587 1.89-24.626.383-1.497.735-3.05 1.066-4.659.855-4.14-3.477-7.352-7.071-5.229a73.18 73.18 0 0 1-4.963 2.699c-2.13 1.046-4.66.585-6.317-1.134C86.563 6.405 72.742 0 57.475 0 42.207 0 28.389 6.403 18.45 16.7c-1.656 1.72-4.187 2.18-6.318 1.133a73.387 73.387 0 0 1-4.951-2.693C3.587 13.017-.744 16.228.109 20.368c.33 1.599.68 3.14 1.058 4.627 2.055 8.04 2.783 16.365 1.887 24.622a56.775 56.775 0 0 0-.33 6.125v27.596c0 35.076 20.62 65.324 50.159 78.892H13.612h115.334-16.722z" mask="url(#d)"/>
                </g>
                <path fill="#FFF" d="M114.987 74.017c-10.362 0-19.186 6.733-22.526 16.155-3.34-9.422-12.162-16.155-22.524-16.155-13.23 0-23.956 10.975-23.956 24.512 0 27.9 2.631 50.52 46.48 50.52 41.415 0 46.481-22.62 46.481-50.52 0-13.537-10.726-24.512-23.955-24.512" opacity=".901"/>
            </g>
        </g>
        <path fill="#FFA32C" d="M97.643 145.43l5.77-11.052c.644-1.234.454-2.785-.463-3.786l-8.492-9.297a2.907 2.907 0 0 0-4.32 0l-8.494 9.297c-.917 1.001-1.107 2.552-.463 3.786l5.77 11.053a5.985 5.985 0 0 0 10.692 0"/>
        <g fill="#007F7E">
            <path d="M124.911 119.55h-5.029c0-1.536-.416-5.109-4.275-5.109-3.859 0-4.276 3.573-4.276 5.108h-5.03c0-5.712 3.74-9.549 9.306-9.549 5.566 0 9.304 3.837 9.304 9.55M78.61 119.55h-5.03c0-1.536-.416-5.109-4.275-5.109-3.859 0-4.276 3.573-4.276 5.108H60c0-5.712 3.74-9.549 9.305-9.549 5.566 0 9.305 3.837 9.305 9.55"/>
        </g>
        <g fill="#FFF" fill-rule="nonzero">
            <path d="M226 10.788V63.07c0 5.444-4.414 9.858-9.858 9.858L182 73.07l-20 22v-22h-14.142c-5.444 0-9.858-4.414-9.858-9.858V10.93c0-5.444 4.414-9.858 9.858-9.858L216.14.93c5.446 0 9.86 4.414 9.86 9.858z"/>
        </g>
        <g fill-rule="nonzero" transform="translate(159 13)">
            <circle cx="23" cy="23" r="23" fill="#FFC700"/>
            <g fill="#734A3F">
                <path d="M35.909 18.716a1.438 1.438 0 0 1-1.438-1.437 2.878 2.878 0 0 0-2.875-2.875 2.878 2.878 0 0 0-2.875 2.875 1.438 1.438 0 0 1-2.875 0 5.756 5.756 0 0 1 5.75-5.75 5.756 5.756 0 0 1 5.75 5.75c0 .796-.644 1.437-1.437 1.437zM18.659 18.716a1.438 1.438 0 0 1-1.438-1.437 2.88 2.88 0 0 0-2.875-2.875 2.88 2.88 0 0 0-2.875 2.875 1.438 1.438 0 0 1-2.875 0 5.756 5.756 0 0 1 5.75-5.75 5.756 5.756 0 0 1 5.75 5.75c0 .796-.644 1.437-1.437 1.437z"/>
            </g>
            <path fill="#FAFAFA" d="M39.324 26.476a1.44 1.44 0 0 0-1.144-.572H7.762c-.45 0-.873.21-1.144.569a1.435 1.435 0 0 0-.241 1.26c2.078 7.385 8.904 12.546 16.591 12.546 7.688 0 14.513-5.16 16.592-12.547a1.425 1.425 0 0 0-.236-1.256z"/>
        </g>
    </g>
</svg>
