<svg xmlns="http://www.w3.org/2000/svg" width="634" height="424" viewBox="0 0 634 424">
    <g fill="none" fill-rule="evenodd">
        <path fill="#009BFF" d="M472.451 401.885l12.81 6.256 6.248-12.818-12.816-6.255z"/>
        <path fill="#00AAA8" d="M474.13 121.574l24.254 11.84 11.82-24.26-24.251-11.842z"/>
        <path fill="#FF2239" d="M523.515 322.871l-12.445 14.325 14.321 12.46 12.444-14.326z"/>
        <path fill="#7171FF" d="M402.82-2.358l-16.73 34.333 34.322 16.757 16.726-34.333z"/>
        <path fill="#009BFF" d="M210.556 46.236l-9.368 19.225 19.22 9.385 9.367-19.228z"/>
        <path fill="#F80" d="M492.312 188.953l1.087 16.965 16.954-1.08-1.09-16.968z"/>
        <path fill="#FF2239" d="M201.795 420.59l19.293-1.229-1.24-19.308-19.294 1.234z"/>
        <path fill="#00AAA8" d="M445.883 275.37l-7.36 15.107 15.1 7.372 7.36-15.106z"/>
        <path fill="#F80" d="M113.228 406.362l4.084 17.015-28.43-20.484 13.358-18.52 28.429 20.482z"/>
        <path fill="#ED2EB1" d="M611.496 287.187c-8.157-3.98-11.544-13.826-7.57-21.983l29.539 14.419c-3.977 8.161-13.811 11.547-21.969 7.564"/>
        <path fill="#009E3C" d="M30.255 370.365c5.322-10.924.786-24.098-10.134-29.433L.846 380.492c10.92 5.331 24.084.799 29.41-10.127"/>
        <path fill="#009BFF" d="M61.643 240.538c5.32-10.924.782-24.1-10.134-29.432l-19.274 39.558c10.919 5.33 24.085.797 29.408-10.126"/>
        <path fill="#00AAA8" d="M32.198 80.547l36.974-.662-7.441 15.276-37.26 1.255z"/>
        <path fill="#007F7E" d="M132.608 335.839l27.918-20.388-14.17-6.916-27.956 20.364zM54.346 116.277l34.301-.616-6.902 14.171-34.295.605z"/>
        <path fill="#7171FF" d="M206.099 249.115c-5.63 11.548-19.558 16.344-31.104 10.71l20.385-41.84c11.547 5.637 16.346 19.574 10.719 31.13"/>
    </g>
</svg>
