<svg xmlns="http://www.w3.org/2000/svg" width="20" height="50" viewBox="0 0 20 50">
    <g fill="none" fill-rule="evenodd">
        <g stroke="#77CECE" stroke-width="1.5">
            <path d="M2.54 9.836l-.67-1.403c1.955-1.034 3.362-1.984 4.22-2.851.859-.867 2.03-2.22 3.515-4.06l3.822 9.006c-2.172-.387-4.07-.57-5.69-.55-1.892.022-3.508.25-4.849.68l-.349-.822z"/>
            <path d="M5.542 10.368a.25.25 0 0 0-.217.332l.963 2.744a.25.25 0 0 0 .24.167L7.7 13.59a.25.25 0 0 0 .234-.324l-.878-2.82a.25.25 0 0 0-.258-.175l-1.255.097zM12.374 7.82c.914-.66 1.332-1.739.948-2.644-.38-.896-1.429-1.344-2.526-1.16-.235.039 1.393 3.937 1.578 3.803z"/>
            <path stroke-linecap="round" d="M14.393 2.84L16.08.897M15.058 4.741l2.57-1.09M15.963 6.54l2.571.135"/>
        </g>
        <rect width="2" height="30" x="8" y="20" fill="#77CECE" rx="1"/>
    </g>
</svg>
