<svg xmlns="http://www.w3.org/2000/svg" xmlns:xlink="http://www.w3.org/1999/xlink" width="287" height="195" viewBox="0 0 287 195">
    <defs>
        <path id="a" d="M0 224h287V0H0z"/>
        <path id="c" d="M0 0h287v105.895H0z"/>
        <path id="e" d="M77.883 41.994c-1.653 21.474-20.402 37.542-41.877 35.89C14.532 76.228-1.536 57.48.117 36.005 1.771 14.532 20.52-1.537 41.994.117 63.469 1.771 79.536 20.52 77.883 41.994"/>
        <path id="g" d="M.42.351h29.421v104.537H.421z"/>
        <path id="i" d="M0 0h287v139.413H0z"/>
        <path id="k" d="M3.54 81.15L.154 21.29l8.753-7.774c8.706-7.733 13.932-18.803 22.029-10.43l-1.15 4.941c-1.987 8.533 1.092 17.471 7.952 22.902C44.814 36.53 54.35 59.767 52.483 68.19L40.786 88.247l-23.702-3.703L3.54 81.15z"/>
        <path id="m" d="M.114 8.7l1.833-7.157L11.91 0l-.32 3.086-.322 6.788z"/>
        <path id="o" d="M.154 18.513S.462 3.086 3.232.31c2.77-2.777 20.624 20.364 19.393 39.803-.682 10.761-4.202 10.61-7.209 8.329-2.66-2.017-4.211-5.134-4.528-8.462-.678-7.118-3.094-10.96-5.501-14.369"/>
        <path id="q" d="M.065.22h61.741v61.889H.065z"/>
    </defs>
    <g fill="none" fill-rule="evenodd">
        <path stroke="#979797" stroke-linecap="square" d="M70.5 24.5l30.7 30.7"/>
        <g transform="translate(0 -29)">
            <mask id="b" fill="#fff">
                <use xlink:href="#a"/>
            </mask>
            <g mask="url(#b)" opacity=".262">
                <g transform="translate(0 124.309)">
                    <mask id="d" fill="#fff">
                        <use xlink:href="#c"/>
                    </mask>
                    <path fill="#005960" d="M243.693 0c-32.792 0-60.738 28.5-71.435 68.456a56.245 56.245 0 0 0-7.839-.549c-19.567 0-37.407 10.152-50.889 26.827-8.053-22.406-24.75-37.895-44.108-38.245C57.895 32.006 37.85 15.8 15.047 15.8c-35.741 0-64.715 39.81-64.715 88.919 0 49.108 28.974 88.918 64.715 88.918 10.31 0 20.056-3.318 28.706-9.211 7.352 5.856 15.89 9.211 25 9.211 7.26 0 14.156-2.131 20.379-5.96 5.363 50.527 37.025 89.332 75.287 89.332 32.792 0 60.738-28.5 71.436-68.457 2.577.363 5.192.55 7.838.55 42.025 0 76.093-46.81 76.093-104.551C319.786 46.809 285.718 0 243.693 0" mask="url(#d)"/>
                </g>
            </g>
            <g mask="url(#b)">
                <g transform="translate(7 29)">
                    <mask id="f" fill="#fff">
                        <use xlink:href="#e"/>
                    </mask>
                    <use fill="#FFF" xlink:href="#e"/>
                    <g mask="url(#f)">
                        <path fill="#9CD8DC" d="M61.02 136.419c-.251-1.353-.83-2.603-1.628-3.707.104-.364.17-.747.194-1.145 1.13-18.39-.112-36.884-3.55-54.994A218.715 218.715 0 0 0 52.587 61.4a3.49 3.49 0 0 0-.048-.165l1.788-.155c1.072-.096 1.322-1.398.729-1.921-.034-1.04-.175-1.554-.975-2.178-1.04-.812-2.934-1.737-4.136-2.292-2.809-1.298-5.992-1.893-9.046-2.347-2.91-.433-5.736-.517-8.623.124-2.958.657-4.266 1.123-7.036 2.947-.22.145-3.506 5.276-3.434 5.43.032.425.3.84.728.98-1.144 1.671-1.678 3.824-1.951 5.867a56.654 56.654 0 0 0-.476 9.563 62.928 62.928 0 0 0 1.264 10.332c.63 3.067 1.347 6.552 3.207 9.153.403.563.867 1.05 1.397 1.427a145.013 145.013 0 0 0-.495 11.059c-.008 1.277.013 2.556-.031 3.833-.021.607.064 1.42-.134 2.003.343-1.005-.034.163-.072.367-.066.344-.137.686-.195 1.032a10.541 10.541 0 0 0-.15 2.255 35.532 35.532 0 0 0-3.725-.305 4.773 4.773 0 0 0-2.712-.094l-1.068.27c-2.26.57-3.654 2.83-3.352 5.03.297 2.166 2.258 4.066 4.597 3.976l.029-.001c-.985.572-1.752 1.476-2.021 2.637-.55 2.365.725 5.03 3.268 5.64 1.988.476 3.878.289 5.847-.166.378-.087.754-.188 1.133-.268l.378-.079.224-.039c.25.004.533.033.623.036.171.006.342.017.512.035.36.034.227.017-.397-.051.27-.13 2.344-.387 2.185-.453.212.095 2.209 1.482 2.711 1.991 2.354 2.382 5.603 5.67 8.915 6.444 3.242.758 6.555.73 9.86.582 1.743-.078 3.763.128 5.462-.28 3.44-.83 4.202-4.235 3.652-7.2"/>
                        <path fill="#F79C82" d="M44.47 41.974c-.008-1.354-1.455-1.754-2.305-1.199a1.7 1.7 0 0 0-1.09-.19c-.725.102-1.615-.255-2.309-.467a14.264 14.264 0 0 1-2.164-.848 16.056 16.056 0 0 1-3.867-2.679c-.46-.431-.997-.483-1.456-.315a4.272 4.272 0 0 0-.607-.786c-1.333-1.353-2.353.376-1.11 1.811.987 1.138 1.2 7.183 1.227 8.808.046 2.965.027 4.824.256 7.211.108 1.138 4.65 1.948 6.203 1.948 3.919 0 6.648-1.303 6.713-1.801.597-4.563.532-6.897.508-11.493"/>
                        <path fill="#FAB08A" d="M54.22 26.987c-.363.194-.738.37-1.123.521-.374.186-.755.358-1.139.515-2.424.988-5.02 1.09-7.423-.006-1.917-.877-3.418-2.364-4.659-4.017-.692.65-1.362 1.3-1.922 2.082-.69.964-1.142 1.996-1.592 3.079-.836 2.012-1.478 2.607-3.992 1.98-1.111-.277-.09-.703-2.653-.178-.353.073-1.584 1.521-1.646 1.813-.393 1.833.944 3.814 1.65 5.481.807 1.904 1.998 3.285 3.166 4.992 1.103 1.611 2.123 3.402 3.569 4.75.788.733 1.88 1.696 3.006 2.227 1.62.763 3.565.652 5.224-.353 2.119-1.283 3.652-3.52 4.749-5.666 3.092-6.049 4.45-13.003 4.733-16.457.017-.099.03-.198.037-.3a8.769 8.769 0 0 0-.008-.096l.023-.314v-.053"/>
                        <g transform="translate(0 54)">
                            <mask id="h" fill="#fff">
                                <use xlink:href="#g"/>
                            </mask>
                            <path fill="#004472" d="M2.11 44.152a116.882 116.882 0 0 0-.631 4.081c-.071.52.111.957.41 1.262-.055 1.196-.043 2.389.111 3.563.113.849.734 1.423 1.505 1.36.085.301.198.6.35.897.312.608 1.005.776 1.597.603.287.914 1.595 1.145 2.297.53l-.002.02c-.098 1.205 1.368 1.659 2.213 1.114.283.549.884.77 1.452.655l-.008.16c-.066 1.488 2.042 1.805 2.645.607l-.13 1.114c-.152 1.285 1.583 1.72 2.385.981.192.288.513.482.864.567l.101.278a202.413 202.413 0 0 0 1.738 4.717c.378.982.612 2.026.83 3.075-.22.2-.399.461-.505.79-.16.5-.309 1.003-.451 1.506-.767-.434-1.83-.289-2.477.609a8.171 8.171 0 0 0-.915 1.663c-.945-.607-2.536-.353-2.88.961-.19.728-.368 1.459-.537 2.192a1.739 1.739 0 0 0-.966-.449c-.457-.768-1.513-1.123-2.323-.886a1.72 1.72 0 0 0-1.06.443c.227-3.758.327-7.522.307-11.287-.013-2.323-3.662-2.328-3.649 0a169.49 169.49 0 0 1-.539 14.59c-.386 4.786-1.087 9.53-1.632 14.3a131.014 131.014 0 0 0 .382 32.77c.132.972.746 7.292 1.206 10.81h17.124c1.695-7.62-.01-18.845-.254-30.761-.178-8.66-2.86-15.07 4.39-26.058 2.026-3.07 3.364-14.416 4.11-21.905a89.97 89.97 0 0 0 .549-5.741c.175-2.888.18-5.784-.083-8.689-.234-2.564-.657-5.117-1.352-7.6-.69-2.465-1.645-4.845-2.508-7.252-.865-2.415-1.659-4.886-1.97-7.438-.325-2.646-.25-5.361.138-7.996.41-2.778 1.268-5.42 1.927-8.14.653-2.698 1.559-6.308.512-5.761-.162.084-5.902 3.164-13.2 9.289-2.915 2.448-5.421 5.947-7.084 9.375-3.56 7.337-3.798 15.563-5.635 23.372-.264 1.122.775 1.826 1.649 1.709" mask="url(#h)"/>
                        </g>
                        <path fill="#004472" d="M56.091 18.492c-1.093-.402-2.413-.397-3.537-.71-4.079-1.134-5.545-5.508-9.274-7.168-3.05-1.357-7.428-.41-9.264 2.307-2.077.2-4.097.75-5.78 2.036-2.021 1.545-2.835 3.798-3.13 6.226-.145 1.18-.14 2.378.007 3.56.02 2.567.351 5.13 1.023 7.615.669 2.475 1.916 4.644 4.058 6.247.118.09.218.15.303.189-.243-.464-3.976-6.53-.747-7.864 1.304-.538 1.748.588 2.811.853 2.515.627 2.993-1.177 3.83-3.188.45-1.083.9-2.115 1.591-3.079.56-.782 1.23-1.433 1.922-2.082 1.24 1.653 2.742 3.14 4.658 4.016 2.404 1.097 5 .994 7.424.006.384-.156.765-.328 1.139-.514.187-.073.37-.154.553-.237l.05-.024c.176-.082.35-.168.52-.26v.053l-.023.314.008.097c-.007.1-.02.2-.037.299-.14 1.698-.54 4.242-1.276 7.109 2.128.89 4.526.894 6.5-.417 2.017-1.34 2.951-3.518 3.082-5.847.231-4.152-1.961-8.861-6.41-9.537M87.619 94.934c-1.967-5.508-5.036-10.574-8.478-15.311a111.536 111.536 0 0 0-11.4-13.378c-2.4-2.398-4.919-4.682-7.55-6.835a34.509 34.509 0 0 0-7.717-4.795c-2.021-.915-2.06-.829-2.128.392-.292 5.214-.585 10.459-.042 15.668.533 5.116 1.871 10.113 2.628 15.198 1.533 10.315 1.597 20.78 1.633 31.183.022 5.962.753 12.648.986 18.606.054 1.369 1.508.651 1.454-.723-.412-10.53-.107-21.07-.456-31.6-.172-5.177-.505-10.352-1.167-15.492a75.737 75.737 0 0 0-.253-1.787c.62.123 1.298-.22 1.288-1v-.016c.055.203.106.407.164.61.228.794 1.136.947 1.7.541.086-.008.17-.028.251-.055l.147.496c.333 1.098 2.304.952 2.137-.284-.012-.095-.03-.188-.045-.282a.164.164 0 0 0-.01-.057c-.064-.41-.14-.817-.232-1.221.283.463.599.91.958 1.338.562.671 1.41.282 1.72-.35.11-.036.215-.086.31-.149a42.573 42.573 0 0 0 1.745 3.177c.324.533.947.62 1.488.382 1.046-.46 1.11-1.648.89-2.61-.318-1.39-.837-2.756-1.307-4.107a1.1 1.1 0 0 0 .037-.56 51.001 51.001 0 0 0-.352-1.712c.23.36.456.723.684 1.085a212.946 212.946 0 0 0 6.29 11.56c.174.295.411.452.663.504-.097.255-.102.555.034.866l.864 1.974c-.685.124-2.066-.542-1.569.18 2.095 3.04 4.276 7.873 4.729 11.52.39 3.138.822 8.074-2.167 10.852-.866.804.35 1.478 1.61 1.228.159-.001.318-.035.467-.109 2.514-.607 5.093-1.328 7.217-2.823 2.15-1.512 3.559-3.685 4.254-6.17 1.442-5.157.288-10.997-1.475-15.934"/>
                        <path fill="#9CD8DC" d="M60.135 102.872l-20.82-.441c-2.435-.052-4.366-2.027-4.314-4.413l.238-10.791c.053-2.386 2.07-4.277 4.504-4.226l20.821.441c2.435.052 4.366 2.028 4.313 4.413l-.238 10.791c-.052 2.386-2.07 4.278-4.504 4.226"/>
                        <path fill="#FAB08A" d="M76.714 106.248c-.141-1.944-2.042-6.364-2.656-6.668-2.863-1.414-6.398-3.207-7.785-4.022-1.622-.954-3.123-2.18-5.033-2.446-2.08-.29-4.527.03-6.577.448-.402.082-.73.415-.76.726-.09.995 4.242.867 4.88.835 1.335-.065 2.439.222 3.585.703-1.431.136-2.958-.06-4.395.08-1.486.144-2.962.313-4.444.15-.222-.023-1.088-.148-1.294.054-.603.59.057 1.282.834 1.6.194.079.417.14.656.188-1.377.021-.858 1.209.06 1.4.594.123 1.198.278 1.86.349-.417.213-.517.573-.306.919.298.488 2.03.419 3.372.343 3.29-.188 6.484 2.613 9.777 2.43.886.547 7.023 3.174 7.838 3.726.567.383.331-.071.388-.815"/>
                    </g>
                </g>
            </g>
            <g mask="url(#b)" opacity=".207">
                <g transform="translate(0 84)">
                    <mask id="j" fill="#fff">
                        <use xlink:href="#i"/>
                    </mask>
                    <path fill="#005960" d="M243.693 0c-32.792 0-60.738 37.521-71.435 90.124a42.99 42.99 0 0 0-7.839-.723c-19.567 0-37.407 13.365-50.889 35.318-8.053-29.499-24.75-49.89-44.108-50.35C57.895 42.136 37.85 20.8 15.047 20.8c-35.741 0-64.715 52.411-64.715 117.063 0 64.651 28.974 117.062 64.715 117.062 10.31 0 20.056-4.369 28.706-12.127 7.352 7.71 15.89 12.127 25 12.127 7.26 0 14.156-2.806 20.379-7.847 5.363 66.52 37.025 117.607 75.287 117.607 32.792 0 60.738-37.522 71.436-90.124 2.577.477 5.192.723 7.838.723 42.025 0 76.093-61.625 76.093-137.643S285.718 0 243.693 0" mask="url(#j)"/>
                </g>
            </g>
            <g mask="url(#b)">
                <path fill="#FFF" d="M171.038 104.698c.001.115-1.606 6.287-1.606 6.287s5.945 4.782 14.3-.155l1.608-15.736-11.087 6.017-3.215 3.587z"/>
                <path stroke="#FFF" stroke-width=".9" d="M171.038 104.698c.001.115-1.606 6.287-1.606 6.287s5.945 4.782 14.3-.155l1.608-15.736-11.087 6.017-3.215 3.587z"/>
                <path fill="#005454" d="M167.754 108.803l-9.235 1.256s-7.08.309-12.928 7.097l-22.128 25.467a3.922 3.922 0 0 1-5.78.157l-28.115-29.018-7.08 5.245 28.314 41.594c4.033 5.924 12.175 7.292 17.915 3.01l17.182-12.823 3.386 59.551s42.171 12.96 56.946 4.012l.616-60.169 6.724 8.987a16.135 16.135 0 0 1 3.07 7.512l6.212 46.138h7.696l2.8-48.824a16.142 16.142 0 0 0-2.18-9.07l-20.59-35.221a22.835 22.835 0 0 0-15.52-10.93l-15.096-2.82a67.785 67.785 0 0 0-12.209-1.15"/>
                <path fill="#FFF" d="M223.674 216.82l-4.207 9.873s.308 1.543 2.155.308c1.847-1.234 2.463-2.16 2.463-2.16l-.308 8.023s6.156.926 7.387-3.086c1.232-4.01.924-10.182-.923-12.959h-6.567z"/>
                <path stroke="#FFF" stroke-width=".9" d="M223.674 216.82l-4.207 9.873s.308 1.543 2.155.308c1.847-1.234 2.463-2.16 2.463-2.16l-.308 8.023s6.156.926 7.387-3.086c1.232-4.01.924-10.182-.923-12.959h-6.567z"/>
                <g transform="translate(145.591 129.344)">
                    <mask id="l" fill="#fff">
                        <use xlink:href="#k"/>
                    </mask>
                    <path d="M3.54 81.15L.154 21.29l8.753-7.774c8.706-7.733 13.932-18.803 22.029-10.43l-1.15 4.941c-1.987 8.533 1.092 17.471 7.952 22.902C44.814 36.53 54.35 59.767 52.483 68.19L40.786 88.247l-23.702-3.703L3.54 81.15z" mask="url(#l)"/>
                </g>
                <g transform="translate(169.909 100.03)">
                    <mask id="n" fill="#fff">
                        <use xlink:href="#m"/>
                    </mask>
                    <path d="M.114 8.7l1.833-7.157L11.91 0l-.32 3.086-.322 6.788z" mask="url(#n)"/>
                </g>
                <path fill="#FFF" d="M165.107 82.44l-5.137 11.945 3.52 1.236s-2.796 10.57 3.383 10.373c6.178-.197 14.577-2.374 17.844-8.945l.028-11.317-8.678-2.484-10.96-.807z"/>
                <path stroke="#FFF" stroke-width=".9" d="M165.107 82.44l-5.137 11.945 3.52 1.236s-2.796 10.57 3.383 10.373c6.178-.197 14.577-2.374 17.844-8.945l.028-11.317-8.678-2.484-10.96-.807z"/>
                <path fill="#004966" d="M185.018 99.105s4.077-2.687 6.707-10.912c2.63-8.225 2.529-16.968-8.294-19.782-8.2-2.132-8.996 1.737-12.879.467-3.661-1.198-8.959-6.51-11.234-.096-1.253 3.532-1.361 14.42 15.134 16.789 0 0 7.105.244 6.067 4.895-.964 4.32 1.232 7.254 4.499 8.64"/>
                <path fill="#004966" d="M162.674 65.677l18.507 2.264-6.446 5.863-10.926-3.086zM149.131 210.494s36.63 8.022 56.946 3.702l-1.231 33.324-54.176 5.863-1.539-42.89z"/>
                <g transform="translate(206.847 135.515)">
                    <mask id="p" fill="#fff">
                        <use xlink:href="#o"/>
                    </mask>
                    <path d="M.154 18.513S.462 3.086 3.232.31c2.77-2.777 20.624 20.364 19.393 39.803-.682 10.761-4.202 10.61-7.209 8.329-2.66-2.017-4.211-5.134-4.528-8.462-.678-7.118-3.094-10.96-5.501-14.369-1.827-2.587-3.694-4.628-5.233-7.097" mask="url(#p)"/>
                </g>
                <path fill="#009792" d="M91.81 218.073L71.695 197.91a2.718 2.718 0 0 1 0-3.837L91.81 173.91a2.703 2.703 0 0 1 3.828 0l20.115 20.163a2.718 2.718 0 0 1 0 3.837l-20.115 20.163a2.702 2.702 0 0 1-3.828 0"/>
                <path fill="#00C9C3" d="M47.673 180.255H30.807c-4.693 0-8.497-3.813-8.497-8.517v-16.906c0-4.705 3.804-8.518 8.497-8.518h16.866c4.693 0 8.497 3.813 8.497 8.518v16.906c0 4.704-3.804 8.517-8.497 8.517M132.817 67.941c-9.35 0-16.93-7.598-16.93-16.97 0-9.373 7.58-16.971 16.93-16.971s16.93 7.598 16.93 16.97c0 9.373-7.58 16.971-16.93 16.971M239.431 100.34h-27.307a3.28 3.28 0 0 1-3.276-3.285V69.683a3.28 3.28 0 0 1 3.276-3.285h27.307a3.28 3.28 0 0 1 3.277 3.285v27.372a3.28 3.28 0 0 1-3.277 3.284"/>
                <g transform="translate(246.555 103.116)">
                    <mask id="r" fill="#fff">
                        <use xlink:href="#q"/>
                    </mask>
                    <path fill="#009792" d="M59.318 37.187L36.944 59.614a8.482 8.482 0 0 1-12.017 0L2.554 37.187c-3.319-3.327-3.319-8.72 0-12.045L24.927 2.714a8.483 8.483 0 0 1 12.017 0l22.374 22.428c3.318 3.326 3.318 8.718 0 12.045" mask="url(#r)"/>
                </g>
                <path fill="#00C9C3" d="M270.103 222.527c-9.35 0-16.93-7.598-16.93-16.97 0-9.373 7.58-16.97 16.93-16.97s16.93 7.597 16.93 16.97c0 9.372-7.58 16.97-16.93 16.97"/>
                <path fill="#005454" d="M155.452 110.662s18.258-7.169 48.14 5.602"/>
                <path fill="#99DCDC" d="M89.568 113.762L75.717 98.95s-1.54.308-.616 1.851l3.929 5.908c.244.367.338.814.261 1.249l-.549 3.12c-.162.922.073 1.87.648 2.608l3.76 4.83 6.418-4.755z"/>
            </g>
        </g>
    </g>
</svg>
