<?xml version="1.0" encoding="UTF-8"?>
<svg width="375px" height="452px" viewBox="0 0 375 452" version="1.1" xmlns="http://www.w3.org/2000/svg" xmlns:xlink="http://www.w3.org/1999/xlink">
    <!-- Generator: sketchtool 52.2 (67145) - http://www.bohemiancoding.com/sketch -->
    <title>4FB0945A-E300-4C55-9C73-B86B4DDBDCBE</title>
    <desc>Created with sketchtool.</desc>
    <g id="Page-1" stroke="none" stroke-width="1" fill="none" fill-rule="evenodd">
        <g id="side-banner-375mm-x-437mm" transform="translate(0.000000, -51.000000)" fill="#F2F6F7">
            <g id="Group-33" transform="translate(-386.000000, -43.000000)">
                <path d="M722.626166,162.36272 C714.234644,161.503198 705.720431,161.06068 697.102649,161.06068 C633.387467,161.06068 575.296907,185.137657 531.399358,224.686824 C505.177144,171.543976 450.809511,134.809383 387.777091,133.979363 C350.243491,75.9098119 284.971579,37.4745146 210.724172,37.4745146 C94.3446775,37.4745146 0,131.895142 0,248.368325 C0,364.841508 94.3446775,459.262136 210.724172,459.262136 C244.296636,459.262136 276.027155,451.391691 304.195679,437.414494 C328.132989,451.304782 355.936629,459.262136 385.597351,459.262136 C409.235106,459.262136 431.691372,454.206266 451.954353,445.125473 C469.418567,564.964984 572.514074,657 697.102649,657 C803.877264,657 894.874256,589.403152 929.706284,494.63728 C938.097807,495.496802 946.612816,495.93932 955.229801,495.93932 C1092.06986,495.93932 1203,384.919875 1203,247.96966 C1203,111.019445 1092.06986,0 955.229801,0 C848.455186,0 757.458195,67.5968483 722.626166,162.36272 Z" id="Fill-1"></path>
            </g>
        </g>
    </g>
</svg>