<svg width="100" height="100" viewBox="0 0 100 100" xmlns="http://www.w3.org/2000/svg" xmlns:xlink="http://www.w3.org/1999/xlink">
    <defs>
        <path id="a" d="M0 0h3.787v5.723H0z"/>
        <path id="c" d="M0 0h32.951v23.578H0z"/>
    </defs>
    <g fill="none" fill-rule="evenodd">
        <g transform="translate(10 1)" fill-rule="nonzero">
            <circle fill="#FF872F" cx="39.914" cy="40.064" r="39.914"/>
            <circle fill="#E6F8F8" cx="39.914" cy="40.064" r="34.027"/>
            <path d="M39.914 65.943c-14.27 0-25.88-11.61-25.88-25.88s11.61-25.88 25.88-25.88 25.88 11.61 25.88 25.88-11.61 25.88-25.88 25.88z" fill="#FF9600"/>
            <path d="M39.914 57.798c-9.779 0-17.734-7.956-17.734-17.735S30.135 22.33 39.914 22.33c9.78 0 17.735 7.955 17.735 17.734 0 9.779-7.956 17.735-17.735 17.735z" fill="#E6F8F8"/>
            <path d="M39.914 49.652c-5.287 0-9.588-4.302-9.588-9.589 0-5.287 4.301-9.589 9.588-9.589 5.288 0 9.589 4.302 9.589 9.59 0 5.286-4.301 9.588-9.589 9.588z" fill="#FF9600"/>
            <path d="M71.4 64.985 38.152 42.27a2.204 2.204 0 0 1 2.465-3.655l33.357 22.403-2.574 3.967z" fill-opacity=".17" fill="#000"/>
            <path d="M72.709 10.318 41.363 41.663a2.204 2.204 0 0 1-3.117-3.117L69.59 7.2l3.118 3.118z" fill="#00BCBC"/>
            <path fill="#31E5DB" d="M54.759 12.09 66.826.021l2.816 7.24L57.575 19.33z"/>
            <path fill="#008181" d="m57.474 9.374 1.81-1.81 2.816 7.24-1.81 1.81zM61.899 4.95l1.81-1.81 2.816 7.24-1.81 1.81z"/>
            <path fill="#31E5DB" d="M72.76 10.38 60.692 22.447l7.24 2.816L80 13.195z"/>
            <g fill="#008181">
                <path d="m69.642 13.497-1.81 1.81 7.24 2.816 1.81-1.81zM65.217 17.922l-1.81 1.81 7.24 2.816 1.81-1.81z"/>
            </g>
        </g>
        <g transform="translate(0 10)">
            <circle fill="#E02020" cx="13.758" cy="13.758" r="13.758"/>
            <path fill="#FFF" d="M12.382 6.191h3.096v11.006h-3.096z"/>
            <circle fill="#FFF" cx="13.93" cy="20.121" r="1.548"/>
        </g>
        <path fill="#FFA32C" d="m80 94.29-.876.71L77 92.81l.608-.81z"/>
        <path d="M77.426 90.313c1.16.983 1.206 2.022.597 2.74-.609.717-1.643.841-2.803-.142s-1.606-2.361-.997-3.078c.609-.718 2.043-.503 3.203.48" fill="#00BCBC"/>
        <g transform="translate(76.976 94.277)">
            <mask id="b" fill="#fff">
                <use xlink:href="#a"/>
            </mask>
            <path d="M2.682 4.527c.893.106 1.055-3.036 1.105-3.96.01-.196-.72-.876-1.514-.402C1.413.677.266 2.748.025 3.716-.17 4.5.83 6.04 1.549 5.666c.536-.279.174-1.612.553-2.029.137-.15.05.827.58.89" fill="#FFA32C" mask="url(#b)"/>
        </g>
        <path fill="#FFA32C" d="m76.008 95.534-.745.448-1.583-1.697.536-.537z"/>
        <path d="M73.99 92.035c.866.863.836 1.7.301 2.235-.534.535-1.371.568-2.237-.295-.866-.863-1.135-1.997-.6-2.533.535-.535 1.67-.27 2.536.593" fill="#00BCBC"/>
        <path d="M75.229 98.985c.709.143 1.043-2.365 1.142-3.103.021-.155-.52-.748-1.187-.42-.722.356-1.777 1.941-2.033 2.701-.207.616.495 1.915 1.096 1.662.447-.189.243-1.281.575-1.59.12-.112-.014.666.407.75" fill="#FFA32C"/>
        <path d="M49.629 50.134c.16-1.955-.104-3.407 1.015-3.963 1.245-.62 2.09.545 3.47 1.923a65.566 65.566 0 0 0 2.502 2.352l-7.349 2.914s.202-1.266.362-3.226" fill="#03B5B5"/>
        <path d="m55.063 81.286 22.692-6.687a2.643 2.643 0 0 0 1.789-3.283l-1.532-12.511a6.807 6.807 0 0 0-.327-1.411c-2.904-8.33-10.261-13.44-20.435-10.473-10.2 2.902-13.284 10.83-11.63 19.174.17.852.458 1.676.838 2.458l5.32 10.946a2.646 2.646 0 0 0 3.285 1.787M87.233 81.088l-1.868-1.866c.226-2.035 1.606-4.236 2.34-5.284.5-.763 1.414-.101 1.967.217.92-.033 1.462.64 1.57 1.511.348.48 1.193 1.271.532 1.85-1.025.971-3.35 3.096-4.541 3.572" fill="#00BCBC"/>
        <path d="M79.45 70.515S52.863 53.05 47.389 58.697c-5.473 5.647 4.047 23.946 8.405 28.922 4.256 4.86 11.783 5.932 17.719 5.626 2.489.03 5.048-.766 7.493-2.697 5.655-4.466 7.784-7.905 7.784-7.905l-9.338-12.128zM74.457 50.875c1.862-.62 3.096-1.431 4.046-.622 1.06.902.318 2.135-.41 3.944-.639 1.591-1.183 3.222-1.183 3.222l-5.566-5.61s1.245-.312 3.113-.934" fill="#00BCBC"/>
        <path d="M67 54.965c-3.123-.936-5.604-.311-9.387 1.732-.583.315-1.103.066-1.509-.488-.826-1.128-1.867-2.177-2.7-2.608-4.518-2.337-7.118 2.329-7.555 6.502-.855 8.127 2.396 13.49 11.738 14.502 9.341 1.058 13.79-1.766 14.393-10.932.261-3.978-1.868-7.775-4.98-8.708" fill="#FFF"/>
        <path d="M48.327 61.038c-.105 1.01.424 1.891 1.182 1.97.758.079 1.457-.676 1.562-1.685.105-1.01-.424-1.892-1.182-1.97-.758-.08-1.457.675-1.562 1.685M61.705 62.951c-.118 1.136.477 2.128 1.33 2.216.852.089 1.639-.76 1.757-1.895.118-1.136-.478-2.128-1.33-2.216-.852-.088-1.639.76-1.757 1.895" fill="#007F7E"/>
        <g transform="translate(67.049 70.899)">
            <mask id="d" fill="#fff">
                <use xlink:href="#c"/>
            </mask>
            <path d="M28.65 19.783c.848-1.013 4.332-.077 4.301-1.598-.01-.46-1.062-1.206-2.309-2.073-2.516-1.75-6.698-3.497-10.651-8.78-.773-1.032-3.834-6.211-7.388-6.938-4.289-.877-8.08-.667-11.4 4.62C-1.66 9.568 1.063 15.043 4.39 17.81c5.409 4.5 10.66 5.204 13.618 5.618 2.006.28 7.39.24 9.718-.755 1.268-.542.36-2.22.922-2.89" fill="#FFA32C" mask="url(#d)"/>
        </g>
        <path d="M55.76 62.173c-.495-.494-1.339-.475-1.75.091l-.01.014-1.57 2.845a.748.748 0 0 0 .038.807l1.711 2.414c.613.667 1.665.67 2.281.007l1.86-1.798a.735.735 0 0 0 .132-.89c-.207-.368-1.939-2.737-2.692-3.49" fill="#FFA32C"/>
        <path d="M57.482 65.322s-.831 2.705-2.268 2.705c-1.335 0-2.268-2.705-2.268-2.705l1.993-.616c.201-.063.416-.062.617.002l1.926.614z" fill="#E38D1D"/>
        <path d="M57.781 65.677c-.051.572-1.205.937-2.577.814-1.372-.123-2.443-.687-2.391-1.26.051-.572 1.205-.936 2.577-.813 1.372.123 2.442.687 2.391 1.26" fill="#FFA32C"/>
        <path d="M58.898 70.672c-.346-1.552-4.153-1.326-5.287-1.23-10.021.853-21.218 4.533-19.42 12.025 1.735 7.222 13.5 4.397 17.182 2.973 2.476-.958 3.462-4.08-.2-4.666 2.478-.958 3.463-4.08 1.466-4.994 3.238-.835 6.605-2.555 6.26-4.108" fill="#008181"/>
        <g>
            <path d="M84.938 59.105a.679.679 0 0 1 .562-.402l5.502-.144c.225-.006.338.164.253.38a.679.679 0 0 1-.563.4l-5.502.146c-.225.006-.338-.164-.252-.38M77.005 47.46a.667.667 0 0 0 .559-.398l2.053-5.272c.084-.216-.03-.387-.255-.383a.666.666 0 0 0-.558.399l-2.053 5.272c-.084.216.03.387.254.383" fill="#FF7900"/>
            <path d="M81.807 52.558c-.092-.14.031-.393.276-.568l5.977-4.268c.244-.175.517-.204.61-.065.092.14-.031.394-.276.569l-5.977 4.268c-.244.175-.517.204-.61.064" fill="#FFF"/>
        </g>
    </g>
</svg>
