<svg xmlns="http://www.w3.org/2000/svg" width="100" height="100" viewBox="0 0 100 100">
    <g fill="none" fill-rule="nonzero">
        <circle cx="49.893" cy="50.08" r="49.893" fill="#FF872F"/>
        <circle cx="49.893" cy="50.08" r="42.533" fill="#E6F8F8"/>
        <path fill="#FF9600" d="M49.893 82.43c-17.838 0-32.35-14.513-32.35-32.351s14.512-32.35 32.35-32.35 32.35 14.512 32.35 32.35-14.512 32.35-32.35 32.35z"/>
        <path fill="#E6F8F8" d="M49.893 72.247c-12.224 0-22.168-9.944-22.168-22.168 0-12.224 9.944-22.168 22.168-22.168 12.223 0 22.168 9.944 22.168 22.168 0 12.224-9.945 22.168-22.168 22.168z"/>
        <path fill="#FF9600" d="M49.893 62.065c-6.609 0-11.986-5.377-11.986-11.986 0-6.61 5.377-11.986 11.986-11.986 6.61 0 11.986 5.377 11.986 11.986 0 6.61-5.377 11.986-11.986 11.986z"/>
        <path fill="#000" fill-opacity=".17" d="M89.25 81.231L47.69 52.837a2.755 2.755 0 0 1 3.081-4.569l41.696 28.005-3.217 4.958z"/>
        <path fill="#00BCBC" d="M90.886 12.897L51.704 52.079a2.755 2.755 0 0 1-3.897-3.897L86.989 9l3.897 3.897z"/>
        <path fill="#31E5DB" d="M68.449 15.112L83.533.027l3.52 9.05-15.085 15.085z"/>
        <path fill="#008181" d="M71.843 11.718l2.262-2.263 3.52 9.05-2.263 2.263zM77.373 6.187l2.263-2.263 3.52 9.05-2.263 2.263z"/>
        <path fill="#31E5DB" d="M90.95 12.975L75.864 28.059l9.05 3.52L100 16.494z"/>
        <g fill="#008181">
            <path d="M87.053 16.871l-2.263 2.263 9.05 3.52 2.263-2.263zM81.522 22.403l-2.263 2.262 9.05 3.52 2.263-2.263z"/>
        </g>
    </g>
</svg>
