<?xml version="1.0" encoding="UTF-8"?>
<svg width="560px" height="292px" viewBox="0 0 560 292" version="1.1" xmlns="http://www.w3.org/2000/svg" xmlns:xlink="http://www.w3.org/1999/xlink">
    <!-- Generator: sketchtool 51.2 (57519) - http://www.bohemiancoding.com/sketch -->
    <title>F9BE2590-05EC-40B8-9C92-836A30116464</title>
    <desc>Created with sketchtool.</desc>
    <defs>
        <polygon id="path-1" points="0.118266897 0 130.650038 0 130.650038 185.305202 0.118266897 185.305202"></polygon>
        <polygon id="path-3" points="0 292 560 292 560 0 0 0"></polygon>
    </defs>
    <g id="Latest" stroke="none" stroke-width="1" fill="none" fill-rule="evenodd">
        <g id="1024px---homepage" transform="translate(-413.000000, -272.000000)">
            <g id="Group-16" transform="translate(413.000000, 272.000000)">
                <g id="Group" transform="translate(280.000000, 146.000000) scale(-1, 1) translate(-280.000000, -146.000000) ">
                    <path d="M369.847199,212.104235 C369.847199,256.229702 334.091043,292 289.983022,292 C245.875001,292 210.118846,256.229702 210.118846,212.104235 C210.118846,167.978767 245.875001,132.208469 289.983022,132.208469 C334.091043,132.208469 369.847199,167.978767 369.847199,212.104235" id="Fill-1" fill="#00756F"></path>
                    <path d="M442.105263,212.104235 C442.105263,256.229702 406.349108,292 362.241087,292 C318.133065,292 282.37691,256.229702 282.37691,212.104235 C282.37691,167.978767 318.133065,132.208469 362.241087,132.208469 C406.349108,132.208469 442.105263,167.978767 442.105263,212.104235" id="Fill-3" fill="#005960"></path>
                    <path d="M334.728351,0.000620869389 L334.487771,0.000620869389 C332.06961,0.000620869389 197.327941,0 197.157247,0 C186.464769,0 177.704347,8.29295243 176.907158,18.8197929 C176.793362,20.2862864 176.868195,9.49557644 176.846549,185.472313 L297.78862,185.472313 C308.048798,185.472313 316.499992,177.127207 316.499992,166.689151 L316.499992,178.31493 L352.733447,178.31493 L352.733447,18.0759914 C352.733447,8.13463074 344.631679,0.000620869389 334.728351,0.000620869389" id="Fill-5" fill="#005960"></path>
                    <path d="M332.767402,0 L332.767402,0.0353895552 C323.403421,0.602864177 315.923816,8.50094368 315.923816,18.0697827 L315.943528,51.9779435 L315.943528,166.689151 C315.943528,173.584527 312.256703,179.609443 306.76127,182.875837 C303.987989,184.526108 300.757628,185.472313 297.306734,185.472313 L176.842105,185.472313 L176.842105,20.3893507 C176.842105,19.8622326 176.86305,19.3363563 176.90309,18.8197929 C177.696512,8.29295243 186.422307,0 197.07252,0 L332.767402,0 Z" id="Fill-7" fill="#00756F"></path>
                    <g id="Group-11" transform="translate(176.842105, 0.000000)">
                        <mask id="mask-2" fill="white">
                            <use xlink:href="#path-1"></use>
                        </mask>
                        <g id="Clip-10"></g>
                        <path d="M116.542978,165.091201 L116.542978,33.8723308 C116.542978,25.5496485 109.812511,18.8025503 101.508197,18.8025503 L26.4822075,18.8025503 C24.0301513,18.8025503 22.3201484,16.3976134 23.0789119,14.06029 C25.7290141,5.89888798 33.3760628,-0.000248123495 42.4026252,-0.000248123495 L20.4479954,-0.000248123495 C9.74980145,-0.000248123495 0.989363232,8.285836 0.189752763,18.8025503 L0.184182721,18.8025503 C0.0455505654,20.5772536 0.177374892,17.0923592 0.123531153,185.305202 L22.078161,185.305202 L121.15126,185.305202 C124.618301,185.305202 127.863779,184.359231 130.650038,182.71045 C122.604422,180.914656 116.542978,173.680616 116.542978,165.091201" id="Fill-9" fill="#00756F" mask="url(#mask-2)"></path>
                    </g>
                    <path d="M265.861398,30.4364821 C274.146628,30.4364821 280.863096,37.1679663 280.863096,45.4747726 L280.863096,167.4536 C280.863096,176.618322 287.776509,184.244242 296.63837,185.33366 L296.63837,185.472313 L178.483099,185.472313 L178.483099,185.456838 C178.304059,185.462409 178.126254,185.470456 177.945979,185.470456 L172.762463,185.470456 C165.593456,185.470456 159.728353,179.58946 159.728353,172.40302 L159.728353,53.7821978 L159.728353,30.4364821 L265.861398,30.4364821 Z" id="Fill-12" fill="#71D8B8"></path>
                    <path d="M144.005732,30.4370985 C144.019285,30.4370985 144.032837,30.4364821 144.046389,30.4364821 L126.715743,30.4364821 C119.732726,30.4364821 113.57577,33.7386854 109.940733,38.7625713 C109.857573,38.8772268 109.780572,38.9961974 109.699876,39.1127022 C109.604395,39.250782 109.50645,39.387629 109.415282,39.5275581 C107.556183,42.3834677 106.485569,45.7349852 106.485569,49.3207452 L106.485569,234.011119 C106.485569,236.633403 107.054756,239.132401 108.084714,241.404553 C110.458176,246.641723 115.278404,250.673161 121.206823,252.261695 C122.994465,252.741276 124.880668,253.003257 126.832784,253.003257 L226.950618,253.003257 C237.242806,253.003257 245.585959,245.21531 245.585959,235.6089 L245.585959,78.5751718 L245.564399,47.1743439 C245.564399,38.3101133 253.046995,30.9949656 262.410866,30.4703856 L262.410866,30.4364821 L144.005732,30.4370985 Z" id="Fill-14" fill="#FFFFFF"></path>
                    <path d="M92.6991807,43.752443 C143.895605,43.752443 185.398981,85.2714766 185.398981,136.488599 C185.398981,187.705102 143.895605,229.224756 92.6991807,229.224756 C41.5027567,229.224756 0,187.705102 0,136.488599 C0,85.2714766 41.5027567,43.752443 92.6991807,43.752443" id="Fill-16" fill="#004472"></path>
                    <path d="M132.156197,53.2638436 L132.156197,220.434004 C131.528586,220.842721 130.892963,221.23598 130.254669,221.615635 L130.254669,53.2638436 L132.156197,53.2638436 Z" id="Fill-18" fill="#00756F"></path>
                    <path d="M13.3106961,86.5537459 L13.3106961,189.276873 C12.6505917,187.876828 12.0149686,186.44998 11.4091681,185.000067 L11.4091681,90.8305517 C12.0149686,89.3806391 12.6505917,87.9537905 13.3106961,86.5537459" id="Fill-20" fill="#00A7A7"></path>
                    <path d="M171.137521,88.8630966 L171.137521,183.162962 C170.531863,184.593701 169.895943,185.996545 169.235993,187.374593 L169.235993,84.6514658 C169.895943,86.0295134 170.531863,87.4323572 171.137521,88.8630966" id="Fill-22" fill="#00A7A7"></path>
                    <path d="M92.2241087,43.7605046 L92.2241087,229.216694 C91.9303333,229.220415 91.6347774,229.224756 91.341002,229.224756 C91.0013799,229.224756 90.6617577,229.221035 90.3225806,229.213593 L90.3225806,43.7642254 C90.6617577,43.7561637 91.0013799,43.752443 91.341002,43.752443 C91.6343323,43.752443 91.9303333,43.7561637 92.2241087,43.7605046" id="Fill-24" fill="#00A7A7"></path>
                    <path d="M53.2427844,53.2638436 L53.2427844,222.566775 C52.6041949,222.165211 51.9687206,221.748752 51.3412564,221.319879 L51.3412564,54.5101192 C51.9687206,54.0812465 52.6046399,53.6647869 53.2427844,53.2638436" id="Fill-26" fill="#00A7A7"></path>
                    <path d="M185.398981,133.787905 L185.398981,133.791653 L175.099437,157.077804 L172.631824,153.638231 L169.989853,149.955026 L157.65983,132.773399 L143.107658,139.240248 L136.179053,121.573858 L134.348284,116.903009 L133.431354,114.562275 L132.408077,111.953546 L130.789383,116.861154 L130.736209,117.024825 L129.158941,121.795625 L120.026117,149.47401 L106.790293,149.47401 L94.5066426,173.107492 L94.2308834,172.943822 L91.5889122,171.360843 L76.9767654,162.610733 L65.39797,134.630619 L55.0310311,157.955501 L53.9817859,160.315601 L52.38906,159.663419 L40.1536361,154.668353 L26.2580923,168.704013 L15.8311789,171.777515 L13.1892078,172.555886 L11.4981732,173.055017 L6.5165768,170.538744 C5.87849718,168.841446 5.29420916,167.121659 4.75382003,165.383131 L11.8642033,168.975131 L13.1892078,168.585946 L15.8311789,167.804451 L24.2727496,165.318788 L39.2521632,150.188037 L52.0273579,155.40487 L52.38906,154.588392 L55.0310311,148.64379 L65.5191556,125.044666 L79.9773472,159.976392 L91.5895305,166.931752 L93.0122255,167.781338 L94.2308834,165.436231 L104.507551,145.662118 L117.309333,145.662118 L125.630954,120.431289 L127.234809,115.565536 L130.790001,104.789538 L132.099548,100.820847 L133.431972,104.217941 L137.741483,115.211333 L139.617387,119.989005 L145.172761,134.158349 L158.92857,128.045703 L169.990472,143.461315 L172.631824,147.141397 L174.319149,149.494 L184.76523,125.875511 C185.085506,128.479867 185.296963,131.118581 185.398981,133.787905" id="Fill-28" fill="#FFFFFF"></path>
                    <path d="M132.156197,94.1628664 C139.507543,94.1628664 145.466893,100.124439 145.466893,107.478527 C145.466893,114.832615 139.507543,120.794788 132.156197,120.794788 C124.804851,120.794788 118.845501,114.832615 118.845501,107.478527 C118.845501,100.124439 124.804851,94.1628664 132.156197,94.1628664" id="Fill-30" fill="#FF7900"></path>
                    <polygon id="Fill-32" fill="#118C8C" points="164.482173 292 64.6519525 292 64.6519525 229.119073 114.567063 178.814332 164.482173 229.119073"></polygon>
                    <mask id="mask-4" fill="white">
                        <use xlink:href="#path-3"></use>
                    </mask>
                    <g id="Clip-35"></g>
                    <polygon id="Fill-34" fill="#00756F" mask="url(#mask-4)" points="164.482173 291.04886 246.247878 291.04886 246.247878 228.273616 164.482173 228.273616"></polygon>
                    <polygon id="Fill-36" fill="#005960" mask="url(#mask-4)" points="200.950705 183.540523 200.950705 183.540523 196.265237 178.814332 115.042445 178.814332 160.339001 224.499186 165.025085 229.224756 246.247878 229.224756"></polygon>
                    <polygon id="Fill-37" fill="#71D8B8" mask="url(#mask-4)" points="98.8794567 292 130.254669 292 130.254669 248.247557 98.8794567 248.247557"></polygon>
                    <polygon id="Fill-38" fill="#00A7A7" mask="url(#mask-4)" points="177.429471 206.397394 168.285229 196.885993 184.827271 196.885993 193.955857 206.397394"></polygon>
                    <path d="M442.111703,222.566775 L443.056027,229.062427 C441.302121,230.459615 439.002453,230.548936 437.172684,229.29062 L436.844888,229.062427 L435.449915,222.566775 L442.111703,222.566775 Z" id="Fill-39" fill="#FAB08A" mask="url(#mask-4)"></path>
                    <path d="M393.467973,79.4833175 C398.959172,97.6548241 417.385399,125.550489 417.385399,125.550489 L402.829691,119.577735 L392.545328,95.7452106 C392.545328,95.7452106 387.979257,61.3124331 393.467973,79.4833175" id="Fill-40" fill="#005960" mask="url(#mask-4)"></path>
                    <path d="M431.689984,152.24571 L443.056027,222.566775 L432.951376,222.566775 C432.951376,222.566775 410.261685,159.296374 407.877759,140.696209 C407.877759,130.159054 430.818131,140.696209 430.818131,140.696209 L431.689984,152.24571 Z" id="Fill-41" fill="#1C2C57" mask="url(#mask-4)"></path>
                    <polygon id="Fill-42" fill="#F79C82" mask="url(#mask-4)" points="393.616299 51.277668 390.009693 60.8729642 382.207131 55.0656505 387.474257 43.752443"></polygon>
                    <path d="M397.28469,54.0311681 C398.530709,54.2614904 399.719787,54.319847 400.422452,53.9436332 C405.091539,49.3806447 403.952131,34.1321924 403.952131,34.1321924 L398.737268,30.4364821 L390.523359,33.5219315 L388.140961,43.0657169 C387.505534,45.6141615 388.208805,48.3401591 390.030282,50.4062307 C392.059529,52.2245971 394.568527,53.5276873 397.28469,54.0311681" id="Fill-43" fill="#FAB08A" mask="url(#mask-4)"></path>
                    <path d="M391.974624,35.9483577 C392.723228,34.4399794 394.522866,33.7291836 396.119017,34.3324127 C397.28206,34.7749029 398.685305,35.2393954 400.077348,35.5235915 C403.387884,36.2056621 409.560291,36.1463782 410.61568,31.1976995 C411.667335,26.2490207 405.120315,26.6737869 405.120315,26.6737869 L396.4146,27.2635702 C393.837112,27.4377548 391.277669,26.9249796 388.908645,25.9122637 C386.817157,25.0162821 384.957159,26.9225349 384.508494,28.1968334 C383.529023,30.9911225 384.551431,35.7631719 385.412046,38.8227107 C385.905515,40.5957275 386.723193,42.2593441 387.812807,43.752443 L391.974624,35.9483577 Z" id="Fill-44" fill="#1C2C57" mask="url(#mask-4)"></path>
                    <path d="M387.736491,38.2926849 C388.705822,37.710146 390.21022,38.1929251 391.09325,39.370382 C391.979043,40.5485671 391.908621,41.9721467 390.942051,42.5546856 C389.969267,43.1364964 388.467632,42.6537173 387.58184,41.4762604 C386.696738,40.2988035 386.766469,38.8723112 387.736491,38.2926849" id="Fill-45" fill="#FAB08A" mask="url(#mask-4)"></path>
                    <path d="M443.078437,228.531844 C443.078437,228.531844 443.104481,235.002376 455.988477,238.882985 C458.63287,239.681952 457.770989,240.469313 458.268251,241.589577 L443.443056,241.589577 L437.640049,235.009095 L435.830887,236.572822 L431.646859,232.425891 C431.646859,232.425891 432.373068,226.423867 435.560754,226.371336 C438.191822,227.275365 443.078437,228.531844 443.078437,228.531844" id="Fill-46" fill="#1C2C57" mask="url(#mask-4)"></path>
                    <path d="M405.976231,220.928606 L403.606405,226.16196 C401.44931,226.749784 399.131922,226.076354 397.680947,224.437293 L397.419355,224.143951 L399.333926,218.762215 L405.976231,220.928606 Z" id="Fill-47" fill="#FAB08A" mask="url(#mask-4)"></path>
                    <path d="M393.158106,59.6716283 C393.158106,59.6716283 394.211675,58.0610463 384.831231,53.2638436 C370.688205,67.2501846 366.044143,120.794788 366.044143,120.794788 L403.025725,120.794788 C404.277034,90.2369094 393.158106,59.6716283 393.158106,59.6716283" id="Fill-48" fill="#006769" mask="url(#mask-4)"></path>
                    <path d="M428.750491,118.583535 C428.917641,117.870919 428.59923,117.130307 427.967494,116.763819 L421.823632,113.197556 C420.305939,112.315057 418.513688,112.026193 416.794525,112.38441 L410.135232,112.650368 L409.262622,113.702114 L407.877759,119.596468 C409.214956,119.273246 409.99986,119.069641 409.99986,119.069641 L414.230081,119.186078 C414.230081,119.186078 422.20814,126.60365 426.161261,120.1532 C426.32841,127.01913 428.336113,126.492303 428.336113,126.492303 L428.750491,118.583535 Z" id="Fill-49" fill="#FAB08A" mask="url(#mask-4)"></path>
                    <path d="M365.783041,119.843648 L365.224206,124.37002 C365.217353,124.432176 365.208631,124.492487 365.20427,124.551567 C364.212447,133.194444 369.974613,141.202829 378.450586,143.550019 C378.450586,143.550019 395.264224,149.049975 416.484994,150.197723 C402.554619,167.86688 398.699469,217.445879 398.699469,217.445879 L407.675091,220.664495 L442.340292,139.111036 C444.554449,133.899709 441.421984,127.984963 435.828029,126.808291 L402.718469,119.843648 L365.783041,119.843648 Z" id="Fill-50" fill="#004060" mask="url(#mask-4)"></path>
                    <path d="M389.251784,76.3206367 C389.251784,76.3206367 382.451719,82.5604322 378.44929,88.9613782 C377.33812,90.7383554 377.504426,93.0395347 378.879837,94.6251072 C386.483099,103.405029 413.582343,111.837953 413.582343,111.837953 L411.827507,121.745928 C411.827507,121.745928 373.371415,114.164447 359.749727,100.469744 C345.775101,86.418782 381.908453,57.0684039 381.908453,57.0684039" id="Fill-51" fill="#006769" mask="url(#mask-4)"></path>
                    <polygon id="Fill-52" fill="#118C8C" mask="url(#mask-4)" points="442.934541 129.355049 454.465195 89.0363834 452.348237 88.4560261 441.355401 126.904244 408.252734 121.280087 407.877759 123.395859"></polygon>
                    <path d="M403.678135,224.674226 C403.678135,224.674226 403.17421,231.198162 416.056389,235.078927 C418.698359,235.877926 417.838901,236.665318 418.336163,237.785016 L403.510362,237.785016 L397.705538,231.202438 L395.900616,232.766228 L391.714771,228.621574 C391.714771,228.621574 393.669296,222.619309 396.856377,222.566775 C399.485022,223.47023 403.678135,224.674226 403.678135,224.674226" id="Fill-53" fill="#1C2C57" mask="url(#mask-4)"></path>
                    <polygon id="Fill-55" fill="#005960" mask="url(#mask-4)" points="411.680815 292 536.2309 292 536.2309 273.928339 411.680815 273.928339"></polygon>
                    <polygon id="Fill-56" fill="#00756F" mask="url(#mask-4)" points="435.449915 274.879479 560 274.879479 560 256.807818 435.449915 256.807818"></polygon>
                    <polygon id="Fill-57" fill="#005960" mask="url(#mask-4)" points="435.449915 259.661238 560 259.661238 560 241.589577 435.449915 241.589577"></polygon>
                </g>
                <path d="M203.273766,234.594978 C205.672572,234.109177 207.504056,233.137575 208.763353,231.679557 C210.023258,230.221538 210.652603,228.490757 210.652603,226.485981 C210.652603,224.481206 210.051837,222.857559 208.853346,221.611963 C207.652423,220.367598 205.793577,219.166949 203.273766,218.01248 L203.273766,234.594978 Z M190.22718,196.874904 C190.22718,198.758999 190.781125,200.306913 191.892663,201.521723 C193.001161,202.737764 194.846022,203.951343 197.425423,205.165538 L197.425423,189.312664 C195.205995,189.677785 193.451127,190.529322 192.162035,191.864197 C190.871118,193.200919 190.22718,194.870129 190.22718,196.874904 Z M221,226.395471 C221,231.557645 219.36492,235.764841 216.096585,239.013981 C212.825818,242.263737 208.551747,244.221718 203.273766,244.890387 L203.273766,253 L197.425423,253 L197.425423,244.982129 C192.446608,244.676733 188.187739,243.311688 184.648816,240.881452 C181.108069,238.453063 178.55968,235.141119 177,230.949932 L185.908722,225.756972 C188.007145,231.10263 191.847058,234.079623 197.425423,234.685489 L197.425423,215.734325 C194.726234,214.702383 192.535993,213.775729 190.857741,212.955593 C189.177057,212.135458 187.393002,210.996997 185.503144,209.539594 C183.613894,208.080959 182.203798,206.305846 181.27407,204.209329 C180.343735,202.114043 179.879175,199.669645 179.879175,196.874904 C179.879175,191.773071 181.558035,187.642223 184.918188,184.482978 C188.277124,181.326195 192.446608,179.504287 197.425423,179.016639 L197.425423,171 L203.273766,171 L203.273766,179.108997 C211.311743,180.201279 216.891323,184.363529 220.010683,191.590203 L211.282556,196.692036 C209.721659,192.744673 207.052874,190.346454 203.273766,189.494917 L203.273766,207.534818 C205.194027,208.263827 206.648512,208.841986 207.63783,209.265599 C208.628363,209.692292 209.946643,210.329559 211.597532,211.179865 C213.245989,212.031402 214.521096,212.880476 215.422244,213.730781 C216.321568,214.582318 217.265281,215.614261 218.255815,216.828455 C219.245132,218.043881 219.949876,219.456337 220.369439,221.063975 C220.788394,222.675307 221,224.451035 221,226.395471 Z" id="Fill-54" fill="#00756F"></path>
            </g>
        </g>
    </g>
</svg>