<?xml version="1.0" encoding="UTF-8"?>
<svg width="99px" height="23px" viewBox="0 0 99 23" version="1.1" xmlns="http://www.w3.org/2000/svg" xmlns:xlink="http://www.w3.org/1999/xlink">
    <!-- Generator: Sketch 52.1 (67048) - http://www.bohemiancoding.com/sketch -->
    <title>Group</title>
    <desc>Created with Sketch.</desc>
    <g id="Symbols" stroke="none" stroke-width="1" fill="none" fill-rule="evenodd">
        <g id="best_value_icon">
            <g id="Group">
                <polygon id="Fill-1" fill="#E46F6F" points="0 0 0 23 99 23 89.6949686 11.5 99 0"></polygon>
                <path d="M16.21,10.848 C16.7886696,11.0160008 17.2343318,11.3099979 17.547,11.73 C17.8596682,12.1500021 18.016,12.6679969 18.016,13.284 C18.016,14.1333376 17.715003,14.7983309 17.113,15.279 C16.510997,15.7596691 15.6733387,16 14.6,16 L10.078,16 L10.078,6.032 L14.46,6.032 C15.4866718,6.032 16.2939971,6.26299769 16.882,6.725 C17.4700029,7.18700231 17.764,7.82399594 17.764,8.636 C17.764,9.15866928 17.6263347,9.61366473 17.351,10.001 C17.0756653,10.3883353 16.6953358,10.6706658 16.21,10.848 Z M11.842,10.232 L14.166,10.232 C15.4166729,10.232 16.042,9.765338 16.042,8.832 C16.042,8.365331 15.8880015,8.0153345 15.58,7.782 C15.2719985,7.5486655 14.8006698,7.432 14.166,7.432 L11.842,7.432 L11.842,10.232 Z M14.404,14.6 C15.0573366,14.6 15.5356651,14.4833345 15.839,14.25 C16.1423349,14.0166655 16.294,13.6480025 16.294,13.144 C16.294,12.6306641 16.1423349,12.2526679 15.839,12.01 C15.5356651,11.7673321 15.0573366,11.646 14.404,11.646 L11.842,11.646 L11.842,14.6 L14.404,14.6 Z M25.66875,12.556 L20.79675,12.556 C20.8340835,13.3120038 21.0230816,13.8696649 21.36375,14.229 C21.7044184,14.5883351 22.2107466,14.768 22.88275,14.768 C23.6574205,14.768 24.37608,14.5160025 25.03875,14.012 L25.54275,15.216 C25.2067483,15.486668 24.7937524,15.7036659 24.30375,15.867 C23.8137476,16.0303342 23.3167525,16.112 22.81275,16.112 C21.6554109,16.112 20.74542,15.7853366 20.08275,15.132 C19.42008,14.4786634 19.08875,13.5826724 19.08875,12.444 C19.08875,11.7253297 19.2334152,11.0860028 19.52275,10.526 C19.8120848,9.9659972 20.2180807,9.52966823 20.74075,9.217 C21.2634193,8.90433177 21.85608,8.748 22.51875,8.748 C23.4894215,8.748 24.2570805,9.06299685 24.82175,9.693 C25.3864195,10.3230031 25.66875,11.1886612 25.66875,12.29 L25.66875,12.556 Z M22.56075,10.008 C22.094081,10.008 21.7137515,10.1456653 21.41975,10.421 C21.1257485,10.6963347 20.9367504,11.0953307 20.85275,11.618 L24.14275,11.618 C24.0867497,11.0859973 23.9257513,10.684668 23.65975,10.414 C23.3937487,10.143332 23.027419,10.008 22.56075,10.008 Z M29.6115,16.112 C28.3328269,16.112 27.3155038,15.8133363 26.5595,15.216 L27.0495,13.984 C27.8055038,14.5440028 28.6688285,14.824 29.6395,14.824 C30.0595021,14.824 30.3838322,14.7540007 30.6125,14.614 C30.8411678,14.4739993 30.9555,14.2780013 30.9555,14.026 C30.9555,13.8113323 30.8761675,13.6410006 30.7175,13.515 C30.5588325,13.3889994 30.2881686,13.2793338 29.9055,13.186 L28.7295,12.92 C27.4414936,12.6399986 26.7975,11.9820052 26.7975,10.946 C26.7975,10.5166645 26.9188321,10.136335 27.1615,9.805 C27.4041679,9.47366501 27.7448311,9.2146676 28.1835,9.028 C28.6221689,8.8413324 29.1308304,8.748 29.7095,8.748 C30.2135025,8.748 30.698831,8.82499923 31.1655,8.979 C31.632169,9.13300077 32.0428316,9.35466522 32.3975,9.644 L31.8795,10.834 C31.1701631,10.3113307 30.4421704,10.05 29.6955,10.05 C29.2941647,10.05 28.9815011,10.1246659 28.7575,10.274 C28.5334989,10.4233341 28.4215,10.6286654 28.4215,10.89 C28.4215,11.0953344 28.489166,11.2586661 28.6245,11.38 C28.759834,11.5013339 28.9908317,11.6039996 29.3175,11.688 L30.5215,11.954 C31.2215035,12.1126675 31.7324984,12.357665 32.0545,12.689 C32.3765016,13.020335 32.5375,13.4519973 32.5375,13.984 C32.5375,14.6373366 32.2761693,15.1553314 31.7535,15.538 C31.2308307,15.9206686 30.5168379,16.112 29.6115,16.112 Z M36.06025,10.246 L36.06025,13.41 C36.06025,14.2406708 36.4475795,14.656 37.22225,14.656 C37.4369177,14.656 37.6702487,14.618667 37.92225,14.544 L37.92225,15.93 C37.6142485,16.0420006 37.2409189,16.098 36.80225,16.098 C35.9995793,16.098 35.3835855,15.8740022 34.95425,15.426 C34.5249145,14.9779978 34.31025,14.3340042 34.31025,13.494 L34.31025,10.246 L32.95225,10.246 L32.95225,8.93 L34.31025,8.93 L34.31025,7.208 L36.06025,6.62 L36.06025,8.93 L37.93625,8.93 L37.93625,10.246 L36.06025,10.246 Z M50.14775,6.032 L51.98175,6.032 L47.54375,16 L46.07375,16 L41.63575,6.032 L43.51175,6.032 L46.82975,13.732 L50.14775,6.032 Z M58.6125,8.93 L58.6125,16 L56.8905,16 L56.8905,14.866 C56.6758323,15.258002 56.3678353,15.5636656 55.9665,15.783 C55.5651647,16.0023344 55.1078359,16.112 54.5945,16.112 C53.9784969,16.112 53.4325024,15.9626682 52.9565,15.664 C52.4804976,15.3653318 52.1118346,14.9406694 51.8505,14.39 C51.5891654,13.8393306 51.4585,13.2000036 51.4585,12.472 C51.4585,11.7439964 51.5914987,11.0976695 51.8575,10.533 C52.1235013,9.96833051 52.4944976,9.52966823 52.9705,9.217 C53.4465024,8.90433177 53.9878303,8.748 54.5945,8.748 C55.1078359,8.748 55.5651647,8.85766557 55.9665,9.077 C56.3678353,9.29633443 56.6758323,9.60199804 56.8905,9.994 L56.8905,8.93 L58.6125,8.93 Z M55.0705,14.74 C55.6491696,14.74 56.0971651,14.5393353 56.4145,14.138 C56.7318349,13.7366647 56.8905,13.1720036 56.8905,12.444 C56.8905,11.6973296 56.7318349,11.1233353 56.4145,10.722 C56.0971651,10.3206647 55.6445029,10.12 55.0565,10.12 C54.4778304,10.12 54.0275016,10.3276646 53.7055,10.743 C53.3834984,11.1583354 53.2225,11.734663 53.2225,12.472 C53.2225,13.2000036 53.3834984,13.759998 53.7055,14.152 C54.0275016,14.544002 54.4824971,14.74 55.0705,14.74 Z M60.38525,16 L60.38525,5.696 L62.12125,5.696 L62.12125,16 L60.38525,16 Z M70.348,8.93 L70.348,16 L68.64,16 L68.64,14.908 C68.4159989,15.300002 68.1173352,15.5986656 67.744,15.804 C67.3706648,16.0093344 66.9413358,16.112 66.456,16.112 C64.7293247,16.112 63.866,15.141343 63.866,13.2 L63.866,8.93 L65.602,8.93 L65.602,13.214 C65.602,13.7273359 65.7069989,14.1053321 65.917,14.348 C66.1270011,14.5906679 66.4513311,14.712 66.89,14.712 C67.4033359,14.712 67.8139985,14.5440017 68.122,14.208 C68.4300015,13.8719983 68.584,13.4240028 68.584,12.864 L68.584,8.93 L70.348,8.93 Z M78.30875,12.556 L73.43675,12.556 C73.4740835,13.3120038 73.6630816,13.8696649 74.00375,14.229 C74.3444184,14.5883351 74.8507466,14.768 75.52275,14.768 C76.2974205,14.768 77.01608,14.5160025 77.67875,14.012 L78.18275,15.216 C77.8467483,15.486668 77.4337525,15.7036659 76.94375,15.867 C76.4537476,16.0303342 75.9567525,16.112 75.45275,16.112 C74.2954109,16.112 73.38542,15.7853366 72.72275,15.132 C72.06008,14.4786634 71.72875,13.5826724 71.72875,12.444 C71.72875,11.7253297 71.8734152,11.0860028 72.16275,10.526 C72.4520848,9.9659972 72.8580807,9.52966823 73.38075,9.217 C73.9034193,8.90433177 74.49608,8.748 75.15875,8.748 C76.1294215,8.748 76.8970805,9.06299685 77.46175,9.693 C78.0264195,10.3230031 78.30875,11.1886612 78.30875,12.29 L78.30875,12.556 Z M75.20075,10.008 C74.734081,10.008 74.3537515,10.1456653 74.05975,10.421 C73.7657485,10.6963347 73.5767504,11.0953307 73.49275,11.618 L76.78275,11.618 C76.7267497,11.0859973 76.5657513,10.684668 76.29975,10.414 C76.0337487,10.143332 75.667419,10.008 75.20075,10.008 Z" id="Best-Value" fill="#FFFFFF"></path>
            </g>
        </g>
    </g>
</svg>