<svg xmlns="http://www.w3.org/2000/svg" width="18" height="20" viewBox="0 0 18 20">
    <g fill="none" fill-rule="evenodd">
        <g fill="#FF872F" fill-rule="nonzero">
            <g>
                <g>
                    <g>
                        <g>
                            <path d="M10.957 8.657H7.043v3.935h3.914V8.657zM10.174 0v1.574H3.913V0H2.348v1.574h-.783c-.868 0-1.557.708-1.557 1.574L0 14.166c0 .866.697 1.574 1.565 1.574h10.957c.86 0 1.565-.708 1.565-1.574V3.148c0-.866-.704-1.574-1.565-1.574h-.783V0h-1.565zm2.348 14.166H1.565V5.509h10.957v8.657z" transform="translate(-112.000000, -531.000000) translate(92.000000, 217.000000) translate(20.000000, 314.000000) translate(-0.000000, 0.949580) translate(2.347826, 1.573986)"/>
                        </g>
                    </g>
                </g>
            </g>
        </g>
    </g>
</svg>
