<svg width="48" height="48" viewBox="0 0 48 48" fill="none" xmlns="http://www.w3.org/2000/svg">
<g filter="url(#filter0_d_845_38184)">
<path fill-rule="evenodd" clip-rule="evenodd" d="M35.2896 14.5626C35.2896 8.32937 30.2916 3.27637 24.1262 3.27637C17.9609 3.27637 12.9629 8.32937 12.9629 14.5626V25.0426C12.9629 31.2758 17.9609 36.3288 24.1262 36.3288C30.2916 36.3288 35.2896 31.2758 35.2896 25.0426V14.5626ZM16.1533 14.5625C16.1533 10.1103 19.7233 6.50098 24.1271 6.50098C28.531 6.50098 32.101 10.1103 32.101 14.5625V25.0426C32.101 29.4949 28.531 33.1042 24.1271 33.1042C19.7233 33.1042 16.1533 29.4949 16.1533 25.0426V14.5625Z" fill="#FFB700"/>
<ellipse cx="23.5045" cy="28.317" rx="14.7095" ry="14.8815" fill="#FFC41E"/>
<path fill-rule="evenodd" clip-rule="evenodd" d="M8 28.3148C8 36.9779 14.9417 44.0007 23.5046 44.0007C32.0676 44.0007 39.0093 36.9779 39.0093 28.3148C39.0093 19.6517 32.0676 12.6289 23.5046 12.6289C14.9417 12.6289 8 19.6517 8 28.3148ZM37.4197 28.3144C37.4197 36.0889 31.19 42.3915 23.5052 42.3915C15.8205 42.3915 9.59082 36.0889 9.59082 28.3144C9.59082 20.5398 15.8205 14.2373 23.5052 14.2373C31.19 14.2373 37.4197 20.5398 37.4197 28.3144Z" fill="#FFB700"/>
<path fill-rule="evenodd" clip-rule="evenodd" d="M15.1572 28.3144C15.1572 32.9791 18.895 36.7607 23.5059 36.7607C28.1167 36.7607 31.8545 32.9791 31.8545 28.3144C31.8545 23.6497 28.1167 19.8682 23.5059 19.8682C18.895 19.8682 15.1572 23.6497 15.1572 28.3144ZM30.2649 28.314C30.2649 32.0902 27.2391 35.1514 23.5065 35.1514C19.7739 35.1514 16.748 32.0902 16.748 28.314C16.748 24.5378 19.7739 21.4766 23.5065 21.4766C27.2391 21.4766 30.2649 24.5378 30.2649 28.314Z" fill="#FFB700"/>
<path fill-rule="evenodd" clip-rule="evenodd" d="M24.7401 28.2464C25.6289 27.9214 26.2595 27.1026 26.2595 26.1438C26.2595 24.9 25.198 23.8916 23.8886 23.8916C22.5791 23.8916 21.5176 24.9 21.5176 26.1438C21.5176 27.1118 22.1603 27.9371 23.0625 28.2556L21.5176 32.7397H26.2882L24.7401 28.2464Z" fill="#A96C16"/>
</g>
<circle cx="36.3477" cy="16.4707" r="7.5" fill="white"/>
<path fill-rule="evenodd" clip-rule="evenodd" d="M43.8477 16.4707C43.8477 12.3254 40.4874 8.9707 36.3477 8.9707C32.2079 8.9707 28.8477 12.3254 28.8477 16.4707C28.8477 20.616 32.2079 23.9707 36.3477 23.9707C40.4874 23.9707 43.8477 20.616 43.8477 16.4707ZM29.7852 16.4707C29.7852 12.8452 32.7237 9.9082 36.3477 9.9082C39.9717 9.9082 42.9102 12.8452 42.9102 16.4707C42.9102 20.0962 39.9717 23.0332 36.3477 23.0332C32.7237 23.0332 29.7852 20.0962 29.7852 16.4707Z" fill="#11B600"/>
<path fill-rule="evenodd" clip-rule="evenodd" d="M35.3059 17.3988L38.7566 14.0332L39.7227 14.9754L35.3059 19.2832L32.9727 17.0075L33.9387 16.0653L35.3059 17.3988Z" fill="#11B600"/>
<defs>
<filter id="filter0_d_845_38184" x="5" y="3.27637" width="34.0098" height="43.7246" filterUnits="userSpaceOnUse" color-interpolation-filters="sRGB">
<feFlood flood-opacity="0" result="BackgroundImageFix"/>
<feColorMatrix in="SourceAlpha" type="matrix" values="0 0 0 0 0 0 0 0 0 0 0 0 0 0 0 0 0 0 127 0" result="hardAlpha"/>
<feOffset dx="-3" dy="3"/>
<feColorMatrix type="matrix" values="0 0 0 0 0 0 0 0 0 0 0 0 0 0 0 0 0 0 0.202278 0"/>
<feBlend mode="normal" in2="BackgroundImageFix" result="effect1_dropShadow_845_38184"/>
<feBlend mode="normal" in="SourceGraphic" in2="effect1_dropShadow_845_38184" result="shape"/>
</filter>
</defs>
</svg>
