<svg xmlns="http://www.w3.org/2000/svg" width="36" height="37" viewBox="0 0 36 37">
    <path fill="#FFF" fill-rule="nonzero" d="M20.35 0v14.8h14.8c0-8.177-6.623-14.8-14.8-14.8zm11.692 25.697a14.703 14.703 0 0 0 3.108-9.047H8.214l-1.757-3.7H0v3.7h4.107s3.496 7.53 3.922 8.177a6.454 6.454 0 0 0-3.404 5.698A6.482 6.482 0 0 0 11.1 37a6.463 6.463 0 0 0 6.401-5.55h3.848A6.463 6.463 0 0 0 27.75 37a6.482 6.482 0 0 0 6.475-6.475 6.447 6.447 0 0 0-2.183-4.828zM11.1 33.3a2.771 2.771 0 0 1-2.775-2.775A2.771 2.771 0 0 1 11.1 27.75a2.771 2.771 0 0 1 2.775 2.775A2.771 2.771 0 0 1 11.1 33.3zm16.65 0a2.771 2.771 0 0 1-2.775-2.775 2.771 2.771 0 0 1 2.775-2.775 2.771 2.771 0 0 1 2.775 2.775A2.771 2.771 0 0 1 27.75 33.3z"/>
</svg>
