<svg xmlns="http://www.w3.org/2000/svg" width="24" height="24" viewBox="0 0 24 24">
    <g fill="none" fill-rule="evenodd">
        <path d="M0 0H24V24H0z"/>
        <g fill="#00C5C4" fill-rule="nonzero">
            <path d="M17.23 3.73h-11c-1.38 0-2.5 1.12-2.5 2.5v11c0 1.381 1.12 2.5 2.5 2.5h11c1.381 0 2.5-1.119 2.5-2.5v-11c0-1.38-1.119-2.5-2.5-2.5zm0 2c.277 0 .5.225.5.5v11c0 .277-.223.5-.5.5h-11c-.275 0-.5-.223-.5-.5v-11c0-.275.225-.5.5-.5h11z" transform="translate(2.77 2.77)"/>
            <path d="M13.23-.77c1.055 0 1.919.817 1.995 1.852l.006.149v1.208h-2V1.231h-12v12h1.208v2H1.231c-1.055 0-1.918-.816-1.995-1.851l-.005-.15v-12C-.77.177.047-.686 1.08-.763l.15-.005h12z" transform="translate(2.77 2.77)"/>
        </g>
    </g>
</svg>
