<?xml version="1.0" encoding="UTF-8"?>
<svg width="34px" height="45px" viewBox="0 0 34 45" version="1.1" xmlns="http://www.w3.org/2000/svg" xmlns:xlink="http://www.w3.org/1999/xlink">
    <!-- Generator: sketchtool 51.1 (57501) - http://www.bohemiancoding.com/sketch -->
    <title>20B64393-FB7A-4250-99AB-D2D97941901B</title>
    <desc>Created with sketchtool.</desc>
    <defs></defs>
    <g id="Web" stroke="none" stroke-width="1" fill="none" fill-rule="evenodd">
        <g id="Insurance-Results:-Coverage-you-need" transform="translate(-317.000000, -361.000000)" fill="#00A7A7">
            <g id="Group-14" transform="translate(252.000000, 341.000000)">
                <path d="M73.7182468,30.3846154 C76.6068925,30.3846154 78.9491948,28.0601923 78.9491948,25.1923077 C78.9491948,22.3244231 76.6068925,20 73.7182468,20 C70.8278574,20 68.4872987,22.3244231 68.4872987,25.1923077 C68.4872987,28.0601923 70.8278574,30.3846154 73.7182468,30.3846154 Z M91.1535779,48.5576923 L91.1535779,40.7692308 L82.4353311,40.7692308 L82.4353311,48.5576923 L74.588909,48.5576923 L74.588909,46.7819231 L80.6916818,46.7819231 L80.6916818,39.0384615 L82.4364936,39.0384615 L82.4364936,33.8461538 L76.7614961,32.7194231 L73.7182468,37.3798077 L70.6732538,32.72 L65,33.8461538 L65,46.5378846 L68.5111286,49.4230769 L70.2309481,65 L77.2055455,65 L78.0773702,57.2115385 L82.4353311,57.2115385 L82.4353311,65 L91.1535779,65 L91.1535779,57.2115385 L99,57.2115385 L99,48.5576923 L91.1535779,48.5576923 Z" id="Fill-1"></path>
            </g>
        </g>
    </g>
</svg>