<?xml version="1.0" encoding="UTF-8"?>
<svg width="414px" height="345px" viewBox="0 0 414 345" version="1.1" xmlns="http://www.w3.org/2000/svg" xmlns:xlink="http://www.w3.org/1999/xlink">
    <!-- Generator: sketchtool 50.2 (55047) - http://www.bohemiancoding.com/sketch -->
    <title>C2171724-5EC6-4797-AD80-32D9CE13FDCE</title>
    <desc>Created with sketchtool.</desc>
    <defs>
        <path d="M0.275776864,146.527629 C0.275776864,227.307608 65.7616875,292.793066 146.541667,292.793066 C227.322099,292.793066 292.807557,227.307608 292.807557,146.527629 C292.807557,65.7471968 227.322099,0.261738961 146.541667,0.261738961 C65.7616875,0.261738961 0.275776864,65.7471968 0.275776864,146.527629" id="path-1"></path>
        <path d="M0.275776864,146.527629 C0.275776864,227.307608 65.7616875,292.793066 146.541667,292.793066 C227.322099,292.793066 292.807557,227.307608 292.807557,146.527629 C292.807557,65.7471968 227.322099,0.261738961 146.541667,0.261738961 C65.7616875,0.261738961 0.275776864,65.7471968 0.275776864,146.527629" id="path-3"></path>
        <path d="M0.275776864,146.527629 C0.275776864,227.307608 65.7616875,292.793066 146.541667,292.793066 C227.322099,292.793066 292.807557,227.307608 292.807557,146.527629 C292.807557,65.7471968 227.322099,0.261738961 146.541667,0.261738961 C65.7616875,0.261738961 0.275776864,65.7471968 0.275776864,146.527629 Z" id="path-5"></path>
        <path d="M0.275776864,146.527629 C0.275776864,227.307608 65.7616875,292.793066 146.541667,292.793066 C227.322099,292.793066 292.807557,227.307608 292.807557,146.527629 C292.807557,65.7471968 227.322099,0.261738961 146.541667,0.261738961 C65.7616875,0.261738961 0.275776864,65.7471968 0.275776864,146.527629 Z" id="path-7"></path>
        <path d="M0.275776864,146.527629 C0.275776864,227.307608 65.7616875,292.793066 146.541667,292.793066 C227.322099,292.793066 292.807557,227.307608 292.807557,146.527629 C292.807557,65.7471968 227.322099,0.261738961 146.541667,0.261738961 C65.7616875,0.261738961 0.275776864,65.7471968 0.275776864,146.527629" id="path-9"></path>
        <path d="M0.275776864,146.527629 C0.275776864,227.307608 65.7616875,292.793066 146.541667,292.793066 C227.322099,292.793066 292.807557,227.307608 292.807557,146.527629 C292.807557,65.7471968 227.322099,0.261738961 146.541667,0.261738961 C65.7616875,0.261738961 0.275776864,65.7471968 0.275776864,146.527629 Z" id="path-11"></path>
        <path d="M0.275776864,146.527629 C0.275776864,227.307608 65.7616875,292.793066 146.541667,292.793066 C227.322099,292.793066 292.807557,227.307608 292.807557,146.527629 C292.807557,65.7471968 227.322099,0.261738961 146.541667,0.261738961 C65.7616875,0.261738961 0.275776864,65.7471968 0.275776864,146.527629 Z" id="path-13"></path>
        <path d="M0.275776864,146.527629 C0.275776864,227.307608 65.7616875,292.793066 146.541667,292.793066 C227.322099,292.793066 292.807557,227.307608 292.807557,146.527629 C292.807557,65.7471968 227.322099,0.261738961 146.541667,0.261738961 C65.7616875,0.261738961 0.275776864,65.7471968 0.275776864,146.527629" id="path-15"></path>
        <path d="M0.275776864,146.527629 C0.275776864,227.307608 65.7616875,292.793066 146.541667,292.793066 C227.322099,292.793066 292.807557,227.307608 292.807557,146.527629 C292.807557,65.7471968 227.322099,0.261738961 146.541667,0.261738961 C65.7616875,0.261738961 0.275776864,65.7471968 0.275776864,146.527629 Z" id="path-17"></path>
        <path d="M0.275776864,146.527629 C0.275776864,227.307608 65.7616875,292.793066 146.541667,292.793066 C227.322099,292.793066 292.807557,227.307608 292.807557,146.527629 C292.807557,65.7471968 227.322099,0.261738961 146.541667,0.261738961 C65.7616875,0.261738961 0.275776864,65.7471968 0.275776864,146.527629" id="path-19"></path>
        <path d="M0.275776864,146.527629 C0.275776864,227.307608 65.7616875,292.793066 146.541667,292.793066 C227.322099,292.793066 292.807557,227.307608 292.807557,146.527629 C292.807557,65.7471968 227.322099,0.261738961 146.541667,0.261738961 C65.7616875,0.261738961 0.275776864,65.7471968 0.275776864,146.527629 Z" id="path-21"></path>
        <path d="M0.275776864,146.527629 C0.275776864,227.307608 65.7616875,292.793066 146.541667,292.793066 C227.322099,292.793066 292.807557,227.307608 292.807557,146.527629 C292.807557,65.7471968 227.322099,0.261738961 146.541667,0.261738961 C65.7616875,0.261738961 0.275776864,65.7471968 0.275776864,146.527629 Z" id="path-23"></path>
        <path d="M0.275776864,146.527629 C0.275776864,227.307608 65.7616875,292.793066 146.541667,292.793066 C227.322099,292.793066 292.807557,227.307608 292.807557,146.527629 C292.807557,65.7471968 227.322099,0.261738961 146.541667,0.261738961 C65.7616875,0.261738961 0.275776864,65.7471968 0.275776864,146.527629 Z" id="path-25"></path>
        <path d="M0.275776864,146.136831 C0.275776864,226.701365 65.7616875,292.012169 146.541667,292.012169 C227.322099,292.012169 292.807557,226.701365 292.807557,146.136831 C292.807557,65.571845 227.322099,0.261040887 146.541667,0.261040887 C65.7616875,0.261040887 0.275776864,65.571845 0.275776864,146.136831" id="path-27"></path>
        <path d="M0.275776864,146.136831 C0.275776864,226.701365 65.7616875,292.012169 146.541667,292.012169 C227.322099,292.012169 292.807557,226.701365 292.807557,146.136831 C292.807557,65.571845 227.322099,0.261040887 146.541667,0.261040887 C65.7616875,0.261040887 0.275776864,65.571845 0.275776864,146.136831 Z" id="path-29"></path>
        <path d="M0.275776864,146.136831 C0.275776864,226.701365 65.7616875,292.012169 146.541667,292.012169 C227.322099,292.012169 292.807557,226.701365 292.807557,146.136831 C292.807557,65.571845 227.322099,0.261040887 146.541667,0.261040887 C65.7616875,0.261040887 0.275776864,65.571845 0.275776864,146.136831 Z" id="path-31"></path>
        <path d="M0.275776864,146.136831 C0.275776864,226.701365 65.7616875,292.012169 146.541667,292.012169 C227.322099,292.012169 292.807557,226.701365 292.807557,146.136831 C292.807557,65.571845 227.322099,0.261040887 146.541667,0.261040887 C65.7616875,0.261040887 0.275776864,65.571845 0.275776864,146.136831 Z" id="path-33"></path>
    </defs>
    <g id="Web" stroke="none" stroke-width="1" fill="none" fill-rule="evenodd">
        <g id="Critical-Illness" transform="translate(-68.000000, -331.000000)">
            <g id="Group-19" transform="translate(68.000000, 331.000000)">
                <circle id="Oval-6" fill="#58C4C5" cx="297.5" cy="178.5" r="103.5"></circle>
                <circle id="Oval-6-Copy" fill="#58C4C5" cx="346.5" cy="72.5" r="67.5"></circle>
                <g id="Group">
                    <g id="Group-5" transform="translate(0.000000, 52.015385)">
                        <path d="M292.807738,146.527221 C292.807738,227.307653 227.32228,292.793111 146.541848,292.793111 C65.7614158,292.793111 0.275957998,227.307653 0.275957998,146.527221 C0.275957998,65.7467892 65.7614158,0.261331409 146.541848,0.261331409 C227.32228,0.261331409 292.807738,65.7467892 292.807738,146.527221" id="Fill-1" fill="#58C4C5"></path>
                        <path d="M193.183912,29.6368656 C193.183912,29.6368656 202.693459,75.432127 158.768408,94.9040566 C114.843358,114.375986 125.258576,146.527312 125.258576,146.527312" id="Stroke-3" stroke="#118C8C" stroke-width="6.94980695"></path>
                    </g>
                    <g id="Group-54" transform="translate(0.000000, 52.015385)">
                        <g id="Group-8">
                            <mask id="mask-2" fill="white">
                                <use xlink:href="#path-1"></use>
                            </mask>
                            <g id="Clip-7"></g>
                            <path d="M292.784281,82.7132702 C292.784281,82.7132702 261.101187,88.6205102 234.068715,115.963175 C207.036243,143.30584 200.90349,208.061326 200.90349,208.061326" id="Fill-6" fill="#FFD052" mask="url(#mask-2)"></path>
                        </g>
                        <g id="Group-11">
                            <mask id="mask-4" fill="white">
                                <use xlink:href="#path-3"></use>
                            </mask>
                            <g id="Clip-10"></g>
                            <path d="M291.779982,82.7132702 L199.900097,208.061326 C199.900097,208.061326 209.904141,137.69883 239.50238,111.285383 C269.099713,84.872843 291.779982,82.7132702 291.779982,82.7132702" id="Fill-9" fill="#CDEAE6" mask="url(#mask-4)"></path>
                        </g>
                        <g id="Group-14">
                            <mask id="mask-6" fill="white">
                                <use xlink:href="#path-5"></use>
                            </mask>
                            <g id="Clip-13"></g>
                            <polygon id="Fill-12" fill="#F79C82" mask="url(#mask-6)" points="220.92231 115.963039 204.18913 129.890903 216.701882 143.793861 238.067117 121.416991"></polygon>
                        </g>
                        <g id="Group-17">
                            <mask id="mask-8" fill="white">
                                <use xlink:href="#path-7"></use>
                            </mask>
                            <g id="Clip-16"></g>
                            <path d="M287.77832,95.9825751 L353.940314,223.509223 L228.957696,303.66112 C228.957696,303.66112 70.0124097,314.076338 68.653903,312.264996 C67.2953963,310.453653 -6.96963758,242.075482 -5.61113086,238.452797 C-4.25262414,234.830113 7.52110074,201.773116 7.52110074,201.773116 L204.051739,203.131623 L287.77832,95.9825751 Z" id="Fill-15" fill="#118C8C" mask="url(#mask-8)"></path>
                        </g>
                        <g id="Group-20">
                            <mask id="mask-10" fill="white">
                                <use xlink:href="#path-9"></use>
                            </mask>
                            <g id="Clip-19"></g>
                            <path d="M205.466171,128.037039 C210.810084,128.420138 221.47255,132.704868 221.835271,138.049687 C222.94653,154.408824 222.725093,186.836833 199.377797,194.032843 C170.73323,202.862684 84.8479823,202.862684 84.8479823,202.862684 L68.4729952,146.676204 C68.4729952,146.676204 169.327175,125.44682 205.466171,128.037039" id="Fill-18" fill="#71D8B8" mask="url(#mask-10)"></path>
                        </g>
                        <g id="Group-23">
                            <mask id="mask-12" fill="white">
                                <use xlink:href="#path-11"></use>
                            </mask>
                            <g id="Clip-22"></g>
                            <path d="M208.699281,211.953584 L-514.421165,211.953584 L-514.421165,201.272551 L182.975504,201.272551 C195.817468,201.272551 207.913612,195.240329 215.639892,184.982697 L353.55957,1.88361485 L362.091445,8.30889878 L208.699281,211.953584 Z" id="Fill-21" fill="#005960" mask="url(#mask-12)"></path>
                        </g>
                        <g id="Group-26">
                            <mask id="mask-14" fill="white">
                                <use xlink:href="#path-13"></use>
                            </mask>
                            <g id="Clip-25"></g>
                            <path d="M68.4728141,146.676295 L-159.431631,184.094551 L-159.431631,197.24399 C-159.431631,197.24399 -114.519852,215.544434 -49.6307787,198.624686 C-40.4250844,196.224205 -30.7964416,195.678538 -21.4010092,197.166103 C30.0977163,205.318049 84.8478012,202.862774 84.8478012,202.862774 L68.4728141,146.676295 Z" id="Fill-24" fill="#004060" mask="url(#mask-14)"></path>
                        </g>
                        <g id="Group-29">
                            <mask id="mask-16" fill="white">
                                <use xlink:href="#path-15"></use>
                            </mask>
                            <g id="Clip-28"></g>
                            <path d="M201.637401,188.534785 C195.226155,188.074251 188.630605,182.983474 182.252869,182.764754 C182.047734,182.757961 167.523033,195.639322 167.523033,195.639322 L112.617173,162.471834 L105.400332,170.959783 C105.400332,170.959783 145.299222,221.323703 173.943789,221.323703 C183.819227,221.323703 199.119182,212.54458 207.873853,199.002079 C203.716822,197.31255 200.590445,193.09665 201.637401,188.534785" id="Fill-27" fill="#FAB08A" mask="url(#mask-16)"></path>
                        </g>
                        <g id="Group-32">
                            <mask id="mask-18" fill="white">
                                <use xlink:href="#path-17"></use>
                            </mask>
                            <g id="Clip-31"></g>
                            <path d="M175.549408,183.598288 L203.084981,205.799458 L206.888346,200.551547 C212.688717,192.547678 216.766049,183.427117 218.862678,173.76904 L213.518312,162.389282 L175.549408,183.598288 Z" id="Fill-30" fill="#71D8B8" mask="url(#mask-18)"></path>
                        </g>
                        <g id="Group-35">
                            <mask id="mask-20" fill="white">
                                <use xlink:href="#path-19"></use>
                            </mask>
                            <g id="Clip-34"></g>
                            <path d="M94.4392209,139.816515 C99.0631249,133.035755 108.192743,125.319437 114.95222,128.135169 L129.895341,135.317594 C128.013356,137.793246 120.234094,135.995941 114.529724,138.628727 C113.000498,139.334245 100.023589,142.881759 95.6279143,142.369602 C94.4029941,142.226506 93.7441183,140.835395 94.4392209,139.816515" id="Fill-33" fill="#F79C82" mask="url(#mask-20)"></path>
                        </g>
                        <g id="Group-38">
                            <mask id="mask-22" fill="white">
                                <use xlink:href="#path-21"></use>
                            </mask>
                            <g id="Clip-37"></g>
                            <path d="M105.400559,170.96001 L95.4680633,155.934473 C91.9069644,149.535906 98.542364,139.593448 104.757079,134.233686 C105.692185,133.428545 107.148504,133.924853 107.428356,135.126678 C108.896902,141.425621 112.58072,157.686946 112.617399,162.47206 L105.400559,170.96001 Z" id="Fill-36" fill="#FAB08A" mask="url(#mask-22)"></path>
                        </g>
                        <g id="Group-41">
                            <mask id="mask-24" fill="white">
                                <use xlink:href="#path-23"></use>
                            </mask>
                            <g id="Clip-40"></g>
                            <path d="M35.1022739,204.854119 C35.1022739,204.854119 32.0184637,202.723527 30.8714312,203.232062 C29.7266629,203.740596 30.6282585,205.882961 30.6282585,205.882961 L35.1022739,204.854119 Z" id="Fill-39" fill="#F79C82" mask="url(#mask-24)"></path>
                        </g>
                        <mask id="mask-26" fill="white">
                            <use xlink:href="#path-25"></use>
                        </mask>
                        <g id="Clip-43"></g>
                        <polygon id="Fill-42" fill="#005960" mask="url(#mask-26)" points="-37.3095757 270.604123 344.430812 270.604123 344.430812 251.132193 -37.3095757 251.132193"></polygon>
                        <polygon id="Fill-44" fill="#005960" mask="url(#mask-26)" points="79.522002 312.264996 96.2769182 312.264996 96.2769182 268.339945 79.522002 268.339945"></polygon>
                        <polygon id="Fill-45" fill="#005960" mask="url(#mask-26)" points="138.390626 312.264996 155.145543 312.264996 155.145543 268.339945 138.390626 268.339945"></polygon>
                        <polygon id="Fill-46" fill="#005960" mask="url(#mask-26)" points="195.447909 312.264996 260.656231 312.264996 260.656231 268.339945 195.447909 268.339945"></polygon>
                        <polygon id="Fill-47" fill="#F79C82" mask="url(#mask-26)" points="85.1353065 -7.97461557 81.4831876 9.35449612 63.2714994 4.3221344 75.181075 -20.5439726"></polygon>
                        <path d="M89.6826813,-3.14286001 C91.7892724,-2.53470183 93.8243155,-2.22903782 95.1013118,-2.7303268 C103.925266,-9.57086096 104.603161,-35.3852056 104.603161,-35.3852056 L96.2691747,-42.5151017 L81.5927738,-38.7905291 L75.8408564,-23.1799284 C74.3071023,-19.0147468 75.0388846,-14.3115966 77.819295,-10.5172873 C81.0004649,-7.10245425 85.0909286,-4.4692154 89.6826813,-3.14286001" id="Fill-48" fill="#FAB08A" mask="url(#mask-26)"></path>
                        <path d="M80.6582571,-29.2021434 C82.1775204,-31.6470027 83.7855395,-37.8956807 86.3517587,-36.5860803 C88.2260452,-35.6324085 94.9053698,-33.1925305 97.1799629,-32.4652765 C102.608556,-30.7336333 112.965811,-29.7686407 115.601767,-38.0283616 C116.920877,-42.158222 114.052164,-46.9967701 111.851835,-48.8660753 C109.695885,-50.7005122 106.866569,-51.5491261 104.034535,-51.472144 C97.3900786,-51.2896513 87.9901178,-49.211136 85.0326487,-50.8562877 C80.0568914,-53.623113 73.7525146,-52.1989451 72.3844983,-47.6565515 C70.9227451,-42.8017013 71.1256154,-34.7376055 72.0231355,-29.3674284 C72.5448021,-26.2587122 73.6171167,-23.2799598 75.180758,-20.5439273 L80.6582571,-29.2021434 Z" id="Fill-49" fill="#004060" mask="url(#mask-26)"></path>
                        <path d="M74.9619931,-30.3607685 C76.5120493,-31.0436446 78.7119245,-30.1180486 79.8752591,-28.2953855 C81.0381408,-26.4731751 80.7234201,-24.4408491 79.1733639,-23.757973 C77.6210436,-23.0773612 75.4211684,-24.0025042 74.2578338,-25.8247146 C73.094952,-27.6478306 73.4096728,-29.6801566 74.9619931,-30.3607685" id="Fill-50" fill="#FAB08A" mask="url(#mask-26)"></path>
                        <path d="M49.9746621,65.756661 L46.289939,90.7482034 L106.701374,120.860863 L100.114881,127.405243 C100.114881,127.405243 32.2828291,115.194985 22.6967529,106.231104 C13.1106766,97.2672243 19.7483404,61.432987 19.7483404,61.432987 L49.9746621,65.756661 Z" id="Fill-51" fill="#FAB08A" mask="url(#mask-26)"></path>
                        <path d="M117.617836,105.21707 C131.450604,100.332332 123.006127,52.7560687 123.006127,52.7560687 L114.832897,52.6768225 C114.832897,52.6768225 103.787785,110.104977 117.617836,105.21707" id="Fill-52" fill="#F79C82" mask="url(#mask-26)"></path>
                        <path d="M96.4274408,126.137258 L110.65644,135.280461 C116.382546,137.911889 121.45204,133.800595 125.579636,127.997054 C128.140874,124.396105 125.528466,119.462462 121.111508,119.529934 C115.995824,119.604652 109.786996,120.646174 106.700921,120.860818 L96.4274408,126.137258 Z" id="Fill-53" fill="#FAB08A" mask="url(#mask-26)"></path>
                    </g>
                    <g id="Group-69" transform="translate(0.000000, 52.015385)">
                        <g id="Group-59">
                            <mask id="mask-28" fill="white">
                                <use xlink:href="#path-27"></use>
                            </mask>
                            <g id="Clip-58"></g>
                            <path d="M117.440959,105.947735 C136.610847,90.5065789 98.9539463,9.80565317 98.9539463,9.80565317 L89.8293095,10.7192963 C89.8293095,10.7192963 90.5284876,117.727995 117.440959,105.947735" id="Fill-57" fill="#FAB08A" mask="url(#mask-28)"></path>
                        </g>
                        <g id="Group-62">
                            <mask id="mask-30" fill="white">
                                <use xlink:href="#path-29"></use>
                            </mask>
                            <g id="Clip-61"></g>
                            <path d="M98.9538557,9.80569834 L100.114473,-5.58216517 C100.114473,-5.58216517 92.4162686,-17.3556511 85.1351254,-14.1947079 C83.7951849,-10.972795 86.1236654,-4.46845094 86.1236654,-4.46845094 L89.8296718,10.7188898 L98.9538557,9.80569834 Z" id="Fill-60" fill="#FAB08A" mask="url(#mask-30)"></path>
                        </g>
                        <g id="Group-65">
                            <mask id="mask-32" fill="white">
                                <use xlink:href="#path-31"></use>
                            </mask>
                            <g id="Clip-64"></g>
                            <path d="M109.698104,139.77353 C109.698104,139.77353 120.689329,208.528448 118.107261,240.331628 C115.52474,272.137519 80.5762485,355.229814 80.5762485,355.229814 L65.3641432,350.820571 C65.3641432,350.820571 64.2103181,295.231056 79.1475523,258.736817 C82.4224592,250.731714 82.2802688,241.756514 79.1575147,233.688635 C66.8883877,202.012813 62.1055384,180.953859 62.1055384,180.953859 L63.27159,139.77353 L109.698104,139.77353 Z" id="Fill-63" fill="#B9E3E9" mask="url(#mask-32)"></path>
                        </g>
                        <g id="Group-68">
                            <mask id="mask-34" fill="white">
                                <use xlink:href="#path-33"></use>
                            </mask>
                            <g id="Clip-67"></g>
                            <path d="M86.4778734,139.77353 L49.8769854,358.172621 L35.2309245,358.172621 C35.2309245,358.172621 22.6149255,299.338611 32.3594942,251.830976 C34.0494765,243.588317 34.2659319,235.094552 33.0075019,226.776019 C23.7334293,165.430959 30.8071738,139.77353 30.8071738,139.77353 L86.4778734,139.77353 Z" id="Fill-66" fill="#B9E3E9" mask="url(#mask-34)"></path>
                        </g>
                    </g>
                    <g id="Group-74" transform="translate(19.107692, 52.015385)" fill="#FFFFFF">
                        <path d="M0.275384308,61.3210677 C0.275384308,61.3210677 13.1643985,1.24126446 43.6366828,2.63481106 C74.1085158,4.0256456 30.3894524,65.6368585 30.3894524,65.6368585 L0.275384308,61.3210677 Z" id="Fill-70"></path>
                        <path d="M51.5038133,0.470994342 C17.7277295,-1.42247524 14.8692187,28.6764137 12.031461,61.386564 C8.78089754,98.9210162 11.2929222,139.891648 11.2929222,139.891648 L89.8911406,139.891648 C89.8911406,139.891648 89.8753502,105.015918 89.0510922,70.1383801 C88.2520987,36.3049852 87.2185052,2.47204228 51.5038133,0.470994342" id="Fill-72"></path>
                    </g>
                    <g id="Group-77" transform="translate(79.615385, 60.507692)" fill="#FFFFFF">
                        <path d="M43.7881784,44.8364832 C39.2461711,24.6513129 30.702301,10.6752132 18.1565678,2.90818429 C5.61083461,-4.85884465 -0.289420801,7.71420734 0.455801555,40.6273403 L33.7882535,44.8364832 L43.7881784,44.8364832 Z" id="Path-3"></path>
                    </g>
                    <g id="Group-90" transform="translate(16.984615, 0.000000)">
                        <polygon id="Fill-78" fill="#F79C82" points="67.7739876 44.5829577 64.1301252 61.9232113 45.959609 56.887614 57.84226 32.005519"></polygon>
                        <path d="M72.3110819,49.4178199 C74.4129105,50.0263691 76.4433528,50.3322296 77.7174622,49.8306183 C86.5214674,42.9856859 87.1978297,17.1547436 87.1978297,17.1547436 L78.8826849,10.0202632 L64.2394637,13.7472306 L58.5005499,29.3678683 C56.9702632,33.535728 57.7003911,38.2419022 60.4745157,42.0386511 C63.6484938,45.4556797 67.72971,48.0906117 72.3110819,49.4178199" id="Fill-80" fill="#FAB08A"></path>
                        <path d="M63.3070596,23.3417813 C64.8228883,20.8953501 66.4272721,14.6426543 68.9876897,15.9530968 C70.8577388,16.9073817 77.5219632,19.3488285 79.791414,20.0765501 C85.2077342,21.8093067 95.5415742,22.7749197 98.1715708,14.5098882 C99.4876987,10.3773724 96.6254708,5.53571331 94.4301171,3.66520618 C92.279041,1.8295898 89.4561208,0.980430304 86.6304896,1.05746185 C80.0010547,1.24007192 70.6223448,3.31992361 67.6715618,1.6737142 C62.7070535,-1.09489012 56.4169293,0.330193448 55.0520057,4.87550767 C53.5935572,9.73347934 53.7959689,17.8027601 54.6914599,23.17639 C55.2119471,26.287105 56.2818375,29.2677726 57.8419438,32.0055643 L63.3070596,23.3417813 Z" id="Fill-82" fill="#004472"></path>
                        <path d="M32.6928325,118.361641 L29.0164397,143.369252 L89.2912998,173.501273 L82.7196968,180.049861 C82.7196968,180.049861 15.0409964,167.831751 5.47659185,158.862108 C-4.08781266,149.892464 2.53484506,114.035187 2.53484506,114.035187 L32.6928325,118.361641 Z" id="Fill-84" fill="#FAB08A"></path>
                        <path d="M100.183082,157.847421 C113.984578,152.959543 105.559191,105.35269 105.559191,105.35269 L97.4044395,105.273392 C97.4044395,105.273392 86.3842973,162.738471 100.183082,157.847421" id="Fill-86" fill="#F79C82"></path>
                        <path d="M79.0405931,178.78106 L93.2374243,187.930142 C98.9505848,190.563262 104.008618,186.449324 108.126883,180.642052 C110.682331,177.038788 108.075828,172.101972 103.668856,172.169488 C98.5647375,172.244254 92.3699456,173.286446 89.290848,173.501228 L79.0405931,178.78106 Z" id="Fill-88" fill="#FAB08A"></path>
                    </g>
                    <g id="Group-120" transform="translate(19.107692, 2.123077)">
                        <path d="M97.8331957,156.075521 C116.976505,140.634653 79.3718156,59.9352279 79.3718156,59.9352279 L70.25983,60.848854 C70.25983,60.848854 70.9580387,167.855563 97.8331957,156.075521" id="Fill-92" fill="#FAB08A"></path>
                        <path d="M79.3717251,59.9352731 L80.5307335,44.5476957 C80.5307335,44.5476957 72.8432023,32.7744287 65.5721543,35.9353131 C64.2340717,39.1571662 66.5593238,45.6613893 66.5593238,45.6613893 L70.2601918,60.8484476 L79.3717251,59.9352731 Z" id="Fill-94" fill="#FAB08A"></path>
                        <path d="M13.5167601,276.901378 C4.25599818,215.557459 11.3194828,189.900507 11.3194828,189.900507 L66.9129955,189.900507" id="Fill-96" fill="#B9E3E9"></path>
                        <path d="M59.5929282,308.861808 C62.8628422,300.856402 62.7213012,291.88182 59.6024246,283.814091 C47.3507608,252.138859 42.5745429,231.079844 42.5745429,231.079844 L43.7385255,189.900733 L90.101122,189.900733 C90.101122,189.900733 101.077108,258.654372 98.4986194,290.456961" id="Fill-98" fill="#B9E3E9"></path>
                        <path d="M10.2241452,82.9069859 L38.2610239,85.6167024 L30.5734926,115.875204 L0.275575385,111.81063 C0.275575385,111.81063 4.79765259,88.7780385 10.2241452,82.9069859" id="Fill-100" fill="#004472"></path>
                        <path d="M15.0164618,106.793454 C14.6253021,106.793454 14.3906063,106.475965 14.4941618,106.085766 L15.6377952,101.755639 L11.2988621,101.755639 C10.9077024,101.755639 10.6734588,101.437699 10.7765622,101.047048 L11.7447389,97.3830597 C11.8473901,96.9928605 12.2498549,96.6749204 12.6405624,96.6749204 L16.9794955,96.6749204 L18.1231288,92.3447933 C18.2266844,91.9545941 18.6282448,91.636654 19.0198567,91.636654 L22.6917834,91.636654 C23.0829431,91.636654 23.3167345,91.9545941 23.2140833,92.3447933 L22.07045,96.6749204 L26.4089309,96.6749204 C26.8005427,96.6749204 27.0343341,96.9928605 26.931683,97.3830597 L25.9635062,101.047048 C25.8604029,101.437699 25.4583902,101.755639 25.0676828,101.755639 L20.7287497,101.755639 L19.5851164,106.085766 C19.4815608,106.475965 19.0795481,106.793454 18.6883884,106.793454 L15.0164618,106.793454 Z" id="Fill-102" fill="#FFFFFF"></path>
                        <path d="M166.15717,18.0158218 C166.011107,17.8180125 165.92157,17.5754928 165.92157,17.3121987 L165.92157,14.3721562 C165.92157,13.7159532 166.459697,13.1780744 167.117207,13.1780744 L175.882801,13.1780744 C176.540763,13.1780744 177.078438,13.7159532 177.078438,14.3721562 L177.078438,17.3121987 C177.078438,17.5754928 176.988901,17.8180125 176.842838,18.0158218 L185.90689,18.0158218 L185.90689,14.6535151 C185.90689,10.7786204 182.731487,7.60780032 178.851093,7.60780032 L164.14982,7.60780032 C160.268973,7.60780032 157.09357,10.7786204 157.09357,14.6535151 L157.09357,18.0158218 L166.15717,18.0158218" id="Fill-104" fill="#58C4C5"></path>
                        <polygon id="Fill-106" fill="#58C4C5" points="166.042987 13.1778034 176.955664 13.1778034 176.955664 3.56824514 166.042987 3.56824514"></polygon>
                        <path d="M147.243084,72.760994 C147.243084,73.4271327 147.598972,74.3850175 148.034448,74.889928 L156.044403,84.1887721 C156.479427,84.6936827 157.381129,85.1064628 158.048136,85.1064628 L184.952234,85.1064628 C185.618788,85.1064628 186.520038,84.6936827 186.955514,84.1887721 L194.96547,74.889928 C195.400041,74.3850175 195.755929,73.4271327 195.755929,72.760994 L195.755929,64.2714519 L147.243084,64.2714519 L147.243084,72.760994" id="Fill-108" fill="#118C8C"></path>
                        <path d="M194.543831,17.6524036 L148.456177,17.6524036 C147.788718,17.6524036 147.242904,18.1975083 147.242904,18.8636469 L147.242904,39.324717 L195.756652,39.324717 L195.756652,18.8636469 C195.756652,18.1975083 195.210837,17.6524036 194.543831,17.6524036" id="Fill-109" fill="#118C8C"></path>
                        <polygon id="Fill-110" fill="#FFFFFF" points="147.243356 64.5088682 181.61069 64.5088682 181.61069 39.0885652 147.243356 39.0885652"></polygon>
                        <polygon id="Fill-111" fill="#118C8C" points="179.801859 64.5088682 195.756652 64.5088682 195.756652 39.0885652 179.801859 39.0885652"></polygon>
                        <path d="M158.048362,59.0717315 C157.672125,59.0717315 157.367337,58.7668884 157.367337,58.3924959 L157.367337,54.2362423 L153.201599,54.2362423 C152.825363,54.2362423 152.520575,53.9313991 152.520575,53.5570066 L152.520575,50.0393429 C152.520575,49.6649504 152.825363,49.3596556 153.201599,49.3596556 L157.366885,49.3596556 L157.366885,45.203402 C157.366885,44.8290095 157.672125,44.5241664 158.04791,44.5241664 L161.572417,44.5241664 C161.947297,44.5241664 162.253441,44.8290095 162.253441,45.203402 L162.253441,49.3596556 L166.419179,49.3596556 C166.794511,49.3596556 167.100204,49.6644987 167.100204,50.0393429 L167.100204,53.5570066 C167.100204,53.9313991 166.794511,54.2362423 166.419179,54.2362423 L162.253441,54.2362423 L162.253441,58.3924959 C162.253441,58.7668884 161.947297,59.0717315 161.572417,59.0717315 L158.048362,59.0717315" id="Fill-112" fill="#FF7900"></path>
                        <polyline id="Fill-113" fill="#DDDBDA" points="147.243084 64.2715422 147.243084 64.2715422 147.243084 39.324988 147.243576 64.2715422"></polyline>
                        <polygon id="Fill-114" fill="#58C4C5" points="218.995155 17.8904522 227.726381 17.8904522 227.726381 3.56824514 218.995155 3.56824514"></polygon>
                        <path d="M218.995743,30.9782931 L218.995743,165.981793 C218.995743,166.988002 219.541557,167.811304 220.208564,167.811304 L226.5146,167.811304 C227.182059,167.811304 227.727421,166.988002 227.727421,165.981793 L227.727421,30.9782931 L218.995743,30.9782931" id="Fill-115" fill="#118C8C"></path>
                        <path d="M229.424783,30.0212212 C229.424783,30.6774242 228.887108,31.215303 228.229146,31.215303 L218.493566,31.215303 C217.836056,31.215303 217.298381,30.6774242 217.298381,30.0212212 L217.298381,18.8468015 C217.298381,18.1901469 217.836056,17.6527198 218.493566,17.6527198 L228.229146,17.6527198 C228.887108,17.6527198 229.424783,18.1901469 229.424783,18.8468015 L229.424783,30.0212212" id="Fill-116" fill="#118C8C"></path>
                        <path d="M235.336585,3.81320352 L159.698513,3.81320352 C158.715866,3.81320352 157.91998,3.0179017 157.91998,2.03698429 C157.91998,1.05606688 158.715866,0.260765061 159.698513,0.260765061 L235.336585,0.260765061 C236.319232,0.260765061 237.11557,1.05606688 237.11557,2.03698429 C237.11557,3.0179017 236.319232,3.81320352 235.336585,3.81320352" id="Fill-117" fill="#58C4C5"></path>
                        <path d="M194.305337,162.938466 C192.829783,160.973469 191.701977,158.963311 191.722326,157.428257 C195.390183,145.483375 222.176255,134.545603 222.176255,134.545603 L232.955531,140.446463 L234.87063,157.281932 L220.794308,169.485141 C217.036914,172.742672 211.817985,173.836946 206.738336,172.431958 C201.897452,170.454316 197.516464,167.216205 194.305337,162.938466" id="Fill-118" fill="#FAB08A"></path>
                        <path d="M225.195465,162.06124 C227.153977,159.499203 233.063427,155.34024 230.674414,153.172466 C228.93251,151.591798 223.725338,145.566292 222.058952,143.469874 C218.091282,138.474964 212.971386,128.019974 220.581138,121.988144 C224.38737,118.971778 230.596634,120.057471 233.427907,121.61872 C236.207175,123.151516 238.218143,125.774973 239.260482,128.768759 C241.706926,135.795054 243.255737,146.456434 246.153032,148.901501 C251.027379,153.0144 252.033993,160.175729 247.815348,163.406614 C243.309098,166.858793 234.776842,169.843998 228.791421,171.028595 C225.327962,171.714605 221.779488,171.773768 218.292062,171.220534 L225.195465,162.06124 Z" id="Fill-119" fill="#FFEDDC"></path>
                    </g>
                </g>
                <path d="M338.75,74.3333333 C342.460243,74.3333333 345.46875,71.3488889 345.46875,67.6666667 C345.46875,63.9844444 342.460243,61 338.75,61 C335.037517,61 332.03125,63.9844444 332.03125,67.6666667 C332.03125,71.3488889 335.037517,74.3333333 338.75,74.3333333 Z M361.076584,96.6257573 L361.076584,86.9748003 L350.050566,86.9748003 L350.050566,96.6257573 L340.12715,96.6257573 L340.12715,94.4253391 L347.845362,94.4253391 L347.845362,84.8301432 L350.052036,84.8301432 L350.052036,78.3961718 L342.874833,77 L339.026018,82.7748467 L335.174997,77.0007149 L328,78.3961718 L328,94.1229425 L332.440545,97.6980859 L334.615611,117 L343.436425,117 L344.539027,107.349043 L350.050566,107.349043 L350.050566,117 L361.076584,117 L361.076584,107.349043 L371,107.349043 L371,96.6257573 L361.076584,96.6257573 Z" id="Fill-1" fill="#FFFFFF"></path>
            </g>
        </g>
    </g>
</svg>