<svg xmlns="http://www.w3.org/2000/svg" width="890" height="596" viewBox="0 0 890 596">
    <g fill="none" fill-rule="evenodd">
        <path fill="#00AAA8" d="M830.43 232.262l29.787 29.816L890 232.262l-29.783-29.817z"/>
        <path fill="#FF2239" d="M801.01 554.614l-25.655 14.826 14.81 25.68 25.653-14.827z"/>
        <path fill="#7171FF" d="M788.152 13L746 55.192l42.152 42.194 42.146-42.194z"/>
        <path fill="#009BFF" d="M479.603-13L456 10.625l23.603 23.63 23.604-23.63z"/>
        <path fill="#F80" d="M749.02 305L742 330.604l25.58 7.025 7.015-25.61z"/>
        <path fill="#FF2239" d="M294 542.136l29.107 7.994 7.984-29.142L301.979 513z"/>
        <path fill="#00AAA8" d="M710.545 445L692 463.565l18.545 18.565 18.546-18.565z"/>
        <path fill="#F80" d="M208.18 499.057l-2.62 27.201L174 481.554 203.135 461l31.56 44.7z"/>
        <path fill="#ED2EB1" d="M309.42 80.646c-10.02-10.025-10.015-26.286 0-36.31l36.278 36.31c-10.02 10.03-26.26 10.03-36.278 0"/>
        <path fill="#009E3C" d="M48.65 373.95c13.41-13.426 13.41-35.186 0-48.617L.083 373.95c13.411 13.426 35.15 13.426 48.565 0"/>
        <path fill="#009BFF" d="M124.98 119.206c13.406-13.425 13.406-35.19 0-48.613l-48.564 48.613c13.41 13.423 35.153 13.423 48.564 0"/>
        <path fill="#7171FF" d="M325.364 226.418c-14.182 14.19-37.183 14.19-51.364 0L325.364 175c14.181 14.196 14.181 37.215 0 51.418"/>
        <path fill="#007F7E" d="M197.456 341.347l51.582-15.91-17.405-17.418-51.624 15.857zM162.508 306.361l50.954-16.531-17.393-17.416-50.94 16.545z"/>
        <path fill="#00B6AA" d="M213.463 289.83l-16.007 51.517-17.398-17.422 15.845-51.678zM179.037 255.368l-16.515 51.008-17.393-17.417 15.84-51.683z"/>
    </g>
</svg>
