<svg xmlns="http://www.w3.org/2000/svg" width="32" height="23" viewBox="0 0 32 23">
    <g fill="none" fill-rule="evenodd">
        <g transform="translate(.5 2.174) translate(11 .083)">
            <ellipse cx="9.739" cy="9" fill-rule="nonzero" stroke="#FF872F" rx="9.15" ry="9"/>
            <ellipse cx="9.739" cy="9" fill-rule="nonzero" stroke="#FF872F" stroke-width=".5" rx="7.224" ry="7.105"/>
            <path fill="#FF872F" d="M12.433 9.5c-.13-.247-.313-.452-.546-.615-.233-.162-.516-.3-.848-.413-.332-.113-.704-.217-1.114-.31-.327-.082-.562-.143-.704-.186-.142-.042-.283-.1-.421-.175-.14-.074-.249-.163-.328-.267-.08-.104-.12-.227-.12-.37 0-.23.118-.427.35-.59.234-.164.54-.246.92-.246.41 0 .708.076.894.226.185.151.344.361.476.63.102.188.197.323.285.406.088.083.216.124.385.124.185 0 .34-.069.463-.207.124-.137.186-.292.186-.464 0-.188-.05-.38-.148-.579-.1-.197-.257-.386-.472-.566-.215-.18-.485-.324-.81-.433-.203-.067-.428-.113-.676-.139V4.263h-.931v1.06c-.375.032-.712.107-1.01.225-.414.164-.73.398-.948.702-.218.305-.327.654-.327 1.046 0 .411.103.756.31 1.033.207.277.486.496.838.656.352.16.79.3 1.312.42.39.088.702.17.935.249.233.077.424.19.57.337.148.148.221.34.221.577 0 .298-.136.546-.409.746-.273.2-.627.299-1.064.299-.317 0-.574-.05-.769-.149-.195-.098-.346-.224-.453-.376-.108-.153-.208-.342-.3-.57-.077-.19-.168-.334-.276-.432-.107-.097-.239-.146-.394-.146-.192 0-.35.063-.474.188-.124.124-.186.274-.186.45 0 .3.103.611.31.93.207.32.475.575.806.766.36.205.797.33 1.308.377v1.086h.931V12.65c.406-.038.77-.128 1.09-.27.436-.195.767-.464.994-.807.226-.344.34-.73.34-1.162 0-.36-.066-.664-.196-.912"/>
        </g>
        <g fill="#FF872F">
            <path d="M10.382.604c0 .113-.117.204-.261.204H8.229c-.144 0-.262-.091-.262-.204 0-.112.118-.204.262-.204h1.892c.144 0 .261.092.261.204M10.584 12.211c0 .113-.123.204-.275.204H4.821c-.152 0-.275-.091-.275-.204 0-.112.123-.203.275-.203h5.488c.152 0 .275.09.275.203M6.76.604c0 .113-.117.204-.262.204H4.607c-.145 0-.262-.091-.262-.204 0-.112.117-.204.262-.204h1.891c.145 0 .262.092.262.204M8.169 2.844c0 .113-.117.204-.26.204H4.806c-.144 0-.26-.091-.26-.204 0-.112.116-.204.26-.204h3.101c.144 0 .26.092.26.204M3.741 4.88c0 .113-.108.204-.243.204h-.721c-.134 0-.243-.091-.243-.204 0-.112.109-.203.243-.203h.721c.135 0 .243.091.243.203M2.735 7.528c0 .112-.13.203-.292.203H.613c-.162 0-.293-.09-.293-.203 0-.113.131-.204.293-.204h1.83c.161 0 .292.091.292.204M6.961 7.324c0 .112-.122.204-.272.204H4.416c-.15 0-.272-.092-.272-.204 0-.112.122-.204.272-.204H6.69c.15 0 .272.092.272.204M5.955 9.971c0 .113-.12.204-.268.204H3.004c-.149 0-.269-.091-.269-.204 0-.112.12-.203.269-.203h2.683c.148 0 .268.09.268.203" transform="translate(.5 2.174) translate(0 3.083)"/>
        </g>
    </g>
</svg>
