<svg xmlns="http://www.w3.org/2000/svg" width="87" height="22" viewBox="0 0 87 22">
    <g fill="none" fill-rule="evenodd">
        <g>
            <g>
                <g transform="translate(-407 -263) translate(287 244) translate(121 20)">
                    <rect width="84.932" height="19.672" fill="#005960" stroke="#E0F3F3" rx="3"/>
                    <path fill="#FFF" fill-rule="nonzero" d="M8.406 14.568c1.517 0 2.693-.405 3.53-1.216.836-.81 1.254-1.952 1.254-3.425 0-1.465-.418-2.6-1.255-3.406-.836-.806-2.012-1.209-3.529-1.209H5v9.256h3.406zm-.104-1.365H6.677V6.677h1.625c2.132 0 3.198 1.083 3.198 3.25 0 2.184-1.066 3.276-3.198 3.276zm8.19-6.578V5.026h-1.807v1.599h1.807zm-.091 7.943V8.003h-1.612v6.565h1.612zm3.393 0v-3.666c0-.555.13-.99.39-1.306.26-.317.615-.475 1.066-.475.381 0 .66.117.838.351.178.234.267.607.267 1.118v3.978h1.625v-3.666c0-.555.128-.99.383-1.306.256-.317.61-.475 1.06-.475.39 0 .67.115.839.345.168.23.253.604.253 1.124v3.978h1.625v-4.03c0-.91-.182-1.588-.546-2.034-.364-.447-.919-.67-1.664-.67-.477 0-.908.11-1.293.332-.386.22-.683.526-.891.916-.303-.832-.958-1.248-1.963-1.248-.468 0-.882.104-1.242.312-.36.208-.634.507-.825.897l-.117-1.04h-1.521c.07.546.104 1.166.104 1.859v4.706h1.612zm13.169.104c.468 0 .93-.076 1.384-.228.456-.151.839-.353 1.151-.604l-.468-1.118c-.615.468-1.283.702-2.002.702-.624 0-1.094-.167-1.41-.5-.317-.334-.492-.852-.527-1.554h4.524v-.247c0-1.023-.262-1.826-.787-2.412-.524-.585-1.237-.877-2.138-.877-.615 0-1.166.145-1.651.436-.485.29-.862.695-1.131 1.215-.269.52-.403 1.114-.403 1.781 0 1.057.308 1.89.923 2.496.615.607 1.46.91 2.535.91zm1.235-4.173h-3.055c.078-.485.253-.856.526-1.112.273-.255.627-.383 1.06-.383.433 0 .773.126 1.02.377s.397.624.449 1.118zm4.407 4.069V10.85c0-.52.152-.938.455-1.255.303-.316.702-.474 1.196-.474.416 0 .724.12.923.357.2.239.299.618.299 1.138v3.952h1.625v-4.03c0-1.803-.784-2.704-2.353-2.704-.485 0-.92.108-1.306.325-.386.217-.692.524-.917.923l-.117-1.079h-1.521c.07.546.104 1.166.104 1.859v4.706h1.612zm8.632.104c.84 0 1.504-.178 1.989-.533.485-.355.728-.836.728-1.443 0-.494-.15-.895-.449-1.203-.299-.307-.773-.535-1.423-.682l-1.118-.247c-.303-.078-.518-.173-.643-.286-.126-.113-.189-.264-.189-.455 0-.243.104-.433.312-.572.208-.139.498-.208.871-.208.693 0 1.37.243 2.028.728l.481-1.105c-.33-.269-.71-.475-1.144-.617-.433-.143-.884-.215-1.352-.215-.537 0-1.01.087-1.417.26-.407.173-.724.414-.949.722-.225.307-.338.66-.338 1.059 0 .962.598 1.573 1.794 1.833l1.092.247c.355.087.607.188.754.306.147.117.221.275.221.474 0 .234-.106.416-.319.546-.212.13-.513.195-.903.195-.901 0-1.703-.26-2.405-.78l-.455 1.144c.702.555 1.647.832 2.834.832zm5.811-8.047V5.026h-1.807v1.599h1.807zm-.091 7.943V8.003h-1.612v6.565h1.612zm4.758.104c.659 0 1.24-.139 1.742-.416.503-.277.89-.674 1.163-1.19.274-.515.41-1.12.41-1.813 0-.693-.136-1.298-.41-1.813-.273-.516-.66-.913-1.163-1.19-.503-.277-1.083-.416-1.742-.416-.667 0-1.255.139-1.762.416-.507.277-.897.674-1.17 1.19-.273.515-.409 1.12-.409 1.813 0 .693.136 1.298.41 1.813.273.516.663.913 1.17 1.19.507.277 1.094.416 1.761.416zm-.013-1.274c-.546 0-.964-.18-1.255-.54-.29-.36-.435-.894-.435-1.605 0-.702.147-1.237.442-1.605.295-.369.715-.553 1.261-.553.537 0 .953.184 1.248.553.295.368.442.903.442 1.605 0 .71-.145 1.246-.436 1.605-.29.36-.712.54-1.267.54zm6.344 1.17V10.85c0-.52.152-.938.455-1.255.303-.316.702-.474 1.196-.474.416 0 .724.12.923.357.2.239.299.618.299 1.138v3.952h1.625v-4.03c0-1.803-.784-2.704-2.353-2.704-.485 0-.92.108-1.306.325-.386.217-.692.524-.917.923l-.117-1.079H62.33c.07.546.104 1.166.104 1.859v4.706h1.612zm8.775.104c.477 0 .901-.102 1.274-.306.373-.203.659-.487.858-.851v1.053h1.599V8.003h-1.599v.988c-.2-.364-.485-.648-.858-.851-.373-.204-.797-.306-1.274-.306-.563 0-1.066.145-1.508.436-.442.29-.787.697-1.034 1.222-.246.524-.37 1.124-.37 1.8 0 .676.121 1.27.364 1.781.243.511.585.906 1.027 1.183.442.277.949.416 1.521.416zm.442-1.274c-.546 0-.969-.182-1.267-.546-.3-.364-.449-.884-.449-1.56 0-.685.15-1.22.449-1.605.299-.386.717-.579 1.254-.579.546 0 .966.186 1.261.559.295.373.442.906.442 1.599 0 .676-.147 1.2-.442 1.573-.295.373-.71.559-1.248.559zm6.669 1.17V5H78.32v9.568h1.612z"/>
                </g>
            </g>
        </g>
    </g>
</svg>
