<svg xmlns="http://www.w3.org/2000/svg" xmlns:xlink="http://www.w3.org/1999/xlink" width="230" height="143" viewBox="0 0 230 143">
    <defs>
        <rect id="a" width="219.048" height="142.381" rx="4"/>
        <ellipse id="c" cx="26.935" cy="26.982" rx="26.935" ry="26.753"/>
    </defs>
    <g fill="none" fill-rule="evenodd">
        <g>
            <mask id="b" fill="#fff">
                <use xlink:href="#a"/>
            </mask>
            <use fill="#FEF8F8" xlink:href="#a"/>
            <path fill="#118C8C" d="M0 0h219.048L109.524 93.763z" mask="url(#b)"/>
        </g>
        <g opacity=".843" transform="rotate(-30 158.06 -87.92)">
            <ellipse cx="32.896" cy="32.295" fill="#FFF" stroke="#008181" stroke-width=".5" rx="32.235" ry="32.123"/>
            <g transform="translate(5.888 5.382)">
                <mask id="d" fill="#fff">
                    <use xlink:href="#c"/>
                </mask>
                <use stroke="#008181" stroke-width=".5" xlink:href="#c"/>
                <g stroke="#008181" stroke-width=".5" mask="url(#d)">
                    <path d="M43.591 60.791V29.915c0-.596-.033-1.186-.097-1.765-.264-2.395-.05-4.81.56-7.14.113-.435.217-.885.315-1.352.253-1.2-1.03-2.131-2.094-1.516-.477.277-.973.544-1.47.783a1.63 1.63 0 0 1-1.87-.329 16.18 16.18 0 0 0-11.556-4.844 16.183 16.183 0 0 0-11.556 4.843 1.63 1.63 0 0 1-1.87.328 21.88 21.88 0 0 1-1.467-.78c-1.064-.616-2.347.315-2.094 1.515.098.464.201.91.313 1.342.609 2.33.825 4.745.56 7.14a16.123 16.123 0 0 0-.099 1.775v8.001c0 10.17 6.107 18.941 14.853 22.875H14.39h34.153-4.952z"/>
                </g>
                <path stroke="#008181" stroke-width=".5" d="M27.38 26.374a7.096 7.096 0 0 0-6.67-4.684c-3.918 0-7.094 3.182-7.094 7.107 0 8.09.779 14.649 13.763 14.649 12.264 0 13.764-6.559 13.764-14.649 0-3.925-3.176-7.107-7.094-7.107a7.097 7.097 0 0 0-6.67 4.684z" mask="url(#d)" opacity=".901"/>
                <path stroke="#008181" stroke-width=".5" d="M28.88 37.604l1.575-2.897a.856.856 0 0 0-.126-.993l-2.319-2.437a.816.816 0 0 0-1.18 0l-2.319 2.437a.856.856 0 0 0-.126.993l1.576 2.897c.625 1.15 2.293 1.15 2.919 0" mask="url(#d)"/>
                <g fill="#008181" mask="url(#d)">
                    <g transform="translate(19.427 27.97)">
                        <ellipse cx="13.336" cy="1.906" rx="1.745" ry="1.906"/>
                        <ellipse cx="2.038" cy="1.907" rx="1.747" ry="1.907"/>
                    </g>
                </g>
                <path stroke="#008181" stroke-width=".5" d="M11 35.854c-.979.886-2.03 2.163-3.156 3.831-1.126 1.667-1.919 3.123-2.379 4.366" mask="url(#d)"/>
                <path stroke="#008181" stroke-width=".5" d="M53.237 35.854l-9.545-2.583" mask="url(#d)" transform="matrix(-1 0 0 1 96.93 0)"/>
            </g>
        </g>
        <g transform="translate(137.513 24.339)">
            <path fill="#FF7900" d="M65.917 12.661l7.703 12.052-20.7 13.647-7.703-12.052z"/>
            <ellipse cx="76.781" cy="15.646" fill="#FAA525" rx="15.705" ry="15.646"/>
            <ellipse cx="85.023" cy="20.723" fill="#FFEDDC" rx="1.742" ry="5.224" transform="rotate(41 85.023 20.723)"/>
            <path fill="#FF7900" d="M42.946 18.618l14.296 25.147-8.76 5.137-14.296-25.147z"/>
            <path fill="#FAA525" d="M1.918 13.963l16.666-9.774a4 4 0 0 1 5.5 1.474l35.927 63.19a4 4 0 0 1-1.454 5.428l-16.735 9.814a1 1 0 0 1-1.375-.368L1.555 15.32a1 1 0 0 1 .363-1.357z"/>
            <path fill="#005960" d="M1.813 13.884l1.598-.939a2.802 2.802 0 0 1 3.855 1.03l37.17 65.279a2.879 2.879 0 0 1-1.043 3.907l-1.575.925a1 1 0 0 1-1.375-.368L1.45 15.241a1 1 0 0 1 .363-1.357z"/>
        </g>
    </g>
</svg>
