<svg xmlns="http://www.w3.org/2000/svg" width="69" height="87" viewBox="0 0 69 87">
    <g fill="none" fill-rule="evenodd">
        <path fill="#00A7A7" d="M58.9 82.353V28.304c0-1.043-.058-2.073-.17-3.087-.463-4.193-.089-8.42.98-12.5.198-.76.379-1.548.552-2.364.441-2.102-1.804-3.733-3.665-2.655a38.7 38.7 0 0 1-2.574 1.37 2.857 2.857 0 0 1-3.275-.576C45.596 3.266 38.43.014 30.514.014c-7.915 0-15.08 3.25-20.231 8.476a2.857 2.857 0 0 1-3.277.575 37.247 37.247 0 0 1-2.567-1.367C2.576 6.62.331 8.25.774 10.35c.171.813.35 1.595.55 2.35 1.062 4.08 1.44 8.305.977 12.496a28.03 28.03 0 0 0-.174 3.107v14.008c0 17.804 10.692 33.155 26.007 40.04H7.774v4.388h59.794v-4.387H58.9z"/>
        <path fill="#FFF" d="M42.13 12.21c-5.337 0-9.88 3.404-11.6 8.17-1.722-4.766-6.265-8.17-11.602-8.17-6.815 0-12.339 5.549-12.339 12.395 0 14.108 1.355 25.547 23.941 25.547 21.33 0 23.94-11.439 23.94-25.547 0-6.846-5.525-12.395-12.34-12.395"/>
        <path fill="#FF9C39" d="M35.348 34.513a1.165 1.165 0 0 0-.181-1.385l-3.338-3.401a1.196 1.196 0 0 0-1.696 0l-3.337 3.401a1.163 1.163 0 0 0-.183 1.385l2.267 4.046c.9 1.606 3.302 1.606 4.201 0l2.267-4.046zM56.529 77.5l2.457 2.916V38.86c-4.958 4.52-8.073 10.61-8.848 17.422-.881 7.746 1.387 15.281 6.39 21.218z"/>
        <path fill="#2D8289" d="M7.944 86.74H68.02v-5.872H7.944z"/>
        <g fill="#007F7E" transform="translate(15.171 23.05)">
            <ellipse cx="27.818" cy="3.839" rx="3.801" ry="3.839"/>
            <ellipse cx="3.801" cy="3.839" rx="3.801" ry="3.839"/>
        </g>
    </g>
</svg>
