<?xml version="1.0" encoding="UTF-8"?>
<svg width="1024px" height="363px" viewBox="0 0 1024 363" version="1.1" xmlns="http://www.w3.org/2000/svg" xmlns:xlink="http://www.w3.org/1999/xlink">
    <!-- Generator: Sketch 55.2 (78181) - https://sketchapp.com -->
    <title>Group 11</title>
    <desc>Created with Sketch.</desc>
    <defs>
        <path d="M1117,332 C913.608918,377.56511 742.942251,400.347665 605,400.347665 C467.057749,400.347665 296.391082,377.56511 93,332 L93,38 L1117,38 L1117,332 Z" id="path-1"></path>
    </defs>
    <g id="Web-Direct" stroke="none" stroke-width="1" fill="none" fill-rule="evenodd">
        <g id="Via-Email-(Thank-You)" transform="translate(0.000000, -84.000000)">
            <g id="Group-11" transform="translate(-93.000000, 46.000000)">
                <mask id="mask-2" fill="white">
                    <use xlink:href="#path-1"></use>
                </mask>
                <use id="Combined-Shape" fill="#00A7A7" xlink:href="#path-1"></use>
                <g id="Group-8" mask="url(#mask-2)">
                    <g id="Group-2">
                        <g id="Group-7">
                            <g id="Group-43" transform="translate(831.000000, 218.707850)">
                                <path d="M3.10191411,164.7857 C-4.52597796,125.141958 -0.950286001,74.0442193 47.0078751,33.124661 C97.2988309,51.7988715 126.515571,100.759213 142.846191,142.486636 C94.0476829,151.463177 47.4662574,158.896199 3.10191411,164.7857 Z" id="Combined-Shape" fill="#59C09C"></path>
                                <path d="M98.8349366,150.265917 C97.2390545,150.536191 95.6456807,150.804718 94.0548152,151.0715 L127.993026,110.327391 C128.535045,111.328433 129.070356,112.329474 129.597617,113.331859 L98.8349366,150.265917 Z M82.1363038,153.045187 L67.5632747,105.132726 L11.2818466,79.5410017 L11.8949721,78.1906036 C12.1324408,77.68538 12.3605181,77.1788128 12.6033534,76.6735892 L66.3397071,101.108405 L45.9469131,34.0614745 C46.3051287,33.7510845 46.6432197,33.4353197 47.0081434,33.1249297 C47.7540903,33.4030714 48.486621,33.7080867 49.2258597,33.9983215 L85.2771322,152.52995 C84.229088,152.702463 83.1821452,152.874208 82.1363038,153.045187 Z" id="Combined-Shape" fill="#006769"></path>
                                <path d="M109.511976,148.438105 C120.257528,92.2089362 155.923599,28.9954069 255.297994,-1.42108547e-13 C281.805529,34.7823274 287.769754,75.5647187 284.571991,113.476272 C223.240466,127.203579 164.887126,138.857541 109.511976,148.438105 Z" id="Combined-Shape" fill="#004966"></path>
                                <path d="M220.362485,127.31556 C219.024149,127.592529 217.687333,127.868438 216.352039,128.143289 L253.233895,0.619436347 C253.926177,0.413853351 254.6037,0.202895637 255.298665,-4.12114787e-13 C255.766895,0.611374269 256.197558,1.23081062 256.649688,1.84487224 L220.362485,127.31556 Z M280.125865,114.46889 L284.606598,113.046462 C284.594714,113.189875 284.58267,113.33324 284.570467,113.476559 C283.087202,113.808546 281.605678,114.139321 280.125897,114.468883 Z M163.234502,138.670923 L131.348044,89.0684971 C132.026909,87.9075578 132.717849,86.7519933 133.42623,85.5977724 L167.07303,137.93815 C165.792038,138.183441 164.512528,138.427698 163.234502,138.670923 Z" id="Combined-Shape" fill="#59C09C"></path>
                            </g>
                            <polygon id="Fill-1-Copy-3" fill="#59C09C" opacity="0.563448661" points="1040 122 1072 122 1072 91 1040 91"></polygon>
                            <path d="M646.5,116 L646.5,116 C634.625745,116 625,106.373864 625,94.5 C625,82.6261364 634.625745,73 646.5,73 C658.374255,73 668,82.6261364 668,94.5 C668,106.373864 658.374255,116 646.5,116" id="Fill-1-Copy-4" fill="#00C9C3" opacity="0.432700893"></path>
                            <path d="M169.957784,436 C203.021393,436 271.704728,416.97358 355.030516,361.902007 C384.806935,342.222214 447.35438,298.036324 520.231023,262.922016 C587.600058,230.46145 624.183497,155.779315 594.700039,95.6530612 C565.216582,35.5268076 453.646027,0 292.244079,0 C130.842131,0 0,69.8602852 0,156.037314 C0,242.214343 8.55583606,436 169.957784,436 Z" id="Oval-Copy-2" fill="#FFFFFF" opacity="0.247823661"></path>
                        </g>
                    </g>
                </g>
            </g>
        </g>
    </g>
</svg>