<svg xmlns="http://www.w3.org/2000/svg" width="101" height="100" viewBox="0 0 101 100">
    <g fill="none" fill-rule="evenodd">
        <path fill="#98D5D4" d="M50.423.038c27.66 0 50.084 22.336 50.084 49.889 0 27.552-22.423 49.888-50.084 49.888C22.763 99.815.34 77.479.34 49.927.34 22.374 22.763.038 50.423.038"/>
        <path fill="#FFF" d="M80.776 52.327a2.405 2.405 0 0 1-2.409-2.4 27.61 27.61 0 0 0-5.209-16.166 28.082 28.082 0 0 0-12.69-9.808 27.894 27.894 0 0 0-10.045-1.861c-3.525 0-6.898.655-10.006 1.847v-.001a28.08 28.08 0 0 0-12.714 9.802 27.61 27.61 0 0 0-5.224 16.187c0 1.325-1.078 2.4-2.41 2.4H9.302a41.819 41.819 0 0 1-.072-2.4c0 22.662 18.443 41.032 41.193 41.032 21.941 0 39.873-17.088 41.121-38.632H80.776"/>
        <path fill="#005150" d="M27.703 33.74L17.18 25.697a40.738 40.738 0 0 0-7.878 26.63H20.07a2.405 2.405 0 0 0 2.41-2.4 27.611 27.611 0 0 1 5.223-16.187"/>
        <path fill="#CBF1F1" d="M83.682 25.718L73.16 33.762a27.61 27.61 0 0 1 5.209 16.166c0 1.325 1.078 2.4 2.408 2.4h10.768a40.739 40.739 0 0 0-7.862-26.61"/>
        <path fill="#008181" d="M35.844 11.542A41.292 41.292 0 0 0 17.18 25.697l10.523 8.042a28.079 28.079 0 0 1 12.713-9.802l-4.572-12.396"/>
        <path fill="#9DE9E9" d="M65.04 11.556v.001l-4.573 12.396a28.08 28.08 0 0 1 12.691 9.809l10.524-8.043A41.293 41.293 0 0 0 65.04 11.556"/>
        <path fill="#00BCBC" d="M65.04 11.557a41.235 41.235 0 0 0-14.617-2.661c-5.133 0-10.046.938-14.579 2.647l4.573 12.396a27.886 27.886 0 0 1 10.006-1.847c3.54 0 6.926.66 10.045 1.861l4.572-12.396"/>
        <path fill="#98D5D4" d="M66.855 51.811a1.887 1.887 0 0 1-1.89-1.884c0-7.987-6.524-14.485-14.542-14.485-8.019 0-14.542 6.498-14.542 14.485 0 1.04-.847 1.884-1.891 1.884a1.888 1.888 0 0 1-1.891-1.884c0-10.064 8.22-18.252 18.324-18.252 10.104 0 18.323 8.188 18.323 18.252 0 1.04-.846 1.884-1.89 1.884"/>
        <path fill="#59BDBE" d="M44.373 73.879c0 .414-.34.753-.756.753h-7.62a.757.757 0 0 1-.757-.753v-7.59c0-.415.34-.754.756-.754h7.62c.417 0 .757.34.757.754v7.59M54.989 73.879c0 .414-.34.753-.757.753h-7.619a.757.757 0 0 1-.756-.753v-7.59c0-.415.34-.754.756-.754h7.62c.416 0 .756.34.756.754v7.59"/>
        <path fill="#FFFFFE" d="M65.605 73.879c0 .414-.34.753-.756.753h-7.62a.757.757 0 0 1-.756-.753v-7.59c0-.415.34-.754.756-.754h7.62c.416 0 .756.34.756.754v7.59"/>
        <path fill="#E26428" d="M44.373 73.879c0 .414-.34.753-.756.753h-7.62a.757.757 0 0 1-.757-.753v-7.59c0-.415.34-.754.756-.754h7.62c.417 0 .757.34.757.754v7.59"/>
        <path fill="#F49D39" d="M54.989 73.879c0 .414-.34.753-.757.753h-7.619a.757.757 0 0 1-.756-.753v-7.59c0-.415.34-.754.756-.754h7.62c.416 0 .756.34.756.754v7.59"/>
        <path fill="#F0D055" d="M65.605 73.879c0 .414-.34.753-.756.753h-7.62a.757.757 0 0 1-.756-.753v-7.59c0-.415.34-.754.756-.754h7.62c.416 0 .756.34.756.754v7.59"/>
        <path fill="#008181" d="M44.299 52.801c-1.59-3.363-.138-7.39 3.24-8.974a6.88 6.88 0 0 1 .626-.254l33.33-8.746a.482.482 0 0 1 .558.26.478.478 0 0 1-.155.593L53.903 55.708a7.011 7.011 0 0 1-.596.32c-3.376 1.584-7.417.137-9.008-3.227"/>
        <path fill="#FFF" d="M50.423 46.543a3.39 3.39 0 0 1 3.397 3.384 3.39 3.39 0 0 1-3.397 3.383 3.39 3.39 0 0 1-3.397-3.383 3.39 3.39 0 0 1 3.397-3.384"/>
    </g>
</svg>
