<?xml version="1.0" encoding="UTF-8"?>
<svg width="16px" height="16px" viewBox="0 0 16 16" version="1.1" xmlns="http://www.w3.org/2000/svg" xmlns:xlink="http://www.w3.org/1999/xlink">
    <!-- Generator: sketchtool 51.2 (57519) - http://www.bohemiancoding.com/sketch -->
    <title>B57338C4-23A7-43FC-B5E6-C68A079F2BB8</title>
    <desc>Created with sketchtool.</desc>
    <defs></defs>
    <g id="Symbols" stroke="none" stroke-width="1" fill="none" fill-rule="evenodd">
        <g id="footer_1024" transform="translate(-721.000000, -308.000000)" fill="#FFFFFF" fill-rule="nonzero">
            <g id="Group-8">
                <g id="Group-16">
                    <g id="Group-15" transform="translate(0.000000, 278.000000)">
                        <g id="Group-14" transform="translate(0.000000, 20.000000)">
                            <g id="facebook-app-logo" transform="translate(721.000000, 10.000000)">
                                <path d="M15.0499672,0.000262295082 L0.879213115,0.000262295082 C0.393967213,0.000262295082 0,0.393442623 0,0.87947541 L0,15.0502295 C0,15.5362623 0.393967213,15.9299672 0.879213115,15.9299672 L8.50832787,15.9299672 L8.50832787,9.76104918 L6.43252459,9.76104918 L6.43252459,7.35659016 L8.50832787,7.35659016 L8.50832787,5.58347541 C8.50832787,3.52629508 9.76445902,2.4055082 11.6,2.4055082 C12.48,2.4055082 13.234623,2.47134426 13.4546885,2.49993443 L13.4546885,4.65022951 L12.1815082,4.6507541 C11.1834754,4.6507541 10.9909508,5.1252459 10.9909508,5.82111475 L10.9909508,7.35580328 L13.3720656,7.35580328 L13.0607213,9.76 L10.9906885,9.76 L10.9906885,15.9291803 L15.0497049,15.9291803 C15.5354754,15.9291803 15.9297049,15.5349508 15.9297049,15.0502295 L15.9297049,0.87895082 C15.9294426,0.393442623 15.5357377,0.000262295082 15.0499672,0.000262295082 Z" id="Shape"></path>
                            </g>
                        </g>
                    </g>
                </g>
            </g>
        </g>
    </g>
</svg>