<svg xmlns="http://www.w3.org/2000/svg" xmlns:xlink="http://www.w3.org/1999/xlink" width="269" height="150" viewBox="0 0 269 150">
    <defs>
        <filter id="a" width="242.1%" height="237.6%" x="-69.2%" y="-67.9%" filterUnits="objectBoundingBox">
            <feOffset dy="2" in="SourceAlpha" result="shadowOffsetOuter1"/>
            <feGaussianBlur in="shadowOffsetOuter1" result="shadowBlurOuter1" stdDeviation="2"/>
            <feColorMatrix in="shadowBlurOuter1" result="shadowMatrixOuter1" values="0 0 0 0 0.337026998 0 0 0 0 0.337026998 0 0 0 0 0.337026998 0 0 0 0.5 0"/>
            <feMerge>
                <feMergeNode in="shadowMatrixOuter1"/>
                <feMergeNode in="SourceGraphic"/>
            </feMerge>
        </filter>
        <ellipse id="b" cx="8.672" cy="8.365" rx="8.672" ry="8.365"/>
        <path id="d" d="M0 0h12.293v15.535H0z"/>
        <filter id="f" width="242.1%" height="237.6%" x="-69.2%" y="-67.9%" filterUnits="objectBoundingBox">
            <feOffset dy="2" in="SourceAlpha" result="shadowOffsetOuter1"/>
            <feGaussianBlur in="shadowOffsetOuter1" result="shadowBlurOuter1" stdDeviation="2"/>
            <feColorMatrix in="shadowBlurOuter1" result="shadowMatrixOuter1" values="0 0 0 0 0.337026998 0 0 0 0 0.337026998 0 0 0 0 0.337026998 0 0 0 0.5 0"/>
            <feMerge>
                <feMergeNode in="shadowMatrixOuter1"/>
                <feMergeNode in="SourceGraphic"/>
            </feMerge>
        </filter>
        <ellipse id="g" cx="8.672" cy="8.365" rx="8.672" ry="8.365"/>
        <path id="i" d="M0 0h12.293v15.535H0z"/>
        <filter id="k" width="242.1%" height="237.6%" x="-69.2%" y="-67.9%" filterUnits="objectBoundingBox">
            <feOffset dy="2" in="SourceAlpha" result="shadowOffsetOuter1"/>
            <feGaussianBlur in="shadowOffsetOuter1" result="shadowBlurOuter1" stdDeviation="2"/>
            <feColorMatrix in="shadowBlurOuter1" result="shadowMatrixOuter1" values="0 0 0 0 0.337026998 0 0 0 0 0.337026998 0 0 0 0 0.337026998 0 0 0 0.5 0"/>
            <feMerge>
                <feMergeNode in="shadowMatrixOuter1"/>
                <feMergeNode in="SourceGraphic"/>
            </feMerge>
        </filter>
        <ellipse id="l" cx="8.672" cy="8.365" rx="8.672" ry="8.365"/>
        <path id="n" d="M0 0h12.293v15.535H0z"/>
    </defs>
    <g fill="none" fill-rule="evenodd">
        <path fill="#00A7A7" d="M0 0h269v150H0z"/>
        <path fill="#055E5E" d="M22.422 134.726c-13.626 3.08-17.597 5.875-11.911 8.385 8.528 3.765 4.188 6.815 53.872 6.888 49.684.073 57.614-3 89.864-3 49.542 0 73.837 2.956 84.968 0 18.939-5.03 12.413-14.795-37.552-17.356-33.31-1.708-93.057-.013-179.241 5.083z"/>
        <g transform="translate(10.991 78)">
            <path fill="#FFF" d="M4.786 1.768h54.445l-4.84 55.804a6 6 0 0 1-5.978 5.482h-33.29A6 6 0 0 1 9.14 57.52L4.786 1.768z" opacity=".83"/>
            <path fill="#1174B6" d="M11.137 22.436h41.915l-2.344 29.817a6 6 0 0 1-5.981 5.53h-25.63a6 6 0 0 1-5.988-5.603l-1.972-29.744z"/>
            <path fill="#2386C8" d="M44.872 25.34l5.736.174-2.337 29.356a1.77 1.77 0 0 1-1.765 1.63 1.635 1.635 0 0 1-1.634-1.635V25.34z"/>
            <rect width="64.017" height="4.714" fill="#004472" rx="2.357"/>
            <g filter="url(#a)" transform="translate(23.333 21.214)">
                <g transform="translate(0 .072)">
                    <mask id="c" fill="#fff">
                        <use xlink:href="#b"/>
                    </mask>
                    <use fill="#005150" xlink:href="#b"/>
                    <g mask="url(#c)">
                        <path fill="#008181" d="M3.476 11.053l15.289 15.289C14.6 30.26 7.987 30.124 3.84 25.977c-4.146-4.146-4.282-10.76-.364-14.924z"/>
                        <path fill="#FF9445" d="M8.652 15.146l8.414-4.857c1.21 2.246.374 5.09-1.909 6.409-2.283 1.318-5.165.62-6.505-1.552z"/>
                        <g transform="translate(3.335 4.228)">
                            <mask id="e" fill="#fff">
                                <use xlink:href="#d"/>
                            </mask>
                            <path fill="#00BCBC" d="M10.699 14.708V5.054c0-.187-.011-.371-.032-.552a5.986 5.986 0 0 1 .18-2.233c.037-.136.07-.276.102-.422.082-.376-.331-.667-.674-.474-.154.086-.313.17-.473.244a.536.536 0 0 1-.602-.103A5.286 5.286 0 0 0 5.48 0C4.023 0 2.705.58 1.758 1.514a.536.536 0 0 1-.602.103 7.117 7.117 0 0 1-.472-.244c-.343-.193-.756.098-.675.474.032.145.065.284.101.419a5.98 5.98 0 0 1 .18 2.232c-.02.183-.031.368-.031.556v2.501c0 3.18 1.966 5.923 4.781 7.153H1.298h10.995-1.594z" mask="url(#e)"/>
                        </g>
                        <path fill="#FFF" d="M10.962 6.71c-.988 0-1.83.61-2.147 1.465A2.282 2.282 0 0 0 6.667 6.71c-1.261 0-2.284.995-2.284 2.223 0 2.53.251 4.58 4.432 4.58 3.948 0 4.43-2.05 4.43-4.58 0-1.228-1.022-2.223-2.283-2.223" opacity=".901"/>
                    </g>
                </g>
                <path fill="#FFA32C" d="M9.298 11.758l.507-.906a.262.262 0 0 0-.04-.31l-.747-.763a.268.268 0 0 0-.38 0l-.747.762a.262.262 0 0 0-.04.31l.507.907c.201.36.738.36.94 0"/>
                <g fill="#007F7E" transform="translate(6.581 8.84)">
                    <ellipse cx="4.139" cy=".589" rx="1" ry="1"/>
                    <ellipse cx=".598" cy=".589" rx="1" ry="1"/>
                </g>
            </g>
            <path fill="#FFF" fill-opacity=".704" d="M9.75 7.53l6.68-.167-4.79 29.3z"/>
        </g>
        <g transform="translate(80.991 78)">
            <path fill="#FFF" d="M4.786 1.768h54.445l-4.84 55.804a6 6 0 0 1-5.978 5.482h-33.29A6 6 0 0 1 9.14 57.52L4.786 1.768z" opacity=".83"/>
            <path fill="#1174B6" d="M11.137 22.436h41.915l-2.344 29.817a6 6 0 0 1-5.981 5.53h-25.63a6 6 0 0 1-5.988-5.603l-1.972-29.744z"/>
            <path fill="#2386C8" d="M44.872 25.34l5.736.174-2.337 29.356a1.77 1.77 0 0 1-1.765 1.63 1.635 1.635 0 0 1-1.634-1.635V25.34z"/>
            <rect width="64.017" height="4.714" fill="#004472" rx="2.357"/>
            <g filter="url(#f)" transform="translate(23.333 21.214)">
                <g transform="translate(0 .072)">
                    <mask id="h" fill="#fff">
                        <use xlink:href="#g"/>
                    </mask>
                    <use fill="#005150" xlink:href="#g"/>
                    <g mask="url(#h)">
                        <path fill="#008181" d="M3.476 11.053l15.289 15.289C14.6 30.26 7.987 30.124 3.84 25.977c-4.146-4.146-4.282-10.76-.364-14.924z"/>
                        <path fill="#FF9445" d="M8.652 15.146l8.414-4.857c1.21 2.246.374 5.09-1.909 6.409-2.283 1.318-5.165.62-6.505-1.552z"/>
                        <g transform="translate(3.335 4.228)">
                            <mask id="j" fill="#fff">
                                <use xlink:href="#i"/>
                            </mask>
                            <path fill="#00BCBC" d="M10.699 14.708V5.054c0-.187-.011-.371-.032-.552a5.986 5.986 0 0 1 .18-2.233c.037-.136.07-.276.102-.422.082-.376-.331-.667-.674-.474-.154.086-.313.17-.473.244a.536.536 0 0 1-.602-.103A5.286 5.286 0 0 0 5.48 0C4.023 0 2.705.58 1.758 1.514a.536.536 0 0 1-.602.103 7.117 7.117 0 0 1-.472-.244c-.343-.193-.756.098-.675.474.032.145.065.284.101.419a5.98 5.98 0 0 1 .18 2.232c-.02.183-.031.368-.031.556v2.501c0 3.18 1.966 5.923 4.781 7.153H1.298h10.995-1.594z" mask="url(#j)"/>
                        </g>
                        <path fill="#FFF" d="M10.962 6.71c-.988 0-1.83.61-2.147 1.465A2.282 2.282 0 0 0 6.667 6.71c-1.261 0-2.284.995-2.284 2.223 0 2.53.251 4.58 4.432 4.58 3.948 0 4.43-2.05 4.43-4.58 0-1.228-1.022-2.223-2.283-2.223" opacity=".901"/>
                    </g>
                </g>
                <path fill="#FFA32C" d="M9.298 11.758l.507-.906a.262.262 0 0 0-.04-.31l-.747-.763a.268.268 0 0 0-.38 0l-.747.762a.262.262 0 0 0-.04.31l.507.907c.201.36.738.36.94 0"/>
                <g fill="#007F7E" transform="translate(6.581 8.84)">
                    <ellipse cx="4.139" cy=".589" rx="1" ry="1"/>
                    <ellipse cx=".598" cy=".589" rx="1" ry="1"/>
                </g>
            </g>
            <path fill="#FFF" fill-opacity=".704" d="M9.75 7.53l6.68-.167-4.79 29.3z"/>
        </g>
        <g transform="translate(45.991 16)">
            <path fill="#FFF" d="M4.786 1.768h54.445l-4.84 55.804a6 6 0 0 1-5.978 5.482h-33.29A6 6 0 0 1 9.14 57.52L4.786 1.768z" opacity=".83"/>
            <path fill="#1174B6" d="M11.137 22.436h41.915l-2.344 29.817a6 6 0 0 1-5.981 5.53h-25.63a6 6 0 0 1-5.988-5.603l-1.972-29.744z"/>
            <path fill="#2386C8" d="M44.872 25.34l5.736.174-2.337 29.356a1.77 1.77 0 0 1-1.765 1.63 1.635 1.635 0 0 1-1.634-1.635V25.34z"/>
            <rect width="64.017" height="4.714" fill="#004472" rx="2.357"/>
            <g filter="url(#k)" transform="translate(23.333 21.214)">
                <g transform="translate(0 .072)">
                    <mask id="m" fill="#fff">
                        <use xlink:href="#l"/>
                    </mask>
                    <use fill="#005150" xlink:href="#l"/>
                    <g mask="url(#m)">
                        <path fill="#008181" d="M3.476 11.053l15.289 15.289C14.6 30.26 7.987 30.124 3.84 25.977c-4.146-4.146-4.282-10.76-.364-14.924z"/>
                        <path fill="#FF9445" d="M8.652 15.146l8.414-4.857c1.21 2.246.374 5.09-1.909 6.409-2.283 1.318-5.165.62-6.505-1.552z"/>
                        <g transform="translate(3.335 4.228)">
                            <mask id="o" fill="#fff">
                                <use xlink:href="#n"/>
                            </mask>
                            <path fill="#00BCBC" d="M10.699 14.708V5.054c0-.187-.011-.371-.032-.552a5.986 5.986 0 0 1 .18-2.233c.037-.136.07-.276.102-.422.082-.376-.331-.667-.674-.474-.154.086-.313.17-.473.244a.536.536 0 0 1-.602-.103A5.286 5.286 0 0 0 5.48 0C4.023 0 2.705.58 1.758 1.514a.536.536 0 0 1-.602.103 7.117 7.117 0 0 1-.472-.244c-.343-.193-.756.098-.675.474.032.145.065.284.101.419a5.98 5.98 0 0 1 .18 2.232c-.02.183-.031.368-.031.556v2.501c0 3.18 1.966 5.923 4.781 7.153H1.298h10.995-1.594z" mask="url(#o)"/>
                        </g>
                        <path fill="#FFF" d="M10.962 6.71c-.988 0-1.83.61-2.147 1.465A2.282 2.282 0 0 0 6.667 6.71c-1.261 0-2.284.995-2.284 2.223 0 2.53.251 4.58 4.432 4.58 3.948 0 4.43-2.05 4.43-4.58 0-1.228-1.022-2.223-2.283-2.223" opacity=".901"/>
                    </g>
                </g>
                <path fill="#FFA32C" d="M9.298 11.758l.507-.906a.262.262 0 0 0-.04-.31l-.747-.763a.268.268 0 0 0-.38 0l-.747.762a.262.262 0 0 0-.04.31l.507.907c.201.36.738.36.94 0"/>
                <g fill="#007F7E" transform="translate(6.581 8.84)">
                    <ellipse cx="4.139" cy=".589" rx="1" ry="1"/>
                    <ellipse cx=".598" cy=".589" rx="1" ry="1"/>
                </g>
            </g>
            <path fill="#FFF" fill-opacity=".704" d="M9.75 7.53l6.68-.167-4.79 29.3z"/>
        </g>
        <g transform="translate(120.044 83.897)">
            <path fill="#0C7474" d="M1.803.12L96.01 35.072l1.348 1.877-3.278 4.992L1.15 7.919l1.735-5.957z"/>
            <path fill="#055E5E" d="M1.803.12L96.01 35.072l1.348 1.877L2.885 1.962z"/>
            <path fill="#055E5E" d="M1.83.152L.08 5.588 1.15 7.92l1.884-5.923z"/>
            <ellipse cx="55.767" cy="24.324" fill="#FFF" rx="1.725" ry="1.697"/>
        </g>
        <path fill="#004472" d="M250.358 45.078c-6.726.613-11.236.152-13.53-1.382-2.295-1.533-3.25-3.748-2.868-6.644l-64.896 70.262-46.378-17.5c1.591 3.012 2.387 5.17 2.387 6.473s.16 3.22.48 5.753l49.902 18.98 74.903-75.942z"/>
        <path fill="#24B8B5" d="M166.677 52.077c-.885 2.098-1.842 3.201-2.87 3.31-9.32.985-18.388.674-23.33 4.98-8.637 7.53-11.977 23.791-10.349 29.279 1.164 3.922 3.215 10.204 15.882 13.777 17.126 4.832 28.1 5.386 44.174-3.499 10.717-5.923 21.676-18.822 32.879-38.695l-56.386-9.152z"/>
        <path fill="#00BCBC" d="M195.74 79.477c19.436 0 35.192-15.433 35.192-34.47 0-3.73-.604-7.322-1.723-10.686-.187-.56 4.632-9.366 1.723-11.293-2.908-1.927-6.536 1.899-7.557.633-6.444-7.995-16.428-13.126-27.635-13.126-.941 0-1.873.036-2.796.107-1.35.104 2.206-2.31 0-3.315-.98-.446-2.99-.597-5.074.612-2.605 1.513-4.5 3.762-5.229 3.992-14.15 4.466-22.094 17.729-22.094 33.075 0 19.038 15.756 34.471 35.193 34.471z"/>
        <path fill="#E6F8F8" d="M185.665 23.626c.918-3.634.127-6.194-2.372-7.68-5.663-3.369-12.298 2.363-13.778 4.125-.677.807-3.563 3.96-5.08 7.358-1.834 4.105-3.238 8.345-3.759 13.61-.577 5.84.607 13.006 11.113 19.282 10.507 6.275 23.91 9.799 30.575 8.142 3.249-.807 8.348-4.91 13.198-13.285 2.704-4.67 5.924-11.479 4.877-19.01-.48-3.455-6.882-10.846-12.706-13.471-5.823-2.626-11.724-3.27-15.422-2.626-2.465.43-4.68 1.615-6.646 3.555z"/>
        <path fill="#FFA32C" d="M174.046 37.361c-1.607-.58-5.226 1.413-6.383 2.873-.181.228-.336.786-.379.965-.319 1.334-1.042 7.466 1.74 8.801 2.393 1.149 8.734-2.243 10.099-4.067.11-.148-2.903-7.786-5.077-8.572z"/>
        <path fill="#E38D1D" d="M167.754 41.588c.635 3.16 1.365 4.966 2.191 5.419.228.125 1.551.431 3.787.12.75-.103 2.095-.448 4.038-1.032-4.15.165-6.601-.003-7.355-.506-.378-.252-.843-.34-1.29-1.01-.296-.444-.753-1.44-1.37-2.991z"/>
        <path fill="#008181" d="M174.307 31.433c.38-.343.543-.69.491-1.044-.228-1.558-1.406-3.225-2.329-3.436-.947-.218-2.88-.249-4.63.52-.356.156-.825.599-1.407 1.329 2.885-.317 4.728-.317 5.527 0 .8.317 1.583 1.194 2.348 2.63zM186.137 38.839c-.147-.57-.001-.977.436-1.22 2.19-1.211 4.877-1.706 6.703-1.325 3.405.71 5.912 8.345 5.854 8.87-.013.124.364 1.93 0 1.56-1.189-1.203-4.537-6.377-6.856-7.354-2.019-.85-4.064-1.028-6.137-.531z"/>
        <path fill="#24282B" d="M179.2 30.52c.193.006.409.034.647.083.678.14 1.216.514 1.617 1.123 1.188-2.17 2.028-3.415 3.404-4.256 1.632-.996 7.522-2.009 16.912 2.163 9.39 4.172 11.217 8.968 10.612 12.82-.604 3.853-6.192 16.843-13.752 16.694-7.56-.148-19.13-14.072-19.716-17.336-.261-1.451.136-4.935 1.369-7.801-.207-.725-.615-1.163-1.224-1.313-.54-.133-1.143-.08-1.806.16-2.044 2.21-4.366 4.012-5.977 4.285-3.512.596-6.445-1.191-8.34-4.915-1.895-3.725.965-8.075 1.72-9.48.754-1.405 3.37-6.243 9.035-4.91 5.664 1.331 7.998 3.809 7.998 7.325 0 1.36-1.03 3.37-2.499 5.358z" opacity=".682"/>
        <path fill="#FFF" d="M120.044 48.542l15.47 14.791.064 12.916-6.26 2.908 14.23.32-6.592-3.228V63.334l14.786-14.792z" opacity=".828"/>
        <path fill="#1174B6" d="M128.85 53.845l6.899 7.955 7.188-7.955z"/>
        <path fill="#FFA32C" d="M206.93 74.335c-3.886-5.127-28.15-2.581-58.433-4.48-7.077-.445-20.218-4.666-16.288 8.634 3.201 10.831 22.918 20.988 30.647 22.005 17.219 2.267 52.032-15.66 44.074-26.16z"/>
        <path fill="#A5DBFF" d="M138.209 54.729h2.967l-3.359 3.536z"/>
        <path fill="#055E5E" d="M247.341 42.355L154.33 136.79l2.049 3.797 3.657 2.094 91.622-95.306-3.065-2.488z"/>
        <path fill="#0C7474" d="M156.04 140.588l5.94 3.094 90.247-95.328-3.79-3.702z"/>
        <path fill="#055E5E" d="M247.337 42.355l3.807 3.411 1.428 2.588-4.001-3.446z"/>
        <g transform="translate(121.805 99.207)">
            <path fill="#0C7474" d="M1.79.122l93.5 35.483 1.338 1.905-3.253 5.068L1.14 8.04l1.722-6.048z"/>
            <path fill="#055E5E" d="M1.79.122l93.5 35.483 1.338 1.905L2.863 1.992z"/>
            <path fill="#055E5E" d="M1.816.155L.079 5.673 1.141 8.04l1.87-6.014z"/>
            <ellipse cx="55.348" cy="24.693" fill="#FFF" rx="1.712" ry="1.723"/>
        </g>
        <path fill="#FFA32C" d="M133.252 94.647l-4.246-1.912-5.44 2.582.512.954 4.928-1.768 4.246 1.768zM123.974 96.405c-2.27-2.598-4.092-3.817-5.468-3.655-2.065.242-4.833.165-4.613 1.656.146.993 2.022 1.66 5.626 2l5.808 2.517-1.353-2.518zM132.371 90.035l-4-1.719-5.685 2.833.395.703 5.29-1.947 4 1.59z"/>
        <path fill="#FFA32C" d="M123.093 92.87c-2.269-2.599-4.091-3.817-5.468-3.656-2.065.242-4.832.166-4.613 1.656.147.994 2.022 1.66 5.626 2l5.809 2.517-1.354-2.517z"/>
        <path fill="#1B4E71" d="M179.917 34.584c-.206-.733-.612-1.175-1.22-1.327-.538-.135-1.138-.081-1.799.162-2.035 2.234-4.35 4.056-5.954 4.332-3.5.603-6.42-1.204-8.309-4.97-1.888-3.765.962-8.163 1.714-9.584.751-1.42 3.358-6.312 9-4.965 5.644 1.347 7.97 3.852 7.97 7.407 0 1.375-1.028 3.406-2.49 5.416.192.007.407.035.644.085.675.141 1.212.52 1.61 1.135 1.184-2.193 2.021-3.452 3.392-4.302 1.626-1.008 7.493-2.032 16.849 2.186 9.355 4.218 11.174 9.067 10.572 12.962-.602 3.895-6.17 17.028-13.7 16.878-7.532-.15-19.058-14.228-19.643-17.527-.26-1.468.136-4.99 1.364-7.888zm6.124-4.245c-1.286.816-1.977 2.1-3.236 4.556-1.259 2.456-1.676 5.86-1.447 7.188.462 2.673 9.576 14.075 15.53 14.197 5.956.121 10.357-10.516 10.833-13.671.476-3.155-.962-7.083-8.359-10.499-7.397-3.416-12.036-2.587-13.321-1.77zm-13.556-9.853c-4.362-1.044-6.218 2.5-6.799 3.6-.58 1.1-2.9 4.24-1.44 7.158 1.459 2.918 3.717 4.319 6.422 3.852 2.705-.467 8.019-6.632 8.019-9.388 0-2.755-1.84-4.178-6.202-5.222z"/>
    </g>
</svg>
