<svg xmlns="http://www.w3.org/2000/svg" xmlns:xlink="http://www.w3.org/1999/xlink" width="257" height="234" viewBox="0 0 257 234">
    <defs>
        <path id="a" d="M.026.193h219.899v180.714H.025z"/>
    </defs>
    <g fill="none" fill-rule="evenodd">
        <g transform="translate(0 47.504)">
            <mask id="b" fill="#fff">
                <use xlink:href="#a"/>
            </mask>
            <path fill="#005150" d="M79.628 180.907h60.669v-34.485h-60.67z" mask="url(#b)"/>
            <path fill="#008181" d="M204.758.193H15.168c-4.024 0-7.882 1.6-10.727 4.453A15.225 15.225 0 0 0 0 15.402V140.87a15.225 15.225 0 0 0 4.441 10.755 15.144 15.144 0 0 0 10.726 4.454h189.59c4.023 0 7.882-1.601 10.727-4.454a15.225 15.225 0 0 0 4.44-10.755V15.401a15.225 15.225 0 0 0-4.44-10.755A15.144 15.144 0 0 0 204.758.193" mask="url(#b)"/>
            <path fill="#FFF" d="M219.925 125.663V15.402a15.225 15.225 0 0 0-4.441-10.756A15.144 15.144 0 0 0 204.758.193H15.168c-4.024 0-7.882 1.6-10.727 4.453A15.225 15.225 0 0 0 0 15.402v110.26h219.925" mask="url(#b)"/>
        </g>
        <path fill="#008181" d="M53.085 218.792H166.84a3.797 3.797 0 0 1 3.791 3.802v7.604c0 2.1-1.697 3.802-3.791 3.802H53.085a3.797 3.797 0 0 1-3.791-3.802v-7.604c0-2.1 1.697-3.802 3.791-3.802"/>
        <path fill="#99DCDC" d="M98.587 123.739H30.335a3.797 3.797 0 0 1-3.792-3.802c0-2.1 1.697-3.802 3.792-3.802h68.252a3.797 3.797 0 0 1 3.792 3.802c0 2.1-1.698 3.802-3.792 3.802M98.587 138.948H30.335a3.797 3.797 0 0 1-3.792-3.803c0-2.1 1.697-3.802 3.792-3.802h68.252a3.797 3.797 0 0 1 3.792 3.802c0 2.1-1.698 3.803-3.792 3.803M98.587 154.156H30.335a3.797 3.797 0 0 1-3.792-3.802c0-2.1 1.697-3.802 3.792-3.802h68.252a3.797 3.797 0 0 1 3.792 3.802c0 2.1-1.698 3.802-3.792 3.802"/>
        <path fill="#D88313" d="M144.879 130.725l-18.069 21.634-.29.228a3.63 3.63 0 0 1-.992-2.471v-30.417c-.007-1.094.507-2.136 1.406-2.851l.248.304 17.697 13.573"/>
        <path fill="#9F600D" d="M174.097 152.885v.038c-.796.833-1.938 1.316-3.143 1.331h-41.347c-1.205-.015-2.347-.498-3.142-1.33l.29-.229 18.068-21.634 5.458 4.183 5.457-4.183 18.07 21.634.289.19"/>
        <path fill="#D88313" d="M174.855 119.661v30.417c0 .895-.353 1.759-.992 2.433l-.29-.19-18.068-21.634 17.696-13.573.29-.266c.871.715 1.368 1.74 1.364 2.813"/>
        <path fill="#FFA32C" d="M173.78 116.975l-.29.266-17.697 13.573-5.457 4.183-5.458-4.183-17.697-13.573-.248-.304a4.278 4.278 0 0 1 2.73-.95h41.346a4.279 4.279 0 0 1 2.729.95l.041.038"/>
        <g>
            <path fill="#005150" fill-rule="nonzero" d="M256.872 16.078v68.963c0 8.879-7.325 16.078-16.359 16.078l-56.656.232-33.189 35.882v-35.882h-23.467c-9.034 0-16.359-7.2-16.359-16.079V16.31c0-8.88 7.325-16.078 16.359-16.078L240.51 0c9.036 0 16.361 7.2 16.361 16.078z"/>
            <path fill="#FFF" d="M139.417 63.725l-3.737-2.723 6.018-7.537-9.375-2.66 1.52-4.498 8.995 3.357-.38-9.627h4.687l-.38 9.627 9.057-3.357 1.457 4.497-9.248 2.597 5.954 7.6-3.8 2.724-5.384-8.044zM178.124 63.725l-3.737-2.723 6.017-7.537-9.374-2.66 1.52-4.498 8.994 3.357-.38-9.627h4.687l-.38 9.627 9.058-3.357 1.457 4.497-9.248 2.597 5.954 7.6-3.8 2.724-5.384-8.044zM216.83 63.725l-3.736-2.723 6.017-7.537-9.374-2.66 1.52-4.498 8.994 3.357-.38-9.627h4.687l-.38 9.627 9.058-3.357 1.456 4.497-9.247 2.597 5.954 7.6-3.8 2.724-5.384-8.044z"/>
        </g>
        <path fill="#99DCDC" d="M26.391 59.82h73.895v45.744H26.391z"/>
    </g>
</svg>
