<svg xmlns="http://www.w3.org/2000/svg" xmlns:xlink="http://www.w3.org/1999/xlink" width="375" height="181" viewBox="0 0 375 181">
    <defs>
        <path id="zy7c6qxlma" d="M0.302 0.622L6.764 0.622 6.764 4.959 0.302 4.959z"/>
        <path id="pr2f7az0ce" d="M0 0L24.89 0 24.89 33.42 0 33.42z"/>
        <path id="2uget9wygg" d="M0.5 0H134.5V171.95H0.5z"/>
        <path id="ez1ifmic8i" d="M0.195 0.406L4.373 0.406 4.373 3.242 0.195 3.242z"/>
        <path id="9a7c78pjzk" d="M0 35.66L34.602 35.66 34.602 0.421 0 0.421z"/>
        <ellipse id="hstrlvfr7c" cx="17.558" cy="17.995" rx="17.558" ry="17.995"/>
    </defs>
    <g fill="none" fill-rule="evenodd">
        <g>
            <g>
                <g>
                    <path fill="#00A7A7" d="M0 0H375V181H0z" transform="translate(-325 -139) translate(325 140) translate(0 -1)"/>
                    <path fill="#11B5B5" d="M29.5 0H345.5V179.994H29.5z" transform="translate(-325 -139) translate(325 140) translate(0 -1)"/>
                    <g>
                        <g>
                            <g>
                                <path fill="#FFF" d="M7 82.456h66c3.866 0 7-3.134 7-7V7c0-3.866-3.134-7-7-7H7C3.134 0 0 3.134 0 7v68.456c0 3.866 3.134 7 7 7z" opacity=".771" transform="translate(-325 -139) translate(325 140) translate(0 -1) translate(70 9.05) translate(.5 31.172) translate(152.5)"/>
                                <g>
                                    <path fill="#000" d="M0 15.6h14.444V1.114H0V15.6zm2.084-2.07h10.287V3.2H2.084v10.33zM38.889 15.6h14.444V1.114H38.89V15.6zm2.06-2.07h10.324V3.191H40.949V13.53zM0 54.599h14.444V40.114H0v14.485zm2.102-2.072h10.28V42.144H2.102v10.383z" transform="translate(-325 -139) translate(325 140) translate(0 -1) translate(70 9.05) translate(.5 31.172) translate(152.5) translate(12.222 13.371)"/>
                                    <g>
                                        <path fill="#000" d="M47.107 41.63l-.091-2.099h4.32v-4.368h-2.102V32.96h-2.166v-2.186h2.134v-4.23h4.317v2.138h-2.112v2.078h2.11v10.852l-6.424.001c0 .002.014.016.014.016M6.407 32.962L6.407 30.809 2.16 30.809 2.16 37.281.012 37.281.012 26.517 4.239 26.517 4.22 26.499 4.22 28.651 6.405 28.651 6.405 26.499 6.39 26.515 10.682 26.515 10.682 30.78 8.559 30.78 8.559 32.961 8.574 32.946 6.39 32.946zM4.24 22.126l-2.035.043.013.01-.114-2.11h-2.1v-2.155h10.699v2.157h2.103l-.019-.018v2.091h4.354l-.016-.015v2.153H8.528v-2.153H6.39l.016.015V20.1H4.22v2.044l.019-.018zM23.541 13.513v-2.067h8.567V7.049l-.018.016h2.184v-2.2l-.012.015h2.123v6.52H34.26v2.111l.014-.015h-2.2v2.201h-2.15v-2.152H27.88v2.154l-2.188-.017.016.015v-2.2h-2.184l.017.016zM16.907 52.44v-2.177h6.507V48.05l-.019.017h2.076v-2.2l-.013.014 2.184.001-.018-.015v2.2h2.185l-.016-.015.018 4.387-2.184-.001v-2.152h-2.153v2.153h-2.096v2.06h-2.151l.015.015v-2.091h-4.353l.018.017zM18.605 35.04L18.605 37.194 12.222 37.194 12.222 26.425 14.392 26.425 14.373 26.408 14.373 32.87 16.449 32.87 16.433 32.855 16.433 35.056 18.617 35.056z" transform="translate(-325 -139) translate(325 140) translate(0 -1) translate(70 9.05) translate(.5 31.172) translate(152.5) translate(12.222 13.371)"/>
                                        <path fill="#000" d="M27.906 2.763L29.886 2.763 29.886.655 36.377.655 36.377 2.786 34.262 2.786 34.262 4.88 34.275 4.864 32.091 4.864 32.091 7.065 32.108 7.049 29.918 7.049 29.918 4.904 27.905 4.904 27.919 4.915 27.919 2.753zM19.312 15.681L17.138 15.681 17.138 11.44 19.251 11.44 19.251 9.26 17.143 9.26 17.143 7.1 23.473 7.1 23.473 9.236 21.358 9.236 21.358 13.512 21.37 13.496 19.294 13.496 19.294 15.697z" transform="translate(-325 -139) translate(325 140) translate(0 -1) translate(70 9.05) translate(.5 31.172) translate(152.5) translate(12.222 13.371)"/>
                                        <g transform="translate(-325 -139) translate(325 140) translate(0 -1) translate(70 9.05) translate(.5 31.172) translate(152.5) translate(12.222 13.371) translate(46.753 49.588)">
                                            <mask id="yv7m2wcs1b" fill="#fff">
                                                <use xlink:href="#zy7c6qxlma"/>
                                            </mask>
                                            <path fill="#000" d="M4.64 0.623L4.64 2.807 6.764 2.807 6.764 4.959 0.321 4.959 0.321 2.805 0.302 2.823 2.487 2.823 2.487 0.622 2.471 0.638 4.656 0.638z" mask="url(#yv7m2wcs1b)"/>
                                        </g>
                                        <path fill="#000" d="M45.034 20.09c-.017 1.05-.036 2.1-.05 3.149-.007.34-.002.68-.002 1.052h-2.15v-2.137l-2.147.001.018.018V17.91h2.086v2.196h2.258l-.013-.015zM49.242 48.15L49.242 45.997 53.515 45.997 53.515 50.212 51.393 50.212 51.409 50.226 51.409 48.135 49.224 48.135zM27.905 4.905c-.019.977-.04 1.953-.056 2.93-.007.45-.001 4.738-.001 5.215h-2.129V4.914h2.199l-.013-.01M34.25 35.07c-.02.978-.043 1.954-.057 2.932-.008.45-.002 4.736-.002 5.215h-2.129V35.08h2.2l-.013-.01M34.26 13.51h2.17v4.373l.013-.016-2.183.014.015-4.385-.015.015zM4.24 26.517v-4.39l-.02.017h2.185l-.016-.015v4.386l.016-.016H4.22l.019.018zM21.355 4.827L23.475 4.827 23.475.655 21.355.655zM51.444 20.016L49.254 20.016 49.254 17.911 51.432 17.911 51.432 20.03zM27.919 2.753h-2.196V.648h2.18l.001 2.116.015-.011M8.561 35.132L8.561 37.284 6.407 37.284 6.407 35.13 6.389 35.147 8.574 35.147zM47.085 24.288L49.167 24.288 49.167 22.153 47.085 22.153zM2.205 22.169c-.032.698-.062 1.397-.094 2.124H.018v-2.115h2.199l-.012-.009" transform="translate(-325 -139) translate(325 140) translate(0 -1) translate(70 9.05) translate(.5 31.172) translate(152.5) translate(12.222 13.371)"/>
                                        <path fill="#000" d="M6.407 35.13L4.237 35.13 4.237 32.962 6.407 32.962 6.389 32.946 6.389 35.148zM45.047 20.104v-2.192h1.966v2.176h-1.98l.014.016M47.074 50.229V48.15h2.168l-.018-.015v2.091l.016-.016-2.184.001.018.018zM17.148 4.846L19.243 4.846 19.243 2.825 17.148 2.825zM42.28 39.65v-2.207l-.02.019 2.079-.017.02 2.165.013-.015-2.112.037.02.017zM51.432 20.03h2.079v2.077h-2.067v-2.09l-.012.014M38.46 51.836L34.146 51.836 34.146 49.684 44.809 49.684 44.809 51.812 40.629 51.812 40.629 53.874 38.46 53.874z" transform="translate(-325 -139) translate(325 140) translate(0 -1) translate(70 9.05) translate(.5 31.172) translate(152.5) translate(12.222 13.371)"/>
                                        <path fill="#000" d="M42.681 54.412L44.865 54.412 44.865 43.194 42.681 43.194zM21.235 42.745L16.921 42.745 16.921 40.593 27.584 40.593 27.584 42.72 23.404 42.72 23.404 44.782 21.235 44.782zM23.696 29.522L19.381 29.522 19.381 27.369 30.045 27.369 30.045 29.497 25.864 29.497 25.864 31.559 23.696 31.559z" transform="translate(-325 -139) translate(325 140) translate(0 -1) translate(70 9.05) translate(.5 31.172) translate(152.5) translate(12.222 13.371)"/>
                                        <path fill="#000" d="M25.456 45.321L27.64 45.321 27.64 34.103 25.456 34.103zM39.035 48.664L41.219 48.664 41.219 46.512 39.035 46.512zM32.063 46.598L34.247 46.598 34.247 44.446 32.063 44.446zM36.355 19.958L38.539 19.958 38.539 17.867 36.355 17.867zM44.36 39.61h2.079v2.186h-2.067v-2.2l-.013.014M16.889 49.27L18.964 49.27 18.964 47.069 16.889 47.069zM44.321 37.461L46.444 37.461 46.444 35.37 44.321 35.37zM32.091 20.068L34.275 20.068 34.275 17.867 32.091 17.867zM27.861 15.682h2.075v2.15h-2.075v-2.15zM49.181 44.877L51.263 44.877 51.263 42.85 49.181 42.85zM27.99 24.15h2.184l-.001 2.2h-2.184v-2.2zM37.832 42.214h2.184v2.2h-2.184v-2.2zM19.483 37.195L21.667 37.195 21.667 34.994 19.483 34.994zM10.669 11.381h-6.39v-6.4c.06-.018.127-.056.194-.056 1.931-.004 3.863-.012 5.796.006.133.001.382.186.383.288.023 2.035.017 4.07.017 6.162M42.857 11.373L49.192 11.373 49.192 4.955 42.857 4.955zM4.279 50.196L10.641 50.196 10.641 43.806 4.279 43.806zM21.655 21.31c-.017 1.049-.036 2.099-.052 3.148-.005.34 0 .681 0 1.052h-2.15v-2.136h-2.147l.017.019.001-4.265h2.086v2.195h2.257l-.012-.014zM23.706 25.507L25.789 25.507 25.789 23.373 23.706 23.373z" transform="translate(-325 -139) translate(325 140) translate(0 -1) translate(70 9.05) translate(.5 31.172) translate(152.5) translate(12.222 13.371)"/>
                                        <path fill="#000" d="M21.667 21.323v-2.192h1.966v2.176h-1.98l.014.016M28.065 21.236L25.875 21.236 25.875 19.131 28.052 19.131 28.052 21.25z" transform="translate(-325 -139) translate(325 140) translate(0 -1) translate(70 9.05) translate(.5 31.172) translate(152.5) translate(12.222 13.371)"/>
                                        <path fill="#000" d="M28.053 21.25h2.079v2.077h-2.068v-2.091c.002 0-.011.014-.011.014M31.17 51.128L33.251 51.128 33.251 48.993 31.17 48.993zM34.266 23.185L34.266 21.031 38.539 21.031 38.539 25.246 36.418 25.246 36.433 25.26 36.433 23.169 34.249 23.169zM41.934 26.473h6.06v2.076h-6.027c0-.7 0-1.394.002-2.09l-.035.014" transform="translate(-325 -139) translate(325 140) translate(0 -1) translate(70 9.05) translate(.5 31.172) translate(152.5) translate(12.222 13.371)"/>
                                        <path fill="#000" d="M31.25 37.12v-2.066h8.567v-4.397l-.018.016h2.185v-2.2l-.013.015h2.122v6.52h-2.125v2.11l.016-.014h-2.202v2.202h-2.149v-2.153h-2.045v2.154l-2.187-.017.016.016v-2.202h-2.184l.017.017zM37.929 42.213c-.019.978-.041 1.954-.056 2.932-.007.45-.001 4.736-.001 5.215h-2.129v-8.138l2.198.001-.012-.01" transform="translate(-325 -139) translate(325 140) translate(0 -1) translate(70 9.05) translate(.5 31.172) translate(152.5) translate(12.222 13.371)"/>
                                        <path fill="#000" d="M38.527 29.574c-.018 1.05-.037 2.1-.052 3.149-.005.34 0 .681 0 1.051h-2.15v-2.136h-2.147l.017.02v-4.265h2.087v2.195h2.258l-.013-.014zM16.936 32.478L19.019 32.478 19.019 30.342 16.936 30.342zM51.386 25.865L53.468 25.865 53.468 23.731 51.386 23.731zM27.809 32.936L29.892 32.936 29.892 30.801 27.809 30.801zM32.09 20.99h2.172v4.372l.012-.016-2.184.015.016-4.386-.016.015zM26.973 42.748L26.973 40.594 31.245 40.594 31.245 44.808 29.124 44.808 29.14 44.823 29.14 42.731 26.956 42.731z" transform="translate(-325 -139) translate(325 140) translate(0 -1) translate(70 9.05) translate(.5 31.172) translate(152.5) translate(12.222 13.371)"/>
                                    </g>
                                </g>
                            </g>
                            <g>
                                <path fill="#FFF" fill-rule="nonzero" d="M4.331 7.039v-.96H1.334V.596H.174V7.04H4.33zm2.667.072c.456 0 .858-.096 1.206-.29.348-.192.616-.468.805-.827.19-.36.284-.78.284-1.263 0-.483-.095-.903-.284-1.262-.189-.36-.457-.635-.805-.828-.348-.193-.75-.29-1.206-.29-.462 0-.869.097-1.22.29-.35.193-.62.469-.81.828-.189.359-.283.78-.283 1.262 0 .483.094.904.283 1.263.19.359.46.635.81.828.351.193.758.29 1.22.29zm-.01-.887c-.377 0-.667-.125-.868-.375-.2-.25-.301-.623-.301-1.118 0-.489.102-.861.306-1.118.204-.256.495-.384.873-.384.372 0 .66.128.864.384.204.257.306.63.306 1.118 0 .495-.1.867-.302 1.118-.2.25-.493.375-.877.375zm5.196 2.842c.756 0 1.329-.184 1.719-.552.39-.368.585-.908.585-1.62V2.47h-1.116v.687c-.138-.253-.338-.45-.599-.592-.26-.142-.56-.213-.895-.213-.396 0-.749.095-1.058.285-.309.19-.549.459-.72.806-.17.346-.256.743-.256 1.19 0 .446.085.843.256 1.19.171.347.411.615.72.805.31.19.662.285 1.058.285.33 0 .627-.077.89-.23.265-.154.466-.355.604-.602v.905c0 .808-.405 1.212-1.215 1.212-.546 0-1.095-.145-1.647-.434l-.18.86c.534.295 1.152.443 1.854.443zm-.01-3.04c-.371 0-.664-.124-.877-.372-.213-.247-.32-.588-.32-1.022 0-.435.107-.776.32-1.023.213-.247.506-.371.878-.371.378 0 .672.124.882.37.21.248.315.59.315 1.024 0 .434-.107.775-.32 1.022-.213.248-.505.371-.877.371zm4.54-4.517V.396h-1.252V1.51h1.251zm-.064 5.53v-4.57h-1.116v4.57h1.116zm2.18 0V4.45c0-.362.105-.654.315-.874.21-.22.486-.33.828-.33.288 0 .501.083.64.249.137.166.206.43.206.792v2.75h1.125V4.234c0-1.255-.543-1.882-1.629-1.882-.336 0-.637.075-.904.226-.267.151-.479.365-.635.643l-.08-.751h-1.054c.048.38.072.811.072 1.294v3.276h1.116zm8.348.063c.282 0 .522-.036.72-.108v-.896c-.162.048-.312.072-.45.072-.498 0-.747-.268-.747-.805V3.319h1.206v-.85H26.7V.975l-1.125.38V2.47h-.873v.85h.873v2.1c0 .543.138.96.414 1.249.276.29.672.434 1.188.434zm3.395.01c.456 0 .858-.097 1.206-.29.348-.193.617-.47.806-.828.189-.36.283-.78.283-1.263 0-.483-.094-.903-.283-1.262-.19-.36-.458-.635-.806-.828-.348-.193-.75-.29-1.206-.29-.462 0-.868.097-1.22.29-.35.193-.62.469-.81.828-.188.359-.283.78-.283 1.262 0 .483.095.904.284 1.263.189.359.459.635.81.828.35.193.757.29 1.22.29zm-.009-.888c-.378 0-.667-.125-.868-.375-.201-.25-.302-.623-.302-1.118 0-.489.102-.861.306-1.118.204-.256.495-.384.873-.384.372 0 .66.128.864.384.204.257.306.63.306 1.118 0 .495-.1.867-.301 1.118-.201.25-.494.375-.878.375zm6.53.815V3.084l1.71 3.955h.765l1.7-4v4h1.027V.595h-.918L39.19 5.636 36.986.596h-.918v6.443h1.026zm8.417.072c.456 0 .858-.096 1.206-.29.348-.192.616-.468.805-.827.19-.36.284-.78.284-1.263 0-.483-.095-.903-.284-1.262-.189-.36-.457-.635-.805-.828-.348-.193-.75-.29-1.206-.29-.462 0-.869.097-1.22.29-.35.193-.62.469-.81.828-.189.359-.283.78-.283 1.262 0 .483.094.904.283 1.263.19.359.46.635.81.828.351.193.758.29 1.22.29zm-.01-.887c-.377 0-.667-.125-.868-.375-.2-.25-.301-.623-.301-1.118 0-.489.102-.861.306-1.118.204-.256.495-.384.873-.384.372 0 .66.128.864.384.204.257.306.63.306 1.118 0 .495-.1.867-.302 1.118-.2.25-.493.375-.877.375zm4.224.815V4.45c0-.362.105-.654.315-.874.21-.22.486-.33.828-.33.288 0 .501.083.64.249.137.166.206.43.206.792v2.75h1.125V4.234c0-1.255-.543-1.882-1.629-1.882-.336 0-.637.075-.904.226-.267.151-.479.365-.635.643l-.08-.751h-1.054c.048.38.072.811.072 1.294v3.276h1.116zm6.284.072c.324 0 .644-.053.959-.158.315-.106.58-.246.796-.42l-.324-.78c-.426.327-.888.49-1.386.49-.432 0-.757-.117-.976-.349-.22-.232-.34-.593-.365-1.081h3.132V4.64c0-.712-.181-1.272-.544-1.68-.363-.406-.857-.61-1.48-.61-.427 0-.808.101-1.144.303-.336.202-.597.484-.783.846-.186.362-.279.776-.279 1.24 0 .736.213 1.315.64 1.738.425.422 1.01.633 1.754.633zm.855-2.905H54.75c.054-.338.176-.596.365-.774.189-.178.433-.267.733-.267s.536.088.707.263c.17.175.274.434.31.778zm1.578 4.896c.546-.084 1.005-.256 1.377-.516.372-.259.678-.672.918-1.24l2.115-4.877h-1.116l-1.332 3.285-1.305-3.285h-1.18l1.89 4.407-.143.335c-.132.29-.305.508-.518.656-.213.148-.532.27-.958.366l.252.87zm7.75-1.982c.625 0 1.165-.134 1.62-.402.457-.269.808-.652 1.054-1.15.246-.497.369-1.084.369-1.76 0-.67-.122-1.253-.365-1.751s-.594-.88-1.053-1.145c-.459-.265-1-.398-1.624-.398-.624 0-1.166.133-1.625.398-.459.266-.811.647-1.057 1.145-.246.498-.37 1.081-.37 1.751 0 .676.125 1.263.374 1.76.25.498.603.881 1.062 1.15.46.268.998.402 1.616.402zm0-.932c-.593 0-1.055-.205-1.385-.615-.33-.41-.495-.999-.495-1.765 0-.766.165-1.351.495-1.756.33-.404.792-.606 1.386-.606.594 0 1.056.204 1.386.61.33.408.495.992.495 1.752 0 .766-.165 1.355-.495 1.765-.33.41-.792.615-1.386.615zm6.231.85l1.098-2.995 1.125 2.996h.981l1.782-4.57h-1.098l-1.17 3.249-1.179-3.25h-.81L71.973 5.69l-1.17-3.221h-1.152l1.782 4.57h.99zm6.644 0V.379h-1.116v6.66h1.116z" transform="translate(-325 -139) translate(325 140) translate(0 -1) translate(70 9.05) translate(.5 31.172)"/>
                                <g>
                                    <g>
                                        <g>
                                            <g>
                                                <g transform="translate(-325 -139) translate(325 140) translate(0 -1) translate(70 9.05) translate(.5 31.172) translate(9 19.106) translate(11) translate(.57 .025) translate(0 .154)">
                                                    <mask id="mmmcsc1x4d" fill="#fff">
                                                        <use xlink:href="#hstrlvfr7c"/>
                                                    </mask>
                                                    <use fill="#005960" xlink:href="#hstrlvfr7c"/>
                                                    <g mask="url(#mmmcsc1x4d)">
                                                        <g>
                                                            <path fill="#008181" d="M45.442 27.884C45.09 40.178 35.425 50.03 23.552 50.03c-11.872 0-21.538-9.853-21.89-22.147z" transform="translate(-8.406 9.097) rotate(45 23.552 38.957)"/>
                                                            <g>
                                                                <path fill="#FF9445" d="M31.446 17.6c-.151 5.487-4.497 9.888-9.836 9.888-5.34 0-9.685-4.4-9.836-9.889z" transform="translate(-8.406 9.097) translate(15.16) rotate(-30 21.61 22.544)"/>
                                                                <g>
                                                                    <g transform="translate(-8.406 9.097) translate(15.16)">
                                                                        <mask id="w02jlsk8sf" fill="#fff">
                                                                            <use xlink:href="#pr2f7az0ce"/>
                                                                        </mask>
                                                                        <path fill="#00BCBC" d="M21.662 31.64V10.872c0-.402-.021-.798-.063-1.188-.172-1.61-.033-3.235.365-4.803.074-.292.142-.594.206-.908.164-.808-.672-1.434-1.365-1.02-.311.186-.635.366-.958.526-.412.204-.9.114-1.22-.22C16.71 1.248 14.041 0 11.094 0S5.48 1.249 3.561 3.257c-.32.335-.808.425-1.22.221-.322-.16-.644-.34-.955-.525-.694-.414-1.53.212-1.365 1.02.064.311.131.612.204.902.397 1.568.538 3.192.365 4.802-.043.392-.064.79-.064 1.195v5.382c0 6.84 3.98 12.74 9.682 15.386h-7.58H24.89h-3.228z" mask="url(#w02jlsk8sf)"/>
                                                                    </g>
                                                                    <path fill="#FFF" d="M15.442 5.34c-2 0-3.703 1.312-4.348 3.15-.644-1.838-2.347-3.15-4.347-3.15-2.554 0-4.625 2.14-4.625 4.78 0 5.441.508 9.853 8.972 9.853 7.995 0 8.972-4.412 8.972-9.853 0-2.64-2.07-4.78-4.624-4.78" opacity=".901" transform="translate(-8.406 9.097) translate(15.16)"/>
                                                                </g>
                                                            </g>
                                                        </g>
                                                    </g>
                                                </g>
                                                <path fill="#FF9445" d="M18.848 25.048l1.113-2.155c.125-.24.088-.543-.089-.739l-1.64-1.813c-.225-.25-.607-.25-.833 0l-1.64 1.813c-.176.196-.213.498-.089.739l1.114 2.155c.442.857 1.621.857 2.064 0" transform="translate(-325 -139) translate(325 140) translate(0 -1) translate(70 9.05) translate(.5 31.172) translate(9 19.106) translate(11) translate(.57 .025)"/>
                                            </g>
                                            <g fill="#007F7E">
                                                <path d="M11.931 1.98h-.924c0-.319-.077-1.06-.786-1.06-.71 0-.786.741-.786 1.06h-.924C8.51.795 9.198 0 10.22 0s1.71.795 1.71 1.98M3.42 1.98h-.924c0-.319-.076-1.06-.786-1.06-.709 0-.786.741-.786 1.06H0C0 .795.687 0 1.71 0s1.71.795 1.71 1.98" transform="translate(-325 -139) translate(325 140) translate(0 -1) translate(70 9.05) translate(.5 31.172) translate(9 19.106) translate(11) translate(.57 .025) translate(11.976 18.076)"/>
                                            </g>
                                        </g>
                                    </g>
                                    <g transform="translate(-325 -139) translate(325 140) translate(0 -1) translate(70 9.05) translate(.5 31.172) translate(9 19.106) translate(0 40.65)">
                                        <rect width="58" height="12.406" y="26.144" fill="#00C9C3" rx="2"/>
                                        <rect width="58" height="10.056" y="12.067" fill="#EFEFEF" rx="2"/>
                                        <rect width="58" height="10.056" fill="#EFEFEF" rx="2"/>
                                    </g>
                                </g>
                            </g>
                        </g>
                        <g transform="translate(-325 -139) translate(325 140) translate(0 -1) translate(70 9.05) translate(51)">
                            <mask id="zvd389n26h" fill="#fff">
                                <use xlink:href="#2uget9wygg"/>
                            </mask>
                            <g mask="url(#zvd389n26h)">
                                <g>
                                    <path fill="#FAB08A" d="M72.236 141.661c2.281-1.862 3.979-2.793 5.092-2.793 1.67 0 2.753.494 3.57 1.807.545.875.435 2.244-.332 4.107l-8.33-3.12z" transform="translate(-1 6.039)"/>
                                    <path fill="#F0A57E" d="M72.236 141.661c.947-.741 1.627-1.248 2.039-1.52 1.862.667 4.99 1.818 6.864 2.821-.07.362-.262.969-.573 1.82l-8.33-3.12z" transform="translate(-1 6.039)"/>
                                    <path fill="#FEC3A4" d="M102.5 145.297c-5 8.045-14.5 8.547-22.5 13.575-8 5.028-17.5 12.57-21.5 20.614-2.667 5.363-5.333 11.564-8 18.603H0l25.5-49.272c9-5.363 14-8.212 15-8.548 1.5-.502 67-3.016 62 5.028z" transform="translate(-1 6.039)"/>
                                    <path fill="#F0A57E" d="M81.5 157.867c-9.333 2.681-15 4.357-17 5.027-2 .67-7 1.509-15 2.514L34 198.088h16.5c5.667-14.077 10-22.624 13-25.64 3-3.017 9-7.878 18-14.581z" transform="translate(-1 6.039)"/>
                                    <path fill="#F0A57E" d="M47.72 145.88l-1.724 4.46c1.498.724 5.934.261 13.307-1.387 11.06-2.472 37.386 3.056 33.177-3.103-2.806-4.107-17.725-4.097-44.76.03z" transform="translate(-1 6.039) rotate(-7 69.464 146.724)"/>
                                    <g>
                                        <g transform="translate(-1 6.039) translate(28) rotate(-3 93.16 1.166)">
                                            <path fill="#005960" d="M19.188.336L71.735 3.05c6.697.346 11.841 5.978 11.49 12.578l-6.27 117.926c-.351 6.6-6.065 11.671-12.762 11.325l-52.547-2.714C4.95 141.82-.195 136.188.156 129.587L6.426 11.66C6.776 5.061 12.491-.01 19.188.336z"/>
                                            <path fill="#FFF" d="M19.518 5.099L71.256 7.77c4.912.254 8.684 4.384 8.427 9.224l-6.101 114.739c-.257 4.84-4.447 8.559-9.359 8.305l-51.738-2.673c-4.911-.253-8.684-4.383-8.427-9.224L10.16 13.404c.258-4.84 4.448-8.559 9.359-8.305z"/>
                                            <ellipse cx="33.73" cy="12.225" fill="#D7DDDC" rx="2.024" ry="1.995" transform="rotate(3 33.73 12.225)"/>
                                            <path fill="#D7DDDC" d="M38.644 11.28l13.743.71c.67.035 1.185.598 1.15 1.258-.036.66-.607 1.167-1.277 1.132l-13.743-.71c-.67-.034-1.184-.597-1.149-1.257.035-.66.607-1.167 1.276-1.133z"/>
                                        </g>
                                    </g>
                                    <path fill="#D0C4CA" d="M41.852 23.786h63v105.611c0 2.762-2.239 5-5 5h-53c-2.762 0-5-2.238-5-5V23.786z" transform="translate(-1 6.039)"/>
                                    <g>
                                        <g fill="#FF7900" fill-rule="nonzero">
                                            <path d="M13-1.006c.513 0 .936.389.993.889L14 0v13.072c0 .556-.448 1.006-1 1.006-.513 0-.936-.388-.993-.889L12 13.072V1.006H0c-.513 0-.936-.389-.993-.889L-1 0c0-.516.386-.94.883-.999L0-1.006h13z" transform="translate(-1 6.039) translate(48 55.3) matrix(-1 0 0 1 13 0)"/>
                                            <path d="M13 35.194c.513 0 .936.389.993.889L14 36.2v13.072c0 .556-.448 1.006-1 1.006-.513 0-.936-.388-.993-.889L12 49.272V37.206H0c-.513 0-.936-.389-.993-.889L-1 36.2c0-.516.386-.94.883-.999L0 35.194h13z" transform="translate(-1 6.039) translate(48 55.3) rotate(180 6.5 42.736)"/>
                                            <path d="M51-1.006c.513 0 .936.389.993.889L52 0v13.072c0 .556-.448 1.006-1 1.006-.513 0-.936-.388-.993-.889L50 13.072V1.006H38c-.513 0-.936-.389-.993-.889L37 0c0-.516.386-.94.883-.999L38-1.006h13z" transform="translate(-1 6.039) translate(48 55.3)"/>
                                            <path d="M51 35.194c.513 0 .936.389.993.889L52 36.2v13.072c0 .556-.448 1.006-1 1.006-.513 0-.936-.388-.993-.889L50 49.272V37.206H38c-.513 0-.936-.389-.993-.889L37 36.2c0-.516.386-.94.883-.999l.117-.007h13z" transform="translate(-1 6.039) translate(48 55.3) matrix(1 0 0 -1 0 85.472)"/>
                                        </g>
                                        <g>
                                            <path fill="#000" d="M.01 10.363h9.634V.54H.01v9.823zM1.4 8.959h6.86V1.955H1.4v7.004zM24.954 10.362h9.625V.542h-9.625v9.82zm1.372-1.403h6.88v-7.01h-6.88v7.01zM0 35.756h9.64v-9.79H0v9.79zm1.403-1.4h6.86v-7.018h-6.86v7.018z" transform="translate(-1 6.039) translate(48 55.3) translate(8 6.033)"/>
                                            <g transform="translate(-1 6.039) translate(48 55.3) translate(8 6.033) translate(0 .119)">
                                                <path fill="#000" d="M30.456 27.215l-.059-1.372h2.793v-2.856H31.83v-1.44h-1.4V20.12h1.38v-2.765h2.791v1.397h-1.366v1.359H34.6v7.094h-4.154c0 .002.009.011.009.011M4.142 21.549L4.142 20.141 1.396 20.141 1.396 24.372.008 24.372.008 17.336 2.741 17.336 2.729 17.324 2.729 18.73 4.141 18.73 4.141 17.324 4.131 17.334 6.906 17.334 6.906 20.122 5.533 20.122 5.533 21.548 5.543 21.538 4.131 21.538zM2.741 14.465l-1.316.028.009.006-.073-1.38H.003v-1.408H6.92v1.41h1.36l-.013-.012v1.368h2.815l-.01-.01v1.407H5.514v-1.408H4.13l.01.01V13.14H2.729v1.336l.012-.011zM15.22 8.834V7.483h5.539V4.608l-.012.01h1.413V3.18l-.008.01h1.372v4.263H22.15v1.38l.01-.01h-1.423v1.439h-1.39V8.855h-1.322v1.408c-.472-.004-.943-.008-1.414-.01l.01.009V8.823h-1.412l.011.01zM10.931 34.282v-1.423h4.207v-1.447l-.012.01h1.342v-1.438l-.008.01h1.411l-.011-.01v1.439h1.412l-.01-.01.012 2.868-1.412-.001v-1.407H16.47v1.408h-1.355v1.346h-1.391l.01.01V34.27h-2.815l.012.012zM12.029 22.907L12.029 24.315 7.902 24.315 7.902 17.275 9.305 17.275 9.292 17.264 9.292 21.489 10.635 21.489 10.625 21.478 10.625 22.917 12.037 22.917z"/>
                                                <path fill="#000" d="M18.042 1.806L19.322 1.806 19.322.429 23.519.429 23.519 1.821 22.151 1.821 22.151 3.191 22.16 3.18 20.748 3.18 20.748 4.619 20.759 4.608 19.343 4.608 19.343 3.206 18.042 3.206 18.051 3.213 18.051 1.8zM12.486 10.251L11.081 10.251 11.081 7.479 12.446 7.479 12.446 6.054 11.084 6.054 11.084 4.642 15.176 4.642 15.176 6.038 13.808 6.038 13.808 8.833 13.816 8.823 12.474 8.823 12.474 10.262z"/>
                                                <g transform="translate(30.227 32.418)">
                                                    <mask id="9s06wdlo3j" fill="#fff">
                                                        <use xlink:href="#ez1ifmic8i"/>
                                                    </mask>
                                                    <path fill="#000" d="M3 0.407L3 1.835 4.373 1.835 4.373 3.242 0.207 3.242 0.207 1.834 0.195 1.845 1.608 1.845 1.608 0.406 1.597 0.417 3.01 0.417z" mask="url(#9s06wdlo3j)"/>
                                                </g>
                                                <path fill="#000" d="M29.116 13.134c-.011.686-.024 1.372-.033 2.058-.004.223 0 .445 0 .688h-1.39v-1.397h-1.389l.012.013v-2.788h1.348v1.435h1.46l-.008-.01zM31.836 31.478L31.836 30.07 34.599 30.07 34.599 32.825 33.227 32.825 33.237 32.835 33.237 31.468 31.825 31.468zM18.042 3.206c-.013.639-.027 1.278-.036 1.916-.005.294-.002 3.097-.002 3.41h-1.376v-5.32h1.422l-.008-.006M22.143 22.927c-.012.64-.027 1.277-.036 1.916-.005.294-.001 3.097-.001 3.41h-1.377v-5.32h1.422l-.008-.006M22.15 8.833h1.404v2.858l.008-.01-1.412.009.01-2.867-.01.01zM2.741 17.335v-2.87l-.012.011H4.14l-.01-.01v2.868l.01-.01H2.729l.012.011z"/>
                                                <mask id="p3ogobewvl" fill="#fff">
                                                    <use xlink:href="#9a7c78pjzk"/>
                                                </mask>
                                                <path fill="#000" d="M13.806 3.155L15.177 3.155 15.177.428 13.806.428zM33.26 13.086L31.844 13.086 31.844 11.709 33.252 11.709 33.252 13.095zM18.05 1.8h-1.42V.424h1.41v1.383c.002 0 .01-.007.01-.007M5.535 22.967L5.535 24.374 4.143 24.374 4.143 22.966 4.131 22.977 5.543 22.977zM30.442 15.878L31.788 15.878 31.788 14.482 30.442 14.482zM1.425 14.493l-.06 1.388H.012V14.5h1.421l-.008-.006" mask="url(#p3ogobewvl)"/>
                                                <path fill="#000" d="M4.143 22.966L2.739 22.966 2.739 21.549 4.143 21.549 4.131 21.538 4.131 22.977zM29.124 13.143V11.71h1.271v1.422h-1.28l.01.011M30.435 32.836v-1.358h1.401l-.011-.01v1.367l.01-.01h-1.412l.012.011zM11.087 3.168L12.441 3.168 12.441 1.847 11.087 1.847zM27.335 25.92v-1.442l-.012.012 1.343-.01.014 1.414.008-.009-1.365.024.012.011zM33.253 13.095h1.343v1.358H33.26v-1.367l-.007.009M24.866 33.888L22.076 33.888 22.076 32.481 28.97 32.481 28.97 33.871 26.268 33.871 26.268 35.219 24.866 35.219z" mask="url(#p3ogobewvl)"/>
                                                <path fill="#000" d="M27.594 35.572L29.007 35.572 29.007 28.238 27.594 28.238zM13.729 27.944L10.94 27.944 10.94 26.537 17.834 26.537 17.834 27.928 15.131 27.928 15.131 29.276 13.729 29.276zM15.32 19.299L12.531 19.299 12.531 17.893 19.425 17.893 19.425 19.283 16.722 19.283 16.722 20.631 15.32 20.631z" mask="url(#p3ogobewvl)"/>
                                                <path fill="#000" d="M16.458 29.628L17.87 29.628 17.87 22.294 16.458 22.294zM25.237 31.814L26.649 31.814 26.649 30.407 25.237 30.407zM20.73 30.463L22.142 30.463 22.142 29.056 20.73 29.056zM23.505 13.047L24.917 13.047 24.917 11.68 23.505 11.68zM28.68 25.894h1.344v1.43h-1.336v-1.439l-.008.01M10.919 32.21L12.261 32.21 12.261 30.771 10.919 30.771zM28.655 24.49L30.027 24.49 30.027 23.123 28.655 23.123zM20.748 13.119L22.16 13.119 22.16 11.68 20.748 11.68zM18.013 10.252h1.342v1.406h-1.342v-1.406zM31.797 29.338L33.143 29.338 33.143 28.013 31.797 28.013zM18.096 15.787h1.412v1.44h-1.412v-1.44zM24.46 27.597h1.412v1.438H24.46v-1.438zM12.596 24.316L14.008 24.316 14.008 22.877 12.596 22.877zM6.898 7.44H2.766V3.256c.04-.012.082-.036.126-.036 1.249-.003 2.498-.008 3.747.004.086 0 .247.121.248.188.014 1.33.01 2.66.01 4.028M27.708 7.435L31.804 7.435 31.804 3.239 27.708 3.239zM2.767 32.815L6.88 32.815 6.88 28.638 2.767 28.638zM14 13.93c-.01.687-.023 1.373-.033 2.06-.003.222 0 .445 0 .687h-1.39V15.28l-1.388.001.011.012v-2.788h1.35v1.435h1.459L14 13.93zM15.327 16.675L16.673 16.675 16.673 15.28 15.327 15.28zM14.009 13.94v-1.433h1.27v1.422H14l.01.011M18.145 13.883L16.729 13.883 16.729 12.506 18.137 12.506 18.137 13.892z" mask="url(#p3ogobewvl)"/>
                                                <path fill="#000" d="M18.137 13.892h1.344v1.358h-1.337v-1.367l-.007.009M20.152 33.424L21.498 33.424 21.498 32.029 20.152 32.029zM22.154 15.157L22.154 13.748 24.917 13.748 24.917 16.505 23.546 16.505 23.555 16.514 23.555 15.146 22.143 15.146zM27.112 17.306h3.918v1.358h-3.897l.001-1.367-.022.01" mask="url(#p3ogobewvl)"/>
                                                <path fill="#000" d="M20.204 24.267v-1.351h5.539v-2.874l-.011.01h1.412v-1.439l-.009.01h1.373v4.264h-1.374v1.38l.01-.01H25.72v1.439h-1.389v-1.408h-1.322v1.409l-1.414-.012.01.01v-1.439h-1.412l.011.011zM24.522 27.597c-.012.639-.026 1.277-.036 1.916-.005.294 0 3.096 0 3.41h-1.377v-5.32h1.421l-.008-.006" mask="url(#p3ogobewvl)"/>
                                                <path fill="#000" d="M24.909 19.334c-.012.686-.024 1.372-.034 2.058-.003.223 0 .446 0 .688h-1.39v-1.397h-1.388l.011.013v-2.788h1.35v1.435h1.46l-.01-.01zM10.95 21.232L12.296 21.232 12.296 19.836 10.95 19.836zM33.222 16.909L34.569 16.909 34.569 15.514 33.222 15.514zM17.979 21.531L19.326 21.531 19.326 20.136 17.979 20.136zM20.747 13.722h1.404v2.858l.008-.01-1.412.01.01-2.868-.01.01zM17.439 27.946L17.439 26.538 20.201 26.538 20.201 29.293 18.83 29.293 18.84 29.303 18.84 27.935 17.428 27.935z" mask="url(#p3ogobewvl)"/>
                                            </g>
                                        </g>
                                    </g>
                                    <path fill="#FEC3A4" d="M39 55.3c5.5 0 8.5 14.078 5.5 20.614-3 6.536-7.5 18.603-6 28.658 5.553 7.578 13 11.061 16 22.122 3.448 12.714 2.615 22.1-2.5 28.156l-41 26.647c4.418-22.747 6.418-40.847 6-54.3-.5-16.089 3.5-37.708 9.5-48.266C30.422 72.029 36 55.299 39 55.299z" transform="translate(-1 6.039)"/>
                                    <path fill="#E65A5A" d="M41.852 23.786H104.852V37.864000000000004H41.852z" transform="translate(-1 6.039)"/>
                                    <path fill="#FF7900" fill-rule="nonzero" d="M99 79.936c.552 0 1 .45 1 1.006 0 .515-.386.94-.883.998l-.117.007H49c-.552 0-1-.45-1-1.005 0-.516.386-.941.883-1l.117-.006h50z" transform="translate(-1 6.039)"/>
                                    <path fill="#F0A57E" d="M39.639 90.494c-.366 5.094.042 9.397 1.223 12.912 1.087 3.237 3.79 9.019 2.656 8.11-3.542-2.84-5.162-5.957-5.608-9.327-.393-2.974.183-6.872 1.729-11.695z" transform="translate(-1 6.039)"/>
                                </g>
                            </g>
                        </g>
                    </g>
                </g>
            </g>
        </g>
    </g>
</svg>
