<svg xmlns="http://www.w3.org/2000/svg" xmlns:xlink="http://www.w3.org/1999/xlink" width="138" height="111" viewBox="0 0 138 111">
    <defs>
        <path id="a" d="M.07.337h66.78v62.584H.07z"/>
        <path id="c" d="M.162.108h72.384v87.36H.162z"/>
        <path id="e" d="M.049.108h55.443v87.36H.05z"/>
        <path id="g" d="M.017.317H80.58v102.209H.017z"/>
        <path id="i" d="M.353.317H69v102.209H.353z"/>
    </defs>
    <g fill="none" fill-rule="evenodd">
        <g transform="matrix(-1 0 0 1 67 48)">
            <mask id="b" fill="#fff">
                <use xlink:href="#a"/>
            </mask>
            <path fill="#005960" d="M62.746 50.208c6.037-6.998 5.33-17.626-1.58-23.74a16.49 16.49 0 0 0-11.011-4.154c-.301 0-.582.074-.879.088.559-1.663.855-3.404.879-5.16C50.155 7.905 42.68.337 33.46.337S16.765 7.905 16.765 17.242c.024 1.756.32 3.497.878 5.16-.297 0-.577-.088-.878-.088C7.59 22.269.116 29.766.071 39.057a16.95 16.95 0 0 0 4.103 11.15c-5.726 6.61-5.426 16.58.688 22.823-6.454 6.668-6.348 17.372.237 23.907a16.59 16.59 0 0 0 11.666 4.832h33.39c9.22-.01 16.686-7.587 16.675-16.924a17.02 17.02 0 0 0-4.772-11.815c6.114-6.244 6.414-16.214.688-22.822" mask="url(#b)"/>
        </g>
        <g transform="matrix(-1 0 0 1 101.714 13.058)">
            <mask id="d" fill="#fff">
                <use xlink:href="#c"/>
            </mask>
            <path fill="#59C09C" d="M.162 79.52S9.158 15.84 51.491.108c41.332 35.294 9.065 87.481 9.065 87.481l-45.608 32.762L.162 79.521z" mask="url(#d)"/>
        </g>
        <g transform="matrix(-1 0 0 1 87.291 13.058)">
            <mask id="f" fill="#fff">
                <use xlink:href="#e"/>
            </mask>
            <path fill="#006769" d="M.794 34.716l18.227 21.9L36.075.499c.33-.13.659-.266.993-.391.164.14.315.28.475.42L28.41 30.583 52.48 19.63c.108.226.21.453.317.68l.274.605-25.209 11.472L12.64 82.475 55.492 64.6a86.422 86.422 0 0 1-.465 1.729L12.104 84.23l-10.81 35.566-.769.554-.476-1.314 18.479-60.802L.075 36.063c.236-.45.476-.898.719-1.347" mask="url(#f)"/>
        </g>
        <g transform="matrix(-1 0 0 1 157 -2)">
            <mask id="h" fill="#fff">
                <use xlink:href="#g"/>
            </mask>
            <path fill="#004966" d="M18.275 107.282S-19.395 43.489 13.481.317c89.509 26.138 63.623 114.305 63.623 114.305l-58.829-7.34z" mask="url(#h)"/>
        </g>
        <g transform="matrix(-1 0 0 1 157 -2)">
            <mask id="j" fill="#fff">
                <use xlink:href="#i"/>
            </mask>
            <path fill="#59C09C" d="M13.48.317c.311.091.615.186.925.278L38.649 84.49l29.42-45.801c.317.517.627 1.035.93 1.556L39.25 86.563l6.995 24.208-1.753-.218-13.947-48.26-30.028-9.54c-.06-.586-.115-1.172-.163-1.76l29.65 9.42L12.874 1.144c.203-.275.395-.553.605-.827" mask="url(#j)"/>
        </g>
    </g>
</svg>
