<svg width="344" height="30" viewBox="0 0 344 30" fill="none" xmlns="http://www.w3.org/2000/svg">
<mask id="mask0_6091_26046" style="mask-type:luminance" maskUnits="userSpaceOnUse" x="0" y="10" width="150" height="10">
<rect x="149.578" y="10" width="10" height="149.423" transform="rotate(90 149.578 10)" fill="white"/>
</mask>
<g mask="url(#mask0_6091_26046)">
<path d="M333.956 14.9471C333.956 15.433 333.618 15.8336 333.184 15.8884L333.082 15.8948L1.02982 16C0.547241 16.0001 0.155914 15.5761 0.155762 15.0528C0.15564 14.567 0.492859 14.1664 0.927429 14.1116L1.02933 14.1051L333.081 14C333.564 13.9998 333.955 14.4239 333.956 14.9471Z" fill="#008C8C"/>
</g>
<mask id="mask1_6091_26046" style="mask-type:luminance" maskUnits="userSpaceOnUse" x="194" y="10" width="150" height="10">
<rect x="343.155" y="10" width="10" height="148.424" transform="rotate(90 343.155 10)" fill="white"/>
</mask>
<g mask="url(#mask1_6091_26046)">
<path d="M526.299 14.9471C526.299 15.433 525.964 15.8336 525.532 15.8884L525.431 15.8948L195.6 16C195.121 16.0001 194.732 15.5761 194.732 15.0528C194.732 14.567 195.067 14.1664 195.498 14.1116L195.6 14.1051L525.43 14C525.91 13.9998 526.298 14.4239 526.299 14.9471Z" fill="#008C8C"/>
</g>
<circle cx="172.154" cy="15" r="15" fill="#008C8C"/>
<path fill-rule="evenodd" clip-rule="evenodd" d="M170.054 18.9115C169.395 19.2972 168.615 19.49 167.714 19.49C166.821 19.49 166.043 19.2972 165.38 18.9115C164.717 18.5258 164.206 17.9755 163.846 17.2605C163.487 16.5455 163.307 15.7027 163.307 14.732C163.307 13.77 163.484 12.9315 163.84 12.2165C164.195 11.5015 164.704 10.9533 165.367 10.572C166.03 10.1907 166.812 10 167.714 10C168.615 10 169.397 10.1907 170.06 10.572C170.723 10.9533 171.23 11.5015 171.581 12.2165C171.932 12.9315 172.108 13.77 172.108 14.732C172.108 15.7027 171.93 16.5455 171.575 17.2605C171.219 17.9755 170.712 18.5258 170.054 18.9115ZM165.711 17.267C166.188 17.8563 166.855 18.151 167.713 18.151C168.571 18.151 169.239 17.8563 169.715 17.267C170.192 16.6777 170.43 15.8327 170.43 14.732C170.43 13.64 170.192 12.8015 169.715 12.2165C169.239 11.6315 168.571 11.339 167.713 11.339C166.855 11.339 166.188 11.6293 165.711 12.21C165.235 12.7907 164.996 13.6313 164.996 14.732C164.996 15.8327 165.235 16.6777 165.711 17.267ZM175.365 19.373V15.525H177.042C177.389 15.525 177.671 15.5813 177.887 15.694C178.104 15.8067 178.264 16.006 178.368 16.292L179.551 19.373H181.319L180.188 16.409C179.946 15.759 179.551 15.3777 179.005 15.265C179.603 15.083 180.065 14.7775 180.39 14.3485C180.715 13.9195 180.877 13.3973 180.877 12.782C180.877 11.924 180.604 11.2653 180.058 10.806C179.512 10.3467 178.715 10.117 177.666 10.117H173.701V19.373H175.365ZM175.34 14.225H177.433C178.066 14.225 178.534 14.108 178.837 13.874C179.14 13.64 179.292 13.2847 179.292 12.808C179.292 12.34 179.142 11.9912 178.843 11.7615C178.544 11.5318 178.074 11.417 177.433 11.417H175.34V14.225Z" fill="#98DFDF"/>
</svg>
