<svg xmlns="http://www.w3.org/2000/svg" width="96" height="100" viewBox="0 0 96 100">
    <g fill="none" fill-rule="evenodd">
        <path fill="#005150" d="M47.852 4.297c26.427 0 47.851 21.424 47.851 47.851C95.703 78.576 74.28 100 47.852 100 21.424 100 0 78.576 0 52.148 0 25.721 21.424 4.297 47.852 4.297"/>
        <path fill="#FFF" d="M40.195 74.009a7.218 7.218 0 0 1 6.088 3.324.195.195 0 0 0 .31.023 10.599 10.599 0 0 1 7.936-3.58c1.033 0 2.03.151 2.975.428l-3.486-8.934H41.685l-3.524 9.032a7.208 7.208 0 0 1 2.034-.293"/>
        <path fill="#9DE9E9" d="M36.443 83.24a.196.196 0 0 0 .223.165 13.119 13.119 0 0 1 11.052 3.366.195.195 0 0 0 .267 0 13.118 13.118 0 0 1 11.052-3.366l.03.002a.195.195 0 0 0 .194-.166c.36-2.43 1.275-4.73 2.646-6.738a10.746 10.746 0 0 0-7.378-2.923 10.756 10.756 0 0 0-8.081 3.647 7.428 7.428 0 0 0-6.253-3.414 7.425 7.425 0 0 0-6.087 3.167 16.154 16.154 0 0 1 2.335 6.26"/>
        <path fill="#008181" d="M36.636 83.212C35.46 75.3 28.64 69.229 20.402 69.229c-5.72 0-10.754 2.927-13.693 7.363a48.066 48.066 0 0 0 18.818 17.885c.833-5.775 5.36-10.352 11.109-11.265M75.301 69.23c-8.239 0-15.058 6.07-16.234 13.982 5.749.913 10.276 5.49 11.11 11.265a48.069 48.069 0 0 0 18.817-17.885c-2.939-4.436-7.973-7.363-13.693-7.363"/>
        <path fill="#00BCBC" d="M56.955 83.042a13.31 13.31 0 0 0-9.103 3.586 13.31 13.31 0 0 0-9.104-3.586c-6.726 0-12.29 4.97-13.222 11.437A47.637 47.637 0 0 0 47.852 100c8.063 0 15.66-1.998 22.325-5.52-.932-6.468-6.496-11.438-13.222-11.438"/>
        <path fill="#FF9600" d="M32.834 38.226c0-1.593.06-3.181.171-4.758-4.7 2.646-7.937 8.541-7.937 15.367 0 3.604.897 7.042 2.592 9.941a.864.864 0 0 0 1.073.364 19.012 19.012 0 0 1 7.08-1.399c-1.95-6.001-2.98-12.704-2.98-19.515M62.698 33.468a67.37 67.37 0 0 1 .171 4.758c0 6.811-1.028 13.513-2.978 19.515 2.47.02 4.85.488 7.079 1.399a.861.861 0 0 0 1.073-.364c1.695-2.899 2.591-6.337 2.591-9.941 0-6.826-3.237-12.72-7.936-15.367M40.373 59.985v4.503c0 .537.44.977.976.977h13.005a.98.98 0 0 0 .976-.977v-4.503H40.373"/>
        <path fill="#E6F8F8" d="M59.737 17.64H35.966c-2.179 6.28-3.328 13.348-3.328 20.586 0 7.524 1.248 14.92 3.609 21.387a.864.864 0 0 0 .812.568h21.585a.864.864 0 0 0 .812-.568c2.36-6.468 3.609-13.863 3.609-21.387 0-7.238-1.15-14.306-3.328-20.586"/>
        <path fill="#FF9600" d="M42.222 17.64v3.241c0 .537.44.977.977.977h9.305a.98.98 0 0 0 .977-.977v-3.24H42.222"/>
        <path fill="#FF9600" d="M47.852 0a.863.863 0 0 0-.544.193C42.945 3.726 39.27 9.085 36.68 15.69c-.275.703-.534 1.42-.782 2.145h23.907a52.838 52.838 0 0 0-.783-2.145C56.433 9.085 52.758 3.726 48.395.193A.862.862 0 0 0 47.852 0"/>
        <path fill="#007F7E" d="M47.852 25.373c5.503 0 9.964 4.461 9.964 9.965 0 5.503-4.46 9.965-9.964 9.965-5.504 0-9.965-4.462-9.965-9.965 0-5.504 4.461-9.965 9.965-9.965"/>
        <path fill="#00BCBC" d="M47.852 28.945a6.393 6.393 0 1 1 0 12.786 6.393 6.393 0 0 1 0-12.786"/>
        <path fill="#FFF" d="M19.363 34.91a.554.554 0 0 1-.512-.342c-1.09-2.633-1.895-3.437-4.527-4.527a.554.554 0 0 1 0-1.024c2.633-1.09 3.436-1.894 4.527-4.527a.554.554 0 0 1 1.023 0c1.09 2.633 1.895 3.437 4.527 4.527a.554.554 0 0 1 0 1.024c-2.632 1.09-3.436 1.894-4.527 4.527a.554.554 0 0 1-.511.342M73.138 18.764a.568.568 0 0 1-.524-.35c-1.117-2.697-1.94-3.52-4.636-4.637a.567.567 0 0 1 0-1.048c2.696-1.117 3.52-1.94 4.636-4.636a.567.567 0 0 1 1.049 0c1.117 2.696 1.94 3.52 4.636 4.636a.567.567 0 0 1 0 1.048c-2.696 1.117-3.52 1.94-4.637 4.637a.567.567 0 0 1-.524.35"/>
    </g>
</svg>
