<?xml version="1.0" encoding="UTF-8"?>
<svg width="80px" height="80px" viewBox="0 0 80 80" version="1.1" xmlns="http://www.w3.org/2000/svg" xmlns:xlink="http://www.w3.org/1999/xlink">
    <!-- Generator: Sketch 51.2 (57519) - http://www.bohemiancoding.com/sketch -->
    <title>icon4</title>
    <desc>Created with Sketch.</desc>
    <defs>
        <circle id="path-1" cx="40" cy="40" r="40"></circle>
        <path d="M17.3784946,6.2949879 C18.6243663,2.71772722 21.9165041,0.161647342 25.7825144,0.161647342 C30.7181582,0.161647342 34.7193982,4.32819516 34.7193982,9.46737954 C34.7193982,20.060285 32.8298423,28.6478626 17.3784946,28.6478626 C1.01886138,28.6478626 0.0373468596,20.060285 0.0373468596,9.46737954 C0.0373468596,4.32819516 4.03883097,0.161647342 8.97496296,0.161647342 C12.8407291,0.161647342 16.1326229,2.71772722 17.3784946,6.2949879 Z" id="path-3"></path>
        <path d="M3.830603,0.605515997 L0.434255342,4.18381874 C0.068015897,4.5691471 -0.00810958772,5.16629191 0.249566022,5.64091295 L2.55661293,9.89499895 C3.47273474,11.5844571 5.91502864,11.5844571 6.83141206,9.89499895 L9.13845896,5.64091295 C9.39613457,5.16629191 9.32000909,4.5691471 8.95350804,4.18381874 L5.55820678,0.605515997 C5.32381354,0.358946433 5.00884762,0.235407979 4.69414329,0.235407979 C4.37917737,0.235407979 4.06421145,0.358946433 3.830603,0.605515997 Z" id="path-5"></path>
        <path d="M0.240950675,3.62452627 L2.19592521,3.62452627 C2.19592521,3.0510502 2.35783792,1.716954 3.85776867,1.716954 C5.35744362,1.716954 5.51910055,3.0510502 5.51910055,3.62452627 L7.47407508,3.62452627 C7.47407508,1.49113043 6.02095323,0.0579034805 3.85776867,0.0579034805 C1.69432831,0.0579034805 0.240950675,1.49113043 0.240950675,3.62452627 Z" id="path-7"></path>
        <filter x="-25.6%" y="-19.5%" width="151.3%" height="143.9%" filterUnits="objectBoundingBox" id="filter-9">
            <feOffset dx="0" dy="2" in="SourceAlpha" result="shadowOffsetOuter1"></feOffset>
            <feGaussianBlur stdDeviation="2" in="shadowOffsetOuter1" result="shadowBlurOuter1"></feGaussianBlur>
            <feColorMatrix values="0 0 0 0 0   0 0 0 0 0   0 0 0 0 0  0 0 0 0.5 0" type="matrix" in="shadowBlurOuter1" result="shadowMatrixOuter1"></feColorMatrix>
            <feMerge>
                <feMergeNode in="shadowMatrixOuter1"></feMergeNode>
                <feMergeNode in="SourceGraphic"></feMergeNode>
            </feMerge>
        </filter>
    </defs>
    <g id="Latest" stroke="none" stroke-width="1" fill="none" fill-rule="evenodd">
        <g id="1024px---homepage-copy-5" transform="translate(-627.000000, -2569.000000)">
            <g id="icon4" transform="translate(627.000000, 2569.000000)">
                <mask id="mask-2" fill="white">
                    <use xlink:href="#path-1"></use>
                </mask>
                <use id="Mask" fill="#005960" fill-rule="nonzero" xlink:href="#path-1"></use>
                <g id="Group-61" stroke-width="1" fill-rule="evenodd" mask="url(#mask-2)">
                    <g transform="translate(18.000000, 17.000000)">
                        <path d="M22.9976788,46 C10.3266333,46 1.08993828,39.9146853 1.08993828,33.373045 L1.08993828,22.3223364 C1.08993828,21.4930318 1.13470512,20.6748127 1.22214445,19.8692628 C1.58080277,16.5628658 1.2896874,13.228755 0.467391202,10.0091949 C0.315550452,9.4140065 0.176014038,8.79638306 0.0435460728,8.15632459 C-0.297833821,6.4982432 1.43576868,5.21231952 2.87328171,6.06273949 C3.51703414,6.44360728 4.18618062,6.81286163 4.85454171,7.14120504 C5.70720607,7.5606083 6.7198268,7.3761131 7.38269021,6.6877533 C11.3598707,2.56366516 16.8884448,0 22.9976788,0 C29.1066511,0 34.636796,2.56419304 38.6134529,6.68933695 C39.2765781,7.37796069 40.2884134,7.56192801 41.1410778,7.14331657 C41.8112714,6.81418134 42.4819887,6.44492699 43.1265265,6.06273949 C44.5650867,5.21231952 46.2984274,6.49903502 45.9562621,8.15685247 C45.8235323,8.80139796 45.6829488,9.42324446 45.529799,10.022392 C44.7061939,13.2416882 44.4171728,16.5765908 44.773475,19.8840435 C44.8598672,20.6843146 44.9043722,21.4983106 44.9043722,22.3223364 C44.8171074,25.3283819 44.773475,29.0119515 44.773475,33.373045 C44.773475,39.9146853 35.6687243,46 22.9976788,46 Z" id="Clip-11" stroke="none" fill="#138887" fill-rule="evenodd"></path>
                        <g id="Group-15" stroke="none" stroke-width="1" fill="none" fill-rule="evenodd" transform="translate(5.000000, 11.000000)">
                            <mask id="mask-4" fill="white">
                                <use xlink:href="#path-3"></use>
                            </mask>
                            <use id="Clip-14" fill="#DAF5F5" xlink:href="#path-3"></use>
                        </g>
                        <g id="Group-29" stroke="none" stroke-width="1" fill="none" fill-rule="evenodd" transform="translate(18.000000, 22.000000)">
                            <mask id="mask-6" fill="white">
                                <use xlink:href="#path-5"></use>
                            </mask>
                            <use id="Clip-28" stroke="#00AAA8" xlink:href="#path-5"></use>
                        </g>
                        <g id="Group-32" stroke="none" stroke-width="1" fill="none" fill-rule="evenodd" transform="translate(27.000000, 18.000000)">
                            <mask id="mask-8" fill="white">
                                <use xlink:href="#path-7"></use>
                            </mask>
                            <use id="Clip-31" stroke="#00AAA8" stroke-linecap="round" stroke-linejoin="round" xlink:href="#path-7"></use>
                        </g>
                        <circle id="Oval-3" stroke="#00AAA8" stroke-width="1" fill="none" fill-rule="nonzero" cx="29" cy="5" r="2"></circle>
                        <circle id="Oval-3-Copy-10" stroke="#00AAA8" stroke-width="1" fill="none" fill-rule="nonzero" cx="25.5" cy="8.5" r="3.5"></circle>
                        <circle id="Oval-3-Copy" stroke="#00AAA8" stroke-width="1" fill="none" fill-rule="nonzero" cx="34.5" cy="7.5" r="2.5"></circle>
                        <path d="M12,11 L12,8.46153846 L22,1" id="Path-7" stroke="#00AAA8" stroke-width="1" fill="none" stroke-linecap="round" stroke-linejoin="round" stroke-dasharray="2,3" fill-rule="nonzero"></path>
                        <path d="M19,23 L19,12.8461538 L22,11" id="Path-7-Copy-3" stroke="#00AAA8" stroke-width="1" fill="none" stroke-linecap="round" stroke-linejoin="round" stroke-dasharray="2,3" fill-rule="nonzero" transform="translate(20.500000, 17.000000) scale(1, -1) translate(-20.500000, -17.000000) "></path>
                        <path d="M27,26 L27,16.6923077 L38,15" id="Path-7-Copy-4" stroke="#00AAA8" stroke-width="1" fill="none" stroke-linecap="round" stroke-linejoin="round" stroke-dasharray="2,3" fill-rule="nonzero" transform="translate(32.500000, 20.500000) scale(-1, -1) translate(-32.500000, -20.500000) "></path>
                        <path d="M5,32 L14.8421053,39 L22,39" id="Path-7-Copy" stroke="#00AAA8" stroke-width="1" fill="none" stroke-linecap="round" stroke-linejoin="round" stroke-dasharray="2,3" fill-rule="nonzero" transform="translate(13.500000, 35.500000) scale(-1, -1) translate(-13.500000, -35.500000) "></path>
                        <path d="M9,45 L9,42.1923077 L17,37" id="Path-7-Copy-2" stroke="#00AAA8" stroke-width="1" fill="none" stroke-linecap="round" stroke-linejoin="round" stroke-dasharray="2,3" fill-rule="nonzero" transform="translate(13.000000, 41.000000) scale(1, -1) translate(-13.000000, -41.000000) "></path>
                        <circle id="Oval-3-Copy-5" stroke="#00AAA8" stroke-width="1" fill="#FF902C" fill-rule="nonzero" transform="translate(13.000000, 21.000000) rotate(-180.000000) translate(-13.000000, -21.000000) " cx="13" cy="21" r="3"></circle>
                    </g>
                </g>
                <g id="Group-60" filter="url(#filter-9)" stroke-width="1" fill-rule="evenodd" mask="url(#mask-2)">
                    <g transform="translate(37.000000, 36.000000)">
                        <g id="Group-59" stroke-width="1" fill="none" fill-rule="evenodd" transform="translate(19.500000, 19.500000) rotate(-45.000000) translate(-19.500000, -19.500000) translate(6.000000, 6.000000)">
                            <path d="M13.5,22.95 C14.7659642,22.95 15.9737864,22.7010645 17.077187,22.2494732 C18.9802017,21.4706219 20.5726114,20.0889653 21.6169962,18.3419233 C22.4635216,16.9258596 22.95,15.2697414 22.95,13.5 C22.95,8.28090911 18.7190909,4.05 13.5,4.05 C8.28090911,4.05 4.05,8.28090911 4.05,13.5" id="Oval-6" stroke="#29CAC5" stroke-width="3" stroke-linecap="round" stroke-linejoin="round" fill-rule="nonzero" transform="translate(13.500000, 13.500000) rotate(-45.000000) translate(-13.500000, -13.500000) "></path>
                            <circle id="Oval-3-Copy-7" fill="#FF902C" fill-rule="nonzero" transform="translate(13.500000, 13.500000) rotate(-180.000000) translate(-13.500000, -13.500000) " cx="13.5" cy="13.5" r="5.4"></circle>
                        </g>
                        <path d="M27.485169,26.6220412 C27.2963976,26.5442082 27.0965221,26.4997322 26.8855423,26.4997322 L26.0416231,26.4997322 L26.0416231,19.2569743 C26.0416231,18.3340968 25.2976417,17.5891235 24.3759932,17.5891235 C23.4543446,17.5891235 22.7103633,18.3340968 22.7103633,19.2569743 C22.7103633,27.7815448 22.7103633,32.04383 22.7103633,32.04383 C22.7103633,32.04383 21.5999433,31.7658549 20.4895234,30.9319295 C19.3791035,30.0980041 17.6690567,30.2981462 17.1582636,30.9319295 C17.1582636,31.6731965 17.5284036,32.4144635 18.2686835,33.1557305 C19.0089635,33.8969975 20.37478,35.2164528 22.3661331,37.1140963 C22.6659465,37.4143095 23.0879061,37.6033325 23.5431782,37.6033325 L31.0829296,37.6033325 C31.9157446,37.6033325 32.5597882,36.9917873 32.6819344,36.1800999 L33.8145627,29.820029 C33.8256669,29.742196 33.8367711,29.664363 33.8367711,29.5976489 C33.8367711,28.9082706 33.4148115,28.3078443 32.826289,28.0632262 L27.485169,26.6220412 Z" id="Shape" fill="#00A7A7" fill-rule="nonzero" transform="translate(25.497517, 27.596228) scale(-1, 1) rotate(43.000000) translate(-25.497517, -27.596228) "></path>
                    </g>
                </g>
            </g>
        </g>
    </g>
</svg>