<?xml version="1.0" encoding="UTF-8"?>
<svg width="240px" height="296px" viewBox="0 0 240 296" version="1.1" xmlns="http://www.w3.org/2000/svg" xmlns:xlink="http://www.w3.org/1999/xlink">
    <!-- Generator: sketchtool 51.2 (57519) - http://www.bohemiancoding.com/sketch -->
    <title>5C121DA6-6A0A-4766-9369-A001718CB599</title>
    <desc>Created with sketchtool.</desc>
    <defs>
        <path d="M29.3651408,0.20856266 C13.1591335,0.20856266 0.0215302231,13.5375486 0.0215302231,29.9794731 C0.0215302231,46.4213977 13.1591335,59.749679 29.3651408,59.749679 C45.5718426,59.749679 58.7101404,46.4213977 58.7101404,29.9794731" id="path-1"></path>
        <path d="M29.3651408,0.20856266 C13.1591335,0.20856266 0.0215302231,13.5375486 0.0215302231,29.9794731 C0.0215302231,46.4213977 13.1591335,59.749679 29.3651408,59.749679 C45.5718426,59.749679 58.7101404,46.4213977 58.7101404,29.9794731" id="path-3"></path>
        <path d="M29.3651408,0.20856266 C13.1591335,0.20856266 0.0215302231,13.5375486 0.0215302231,29.9794731 C0.0215302231,46.4213977 13.1591335,59.749679 29.3651408,59.749679 C45.5718426,59.749679 58.7101404,46.4213977 58.7101404,29.9794731 C58.7101404,13.5375486 45.5718426,0.20856266 29.3651408,0.20856266 Z" id="path-5"></path>
        <path d="M29.3651408,0.20856266 C13.1591335,0.20856266 0.0215302231,13.5375486 0.0215302231,29.9794731 C0.0215302231,46.4213977 13.1591335,59.749679 29.3651408,59.749679 C45.5718426,59.749679 58.7101404,46.4213977 58.7101404,29.9794731 C58.7101404,13.5375486 45.5718426,0.20856266 29.3651408,0.20856266 Z" id="path-7"></path>
        <path d="M29.3651408,0.20856266 C13.1591335,0.20856266 0.0215302231,13.5375486 0.0215302231,29.9794731 C0.0215302231,46.4213977 13.1591335,59.749679 29.3651408,59.749679 C45.5718426,59.749679 58.7101404,46.4213977 58.7101404,29.9794731" id="path-9"></path>
        <path d="M29.3651408,0.20856266 C13.1591335,0.20856266 0.0215302231,13.5375486 0.0215302231,29.9794731 C0.0215302231,46.4213977 13.1591335,59.749679 29.3651408,59.749679 C45.5718426,59.749679 58.7101404,46.4213977 58.7101404,29.9794731 C58.7101404,13.5375486 45.5718426,0.20856266 29.3651408,0.20856266 Z" id="path-11"></path>
        <path d="M29.3651408,0.20856266 C13.1591335,0.20856266 0.0215302231,13.5375486 0.0215302231,29.9794731 C0.0215302231,46.4213977 13.1591335,59.749679 29.3651408,59.749679 C45.5718426,59.749679 58.7101404,46.4213977 58.7101404,29.9794731 C58.7101404,13.5375486 45.5718426,0.20856266 29.3651408,0.20856266 Z" id="path-13"></path>
        <path d="M29.3651408,0.20856266 C13.1591335,0.20856266 0.0215302231,13.5375486 0.0215302231,29.9794731 C0.0215302231,46.4213977 13.1591335,59.749679 29.3651408,59.749679 C45.5718426,59.749679 58.7101404,46.4213977 58.7101404,29.9794731" id="path-15"></path>
        <path d="M29.3651408,0.20856266 C13.1591335,0.20856266 0.0215302231,13.5375486 0.0215302231,29.9794731 C0.0215302231,46.4213977 13.1591335,59.749679 29.3651408,59.749679 C45.5718426,59.749679 58.7101404,46.4213977 58.7101404,29.9794731 C58.7101404,13.5375486 45.5718426,0.20856266 29.3651408,0.20856266 Z" id="path-17"></path>
        <path d="M29.3651408,0.20856266 C13.1591335,0.20856266 0.0215302231,13.5375486 0.0215302231,29.9794731 C0.0215302231,46.4213977 13.1591335,59.749679 29.3651408,59.749679 C45.5718426,59.749679 58.7101404,46.4213977 58.7101404,29.9794731" id="path-19"></path>
        <path d="M29.3651408,0.20856266 C13.1591335,0.20856266 0.0215302231,13.5375486 0.0215302231,29.9794731 C0.0215302231,46.4213977 13.1591335,59.749679 29.3651408,59.749679 C45.5718426,59.749679 58.7101404,46.4213977 58.7101404,29.9794731" id="path-21"></path>
        <path d="M29.3651408,0.20856266 C13.1591335,0.20856266 0.0215302231,13.5375486 0.0215302231,29.9794731 C0.0215302231,46.4213977 13.1591335,59.749679 29.3651408,59.749679 C45.5718426,59.749679 58.7101404,46.4213977 58.7101404,29.9794731" id="path-23"></path>
        <path d="M29.3651408,0.20856266 C13.1591335,0.20856266 0.0215302231,13.5375486 0.0215302231,29.9794731 C0.0215302231,46.4213977 13.1591335,59.749679 29.3651408,59.749679 C45.5718426,59.749679 58.7101404,46.4213977 58.7101404,29.9794731" id="path-25"></path>
        <path d="M29.3651408,0.20856266 C13.1591335,0.20856266 0.0215302231,13.5375486 0.0215302231,29.9794731 C0.0215302231,46.4213977 13.1591335,59.749679 29.3651408,59.749679 C45.5718426,59.749679 58.7101404,46.4213977 58.7101404,29.9794731" id="path-27"></path>
        <path d="M29.3651408,0.20856266 C13.1591335,0.20856266 0.0215302231,13.5375486 0.0215302231,29.9794731 C0.0215302231,46.4213977 13.1591335,59.749679 29.3651408,59.749679 C45.5718426,59.749679 58.7101404,46.4213977 58.7101404,29.9794731" id="path-29"></path>
        <path d="M29.3651408,0.20856266 C13.1591335,0.20856266 0.0215302231,13.5375486 0.0215302231,29.9794731 C0.0215302231,46.4213977 13.1591335,59.749679 29.3651408,59.749679 C45.5718426,59.749679 58.7101404,46.4213977 58.7101404,29.9794731" id="path-31"></path>
        <path d="M29.3651408,0.20856266 C13.1591335,0.20856266 0.0215302231,13.5375486 0.0215302231,29.9794731 C0.0215302231,46.4213977 13.1591335,59.749679 29.3651408,59.749679 C45.5718426,59.749679 58.7101404,46.4213977 58.7101404,29.9794731" id="path-33"></path>
        <path d="M29.3651408,0.20856266 C13.1591335,0.20856266 0.0215302231,13.5375486 0.0215302231,29.9794731 C0.0215302231,46.4213977 13.1591335,59.749679 29.3651408,59.749679 C45.5718426,59.749679 58.7101404,46.4213977 58.7101404,29.9794731" id="path-35"></path>
        <path d="M29.3651408,0.20856266 C13.1591335,0.20856266 0.0215302231,13.5375486 0.0215302231,29.9794731 C0.0215302231,46.4213977 13.1591335,59.749679 29.3651408,59.749679 C45.5718426,59.749679 58.7101404,46.4213977 58.7101404,29.9794731" id="path-37"></path>
        <path d="M29.3651408,0.20856266 C13.1591335,0.20856266 0.0215302231,13.5375486 0.0215302231,29.9794731 C0.0215302231,46.4213977 13.1591335,59.749679 29.3651408,59.749679 C45.5718426,59.749679 58.7101404,46.4213977 58.7101404,29.9794731" id="path-39"></path>
        <polygon id="path-41" points="0.420603327 0.20856266 58.7570901 0.20856266 58.7570901 59.3912472 0.420603327 59.3912472"></polygon>
        <path d="M29.3963943,0.20856266 C13.3758247,0.31284399 0.420186613,13.5213427 0.420186613,29.7997992 C0.420186613,46.1423747 13.4793087,59.3910358 29.5880828,59.3910358 C45.6982458,59.3910358 58.757368,46.1423747 58.757368,29.7997992 C58.757368,13.5213427 45.8017298,0.31284399 29.7797712,0.20856266 L29.3963943,0.20856266 Z" id="path-43"></path>
        <path d="M29.3963943,0.20856266 C13.3758247,0.31284399 0.420186613,13.5213427 0.420186613,29.7997992 C0.420186613,46.1423747 13.4793087,59.3910358 29.5880828,59.3910358 C45.6982458,59.3910358 58.757368,46.1423747 58.757368,29.7997992 C58.757368,13.5213427 45.8017298,0.31284399 29.7797712,0.20856266 L29.3963943,0.20856266 Z" id="path-45"></path>
        <path d="M29.3963943,0.20856266 C13.3758247,0.31284399 0.420186613,13.5213427 0.420186613,29.7997992 C0.420186613,46.1423747 13.4793087,59.3910358 29.5880828,59.3910358 C45.6982458,59.3910358 58.757368,46.1423747 58.757368,29.7997992 C58.757368,13.5213427 45.8017298,0.31284399 29.7797712,0.20856266 L29.3963943,0.20856266 Z" id="path-47"></path>
        <path d="M29.3963943,0.20856266 C13.3758247,0.31284399 0.420186613,13.5213427 0.420186613,29.7997992 C0.420186613,46.1423747 13.4793087,59.3910358 29.5880828,59.3910358 C45.6982458,59.3910358 58.757368,46.1423747 58.757368,29.7997992 C58.757368,13.5213427 45.8017298,0.31284399 29.7797712,0.20856266 L29.3963943,0.20856266 Z" id="path-49"></path>
        <path d="M29.3963943,0.20856266 C13.3758247,0.31284399 0.420186613,13.5213427 0.420186613,29.7997992 C0.420186613,46.1423747 13.4793087,59.3910358 29.5880828,59.3910358 C45.6982458,59.3910358 58.757368,46.1423747 58.757368,29.7997992 C58.757368,13.5213427 45.8017298,0.31284399 29.7797712,0.20856266 L29.3963943,0.20856266 Z" id="path-51"></path>
        <path d="M29.3963943,0.20856266 C13.3758247,0.31284399 0.420186613,13.5213427 0.420186613,29.7997992 C0.420186613,46.1423747 13.4793087,59.3910358 29.5880828,59.3910358 C45.6982458,59.3910358 58.757368,46.1423747 58.757368,29.7997992 C58.757368,13.5213427 45.8017298,0.31284399 29.7797712,0.20856266" id="path-53"></path>
        <path d="M29.3963943,0.20856266 C13.3758247,0.31284399 0.420186613,13.5213427 0.420186613,29.7997992 C0.420186613,46.1423747 13.4793087,59.3910358 29.5880828,59.3910358 C45.6982458,59.3910358 58.757368,46.1423747 58.757368,29.7997992 C58.757368,13.5213427 45.8017298,0.31284399 29.7797712,0.20856266 L29.3963943,0.20856266 Z" id="path-55"></path>
        <path d="M29.3963943,0.20856266 C13.3758247,0.31284399 0.420186613,13.5213427 0.420186613,29.7997992 C0.420186613,46.1423747 13.4793087,59.3910358 29.5880828,59.3910358 C45.6982458,59.3910358 58.757368,46.1423747 58.757368,29.7997992 C58.757368,13.5213427 45.8017298,0.31284399 29.7797712,0.20856266" id="path-57"></path>
        <path d="M29.3963943,0.20856266 C13.3758247,0.31284399 0.420186613,13.5213427 0.420186613,29.7997992 C0.420186613,46.1423747 13.4793087,59.3910358 29.5880828,59.3910358 C45.6982458,59.3910358 58.757368,46.1423747 58.757368,29.7997992 C58.757368,13.5213427 45.8017298,0.31284399 29.7797712,0.20856266" id="path-59"></path>
        <path d="M29.3963943,0.20856266 C13.3758247,0.31284399 0.420186613,13.5213427 0.420186613,29.7997992 C0.420186613,46.1423747 13.4793087,59.3910358 29.5880828,59.3910358 C45.6982458,59.3910358 58.757368,46.1423747 58.757368,29.7997992 C58.757368,13.5213427 45.8017298,0.31284399 29.7797712,0.20856266" id="path-61"></path>
        <path d="M29.3963943,0.20856266 C13.3758247,0.31284399 0.420186613,13.5213427 0.420186613,29.7997992 C0.420186613,46.1423747 13.4793087,59.3910358 29.5880828,59.3910358 C45.6982458,59.3910358 58.757368,46.1423747 58.757368,29.7997992 C58.757368,13.5213427 45.8017298,0.31284399 29.7797712,0.20856266" id="path-63"></path>
        <path d="M29.3963943,0.20856266 C13.3758247,0.31284399 0.420186613,13.5213427 0.420186613,29.7997992 C0.420186613,46.1423747 13.4793087,59.3910358 29.5880828,59.3910358 C45.6982458,59.3910358 58.757368,46.1423747 58.757368,29.7997992 C58.757368,13.5213427 45.8017298,0.31284399 29.7797712,0.20856266" id="path-65"></path>
        <path d="M29.3963943,0.20856266 C13.3758247,0.31284399 0.420186613,13.5213427 0.420186613,29.7997992 C0.420186613,46.1423747 13.4793087,59.3910358 29.5880828,59.3910358 C45.6982458,59.3910358 58.757368,46.1423747 58.757368,29.7997992 C58.757368,13.5213427 45.8017298,0.31284399 29.7797712,0.20856266" id="path-67"></path>
        <path d="M29.3963943,0.20856266 C13.3758247,0.31284399 0.420186613,13.5213427 0.420186613,29.7997992 C0.420186613,46.1423747 13.4793087,59.3910358 29.5880828,59.3910358 C45.6982458,59.3910358 58.757368,46.1423747 58.757368,29.7997992 C58.757368,13.5213427 45.8017298,0.31284399 29.7797712,0.20856266" id="path-69"></path>
        <path d="M29.3963943,0.20856266 C13.3758247,0.31284399 0.420186613,13.5213427 0.420186613,29.7997992 C0.420186613,46.1423747 13.4793087,59.3910358 29.5880828,59.3910358 C45.6982458,59.3910358 58.757368,46.1423747 58.757368,29.7997992 C58.757368,13.5213427 45.8017298,0.31284399 29.7797712,0.20856266" id="path-71"></path>
        <path d="M29.3963943,0.20856266 C13.3758247,0.31284399 0.420186613,13.5213427 0.420186613,29.7997992 C0.420186613,46.1423747 13.4793087,59.3910358 29.5880828,59.3910358 C45.6982458,59.3910358 58.757368,46.1423747 58.757368,29.7997992 C58.757368,13.5213427 45.8017298,0.31284399 29.7797712,0.20856266 L29.3963943,0.20856266 Z" id="path-73"></path>
        <path d="M29.3963943,0.20856266 C13.3758247,0.31284399 0.420186613,13.5213427 0.420186613,29.7997992 C0.420186613,46.1423747 13.4793087,59.3910358 29.5880828,59.3910358 C45.6982458,59.3910358 58.757368,46.1423747 58.757368,29.7997992 C58.757368,13.5213427 45.8017298,0.31284399 29.7797712,0.20856266" id="path-75"></path>
        <path d="M29.3963943,0.20856266 C13.3758247,0.31284399 0.420186613,13.5213427 0.420186613,29.7997992 C0.420186613,46.1423747 13.4793087,59.3910358 29.5880828,59.3910358 C45.6982458,59.3910358 58.757368,46.1423747 58.757368,29.7997992 C58.757368,13.5213427 45.8017298,0.31284399 29.7797712,0.20856266 L29.3963943,0.20856266 Z" id="path-77"></path>
        <path d="M29.3963943,0.20856266 C13.3758247,0.31284399 0.420186613,13.5213427 0.420186613,29.7997992 C0.420186613,46.1423747 13.4793087,59.3910358 29.5880828,59.3910358 C45.6982458,59.3910358 58.757368,46.1423747 58.757368,29.7997992 C58.757368,13.5213427 45.8017298,0.31284399 29.7797712,0.20856266" id="path-79"></path>
        <path d="M29.3963943,0.20856266 C13.3758247,0.31284399 0.420186613,13.5213427 0.420186613,29.7997992 C0.420186613,46.1423747 13.4793087,59.3910358 29.5880828,59.3910358 C45.6982458,59.3910358 58.757368,46.1423747 58.757368,29.7997992 C58.757368,13.5213427 45.8017298,0.31284399 29.7797712,0.20856266 L29.3963943,0.20856266 Z" id="path-81"></path>
        <path d="M0.504192288,39.9004549 C0.504192288,61.9328166 18.2697184,79.7932716 40.184816,79.7932716 C62.099223,79.7932716 79.8654398,61.9328166 79.8654398,39.9004549 C79.8654398,17.8673989 62.099223,0.00624952741 40.184816,0.00624952741 C18.2697184,0.00624952741 0.504192288,17.8673989 0.504192288,39.9004549 Z" id="path-83"></path>
        <path d="M0.504192288,39.9004549 C0.504192288,61.9328166 18.2697184,79.7932716 40.184816,79.7932716 C62.099223,79.7932716 79.8654398,61.9328166 79.8654398,39.9004549 C79.8654398,17.8673989 62.099223,0.00624952741 40.184816,0.00624952741 C18.2697184,0.00624952741 0.504192288,17.8673989 0.504192288,39.9004549" id="path-85"></path>
        <path d="M0.504192288,39.9004549 C0.504192288,61.9328166 18.2697184,79.7932716 40.184816,79.7932716 C62.099223,79.7932716 79.8654398,61.9328166 79.8654398,39.9004549 C79.8654398,17.8673989 62.099223,0.00624952741 40.184816,0.00624952741 C18.2697184,0.00624952741 0.504192288,17.8673989 0.504192288,39.9004549 Z" id="path-87"></path>
        <path d="M0.504192288,39.9004549 C0.504192288,61.9328166 18.2697184,79.7932716 40.184816,79.7932716 C62.099223,79.7932716 79.8654398,61.9328166 79.8654398,39.9004549 C79.8654398,17.8673989 62.099223,0.00624952741 40.184816,0.00624952741 C18.2697184,0.00624952741 0.504192288,17.8673989 0.504192288,39.9004549 Z" id="path-89"></path>
        <path d="M0.504192288,39.9004549 C0.504192288,61.9328166 18.2697184,79.7932716 40.184816,79.7932716 C62.099223,79.7932716 79.8654398,61.9328166 79.8654398,39.9004549 C79.8654398,17.8673989 62.099223,0.00624952741 40.184816,0.00624952741 C18.2697184,0.00624952741 0.504192288,17.8673989 0.504192288,39.9004549" id="path-91"></path>
        <path d="M0.504192288,39.9004549 C0.504192288,61.9328166 18.2697184,79.7932716 40.184816,79.7932716 C62.099223,79.7932716 79.8654398,61.9328166 79.8654398,39.9004549 C79.8654398,17.8673989 62.099223,0.00624952741 40.184816,0.00624952741 C18.2697184,0.00624952741 0.504192288,17.8673989 0.504192288,39.9004549 Z" id="path-93"></path>
        <path d="M0.504192288,39.9004549 C0.504192288,61.9328166 18.2697184,79.7932716 40.184816,79.7932716 C62.099223,79.7932716 79.8654398,61.9328166 79.8654398,39.9004549 C79.8654398,17.8673989 62.099223,0.00624952741 40.184816,0.00624952741 C18.2697184,0.00624952741 0.504192288,17.8673989 0.504192288,39.9004549" id="path-95"></path>
        <path d="M0.504192288,39.9004549 C0.504192288,61.9328166 18.2697184,79.7932716 40.184816,79.7932716 C62.099223,79.7932716 79.8654398,61.9328166 79.8654398,39.9004549 C79.8654398,17.8673989 62.099223,0.00624952741 40.184816,0.00624952741 C18.2697184,0.00624952741 0.504192288,17.8673989 0.504192288,39.9004549" id="path-97"></path>
        <path d="M0.504192288,39.9004549 C0.504192288,61.9328166 18.2697184,79.7932716 40.184816,79.7932716 C62.099223,79.7932716 79.8654398,61.9328166 79.8654398,39.9004549 C79.8654398,17.8673989 62.099223,0.00624952741 40.184816,0.00624952741 C18.2697184,0.00624952741 0.504192288,17.8673989 0.504192288,39.9004549" id="path-99"></path>
        <path d="M0.504192288,39.9004549 C0.504192288,61.9328166 18.2697184,79.7932716 40.184816,79.7932716 C62.099223,79.7932716 79.8654398,61.9328166 79.8654398,39.9004549 C79.8654398,17.8673989 62.099223,0.00624952741 40.184816,0.00624952741 C18.2697184,0.00624952741 0.504192288,17.8673989 0.504192288,39.9004549" id="path-101"></path>
        <path d="M0.504192288,39.9004549 C0.504192288,61.9328166 18.2697184,79.7932716 40.184816,79.7932716 C62.099223,79.7932716 79.8654398,61.9328166 79.8654398,39.9004549 C79.8654398,17.8673989 62.099223,0.00624952741 40.184816,0.00624952741 C18.2697184,0.00624952741 0.504192288,17.8673989 0.504192288,39.9004549 Z" id="path-103"></path>
        <path d="M0.504192288,39.9004549 C0.504192288,61.9328166 18.2697184,79.7932716 40.184816,79.7932716 C62.099223,79.7932716 79.8654398,61.9328166 79.8654398,39.9004549 C79.8654398,17.8673989 62.099223,0.00624952741 40.184816,0.00624952741 C18.2697184,0.00624952741 0.504192288,17.8673989 0.504192288,39.9004549 Z" id="path-105"></path>
        <path d="M0.504192288,39.9004549 C0.504192288,61.9328166 18.2697184,79.7932716 40.184816,79.7932716 C62.099223,79.7932716 79.8654398,61.9328166 79.8654398,39.9004549 C79.8654398,17.8673989 62.099223,0.00624952741 40.184816,0.00624952741 C18.2697184,0.00624952741 0.504192288,17.8673989 0.504192288,39.9004549" id="path-107"></path>
        <path d="M0.504192288,39.9004549 C0.504192288,61.9328166 18.2697184,79.7932716 40.184816,79.7932716 C62.099223,79.7932716 79.8654398,61.9328166 79.8654398,39.9004549 C79.8654398,17.8673989 62.099223,0.00624952741 40.184816,0.00624952741 C18.2697184,0.00624952741 0.504192288,17.8673989 0.504192288,39.9004549 Z" id="path-109"></path>
        <path d="M0.504192288,39.9004549 C0.504192288,61.9328166 18.2697184,79.7932716 40.184816,79.7932716 C62.099223,79.7932716 79.8654398,61.9328166 79.8654398,39.9004549 C79.8654398,17.8673989 62.099223,0.00624952741 40.184816,0.00624952741 C18.2697184,0.00624952741 0.504192288,17.8673989 0.504192288,39.9004549" id="path-111"></path>
        <path d="M0.504192288,39.9004549 C0.504192288,61.9328166 18.2697184,79.7932716 40.184816,79.7932716 C62.099223,79.7932716 79.8654398,61.9328166 79.8654398,39.9004549 C79.8654398,17.8673989 62.099223,0.00624952741 40.184816,0.00624952741 C18.2697184,0.00624952741 0.504192288,17.8673989 0.504192288,39.9004549" id="path-113"></path>
        <path d="M0.504192288,39.9004549 C0.504192288,61.9328166 18.2697184,79.7932716 40.184816,79.7932716 C62.099223,79.7932716 79.8654398,61.9328166 79.8654398,39.9004549 C79.8654398,17.8673989 62.099223,0.00624952741 40.184816,0.00624952741 C18.2697184,0.00624952741 0.504192288,17.8673989 0.504192288,39.9004549" id="path-115"></path>
        <path d="M0.504192288,39.9004549 C0.504192288,61.9328166 18.2697184,79.7932716 40.184816,79.7932716 C62.099223,79.7932716 79.8654398,61.9328166 79.8654398,39.9004549 C79.8654398,17.8673989 62.099223,0.00624952741 40.184816,0.00624952741 C18.2697184,0.00624952741 0.504192288,17.8673989 0.504192288,39.9004549" id="path-117"></path>
        <path d="M0.504192288,39.9004549 C0.504192288,61.9328166 18.2697184,79.7932716 40.184816,79.7932716 C62.099223,79.7932716 79.8654398,61.9328166 79.8654398,39.9004549 C79.8654398,17.8673989 62.099223,0.00624952741 40.184816,0.00624952741 C18.2697184,0.00624952741 0.504192288,17.8673989 0.504192288,39.9004549" id="path-119"></path>
        <path d="M0.504192288,39.9004549 C0.504192288,61.9328166 18.2697184,79.7932716 40.184816,79.7932716 C62.099223,79.7932716 79.8654398,61.9328166 79.8654398,39.9004549 C79.8654398,17.8673989 62.099223,0.00624952741 40.184816,0.00624952741 C18.2697184,0.00624952741 0.504192288,17.8673989 0.504192288,39.9004549" id="path-121"></path>
        <path d="M0.504192288,39.9004549 C0.504192288,61.9328166 18.2697184,79.7932716 40.184816,79.7932716 C62.099223,79.7932716 79.8654398,61.9328166 79.8654398,39.9004549 C79.8654398,17.8673989 62.099223,0.00624952741 40.184816,0.00624952741 C18.2697184,0.00624952741 0.504192288,17.8673989 0.504192288,39.9004549" id="path-123"></path>
    </defs>
    <g id="Symbols" stroke="none" stroke-width="1" fill="none" fill-rule="evenodd">
        <g id="will_img" transform="translate(-134.000000, 0.000000)">
            <g id="Group-31" transform="translate(134.000000, 0.000000)">
                <g id="Group-23" transform="translate(77.000000, 118.000000)">
                    <g id="Group-47" transform="translate(0.000000, 58.982249)">
                        <path d="M116.848854,43.8172835 L110.853827,40.0558734 L129.562854,31.723508 L121.818668,14.1122492 C118.237165,6.60065713 108.990006,0.510541241 100.155406,0.506050006 L61.6435648,0.506050006 C52.8112131,0.510541241 43.5640545,6.60065713 39.982551,14.1122492 L32.239489,31.723508 L50.9473924,40.0558734 L44.9523648,43.8172835 L41.6294131,72.4376843 L80.9000476,71.8223849 L120.17293,72.4376843 L116.848854,43.8172835 Z" id="Fill-27" fill="#71D8B8"></path>
                        <path d="M129.562405,31.7229466 L133.422694,44.4657056 C136.239784,53.762564 133.232715,63.743213 125.633543,70.3239964 L108.111605,83.9930728 L102.476301,68.6959233 L112.168619,59.6662936 C115.352177,56.7009551 116.299826,52.2445262 114.572026,48.3764493 L110.853377,40.0564348 L129.562405,31.7229466 Z" id="Fill-29" fill="#FAB08A"></path>
                        <polygon id="Fill-31" fill="#FAB08A" points="53.061671 113.7593 37.4563883 115.875795 34.4504434 112.579228 35.9758986 106.604761 50.9741469 104.443354"></polygon>
                        <path d="M37.4566131,115.875571 L17.814551,118.294101 C17.814551,118.294101 -1.5183731,120.800211 1.26611655,110.160473 C3.9584269,99.8845251 21.3128683,104.44313 21.3128683,104.44313 L37.4566131,106.392326 C35.5152269,109.028681 35.42642,112.809179 37.2329097,115.539851 L37.4566131,115.875571 Z" id="Fill-33" fill="#D8D8D8"></path>
                        <path d="M1.2656669,110.160585 C2.35158414,106.024157 5.81168069,104.293908 9.55843241,103.699942 L9.55843241,118.358213 C4.69428759,117.810283 -0.235057241,115.899262 1.2656669,110.160585" id="Fill-35" fill="#D8D8D8"></path>
                        <path d="M32.4320538,31.7229466 L28.5717641,44.4657056 C25.7535503,53.762564 28.7606193,63.743213 36.3597917,70.3239964 L53.8817297,83.9930728 L59.5170331,68.6959233 L49.8247159,59.6662936 C46.6411572,56.7009551 45.6946331,52.2445262 47.421309,48.3764493 L51.1399572,40.0564348 L32.4320538,31.7229466 Z" id="Fill-37" fill="#FAB08A"></path>
                        <polygon id="Fill-39" fill="#FAB08A" points="110.417999 114.928144 126.285206 115.875795 129.288902 112.579228 127.763447 106.604761 112.766323 104.443354"></polygon>
                        <path d="M126.28543,115.875571 L145.927492,118.294101 C145.927492,118.294101 165.260417,120.800211 162.472554,110.160473 C159.783617,99.8845251 142.426927,104.44313 142.426927,104.44313 L126.28543,106.392326 C128.224568,109.028681 128.313375,112.809179 126.506886,115.539851 L126.28543,115.875571 Z" id="Fill-41" fill="#D8D8D8"></path>
                        <path d="M162.473004,110.160585 C161.390459,106.024157 157.930363,104.293908 154.183611,103.699942 L154.183611,118.358213 C159.044383,117.810283 163.974852,115.899262 162.473004,110.160585" id="Fill-43" fill="#D8D8D8"></path>
                    </g>
                    <polygon id="Fill-48" fill="#005960" points="51.5290323 148.508876 116.729032 148.508876 116.729032 109.538462 51.5290323 109.538462"></polygon>
                    <polygon id="Fill-50" fill="#C0ABC3" points="51.5290323 149.56213 116.729032 149.56213 116.729032 146.402367 51.5290323 146.402367"></polygon>
                    <path d="M80.9741935,124.810651 C80.9741935,126.264361 82.1517809,127.443787 83.6043669,127.443787 C85.0558118,127.443787 86.2322581,126.264361 86.2322581,124.810651 C86.2322581,123.35694 85.0558118,122.177515 83.6043669,122.177515 C82.1517809,122.177515 80.9741935,123.35694 80.9741935,124.810651" id="Fill-52" fill="#FFFFFF"></path>
                    <path d="M162.100976,137.663267 C174.975513,160.699048 45.3148484,174.840237 45.3148484,174.840237 L43.116129,164.579753 C43.116129,164.579753 146.225439,109.253856 162.100976,137.663267" id="Fill-53" fill="#1C2C57"></path>
                    <path d="M1.71302421,137.630081 C-9.26174288,161.550868 119.97442,175.893491 119.97442,175.893491 L120.935484,164.401485 C120.935484,164.401485 14.6862655,109.34663 1.71302421,137.630081" id="Fill-54" fill="#004472"></path>
                    <path d="M87.2804189,58.7585892 C86.1107979,55.0955291 83.9877053,44.2366864 83.9877053,44.2366864 L70.4580645,46.9681143 L70.4580645,58.8197914 C70.4580645,58.8197914 74.9467321,62.109972 78.7244106,62.1417064 C82.8510004,62.1768409 87.4274444,59.1700035 87.2804189,58.7585892" id="Fill-55" fill="#F79C82"></path>
                    <path d="M88.6189522,25.7666058 L85.9625701,10.5325444 L58.8903226,13.6503214 L60.5321381,31.2046408 C60.5321381,31.2046408 62.6241105,52.9256361 77.0336984,50.3428754 C92.6223772,47.5476654 89.3101828,25.5741779 88.6189522,25.7666058" id="Fill-56" fill="#FAB08A"></path>
                    <path d="M94.0780214,23.8032263 C93.7239849,21.9116925 94.219636,18.9576657 95.2109381,17.3143886 C99.8122884,9.68789746 92.8506949,7.47066912 90.4218923,6.81244725 C87.7368347,6.08362026 86.8837753,1.849591 83.277099,0.497844705 C77.7709888,-1.56564669 74.6689548,3.42795694 71.6826852,3.81286869 C68.6964156,4.19778044 65.7472356,0.964749492 62.2821738,4.30824328 C58.817112,7.64945949 60.2995695,10.7651948 59.419536,12.5656253 C58.5417503,14.369472 54.9272064,11.3471176 52.3005929,16.9898328 C50.3033776,21.2773853 52.5085191,23.7952548 55.2138074,25.2392432 C58.3630462,26.9189617 62.1270721,26.9189617 65.394323,25.4886387 C68.2209952,24.2484941 72.1277597,22.1724759 76.0749854,18.9132528 C77.1112446,18.0580199 85.2405965,17.4909014 85.9149517,18.6593021 C88.2043876,22.6234376 88.3909592,35.8106509 88.3909592,35.8106509 L88.6775602,35.4052409 C89.687969,33.9726403 90.817514,32.6334208 91.9953877,31.3408916 C93.2047314,30.0141988 94.7726072,27.4986069 94.0780214,23.8032263" id="Fill-57" fill="#004472"></path>
                </g>
                <g id="Group-25">
                    <path d="M145.477833,72.4995919 C145.477833,73.6603069 144.534224,74.6014493 143.369458,74.6014493 C142.204692,74.6014493 141.261084,73.6603069 141.261084,72.4995919 C141.261084,71.3388768 142.204692,70.3985507 143.369458,70.3985507 C144.534224,70.3985507 145.477833,71.3388768 145.477833,72.4995919" id="Fill-58" fill="#009792"></path>
                    <path d="M154.965517,64.6198847 C154.965517,67.2311139 152.842117,69.3478261 150.221995,69.3478261 C147.601874,69.3478261 145.477833,67.2311139 145.477833,64.6198847 C145.477833,62.0080165 147.601874,59.8913043 150.221995,59.8913043 C152.842117,59.8913043 154.965517,62.0080165 154.965517,64.6198847" id="Fill-59" fill="#009792"></path>
                    <path d="M212.945813,28.8952695 C212.945813,44.8535937 199.966235,57.7898551 183.955322,57.7898551 C167.945095,57.7898551 154.965517,44.8535937 154.965517,28.8952695 C154.965517,12.9369453 167.945095,0 183.955322,0 C199.966235,0 212.945813,12.9369453 212.945813,28.8952695" id="Fill-60" fill="#005960"></path>
                    <g id="Group-122" transform="translate(154.965517, 0.000000)">
                        <g id="Group-64">
                            <mask id="mask-2" fill="white">
                                <use xlink:href="#path-1"></use>
                            </mask>
                            <g id="Clip-63"></g>
                        </g>
                        <g id="Group-67">
                            <mask id="mask-4" fill="white">
                                <use xlink:href="#path-3"></use>
                            </mask>
                            <g id="Clip-66"></g>
                            <path d="M26.747274,49.7469857 C27.5959815,51.575432 33.4112253,74.6166737 33.4112253,74.6166737 L28.6009568,75.0577555 L19.959003,53.1826327 C19.959003,53.1826327 25.8985665,47.9185394 26.747274,49.7469857" id="Fill-65" fill="#FAE6BB" mask="url(#mask-4)"></path>
                        </g>
                        <g id="Group-70">
                            <mask id="mask-6" fill="white">
                                <use xlink:href="#path-5"></use>
                            </mask>
                            <g id="Clip-69"></g>
                            <polygon id="Fill-68" fill="#FAE6BB" mask="url(#mask-6)" points="29.9173563 80.0931345 28.60054 75.0580373 33.2913506 74.2625399 35.6548135 77.3416575"></polygon>
                        </g>
                        <g id="Group-73">
                            <mask id="mask-8" fill="white">
                                <use xlink:href="#path-7"></use>
                            </mask>
                            <g id="Clip-72"></g>
                            <path d="M43.8139346,85.3040303 L16.4531882,86.9098219 L15.316948,53.3009357 C15.1190088,47.7550009 17.7255549,43.8437464 23.192148,43.6429344 L36.0137431,43.2053756 C41.4810308,43.0045636 44.7626535,47.3280111 44.9605926,52.8739459 L43.8139346,85.3040303 Z" id="Fill-71" fill="#FFEDDC" mask="url(#mask-8)"></path>
                        </g>
                        <g id="Group-76">
                            <mask id="mask-10" fill="white">
                                <use xlink:href="#path-9"></use>
                            </mask>
                            <g id="Clip-75"></g>
                            <path d="M35.7204459,19.3843491 C35.1814958,19.2096074 34.6460183,19.128578 34.1410999,19.1257596 C34.114708,18.1949783 33.3917092,17.3804565 32.3950682,17.237422 C31.7991672,17.1514604 31.2289636,17.322679 30.8080824,17.6637072 C30.7712727,17.6933005 30.735852,17.7292353 30.7004313,17.7715115 C30.2934406,18.2626202 29.6246147,18.4253836 29.0863591,18.0864693 C28.5640776,17.7588286 27.9313668,17.5220818 27.2326763,17.4220281 C25.196334,17.1296176 23.3752938,18.1076074 23.1662423,19.6070038 C23.1488792,19.7246726 23.1467956,19.8416368 23.1502682,19.9578964 C22.9064905,19.8627749 22.6474333,19.7958376 22.3710131,19.7852685 C21.0312776,19.7338325 19.9040662,20.7949655 19.8526715,22.1548504 C19.8318358,22.7185332 20.0075502,23.2392353 20.3061952,23.6662251 C19.8464208,24.1298542 19.6297295,24.7160844 19.793637,25.2353772 C19.9547664,25.7469194 20.4506561,26.0625818 21.0653092,26.1358606 L21.0090528,32.8528465 L27.3312987,31.9706829 L27.2944889,33.4644425 L37.4143883,33.9478005 L37.7005319,25.6898465 C37.7026155,25.669413 37.7074772,25.6496841 37.7088662,25.628546 C37.7553993,25.0860013 37.7352581,24.5829143 37.6595551,24.1185806 C38.0866869,23.8522404 38.4020005,23.4851419 38.5450723,23.029968 C38.9756768,21.6609233 37.7109498,20.0283568 35.7204459,19.3843491" id="Fill-74" fill="#004472" mask="url(#mask-10)"></path>
                        </g>
                        <g id="Group-79">
                            <mask id="mask-12" fill="white">
                                <use xlink:href="#path-11"></use>
                            </mask>
                            <g id="Clip-78"></g>
                            <path d="M23.699914,35.5049744 L22.509501,35.4852455 C21.0128032,35.4591752 20.4044008,32.9979949 20.4044008,32.9979949 C20.0842256,31.8339898 20.8537574,30.6150256 21.8608162,30.6918274 L23.3227878,30.5135627 L23.699914,35.5049744 Z" id="Fill-77" fill="#FAB08A" mask="url(#mask-12)"></path>
                        </g>
                        <g id="Group-82">
                            <mask id="mask-14" fill="white">
                                <use xlink:href="#path-13"></use>
                            </mask>
                            <g id="Clip-81"></g>
                            <path d="M34.8088841,36.054072 L35.9965189,35.9751564 C37.4897441,35.8729889 37.977994,33.3857382 37.977994,33.3857382 C38.2405238,32.2062318 37.412652,31.0274301 36.4111494,31.1542587 L34.79291,31.2691091 L34.8088841,36.054072 Z" id="Fill-80" fill="#FAB08A" mask="url(#mask-14)"></path>
                        </g>
                        <g id="Group-85">
                            <mask id="mask-16" fill="white">
                                <use xlink:href="#path-15"></use>
                            </mask>
                            <g id="Clip-84"></g>
                            <path d="M29.4127851,47.862312 C27.0465441,47.8742903 25.1171583,45.937335 25.1060459,43.5353414 L25.0761814,37.4835013 L33.6479883,37.4398159 L33.6778528,43.4923606 C33.6889652,45.8936496 31.7797206,47.8496292 29.4127851,47.862312" id="Fill-83" fill="#FAB08A" mask="url(#mask-16)"></path>
                        </g>
                        <g id="Group-88">
                            <mask id="mask-18" fill="white">
                                <use xlink:href="#path-17"></use>
                            </mask>
                            <g id="Clip-87"></g>
                            <path d="M25.0991007,42.2179441 C26.4582828,42.676641 28.0070699,42.9352306 29.6517011,42.9267753 C31.0886699,42.9197293 32.4471575,42.7048252 33.6722966,42.3377267 L33.6424321,36.3077293 L25.0706252,36.3514147 L25.0991007,42.2179441 Z" id="Fill-86" fill="#F09C69" mask="url(#mask-18)"></path>
                        </g>
                        <g id="Group-91">
                            <mask id="mask-20" fill="white">
                                <use xlink:href="#path-19"></use>
                            </mask>
                            <g id="Clip-90"></g>
                            <path d="M25.1500092,24.5085786 C24.5554973,24.5233753 23.192148,25.0313945 23.1983987,26.7936081 L22.119804,28.8249802 L22.2628758,35.9203382 C22.4809561,37.9362091 25.8917602,40.7863306 25.8917602,40.7863306 C26.6765715,41.3267615 27.6391809,42.0341835 28.5872052,42.054617 C29.5359241,42.0757551 30.7346713,41.4303382 31.5410129,40.9230237 C31.5410129,40.9230237 35.6699541,38.8754457 36.2846072,36.5171375 L36.5735289,29.1455748 L35.4088133,27.6532244 C35.5095192,25.8635313 34.7267914,24.7136183 33.7343176,24.6938894 C31.1173537,24.6410441 27.7780855,24.4395275 25.1500092,24.5085786" id="Fill-89" fill="#FAB08A" mask="url(#mask-20)"></path>
                        </g>
                        <g id="Group-94">
                            <mask id="mask-22" fill="white">
                                <use xlink:href="#path-21"></use>
                            </mask>
                            <g id="Clip-93"></g>
                            <path d="M24.9628352,33.2700423 C24.5898762,33.2615871 24.2905366,32.9452201 24.2988709,32.566848 L24.301649,32.4400193 C24.3099833,32.0616472 24.6218243,31.757963 24.9947833,31.7664183 C25.3677423,31.7748735 25.6663873,32.0912405 25.6580531,32.4696127 L25.655275,32.5964413 C25.6469407,32.9748134 25.3357942,33.277793 24.9628352,33.2700423" id="Fill-92" fill="#7F2A1C" mask="url(#mask-22)"></path>
                        </g>
                        <g id="Group-97">
                            <mask id="mask-24" fill="white">
                                <use xlink:href="#path-23"></use>
                            </mask>
                            <g id="Clip-96"></g>
                            <path d="M33.3696234,33.4558463 C32.9966643,33.447391 32.6980193,33.1317286 32.7063536,32.7533565 L32.7091317,32.6258233 C32.7167714,32.2474512 33.0286124,31.9444716 33.4015714,31.9529269 C33.7745305,31.9613821 34.0731755,32.2770445 34.0655357,32.6554166 L34.0627576,32.7829499 C34.0544234,33.161322 33.7425824,33.4643015 33.3696234,33.4558463" id="Fill-95" fill="#7F2A1C" mask="url(#mask-24)"></path>
                        </g>
                        <g id="Group-100">
                            <mask id="mask-26" fill="white">
                                <use xlink:href="#path-25"></use>
                            </mask>
                            <g id="Clip-99"></g>
                            <path d="M33.9569817,30.6972528 C33.9319789,30.6965482 33.9069761,30.6944344 33.8819732,30.6902068 C33.4458126,30.623974 33.5604089,30.6563858 33.1221647,30.6373615 C32.6228024,30.6141096 32.4588949,30.6218602 31.9623108,30.6592042 C31.6831124,30.6803423 31.3247383,30.5429446 31.299041,30.2885827 C31.2740381,30.0349254 31.5851846,29.7601301 31.8692446,29.7389919 C32.4116673,29.6981249 32.624886,29.6861467 33.1673087,29.7143308 C34.3486929,29.7756313 34.6521996,30.0144919 34.575802,30.4020239 C34.530658,30.6296109 34.2090937,30.7028896 33.9569817,30.6972528" id="Fill-98" fill="#B75624" mask="url(#mask-26)"></path>
                        </g>
                        <g id="Group-103">
                            <mask id="mask-28" fill="white">
                                <use xlink:href="#path-27"></use>
                            </mask>
                            <g id="Clip-102"></g>
                            <path d="M24.4140923,30.3436123 C24.4384006,30.3464307 24.4634035,30.3471353 24.4891009,30.3464307 C24.9301232,30.3309294 24.9926303,30.3746148 25.43018,30.4070266 C25.9288477,30.4429614 26.0913662,30.4690317 26.5796161,30.5648578 C26.8553418,30.6191123 27.2262173,30.5246954 27.2803901,30.2745611 C27.3352574,30.0258361 27.0574481,29.7165151 26.7768607,29.661556 C26.2434668,29.5572747 26.0323317,29.5206353 25.4906035,29.4847005 C24.3106084,29.4071941 23.8015228,29.5840496 23.8327763,29.9772184 C23.8508339,30.2097376 24.1633694,30.3196558 24.4140923,30.3436123" id="Fill-101" fill="#B75624" mask="url(#mask-28)"></path>
                        </g>
                        <g id="Group-106">
                            <mask id="mask-30" fill="white">
                                <use xlink:href="#path-29"></use>
                            </mask>
                            <g id="Clip-105"></g>
                            <path d="M28.8301495,39.1594009 C27.7321081,39.136149 26.2687474,38.1172922 26.2951393,36.8997372 L31.570044,37.013883 C31.5443466,38.231438 30.1976659,39.1896988 28.8301495,39.1594009" id="Fill-104" fill="#FFFFFF" mask="url(#mask-30)"></path>
                        </g>
                        <g id="Group-109">
                            <mask id="mask-32" fill="white">
                                <use xlink:href="#path-31"></use>
                            </mask>
                            <g id="Clip-108"></g>
                            <path d="M21.5484891,30.7646834 L21.1908096,30.7667972 L21.1678903,24.4465031 L23.1875641,23.8482946 L23.2077053,29.0672934 C23.2111779,30.0001885 22.468038,30.7604558 21.5484891,30.7646834" id="Fill-107" fill="#004472" mask="url(#mask-32)"></path>
                        </g>
                        <g id="Group-112">
                            <mask id="mask-34" fill="white">
                                <use xlink:href="#path-33"></use>
                            </mask>
                            <g id="Clip-111"></g>
                            <path d="M37.0966439,31.1796244 L37.4536289,31.1817382 L37.4821043,24.8614441 L35.461736,24.2618265 L35.4388167,29.4808252 C35.4346496,30.4137203 36.177095,31.1739876 37.0966439,31.1796244" id="Fill-110" fill="#004472" mask="url(#mask-34)"></path>
                        </g>
                        <g id="Group-115">
                            <mask id="mask-36" fill="white">
                                <use xlink:href="#path-35"></use>
                            </mask>
                            <g id="Clip-114"></g>
                            <path d="M12.8913947,52.1656784 L8.69230669,66.3141183 C9.87716349,68.3567641 15.8160325,68.0784457 15.816727,68.0763318 L21.2388706,44.0556912 C21.2388706,44.0556912 20.0415124,44.2952564 19.4699197,44.5038191 C16.1785736,45.7044636 13.5463302,48.6807091 12.8913947,52.1656784" id="Fill-113" fill="#FFEDDC" mask="url(#mask-36)"></path>
                        </g>
                        <g id="Group-118">
                            <mask id="mask-38" fill="white">
                                <use xlink:href="#path-37"></use>
                            </mask>
                            <g id="Clip-117"></g>
                        </g>
                        <g id="Group-121">
                            <mask id="mask-40" fill="white">
                                <use xlink:href="#path-39"></use>
                            </mask>
                            <g id="Clip-120"></g>
                            <path d="M45.995224,51.3613029 L50.1936175,65.5104474 C50.1130528,65.7979257 45.964665,67.6432825 43.879706,67.2050191 L43.5963404,67.1451277 C43.5949514,67.1394909 37.6477482,43.2513157 37.6477482,43.2513157 C37.6477482,43.2513157 38.8444118,43.4908809 39.4166991,43.7001482 C42.7080451,44.9000881 45.3402885,47.8763336 45.995224,51.3613029" id="Fill-119" fill="#FFEDDC" mask="url(#mask-40)"></path>
                        </g>
                    </g>
                    <g id="Group-125" transform="translate(50.600985, 0.000000)">
                        <mask id="mask-42" fill="white">
                            <use xlink:href="#path-41"></use>
                        </mask>
                        <g id="Clip-124"></g>
                        <path d="M58.7570901,29.799306 C58.7570901,46.1425861 45.697968,59.3912472 29.5884995,59.3912472 C13.4797254,59.3912472 0.420603327,46.1425861 0.420603327,29.799306 C0.420603327,13.4567306 13.4797254,0.208069437 29.5884995,0.208069437 C45.697968,0.208069437 58.7570901,13.4567306 58.7570901,29.799306" id="Fill-123" fill="#005960" mask="url(#mask-42)"></path>
                    </g>
                    <g id="Group-186" transform="translate(50.600985, 0.000000)">
                        <g id="Group-128">
                            <mask id="mask-44" fill="white">
                                <use xlink:href="#path-43"></use>
                            </mask>
                            <g id="Clip-127"></g>
                            <path d="M29.7125413,33.1330674 C29.0930265,32.4439651 28.346414,31.8816914 27.4990955,31.5019101 L27.7782939,31.4039702 C28.183201,31.4420188 28.5964424,31.4638615 29.0284359,31.4511786 C30.2584367,31.4152439 31.3905097,31.1728602 32.3989576,30.7691224 C32.6566257,31.3821275 33.0455588,31.9218538 33.5254744,32.3629357 C33.3323969,32.7476492 33.1802963,33.167593 33.0788959,33.6171301 C32.0072464,32.9604395 30.8126663,32.7448308 29.7125413,33.1330674 Z M27.4942338,31.3757861 L27.4970119,31.5005009 C27.3247701,31.4236991 27.1483612,31.3560572 26.9691742,31.2947566 C27.141416,31.3264638 27.3157413,31.3539434 27.4942338,31.3757861 Z M23.7493641,29.9848986 C24.3855474,30.4309127 25.1120188,30.7860329 25.9128042,31.0368717 C25.5981852,30.9882541 25.2787044,30.9544331 24.9508894,30.9544331 C24.1389916,30.9544331 23.3645981,31.1157873 22.6520172,31.3983334 C22.7082736,30.8501518 22.6874379,30.3202899 22.601317,29.8298858 L23.7493641,29.9848986 Z M42.0660277,38.8769958 C42.4056497,37.6150508 42.3674509,36.1149497 41.8569762,34.6275316 C41.4645705,33.480437 40.8464448,32.5038564 40.1095555,31.759795 C40.6943442,30.9889587 41.0450785,30.0271748 41.0450785,28.9787247 C41.0450785,27.8696786 40.6554509,26.8536403 40.0074606,26.0623705 L36.6341608,20.2479817 C35.270117,17.6289702 32.2579693,16.7355329 28.7617389,16.8377004 C24.9515839,16.9490277 22.3936545,18.7986121 21.0011353,21.6769178 C20.9907174,21.6740994 16.9791507,29.8327042 16.8124651,30.7923743 C16.5596586,32.2509037 16.8846955,33.6255853 17.5479653,34.5056352 C16.3131028,34.857937 15.4067499,36.0057362 15.4067499,37.3712579 C15.4067499,38.4112528 15.9338931,39.3265329 16.7312058,39.8592132 C14.9587823,40.9957387 13.7780927,42.9961083 13.7780927,45.2811377 C13.7780927,48.8245891 16.6089697,51.6972579 20.1017275,51.6972579 C23.5944854,51.6972579 26.426057,48.8245891 26.426057,45.2811377 C26.426057,44.7188641 26.3475758,44.1777285 26.2142273,43.6584357 C27.0955774,43.4773526 27.9074752,43.1053219 28.6151945,42.5937797 C29.9632643,44.3433104 31.9183474,45.2050405 33.6414598,44.5976723 C34.956887,44.1333385 35.8556002,42.9143743 36.2028618,41.3748155 C37.0619872,41.9025636 37.9988991,42.140015 38.903863,42.0138909 C38.991373,43.5788155 40.2665178,44.8224408 41.8319734,44.8224408 C43.4529908,44.8224408 44.7677235,43.4886262 44.7677235,41.8433769 C44.7677235,40.2791569 43.578005,38.9981876 42.0660277,38.8769958 Z" id="Fill-126" fill="#7F2A1C" mask="url(#mask-44)"></path>
                        </g>
                        <g id="Group-131">
                            <mask id="mask-46" fill="white">
                                <use xlink:href="#path-45"></use>
                            </mask>
                            <g id="Clip-130"></g>
                            <path d="M21.2568587,41.4996008 L19.6990429,41.9625253 C17.0424912,43.0814358 15.1756125,45.5538898 14.8054316,48.4469921 L13.0420368,57.6596839 C12.5107265,60.4315944 12.3107038,63.2584639 12.4454413,66.0789921 L13.777537,84.5212862 C13.777537,84.5212862 17.7099281,85.3139652 19.655288,84.5212862 L19.2212109,79.9441813 L19.1455078,62.2445394 L21.2568587,41.4996008 Z" id="Fill-129" fill="#FFAB78" mask="url(#mask-46)"></path>
                        </g>
                        <g id="Group-134">
                            <mask id="mask-48" fill="white">
                                <use xlink:href="#path-47"></use>
                            </mask>
                            <g id="Clip-133"></g>
                            <path d="M38.5900774,40.857566 L40.1194178,41.4099752 C42.7099898,42.6789662 44.4337967,45.2549969 44.6428482,48.1657143 L45.887434,57.4636632 C46.2624766,60.2623486 46.3034535,63.0962642 46.0124482,65.9048141 L44.5740904,79.7199765 L43.9636044,85.9592412 C41.9703224,86.6201593 40.3694462,80.261112 38.4706194,79.3578102 L39.5374072,61.6905801 L38.5900774,40.857566 Z" id="Fill-132" fill="#FFAB78" mask="url(#mask-48)"></path>
                        </g>
                        <g id="Group-137">
                            <mask id="mask-50" fill="white">
                                <use xlink:href="#path-49"></use>
                            </mask>
                            <g id="Clip-136"></g>
                            <path d="M24.5375091,33.5796451 L23.4137704,33.6113523 C22.0011099,33.6501055 21.3253387,31.3538024 21.3253387,31.3538024 C20.9759935,30.2687129 21.6524592,29.0856835 22.6053452,29.1152769 L24.1367692,29.0786375 L24.5375091,33.5796451 Z" id="Fill-135" fill="#E89561" mask="url(#mask-50)"></path>
                        </g>
                        <g id="Group-140">
                            <mask id="mask-52" fill="white">
                                <use xlink:href="#path-51"></use>
                            </mask>
                            <g id="Clip-139"></g>
                            <path d="M34.4528019,33.6842788 L35.57029,33.5595639 C36.9753107,33.4010281 37.3336847,31.0328555 37.3336847,31.0328555 C37.5337074,29.9090128 36.703752,28.8316739 35.764062,28.9937327 L34.2416669,29.1705882 L34.4528019,33.6842788 Z" id="Fill-138" fill="#E89561" mask="url(#mask-52)"></path>
                        </g>
                        <g id="Group-143">
                            <mask id="mask-54" fill="white">
                                <use xlink:href="#path-53"></use>
                            </mask>
                            <g id="Clip-142"></g>
                            <path d="M30.0862643,44.9985212 C27.8526773,45.1098486 25.9545451,43.3638409 25.8448104,41.0985404 L25.5683901,35.388433 L33.6547252,34.9861043 L33.9311455,40.6962118 C34.0401856,42.9608077 32.3191568,44.8878985 30.0862643,44.9985212" id="Fill-141" fill="#FFAB78" mask="url(#mask-54)"></path>
                        </g>
                        <g id="Group-146">
                            <mask id="mask-56" fill="white">
                                <use xlink:href="#path-55"></use>
                            </mask>
                            <g id="Clip-145"></g>
                            <path d="M25.7841785,39.9513753 C27.0850207,40.326929 28.5567156,40.5051937 30.1089753,40.4283919 C31.4653793,40.36075 32.737746,40.1014559 33.8781533,39.7019457 L33.6031221,34.0136809 L25.516787,34.4167142 L25.7841785,39.9513753 Z" id="Fill-144" fill="#E89561" mask="url(#mask-56)"></path>
                        </g>
                        <g id="Group-149">
                            <mask id="mask-58" fill="white">
                                <use xlink:href="#path-57"></use>
                            </mask>
                            <g id="Clip-148"></g>
                            <path d="M25.0970866,22.2048772 C23.4128675,22.2464488 22.6794509,24.3997174 22.4280334,26.1217685 L22.8496091,34.0330575 C23.1385308,35.9256228 26.4736318,38.4706509 26.4736318,38.4706509 C27.2362184,38.9483721 28.1731304,39.5740601 29.0690655,39.5536266 C29.9650006,39.5331931 31.0692927,38.8736841 31.8096545,38.3621419 C31.8096545,38.3621419 35.6218931,36.2546726 36.1052813,34.0034642 L36.1080594,25.6264322 C36.1295896,23.9332698 34.8738914,21.9843363 33.2049519,22.0174527 C30.7324488,22.0674795 27.5793129,22.1435767 25.0970866,22.2048772" id="Fill-147" fill="#FAB08A" mask="url(#mask-58)"></path>
                        </g>
                        <g id="Group-152">
                            <mask id="mask-60" fill="white">
                                <use xlink:href="#path-59"></use>
                            </mask>
                            <g id="Clip-151"></g>
                            <path d="M25.3622556,31.4864793 C25.0101323,31.4949345 24.7149598,31.2088655 24.7073201,30.8516315 L24.704542,30.7318488 C24.6969022,30.3746148 24.9781842,30.0751583 25.331002,30.0667031 C25.6831254,30.0589524 25.9782978,30.3450215 25.985243,30.7022555 L25.9880211,30.8227427 C25.9963554,31.1792721 25.7150734,31.4787286 25.3622556,31.4864793" id="Fill-150" fill="#7F2A1C" mask="url(#mask-60)"></path>
                        </g>
                        <g id="Group-155">
                            <mask id="mask-62" fill="white">
                                <use xlink:href="#path-61"></use>
                            </mask>
                            <g id="Clip-154"></g>
                            <path d="M33.4564388,31.3007458 C33.1043155,31.309201 32.809143,31.0224274 32.8015033,30.665898 L32.7987252,30.5461153 C32.7910854,30.1881767 33.0723674,29.8894248 33.4244907,29.8809696 C33.7773086,29.8732189 34.072481,30.1585834 34.0794262,30.516522 L34.0822043,30.6363046 C34.0905386,30.9935386 33.8092566,31.2922905 33.4564388,31.3007458" id="Fill-153" fill="#7F2A1C" mask="url(#mask-62)"></path>
                        </g>
                        <g id="Group-158">
                            <mask id="mask-64" fill="white">
                                <use xlink:href="#path-63"></use>
                            </mask>
                            <g id="Clip-157"></g>
                            <path d="M34.1950643,29.1662902 C34.1721451,29.1648809 34.1485313,29.1627671 34.1235284,29.1585395 C33.7130652,29.090193 33.8214108,29.1226047 33.4074749,29.097239 C32.9365881,29.0683503 32.7817094,29.0725779 32.3122116,29.100762 C32.0475982,29.1169679 31.7114489,28.981684 31.6913077,28.7414142 C31.670472,28.501849 31.9684226,28.2467825 32.2378976,28.2305766 C32.7504558,28.2002786 32.9518676,28.1918234 33.4637313,28.226349 C34.5784412,28.301037 34.8611122,28.5314423 34.7840201,28.8957224 C34.7381816,29.1113311 34.4332858,29.1747454 34.1950643,29.1662902" id="Fill-156" fill="#7F2A1C" mask="url(#mask-64)"></path>
                        </g>
                        <g id="Group-161">
                            <mask id="mask-66" fill="white">
                                <use xlink:href="#path-65"></use>
                            </mask>
                            <g id="Clip-160"></g>
                            <path d="M24.398535,29.2639482 C24.4221488,29.262539 24.4457626,29.2597206 24.4700709,29.2547884 C24.8791452,29.1765774 24.9430413,29.2075799 25.3562827,29.173759 C25.8271695,29.1343012 25.9820482,29.1350058 26.451546,29.1533254 C26.7168539,29.1631899 27.0495305,29.0201554 27.0648101,28.7798855 C27.0800896,28.5396157 26.7765829,28.2915953 26.5078024,28.2810262 C25.9945496,28.2620019 25.7924433,28.2584789 25.2812742,28.3049827 C24.1686478,28.4043318 23.7192912,28.6438971 23.8047176,29.0067679 C23.8547232,29.2202628 24.161008,29.2780403 24.398535,29.2639482" id="Fill-159" fill="#7F2A1C" mask="url(#mask-66)"></path>
                        </g>
                        <g id="Group-164">
                            <mask id="mask-68" fill="white">
                                <use xlink:href="#path-67"></use>
                            </mask>
                            <g id="Clip-163"></g>
                            <path d="M29.5484255,36.5460262 C28.5115022,36.5692781 27.0898129,35.7089572 27.0655046,34.6062526 L32.0480149,34.4914022 C32.0730178,35.5934022 30.8395443,36.5164329 29.5484255,36.5460262" id="Fill-162" fill="#F05454" mask="url(#mask-68)"></path>
                        </g>
                        <g id="Group-167">
                            <mask id="mask-70" fill="white">
                                <use xlink:href="#path-69"></use>
                            </mask>
                            <g id="Clip-166"></g>
                            <path d="M29.4514006,18.506413 L28.3894744,18.5578491 C24.7598955,18.7332954 22.2200237,22.1872621 22.4026833,26.369789 L22.4311588,26.607945 C22.9249649,26.1548849 23.2590306,25.8695205 23.9243839,25.8575422 L33.9421884,25.6701176 C34.7506135,25.655321 35.5250071,26.0012813 36.05979,26.6171049 L36.1966111,26.7749361 L36.1952221,25.8519054 C36.1389657,21.6440128 33.0969535,18.3302621 29.4514006,18.506413" id="Fill-165" fill="#8C2D1F" mask="url(#mask-70)"></path>
                        </g>
                        <g id="Group-170">
                            <mask id="mask-72" fill="white">
                                <use xlink:href="#path-71"></use>
                            </mask>
                            <g id="Clip-169"></g>
                            <path d="M30.375186,47.7928381 C33.8686384,47.3369596 36.3480867,44.1880862 35.9133151,40.7601898 C35.9077589,40.7179136 35.895952,40.6770465 35.8897013,40.6354749 L23.228541,41.3013253 C23.2090944,41.6670146 23.2153451,42.0369315 23.2632672,42.4124852 C23.6980388,45.8403816 26.8824282,48.2487166 30.375186,47.7928381" id="Fill-168" fill="#FAE6BB" mask="url(#mask-72)"></path>
                        </g>
                        <g id="Group-173">
                            <mask id="mask-74" fill="white">
                                <use xlink:href="#path-73"></use>
                            </mask>
                            <g id="Clip-172"></g>
                            <path d="M42.9580041,47.8692171 C42.8413241,43.2160151 40.3445128,40.3222082 35.9620706,40.4497414 L23.2182621,41.0740202 C18.8365144,41.2015535 17.1981339,44.293354 17.3148138,48.9458514 L18.9788917,54.8081532 L19.0330645,69.1940445 C19.9116365,69.3095995 33.918783,70.1043923 40.5938467,68.9002248 L41.0807075,56.0926455 L42.9580041,47.8692171 Z" id="Fill-171" fill="#00C9C3" mask="url(#mask-74)"></path>
                        </g>
                        <g id="Group-176">
                            <mask id="mask-76" fill="white">
                                <use xlink:href="#path-75"></use>
                            </mask>
                            <g id="Clip-175"></g>
                            <path d="M35.9781835,40.4488959 L23.2336805,41.0738793 C22.9593438,41.0816299 22.6954249,41.1013588 22.4419239,41.1323614 C22.6843125,43.8105596 26.211102,45.6615532 30.319902,45.2775442 C34.0293511,44.9287655 36.9359312,42.874846 37.285971,40.514424 C36.869257,40.462988 36.4365689,40.4355084 35.9781835,40.4488959" id="Fill-174" fill="#FAB08A" mask="url(#mask-76)"></path>
                        </g>
                        <g id="Group-179">
                            <mask id="mask-78" fill="white">
                                <use xlink:href="#path-77"></use>
                            </mask>
                            <g id="Clip-178"></g>
                            <path d="M19.6989735,41.9626662 C17.0424217,43.0815767 15.175543,45.5540307 14.8046676,48.447133 L13.0419674,57.6591202 C12.9509848,58.1326138 12.8738927,58.6089258 12.8023568,59.0852379 L13.061414,59.3607379 C14.6081175,61.008101 16.8465662,61.7916202 19.0648737,61.4625703 L20.7775682,46.2086074 L21.2567893,41.4997417 L19.6989735,41.9626662 Z" id="Fill-177" fill="#00C9C3" mask="url(#mask-78)"></path>
                        </g>
                        <g id="Group-182">
                            <mask id="mask-80" fill="white">
                                <use xlink:href="#path-79"></use>
                            </mask>
                            <g id="Clip-181"></g>
                            <path d="M46.0765527,58.6295707 C46.0321032,57.6022587 44.6743101,47.7378086 44.6743101,47.7378086 C44.4666476,44.9969006 42.7414517,42.5716551 40.1515742,41.3766474 L38.7208561,40.8397395 L39.4514947,58.9910324 L39.3549559,60.4925426 L39.4806647,60.5031116 C41.9559458,60.7250618 44.3895555,60.3755784 46.0765527,58.6295707" id="Fill-180" fill="#00C9C3" mask="url(#mask-80)"></path>
                        </g>
                        <g id="Group-185">
                            <mask id="mask-82" fill="white">
                                <use xlink:href="#path-81"></use>
                            </mask>
                            <g id="Clip-184"></g>
                            <path d="M43.6837115,85.9591003 L15.563851,85.6582345 L16.7257886,76.2130235 C16.9709553,74.2147678 17.5251849,72.2707665 18.3662527,70.4550031 L19.0232717,69.0366361 L40.1798413,68.8555529 L40.6437829,68.8555529 C42.5238575,72.253856 43.1475395,75.6324302 43.3503403,79.5429801 L43.6837115,85.9591003 Z" id="Fill-183" fill="#00C9C3" mask="url(#mask-82)"></path>
                        </g>
                    </g>
                    <g id="Group-197" transform="translate(0.000000, 59.891304)">
                        <path d="M101.977057,10.7682566 C99.1478569,10.7682566 96.8553975,8.48900424 96.8553975,5.67764952 C96.8553975,2.86698674 99.1478569,0.587734358 101.977057,0.587734358 C104.80556,0.587734358 107.09802,2.86698674 107.09802,5.67764952 C107.09802,8.48900424 104.80556,10.7682566 101.977057,10.7682566 Z" id="Fill-187" fill="#009792"></path>
                        <path d="M110.661113,14.3100239 C110.661113,15.2877359 109.863312,16.0806999 108.879636,16.0806999 C107.89596,16.0806999 107.098159,15.2877359 107.098159,14.3100239 C107.098159,13.3316198 107.89596,12.5386559 108.879636,12.5386559 C109.863312,12.5386559 110.661113,13.3316198 110.661113,14.3100239" id="Fill-189" fill="#009792"></path>
                        <path d="M80.4997827,45.2946402 C80.4997827,67.249224 62.5924242,85.0473205 40.5039206,85.0473205 C18.4147209,85.0473205 0.508754717,67.249224 0.508754717,45.2946402 C0.508754717,23.3400565 18.4147209,5.54195997 40.5039206,5.54195997 C62.5924242,5.54195997 80.4997827,23.3400565 80.4997827,45.2946402" id="Fill-191" fill="#005960"></path>
                        <path d="M92.2392908,42.6369655 C92.2392908,45.2026813 90.1466298,47.2826548 87.5652635,47.2826548 C84.9845934,47.2826548 82.8919323,45.2026813 82.8919323,42.6369655 C82.8919323,40.0719417 84.9845934,37.9919682 87.5652635,37.9919682 C90.1466298,37.9919682 92.2392908,40.0719417 92.2392908,42.6369655" id="Fill-193" fill="#009792"></path>
                        <path d="M101.980816,41.0213534 C101.980816,41.9139568 101.253327,42.6370347 100.355279,42.6370347 C99.457231,42.6370347 98.7297424,41.9139568 98.7297424,41.0213534 C98.7297424,40.12875 99.457231,39.4056721 100.355279,39.4056721 C101.253327,39.4056721 101.980816,40.12875 101.980816,41.0213534" id="Fill-195" fill="#009792"></path>
                    </g>
                    <g id="Group-261" transform="translate(0.000000, 65.144928)">
                        <g id="Group-200">
                            <mask id="mask-84" fill="white">
                                <use xlink:href="#path-83"></use>
                            </mask>
                            <g id="Clip-199"></g>
                            <path d="M47.8156627,57.6035607 C47.8156627,57.6035607 49.7136359,57.8632633 50.6301608,58.1340761 C55.9000062,59.6888197 60.3009833,64.0641832 61.6498703,69.4172507 L69.608511,91.3503143 L61.2382284,97.91579 L47.8156627,57.6035607 Z" id="Fill-198" fill="#FAB08A" mask="url(#mask-84)"></path>
                        </g>
                        <g id="Group-203">
                            <mask id="mask-86" fill="white">
                                <use xlink:href="#path-85"></use>
                            </mask>
                            <g id="Clip-202"></g>
                            <path d="M69.4828774,90.996105 C70.5140542,93.453558 77.0264228,124.155403 77.0264228,124.155403 L70.6017698,124.475518 L60.2658279,95.1582902 C60.2658279,95.1582902 68.4510099,88.5393463 69.4828774,90.996105" id="Fill-201" fill="#FAB08A" mask="url(#mask-86)"></path>
                        </g>
                        <g id="Group-206">
                            <mask id="mask-88" fill="white">
                                <use xlink:href="#path-87"></use>
                            </mask>
                            <g id="Clip-205"></g>
                            <path d="M76.8867684,123.681342 L70.6016317,124.475726 L72.3518005,130.457913 L71.7847569,134.359006 C71.6984226,135.266577 72.3828809,136.063044 73.288355,136.108874 L77.0062551,136.300526 C77.8115814,136.341495 78.5195226,135.7714 78.6562762,134.972849 L79.7364909,128.636522 C79.8200625,128.146282 79.7047199,127.642848 79.4167086,127.238017 L76.8867684,123.681342 Z" id="Fill-204" fill="#FAB08A" mask="url(#mask-88)"></path>
                        </g>
                        <g id="Group-209">
                            <mask id="mask-90" fill="white">
                                <use xlink:href="#path-89"></use>
                            </mask>
                            <g id="Clip-208"></g>
                            <path d="M25.6776844,55.8614702 C25.6776844,55.8614702 23.7679698,56.0156252 22.8390128,56.2343587 C17.4911211,57.49468 12.8566961,61.6186737 11.2156538,66.8884141 L2.06352781,88.3451249 L-5.43857717,95.3668161 L1.76860985,100.721967 C7.19385701,97.2173706 11.5699698,92.2976038 14.4300524,86.4869321 L22.615925,69.8527733 L25.6776844,55.8614702 Z" id="Fill-207" fill="#FAB08A" mask="url(#mask-90)"></path>
                        </g>
                        <g id="Group-212">
                            <mask id="mask-92" fill="white">
                                <use xlink:href="#path-91"></use>
                            </mask>
                            <g id="Clip-211"></g>
                            <path d="M63.1831674,73.6423478 L62.6755217,72.2417593 C62.4558873,67.321298 60.0896369,63.2299408 56.3827876,60.0461537 C56.3827876,60.0461537 51.5245841,56.4804512 46.8825616,55.9617404 L27.9663721,54.534765 C23.7719066,54.3465848 18.6843993,56.8401462 18.6843993,56.8401462 C15.4223442,58.8191632 12.8364594,61.9237895 11.6975374,65.583235 L9.93769907,69.7072287 C11.4164329,72.9368456 13.7750859,75.6651115 16.7221934,77.5989931 L16.9853403,108.869545 L51.367801,108.869545 L55.3799284,79.7620239 C58.9900833,77.8100882 63.1831674,73.6423478 63.1831674,73.6423478" id="Fill-210" fill="#004472" mask="url(#mask-92)"></path>
                        </g>
                        <g id="Group-215">
                            <mask id="mask-94" fill="white">
                                <use xlink:href="#path-93"></use>
                            </mask>
                            <g id="Clip-214"></g>
                            <path d="M57.9403964,176.941342 L55.5437563,124.103671 C55.2661052,118.781157 53.8398627,113.583633 51.3672484,108.870101 L39.7570123,108.870101 L39.9172488,107.194533 L17.6485258,107.536174 C15.5302276,112.421915 14.4928347,117.711793 14.6074866,123.039862 L15.7277604,177.066332 L33.6866753,177.058 L36.2525306,145.551355 L41.1204035,177.189934 L57.9403964,176.941342 Z" id="Fill-213" fill="#005960" mask="url(#mask-94)"></path>
                        </g>
                        <g id="Group-218">
                            <mask id="mask-96" fill="white">
                                <use xlink:href="#path-95"></use>
                            </mask>
                            <g id="Clip-217"></g>
                            <path d="M46.9456202,55.9618098 L28.02874,54.53414 C23.8563761,54.3473486 20.9451837,55.4264336 19.3669927,57.5658552 C21.7967852,61.5440266 28.9438835,64.6875389 37.4274368,65.178474 C45.102901,65.6228848 52.908212,63.0529403 56.251076,59.9753952 C54.700512,58.5428647 51.4992363,56.4701047 46.9456202,55.9618098" id="Fill-216" fill="#FAB08A" mask="url(#mask-96)"></path>
                        </g>
                        <g id="Group-221">
                            <mask id="mask-98" fill="white">
                                <use xlink:href="#path-97"></use>
                            </mask>
                            <g id="Clip-220"></g>
                            <path d="M34.4426184,47.6684786 C34.2747845,47.6684786 34.1097134,47.6816721 33.9439515,47.6934767 C34.52619,46.6845253 34.8666925,45.5137805 34.8694552,44.2610974 C34.8756712,41.8175322 33.5495765,39.6281144 31.5984214,38.4094566 L31.5984214,37.565076 L25.910718,25.7965215 L21.7459515,42.0307105 C21.6402783,42.3466589 21.5567067,42.6723287 21.4959274,43.0070256 C21.4220252,43.4319934 21.3798941,43.833352 21.3798941,44.244432 C21.3798941,45.7838989 21.880633,47.2053192 22.7253278,48.3482883 C23.1563086,48.9315776 23.9878805,49.4405669 24.8940453,49.8551188 C26.6531929,50.6620023 27.7320263,52.4368681 27.6981832,54.3957477 C27.6981832,54.4290785 27.6974925,54.4624093 27.6974925,54.4964345 C27.6885138,58.1635183 30.670155,61.2736998 34.282382,61.35911 C38.081091,61.4486866 41.1877443,58.3503098 41.1877443,54.5144887 C41.1877443,50.7335246 38.168116,47.6684786 34.4426184,47.6684786" id="Fill-219" fill="#FF7900" mask="url(#mask-98)"></path>
                        </g>
                        <g id="Group-224">
                            <mask id="mask-100" fill="white">
                                <use xlink:href="#path-99"></use>
                            </mask>
                            <g id="Clip-223"></g>
                            <path d="M61.1132163,68.0282585 C56.0567893,68.0282585 51.9576369,64.3278439 51.9576369,59.7636057 C51.9576369,59.4101602 51.9907893,59.064353 52.0377551,58.7227122 C50.9665192,59.3546088 49.9215289,59.771244 48.9974066,59.7629113 C43.6868113,59.7129151 40.1629907,52.9106517 40.1629907,52.9106517 L35.8511107,31.0761917 L50.949943,25.0620631 L53.5876284,33.7815427 C54.2900442,36.0181791 56.305432,37.4805685 58.6357674,37.6652767 C61.7223911,37.9659485 64.4395041,40.2553587 65.2289449,43.546082 C65.6053624,45.1133246 65.4886384,46.6826504 64.9823741,48.079767 C64.3082759,49.940043 65.0148358,52.0725206 66.6351579,53.178687 C66.6351579,53.178687 77.0277351,69.1274809 63.7723126,80.2613612" id="Fill-222" fill="#FF7900" mask="url(#mask-100)"></path>
                        </g>
                        <g id="Group-227">
                            <mask id="mask-102" fill="white">
                                <use xlink:href="#path-101"></use>
                            </mask>
                            <g id="Clip-226"></g>
                            <path d="M51.2373326,29.4413153 C50.4485825,34.7624407 44.875531,38.7378345 37.4494002,38.0517753 C30.0232694,37.3664105 25.6098602,32.4681698 25.7818381,27.0907986 C25.981443,20.8572422 31.8528658,16.9603147 39.2789966,17.6463739 C46.7051274,18.3324331 52.25884,22.5397539 51.2373326,29.4413153" id="Fill-225" fill="#FF7900" mask="url(#mask-102)"></path>
                        </g>
                        <g id="Group-230">
                            <mask id="mask-104" fill="white">
                                <use xlink:href="#path-103"></use>
                            </mask>
                            <g id="Clip-229"></g>
                            <path d="M29.5040204,42.4123483 L27.8153216,42.2658316 C25.6914979,42.0783458 25.0657469,38.5202815 25.0657469,38.5202815 C24.7245538,36.8329091 25.9366873,35.1774788 27.3594765,35.3871851 L29.6608035,35.5975859 L29.5040204,42.4123483 Z" id="Fill-228" fill="#E89561" mask="url(#mask-104)"></path>
                        </g>
                        <g id="Group-233">
                            <mask id="mask-106" fill="white">
                                <use xlink:href="#path-105"></use>
                            </mask>
                            <g id="Clip-232"></g>
                            <path d="M45.0361128,44.0602098 L46.7393158,44.2247807 C48.881097,44.4296263 50.1422684,41.0444657 50.1422684,41.0444657 C50.7832142,39.4473642 49.8770494,37.5975041 48.4266333,37.5433415 L46.104586,37.3287744 L45.0361128,44.0602098 Z" id="Fill-231" fill="#E89561" mask="url(#mask-106)"></path>
                        </g>
                        <g id="Group-236">
                            <mask id="mask-108" fill="white">
                                <use xlink:href="#path-107"></use>
                            </mask>
                            <g id="Clip-235"></g>
                            <path d="M37.8582104,59.4656421 C34.4552578,59.4656421 31.6960137,58.0754694 31.6960137,54.653506 L31.6960137,46.5430082 L44.0204071,46.5430082 L44.0204071,54.3306137 C44.0204071,57.7518828 41.2618536,59.4656421 37.8582104,59.4656421" id="Fill-234" fill="#FFAB78" mask="url(#mask-108)"></path>
                        </g>
                        <g id="Group-239">
                            <mask id="mask-110" fill="white">
                                <use xlink:href="#path-109"></use>
                            </mask>
                            <g id="Clip-238"></g>
                            <path d="M31.6961518,53.2879842 C33.6466162,53.9518229 35.8712783,54.3309609 38.2361474,54.3309609 C40.3026451,54.3309609 42.2572535,54.0358444 44.0205452,53.5199112 L44.0205452,44.9295885 L31.6961518,44.9295885 L31.6961518,53.2879842 Z" id="Fill-237" fill="#E89561" mask="url(#mask-110)"></path>
                        </g>
                        <g id="Group-242">
                            <mask id="mask-112" fill="white">
                                <use xlink:href="#path-111"></use>
                            </mask>
                            <g id="Clip-241"></g>
                            <path d="M32.4569296,26.129413 C29.9276801,25.8995693 27.7258102,27.8619209 27.6173743,30.4367261 L27.1007499,43.4676852 C27.2154018,46.3535781 31.5984214,50.8192126 31.5984214,50.8192126 C32.6606785,51.6663708 33.9550023,52.8225333 35.30458,52.8919725 C38.1335822,53.0371004 45.8608471,49.0089328 46.9631633,45.7189038 L48.3562535,34.5287778 C48.9219158,30.9026631 44.6873913,27.2591887 42.1816247,27.0210122 C38.4699406,26.6675667 36.1858805,26.4668875 32.4569296,26.129413" id="Fill-240" fill="#FAB08A" mask="url(#mask-112)"></path>
                        </g>
                        <g id="Group-245">
                            <mask id="mask-114" fill="white">
                                <use xlink:href="#path-113"></use>
                            </mask>
                            <g id="Clip-244"></g>
                            <path d="M31.0027838,39.837543 C30.4702739,39.7722702 30.0876403,39.2813351 30.1525636,38.7459589 L30.1739746,38.5661114 C30.2395886,38.0307352 30.7278954,37.6467365 31.2604053,37.7113149 C31.7929153,37.7765878 32.1755489,38.2682173 32.1106255,38.8035934 L32.0885239,38.983441 C32.0242912,39.5181227 31.5352937,39.9035103 31.0027838,39.837543" id="Fill-243" fill="#7F2A1C" mask="url(#mask-114)"></path>
                        </g>
                        <g id="Group-248">
                            <mask id="mask-116" fill="white">
                                <use xlink:href="#path-115"></use>
                            </mask>
                            <g id="Clip-247"></g>
                            <path d="M42.7077804,41.2711152 C42.1752705,41.2058423 41.7926369,40.7142129 41.8575603,40.1795311 L41.8789712,39.9996836 C41.9445853,39.4643074 42.432892,39.0796142 42.965402,39.1448871 C43.4979119,39.2101599 43.8798548,39.701095 43.8156221,40.2371656 L43.7935205,40.4170131 C43.7292878,40.9516949 43.2402904,41.336388 42.7077804,41.2711152" id="Fill-246" fill="#7F2A1C" mask="url(#mask-116)"></path>
                        </g>
                        <g id="Group-251">
                            <mask id="mask-118" fill="white">
                                <use xlink:href="#path-117"></use>
                            </mask>
                            <g id="Clip-250"></g>
                            <path d="M36.09112,48.5215391 C34.5191451,48.3778 32.4892532,47.1285889 32.6073585,45.8272984 L40.1626454,46.5182184 C40.0445401,47.8195089 38.0498725,48.7006922 36.09112,48.5215391" id="Fill-249" fill="#F37070" mask="url(#mask-118)"></path>
                        </g>
                        <g id="Group-254">
                            <mask id="mask-120" fill="white">
                                <use xlink:href="#path-119"></use>
                            </mask>
                            <g id="Clip-253"></g>
                            <path d="M29.8797473,36.1682372 C29.912209,36.1737923 29.9446707,36.1772643 29.9785137,36.1772643 C30.5538455,36.1904577 31.1312492,36.2376764 31.6982929,36.3182258 C32.3420014,36.407108 32.5512757,36.4571042 33.176336,36.6313966 C33.5292706,36.7300003 34.0224121,36.6237583 34.1204879,36.2744791 C34.2171823,35.9245056 33.8884213,35.4641238 33.5299613,35.3648257 C32.8461937,35.1745623 32.5754493,35.1072063 31.8744148,35.0134634 C30.3466431,34.8107009 29.1642086,35.0412391 29.1628273,35.6030021 C29.1621366,35.9335327 29.555821,36.1140746 29.8797473,36.1682372" id="Fill-252" fill="#7F2A1C" mask="url(#mask-120)"></path>
                        </g>
                        <g id="Group-257">
                            <mask id="mask-122" fill="white">
                                <use xlink:href="#path-121"></use>
                            </mask>
                            <g id="Clip-256"></g>
                            <path d="M40.6526098,23.541067 C42.2701692,26.1644798 40.0966169,30.503735 35.799241,33.2326953 C31.5011744,35.9616556 23.2717893,30.9370355 25.0896443,33.4215699 C25.397685,33.8437602 25.6449465,26.458902 29.943013,23.7299417 C34.2410796,21.0016757 39.0357411,20.9169599 40.6526098,23.541067" id="Fill-255" fill="#FF7900" mask="url(#mask-122)"></path>
                        </g>
                        <g id="Group-260">
                            <mask id="mask-124" fill="white">
                                <use xlink:href="#path-123"></use>
                            </mask>
                            <g id="Clip-259"></g>
                            <path d="M45.1130539,37.9849748 C45.0792109,37.983586 45.0453678,37.9801141 45.0122155,37.9731701 C44.4285956,37.8676226 43.8346157,37.7947114 43.2475424,37.7558255 C42.578279,37.7099956 42.3572632,37.7162451 41.6900718,37.7579086 C41.3136542,37.7808236 40.8377796,37.5752836 40.8108433,37.2135054 C40.783907,36.8503384 41.2114344,36.467034 41.5933773,36.4441191 C42.3227295,36.399678 42.6093593,36.3892621 43.3373301,36.4427303 C44.9203558,36.5593882 46.0668752,37.0301859 45.9529139,37.5801443 C45.8852279,37.9037309 45.4514844,37.999557 45.1130539,37.9849748" id="Fill-258" fill="#7F2A1C" mask="url(#mask-124)"></path>
                        </g>
                    </g>
                </g>
            </g>
        </g>
    </g>
</svg>