<?xml version="1.0" encoding="UTF-8"?>
<svg version="1.1" viewBox="0 0 240 296" xmlns="http://www.w3.org/2000/svg" xmlns:xlink="http://www.w3.org/1999/xlink" width="240px" height="296px">
<title>5C121DA6-6A0A-4766-9369-A001718CB599</title>
<desc>Created with sketchtool.</desc>
<defs>
<path id="bj" d="m29.365 0.20856c-16.206 0-29.344 13.329-29.344 29.771 0 16.442 13.138 29.77 29.344 29.77 16.207 0 29.345-13.328 29.345-29.77"/>
<path id="am" d="m29.365 0.20856c-16.206 0-29.344 13.329-29.344 29.771 0 16.442 13.138 29.77 29.344 29.77 16.207 0 29.345-13.328 29.345-29.77"/>
<path id="ab" d="m29.365 0.20856c-16.206 0-29.344 13.329-29.344 29.771 0 16.442 13.138 29.77 29.344 29.77 16.207 0 29.345-13.328 29.345-29.77 0-16.442-13.138-29.771-29.345-29.771z"/>
<path id="q" d="m29.365 0.20856c-16.206 0-29.344 13.329-29.344 29.771 0 16.442 13.138 29.77 29.344 29.77 16.207 0 29.345-13.328 29.345-29.77 0-16.442-13.138-29.771-29.345-29.771z"/>
<path id="f" d="m29.365 0.20856c-16.206 0-29.344 13.329-29.344 29.771 0 16.442 13.138 29.77 29.344 29.77 16.207 0 29.345-13.328 29.345-29.77"/>
<path id="bd" d="m29.365 0.20856c-16.206 0-29.344 13.329-29.344 29.771 0 16.442 13.138 29.77 29.344 29.77 16.207 0 29.345-13.328 29.345-29.77 0-16.442-13.138-29.771-29.345-29.771z"/>
<path id="av" d="m29.365 0.20856c-16.206 0-29.344 13.329-29.344 29.771 0 16.442 13.138 29.77 29.344 29.77 16.207 0 29.345-13.328 29.345-29.77 0-16.442-13.138-29.771-29.345-29.771z"/>
<path id="au" d="m29.365 0.20856c-16.206 0-29.344 13.329-29.344 29.771 0 16.442 13.138 29.77 29.344 29.77 16.207 0 29.345-13.328 29.345-29.77"/>
<path id="at" d="m29.365 0.20856c-16.206 0-29.344 13.329-29.344 29.771 0 16.442 13.138 29.77 29.344 29.77 16.207 0 29.345-13.328 29.345-29.77 0-16.442-13.138-29.771-29.345-29.771z"/>
<path id="as" d="m29.365 0.20856c-16.206 0-29.344 13.329-29.344 29.771 0 16.442 13.138 29.77 29.344 29.77 16.207 0 29.345-13.328 29.345-29.77"/>
<path id="ar" d="m29.365 0.20856c-16.206 0-29.344 13.329-29.344 29.771 0 16.442 13.138 29.77 29.344 29.77 16.207 0 29.345-13.328 29.345-29.77"/>
<path id="aq" d="m29.365 0.20856c-16.206 0-29.344 13.329-29.344 29.771 0 16.442 13.138 29.77 29.344 29.77 16.207 0 29.345-13.328 29.345-29.77"/>
<path id="ap" d="m29.365 0.20856c-16.206 0-29.344 13.329-29.344 29.771 0 16.442 13.138 29.77 29.344 29.77 16.207 0 29.345-13.328 29.345-29.77"/>
<path id="ao" d="m29.365 0.20856c-16.206 0-29.344 13.329-29.344 29.771 0 16.442 13.138 29.77 29.344 29.77 16.207 0 29.345-13.328 29.345-29.77"/>
<path id="an" d="m29.365 0.20856c-16.206 0-29.344 13.329-29.344 29.771 0 16.442 13.138 29.77 29.344 29.77 16.207 0 29.345-13.328 29.345-29.77"/>
<path id="al" d="m29.365 0.20856c-16.206 0-29.344 13.329-29.344 29.771 0 16.442 13.138 29.77 29.344 29.77 16.207 0 29.345-13.328 29.345-29.77"/>
<path id="ak" d="m29.365 0.20856c-16.206 0-29.344 13.329-29.344 29.771 0 16.442 13.138 29.77 29.344 29.77 16.207 0 29.345-13.328 29.345-29.77"/>
<path id="aj" d="m29.365 0.20856c-16.206 0-29.344 13.329-29.344 29.771 0 16.442 13.138 29.77 29.344 29.77 16.207 0 29.345-13.328 29.345-29.77"/>
<path id="ai" d="m29.365 0.20856c-16.206 0-29.344 13.329-29.344 29.771 0 16.442 13.138 29.77 29.344 29.77 16.207 0 29.345-13.328 29.345-29.77"/>
<path id="ah" d="m29.365 0.20856c-16.206 0-29.344 13.329-29.344 29.771 0 16.442 13.138 29.77 29.344 29.77 16.207 0 29.345-13.328 29.345-29.77"/>
<polygon id="ag" points="0.4206 0.20856 58.757 0.20856 58.757 59.391 0.4206 59.391"/>
<path id="af" d="m29.396 0.20856c-16.021 0.10428-28.976 13.313-28.976 29.591 0 16.343 13.059 29.591 29.168 29.591 16.11 0 29.169-13.249 29.169-29.591 0-16.278-12.956-29.487-28.978-29.591h-0.38338z"/>
<path id="ae" d="m29.396 0.20856c-16.021 0.10428-28.976 13.313-28.976 29.591 0 16.343 13.059 29.591 29.168 29.591 16.11 0 29.169-13.249 29.169-29.591 0-16.278-12.956-29.487-28.978-29.591h-0.38338z"/>
<path id="ad" d="m29.396 0.20856c-16.021 0.10428-28.976 13.313-28.976 29.591 0 16.343 13.059 29.591 29.168 29.591 16.11 0 29.169-13.249 29.169-29.591 0-16.278-12.956-29.487-28.978-29.591h-0.38338z"/>
<path id="ac" d="m29.396 0.20856c-16.021 0.10428-28.976 13.313-28.976 29.591 0 16.343 13.059 29.591 29.168 29.591 16.11 0 29.169-13.249 29.169-29.591 0-16.278-12.956-29.487-28.978-29.591h-0.38338z"/>
<path id="aa" d="m29.396 0.20856c-16.021 0.10428-28.976 13.313-28.976 29.591 0 16.343 13.059 29.591 29.168 29.591 16.11 0 29.169-13.249 29.169-29.591 0-16.278-12.956-29.487-28.978-29.591h-0.38338z"/>
<path id="z" d="m29.396 0.20856c-16.021 0.10428-28.976 13.313-28.976 29.591 0 16.343 13.059 29.591 29.168 29.591 16.11 0 29.169-13.249 29.169-29.591 0-16.278-12.956-29.487-28.978-29.591"/>
<path id="y" d="m29.396 0.20856c-16.021 0.10428-28.976 13.313-28.976 29.591 0 16.343 13.059 29.591 29.168 29.591 16.11 0 29.169-13.249 29.169-29.591 0-16.278-12.956-29.487-28.978-29.591h-0.38338z"/>
<path id="x" d="m29.396 0.20856c-16.021 0.10428-28.976 13.313-28.976 29.591 0 16.343 13.059 29.591 29.168 29.591 16.11 0 29.169-13.249 29.169-29.591 0-16.278-12.956-29.487-28.978-29.591"/>
<path id="w" d="m29.396 0.20856c-16.021 0.10428-28.976 13.313-28.976 29.591 0 16.343 13.059 29.591 29.168 29.591 16.11 0 29.169-13.249 29.169-29.591 0-16.278-12.956-29.487-28.978-29.591"/>
<path id="v" d="m29.396 0.20856c-16.021 0.10428-28.976 13.313-28.976 29.591 0 16.343 13.059 29.591 29.168 29.591 16.11 0 29.169-13.249 29.169-29.591 0-16.278-12.956-29.487-28.978-29.591"/>
<path id="u" d="m29.396 0.20856c-16.021 0.10428-28.976 13.313-28.976 29.591 0 16.343 13.059 29.591 29.168 29.591 16.11 0 29.169-13.249 29.169-29.591 0-16.278-12.956-29.487-28.978-29.591"/>
<path id="t" d="m29.396 0.20856c-16.021 0.10428-28.976 13.313-28.976 29.591 0 16.343 13.059 29.591 29.168 29.591 16.11 0 29.169-13.249 29.169-29.591 0-16.278-12.956-29.487-28.978-29.591"/>
<path id="s" d="m29.396 0.20856c-16.021 0.10428-28.976 13.313-28.976 29.591 0 16.343 13.059 29.591 29.168 29.591 16.11 0 29.169-13.249 29.169-29.591 0-16.278-12.956-29.487-28.978-29.591"/>
<path id="r" d="m29.396 0.20856c-16.021 0.10428-28.976 13.313-28.976 29.591 0 16.343 13.059 29.591 29.168 29.591 16.11 0 29.169-13.249 29.169-29.591 0-16.278-12.956-29.487-28.978-29.591"/>
<path id="p" d="m29.396 0.20856c-16.021 0.10428-28.976 13.313-28.976 29.591 0 16.343 13.059 29.591 29.168 29.591 16.11 0 29.169-13.249 29.169-29.591 0-16.278-12.956-29.487-28.978-29.591"/>
<path id="o" d="m29.396 0.20856c-16.021 0.10428-28.976 13.313-28.976 29.591 0 16.343 13.059 29.591 29.168 29.591 16.11 0 29.169-13.249 29.169-29.591 0-16.278-12.956-29.487-28.978-29.591h-0.38338z"/>
<path id="n" d="m29.396 0.20856c-16.021 0.10428-28.976 13.313-28.976 29.591 0 16.343 13.059 29.591 29.168 29.591 16.11 0 29.169-13.249 29.169-29.591 0-16.278-12.956-29.487-28.978-29.591"/>
<path id="m" d="m29.396 0.20856c-16.021 0.10428-28.976 13.313-28.976 29.591 0 16.343 13.059 29.591 29.168 29.591 16.11 0 29.169-13.249 29.169-29.591 0-16.278-12.956-29.487-28.978-29.591h-0.38338z"/>
<path id="l" d="m29.396 0.20856c-16.021 0.10428-28.976 13.313-28.976 29.591 0 16.343 13.059 29.591 29.168 29.591 16.11 0 29.169-13.249 29.169-29.591 0-16.278-12.956-29.487-28.978-29.591"/>
<path id="k" d="m29.396 0.20856c-16.021 0.10428-28.976 13.313-28.976 29.591 0 16.343 13.059 29.591 29.168 29.591 16.11 0 29.169-13.249 29.169-29.591 0-16.278-12.956-29.487-28.978-29.591h-0.38338z"/>
<path id="j" d="m0.50419 39.9c0 22.032 17.766 39.893 39.681 39.893 21.914 0 39.681-17.86 39.681-39.893 0-22.033-17.766-39.894-39.681-39.894-21.915 0-39.681 17.861-39.681 39.894z"/>
<path id="i" d="m0.50419 39.9c0 22.032 17.766 39.893 39.681 39.893 21.914 0 39.681-17.86 39.681-39.893 0-22.033-17.766-39.894-39.681-39.894-21.915 0-39.681 17.861-39.681 39.894"/>
<path id="h" d="m0.50419 39.9c0 22.032 17.766 39.893 39.681 39.893 21.914 0 39.681-17.86 39.681-39.893 0-22.033-17.766-39.894-39.681-39.894-21.915 0-39.681 17.861-39.681 39.894z"/>
<path id="g" d="m0.50419 39.9c0 22.032 17.766 39.893 39.681 39.893 21.914 0 39.681-17.86 39.681-39.893 0-22.033-17.766-39.894-39.681-39.894-21.915 0-39.681 17.861-39.681 39.894z"/>
<path id="e" d="m0.50419 39.9c0 22.032 17.766 39.893 39.681 39.893 21.914 0 39.681-17.86 39.681-39.893 0-22.033-17.766-39.894-39.681-39.894-21.915 0-39.681 17.861-39.681 39.894"/>
<path id="d" d="m0.50419 39.9c0 22.032 17.766 39.893 39.681 39.893 21.914 0 39.681-17.86 39.681-39.893 0-22.033-17.766-39.894-39.681-39.894-21.915 0-39.681 17.861-39.681 39.894z"/>
<path id="c" d="m0.50419 39.9c0 22.032 17.766 39.893 39.681 39.893 21.914 0 39.681-17.86 39.681-39.893 0-22.033-17.766-39.894-39.681-39.894-21.915 0-39.681 17.861-39.681 39.894"/>
<path id="b" d="m0.50419 39.9c0 22.032 17.766 39.893 39.681 39.893 21.914 0 39.681-17.86 39.681-39.893 0-22.033-17.766-39.894-39.681-39.894-21.915 0-39.681 17.861-39.681 39.894"/>
<path id="a" d="m0.50419 39.9c0 22.032 17.766 39.893 39.681 39.893 21.914 0 39.681-17.86 39.681-39.893 0-22.033-17.766-39.894-39.681-39.894-21.915 0-39.681 17.861-39.681 39.894"/>
<path id="bi" d="m0.50419 39.9c0 22.032 17.766 39.893 39.681 39.893 21.914 0 39.681-17.86 39.681-39.893 0-22.033-17.766-39.894-39.681-39.894-21.915 0-39.681 17.861-39.681 39.894"/>
<path id="bh" d="m0.50419 39.9c0 22.032 17.766 39.893 39.681 39.893 21.914 0 39.681-17.86 39.681-39.893 0-22.033-17.766-39.894-39.681-39.894-21.915 0-39.681 17.861-39.681 39.894z"/>
<path id="bg" d="m0.50419 39.9c0 22.032 17.766 39.893 39.681 39.893 21.914 0 39.681-17.86 39.681-39.893 0-22.033-17.766-39.894-39.681-39.894-21.915 0-39.681 17.861-39.681 39.894z"/>
<path id="bf" d="m0.50419 39.9c0 22.032 17.766 39.893 39.681 39.893 21.914 0 39.681-17.86 39.681-39.893 0-22.033-17.766-39.894-39.681-39.894-21.915 0-39.681 17.861-39.681 39.894"/>
<path id="be" d="m0.50419 39.9c0 22.032 17.766 39.893 39.681 39.893 21.914 0 39.681-17.86 39.681-39.893 0-22.033-17.766-39.894-39.681-39.894-21.915 0-39.681 17.861-39.681 39.894z"/>
<path id="bc" d="m0.50419 39.9c0 22.032 17.766 39.893 39.681 39.893 21.914 0 39.681-17.86 39.681-39.893 0-22.033-17.766-39.894-39.681-39.894-21.915 0-39.681 17.861-39.681 39.894"/>
<path id="bb" d="m0.50419 39.9c0 22.032 17.766 39.893 39.681 39.893 21.914 0 39.681-17.86 39.681-39.893 0-22.033-17.766-39.894-39.681-39.894-21.915 0-39.681 17.861-39.681 39.894"/>
<path id="ba" d="m0.50419 39.9c0 22.032 17.766 39.893 39.681 39.893 21.914 0 39.681-17.86 39.681-39.893 0-22.033-17.766-39.894-39.681-39.894-21.915 0-39.681 17.861-39.681 39.894"/>
<path id="az" d="m0.50419 39.9c0 22.032 17.766 39.893 39.681 39.893 21.914 0 39.681-17.86 39.681-39.893 0-22.033-17.766-39.894-39.681-39.894-21.915 0-39.681 17.861-39.681 39.894"/>
<path id="ay" d="m0.50419 39.9c0 22.032 17.766 39.893 39.681 39.893 21.914 0 39.681-17.86 39.681-39.893 0-22.033-17.766-39.894-39.681-39.894-21.915 0-39.681 17.861-39.681 39.894"/>
<path id="ax" d="m0.50419 39.9c0 22.032 17.766 39.893 39.681 39.893 21.914 0 39.681-17.86 39.681-39.893 0-22.033-17.766-39.894-39.681-39.894-21.915 0-39.681 17.861-39.681 39.894"/>
<path id="aw" d="m0.50419 39.9c0 22.032 17.766 39.893 39.681 39.893 21.914 0 39.681-17.86 39.681-39.893 0-22.033-17.766-39.894-39.681-39.894-21.915 0-39.681 17.861-39.681 39.894"/>
</defs>
<g fill="none" fill-rule="evenodd">
<g transform="translate(-134)">
<g transform="translate(134)">
<g transform="translate(77 118)">
<g transform="translate(0 58.982)">
<path d="m116.85 43.817-5.995-3.7614 18.709-8.3324-7.7442-17.611c-3.5815-7.5116-12.829-13.602-21.663-13.606h-38.512c-8.8324 0.0044912-18.08 6.0946-21.661 13.606l-7.7431 17.611 18.708 8.3324-5.995 3.7614-3.323 28.62 39.271-0.6153 39.273 0.6153-3.3241-28.62z" fill="#71D8B8"/>
<path d="m129.56 31.723 3.8603 12.743c2.8171 9.2969-0.18998 19.278-7.7892 25.858l-17.522 13.669-5.6353-15.297 9.6923-9.0296c3.1836-2.9653 4.1312-7.4218 2.4034-11.29l-3.7186-8.32 18.709-8.3335z" fill="#FAB08A"/>
<polygon points="53.062 113.76 37.456 115.88 34.45 112.58 35.976 106.6 50.974 104.44" fill="#FAB08A"/>
<path d="m37.457 115.88-19.642 2.4185s-19.333 2.5061-16.548-8.1336c2.6923-10.276 20.047-5.7173 20.047-5.7173l16.144 1.9492c-1.9414 2.6364-2.0302 6.4169-0.2237 9.1475l0.2237 0.33572z" fill="#D8D8D8"/>
<path d="m1.2657 110.16c1.0859-4.1364 4.546-5.8667 8.2928-6.4606v14.658c-4.8641-0.54793-9.7935-2.459-8.2928-8.1976" fill="#D8D8D8"/>
<path d="m32.432 31.723-3.8603 12.743c-2.8182 9.2969 0.18886 19.278 7.788 25.858l17.522 13.669 5.6353-15.297-9.6923-9.0296c-3.1836-2.9653-4.1301-7.4218-2.4034-11.29l3.7186-8.32-18.708-8.3335z" fill="#FAB08A"/>
<polygon points="110.42 114.93 126.29 115.88 129.29 112.58 127.76 106.6 112.77 104.44" fill="#FAB08A"/>
<path d="m126.29 115.88 19.642 2.4185s19.333 2.5061 16.545-8.1336c-2.6889-10.276-20.046-5.7173-20.046-5.7173l-16.141 1.9492c1.9391 2.6364 2.0279 6.4169 0.22146 9.1475l-0.22146 0.33572z" fill="#D8D8D8"/>
<path d="m162.47 110.16c-1.0825-4.1364-4.5426-5.8667-8.2894-6.4606v14.658c4.8608-0.54793 9.7912-2.459 8.2894-8.1976" fill="#D8D8D8"/>
</g>
<polygon points="51.529 148.51 116.73 148.51 116.73 109.54 51.529 109.54" fill="#005960"/>
<polygon points="51.529 149.56 116.73 149.56 116.73 146.4 51.529 146.4" fill="#C0ABC3"/>
<path d="m80.974 124.81c0 1.4537 1.1776 2.6331 2.6302 2.6331 1.4514 0 2.6279-1.1794 2.6279-2.6331 0-1.4537-1.1764-2.6331-2.6279-2.6331-1.4526 0-2.6302 1.1794-2.6302 2.6331" fill="#fff"/>
<path d="m162.1 137.66c12.875 23.036-116.79 37.177-116.79 37.177l-2.1987-10.26s103.11-55.326 118.98-26.916" fill="#1C2C57"/>
<path d="m1.713 137.63c-10.975 23.921 118.26 38.263 118.26 38.263l0.96106-11.492s-106.25-55.055-119.22-26.771" fill="#004472"/>
<path d="m87.28 58.759c-1.1696-3.6631-3.2927-14.522-3.2927-14.522l-13.53 2.7314v11.852s4.4887 3.2902 8.2663 3.3219c4.1266 0.035134 8.703-2.9717 8.556-3.3831" fill="#F79C82"/>
<path d="m88.619 25.767-2.6564-15.234-27.072 3.1178 1.6418 17.554s2.092 21.721 16.502 19.138c15.589-2.7952 12.276-24.769 11.585-24.576" fill="#FAB08A"/>
<path d="m94.078 23.803c-0.35404-1.8915 0.14161-4.8456 1.1329-6.4888 4.6014-7.6265-2.3602-9.8437-4.789-10.502-2.6851-0.72883-3.5381-4.9629-7.1448-6.3146-5.5061-2.0635-8.6081 2.9301-11.594 3.315s-5.9354-2.8481-9.4005 0.49537c-3.4651 3.3412-1.9826 6.457-2.8626 8.2574-0.87779 1.8038-4.4923-1.2185-7.1189 4.4242-1.9972 4.2876 0.20793 6.8054 2.9132 8.2494 3.1492 1.6797 6.9133 1.6797 10.181 0.2494 2.8267-1.2401 6.7334-3.3162 10.681-6.5754 1.0363-0.85523 9.1656-1.4224 9.84-0.25395 2.2894 3.9641 2.476 17.151 2.476 17.151l0.2866-0.40541c1.0104-1.4326 2.14-2.7718 3.3178-4.0643 1.2093-1.3267 2.7772-3.8423 2.0826-7.5377" fill="#004472"/>
</g>
<path d="m145.48 72.5c0 1.1607-0.94361 2.1019-2.1084 2.1019s-2.1084-0.94114-2.1084-2.1019c0-1.1607 0.94361-2.101 2.1084-2.101s2.1084 0.94033 2.1084 2.101" fill="#009792"/>
<path d="m154.97 64.62c0 2.6112-2.1234 4.7279-4.7435 4.7279-2.6201 0-4.7442-2.1167-4.7442-4.7279 0-2.6119 2.124-4.7286 4.7442-4.7286 2.6201 0 4.7435 2.1167 4.7435 4.7286" fill="#009792"/>
<path d="m212.95 28.895c0 15.958-12.98 28.895-28.99 28.895-16.01 0-28.99-12.936-28.99-28.895s12.98-28.895 28.99-28.895c16.011 0 28.99 12.937 28.99 28.895" fill="#005960"/>
<g transform="translate(154.97)">
<mask fill="white">
<use xlink:href="#bj"/>
</mask>
<mask id="cq" fill="white">
<use xlink:href="#am"/>
</mask>
<path d="m26.747 49.747c0.84871 1.8284 6.664 24.87 6.664 24.87l-4.8103 0.44108-8.642-21.875s5.9396-5.2641 6.7883-3.4356" fill="#FAE6BB" mask="url(#cq)"/>
<mask id="cf" fill="white">
<use xlink:href="#ab"/>
</mask>
<polygon points="29.917 80.093 28.601 75.058 33.291 74.263 35.655 77.342" fill="#FAE6BB" mask="url(#cf)"/>
<mask id="bu" fill="white">
<use xlink:href="#q"/>
</mask>
<path d="m43.814 85.304-27.361 1.6058-1.1362-33.609c-0.19794-5.5459 2.4086-9.4572 7.8752-9.658l12.822-0.43756c5.4673-0.20081 8.7489 4.1226 8.9468 9.6686l-1.1467 32.43z" fill="#FFEDDC" mask="url(#bu)"/>
<mask id="dr" fill="white">
<use xlink:href="#f"/>
</mask>
<path d="m35.72 19.384c-0.53895-0.17474-1.0744-0.25577-1.5793-0.25859-0.026392-0.93078-0.74939-1.7453-1.746-1.8883-0.5959-0.085962-1.1661 0.085257-1.587 0.42629-0.03681 0.029593-0.07223 0.065528-0.10765 0.1078-0.40699 0.49111-1.0758 0.65387-1.6141 0.31496-0.52228-0.32764-1.155-0.56439-1.8537-0.66444-2.0363-0.29241-3.8574 0.68558-4.0664 2.185-0.017363 0.11767-0.019447 0.23463-0.015974 0.35089-0.24378-0.095122-0.50283-0.16206-0.77926-0.17263-1.3397-0.051436-2.4669 1.0097-2.5183 2.3696-0.020836 0.56368 0.15488 1.0844 0.45352 1.5114-0.45977 0.46363-0.67647 1.0499-0.51256 1.5692 0.16113 0.51154 0.65702 0.8272 1.2717 0.90048l-0.056256 6.717 6.3222-0.88216-0.03681 1.4938 10.12 0.48336 0.28614-8.258c0.0020836-0.020434 0.0069453-0.040162 0.0083343-0.0613 0.046533-0.54254 0.026392-1.0456-0.049311-1.51 0.42713-0.26634 0.74245-0.63344 0.88552-1.0886 0.4306-1.369-0.83412-3.0016-2.8246-3.6456" fill="#004472" mask="url(#dr)"/>
<mask id="dg" fill="white">
<use xlink:href="#bd"/>
</mask>
<path d="m23.7 35.505-1.1904-0.019729c-1.4967-0.02607-2.1051-2.4873-2.1051-2.4873-0.32018-1.164 0.44936-2.383 1.4564-2.3062l1.462-0.17826 0.37713 4.9914z" fill="#FAB08A" mask="url(#dg)"/>
<mask id="dc" fill="white">
<use xlink:href="#av"/>
</mask>
<path d="m34.809 36.054 1.1876-0.078916c1.4932-0.10217 1.9815-2.5894 1.9815-2.5894 0.26253-1.1795-0.56534-2.3583-1.5668-2.2315l-1.6182 0.11485 0.015974 4.785z" fill="#FAB08A" mask="url(#dc)"/>
<mask id="db" fill="white">
<use xlink:href="#au"/>
</mask>
<path d="m29.413 47.862c-2.3662 0.011978-4.2956-1.925-4.3067-4.327l-0.029864-6.0518 8.5718-0.043685 0.029864 6.0525c0.011112 2.4013-1.8981 4.3573-4.2651 4.37" fill="#FAB08A" mask="url(#db)"/>
<mask id="da" fill="white">
<use xlink:href="#at"/>
</mask>
<path d="m25.099 42.218c1.3592 0.4587 2.908 0.71729 4.5526 0.70883 1.437-0.007046 2.7955-0.22195 4.0206-0.58905l-0.029864-6.03-8.5718 0.043685 0.028476 5.8665z" fill="#F09C69" mask="url(#da)"/>
<mask id="cz" fill="white">
<use xlink:href="#as"/>
</mask>
<path d="m25.15 24.509c-0.59451 0.014797-1.9579 0.52282-1.9516 2.285l-1.0786 2.0314 0.14307 7.0954c0.21808 2.0159 3.6289 4.866 3.6289 4.866 0.78481 0.54043 1.7474 1.2479 2.6954 1.2683 0.94872 0.021138 2.1475-0.62428 2.9538-1.1316 0 0 4.1289-2.0476 4.7436-4.4059l0.28892-7.3716-1.1647-1.4924c0.10071-1.7897-0.68202-2.9396-1.6745-2.9593-2.617-0.052845-5.9562-0.25436-8.5843-0.18531" fill="#FAB08A" mask="url(#cz)"/>
<mask id="cy" fill="white">
<use xlink:href="#ar"/>
</mask>
<path d="m24.963 33.27c-0.37296-0.0084552-0.6723-0.32482-0.66396-0.70319l0.0027781-0.12683c0.0083343-0.37837 0.32018-0.68206 0.69313-0.6736 0.37296 0.0084552 0.6716 0.32482 0.66327 0.70319l-0.0027781 0.12683c-0.0083343 0.37837-0.31948 0.68135-0.69244 0.6736" fill="#7F2A1C" mask="url(#cy)"/>
<mask id="cx" fill="white">
<use xlink:href="#aq"/>
</mask>
<path d="m33.37 33.456c-0.37296-0.0084553-0.6716-0.32412-0.66327-0.70249l0.0027781-0.12753c0.0076397-0.37837 0.31948-0.68135 0.69244-0.6729 0.37296 0.0084552 0.6716 0.32412 0.66396 0.70249l-0.0027781 0.12753c-0.0083342 0.37837-0.32018 0.68135-0.69313 0.6729" fill="#7F2A1C" mask="url(#cx)"/>
<mask id="cw" fill="white">
<use xlink:href="#ap"/>
</mask>
<path d="m33.957 30.697c-0.025003-7.046e-4 -0.050006-0.0028184-0.075008-0.007046-0.43616-0.066233-0.32156-0.033821-0.75981-0.052845-0.49936-0.023252-0.66327-0.015501-1.1599 0.021843-0.2792 0.021138-0.63757-0.11626-0.66327-0.37062-0.025003-0.25366 0.28614-0.52845 0.5702-0.54959 0.54242-0.040867 0.75564-0.052845 1.2981-0.024661 1.1814 0.0613 1.4849 0.30016 1.4085 0.68769-0.045144 0.22759-0.36671 0.30087-0.61882 0.29523" fill="#B75624" mask="url(#cw)"/>
<mask id="cv" fill="white">
<use xlink:href="#ao"/>
</mask>
<path d="m24.414 30.344c0.024308 0.0028184 0.049311 0.003523 0.075009 0.0028184 0.44102-0.015501 0.50353 0.028184 0.94108 0.060596 0.49867 0.035935 0.66119 0.062005 1.1494 0.15783 0.27573 0.054254 0.6466-0.040162 0.70077-0.2903 0.054867-0.24872-0.22294-0.55805-0.50353-0.61301-0.53339-0.10428-0.74453-0.14092-1.2863-0.17686-1.18-0.077506-1.6891 0.099349-1.6578 0.49252 0.018058 0.23252 0.33059 0.34244 0.58132 0.36639" fill="#B75624" mask="url(#cv)"/>
<mask id="cu" fill="white">
<use xlink:href="#an"/>
</mask>
<path d="m28.83 39.159c-1.098-0.023252-2.5614-1.0421-2.535-2.2597l5.2749 0.11415c-0.025697 1.2176-1.3724 2.1758-2.7399 2.1455" fill="#fff" mask="url(#cu)"/>
<mask id="ct" fill="white">
<use xlink:href="#al"/>
</mask>
<path d="m21.548 30.765-0.35768 0.0021138-0.022919-6.3203 2.0197-0.59821 0.020141 5.219c0.0034726 0.9329-0.73967 1.6932-1.6592 1.6974" fill="#004472" mask="url(#ct)"/>
<mask id="cs" fill="white">
<use xlink:href="#ak"/>
</mask>
<path d="m37.097 31.18 0.35698 0.0021138 0.028475-6.3203-2.0204-0.59962-0.022919 5.219c-0.0041671 0.9329 0.73828 1.6932 1.6578 1.6988" fill="#004472" mask="url(#cs)"/>
<mask id="cr" fill="white">
<use xlink:href="#aj"/>
</mask>
<path d="m12.891 52.166-4.1991 14.148c1.1849 2.0426 7.1237 1.7643 7.1244 1.7622l5.4221-24.021s-1.1974 0.23957-1.769 0.44813c-3.2913 1.2006-5.9236 4.1769-6.5785 7.6619" fill="#FFEDDC" mask="url(#cr)"/>
<mask fill="white">
<use xlink:href="#ai"/>
</mask>
<mask id="cp" fill="white">
<use xlink:href="#ah"/>
</mask>
<path d="m45.995 51.361 4.1984 14.149c-0.080565 0.28748-4.229 2.1328-6.3139 1.6946l-0.28337-0.059891c-0.001389-0.0056368-5.9486-23.894-5.9486-23.894s1.1967 0.23957 1.769 0.44883c3.2913 1.1999 5.9236 4.1762 6.5785 7.6612" fill="#FFEDDC" mask="url(#cp)"/>
</g>
<g transform="translate(50.601)">
<mask id="co" fill="white">
<use xlink:href="#ag"/>
</mask>
<path d="m58.757 29.799c0 16.343-13.059 29.592-29.169 29.592-16.109 0-29.168-13.249-29.168-29.592 0-16.343 13.059-29.591 29.168-29.591 16.109 0 29.169 13.249 29.169 29.591" fill="#005960" mask="url(#co)"/>
</g>
<g transform="translate(50.601)">
<mask id="cn" fill="white">
<use xlink:href="#af"/>
</mask>
<path d="m29.713 33.133c-0.61951-0.6891-1.3661-1.2514-2.2134-1.6312l0.2792-0.09794c0.40491 0.038049 0.81815 0.059891 1.2501 0.047208 1.23-0.035935 2.3621-0.27832 3.3705-0.68206 0.25767 0.61301 0.6466 1.1527 1.1265 1.5938-0.19308 0.38471-0.34518 0.80466-0.44658 1.2542-1.0716-0.65669-2.2662-0.8723-3.3664-0.48406zm-2.2183-1.7573 0.0027781 0.12471c-0.17224-0.076802-0.34865-0.14444-0.52784-0.20574 0.17224 0.031707 0.34657 0.059187 0.52506 0.08103zm-3.7449-1.3909c0.63618 0.44601 1.3627 0.80113 2.1634 1.052-0.31462-0.048618-0.6341-0.082439-0.96191-0.082439-0.8119 0-1.5863 0.16135-2.2989 0.4439 0.056256-0.54818 0.035421-1.078-0.0507-1.5684l1.148 0.15501zm18.317 8.8921c0.33962-1.2619 0.30142-2.762-0.20905-4.2495-0.39241-1.1471-1.0105-2.1237-1.7474-2.8677 0.58479-0.77084 0.93552-1.7326 0.93552-2.7811 0-1.109-0.38963-2.1251-1.0376-2.9164l-3.3733-5.8144c-1.364-2.619-4.3762-3.5124-7.8724-3.4103-3.8102 0.11133-6.3681 1.9609-7.7606 4.8392-0.010418-0.0028184-4.022 8.1558-4.1887 9.1155-0.25281 1.4585 0.07223 2.8332 0.7355 3.7133-1.2349 0.3523-2.1412 1.5001-2.1412 2.8656 0 1.04 0.52714 1.9553 1.3245 2.488-1.7724 1.1365-2.9531 3.1369-2.9531 5.4219 0 3.5435 2.8309 6.4161 6.3236 6.4161 3.4928 0 6.3243-2.8727 6.3243-6.4161 0-0.56227-0.078481-1.1034-0.21183-1.6227 0.88135-0.18108 1.6932-0.55311 2.401-1.0647 1.3481 1.7495 3.3032 2.6113 5.0263 2.0039 1.3154-0.46433 2.2141-1.6833 2.5614-3.2229 0.85913 0.52775 1.796 0.7652 2.701 0.63908 0.08751 1.5649 1.3627 2.8085 2.9281 2.8085 1.621 0 2.9358-1.3338 2.9358-2.9791 0-1.5642-1.1897-2.8452-2.7017-2.9664z" fill="#7F2A1C" mask="url(#cn)"/>
<mask id="cm" fill="white">
<use xlink:href="#ae"/>
</mask>
<path d="m21.257 41.5-1.5578 0.46292c-2.6566 1.1189-4.5234 3.5914-4.8936 6.4845l-1.7634 9.2127c-0.53131 2.7719-0.73133 5.5988-0.5966 8.4193l1.3321 18.442s3.9324 0.79268 5.8778 0l-0.43408-4.5771-0.075703-17.7 2.1114-20.745z" fill="#FFAB78" mask="url(#cm)"/>
<mask id="cl" fill="white">
<use xlink:href="#ad"/>
</mask>
<path d="m38.59 40.858 1.5293 0.55241c2.5906 1.269 4.3144 3.845 4.5234 6.7557l1.2446 9.2979c0.37504 2.7987 0.41602 5.6326 0.12501 8.4412l-1.4384 13.815-0.61049 6.2393c-1.9933 0.66092-3.5942-5.6981-5.493-6.6014l1.0668-17.667-0.94733-20.833z" fill="#FFAB78" mask="url(#cl)"/>
<mask id="ck" fill="white">
<use xlink:href="#ac"/>
</mask>
<path d="m24.538 33.58-1.1237 0.031707c-1.4127 0.038753-2.0884-2.2575-2.0884-2.2575-0.34935-1.0851 0.32712-2.2681 1.28-2.2385l1.5314-0.036639 0.40074 4.501z" fill="#E89561" mask="url(#ck)"/>
<mask id="cj" fill="white">
<use xlink:href="#aa"/>
</mask>
<path d="m34.453 33.684 1.1175-0.12471c1.405-0.15854 1.7634-2.5267 1.7634-2.5267 0.20002-1.1238-0.62993-2.2012-1.5696-2.0391l-1.5224 0.17686 0.21114 4.5137z" fill="#E89561" mask="url(#cj)"/>
<mask id="ci" fill="white">
<use xlink:href="#z"/>
</mask>
<path d="m30.086 44.999c-2.2336 0.11133-4.1317-1.6347-4.2415-3.9l-0.27642-5.7101 8.0863-0.40233 0.27642 5.7101c0.10904 2.2646-1.612 4.1917-3.8449 4.3023" fill="#FFAB78" mask="url(#ci)"/>
<mask id="ch" fill="white">
<use xlink:href="#y"/>
</mask>
<path d="m25.784 39.951c1.3008 0.37555 2.7725 0.55382 4.3248 0.47702 1.3564-0.067642 2.6288-0.32694 3.7692-0.72645l-0.27503-5.6883-8.0863 0.40303 0.26739 5.5347z" fill="#E89561" mask="url(#ch)"/>
<mask id="cg" fill="white">
<use xlink:href="#x"/>
</mask>
<path d="m25.097 22.205c-1.6842 0.041572-2.4176 2.1948-2.6691 3.9169l0.42158 7.9113c0.28892 1.8926 3.624 4.4376 3.624 4.4376 0.76259 0.47772 1.6995 1.1034 2.5954 1.083s2.0002-0.67994 2.7406-1.1915c0 0 3.8122-2.1075 4.2956-4.3587l0.0027781-8.377c0.02153-1.6932-1.2342-3.6421-2.9031-3.609-2.4725 0.050027-5.6256 0.12612-8.1079 0.18742" fill="#FAB08A" mask="url(#cg)"/>
<mask id="ce" fill="white">
<use xlink:href="#w"/>
</mask>
<path d="m25.362 31.486c-0.35212 0.0084552-0.6473-0.27761-0.65494-0.63485l-0.0027781-0.11978c-0.0076398-0.35723 0.27364-0.65669 0.62646-0.66515 0.35212-0.0077507 0.6473 0.27832 0.65424 0.63555l0.0027781 0.12049c0.0083343 0.35653-0.27295 0.65599-0.62577 0.66374" fill="#7F2A1C" mask="url(#ce)"/>
<mask id="cd" fill="white">
<use xlink:href="#v"/>
</mask>
<path d="m33.456 31.301c-0.35212 0.0084552-0.6473-0.27832-0.65494-0.63485l-0.0027781-0.11978c-0.0076398-0.35794 0.27364-0.65669 0.62577-0.66515 0.35282-0.0077507 0.64799 0.27761 0.65494 0.63555l0.0027781 0.11978c0.0083343 0.35723-0.27295 0.65599-0.62577 0.66444" fill="#7F2A1C" mask="url(#cd)"/>
<mask id="cc" fill="white">
<use xlink:href="#u"/>
</mask>
<path d="m34.195 29.166c-0.022919-0.0014093-0.046533-0.0035231-0.071536-0.0077507-0.41046-0.068346-0.30212-0.035935-0.71605-0.0613-0.47089-0.028889-0.62577-0.024661-1.0953 0.003523-0.26461 0.016206-0.60076-0.11908-0.6209-0.35935-0.020836-0.23957 0.27711-0.49463 0.54659-0.51084 0.51256-0.030298 0.71397-0.038753 1.2258-0.0042276 1.1147 0.074688 1.3974 0.30509 1.3203 0.66937-0.045838 0.21561-0.35073 0.27902-0.58896 0.27057" fill="#7F2A1C" mask="url(#cc)"/>
<mask id="cb" fill="white">
<use xlink:href="#t"/>
</mask>
<path d="m24.399 29.264c0.023614-0.0014092 0.047228-0.0042276 0.071536-0.0091598 0.40907-0.078211 0.47297-0.047208 0.88621-0.081029 0.47089-0.039458 0.62577-0.038753 1.0953-0.020434 0.26531 0.0098645 0.59798-0.13317 0.61326-0.37344 0.01528-0.24027-0.28823-0.48829-0.55701-0.49886-0.51325-0.019024-0.71536-0.022547-1.2265 0.023956-1.1126 0.099349-1.562 0.33891-1.4766 0.70179 0.050006 0.21349 0.35629 0.27127 0.59382 0.25718" fill="#7F2A1C" mask="url(#cb)"/>
<mask id="ca" fill="white">
<use xlink:href="#s"/>
</mask>
<path d="m29.548 36.546c-1.0369 0.023252-2.4586-0.83707-2.4829-1.9398l4.9825-0.11485c0.025003 1.102-1.2085 2.025-2.4996 2.0546" fill="#F05454" mask="url(#ca)"/>
<mask id="bz" fill="white">
<use xlink:href="#r"/>
</mask>
<path d="m29.451 18.506-1.0619 0.051436c-3.6296 0.17545-6.1695 3.6294-5.9868 7.8119l0.028476 0.23816c0.49381-0.45306 0.82787-0.73842 1.4932-0.7504l10.018-0.18742c0.80843-0.014797 1.5828 0.33116 2.1176 0.94699l0.13682 0.15783-0.001389-0.92303c-0.056256-4.2079-3.0983-7.5216-6.7438-7.3455" fill="#8C2D1F" mask="url(#bz)"/>
<mask id="by" fill="white">
<use xlink:href="#p"/>
</mask>
<path d="m30.375 47.793c3.4935-0.45588 5.9729-3.6048 5.5381-7.0326-0.0055562-0.042276-0.017363-0.083143-0.023614-0.12471l-12.661 0.66585c-0.019447 0.36569-0.013196 0.73561 0.034726 1.1112 0.43477 3.4279 3.6192 5.8362 7.1119 5.3804" fill="#FAE6BB" mask="url(#by)"/>
<mask id="bx" fill="white">
<use xlink:href="#o"/>
</mask>
<path d="m42.958 47.869c-0.11668-4.6532-2.6135-7.547-6.9959-7.4195l-12.744 0.62428c-4.3817 0.12753-6.0201 3.2193-5.9034 7.8718l1.6641 5.8623 0.054173 14.386c0.87857 0.11556 14.886 0.91035 21.561-0.29382l0.48686-12.808 1.8773-8.2234z" fill="#00C9C3" mask="url(#bx)"/>
<mask id="bw" fill="white">
<use xlink:href="#n"/>
</mask>
<path d="m35.978 40.449-12.745 0.62498c-0.27434 0.0077506-0.53826 0.02748-0.79176 0.058482 0.24239 2.6782 3.7692 4.5292 7.878 4.1452 3.7094-0.34878 6.616-2.4027 6.9661-4.7631-0.41671-0.051436-0.8494-0.078916-1.3078-0.065528" fill="#FAB08A" mask="url(#bw)"/>
<mask id="bv" fill="white">
<use xlink:href="#m"/>
</mask>
<path d="m19.699 41.963c-2.6566 1.1189-4.5234 3.5914-4.8943 6.4845l-1.7627 9.212c-0.090983 0.47349-0.16807 0.94981-0.23961 1.4261l0.25906 0.2755c1.5467 1.6474 3.7852 2.4309 6.0035 2.1018l1.7127-15.254 0.47922-4.7089-1.5578 0.46292z" fill="#00C9C3" mask="url(#bv)"/>
<mask id="bt" fill="white">
<use xlink:href="#l"/>
</mask>
<path d="m46.077 58.63c-0.04445-1.0273-1.4022-10.892-1.4022-10.892-0.20766-2.7409-1.9329-5.1662-4.5227-6.3612l-1.4307-0.53691 0.73064 18.151-0.096539 1.5015 0.12571 0.010569c2.4753 0.22195 4.9089-0.12753 6.5959-1.8735" fill="#00C9C3" mask="url(#bt)"/>
<mask id="bs" fill="white">
<use xlink:href="#k"/>
</mask>
<path d="m43.684 85.959-28.12-0.30087 1.1619-9.4452c0.24517-1.9983 0.7994-3.9423 1.6405-5.758l0.65702-1.4184 21.157-0.18108h0.46394c1.8801 3.3983 2.5038 6.7769 2.7066 10.687l0.33337 6.4161z" fill="#00C9C3" mask="url(#bs)"/>
</g>
<g transform="translate(0 59.891)">
<path d="m101.98 10.768c-2.8292 0-5.1217-2.2793-5.1217-5.0906 0-2.8107 2.2925-5.0899 5.1217-5.0899 2.8285 0 5.121 2.2793 5.121 5.0899 0 2.8114-2.2925 5.0906-5.121 5.0906z" fill="#009792"/>
<path d="m110.66 14.31c0 0.97771-0.7978 1.7707-1.7815 1.7707s-1.7815-0.79296-1.7815-1.7707c0-0.9784 0.7978-1.7714 1.7815-1.7714s1.7815 0.79296 1.7815 1.7714" fill="#009792"/>
<path d="m80.5 45.295c0 21.955-17.907 39.753-39.996 39.753-22.089 0-39.995-17.798-39.995-39.753 0-21.955 17.906-39.753 39.995-39.753 22.089 0 39.996 17.798 39.996 39.753" fill="#005960"/>
<path d="m92.239 42.637c0 2.5657-2.0927 4.6457-4.674 4.6457-2.5807 0-4.6733-2.08-4.6733-4.6457 0-2.565 2.0927-4.645 4.6733-4.645 2.5814 0 4.674 2.08 4.674 4.645" fill="#009792"/>
<path d="m101.98 41.021c0 0.8926-0.72749 1.6157-1.6255 1.6157s-1.6255-0.72308-1.6255-1.6157 0.72749-1.6157 1.6255-1.6157 1.6255 0.72308 1.6255 1.6157" fill="#009792"/>
</g>
<g transform="translate(0 65.145)">
<mask id="br" fill="white">
<use xlink:href="#j"/>
</mask>
<path d="m47.816 57.604s1.898 0.2597 2.8145 0.53052c5.2698 1.5547 9.6708 5.9301 11.02 11.283l7.9586 21.933-8.3703 6.5655-13.423-40.312z" fill="#FAB08A" mask="url(#br)"/>
<mask id="bq" fill="white">
<use xlink:href="#i"/>
</mask>
<path d="m69.483 90.996c1.0312 2.4575 7.5435 33.159 7.5435 33.159l-6.4247 0.32012-10.336-29.317s8.1852-6.6189 9.217-4.1622" fill="#FAB08A" mask="url(#bq)"/>
<mask id="bp" fill="white">
<use xlink:href="#h"/>
</mask>
<path d="m76.887 123.68-6.2851 0.79438 1.7502 5.9822-0.56704 3.9011c-0.086334 0.90757 0.59812 1.704 1.5036 1.7499l3.7179 0.19165c0.80533 0.040969 1.5133-0.52913 1.65-1.3277l1.0802-6.3363c0.083572-0.49024-0.031771-0.99367-0.31978-1.3985l-2.5299-3.5567z" fill="#FAB08A" mask="url(#bp)"/>
<mask id="bo" fill="white">
<use xlink:href="#g"/>
</mask>
<path d="m25.678 55.861s-1.9097 0.15416-2.8387 0.37289c-5.3479 1.2603-9.9823 5.3843-11.623 10.654l-9.1521 21.457-7.5021 7.0217 7.2072 5.3552c5.4252-3.5046 9.8014-8.4244 12.661-14.235l8.1859-16.634 3.0618-13.991z" fill="#FAB08A" mask="url(#bo)"/>
<mask id="bn" fill="white">
<use xlink:href="#e"/>
</mask>
<path d="m63.183 73.642-0.50765-1.4006c-0.21963-4.9205-2.5859-9.0118-6.2927-12.196 0 0-4.8582-3.5657-9.5002-4.0844l-18.916-1.427c-4.1945-0.18818-9.282 2.3054-9.282 2.3054-3.2621 1.979-5.8479 5.0836-6.9869 8.7431l-1.7598 4.124c1.4787 3.2296 3.8374 5.9579 6.7845 7.8918l0.26315 31.271h34.382l4.0121-29.108c3.6102-1.9519 7.8032-6.1197 7.8032-6.1197" fill="#004472" mask="url(#bn)"/>
<mask id="bm" fill="white">
<use xlink:href="#d"/>
</mask>
<path d="m57.94 176.94-2.3966-52.838c-0.27765-5.3225-1.7039-10.52-4.1765-15.234h-11.61l0.16024-1.6756-22.269 0.34164c-2.1183 4.8857-3.1557 10.176-3.041 15.504l1.1203 54.026 17.959-0.008332 2.5659-31.507 4.8679 31.639 16.82-0.24859z" fill="#005960" mask="url(#bm)"/>
<mask id="bl" fill="white">
<use xlink:href="#c"/>
</mask>
<path d="m46.946 55.962-18.917-1.4277c-4.1724-0.18679-7.0836 0.89229-8.6617 3.0317 2.4298 3.9782 9.5769 7.1217 18.06 7.6126 7.6755 0.44441 15.481-2.1255 18.824-5.2031-1.5506-1.4325-4.7518-3.5053-9.3055-4.0136" fill="#FAB08A" mask="url(#bl)"/>
<mask id="bk" fill="white">
<use xlink:href="#b"/>
</mask>
<path d="m34.443 47.668c-0.16783 0-0.3329 0.013194-0.49867 0.024998 0.58224-1.009 0.92274-2.1797 0.9255-3.4324 0.006216-2.4436-1.3199-4.633-3.271-5.8516v-0.84438l-5.6877-11.769-4.1648 16.234c-0.10567 0.31595-0.18924 0.64162-0.25002 0.97632-0.073902 0.42497-0.11603 0.82633-0.11603 1.2374 0 1.5395 0.50074 2.9609 1.3454 4.1039 0.43098 0.58329 1.2626 1.0923 2.1687 1.5068 1.7591 0.80688 2.838 2.5817 2.8041 4.5406 0 0.033331-6.907e-4 0.066662-6.907e-4 0.10069-0.0089787 3.6671 2.9727 6.7773 6.5849 6.8627 3.7987 0.089577 6.9054-3.0088 6.9054-6.8446 0-3.781-3.0196-6.846-6.7451-6.846" fill="#FF7900" mask="url(#bk)"/>
<mask id="dq" fill="white">
<use xlink:href="#a"/>
</mask>
<path d="m61.113 68.028c-5.0564 0-9.1556-3.7004-9.1556-8.2647 0-0.35345 0.033152-0.69925 0.080118-1.0409-1.0712 0.6319-2.1162 1.0485-3.0403 1.0402-5.3106-0.049996-8.8344-6.8523-8.8344-6.8523l-4.3119-21.834 15.099-6.0141 2.6377 8.7195c0.70242 2.2366 2.7178 3.699 5.0481 3.8837 3.0866 0.30067 5.8037 2.5901 6.5932 5.8808 0.37642 1.5672 0.25969 3.1366-0.24657 4.5337-0.6741 1.8603 0.032462 3.9928 1.6528 5.0989 0 0 10.393 15.949-2.8628 27.083" fill="#FF7900" mask="url(#dq)"/>
<mask id="dp" fill="white">
<use xlink:href="#bi"/>
</mask>
<path d="m51.237 29.441c-0.78875 5.3211-6.3618 9.2965-13.788 8.6105-7.4261-0.68536-11.84-5.5836-11.668-10.961 0.1996-6.2336 6.071-10.13 13.497-9.4444s12.98 4.8934 11.958 11.795" fill="#FF7900" mask="url(#dp)"/>
<mask id="do" fill="white">
<use xlink:href="#bh"/>
</mask>
<path d="m29.504 42.412-1.6887-0.14652c-2.1238-0.18749-2.7496-3.7456-2.7496-3.7456-0.34119-1.6874 0.87094-3.3428 2.2937-3.1331l2.3013 0.2104-0.15678 6.8148z" fill="#E89561" mask="url(#do)"/>
<mask id="dn" fill="white">
<use xlink:href="#bg"/>
</mask>
<path d="m45.036 44.06 1.7032 0.16457c2.1418 0.20485 3.403-3.1803 3.403-3.1803 0.64095-1.5971-0.26522-3.447-1.7156-3.5011l-2.322-0.21457-1.0685 6.7314z" fill="#E89561" mask="url(#dn)"/>
<mask id="dm" fill="white">
<use xlink:href="#bf"/>
</mask>
<path d="m37.858 59.466c-3.403 0-6.1622-1.3902-6.1622-4.8121v-8.1105h12.324v7.7876c0 3.4213-2.7586 5.135-6.1622 5.135" fill="#FFAB78" mask="url(#dm)"/>
<mask id="dl" fill="white">
<use xlink:href="#be"/>
</mask>
<path d="m31.696 53.288c1.9505 0.66384 4.1751 1.043 6.54 1.043 2.0665 0 4.0211-0.29512 5.7844-0.81105v-8.5903h-12.324v8.3584z" fill="#E89561" mask="url(#dl)"/>
<mask id="dk" fill="white">
<use xlink:href="#bc"/>
</mask>
<path d="m32.457 26.129c-2.5292-0.22984-4.7311 1.7325-4.8396 4.3073l-0.51662 13.031c0.11465 2.8859 4.4977 7.3515 4.4977 7.3515 1.0623 0.84716 2.3566 2.0033 3.7062 2.0728 2.829 0.14513 10.556-3.883 11.659-7.1731l1.3931-11.19c0.56566-3.6261-3.6689-7.2696-6.1746-7.5078-3.7117-0.35345-5.9957-0.55412-9.7247-0.8916" fill="#FAB08A" mask="url(#dk)"/>
<mask id="dj" fill="white">
<use xlink:href="#bb"/>
</mask>
<path d="m31.003 39.838c-0.53251-0.065273-0.91514-0.55621-0.85022-1.0916l0.021411-0.17985c0.065614-0.53538 0.55392-0.91937 1.0864-0.8548 0.53251 0.065273 0.91514 0.5569 0.85022 1.0923l-0.022102 0.17985c-0.064233 0.53468-0.55323 0.92007-1.0857 0.8541" fill="#7F2A1C" mask="url(#dj)"/>
<mask id="di" fill="white">
<use xlink:href="#ba"/>
</mask>
<path d="m42.708 41.271c-0.53251-0.065273-0.91514-0.5569-0.85022-1.0916l0.021411-0.17985c0.065614-0.53538 0.55392-0.92007 1.0864-0.8548 0.53251 0.065273 0.91445 0.55621 0.85022 1.0923l-0.022102 0.17985c-0.064233 0.53468-0.55323 0.91937-1.0857 0.8541" fill="#7F2A1C" mask="url(#di)"/>
<mask id="dh" fill="white">
<use xlink:href="#az"/>
</mask>
<path d="m36.091 48.522c-1.572-0.14374-3.6019-1.393-3.4838-2.6942l7.5553 0.69092c-0.11811 1.3013-2.1128 2.1825-4.0715 2.0033" fill="#F37070" mask="url(#dh)"/>
<mask id="df" fill="white">
<use xlink:href="#ay"/>
</mask>
<path d="m29.88 36.168c0.032462 0.0055551 0.064923 0.0090271 0.098766 0.0090271 0.57533 0.013193 1.1527 0.060412 1.7198 0.14096 0.64371 0.088882 0.85298 0.13888 1.478 0.31317 0.35293 0.098604 0.84608-0.0076383 0.94415-0.35692 0.096694-0.34997-0.23207-0.81036-0.59053-0.90965-0.68377-0.19026-0.95451-0.25762-1.6555-0.35136-1.5278-0.20276-2.7102 0.027776-2.7116 0.58954-6.907e-4 0.33053 0.39299 0.51107 0.71692 0.56524" fill="#7F2A1C" mask="url(#df)"/>
<mask id="de" fill="white">
<use xlink:href="#ax"/>
</mask>
<path d="m40.653 23.541c1.6176 2.6234-0.55599 6.9627-4.8534 9.6916-4.2981 2.729-12.527-2.2957-10.71 0.18887 0.30804 0.42219 0.5553-6.9627 4.8534-9.6916 4.2981-2.7283 9.0927-2.813 10.71-0.18887" fill="#FF7900" mask="url(#de)"/>
<mask id="dd" fill="white">
<use xlink:href="#aw"/>
</mask>
<path d="m45.113 37.985c-0.033843-0.0013888-0.067686-0.0048607-0.10084-0.011805-0.58362-0.10555-1.1776-0.17846-1.7647-0.21734-0.66926-0.04583-0.89028-0.03958-1.5575 0.0020831-0.37642 0.022915-0.85229-0.18262-0.87923-0.5444-0.026936-0.36317 0.40059-0.74647 0.78253-0.76939 0.72935-0.044441 1.016-0.054857 1.744-0.0013888 1.583 0.11666 2.7295 0.58746 2.6156 1.1374-0.067686 0.32359-0.50143 0.41941-0.83986 0.40483" fill="#7F2A1C" mask="url(#dd)"/>
</g>
</g>
</g>
</g>
</svg>
