<svg xmlns="http://www.w3.org/2000/svg" xmlns:xlink="http://www.w3.org/1999/xlink" width="375" height="315" viewBox="0 0 375 315">
    <defs>
        <path id="a" d="M0 0h375v315H0z"/>
    </defs>
    <g fill="none" fill-rule="evenodd">
        <mask id="b" fill="#fff">
            <use xlink:href="#a"/>
        </mask>
        <use fill="#00A7A7" xlink:href="#a"/>
        <g mask="url(#b)">
            <path fill="#118C8C" d="M311.099 178.182c-3.51-1.606-7.683-.919-10.52 1.69-2.836 2.613-3.897 6.814-1.323 9.95.742.902 1.754.708 2.394.068a12.59 12.59 0 0 0 4.746 3.03c3.666 1.268 7.86-2.015 8.892-5.488 1.05-3.527-.914-7.75-4.189-9.25"/>
            <path fill="#1B1D29" d="M335.83 173.887c-1.063-.303-1.758.451-2.171 1.34-.376.806-.691 1.648-1.033 2.47-.232.557-.843 1.51-.822 2.133.017.547.687.918 1.08.484a.56.56 0 0 0 .391.405c.16.148.405.211.628.164.148.464.788.746 1.096.22.792-1.34 3.595-6.427.83-7.216"/>
            <path fill="#F7BC5C" d="M336.857 176.968c-.004-.13-.08-.223-.164-.29-.135-.199-.341-.367-.674-.506-.742-.304-2.031-.873-2.744-.317-.548.426-1.993 3.132-3.367 5.079-5.854 8.285-14.502 12.626-24.54 10.995-2.023-.333-3.924 1.58-4.067 3.494-.17 2.191 1.466 3.738 3.498 4.07 12.327 2.007 24.991-4.192 30.837-15.26.387-.737 1.318-3.8 1.221-7.265"/>
            <path fill="#1B1D29" d="M329.613 168.649c-1.1-.089-1.635.784-1.863 1.74-.21.865-.354 1.754-.527 2.626-.117.59-.53 1.648-.388 2.25.127.536.856.768 1.151.266.089.19.27.3.468.32.186.11.438.127.645.034.236.426.922.577 1.12 0 .51-1.47 2.26-7.009-.606-7.236"/>
            <path fill="#F7BC5C" d="M331.227 171.464a.373.373 0 0 0-.22-.248c-.168-.169-.408-.295-.758-.363-.788-.156-2.162-.46-2.756.228-.45.526-1.336 3.464-2.301 5.643-4.105 9.276-11.728 15.235-21.89 15.61-2.048.076-3.535 2.322-3.304 4.231.27 2.179 2.18 3.376 4.232 3.3 12.483-.46 23.68-9.035 27.229-21.038.236-.797.548-3.983-.232-7.363"/>
            <path fill="#FF7900" d="M315.941 182.982c-3.51-1.606-7.683-.919-10.515 1.69-2.836 2.613-3.902 6.815-1.327 9.946.742.906 1.753.712 2.394.067a12.531 12.531 0 0 0 4.745 3.03c3.667 1.27 7.86-2.01 8.892-5.486 1.05-3.524-.914-7.75-4.189-9.247"/>
            <path fill="#1B1D29" d="M293.87 181.212a110.958 110.958 0 0 1-3.253-4.661c-.447-.678-1.543-.047-1.091.636a110.958 110.958 0 0 0 3.253 4.661c.476.65 1.576.021 1.091-.636"/>
            <path fill="#118C8C" d="M172.398 104.11c-.063-6.019-.151-12.037-.27-18.051-.117-6.018-.227-12.036-.433-18.05-.064-1.876-.198-4.156-2.158-5.058-1.99-.914-4.703-.623-7.102-.72-.956-.038-2.225.649-2.658 1.8-3.178 8.445-3.212 18.269-3.314 27.178-.054 4.484-.32 9.154.127 13.621.165 1.627.64 3.401 2.314 4.067 1.323.522 2.73.025 3.472-1.134 1.151.131 2.298.262 3.444.388 1.306.152 2.81.544 4.121.421 2.525-.236 2.474-2.499 2.457-4.463"/>
            <path fill="#005960" d="M171.404 62.37c-.262-1.48-.118-3.195-1.1-3.389-.99-.194-3.131-.147-4.118-.164-1.37-.025-3.169-.122-4.539-.013-1.26.102-1.222.713-1.315.995-.796 2.381-1.846 5.087-2.022 7.603-.089 1.247.619 1.74 1.8 1.837 2.86.228 5.587-.35 8.47.144 1.125.19 2.381.459 3.064-.692.936-1.568.059-4.615-.24-6.321"/>
            <path fill="#118C8C" d="M85.164 91.997c-.333-2.25-.653-5.26-1.723-7.198-.27-.485-.83-.927-1.551-.856-1.513.152-3.115-.311-4.552.363-1.18.56-1.913 1.648-2.39 2.828-1.399 3.451-1.601 7.535-1.643 11.214-.025 1.973-.046 3.991.105 5.96.084 1.116.223 2.242 1.18 2.966 1.23.932 3.094.485 4.514.405 2.107-.118 4.21-.24 6.317-.358.734-.038 1.193-.548 1.265-1.264.463-4.603-.852-9.521-1.522-14.06"/>
            <path fill="#005960" d="M83.82 84.129c-.581-.978-1.707-1.21-2.769-1.294-1.277-.101-2.853-.009-4.033.552-1.357.645-1.745 2.099-2.162 3.447a.636.636 0 0 0-.013.33c-.164.488.207.943.738.846 1.563-.274 3.123-.337 4.703-.29 1.117.033 2.394.332 3.481.088a.629.629 0 0 0 .438-.443c.245-.91.11-2.41-.383-3.236"/>
            <path fill="#118C8C" d="M119.448 100.936c-.058-2.66-.202-5.327-.467-7.974-.144-1.433-.211-3.05-1.736-3.675-1.884-.775-4.725-.32-6.723-.354-2.288-.038-7.084.177-7.139.173-3.578-.164-4.43 3.545-4.425 6.402 0 .282-.24 9.385.868 12.938.181.57.89.54 1.15.173 1.623.544 4.021.282 5.564.32 2.844.067 5.685-.017 8.525-.118 1.416-.05 3.2.093 4.017-1.31.978-1.678.409-4.72.366-6.575M143.188 100.936c-.05-2.66-.164-5.327-.383-7.974-.118-1.433-.173-3.05-1.416-3.675-1.538-.775-3.86-.32-5.492-.354-1.867-.038-5.782.173-5.828.173-3.633-.093-3.62 3.545-3.612 6.402 0 .282-.198 9.385.708 12.938.143.57.725.54.94.173 1.323.544 3.283.282 4.543.32 2.318.067 4.64-.017 6.958-.118 1.159-.05 2.617.093 3.283-1.31.8-1.678.333-4.72.3-6.575M52.777 213.583a1.058 1.058 0 0 1-1.054-1.062l.05-7.708a1.056 1.056 0 0 1 1.054-1.05c.59.005 1.058.481 1.053 1.062l-.05 7.713a1.055 1.055 0 0 1-1.053 1.045M168.588 213.794a1.055 1.055 0 0 1-1.053-1.062l.046-7.708a1.056 1.056 0 0 1 1.054-1.05c.59.004 1.058.48 1.054 1.062l-.047 7.713a1.055 1.055 0 0 1-1.054 1.045"/>
            <path fill="#005960" d="M48.267 357.113H333.06V211.627H48.267z"/>
            <path fill="#118C8C" d="M48.267 357.56h124.296V211.627H48.267zM-16.051 357.56h53.716V211.627H-16.05zM342.04 357.56h53.717V252.52h-53.716z"/>
            <path fill="#005960" d="M76.394 232.143a5.264 5.264 0 0 1-5.268 5.268 5.267 5.267 0 0 1-5.268-5.268 5.267 5.267 0 1 1 10.536 0M100.838 232.143a5.264 5.264 0 0 1-5.268 5.268 5.267 5.267 0 0 1-5.268-5.268 5.267 5.267 0 1 1 10.536 0M126.268 232.143a5.267 5.267 0 0 1-5.268 5.268 5.264 5.264 0 0 1-5.268-5.268 5.267 5.267 0 0 1 5.268-5.268 5.27 5.27 0 0 1 5.268 5.268"/>
            <path fill="#00A7A7" d="M255.7 239.928h69.859v-20.651H255.7zM181.438 239.928h68.64v-20.651h-68.64z"/>
            <path fill="#005960" d="M152.397 232.143a5.267 5.267 0 0 1-5.268 5.268 5.264 5.264 0 0 1-5.268-5.268 5.267 5.267 0 1 1 10.536 0M71.126 307.952h77.006v-42.355H71.126z"/>
            <path fill="#00A7A7" d="M321.374 245.81H178.98v104.122h147.307V245.811h-4.914zm-137.479 99.204h66.92v-94.285h-66.92v94.285zm71.84 0h65.639v-94.285h-65.64v94.285z"/>
            <path fill="#118C8C" d="M168.588 203.978c-15.036.375-30.663.561-45.705.683-14.885.122-29.77-.287-44.656-.62-8.374-.185-17.16-.054-25.535-.24-1.087-.02-1.087 1.665 0 1.686 29.86.666 60.093 1.222 89.961.476 8.446-.21 17.486-.088 25.935-.299 1.084-.03 1.088-1.715 0-1.686M345.784 105.968c-15.037.375-30.665.565-45.706.687-12.474.097-24.949-.173-37.424-.46-2.41-.054-4.82-.109-7.232-.16-8.378-.19-3.645 1.914 7.342 2.07 19.049.27 38.14.324 57.08-.152 8.45-.211 17.49-.089 25.94-.3 1.083-.028 1.083-1.715 0-1.685"/>
            <path fill="#118C8C" d="M298.253 104.333c-.96-1.808-3.068-3.806-4.935-1.745-1.921 2.116-1.74 5.732-1.681 8.366.088 4.184.248 8.37.434 12.554.367 8.349.99 16.668 1.547 25 .016.224.03.443.042.666-4.147-.11-8.518-.097-12.58.796-2.803.616-5.07 2.2-5.761 5.096-1.488 6.212 4.361 10.422 10.03 10.039 7.472-.506 10.911-6.908 10.903-13.74-.009-4.513-.582-9.052-.877-13.553a685.777 685.777 0 0 1-.759-13.798c-.227-4.982-.602-10.03-.493-15.016.025-1.1.03-2.482.497-3.502.742-1.618 1.282-.32 1.775.796 1.053 2.365 1.34 4.885 1.016 7.443-.207 1.614 2.296 1.96 2.503.345.43-3.35-.063-6.75-1.66-9.747M270.063 148.55c-1.268-2.28-3.443-3.776-5.715-4.15.039-.566.055-1.135.055-1.712.017-2.6-.012-5.2-.05-7.8a471.258 471.258 0 0 0-.953-23.408c.48-3 1.058-6.14.78-9.082-.211-2.204-1.622-5.34-4.337-4.943-2.76.404-2.6 3.472-2.191 5.52.644 3.22 1.572 6.078 3.152 8.99-.03.22.615 8.91.738 12.062.151 3.869.252 7.737.307 11.606.038 2.697.472 5.938.072 8.812-1.521.317-2.959 1.214-4.05 2.795-2.457 3.557-2.542 8.226-1.665 12.474.258 1.24.746 2.504 1.26 3.658 2.18 4.885 7.852 6.874 11.43 2.175 3.38-4.438 3.86-12.15 1.167-16.997M178.948 107.224c-15.037.38-30.665.564-45.706.687-14.885.122-29.774-.286-44.656-.62-8.374-.185-17.16-.054-25.535-.24-1.087-.025-1.087 1.66 0 1.686 29.86.662 60.093 1.222 89.96.476 8.447-.21 17.487-.088 25.937-.303 1.083-.026 1.087-1.712 0-1.686"/>
            <path fill="#FAA48F" d="M186.601 145.87c-.691-1.576-2.212-2.276-3.84-2.537-.256-.181-.585-.283-.998-.253-12.63.83-25.3.173-37.766-2.027-1.108-.194-1.884.598-2.069 1.454-.384.834-1.69 6.575-1.37 7.565.388 1.192 4.388 2.398 6.887 2.942 6.916 1.5 33.635 5.406 37.166 1.394l.203-.037c1.033-.186 1.361-1.202 1.121-2.061.902-1.964 1.475-4.594.666-6.44"/>
            <path fill="#FFEDDC" d="M151.057 140.231c.118-2.39-.19-4.733-1.088-7.013-.86-2.183-2.63-5.786-5.2-6.317-2.685-.56-3.768 1.707-3.561 3.991.075.839.244 1.652.497 2.44a37.56 37.56 0 0 0-1.016-.64c-2.086-1.257-4.357-2.314-6.684-3.035-3.805-1.184-8.273-.72-10.17 2.971-3.325 4.919-2.422 11.733 1.277 16.352 2.222 2.773 5.243 4.805 8.476 6.225 3.451 1.525 10.751.354 13.385 3.25.666.729 2.225.644 2.646-.342 2.55-5.98 4.607-8.088 4.607-16.866 0-2.31-3.098-.822-3.17-1.016"/>
            <path fill="#F7705C" d="M133.028 176.517H121.69c-8.552 0-15.489-6.933-15.489-15.488v-31.043h42.309v31.043c0 8.555-6.933 15.488-15.483 15.488"/>
            <path fill="#FAA48F" d="M166.427 159.584c-.692-1.577-2.209-2.276-3.84-2.542-.253-.177-.585-.278-.999-.253-12.626.835-25.299.177-37.765-2.022-1.109-.198-1.884.598-2.065 1.453-.388.835-1.69 6.575-1.37 7.561.384 1.197 4.383 2.403 6.882 2.942 6.92 1.504 33.636 5.411 37.172 1.395.067-.009.134-.021.202-.034 1.032-.186 1.357-1.201 1.117-2.06.902-1.965 1.479-4.594.666-6.44"/>
            <path fill="#1D2342" d="M196.918 133.652c-.371-1.171-1.61-1.997-2.85-1.622-1.93.59-3.864 1.176-5.79 1.766-1.736.535-3.587 1.045-4.956 2.305-1.05.965-1.698 2.17-2.25 3.464-.148.346-.498.92-.713 1.42-.172-.147-.345-.29-.522-.43-2.407-1.854-5.378-1.635-7.388.709-2.36 2.747-1.467 6.852-.67 10.034.307 1.239 1.302 1.72 2.284 1.644a4.09 4.09 0 0 0 2.057 2.002c2.04.902 3.885-1.15 3.493-2.731.216.046.439.08.67.1 3.36.317 5.526-2.376 6.71-5.183.577-1.366.944-2.84 1.622-4.16.835-1.626 2.003-1.908 3.637-2.47 2.93-1.006 5.761-3.425 4.666-6.848"/>
            <path fill="#004472" d="M257.955 327.945c-1.091-11.648-3.275-23.208-6.595-34.427-1.724-5.816-4.105-11.451-5.635-17.317-1.429-5.496-2.225-12.58-3.27-18.139-3.376-17.937-1.172-30.319-12.357-47.602-2.621-5.972-5.403-8.863-7.088-17.936-1.69-9.074-31.794-4.59-31.769-2.057.22 21.949.898 49.047-.61 70.95-1.472 21.367-5.61 42.388-10.76 63.148a956.229 956.229 0 0 1-4.51 17.389c-.78 2.89-4.446 15.927-4.539 16.508-.535.813 7.864 5.243 8.488 4.379.856-1.193 4.24-6.073 5.066-7.283a176.834 176.834 0 0 0 13.532-23.424c5.062-10.552 9.133-21.586 12.062-32.914 1.517-5.875 2.372-11.931 4.084-17.747 1.087-3.709 2.646-7.232 4.374-10.675 9.255 18.56 15.518 38.047 21.6 57.885a903.86 903.86 0 0 1 5.077 17.228c.822 2.879 2.462 17.996 2.685 18.544-.042.97 10.32.43 10.41-.632.122-1.459.122-7.367.21-8.83.19-3.165.296-6.334.312-9.507a177.89 177.89 0 0 0-.767-17.54"/>
            <path fill="#FAA48F" d="M226.297 173.066c-.68-3.102-5.29-2.28-5.382.724-.026.864-.055 1.724-.089 2.584a3.155 3.155 0 0 0-.678.122c-.805-.653-2.032-.632-3.014-.114-.682-1.31-2.558-1.69-3.835-1.053-1.091-.793-2.714-.713-3.658.286a2.55 2.55 0 0 0-1.72-.488c-.088-.325-.168-.653-.256-.974-.439-1.564-2.25-2.314-3.654-1.83-.038-.252-.076-.5-.118-.754-.32-2.06-3.27-2.592-4.577-1.205a9.359 9.359 0 0 0-1.572 2.284c-.03-2.178-.064-4.357-.093-6.536-.05-3.523-5.529-3.536-5.479 0 .114 7.919.08 20.68.527 28.59.182 3.203 1.104 6.3 4.071 7.991 2.715 1.547 5.184-.826 8.257-.666 6.709.358 13.136 1.513 20.182-.818.527-.172.746-5.103.88-7.139.127-1.888 1.067-17.068.208-21.004"/>
            <path fill="#FAB08A" d="M206.868 113.453c-.556-2.638-.27-5.264-.586-7.772a13.775 13.775 0 0 1-2.402-2.55 30.461 30.461 0 0 1-1.281-1.875c-.008-.013-.017-.03-.026-.042-.134-.215-.269-.434-.4-.653-.948-1.627-1.732-3.401-1.976-5.133-.38-2.706 1.685-6.01.649-8.526-.578-1.403-2.221-2.065-3.317-3.022-.995-.864-1.648-1.93-2.175-3.131-.603-1.387-2.705-6.234-2.655-8.551-.097-.982-.173-1.762-.025-2.491-2.116 2.558-2.752 6.676-2.938 9.84-.176 3.014-.337 5.913-.872 8.89-.501 2.772.775 14.64 2.457 16.583 1.589 1.833 4.43 2.048 7.16 2.03 1.446-.003 3.026-.041 4.615-.185l1.652 11.287c.624 4.248 4.05 3.645 8.294 3.021.143-.017.278-.046.418-.071-3.284-1.252-5.863-4.194-6.592-7.65"/>
            <path fill="#004472" d="M234.177 144.98c-1.167-18.151-4.56-20.882-13.717-26.87-1.054-.687-2.082-.531-2.833.046a10.566 10.566 0 0 0-4.412-1.378c-3.245-.257-6.183 1.091-8.306 3.304a2.933 2.933 0 0 0-.582.468c-3.726 3.83-6.984 8.066-10.102 12.398-2.917 4.05-5.555 8.476-8.973 12.125-1.567 1.67-3.3 3.035-5.487 3.785-2.327.797-4.745 1.201-7.013 2.179a14.82 14.82 0 0 0-5.247 3.827c-.231.265-.45.543-.666.822-.725-.768-2.077-1.69-2.36-1.86-1.77-1.04-4.05-1.588-6.06-.973-2.347.72-3.064 2.634-3.304 4.86-.278 2.553-.434 5.124-.543 7.69-.106 2.475-.468 5.29.236 7.713.572 1.968 2.111 3.532 4.197 3.726 2.68.248 3.965-1.644 5.597-3.342 1.517-1.585 3.776-.33 5.588.13 2.512.64 5.1.717 7.65.224 2.874-.56 5.107-2.217 7.779-3.25 2.128-.821 3.014-.08 5.188-.607.396 1.716-.261 6.196 1.732 7.78 4.374 3.477 25.316 4.375 35.523 4.118 1.404-.038 2.84-1.23 2.74-2.74-.207-2.967-.055-5.904.657-8.8.683-2.785 3.237-17.363 2.718-25.374"/>
            <path fill="#FF7900" d="M242.779 96.882c-1.736-1.281-3.287-1.745-4.53-3.6a19.801 19.801 0 0 1-2.883-6.536c-1.108-4.682-1.045-9.268-3.405-13.612-2.124-3.911-5.597-7.287-9.58-9.276-5.095-2.55-10.628-2.74-16.208-2.124-3.363.374-6.533 1.386-8.981 3.329-4.897 3.186-4.767 4.316-4.493 7.135-.05 2.318 2.053 7.164 2.655 8.55.527 1.202 1.18 2.268 2.175 3.132 1.095.957 2.74 1.619 3.316 3.022 1.037 2.516-1.028 5.82-.648 8.526.379 2.71 2.086 5.537 3.683 7.704a13.789 13.789 0 0 0 2.402 2.55c.316 2.507.03 5.133.586 7.77.742 3.507 3.376 6.478 6.726 7.704 4.139 1.514 8.218.09 10.743-2.768 1.13.56 2.339.952 3.67 1.083 2.854.282 5.875-.552 8.632-1.214 4.935-1.188 9.533-3.097 10.43-8.669.717-4.455-.501-9.92-4.29-12.706"/>
            <path fill="#FFEDDC" d="M130.882 153.94c.122-2.385-.19-4.728-1.087-7.012-.856-2.179-2.626-5.783-5.2-6.318-2.681-.556-3.768 1.712-3.562 3.995.076.84.245 1.653.498 2.44-.334-.219-.67-.433-1.016-.64-2.087-1.256-4.358-2.314-6.684-3.039-3.806-1.18-8.273-.716-10.166 2.976-3.329 4.918-2.427 11.729 1.277 16.352 2.222 2.773 5.243 4.8 8.472 6.225 3.451 1.52 10.75.354 13.384 3.249.666.73 2.23.645 2.651-.341 2.546-5.98 4.607-8.088 4.607-16.87 0-2.306-3.098-.818-3.174-1.016"/>
            <path fill="#00C9C3" d="M242.973 211.438c-.607-4.417-5.234-6.431-9.116-7.017-1.193-.181-2.394-.261-3.594-.376-.743-.071-1.501-.143-2.239-.282 4.114.072 12.812-.067 11.122-4.336-.855-2.154-3.944-1.315-5.483-.73-1.416.54-2.747 1.29-4.088 1.982-1.205.623-2.524 1.091-3.35 2.204-.156 0-.261.059-.329.147a1.136 1.136 0 0 0-.295-.038c-.792.055-1.656.851-2.335 1.222-.337.186-.678.363-1.02.535-1.285-3.986-3.384-7.686-5.42-11.323-2.873-5.142-5.356-10.318-6.734-16.078-1.424-5.96-1.71-12.096-1.011-18.177.092-.8-.317-1.294-.877-1.496-1.774 3.013-4.45 5.495-7.177 7.733-2.17 1.778-4.375 3.67-7.156 4.383-1.138.29-2.264.388-3.38.324.185 33.345-6.511 66.163-10.212 99.19-.998 8.915-2.71 18.527-.249 27.336.321 1.138 1.497 1.437 2.479 1.007 3.928-1.728 7.928-3.574 11.075-6.566 3.562-3.38 4.75-7.717 5.55-12.416 1.8-10.587 4.725-20.962 8.969-30.837 2.094-4.872 4.488-9.6 7.135-14.194 2.44-4.231 5.032-8.416 6.692-13.04 1.644-4.58 2.015-9.401.81-14.134-.076-.3-.156-.599-.245-.898a36.165 36.165 0 0 0 1.534-.81c.518-.29.982-.437 1.43-.492-.01.016-.018.033-.027.05a3.98 3.98 0 0 0-.084.203c-.206.5.607.72.814.227-.114.274 2.28 3.57 2.608 4.105.612 1.007 1.248 2.015 2.028 2.904a12.449 12.449 0 0 0 5.141 3.498c3.216 1.154 7.64.594 7.034-3.81m-11.687-10.692c.961-.498 1.926-1.003 2.95-1.358.346-.134.7-.24 1.063-.324 1.133-.45 2.701-.248 2.882.75.084.473.051 1.248-.974 1.977-1.373 1.092-4.243 1.016-5.857 1.066-1.34.047-2.68.034-4.02.03 1.027-.978 2.756-1.53 3.956-2.141m10.225 13.44c-.865 1.12-2.93.89-4.122.615-2.103-.48-4.067-1.635-5.563-3.178-1.576-1.618-2.529-3.687-3.764-5.554-.392-.59-.792-1.362-1.386-1.775.763.118 1.55.371 2.533.485 4.337.514 9.743.485 12.243 4.809.767 1.327 1.074 3.283.059 4.598"/>
            <path fill="#D4604F" d="M131.957 132.818c2.14.021 18.151.034 16.428-3.228-.793-1.5-6.073-1.813-8.012-1.91-4.139-.206-8.298-.235-12.44-.227-4.287.013-8.59.063-12.867.316-1.91.11-3.815.282-5.702.56-1.113.165-2.21.19-2.892 1.071-.329.43-.4.906-.265 1.361.164.56.645 1.062 1.37 1.185 3.957.674 7.935.678 11.943.724"/>
            <path fill="#005960" d="M99.089 93.569a11.57 11.57 0 0 0-.097.843c6.646.088 13.465.29 20.035-.788-.02-.22-.034-.439-.06-.662-.003-.059-.012-.122-.016-.181-6.507 1.083-13.27.877-19.862.788M126.516 93.329c-.021.278-.034.56-.042.839 5.47.206 10.894-.607 16.335-1.155-.021-.274-.042-.556-.072-.835-5.403.544-10.789 1.349-16.22 1.15"/>
            <path fill="#00A7A7" d="M259.687 153.52c1.353.1 1.513-2.003.16-2.104-1.352-.1-1.512 2.002-.16 2.103M263.935 153.275c.57.017 1.084-.384 1.13-.974l.004-.068c.042-.551-.404-1.112-.973-1.128-.57-.022-1.083.379-1.13.969l-.004.071c-.042.548.404 1.113.973 1.13M267.315 152.727c.359.417 1.07.501 1.484.11.417-.388.497-1.037.114-1.484-.021-.025-.046-.05-.068-.076-.358-.417-1.07-.501-1.483-.114-.418.392-.497 1.041-.114 1.488.021.025.042.05.067.076M259.906 155.475c-1.348-.106-1.508 1.997-.156 2.098 1.353.101 1.513-1.997.156-2.098M265.124 156.36l.004-.072c.042-.548-.4-1.113-.97-1.13-.572-.016-1.086.384-1.129.974l-.004.067c-.042.553.4 1.113.97 1.13.573.021 1.087-.38 1.129-.97M268.862 156.895c.413-.392.493-1.041.11-1.488-.021-.025-.043-.05-.063-.076-.363-.417-1.071-.497-1.488-.11-.418.393-.493 1.042-.11 1.484l.063.076c.358.422 1.071.502 1.488.114M260.328 160.005c-1.349-.105-1.509 1.998-.156 2.099 1.353.101 1.513-1.998.156-2.099M264.58 159.69c-.573-.018-1.087.383-1.13.973l-.003.067c-.042.552.4 1.113.969 1.13.573.02 1.087-.38 1.13-.97l.004-.071c.042-.549-.4-1.113-.97-1.13M269.393 159.938c-.02-.026-.042-.051-.063-.076-.363-.417-1.07-.498-1.488-.11-.417.392-.493 1.041-.11 1.484l.064.076c.358.421 1.07.501 1.488.113.413-.391.493-1.04.11-1.487"/>
            <path fill="#00C9C3" d="M304.625 187.858a25.015 25.015 0 0 0-.476-.265c-1.892-1.058-2.806-2.255-3.906-4.093-1.248-2.094-3.309-4.644-6.056-4.446-2.36.173-3.532 2.406-3.465 4.573.042 1.277.473 2.457 1.105 3.557 1.34 2.339 1.656 3.979 1.285 6.667-.03.194-.004.358.05.51-.118 1.597.325 3.313 1.497 4.969.505.716 1.386.443 1.74-.14.354.245.734.447 1.125.595.224.084.455.156.696.22 2.613 1.77 6.342 2.228 8.947.61 5.5-3.422 2.386-10.62-2.542-12.757"/>
            <path fill="#FFEDDC" d="M311.078 211.37c-11.404 0-20.65-9.242-20.65-20.646v-.025h41.296v.025c0 11.404-9.246 20.646-20.646 20.646"/>
            <path fill="#1B1D29" d="M308.208 179.227c-.261.156-1.003.557-1.184.072-.19-.502-1.003-.283-.814.223.409 1.092 1.606.915 2.424.434.467-.274.046-1.003-.426-.729"/>
            <path fill="#00C9C3" d="M277.232 207.51a.375.375 0 0 0 .089-.282c-.123-1.299-1.324-2.146-2.491-2.735.24-.072.417-.325.236-.59-2.196-3.22-7.262-2.5-10.342-1.197-.042.016-.068.042-.097.067-.017-.004-.03-.009-.047-.009-.67-.117-2.452-.345-3.793-.092-1.955-.691-4.147-.885-5.719-.57-.535.106-.307.92.224.814 1.096-.223 2.693-.122 4.248.274-.185.165-.316.37-.362.624a3.55 3.55 0 0 0-.945.097c-.527.122-.303.935.224.809.527-.122 1.091-.084 1.664.06-.375-.119-.775.37-.43.69-.185.03-.387.05-.59.076a10.01 10.01 0 0 0-3.055-1.235c-.527-.118-.754.696-.223.814a9.27 9.27 0 0 1 2.136.758 1.322 1.322 0 0 0-.413.32l-.931.152a60.528 60.528 0 0 0-2.31-1.504c-.463-.287-.884.442-.425.729.51.312 1.007.64 1.509.97-.426.041-.919.07-1.13.458-.244.451.384.848.674.49.034 0 .114-.022.249-.06.084-.017.169-.03.253-.042l.898-.147.08-.013c.455.312.906.62 1.352.944.01.004.013.009.022.013.054.253.328.467.62.3a29.21 29.21 0 0 1 2.717-1.413l.021.034a4.885 4.885 0 0 0-.012.038c-.37.215-.733.455-1.083.716-.295.215-.253.839.21.784a20.357 20.357 0 0 0 1.69-.265c.026.042.05.08.072.122.228.438.839.126.763-.295.62-.143 1.23-.325 1.838-.527.257.025.513.025.766.013-.518.236-1.049.463-1.61.644-.514.169-.294.982.224.814 1.176-.38 2.246-.999 3.388-1.424.072.126.143.252.211.383.232.455.877.105.75-.341 1.294.172 2.647.303 3.848.062.089.047.177.085.261.136.341.198.65-.127.624-.426.704.139 1.403.303 2.099.472.527.126.75-.687.223-.813a53.747 53.747 0 0 0-2.065-.468.408.408 0 0 0-.177-.13c-.35-.136-.7-.266-1.045-.401.198.046.392.093.577.135.696.168 3.806.842 3.81 1.673 0 .543.843.543.843 0 0-.186-.047-.354-.118-.506m-2.976-3.287c-.092-.042-.185-.085-.273-.122-1.99-.86-4.097-1.037-6.217-.675a.346.346 0 0 0-.248.156c-.472-.19-.961-.354-1.454-.489 2.63-.868 6.465-1.218 8.192 1.13m-6.342 1.374a11.87 11.87 0 0 0-1.02-.038c-.013-.017-.02-.03-.034-.042a9.55 9.55 0 0 1 1.1-.051.353.353 0 0 0-.046.13m-1.345-1.45c.439.157.864.325 1.269.52-.586.012-1.159.067-1.677.125a9.641 9.641 0 0 0-.772-.657 5.807 5.807 0 0 0-.619-.387c.932.172 1.669.354 1.8.4m-3.562-.662a.626.626 0 0 0-.063.24c-.147-.1-.3-.198-.455-.286.168.013.345.03.518.046m-2.958.426c.084-.181.295-.308.577-.388 1.164.417 2.221 1.016 2.916 1.787-.084.026-.172.05-.257.076-.99-.666-2.12-1.248-3.236-1.475m-1.74 3.666a.476.476 0 0 0-.119-.126c-.164-.118-.328-.228-.493-.346.16.038.329-.012.417-.172a.316.316 0 0 0 .181-.278c.131-.102.346-.173.616-.233.105.068.21.127.312.199.295.206.573-.038.606-.316.211-.017.43-.03.641-.038l.114.139c-.776.354-1.534.75-2.276 1.171m2.782-2.14c-.072 0-.152.004-.236.004a14.761 14.761 0 0 0-.569-.569.404.404 0 0 0-.152-.089 7.26 7.26 0 0 1 1.593.632c-.21.005-.426.013-.636.021m12.972.414c-1.067-.338-2.424-.725-3.713-.814a5.212 5.212 0 0 0-.578-.185 8.885 8.885 0 0 0-1.087-.708 9.654 9.654 0 0 1 3.763.303c.978.278 3.12 1.058 3.81 2.179-.724-.38-1.64-.598-2.195-.775"/>
            <path fill="#FFEDDC" d="M280.844 211.627h-35.962a4.169 4.169 0 0 1 4.164-4.168h27.634a4.165 4.165 0 0 1 4.164 4.168"/>
        </g>
    </g>
</svg>
