<?xml version="1.0" encoding="UTF-8"?>
<svg width="49px" height="45px" viewBox="0 0 49 45" version="1.1" xmlns="http://www.w3.org/2000/svg" xmlns:xlink="http://www.w3.org/1999/xlink">
    <!-- Generator: sketchtool 51.2 (57519) - http://www.bohemiancoding.com/sketch -->
    <title>77910ED2-0F17-4F3E-9E8F-8E3EC9F4393D</title>
    <desc>Created with sketchtool.</desc>
    <defs></defs>
    <g id="Symbols" stroke="none" stroke-width="1" fill="none" fill-rule="evenodd">
        <g id="plans_selection" transform="translate(-401.000000, -25.000000)" fill="#00A7A7" fill-rule="nonzero">
            <g id="pharmacy" transform="translate(401.000000, 25.000000)">
                <path d="M48.206044,16.7999362 L25.737927,0.459574468 C24.9209377,-0.153191489 24.1038526,-0.153191489 23.2868632,0.459574468 L0.81874617,16.7999362 C-0.815328298,17.8212447 0.205980213,20.4765319 2.04427808,20.4765319 L6.12941638,20.4765319 L6.12941638,42.9446489 C6.12941638,44.1701809 6.94640574,44.9871702 8.17193766,44.9871702 L40.8527568,44.9871702 C42.0782887,44.9871702 42.8952781,44.1701809 42.8952781,42.9446489 L42.8952781,20.4765319 L46.9804164,20.4765319 C48.81881,20.4765319 49.8400228,17.8212447 48.206044,16.7999362 Z M24.5123951,40.9021277 C17.7719696,40.9021277 12.257076,35.387234 12.257076,28.6468085 C12.257076,21.906383 17.7719696,16.3914894 24.5123951,16.3914894 C31.2528206,16.3914894 36.7677143,21.906383 36.7677143,28.6468085 C36.7677143,35.387234 31.2528206,40.9021277 24.5123951,40.9021277 Z" id="Shape"></path>
                <polygon id="Shape" points="27.2754468 26.1377234 27.2754468 21 22.1377234 21 22.1377234 26.1377234 17 26.1377234 17 31.2754468 22.1377234 31.2754468 22.1377234 36.4131702 27.2754468 36.4131702 27.2754468 31.2754468 32.4131702 31.2754468 32.4131702 26.1377234"></polygon>
            </g>
        </g>
    </g>
</svg>