<?xml version="1.0" encoding="UTF-8"?>
<svg width="459px" height="300px" viewBox="0 0 459 300" version="1.1" xmlns="http://www.w3.org/2000/svg" xmlns:xlink="http://www.w3.org/1999/xlink">
    <!-- Generator: sketchtool 51.1 (57501) - http://www.bohemiancoding.com/sketch -->
    <title>FB4CB996-CEEF-4856-AFE1-82D491F0312A</title>
    <desc>Created with sketchtool.</desc>
    <defs>
        <polygon id="path-1" points="0.323710864 0.226154074 0.323710864 1.15936889 9.71958768 10.5754311 11.3591719 10.5754311 1.03159367 0.226154074"></polygon>
    </defs>
    <g id="Web" stroke="none" stroke-width="1" fill="none" fill-rule="evenodd">
        <g id="Hospital-Plan" transform="translate(-70.000000, -298.000000)">
            <g id="Group" transform="translate(70.000000, 298.000000)">
                <polygon id="Fill-1" fill="#009792" points="25.5363559 279.68 65.3430282 279.68 65.3430282 126.903704 25.5363559 126.903704"></polygon>
                <polygon id="Fill-2" fill="#009792" points="65.3430282 127.28 25.5363559 127.28 25.5363559 114.411802 45.439692 105.831111 65.3430282 114.411802"></polygon>
                <polygon id="Fill-3" fill="#009792" points="65.3430282 279.68 89.3772455 279.68 89.3772455 126.903704 65.3430282 126.903704"></polygon>
                <polygon id="Fill-4" fill="#139296" points="33.798118 144.965926 55.9546621 144.965926 55.9546621 138.568889 33.798118 138.568889"></polygon>
                <polygon id="Fill-5" fill="#139296" points="33.798118 157.76 55.9546621 157.76 55.9546621 151.362963 33.798118 151.362963"></polygon>
                <polygon id="Fill-6" fill="#139296" points="33.798118 132.171852 55.9546621 132.171852 55.9546621 125.774815 33.798118 125.774815"></polygon>
                <polygon id="Fill-7" fill="#139296" points="33.798118 170.554074 55.9546621 170.554074 55.9546621 164.157037 33.798118 164.157037"></polygon>
                <polygon id="Fill-8" fill="#139296" points="33.798118 183.348148 55.9546621 183.348148 55.9546621 176.951111 33.798118 176.951111"></polygon>
                <polygon id="Fill-9" fill="#139296" points="27.7895637 202.162963 49.9461078 202.162963 49.9461078 195.765926 27.7895637 195.765926"></polygon>
                <polygon id="Fill-10" fill="#139296" points="27.7895637 214.957037 49.9461078 214.957037 49.9461078 208.56 27.7895637 208.56"></polygon>
                <polygon id="Fill-11" fill="#139296" points="27.7895637 227.751111 49.9461078 227.751111 49.9461078 221.354074 27.7895637 221.354074"></polygon>
                <polygon id="Fill-12" fill="#139296" points="27.7895637 240.545185 49.9461078 240.545185 49.9461078 234.148148 27.7895637 234.148148"></polygon>
                <polygon id="Fill-13" fill="#139296" points="27.7895637 253.339259 49.9461078 253.339259 49.9461078 246.942222 27.7895637 246.942222"></polygon>
                <polygon id="Fill-14" fill="#139296" points="27.7895637 266.133333 49.9461078 266.133333 49.9461078 259.736296 27.7895637 259.736296"></polygon>
                <polygon id="Fill-15" fill="#11868A" points="66.0940975 203.668148 70.9760479 203.668148 70.9760479 195.765926 66.0940975 195.765926"></polygon>
                <polygon id="Fill-16" fill="#11868A" points="66.0940975 216.462222 70.9760479 216.462222 70.9760479 208.56 66.0940975 208.56"></polygon>
                <polygon id="Fill-17" fill="#11868A" points="66.0940975 229.256296 70.9760479 229.256296 70.9760479 221.354074 66.0940975 221.354074"></polygon>
                <polygon id="Fill-18" fill="#11868A" points="66.0940975 242.05037 70.9760479 242.05037 70.9760479 234.148148 66.0940975 234.148148"></polygon>
                <polygon id="Fill-19" fill="#11868A" points="66.0940975 254.844444 70.9760479 254.844444 70.9760479 246.942222 66.0940975 246.942222"></polygon>
                <polygon id="Fill-20" fill="#11868A" points="66.0940975 267.638519 70.9760479 267.638519 70.9760479 259.736296 66.0940975 259.736296"></polygon>
                <polygon id="Fill-21" fill="#009792" points="6.38408896 279.68 25.5363559 279.68 25.5363559 126.903704 6.38408896 126.903704"></polygon>
                <polygon id="Fill-22" fill="#11868A" points="7.5106929 203.668148 12.3926433 203.668148 12.3926433 195.765926 7.5106929 195.765926"></polygon>
                <polygon id="Fill-23" fill="#11868A" points="7.5106929 216.462222 12.3926433 216.462222 12.3926433 208.56 7.5106929 208.56"></polygon>
                <polygon id="Fill-24" fill="#11868A" points="7.5106929 229.256296 12.3926433 229.256296 12.3926433 221.354074 7.5106929 221.354074"></polygon>
                <polygon id="Fill-25" fill="#11868A" points="7.5106929 242.05037 12.3926433 242.05037 12.3926433 234.148148 7.5106929 234.148148"></polygon>
                <polygon id="Fill-26" fill="#11868A" points="7.5106929 254.844444 12.3926433 254.844444 12.3926433 246.942222 7.5106929 246.942222"></polygon>
                <polygon id="Fill-27" fill="#11868A" points="7.5106929 267.638519 12.3926433 267.638519 12.3926433 259.736296 7.5106929 259.736296"></polygon>
                <polygon id="Fill-28" fill="#009792" points="209.172797 285.700741 248.97947 285.700741 248.97947 132.924444 209.172797 132.924444"></polygon>
                <path d="M248.97947,148.540741 L209.172797,148.540741 L209.172797,102.530112 L225.720484,77.0241244 C226.922845,75.1708506 229.399926,74.6431811 231.2532,75.8455418 C231.724461,76.1512852 232.126039,76.552863 232.431783,77.0241244 L248.97947,102.530112 L248.97947,148.540741 Z" id="Fill-29" fill="#009792"></path>
                <polygon id="Fill-30" fill="#009792" points="407.079555 154.74963 367.272883 154.74963 367.272883 120.408096 387.176219 111.851852 407.079555 120.408096 407.079555 133.24001"></polygon>
                <polygon id="Fill-31" fill="#009792" points="248.97947 285.700741 268.131737 285.700741 268.131737 132.924444 248.97947 132.924444"></polygon>
                <polygon id="Fill-32" fill="#139296" points="217.810094 150.986667 239.966638 150.986667 239.966638 144.58963 217.810094 144.58963"></polygon>
                <polygon id="Fill-33" fill="#139296" points="217.810094 163.780741 239.966638 163.780741 239.966638 157.383704 217.810094 157.383704"></polygon>
                <polygon id="Fill-34" fill="#139296" points="217.810094 176.574815 239.966638 176.574815 239.966638 170.177778 217.810094 170.177778"></polygon>
                <polygon id="Fill-35" fill="#139296" points="217.810094 189.368889 239.966638 189.368889 239.966638 182.971852 217.810094 182.971852"></polygon>
                <polygon id="Fill-36" fill="#139296" points="217.810094 202.162963 239.966638 202.162963 239.966638 195.765926 217.810094 195.765926"></polygon>
                <polygon id="Fill-37" fill="#139296" points="217.810094 214.957037 239.966638 214.957037 239.966638 208.56 217.810094 208.56"></polygon>
                <polygon id="Fill-38" fill="#139296" points="217.810094 227.751111 239.966638 227.751111 239.966638 221.354074 217.810094 221.354074"></polygon>
                <polygon id="Fill-39" fill="#139296" points="217.810094 240.545185 239.966638 240.545185 239.966638 234.148148 217.810094 234.148148"></polygon>
                <polygon id="Fill-40" fill="#139296" points="217.810094 253.339259 239.966638 253.339259 239.966638 246.942222 217.810094 246.942222"></polygon>
                <polygon id="Fill-41" fill="#139296" points="217.810094 266.133333 239.966638 266.133333 239.966638 259.736296 217.810094 259.736296"></polygon>
                <polygon id="Fill-42" fill="#11868A" points="256.114628 165.285926 260.996578 165.285926 260.996578 157.383704 256.114628 157.383704"></polygon>
                <polygon id="Fill-43" fill="#11868A" points="256.114628 190.874074 260.996578 190.874074 260.996578 182.971852 256.114628 182.971852"></polygon>
                <polygon id="Fill-44" fill="#11868A" points="256.114628 203.668148 260.996578 203.668148 260.996578 195.765926 256.114628 195.765926"></polygon>
                <polygon id="Fill-45" fill="#11868A" points="256.114628 216.462222 260.996578 216.462222 260.996578 208.56 256.114628 208.56"></polygon>
                <polygon id="Fill-46" fill="#11868A" points="256.114628 229.256296 260.996578 229.256296 260.996578 221.354074 256.114628 221.354074"></polygon>
                <polygon id="Fill-47" fill="#11868A" points="256.114628 242.05037 260.996578 242.05037 260.996578 234.148148 256.114628 234.148148"></polygon>
                <polygon id="Fill-48" fill="#11868A" points="256.114628 254.844444 260.996578 254.844444 260.996578 246.942222 256.114628 246.942222"></polygon>
                <polygon id="Fill-49" fill="#11868A" points="256.114628 267.638519 260.996578 267.638519 260.996578 259.736296 256.114628 259.736296"></polygon>
                <polygon id="Fill-50" fill="#009792" points="190.02053 285.700741 209.172797 285.700741 209.172797 132.924444 190.02053 132.924444"></polygon>
                <polygon id="Fill-51" fill="#11868A" points="197.155689 152.491852 202.037639 152.491852 202.037639 144.58963 197.155689 144.58963"></polygon>
                <polygon id="Fill-52" fill="#11868A" points="197.155689 165.285926 202.037639 165.285926 202.037639 157.383704 197.155689 157.383704"></polygon>
                <polygon id="Fill-53" fill="#11868A" points="197.155689 178.08 202.037639 178.08 202.037639 170.177778 197.155689 170.177778"></polygon>
                <polygon id="Fill-54" fill="#11868A" points="197.155689 190.874074 202.037639 190.874074 202.037639 182.971852 197.155689 182.971852"></polygon>
                <polygon id="Fill-55" fill="#11868A" points="197.155689 203.668148 202.037639 203.668148 202.037639 195.765926 197.155689 195.765926"></polygon>
                <polygon id="Fill-56" fill="#11868A" points="197.155689 216.462222 202.037639 216.462222 202.037639 208.56 197.155689 208.56"></polygon>
                <polygon id="Fill-57" fill="#11868A" points="197.155689 229.256296 202.037639 229.256296 202.037639 221.354074 197.155689 221.354074"></polygon>
                <polygon id="Fill-58" fill="#11868A" points="197.155689 242.05037 202.037639 242.05037 202.037639 234.148148 197.155689 234.148148"></polygon>
                <polygon id="Fill-59" fill="#11868A" points="197.155689 254.844444 202.037639 254.844444 202.037639 246.942222 197.155689 246.942222"></polygon>
                <polygon id="Fill-60" fill="#11868A" points="197.155689 267.638519 202.037639 267.638519 202.037639 259.736296 197.155689 259.736296"></polygon>
                <polygon id="Fill-61" fill="#009792" points="89.0017109 286.077037 173.872541 286.077037 173.872541 58 89.0017109 58"></polygon>
                <polygon id="Fill-62" fill="#009792" points="303.178785 286.077037 375.91018 286.077037 375.91018 -2.84217094e-14 303.178785 -2.84217094e-14"></polygon>
                <polygon id="Fill-63" fill="#139296" points="126.555175 104.325926 136.319076 104.325926 136.319076 99.8103704 126.555175 99.8103704"></polygon>
                <polygon id="Fill-64" fill="#139296" points="126.555175 112.604444 136.319076 112.604444 136.319076 108.088889 126.555175 108.088889"></polygon>
                <polygon id="Fill-65" fill="#139296" points="126.555175 120.882963 136.319076 120.882963 136.319076 116.367407 126.555175 116.367407"></polygon>
                <polygon id="Fill-66" fill="#139296" points="126.555175 129.161481 136.319076 129.161481 136.319076 124.645926 126.555175 124.645926"></polygon>
                <polygon id="Fill-67" fill="#139296" points="126.555175 137.44 136.319076 137.44 136.319076 132.924444 126.555175 132.924444"></polygon>
                <polygon id="Fill-68" fill="#139296" points="126.555175 145.718519 136.319076 145.718519 136.319076 141.202963 126.555175 141.202963"></polygon>
                <polygon id="Fill-69" fill="#139296" points="126.555175 153.997037 136.319076 153.997037 136.319076 149.481481 126.555175 149.481481"></polygon>
                <polygon id="Fill-70" fill="#139296" points="126.555175 162.275556 136.319076 162.275556 136.319076 157.76 126.555175 157.76"></polygon>
                <polygon id="Fill-71" fill="#139296" points="126.555175 170.554074 136.319076 170.554074 136.319076 166.038519 126.555175 166.038519"></polygon>
                <polygon id="Fill-72" fill="#139296" points="126.555175 178.832593 136.319076 178.832593 136.319076 174.317037 126.555175 174.317037"></polygon>
                <polygon id="Fill-73" fill="#139296" points="126.555175 187.111111 136.319076 187.111111 136.319076 182.595556 126.555175 182.595556"></polygon>
                <polygon id="Fill-74" fill="#139296" points="126.555175 195.013333 136.319076 195.013333 136.319076 190.497778 126.555175 190.497778"></polygon>
                <polygon id="Fill-75" fill="#139296" points="126.555175 203.291852 136.319076 203.291852 136.319076 198.776296 126.555175 198.776296"></polygon>
                <polygon id="Fill-76" fill="#139296" points="126.555175 211.57037 136.319076 211.57037 136.319076 207.054815 126.555175 207.054815"></polygon>
                <polygon id="Fill-77" fill="#139296" points="126.555175 219.848889 136.319076 219.848889 136.319076 215.333333 126.555175 215.333333"></polygon>
                <polygon id="Fill-78" fill="#139296" points="126.555175 228.127407 136.319076 228.127407 136.319076 223.611852 126.555175 223.611852"></polygon>
                <polygon id="Fill-79" fill="#139296" points="126.555175 236.405926 136.319076 236.405926 136.319076 231.89037 126.555175 231.89037"></polygon>
                <polygon id="Fill-80" fill="#139296" points="126.555175 244.684444 136.319076 244.684444 136.319076 240.168889 126.555175 240.168889"></polygon>
                <polygon id="Fill-81" fill="#139296" points="126.555175 252.962963 136.319076 252.962963 136.319076 248.447407 126.555175 248.447407"></polygon>
                <polygon id="Fill-82" fill="#139296" points="126.555175 261.241481 136.319076 261.241481 136.319076 256.725926 126.555175 256.725926"></polygon>
                <polygon id="Fill-83" fill="#139296" points="126.555175 269.52 136.319076 269.52 136.319076 265.004444 126.555175 265.004444"></polygon>
                <polygon id="Fill-84" fill="#139296" points="119.044482 106.583704 120.546621 106.583704 120.546621 99.8103704 119.044482 99.8103704"></polygon>
                <polygon id="Fill-85" fill="#139296" points="121.29769 106.583704 122.799829 106.583704 122.799829 99.8103704 121.29769 99.8103704"></polygon>
                <polygon id="Fill-86" fill="#139296" points="119.044482 114.862222 120.546621 114.862222 120.546621 108.088889 119.044482 108.088889"></polygon>
                <polygon id="Fill-87" fill="#139296" points="121.29769 114.862222 122.799829 114.862222 122.799829 108.088889 121.29769 108.088889"></polygon>
                <polygon id="Fill-88" fill="#139296" points="119.044482 123.140741 120.546621 123.140741 120.546621 116.367407 119.044482 116.367407"></polygon>
                <polygon id="Fill-89" fill="#139296" points="121.29769 123.140741 122.799829 123.140741 122.799829 116.367407 121.29769 116.367407"></polygon>
                <polygon id="Fill-90" fill="#139296" points="119.044482 131.419259 120.546621 131.419259 120.546621 124.645926 119.044482 124.645926"></polygon>
                <polygon id="Fill-91" fill="#139296" points="121.29769 131.419259 122.799829 131.419259 122.799829 124.645926 121.29769 124.645926"></polygon>
                <polygon id="Fill-92" fill="#139296" points="119.044482 139.697778 120.546621 139.697778 120.546621 132.924444 119.044482 132.924444"></polygon>
                <polygon id="Fill-93" fill="#139296" points="121.29769 139.697778 122.799829 139.697778 122.799829 132.924444 121.29769 132.924444"></polygon>
                <polygon id="Fill-94" fill="#139296" points="119.044482 147.976296 120.546621 147.976296 120.546621 141.202963 119.044482 141.202963"></polygon>
                <polygon id="Fill-95" fill="#139296" points="121.29769 147.976296 122.799829 147.976296 122.799829 141.202963 121.29769 141.202963"></polygon>
                <polygon id="Fill-96" fill="#139296" points="119.044482 156.254815 120.546621 156.254815 120.546621 149.481481 119.044482 149.481481"></polygon>
                <polygon id="Fill-97" fill="#139296" points="121.29769 156.254815 122.799829 156.254815 122.799829 149.481481 121.29769 149.481481"></polygon>
                <polygon id="Fill-98" fill="#139296" points="119.044482 164.533333 120.546621 164.533333 120.546621 157.76 119.044482 157.76"></polygon>
                <polygon id="Fill-99" fill="#139296" points="121.29769 164.533333 122.799829 164.533333 122.799829 157.76 121.29769 157.76"></polygon>
                <polygon id="Fill-100" fill="#139296" points="119.044482 172.811852 120.546621 172.811852 120.546621 166.038519 119.044482 166.038519"></polygon>
                <polygon id="Fill-101" fill="#139296" points="121.29769 172.811852 122.799829 172.811852 122.799829 166.038519 121.29769 166.038519"></polygon>
                <polygon id="Fill-102" fill="#139296" points="119.044482 181.09037 120.546621 181.09037 120.546621 174.317037 119.044482 174.317037"></polygon>
                <polygon id="Fill-103" fill="#139296" points="121.29769 181.09037 122.799829 181.09037 122.799829 174.317037 121.29769 174.317037"></polygon>
                <polygon id="Fill-104" fill="#139296" points="119.044482 189.368889 120.546621 189.368889 120.546621 182.595556 119.044482 182.595556"></polygon>
                <polygon id="Fill-105" fill="#139296" points="121.29769 189.368889 122.799829 189.368889 122.799829 182.595556 121.29769 182.595556"></polygon>
                <polygon id="Fill-106" fill="#139296" points="119.044482 197.271111 120.546621 197.271111 120.546621 190.497778 119.044482 190.497778"></polygon>
                <polygon id="Fill-107" fill="#139296" points="121.29769 197.271111 122.799829 197.271111 122.799829 190.497778 121.29769 190.497778"></polygon>
                <polygon id="Fill-108" fill="#139296" points="119.044482 205.54963 120.546621 205.54963 120.546621 198.776296 119.044482 198.776296"></polygon>
                <polygon id="Fill-109" fill="#139296" points="121.29769 205.54963 122.799829 205.54963 122.799829 198.776296 121.29769 198.776296"></polygon>
                <polygon id="Fill-110" fill="#139296" points="119.044482 213.828148 120.546621 213.828148 120.546621 207.054815 119.044482 207.054815"></polygon>
                <polygon id="Fill-111" fill="#139296" points="121.29769 213.828148 122.799829 213.828148 122.799829 207.054815 121.29769 207.054815"></polygon>
                <polygon id="Fill-112" fill="#139296" points="119.044482 222.106667 120.546621 222.106667 120.546621 215.333333 119.044482 215.333333"></polygon>
                <polygon id="Fill-113" fill="#139296" points="121.29769 222.106667 122.799829 222.106667 122.799829 215.333333 121.29769 215.333333"></polygon>
                <polygon id="Fill-114" fill="#139296" points="119.044482 230.385185 120.546621 230.385185 120.546621 223.611852 119.044482 223.611852"></polygon>
                <polygon id="Fill-115" fill="#139296" points="121.29769 230.385185 122.799829 230.385185 122.799829 223.611852 121.29769 223.611852"></polygon>
                <polygon id="Fill-116" fill="#139296" points="119.044482 238.663704 120.546621 238.663704 120.546621 231.89037 119.044482 231.89037"></polygon>
                <polygon id="Fill-117" fill="#139296" points="121.29769 238.663704 122.799829 238.663704 122.799829 231.89037 121.29769 231.89037"></polygon>
                <polygon id="Fill-118" fill="#139296" points="119.044482 246.942222 120.546621 246.942222 120.546621 240.168889 119.044482 240.168889"></polygon>
                <polygon id="Fill-119" fill="#139296" points="121.29769 246.942222 122.799829 246.942222 122.799829 240.168889 121.29769 240.168889"></polygon>
                <polygon id="Fill-120" fill="#139296" points="119.044482 255.220741 120.546621 255.220741 120.546621 248.447407 119.044482 248.447407"></polygon>
                <polygon id="Fill-121" fill="#139296" points="121.29769 255.220741 122.799829 255.220741 122.799829 248.447407 121.29769 248.447407"></polygon>
                <polygon id="Fill-122" fill="#139296" points="119.044482 263.499259 120.546621 263.499259 120.546621 256.725926 119.044482 256.725926"></polygon>
                <polygon id="Fill-123" fill="#139296" points="121.29769 263.499259 122.799829 263.499259 122.799829 256.725926 121.29769 256.725926"></polygon>
                <polygon id="Fill-124" fill="#139296" points="119.044482 271.777778 120.546621 271.777778 120.546621 265.004444 119.044482 265.004444"></polygon>
                <polygon id="Fill-125" fill="#139296" points="121.29769 271.777778 122.799829 271.777778 122.799829 265.004444 121.29769 265.004444"></polygon>
                <polygon id="Fill-126" fill="#139296" points="140.074423 106.583704 141.576561 106.583704 141.576561 99.8103704 140.074423 99.8103704"></polygon>
                <polygon id="Fill-127" fill="#139296" points="142.32763 106.583704 143.829769 106.583704 143.829769 99.8103704 142.32763 99.8103704"></polygon>
                <polygon id="Fill-128" fill="#139296" points="140.074423 114.862222 141.576561 114.862222 141.576561 108.088889 140.074423 108.088889"></polygon>
                <polygon id="Fill-129" fill="#139296" points="142.32763 114.862222 143.829769 114.862222 143.829769 108.088889 142.32763 108.088889"></polygon>
                <polygon id="Fill-130" fill="#139296" points="140.074423 123.140741 141.576561 123.140741 141.576561 116.367407 140.074423 116.367407"></polygon>
                <polygon id="Fill-131" fill="#139296" points="142.32763 123.140741 143.829769 123.140741 143.829769 116.367407 142.32763 116.367407"></polygon>
                <polygon id="Fill-132" fill="#139296" points="140.074423 131.419259 141.576561 131.419259 141.576561 124.645926 140.074423 124.645926"></polygon>
                <polygon id="Fill-133" fill="#139296" points="142.32763 131.419259 143.829769 131.419259 143.829769 124.645926 142.32763 124.645926"></polygon>
                <polygon id="Fill-134" fill="#139296" points="140.074423 139.697778 141.576561 139.697778 141.576561 132.924444 140.074423 132.924444"></polygon>
                <polygon id="Fill-135" fill="#139296" points="142.32763 139.697778 143.829769 139.697778 143.829769 132.924444 142.32763 132.924444"></polygon>
                <polygon id="Fill-136" fill="#139296" points="140.074423 147.976296 141.576561 147.976296 141.576561 141.202963 140.074423 141.202963"></polygon>
                <polygon id="Fill-137" fill="#139296" points="142.32763 147.976296 143.829769 147.976296 143.829769 141.202963 142.32763 141.202963"></polygon>
                <polygon id="Fill-138" fill="#139296" points="140.074423 156.254815 141.576561 156.254815 141.576561 149.481481 140.074423 149.481481"></polygon>
                <polygon id="Fill-139" fill="#139296" points="142.32763 156.254815 143.829769 156.254815 143.829769 149.481481 142.32763 149.481481"></polygon>
                <polygon id="Fill-140" fill="#139296" points="140.074423 164.533333 141.576561 164.533333 141.576561 157.76 140.074423 157.76"></polygon>
                <polygon id="Fill-141" fill="#139296" points="142.32763 164.533333 143.829769 164.533333 143.829769 157.76 142.32763 157.76"></polygon>
                <polygon id="Fill-142" fill="#139296" points="140.074423 172.811852 141.576561 172.811852 141.576561 166.038519 140.074423 166.038519"></polygon>
                <polygon id="Fill-143" fill="#139296" points="142.32763 172.811852 143.829769 172.811852 143.829769 166.038519 142.32763 166.038519"></polygon>
                <polygon id="Fill-144" fill="#139296" points="140.074423 181.09037 141.576561 181.09037 141.576561 174.317037 140.074423 174.317037"></polygon>
                <polygon id="Fill-145" fill="#139296" points="142.32763 181.09037 143.829769 181.09037 143.829769 174.317037 142.32763 174.317037"></polygon>
                <polygon id="Fill-146" fill="#139296" points="140.074423 189.368889 141.576561 189.368889 141.576561 182.595556 140.074423 182.595556"></polygon>
                <polygon id="Fill-147" fill="#139296" points="142.32763 189.368889 143.829769 189.368889 143.829769 182.595556 142.32763 182.595556"></polygon>
                <polygon id="Fill-148" fill="#139296" points="140.074423 197.271111 141.576561 197.271111 141.576561 190.497778 140.074423 190.497778"></polygon>
                <polygon id="Fill-149" fill="#139296" points="142.32763 197.271111 143.829769 197.271111 143.829769 190.497778 142.32763 190.497778"></polygon>
                <polygon id="Fill-150" fill="#139296" points="140.074423 205.54963 141.576561 205.54963 141.576561 198.776296 140.074423 198.776296"></polygon>
                <polygon id="Fill-151" fill="#139296" points="142.32763 205.54963 143.829769 205.54963 143.829769 198.776296 142.32763 198.776296"></polygon>
                <polygon id="Fill-152" fill="#139296" points="140.074423 213.828148 141.576561 213.828148 141.576561 207.054815 140.074423 207.054815"></polygon>
                <polygon id="Fill-153" fill="#139296" points="142.32763 213.828148 143.829769 213.828148 143.829769 207.054815 142.32763 207.054815"></polygon>
                <polygon id="Fill-154" fill="#139296" points="140.074423 222.106667 141.576561 222.106667 141.576561 215.333333 140.074423 215.333333"></polygon>
                <polygon id="Fill-155" fill="#139296" points="142.32763 222.106667 143.829769 222.106667 143.829769 215.333333 142.32763 215.333333"></polygon>
                <polygon id="Fill-156" fill="#139296" points="140.074423 230.385185 141.576561 230.385185 141.576561 223.611852 140.074423 223.611852"></polygon>
                <polygon id="Fill-157" fill="#139296" points="142.32763 230.385185 143.829769 230.385185 143.829769 223.611852 142.32763 223.611852"></polygon>
                <polygon id="Fill-158" fill="#139296" points="140.074423 238.663704 141.576561 238.663704 141.576561 231.89037 140.074423 231.89037"></polygon>
                <polygon id="Fill-159" fill="#139296" points="142.32763 238.663704 143.829769 238.663704 143.829769 231.89037 142.32763 231.89037"></polygon>
                <polygon id="Fill-160" fill="#139296" points="140.074423 246.942222 141.576561 246.942222 141.576561 240.168889 140.074423 240.168889"></polygon>
                <polygon id="Fill-161" fill="#139296" points="142.32763 246.942222 143.829769 246.942222 143.829769 240.168889 142.32763 240.168889"></polygon>
                <polygon id="Fill-162" fill="#139296" points="140.074423 255.220741 141.576561 255.220741 141.576561 248.447407 140.074423 248.447407"></polygon>
                <polygon id="Fill-163" fill="#139296" points="142.32763 255.220741 143.829769 255.220741 143.829769 248.447407 142.32763 248.447407"></polygon>
                <polygon id="Fill-164" fill="#139296" points="140.074423 263.499259 141.576561 263.499259 141.576561 256.725926 140.074423 256.725926"></polygon>
                <polygon id="Fill-165" fill="#139296" points="142.32763 263.499259 143.829769 263.499259 143.829769 256.725926 142.32763 256.725926"></polygon>
                <polygon id="Fill-166" fill="#139296" points="140.074423 271.777778 141.576561 271.777778 141.576561 265.004444 140.074423 265.004444"></polygon>
                <polygon id="Fill-167" fill="#139296" points="142.32763 271.777778 143.829769 271.777778 143.829769 265.004444 142.32763 265.004444"></polygon>
                <polygon id="Fill-168" fill="#139296" points="148.336185 104.325926 153.59367 104.325926 153.59367 99.8103704 148.336185 99.8103704"></polygon>
                <polygon id="Fill-169" fill="#139296" points="156.597947 104.325926 166.361848 104.325926 166.361848 99.8103704 156.597947 99.8103704"></polygon>
                <polygon id="Fill-170" fill="#139296" points="148.336185 113.357037 153.59367 113.357037 153.59367 108.841481 148.336185 108.841481"></polygon>
                <polygon id="Fill-171" fill="#139296" points="156.597947 113.357037 166.361848 113.357037 166.361848 108.841481 156.597947 108.841481"></polygon>
                <polygon id="Fill-172" fill="#139296" points="148.336185 122.388148 153.59367 122.388148 153.59367 117.872593 148.336185 117.872593"></polygon>
                <polygon id="Fill-173" fill="#139296" points="156.597947 122.388148 166.361848 122.388148 166.361848 117.872593 156.597947 117.872593"></polygon>
                <polygon id="Fill-174" fill="#139296" points="148.336185 131.419259 153.59367 131.419259 153.59367 126.903704 148.336185 126.903704"></polygon>
                <polygon id="Fill-175" fill="#139296" points="156.597947 131.419259 166.361848 131.419259 166.361848 126.903704 156.597947 126.903704"></polygon>
                <polygon id="Fill-176" fill="#139296" points="148.336185 140.45037 153.59367 140.45037 153.59367 135.934815 148.336185 135.934815"></polygon>
                <polygon id="Fill-177" fill="#139296" points="156.597947 140.45037 166.361848 140.45037 166.361848 135.934815 156.597947 135.934815"></polygon>
                <polygon id="Fill-178" fill="#139296" points="148.336185 149.481481 153.59367 149.481481 153.59367 144.965926 148.336185 144.965926"></polygon>
                <polygon id="Fill-179" fill="#139296" points="156.597947 149.481481 166.361848 149.481481 166.361848 144.965926 156.597947 144.965926"></polygon>
                <polygon id="Fill-180" fill="#139296" points="148.336185 158.512593 153.59367 158.512593 153.59367 153.997037 148.336185 153.997037"></polygon>
                <polygon id="Fill-181" fill="#139296" points="156.597947 158.512593 166.361848 158.512593 166.361848 153.997037 156.597947 153.997037"></polygon>
                <polygon id="Fill-182" fill="#139296" points="148.336185 167.543704 153.59367 167.543704 153.59367 163.028148 148.336185 163.028148"></polygon>
                <polygon id="Fill-183" fill="#139296" points="156.597947 167.543704 166.361848 167.543704 166.361848 163.028148 156.597947 163.028148"></polygon>
                <polygon id="Fill-184" fill="#139296" points="148.336185 176.574815 153.59367 176.574815 153.59367 172.059259 148.336185 172.059259"></polygon>
                <polygon id="Fill-185" fill="#139296" points="156.597947 176.574815 166.361848 176.574815 166.361848 172.059259 156.597947 172.059259"></polygon>
                <polygon id="Fill-186" fill="#139296" points="148.336185 185.605926 153.59367 185.605926 153.59367 181.09037 148.336185 181.09037"></polygon>
                <polygon id="Fill-187" fill="#139296" points="156.597947 185.605926 166.361848 185.605926 166.361848 181.09037 156.597947 181.09037"></polygon>
                <polygon id="Fill-188" fill="#139296" points="148.336185 194.260741 153.59367 194.260741 153.59367 189.745185 148.336185 189.745185"></polygon>
                <polygon id="Fill-189" fill="#139296" points="156.597947 194.260741 166.361848 194.260741 166.361848 189.745185 156.597947 189.745185"></polygon>
                <polygon id="Fill-190" fill="#139296" points="148.336185 203.291852 153.59367 203.291852 153.59367 198.776296 148.336185 198.776296"></polygon>
                <polygon id="Fill-191" fill="#139296" points="156.597947 203.291852 166.361848 203.291852 166.361848 198.776296 156.597947 198.776296"></polygon>
                <polygon id="Fill-192" fill="#139296" points="148.336185 212.322963 153.59367 212.322963 153.59367 207.807407 148.336185 207.807407"></polygon>
                <polygon id="Fill-193" fill="#139296" points="156.597947 212.322963 166.361848 212.322963 166.361848 207.807407 156.597947 207.807407"></polygon>
                <polygon id="Fill-194" fill="#139296" points="148.336185 221.354074 153.59367 221.354074 153.59367 216.838519 148.336185 216.838519"></polygon>
                <polygon id="Fill-195" fill="#139296" points="156.597947 221.354074 166.361848 221.354074 166.361848 216.838519 156.597947 216.838519"></polygon>
                <polygon id="Fill-196" fill="#139296" points="148.336185 230.385185 153.59367 230.385185 153.59367 225.86963 148.336185 225.86963"></polygon>
                <polygon id="Fill-197" fill="#139296" points="156.597947 230.385185 166.361848 230.385185 166.361848 225.86963 156.597947 225.86963"></polygon>
                <polygon id="Fill-198" fill="#139296" points="148.336185 239.416296 153.59367 239.416296 153.59367 234.900741 148.336185 234.900741"></polygon>
                <polygon id="Fill-199" fill="#139296" points="156.597947 239.416296 166.361848 239.416296 166.361848 234.900741 156.597947 234.900741"></polygon>
                <polygon id="Fill-200" fill="#139296" points="148.336185 248.447407 153.59367 248.447407 153.59367 243.931852 148.336185 243.931852"></polygon>
                <polygon id="Fill-201" fill="#139296" points="156.597947 248.447407 166.361848 248.447407 166.361848 243.931852 156.597947 243.931852"></polygon>
                <polygon id="Fill-202" fill="#139296" points="148.336185 257.478519 153.59367 257.478519 153.59367 252.962963 148.336185 252.962963"></polygon>
                <polygon id="Fill-203" fill="#139296" points="156.597947 257.478519 166.361848 257.478519 166.361848 252.962963 156.597947 252.962963"></polygon>
                <polygon id="Fill-204" fill="#139296" points="148.336185 266.50963 153.59367 266.50963 153.59367 261.994074 148.336185 261.994074"></polygon>
                <polygon id="Fill-205" fill="#139296" points="156.597947 266.50963 166.361848 266.50963 166.361848 261.994074 156.597947 261.994074"></polygon>
                <polygon id="Fill-206" fill="#139296" points="109.656116 104.325926 114.913601 104.325926 114.913601 99.8103704 109.656116 99.8103704"></polygon>
                <polygon id="Fill-207" fill="#139296" points="97.2634731 104.325926 107.027374 104.325926 107.027374 99.8103704 97.2634731 99.8103704"></polygon>
                <polygon id="Fill-208" fill="#139296" points="109.656116 113.357037 114.913601 113.357037 114.913601 108.841481 109.656116 108.841481"></polygon>
                <polygon id="Fill-209" fill="#139296" points="97.2634731 113.357037 107.027374 113.357037 107.027374 108.841481 97.2634731 108.841481"></polygon>
                <polygon id="Fill-210" fill="#139296" points="109.656116 122.388148 114.913601 122.388148 114.913601 117.872593 109.656116 117.872593"></polygon>
                <polygon id="Fill-211" fill="#139296" points="97.2634731 122.388148 107.027374 122.388148 107.027374 117.872593 97.2634731 117.872593"></polygon>
                <polygon id="Fill-212" fill="#139296" points="109.656116 131.419259 114.913601 131.419259 114.913601 126.903704 109.656116 126.903704"></polygon>
                <polygon id="Fill-213" fill="#139296" points="97.2634731 131.419259 107.027374 131.419259 107.027374 126.903704 97.2634731 126.903704"></polygon>
                <polygon id="Fill-214" fill="#139296" points="109.656116 140.45037 114.913601 140.45037 114.913601 135.934815 109.656116 135.934815"></polygon>
                <polygon id="Fill-215" fill="#139296" points="97.2634731 140.45037 107.027374 140.45037 107.027374 135.934815 97.2634731 135.934815"></polygon>
                <polygon id="Fill-216" fill="#139296" points="109.656116 149.481481 114.913601 149.481481 114.913601 144.965926 109.656116 144.965926"></polygon>
                <polygon id="Fill-217" fill="#139296" points="97.2634731 149.481481 107.027374 149.481481 107.027374 144.965926 97.2634731 144.965926"></polygon>
                <polygon id="Fill-218" fill="#139296" points="109.656116 158.512593 114.913601 158.512593 114.913601 153.997037 109.656116 153.997037"></polygon>
                <polygon id="Fill-219" fill="#139296" points="97.2634731 158.512593 107.027374 158.512593 107.027374 153.997037 97.2634731 153.997037"></polygon>
                <polygon id="Fill-220" fill="#139296" points="109.656116 167.543704 114.913601 167.543704 114.913601 163.028148 109.656116 163.028148"></polygon>
                <polygon id="Fill-221" fill="#139296" points="97.2634731 167.543704 107.027374 167.543704 107.027374 163.028148 97.2634731 163.028148"></polygon>
                <polygon id="Fill-222" fill="#139296" points="109.656116 176.574815 114.913601 176.574815 114.913601 172.059259 109.656116 172.059259"></polygon>
                <polygon id="Fill-223" fill="#139296" points="97.2634731 176.574815 107.027374 176.574815 107.027374 172.059259 97.2634731 172.059259"></polygon>
                <polygon id="Fill-224" fill="#139296" points="109.656116 185.605926 114.913601 185.605926 114.913601 181.09037 109.656116 181.09037"></polygon>
                <polygon id="Fill-225" fill="#139296" points="97.2634731 185.605926 107.027374 185.605926 107.027374 181.09037 97.2634731 181.09037"></polygon>
                <polygon id="Fill-226" fill="#139296" points="109.656116 194.260741 114.913601 194.260741 114.913601 189.745185 109.656116 189.745185"></polygon>
                <polygon id="Fill-227" fill="#139296" points="97.2634731 194.260741 107.027374 194.260741 107.027374 189.745185 97.2634731 189.745185"></polygon>
                <polygon id="Fill-228" fill="#139296" points="109.656116 203.291852 114.913601 203.291852 114.913601 198.776296 109.656116 198.776296"></polygon>
                <polygon id="Fill-229" fill="#139296" points="97.2634731 203.291852 107.027374 203.291852 107.027374 198.776296 97.2634731 198.776296"></polygon>
                <polygon id="Fill-230" fill="#139296" points="109.656116 212.322963 114.913601 212.322963 114.913601 207.807407 109.656116 207.807407"></polygon>
                <polygon id="Fill-231" fill="#139296" points="97.2634731 212.322963 107.027374 212.322963 107.027374 207.807407 97.2634731 207.807407"></polygon>
                <polygon id="Fill-232" fill="#139296" points="109.656116 221.354074 114.913601 221.354074 114.913601 216.838519 109.656116 216.838519"></polygon>
                <polygon id="Fill-233" fill="#139296" points="97.2634731 221.354074 107.027374 221.354074 107.027374 216.838519 97.2634731 216.838519"></polygon>
                <polygon id="Fill-234" fill="#139296" points="109.656116 230.385185 114.913601 230.385185 114.913601 225.86963 109.656116 225.86963"></polygon>
                <polygon id="Fill-235" fill="#139296" points="97.2634731 230.385185 107.027374 230.385185 107.027374 225.86963 97.2634731 225.86963"></polygon>
                <polygon id="Fill-236" fill="#139296" points="109.656116 239.416296 114.913601 239.416296 114.913601 234.900741 109.656116 234.900741"></polygon>
                <polygon id="Fill-237" fill="#139296" points="97.2634731 239.416296 107.027374 239.416296 107.027374 234.900741 97.2634731 234.900741"></polygon>
                <polygon id="Fill-238" fill="#139296" points="109.656116 248.447407 114.913601 248.447407 114.913601 243.931852 109.656116 243.931852"></polygon>
                <polygon id="Fill-239" fill="#139296" points="97.2634731 248.447407 107.027374 248.447407 107.027374 243.931852 97.2634731 243.931852"></polygon>
                <polygon id="Fill-240" fill="#139296" points="109.656116 257.478519 114.913601 257.478519 114.913601 252.962963 109.656116 252.962963"></polygon>
                <polygon id="Fill-241" fill="#139296" points="97.2634731 257.478519 107.027374 257.478519 107.027374 252.962963 97.2634731 252.962963"></polygon>
                <polygon id="Fill-242" fill="#139296" points="109.656116 266.50963 114.913601 266.50963 114.913601 261.994074 109.656116 261.994074"></polygon>
                <polygon id="Fill-243" fill="#139296" points="97.2634731 266.50963 107.027374 266.50963 107.027374 261.994074 97.2634731 261.994074"></polygon>
                <path d="M235.159316,208.55952 L233.397849,208.55952 L237.078567,202.162963 L238.840034,202.162963 L235.159316,208.55952 Z M227.797881,221.353009 L226.034914,221.353009 L229.715632,214.956452 L231.478974,214.956452 L227.797881,221.353009 Z M220.434946,234.144995 L218.673479,234.144995 L222.354197,227.748438 L224.117163,227.748438 L220.434946,234.144995 Z M209.172797,253.715556 L209.172797,250.653014 L217.672441,235.885135 L217.672441,238.946172 L209.172797,253.715556 Z" id="Fill-244" fill="#37B0B5"></path>
                <polygon id="Fill-245" fill="#35A9AE" points="239.15162 202.162963 237.337896 202.162963 239.966638 197.647407 239.966638 200.763879"></polygon>
                <polygon id="Fill-246" fill="#35A9AE" points="231.651875 214.957037 229.827203 214.957037 233.63749 208.56 235.460222 208.56"></polygon>
                <polygon id="Fill-247" fill="#35A9AE" points="224.140794 227.751111 222.31651 227.751111 226.125246 221.354074 227.94953 221.354074"></polygon>
                <polygon id="Fill-248" fill="#35A9AE" points="217.810094 239.04 217.810094 235.921013 218.762661 234.148148 220.438837 234.148148"></polygon>
                <path d="M202.078976,266.080197 L202.078976,263.017527 L209.172797,250.705185 L209.172797,253.76748 L202.078976,266.080197 Z M190.556019,286.077037 L190.02053,286.077037 L190.02053,283.943394 L199.440182,267.597622 L201.203881,267.597622 L190.556019,286.077037 Z" id="Fill-249" fill="#36ADB2"></path>
                <polygon id="Fill-250" fill="#34A2A6" points="201.165877 267.638519 199.408896 267.638519 202.037639 263.122963 202.037639 266.142477"></polygon>
                <polygon id="Fill-251" fill="#37B0B5" points="221.202829 281.185185 220.438837 279.870454 248.97947 263.499259 248.97947 265.251613"></polygon>
                <polygon id="Fill-252" fill="#36ADB2" points="248.97947 265.004444 248.97947 263.243088 268.131737 252.21037 268.131737 253.971352 258.505323 259.517847 256.072735 259.517847 256.072735 260.917199"></polygon>
                <polygon id="Fill-253" fill="#34A2A6" points="256.114628 261.241481 256.114628 259.736296 258.367836 259.736296"></polygon>
                <path d="M118.735933,267.317746 L114.913601,264.958059 L114.913601,263.122963 L118.735933,265.48265 L118.735933,267.317746 Z M120.473092,268.391111 L120.193293,268.217937 L120.193293,266.382842 L120.922156,266.832937 L120.922156,267.559565 L120.473092,268.391111 Z" id="Fill-254" fill="#37B0B5"></path>
                <polygon id="Fill-255" fill="#35A9AE" points="120.546621 268.014815 119.044482 267.147933 119.044482 265.380741 120.546621 266.247623"></polygon>
                <polygon id="Fill-256" fill="#35A9AE" points="121.29769 267.638519 121.600574 267.07367 121.29769 266.885926"></polygon>
                <polygon id="Fill-257" fill="#37B0B5" points="113.035928 261.994074 109.963513 261.994074 102.145423 257.478519 105.218216 257.478519"></polygon>
                <polygon id="Fill-258" fill="#38BBC1" points="89.3772455 249.952593 78.4867408 243.805176 78.4867408 242.05037 89.3772455 248.197787"></polygon>
                <path d="M28.057964,214.524513 L19.5278015,209.582912 L19.5278015,207.807407 L28.057964,212.749386 L28.057964,214.524513 Z M42.8146184,221.298224 L39.7512069,221.298224 L28.6680135,214.878105 L31.7329294,214.878105 L42.8146184,221.298224 Z M59.3344739,232.642963 L50.0949691,227.290411 L50.0949691,225.515283 L59.3344739,230.867458 L59.3344739,232.642963 Z" id="Fill-259" fill="#37B0B5"></path>
                <path d="M66.0522047,236.60927 L58.9589393,232.523044 L58.9589393,230.761481 L66.0522047,234.847708 L66.0522047,236.60927 Z M78.1112062,243.555556 L71.0194416,239.471201 L71.0194416,237.709639 L78.1112062,241.794367 L78.1112062,243.555556 Z" id="Fill-260" fill="#36ADB2"></path>
                <polygon id="Fill-261" fill="#35A9AE" points="31.5449102 214.957037 28.4129566 214.957037 27.7895637 214.582075 27.7895637 212.699259"></polygon>
                <polygon id="Fill-262" fill="#35A9AE" points="49.9461078 227.374815 39.4311377 221.354074 42.5456365 221.354074 49.9461078 225.591229"></polygon>
                <polygon id="Fill-263" fill="#34A2A6" points="70.9760479 239.416296 66.0940975 236.621179 66.0940975 234.900741 70.9760479 237.696224"></polygon>
                <polygon id="Fill-264" fill="#34A2A6" points="12.0171086 203.668148 9.0095098 203.668148 7.5106929 202.792117 7.5106929 201.034074"></polygon>
                <polygon id="Fill-265" fill="#37B0B5" points="97.2250797 254.468148 89.0017109 249.831887 89.0017109 248.071111 97.6390077 252.94057 97.2250797 252.94057"></polygon>
                <polygon id="Fill-266" fill="#35A9AE" points="105.525235 257.478519 102.441313 257.478519 97.2634731 254.501063 97.2634731 252.962963 97.6721902 252.962963"></polygon>
                <polygon id="Fill-267" fill="#35A9AE" points="114.913601 265.004444 110.031651 261.994074 112.982694 261.994074 114.913601 263.184607"></polygon>
                <polygon id="Fill-268" fill="#35A9AE" points="130.310522 211.57037 128.473498 211.57037 126.555175 208.364907 126.555175 207.054815 127.608142 207.054815"></polygon>
                <polygon id="Fill-269" fill="#35A9AE" points="135.192472 219.848889 133.368798 219.848889 130.686056 215.333333 132.509731 215.333333"></polygon>
                <polygon id="Fill-270" fill="#35A9AE" points="136.319076 225.117037 135.192472 223.611852 136.319076 223.611852"></polygon>
                <polygon id="Fill-271" fill="#35A9AE" points="122.04876 197.647407 121.29769 197.647407 121.29769 196.518519"></polygon>
                <polygon id="Fill-272" fill="#35A9AE" points="122.799829 201.786667 121.29769 199.227815 121.29769 198.776296 122.799829 198.776296"></polygon>
                <polygon id="Fill-273" fill="#35A9AE" points="140.825492 230.385185 140.074423 230.385185 140.074423 228.88"></polygon>
                <polygon id="Fill-274" fill="#35A9AE" points="141.576561 234.524444 140.074423 231.89037 141.576561 231.89037"></polygon>
                <polygon id="Fill-275" fill="#35A9AE" points="143.829769 238.287407 142.32763 235.693579 142.32763 232.642963 143.829769 235.236417"></polygon>
                <polygon id="Fill-276" fill="#35A9AE" points="151.340462 248.447407 149.618918 248.447407 148.336185 246.159838 148.336185 243.931852 148.809426 243.931852"></polygon>
                <polygon id="Fill-277" fill="#35A9AE" points="153.59367 255.220741 152.091531 252.962963 153.59367 252.962963"></polygon>
                <polygon id="Fill-278" fill="#35A9AE" points="156.597947 257.525839 156.624219 257.525839 156.597947 257.478519"></polygon>
                <polygon id="Fill-279" fill="#35A9AE" points="161.855432 266.50963 160.031758 266.50963 157.349016 261.994074 159.172691 261.994074"></polygon>
                <polygon id="Fill-280" fill="#FFFFFF" points="6.38408896 299.623704 124.301967 299.623704 124.301967 205.54963 6.38408896 205.54963"></polygon>
                <polygon id="Fill-281" fill="#CDEAE6" points="21.0299401 284.571852 40.182207 284.571852 40.182207 256.725926 21.0299401 256.725926"></polygon>
                <polygon id="Fill-282" fill="#CDEAE6" points="55.5791275 284.571852 74.7313944 284.571852 74.7313944 256.725926 55.5791275 256.725926"></polygon>
                <polygon id="Fill-283" fill="#CDEAE6" points="90.1283148 284.571852 109.280582 284.571852 109.280582 256.725926 90.1283148 256.725926"></polygon>
                <polygon id="Fill-284" fill="#2D556C" points="0 205.925926 124.677502 205.925926 124.677502 196.142222 0 196.142222"></polygon>
                <polygon id="Fill-285" fill="#00756F" points="241.093242 299.623704 320.331052 299.623704 320.331052 205.54963 241.093242 205.54963"></polygon>
                <polygon id="Fill-286" fill="#005960" points="315.449102 300 448.012831 300 448.012831 163.028148 315.449102 163.028148"></polygon>
                <polygon id="Fill-287" fill="#56B9CF" points="291.03935 246.18963 310.191617 246.18963 310.191617 218.343704 291.03935 218.343704"></polygon>
                <polygon id="Fill-288" fill="#E9FBFF" points="299.676647 246.18963 301.178785 246.18963 301.178785 218.343704 299.676647 218.343704"></polygon>
                <polygon id="Fill-289" fill="#E9FBFF" points="291.03935 233.019259 310.191617 233.019259 310.191617 231.514074 291.03935 231.514074"></polygon>
                <polygon id="Fill-290" fill="#56B9CF" points="256.490163 246.18963 275.642429 246.18963 275.642429 218.343704 256.490163 218.343704"></polygon>
                <polygon id="Fill-291" fill="#E9FBFF" points="265.127459 246.18963 266.629598 246.18963 266.629598 218.343704 265.127459 218.343704"></polygon>
                <polygon id="Fill-292" fill="#E9FBFF" points="256.490163 233.019259 275.642429 233.019259 275.642429 231.514074 256.490163 231.514074"></polygon>
                <polygon id="Fill-293" fill="#56B9CF" points="291.03935 284.571852 310.191617 284.571852 310.191617 256.725926 291.03935 256.725926"></polygon>
                <polygon id="Fill-294" fill="#E9FBFF" points="299.676647 284.571852 301.178785 284.571852 301.178785 256.725926 299.676647 256.725926"></polygon>
                <polygon id="Fill-295" fill="#E9FBFF" points="291.03935 271.401481 310.191617 271.401481 310.191617 269.896296 291.03935 269.896296"></polygon>
                <polygon id="Fill-296" fill="#56B9CF" points="256.490163 284.571852 275.642429 284.571852 275.642429 256.725926 256.490163 256.725926"></polygon>
                <polygon id="Fill-297" fill="#E9FBFF" points="265.127459 284.571852 266.629598 284.571852 266.629598 256.725926 265.127459 256.725926"></polygon>
                <polygon id="Fill-298" fill="#E9FBFF" points="256.490163 271.401481 275.642429 271.401481 275.642429 269.896296 256.490163 269.896296"></polygon>
                <polygon id="Fill-299" fill="#2D556C" points="241.093242 205.925926 320.331052 205.925926 320.331052 196.142222 241.093242 196.142222"></polygon>
                <polygon id="Fill-300" fill="#FFFFFF" points="123.175364 299.623704 242.595381 299.623704 242.595381 163.028148 123.175364 163.028148"></polygon>
                <polygon id="Fill-301" fill="#CDEAE6" points="239.966638 299.623704 316.575706 299.623704 316.575706 163.028148 239.966638 163.028148"></polygon>
                <polygon id="Fill-302" fill="#2D556C" points="115.289136 163.404444 459 163.404444 459 153.620741 115.289136 153.620741"></polygon>
                <polygon id="Fill-303" fill="#2D556C" points="135.568007 154.373333 268.131737 154.373333 268.131737 145.718519 135.568007 145.718519"></polygon>
                <polygon id="Fill-304" fill="#56B9CF" points="161.104363 300 202.037639 300 202.037639 255.220741 161.104363 255.220741"></polygon>
                <g id="Group-333" transform="translate(153.000000, 123.000000)">
                    <path d="M52.8037633,26.3288181 C52.8037633,40.7537603 41.1268891,52.4452862 26.7371525,52.4452862 C12.3384032,52.4452862 0.676550299,40.7537603 0.676550299,26.3288181 C0.676550299,11.9098966 12.3384032,0.212726222 26.7371525,0.212726222 C41.1268891,0.212726222 52.8037633,11.9098966 52.8037633,26.3288181" id="Fill-305" fill="#FF7900"></path>
                    <polygon id="Fill-307" fill="#FFFFFF" points="23.5677903 29.3968747 14.7085525 29.3968747 14.7085525 23.2662554 23.5677903 23.2662554 23.5677903 14.0703265 29.8966757 14.0703265 29.8966757 23.2662554 38.7634242 23.2662554 38.7634242 29.3968747 29.8966757 29.3968747 29.8966757 38.5905458 23.5677903 38.5905458"></polygon>
                    <path d="M223.404308,67.915429 C198.765105,67.915429 178.791168,87.9298764 178.791168,112.619053 L178.791168,176.634579 L268.017448,176.634579 L268.017448,112.619053 C268.017448,87.9298764 248.043136,67.915429 223.404308,67.915429" id="Fill-309" fill="#1C2C57"></path>
                    <path d="M115.668413,170.624111 C115.668413,167.103106 112.819983,164.248899 109.30573,164.248899 C105.791476,164.248899 102.942671,167.103106 102.942671,170.624111 C102.942671,174.145492 105.791476,176.999699 109.30573,176.999699 C112.819983,176.999699 115.668413,174.145492 115.668413,170.624111" id="Fill-311" fill="#1C2C57"></path>
                    <path d="M171.170518,170.624111 C171.170518,167.103106 168.321713,164.248899 164.808586,164.248899 C161.293582,164.248899 158.444776,167.103106 158.444776,170.624111 C158.444776,174.145492 161.293582,176.999699 164.808586,176.999699 C168.321713,176.999699 171.170518,174.145492 171.170518,170.624111" id="Fill-313" fill="#1C2C57"></path>
                    <path d="M163.935618,145.899186 L162.326452,145.899186 C161.712829,145.899186 161.214119,146.397779 161.214119,147.013023 L161.214119,151.468372 C161.214119,152.083616 161.712829,152.582209 162.326452,152.582209 L163.935618,152.582209 C164.549242,152.582209 165.047952,152.083616 165.047952,151.468372 L165.047952,147.013023 C165.047952,146.397779 164.549242,145.899186 163.935618,145.899186" id="Fill-315" fill="#414042"></path>
                    <path d="M162.843113,151.12248 L160.160669,151.12248 C159.726926,151.12248 159.37505,150.76989 159.37505,150.335268 C159.37505,149.900646 159.726926,149.54768 160.160669,149.54768 L162.843113,149.54768 C163.276855,149.54768 163.629107,149.900646 163.629107,150.335268 C163.629107,150.76989 163.276855,151.12248 162.843113,151.12248" id="Fill-317" fill="#231F20"></path>
                    <polygon id="Fill-319" fill="#E6E7E8" points="119.838688 170.614628 153.415991 170.614628 153.415991 122.990193 119.838688 122.990193"></polygon>
                    <polygon id="Fill-321" fill="#F1F2F2" points="73.3824234 170.616133 119.838688 170.616133 119.838688 122.991698 73.3824234 122.991698"></polygon>
                    <path d="M153.389103,155.903362 L144.018763,152.927987 C142.710024,152.51218 141.705845,151.451401 141.361104,150.119688 L139.010633,141.039658 C138.553983,139.275958 136.965847,138.044716 135.147508,138.044716 L155.385821,138.044716 C157.204535,138.044716 158.793422,139.275958 159.248946,141.039658 L161.599042,150.119688 C161.943782,151.451401 162.948338,152.51218 164.257076,152.927987 L173.627041,155.903362 C175.285402,156.429801 176.412381,157.972239 176.412381,159.71562 L176.412381,170.614666 L156.174068,170.614666 L156.174068,159.71562 C156.174068,157.972239 155.047464,156.429801 153.389103,155.903362" id="Fill-328" fill="#FFFFFF"></path>
                    <path d="M164.257226,152.927912 L173.626815,155.903287 C175.285176,156.430102 176.412156,157.972164 176.412156,159.715545 L176.412156,170.614591 L156.174218,170.614591 L156.174218,159.715545 C156.174218,157.972164 155.047614,156.430102 153.389253,155.903287 L144.018537,152.927912 L164.257226,152.927912 Z" id="Fill-329" fill="#E6E7E8"></path>
                    <polygon id="Fill-330" fill="#FFFFFF" points="156.173918 170.614628 176.412231 170.614628 176.412231 159.715582 156.173918 159.715582"></polygon>
                    <path d="M123.670155,138.044716 L123.670155,170.616171 L156.175683,170.616171 L156.175683,159.715996 C156.175683,157.973744 155.048703,156.429801 153.387714,155.904491 L144.018875,152.927235 C142.707884,152.51218 141.704831,151.452153 141.36009,150.120064 L139.009619,141.040411 C138.554471,139.275581 136.967461,138.044716 135.146118,138.044716 L123.670155,138.044716" id="Fill-331" fill="#F1F2F2"></path>
                    <path d="M139.134184,150.698432 L125.970192,150.698432 L125.970192,140.349155 L135.147508,140.349155 C135.918105,140.349155 136.591438,140.871454 136.783712,141.618778 L139.134184,150.698432" id="Fill-332" fill="#8CC6EC"></path>
                </g>
                <g id="Group-336" transform="translate(278.646707, 263.122963)">
                    <mask id="mask-2" fill="white">
                        <use xlink:href="#path-1"></use>
                    </mask>
                    <g id="Clip-335"></g>
                    <polygon id="Fill-334" fill="#A9D2F0" mask="url(#mask-2)" points="0.323710864 10.5754311 11.3591719 10.5754311 11.3591719 0.226154074 0.323710864 0.226154074"></polygon>
                </g>
                <g id="Group-372" transform="translate(20.000000, 185.000000)">
                    <polygon id="Fill-337" fill="#A9D2F0" points="267.144042 88.6984317 264.276459 88.6984317 258.970155 83.3802361 258.970155 80.5068376"></polygon>
                    <polygon id="Fill-339" fill="#8CC6EC" points="291.89339 79.5012234 272.605179 79.5012234 274.716435 87.6581982 294.005021 87.6581982"></polygon>
                    <path d="M304.633703,102.270799 C304.633703,103.386518 305.535362,104.290758 306.648822,104.290758 C307.762282,104.290758 308.665443,103.386518 308.665443,102.270799 C308.665443,101.155457 307.762282,100.251217 306.648822,100.251217 C305.535362,100.251217 304.633703,101.155457 304.633703,102.270799" id="Fill-341" fill-opacity="0.402258832" fill="#FF872F"></path>
                    <path d="M290.611314,102.270799 C290.611314,103.386518 291.513349,104.290758 292.626433,104.290758 C293.739893,104.290758 294.643054,103.386518 294.643054,102.270799 C294.643054,101.155457 293.739893,100.251217 292.626433,100.251217 C291.513349,100.251217 290.611314,101.155457 290.611314,102.270799" id="Fill-343" fill-opacity="0.402258832" fill="#FF872F"></path>
                    <polygon id="Fill-345" fill="#808285" points="287.372854 109.248311 310.600423 109.248311 310.600423 106.425336 287.372854 106.425336"></polygon>
                    <polygon id="Fill-347" fill="#FF7900" points="206.382423 72.5127615 252.838688 72.5127615 252.838688 68.9778341 206.382423 68.9778341"></polygon>
                    <polygon id="Fill-348" fill="#E67202" points="252.838688 72.5123852 286.415991 72.5123852 286.415991 68.9774578 252.838688 68.9774578"></polygon>
                    <path d="M266.991499,108.61602 L283.550324,108.61602 C283.545067,104.039505 279.83854,100.3296 275.270912,100.3296 C270.703659,100.3296 266.996381,104.039505 266.991499,108.61602" id="Fill-349" fill="#808285"></path>
                    <path d="M281.632581,108.624111 C281.632581,105.103106 278.783776,102.248899 275.269898,102.248899 C271.755645,102.248899 268.906839,105.103106 268.906839,108.624111 C268.906839,112.145492 271.755645,114.999699 275.269898,114.999699 C278.783776,114.999699 281.632581,112.145492 281.632581,108.624111" id="Fill-350" fill="#005960"></path>
                    <path d="M278.336026,108.624111 C278.336026,106.927391 276.963446,105.551652 275.269785,105.551652 C273.576124,105.551652 272.203169,106.927391 272.203169,108.624111 C272.203169,110.321207 273.576124,111.696946 275.269785,111.696946 C276.963446,111.696946 278.336026,110.321207 278.336026,108.624111" id="Fill-351" fill="#FFFFFF"></path>
                    <path d="M211.947809,108.61602 L228.506634,108.61602 C228.501752,104.039505 224.794474,100.3296 220.227222,100.3296 C215.659594,100.3296 211.952316,104.039505 211.947809,108.61602" id="Fill-352" fill="#808285"></path>
                    <path d="M226.590356,108.624111 C226.590356,105.103106 223.74155,102.248899 220.227672,102.248899 C216.713419,102.248899 213.864613,105.103106 213.864613,108.624111 C213.864613,112.145492 216.713419,114.999699 220.227672,114.999699 C223.74155,114.999699 226.590356,112.145492 226.590356,108.624111" id="Fill-353" fill="#005960"></path>
                    <path d="M223.293762,108.624111 C223.293762,106.927391 221.921183,105.551652 220.227522,105.551652 C218.533861,105.551652 217.160906,106.927391 217.160906,108.624111 C217.160906,110.321207 218.533861,111.696946 220.227522,111.696946 C221.921183,111.696946 223.293762,110.321207 223.293762,108.624111" id="Fill-354" fill="#FFFFFF"></path>
                    <polygon id="Fill-355" fill="#FF7900" points="221.275639 83.2075914 223.738395 79.5466047 227.13736 81.8423884 227.13736 77.7347381 231.543508 77.7347381 231.543508 81.8420121 234.942847 79.5466047 237.405228 83.2075914 233.282233 85.992184 237.405228 88.7771529 234.942847 92.4381396 231.543508 90.1423559 231.543508 94.2500062 227.13736 94.2500062 227.13736 90.1423559 223.738395 92.4381396 221.275639 88.7771529 225.398634 85.992184"></polygon>
                    <path d="M268.41808,83.8991864 L270.027998,83.8991864 C270.641997,83.8991864 271.13958,84.397779 271.13958,85.0130234 L271.13958,89.4683716 C271.13958,90.083616 270.641997,90.5822086 270.027998,90.5822086 L268.41808,90.5822086 C267.804081,90.5822086 267.306498,90.083616 267.306498,89.4683716 L267.306498,85.0130234 C267.306498,84.397779 267.804081,83.8991864 268.41808,83.8991864" id="Fill-356" fill="#414042"></path>
                    <path d="M269.510586,89.12248 L272.193781,89.12248 C272.627899,89.12248 272.979399,88.7698904 272.979399,88.3352681 C272.979399,87.9006459 272.627899,87.54768 272.193781,87.54768 L269.510586,87.54768 C269.076843,87.54768 268.724592,87.9006459 268.724592,88.3352681 C268.724592,88.7698904 269.076843,89.12248 269.510586,89.12248" id="Fill-357" fill="#231F20"></path>
                    <polygon id="Fill-358" fill="#A9D2F0" points="287.550181 87.6580853 284.274768 87.6580853 276.134304 79.5011105 279.410092 79.5011105"></polygon>
                    <polygon id="Fill-359" fill="#A9D2F0" points="290.25557 87.6580853 288.615611 87.6580853 280.475146 79.5011105 282.115106 79.5011105"></polygon>
                    <path d="M225.046383,112.78798 C225.655124,112.080919 226.111399,111.239521 226.364885,110.313079" id="Fill-360" fill="#00938A"></path>
                    <path d="M225.046383,112.78798 L223.29226,108.52078 C223.267099,107.754641 222.961414,107.059245 222.475472,106.534688 L222.337651,106.198655 L222.187437,106.260744 C221.900904,106.022549 221.570809,105.834777 221.210296,105.712857 L220.547853,104.096664 L219.82908,104.392433 L219.411485,103.371541 L219.985678,102.253189 C220.065667,102.250178 220.146407,102.248673 220.227522,102.248673 C220.904611,102.248673 221.556539,102.354412 222.168661,102.550839 L221.746935,103.371541 L222.117588,104.276158 L222.552833,104.096664 L222.600525,104.213316 L222.882552,104.096664 L223.831904,106.409758 L224.343006,106.198655 L224.391075,106.315307 L224.673477,106.198655 L226.364885,110.313079 C226.111399,111.239521 225.655124,112.080919 225.046383,112.78798" id="Fill-361" fill="#005960"></path>
                    <path d="M223.292298,108.520855 L222.47551,106.534763 C222.961452,107.05932 223.267137,107.754716 223.292298,108.520855" id="Fill-362" fill="#DCDDDE"></path>
                    <path d="M221.251079,114.917892 C222.759978,114.673676 224.090497,113.897377 225.046232,112.788055" id="Fill-363" fill="#00827B"></path>
                    <path d="M222.475585,106.53465 C222.385457,106.43719 222.28932,106.34575 222.187175,106.260707 L222.337764,106.198618 L222.475585,106.53465 M221.250967,114.917779 L219.203927,114.917779 C216.176743,114.427841 213.864576,111.796401 213.864576,108.624224 L213.864576,108.615945 C213.869082,105.179607 216.586075,102.380339 219.98579,102.253151 L219.411598,103.371504 L219.829192,104.392772 L220.54759,104.096627 L221.210409,105.712819 C220.902095,105.608209 220.571249,105.551764 220.227635,105.551764 C218.533973,105.551764 217.161019,106.927504 217.161019,108.624224 C217.161019,110.32132 218.533973,111.697059 220.227635,111.697059 C221.92092,111.697059 223.293875,110.32132 223.293875,108.624224 C223.293875,108.589604 223.2935,108.555361 223.292373,108.520742 L225.046495,112.787942 C224.090384,113.897264 222.759865,114.673563 221.250967,114.917779" id="Fill-364" fill="#005960"></path>
                    <path d="M220.227522,111.696946 C218.533861,111.696946 217.160906,110.321207 217.160906,108.624111 C217.160906,106.927391 218.533861,105.551652 220.227522,105.551652 C220.571136,105.551652 220.901982,105.608096 221.210296,105.713083 L221.544147,106.526259 L222.187437,106.26097 C222.289207,106.345637 222.385344,106.437077 222.475472,106.534537 L223.29226,108.521006 C223.293387,108.555249 223.293762,108.589492 223.293762,108.624111 C223.293762,110.321207 221.921183,111.696946 220.227522,111.696946" id="Fill-365" fill="#C1C3C5"></path>
                    <path d="M119.276562,43.8239695 L138.522337,43.8239695 L138.522337,10.1936169 C138.522337,4.8682717 134.213828,0.551024296 128.899261,0.551024296 C123.585071,0.551024296 119.276562,4.8682717 119.276562,10.1936169 L119.276562,43.8239695 Z" id="Fill-366" fill="#56B9CF"></path>
                    <path d="M150.546768,43.8239695 L169.798927,43.8239695 L169.798927,10.1936169 C169.798927,4.8682717 165.490418,0.551024296 160.175852,0.551024296 L160.169844,0.551024296 C154.855277,0.551024296 150.546768,4.8682717 150.546768,10.1936169 L150.546768,43.8239695 Z" id="Fill-367" fill="#56B9CF"></path>
                    <path d="M181.821782,43.8239695 L201.069434,43.8239695 L201.069434,10.1936169 C201.069434,4.8682717 196.760925,0.551024296 191.446359,0.551024296 L191.444857,0.551024296 C186.130291,0.551024296 181.821782,4.8682717 181.821782,10.1936169 L181.821782,43.8239695 Z" id="Fill-368" fill="#56B9CF"></path>
                    <path d="M0.850021471,58.3815938 L20.1021806,58.3815938 L20.1021806,49.1739997 C20.1021806,43.8494071 15.7940471,39.532536 10.4802319,39.532536 L10.4719701,39.532536 C5.15815492,39.532536 0.850021471,43.8494071 0.850021471,49.1739997 L0.850021471,58.3815938 Z" id="Fill-369" fill="#CDEAE6"></path>
                    <path d="M35.4593319,58.3815938 L54.711491,58.3815938 L54.711491,49.1739997 C54.711491,43.8494071 50.4033576,39.532536 45.0895423,39.532536 L45.0816561,39.532536 C39.7674654,39.532536 35.4593319,43.8494071 35.4593319,49.1739997 L35.4593319,58.3815938 Z" id="Fill-370" fill="#CDEAE6"></path>
                    <path d="M70.07052,58.3815938 L89.3147929,58.3815938 L89.3147929,49.1739997 C89.3147929,43.8494071 85.0066595,39.532536 79.6924687,39.532536 C74.3786535,39.532536 70.07052,43.8494071 70.07052,49.1739997 L70.07052,58.3815938 Z" id="Fill-371" fill="#CDEAE6"></path>
                </g>
            </g>
        </g>
    </g>
</svg>