<?xml version="1.0" encoding="UTF-8"?>
<svg width="49px" height="45px" viewBox="0 0 49 45" version="1.1" xmlns="http://www.w3.org/2000/svg" xmlns:xlink="http://www.w3.org/1999/xlink">
    <!-- Generator: sketchtool 51.1 (57501) - http://www.bohemiancoding.com/sketch -->
    <title>68DDA186-A032-4DB4-BFF7-3D7176BF9A55</title>
    <desc>Created with sketchtool.</desc>
    <defs></defs>
    <g id="Web" stroke="none" stroke-width="1" fill="none" fill-rule="evenodd">
        <g id="Insurance-Results:-Coverage-you-need" transform="translate(-844.000000, -365.000000)" fill="#00A7A7" fill-rule="nonzero">
            <g id="Group-18" transform="translate(781.000000, 341.000000)">
                <g id="Group-19" transform="translate(63.000000, 24.000000)">
                    <path d="M48.2060106,16.8080745 L25.7378936,0.467712766 C24.9209043,-0.145053191 24.1038191,-0.145053191 23.2868298,0.467712766 L0.818712766,16.8080745 C-0.815361702,17.829383 0.205946809,20.4846702 2.04424468,20.4846702 L6.12938298,20.4846702 L6.12938298,42.9527872 C6.12938298,44.1783191 6.94637234,44.9953085 8.17190426,44.9953085 L40.8527234,44.9953085 C42.0782553,44.9953085 42.8952447,44.1783191 42.8952447,42.9527872 L42.8952447,20.4846702 L46.980383,20.4846702 C48.8187766,20.4846702 49.8399894,17.829383 48.2060106,16.8080745 Z M24.5123617,40.910266 C17.7719362,40.910266 12.2570426,35.3953723 12.2570426,28.6549468 C12.2570426,21.9145213 17.7719362,16.3996277 24.5123617,16.3996277 C31.2527872,16.3996277 36.7676809,21.9145213 36.7676809,28.6549468 C36.7676809,35.3953723 31.2527872,40.910266 24.5123617,40.910266 Z" id="Shape"></path>
                    <polygon id="Shape" points="27.0812234 26.0860851 27.0812234 20.9483617 21.9435 20.9483617 21.9435 26.0860851 16.8057766 26.0860851 16.8057766 31.2238085 21.9435 31.2238085 21.9435 36.3615319 27.0812234 36.3615319 27.0812234 31.2238085 32.2189468 31.2238085 32.2189468 26.0860851"></polygon>
                </g>
            </g>
        </g>
    </g>
</svg>