<svg xmlns="http://www.w3.org/2000/svg" xmlns:xlink="http://www.w3.org/1999/xlink" width="375" height="315" viewBox="0 0 375 315">
    <defs>
        <path id="a" d="M0 0h375v315H0z"/>
        <path id="c" d="M0 0h424v113.943H0z"/>
    </defs>
    <g fill="none" fill-rule="evenodd">
        <mask id="b" fill="#fff">
            <use xlink:href="#a"/>
        </mask>
        <use fill="#00A7A7" xlink:href="#a"/>
        <g mask="url(#b)">
            <path fill="#00A7A7" d="M-19 315.505h423.872V33H-19z"/>
            <g transform="translate(-19 201.563)">
                <mask id="d" fill="#fff">
                    <use xlink:href="#c"/>
                </mask>
                <path fill="#005960" fill-opacity=".3" d="M360.02 0c-48.444 0-89.73 30.666-105.534 73.659-3.808-.39-7.67-.591-11.58-.591-28.909 0-55.265 10.923-75.182 28.865-11.897-24.11-36.564-40.774-65.163-41.151-17.03-26.344-46.644-43.781-80.33-43.781-52.803 0-95.609 42.835-95.609 95.676 0 52.84 42.806 95.675 95.608 95.675 15.232 0 29.629-3.57 42.41-9.911 10.86 6.301 23.475 9.911 36.932 9.911 10.725 0 20.913-2.294 30.107-6.413 7.924 54.367 54.7 96.12 111.226 96.12 48.445 0 89.731-30.666 105.535-73.658 3.807.39 7.67.59 11.58.59 62.086 0 112.416-50.365 112.416-112.495S422.106 0 360.02 0" mask="url(#d)"/>
            </g>
            <path fill="#005960" d="M186.244 147.417l5.682-3.146c11.608-6.204 5.062-9.246 30.112-2.438 9.59 2.607 42.833 28.007 42.833 28.007s35.248-2.2 44.966-2.748c8.832-.498 20.066 15.147 11.654 19.764l-17.24 4.625-87.214-5.834-30.793-38.23zM163.963 147.173l-5.682-3.146c-11.608-6.204 1.296-9.262-31.215-3.21-9.77 1.82-41.73 28.779-41.73 28.779s-9.946 9.463-19.664 8.916c-8.832-.498-20.295 27.397-11.883 32.014l10.449-19.29 99.725-44.063z"/>
            <path fill="#E89561" d="M161.263 149.722h27.861V119.73h-27.861z"/>
            <path fill="#FFEDDC" d="M168.171 80.294c1.597 1.74 3.536 3.306 5.74 4.632l-8.466-1.108a16.15 16.15 0 0 0 2.726-3.524m22.033-23.45c-10.646-4.94-22.335-2.341-26.11 5.804-.114.247-.193.502-.29.753-4.511-2.022-10.458-1.048-14.968 2.908-4.587 4.024-6.31 9.926-4.761 14.711-.015-.002 9.519 31.113 9.519 31.113l15.844-3.465 26.835 4.403 8.213-35.273-.096.028c1.46-7.657-4.688-16.574-14.186-20.982"/>
            <path fill="#E89561" d="M157.988 112.762l-3.48.019c-4.376.017-6.308-7.038-6.308-7.038-1.006-3.338 1.168-6.9 4.115-6.742l4.743-.006.93 13.767zM191.124 112.762l3.48.019c4.375.017 6.307-7.038 6.307-7.038 1.006-3.338-1.168-6.9-4.115-6.742l-4.743-.006-.93 13.767z"/>
            <path fill="#FAB08A" d="M175.193 69.197c-7.758 0-16.192 3.32-20.15 8.411-3.34 4.298-2.825 10.481-2.802 10.68l1.566 27.598c.763 5.797 13.16 14.32 13.16 14.32a14.35 14.35 0 0 0 15.631 0s11.88-6.822 13.53-13.658l1.51-36.199c.328-1.703-8.14-11.152-22.445-11.152"/>
            <path fill="#7F2A1C" d="M164.208 106.179h-3.03a.47.47 0 0 1-.468-.469v-3.977a.47.47 0 0 1 .468-.47h3.03a.47.47 0 0 1 .468.47v3.977a.47.47 0 0 1-.468.469"/>
            <path fill="#005960" d="M218.606 278.309l-88.636.882-11.887-107.493c0-19.114 15.215-34.683 34.315-34.683l22.525 2.091 22.267-1.974c19.1 0 34.842 15.378 34.842 34.491L218.606 278.31z"/>
            <path fill="#7F2A1C" d="M189.394 106.179h-3.03a.47.47 0 0 1-.468-.469v-3.977a.47.47 0 0 1 .468-.47h3.03a.47.47 0 0 1 .468.47v3.977a.47.47 0 0 1-.468.469"/>
            <path fill="#B75624" d="M192.363 97.619c-.073 0-.147-.004-.221-.014a36.667 36.667 0 0 0-3.86-.293c-1.459-.036-1.94-.006-3.387.133-.817.078-1.871-.296-1.961-1.027-.09-.73.804-1.541 1.633-1.62 1.583-.152 2.206-.197 3.794-.15 3.455.105 5.992.96 5.793 2.081-.118.661-1.054.89-1.791.89M158.597 97.619c.073 0 .147-.004.221-.014a36.578 36.578 0 0 1 3.86-.293c1.459-.036 1.94-.006 3.387.133.817.078 1.871-.297 1.961-1.027.09-.731-.804-1.541-1.633-1.62-1.583-.152-2.206-.197-3.794-.15-3.455.105-5.992.96-5.793 2.081.117.661 1.054.89 1.79.89"/>
            <path fill="#FFEDDC" d="M188.667 61.315c-10.646-4.94-21.6-3.93-24.465 2.256-.779 1.68-.86 3.57-.383 5.529-2.715.218-5.77 1.224-8.68 3.022-6.546 4.046-9.864 10.548-7.411 14.523a5.332 5.332 0 0 0 1.302 1.418v8.678a2.55 2.55 0 0 0 2.542 2.545h.204a2.55 2.55 0 0 0 2.543-2.545v-8.996c0-.094-.018-.184-.028-.276v-1.763c0-5.09 4.123-9.215 9.209-9.215h4.62c2.545 2.754 6.02 5.3 10.167 7.224 10.646 4.94 22.152 4.238 25.018-1.948 2.866-6.186-3.992-15.512-14.638-20.452"/>
            <path fill="#FFF" d="M174.924 139.106l-4.183 4.934c-2.832 3.34-8.013 3.244-10.72-.199l-5.187-6.6 6.44-7.496 13.65 9.361zM174.924 139.106l4.341 5.141c2.97 3.517 8.478 3.21 11.038-.615l4.25-6.348-5.423-7.003-14.206 8.825z"/>
            <path fill="#7F2A1C" d="M93.43 180.916c-1.74-1.908-3.837-3.468-6.215-4.518l.782-.27c1.136.104 2.298.165 3.51.13 3.455-.1 6.635-.772 9.467-1.891a12.671 12.671 0 0 0 3.163 4.416 15.086 15.086 0 0 0-1.254 3.476c-3.01-1.821-6.363-2.419-9.453-1.343zm-6.23-4.867l.006.345a17.76 17.76 0 0 0-1.482-.57c.485.086.975.164 1.476.225zm-10.518-3.853c1.788 1.235 3.827 2.218 6.077 2.914a17.754 17.754 0 0 0-2.703-.228c-2.28 0-4.452.446-6.454 1.23a15.639 15.639 0 0 0-.144-4.347l3.224.431zm51.44 24.632c.955-3.496.846-7.651-.586-11.771-1.104-3.177-2.839-5.883-4.91-7.945a12.59 12.59 0 0 0 2.63-7.703c0-3.072-1.096-5.887-2.915-8.08l-9.474-16.105c-3.83-7.255-12.29-9.731-22.108-9.447-10.701.309-17.884 5.432-21.794 13.405-.029-.007-11.296 22.592-11.764 25.25-.71 4.04.205 7.848 2.067 10.287-3.468.976-6.013 4.155-6.013 7.937a8.242 8.242 0 0 0 3.719 6.892c-4.98 3.149-8.295 8.69-8.295 15.02 0 9.815 7.952 17.773 17.76 17.773 9.81 0 17.761-7.958 17.761-17.773 0-1.556-.22-3.057-.596-4.496a17.629 17.629 0 0 0 6.743-2.949c3.788 4.848 9.277 7.234 14.116 5.55 3.693-1.284 6.219-4.663 7.193-8.925 2.414 1.46 5.044 2.119 7.587 1.77.246 4.335 3.827 7.779 8.221 7.779 4.554 0 8.245-3.695 8.245-8.251a8.244 8.244 0 0 0-7.587-8.218z"/>
            <path fill="#FFB385" d="M155.457 381.957l-1.49-5.584-3.184-11.048-7.528-47.04a24.837 24.837 0 0 1 .131-8.599l10.877-61.125s-1.921-1.035-3.397-.404c-8.487 3.62-13.337 12.774-14.538 21.929l-10.323 35.243a24.833 24.833 0 0 0 .26 12.562l14.599 51.468-1.026 8.409 3.175 8.15a4.306 4.306 0 0 0 5.253 2.563l4.27-1.286a4.309 4.309 0 0 0 2.92-5.238"/>
            <path fill="#FAB08A" d="M295.593 175s3.76.512 5.576 1.045c10.438 3.066 19.155 11.694 21.828 22.247l15.764 43.243-16.58 12.945L295.593 175z"/>
            <path fill="#FAB08A" d="M338.512 240.838c2.043 4.845 14.943 65.376 14.943 65.376l-12.726.631-20.473-57.8s16.212-13.052 18.256-8.207"/>
            <path fill="#FAB08A" d="M353.177 305.28l-12.448 1.565 3.465 11.797-1.122 7.69a3.154 3.154 0 0 0 2.978 3.452l7.364.376c1.595.082 3-1.043 3.269-2.618l2.14-12.492a3.676 3.676 0 0 0-.633-2.757l-5.013-7.013z"/>
            <path fill="#005960" d="M315.648 410.289l-4.746-104.176a72.571 72.571 0 0 0-8.274-30.035H279.63l.317-3.304-44.111.674a72.592 72.592 0 0 0-6.023 30.567l2.218 106.52 35.575-.017 5.081-62.118 9.644 62.38 33.316-.491z"/>
            <path fill="#FAE6BB" d="M235.556 243.977l9.561.465 8.676-14.328-14.449-4.024z"/>
            <path fill="#FF7900" d="M269.352 155.412c-.337 0-.667.026-.997.05a13.418 13.418 0 0 0 1.85-6.769c.012-4.816-2.639-9.133-6.54-11.536v-1.665L252.29 112.29l-8.328 32.008a13.917 13.917 0 0 0-.733 4.364c0 3.036 1 5.838 2.69 8.093.862 1.148 2.525 2.152 4.337 2.97 3.518 1.59 5.676 5.09 5.609 8.952l-.002.199c-.019 7.23 5.944 13.361 13.167 13.53 7.597.176 13.81-5.933 13.81-13.495 0-7.455-6.039-13.498-13.488-13.498"/>
            <path fill="#FF7900" d="M322.687 195.554c-10.112 0-18.308-7.296-18.308-16.296 0-.697.065-1.378.16-2.052-2.143 1.246-4.233 2.069-6.08 2.052-10.622-.098-17.668-13.51-17.668-13.51l-8.623-43.049 30.195-11.857 5.273 17.19c1.407 4.41 5.436 7.293 10.097 7.658 6.173.593 11.608 5.106 13.185 11.595.752 3.09.52 6.183-.493 8.94-1.348 3.667.065 7.87 3.305 10.051 0 0 20.783 31.444-5.725 53.398"/>
            <path fill="#FAB08A" d="M252.856 168.908s-3.782.303-5.624.735c-10.592 2.484-19.773 10.616-23.024 21.005l-18.13 42.305-14.858 13.843 14.277 10.558a70.53 70.53 0 0 0 25.078-28.066l16.217-32.795 6.064-27.585z"/>
            <path fill="#FF7900" d="M302.937 119.476c-1.575 10.49-12.72 18.329-27.572 16.977-14.85-1.353-23.678-11.01-23.334-21.612.399-12.29 12.141-19.973 26.992-18.62 14.85 1.352 25.958 9.647 23.914 23.255"/>
            <path fill="#E89561" d="M259.476 145.05l-3.378-.29c-4.247-.37-5.498-7.384-5.498-7.384-.682-3.327 1.742-6.591 4.587-6.178l4.6.415-.311 13.437zM290.087 148.298l3.374.326c4.244.403 6.74-6.271 6.74-6.271 1.27-3.15-.525-6.797-3.398-6.904l-4.6-.423-2.116 13.272z"/>
            <path fill="#FFAB78" d="M275.87 178.671c-6.741 0-12.206-2.74-12.206-9.486v-15.993h24.411v15.356c0 6.746-5.465 10.123-12.205 10.123"/>
            <path fill="#E89561" d="M263.664 166.492c3.863 1.309 8.27 2.056 12.954 2.056 4.093 0 7.965-.582 11.457-1.598v-16.938h-24.411v16.48z"/>
            <path fill="#FAB08A" d="M265.38 112.945c-5.058-.452-9.46 3.416-9.678 8.493l-1.033 25.691c.23 5.691 8.995 14.495 8.995 14.495 2.124 1.672 4.713 3.95 7.412 4.088 5.656.285 21.11-7.657 23.314-14.143l2.786-22.063c1.13-7.149-7.338-14.333-12.348-14.803-7.423-.695-11.99-1.091-19.448-1.758"/>
            <path fill="#7F2A1C" d="M262.29 139.973a1.938 1.938 0 0 1-1.684-2.153l.042-.354a1.938 1.938 0 0 1 2.152-1.685 1.938 1.938 0 0 1 1.684 2.153l-.043.354a1.938 1.938 0 0 1-2.151 1.685M285.475 142.8a1.938 1.938 0 0 1-1.684-2.153l.043-.354a1.938 1.938 0 0 1 2.151-1.686 1.94 1.94 0 0 1 1.685 2.153l-.044.354a1.938 1.938 0 0 1-2.151 1.685"/>
            <path fill="#F37070" d="M272.37 157.094c-3.115-.283-7.135-2.746-6.902-5.313l14.965 1.363c-.233 2.566-4.185 4.304-8.064 3.95"/>
            <path fill="#FFAB78" d="M69.683 204.092l-4.375 1.284a22.598 22.598 0 0 0-13.743 17.962l-4.952 25.518a97.67 97.67 0 0 0-1.675 23.324l3.741 51.085s11.042 2.197 16.507 0l-1.22-12.677-.213-49.03 5.93-57.466zM118.36 202.314l4.296 1.53a22.602 22.602 0 0 1 12.702 18.714l3.496 25.758a97.652 97.652 0 0 1 .349 23.381l-4.037 38.271-1.715 17.282c-5.597 1.831-10.094-15.784-15.425-18.288l2.995-48.938-2.66-57.71z"/>
            <path fill="#E89561" d="M78.897 182.154l-3.156.088c-3.969.105-5.865-6.255-5.865-6.255-.982-3.006.917-6.282 3.593-6.2l4.302-.102 1.126 12.469zM106.742 182.444l3.139-.345c3.945-.441 4.953-7 4.953-7 .56-3.114-1.77-6.098-4.41-5.65l-4.275.49.593 12.505z"/>
            <path fill="#FFAB78" d="M94.479 213.786c-6.272.308-11.605-4.53-11.912-10.805l-.776-15.817 22.71-1.115.775 15.816c.308 6.276-4.526 11.612-10.797 11.92"/>
            <path fill="#E89561" d="M82.398 199.803c3.653 1.042 7.787 1.535 12.145 1.321 3.808-.187 7.382-.905 10.585-2.01l-.773-15.757-22.709 1.115.752 15.331z"/>
            <path fill="#FAB08A" d="M80.468 150.644c-4.729.115-6.791 6.08-7.496 10.85l1.183 21.915c.812 5.242 10.178 12.292 10.178 12.292 2.142 1.324 4.773 3.058 7.29 3.001 2.516-.056 5.616-1.884 7.696-3.302 0 0 10.706-5.836 12.062-12.072l.01-23.206c.06-4.69-3.467-10.09-8.153-9.997-6.943.138-15.798.35-22.77.52"/>
            <path fill="#7F2A1C" d="M81.213 176.356a1.806 1.806 0 0 1-1.84-1.76l-.007-.332a1.805 1.805 0 0 1 1.758-1.84c.99-.023 1.818.769 1.84 1.759l.007.332a1.805 1.805 0 0 1-1.758 1.84M103.944 175.84a1.806 1.806 0 0 1-1.84-1.759l-.007-.332a1.805 1.805 0 0 1 1.758-1.84c.99-.024 1.817.769 1.84 1.759l.007.332a1.805 1.805 0 0 1-1.758 1.84M106.019 169.927a1.402 1.402 0 0 1-.2-.02c-1.154-.191-.85-.102-2.013-.17-1.321-.08-1.758-.068-3.076.01-.743.045-1.687-.33-1.744-.995-.058-.666.78-1.371 1.534-1.416 1.44-.085 2.007-.106 3.444-.011 3.13.208 3.925.844 3.707 1.854-.128.596-.984.772-1.652.748M78.507 170.198c.066-.004.132-.011.2-.025 1.149-.217 1.33-.13 2.49-.224 1.32-.11 1.756-.107 3.075-.057.744.027 1.68-.367 1.722-1.034.043-.667-.809-1.354-1.565-1.382-1.441-.053-2.008-.061-3.444.065-3.124.277-4.387.94-4.147 1.946.14.592 1 .75 1.669.71"/>
            <path fill="#F05454" d="M92.97 190.37c-2.914.066-6.906-2.32-6.974-5.373l13.992-.317c.07 3.053-3.393 5.608-7.019 5.69"/>
            <path fill="#8C2D1F" d="M92.695 140.4l-2.982.141c-10.191.486-17.326 10.053-16.812 21.642l.08.659c1.386-1.256 2.326-2.046 4.194-2.08l28.133-.519a7.734 7.734 0 0 1 5.946 2.622l.385.439-.004-2.557c-.158-11.658-8.702-20.836-18.94-20.348"/>
            <path fill="#7F2A1C" d="M260.227 132.738c.064.01.13.017.197.018a29.92 29.92 0 0 1 3.439.277c1.288.177 1.706.275 2.957.619.705.193 1.692-.015 1.886-.704.195-.69-.463-1.598-1.18-1.794-1.368-.374-1.908-.508-3.312-.692-3.054-.4-5.419.055-5.421 1.162-.001.652.786 1.007 1.434 1.114"/>
            <path fill="#FAE6BB" d="M95.291 221.526c9.81-1.264 16.772-9.986 15.55-19.482-.014-.118-.045-.229-.062-.346l-35.559 1.845a16.802 16.802 0 0 0 .097 3.078c1.222 9.495 10.164 16.168 19.974 14.905"/>
            <path fill="#FF7900" d="M281.77 107.842c3.234 5.173-1.111 13.728-9.706 19.108-8.595 5.38-25.053-4.526-21.417.374.617.83 1.112-13.73 9.706-19.109 8.595-5.38 18.184-5.547 21.418-.373"/>
            <path fill="#00C9C3" d="M130.628 221.736c-.328-12.889-7.341-20.905-19.647-20.551l-35.79 1.73c-12.306.353-16.906 8.916-16.579 21.805l4.672 16.238.153 39.85c2.469.32 41.806 2.522 60.55-.814l1.368-35.477 5.273-22.78z"/>
            <path fill="#FAB08A" d="M111.024 201.183l-35.789 1.73a24.72 24.72 0 0 0-2.225.162c.683 7.419 10.588 12.548 22.124 11.481 10.42-.963 18.58-6.654 19.564-13.193a24.407 24.407 0 0 0-3.674-.18"/>
            <path fill="#00C9C3" d="M65.307 205.376a22.6 22.6 0 0 0-13.743 17.962l-4.952 25.518a98.44 98.44 0 0 0-.672 3.95l.729.765a19.4 19.4 0 0 0 16.857 5.821l4.81-42.255 1.347-13.045-4.376 1.284zM139.385 251.545c-.127-2.847-3.938-30.171-3.938-30.171-.585-7.592-5.428-14.311-12.702-17.622l-4.016-1.487 2.05 50.28-.27 4.159.352.03c6.953.614 13.786-.355 18.524-5.189"/>
            <path fill="#FAE6BB" d="M172.951 259.252c2.239 4.758 17.58 64.716 17.58 64.716l-12.69 1.147-22.799-56.923s15.67-13.698 17.909-8.94"/>
            <path fill="#004472" d="M326.033 206.622l-1.006-2.76c-.433-9.7-5.121-17.768-12.463-24.046l-2.31 1.547c-2.476-5.126-7.313-8.577-16.508-9.599l-37.47-2.814c-8.308-.371-13.635 1.724-17.025 6.004l-.01-.028-1.35-1.43c-6.464 3.901-11.584 10.022-13.842 17.236l-3.485 8.133a37.106 37.106 0 0 0 13.44 15.56l.52 61.653h68.104l7.95-57.39c7.15-3.848 15.455-12.066 15.455-12.066"/>
            <path fill="#FAB08A" d="M293.87 171.764l-37.47-2.814c-8.266-.37-14.032 1.757-17.158 5.975 4.812 7.844 18.97 14.043 35.774 15.01 15.203.876 30.664-4.19 37.286-10.258-3.072-2.825-9.412-6.91-18.432-7.913"/>
            <path fill="#FFEDDC" d="M217.975 351.78l-72.18 4.177-2.998-87.456c-.522-14.433 6.353-24.61 20.775-25.134l33.825-1.138c14.423-.523 23.082 10.727 23.605 25.159l-3.027 84.392z"/>
            <path fill="#004472" d="M196.623 180.242a13.981 13.981 0 0 0-4.165-.673c-.07-2.423-1.977-4.541-4.608-4.914-1.571-.223-3.074.223-4.187 1.11a2.04 2.04 0 0 0-.281.28c-1.076 1.28-2.84 1.7-4.26.82-1.377-.853-3.046-1.469-4.888-1.73-5.375-.76-10.179 1.786-10.73 5.687a5.21 5.21 0 0 0-.04.914c-.644-.25-1.328-.423-2.057-.45a6.41 6.41 0 0 0-6.643 6.165c-.055 1.467.407 2.822 1.195 3.934-1.213 1.206-1.784 2.732-1.352 4.083.426 1.331 1.733 2.152 3.356 2.342l-.148 17.48 16.678-2.295-.098 3.887 26.698 1.257.754-21.489c.006-.053.019-.105.024-.158.12-1.414.07-2.722-.132-3.931 1.127-.692 1.96-1.646 2.338-2.832 1.136-3.563-2.201-7.81-7.454-9.487"/>
            <path fill="#FAB08A" d="M164.912 222.19l-3.14-.05c-3.948-.069-5.554-6.471-5.554-6.471-.844-3.031 1.187-6.203 3.842-6.003l3.858-.464.994 12.989zM194.219 223.62l3.133-.206c3.94-.264 5.228-6.738 5.228-6.738.693-3.069-1.491-6.136-4.134-5.806l-4.269.299.042 12.451zM179.984 254.347c-6.244.031-11.332-5.01-11.363-11.258l-.078-15.75 22.613-.113.079 15.75c.03 6.249-5.006 11.34-11.25 11.371"/>
            <path fill="#F09C69" d="M168.605 239.66c3.584 1.194 7.67 1.866 12.009 1.845 3.792-.02 7.375-.577 10.606-1.534l-.078-15.69-22.613.112.076 15.266z"/>
            <path fill="#FAB08A" d="M168.738 193.575c-1.57.041-5.165 1.363-5.148 5.948l-2.846 5.286.376 18.464c.577 5.244 9.576 12.66 9.576 12.66 2.07 1.41 4.608 3.248 7.11 3.302 2.504.053 5.664-1.626 7.793-2.944 0 0 10.893-5.33 12.514-11.466l.763-19.182-3.075-3.884c.266-4.658-1.798-7.65-4.416-7.701-6.905-.136-15.713-.661-22.647-.483"/>
            <path fill="#7F2A1C" d="M168.244 216.375a1.796 1.796 0 0 1-1.752-1.83l.008-.33a1.796 1.796 0 0 1 1.827-1.752 1.795 1.795 0 0 1 1.751 1.83l-.007.33a1.796 1.796 0 0 1-1.827 1.752M190.423 216.86a1.796 1.796 0 0 1-1.752-1.83l.008-.33a1.796 1.796 0 0 1 1.827-1.752 1.796 1.796 0 0 1 1.752 1.829l-.007.33a1.796 1.796 0 0 1-1.828 1.752"/>
            <path fill="#B75624" d="M191.972 209.68a1.438 1.438 0 0 1-.2-.017c-1.15-.173-.847-.088-2.003-.138-1.316-.06-1.75-.042-3.06.056-.737.055-1.681-.302-1.749-.963-.067-.662.755-1.375 1.505-1.432 1.43-.105 1.993-.135 3.425-.062 3.115.159 3.915.78 3.714 1.788-.118.594-.967.782-1.632.769"/>
            <path fill="#00C9C3" d="M132.664 327.25l-78.969-.834 3.262-26.165a52.914 52.914 0 0 1 4.608-15.949l1.845-3.929 59.415-.502h1.303c5.279 9.414 7.03 18.772 7.6 29.604l.936 17.775z"/>
            <path fill="#B75624" d="M166.796 208.76c.066.007.132.01.2.007 1.163-.039 1.327.074 2.481.158 1.314.093 1.744.162 3.032.411.727.14 1.706-.105 1.85-.754.143-.649-.59-1.454-1.329-1.596-1.408-.272-1.964-.366-3.394-.46-3.113-.203-4.455.257-4.372 1.281.048.604.87.89 1.532.953"/>
            <path fill="#FFF" d="M178.447 231.702c-2.897-.062-6.756-2.714-6.689-5.882l13.917.298c-.067 3.168-3.62 5.66-7.228 5.584"/>
            <path fill="#004472" d="M159.236 209.857l-.941.005-.062-16.447 5.328-1.558.051 13.581a4.4 4.4 0 0 1-4.376 4.419M200.255 210.936l.941.005.074-16.446-5.327-1.562-.062 13.581a4.4 4.4 0 0 0 4.374 4.422"/>
            <path fill="#FFEDDC" d="M136.399 265.546l-11.077 36.817c3.124 5.316 18.792 4.591 18.794 4.586l14.303-62.507s-3.157.623-4.667 1.167c-8.682 3.124-15.625 10.868-17.353 19.937"/>
            <path fill="#FFB385" d="M234.498 299.155l-10.769-35.701c-1.728-9.07-8.671-16.814-17.353-19.937-1.51-.544-3.368.6-3.368.6l14.39 60.394c.706 2.8.92 5.703.629 8.578l-4.799 47.396-2.539 11.213-1.165 5.66a4.31 4.31 0 0 0 3.218 5.062l4.338 1.036a4.306 4.306 0 0 0 5.095-2.861l2.7-8.322-1.51-8.335 11.6-52.227c.924-4.156.763-8.48-.467-12.556"/>
            <path fill="#FFEDDC" d="M223.73 263.454l11.076 36.817c-.214.75-11.156 5.552-16.656 4.411l-.749-.155c-.003-.016-15.692-62.178-15.692-62.178s3.157.624 4.667 1.168c8.682 3.123 15.625 10.867 17.353 19.937"/>
            <path fill="#7F2A1C" d="M290.24 136.32a1.28 1.28 0 0 1-.2-.022 31.223 31.223 0 0 0-3.496-.43c-1.325-.089-1.764-.077-3.085.004-.745.045-1.688-.358-1.74-1.074-.053-.714.792-1.47 1.549-1.516 1.444-.087 2.012-.108 3.454-.002 3.136.23 5.407 1.157 5.181 2.241-.133.64-.993.827-1.663.8"/>
            <path fill="#FFF" d="M175.164 123.516c-4.35.002-8.59-2.32-8.676-5.373l17.41-.317c.085 3.053-4.222 5.608-8.734 5.69"/>
            <g fill="#F09F7C">
                <path d="M270.784 140.034c.21-1.105 1.897-.637 1.687.465-.201 1.117-.41 2.34-.053 3.45.463 1.491 2.08 1.595 3.426 1.7 1.11.087 1.118 1.837 0 1.748-1.748-.136-3.81-.364-4.736-2.052-.891-1.627-.638-3.568-.324-5.31M177.097 216.27c.16-.846 1.453-.487 1.292.357-.155.856-.315 1.792-.04 2.644.354 1.143 1.593 1.222 2.625 1.302.85.067.857 1.408 0 1.34-1.34-.104-2.92-.28-3.63-1.573-.683-1.246-.489-2.734-.247-4.07M90.345 174.673c.16-.847 1.453-.488 1.292.356-.154.856-.315 1.792-.04 2.644.354 1.142 1.593 1.222 2.625 1.302.85.067.857 1.408 0 1.34-1.34-.104-2.92-.28-3.63-1.573-.683-1.246-.488-2.734-.247-4.07M173.826 111.655c.386.186.794.364 1.224.371.676.008 1.12-.334 1.306-1.04.149-.586-.066-1.626-.17-2.19a53.456 53.456 0 0 0-.98-4.217c-.252-.914 1.12-1.5 1.373-.58.609 2.22 1.907 5.406 1.113 7.693-.727 2.087-2.693 2.072-4.452 1.337-.883-.371-.304-1.745.586-1.374"/>
            </g>
        </g>
    </g>
</svg>
