<svg xmlns="http://www.w3.org/2000/svg" xmlns:xlink="http://www.w3.org/1999/xlink" width="375" height="315" viewBox="0 0 375 315">
    <defs>
        <path id="a" d="M0 0h375v315H0z"/>
        <path id="c" d="M0 0h411v110.109H0z"/>
        <path id="e" d="M.098.042h96.199v11.493H.098z"/>
        <path id="g" d="M.215.168h72.454v87.92H.215z"/>
        <path id="i" d="M.026.195h23.82v120.05H.026z"/>
        <path id="k" d="M.006.201h71.76v74.953H.006z"/>
        <path id="m" d="M.002.151h70.625v52.98H.002z"/>
        <path id="o" d="M.167.008h32.88v135.618H.166z"/>
        <path id="q" d="M.17.31h48.033v172.02H.17z"/>
    </defs>
    <g fill="none" fill-rule="evenodd">
        <mask id="b" fill="#fff">
            <use xlink:href="#a"/>
        </mask>
        <use fill="#00A7A7" xlink:href="#a"/>
        <g mask="url(#b)">
            <path fill="#00A7A7" d="M-18 314h410.876V41H-18z"/>
            <g transform="translate(-18 203.891)">
                <mask id="d" fill="#fff">
                    <use xlink:href="#c"/>
                </mask>
                <path fill="#005960" fill-opacity=".3" d="M348.982 0c-46.96 0-86.98 29.635-102.299 71.18-3.69-.377-7.435-.57-11.225-.57-28.022 0-53.57 10.555-72.876 27.893-11.533-23.298-35.444-39.402-63.166-39.766C82.91 33.279 54.203 16.429 21.55 16.429c-51.184 0-92.677 41.394-92.677 92.456 0 51.063 41.493 92.457 92.677 92.457 14.765 0 28.72-3.45 41.108-9.578 10.528 6.09 22.756 9.578 35.8 9.578 10.397 0 20.273-2.217 29.185-6.198 7.68 52.538 53.022 92.887 107.816 92.887 46.96 0 86.98-29.635 102.299-71.18 3.69.376 7.435.57 11.225.57 60.182 0 108.97-48.671 108.97-108.71C457.951 48.67 409.163 0 348.981 0" mask="url(#d)"/>
            </g>
            <g transform="translate(142.125 302.465)">
                <mask id="f" fill="#fff">
                    <use xlink:href="#e"/>
                </mask>
                <path fill="#4CC4AC" d="M96.235 50.643c-.02-9.778-3.926-15.325-7.86-24.322-3.396-7.766-8.961-14.393-15.87-19.285C65.204 1.866 55.612-.767 46.695.26c-5.818.672-11.84 2.224-15.215 7.452-2.339 3.623-2.726 8.08-3.408 12.222a407.184 407.184 0 0 0-.812 5.126c-5.3 5.194-9.023 11.775-4.75 18.924a10.665 10.665 0 0 0 2.977 3.233c.075.553.173 1.1.295 1.64C23.684 50.189-.02 62.959.098 65.607h95.889c.488-1.436.255-11.41.248-14.963" mask="url(#f)"/>
            </g>
            <g transform="translate(240.233 225.913)">
                <mask id="h" fill="#fff">
                    <use xlink:href="#g"/>
                </mask>
                <path fill="#005960" d="M4.158 142.158h28.736c-.505-7.678-.948-18.3-1.042-24.419-.112-7.274 2.41-33.337 5.388-47.988 1.249 6.812 4.283 35.756 5.524 49.557.525 5.837 1.2 15.128 2.068 22.85h26.7c-.293-7.632.248-21.084.497-28.292A1072.309 1072.309 0 0 0 70.305 5.65c-.156-2.356-1.902-4.37-4.38-4.37-1.863 0-3.747 1.375-4.252 3.191-.597-1.729-2.167-3.025-4.119-3.025-2.58 0-4.124 2.013-4.38 4.37l-.152 1.404c-1.164-2.532-4.338-3.153-6.418-1.813a5.58 5.58 0 0 0-.36-1.001C45.503 2.853 44.26 1.653 42.8.77 40.33-.727 37.166.728 36.366 3.38c-.028.093-.05.185-.075.276a3.904 3.904 0 0 0-.56-.044c-1.483 0-2.68.702-3.448 1.763-.21-1.715-1.233-3.219-3.097-3.73-2.255-.617-4.8.757-5.388 3.052l-1.333 5.205c-.045-.595-.09-1.19-.14-1.783-.187-2.16-1.523-4.021-3.798-4.291-1.952-.232-4.467.956-4.806 3.13-.19 1.228-.382 2.456-.574 3.684-1.276.486-2.224 1.563-2.632 2.88a4.219 4.219 0 0 0-1.584-.32c-2.465 0-4.267 2.003-4.38 4.37L2.26 65.889 1.123 89.873c-.377 7.94-1.088 15.95-.866 23.901.21 7.478 1.522 20.03 3.901 28.384" mask="url(#h)"/>
            </g>
            <path fill="#FAB08A" d="M325.91 259.671c.887-16.385 5.054-27.94 4.08-37.643-.452-4.494-3.313-35.995-6.47-47.241-.403-1.432-1.825-1.728-2.885-1.266-.1-.312-.199-.624-.305-.935-.755-2.222-3.983-1.836-4.097.553a299.88 299.88 0 0 0-.256 7.317c-.567-1.81-1.34-3.547-2.436-5.118-.953-1.365-3.393-1.377-3.813.498-.85 3.803-.55 7.598-.036 11.424.523 3.908 1.196 7.795 1.95 11.665 1.149 5.906 2.417 11.79 3.68 17.675-.046.161-.081.33-.105.504-1.326 10.236 1.93 34.475 3.924 45.071-.06 1.896-.462 3.747-1.113 5.59-.797 2.254-1.37 4.483-1.359 6.891.01 2.338.49 4.66 1.404 6.812.279.654.738 1.425 1.393 1.952.407.327.841.466 1.45-.089.434-.396.503-1.476.39-1.743-.798-1.88-1.417-4.234-1.121-6.291.072-.506.165-1.23.836-.764.275.191.455.817.6 1.131a14.3 14.3 0 0 1 1.014 3.111c.416 1.999.38 4.07-.074 6.057-.45 1.974-1.178 3.868-1.532 5.867-.081.456.119.876.582 1.023.658.209 1.477-.171 1.761-.945 1.8-4.912 4.592-9.583 4.872-14.919.137-2.615-.724-5.05-1.247-7.573-.466-2.242-1.212-6.305-1.087-8.614"/>
            <path fill="#F79C82" d="M265.8 104.694c.066-2.219 2.013-2.827 3.124-1.888.41-.271.913-.385 1.462-.276.963.192 2.165-.363 3.1-.687a17.118 17.118 0 0 0 2.92-1.32c1.918-1.1 3.678-2.52 5.27-4.26.632-.69 1.35-.757 1.955-.466.237-.45.512-.876.843-1.27 1.833-2.172 3.123.696 1.406 3.006-1.364 1.83-1.896 11.729-1.998 14.391-.184 4.855-.234 7.904-.637 11.808-.192 1.86-6.283 3.036-8.356 2.985-5.227-.13-8.816-2.357-8.882-3.175-.61-7.495-.426-11.32-.206-18.848"/>
            <path fill="#FAB08A" d="M292.77 92.678c-.326-1.561-1.912-2.191-3.365-1.857-.35.32-.697.56-.99.67-1.088.406-2.054-.28-2.706-1.11-.947-1.202-1.658-2.736-3.17-3.456-.012-.005-.019-.012-.028-.018a20.336 20.336 0 0 1-3.038-1.731c-1.18-.802-2.417-1.95-3.915-1.966-1.692-.018-3.32.708-5.038.622-3.948-.195-8.707-4.967-8.71-8.682 0-.14.003-.276.005-.412-2.685 1.856-3.963 4.672-4.44 7.72-.146.453-.461 3.459-.47 3.964-.065 3.332.04 6.663.347 9.983.294 3.175.544 6.525 1.657 9.54 2.14 5.79 7.5 11.941 13.01 11.941 5.265 0 12.763-8.14 14.643-14.015.067-.207.13-.416.196-.625.33-.237.641-.487.928-.736 2.492-2.167 5.837-6.228 5.084-9.832"/>
            <path fill="#FFEDDC" d="M291.554 71.053c-4.33-5.458-11.2-8.157-18.01-8.698-2.888-.23-6.62.229-8.265 2.682-4.167-1.205-8.58 1.077-10.932 5.107-1.398 2.397-1.997 5.13-2.688 7.784-.653 2.503-2.051 4.986-1.79 7.63.274 2.76 2.443 5.234 5.392 5.143a4.862 4.862 0 0 0 1.657-.331 95.068 95.068 0 0 1-.014-3.948c.01-.505.325-3.51.47-3.965.478-3.047 1.756-5.862 4.441-7.72-.002.137-.004.272-.004.413 0 .128.007.257.018.387.003.039.009.078.013.117.01.094.022.187.038.281l.024.13c.018.093.038.188.06.283l.03.116c.028.107.06.214.094.322l.024.076a8.52 8.52 0 0 0 .794 1.694c1.636 2.718 4.826 5.138 7.614 5.277 1.718.084 3.346-.64 5.038-.623 1.499.016 2.735 1.164 3.915 1.966.958.652 1.98 1.255 3.047 1.737.007.004.011.009.018.012 1.513.72 2.224 2.254 3.17 3.457.42.533.971 1.006 1.6 1.168a1.892 1.892 0 0 0 .535.058 1.993 1.993 0 0 0 .573-.117c.067-.026.138-.06.21-.098l.03-.015c.069-.038.14-.083.214-.131.012-.01.025-.018.038-.027.074-.05.148-.106.224-.166l.032-.026c.08-.065.16-.133.24-.208.837-.191 1.715-.063 2.374.377.17-.62.296-1.261.452-1.858.45-1.736.984-3.446 1.576-5.137a8.908 8.908 0 0 0 1.23-3.967c.223-3.393-1.428-6.594-3.482-9.182M302.155 196.503c-.936-5.84-1.236-11.8-1.059-17.708.179-5.936 1.167-11.691 1.95-17.56.414-3.093.653-6.175.291-9.286-.365-3.137-1.098-6.187-1.827-9.254-.77-3.242-1.493-7.927-3.79-10.532 1.067-.195 1.447-1.644.438-2.257a14.045 14.045 0 0 0-1.594-.827c-.051-.128.09-.037-.051-.128-3.562-2.297-8.028-3.66-12.112-4.855.106-1.994.04-3.993-.216-5.998-.055-.43-.405-.82-.886-.674a27.77 27.77 0 0 1-16.552-.106l-.036-.021c-.918-.516-1.264-.19-1.249.47.033 1.45.037 2.902-.002 4.352-.05 1.894-.144 2.956-1.983 3.894-2.823 1.44-5.712 2.764-8.565 4.144-.742.36-.211 1.395.504 1.27-.068.044-.137.085-.204.129-.3.197-.464.479-.526.778-1.484.717-2.616 2.223-2.52 3.922.696 12.173 1.391 24.375.821 36.567-.557 11.912-3.023 23.428-5.166 35.122-1.091 5.956-2.034 11.964-2.444 18.01-.335 4.946-.702 10.802 2.288 15.09 3.623 5.194 9.68 5.547 15.384 4.291 5.409-1.191 10.57-2.327 16.13-2.6 5.895-.289 11.793-.066 17.688.088 2.856.075 5.906-.19 7.98-2.413 2.15-2.304 2.405-5.894 2.676-8.876 1.083-11.908-3.51-23.437-5.368-35.032"/>
            <path fill="#FF7900" d="M257.617 130.108c-.336-.962-.346-1.435-1.165-1.078-15.081 6.582-33.441 16.33-34.078 35.093-.024.696.997.925 1.302.387.3.41.817.639 1.329.291.203-.138.388-.301.563-.478h.072c-.488 1.305-.838 2.637-.08 3.934.335.575 1.025.629 1.495.31-.142.48-.277.962-.4 1.452-.276 1.109 1.382 1.914 1.922.807l.438-.897c.14.155.329.274.533.345l-.583 1.186c-.354.722.11 1.37.693 1.529-.228.43-.455.862-.682 1.294-.467.884.591 1.973 1.374 1.514-.156.48-.318.96-.47 1.444-.444 1.414.078 2.527.98 3.186.01 1.885.084 3.772.149 5.66.167 4.896.343 9.792.596 14.685.472 9.172 1.244 18.33 2.655 27.407a1.412 1.412 0 0 0-.706.859c-.7-.26-1.577-.017-1.819.897-.493.166-.908.589-.982 1.297l-.487 4.618c-1.136 4.97-1.99 9.997-2.19 15.11-.009.23.064.473.19.69-.237 3.246.099 6.456 1.072 9.612.105.342.284.584.498.747.052.253.104.507.16.76-.97.087-1.827 1.03-1.09 1.99 3.129 4.084 6.133 7.956 10.867 10.258 4.14 2.013 8.917 3.192 11.964 6.87.816.985 2.36.13 2.393-.988.228-8.016.46-16.032.685-24.049.107-3.817.202-7.652-.232-11.455-.436-3.821-1.793-7.583-1.508-11.456.133-1.796-2.67-1.787-2.803 0-.049.663-.048 1.32-.014 1.973a1.489 1.489 0 0 0-1.385-.677l-.062-.367.192-4.261c.337-2.901.657-5.804.943-8.71.484-4.913.994-9.86 1.175-14.81.09.01.181.022.275.022 1.218 0 2.045-.686 2.479-1.639a193.456 193.456 0 0 0-.202 7.518c-.006.9 1.396.9 1.402 0 .046-7.139.39-14.272 1.063-21.38.659-6.958 1.696-13.87 2.503-20.812 1.583-13.624 1.982-27.27-1.024-40.688"/>
            <path fill="#FFF" d="M249.834 131.485c-4.33 1.238-12.634 6.79-12.7 6.837-.744.525-1.62.7-1.79 2.574-.401 4.464.126 13.998.377 18.474.419 7.504 1.725 14.966 4.696 21.882.008.219.017.438.022.657.011.453.258.751.577.9.065.332.123.665.191.997a.874.874 0 0 0 .47.62c.218.385.67.552 1.09.5 0 .015.002.032.004.048.1.884 1.502.894 1.402 0-.464-4.108.314-8.413.739-12.501a512.79 512.79 0 0 1 1.566-13.374 516.215 516.215 0 0 1 4.218-26.754c.094-.505-.313-1.017-.862-.86M80.09 252.606c-.693-3.663-1.48-7.317-2.568-10.887-1.08-3.542-2.724-6.861-3.858-10.378-.975-3.023-1.237-6.15-3.59-8.261.713-.967 1.013-2.204.656-3.498-.57-2.07-3.02-3.686-5.172-2.93a156.472 156.472 0 0 0-11.247 4.456c-3.439 1.515-7.631 2.896-9.597 6.332-1.84 3.213-1.995 7.637-1.748 11.234.27 3.933 1.146 7.795 2.197 11.584 2.1 7.578 4.485 15.085 7.056 22.516 1.144 3.303 1.97 7.873 5.13 9.884 3.347 2.13 8.02.987 11.298-.685 3.393-1.73 5.968-4.645 8.114-7.715 2.178-3.114 4.406-6.542 4.783-10.402.361-3.689-.771-7.638-1.454-11.25"/>
            <path fill="#3D2459" d="M105.38 159.753c.27-.254-.047-.731-.419-.546l-.938.465a.353.353 0 0 0-.178-.184c.175-.138.353-.268.524-.412.286-.237-.026-.656-.34-.583-.042.009-.083.02-.125.03a.294.294 0 0 0-.16.012c-.05.017-.098.038-.148.057.02-.22-.171-.464-.434-.388-.373.109-.736.235-1.093.369a.345.345 0 0 0-.318-.007 18.52 18.52 0 0 0-2.016 1.112l-.198.061a24.67 24.67 0 0 0 1.527-1.621c.182-.213.078-.616-.248-.597-1.467.083-2.766.835-4.139 1.228a32.57 32.57 0 0 0 4.441-2.971c.266-.21.016-.568-.248-.597-2.897-.309-5.727.743-8.459 1.57a261.142 261.142 0 0 0-5.28 1.668c-.095-.16-.289-.262-.464-.128-.154.117-.311.229-.465.345a.34.34 0 0 0 .008-.123l.308-.33a.332.332 0 0 0 .094-.288c.32-.203.641-.404.961-.606.388-.244.051-.79-.353-.603-.582.267-1.131.57-1.655.904a.341.341 0 0 0-.213.033c-.724.386-1.391.822-2.03 1.305-.489.235-.972.485-1.449.766-.212.125-.201.355-.087.506l-.129.106a6.39 6.39 0 0 0-.495.407c-.337.309.154.776.496.494l.4-.328-.072.114c-.225.365.258.652.55.424.118-.092.233-.186.35-.278-.041.266.23.56.506.37.063-.042.124-.087.186-.13a.325.325 0 0 0 .196-.046 21.078 21.078 0 0 0 2.72-1.97c1.812-.595 3.629-1.181 5.454-1.74 2.555-.783 5.255-1.815 7.965-1.793a31.537 31.537 0 0 1-5.283 3.19c-.34.164-.136.627.177.653 1.853.148 3.38-.93 5.11-1.32a24.554 24.554 0 0 1-2.11 2.019c-.205.175-.076.504.145.582-.1.083-.203.162-.303.248-.262.226.016.695.341.584.28-.095.555-.2.831-.302-.13.16-.06.378.095.486l-.16.055c-.422.145-.246.813.187.674.167-.054.331-.112.498-.167a.284.284 0 0 0 .284.046l5.806-2.146c.404-.15.251-.776-.15-.68"/>
            <g transform="translate(42.266 193.754)">
                <mask id="j" fill="#fff">
                    <use xlink:href="#i"/>
                </mask>
                <path fill="#FAB08A" d="M21.482 1.157c-2.44.292-6.703 3.023-7.056 2.98C14.643 2.5 14.18.842 12.834.313 11.69-.134 9.982.716 9.728 2.4A726.22 726.22 0 0 0 4.72 43.243l-.137.399c-.813 2.392-1.338 4.82-1.65 7.388-.615 5.069-.23 10.196-.107 15.275.244 10.117.277 17.27-.14 26.936-.119.11-.872 6.181-1.433 9.006C.765 104.702-.19 107.174.18 109.7c.083.57.175 1.138.27 1.706.005.075.007.15.012.224-.006.23-.015.459-.023.688-.186 1.234-.514 2.45-.381 3.686.067.625.34 1.23.675 1.813.317.615.711 1.201 1.096 1.76l.052.29c.145.781.272 1.424.918 1.932.425.335 1.064.142 1.155-.256.348-1.524.205-2.155-.058-6.729-.015-.39-.41-4.165-.03-5.345.208-.834 1.521-3.015 1.974-3.79.042.247.082.48.107.688.263 2.206-.559 5.892.19 8 .21.589.927.667 1.28.166.972-1.372.534-3.05 1.108-4.563.584-1.54 1.478-2.799 1.435-4.518-.043-1.717-.776-3.335-1.073-5.01-.286-1.605-.392-4.989-.382-5.027 2.67-9.987 7.578-31.555 7.467-41.09-.03-2.663.776-8.226.76-8.368 1.417-5.605 6.128-33.434 7.097-41.567.185-1.549-1.116-3.38-2.346-3.233" mask="url(#j)"/>
            </g>
            <path fill="#D06345" d="M126.692 235.162c.01-2.814-.169-5.89-2.567-7.766-2.361-1.847-5.63-1.791-8.487-1.88-14.228-.436-28.596-1.45-42.778.216-1.693.2-2.696 2.278-2.335 3.792.032.135.073.261.118.384.159 4.501.38 9 .67 13.495-.193 1.735-.027 3.475 1.008 4.598 1.893 2.058 5.663 1.47 8.187 1.499 6.422.074 12.847-.125 19.251-.596 3.255-.24 6.505-.547 9.748-.915 2.971-.337 5.976-.95 8.973-.942 2.838.008 5.737.485 6.963-2.807 1.03-2.764 1.237-6.15 1.249-9.078"/>
            <g transform="translate(62.238 238.846)">
                <mask id="l" fill="#fff">
                    <use xlink:href="#k"/>
                </mask>
                <path fill="#00C9C3" d="M24.088 129.225c.092-.5.164-1.04.203-1.57.499-6.812 3.488-35.707 9.328-71.42 1.423 15.152 2.759 60.569 3.947 72.99h19.72c2.19-14.364 7.064-77.196 7.168-83.76.059-3.71 4.404-9.232 4.457-12.942.04-2.815.2-5.685-.29-8.462.559-2.01.817-4.093.47-6.335a11.02 11.02 0 0 0-.9-2.968l1.541-.256c1.357-.226 2.195-1.823 2.008-3.068-.224-1.482-1.326-2.25-2.753-2.425-2.372-.29-4.752-.502-7.135-.646a28.254 28.254 0 0 0-.349-.202c.336-.283.623-.593.827-.941.776-1.324.39-2.88-.57-3.931-.162-.57-.617-1.047-1.308-1.004l-.153.011c-.063-.024-.125-.05-.19-.07a4.909 4.909 0 0 0-.946-.19c.328-.867-.07-1.968-1.218-1.822C42.193 2.221 25.805 3.05 9.932 2.616c-.81-.023-1.42-.169-1.49.568-.015.161.196 4.15.237 4.641.419 4.9-1.041 9.516-2.682 14.057-.257.323-2.92 7.059-4.595 14.756-4.354 20.013 2.713 83.804 4.449 92.587h18.237z" mask="url(#l)"/>
            </g>
            <path fill="#F9EBDB" d="M128.612 215.967c-.106-.435-.217-.869-.326-1.303-.569-2.7-.525-5.517-.746-8.26a157.034 157.034 0 0 0-1.22-10.616c.215-1.41.501-2.812.795-4.218.562-2.697 1.14-5.422 1.27-8.181.132-2.801-.687-4.981-2.313-7.225-5.858-8.087-12.738-11.576-21.92-15.194-.243-.096-15.977-1.222-20.83-.233-5.332 1.087-10.462.254-15.029 2.832-5.343 3.017-8.054 5.685-11.563 9.555a45.92 45.92 0 0 0-3.96 5.06c-3.422 5.037-4.805 12.463-6.6 18.35-.213.697-1.617.457-1.805 1.154-.436 1.614-.881 2.59-1.182 4.18-.197 1.042.347 1.716 1.08 2.061 3.829 1.806 7.75 4.168 11.904 5.297 2.033.552 4.102.857 6.194 1.077.62.064 1.56.195 2.166.282-.26 3.745-1.218 15.94-1.582 18.087-.41 2.42-.53 10.053 1.457 11.949 1.786 1.702 7.215 1.733 9.799 1.77 5.545.08 12.718.15 17.636-.134 5.265-.304 11.794-.15 17.98-1.153 5.21-.844 10.222-.359 15.187-2.348 1.613-.645.473-8.247.232-10.001a6.018 6.018 0 0 0 1.985-2.133c1.647-1.771 1.61-5.174.993-7.951.464-.711.662-1.629.398-2.704"/>
            <path fill="#FF7900" d="M127.68 149.386c-.704-4.583-6.989-11.514-7.667-13.695-.76-2.439-.704-5.042-.412-7.555.601-5.158 2.298-10.231 1.708-15.477-.555-4.929-2.966-9.649-7.68-11.75-4.99-2.224-11.108-1.62-16.14.13-.062.021-.116.05-.174.074-4.235-1.08-6.699-.925-10.25-.732-3.873.21-6.931 3.7-9.399 7.137-2.947 4.106-2.26 11.916-3.153 13.62-.839 1.597-4.555 1.644-6.877 4.032-2.594 2.67-2.945 6.471-2.46 10.236.26 2.022.655 3.756-.136 5.717-.758 1.874-3.215 4.234-3.775 6.2-1.425 5.01-.555 9.097 1.904 12.147 2.373 2.944 8.103 6.773 15.417 4.413 5.063-1.633 4.588-3.344 6.57-7.234 1.096-2.15 2.221-4.919 2.46-7.59-1.367-1.666 3.73-4.271 2.752-6.202-1.75-3.45.024-4.233-1.285-7.871-1.063-2.952-1.62 1.886 1.167.817 1.648-.633 2.898-15.776 3.3-17.173.858-2.978 12.9 7.584 13.402 10.506-.383 2.502 1.418 3.645.701 5.85-1.455 4.473.987 7.755-1.621 11.245-1.218 1.63-2.211 5.804-4.593 7.098-.29 4.314-2.197 4.013.49 7.455 2.54 3.256 7.68 6.156 11.864 6.358 4.128.199 8.138-1.942 10.702-5.086 2.912-3.572 3.876-8.16 3.184-12.67"/>
            <path fill="#FAB08A" d="M104.383 161.305c-.057-.022-1.071-.434-2.454-.527.685-5.65 1.063-9.378 1.641-15.856.197-2.21-17.796-5.665-17.796-5.665s-.683 8.373-.891 11.03c-.332 4.217-.615 7.062-.684 10.321-.282.038-.543.081-.778.13-4.122.839-8.123.533-11.837 1.541.343 1.205.828 2.41 1.326 3.634 1.303 3.204 2.573 6.308 4.765 9.017 3.673 4.538 9.359 8.267 15.14 9.366 6.611 1.257 13.2-.22 18.23-4.793 3.458-3.143 5.546-7.37 6.53-11.857-3.884-2.716-8.12-4.342-13.192-6.34"/>
            <path fill="#FFF" d="M76.254 161.102c-.2-1.316-1.846-2.017-3.017-1.709-1.405.37-1.91 1.71-1.713 3.01 4.167 27.386.475 55.394-7.354 81.797a270.65 270.65 0 0 1-3.558 11.101 286.353 286.353 0 0 1-1.95 5.485c-.173.474 4.184 2.797 4.842.998a285.861 285.861 0 0 0 2.361-6.714 266.733 266.733 0 0 0 3.849-12.37c4.818-16.951 7.906-34.486 8.381-52.12.265-9.867-.357-19.72-1.841-29.478"/>
            <g transform="translate(150.184 260.868)">
                <mask id="n" fill="#fff">
                    <use xlink:href="#m"/>
                </mask>
                <path fill="#005960" d="M1.86 68.6a211.463 211.463 0 0 0-.044 15.634c.092 2.606.237 5.21.438 7.811.22 2.84.195 11.746 1.35 15.158h27.348c.924-3.402.97-12.215 1.327-14.895.694-5.197 1.35-10.398 2.026-15.597a1573.745 1573.745 0 0 1 .71-5.39c.059-.423.116-.846.174-1.27.357-2.595.725-5.19 1.114-7.78.383-2.556.802-5.102 1.248-7.64.284 5.628.548 11.256.827 16.883.262 5.3.538 10.6.86 15.897.152 2.533.316 11.707.493 14.238.131 1.875.174 3.832.86 5.554h21.086c.24-.418.451-.86.628-1.325.883-2.318 1.121-11.581 1.554-14.013 3.64-20.435 5.87-41.132 6.596-61.874.173-4.92.596-10.217-1.17-14.918-2.045-5.449-6.66-8.03-11.792-10.146-2.263-.933-4.52-1.544-6.96-1.815-2.704-.299-6.072-.178-8.172 1.772-.066.061-.123.125-.184.187a4.569 4.569 0 0 0-.5-.418c-1.368-1.626-3.233-2.865-5.66-3.506-4.646-1.226-9.231.325-12.606 3.39-.73-1.917-2.222-3.494-4.41-3.991C15.593-.23 2.456-.167 1.691 3.569c-4.264 20.86.992 43.72.169 65.03" mask="url(#n)"/>
            </g>
            <path fill="#118C8C" d="M216.11 276.774c-.403-2.217-1.333-4.265-2.619-6.077a8.947 8.947 0 0 0 .312-1.876c1.819-30.14-.18-60.455-5.713-90.138a364.432 364.432 0 0 0-5.552-24.87 5.785 5.785 0 0 0-.078-.273l2.878-.252c1.725-.16 2.128-2.291 1.173-3.15-.053-1.704-.28-2.546-1.568-3.57-1.674-1.33-4.723-2.845-6.658-3.755-4.522-2.128-9.645-3.103-14.563-3.848-4.683-.71-9.23-.847-13.88.204-4.76 1.076-6.866 1.841-11.325 4.83-.355.237-5.642 8.648-5.527 8.9.05.697.482 1.377 1.172 1.607-1.843 2.74-2.702 6.267-3.14 9.616-.68 5.198-.956 10.433-.767 15.674.204 5.675.91 11.37 2.034 16.935 1.015 5.028 2.168 10.738 5.163 15.002.649.923 1.396 1.72 2.249 2.338a250.29 250.29 0 0 0-.318 4.342c-.29 4.59-.45 9.186-.48 13.784-.012 2.095.022 4.19-.049 6.284-.034.996.104 2.328-.216 3.282.553-1.646-.053.269-.116.602-.106.566-.221 1.125-.313 1.692-.203 1.253-.302 2.488-.241 3.695a56.071 56.071 0 0 0-5.997-.5 7.553 7.553 0 0 0-4.366-.153l-1.719.442c-3.637.936-5.881 4.638-5.395 8.246.477 3.549 3.634 6.664 7.398 6.516l.048-.002c-1.585.938-2.82 2.42-3.253 4.322-.886 3.877 1.166 8.245 5.26 9.245 3.2.781 6.244.473 9.412-.271.61-.144 1.214-.308 1.825-.441l.608-.129.36-.063c.401.006.858.054 1.003.059.276.009.55.027.824.056.579.056.365.028-.64-.084.436-.213 3.774-.632 3.518-.74.341.154 3.556 2.428 4.364 3.262 3.789 3.903 9.018 9.292 14.35 10.562 5.22 1.243 10.551 1.196 15.87.954 2.808-.128 6.06.21 8.795-.46 5.536-1.358 6.762-6.941 5.878-11.799"/>
            <g transform="translate(205.545 178.374)">
                <mask id="p" fill="#fff">
                    <use xlink:href="#o"/>
                </mask>
                <path fill="#004472" d="M8.003 113.785c.047-.018.093-.037.138-.058.023.242.04.486.063.728l-.201-.67zm24.709 46.13c.055-4.527-.057-9.056-.306-13.577-.506-9.212-1.592-18.387-3-27.503-1.425-9.224-3.392-18.392-4.055-27.717-.657-9.237-.17-18.5.218-27.736.375-8.944.597-17.886-.294-26.788.638.218 1.28.396 1.948.501.42.066 1.26-.044 1.73.09 1.232 1.097 3.656.185 2.9-1.605a4.015 4.015 0 0 0-.256-.504c.005-.027.016-.052.02-.08.74-.088 1.399-.63 1.426-1.666a8.021 8.021 0 0 0-.272-2.328l-.865-7.418c-.157-1.342-1.428-1.902-2.394-1.6-.18-1.069-.36-2.137-.538-3.206-.236-1.4-1.832-1.542-2.766-.838-.12-2.16-.209-4.32-.263-6.483-.045-1.822-2.304-2.24-3.203-.927.033-1.324.068-2.647.104-3.97.055-2.032-2.84-2.29-3.441-.464l-.019.06c.053-1.489.123-2.977.21-4.463.122-2.047-2.842-2.262-3.44-.465-.817 2.452-1.347 4.966-1.687 7.51-.75-.274-1.677-.065-2.142.705-1.005-.357-2.418.168-2.504 1.573a324.762 324.762 0 0 0-.575 14.554c-.012.763-.036 1.533-.058 2.305-.777-.054-1.603.333-1.87 1.22-.268.892-.508 1.788-.735 2.688-.033-.326-.063-.652-.098-.978a1.825 1.825 0 0 0-.239-.716l.04-.666c.05-.875-.52-1.435-1.213-1.626a262.352 262.352 0 0 0-.885-8.913c-.258-2.208-3.765-2.234-3.504 0a260.86 260.86 0 0 1 1.348 15.67 48.67 48.67 0 0 0-.06 2.427c-.418 4.452-.349 8.943-.406 13.43l-.525 9.075c-2.348 15.343.666 56.82 1.582 62.022 2.257 12.806 6.587 25.153 11.579 37.129a433.134 433.134 0 0 0 4.29 9.92c1.226 2.743 2.203 13.048 4.93 14.688.435.262.932.279 1.38.134.036.161.07.323.108.484.277 1.187 2.107 1.81 2.928.772.325-.41.558-.865.732-1.345.07.038.14.073.214.1-.025.222-.047.443-.074.664-.078.664.178 1.127.582 1.393.442 1.766 3.35 1.593 3.446-.475.207-4.473-.045-23.708-.028-25.056z" mask="url(#p)"/>
            </g>
            <path fill="#F79C82" d="M101.935 160.833c.532-4.392.88-7.628 1.279-11.893a53.01 53.01 0 0 1-7.52-1.695c-3.298-1.001-7.538-2.184-10.061-4.656-.035-.046-.072-.089-.11-.133-.216 2.665-.51 6.297-.635 7.886-.331 4.218-.614 7.062-.683 10.322-.283.038-.544.08-.778.129l-.09.016c1.145.461 2.5.63 3.581.796 2.78.424 5.593.586 8.402.392 2.29-.158 4.7-.46 6.964-1.132a8.694 8.694 0 0 0-.35-.032M188.876 122.208c-.011-2.219-2.341-2.875-3.71-1.965-.486-.281-1.089-.407-1.754-.312-1.167.168-2.6-.417-3.716-.764a22.737 22.737 0 0 1-3.484-1.391 25.839 25.839 0 0 1-6.225-4.39c-.741-.707-1.604-.792-2.344-.516a6.94 6.94 0 0 0-.977-1.29c-2.145-2.218-3.788.618-1.785 2.97 1.588 1.864 1.931 11.773 1.973 14.437.076 4.858.044 7.906.412 11.819.175 1.864 7.485 3.192 9.986 3.192 6.307 0 10.701-2.136 10.806-2.952.96-7.478.855-11.305.818-18.838"/>
            <path fill="#FAB08A" d="M204.2 96.603a16.83 16.83 0 0 1-1.808.853c-.6.305-1.214.586-1.833.843-3.902 1.62-8.081 1.79-11.949-.01-3.086-1.435-5.502-3.874-7.499-6.583-1.114 1.064-2.192 2.132-3.094 3.413-1.113 1.58-1.838 3.272-2.562 5.046-1.346 3.298-2.38 4.274-6.426 3.246-1.789-.455-.146-1.153-4.27-.291-.569.118-2.55 2.491-2.65 2.97-.633 3.005 1.52 6.252 2.656 8.985 1.298 3.12 3.216 5.385 5.095 8.18 1.776 2.643 3.417 5.577 5.745 7.786 1.269 1.203 3.025 2.781 4.839 3.651 2.607 1.25 5.739 1.068 8.41-.578 3.41-2.104 5.878-5.769 7.644-9.286 4.977-9.915 7.162-21.315 7.618-26.975.028-.162.05-.325.06-.49a9.213 9.213 0 0 0-.013-.16c.012-.17.027-.344.037-.514.002-.03 0-.057 0-.086M104.717 119.455c-3.165-1.801-5.839-4.018-7.418-7.194-.441.016-.874.045-1.294.092-.547.062-4.1.564-5.667 3.962-1.664 3.612-.399 9.912-3.272 10.204-1.14.115-4.626-2.29-6.51.924-1.432 2.444-.165 4.3.897 7.253 1.31 3.638 4.728 11.975 11.455 16.953 4.606 3.409 8.495 3.47 12.266.618 8.552-6.464 10.037-20.775 10.421-23.277a29.303 29.303 0 0 0-.577-2.622c-2.374-3.264-7.022-5.045-10.301-6.913"/>
            <g transform="translate(118.65 141.67)">
                <mask id="r" fill="#fff">
                    <use xlink:href="#q"/>
                </mask>
                <path fill="#004472" d="M2.931 72.386c-.382 2.231-.728 4.47-1.032 6.716a2.443 2.443 0 0 0 .67 2.076c-.09 1.968-.071 3.93.182 5.863.184 1.397 1.197 2.341 2.456 2.238.14.495.323.987.572 1.477.508.998 1.642 1.276 2.607.992.468 1.503 2.605 1.884 3.75.87l-.003.033c-.16 1.983 2.234 2.73 3.611 1.834.464.904 1.444 1.266 2.372 1.078l-.014.263c-.107 2.448 3.334 2.971 4.32.999l-.214 1.834c-.247 2.113 2.584 2.828 3.894 1.614.313.474.837.792 1.41.932.056.152.112.305.166.458.92 2.597 1.854 5.189 2.838 7.762.617 1.616.998 3.333 1.356 5.06-.362.328-.653.76-.826 1.3a74.9 74.9 0 0 0-.737 2.479c-1.252-.715-2.986-.476-4.044 1.001-.616.86-1.1 1.78-1.493 2.737-1.542-.998-4.141-.582-4.702 1.58-.31 1.2-.601 2.402-.877 3.607a2.833 2.833 0 0 0-1.576-.738c-.747-1.263-2.47-1.847-3.794-1.458-.648.05-1.266.287-1.73.73.37-6.184.536-12.379.501-18.574-.02-3.822-5.977-3.83-5.956 0 .044 8.011-.24 16.022-.88 24.008-.63 7.877-1.775 15.683-2.665 23.53a217.236 217.236 0 0 0 .624 53.925c.216 1.6 1.219 12 1.97 17.788H33.64c2.767-12.54-.015-31.009-.414-50.618-.29-14.25-4.67-24.799 7.166-42.879 3.307-5.05 5.492-23.722 6.71-36.045.388-3.107.7-6.22.89-9.338l.004-.038a.385.385 0 0 0 .002-.072c.287-4.751.295-9.516-.136-14.296-.381-4.22-1.071-8.422-2.206-12.507-1.126-4.056-2.686-7.972-4.094-11.935-1.413-3.973-2.709-8.038-3.218-12.239-.528-4.352-.408-8.821.226-13.156.67-4.571 2.07-8.92 3.146-13.395 1.066-4.441 2.546-10.38.836-9.48-.263.139-9.635 5.207-21.548 15.285-4.76 4.028-8.85 9.786-11.567 15.427-5.812 12.072-6.2 25.61-9.199 38.46-.43 1.845 1.266 3.003 2.692 2.812" mask="url(#r)"/>
            </g>
            <path fill="#004472" d="M207.167 83.607c-1.76-.66-3.884-.651-5.693-1.164-6.566-1.859-8.926-9.028-14.93-11.75-4.908-2.224-11.957-.67-14.912 3.781-3.342.329-6.595 1.231-9.304 3.339-3.253 2.531-4.561 6.225-5.038 10.204a24.342 24.342 0 0 0 .011 5.834c.032 4.209.567 8.41 1.648 12.483 1.077 4.055 3.084 7.611 6.53 10.24.192.145.353.246.49.308-.391-.76-6.4-10.704-1.204-12.889 2.1-.882 2.814.964 4.526 1.399 4.047 1.027 4.818-1.929 6.163-5.227.725-1.774 1.45-3.466 2.562-5.045.903-1.282 1.981-2.35 3.095-3.413 1.997 2.708 4.412 5.147 7.499 6.582 3.868 1.8 8.047 1.63 11.95.01a26.377 26.377 0 0 0 1.832-.843c.301-.12.597-.251.89-.388l.08-.039c.284-.134.564-.277.839-.426l-.001.086c-.01.17-.025.343-.037.514.004.05.009.102.012.16-.01.164-.03.328-.059.49-.224 2.783-.868 6.954-2.054 11.653 3.426 1.457 7.286 1.464 10.463-.684 3.247-2.196 4.75-5.766 4.96-9.583.375-6.807-3.156-14.525-10.318-15.632M154.338 251.899c-.904-3.078-2.103-6.06-3.497-8.948-.889-1.843-3.567-1.308-4.402.156-1.33-2.285-2.663-4.568-3.985-6.857-.746-1.263-2.058-1.407-3.088-.924a34.164 34.164 0 0 0-2.4-2.712c-.912-.92-2.031-.9-2.876-.38-.268-.383-.536-.766-.808-1.147-.639-.894-1.563-1.189-2.417-1.075a2.472 2.472 0 0 0-1.281.039l.483-3.12c.204-1.315-.336-2.615-1.713-3.01a2.207 2.207 0 0 0-.695-.077c-.224-2.232-.04-5.363-1.516-7.021.072-.374.149-.747.234-1.12.44-1.92-1.249-3.15-2.746-3.048.725-3.933 1.53-7.855 2.258-11.776.57-3.078-4.156-4.398-4.73-1.3-2.26 12.184-5.127 24.338-4.236 36.812.838 11.748 4.218 23.308 10.007 33.584 3.103 5.508 7.03 10.568 12.372 14.066 2.034 1.331 1.829.423 2.265-2.752 1.108-8.058 12.088-20.401 18-25.61 1.2-1.057-5.011-3.038-5.23-3.78"/>
            <path fill="#1D2342" d="M159.547 255.697c-5.917 5.22-16.874 17.544-17.98 25.592-.212 1.544-.274 2.547-.514 3.022 2.933-.223 5.833-4.019 7.332-6.04a23.946 23.946 0 0 0 2.931-5.234c.36-.884.916-2.067 1.056-3.183a.366.366 0 0 0 .11-.064c.605-.516 1.16-1.07 1.68-1.648a.35.35 0 0 0 .156-.138c.023-.038.044-.077.067-.114 2.828-3.274 4.42-7.68 5.249-11.944.023-.123-.018-.202-.087-.25"/>
            <path fill="#FAB08A" d="M169.598 276.183a9.354 9.354 0 0 0-4.241-3.786c-2.02-.917-4.304-.757-6.296-1.666a479 479 0 0 0-6.772-7.625c-2.467 2.833-4.925 6.002-6.875 9.12l7.058 7c.505 3.173.51 6.553 3.899 4.51 2.311-1.394 5.599-3.547 8.103-4.588 1.277-.532 5.461-2.394 5.124-2.965"/>
            <path fill="#004472" d="M257.932 209.243c-3.168-9.03-8.107-17.331-13.647-25.097-5.54-7.763-11.66-15.124-18.35-21.927a166.876 166.876 0 0 0-12.155-11.202 55.42 55.42 0 0 0-12.422-7.86c-3.253-1.5-3.315-1.358-3.425.643-.469 8.546-.94 17.142-.067 25.68.858 8.386 3.013 16.575 4.23 24.91 2.468 16.908 2.57 34.06 2.63 51.112.034 9.771 1.21 20.731 1.587 30.497.086 2.242 2.426 1.066 2.34-1.187-.665-17.258-.173-34.535-.734-51.795-.277-8.484-.812-16.967-1.879-25.39-.124-.98-.26-1.955-.407-2.93.997.202 2.089-.36 2.073-1.64v-.025c.09.333.172.667.265 1 .367 1.301 1.827 1.552 2.737.887.137-.015.273-.046.404-.092.078.271.154.543.235.814.536 1.8 3.71 1.56 3.441-.465-.02-.156-.05-.308-.074-.463a.247.247 0 0 0-.015-.092 31.218 31.218 0 0 0-.373-2.002c.455.758.963 1.492 1.541 2.194.904 1.1 2.27.46 2.769-.577.177-.058.346-.14.499-.242a70.332 70.332 0 0 0 2.808 5.207c.522.874 1.526 1.018 2.397.627 1.682-.754 1.787-2.702 1.432-4.277-.512-2.278-1.347-4.518-2.104-6.733.092-.272.12-.58.059-.918a82.28 82.28 0 0 0-.567-2.805c.37.59.735 1.185 1.102 1.777a350.667 350.667 0 0 0 10.126 18.947c.278.485.66.74 1.066.827a1.88 1.88 0 0 0 .054 1.42l1.392 3.235c-1.103.204-3.326-.888-2.525.296 3.372 4.982 6.881 12.903 7.61 18.882.627 5.143 1.325 13.233-3.487 17.786-1.394 1.318.562 2.424 2.591 2.014.256-.003.513-.059.752-.18 4.047-.994 8.198-2.177 11.618-4.627 3.46-2.479 5.728-6.04 6.847-10.114 2.32-8.45.464-18.025-2.374-26.115"/>
            <path fill="#1D2342" d="M238.498 248.264c4.812-4.552 4.114-12.642 3.487-17.785-.675-5.54-3.737-12.74-6.865-17.732-6.212 5.846-4.703 15.712-3.057 23.205.856 3.9 1.911 8.094 4.163 11.452.63.938 1.544 2.344 2.734 2.744-.91-.347-1.317-1.075-.462-1.884"/>
            <path fill="#004472" d="M229.288 253.22l-47.004-3.844 5.657-68.836 47.004 3.845z"/>
            <path fill="#FF7900" d="M225.002 254.756L178 250.91l5.657-68.836 47.004 3.845z"/>
            <path fill="#9CD8DC" d="M230.862 256.9l-47.003-3.844 5.657-68.836 47.004 3.845z"/>
            <path fill="#FAB08A" d="M176.474 212.018c-.928.966.087 2.1 1.284 2.621.298.13.64.23 1.01.309-2.12.035-1.32 1.981.091 2.294.915.203 1.845.457 2.864.573-.642.35-.795.939-.47 1.506.458.8 3.123.687 5.19.561 5.064-.306 9.98 4.284 15.049 3.984 1.365.898 38.958 8.699 40.214 9.603.872.628.51-.117.597-1.336-.218-3.186-3.145-10.432-4.09-10.929-4.407-2.317-37.994-8.752-40.129-10.088-2.498-1.563-4.808-3.572-7.748-4.01-3.2-.475-6.969.05-10.124.735-.62.135-1.126.68-1.17 1.191"/>
            <path fill="#FF7900" d="M86.852 146.546c-1.77-10.656-5.55-9.29-6.883-17.312-.257-1.547-4.532-.203-4.069 1.306 1.404 4.572-6.133 7.878-3.928 12.02 1.211 2.276 2.74 9.296 4.112 14.666a2.87 2.87 0 0 0-.448.502 2.975 2.975 0 0 0-.31.005c-.58-.009-1.161-.043-1.74-.01-1.293.071-2.586.307-3.26 1.551a2.416 2.416 0 0 0-.17 2.006c.025.257.09.51.2.755.008.044.013.088.023.132.021.483.187.943.53 1.302.134.182.366.765.546.9 1.93.42 4.015.089 4.618-.007.651-.104 2.016-.38 2.513-.479 10.46-2.066 9.169-11.898 8.266-17.337M118.11 127.794c-1.464-3.878-3.42-8.148-6.703-10.829-1.655-1.35-3.445-2.476-5.006-3.948-1.488-1.402-2.901-2.89-4.6-4.046-1.025-.697-2.513-1.638-3.558-.457a1.76 1.76 0 0 0-.398.74c-.708-.161-1.568.372-1.275 1.253 1.381 4.147 4.429 6.832 8.147 8.948 3.889 2.215 9.702 4.309 11.367 8.897.47 1.247 2.49.72 2.027-.558M331.176 169.827c-3.461-12.39-8.951-25.706-19.016-33.326-4.117-3.116-15.658-8.95-17.694-8.753-.244.024-.361 2.273-.374 2.592-.029.685-.778 18.39-1.085 26.077-.349 8.751-.49 17.499.59 26.208 1.05 8.473 2.895 16.822 4.345 25.229a452.879 452.879 0 0 1 3.743 26.254 462.065 462.065 0 0 1 2.357 29.401.915.915 0 0 0 .055.267l.224 14.568c.007.487.395.854.876.873 2.38.101 4.088-2.322 5.239-4.12 1.441-2.25 2.383-4.77 3.57-7.154 1.284-2.581 2.945-4.475 4.995-6.468 1.211-1.176 2.27-3.97 2.357-5.47.001-.028-.036-.038-.053-.058.833-1.76-6.818-52.674-7.458-59.08-.15-1.742-.33-3.48-.557-5.213-.06-.518-.124-1.036-.185-1.554 4.98-1.63 10.368-3.9 15.033-6.292 2.42-1.242 4.529-2.242 4.458-5.252-.07-2.933-.633-5.912-1.42-8.73"/>
            <path fill="#FFF" d="M304.107 130.952c4.28 1.401 12.367 7.265 12.43 7.313.725.553 1.593.76 1.69 2.64.233 4.476-.657 13.983-1.077 18.447-.705 7.482-.618 23.381-3.851 30.18-.016.218-2.13 2.048-2.28 1.16-.795-4.718-4.198-27.548-4.609-32.018a516.904 516.904 0 0 0-3.197-26.895c-.074-.509.35-1.004.894-.827"/>
            <g>
                <path fill="#3D2459" d="M180.023 111.962c-.24 1.066-.896 1.826-1.466 1.699-.57-.128-.836-1.095-.597-2.16.24-1.066.896-1.826 1.465-1.699.57.128.838 1.095.598 2.16M194.185 113.544c-.24 1.065-.896 1.826-1.465 1.698-.57-.127-.837-1.094-.597-2.16.24-1.065.896-1.826 1.465-1.698.57.128.837 1.095.597 2.16"/>
                <path fill="#FFF" d="M189.508 124.766c-2.592.625-3.455 1.088-5.276.837-1.017-.141-3.365-.916-4.474-1.47-.49-.243-1.219-.41-1.454-.025-.37.608 2.372 3.92 5.589 4.369 1.908.266 5.253-.571 6.235-3.051.036-.091.12-.404.012-.554-.117-.16-.434-.153-.632-.106"/>
                <path fill="#3D2459" d="M182.917 104.895c-.73-.8-2.8-.755-3.722-.453-.058.02-.13.048-.208.083-.666.218-1.907.938-1.007 1.57.363.255.973.137 1.385.13.873-.014 1.801.06 2.665-.06.65-.091 1.51-.589.887-1.27M196.938 107.597c-.15-.354-.53-.652-.799-.85a3.929 3.929 0 0 0-.305-.199.29.29 0 0 0-.208-.217 8.867 8.867 0 0 0-.585-.15c-.601-.209-1.265-.3-1.865-.19-.563.05-.975.26-.897.796.082.555.745.69 1.182.837.452.154.905.301 1.36.447.44.142.985.414 1.453.438a.92.92 0 0 0 .22-.015c.137.026.272.021.394-.05.378-.223.263-.564.05-.847"/>
                <path fill="#F09F7C" d="M187.96 114.447c-.012-.406-.646-.408-.633 0 .042 1.31.176 2.66.122 3.97-.066 1.588-1.308 4.04-3.103 2.294-.292-.285-.741.163-.449.447 1.05 1.02 2.422 1.11 3.348-.047 1.421-1.775.782-4.581.716-6.664"/>
                <path fill="#3D2459" d="M262.437 93.904c-.113.832.157 1.554.602 1.614.444.06.895-.566 1.008-1.398.112-.832-.158-1.554-.602-1.614-.445-.06-.896.566-1.008 1.398M265.563 89.104c-.57-.818-2.462-1.027-3.34-.862-.056.01-.125.027-.2.05-.634.118-1.853.625-1.11 1.31.301.277.871.243 1.249.287.797.092 1.635.271 2.437.266.605-.005 1.449-.355.964-1.051M276.736 95.265c-.09.834-.526 1.471-.971 1.423-.447-.048-.734-.764-.644-1.598.09-.834.526-1.472.972-1.423.446.048.734.763.643 1.598M274.853 89.857c.75-.658 2.637-.408 3.45-.039.052.024.114.057.181.097.588.266 1.65 1.05.763 1.537-.358.197-.904.028-1.28-.02-.797-.101-1.653-.127-2.43-.324-.586-.15-1.322-.69-.684-1.251"/>
                <path fill="#F09F7C" d="M269.56 101.58c-.525-.069-1.458-.135-1.8-.59-.526-.7-.378-1.68-.19-2.45.288-1.18.691-2.34 1.04-3.504.109-.359-.458-.5-.565-.142-.48 1.595-1.51 3.676-1.24 5.384.213 1.354 1.416 1.71 2.613 1.867.368.048.514-.516.142-.565"/>
                <path fill="#FFF" d="M265.267 104.757c-.094.115-.04.369-.016.443.672 2.025 2.392 3.77 4.938 3.586 2.592-.186 4.836-3.604 4.567-4.107-.17-.32-.76-.218-1.162-.045-.912.393-2.822.906-3.641.972-1.466.12-2.134-.29-4.177-.905-.156-.047-.409-.067-.509.056"/>
                <path fill="#E65F45" d="M104.045 142.544c-2.25.27-3.026.575-4.538.18-.846-.22-2.75-1.108-3.632-1.686-.389-.255-.988-.47-1.224-.167-.375.477 1.343 4.468 4.022 5.139 2.63.66 4.753-.85 5.831-2.847.04-.073.142-.33.065-.466-.082-.148-.351-.174-.524-.153"/>
                <path fill="#3D2459" d="M96.445 131.266c-.236.86-.8 1.456-1.26 1.331-.46-.126-.642-.925-.406-1.785.236-.86.8-1.456 1.26-1.33.46.125.642.924.406 1.784M109.74 133.4c-.235.86-.8 1.455-1.26 1.33-.46-.126-.641-.925-.405-1.786.236-.86.8-1.456 1.26-1.33.46.125.642.925.406 1.785"/>
                <path fill="#F07A58" d="M98.407 126.72c-.559-.9-2.556-1.228-3.497-1.103-.06.008-.133.023-.215.043-.68.09-2.002.558-1.251 1.328.303.31.91.306 1.308.374.842.142 1.72.38 2.572.42.642.029 1.558-.295 1.083-1.062M107.895 128.068c.787-.709 2.554-.437 3.416-.04.44.202 1.778 1.113.842 1.643-.378.214-.96.041-1.36-.005-.848-.097-1.326-.078-2.155-.278-.624-.15-1.413-.716-.743-1.32"/>
                <path fill="#F09F7C" d="M104.912 134.503c-.04-.396-.659-.353-.619.044.102 1.003.441 2.33.057 3.294-.51 1.28-1.939 1.76-3.175 1.236-.367-.156-.642.4-.274.555 1.243.528 2.666.312 3.551-.757 1.026-1.24.608-2.914.46-4.372"/>
                <path fill="#FAB08A" d="M177.514 216.475l-1.374-3.133a5.193 5.193 0 0 1 .306-4.763l2.431-4.041a5.184 5.184 0 0 1 4.237-2.506l2.326-.093a8.994 8.994 0 0 1 6.349 2.276l3.945 3.521 7.358 6.642-25.578 2.097z"/>
                <path fill="#00A7A7" d="M231.202 203.156l-33.524-2.742.43-5.226 33.524 2.742zM226.232 245.117l-33.524-2.742-.143 1.736 33.525 2.742z"/>
            </g>
        </g>
    </g>
</svg>
