<svg xmlns="http://www.w3.org/2000/svg" xmlns:xlink="http://www.w3.org/1999/xlink" width="448" height="282" viewBox="0 0 448 282">
    <defs>
        <path id="a" d="M96.418 47.82c0 26.39-21.379 46.503-47.75 46.503C22.298 94.323.92 74.21.92 47.821.92 21.43 22.297.038 48.668.038s47.75 21.394 47.75 47.783"/>
        <path id="c" d="M96.418 47.82c0 26.39-21.379 46.503-47.75 46.503C22.298 94.323.92 74.21.92 47.821.92 21.43 22.297.038 48.668.038s47.75 21.394 47.75 47.783"/>
        <path id="e" d="M.01.129h21.52v30.398H.01z"/>
        <path id="g" d="M.013.27h30.231v22.85H.014z"/>
    </defs>
    <g fill="none" fill-rule="evenodd">
        <path fill="#00C9C3" d="M344 0l72 75H272z"/>
        <path fill="#00C9C3" d="M305 74h81v207h-81z"/>
        <path fill="#168582" d="M321.361 251.43V251h.675a.744.744 0 0 0-.675.43"/>
        <path fill="#FF7900" d="M317.604 281h-128.48a.763.763 0 0 1-.763-.764v-28.472c0-.423.341-.764.764-.764h128.48c.422 0 .764.341.764.764v28.472a.764.764 0 0 1-.765.764"/>
        <path fill="#E47007" d="M307.221 251.218h-131.08a.78.78 0 0 1-.78-.78v-29.05c0-.43.35-.779.78-.779h131.08c.43 0 .779.35.779.78v29.05c0 .43-.35.779-.779.779"/>
        <path fill="#EFA82C" d="M175.361 249.218h63.502V220h-63.502z"/>
        <path fill="#B4622E" d="M302.66 249.744H270.36h31.555c.41 0 .744-.334.744-.744v.744"/>
        <path fill="#F4E92A" d="M303.389 251.102l-.028-.102h.388c0 .035-.124.07-.36.102"/>
        <path fill="#71C6CD" d="M302.692 220.737v-.132h-.303a.728.728 0 0 0-.11-.17c.664.053 1.02.111 1.02.17 0 .044-.209.089-.607.132m-6.886-.562h-15.634c.475-.053.952-.111 1.423-.175a750.64 750.64 0 0 1 14.211.175m-31.072 0h-6.373c1.636-.038 3.493-.073 5.524-.1.283.035.564.069.849.1"/>
        <path fill="#F4E92A" d="M280.648 220.184H265.21a49.647 49.647 0 0 1-.849-.101 1105.8 1105.8 0 0 1 17.71-.074c-.47.063-.948.122-1.423.175"/>
        <path fill="#71C6CD" d="M302.414 221.156a.746.746 0 0 0-.053-.156h.304v.132l-.251.024"/>
        <path fill="#F6BE2A" d="M320.914 168.028c0 26.634-21.577 46.934-48.193 46.934-26.616 0-48.194-20.3-48.194-46.934 0-26.635 21.578-48.228 48.194-48.228 26.616 0 48.193 21.593 48.193 48.228"/>
        <path fill="#FF7900" d="M271.893 221.445c-35.975 0-64.154-27.519-64.154-62.646 0-35.399 28.78-64.199 64.154-64.199 35.376 0 64.155 28.8 64.155 64.199 0 35.127-28.18 62.646-64.155 62.646"/>
        <path fill="#CE5D00" d="M272.445 104.2c-29.729 0-53.914 24.203-53.914 53.95 0 29.347 23.682 52.334 53.914 52.334 30.232 0 53.915-22.987 53.915-52.333 0-29.748-24.187-53.951-53.915-53.951"/>
        <path fill="#E47007" d="M272.445 106.6c-29.729 0-53.914 24.203-53.914 53.95 0 29.347 23.682 52.333 53.914 52.333 30.232 0 53.915-22.986 53.915-52.332 0-29.748-24.187-53.951-53.915-53.951"/>
        <g transform="translate(223.328 111.2)">
            <mask id="b" fill="#fff">
                <use xlink:href="#a"/>
            </mask>
            <path fill="#FFA757" d="M1.148 83.64l-8.018-8.022 95.043-95.109 8.017 8.023L1.148 83.641M17.292 115.66L-1.53 96.825 101.077-5.854l18.822 18.835-102.607 102.68" mask="url(#b)"/>
        </g>
        <path fill="#169D97" d="M328.855 219.818V190.6v29.218"/>
        <path fill="#B4622E" d="M336.937 219.908h-8.082V195.4v24.313h8.082v.195"/>
        <path fill="#169D97" d="M292.836 218.688l.141-.188c24.69-8.084 42.214-30.192 43.135-57.108l.039-.052v5.61c-2.993 24.576-20.02 44.36-43.284 51.738h-.031"/>
        <path fill="#CA682D" d="M336.15 166.95v-5.61l.452-.596-.016.557-.213 3.537a64.14 64.14 0 0 1-.222 2.111"/>
        <path fill="#FFFFFE" d="M261.987 86.626l1.824-6.783 1.826 6.783c1.03 3.83 4.02 6.82 7.846 7.852l6.778 1.826-6.778 1.827a11.125 11.125 0 0 0-7.846 7.852l-1.826 6.783-1.824-6.783a11.127 11.127 0 0 0-7.847-7.852l-6.779-1.827 6.779-1.826a11.127 11.127 0 0 0 7.847-7.852"/>
        <g>
            <path fill="#F6BE2A" d="M430.553 227.028c0 26.634-21.577 46.934-48.194 46.934-26.615 0-48.193-20.3-48.193-46.934 0-26.635 21.578-48.228 48.193-48.228 26.617 0 48.194 21.593 48.194 48.228"/>
            <path fill="#FF7900" d="M381.532 281.445c-35.975 0-64.154-27.519-64.154-62.646 0-35.399 28.78-64.199 64.154-64.199 35.376 0 64.154 28.8 64.154 64.199 0 35.127-28.18 62.646-64.154 62.646"/>
            <path fill="#CE5D00" d="M382.084 163.2c-29.729 0-53.914 24.203-53.914 53.95 0 29.347 23.681 52.334 53.914 52.334 30.232 0 53.914-22.987 53.914-52.333 0-29.748-24.186-53.951-53.914-53.951"/>
            <path fill="#E47007" d="M382.084 165.6c-29.729 0-53.914 24.203-53.914 53.95 0 29.347 23.681 52.333 53.914 52.333 30.232 0 53.914-22.986 53.914-52.332 0-29.748-24.186-53.951-53.914-53.951"/>
            <g transform="translate(332.967 170.2)">
                <mask id="d" fill="#fff">
                    <use xlink:href="#c"/>
                </mask>
                <path fill="#FFA757" d="M1.148 83.64l-8.018-8.022 95.043-95.109 8.017 8.023L1.148 83.641M17.292 115.66L-1.53 96.825 101.077-5.854l18.822 18.835-102.607 102.68" mask="url(#d)"/>
            </g>
            <path fill="#169D97" d="M438.494 278.818V249.6v29.218M402.474 277.688l.142-.188c24.69-8.084 42.214-30.192 43.135-57.108l.039-.052v5.61c-2.994 24.576-20.02 44.36-43.285 51.738h-.03"/>
            <path fill="#FFFFFE" d="M422.497 147.43l2.536-9.43 2.537 9.43a15.465 15.465 0 0 0 10.908 10.915l9.422 2.538-9.422 2.539a15.465 15.465 0 0 0-10.908 10.915l-2.537 9.429-2.536-9.429a15.467 15.467 0 0 0-10.908-10.915l-9.423-2.54 9.423-2.537a15.467 15.467 0 0 0 10.908-10.915"/>
        </g>
        <path fill="#FFFFFE" d="M354.536 130.262l1.145-4.255 1.144 4.255a6.98 6.98 0 0 0 4.923 4.926l4.252 1.145-4.252 1.146a6.981 6.981 0 0 0-4.923 4.926l-1.144 4.255-1.145-4.255a6.98 6.98 0 0 0-4.923-4.926l-4.252-1.146 4.252-1.145a6.978 6.978 0 0 0 4.923-4.926"/>
        <g>
            <path fill="#009792" d="M106.093 257.763h13.639v-72.237h-13.64z"/>
            <path fill="#005960" d="M149.32 152.165l40.618 128.748-61.014.066-.11-100.622z"/>
            <path fill="#CDEAE6" d="M14.115 192.094L0 281.484l128.844-.14 14.115-89.39-64.43-7.46z"/>
            <path fill="#FF7900" d="M149.02 152.165l-6.227 39.766-128.649.141 6.224-39.766z"/>
            <path fill="#CE5D00" d="M121.129 175.03l-79.119.086a2.826 2.826 0 1 1-.006-5.655l79.118-.086a2.826 2.826 0 1 1 .007 5.655"/>
            <path fill="#FFF" d="M45.725 217.338l-11.682.013a2.827 2.827 0 0 1-.007-5.655l11.683-.013a2.827 2.827 0 1 1 .006 5.655M79.443 217.302l-11.683.012a2.827 2.827 0 1 1-.006-5.655l11.683-.012a2.827 2.827 0 1 1 .006 5.655M113.161 217.265l-11.683.012a2.826 2.826 0 1 1-.006-5.654l11.683-.013a2.827 2.827 0 1 1 .006 5.655M42.53 237.628l-11.684.012a2.827 2.827 0 1 1-.006-5.655l11.684-.012a2.827 2.827 0 1 1 .006 5.655M76.248 237.59l-11.684.013a2.826 2.826 0 1 1-.007-5.655l11.684-.012a2.828 2.828 0 0 1 .007 5.655M109.965 237.554l-11.683.012a2.827 2.827 0 1 1-.006-5.654l11.683-.013a2.826 2.826 0 1 1 .006 5.655M39.334 257.916l-11.683.012a2.826 2.826 0 1 1-.006-5.654l11.682-.012a2.827 2.827 0 1 1 .007 5.654"/>
            <path fill="#00C9C3" d="M73.051 257.88l-11.682.012a2.827 2.827 0 0 1-.007-5.655l11.683-.012a2.827 2.827 0 1 1 .006 5.654M106.77 257.843l-11.684.012a2.827 2.827 0 1 1-.007-5.654l11.684-.013a2.827 2.827 0 1 1 .007 5.655M233.223 99.664c6.988-6.987 6.038-19.266 6.038-19.266s-12.279-.95-19.266 6.038c-6.988 6.988-6.038 19.266-6.038 19.266s12.28.95 19.266-6.038"/>
            <path fill="#00756F" d="M213.775 148.56a2.273 2.273 0 0 1-2.274-2.274V56.16a2.273 2.273 0 0 1 4.547 0v90.125a2.273 2.273 0 0 1-2.273 2.273"/>
            <g transform="translate(203.046 30.999)">
                <mask id="f" fill="#fff">
                    <use xlink:href="#e"/>
                </mask>
                <path fill="#00C9C3" d="M21.53 15.328c0-8.394-10.76-15.2-10.76-15.2S.01 6.935.01 15.329c0 8.394 10.76 15.2 10.76 15.2s10.76-6.806 10.76-15.2" mask="url(#f)"/>
            </g>
            <path fill="#00756F" d="M208.614 73.526c-5.823-5.823-16.055-5.031-16.055-5.031s-.792 10.232 5.031 16.055c5.822 5.823 16.055 5.031 16.055 5.031s.791-10.232-5.031-16.055"/>
            <path fill="#118C8C" d="M227.056 151.03h-26.563c-19.59 12.673-51.23 53.671-51.23 78.74 0 21.133 6.38 34.439 20.24 45.931 4.11 3.408 9.272 5.299 14.61 5.299h59.322c5.339 0 10.5-1.89 14.61-5.299 13.86-11.492 20.24-24.798 20.24-45.93 0-25.07-31.639-66.068-51.229-78.742"/>
            <path fill="#118C8C" d="M240.202 127.596c-1.41-.678-3.785-.842-5.275-.365l-6.436 2.06c-1.49.477-3.749.12-5.02-.796l-7.24-5.212c-1.27-.915-3.348-.915-4.619 0l-7.237 5.212c-1.27.915-3.529 1.273-5.02.796l-6.443-2.06c-1.49-.477-3.865-.314-5.276.364l-4.758 2.283c-1.41.677-1.64 2.118-.51 3.2l16.683 15.982c1.13 1.084 3.336 1.97 4.902 1.97h19.922c1.565 0 3.77-.886 4.9-1.97l16.685-15.983c1.13-1.083.9-2.524-.51-3.2l-4.748-2.281z"/>
            <path fill="#00756F" d="M216.813 217.388c-5.839-2.385-6.824-3.574-6.824-5.337 0-.776.34-3.31 4.722-3.31 3.828 0 6.238 1.36 7.268 1.941l1.436.81c.527.298 1.135.079 1.352-.486l2.699-7.035a.983.983 0 0 0-.411-1.16l-1.05-.61c-2.248-1.3-4.723-2.11-7.517-2.453v-5.637a.951.951 0 0 0-.948-.948h-6.996a.952.952 0 0 0-.948.948v6.189c-6.204 1.717-10.105 6.47-10.105 12.545 0 7.736 6.348 11.237 12.532 13.631 5.336 2.137 6.072 3.983 6.072 5.66 0 2.454-2.247 4.103-5.592 4.103-2.886 0-6-.916-8.333-2.45l-1.505-.99c-.552-.364-1.188-.152-1.413.469l-2.593 7.142c-.136.375.02.87.346 1.1l.889.626c2.271 1.6 5.724 2.77 9.233 3.18v5.884c0 .521.427.949.95.949h7.062a.952.952 0 0 0 .948-.95v-6.391c6.402-1.792 10.574-6.868 10.574-13.134 0-8.434-6.338-12.068-11.848-14.286"/>
            <path fill="#FF7900" d="M230.377 155.773h-33.204a4.744 4.744 0 0 1 0-9.487h33.204a4.744 4.744 0 0 1 0 9.487"/>
            <path fill="#F18664" d="M382.438 205.06a44.66 44.66 0 0 0-.88-4.36l.03-.019c.362 1.436.658 2.89.883 4.364a.984.984 0 0 0-.033.016"/>
            <path fill="#F3D3C6" d="M325.595 267.538a82.07 82.07 0 0 1-4.201-.109 82.048 82.048 0 0 0 17.547-.99.669.669 0 0 1 .132-.011c.032-.004.064-.004.1-.004l.023.001h-.022c-.067 0-.135.006-.203.017a81.786 81.786 0 0 1-13.376 1.096"/>
            <path fill="#F29878" d="M307.89 174.568c.001-.005.004-.01.007-.014l-.008.014m-.007.011l.006-.009-.006.01m-9.733 4.812h.005-.005"/>
        </g>
    </g>
</svg>
