<svg xmlns="http://www.w3.org/2000/svg" xmlns:xlink="http://www.w3.org/1999/xlink" width="415" height="245" viewBox="0 0 415 245">
    <defs>
        <path id="a" d="M.007.087h14.577v20.591H.007z"/>
        <path id="c" d="M.013.27h30.231v22.85H.014z"/>
    </defs>
    <g fill="none" fill-rule="evenodd">
        <path fill="#CDEAE6" d="M87.392 8.588v117.599l59.355 9.194 59.356-9.194V8.587z"/>
        <path fill="#00C9C3" d="M84.866 242.98h121.237V125.783H84.866z"/>
        <path fill="#009792" d="M107.093 221.763h13.639v-72.237h-13.64z"/>
        <path fill="#00756F" d="M126.289 64.686l-11.804 20.18-11.935-6.922 7.756-13.258-9.78-16.72 11.804-20.182 11.935 6.92-7.756 13.261z"/>
        <path fill="#005960" d="M149.32 114.165l40.618 128.748-61.014.066-.11-100.622z"/>
        <path fill="#CDEAE6" d="M14.115 154.094L0 243.484l128.844-.14 14.115-89.39-64.43-7.46z"/>
        <path fill="#FF7900" d="M149.02 114.165l-6.227 39.766-128.649.141 6.224-39.766z"/>
        <path fill="#CE5D00" d="M121.129 137.03l-79.119.086a2.826 2.826 0 1 1-.006-5.655l79.118-.086a2.826 2.826 0 1 1 .007 5.655"/>
        <path fill="#FFF" d="M46.725 181.338l-11.682.013a2.827 2.827 0 0 1-.007-5.655l11.683-.013a2.827 2.827 0 1 1 .006 5.655M80.443 181.302l-11.683.012a2.827 2.827 0 1 1-.006-5.655l11.683-.012a2.827 2.827 0 1 1 .006 5.655M114.161 181.265l-11.683.012a2.826 2.826 0 1 1-.006-5.654l11.683-.013a2.827 2.827 0 1 1 .006 5.655M43.53 201.628l-11.684.012a2.827 2.827 0 1 1-.006-5.655l11.684-.012a2.827 2.827 0 1 1 .006 5.655M77.248 201.59l-11.684.013a2.826 2.826 0 1 1-.007-5.655l11.684-.012a2.828 2.828 0 0 1 .007 5.655M110.965 201.554l-11.683.012a2.827 2.827 0 1 1-.006-5.654l11.683-.013a2.826 2.826 0 1 1 .006 5.655M40.334 221.916l-11.683.012a2.826 2.826 0 1 1-.006-5.654l11.682-.012a2.827 2.827 0 1 1 .007 5.654"/>
        <path fill="#00C9C3" d="M74.051 221.88l-11.682.012a2.827 2.827 0 0 1-.007-5.655l11.683-.012a2.827 2.827 0 1 1 .006 5.654M107.77 221.843l-11.684.012a2.827 2.827 0 1 1-.007-5.654l11.684-.013a2.827 2.827 0 1 1 .007 5.655"/>
        <path fill="#118C8C" d="M234.223 63.664c6.988-6.987 6.038-19.266 6.038-19.266s-12.279-.95-19.266 6.038c-6.988 6.988-6.038 19.266-6.038 19.266s12.28.95 19.266-6.038"/>
        <path fill="#00756F" d="M214.775 112.56a2.273 2.273 0 0 1-2.274-2.274V20.16a2.273 2.273 0 0 1 4.547 0v90.125a2.273 2.273 0 0 1-2.273 2.273"/>
        <g transform="translate(207.619)">
            <mask id="b" fill="#fff">
                <use xlink:href="#a"/>
            </mask>
            <path fill="#00756F" d="M14.584 10.383c0-5.686-7.29-10.296-7.29-10.296S.008 4.697.008 10.383c0 5.686 7.288 10.295 7.288 10.295s7.29-4.61 7.29-10.295" mask="url(#b)"/>
        </g>
        <path fill="#00756F" d="M209.614 37.526c-5.823-5.823-16.055-5.031-16.055-5.031s-.792 10.232 5.031 16.055c5.822 5.823 16.055 5.031 16.055 5.031s.791-10.232-5.031-16.055"/>
        <path fill="#118C8C" d="M228.056 115.03h-26.563c-19.59 12.673-51.23 53.671-51.23 78.74 0 21.133 6.38 34.439 20.24 45.931 4.11 3.408 9.272 5.299 14.61 5.299h59.322c5.339 0 10.5-1.89 14.61-5.299 13.86-11.492 20.24-24.798 20.24-45.93 0-25.07-31.639-66.068-51.229-78.742"/>
        <path fill="#118C8C" d="M241.202 91.596c-1.41-.678-3.785-.842-5.275-.365l-6.436 2.06c-1.49.477-3.749.12-5.02-.796l-7.24-5.212c-1.27-.915-3.348-.915-4.619 0l-7.237 5.212c-1.27.915-3.529 1.273-5.02.796l-6.443-2.06c-1.49-.477-3.865-.314-5.276.364l-4.758 2.283c-1.41.677-1.64 2.118-.51 3.2l16.683 15.982c1.13 1.084 3.336 1.97 4.902 1.97h19.922c1.565 0 3.77-.886 4.9-1.97l16.685-15.983c1.13-1.083.9-2.524-.51-3.2l-4.748-2.281z"/>
        <path fill="#00756F" d="M217.813 181.388c-5.839-2.385-6.824-3.574-6.824-5.337 0-.776.34-3.31 4.722-3.31 3.828 0 6.238 1.36 7.268 1.941l1.436.81c.527.298 1.135.079 1.352-.486l2.699-7.035a.983.983 0 0 0-.411-1.16l-1.05-.61c-2.248-1.3-4.723-2.11-7.517-2.453v-5.637a.951.951 0 0 0-.948-.948h-6.996a.952.952 0 0 0-.948.948v6.189c-6.204 1.717-10.105 6.47-10.105 12.545 0 7.736 6.348 11.237 12.532 13.631 5.336 2.137 6.072 3.983 6.072 5.66 0 2.454-2.247 4.103-5.592 4.103-2.886 0-6-.916-8.333-2.45l-1.505-.99c-.552-.364-1.188-.152-1.413.469l-2.593 7.142c-.136.375.02.87.346 1.1l.889.626c2.271 1.6 5.724 2.77 9.233 3.18v5.884c0 .521.427.949.95.949h7.062a.952.952 0 0 0 .948-.95v-6.391c6.402-1.792 10.574-6.868 10.574-13.134 0-8.434-6.338-12.068-11.848-14.286"/>
        <path fill="#FF7900" d="M231.377 119.773h-33.204a4.744 4.744 0 0 1 0-9.487h33.204a4.744 4.744 0 0 1 0 9.487"/>
        <g transform="translate(383.918 147.505)">
            <mask id="d" fill="#fff">
                <use xlink:href="#c"/>
            </mask>
            <path fill="#FFF" d="M3.528 23.12c-.464 0-.92-.024-1.368-.074a2.413 2.413 0 1 1 .534-4.799c2.689.3 6.13-.878 8.763-3 .438-.35.84-.72 1.208-1.103-2.036-1.025-3.532-2.886-4.328-5.448-.918-2.954-.326-5.655 1.58-7.225C11.607.074 14.02-.12 16.058.972c2.664 1.432 4.07 4.597 3.822 8.541 2.345-.98 4.658-2.866 5.839-4.998a2.413 2.413 0 0 1 4.222 2.338c-2.346 4.238-7.277 7.508-11.817 8.103-.9 1.46-2.126 2.833-3.64 4.052-3.227 2.601-7.309 4.112-10.957 4.112m9.774-18.025a.497.497 0 0 0-.315.098c-.262.216-.386.956-.04 2.072.419 1.343 1.08 2.204 2.046 2.634.013-.09.025-.18.034-.269.273-2.606-.467-3.982-1.252-4.404a1.03 1.03 0 0 0-.473-.13" mask="url(#d)"/>
        </g>
        <path fill="#FFF" d="M393.97 176.05c0 16.259-8.495 30.885-22.035 41.03-.538.405-1.058 1.262-1.158 1.928l-3.735 25.218h-23.83l-1.894-12.79a1.186 1.186 0 0 0-1.145-1.012c-.036 0-.068 0-.1.004a.633.633 0 0 0-.132.012 82.048 82.048 0 0 1-17.547.99 81.657 81.657 0 0 1-8.922-.945c-.025-.006-.05-.006-.076-.009a1.186 1.186 0 0 0-1.301 1.01l-1.886 12.74h-23.835l-3.695-24.977c-.1-.666-.626-1.523-1.166-1.921-7.293-5.397-13.148-12.083-17.035-19.627-.309-.599-1.081-1.178-1.748-1.284l-12.163-1.98c-.663-.107-1.2-.738-1.2-1.411v-29.207c0-.673.537-1.304 1.2-1.414l10.038-1.631c.664-.11 1.381-.712 1.622-1.34 4.338-11.39 13.017-21.197 24.44-28.11a71.065 71.065 0 0 1 9.507-4.812 75.071 75.071 0 0 1 8.494-2.949 77.886 77.886 0 0 1 8.225-1.855 80.848 80.848 0 0 1 7.701-.927c1.72-.126 3.458-.2 5.213-.216.2-.003.399-.003.601-.003h.152a81.328 81.328 0 0 1 17.54 1.896 77.006 77.006 0 0 1 6.491 1.732c.319.1.635.204.95.306 20.724 6.81 36.377 21.841 41.015 40.199.365 1.436.661 2.89.882 4.365a45.95 45.95 0 0 1 .532 6.99"/>
        <path fill="#F18664" d="M393.438 169.06a44.66 44.66 0 0 0-.88-4.36l.03-.019c.362 1.436.658 2.89.883 4.364a.984.984 0 0 0-.033.016"/>
        <path fill="#F3D3C6" d="M326.595 231.538a82.07 82.07 0 0 1-4.201-.109 82.048 82.048 0 0 0 17.547-.99.669.669 0 0 1 .132-.011c.032-.004.064-.004.1-.004l.023.001h-.022c-.067 0-.135.006-.203.017a81.786 81.786 0 0 1-13.376 1.096"/>
        <path fill="#00756F" d="M282.081 158.044c0 3.23-1.54 5.847-3.44 5.847-1.897 0-3.438-2.618-3.438-5.847 0-3.229 1.541-5.846 3.438-5.846 1.9 0 3.44 2.617 3.44 5.846"/>
        <path fill="#FFF" d="M298.27 115.982c-3.018-2.22-6.834-3.688-11.603-4.046v31.412h11.603c4.447.46 9.491-2.75 10.638-4.814-.954-8.594-3.787-17.516-10.638-22.552"/>
        <path fill="#F29878" d="M308.89 138.568c.001-.005.004-.01.007-.014l-.008.014m-.007.011l.006-.009-.006.01m-9.733 4.812h.005-.005"/>
        <path fill="#005960" d="M347.108 123.158l-.008.026c-.412 1.637-.832 3.273-1.245 4.91a79.43 79.43 0 0 0-32.164-1.436c-.267-1.651-.533-3.298-.796-4.95a81.218 81.218 0 0 1 7.699-.927 81.634 81.634 0 0 1 5.212-.215c.201-.005.398-.005.603-.005a84.498 84.498 0 0 1 15.213 1.403 71.615 71.615 0 0 1 2.48.493c1.004.212 2.009.45 3.006.701"/>
        <path fill="#00C9C3" d="M350.512 100.645c0 11.328-9.183 20.511-20.51 20.511-11.327 0-20.511-9.183-20.511-20.511 0-11.327 9.184-20.51 20.51-20.51 11.328 0 20.511 9.183 20.511 20.51"/>
        <path fill="#118C8C" d="M328.702 110.66v-2.333c-1.645-.073-3.24-.516-4.173-1.055l.736-2.873c1.031.565 2.479 1.08 4.074 1.08 1.398 0 2.357-.54 2.357-1.52 0-.933-.787-1.522-2.603-2.136-2.625-.884-4.417-2.111-4.417-4.49 0-2.16 1.522-3.853 4.147-4.369v-2.331h2.404v2.159c1.646.074 2.751.417 3.562.81l-.714 2.773c-.637-.27-1.767-.835-3.533-.835-1.596 0-2.111.689-2.111 1.375 0 .808.86 1.325 2.945 2.11 2.92 1.032 4.099 2.382 4.099 4.589 0 2.186-1.546 4.05-4.37 4.541v2.504h-2.403z"/>
        <path fill="#00C9C3" d="M321.746 55.601c-2.464 8.553-11.395 13.49-19.948 11.026-8.552-2.464-13.49-11.395-11.025-19.949 2.463-8.552 11.396-13.488 19.947-11.024 8.553 2.464 13.49 11.395 11.026 19.947"/>
        <path fill="#118C8C" d="M303.1 58.418l.507-1.76c-1.226-.413-2.335-1.094-2.921-1.705l1.181-2.008c.655.65 1.636 1.354 2.84 1.7 1.056.305 1.897.105 2.11-.634.204-.704-.262-1.32-1.5-2.179-1.79-1.238-2.876-2.555-2.358-4.351.469-1.631 1.986-2.579 4.081-2.397l.507-1.76 1.816.524-.47 1.63c1.226.413 1.986.913 2.512 1.385l-1.142 1.939c-.422-.342-1.153-1.015-2.485-1.4-1.205-.346-1.743.061-1.893.58-.176.61.36 1.187 1.765 2.234 1.98 1.414 2.576 2.69 2.096 4.357-.475 1.65-2.048 2.721-4.287 2.478l-.544 1.89-1.815-.523z"/>
    </g>
</svg>
