<svg xmlns="http://www.w3.org/2000/svg" xmlns:xlink="http://www.w3.org/1999/xlink" width="417" height="374" viewBox="0 0 417 374">
    <defs>
        <path id="a" d="M.203 161.768c0 89.225 72.352 161.557 161.603 161.557 89.25 0 161.602-72.332 161.602-161.557C323.408 72.544 251.056.212 161.806.212 72.555.212.203 72.544.203 161.768z"/>
        <path id="c" d="M.203 161.768c0 89.225 72.352 161.557 161.603 161.557 89.25 0 161.602-72.332 161.602-161.557C323.408 72.544 251.056.212 161.806.212 72.555.212.203 72.544.203 161.768"/>
        <path id="e" d="M.203 161.768c0 89.225 72.352 161.557 161.603 161.557 89.25 0 161.602-72.332 161.602-161.557C323.408 72.544 251.056.212 161.806.212 72.555.212.203 72.544.203 161.768z"/>
        <path id="g" d="M.203 161.768c0 89.225 72.352 161.557 161.603 161.557 89.25 0 161.602-72.332 161.602-161.557C323.408 72.544 251.056.212 161.806.212 72.555.212.203 72.544.203 161.768z"/>
        <path id="i" d="M.203 161.768c0 89.225 72.352 161.557 161.603 161.557 89.25 0 161.602-72.332 161.602-161.557C323.408 72.544 251.056.212 161.806.212 72.555.212.203 72.544.203 161.768z"/>
        <path id="k" d="M.203 161.768c0 89.225 72.352 161.557 161.603 161.557 89.25 0 161.602-72.332 161.602-161.557C323.408 72.544 251.056.212 161.806.212 72.555.212.203 72.544.203 161.768z"/>
        <path id="m" d="M.105.212h145.9v208.054H.105z"/>
        <path id="o" d="M14.019.212C6.389.212.203 6.396.203 14.024v39.472c0 7.628 6.185 13.812 13.816 13.812h39.483c7.63 0 13.816-6.184 13.816-13.812V14.024c0-7.628-6.186-13.812-13.816-13.812H14.02z"/>
    </defs>
    <g fill="none" fill-rule="evenodd">
        <path fill="#00C9C3" d="M353.026 211.92c0 89.226-72.353 161.557-161.603 161.557-89.25 0-161.603-72.331-161.603-161.556 0-89.225 72.352-161.556 161.603-161.556 89.25 0 161.603 72.331 161.603 161.556"/>
        <g transform="translate(29.82 50.365)">
            <mask id="b" fill="#fff">
                <use xlink:href="#a"/>
            </mask>
            <path fill="#005960" d="M175.515 246.523v-.033c8.761-.526 15.76-7.857 15.76-16.738l-.018-31.47V91.819c0-6.4 3.45-11.992 8.592-15.024a17.34 17.34 0 0 1 8.847-2.41h112.717v153.214c0 .49-.019.978-.056 1.457-.744 9.77-8.908 17.467-18.873 17.467H175.515z" mask="url(#b)"/>
            <mask id="d" fill="#fff">
                <use xlink:href="#c"/>
            </mask>
            <path fill="#005960" d="M212.987 93.163v121.895c0 7.731 6.269 13.998 14.003 13.998h69.874c2.284 0 3.876 2.234 3.17 4.406-2.468 7.58-9.59 13.061-17.997 13.061h20.447c9.963 0 18.122-7.697 18.867-17.467h.006c.129-1.648.006 1.59.056-154.671H208.696c-3.23 0-6.252.878-8.847 2.41 7.493 1.669 13.138 8.388 13.138 16.368" mask="url(#d)"/>
            <mask id="f" fill="#fff">
                <use xlink:href="#e"/>
            </mask>
            <path fill="#00756F" d="M239.212 218.717c-7.736 0-14.006-6.266-14.006-13.999V91.164c0-8.531-6.454-15.63-14.727-16.645v-.128H320.79v.014c.168-.005.334-.013.502-.013h4.84c6.692 0 12.168 5.475 12.168 12.166v132.159h-99.088z" mask="url(#f)"/>
            <mask id="h" fill="#fff">
                <use xlink:href="#g"/>
            </mask>
            <path fill="#71D8B8" d="M351.37 218.717l-.039.001h16.217c6.534 0 12.295-3.087 15.697-7.783.077-.107.15-.218.225-.327.09-.13.181-.257.267-.388 1.739-2.67 2.74-5.803 2.74-9.155V28.42c0-2.453-.532-4.788-1.496-6.912-2.22-4.896-6.731-8.664-12.278-10.15a20.342 20.342 0 0 0-5.264-.692h-93.681c-9.63 0-17.438 7.28-17.438 16.26v146.794l.02 29.352c0 8.287-7 15.125-15.763 15.615v.032H351.37z" mask="url(#h)"/>
            <mask id="j" fill="#fff">
                <use xlink:href="#i"/>
            </mask>
            <path fill="#118C8C" d="M17.477 326.748h288.657v-80.39H17.477z" mask="url(#j)"/>
            <path fill="#71D8B8" d="M204.055 200.19l-7.086-4.449 22.11-9.857-9.151-20.834c-4.233-8.885-15.162-16.09-25.603-16.095h-45.517c-10.438.006-21.367 7.21-25.6 16.095l-9.151 20.834 22.11 9.857-7.086 4.449-3.927 33.856 46.414-.727 46.415.727-3.928-33.856z" mask="url(#j)"/>
            <path fill="#FAB08A" d="M219.08 185.884l4.561 15.073c3.332 10.998-.223 22.803-9.204 30.589l-20.71 16.17-6.658-18.097 11.454-10.68c3.764-3.508 4.882-8.78 2.84-13.356l-4.394-9.842 22.11-9.857zM128.665 282.926l-18.443 2.504-3.552-3.898 1.802-7.068 17.726-2.557z" mask="url(#j)"/>
            <path fill="#FFF" d="M110.222 285.43l-23.213 2.861s-22.85 2.964-19.56-9.62c3.183-12.157 23.692-6.764 23.692-6.764l19.08 2.305c-2.293 3.12-2.398 7.59-.263 10.82l.264.398z" mask="url(#j)"/>
            <path fill="#FFF" d="M67.45 278.67c1.283-4.893 5.372-6.94 9.8-7.642v17.338c-5.748-.646-11.575-2.908-9.8-9.696" mask="url(#j)"/>
            <path fill="#FAB08A" d="M104.283 185.884l-4.561 15.073c-3.332 10.998.223 22.803 9.204 30.589l20.71 16.17 6.658-18.097-11.454-10.68c-3.764-3.508-4.882-8.78-2.84-13.356l4.394-9.842-22.11-9.857zM196.454 284.309l18.754 1.121 3.548-3.898-1.802-7.068-17.726-2.557z" mask="url(#j)"/>
            <path fill="#FFF" d="M215.208 285.43l23.213 2.861s22.85 2.964 19.556-9.62c-3.18-12.157-23.692-6.764-23.692-6.764l-19.077 2.305c2.29 3.12 2.396 7.59.26 10.82l-.26.398z" mask="url(#j)"/>
            <path fill="#FFF" d="M257.977 278.67c-1.28-4.893-5.37-6.94-9.798-7.642v17.338c5.746-.646 11.572-2.908 9.798-9.696" mask="url(#j)"/>
            <path fill="#005960" d="M126.487 253.72h76.511v-45.78h-76.51z" mask="url(#j)"/>
        </g>
        <path fill="#005960" d="M156.193 303.947h76.37v-45.9h-76.37z"/>
        <g transform="translate(29.82 50.365)">
            <mask id="l" fill="#fff">
                <use xlink:href="#k"/>
            </mask>
            <path fill="#C0ABC3" d="M126.487 255.628h76.51v-3.815h-76.51z" mask="url(#l)"/>
            <path fill="#FFF" d="M161.68 226.618a3.06 3.06 0 1 0 6.121-.002 3.06 3.06 0 0 0-6.121.002" mask="url(#l)"/>
            <path fill="#1C2C57" d="M257.772 241.505c15.286 27.218-138.669 43.925-138.669 43.925l-2.61-12.122s122.428-65.367 141.279-31.803" mask="url(#l)"/>
            <path fill="#004472" d="M67.658 241.505c-12.987 28.389 139.945 45.41 139.945 45.41l1.137-13.638S83.01 207.94 67.658 241.505" mask="url(#l)"/>
            <path fill="#F79C82" d="M169.63 148.858c-1.418-4.293-3.988-17.018-3.988-17.018l-16.383 3.2v13.89s5.435 3.855 10.01 3.893c4.996.04 10.537-3.483 10.36-3.965" mask="url(#l)"/>
            <path fill="#FAB08A" d="M169.641 109.295l-3.088-18.193-31.48 3.725 1.908 20.961s2.433 25.937 19.189 22.852c18.126-3.336 14.277-29.575 13.471-29.345" mask="url(#l)"/>
            <path fill="#004472" d="M176.99 106.806c-.419-2.205.168-5.65 1.34-7.567 5.438-8.895-2.79-11.482-5.662-12.25-3.172-.849-4.183-5.788-8.446-7.364-6.507-2.407-10.174 3.417-13.704 3.866-3.53.449-7.018-3.32-11.113.577-4.096 3.898-2.343 7.531-3.384 9.631-1.038 2.103-5.311-1.42-8.416 5.16-2.361 5.003.246 7.938 3.444 9.622 3.723 1.96 8.173 1.96 12.035.292a54.418 54.418 0 0 0 12.626-7.67c1.225-.997 10.834-1.659 11.632-.295 2.707 4.622 2.927 20.003 2.927 20.003l.339-.474c1.193-1.67 2.528-3.231 3.92-4.74 1.43-1.546 3.284-4.481 2.463-8.79" mask="url(#l)"/>
        </g>
        <path fill="#00756F" d="M91.346 162.496c0 25.077-20.329 45.406-45.406 45.406-25.077 0-45.406-20.329-45.406-45.406 0-25.077 20.33-45.406 45.406-45.406 25.077 0 45.406 20.33 45.406 45.406"/>
        <g transform="translate(270.292 60.817)">
            <mask id="n" fill="#fff">
                <use xlink:href="#m"/>
            </mask>
            <path fill="#FFF" d="M110.897 208.265l-.038.001h16.217c6.534 0 12.295-3.088 15.696-7.783.078-.108.15-.218.225-.328.09-.129.182-.256.267-.388 1.74-2.669 2.741-5.802 2.741-9.154V17.966c0-2.452-.532-4.787-1.497-6.911-2.22-4.896-6.73-8.664-12.277-10.15a20.342 20.342 0 0 0-5.265-.693h-93.68c-9.631 0-17.438 7.28-17.438 16.26v146.795l.02 29.352c0 8.287-7 15.125-15.763 15.615v.032h110.792z" mask="url(#n)"/>
        </g>
        <use fill="#CDEAE6" transform="translate(299.84 74.905)" xlink:href="#o"/>
        <path fill="#CDEAE6" d="M300.043 166.916h104.553v-9.998H300.043zM300.043 189.184h104.553v-9.998H300.043zM325.954 214.633h60.004v-9.998h-60.004zM325.954 239.627h60.004v-9.998h-60.004z"/>
        <path fill="#00756F" d="M275.507 45.94c0 25.077-20.329 45.406-45.406 45.406-25.077 0-45.406-20.329-45.406-45.406 0-25.077 20.329-45.406 45.406-45.406 25.077 0 45.406 20.329 45.406 45.406"/>
        <path fill="#71D8B8" d="M315.498 209.634a7.727 7.727 0 0 1-7.727 7.725 7.727 7.727 0 1 1 0-15.45 7.727 7.727 0 0 1 7.727 7.725M315.498 234.628a7.727 7.727 0 0 1-7.727 7.726 7.727 7.727 0 1 1 0-15.451 7.727 7.727 0 0 1 7.727 7.725"/>
        <path fill="#FAB08A" d="M202.763 161.917a3.182 3.182 0 1 1-6.363-.001 3.182 3.182 0 0 1 6.363 0"/>
        <path fill="#00756F" fill-rule="nonzero" d="M350.334 95.018c0 11.365 2.39 27.644-17.001 34.256-19.39-6.612-17-22.891-17-34.256 7.042 0 12.438-1.979 17-6.343 4.562 4.364 9.958 6.343 17 6.343zm-10 11.224h-5.091v-5.034h-3.357v5.034h-5.091v3.275h5.09v5.035h3.358v-5.035h5.091v-3.275z"/>
        <path fill="#FFF" fill-rule="nonzero" d="M252.42 37.725l-21.544-15.91c-.783-.597-1.567-.597-2.35 0l-21.544 15.91c-1.567.995-.588 3.58 1.175 3.58h3.917v21.877c0 1.193.783 1.989 1.958 1.989h31.337c1.175 0 1.959-.796 1.959-1.989V41.305h3.917c1.763 0 2.742-2.585 1.175-3.58zM229.7 61.193c-6.462 0-11.75-5.37-11.75-11.932 0-6.564 5.288-11.933 11.75-11.933 6.464 0 11.752 5.37 11.752 11.933s-5.288 11.932-11.751 11.932z"/>
        <path fill="#FFF" fill-rule="nonzero" d="M232.194 46.652v-4.985h-4.986v4.985h-4.986v4.986h4.986v4.986h4.986v-4.986h4.985v-4.986z"/>
        <path fill="#00756F" d="M157.12 69.91c0 25.077-20.33 45.406-45.407 45.406-25.077 0-45.405-20.329-45.405-45.406 0-25.077 20.328-45.406 45.405-45.406 25.078 0 45.407 20.329 45.407 45.406"/>
        <path fill="#FFF" d="M104.77 55.487a5.342 5.342 0 1 0 0-10.684 5.342 5.342 0 0 0 0 10.684zm17.75 17.863v-7.733h-8.766v7.733h-7.89v-1.763h6.137v-7.689h1.754v-5.155l-5.706-1.12-3.06 4.628-3.062-4.626-5.705 1.118v12.601l3.53 2.865 1.73 15.466h7.013l.877-7.733h4.382v7.733h8.766v-7.733h7.89V73.35h-7.89zM52.995 148.613a3.886 3.886 0 1 0 .845-7.726 3.886 3.886 0 1 0-.845 7.726M29.666 145.955a3.797 3.797 0 1 0 .826-7.55 3.797 3.797 0 1 0-.826 7.55M52.685 157.138l5.926 6.138a2.1 2.1 0 0 0 2.953.063 2.062 2.062 0 0 0 .064-2.93l-9.79-10.14-.004.005a4.859 4.859 0 0 0-3.117-1.608c-2.676-.291-5.082 1.626-5.375 4.28l-1.578 14.305 2.299.25L45.17 183h4.873v-14.85l1.41.154 1.232-11.166zM42.3 156.813c.6-.981.292-2.263-.689-2.863l-9.634-5.488a4.412 4.412 0 0 0-2.54-.802A4.439 4.439 0 0 0 25 152.1v13.084h2.013l.774 17.786h4.585v-17.786h1.503v-10.851l5.564 3.17c.98.6 2.262.29 2.862-.69"/>
        <path fill="#FFF" d="M59.79 169.26l.1-2.277a1.786 1.786 0 0 1 1.788-1.712h2.81c.962 0 1.747.752 1.79 1.712l.1 2.277h-6.589zM66.985 183l1.386-.061-.709-16.017a3.173 3.173 0 0 0-3.174-3.039h-2.811a3.171 3.171 0 0 0-3.174 3.039l-.71 16.017 1.387.061.547-12.352h6.712L66.986 183z"/>
    </g>
</svg>
