<svg xmlns="http://www.w3.org/2000/svg" xmlns:xlink="http://www.w3.org/1999/xlink" width="83" height="88" viewBox="0 0 83 88">
    <defs>
        <path id="a" d="M.052.067h13.884v18.571H.052z"/>
        <path id="c" d="M.077.067h10.635v18.571H.077z"/>
        <path id="e" d="M.05.036h15.453v21.728H.05z"/>
        <path id="g" d="M.02.036h13.168v21.728H.02z"/>
        <path id="i" d="M.615 0l.615 1.014H0z"/>
    </defs>
    <g fill="none" fill-rule="evenodd">
        <g transform="translate(3)">
            <rect width="56" height="83.527" fill="#EEE" rx="4"/>
            <path fill="#FFF" d="M16.535 6.525c0 3.732.717 9.076-5.099 11.247-5.815-2.17-5.098-7.516-5.098-11.247 2.112 0 3.73-.65 5.098-2.082 1.369 1.433 2.987 2.082 5.1 2.082zm-3.127 4.037h-1.482V8.886h-.978v1.676H9.465v1.09h1.483v1.677h.978v-1.676h1.482v-1.09z"/>
            <path fill="#D8D8D8" d="M6.31 42.652h44.169v3.554H6.31zM6.31 50.65h44.169v3.554H6.31zM6.31 58.647h44.169v3.554H6.31zM6.31 23.992h44.169v14.217H6.31z"/>
        </g>
        <path fill="#118C8C" d="M46.873 48.691v15.944h-11.09v17.808H67.95V48.691z"/>
        <path fill="#FAB08A" d="M48.638 73.441l-.248 1.914c.462.412 1.068.438 1.55.067l.087-.067.368-1.914h-1.757z"/>
        <path fill="#005960" d="M62.213 31.054c-1.516 5.341-6.605 13.54-6.605 13.54l4.02-1.755 2.84-7.005s1.261-10.12-.255-4.78"/>
        <path fill="#1C2C57" d="M51.503 52.228l-2.98 20.765h2.65s5.949-18.683 6.574-24.176c0-3.111-6.015 0-6.015 0l-.229 3.41z"/>
        <path fill="#F79C82" d="M61.222 22.447l1.057 3.016 2.285-1.825-1.543-3.556z"/>
        <path fill="#FAB08A" d="M60.726 23.314c-.35.07-.685.088-.883-.027-1.312-1.406-.992-6.102-.992-6.102l1.466-1.139 2.31.95.67 2.94a2.678 2.678 0 0 1-.531 2.261c-.571.56-1.277.962-2.04 1.117"/>
        <path fill="#1C2C57" d="M62.125 18.057c-.207-.449-.704-.66-1.145-.48-.321.13-.709.27-1.093.354-.914.203-2.62.185-2.91-1.288-.29-1.474 1.517-1.347 1.517-1.347l2.404.175c.712.052 1.42-.1 2.073-.402.578-.267 1.092.3 1.216.68.27.832-.012 2.253-.25 3.164a4.722 4.722 0 0 1-.663 1.468l-1.15-2.324z"/>
        <path fill="#FAB08A" d="M63.432 18.193c-.245-.128-.626-.022-.85.237-.223.26-.206.573.04.7.245.129.625.023.85-.236.223-.26.206-.573-.04-.7"/>
        <path fill="#1C2C57" d="M48.44 75.274s-.006 1.906-3.565 3.05c-.73.235-.492.467-.63.797h4.095l1.603-1.939.5.46 1.155-1.221s-.2-1.768-1.081-1.784c-.727.266-2.076.637-2.076.637"/>
        <path fill="#FAB08A" d="M58.282 72.884l.703 1.542a1.752 1.752 0 0 0 1.759-.508l.077-.087-.568-1.585-1.971.638z"/>
        <path fill="#006769" d="M62.143 24.879s-.28-.492 2.222-1.957c3.773 4.272 5.012 20.626 5.012 20.626H59.51c-.334-9.334 2.632-18.67 2.632-18.67"/>
        <path fill="#FAB08A" d="M52.411 42.421a.52.52 0 0 1 .2-.534l1.57-1.046a1.622 1.622 0 0 1 1.286-.238l1.703.077.223.31.354 1.728c-.342-.095-.543-.154-.543-.154l-1.081.034s-2.04 2.176-3.05.284c-.043 2.014-.556 1.859-.556 1.859l-.106-2.32z"/>
        <path fill="#004060" d="M69.195 43.1l.147 1.335.005.054c.262 2.55-1.26 4.912-3.497 5.605 0 0-4.44 1.622-10.043 1.96 3.678 5.213 4.696 19.84 4.696 19.84l-2.37.95-9.153-24.06c-.585-1.538.242-3.282 1.72-3.63l8.742-2.054h9.753z"/>
        <path fill="#006769" d="M63.1 30.006s1.833 1.86 2.911 3.769c.3.53.255 1.215-.116 1.688-2.048 2.618-9.351 5.132-9.351 5.132l.473 2.953s10.363-2.26 14.034-6.343c3.766-4.188-5.972-12.938-5.972-12.938"/>
        <path fill="#118C8C" d="M48.493 45.79l-3.044-12.23.558-.176 2.903 11.663 8.738-1.707.099.643z"/>
        <path fill="#1C2C57" d="M59.122 74.062s.139 1.922-3.42 3.066c-.729.235-.491.467-.629.797h4.095l1.603-1.94.498.462 1.157-1.222s-.54-1.768-1.42-1.784c-.726.267-1.884.621-1.884.621"/>
        <g>
            <g transform="translate(68.407 64.229)">
                <mask id="b" fill="#fff">
                    <use xlink:href="#a"/>
                </mask>
                <path fill="#59C09C" d="M.052 16.949S1.777 3.412 9.897.067c7.929 7.503 1.74 18.597 1.74 18.597l-8.75 6.965-2.835-8.68z" mask="url(#b)"/>
            </g>
            <g transform="translate(71.127 64.229)">
                <mask id="d" fill="#fff">
                    <use xlink:href="#c"/>
                </mask>
                <path fill="#006769" d="M.22 7.425l3.496 4.655L6.986.15c.064-.027.127-.056.192-.083l.09.09-1.752 6.389 4.617-2.329.061.145.053.129-4.836 2.438-2.92 10.648 8.22-3.8c-.029.124-.058.247-.089.368L2.39 17.95.315 25.511l-.147.118-.091-.28L3.62 12.425.081 7.711l.138-.286" mask="url(#d)"/>
            </g>
            <g transform="translate(60.81 61.104)">
                <mask id="f" fill="#fff">
                    <use xlink:href="#e"/>
                </mask>
                <path fill="#004966" d="M3.552 22.775S-3.674 9.214 2.632.036c17.17 5.557 12.204 24.3 12.204 24.3L3.552 22.774z" mask="url(#f)"/>
            </g>
            <g transform="translate(60.904 61.104)">
                <mask id="h" fill="#fff">
                    <use xlink:href="#g"/>
                </mask>
                <path fill="#59C09C" d="M2.538.036l.178.06 4.65 17.834 5.644-9.737c.06.11.12.22.178.331L7.481 18.37l1.342 5.147-.336-.047-2.675-10.259-5.76-2.028a22.078 22.078 0 0 1-.032-.374l5.688 2.003L2.422.212c.04-.058.076-.117.116-.176" mask="url(#h)"/>
            </g>
        </g>
        <g>
            <path fill="#1C2C57" d="M25.095 54.336a.615.615 0 0 1 .225-.84l4.177-2.412.615 1.065-4.177 2.412a.615.615 0 0 1-.84-.225z"/>
            <path fill="#FFF" d="M25.961 54.546l-.615-1.065.24-.138.615 1.065z"/>
            <g transform="rotate(-120 30.11 17.382)">
                <mask id="j" fill="#fff">
                    <use xlink:href="#i"/>
                </mask>
                <use fill="#FBF2F2" transform="matrix(1 0 0 -1 0 1.014)" xlink:href="#i"/>
                <path fill="#000" d="M.615.634l.615.38H0z" mask="url(#j)" transform="matrix(1 0 0 -1 0 1.648)"/>
            </g>
            <g>
                <path fill="#FABC9C" d="M20.856 44.912c.56 1.8.918 3.163 1.074 4.091.234 1.393.033 2.443-.481 3.434-1.263.122-2.56-.109-3.892-.694-.497-.223-.796-.408-.897-.557-.293-.432-.343-.966-.343-1.287 0-.486.413-.67 1.24-.553.455-1.826 1.032-3.082 1.73-3.767.697-.685 1.22-.907 1.57-.667z"/>
                <path fill="#EFAF8E" d="M20.156 52.266c0 .166-.261.972-.785 2.42l-1.637-1.836v-1.107c1.615.184 2.422.358 2.422.523z"/>
                <path fill="#FABC9C" d="M26.207 57.365c-.189-1.67-.234-3.192-.137-4.567.71-.506 1.69-1.131 2.941-1.875.135 0 .17.137.106.411-.196.174-.931.662-2.208 1.464v.88l-.702 3.687z"/>
                <path fill="#FABC9C" d="M26.849 53.951l.824-1.765c.989-.708 1.513-1.077 1.575-1.108.091-.046.091.154 0 .31-.432.407-.798.765-1.1 1.074l-.664 1.783-.635-.294z"/>
                <path fill="#FABC9C" d="M28.18 52.49c.74-.823 1.144-1.234 1.209-1.234.097 0 .097.146.097.351-.289.38-.544.89-.767 1.526.076 1.123.113 2.03.113 2.722-.242.77-.63 2.073-1.164 3.907l-1.47-2.397.651-3.396 1.33-1.48z"/>
                <path fill="#FFF" d="M17.757 52.84l-.468 1.38 2.743 2.12v-.516l-.682-1.234zM26.159 57.273l-.65 1.106 2.02 1.926.355-.572-1.725-2.46z"/>
                <path fill="#00C9C3" d="M13.411 55.43c-.69 4.13-2.088 8.052-4.19 11.765-1.02 1.408-3.137 4.108-2.586 5.394 1.088 0 .88-.065 1.829.314 4.237 2.298 6.238 2.035 9.466.962.951-1.986.398-5.845 2.54-11.061-.097-2.944-1.159-5.762-3.184-8.453h-3.457l-.418 1.079z"/>
                <path fill="#09B9B4" d="M16.057 66.633c-.78 3.238 0 7.166 2.065 6.532-.007-1.681 1.78-8.978 2.348-10.361-.097-2.944-1.069-4.173-2.915-3.687-.87 4.47-1.369 6.976-1.498 7.516z"/>
                <path fill="#00C9C3" d="M17.465 54.378c1.795.746 4.094 2.94 6.895 6.582l1.107-2.595 3.827 3.562c-2.445 4.221-3.8 6.462-4.066 6.722-.4.392-1.027 0-1.849 0-.547 0-2.105-2.24-4.674-6.722-1.922-4.845-2.336-7.362-1.24-7.549z"/>
                <path fill="#09ACA7" d="M10.512 60.262a247.215 247.215 0 0 1-2.395 4.614c-.46 1.425-.46 2.712 0 3.86l3.854-4.897.996-5.31-2.425 1.527"/>
                <path fill="#1C2C57" d="M21.502 47.661c.65-1.453.81-2.46.476-3.02-.5-.841-2.092-.497-2.677-.497-2.43.274-3.74.26-4.763 1.338-1.022 1.078-1.365 2.113-1.127 4.854a18.139 18.139 0 0 0-4.22 3.492c-1.216 1.783-1.216 3.859 0 6.226 1.133 1.537 3.656 2.355 6.319 0 .702-.815.315-1.81.679-3.166.174-.648.705-1.175 1.143-2.49.37-1.105.664-1.59.472-2.655-1.077-.428-1.505-1.042-1.283-1.844 1.1-.224 2.026-.695 2.78-1.412.578-.477.867-1.163.867-2.059-.309-.972-.16-1.458.445-1.458.387.245.683 1.142.889 2.691z"/>
                <path fill="#005960" d="M7.375 79.647l-.213 2.728h2.72z"/>
                <path fill="#FABC9C" d="M8.568 82.345H7.29v.417c-.951.814-1.484 1.341-1.6 1.58-.115.238 0 .665.349 1.281h4.522l-1.156-3.082-.837-.196z"/>
                <path fill="#FF7900" d="M7.523 82.317c-.387-.163-1.16-.307-2.317-.433l-1.379 1.275c.314.112.424.222.328.331C3.123 85.087.141 87.053 0 87.522c0 0 .558.436 1.131.373.393-.421 2.158-1.151 5.294-2.19l-.627-1.356 1.725-1.574c.386-.144.386-.296 0-.458z"/>
                <path fill="#118C8C" d="M11.043 79.642H7.41c.736 1.874 1.732 3.879 2.989 6.013 3.394 0 8.81.121 16.247.362l-7.94-6.375h-7.662z"/>
                <path fill="#127676" d="M11.197 79.642H7.409c.61 1.764 2.023 2.827 4.238 3.187 2.215.36 5.156.36 8.823 0-2.639-.377-4.701-.864-6.189-1.458-1.487-.595-2.515-1.171-3.084-1.73z"/>
                <path fill="#118C8C" d="M7.536 73.313c-.52 4.106 0 4.106 3.62 6.755 4.423 2.542 8.706 5.519 14.608 6.147 3.437-.236 3.698-2.893 2.92-4.331-.52-.96-3.551-3.356-9.095-7.19-7.118-1.24-11.136-1.7-12.053-1.381z"/>
                <g>
                    <path fill="#118C8C" d="M18.705 69.715l5.045-3.224c1.318.247 2.415.716 3.29 1.406.144 3.186-.219 7.019-1.088 11.498l-8.342-5.53 1.095-4.15z"/>
                    <path fill="#FF7900" d="M28.822 83.893c1.493.601 2.785.876 3.13 1.032.063.151.008.391-.166.72H27.53c.46-.718.89-1.302 1.293-1.752z"/>
                    <path fill="#005960" d="M20.47 75.346s1.588-1.552 2.203-2.477c.196.134-.12 1.248-.945 3.341l-1.258-.864z"/>
                </g>
                <path fill="#FFF" d="M7.164 72.511v.643c.863.688 1.481 1.177 1.854 1.469.773.604 1.28 1.18 2.364 1.338 1.87.272 4.522-.174 7.96-1.338l-1.507-.943-10.671-1.169z"/>
            </g>
        </g>
    </g>
</svg>
