<svg xmlns="http://www.w3.org/2000/svg" xmlns:xlink="http://www.w3.org/1999/xlink" width="335" height="140" viewBox="0 0 335 140">
    <defs>
        <path id="x1o51wxpta" d="M6 0h323c3.314 0 6 2.686 6 6v128c0 3.314-2.686 6-6 6H6c-3.314 0-6-2.686-6-6V6c0-3.314 2.686-6 6-6z"/>
    </defs>
    <g fill="none" fill-rule="evenodd">
        <g>
            <g transform="translate(-20.000000, -200.000000) translate(20.000000, 200.000000)">
                <mask id="rj86fqjjnb" fill="#fff">
                    <use xlink:href="#x1o51wxpta"/>
                </mask>
                <use fill="#00C2C0" xlink:href="#x1o51wxpta"/>
                <g mask="url(#rj86fqjjnb)">
                    <g>
                        <g>
                            <path fill="#009792" d="M182.031 245.405l-11.891 12.468c-1.764 1.85-4.623 1.85-6.387 0l-11.891-12.468c-1.764-1.85-1.764-4.847 0-6.697l11.891-12.468c1.764-1.85 4.623-1.85 6.387 0l11.891 12.468c1.764 1.85 1.764 4.848 0 6.697" opacity=".698" transform="translate(-75.188889, 0.000000) translate(240.820095, -162.461909)"/>
                            <path fill="#98DFDF" d="M136.689 229.211c-5.402 0-9.78-4.621-9.78-10.322 0-5.7 4.378-10.322 9.78-10.322 5.401 0 9.78 4.622 9.78 10.322 0 5.7-4.379 10.322-9.78 10.322" opacity=".433" transform="translate(-75.188889, 0.000000) translate(240.820095, -162.461909)"/>
                            <path fill="#20A4A4" d="M49.436 218.86c81.208 43.562 115.308 8.567 140.531-22.086 35.995-43.742 88.57-2.037 70.539-47.953C242.474 102.905 126.25 30.9 67.785 78.257 9.318 125.614-11.631 186.102 49.436 218.86z" opacity=".248" transform="translate(-75.188889, 0.000000) translate(240.820095, -162.461909) translate(138.381922, 151.031117) rotate(-298.000000) translate(-138.381922, -151.031117)"/>
                        </g>
                    </g>
                </g>
            </g>
        </g>
    </g>
</svg>
