<svg xmlns="http://www.w3.org/2000/svg" xmlns:xlink="http://www.w3.org/1999/xlink" width="132" height="43" viewBox="0 0 132 43">
    <defs>
        <path id="a" d="M.026.011H41.86v28.064H.026z"/>
        <path id="c" d="M.026.011H41.86v28.064H.026z"/>
        <path id="e" d="M.026.011H41.86v28.064H.026z"/>
    </defs>
    <g fill="none" fill-rule="evenodd">
        <g transform="rotate(-35 57.413 -54.655)">
            <mask id="b" fill="#fff">
                <use xlink:href="#a"/>
            </mask>
            <path fill="#005960" d="M3.58 11.63S24.898-6.452 41.848 2.5c.583 21.278-21.62 25.576-21.62 25.576L.025 23.397 3.58 11.631z" mask="url(#b)"/>
        </g>
        <path fill="#118C8C" d="M61.466 10.825l5.006 9.688L76.818 1.619c.13-.017.259-.037.39-.05.049.065.093.13.141.197l-5.54 10.119 9.557-1.76c.023.093.043.186.065.278l.055.246-10.01 1.843-9.234 16.864 16.896-2.538c-.099.198-.197.395-.298.587l-16.922 2.542-6.557 11.975-.321.13-.076-.523 11.21-20.471-5.069-9.808.361-.425"/>
        <g transform="rotate(-35 80.261 -132.88)">
            <mask id="d" fill="#fff">
                <use xlink:href="#c"/>
            </mask>
            <path fill="#59C09C" d="M3.58 11.63S24.898-6.452 41.848 2.5c.583 21.278-21.62 25.576-21.62 25.576L.025 23.397 3.58 11.631z" mask="url(#d)"/>
        </g>
        <path fill="#118C8C" d="M110.466 9.784l5.006 9.687L125.818.577c.13-.017.259-.036.39-.05.049.065.093.13.141.197l-5.54 10.12 9.557-1.76c.023.092.043.185.065.277l.055.247-10.01 1.843-9.234 16.863 16.896-2.538c-.099.199-.197.395-.298.587l-16.922 2.543-6.557 11.975-.321.13-.076-.524 11.21-20.47-5.069-9.809.361-.424"/>
        <g>
            <g transform="rotate(-35 30.261 25.7)">
                <mask id="f" fill="#fff">
                    <use xlink:href="#e"/>
                </mask>
                <path fill="#008181" d="M3.58 11.63S24.898-6.452 41.848 2.5c.583 21.278-21.62 25.576-21.62 25.576L.025 23.397 3.58 11.631z" mask="url(#f)"/>
            </g>
            <path fill="#005960" d="M10.466 9.784l5.006 9.687L25.818.577c.13-.017.259-.036.39-.05.049.065.093.13.141.197l-5.54 10.12 9.557-1.76c.023.092.043.185.065.277l.055.247-10.01 1.843-9.234 16.863 16.896-2.538c-.099.199-.197.395-.298.587l-16.922 2.543L4.36 40.88l-.321.13-.076-.524 11.21-20.47-5.069-9.809.361-.424"/>
        </g>
    </g>
</svg>
