<svg xmlns="http://www.w3.org/2000/svg" width="430" height="260" viewBox="0 0 430 260">
    <g fill="none" fill-rule="evenodd">
        <path fill="#FFF" d="M81.046 258.912h176.778V0H81.046z"/>
        <path fill="#118C8C" d="M81.046 35.356h176.778V0H81.046z"/>
        <path fill="#CDEAE6" d="M95.188 45.146h149.038v-3.263H95.188zM95.188 51.13h70.168v-3.264H95.188z"/>
        <path fill="#00C9C3" d="M95.188 70.167h149.038V63.64H95.188z"/>
        <path fill="#CDEAE6" d="M95.188 78.87h45.69v-3.263h-45.69zM147.406 78.87h96.82v-3.263h-96.82zM147.406 85.397h96.82v-3.263h-96.82z"/>
        <path fill="#00C9C3" d="M95.188 109.874h149.038v-6.527H95.188z"/>
        <path fill="#CDEAE6" d="M95.188 119.121h45.69v-3.263h-45.69zM95.188 125.105h45.69v-3.264h-45.69zM147.406 152.845h96.82v-3.263h-96.82zM95.188 152.845h45.69v-3.263h-45.69zM147.406 158.828h49.498v-3.263h-49.498zM95.188 158.828h45.69v-3.263h-45.69zM173.515 119.121h70.167v-3.263h-70.167zM147.406 119.121h20.67v-3.263h-20.67z"/>
        <path fill="#00C9C3" d="M95.188 143.598h149.038v-6.527H95.188zM95.188 183.305h149.038v-6.527H95.188z"/>
        <path fill="#CDEAE6" d="M146.862 192.552h96.82v-3.263h-96.82zM146.862 198.536h49.498v-3.264h-49.498zM220.837 198.536h3.263v-3.264h-3.263zM225.732 198.536h3.264v-3.264h-3.264zM230.628 198.536h3.263v-3.264h-3.263zM235.523 198.536h3.264v-3.264h-3.264zM240.418 198.536h3.264v-3.264h-3.264zM225.732 158.828h3.264v-3.263h-3.264zM230.628 158.828h3.263v-3.263h-3.263zM235.523 158.828h3.264v-3.263h-3.264zM240.418 158.828h3.264v-3.263h-3.264zM95.188 192.552h45.69v-3.263h-45.69z"/>
        <path fill="#FF7900" d="M219.427 67.448L134.351 95.1l7.393 22.932L226.82 90.38l-7.393-22.932zm-2.036 4.002l5.443 16.885-79.054 25.695-5.442-16.884L217.39 71.45z"/>
        <path fill="#004060" d="M351.984 204.69a3.706 3.706 0 1 0-5.014 5.46 3.706 3.706 0 0 0 5.014-5.46"/>
        <path fill="#118C8C" d="M359.416 196.596a3.706 3.706 0 1 0-5.013 5.461 3.706 3.706 0 0 0 5.013-5.46"/>
        <path fill="#004060" d="M348.36 136.12a3.707 3.707 0 1 0-4.015 6.232 3.707 3.707 0 0 0 4.014-6.232"/>
        <path fill="#118C8C" d="M354.312 126.883a3.706 3.706 0 1 0-4.015 6.23 3.706 3.706 0 0 0 4.015-6.23"/>
        <path fill="#FFF" d="M320.986 105.355c-8.541-.563-15.921 5.903-16.485 14.444-.564 8.54 5.903 15.92 14.443 16.484 8.54.564 15.922-5.902 16.485-14.442.564-8.542-5.903-15.922-14.443-16.486"/>
        <path fill="#006769" d="M307.91 116.501l2.943.668c.53-2.189 1.79-4.292 2.867-5.442l2.01 1.609a11.236 11.236 0 0 0-2.528 4.965c-.612 2.689.059 4.754 1.824 5.155 1.704.387 3.093-.85 4.66-3.441 2.117-3.582 4.085-5.644 6.78-5.03 2.57.584 4.014 3.261 3.687 6.852l3.128.71-.534 2.35-3.004-.684c-.58 2.259-1.428 3.699-2.204 4.677l-2.158-1.681c.554-.711 1.36-1.966 1.912-4.39.663-2.916.043-4.211-1.196-4.494-1.61-.365-2.735.853-4.6 3.894-2.187 3.605-4.245 5.208-7.002 4.581-2.448-.556-4.451-3.202-4.091-7.224l-3.036-.689.542-2.386z"/>
        <path fill="#006769" d="M307.31 119.141l.622-2.732 25.43 5.782-.622 2.732z"/>
        <path fill="#004060" d="M317.529 154.269a3.707 3.707 0 1 0-.488 7.398 3.707 3.707 0 0 0 .488-7.398"/>
        <path fill="#118C8C" d="M318.252 143.304a3.706 3.706 0 1 0-.487 7.396 3.706 3.706 0 0 0 .487-7.396"/>
        <path fill="#118C8C" d="M297.554 226.534h76.073v-81.768h-76.073z"/>
        <path fill="#006769" d="M227.025 226.534h77.25v-81.768h-77.25z"/>
        <g>
            <path fill="#FFF" d="M315.2 152.329v-7.137h-12.604v81.342H315.2v-7.136h-5.042v-67.07z"/>
            <path fill="#58C4C5" d="M276.408 152.329v-7.137h-22.83v7.137h4.345v67.069h-4.345v7.136h22.83v-7.136h-5.041v-67.07z"/>
            <path fill="#9CD8DC" d="M276.408 152.329v-7.137h-11.624v81.342h11.624v-7.136h-5.041v-67.07z"/>
            <path fill="#58C4C5" d="M240.468 152.329v-7.137h-22.83v7.137h4.345v67.069h-4.345v7.136h22.83v-7.136h-5.042v-67.07z"/>
        </g>
        <g>
            <path fill="#FFF" d="M349.65 152.329v-7.137h-12.604v81.342h12.604v-7.136h-5.042v-67.07zM379.847 152.329v-7.137h-12.604v81.342h12.604v-7.136h-5.042v-67.07z"/>
            <path fill="#118C8C" d="M203.445 237.487h189.059v-10.954H203.445z"/>
            <path fill="#58C4C5" d="M297.554 237.487h94.95v-10.954h-94.95z"/>
            <path fill="#006769" d="M184.119 248.294H411.83V237.34H184.12z"/>
        </g>
        <g>
            <path fill="#118C8C" d="M143.598 259.17h285.876v-10.954H143.598z"/>
            <path fill="#58C4C5" d="M326.596 259.17h102.879v-10.954H326.596z"/>
            <path fill="#9CD8DC" d="M240.33 152.329v-7.137h-11.625v81.342h11.625v-7.136h-5.042v-67.07z"/>
            <path fill="#118C8C" d="M337.466 103.055h-76.044l-52.095 42.55h79.824z"/>
            <path fill="#58C4C5" d="M288.311 145.606h96.63l-48.315-42.551z"/>
            <path fill="#424242" d="M247.353 259.447h4.919v-27.219h-4.919z"/>
            <path fill="#424242" d="M236.859 245.838c0 7.516 4.698 13.61 10.494 13.61 5.796 0 10.494-6.094 10.494-13.61 0-7.516-4.698-13.61-10.494-13.61-5.796 0-10.494 6.094-10.494 13.61"/>
            <path fill="#333" d="M241.777 245.838c0 7.516 4.7 13.61 10.495 13.61 5.795 0 10.494-6.094 10.494-13.61 0-7.516-4.699-13.61-10.494-13.61s-10.495 6.094-10.495 13.61"/>
            <path fill="#333" d="M324.614 229.742H170.442v19.563h139.939l14.233-2.869z"/>
            <path fill="#333" d="M303.266 259.447h4.918v-27.219h-4.918z"/>
            <path fill="#333" d="M292.772 245.838c0 7.516 4.698 13.61 10.494 13.61 5.795 0 10.493-6.094 10.493-13.61 0-7.516-4.698-13.61-10.493-13.61-5.796 0-10.494 6.094-10.494 13.61"/>
            <path fill="#424242" d="M297.691 245.838c0 7.516 4.698 13.61 10.493 13.61 5.796 0 10.494-6.094 10.494-13.61 0-7.516-4.698-13.61-10.494-13.61-5.795 0-10.493 6.094-10.493 13.61"/>
            <path fill="#CDEAE6" d="M302.522 245.838c0 4.056 2.535 7.344 5.662 7.344 3.128 0 5.663-3.288 5.663-7.344 0-4.055-2.535-7.344-5.663-7.344-3.127 0-5.662 3.289-5.662 7.344"/>
            <path fill="#58C4C5" d="M175.147 221.193l17.672-6.606 25.469-18.187c1.11-.792 3.113-1.434 4.477-1.434h69.311c2.726 0 6.45 1.61 8.319 3.596l13.38 14.228c.935.992 7.733 1.797 9.097 1.797h1.075c2.777 0 5.028 3.683 5.028 8.227v8.226l1.562 3.128v6.251c0 2.726-2.177 5.314-4.864 5.781l-5.492 1.21c-.602-8.846-5.667-15.753-11.828-15.753-6.565 0-11.888 7.846-11.888 17.523l.002.125h-44.622c0-.043.003-.083.003-.125 0-9.677-5.323-17.523-11.889-17.523-6.565 0-11.888 7.846-11.888 17.523l.002.125h-62.69v-16.783c0-5.452 3.763-9.44 9.764-11.33"/>
            <path fill="#333" d="M234.53 260h4.936v-27.314h-4.936z"/>
            <path fill="#333" d="M224 246.343c0 7.542 4.713 13.657 10.53 13.657 5.816 0 10.53-6.115 10.53-13.657s-4.714-13.656-10.53-13.656c-5.817 0-10.53 6.114-10.53 13.656"/>
            <path fill="#424242" d="M228.935 246.343c0 7.542 4.714 13.657 10.53 13.657 5.817 0 10.53-6.115 10.53-13.657s-4.713-13.656-10.53-13.656c-5.816 0-10.53 6.114-10.53 13.656"/>
            <path fill="#CDEAE6" d="M233.618 246.343c0 4.189 2.618 7.584 5.848 7.584s5.848-3.395 5.848-7.584c0-4.188-2.619-7.584-5.848-7.584-3.23 0-5.848 3.396-5.848 7.584"/>
            <path fill="#424242" d="M183.852 260h4.936v-27.314h-4.936z"/>
            <path fill="#424242" d="M173.321 246.343c0 7.542 4.715 13.657 10.53 13.657 5.817 0 10.531-6.115 10.531-13.657s-4.714-13.656-10.53-13.656c-5.816 0-10.53 6.114-10.53 13.656"/>
            <path fill="#333" d="M178.258 246.343c0 7.542 4.714 13.657 10.53 13.657 5.816 0 10.53-6.115 10.53-13.657s-4.714-13.656-10.53-13.656c-5.816 0-10.53 6.114-10.53 13.656"/>
            <path fill="#9CD8DC" d="M298.596 200.96c-1.749-1.89-5.304-3.065-7.907-3.065h-27.984c-1.05 0-2.342.728-2.886 1.626l-7.663 12.827c-.218.36-.119 1.365.302 1.365h53.303l-.037-4.115-7.128-8.638z"/>
            <path fill="#58C4C5" d="M238.221 225.364c8.536 0 15.457 10.663 15.457 23.816 0 .042-.003.083-.003.125h-1.83l.002-.125c0-9.677-5.322-17.523-11.888-17.523s-11.888 7.846-11.888 17.523l.002.125h-5.306l-.002-.125c0-13.153 6.92-23.816 15.456-23.816"/>
            <path fill="#58C4C5" d="M239.686 229.518c7.217 0 13.066 8.803 13.066 19.662l-.002.125h-.905l.002-.125c0-9.678-5.323-17.522-11.888-17.522-6.565 0-11.888 7.844-11.888 17.522l.002.125h-1.451l-.001-.125c0-10.859 5.849-19.662 13.065-19.662M308.33 229.518c6.422 0 11.7 7.782 12.308 17.735l-.852.158c-.57-8.847-5.366-15.753-11.198-15.753-6.215 0-11.254 7.844-11.254 17.522l.002.125h-1.373l-.002-.125c0-10.859 5.537-19.662 12.368-19.662M275.146 197.022h3.208l4.937 17.565h-4.787z"/>
            <path fill="#303030" d="M195.074 212.461c1.67.593 5.651.648 7.872.652h2.46v1.039h-8.303a2.064 2.064 0 0 1-2.029-1.69"/>
            <path fill="#EF5350" d="M165.382 249.305v-16.783c0-5.452 3.764-9.44 9.765-11.329l17.672-6.606 25.469-18.186c1.11-.792 3.113-1.435 4.476-1.435h38.132c-1.362 0-3.215.814-4.138 1.818l-16.37 17.803-17.671 6.606c-6.001 1.889-9.766 5.877-9.766 11.33v16.782h-47.569z"/>
            <path fill="#006769" d="M165.382 249.305v-16.783c0-5.452 3.764-9.44 9.765-11.329l17.672-6.606 25.469-18.186c1.11-.792 3.113-1.435 4.476-1.435h38.132c-1.362 0-3.215.814-4.138 1.818l-16.37 17.803-17.671 6.606c-6.001 1.889-9.766 5.877-9.766 11.33v16.782h-47.569z"/>
            <path fill="#58C4C5" d="M219.749 249.305c-1.476 0-2.672-1.105-2.672-2.47v-11.434h-54.04v11.435c0 1.364 1.197 2.469 2.673 2.469h54.039z"/>
            <path fill="#FFF" d="M218.487 232.686c2.177 0 3.95-1.365 3.95-3.043v-3.044h-16.455c-2.177 0-3.95 1.365-3.95 3.044v3.043h16.455zM174.226 229.643v3.044h-8.844v-.165c0-2.237.643-4.223 1.805-5.924h3.09c2.178 0 3.949 1.366 3.949 3.045"/>
            <path fill="#9CD8DC" d="M240.333 212.872l12.924-14.133c.367-.403.224-.73-.322-.73h-36.9L194.2 213.6h44.479c.545 0 1.286-.327 1.653-.728"/>
            <path fill="#006769" d="M214.926 232.686h-49.544l-2.468 2.715h50.037z"/>
            <path fill="#005960" d="M5.544 117.197h103.041a5.544 5.544 0 0 1 5.544 5.544v130.942a5.544 5.544 0 0 1-5.544 5.544H5.544A5.544 5.544 0 0 1 0 253.683V122.741a5.544 5.544 0 0 1 5.544-5.544"/>
            <path fill="#FFF" d="M7.603 160.318h98.92v-30.44H7.603z"/>
            <path fill="#FF7900" d="M83.688 249.086h22.835v-50.724H83.688z"/>
            <path fill="#00756F" d="M7.603 193.283h20.295V170.46H7.603zM32.965 193.283H53.26V170.46H32.965zM58.326 193.283h20.296V170.46H58.326z"/>
            <path fill="#FFFEF9" d="M83.688 193.283h22.835V170.46H83.688z"/>
            <path fill="#00756F" d="M7.603 221.184h20.295v-22.822H7.603zM32.965 221.184H53.26v-22.822H32.965zM58.326 221.184h20.296v-22.822H58.326zM7.603 249.082h20.295v-22.835H7.603zM32.965 249.082H53.26v-22.835H32.965zM58.326 249.082h20.296v-22.835H58.326z"/>
        </g>
    </g>
</svg>
