<svg xmlns="http://www.w3.org/2000/svg" xmlns:xlink="http://www.w3.org/1999/xlink" width="450" height="210" viewBox="0 0 450 210">
    <defs>
        <path id="a" d="M0 0h450v210H0z"/>
        <path id="c" d="M9.562.169v9.403H.15v9.543h9.41v9.402h9.551v-9.402h9.411V9.572h-9.41V.169z"/>
        <path id="e" d="M8.567.024C3.885.024.09 3.815.09 8.493v28.811c0 4.677 3.794 8.47 8.476 8.47H37.4c4.681 0 8.476-3.793 8.476-8.47V8.493c0-4.678-3.795-8.469-8.476-8.469H8.567z"/>
        <path id="g" d="M8.567.024C3.885.024.09 3.815.09 8.493v28.811c0 4.677 3.794 8.47 8.476 8.47H37.4c4.681 0 8.476-3.793 8.476-8.47V8.493c0-4.678-3.795-8.469-8.476-8.469H8.567z"/>
        <path id="i" d="M8.567.024C3.885.024.09 3.815.09 8.493v28.811c0 4.677 3.794 8.47 8.476 8.47H37.4c4.681 0 8.476-3.793 8.476-8.47V8.493c0-4.678-3.795-8.469-8.476-8.469H8.567z"/>
        <path id="k" d="M8.567.024C3.885.024.09 3.815.09 8.493v28.811c0 4.677 3.794 8.47 8.476 8.47H37.4c4.681 0 8.476-3.793 8.476-8.47V8.493c0-4.678-3.795-8.469-8.476-8.469H8.567z"/>
        <path id="m" d="M8.567.024C3.885.024.09 3.815.09 8.493v28.811c0 4.677 3.794 8.47 8.476 8.47H37.4c4.681 0 8.476-3.793 8.476-8.47V8.493c0-4.678-3.795-8.469-8.476-8.469"/>
        <path id="o" d="M8.567.024C3.885.024.09 3.815.09 8.493v28.811c0 4.677 3.794 8.47 8.476 8.47H37.4c4.681 0 8.476-3.793 8.476-8.47V8.493c0-4.678-3.795-8.469-8.476-8.469H8.567z"/>
        <path id="q" d="M8.567.024C3.885.024.09 3.815.09 8.493v28.811c0 4.677 3.794 8.47 8.476 8.47H37.4c4.681 0 8.476-3.793 8.476-8.47V8.493c0-4.678-3.795-8.469-8.476-8.469H8.567z"/>
        <path id="s" d="M8.567.024C3.885.024.09 3.815.09 8.493v28.811c0 4.677 3.794 8.47 8.476 8.47H37.4c4.681 0 8.476-3.793 8.476-8.47V8.493c0-4.678-3.795-8.469-8.476-8.469H8.567z"/>
        <path id="u" d="M8.567.024C3.885.024.09 3.815.09 8.493v28.811c0 4.677 3.794 8.47 8.476 8.47H37.4c4.681 0 8.476-3.793 8.476-8.47V8.493c0-4.678-3.795-8.469-8.476-8.469"/>
        <path id="w" d="M8.567.024C3.885.024.09 3.815.09 8.493v28.811c0 4.677 3.794 8.47 8.476 8.47H37.4c4.681 0 8.476-3.793 8.476-8.47V8.493c0-4.678-3.795-8.469-8.476-8.469H8.567z"/>
        <path id="y" d="M.192.247h32.834v50.899H.192z"/>
        <path id="A" d="M.147.247h39.785v50.899H.147z"/>
    </defs>
    <g fill="none" fill-rule="evenodd">
        <mask id="b" fill="#fff">
            <use xlink:href="#a"/>
        </mask>
        <use fill="#00A7A7" xlink:href="#a"/>
        <g mask="url(#b)">
            <path fill="#009792" d="M221.329 122.754V95.672h51.649v114.016h-65.601v-86.934h13.952zM396.137 116.725l8.505-3.248 13.591 5.19v91.021h-99.361v-83.237h41.34V73.49h35.925v43.235zm-101.503 92.963h-11.687v-83.237h35.924v83.237h-24.237zm24.238-83.237h-24.236v-7.784l12.118-5.19 12.118 5.19v7.784z"/>
            <path fill="#139296" d="M244.184 108.947h5.941v-2.741h-5.941zM244.184 113.97h5.941v-2.74h-5.941zM244.184 118.994h5.941v-2.74h-5.941zM239.61 110.316h.917v-4.11h-.916zM240.983 110.316h.914v-4.11h-.914zM239.61 115.34h.917v-4.11h-.916zM240.983 115.34h.914v-4.11h-.914zM239.61 120.365h.917v-4.11h-.916zM240.983 120.365h.914v-4.11h-.914zM252.41 110.316h.915v-4.11h-.915zM253.781 110.316h.915v-4.11h-.915zM252.41 115.34h.915v-4.11h-.915zM253.781 115.34h.915v-4.11h-.915zM252.41 120.365h.915v-4.11h-.915zM253.781 120.365h.915v-4.11h-.915zM257.437 108.947h3.202v-2.741h-3.202zM262.466 108.947h5.942v-2.741h-5.942zM257.437 114.427h3.202v-2.741h-3.202zM262.466 114.427h5.942v-2.741h-5.942zM257.437 119.908h3.202v-2.74h-3.202zM262.466 119.908h5.942v-2.74h-5.942zM234.013 108.947h3.199v-2.741h-3.199zM226.243 108.947h5.941v-2.741h-5.941zM234.013 114.427h3.199v-2.741h-3.199zM226.243 114.427h5.941v-2.741h-5.941zM234.013 119.908h3.199v-2.74h-3.199zM226.243 119.908h5.941v-2.74h-5.941z"/>
            <path fill="#58C4C5" d="M31.767 209.688h175.61V23H31.767z"/>
            <path fill="#71D8B8" d="M293.257 69.402c0 22.53 18.283 40.793 40.837 40.793 22.554 0 40.837-18.264 40.837-40.793 0-22.53-18.283-40.792-40.837-40.792-22.554 0-40.837 18.263-40.837 40.792"/>
            <path fill="#71D8B8" d="M338.309 96.167l-45.612 13.213 15.344-42.469z"/>
            <path fill="#FF7900" d="M303.717 156.98c0 15.988 12.975 28.95 28.98 28.95 16.007 0 28.982-12.962 28.982-28.95s-12.975-28.949-28.981-28.949-28.98 12.961-28.98 28.95"/>
            <path fill="#FF7900" d="M314.564 165.046l-17.673-28.673 31.975 2.453z"/>
            <path fill="#006769" d="M73.794 96.295h55.91v-7.62h-55.91z"/>
            <path fill="#118C8C" d="M73.794 110.126h55.91v-7.62h-55.91z"/>
            <path fill="#FFF" d="M115.811 50.304h-9.41v-9.403h-9.55v9.403h-9.412v9.543h9.411v9.403h9.55v-9.403h9.411z"/>
            <g transform="translate(87.288 40.733)">
                <mask id="d" fill="#fff">
                    <use xlink:href="#c"/>
                </mask>
                <path fill="#FFF" d="M.151 28.517h28.372V.17H.151z" mask="url(#d)"/>
            </g>
            <g>
                <path fill="#118C8C" d="M149.626 89.178h36.109v3.126h-36.109zM146.646 118.19h14.221v-14.21h-14.221zM170.58 118.19H184.8v-14.21H170.58z"/>
                <path fill="#CDEAE6" d="M180.835 79.026H152c-4.681 0-8.476-3.792-8.476-8.47v-28.81c0-4.678 3.795-8.47 8.476-8.47h28.835c4.68 0 8.475 3.792 8.475 8.47v28.81c0 4.678-3.794 8.47-8.475 8.47"/>
            </g>
            <g transform="translate(143.433 33.253)">
                <mask id="f" fill="#fff">
                    <use xlink:href="#e"/>
                </mask>
                <path fill="#71D8B8" d="M36.417 39.266l-2.075-1.302 6.477-2.886-2.681-6.1c-1.24-2.602-4.442-4.712-7.5-4.714H17.302c-3.058.002-6.26 2.112-7.5 4.713l-2.681 6.1 6.477 2.887-2.076 1.302-1.15 9.914 13.598-.213 13.597.213-1.15-9.914z" mask="url(#f)"/>
                <mask id="h" fill="#fff">
                    <use xlink:href="#g"/>
                </mask>
                <path fill="#FAB08A" d="M40.82 35.077l1.335 4.414c.976 3.22-.065 6.677-2.696 8.957l-6.067 4.734-1.95-5.298 3.355-3.128c1.102-1.027 1.43-2.57.832-3.91l-1.288-2.882 6.478-2.887z" mask="url(#h)"/>
                <mask id="j" fill="#fff">
                    <use xlink:href="#i"/>
                </mask>
                <path fill="#FAB08A" d="M14.331 63.492l-5.403.734-1.04-1.142.528-2.07 5.192-.748z" mask="url(#j)"/>
                <mask id="l" fill="#fff">
                    <use xlink:href="#k"/>
                </mask>
                <path fill="#FFF" d="M8.928 64.226l-6.8.837s-6.695.868-5.73-2.817c.932-3.56 6.94-1.98 6.94-1.98l5.59.675c-.672.913-.703 2.222-.077 3.168l.077.117z" mask="url(#l)"/>
                <mask id="n" fill="#fff">
                    <use xlink:href="#m"/>
                </mask>
                <path fill="#FFF" d="M-3.603 62.246c.377-1.433 1.574-2.032 2.872-2.238v5.077c-1.684-.189-3.392-.851-2.872-2.839" mask="url(#n)"/>
                <mask id="p" fill="#fff">
                    <use xlink:href="#o"/>
                </mask>
                <path fill="#FAB08A" d="M7.188 35.077l-1.336 4.414c-.976 3.22.066 6.677 2.696 8.957l6.067 4.734 1.951-5.298-3.356-3.128c-1.102-1.027-1.43-2.57-.831-3.91l1.287-2.882-6.478-2.887z" mask="url(#p)"/>
                <mask id="r" fill="#fff">
                    <use xlink:href="#q"/>
                </mask>
                <path fill="#FAB08A" d="M34.19 63.897l5.495.329 1.04-1.142-.529-2.07-5.193-.748z" mask="url(#r)"/>
                <g>
                    <mask id="t" fill="#fff">
                        <use xlink:href="#s"/>
                    </mask>
                    <path fill="#FFF" d="M39.685 64.226l6.8.837s6.695.868 5.73-2.817c-.932-3.56-6.942-1.98-6.942-1.98l-5.588.675c.67.913.702 2.222.076 3.168l-.076.117z" mask="url(#t)"/>
                </g>
                <g>
                    <mask id="v" fill="#fff">
                        <use xlink:href="#u"/>
                    </mask>
                    <path fill="#FFF" d="M52.214 62.246c-.375-1.433-1.573-2.032-2.87-2.238v5.077c1.683-.189 3.39-.851 2.87-2.839" mask="url(#v)"/>
                </g>
                <mask id="x" fill="#fff">
                    <use xlink:href="#w"/>
                </mask>
                <path fill="#C0ABC3" d="M13.693 55.5h22.415v-1.118H13.693z" mask="url(#x)"/>
                <path fill="#FFF" d="M24.003 47.005a.896.896 0 1 0 1.793-.001.896.896 0 0 0-1.793.001" mask="url(#x)"/>
                <path fill="#1C2C57" d="M52.154 51.364c4.479 7.97-40.624 12.862-40.624 12.862l-.765-3.55s35.867-19.14 41.39-9.312" mask="url(#x)"/>
                <path fill="#004472" d="M-3.542 51.364C-7.346 59.677 37.457 64.66 37.457 64.66l.333-3.993S.956 41.536-3.542 51.364" mask="url(#x)"/>
                <path fill="#F79C82" d="M26.332 24.236c-.415-1.257-1.168-4.983-1.168-4.983l-4.8.937v4.067s1.593 1.129 2.933 1.14c1.464.012 3.087-1.02 3.035-1.16" mask="url(#x)"/>
                <path fill="#FAB08A" d="M26.336 12.652l-.905-5.327-9.222 1.09.559 6.138s.712 7.595 5.621 6.691c5.31-.976 4.182-8.66 3.947-8.592" mask="url(#x)"/>
                <path fill="#004472" d="M28.489 11.923c-.123-.646.049-1.655.392-2.216 1.593-2.604-.817-3.361-1.659-3.587-.93-.248-1.225-1.694-2.474-2.156-1.906-.705-2.98 1-4.015 1.132-1.034.132-2.056-.972-3.256.17-1.2 1.14-.686 2.204-.99 2.82-.305.615-1.557-.416-2.466 1.51-.692 1.465.072 2.324 1.008 2.817 1.091.574 2.395.574 3.526.086a15.96 15.96 0 0 0 3.7-2.246c.358-.292 3.173-.486 3.407-.086.793 1.353.858 5.857.858 5.857l.099-.139c.35-.489.74-.946 1.148-1.388a2.882 2.882 0 0 0 .722-2.574" mask="url(#x)"/>
                <path fill="#FAB08A" d="M27.303 13.845a.932.932 0 1 1-1.864-.001.932.932 0 0 1 1.864 0" mask="url(#x)"/>
            </g>
            <g>
                <path fill="#FFF" d="M353.44 53.69c0 12.826 2.7 31.2-19.203 38.66-21.902-7.461-19.201-25.834-19.201-38.66 7.954 0 14.048-2.234 19.201-7.158 5.153 4.924 11.248 7.158 19.203 7.158zm-11.295 12.668h-5.75v-5.682h-3.792v5.682h-5.75v3.696h5.75v5.682h3.792v-5.682h5.75v-3.696z"/>
                <path fill="#33B1AD" d="M52.165 135.171H110.8v-1.988H52.165zM52.165 141.621H110.8v-1.99H52.165zM52.165 148.07H110.8v-1.988H52.165zM52.165 154.52H110.8v-1.989H52.165zM52.165 160.97H110.8v-1.99H52.165zM52.165 167.42H110.8v-1.99H52.165zM52.165 173.869H110.8v-1.989H52.165zM52.165 180.318H110.8v-1.988H52.165zM125.578 189.978h58.635v-1.988h-58.635zM125.578 135.171h58.635v-1.988h-58.635zM125.578 141.621h58.635v-1.99h-58.635zM125.578 148.07h58.635v-1.988h-58.635zM125.578 154.52h58.635v-1.989h-58.635zM125.578 160.97h58.635v-1.99h-58.635zM125.578 167.42h58.635v-1.99h-58.635zM125.578 173.869h58.635v-1.989h-58.635zM125.578 180.318h58.635v-1.988h-58.635z"/>
                <path fill="#58C4C5" d="M230.907 56.037L197.95 37.025v38.023z"/>
            </g>
            <g>
                <path fill="#FAB08A" d="M266.428 93.987l12.631 23.772-13.918-.67-.977-23.868z"/>
                <path fill="#FFF" d="M246.592 83.452l11.668-.015 4.836 75.353h-20.91z"/>
                <g transform="translate(237.32 158.543)">
                    <mask id="z" fill="#fff">
                        <use xlink:href="#y"/>
                    </mask>
                    <path fill="#118C8C" d="M.323.247s-1.96 11.264 9.312 66.622C.51 95.718 15.122 143.99 15.122 143.99h10.653L33.026.247H.323z" mask="url(#z)"/>
                </g>
                <path fill="#FF7900" d="M256.979 83.452l3.784 91.43 12.54-5.365s-5.65-17.163-5.114-41.006c-1.917-17.242 7.873-8.16-4.122-41.357-4.467-3.717-7.088-3.702-7.088-3.702"/>
                <path fill="#F79C82" d="M258.616 74.01l-1.469 7.708c-.646 3.392-4.502 5.073-7.43 3.24l-5.147-3.223 9.189-20.753 4.857 13.027z"/>
                <g transform="translate(220.165 158.543)">
                    <mask id="B" fill="#fff">
                        <use xlink:href="#A"/>
                    </mask>
                    <path fill="#58C4C5" d="M7.228.247S-6.728 11.511 4.545 66.87C-4.581 95.718 3.47 143.99 3.47 143.99h9.562L39.933.247H7.227z" mask="url(#B)"/>
                </g>
                <path fill="#FF7900" d="M246.592 75.706s-11.78 6.615-15.44 12.521c-3.49 5.628-4.698 18.442-5.033 29.847-.461 15.661-8.03 56.808-8.03 56.808h31.578l.788-89.572-3.863-9.604z"/>
                <path fill="#FFEDDC" d="M269.84 50.887c-7.142-1.809-14.012 5.507-14.012 5.507l-5.373 28.916-8.263-12.726s-.472-17.29 7.516-28.74c5.72-6.934 16.698-4.943 22.249 1.8 2.699 3.28 3.262 7.808 3.001 11.974-.352 5.595-1.938 37.705-1.938 37.705l-16.362-12.11s.392-3.266 1.959-9.204c2.694-10.218 16.02-21.907 11.223-23.122"/>
                <path fill="#FAB08A" d="M261.353 75.365c1.328.49 2.63.763 3.494.453 6.212-4.498 8.456-22.467 8.456-22.467l-4.92-5.223-9.797 2.152-4.827 10.702a9.844 9.844 0 0 0 .401 8.885c1.83 2.476 4.303 4.435 7.193 5.498"/>
                <path fill="#FFEDDC" d="M271.476 50.514c-.509 5.435-15.648 5.88-15.648 5.88l-.789-7.358 8.827-4.854 6.985 4.2s.705 1.224.625 2.132"/>
                <path fill="#FFEDDC" d="M271.147 51.569c-.503 2.022 1.547 5.547 1.547 5.547l1.205-2.174-.033-1.883-1.19-1.468s-1.026-2.046-1.53-.022"/>
                <path fill="#FAB08A" d="M234.372 88.227c-15.28 1.782-8.063 41.168-4.78 57.34.808 3.98 4.881 6.409 8.757 5.188 13.295-4.19 32.718-21.589 32.718-21.589l-3.078-3.872-25.803 6.018s9.9-45.151-7.814-43.085"/>
                <path fill="#004060" d="M264.941 116.045l-4.99 30.859a1.47 1.47 0 0 0 1.453 1.704h19.754a1.47 1.47 0 0 0 1.453-1.24l4.901-30.858a1.47 1.47 0 0 0-1.453-1.7h-19.666a1.47 1.47 0 0 0-1.452 1.235"/>
                <path fill="#FAB08A" d="M286.865 129.708c.122-1.085.019-1.764-.343-4.009-.471-2.92-.348-7.491-3.33-5.213-2.82 3.534-3.148 7.292-3.148 7.292-.574 2.073.697 4.955 1.883 6.518l2.052 4.465s3.54-4.117 2.886-9.053"/>
            </g>
            <path fill="#FFF" d="M324.098 147.096c4.868-.986 7.026 2.23 7.623 3.354.597-1.125 2.75-4.315 7.624-3.354 6.798 1.343 5.855 9.026 5.855 9.026s.821 6.087-12.381 14.08c-.358.216-.686.426-1.005.629v.107c-.004.001-.005.004-.01.004l-.083-.053-.008.004a7.086 7.086 0 0 1-.085.009v-.071c-.318-.203-.646-.413-1.003-.63-13.204-7.992-12.382-14.08-12.382-14.08s-.997-7.635 5.855-9.025"/>
        </g>
    </g>
</svg>
