<?xml version="1.0" encoding="UTF-8"?>
<svg width="16px" height="16px" viewBox="0 0 16 16" version="1.1" xmlns="http://www.w3.org/2000/svg" xmlns:xlink="http://www.w3.org/1999/xlink">
    <!-- Generator: sketchtool 52.4 (67378) - http://www.bohemiancoding.com/sketch -->
    <title>786880A0-AE4E-4A7B-B7D2-16E05785280C</title>
    <desc>Created with sketchtool.</desc>
    <g id="Symbols" stroke="none" stroke-width="1" fill="none" fill-rule="evenodd">
        <g id="footer_new" transform="translate(-790.000000, -91.000000)" fill="#FFFFFE">
            <g id="Group-31" transform="translate(642.000000, 87.000000)">
                <path d="M161.63437,17.6337778 L159.262222,17.6337778 L159.262222,13.9202963 C159.262222,13.0346667 159.246519,11.8957037 158.029037,11.8957037 C156.794074,11.8957037 156.60563,12.861037 156.60563,13.8568889 L156.60563,17.6337778 L154.233481,17.6337778 L154.233481,9.99822222 L156.50963,9.99822222 L156.50963,11.0423704 L156.542222,11.0423704 C156.858963,10.4417778 157.633185,9.80888889 158.787556,9.80888889 C161.190815,9.80888889 161.63437,11.3899259 161.63437,13.4459259 L161.63437,17.6337778 Z M151.558222,8.95496296 C150.79763,8.95496296 150.182815,8.33837037 150.182815,7.57925926 C150.182815,6.81925926 150.79763,6.20266667 151.558222,6.20266667 C152.316741,6.20266667 152.933333,6.81925926 152.933333,7.57925926 C152.933333,8.33837037 152.316741,8.95496296 151.558222,8.95496296 Z M150.371259,17.6337778 L152.745185,17.6337778 L152.745185,9.99822222 L150.371259,9.99822222 L150.371259,17.6337778 Z M162.816,4 L149.180741,4 C148.529481,4 148,4.51674074 148,5.15377778 L148,18.8456296 C148,19.4826667 148.529481,20 149.180741,20 L162.816,20 C163.468741,20 163.999407,19.4826667 163.999407,18.8456296 L163.999407,5.15377778 C163.999407,4.51674074 163.468741,4 162.816,4 Z" id="Fill-4"></path>
            </g>
        </g>
    </g>
</svg>