<svg xmlns="http://www.w3.org/2000/svg" width="197" height="50" viewBox="0 0 197 50">
    <g fill="none">
        <path fill="#FFF" d="M74.205 7.615h1.14v5.282h-1.14v-.762c-.424.594-1.122.932-1.851.897-.706.012-1.383-.276-1.863-.794-1.027-1.115-1.027-2.83 0-3.944.48-.516 1.158-.805 1.863-.794.727-.035 1.424.3 1.85.889v-.774zm-2.868 3.85c.667.634 1.716.634 2.383 0 .636-.68.636-1.737 0-2.417-.667-.635-1.716-.635-2.383 0-.63.682-.63 1.734 0 2.416zM79.455 7.476c.55-.022 1.085.19 1.47.584.39.433.592 1.004.56 1.587v3.242h-1.14V9.762c.022-.333-.093-.661-.318-.909-.234-.217-.546-.332-.866-.317-.365-.01-.718.134-.973.397-.269.318-.402.73-.369 1.146v2.83h-1.144V7.615h1.144v.675c.357-.548.984-.86 1.636-.814zM89.869 5.504L91.085 5.504 91.085 12.897 90.135 12.897 86.644 7.881 86.644 12.897 85.429 12.897 85.429 5.504 86.358 5.504 89.869 10.556zM97.376 5.504L97.376 6.663 95.291 6.663 95.291 12.897 94.075 12.897 94.075 6.663 91.982 6.663 91.982 5.504zM103.02 12.33c-1.183.936-2.856.936-4.04 0-.53-.48-.822-1.17-.794-1.886v-4.94h1.216v4.869c-.019.397.124.785.397 1.075.326.29.756.434 1.191.397.435.037.866-.106 1.192-.397.274-.289.417-.677.397-1.075V5.504h1.215v4.94c.033.712-.25 1.402-.774 1.885zM108.696 13.032c-1.604-.001-3.037-.999-3.595-2.5-.558-1.502-.122-3.192 1.093-4.238 1.215-1.045 2.952-1.226 4.356-.453.553.3 1.011.747 1.327 1.29l-1.057.611c-.198-.367-.497-.67-.861-.873-.386-.216-.821-.327-1.263-.321-.717-.028-1.412.244-1.919.75-.979 1.078-.979 2.723 0 3.801.862.8 2.134.972 3.178.429.364-.199.661-.501.854-.87l1.056.6c-.31.545-.765.993-1.315 1.294-.565.319-1.205.485-1.854.48zM118.041 13.032c-.638.02-1.268-.148-1.811-.484-.488-.312-.855-.781-1.04-1.33l1.044-.615c.244.796 1.009 1.314 1.839 1.246.364.027.727-.066 1.033-.266.22-.165.347-.427.341-.702.007-.28-.133-.541-.37-.69-.414-.227-.856-.402-1.314-.52l-.846-.318c-.247-.094-.482-.218-.699-.369-.233-.155-.42-.368-.544-.619-.124-.271-.185-.567-.179-.865-.025-.6.232-1.177.695-1.56.475-.386 1.072-.59 1.684-.575 1.11-.03 2.128.613 2.578 1.627l-1.025.591c-.238-.644-.865-1.063-1.553-1.035-.302-.016-.6.072-.846.25-.21.157-.329.408-.317.67-.01.253.112.493.321.635.372.22.773.386 1.192.492l.608.23.556.207c.192.066.373.163.536.285.14.117.272.242.397.373.134.148.231.325.286.516.058.212.086.431.083.651.025.614-.243 1.203-.723 1.587-.552.417-1.235.625-1.926.588zM124.142 13.032c-.743.018-1.46-.269-1.986-.794-1.086-1.092-1.086-2.856 0-3.948 1.103-1.081 2.869-1.081 3.972 0 1.08 1.095 1.08 2.853 0 3.948-.525.526-1.243.814-1.986.794zm-1.172-1.588c.652.635 1.691.635 2.343 0 .634-.667.634-1.713 0-2.38-.652-.635-1.69-.635-2.343 0-.633.667-.633 1.713 0 2.38zM130.465 13.032c-1.536 0-2.78-1.244-2.78-2.778s1.244-2.778 2.78-2.778c.494-.005.98.123 1.406.373.407.23.737.576.95.992l-.982.568c-.118-.25-.31-.457-.548-.596-.255-.146-.544-.22-.838-.214-.438-.01-.86.161-1.168.472-.637.666-.637 1.716 0 2.381.535.51 1.341.612 1.986.25.251-.134.457-.34.592-.59l.98.559c-.22.42-.556.768-.968 1.004-.43.243-.917.366-1.41.357zM134.782 6.607c-.134.138-.32.215-.512.214-.4-.004-.725-.326-.731-.726-.002-.192.074-.376.21-.512.135-.143.324-.222.52-.218.196-.004.384.075.517.218.138.134.214.32.21.512.002.193-.076.378-.214.512zm-1.084 6.29V7.615h1.14v5.282h-1.14zM140.347 7.615h1.143v5.282h-1.143v-.762c-.423.596-1.121.934-1.851.897-.705.012-1.381-.277-1.859-.794-1.027-1.115-1.027-2.83 0-3.944.48-.516 1.155-.804 1.859-.794.728-.037 1.425.298 1.85.889v-.774zm-2.864 3.85c.666.636 1.717.636 2.383 0 .636-.68.636-1.737 0-2.417-.666-.637-1.717-.637-2.383 0-.636.68-.636 1.736 0 2.416zM142.821 12.897L142.821 5.187 143.961 5.187 143.961 12.897zM149.216 11.734L152.492 11.734 152.492 12.897 148 12.897 148 5.504 152.441 5.504 152.441 6.663 149.216 6.663 149.216 8.587 152.175 8.587 152.175 9.738 149.216 9.738zM156.31 7.476c.55-.022 1.084.19 1.469.584.39.433.592 1.004.56 1.587v3.242h-1.14V9.762c.021-.333-.093-.661-.318-.909-.234-.217-.546-.332-.866-.317-.365-.01-.719.134-.973.397-.27.318-.405.73-.373 1.146v2.83h-1.14V7.615h1.14v.675c.358-.549.986-.86 1.64-.814zM162.513 8.73h-1.31v2.536c-.016.17.038.34.15.468.122.105.277.161.437.159h.723v1.024c-.874.103-1.5.027-1.879-.227-.397-.257-.571-.73-.571-1.42V8.73h-.974V7.631h.974V6.492l1.14-.341v1.48h1.31v1.1zM164.503 10.742c.065.372.273.704.58.925.327.221.717.334 1.112.321.537.033 1.053-.215 1.362-.655l.942.548c-.515.765-1.395 1.202-2.316 1.15-.773.033-1.526-.254-2.081-.793-.528-.523-.816-1.241-.795-1.984-.016-.742.27-1.458.795-1.984.53-.534 1.258-.822 2.01-.794.723-.02 1.42.277 1.906.814.497.54.765 1.25.747 1.984-.005.16-.02.318-.044.476l-4.218-.008zm0-.929h3.106c-.09-.76-.747-1.325-1.513-1.301-.383-.012-.757.112-1.057.35-.29.241-.485.579-.548.951h.012zM170.898 8.504c.271-.646.929-1.044 1.628-.984v1.234c-.407-.035-.812.076-1.144.313-.345.285-.526.722-.484 1.167v2.663h-1.14V7.615h1.14v.889zM176.347 7.476c.704-.013 1.38.276 1.859.794 1.032 1.112 1.032 2.832 0 3.944-.479.517-1.155.806-1.86.794-.726.037-1.423-.296-1.85-.885v2.861h-1.14V7.615h1.14v.762c.422-.596 1.12-.936 1.85-.9zm-1.374 3.988c.667.635 1.715.635 2.383 0 .63-.682.63-1.734 0-2.416-.668-.635-1.716-.635-2.383 0-.637.68-.637 1.736 0 2.416zM181.172 8.504c.272-.646.93-1.044 1.629-.984v1.234c-.407-.035-.812.076-1.144.313-.345.285-.526.722-.485 1.167v2.663h-1.14V7.615h1.14v.889zM184.731 6.607c-.283.285-.743.287-1.029.004-.285-.283-.286-.743-.003-1.028.136-.14.323-.218.518-.218s.382.078.518.218c.136.136.213.32.213.512s-.077.377-.213.512h-.004zm-1.084 6.29V7.615h1.14v5.282h-1.14zM187.134 9.067c.012.179.127.334.294.397.225.115.46.208.703.278l.838.258c.284.087.535.259.719.492.481.665.35 1.59-.298 2.095-.43.303-.948.455-1.473.433-.469.013-.933-.099-1.343-.326-.363-.206-.648-.525-.814-.908l.985-.572c.166.504.664.823 1.191.762.6 0 .898-.198.898-.591-.014-.176-.126-.33-.29-.397-.223-.118-.457-.214-.699-.286l-.842-.258c-.282-.083-.532-.249-.719-.476-.2-.244-.305-.553-.294-.869-.018-.463.189-.907.556-1.19.394-.303.881-.46 1.378-.445.417-.01.828.092 1.192.294.337.18.613.457.794.794l-.96.54c-.17-.393-.57-.636-.998-.604-.192-.007-.383.043-.548.143-.17.076-.278.25-.27.436zM191.88 10.742c.066.373.276.705.584.925.326.221.714.334 1.108.321.538.034 1.054-.214 1.363-.655l.941.548c-.513.766-1.394 1.204-2.316 1.15-.773.032-1.525-.255-2.08-.793-.529-.523-.816-1.241-.795-1.984-.017-.742.27-1.458.794-1.984.53-.533 1.259-.82 2.01-.794.724-.02 1.42.277 1.906.814.5.538.767 1.25.747 1.984-.002.16-.017.319-.044.476l-4.218-.008zm0-.929h3.11c-.049-.379-.239-.726-.532-.972-.28-.219-.626-.335-.981-.33-.382-.01-.757.113-1.056.35-.292.242-.488.58-.553.952h.012zM59.521 18.75L59.521 42.917 55.545 42.917 55.545 25.69 48.186 37.845 47.705 37.841 40.341 25.655 40.341 42.917 36.37 42.917 36.37 18.75 40.655 18.75 47.951 30.833 55.267 18.75zM71.54 43.369c-2.423.044-4.759-.905-6.462-2.627-3.55-3.574-3.55-9.339 0-12.913 3.603-3.497 9.336-3.497 12.94 0 2.63 2.601 3.42 6.536 1.998 9.95-1.423 3.413-4.775 5.624-8.476 5.59m-3.837-5.159c2.139 2.069 5.534 2.069 7.673 0 2.072-2.19 2.072-5.615 0-7.805-2.139-2.069-5.534-2.069-7.673 0-2.072 2.19-2.072 5.615 0 7.805M92.542 25.206c1.799-.072 3.544.618 4.806 1.901 1.22 1.267 1.831 3.005 1.831 5.214v10.596h-3.733V32.698c0-1.288-.346-2.277-1.037-2.968-.762-.718-1.786-1.092-2.832-1.036-1.183-.05-2.334.395-3.177 1.227-.795.817-1.192 2.066-1.192 3.746v9.25h-3.733V25.655h3.733v2.21c1.128-1.77 2.913-2.656 5.354-2.659M105.498 35.877c.219 1.215.9 2.298 1.903 3.02 1.067.725 2.336 1.093 3.626 1.051 1.983 0 3.47-.713 4.46-2.138l3.074 1.793c-1.705 2.508-4.227 3.763-7.566 3.766-2.812 0-5.081-.858-6.807-2.575-1.73-1.717-2.67-4.074-2.594-6.508-.063-2.415.86-4.752 2.558-6.473 1.702-1.738 3.89-2.607 6.565-2.607 2.368-.069 4.647.903 6.236 2.66 1.618 1.755 2.493 4.07 2.439 6.455-.012.521-.059 1.041-.14 1.556h-13.754zm-.035-3.04h10.16c-.289-2.485-2.439-4.333-4.942-4.246-1.25-.043-2.476.36-3.455 1.14-.941.79-1.567 1.893-1.763 3.106M132.987 25.655h3.972l-6.637 17.817c-1.658 4.466-4.468 6.582-8.432 6.35v-3.489c1.005.115 2.016-.15 2.836-.742.81-.71 1.417-1.622 1.76-2.643l.174-.345-7.324-16.952h4.075l5.163 12.532 4.413-12.528z"/>
        <path fill="#FF9C39" d="M159.923 39.726c-4.251 4.313-10.963 5.02-16.02 1.685-5.057-3.334-7.048-9.777-4.75-15.379 2.296-5.601 8.238-8.798 14.183-7.629 5.946 1.17 10.233 6.377 10.234 12.43.066 3.34-1.254 6.56-3.647 8.893m-14.997-2.694c3.398 3.291 8.799 3.291 12.197 0 3.294-3.476 3.294-8.918 0-12.393-3.398-3.292-8.799-3.292-12.197 0-3.294 3.475-3.294 8.917 0 12.393M186.582 25.655L190.522 25.655 185.097 42.917 181.435 42.917 177.773 31.135 174.107 42.917 170.147 42.917 165.123 25.655 169.07 25.655 172.415 37.567 176.045 25.655 179.62 25.655 183.21 37.563zM193.068 17.714H196.80100000000002V42.916H193.068z"/>
        <path fill="#066360" d="M3.606 42.095H32.449V43.095H3.606zM32.445 39.972L32.445 42.095 3.602 42.095 3.602 39.972 13.425 39.972 28.263 39.972z"/>
        <path fill="#00C5C4" d="M27.155 3.877c.408-.24.92-.215 1.304.063.383.278.565.756.463 1.219-.083.397-.17.793-.266 1.143-.523 1.969-.683 4.017-.472 6.043.054.497.08.996.08 1.496v26.131h-14.84C5.8 36.542.892 28.967.883 20.612v-6.77c0-.503.027-1.005.083-1.505.211-2.026.051-4.074-.472-6.043C.396 5.929.31 5.552.225 5.159c-.101-.463.08-.941.464-1.22.384-.277.895-.302 1.304-.062.397.234.822.46 1.239.659.534.26 1.175.148 1.589-.278 2.568-2.622 6.086-4.1 9.758-4.1 3.673 0 7.19 1.478 9.759 4.1.414.425 1.054.538 1.589.282.417-.203.834-.429 1.239-.663m1.072 36.071V21.575c-2.397 1.908-3.962 4.668-4.369 7.703-.427 3.44.728 6.89 3.142 9.38l1.227 1.29zm-2.025-26.932c.001-2.909-2.09-5.398-4.957-5.9-2.868-.504-5.682 1.125-6.673 3.86-.99-2.735-3.804-4.364-6.672-3.86-2.867.502-4.958 2.991-4.957 5.9 0 6.817.663 12.341 11.63 12.341 10.362 0 11.629-5.524 11.629-12.341"/>
        <path fill="#FF9C39" d="M28.227 21.575v18.373l-1.211-1.29c-2.414-2.49-3.57-5.94-3.142-9.38.407-3.035 1.972-5.795 4.37-7.703"/>
        <path fill="#FFF" d="M20.208 7.032c1.591-.003 3.118.626 4.245 1.748 1.126 1.122 1.76 2.646 1.76 4.236 0 6.817-1.266 12.341-11.629 12.341-10.966 0-11.629-5.524-11.629-12.341-.001-2.909 2.09-5.398 4.957-5.9 2.868-.504 5.682 1.125 6.672 3.86.861-2.368 3.114-3.945 5.636-3.944m-3.574 10.75c.119-.226.084-.502-.088-.69l-1.588-1.687c-.105-.107-.248-.167-.398-.167-.149 0-.292.06-.397.167l-1.588 1.686c-.173.19-.206.466-.084.69l1.08 2.009c.2.368.585.597 1.003.597.42 0 .804-.23 1.003-.597l1.057-2.008z"/>
        <path fill="#066360" d="M20.38 11.44c.934 0 1.691.757 1.691 1.691s-.757 1.69-1.692 1.69c-.934 0-1.692-.756-1.692-1.69 0-.934.758-1.69 1.692-1.69"/>
        <path fill="#FF9C39" d="M16.558 17.091c.172.19.207.465.088.69l-1.08 2.009c-.2.368-.585.597-1.003.597-.42 0-.804-.23-1.003-.597l-1.08-2.008c-.123-.225-.09-.502.083-.69l1.588-1.687c.105-.107.248-.167.398-.167.149 0 .292.06.397.167l1.612 1.686z"/>
        <path fill="#066360" d="M9.064 11.44c.934 0 1.692.757 1.692 1.691s-.758 1.69-1.692 1.69c-.935 0-1.692-.756-1.692-1.69 0-.448.178-.878.495-1.195.317-.317.748-.496 1.197-.496"/>
    </g>
</svg>
