<svg width="188" height="35" viewBox="0 0 188 35" fill="none" xmlns="http://www.w3.org/2000/svg">
    <g clip-path="url(#a)">
        <path d="M20.478 28.833H2.644v2.148h20.858v-2.148h-3.024z" fill="#066360"/>
        <path d="M19.627 2.692a.866.866 0 0 1 1.286.929c-.06.285-.125.561-.193.828a11.998 11.998 0 0 0-.344 4.376c.04.36.059.72.059 1.083v18.925H9.63C4.251 26.421.497 21.045.497 14.811V9.903c0-.364.02-.727.06-1.089a11.996 11.996 0 0 0-.344-4.366C.144 4.178.08 3.905.02 3.619a.868.868 0 0 1 1.288-.927c.293.168.597.332.902.478a1.006 1.006 0 0 0 1.15-.202 9.989 9.989 0 0 1 14.211 0 1.009 1.009 0 0 0 1.152.202c.307-.153.614-.307.904-.48v.002zm.808 26.141V15.53c-1.769 1.448-2.879 3.399-3.157 5.578-.306 2.48.496 4.892 2.28 6.793l.877.932z" fill="#00A7A7"/>
        <path d="M20.435 15.49v13.385l-.877-.94c-1.783-1.904-2.592-4.324-2.278-6.81a8.597 8.597 0 0 1 3.155-5.594" fill="#FF9C39"/>
        <path d="M14.536 4.954a4.354 4.354 0 0 1 4.348 4.358c0 4.962-.92 8.985-8.435 8.985-7.957 0-8.435-4.023-8.435-8.985a4.346 4.346 0 0 1 8.435-1.486 4.348 4.348 0 0 1 4.087-2.872z" fill="#fff"/>
        <path d="M14.66 8.174a1.227 1.227 0 1 1 0 2.455 1.227 1.227 0 0 1 0-2.455" fill="#066360"/>
        <path d="M11.861 12.286a.426.426 0 0 1 .062.491l-.767 1.433a.809.809 0 0 1-1.426 0l-.767-1.433a.43.43 0 0 1 .061-.49l1.135-1.206a.398.398 0 0 1 .577 0l1.125 1.205z" fill="#FF9C39"/>
        <path d="M6.452 8.174a1.227 1.227 0 1 1 0 2.454 1.227 1.227 0 0 1 0-2.454" fill="#066360"/>
        <path d="M98.806 7.952h.828v3.834h-.828v-.552a1.553 1.553 0 0 1-1.342.652 1.798 1.798 0 0 1-1.35-.586 2.113 2.113 0 0 1 0-2.865 1.805 1.805 0 0 1 1.35-.583 1.557 1.557 0 0 1 1.342.645v-.545zm-2.086 2.796a1.253 1.253 0 0 0 1.733 0 1.29 1.29 0 0 0 0-1.756 1.248 1.248 0 0 0-1.733 0 1.29 1.29 0 0 0 0 1.756zM102.609 7.852a1.416 1.416 0 0 1 1.074.422 1.61 1.61 0 0 1 .406 1.158v2.354h-.836v-2.27a.884.884 0 0 0-.23-.659.854.854 0 0 0-.629-.23.94.94 0 0 0-.705.268c-.179.181-.269.458-.269.832v2.055h-.828V7.947h.828v.491c.25-.39.648-.586 1.189-.586zM110.162 6.418h.882v5.368h-.69l-2.53-3.642v3.642h-.882V6.418h.673l2.547 3.667V6.418zM115.607 6.418v.844h-1.511v4.524h-.874V7.262h-1.518v-.844h3.903zM119.702 11.377a2.362 2.362 0 0 1-2.929 0 1.75 1.75 0 0 1-.568-1.37V6.418h.882v3.536a1.073 1.073 0 0 0 .287.782c.192.195.48.292.863.291.384 0 .671-.098.862-.291a1.061 1.061 0 0 0 .288-.782V6.418h.89v3.59a1.747 1.747 0 0 1-.575 1.369zM123.82 11.886a2.733 2.733 0 0 1-2.807-2.784 2.804 2.804 0 0 1 4.152-2.439c.4.219.733.543.963.936l-.767.445a1.58 1.58 0 0 0-.626-.632 1.807 1.807 0 0 0-.92-.234 1.858 1.858 0 0 0-1.391.544 1.9 1.9 0 0 0-.532 1.38 1.91 1.91 0 0 0 .532 1.38 2.01 2.01 0 0 0 2.313.307c.262-.146.475-.366.613-.633l.767.437c-.226.395-.556.72-.955.94a2.709 2.709 0 0 1-1.342.353zM130.599 11.886a2.36 2.36 0 0 1-1.316-.353 1.84 1.84 0 0 1-.755-.966l.767-.445c.215.604.66.905 1.334.905.264.02.527-.049.747-.195a.616.616 0 0 0 .25-.509.56.56 0 0 0-.268-.5 4.201 4.201 0 0 0-.959-.379l-.613-.228a2.396 2.396 0 0 1-.506-.27 1.138 1.138 0 0 1-.394-.45 1.42 1.42 0 0 1-.131-.628 1.385 1.385 0 0 1 .506-1.13 1.851 1.851 0 0 1 1.227-.42c.398-.01.79.096 1.127.307.325.214.583.514.744.867l-.744.43a1.153 1.153 0 0 0-1.127-.752.96.96 0 0 0-.613.18.577.577 0 0 0-.23.486.533.533 0 0 0 .234.461c.266.16.553.28.853.358l.434.174.402.154c.14.048.273.117.391.207.098.084.191.175.278.271a.94.94 0 0 1 .208.373c.043.154.063.314.062.474a1.398 1.398 0 0 1-.527 1.155 2.112 2.112 0 0 1-1.381.423zM135.023 11.886a1.967 1.967 0 0 1-1.434-.583 2.037 2.037 0 0 1 0-2.868 2.062 2.062 0 0 1 2.871 0 2.042 2.042 0 0 1 0 2.868 1.957 1.957 0 0 1-1.437.583zm-.851-1.15a1.228 1.228 0 0 0 1.702 0 1.259 1.259 0 0 0 0-1.733 1.224 1.224 0 0 0-1.702 0 1.263 1.263 0 0 0 0 1.733zM139.609 11.886a1.985 1.985 0 0 1-2.025-2.017 1.983 1.983 0 0 1 1.245-1.876c.248-.099.513-.147.78-.14.359-.002.711.093 1.02.275.296.168.536.419.69.721l-.713.414a.982.982 0 0 0-.391-.44 1.228 1.228 0 0 0-1.457.187 1.252 1.252 0 0 0 0 1.718 1.144 1.144 0 0 0 .843.345c.215.006.427-.047.614-.153.175-.1.318-.25.411-.43l.708.4a1.83 1.83 0 0 1-.705.728c-.31.18-.662.272-1.02.268zM142.741 7.22a.535.535 0 0 1-.372.157.523.523 0 0 1-.487-.327.535.535 0 0 1 0-.403.534.534 0 0 1 .981 0 .532.532 0 0 1-.003.404.512.512 0 0 1-.119.17zm-.785 4.566V7.952h.828v3.834h-.828zM146.779 7.952h.828v3.834h-.828v-.552a1.551 1.551 0 0 1-1.342.652 1.797 1.797 0 0 1-1.35-.586 2.117 2.117 0 0 1 0-2.865 1.815 1.815 0 0 1 1.35-.583 1.561 1.561 0 0 1 1.342.645v-.545zm-2.078 2.796a1.251 1.251 0 0 0 1.733 0 1.289 1.289 0 0 0 0-1.756 1.249 1.249 0 0 0-1.733 0 1.289 1.289 0 0 0 0 1.756zM148.573 11.786V6.188h.828v5.598h-.828zM153.213 10.943h2.377v.843h-3.259V6.418h3.221v.844h-2.339v1.396h2.147v.835h-2.147v1.45zM158.357 7.852a1.417 1.417 0 0 1 1.073.422 1.615 1.615 0 0 1 .405 1.158v2.354h-.827v-2.27a.897.897 0 0 0-.23-.66.852.852 0 0 0-.63-.23.944.944 0 0 0-.705.274c-.178.18-.269.46-.269.831v2.055h-.828V7.952h.828v.49c.248-.394.642-.59 1.183-.59zM162.858 8.75h-.949v1.84a.465.465 0 0 0 .105.342.485.485 0 0 0 .319.115c.175.009.35.009.525 0v.744c-.633.077-1.089.021-1.364-.164-.274-.186-.415-.53-.415-1.032v-1.84h-.704v-.798h.698v-.828l.829-.246v1.074h.95l.006.793zM164.293 10.222c.049.27.2.51.422.672.238.16.519.241.805.233a1.12 1.12 0 0 0 .99-.476l.682.4c-.377.556-.94.835-1.687.835a2.056 2.056 0 0 1-1.511-.57 1.966 1.966 0 0 1-.575-1.447 1.964 1.964 0 0 1 .568-1.437 1.951 1.951 0 0 1 1.457-.58 1.794 1.794 0 0 1 1.38.59c.359.39.552.905.54 1.435a2.35 2.35 0 0 1-.031.345h-3.04zm0-.675h2.255a1.096 1.096 0 0 0-.387-.705 1.12 1.12 0 0 0-.71-.238c-.277-.01-.549.08-.766.253a1.15 1.15 0 0 0-.392.69zM168.939 8.596c.211-.475.604-.713 1.181-.713v.897a1.225 1.225 0 0 0-.828.227c-.235.171-.352.453-.353.847v1.932h-.828V7.952h.828v.644zM172.903 7.852a1.794 1.794 0 0 1 1.35.588 2.11 2.11 0 0 1 0 2.863 1.797 1.797 0 0 1-1.35.583 1.557 1.557 0 0 1-1.341-.644v2.078h-.827V7.952h.828v.552a1.556 1.556 0 0 1 1.34-.652zm-.996 2.896a1.251 1.251 0 0 0 1.733 0 1.293 1.293 0 0 0 0-1.756 1.25 1.25 0 0 0-1.733 0 1.289 1.289 0 0 0 0 1.756zM176.393 8.596c.209-.475.603-.713 1.181-.713v.897a1.229 1.229 0 0 0-.829.227c-.235.171-.352.453-.352.847v1.932h-.829V7.952h.829v.644zM178.974 7.22a.532.532 0 0 1-.902-.372.514.514 0 0 1 .153-.371.532.532 0 0 1 .58-.117.532.532 0 0 1 .172.86h-.003zm-.787 4.566V7.952h.828v3.834h-.828zM180.718 9.006a.326.326 0 0 0 .213.306c.164.08.334.146.509.197l.613.188c.207.063.389.187.522.356a1.109 1.109 0 0 1-.216 1.521 1.752 1.752 0 0 1-1.074.307c-.34.01-.676-.072-.974-.237a1.388 1.388 0 0 1-.59-.66l.713-.414c.133.368.417.552.851.552.435 0 .652-.143.652-.43a.34.34 0 0 0-.21-.306 2.837 2.837 0 0 0-.509-.207l-.614-.187a1.096 1.096 0 0 1-.514-.33.946.946 0 0 1-.211-.633 1.035 1.035 0 0 1 .403-.851 1.55 1.55 0 0 1 1-.323c.296-.005.589.068.848.212.241.136.438.338.568.583l-.7.399a.81.81 0 0 0-.489-.404.815.815 0 0 0-.63.07.326.326 0 0 0-.161.291zM184.161 10.222c.048.27.199.51.421.672.237.16.519.242.805.233a1.12 1.12 0 0 0 .99-.476l.682.4c-.378.556-.94.835-1.687.835a2.052 2.052 0 0 1-1.511-.57 1.966 1.966 0 0 1-.575-1.447 1.976 1.976 0 0 1 .577-1.446 1.956 1.956 0 0 1 1.448-.57 1.794 1.794 0 0 1 1.38.59c.359.39.553.904.54 1.434-.003.115-.013.23-.031.345h-3.039zm0-.675h2.254a1.063 1.063 0 0 0-1.11-.943c-.278-.01-.55.08-.767.253a1.145 1.145 0 0 0-.385.69h.008z" fill="#000"/>
        <path d="M39.823 16.631V30.91h-2.346V20.732l-4.343 7.18h-.286l-4.345-7.207v10.2h-2.346V16.627h2.529l4.308 7.145 4.319-7.138 2.51-.003zM47.29 31.175a5.225 5.225 0 0 1-3.815-1.55 5.417 5.417 0 0 1 0-7.629 5.478 5.478 0 0 1 7.638 0 5.44 5.44 0 0 1 0 7.629 5.214 5.214 0 0 1-3.824 1.55zm-2.266-3.067a3.25 3.25 0 0 0 4.529 0 3.35 3.35 0 0 0 0-4.61 3.255 3.255 0 0 0-4.529 0 3.356 3.356 0 0 0 0 4.61zM59.976 20.445c1.17 0 2.115.375 2.836 1.123.72.748 1.08 1.775 1.08 3.08v6.262H61.69v-6.038c0-.761-.204-1.345-.613-1.753-.409-.408-.966-.613-1.672-.614-.776 0-1.4.24-1.877.724-.477.483-.713 1.227-.713 2.213v5.466h-2.204V20.705h2.204v1.306c.666-1.043 1.72-1.565 3.16-1.566zM67.931 26.749c.127.718.53 1.358 1.121 1.785.632.43 1.384.648 2.147.623 1.17 0 2.047-.422 2.632-1.266l1.816 1.06c-1.008 1.483-2.497 2.224-4.468 2.224-1.659 0-2.998-.507-4.018-1.52-1.02-1.013-1.53-2.295-1.533-3.845 0-1.522.503-2.797 1.51-3.823 1.007-1.027 2.3-1.54 3.876-1.542 1.496 0 2.723.524 3.68 1.572.959 1.048 1.438 2.32 1.44 3.815a6.919 6.919 0 0 1-.082.92l-8.12-.003zm-.02-1.795h5.997c-.15-.829-.492-1.454-1.03-1.877a2.97 2.97 0 0 0-1.887-.632 3.097 3.097 0 0 0-2.04.674 3.032 3.032 0 0 0-1.04 1.835zM84.881 20.705h2.347l-3.912 10.531c-.979 2.638-2.638 3.89-4.977 3.753v-2.06c.693.041 1.25-.105 1.673-.438.422-.333.769-.853 1.04-1.56l.102-.204-4.329-10.022h2.406l3.042 7.404 2.608-7.404z" fill="#00A7A7"/>
        <path d="M100.646 29.023c-1.431 1.432-3.182 2.147-5.253 2.147-2.07 0-3.821-.715-5.253-2.147-1.431-1.431-2.147-3.182-2.147-5.253 0-2.07.716-3.82 2.147-5.25 1.432-1.432 3.183-2.148 5.253-2.148 2.07 0 3.822.716 5.253 2.147 1.431 1.432 2.147 3.182 2.147 5.251 0 2.07-.716 3.82-2.147 5.253zm-8.854-1.59a5.173 5.173 0 0 0 7.2 0c.973-.973 1.459-2.193 1.459-3.663 0-1.469-.486-2.69-1.458-3.66a5.173 5.173 0 0 0-7.2 0c-.973.972-1.46 2.192-1.46 3.66 0 1.469.485 2.69 1.453 3.663h.006zM116.478 20.705h2.325l-3.202 10.199h-2.163l-2.162-6.962-2.163 6.962h-2.332l-2.971-10.2h2.331l1.974 7.039 2.147-7.038h2.11l2.122 7.035 1.984-7.035zM120.374 30.91V16.02h2.203v14.89h-2.203z" fill="#FF9C39"/>
        <path d="m133.115 30.91-3.889-14.279h2.454l3.013 11.16 3.243-11.16h2.162l3.221 11.158 2.998-11.158h2.311l-3.881 14.279h-2.712l-3.021-10.46-3.04 10.46h-2.859zM155.232 31.175a5.23 5.23 0 0 1-3.814-1.55 5.417 5.417 0 0 1 0-7.63 5.48 5.48 0 0 1 7.639 0 5.439 5.439 0 0 1 0 7.63 5.205 5.205 0 0 1-3.825 1.55zm-2.263-3.067a3.249 3.249 0 0 0 4.529 0 3.355 3.355 0 0 0 0-4.61 3.256 3.256 0 0 0-4.529 0 3.351 3.351 0 0 0 0 4.61zM164.754 22.424c.558-1.264 1.605-1.896 3.14-1.896v2.387a3.263 3.263 0 0 0-2.202.6c-.626.457-.938 1.207-.938 2.25v5.14h-2.203v-10.2h2.203v1.719zM178.486 30.91h-2.632l-4.18-4.707v4.707h-2.203V16.63h2.203v8.609l3.956-4.53h2.694l-4.488 4.999 4.65 5.2zM181.892 23.513c0 .335.189.6.566.794.435.219.889.399 1.356.537l1.623.5a2.817 2.817 0 0 1 1.38.946 2.95 2.95 0 0 1-.575 4.05c-.755.557-1.704.836-2.847.835a5.042 5.042 0 0 1-2.59-.632 3.71 3.71 0 0 1-1.571-1.754l1.898-1.102c.354.979 1.109 1.469 2.263 1.47 1.155 0 1.733-.38 1.735-1.144 0-.326-.187-.59-.561-.795a7.398 7.398 0 0 0-1.353-.55l-1.621-.5a2.893 2.893 0 0 1-1.391-.92 2.52 2.52 0 0 1-.562-1.688 2.76 2.76 0 0 1 1.074-2.263c.716-.57 1.603-.857 2.661-.858a4.484 4.484 0 0 1 2.254.562 3.816 3.816 0 0 1 1.52 1.56l-1.846 1.047c-.353-.776-.992-1.164-1.917-1.163a1.941 1.941 0 0 0-1.06.272.883.883 0 0 0-.436.796z" fill="#231F20"/>
    </g>
    <defs>
        <clipPath id="a">
            <path fill="#fff" d="M0 0h187.38v35H0z"/>
        </clipPath>
    </defs>
</svg>
