<?xml version="1.0" encoding="UTF-8"?>
<svg width="178px" height="45px" viewBox="0 0 178 45" version="1.1" xmlns="http://www.w3.org/2000/svg" xmlns:xlink="http://www.w3.org/1999/xlink">
    <!-- Generator: Sketch 62 (91390) - https://sketch.com -->
    <title>Group 57</title>
    <desc>Created with Sketch.</desc>
    <defs>
        <polygon id="path-1" points="0 45 177.921 45 177.921 0 0 0"></polygon>
    </defs>
    <g id="latest" stroke="none" stroke-width="1" fill="none" fill-rule="evenodd">
        <g id="1024px---homepage--copy" transform="translate(-58.000000, -20.000000)">
            <g id="Group-57" transform="translate(58.000000, 20.000000)">
                <polygon id="Fill-1" fill="#066360" points="3.082 38.694 29.185 38.694 29.185 37.984 3.082 37.984"></polygon>
                <polygon id="Fill-2" fill="#066360" points="25.3998 36.063 11.9688 36.063 3.0818 36.063 3.0818 37.984 29.1848 37.984 29.1848 36.063"></polygon>
                <g id="Group-15">
                    <path d="M23.532,11.6465 C23.532,8.6525 21.104,6.2245 18.108,6.2245 C15.762,6.2245 13.764,7.7125 13.009,9.7985 C12.253,7.7125 10.256,6.2245 7.91,6.2245 C4.913,6.2245 2.485,8.6525 2.485,11.6465 C2.485,17.8195 3.082,22.8245 13.009,22.8245 C22.385,22.8245 23.532,17.8195 23.532,11.6465 L23.532,11.6465 Z M25.365,36.0405 L25.365,19.3995 C23.159,21.2095 21.774,23.6495 21.428,26.3755 C21.035,29.4775 22.046,32.4945 24.271,34.8715 L25.365,36.0405 Z M24.395,3.3655 C25.209,2.8935 26.188,3.6065 25.995,4.5285 C25.92,4.8865 25.84,5.2305 25.754,5.5635 C25.289,7.3515 25.124,9.2015 25.327,11.0385 C25.375,11.4815 25.4,11.9335 25.4,12.3915 L25.4,36.0635 L11.969,36.0635 C5.285,33.0455 0.618,26.3225 0.618,18.5255 L0.618,12.3915 C0.618,11.9315 0.642,11.4765 0.692,11.0305 C0.895,9.1935 0.73,7.3435 0.265,5.5565 C0.179,5.2255 0.099,4.8825 0.025,4.5265 C-0.168,3.6065 0.813,2.8935 1.626,3.3655 C1.99,3.5785 2.369,3.7825 2.748,3.9645 C3.229,4.1965 3.802,4.0945 4.177,3.7115 C6.427,1.4235 9.553,0.0005 13.009,0.0005 C16.465,0.0005 19.593,1.4235 21.841,3.7135 C22.218,4.0965 22.79,4.1975 23.272,3.9665 C23.651,3.7825 24.03,3.5785 24.395,3.3655 L24.395,3.3655 Z" id="Fill-3" fill="#00A7A7"></path>
                    <path d="M25.365,19.3994 L25.365,36.0404 L24.271,34.8714 C22.046,32.4944 21.035,29.4774 21.427,26.3764 C21.774,23.6494 23.159,21.2094 25.365,19.3994" id="Fill-5" fill="#FF9C39"></path>
                    <path d="M9.5476,11.3672 C9.5476,10.5252 8.8636,9.8442 8.0226,9.8442 C7.1826,9.8442 6.4996,10.5252 6.4996,11.3672 C6.4996,12.2092 7.1826,12.8902 8.0226,12.8902 C8.8636,12.8902 9.5476,12.2092 9.5476,11.3672 L9.5476,11.3672 Z M14.8836,15.9612 C14.9926,15.7582 14.9606,15.5042 14.8056,15.3372 L13.3646,13.8082 C13.1656,13.5982 12.8306,13.5982 12.6316,13.8082 L11.1916,15.3372 C11.0356,15.5042 11.0036,15.7582 11.1126,15.9612 L12.0926,17.7792 C12.4806,18.5022 13.5156,18.5022 13.9056,17.7792 L14.8836,15.9612 Z M19.7876,11.3672 C19.7876,10.5252 19.1046,9.8442 18.2626,9.8442 C17.4206,9.8442 16.7396,10.5252 16.7396,11.3672 C16.7396,12.2092 17.4206,12.8902 18.2626,12.8902 C19.1046,12.8902 19.7876,12.2092 19.7876,11.3672 L19.7876,11.3672 Z M18.1086,6.2242 C21.1046,6.2242 23.5316,8.6522 23.5316,11.6462 C23.5316,17.8192 22.3846,22.8252 13.0086,22.8252 C3.0816,22.8252 2.4856,17.8192 2.4856,11.6462 C2.4856,8.6522 4.9126,6.2242 7.9096,6.2242 C10.2556,6.2242 12.2526,7.7132 13.0086,9.7982 C13.7646,7.7132 15.7626,6.2242 18.1086,6.2242 L18.1086,6.2242 Z" id="Fill-7" fill="#FFFFFF"></path>
                    <path d="M18.2625,9.8442 C19.1045,9.8442 19.7875,10.5252 19.7875,11.3672 C19.7875,12.2092 19.1045,12.8902 18.2625,12.8902 C17.4205,12.8902 16.7405,12.2092 16.7405,11.3672 C16.7405,10.5252 17.4205,9.8442 18.2625,9.8442" id="Fill-9" fill="#066360"></path>
                    <path d="M14.8054,15.3374 C14.9604,15.5044 14.9924,15.7584 14.8834,15.9614 L13.9064,17.7784 C13.5154,18.5024 12.4804,18.5024 12.0924,17.7784 L11.1134,15.9614 C11.0034,15.7584 11.0354,15.5044 11.1914,15.3374 L12.6314,13.8084 C12.8304,13.5984 13.1654,13.5984 13.3654,13.8084 L14.8054,15.3374 Z" id="Fill-11" fill="#FF9C39"></path>
                    <path d="M8.0222,9.8442 C8.8642,9.8442 9.5472,10.5252 9.5472,11.3672 C9.5472,12.2092 8.8642,12.8902 8.0222,12.8902 C7.1822,12.8902 6.5002,12.2092 6.5002,11.3672 C6.5002,10.5252 7.1822,9.8442 8.0222,9.8442" id="Fill-13" fill="#066360"></path>
                </g>
                <g id="Group-56">
                    <path d="M64.3797,10.2402 C64.6667,10.5302 65.0267,10.6752 65.4607,10.6752 C65.8947,10.6752 66.2547,10.5302 66.5417,10.2402 C66.8287,9.9502 66.9727,9.5852 66.9727,9.1442 C66.9727,8.7042 66.8287,8.3402 66.5417,8.0492 C66.2547,7.7592 65.8947,7.6142 65.4607,7.6142 C65.0267,7.6142 64.6667,7.7592 64.3797,8.0492 C64.0927,8.3402 63.9487,8.7042 63.9487,9.1442 C63.9487,9.5852 64.0927,9.9502 64.3797,10.2402 L64.3797,10.2402 Z M66.9727,6.7532 L68.0057,6.7532 L68.0057,11.5362 L66.9727,11.5362 L66.9727,10.8472 C66.5837,11.3892 66.0257,11.6612 65.2987,11.6612 C64.6417,11.6612 64.0797,11.4172 63.6147,10.9292 C63.1497,10.4412 62.9157,9.8462 62.9157,9.1442 C62.9157,8.4372 63.1497,7.8402 63.6147,7.3562 C64.0797,6.8712 64.6417,6.6292 65.2987,6.6292 C66.0257,6.6292 66.5837,6.8962 66.9727,7.4322 L66.9727,6.7532 Z" id="Fill-16" fill="#000000"></path>
                    <path d="M71.7273,6.6289 C72.2753,6.6289 72.7183,6.8039 73.0573,7.1549 C73.3953,7.5059 73.5643,7.9869 73.5643,8.5999 L73.5643,11.5369 L72.5313,11.5369 L72.5313,8.7049 C72.5313,8.3479 72.4353,8.0729 72.2443,7.8819 C72.0523,7.6909 71.7903,7.5949 71.4583,7.5949 C71.0953,7.5949 70.8023,7.7089 70.5793,7.9349 C70.3563,8.1609 70.2443,8.5069 70.2443,8.9729 L70.2443,11.5369 L69.2103,11.5369 L69.2103,6.7529 L70.2443,6.7529 L70.2443,7.3649 C70.5563,6.8749 71.0513,6.6289 71.7273,6.6289" id="Fill-18" fill="#000000"></path>
                    <polygon id="Fill-20" fill="#000000" points="81.1502 4.8398 82.2512 4.8398 82.2512 11.5368 81.3892 11.5368 78.2322 6.9928 78.2322 11.5368 77.1322 11.5368 77.1322 4.8398 77.9712 4.8398 81.1502 9.4148"></polygon>
                    <polygon id="Fill-22" fill="#000000" points="87.9431 4.8398 87.9431 5.8918 86.0581 5.8918 86.0581 11.5368 84.9581 11.5368 84.9581 5.8918 83.0631 5.8918 83.0631 4.8398"></polygon>
                    <path d="M93.0515,11.0249 C92.5785,11.4489 91.9705,11.6609 91.2245,11.6609 C90.4785,11.6609 89.8685,11.4489 89.3975,11.0249 C88.9245,10.6009 88.6895,10.0309 88.6895,9.3169 L88.6895,4.8399 L89.7885,4.8399 L89.7885,9.2499 C89.7885,9.6579 89.9085,9.9829 90.1485,10.2259 C90.3865,10.4679 90.7455,10.5889 91.2245,10.5889 C91.7015,10.5889 92.0615,10.4679 92.3005,10.2259 C92.5395,9.9829 92.6585,9.6579 92.6585,9.2499 L92.6585,4.8399 L93.7595,4.8399 L93.7595,9.3169 C93.7595,10.0309 93.5235,10.6009 93.0515,11.0249" id="Fill-24" fill="#000000"></path>
                    <path d="M98.1892,11.6611 C97.1802,11.6611 96.3452,11.3281 95.6822,10.6611 C95.0192,9.9941 94.6872,9.1701 94.6872,8.1881 C94.6872,7.2061 95.0192,6.3821 95.6822,5.7151 C96.3452,5.0491 97.1802,4.7151 98.1892,4.7151 C98.7942,4.7151 99.3542,4.8591 99.8682,5.1461 C100.3802,5.4331 100.7812,5.8221 101.0682,6.3131 L100.1112,6.8681 C99.9322,6.5361 99.6722,6.2731 99.3322,6.0781 C98.9912,5.8841 98.6092,5.7861 98.1892,5.7861 C97.4742,5.7861 96.8952,6.0131 96.4522,6.4661 C96.0082,6.9191 95.7872,7.4931 95.7872,8.1881 C95.7872,8.8831 96.0082,9.4571 96.4522,9.9101 C96.8952,10.3631 97.4742,10.5891 98.1892,10.5891 C98.6092,10.5891 98.9922,10.4921 99.3362,10.2981 C99.6812,10.1031 99.9392,9.8401 100.1112,9.5081 L101.0682,10.0541 C100.7882,10.5451 100.3902,10.9351 99.8762,11.2251 C99.3642,11.5161 98.8002,11.6611 98.1892,11.6611" id="Fill-26" fill="#000000"></path>
                    <path d="M106.6463,11.6611 C106.0013,11.6611 105.4553,11.5141 105.0043,11.2211 C104.5553,10.9281 104.2413,10.5261 104.0633,10.0151 L105.0093,9.4601 C105.2783,10.2131 105.8333,10.5891 106.6743,10.5891 C107.0883,10.5891 107.4003,10.5081 107.6073,10.3461 C107.8143,10.1841 107.9173,9.9731 107.9173,9.7121 C107.9173,9.4381 107.8063,9.2301 107.5833,9.0861 C107.3593,8.9431 106.9633,8.7861 106.3953,8.6141 C106.0843,8.4981 105.8283,8.4031 105.6263,8.3281 C105.4253,8.2541 105.2153,8.1421 104.9963,7.9921 C104.7753,7.8421 104.6113,7.6561 104.5023,7.4321 C104.3943,7.2091 104.3403,6.9481 104.3403,6.6481 C104.3403,6.0551 104.5503,5.5841 104.9713,5.2371 C105.3923,4.8891 105.8993,4.7151 106.4933,4.7151 C107.0283,4.7151 107.4973,4.8461 107.8993,5.1071 C108.3003,5.3691 108.6103,5.7291 108.8273,6.1881 L107.8993,6.7241 C107.6183,6.0991 107.1493,5.7861 106.4933,5.7861 C106.1733,5.7861 105.9183,5.8621 105.7273,6.0121 C105.5363,6.1611 105.4403,6.3641 105.4403,6.6191 C105.4403,6.8631 105.5383,7.0551 105.7343,7.1951 C105.9293,7.3361 106.2843,7.4841 106.7963,7.6401 C107.0473,7.7351 107.2303,7.8041 107.3463,7.8481 C107.4623,7.8911 107.6293,7.9541 107.8473,8.0361 C108.0653,8.1181 108.2273,8.2041 108.3343,8.2951 C108.4423,8.3851 108.5583,8.4981 108.6813,8.6341 C108.8043,8.7691 108.8913,8.9251 108.9423,9.0991 C108.9933,9.2731 109.0183,9.4701 109.0183,9.6901 C109.0183,10.2961 108.7993,10.7761 108.3633,11.1301 C107.9263,11.4841 107.3533,11.6611 106.6463,11.6611" id="Fill-28" fill="#000000"></path>
                    <path d="M111.1043,10.2261 C111.3913,10.5131 111.7453,10.6561 112.1663,10.6561 C112.5863,10.6561 112.9413,10.5131 113.2273,10.2261 C113.5143,9.9391 113.6583,9.5791 113.6583,9.1441 C113.6583,8.7111 113.5143,8.3511 113.2273,8.0641 C112.9413,7.7771 112.5863,7.6331 112.1663,7.6331 C111.7453,7.6331 111.3913,7.7771 111.1043,8.0641 C110.8173,8.3511 110.6733,8.7111 110.6733,9.1441 C110.6733,9.5791 110.8173,9.9391 111.1043,10.2261 M112.1663,11.6611 C111.4643,11.6611 110.8683,11.4181 110.3763,10.9341 C109.8853,10.4491 109.6403,9.8521 109.6403,9.1441 C109.6403,8.4371 109.8853,7.8401 110.3763,7.3561 C110.8683,6.8711 111.4643,6.6291 112.1663,6.6291 C112.8743,6.6291 113.4713,6.8711 113.9593,7.3561 C114.4473,7.8401 114.6913,8.4371 114.6913,9.1441 C114.6913,9.8521 114.4473,10.4491 113.9593,10.9341 C113.4713,11.4181 112.8743,11.6611 112.1663,11.6611" id="Fill-30" fill="#000000"></path>
                    <path d="M117.8865,11.6611 C117.1655,11.6611 116.5645,11.4181 116.0835,10.9341 C115.6015,10.4491 115.3615,9.8521 115.3615,9.1441 C115.3615,8.4311 115.6015,7.8321 116.0835,7.3511 C116.5645,6.8691 117.1655,6.6291 117.8865,6.6291 C118.3525,6.6291 118.7765,6.7401 119.1585,6.9641 C119.5415,7.1871 119.8285,7.4871 120.0205,7.8631 L119.1305,8.3791 C119.0225,8.1501 118.8585,7.9701 118.6375,7.8391 C118.4175,7.7081 118.1635,7.6431 117.8765,7.6431 C117.4555,7.6431 117.1035,7.7861 116.8205,8.0731 C116.5355,8.3601 116.3945,8.7181 116.3945,9.1441 C116.3945,9.5721 116.5355,9.9291 116.8205,10.2161 C117.1035,10.5031 117.4555,10.6471 117.8765,10.6471 C118.1575,10.6471 118.4105,10.5791 118.6375,10.4461 C118.8645,10.3121 119.0345,10.1331 119.1495,9.9101 L120.0385,10.4171 C119.8345,10.8001 119.5415,11.1031 119.1585,11.3261 C118.7765,11.5491 118.3525,11.6611 117.8865,11.6611" id="Fill-32" fill="#000000"></path>
                    <mask id="mask-2" fill="white">
                        <use xlink:href="#path-1"></use>
                    </mask>
                    <g id="Clip-35"></g>
                    <path d="M120.814,11.537 L121.847,11.537 L121.847,6.753 L120.814,6.753 L120.814,11.537 Z M121.795,5.839 C121.664,5.97 121.51,6.036 121.331,6.036 C121.152,6.036 120.997,5.97 120.867,5.839 C120.736,5.709 120.671,5.554 120.671,5.375 C120.671,5.197 120.734,5.042 120.862,4.912 C120.989,4.781 121.145,4.715 121.331,4.715 C121.515,4.715 121.672,4.781 121.8,4.912 C121.927,5.042 121.991,5.197 121.991,5.375 C121.991,5.554 121.926,5.709 121.795,5.839 L121.795,5.839 Z" id="Fill-34" fill="#000000" mask="url(#mask-2)"></path>
                    <path d="M124.239,10.2402 C124.526,10.5302 124.886,10.6752 125.32,10.6752 C125.754,10.6752 126.114,10.5302 126.401,10.2402 C126.688,9.9502 126.832,9.5852 126.832,9.1442 C126.832,8.7042 126.688,8.3402 126.401,8.0492 C126.114,7.7592 125.754,7.6142 125.32,7.6142 C124.886,7.6142 124.526,7.7592 124.239,8.0492 C123.952,8.3402 123.808,8.7042 123.808,9.1442 C123.808,9.5852 123.952,9.9502 124.239,10.2402 L124.239,10.2402 Z M126.832,6.7532 L127.865,6.7532 L127.865,11.5362 L126.832,11.5362 L126.832,10.8472 C126.442,11.3892 125.885,11.6612 125.157,11.6612 C124.501,11.6612 123.939,11.4172 123.473,10.9292 C123.008,10.4412 122.775,9.8462 122.775,9.1442 C122.775,8.4372 123.008,7.8402 123.473,7.3562 C123.939,6.8712 124.501,6.6292 125.157,6.6292 C125.885,6.6292 126.442,6.8962 126.832,7.4322 L126.832,6.7532 Z" id="Fill-36" fill="#000000" mask="url(#mask-2)"></path>
                    <polygon id="Fill-37" fill="#000000" mask="url(#mask-2)" points="129.07 11.537 130.103 11.537 130.103 4.553 129.07 4.553"></polygon>
                    <polygon id="Fill-38" fill="#000000" mask="url(#mask-2)" points="134.8572 10.4839 137.8232 10.4839 137.8232 11.5369 133.7572 11.5369 133.7572 4.8399 137.7752 4.8399 137.7752 5.8919 134.8572 5.8919 134.8572 7.6329 137.5362 7.6329 137.5362 8.6759 134.8572 8.6759"></polygon>
                    <path d="M141.2771,6.6289 C141.8251,6.6289 142.2681,6.8039 142.6071,7.1549 C142.9451,7.5059 143.1141,7.9869 143.1141,8.5999 L143.1141,11.5369 L142.0811,11.5369 L142.0811,8.7049 C142.0811,8.3479 141.9851,8.0729 141.7941,7.8819 C141.6021,7.6909 141.3401,7.5949 141.0091,7.5949 C140.6451,7.5949 140.3521,7.7089 140.1291,7.9349 C139.9061,8.1609 139.7941,8.5069 139.7941,8.9729 L139.7941,11.5369 L138.7601,11.5369 L138.7601,6.7529 L139.7941,6.7529 L139.7941,7.3649 C140.1061,6.8749 140.6011,6.6289 141.2771,6.6289" id="Fill-39" fill="#000000" mask="url(#mask-2)"></path>
                    <path d="M146.8923,7.748 L145.7063,7.748 L145.7063,10.044 C145.7063,10.242 145.7503,10.384 145.8403,10.47 C145.9293,10.556 146.0623,10.603 146.2373,10.613 C146.4133,10.623 146.6303,10.622 146.8923,10.608 L146.8923,11.537 C146.1023,11.632 145.5343,11.563 145.1903,11.331 C144.8453,11.098 144.6733,10.669 144.6733,10.044 L144.6733,7.748 L143.7923,7.748 L143.7923,6.753 L144.6733,6.753 L144.6733,5.72 L145.7063,5.414 L145.7063,6.753 L146.8923,6.753 L146.8923,7.748 Z" id="Fill-40" fill="#000000" mask="url(#mask-2)"></path>
                    <path d="M148.6814,8.7432 L151.4944,8.7432 C151.4234,8.3542 151.2634,8.0602 151.0114,7.8632 C150.7594,7.6652 150.4634,7.5662 150.1264,7.5662 C149.7434,7.5662 149.4244,7.6712 149.1694,7.8822 C148.9144,8.0922 148.7514,8.3792 148.6814,8.7432 L148.6814,8.7432 Z M148.6914,9.5852 C148.7674,9.9482 148.9434,10.2272 149.2174,10.4222 C149.4924,10.6172 149.8264,10.7142 150.2214,10.7142 C150.7704,10.7142 151.1814,10.5162 151.4554,10.1202 L152.3074,10.6182 C151.8354,11.3132 151.1364,11.6612 150.2124,11.6612 C149.4344,11.6612 148.8064,11.4232 148.3274,10.9482 C147.8494,10.4732 147.6104,9.8712 147.6104,9.1442 C147.6104,8.4312 147.8454,7.8322 148.3184,7.3512 C148.7894,6.8692 149.3964,6.6292 150.1354,6.6292 C150.8374,6.6292 151.4124,6.8742 151.8624,7.3652 C152.3124,7.8562 152.5364,8.4522 152.5364,9.1542 C152.5364,9.2632 152.5244,9.4062 152.4984,9.5852 L148.6914,9.5852 Z" id="Fill-41" fill="#000000" mask="url(#mask-2)"></path>
                    <path d="M154.4793,7.5566 C154.7403,6.9636 155.2313,6.6666 155.9523,6.6666 L155.9523,7.7856 C155.5563,7.7606 155.2123,7.8546 154.9183,8.0686 C154.6253,8.2826 154.4793,8.6346 154.4793,9.1256 L154.4793,11.5366 L153.4463,11.5366 L153.4463,6.7526 L154.4793,6.7526 L154.4793,7.5566 Z" id="Fill-42" fill="#000000" mask="url(#mask-2)"></path>
                    <path d="M158.1814,10.2402 C158.4684,10.5302 158.8284,10.6752 159.2624,10.6752 C159.6964,10.6752 160.0564,10.5302 160.3434,10.2402 C160.6304,9.9502 160.7744,9.5852 160.7744,9.1442 C160.7744,8.7042 160.6304,8.3402 160.3434,8.0492 C160.0564,7.7592 159.6964,7.6142 159.2624,7.6142 C158.8284,7.6142 158.4684,7.7592 158.1814,8.0492 C157.8944,8.3402 157.7504,8.7042 157.7504,9.1442 C157.7504,9.5852 157.8944,9.9502 158.1814,10.2402 M159.4244,6.6292 C160.0814,6.6292 160.6434,6.8722 161.1094,7.3602 C161.5744,7.8482 161.8074,8.4432 161.8074,9.1442 C161.8074,9.8522 161.5744,10.4492 161.1094,10.9342 C160.6434,11.4182 160.0814,11.6612 159.4244,11.6612 C158.6984,11.6612 158.1394,11.3932 157.7504,10.8572 L157.7504,13.4492 L156.7174,13.4492 L156.7174,6.7532 L157.7504,6.7532 L157.7504,7.4422 C158.1394,6.9002 158.6984,6.6292 159.4244,6.6292" id="Fill-43" fill="#000000" mask="url(#mask-2)"></path>
                    <path d="M163.7781,7.5566 C164.0391,6.9636 164.5301,6.6666 165.2511,6.6666 L165.2511,7.7856 C164.8551,7.7606 164.5111,7.8546 164.2171,8.0686 C163.9241,8.2826 163.7781,8.6346 163.7781,9.1256 L163.7781,11.5366 L162.7451,11.5366 L162.7451,6.7526 L163.7781,6.7526 L163.7781,7.5566 Z" id="Fill-44" fill="#000000" mask="url(#mask-2)"></path>
                    <path d="M166.016,11.537 L167.049,11.537 L167.049,6.753 L166.016,6.753 L166.016,11.537 Z M166.997,5.839 C166.866,5.97 166.712,6.036 166.533,6.036 C166.354,6.036 166.199,5.97 166.069,5.839 C165.938,5.709 165.873,5.554 165.873,5.375 C165.873,5.197 165.936,5.042 166.064,4.912 C166.191,4.781 166.347,4.715 166.533,4.715 C166.718,4.715 166.874,4.781 167.002,4.912 C167.13,5.042 167.193,5.197 167.193,5.375 C167.193,5.554 167.128,5.709 166.997,5.839 L166.997,5.839 Z" id="Fill-45" fill="#000000" mask="url(#mask-2)"></path>
                    <path d="M169.1736,8.0669 C169.1736,8.2249 169.2616,8.3489 169.4386,8.4399 C169.6146,8.5309 169.8266,8.6149 170.0736,8.6919 C170.3216,8.7679 170.5746,8.8459 170.8346,8.9259 C171.0946,9.0049 171.3116,9.1529 171.4856,9.3699 C171.6586,9.5859 171.7466,9.8589 171.7466,10.1879 C171.7466,10.6469 171.5696,11.0069 171.2156,11.2689 C170.8616,11.5299 170.4166,11.6609 169.8816,11.6609 C169.4086,11.6609 169.0036,11.5619 168.6656,11.3639 C168.3276,11.1669 168.0826,10.8929 167.9296,10.5419 L168.8196,10.0249 C168.9856,10.4839 169.3386,10.7139 169.8816,10.7139 C170.4236,10.7139 170.6946,10.5349 170.6946,10.1779 C170.6946,10.0249 170.6066,9.8999 170.4316,9.8049 C170.2556,9.7089 170.0446,9.6229 169.7966,9.5469 C169.5496,9.4709 169.2956,9.3929 169.0366,9.3129 C168.7776,9.2329 168.5596,9.0889 168.3836,8.8819 C168.2086,8.6739 168.1206,8.4119 168.1206,8.0919 C168.1206,7.6519 168.2876,7.2979 168.6226,7.0309 C168.9576,6.7629 169.3736,6.6289 169.8716,6.6289 C170.2676,6.6289 170.6186,6.7159 170.9286,6.8919 C171.2376,7.0669 171.4756,7.3109 171.6416,7.6239 L170.7706,8.1119 C170.6056,7.7479 170.3056,7.5669 169.8716,7.5669 C169.6736,7.5669 169.5076,7.6089 169.3736,7.6939 C169.2396,7.7789 169.1736,7.9029 169.1736,8.0669" id="Fill-46" fill="#000000" mask="url(#mask-2)"></path>
                    <path d="M173.4588,8.7432 L176.2718,8.7432 C176.2008,8.3542 176.0408,8.0602 175.7888,7.8632 C175.5368,7.6652 175.2418,7.5662 174.9038,7.5662 C174.5208,7.5662 174.2018,7.6712 173.9468,7.8822 C173.6918,8.0922 173.5288,8.3792 173.4588,8.7432 L173.4588,8.7432 Z M173.4688,9.5852 C173.5448,9.9482 173.7208,10.2272 173.9948,10.4222 C174.2698,10.6172 174.6048,10.7142 174.9998,10.7142 C175.5478,10.7142 175.9588,10.5162 176.2328,10.1202 L177.0848,10.6182 C176.6128,11.3132 175.9148,11.6612 174.9898,11.6612 C174.2118,11.6612 173.5838,11.4232 173.1048,10.9482 C172.6268,10.4732 172.3878,9.8712 172.3878,9.1442 C172.3878,8.4312 172.6238,7.8322 173.0958,7.3512 C173.5668,6.8692 174.1738,6.6292 174.9128,6.6292 C175.6148,6.6292 176.1898,6.8742 176.6408,7.3652 C177.0898,7.8562 177.3138,8.4522 177.3138,9.1542 C177.3138,9.2632 177.3018,9.4062 177.2758,9.5852 L173.4688,9.5852 Z" id="Fill-47" fill="#000000" mask="url(#mask-2)"></path>
                    <polygon id="Fill-48" fill="#00A7A7" mask="url(#mask-2)" points="53.6853 16.8398 53.6853 38.7298 50.0883 38.7298 50.0883 23.1258 43.4283 34.1328 42.9923 34.1318 36.3303 23.0918 36.3303 38.7298 32.7333 38.7298 32.7333 16.8398 36.6113 16.8398 43.2143 27.7828 49.8353 16.8398"></polygon>
                    <path d="M61.0906,34.4463 C62.0286,35.3843 63.1866,35.8533 64.5626,35.8533 C65.9386,35.8533 67.0956,35.3843 68.0326,34.4463 C68.9716,33.5083 69.4406,32.3303 69.4406,30.9123 C69.4406,29.4943 68.9716,28.3173 68.0326,27.3783 C67.0956,26.4403 65.9386,25.9713 64.5626,25.9713 C63.1866,25.9713 62.0286,26.4403 61.0906,27.3783 C60.1536,28.3173 59.6846,29.4943 59.6846,30.9123 C59.6846,32.3303 60.1536,33.5083 61.0906,34.4463 M64.5626,39.1363 C62.2686,39.1363 60.3196,38.3443 58.7146,36.7603 C57.1096,35.1753 56.3066,33.2263 56.3066,30.9123 C56.3066,28.5983 57.1096,26.6493 58.7146,25.0643 C60.3196,23.4803 62.2686,22.6873 64.5626,22.6873 C66.8766,22.6873 68.8306,23.4803 70.4256,25.0643 C72.0206,26.6493 72.8186,28.5983 72.8186,30.9123 C72.8186,33.2263 72.0206,35.1753 70.4256,36.7603 C68.8306,38.3443 66.8766,39.1363 64.5626,39.1363" id="Fill-49" fill="#00A7A7" mask="url(#mask-2)"></path>
                    <path d="M83.5847,22.6875 C85.3777,22.6875 86.8257,23.2615 87.9317,24.4075 C89.0357,25.5545 89.5887,27.1285 89.5887,29.1295 L89.5887,38.7295 L86.2117,38.7295 L86.2117,29.4735 C86.2117,28.3065 85.8987,27.4095 85.2727,26.7845 C84.6477,26.1595 83.7927,25.8465 82.7087,25.8465 C81.5207,25.8465 80.5617,26.2165 79.8317,26.9565 C79.1027,27.6965 78.7367,28.8275 78.7367,30.3495 L78.7367,38.7295 L75.3597,38.7295 L75.3597,23.0945 L78.7367,23.0945 L78.7367,25.0955 C79.7587,23.4905 81.3747,22.6875 83.5847,22.6875" id="Fill-50" fill="#00A7A7" mask="url(#mask-2)"></path>
                    <path d="M95.2635,29.5991 L104.4575,29.5991 C104.2275,28.3271 103.7015,27.3681 102.8785,26.7221 C102.0545,26.0761 101.0905,25.7521 99.9865,25.7521 C98.7355,25.7521 97.6925,26.0971 96.8585,26.7841 C96.0245,27.4731 95.4925,28.4111 95.2635,29.5991 L95.2635,29.5991 Z M95.2945,32.3501 C95.5445,33.5391 96.1175,34.4511 97.0145,35.0871 C97.9105,35.7241 99.0055,36.0411 100.2985,36.0411 C102.0905,36.0411 103.4355,35.3951 104.3315,34.1021 L107.1155,35.7281 C105.5725,38.0001 103.2895,39.1371 100.2675,39.1371 C97.7235,39.1371 95.6695,38.3601 94.1065,36.8071 C92.5425,35.2541 91.7605,33.2891 91.7605,30.9121 C91.7605,28.5781 92.5325,26.6231 94.0755,25.0491 C95.6175,23.4751 97.5985,22.6871 100.0165,22.6871 C102.3105,22.6871 104.1915,23.4911 105.6615,25.0961 C107.1305,26.7011 107.8665,28.6501 107.8665,30.9431 C107.8665,31.2981 107.8245,31.7671 107.7415,32.3501 L95.2945,32.3501 Z" id="Fill-51" fill="#00A7A7" mask="url(#mask-2)"></path>
                    <path d="M120.1707,23.0942 L123.7677,23.0942 L117.7637,39.2302 C116.2627,43.2752 113.7187,45.1932 110.1327,44.9852 L110.1327,41.8262 C111.1957,41.8882 112.0507,41.6642 112.6967,41.1542 C113.3437,40.6422 113.8747,39.8452 114.2917,38.7612 L114.4477,38.4482 L107.8187,23.0942 L111.5087,23.0942 L116.1717,34.4442 L120.1707,23.0942 Z" id="Fill-52" fill="#00A7A7" mask="url(#mask-2)"></path>
                    <path d="M130.9763,33.3984 C132.4663,34.8894 134.3063,35.6344 136.4963,35.6344 C138.6843,35.6344 140.5243,34.8894 142.0153,33.3984 C143.5053,31.9084 144.2503,30.0364 144.2503,27.7854 C144.2503,25.5334 143.5053,23.6624 142.0153,22.1714 C140.5243,20.6814 138.6843,19.9354 136.4963,19.9354 C134.3063,19.9354 132.4663,20.6814 130.9763,22.1714 C129.4853,23.6624 128.7403,25.5334 128.7403,27.7854 C128.7403,30.0364 129.4853,31.9084 130.9763,33.3984 M144.5483,35.8374 C142.3483,38.0374 139.6643,39.1364 136.4963,39.1364 C133.3263,39.1364 130.6423,38.0374 128.4433,35.8374 C126.2443,33.6384 125.1443,30.9544 125.1443,27.7854 C125.1443,24.6164 126.2443,21.9324 128.4433,19.7324 C130.6423,17.5334 133.3263,16.4334 136.4963,16.4334 C139.6643,16.4334 142.3483,17.5334 144.5483,19.7324 C146.7473,21.9324 147.8473,24.6164 147.8473,27.7854 C147.8473,30.9544 146.7473,33.6384 144.5483,35.8374" id="Fill-53" fill="#FF9C39" mask="url(#mask-2)"></path>
                    <polygon id="Fill-54" fill="#FF9C39" mask="url(#mask-2)" points="168.6736 23.0942 172.2386 23.0942 167.3286 38.7302 164.0146 38.7302 160.6986 28.0572 157.3846 38.7302 153.8016 38.7302 149.2536 23.0942 152.8266 23.0942 155.8526 33.8842 159.1356 23.0942 162.3706 23.0942 165.6216 33.8792"></polygon>
                    <polygon id="Fill-55" fill="#FF9C39" mask="url(#mask-2)" points="174.544 38.73 177.922 38.73 177.922 15.901 174.544 15.901"></polygon>
                </g>
            </g>
        </g>
    </g>
</svg>