<?xml version="1.0" encoding="UTF-8"?>
<svg width="72px" height="15px" viewBox="0 0 72 15" version="1.1" xmlns="http://www.w3.org/2000/svg" xmlns:xlink="http://www.w3.org/1999/xlink">
    <!-- Generator: sketchtool 51.2 (57519) - http://www.bohemiancoding.com/sketch -->
    <title>74D13257-2E66-4B94-9C94-0E680E8179AD</title>
    <desc>Created with sketchtool.</desc>
    <defs></defs>
    <g id="Style-Guide-" stroke="none" stroke-width="1" fill="none" fill-rule="evenodd">
        <g id="Styleguide---Homepage" transform="translate(-86.000000, -1044.000000)">
            <g id="logo_name" transform="translate(86.000000, 1044.000000)">
                <g id="Group-40">
                    <polygon id="Fill-12" fill="#00A7A7" points="10.3836433 0 10.3836433 10.8488425 8.60140417 10.8488425 8.60140417 3.11533207 5.30026565 8.57032258 5.08406072 8.56998102 1.78223909 3.09859583 1.78223909 10.8488425 0 10.8488425 0 0 1.92193548 0 5.1943833 5.42322581 8.47571157 0"></polygon>
                    <path d="M13.8668799,8.85249661 C14.3320792,9.3173543 14.9055516,9.54995392 15.5872974,9.54995392 C16.2693847,9.54995392 16.8428571,9.3173543 17.3073733,8.85249661 C17.7729141,8.38763893 18.0048306,7.80391976 18.0048306,7.10133912 C18.0048306,6.39875847 17.7729141,5.81469775 17.3073733,5.34984007 C16.8428571,4.88498238 16.2693847,4.65238276 15.5872974,4.65238276 C14.9055516,4.65238276 14.3320792,4.88498238 13.8668799,5.34984007 C13.4023638,5.81469775 13.1697642,6.39875847 13.1697642,7.10133912 C13.1697642,7.80391976 13.4023638,8.38763893 13.8668799,8.85249661 M15.5872974,11.1771266 C14.4505991,11.1771266 13.4846788,10.7846788 12.6891949,9.99910003 C11.893711,9.21420439 11.4957983,8.24794253 11.4957983,7.10133912 C11.4957983,5.95439414 11.893711,4.98847384 12.6891949,4.20289509 C13.4846788,3.41799946 14.4505991,3.02521008 15.5872974,3.02521008 C16.7342423,3.02521008 17.7025535,3.41799946 18.4932556,4.20289509 C19.2836162,4.98847384 19.679138,5.95439414 19.679138,7.10133912 C19.679138,8.24794253 19.2836162,9.21420439 18.4932556,9.99910003 C17.7025535,10.7846788 16.7342423,11.1771266 15.5872974,11.1771266" id="Fill-13" fill="#00A7A7"></path>
                    <path d="M25.2525996,3.02521008 C26.1409867,3.02521008 26.8589374,3.30938466 27.4067932,3.8777338 C27.9543074,4.44574139 28.2282353,5.22585525 28.2282353,6.2177338 L28.2282353,10.9756086 L26.554611,10.9756086 L26.554611,6.38817024 C26.554611,5.80957441 26.399203,5.36555164 26.0894118,5.05541881 C25.7796205,4.74562754 25.3557495,4.59056113 24.818482,4.59056113 C24.2296395,4.59056113 23.7541935,4.77397669 23.3928273,5.14046625 C23.030778,5.50763893 22.8504364,6.06813229 22.8504364,6.82228788 L22.8504364,10.9756086 L21.1764706,10.9756086 L21.1764706,3.22672811 L22.8504364,3.22672811 L22.8504364,4.21860667 C23.3562808,3.4231228 24.1572296,3.02521008 25.2525996,3.02521008" id="Fill-14" fill="#00A7A7"></path>
                    <path d="M30.7778043,6.45033342 L35.3345026,6.45033342 C35.2204229,5.82016265 34.9594741,5.34471673 34.5516563,5.02433722 C34.1434969,4.70429927 33.6656601,4.54410951 33.1181458,4.54410951 C32.4982217,4.54410951 31.981106,4.71454595 31.5681648,5.05541881 C31.1548821,5.39663323 30.8915424,5.86114936 30.7778043,6.45033342 Z M30.7931743,7.81416644 C30.9171591,8.40300895 31.2013337,8.85522906 31.645698,9.17014367 C32.0900623,9.48539984 32.6324532,9.64285714 33.2732123,9.64285714 C34.1615993,9.64285714 34.8279751,9.32281919 35.2723394,8.68206018 L36.6515424,9.48813229 C35.8867986,10.6142423 34.7555652,11.1771266 33.2575007,11.1771266 C31.9968176,11.1771266 30.9793223,10.7925346 30.2043318,10.0226674 C29.4296828,9.25314177 29.0420168,8.27902413 29.0420168,7.10133912 C29.0420168,5.94414747 29.4242179,4.97549471 30.1889618,4.19538086 C30.9537056,3.41526701 31.9349959,3.02521008 33.1335159,3.02521008 C34.2702142,3.02521008 35.202662,3.4231228 35.9308593,4.21860667 C36.6593982,5.01409054 37.0234969,5.9803524 37.0234969,7.11670914 C37.0234969,7.29261046 37.0030035,7.52486853 36.9613337,7.81416644 L30.7931743,7.81416644 Z" id="Fill-15" fill="#00A7A7"></path>
                    <path d="M43.6343128,3.6302521 L45.4168935,3.6302521 L42.4409162,11.6271022 C41.6970073,13.6316942 40.4363242,14.581903 38.65955,14.478753 L38.65955,12.9137436 C39.1865709,12.9448252 39.6101003,12.8334779 39.9301382,12.5803849 C40.2505178,12.3269504 40.5138574,11.9317701 40.7208403,11.3948441 L40.798032,11.2397777 L37.512605,3.6302521 L39.3416373,3.6302521 L41.6519219,9.25533749 L43.6343128,3.6302521 Z" id="Fill-16" fill="#00A7A7"></path>
                    <path d="M48.87344,8.40774194 C49.6122255,9.14686907 50.52418,9.51609108 51.6089618,9.51609108 C52.6940851,9.51609108 53.6053565,9.14686907 54.3444836,8.40774194 C55.0829276,7.66929791 55.4524912,6.74197343 55.4524912,5.6257685 C55.4524912,4.50990512 55.0829276,3.5829222 54.3444836,2.84379507 C53.6053565,2.10535104 52.6940851,1.73578748 51.6089618,1.73578748 C50.52418,1.73578748 49.6122255,2.10535104 48.87344,2.84379507 C48.1346544,3.5829222 47.7654324,4.50990512 47.7654324,5.6257685 C47.7654324,6.74197343 48.1346544,7.66929791 48.87344,8.40774194 M55.5997018,9.61685009 C54.5094551,10.7067552 53.1790946,11.2518786 51.6089618,11.2518786 C50.0381458,11.2518786 48.7081269,10.7067552 47.6182217,9.61685009 C46.5279751,8.52694497 45.9831933,7.19658444 45.9831933,5.6257685 C45.9831933,4.05563567 46.5279751,2.72527514 47.6182217,1.63502846 C48.7081269,0.54512334 50.0381458,0 51.6089618,0 C53.1790946,0 54.5094551,0.54512334 55.5997018,1.63502846 C56.6899485,2.72527514 57.2347303,4.05563567 57.2347303,5.6257685 C57.2347303,7.19658444 56.6899485,8.52694497 55.5997018,9.61685009" id="Fill-17" fill="#FF9C39"></path>
                    <polygon id="Fill-18" fill="#FF9C39" points="67.7087395 3.6302521 69.475267 3.6302521 67.0423638 11.3791326 65.399138 11.3791326 63.7565953 6.08979669 62.113711 11.3791326 60.3379615 11.3791326 58.0840336 3.6302521 59.8550014 3.6302521 61.3544321 8.97765248 62.9816048 3.6302521 64.5848685 3.6302521 66.1963296 8.97492003"></polygon>
                    <polygon id="Fill-19" fill="#FF9C39" points="70.1848739 11.3137002 71.8584982 11.3137002 71.8584982 0 70.1848739 0"></polygon>
                </g>
            </g>
        </g>
    </g>
</svg>