<?xml version="1.0" encoding="UTF-8"?>
<svg width="44px" height="45px" viewBox="0 0 44 45" version="1.1" xmlns="http://www.w3.org/2000/svg" xmlns:xlink="http://www.w3.org/1999/xlink">
    <!-- Generator: sketchtool 51.1 (57501) - http://www.bohemiancoding.com/sketch -->
    <title>E87D5479-5E80-4B07-B9CE-0DEFA98F66C1</title>
    <desc>Created with sketchtool.</desc>
    <defs>
        <polygon id="path-1" points="0.0560786165 0.3825 7.64768319 0.3825 7.64768319 7.97798771 0.0560786165 7.97798771"></polygon>
        <polygon id="path-3" points="0 0.251140909 17.6068003 0.251140909 17.6068003 35.5605955 0 35.5605955"></polygon>
        <polygon id="path-5" points="0.0844334112 0.110536364 10.661507 0.110536364 10.661507 19.2272727 0.0844334112 19.2272727"></polygon>
    </defs>
    <g id="Web" stroke="none" stroke-width="1" fill="none" fill-rule="evenodd">
        <g id="Insurance-Results:-Coverage-you-need" transform="translate(-669.000000, -361.000000)">
            <g id="Group-17" transform="translate(606.000000, 341.000000)">
                <g id="Group" transform="translate(63.000000, 20.000000)">
                    <path d="M27.9946648,10.6129484 C30.1269142,10.8465359 32.0449344,9.30603033 32.2779923,7.17276503 C32.5114686,5.03949974 30.9721151,3.12098426 28.8398657,2.88697812 C26.7076163,2.65380921 24.789596,4.19389615 24.5561197,6.32716144 C24.3226434,8.46042674 25.861997,10.3793608 27.9946648,10.6129484" id="Fill-1" fill="#00A7A7"></path>
                    <g id="Group-5" transform="translate(1.226636, 0.000000)">
                        <mask id="mask-2" fill="white">
                            <use xlink:href="#path-1"></use>
                        </mask>
                        <g id="Clip-4"></g>
                        <path d="M3.43911799,7.9551 C5.52276285,8.18337273 7.39706192,6.67832727 7.62480724,4.59319091 C7.85296145,2.50846364 6.34869743,0.6336 4.26505257,0.404918182 C2.18140771,0.177054545 0.307108645,1.6821 0.0789544393,3.76682727 C-0.149199766,5.85155455 1.35506425,7.72682727 3.43911799,7.9551" id="Fill-3" fill="#00A7A7" mask="url(#mask-2)"></path>
                    </g>
                    <path d="M27.6848347,19.1384739 L33.6110147,25.2763358 C34.409188,26.103025 35.7314061,26.1307171 36.564461,25.3390502 C37.3971055,24.546976 37.4254212,23.2348614 36.6276583,22.4081722 L26.8378272,12.2696232 L26.8337234,12.2736956 C26.0589414,11.4030249 24.9718663,10.8015372 23.7169491,10.6655204 C21.0413246,10.3747538 18.634904,12.291614 18.3418985,14.9467931 L16.7640187,29.2509598 L19.0625115,29.5005955 L20.1701051,45 L25.043271,45 L25.043271,30.1505442 L26.4533087,30.303665 L27.6848347,19.1384739 Z" id="Fill-6" fill="#00A7A7"></path>
                    <g id="Group-10" transform="translate(0.000000, 9.409091)">
                        <mask id="mask-4" fill="white">
                            <use xlink:href="#path-3"></use>
                        </mask>
                        <g id="Clip-9"></g>
                        <path d="M17.3006717,9.40373182 C17.9004965,8.42273182 17.5917932,7.14105 16.6113026,6.54091364 L6.97689836,1.05295909 C6.25686332,0.548959091 5.38268107,0.251140909 4.43735397,0.251140909 C1.98653621,0.251140909 -0.000204439252,2.23891364 -0.000204439252,4.69059545 L-0.000204439252,17.7753682 L2.01270444,17.7753682 L2.78712033,35.5605955 L7.37228388,35.5605955 L7.37228388,17.7753682 L8.8745035,17.7753682 L8.8745035,6.92382273 L14.43934,10.0938682 C15.4198306,10.6935955 16.700847,10.3847318 17.3006717,9.40373182" id="Fill-8" fill="#00A7A7" mask="url(#mask-4)"></path>
                    </g>
                    <g id="Group-13" transform="translate(32.710280, 25.772727)">
                        <mask id="mask-6" fill="white">
                            <use xlink:href="#path-5"></use>
                        </mask>
                        <g id="Clip-12"></g>
                        <path d="M2.07894276,5.48680909 L2.17952687,3.21021818 C2.22164136,2.25049091 3.00668808,1.49858182 3.96755257,1.49858182 L6.77859229,1.49858182 C7.73945678,1.49858182 8.5245035,2.25049091 8.56702687,3.21021818 L8.66761098,5.48680909 L2.07894276,5.48680909 Z M9.27561332,19.2273545 L10.6617114,19.1659909 L9.953125,3.14885455 C9.8770736,1.44499091 8.48320678,0.110536364 6.77859229,0.110536364 L3.96755257,0.110536364 C2.26212033,0.110536364 0.868253505,1.44499091 0.793428738,3.14885455 L0.0844334112,19.1659909 L1.47053154,19.2273545 L2.01761098,6.87485455 L8.72935164,6.87485455 L9.27561332,19.2273545 Z" id="Fill-11" fill="#00A7A7" mask="url(#mask-6)"></path>
                    </g>
                </g>
            </g>
        </g>
    </g>
</svg>