<svg xmlns="http://www.w3.org/2000/svg" xmlns:xlink="http://www.w3.org/1999/xlink" width="100" height="100" viewBox="0 0 100 100">
    <defs>
        <circle id="a" cx="50" cy="50" r="50"/>
    </defs>
    <g fill="none" fill-rule="evenodd">
        <mask id="b" fill="#fff">
            <use xlink:href="#a"/>
        </mask>
        <use fill="#FFF" xlink:href="#a"/>
        <path fill="#CBF1F1" d="M73.086 36.757c2.465 3.94 3.943 8.865 3.943 14.774h24.693c0-11.393-2.85-20.888-7.6-28.483L73.086 36.757" mask="url(#b)"/>
        <path fill="#FFF" d="M-12 51h124v53H-12z" mask="url(#b)"/>
        <path fill="#005150" d="M-12 68h124v53H-12z" mask="url(#b)"/>
        <path fill="#9DE9E9" d="M63.23 27.893c3.943 1.97 7.393 4.924 9.856 8.864l21.036-13.71C89.372 15.453 82.72 9.757 75.12 5.958L63.23 27.894" mask="url(#b)"/>
        <path fill="#00BCBC" d="M50.417 25.351c-4.604 0-9.208 1.023-13.3 3.067L24.775 5.648c7.89-3.941 16.766-5.913 25.642-5.913 8.877 0 17.753 1.972 25.643 5.914l-12.342 22.77c-4.092-2.045-8.696-3.068-13.3-3.068z" mask="url(#b)"/>
        <path fill="#008181" d="M27.749 36.757c2.464-3.94 5.913-6.894 9.856-8.864L25.715 5.958c-7.6 3.798-14.25 9.494-19.001 17.09l21.035 13.709" mask="url(#b)"/>
        <path fill="#005150" d="M23.806 51.531c0-5.91 1.479-10.834 3.943-14.774L6.714 23.047C1.964 30.644-.887 40.139-.887 51.532h24.693" mask="url(#b)"/>
        <path fill="#98D5D4" d="M65.757 51.136a1.887 1.887 0 0 1-1.892-1.883c0-7.987-6.523-14.485-14.54-14.485-8.02 0-14.543 6.497-14.543 14.485 0 1.04-.846 1.883-1.89 1.883A1.888 1.888 0 0 1 31 49.253C31 39.188 39.22 31 49.324 31c10.104 0 18.324 8.188 18.324 18.253 0 1.04-.847 1.883-1.891 1.883" mask="url(#b)"/>
        <path fill="#FF9600" d="M41.93 55.318L11.943 42.402l32.65 1.54A9.238 9.238 0 0 1 50.275 42c5.122 0 9.274 4.15 9.274 9.267 0 5.119-4.152 9.268-9.274 9.268a9.275 9.275 0 0 1-8.344-5.217z" mask="url(#b)"/>
        <path fill="#FFF" d="M50.305 47a4.303 4.303 0 1 1 0 8.604A4.304 4.304 0 0 1 46 51.302 4.304 4.304 0 0 1 50.305 47M36 85.373v-9.256h2.444v7.28h3.913v1.976H36zm12.253.117c-.945 0-1.768-.193-2.47-.578a3.93 3.93 0 0 1-1.619-1.658c-.377-.72-.565-1.56-.565-2.522 0-.962.19-1.798.572-2.509.38-.71.92-1.259 1.618-1.644.698-.386 1.519-.579 2.464-.579.944 0 1.765.193 2.463.579a3.917 3.917 0 0 1 1.606 1.644c.372.71.559 1.547.559 2.509s-.187 1.803-.56 2.522a3.9 3.9 0 0 1-1.605 1.657c-.698.386-1.519.579-2.463.579zm0-1.859c.693 0 1.237-.247 1.631-.741.394-.494.592-1.213.592-2.158 0-.936-.198-1.649-.592-2.138-.394-.49-.938-.735-1.631-.735-.694 0-1.235.243-1.625.728-.39.485-.585 1.2-.585 2.145 0 .953.195 1.675.585 2.165.39.49.931.734 1.625.734zm17.063-7.514h2.314l-3.315 9.256h-1.937l-1.937-5.499-1.976 5.499h-1.937l-3.302-9.256h2.483l1.898 5.837 2.067-5.837h1.664l1.99 5.941 1.988-5.941z" mask="url(#b)"/>
    </g>
</svg>
