<svg xmlns="http://www.w3.org/2000/svg" xmlns:xlink="http://www.w3.org/1999/xlink" width="55" height="50" viewBox="0 0 55 50">
    <defs>
        <ellipse id="a" cx="4.689" cy="4.595" rx="4.689" ry="4.556"/>
    </defs>
    <g fill="none" fill-rule="evenodd">
        <g transform="rotate(-45 37.996 7.253)">
            <rect width="40" height="29" fill="#FFF" rx="1"/>
            <path fill="#A2D7C5" d="M0 0h40L20.697 18.757a1 1 0 0 1-1.394 0L0 0z"/>
            <g transform="rotate(-30 47.18 -37.187)">
                <ellipse cx="5.782" cy="5.737" fill="#FFF" stroke="#2D8289" stroke-width=".2" rx="5.782" ry="5.737"/>
                <g transform="translate(1.09 1.083)">
                    <mask id="b" fill="#fff">
                        <use xlink:href="#a"/>
                    </mask>
                    <use stroke="#2D8289" stroke-width=".2" xlink:href="#a"/>
                    <path stroke="#2D8289" stroke-width=".2" d="M7.589 10.352V5.094c0-.101-.006-.202-.017-.3a3.283 3.283 0 0 1 .097-1.216c.02-.074.038-.15.055-.23.044-.205-.18-.363-.364-.258-.084.047-.17.092-.256.133a.288.288 0 0 1-.326-.056 2.848 2.848 0 0 0-2.012-.825c-.787 0-1.499.316-2.011.825a.288.288 0 0 1-.326.055 3.838 3.838 0 0 1-.255-.132c-.186-.105-.409.053-.365.258.017.079.035.155.055.228.106.397.143.808.097 1.216-.011.1-.017.2-.017.302v1.363c0 1.732 1.063 3.225 2.586 3.895H2.505h5.946-.862z" mask="url(#b)"/>
                    <path stroke="#2D8289" stroke-width=".2" d="M4.766 4.491a1.234 1.234 0 0 0-1.16-.797c-.683 0-1.236.542-1.236 1.21 0 1.378.136 2.494 2.396 2.494 2.135 0 2.396-1.116 2.396-2.494 0-.668-.552-1.21-1.234-1.21-.535 0-.99.332-1.162.797z" mask="url(#b)" opacity=".901"/>
                    <path stroke="#2D8289" stroke-width=".2" d="M5.028 6.404l.274-.494a.143.143 0 0 0-.022-.169l-.404-.415a.144.144 0 0 0-.205 0l-.404.415a.143.143 0 0 0-.022.17l.274.493c.11.196.4.196.509 0" mask="url(#b)"/>
                    <g fill="#2D8289" mask="url(#b)">
                        <g transform="translate(3.382 4.763)">
                            <ellipse cx="2.327" cy=".307" rx="1" ry="1"/>
                            <ellipse cx=".36" cy=".307" rx="1" ry="1"/>
                        </g>
                    </g>
                    <path stroke="#2D8289" stroke-width=".2" d="M1.915 6.106a3.65 3.65 0 0 0-.55.652 3.625 3.625 0 0 0-.414.744" mask="url(#b)"/>
                    <path stroke="#2D8289" stroke-width=".2" d="M9.268 6.543l-1.662-.877" mask="url(#b)" transform="matrix(-1 0 0 1 16.874 0)"/>
                </g>
            </g>
        </g>
        <path stroke="#A2D7C5" stroke-linecap="round" stroke-width="2" d="M18.5 6.5h-17M14.5 11.25h-13M10.5 16.25h-9M10.5 46.208h-9"/>
    </g>
</svg>
