<svg xmlns="http://www.w3.org/2000/svg" xmlns:xlink="http://www.w3.org/1999/xlink" width="375" height="315" viewBox="0 0 375 315">
    <defs>
        <path id="a" d="M0-1h375v315H0z"/>
        <path id="c" d="M.312.303h83.08v56.109H.311z"/>
        <path id="e" d="M.166.247h89.433V99.16H.166z"/>
        <path id="g" d="M.267.188h106.969V90.4H.267z"/>
    </defs>
    <g fill="none" fill-rule="evenodd" transform="translate(0 1)">
        <mask id="b" fill="#fff">
            <use xlink:href="#a"/>
        </mask>
        <use fill="#00A7A7" xlink:href="#a"/>
        <g mask="url(#b)">
            <path fill="#00A7A7" d="M-18 313.65h410.876V40H-18z"/>
            <path fill="#005960" fill-opacity=".3" d="M330.982 103.279c-46.96 0-86.98 29.705-102.299 71.35-3.69-.378-7.435-.573-11.225-.573-28.022 0-53.57 10.58-72.876 27.96-11.533-23.353-35.444-39.496-63.166-39.86-16.507-25.519-45.213-42.41-77.867-42.41-51.184 0-92.677 41.494-92.677 92.677 0 51.184 41.493 92.677 92.677 92.677 14.765 0 28.72-3.459 41.108-9.601 10.528 6.104 22.756 9.6 35.8 9.6 10.397 0 20.273-2.221 29.185-6.212 7.68 52.663 53.022 93.108 107.816 93.108 46.96 0 86.98-29.705 102.299-71.35 3.69.378 7.435.572 11.225.572 60.182 0 108.97-48.787 108.97-108.969 0-60.182-48.788-108.97-108.97-108.97"/>
            <path fill="#004472" d="M254.758 93.293l-22.336-4.444-8.33-25.312c-6.634-23.537 10.09-20.844 18.476-20.392l11.953.645c10.648.574 18.814 9.67 18.24 20.319 0 0-1.575 12.861-3.167 16.838-4.064 10.15-12.214 12.488-14.836 12.346"/>
            <g transform="translate(286.133 257.238)">
                <mask id="d" fill="#fff">
                    <use xlink:href="#c"/>
                </mask>
                <path fill="#005960" d="M82.56 39.28L69.187 8.219c-2.222-5.157-8.208-7.54-13.37-5.322l-8.945 3.853C43.904 2.846 39.124.303 33.74.303c-8.985 0-16.295 7.072-16.295 15.766 0 1.094.117 2.167.34 3.197L6.466 24.142c-5.162 2.218-7.545 8.21-5.323 13.367l13.371 31.063c2.222 5.164 8.208 7.548 13.37 5.322l49.352-21.239c5.161-2.225 7.545-8.21 5.322-13.374M23.207 16.069c0-5.517 4.725-10.004 10.533-10.004 2.976 0 5.663 1.18 7.58 3.075l-18.068 7.778a9.451 9.451 0 0 1-.045-.85" mask="url(#d)"/>
            </g>
            <path fill="#FF7900" d="M128.79 130.178l-25.598-24.676-1.613-9.79c-.392 2.118-1.907 6.949-2.826 9.169-2.316 5.594-6.902 9.628-12.331 11.49-3.542 1.213-5.335 1-6.727 1-10.938 0-19.806 8.868-19.806 19.808v4.4c0 10.94 8.868 19.806 19.806 19.806 8.862 0 32.276-3.14 34.806-11.17l14.289-20.037z"/>
            <path fill="#FFC8A6" d="M179.779 214.738l33.588-34.138-8.13-8.577-44.034 37.134 1.257 2.859c4.835 7.613 12.136 8.477 17.319 2.722M79.751 216.863l-25.267 39.54-10.591-5.243 26.68-52.288 3.546-.605c6.99 3.328 9.6 11.948 5.632 18.596"/>
            <path fill="#FAB08A" d="M322.796 239.442l-12.028-.267-.996 14.88c-.033.497-.04.994-.02 1.49l.352 8.874a2.834 2.834 0 0 0 2.227 2.658l5.214 1.13a2.824 2.824 0 0 0 3.252-1.764l2.616-6.9a18.166 18.166 0 0 0 .988-9.046l-1.605-11.055z"/>
            <path fill="#FFC8A6" d="M46.074 248.041L34.352 257.7a4.215 4.215 0 0 0-1.428 2.305l-2.116 9.212a4.66 4.66 0 0 0 2.509 5.235l2.508 1.21a4.49 4.49 0 0 0 5.376-1.13l3.406-6.82a8.65 8.65 0 0 1 1.303-1.91l8.574-9.398-8.41-8.362zM69.117 201.724l11.657 13.015 19.618-50.502c2.31-6.122-.932-12.935-7.137-14.995-6.102-2.024-12.681 1.34-14.61 7.469l-9.528 45.013zM178.604 204.036l-16.143 7.98-21.247-48.297c-2.421-5.085-2.26-9.78 3.736-12.388 5.896-2.564 15.803 8.174 17.851 13.317l15.803 39.388z"/>
            <path fill="#004472" d="M274.292 113.679l-28.778-12.641-27.595 8.65c-11.958 3.305-22.885 9.282-23.63 19.986l12.164 28.131 29.709 19.763 38.908-13.302 18.889-26.13c.748-10.752-8.337-19.599-19.667-24.457"/>
            <path fill="#FFC8A6" d="M142.174 143.272l-21.787-5.496-20.22 2.478c-9.039 1.483-9.31 2.247-13.151 5.077-5.594 4.12-9.198 10.048-9.705 17.307l11.851 14.39 22.709 31.416 34.47-27.642 17.197-14.433c-3.78-8.873-5.285-11.848-9.807-16.601-3.585-3.767-6.513-5.229-11.557-6.496"/>
            <path fill="#F1EBDF" d="M165.76 172.023l-2.256-5.625.034-.029a194.2 194.2 0 0 0-.733-1.707c-.071-.18-.149-.36-.234-.54-3.104-7.166-4.726-10.033-8.84-14.354-3.585-3.767-6.514-5.229-11.557-6.503l-.888.77c-12.06 10.393-30.282 8.974-40.591-3.161l-.528-.62c-9.039 1.483-9.31 2.247-13.151 5.077-5.594 4.12-9.198 10.047-9.705 17.307l.062.08-1.329 6.273 15.448 14.447 1.741-.778 18.638 25.784 34.47-27.642 1.744-1.462 1.322 3.003 16.353-10.32z"/>
            <path fill="#FAB08A" d="M315.665 193.067l7.13 46.375-11.415 3.061-16.33-58.518 4.102-1.166c7.449-2.11 15.102 2.636 16.513 10.248"/>
            <path fill="#004472" d="M295.05 193.593l20.241-2.03-22.375-60.765c-2.225-5.43-10.834-9.977-16.791-7.282-5.858 2.65-8.943 16.111-6.423 21.311l25.347 48.766z"/>
            <path fill="#004472" d="M295.05 193.593l13.283 46.447a11.19 11.19 0 0 0 13.788-4.22l.13-.203-6.586-42.55c-1.411-7.612-9.064-12.358-16.512-10.248l-4.104 10.774zM242.963 117.752l-37.11 12.585-8.451 134.442c22.573.014 39.193-17.869 40-40.642l5.561-106.385z"/>
            <path fill="#004472" d="M276.252 268.294l7.624-133.636-40.697-18.83-1.315.459-4.6 108.297c-.89 22.665 16.633 41.887 38.988 43.71l-1.456-.058 1.456.058z"/>
            <path fill="#F79C82" d="M233.06 115.252l1.638-25.971 20.695.93-1.637 25.97c-.129 2.853-20.805 1.517-20.696-.929"/>
            <g transform="translate(188.376 214.491)">
                <mask id="f" fill="#fff">
                    <use xlink:href="#e"/>
                </mask>
                <path fill="#004472" d="M29.798 130.945c-.152-3.868 14.554-60.995 16.97-67.578.152-.418.294-.843.43-1.282.786-2.55 4.517-2.175 4.817.476.712 6.287 1.492 13.014 2.142 19.856 2.468 26 5.908 53 6.105 53.98l.464.1a43.952 43.952 0 0 0 28.873-3.262c-.066-12.07-1.013-32.057-1.014-48.333 0-27.902-1.439-41.542-1.357-53.83.082-12.293-18.003-6.913-28.734-1.735 3.73-11.898 5.572-22.19 1.082-26.828-9.895-10.227-43.508 16.04-49.666 42.55-1.327 5.719-10.932 77.502-9.622 85.814" mask="url(#f)"/>
            </g>
            <path fill="#F1EBDF" d="M240.926 156.437a162.26 162.26 0 0 0 15.071-42.14l-9.932 4.093-3.102-.638-14.814-11.271s4.912 35.257 11.08 50.1l.655 1.498.158.05.884-1.692z"/>
            <path fill="#004472" d="M189.099 188.861l-20.023-3.6 25.594-58.093c2.642-5.25 13.03-9.844 18.76-6.693 5.633 3.099 7.66 16.754 4.742 21.745L189.1 188.861z"/>
            <path fill="#1D2342" d="M240.365 126.109l-6.139-10.282 16.656 3.494-5.794 6.968c-.862 2.21-4.035 2.089-4.723-.18"/>
            <path fill="#F1EBDF" d="M243.408 117.865l-9.757 9.303-5.502-20.687 5.713-1.99z"/>
            <path fill="#F1EBDF" d="M243.004 117.865l9.756 9.303 6.374-20.032-4.59-3.449z"/>
            <path fill="#1D2342" d="M246.54 157.379l-10.762 4.344 4.548-35.917 4.805.375"/>
            <path fill="#FAB08A" d="M253.187 93.097c-1.633.968-6.641 3.688-6.641 3.688-4.023 2.233-8.798 2.083-12.672-.4 0 0-4.866-2.973-6.396-4.098-4.51-3.316-4.246-7.477-4.08-12.756l.444-14.105c.175-5.533 5.008-9.768 10.545-9.238l23.25 2.22 3.421 23.995c-.166 5.279-3.239 7.952-7.871 10.694"/>
            <path fill="#005960" d="M138.958 223.972l-51.61 9.55 1.814-56.494 57.827-4.797-2.817 45.878a6.391 6.391 0 0 1-5.214 5.863"/>
            <g transform="translate(77.304 223.25)">
                <mask id="h" fill="#fff">
                    <use xlink:href="#g"/>
                </mask>
                <path fill="#004472" d="M107.236 116.013c-2.773 37.854-49.507 62.277-87.25 58.258L7.16 172.91S-10.239 82.444 10.248.188l52.1.403 44.888 115.422z" mask="url(#h)"/>
            </g>
            <path fill="#004472" d="M264.227 86.594l.199-3.675a4.351 4.351 0 1 0-8.691-.468l-.461 8.55c-.043.801.137 1.56.48 2.226 3.217-1.548 6.104-3.814 8.473-6.633M262.276 66.047l.339-6.277a4.351 4.351 0 1 0-8.691-.468l-.461 8.55a4.352 4.352 0 0 0 5.864 4.311l-.55 2.402 8.449-.002.444-8.225-5.394-.291z"/>
            <path fill="#FAB08A" d="M256.5 83.664l-5.43-.474.93-10.664 4.544-.878c2.38-.462 4.541 1.485 4.33 3.903l-.418 4.794a3.652 3.652 0 0 1-3.955 3.32"/>
            <path fill="#006FAD" d="M257.064 154.658h16.341v-5.524h-16.341zM228.17 106.48l-10.231 3.207a72.62 72.62 0 0 0-4.142 1.277l3.41 15.527 8.712 3.817-4.938 5.48 17.521 34.132 1.26-12.964c-8.192-18.755-11.593-50.473-11.593-50.475"/>
            <path fill="#006FAD" d="M258.826 106.732l9.762 4.432a73.16 73.16 0 0 1 3.956 1.773l-5.28 14.994-9.113 2.722 4.231 6.05-23.827 32.67 1.208-12.417c8.372-10.263 19.062-50.222 19.063-50.224M318.266 223.439a1.846 1.846 0 0 1-3.691 0c0-1.023.826-1.844 1.846-1.844s1.845.821 1.845 1.844M319.842 231.318a1.846 1.846 0 0 1-3.691 0c0-1.023.825-1.851 1.845-1.851s1.846.828 1.846 1.851"/>
            <path fill="#FF7900" d="M144.143 104.754c-.888 13.644-10.401 24.949-22.755 24.15-12.353-.807-21.648-12.52-20.759-26.164.889-13.645 6.153-24.481 23.978-23.25 16.9 1.17 20.425 11.62 19.536 25.264"/>
            <path fill="#FFC8A6" d="M110.109 143.394l1.58-25.976 18.224.819-1.582 25.97c-.127 2.853-18.332 1.629-18.222-.813"/>
            <path fill="#FFC8A6" d="M126.59 134.19c-3.481 2.124-8.281 1.786-11.376-.872-10.366-8.887-11.328-16.25-10.987-20.704l1.786-18.291h24.968l10.233 5.672-1.56 15.332c-.342 4.454-3.84 13.245-13.064 18.863"/>
            <path fill="#FF7900" d="M118.41 103.272l-16.536-1.657 4.116-14.235 26.716 2.678-.192 1.774c-.763 7.04-7.059 12.146-14.104 11.44"/>
            <path fill="#FF7900" d="M142.002 107.36l.622-.572.244-13.138-11.526-2.58-.244 1.768c-.97 7.013 3.898 13.497 10.904 14.522"/>
            <path fill="#005960" d="M145.47 144.352c-4.145 10.162-6.357 15.989-25.045 15.391-23.556-.756-22.183-18.466-22.063-19.18-4.191.34-2.909.562-2.909.562l-6.29 35.903 22.708 31.416 34.47-27.642 2.641-34.945-3.513-1.505z"/>
            <path fill="#118C8C" d="M143.128 142.876l-1.971 5.502c-10.295 28.737-27.287 54.246-49.6 74.686h-8.891c-5.436 0-9.843 4.408-9.843 9.845v6.295c0 5.438 4.407 9.846 9.843 9.846h9.363c5.436 0 9.843-4.408 9.843-9.846v-6.295c0-3.233-1.563-6.085-3.967-7.886 21.794-20.67 38.444-46.137 48.676-74.7l1.864-5.2-5.317-2.247z"/>
            <path fill="#FF7900" d="M103.914 108.4l-2.578-.32 1.011-8.175 6.926.857-.474 3.828a4.38 4.38 0 0 1-4.885 3.81M139.54 104.848l-.473 3.828c-.278 2.246 1.092 4.278 3.249 4.778.939-2.515 1.478-5.224 1.722-8.049l-4.498-.557z"/>
            <path fill="#FFC8A6" d="M105.069 118.037l2.17-1.093.03-6.993-.085-2.382a3.244 3.244 0 0 0-4.469 2.62l-.494 4.25a3.245 3.245 0 0 0 2.848 3.598M136.464 121.874l-1.613-1.816 2.551-6.512.957-2.182a3.244 3.244 0 0 1 3.187 4.085l-1.106 4.13a3.246 3.246 0 0 1-3.976 2.295"/>
            <path fill="#FAB08A" d="M237.146 164.994l-8.75 2.549a10.559 10.559 0 0 0-4.674 2.816l-7.432 7.685a3.008 3.008 0 0 0-.256 3.874l3.822 5.172a3.004 3.004 0 0 0 4.056.727l10.6-6.929c.09-.057.175-.115.258-.187l7.23-5.905a3.005 3.005 0 0 0 .826-3.58l-2.113-4.595a2.997 2.997 0 0 0-3.567-1.627"/>
            <path fill="#004472" d="M169.076 185.26l48.792-9.96a11.188 11.188 0 0 1 4.33 13.756l-.091.216-38.793 18.675c-2.21.986-4.64 1.044-7.013.432-7.833-2.002-11.987-10.616-9.11-18.17l1.885-4.949z"/>
            <path fill="#FFC8A6" d="M203.835 171.576l-2.588 1.793a3.524 3.524 0 0 0-1.512 2.96l.185 9.601a3.52 3.52 0 0 0 3.07 3.428l4.174.54a3.527 3.527 0 0 0 3.719-2.182l3.324-8.26c.046-.116.087-.238.121-.354l.487-1.721a3.528 3.528 0 0 0-2.224-4.285l-5.58-1.952a3.508 3.508 0 0 0-3.176.432"/>
            <path fill="#006FAD" d="M219.146 187.875c0 1.022-.825 1.85-1.845 1.85a1.848 1.848 0 0 1 0-3.694c1.02 0 1.845.828 1.845 1.844"/>
            <g>
                <path fill="#FFF" d="M119.295 123.51s.64 4.284 5.747 4.707c5.186.43 6.54-3.688 6.54-3.688l-12.287-1.019z"/>
                <path fill="#1D2342" d="M106.58 106.163l8.811 1.463a5.696 5.696 0 0 1 5.21-2.096 5.694 5.694 0 0 1 4.41 3.251l5.772.481a5.703 5.703 0 1 1-1.042 2.6c.06-.452.178-.883.336-1.292l-4.62-.385a5.704 5.704 0 1 1-11.268.239 5.694 5.694 0 0 1 .44-1.544l-8.272-1.374a.68.68 0 0 1-.56-.783c.06-.371.407-.637.783-.56"/>
                <path fill="#F09F7C" d="M127.243 119.94c.38.102.775.196 1.165.13.603-.102.95-.478 1-1.147.04-.547-.321-1.447-.51-1.94a47.78 47.78 0 0 0-1.572-3.627c-.376-.781.763-1.53 1.143-.742.908 1.89 2.598 4.542 2.257 6.722-.311 1.998-2.08 2.305-3.783 1.932-.855-.187-.559-1.517.3-1.329"/>
                <path fill="#3A1311" d="M230.724 74.444a1.324 1.324 0 0 0 1.309-1.33l-.014-1.196a1.32 1.32 0 0 0-1.33-1.303 1.318 1.318 0 0 0-1.301 1.33l.007 1.196c.007.725.611 1.31 1.33 1.303M234.08 67.964a.724.724 0 0 0 .67-.588c.078-.396-.428-.97-.825-1.048-.882-.172-1.53-.224-2.433-.247-1.166-.03-1.492-.073-2.645.15-.398.076-1.522.743-1.443 1.139a.739.739 0 0 0 .853.578 14.944 14.944 0 0 1 3.186-.266c.825.023 1.65.113 2.453.27.064.012.12.016.185.012M246.326 74.468a1.324 1.324 0 0 1-1.309-1.33l.015-1.196a1.32 1.32 0 0 1 1.33-1.303 1.32 1.32 0 0 1 1.3 1.33l-.007 1.197a1.323 1.323 0 0 1-1.33 1.302M243.012 67.988a.73.73 0 0 1-.668-.588c-.078-.395.426-.97.824-1.048.882-.172 1.53-.224 2.433-.247 1.173-.03 1.493-.073 2.645.15.398.075 1.522.743 1.443 1.139a.739.739 0 0 1-.853.578 14.874 14.874 0 0 0-3.186-.265c-.825.02-1.65.112-2.453.269a.727.727 0 0 1-.185.012"/>
                <path fill="#FFF" d="M238.838 87.656h-1.585c-2.596 0-4.7-.57-4.7-3.165h10.985c0 2.595-2.104 3.165-4.7 3.165"/>
                <path fill="#F09F7C" d="M235.155 80.624c.277.128.611.242.974.275.398.038 1.187-.076 1.223-.477.035-.401-.69-.94-1.088-.975-.391-.037-.825-.316-.96-.42a2.204 2.204 0 0 1-.797-1.5 2.242 2.242 0 0 1 .498-1.638l2.226-2.716c.256-.312.32-1.19.007-1.444-.313-.256-.882.207-1.138.519l-2.225 2.716a3.66 3.66 0 0 0-.818 2.707c.1.983.569 1.87 1.337 2.495.057.045.348.268.76.458"/>
            </g>
        </g>
    </g>
</svg>
