<svg xmlns="http://www.w3.org/2000/svg" xmlns:xlink="http://www.w3.org/1999/xlink" width="100" height="100" viewBox="0 0 100 100">
    <defs>
        <path id="a" d="M.012 0H100v100H.012z"/>
    </defs>
    <g fill="none" fill-rule="evenodd">
        <g>
            <mask id="b" fill="#fff">
                <use xlink:href="#a"/>
            </mask>
            <path fill="#005150" d="M50 0c27.614 0 50 22.386 50 50s-22.386 50-50 50S0 77.614 0 50 22.386 0 50 0" mask="url(#b)"/>
        </g>
        <path fill="#008181" d="M50.905 14.77a8.387 8.387 0 0 0 7.562 1.011c.466-.163.774-.61.762-1.103a8.387 8.387 0 0 0-3.623-6.714 8.387 8.387 0 0 0-7.562-1.01c-.466.163-.774.61-.762 1.103a8.387 8.387 0 0 0 3.623 6.714M32.235 27.739a1.253 1.253 0 0 0-.243 1.25c2.092 5.805 6.89 10.323 13.122 11.533a16.89 16.89 0 0 0 7.144-.149c7.054-1.674 8.945-11.418 3.03-15.61-7.053-4.998-16.844-3.971-23.053 2.976M84.152 16.831c.256.168.403.47.377.774-.526 6.274-5.39 10.822-11.243 10.993-4.901.143-7.846-5.891-4.717-9.667 3.73-4.502 10.307-5.549 15.583-2.1"/>
        <path fill="#00BCBC" d="M61.533 23.418c-1.054-4.73-4.342-7.355-4.376-7.381a1.566 1.566 0 0 1-.27-2.193 1.56 1.56 0 0 1 2.186-.279c.171.132 4.203 3.3 5.513 9.172a1.564 1.564 0 0 1-3.053.68M75.057 42.309a1.564 1.564 0 0 0-2.189-.316c-.152.113-3.718 2.85-3.718 8.829V55.8a1.564 1.564 0 0 0 3.127 0v-4.978c0-4.32 2.35-6.234 2.476-6.333.681-.52.818-1.493.304-2.18"/>
        <path fill="#00BCBC" d="M63.06 49.856c-.864 0-1.564-.7-1.564-1.564V23.286c0-9.064 6.008-16.05 6.264-16.343a1.564 1.564 0 0 1 2.357 2.055c-.055.063-5.494 6.422-5.494 14.288v25.006c0 .864-.7 1.564-1.563 1.564"/>
        <path fill="#00BCBC" d="M63.058 45.737a1.564 1.564 0 0 1-1.555-1.417c-.346-3.658-2.168-6.803-5.415-9.348-4.44-3.478-10.257-4.738-15.908-4.513a1.564 1.564 0 0 1-.124-3.125c14.369-.57 23.693 7.523 24.56 16.691a1.564 1.564 0 0 1-1.558 1.712M62.485 33.822a1.564 1.564 0 0 1-.88-2.028c3.834-9.698 13.807-12.408 14.23-12.519a1.564 1.564 0 0 1 .794 3.024c-.088.024-8.876 2.449-12.115 10.644a1.564 1.564 0 0 1-2.03.88"/>
        <path fill="#FF9600" d="M54.043 61.255c4.698 3.211 8.91 3.401 12.628 4.444 5.017.871 9.395 2.49 9.395 5.493 0 .928-.219 1.681-.59 2.293 0 0 11.698-5.482 17.088-8.554.273-.156.546-.293.818-.412-.794-.37-1.024-.155-4.796-.218-1.116 0-2.184-.895-2.957-2.478l-1.929-3.95c-.772-1.584-1.84-2.478-2.956-2.478h-6.33c-.944 0-1.86-.641-2.591-1.815l-2.798-4.488c-.731-1.173-1.646-1.814-2.59-1.814h-6.202c-.944 0-1.86.64-2.591 1.814l-2.797 4.488c-.732 1.174-1.647 1.815-2.591 1.815h-6.33c-1.117 0-2.184.894-2.957 2.477l-.432.885c3.514-.491 7.612-.165 11.508 2.498"/>
        <path fill="#CD7900" d="M51.817 59.985c.56-1.137 1.215-1.76 1.892-1.76h5.404c.806 0 1.587-.88 2.212-2.49l2.388-6.161c.454-1.172.991-1.955 1.561-2.295h-5.041c-.944 0-1.86.64-2.591 1.814l-2.797 4.488c-.732 1.173-1.647 1.814-2.591 1.814h-6.33c-1.117 0-2.184.895-2.957 2.477l-.432.885c2.85-.398 6.083-.259 9.282 1.228"/>
        <path fill="#FFC59D" d="M98.843 64.99c-1.561-1.817-3.86-1.762-6.161-.48-5.39 3.002-17.088 8.36-17.088 8.36.371-.598.59-1.335.59-2.241 0-2.935-4.378-4.517-9.395-5.368-3.857-1.057-7.972-1.233-12.628-4.343-5.398-3.605-11.18-2.83-15.266-1.615-4.387 1.304-7.622.806-10.883.915v22.377c1.801.158 3.868-.144 6.72 1.016 5.011 2.037 18.57 6.583 27.858 6.583 7.647 0 26.579-10.854 35.272-18.322 2.285-1.963 2.935-4.609.981-6.882"/>
        <path fill="#E59768" d="M75.594 72.87c-1.116 1.39-2.982 2.14-4.766 1.89L54.21 72.448a1.563 1.563 0 1 0-.431 3.098l16.618 2.312c2.92.406 5.979-.76 7.962-3.547.142-.209.326-.605 1.53-2.866.112-.211.168-.436.178-.659-2.596 1.223-4.473 2.083-4.473 2.083"/>
        <path fill="#E6F8F8" d="M26.583 54.316h-9.446V87.68c.22.192.442.382.666.57h8.78c1.02 0 1.846-.827 1.846-1.846V56.162c0-1.02-.826-1.846-1.846-1.846"/>
        <path fill="#E6F8F8" d="M26.583 77.35h-8.78a48.728 48.728 0 0 1-.666-.57V87.68c.22.192.442.381.666.57h8.78c1.02 0 1.846-.827 1.846-1.847v-10.9c0 1.019-.826 1.845-1.846 1.845"/>
        <path fill="#008181" d="M15.709 52.34H.056c.658 14.283 7.31 27.001 17.498 35.7V54.184a1.845 1.845 0 0 0-1.845-1.845"/>
        <path fill="#008181" d="M15.709 79.186H9.405a50.284 50.284 0 0 0 8.149 8.854v-10.7a1.845 1.845 0 0 1-1.845 1.846"/>
    </g>
</svg>
