<svg xmlns="http://www.w3.org/2000/svg" width="358" height="291" viewBox="0 0 358 291">
    <g fill="none" fill-rule="evenodd">
        <path fill="#1C2C57" d="M129.713 181.614s93.955-30.729 117.566-74.765c11.377-21.219-4.77-46.001-28.98-45.533-70.787 1.372-96.847 112.965-96.847 112.965l8.26 7.333z"/>
        <path fill="#006769" d="M122.8 188.555l-2.505-1.455c2.597-4.341 63.349-106.25 122.848-114.223l2.074 2.475C187.11 83.136 123.429 187.505 122.8 188.555"/>
        <path fill="#FFD052" d="M57.055 108.907C45.822 94.115 39.29 80.964 35.812 69.558c-9.438-30.954 11.61-63.127 43.96-68.545 18.15-3.043 40.54-.1 61.598 20.929 46.282 46.22-16.072 172.397-16.072 172.397h-22.5s-.849-26.323-45.743-85.432"/>
        <path fill="#118C8C" d="M77.924 196.653S12.51 182.425.643 132.46c-3.69-15.542 9.024-30.288 25-29.476 81.01 4.122 77.275 93.668 77.275 93.668H77.924z"/>
        <path fill="#FFF" d="M114.058 195.496l-2.8-.647c.3-1.28 28.334-128.981-43.014-190.16l3.092-1.219c72.67 62.313 43.024 190.732 42.722 192.026"/>
        <path fill="#006769" d="M93.506 197.81c-.454-.76-46.052-76.067-90.036-80.544l1.628-2.745c45.45 4.625 89.041 78.688 90.907 81.842l-2.499 1.446z"/>
        <path fill="#004060" d="M63.618 273h83.28v-78.661h-83.28z"/>
        <path fill="#A2D7C5" d="M153.76 203.593h-97c-3.226 0-5.866-2.34-5.866-5.206 0-2.862 2.64-5.205 5.866-5.205h97c3.226 0 5.862 2.343 5.862 5.205 0 2.865-2.636 5.206-5.861 5.206"/>
        <g>
            <path fill="#E6E6E6" d="M166.493 107.487l-87.18 172.084L92.968 291h264.757L358 101.23v-.188l-9.198-13.42z"/>
            <path fill="#FFF" d="M79.313 273.667h260.185v-187.2H79.313z"/>
            <path fill="#006769" d="M77 275.978h269.436V84.156H77v191.822zm5.09-5.054h259.256V89.21H82.09v181.714z"/>
            <path fill="#D2F8EB" d="M112.848 241.311h194.271V118.822H112.848z"/>
            <path fill="#003A4C" d="M193.006 243.54l-1.926-38.868c.624-.544-.522-4.71-2.51-8.486h-9.337l.13-1.343-17.908.274a29.533 29.533 0 0 0-2.445 12.424l.814 37.495 14.892-1.736 1.7-17.72 3.364 18.805 13.226-.845zM207.357 152.877l1.88-1.042c3.84-2.055 1.675-3.063 9.963-.807 3.173.863 14.172 9.277 14.172 9.277s11.663-.729 14.878-.91c2.923-.165 6.64 5.018 3.856 6.547l-5.704 1.533-28.52-5.959-10.525-8.639z"/>
            <path fill="#FAE6BB" d="M253.259 162.82c-1.5-1.38-4.109-1.722-4.231-1.45l-.838 1.858c-.71 1.575 1.229 4.377 2.887 4.856a2.83 2.83 0 0 0 3.335-1.497s.853-1.918-1.153-3.767"/>
            <path fill="#003A4C" d="M199.985 152.796l-1.88-1.042c-3.84-2.055.429-3.068-10.328-1.063-3.233.603-13.807 9.534-13.807 9.534s-11.663-.73-14.878-.91c-2.923-.166-6.64 5.017-3.856 6.546l5.704 1.532 39.045-14.597z"/>
            <path fill="#E89561" d="M199.091 153.64h9.219v-9.935h-9.219z"/>
            <path fill="#1C2C57" d="M201.377 130.641a8.567 8.567 0 0 0 1.9 1.534l-2.802-.367c.364-.357.666-.751.902-1.167m7.29-7.768c-3.522-1.637-7.39-.776-8.639 1.922-.037.082-.063.167-.095.25-1.493-.67-3.46-.347-4.953.963-1.518 1.333-2.088 3.288-1.575 4.874-.006-.001 3.15 10.306 3.15 10.306l5.241-1.147 8.88 1.458 2.717-11.685-.032.01c.483-2.537-1.551-5.491-4.694-6.951"/>
            <path fill="#E89561" d="M198.008 141.397l-1.152.006c-1.447.006-2.086-2.332-2.086-2.332-.333-1.105.386-2.285 1.361-2.233l1.57-.002.307 4.56zM208.972 141.397l1.15.006c1.449.006 2.088-2.332 2.088-2.332.333-1.105-.386-2.285-1.362-2.233l-1.569-.002-.307 4.56z"/>
            <path fill="#FFAB78" d="M203.7 126.965c-2.566 0-5.357 1.1-6.666 2.786-1.106 1.424-.935 3.472-.927 3.538l.517 9.143c.253 1.92 4.355 4.743 4.355 4.743a4.74 4.74 0 0 0 5.172 0s3.93-2.26 4.476-4.524l.5-11.992c.109-.564-2.693-3.694-7.426-3.694"/>
            <path fill="#003A4C" d="M218.065 196.238l-29.327.292-3.934-35.61c0-6.331 5.035-11.489 11.354-11.489l7.454.693 7.367-.654c6.32 0 11.528 5.094 11.528 11.426l-4.442 35.342z"/>
            <path fill="#1C2C57" d="M208.159 124.354c-3.522-1.637-7.147-1.302-8.095.747-.258.557-.285 1.183-.127 1.832-.898.072-1.909.405-2.872 1-2.166 1.341-3.263 3.495-2.452 4.812.113.183.26.338.431.47v2.875c0 .463.379.842.841.842h.068c.463 0 .84-.379.84-.842v-2.98c0-.032-.005-.062-.008-.092v-.584a3.05 3.05 0 0 1 3.046-3.053h1.53c.841.912 1.991 1.756 3.364 2.393 3.522 1.637 7.329 1.404 8.277-.645.948-2.05-1.32-5.14-4.843-6.775"/>
            <path fill="#FFF" d="M203.611 150.124l-1.384 1.635a2.288 2.288 0 0 1-3.546-.067l-1.716-2.186 2.13-2.483 4.516 3.101zM203.611 150.124l1.437 1.703a2.288 2.288 0 0 0 3.652-.204l1.406-2.103-1.794-2.32-4.7 2.924z"/>
            <path fill="#3E517C" d="M193.879 168.587c-.292-7.17-4.257-11.57-11.094-11.27l-16.035.664c-6.836.3-9.32 5.105-9.029 12.274l2.254 36.435c1.374.158 2.785.03 4.187.228 7.92 1.112 17.674 1.22 24.637-.08l5.08-38.251z"/>
            <path fill="#FFB385" d="M197.17 230.574l-.493-1.85-1.053-3.66-2.491-15.582a8.233 8.233 0 0 1 .044-2.85l3.599-20.249s-.636-.342-1.125-.133c-2.808 1.2-4.412 4.231-4.81 7.264l-3.415 11.676a8.236 8.236 0 0 0 .085 4.161l4.83 17.05-.338 2.786 1.05 2.7a1.425 1.425 0 0 0 1.738.849l1.413-.426a1.428 1.428 0 0 0 .967-1.736"/>
            <path fill="#00756F" d="M218.05 230.256l-.136-11.213-11.394-3.242.065-.907-1.18.59-.97-.276.085.717-10.608 5.298-.234 9.332.559 14.315h9.835l1.335-13.67.35-4.857.606 5.1 1.963 13.593 9.825-.455z"/>
            <path fill="#FAB08A" d="M243.538 162.015s1.244.17 1.844.346c3.454 1.016 6.338 3.874 7.222 7.37l5.217 14.325-5.487 4.289-8.796-26.33z"/>
            <path fill="#E89561" d="M257.738 183.825c.676 1.605 4.944 21.658 4.944 21.658l-4.21.209-6.774-19.148s5.364-4.324 6.04-2.719"/>
            <path fill="#FAE6BB" d="M262.59 205.173l-4.118.519 1.146 3.907-.371 2.549a1.045 1.045 0 0 0 .985 1.143l2.437.124c.527.027.992-.345 1.081-.867l.708-4.138c.055-.32-.02-.65-.21-.914l-1.658-2.323z"/>
            <path fill="#FFAB78" d="M262.88 166.209s-6.35.443-9.493 8.15l-7.103 15.234-8.582 3.152-1.732 7.808 12.631-5.627a10.628 10.628 0 0 0 5.233-5.064l6.535-13.45 2.511-10.203z"/>
            <path fill="#3E517C" d="M165.195 158.682s-1.247.146-1.85.312c-3.473.952-6.408 3.757-7.356 7.237l-5.476 14.227 6.899 8.025 7.783-29.801z"/>
            <path fill="#58C4C5" d="M250.173 239.96l-1.57-34.511a24.065 24.065 0 0 0-2.738-9.95h-7.61l.106-1.094-14.595.223a24.077 24.077 0 0 0-1.993 10.126l.734 35.287 11.77-.005 1.682-20.578 3.19 20.665 11.024-.163z"/>
            <path fill="#1C2C57" d="M155.175 193.367a6.158 6.158 0 0 0-2.056-1.496l.258-.09c.376.034.76.055 1.162.043a9.208 9.208 0 0 0 3.132-.627 4.2 4.2 0 0 0 1.046 1.464c-.179.353-.32.738-.415 1.151-.995-.603-2.105-.8-3.127-.445zm-2.062-1.612l.003.114a5.797 5.797 0 0 0-.491-.189c.16.029.323.054.488.075zm-3.48-1.277c.592.41 1.267.735 2.011.966a5.877 5.877 0 0 0-.894-.076c-.755 0-1.473.148-2.136.408a5.18 5.18 0 0 0-.047-1.44l1.067.142zm17.02 8.16c.316-1.158.28-2.534-.194-3.9a6.913 6.913 0 0 0-1.624-2.63c.543-.708.87-1.591.87-2.553a4.18 4.18 0 0 0-.964-2.676l-3.135-5.336c-1.267-2.403-4.066-3.223-7.315-3.13-3.54.103-5.917 1.8-7.21 4.442-.01-.003-3.738 7.484-3.893 8.364-.235 1.339.068 2.6.684 3.408a2.732 2.732 0 0 0-.76 4.913 5.88 5.88 0 0 0-2.744 4.975 5.882 5.882 0 0 0 5.877 5.888 5.882 5.882 0 0 0 5.876-5.888c0-.515-.073-1.013-.197-1.489a5.833 5.833 0 0 0 2.23-.977c1.254 1.606 3.07 2.397 4.671 1.839 1.222-.426 2.058-1.545 2.38-2.957.799.484 1.67.702 2.51.586a2.728 2.728 0 0 0 2.72 2.577 2.73 2.73 0 0 0 2.729-2.733 2.73 2.73 0 0 0-2.51-2.723z"/>
            <path fill="#FAE6BB" d="M223.673 184.865l3.163.154 2.871-4.746-4.78-1.333z"/>
            <path fill="#3E517C" d="M285.988 241.536l-30.426-.625 1.726-37.836c0-2.788 1.904-5.728 1.904-5.728h21.046s2.28 2.986 2.28 5.774l3.47 38.415z"/>
            <path fill="#1C2C57" d="M234.855 155.526c-.111 0-.22.008-.33.016a4.45 4.45 0 0 0 .612-2.242c.004-1.596-.873-3.026-2.164-3.822v-.551l-3.763-7.687-2.756 10.604a4.6 4.6 0 0 0-.243 1.446 4.46 4.46 0 0 0 .891 2.68c.285.38.835.713 1.435.984 1.164.527 1.878 1.686 1.856 2.966l-.001.066c-.006 2.395 1.967 4.426 4.357 4.482a4.467 4.467 0 0 0 4.569-4.47 4.467 4.467 0 0 0-4.463-4.472"/>
            <path fill="#1C2C57" d="M256.156 159.125c-1.072-.723-1.54-2.115-1.094-3.33a5.091 5.091 0 0 0 .164-2.962c-.523-2.149-2.32-3.644-4.363-3.84-1.542-.122-2.875-1.076-3.34-2.538l-1.746-5.694-9.99 3.928 2.853 14.26s2.331 4.444 5.846 4.476c.61.006 1.302-.267 2.011-.68-.031.224-.053.45-.053.68 0 2.982 2.712 5.399 6.058 5.399 3.346 0 6.058-2.417 6.058-5.399 0-1.757-.944-3.316-2.404-4.3"/>
            <path fill="#FAB08A" d="M229.397 159.996s-1.251.101-1.86.244c-3.505.823-6.543 3.517-7.619 6.959l-5.998 14.014-4.917 4.586 4.724 3.497a23.353 23.353 0 0 0 8.298-9.297l5.365-10.864 2.007-9.139z"/>
            <path fill="#1C2C57" d="M245.967 143.621c-.521 3.475-4.209 6.072-9.123 5.624-4.913-.448-7.834-3.647-7.72-7.16.132-4.071 4.017-6.616 8.93-6.168 4.914.448 8.59 3.196 7.913 7.704"/>
            <path fill="#E89561" d="M231.587 152.093l-1.117-.096c-1.405-.122-1.82-2.447-1.82-2.447-.225-1.101.577-2.182 1.518-2.046l1.523.138-.104 4.451zM241.716 153.169l1.116.108c1.404.134 2.23-2.078 2.23-2.078.42-1.043-.173-2.251-1.124-2.286l-1.522-.141-.7 4.397z"/>
            <path fill="#FFAB78" d="M237.012 163.231c-2.23 0-4.039-.908-4.039-3.143v-5.298h8.077v5.088c0 2.234-1.808 3.353-4.038 3.353"/>
            <path fill="#E89561" d="M232.973 159.196c1.278.434 2.736.681 4.286.681 1.354 0 2.636-.193 3.791-.53v-5.61h-8.077v5.46z"/>
            <path fill="#FAB08A" d="M233.541 141.458a2.945 2.945 0 0 0-3.202 2.813l-.342 8.51c.076 1.886 2.976 4.803 2.976 4.803.703.553 1.56 1.308 2.452 1.354 1.872.094 6.985-2.537 7.714-4.685l.922-7.31c.374-2.368-2.427-4.747-4.085-4.903-2.457-.23-3.967-.362-6.435-.582"/>
            <path fill="#1C2C57" d="M238.964 139.767c1.07 1.714-.368 4.548-3.212 6.33-2.843 1.782-8.289-1.5-7.086.124.204.275.368-4.548 3.212-6.33 2.844-1.783 6.016-1.838 7.086-.124"/>
            <path fill="#3E517C" d="M186.06 157.6s1.249.118 1.856.27c3.492.875 6.49 3.613 7.515 7.07l7.884 20.423-6.655 4.88-10.6-32.644z"/>
            <path fill="#FAE6BB" d="M202.959 189.925c.74 1.576 5.816 21.44 5.816 21.44l-4.198.38-7.544-18.858s5.185-4.538 5.926-2.962"/>
            <path fill="#FAE6BB" d="M205.726 216.085l-1.15-4.34 4.095-.686 2.063 2.654z"/>
            <path fill="#FAE6BB" d="M205.553 219.254l.173-3.169 5.008-2.372.831 4.902z"/>
            <path fill="#FFAB78" d="M279.439 167.188s3.983.67 6.252 8.165l5.316 17.639-7.24.061-5.605-15.924 1.277-9.941z"/>
            <path fill="#FFD874" d="M285.691 175.352c-2.19-7.231-5.974-8.109-6.237-8.161-1.093-.569-2.342-.893-3.73-.915l-10.95-.24a8.715 8.715 0 0 0-1.894.174v-.002s-6.672-.173-10.24 7.913l-3.526 7.548c1.218 1.973 3.988 2.594 4.82 3l2.505.467.194-.57 1.465 15.936c5.262 6.42 21.34 2.619 22.537 1.13l2.46-16.02c1.942.14 3.83-.71 5-2.28l-2.404-7.98z"/>
            <path fill="#FFF" d="M282.133 156.221l-4.244-10.9c-.81-2.055-2.843-3.637-5.367-3.915-2.404-.265-4.63.722-5.904 2.398-2.477.688-4.356 2.312-4.884 4.328-.019-.008-2.412 11.047-2.412 11.047a2.769 2.769 0 0 0-.28 1.737c.238 1.435 1.529 2.424 2.93 2.283l10.47-1.046-.627-1.497-6.634-1.759 1.538-3.988c.79.227 1.638.363 2.525.385a9.817 9.817 0 0 0 3.65-.585 5.465 5.465 0 0 0 3.57 8.962 5.46 5.46 0 0 0 6.02-4.838 5.452 5.452 0 0 0-.35-2.612"/>
            <path fill="#E89561" d="M264.183 158.614l-1.114-.058c-1.401-.075-1.89-2.372-1.89-2.372-.26-1.088.501-2.189 1.441-2.084l1.518.086.045 4.428zM274.787 159.226l1.113.07c1.4.086 2.148-2.14 2.148-2.14.384-1.05-.247-2.231-1.193-2.235l-1.517-.09-.551 4.395z"/>
            <path fill="#FFAB78" d="M269.259 170.25a3.837 3.837 0 0 1-3.664-4.002l.248-5.78 7.658.33-.249 5.78a3.836 3.836 0 0 1-3.993 3.672"/>
            <path fill="#E89561" d="M265.638 165.438c1.193.483 2.565.788 4.035.852a12.352 12.352 0 0 0 3.616-.371l.24-5.576-7.658-.33-.233 5.425z"/>
            <path fill="#FFAB78" d="M270.343 147.109c-2.483-.144-4.935-1.168-6.295.391-1.148 1.316-1.517 3.662-1.514 3.727l-.057 8.75c.12 1.62 3.09 3.356 3.882 3.792.142.078.276.167.412.255a4.592 4.592 0 0 0 4.308.374c.323-.138.645-.28.977-.396 1.055-.365 3.447-1.36 3.953-3.033l1.312-9.873c.136-.54-2.4-3.723-6.978-3.987"/>
            <path fill="#FFF" d="M275.195 144.666c-3.112-1.83-6.46-1.903-7.478-.166-.3.513-.363 1.127-.223 1.784l-2.707-.716-2.024 3.568-.69 5.012a1.738 1.738 0 0 0 1.844-1.52l.386-2.922a2.749 2.749 0 0 1 2.579-2.372l.963-.05c.628 1.299 1.925 2.653 3.665 3.676 3.113 1.83 6.46 1.904 7.478.166 1.018-1.738-.68-4.63-3.793-6.46"/>
            <path fill="#FFAB78" d="M279.934 208.734l-3.856 2c-.193.1-.37.23-.523.385l-1.048 1.064a2.073 2.073 0 0 1-3.131-.206 2.082 2.082 0 0 1 .144-2.68l1.581-1.914a3.121 3.121 0 0 1 1.768-1.067l2.035-.425 3.03 2.843zM154.083 162.74c1.5-1.382 4.109-1.723 4.231-1.451l.838 1.858c.71 1.575-1.229 4.377-2.887 4.856a2.83 2.83 0 0 1-3.335-1.497s-.853-1.918 1.153-3.766"/>
            <path fill="#E89561" d="M169.876 148.605l-1.304-.042c-1.64-.054-2.267-2.727-2.267-2.727-.33-1.266.533-2.573 1.635-2.473l1.778.064.158 5.178zM182.292 149.063l1.304.056c1.64.066 2.46-2.554 2.46-2.554.423-1.238-.342-2.605-1.448-2.586l-1.777-.068-.539 5.152zM175.89 160.992c-2.882.137-5.4-.937-5.536-3.824l-.285-6.02 10.435-.496.285 6.02c.137 2.887-2.017 4.183-4.9 4.32"/>
            <path fill="#FFAB78" d="M176.824 133.023c-8.021-.366-8.744 5.692-8.739 5.768l.25 11.483c.207 2.185 3.304 3.615 4.69 4.446.892.536 1.857.939 2.896.977 1.04.038 2.005-.349 2.96-.76 1.502-.647 4.59-1.288 5.303-3.83l.83-11.723c.15-3.247-2.831-6.116-8.19-6.36"/>
            <path fill="#FFF" d="M169.387 142.257l.31-6.811c-1.404 1.433-1.615 3.305-1.612 3.345l.1 4.566a1.152 1.152 0 0 0 1.202-1.1M183.594 142.785l.24-6.86c1.42 1.523 1.188 3.35 1.182 3.39l-.309 4.66a1.153 1.153 0 0 1-1.113-1.19"/>
            <path fill="#E89561" d="M173.802 137.339a.276.276 0 0 1 .02-.553l6.3.174a.276.276 0 1 1-.015.553l-6.3-.174h-.005M174.65 139.652a.276.276 0 0 1 .02-.553l4.094.113c.154.015.273.131.269.284a.276.276 0 0 1-.284.27l-4.094-.114h-.005"/>
            <path fill="#F2D6D6" d="M176.62 147.818c-.017.052-.02.105-.033.156l-4.498.557a2.336 2.336 0 0 0 2.605 2.035 2.262 2.262 0 0 0 1.873-1.558 2.328 2.328 0 0 0 1.564 1.753 2.265 2.265 0 0 0 2.85-1.47l.02-.066-4.381-1.407z"/>
            <path fill="#FAB08A" d="M147.318 201.045l-1.448.425a7.486 7.486 0 0 0-4.547 5.95l-1.639 8.454a32.41 32.41 0 0 0-.554 7.727l1.238 16.923s3.654.728 5.462 0l-.404-4.2-.07-16.242 1.962-19.037zM163.423 200.456l1.422.507a7.487 7.487 0 0 1 4.203 6.2l1.156 8.532c.348 2.568.387 5.169.116 7.746l-1.336 12.678-.567 5.725c-1.852.607-3.34-5.229-5.104-6.058l.99-16.212-.88-19.118z"/>
            <path fill="#E89561" d="M150.366 193.777l-1.044.03c-1.313.035-1.94-2.072-1.94-2.072-.325-.996.303-2.082 1.188-2.055l1.424-.033.372 4.13zM159.58 193.873l1.038-.114c1.305-.146 1.639-2.32 1.639-2.32.185-1.03-.586-2.019-1.46-1.87l-1.414.162.196 4.142z"/>
            <path fill="#FFAB78" d="M155.522 204.256a3.764 3.764 0 0 1-3.942-3.58l-.256-5.239 7.514-.37.256 5.24a3.766 3.766 0 0 1-3.572 3.95"/>
            <path fill="#E89561" d="M151.525 199.624c1.208.345 2.576.509 4.018.438 1.26-.062 2.443-.3 3.502-.666l-.255-5.22-7.514.37.249 5.078z"/>
            <path fill="#FAB08A" d="M150.886 183.339c-1.564.038-2.247 2.014-2.48 3.594l.391 7.26c.269 1.737 3.368 4.072 3.368 4.072.709.439 1.58 1.013 2.412.994.833-.018 1.858-.624 2.546-1.094 0 0 3.542-1.933 3.991-3.999l.003-7.687c.02-1.554-1.146-3.343-2.697-3.312-2.297.046-5.227.116-7.534.172"/>
            <path fill="#1C2C57" d="M154.932 179.945l-.987.047c-3.372.161-5.732 3.33-5.563 7.169l.027.218c.458-.415.77-.677 1.388-.688l9.308-.172a2.557 2.557 0 0 1 1.967.869l.128.145-.002-.847c-.052-3.862-2.879-6.903-6.266-6.741"/>
            <path fill="#118C8C" d="M253.276 171.576c-.143-3.214-1.694-5.886-4.123-7.966l-.765.513c-.819-1.699-2.42-2.842-5.462-3.18l-12.398-.933c-2.748-.123-4.511.571-5.632 1.99l-.45-.484c-2.14 1.293-3.833 3.32-4.58 5.71l-1.153 2.695a12.291 12.291 0 0 0 4.446 5.154l.172 20.424h22.534l2.63-19.012c2.366-1.274 5.114-3.997 5.114-3.997l-.333-.914z"/>
            <path fill="#FAE6BB" d="M155.79 206.82c3.246-.418 5.55-3.308 5.146-6.454-.005-.038-.015-.075-.021-.114l-11.765.611a5.58 5.58 0 0 0 .032 1.02c.404 3.145 3.363 5.356 6.609 4.937"/>
            <path fill="#FAB08A" d="M242.967 160.943l-12.398-.933c-2.734-.122-4.642.582-5.677 1.98 1.593 2.598 6.277 4.652 11.837 4.972 5.03.29 10.146-1.388 12.337-3.398-1.017-.936-3.114-2.29-6.099-2.621"/>
            <path fill="#005960" d="M167.482 206.89c-.108-4.27-2.428-6.925-6.5-6.808l-11.842.573c-4.072.117-5.594 2.954-5.485 7.224l1.545 5.378.05 13.202c.818.106 13.834.835 20.035-.27l.453-11.752 1.744-7.547z"/>
            <path fill="#FAB08A" d="M160.996 200.081l-11.841.573c-.256.007-.501.026-.736.054.225 2.458 3.503 4.157 7.32 3.803 3.447-.319 6.147-2.204 6.473-4.37a8.07 8.07 0 0 0-1.216-.06"/>
            <path fill="#005960" d="M145.87 201.47a7.485 7.485 0 0 0-4.547 5.95l-1.639 8.454a32.55 32.55 0 0 0-.222 1.309l.241.253a6.415 6.415 0 0 0 5.578 1.929l1.591-13.999.446-4.32-1.448.424zM170.38 216.765c-.042-.943-1.303-9.995-1.303-9.995-.193-2.515-1.796-4.74-4.203-5.838l-1.329-.492.679 16.656-.09 1.378.117.01c2.3.204 4.561-.118 6.129-1.72"/>
            <path fill="#FEF4E1" d="M172.82 164.418l-5.188-6.149 2.663-2.342 5.595 5.065z"/>
            <path fill="#FEF4E1" d="M179.17 164.5l4.315-7.21-2.73-1.342-4.967 5.044z"/>
            <path fill="#118C8C" d="M217.856 220.577l-23.882 1.384-.992-28.972c-.173-4.78 2.102-8.152 6.874-8.326l11.192-.377c4.771-.173 7.637 3.553 7.81 8.334l-1.002 27.957z"/>
            <path fill="#1C2C57" d="M210.791 163.751c-.47-.15-.938-.22-1.378-.223-.023-.802-.654-1.504-1.524-1.628a1.808 1.808 0 0 0-1.386.368.675.675 0 0 0-.093.093c-.356.424-.94.563-1.41.272a4.185 4.185 0 0 0-1.617-.573c-1.778-.252-3.367.591-3.55 1.883a1.757 1.757 0 0 0-.013.303 2.088 2.088 0 0 0-.68-.149 2.122 2.122 0 0 0-2.199 2.042 2.11 2.11 0 0 0 .396 1.304c-.402.4-.59.905-.448 1.352.141.441.573.713 1.11.776l-.048 5.79 5.518-.76-.032 1.288 8.833.417.25-7.12c.001-.017.006-.034.007-.051.04-.469.024-.902-.043-1.303.373-.23.648-.545.773-.938.376-1.18-.728-2.587-2.466-3.143"/>
            <path fill="#F09C69" d="M200.299 177.648l-1.039-.017c-1.306-.023-1.838-2.144-1.838-2.144-.279-1.004.393-2.054 1.271-1.988l1.277-.154.329 4.303zM209.996 178.121l1.036-.068c1.304-.088 1.73-2.232 1.73-2.232.23-1.017-.493-2.033-1.368-1.923l-1.412.099.014 4.124z"/>
            <path fill="#FFB385" d="M205.286 188.3a3.745 3.745 0 0 1-3.76-3.73l-.026-5.216 7.482-.038.026 5.217a3.745 3.745 0 0 1-3.722 3.767"/>
            <path fill="#F09C69" d="M201.52 183.435c1.187.396 2.538.618 3.974.61a12.59 12.59 0 0 0 3.51-.507l-.027-5.198-7.481.038.025 5.057z"/>
            <path fill="#FFB385" d="M201.565 168.168c-.52.014-1.709.452-1.704 1.97l-.941 1.751.124 6.117c.191 1.738 3.169 4.195 3.169 4.195.685.466 1.524 1.075 2.352 1.093.829.018 1.874-.538 2.578-.975 0 0 3.605-1.766 4.14-3.799l.254-6.354-1.018-1.287c.088-1.543-.595-2.534-1.46-2.551-2.286-.045-5.2-.219-7.494-.16"/>
            <path fill="#1C2C57" d="M198.42 173.562l-.31.002-.021-5.449 1.763-.516.017 4.5a1.457 1.457 0 0 1-1.448 1.463M211.993 173.92l.311.001.025-5.448-1.763-.518-.02 4.5a1.457 1.457 0 0 0 1.447 1.465"/>
            <path fill="#FFD874" d="M168.156 241.844l-26.128-.276 1.08-8.668a17.542 17.542 0 0 1 1.524-5.284l.61-1.301 19.659-.166h.43c1.748 3.118 2.327 6.218 2.516 9.807l.31 5.888z"/>
            <path fill="#FFF" d="M190.865 192.01l-3.665 12.197c1.033 1.761 6.218 1.521 6.218 1.52l4.733-20.708s-1.045.206-1.545.386c-2.872 1.035-5.17 3.6-5.741 6.605"/>
            <path fill="#FFB385" d="M223.323 203.144l-3.563-11.827c-.572-3.004-2.87-5.57-5.742-6.604-.5-.18-1.114.198-1.114.198l4.76 20.007c.235.928.305 1.89.209 2.842l-1.588 15.701-.84 3.715-.385 1.875a1.427 1.427 0 0 0 1.065 1.677l1.435.343a1.425 1.425 0 0 0 1.686-.948l.893-2.756-.5-2.762 3.839-17.301a8.238 8.238 0 0 0-.155-4.16"/>
            <path fill="#FFF" d="M223.425 203.514c-.071.248-3.691 1.839-5.511 1.46l-.248-.05-5.192-20.598s1.044.206 1.544.386c2.873 1.035 5.17 3.6 5.742 6.605l3.665 12.197z"/>
            <path fill="#58C4C5" d="M316.116 108.014H107.21V248.23h208.906V108.014zM115.977 239.446H307.35V116.798H115.977v122.648z"/>
            <path fill="#074D4F" d="M82.075 89.994H341.38v-2.773H82.075z"/>
            <path fill="#074D4F" d="M82.075 271.84h2.842V87.227h-2.842z"/>
            <path fill="#006769" d="M307.35 238.351v1.095h-1.673l9.074 8.784h1.365v-1.392z"/>
            <path fill="#074D4F" d="M345.994 83.889V274.22L77 275.133l2.518 2.773h268.96V85.835z"/>
            <path fill="#006769" d="M314.75 108.014l-9.073 8.784H117.65l-9.074-8.784h-1.365v1.392l8.755 8.476v120.48l-8.755 8.476v1.392h1.365l9.074-8.784h1.158v-119.8h188.541v-1.753l8.767-8.487v-1.392z"/>
            <path stroke="#006769" stroke-linecap="square" stroke-width="2" d="M306.835 117.544v121.595M117.532 239.139h189.303"/>
            <path fill="#FFAB78" d="M290.734 195.233c-.585 1.64-10.8 13.501-10.8 13.501l-3.444-2.26 8.34-15.381s7.913-1.503 5.904 4.14"/>
        </g>
    </g>
</svg>
