<?xml version="1.0" encoding="UTF-8"?>
<svg width="80px" height="80px" viewBox="0 0 80 80" version="1.1" xmlns="http://www.w3.org/2000/svg" xmlns:xlink="http://www.w3.org/1999/xlink">
    <!-- Generator: Sketch 51.2 (57519) - http://www.bohemiancoding.com/sketch -->
    <title>icon2</title>
    <desc>Created with Sketch.</desc>
    <defs>
        <circle id="path-1" cx="40" cy="40" r="40"></circle>
    </defs>
    <g id="Latest" stroke="none" stroke-width="1" fill="none" fill-rule="evenodd">
        <g id="1024px---homepage-copy-5" transform="translate(-912.000000, -2570.000000)">
            <g id="icon2" transform="translate(912.000000, 2570.000000)">
                <g id="Shape">
                    <mask id="mask-2" fill="white">
                        <use xlink:href="#path-1"></use>
                    </mask>
                    <use id="Mask" fill="#005960" fill-rule="nonzero" xlink:href="#path-1"></use>
                    <path d="M-16,84.5 C-13.0984866,66.6707717 -8.02152691,56.1010545 -0.766365577,52.7885075 C6.48879576,49.4783015 14.5995316,51.1334045 23.5644641,57.7561575 C28.1027287,62.4101105 33.3477722,64.739428 39.3009724,64.739428 C48.2328393,64.739428 70.6293267,48.2164903 79.4206644,51.4096451 C85.2815562,53.5352937 90.6519738,64.5661923 95.5319171,84.497659" fill="#118C8C" fill-rule="nonzero" mask="url(#mask-2)"></path>
                    <path d="M6,84.5 C8.90151344,66.6707717 13.9784731,56.1010545 21.2336344,52.7885075 C28.4887958,49.4783015 36.5995316,51.1334045 45.5644641,57.7561575 C50.1027287,62.4101105 55.3477722,64.739428 61.3009724,64.739428 C70.2328393,64.739428 92.6293267,48.2164903 101.420664,51.4096451 C107.281556,53.5352937 112.651974,64.5661923 117.531917,84.497659" id="Shape-Copy" fill="#31B9B9" fill-rule="nonzero" mask="url(#mask-2)"></path>
                </g>
                <g id="Group-56" transform="translate(27.000000, 16.000000)">
                    <g id="Group-55">
                        <path d="M11.8116029,8.78909759 C11.5138738,9.36986582 10.3653712,10.7562426 9.30003322,11.8850071 C8.04466419,13.2145515 6.4982192,14.8784525 6.16888754,15.8126597 C5.76304449,16.9638253 6.10235589,17.8909804 7.18640593,18.5924654 C6.50819895,20.1837704 6.16930336,21.5958669 6.16930336,22.82834 C6.16930336,24.0608132 6.50819895,25.163858 7.18640593,26.1383041 L13.7730391,24.0923406 C13.0295479,23.7181599 12.5185017,23.2966881 12.2399004,22.82834 C11.961715,22.3595771 11.6523428,21.4004798 11.3121997,19.9506334 L16.368605,19.1989534 C16.3893961,20.5587807 16.546993,21.7688528 16.840148,22.82834 C17.1333031,23.8878272 17.6518341,24.6482188 18.3953253,25.108685 L25.550804,26.1383041 L23.1623179,20.7031431 C22.5215349,10.995602 21.8998799,5.59902063 21.2969368,4.5138137 C20.392938,2.88558847 18.5874211,0.346780999 16.368605,0.241018818 C11.3121997,4.83224571e-14 10.9402522,1.41491753 8.11764706,2.70588235 C9.17716355,3.18252714 11.7733472,2.53588302 12.2399004,2.88558847 C12.7068694,3.23570874 13.2179156,3.77831221 13.7730391,4.5138137 C12.8973163,6.52036796 12.2436428,7.94532431 11.8116029,8.78909759 Z" id="Shape" fill="#DAF5F5" fill-rule="nonzero"></path>
                        <path d="M10.1208674,2.28490818 L9.64516614,3.13034079 L7.46417556,2.70762448 L5.84704069,4.5125692 C3.56999505,5.52310593 2.43147222,6.72114783 2.43147222,8.10628007 C2.43147222,9.49141232 3.56999505,10.4405535 5.84704069,10.9537038 C5.1650913,11.276445 4.82453243,11.7410596 4.82453243,12.3471327 C4.82453243,12.952791 5.3255989,13.4468588 6.32731603,13.8280917 C6.88451858,13.7982236 7.47623442,13.5895619 8.10204773,13.2025213 C8.72827687,12.815066 9.40107816,12.0658749 10.1208674,10.9537038 L13.7730391,4.5125692 C13.0515865,3.56135379 12.4839884,2.95984383 12.0710764,2.70803932 C11.6577485,2.45581997 11.0078175,2.31477626 10.1208674,2.28490818 Z M5.77551917,21.016758 C4.52264508,19.1367282 3.45564378,18.1967133 2.57576273,18.1967133 C1.69546587,18.1967133 0.926609514,18.871649 0.268777846,20.2211055 C2.22148171,21.1100957 3.47809821,22.2081625 4.03862734,23.5157207 C4.8785894,25.477058 2.84521591,32.5474965 3.19783364,36.587984 C3.43318935,39.2815042 4.29227925,41.4909125 5.775935,43.2157941 C8.73576168,44.8166403 10.9799573,45.6604136 12.5081061,45.7479436 C14.0362549,45.8354737 16.3207854,45.3198345 19.3612817,44.2006111 C21.1551412,41.9658979 22.3260982,40.1592939 22.8745685,38.780799 C23.4226229,37.4027189 23.6479989,35.698579 23.5506964,33.668794 L22.2724571,25.7516784 L18.083874,25.1651025 C17.3998455,23.9060799 16.978617,22.8706531 16.8206044,22.0584073 C16.6625917,21.2465763 16.6625917,20.116982 16.8206044,18.6700395 L11.4531637,20.2215203 L13.7730391,23.5148911 L11.4535795,24.6216694 C13.4744783,27.5255106 14.6113378,29.7967292 14.8637423,31.4349105 C15.2429727,33.8923898 14.06661,35.8910622 13.2994169,36.5875692 C12.7879549,37.0521838 11.6486004,37.4703369 9.88301678,37.8420286 C9.80109969,35.9951856 10.0385345,34.6038309 10.5953212,33.6683792 C11.1525238,32.7329275 12.3904283,31.9882996 14.3098663,31.4349105 C14.4346131,30.3658821 14.2553935,29.3885321 13.7730391,28.504105 C13.0495074,27.1766348 11.790396,25.1646877 10.5953212,25.1646877 C9.79902058,25.1646877 8.69168446,25.5119041 7.27372872,26.2059222 L5.77551917,21.0163431 L5.77551917,21.016758 Z" id="Shape" fill="#DAF5F5" fill-rule="nonzero"></path>
                        <path d="M18.7629127,27.379074 L20.4262039,27.379074 L20.4262039,29.0384118 L18.7629127,29.0384118 L18.7629127,27.379074 Z M18.7629127,32.3570874 L20.4262039,32.3570874 L20.4262039,34.0164253 L18.7629127,34.0164253 L18.7629127,32.3570874 Z M20.0103811,29.8680807 L21.6736722,29.8680807 L21.6736722,31.5274185 L20.0103811,31.5274185 L20.0103811,29.8680807 Z M20.4262039,35.6757631 L22.089495,35.6757631 L22.089495,37.3351009 L20.4262039,37.3351009 L20.4262039,35.6757631 Z M17.0996215,35.6757631 L18.7629127,35.6757631 L18.7629127,37.3351009 L17.0996215,37.3351009 L17.0996215,35.6757631 Z M18.7629127,38.5796043 L20.4262039,38.5796043 L20.4262039,40.2389421 L18.7629127,40.2389421 L18.7629127,38.5796043 Z M15.4363303,40.2389421 L17.0996215,40.2389421 L17.0996215,41.8982799 L15.4363303,41.8982799 L15.4363303,40.2389421 Z M12.1097479,42.3131144 L13.7730391,42.3131144 L13.7730391,43.9724522 L12.1097479,43.9724522 L12.1097479,42.3131144 Z" id="Shape" fill="#FF7900" fill-rule="nonzero"></path>
                        <path d="M6.83004579,18.6513719 C6.31026729,18.14237 6.05037804,17.5105772 6.05037804,16.7551636 C6.05037804,15.6226656 6.85832174,14.5262581 7.3864167,13.8679158 C7.91451165,13.2099884 9.67219462,11.7696831 10.6306662,10.5604407 C11.9425871,8.90525123 13.7647226,4.81830219 13.2977536,4.05708096 C12.3147485,2.4549903 9.72209336,2.86567641 9.49422246,3.37343378 C7.87999836,2.40894368 6.58720528,2.69600912 5.61584322,4.23545978 C5.08566915,5.07508472 2.33292222,5.3903589 2.33292222,7.98722259 C2.33292222,9.4839453 3.31426403,10.4077816 4.50892293,10.7305228 C5.09440143,10.8885748 5.98509386,10.9794235 7.18141606,11.0034839" id="Combined-Shape" stroke="#29CAC5" stroke-width="1.5"></path>
                        <path d="M5.08234257,10.9690526 C4.73554635,11.9634108 4.73554635,12.6868821 5.08234257,13.1394665 C5.42248562,13.5837542 6.07532741,13.8998581 7.04086795,14.0873632 M8.88628953,16.756823 C7.45170088,18.1303398 6.61756034,19.5088347 6.3851154,20.8918928 C6.15267045,22.2749509 6.36765084,23.9990029 7.02964074,26.0640488 L13.158453,24.1168158 C12.0623441,22.8723125 11.4494213,21.3345212 11.3201004,19.5034419 C11.1903637,17.6723626 11.7359232,15.9379397 12.9563631,14.3005881 C14.1605859,12.2533801 14.8142594,10.6508746 14.9165518,9.49390132 C14.9872416,8.69327083 15.1173942,7.49232508 14.6046847,6.00265456 C14.2628783,5.00954087 13.4100258,3.96042454 12.0457112,2.85572038" id="Shape" stroke="#29CAC5" stroke-width="1.5"></path>
                        <path d="M6.28822868,21.4606308 C5.66491031,20.4899182 5.23536536,19.8755484 4.99917801,19.6162768 C4.2548552,18.801542 2.95956718,18.3385867 2.67348109,18.3385867 C2.5113102,18.3385867 1.93996967,18.1564744 1.3440956,18.5704792 C0.881284829,18.8919759 0.574823426,19.4271123 0.425127218,20.1758885 C2.07386462,21.382642 3.17371592,22.4313435 3.72384948,23.3215782 C3.89308936,23.808179 4.43656976,25.163858 4.25610267,27.3720218 C4.04278557,29.9759377 3.03774186,32.2197772 3.03774186,34.6444846 C3.03774186,37.3326119 3.77541151,41.0416468 5.76969765,43.1340717 C7.70535278,45.1638567 11.0660326,45.9288115 13.2436966,45.9288115 C15.6201239,45.9288115 18.7566753,45.1219584 20.7576146,42.8445173 C22.6741419,40.6624881 23.5062033,37.0525986 23.5062033,35.0016571 C23.5062033,32.2065025 22.9706236,29.1748923 21.8998799,25.9068265" id="Shape" stroke="#29CAC5" stroke-width="1.5"></path>
                        <path d="M9.86721552,25.0900175 C10.9920162,25.4003136 11.9176377,26.0839608 12.6436643,27.1401293 C13.1767492,27.9154549 14.359765,29.6233284 14.6046847,31.1125841 C14.9701929,33.3344374 14.4308707,35.0999729 14.0528878,35.7130982 C13.8079682,36.1105096 13.4511922,36.8978654 12.4752561,37.3608206 C11.8244934,37.6694575 10.9554238,37.7868556 9.86721552,37.7126003 C9.97075539,35.590722 10.3865782,34.0881916 11.1146839,33.2050091 C11.8423738,32.3218265 12.8220523,31.6950117 14.0528878,31.3237348 M15.760672,19.2839945 L11.7720998,20.0804766" id="Shape" stroke="#29CAC5" stroke-width="1.5"></path>
                        <path d="M17.790719,7.03434784 C18.3379418,9.36654715 16.1195271,15.0891884 16.2775398,19.2644972 C16.382743,22.0480364 17.0742563,24.0122776 18.3520797,25.1568058 L25.5358344,25.9628292 C24.2417939,23.7040556 23.5041242,22.059237 23.3232413,21.0275437 C22.6882799,17.4068685 22.1813919,7.44835263 21.9381355,6.51497511 C21.3838438,4.38687436 20.2066494,2.68356409 19.8993564,2.32763612 C18.6240278,0.852069969 17.3811335,0.307392331 14.2017524,0.307392331 C12.0818877,0.307392331 10.2622472,1.15780296 8.74283067,2.85945389" id="Shape" stroke="#29CAC5" fill-rule="nonzero"></path>
                    </g>
                </g>
            </g>
        </g>
    </g>
</svg>