<svg xmlns="http://www.w3.org/2000/svg" xmlns:xlink="http://www.w3.org/1999/xlink" width="125" height="130" viewBox="0 0 125 130">
    <defs>
        <path id="a" d="M.015 0h124.19v123.887H.016z"/>
    </defs>
    <g fill="none" fill-rule="evenodd">
        <path fill="#00C9C3" d="M7.172 64.47c0 30.13 24.472 54.555 54.659 54.555 30.187 0 54.658-24.425 54.658-54.555S92.018 9.915 61.83 9.915 7.172 34.34 7.172 64.47z"/>
        <g transform="translate(0 5.562)">
            <mask id="b" fill="#fff">
                <use xlink:href="#a"/>
            </mask>
            <path fill="#008181" d="M62.103 0c34.298 0 62.103 27.733 62.103 61.943 0 34.21-27.805 61.944-62.103 61.944C27.804 123.887 0 96.154 0 61.943 0 27.733 27.804 0 62.103 0" mask="url(#b)"/>
        </g>
        <path fill="#98D5D4" d="M22.742 106.604a1.27 1.27 0 0 1-1.268-1.264V18.013h-8.386a1.27 1.27 0 0 0-1.267 1.265v84.583a62.375 62.375 0 0 0 11.935 12.372h70.062a1.27 1.27 0 0 0 1.267-1.264v-8.364H22.742"/>
        <path fill="#CBF1F1" d="M31.107 97.503a1.27 1.27 0 0 1-1.268-1.264V9.1h-7.816a1.27 1.27 0 0 0-1.267 1.265v95.69c0 .696.57 1.265 1.267 1.265h80.73a1.27 1.27 0 0 0 1.267-1.264v-8.554H31.107"/>
        <path fill="#FFF" d="M112.384 96.955a1.27 1.27 0 0 1-1.267 1.265H30.388a1.27 1.27 0 0 1-1.267-1.265V1.265C29.12.568 29.69 0 30.388 0h80.73a1.27 1.27 0 0 1 1.266 1.264v95.691"/>
        <path fill="#E26428" d="M39.725 53.896h7.412c0-4.083 3.318-7.393 7.412-7.393V39.11c-8.187 0-14.824 6.62-14.824 14.786"/>
        <path fill="#F0D055" d="M54.621 39.11v7.393c4.094 0 7.412 3.31 7.412 7.393h7.413c0-8.166-6.638-14.786-14.825-14.786"/>
        <path fill="#F49D39" d="M61.96 53.983c0 4.083-3.317 7.393-7.41 7.393-4.095 0-7.413-3.31-7.413-7.393h-7.412c0 8.166 6.637 14.786 14.824 14.786 8.187 0 14.824-6.62 14.824-14.786h-7.412M47.51 29.495V11.84a.762.762 0 0 0-.761-.759H42.14a.762.762 0 0 0-.76.759v17.656h6.13"/>
        <path fill="#E26428" d="M57.44 29.098V16.246a.762.762 0 0 0-.76-.759H52.07a.762.762 0 0 0-.76.759v12.852h6.13"/>
        <path fill="#F0D055" d="M67.371 29.342v-7.037a.762.762 0 0 0-.76-.758h-4.609a.762.762 0 0 0-.76.758v7.037h6.13"/>
        <path fill="#98D5D4" d="M68.867 32.5H39.519c-.8 0-1.45-.849-1.45-1.896 0-1.048.65-1.896 1.45-1.896h29.348c.8 0 1.45.848 1.45 1.896 0 1.047-.65 1.896-1.45 1.896"/>
        <path fill="#007F7E" fill-opacity=".248" d="M104.746 46.82h-24.11c-.351 0-.635.51-.635 1.138v2.275c0 .628.284 1.138.634 1.138h24.111c.35 0 .634-.51.634-1.138v-2.275c0-.629-.284-1.138-.634-1.138zM80.389 60.473h14.754c.215 0 .389-.51.389-1.138V57.06c0-.629-.174-1.138-.389-1.138H80.39c-.214 0-.388.51-.388 1.138v2.275c0 .628.174 1.138.388 1.138zm24.357-44.498h-24.11c-.351 0-.635.51-.635 1.137v2.276c0 .628.284 1.138.634 1.138h24.111c.35 0 .634-.51.634-1.138v-2.276c0-.628-.284-1.137-.634-1.137zm-24.745 13.02V26.72c0-.628.174-1.138.388-1.138h14.754c.215 0 .389.51.389 1.138v2.275c0 .629-.174 1.138-.389 1.138H80.39c-.214 0-.388-.51-.388-1.138z"/>
        <path fill="#C0E0DF" d="M39.173 76.568h65.656v5.508H39.173zM39.173 86.483h65.656v5.508H39.173z"/>
    </g>
</svg>
