<svg xmlns="http://www.w3.org/2000/svg" xmlns:xlink="http://www.w3.org/1999/xlink" width="370" height="333" viewBox="0 0 370 333">
    <defs>
        <path id="a" d="M182.5 294c63.384 0 126.874-14.954 163.535-49.646 26.7-25.265 31.79-75.056 11.732-122.883C321.69 35.454 236.089 0 185 0S62.68 21.429 14.105 107.056c-32.12 56.62-4.459 124.642 33.732 149.55C83.027 279.557 129.967 294 182.5 294z"/>
    </defs>
    <g fill="none" fill-rule="evenodd">
        <g transform="translate(0 39)">
            <mask id="b" fill="#fff">
                <use xlink:href="#a"/>
            </mask>
            <use fill="#00999B" xlink:href="#a"/>
            <path fill="#008486" d="M335.98 299.887c27.385-4.08 70.748-49.576 52.52-58.886-32.783-16.744-97.755 16.88-172.258 13.468-74.503-3.414-121.587-13.255-165.727 3.413-7.684 2.901 2.735 23.82 10.668 28.945 8.81 5.693 81.224 19.537 93.754 21.657 59.27 10.03 151.093-4.135 181.043-8.597z" mask="url(#b)"/>
            <g mask="url(#b)">
                <path fill="#EFE6E1" d="M307.899 162.776c-1.222.158-2.442.316-3.663.47-1.384.174-2.763.383-4.15.506-2.557.227-5.114.426-7.673.582-.773.047-1.554-.096-2.332-.13-.685-.03-1.371-.025-2.058-.043-2.541-.066-5.084-.112-7.625-.211-2.633-.102-5.267-.214-7.895-.403-2.912-.208-5.818-.514-8.727-.768-1.682-.148-3.37-.242-5.048-.423-1.997-.215-3.986-.515-5.981-.74-.647-.073-1.306-.026-1.959-.034-.875-.175-1.747-.376-2.627-.519-1.945-.312-3.894-.594-5.842-.889-2.136-.394-4.278-.76-6.407-1.193a253.342 253.342 0 0 1-6.376-1.402c-2.5-.575-5.018-1.083-7.479-1.795-2.061-.596-4.046-1.455-6.072-2.179-.64-.229-1.3-.4-1.951-.597-.11-.118-.2-.285-.335-.345a55.555 55.555 0 0 1-8.99-4.967c-1.537-1.047-3.102-2.05-4.654-3.072-1.967-1.645-3.804-3.413-5.226-5.585-1.025-1.563-1.656-3.278-2.054-5.099-.431-1.967-.837-3.931-.767-5.967.12-3.541 1.23-6.636 3.747-9.19 3.326-3.374 7.185-5.874 11.505-7.725 7.554-3.236 15.376-5.607 23.317-7.61 4.732-1.194 9.455-2.428 14.211-3.514 3.352-.765 6.743-1.37 10.135-1.94 2.846-.48 5.712-.845 8.58-1.182 2.29-.27 4.592-.446 6.891-.617 3.05-.226 6.1-.481 9.153-.589 3.95-.139 7.908-.29 11.854-.162 3.204.102 6.409.51 9.59.959 4.496.634 8.983 1.352 13.447 2.181 2.903.539 5.805 1.182 8.62 2.067 2.793.88 5.507 2.045 8.2 3.219 3.208 1.395 6.374 2.894 9.522 4.424 1.616.785 3.217 1.64 4.709 2.639a37.276 37.276 0 0 1 4.397 3.45c2.969 2.713 5.687 5.697 7.65 9.24 1.198 2.163 1.732 4.559 1.333 7.163-.423 2.763-1.439 5.265-2.591 7.749-.133.288-.168.623-.249.936-.18.114-.415.186-.534.347-1.588 2.145-3.308 4.143-5.302 5.935-2.988 2.683-6.256 4.856-9.933 6.411-.528.223-1.008.56-1.509.844-1.218.453-2.454.859-3.65 1.367-5.897 2.503-11.913 4.644-18.118 6.225-.346.088-.674.245-1.01.37-1.418.293-2.84.568-4.252.884-1.28.285-2.549.613-3.822.922"/>
                <path fill="#D7C4BA" d="M355.615 138.832c-1.573 2.125-3.279 4.105-5.256 5.88-2.962 2.66-6.2 4.814-9.847 6.355-.522.22-.998.555-1.495.837.071 4.19.135 8.38.221 12.572.02.942.119 1.883.183 2.825l.018 2.37.177 9.087.018 1.58.178 6.322-.002.394c.194 2.705.36 5.412.593 8.115.226 2.633.51 5.263.783 7.894.13 1.261 1.856 2.918 3.024 2.936 1.546.026 2.722-.774 3.205-2.33.355-1.145.591-2.33.839-3.506.515-2.455 1.027-4.91 1.493-7.374.484-2.562.914-5.134 1.362-7.702.327-1.862.687-3.718.957-5.59.374-2.58.655-5.175 1.016-7.759.433-3.096.956-6.181 1.351-9.283.437-3.433.824-6.876 1.139-10.324.219-2.409.302-4.833.403-7.252.089-2.129.116-4.26.17-6.39-.179.112-.412.183-.53.343M213.073 152.192a56.317 56.317 0 0 1-9.064-4.918c-1.549-1.035-3.126-2.028-4.69-3.04-.065.218-.188.437-.182.653.058 1.996.072 3.996.227 5.984.189 2.399.502 4.788.763 7.182.2 1.843.397 3.686.608 5.53.188 1.619.396 3.234.592 4.853.26 2.13.535 4.26.77 6.392.219 2.01.381 4.024.596 6.034.103.972.3 1.934.394 2.907.164 1.72.26 3.445.423 5.165.168 1.78.386 3.556.57 5.335.087.844.12 1.692.221 2.533.245 2 .528 3.997.772 5.998.29 2.376 1.259 3.253 3.59 3.198 1.295-.03 2.18-.729 2.525-2.065.187-.724.361-1.465.415-2.208.23-3.127.458-6.255.594-9.388.09-2.02.017-4.045.017-6.068.563-.162.472-.458.165-.799.073-3.828.136-7.658.223-11.487.038-1.633.127-3.264.188-4.897.072-1.991.136-3.985.21-5.976.06-1.566.132-3.132.193-4.698.076-1.96.145-3.92.217-5.88-.111-.115-.201-.28-.337-.34M247.774 160.95c-1.936-.322-3.877-.612-5.817-.916l.173 4.514c.004.206.007.412.012.617.064.741.087 1.49.203 2.22.216 1.361.404 2.739.765 4.06.3 1.1.742 2.233 1.94 2.613.64.205 1.326.298 1.997.334 1.579.084 2.458-.588 2.854-2.16.602-2.39.566-4.847.617-7.289.024-1.151-.081-2.306-.128-3.459-.871-.18-1.74-.387-2.616-.534M307.615 161.785c.08 2.05.12 4.101.255 6.148.07 1.08.269 2.157.49 3.22.174.839 1.254 1.847 1.942 1.808 1.3-.074 2.445-.499 3.034-1.678.317-.636.568-1.31.754-1.99.431-1.573.834-3.154 1.192-4.742.337-1.498.601-3.01.897-4.517-1.503.284-3.011.55-4.51.856-1.356.277-2.703.595-4.054.895"/>
                <g>
                    <path fill="#006969" d="M253.095 31.827l90.94 14.616a4 4 0 0 1 3.224 5.005l-16.63 60.795-96.149-18.805 14.09-58.597a4 4 0 0 1 4.525-3.014z"/>
                    <path fill="#004C4C" d="M234.48 93.438l96.15 18.805-17.333 32.16a4 4 0 0 1-4.294 2.027l-97.035-19.113a4 4 0 0 1-2.191-6.61l24.703-27.269z"/>
                    <path fill="#FFF" d="M252 35l-13.958 55.545 89.738 18.081L343.45 51.49z"/>
                    <path fill="#00A7A7" fill-rule="nonzero" d="M281.203 73.983l-.56 2.637-2.576-.548-.77 3.628-3.214-.683.771-3.628-7.905-1.68.533-2.506 11.138-10.646 2.627.559-2.62 12.32 2.576.547zm-10.876-2.58l4.89 1.04 1.456-6.847-6.346 5.808zm17.594 11.378c-2.23-.473-3.75-1.672-4.562-3.595-.811-1.923-.876-4.488-.195-7.695.67-3.153 1.766-5.439 3.288-6.857 1.522-1.417 3.397-1.89 5.627-1.415 2.23.473 3.752 1.663 4.568 3.568.815 1.906.885 4.444.211 7.615-.677 3.188-1.779 5.5-3.304 6.937-1.526 1.435-3.403 1.916-5.633 1.442zm1.124-2.934c1.193.254 2.179-.113 2.958-1.1.778-.985 1.422-2.676 1.932-5.071.501-2.36.595-4.141.281-5.342-.314-1.2-1.068-1.927-2.26-2.181-1.194-.254-2.178.104-2.953 1.073-.775.97-1.414 2.634-1.915 4.994-.51 2.395-.609 4.202-.299 5.42s1.063 1.953 2.256 2.207zm23.158 1.136l-.56 2.637-2.576-.548-.77 3.628-3.214-.683.771-3.628-7.905-1.68.533-2.506 11.138-10.646 2.627.559-2.62 12.32 2.576.547zm-9.876-2.58l4.89 1.04 1.456-6.847-6.346 5.808z"/>
                </g>
            </g>
            <g mask="url(#b)">
                <path fill="#33383D" d="M65.232 30.27c-.314 1.581-.553 3.181-.975 4.736-2.143 7.898-4.396 15.769-6.495 23.679-1.477 5.565-2.752 11.18-4.15 16.766-1.142 4.561-2.383 9.1-3.488 13.669-.793 3.286-1.251 6.657-2.197 9.9-.859 2.943-1.254 5.94-1.475 8.99-.034.49-.029.99.692 1.21.719.22 1.127-.151 1.332-.592.354-.759.695-1.531.906-2.333 1.277-4.858 2.574-9.71 3.752-14.592.976-4.048 1.744-8.145 2.698-12.198 1.324-5.628 2.723-11.238 4.118-16.85.597-2.4 1.307-4.774 1.893-7.178 1.465-6.02 2.899-12.05 4.323-18.08.516-2.185.973-4.384 1.453-6.576l-2.387-.552"/>
                <path fill="#A6B8CC" d="M49.584 105.886c.678.522.898 1.216.92 2.004.066 2.412.159 4.826.217 7.238.016.666-.416 1.176-.981 1.282-.65.122-1.079-.134-1.507-.874-.344.146-.688.417-1.022.398-.337-.019-.654-.346-1-.494a.802.802 0 0 0-.542-.023c-.842.324-1.21.165-1.58-.654a.82.82 0 0 0-.514-.405c-.152-.028-.4.138-.51.284-.507.68-.978.894-1.55.648-.668-.286-.952-.902-.63-1.7.436-1.086.954-2.141 1.472-3.194.577-1.172 1.153-2.347 1.802-3.482.836-1.46 1.387-1.733 2.964-1.332.385.098.815.018 1.224.019l1.237.285"/>
                <path fill="#FFF" d="M32.275 151.9c.078-.023.212-.025.227-.07.341-.983 1.187-1.058 1.932-1.16.382-.054.796.251 1.188.391l-.086.96c.26-.14.413-.264.581-.304.28-.068.636-.212.84-.095.559.318 1.112.273 1.713.214.495-.047 1.136-.242 1.201.706.017.243.427.442.695.698.262-.138.592-.229.816-.446.41-.398.91-.426 1.215-.132.293.283.556.87.486 1.266-.485 2.754-2.197 5.15-5.324 5.368-.16.011-.317.126-.476.193l-1.728-.399c-.159-.129-.298-.313-.478-.38-1.427-.529-2.635-1.275-2.776-3.104-.059-.755-.061-1.518-.107-2.276-.008-.127-.107-.245-.164-.368l.245-1.062"/>
                <path fill="#FC594C" d="M6.814 139.044l.67-2.91.18-.575c.086-.234.17-.47.255-.705l.165-.417.14-.278.253-.455.265-.339.558-.723.294-.302c.549-.629 1.067-1.29 1.653-1.88a22.423 22.423 0 0 1 6.628-4.611c2.964-1.359 6.076-2.003 9.326-1.856.117.005.237-.03.386-.05.173-.96.366-1.904.509-2.856.296-1.982.927-3.848 1.803-5.645.504-1.035 1.321-1.643 2.402-1.7 1.16-.06 2.331.04 3.491.133 4.443.355 8.898.671 13.202 1.918 2.936.851 5.842 1.813 8.742 2.78.58.194 1.103.6 1.604.973.508.38.73.89.588 1.59-.27 1.331-.401 2.692-.703 4.014-.434 1.904-.969 3.785-1.492 5.8.733.392 1.546.845 2.377 1.262 1.711.857 3.112 2.127 4.513 3.407 1.701 1.554 2.663 3.612 3.773 5.58 1.245 2.21 2.014 4.571 1.876 7.12-.063 1.165-.555 2.33-.962 3.455-.708 1.952-1.85 3.674-3.22 5.19-1.095 1.21-2.65 1.516-4.219 1.616-.289.019-.578.035-.868.052l-.444.02-.446-.002-.3-.018-.585-.05-.73-.095c-.242-.032-.484-.063-.725-.096l-.732-.089-.727-.093-1.157-.182-1.011-.17-1.442-.246-4.147-.88-3.433-.716-1.725-.327-2.723-.624c-2.131-.49-4.261-.98-6.391-1.472l-1.155-.2c-.528-.094-1.055-.19-1.583-.285l-1.44-.256-4.29-.906-1.724-.332-1.308-.178-.742-.009-2.896-.519-.708-.143-3.574-.824-.84-.231c-2.874-.91-5.323-2.486-6.516-5.357-.59-1.419-.513-3.128-.737-4.707l.018-.295.024-.306"/>
            </g>
            <path fill="#312C2C" d="M189.981 255.627c19.516-1.71 85.613-17.124 73.713-82.925-5.274-29.162 16.687-56.452 8.887-75.948-6.85-17.118-48.786-34.361-68.07-34.38-41.248-.04-74.645 41.286-74.596 92.305.05 51.02 40.55 102.66 60.066 100.948z" mask="url(#b)" opacity=".308" transform="rotate(-69 202.095 159.021)"/>
            <g mask="url(#b)">
                <g fill="#FFA32C">
                    <path d="M243.139 264.562c-.854.703-1.892 3.619.655 4.04 1.53.252 2.296 1.563 4.737 1.966 2.441.403 3.126-.432 5.742 0s3.06-2.765 3.318-5.546c.257-2.782.256-4.596-1.57-4.897-1.828-.302-10.628 2.58-12.882 4.437z"/>
                    <path d="M241.086 239.544c5.932 5.397 9.464 9.094 10.596 11.09 1.132 1.998 1.959 5.45 2.48 10.36l1.934-.484c-.955-5.343-1.6-8.635-1.934-9.875-.234-.866-2.714-5.04-7.44-12.523l-5.636 1.432z"/>
                </g>
                <g fill="#FFA32C">
                    <path d="M205.281 257.127c-1.385 3.513-1.87 5.49-1.456 5.933.415.443 1.622-1.035 3.622-4.434 4.42-10.246 6.684-16.007 6.792-17.284.108-1.277-1.438-1.738-4.64-1.383l-4.318 17.168z"/>
                    <path d="M204.191 260.517c-5.01-.104-22.921 3.041-17.344 7.016.503.358 4.302 2.225 6.969 1.463 2.053-.587 10.46-3.05 12.314-3.1 1.731-.049 7.327-.946 7.632-1.34 1.563-2.024-4.561-3.934-9.57-4.039z"/>
                </g>
                <path fill="#03B5B5" d="M182.212 85.675c-8.306-6.235-13.582-8.872-15.827-7.913-1.918.959-3.281 4.668-4.09 11.127l19.917-3.214zM119.813 119.303c-7.953-1.797-13.052-2.216-15.297-1.257-1.918.96-.151 7.995 5.301 21.107l9.996-19.85z"/>
                <path fill="#00BCBC" d="M170.87 202c34.819 0 57.972-22.805 57.972-45.61 0-13.57 1.608-23.678-5.435-32.783-10.115-13.078-26.752-36.804-43.84-38.484C162.174 82.985 110 109.074 110 137.86c.957 8.712 6.503 32.18 23.913 48.276 8.967 8.29 25.12 15.864 36.957 15.864z"/>
                <path fill="#00BCBC" d="M250 166.553c0-17.31-8.804-27.763-19.388-39.762-6.492-7.36-23.124-24.991-31.596-30.364-7.665-4.86-84.016 32.595-84.016 70.126 0 21.253 2.29 42.358 22.5 58.353 12.1 9.576 26.33 19.905 48.763 16.392C203.428 238.61 250 194.35 250 166.553z"/>
                <path fill="#00BCBC" d="M167.366 237c8.91 5.31 35.192 8.916 42.634 8.5 2.563-.143 6.914-2.63 12.734-3.345 5.778-.71 11.806.818 14.652 0 5.101-1.466 11.697-7.047 19.789-16.743 2.293.944 3.836 1.923 4.628 2.936 2.91 3.72 4.803 9.05 6.046 6.85 1.75-3.1 2.432-12.604 2.047-28.511-6.104-24.928-10.344-40.657-12.721-47.186-4.38-12.033-10.841-23.696-19.789-24.501-7.774 0-74.241 71.088-70.02 102z"/>
                <path fill="#FFA32C" d="M275.683 207.421c1.938-3.531-5.633-15.148-5.609-24.92.025-9.774.693-35.785-11.496-49.095-4.645-5.072-22.99-6.896-28.282-7.406-2.48 0 11.209 24.804 19.528 38.351 7.91 12.881 4.691 29.39 16.472 39.915 4.204 3.755 8.702 4.403 9.387 3.155z"/>
                <path fill="#FFF" d="M158.499 120.09c-6.637-7.351-15.015-8.512-25.11-2.52-10.097 5.99-16.826 16.967-11.54 29.317 5.835 13.628 13.824 28.657 25.24 30.749 9.91 1.815 32.882-3.35 43.699-11.215 10.817-7.866 22.39-23.07 24.09-34.55 1.442-9.74-10.186-20.826-16.587-27.173-7.933-7.866-18.828-13.587-30.288-6.436-11.46 7.15-10.227 11.987-9.504 21.829z" opacity=".901"/>
                <path fill="#008181" d="M174.546 124.619c-.946-.342-1.385-.827-1.316-1.455.346-3.142 2.174-6.158 4.433-7.6 4.21-2.688 14.647-.5 15.337 0 .162.117 4.864 1.897 4 1.936-2.824.129-12.36.227-15.925 1.64-3.105 1.229-5.281 3.055-6.53 5.479zM150.874 137.072c.136-.946-.028-1.559-.494-1.839-2.331-1.4-5.163-1.537-7.065-.485-3.547 1.962-5.897 11.428-5.822 12.252.018.193-.37 6.49 0 5.813 1.21-2.21 4.564-11.278 6.965-13.4 2.09-1.85 4.229-2.63 6.416-2.341z"/>
                <path fill="#FFA32C" d="M164.69 130.076c-2.169.704-2.169 8.006-2.169 10.896 0 2.89 1.13 4.04 1.38 4.195 2.328 1.445 6.672 7.403 11.734 6.565 4.353-.72 3.7-14.9 2.07-17.446-1.104-1.725-9.363-5.396-13.016-4.21z"/>
                <path fill="#E38D1D" d="M167.428 143.785c4.39 1.337 7.023 1.559 7.895.663.241-.247.955-1.784.811-4.58-.048-.936-.39-2.657-1.028-5.163-.56 3.697-1.228 6.34-2 7.93-.2.413-2.094.796-5.678 1.15z"/>
                <path fill="#008181" d="M104.448 167.812c-3.997 8.206-5.16 18.85 0 26.494C109.608 201.95 133.866 230 137.25 230c3.384 0 7.403-10.201 7.788-13.018 3.091-22.631-1.031-64.587-15.918-84.016-1.328-1.732-3.309-5.667-4.79-4.858-1.482.81-.653 6.409-1 8.096-3.157 15.369-15.282 24.214-18.883 31.608z"/>
            </g>
        </g>
        <path fill="#FFF" fill-rule="nonzero" d="M173 10.788V63.07c0 5.444-4.414 9.858-9.858 9.858L129 73.07l-20 22v-22H94.858c-5.444 0-9.858-4.414-9.858-9.858V10.93c0-5.444 4.414-9.858 9.858-9.858L163.14.93c5.446 0 9.86 4.414 9.86 9.858z"/>
        <text fill="#005150" font-family="Muli-Bold, Muli" font-size="24" font-weight="bold" letter-spacing="-.24" transform="translate(85)">
            <tspan x="12.1" y="44">Oops!</tspan>
        </text>
    </g>
</svg>
