<?xml version="1.0" encoding="UTF-8"?>
<svg width="38px" height="45px" viewBox="0 0 38 45" version="1.1" xmlns="http://www.w3.org/2000/svg" xmlns:xlink="http://www.w3.org/1999/xlink">
    <!-- Generator: sketchtool 51.1 (57501) - http://www.bohemiancoding.com/sketch -->
    <title>29088105-9AAB-49A1-AFB9-234EA8FEE3D9</title>
    <desc>Created with sketchtool.</desc>
    <defs></defs>
    <g id="Web" stroke="none" stroke-width="1" fill="none" fill-rule="evenodd">
        <g id="Insurance-Results:-Coverage-you-need" transform="translate(-494.000000, -361.000000)" fill="#00A7A7">
            <g id="Group-15" transform="translate(433.000000, 341.000000)">
                <g id="Group-19" transform="translate(61.000000, 20.000000)">
                    <path d="M10.173718,24.2608696 C4.55498275,24.2608696 0,28.8162424 0,34.4349776 C0,40.0537129 4.55498275,44.6086957 10.173718,44.6086957 C15.7928433,44.6086957 20.3478261,40.0537129 20.3478261,34.4349776 C20.3478261,28.8162424 15.7928433,24.2608696 10.173718,24.2608696" id="Fill-1"></path>
                    <path d="M34.2388565,37.6388217 C32.2064217,37.6388217 30.5586391,39.2866043 30.5586391,41.3194304 C30.5586391,43.3522565 32.2064217,45.0000391 34.2388565,45.0000391 C36.2716826,45.0000391 37.9194652,43.3522565 37.9194652,41.3194304 C37.9194652,39.2866043 36.2716826,37.6388217 34.2388565,37.6388217" id="Fill-3"></path>
                    <path d="M10.2057652,9.21901304 C12.6979826,9.21901304 14.7178957,7.1987087 14.7178957,4.70688261 C14.7178957,2.21505652 12.6979826,0.194752174 10.2057652,0.194752174 C7.71393913,0.194752174 5.69363478,2.21505652 5.69363478,4.70688261 C5.69363478,7.1987087 7.71393913,9.21901304 10.2057652,9.21901304" id="Fill-6"></path>
                    <path d="M36.3913043,33.6374117 L35.919342,32.6460362 C35.3774302,31.5081501 34.0051632,31.0200405 32.854141,31.5559507 L32.2363851,31.8435312 L30.1665884,27.4886296 C29.1318866,25.3107902 26.9178683,23.9206882 24.4845703,23.9206882 L16.9826873,23.9206882 L16.9826873,17.5480596 L20.4349682,19.0967195 L22.1448002,19.86386 C23.6255281,20.5280155 25.3703348,19.8797935 26.0419282,18.4154646 L26.8746411,16.6005984 L27.9065921,14.3504753 C28.4571494,13.1515755 27.9195603,11.7381561 26.706841,11.1940849 C25.4945147,10.6504023 24.0660525,11.1812604 23.5154952,12.3805488 L22.7566615,14.0353026 C22.6057593,14.3640771 22.2143567,14.5094218 21.8819002,14.3605795 L13.4003318,10.5555785 C12.4607298,10.0628054 11.3902673,9.7826087 10.2522132,9.7826087 C6.53506752,9.7826087 3.52173913,12.7625645 3.52173913,16.4385429 L3.52173913,24.8522159 C5.42452161,23.5219617 7.74503597,22.7381105 10.2522132,22.7381105 C15.2422033,22.7381105 19.49851,25.8338758 21.1702234,30.1883888 L22.4418889,30.1883888 C23.6632536,30.1883888 24.7749784,30.8855772 25.2956696,31.9783831 L27.955714,37.5652174 L33.6896047,34.8953821 L36.3913043,33.6374117 Z" id="Fill-9"></path>
                </g>
            </g>
        </g>
    </g>
</svg>