<svg xmlns="http://www.w3.org/2000/svg" xmlns:xlink="http://www.w3.org/1999/xlink" width="457" height="335" viewBox="0 0 457 335">
    <defs>
        <path id="a" d="M.037.074h7.36v7.36H.038z"/>
        <path id="c" d="M.215.195H9.24v9.024H.215z"/>
    </defs>
    <g fill="none" fill-rule="evenodd">
        <path fill="#00756F" fill-opacity=".2" d="M327 174h130v149H46V131h104V17h177v157z"/>
        <g transform="translate(.248 35.97)">
            <path fill="#005E92" d="M243.252 249.906s6.138 4.928 20.132 8.015c3.082.679 6.404-.23 6.404 4.17h-16.984l-14.125-2.114v2.115h-7.629s-2.124-10.8 2.332-12.186h9.87z"/>
            <path fill="#FFAC83" d="M241.751 242.148l1.5 7.758c-2.784 1.67-6.438 1.776-9.345.271l-.524-.271.76-7.758h7.61z"/>
            <path fill="#00756F" d="M132.684 271.536h-1.372c-.648 0-1.178-.458-1.178-1.019V145.771c0-.56.53-1.019 1.178-1.019h1.372c.648 0 1.178.458 1.178 1.02v124.745c0 .561-.53 1.02-1.178 1.02"/>
            <path fill="#00756F" d="M202.381 208.559c-.023-.229-.042-.457-.067-.687a50.733 50.733 0 0 1-.219-2.54H70.203c.008.32.019.64.022.961a38.76 38.76 0 0 1-.058 2.266H202.38z"/>
            <path fill="#00756F" d="M80.701 252.191l-.97-.84c-.458-.397-.458-1.045 0-1.441L181.63 161.7c.457-.396 1.206-.396 1.665 0l.97.84c.458.397.458 1.046 0 1.442l-101.899 88.21c-.457.395-1.206.395-1.665 0"/>
            <path fill="#00756F" d="M79.73 162.54l.971-.84c.459-.396 1.208-.396 1.665 0l101.899 88.21c.458.396.458 1.044 0 1.441l-.97.84c-.459.396-1.208.396-1.665 0l-101.9-88.21a.929.929 0 0 1 0-1.44"/>
            <path fill="#00756F" d="M105.85 147.73l1.286-.415c.607-.194 1.288.075 1.514.601l50.19 116.935c.226.526-.086 1.116-.693 1.31l-1.287.415c-.607.195-1.288-.075-1.514-.6l-50.19-116.936c-.226-.525.086-1.115.693-1.31"/>
            <path fill="#00756F" d="M107.25 266.612l-1.288-.412c-.607-.195-.92-.784-.696-1.31l49.968-117.008c.224-.525.905-.796 1.512-.601l1.288.411c.607.194.92.784.696 1.31l-49.968 117.007c-.224.525-.905.797-1.512.603"/>
            <path fill="#00756F" d="M198.079 230.335l-125.612-47.81a108.84 108.84 0 0 1-.611 3.292l124.723 47.472c.938.357 2.043-.016 2.456-.828.412-.812-.018-1.769-.956-2.126"/>
            <path fill="#00756F" d="M196.515 181.226L68.401 228.812c.059 1.143.181 2.268.386 3.368l128.97-47.904a11.642 11.642 0 0 1-1.242-3.05"/>
            <path fill="#00756F" d="M122.86 206.468c0 7.28 5.681 13.182 12.689 13.182 7.007 0 12.689-5.902 12.689-13.182s-5.682-13.18-12.69-13.18c-7.007 0-12.689 5.9-12.689 13.18"/>
            <path fill="#00756F" d="M133.382 133.754c-39.372 0-71.29 33.26-71.29 74.29 0 41.029 31.918 74.29 71.29 74.29 39.373 0 71.29-33.261 71.29-74.29 0-41.03-31.917-74.29-71.29-74.29m0 138.068c-33.801 0-61.202-28.555-61.202-63.779 0-35.223 27.4-63.778 61.202-63.778s61.203 28.555 61.203 63.778c0 35.224-27.401 63.779-61.203 63.779"/>
            <path fill="#00756F" d="M133.382 143.7c-34.245 0-62.006 28.807-62.006 64.343 0 35.537 27.76 64.345 62.006 64.345 34.246 0 62.007-28.808 62.007-64.345 0-35.536-27.761-64.344-62.007-64.344m0 125.833c-32.726 0-59.254-27.53-59.254-61.489 0-33.959 26.528-61.488 59.254-61.488 32.725 0 59.255 27.53 59.255 61.488 0 33.96-26.53 61.49-59.255 61.49"/>
            <path fill="#00756F" d="M119.309 206.468c0 7.28 5.681 13.182 12.69 13.182 7.007 0 12.688-5.902 12.688-13.182s-5.681-13.18-12.689-13.18-12.69 5.9-12.69 13.18"/>
            <ellipse cx="213.277" cy="277.011" fill="#118C8C" rx="11.561" ry="11.493"/>
            <path fill="#00756F" d="M127.063 206.468c0 2.831 2.21 5.127 4.935 5.127 2.725 0 4.935-2.296 4.935-5.127s-2.21-5.126-4.935-5.126c-2.726 0-4.935 2.295-4.935 5.126M217.672 186.573h-92.026v-7.19h83.72v-36.946c0-14.39-13.523-26.096-30.145-26.096H128.7v-7.19h50.522c21.202 0 38.45 14.932 38.45 33.286v44.136z"/>
            <path fill="#118C8C" d="M213.536 282.53c-2.293 0-4.152-1.723-4.152-3.847v-94.958h8.305v94.958c0 2.124-1.859 3.847-4.153 3.847"/>
            <path fill="#CDEAE6" d="M122.74 179.383H70.887V71.497h21.264c16.894 0 30.59 11.855 30.59 26.48v81.406z"/>
            <path fill="#118C8C" d="M69.128 63.952h3.3c1.558 0 2.832 1.103 2.832 2.452v144.828c0 1.348-1.274 2.451-2.832 2.451h-3.3c-1.558 0-2.832-1.103-2.832-2.451V66.404c0-1.349 1.274-2.452 2.832-2.452"/>
            <path fill="#005960" d="M171.508 182.978h-95.3c-4.26 0-7.746-3.017-7.746-6.705v-7.816c0-3.687 3.485-6.704 7.745-6.704h95.3c4.26 0 7.746 3.017 7.746 6.704v7.816c0 3.688-3.486 6.705-7.745 6.705M142.67 76.185c8.825 25.218 38.447 63.933 38.447 63.933l-23.396-8.289-16.536-33.075s-7.342-47.786 1.484-22.569"/>
            <path fill="#1C2C57" d="M111.725 131.83c2.67 20.833 22.688 36.768 46.895 37.329l56.435 3.544s-1.465 15.816 14.395 73.412c9.84 0 13.88-1.198 13.88-1.198s3.896-65.985-6.921-91.171c-8.67-20.189-65.544-21.917-65.544-21.917h-59.14z"/>
            <path fill="#118C8C" d="M272.453 269.088h-78.052l-39.755-43.299 8.15-4.011 36.835 40.12h72.822c2.712 0 4.91 1.61 4.91 3.595 0 1.986-2.198 3.595-4.91 3.595"/>
            <path fill="#172D5A" d="M228.995 249.906s6.139 4.928 20.133 8.015c3.082.679 6.403-.23 6.403 4.17h-16.983l-14.126-2.114v2.115h-7.628s-2.125-10.8 2.331-12.186h9.87z"/>
            <path fill="#FFAC83" d="M227.494 242.148l1.501 7.758c-2.784 1.67-6.439 1.776-9.346.271l-.524-.271.76-7.758h7.61z"/>
            <path fill="#004472" d="M98.58 131.83c2.67 20.833 22.688 36.768 46.895 37.329l56.435 3.544s-1.464 15.816 14.395 73.412c9.84 0 13.88-1.198 13.88-1.198s3.896-65.985-6.92-91.171c-8.67-20.189-65.544-21.917-65.544-21.917H98.579z"/>
            <path fill="#118C8C" d="M35.572 63.926h36.925c1.52 0 2.763 1.077 2.763 2.392v2.787c0 1.315-1.243 2.392-2.763 2.392H35.572c-1.52 0-2.763-1.077-2.763-2.392v-2.787c0-1.315 1.243-2.392 2.763-2.392"/>
            <path fill="#005960" d="M56.323 73.894h-40.15c-1.991 0-3.62-1.41-3.62-3.134V63.49c0-1.723 1.629-3.133 3.62-3.133h40.15c1.991 0 3.62 1.41 3.62 3.133v7.269c0 1.723-1.629 3.134-3.62 3.134"/>
            <path fill="#FFAC83" d="M170.85 123.63l11.823-.481c6.017-.776 11.806 6.21 14.154 11.75.353.833-.46 1.688-1.475 1.572-5.329-.607-19.052-3.446-22.782-4.634l-1.72-8.208z"/>
            <path fill="#FF977C" d="M145.151 36.387l-6.12 13.717-13.253-8.302 8.944-16.173z"/>
            <path fill="#FFAC83" d="M150.143 38.662c2.055.321 4.011.4 5.17-.12 7.686-6.35 5.81-27.559 5.81-27.559l-8.587-5.138-13.525 4.292-3.921 13.275c-1.047 3.543.106 7.334 3.107 10.21 3.344 2.528 7.473 4.34 11.946 5.04"/>
            <path fill="#004472" d="M141.397 14.603c1.201-2.132 4.085-3.137 6.642-2.282 1.864.623 4.117 1.278 6.344 1.681 5.307.962 15.202.879 16.893-6.112 1.69-6.992-8.81-6.392-8.81-6.392l-13.952.832c-4.132.247-8.237-.476-12.033-1.908-3.353-1.264-6.333 1.427-7.05 3.228-1.574 3.947.067 10.692 1.442 15.016.796 2.502 2.102 4.854 3.85 6.963l6.674-11.026z"/>
            <path fill="#FFAC83" d="M133.556 17.603c1.401-.69 3.574-.118 4.852 1.278 1.278 1.395 1.18 3.086-.223 3.776-1.4.69-3.573.117-4.852-1.279-1.278-1.395-1.178-3.086.223-3.775"/>
            <path fill="#71D8B8" d="M141.939 46.263s1.687-2.253-13.318-8.97C106.004 56.874 98.58 131.83 98.58 131.83h59.142c1.998-42.776-15.782-85.566-15.782-85.566"/>
            <path fill="#71D8B8" d="M135.554 70.749s-11.011 8.727-17.492 17.678c-1.801 2.488-1.532 5.706.692 7.923 12.317 12.28 56.204 24.073 56.204 24.073l-2.842 13.858s-62.278-10.603-84.338-29.756c-22.634-19.653 35.882-60.7 35.882-60.7"/>
            <ellipse cx="158.264" cy="277.011" fill="#118C8C" rx="17.142" ry="17.041"/>
            <path fill="#118C8C" d="M162.913 186.573H70.887v-7.19h83.72v-36.946c0-14.39-13.523-26.096-30.145-26.096H73.94v-7.19h50.522c21.202 0 38.45 14.932 38.45 33.286v44.136z"/>
            <path fill="#118C8C" d="M158.778 282.53c-2.294 0-4.153-1.723-4.153-3.847v-94.958h8.305v94.958c0 2.124-1.86 3.847-4.152 3.847"/>
            <path fill="#00C9C3" d="M71.102 277.153h-1.373c-.648 0-1.178-.458-1.178-1.019V151.388c0-.56.53-1.019 1.178-1.019h1.373c.647 0 1.177.458 1.177 1.02v124.745c0 .561-.53 1.02-1.177 1.02"/>
            <path fill="#00C9C3" d="M140.798 214.176c-.023-.229-.042-.457-.067-.686a50.84 50.84 0 0 1-.219-2.54H8.621c.007.32.018.64.021.96a38.76 38.76 0 0 1-.058 2.266h132.214z"/>
            <path fill="#00C9C3" d="M19.118 257.808l-.97-.84c-.458-.397-.458-1.045 0-1.441l101.899-88.21c.457-.396 1.206-.396 1.665 0l.97.84a.929.929 0 0 1 0 1.442l-101.899 88.21c-.457.395-1.206.395-1.665 0"/>
            <path fill="#00C9C3" d="M18.149 168.157l.97-.84c.458-.396 1.207-.396 1.665 0l101.898 88.21a.929.929 0 0 1 0 1.441l-.97.84c-.459.396-1.208.396-1.665 0l-101.898-88.21c-.459-.395-.459-1.044 0-1.44"/>
            <path fill="#00C9C3" d="M44.267 153.347l1.286-.414c.607-.195 1.288.075 1.514.6l50.19 116.936c.226.525-.086 1.115-.693 1.31l-1.287.414c-.607.195-1.288-.075-1.513-.6l-50.19-116.936c-.227-.525.086-1.115.693-1.31"/>
            <path fill="#00C9C3" d="M45.667 272.229l-1.288-.412c-.607-.195-.92-.784-.696-1.31l49.968-117.008c.224-.525.905-.796 1.513-.601l1.287.412c.607.193.92.783.696 1.308L47.18 271.626c-.225.525-.905.797-1.513.603"/>
            <path fill="#00C9C3" d="M136.496 235.952l-125.612-47.81c-.184 1.1-.394 2.196-.611 3.292l124.723 47.472c.938.357 2.043-.015 2.456-.828.412-.812-.018-1.769-.956-2.126"/>
            <path fill="#00C9C3" d="M134.932 186.843L6.818 234.429c.059 1.143.182 2.268.386 3.368l128.97-47.904a11.617 11.617 0 0 1-1.242-3.05"/>
            <path fill="#241F20" d="M71.8 139.37c-39.373 0-71.29 33.26-71.29 74.29 0 41.03 31.917 74.29 71.29 74.29 39.372 0 71.29-33.26 71.29-74.29 0-41.03-31.918-74.29-71.29-74.29m0 138.069c-33.802 0-61.203-28.555-61.203-63.778 0-35.224 27.4-63.779 61.202-63.779s61.203 28.555 61.203 63.779c0 35.223-27.4 63.778-61.203 63.778"/>
            <path fill="#005960" d="M71.8 139.37c-39.373 0-71.29 33.26-71.29 74.29 0 41.03 31.917 74.29 71.29 74.29 39.372 0 71.29-33.26 71.29-74.29 0-41.03-31.918-74.29-71.29-74.29m0 138.069c-33.802 0-61.203-28.555-61.203-63.778 0-35.224 27.4-63.779 61.202-63.779s61.203 28.555 61.203 63.779c0 35.223-27.4 63.778-61.203 63.778"/>
            <path fill="#00C9C3" d="M71.8 150.15c-33.802 0-61.203 28.435-61.203 63.51 0 35.076 27.4 63.51 61.202 63.51s61.203-28.434 61.203-63.51c0-35.075-27.4-63.51-61.203-63.51m0 124.202c-32.3 0-58.486-27.172-58.486-60.692 0-33.518 26.186-60.691 58.486-60.691 32.301 0 58.487 27.173 58.487 60.691 0 33.52-26.186 60.692-58.487 60.692"/>
            <path fill="#00756F" d="M57.726 212.085c0 7.28 5.958 13.182 13.307 13.182 7.35 0 13.307-5.902 13.307-13.182s-5.958-13.181-13.307-13.181-13.307 5.901-13.307 13.181"/>
            <path fill="#1C2C57" d="M289.417 298.54l-6.648-155.143-5.243.17 6.64 154.974zM180.59 298.54l6.64-154.974-5.243-.169-6.648 155.144z"/>
            <path fill="#00C9C3" d="M276.57 83.59l4.856 3.498-5.183 20.606-4.923 1.96z"/>
            <path fill="#1C2C57" d="M294.184 144.247H168.456c0-2.4 2.058-4.346 4.595-4.346H289.59c2.538 0 4.594 1.945 4.594 4.346"/>
            <path fill="#00C9C3" d="M250.319 139.454h-25.593v-2.683h25.593c6.911 0 12.835-3.575 13.776-8.315l17.508-74.665 3.825.43-17.5 74.634c-1.197 6.028-8.771 10.6-17.61 10.6"/>
        </g>
        <g fill="#004472">
            <path d="M190.62 45.557c0 25.16 20.456 45.557 45.69 45.557 25.234 0 45.69-20.397 45.69-45.557C282 20.397 261.544 0 236.31 0c-25.234 0-45.69 20.396-45.69 45.557"/>
            <path d="M249 74.225l-58.357 19.522L210.274 31z"/>
        </g>
        <g>
            <path fill="#FFF" d="M230.174 45.26c-5.619 0-10.174 4.556-10.174 10.175 0 5.619 4.555 10.174 10.174 10.174s10.174-4.555 10.174-10.174-4.555-10.174-10.174-10.174"/>
            <g transform="translate(250.522 58.565)">
                <mask id="b" fill="#fff">
                    <use xlink:href="#a"/>
                </mask>
                <path fill="#FFF" d="M3.717.074a3.68 3.68 0 1 0 0 7.36 3.68 3.68 0 0 0 0-7.36" mask="url(#b)"/>
            </g>
            <g transform="translate(225.478 21)">
                <mask id="d" fill="#fff">
                    <use xlink:href="#c"/>
                </mask>
                <path fill="#FFF" d="M4.728 9.219a4.512 4.512 0 1 0 0-9.024 4.512 4.512 0 0 0 0 9.024" mask="url(#d)"/>
            </g>
            <path fill="#FFF" d="M256.391 54.637l-.472-.991a2.315 2.315 0 0 0-3.065-1.09l-.618.288-2.07-4.355a6.283 6.283 0 0 0-5.681-3.568h-7.502v-6.373l3.452 1.549 1.71.767c1.48.664 3.225.016 3.897-1.449l.833-1.814 1.032-2.25a2.373 2.373 0 0 0-1.2-3.157 2.422 2.422 0 0 0-3.192 1.187l-.758 1.654a.664.664 0 0 1-.875.326l-8.482-3.805a6.757 6.757 0 0 0-3.148-.773c-3.717 0-6.73 2.98-6.73 6.656v8.413a11.707 11.707 0 0 1 6.73-2.114c4.99 0 9.247 3.096 10.918 7.45h1.272c1.221 0 2.333.698 2.854 1.79l2.66 5.587 5.734-2.67 2.701-1.258z"/>
        </g>
    </g>
</svg>
