<?xml version="1.0" encoding="UTF-8"?>
<svg width="72px" height="64px" viewBox="0 0 72 64" version="1.1" xmlns="http://www.w3.org/2000/svg" xmlns:xlink="http://www.w3.org/1999/xlink">
    <!-- Generator: sketchtool 51.2 (57519) - http://www.bohemiancoding.com/sketch -->
    <title>7DCFA496-DCA4-4951-BC76-F612BA025A5A</title>
    <desc>Created with sketchtool.</desc>
    <defs>
        <rect id="path-1" x="0" y="0" width="79" height="67"></rect>
        <polygon id="path-3" points="0 0 52.5510204 0 52.5510204 69.6542553 0 69.6542553"></polygon>
    </defs>
    <g id="Symbols" stroke="none" stroke-width="1" fill="none" fill-rule="evenodd">
        <g id="new" transform="translate(-641.000000, -1887.000000)">
            <g id="Group-20" transform="translate(8.000000, 1419.000000)">
                <g id="Group-29" transform="translate(312.000000, 461.000000)">
                    <g id="OWL" transform="translate(319.000000, 4.000000)">
                        <mask id="mask-2" fill="white">
                            <use xlink:href="#path-1"></use>
                        </mask>
                        <g id="Mask"></g>
                        <g mask="url(#mask-2)">
                            <g transform="translate(-10.000000, 3.000000)">
                                <g id="Group-9" stroke-width="1" fill="none">
                                    <g id="Group-8">
                                        <path d="M2.05749872,50.5638298 L61.2078074,50.5638298 C60.6788942,66.8984524 47.6400654,79.9734043 31.6326531,79.9734043 C15.6252408,79.9734043 2.58641196,66.8984524 2.0574989,50.5638354 Z" id="Combined-Shape-Copy-2" fill="#2D8289" transform="translate(31.632653, 65.268617) rotate(-315.000000) translate(-31.632653, -65.268617) "></path>
                                        <g id="Group-7" transform="translate(15.816327, 0.000000)">
                                            <g id="Group-6">
                                                <g id="Group">
                                                    <g id="Group-3">
                                                        <mask id="mask-4" fill="white">
                                                            <use xlink:href="#path-3"></use>
                                                        </mask>
                                                        <g id="Clip-2"></g>
                                                        <path d="M45.7358721,66.0425532 L45.7358721,22.6922096 C45.7358721,21.8546754 45.6905376,21.0274368 45.6025093,20.2136275 C45.2393927,16.8514042 45.5338473,13.4614272 46.3727566,10.1887318 C46.5285667,9.57949394 46.6720527,8.9474264 46.8071761,8.29208158 C47.1553279,6.60671734 45.389921,5.29916118 43.9251307,6.16355383 C43.2684399,6.55165763 42.5853405,6.92722751 41.9026813,7.26206216 C41.0342825,7.68776771 40.0039117,7.50020659 39.3282947,6.80054542 C35.2781142,2.6070548 29.6456257,0 23.4233478,0 C17.2010699,0 11.5699018,2.60660716 7.51928116,6.79875486 C6.84410437,7.49841603 5.81285324,7.68597715 4.94445441,7.25982396 C4.26355578,6.92588459 3.58221701,6.55076235 2.92640643,6.16355383 C1.46205624,5.29916118 -0.303350611,6.6062697 0.0443610357,8.29163394 C0.179044281,8.94250236 0.321209929,9.5700935 0.475699534,10.1753027 C1.31328848,13.447998 1.60994373,16.8375273 1.24462643,20.1988554 C1.15571788,21.0175888 1.10994318,21.8493037 1.10994318,22.6922096 L1.10994318,33.9261807 C1.10994318,48.2054459 9.51400164,60.5191244 21.5518669,66.0425532 L5.54744802,66.0425532 L52.5510204,66.0425532 L45.7358721,66.0425532 Z" id="Fill-1" fill="#00A7A7" mask="url(#mask-4)"></path>
                                                    </g>
                                                    <path d="M32.6178743,11.3510638 C28.4095617,11.3510638 24.8256773,14.0825326 23.4693878,17.9054236 C22.1130982,14.0825326 18.5296523,11.3510638 14.3213397,11.3510638 C8.94792481,11.3510638 4.59183673,15.8037076 4.59183673,21.2957797 C4.59183673,32.6156427 5.66046837,41.7925532 23.4693878,41.7925532 C40.289483,41.7925532 42.3469388,32.6156427 42.3469388,21.2957797 C42.3469388,15.8037076 37.9908507,11.3510638 32.6178743,11.3510638" id="Fill-4" fill="#EEFCFB"></path>
                                                    <path d="M25.3674933,32.9161341 L27.4162909,29.0995207 C27.6450153,28.6736853 27.5774726,28.1380563 27.2520392,27.7922575 L24.2366635,24.5820746 C23.8206614,24.1393085 23.1181141,24.1393085 22.7026237,24.5820746 L19.6867363,27.7922575 C19.3613029,28.1380563 19.2937602,28.6736853 19.5224846,29.0995207 L21.5712822,32.9161341 C22.3848656,34.4322106 24.5539099,34.4322106 25.3674933,32.9161341" id="Fill-10" fill="#FFA32C"></path>
                                                </g>
                                            </g>
                                        </g>
                                    </g>
                                    <g id="Group-10" transform="translate(68.877551, 7.223404)"></g>
                                </g>
                                <path d="M48.1080463,53.5460433 L89.4225253,53.5460433 C89.1549323,64.9908327 80.0088196,74.1843412 68.7652858,74.1843412 C57.5217521,74.1843412 48.3756394,64.9908327 48.1080463,53.5460433 Z" id="Combined-Shape" fill="#FF872F" transform="translate(68.765286, 63.865192) rotate(-315.000000) translate(-68.765286, -63.865192) "></path>
                                <g id="Group-14" stroke-width="1" fill="none" transform="translate(28.061224, 19.090426)">
                                    <g id="Group-13" fill="#007F7E">
                                        <g id="Group-10">
                                            <ellipse id="Oval-7" cx="20.6632653" cy="2.83776596" rx="2.80612245" ry="2.83776596"></ellipse>
                                            <ellipse id="Oval-7-Copy" cx="2.80612245" cy="2.83776596" rx="2.80612245" ry="2.83776596"></ellipse>
                                        </g>
                                    </g>
                                </g>
                            </g>
                        </g>
                    </g>
                </g>
            </g>
        </g>
    </g>
</svg>