<svg xmlns="http://www.w3.org/2000/svg" xmlns:xlink="http://www.w3.org/1999/xlink" width="110" height="114" viewBox="0 0 110 114">
    <defs>
        <ellipse id="a" cx="47.806" cy="48.888" rx="47.806" ry="48.888"/>
        <path id="c" d="M0 0h67.77v90.792H0z"/>
    </defs>
    <g fill="none" fill-rule="evenodd">
        <g transform="translate(7.44 15.867)">
            <mask id="b" fill="#fff">
                <use xlink:href="#a"/>
            </mask>
            <use fill="#005150" xlink:href="#a"/>
            <g mask="url(#b)">
                <path fill="#008181" d="M104.655 151.418c-24.292 22.94-61.831 23.26-84.689.402-22.858-22.858-22.538-60.396.403-84.689z"/>
                <path fill="#FF9445" d="M93.703 60.935c7.096 13.117 2.826 29.385-9.762 36.653-12.589 7.268-28.813 2.832-36.624-9.872z"/>
                <g transform="translate(18.387 24.713)">
                    <mask id="d" fill="#fff">
                        <use xlink:href="#c"/>
                    </mask>
                    <path fill="#00BCBC" d="M58.98 85.957V29.535c0-1.09-.058-2.167-.172-3.226-.468-4.376-.088-8.788.994-13.048.2-.793.386-1.616.56-2.469.449-2.193-1.828-3.895-3.717-2.77-.847.505-1.727.994-2.608 1.43-1.12.554-2.448.31-3.32-.6C45.494 3.392 38.231 0 30.207 0 22.181 0 14.92 3.393 9.696 8.849c-.87.91-2.2 1.155-3.32.6a38.472 38.472 0 0 1-2.603-1.427c-1.889-1.125-4.165.576-3.717 2.77.174.847.357 1.664.556 2.452 1.08 4.26 1.463 8.67.992 13.046a30.325 30.325 0 0 0-.174 3.245v14.621c0 18.585 10.838 34.612 26.362 41.8H7.153 67.77 58.98z" mask="url(#d)"/>
                </g>
                <path fill="#FFF" d="M60.433 39.218c-5.446 0-10.084 3.567-11.839 8.56-1.755-4.993-6.392-8.56-11.838-8.56-6.953 0-12.59 5.815-12.59 12.987 0 14.783 1.383 26.768 24.428 26.768 21.766 0 24.429-11.985 24.429-26.768 0-7.172-5.637-12.987-12.59-12.987" opacity=".901"/>
            </g>
        </g>
        <path fill="#FFA32C" d="M58.757 83.497l3.032-5.856c.339-.654.239-1.476-.243-2.006l-4.463-4.926a1.52 1.52 0 0 0-2.27 0l-4.465 4.926c-.481.53-.581 1.352-.243 2.006l3.033 5.856a3.134 3.134 0 0 0 5.619 0"/>
        <g fill="#007F7E">
            <path d="M73.088 69.784h-2.643c0-.814-.219-2.706-2.247-2.706s-2.247 1.892-2.247 2.706h-2.643c0-3.027 1.965-5.06 4.89-5.06s4.89 2.033 4.89 5.06M48.754 69.784H46.11c0-.814-.22-2.706-2.247-2.706-2.028 0-2.247 1.892-2.247 2.706h-2.644c0-3.027 1.966-5.06 4.89-5.06 2.926 0 4.89 2.033 4.89 5.06"/>
        </g>
        <g fill-rule="nonzero">
            <path fill="#50E3C2" d="M88.94 43c-11.85 0-21.5-9.6-21.5-21.5S77.09 0 88.94 0s21.5 9.6 21.5 21.5S100.79 43 88.94 43z"/>
            <path fill="#41D1B1" d="M88.94 43c-11.868 0-21.5-9.617-21.5-21.5S77.072 0 88.94 0c11.867 0 21.5 9.617 21.5 21.5S100.807 43 88.94 43zm.268-3.763c9.643 0 17.47-7.813 17.47-17.468 0-9.655-7.827-17.469-17.47-17.469-9.642 0-17.468 7.814-17.468 17.469 0 9.655 7.826 17.468 17.468 17.468z"/>
            <path fill="#FFF" d="M84.852 24.814l13.54-13.462 3.792 3.769-17.332 17.231-9.156-9.103 3.79-3.769z"/>
        </g>
    </g>
</svg>
