<svg xmlns="http://www.w3.org/2000/svg" xmlns:xlink="http://www.w3.org/1999/xlink" width="81" height="80" viewBox="0 0 81 80">
    <defs>
        <circle id="kiifspzexa" cx="40" cy="40" r="40"/>
        <path id="wi48io7wgc" d="M0 0L59.534 0 59.534 78.84 0 78.84z"/>
    </defs>
    <g fill="none" fill-rule="evenodd">
        <g>
            <g>
                <g transform="translate(-148 -308) translate(29 308) translate(119.02)">
                    <mask id="wub18rk7nb" fill="#fff">
                        <use xlink:href="#kiifspzexa"/>
                    </mask>
                    <use fill="#DAEFEF" xlink:href="#kiifspzexa"/>
                    <g mask="url(#wub18rk7nb)">
                        <g>
                            <path fill="#58AFAF" d="M107.968 65.779c-.84 29.002-23.96 52.248-52.357 52.248-28.398 0-51.518-23.246-52.357-52.248z" transform="translate(-22 14.558) rotate(45 55.61 91.903)"/>
                            <g>
                                <g>
                                    <path fill="#F2C09B" d="M75.215 41.52c-.363 12.945-10.757 23.325-23.527 23.325-12.77 0-23.164-10.38-23.527-23.326z" transform="translate(-22 14.558) translate(35.536) rotate(-30 51.688 53.182)"/>
                                    <g>
                                        <g transform="translate(-22 14.558) translate(35.536)">
                                            <mask id="pm8csowlgd" fill="#fff">
                                                <use xlink:href="#wi48io7wgc"/>
                                            </mask>
                                            <path fill="#63BBBB" d="M51.813 74.642V25.647c0-.947-.051-1.882-.15-2.801-.412-3.8-.079-7.632.872-11.33.176-.69.339-1.404.492-2.144.394-1.905-1.606-3.383-3.265-2.406-.744.439-1.518.863-2.291 1.242-.984.48-2.151.269-2.917-.522C39.966 2.946 33.584 0 26.536 0c-7.05 0-13.429 2.946-18.018 7.684-.764.79-1.933 1.003-2.917.521-.77-.377-1.543-.801-2.286-1.239-1.659-.977-3.659.5-3.265 2.405.153.736.314 1.445.489 2.13.949 3.698 1.285 7.529.871 11.328-.1.925-.153 1.865-.153 2.818v12.697c0 16.138 9.521 30.055 23.159 36.298H6.285h53.249-7.72z" mask="url(#pm8csowlgd)"/>
                                        </g>
                                        <path fill="#FFF" d="M36.936 12.596c-4.784 0-8.858 3.097-10.4 7.433-1.541-4.336-5.615-7.433-10.399-7.433-6.108 0-11.06 5.05-11.06 11.277 0 12.838 1.214 23.245 21.46 23.245 19.12 0 21.46-10.407 21.46-23.245 0-6.228-4.953-11.277-11.06-11.277" opacity=".901" transform="translate(-22 14.558) translate(35.536)"/>
                                        <path fill="#F2C09B" d="M28.929 37.268l2.664-5.085c.297-.568.21-1.281-.214-1.742l-3.92-4.277c-.542-.59-1.455-.59-1.996 0l-3.921 4.277c-.423.46-.511 1.174-.214 1.742l2.664 5.085c1.058 2.02 3.879 2.02 4.937 0" transform="translate(-22 14.558) translate(35.536)"/>
                                        <g fill="#63BBBB">
                                            <path d="M29.796 4.67h-2.309c0-.751-.191-2.498-1.963-2.498-1.77 0-1.962 1.747-1.962 2.498h-2.309c0-2.794 1.717-4.67 4.271-4.67 2.555 0 4.272 1.876 4.272 4.67M8.542 4.67H6.234c0-.751-.191-2.498-1.963-2.498C2.5 2.172 2.31 3.919 2.31 4.67H0C0 1.876 1.717 0 4.271 0c2.555 0 4.271 1.876 4.271 4.67" transform="translate(-22 14.558) translate(35.536) translate(11.248 20.967)"/>
                                        </g>
                                    </g>
                                </g>
                            </g>
                        </g>
                    </g>
                </g>
            </g>
        </g>
    </g>
</svg>
