<svg width="91" height="90" viewBox="0 0 91 90" fill="none" xmlns="http://www.w3.org/2000/svg">
<ellipse cx="45.136" cy="45.0275" rx="44.9812" ry="44.6459" fill="#005150"/>
<mask id="mask0_6091_26025" style="mask-type:luminance" maskUnits="userSpaceOnUse" x="0" y="0" width="91" height="90">
<ellipse cx="45.136" cy="45.0275" rx="44.9812" ry="44.6459" fill="white"/>
</mask>
<g mask="url(#mask0_6091_26025)">
<path fill-rule="evenodd" clip-rule="evenodd" d="M18.7317 60.5207C-2.2005 82.7239 -1.97748 117.521 19.5299 139.028C41.0374 160.536 75.8343 160.759 98.0375 139.826L18.7317 60.5207Z" fill="#008181"/>
<path fill-rule="evenodd" clip-rule="evenodd" d="M44.8613 80.8572C52.0048 92.453 67.1047 96.3406 78.9495 89.502C90.7942 82.6635 94.9774 67.6428 88.5069 55.6584L44.8613 80.8572Z" fill="#FF9445"/>
<mask id="mask1_6091_26025" style="mask-type:luminance" maskUnits="userSpaceOnUse" x="17" y="22" width="65" height="84">
<path fill-rule="evenodd" clip-rule="evenodd" d="M17.4553 22.9499H81.2199V105.864H17.4553V22.9499Z" fill="white"/>
</mask>
<g mask="url(#mask1_6091_26025)">
<path fill-rule="evenodd" clip-rule="evenodd" d="M72.9505 101.448V49.9219C72.9505 48.9264 72.8955 47.9431 72.7886 46.9759C72.348 42.9795 72.7053 38.9502 73.7232 35.0602C73.9123 34.3361 74.0864 33.5848 74.2504 32.8059C74.6728 30.8027 72.5307 29.2485 70.7533 30.2759C69.9565 30.7372 69.1277 31.1836 68.2993 31.5816C67.2456 32.0876 65.9954 31.8647 65.1756 31.033C60.2612 26.0487 53.4268 22.9499 45.8768 22.9499C38.3268 22.9499 31.494 26.0481 26.579 31.0309C25.7598 31.8625 24.5085 32.0855 23.4548 31.5789C22.6286 31.182 21.8019 30.7362 21.0061 30.2759C19.2293 29.2485 17.0872 30.8021 17.5091 32.8054C17.6725 33.579 17.845 34.3249 18.0325 35.0443C19.0488 38.9342 19.4087 42.963 18.9655 46.9583C18.8576 47.9314 18.802 48.92 18.802 49.9219V63.2746C18.802 80.247 28.9994 94.883 43.606 101.448H24.1864H81.2199H72.9505Z" fill="#00BCBC"/>
</g>
<path opacity="0.901284" fill-rule="evenodd" clip-rule="evenodd" d="M57.0165 36.1965C51.8925 36.1965 47.5288 39.4541 45.8775 44.0134C44.2261 39.4541 39.8629 36.1965 34.739 36.1965C28.1964 36.1965 22.8925 41.5068 22.8925 48.0569C22.8925 61.5573 24.1937 72.5019 45.8775 72.5019C66.3573 72.5019 68.8624 61.5573 68.8624 48.0569C68.8624 41.5068 63.5585 36.1965 57.0165 36.1965Z" fill="white"/>
</g>
<path fill-rule="evenodd" clip-rule="evenodd" d="M48.4396 62.1438L51.2929 56.7956C51.6115 56.1989 51.5174 55.4483 51.0642 54.9638L46.8647 50.4653C46.2853 49.8449 45.3069 49.8449 44.7283 50.4653L40.5281 54.9638C40.0749 55.4483 39.9808 56.1989 40.2993 56.7956L43.1527 62.1438C44.2857 64.2683 47.3065 64.2683 48.4396 62.1438Z" fill="#FF9445"/>
<path fill-rule="evenodd" clip-rule="evenodd" d="M61.9242 49.6207H59.4371C59.4371 48.8775 59.2313 47.1491 57.3229 47.1491C55.4148 47.1491 55.2086 48.8775 55.2086 49.6207H52.7216C52.7216 46.8566 54.5709 45 57.3229 45C60.0753 45 61.9242 46.8566 61.9242 49.6207Z" fill="#007F7E"/>
<path fill-rule="evenodd" clip-rule="evenodd" d="M39.0277 49.6207H36.5406C36.5406 48.8775 36.3349 47.1491 34.4264 47.1491C32.5184 47.1491 32.3122 48.8775 32.3122 49.6207H29.8251C29.8251 46.8566 31.6744 45 34.4264 45C37.1788 45 39.0277 46.8566 39.0277 49.6207Z" fill="#007F7E"/>
</svg>
