<svg width="30" height="28" viewBox="0 0 30 28" fill="none" xmlns="http://www.w3.org/2000/svg">
<path d="M15 22.25C16.875 22.25 18.4688 21.5938 19.7812 20.2812C21.0938 18.9688 21.75 17.375 21.75 15.5C21.75 13.625 21.0938 12.0312 19.7812 10.7188C18.4688 9.40625 16.875 8.75 15 8.75C13.125 8.75 11.5312 9.40625 10.2188 10.7188C8.90625 12.0312 8.25 13.625 8.25 15.5C8.25 17.375 8.90625 18.9688 10.2188 20.2812C11.5312 21.5938 13.125 22.25 15 22.25ZM3 27.5C2.175 27.5 1.46875 27.2063 0.88125 26.6188C0.29375 26.0312 0 25.325 0 24.5V6.5C0 5.675 0.29375 4.96875 0.88125 4.38125C1.46875 3.79375 2.175 3.5 3 3.5H7.725L10.5 0.5H19.5L22.275 3.5H27C27.825 3.5 28.5312 3.79375 29.1188 4.38125C29.7063 4.96875 30 5.675 30 6.5V24.5C30 25.325 29.7063 26.0312 29.1188 26.6188C28.5312 27.2063 27.825 27.5 27 27.5H3Z" fill="white"/>
</svg>
