<?xml version="1.0" encoding="UTF-8"?>
<svg width="721px" height="238px" viewBox="0 0 721 238" version="1.1" xmlns="http://www.w3.org/2000/svg" xmlns:xlink="http://www.w3.org/1999/xlink">
    <!-- Generator: Sketch 54 (76480) - https://sketchapp.com -->
    <title>Group 26</title>
    <desc>Created with Sketch.</desc>
    <g id="Symbols" stroke="none" stroke-width="1" fill="none" fill-rule="evenodd">
        <g id="Group-26" transform="translate(0.000000, 0.000000)">
            <path d="M720,117.349515 C643.33542,138.1659 575.210027,155.308806 515.62382,168.778232 C399.443202,195.04079 232.150301,217.397885 13.745115,235.849517 L-2.27373675e-13,235.849515 C152.622631,206.385252 290.257039,172.031821 412.903226,132.789222 C533.220615,94.2917591 635.586207,50.0286849 720,-2.84217094e-14 L720,117.349515 Z" id="Combined-Shape" fill="#31FF8B"></path>
            <path d="M546.206897,133.927225 C627.377765,110.377153 685.308799,91.0454239 720,75.9320388 L720,236.042796 L-2.27373675e-13,236.042796 C226.169492,207.994479 408.238457,173.955956 546.206897,133.927225 Z" id="Rectangle-8-Copy-2" fill="#00E232"></path>
            <path d="M546.206897,173.550133 C627.377765,159.137965 685.308799,147.307338 720,138.058252 L720,236.042796 L-2.27373675e-13,236.042796 C226.169492,218.877794 408.238457,198.046906 546.206897,173.550133 Z" id="Rectangle-8-Copy" fill="#015168"></path>
            <path d="M718.684322,186.363719 L2.44067797,236.042796" id="Line-7-Copy-2" stroke="#FF9600" stroke-width="3" stroke-linecap="round" stroke-dasharray="0,7" fill-rule="nonzero"></path>
            <path d="M720,74.5 L0,74.5" id="Line-7-Copy" stroke="#1FA0A0" stroke-linecap="square" stroke-dasharray="3,6" fill-rule="nonzero"></path>
            <path d="M720,1.5 L0,1.5" id="Line-7-Copy" stroke="#1FA0A0" stroke-linecap="square" stroke-dasharray="3,6" fill-rule="nonzero"></path>
            <path d="M720,137.5 L0,137.5" id="Line-7-Copy-2" stroke="#1FA0A0" stroke-linecap="square" stroke-dasharray="3,6" fill-rule="nonzero"></path>
            <path d="M720,183.5 L0,183.5" id="Line-7-Copy-2" stroke="#1FA0A0" stroke-linecap="square" stroke-dasharray="3,6" fill-rule="nonzero"></path>
        </g>
    </g>
</svg>