<?xml version="1.0" encoding="UTF-8"?>
<svg width="135px" height="135px" viewBox="0 0 135 135" version="1.1" xmlns="http://www.w3.org/2000/svg" xmlns:xlink="http://www.w3.org/1999/xlink">
    <!-- Generator: Sketch 57.1 (83088) - https://sketch.com -->
    <title>icon/portfolio_successful_p2</title>
    <desc>Created with Sketch.</desc>
    <defs>
        <polygon id="path-1" points="0.0156636757 0 133.663366 0 133.663366 135 0.0156636757 135"></polygon>
    </defs>
    <g id="icon/portfolio_successful_p2" stroke="none" stroke-width="1" fill="none" fill-rule="evenodd">
        <g id="icon/p2">
            <g id="conservative_icon">
                <g id="Group-4">
                    <g id="Group">
                        <g id="Group-3">
                            <mask id="mask-2" fill="white">
                                <use xlink:href="#path-1"></use>
                            </mask>
                            <g id="Clip-2"></g>
                            <path d="M66.8316832,0 C103.74183,0 133.663366,30.220752 133.663366,67.5 C133.663366,104.779248 103.74183,135 66.8316832,135 C29.9215366,135 0,104.779248 0,67.5 C0,30.220752 29.9215366,0 66.8316832,0" id="Fill-1" fill="#005150" mask="url(#mask-2)"></path>
                        </g>
                        <path d="M68.0417021,19.9404492 C71.1156985,22.0846289 74.8752417,22.4661621 78.1494721,21.3049512 C78.77132,21.0845215 79.1840579,20.4807129 79.1678721,19.8154688 C79.0832882,16.3115332 77.3989209,12.8956641 74.3246635,10.7514844 C71.2506672,8.60730469 67.4911239,8.22577148 64.2166325,9.38698242 C63.5947846,9.60741211 63.1820467,10.2112207 63.1982325,10.8764648 C63.2828164,14.3804004 64.9674447,17.7962695 68.0417021,19.9404492" id="Fill-4" fill="#008181"></path>
                        <path d="M43.0858118,37.4474707 C42.6827332,37.902832 42.5563796,38.5604297 42.7615737,39.1352344 C45.558062,46.9712988 51.9702487,53.0713477 60.3014968,54.7047949 C63.5548422,55.3426172 66.7888691,55.2382031 69.8503345,54.5041406 C79.2777789,52.2436816 81.8058961,39.0893555 73.900439,33.4306934 C64.4727336,26.6825391 51.3854715,28.0691895 43.0858118,37.4474707" id="Fill-6" fill="#008181"></path>
                        <path d="M112.479811,22.7221875 C112.822324,22.948418 113.018903,23.3555273 112.984704,23.7673828 C112.281666,32.2362598 105.779413,38.3758594 97.9567122,38.6068359 C91.4051187,38.8001074 87.4690981,30.6542285 91.6510384,25.5569238 C96.6383528,19.4784961 105.428808,18.0657422 112.479811,22.7221875" id="Fill-8" fill="#008181"></path>
                        <path d="M82.2476118,31.6139941 C80.838142,25.229707 76.4429146,21.6846387 76.3985342,21.6495703 C75.4931737,20.9318555 75.3292273,19.607168 76.0364422,18.6898535 C76.7431351,17.7722754 78.0476582,17.602207 78.9595452,18.3128027 C79.1879738,18.4910449 84.5773225,22.7683301 86.3274772,30.6950977 C86.5786181,31.8328418 85.8690536,32.9610937 84.7423132,33.2147461 C83.6202719,33.4676074 82.499797,32.7564844 82.2476118,31.6139941" id="Fill-10" fill="#00BCBC"></path>
                        <path d="M100.323233,57.1166016 C99.6322034,56.1834668 98.322459,55.9925684 97.39778,56.6905078 C97.1949354,56.8437012 92.4282178,60.5374805 92.4282178,68.6095312 L92.4282178,75.3305273 C92.4282178,76.4962207 93.3638614,77.4414844 94.5182743,77.4414844 C95.6724261,77.4414844 96.6083308,76.4964844 96.6083308,75.3305273 L96.6083308,68.6095312 C96.6083308,62.7771094 99.7478535,60.1941797 99.9167601,60.059707 C100.827603,59.3586035 101.010607,58.0449902 100.323233,57.1166016" id="Fill-11" fill="#00BCBC"></path>
                        <path d="M84.2875445,67.3051465 C83.1333926,67.3051465 82.197488,66.3601465 82.197488,65.1941895 L82.197488,31.436543 C82.197488,19.2003223 90.2287767,9.7687793 90.5705059,9.37327148 C91.329672,8.49498047 92.6498588,8.40480469 93.5194539,9.17129883 C94.3880047,9.93726562 94.4780709,11.2690723 93.7212543,12.1473633 C93.647896,12.232793 86.3773399,20.8171582 86.3773399,31.4362793 L86.3773399,65.1939258 C86.3776009,66.3601465 85.4416963,67.3051465 84.2875445,67.3051465" id="Fill-12" fill="#00BCBC"></path>
                        <path d="M84.2849339,61.7443066 C83.2192818,61.7443066 82.3089612,60.9250781 82.2066252,59.8318945 C81.7445467,54.893584 79.3093673,50.6479395 74.9689627,47.2125586 C69.0355623,42.5165625 61.2588084,40.8158789 53.7063061,41.1193652 C52.5589418,41.1649805 51.5807453,40.2587402 51.5350596,39.0938379 C51.4893738,37.9289355 52.3871635,36.9470215 53.5405322,36.9008789 C72.7460261,36.1320117 85.2093518,47.0564648 86.3679417,59.4342773 C86.4765432,60.5949609 85.6330542,61.6245996 84.4838625,61.7345508 C84.4172919,61.7411426 84.3509824,61.7443066 84.2849339,61.7443066" id="Fill-13" fill="#00BCBC"></path>
                        <path d="M83.5192412,45.6603223 C82.4457573,45.2318555 81.9197188,44.0055176 82.3439434,42.9212988 C87.4683149,29.8289355 100.798103,26.1704883 101.36304,26.02125 C102.479076,25.7254102 103.621742,26.4012012 103.91413,27.5289258 C104.205997,28.655332 103.539507,29.8073145 102.425559,30.104209 C102.307559,30.1361133 90.5613687,33.4095996 86.2311456,44.4732715 C85.8061378,45.5588086 84.5911587,46.0885254 83.5192412,45.6603223" id="Fill-14" fill="#00BCBC"></path>
                        <path d="M72.2356513,82.6943555 C78.515741,87.0291211 84.145005,87.2859375 89.1150893,88.694209 C95.82097,89.8696582 101.672136,92.0560254 101.672136,96.1091895 C101.672136,97.3616309 101.38027,98.378877 100.883209,99.2044336 L100.883731,99.2044336 C100.883731,99.2044336 116.519212,91.8036914 123.723981,87.6563965 C124.089467,87.4459863 124.45443,87.2616797 124.818089,87.1005762 C123.755569,86.6011816 123.4483,86.8912207 118.406685,86.805791 C116.914981,86.805791 115.48802,85.5979102 114.455262,83.461377 L111.87676,78.1272949 C110.844001,75.9907617 109.416779,74.7828809 107.925336,74.7828809 L99.4638188,74.7828809 C98.2018487,74.7828809 96.9785156,73.9175098 96.0008412,72.3336328 L92.2613997,66.2747168 C91.2837252,64.6905762 90.0603922,63.8254688 88.798422,63.8254688 L80.5092048,63.8254688 C79.2472347,63.8254688 78.0239016,64.6905762 77.0462272,66.2747168 L73.3070467,72.3336328 C72.3293723,73.9177734 71.1060392,74.7828809 69.8440691,74.7828809 L61.3825514,74.7828809 C59.8908474,74.7828809 58.4638865,75.9907617 57.4311282,78.1272949 L56.8536607,79.3219922 C61.551197,78.6585937 67.0277402,79.0997168 72.2356513,82.6943555" id="Fill-15" fill="#FF9600"></path>
                        <g id="Group-19" transform="translate(37.331761, 63.808594)">
                            <path d="M31.9283145,17.1716309 C32.676255,15.6360059 33.5523766,14.7956836 34.4569539,14.7956836 L41.680519,14.7956836 C42.7579189,14.7956836 43.8021639,13.6078418 44.6367768,11.4333398 L47.8290339,3.11607422 C48.4362624,1.53404297 49.1544419,0.477509766 49.9156966,0.0174023437 L43.1774443,0.0174023437 C41.9154742,0.0174023437 40.6921411,0.882509766 39.7144667,2.46665039 L35.9752862,8.52556641 C34.9976118,10.109707 33.7742787,10.9748145 32.5123086,10.9748145 L24.0507909,10.9748145 C22.5590869,10.9748145 21.132126,12.1826953 20.0993677,14.3192285 L19.5219001,15.5139258 C23.3315671,14.9755078 27.6529142,15.1642969 31.9283145,17.1716309" id="Fill-16" fill="#CD7900"></path>
                            <path d="M94.7850789,23.9274316 C92.6981552,21.4747559 89.6265084,21.548584 86.5496403,23.2793262 C79.3448716,27.3324902 63.7093905,34.5647461 63.7093905,34.5647461 L63.7088683,34.5647461 C64.205929,33.7581738 64.4977955,32.7636035 64.4977955,31.5399023 C64.4977955,27.5787598 58.6466294,25.4422266 51.9407488,24.2934082 C46.785572,22.8661523 41.2855333,22.6288477 35.0610497,18.4301367 C27.8468827,13.5638086 20.1168588,14.6100586 14.6565014,16.2503613 C8.7933265,18.0114258 4.46858563,17.3387988 0.110167853,17.4851367 L0.110167853,47.6940234 C2.51767481,47.9078613 5.27970297,47.4996973 9.09328589,49.0656445 C15.7905515,51.8160059 33.9129022,57.9527051 46.3281927,57.9527051 C56.5487411,57.9527051 81.8539314,43.3001953 93.4737682,33.2187012 C96.5281849,30.5685352 97.3964747,26.9968359 94.7850789,23.9274316" id="Fill-18" fill="#FFC59D"></path>
                        </g>
                        <path d="M101.041151,98.3733398 L101.041151,98.3733398 C99.5491859,100.251211 97.0555287,101.263711 94.6715172,100.926475 L72.4583366,97.8053906 C71.3154103,97.6442871 70.2594175,98.450332 70.1004312,99.6052148 C69.9414449,100.759834 70.7389871,101.826123 71.8824354,101.986963 L94.0956161,105.108047 C97.998482,105.655957 102.08644,104.082627 104.737778,100.319766 C104.926787,100.038164 105.172707,99.5029102 106.782671,96.4503809 C106.931476,96.1658789 107.006923,95.8626562 107.020498,95.5612793 C103.550211,97.2126562 101.041151,98.3733398 101.041151,98.3733398" id="Fill-20" fill="#E59768"></path>
                        <path d="M35.5317431,73.3260937 L22.9055152,73.3260937 L22.9055152,118.369951 C23.1997312,118.629141 23.497341,118.884375 23.7959951,119.138555 L35.5317431,119.138555 C36.8944829,119.138555 37.9992942,118.022695 37.9992942,116.646328 L37.9992942,75.8183203 C37.9995552,74.4419531 36.894744,73.3260937 35.5317431,73.3260937" id="Fill-22" fill="#E6F8F8"></path>
                        <path d="M35.5317431,104.421445 L23.7959951,104.421445 C23.497341,104.167266 23.1994701,103.912295 22.9055152,103.652842 L22.9055152,118.369688 C23.1997312,118.628877 23.497341,118.884111 23.7959951,119.138291 L35.5317431,119.138291 C36.894744,119.138291 37.9992942,118.022432 37.9992942,116.646064 L37.9992942,101.929219 C37.9995552,103.305586 36.894744,104.421445 35.5317431,104.421445" id="Fill-23" fill="#E6F8F8"></path>
                        <path d="M20.9968963,70.6582617 L0.0751856436,70.6582617 C0.954701037,89.9416406 9.84488127,107.110898 23.462881,118.853789 L23.462881,73.1486426 C23.462881,71.7733301 22.3588529,70.6582617 20.9968963,70.6582617" id="Fill-24" fill="#008181"></path>
                        <path d="M20.9968963,106.900752 L12.5716662,106.900752 C15.7182375,111.313037 19.3757058,115.329551 23.462881,118.853789 L23.462881,104.410107 C23.462881,105.785684 22.3588529,106.900752 20.9968963,106.900752" id="Fill-25" fill="#008181"></path>
                    </g>
                </g>
            </g>
        </g>
        <g id="success_tick" transform="translate(100.000000, 9.000000)">
            <path d="M17.5,35 C7.85485639,35 0,27.186721 0,17.5 C0,7.81327899 7.85485639,0 17.5,0 C27.1451436,0 35,7.81327899 35,17.5 C35,27.186721 27.1451436,35 17.5,35 Z" id="Oval-2-Copy" fill="#50E3C2" fill-rule="nonzero"></path>
            <g id="Group" stroke-width="1" fill-rule="evenodd">
                <g id="Group-2" fill-rule="nonzero">
                    <g id="Group-4">
                        <path d="M17.5,35 C7.8405713,35 0,27.1722858 0,17.5 C0,7.82771417 7.8405713,0 17.5,0 C27.1594287,0 35,7.82771417 35,17.5 C35,27.1722858 27.1594287,35 17.5,35 Z M17.71875,31.9375 C25.5671927,31.9375 31.9375,25.5776389 31.9375,17.71875 C31.9375,9.85986112 25.5671927,3.5 17.71875,3.5 C9.87030727,3.5 3.5,9.85986112 3.5,17.71875 C3.5,25.5776389 9.87030727,31.9375 17.71875,31.9375 Z" id="Oval-2-Copy" fill="#41D1B1"></path>
                        <polygon id="Shape" fill="#FFFFFF" points="14.1726676 20.1977761 25.1944562 9.24 28.28 12.3076236 14.1726676 26.3330233 6.72 18.9236393 9.80554382 15.8560158"></polygon>
                    </g>
                </g>
            </g>
        </g>
    </g>
</svg>