<?xml version="1.0" encoding="UTF-8"?>
<svg width="135px" height="135px" viewBox="0 0 135 135" version="1.1" xmlns="http://www.w3.org/2000/svg" xmlns:xlink="http://www.w3.org/1999/xlink">
    <!-- Generator: Sketch 57.1 (83088) - https://sketch.com -->
    <title>icon/portfolio_successful_p1</title>
    <desc>Created with Sketch.</desc>
    <defs>
        <ellipse id="path-1" cx="66.8316832" cy="67.5" rx="66.8316832" ry="67.5"></ellipse>
    </defs>
    <g id="icon/portfolio_successful_p1" stroke="none" stroke-width="1" fill="none" fill-rule="evenodd">
        <g id="icon/p1">
            <g id="Group">
                <mask id="mask-2" fill="white">
                    <use xlink:href="#path-1"></use>
                </mask>
                <use id="Mask" fill="#FFFFFF" xlink:href="#path-1"></use>
                <path d="M97.6897927,49.6219821 C100.983375,54.9407571 102.959455,61.5893143 102.959455,69.5673 C113.961535,69.5673 124.963265,69.5673 135.965345,69.5673 C135.965345,54.1862357 132.15576,41.3685643 125.806102,31.1146393 C116.433999,37.2837536 107.061896,43.4528679 97.6897927,49.6219821" id="Fill-31" fill="#CBF1F1" mask="url(#mask-2)"></path>
                <rect id="Rectangle-6" fill="#FFFFFF" mask="url(#mask-2)" x="-16.039604" y="68.85" width="165.742574" height="71.55"></rect>
                <rect id="Rectangle-6" fill="#005150" mask="url(#mask-2)" x="-16.039604" y="91.8" width="165.742574" height="71.55"></rect>
                <path d="M84.5158117,37.6550036 C89.7854741,40.3145679 94.3965601,44.3035607 97.6897927,49.6219821 C107.061896,43.4528679 116.433999,37.2837536 125.806102,31.1146393 C119.456445,20.8607143 110.567064,13.1701821 100.407822,8.04304286 C95.110485,17.9136964 89.8131484,27.78435 84.5158117,37.6550036" id="Fill-32" fill="#9DE9E9" mask="url(#mask-2)"></path>
                <path d="M66.7303564,34.2292587 C60.797142,34.3243359 54.8866425,35.702949 49.6121601,38.3647689 C44.1132355,28.1184918 38.6143109,17.8722146 33.1153863,7.62593748 C43.6615978,2.30405408 55.5256313,-0.357254638 67.3896648,-0.357254638 L67.3896648,-0.357254638 L68.1985849,-0.353130718 C79.7926554,-0.234911796 91.357782,2.42500598 101.664307,7.62593748 C96.1653823,17.8722146 90.6664577,28.1184918 85.1675331,38.3647689 C79.6976995,35.6043631 73.5438639,34.2239766 67.3896648,34.2239766 L67.3896648,34.2239766 Z" id="Combined-Shape" fill="#00BCBC" mask="url(#mask-2)"></path>
                <path d="M37.0899005,49.6219821 C40.383133,44.3035607 44.994219,40.3145679 50.2638815,37.6550036 C44.9665448,27.78435 39.6692081,17.9136964 34.3718714,8.04304286 C24.2126292,13.1701821 15.3232485,20.8607143 8.97359072,31.1146393 C18.345694,37.2837536 27.7177972,43.4528679 37.0899005,49.6219821" id="Fill-35" fill="#008181" mask="url(#mask-2)"></path>
                <path d="M31.820238,69.5673 C31.820238,61.5893143 33.7963177,54.9407571 37.0899005,49.6219821 C27.7177972,43.4528679 18.345694,37.2837536 8.97359072,31.1146393 C2.62393296,41.3685643 -1.18565151,54.1862357 -1.18565151,69.5673 C9.81642844,69.5673 20.8181581,69.5673 31.820238,69.5673" id="Fill-36" fill="#005150" mask="url(#mask-2)"></path>
                <path d="M87.8923726,69.0340413 C86.4960013,69.0340413 85.3645463,67.8953966 85.3645463,66.4909098 C85.3645463,55.7087104 76.6455677,46.936263 65.9282583,46.936263 C55.2106117,46.936263 46.4912962,55.7083713 46.4912962,66.4909098 C46.4912962,67.8953966 45.3595041,69.0340413 43.9634699,69.0340413 C42.5674357,69.0340413 41.4356436,67.8953966 41.4356436,66.4909098 C41.4356436,52.904145 52.4229249,41.85 65.9282583,41.85 C79.4332546,41.85 90.4201989,52.9038059 90.4201989,66.4909098 C90.4201989,67.8953966 89.2887438,69.0340413 87.8923726,69.0340413" id="Fill-13" fill="#98D5D4" mask="url(#mask-2)"></path>
                <path d="M67.1979815,56.7 C74.0436565,56.7 79.5935523,62.30162 79.5935523,69.2110958 C79.5935523,76.1210061 74.0436565,81.7226262 67.1979815,81.7226262 C62.2944924,81.7226262 58.055968,78.8489562 56.0453769,74.6791517 L15.9628624,57.2431623 L59.6063974,59.3200114 C61.7039034,57.6777026 64.3378227,56.7 67.1979815,56.7 Z" id="Combined-Shape" fill="#FF9600" mask="url(#mask-2)"></path>
                <path d="M67.2395277,63.45 C70.4174156,63.45 72.9934764,66.0500694 72.9934764,69.2575747 C72.9934764,72.4650801 70.4174156,75.065584 67.2395277,75.065584 C64.0616398,75.065584 61.4851485,72.4655146 61.4851485,69.2575747 C61.4851485,66.0500694 64.0616398,63.45 67.2395277,63.45" id="Fill-39" fill="#FFFFFF" mask="url(#mask-2)"></path>
                <path d="M48.1188119,115.25355 L48.1188119,102.75795 L51.3855446,102.75795 L51.3855446,112.58595 L56.6157921,112.58595 L56.6157921,115.25355 L48.1188119,115.25355 Z M64.4960272,115.4115 C63.2333477,115.4115 62.1328636,115.151178 61.1945421,114.630525 C60.2562206,114.109872 59.5351139,113.364005 59.0312005,112.3929 C58.5272871,111.421795 58.2753342,110.286906 58.2753342,108.9882 C58.2753342,107.689494 58.5301831,106.560455 59.0398886,105.60105 C59.5495941,104.641645 60.2707008,103.901628 61.2032302,103.380975 C62.1357596,102.860322 63.2333477,102.6 64.4960272,102.6 C65.7587068,102.6 66.8562949,102.860322 67.7888243,103.380975 C68.7213537,103.901628 69.4366683,104.641645 69.9347896,105.60105 C70.4329109,106.560455 70.6819678,107.689494 70.6819678,108.9882 C70.6819678,110.286906 70.4329109,111.421795 69.9347896,112.3929 C69.4366683,113.364005 68.7213537,114.109872 67.7888243,114.630525 C66.8562949,115.151178 65.7587068,115.4115 64.4960272,115.4115 Z M64.4960272,112.90185 C65.4227645,112.90185 66.1496632,112.568403 66.6767451,111.9015 C67.2038269,111.234597 67.4673639,110.263506 67.4673639,108.9882 C67.4673639,107.724594 67.2038269,106.762278 66.6767451,106.101225 C66.1496632,105.440172 65.4227645,105.10965 64.4960272,105.10965 C63.5692899,105.10965 62.8452873,105.437247 62.3239975,106.09245 C61.8027078,106.747653 61.5420668,107.712894 61.5420668,108.9882 C61.5420668,110.275206 61.8027078,111.249222 62.3239975,111.910275 C62.8452873,112.571328 63.5692899,112.90185 64.4960272,112.90185 Z M87.3037872,102.75795 L90.3967575,102.75795 L85.9658169,115.25355 L83.3767575,115.25355 L80.787698,107.8299 L78.1465099,115.25355 L75.5574505,115.25355 L71.1438862,102.75795 L74.4627476,102.75795 L76.9996782,110.6379 L79.7625,102.75795 L81.9866584,102.75795 L84.6452228,110.7783 L87.3037872,102.75795 Z" id="LOW" fill="#FFFFFF" mask="url(#mask-2)"></path>
            </g>
        </g>
        <g id="success_tick" transform="translate(100.000000, 9.000000)">
            <path d="M17.5,35 C7.85485639,35 0,27.186721 0,17.5 C0,7.81327899 7.85485639,0 17.5,0 C27.1451436,0 35,7.81327899 35,17.5 C35,27.186721 27.1451436,35 17.5,35 Z" id="Oval-2-Copy" fill="#50E3C2" fill-rule="nonzero"></path>
            <g id="Group" stroke-width="1" fill-rule="evenodd">
                <g id="Group-2" fill-rule="nonzero">
                    <g id="Group-4">
                        <path d="M17.5,35 C7.8405713,35 0,27.1722858 0,17.5 C0,7.82771417 7.8405713,0 17.5,0 C27.1594287,0 35,7.82771417 35,17.5 C35,27.1722858 27.1594287,35 17.5,35 Z M17.71875,31.9375 C25.5671927,31.9375 31.9375,25.5776389 31.9375,17.71875 C31.9375,9.85986112 25.5671927,3.5 17.71875,3.5 C9.87030727,3.5 3.5,9.85986112 3.5,17.71875 C3.5,25.5776389 9.87030727,31.9375 17.71875,31.9375 Z" id="Oval-2-Copy" fill="#41D1B1"></path>
                        <polygon id="Shape" fill="#FFFFFF" points="14.1726676 20.1977761 25.1944562 9.24 28.28 12.3076236 14.1726676 26.3330233 6.72 18.9236393 9.80554382 15.8560158"></polygon>
                    </g>
                </g>
            </g>
        </g>
    </g>
</svg>