<?xml version="1.0" encoding="UTF-8"?>
<svg width="135px" height="135px" viewBox="0 0 135 135" version="1.1" xmlns="http://www.w3.org/2000/svg" xmlns:xlink="http://www.w3.org/1999/xlink">
    <!-- Generator: Sketch 57.1 (83088) - https://sketch.com -->
    <title>icon/portfolio_successful_p3</title>
    <desc>Created with Sketch.</desc>
    <g id="icon/portfolio_successful_p3" stroke="none" stroke-width="1" fill="none" fill-rule="evenodd">
        <g id="icon/p3">
            <g id="target">
                <ellipse id="Oval" fill="#FF872F" fill-rule="nonzero" cx="66.6886216" cy="67.6078418" rx="66.6886216" ry="67.3555078"></ellipse>
                <ellipse id="Oval" fill="#E6F8F8" fill-rule="nonzero" cx="66.6886216" cy="67.6078418" rx="56.8513111" ry="57.4198242"></ellipse>
                <path d="M66.6886216,111.279551 C42.8456354,111.279551 23.4480005,91.6879395 23.4480005,67.6065234 C23.4480005,43.5251074 42.8456354,23.9337598 66.6886216,23.9337598 C90.5316078,23.9337598 109.928982,43.5253711 109.928982,67.6067871 C109.928982,91.6882031 90.5313467,111.279551 66.6886216,111.279551 Z" id="Shape" fill="#FF9600" fill-rule="nonzero"></path>
                <path d="M66.6886216,97.5335449 C50.3501025,97.5335449 37.0579073,84.1084277 37.0579073,67.6065234 C37.0579073,51.1046191 50.3501025,37.679502 66.6886216,37.679502 C83.0268796,37.679502 96.3190749,51.1046191 96.3190749,67.6065234 C96.3190749,84.1084277 83.0268796,97.5335449 66.6886216,97.5335449 Z" id="Shape" fill="#E6F8F8" fill-rule="nonzero"></path>
                <path d="M66.6886216,83.7875391 C57.8548306,83.7875391 50.667814,76.528916 50.667814,67.6065234 C50.667814,58.6841309 57.8545695,51.4255078 66.6886216,51.4255078 C75.5226737,51.4255078 82.7091681,58.6841309 82.7091681,67.6065234 C82.7091681,76.528916 75.5224126,83.7875391 66.6886216,83.7875391 Z" id="Shape" fill="#FF9600" fill-rule="nonzero"></path>
                <path d="M120.374749,65.5603491 L72.1469656,112.776502 C70.6976147,114.212518 68.3430829,114.20815 66.8883444,112.766746 C65.4336058,111.325342 65.4292378,108.992433 66.8785888,107.556417 L114.624308,60.061757 L120.374749,65.5603491 Z" id="Shape-Copy" fill-opacity="0.169525589" fill="#000000" fill-rule="nonzero" transform="translate(93.084588, 86.956210) rotate(79.000000) translate(-93.084588, -86.956210) "></path>
                <path d="M121.480877,17.4107812 L69.1088553,70.3062598 C67.6706688,71.7588281 65.3386085,71.7588281 63.900422,70.3062598 L63.900422,70.3062598 C62.4622356,68.8536914 62.4622356,66.4983105 63.900422,65.0457422 L116.272183,12.15 L121.480877,17.4107812 Z" id="Shape" fill="#00BCBC" fill-rule="nonzero"></path>
                <polygon id="Shape" fill="#31E5DB" fill-rule="nonzero" points="91.4907468 20.4008203 111.652769 0.0369140625 116.357354 12.2552051 96.1950708 32.6191113"></polygon>
                <g id="Group" transform="translate(95.809483, 5.273438)" fill-rule="nonzero">
                    <polygon id="Shape" fill="#008181" points="0.217725093 10.5455566 3.24211982 7.49091797 7.94644377 19.709209 4.9223101 22.7638477"></polygon>
                    <polygon id="Shape" fill="#008181" points="7.61045792 3.07863281 10.6348526 0.0239941406 15.3391766 12.2425488 12.3147819 15.2969238"></polygon>
                    <polygon id="Shape" fill="#31E5DB" points="25.7565652 12.2425488 5.59428179 32.6064551 17.6915996 37.3578223 37.853883 16.993916"></polygon>
                </g>
                <g id="Group" transform="translate(105.729811, 22.675781)" fill="#008181" fill-rule="nonzero">
                    <polygon id="Shape" points="10.6275429 0.100722656 7.60340927 3.15536133 19.7007271 7.90699219 22.7251218 4.85235352"></polygon>
                    <polygon id="Shape" points="3.2348101 7.56764648 0.210415377 10.6222852 12.3077332 15.3736523 15.3321279 12.3190137"></polygon>
                </g>
            </g>
        </g>
        <g id="success_tick" transform="translate(100.000000, 9.000000)">
            <path d="M17.5,35 C7.85485639,35 0,27.186721 0,17.5 C0,7.81327899 7.85485639,0 17.5,0 C27.1451436,0 35,7.81327899 35,17.5 C35,27.186721 27.1451436,35 17.5,35 Z" id="Oval-2-Copy" fill="#50E3C2" fill-rule="nonzero"></path>
            <g id="Group" stroke-width="1" fill-rule="evenodd">
                <g id="Group-2" fill-rule="nonzero">
                    <g id="Group-4">
                        <path d="M17.5,35 C7.8405713,35 0,27.1722858 0,17.5 C0,7.82771417 7.8405713,0 17.5,0 C27.1594287,0 35,7.82771417 35,17.5 C35,27.1722858 27.1594287,35 17.5,35 Z M17.71875,31.9375 C25.5671927,31.9375 31.9375,25.5776389 31.9375,17.71875 C31.9375,9.85986112 25.5671927,3.5 17.71875,3.5 C9.87030727,3.5 3.5,9.85986112 3.5,17.71875 C3.5,25.5776389 9.87030727,31.9375 17.71875,31.9375 Z" id="Oval-2-Copy" fill="#41D1B1"></path>
                        <polygon id="Shape" fill="#FFFFFF" points="14.1726676 20.1977761 25.1944562 9.24 28.28 12.3076236 14.1726676 26.3330233 6.72 18.9236393 9.80554382 15.8560158"></polygon>
                    </g>
                </g>
            </g>
        </g>
    </g>
</svg>