<?xml version="1.0" encoding="UTF-8"?>
<svg width="441px" height="300px" viewBox="0 0 441 300" version="1.1" xmlns="http://www.w3.org/2000/svg" xmlns:xlink="http://www.w3.org/1999/xlink">
    <!-- Generator: Sketch 51.2 (57519) - http://www.bohemiancoding.com/sketch -->
    <title>proneeds@1.5x</title>
    <desc>Created with Sketch.</desc>
    <defs>
        <polygon id="path-1" points="0.168441397 0.319114713 55.5459464 0.319114713 55.5459464 66.998005 0.168441397 66.998005"></polygon>
        <polygon id="path-3" points="0.267942643 0.31915212 42.6850249 0.31915212 42.6850249 66.998005 0.267942643 66.998005"></polygon>
        <polygon id="path-5" points="0.161058045 0.206857855 61.7955364 0.206857855 61.7955364 78.2199501 0.161058045 78.2199501"></polygon>
        <polygon id="path-7" points="0.0437281796 0.206932668 52.5620574 0.206932668 52.5620574 78.2199501 0.0437281796 78.2199501"></polygon>
        <path d="M15.4174564,0.605236908 L0.849501247,11.1998753 C-0.209850374,11.8619701 0.452244389,13.5837905 1.64401496,13.5837905 L4.29314214,13.5837905 L4.29314214,28.1517456 C4.29314214,28.9462594 4.82244389,29.4755611 5.61733167,29.4755611 L26.8066085,29.4755611 C27.6011222,29.4755611 28.130798,28.9462594 28.130798,28.1517456 L28.130798,13.5837905 L30.7795511,13.5837905 C31.9716958,13.5837905 32.6334165,11.8619701 31.5744389,11.1998753 L17.0064838,0.605236908 C16.7416459,0.406608479 16.476808,0.307481297 16.2119701,0.307481297 C15.9471322,0.307481297 15.6822943,0.406608479 15.4174564,0.605236908 Z M8.26571072,18.8809227 C8.26571072,14.5110973 11.8413965,10.9350374 16.2119701,10.9350374 C20.5821696,10.9350374 24.1582294,14.5110973 24.1582294,18.8809227 C24.1582294,23.2511222 20.5821696,26.826808 16.2119701,26.826808 C11.8413965,26.826808 8.26571072,23.2511222 8.26571072,18.8809227 Z" id="path-9"></path>
        <path d="M15.4174564,0.605236908 L0.849501247,11.1998753 C-0.209850374,11.8619701 0.452244389,13.5837905 1.64401496,13.5837905 L4.29314214,13.5837905 L4.29314214,28.1517456 C4.29314214,28.9462594 4.82244389,29.4755611 5.61733167,29.4755611 L26.8066085,29.4755611 C27.6011222,29.4755611 28.130798,28.9462594 28.130798,28.1517456 L28.130798,13.5837905 L30.7795511,13.5837905 C31.9716958,13.5837905 32.6334165,11.8619701 31.5744389,11.1998753 L17.0064838,0.605236908 C16.7416459,0.406608479 16.476808,0.307481297 16.2119701,0.307481297 C15.9471322,0.307481297 15.6822943,0.406608479 15.4174564,0.605236908 Z M8.26571072,18.8809227 C8.26571072,14.5110973 11.8413965,10.9350374 16.2119701,10.9350374 C20.5821696,10.9350374 24.1582294,14.5110973 24.1582294,18.8809227 C24.1582294,23.2511222 20.5821696,26.826808 16.2119701,26.826808 C11.8413965,26.826808 8.26571072,23.2511222 8.26571072,18.8809227 Z" id="path-11"></path>
        <polygon id="path-13" points="3.69837905 0.0441396509 3.69837905 3.37518703 0.367331671 3.37518703 0.367331671 6.70660848 3.69837905 6.70660848 3.69837905 10.0372818 7.02942643 10.0372818 7.02942643 6.70660848 10.3608479 6.70660848 10.3608479 3.37518703 7.02942643 3.37518703 7.02942643 0.0441396509"></polygon>
        <path d="M0.1840399,2.4755611 C0.0325436409,3.85922693 1.03092269,5.10448878 2.41458853,5.2563591 C3.7978803,5.4074813 5.04239401,4.40798005 5.19351621,3.02431421 C5.34501247,1.64027431 4.34625935,0.395386534 2.96296758,0.243516209 C2.8701995,0.233416459 2.77780549,0.228553616 2.6861596,0.228553616 C1.41733167,0.228553616 0.325436409,1.18466334 0.1840399,2.4755611 Z" id="path-15"></path>
        <path d="M2.46882793,0.11521197 C1.24563591,0.134289277 0.199002494,1.06234414 0.0624688279,2.3105985 C0.053117207,2.39700748 0.0478802993,2.48341646 0.0478802993,2.56832918 L0.0478802993,2.5967581 C0.0549875312,3.830798 0.986783042,4.89052369 2.2425187,5.02817955 C2.32967581,5.03753117 2.41608479,5.04239401 2.5021197,5.04276808 L2.52680798,5.04276808 C3.76084788,5.03603491 4.82057357,4.10386534 4.95785536,2.84700748 C4.96720698,2.75985037 4.97244389,2.67418953 4.97281796,2.58852868 L4.97281796,2.56159601 C4.96571072,1.32755611 4.03391521,0.267830424 2.77817955,0.129800499 C2.70074813,0.121197007 2.62331671,0.116708229 2.54625935,0.11521197 L2.46882793,0.11521197 Z" id="path-17"></path>
        <path d="M1.38927681,2.83054863 L0.365461347,12.1110973 L1.85685786,12.2726933 L2.57543641,22.3283042 L5.73703242,22.3283042 L5.73703242,12.6942643 L6.65162095,12.7937656 L7.45062344,5.55037406 L11.2952618,9.53229426 C11.8129676,10.0687032 12.6706983,10.0862843 13.211596,9.57306733 C13.7513716,9.05910224 13.7700748,8.20773067 13.251995,7.6713217 L6.90112219,1.09376559 L6.89850374,1.0967581 C6.3957606,0.531546135 5.69064838,0.141396509 4.87630923,0.053117207 C4.759601,0.0403990025 4.6436409,0.0344139651 4.52842893,0.0344139651 C2.93678304,0.0344139651 1.56695761,1.22431421 1.38927681,2.83054863 Z" id="path-19"></path>
        <path d="M0.337780549,3.02917706 L0.337780549,11.5182045 L1.64326683,11.5182045 L2.14600998,23.0566085 L5.1201995,23.0566085 L5.1201995,11.5182045 L6.09501247,11.5182045 L6.09501247,4.47830424 L9.70511222,6.53491272 C10.3413965,6.92394015 11.1721945,6.7234414 11.561596,6.08715711 C11.9506234,5.45049875 11.7504988,4.61895262 11.1145885,4.22992519 L4.86396509,0.66957606 C4.3967581,0.342643392 3.82967581,0.14925187 3.21658354,0.14925187 C1.62643392,0.14925187 0.337780549,1.43865337 0.337780549,3.02917706 Z" id="path-21"></path>
        <path d="M2.81109726,0.200498753 C1.70461347,0.200498753 0.800498753,1.06608479 0.751496259,2.17144638 L0.291770574,12.5629676 L1.19102244,12.6026185 L1.54600998,4.58865337 L5.90012469,4.58865337 L6.25473815,12.6026185 L7.15399002,12.5629676 L6.69426434,2.17144638 C6.64488778,1.06608479 5.74077307,0.200498753 4.63466334,0.200498753 L2.81109726,0.200498753 Z M1.65074813,2.21109726 C1.67842893,1.58865337 2.18753117,1.10049875 2.81109726,1.10049875 L4.63466334,1.10049875 C5.25822943,1.10049875 5.76733167,1.58865337 5.79501247,2.21109726 L5.86047382,3.6882793 L1.58603491,3.6882793 L1.65074813,2.21109726 Z" id="path-23"></path>
    </defs>
    <g id="Web" stroke="none" stroke-width="1" fill="none" fill-rule="evenodd">
        <g id="Protection-Needs" transform="translate(-75.000000, -273.000000)">
            <g id="proneeds" transform="translate(75.000000, 273.000000)">
                <g id="Group-48">
                    <path d="M100.631708,64.047793 C100.631708,64.047793 101.304277,69.4279676 96.5966708,70.1005362 C91.8894389,70.7731047 87.7855736,79.7817082 95.6753491,83.5549002 L105.33894,71.6693641 L104.89081,62.0304613 L100.631708,64.047793 Z" id="Fill-1" fill="#FFEDDC"></path>
                    <polygon id="Fill-3" fill="#007C79" points="186.148429 243.399464 186.148429 180.189613 80.5693766 180.189613 80.5693766 299.666297 178.751297 299.666297 186.148429 299.666297 261.017506 299.666297 261.017506 243.399464"></polygon>
                    <path d="M112.960474,71.2211596 L107.13217,62.92702 L102.649377,64.2721571 L103.770075,73.0144264 C103.770075,73.0144264 108.813591,76.4887406 112.848254,71.1089401" id="Fill-5" fill="#F79C82"></path>
                    <path d="M103.769963,73.014389 L86.6501372,93.9534165 C86.4462718,94.1767332 86.1268204,94.2537905 85.8436534,94.1483042 L75.3017581,90.0504239 L78.6642269,99.4652618 C78.6642269,99.4652618 91.2170948,101.482219 91.8896633,101.258529 C92.5622319,101.03409 100.820835,100.020374 100.820835,100.020374 L103.769963,73.014389 Z" id="Fill-7" fill="#006769"></path>
                    <polygon id="Fill-9" fill="#00C9C3" points="48.7389651 139.477406 48.7389651 197.204214 3.68285536 197.204214 3.68285536 299.751471 48.7389651 299.751471 89.3115337 299.751471 134.367643 299.751471 134.367643 139.477406"></polygon>
                    <path d="M113.857107,53.064015 C113.857107,59.7493017 109.341022,65.1687531 103.770075,65.1687531 C98.1991272,65.1687531 93.6826683,59.7493017 93.6826683,53.064015 C93.6826683,46.3791022 98.1991272,40.9596509 103.770075,40.9596509 C109.341022,40.9596509 113.857107,46.3791022 113.857107,53.064015" id="Fill-11" fill="#FAB08A"></path>
                    <path d="M131.350848,108.596596 C118.027406,112.998217 130.220798,81.0841272 130.220798,81.0841272 L112.960324,71.2211596 C112.960324,71.2211596 103.54586,70.3245262 107.804963,59.3404863 C107.804963,59.3404863 109.822294,56.4265212 108.925661,53.0640524 C108.925661,53.0640524 100.373416,53.9749002 96.6918703,44.4411097 C96.6918703,44.4411097 92.9983541,49.1199127 93.9009726,55.5755237 C93.9009726,55.5755237 87.3387531,45.0571945 97.157207,38.1575686 C105.451347,32.3292643 113.856958,36.4765212 119.461197,45.2184165 C125.065062,53.9606858 126.4102,54.6332544 129.772294,55.5298878 C132.052968,56.1381172 135.055212,58.8085661 137.100973,61.5134289 C138.751721,63.6957232 143.318304,65.1938529 145.911696,66.0654239 C152.94,68.4268953 169.770673,95.904202 131.350848,108.596596" id="Fill-13" fill="#FFEDDC"></path>
                    <path d="M136.721259,80.0752369 C136.721259,74.7283541 132.416895,70.3888279 127.084601,70.3271072 L127.082357,70.3244888 L127.050561,70.3263591 C127.023628,70.3263591 126.99707,70.3244888 126.970511,70.3244888 C126.525,70.3244888 126.087344,70.3574065 125.657544,70.4150125 L112.960661,71.2211222 L103.769888,73.014389 L98.1738778,79.9805985 C94.851808,84.1162594 94.0509352,89.7347132 96.0843516,94.6338404 L97.7175187,98.5682544 L98.6141521,108.207157 C98.6141521,108.207157 127.418641,132.304414 127.418641,131.856284 C127.418641,131.407781 136.516272,82.071995 136.516272,82.071995 L136.515898,82.0716209 C136.650187,81.4271072 136.721259,80.7597756 136.721259,80.0752369" id="Fill-15" fill="#59C09C"></path>
                    <path d="M53.3967082,72.3491895 L59.7337406,95.9395885 C59.8669077,96.5328554 60.2843641,97.0221322 60.8488279,97.2480673 L74.5171571,102.715399 L79.224389,93.9735037 L73.5165337,72.1973192 C73.3115461,71.4166459 72.6232668,70.8592893 71.816783,70.8218828 L55.2831172,70.1006858 C54.0662843,70.044202 53.1292519,71.1607855 53.3967082,72.3491895" id="Fill-17" fill="#004060"></path>
                    <path d="M78.7762968,92.1801247 L79.2442519,92.3581796 C79.7380175,92.6046883 80.1266708,93.0199002 80.34101,93.5282544 L80.8755486,94.7978304 C81.477793,96.2282544 82.5195636,97.4297506 83.8504863,98.2283791 L85.1649501,99.0165337 L84.2683167,103.275636 L75.2533541,100.532244 C74.4659476,100.292469 73.8947506,99.6090524 73.7982419,98.7917207 L73.7155736,98.0881047 C73.5790399,96.9281297 73.6998628,95.752818 74.0694389,94.6448379 C74.3858978,93.6950873 75.3775436,93.1463342 76.3501122,93.3831172 L78.6289152,93.8510723 C78.9049751,93.9075561 79.1454988,93.6565586 79.0770449,93.3834913 L78.7762968,92.1801247 Z" id="Fill-19" fill="#F79C82"></path>
                    <path d="M55.2045636,83.8334289 L56.6495761,89.3351746 C56.7584289,89.7500125 57.1871072,89.9961471 57.5985786,89.8753242 C58.8150374,89.5192145 61.0553117,88.4852993 61.0197756,85.7018828 C60.9831172,82.8152244 57.5499501,82.7426559 55.8775062,82.8784414 C55.4050623,82.9169701 55.0841147,83.3748254 55.2045636,83.8334289" id="Fill-21" fill="#F79C82"></path>
                    <path d="M68.4011222,123.676796 C65.3457606,127.048242 60.9325436,129.166197 56.0240648,129.166197 C53.278803,129.166197 50.6910224,128.499613 48.4062344,127.325798 L23.0726933,165.592257 L17.4688279,162.677918 L40.5703242,106.134277 C40.6009975,106.059464 40.6298005,105.984651 40.661596,105.91096 L41.0053616,105.069314 L41.0625935,105.047993 C43.7947631,99.5481172 49.4663342,95.7666958 56.0240648,95.7666958 C58.3316708,95.7666958 60.9557357,95.8789152 63.421197,96.7751746 L113.184539,112.461209 C113.184539,112.461209 119.255237,114.951733 122.720574,117.967818 L122.719451,117.969314 C125.934913,120.683529 127.979177,124.741384 127.979177,129.278416 C127.979177,137.448741 121.355237,144.072681 113.184539,144.072681 C110.337531,144.072681 105.356858,142.854726 102.842394,141.41495 C102.484788,141.210337 102.127182,141.005723 101.760973,140.817195 L68.4011222,123.676796 Z" id="Fill-23" fill="#004966"></path>
                    <path d="M103.341471,141.681958 L59.6106733,136.227344 L51.9891022,182.403778 C51.9891022,182.403778 45.7126683,181.955648 45.7126683,181.507519 C45.7126683,181.059015 43.0227681,125.915873 43.0227681,125.915873 C43.0227681,125.915873 42.7987032,111.569738 62.5246384,119.190935 L103.341471,141.681958 Z" id="Fill-25" fill="#003A4C"></path>
                    <polygon id="Fill-27" fill="#00C9C3" points="77.8795511 162.117456 128.763591 162.117456 128.763591 139.477556 77.8795511 139.477556"></polygon>
                    <path d="M10.7765087,177.240411 C11.2725187,177.146147 11.7464589,176.961733 12.1811222,176.704751 L20.6933416,171.674701 C20.7371072,171.224701 20.8485786,170.781434 21.0288778,170.360611 L23.0727681,165.592032 L17.8111721,162.856122 C17.8111721,162.856122 14.9222693,171.049638 7.8438404,172.93904 C7.11965087,173.132805 6.36441397,173.183678 5.61778055,173.115973 C5.30805486,173.08717 4.93473815,173.060237 4.53187032,173.044152 C5.25306733,177.724451 9.04458853,177.56884 10.7765087,177.240411" id="Fill-29" fill="#F79C82"></path>
                    <path d="M2.67418953,177.696658 C2.67418953,177.696658 5.14002494,179.938055 8.50249377,179.938055 C11.8645885,179.938055 14.7789277,177.248529 17.0203242,177.02409 C18.9991272,176.826209 21.3265586,175.755636 20.7669576,173.040673 C20.6738155,172.588803 20.6491272,172.128329 20.6932668,171.674589 L12.1810474,176.705012 C11.746384,176.961621 11.2724439,177.146035 10.7764339,177.240299 C9.04451372,177.568728 5.25299252,177.724339 4.53179551,173.04404 C1.8,172.937057 -2.30012469,173.363865 2.67418953,177.696658" id="Fill-30" fill="#99DCDC"></path>
                    <path d="M44.8162219,198.543479 C49.299389,197.422781 48.6268204,193.836247 50.6441521,192.04298 C52.1957731,190.663803 52.9491397,189.151085 53.0116085,187.404576 C52.870212,187.267294 52.7183416,187.131883 52.5496384,186.999464 C52.5496384,186.999464 51.653005,184.757693 51.8770698,182.291858 L46.0887905,181.705698 C46.0887905,181.705698 47.1698379,190.137494 44.4799377,193.051459 C44.4799377,193.051459 43.1804364,195.323903 40.9977681,197.106322 C41.3729551,198.143978 42.3440274,199.161434 44.8162219,198.543479" id="Fill-31" fill="#F79C82"></path>
                    <path d="M41.117581,202.01783 C43.1349127,202.01783 48.0665835,201.345262 50.0839152,197.758728 C52.1012469,194.172195 53.8945137,192.827431 53.8945137,192.827431 C53.8945137,192.827431 55.4973815,189.817332 53.0113466,187.404613 C52.9488778,189.151122 52.1958853,190.663466 50.6442643,192.043017 C48.6269327,193.836284 49.2995012,197.422818 44.8163342,198.543516 C42.3441397,199.161471 41.3730673,198.144015 40.9975062,197.106359 C40.615586,197.418329 40.2067332,197.715711 39.7724439,197.983167 C36.8584788,199.776434 39.0998753,202.01783 41.117581,202.01783" id="Fill-32" fill="#99DCDC"></path>
                    <path d="M125.625524,74.4712219 L116.326646,95.8531421 C115.373903,98.0406733 113.200212,99.4415461 110.8148,99.4052618 L85.1648005,99.0166085 L84.2681671,103.275711 L113.956197,112.706259 C118.734875,114.22384 123.886122,111.872095 125.869414,107.267357 L136.496222,81.1535162 L125.625524,74.4712219 Z" id="Fill-33" fill="#59C09C"></path>
                    <path d="M80.924813,27.9834165 C80.924813,43.3290524 68.4849127,55.7693267 53.1392768,55.7693267 C37.7932668,55.7693267 25.3533666,43.3290524 25.3533666,27.9834165 C25.3533666,12.6381546 37.7932668,0.197880299 53.1392768,0.197880299 C68.4849127,0.197880299 80.924813,12.6381546 80.924813,27.9834165" id="Fill-34" fill="#59C09C"></path>
                    <polygon id="Fill-35" fill="#59C09C" points="71.6628554 27.9834165 66.1745761 43.7633416 88.8148504 41.0188279"></polygon>
                    <polygon id="Fill-36" fill="#FAB08A" points="217.804377 149.934763 220.440037 159.063441 215.528566 159.882269"></polygon>
                    <path d="M208.979701,141.87303 C203.780574,141.87303 199.565611,147.416297 199.565611,154.254576 C199.565611,155.71717 199.760125,157.119539 200.11399,158.421658 L196.905262,159.063554 L192.812244,163.770411 L201.202893,169.091484 C201.202893,169.091484 205.091297,165.612307 205.22783,165.612307 L205.227082,165.610062 C206.376958,166.268416 207.645411,166.635748 208.979701,166.635748 C214.178828,166.635748 218.393416,161.092481 218.393416,154.254576 C218.393416,147.416297 214.178828,141.87303 208.979701,141.87303" id="Fill-37" fill="#FAB08A"></path>
                    <path d="M192.812357,163.770411 C192.812357,163.770411 217.984302,171.547219 231.695648,214.728516 L201.407618,237.035125 L188.514726,191.398092 C188.514726,191.398092 181.351758,173.389115 192.812357,163.770411" id="Fill-38" fill="#71D8B8"></path>
                    <path d="M231.695761,247.952918 L270.513217,241.928978 C271.801122,241.728853 272.939027,242.782219 272.839152,244.081721 L269.965212,281.444065 L278.35586,281.034464 L282.448878,231.100175 L262.802618,231.714389 L231.695761,247.952918 Z" id="Fill-39" fill="#1C2C57"></path>
                    <path d="M251.444476,212.374751 L255.946721,212.784352 C255.946721,212.784352 258.680387,210.913653 261.855823,212.240087 C262.888616,212.67101 263.171035,214.005673 262.418416,214.833479 L261.574526,215.137594 L251.444476,217.047569 L251.444476,212.374751 Z" id="Fill-40" fill="#FAB08A"></path>
                    <path d="M275.122893,285.957756 L275.081372,285.946534 L275.695586,280.625461 L269.760673,281.444289 L269.232868,288.568728 C271.360923,288.319227 273.83985,288.006509 273.95581,287.890549 C274.063167,287.783566 274.617905,286.836808 275.122893,285.957756" id="Fill-41" fill="#FAB08A"></path>
                    <path d="M276.424788,292.972556 L277.332643,286.560337 L275.123042,285.957718 C274.617681,286.836771 274.062943,287.783529 273.95596,287.890511 C273.84,288.006471 271.361072,288.319564 269.232643,288.569065 L268.941995,292.495249 L276.424788,292.972556 Z" id="Fill-42" fill="#004966"></path>
                    <path d="M224.233803,220.223903 L287.360237,215.956197 C287.360237,215.956197 300.04889,215.54697 297.797394,230.895599 L283.881434,284.513678 L276.92308,284.513678 L278.367718,238.969788 C278.41298,237.539364 277.075698,236.464302 275.688666,236.815175 L229.956247,248.393229 C229.956247,248.393229 206.216596,252.895474 201.509738,236.933005 L224.233803,220.223903 Z" id="Fill-43" fill="#004472"></path>
                    <path d="M283.805274,177.596222 C283.172357,177.308566 282.426845,177.593978 282.149663,178.231384 C279.875723,183.463803 270.539813,204.950087 267.354277,212.383878 C266.691808,213.929888 265.211259,214.963429 263.531708,215.053953 L246.839813,215.956197 L246.505773,218.718292 L269.830586,217.141608 C269.650287,215.55894 269.879214,213.957195 270.494551,212.488242 L284.437818,179.209938 C284.697793,178.589364 284.417618,177.874526 283.805274,177.596222" id="Fill-44" fill="#99DCDC"></path>
                    <polygon id="Fill-45" fill="#FAB08A" points="281.937157 289.323254 283.199252 284.513903 276.923192 284.513903 276.424938 291.369763 280.095262 291.369763"></polygon>
                    <path d="M291.248753,296.383354 C291.248753,296.383354 293.602369,294.644327 285.211721,293.007045 L285.825561,290.960162 L281.937157,289.323254 L280.095262,291.369763 L276.424938,291.369763 L276.104738,295.769514 C276.104738,295.769514 284.08616,299.043703 291.248753,296.383354" id="Fill-46" fill="#004966"></path>
                    <path d="M189.230985,176.970449 L203.351933,176.151995 L214.373005,201.700998 C215.916771,205.280424 219.212656,207.797506 223.071883,208.345511 L251.444327,212.374564 L251.444327,218.514464 L220.553678,220.455112 C212.757419,220.945137 205.22899,217.485037 200.550187,211.229177 C195.679115,204.715212 190.803554,194.083167 189.230985,176.970449" id="Fill-47" fill="#71D8B8"></path>
                </g>
                <g id="Group-61" transform="translate(80.798005, 221.446384)">
                    <g id="Group-51" transform="translate(30.299252, 11.221945)">
                        <mask id="mask-2" fill="white">
                            <use xlink:href="#path-1"></use>
                        </mask>
                        <g id="Clip-50"></g>
                        <path d="M0.168441397,60.9318329 C0.168441397,60.9318329 7.05011222,12.3269701 39.437394,0.319114713 C71.0589651,27.2585162 46.3729302,67.0904364 46.3729302,67.0904364 L11.479788,92.0966708 L0.168441397,60.9318329 Z" id="Fill-49" fill="#59C09C" mask="url(#mask-2)"></path>
                    </g>
                    <g id="Group-54" transform="translate(41.147132, 11.221945)">
                        <mask id="mask-4" fill="white">
                            <use xlink:href="#path-3"></use>
                        </mask>
                        <g id="Clip-53"></g>
                        <path d="M0.837643392,26.7344888 L14.7820324,43.4503242 L27.829414,0.618029925 C28.0822818,0.518154613 28.3332793,0.414538653 28.5895137,0.31915212 C28.7140773,0.425386534 28.8296633,0.533117207 28.9531047,0.639351621 L21.9644514,23.58 L40.3789152,15.2196509 C40.4627057,15.3924688 40.5405112,15.5656608 40.6216833,15.7384788 L40.8319077,16.2004489 L21.5454988,24.9565586 L9.89936409,63.1871072 L42.6850249,49.5445885 C42.5686908,49.9889776 42.4504863,50.4307481 42.3281671,50.8631671 L9.49125935,64.5273815 L1.22105985,91.6736409 L0.631907731,92.0967082 L0.267942643,91.0938404 L14.4049751,44.6858603 L0.287394015,27.762419 C0.468441397,27.4194015 0.651733167,27.0767581 0.837643392,26.7344888" id="Fill-52" fill="#006769" mask="url(#mask-4)"></path>
                    </g>
                    <g id="Group-57">
                        <mask id="mask-6" fill="white">
                            <use xlink:href="#path-5"></use>
                        </mask>
                        <g id="Clip-56"></g>
                        <path d="M14.1299252,81.8498753 C14.1299252,81.8498753 -14.6891521,33.1589776 10.4610973,0.206857855 C78.9400249,20.1572319 59.1362843,87.4522444 59.1362843,87.4522444 L14.1299252,81.8498753 Z" id="Fill-55" fill="#004966" mask="url(#mask-6)"></path>
                    </g>
                    <g id="Group-60" transform="translate(0.374065, 0.000000)">
                        <mask id="mask-8" fill="white">
                            <use xlink:href="#path-7"></use>
                        </mask>
                        <g id="Clip-59"></g>
                        <path d="M10.086995,0.206932668 C10.3249002,0.276882793 10.5575686,0.348329177 10.7950998,0.419027431 L29.3427307,64.4536908 L51.8498379,29.4947132 C52.09298,29.8897257 52.329389,30.2847382 52.5620574,30.6823691 L29.8009601,66.0352369 L35.1527057,84.5132918 L33.8116833,84.3468329 L23.1422319,47.5111721 L23.1422319,47.5119202 L0.168665835,40.2288778 C0.123029925,39.7826185 0.0811346633,39.335611 0.0437281796,38.8863591 L22.727394,46.0766334 L9.62427681,0.838354115 C9.77913965,0.628503741 9.92689526,0.416408978 10.086995,0.206932668" id="Fill-58" fill="#59C09C" mask="url(#mask-8)"></path>
                    </g>
                </g>
                <g id="Group-92" transform="translate(192.269327, 30.299252)">
                    <path d="M155.857032,23.2703491 C155.857032,36.0588778 145.489825,46.4253367 132.702045,46.4253367 C119.913516,46.4253367 109.546683,36.0588778 109.546683,23.2703491 C109.546683,10.4818204 119.913516,0.115361596 132.702045,0.115361596 C145.489825,0.115361596 155.857032,10.4818204 155.857032,23.2703491" id="Fill-62" fill="#004966"></path>
                    <polygon id="Fill-64" fill="#004966" points="135.853728 36.1387032 164.139389 22.9858354 134.973928 6.6923192"></polygon>
                    <path d="M13.027818,135.152618 C13.027818,135.152618 8.16497506,132.1601 8.5390399,126.175062 L4.05026185,129.541646 L0.309613466,133.656359 C0.309613466,133.656359 8.07370324,136.68591 9.42856608,138.350873 L13.027818,135.152618 Z" id="Fill-66" fill="#F79C82"></path>
                    <path d="M4.22670823,129.378367 C4.22670823,129.378367 0.952518703,125.89919 1.1567581,119.146197 C1.36174564,112.392456 3.63007481,105.917394 12.0035162,106.457544 C18.3476559,106.866771 17.9380549,109.936347 21.008005,109.936347 C23.9021446,109.936347 28.9894264,107.275998 28.9894264,112.59707 C28.9894264,115.527494 26.3287032,123.648441 14.0500249,121.396945 C14.0500249,121.396945 9.44528678,119.862157 10.0591272,123.545574 C10.6729676,127.229738 10.0591272,128.866646 4.22670823,129.378367" id="Fill-68" fill="#004966"></path>
                    <polygon id="Fill-70" fill="#005960" points="162.2798 269.441895 248.688778 269.441895 248.688778 111.586534 162.2798 111.586534"></polygon>
                    <path d="M139.20606,182.534663 L138.29596,187.970574 C139.986359,189.1399 142.203067,189.214713 143.966035,188.161347 L144.28212,187.970574 L145.626509,182.534663 L139.20606,182.534663 Z" id="Fill-72" fill="#FAB08A"></path>
                    <path d="M182.766696,56.7995761 C177.937893,72.7343641 161.733778,97.1959601 161.733778,97.1959601 L174.533903,91.9586783 L183.578416,71.0596758 C183.578416,71.0596758 187.593254,40.8651621 182.766696,56.7995761" id="Fill-73" fill="#005960"></path>
                    <path d="M147.987082,120.785461 L137.893317,183.020125 L146.866758,183.020125 C146.866758,183.020125 167.016883,127.025237 169.133342,110.56414 C169.133342,101.238703 148.761022,110.56414 148.761022,110.56414 L147.987082,120.785461 Z" id="Fill-74" fill="#1C2C57"></path>
                    <polygon id="Fill-75" fill="#F79C82" points="181.408541 31.6499252 184.757544 40.3170075 192.003554 35.0714963 187.111908 24.8520449"></polygon>
                    <path d="M178.67682,33.0884663 C177.554626,33.2908354 176.483678,33.3420823 175.850761,33.011783 C171.64515,29.0006858 172.670835,15.5994389 172.670835,15.5994389 L177.367968,12.3510599 L184.767344,15.0630299 L186.913728,23.4506858 C187.485299,25.6913342 186.852382,28.0868454 185.211359,29.9025561 C183.383678,31.5005611 181.123579,32.6463217 178.67682,33.0884663" id="Fill-76" fill="#FAB08A"></path>
                    <path d="M183.462232,17.8851247 C182.805748,16.5388653 181.227569,15.9040773 179.828566,16.4427307 C178.808865,16.8373691 177.578566,17.252581 176.357993,17.5058229 C173.455249,18.1148005 168.042531,18.0620574 167.117095,13.6439776 C166.195399,9.22627182 171.936172,9.6051995 171.936172,9.6051995 L179.568965,10.1318828 C181.829065,10.2871197 184.073454,9.8296384 186.150636,8.92552369 C187.984676,8.125399 189.615599,9.82739401 190.008741,10.9652993 C190.867594,13.4591895 189.971334,17.7201621 189.216845,20.4515835 C188.784426,22.0338778 188.067344,23.5196633 187.111983,24.8520823 L183.462232,17.8851247 Z" id="Fill-77" fill="#1C2C57"></path>
                    <path d="M187.750474,19.781409 C186.984015,19.3452494 185.794863,19.7069701 185.097232,20.589389 C184.397731,21.471808 184.453092,22.539015 185.217307,22.9751746 C185.985636,23.4113342 187.172918,23.0496135 187.872419,22.1675686 C188.57192,21.2851496 188.517307,20.2156983 187.750474,19.781409" id="Fill-78" fill="#FAB08A"></path>
                    <path d="M138.13096,187.39313 C138.13096,187.39313 138.107768,193.172805 126.500536,196.639638 C124.118491,197.35298 124.894676,198.056596 124.446546,199.057219 L137.802905,199.057219 L143.030461,193.178791 L144.659514,194.575923 L148.428965,190.871559 C148.428965,190.871559 147.774726,185.510461 144.903404,185.463329 C142.533329,186.270935 138.13096,187.39313 138.13096,187.39313" id="Fill-79" fill="#1C2C57"></path>
                    <path d="M171.110424,180.840786 L173.280374,185.844277 C175.255062,186.406496 177.37788,185.761608 178.706559,184.195399 L178.94596,183.914476 L177.193092,178.769214 L171.110424,180.840786 Z" id="Fill-80" fill="#FAB08A"></path>
                    <path d="M183.165599,37.8917581 C183.165599,37.8917581 182.243903,36.4665711 190.449015,32.2239277 C202.820461,44.5953741 206.882431,91.9587157 206.882431,91.9587157 L174.534052,91.9587157 C173.439539,64.9280424 183.165599,37.8917581 183.165599,37.8917581" id="Fill-81" fill="#006769"></path>
                    <path d="M151.200224,90.6772818 C151.056584,90.0660599 151.330025,89.4312718 151.872419,89.1166833 L157.147107,86.0587032 C158.449975,85.3023441 159.988878,85.0547132 161.464564,85.3610723 L167.182145,85.5888778 L167.931022,86.4914963 L169.119426,91.5458603 C167.97217,91.2686783 167.297731,91.09399 167.297731,91.09399 L163.665935,91.1942394 C163.665935,91.1942394 156.817182,97.5559601 153.422918,92.0235411 C153.279651,97.9116958 151.55596,97.4594514 151.55596,97.4594514 L151.200224,90.6772818 Z" id="Fill-82" fill="#FAB08A"></path>
                    <path d="M206.882544,91.9587531 L207.372195,95.9720948 C207.377805,96.0267082 207.385661,96.0801995 207.389401,96.1329426 C208.258354,103.795661 203.211471,110.89616 195.788529,112.977456 C195.788529,112.977456 181.062718,117.853392 162.476933,118.871222 C174.677431,134.536683 178.054115,178.494165 178.054115,178.494165 L170.192768,181.347905 L139.832918,109.040798 C137.893017,104.420349 140.636783,99.1770823 145.536284,98.1338155 L174.533791,91.9587531 L206.882544,91.9587531 Z" id="Fill-83" fill="#004060"></path>
                    <path d="M186.657868,53.3643142 C186.657868,53.3643142 192.681808,58.8787781 196.22682,64.5350125 C197.211359,66.1053367 197.063978,68.1395012 195.845648,69.5407481 C189.110611,77.299601 165.104626,84.7520948 165.104626,84.7520948 L166.659239,93.5070823 C166.659239,93.5070823 200.725324,86.807581 212.792282,74.7054613 C225.171584,62.2887531 193.163229,36.3510973 193.163229,36.3510973" id="Fill-84" fill="#006769"></path>
                    <polygon id="Fill-85" fill="#118C8C" points="138.4751 100.147631 128.39106 64.0982544 130.242307 63.5794264 139.856521 97.9563591 168.805399 92.9270574 169.133454 94.8198254"></polygon>
                    <path d="M172.800636,184.737793 C172.800636,184.737793 173.254751,190.564975 161.649389,194.031808 C159.269589,194.74515 160.043903,195.448766 159.595773,196.449015 L172.951758,196.449015 L178.181559,190.56909 L179.80687,191.966222 L183.578192,188.263728 C183.578192,188.263728 181.817095,182.902257 178.946147,182.855125 C176.577943,183.662731 172.800636,184.737793 172.800636,184.737793" id="Fill-86" fill="#1C2C57"></path>
                    <polygon id="Fill-87" fill="#005960" points="120.010474 269.441895 203.052868 269.441895 203.052868 199.117706 120.010474 199.117706"></polygon>
                    <path d="M67.4500623,69.9827805 C66.3072943,84.8245511 53.3493142,95.929414 38.5075436,94.78702 C23.6657731,93.6438778 12.5605362,80.6858978 13.7033042,65.8445012 C14.8464464,51.0027307 27.8044264,39.8971197 42.6458229,41.0402618 C57.4879676,42.1830299 68.5928304,55.14101 67.4500623,69.9827805" id="Fill-88" fill="#FF7900"></path>
                    <polygon id="Fill-89" fill="#FF7900" points="21.6652743 75.1342145 16.8144015 99.1237406 40.6774938 88.2792269"></polygon>
                    <path d="M143.887706,14.3062968 C143.887706,21.9327307 145.49207,32.8572943 132.478728,37.2937032 C119.466509,32.8572943 121.070873,21.9327307 121.070873,14.3062968 C125.796808,14.3062968 129.417007,12.9779925 132.478728,10.0494389 C135.540823,12.9779925 139.161397,14.3062968 143.887706,14.3062968 Z M137.177357,21.8384663 L133.761022,21.8384663 L133.761022,18.4599127 L131.507656,18.4599127 L131.507656,21.8384663 L128.091322,21.8384663 L128.091322,24.0360973 L131.507656,24.0360973 L131.507656,27.4146509 L133.761022,27.4146509 L133.761022,24.0360973 L137.177357,24.0360973 L137.177357,21.8384663 Z" id="Fill-90" fill="#FFFFFF"></path>
                    <path d="M55.5145137,62.4467207 L40.9469327,51.8520823 C40.4172569,51.4548254 39.887207,51.4548254 39.3575312,51.8520823 L24.7899501,62.4467207 C23.7302244,63.1091895 24.3926933,64.8306359 25.5844638,64.8306359 L28.233217,64.8306359 L28.233217,79.398217 C28.233217,80.1927307 28.7628928,80.7224065 29.5574065,80.7224065 L50.7466833,80.7224065 C51.541197,80.7224065 52.0708728,80.1927307 52.0708728,79.398217 L52.0708728,64.8306359 L54.7196259,64.8306359 C55.9117706,64.8306359 56.5738653,63.1091895 55.5145137,62.4467207 M40.1520449,78.0736534 C35.7818454,78.0736534 32.2061596,74.4983416 32.2061596,70.1277681 C32.2061596,65.7579426 35.7818454,62.1818828 40.1520449,62.1818828 C44.5226185,62.1818828 48.0983042,65.7579426 48.0983042,70.1277681 C48.0983042,74.4983416 44.5226185,78.0736534 40.1520449,78.0736534" id="Fill-91" fill="#FFFFFF"></path>
                </g>
                <g id="Group-95" transform="translate(216.209476, 81.546135)">
                    <mask id="mask-10" fill="white">
                        <use xlink:href="#path-9"></use>
                    </mask>
                    <g id="Clip-94"></g>
                    <polygon id="Fill-93" fill="#FFFFFF" mask="url(#mask-10)" points="-24.9677057 255.112219 218.172195 255.112219 218.172195 -211.067581 -24.9677057 -211.067581"></polygon>
                </g>
                <g id="Group-98" transform="translate(216.209476, 81.546135)">
                    <mask id="mask-12" fill="white">
                        <use xlink:href="#path-11"></use>
                    </mask>
                    <g id="Clip-97"></g>
                    <polygon id="Fill-96" fill="#FFFFFF" mask="url(#mask-12)" points="-2.92294264 32.717581 35.3472569 32.717581 35.3472569 -2.93491272 -2.92294264 -2.93491272"></polygon>
                </g>
                <polygon id="Fill-99" fill="#FFFFFF" points="234.164715 98.7529912 234.164715 95.3865337 230.798257 95.3865337 230.798257 98.7529912 227.431421 98.7529912 227.431421 102.119449 230.798257 102.119449 230.798257 105.486284 234.164715 105.486284 234.164715 102.119449 237.531172 102.119449 237.531172 98.7529912"></polygon>
                <g id="Group-104" transform="translate(227.057357, 95.386534)">
                    <mask id="mask-14" fill="white">
                        <use xlink:href="#path-13"></use>
                    </mask>
                    <g id="Clip-102"></g>
                    <polygon id="Fill-101" fill="#FFFFFF" mask="url(#mask-14)" points="-35.815586 241.27182 207.324314 241.27182 207.324314 -224.90798 -35.815586 -224.90798"></polygon>
                    <polygon id="Fill-103" fill="#FFFFFF" mask="url(#mask-14)" points="-2.87468828 13.2789277 13.6024938 13.2789277 13.6024938 -3.19825436 -2.87468828 -3.19825436"></polygon>
                </g>
                <g id="Group-107" transform="translate(56.109726, 14.214464)">
                    <mask id="mask-16" fill="white">
                        <use xlink:href="#path-15"></use>
                    </mask>
                    <g id="Clip-106"></g>
                    <polygon id="Fill-105" fill="#FFFFFF" mask="url(#mask-16)" points="-3.07518703 8.51521197 8.45236908 8.51521197 8.45236908 -3.01496259 -3.07518703 -3.01496259"></polygon>
                </g>
                <g id="Group-110" transform="translate(41.147132, 12.718204)">
                    <mask id="mask-18" fill="white">
                        <use xlink:href="#path-17"></use>
                    </mask>
                    <g id="Clip-109"></g>
                    <polygon id="Fill-108" fill="#FFFFFF" mask="url(#mask-18)" points="-3.19600998 8.28665835 8.21670823 8.28665835 8.21670823 -3.12905237 -3.19600998 -3.12905237"></polygon>
                </g>
                <g id="Group-113" transform="translate(50.872818, 19.451372)">
                    <mask id="mask-20" fill="white">
                        <use xlink:href="#path-19"></use>
                    </mask>
                    <g id="Clip-112"></g>
                    <polygon id="Fill-111" fill="#FFFFFF" mask="url(#mask-20)" points="-2.87805486 25.5721945 16.8725686 25.5721945 16.8725686 -3.20910224 -2.87805486 -3.20910224"></polygon>
                </g>
                <g id="Group-116" transform="translate(40.024938, 18.703242)">
                    <mask id="mask-22" fill="white">
                        <use xlink:href="#path-21"></use>
                    </mask>
                    <g id="Clip-115"></g>
                    <polygon id="Fill-114" fill="#FFFFFF" mask="url(#mask-22)" points="-2.90610973 26.3004988 15.0041147 26.3004988 15.0041147 -3.0946384 -2.90610973 -3.0946384"></polygon>
                </g>
                <g id="Group-119" transform="translate(61.346633, 29.177057)">
                    <mask id="mask-24" fill="white">
                        <use xlink:href="#path-23"></use>
                    </mask>
                    <g id="Clip-118"></g>
                    <polygon id="Fill-117" fill="#FFFFFF" mask="url(#mask-24)" points="-2.9521197 15.8465087 10.3975062 15.8465087 10.3975062 -3.04339152 -2.9521197 -3.04339152"></polygon>
                </g>
            </g>
        </g>
    </g>
</svg>