<svg xmlns="http://www.w3.org/2000/svg" xmlns:xlink="http://www.w3.org/1999/xlink" width="441" height="300" viewBox="0 0 441 300">
    <defs>
        <path id="a" d="M.168.32h55.378v66.678H.168z"/>
        <path id="c" d="M.268.32h42.417v66.678H.268z"/>
        <path id="e" d="M.161.207h61.635V78.22H.16z"/>
        <path id="g" d="M.044.207h52.518V78.22H.044z"/>
        <path id="i" d="M15.417.605L.85 11.2c-1.06.662-.398 2.384.794 2.384h2.65v14.568c0 .794.528 1.324 1.323 1.324h21.19c.794 0 1.324-.53 1.324-1.324V13.584h2.649c1.192 0 1.853-1.722.794-2.384L17.006.605c-.264-.198-.53-.298-.794-.298-.265 0-.53.1-.795.298zM8.266 18.881c0-4.37 3.575-7.946 7.946-7.946 4.37 0 7.946 3.576 7.946 7.946 0 4.37-3.576 7.946-7.946 7.946-4.37 0-7.946-3.576-7.946-7.946z"/>
        <path id="k" d="M15.417.605L.85 11.2c-1.06.662-.398 2.384.794 2.384h2.65v14.568c0 .794.528 1.324 1.323 1.324h21.19c.794 0 1.324-.53 1.324-1.324V13.584h2.649c1.192 0 1.853-1.722.794-2.384L17.006.605c-.264-.198-.53-.298-.794-.298-.265 0-.53.1-.795.298zM8.266 18.881c0-4.37 3.575-7.946 7.946-7.946 4.37 0 7.946 3.576 7.946 7.946 0 4.37-3.576 7.946-7.946 7.946-4.37 0-7.946-3.576-7.946-7.946z"/>
        <path id="m" d="M3.698.044v3.331H.368v3.332h3.33v3.33H7.03v-3.33h3.332V3.375H7.029V.045z"/>
        <path id="o" d="M.184 2.476a2.52 2.52 0 1 0 0 0z"/>
        <path id="q" d="M2.469.115A2.464 2.464 0 0 0 .048 2.568v.029a2.464 2.464 0 0 0 2.454 2.446h.025a2.463 2.463 0 0 0 2.446-2.454v-.027A2.464 2.464 0 0 0 2.546.115H2.47z"/>
        <path id="s" d="M1.39 2.83L.364 12.112l1.492.162.718 10.055h3.162v-9.634l.915.1.799-7.244 3.844 3.982a1.363 1.363 0 0 0 1.917.041c.54-.514.558-1.365.04-1.902l-6.35-6.577-.003.003A3.151 3.151 0 0 0 4.529.034a3.154 3.154 0 0 0-3.14 2.797z"/>
        <path id="u" d="M.338 3.03v8.488h1.305l.503 11.539H5.12V11.518h.975v-7.04l3.61 2.057a1.35 1.35 0 0 0 1.41-2.305L4.864.67A2.88 2.88 0 0 0 .338 3.03z"/>
        <path id="w" d="M2.811.2C1.705.2.801 1.066.751 2.171l-.46 10.392.9.04.355-8.014H5.9l.355 8.014.899-.04-.46-10.392a2.058 2.058 0 0 0-2.06-1.97H2.812zm-1.16 2.011a1.16 1.16 0 0 1 1.16-1.11h1.824a1.16 1.16 0 0 1 1.16 1.11l.065 1.477H1.586l.065-1.477z"/>
    </defs>
    <g fill="none" fill-rule="evenodd">
        <path fill="#FFEDDC" d="M100.632 64.048s.672 5.38-4.035 6.053c-4.708.672-8.811 9.68-.922 13.454l9.664-11.886-.448-9.639-4.26 2.018z"/>
        <path fill="#007C79" d="M186.148 243.4v-63.21H80.57v119.476h180.449V243.4z"/>
        <path fill="#F79C82" d="M112.96 71.221l-5.828-8.294-4.483 1.345 1.121 8.742s5.044 3.475 9.078-1.905"/>
        <path fill="#006769" d="M103.77 73.014l-17.12 20.94a.742.742 0 0 1-.806.194L75.302 90.05l3.362 9.415s12.553 2.017 13.226 1.794c.672-.225 8.93-1.239 8.93-1.239l2.95-27.006z"/>
        <path fill="#00C9C3" d="M48.739 139.477v57.727H3.683v102.547h130.685V139.477z"/>
        <path fill="#FAB08A" d="M113.857 53.064c0 6.685-4.516 12.105-10.087 12.105-5.57 0-10.087-5.42-10.087-12.105 0-6.685 4.516-12.104 10.087-12.104s10.087 5.42 10.087 12.104"/>
        <path fill="#FFEDDC" d="M131.35 108.597c-13.323 4.401-1.13-27.513-1.13-27.513l-17.26-9.863s-9.414-.896-5.155-11.88c0 0 2.017-2.914 1.12-6.277 0 0-8.552.91-12.233-8.623 0 0-3.694 4.679-2.791 11.135 0 0-6.562-10.519 3.256-17.418 8.294-5.829 16.7-1.681 22.304 7.06 5.604 8.743 6.95 9.415 10.311 10.312 2.281.608 5.283 3.279 7.329 5.983 1.65 2.183 6.217 3.68 8.81 4.552 7.029 2.362 23.86 29.84-14.56 42.532"/>
        <path fill="#59C09C" d="M136.721 80.075c0-5.347-4.304-9.686-9.636-9.748l-.003-.003-.031.002-.08-.002c-.446 0-.884.033-1.313.091l-12.697.806-9.191 1.793-5.596 6.967a14.514 14.514 0 0 0-2.09 14.653l1.634 3.934.896 9.64s28.805 24.096 28.805 23.648c0-.448 9.097-49.784 9.097-49.784a9.776 9.776 0 0 0 .205-1.997"/>
        <path fill="#004060" d="M53.397 72.35l6.337 23.59c.133.593.55 1.082 1.115 1.308l13.668 5.467 4.707-8.741-5.707-21.777a1.846 1.846 0 0 0-1.7-1.375L55.283 70.1a1.845 1.845 0 0 0-1.886 2.248"/>
        <path fill="#F79C82" d="M78.776 92.18l.468.178a2.31 2.31 0 0 1 1.097 1.17l.535 1.27a7.307 7.307 0 0 0 2.974 3.43l1.315.789-.897 4.259-9.015-2.744a2.074 2.074 0 0 1-1.455-1.74l-.082-.704a7.945 7.945 0 0 1 .353-3.443 1.924 1.924 0 0 1 2.281-1.262l2.279.468a.383.383 0 0 0 .448-.468l-.3-1.203zM55.205 83.833l1.445 5.502a.761.761 0 0 0 .949.54c1.216-.356 3.456-1.39 3.42-4.173-.036-2.887-3.469-2.96-5.141-2.824a.762.762 0 0 0-.673.955"/>
        <path fill="#004966" d="M68.401 123.677a16.656 16.656 0 0 1-12.377 5.49 16.62 16.62 0 0 1-7.618-1.841l-25.333 38.266-5.604-2.914 23.101-56.544c.031-.075.06-.15.092-.223l.343-.842.058-.021c2.732-5.5 8.403-9.281 14.961-9.281 2.308 0 4.932.112 7.397 1.008l49.764 15.686s6.07 2.49 9.536 5.507l-.002.001a14.761 14.761 0 0 1 5.26 11.31c0 8.17-6.624 14.794-14.794 14.794-2.847 0-7.828-1.218-10.343-2.658-.357-.205-.715-.41-1.081-.598l-33.36-17.14z"/>
        <path fill="#003A4C" d="M103.341 141.682l-43.73-5.455-7.622 46.177s-6.276-.448-6.276-.896c0-.449-2.69-55.592-2.69-55.592s-.224-14.346 19.502-6.725l40.816 22.491z"/>
        <path fill="#00C9C3" d="M77.88 162.117h50.884v-22.64H77.88z"/>
        <path fill="#F79C82" d="M10.777 177.24c.496-.094.97-.278 1.404-.535l8.512-5.03c.044-.45.156-.894.336-1.314l2.044-4.769-5.262-2.736s-2.889 8.194-9.967 10.083a6.383 6.383 0 0 1-2.226.177c-.31-.029-.683-.056-1.086-.072.721 4.68 4.513 4.525 6.245 4.196"/>
        <path fill="#99DCDC" d="M2.674 177.697s2.466 2.241 5.828 2.241c3.363 0 6.277-2.69 8.518-2.914 1.98-.198 4.307-1.268 3.747-3.983a4.573 4.573 0 0 1-.074-1.366l-8.512 5.03a4.372 4.372 0 0 1-1.405.535c-1.731.329-5.523.484-6.244-4.196-2.732-.107-6.832.32-1.858 4.653"/>
        <path fill="#F79C82" d="M44.816 198.543c4.483-1.12 3.81-4.707 5.828-6.5 1.552-1.38 2.305-2.892 2.368-4.638a5.811 5.811 0 0 0-.462-.406s-.897-2.241-.673-4.707l-5.788-.586s1.08 8.431-1.61 11.345c0 0-1.299 2.273-3.481 4.055.375 1.038 1.346 2.055 3.818 1.437"/>
        <path fill="#99DCDC" d="M41.118 202.018c2.017 0 6.949-.673 8.966-4.26 2.017-3.586 3.81-4.93 3.81-4.93s1.603-3.01-.883-5.423c-.062 1.746-.815 3.258-2.367 4.638-2.017 1.793-1.344 5.38-5.828 6.5-2.472.618-3.443-.399-3.818-1.437-.382.312-.791.61-1.226.877-2.914 1.793-.672 4.035 1.346 4.035"/>
        <path fill="#59C09C" d="M125.626 74.471l-9.3 21.382a5.914 5.914 0 0 1-5.511 3.552l-25.65-.388-.897 4.259 29.688 9.43a9.756 9.756 0 0 0 11.913-5.439l10.627-26.113-10.87-6.683zM80.925 27.983c0 15.346-12.44 27.786-27.786 27.786-15.346 0-27.786-12.44-27.786-27.786C25.353 12.638 37.793.198 53.14.198c15.346 0 27.786 12.44 27.786 27.785"/>
        <path fill="#59C09C" d="M71.663 27.983l-5.488 15.78 22.64-2.744z"/>
        <path fill="#FAB08A" d="M217.804 149.935l2.636 9.128-4.911.82z"/>
        <path fill="#FAB08A" d="M208.98 141.873c-5.2 0-9.414 5.543-9.414 12.382 0 1.462.194 2.865.548 4.167l-3.209.642-4.093 4.706 8.39 5.321s3.89-3.479 4.026-3.479v-.002c1.149.658 2.417 1.026 3.752 1.026 5.199 0 9.413-5.544 9.413-12.381 0-6.839-4.214-12.382-9.413-12.382"/>
        <path fill="#71D8B8" d="M192.812 163.77s25.172 7.777 38.884 50.959l-30.288 22.306-12.893-45.637s-7.163-18.009 4.297-27.628"/>
        <path fill="#1C2C57" d="M231.696 247.953l38.817-6.024a2.022 2.022 0 0 1 2.326 2.153l-2.874 37.362 8.39-.41 4.094-49.934-19.646.614-31.107 16.239z"/>
        <path fill="#FAB08A" d="M251.444 212.375l4.503.41s2.733-1.871 5.909-.545c1.033.431 1.315 1.766.562 2.593l-.843.305-10.13 1.91v-4.673zM275.123 285.958l-.042-.011.615-5.322-5.935.82-.528 7.124c2.128-.25 4.607-.562 4.723-.678.107-.107.662-1.054 1.167-1.933"/>
        <path fill="#004966" d="M276.425 292.973l.908-6.413-2.21-.602c-.505.879-1.06 1.826-1.167 1.933-.116.115-2.595.429-4.723.678l-.291 3.926 7.483.478z"/>
        <path fill="#004472" d="M224.234 220.224l63.126-4.268s12.689-.409 10.437 14.94l-13.916 53.618h-6.958l1.445-45.544a2.152 2.152 0 0 0-2.68-2.155l-45.732 11.578s-23.74 4.502-28.446-11.46l22.724-16.71z"/>
        <path fill="#99DCDC" d="M283.805 177.596a1.243 1.243 0 0 0-1.655.635c-2.274 5.233-11.61 26.72-14.796 34.153a4.414 4.414 0 0 1-3.822 2.67l-16.692.902-.334 2.762 23.325-1.576a9.314 9.314 0 0 1 .664-4.654l13.943-33.278c.26-.62-.02-1.335-.633-1.614"/>
        <path fill="#FAB08A" d="M281.937 289.323l1.262-4.81h-6.276l-.498 6.857h3.67z"/>
        <path fill="#004966" d="M291.249 296.383s2.353-1.739-6.037-3.376l.614-2.047-3.889-1.637-1.842 2.047h-3.67l-.32 4.4s7.981 3.274 15.144.613"/>
        <path fill="#71D8B8" d="M189.231 176.97l14.12-.818 11.022 25.549a11.186 11.186 0 0 0 8.699 6.645l28.372 4.029v6.14l-30.89 1.94a23.16 23.16 0 0 1-20.004-9.226c-4.87-6.514-9.746-17.146-11.319-34.259"/>
        <g>
            <g transform="translate(111.097 232.668)">
                <mask id="b" fill="#fff">
                    <use xlink:href="#a"/>
                </mask>
                <path fill="#59C09C" d="M.168 60.932S7.05 12.327 39.438.319c31.621 26.94 6.935 66.771 6.935 66.771L11.48 92.097.168 60.932z" mask="url(#b)"/>
            </g>
            <g transform="translate(121.945 232.668)">
                <mask id="d" fill="#fff">
                    <use xlink:href="#c"/>
                </mask>
                <path fill="#006769" d="M.838 26.734L14.782 43.45 27.829.618c.253-.1.504-.203.76-.299.125.106.24.214.364.32L21.964 23.58l18.415-8.36c.084.172.162.346.243.518l.21.462-19.287 8.757L9.9 63.187l32.786-13.642c-.116.444-.235.886-.357 1.318L9.491 64.527l-8.27 27.147-.59.423-.363-1.003 14.137-46.408L.287 27.762c.181-.343.365-.685.55-1.028" mask="url(#d)"/>
            </g>
            <g transform="translate(80.798 221.446)">
                <mask id="f" fill="#fff">
                    <use xlink:href="#e"/>
                </mask>
                <path fill="#004966" d="M14.13 81.85S-14.69 33.159 10.46.207c68.479 19.95 48.675 87.245 48.675 87.245L14.13 81.85z" mask="url(#f)"/>
            </g>
            <g transform="translate(81.172 221.446)">
                <mask id="h" fill="#fff">
                    <use xlink:href="#g"/>
                </mask>
                <path fill="#59C09C" d="M10.087.207c.238.07.47.141.708.212l18.548 64.035 22.507-34.96c.243.396.48.79.712 1.188L29.801 66.035l5.352 18.478-1.341-.166-10.67-36.836L.17 40.23a71.536 71.536 0 0 1-.125-1.343l22.683 7.19L9.624.839c.155-.21.303-.422.463-.631" mask="url(#h)"/>
            </g>
        </g>
        <g>
            <path fill="#004966" d="M348.126 53.57c0 12.788-10.367 23.155-23.155 23.155s-23.155-10.367-23.155-23.155c0-12.789 10.367-23.155 23.155-23.155s23.155 10.366 23.155 23.155"/>
            <path fill="#004966" d="M328.123 66.438l28.286-13.153-29.166-16.293z"/>
            <path fill="#F79C82" d="M205.297 165.452s-4.863-2.993-4.489-8.978l-4.488 3.367-3.741 4.115s7.764 3.03 9.119 4.694l3.6-3.198z"/>
            <path fill="#004966" d="M196.496 159.678s-3.274-3.48-3.07-10.233c.205-6.753 2.473-13.228 10.847-12.688 6.344.409 5.934 3.479 9.004 3.479 2.894 0 7.982-2.66 7.982 2.66 0 2.93-2.661 11.052-14.94 8.8 0 0-4.604-1.535-3.99 2.149.613 3.684 0 5.32-5.833 5.833"/>
            <path fill="#005960" d="M354.55 299.741h86.408V141.886H354.55z"/>
            <path fill="#FAB08A" d="M331.475 212.834l-.91 5.436a5.241 5.241 0 0 0 5.67.19l.316-.19 1.345-5.436h-6.42z"/>
            <path fill="#005960" d="M375.036 87.099c-4.829 15.935-21.033 40.396-21.033 40.396l12.8-5.237 9.045-20.9s4.015-30.194-.812-14.26"/>
            <path fill="#1C2C57" d="M340.256 151.085l-10.093 62.234h8.973s20.15-55.995 22.267-72.456c0-9.325-20.373 0-20.373 0l-.774 10.222z"/>
            <path fill="#F79C82" d="M373.678 61.95l3.349 8.666 7.246-5.245-4.892-10.22z"/>
            <path fill="#FAB08A" d="M370.946 63.388c-1.122.202-2.193.253-2.826-.077-4.206-4.011-3.18-17.412-3.18-17.412l4.697-3.249 7.4 2.712 2.146 8.388c.572 2.24-.061 4.636-1.702 6.452-1.828 1.598-4.088 2.744-6.535 3.186"/>
            <path fill="#1C2C57" d="M375.732 48.184a2.895 2.895 0 0 0-3.634-1.442c-1.02.395-2.25.81-3.47 1.063-2.903.61-8.316.556-9.242-3.862-.921-4.417 4.82-4.039 4.82-4.039l7.632.527c2.26.155 4.505-.302 6.582-1.206 1.834-.8 3.465.902 3.858 2.04.859 2.493-.037 6.754-.792 9.486a13.794 13.794 0 0 1-2.105 4.4l-3.65-6.967z"/>
            <path fill="#FAB08A" d="M380.02 50.08c-.767-.435-1.956-.074-2.653.809-.7.882-.645 1.95.12 2.385.768.437 1.955.075 2.655-.807.7-.883.645-1.952-.122-2.386"/>
            <path fill="#1C2C57" d="M330.4 217.692s-.023 5.78-11.63 9.247c-2.382.713-1.606 1.417-2.054 2.417h13.356l5.228-5.878 1.629 1.397 3.77-3.704s-.655-5.361-3.526-5.408c-2.37.807-6.773 1.93-6.773 1.93"/>
            <path fill="#FAB08A" d="M363.38 211.14l2.17 5.004a5.237 5.237 0 0 0 5.426-1.65l.24-.28-1.754-5.146-6.082 2.072z"/>
            <path fill="#006769" d="M375.435 68.191s-.922-1.425 7.283-5.668c12.372 12.372 16.434 59.735 16.434 59.735h-32.349c-1.094-27.03 8.632-54.067 8.632-54.067"/>
            <path fill="#FAB08A" d="M343.47 120.977a1.428 1.428 0 0 1 .672-1.561l5.274-3.058a6.124 6.124 0 0 1 4.318-.698l5.717.228.75.903 1.188 5.054c-1.148-.277-1.822-.452-1.822-.452l-3.632.1s-6.848 6.362-10.243.83c-.143 5.888-1.867 5.436-1.867 5.436l-.355-6.782z"/>
            <path fill="#004060" d="M399.152 122.258l.49 4.013c.005.055.013.108.017.161.869 7.663-4.178 14.763-11.601 16.845 0 0-14.726 4.876-33.312 5.893 12.2 15.666 15.577 59.623 15.577 59.623l-7.86 2.854-30.36-72.307c-1.94-4.62.803-9.864 5.703-10.907l28.997-6.175h32.349z"/>
            <path fill="#006769" d="M378.927 83.664s6.024 5.514 9.57 11.17a4.217 4.217 0 0 1-.382 5.006c-6.735 7.759-30.741 15.211-30.741 15.211l1.555 8.755s34.066-6.7 46.133-18.801c12.379-12.417-19.63-38.355-19.63-38.355"/>
            <path fill="#118C8C" d="M330.744 130.447l-10.084-36.05 1.852-.518 9.614 34.377 28.949-5.03.328 1.893z"/>
            <path fill="#1C2C57" d="M365.07 215.037s.454 5.827-11.151 9.294c-2.38.713-1.606 1.417-2.054 2.417h13.356l5.23-5.88 1.625 1.397 3.772-3.702s-1.762-5.361-4.633-5.409c-2.368.808-6.145 1.883-6.145 1.883"/>
            <path fill="#005960" d="M312.28 299.741h83.042v-70.324H312.28z"/>
            <path fill="#FF7900" d="M259.72 100.282c-1.143 14.842-14.101 25.947-28.943 24.804-14.842-1.143-25.947-14.1-24.804-28.942 1.143-14.842 14.1-25.948 28.942-24.804 14.842 1.142 25.947 14.1 24.804 28.942"/>
            <path fill="#FF7900" d="M213.935 105.433l-4.851 23.99 23.863-10.845z"/>
            <path fill="#FFF" d="M336.157 44.606c0 7.626 1.604 18.55-11.409 22.987-13.012-4.436-11.408-15.361-11.408-22.987 4.726 0 8.346-1.329 11.408-4.257 3.062 2.928 6.683 4.257 11.409 4.257zm-6.71 7.532h-3.417v-3.379h-2.253v3.379h-3.416v2.197h3.416v3.379h2.253v-3.379h3.417v-2.197zM247.784 92.746l-14.568-10.595c-.53-.397-1.06-.397-1.59 0L217.06 92.746c-1.06.662-.397 2.384.795 2.384h2.649v14.567c0 .795.53 1.325 1.324 1.325h21.189c.795 0 1.324-.53 1.324-1.325V95.13h2.649c1.192 0 1.854-1.722.795-2.384m-15.363 15.627c-4.37 0-7.946-3.575-7.946-7.946 0-4.37 3.576-7.946 7.946-7.946 4.37 0 7.947 3.576 7.947 7.946 0 4.37-3.576 7.946-7.947 7.946"/>
        </g>
        <g transform="translate(216.21 81.546)">
            <mask id="j" fill="#fff">
                <use xlink:href="#i"/>
            </mask>
            <path fill="#FFF" d="M-24.968 255.112h243.14v-466.18h-243.14z" mask="url(#j)"/>
        </g>
        <g transform="translate(216.21 81.546)">
            <mask id="l" fill="#fff">
                <use xlink:href="#k"/>
            </mask>
            <path fill="#FFF" d="M-2.923 32.718h38.27V-2.935h-38.27z" mask="url(#l)"/>
        </g>
        <path fill="#FFF" d="M234.165 98.753v-3.366h-3.367v3.366h-3.367v3.366h3.367v3.367h3.367v-3.367h3.366v-3.366z"/>
        <g transform="translate(227.057 95.387)">
            <mask id="n" fill="#fff">
                <use xlink:href="#m"/>
            </mask>
            <path fill="#FFF" d="M-35.816 241.272h243.14v-466.18h-243.14z" mask="url(#n)"/>
            <path fill="#FFF" d="M-2.875 13.279h16.477V-3.198H-2.875z" mask="url(#n)"/>
        </g>
        <g transform="translate(56.11 14.214)">
            <mask id="p" fill="#fff">
                <use xlink:href="#o"/>
            </mask>
            <path fill="#FFF" d="M-3.075 8.515H8.452v-11.53H-3.075z" mask="url(#p)"/>
        </g>
        <g transform="translate(41.147 12.718)">
            <mask id="r" fill="#fff">
                <use xlink:href="#q"/>
            </mask>
            <path fill="#FFF" d="M-3.196 8.287H8.217V-3.13H-3.196z" mask="url(#r)"/>
        </g>
        <g transform="translate(50.873 19.451)">
            <mask id="t" fill="#fff">
                <use xlink:href="#s"/>
            </mask>
            <path fill="#FFF" d="M-2.878 25.572h19.75V-3.209h-19.75z" mask="url(#t)"/>
        </g>
        <g transform="translate(40.025 18.703)">
            <mask id="v" fill="#fff">
                <use xlink:href="#u"/>
            </mask>
            <path fill="#FFF" d="M-2.906 26.3h17.91V-3.095h-17.91z" mask="url(#v)"/>
        </g>
        <g transform="translate(61.347 29.177)">
            <mask id="x" fill="#fff">
                <use xlink:href="#w"/>
            </mask>
            <path fill="#FFF" d="M-2.952 15.847h13.35v-18.89h-13.35z" mask="url(#x)"/>
        </g>
    </g>
</svg>
