<?xml version="1.0" encoding="UTF-8"?>
<svg width="285px" height="219px" viewBox="0 0 285 219" version="1.1" xmlns="http://www.w3.org/2000/svg" xmlns:xlink="http://www.w3.org/1999/xlink">
    <!-- Generator: Sketch 52.1 (67048) - http://www.bohemiancoding.com/sketch -->
    <title>Group 2</title>
    <desc>Created with Sketch.</desc>
    <defs>
        <ellipse id="path-1" cx="106.303032" cy="106.805121" rx="106.303032" ry="106.531471"></ellipse>
        <polygon id="path-3" points="0 0 144.966383 0 144.966383 191.090714 0 191.090714"></polygon>
        <filter x="-98.0%" y="-25.8%" width="302.3%" height="151.6%" filterUnits="objectBoundingBox" id="filter-5">
            <feOffset dx="0" dy="2" in="SourceAlpha" result="shadowOffsetOuter1"></feOffset>
            <feGaussianBlur stdDeviation="2" in="shadowOffsetOuter1" result="shadowBlurOuter1"></feGaussianBlur>
            <feColorMatrix values="0 0 0 0 0   0 0 0 0 0   0 0 0 0 0  0 0 0 0.5 0" type="matrix" in="shadowBlurOuter1" result="shadowMatrixOuter1"></feColorMatrix>
            <feMerge>
                <feMergeNode in="shadowMatrixOuter1"></feMergeNode>
                <feMergeNode in="SourceGraphic"></feMergeNode>
            </feMerge>
        </filter>
        <ellipse id="path-6" cx="41.3695513" cy="41.4844446" rx="41.3695513" ry="41.4844446"></ellipse>
        <filter x="-34.4%" y="-25.9%" width="168.9%" height="168.7%" filterUnits="objectBoundingBox" id="filter-7">
            <feMorphology radius="4" operator="dilate" in="SourceAlpha" result="shadowSpreadOuter1"></feMorphology>
            <feOffset dx="0" dy="7" in="shadowSpreadOuter1" result="shadowOffsetOuter1"></feOffset>
            <feGaussianBlur stdDeviation="7" in="shadowOffsetOuter1" result="shadowBlurOuter1"></feGaussianBlur>
            <feComposite in="shadowBlurOuter1" in2="SourceAlpha" operator="out" result="shadowBlurOuter1"></feComposite>
            <feColorMatrix values="0 0 0 0 0   0 0 0 0 0   0 0 0 0 0  0 0 0 0.5 0" type="matrix" in="shadowBlurOuter1"></feColorMatrix>
        </filter>
        <filter x="-32.6%" y="-24.1%" width="165.3%" height="165.1%" filterUnits="objectBoundingBox" id="filter-8">
            <feGaussianBlur stdDeviation="6" in="SourceAlpha" result="shadowBlurInner1"></feGaussianBlur>
            <feOffset dx="0" dy="6" in="shadowBlurInner1" result="shadowOffsetInner1"></feOffset>
            <feComposite in="shadowOffsetInner1" in2="SourceAlpha" operator="arithmetic" k2="-1" k3="1" result="shadowInnerInner1"></feComposite>
            <feColorMatrix values="0 0 0 0 0   0 0 0 0 0   0 0 0 0 0  0 0 0 0.5 0" type="matrix" in="shadowInnerInner1"></feColorMatrix>
        </filter>
        <polygon id="path-9" points="0.501584292 0.040289551 70.5903987 0.040289551 70.5903987 64.8762181 0.501584292 64.8762181"></polygon>
        <polygon id="path-11" points="0.506679161 0.327583756 127.711382 0.327583756 127.711382 115.775504 0.506679161 115.775504"></polygon>
        <polygon id="path-13" points="0.0725662436 0.330871891 77.3008922 0.330871891 77.3008922 91.4064211 0.0725662436 91.4064211"></polygon>
        <polygon id="path-15" points="0.48881669 0.330997483 59.6424324 0.330997483 59.6424324 91.4064211 0.48881669 91.4064211"></polygon>
        <polygon id="path-17" points="0.454323368 0.0215570264 86.4093009 0.0215570264 86.4093009 106.577691 0.454323368 106.577691"></polygon>
        <path d="M218.532,73.216 C216.883992,73.216 215.448006,72.8600036 214.224,72.148 C212.999994,71.4359964 212.056003,70.4200066 211.392,69.1 C210.727997,67.7799934 210.396,66.224009 210.396,64.432 C210.396,62.6559911 210.723997,61.1080066 211.38,59.788 C212.036003,58.4679934 212.975994,57.4560035 214.2,56.752 C215.424006,56.0479965 216.867992,55.696 218.532,55.696 C220.196008,55.696 221.639994,56.0479965 222.864,56.752 C224.088006,57.4560035 225.023997,58.4679934 225.672,59.788 C226.320003,61.1080066 226.644,62.6559911 226.644,64.432 C226.644,66.224009 226.316003,67.7799934 225.66,69.1 C225.003997,70.4200066 224.068006,71.4359964 222.852,72.148 C221.635994,72.8600036 220.196008,73.216 218.532,73.216 Z M218.532,70.744 C220.116008,70.744 221.347996,70.2000054 222.228,69.112 C223.108004,68.0239946 223.548,66.4640102 223.548,64.432 C223.548,62.4159899 223.108004,60.8680054 222.228,59.788 C221.347996,58.7079946 220.116008,58.168 218.532,58.168 C216.947992,58.168 215.716004,58.7039946 214.836,59.776 C213.955996,60.8480054 213.516,62.3999898 213.516,64.432 C213.516,66.4640102 213.955996,68.0239946 214.836,69.112 C215.716004,70.2000054 216.947992,70.744 218.532,70.744 Z M234.852,73.192 C233.619994,73.192 232.536005,72.9360026 231.6,72.424 C230.663995,71.9119974 229.944003,71.1800048 229.44,70.228 C228.935997,69.2759952 228.684,68.1600064 228.684,66.88 C228.684,65.5999936 228.935997,64.4840048 229.44,63.532 C229.944003,62.5799952 230.663995,61.8480026 231.6,61.336 C232.536005,60.8239974 233.619994,60.568 234.852,60.568 C236.068006,60.568 237.139995,60.8239974 238.068,61.336 C238.996005,61.8480026 239.711997,62.5799952 240.216,63.532 C240.720003,64.4840048 240.972,65.5999936 240.972,66.88 C240.972,68.1600064 240.720003,69.2759952 240.216,70.228 C239.711997,71.1800048 238.996005,71.9119974 238.068,72.424 C237.139995,72.9360026 236.068006,73.192 234.852,73.192 Z M234.828,70.84 C235.852005,70.84 236.631997,70.5080033 237.168,69.844 C237.704003,69.1799967 237.972,68.1920066 237.972,66.88 C237.972,65.5839935 237.700003,64.5960034 237.156,63.916 C236.611997,63.2359966 235.844005,62.896 234.852,62.896 C233.843995,62.896 233.068003,63.2359966 232.524,63.916 C231.979997,64.5960034 231.708,65.5839935 231.708,66.88 C231.708,68.1920066 231.975997,69.1799967 232.512,69.844 C233.048003,70.5080033 233.819995,70.84 234.828,70.84 Z M250.236,60.568 C251.276005,60.568 252.199996,60.8359973 253.008,61.372 C253.816004,61.9080027 254.447998,62.6599952 254.904,63.628 C255.360002,64.5960048 255.588,65.7039938 255.588,66.952 C255.588,68.2000062 255.364002,69.2959953 254.916,70.24 C254.467998,71.1840047 253.840004,71.9119974 253.032,72.424 C252.223996,72.9360026 251.292005,73.192 250.236,73.192 C249.355996,73.192 248.572003,73.0040019 247.884,72.628 C247.195997,72.2519981 246.668002,71.7280034 246.3,71.056 L246.3,78.184 L243.324,78.184 L243.324,64.312 C243.324,63.0319936 243.260001,61.888005 243.132,60.88 L245.94,60.88 L246.18,62.968 C246.500002,62.2159962 247.019996,61.6280021 247.74,61.204 C248.460004,60.7799979 249.291995,60.568 250.236,60.568 Z M249.42,70.84 C250.428005,70.84 251.203997,70.5040034 251.748,69.832 C252.292003,69.1599966 252.564,68.2000062 252.564,66.952 C252.564,65.6879937 252.292003,64.7000036 251.748,63.988 C251.203997,63.2759964 250.436005,62.92 249.444,62.92 C248.419995,62.92 247.636003,63.2639966 247.092,63.952 C246.547997,64.6400034 246.276,65.6239936 246.276,66.904 C246.276,68.1680063 246.547997,69.1399966 247.092,69.82 C247.636003,70.5000034 248.411995,70.84 249.42,70.84 Z M262.404,73.192 C260.211989,73.192 258.468006,72.6800051 257.172,71.656 L258.012,69.544 C259.308006,70.5040048 260.787992,70.984 262.452,70.984 C263.172004,70.984 263.727998,70.8640012 264.12,70.624 C264.512002,70.3839988 264.708,70.0480022 264.708,69.616 C264.708,69.2479982 264.572001,68.9560011 264.3,68.74 C264.027999,68.5239989 263.564003,68.3360008 262.908,68.176 L260.892,67.72 C258.683989,67.2399976 257.58,66.1120089 257.58,64.336 C257.58,63.5999963 257.787998,62.9480028 258.204,62.38 C258.620002,61.8119972 259.203996,61.3680016 259.956,61.048 C260.708004,60.7279984 261.579995,60.568 262.572,60.568 C263.436004,60.568 264.267996,60.6999987 265.068,60.964 C265.868004,61.2280013 266.571997,61.6079975 267.18,62.104 L266.292,64.144 C265.075994,63.2479955 263.828006,62.8 262.548,62.8 C261.859997,62.8 261.324002,62.9279987 260.94,63.184 C260.555998,63.4400013 260.364,63.7919978 260.364,64.24 C260.364,64.5920018 260.479999,64.871999 260.712,65.08 C260.944001,65.288001 261.339997,65.4639993 261.9,65.608 L263.964,66.064 C265.164006,66.3360014 266.039997,66.7559972 266.592,67.324 C267.144003,67.8920028 267.42,68.6319954 267.42,69.544 C267.42,70.6640056 266.972004,71.5519967 266.076,72.208 C265.179996,72.8640033 263.956008,73.192 262.404,73.192 Z M270.204,67.864 L269.244,55.888 L272.964,55.912 L272.028,67.864 L270.204,67.864 Z M269.436,69.64 L272.796,69.64 L272.796,73 L269.436,73 L269.436,69.64 Z" id="path-19"></path>
    </defs>
    <g id="Web" stroke="none" stroke-width="1" fill="none" fill-rule="evenodd">
        <g id="Recommendations-no-result" transform="translate(-401.000000, -296.000000)">
            <g id="Group-2" transform="translate(401.000000, 267.000000)">
                <g id="explorer_owl" transform="translate(0.000000, 0.000000)">
                    <g id="Group-17" transform="translate(0.000000, 33.256881)">
                        <g id="Group-10" transform="translate(0.000000, 0.596453)">
                            <g id="Group-40">
                                <g id="Group-12-Copy" transform="translate(0.000000, 0.138037)">
                                    <g id="Group-2">
                                        <g id="Group-14">
                                            <g>
                                                <g id="Group-4">
                                                    <g id="Group-9" transform="translate(0.000000, 0.233958)">
                                                        <mask id="mask-2" fill="white">
                                                            <use xlink:href="#path-1"></use>
                                                        </mask>
                                                        <use id="Mask" fill="#005150" xlink:href="#path-1"></use>
                                                        <g mask="url(#mask-2)" id="Group-8">
                                                            <g transform="translate(-42.044271, 32.101990)">
                                                                <g>
                                                                    <path d="M7.92383671,161.027471 L262.904832,161.027471 C260.861493,231.32369 204.564165,287.667471 135.414334,287.667471 C66.2645036,287.667471 9.96717586,231.32369 7.92383721,161.027488 Z" id="Combined-Shape-Copy-2" fill="#008181" transform="translate(135.414334, 224.347471) rotate(-315.000000) translate(-135.414334, -224.347471) "></path>
                                                                    <g id="Group-7" transform="translate(86.530322, 0.000000)">
                                                                        <g id="Group-6">
                                                                            <g id="Group">
                                                                                <g id="Group-3" transform="translate(0.000000, 1.596757)">
                                                                                    <mask id="mask-4" fill="white">
                                                                                        <use xlink:href="#path-3"></use>
                                                                                    </mask>
                                                                                    <g id="Clip-2"></g>
                                                                                    <path d="M126.166227,180.914285 L126.166227,62.1621165 C126.166227,59.8678092 126.041167,57.6017056 125.798334,55.3723894 C124.796647,46.1620515 125.608924,36.8756864 127.923126,27.9105978 C128.352941,26.2416762 128.748759,24.5102161 129.121508,22.7149912 C130.081914,18.0981729 125.211892,14.5163067 121.171145,16.8841888 C119.359608,17.9473446 117.475222,18.9761654 115.592049,19.8933978 C113.196499,21.0595583 110.354135,20.545761 108.490389,18.6291376 C97.3176273,7.14165993 81.7799368,0 64.615263,0 C47.4505892,0 31.9165413,7.14043368 20.7425657,18.6242327 C18.880034,20.540856 16.0352416,21.0546533 13.6396908,19.8872666 C11.761375,18.9724867 9.88184508,17.9448921 8.07273678,16.8841888 C4.03320437,14.5163067 -0.83681802,18.0969466 0.122373626,22.7137649 C0.493908617,24.4967274 0.886084442,26.2159251 1.31225693,27.8738104 C3.62281605,36.838899 4.44116436,46.1240379 3.43340605,55.3319232 C3.18814439,57.5747282 3.06187106,59.8530943 3.06187106,62.1621165 L3.06187106,92.9360001 C3.06187106,132.052039 26.2451689,165.783629 59.4526265,180.914285 L15.3030991,180.914285 L144.966383,180.914285 L126.166227,180.914285 Z" id="Fill-1" fill="#00BCBC" mask="url(#mask-4)"></path>
                                                                                </g>
                                                                                <path d="M89.940906,32.1260428 C78.2917923,32.1260428 68.3711706,39.6338817 64.6167986,50.1416531 C60.8624265,39.6338817 50.9430187,32.1260428 39.293905,32.1260428 C24.4196485,32.1260428 12.3614745,44.3647812 12.3614745,59.4605395 C12.3614745,90.5748277 15.319575,115.7989 64.6167986,115.7989 C111.176839,115.7989 116.872123,90.5748277 116.872123,59.4605395 C116.872123,44.3647812 104.813949,32.1260428 89.940906,32.1260428" id="Fill-4" fill="#FFFFFF" opacity="0.901283482"></path>
                                                                                <g id="Group-49" transform="translate(25.517602, 39.383558)">
                                                                                    <path d="M78.2667186,25.7876277 L72.2232708,25.7876277 C72.2232708,23.8039991 71.7232619,19.1905827 67.0857588,19.1905827 C62.4493128,19.1905827 61.9482468,23.8039991 61.9482468,25.7876277 L55.904799,25.7876277 C55.904799,18.4099742 60.3985364,13.4544145 67.0857588,13.4544145 C73.7740383,13.4544145 78.2667186,18.4099742 78.2667186,25.7876277" id="Fill-7" fill="#63BBBB"></path>
                                                                                    <path d="M22.3619196,25.7876277 L16.3184718,25.7876277 C16.3184718,23.8039991 15.8184629,19.1905827 11.1809598,19.1905827 C6.54451377,19.1905827 6.04344778,23.8039991 6.04344778,25.7876277 L0,25.7876277 C0,18.4099742 4.49373736,13.4544145 11.1809598,13.4544145 C17.8692393,13.4544145 22.3619196,18.4099742 22.3619196,25.7876277" id="Fill-7-Copy" fill="#00A7A7"></path>
                                                                                    <g id="Group-5" transform="translate(46.960031, 0.000000)">
                                                                                        <ellipse id="Oval-7-Copy-6" fill="#FFFFFF" cx="19.8965152" cy="24.1058259" rx="19.8965152" ry="24.1058259"></ellipse>
                                                                                        <ellipse id="Oval-7-Copy" fill="#00A7A7" cx="20.1257276" cy="21.3028229" rx="10.0628638" ry="10.0908109"></ellipse>
                                                                                    </g>
                                                                                </g>
                                                                                <path d="M70.4417001,91.92667 L76.9286505,79.600686 C77.652843,78.2254249 77.4389875,76.4955785 76.4085928,75.3788003 L66.8612405,65.0113206 C65.544085,63.5813805 63.3196637,63.5813805 62.0041283,65.0113206 L52.4551559,75.3788003 C51.4247612,76.4955785 51.2109057,78.2254249 51.9350982,79.600686 L58.4220486,91.92667 C60.9980353,96.8229306 67.8657133,96.8229306 70.4417001,91.92667" id="Fill-10" fill="#FFA32C"></path>
                                                                                <g id="Group-33" transform="translate(101.438617, 74.976041) rotate(-19.000000) translate(-101.438617, -74.976041) translate(59.561665, 10.411513)" fill-rule="nonzero">
                                                                                    <g id="Group-43" transform="translate(0.598778, 0.094825)">
                                                                                        <g id="Group-29" filter="url(#filter-5)" transform="translate(35.779071, 81.847688)">
                                                                                            <rect id="Rectangle-Copy" fill="#FFFFFF" x="2.23619196" y="0" width="7.75016908" height="44.8805558" rx="2"></rect>
                                                                                            <rect id="Rectangle" fill="#C69F5D" x="0" y="10.0908109" width="12.1788371" height="35.9044446" rx="5.5"></rect>
                                                                                        </g>
                                                                                        <g id="Oval">
                                                                                            <use fill="black" fill-opacity="1" filter="url(#filter-7)" xlink:href="#path-6"></use>
                                                                                            <use fill-opacity="0.7" fill="#F2F2F2" xlink:href="#path-6"></use>
                                                                                            <use fill="black" fill-opacity="1" filter="url(#filter-8)" xlink:href="#path-6"></use>
                                                                                            <use stroke="#FFFFFF" stroke-width="8" xlink:href="#path-6"></use>
                                                                                        </g>
                                                                                    </g>
                                                                                </g>
                                                                                <path d="M151.112873,112.679941 C159.181693,124.749027 159.78849,157.615235 151.516324,157.758104 C138.651866,157.980288 125.898959,151.540793 117.589889,139.112349 C103.937881,118.692106 107.37557,89.723081 125.154889,73.8528071 C136.691771,91.1093112 145.344432,104.051689 151.112873,112.679941 Z" id="Path" fill="#FF872F" transform="translate(133.337349, 115.808236) rotate(-111.000000) translate(-133.337349, -115.808236) "></path>
                                                                            </g>
                                                                        </g>
                                                                    </g>
                                                                </g>
                                                            </g>
                                                        </g>
                                                        <g id="bush" mask="url(#mask-2)">
                                                            <g transform="translate(-42.340206, 120.412844)">
                                                                <g id="Group-12" stroke-width="1" fill="none" transform="translate(120.154639, 56.371002)">
                                                                    <mask id="mask-10" fill="white">
                                                                        <use xlink:href="#path-9"></use>
                                                                    </mask>
                                                                    <g id="Clip-11"></g>
                                                                    <path d="M66.2833102,51.7050493 C72.6196978,44.4560679 71.8775644,33.4454734 64.6244977,27.1121066 C61.4261666,24.3175681 57.3161791,22.7875692 53.068062,22.8076512 C52.7522472,22.8076512 52.4577797,22.8848415 52.1457321,22.8986479 C52.7321556,21.1766148 53.0435754,19.3723708 53.068062,17.553693 C53.068062,7.88106292 45.222921,0.040289551 35.5456775,0.040289551 C25.8690619,0.040289551 18.023921,7.88106292 18.023921,17.553693 C18.0484076,19.3723708 18.3598274,21.1766148 18.9449951,22.8986479 C18.6335754,22.8986479 18.3397358,22.8076512 18.023921,22.8076512 C8.39376714,22.7618391 0.549254046,30.5279325 0.502164365,40.1534953 C0.482072767,44.3995873 2.01342921,48.5076153 4.80867271,51.7050493 C-1.20122638,58.5517627 -0.886039449,68.8801962 5.5307145,75.3484891 C-1.24329317,82.2560761 -1.13216152,93.3451161 5.77872015,100.115894 C9.04925551,103.319604 13.4442925,105.116317 18.023921,105.121965 L53.068062,105.121965 C62.7446776,105.111297 70.5816564,97.2611098 70.569727,87.5884798 C70.5640762,83.0110345 68.7665061,78.6174653 65.5612685,75.3484891 C71.9780224,68.8801962 72.2932093,58.5517627 66.2833102,51.7050493" id="Fill-10" fill="#005960" mask="url(#mask-10)"></path>
                                                                </g>
                                                                <g id="Group-15" stroke-width="1" fill="none" transform="translate(0.000000, 0.178341)">
                                                                    <mask id="mask-12" fill="white">
                                                                        <use xlink:href="#path-11"></use>
                                                                    </mask>
                                                                    <g id="Clip-14"></g>
                                                                </g>
                                                                <g id="Group-57" stroke-width="1" fill="none" transform="translate(24.030928, 3.618708)">
                                                                    <g id="Group-47" transform="translate(59.523190, 15.171270)">
                                                                        <mask id="mask-14" fill="white">
                                                                            <use xlink:href="#path-13"></use>
                                                                        </mask>
                                                                        <g id="Clip-46"></g>
                                                                        <path d="M0.0725662436,83.1210599 C0.0725662436,83.1210599 9.67001776,16.7319196 54.8361926,0.330871891 C98.9348442,37.1267901 64.5086593,91.5332062 64.5086593,91.5332062 L15.8475477,125.688554 L0.0725662436,83.1210599 Z" id="Fill-45" fill="#59C09C" mask="url(#mask-14)"></path>
                                                                    </g>
                                                                    <g id="Group-50" transform="translate(74.373998, 15.171270)">
                                                                        <mask id="mask-16" fill="white">
                                                                            <use xlink:href="#path-15"></use>
                                                                        </mask>
                                                                        <g id="Clip-49"></g>
                                                                        <path d="M1.28320793,36.4110418 L20.7300849,59.2423954 L38.9254271,0.739171195 C39.2787036,0.603531931 39.6287743,0.460985111 39.9852565,0.330997483 C40.1596507,0.47605614 40.3212218,0.623626636 40.4924103,0.768685294 L30.7468519,32.1026113 L56.4270393,20.6831667 C56.5430884,20.9192795 56.6520848,21.1560203 56.7655693,21.3921331 L57.0585772,22.0232324 L30.1621184,33.9833502 L13.9210172,86.2013272 L59.6424324,67.5666273 C59.4808613,68.1744921 59.3160845,68.7773333 59.1455372,69.3682433 L13.3510303,88.0324572 L1.81793133,125.110957 L0.996611573,125.68868 L0.48881669,124.318472 L20.2043377,60.9309786 L0.516386362,37.8151594 C0.768360338,37.3467016 1.02418124,36.8788717 1.28320793,36.4110418" id="Fill-48" fill="#006769" mask="url(#mask-16)"></path>
                                                                    </g>
                                                                    <g id="Group-53">
                                                                        <mask id="mask-18" fill="white">
                                                                            <use xlink:href="#path-17"></use>
                                                                        </mask>
                                                                        <g id="Clip-52"></g>
                                                                        <path d="M19.9349243,111.535871 C19.9349243,111.535871 -20.2558866,45.0299303 14.8191473,0.0215570264 C110.318567,27.2712341 82.7008082,119.188186 82.7008082,119.188186 L19.9349243,111.535871 Z" id="Fill-51" fill="#004966" mask="url(#mask-18)"></path>
                                                                    </g>
                                                                    <g id="Group-56" transform="translate(0.641155, 0.000000)" fill="#59C09C">
                                                                        <path d="M14.1776716,0.0215570264 C14.50979,0.11637892 14.8335733,0.21496857 15.1644094,0.311046382 L41.0311729,87.7745095 L72.4195647,40.0250927 C72.7580946,40.5645099 73.0882895,41.1045551 73.4127141,41.6471122 L41.6704046,89.9353183 L49.1340918,115.173641 L47.2638422,114.946319 L32.3839134,64.6335718 L32.3839134,64.6341998 L0.346031437,54.6866924 C0.281915922,54.0769437 0.223570803,53.465939 0.171637235,52.8530505 L31.8055914,62.67371 L13.5320284,0.883745499 C13.7480976,0.596767981 13.9539084,0.307278625 14.1776716,0.0215570264" id="Fill-54"></path>
                                                                    </g>
                                                                </g>
                                                                <polygon id="Fill-60" fill="#00756F" points="2.28865979 122.884763 192.247423 122.884763 192.247423 111.416873 2.28865979 111.416873"></polygon>
                                                            </g>
                                                        </g>
                                                    </g>
                                                </g>
                                            </g>
                                        </g>
                                    </g>
                                </g>
                            </g>
                            <ellipse id="Oval" fill-opacity="0.5" fill="#FFFFFF" fill-rule="nonzero" transform="translate(153.656201, 67.792754) rotate(38.000000) translate(-153.656201, -67.792754) " cx="153.656201" cy="67.792754" rx="24.1794718" ry="9.03175299"></ellipse>
                        </g>
                    </g>
                </g>
                <g id="chat" transform="translate(197.000000, 29.000000)" fill="#FFFFFF" fill-rule="nonzero">
                    <path d="M88,10.788 L88,63.07 C88,68.514 83.586,72.928 78.142,72.928 L44,73.07 L24,95.07 L24,73.07 L9.858,73.07 C4.414,73.07 0,68.656 0,63.212 L0,10.93 C0,5.486 4.414,1.072 9.858,1.072 L78.14,0.93 C83.586,0.93 88,5.344 88,10.788 Z" id="Shape"></path>
                </g>
                <g id="Oops!">
                    <use fill="#FFFFFF" xlink:href="#path-19"></use>
                    <use fill="#004966" xlink:href="#path-19"></use>
                </g>
            </g>
        </g>
    </g>
</svg>