<svg xmlns="http://www.w3.org/2000/svg" width="22" height="22" viewBox="0 0 22 22">
    <g fill="none" fill-rule="evenodd">
        <path fill="#066360" d="M0 0h22v22H0z"/>
        <g fill="#00A7A7">
            <path d="M7.48 14l.52.432L7.52 20 7 19.568zM15.52 14l.48 5.568-.52.432-.48-5.568z"/>
            <path d="M4 16c1.83 2.373 4.382 3.56 7.655 3.56 3.272 0 5.72-1.187 7.345-3.56v1.723C17.114 19.908 14.665 21 11.655 21S6.093 19.908 4 17.723V16zM1.985.994a3.604 3.604 0 0 1 4.428 2.454l2.75 9.352a1.754 1.754 0 0 1-1.21 2.184 1.802 1.802 0 0 1-2.214-1.227L1.985.994z"/>
            <path d="M18 13.5a1.5 1.5 0 0 1-1.5 1.5h-9a1.5 1.5 0 1 1 0-3h9a1.5 1.5 0 0 1 1.5 1.5zM7 9H14.967c.188.057.295.11.32.157.548 1.022.898 1.547.61 1.75-.288.201-.442.102-.806-.546a.61.61 0 0 0-.124-.127H7V9z"/>
        </g>
    </g>
</svg>
