<svg xmlns="http://www.w3.org/2000/svg" xmlns:xlink="http://www.w3.org/1999/xlink" width="119" height="120" viewBox="0 0 119 120">
    <defs>
        <ellipse id="a" cx="59.29" cy="59.528" rx="59.29" ry="59.528"/>
        <path id="c" d="M.016.037H139v138.115H.016z"/>
        <path id="e" d="M0 0h63.264v83.142H0z"/>
    </defs>
    <g fill="none" fill-rule="evenodd">
        <g transform="translate(0 .509)">
            <mask id="b" fill="#fff">
                <use xlink:href="#a"/>
            </mask>
            <use fill="#005150" xlink:href="#a"/>
            <g mask="url(#b)">
                <g transform="translate(-16 -9.509)">
                    <mask id="d" fill="#fff">
                        <use xlink:href="#c"/>
                    </mask>
                    <path fill="#31E5DB" d="M69.495 78.646l-2.397 11.91-9.586 9.528v7.147l-9.587 7.146v11.91l-7.19-2.382-4.794-11.91V88.174l-11.984-2.382-4.793-9.529v-7.146l11.984-11.91 4.793 9.528h16.777l7.19 11.91h9.587M130.132 35.363a68.661 68.661 0 0 1-3.835 73.535l-6.47-6.431v-9.529l-9.588-19.057v-9.528l-7.19-4.764-9.587 2.382-16.777-7.146-2.397-16.675 7.19-7.146H95.86l4.793 7.146 14.38 2.382 14.381-4.764.719-.405" mask="url(#d)"/>
                    <path fill="#0082C5" d="M83.875 23.857l9.587-2.382 7.19 2.382 11.984 2.382 7.19-4.764a68.056 68.056 0 0 1 10.306 13.888l-.719.405-14.38 4.764-14.38-2.382-4.794-7.146h-14.38l-7.19 7.146 2.396 16.675 16.777 7.146 9.587-2.382 7.19 4.764v9.528l9.587 19.057v9.529l6.471 6.431c-22.133 31.172-65.502 38.607-96.863 16.608C2.8 106.821-7.193 72.25 5.407 42.366l4.17 12.459 14.38 9.528-4.793 4.764v7.146l4.793 9.529 11.984 2.382v23.82l4.794 11.911 7.19 2.383v-11.91l9.587-7.147v-7.147l9.586-9.528 2.397-11.91h-9.587l-7.19-11.91H35.94l-4.793-9.53-7.19 7.147v-9.528l-4.794-4.765v-7.146l16.777-2.382 11.984-7.146 7.19-11.91 7.19-2.383 2.397-7.146-14.38-2.382-6.807-4.526a69.898 69.898 0 0 1 56.946 2.239l-9.395 4.669h-9.587l-4.794 9.528 7.19 2.382" mask="url(#d)"/>
                    <path fill="#31E5DB" d="M119.453 21.203l-7.119 4.7-11.865-2.35-7.118-2.35-9.492 2.35-7.12-2.35 4.747-9.401h9.492l9.302-4.607a67.932 67.932 0 0 1 19.173 14.008M65.156 11.992l-2.4 7.196-7.198 2.398L48.36 33.58l-11.998 7.195-16.797 2.399v7.195l4.8 4.797v9.594L9.966 55.165 5.792 42.621A69.53 69.53 0 0 1 43.944 5.037l6.815 4.557 14.397 2.398" mask="url(#d)"/>
                </g>
            </g>
            <g mask="url(#b)">
                <path fill="#008181" d="M32.235 89.094l78.684 78.684c-22.258 20.997-56.965 20.959-78.304-.38s-21.377-56.046-.38-78.304z"/>
                <path fill="#FF9445" d="M54 103.834l52.672-8.343c1.872 14.445-7.938 27.819-22.232 30.083-14.294 2.264-27.756-7.424-30.44-21.74z"/>
                <g transform="translate(30.763 51)">
                    <mask id="f" fill="#fff">
                        <use xlink:href="#e"/>
                    </mask>
                    <path fill="#00BCBC" d="M55.06 78.715V27.046c0-.998-.055-1.984-.16-2.954-.438-4.007-.083-8.048.927-11.948.187-.726.36-1.48.523-2.26.419-2.01-1.707-3.568-3.47-2.538-.79.463-1.613.91-2.435 1.31a2.681 2.681 0 0 1-3.099-.55C42.47 3.106 35.69 0 28.2 0c-7.491 0-14.27 3.107-19.147 8.103a2.681 2.681 0 0 1-3.1.55c-.82-.398-1.64-.845-2.429-1.307-1.763-1.03-3.888.528-3.47 2.537.163.775.334 1.523.52 2.245 1.008 3.9 1.365 7.94.925 11.947a27.246 27.246 0 0 0-.162 2.971v13.39c0 17.019 10.118 31.695 24.61 38.279H6.678h56.586-8.204z" mask="url(#f)"/>
                </g>
                <path fill="#FFF" d="M70.013 64.283c-5.083 0-9.413 3.267-11.051 7.839-1.639-4.572-5.968-7.839-11.051-7.839-6.492 0-11.754 5.325-11.754 11.893 0 13.538 1.291 24.513 22.805 24.513 20.319 0 22.804-10.975 22.804-24.513 0-6.568-5.262-11.893-11.753-11.893" opacity=".901"/>
            </g>
        </g>
        <path fill="#FF9445" d="M61.058 92.376l2.76-5.45c.309-.609.218-1.373-.22-1.867l-4.064-4.585a1.363 1.363 0 0 0-2.067 0l-4.064 4.585c-.439.494-.53 1.258-.221 1.867l2.76 5.45c1.097 2.165 4.02 2.165 5.116 0"/>
        <g fill="#007F7E">
            <path d="M74.956 78.775H72.48c0-.768-.204-2.554-2.104-2.554-1.9 0-2.105 1.786-2.105 2.554h-2.476c0-2.856 1.84-4.775 4.58-4.775s4.581 1.919 4.581 4.775M52.162 78.775h-2.476c0-.768-.205-2.554-2.105-2.554s-2.105 1.786-2.105 2.554H43C43 75.919 44.841 74 47.58 74c2.741 0 4.582 1.919 4.582 4.775"/>
        </g>
    </g>
</svg>
