<svg xmlns="http://www.w3.org/2000/svg" xmlns:xlink="http://www.w3.org/1999/xlink" width="170" height="155" viewBox="0 0 170 155">
    <defs>
        <path id="001i5ain4a" d="M81.106 142.083c44.624 0 81.784-17.54 81.784-61.851C162.89 35.922 126.715 0 82.09 0 37.467 0 1.293 35.921 1.293 80.232s35.19 61.851 79.813 61.851z"/>
        <path id="se3bf0jtjc" d="M0.166 0.341L3.717 0.341 3.717 2.719 0.166 2.719z"/>
        <path id="2ntkyw4i1g" d="M0 0L16.089 0 16.089 21.465 0 21.465z"/>
        <path id="9fjfcq528i" d="M81.106 142.083c44.624 0 81.784-17.54 81.784-61.851C162.89 35.922 126.715 0 82.09 0 37.467 0 1.293 35.921 1.293 80.232s35.19 61.851 79.813 61.851z"/>
        <path id="vex0og0f2k" d="M0.126 0.261L2.827 0.261 2.827 2.082 0.126 2.082z"/>
        <path id="it93gjs2em" d="M0 22.903L22.366 22.903 22.366 0.271 0 0.271z"/>
        <ellipse id="gan7uq239e" cx="11.349" cy="11.558" rx="11.349" ry="11.558"/>
    </defs>
    <g fill="none" fill-rule="evenodd">
        <g>
            <g transform="translate(-103 -149) translate(103 149)">
                <mask id="77csfoa5fb" fill="#fff">
                    <use xlink:href="#001i5ain4a"/>
                </mask>
                <use fill="#00BCBC" xlink:href="#001i5ain4a"/>
                <path fill="#FFF" fill-rule="nonzero" d="M28.817 52.313v-.582h-1.83v-3.327h-.708v3.908h2.538zm1.673.043c.279 0 .524-.058.737-.175.212-.117.376-.285.491-.503.116-.217.173-.473.173-.765 0-.293-.057-.548-.173-.766-.115-.218-.279-.385-.491-.502-.213-.118-.458-.176-.737-.176-.282 0-.53.058-.744.176-.214.117-.38.284-.495.502-.115.218-.173.473-.173.766 0 .292.058.548.173.765.116.218.28.386.495.503.214.117.462.175.744.175zm-.005-.538c-.23 0-.408-.076-.53-.227-.123-.152-.184-.378-.184-.678 0-.297.062-.523.186-.678.125-.156.303-.234.533-.234.228 0 .403.078.528.234.124.155.187.381.187.678 0 .3-.062.526-.184.678-.123.151-.302.227-.536.227zm3.217 1.724c.462 0 .812-.111 1.05-.335.238-.223.357-.55.357-.982V49.54h-.681v.417c-.085-.153-.207-.273-.366-.36-.16-.085-.341-.128-.547-.128-.241 0-.456.058-.645.173-.189.115-.335.278-.44.488-.104.21-.156.451-.156.722 0 .271.052.512.156.722.105.21.251.373.44.489.189.115.404.173.645.173.202 0 .383-.047.544-.14.162-.094.284-.215.369-.365v.549c0 .49-.248.735-.742.735-.334 0-.669-.088-1.006-.263l-.11.521c.326.18.704.27 1.132.27zm-.005-1.844c-.227 0-.406-.075-.536-.225-.13-.15-.195-.357-.195-.62 0-.264.065-.471.195-.621.13-.15.309-.225.536-.225.23 0 .41.075.538.225.128.15.193.357.193.62 0 .264-.065.47-.196.62-.13.15-.308.226-.535.226zm4.303.614v-3.908h-.709v3.908H38zm1.42 0v-1.57c0-.22.065-.396.193-.53.128-.133.296-.2.505-.2.176 0 .306.05.39.151.085.101.127.261.127.48v1.67h.687V50.61c0-.761-.332-1.142-.995-1.142-.205 0-.39.046-.552.137-.163.092-.292.222-.387.39l-.05-.456h-.643c.03.23.044.492.044.785v1.987h.681zm5.188.039c.172 0 .319-.022.44-.066v-.543c-.1.029-.19.044-.275.044-.304 0-.456-.163-.456-.49v-1.24h.736v-.516h-.736v-.906l-.687.231v.675h-.533v.516h.533v1.274c0 .33.084.582.253.757.168.176.41.264.725.264zm2.119.005c.278 0 .523-.058.736-.175.212-.117.376-.285.491-.503.116-.217.174-.473.174-.765 0-.293-.058-.548-.174-.766-.115-.218-.279-.385-.491-.502-.213-.118-.458-.176-.736-.176-.283 0-.53.058-.745.176-.214.117-.38.284-.494.502-.116.218-.174.473-.174.766 0 .292.058.548.174.765.115.218.28.386.494.503.214.117.462.175.745.175zm-.006-.538c-.23 0-.407-.076-.53-.227-.123-.152-.184-.378-.184-.678 0-.297.062-.523.187-.678.124-.156.302-.234.533-.234.227 0 .402.078.527.234.125.155.187.381.187.678 0 .3-.062.526-.184.678-.123.151-.302.227-.536.227zm4.078.495v-2.4l1.044 2.4h.467l1.038-2.427v2.426h.626v-3.908h-.56l-1.335 3.058-1.346-3.058h-.56v3.908h.626zm5.184.043c.278 0 .524-.058.736-.175.213-.117.377-.285.492-.503.115-.217.173-.473.173-.765 0-.293-.058-.548-.173-.766-.115-.218-.28-.385-.492-.502-.212-.118-.458-.176-.736-.176-.282 0-.53.058-.744.176-.215.117-.38.284-.495.502-.115.218-.173.473-.173.766 0 .292.058.548.173.765.115.218.28.386.495.503.214.117.462.175.744.175zm-.005-.538c-.231 0-.408-.076-.53-.227-.123-.152-.185-.378-.185-.678 0-.297.063-.523.187-.678.125-.156.302-.234.533-.234.227 0 .403.078.527.234.125.155.187.381.187.678 0 .3-.061.526-.184.678-.122.151-.301.227-.535.227zm2.624.495v-1.57c0-.22.064-.397.192-.53.128-.134.297-.2.505-.2.176 0 .306.05.39.15.085.101.127.261.127.48v1.67h.687V50.61c0-.761-.332-1.142-.995-1.142-.205 0-.39.046-.552.137-.163.092-.292.222-.387.39l-.05-.456h-.643c.03.23.044.492.044.785v1.987h.682zm3.882.043c.197 0 .393-.032.585-.096.192-.064.354-.149.486-.255l-.198-.472c-.26.198-.542.296-.846.296-.264 0-.462-.07-.596-.21-.134-.142-.208-.36-.222-.657h1.912v-.104c0-.432-.111-.772-.333-1.019-.221-.247-.523-.37-.904-.37-.26 0-.492.061-.697.184-.206.122-.365.293-.478.513-.114.22-.17.47-.17.752 0 .447.13.798.39 1.054s.617.384 1.07.384zm.522-1.762h-1.292c.033-.205.108-.361.223-.47.115-.107.265-.161.448-.161s.327.053.431.16c.104.105.168.263.19.471zm1.008 2.97c.334-.051.614-.155.84-.313.228-.157.415-.408.561-.752l1.292-2.959h-.682l-.813 1.993-.797-1.993h-.72l1.154 2.674-.087.203c-.081.175-.186.308-.316.398-.13.09-.325.164-.586.222l.154.527zm4.778-1.202c.381 0 .71-.082.989-.244.278-.163.493-.396.643-.698.15-.301.225-.657.225-1.067 0-.407-.074-.76-.222-1.063-.149-.301-.363-.533-.643-.694-.28-.161-.611-.241-.992-.241-.38 0-.711.08-.992.241-.28.161-.495.393-.645.694-.15.302-.225.656-.225 1.063 0 .41.076.766.228 1.067.152.302.368.535.648.698.28.162.609.244.986.244zm0-.566c-.363 0-.645-.124-.846-.373-.202-.249-.302-.605-.302-1.07 0-.465.1-.82.302-1.065.201-.245.483-.368.846-.368s.645.123.846.37c.202.248.302.602.302 1.063 0 .465-.1.821-.302 1.07-.201.249-.483.373-.846.373zm3.85.517l.67-1.818.686 1.818h.6l1.087-2.773h-.67l-.714 1.971-.72-1.97h-.495l-.72 1.954-.714-1.955h-.703l1.088 2.773h.604zm4.101 0v-4.04h-.681v4.04h.681z" mask="url(#77csfoa5fb)"/>
                <g mask="url(#77csfoa5fb)">
                    <g>
                        <path fill="#FFF" d="M7 45.208h29.954c3.866 0 7-3.134 7-7V7c0-3.866-3.134-7-7-7H7C3.134 0 0 3.134 0 7v31.208c0 3.866 3.134 7 7 7z" opacity=".771" transform="translate(99.544 54.896)"/>
                        <g>
                            <path fill="#000" d="M0 8.553h7.936V.61H0v7.942zm1.145-1.135h5.652V1.755H1.145v5.663zM21.367 8.553h7.936V.61h-7.936v7.942zm1.131-1.135h5.673V1.75h-5.673v5.668zM0 29.935h7.936v-7.942H0v7.942zM1.155 28.8h5.648v-5.693H1.155V28.8z" transform="translate(99.544 54.896) translate(6.715 7.331)"/>
                            <g>
                                <path fill="#000" d="M25.882 22.825l-.05-1.15h2.373v-2.396H27.05v-1.207h-1.19v-1.199h1.173v-2.319h2.372v1.172h-1.16v1.14h1.16v5.95h-3.53l.007.009M3.52 18.072L3.52 16.892 1.187 16.892 1.187 20.44.006 20.44.006 14.539 2.329 14.539 2.319 14.529 2.319 15.708 3.519 15.708 3.519 14.529 3.511 14.538 5.869 14.538 5.869 16.876 4.702 16.876 4.702 18.072 4.711 18.063 3.511 18.063zM2.33 12.131l-1.119.024.007.005-.062-1.157H.003v-1.18H5.88v1.181h1.155l-.01-.01v1.147h2.392l-.009-.008v1.18H4.686v-1.18H3.51l.01.008v-1.12H2.318v1.12l.01-.01zM12.934 7.409V6.275h4.707v-2.41l-.01.008h1.2V2.667l-.006.009h1.166V6.25h-1.168v1.158l.008-.008h-1.209v1.206h-1.18v-1.18h-1.124v1.181l-1.202-.009.009.008V7.4h-1.2l.01.009zM9.29 28.751v-1.193h3.574v-1.214l-.01.01h1.14v-1.207l-.006.008h1.2l-.01-.008v1.207h1.2l-.009-.009.01 2.406-1.2-.001v-1.18h-1.183v1.18h-1.151v1.13h-1.182l.008.008v-1.146H9.279l.01.01zM10.222 19.211L10.222 20.393 6.715 20.393 6.715 14.488 7.907 14.488 7.897 14.479 7.897 18.022 9.037 18.022 9.029 18.013 9.029 19.22 10.229 19.22z" transform="translate(99.544 54.896) translate(6.715 7.331)"/>
                                <path fill="#000" d="M15.332 1.515L16.42 1.515 16.42.359 19.986.359 19.986 1.528 18.825 1.528 18.825 2.676 18.832 2.667 17.632 2.667 17.632 3.873 17.641 3.865 16.438 3.865 16.438 2.689 15.332 2.689 15.34 2.695 15.34 1.509zM10.611 8.597L9.416 8.597 9.416 6.272 10.577 6.272 10.577 5.077 9.419 5.077 9.419 3.893 12.897 3.893 12.897 5.064 11.735 5.064 11.735 7.408 11.741 7.4 10.601 7.4 10.601 8.606z" transform="translate(99.544 54.896) translate(6.715 7.331)"/>
                                <g transform="translate(99.544 54.896) translate(6.715 7.331) translate(25.688 27.188)">
                                    <mask id="1gvr34yq7d" fill="#fff">
                                        <use xlink:href="#se3bf0jtjc"/>
                                    </mask>
                                    <path fill="#000" d="M2.549 0.342L2.549 1.539 3.717 1.539 3.717 2.719 0.176 2.719 0.176 1.538 0.166 1.548 1.366 1.548 1.366 0.341 1.357 0.35 2.558 0.35z" mask="url(#1gvr34yq7d)"/>
                                </g>
                                <path fill="#000" d="M24.743 11.015c-.01.575-.02 1.15-.028 1.726-.003.187 0 .374 0 .577h-1.182v-1.171h-1.18l.01.01V9.82h1.147v1.204h1.24l-.007-.008zM27.055 26.4L27.055 25.219 29.403 25.219 29.403 27.53 28.237 27.53 28.245 27.538 28.245 26.391 27.045 26.391zM15.332 2.69c-.01.535-.023 1.07-.03 1.606-.005.246-.002 2.597-.002 2.86h-1.169V2.693h1.208l-.007-.005M18.818 19.228c-.01.536-.023 1.071-.032 1.608-.004.246 0 2.596 0 2.859h-1.17v-4.462h1.208l-.006-.005M18.823 7.408h1.193v2.397l.007-.009-1.2.008.009-2.405-.009.009zM2.33 14.539V12.13l-.011.01h1.2l-.009-.008v2.404l.01-.008H2.318l.01.01zM11.733 2.646L12.898 2.646 12.898.359 11.733.359zM28.265 10.975L27.061 10.975 27.061 9.82 28.258 9.82 28.258 10.982zM15.34 1.51h-1.207V.354h1.198v1.16l.008-.006M4.704 19.262L4.704 20.442 3.52 20.442 3.52 19.261 3.511 19.27 4.711 19.27zM25.87 13.316L27.014 13.316 27.014 12.146 25.87 12.146zM1.211 12.155l-.051 1.164H.01v-1.16l1.208.001-.007-.005" transform="translate(99.544 54.896) translate(6.715 7.331)"/>
                                <path fill="#000" d="M3.52 19.261L2.328 19.261 2.328 18.072 3.52 18.072 3.511 18.063 3.511 19.271zM24.75 11.023V9.82h1.08v1.193h-1.088l.008.009M25.864 27.54V26.4h1.191l-.01-.009v1.147l.01-.009h-1.201l.01.01zM9.421 2.657L10.573 2.657 10.573 1.549 9.421 1.549zM23.23 21.739v-1.21l-.01.01 1.141-.009.011 1.187.008-.008-1.16.02.01.01zM28.258 10.982H29.4v1.139h-1.135v-1.146l-.007.007M21.131 28.421L18.761 28.421 18.761 27.241 24.619 27.241 24.619 28.407 22.323 28.407 22.323 29.538 21.131 29.538z" transform="translate(99.544 54.896) translate(6.715 7.331)"/>
                                <path fill="#000" d="M23.45 29.833L24.65 29.833 24.65 23.682 23.45 23.682zM11.667 23.436L9.297 23.436 9.297 22.256 15.156 22.256 15.156 23.423 12.859 23.423 12.859 24.553 11.667 24.553zM13.019 16.186L10.649 16.186 10.649 15.006 16.508 15.006 16.508 16.172 14.211 16.172 14.211 17.303 13.019 17.303z" transform="translate(99.544 54.896) translate(6.715 7.331)"/>
                                <path fill="#000" d="M13.986 24.849L15.186 24.849 15.186 18.698 13.986 18.698zM21.447 26.681L22.647 26.681 22.647 25.502 21.447 25.502zM17.616 25.549L18.816 25.549 18.816 24.369 17.616 24.369zM19.975 10.942L21.175 10.942 21.175 9.796 19.975 9.796zM24.372 21.717h1.143v1.199h-1.136v-1.207l-.007.008M9.279 27.014L10.419 27.014 10.419 25.807 9.279 25.807zM24.351 20.539L25.518 20.539 25.518 19.392 24.351 19.392zM17.632 11.003L18.832 11.003 18.832 9.796 17.632 9.796zM15.308 8.598h1.14v1.18h-1.14v-1.18zM27.021 24.605L28.166 24.605 28.166 23.494 27.021 23.494zM15.378 13.24h1.2v1.207h-1.2V13.24zM20.786 23.145h1.2v1.206h-1.2v-1.206zM10.704 20.393L11.905 20.393 11.905 19.186 10.704 19.186zM5.862 6.24H2.35V2.731c.033-.01.07-.03.106-.03 1.062-.003 2.123-.007 3.185.003.073 0 .21.102.21.157.013 1.116.01 2.232.01 3.379M23.547 6.236L27.028 6.236 27.028 2.717 23.547 2.717zM2.351 27.521L5.846 27.521 5.846 24.018 2.351 24.018zM11.898 11.683c-.01.576-.02 1.151-.028 1.727-.003.187 0 .373 0 .576h-1.182v-1.17h-1.18l.01.01v-2.338h1.146v1.203h1.24l-.006-.008zM13.025 13.985L14.169 13.985 14.169 12.815 13.025 12.815z" transform="translate(99.544 54.896) translate(6.715 7.331)"/>
                                <path fill="#000" d="M11.905 11.691V10.49h1.08v1.193h-1.088l.008.01M15.42 11.643L14.216 11.643 14.216 10.489 15.413 10.489 15.413 11.651z" transform="translate(99.544 54.896) translate(6.715 7.331)"/>
                                <path fill="#000" d="M15.413 11.65h1.142v1.14H15.42v-1.147l-.006.008M17.125 28.032L18.269 28.032 18.269 26.862 17.125 26.862zM18.827 12.712L18.827 11.531 21.175 11.531 21.175 13.842 20.009 13.842 20.017 13.85 20.017 12.703 18.817 12.703zM23.04 14.514h3.33v1.139h-3.312l.001-1.146-.02.007" transform="translate(99.544 54.896) translate(6.715 7.331)"/>
                                <path fill="#000" d="M17.17 20.352V19.22h4.706v-2.41l-.009.008h1.2v-1.206l-.007.008h1.166v3.576H23.06v1.156l.008-.008h-1.21v1.207h-1.18v-1.18h-1.124v1.181l-1.202-.01.01.01v-1.208h-1.2l.009.01zM20.84 23.145c-.011.536-.023 1.07-.031 1.607-.004.246-.001 2.597-.001 2.86h-1.17V23.15h1.208l-.007-.005" transform="translate(99.544 54.896) translate(6.715 7.331)"/>
                                <path fill="#000" d="M21.168 16.215l-.029 1.726c-.002.187 0 .374 0 .577h-1.18v-1.172h-1.18l.009.011V15.02h1.146v1.203h1.24l-.006-.007zM9.305 17.807L10.449 17.807 10.449 16.636 9.305 16.636zM28.233 14.181L29.377 14.181 29.377 13.011 28.233 13.011zM15.279 18.058L16.423 18.058 16.423 16.887 15.279 16.887zM17.631 11.508h1.193v2.397l.007-.008-1.2.008.009-2.405-.009.008zM14.82 23.437L14.82 22.257 17.167 22.257 17.167 24.567 16.002 24.567 16.01 24.575 16.01 23.428 14.81 23.428z" transform="translate(99.544 54.896) translate(6.715 7.331)"/>
                            </g>
                        </g>
                    </g>
                </g>
                <g mask="url(#77csfoa5fb)">
                    <g>
                        <g>
                            <g>
                                <g>
                                    <g transform="translate(26.39 56.59) translate(7.11) translate(.368 .016) translate(0 .099)">
                                        <mask id="wca36m1dtf" fill="#fff">
                                            <use xlink:href="#gan7uq239e"/>
                                        </mask>
                                        <use fill="#005960" xlink:href="#gan7uq239e"/>
                                        <g mask="url(#wca36m1dtf)">
                                            <g>
                                                <path fill="#008181" d="M29.373 17.908c-.227 7.896-6.475 14.225-14.149 14.225-7.674 0-13.922-6.329-14.15-14.225z" transform="translate(-5.434 5.842) rotate(45 15.224 25.02)"/>
                                                <g>
                                                    <path fill="#FF9445" d="M20.326 11.304c-.098 3.524-2.907 6.35-6.358 6.35-3.513 0-6.36-2.928-6.36-6.54l.002.19z" transform="translate(-5.434 5.842) translate(9.799) rotate(-30 13.968 14.479)"/>
                                                    <g>
                                                        <g transform="translate(-5.434 5.842) translate(9.799)">
                                                            <mask id="djtc65tsih" fill="#fff">
                                                                <use xlink:href="#2ntkyw4i1g"/>
                                                            </mask>
                                                            <path fill="#00BCBC" d="M14.002 20.321V6.982c0-.257-.014-.512-.04-.762-.112-1.035-.022-2.078.235-3.085.048-.187.092-.382.133-.584.107-.518-.434-.92-.882-.654-.201.119-.41.235-.62.338-.265.13-.58.073-.788-.142C10.8.803 9.076 0 7.171 0 5.266 0 3.542.802 2.302 2.092c-.207.215-.522.273-.788.142-.209-.103-.417-.218-.618-.337-.448-.266-.989.136-.882.654.04.2.084.394.132.58.256 1.007.347 2.05.235 3.084-.027.252-.041.508-.041.767v3.457c0 4.394 2.573 8.183 6.258 9.882h-4.9 14.39-2.086z" mask="url(#djtc65tsih)"/>
                                                        </g>
                                                        <path fill="#FFF" d="M9.982 3.43c-1.293 0-2.394.843-2.81 2.023-.417-1.18-1.518-2.024-2.811-2.024-1.65 0-2.99 1.375-2.99 3.07 0 3.496.33 6.329 5.8 6.329 5.168 0 5.8-2.833 5.8-6.328 0-1.696-1.339-3.07-2.99-3.07" opacity=".901" transform="translate(-5.434 5.842) translate(9.799)"/>
                                                    </g>
                                                </g>
                                            </g>
                                        </g>
                                    </g>
                                    <path fill="#FF9445" d="M12.183 16.088l.72-1.385c.08-.154.056-.349-.058-.474l-1.06-1.165c-.146-.16-.393-.16-.539 0l-1.06 1.165c-.114.125-.137.32-.057.474l.72 1.385c.286.55 1.048.55 1.334 0" transform="translate(26.39 56.59) translate(7.11) translate(.368 .016)"/>
                                </g>
                                <g fill="#007F7E">
                                    <path d="M7.712 1.271h-.597c0-.204-.05-.68-.508-.68-.459 0-.508.476-.508.68H5.5C5.501.511 5.945 0 6.607 0c.661 0 1.105.51 1.105 1.271M2.211 1.271h-.598c0-.204-.049-.68-.507-.68-.459 0-.508.476-.508.68H0C0 .511.444 0 1.106 0c.66 0 1.105.51 1.105 1.271" transform="translate(26.39 56.59) translate(7.11) translate(.368 .016) translate(7.741 11.61)"/>
                                </g>
                            </g>
                        </g>
                        <g transform="translate(26.39 56.59) translate(0 26.108)">
                            <rect width="37.49" height="7.968" y="16.792" fill="#00C9C3" rx="2"/>
                            <rect width="37.49" height="6.458" y="7.75" fill="#EFEFEF" rx="2"/>
                            <rect width="37.49" height="6.458" fill="#EFEFEF" rx="2"/>
                        </g>
                    </g>
                </g>
                <mask id="fy6cr5j5lj" fill="#fff">
                    <use xlink:href="#9fjfcq528i"/>
                </mask>
                <g mask="url(#fy6cr5j5lj)">
                    <g>
                        <path fill="#FAB08A" d="M46.692 91.342c1.475-1.196 2.572-1.794 3.292-1.794 1.079 0 1.78.317 2.308 1.16.352.562.28 1.442-.215 2.638l-5.385-2.004z" transform="translate(36.844 22.25)"/>
                        <path fill="#F0A57E" d="M46.692 91.342c.613-.476 1.052-.802 1.318-.977 1.204.429 3.226 1.168 4.437 1.812-.045.233-.169.622-.37 1.17l-5.385-2.005z" transform="translate(36.844 22.25)"/>
                        <path fill="#FEC3A4" d="M66.255 93.677c-3.232 5.167-9.373 5.49-14.544 8.719-5.171 3.229-11.312 8.073-13.897 13.24-1.724 3.444-3.448 7.427-5.171 11.947H0l16.483-31.645c5.817-3.445 9.05-5.275 9.696-5.49.97-.323 43.308-1.938 40.076 3.23z" transform="translate(36.844 22.25)"/>
                        <path fill="#F0A57E" d="M52.68 101.75c-6.032 1.722-9.695 2.799-10.988 3.23-1.293.43-4.525.968-9.696 1.614l-10.019 20.99h10.666c3.662-9.042 6.463-14.532 8.403-16.47 1.939-1.937 5.817-5.058 11.635-9.364z" transform="translate(36.844 22.25)"/>
                        <path fill="#F0A57E" d="M30.847 94.04l-1.113 2.865c.969.465 3.836.17 8.6-.885 7.147-1.582 24.165 1.982 21.442-1.977-1.816-2.639-11.459-2.64-28.93-.003z" transform="translate(36.844 22.25) rotate(-7 44.901 94.59)"/>
                        <g>
                            <g transform="translate(36.844 22.25) translate(18.038) rotate(-3 66.874 -.534)">
                                <path fill="#005960" d="M12.403.216l33.965 1.743c4.33.222 7.655 3.84 7.428 8.079l-4.053 75.739c-.227 4.24-3.92 7.496-8.25 7.274L7.529 91.308c-4.329-.222-7.654-3.84-7.427-8.079L4.154 7.49C4.38 3.25 8.074-.005 12.403.217z"/>
                                <path fill="#FFF" d="M12.616 3.275L46.06 4.99c3.175.163 5.613 2.816 5.447 5.925l-3.944 73.692c-.166 3.109-2.874 5.497-6.049 5.334L8.07 88.226c-3.174-.163-5.613-2.816-5.447-5.925L6.567 8.61c.166-3.109 2.875-5.497 6.05-5.334z"/>
                                <ellipse cx="21.803" cy="7.852" fill="#D7DDDC" rx="1.308" ry="1.281" transform="rotate(3 21.803 7.852)"/>
                                <path fill="#D7DDDC" d="M24.98 7.245l8.883.456c.432.022.765.384.742.808-.022.424-.392.75-.825.727l-8.883-.456c-.433-.022-.765-.384-.743-.808.023-.424.392-.75.825-.727z"/>
                            </g>
                        </g>
                        <path fill="#D0C4CA" d="M27.052 15.635h40.723v66.041c0 2.762-2.239 5-5 5H32.052c-2.761 0-5-2.238-5-5V15.635z" transform="translate(36.844 22.25)"/>
                        <g>
                            <g fill="#FF7900" fill-rule="nonzero">
                                <path d="M8.403-.646c.332 0 .605.25.642.57L9.05 0v8.396c0 .357-.289.646-.646.646-.331 0-.605-.25-.642-.57l-.004-.076V.646H0c-.331 0-.605-.25-.642-.57L-.646 0c0-.331.25-.604.57-.641L0-.646h8.403z" transform="translate(36.844 22.25) translate(31.027 35.875) matrix(-1 0 0 1 8.403 0)"/>
                                <path d="M8.403 22.604c.332 0 .605.25.642.57l.004.076v8.396c0 .357-.289.646-.646.646-.331 0-.605-.25-.642-.57l-.004-.076v-7.75H0c-.331 0-.605-.25-.642-.57l-.004-.076c0-.331.25-.604.57-.641L0 22.604h8.403z" transform="translate(36.844 22.25) translate(31.027 35.875) rotate(180 4.202 27.448)"/>
                                <path d="M32.966-.646c.331 0 .604.25.642.57l.004.076v8.396c0 .357-.29.646-.646.646-.332 0-.605-.25-.642-.57l-.005-.076V.646h-7.756c-.332 0-.605-.25-.642-.57L23.916 0c0-.331.25-.604.571-.641l.076-.005h8.403z" transform="translate(36.844 22.25) translate(31.027 35.875)"/>
                                <path d="M32.966 22.604c.331 0 .604.25.642.57l.004.076v8.396c0 .357-.29.646-.646.646-.332 0-.605-.25-.642-.57l-.005-.076v-7.75h-7.756c-.332 0-.605-.25-.642-.57l-.005-.076c0-.331.25-.604.571-.641l.076-.005h8.403z" transform="translate(36.844 22.25) translate(31.027 35.875) matrix(1 0 0 -1 0 54.896)"/>
                            </g>
                            <g>
                                <path fill="#000" d="M.007 6.656h6.226V.347H.007v6.309zm.898-.902H5.34V1.256H.905v4.498zM16.13 6.655h6.221V.348H16.13v6.307zm.887-.901h4.447V1.252h-4.447v4.502zM0 22.965h6.231v-6.288H0v6.288zm.907-.9h4.435v-4.507H.907v4.508z" transform="translate(36.844 22.25) translate(31.027 35.875) translate(5.171 3.875)"/>
                                <g transform="translate(36.844 22.25) translate(31.027 35.875) translate(5.171 3.875) translate(0 .076)">
                                    <path fill="#000" d="M19.686 17.48l-.038-.882h1.805v-1.834h-.878v-.925h-.905v-.917h.892v-1.776h1.804v.897h-.883v.873h.883v4.556H19.68l.005.007M2.678 13.84L2.678 12.936.903 12.936.903 15.653.005 15.653.005 11.134 1.772 11.134 1.764 11.126 1.764 12.03 2.677 12.03 2.677 11.126 2.67 11.133 4.464 11.133 4.464 12.924 3.577 12.924 3.577 13.84 3.583 13.833 2.67 13.833zM1.772 9.29l-.85.018.005.004-.048-.886H.002v-.904h4.47v.905h.88l-.008-.007v.878h1.82l-.007-.007v.904H3.564v-.904H2.67l.007.007v-.859h-.913v.859l.008-.008zM9.838 5.674v-.868h3.58V2.96l-.007.006h.913v-.924l-.006.007h.888v2.738h-.889v.886l.007-.006h-.92v.924h-.898v-.904h-.855v.905l-.914-.007.007.006v-.924H9.83l.007.007zM7.066 22.018v-.914h2.719v-.93l-.008.008h.867v-.924l-.005.006h.913l-.008-.006v.924h.913l-.006-.007.007 1.843-.912-.001v-.904h-.9v.905H9.77v.864h-.9l.007.007v-.878h-1.82l.009.007zM7.775 14.712L7.775 15.617 5.108 15.617 5.108 11.095 6.014 11.095 6.007 11.088 6.007 13.801 6.874 13.801 6.868 13.795 6.868 14.719 7.78 14.719z"/>
                                    <path fill="#000" d="M11.662 1.16L12.49 1.16 12.49.275 15.202.275 15.202 1.17 14.318 1.17 14.318 2.049 14.324 2.042 13.411 2.042 13.411 2.966 13.418 2.96 12.503 2.96 12.503 2.059 11.662 2.059 11.668 2.064 11.668 1.156zM8.071 6.584L7.162 6.584 7.162 4.803 8.045 4.803 8.045 3.888 7.164 3.888 7.164 2.981 9.81 2.981 9.81 3.878 8.926 3.878 8.926 5.673 8.931 5.667 8.063 5.667 8.063 6.591z"/>
                                    <g transform="translate(19.539 20.82)">
                                        <mask id="usf9pfkgil" fill="#fff">
                                            <use xlink:href="#vex0og0f2k"/>
                                        </mask>
                                        <path fill="#000" d="M1.939 0.262L1.939 1.179 2.827 1.179 2.827 2.082 0.134 2.082 0.134 1.178 0.126 1.185 1.039 1.185 1.039 0.261 1.032 0.268 1.946 0.268z" mask="url(#usf9pfkgil)"/>
                                    </g>
                                    <path fill="#000" d="M18.82 8.435L18.8 9.757c-.003.143 0 .286 0 .442H17.9v-.897h-.897l.007.008V7.52h.872v.921h.944l-.006-.006zM20.579 20.217L20.579 19.313 22.364 19.313 22.364 21.083 21.478 21.083 21.484 21.089 21.484 20.211 20.571 20.211zM11.662 2.06c-.008.41-.017.82-.023 1.23-.004.189-.001 1.989-.001 2.19h-.89V2.063h.919l-.005-.004M14.313 14.725c-.008.41-.017.82-.024 1.231-.003.189 0 1.989 0 2.19h-.89v-3.417h.92l-.006-.004M14.317 5.673h.908v1.836l.005-.007-.913.006.007-1.841-.007.006zM1.772 11.134V9.29l-.008.008h.913L2.67 9.29v1.842l.007-.007h-.913l.008.008z"/>
                                    <mask id="x7zbjf4otn" fill="#fff">
                                        <use xlink:href="#it93gjs2em"/>
                                    </mask>
                                    <path fill="#000" d="M8.924 2.027L9.81 2.027 9.81.275 8.924.275zM21.499 8.404L20.584 8.404 20.584 7.521 21.494 7.521 21.494 8.41zM11.668 1.156h-.918V.272h.911v.888l.007-.004M3.578 14.751L3.578 15.655 2.678 15.655 2.678 14.75 2.67 14.758 3.583 14.758zM19.677 10.198L20.547 10.198 20.547 9.301 19.677 9.301zM.921 9.308l-.039.892H.007v-.888h.92L.92 9.308" mask="url(#x7zbjf4otn)"/>
                                    <path fill="#000" d="M2.678 14.75L1.771 14.75 1.771 13.84 2.678 13.84 2.67 13.833 2.67 14.758zM18.825 8.441v-.92h.822v.913h-.827l.005.007M19.673 21.09v-.873h.906l-.008-.006v.878l.007-.007h-.913l.008.008zM7.166 2.035L8.042 2.035 8.042 1.186 7.166 1.186zM17.669 16.648v-.926l-.008.007.869-.007.008.909.006-.006-.883.015.008.008zM21.494 8.41h.869v.872h-.864v-.877l-.005.005M16.073 21.765L14.27 21.765 14.27 20.861 18.726 20.861 18.726 21.754 16.979 21.754 16.979 22.62 16.073 22.62z" mask="url(#x7zbjf4otn)"/>
                                    <path fill="#000" d="M17.837 22.846L18.749 22.846 18.749 18.136 17.837 18.136zM8.874 17.948L7.071 17.948 7.071 17.044 11.528 17.044 11.528 17.937 9.781 17.937 9.781 18.803 8.874 18.803zM9.903 12.395L8.1 12.395 8.1 11.492 12.556 11.492 12.556 12.385 10.809 12.385 10.809 13.251 9.903 13.251z" mask="url(#x7zbjf4otn)"/>
                                    <path fill="#000" d="M10.638 19.029L11.551 19.029 11.551 14.319 10.638 14.319zM16.313 20.433L17.226 20.433 17.226 19.529 16.313 19.529zM13.399 19.565L14.312 19.565 14.312 18.662 13.399 18.662zM15.193 8.38L16.106 8.38 16.106 7.502 15.193 7.502zM18.538 16.631h.87v.918h-.865v-.924l-.005.006M7.058 20.687L7.925 20.687 7.925 19.763 7.058 19.763zM18.522 15.729L19.409 15.729 19.409 14.851 18.522 14.851zM13.411 8.426L14.324 8.426 14.324 7.502 13.411 7.502zM11.643 6.585h.868v.903h-.868v-.903zM20.553 18.843L21.423 18.843 21.423 17.992 20.553 17.992zM11.697 10.14h.913v.924h-.913v-.924zM15.81 17.725h.913v.923h-.913v-.923zM8.142 15.617L9.055 15.617 9.055 14.693 8.142 14.693zM4.459 4.779H1.788V2.09c.025-.007.053-.023.081-.023.807-.002 1.615-.005 2.422.003.056 0 .16.078.16.12.01.855.008 1.71.008 2.588M17.91 4.775L20.558 4.775 20.558 2.08 17.91 2.08zM1.788 21.076L4.447 21.076 4.447 18.393 1.788 18.393zM9.05 8.947l-.022 1.322c-.002.143 0 .286 0 .442H8.13v-.897h-.898l.008.008v-1.79h.872v.921h.943l-.005-.006zM9.907 10.71L10.777 10.71 10.777 9.814 9.907 9.814z" mask="url(#x7zbjf4otn)"/>
                                    <path fill="#000" d="M9.055 8.953v-.92h.822v.913h-.828l.006.007M11.729 8.916L10.813 8.916 10.813 8.032 11.723 8.032 11.723 8.923z" mask="url(#x7zbjf4otn)"/>
                                    <path fill="#000" d="M11.723 8.922h.87v.872h-.865v-.878l-.005.006M13.026 21.467L13.896 21.467 13.896 20.571 13.026 20.571zM14.32 9.735L14.32 8.83 16.106 8.83 16.106 10.6 15.22 10.6 15.226 10.606 15.226 9.728 14.313 9.728zM17.525 11.115h2.532v.872h-2.519l.001-.878-.014.006" mask="url(#x7zbjf4otn)"/>
                                    <path fill="#000" d="M13.06 15.586v-.868h3.58v-1.846l-.007.007h.912v-.924l-.005.006h.887V14.7h-.888v.886l.006-.006h-.92v.924h-.898V15.6h-.854v.904l-.914-.007.006.006v-.924h-.912l.007.007zM15.85 17.724c-.007.41-.016.82-.022 1.231-.003.189-.001 1.989-.001 2.19h-.89v-3.417h.919l-.005-.004" mask="url(#x7zbjf4otn)"/>
                                    <path fill="#000" d="M16.1 12.417l-.021 1.323c-.002.143 0 .285 0 .44h-.898v-.896h-.898l.007.008v-1.79h.872v.921h.944l-.005-.006zM7.078 13.637L7.948 13.637 7.948 12.74 7.078 12.74zM21.475 10.86L22.345 10.86 22.345 9.964 21.475 9.964zM11.622 13.829L12.492 13.829 12.492 12.933 11.622 12.933zM13.41 8.813h.908v1.836l.005-.007-.912.006.006-1.841-.006.006zM11.272 17.949L11.272 17.044 13.058 17.044 13.058 18.814 12.171 18.814 12.178 18.82 12.178 17.942 11.265 17.942z" mask="url(#x7zbjf4otn)"/>
                                </g>
                            </g>
                        </g>
                        <path fill="#FEC3A4" d="M25.21 35.874c3.554 0 5.493 9.043 3.554 13.24-1.939 4.199-4.848 11.949-3.878 18.407 3.589 4.867 8.403 7.104 10.342 14.208 2.23 8.166 1.69 14.194-1.616 18.084L7.11 116.927c2.856-14.61 4.149-26.235 3.879-34.875-.324-10.333 2.262-24.219 6.14-31 2.535-4.433 6.141-15.178 8.08-15.178z" transform="translate(36.844 22.25)"/>
                        <path fill="#E65A5A" d="M27.052 15.635H67.774V24.677H27.052z" transform="translate(36.844 22.25)"/>
                        <path fill="#FF7900" fill-rule="nonzero" d="M63.992 51.698c.357 0 .647.29.647.646 0 .331-.25.604-.571.641l-.076.005H31.673c-.357 0-.646-.29-.646-.646 0-.331.25-.604.57-.642l.076-.004h32.32z" transform="translate(36.844 22.25)"/>
                        <path fill="#F0A57E" d="M25.622 58.48c-.236 3.27.027 6.034.79 8.291.703 2.08 2.45 5.793 1.717 5.21-2.289-1.824-3.336-3.827-3.624-5.99-.255-1.91.118-4.414 1.117-7.512z" transform="translate(36.844 22.25)"/>
                    </g>
                </g>
            </g>
        </g>
    </g>
</svg>
