<svg xmlns="http://www.w3.org/2000/svg" xmlns:xlink="http://www.w3.org/1999/xlink" width="260" height="232" viewBox="0 0 260 232">
    <defs>
        <path id="pfgfzapp3a" d="M122.068 212.428c68.248 0 125.08-26.225 125.08-92.474S191.822 0 123.574 0C55.326 0 0 53.705 0 119.954c0 66.25 53.82 92.474 122.068 92.474z"/>
        <path id="9w1xv2jrbc" d="M21.225 87.134c5.362 0 60.078-27.824 86.51-38.343 28.208-6.02 36.853-7.966 59.199-19.64 37.17-5.275 58.422-7.002 62.08-11.43 4.204-4.087 1.697-5.901-.295-6.507-1.328-.403-10.603-.238-27.824.496L82.72.169 0 39.496c5.673 15.332 10.036 26.942 13.087 34.83 4.577 11.832 6.481 12.808 8.138 12.808z"/>
        <path id="mmgvapldvg" d="M0 0L40.958 0 40.958 51.671 0 51.671z"/>
        <ellipse id="7n1rgnkbie" cx="28.893" cy="27.823" rx="28.893" ry="27.823"/>
        <filter id="8apt37b7yi" width="132.9%" height="125.4%" x="-16.4%" y="-12.7%" filterUnits="objectBoundingBox">
            <feOffset dx="-3" dy="3" in="SourceAlpha" result="shadowOffsetOuter1"/>
            <feColorMatrix in="shadowOffsetOuter1" result="shadowMatrixOuter1" values="0 0 0 0 0 0 0 0 0 0 0 0 0 0 0 0 0 0 0.202278191 0"/>
            <feMerge>
                <feMergeNode in="shadowMatrixOuter1"/>
                <feMergeNode in="SourceGraphic"/>
            </feMerge>
        </filter>
    </defs>
    <g fill="none" fill-rule="evenodd">
        <g>
            <g>
                <path d="M15.973 213.862c21.958 6.854 39.55-10.886 57.174-10.886 38.53 0 21.958 39.132 74.574 55.663 8.17 2.566 66.847 16.488 115.362-4.522 64.415-27.896 116.882-75.316 125.348-86.46 21.378-28.145 72.977-111.44 14.914-111.44-42.258 0-12.014-14.919-45.987-18.144-33.973-3.226-40.177-16.377-78.819-33.2C253.928-5.843 158.03-.062 95.52 34.04c-35.691 19.47-43.44 59.061-63.802 82.653-35.52 41.153-41.842 89.021-15.744 97.168z" transform="translate(-89 -247) translate(-249.099 73.196)"/>
                <g transform="translate(-89 -247) translate(-249.099 73.196) translate(340.076 172.839)">
                    <mask id="z5k03rxbcb" fill="#fff">
                        <use xlink:href="#pfgfzapp3a"/>
                    </mask>
                    <use fill="#00BCBC" xlink:href="#pfgfzapp3a"/>
                    <g mask="url(#z5k03rxbcb)">
                        <g>
                            <g>
                                <path fill="#F0A57E" d="M139.592 83.174l18.426 5.83-9.213 45.46c-28.3 1.82-42.45 1.82-42.45 0s4.984-15.928 14.95-42.324l18.287-8.966z" transform="translate(-57.338 17.733)"/>
                                <path fill="#FFDBC8" d="M157.693 66.803v3.035c1.718.715 4.239.846 6.445.969 1.47.081 3.802-.242 6.995-.969l-13.44-3.035z" transform="translate(-57.338 17.733)"/>
                                <g transform="translate(-57.338 17.733) translate(0 120.556)">
                                    <mask id="e2zquvbz4d" fill="#fff">
                                        <use xlink:href="#9w1xv2jrbc"/>
                                    </mask>
                                    <use fill="#FEC3A4" xlink:href="#9w1xv2jrbc"/>
                                    <path fill="#F0A57E" d="M21.225 87.973s14.637-4.876 31.746-12.614c18.845-8.524 40.91-20.216 54.765-25.73 28.207-6.02 36.852-7.966 59.198-19.639 37.17-5.275 58.422-7.003 62.08-11.43 4.204-4.088 1.697-5.902-.295-6.507-1.328-.404-10.603-.239-27.824.495-9.877-.33-24.431-1.751-43.661-4.264-8.197 10.275-15.861 21.706-50.878 31.21-39.234 18.274-46.637 23.232-88.319 39.939-6.073 3.458 3.188 8.54 3.188 8.54z" mask="url(#e2zquvbz4d)"/>
                                </g>
                                <path fill="#FAB08A" d="M204.953 145.352c13.794-1.987 21.926-3.652 24.062-6.237 4.203-4.087 1.696-5.901-.296-6.507-1.134-.344-8.067-.274-20.797.211-2.174.083-5.39 8.881-2.969 12.533zM209.304 110.144c6.283-3.253 19.814-21.411 21.778-24.119 1.393-3.024 1.639-6.066 1.393-7.819-.246-1.752-1.393-1.752-2.774-2.015-3.558.563-6.495 1.867-8.811 3.91-9.548 18.968-13.41 28.983-11.586 30.043z" transform="translate(-57.338 17.733)"/>
                                <path fill="#F0A57E" d="M209.304 110.144c2.997-1.552 7.644-6.496 11.898-11.537-4.372-6.746 3.672-19.052 5.79-21.809-1.58.469-5.859 1.885-12.84 4.25-5.055 18.337-6.672 28.036-4.848 29.096z" transform="translate(-57.338 17.733)"/>
                                <path fill="#FAB08A" d="M214.969 78.202c0 .91 7.447-4.714 10.802-8.617 3.183-3.703 6.5-9.338 6.5-11.617 0-2.28-1.85-3.3-3.63-3.3-1.555 0-6.766 1.91-15.634 5.726-.76 11.872-.106 17.808 1.962 17.808z" transform="translate(-57.338 17.733)"/>
                                <path fill="#F0A57E" d="M214.969 78.202c0 .691 4.289-2.381 7.823-5.609-.67-7.106.264-14.953.264-16.248-1.054.226-4.404 1.576-10.049 4.05-.405 6.19-.508 10.198-.306 12.026.532 4.835 2.268 5.88 2.268 5.781z" transform="translate(-57.338 17.733)"/>
                                <path fill="#FAB08A" d="M199.502 28.363c3.754-3.044 6.547-4.566 8.38-4.566 2.747 0 4.53.807 5.875 2.953.897 1.43.715 3.669-.547 6.714l-13.708-5.101z" transform="translate(-57.338 17.733)"/>
                                <path fill="#F0A57E" d="M199.502 28.363c1.559-1.212 2.677-2.04 3.355-2.486 3.065 1.09 8.212 2.972 11.296 4.612-.116.591-.43 1.583-.943 2.975l-13.708-5.101z" transform="translate(-57.338 17.733)"/>
                                <g>
                                    <g>
                                        <g>
                                            <g>
                                                <g transform="translate(-57.338 17.733) translate(122.011) rotate(-3 101.755 2.665)">
                                                    <path fill="#005960" d="M23.432.407l64.17 3.284c8.18.419 14.462 7.234 14.033 15.222l-7.657 142.71c-.429 7.988-7.406 14.125-15.585 13.706l-64.17-3.285C6.044 171.626-.24 164.81.19 156.822l7.657-142.71C8.276 6.124 15.254-.012 23.432.407z"/>
                                                    <path fill="#FFF" d="M23.835 6.17l63.183 3.235c5.998.307 10.605 5.304 10.291 11.162l-7.45 138.853c-.315 5.858-5.432 10.358-11.43 10.051l-63.182-3.234c-5.998-.307-10.605-5.305-10.29-11.163l7.45-138.853c.314-5.858 5.43-10.358 11.428-10.05z"/>
                                                    <ellipse cx="41.192" cy="14.794" fill="#D7DDDC" rx="2.471" ry="2.414" transform="rotate(3 41.192 14.794)"/>
                                                    <path fill="#D7DDDC" d="M47.193 13.65l16.783.86c.818.042 1.446.723 1.403 1.522-.043.799-.74 1.413-1.559 1.37l-16.783-.858c-.817-.042-1.446-.724-1.403-1.522.043-.8.74-1.413 1.559-1.371z"/>
                                                </g>
                                            </g>
                                            <g>
                                                <g>
                                                    <g>
                                                        <g>
                                                            <g transform="translate(-57.338 17.733) translate(122.011) translate(23.176 33.443) translate(1.977) translate(.653) translate(0 .238)">
                                                                <mask id="9dwsy41h2f" fill="#fff">
                                                                    <use xlink:href="#7n1rgnkbie"/>
                                                                </mask>
                                                                <use fill="#E4E4E4" xlink:href="#7n1rgnkbie"/>
                                                                <g mask="url(#9dwsy41h2f)">
                                                                    <g>
                                                                        <path fill="#008181" d="M74.778 43.11C74.2 62.12 58.294 77.355 38.758 77.355c-19.538 0-35.444-15.235-36.021-34.243z" transform="translate(-13.833 14.064) rotate(45 38.757 60.232)"/>
                                                                        <g>
                                                                            <path fill="#FF9445" d="M51.747 27.212c-.25 8.484-7.401 15.287-16.186 15.287-8.786 0-15.937-6.803-16.186-15.287z" transform="translate(-13.833 14.064) translate(24.946) rotate(-30 35.56 34.855)"/>
                                                                            <g>
                                                                                <g transform="translate(-13.833 14.064) translate(24.946)">
                                                                                    <mask id="mn74g7uhwh" fill="#fff">
                                                                                        <use xlink:href="#mmgvapldvg"/>
                                                                                    </mask>
                                                                                    <path fill="#00BCBC" d="M35.647 48.92V16.808c0-.62-.036-1.233-.104-1.836-.283-2.49-.054-5.002.6-7.426.121-.451.233-.92.339-1.405.271-1.248-1.105-2.217-2.247-1.576-.511.287-1.044.565-1.576.813-.677.316-1.48.177-2.006-.342C27.496 1.931 23.106 0 18.256 0c-4.85 0-9.238 1.93-12.395 5.036-.527.518-1.33.657-2.007.342-.531-.248-1.062-.526-1.573-.812-1.141-.64-2.517.327-2.246 1.576.105.482.215.947.336 1.395.653 2.424.884 4.935.6 7.425-.07.606-.106 1.222-.106 1.847v8.321c0 10.577 6.55 19.698 15.933 23.79H4.324h36.634-5.311z" mask="url(#mn74g7uhwh)"/>
                                                                                </g>
                                                                                <path fill="#FFF" d="M25.412 8.255c-3.292 0-6.095 2.03-7.155 4.872-1.061-2.842-3.864-4.872-7.155-4.872-4.203 0-7.61 3.31-7.61 7.391 0 8.414.836 15.234 14.765 15.234 13.155 0 14.764-6.82 14.764-15.234 0-4.081-3.407-7.39-7.61-7.39" opacity=".901" transform="translate(-13.833 14.064) translate(24.946)"/>
                                                                            </g>
                                                                        </g>
                                                                    </g>
                                                                </g>
                                                            </g>
                                                            <path fill="#FF9445" d="M31.015 38.727l1.833-3.332c.205-.372.144-.84-.147-1.142l-2.697-2.803c-.373-.387-1.001-.387-1.373 0l-2.698 2.803c-.29.302-.351.77-.147 1.142l1.833 3.332c.728 1.324 2.668 1.324 3.396 0" transform="translate(-57.338 17.733) translate(122.011) translate(23.176 33.443) translate(1.977) translate(.653)"/>
                                                        </g>
                                                        <g fill="#007F7E">
                                                            <path d="M19.634 3.06h-1.522c0-.492-.125-1.637-1.293-1.637-1.167 0-1.293 1.145-1.293 1.638h-1.521C14.005 1.23 15.136 0 16.819 0c1.684 0 2.815 1.23 2.815 3.06M5.629 3.06H4.108c0-.492-.126-1.637-1.294-1.637-1.167 0-1.293 1.145-1.293 1.638H0C0 1.23 1.131 0 2.814 0 4.498 0 5.63 1.23 5.63 3.06" transform="translate(-57.338 17.733) translate(122.011) translate(23.176 33.443) translate(1.977) translate(.653) translate(19.708 27.948)"/>
                                                        </g>
                                                    </g>
                                                </g>
                                                <g transform="translate(-57.338 17.733) translate(122.011) translate(23.176 33.443) translate(0 59.866)">
                                                    <rect width="42.51" height="11.587" x="20.76" fill="#E4E4E4" rx="2"/>
                                                    <rect width="16.806" height="11.587" fill="#E4E4E4" rx="2"/>
                                                    <rect width="63.27" height="20.277" y="28.967" fill="#00C9C3" rx="2"/>
                                                    <rect width="63.27" height="11.587" y="12.553" fill="#E4E4E4" rx="2"/>
                                                </g>
                                            </g>
                                        </g>
                                    </g>
                                </g>
                            </g>
                            <path fill="#FEC3A4" d="M113.573 132.34c0-1.065 9.687-8.028 13.577-15.123 2.593-4.73 4.3-13.368 5.12-25.915l12.336-12.706h18.503c3.417 0 6.595-4.283 8.341-8.4.077-.181.077 0 .222-.541.145-.541-16.77-4.68-33.41-6.702-13.677 7.18-18.509 9.631-31.875 19.2-8.944 11.918-16.864 24.737-23.76 38.454 20.63 8.533 30.946 12.444 30.946 11.734z" transform="translate(-57.338 17.733)"/>
                        </g>
                    </g>
                    <path fill="#005960" fill-rule="nonzero" d="M225.894 89.316c.546 0 .988.432.988.966 0 .533-.442.965-.988.965-2.282 0-4.546.14-6.782.417-.542.067-1.037-.308-1.105-.837-.069-.529.314-1.012.856-1.079 2.319-.287 4.665-.432 7.03-.432zm-12.01 1.277c.533-.116 1.06.213 1.179.734.118.52-.219 1.036-.752 1.151-2.219.48-4.397 1.097-6.523 1.847-.513.182-1.08-.078-1.265-.58-.186-.501.08-1.055.594-1.236 2.205-.778 4.465-1.419 6.767-1.916zm-11.434 3.806c.494-.227 1.083-.02 1.315.463.232.483.02 1.058-.474 1.284-2.054.943-4.04 2.013-5.948 3.203-.46.288-1.072.156-1.366-.293-.294-.45-.159-1.047.301-1.334 1.98-1.235 4.04-2.345 6.172-3.323zm-10.273 6.15c.431-.327 1.052-.251 1.387.17.335.42.257 1.028-.174 1.355-1.792 1.36-3.49 2.83-5.083 4.402-.384.379-1.01.382-1.398.007-.388-.376-.39-.987-.007-1.366 1.653-1.63 3.415-3.157 5.275-4.568zm-8.677 8.256c.346-.413.969-.473 1.391-.135.423.338.485.946.139 1.359-1.438 1.714-2.757 3.517-3.949 5.396-.287.453-.896.593-1.36.312-.465-.28-.608-.876-.32-1.329 1.237-1.951 2.607-3.823 4.1-5.603zm-6.52 9.856c.242-.478.835-.673 1.324-.437.49.237.69.817.447 1.294-1.006 1.983-1.876 4.028-2.601 6.124-.175.505-.736.776-1.253.605-.517-.17-.795-.718-.62-1.224.754-2.178 1.657-4.303 2.703-6.362zm-4.091 11.124c.124-.52.655-.842 1.187-.721.532.12.862.64.738 1.16-.512 2.146-.877 4.33-1.09 6.542-.052.531-.534.921-1.077.87-.544-.05-.943-.52-.892-1.051.222-2.298.602-4.569 1.134-6.8z" mask="url(#z5k03rxbcb)" transform="rotate(90 199.316 113.479)"/>
                    <g>
                        <path fill="#4267B2" fill-opacity=".3" d="M0 20.077v61.802c0 4.85 4.102 8.813 9.14 8.813h63.889c5.015 0 9.11-3.962 9.11-8.813V20.077c0-4.873-4.095-8.84-9.11-8.84H9.139C4.102 11.236 0 15.203 0 20.076zM54.779 37.73c0 7.5-5.95 13.233-13.71 13.233-7.752 0-13.68-5.734-13.68-13.233 0-7.506 5.928-13.261 13.68-13.261 7.76 0 13.71 5.755 13.71 13.26zM13.68 73.038c0-8.813 18.28-13.686 27.39-13.686 9.14 0 27.39 4.873 27.39 13.686v4.42H13.68v-4.42z" transform="translate(167.072 140.01)"/>
                        <path fill="#11D7D1" d="M8.897 8.84v61.803c0 4.85 4.102 8.813 9.14 8.813h63.89c5.014 0 9.11-3.962 9.11-8.813V8.84c0-4.873-4.096-8.841-9.11-8.841h-63.89c-5.038 0-9.14 3.968-9.14 8.84z" transform="translate(167.072 140.01)"/>
                        <g filter="url(#8apt37b7yi)" transform="translate(167.072 140.01) translate(29.907 13.84)">
                            <path fill="#FFB700" fill-rule="nonzero" d="M20.279 4.005c-5.6 0-10.14 4.483-10.14 10.013v13.016c0 5.53 4.54 10.013 10.14 10.013 5.6 0 10.14-4.483 10.14-10.013V14.018c0-5.53-4.54-10.013-10.14-10.013zm0-4.005c7.84 0 14.195 6.276 14.195 14.018v13.016c0 7.742-6.355 14.018-14.195 14.018S6.084 34.776 6.084 27.034V14.018C6.084 6.276 12.439 0 20.279 0z"/>
                            <g transform="translate(0 11.014)">
                                <ellipse cx="19.772" cy="19.525" fill="#FFC41E" rx="18.758" ry="18.523"/>
                                <path fill="#FFB700" fill-rule="nonzero" d="M19.772 39.05C8.852 39.05 0 30.307 0 19.524 0 8.74 8.852 0 19.772 0c10.92 0 19.772 8.741 19.772 19.525 0 10.783-8.852 19.524-19.772 19.524zm0-2.003c9.8 0 17.744-7.845 17.744-17.522 0-9.678-7.944-17.522-17.744-17.522S2.028 9.847 2.028 19.525c0 9.677 7.944 17.522 17.744 17.522z"/>
                                <path fill="#FFB700" fill-rule="nonzero" d="M19.772 30.038c-5.88 0-10.647-4.707-10.647-10.513 0-5.807 4.767-10.514 10.647-10.514s10.646 4.707 10.646 10.514c0 5.806-4.766 10.513-10.646 10.513zm0-2.003c4.76 0 8.618-3.81 8.618-8.51 0-4.7-3.858-8.511-8.618-8.511s-8.619 3.81-8.619 8.51c0 4.701 3.859 8.511 8.619 8.511z"/>
                                <path fill="#A96C16" fill-rule="nonzero" d="M20.26 14.018c1.67 0 3.024 1.255 3.024 2.803 0 1.194-.804 2.213-1.938 2.618l1.975 5.593h-6.084l1.97-5.582c-1.15-.397-1.97-1.424-1.97-2.629 0-1.548 1.354-2.803 3.024-2.803z"/>
                            </g>
                        </g>
                    </g>
                </g>
            </g>
        </g>
    </g>
</svg>
