<svg xmlns="http://www.w3.org/2000/svg" xmlns:xlink="http://www.w3.org/1999/xlink" width="375" height="315" viewBox="0 0 375 315">
    <defs>
        <path id="a" d="M0 0h375v315H0z"/>
        <path id="c" d="M.369.31h122.72v94.224H.368z"/>
        <path id="e" d="M.365 332.27H498.94V.12H.365z"/>
    </defs>
    <g fill="none" fill-rule="evenodd">
        <mask id="b" fill="#fff">
            <use xlink:href="#a"/>
        </mask>
        <use fill="#00A7A7" xlink:href="#a"/>
        <g mask="url(#b)">
            <path fill="#00A7A7" d="M-53.635 355.504H444.79V23.354H-53.635z"/>
            <path fill="#009792" d="M22.455 145.543h-57.887v-18.616l28.943-12.415 28.944 12.415zM-41.55 355.504h98.793v-209.96H-41.55z"/>
            <path fill="#009792" d="M57.146 355.504h123.362V80.768H57.146zM337.401 145.543h57.888v-18.616l-28.944-12.415-28.944 12.415zM302.614 355.504h98.792v-209.96h-98.792z"/>
            <path fill="#009792" d="M179.348 355.504h123.363V46.32H179.348z"/>
            <path fill="#005960" d="M302.127 355.504h33.413v-61.637h-33.413z"/>
            <g transform="translate(-54 23.234)">
                <path fill="#FFC8A6" d="M306.102 223.015l-15.166-3.796-10.643 53.62.033.013-2.847 4.456a14.127 14.127 0 0 0-1.47 12.245l1.362 3.953a4.744 4.744 0 0 0 8.933.556l.954-2.24a36.571 36.571 0 0 0 2.781-17.153l16.063-51.654z"/>
                <g transform="translate(323.457 237.736)">
                    <mask id="d" fill="#fff">
                        <use xlink:href="#c"/>
                    </mask>
                    <path fill="#004472" d="M47.097 47.266a2.578 2.578 0 0 1 2.657 2.205l12.253 82.7 34.102 84.871 26.98-13.783-23.933-86.247L83.798.31H7.15L.37 42.672l9.754 186.578h33.554l.938-179.345a2.59 2.59 0 0 1 2.482-2.64" mask="url(#d)"/>
                </g>
                <path fill="#262942" d="M411.157 270.834l-86.866 6.674 14.02-167.767 58.825.004z"/>
                <mask id="f" fill="#fff">
                    <use xlink:href="#e"/>
                </mask>
                <path fill="#262942" d="M346.862 103.07h42.03V78.16h-42.03z" mask="url(#f)"/>
                <path fill="#FFBE96" d="M356.666 104.866l.698-44.311 21.824.15-.697 44.312zM350.449 57.61c.207.364.465.748.763 1.14 1.063 1.414 4.674 4.064 4.674 4.064s-.672-1.305-1.071-3.516c-.398-2.214-.498-9.645-.498-9.645s-2.499-.142-3.62.507c-1.627.95-1.95 4.533-.248 7.45" mask="url(#f)"/>
                <path fill="#F09F7C" d="M378.74 81.358a37.28 37.28 0 0 1-6.035.202c-6.126-.286-11.639-2.004-15.723-4.59l.257-16.421 21.825.15-.324 20.66z" mask="url(#f)"/>
                <path fill="#FFC8A6" d="M357.737 69.227s11.207 10.239 16.628 10.218c4.034-.015 12.668-8.606 13.806-10.268 2.175-3.161 3.179-5.628 3.17-9.09l.017-12.979c.017-10.267-2.698-17.575-12.959-17.536l-7.048.041c-6.35.024-11.704 1.388-12.17 6.52l-3.046 10.555-1.818 1.981-.017 12.037a12.43 12.43 0 0 0 3.437 8.521" mask="url(#f)"/>
                <path fill="#004472" d="M351.105 49.693a4.673 4.673 0 0 0 5.587-3.538l3.693-16.429-6.824 2.023-2.456 17.944z" mask="url(#f)"/>
                <path fill="#004472" d="M392.263 39.557l-37.332.217-.008-1.19c-.041-7.228 5.786-13.122 13.009-13.164l11.165-.064c7.222-.042 13.116 5.784 13.157 13.01l.009 1.191z" mask="url(#f)"/>
                <path fill="#262942" d="M296.381 277.508l-27.685-9.154 5.014-16.076 26.88 10.886z" mask="url(#f)"/>
                <path fill="#58C4C5" d="M435.796 262.453l29.777-9.456-47.144-144.105-.008.007c-2.092-5.832-7.372-10.126-13.764-10.783l-10.65-1.096 14.062 268.381 21.102-7.937c9.655-3.63 15.615-13.345 14.486-23.6l-7.86-71.41zM330.725 99.355c-7.555.777-13.557 6.643-14.57 14.127l-46.969 143.564 30.093 9.555-7.546 68.502c-1.13 10.255 4.83 19.97 14.486 23.6l21.102 7.936 14.062-268.38-10.658 1.096z" mask="url(#f)"/>
                <path fill="#2D304D" d="M397.028 86.55l-8.435-8.387-20.86 23.937-20.87-23.94-8.435 8.386c-6.417 6.38-6.466 16.752-.116 23.195l29.38 29.81v.07l.04-.035.025.031v-.062l29.379-29.81c6.359-6.444 6.3-16.815-.108-23.195" mask="url(#f)"/>
                <path fill="#005960" d="M111.988 470.952H85.199L58.51 250.207l38.29-37.738 33.904-.673 29.92 43.519-9.654 195.888-17.162.898-19.334-168.698v-.018c-.799-1.957-3.517-2.083-4.486-.207l2 187.774z" mask="url(#f)"/>
                <path fill="#FFC8A6" d="M197.908 263.582l-2.97-6.813-2.449-35.898c-.87-9.757-7.904-11.373-14.669-11.014l-4.243.871 13.709 48.752a32.404 32.404 0 0 0 .035 15.431l.52 2.092a4.192 4.192 0 0 0 3.32 3.123 4.197 4.197 0 0 0 4.576-2.36l1.75-3.268a12.538 12.538 0 0 0 .42-10.916M58.347 212.568l-4.126-1.328c-6.675-1.105-13.852-.27-15.781 9.344l-6.361 35.404-3.696 6.445a12.552 12.552 0 0 0-.772 10.898l1.373 3.447a4.216 4.216 0 0 0 4.297 2.846 4.218 4.218 0 0 0 3.643-2.738l.744-2.029a32.43 32.43 0 0 0 1.723-15.332l18.956-46.957z" mask="url(#f)"/>
                <path fill="#FFEDDC" d="M147.587 46.34c-2.108-3.657-4.8-6.508-7.455-8.184a5.491 5.491 0 0 1-2.225-2.818c-3.194-8.465-10.74-14.731-23.3-14.86-20.544-.208-27.13 7.611-29.156 22.528a42.446 42.446 0 0 1-6.936 19.075l-3.75 5.604c-2.278 5.889 1.373 12.397 7.581 13.51l23.326 4.183L105 72.892c1.22.34 2.467.61 3.759.78a27.06 27.06 0 0 0 9.573-.395l.475 10.557 17.261-2.271c8.55-1.131 14.005-9.506 11.86-17.669.09-.046.19-.078.279-.13 3.911-2.258 3.633-10.058-.62-17.425" mask="url(#f)"/>
                <path fill="#FFBE96" d="M87.944 52.948c1.113-.66 3.392-.503 4.1-.436l.072 12.364c0 .541.054 1.076.117 1.606-1.31-1.034-2.916-2.376-3.607-3.29-.35-.464-.664-.92-.924-1.354-2.054-3.466-1.696-7.743.242-8.89M124.216 105.082l-.413-40.15-24.052-.013.404 40.154zM132.631 53.072c-1.112-.66-3.39-.505-4.09-.436l-.072 12.363a15.747 15.747 0 0 1-.126 1.609c1.31-1.037 2.916-2.379 3.606-3.294.36-.464.665-.919.924-1.353 2.055-3.465 1.696-7.743-.242-8.889" mask="url(#f)"/>
                <path fill="#F09F7C" d="M100.074 87.685c2.126.27 4.36.368 6.648.278 6.746-.269 12.838-2.118 17.368-4.937l-.152-18.1-24.052-.012.188 22.771z" mask="url(#f)"/>
                <path fill="#FFC8A6" d="M126.468 72.703s-12.282 11.203-18.248 11.131c-4.46-.045-14.05-9.587-15.296-11.427-2.369-3.501-3.454-6.23-3.419-10.047l.081-14.308c.072-11.316 5.652-19.032 16.965-18.904l8.057-.176c6.997.078 15.027 4.468 14.99 11.473l.288 8.347.52 1.284-.08 13.268a13.62 13.62 0 0 1-3.858 9.359" mask="url(#f)"/>
                <path fill="#FFEDDC" d="M130.137 31.102l-.556-3.339-21.81-1.01v.6c0 .16.018.318.027.478l-15.512 2.08-.529 2.485.09-2.208-3.499 9.526-1.273 10.154c.214.01.655 3.203 1.246 2.937 1.597-.714 2.719-2.148 2.79-4.069l.234-5.825h2.36c7.284 0 13.304-5.345 14.398-12.326 1.49 7.25 7.904 12.7 15.593 12.7l5.167.098.207 5.353c.107 2.634 2.17 4.35 4.737 4.557.206.017.412.02.619.013l.915-19.562-5.204-2.642z" mask="url(#f)"/>
                <path fill="#F9EBDB" d="M153.894 149.588l-9.573 61.94-60.405 1.202-6.926-66.966L62 121.096c3.005-12.747 14.372-21.76 27.462-21.76h47.055c13.996 0 25.874 10.27 27.92 24.121l-10.542 26.13z" mask="url(#f)"/>
                <path fill="#262942" d="M89.882 224.543h51.191v-12.747h-51.19z" mask="url(#f)"/>
                <path fill="#005960" d="M166.005 194.247l12.112 55.96 19.962-.978-9.627-60.144-25.21-70.574-.134-.377-.467-1.31h-.036c-4.261-10.369-14.444-17.487-26.09-17.487h-2.25l-12.023 72.657 25.372 119.425h27.811l-19.243-115.503 1.291-8.177 8.532 26.508zM89.46 99.337c-12.676 0-23.738 8.456-27.156 20.565-.108.395-.215.79-.305 1.194l-.036.134-32.082 125.135 19.908 1.742 21.325-74.291 1.292 1.85-30.207 120.241h35.886l27.587-122.98-16.211-73.59z" mask="url(#f)"/>
                <path fill="#FF7900" d="M288.916 93.915l-.186-.029c-3.83-.542-6.814-3.558-7.134-7.41-.088-1.07-.213-1.976-.364-2.486a19.899 19.899 0 0 0-4.61-7.883c-6.325-6.637-10.75-14.855-13.094-23.72-1.99-7.532-3.838-14.513-3.9-14.683-4.237-11.434-11.975-17.115-26.756-17.17-21.214-.075-26.606 18.903-27.281 29.453-.045.694-.337 2.273-.782 4.313-1.44 6.662-4.877 12.66-9.594 17.583a20.812 20.812 0 0 0-5.756 15.456c.302 6.193-1.874 12.324-6.52 16.427-4.789 4.231-7.613 10.626-6.965 17.66.897 9.545 9.86 18.22 19.437 18.816 12.117.755 22.19-8.862 22.19-20.826 0-4.68-1.546-9-4.14-12.481 10.012-1.528 17.687-10.182 17.687-20.63 0-3.278-.764-6.38-2.105-9.14 2.06.652 4.024 1.188 6.529 1.071 4.024-.19 6.529 8.042 6.956 13.218.737 9.064 7.755 16.541 16.735 17.927 2.568.398 5.046.268 7.374-.256a19.671 19.671 0 0 0-.267 7.346c1.368 9.07 8.946 16.144 18.086 16.82 12.135.897 22.173-9.147 21.267-21.294-.684-9.135-7.755-16.71-16.807-18.082" mask="url(#f)"/>
                <path fill="#FFC8A6" d="M287.93 148.819l-19.898 3.946 7.24 37.678h.035l3.322 49.153a39.108 39.108 0 0 0-3.793 18.24l.098 2.604c.071 2 1.305 3.76 3.145 4.524 2.14.88 4.61.195 5.996-1.663l2.87-3.43a15.127 15.127 0 0 0 3.215-12.8l-1.821-8.781 6.005-43.03c.4-3.333-6.414-46.441-6.414-46.441" mask="url(#f)"/>
                <path fill="#FFBE96" d="M245.859 107.172l-.666-34.938-23.355.161.667 34.94z" mask="url(#f)"/>
                <path fill="#F09F7C" d="M222.318 94.496c2.07.24 4.238.32 6.458.217 6.556-.307 12.455-2.146 16.825-4.913l-.275-17.572-23.354.162.346 22.106z" mask="url(#f)"/>
                <path fill="#F9EBDB" d="M290.79 482.623L280.398 247.07c-1.146-12.088-16.337-44.166-16.337-44.166l-.444-10.684h-60.921l-.445 10.684s-15.19 32.078-16.336 44.166l-17.126 235.552h50.634l12.446-196.612 8.643 196.612h50.28z" mask="url(#f)"/>
                <path fill="#FFC8A6" d="M194.291 164.507l-17.66-14.533-4.894 35.545h.044l-12.321 47.704a39.115 39.115 0 0 0-9.337 16.124l-.728 2.497a5.083 5.083 0 0 0 1.564 5.28 5.071 5.071 0 0 0 6.21.32l3.81-2.356a15.132 15.132 0 0 0 7.071-11.128l1.04-8.915 19.241-38.949c1.42-3.04 5.96-31.59 5.96-31.59" mask="url(#f)"/>
                <path fill="#262942" d="M288.499 152.685l-4.184-30.264c-2.017-13.714-13.787-23.876-27.645-23.876h-8.946V92.3a4.025 4.025 0 0 0-4.024-4.023h-20.698a4.025 4.025 0 0 0-4.024 4.023v6.245h-8.892c-12.961 0-24.225 8.92-27.201 21.546l-5.783 27.635-6.592 37.624-8.27 37.11 11.7 2.764 14.39-29.128c1.422-3.04 5.961-31.589 5.961-31.589l8.404 27.714h60.921l6.494-28.363 5.161 26.861.036-.01 2.345 34.79h12.508l4.184-29.963c.328-2.746-4.229-32.424-5.845-42.85" mask="url(#f)"/>
                <path fill="#FF7900" d="M205.19 53.954c-.15.61-.656 1.97-1.367 3.715-2.327 5.702-6.325 10.5-11.29 14.14a18.803 18.803 0 0 0-7.418 11.925c-.053.307-.098.615-.134.922-.71 5.56-3.597 10.673-8.376 13.594a18.853 18.853 0 0 0-8.972 14.616c-.702 8.639 5.916 17.768 14.337 19.803 10.669 2.569 21.142-4.4 23.017-15.048.737-4.167.045-8.25-1.724-11.757 9.15.213 17.332-6.282 18.975-15.577.515-2.919.497-7.21-.267-9.877 1.733.905-14.524-35.737-16.78-26.456" mask="url(#f)"/>
                <path fill="#FFBE96" d="M255.444 62.94c-.231.39-.506.8-.817 1.219-1.137 1.514-5.001 4.35-5.001 4.35s.719-1.396 1.145-3.763c.427-2.368.524-10.321.524-10.321s2.683-.151 3.873.544c1.75 1.016 2.097 4.849.276 7.97M209.58 62.94c.23.39.506.8.817 1.219 1.137 1.514 5.001 4.35 5.001 4.35s-.71-1.396-1.137-3.763c-.436-2.368-.533-10.321-.533-10.321s-2.674-.151-3.873.544c-1.741 1.016-2.088 4.849-.276 7.97" mask="url(#f)"/>
                <path fill="#FFC8A6" d="M248.808 75.371s-10.35 10.958-16.15 10.935c-4.317-.016-15.19-9.21-16.407-10.988-2.327-3.383-3.411-6.023-3.394-9.726l-.026-13.89c-.018-10.987 2.887-18.807 13.866-18.765h10.572c6.796.026 15.225 1.012 15.225 16.688v16.628a13.27 13.27 0 0 1-3.686 9.118" mask="url(#f)"/>
                <path fill="#FF7900" d="M219.458 45.612h-9.07l2.967-15.999h17.615v4.482c0 6.36-5.152 11.517-11.512 11.517" mask="url(#f)"/>
            </g>
            <path fill="#262942" d="M167.83 82.726a1.394 1.394 0 0 1-1.384-1.4v-.465c0-.767.629-1.393 1.4-1.39a1.4 1.4 0 0 1 1.39 1.402v.463a1.407 1.407 0 0 1-1.407 1.39M186.071 83.147a1.4 1.4 0 0 1-1.39-1.401v-.464a1.406 1.406 0 0 1 1.406-1.39 1.394 1.394 0 0 1 1.383 1.402v.462c0 .768-.628 1.394-1.399 1.391"/>
            <path fill="#F07A58" d="M182.755 74.753c1.768-.139 3.505-.2 5.273.026 1.156.148 2.759.48 3.152 1.286.04.082-.047.538-.102.598-.464.513-2.5.054-3.623-.008-1.344-.075-3.537-.067-4.975.136-1.195.167-1.21-1.922.275-2.038M171.358 74.887c-1.768-.212-3.497-.346-5.273-.193-1.163.1-2.775.365-3.2 1.155-.047.08.024.54.072.602.44.53 2.499.157 3.623.14 1.352-.018 3.536.082 4.967.343 1.186.217 1.29-1.869-.189-2.047"/>
            <path fill="#FFF" d="M170.054 93.32s1.069 4.886 6.98 4.976c6.004.092 7.245-4.758 7.245-4.758l-14.225-.218z"/>
            <path fill="#F09F7C" d="M173.551 84.464c.189-.994 1.706-.573 1.517.418-.18 1.004-.369 2.104-.047 3.103.416 1.341 1.87 1.433 3.08 1.528 1 .079 1.007 1.652 0 1.572-1.57-.122-3.426-.327-4.259-1.846-.801-1.462-.574-3.208-.29-4.775"/>
            <path fill="#262942" d="M46.511 80.168a1.37 1.37 0 0 1-1.35-1.383l.008-.452a1.366 1.366 0 0 1 1.38-1.35c.747.006 1.358.63 1.35 1.381l-.007.452a1.368 1.368 0 0 1-1.38 1.352M64.261 80.195a1.369 1.369 0 0 1-1.35-1.383v-.453a1.37 1.37 0 0 1 1.38-1.351c.755.008 1.365.63 1.358 1.382l-.008.453a1.373 1.373 0 0 1-1.38 1.352"/>
            <path fill="#E65F45" d="M60.497 91.367s-.89 3.623-5.304 3.578c-4.48-.053-5.31-3.691-5.31-3.691l10.614.113z"/>
            <path fill="#6C3636" d="M48.646 72.518c-1.312-.16-2.602-.246-3.945-.05-.868.129-2.09.429-2.437 1.21-.03.08 0 .525.038.585.31.505 1.863.087 2.708.042 1.011-.054 2.648-.014 3.712.204.882.18 1.033-1.857-.076-1.991M61.538 72.534c1.312-.155 2.602-.234 3.945-.033.867.131 2.082.436 2.429 1.22.037.08 0 .525-.038.584-.317.505-1.863.08-2.708.031-1.01-.057-2.648-.024-3.711.19-.883.176-1.026-1.861.083-1.992"/>
            <path fill="#F09F7C" d="M55.91 86.28c-3.884 1.218-1.327-5.064-.995-6.517.21-.947-1.245-1.35-1.456-.402-.475 2.102-1.637 4.226-1.11 6.436.507 2.097 2.06 2.536 3.961 1.94.928-.29.536-1.748-.4-1.456"/>
            <path fill="#262942" d="M313.143 79.072A1.15 1.15 0 0 1 312 77.927v-.384a1.15 1.15 0 0 1 1.144-1.145c.635 0 1.152.516 1.152 1.145v.384c0 .629-.517 1.145-1.152 1.145M328.088 79.072a1.15 1.15 0 0 1-1.145-1.145v-.384a1.15 1.15 0 0 1 1.145-1.145 1.15 1.15 0 0 1 1.151 1.145v.384a1.15 1.15 0 0 1-1.151 1.145"/>
            <path fill="#FFF" d="M326.328 87.69s-.966 2.86-5.947 2.86c-5.054 0-6.034-2.86-6.034-2.86h11.981z"/>
            <path fill="#262942" d="M315.327 71.46c-1.383-.113-2.733-.179-4.115-.033-.9.093-2.144.31-2.448.88-.033.06.033.384.073.424.364.37 1.951.066 2.831.033 1.052-.04 2.759-.007 3.877.152.933.132.946-1.357-.218-1.456M325.25 71.46c1.382-.113 2.732-.179 4.114-.033.9.093 2.144.31 2.455.874.026.059-.04.383-.08.43-.363.364-1.95.06-2.831.033-1.045-.04-2.759-.014-3.876.145-.933.133-.94-1.35.218-1.449"/>
            <path fill="#F09F7C" d="M319.455 82.752c.344.166.708.325 1.09.331.603.007 1-.298 1.165-.926.133-.523-.059-1.45-.152-1.953a47.777 47.777 0 0 0-.873-3.76c-.225-.814.999-1.337 1.224-.516.543 1.979 1.7 4.818.992 6.857-.648 1.86-2.401 1.847-3.969 1.192-.787-.33-.271-1.556.523-1.225"/>
        </g>
    </g>
</svg>
