<?xml version="1.0" encoding="UTF-8"?>
<svg width="739px" height="106px" viewBox="0 0 739 106" version="1.1" xmlns="http://www.w3.org/2000/svg" xmlns:xlink="http://www.w3.org/1999/xlink">
    <!-- Generator: sketchtool 52.2 (67145) - http://www.bohemiancoding.com/sketch -->
    <title>D8B7CD4D-369D-45E3-AB7E-1F0FB6A978BB</title>
    <desc>Created with sketchtool.</desc>
    <defs>
        <rect id="path-1" x="0" y="0" width="370.735786" height="257"></rect>
        <rect id="path-3" x="0" y="0" width="370.735786" height="257"></rect>
    </defs>
    <g id="Page-1" stroke="none" stroke-width="1" fill="none" fill-rule="evenodd">
        <g id="1024px---faqs" transform="translate(0.000000, -83.000000)">
            <g id="Group-4" transform="translate(0.000000, 83.000000)">
                <g transform="translate(0.000000, -106.000000)" id="Group-7">
                    <g>
                        <g id="Fill-1">
                            <mask id="mask-2" fill="white">
                                <use xlink:href="#path-1"></use>
                            </mask>
                            <g id="Mask" fill-rule="nonzero"></g>
                            <path d="M268.414654,143.890986 C264.805779,143.523686 261.144139,143.334584 257.437957,143.334584 C230.036473,143.334584 205.053926,153.623417 186.175255,170.523992 C174.898075,147.814419 151.516617,132.116598 124.408764,131.761905 C108.266985,106.947 80.1960111,90.5224158 48.2650165,90.5224158 C-1.78539141,90.5224158 -42.3594599,130.871253 -42.3594599,180.643826 C-42.3594599,230.416399 -1.78539141,270.765236 48.2650165,270.765236 C62.7032601,270.765236 76.3493533,267.401953 88.4635673,261.429067 C98.7580967,267.364814 110.715388,270.765236 123.47134,270.765236 C133.637042,270.765236 143.29463,268.604707 152.00897,264.724206 C159.519667,315.935314 203.857135,355.264706 257.437957,355.264706 C303.357671,355.264706 342.492026,326.378494 357.471961,285.882123 C361.080837,286.249423 364.742819,286.438525 368.448658,286.438525 C427.298377,286.438525 475.005226,238.996502 475.005226,180.473464 C475.005226,121.950426 427.298377,74.5084034 368.448658,74.5084034 C322.528945,74.5084034 283.394589,103.394615 268.414654,143.890986 Z" fill="#F2F6F7" mask="url(#mask-2)"></path>
                        </g>
                        <g id="Fill-1-Copy" transform="translate(553.500000, 128.500000) scale(-1, 1) translate(-553.500000, -128.500000) translate(368.000000, 0.000000)">
                            <mask id="mask-4" fill="white">
                                <use xlink:href="#path-3"></use>
                            </mask>
                            <g id="Mask" fill-rule="nonzero"></g>
                            <path d="M368.448658,74.5084034 C322.528945,74.5084034 283.394589,103.394615 268.414654,143.890986 C264.805779,143.523686 261.144139,143.334584 257.437957,143.334584 C230.036473,143.334584 205.053926,153.623417 186.175255,170.523992 C174.898075,147.814419 151.516617,132.116598 124.408764,131.761905 C108.266985,106.947 80.1960111,90.5224158 48.2650165,90.5224158 C-1.78539141,90.5224158 -42.3594599,130.871253 -42.3594599,180.643826 C-42.3594599,230.416399 -1.78539141,270.765236 48.2650165,270.765236 C62.7032601,270.765236 76.3493533,267.401953 88.4635673,261.429067 C98.7580967,267.364814 110.715388,270.765236 123.47134,270.765236 C133.637042,270.765236 143.29463,268.604707 152.00897,264.724206 C159.519667,315.935314 203.857135,355.264706 257.437957,355.264706 C303.357671,355.264706 342.492026,326.378494 357.471961,285.882123 C361.080837,286.249423 364.742819,286.438525 368.448658,286.438525 C427.298377,286.438525 475.005226,238.996502 475.005226,180.473464 C475.005226,121.950426 427.298377,74.5084034 368.448658,74.5084034" id="Fill-1" fill="#F2F6F7" mask="url(#mask-4)"></path>
                        </g>
                    </g>
                </g>
            </g>
        </g>
    </g>
</svg>