<svg xmlns="http://www.w3.org/2000/svg" xmlns:xlink="http://www.w3.org/1999/xlink" width="376" height="232" viewBox="0 0 376 232">
    <defs>
        <path id="a" d="M0 0h376v87.092H0z"/>
        <path id="c" d="M0 0h376v139.413H0z"/>
        <path id="e" d="M0 250h376V0H0z"/>
        <path id="g" d="M0 .161h19.115V19.41H0z"/>
        <path id="i" d="M0 0h47.027v40.75H0z"/>
        <path id="k" d="M12.578 26.252c-5.784.492-10.867-3.855-11.353-9.71L0 1.781 20.945 0l1.225 14.759c.486 5.855-3.809 11.002-9.592 11.493"/>
        <path id="m" d="M6.699 6.564C3.981 6.74.171 4.239 0 .855L13.056 0c.171 3.384-2.973 6.341-6.357 6.564"/>
    </defs>
    <g fill="none" fill-rule="evenodd" transform="translate(0 -19)">
        <path stroke="#979797" stroke-linecap="square" d="M128.656 68.656l40.294 40.294"/>
        <text fill="#FFF" font-family="Muli-Regular, Muli" font-size="36" letter-spacing="-.375" opacity=".55">
            <tspan x="135.575" y="235">Step 1</tspan>
        </text>
        <path d="M0 251h376V0H0z"/>
        <g opacity=".262" transform="translate(0 163)">
            <mask id="b" fill="#fff">
                <use xlink:href="#a"/>
            </mask>
            <path fill="#005960" d="M319.263 0c-42.96 0-79.572 23.44-93.587 56.3a116.772 116.772 0 0 0-10.27-.45c-25.635 0-49.008 8.348-66.67 22.062-10.55-18.428-32.425-31.166-57.786-31.454C75.85 26.322 49.587 12.995 19.714 12.995c-46.825 0-84.785 32.74-84.785 73.129 0 40.388 37.96 73.129 84.785 73.129 13.507 0 26.274-2.73 37.608-7.576 9.63 4.817 20.817 7.576 32.751 7.576 9.51 0 18.546-1.753 26.699-4.902 7.027 41.555 48.507 73.47 98.635 73.47 42.96 0 79.573-23.44 93.587-56.301 3.376.298 6.802.451 10.27.451 55.057 0 99.69-38.497 99.69-85.985C418.953 38.496 374.32 0 319.263 0" mask="url(#b)"/>
        </g>
        <g opacity=".207" transform="translate(0 110)">
            <mask id="d" fill="#fff">
                <use xlink:href="#c"/>
            </mask>
            <path fill="#005960" d="M319.263 0c-42.96 0-79.572 37.521-93.587 90.124a73.334 73.334 0 0 0-10.27-.723c-25.635 0-49.008 13.365-66.67 35.318-10.55-29.499-32.425-49.89-57.786-50.35C75.85 42.136 49.587 20.8 19.714 20.8c-46.825 0-84.785 52.411-84.785 117.063 0 64.651 37.96 117.062 84.785 117.062 13.507 0 26.274-4.369 37.608-12.127 9.63 7.71 20.817 12.127 32.751 12.127 9.51 0 18.546-2.806 26.699-7.847 7.027 66.52 48.507 117.607 98.635 117.607 42.96 0 79.573-37.522 93.587-90.124 3.376.477 6.802.723 10.27.723 55.057 0 99.69-61.625 99.69-137.643S374.32 0 319.263 0" mask="url(#d)"/>
        </g>
        <path fill="#005960" d="M182 101.302l5.057-2.763c10.33-5.448 4.504-8.12 26.796-2.14 8.535 2.288 38.118 24.595 38.118 24.595s31.367-1.932 40.016-2.413c7.859-.437 17.856 13.302 10.37 17.357L287.015 140l-77.612-5.124L182 101.302zM162 101.58l-5.024-2.801c-10.263-5.524 1.147-8.247-27.597-2.858-8.637 1.62-36.894 25.628-36.894 25.628s-8.793 8.428-17.385 7.94c-7.808-.442-17.942 24.4-10.505 28.511l9.237-17.179L162 101.581z"/>
        <mask id="f" fill="#fff">
            <use xlink:href="#e"/>
        </mask>
        <path fill="#E89561" d="M160 104h25V77h-25z" mask="url(#f)"/>
        <path fill="#1C2C57" d="M165.792 41.979c1.412 1.54 3.127 2.927 5.074 4.1l-7.483-.98a14.296 14.296 0 0 0 2.41-3.12m19.477-20.763c-9.41-4.374-19.745-2.073-23.081 5.139-.101.218-.171.444-.257.666-3.988-1.79-9.245-.928-13.232 2.575-4.055 3.563-5.578 8.789-4.21 13.025-.013-.001 8.416 27.548 8.416 27.548l14.006-3.067L190.635 71l7.26-31.232-.084.025c1.291-6.78-4.144-14.675-12.541-18.577" mask="url(#f)"/>
        <path fill="#E89561" d="M157 69.984l-3.12.016c-3.925.015-5.656-6.127-5.656-6.127-.903-2.905 1.047-6.006 3.69-5.869l4.252-.004.834 11.984zM186 69.984l3.12.016c3.924.015 5.657-6.127 5.657-6.127.902-2.905-1.048-6.006-3.69-5.869L186.832 58 186 69.984z" mask="url(#f)"/>
        <path fill="#FAB08A" d="M172.237 32c-6.827 0-14.25 2.936-17.734 7.439-2.94 3.8-2.487 9.268-2.466 9.445l1.378 24.405c.672 5.127 11.582 12.663 11.582 12.663a12.585 12.585 0 0 0 13.758 0s10.455-6.032 11.907-12.077l1.33-32.012c.288-1.507-7.164-9.863-19.755-9.863" mask="url(#f)"/>
        <path fill="#7F2A1C" d="M162.528 64h-3.056c-.26 0-.472-.172-.472-.381v-3.237c0-.21.213-.382.472-.382h3.056c.26 0 .472.172.472.382v3.237c0 .21-.213.381-.472.381" mask="url(#f)"/>
        <path fill="#F8F8F8" d="M210.131 217.218l-78.35.782L105 130.12C105 113.183 134.723 92 151.606 92l19.912 1.853 19.683-1.75c16.883 0 30.799 13.629 30.799 30.567l-11.869 94.548z" mask="url(#f)"/>
        <g fill="#F8F8F8" mask="url(#f)">
            <path d="M145.089 109.648l-4.503-1.107c-9.159-2.11-.808-6.597-22.15 3.574-6.414 3.057-23.53 27.477-23.53 27.477s-24.75 5.012-31.562 6.435c-6.192 1.293-11.074 14.11-4.415 15.722l12.758-.016 73.402-52.085z"/>
        </g>
        <path fill="#7F2A1C" d="M185.528 64h-3.056c-.26 0-.472-.172-.472-.381v-3.237c0-.21.213-.382.472-.382h3.056c.26 0 .472.172.472.382v3.237c0 .21-.213.381-.472.381" mask="url(#f)"/>
        <path fill="#B75624" d="M187.397 58a1.25 1.25 0 0 1-.197-.015 29 29 0 0 0-3.434-.293c-1.3-.037-1.727-.006-3.015.134-.727.078-1.665-.298-1.745-1.032-.08-.733.715-1.547 1.453-1.627 1.409-.151 1.963-.197 3.376-.149 3.075.105 5.332.963 5.155 2.089-.104.664-.937.893-1.593.893M157.603 58c.065 0 .13-.004.197-.014a28.926 28.926 0 0 1 3.435-.294c1.298-.036 1.726-.006 3.014.134.727.078 1.666-.298 1.745-1.032.08-.734-.715-1.547-1.453-1.627-1.409-.151-1.963-.197-3.376-.149-3.075.105-5.332.963-5.155 2.089.104.664.937.893 1.593.893" mask="url(#f)"/>
        <path fill="#1C2C57" d="M184.327 24.744c-9.518-4.326-19.312-3.441-21.875 1.976-.696 1.471-.768 3.127-.342 4.842-2.427.192-5.159 1.072-7.761 2.648-5.853 3.543-8.82 9.237-6.626 12.718.306.486.703.895 1.164 1.243v7.6c0 1.226 1.023 2.229 2.273 2.229h.183c1.25 0 2.273-1.003 2.273-2.229v-7.879c0-.082-.016-.16-.025-.241v-1.544c0-4.458 3.686-8.071 8.233-8.071h4.132c2.275 2.412 5.383 4.642 9.09 6.327 9.519 4.326 19.806 3.711 22.37-1.706 2.562-5.418-3.57-13.586-13.089-17.913" mask="url(#f)"/>
        <path fill="#FFF" d="M172 94.388l-3.748 4.42c-2.537 2.994-7.179 2.908-9.604-.177L154 92.718 159.77 86 172 94.388zM172 94.06l3.76 4.697c2.572 3.212 7.342 2.93 9.56-.562l3.68-5.798L184.303 86 172 94.06z" mask="url(#f)"/>
        <path fill="#1C2C57" d="M100.135 130.552c-1.551-1.686-3.42-3.064-5.54-3.992l.696-.24c1.013.092 2.05.147 3.13.116 3.08-.088 5.915-.682 8.44-1.672a11.202 11.202 0 0 0 2.82 3.903c-.482.942-.864 1.97-1.118 3.073-2.684-1.61-5.673-2.138-8.428-1.188zm-5.555-4.301l.006.305c-.43-.188-.872-.354-1.321-.504.432.077.869.145 1.315.199zm-9.377-3.405c1.594 1.092 3.412 1.96 5.418 2.575a15.966 15.966 0 0 0-2.41-.2c-2.033 0-3.97.393-5.755 1.085.14-1.342.088-2.639-.128-3.84l2.875.38zm37.947-19.513C116.386 92.756 109.972 89 98.773 89c-9.543 0-19.217 7.286-22.702 14.333C72.585 110.38 66 154.699 66 160.293 66 168.967 67.325 176 76.07 176c8.746 0 15.836-7.033 15.836-15.707a15.57 15.57 0 0 0-.531-3.973 15.788 15.788 0 0 0 6.012-2.607c3.377 4.285 8.27 6.394 12.585 4.906 3.293-1.136 5.544-4.122 6.414-7.889 2.151 1.291 4.496 1.873 6.764 1.565.22 3.831 3.412 6.874 7.33 6.874 4.06 0-.566-45.26-7.33-55.836z" mask="url(#f)"/>
        <path fill="#FFAB78" d="M79 152l-3.872 1.133a19.946 19.946 0 0 0-12.162 15.847l-4.383 22.512A85.905 85.905 0 0 0 57.1 212.07l3.31 45.07s9.773 1.938 14.61 0l-1.08-11.185-.189-43.255L79 152zM122.293 150l3.758 1.358c6.363 3.12 10.601 9.454 11.113 16.609l3.06 22.86a87.901 87.901 0 0 1 .305 20.751l-3.532 33.966-1.501 15.338c-4.897 1.625-8.832-14.009-13.496-16.231l2.62-43.433L122.293 150z" mask="url(#f)"/>
        <path fill="#E89561" d="M87 131.922l-2.72.077c-3.42.092-5.054-5.479-5.054-5.479-.846-2.633.79-5.503 3.097-5.43l3.707-.09.97 10.922zM111.541 133l2.864-.318c3.6-.405 4.518-6.442 4.518-6.442.511-2.865-1.614-5.612-4.022-5.199l-3.901.45.541 11.509z" mask="url(#f)"/>
        <path fill="#FFAB78" d="M100.338 160.987c-5.604.278-10.37-4.08-10.645-9.734L89 137.005 109.295 136l.693 14.249c.275 5.653-4.045 10.46-9.65 10.738" mask="url(#f)"/>
        <path fill="#E89561" d="M89.672 147.77c3.267.935 6.964 1.378 10.861 1.186 3.406-.168 6.603-.813 9.467-1.805L109.309 133 89 134.001l.672 13.769z" mask="url(#f)"/>
        <path fill="#FAB08A" d="M88.633 104.46c-4.185.102-6.01 5.383-6.633 9.604l1.047 19.398c.718 4.64 9.007 10.88 9.007 10.88 1.896 1.172 4.224 2.707 6.451 2.657 2.227-.05 4.97-1.668 6.811-2.923 0 0 9.475-5.166 10.675-10.685l.008-20.54c.054-4.152-3.067-8.933-7.215-8.85-6.144.123-13.98.31-20.15.46" mask="url(#f)"/>
        <path fill="#7F2A1C" d="M88.537 126c-.823.017-1.512-.587-1.53-1.342l-.007-.253c-.018-.756.64-1.388 1.463-1.405.823-.017 1.512.587 1.53 1.342l.007.253c.019.756-.64 1.388-1.463 1.405M108.537 126c-.823.017-1.512-.587-1.53-1.342l-.007-.253c-.018-.756.64-1.388 1.463-1.405.823-.017 1.512.587 1.53 1.342l.007.253c.019.756-.64 1.388-1.463 1.405M111.453 120.998a1.564 1.564 0 0 1-.183-.015c-1.059-.143-.78-.076-1.846-.127-1.212-.06-1.613-.052-2.821.008-.682.033-1.548-.248-1.6-.747-.053-.5.714-1.028 1.407-1.062 1.32-.063 1.84-.08 3.16-.008 2.87.156 3.599.633 3.4 1.39-.118.447-.904.58-1.517.561M86.478 120.996c.058-.003.116-.008.174-.018 1-.157 1.158-.094 2.168-.162 1.15-.08 1.53-.077 2.679-.041.648.02 1.462-.266 1.5-.749.037-.482-.705-.98-1.363-1-1.255-.038-1.75-.044-3 .048-2.72.2-3.82.68-3.611 1.407.123.43.871.543 1.453.515" mask="url(#f)"/>
        <path fill="#F05454" d="M98.98 138.999c-2.498.058-5.921-2.038-5.98-4.72l12-.279c.058 2.682-2.91 4.927-6.02 4.999" mask="url(#f)"/>
        <path fill="#1C2C57" d="M95.769 95.14c-8.939.424-15.196 8.771-14.746 18.882l.07.575c1.216-1.095 3.02.678 12.346-.575 6.217-.835 12.136-3.843 17.756-9.022 1.992-.037 2.15 8.13 3.467 9.618L115 115l-.004-2.23c-.138-10.172-7.632-18.18-16.612-17.754l-2.615.124z" mask="url(#f)"/>
        <path fill="#FAE6BB" d="M101.972 166.862c8.77-1.139 14.996-8.996 13.904-17.55-.014-.106-.041-.207-.057-.312l-31.793 1.662c-.05.912-.033 1.837.087 2.773 1.092 8.554 9.088 14.565 17.859 13.427" mask="url(#f)"/>
        <path fill="#FFF" d="M133 167.104c-.291-11.348-6.522-18.406-17.456-18.094l-31.8 1.523c-10.934.311-15.02 7.85-14.73 19.198l4.151 14.296.136 35.085c2.194.282 37.145 2.22 53.798-.717l1.216-31.234L133 167.104z" mask="url(#f)"/>
        <path fill="#FAB08A" d="M115.74 149.008l-31.766 1.536c-.684.02-1.342.068-1.974.144.606 6.583 9.397 11.134 19.635 10.188 9.249-.855 16.492-5.905 17.365-11.707a21.667 21.667 0 0 0-3.26-.16" mask="url(#f)"/>
        <path fill="#FFF" d="M75.13 153.134a19.957 19.957 0 0 0-12.156 15.857l-4.38 22.527a86.754 86.754 0 0 0-.594 3.488l.645.675a17.178 17.178 0 0 0 14.91 5.139l4.255-37.303L79 152l-3.87 1.134zM140 193.296c-.11-2.502-3.431-26.508-3.431-26.508-.51-6.67-4.73-12.573-11.069-15.482L122 150l1.787 44.174-.235 3.654.306.027c6.06.54 12.014-.312 16.142-4.56" mask="url(#f)"/>
        <path fill="#004060" d="M134 261l-70-.74 2.892-23.194a46.908 46.908 0 0 1 4.084-14.138l1.635-3.483 52.667-.445h1.155c4.68 8.345 6.232 16.64 6.737 26.243L134 261z" mask="url(#f)"/>
        <path fill="#FFF" d="M171.475 80c-3.749.001-7.401-2.038-7.475-4.721L178.999 75c.074 2.683-3.637 4.928-7.524 5" mask="url(#f)"/>
        <path fill="#F09F7C" d="M96.188 126.394c.136-.69 1.226-.398 1.09.291-.13.698-.265 1.462-.033 2.157.299.932 1.345.997 2.215 1.063.717.054.723 1.148 0 1.093-1.13-.085-2.464-.228-3.063-1.284-.576-1.016-.412-2.23-.209-3.32M169.997 70.349c.375.168.772.33 1.19.336.658.007 1.09-.302 1.27-.941.145-.531-.064-1.472-.165-1.982a45.57 45.57 0 0 0-.953-3.818c-.245-.827 1.09-1.358 1.335-.525.592 2.01 1.855 4.893 1.083 6.964-.707 1.888-2.62 1.875-4.33 1.21-.858-.337-.296-1.58.57-1.244" mask="url(#f)"/>
        <g mask="url(#f)">
            <path fill="#1C2C57" d="M315.321 122.23l-.184-.029c-3.787-.541-6.739-3.551-7.055-7.394-.088-1.07-.21-1.973-.36-2.482a19.898 19.898 0 0 0-4.56-7.866c-6.255-6.624-10.63-14.825-12.95-23.673-1.968-7.516-3.795-14.482-3.857-14.651-4.19-11.411-11.843-17.08-26.462-17.135-20.98-.075-26.313 18.864-26.981 29.392-.045.693-.334 2.268-.773 4.304-1.424 6.648-4.824 12.635-9.489 17.547a20.868 20.868 0 0 0-5.693 15.424c.299 6.18-1.854 12.299-6.449 16.394-4.735 4.222-7.529 10.604-6.887 17.623.887 9.526 9.751 18.183 19.223 18.777 11.983.754 21.946-8.843 21.946-20.782 0-4.67-1.529-8.982-4.094-12.456 9.901-1.525 17.492-10.161 17.492-20.587 0-3.272-.755-6.367-2.082-9.123 2.038.652 3.98 1.187 6.457 1.07 3.98-.189 6.458 8.025 6.88 13.191.73 9.046 7.67 16.507 16.552 17.89 2.539.397 4.99.267 7.292-.255a19.804 19.804 0 0 0-.263 7.33c1.352 9.051 8.846 16.112 17.887 16.786 12.001.896 21.929-9.128 21.033-21.25-.677-9.116-7.67-16.676-16.623-18.046"/>
            <path fill="#FFC8A6" d="M313.798 175.069l-19.815 3.914 7.21 37.367h.035l3.308 48.747a38.652 38.652 0 0 0-3.777 18.088l.097 2.583a5.054 5.054 0 0 0 3.132 4.487 5.068 5.068 0 0 0 5.971-1.649l2.857-3.402a14.958 14.958 0 0 0 3.202-12.694l-1.813-8.709 5.98-42.674c.397-3.305-6.387-46.058-6.387-46.058"/>
            <path fill="#FFBE96" d="M271.697 132.888l-.654-33.986-22.942.158.655 33.986z"/>
            <path fill="#F09F7C" d="M249.758 120.968a40.1 40.1 0 0 0 6.449.215c6.547-.304 12.437-2.126 16.801-4.868l-.275-17.413-23.321.16.346 21.906z"/>
            <path fill="#A2D7C5" d="M317.58 506l-10.386-234.34c-1.145-12.026-16.325-43.94-16.325-43.94l-.444-10.628h-60.878l-.444 10.629s-15.18 31.913-16.325 43.939L195.664 506h50.598L258.7 310.4l8.637 195.6h50.244z"/>
            <path fill="#FFC8A6" d="M221.882 190.821l-17.966-14.439-4.98 35.317h.046l-12.535 47.397c-4.437 4.513-7.7 10.007-9.498 16.02l-.742 2.482a4.977 4.977 0 0 0 1.591 5.246 5.256 5.256 0 0 0 6.317.318l3.877-2.34c4.004-2.42 6.652-6.491 7.194-11.057l1.058-8.858 19.575-38.7c1.445-3.02 6.063-31.386 6.063-31.386"/>
            <path fill="#F9EBDB" d="M314.385 178.765l-4.151-30.121c-2.001-13.65-13.68-23.763-27.43-23.763h-8.876v-6.215a4 4 0 0 0-3.993-4.005h-20.537a4 4 0 0 0-3.993 4.005v6.215h-8.822c-12.86 0-24.037 8.877-26.99 21.444l-5.738 27.504-6.54 37.447-8.206 36.934 11.609 2.751 14.279-28.99c1.41-3.025 5.914-31.44 5.914-31.44l8.338 27.584h60.447l6.443-28.23 5.121 26.735.036-.01 2.327 34.626h12.41l4.152-29.822c.326-2.733-4.196-32.271-5.8-42.649"/>
            <path fill="#1C2C57" d="M233.307 80.7c-.15.605-.657 1.954-1.37 3.685-2.328 5.656-6.33 10.414-11.3 14.025-3.778 2.748-6.544 6.889-7.424 11.83-.053.305-.098.61-.134.915-.71 5.514-3.6 10.586-8.384 13.484-4.926 2.987-8.456 8.192-8.98 14.498-.703 8.57 5.921 17.625 14.35 19.643 10.679 2.549 21.162-4.364 23.038-14.926a18.455 18.455 0 0 0-1.725-11.662c9.158.21 17.347-6.232 18.992-15.452.516-2.895.498-7.151-.267-9.797 1.734.897-14.537-35.45-16.796-26.244"/>
            <path fill="#FFBE96" d="M282.366 90.569c-.215.4-.472.82-.762 1.249-1.06 1.552-4.663 4.458-4.663 4.458s.67-1.432 1.069-3.856c.397-2.427.488-10.575.488-10.575s2.501-.155 3.611.558c1.632 1.04 1.955 4.967.257 8.166M236.116 90.569c.216.4.473.82.763 1.249 1.061 1.552 4.667 4.458 4.667 4.458s-.663-1.432-1.06-3.856c-.407-2.427-.498-10.575-.498-10.575s-2.496-.155-3.615.558c-1.625 1.04-1.948 4.967-.257 8.166"/>
            <path fill="#FFC8A6" d="M275.908 102.348s-10.262 9.706-16.013 9.686c-4.28-.014-15.062-8.158-16.269-9.733-2.307-2.997-3.382-5.335-3.364-8.616l-.027-12.304c-.017-9.732 2.863-16.66 13.75-16.622h10.482c6.738.023 15.096.897 15.096 14.782v14.73c-.017 3.01-1.321 5.902-3.655 8.077"/>
            <path fill="#1C2C57" d="M246.279 76.578h-8.666l2.835-15.759h16.83v4.414c0 6.265-4.923 11.345-11 11.345"/>
            <path fill="#262942" d="M250.05 88.397c-1.074-.005-1.96-.766-1.95-1.697v-.56c0-.93.887-1.687 1.972-1.683 1.086.002 1.962.766 1.962 1.696v.56c-.012.93-.898 1.687-1.984 1.684M268.415 88.397c-1.086-.005-1.961-.766-1.961-1.697v-.56c.01-.93.897-1.687 1.982-1.683 1.075.004 1.962.766 1.95 1.696v.56c0 .93-.886 1.687-1.971 1.684"/>
            <path fill="#F07A58" d="M264.928 80.661c1.694-.16 3.358-.232 5.052.03 1.107.171 2.642.553 3.019 1.486.038.094-.045.62-.098.69-.444.592-2.394.061-3.47-.01-1.288-.086-3.388-.077-4.766.157-1.144.193-1.16-2.219.263-2.353M253.608 80.81c-1.694-.24-3.35-.391-5.05-.218-1.114.113-2.657.412-3.064 1.307-.045.09.023.61.068.68.422.6 2.393.177 3.47.16 1.294-.022 3.387.09 4.756.387 1.137.246 1.235-2.114-.18-2.316"/>
            <path fill="#FFF" d="M253.345 98.902s1.317 2.172 3.124 4.075c1.137 1.198 2.28 2.136 4.741 2.136 4.849 0 7.866-6.21 7.866-6.21h-15.731z"/>
            <path fill="#F09F7C" d="M256.275 88.915c.221-.907 2.009-.523 1.786.381-.213.917-.434 1.921-.055 2.833.49 1.225 2.203 1.309 3.63 1.395 1.176.072 1.185 1.509 0 1.436-1.852-.112-4.037-.299-5.019-1.686-.944-1.335-.676-2.929-.342-4.36"/>
        </g>
        <path fill="#FFD874" d="M96 160.924l-3.911 57.647-19.531.429v-18.08c-1.639 0-1.639 1.4-7.201 0-3.708-.933-6.494-2.77-8.357-5.513 1.276-11.271 2.415-18.93 3.417-22.978 2.373-9.582 5.909-15.242 7.595-16.58 4.132-3.28 8.074-5.849 13.015-5.849 1.197 2.57 3.185 5.849 5.08 7.362 2.317 1.066 5.615 2.254 9.893 3.562z" mask="url(#f)"/>
        <g mask="url(#f)">
            <g transform="translate(54 148)">
                <mask id="h" fill="#fff">
                    <use xlink:href="#g"/>
                </mask>
                <path fill="#FFAB78" d="M3.89 4.441C8.264.595 15.876-.355 16.232.401l2.444 5.175c2.071 4.386-3.585 12.19-8.42 13.523-3.873 1.067-7.985-.695-9.73-4.17 0 0-2.489-5.34 3.364-10.488" mask="url(#h)"/>
            </g>
        </g>
        <path fill="#FFD874" d="M142 160.38l-2.904 58.192-19.535.428c-.619-5.744-.928-11.752-.928-18.024-1.64 0-.71 1.396-6.274 0-3.71-.93-6.495-2.763-8.359-5.497 2.726-22.386 5.878-35.415 9.454-39.087 3.929-4.035 8.51-7.392 13.453-7.392 3.209 5.208 8.24 9.002 15.093 11.38z" mask="url(#f)" transform="matrix(-1 0 0 1 246 0)"/>
        <g mask="url(#f)">
            <path fill="#E89561" d="M194.523 162.411l7.118.316a21.483 21.483 0 0 1 18.118 11.55l12.716 21.135c3.827 6.36 8.067 14.901 7.022 17.896-1.046 2.995-5.283 9.742-7.022 9.742-3.527 0-7.258-3.586-11.192-10.757l-26.76-49.882zM164.477 166.355l-4.099.765c-9.018 1.097-15.802 4.518-19.672 11.045l-13.757 20.184c-4.14 6.075-14.788 20.242-17.336 27.109l13.9 2.68 34.181-41.08 6.783-20.703z"/>
            <path fill="#262942" d="M220.008 173.637c-3.503-6.745-9.217-10.511-18.785-11.225h-7.932a23.798 23.798 0 0 0-2.38.077l-29.1 2.376c-.367.03-.707.09-1.061.135l-.353.045c-.786.11-1.542.253-2.268.43l-1.437.272c-8.943 1.102-15.67 4.542-19.508 11.104l-10.59 15.754a22.028 22.028 0 0 0 13.754 11.362l.701.197 5.3-7.5 6.812 63.314 64.446-6.822-3.886-54.097 1.055 1.664 2.83-.257c5.928-.54 10.84-4.8 12.187-10.568l-9.785-16.261z"/>
            <g transform="translate(147.495 98)">
                <mask id="j" fill="#fff">
                    <use xlink:href="#i"/>
                </mask>
                <path fill="#1C2C57" d="M46.138 19.987c.001-.05.01-.098.01-.149.027-4.155-1.452-7.226-3.974-9.388.046-.337.076-.684.085-1.04.005-.073.02-.141.023-.214.002-.049-.02-.079-.024-.123a10.662 10.662 0 0 0-.202-2.112C41.25 3.053 38.535.296 35.99.805c-1.2.24-2.143 1.167-2.725 2.485C31.425.678 28.74-.636 26.755.302c-.918.434-1.537 1.29-1.86 2.379C21.89.093 17.67-.027 15.41 2.443a5.147 5.147 0 0 0-.797 1.19c-.165-.123-.327-.246-.499-.365C9.741.225 4.926-.472 3.36 1.71c-.987 1.375-.447 3.564 1.179 5.757C2.297 7.766.562 8.853.112 10.5c-.655 2.394 1.624 5.108 5.176 6.341-.493 1.45-.702 3.036-.587 4.748-.004 0 1.35 18.9 1.35 18.9l15.538-3.35.197 3.61 25.241-.793-.889-19.97z" mask="url(#j)"/>
            </g>
            <g transform="translate(164.477 147.952)">
                <mask id="l" fill="#fff">
                    <use xlink:href="#k"/>
                </mask>
                <use fill="#FFAB78" xlink:href="#k"/>
                <path fill="#E89561" d="M1.357 13.224c3.862 2.013 5.606 4.042 9.654 4.042 5.273 0 8.339-4.042 11.01-5.708L20.984-2.63 0-.844l1.357 14.068z" mask="url(#l)"/>
            </g>
            <path fill="#E89561" d="M158.983 145.701l-3.077.017c-3.87.015-5.577-6.242-5.577-6.242-.89-2.96 1.032-6.12 3.638-5.98l4.193-.004.823 12.21zM190.604 144.387l3.077.016c3.869.015 5.577-6.242 5.577-6.242.89-2.96-1.033-6.119-3.639-5.98l-4.193-.004-.822 12.21z"/>
            <path fill="#FFAB78" d="M156.986 127.866l-2.443 5.324 1.33 13.754c.998 5.022 10.64 11.498 10.64 11.498 2.195 1.203 6.098 2.726 8.62 2.587 2.523-.14 6.036-2.233 8.073-3.67 0 0 8.867-5.691 10.01-11.742l-.24-14.536-3.403-3.516c-.103-4.52-2.417-7.253-5.055-7.102-6.959.396-15.863.561-22.825 1.264-1.576.16-5.089 1.711-4.707 6.139z"/>
            <path fill="#E5794A" d="M173.932 140.336c-.136.758-.277 1.588-.035 2.343.312 1.013 1.46-.071 2.368 0 .749.06 1.341 1.008.587.948-.568-.045-1.241.567-1.953.725-.767.17-1.563-.13-1.887-.725-.602-1.105-.43-2.424-.218-3.607.141-.75 1.28-.433 1.138.316z"/>
            <path fill="#C97042" d="M183.951 131.85c-.06.004-.12.004-.18-.001-1.05-.079-.77-.02-1.818.019-1.19.042-1.581.092-2.754.286-.662.109-1.54-.163-1.647-.792-.109-.628.582-1.375 1.254-1.485 1.283-.21 1.79-.282 3.085-.32 2.822-.084 3.587.45 3.477 1.432-.064.579-.816.824-1.417.861M162.174 132.04c.066 0 .132-.002.2-.01 1.155-.132 1.328-.03 2.485-.038 1.317-.012 1.75.023 3.053.172.735.085 1.692-.242 1.783-.91.093-.668-.702-1.424-1.449-1.508-1.425-.162-1.986-.213-3.419-.194-3.117.044-4.418.616-4.255 1.647.096.606.937.83 1.602.84"/>
            <g transform="translate(168.396 147.952)">
                <mask id="n" fill="#fff">
                    <use xlink:href="#m"/>
                </mask>
                <use fill="#F05454" xlink:href="#m"/>
                <path fill="#FFF" d="M3.552 2.627c-.465.034-.863-.41-.89-.99L2.613.56 10.4 0l.05 1.08c.027.579-.328 1.076-.793 1.11l-6.104.437z" mask="url(#n)"/>
            </g>
            <path fill="#FFAB78" d="M164.6 175.457a4.535 4.535 0 0 0-6.08-1.172l-4.457 2.968.761-3.898c.387-1.982-1.065-3.939-3.242-4.371l-1.644 8.424-1.962 8.923.238.154-.238-.154-29.552 25.093c-2.319 2.01-8.688 8.315-10.535 12.765 1.088 3.216 2.697 5.413 4.828 6.59 2.13 1.179 5.286 1.764 9.465 1.757 4.283-1.412 6.704-4.997 9.753-8.347l24.474-30.304 5.35-4.42 4.804-3.823a4.632 4.632 0 0 0 .844-6.351l-2.808-3.834zM237.9 211.424c-1.246-.941-12.728-10.366-34.444-28.274l-.111-.182-3.194-16.056c-1.985.076-3.537 1.575-3.468 3.35l.311 3.857-2.88-2.054a4.083 4.083 0 0 0-5.473.834l-2.637 3.3a4.076 4.076 0 0 0 .547 5.65l1.858 2.159 8.434 6.888c22.704 22.024 34.376 33.247 35.015 33.667.959.63 5.955.247 7.468-2.806 1.627-3.282.444-8.922-1.426-10.333z"/>
        </g>
        <circle cx="166" cy="139" r="2" fill="#7F2A1C" mask="url(#f)"/>
        <circle cx="183" cy="139" r="2" fill="#7F2A1C" mask="url(#f)"/>
    </g>
</svg>
