<svg xmlns="http://www.w3.org/2000/svg" xmlns:xlink="http://www.w3.org/1999/xlink" width="497" height="409" viewBox="0 0 497 409">
    <defs>
        <path id="a" d="M.947 407.406H496.65V.001H.947z"/>
        <path id="c" d="M.794.061H70.75v64.736H.794z"/>
        <path id="e" d="M.011.477h125.64V116.74H.01z"/>
        <path id="g" d="M.374.048h75.484v90.876H.374z"/>
        <path id="i" d="M.523.048h57.818v90.876H.523z"/>
        <path id="k" d="M.34.122h84.013v106.323H.34z"/>
        <path id="m" d="M.736.122h71.588v106.323H.736z"/>
        <path id="o" d="M.947 407.79H496.65V.383H.947z"/>
        <path id="p" d="M54.866.384C24.586.384.04 24.928.04 55.204c0 30.277 24.547 54.82 54.826 54.82 30.28 0 54.828-24.543 54.828-54.82"/>
        <path id="r" d="M54.866.384C24.586.384.04 24.928.04 55.204c0 30.277 24.547 54.82 54.826 54.82 30.28 0 54.828-24.543 54.828-54.82"/>
        <path id="t" d="M54.866.384C24.586.384.04 24.928.04 55.204c0 30.277 24.547 54.82 54.826 54.82 30.28 0 54.828-24.543 54.828-54.82 0-30.276-24.547-54.82-54.828-54.82z"/>
        <path id="v" d="M54.866.384C24.586.384.04 24.928.04 55.204c0 30.277 24.547 54.82 54.826 54.82 30.28 0 54.828-24.543 54.828-54.82 0-30.276-24.547-54.82-54.828-54.82z"/>
        <path id="x" d="M54.866.384C24.586.384.04 24.928.04 55.204c0 30.277 24.547 54.82 54.826 54.82 30.28 0 54.828-24.543 54.828-54.82"/>
        <path id="z" d="M54.866.384C24.586.384.04 24.928.04 55.204c0 30.277 24.547 54.82 54.826 54.82 30.28 0 54.828-24.543 54.828-54.82 0-30.276-24.547-54.82-54.828-54.82z"/>
        <path id="B" d="M54.866.384C24.586.384.04 24.928.04 55.204c0 30.277 24.547 54.82 54.826 54.82 30.28 0 54.828-24.543 54.828-54.82 0-30.276-24.547-54.82-54.828-54.82z"/>
        <path id="D" d="M54.866.384C24.586.384.04 24.928.04 55.204c0 30.277 24.547 54.82 54.826 54.82 30.28 0 54.828-24.543 54.828-54.82"/>
        <path id="F" d="M54.866.384C24.586.384.04 24.928.04 55.204c0 30.277 24.547 54.82 54.826 54.82 30.28 0 54.828-24.543 54.828-54.82 0-30.276-24.547-54.82-54.828-54.82z"/>
        <path id="H" d="M54.866.384C24.586.384.04 24.928.04 55.204c0 30.277 24.547 54.82 54.826 54.82 30.28 0 54.828-24.543 54.828-54.82"/>
        <path id="J" d="M54.866.384C24.586.384.04 24.928.04 55.204c0 30.277 24.547 54.82 54.826 54.82 30.28 0 54.828-24.543 54.828-54.82"/>
        <path id="L" d="M54.866.384C24.586.384.04 24.928.04 55.204c0 30.277 24.547 54.82 54.826 54.82 30.28 0 54.828-24.543 54.828-54.82"/>
        <path id="N" d="M54.866.384C24.586.384.04 24.928.04 55.204c0 30.277 24.547 54.82 54.826 54.82 30.28 0 54.828-24.543 54.828-54.82"/>
        <path id="P" d="M54.866.384C24.586.384.04 24.928.04 55.204c0 30.277 24.547 54.82 54.826 54.82 30.28 0 54.828-24.543 54.828-54.82"/>
        <path id="R" d="M54.866.384C24.586.384.04 24.928.04 55.204c0 30.277 24.547 54.82 54.826 54.82 30.28 0 54.828-24.543 54.828-54.82"/>
        <path id="T" d="M54.866.384C24.586.384.04 24.928.04 55.204c0 30.277 24.547 54.82 54.826 54.82 30.28 0 54.828-24.543 54.828-54.82"/>
        <path id="V" d="M54.866.384C24.586.384.04 24.928.04 55.204c0 30.277 24.547 54.82 54.826 54.82 30.28 0 54.828-24.543 54.828-54.82"/>
        <path id="X" d="M54.866.384C24.586.384.04 24.928.04 55.204c0 30.277 24.547 54.82 54.826 54.82 30.28 0 54.828-24.543 54.828-54.82"/>
        <path id="Z" d="M54.866.384C24.586.384.04 24.928.04 55.204c0 30.277 24.547 54.82 54.826 54.82 30.28 0 54.828-24.543 54.828-54.82"/>
        <path id="ab" d="M54.866.384C24.586.384.04 24.928.04 55.204c0 30.277 24.547 54.82 54.826 54.82 30.28 0 54.828-24.543 54.828-54.82"/>
        <path id="ad" d="M.786.384h108.996v108.98H.786z"/>
        <path id="af" d="M54.924.384C24.991.576.785 24.898.785 54.874c0 30.093 24.4 54.49 54.497 54.49 30.1 0 54.5-24.397 54.5-54.49 0-29.976-24.206-54.298-54.141-54.49h-.717z"/>
        <path id="ah" d="M54.924.384C24.991.576.785 24.898.785 54.874c0 30.093 24.4 54.49 54.497 54.49 30.1 0 54.5-24.397 54.5-54.49 0-29.976-24.206-54.298-54.141-54.49h-.717z"/>
        <path id="aj" d="M54.924.384C24.991.576.785 24.898.785 54.874c0 30.093 24.4 54.49 54.497 54.49 30.1 0 54.5-24.397 54.5-54.49 0-29.976-24.206-54.298-54.141-54.49h-.717z"/>
        <path id="al" d="M54.924.384C24.991.576.785 24.898.785 54.874c0 30.093 24.4 54.49 54.497 54.49 30.1 0 54.5-24.397 54.5-54.49 0-29.976-24.206-54.298-54.141-54.49h-.717z"/>
        <path id="an" d="M54.924.384C24.991.576.785 24.898.785 54.874c0 30.093 24.4 54.49 54.497 54.49 30.1 0 54.5-24.397 54.5-54.49 0-29.976-24.206-54.298-54.141-54.49h-.717z"/>
        <path id="ap" d="M54.924.384C24.991.576.785 24.898.785 54.874c0 30.093 24.4 54.49 54.497 54.49 30.1 0 54.5-24.397 54.5-54.49 0-29.976-24.206-54.298-54.141-54.49"/>
        <path id="ar" d="M54.924.384C24.991.576.785 24.898.785 54.874c0 30.093 24.4 54.49 54.497 54.49 30.1 0 54.5-24.397 54.5-54.49 0-29.976-24.206-54.298-54.141-54.49h-.717z"/>
        <path id="at" d="M54.924.384C24.991.576.785 24.898.785 54.874c0 30.093 24.4 54.49 54.497 54.49 30.1 0 54.5-24.397 54.5-54.49 0-29.976-24.206-54.298-54.141-54.49"/>
        <path id="av" d="M54.924.384C24.991.576.785 24.898.785 54.874c0 30.093 24.4 54.49 54.497 54.49 30.1 0 54.5-24.397 54.5-54.49 0-29.976-24.206-54.298-54.141-54.49"/>
        <path id="ax" d="M54.924.384C24.991.576.785 24.898.785 54.874c0 30.093 24.4 54.49 54.497 54.49 30.1 0 54.5-24.397 54.5-54.49 0-29.976-24.206-54.298-54.141-54.49"/>
        <path id="az" d="M54.924.384C24.991.576.785 24.898.785 54.874c0 30.093 24.4 54.49 54.497 54.49 30.1 0 54.5-24.397 54.5-54.49 0-29.976-24.206-54.298-54.141-54.49"/>
        <path id="aB" d="M54.924.384C24.991.576.785 24.898.785 54.874c0 30.093 24.4 54.49 54.497 54.49 30.1 0 54.5-24.397 54.5-54.49 0-29.976-24.206-54.298-54.141-54.49"/>
        <path id="aD" d="M54.924.384C24.991.576.785 24.898.785 54.874c0 30.093 24.4 54.49 54.497 54.49 30.1 0 54.5-24.397 54.5-54.49 0-29.976-24.206-54.298-54.141-54.49"/>
        <path id="aF" d="M54.924.384C24.991.576.785 24.898.785 54.874c0 30.093 24.4 54.49 54.497 54.49 30.1 0 54.5-24.397 54.5-54.49 0-29.976-24.206-54.298-54.141-54.49"/>
        <path id="aH" d="M54.924.384C24.991.576.785 24.898.785 54.874c0 30.093 24.4 54.49 54.497 54.49 30.1 0 54.5-24.397 54.5-54.49 0-29.976-24.206-54.298-54.141-54.49"/>
        <path id="aJ" d="M54.924.384C24.991.576.785 24.898.785 54.874c0 30.093 24.4 54.49 54.497 54.49 30.1 0 54.5-24.397 54.5-54.49 0-29.976-24.206-54.298-54.141-54.49h-.717z"/>
        <path id="aL" d="M54.924.384C24.991.576.785 24.898.785 54.874c0 30.093 24.4 54.49 54.497 54.49 30.1 0 54.5-24.397 54.5-54.49 0-29.976-24.206-54.298-54.141-54.49"/>
        <path id="aN" d="M54.924.384C24.991.576.785 24.898.785 54.874c0 30.093 24.4 54.49 54.497 54.49 30.1 0 54.5-24.397 54.5-54.49 0-29.976-24.206-54.298-54.141-54.49h-.717z"/>
        <path id="aP" d="M54.924.384C24.991.576.785 24.898.785 54.874c0 30.093 24.4 54.49 54.497 54.49 30.1 0 54.5-24.397 54.5-54.49 0-29.976-24.206-54.298-54.141-54.49"/>
        <path id="aR" d="M54.924.384C24.991.576.785 24.898.785 54.874c0 30.093 24.4 54.49 54.497 54.49 30.1 0 54.5-24.397 54.5-54.49 0-29.976-24.206-54.298-54.141-54.49h-.717z"/>
        <path id="aT" d="M.947 74.554c0 41.167 33.378 74.54 74.553 74.54 41.173 0 74.552-33.373 74.552-74.54C150.052 33.385 116.673.012 75.5.012 34.325.012.947 33.385.947 74.554z"/>
        <path id="aV" d="M.947 74.554c0 41.167 33.378 74.54 74.553 74.54 41.173 0 74.552-33.373 74.552-74.54C150.052 33.385 116.673.012 75.5.012 34.325.012.947 33.385.947 74.554"/>
        <path id="aX" d="M.947 74.554c0 41.167 33.378 74.54 74.553 74.54 41.173 0 74.552-33.373 74.552-74.54C150.052 33.385 116.673.012 75.5.012 34.325.012.947 33.385.947 74.554z"/>
        <path id="aZ" d="M.947 74.554c0 41.167 33.378 74.54 74.553 74.54 41.173 0 74.552-33.373 74.552-74.54C150.052 33.385 116.673.012 75.5.012 34.325.012.947 33.385.947 74.554z"/>
        <path id="bb" d="M.947 74.554c0 41.167 33.378 74.54 74.553 74.54 41.173 0 74.552-33.373 74.552-74.54C150.052 33.385 116.673.012 75.5.012 34.325.012.947 33.385.947 74.554"/>
        <path id="bd" d="M.947 74.554c0 41.167 33.378 74.54 74.553 74.54 41.173 0 74.552-33.373 74.552-74.54C150.052 33.385 116.673.012 75.5.012 34.325.012.947 33.385.947 74.554z"/>
        <path id="bf" d="M.947 74.554c0 41.167 33.378 74.54 74.553 74.54 41.173 0 74.552-33.373 74.552-74.54C150.052 33.385 116.673.012 75.5.012 34.325.012.947 33.385.947 74.554"/>
        <path id="bh" d="M.947 74.554c0 41.167 33.378 74.54 74.553 74.54 41.173 0 74.552-33.373 74.552-74.54C150.052 33.385 116.673.012 75.5.012 34.325.012.947 33.385.947 74.554"/>
        <path id="bj" d="M.947 74.554c0 41.167 33.378 74.54 74.553 74.54 41.173 0 74.552-33.373 74.552-74.54C150.052 33.385 116.673.012 75.5.012 34.325.012.947 33.385.947 74.554"/>
        <path id="bl" d="M.947 74.554c0 41.167 33.378 74.54 74.553 74.54 41.173 0 74.552-33.373 74.552-74.54C150.052 33.385 116.673.012 75.5.012 34.325.012.947 33.385.947 74.554"/>
        <path id="bn" d="M.947 74.554c0 41.167 33.378 74.54 74.553 74.54 41.173 0 74.552-33.373 74.552-74.54C150.052 33.385 116.673.012 75.5.012 34.325.012.947 33.385.947 74.554z"/>
        <path id="bp" d="M.947 74.554c0 41.167 33.378 74.54 74.553 74.54 41.173 0 74.552-33.373 74.552-74.54C150.052 33.385 116.673.012 75.5.012 34.325.012.947 33.385.947 74.554z"/>
        <path id="br" d="M.947 74.554c0 41.167 33.378 74.54 74.553 74.54 41.173 0 74.552-33.373 74.552-74.54C150.052 33.385 116.673.012 75.5.012 34.325.012.947 33.385.947 74.554"/>
        <path id="bt" d="M.947 74.554c0 41.167 33.378 74.54 74.553 74.54 41.173 0 74.552-33.373 74.552-74.54C150.052 33.385 116.673.012 75.5.012 34.325.012.947 33.385.947 74.554z"/>
        <path id="bv" d="M.947 74.554c0 41.167 33.378 74.54 74.553 74.54 41.173 0 74.552-33.373 74.552-74.54C150.052 33.385 116.673.012 75.5.012 34.325.012.947 33.385.947 74.554"/>
        <path id="bx" d="M.947 74.554c0 41.167 33.378 74.54 74.553 74.54 41.173 0 74.552-33.373 74.552-74.54C150.052 33.385 116.673.012 75.5.012 34.325.012.947 33.385.947 74.554"/>
        <path id="bz" d="M.947 74.554c0 41.167 33.378 74.54 74.553 74.54 41.173 0 74.552-33.373 74.552-74.54C150.052 33.385 116.673.012 75.5.012 34.325.012.947 33.385.947 74.554"/>
        <path id="bB" d="M.947 74.554c0 41.167 33.378 74.54 74.553 74.54 41.173 0 74.552-33.373 74.552-74.54C150.052 33.385 116.673.012 75.5.012 34.325.012.947 33.385.947 74.554"/>
        <path id="bD" d="M.947 74.554c0 41.167 33.378 74.54 74.553 74.54 41.173 0 74.552-33.373 74.552-74.54C150.052 33.385 116.673.012 75.5.012 34.325.012.947 33.385.947 74.554"/>
        <path id="bF" d="M.947 74.554c0 41.167 33.378 74.54 74.553 74.54 41.173 0 74.552-33.373 74.552-74.54C150.052 33.385 116.673.012 75.5.012 34.325.012.947 33.385.947 74.554"/>
        <path id="bH" d="M.947 74.554c0 41.167 33.378 74.54 74.553 74.54 41.173 0 74.552-33.373 74.552-74.54C150.052 33.385 116.673.012 75.5.012 34.325.012.947 33.385.947 74.554"/>
    </defs>
    <g fill="none" fill-rule="evenodd">
        <path fill="#005960" d="M1 409h496v-69H1z"/>
        <g transform="translate(0 .297)">
            <mask id="b" fill="#fff">
                <use xlink:href="#a"/>
            </mask>
            <path fill="#005960" d="M536.357 12.975c-78.665 0-145.706 49.792-171.368 119.598a184.526 184.526 0 0 0-18.804-.959c-46.942 0-89.74 17.736-122.08 46.868-19.319-39.146-59.374-66.205-105.812-66.816C90.641 68.89 42.553 40.579-12.148 40.579c-85.742 0-155.249 69.552-155.249 155.347 0 85.796 69.507 155.348 155.249 155.348 24.734 0 48.11-5.798 68.863-16.093 17.636 10.231 38.12 16.093 59.972 16.093 17.415 0 33.96-3.724 48.888-10.413 12.866 88.275 88.82 156.07 180.61 156.07 78.665 0 145.705-49.793 171.367-119.6 6.183.634 12.456.96 18.805.96 100.815 0 182.541-81.779 182.541-182.658 0-100.88-81.726-182.658-182.541-182.658" mask="url(#b)" opacity=".05"/>
        </g>
        <g transform="translate(298.46 206.212)">
            <mask id="d" fill="#fff">
                <use xlink:href="#c"/>
            </mask>
            <path fill="#005960" d="M5.093 51.646C-1.232 44.408-.491 33.415 6.748 27.09a17.406 17.406 0 0 1 11.534-4.296c.316 0 .61.076.92.09a17.377 17.377 0 0 1-.92-5.336c0-9.658 7.83-17.487 17.49-17.487C45.43.061 53.26 7.89 53.26 17.548a17.262 17.262 0 0 1-.92 5.337c.312 0 .606-.091.92-.091 9.612-.045 17.444 7.707 17.489 17.319.02 4.24-1.508 8.34-4.3 11.533 6 6.837 5.686 17.148-.718 23.606 6.76 6.897 6.65 17.969-.248 24.728a17.482 17.482 0 0 1-12.223 4.998H18.282C8.625 104.97.803 97.131.815 87.473c.005-4.57 1.8-8.957 5-12.221-6.407-6.458-6.721-16.769-.722-23.606" mask="url(#d)"/>
        </g>
        <g transform="translate(360.747 150.421)">
            <mask id="f" fill="#fff">
                <use xlink:href="#e"/>
            </mask>
            <path fill="#005960" d="M7.733 93.12c-11.36-12.998-10.03-32.741 2.971-44.1a31.26 31.26 0 0 1 20.717-7.718c.565 0 1.094.139 1.652.164a31.085 31.085 0 0 1-1.652-9.585c0-17.344 14.063-31.404 31.41-31.404s31.41 14.06 31.41 31.404a31.085 31.085 0 0 1-1.652 9.585c.558 0 1.086-.164 1.652-.164 17.263-.082 31.325 13.844 31.407 31.104a31.253 31.253 0 0 1-7.719 20.714c10.775 12.278 10.209 30.798-1.294 42.398 12.143 12.387 11.944 32.27-.445 44.41a31.402 31.402 0 0 1-21.95 8.978H31.422C14.076 188.888.03 174.81.048 157.466a31.399 31.399 0 0 1 8.978-21.948c-11.502-11.6-12.068-30.12-1.293-42.398" mask="url(#f)"/>
        </g>
        <g transform="translate(329.603 169.648)">
            <mask id="h" fill="#fff">
                <use xlink:href="#g"/>
            </mask>
            <path fill="#59C09C" d="M75.858 82.657S66.478 16.413 22.331.048C-20.77 36.764 12.878 91.05 12.878 91.05l47.561 34.08 15.419-42.473z" mask="url(#h)"/>
        </g>
        <g transform="translate(332.198 169.648)">
            <mask id="j" fill="#fff">
                <use xlink:href="#i"/>
            </mask>
            <path fill="#006769" d="M57.564 36.05L38.557 58.83 20.772.454c-.344-.135-.688-.276-1.036-.406-.17.144-.328.292-.495.436l9.526 31.267-25.1-11.396c-.115.236-.221.472-.332.708l-.286.63 26.289 11.934L45.212 85.73.523 67.136c.159.606.32 1.208.486 1.799l44.76 18.622 11.272 36.998.803.576.497-1.368L39.07 60.514 58.313 37.45c-.245-.467-.496-.935-.749-1.4" mask="url(#j)"/>
        </g>
        <g transform="translate(378.914 154.127)">
            <mask id="l" fill="#fff">
                <use xlink:href="#k"/>
            </mask>
            <path fill="#004966" d="M65.312 111.391s39.282-66.36 5.001-111.27C-23.029 27.312 3.964 119.028 3.964 119.028l61.348-7.636z" mask="url(#l)"/>
        </g>
        <g transform="translate(390.593 154.127)">
            <mask id="n" fill="#fff">
                <use xlink:href="#m"/>
            </mask>
            <path fill="#59C09C" d="M58.634.122c-.325.094-.641.192-.964.29l-25.284 87.27L1.708 40.037a83.48 83.48 0 0 0-.972 1.62l31.026 48.181-7.294 25.184 1.827-.227 14.543-50.204v.001l31.316-9.926c.062-.608.12-1.217.17-1.829l-30.92 9.8L59.265.982c-.211-.286-.412-.576-.63-.86" mask="url(#n)"/>
        </g>
        <path fill="#FFEDDC" d="M304.347 337.647h129.625l41.787-77.514H299.506z"/>
        <path fill="#00756F" d="M299.813 271.127h186.392v-10.995H299.813z"/>
        <path fill="#71D8B8" d="M293.198 278.902l-6.92-4.346 21.596-9.629-8.94-20.35c-4.133-8.68-14.808-15.718-25.006-15.723h-44.456c-10.196.005-20.87 7.043-25.005 15.723l-8.938 20.35 21.596 9.629-6.92 4.346-3.837 33.073 45.332-.711 45.335.71-3.837-33.072z"/>
        <path fill="#FAB08A" d="M307.874 264.927l4.456 14.725c3.252 10.743-.22 22.276-8.991 29.88l-20.227 15.796-6.505-17.677 11.188-10.434c3.675-3.427 4.77-8.576 2.775-13.046l-4.293-9.614 21.597-9.63zM219.565 359.724l-18.014 2.446-3.47-3.81 1.761-6.903 17.313-2.498z"/>
        <path fill="#FFF" d="M201.551 362.17l-22.673 2.795s-22.317 2.896-19.103-9.4c3.108-11.874 23.14-6.606 23.14-6.606l18.636 2.252c-2.24 3.047-2.343 7.415-.258 10.57l.258.389z"/>
        <path fill="#FFF" d="M159.774 355.566c1.254-4.78 5.248-6.78 9.573-7.466v16.939c-5.615-.634-11.305-2.842-9.573-9.473"/>
        <path fill="#FAB08A" d="M195.751 264.927l-4.456 14.725c-3.253 10.743.218 22.276 8.99 29.88l20.227 15.796 6.505-17.677-11.188-10.434c-3.675-3.427-4.768-8.576-2.775-13.046l4.293-9.614-21.596-9.63zM285.774 361.075l18.317 1.095 3.467-3.81-1.76-6.903-17.313-2.498z"/>
        <path fill="#FFF" d="M304.091 362.17l22.674 2.795s22.317 2.896 19.099-9.4c-3.104-11.874-23.14-6.606-23.14-6.606l-18.633 2.252c2.239 3.047 2.341 7.415.256 10.57l-.256.389z"/>
        <path fill="#FFF" d="M345.864 355.566c-1.25-4.78-5.244-6.78-9.569-7.466v16.939c5.611-.634 11.303-2.842 9.57-9.473"/>
        <path fill="#005960" d="M217.437 331.195h74.729v-44.72h-74.73z"/>
        <g>
            <path fill="#C0ABC3" d="M217.437 333.058h74.729v-3.726h-74.73z"/>
            <path fill="#FFF" d="M251.81 304.719a2.99 2.99 0 0 0 5.98 0 2.99 2.99 0 1 0-5.98 0"/>
            <path fill="#1C2C57" d="M345.664 319.262c14.93 26.587-135.438 42.907-135.438 42.907l-2.55-11.842s119.577-63.853 137.988-31.065"/>
            <path fill="#004472" d="M159.978 319.262c-12.684 27.73 136.686 44.358 136.686 44.358l1.11-13.322s-122.801-63.824-137.796-31.036"/>
            <path fill="#F79C82" d="M259.574 228.759c-1.383-4.194-3.894-16.625-3.894-16.625l-16.001 3.127v13.568s5.308 3.766 9.776 3.803c4.88.04 10.293-3.402 10.12-3.873"/>
            <path fill="#FAB08A" d="M259.587 190.11l-3.017-17.77-30.748 3.637 1.865 20.477s2.376 25.337 18.742 22.324c17.705-3.26 13.943-28.892 13.158-28.667"/>
            <path fill="#004472" d="M266.765 187.68c-.41-2.155.163-5.52 1.308-7.392 5.312-8.69-2.725-11.216-5.53-11.966-3.1-.83-4.085-5.654-8.249-7.194-6.357-2.351-9.938 3.338-13.386 3.777-3.448.438-6.853-3.245-10.854.564-4 3.807-2.289 7.357-3.305 9.408-1.013 2.055-5.187-1.388-8.22 5.04-2.305 4.886.24 7.754 3.364 9.4 3.636 1.913 7.982 1.913 11.754.284a53.1 53.1 0 0 0 12.332-7.492c1.196-.974 10.582-1.62 11.36-.29 2.644 4.517 2.86 19.542 2.86 19.542l.33-.462c1.167-1.632 2.471-3.158 3.831-4.63 1.396-1.512 3.207-4.378 2.405-8.588"/>
            <path fill="#009792" d="M314.555 122.78a3.34 3.34 0 1 1-6.681.002 3.34 3.34 0 0 1 6.68-.001M334.349 107.4c0 5.302-4.3 9.601-9.604 9.601-5.305 0-9.605-4.299-9.605-9.601 0-5.304 4.3-9.603 9.605-9.603 5.305 0 9.604 4.299 9.604 9.603"/>
            <path fill="#005960" d="M426.321 55.12c0 30.276-24.547 54.819-54.828 54.819-30.28 0-54.827-24.543-54.827-54.82 0-30.276 24.547-54.82 54.827-54.82 30.28 0 54.828 24.544 54.828 54.82"/>
        </g>
        <g>
            <g transform="translate(316.627 -.085)">
                <mask id="q" fill="#fff">
                    <use xlink:href="#p"/>
                </mask>
                <path fill="#FFB385" d="M37.584 178.435l-1.055-3.952-2.254-7.817-5.332-33.287a17.556 17.556 0 0 1 .093-6.085L36.74 84.04s-1.361-.732-2.406-.287c-6.01 2.563-9.445 9.041-10.295 15.518l-7.313 24.94a17.583 17.583 0 0 0 .183 8.89l10.341 36.42-.726 5.95 2.248 5.77a3.049 3.049 0 0 0 3.72 1.812l3.024-.911a3.046 3.046 0 0 0 2.069-3.706" mask="url(#q)"/>
            </g>
            <g transform="translate(316.627 -.085)">
                <mask id="s" fill="#fff">
                    <use xlink:href="#r"/>
                </mask>
                <path fill="#FAE6BB" d="M49.975 91.605c1.585 3.367 12.45 45.795 12.45 45.795l-8.987.813L37.291 97.93s11.098-9.693 12.684-6.326" mask="url(#s)"/>
            </g>
            <g transform="translate(316.627 -.085)">
                <mask id="u" fill="#fff">
                    <use xlink:href="#t"/>
                </mask>
                <path fill="#FAE6BB" d="M55.898 147.485l-2.46-9.272 8.764-1.465 4.416 5.67z" mask="url(#u)"/>
            </g>
            <g transform="translate(316.627 -.085)">
                <mask id="w" fill="#fff">
                    <use xlink:href="#v"/>
                </mask>
                <path fill="#FFEDDC" d="M81.862 157.08l-51.12 2.957-2.124-61.888c-.37-10.212 4.5-17.414 14.714-17.784l23.956-.806c10.215-.37 16.347 7.592 16.717 17.804l-2.143 59.717z" mask="url(#w)"/>
            </g>
            <g transform="translate(316.627 -.085)">
                <mask id="y" fill="#fff">
                    <use xlink:href="#x"/>
                </mask>
                <path fill="#004472" d="M66.74 35.695a9.897 9.897 0 0 0-2.95-.477c-.05-1.713-1.4-3.213-3.263-3.477a3.872 3.872 0 0 0-2.965.785c-.069.055-.135.12-.201.199-.76.904-2.01 1.204-3.016.58-.976-.604-2.158-1.04-3.463-1.224-3.805-.538-7.208 1.263-7.598 4.024a3.605 3.605 0 0 0-.03.646 4.513 4.513 0 0 0-1.456-.318 4.54 4.54 0 0 0-4.705 4.363 4.498 4.498 0 0 0 .847 2.783c-.859.854-1.264 1.934-.957 2.89.3.942 1.227 1.523 2.376 1.658l-.106 12.369 11.813-1.625-.069 2.751 18.908.89.535-15.206c.004-.038.013-.074.015-.113a11.1 11.1 0 0 0-.092-2.78c.798-.491 1.387-1.167 1.655-2.005.804-2.521-1.559-5.527-5.278-6.713" mask="url(#y)"/>
            </g>
            <g transform="translate(316.627 -.085)">
                <mask id="A" fill="#fff">
                    <use xlink:href="#z"/>
                </mask>
                <path fill="#FAB08A" d="M44.281 65.38l-2.224-.037c-2.797-.048-3.933-4.58-3.933-4.58-.599-2.143.84-4.388 2.72-4.247l2.732-.328.705 9.191z" mask="url(#A)"/>
            </g>
            <g transform="translate(316.627 -.085)">
                <mask id="C" fill="#fff">
                    <use xlink:href="#B"/>
                </mask>
                <path fill="#FAB08A" d="M65.037 66.39l2.219-.145c2.79-.188 3.702-4.768 3.702-4.768.49-2.172-1.056-4.343-2.927-4.109l-3.024.211.03 8.812z" mask="url(#C)"/>
            </g>
            <g transform="translate(316.627 -.085)">
                <mask id="E" fill="#fff">
                    <use xlink:href="#D"/>
                </mask>
                <path fill="#FAB08A" d="M54.955 88.134a8.007 8.007 0 0 1-8.047-7.967l-.056-11.144 16.016-.08.056 11.145a8.01 8.01 0 0 1-7.969 8.046" mask="url(#E)"/>
            </g>
            <g transform="translate(316.627 -.085)">
                <mask id="G" fill="#fff">
                    <use xlink:href="#F"/>
                </mask>
                <path fill="#F09C69" d="M46.895 77.74c2.54.845 5.434 1.322 8.506 1.306a27.052 27.052 0 0 0 7.512-1.085l-.055-11.103-16.016.08.053 10.803z" mask="url(#G)"/>
            </g>
            <g transform="translate(316.627 -.085)">
                <mask id="I" fill="#fff">
                    <use xlink:href="#H"/>
                </mask>
                <path fill="#FAB08A" d="M46.99 45.13c-1.11.028-3.658.963-3.646 4.208l-2.015 3.74.267 13.066c.408 3.712 6.78 8.96 6.78 8.96 1.467.996 3.265 2.298 5.036 2.336 1.773.039 4.013-1.15 5.52-2.084 0 0 7.714-3.77 8.862-8.113l.54-13.574-2.176-2.748c.188-3.295-1.274-5.413-3.129-5.45-4.89-.097-11.128-.468-16.039-.34" mask="url(#I)"/>
            </g>
            <g transform="translate(316.627 -.085)">
                <mask id="K" fill="#fff">
                    <use xlink:href="#J"/>
                </mask>
                <path fill="#7F2A1C" d="M46.64 61.264a1.272 1.272 0 0 1-1.24-1.295l.005-.233a1.272 1.272 0 0 1 1.295-1.24 1.271 1.271 0 0 1 1.24 1.294l-.006.234a1.272 1.272 0 0 1-1.293 1.24" mask="url(#K)"/>
            </g>
            <g transform="translate(316.627 -.085)">
                <mask id="M" fill="#fff">
                    <use xlink:href="#L"/>
                </mask>
                <path fill="#7F2A1C" d="M62.348 61.606a1.27 1.27 0 0 1-1.24-1.293l.006-.235a1.27 1.27 0 0 1 1.294-1.24 1.272 1.272 0 0 1 1.24 1.294l-.005.235a1.271 1.271 0 0 1-1.295 1.24" mask="url(#M)"/>
            </g>
            <g transform="translate(316.627 -.085)">
                <mask id="O" fill="#fff">
                    <use xlink:href="#N"/>
                </mask>
                <path fill="#B75624" d="M63.445 56.526a1.023 1.023 0 0 1-.14-.013c-.815-.122-.6-.062-1.42-.097-.932-.043-1.239-.028-2.166.04-.522.04-1.192-.214-1.24-.682-.046-.467.535-.973 1.066-1.012 1.013-.075 1.411-.097 2.425-.046 2.207.113 2.774.553 2.632 1.267-.085.419-.686.554-1.157.543" mask="url(#O)"/>
            </g>
            <g transform="translate(316.627 -.085)">
                <mask id="Q" fill="#fff">
                    <use xlink:href="#P"/>
                </mask>
                <path fill="#B75624" d="M45.615 55.875c.046.005.093.007.14.005.825-.028.941.052 1.759.112.932.066 1.235.114 2.147.29.516.1 1.209-.073 1.31-.534.102-.458-.417-1.028-.941-1.129-.997-.192-1.391-.26-2.403-.325-2.205-.143-3.156.183-3.098.907.034.428.618.63 1.086.674" mask="url(#Q)"/>
            </g>
            <g transform="translate(316.627 -.085)">
                <mask id="S" fill="#fff">
                    <use xlink:href="#R"/>
                </mask>
                <path fill="#FFF" d="M53.866 72.109c-2.051-.043-4.785-1.92-4.736-4.161l9.856.21c-.048 2.242-2.565 4.007-5.12 3.95" mask="url(#S)"/>
            </g>
            <g transform="translate(316.627 -.085)">
                <mask id="U" fill="#fff">
                    <use xlink:href="#T"/>
                </mask>
                <path fill="#004472" d="M40.261 56.65l-.668.004-.043-11.638 3.774-1.101.037 9.61a3.115 3.115 0 0 1-3.1 3.126" mask="url(#U)"/>
            </g>
            <g transform="translate(316.627 -.085)">
                <mask id="W" fill="#fff">
                    <use xlink:href="#V"/>
                </mask>
                <path fill="#004472" d="M69.312 57.415l.667.004.053-11.639-3.775-1.104-.043 9.61a3.116 3.116 0 0 0 3.098 3.129" mask="url(#W)"/>
            </g>
            <g transform="translate(316.627 -.085)">
                <mask id="Y" fill="#fff">
                    <use xlink:href="#X"/>
                </mask>
                <path fill="#FFEDDC" d="M24.086 96.059l-7.845 26.053c2.214 3.761 13.31 3.249 13.311 3.245l10.13-44.232s-2.236.441-3.304.825c-6.15 2.21-11.068 7.691-12.292 14.109" mask="url(#Y)"/>
            </g>
            <g transform="translate(316.627 -.085)">
                <mask id="aa" fill="#fff">
                    <use xlink:href="#Z"/>
                </mask>
                <path fill="#FFB385" d="M93.564 119.841l-7.626-25.264c-1.224-6.417-6.142-11.898-12.292-14.107-1.07-.386-2.385.424-2.385.424l10.192 42.737c.5 1.983.651 4.037.445 6.071L78.5 163.24l-1.799 7.936-.826 4.005a3.05 3.05 0 0 0 2.28 3.582l3.071.733a3.05 3.05 0 0 0 3.609-2.025l1.913-5.888-1.07-5.898 8.216-36.957c.654-2.942.54-6.001-.331-8.887" mask="url(#aa)"/>
            </g>
            <g transform="translate(316.627 -.085)">
                <mask id="ac" fill="#fff">
                    <use xlink:href="#ab"/>
                </mask>
                <path fill="#FFEDDC" d="M85.938 94.578l7.844 26.054c-.15.53-7.901 3.927-11.797 3.12l-.53-.11-11.114-43.998s2.236.44 3.305.826c6.15 2.21 11.068 7.69 12.292 14.108" mask="url(#ac)"/>
            </g>
        </g>
        <g transform="translate(121.98 -.085)">
            <mask id="ae" fill="#fff">
                <use xlink:href="#ad"/>
            </mask>
            <path fill="#005960" d="M109.782 54.873c0 30.095-24.4 54.491-54.499 54.491-30.097 0-54.497-24.396-54.497-54.491 0-30.094 24.4-54.49 54.497-54.49 30.1 0 54.499 24.396 54.499 54.49" mask="url(#ae)"/>
        </g>
        <g>
            <g transform="translate(121.98 -.085)">
                <mask id="ag" fill="#fff">
                    <use xlink:href="#af"/>
                </mask>
                <path fill="#7F2A1C" d="M55.515 61.012a12.382 12.382 0 0 0-4.136-3.004l.522-.18c.757.07 1.529.11 2.336.087 2.298-.066 4.413-.513 6.297-1.256a8.428 8.428 0 0 0 2.105 2.935c-.36.708-.645 1.481-.834 2.31-2.003-1.21-4.234-1.607-6.29-.892zm-4.145-3.236l.006.23a11.893 11.893 0 0 0-.987-.38c.322.06.648.11.981.15zm-6.997-2.561a14.734 14.734 0 0 0 4.043 1.937A11.896 11.896 0 0 0 46.618 57c-1.517 0-2.963.297-4.295.817.105-1.009.066-1.985-.095-2.888l2.145.286zm34.223 16.374c.635-2.324.564-5.086-.39-7.825-.733-2.113-1.888-3.91-3.265-5.281a8.362 8.362 0 0 0 1.748-5.121 8.372 8.372 0 0 0-1.939-5.37l-6.303-10.707c-2.548-4.823-8.176-6.468-14.708-6.28-7.12.205-11.899 3.611-14.5 8.911-.02-.005-7.515 15.018-7.827 16.786-.472 2.685.135 5.217 1.375 6.837a5.478 5.478 0 1 0-1.526 9.858c-3.312 2.093-5.518 5.777-5.518 9.984 0 6.525 5.29 11.815 11.815 11.815 6.526 0 11.817-5.29 11.817-11.815 0-1.035-.147-2.031-.396-2.988a11.749 11.749 0 0 0 4.486-1.96c2.518 3.221 6.171 4.808 9.39 3.69 2.459-.855 4.138-3.1 4.787-5.935 1.605.972 3.355 1.41 5.046 1.177a5.482 5.482 0 0 0 10.956-.314c0-2.88-2.223-5.24-5.048-5.462z" mask="url(#ag)"/>
            </g>
            <g transform="translate(121.98 -.085)">
                <mask id="ai" fill="#fff">
                    <use xlink:href="#ah"/>
                </mask>
                <path fill="#FFAB78" d="M39.716 76.418l-2.91.852a15.027 15.027 0 0 0-9.143 11.941l-3.295 16.964a64.781 64.781 0 0 0-1.115 15.504l2.489 33.96s7.347 1.46 10.982 0l-.811-8.429-.141-32.592 3.944-38.2z" mask="url(#ai)"/>
            </g>
            <g transform="translate(121.98 -.085)">
                <mask id="ak" fill="#fff">
                    <use xlink:href="#aj"/>
                </mask>
                <path fill="#FFAB78" d="M72.102 75.236l2.857 1.017a15.024 15.024 0 0 1 8.452 12.44l2.325 17.122c.701 5.153.778 10.371.234 15.543l-2.688 25.44-1.14 11.489c-3.724 1.217-6.716-10.493-10.263-12.156l1.993-32.533-1.77-38.362z" mask="url(#ak)"/>
            </g>
            <g transform="translate(121.98 -.085)">
                <mask id="am" fill="#fff">
                    <use xlink:href="#al"/>
                </mask>
                <path fill="#E89561" d="M45.846 61.834l-2.1.058c-2.639.072-3.902-4.157-3.902-4.157-.652-1.998.612-4.176 2.392-4.122l2.861-.067.749 8.288z" mask="url(#am)"/>
            </g>
            <g transform="translate(121.98 -.085)">
                <mask id="ao" fill="#fff">
                    <use xlink:href="#an"/>
                </mask>
                <path fill="#E89561" d="M64.372 62.027l2.088-.23c2.625-.292 3.294-4.653 3.294-4.653.374-2.07-1.177-4.053-2.932-3.754l-2.845.325.395 8.312z" mask="url(#ao)"/>
            </g>
            <g transform="translate(121.98 -.085)">
                <mask id="aq" fill="#fff">
                    <use xlink:href="#ap"/>
                </mask>
                <path fill="#FFAB78" d="M56.213 82.861a7.561 7.561 0 0 1-7.924-7.181l-.517-10.515 15.109-.741.516 10.515a7.563 7.563 0 0 1-7.184 7.922" mask="url(#aq)"/>
            </g>
            <g transform="translate(121.98 -.085)">
                <mask id="as" fill="#fff">
                    <use xlink:href="#ar"/>
                </mask>
                <path fill="#E89561" d="M48.175 73.567c2.43.692 5.18 1.02 8.08.878a25.454 25.454 0 0 0 7.043-1.337l-.514-10.475-15.108.742.5 10.192z" mask="url(#as)"/>
            </g>
            <g transform="translate(121.98 -.085)">
                <mask id="au" fill="#fff">
                    <use xlink:href="#at"/>
                </mask>
                <path fill="#FAB08A" d="M46.891 40.888c-3.146.077-4.517 4.042-4.986 7.213l.787 14.568c.54 3.485 6.771 8.171 6.771 8.171 1.425.88 3.176 2.032 4.85 1.995 1.674-.038 3.737-1.252 5.12-2.194 0 0 7.123-3.881 8.026-8.026l.005-15.426c.04-3.118-2.305-6.707-5.424-6.646-4.62.092-10.51.233-15.149.345" mask="url(#au)"/>
            </g>
            <g transform="translate(121.98 -.085)">
                <mask id="aw" fill="#fff">
                    <use xlink:href="#av"/>
                </mask>
                <path fill="#7F2A1C" d="M47.387 57.98a1.2 1.2 0 0 1-1.224-1.17l-.005-.22a1.203 1.203 0 0 1 1.17-1.225 1.2 1.2 0 0 1 1.223 1.17l.005.222a1.198 1.198 0 0 1-1.17 1.223" mask="url(#aw)"/>
            </g>
            <g transform="translate(121.98 -.085)">
                <mask id="ay" fill="#fff">
                    <use xlink:href="#ax"/>
                </mask>
                <path fill="#7F2A1C" d="M62.51 57.638a1.2 1.2 0 0 1-1.224-1.17l-.005-.22a1.201 1.201 0 0 1 1.17-1.225c.659-.014 1.21.511 1.223 1.17l.005.221a1.2 1.2 0 0 1-1.169 1.224" mask="url(#ay)"/>
            </g>
            <g transform="translate(121.98 -.085)">
                <mask id="aA" fill="#fff">
                    <use xlink:href="#az"/>
                </mask>
                <path fill="#7F2A1C" d="M63.89 53.707a1.269 1.269 0 0 1-.133-.014c-.767-.126-.565-.066-1.338-.113-.88-.053-1.17-.045-2.047.007-.494.03-1.122-.22-1.16-.662-.039-.441.518-.91 1.021-.94.958-.057 1.334-.072 2.29-.009 2.083.138 2.612.562 2.468 1.233-.086.397-.656.514-1.1.498" mask="url(#aA)"/>
            </g>
            <g transform="translate(121.98 -.085)">
                <mask id="aC" fill="#fff">
                    <use xlink:href="#aB"/>
                </mask>
                <path fill="#7F2A1C" d="M45.586 53.887a.965.965 0 0 0 .134-.017c.764-.144.884-.087 1.656-.149.88-.073 1.169-.071 2.046-.038.496.019 1.117-.245 1.146-.687.029-.443-.539-.9-1.04-.919-.96-.035-1.337-.041-2.292.044-2.08.183-2.919.624-2.76 1.293.094.393.667.5 1.11.473" mask="url(#aC)"/>
            </g>
            <g transform="translate(121.98 -.085)">
                <mask id="aE" fill="#fff">
                    <use xlink:href="#aD"/>
                </mask>
                <path fill="#F05454" d="M55.208 67.296c-1.937.043-4.593-1.541-4.639-3.571l9.31-.212c.046 2.03-2.258 3.729-4.67 3.783" mask="url(#aE)"/>
            </g>
            <g transform="translate(121.98 -.085)">
                <mask id="aG" fill="#fff">
                    <use xlink:href="#aF"/>
                </mask>
                <path fill="#8C2D1F" d="M55.027 34.078l-1.984.095c-6.782.323-11.527 6.683-11.186 14.385l.053.438c.923-.834 1.547-1.36 2.79-1.382l18.718-.345a5.15 5.15 0 0 1 3.956 1.744l.256.29-.003-1.699c-.105-7.748-5.789-13.85-12.6-13.526" mask="url(#aG)"/>
            </g>
            <g transform="translate(121.98 -.085)">
                <mask id="aI" fill="#fff">
                    <use xlink:href="#aH"/>
                </mask>
                <path fill="#FAE6BB" d="M56.753 88.007c6.527-.84 11.16-6.638 10.348-12.95-.01-.078-.033-.154-.045-.23L43.4 76.053c-.036.673-.024 1.354.065 2.046.813 6.312 6.762 10.747 13.288 9.907" mask="url(#aI)"/>
            </g>
            <g transform="translate(121.98 -.085)">
                <mask id="aK" fill="#fff">
                    <use xlink:href="#aJ"/>
                </mask>
                <path fill="#00C9C3" d="M80.263 88.147c-.218-8.568-4.883-13.897-13.071-13.662l-23.81 1.15c-8.188.234-11.249 5.927-11.03 14.495l3.108 10.795.101 26.49c1.642.213 27.813 1.676 40.285-.541l.91-23.584 3.507-15.143z" mask="url(#aK)"/>
            </g>
            <g transform="translate(121.98 -.085)">
                <mask id="aM" fill="#fff">
                    <use xlink:href="#aL"/>
                </mask>
                <path fill="#FAB08A" d="M67.222 74.483L43.41 75.634a16.11 16.11 0 0 0-1.48.108c.453 4.931 7.043 8.34 14.72 7.633 6.93-.642 12.361-4.425 13.015-8.771a16.227 16.227 0 0 0-2.443-.12" mask="url(#aM)"/>
            </g>
            <g transform="translate(121.98 -.085)">
                <mask id="aO" fill="#fff">
                    <use xlink:href="#aN"/>
                </mask>
                <path fill="#00C9C3" d="M36.806 77.27a15.031 15.031 0 0 0-9.145 11.941l-3.293 16.963c-.17.872-.314 1.75-.448 2.627l.484.507a12.913 12.913 0 0 0 11.217 3.87l3.2-28.089.895-8.67-2.91.852z" mask="url(#aO)"/>
            </g>
            <g transform="translate(121.98 -.085)">
                <mask id="aQ" fill="#fff">
                    <use xlink:href="#aP"/>
                </mask>
                <path fill="#00C9C3" d="M86.09 107.961c-.083-1.891-2.62-20.056-2.62-20.056-.388-5.047-3.612-9.513-8.45-11.713l-2.674-.989 1.365 33.424-.18 2.765.235.02c4.625.408 9.172-.235 12.324-3.45" mask="url(#aQ)"/>
            </g>
            <g transform="translate(121.98 -.085)">
                <mask id="aS" fill="#fff">
                    <use xlink:href="#aR"/>
                </mask>
                <path fill="#00C9C3" d="M81.619 158.286l-52.54-.554 2.172-17.392a35.135 35.135 0 0 1 3.065-10.603l1.227-2.612 39.53-.333h.866c3.513 6.257 4.678 12.479 5.057 19.68l.623 11.814z" mask="url(#aS)"/>
            </g>
        </g>
        <g>
            <path fill="#009792" d="M216.039 131.689c-5.274 0-9.547-4.274-9.547-9.546 0-5.27 4.273-9.544 9.547-9.544a9.545 9.545 0 0 1 0 19.09zM232.226 138.33a3.32 3.32 0 1 1-6.642-.002 3.32 3.32 0 0 1 6.642.002"/>
            <path fill="#005960" d="M176.005 196.43c0 41.167-33.38 74.54-74.552 74.54-41.175 0-74.552-33.373-74.552-74.54 0-41.168 33.377-74.541 74.552-74.541 41.173 0 74.552 33.373 74.552 74.54"/>
            <path fill="#009792" d="M197.888 191.446a8.712 8.712 0 0 1-17.424 0c0-4.81 3.9-8.71 8.711-8.71 4.812 0 8.713 3.9 8.713 8.71M216.046 188.417a3.03 3.03 0 1 1-6.06 0 3.03 3.03 0 1 1 6.06 0"/>
        </g>
        <g>
            <g transform="translate(25.953 121.877)">
                <mask id="aU" fill="#fff">
                    <use xlink:href="#aT"/>
                </mask>
                <path fill="#FAB08A" d="M89.837 107.632s3.566.485 5.288.991c9.9 2.905 18.17 11.08 20.704 21.083l14.953 40.982-15.727 12.267-25.218-75.323z" mask="url(#aU)"/>
            </g>
            <g transform="translate(25.953 121.877)">
                <mask id="aW" fill="#fff">
                    <use xlink:href="#aV"/>
                </mask>
                <path fill="#FAB08A" d="M130.546 170.026c1.937 4.592 14.172 61.958 14.172 61.958l-12.07.598-19.42-54.78s15.379-12.367 17.318-7.776" mask="url(#aW)"/>
            </g>
            <g transform="translate(25.953 121.877)">
                <mask id="aY" fill="#fff">
                    <use xlink:href="#aX"/>
                </mask>
                <path fill="#FAB08A" d="M144.456 231.098l-11.809 1.484 3.289 11.178-1.066 7.29a2.989 2.989 0 0 0 2.825 3.269l6.986.358a2.992 2.992 0 0 0 3.1-2.48l2.03-11.84a3.48 3.48 0 0 0-.602-2.613l-4.753-6.646z" mask="url(#aY)"/>
            </g>
            <g transform="translate(25.953 121.877)">
                <mask id="ba" fill="#fff">
                    <use xlink:href="#aZ"/>
                </mask>
                <path fill="#FAB08A" d="M48.244 104.377s-3.588.288-5.334.697c-10.047 2.355-18.755 10.06-21.838 19.907L3.877 165.072l-14.095 13.12L3.322 188.2a66.868 66.868 0 0 0 23.79-26.599l15.38-31.08 5.752-26.143z" mask="url(#ba)"/>
            </g>
            <g transform="translate(25.953 121.877)">
                <mask id="bc" fill="#fff">
                    <use xlink:href="#bb"/>
                </mask>
                <path fill="#004472" d="M118.71 137.6l-.954-2.617c-.413-9.193-4.859-16.838-11.823-22.787 0 0-9.128-6.663-17.85-7.632l-35.54-2.666c-7.88-.352-17.438 4.308-17.438 4.308-6.13 3.697-10.988 9.498-13.127 16.336l-3.307 7.706a35.191 35.191 0 0 0 12.747 14.745l.494 58.43h64.599l7.538-54.388c6.783-3.647 14.66-11.435 14.66-11.435" mask="url(#bc)"/>
            </g>
            <g transform="translate(25.953 121.877)">
                <mask id="be" fill="#fff">
                    <use xlink:href="#bd"/>
                </mask>
                <path fill="#005960" d="M108.86 330.614l-4.503-98.727a68.728 68.728 0 0 0-7.847-28.464H74.696l.301-3.13-41.839.638a68.765 68.765 0 0 0-5.713 28.968l2.105 100.949 33.741-.016 4.82-58.87 9.147 59.117 31.601-.465z" mask="url(#be)"/>
            </g>
            <g transform="translate(25.953 121.877)">
                <mask id="bg" fill="#fff">
                    <use xlink:href="#bf"/>
                </mask>
                <path fill="#FAB08A" d="M88.202 104.564l-35.541-2.667c-7.84-.35-13.309 1.667-16.274 5.665 4.565 7.433 17.993 13.306 33.932 14.224 14.421.83 29.086-3.972 35.366-9.722-2.913-2.677-8.927-6.55-17.483-7.5" mask="url(#bg)"/>
            </g>
            <g transform="translate(25.953 121.877)">
                <mask id="bi" fill="#fff">
                    <use xlink:href="#bh"/>
                </mask>
                <path fill="#FF7900" d="M64.711 89.068c-.315 0-.625.025-.937.047a12.796 12.796 0 0 0 1.74-6.413c.011-4.566-2.48-8.657-6.146-10.934V70.19L48.68 48.2l-7.824 30.334a13.262 13.262 0 0 0-.688 4.136c0 2.877.94 5.533 2.528 7.669.81 1.09 2.372 2.04 4.074 2.815 3.305 1.508 5.332 4.824 5.269 8.484l-.002.188c-.016 6.852 5.586 12.664 12.372 12.823 7.137.168 12.974-5.622 12.974-12.789 0-7.065-5.673-12.792-12.673-12.792" mask="url(#bi)"/>
            </g>
            <g transform="translate(25.953 121.877)">
                <mask id="bk" fill="#fff">
                    <use xlink:href="#bj"/>
                </mask>
                <path fill="#FF7900" d="M114.82 127.11c-9.5 0-17.201-6.914-17.201-15.442 0-.66.062-1.307.15-1.945-2.012 1.18-3.976 1.96-5.712 1.944-9.978-.094-16.598-12.804-16.598-12.804l-8.101-40.797 28.368-11.238 4.955 16.293c1.32 4.179 5.107 6.911 9.485 7.256 5.799.562 10.904 4.84 12.387 10.989.707 2.928.488 5.86-.463 8.47-1.267 3.477.06 7.461 3.105 9.528 0 0 19.526 29.8-5.379 50.604" mask="url(#bk)"/>
            </g>
            <g transform="translate(25.953 121.877)">
                <mask id="bm" fill="#fff">
                    <use xlink:href="#bl"/>
                </mask>
                <path fill="#FF7900" d="M96.266 55.011C94.784 64.953 84.313 72.381 70.36 71.1c-13.953-1.281-22.245-10.433-21.922-20.481.375-11.647 11.407-18.929 25.359-17.647 13.952 1.282 24.387 9.143 22.468 22.039" mask="url(#bm)"/>
            </g>
            <g transform="translate(25.953 121.877)">
                <mask id="bo" fill="#fff">
                    <use xlink:href="#bn"/>
                </mask>
                <path fill="#E89561" d="M55.433 79.247l-3.173-.273c-3.99-.35-5.166-6.999-5.166-6.999-.641-3.153 1.636-6.246 4.31-5.854l4.323.393-.294 12.733z" mask="url(#bo)"/>
            </g>
            <g transform="translate(25.953 121.877)">
                <mask id="bq" fill="#fff">
                    <use xlink:href="#bp"/>
                </mask>
                <path fill="#E89561" d="M84.615 82.326l3.2.308c4.024.383 6.393-5.943 6.393-5.943 1.204-2.984-.498-6.44-3.223-6.541l-4.363-.401-2.007 12.577z" mask="url(#bq)"/>
            </g>
            <g transform="translate(25.953 121.877)">
                <mask id="bs" fill="#fff">
                    <use xlink:href="#br"/>
                </mask>
                <path fill="#FFAB78" d="M71.129 111.111c-6.394 0-11.578-2.597-11.578-8.991V86.965h23.155v14.552c0 6.392-5.183 9.594-11.577 9.594" mask="url(#bs)"/>
            </g>
            <g transform="translate(25.953 121.877)">
                <mask id="bu" fill="#fff">
                    <use xlink:href="#bt"/>
                </mask>
                <path fill="#E89561" d="M59.551 99.568c3.665 1.24 7.845 1.95 12.288 1.95 3.882 0 7.555-.552 10.868-1.516V83.95H59.55v15.617z" mask="url(#bu)"/>
            </g>
            <g transform="translate(25.953 121.877)">
                <mask id="bw" fill="#fff">
                    <use xlink:href="#bv"/>
                </mask>
                <path fill="#FAB08A" d="M60.98 48.823c-4.751-.43-8.888 3.237-9.092 8.048l-.97 24.348c.215 5.392 8.45 13.736 8.45 13.736 1.995 1.583 4.427 3.744 6.963 3.873 5.315.272 19.833-7.255 21.904-13.402l2.618-20.91c1.062-6.775-6.894-13.582-11.601-14.027-6.974-.66-11.265-1.036-18.271-1.666" mask="url(#bw)"/>
            </g>
            <g transform="translate(25.953 121.877)">
                <mask id="by" fill="#fff">
                    <use xlink:href="#bx"/>
                </mask>
                <path fill="#7F2A1C" d="M58.249 74.436c-1.001-.122-1.72-1.039-1.598-2.04l.04-.335a1.84 1.84 0 0 1 2.042-1.598c1 .122 1.719 1.041 1.597 2.041l-.042.336c-.12 1-1.039 1.72-2.04 1.596" mask="url(#by)"/>
            </g>
            <g transform="translate(25.953 121.877)">
                <mask id="bA" fill="#fff">
                    <use xlink:href="#bz"/>
                </mask>
                <path fill="#7F2A1C" d="M80.24 77.115c-1-.122-1.72-1.04-1.597-2.04l.04-.336c.123-1 1.04-1.719 2.041-1.597 1 .122 1.718 1.04 1.597 2.041l-.041.336c-.12 1-1.04 1.718-2.04 1.596" mask="url(#bA)"/>
            </g>
            <g transform="translate(25.953 121.877)">
                <mask id="bC" fill="#fff">
                    <use xlink:href="#bB"/>
                </mask>
                <path fill="#F37070" d="M67.809 90.662c-2.954-.268-6.768-2.602-6.546-5.034l14.195 1.291c-.222 2.432-3.97 4.078-7.65 3.743" mask="url(#bC)"/>
            </g>
            <g transform="translate(25.953 121.877)">
                <mask id="bE" fill="#fff">
                    <use xlink:href="#bD"/>
                </mask>
                <path fill="#7F2A1C" d="M56.139 67.58c.06.01.122.017.185.017 1.081.025 2.166.113 3.231.263 1.21.167 1.603.26 2.777.586.663.184 1.59-.015 1.774-.667.182-.654-.436-1.514-1.11-1.7-1.284-.355-1.793-.481-3.11-.656-2.87-.38-5.092.051-5.094 1.101-.002.618.738.955 1.347 1.056" mask="url(#bE)"/>
            </g>
            <g transform="translate(25.953 121.877)">
                <mask id="bG" fill="#fff">
                    <use xlink:href="#bF"/>
                </mask>
                <path fill="#FF7900" d="M76.379 43.986c3.039 4.902-1.045 13.01-9.119 18.11-8.075 5.098-23.537-4.29-20.121.352.579.789 1.043-13.01 9.118-18.109 8.076-5.097 17.084-5.256 20.122-.353" mask="url(#bG)"/>
            </g>
            <g transform="translate(25.953 121.877)">
                <mask id="bI" fill="#fff">
                    <use xlink:href="#bH"/>
                </mask>
                <path fill="#7F2A1C" d="M84.76 70.975a1.161 1.161 0 0 1-.19-.022 29.915 29.915 0 0 0-3.316-.406c-1.257-.086-1.672-.074-2.926.003-.707.043-1.601-.34-1.652-1.017-.05-.678.753-1.395 1.47-1.437 1.37-.083 1.91-.103 3.277-.003 2.974.218 5.128 1.098 4.914 2.125-.127.605-.942.784-1.578.757" mask="url(#bI)"/>
            </g>
        </g>
    </g>
</svg>
