<svg xmlns="http://www.w3.org/2000/svg" width="87" height="22" viewBox="0 0 87 22">
    <g fill="none" fill-rule="evenodd">
        <g>
            <g>
                <g>
                    <g>
                        <g transform="translate(-406 -445) translate(287 133) translate(0 68) translate(0 218) translate(120 27)">
                            <rect width="85.348" height="19.646" fill="#005960" stroke="#E0F3F3" rx="3"/>
                            <path fill="#FFF" fill-rule="nonzero" d="M9.628 14.542l2.353-6.656 2.327 6.656h1.365l3.276-9.256h-1.612l-2.366 6.955-2.353-6.955h-1.196l-2.405 6.903-2.314-6.903H5l3.263 9.256h1.365zm12.207-7.943V5h-1.807v1.599h1.807zm-.091 7.943V7.977h-1.612v6.565h1.612zm4.186.104c.84 0 1.504-.178 1.989-.533.485-.355.728-.836.728-1.443 0-.494-.15-.895-.448-1.203-.3-.307-.774-.535-1.424-.682l-1.118-.247c-.303-.078-.518-.173-.643-.286-.126-.113-.189-.264-.189-.455 0-.243.104-.433.312-.572.208-.139.498-.208.871-.208.693 0 1.37.243 2.028.728l.481-1.105c-.33-.269-.71-.475-1.144-.617-.433-.143-.884-.215-1.352-.215-.537 0-1.01.087-1.417.26-.407.173-.724.414-.949.722-.225.307-.338.66-.338 1.059 0 .962.598 1.573 1.794 1.833l1.092.247c.355.087.607.188.754.306.147.117.221.275.221.474 0 .234-.106.416-.319.546-.212.13-.513.195-.903.195-.901 0-1.703-.26-2.405-.78l-.455 1.144c.702.555 1.647.832 2.834.832zm7.202 0c.468 0 .93-.076 1.385-.228.454-.151.838-.353 1.15-.604l-.468-1.118c-.615.468-1.283.702-2.002.702-.624 0-1.094-.167-1.41-.5-.317-.334-.492-.852-.527-1.554h4.524v-.247c0-1.023-.262-1.826-.786-2.412-.525-.585-1.238-.877-2.139-.877-.615 0-1.166.145-1.651.435-.485.29-.862.696-1.131 1.216s-.403 1.114-.403 1.781c0 1.057.308 1.89.923 2.496.615.607 1.46.91 2.535.91zm1.235-4.173h-3.055c.078-.485.253-.856.526-1.112.273-.255.627-.383 1.06-.383.433 0 .773.126 1.02.377.248.251.397.624.449 1.118zm4.589 4.069V5.286h-1.677v9.256h1.677zm3.497 0v-3.718c0-.52.152-.938.455-1.255.303-.316.702-.474 1.196-.474.416 0 .724.12.923.357.2.239.299.618.299 1.138v3.952h1.625v-4.03c0-1.803-.784-2.704-2.353-2.704-.485 0-.92.108-1.306.325-.386.217-.692.524-.917.923l-.117-1.079h-1.521c.07.546.104 1.166.104 1.859v4.706h1.612zm9.204.104c.485 0 .949-.074 1.391-.221.442-.147.802-.351 1.079-.611l-.455-1.144c-.277.225-.572.399-.884.52-.312.121-.62.182-.923.182-.598 0-1.06-.182-1.385-.546-.324-.364-.487-.893-.487-1.586 0-.693.165-1.224.494-1.592.33-.369.789-.553 1.378-.553.303 0 .611.058.923.175.312.117.607.289.884.514l.455-1.144c-.26-.26-.609-.464-1.047-.611-.437-.147-.89-.221-1.358-.221-.676 0-1.272.145-1.788.435-.515.29-.914.696-1.195 1.216-.282.52-.423 1.122-.423 1.807 0 .685.134 1.28.403 1.787.269.507.654.9 1.157 1.177s1.096.416 1.781.416zm6.539 0c.659 0 1.24-.139 1.742-.416.503-.277.89-.674 1.163-1.19.273-.515.41-1.12.41-1.813 0-.693-.137-1.298-.41-1.813-.273-.516-.66-.913-1.163-1.19-.503-.277-1.083-.416-1.742-.416-.667 0-1.255.139-1.761.416-.508.277-.898.674-1.17 1.19-.273.515-.41 1.12-.41 1.813 0 .693.137 1.298.41 1.813.273.516.663.913 1.17 1.19.506.277 1.094.416 1.761.416zm-.013-1.274c-.546 0-.964-.18-1.255-.54-.29-.36-.435-.894-.435-1.605 0-.702.147-1.237.442-1.606.295-.368.715-.552 1.261-.552.537 0 .953.184 1.248.552.295.369.442.904.442 1.606 0 .71-.145 1.246-.436 1.605-.29.36-.712.54-1.267.54zm6.344 1.17v-3.666c0-.555.13-.99.39-1.306.26-.317.615-.475 1.066-.475.381 0 .66.117.838.351.178.234.267.607.267 1.118v3.978h1.625v-3.666c0-.555.128-.99.384-1.306.255-.317.608-.475 1.059-.475.39 0 .67.115.838.345.17.23.254.604.254 1.124v3.978h1.625v-4.03c0-.91-.182-1.588-.546-2.035-.364-.446-.919-.669-1.664-.669-.477 0-.908.11-1.293.332-.386.22-.683.526-.891.916-.303-.832-.958-1.248-1.963-1.248-.468 0-.882.104-1.242.312-.36.208-.634.507-.825.897l-.117-1.04h-1.521c.07.546.104 1.166.104 1.859v4.706h1.612zm13.169.104c.468 0 .93-.076 1.385-.228.454-.151.838-.353 1.15-.604l-.468-1.118c-.615.468-1.283.702-2.002.702-.624 0-1.094-.167-1.41-.5-.317-.334-.492-.852-.527-1.554h4.524v-.247c0-1.023-.262-1.826-.787-2.412-.524-.585-1.237-.877-2.138-.877-.615 0-1.166.145-1.651.435-.485.29-.862.696-1.131 1.216s-.403 1.114-.403 1.781c0 1.057.308 1.89.923 2.496.615.607 1.46.91 2.535.91zm1.235-4.173h-3.055c.078-.485.253-.856.526-1.112.273-.255.627-.383 1.06-.383.433 0 .773.126 1.02.377.248.251.397.624.449 1.118z"/>
                        </g>
                    </g>
                </g>
            </g>
        </g>
    </g>
</svg>
