<?xml version="1.0" encoding="UTF-8"?>
<svg width="22px" height="16px" viewBox="0 0 22 16" version="1.1" xmlns="http://www.w3.org/2000/svg" xmlns:xlink="http://www.w3.org/1999/xlink">
    <!-- Generator: sketchtool 51.2 (57519) - http://www.bohemiancoding.com/sketch -->
    <title>704744F0-59DB-45EE-AFB0-2701A20DB9DF</title>
    <desc>Created with sketchtool.</desc>
    <defs></defs>
    <g id="Symbols" stroke="none" stroke-width="1" fill="none" fill-rule="evenodd">
        <g id="footer_1024" transform="translate(-873.000000, -308.000000)" fill="#FFFFFF" fill-rule="nonzero">
            <g id="Group-8">
                <g id="Group-16">
                    <g id="Group-15" transform="translate(0.000000, 278.000000)">
                        <g id="Group-14" transform="translate(0.000000, 20.000000)">
                            <g id="Group-13" transform="translate(873.000000, 6.000000)">
                                <g id="youtube" transform="translate(0.000000, 4.000000)">
                                    <path d="M21.065,1.54181818 C20.46825,0.418909091 19.820625,0.212363636 18.502,0.133818182 C17.18475,0.0392727273 13.872375,0 11.00275,0 C8.127625,0 4.813875,0.0392727273 3.498,0.132363636 C2.182125,0.212363636 1.533125,0.417454545 0.930875,1.54181818 C0.31625,2.66327273 0,4.59490909 0,7.99563636 C0,7.99854545 0,8 0,8 C0,8.00290909 0,8.00436364 0,8.00436364 L0,8.00727273 C0,11.3934545 0.31625,13.3396364 0.930875,14.4494545 C1.533125,15.5723636 2.18075,15.776 3.496625,15.8705455 C4.813875,15.952 8.127625,16 11.00275,16 C13.872375,16 17.18475,15.952 18.503375,15.872 C19.822,15.7774545 20.469625,15.5738182 21.066375,14.4509091 C21.6865,13.3410909 22,11.3949091 22,8.00872727 C22,8.00872727 22,8.00436364 22,8.00145455 C22,8.00145455 22,7.99854545 22,7.99709091 C22,4.59490909 21.6865,2.66327273 21.065,1.54181818 Z M8.25,12.3636364 L8.25,3.63636364 L15.125,8 L8.25,12.3636364 Z" id="Shape"></path>
                                </g>
                            </g>
                        </g>
                    </g>
                </g>
            </g>
        </g>
    </g>
</svg>