<?xml version="1.0" encoding="UTF-8"?>
<svg width="29px" height="27px" viewBox="0 0 29 27" version="1.1" xmlns="http://www.w3.org/2000/svg" xmlns:xlink="http://www.w3.org/1999/xlink">
    <!-- Generator: Sketch 59 (86127) - https://sketch.com -->
    <title>Icon/Insurance/Critical Illness</title>
    <desc>Created with Sketch.</desc>
    <g id="Icon/Insurance/Critical-Illness" stroke="none" stroke-width="1" fill="none" fill-rule="evenodd">
        <path d="M10,6 C11.6566667,6 13,4.657 13,3 C13,1.343 11.6566667,0 10,0 C8.34233333,0 7,1.343 7,3 C7,4.657 8.34233333,6 10,6 Z M20.3844576,17.3222347 L20.3844576,12.7380301 L15.2560771,12.7380301 L15.2560771,17.3222347 L10.6405347,17.3222347 L10.6405347,16.2770361 L14.230401,16.2770361 L14.230401,11.719318 L15.2567609,11.719318 L15.2567609,8.6631816 L11.9185271,8 L10.1283805,10.7430522 L8.33720811,8.00033957 L5,8.6631816 L5,16.1333977 L7.06536976,17.8315908 L8.07702827,27 L12.1797326,27 L12.6925707,22.4157954 L15.2560771,22.4157954 L15.2560771,27 L20.3844576,27 L20.3844576,22.4157954 L25,22.4157954 L25,17.3222347 L20.3844576,17.3222347 L20.3844576,17.3222347 Z" id="Fill-1" fill="#00A7A7"></path>
    </g>
</svg>