<svg xmlns="http://www.w3.org/2000/svg" xmlns:xlink="http://www.w3.org/1999/xlink" width="23" height="27" viewBox="0 0 23 27">
    <defs>
        <path id="a" d="M.022.043h4.293v4.32H.022z"/>
        <path id="c" d="M.126.114H5.39v5.297H.126z"/>
    </defs>
    <g fill="none" fill-rule="evenodd">
        <path fill="#00A7A7" d="M5.935 14.24C2.657 14.24 0 16.914 0 20.212c0 3.298 2.657 5.971 5.935 5.971 3.277 0 5.935-2.673 5.935-5.971S9.212 14.24 5.935 14.24"/>
        <g transform="translate(17.804 22.05)">
            <mask id="b" fill="#fff">
                <use xlink:href="#a"/>
            </mask>
            <path fill="#00A7A7" d="M2.168.043a2.154 2.154 0 0 0-2.146 2.16c0 1.194.96 2.16 2.146 2.16a2.154 2.154 0 0 0 2.147-2.16c0-1.193-.96-2.16-2.147-2.16" mask="url(#b)"/>
        </g>
        <g transform="translate(3.196)">
            <mask id="d" fill="#fff">
                <use xlink:href="#c"/>
            </mask>
            <path fill="#00A7A7" d="M2.758 5.411A2.64 2.64 0 0 0 5.39 2.763 2.64 2.64 0 0 0 2.758.114 2.64 2.64 0 0 0 .126 2.763 2.64 2.64 0 0 0 2.758 5.41" mask="url(#d)"/>
        </g>
        <path fill="#00A7A7" d="M21.228 19.744l-.275-.582a1.347 1.347 0 0 0-1.788-.64l-.36.169-1.208-2.556a3.663 3.663 0 0 0-3.314-2.095H9.907V10.3l2.013.909.998.45a1.72 1.72 0 0 0 2.273-.85l.486-1.065.602-1.32a1.397 1.397 0 0 0-.7-1.854 1.41 1.41 0 0 0-1.862.697l-.442.971a.386.386 0 0 1-.51.191L7.816 6.196a3.922 3.922 0 0 0-1.837-.454c-2.168 0-3.926 1.75-3.926 3.907v4.938a6.8 6.8 0 0 1 3.926-1.24 6.811 6.811 0 0 1 6.37 4.372h.741c.713 0 1.361.41 1.665 1.05l1.551 3.28 3.345-1.567 1.576-.738z"/>
    </g>
</svg>
