<svg xmlns="http://www.w3.org/2000/svg" xmlns:xlink="http://www.w3.org/1999/xlink" width="24" height="26" viewBox="0 0 24 26">
    <defs>
        <path id="a" d="M0 0h4.179v4.297H0z"/>
        <path id="c" d="M0 0h9.691v19.975H0z"/>
        <path id="e" d="M0 0h5.822v10.814H0z"/>
    </defs>
    <g fill="none" fill-rule="evenodd">
        <path fill="#00A7A7" d="M15.666 6.081c1.174.132 2.23-.74 2.358-1.946.128-1.207-.719-2.292-1.893-2.425-1.173-.132-2.229.74-2.357 1.946-.129 1.207.718 2.293 1.892 2.425"/>
        <g transform="translate(.675)">
            <mask id="b" fill="#fff">
                <use xlink:href="#a"/>
            </mask>
            <path fill="#00A7A7" d="M1.862 4.284c1.147.13 2.179-.722 2.304-1.902.126-1.18-.702-2.24-1.85-2.37C1.17-.115.139.736.014 1.916c-.126 1.18.702 2.24 1.85 2.37" mask="url(#b)"/>
        </g>
        <path fill="#00A7A7" d="M15.368 10.467l3.262 3.472c.44.468 1.167.483 1.626.035a1.19 1.19 0 0 0 .035-1.658l-5.389-5.735-.002.002a2.652 2.652 0 0 0-1.716-.91c-1.472-.164-2.797.92-2.958 2.423l-.869 8.091 1.265.142.61 8.768h2.682v-8.4l.776.086.678-6.316z"/>
        <g transform="translate(0 5.323)">
            <mask id="d" fill="#fff">
                <use xlink:href="#c"/>
            </mask>
            <path fill="#00A7A7" d="M9.523 5.178c.33-.555.16-1.28-.38-1.62L3.84.454A2.384 2.384 0 0 0 2.443 0C1.093 0 0 1.124 0 2.511v7.403h1.108l.426 10.06h2.524V9.915h.827v-6.14l3.063 1.794c.54.34 1.245.165 1.575-.39" mask="url(#d)"/>
        </g>
        <g transform="translate(18.005 14.58)">
            <mask id="f" fill="#fff">
                <use xlink:href="#e"/>
            </mask>
            <path fill="#00A7A7" d="M1.098 3.041l.055-1.287a.996.996 0 0 1 .984-.969h1.548c.529 0 .96.426.984.969l.055 1.287H1.098zm3.961 7.774l.763-.035-.39-9.061C5.39.755 4.622 0 3.685 0H2.137C1.2 0 .431.755.39 1.719L0 10.779l.763.036.301-6.988h3.694l.301 6.988z" mask="url(#f)"/>
        </g>
    </g>
</svg>
