<?xml version="1.0" encoding="UTF-8"?>
<svg width="27px" height="27px" viewBox="0 0 27 27" version="1.1" xmlns="http://www.w3.org/2000/svg" xmlns:xlink="http://www.w3.org/1999/xlink">
    <!-- Generator: sketchtool 51.2 (57519) - http://www.bohemiancoding.com/sketch -->
    <title>4269E254-B125-4B10-8AAB-00159AD1DED0</title>
    <desc>Created with sketchtool.</desc>
    <defs></defs>
    <g id="Style-Guide-" stroke="none" stroke-width="1" fill="none" fill-rule="evenodd">
        <g id="Styleguide---Homepage" transform="translate(-722.000000, -733.000000)">
            <g id="Group-23" transform="translate(722.000000, 733.000000)">
                <circle id="Oval-4-Copy" fill="#00A7A7" fill-rule="nonzero" cx="13.5" cy="13.5" r="13.5"></circle>
                <path d="M9.83795866,8.08485746 C12.1774716,7.63348368 13.214274,9.10529889 13.501317,9.62029869 C13.7882102,9.10529889 14.8230639,7.64489642 17.1649752,8.08485746 C20.4320193,8.69971872 19.9785963,12.2162686 19.9785963,12.2162686 C19.9785963,12.2162686 20.3732617,15.0028312 14.0287867,18.6611843 C13.8568607,18.7603325 13.6991744,18.8563422 13.5461347,18.9490707 L13.5461347,18.9980028 C13.5441861,18.9987161 13.5434367,19 13.5410384,19 C13.5279978,18.9922964 13.5145075,18.9834515 13.501317,18.9758906 C13.5002678,18.9764612 13.4990687,18.9771745 13.4975697,18.9776025 C13.4837797,18.9790291 13.4707391,18.980313 13.4567991,18.981597 L13.4567991,18.9490707 C13.3036096,18.8563422 13.146373,18.7603325 12.9747467,18.6611843 C6.62967213,15.0028312 7.02433754,12.2162686 7.02433754,12.2162686 C7.02433754,12.2162686 6.54528298,8.72126026 9.83795866,8.08485746" id="Fill-1" fill="#FFFFFF"></path>
            </g>
        </g>
    </g>
</svg>