<svg width="29" height="11" viewBox="0 0 29 11" fill="none" xmlns="http://www.w3.org/2000/svg">
<path d="M8.478 0.0319998V10H7.134L1.758 3.014V10H0.0780001V0.0319998H1.422L6.784 7.004V0.0319998H8.478ZM16.5417 6.556H11.6697C11.707 7.312 11.8937 7.872 12.2297 8.236C12.575 8.59067 13.0837 8.768 13.7557 8.768C14.5304 8.768 15.249 8.516 15.9117 8.012L16.4157 9.216C16.0797 9.48667 15.6644 9.706 15.1697 9.874C14.6844 10.0327 14.1897 10.112 13.6857 10.112C12.5284 10.112 11.6184 9.78533 10.9557 9.132C10.293 8.47867 9.96169 7.58267 9.96169 6.444C9.96169 5.72533 10.1064 5.086 10.3957 4.526C10.685 3.966 11.091 3.532 11.6137 3.224C12.1364 2.90667 12.729 2.748 13.3917 2.748C14.3624 2.748 15.1277 3.06533 15.6877 3.7C16.257 4.32533 16.5417 5.18867 16.5417 6.29V6.556ZM13.4337 4.008C12.967 4.008 12.5844 4.148 12.2857 4.428C11.9964 4.69867 11.8097 5.09533 11.7257 5.618H15.0157C14.9597 5.086 14.7964 4.68467 14.5257 4.414C14.2644 4.14333 13.9004 4.008 13.4337 4.008ZM28.9899 2.93L26.2179 10H24.6919L22.9419 5.366L21.2339 10H19.6939L16.9219 2.93H18.7139L20.5339 7.914L22.3679 2.93H23.6279L25.4619 7.956L27.2819 2.93H28.9899Z" fill="#00A7A7"/>
</svg>
