<?xml version="1.0" encoding="UTF-8"?>
<svg width="19px" height="22px" viewBox="0 0 19 22" version="1.1" xmlns="http://www.w3.org/2000/svg" xmlns:xlink="http://www.w3.org/1999/xlink">
    <!-- Generator: sketchtool 53.2 (72643) - https://sketchapp.com -->
    <title>C8B9D680-0F05-4E19-ABCB-FF1427324A08</title>
    <desc>Created with sketchtool.</desc>
    <g id="Symbols" stroke="none" stroke-width="1" fill="none" fill-rule="evenodd">
        <g id="notificaiton_icon" transform="translate(-3.000000, -2.000000)">
            <g id="menu_notification_icon">
                <polygon id="Shape" points="0 0 25 0 25 25 0 25"></polygon>
                <path d="M12.5,22.875 C10.9391879,22.875 9.67708333,21.6131675 9.67708333,20.0587607 L9.67708333,19.0587607 L15.3229167,19.0587607 L15.3229167,20.0587607 C15.3229167,21.6108003 14.0540694,22.875 12.5,22.875 Z M18.96875,16.0109932 L20.7916667,17.8272326 L20.7916667,20.150641 L4.20833333,20.150641 L4.20833333,17.8272326 L6.03125,16.0109932 L6.03125,11.8856838 C6.03125,8.85031908 7.57241192,6.35979015 10.1359985,5.404987 C10.2004161,4.15596038 11.2336099,3.16666667 12.5,3.16666667 C13.7667096,3.16666667 14.8001051,4.15645947 14.8640501,5.40593212 C17.4215108,6.36279317 18.96875,8.86050463 18.96875,11.8856838 L18.96875,16.0109932 Z" id="Fill-2079" stroke="#98DFDF" stroke-width="2" stroke-linecap="round" stroke-linejoin="round"></path>
            </g>
        </g>
    </g>
</svg>