<svg width="14" height="16" viewBox="0 0 14 16" fill="none" xmlns="http://www.w3.org/2000/svg">
<rect x="0.333252" y="6.24341" width="13.3333" height="4.63894" fill="#BEBEBE"/>
<rect x="1.13342" y="10.6094" width="11.7333" height="5.11723" fill="#A7A7A7"/>
<rect x="1.13342" y="10.6094" width="11.7333" height="0.818638" fill="#969696"/>
<rect x="5.39978" y="6.24341" width="3.2" height="9.4472" fill="url(#paint0_linear)"/>
<rect x="5.39978" y="6.24341" width="3.2" height="9.4472" fill="url(#paint1_linear)"/>
<path fill-rule="evenodd" clip-rule="evenodd" d="M2.44995 4.29354C2.44995 4.29354 3.06212 5.63171 4.42226 5.99145C5.78239 6.35119 7.2076 6.14794 7.2076 6.14794C7.2076 6.14794 5.00517 5.438 4.49512 4.85687C3.98507 4.27575 3.73722 3.62939 3.73722 3.62939C3.73722 3.62939 3.39719 3.62939 3.05715 3.76776C2.71712 3.90612 2.44995 4.29354 2.44995 4.29354Z" fill="#949494"/>
<path fill-rule="evenodd" clip-rule="evenodd" d="M12.0032 4.57164C12.0032 4.57164 11.6582 5.53796 10.0508 5.95766C8.44333 6.37737 7.20792 6.14804 7.20792 6.14804C7.20792 6.14804 9.36186 5.31197 9.96464 4.63399C10.5674 3.95601 10.6535 3.43945 10.6535 3.43945C10.6535 3.43945 11.0554 3.43945 11.4573 3.60088C11.8591 3.7623 12.0032 4.57164 12.0032 4.57164Z" fill="#949494"/>
<path fill-rule="evenodd" clip-rule="evenodd" d="M2.46277 4.32892C2.46277 4.32892 2.0238 2.99622 2.46277 2.04852C2.90174 1.10083 4.24607 0.390051 5.39836 0.804669C6.55065 1.21929 7.2091 2.61122 7.2091 3.47007C7.2091 4.32892 7.2091 6.1947 7.2091 6.1947C7.2091 6.1947 5.83733 3.79584 4.5753 3.64776C3.31327 3.49969 2.46277 4.32892 2.46277 4.32892Z" fill="url(#paint2_linear)"/>
<path fill-rule="evenodd" clip-rule="evenodd" d="M12.0032 4.57144C12.0032 4.57144 12.4325 2.82508 11.7627 1.774C11.0929 0.722925 9.94867 0.599269 9.41843 0.722925C8.88818 0.846581 7.46487 1.65035 7.32534 3.01056C7.1858 4.37078 7.2137 6.1947 7.2137 6.1947C7.2137 6.1947 8.6091 4.09255 9.89286 3.84524C11.1766 3.59793 12.0032 4.57144 12.0032 4.57144Z" fill="url(#paint3_linear)"/>
<defs>
<linearGradient id="paint0_linear" x1="6.99978" y1="3.88161" x2="1.51634" y2="7.59636" gradientUnits="userSpaceOnUse">
<stop stop-color="#DFDFDF"/>
<stop offset="1" stop-color="#BBBBBB"/>
</linearGradient>
<linearGradient id="paint1_linear" x1="6.99978" y1="6.24341" x2="6.99978" y2="15.6906" gradientUnits="userSpaceOnUse">
<stop stop-color="#D7D7D6"/>
<stop offset="1" stop-color="white" stop-opacity="0"/>
</linearGradient>
<linearGradient id="paint2_linear" x1="8.19945" y1="1.66105" x2="5.32858" y2="-1.17609" gradientUnits="userSpaceOnUse">
<stop stop-color="#ECEBEB"/>
<stop offset="1" stop-color="#C0C0C0"/>
</linearGradient>
<linearGradient id="paint3_linear" x1="9.69196" y1="-0.693865" x2="6.76944" y2="4.57307" gradientUnits="userSpaceOnUse">
<stop stop-color="#F9F9F9"/>
<stop offset="1" stop-color="#B3B3B3"/>
</linearGradient>
</defs>
</svg>
