<svg width="163" height="121" viewBox="0 0 163 121" fill="none" xmlns="http://www.w3.org/2000/svg">
<g clip-path="url(#clip0)">
<path fill-rule="evenodd" clip-rule="evenodd" d="M70.2471 29.7192C70.2471 29.7192 75.3368 39.8459 86.6454 42.5683C97.9539 45.2907 109.804 43.7525 109.804 43.7525C109.804 43.7525 93.3267 38.8646 88.5408 33.4273C83.7548 27.9901 83.413 24.4719 83.413 24.4719C83.413 24.4719 78.1227 24.6932 75.2955 25.7403C72.4684 26.7873 70.2471 29.7192 70.2471 29.7192Z" fill="#005960"/>
<rect x="52.5146" y="44.7092" width="110.583" height="37.3065" fill="url(#paint0_linear)"/>
<rect x="59.335" y="81.5732" width="96.8452" height="39.427" fill="url(#paint1_linear)"/>
<rect x="59.335" y="81.5732" width="96.8452" height="6.11797" fill="#15ACAC"/>
<rect x="94.5361" y="44.7092" width="26.5399" height="75.9746" fill="url(#paint2_linear)"/>
<rect x="94.5361" y="44.7092" width="26.5399" height="75.9746" fill="url(#paint3_linear)"/>
<path fill-rule="evenodd" clip-rule="evenodd" d="M149.359 31.7593C149.359 31.7593 146.514 39.0859 133.254 42.2681C119.994 45.4502 109.803 43.7115 109.803 43.7115C109.803 43.7115 126.015 39.4551 130.763 34.0076C135.512 28.5601 135.512 23.1125 135.512 23.1125C135.512 23.1125 141.541 23.1751 144.856 24.399C148.171 25.6229 149.359 31.7593 149.359 31.7593Z" fill="#005960"/>
<path fill-rule="evenodd" clip-rule="evenodd" d="M70.4984 29.9162C70.4984 29.9162 66.8633 19.724 70.4984 12.4762C74.1336 5.22835 85.2662 -0.207517 94.8084 2.9634C104.351 6.13432 109.803 16.7796 109.803 23.3479C109.803 29.9162 109.803 44.1854 109.803 44.1854C109.803 44.1854 94.2999 26.4441 83.8489 25.3116C73.3979 24.1792 70.4984 29.9162 70.4984 29.9162Z" fill="url(#paint4_linear)"/>
<path fill-rule="evenodd" clip-rule="evenodd" d="M149.593 31.687C149.593 31.687 153.175 18.2407 147.587 10.1479C142 2.05501 133.545 0.476888 126.329 1.75407C119.113 3.03126 110.803 10.4804 109.638 20.9535C108.474 31.4267 109.638 44.1855 109.638 44.1855C109.638 44.1855 123.165 28.0644 133.875 26.1602C144.584 24.256 149.593 31.687 149.593 31.687Z" fill="url(#paint5_linear)"/>
<path fill-rule="evenodd" clip-rule="evenodd" d="M10.7139 70.7363C10.7139 70.7363 13.8121 77.3033 20.6957 79.0687C27.5793 80.8341 34.7923 79.8366 34.7923 79.8366C34.7923 79.8366 24.2115 76.4748 21.4835 72.7361C18.7554 68.9973 19.4374 67.2979 19.4374 67.2979C19.4374 67.2979 15.5078 67.4771 13.7869 68.1561C12.066 68.8351 10.7139 70.7363 10.7139 70.7363Z" fill="#005960"/>
<rect y="80.2136" width="67.5188" height="23.1124" fill="url(#paint6_linear)"/>
<rect x="4.0918" y="103.326" width="59.3347" height="17.6742" fill="url(#paint7_linear)"/>
<rect x="4.0918" y="103.326" width="59.3347" height="5.43821" fill="#15ACAC"/>
<rect x="25.916" y="80.2136" width="15.6862" height="40.7865" fill="url(#paint8_linear)"/>
<rect x="25.916" y="80.2136" width="15.6862" height="40.7865" fill="url(#paint9_linear)"/>
<path fill-rule="evenodd" clip-rule="evenodd" d="M59.0615 72.1006C59.0615 72.1006 57.3156 76.8427 49.1804 78.9024C41.0452 80.962 34.7927 79.8367 34.7927 79.8367C34.7927 79.8367 44.3307 76.4747 47.0588 72.736C49.7868 68.9972 50.8098 65.9382 50.8098 65.9382C50.8098 65.9382 54.2649 66.5445 56.2987 67.3367C58.3325 68.1288 59.0615 72.1006 59.0615 72.1006Z" fill="#005960"/>
<path fill-rule="evenodd" clip-rule="evenodd" d="M10.7764 70.9104C10.7764 70.9104 8.55483 64.3703 10.7764 59.7195C12.9981 55.0688 19.8017 51.5807 25.6335 53.6154C31.4652 55.6501 34.7976 62.4809 34.7976 66.6957C34.7976 70.9104 34.7976 80.0666 34.7976 80.0666C34.7976 80.0666 25.8239 68.7042 19.4368 67.9775C13.0496 67.2508 10.7764 70.9104 10.7764 70.9104Z" fill="url(#paint10_linear)"/>
<path fill-rule="evenodd" clip-rule="evenodd" d="M59.0612 72.1006C59.0612 72.1006 61.2339 63.5305 57.8441 58.3724C54.4543 53.2144 49.8426 52.4908 45.0127 53.0225C40.1828 53.5542 35.5279 58.5833 34.8217 65.2585C34.1155 71.9336 34.8217 80.0667 34.8217 80.0667C34.8217 80.0667 42.6076 70.2109 49.1047 68.9973C55.6018 67.7836 59.0612 72.1006 59.0612 72.1006Z" fill="url(#paint11_linear)"/>
<path fill-rule="evenodd" clip-rule="evenodd" d="M112.202 45.5229C113.753 45.179 115.658 45.3183 117.956 46.3352L119.172 43.6057C116.389 42.3737 113.83 42.1041 111.557 42.6083C109.29 43.1111 107.436 44.3544 106.005 45.9309C103.188 49.0341 101.873 53.5697 102.109 57.0879C102.328 60.3405 103.038 63.4663 104.707 65.7633C106.456 68.1691 109.133 69.4954 112.79 69.2946L112.63 66.3133C109.9 66.4631 108.234 65.5264 107.131 64.0086C105.949 62.382 105.299 59.9236 105.095 56.8843C104.909 54.1106 105.993 50.3895 108.222 47.9334C109.314 46.7302 110.645 45.8683 112.202 45.5229Z" fill="#BB9C4E"/>
<ellipse rx="21.3952" ry="22.3519" transform="matrix(0.973399 0.229126 -0.232301 0.972646 122.262 80.8143)" fill="#005150"/>
<mask id="mask0" mask-type="alpha" maskUnits="userSpaceOnUse" x="100" y="58" width="44" height="46">
<ellipse rx="21.3952" ry="22.3519" transform="matrix(0.973399 0.229126 -0.232301 0.972646 122.262 80.8143)" fill="white"/>
</mask>
<g mask="url(#mask0)">
<path fill-rule="evenodd" clip-rule="evenodd" d="M108.315 85.8786C95.8594 94.3474 91.8147 111.096 99.3288 123.706C106.844 136.318 123.127 140.105 136.037 132.396L108.315 85.8786Z" fill="#008181"/>
<path fill-rule="evenodd" clip-rule="evenodd" d="M117.857 98.0672C119.831 104.504 126.456 108.083 132.792 106.079C139.125 104.076 142.807 97.2425 141.126 90.718L117.857 98.0672Z" fill="#FF9445"/>
<mask id="mask1" mask-type="alpha" maskUnits="userSpaceOnUse" x="102" y="67" width="40" height="48">
<path fill-rule="evenodd" clip-rule="evenodd" d="M112.031 67.0437L141.545 73.9915L131.906 114.357L102.391 107.409L112.031 67.0437Z" fill="white"/>
</mask>
<g mask="url(#mask1)">
<path fill-rule="evenodd" clip-rule="evenodd" d="M128.59 111.308L134.581 86.2222C134.697 85.7376 134.786 85.2529 134.849 84.7703C135.11 82.7767 135.744 80.8539 136.667 79.071C136.839 78.739 137.007 78.3922 137.173 78.0309C137.602 77.1016 136.791 76.1115 135.849 76.4181C135.426 76.5558 134.991 76.6828 134.561 76.7864C134.014 76.9179 133.461 76.6731 133.179 76.1789C131.483 73.2167 128.68 70.9634 125.185 70.1407C121.691 69.318 118.167 70.0818 115.313 71.9722C114.837 72.2878 114.232 72.26 113.803 71.8985C113.467 71.6153 113.136 71.3081 112.821 70.9973C112.118 70.3035 110.946 70.8265 110.908 71.8478C110.894 72.2422 110.887 72.6242 110.89 72.9948C110.908 74.9994 110.607 77.0001 109.937 78.8969C109.774 79.3589 109.633 79.8342 109.517 80.3219L107.964 86.8228C105.991 95.0859 109.009 103.323 115.007 108.111L106.018 105.995L132.418 112.209L128.59 111.308Z" fill="#00BCBC"/>
</g>
<path opacity="0.901284" fill-rule="evenodd" clip-rule="evenodd" d="M128.798 77.8022C126.425 77.2436 124.025 78.3546 122.73 80.3953C122.496 77.9946 120.854 75.9322 118.481 75.3737C115.451 74.6605 112.377 76.6688 111.615 79.8591C110.045 86.4347 109.374 91.9074 119.416 94.2711C128.9 96.5037 131.334 91.4459 132.904 84.8703C133.666 81.68 131.827 78.5153 128.798 77.8022Z" fill="white"/>
</g>
<path fill-rule="evenodd" clip-rule="evenodd" d="M121.808 89.5022L123.751 87.2094C123.968 86.9535 124.012 86.5779 123.858 86.2926L122.437 83.6448C122.241 83.2796 121.788 83.173 121.448 83.412L118.981 85.1444C118.715 85.3309 118.584 85.6861 118.662 86.0113L119.361 88.9261C119.639 90.0839 121.037 90.4131 121.808 89.5022Z" fill="#FFA32C"/>
<path fill-rule="evenodd" clip-rule="evenodd" d="M129.095 84.8262L127.952 84.5569C128.05 84.1464 128.183 83.1695 127.307 82.9629C126.43 82.7564 126.108 83.6887 126.01 84.0992L124.868 83.8299C125.232 82.3033 126.326 81.478 127.59 81.776C128.854 82.0739 129.459 83.2995 129.095 84.8262Z" fill="#007F7E"/>
<path fill-rule="evenodd" clip-rule="evenodd" d="M118.572 82.3393L117.43 82.0701C117.528 81.6596 117.661 80.6827 116.784 80.4761C115.908 80.2696 115.586 81.2019 115.488 81.6123L114.345 81.3431C114.71 79.8165 115.803 78.9912 117.067 79.2891C118.332 79.5871 118.936 80.8127 118.572 82.3393Z" fill="#007F7E"/>
<ellipse rx="2.99262" ry="2.98778" transform="matrix(0.973286 0.229599 -0.231823 0.972759 127.095 65.0015)" fill="white"/>
<path fill-rule="evenodd" clip-rule="evenodd" d="M121.798 47.8902C120.254 47.3716 118.692 46.8356 117.4 46.1802L118.76 43.5177C119.825 44.0579 121.177 44.5291 122.757 45.0596C122.888 45.1038 123.021 45.1483 123.156 45.1933C124.594 45.675 126.173 46.2039 127.699 46.8532C131.018 48.2662 134.427 50.3882 135.935 54.3387C136.662 56.2421 136.826 57.9769 136.519 59.5358C136.212 61.0936 135.457 62.3697 134.512 63.3897C132.663 65.3875 130.03 66.4722 128.221 66.997C128.221 66.997 127.511 67.0107 127.109 65.806C126.708 64.6012 127.388 64.1293 127.388 64.1293C128.984 63.6666 131.005 62.7793 132.314 61.3651C132.949 60.6791 133.399 59.8893 133.581 58.9642C133.763 58.0401 133.698 56.8751 133.137 55.4048C132.069 52.608 129.607 50.9141 126.521 49.6003C125.11 49 123.642 48.508 122.185 48.0199C122.056 47.9767 121.927 47.9335 121.798 47.8902Z" fill="#BB9C4E"/>
<g filter="url(#filter0_f)">
<path d="M127.787 39.7236L121.662 31.4058L120.08 30.8539L110.095 33.5509L118.441 27.4634L118.987 25.8714L116.284 15.9288L122.401 24.2315L123.99 24.7986L133.968 22.0863L125.629 28.1891L125.077 29.7659L127.787 39.7236Z" fill="white"/>
</g>
<g filter="url(#filter1_f)">
<path d="M59.5665 98.9061L55.4072 93.2574L54.3331 92.8826L47.5522 94.7142L53.2201 90.5801L53.5904 89.4989L51.7552 82.7469L55.9094 88.3853L56.9885 88.7704L63.7645 86.9285L58.1015 91.0729L57.7262 92.1437L59.5665 98.9061Z" fill="white"/>
</g>
</g>
<defs>
<filter id="filter0_f" x="109.096" y="14.9287" width="25.8729" height="25.7948" filterUnits="userSpaceOnUse" color-interpolation-filters="sRGB">
<feFlood flood-opacity="0" result="BackgroundImageFix"/>
<feBlend mode="normal" in="SourceGraphic" in2="BackgroundImageFix" result="shape"/>
<feGaussianBlur stdDeviation="0.5" result="effect1_foregroundBlur"/>
</filter>
<filter id="filter1_f" x="46.5518" y="81.7468" width="18.2123" height="18.1592" filterUnits="userSpaceOnUse" color-interpolation-filters="sRGB">
<feFlood flood-opacity="0" result="BackgroundImageFix"/>
<feBlend mode="normal" in="SourceGraphic" in2="BackgroundImageFix" result="shape"/>
<feGaussianBlur stdDeviation="0.5" result="effect1_foregroundBlur"/>
</filter>
<linearGradient id="paint0_linear" x1="52.5146" y1="70.8238" x2="178.722" y2="70.3808" gradientUnits="userSpaceOnUse">
<stop stop-color="#A5E9E9"/>
<stop offset="0.540249" stop-color="#62E8D0"/>
<stop offset="1" stop-color="#00A7A7"/>
</linearGradient>
<linearGradient id="paint1_linear" x1="59.335" y1="109.172" x2="169.864" y2="108.851" gradientUnits="userSpaceOnUse">
<stop stop-color="#A5E9E9"/>
<stop offset="0.540249" stop-color="#62E8D0"/>
<stop offset="1" stop-color="#00A7A7"/>
</linearGradient>
<linearGradient id="paint2_linear" x1="107.806" y1="25.7156" x2="63.2196" y2="56.8659" gradientUnits="userSpaceOnUse">
<stop stop-color="#FFED7D"/>
<stop offset="1" stop-color="#FFA600"/>
</linearGradient>
<linearGradient id="paint3_linear" x1="107.806" y1="44.7092" x2="107.806" y2="120.684" gradientUnits="userSpaceOnUse">
<stop stop-color="#FFDD61"/>
<stop offset="1" stop-color="white" stop-opacity="0"/>
</linearGradient>
<linearGradient id="paint4_linear" x1="116.036" y1="23.0025" x2="68.0156" y2="29.3295" gradientUnits="userSpaceOnUse">
<stop stop-color="#B48700"/>
<stop offset="0.331903" stop-color="#FFED7D"/>
<stop offset="1" stop-color="#BC8520"/>
</linearGradient>
<linearGradient id="paint5_linear" x1="156.985" y1="22.8593" x2="108.745" y2="29.2008" gradientUnits="userSpaceOnUse">
<stop stop-color="#B48700"/>
<stop offset="0.331903" stop-color="#FFED7D"/>
<stop offset="1" stop-color="#BC8520"/>
</linearGradient>
<linearGradient id="paint6_linear" x1="5.37432e-09" y1="96.3923" x2="77.0586" y2="96.1257" gradientUnits="userSpaceOnUse">
<stop stop-color="#A5E9E9"/>
<stop offset="0.540249" stop-color="#62E8D0"/>
<stop offset="1" stop-color="#00A7A7"/>
</linearGradient>
<linearGradient id="paint7_linear" x1="4.0918" y1="115.698" x2="71.8097" y2="115.429" gradientUnits="userSpaceOnUse">
<stop stop-color="#A5E9E9"/>
<stop offset="0.540249" stop-color="#62E8D0"/>
<stop offset="1" stop-color="#00A7A7"/>
</linearGradient>
<linearGradient id="paint8_linear" x1="33.7591" y1="70.017" x2="9.12079" y2="88.9684" gradientUnits="userSpaceOnUse">
<stop stop-color="#FFED7D"/>
<stop offset="1" stop-color="#FFA600"/>
</linearGradient>
<linearGradient id="paint9_linear" x1="33.7591" y1="80.2136" x2="33.7591" y2="121" gradientUnits="userSpaceOnUse">
<stop stop-color="#FFDD61"/>
<stop offset="1" stop-color="white" stop-opacity="0"/>
</linearGradient>
<linearGradient id="paint10_linear" x1="38.6256" y1="66.474" x2="9.09063" y2="70.1986" gradientUnits="userSpaceOnUse">
<stop stop-color="#B48700"/>
<stop offset="0.331903" stop-color="#FFED7D"/>
<stop offset="1" stop-color="#BC8520"/>
</linearGradient>
<linearGradient id="paint11_linear" x1="63.5452" y1="66.4741" x2="34.2327" y2="70.1419" gradientUnits="userSpaceOnUse">
<stop stop-color="#B48700"/>
<stop offset="0.331903" stop-color="#FFED7D"/>
<stop offset="1" stop-color="#BC8520"/>
</linearGradient>
<clipPath id="clip0">
<rect width="163" height="121" fill="white"/>
</clipPath>
</defs>
</svg>
