<svg width="82" height="15" viewBox="0 0 82 15" fill="none" xmlns="http://www.w3.org/2000/svg">
<g clip-path="url(#clip0)">
<path fill-rule="evenodd" clip-rule="evenodd" d="M73.9917 10.0172C73.9917 8.82346 73.8875 7.55184 75.0867 6.74734C76.677 5.65737 79.2058 6.53973 79.2058 8.69371C79.2058 9.62796 79.3101 10.3546 78.9972 11.1332C78.8929 11.3927 78.7104 11.73 78.5279 11.9117C77.7458 12.7162 76.4423 12.9238 75.4777 12.4307C75.217 12.301 74.9303 12.1453 74.7217 11.8857C74.3307 11.4186 73.9917 10.8477 73.9917 10.0172ZM79.2058 5.03454C79.0493 4.93073 78.9711 4.80097 78.7626 4.67121C78.5801 4.54146 78.4237 4.4636 78.2151 4.38575C77.0941 3.86672 75.4517 4.04838 74.3567 4.48955C72.7404 5.13834 71.6715 6.95495 71.6715 8.84942C71.6715 10.0691 71.5933 10.9774 72.0886 12.0934C73.2096 14.7404 76.2859 15.4671 78.6844 14.5328C78.9711 14.4031 79.2058 14.2733 79.4404 14.1176C79.9618 13.7802 80.0139 13.6505 80.3789 13.2871C80.4832 13.1833 80.5353 13.0795 80.6136 12.9498C81.135 12.1712 81.4739 11.211 81.4739 10.1729V0.2854H79.1797V5.03454H79.2058Z" fill="#00A83B"/>
<path fill-rule="evenodd" clip-rule="evenodd" d="M54.8044 12.7164C54.4134 12.7164 53.9962 12.6126 53.6834 12.4828C52.7709 12.1195 52.1192 11.0555 52.1192 10.0174C52.1192 8.92748 52.0149 7.88942 52.8491 7.08492C54.5176 5.42402 57.4375 6.43613 57.4375 9.05724C57.4375 10.0434 57.4636 11.1074 56.7336 11.86C56.499 12.0936 56.2643 12.3012 55.9515 12.4569C55.6647 12.5607 55.1694 12.7164 54.8044 12.7164ZM49.825 8.79772C49.825 10.4327 49.7468 11.4188 50.6332 12.8462C51.8585 14.8185 54.8305 15.3894 56.9161 14.4811C57.2289 14.3514 57.4636 14.2216 57.7243 14.0399C57.8546 13.9361 57.9589 13.8842 58.0632 13.7545C58.6367 13.2614 59.0799 12.6905 59.3406 11.9119C59.8881 10.3548 59.8881 7.6299 58.9756 6.20256C58.7671 5.89115 58.4542 5.44997 58.1675 5.2164C58.0371 5.1126 58.011 5.0607 57.8546 4.95689C56.5772 4.10049 55.8733 4.04858 54.3612 4.04858C53.162 4.04858 51.9106 4.64547 51.1285 5.42402C50.3203 6.25447 49.825 7.6299 49.825 8.79772Z" fill="#00A83B"/>
<path fill-rule="evenodd" clip-rule="evenodd" d="M65.6493 12.7162C64.5804 12.7162 63.6158 12.0933 63.2248 11.1331C62.912 10.3546 62.9902 9.8096 62.9902 8.97915C62.9902 5.42378 68.2824 5.31998 68.2824 9.057C68.2824 9.78365 68.3345 10.3286 68.0999 10.9774C67.9956 11.2629 67.7871 11.6522 67.6046 11.8338C67.0571 12.3788 66.4314 12.7162 65.6493 12.7162ZM60.6699 8.79749V10.0951C60.6699 12.82 62.6773 14.9221 65.519 14.9221C66.4053 14.9221 67.1092 14.7923 67.761 14.5068C68.2303 14.2992 68.5431 14.1176 68.9342 13.7802C70.4462 12.4826 70.5766 10.9515 70.5766 9.057C70.5766 7.86323 70.2898 6.79922 69.612 5.89091C69.1427 5.26807 68.6734 4.8788 67.9696 4.54143C66.6921 3.91859 64.6587 3.89264 63.3551 4.48953C62.2863 4.98261 61.5042 5.78711 61.061 6.85112C60.8524 7.3961 60.6699 8.0968 60.6699 8.79749Z" fill="#00A83B"/>
<path fill-rule="evenodd" clip-rule="evenodd" d="M41.3516 1.99841V14.5849C41.3516 14.6887 41.3776 14.7147 41.4819 14.7147H43.6197C43.7239 14.7147 43.75 14.6887 43.75 14.5849V9.73197H48.4687V7.52609H43.75V4.07453H48.964V1.99841C48.964 1.8946 48.938 1.86865 48.8337 1.86865H41.4819C41.3776 1.86865 41.3516 1.8946 41.3516 1.99841Z" fill="#00A83B"/>
<path fill-rule="evenodd" clip-rule="evenodd" d="M0.5 8.1746C0.5 9.80954 0.55214 10.4843 1.30818 11.9116C1.38639 12.0673 1.49067 12.223 1.59495 12.3787C1.80351 12.6902 2.01207 12.9237 2.29884 13.1832C2.89845 13.7801 3.2113 14.0137 4.01947 14.4289C5.71403 15.2594 8.24284 15.1556 9.88526 14.2732C10.2242 14.0916 10.537 13.9099 10.8499 13.6504C10.9541 13.5466 11.4495 13.1832 11.4495 13.0016V7.86318H6.41793V8.84934H10.4327V12.6642C10.4327 12.8459 9.98954 13.1313 9.83312 13.2352C9.54635 13.3909 9.33779 13.5206 9.02494 13.6504C6.93933 14.403 4.56695 14.0916 2.97667 12.5085C2.2467 11.8078 1.51674 10.4583 1.51674 9.031C1.51674 7.96698 1.54281 7.11058 2.09028 6.20228L3.2113 4.74899C4.67123 3.58117 5.55761 3.26975 7.51287 3.26975C8.06035 3.26975 8.55568 3.34761 8.99887 3.45141L9.91133 3.78878C10.0156 3.84069 10.1199 3.89259 10.2242 3.94449V2.82857C9.78098 2.72477 9.85919 2.62096 8.81638 2.4393C7.40859 2.20574 5.76617 2.30954 4.48873 2.85453C3.83698 3.13999 3.05488 3.58117 2.55954 4.0483C2.22063 4.38567 2.22063 4.30781 1.80351 4.82684C1.67316 4.98255 1.59495 5.08636 1.4646 5.26802C1.33425 5.44968 1.2821 5.57944 1.17782 5.7611C0.812842 6.35799 0.5 7.4739 0.5 8.1746Z" fill="#00A83B"/>
<path fill-rule="evenodd" clip-rule="evenodd" d="M18.6187 8.71974C18.6187 9.99137 18.5145 10.8478 19.088 11.9896C19.2966 12.4049 19.7398 13.0277 20.0787 13.3391C21.2518 14.3512 22.5293 14.9481 24.1978 14.6107C24.4845 14.5588 24.6931 14.455 24.8756 14.4031V13.417C23.8328 13.6505 23.2592 13.962 21.9036 13.3651C21.669 13.2613 21.5386 13.1834 21.304 13.0277C20.9651 12.7941 20.6001 12.4827 20.3654 12.1453C19.4791 10.9516 19.6094 10.1211 19.6094 8.69379C19.6094 8.22666 19.844 7.62978 19.9744 7.31836C20.4697 6.22839 21.8775 5.19033 23.181 5.19033C24.302 5.19033 25.032 5.39794 25.8663 6.09863C26.7005 6.77338 27.1958 7.75953 27.1958 8.9014V14.6627H28.1865V8.9014C28.1865 8.25261 27.9779 7.50002 27.7433 7.05884C27.3522 6.2803 27.3783 6.3841 26.9351 5.83912C26.2312 4.95677 24.7713 4.25607 23.5981 4.25607H23.181C20.7826 4.23012 18.6187 6.56576 18.6187 8.71974Z" fill="#00A83B"/>
<path fill-rule="evenodd" clip-rule="evenodd" d="M28.8378 9.83564C28.9682 9.73183 29.8546 8.61591 30.011 8.43425L31.2363 7.08477C32.3573 5.96885 33.0873 5.21626 34.8861 5.21626C35.7986 5.21626 36.7371 5.68339 37.3628 6.33218L37.4149 6.38408C38.5099 7.57785 38.5359 8.38235 38.5359 9.93944C38.5359 13.5208 33.7912 15.1817 31.6273 12.0675C31.4709 11.8339 31.1581 11.2889 31.132 10.9775C31.0016 11.0035 31.0016 11.0554 30.9234 11.1592C30.8452 11.237 30.8192 11.2889 30.767 11.3668C30.7149 11.4187 30.4281 11.7561 30.4281 11.782C30.4281 12.4048 31.3406 13.4429 31.9402 13.8581C35.3554 16.1678 39.5266 13.5986 39.5266 9.88754V9.05709C39.5266 7.62975 38.9009 6.48788 38.1709 5.76124C37.7278 5.32006 37.4149 5.06055 36.8414 4.74913C35.3554 3.99653 33.5305 4.12629 32.1748 5.06055L31.5491 5.52768C31.0277 5.9429 30.5845 6.41003 30.1153 6.90311C30.0371 6.98096 30.0371 7.00692 29.9588 7.08477C29.8806 7.16263 29.8546 7.18858 29.7763 7.29238C29.6721 7.42214 29.5678 7.5519 29.4635 7.68166C28.6032 8.58996 28.8378 8.43425 28.8378 9.83564Z" fill="#00A83B"/>
<path fill-rule="evenodd" clip-rule="evenodd" d="M2.16895 8.48623V8.8236C2.16895 11.289 4.20242 13.3392 6.67908 13.3392C7.51333 13.3392 8.50399 13.1835 9.18182 12.8461C9.31217 12.7942 9.72929 12.5347 9.72929 12.379V9.52429H6.41838V10.5104H8.79076V11.9637C8.03473 12.1454 7.87831 12.3271 6.70515 12.3271C4.69775 12.3271 3.15961 10.744 3.15961 8.74574V8.38242C3.15961 7.34436 3.81136 6.38415 4.38491 5.89107C5.63628 4.85301 7.25262 4.67135 8.89504 5.08657C9.15575 5.13847 9.41645 5.24228 9.62501 5.34609C9.85964 5.47584 10.0161 5.63155 10.2246 5.73536V4.54159C10.0161 4.48969 9.78143 4.35993 9.57287 4.28207C7.85224 3.68519 5.92305 3.71114 4.38491 4.67135L3.68101 5.19038C2.89891 5.91702 2.16895 7.00699 2.16895 8.48623Z" fill="#00A83B"/>
<path fill-rule="evenodd" clip-rule="evenodd" d="M28.8379 12.5347C28.8901 12.4828 30.8193 10.0693 31.2625 9.60219C31.7839 9.0572 32.2531 8.46032 32.8006 7.88938C33.5306 7.16274 34.417 6.51395 35.6162 7.08488C36.6329 7.57796 36.8415 8.43437 36.8415 9.60219C36.8415 10.3807 36.6851 10.796 36.3201 11.2371C35.903 11.7562 35.3033 11.9638 34.5734 11.9638C33.4524 11.9638 32.4356 10.4067 32.4356 9.26482C32.2792 9.36862 31.7839 10.0953 31.6014 10.225C31.7578 10.5364 31.7839 11.2631 32.566 12.0416C33.0352 12.5088 33.7391 12.9759 34.4691 12.9759C35.0948 12.9759 35.4598 12.9499 36.0072 12.6904C36.9458 12.2233 37.7539 11.1593 37.7539 10.1212C37.7539 8.66793 37.9104 7.88938 36.7893 6.77347C36.3461 6.33229 35.538 5.89111 34.6777 5.89111C33.8434 5.89111 32.957 6.4361 32.4878 6.82537C31.9664 7.2925 30.7411 8.61603 30.2197 9.23886C30.0111 9.47243 28.864 10.8219 28.8119 10.9776C28.7597 11.2112 28.8379 12.2233 28.8379 12.5347Z" fill="#00A83B"/>
<path fill-rule="evenodd" clip-rule="evenodd" d="M20.2877 8.97931C20.2877 10.1731 20.2094 11.1073 21.174 12.0416C22.0344 12.872 23.1554 13.2354 24.3025 12.898C24.6414 12.7942 24.7457 12.6904 24.876 12.6385V11.5485C23.1814 12.6904 21.2783 11.5745 21.2783 9.96547V8.97931C21.2783 7.29246 23.4161 6.09869 24.9281 7.57793C25.2931 7.94125 25.5278 8.46028 25.5278 9.18692V14.7146H26.5184V9.18692C26.5184 6.79938 24.3285 5.26824 22.1386 6.17654C21.8519 6.3063 21.4347 6.59177 21.2262 6.79938C21.148 6.87723 21.1219 6.92914 21.0698 7.00699C20.6005 7.55197 20.2877 8.17481 20.2877 8.97931Z" fill="#00A83B"/>
<path fill-rule="evenodd" clip-rule="evenodd" d="M12.4658 8.90136V14.7145H13.4565V8.90136C13.4565 7.52593 14.2647 6.12454 15.516 5.60551C16.5067 5.19029 17.6798 5.08648 18.6966 5.52766C18.8269 5.57956 18.9051 5.63146 19.0355 5.68337C19.1137 5.4498 19.609 5.11243 19.6612 4.90482C19.583 4.87887 19.1398 4.61935 18.6966 4.48959C18.097 4.28198 17.6277 4.28198 16.976 4.28198C15.516 4.28198 14.0561 5.08648 13.274 6.28025C12.8308 6.95499 12.4658 7.88925 12.4658 8.90136Z" fill="#00A83B"/>
<path fill-rule="evenodd" clip-rule="evenodd" d="M14.1348 9.26477V14.5848C14.1348 14.7924 14.5519 14.7146 15.1254 14.7146V9.21286C15.1254 7.60387 16.1943 6.69556 17.7324 6.92913C17.8889 6.95508 18.0453 7.03293 18.2017 7.03293C18.2799 6.87722 18.306 6.77342 18.3842 6.59176C18.4363 6.462 18.5667 6.25439 18.6188 6.15058C18.4885 6.12463 18.4363 6.07272 18.3321 6.02082C17.185 5.6056 15.8033 5.96892 14.969 6.82532C14.3955 7.47411 14.1348 8.35646 14.1348 9.26477Z" fill="#00A83B"/>
<path fill-rule="evenodd" clip-rule="evenodd" d="M29.8291 6.15052C29.9855 6.04671 30.2984 5.57958 30.7155 5.24221C30.7676 5.19031 30.8458 5.19031 30.8458 5.0865V0H29.8552V6.15052H29.8291Z" fill="#00A83B"/>
<path fill-rule="evenodd" clip-rule="evenodd" d="M31.4971 4.72318C31.7578 4.59343 31.9403 4.35986 32.2531 4.20415C32.3574 4.15225 32.4877 4.10035 32.4877 3.97059V0H31.4971V4.72318Z" fill="#00A83B"/>
</g>
<defs>
<clipPath id="clip0">
<rect width="81" height="15" fill="white" transform="translate(0.5)"/>
</clipPath>
</defs>
</svg>
