<svg width="81" height="15" viewBox="0 0 81 15" fill="none" xmlns="http://www.w3.org/2000/svg">
<path fill-rule="evenodd" clip-rule="evenodd" d="M73.4919 10.0172C73.4919 8.82346 73.3876 7.55184 74.5868 6.74734C76.1771 5.65737 78.7059 6.53973 78.7059 8.69371C78.7059 9.62796 78.8102 10.3546 78.4973 11.1332C78.3931 11.3927 78.2106 11.73 78.0281 11.9117C77.246 12.7162 75.9425 12.9238 74.9779 12.4307C74.7172 12.301 74.4304 12.1453 74.2218 11.8857C73.8308 11.4186 73.4919 10.8477 73.4919 10.0172ZM78.7059 5.03454C78.5495 4.93073 78.4713 4.80097 78.2627 4.67121C78.0802 4.54146 77.9238 4.4636 77.7152 4.38575C76.5942 3.86672 74.9518 4.04838 73.8568 4.48955C72.2405 5.13834 71.1716 6.95495 71.1716 8.84942C71.1716 10.0691 71.0934 10.9774 71.5887 12.0934C72.7098 14.7404 75.786 15.4671 78.1845 14.5328C78.4713 14.4031 78.7059 14.2733 78.9405 14.1176C79.4619 13.7802 79.5141 13.6505 79.879 13.2871C79.9833 13.1833 80.0355 13.0795 80.1137 12.9498C80.6351 12.1712 80.974 11.211 80.974 10.1729V0.2854H78.6798V5.03454H78.7059Z" fill="#5E5E5E"/>
<path fill-rule="evenodd" clip-rule="evenodd" d="M54.3042 12.7164C53.9131 12.7164 53.496 12.6126 53.1831 12.4828C52.2707 12.1195 51.6189 11.0555 51.6189 10.0174C51.6189 8.92748 51.5147 7.88942 52.3489 7.08492C54.0174 5.42402 56.9372 6.43613 56.9372 9.05724C56.9372 10.0434 56.9633 11.1074 56.2334 11.86C55.9987 12.0936 55.7641 12.3012 55.4512 12.4569C55.1645 12.5607 54.6691 12.7164 54.3042 12.7164ZM49.3248 8.79772C49.3248 10.4327 49.2465 11.4188 50.1329 12.8462C51.3582 14.8185 54.3302 15.3894 56.4158 14.4811C56.7287 14.3514 56.9633 14.2216 57.224 14.0399C57.3544 13.9361 57.4587 13.8842 57.5629 13.7545C58.1365 13.2614 58.5797 12.6905 58.8404 11.9119C59.3878 10.3548 59.3878 7.6299 58.4754 6.20256C58.2668 5.89115 57.954 5.44997 57.6672 5.2164C57.5369 5.1126 57.5108 5.0607 57.3544 4.95689C56.0769 4.10049 55.373 4.04858 53.861 4.04858C52.6617 4.04858 51.4104 4.64547 50.6283 5.42402C49.8201 6.25447 49.3248 7.6299 49.3248 8.79772Z" fill="#5E5E5E"/>
<path fill-rule="evenodd" clip-rule="evenodd" d="M65.1493 12.7162C64.0804 12.7162 63.1158 12.0933 62.7248 11.1331C62.412 10.3546 62.4902 9.8096 62.4902 8.97915C62.4902 5.42378 67.7824 5.31998 67.7824 9.057C67.7824 9.78365 67.8345 10.3286 67.5999 10.9774C67.4956 11.2629 67.2871 11.6522 67.1046 11.8338C66.5571 12.3788 65.9314 12.7162 65.1493 12.7162ZM60.1699 8.79749V10.0951C60.1699 12.82 62.1773 14.9221 65.019 14.9221C65.9053 14.9221 66.6092 14.7923 67.261 14.5068C67.7303 14.2992 68.0431 14.1176 68.4342 13.7802C69.9462 12.4826 70.0766 10.9515 70.0766 9.057C70.0766 7.86323 69.7898 6.79922 69.112 5.89091C68.6427 5.26807 68.1734 4.8788 67.4696 4.54143C66.1921 3.91859 64.1587 3.89264 62.8551 4.48953C61.7863 4.98261 61.0042 5.78711 60.561 6.85112C60.3524 7.3961 60.1699 8.0968 60.1699 8.79749Z" fill="#5E5E5E"/>
<path fill-rule="evenodd" clip-rule="evenodd" d="M40.8521 1.99841V14.5849C40.8521 14.6887 40.8781 14.7147 40.9824 14.7147H43.1202C43.2244 14.7147 43.2505 14.6887 43.2505 14.5849V9.73197H47.9692V7.52609H43.2505V4.07453H48.4645V1.99841C48.4645 1.8946 48.4385 1.86865 48.3342 1.86865H40.9824C40.8781 1.86865 40.8521 1.8946 40.8521 1.99841Z" fill="#5E5E5E"/>
<path fill-rule="evenodd" clip-rule="evenodd" d="M0 8.1746C0 9.80954 0.0521403 10.4843 0.808175 11.9116C0.886386 12.0673 0.990666 12.223 1.09495 12.3787C1.30351 12.6902 1.51207 12.9237 1.79884 13.1832C2.39845 13.7801 2.7113 14.0137 3.51947 14.4289C5.21403 15.2594 7.74284 15.1556 9.38526 14.2732C9.72417 14.0916 10.037 13.9099 10.3499 13.6504C10.4541 13.5466 10.9495 13.1832 10.9495 13.0016V7.86318H5.91793V8.84934H9.93273V12.6642C9.93273 12.8459 9.48954 13.1313 9.33312 13.2352C9.04635 13.3909 8.83779 13.5206 8.52494 13.6504C6.43933 14.403 4.06695 14.0916 2.47667 12.5085C1.7467 11.8078 1.01674 10.4583 1.01674 9.031C1.01674 7.96698 1.04281 7.11058 1.59028 6.20228L2.7113 4.74899C4.17123 3.58117 5.05761 3.26975 7.01287 3.26975C7.56035 3.26975 8.05568 3.34761 8.49887 3.45141L9.41133 3.78878C9.51561 3.84069 9.61989 3.89259 9.72417 3.94449V2.82857C9.28098 2.72477 9.35919 2.62096 8.31638 2.4393C6.90859 2.20574 5.26617 2.30954 3.98873 2.85453C3.33698 3.13999 2.55488 3.58117 2.05954 4.0483C1.72063 4.38567 1.72063 4.30781 1.30351 4.82684C1.17316 4.98255 1.09495 5.08636 0.964596 5.26802C0.834245 5.44968 0.782105 5.57944 0.677824 5.7611C0.312842 6.35799 0 7.4739 0 8.1746Z" fill="#5E5E5E"/>
<path fill-rule="evenodd" clip-rule="evenodd" d="M18.1187 8.71974C18.1187 9.99137 18.0145 10.8478 18.588 11.9896C18.7966 12.4049 19.2398 13.0277 19.5787 13.3391C20.7518 14.3512 22.0293 14.9481 23.6978 14.6107C23.9845 14.5588 24.1931 14.455 24.3756 14.4031V13.417C23.3328 13.6505 22.7592 13.962 21.4036 13.3651C21.169 13.2613 21.0386 13.1834 20.804 13.0277C20.4651 12.7941 20.1001 12.4827 19.8654 12.1453C18.9791 10.9516 19.1094 10.1211 19.1094 8.69379C19.1094 8.22666 19.344 7.62978 19.4744 7.31836C19.9697 6.22839 21.3775 5.19033 22.681 5.19033C23.802 5.19033 24.532 5.39794 25.3663 6.09863C26.2005 6.77338 26.6958 7.75953 26.6958 8.9014V14.6627H27.6865V8.9014C27.6865 8.25261 27.4779 7.50002 27.2433 7.05884C26.8522 6.2803 26.8783 6.3841 26.4351 5.83912C25.7312 4.95677 24.2713 4.25607 23.0981 4.25607H22.681C20.2826 4.23012 18.1187 6.56576 18.1187 8.71974Z" fill="#5E5E5E"/>
<path fill-rule="evenodd" clip-rule="evenodd" d="M28.3383 9.83564C28.4687 9.73183 29.355 8.61591 29.5115 8.43425L30.7368 7.08477C31.8578 5.96885 32.5877 5.21626 34.3866 5.21626C35.299 5.21626 36.2376 5.68339 36.8633 6.33218L36.9154 6.38408C38.0104 7.57785 38.0364 8.38235 38.0364 9.93944C38.0364 13.5208 33.2916 15.1817 31.1278 12.0675C30.9714 11.8339 30.6586 11.2889 30.6325 10.9775C30.5021 11.0035 30.5021 11.0554 30.4239 11.1592C30.3457 11.237 30.3196 11.2889 30.2675 11.3668C30.2154 11.4187 29.9286 11.7561 29.9286 11.782C29.9286 12.4048 30.841 13.4429 31.4407 13.8581C34.8559 16.1678 39.0271 13.5986 39.0271 9.88754V9.05709C39.0271 7.62975 38.4014 6.48788 37.6714 5.76124C37.2282 5.32006 36.9154 5.06055 36.3419 4.74913C34.8559 3.99653 33.0309 4.12629 31.6753 5.06055L31.0496 5.52768C30.5282 5.9429 30.085 6.41003 29.6157 6.90311C29.5375 6.98096 29.5375 7.00692 29.4593 7.08477C29.3811 7.16263 29.355 7.18858 29.2768 7.29238C29.1726 7.42214 29.0683 7.5519 28.964 7.68166C28.1037 8.58996 28.3383 8.43425 28.3383 9.83564Z" fill="#5E5E5E"/>
<path fill-rule="evenodd" clip-rule="evenodd" d="M1.66846 8.48623V8.8236C1.66846 11.289 3.70193 13.3392 6.17859 13.3392C7.01284 13.3392 8.0035 13.1835 8.68133 12.8461C8.81168 12.7942 9.2288 12.5347 9.2288 12.379V9.52429H5.91789V10.5104H8.29028V11.9637C7.53424 12.1454 7.37782 12.3271 6.20466 12.3271C4.19726 12.3271 2.65912 10.744 2.65912 8.74574V8.38242C2.65912 7.34436 3.31088 6.38415 3.88442 5.89107C5.13579 4.85301 6.75214 4.67135 8.39456 5.08657C8.65526 5.13847 8.91596 5.24228 9.12452 5.34609C9.35915 5.47584 9.51557 5.63155 9.72413 5.73536V4.54159C9.51557 4.48969 9.28094 4.35993 9.07238 4.28207C7.35175 3.68519 5.42256 3.71114 3.88442 4.67135L3.18053 5.19038C2.39842 5.91702 1.66846 7.00699 1.66846 8.48623Z" fill="#5E5E5E"/>
<path fill-rule="evenodd" clip-rule="evenodd" d="M28.3383 12.5347C28.3904 12.4828 30.3196 10.0693 30.7628 9.60219C31.2842 9.0572 31.7535 8.46032 32.301 7.88938C33.0309 7.16274 33.9173 6.51395 35.1165 7.08488C36.1333 7.57796 36.3418 8.43437 36.3418 9.60219C36.3418 10.3807 36.1854 10.796 35.8204 11.2371C35.4033 11.7562 34.8037 11.9638 34.0737 11.9638C32.9527 11.9638 31.936 10.4067 31.936 9.26482C31.7796 9.36862 31.2842 10.0953 31.1017 10.225C31.2582 10.5364 31.2842 11.2631 32.0663 12.0416C32.5356 12.5088 33.2395 12.9759 33.9695 12.9759C34.5951 12.9759 34.9601 12.9499 35.5076 12.6904C36.4461 12.2233 37.2543 11.1593 37.2543 10.1212C37.2543 8.66793 37.4107 7.88938 36.2897 6.77347C35.8465 6.33229 35.0383 5.89111 34.178 5.89111C33.3438 5.89111 32.4574 6.4361 31.9881 6.82537C31.4667 7.2925 30.2414 8.61603 29.72 9.23886C29.5115 9.47243 28.3644 10.8219 28.3122 10.9776C28.2601 11.2112 28.3383 12.2233 28.3383 12.5347Z" fill="#5E5E5E"/>
<path fill-rule="evenodd" clip-rule="evenodd" d="M19.7873 8.97931C19.7873 10.1731 19.7091 11.1073 20.6737 12.0416C21.534 12.872 22.655 13.2354 23.8021 12.898C24.141 12.7942 24.2453 12.6904 24.3756 12.6385V11.5485C22.6811 12.6904 20.778 11.5745 20.778 9.96547V8.97931C20.778 7.29246 22.9157 6.09869 24.4278 7.57793C24.7928 7.94125 25.0274 8.46028 25.0274 9.18692V14.7146H26.0181V9.18692C26.0181 6.79938 23.8282 5.26824 21.6383 6.17654C21.3515 6.3063 20.9344 6.59177 20.7258 6.79938C20.6476 6.87723 20.6215 6.92914 20.5694 7.00699C20.1001 7.55197 19.7873 8.17481 19.7873 8.97931Z" fill="#5E5E5E"/>
<path fill-rule="evenodd" clip-rule="evenodd" d="M11.9662 8.90136V14.7145H12.9569V8.90136C12.9569 7.52593 13.765 6.12454 15.0164 5.60551C16.0071 5.19029 17.1802 5.08648 18.1969 5.52766C18.3273 5.57956 18.4055 5.63146 18.5359 5.68337C18.6141 5.4498 19.1094 5.11243 19.1615 4.90482C19.0833 4.87887 18.6401 4.61935 18.1969 4.48959C17.5973 4.28198 17.1281 4.28198 16.4763 4.28198C15.0164 4.28198 13.5565 5.08648 12.7744 6.28025C12.3312 6.95499 11.9662 7.88925 11.9662 8.90136Z" fill="#5E5E5E"/>
<path fill-rule="evenodd" clip-rule="evenodd" d="M13.6346 9.26477V14.5848C13.6346 14.7924 14.0518 14.7146 14.6253 14.7146V9.21286C14.6253 7.60387 15.6942 6.69556 17.2323 6.92913C17.3887 6.95508 17.5452 7.03293 17.7016 7.03293C17.7798 6.87722 17.8059 6.77342 17.8841 6.59176C17.9362 6.462 18.0666 6.25439 18.1187 6.15058C17.9884 6.12463 17.9362 6.07272 17.8319 6.02082C16.6848 5.6056 15.3031 5.96892 14.4689 6.82532C13.8953 7.47411 13.6346 8.35646 13.6346 9.26477Z" fill="#5E5E5E"/>
<path fill-rule="evenodd" clip-rule="evenodd" d="M29.329 6.15052C29.4854 6.04671 29.7982 5.57958 30.2154 5.24221C30.2675 5.19031 30.3457 5.19031 30.3457 5.0865V0H29.355V6.15052H29.329Z" fill="#5E5E5E"/>
<path fill-rule="evenodd" clip-rule="evenodd" d="M30.9974 4.72318C31.2581 4.59343 31.4406 4.35986 31.7535 4.20415C31.8577 4.15225 31.9881 4.10035 31.9881 3.97059V0H30.9974V4.72318Z" fill="#5E5E5E"/>
</svg>
