<svg width="49" height="18" viewBox="0 0 49 18" fill="none" xmlns="http://www.w3.org/2000/svg">
<path fill-rule="evenodd" clip-rule="evenodd" d="M0 9.81153C0 11.7738 0.0654642 12.5837 1.0147 14.2968C1.11289 14.4837 1.24382 14.6706 1.37475 14.8575C1.63661 15.2312 1.89846 15.5116 2.25852 15.823C3.01136 16.5394 3.40414 16.8198 4.41884 17.3181C6.54643 18.3149 9.72144 18.1903 11.7836 17.1313C12.2091 16.9132 12.6019 16.6952 12.9947 16.3837C13.1256 16.2591 13.7475 15.823 13.7475 15.605V9.43775H7.43019V10.6214H12.4709V15.2001C12.4709 15.4181 11.9145 15.7608 11.7181 15.8853C11.358 16.0722 11.0962 16.228 10.7034 16.3837C8.08484 17.287 5.10621 16.9132 3.10955 15.0132C2.19305 14.1722 1.27655 12.5525 1.27655 10.8394C1.27655 9.56235 1.30929 8.53447 1.99666 7.4443L3.40414 5.70002C5.23714 4.29837 6.35003 3.9246 8.80494 3.9246C9.49232 3.9246 10.1142 4.01804 10.6707 4.14263L11.8163 4.54756C11.9472 4.60985 12.0782 4.67215 12.2091 4.73444V3.39509C11.6526 3.2705 11.7508 3.14591 10.4415 2.92787C8.67401 2.64754 6.61189 2.77213 5.00802 3.42624C4.18971 3.76886 3.20775 4.29837 2.58584 4.85903C2.16032 5.26395 2.16032 5.17051 1.63661 5.79347C1.47295 5.98035 1.37475 6.10494 1.21109 6.32298C1.04743 6.54101 0.981964 6.69675 0.851035 6.91479C0.392786 7.63118 0 8.97054 0 9.81153Z" fill="#5E5E5E"/>
<path fill-rule="evenodd" clip-rule="evenodd" d="M22.7488 10.4656C22.7488 11.9918 22.6179 13.0197 23.338 14.3902C23.5998 14.8886 24.1563 15.6361 24.5818 16.0099C26.0548 17.2246 27.6586 17.941 29.7535 17.5361C30.1135 17.4738 30.3754 17.3492 30.6045 17.2869V16.1033C29.2952 16.3837 28.5751 16.7574 26.8731 16.041C26.5785 15.9164 26.4148 15.823 26.1202 15.6361C25.6947 15.3558 25.2365 14.982 24.9419 14.5771C23.829 13.1443 23.9926 12.1476 23.9926 10.4344C23.9926 9.87378 24.2872 9.15738 24.4509 8.7836C25.0728 7.4754 26.8403 6.22949 28.4769 6.22949C29.8844 6.22949 30.8009 6.47867 31.8483 7.31966C32.8958 8.1295 33.5177 9.31312 33.5177 10.6836V17.5984H34.7615V10.6836C34.7615 9.90492 34.4996 9.00164 34.2051 8.47213C33.7141 7.53769 33.7468 7.66228 33.1904 7.00818C32.3066 5.94916 30.4736 5.10817 29.0006 5.10817H28.4769C25.4656 5.07702 22.7488 7.88032 22.7488 10.4656Z" fill="#5E5E5E"/>
<path fill-rule="evenodd" clip-rule="evenodd" d="M35.5799 11.805C35.7436 11.6804 36.8565 10.3411 37.0529 10.123L38.5913 8.50334C39.9988 7.16399 40.9152 6.2607 43.1738 6.2607C44.3194 6.2607 45.4978 6.82136 46.2833 7.60006L46.3488 7.66235C47.7235 9.09515 47.7563 10.0607 47.7563 11.9296C47.7563 16.228 41.799 18.2214 39.0823 14.4837C38.8859 14.2034 38.4931 13.5493 38.4603 13.1755C38.2967 13.2067 38.2967 13.269 38.1985 13.3935C38.1003 13.487 38.0676 13.5493 38.0021 13.6427C37.9366 13.705 37.5766 14.1099 37.5766 14.1411C37.5766 14.8886 38.7222 16.1345 39.475 16.6329C43.7629 19.4051 49.0001 16.3214 49.0001 11.8673V10.8706C49.0001 9.15745 48.2145 7.78694 47.298 6.91481C46.7416 6.38529 46.3488 6.07382 45.6287 5.70004C43.7629 4.79676 41.4717 4.9525 39.7696 6.07382L38.9841 6.63448C38.3294 7.13284 37.773 7.6935 37.1838 8.28531C37.0856 8.37875 37.0856 8.4099 36.9874 8.50334C36.8892 8.59679 36.8565 8.62793 36.7583 8.75252C36.6273 8.90826 36.4964 9.064 36.3655 9.21974C35.2853 10.3099 35.5799 10.123 35.5799 11.805Z" fill="#5E5E5E"/>
<path fill-rule="evenodd" clip-rule="evenodd" d="M2.09473 10.1854V10.5903C2.09473 13.5494 4.64783 16.01 7.75738 16.01C8.80481 16.01 10.0486 15.8231 10.8997 15.4182C11.0633 15.3559 11.587 15.0444 11.587 14.8576V11.4313H7.43006V12.6149H10.4087V14.3592C9.45945 14.5772 9.26306 14.7953 7.79011 14.7953C5.26974 14.7953 3.33855 12.8953 3.33855 10.4969V10.0608C3.33855 8.81489 4.15685 7.66243 4.87696 7.07062C6.4481 5.82471 8.47749 5.60667 10.5396 6.10504C10.8669 6.16733 11.1943 6.29192 11.4561 6.41652C11.7507 6.57225 11.9471 6.75914 12.2089 6.88373V5.45093C11.9471 5.38864 11.6525 5.2329 11.3906 5.13946C9.23033 4.42306 6.80815 4.45421 4.87696 5.60667L3.99319 6.22963C3.01123 7.10177 2.09473 8.40997 2.09473 10.1854Z" fill="#5E5E5E"/>
<path fill-rule="evenodd" clip-rule="evenodd" d="M35.5799 15.0444C35.6454 14.9821 38.0675 12.0853 38.624 11.5247C39.2786 10.8706 39.8678 10.1542 40.5552 9.46893C41.4717 8.5968 42.5846 7.8181 44.0902 8.50335C45.3668 9.09516 45.6287 10.123 45.6287 11.5247C45.6287 12.4591 45.4323 12.9575 44.974 13.487C44.4503 14.11 43.6975 14.3591 42.781 14.3591C41.3735 14.3591 40.0969 12.4903 40.0969 11.1198C39.9005 11.2444 39.2786 12.1165 39.0495 12.2722C39.2459 12.646 39.2786 13.5181 40.2606 14.4526C40.8498 15.0132 41.7335 15.5739 42.65 15.5739C43.4356 15.5739 43.8939 15.5427 44.5812 15.2313C45.7596 14.6706 46.7743 13.3936 46.7743 12.1476C46.7743 10.4034 46.9707 9.46893 45.5632 8.12958C45.0067 7.60007 43.9921 7.07056 42.9119 7.07056C41.8645 7.07056 40.7516 7.72466 40.1624 8.19188C39.5077 8.75254 37.9693 10.3411 37.3147 11.0886C37.0528 11.3689 35.6126 12.9886 35.5472 13.1755C35.4817 13.4558 35.5799 14.6706 35.5799 15.0444Z" fill="#5E5E5E"/>
<path fill-rule="evenodd" clip-rule="evenodd" d="M24.8437 10.7771C24.8437 12.2099 24.7455 13.3313 25.9566 14.4526C27.0368 15.4493 28.4442 15.8854 29.8845 15.4805C30.31 15.3559 30.4409 15.2313 30.6046 15.169V13.8608C28.477 15.2313 26.0875 13.8919 26.0875 11.9608V10.7771C26.0875 8.75253 28.7716 7.31974 30.67 9.09516C31.1283 9.53123 31.4229 10.1542 31.4229 11.0263V17.6608H32.6667V11.0263C32.6667 8.16073 29.9172 6.32301 27.1677 7.41318C26.8076 7.56892 26.2839 7.91154 26.0221 8.16073C25.9239 8.25417 25.8911 8.31646 25.8257 8.40991C25.2365 9.06401 24.8437 9.81156 24.8437 10.7771Z" fill="#5E5E5E"/>
<path fill-rule="evenodd" clip-rule="evenodd" d="M15.0239 10.6837V17.6608H16.2677V10.6837C16.2677 9.03287 17.2824 7.3509 18.8536 6.72794C20.0974 6.22958 21.5703 6.10498 22.8469 6.6345C23.0106 6.69679 23.1088 6.75909 23.2724 6.82138C23.3706 6.54105 23.9925 6.13613 24.058 5.88695C23.9598 5.8558 23.4033 5.54432 22.8469 5.38859C22.0941 5.1394 21.5049 5.1394 20.6866 5.1394C18.8536 5.1394 17.0206 6.10499 16.0386 7.53778C15.4822 8.34762 15.0239 9.46894 15.0239 10.6837Z" fill="#5E5E5E"/>
<path fill-rule="evenodd" clip-rule="evenodd" d="M17.1189 11.1196V17.5049C17.1189 17.7541 17.6426 17.6606 18.3627 17.6606V11.0573C18.3627 9.12616 19.7047 8.03599 21.6359 8.31632C21.8323 8.34747 22.0287 8.44091 22.2251 8.44091C22.3233 8.25402 22.356 8.12943 22.4542 7.9114C22.5197 7.75566 22.6833 7.50648 22.7488 7.38189C22.5851 7.35074 22.5197 7.28844 22.3888 7.22615C20.9485 6.72778 19.2137 7.16385 18.1663 8.19173C17.4462 8.97042 17.1189 10.0294 17.1189 11.1196Z" fill="#5E5E5E"/>
<path fill-rule="evenodd" clip-rule="evenodd" d="M36.8237 7.38202C37.0201 7.25743 37.4129 6.69677 37.9366 6.29185C38.0021 6.22955 38.1003 6.22955 38.1003 6.10496V0H36.8565V7.38202H36.8237Z" fill="#5E5E5E"/>
<path fill-rule="evenodd" clip-rule="evenodd" d="M38.9185 5.66889C39.2458 5.51315 39.4749 5.23282 39.8677 5.04594C39.9986 4.98364 40.1623 4.92135 40.1623 4.76561V0H38.9185V5.66889Z" fill="#5E5E5E"/>
</svg>
