<svg width="75" height="75" viewBox="0 0 75 75" fill="none" xmlns="http://www.w3.org/2000/svg">
<path fill-rule="evenodd" clip-rule="evenodd" d="M38.0515 1.875C18.087 1.875 1.90259 17.8249 1.90259 37.5C1.90259 57.1752 18.087 73.125 38.0515 73.125C58.016 73.125 74.2004 57.1752 74.2004 37.5C74.2004 17.8249 58.016 1.875 38.0515 1.875Z" fill="#005960"/>
<mask id="mask0" mask-type="alpha" maskUnits="userSpaceOnUse" x="1" y="1" width="74" height="73">
<path fill-rule="evenodd" clip-rule="evenodd" d="M38.0515 1.875C18.087 1.875 1.90259 17.8249 1.90259 37.5C1.90259 57.1752 18.087 73.125 38.0515 73.125C58.016 73.125 74.2004 57.1752 74.2004 37.5C74.2004 17.8249 58.016 1.875 38.0515 1.875Z" fill="white"/>
</mask>
<g mask="url(#mask0)">
<path d="M34.236 85.3777L86.6772 49.1455L-2.95057 -23.7592L34.236 85.3777Z" fill="url(#paint0_linear)" fill-opacity="0.6"/>
<g opacity="0.9">
<path fill-rule="evenodd" clip-rule="evenodd" d="M4.80233 53.7893C4.80233 53.7893 8.37176 55.8607 12.3469 54.4378C16.322 53.015 19.6091 50.1864 19.6091 50.1864C19.6091 50.1864 12.9794 52.1966 10.8134 51.7015C8.64737 51.2063 7.04394 50.1266 7.04394 50.1266C7.04394 50.1266 6.18629 50.6897 5.53806 51.5717C4.88983 52.4538 4.80233 53.7893 4.80233 53.7893Z" fill="#0B818A"/>
<rect x="2.31299" y="61.6357" width="40.0378" height="12.0291" transform="rotate(-33.2853 2.31299 61.6357)" fill="url(#paint1_linear)"/>
<rect x="14.4993" y="53.6355" width="10.8823" height="12.0291" transform="rotate(-33.2853 14.4993 53.6355)" fill="url(#paint2_linear)"/>
<rect x="14.4993" y="53.6355" width="10.8823" height="12.0291" transform="rotate(-33.2853 14.4993 53.6355)" fill="url(#paint3_linear)"/>
<path fill-rule="evenodd" clip-rule="evenodd" d="M29.3183 38.6118C29.3183 38.6118 29.9108 41.4108 26.4917 45.0401C23.0725 48.6695 19.6094 50.1865 19.6094 50.1865C19.6094 50.1865 23.7768 44.6923 24.271 42.1311C24.7653 39.5699 24.2006 38.2364 24.2006 38.2364C24.2006 38.2364 25.2142 37.571 26.4721 37.2777C27.73 36.9844 29.3183 38.6118 29.3183 38.6118Z" fill="#0B818A"/>
<path fill-rule="evenodd" clip-rule="evenodd" d="M4.88797 53.8506C4.88797 53.8506 1.76368 51.505 1.43649 48.5933C1.10929 45.6816 3.42427 41.8168 6.95818 40.8647C10.4921 39.9125 14.2596 42.0312 15.5595 44.0112C16.8594 45.9912 19.6834 50.2927 19.6834 50.2927C19.6834 50.2927 12.5926 47.0337 9.18535 48.7821C5.77806 50.5305 4.88797 53.8506 4.88797 53.8506Z" fill="url(#paint4_linear)"/>
<path fill-rule="evenodd" clip-rule="evenodd" d="M29.3184 38.6117C29.3184 38.6117 27.7581 33.8746 24.4778 32.5605C21.1976 31.2464 18.1244 32.8561 16.9742 34.0192C15.8239 35.1823 13.4505 39.3922 15.1573 42.7591C16.8641 46.1261 19.6951 50.2848 19.6951 50.2848C19.6951 50.2848 20.0329 43.1278 22.8966 40.4319C25.7602 37.7359 29.3184 38.6117 29.3184 38.6117Z" fill="url(#paint5_linear)"/>
</g>
<rect x="20" y="55" width="37.738" height="19" fill="url(#paint6_linear)"/>
<rect x="20" y="55" width="38" height="5" fill="#15ACAC"/>
<rect x="33" y="55" width="12" height="19" fill="url(#paint7_linear)"/>
<rect x="33" y="55" width="12" height="19" fill="url(#paint8_linear)"/>
</g>
<ellipse cx="62.1765" cy="12" rx="12.1765" ry="12" fill="#FF872F"/>
<path d="M63.0991 18.928C64.425 18.928 65.5457 18.5484 66.4612 17.7893C67.3767 17.0302 67.8344 15.9786 67.8344 14.6346C67.8344 13.7138 67.5534 12.9266 66.9915 12.2733C66.4296 11.62 65.7004 11.1626 64.8038 10.9013L67.2851 7.72797V5.59998H58.951V8.00797H64.1409L61.527 11.368L62.5309 12.8613H63.0991C63.7684 12.8613 64.2892 13.0231 64.6618 13.3466C65.0343 13.6702 65.2205 14.0995 65.2205 14.6346C65.2205 15.1822 65.0343 15.6146 64.6618 15.932C64.2892 16.2493 63.7684 16.408 63.0991 16.408C61.8869 16.408 61.1166 15.904 60.7883 14.896L58.5532 16.1653C58.9194 17.0737 59.5098 17.7613 60.3242 18.228C61.1387 18.6946 62.0637 18.928 63.0991 18.928Z" fill="white"/>
<g filter="url(#filter0_d)">
<path d="M52.2007 33.2869C51.5249 41.244 44.4417 47.1052 36.3801 46.3783C28.3185 45.6513 22.3311 38.6115 23.007 30.6544C23.6828 22.6972 30.766 16.836 38.8276 17.563C46.8892 18.2899 52.8766 25.3298 52.2007 33.2869Z" fill="#FFE06D"/>
<path fill-rule="evenodd" clip-rule="evenodd" d="M38.7854 18.0612C30.9924 17.3585 24.157 23.0236 23.5051 30.6993C22.8531 38.375 28.6296 45.1774 36.4225 45.8801C44.2155 46.5828 51.0509 40.9177 51.7028 33.242C52.3548 25.5663 46.5783 18.7639 38.7854 18.0612ZM22.5091 30.6095C23.2088 22.3709 30.5397 16.3136 38.87 17.0648C47.2003 17.816 53.3986 25.0932 52.6988 33.3318C51.999 41.5704 44.6682 47.6277 36.3379 46.8765C28.0076 46.1253 21.8093 38.848 22.5091 30.6095Z" fill="#EFC52D"/>
</g>
<path d="M39.9377 23.0594C40.4795 23.0709 40.9127 23.5128 40.9054 24.0463L40.8803 25.9582C41.4967 26.3929 41.9929 26.958 42.3689 27.6535L42.5043 27.9204L40.44 29.042L40.3465 28.8505C39.8611 27.9229 39.1108 27.4483 38.0955 27.4268C37.5893 27.416 37.1905 27.5206 36.8989 27.7406C36.6074 27.9605 36.4592 28.2502 36.4542 28.6095C36.4489 28.9921 36.6065 29.3056 36.9269 29.5501C37.1891 29.7502 37.6501 29.9681 38.3098 30.2037L38.7791 30.3635L39.5275 30.6149L39.7562 30.6963L40.0556 30.8125L40.4223 30.9637C40.7559 31.1041 41.0132 31.2342 41.1941 31.354C41.3749 31.4738 41.5817 31.6347 41.8144 31.8368C42.0471 32.0389 42.2239 32.2456 42.3446 32.4568C42.4653 32.6681 42.5678 32.9225 42.652 33.22C42.7362 33.5175 42.7759 33.8401 42.7711 34.1879C42.7556 35.3124 42.3283 36.1962 41.4893 36.8393C41.2536 37.02 40.9985 37.1742 40.724 37.3019L40.7054 38.537C40.698 39.0705 40.2528 39.4937 39.7111 39.4822C39.1693 39.4707 38.7361 39.0289 38.7434 38.4953L38.7551 37.7551C38.5863 37.7633 38.4131 37.7655 38.2355 37.7617C38.0777 37.7584 37.9232 37.7506 37.7719 37.7385L37.7625 38.4745C37.7551 39.008 37.3099 39.4312 36.7682 39.4197C36.2264 39.4082 35.7932 38.9664 35.8005 38.4329L35.8169 37.2563C35.5843 37.15 35.3642 37.0271 35.1566 36.8876C34.4035 36.3814 33.857 35.7191 33.517 34.9006L33.4212 34.6504L35.5213 33.4948L35.5987 33.6872C36.087 34.8112 37.0002 35.3873 38.3385 35.4157C39.0212 35.4302 39.5232 35.3191 39.8444 35.0824C40.1656 34.8457 40.3288 34.5419 40.3339 34.1709C40.3398 33.742 40.1502 33.4046 39.765 33.1587C39.4848 32.9799 39.043 32.7869 38.4394 32.5797L37.9563 32.4217C37.8708 32.3949 37.7827 32.3679 37.6921 32.3407C37.1411 32.1667 36.6754 31.9944 36.295 31.824C35.9147 31.6536 35.5351 31.4281 35.1563 31.1476C34.7775 30.867 34.4909 30.516 34.2965 30.0944C34.1022 29.6728 34.0088 29.1838 34.0165 28.6274C34.0317 27.5261 34.4411 26.6564 35.2448 26.0183C35.4762 25.8345 35.7207 25.6782 35.9782 25.5493L36.0005 23.9422C36.0079 23.4087 36.453 22.9855 36.9948 22.997C37.5366 23.0085 37.9698 23.4503 37.9625 23.9838L37.9471 25.0967L38.1276 25.0967C38.4041 25.1026 38.6711 25.1266 38.9287 25.1688L38.9434 24.0047C38.9508 23.4711 39.396 23.0479 39.9377 23.0594Z" fill="#005960"/>
<g filter="url(#filter1_f)">
<path d="M40.8264 37.0993L43.2845 41.3926L43.2198 42.1909L40.1019 46.0282L44.388 43.5664L45.1914 43.6378L49.0251 46.7523L46.5722 42.4651L46.6317 41.6607L49.7549 37.8295L45.4635 40.2852L44.6653 40.2199L40.8264 37.0993Z" fill="white"/>
</g>
<defs>
<filter id="filter0_d" x="18.4553" y="16.0018" width="38.2975" height="37.9376" filterUnits="userSpaceOnUse" color-interpolation-filters="sRGB">
<feFlood flood-opacity="0" result="BackgroundImageFix"/>
<feColorMatrix in="SourceAlpha" type="matrix" values="0 0 0 0 0 0 0 0 0 0 0 0 0 0 0 0 0 0 127 0"/>
<feOffset dy="3"/>
<feGaussianBlur stdDeviation="2"/>
<feColorMatrix type="matrix" values="0 0 0 0 0 0 0 0 0 0 0 0 0 0 0 0 0 0 0.4 0"/>
<feBlend mode="normal" in2="BackgroundImageFix" result="effect1_dropShadow"/>
<feBlend mode="normal" in="SourceGraphic" in2="effect1_dropShadow" result="shape"/>
</filter>
<filter id="filter1_f" x="39.1018" y="36.0992" width="11.653" height="11.653" filterUnits="userSpaceOnUse" color-interpolation-filters="sRGB">
<feFlood flood-opacity="0" result="BackgroundImageFix"/>
<feBlend mode="normal" in="SourceGraphic" in2="BackgroundImageFix" result="shape"/>
<feGaussianBlur stdDeviation="0.5" result="effect1_foregroundBlur"/>
</filter>
<linearGradient id="paint0_linear" x1="60.4566" y1="67.2616" x2="23.6101" y2="-24.3219" gradientUnits="userSpaceOnUse">
<stop stop-color="white" stop-opacity="0.46"/>
<stop offset="1" stop-color="#FFA9F1" stop-opacity="0.75"/>
</linearGradient>
<linearGradient id="paint1_linear" x1="2.31299" y1="70.0561" x2="48.0076" y2="69.876" gradientUnits="userSpaceOnUse">
<stop stop-color="#A5E9E9"/>
<stop offset="0.540249" stop-color="#62E8D0"/>
<stop offset="1" stop-color="#00A7A7"/>
</linearGradient>
<linearGradient id="paint2_linear" x1="19.9404" y1="50.6282" x2="13.5746" y2="62.1462" gradientUnits="userSpaceOnUse">
<stop stop-color="#FFED7D"/>
<stop offset="1" stop-color="#FFA600"/>
</linearGradient>
<linearGradient id="paint3_linear" x1="19.9404" y1="53.6355" x2="19.9404" y2="65.6646" gradientUnits="userSpaceOnUse">
<stop stop-color="#FFDD61"/>
<stop offset="1" stop-color="white" stop-opacity="0"/>
</linearGradient>
<linearGradient id="paint4_linear" x1="17.399" y1="42.6546" x2="3.99869" y2="54.2644" gradientUnits="userSpaceOnUse">
<stop stop-color="#B48700"/>
<stop offset="0.331903" stop-color="#FFED7D"/>
<stop offset="1" stop-color="#BC8520"/>
</linearGradient>
<linearGradient id="paint5_linear" x1="29.8178" y1="34.5013" x2="16.5081" y2="46.0089" gradientUnits="userSpaceOnUse">
<stop stop-color="#B48700"/>
<stop offset="0.331903" stop-color="#FFED7D"/>
<stop offset="1" stop-color="#BC8520"/>
</linearGradient>
<linearGradient id="paint6_linear" x1="20" y1="68.3" x2="63.0703" y2="68.1987" gradientUnits="userSpaceOnUse">
<stop stop-color="#A5E9E9"/>
<stop offset="0.540249" stop-color="#62E8D0"/>
<stop offset="1" stop-color="#00A7A7"/>
</linearGradient>
<linearGradient id="paint7_linear" x1="39" y1="50.25" x2="27.4418" y2="64.8498" gradientUnits="userSpaceOnUse">
<stop stop-color="#FFED7D"/>
<stop offset="1" stop-color="#FFA600"/>
</linearGradient>
<linearGradient id="paint8_linear" x1="39" y1="55" x2="39" y2="74" gradientUnits="userSpaceOnUse">
<stop stop-color="#FFDD61"/>
<stop offset="1" stop-color="white" stop-opacity="0"/>
</linearGradient>
</defs>
</svg>
