<svg width="75" height="75" viewBox="0 0 75 75" fill="none" xmlns="http://www.w3.org/2000/svg">
<path fill-rule="evenodd" clip-rule="evenodd" d="M37.625 2C17.9499 2 2 17.9499 2 37.625C2 57.3002 17.9499 73.25 37.625 73.25C57.3002 73.25 73.25 57.3002 73.25 37.625C73.25 17.9499 57.3002 2 37.625 2Z" fill="#005960"/>
<ellipse cx="62" cy="13" rx="12" ry="12" fill="#FF872F"/>
<path d="M66.24 19.6666V17.184H61.3307L63.888 14.6266C65.3191 13.1955 66.0347 11.8017 66.0347 10.4453C66.0347 9.1884 65.6116 8.18973 64.7653 7.44929C63.9191 6.70885 62.9049 6.33862 61.7227 6.33862C60.8018 6.33862 59.9555 6.57507 59.184 7.04796C58.4124 7.52085 57.8213 8.20529 57.4106 9.10129L59.576 10.3706C60.0489 9.35018 60.7769 8.83996 61.76 8.83996C62.2578 8.83996 62.6653 8.99551 62.9827 9.30662C63.3 9.61773 63.4587 10.0284 63.4587 10.5386C63.4587 11.2355 62.9609 12.1066 61.9653 13.152L57.504 17.744V19.6666H66.24Z" fill="white"/>
<path fill-rule="evenodd" clip-rule="evenodd" d="M41.3624 17.9231L51.9446 14.0357C53.2583 13.3593 55.1106 13.8007 56.0818 15.0217C57.053 16.2427 56.7753 17.7809 55.4615 18.4574L51.8148 20.5008C50.5011 21.1773 42.3475 25.2977 41.3763 24.0767C40.4051 22.8557 40.0487 18.5995 41.3624 17.9231Z" fill="#FEE0B7"/>
<g filter="url(#filter0_d)">
<path fill-rule="evenodd" clip-rule="evenodd" d="M13.1454 27.145C12.1791 25.2607 16.2537 24.6462 18.7076 26.2412C21.4887 28.0488 24.2697 35.2794 24.2697 35.2794L43.7372 27.145L47.4453 32.5679L35.394 37.0871C35.394 37.0871 44.2638 48.1697 43.7372 51.5483C42.7728 57.7367 31.8307 59.293 29.8319 59.6827C25.1968 60.5866 21.4887 59.6827 18.7076 56.9713C15.9265 54.2598 17.7806 48.8368 17.7806 41.6062C17.7806 34.3756 14.9995 30.7603 13.1454 27.145Z" fill="#FEE0B7"/>
<mask id="mask0" mask-type="alpha" maskUnits="userSpaceOnUse" x="13" y="25" width="35" height="36">
<path fill-rule="evenodd" clip-rule="evenodd" d="M13.1454 27.145C12.1791 25.2607 16.2537 24.6462 18.7076 26.2412C21.4887 28.0488 24.2697 35.2794 24.2697 35.2794L43.7372 27.145L47.4453 32.5679L35.394 37.0871C35.394 37.0871 44.2638 48.1697 43.7372 51.5483C42.7728 57.7367 31.8307 59.293 29.8319 59.6827C25.1968 60.5866 21.4887 59.6827 18.7076 56.9713C15.9265 54.2598 17.7806 48.8368 17.7806 41.6062C17.7806 34.3756 14.9995 30.7603 13.1454 27.145Z" fill="white"/>
</mask>
<g mask="url(#mask0)">
<path fill-rule="evenodd" clip-rule="evenodd" d="M10.3643 59.6829C10.6678 59.6829 8.51027 49.7408 13.1454 48.8369C14.7717 48.5198 19.6346 47.0293 22.4156 48.8369C25.1967 50.6446 22.9152 42.3313 24.2697 40.7025C25.7304 38.946 33.5399 35.2795 33.5399 35.2795C33.5399 35.2795 40.9561 59.6829 33.5399 61.4905C26.1237 63.2982 9.4373 59.6829 10.3643 59.6829Z" fill="#E6D29D"/>
</g>
</g>
<path d="M25.3874 16.0306L43.7919 13.4441C45.537 13.1988 47.148 14.397 47.3902 16.1203L52.6526 53.5636C52.8947 55.2869 51.6764 56.8827 49.9313 57.128L31.5267 59.7146C29.7816 59.9598 28.1706 58.7617 27.9284 57.0384L22.6661 19.595C22.4239 17.8717 23.6422 16.2759 25.3874 16.0306Z" fill="#62E8D0"/>
<path fill-rule="evenodd" clip-rule="evenodd" d="M25.1091 14.0502L43.5136 11.4636C46.329 11.0679 48.9716 13.0014 49.3709 15.842L54.6332 53.2853C55.0324 56.1259 53.0251 58.7129 50.2097 59.1086L31.8052 61.6952C28.9898 62.0908 26.3472 60.1573 25.948 57.3168L20.6856 19.8734C20.2864 17.0329 22.2937 14.4458 25.1091 14.0502ZM43.792 13.4441L25.3874 16.0307C23.6423 16.276 22.424 17.8718 22.6662 19.5951L27.9285 57.0384C28.1707 58.7617 29.7817 59.9599 31.5268 59.7146L49.9314 57.128C51.6765 56.8828 52.8948 55.287 52.6526 53.5637L47.3903 16.1203C47.1481 14.397 45.5371 13.1988 43.792 13.4441Z" fill="white"/>
<ellipse cx="37.3692" cy="36.6518" rx="14.369" ry="14.5276" fill="#005960"/>
<mask id="mask1" mask-type="alpha" maskUnits="userSpaceOnUse" x="23" y="22" width="29" height="30">
<ellipse cx="37.3692" cy="36.6518" rx="14.369" ry="14.5276" fill="white"/>
</mask>
<g mask="url(#mask1)">
<path fill-rule="evenodd" clip-rule="evenodd" d="M29.0503 41.9292C22.2351 49.1503 22.2035 60.3689 29.0739 67.2394C35.9444 74.1098 47.163 74.0781 54.3841 67.263L29.0503 41.9292Z" fill="#008181"/>
<path fill-rule="evenodd" clip-rule="evenodd" d="M37.2473 48.2365C39.5711 52.011 44.4287 53.3068 48.2113 51.1195C51.992 48.9332 53.2926 44.0802 51.1847 40.1842L37.2473 48.2365Z" fill="#FF9445"/>
<mask id="mask2" mask-type="alpha" maskUnits="userSpaceOnUse" x="28" y="29" width="21" height="28">
<path fill-rule="evenodd" clip-rule="evenodd" d="M28.5269 29.4678L48.8961 29.4678L48.8961 56.4477L28.5269 56.4477L28.5269 29.4678Z" fill="white"/>
</mask>
<g mask="url(#mask2)">
<path fill-rule="evenodd" clip-rule="evenodd" d="M46.2545 55.0109L46.2545 38.2444C46.2545 37.9204 46.2369 37.6005 46.2028 37.2857C46.062 35.9853 46.1762 34.6742 46.5014 33.4084C46.5617 33.1728 46.6174 32.9283 46.6697 32.6749C46.8047 32.023 46.1204 31.5173 45.5526 31.8516C45.2981 32.0017 45.0333 32.147 44.7687 32.2765C44.4321 32.4411 44.0327 32.3686 43.7709 32.098C42.201 30.4761 40.0178 29.4678 37.606 29.4678C35.1941 29.4678 33.0115 30.4759 31.4414 32.0973C31.1797 32.3679 30.78 32.4405 30.4434 32.2756C30.1794 32.1465 29.9154 32.0014 29.6612 31.8516C29.0936 31.5173 28.4093 32.0229 28.5441 32.6747C28.5963 32.9264 28.6514 33.1692 28.7112 33.4032C29.0359 34.669 29.1509 35.98 29.0093 37.28C28.9748 37.5967 28.9571 37.9184 28.9571 38.2444L28.9571 42.5893C28.9571 48.1121 32.2146 52.8746 36.8806 55.0109L30.6771 55.0109L48.8961 55.0109L46.2545 55.0109Z" fill="#00BCBC"/>
</g>
<path opacity="0.901284" fill-rule="evenodd" clip-rule="evenodd" d="M41.1644 33.7782C39.5275 33.7782 38.1336 34.8382 37.6061 36.3218C37.0785 34.8382 35.6848 33.7782 34.0479 33.7782C31.958 33.7782 30.2637 35.5062 30.2637 37.6375C30.2637 42.0305 30.6793 45.5919 37.6061 45.5919C44.1482 45.5919 44.9485 42.0305 44.9485 37.6375C44.9485 35.5062 43.2542 33.7782 41.1644 33.7782Z" fill="white"/>
</g>
<path fill-rule="evenodd" clip-rule="evenodd" d="M38.4245 42.2215L39.3359 40.4812C39.4377 40.287 39.4077 40.0428 39.2629 39.8851L37.9214 38.4213C37.7363 38.2194 37.4237 38.2194 37.2389 38.4213L35.8972 39.8851C35.7524 40.0428 35.7223 40.287 35.8241 40.4812L36.7356 42.2215C37.0975 42.9128 38.0625 42.9128 38.4245 42.2215Z" fill="#FFA32C"/>
<path fill-rule="evenodd" clip-rule="evenodd" d="M42.4505 38.1695L41.663 38.1695C41.663 37.8952 41.5978 37.2573 40.9935 37.2573C40.3892 37.2573 40.3239 37.8952 40.3239 38.1695L39.5364 38.1695C39.5364 37.1494 40.122 36.4642 40.9935 36.4642C41.865 36.4642 42.4505 37.1494 42.4505 38.1695Z" fill="#007F7E"/>
<path fill-rule="evenodd" clip-rule="evenodd" d="M35.2 38.1695L34.4125 38.1695C34.4125 37.8952 34.3473 37.2573 33.743 37.2573C33.1388 37.2573 33.0735 37.8952 33.0735 38.1695L32.2859 38.1695C32.2859 37.1494 32.8715 36.4642 33.743 36.4642C34.6146 36.4642 35.2 37.1494 35.2 38.1695Z" fill="#007F7E"/>
<g filter="url(#filter1_f)">
<path d="M36.55 18.8644L38.8672 22.9117L38.8061 23.6642L35.8669 27.2815L39.9074 24.9608L40.6648 25.0282L44.2787 27.9641L41.9664 23.9226L42.0225 23.1643L44.9667 19.5527L40.9213 21.8677L40.1688 21.8061L36.55 18.8644Z" fill="white"/>
</g>
<path fill-rule="evenodd" clip-rule="evenodd" d="M47.4341 24.2608L50.0026 21.1276C50.8994 19.9056 52.6269 19.6347 53.8611 20.5225C55.0954 21.4104 55.369 23.1207 54.4722 24.3427L52.0381 27.9073C51.1413 29.1293 49.5892 30.6185 48.3549 29.7306C47.1206 28.8428 46.5374 25.4827 47.4341 24.2608Z" fill="#FEE0B7"/>
<path fill-rule="evenodd" clip-rule="evenodd" d="M49.4884 30.8347L52.3779 28.0148C53.3868 26.915 55.3302 26.6712 56.7188 27.4703C58.1073 28.2693 58.4151 29.8086 57.4063 30.9084L54.6678 34.1166C53.659 35.2164 51.9128 36.5566 50.5243 35.7576C49.1357 34.9585 48.4795 31.9345 49.4884 30.8347Z" fill="#FEE0B7"/>
<path fill-rule="evenodd" clip-rule="evenodd" d="M49.4646 38.7594L50.6571 37.396C51.6861 36.3694 54.2769 35.5411 55.6932 36.287C57.1094 37.0328 57.4234 38.4696 56.3944 39.4962L53.7809 41.8514C52.752 42.878 52.0734 43.3922 50.6571 42.6464C49.2408 41.9006 48.4357 39.786 49.4646 38.7594Z" fill="#FEE0B7"/>
<path d="M26.322 15.9211L42.2846 13.6711L42.3804 14.3511C42.5346 15.4449 41.7729 16.4565 40.6791 16.6107L28.6774 18.3023C27.5837 18.4565 26.572 17.6948 26.4179 16.6011L26.322 15.9211Z" fill="white"/>
<mask id="mask3" mask-type="alpha" maskUnits="userSpaceOnUse" x="1" y="1" width="73" height="73">
<path fill-rule="evenodd" clip-rule="evenodd" d="M37.5 1.875C17.8249 1.875 1.875 17.8249 1.875 37.5C1.875 57.1751 17.8249 73.125 37.5 73.125C57.1752 73.125 73.125 57.1751 73.125 37.5C73.125 17.8249 57.1752 1.875 37.5 1.875Z" fill="#005960"/>
</mask>
<g mask="url(#mask3)">
<g filter="url(#filter2_d)">
<path fill-rule="evenodd" clip-rule="evenodd" d="M49.0169 60.1102L40.3848 50.5233C40.3848 50.5233 36.4348 46.6402 38.7396 44.5648C41.0445 42.4895 44.4935 46.8238 44.4935 46.8238L51.1464 54.4125C51.1464 54.4125 49.0711 52.1076 51.3759 50.0323C53.6808 47.957 55.7561 50.2618 55.7561 50.2618C55.7561 50.2618 54.3726 48.7253 56.6775 46.6499C58.9823 44.5746 61.7494 47.6478 61.7494 47.6478C61.7494 47.6478 60.6958 45.8747 62.2324 44.4911C63.7689 43.1076 66.753 45.3805 66.753 45.3805C66.753 45.3805 72.7684 52.0613 74.152 53.5979C75.5355 55.1345 76.8939 63.5286 72.7852 67.2281C68.6765 70.9275 60.7898 73.3501 54.5994 68.4543C48.409 63.5585 40.0361 68.0233 39.0324 66.4777C38.0287 64.9321 40.8317 61.2273 42.9364 60.6462C44.9226 60.0978 49.0169 60.1102 49.0169 60.1102Z" fill="url(#paint0_linear)"/>
</g>
</g>
<defs>
<filter id="filter0_d" x="9" y="23.3274" width="42.4453" height="42.6943" filterUnits="userSpaceOnUse" color-interpolation-filters="sRGB">
<feFlood flood-opacity="0" result="BackgroundImageFix"/>
<feColorMatrix in="SourceAlpha" type="matrix" values="0 0 0 0 0 0 0 0 0 0 0 0 0 0 0 0 0 0 127 0"/>
<feOffset dy="2"/>
<feGaussianBlur stdDeviation="2"/>
<feColorMatrix type="matrix" values="0 0 0 0 0 0 0 0 0 0 0 0 0 0 0 0 0 0 0.4 0"/>
<feBlend mode="normal" in2="BackgroundImageFix" result="effect1_dropShadow"/>
<feBlend mode="normal" in="SourceGraphic" in2="effect1_dropShadow" result="shape"/>
</filter>
<filter id="filter1_f" x="34.8669" y="17.8644" width="11.0998" height="11.0998" filterUnits="userSpaceOnUse" color-interpolation-filters="sRGB">
<feFlood flood-opacity="0" result="BackgroundImageFix"/>
<feBlend mode="normal" in="SourceGraphic" in2="BackgroundImageFix" result="shape"/>
<feGaussianBlur stdDeviation="0.5" result="effect1_foregroundBlur"/>
</filter>
<filter id="filter2_d" x="34.0176" y="44.0022" width="45.5106" height="35.2008" filterUnits="userSpaceOnUse" color-interpolation-filters="sRGB">
<feFlood flood-opacity="0" result="BackgroundImageFix"/>
<feColorMatrix in="SourceAlpha" type="matrix" values="0 0 0 0 0 0 0 0 0 0 0 0 0 0 0 0 0 0 127 0"/>
<feOffset dy="4"/>
<feGaussianBlur stdDeviation="2"/>
<feColorMatrix type="matrix" values="0 0 0 0 0 0 0 0 0 0 0 0 0 0 0 0 0 0 0.25 0"/>
<feBlend mode="normal" in2="BackgroundImageFix" result="effect1_dropShadow"/>
<feBlend mode="normal" in="SourceGraphic" in2="effect1_dropShadow" result="shape"/>
</filter>
<linearGradient id="paint0_linear" x1="54.1178" y1="57.1179" x2="65.3112" y2="65.9793" gradientUnits="userSpaceOnUse">
<stop stop-color="#FEE0B7"/>
<stop offset="1" stop-color="#E6BA7D"/>
</linearGradient>
</defs>
</svg>
