<svg width="414" height="320" viewBox="0 0 414 320" fill="none" xmlns="http://www.w3.org/2000/svg">
<path d="M0 0H414V296.471C414 296.471 337 320 207.5 320C78 320 0 296.471 0 296.471V0Z" fill="url(#paint0_linear)"/>
<path d="M53.904 88.252C52.3733 88.252 50.936 88.0467 49.592 87.636C48.2667 87.2253 47.1373 86.6373 46.204 85.872L47.436 83.24C48.4067 83.968 49.4147 84.5093 50.46 84.864C51.524 85.2 52.6813 85.368 53.932 85.368C55.3133 85.368 56.3773 85.1253 57.124 84.64C57.8893 84.1547 58.272 83.4733 58.272 82.596C58.272 81.8493 57.9173 81.28 57.208 80.888C56.5173 80.4773 55.3693 80.0947 53.764 79.74C51.2627 79.1987 49.4427 78.4987 48.304 77.64C47.1653 76.7813 46.596 75.5307 46.596 73.888C46.596 72.712 46.9133 71.6667 47.548 70.752C48.1827 69.8373 49.0787 69.1187 50.236 68.596C51.412 68.0733 52.7653 67.812 54.296 67.812C55.696 67.812 57.0213 68.0267 58.272 68.456C59.5413 68.8667 60.5773 69.4453 61.38 70.192L60.176 72.824C58.4027 71.4053 56.4427 70.696 54.296 70.696C53.008 70.696 51.9907 70.9667 51.244 71.508C50.4973 72.0307 50.124 72.7493 50.124 73.664C50.124 74.448 50.4507 75.0453 51.104 75.456C51.776 75.8667 52.9147 76.2493 54.52 76.604C56.1813 76.996 57.5347 77.4253 58.58 77.892C59.6253 78.34 60.428 78.928 60.988 79.656C61.548 80.3653 61.828 81.2613 61.828 82.344C61.828 83.5387 61.5107 84.584 60.876 85.48C60.2413 86.3573 59.3267 87.0387 58.132 87.524C56.9373 88.0093 55.528 88.252 53.904 88.252ZM73.0155 73.496C76.3942 73.496 78.0835 75.4373 78.0835 79.32V88H74.5835V79.488C74.5835 78.368 74.3689 77.556 73.9395 77.052C73.5102 76.5293 72.8475 76.268 71.9515 76.268C70.8875 76.268 70.0289 76.6133 69.3755 77.304C68.7222 77.976 68.3955 78.872 68.3955 79.992V88H64.9235V67.392H68.3955V75.904C68.8809 75.1387 69.5249 74.5507 70.3275 74.14C71.1302 73.7107 72.0262 73.496 73.0155 73.496ZM95.3186 73.86V88H91.8746V85.732C91.4453 86.516 90.8293 87.132 90.0266 87.58C89.224 88.0093 88.3093 88.224 87.2826 88.224C86.0506 88.224 84.9586 87.9253 84.0066 87.328C83.0546 86.7307 82.3173 85.8813 81.7946 84.78C81.272 83.6787 81.0106 82.4 81.0106 80.944C81.0106 79.488 81.272 78.2 81.7946 77.08C82.336 75.9413 83.0826 75.064 84.0346 74.448C84.9866 73.8133 86.0693 73.496 87.2826 73.496C88.3093 73.496 89.224 73.72 90.0266 74.168C90.8293 74.5973 91.4453 75.204 91.8746 75.988V73.86H95.3186ZM88.2346 85.48C89.392 85.48 90.288 85.0787 90.9226 84.276C91.5573 83.4733 91.8746 82.344 91.8746 80.888C91.8746 79.3947 91.5573 78.2467 90.9226 77.444C90.288 76.6413 89.3826 76.24 88.2066 76.24C87.0493 76.24 86.144 76.66 85.4906 77.5C84.856 78.3213 84.5386 79.4693 84.5386 80.944C84.5386 82.4 84.856 83.52 85.4906 84.304C86.144 85.088 87.0586 85.48 88.2346 85.48ZM106.747 73.524C107.288 73.524 107.755 73.5987 108.147 73.748L108.119 76.94C107.521 76.6973 106.905 76.576 106.271 76.576C105.076 76.576 104.161 76.9213 103.527 77.612C102.911 78.3027 102.603 79.2173 102.603 80.356V88H99.1306V77.864C99.1306 76.3707 99.0559 75.036 98.9066 73.86H102.183L102.463 76.352C102.817 75.4373 103.377 74.7373 104.143 74.252C104.908 73.7667 105.776 73.524 106.747 73.524ZM122.198 81.112H112.454C112.529 82.624 112.902 83.744 113.574 84.472C114.265 85.1813 115.282 85.536 116.626 85.536C118.175 85.536 119.613 85.032 120.938 84.024L121.946 86.432C121.274 86.9733 120.443 87.412 119.454 87.748C118.483 88.0653 117.494 88.224 116.486 88.224C114.171 88.224 112.351 87.5707 111.026 86.264C109.701 84.9573 109.038 83.1653 109.038 80.888C109.038 79.4507 109.327 78.172 109.906 77.052C110.485 75.932 111.297 75.064 112.342 74.448C113.387 73.8133 114.573 73.496 115.898 73.496C117.839 73.496 119.37 74.1307 120.49 75.4C121.629 76.6507 122.198 78.3773 122.198 80.58V81.112ZM115.982 76.016C115.049 76.016 114.283 76.296 113.686 76.856C113.107 77.3973 112.734 78.1907 112.566 79.236H119.146C119.034 78.172 118.707 77.3693 118.166 76.828C117.643 76.2867 116.915 76.016 115.982 76.016ZM152.529 68.064V88H149.337V75.624L144.045 88H141.665L136.345 75.764V88H133.153V68.064H136.009L142.869 83.66L149.673 68.064H152.529ZM163.046 88.224C161.609 88.224 160.34 87.9253 159.238 87.328C158.156 86.7307 157.316 85.8813 156.718 84.78C156.14 83.66 155.85 82.3533 155.85 80.86C155.85 79.3667 156.14 78.0693 156.718 76.968C157.316 75.848 158.156 74.9893 159.238 74.392C160.34 73.7947 161.609 73.496 163.046 73.496C164.465 73.496 165.716 73.7947 166.798 74.392C167.881 74.9893 168.712 75.848 169.29 76.968C169.888 78.0693 170.186 79.3667 170.186 80.86C170.186 82.3533 169.888 83.66 169.29 84.78C168.712 85.8813 167.881 86.7307 166.798 87.328C165.716 87.9253 164.465 88.224 163.046 88.224ZM163.018 85.48C164.213 85.48 165.118 85.0973 165.734 84.332C166.369 83.548 166.686 82.3907 166.686 80.86C166.686 79.348 166.369 78.2 165.734 77.416C165.1 76.6133 164.204 76.212 163.046 76.212C161.87 76.212 160.965 76.6133 160.33 77.416C159.696 78.2 159.378 79.348 159.378 80.86C159.378 82.3907 159.686 83.548 160.302 84.332C160.937 85.0973 161.842 85.48 163.018 85.48ZM181.297 73.496C184.675 73.496 186.365 75.4373 186.365 79.32V88H182.865V79.488C182.865 78.368 182.65 77.556 182.221 77.052C181.791 76.5293 181.129 76.268 180.233 76.268C179.169 76.268 178.31 76.6133 177.657 77.304C177.003 77.976 176.677 78.872 176.677 79.992V88H173.205V77.864C173.205 76.3707 173.13 75.036 172.981 73.86H176.257L176.509 76.184C176.994 75.3253 177.647 74.6627 178.469 74.196C179.309 73.7293 180.251 73.496 181.297 73.496ZM202.452 81.112H192.708C192.783 82.624 193.156 83.744 193.828 84.472C194.519 85.1813 195.536 85.536 196.88 85.536C198.429 85.536 199.867 85.032 201.192 84.024L202.2 86.432C201.528 86.9733 200.697 87.412 199.708 87.748C198.737 88.0653 197.748 88.224 196.74 88.224C194.425 88.224 192.605 87.5707 191.28 86.264C189.955 84.9573 189.292 83.1653 189.292 80.888C189.292 79.4507 189.581 78.172 190.16 77.052C190.739 75.932 191.551 75.064 192.596 74.448C193.641 73.8133 194.827 73.496 196.152 73.496C198.093 73.496 199.624 74.1307 200.744 75.4C201.883 76.6507 202.452 78.3773 202.452 80.58V81.112ZM196.236 76.016C195.303 76.016 194.537 76.296 193.94 76.856C193.361 77.3973 192.988 78.1907 192.82 79.236H199.4C199.288 78.172 198.961 77.3693 198.42 76.828C197.897 76.2867 197.169 76.016 196.236 76.016ZM218.554 73.86L211.974 88.952C211.227 90.7067 210.275 91.9853 209.118 92.788C207.96 93.5907 206.532 94.1227 204.834 94.384L204.05 91.696C205.375 91.3973 206.364 91.0147 207.018 90.548C207.69 90.1 208.231 89.428 208.642 88.532L209.09 87.496L203.21 73.86H206.878L210.938 84.024L215.082 73.86H218.554ZM229.473 88.252C227.55 88.252 225.87 87.8413 224.433 87.02C223.014 86.18 221.913 84.9947 221.129 83.464C220.363 81.9147 219.981 80.0947 219.981 78.004C219.981 75.932 220.363 74.1307 221.129 72.6C221.894 71.0507 222.986 69.8653 224.405 69.044C225.842 68.2227 227.531 67.812 229.473 67.812C231.414 67.812 233.094 68.2227 234.513 69.044C235.95 69.8653 237.042 71.0507 237.789 72.6C238.554 74.1307 238.937 75.932 238.937 78.004C238.937 80.0947 238.554 81.9147 237.789 83.464C237.023 84.9947 235.931 86.18 234.513 87.02C233.094 87.8413 231.414 88.252 229.473 88.252ZM229.473 85.368C231.321 85.368 232.758 84.7333 233.785 83.464C234.811 82.1947 235.325 80.3747 235.325 78.004C235.325 75.652 234.811 73.8507 233.785 72.6C232.758 71.3307 231.321 70.696 229.473 70.696C227.625 70.696 226.187 71.3213 225.161 72.572C224.134 73.8227 223.621 75.6333 223.621 78.004C223.621 80.3747 224.134 82.1947 225.161 83.464C226.187 84.7333 227.625 85.368 229.473 85.368ZM264.896 73.86L259.352 88H256.3L252.8 78.732L249.384 88H246.304L240.76 73.86H244.344L247.984 83.828L251.652 73.86H254.172L257.84 83.912L261.48 73.86H264.896ZM267.103 67.392H270.575V88H267.103V67.392ZM304.6 73.86L299.056 88H296.004L292.504 78.732L289.088 88H286.008L280.464 73.86H284.048L287.688 83.828L291.356 73.86H293.876L297.544 83.912L301.184 73.86H304.6ZM306.806 73.86H310.278V88H306.806V73.86ZM310.474 67.448V70.892H306.582V67.448H310.474ZM318.559 76.492V82.82C318.559 84.4813 319.334 85.312 320.883 85.312C321.312 85.312 321.779 85.2373 322.283 85.088V87.86C321.667 88.084 320.92 88.196 320.043 88.196C318.438 88.196 317.206 87.748 316.347 86.852C315.488 85.956 315.059 84.668 315.059 82.988V76.492H312.343V73.86H315.059V70.416L318.559 69.24V73.86H322.311V76.492H318.559ZM332.809 73.496C336.187 73.496 337.877 75.4373 337.877 79.32V88H334.377V79.488C334.377 78.368 334.162 77.556 333.733 77.052C333.303 76.5293 332.641 76.268 331.745 76.268C330.681 76.268 329.822 76.6133 329.169 77.304C328.515 77.976 328.189 78.872 328.189 79.992V88H324.717V67.392H328.189V75.904C328.674 75.1387 329.318 74.5507 330.121 74.14C330.923 73.7107 331.819 73.496 332.809 73.496ZM60.288 108.86L53.708 123.952C52.9613 125.707 52.0093 126.985 50.852 127.788C49.6947 128.591 48.2667 129.123 46.568 129.384L45.784 126.696C47.1093 126.397 48.0987 126.015 48.752 125.548C49.424 125.1 49.9653 124.428 50.376 123.532L50.824 122.496L44.944 108.86H48.612L52.672 119.024L56.816 108.86H60.288ZM68.273 123.224C66.8357 123.224 65.5664 122.925 64.465 122.328C63.3824 121.731 62.5424 120.881 61.945 119.78C61.3664 118.66 61.077 117.353 61.077 115.86C61.077 114.367 61.3664 113.069 61.945 111.968C62.5424 110.848 63.3824 109.989 64.465 109.392C65.5664 108.795 66.8357 108.496 68.273 108.496C69.6917 108.496 70.9424 108.795 72.025 109.392C73.1077 109.989 73.9384 110.848 74.517 111.968C75.1144 113.069 75.413 114.367 75.413 115.86C75.413 117.353 75.1144 118.66 74.517 119.78C73.9384 120.881 73.1077 121.731 72.025 122.328C70.9424 122.925 69.6917 123.224 68.273 123.224ZM68.245 120.48C69.4397 120.48 70.345 120.097 70.961 119.332C71.5957 118.548 71.913 117.391 71.913 115.86C71.913 114.348 71.5957 113.2 70.961 112.416C70.3264 111.613 69.4304 111.212 68.273 111.212C67.097 111.212 66.1917 111.613 65.557 112.416C64.9224 113.2 64.605 114.348 64.605 115.86C64.605 117.391 64.913 118.548 65.529 119.332C66.1637 120.097 67.069 120.48 68.245 120.48ZM91.3113 108.86V123H87.8953V120.816C87.4473 121.6 86.85 122.197 86.1033 122.608C85.3567 123.019 84.498 123.224 83.5273 123.224C80.074 123.224 78.3473 121.283 78.3473 117.4V108.86H81.8193V117.428C81.8193 118.455 82.0247 119.211 82.4353 119.696C82.8647 120.181 83.518 120.424 84.3953 120.424C85.422 120.424 86.2433 120.088 86.8593 119.416C87.4753 118.744 87.7833 117.848 87.7833 116.728V108.86H91.3113ZM102.727 108.524C103.268 108.524 103.735 108.599 104.127 108.748L104.099 111.94C103.502 111.697 102.886 111.576 102.251 111.576C101.056 111.576 100.142 111.921 99.507 112.612C98.891 113.303 98.583 114.217 98.583 115.356V123H95.111V112.864C95.111 111.371 95.0364 110.036 94.887 108.86H98.163L98.443 111.352C98.7977 110.437 99.3577 109.737 100.123 109.252C100.888 108.767 101.756 108.524 102.727 108.524ZM120.451 105.164C118.939 105.164 118.183 105.995 118.183 107.656V108.86H121.347V111.492H118.183V123H114.683V111.492H111.995V108.86H114.683V107.488C114.683 105.808 115.103 104.52 115.943 103.624C116.802 102.709 118.025 102.252 119.611 102.252C120.489 102.252 121.226 102.364 121.823 102.588V105.36C121.301 105.229 120.843 105.164 120.451 105.164ZM131.657 108.524C132.198 108.524 132.665 108.599 133.057 108.748L133.029 111.94C132.431 111.697 131.815 111.576 131.181 111.576C129.986 111.576 129.071 111.921 128.437 112.612C127.821 113.303 127.513 114.217 127.513 115.356V123H124.041V112.864C124.041 111.371 123.966 110.036 123.817 108.86H127.093L127.373 111.352C127.727 110.437 128.287 109.737 129.053 109.252C129.818 108.767 130.686 108.524 131.657 108.524ZM135.006 108.86H138.478V123H135.006V108.86ZM138.674 102.448V105.892H134.782V102.448H138.674ZM154.682 116.112H144.938C145.013 117.624 145.386 118.744 146.058 119.472C146.749 120.181 147.766 120.536 149.11 120.536C150.66 120.536 152.097 120.032 153.422 119.024L154.43 121.432C153.758 121.973 152.928 122.412 151.938 122.748C150.968 123.065 149.978 123.224 148.97 123.224C146.656 123.224 144.836 122.571 143.51 121.264C142.185 119.957 141.522 118.165 141.522 115.888C141.522 114.451 141.812 113.172 142.39 112.052C142.969 110.932 143.781 110.064 144.826 109.448C145.872 108.813 147.057 108.496 148.382 108.496C150.324 108.496 151.854 109.131 152.974 110.4C154.113 111.651 154.682 113.377 154.682 115.58V116.112ZM148.466 111.016C147.533 111.016 146.768 111.296 146.17 111.856C145.592 112.397 145.218 113.191 145.05 114.236H151.63C151.518 113.172 151.192 112.369 150.65 111.828C150.128 111.287 149.4 111.016 148.466 111.016ZM165.738 108.496C169.117 108.496 170.806 110.437 170.806 114.32V123H167.306V114.488C167.306 113.368 167.092 112.556 166.662 112.052C166.233 111.529 165.57 111.268 164.674 111.268C163.61 111.268 162.752 111.613 162.098 112.304C161.445 112.976 161.118 113.872 161.118 114.992V123H157.646V112.864C157.646 111.371 157.572 110.036 157.422 108.86H160.698L160.95 111.184C161.436 110.325 162.089 109.663 162.91 109.196C163.75 108.729 164.693 108.496 165.738 108.496ZM188.041 102.392V123H184.597V120.732C184.168 121.516 183.552 122.132 182.749 122.58C181.947 123.009 181.032 123.224 180.005 123.224C178.792 123.224 177.709 122.916 176.757 122.3C175.805 121.684 175.059 120.816 174.517 119.696C173.995 118.557 173.733 117.26 173.733 115.804C173.733 114.348 173.995 113.069 174.517 111.968C175.04 110.867 175.777 110.017 176.729 109.42C177.681 108.804 178.773 108.496 180.005 108.496C181.013 108.496 181.909 108.711 182.693 109.14C183.496 109.551 184.112 110.139 184.541 110.904V102.392H188.041ZM180.929 120.48C182.087 120.48 182.983 120.079 183.617 119.276C184.271 118.473 184.597 117.335 184.597 115.86C184.597 114.385 184.28 113.247 183.645 112.444C183.011 111.641 182.115 111.24 180.957 111.24C179.781 111.24 178.867 111.641 178.213 112.444C177.579 113.228 177.261 114.348 177.261 115.804C177.261 117.279 177.579 118.427 178.213 119.248C178.867 120.069 179.772 120.48 180.929 120.48ZM197.033 123.224C194.476 123.224 192.441 122.627 190.929 121.432L191.909 118.968C193.421 120.088 195.148 120.648 197.089 120.648C197.929 120.648 198.573 120.508 199.021 120.228C199.488 119.948 199.721 119.556 199.721 119.052C199.721 118.623 199.563 118.287 199.245 118.044C198.928 117.783 198.387 117.559 197.621 117.372L195.269 116.84C192.693 116.28 191.405 114.964 191.405 112.892C191.405 112.033 191.648 111.277 192.133 110.624C192.619 109.952 193.3 109.429 194.177 109.056C195.055 108.683 196.072 108.496 197.229 108.496C198.237 108.496 199.208 108.655 200.141 108.972C201.075 109.271 201.896 109.709 202.605 110.288L201.569 112.668C200.151 111.623 198.695 111.1 197.201 111.1C196.399 111.1 195.773 111.249 195.325 111.548C194.877 111.847 194.653 112.257 194.653 112.78C194.653 113.191 194.784 113.517 195.045 113.76C195.325 114.003 195.792 114.208 196.445 114.376L198.853 114.908C200.253 115.225 201.271 115.72 201.905 116.392C202.559 117.045 202.885 117.904 202.885 118.968C202.885 120.275 202.363 121.311 201.317 122.076C200.272 122.841 198.844 123.224 197.033 123.224Z" fill="white"/>
<mask id="mask0" mask-type="alpha" maskUnits="userSpaceOnUse" x="0" y="0" width="414" height="320">
<path d="M0 0H414V296.471C414 296.471 337 320 207.5 320C78 320 0 296.471 0 296.471V0Z" fill="url(#paint1_linear)"/>
</mask>
<g mask="url(#mask0)">
<path fill-rule="evenodd" clip-rule="evenodd" d="M233 185.719C233 185.719 240.463 200.616 257.044 204.621C273.625 208.626 291 206.363 291 206.363C291 206.363 266.841 199.173 259.823 191.174C252.806 183.176 252.305 178 252.305 178C252.305 178 244.548 178.326 240.402 179.866C236.257 181.406 233 185.719 233 185.719Z" fill="#005960"/>
<rect x="207" y="207.77" width="162.143" height="54.8806" fill="url(#paint2_linear)"/>
<rect x="217" y="262" width="142" height="58" fill="url(#paint3_linear)"/>
<rect x="217" y="262" width="142" height="9" fill="#15ACAC"/>
<rect x="268.614" y="207.77" width="38.9143" height="111.764" fill="url(#paint4_linear)"/>
<rect x="268.614" y="207.77" width="38.9143" height="111.764" fill="url(#paint5_linear)"/>
<path fill-rule="evenodd" clip-rule="evenodd" d="M349 188.72C349 188.72 344.827 199.498 325.385 204.179C305.943 208.86 291 206.303 291 206.303C291 206.303 314.771 200.041 321.733 192.027C328.696 184.014 328.696 176 328.696 176C328.696 176 337.536 176.092 342.397 177.893C347.258 179.693 349 188.72 349 188.72Z" fill="#005960"/>
<path fill-rule="evenodd" clip-rule="evenodd" d="M233.369 186.009C233.369 186.009 228.039 171.015 233.369 160.353C238.699 149.691 255.022 141.695 269.014 146.359C283.005 151.024 291 166.684 291 176.347C291 186.009 291 207 291 207C291 207 268.268 180.901 252.944 179.235C237.62 177.569 233.369 186.009 233.369 186.009Z" fill="url(#paint6_linear)"/>
<path fill-rule="evenodd" clip-rule="evenodd" d="M349.343 188.614C349.343 188.614 354.594 168.833 346.401 156.928C338.208 145.023 325.811 142.701 315.231 144.58C304.65 146.459 292.465 157.417 290.759 172.824C289.052 188.231 290.759 207 290.759 207C290.759 207 310.592 183.285 326.295 180.483C341.998 177.682 349.343 188.614 349.343 188.614Z" fill="url(#paint7_linear)"/>
<path fill-rule="evenodd" clip-rule="evenodd" d="M145.709 246.058C145.709 246.058 150.252 255.719 160.345 258.316C170.438 260.913 181.014 259.445 181.014 259.445C181.014 259.445 165.5 254.5 161.5 249C157.5 243.5 158.5 241 158.5 241C158.5 241 152.738 241.264 150.215 242.263C147.692 243.261 145.709 246.058 145.709 246.058Z" fill="#005960"/>
<rect x="130" y="260" width="99" height="34" fill="url(#paint8_linear)"/>
<rect x="136" y="294" width="87" height="26" fill="url(#paint9_linear)"/>
<rect x="136" y="294" width="87" height="8" fill="#15ACAC"/>
<rect x="168" y="260" width="23" height="60" fill="url(#paint10_linear)"/>
<rect x="168" y="260" width="23" height="60" fill="url(#paint11_linear)"/>
<path fill-rule="evenodd" clip-rule="evenodd" d="M216.599 248.065C216.599 248.065 214.039 255.041 202.111 258.071C190.182 261.101 181.015 259.446 181.015 259.446C181.015 259.446 195 254.5 199 249C203 243.5 204.5 239 204.5 239C204.5 239 209.566 239.892 212.548 241.057C215.53 242.223 216.599 248.065 216.599 248.065Z" fill="#005960"/>
<path fill-rule="evenodd" clip-rule="evenodd" d="M145.802 246.315C145.802 246.315 142.544 236.694 145.802 229.852C149.059 223.01 159.035 217.879 167.586 220.872C176.137 223.866 181.023 233.914 181.023 240.114C181.023 246.315 181.023 259.784 181.023 259.784C181.023 259.784 167.865 243.069 158.5 242C149.135 240.931 145.802 246.315 145.802 246.315Z" fill="url(#paint12_linear)"/>
<path fill-rule="evenodd" clip-rule="evenodd" d="M216.599 248.065C216.599 248.065 219.785 235.458 214.814 227.87C209.844 220.282 203.082 219.218 196 220C188.918 220.782 182.093 228.18 181.057 238C180.022 247.82 181.057 259.784 181.057 259.784C181.057 259.784 192.474 245.285 202 243.5C211.526 241.715 216.599 248.065 216.599 248.065Z" fill="url(#paint13_linear)"/>
<path fill-rule="evenodd" clip-rule="evenodd" d="M294.511 208.973C296.786 208.469 299.582 208.675 302.954 210.173L304.737 206.16C300.651 204.345 296.896 203.946 293.56 204.685C290.234 205.423 287.516 207.25 285.417 209.567C281.287 214.129 279.361 220.799 279.711 225.973C280.035 230.758 281.081 235.356 283.533 238.736C286.101 242.276 290.03 244.23 295.397 243.938L295.159 239.553C291.153 239.77 288.708 238.391 287.087 236.157C285.351 233.764 284.395 230.147 284.093 225.677C283.817 221.597 285.404 216.125 288.673 212.515C290.274 210.746 292.226 209.479 294.511 208.973Z" fill="#BB9C4E"/>
<ellipse cx="309.268" cy="260.885" rx="31.4235" ry="32.8294" transform="rotate(13.3388 309.268 260.885)" fill="#005150"/>
<mask id="mask1" mask-type="alpha" maskUnits="userSpaceOnUse" x="277" y="228" width="64" height="66">
<ellipse cx="309.268" cy="260.885" rx="31.4235" ry="32.8294" transform="rotate(13.3388 309.268 260.885)" fill="white"/>
</mask>
<g mask="url(#mask1)">
<path fill-rule="evenodd" clip-rule="evenodd" d="M288.815 268.291C270.549 280.731 264.633 305.382 275.67 323.956C286.708 342.529 310.596 348.119 329.515 336.778L288.815 268.291Z" fill="#008181"/>
<path fill-rule="evenodd" clip-rule="evenodd" d="M302.821 286.265C305.724 295.734 315.435 301.003 324.717 298.06C333.995 295.118 339.384 285.07 336.918 275.47L302.821 286.265Z" fill="#FF9445"/>
<mask id="mask2" mask-type="alpha" maskUnits="userSpaceOnUse" x="280" y="240" width="58" height="71">
<path fill-rule="evenodd" clip-rule="evenodd" d="M294.198 240.627L337.542 250.904L323.476 310.228L280.132 299.951L294.198 240.627Z" fill="white"/>
</mask>
<g mask="url(#mask2)">
<path fill-rule="evenodd" clip-rule="evenodd" d="M318.604 305.736L327.345 268.869C327.514 268.157 327.644 267.445 327.735 266.735C328.114 263.805 329.04 260.98 330.392 258.361C330.643 257.873 330.889 257.363 331.133 256.833C331.76 255.467 330.567 254.01 329.185 254.459C328.565 254.66 327.926 254.846 327.295 254.997C326.493 255.19 325.681 254.829 325.265 254.101C322.77 249.743 318.65 246.425 313.518 245.208C308.386 243.991 303.216 245.106 299.029 247.879C298.331 248.342 297.443 248.3 296.813 247.768C296.318 247.351 295.832 246.898 295.369 246.441C294.336 245.419 292.616 246.186 292.563 247.687C292.543 248.267 292.534 248.829 292.539 249.373C292.57 252.32 292.131 255.261 291.152 258.048C290.914 258.727 290.708 259.425 290.538 260.142L288.273 269.696C285.394 281.84 289.842 293.955 298.657 301.006L285.457 297.877L324.225 307.069L318.604 305.736Z" fill="#00BCBC"/>
</g>
<path opacity="0.901284" fill-rule="evenodd" clip-rule="evenodd" d="M318.843 256.481C315.36 255.655 311.841 257.283 309.945 260.279C309.596 256.75 307.183 253.716 303.7 252.891C299.253 251.836 294.747 254.781 293.635 259.467C291.345 269.127 290.373 277.167 305.112 280.662C319.033 283.963 322.593 276.536 324.883 266.876C325.994 262.19 323.29 257.535 318.843 256.481Z" fill="white"/>
</g>
<path fill-rule="evenodd" clip-rule="evenodd" d="M308.61 273.663L311.457 270.297C311.775 269.921 311.838 269.369 311.612 268.949L309.521 265.054C309.232 264.516 308.567 264.359 308.069 264.709L304.45 267.251C304.06 267.525 303.869 268.046 303.984 268.525L305.016 272.811C305.426 274.514 307.48 275.001 308.61 273.663Z" fill="#FFA32C"/>
<path fill-rule="evenodd" clip-rule="evenodd" d="M319.29 266.786L317.614 266.388C317.757 265.785 317.951 264.35 316.665 264.045C315.379 263.74 314.908 265.11 314.765 265.713L313.089 265.315C313.621 263.072 315.224 261.861 317.078 262.301C318.933 262.741 319.822 264.543 319.29 266.786Z" fill="#007F7E"/>
<path fill-rule="evenodd" clip-rule="evenodd" d="M303.862 263.127L302.186 262.73C302.329 262.127 302.523 260.691 301.237 260.387C299.951 260.082 299.479 261.451 299.336 262.054L297.661 261.657C298.192 259.414 299.796 258.203 301.65 258.643C303.505 259.082 304.393 260.884 303.862 263.127Z" fill="#007F7E"/>
<circle cx="316.353" cy="237.622" r="4.39159" transform="rotate(13.3388 316.353 237.622)" fill="white"/>
<path fill-rule="evenodd" clip-rule="evenodd" d="M308.577 212.451C306.31 211.687 304.019 210.897 302.124 209.932L304.116 206.019C305.678 206.814 307.662 207.508 309.98 208.29C310.173 208.355 310.368 208.42 310.565 208.487C312.676 209.196 314.993 209.976 317.231 210.932C322.101 213.013 327.103 216.136 329.319 221.947C330.387 224.746 330.629 227.298 330.18 229.589C329.732 231.88 328.625 233.756 327.241 235.255C324.53 238.19 320.67 239.783 318.016 240.553C318.016 240.553 316.975 240.572 316.385 238.8C315.794 237.029 316.792 236.335 316.792 236.335C319.132 235.656 322.096 234.354 324.015 232.275C324.945 231.267 325.604 230.106 325.871 228.746C326.136 227.388 326.041 225.674 325.216 223.512C323.647 219.398 320.034 216.905 315.505 214.97C313.436 214.086 311.282 213.361 309.144 212.642C308.955 212.578 308.766 212.515 308.577 212.451Z" fill="#BB9C4E"/>
<g filter="url(#filter0_f)">
<path d="M317.367 200.437L308.387 188.2L306.068 187.389L291.427 191.356L303.665 182.401L304.464 180.059L300.502 165.433L309.471 177.646L311.801 178.481L326.431 174.491L314.204 183.468L313.394 185.788L317.367 200.437Z" fill="white"/>
</g>
<g filter="url(#filter1_f)">
<path d="M217.339 287.498L211.241 279.188L209.666 278.637L199.723 281.331L208.034 275.25L208.577 273.659L205.886 263.727L211.977 272.021L213.559 272.588L223.495 269.878L215.191 275.975L214.641 277.55L217.339 287.498Z" fill="white"/>
</g>
</g>
<defs>
<filter id="filter0_f" x="290.427" y="164.433" width="37.0039" height="37.0039" filterUnits="userSpaceOnUse" color-interpolation-filters="sRGB">
<feFlood flood-opacity="0" result="BackgroundImageFix"/>
<feBlend mode="normal" in="SourceGraphic" in2="BackgroundImageFix" result="shape"/>
<feGaussianBlur stdDeviation="0.5" result="effect1_foregroundBlur"/>
</filter>
<filter id="filter1_f" x="198.723" y="262.727" width="25.7714" height="25.7714" filterUnits="userSpaceOnUse" color-interpolation-filters="sRGB">
<feFlood flood-opacity="0" result="BackgroundImageFix"/>
<feBlend mode="normal" in="SourceGraphic" in2="BackgroundImageFix" result="shape"/>
<feGaussianBlur stdDeviation="0.5" result="effect1_foregroundBlur"/>
</filter>
<linearGradient id="paint0_linear" x1="466.559" y1="207.256" x2="186.391" y2="208.909" gradientUnits="userSpaceOnUse">
<stop stop-color="#FCF4D7"/>
<stop offset="1" stop-color="#00A7A7"/>
</linearGradient>
<linearGradient id="paint1_linear" x1="466.559" y1="207.256" x2="186.391" y2="208.909" gradientUnits="userSpaceOnUse">
<stop stop-color="#FCF4D7"/>
<stop offset="1" stop-color="#00A7A7"/>
</linearGradient>
<linearGradient id="paint2_linear" x1="207" y1="246.187" x2="392.052" y2="245.539" gradientUnits="userSpaceOnUse">
<stop stop-color="#A5E9E9"/>
<stop offset="0.540249" stop-color="#62E8D0"/>
<stop offset="1" stop-color="#00A7A7"/>
</linearGradient>
<linearGradient id="paint3_linear" x1="217" y1="302.6" x2="379.064" y2="302.13" gradientUnits="userSpaceOnUse">
<stop stop-color="#A5E9E9"/>
<stop offset="0.540249" stop-color="#62E8D0"/>
<stop offset="1" stop-color="#00A7A7"/>
</linearGradient>
<linearGradient id="paint4_linear" x1="288.071" y1="179.829" x2="222.555" y2="225.452" gradientUnits="userSpaceOnUse">
<stop stop-color="#FFED7D"/>
<stop offset="1" stop-color="#FFA600"/>
</linearGradient>
<linearGradient id="paint5_linear" x1="288.071" y1="207.77" x2="288.071" y2="319.535" gradientUnits="userSpaceOnUse">
<stop stop-color="#FFDD61"/>
<stop offset="1" stop-color="white" stop-opacity="0"/>
</linearGradient>
<linearGradient id="paint6_linear" x1="300.139" y1="175.838" x2="229.721" y2="185.086" gradientUnits="userSpaceOnUse">
<stop stop-color="#B48700"/>
<stop offset="0.331903" stop-color="#FFED7D"/>
<stop offset="1" stop-color="#BC8520"/>
</linearGradient>
<linearGradient id="paint7_linear" x1="360.18" y1="175.628" x2="289.44" y2="184.896" gradientUnits="userSpaceOnUse">
<stop stop-color="#B48700"/>
<stop offset="0.331903" stop-color="#FFED7D"/>
<stop offset="1" stop-color="#BC8520"/>
</linearGradient>
<linearGradient id="paint8_linear" x1="130" y1="283.8" x2="242.988" y2="283.41" gradientUnits="userSpaceOnUse">
<stop stop-color="#A5E9E9"/>
<stop offset="0.540249" stop-color="#62E8D0"/>
<stop offset="1" stop-color="#00A7A7"/>
</linearGradient>
<linearGradient id="paint9_linear" x1="136" y1="312.2" x2="235.292" y2="311.807" gradientUnits="userSpaceOnUse">
<stop stop-color="#A5E9E9"/>
<stop offset="0.540249" stop-color="#62E8D0"/>
<stop offset="1" stop-color="#00A7A7"/>
</linearGradient>
<linearGradient id="paint10_linear" x1="179.5" y1="245" x2="143.286" y2="272.764" gradientUnits="userSpaceOnUse">
<stop stop-color="#FFED7D"/>
<stop offset="1" stop-color="#FFA600"/>
</linearGradient>
<linearGradient id="paint11_linear" x1="179.5" y1="260" x2="179.5" y2="320" gradientUnits="userSpaceOnUse">
<stop stop-color="#FFDD61"/>
<stop offset="1" stop-color="white" stop-opacity="0"/>
</linearGradient>
<linearGradient id="paint12_linear" x1="186.636" y1="239.788" x2="143.325" y2="245.232" gradientUnits="userSpaceOnUse">
<stop stop-color="#B48700"/>
<stop offset="0.331903" stop-color="#FFED7D"/>
<stop offset="1" stop-color="#BC8520"/>
</linearGradient>
<linearGradient id="paint13_linear" x1="223.173" y1="239.788" x2="180.189" y2="245.149" gradientUnits="userSpaceOnUse">
<stop stop-color="#B48700"/>
<stop offset="0.331903" stop-color="#FFED7D"/>
<stop offset="1" stop-color="#BC8520"/>
</linearGradient>
</defs>
</svg>
