<svg width="268" height="200" viewBox="0 0 268 200" fill="none" xmlns="http://www.w3.org/2000/svg">
<g clip-path="url(#clip0)">
<path fill-rule="evenodd" clip-rule="evenodd" d="M115.498 49.1226C115.498 49.1226 123.867 65.8609 142.46 70.3608C161.053 74.8606 180.536 72.3182 180.536 72.3182C180.536 72.3182 153.445 64.2389 145.576 55.2518C137.707 46.2647 137.145 40.4495 137.145 40.4495C137.145 40.4495 128.447 40.8152 123.799 42.5459C119.15 44.2766 115.498 49.1226 115.498 49.1226Z" fill="#005960"/>
<rect x="86.3428" y="73.8994" width="181.817" height="61.6636" fill="url(#paint0_linear)"/>
<rect x="97.5566" y="134.832" width="159.23" height="65.1685" fill="url(#paint1_linear)"/>
<rect x="97.5566" y="134.832" width="159.23" height="10.1124" fill="#15ACAC"/>
<rect x="155.433" y="73.8994" width="43.6361" height="125.578" fill="url(#paint2_linear)"/>
<rect x="155.433" y="73.8994" width="43.6361" height="125.578" fill="url(#paint3_linear)"/>
<path fill-rule="evenodd" clip-rule="evenodd" d="M245.573 52.4945C245.573 52.4945 240.894 64.6046 219.093 69.8644C197.291 75.1242 180.536 72.2502 180.536 72.2502C180.536 72.2502 207.191 65.2149 214.998 56.2108C222.805 47.2066 222.805 38.2024 222.805 38.2024C222.805 38.2024 232.719 38.3058 238.169 40.3288C243.619 42.3518 245.573 52.4945 245.573 52.4945Z" fill="#005960"/>
<path fill-rule="evenodd" clip-rule="evenodd" d="M115.911 49.4484C115.911 49.4484 109.934 32.6017 115.911 20.6219C121.888 8.64199 140.192 -0.342909 155.881 4.89828C171.57 10.1395 180.535 27.7349 180.535 38.5917C180.535 49.4484 180.535 73.0338 180.535 73.0338C180.535 73.0338 155.045 43.7094 137.862 41.8375C120.678 39.9657 115.911 49.4484 115.911 49.4484Z" fill="url(#paint4_linear)"/>
<path fill-rule="evenodd" clip-rule="evenodd" d="M245.957 52.3752C245.957 52.3752 251.846 30.15 242.659 16.7733C233.472 3.39673 219.571 0.788254 207.706 2.89931C195.842 5.01036 182.179 17.3231 180.265 34.634C178.351 51.9449 180.265 73.0338 180.265 73.0338C180.265 73.0338 202.505 46.3874 220.113 43.24C237.722 40.0925 245.957 52.3752 245.957 52.3752Z" fill="url(#paint5_linear)"/>
<path fill-rule="evenodd" clip-rule="evenodd" d="M17.6152 116.919C17.6152 116.919 22.7092 127.774 34.0271 130.692C45.345 133.61 57.2044 131.961 57.2044 131.961C57.2044 131.961 39.8077 126.404 35.3223 120.225C30.837 114.045 31.9583 111.236 31.9583 111.236C31.9583 111.236 25.4973 111.532 22.6679 112.654C19.8384 113.777 17.6152 116.919 17.6152 116.919Z" fill="#005960"/>
<rect y="132.584" width="111.013" height="38.2022" fill="url(#paint6_linear)"/>
<rect x="6.72852" y="170.786" width="97.5565" height="29.2135" fill="url(#paint7_linear)"/>
<rect x="6.72852" y="170.786" width="97.5565" height="8.98877" fill="#15ACAC"/>
<rect x="42.6113" y="132.584" width="25.7908" height="67.4157" fill="url(#paint8_linear)"/>
<rect x="42.6113" y="132.584" width="25.7908" height="67.4157" fill="url(#paint9_linear)"/>
<path fill-rule="evenodd" clip-rule="evenodd" d="M97.1064 119.174C97.1064 119.174 94.2358 127.013 80.8601 130.417C67.4844 133.822 57.2044 131.961 57.2044 131.961C57.2044 131.961 72.8865 126.405 77.3719 120.225C81.8572 114.045 83.5392 108.989 83.5392 108.989C83.5392 108.989 89.2199 109.991 92.5638 111.3C95.9078 112.61 97.1064 119.174 97.1064 119.174Z" fill="#005960"/>
<path fill-rule="evenodd" clip-rule="evenodd" d="M17.7191 117.207C17.7191 117.207 14.0664 106.397 17.7191 98.7099C21.3718 91.0227 32.5583 85.2574 42.1466 88.6205C51.735 91.9836 57.2141 103.274 57.2141 110.241C57.2141 117.207 57.2141 132.341 57.2141 132.341C57.2141 132.341 42.4597 113.561 31.9582 112.359C21.4566 111.158 17.7191 117.207 17.7191 117.207Z" fill="url(#paint10_linear)"/>
<path fill-rule="evenodd" clip-rule="evenodd" d="M97.1062 119.174C97.1062 119.174 100.679 105.009 95.1052 96.4832C89.5318 87.9574 81.9493 86.7615 74.0081 87.6403C66.0669 88.5192 58.4135 96.8318 57.2524 107.865C56.0912 118.898 57.2524 132.341 57.2524 132.341C57.2524 132.341 70.0537 116.051 80.7361 114.045C91.4185 112.039 97.1062 119.174 97.1062 119.174Z" fill="url(#paint11_linear)"/>
<path fill-rule="evenodd" clip-rule="evenodd" d="M184.469 75.2541C187.021 74.6885 190.157 74.9221 193.941 76.6065L195.94 72.0982C191.355 70.0575 187.143 69.6075 183.401 70.4368C179.67 71.2637 176.62 73.315 174.268 75.9175C169.636 81.0406 167.478 88.5331 167.874 94.3472C168.239 99.7223 169.414 104.889 172.166 108.687C175.049 112.666 179.458 114.862 185.479 114.537L185.209 109.61C180.716 109.853 177.972 108.302 176.153 105.792C174.204 103.102 173.13 99.0386 172.789 94.0159C172.477 89.4323 174.256 83.2851 177.921 79.2305C179.717 77.2441 181.906 75.8221 184.469 75.2541Z" fill="#BB9C4E"/>
<ellipse rx="35.2724" ry="36.8511" transform="matrix(0.972792 0.231684 -0.229737 0.973253 201.02 133.578)" fill="#005150"/>
<mask id="mask0" mask-type="alpha" maskUnits="userSpaceOnUse" x="165" y="96" width="72" height="75">
<ellipse rx="35.2724" ry="36.8511" transform="matrix(0.972792 0.231684 -0.229737 0.973253 201.02 133.578)" fill="white"/>
</mask>
<g mask="url(#mask0)">
<path fill-rule="evenodd" clip-rule="evenodd" d="M178.083 141.87C157.598 155.834 150.973 183.542 163.364 204.427C175.754 225.31 202.55 231.605 223.757 218.86L178.083 141.87Z" fill="#008181"/>
<path fill-rule="evenodd" clip-rule="evenodd" d="M193.8 162.096C197.062 172.734 207.948 178.657 218.351 175.354C228.749 172.052 234.786 160.765 232.02 149.977L193.8 162.096Z" fill="#FF9445"/>
<mask id="mask1" mask-type="alpha" maskUnits="userSpaceOnUse" x="168" y="110" width="65" height="80">
<path fill-rule="evenodd" clip-rule="evenodd" d="M184.074 110.817L232.724 122.403L216.998 189.02L168.348 177.434L184.074 110.817Z" fill="white"/>
</mask>
<g mask="url(#mask1)">
<path fill-rule="evenodd" clip-rule="evenodd" d="M211.527 183.968L221.3 142.57C221.488 141.77 221.633 140.97 221.735 140.174C222.157 136.883 223.194 133.711 224.708 130.77C224.989 130.223 225.265 129.651 225.538 129.055C226.24 127.522 224.9 125.884 223.349 126.387C222.654 126.613 221.937 126.821 221.23 126.99C220.33 127.205 219.418 126.799 218.95 125.982C216.146 121.084 211.52 117.353 205.76 115.981C200 114.609 194.199 115.857 189.504 118.967C188.722 119.486 187.725 119.438 187.017 118.84C186.462 118.371 185.916 117.862 185.396 117.348C184.235 116.2 182.306 117.059 182.248 118.745C182.226 119.396 182.216 120.027 182.223 120.639C182.26 123.949 181.771 127.251 180.675 130.38C180.408 131.143 180.178 131.927 179.988 132.732L177.456 143.46C174.237 157.096 179.241 170.708 189.14 178.636L174.324 175.108L217.836 185.471L211.527 183.968Z" fill="#00BCBC"/>
</g>
<path opacity="0.901284" fill-rule="evenodd" clip-rule="evenodd" d="M211.751 128.65C207.843 127.719 203.897 129.543 201.773 132.905C201.377 128.943 198.667 125.534 194.759 124.603C189.769 123.414 184.717 126.716 183.475 131.977C180.915 142.821 179.832 151.848 196.371 155.787C211.991 159.507 215.977 151.171 218.537 140.328C219.779 135.067 216.74 129.838 211.751 128.65Z" fill="white"/>
</g>
<path fill-rule="evenodd" clip-rule="evenodd" d="M200.288 147.936L203.479 144.157C203.835 143.736 203.906 143.115 203.652 142.644L201.301 138.267C200.977 137.663 200.23 137.485 199.671 137.878L195.614 140.729C195.176 141.036 194.962 141.622 195.092 142.16L196.254 146.975C196.716 148.888 199.02 149.437 200.288 147.936Z" fill="#FFA32C"/>
<path fill-rule="evenodd" clip-rule="evenodd" d="M212.261 140.209L210.381 139.761C210.541 139.084 210.758 137.473 209.315 137.129C207.873 136.786 207.345 138.324 207.185 139.001L205.305 138.553C205.9 136.035 207.698 134.676 209.778 135.171C211.858 135.666 212.856 137.691 212.261 140.209Z" fill="#007F7E"/>
<path fill-rule="evenodd" clip-rule="evenodd" d="M194.96 136.098L193.08 135.651C193.24 134.974 193.457 133.362 192.014 133.019C190.572 132.676 190.044 134.213 189.884 134.89L188.005 134.443C188.599 131.925 190.397 130.566 192.477 131.061C194.557 131.556 195.555 133.58 194.96 136.098Z" fill="#007F7E"/>
<ellipse rx="4.92697" ry="4.93185" transform="matrix(0.972861 0.231391 -0.230028 0.973184 208.965 107.441)" fill="white"/>
<path fill-rule="evenodd" clip-rule="evenodd" d="M200.238 79.159C197.696 78.2996 195.126 77.4116 192.999 76.3268L195.232 71.9314C196.984 72.8255 199.209 73.6061 201.81 74.4851C202.027 74.5584 202.246 74.6322 202.466 74.7067C204.834 75.5048 207.433 76.3812 209.944 77.4564C215.407 79.7962 221.019 83.3072 223.507 89.8351C224.706 92.9802 224.978 95.846 224.476 98.4204C223.975 100.993 222.734 103.099 221.182 104.783C218.143 108.079 213.814 109.866 210.837 110.73C210.837 110.73 209.67 110.751 209.007 108.761C208.344 106.77 209.463 105.992 209.463 105.992C212.087 105.23 215.411 103.768 217.562 101.435C218.605 100.303 219.344 98.9988 219.642 97.4711C219.94 95.9451 219.832 94.0207 218.906 91.5911C217.144 86.9696 213.09 84.1674 208.01 81.9919C205.689 80.9979 203.272 80.1826 200.875 79.3739C200.662 79.3022 200.45 79.2307 200.238 79.159Z" fill="#BB9C4E"/>
<g filter="url(#filter0_f)">
<path d="M210.103 65.6591L200.033 51.9106L197.432 50.9985L181.015 55.4563L194.738 45.3943L195.634 42.7629L191.191 26.3289L201.249 40.0523L203.861 40.9896L220.266 36.5066L206.556 46.5938L205.647 49.2001L210.103 65.6591Z" fill="white"/>
</g>
<g filter="url(#filter1_f)">
<path d="M97.9371 163.481L91.0986 154.144L89.3326 153.525L78.1835 156.552L87.5026 149.719L88.1114 147.932L85.094 136.772L91.9243 146.091L93.6984 146.728L104.839 143.683L95.5285 150.534L94.9114 152.304L97.9371 163.481Z" fill="white"/>
</g>
</g>
<defs>
<filter id="filter0_f" x="180.015" y="25.3289" width="41.2512" height="41.3302" filterUnits="userSpaceOnUse" color-interpolation-filters="sRGB">
<feFlood flood-opacity="0" result="BackgroundImageFix"/>
<feBlend mode="normal" in="SourceGraphic" in2="BackgroundImageFix" result="shape"/>
<feGaussianBlur stdDeviation="0.5" result="effect1_foregroundBlur"/>
</filter>
<filter id="filter1_f" x="77.1836" y="135.772" width="28.6558" height="28.7095" filterUnits="userSpaceOnUse" color-interpolation-filters="sRGB">
<feFlood flood-opacity="0" result="BackgroundImageFix"/>
<feBlend mode="normal" in="SourceGraphic" in2="BackgroundImageFix" result="shape"/>
<feGaussianBlur stdDeviation="0.5" result="effect1_foregroundBlur"/>
</filter>
<linearGradient id="paint0_linear" x1="86.3428" y1="117.064" x2="293.849" y2="116.339" gradientUnits="userSpaceOnUse">
<stop stop-color="#A5E9E9"/>
<stop offset="0.540249" stop-color="#62E8D0"/>
<stop offset="1" stop-color="#00A7A7"/>
</linearGradient>
<linearGradient id="paint1_linear" x1="97.5566" y1="180.45" x2="279.285" y2="179.924" gradientUnits="userSpaceOnUse">
<stop stop-color="#A5E9E9"/>
<stop offset="0.540249" stop-color="#62E8D0"/>
<stop offset="1" stop-color="#00A7A7"/>
</linearGradient>
<linearGradient id="paint2_linear" x1="177.251" y1="42.5049" x2="103.689" y2="93.6277" gradientUnits="userSpaceOnUse">
<stop stop-color="#FFED7D"/>
<stop offset="1" stop-color="#FFA600"/>
</linearGradient>
<linearGradient id="paint3_linear" x1="177.251" y1="73.8994" x2="177.251" y2="199.477" gradientUnits="userSpaceOnUse">
<stop stop-color="#FFDD61"/>
<stop offset="1" stop-color="white" stop-opacity="0"/>
</linearGradient>
<linearGradient id="paint4_linear" x1="190.783" y1="38.0207" x2="111.815" y2="48.3705" gradientUnits="userSpaceOnUse">
<stop stop-color="#B48700"/>
<stop offset="0.331903" stop-color="#FFED7D"/>
<stop offset="1" stop-color="#BC8520"/>
</linearGradient>
<linearGradient id="paint5_linear" x1="258.11" y1="37.7839" x2="178.781" y2="48.1573" gradientUnits="userSpaceOnUse">
<stop stop-color="#B48700"/>
<stop offset="0.331903" stop-color="#FFED7D"/>
<stop offset="1" stop-color="#BC8520"/>
</linearGradient>
<linearGradient id="paint6_linear" x1="8.8363e-09" y1="159.326" x2="126.698" y2="158.89" gradientUnits="userSpaceOnUse">
<stop stop-color="#A5E9E9"/>
<stop offset="0.540249" stop-color="#62E8D0"/>
<stop offset="1" stop-color="#00A7A7"/>
</linearGradient>
<linearGradient id="paint7_linear" x1="6.72852" y1="191.236" x2="118.068" y2="190.796" gradientUnits="userSpaceOnUse">
<stop stop-color="#A5E9E9"/>
<stop offset="0.540249" stop-color="#62E8D0"/>
<stop offset="1" stop-color="#00A7A7"/>
</linearGradient>
<linearGradient id="paint8_linear" x1="55.5067" y1="115.73" x2="14.838" y2="146.847" gradientUnits="userSpaceOnUse">
<stop stop-color="#FFED7D"/>
<stop offset="1" stop-color="#FFA600"/>
</linearGradient>
<linearGradient id="paint9_linear" x1="55.5067" y1="132.584" x2="55.5067" y2="200" gradientUnits="userSpaceOnUse">
<stop stop-color="#FFDD61"/>
<stop offset="1" stop-color="white" stop-opacity="0"/>
</linearGradient>
<linearGradient id="paint10_linear" x1="63.5078" y1="109.874" x2="14.9394" y2="115.967" gradientUnits="userSpaceOnUse">
<stop stop-color="#B48700"/>
<stop offset="0.331903" stop-color="#FFED7D"/>
<stop offset="1" stop-color="#BC8520"/>
</linearGradient>
<linearGradient id="paint11_linear" x1="104.479" y1="109.874" x2="56.2761" y2="115.874" gradientUnits="userSpaceOnUse">
<stop stop-color="#B48700"/>
<stop offset="0.331903" stop-color="#FFED7D"/>
<stop offset="1" stop-color="#BC8520"/>
</linearGradient>
<clipPath id="clip0">
<rect width="268" height="200" fill="white"/>
</clipPath>
</defs>
</svg>
