<svg width="5" height="110" viewBox="0 0 5 110" fill="none" xmlns="http://www.w3.org/2000/svg">
<path fill-rule="evenodd" clip-rule="evenodd" d="M367.056 0C370.891 0 374 2.81421 374 6.28571V103.714C374 107.186 370.891 110 367.056 110H244C244 110 243.5 104.958 238 104.958C232.5 104.958 232 110 232 110H6.94362C3.10876 110 0 107.186 0 103.714V99.5238C2.55657 99.5238 4.62908 97.6477 4.62908 95.3333C4.62908 93.019 2.55657 91.1429 0 91.1429V85.9048C2.55657 85.9048 4.62908 84.0286 4.62908 81.7143C4.62908 79.4 2.55657 77.5238 0 77.5238V72.2857C2.55657 72.2857 4.62908 70.4096 4.62908 68.0952C4.62908 65.7809 2.55657 63.9048 0 63.9048V58.6667C2.55657 58.6667 4.62908 56.7905 4.62908 54.4762C4.62908 52.1619 2.55657 50.2857 0 50.2857V45.0476C2.55657 45.0476 4.62908 43.1715 4.62908 40.8571C4.62908 38.5428 2.55657 36.6667 0 36.6667V31.4286C2.55657 31.4286 4.62908 29.5524 4.62908 27.2381C4.62908 24.9238 2.55657 23.0476 0 23.0476V17.8095C2.55657 17.8095 4.62908 15.9334 4.62908 13.619C4.62908 11.3047 2.55657 9.42857 0 9.42857V6.28571C0 2.81421 3.10876 0 6.94362 0H232C232 0 232.5 5.92308 238 5.95833C243.5 5.99359 244 0 244 0H367.056Z" fill="#E7E7E7"/>
</svg>
