<svg width="153" height="112" viewBox="0 0 153 112" fill="none" xmlns="http://www.w3.org/2000/svg">
<g clip-path="url(#clip0)">
<path d="M26.9735 67.5101L24.3577 67.0429L23.7169 63.7154C23.6406 63.3403 23.344 63.1065 22.827 63.0142L21.9332 62.8545L21.2688 66.4912L18.8371 66.0568L20.5448 56.7092L24.8956 57.4863C26.026 57.6883 26.8313 58.0852 27.3113 58.677C27.793 59.2602 27.9514 60.0025 27.7867 60.904C27.6716 61.5341 27.4008 62.0506 26.9743 62.4535C26.5581 62.8491 26.0258 63.0885 25.3772 63.1714C25.6305 63.2709 25.8447 63.4357 26.0198 63.6658C26.195 63.8959 26.3143 64.1839 26.3778 64.5296L26.9735 67.5101ZM23.7937 61.2889C24.3195 61.3828 24.7151 61.3721 24.9805 61.2568C25.2474 61.1328 25.4121 60.9001 25.4745 60.5587C25.54 60.1999 25.4689 59.9206 25.2611 59.7208C25.062 59.5225 24.6952 59.3757 24.1607 59.2802L22.6097 59.0031L22.2427 61.0118L23.7937 61.2889Z" fill="black"/>
<path d="M29.805 58.3632L36.4823 59.5559L36.1369 61.4465L31.865 60.6834L31.5436 62.4427L35.5395 63.1564L35.1941 65.0469L31.1982 64.3332L30.848 66.25L35.1199 67.013L34.7746 68.9035L28.0972 67.7108L29.805 58.3632Z" fill="black"/>
<path d="M37.6146 59.7582L44.1474 60.925L43.7948 62.8549L39.6937 62.1224L39.3819 63.8291L43.2201 64.5147L42.8699 66.4315L39.0317 65.7459L38.3385 69.5401L35.9068 69.1058L37.6146 59.7582Z" fill="black"/>
<path d="M45.1675 61.1072L51.8448 62.2999L51.4995 64.1905L47.2275 63.4274L46.9061 65.1867L50.902 65.9004L50.5566 67.7909L46.5607 67.0772L46.2105 68.994L50.4825 69.757L50.1371 71.6475L43.4597 70.4548L45.1675 61.1072Z" fill="black"/>
<path d="M59.4057 73.3031L56.79 72.8359L56.1492 69.5084C56.0729 69.1332 55.7763 68.8995 55.2593 68.8071L54.3655 68.6475L53.7011 72.2841L51.2693 71.8498L52.9771 62.5022L57.3279 63.2793C58.4583 63.4812 59.2636 63.8781 59.7436 64.47C60.2252 65.0531 60.3837 65.7954 60.219 66.6969C60.1039 67.3271 59.8331 67.8436 59.4066 68.2464C58.9904 68.6421 58.4581 68.8814 57.8095 68.9644C58.0628 69.0639 58.277 69.2287 58.4521 69.4588C58.6273 69.6889 58.7466 69.9768 58.8101 70.3226L59.4057 73.3031ZM56.226 67.0818C56.7518 67.1757 57.1474 67.165 57.4127 67.0498C57.6797 66.9257 57.8444 66.693 57.9068 66.3517C57.9723 65.9928 57.9012 65.7135 57.6934 65.5137C57.4943 65.3155 57.1275 65.1686 56.593 65.0731L55.0419 64.7961L54.675 66.8048L56.226 67.0818Z" fill="black"/>
<path d="M68.6659 74.9571L66.0501 74.4899L65.4093 71.1624C65.3331 70.7872 65.0364 70.5535 64.5194 70.4611L63.6256 70.3015L62.9612 73.9381L60.5295 73.5038L62.2372 64.1562L66.588 64.9333C67.7185 65.1352 68.5237 65.5321 69.0037 66.124C69.4854 66.7071 69.6439 67.4494 69.4792 68.3509C69.364 68.9811 69.0932 69.4976 68.6667 69.9004C68.2506 70.2961 67.7182 70.5354 67.0696 70.6184C67.3229 70.7179 67.5371 70.8827 67.7123 71.1128C67.8874 71.3429 68.0067 71.6308 68.0702 71.9766L68.6659 74.9571ZM65.4861 68.7358C66.0119 68.8297 66.4075 68.8191 66.6729 68.7038C66.9399 68.5797 67.1045 68.347 67.1669 68.0057C67.2324 67.6468 67.1613 67.3675 66.9535 67.1677C66.7544 66.9695 66.3877 66.8226 65.8531 66.7271L64.3021 66.4501L63.9351 68.4588L65.4861 68.7358Z" fill="black"/>
<path d="M76.3103 74.3296L72.1567 73.5877L70.976 75.3697L68.5048 74.9283L74.5897 66.3625L76.5351 66.71L79.2175 76.8418L76.7858 76.4074L76.3103 74.3296ZM75.8467 72.3353L75.1114 69.1536L73.2967 71.8798L75.8467 72.3353Z" fill="black"/>
<path d="M81.3351 67.5674L83.8063 68.0088L82.4631 75.3608L86.4196 76.0675L86.055 78.0631L79.6274 76.915L81.3351 67.5674Z" fill="black"/>
<path d="M92.513 69.5639L99.1904 70.7566L98.845 72.6472L94.5731 71.8841L94.2517 73.6434L98.2475 74.3571L97.9022 76.2476L93.9063 75.5339L93.5561 77.4507L97.828 78.2137L97.4826 80.1042L90.8053 78.9115L92.513 69.5639Z" fill="black"/>
<path d="M108.696 72.4544L106.988 81.802L105.161 81.4757L101.884 75.4134L100.915 80.7173L98.6149 80.3065L100.323 70.9589L102.123 71.2805L105.405 77.3166L106.369 72.0389L108.696 72.4544Z" fill="black"/>
<path d="M110.263 72.7344L114.088 73.4176C115.122 73.6023 115.977 73.9493 116.653 74.4587C117.34 74.961 117.816 75.5974 118.083 76.368C118.358 77.1402 118.407 78.0077 118.232 78.9705C118.054 79.942 117.703 80.747 117.18 81.3855C116.657 82.0153 115.985 82.451 115.163 82.6928C114.351 82.9273 113.423 82.9515 112.38 82.7652L108.555 82.082L110.263 72.7344ZM112.569 80.7654C113.481 80.9282 114.201 80.8263 114.729 80.4597C115.268 80.086 115.62 79.444 115.787 78.5338C116.114 76.7395 115.371 75.6804 113.557 75.3564L112.374 75.1451L111.386 80.5541L112.569 80.7654Z" fill="black"/>
<path d="M122.071 84.6181C121.37 84.4929 120.694 84.2773 120.044 83.9715C119.394 83.6656 118.884 83.3167 118.512 82.925L119.606 81.3174C120.009 81.6876 120.45 81.9969 120.93 82.2452C121.42 82.4863 121.923 82.6531 122.44 82.7454C122.966 82.8393 123.382 82.8413 123.688 82.7514C123.995 82.6526 124.173 82.472 124.221 82.2094C124.264 81.9731 124.172 81.7579 123.945 81.5637C123.72 81.3607 123.271 81.1223 122.597 80.8483C121.744 80.5151 121.095 80.1778 120.651 79.8364C120.208 79.4861 119.918 79.118 119.78 78.7319C119.651 78.3473 119.632 77.9056 119.724 77.4067C119.827 76.8378 120.083 76.3548 120.49 75.9576C120.899 75.5516 121.421 75.2741 122.054 75.1252C122.689 74.9675 123.384 74.9559 124.137 75.0905C124.812 75.2111 125.447 75.4239 126.043 75.7292C126.649 76.0272 127.104 76.3615 127.407 76.732L126.326 78.342C125.967 77.9796 125.573 77.6833 125.144 77.4531C124.717 77.2142 124.276 77.054 123.821 76.9726C123.374 76.8928 122.998 76.9162 122.695 77.0427C122.393 77.1605 122.215 77.3638 122.163 77.6526C122.134 77.8101 122.158 77.95 122.235 78.0723C122.312 78.1945 122.473 78.3316 122.717 78.4836C122.962 78.6269 123.337 78.8023 123.842 79.01C124.658 79.3456 125.284 79.6878 125.718 80.0364C126.162 80.3779 126.453 80.7417 126.59 81.1278C126.73 81.5051 126.755 81.9345 126.667 82.4159C126.501 83.3261 126.015 83.9805 125.209 84.3788C124.405 84.7684 123.359 84.8482 122.071 84.6181Z" fill="black"/>
<path fill-rule="evenodd" clip-rule="evenodd" d="M93.2224 36.9827L91.8894 33.3217C91.741 32.9145 91.5687 32.5123 91.3776 32.128C90.6552 30.6722 90.2093 29.0596 90.0535 27.3351C90.0234 27.01 89.9835 26.6764 89.935 26.3331C89.8592 25.7899 89.4861 25.3611 88.961 25.2135C88.4261 25.0621 87.8679 25.2389 87.5048 25.6737C87.2558 25.9735 86.992 26.2723 86.7204 26.5524C86.4778 26.8021 86.1078 26.8758 85.7905 26.7313C82.859 25.3864 79.5625 25.2832 76.5104 26.4389C73.4593 27.5933 71.0286 29.8641 69.6648 32.8326C69.52 33.1497 69.1903 33.3435 68.8454 33.3154C68.4625 33.2832 68.0717 33.2324 67.6909 33.1713C67.1391 33.0832 66.6033 33.3201 66.2933 33.7916C65.9903 34.2529 65.9819 34.8265 66.272 35.2881C66.4539 35.5784 66.6366 35.8561 66.8209 36.1205C67.8072 37.5346 68.501 39.0524 68.8826 40.6326C68.9848 41.0532 69.1121 41.4749 69.2612 41.8861L70.6889 45.8048L70.603 45.7597C70.1459 46.626 69.7313 47.7888 69.3699 49.2159C69.1317 50.1593 68.9764 51.0014 68.8911 51.7531C65.6649 49.6677 63.0768 46.5733 61.6667 42.7033C59.9594 38.0135 60.213 32.9009 62.3807 28.3077C64.5492 23.7101 68.375 20.1836 73.1524 18.3757C77.9291 16.5669 83.0868 16.6952 87.6713 18.7362C92.2546 20.7754 95.7186 24.4809 97.4261 29.17C97.9186 30.5221 98.2357 31.8991 98.4002 33.2762L93.2224 36.9827ZM96.0646 44.7887L93.4832 37.6994L98.4818 34.1209C98.7541 37.8571 97.876 41.5633 96.0646 44.7887ZM85.9405 53.4975C83.1832 54.5408 80.3456 54.9123 77.6111 54.696C75.0558 52.7501 73.0415 50.1113 71.9011 46.9799L69.9508 41.6251C69.8112 41.2403 69.692 40.8454 69.5965 40.4508C69.1923 38.7812 68.4616 37.1797 67.4228 35.6908C67.2444 35.4357 67.0696 35.1683 66.8933 34.888C66.7574 34.6714 66.7618 34.4136 66.9042 34.1968C67.0535 33.9699 67.3018 33.8595 67.5697 33.9026C67.9679 33.9666 68.3769 34.0197 68.7789 34.0535C69.4318 34.1074 70.0558 33.7393 70.3308 33.1388C71.6114 30.3496 73.8955 28.2168 76.7627 27.1317C78.6777 26.4067 80.6942 26.2096 82.6435 26.5342C83.6134 26.6957 84.5662 26.9866 85.482 27.4058C86.0736 27.6765 86.7831 27.5413 87.2431 27.067C87.5276 26.7732 87.8049 26.4601 88.0661 26.1459C88.2401 25.9359 88.4976 25.854 88.7574 25.9266C89.0037 25.9954 89.1727 26.1889 89.2084 26.4428C89.2545 26.7744 89.2932 27.0972 89.3224 27.4102C89.4871 29.2256 89.9572 30.9264 90.7205 32.4642C90.9 32.8247 91.0612 33.201 91.2006 33.5827L95.5787 45.6066C93.3926 49.0882 90.0849 51.9292 85.9405 53.4975ZM69.5822 52.177C69.6484 51.3846 69.8132 50.4531 70.0813 49.393C70.3577 48.3019 70.6642 47.3857 70.9942 46.6433L71.2116 47.2409C72.2582 50.1146 74.0072 52.5921 76.2237 54.5304C73.8657 54.1678 71.6119 53.3664 69.5822 52.177ZM87.9731 18.0582C83.2102 15.9387 77.8583 15.8058 72.9001 17.6828C67.9413 19.559 63.97 23.2213 61.7183 27.9945C59.4647 32.7703 59.2019 38.0865 60.9772 42.9643C62.4926 47.1246 65.3148 50.4233 68.8266 52.5915L69.2451 52.8348C71.2752 54.0183 73.5168 54.8387 75.8661 55.2299C79.2094 55.7858 82.762 55.4883 86.1929 54.1897C96.4317 50.3143 101.78 38.9735 98.115 28.9089C96.3395 24.0318 92.7373 20.1786 87.9731 18.0582Z" fill="black"/>
<path fill-rule="evenodd" clip-rule="evenodd" d="M84.1047 46.5016C80.1905 47.9712 77.4575 48.0246 75.5065 46.6703C73.6876 45.4069 72.7039 43.0312 71.7757 40.5007C70.8943 38.0974 72.1608 35.3964 74.5989 34.4804C75.4002 34.1796 76.2457 34.1066 77.0501 34.2405C78.1082 34.4167 79.0941 34.9505 79.8109 35.7921L80.453 36.5448L80.4535 35.5502C80.4547 33.5945 81.7021 31.8115 83.5571 31.1139C84.7393 30.6701 86.0175 30.7056 87.1543 31.217C88.2906 31.7268 89.1511 32.648 89.5775 33.8109C91.3841 38.736 92.3239 43.4128 84.1047 46.5016ZM87.4568 30.5489C86.1426 29.9604 84.67 29.9171 83.306 30.4293C81.4275 31.1349 80.0891 32.807 79.7885 34.7336C78.3178 33.4733 76.2249 33.09 74.3478 33.7958C71.5321 34.8531 70.0713 37.9767 71.0906 40.7577C72.0614 43.4008 73.0964 45.8897 75.0882 47.2731C75.8279 47.786 76.6575 48.1208 77.5956 48.277C79.4057 48.5784 81.6175 48.2148 84.356 47.1855C93.2002 43.8623 92.1238 38.6291 90.2619 33.5537C89.7678 32.2059 88.7714 31.1389 87.4568 30.5489Z" fill="black"/>
<path fill-rule="evenodd" clip-rule="evenodd" d="M83.2285 43.2575C82.9276 43.3698 82.6062 43.3163 82.372 43.1133L80.5425 41.5455C80.463 41.4771 80.4372 41.3648 80.4787 41.2714L81.4799 39.0036C81.5128 38.9286 81.5762 38.8947 81.6106 38.8821C81.6367 38.8727 81.6801 38.8615 81.7323 38.8702C81.7502 38.8732 81.7699 38.8787 81.7907 38.8876L84.0213 39.9499C84.1135 39.9936 84.1662 40.0966 84.1507 40.1998L83.7839 42.5878C83.737 42.8948 83.5295 43.1452 83.2285 43.2575ZM84.3501 39.2685L82.1195 38.2061C81.8783 38.0924 81.5993 38.082 81.3485 38.1751C81.0982 38.269 80.8931 38.4616 80.7868 38.7036L79.7866 40.97C79.6119 41.3638 79.7189 41.8366 80.0476 42.1189L81.877 43.6867C82.1019 43.8812 82.3678 44.0028 82.6475 44.0494C82.9226 44.0952 83.2112 44.0682 83.4899 43.9644C84.0532 43.7549 84.4427 43.2812 84.5322 42.697L84.899 40.3091C84.9645 39.8818 84.7385 39.4535 84.3501 39.2685Z" fill="black"/>
<path fill-rule="evenodd" clip-rule="evenodd" d="M84.3578 35.0936C83.633 35.3514 83.2821 36.1708 83.5745 36.9245C83.8663 37.6772 84.6897 38.0784 85.4153 37.8207C86.1399 37.5636 86.4908 36.7443 86.1984 35.9906C85.9074 35.238 85.0825 34.8358 84.3578 35.0936Z" fill="black"/>
<path fill-rule="evenodd" clip-rule="evenodd" d="M76.5826 38.1434C75.8575 38.4016 75.5069 39.2202 75.799 39.9739C76.0904 40.7266 76.9146 41.1285 77.6397 40.8703C78.3646 40.6129 78.7154 39.7936 78.4232 39.0406C78.1311 38.2869 77.3067 37.8859 76.5826 38.1434Z" fill="black"/>
<path fill-rule="evenodd" clip-rule="evenodd" d="M100.393 39.2036C98.397 50.8472 87.3321 58.7133 75.679 56.773C64.026 54.8327 56.1975 43.8208 58.1937 32.1772C60.1899 20.5336 71.2547 12.6675 82.9078 14.6078C94.5608 16.5481 102.389 27.56 100.393 39.2036ZM102.35 39.6241C100.125 52.3058 88.053 60.8608 75.3411 58.7442C62.6547 56.6319 54.1137 44.6871 56.1926 32.0173L20.6455 26.1556C18.826 25.8555 17.1044 27.0786 16.8004 28.8873L8.26618 79.6504C7.9621 81.4592 9.19062 83.1687 11.0102 83.4687L130.04 103.097C131.86 103.397 133.581 102.174 133.885 100.365L142.419 49.6018C142.723 47.7931 141.495 46.0836 139.675 45.7835L102.35 39.6241ZM102.58 37.979C103.844 25.8345 95.4689 14.6717 83.2457 12.6365C70.9967 10.597 59.342 18.4661 56.5186 30.3881L20.9208 24.518C18.1915 24.068 15.6092 25.9026 15.1531 28.6157L6.6189 79.3788C6.16278 82.0919 8.00555 84.6562 10.7349 85.1063L129.765 104.734C132.494 105.184 135.076 103.35 135.532 100.637L144.067 49.8735C144.523 47.1603 142.68 44.5961 139.951 44.146L102.58 37.979Z" fill="black"/>
</g>
<defs>
<clipPath id="clip0">
<rect width="140" height="90" fill="white" transform="translate(14.7822) rotate(9.45324)"/>
</clipPath>
</defs>
</svg>
