<svg xmlns="http://www.w3.org/2000/svg" width="50" height="50" viewBox="0 0 50 50">
    <g fill="none" fill-rule="evenodd">
        <g>
            <g>
                <g>
                    <g>
                        <g>
                            <g transform="translate(-25 -362) translate(0 151) translate(25 68) translate(0 135) translate(0 8) translate(32)">
                                <circle cx="9" cy="9" r="9" fill="#D0021B"/>
                                <path fill="#FFF" fill-rule="nonzero" d="M9.847 11.345l.364-4.285V4H8.158v3.06l.347 4.285h1.342zm-.663 3.55c.327 0 .605-.112.837-.337.232-.224.347-.495.347-.81 0-.317-.115-.587-.347-.812-.232-.224-.51-.337-.837-.337-.337 0-.618.113-.845.337-.226.225-.339.495-.339.811 0 .316.116.587.347.811.232.225.51.337.837.337z"/>
                            </g>
                            <path fill="#D0021B" fill-rule="nonzero" d="M12.199 10.684c2.53.645 4.415 2.33 5.618 4.967 2.094-.86 4.357-.98 6.752-.37 2.462.628 4.312 2.24 5.518 4.755 2.127-.525 4.222-.324 6.245.6 1.743.797 3.05 1.861 3.888 3.19l.548-2.721c.115-.57.643-.95 1.21-.891l.106.016c.569.115.95.643.89 1.21l-.016.106-1.18 5.86c-.104.513-.549.881-1.064.896l-.104-.002-5.921-.384c-.616-.04-1.083-.571-1.043-1.187.038-.58.51-1.027 1.08-1.044l.107.001 3.988.26c-.052-.072-.097-.15-.133-.236-.522-1.258-1.597-2.27-3.285-3.041-1.628-.744-3.275-.88-4.987-.41-.126.165-.297.296-.505.373-.58.212-1.221-.086-1.433-.665-.925-2.527-2.396-3.994-4.462-4.52-2.186-.558-4.162-.37-5.98.559-.247.126-.52.151-.77.09-.495.05-.98-.238-1.158-.727-.925-2.527-2.396-3.994-4.462-4.52-2.186-.558-4.162-.37-5.98.559-.55.28-1.222.062-1.503-.487-.28-.55-.062-1.222.487-1.503 2.313-1.181 4.847-1.424 7.549-.734z" transform="translate(-25 -362) translate(0 151) translate(25 68) translate(0 135) translate(0 8)"/>
                            <g>
                                <path fill="#00A7A7" fill-rule="nonzero" d="M12.017 3.022H.983c-.543 0-.983.448-.983 1V7.79c0 .324.154.627.413.815 1.862 1.349 3.9 2.03 6.087 2.03 2.188 0 4.225-.681 6.087-2.03.26-.188.413-.491.413-.815V4.022c0-.552-.44-1-.983-1zm-.984 2v2.235l-.166.11C9.5 8.214 8.052 8.634 6.5 8.634l-.33-.006C4.741 8.573 3.4 8.155 2.132 7.366l-.168-.109V5.022h9.068z" transform="translate(-25 -362) translate(0 151) translate(25 68) translate(0 135) translate(0 8) translate(33 37.506)"/>
                                <path fill="#FFF" d="M6.574 1.221c2.986 0 5.406 1.343 5.406 3v3.357C10.317 8.673 8.515 9.22 6.574 9.22c-1.94 0-3.743-.548-5.406-1.643V4.22l.006-.145c.137-1.59 2.502-2.855 5.4-2.855z" transform="translate(-25 -362) translate(0 151) translate(25 68) translate(0 135) translate(0 8) translate(33 37.506)"/>
                                <path fill="#00A7A7" fill-rule="nonzero" d="M6.5 0C2.982 0 0 1.634 0 4.022c0 2.389 2.982 4.023 6.5 4.023S13 6.41 13 4.022C13 1.634 10.018 0 6.5 0zm0 2c2.576 0 4.534 1.073 4.534 2.022 0 .95-1.958 2.023-4.534 2.023-2.576 0-4.534-1.073-4.534-2.023C1.966 3.072 3.924 2 6.5 2z" transform="translate(-25 -362) translate(0 151) translate(25 68) translate(0 135) translate(0 8) translate(33 37.506)"/>
                            </g>
                            <g>
                                <path fill="#00A7A7" fill-rule="nonzero" d="M12.017 3.022H.983c-.543 0-.983.448-.983 1V7.79c0 .324.154.627.413.815 1.862 1.349 3.9 2.03 6.087 2.03 2.188 0 4.225-.681 6.087-2.03.26-.188.413-.491.413-.815V4.022c0-.552-.44-1-.983-1zm-.984 2v2.235l-.166.11C9.5 8.214 8.052 8.634 6.5 8.634l-.33-.006C4.741 8.573 3.4 8.155 2.132 7.366l-.168-.109V5.022h9.068z" transform="translate(-25 -362) translate(0 151) translate(25 68) translate(0 135) translate(0 8) translate(33 30.87)"/>
                                <path fill="#FFF" d="M6.574 1.13c2.986 0 5.406 1.342 5.406 3v3.356c-1.663 1.096-3.465 1.643-5.406 1.643-1.94 0-3.743-.547-5.406-1.643V4.129l.006-.145c.137-1.59 2.502-2.855 5.4-2.855z" transform="translate(-25 -362) translate(0 151) translate(25 68) translate(0 135) translate(0 8) translate(33 30.87)"/>
                                <path fill="#00A7A7" fill-rule="nonzero" d="M6.5 0C2.982 0 0 1.634 0 4.022c0 2.389 2.982 4.023 6.5 4.023S13 6.41 13 4.022C13 1.634 10.018 0 6.5 0zm0 2c2.576 0 4.534 1.073 4.534 2.022 0 .95-1.958 2.023-4.534 2.023-2.576 0-4.534-1.073-4.534-2.023C1.966 3.072 3.924 2 6.5 2z" transform="translate(-25 -362) translate(0 151) translate(25 68) translate(0 135) translate(0 8) translate(33 30.87)"/>
                            </g>
                            <g>
                                <path fill="#00A7A7" fill-rule="nonzero" d="M12.017 3.022H.983c-.543 0-.983.448-.983 1V7.79c0 .324.154.627.413.815 1.862 1.349 3.9 2.03 6.087 2.03 2.188 0 4.225-.681 6.087-2.03.26-.188.413-.491.413-.815V4.022c0-.552-.44-1-.983-1zm-.984 2v2.235l-.166.11C9.5 8.214 8.052 8.634 6.5 8.634l-.33-.006C4.741 8.573 3.4 8.155 2.132 7.366l-.168-.109V5.022h9.068z" transform="translate(-25 -362) translate(0 151) translate(25 68) translate(0 135) translate(0 8) translate(18 37.506)"/>
                                <path fill="#FFF" d="M6.574 1.221c2.986 0 5.406 1.343 5.406 3v3.357C10.317 8.673 8.515 9.22 6.574 9.22c-1.94 0-3.743-.548-5.406-1.643V4.22l.006-.145c.137-1.59 2.502-2.855 5.4-2.855z" transform="translate(-25 -362) translate(0 151) translate(25 68) translate(0 135) translate(0 8) translate(18 37.506)"/>
                                <path fill="#00A7A7" fill-rule="nonzero" d="M6.5 0C2.982 0 0 1.634 0 4.022c0 2.389 2.982 4.023 6.5 4.023S13 6.41 13 4.022C13 1.634 10.018 0 6.5 0zm0 2c2.576 0 4.534 1.073 4.534 2.022 0 .95-1.958 2.023-4.534 2.023-2.576 0-4.534-1.073-4.534-2.023C1.966 3.072 3.924 2 6.5 2z" transform="translate(-25 -362) translate(0 151) translate(25 68) translate(0 135) translate(0 8) translate(18 37.506)"/>
                            </g>
                            <g>
                                <path fill="#00A7A7" fill-rule="nonzero" d="M12.017 3.022H.983c-.543 0-.983.448-.983 1V7.79c0 .324.154.627.413.815 1.862 1.349 3.9 2.03 6.087 2.03 2.188 0 4.225-.681 6.087-2.03.26-.188.413-.491.413-.815V4.022c0-.552-.44-1-.983-1zm-.984 2v2.235l-.166.11C9.5 8.214 8.052 8.634 6.5 8.634l-.33-.006C4.741 8.573 3.4 8.155 2.132 7.366l-.168-.109V5.022h9.068z" transform="translate(-25 -362) translate(0 151) translate(25 68) translate(0 135) translate(0 8) translate(18 30.87)"/>
                                <path fill="#FFF" d="M6.574 1.13c2.986 0 5.406 1.342 5.406 3v3.356c-1.663 1.096-3.465 1.643-5.406 1.643-1.94 0-3.743-.547-5.406-1.643V4.129l.006-.145c.137-1.59 2.502-2.855 5.4-2.855z" transform="translate(-25 -362) translate(0 151) translate(25 68) translate(0 135) translate(0 8) translate(18 30.87)"/>
                                <path fill="#00A7A7" fill-rule="nonzero" d="M6.5 0C2.982 0 0 1.634 0 4.022c0 2.389 2.982 4.023 6.5 4.023S13 6.41 13 4.022C13 1.634 10.018 0 6.5 0zm0 2c2.576 0 4.534 1.073 4.534 2.022 0 .95-1.958 2.023-4.534 2.023-2.576 0-4.534-1.073-4.534-2.023C1.966 3.072 3.924 2 6.5 2z" transform="translate(-25 -362) translate(0 151) translate(25 68) translate(0 135) translate(0 8) translate(18 30.87)"/>
                            </g>
                            <g>
                                <path fill="#00A7A7" fill-rule="nonzero" d="M12.017 3.022H.983c-.543 0-.983.448-.983 1V7.79c0 .324.154.627.413.815 1.862 1.349 3.9 2.03 6.087 2.03 2.188 0 4.225-.681 6.087-2.03.26-.188.413-.491.413-.815V4.022c0-.552-.44-1-.983-1zm-.984 2v2.235l-.166.11C9.5 8.214 8.052 8.634 6.5 8.634l-.33-.006C4.741 8.573 3.4 8.155 2.132 7.366l-.168-.109V5.022h9.068z" transform="translate(-25 -362) translate(0 151) translate(25 68) translate(0 135) translate(0 8) translate(18 24)"/>
                                <path fill="#FFF" d="M6.574 1.13c2.986 0 5.406 1.342 5.406 3v3.356c-1.663 1.096-3.465 1.643-5.406 1.643-1.94 0-3.743-.547-5.406-1.643V4.129l.006-.145c.137-1.59 2.502-2.855 5.4-2.855z" transform="translate(-25 -362) translate(0 151) translate(25 68) translate(0 135) translate(0 8) translate(18 24)"/>
                                <path fill="#00A7A7" fill-rule="nonzero" d="M6.5 0C2.982 0 0 1.634 0 4.022c0 2.389 2.982 4.023 6.5 4.023S13 6.41 13 4.022C13 1.634 10.018 0 6.5 0zm0 2c2.576 0 4.534 1.073 4.534 2.022 0 .95-1.958 2.023-4.534 2.023-2.576 0-4.534-1.073-4.534-2.023C1.966 3.072 3.924 2 6.5 2z" transform="translate(-25 -362) translate(0 151) translate(25 68) translate(0 135) translate(0 8) translate(18 24)"/>
                            </g>
                            <g>
                                <path fill="#00A7A7" fill-rule="nonzero" d="M12.017 3.022H.983c-.543 0-.983.448-.983 1V7.79c0 .324.154.627.413.815 1.862 1.349 3.9 2.03 6.087 2.03 2.188 0 4.225-.681 6.087-2.03.26-.188.413-.491.413-.815V4.022c0-.552-.44-1-.983-1zm-.984 2v2.235l-.166.11C9.5 8.214 8.052 8.634 6.5 8.634l-.33-.006C4.741 8.573 3.4 8.155 2.132 7.366l-.168-.109V5.022h9.068z" transform="translate(-25 -362) translate(0 151) translate(25 68) translate(0 135) translate(0 8) translate(3 37.506)"/>
                                <path fill="#FFF" d="M6.574 1.221c2.986 0 5.406 1.343 5.406 3v3.357C10.317 8.673 8.515 9.22 6.574 9.22c-1.94 0-3.743-.548-5.406-1.643V4.22l.006-.145c.137-1.59 2.502-2.855 5.4-2.855z" transform="translate(-25 -362) translate(0 151) translate(25 68) translate(0 135) translate(0 8) translate(3 37.506)"/>
                                <path fill="#00A7A7" fill-rule="nonzero" d="M6.5 0C2.982 0 0 1.634 0 4.022c0 2.389 2.982 4.023 6.5 4.023S13 6.41 13 4.022C13 1.634 10.018 0 6.5 0zm0 2c2.576 0 4.534 1.073 4.534 2.022 0 .95-1.958 2.023-4.534 2.023-2.576 0-4.534-1.073-4.534-2.023C1.966 3.072 3.924 2 6.5 2z" transform="translate(-25 -362) translate(0 151) translate(25 68) translate(0 135) translate(0 8) translate(3 37.506)"/>
                            </g>
                            <g>
                                <path fill="#00A7A7" fill-rule="nonzero" d="M12.017 3.022H.983c-.543 0-.983.448-.983 1V7.79c0 .324.154.627.413.815 1.862 1.349 3.9 2.03 6.087 2.03 2.188 0 4.225-.681 6.087-2.03.26-.188.413-.491.413-.815V4.022c0-.552-.44-1-.983-1zm-.984 2v2.235l-.166.11C9.5 8.214 8.052 8.634 6.5 8.634l-.33-.006C4.741 8.573 3.4 8.155 2.132 7.366l-.168-.109V5.022h9.068z" transform="translate(-25 -362) translate(0 151) translate(25 68) translate(0 135) translate(0 8) translate(3 30.87)"/>
                                <path fill="#FFF" d="M6.574 1.13c2.986 0 5.406 1.342 5.406 3v3.356c-1.663 1.096-3.465 1.643-5.406 1.643-1.94 0-3.743-.547-5.406-1.643V4.129l.006-.145c.137-1.59 2.502-2.855 5.4-2.855z" transform="translate(-25 -362) translate(0 151) translate(25 68) translate(0 135) translate(0 8) translate(3 30.87)"/>
                                <path fill="#00A7A7" fill-rule="nonzero" d="M6.5 0C2.982 0 0 1.634 0 4.022c0 2.389 2.982 4.023 6.5 4.023S13 6.41 13 4.022C13 1.634 10.018 0 6.5 0zm0 2c2.576 0 4.534 1.073 4.534 2.022 0 .95-1.958 2.023-4.534 2.023-2.576 0-4.534-1.073-4.534-2.023C1.966 3.072 3.924 2 6.5 2z" transform="translate(-25 -362) translate(0 151) translate(25 68) translate(0 135) translate(0 8) translate(3 30.87)"/>
                            </g>
                            <g>
                                <path fill="#00A7A7" fill-rule="nonzero" d="M12.017 3.022H.983c-.543 0-.983.448-.983 1V7.79c0 .324.154.627.413.815 1.862 1.349 3.9 2.03 6.087 2.03 2.188 0 4.225-.681 6.087-2.03.26-.188.413-.491.413-.815V4.022c0-.552-.44-1-.983-1zm-.984 2v2.235l-.166.11C9.5 8.214 8.052 8.634 6.5 8.634l-.33-.006C4.741 8.573 3.4 8.155 2.132 7.366l-.168-.109V5.022h9.068z" transform="translate(-25 -362) translate(0 151) translate(25 68) translate(0 135) translate(0 8) translate(3 24)"/>
                                <path fill="#FFF" d="M6.574 1.221c2.986 0 5.406 1.343 5.406 3v3.357C10.317 8.673 8.515 9.22 6.574 9.22c-1.94 0-3.743-.548-5.406-1.643V4.22l.006-.145c.137-1.59 2.502-2.855 5.4-2.855z" transform="translate(-25 -362) translate(0 151) translate(25 68) translate(0 135) translate(0 8) translate(3 24)"/>
                                <path fill="#00A7A7" fill-rule="nonzero" d="M6.5 0C2.982 0 0 1.634 0 4.022c0 2.389 2.982 4.023 6.5 4.023S13 6.41 13 4.022C13 1.634 10.018 0 6.5 0zm0 2c2.576 0 4.534 1.073 4.534 2.022 0 .95-1.958 2.023-4.534 2.023-2.576 0-4.534-1.073-4.534-2.023C1.966 3.072 3.924 2 6.5 2z" transform="translate(-25 -362) translate(0 151) translate(25 68) translate(0 135) translate(0 8) translate(3 24)"/>
                            </g>
                            <g>
                                <path fill="#00A7A7" fill-rule="nonzero" d="M12.017 3.022H.983c-.543 0-.983.448-.983 1V7.79c0 .324.154.627.413.815 1.862 1.349 3.9 2.03 6.087 2.03 2.188 0 4.225-.681 6.087-2.03.26-.188.413-.491.413-.815V4.022c0-.552-.44-1-.983-1zm-.984 2v2.235l-.166.11C9.5 8.214 8.052 8.634 6.5 8.634l-.33-.006C4.741 8.573 3.4 8.155 2.132 7.366l-.168-.109V5.022h9.068z" transform="translate(-25 -362) translate(0 151) translate(25 68) translate(0 135) translate(0 8) translate(3 16.87)"/>
                                <path fill="#FFF" d="M6.574 1.13c2.986 0 5.406 1.342 5.406 3v3.356c-1.663 1.096-3.465 1.643-5.406 1.643-1.94 0-3.743-.547-5.406-1.643V4.129l.006-.145c.137-1.59 2.502-2.855 5.4-2.855z" transform="translate(-25 -362) translate(0 151) translate(25 68) translate(0 135) translate(0 8) translate(3 16.87)"/>
                                <path fill="#00A7A7" fill-rule="nonzero" d="M6.5 0C2.982 0 0 1.634 0 4.022c0 2.389 2.982 4.023 6.5 4.023S13 6.41 13 4.022C13 1.634 10.018 0 6.5 0zm0 2c2.576 0 4.534 1.073 4.534 2.022 0 .95-1.958 2.023-4.534 2.023-2.576 0-4.534-1.073-4.534-2.023C1.966 3.072 3.924 2 6.5 2z" transform="translate(-25 -362) translate(0 151) translate(25 68) translate(0 135) translate(0 8) translate(3 16.87)"/>
                            </g>
                        </g>
                    </g>
                </g>
            </g>
        </g>
    </g>
</svg>
