<?xml version="1.0" encoding="UTF-8"?>
<svg width="290px" height="292px" viewBox="0 0 290 292" version="1.1" xmlns="http://www.w3.org/2000/svg" xmlns:xlink="http://www.w3.org/1999/xlink">
    <!-- Generator: Sketch 54 (76480) - https://sketchapp.com -->
    <title>Group 8</title>
    <desc>Created with Sketch.</desc>
    <defs>
        <ellipse id="path-1" cx="144.207976" cy="145.685254" rx="144.076433" ry="145"></ellipse>
        <filter x="-17.2%" y="-16.9%" width="134.3%" height="134.3%" filterUnits="objectBoundingBox" id="filter-3">
            <feOffset dx="7" dy="2" in="SourceAlpha" result="shadowOffsetOuter1"></feOffset>
            <feGaussianBlur stdDeviation="4" in="shadowOffsetOuter1" result="shadowBlurOuter1"></feGaussianBlur>
            <feColorMatrix values="0 0 0 0 0   0 0 0 0 0   0 0 0 0 0  0 0 0 0.5 0" type="matrix" in="shadowBlurOuter1" result="shadowMatrixOuter1"></feColorMatrix>
            <feMerge>
                <feMergeNode in="shadowMatrixOuter1"></feMergeNode>
                <feMergeNode in="SourceGraphic"></feMergeNode>
            </feMerge>
        </filter>
    </defs>
    <g id="Symbols" stroke="none" stroke-width="1" fill="none" fill-rule="evenodd">
        <g id="graphics/existportfolio" transform="translate(-80.000000, -26.000000)">
            <g id="Group-8" transform="translate(80.000000, 26.000000)">
                <g id="Group-4">
                    <g id="Group-3" transform="translate(0.868457, 0.451208)">
                        <mask id="mask-2" fill="white">
                            <use xlink:href="#path-1"></use>
                        </mask>
                        <use id="Mask" stroke="#1E9191" fill="#008181" xlink:href="#path-1"></use>
                        <path d="M46.2451092,-38.8178265 C44.6251936,-40.3198813 44.5296486,-42.8507384 46.0317034,-44.4706539 C47.5337582,-46.0905695 50.0646153,-46.1861145 51.6845308,-44.6840597 L108.206732,7.72573612 C109.826647,9.22779093 109.922192,11.758648 108.420138,13.3785635 C106.918083,14.9984791 104.387226,15.0940241 102.76731,13.5919693 L46.2451092,-38.8178265 Z M131.739871,46.8739275 C130.119955,45.3718727 130.02441,42.8410156 131.526465,41.2211 C133.02852,39.6011845 135.559377,39.5056395 137.179292,41.0076943 L193.701493,93.4174901 C195.321409,94.9195449 195.416954,97.450402 193.914899,99.0703175 C192.412844,100.690233 189.881987,100.785778 188.262072,99.2837233 L131.739871,46.8739275 Z M223.017563,134.119298 C221.519229,132.49594 221.620581,129.965309 223.243939,128.466975 C224.867296,126.968641 227.397928,127.069993 228.896262,128.693351 L281.185575,185.345787 C282.683909,186.969145 282.582557,189.499776 280.959199,190.99811 C279.335841,192.496444 276.80521,192.395092 275.306876,190.771734 L223.017563,134.119298 Z M123.068098,-20.8178265 C121.448182,-22.3198813 121.352637,-24.8507384 122.854692,-26.4706539 C124.356747,-28.0905695 126.887604,-28.1861145 128.507519,-26.6840597 L185.02972,25.7257361 C186.649636,27.2277909 186.745181,29.758648 185.243126,31.3785635 C183.741071,32.9984791 181.210214,33.0940241 179.590299,31.5919693 L123.068098,-20.8178265 Z M208.562859,64.8739275 C206.942944,63.3718727 206.847399,60.8410156 208.349453,59.2211 C209.851508,57.6011845 212.382365,57.5056395 214.002281,59.0076943 L270.524482,111.41749 C272.144397,112.919545 272.239942,115.450402 270.737888,117.070318 C269.235833,118.690233 266.704976,118.785778 265.08506,117.283723 L208.562859,64.8739275 Z M299.840551,152.119298 C298.342217,150.49594 298.443569,147.965309 300.066927,146.466975 C301.690285,144.968641 304.220916,145.069993 305.71925,146.693351 L358.008564,203.345787 C359.506897,204.969145 359.405546,207.499776 357.782188,208.99811 C356.15883,210.496444 353.628199,210.395092 352.129865,208.771734 L299.840551,152.119298 Z M-10.7224534,17.8407101 C-12.2207873,16.2173522 -12.1194354,13.6867211 -10.4960776,12.1883872 C-8.87271977,10.6900533 -6.34208862,10.7914052 -4.84375471,12.414763 L47.4455588,69.0671995 C48.9438927,70.6905574 48.8425408,73.2211885 47.219183,74.7195224 C45.5958252,76.2178563 43.065194,76.1165044 41.5668601,74.4931466 L-10.7224534,17.8407101 Z M72.8755028,105.873927 C71.2555872,104.371873 71.1600422,101.841016 72.662097,100.2211 C74.1641518,98.6011845 76.6950089,98.5056395 78.3149245,100.007694 L134.837125,152.41749 C136.457041,153.919545 136.552586,156.450402 135.050531,158.070318 C133.548476,159.690233 131.017619,159.785778 129.397704,158.283723 L72.8755028,105.873927 Z M164.153195,193.119298 C162.654861,191.49594 162.756213,188.965309 164.379571,187.466975 C166.002929,185.968641 168.53356,186.069993 170.031894,187.693351 L222.321207,244.345787 C223.819541,245.969145 223.718189,248.499776 222.094831,249.99811 C220.471474,251.496444 217.940842,251.395092 216.442509,249.771734 L164.153195,193.119298 Z M64.2037299,38.1821735 C62.5838143,36.6801187 62.4882693,34.1492616 63.9903241,32.5293461 C65.4923789,30.9094305 68.0232359,30.8138855 69.6431515,32.3159403 L126.165353,84.7257361 C127.785268,86.2277909 127.880813,88.758648 126.378758,90.3785635 C124.876704,91.9984791 122.345846,92.0940241 120.725931,90.5919693 L64.2037299,38.1821735 Z M151.595297,121.532464 C150.096963,119.909106 150.198315,117.378475 151.821672,115.880141 C153.44503,114.381807 155.975661,114.483159 157.473995,116.106517 L209.763309,172.758954 C211.261643,174.382311 211.160291,176.912943 209.536933,178.411276 C207.913575,179.90961 205.382944,179.808258 203.88461,178.184901 L151.595297,121.532464 Z M240.976183,211.119298 C239.47785,209.49594 239.579202,206.965309 241.202559,205.466975 C242.825917,203.968641 245.356548,204.069993 246.854882,205.693351 L299.144196,262.345787 C300.64253,263.969145 300.541178,266.499776 298.91782,267.99811 C297.294462,269.496444 294.763831,269.395092 293.265497,267.771734 L240.976183,211.119298 Z M-78.4675345,83.1821735 C-80.0874501,81.6801187 -80.1829951,79.1492616 -78.6809403,77.5293461 C-77.1788855,75.9094305 -74.6480284,75.8138855 -73.0281129,77.3159403 L-16.5059118,129.725736 C-14.8859962,131.227791 -14.7904512,133.758648 -16.292506,135.378564 C-17.7945609,136.998479 -20.3254179,137.094024 -21.9453335,135.591969 L-78.4675345,83.1821735 Z M7.02722694,168.873927 C5.40731137,167.371873 5.31176636,164.841016 6.81382117,163.2211 C8.31587599,161.601184 10.846733,161.505639 12.4666486,163.007694 L68.9888496,215.41749 C70.6087652,216.919545 70.7043102,219.450402 69.2022554,221.070318 C67.7002006,222.690233 65.1693435,222.785778 63.549428,221.283723 L7.02722694,168.873927 Z M98.3049191,256.119298 C96.8065852,254.49594 96.9079371,251.965309 98.531295,250.466975 C100.154653,248.968641 102.685284,249.069993 104.183618,250.693351 L156.472931,307.345787 C157.971265,308.969145 157.869913,311.499776 156.246556,312.99811 C154.623198,314.496444 152.092567,314.395092 150.594233,312.771734 L98.3049191,256.119298 Z M-1.644546,100.182173 C-3.26446157,98.6801187 -3.36000659,96.1492616 -1.85795178,94.5293461 C-0.355896962,92.9094305 2.17496009,92.8138855 3.79487565,94.3159403 L60.3170767,146.725736 C61.9369923,148.227791 62.0325373,150.758648 60.5304825,152.378564 C59.0284276,153.998479 56.4975706,154.094024 54.877655,152.591969 L-1.644546,100.182173 Z M85.7470207,183.532464 C84.2486868,181.909106 84.3500387,179.378475 85.9733965,177.880141 C87.5967543,176.381807 90.1273855,176.483159 91.6257194,178.106517 L143.915033,234.758954 C145.413367,236.382311 145.312015,238.912943 143.688657,240.411276 C142.065299,241.90961 139.534668,241.808258 138.036334,240.184901 L85.7470207,183.532464 Z M173.231102,275.460761 C171.611187,273.958706 171.515642,271.427849 173.017697,269.807934 C174.519751,268.188018 177.050609,268.092473 178.670524,269.594528 L235.192725,322.004324 C236.812641,323.506379 236.908186,326.037236 235.406131,327.657151 C233.904076,329.277067 231.373219,329.372612 229.753303,327.870557 L173.231102,275.460761 Z" id="Combined-Shape" fill="#1E9191" fill-rule="nonzero" mask="url(#mask-2)"></path>
                    </g>
                </g>
                <g id="Group-5" transform="translate(37.000000, 36.000000)">
                    <g id="Group-7" transform="translate(0.000000, 25.377007)">
                        <g id="Group-6" transform="translate(0.000000, 0.875862)">
                            <path d="M129.44624,173.756884 C130.55081,173.756884 131.44624,174.652314 131.44624,175.756884 C131.44624,176.861453 130.55081,177.756884 129.44624,177.756884 C126.704521,177.756884 123.977436,177.629072 121.270806,177.375033 C120.17107,177.271814 119.363233,176.296626 119.466453,175.19689 C119.569672,174.097153 120.54486,173.289317 121.644596,173.392536 C124.227025,173.634918 126.829378,173.756884 129.44624,173.756884 Z M109.140059,171.238815 C110.210896,171.509708 110.859379,172.597394 110.588487,173.66823 C110.317595,174.739067 109.229909,175.38755 108.159072,175.116658 C105.508477,174.446131 102.89476,173.65063 100.324995,172.733401 C99.284706,172.36209 98.7423924,171.217761 99.1137039,170.177472 C99.4850154,169.137183 100.629344,168.594869 101.669633,168.966181 C104.120182,169.840858 106.612552,170.599426 109.140059,171.238815 Z M90.079585,163.793036 C91.0507735,164.319217 91.4115233,165.533075 90.8853422,166.504264 C90.3591611,167.475452 89.1453031,167.836202 88.1741146,167.310021 C85.7750914,166.010252 83.4373163,164.597893 81.1682058,163.078084 C80.25047,162.463402 80.0047969,161.221131 80.6194796,160.303395 C81.2341623,159.38566 82.4764329,159.139986 83.3941687,159.754669 C85.5596671,161.205081 87.7905031,162.552832 90.079585,163.793036 Z M73.3660954,151.873636 C74.1804816,152.619859 74.2357388,153.884983 73.4895158,154.699369 C72.7432927,155.513755 71.4781689,155.569012 70.6637827,154.822789 C68.652327,152.97969 66.7255874,151.043341 64.8902178,149.020416 C64.148013,148.202366 64.2094978,146.93753 65.0275479,146.195325 C65.8455979,145.45312 67.1104344,145.514605 67.8526391,146.332655 C69.6053936,148.264522 71.4453405,150.113646 73.3660954,151.873636 Z M60.0752766,136.36063 C60.6879454,137.279711 60.4395489,138.52144 59.5204675,139.134109 C58.6013861,139.746778 57.3596571,139.498381 56.7469883,138.5793 C55.2339872,136.309605 53.8250545,133.970103 52.5252334,131.56808 C51.9995442,130.596625 52.3609088,129.38295 53.3323637,128.857261 C54.3038186,128.331572 55.5174937,128.692936 56.0431829,129.664391 C57.2845977,131.958482 58.6302355,134.192884 60.0752766,136.36063 Z M50.8386136,118.041043 C51.2131793,119.080165 50.67445,120.226185 49.6353281,120.600751 C48.5962062,120.975317 47.450186,120.436587 47.0756203,119.397465 C46.1516396,116.834154 45.3444879,114.225792 44.6573307,111.579212 C44.3797445,110.510091 45.0214102,109.418369 46.0905311,109.140783 C47.1596521,108.863197 48.251374,109.504862 48.5289602,110.573983 C49.1852718,113.101762 49.9561612,115.592939 50.8386136,118.041043 Z M46.2530316,98.0191223 C46.3687788,99.1176106 45.5721098,100.101943 44.4736216,100.21769 C43.3751334,100.333437 42.3908011,99.5367683 42.2750539,98.43828 C41.9904217,95.7370042 41.8265468,93.0135957 41.7850116,90.2736443 C41.7682692,89.1692017 42.6500244,88.2603017 43.754467,88.2435593 C44.8589096,88.2268169 45.7678097,89.1085722 45.784552,90.2130148 C45.8242711,92.8331539 45.9809475,95.4369327 46.2530316,98.0191223 Z M46.519932,77.4884541 C46.3753762,78.5835237 45.3704613,79.3540674 44.2753917,79.2095116 C43.1803222,79.0649559 42.4097785,78.060041 42.5543342,76.9649714 C42.9125942,74.2510045 43.3931913,71.5637033 43.9938294,68.9093359 C44.2376112,67.832004 45.3085856,67.1562781 46.3859176,67.40006 C47.4632496,67.6438419 48.1389754,68.7148162 47.8951936,69.7921482 C47.3214006,72.3278802 46.8622463,74.8952821 46.519932,77.4884541 Z M51.6208097,57.6318665 C51.2191465,58.6608176 50.0594044,59.169335 49.0304533,58.7676718 C48.0015021,58.3660087 47.4929847,57.2062666 47.8946479,56.1773155 C48.8878687,53.6329556 49.9966778,51.1384876 51.2170044,48.701081 C51.711509,47.7133873 52.9130682,47.3135785 53.900762,47.8080832 C54.8884557,48.3025878 55.2882645,49.504147 54.7937598,50.4918408 C53.6283051,52.8196497 52.5693619,55.2019351 51.6208097,57.6318665 Z M61.3104307,39.5939534 C60.6743597,40.4969969 59.4266609,40.7134208 58.5236174,40.0773498 C57.620574,39.4412788 57.4041501,38.19358 58.040221,37.2905366 C59.6129081,35.0577595 61.2867803,32.8994566 63.0559355,30.8227492 C63.7722371,29.9819247 65.0345372,29.880979 65.8753617,30.5972807 C66.7161861,31.3135823 66.8171318,32.5758824 66.1008302,33.4167068 C64.4111675,35.4001028 62.8124825,37.4614586 61.3104307,39.5939534 Z M75.0508545,24.3803703 C74.2168362,25.1045852 72.9536386,25.0155719 72.2294237,24.1815536 C71.5052088,23.3475352 71.5942221,22.0843376 72.4282404,21.3601227 C74.4905949,19.5692895 76.6336503,17.8758577 78.8502459,16.2858371 C79.7477789,15.6420139 80.997295,15.8476862 81.6411182,16.7452192 C82.2849415,17.6427521 82.0792692,18.8922682 81.1817362,19.5360914 C79.0657742,21.0539249 77.0198581,22.6705977 75.0508545,24.3803703 Z M92.011219,12.9498868 C91.0265433,13.4503741 89.8225808,13.0578617 89.3220936,12.0731859 C88.8216064,11.0885102 89.2141188,9.88454774 90.1987945,9.38406053 C92.6336296,8.14649186 95.1252026,7.02443809 97.6661207,6.02212576 C98.6936359,5.6168033 99.8551803,6.12119017 100.260503,7.14870537 C100.665825,8.17622056 100.161438,9.33776499 99.1339231,9.74308745 C96.7104442,10.6990737 94.3338648,11.7693414 92.011219,12.9498868 Z M111.307508,6.00094524 C110.229716,6.24268751 109.160023,5.56493571 108.918281,4.48714424 C108.676538,3.40935277 109.35429,2.33965932 110.432082,2.09791706 C113.091135,1.50150701 115.782263,1.03041642 118.498914,0.687018387 C119.594763,0.548497667 120.595418,1.32456586 120.733939,2.4204152 C120.872459,3.51626455 120.096391,4.5169192 119.000542,4.65543992 C116.409596,4.9829481 113.843206,5.43220311 111.307508,6.00094524 Z M131.740203,4.03130805 C130.636046,4.0011351 129.765409,3.08157874 129.795582,1.97742142 C129.825755,0.873264111 130.745311,0.00262776206 131.849469,0.0328007112 C134.589243,0.107669644 137.312108,0.3105357 140.01207,0.639655446 C141.108524,0.773310799 141.889026,1.77051096 141.75537,2.86696435 C141.621715,3.96341773 140.624515,4.74391975 139.528062,4.6102644 C136.952431,4.29630047 134.354618,4.10275133 131.740203,4.03130805 Z M151.975559,7.11372956 C150.912734,6.81293505 150.294987,5.70750322 150.595781,4.64467848 C150.896576,3.58185373 152.002008,2.96410617 153.064832,3.26490068 C155.694241,4.00906063 158.284099,4.87718852 160.827246,5.86583073 C161.856759,6.26605144 162.366901,7.42507967 161.966681,8.45459274 C161.56646,9.48410581 160.407432,9.99424806 159.377918,9.59402735 C156.95263,8.65120223 154.482918,7.82334773 151.975559,7.11372956 Z M170.824786,15.0902143 C169.868548,14.5373293 169.541565,13.313943 170.09445,12.3577045 C170.647335,11.4014661 171.870721,11.0744835 172.82696,11.6273685 C175.188879,12.9930006 177.486815,14.4693532 179.713381,16.0510841 C180.613862,16.6907774 180.825272,17.9393354 180.185579,18.8398166 C179.545886,19.7402978 178.297328,19.9517082 177.396846,19.312015 C175.271738,17.8023586 173.078696,16.3933962 170.824786,15.0902143 Z M187.204818,27.4637766 C186.411049,26.6956586 186.390255,25.4294994 187.158373,24.6357309 C187.926491,23.8419623 189.192651,23.8211685 189.986419,24.5892865 C191.946489,26.4860168 193.819455,28.4734689 195.598815,30.5448515 C196.318566,31.3827252 196.222809,32.6454295 195.384935,33.3651804 C194.547062,34.0849314 193.284357,33.989174 192.564606,33.1513003 C190.865276,31.1730827 189.076601,29.2750737 187.204818,27.4637766 Z M200.066582,43.3265083 C199.478979,42.3912026 199.760848,41.1566413 200.696154,40.5690386 C201.63146,39.9814358 202.866021,40.2633048 203.453623,41.1986105 C204.904415,43.5078802 206.249365,45.8841728 207.483642,48.3202066 C207.982875,49.3055189 207.58883,50.5089806 206.603518,51.0082136 C205.618205,51.5074466 204.414744,51.1134015 203.915511,50.1280893 C202.736709,47.8015448 201.452194,45.5320313 200.066582,43.3265083 Z M208.80368,61.8875762 C208.457344,60.8387077 209.026859,59.707671 210.075727,59.361335 C211.124596,59.0149989 212.255633,59.5845141 212.601969,60.6333826 C213.456066,63.2199906 214.192442,65.8489361 214.808133,68.5134966 C215.056809,69.5897093 214.385959,70.6637443 213.309746,70.9124209 C212.233534,71.1610976 211.159499,70.4902471 210.910822,69.4140344 C210.322737,66.8689438 209.619414,64.358004 208.80368,61.8875762 Z M212.850888,82.0388905 C212.764497,80.9377047 213.58715,79.974983 214.688336,79.8885914 C215.789522,79.8021998 216.752243,80.6248531 216.838635,81.726039 C217.023908,84.0876102 217.117365,86.4643545 217.118033,88.8531925 C217.118037,89.2244248 217.116088,89.5736058 217.112085,89.9255993 C217.099525,91.0300973 216.19397,91.9152877 215.089472,91.9027273 C213.984974,91.8901669 213.099784,90.984612 213.112344,89.880114 C213.116173,89.5434313 213.118037,89.2094203 213.118033,88.8537711 C213.117394,86.5695241 213.028026,84.2967697 212.850888,82.0388905 Z M212.04047,102.548241 C212.214325,101.457439 213.239531,100.714107 214.330333,100.887962 C215.421135,101.061816 216.164467,102.087023 215.990612,103.177825 C215.559764,105.881058 215.006842,108.555158 214.334322,111.193713 C214.06151,112.264062 212.972663,112.910594 211.902314,112.637782 C210.831965,112.364969 210.185433,111.276122 210.458245,110.205773 C211.10065,107.685367 211.628849,105.130842 212.04047,102.548241 Z M206.403055,122.263901 C206.832533,121.246246 208.005666,120.769434 209.023322,121.198912 C210.040977,121.62839 210.517789,122.801523 210.088311,123.819179 C209.026256,126.335735 207.849842,128.799635 206.563354,131.203659 C206.042188,132.177548 204.830206,132.544552 203.856317,132.023386 C202.882428,131.50222 202.515424,130.290238 203.036591,129.316349 C204.265244,127.020398 205.388761,124.667287 206.403055,122.263901 Z M196.231538,140.026227 C196.891804,139.140719 198.1449,138.958124 199.030407,139.61839 C199.915915,140.278655 200.09851,141.531752 199.438244,142.417259 C197.805891,144.606471 196.074409,146.718518 194.249878,148.746355 C193.511077,149.567481 192.246507,149.634218 191.425382,148.895417 C190.604256,148.156616 190.537519,146.892046 191.27632,146.070921 C193.018832,144.134241 194.672514,142.117094 196.231538,140.026227 Z M182.123514,154.828741 C182.976532,154.127005 184.236909,154.249643 184.938645,155.102662 C185.640382,155.95568 185.517743,157.216057 184.664725,157.917793 C182.555153,159.653235 180.367372,161.288977 178.108622,162.819183 C177.194145,163.438702 175.950594,163.199591 175.331075,162.285113 C174.711556,161.370636 174.950667,160.127085 175.865144,159.507566 C178.021153,158.046963 180.10959,156.485498 182.123514,154.828741 Z M164.820413,165.818814 C165.818575,165.345797 167.011202,165.771511 167.48422,166.769673 C167.957237,167.767836 167.531523,168.960463 166.53336,169.43348 C164.065246,170.60309 161.543171,171.655594 158.974485,172.586979 C157.93607,172.9635 156.789038,172.426929 156.412517,171.388514 C156.035996,170.350099 156.572567,169.203067 157.610982,168.826546 C160.060762,167.938275 162.466233,166.934432 164.820413,165.818814 Z M145.332439,172.228136 C146.416577,172.016669 147.466872,172.724109 147.678339,173.808248 C147.889805,174.892386 147.182365,175.942681 146.098227,176.154147 C143.424595,176.675653 140.721526,177.071379 137.995425,177.339138 C136.896145,177.44711 135.917474,176.643497 135.809502,175.544217 C135.70153,174.444937 136.505144,173.466266 137.604424,173.358294 C140.204674,173.102896 142.782676,172.72548 145.332439,172.228136 Z" id="Oval-2" fill="#FFFFFF" fill-rule="nonzero"></path>
                            <path d="M129.44624,175.756884 C82.2281382,175.756884 43.7744433,136.967998 43.7744433,88.8784418 C43.7744433,40.7888859 82.2281382,2 129.44624,2 C176.664342,2 215.118037,40.7888859 215.118037,88.8784418 C215.118037,136.967998 176.664342,175.756884 129.44624,175.756884 Z" id="Oval-2" fill-opacity="0.5" fill="#FFFFFF" fill-rule="nonzero"></path>
                            <g id="Group-2" filter="url(#filter-3)" transform="translate(0.000000, 0.268657)">
                                <path d="M85.6234488,175.073275 C38.431994,175.073275 0,136.306279 0,88.2438618 C0,40.1814447 38.431994,1.41444885 85.6234488,1.41444885 C132.814904,1.41444885 171.246898,40.1814447 171.246898,88.2438618 C171.246898,136.306279 132.814904,175.073275 85.6234488,175.073275 Z" id="Oval-2-Copy" fill="#FF872F" fill-rule="nonzero"></path>
                                <g id="Group" transform="translate(38.609892, 63.493389)"></g>
                            </g>
                        </g>
                    </g>
                    <polygon id="Shape" stroke="#FF872F" stroke-width="3" fill="#FFFFFF" fill-rule="nonzero" points="64.7148894 136.670086 118.703704 81.3640141 133.817844 96.8469193 64.7148894 167.635896 28.2089552 130.239264 43.323095 114.756359"></polygon>
                    <path d="M165.567467,70.3927173 C163.59337,79.2012844 161.280579,84.8617552 158.629093,87.3741296 C155.977607,89.886504 150.601125,91.5118857 142.499646,92.2502748 C150.411522,94.2530994 155.781016,96.6680839 158.60813,99.4952285 C161.435244,102.322373 163.72847,107.974928 165.487808,116.452893 C167.402128,107.985378 169.714919,102.324908 172.426183,99.4714808 C175.137447,96.618054 180.515326,94.184599 188.559822,92.1711158 C180.749346,91.7338336 175.378454,90.1269223 172.447146,87.3503819 C169.515837,84.5738415 167.222611,78.9212866 165.567467,70.3927173 Z" id="Path-3-Copy-3" fill="#FFFFFF" transform="translate(165.529734, 93.422805) rotate(-208.000000) translate(-165.529734, -93.422805) "></path>
                    <path d="M64.1649057,8.35820896 C62.1908085,17.1667761 59.8780171,22.8272469 57.2265313,25.3396213 C54.5750456,27.8519957 49.1985633,29.4773774 41.0970846,30.2157665 C49.00896,32.218591 54.3784546,34.6335756 57.2055685,37.4607202 C60.0326823,40.2878648 62.3259084,45.9404197 64.0852468,54.4183848 C65.999566,45.95087 68.3123575,40.2903993 71.0236212,37.4369725 C73.7348849,34.5835457 79.1127647,32.1500907 87.1572605,30.1366075 C79.3467846,29.6993253 73.9758924,28.092414 71.0445841,25.3158736 C68.1132757,22.5393332 65.8200496,16.8867783 64.1649057,8.35820896 Z" id="Path-3-Copy-5" fill="#FFFFFF" transform="translate(64.127173, 31.388297) rotate(-208.000000) translate(-64.127173, -31.388297) "></path>
                </g>
            </g>
        </g>
    </g>
</svg>