<svg xmlns="http://www.w3.org/2000/svg" xmlns:xlink="http://www.w3.org/1999/xlink" width="450" height="345" viewBox="0 0 450 345">
    <defs>
        <filter id="a" width="162.5%" height="160%" x="-31.2%" y="-30%" filterUnits="objectBoundingBox">
            <feGaussianBlur in="SourceGraphic" stdDeviation="10"/>
        </filter>
        <path id="b" d="M.245.342h121.314v88.183H.245z"/>
    </defs>
    <g fill="none" fill-rule="evenodd">
        <path fill="#008486" d="M329.99 284.736c.843-6.243-47.484-18.73-134.411-21.434C108.65 260.6 12.97 276.71 47.074 284.736c20.956 4.932 81.273 10.498 148.505 10.256 74.427-.267 133.928-6.689 134.41-10.256z"/>
        <path fill="#FFF" d="M370.698 107.224L265.115 32.493c-21.77-8.975-38.645-3.552-50.628 16.269-87.167 122.722-86.5 197-86.5 206 0 6.865 65.547 29.573 103.232 37.817 11.716 2.564 23.154 4.305 26 3 4.36-1.997 10.965-23.078 13.768-40.817 4.913-31.095 17.659-79.183 62.523-127.663 13.51-16.163 25.907-22.788 37.188-19.875z"/>
        <path fill="#FFF" d="M370.56 107.046c-6.44-2.726-11.449-3.422-15.026-2.09-3.576 1.334-10.391 7.733-20.445 19.199 1.266 1.071 1.565 2.607.898 4.607-.666 2-1.585 3.06-2.757 3.18 6.886 6.498 14.248 6.763 22.084.797 7.836-5.965 12.918-14.53 15.246-25.693z"/>
        <path fill="#CDCDCD" d="M370.243 106.912c-1.688 3.773-5.455 8.04-11.3 12.8-5.846 4.76-12.887 5.68-21.124 2.764 2.896-4.28 7.15-7.543 12.762-9.79 5.611-2.247 12.166-4.172 19.662-5.774z"/>
        <path fill="#F6F4F2" d="M221.632 64.162l90.219 67.662c1.573 1.216 2.147 3.28 1.4 5.04-.534 1.256-2.63 2.118-3.94 1.562a2.682 2.682 0 0 1-.592-.347l-89.617-67.957c-1.574-1.216-2.147-3.28-1.4-5.04.533-1.255 2.028-1.823 3.338-1.267.212.09.41.207.592.347zm-8.385 11.922l89.985 67.574c1.579 1.215 2.158 3.27 1.416 5.017-.53 1.248-2.023 1.808-3.336 1.25a2.708 2.708 0 0 1-.593-.346l-89.985-67.574c-1.579-1.214-2.158-3.269-1.416-5.017.53-1.248 2.023-1.808 3.336-1.25.212.09.411.206.593.346zM205.09 87.85l89.683 66.714c1.574 1.221 2.143 3.3 1.389 5.076-.538 1.268-2.038 1.844-3.35 1.287a2.666 2.666 0 0 1-.593-.348l-89.683-66.714c-1.574-1.221-2.143-3.3-1.39-5.076.539-1.268 2.039-1.844 3.351-1.287.212.09.411.207.593.348z"/>
        <g opacity=".6">
            <path fill="#FFF" fill-opacity=".6" stroke="#00A7A7" stroke-width="2" d="M223.685 79.168l-.056-.043a3 3 0 0 0-4.205.566l-5.813 7.624a3 3 0 0 0 .51 4.161l7.417 5.937.056.043a3 3 0 0 0 4.204-.566l5.814-7.624a3 3 0 0 0-.51-4.161l-7.417-5.937z"/>
            <path fill="#46BE48" fill-rule="nonzero" d="M224.56 89.777l10.97-2.813.53 3.126-14.042 3.6-1.28-7.55 3.072-.787z"/>
        </g>
        <path fill="#F6F4F2" d="M194.72 99.58l95 70c-4.026 6.378-7.359 12.378-10 18-2.643 5.62-5.643 13.787-9 24.5-28.495-16.072-49.495-28.406-63-37a1605.834 1605.834 0 0 1-41-27c4.795-9.879 8.629-17.379 11.5-22.5 2.87-5.122 8.37-13.79 16.5-26zM156.22 189.58l103 60c-3.032 7.915-5.198 14.082-6.5 18.5-1.304 4.417-2.637 11.084-4 20-35.668-9.667-59.834-16.834-72.5-21.5-12.668-4.667-24.834-11.5-36.5-20.5-.06-12.77.94-21.937 3-27.5 2.058-5.564 6.558-15.23 13.5-29z"/>
        <path fill="#D7D7D7" d="M128.22 255.58c6 2.5 20.5 9.5 52.5 14 21.332 3 42.166 1.333 62.5-5-1 11 .166 18.833 3.5 23.5 3.332 4.666 6.832 7.166 10.5 7.5-8.796 4.49-21.296 4.99-37.5 1.5-10.257-2.21-36.568-14.803-58.5-21-25.412-7.18-33-16-33-20.5z"/>
        <path fill="#F6F4F2" d="M166.716 157.613l98.508 62.724a4.316 4.316 0 0 1 1.83 4.83 2.408 2.408 0 0 1-3.608 1.368l-98.508-62.724a4.316 4.316 0 0 1-1.83-4.83 2.408 2.408 0 0 1 3.608-1.368zM163.738 174.078l97.463 60.295a4.258 4.258 0 0 1 1.853 4.795 2.44 2.44 0 0 1-3.63 1.403l-97.463-60.295a4.258 4.258 0 0 1-1.853-4.795 2.44 2.44 0 0 1 3.63-1.403z"/>
        <g opacity=".6">
            <path fill="#FFF" fill-opacity=".6" stroke="#00A7A7" stroke-width="2" d="M192.977 125.37l-.028-.017a3 3 0 0 0-4.11 1.048l-5 8.422a3 3 0 0 0 1.02 4.095l8.176 4.972.028.017a3 3 0 0 0 4.11-1.049l5-8.421a3 3 0 0 0-1.02-4.095l-8.176-4.972z"/>
            <path fill="#46BE48" fill-rule="nonzero" d="M194.552 135.674l11.061-2.428.42 3.142-14.158 3.109-1.015-7.59 3.097-.68z"/>
        </g>
        <g>
            <path fill="#000" d="M131.632 120.02c25.946 0 46.979-23.145 46.979-51.697 0-28.551-20.426-52.463-46.298-46.719C107.12 13.18 82.61 39.772 82.61 68.324c0 28.551 23.075 51.697 49.021 51.697z" filter="url(#a)" opacity=".135" transform="rotate(32 -8.323 177.794)"/>
            <path fill="#FFA32C" d="M113.203 274.889c2.315 0 11.092.444 11.092-1.778s-5.575-2.222-8.334-2.222c-2.758 0-7.639.24-7.639 2.018 0 1.778 2.566 1.982 4.88 1.982z"/>
            <path stroke="#FFA32C" stroke-width="2" d="M110.097 262.889c1.664 2.038 2.7 3.668 3.106 4.889.406 1.22.406 3.146 0 5.778"/>
            <path fill="#FFA32C" d="M98.117 279.778c2.315 0 11.092.444 11.092-1.778s-5.575-2.222-8.333-2.222c-2.759 0-7.64.24-7.64 2.018 0 1.778 2.566 1.982 4.881 1.982z"/>
            <path stroke="#FFA32C" stroke-width="2" d="M95.011 266c1.48 2.074 2.515 4 3.106 5.778.592 1.778.444 3.852-.444 6.222"/>
            <path fill="#FFA32C" d="M151.214 189.895c5.566-22.626 30.614-24.993 47.435-37.602 5.455-4.09 13.53-18.175 15.127-17.102 7.78 5.229-2.917 28.814-9.69 34.45 2.423 5.45 2.503 11.418-5.881 18.47 4.094 9.213-11.497 22.828-46.775 40.846-.685-23.84-.757-36.861-.216-39.062z"/>
            <path fill="#00B9B9" d="M151.691 234.464c4.322-11.278 4.803-24.678 1.444-40.198-6.608-8.916-12.481-14.362-17.62-16.338-12.105-4.655-49.39-4.586-51.7-2.595-18.132 33.081-12.828 86.266-4.343 89.529 20.59 7.917 61.857-3.358 72.22-30.398z"/>
            <path d="M-159.723 92.267c19.71 6.31 35.501-10.021 51.32-10.021 34.586 0 19.71 36.024 66.94 51.241 7.333 2.363 60.004 15.18 103.552-4.162 57.82-25.68 104.917-69.334 112.516-79.593 19.19-25.91 65.506-102.59 13.388-102.59-37.933 0-10.785-13.733-41.28-16.702-30.495-2.97-36.063-15.076-70.75-30.564-22.091-9.863-108.172-4.541-164.284 26.852-32.037 17.925-38.993 54.37-57.27 76.089-31.883 37.884-37.558 81.95-14.132 89.45z"/>
            <g fill-rule="nonzero" transform="rotate(-62 169.461 41.037)">
                <path fill="#079C9C" d="M89.935 30.211c-1.05.07-.694-4.149-4.768-7.404-4.075-3.256-8.86-3.258-9.14-4.676 6.571-2.874 12.064-1.785 15.431-1.017 3.375.77 5.8 1.71 6.071 4.198.33 3.024-4.671 2.65-5.476 3.848-.956 1.423.361 4.888-2.118 5.051z"/>
                <ellipse cx="50.581" cy="54.667" fill="#00BCBC" rx="50.581" ry="48.444"/>
                <path fill="#FFA32C" d="M92.26 80.889c.038 6.143.038 9.499 0 10.067-.056.854-.976 2.403-1.844 3.098-.868.696-11.691 5.566-13.589 6.196-1.265.42-2.619.161-4.061-.775L92.26 80.89z"/>
                <path fill="#F5FFFF" d="M64.643 102.835c3.55-.824 9.075-3.159 15.28-8.094 6.864-5.458 13.191-12.522 15.678-19.656 1.502-4.312 1.496-13.454 0-17.344-3.558-9.25-10.973-13.297-20.417-13.297-6.901 0-16.205 4.665-20.75 10.407-4.602 5.814-9.102 12.718-10.273 18.5-1.172 5.78-.598 10.284.017 12.718 1.254 4.965 7.13 11.694 12.114 15.031 3.721 2.492 6.706 2.116 8.35 1.735z"/>
                <path fill="#00BCBC" d="M82.22 19.705c-.954.894-3.206-4.702-9.076-5.679-5.87-.977-10.418 2.697-11.555 1.123C66.068 6.474 71.955 3.627 75.626 2.01c3.68-1.622 6.544-2.218 8.14.789.645 1.214.71 14.796-1.545 16.907z"/>
            </g>
            <path fill="#008181" d="M115.326 191.69c18.926-4.727 22.298 14.155 19.68 28.31-2.616 14.154-19.88 26.435-30.567 30.569-10.294 3.982-21.12 5.853-28.669 3.69-4.821 2.173-11.614 2.734-16.82-1.962-6.172 2.73-16.775 1.198-17.317-.974-2.304-9.258 54.766-54.906 73.693-59.633zM146.035 138.428c-.467-.186-.627-.525-.48-1.017.737-2.458 2.525-7.443 4.03-8.744 2.809-2.426 9.465.559 9.762.889.07.077 1.488.738 1 .84-1.593.332-6.954-.284-9.182 1.102-1.94 1.207-3.65 3.517-5.13 6.93z"/>
        </g>
        <g>
            <path fill="#46BE48" d="M312.527 111.87h-.064a7.381 7.381 0 0 0-.248-2.947c-.862-2.887-3.448-5.106-6.484-5.461a7.797 7.797 0 0 0-6.374 2.144c-1.52-1.358-3.508-2.207-5.717-2.207-4.747 0-8.6 3.795-8.6 8.47v.044c-5.762.419-10.304 5.154-10.304 10.956 0 .88.124 1.725.328 2.559-6.875.28-12.34 5.833-12.34 12.665 0 2.315.625 4.475 1.724 6.343a9.221 9.221 0 0 0-3.448 7.187c0 2.639 1.06 6.727 2.865 8.42 7.734-6.231 15.947 12.887 25.513 29.518 3.179 5.521 37.51-.356 40.25 3.068 3.118-2.76 5.139-50.847 5.215-55.073.14-6.773-4.226-12.559-10.336-14.671-.437-6.158-5.637-11.015-11.98-11.015z"/>
            <path fill="#CEB475" d="M332.54 177.462l-43.865-22.35 13.97-27.416 33.107-10.757 11.402 33.753z"/>
            <path fill="#AE9454" d="M332.54 177.462l35.64 18.16 13.97-27.416-35.64-18.16z"/>
            <path fill="#C1A563" d="M372.508 138.257l-.997-3.098-35.76-18.22 10.95 33.205 35.448 18.062z"/>
            <path fill="#C7AB66" d="M303.754 162.794l13.708 6.985 9.778-19.191-13.708-6.985z"/>
            <path fill="#CBB06F" d="M356.676 143.14l-1.812-6.103 7.067 3.6 1.804 6.1z"/>
            <path fill="#E3E2E1" d="M299.48 177.24l4.903 4.114 2.728-3.25-4.903-4.115z"/>
            <path fill="#D7334D" stroke="#C91E39" stroke-width="2" d="M297.696 229.354l-52.12-43.734c-1.796-1.507-2.036-4.177-.537-5.964l30-35.752c1.499-1.787 4.169-2.013 5.965-.505l52.12 43.734c1.792 1.503 2.033 4.171.534 5.958l-30 35.752a4.233 4.233 0 0 1-5.962.511"/>
            <path fill="#B59F7C" d="M269.298 181.535a1.32 1.32 0 0 1 .168 1.855 1.32 1.32 0 0 1-1.857.158l-9.095-7.632a1.318 1.318 0 0 1-.168-1.856 1.32 1.32 0 0 1 1.857-.157l9.095 7.632zm13.304 12.878a1.314 1.314 0 0 1-1.856.158l-9.095-7.632a1.32 1.32 0 0 1-.168-1.856 1.32 1.32 0 0 1 1.857-.157l9.095 7.632c.563.472.632 1.301.167 1.855zm-25.605-14.635a1.313 1.313 0 0 1-1.689 2.013l-1.012-.849a1.318 1.318 0 0 1-.167-1.856 1.32 1.32 0 0 1 1.856-.157l1.012.85zm6.06 5.084a1.315 1.315 0 1 1-1.69 2.013l-2.017-1.693a1.318 1.318 0 0 1-.168-1.855 1.32 1.32 0 0 1 1.857-.158l2.017 1.693zm5.053 4.241a1.315 1.315 0 1 1-1.689 2.013l-1.005-.844a1.314 1.314 0 1 1 1.689-2.013l1.005.844zm6.066 5.09a1.32 1.32 0 0 1 .167 1.855 1.318 1.318 0 0 1-1.856.158l-2.018-1.693a1.314 1.314 0 1 1 1.69-2.013l2.017 1.693zm3.078 3.086c.674-.07 1.365.509 1.437 1.205.022.344-.088.695-.306.956a1.39 1.39 0 0 1-.893.473 1.425 1.425 0 0 1-.964-.316 1.415 1.415 0 0 1-.472-.89c-.02-.344.093-.7.311-.96s.545-.43.887-.468zm7.384-21.707l-4.042-3.391-1.47 1.751a2.956 2.956 0 0 1-.228.243l3.8 3.188a.336.336 0 0 0 .47-.04l1.47-1.751zm1.689-2.013l1.772-2.112c-.16-.022-.274-.06-.34-.116l-3.528-2.961a.337.337 0 0 0-.475.045l-1.47 1.753 4.04 3.391zm1.183 2.688a1.345 1.345 0 0 1-.02.023l-2.305 2.747a2.968 2.968 0 0 1-4.177.36l-13.636-11.442a2.97 2.97 0 0 1-.377-4.182l8.007-9.542c1.046-1.247 2.92-1.404 4.178-.348l13.636 11.442a2.965 2.965 0 0 1 .376 4.17l-5.682 6.772zm-15.332-14.56l4.041 3.391 1.69-2.013-4.042-3.391-1.69 2.013zm-1.69 2.013l-1.469 1.751a.33.33 0 0 0 .042.47l3.8 3.188c.06-.091.127-.18.2-.266l1.47-1.752-4.042-3.391zm5.063-6.033l4.041 3.391 1.475-1.758a2.95 2.95 0 0 1 .229-.243l-3.8-3.188a.335.335 0 0 0-.47.04l-1.475 1.758zm14.356 11.625l1.268-1.51a.34.34 0 0 0-.043-.47l-7.571-6.354a.342.342 0 0 0-.476.035l-8.007 9.543a.338.338 0 0 0 .048.474l1.506 1.264c.143.12.351.102.47-.04l4.63-5.517a2.97 2.97 0 0 1 4.183-.354l3.528 2.961a.34.34 0 0 0 .464-.032z"/>
            <path fill="#AD9875" d="M298.098 210.846c-2.796 3.332-7.777 3.754-11.128.943-3.35-2.811-3.8-7.79-1.003-11.122 2.797-3.334 7.777-3.754 11.127-.943 3.35 2.811 3.801 7.788 1.004 11.122"/>
            <path fill="#CFC393" d="M305.17 216.78c-2.797 3.332-7.777 3.755-11.122.948-3.352-2.813-3.8-7.79-1.004-11.122 2.798-3.334 7.776-3.756 11.128-.943 3.345 2.807 3.794 7.783.997 11.116"/>
            <path d="M268.217 166.928a1.65 1.65 0 0 1-.21-2.326l8.007-9.542a1.651 1.651 0 0 1 2.327-.197l13.636 11.442c.7.587.794 1.63.21 2.326l-8.007 9.542a1.652 1.652 0 0 1-2.327.197l-13.636-11.442z"/>
            <path fill="#CE5D00" d="M343.797 214.049c3.98-2.354 8.654-2.525 12.633-.17l2.15 1.255c3.98 2.34 9.21 2.652 13.19.314l4.894-2.098c.883-2.453 3.248-6.913 3.497-7.693 5.673-17.881 8.524-34.858 9.022-53.619.208-7.548-6.17-19.326-16.767-13.97-10.403 5.25-17.857 25.401-23.089 34.967-7.442 13.61-13.334 28.389-17.517 43.47 3.18.78 6.97.646 9.89-1.057l2.097-1.399z"/>
            <path fill="#FF7900" d="M266.67 215.897a14.979 14.979 0 0 0 15.148 0l1.045-.62a12.804 12.804 0 0 1 12.938 0l2.15 1.27a12.714 12.714 0 0 0 7.635 1.674c3.246-5.57 1.279-13.74-1.713-18.905-10.06-17.405-18.43-13.855-26.49-6.306a13.31 13.31 0 0 1-5.497 3.088c-8.842 2.468-15.352 6.521-11.64 17.535.648-.462 1.561-.592 2.357-.115l4.067 2.38z"/>
            <g>
                <path fill="#FF7900" d="M348.256 209.42c-.313 0-.627-.045-.94-.16-1.525-.524-2.335-2.21-1.824-3.765 1.951-5.841 8.19-8.966 13.92-7.005 2.676.93 5.597-.536 6.509-3.27a2.905 2.905 0 0 1 3.701-1.876c1.525.54 2.338 2.225 1.824 3.78-1.951 5.841-8.19 8.981-13.916 7.006-2.677-.93-5.598.535-6.51 3.27a2.915 2.915 0 0 1-2.764 2.02M355.152 188.683c-.299 0-.627-.045-.94-.145-1.525-.54-2.338-2.225-1.824-3.78.955-2.835 2.921-5.13 5.54-6.452a10.754 10.754 0 0 1 8.376-.554c2.695.93 5.598-.536 6.51-3.285a2.914 2.914 0 0 1 3.705-1.86c1.524.54 2.337 2.225 1.823 3.78-1.951 5.841-8.19 8.98-13.916 7.006a4.977 4.977 0 0 0-3.92.26 5.165 5.165 0 0 0-2.59 3.01c-.415 1.25-1.538 2.02-2.764 2.02M362.06 167.942c-.314 0-.628-.041-.942-.145-1.524-.536-2.348-2.221-1.823-3.777 1.696-5.13 7.18-7.88 12.21-6.15.97.336 1.994.265 2.891-.185a3.818 3.818 0 0 0 1.922-2.225c.514-1.555 2.166-2.4 3.705-1.86 1.524.525 2.338 2.21 1.823 3.78-.838 2.48-2.563 4.49-4.857 5.636a9.405 9.405 0 0 1-7.367.495c-1.98-.684-4.127.39-4.798 2.426a2.921 2.921 0 0 1-2.765 2.005"/>
                <path fill="#CDEAE6" d="M307.161 194.873l4.515 21.028 2.078-1.265a11.891 11.891 0 0 1 12.509 0l2.079 1.265c1.695 1.03 3.292 1.38 3.292 1.38 3.035-11.38 7.331-22.62 12.163-33.302-2.264-5.755-7.422-7.667-10.926-9.642-.026 0-.04-.015-.055-.03-2.225-1.29-2.352-4.386-.686-6.35a3.42 3.42 0 0 0 .726-2.92l-.354-1.641c-.386-1.805-2.151-2.966-3.93-2.575l-17.725 3.954c-1.779.392-2.906 2.196-2.52 4.011l.358 1.641a3.316 3.316 0 0 0 1.908 2.355c2.166.945 3.475 3.4 2.377 5.524-.113.187-.226.391-.368.581-2.764 3.735-7.107 8.166-5.44 15.986z"/>
            </g>
            <g>
                <path fill="#FFF" d="M331.515 170.132l-20.403 4.447c-2.257.492-4.5-.939-4.993-3.19l-.29-1.327a4.19 4.19 0 0 1 3.2-4.983l20.402-4.447c2.243-.492 4.49.953 4.982 3.19l.304 1.342c.49 2.24-.956 4.476-3.202 4.968"/>
                <g transform="translate(260.58 211.497)">
                    <mask id="c" fill="#fff">
                        <use xlink:href="#b"/>
                    </mask>
                    <path fill="#483857" d="M123.077.074l-5.262 71.61c-.38 7.153-6.596 12.758-14.117 12.758H19.246c-7.521 0-13.734-5.605-14.117-12.758L.003 2.42C-.084.8 1.782-.262 3.248.578l4.043 2.303c4.656 2.654 10.458 2.654 15.099 0l1.041-.6c3.983-2.264 8.932-2.264 12.9 0l2.143 1.23c3.983 2.264 8.932 2.264 12.899 0l2.143-1.23c3.983-2.264 8.932-2.264 12.9 0l2.143 1.23c3.982 2.264 8.931 2.264 12.899 0L83.6 2.28C87.584.017 92.533.017 96.5 2.28l2.144 1.23c3.982 2.264 8.93 2.264 12.899 0l10.194-4.303c.648-.279 1.366.197 1.34.866" mask="url(#c)"/>
                </g>
            </g>
        </g>
    </g>
</svg>
