<svg xmlns="http://www.w3.org/2000/svg" xmlns:xlink="http://www.w3.org/1999/xlink" width="225" height="166" viewBox="0 0 225 166">
    <defs>
        <ellipse id="a" cx="104.5" cy="80.232" rx="78.956" ry="78.841"/>
        <path id="c" d="M.52.015h26.72v34.594H.52z"/>
        <path id="e" d="M.534.012h22.747V27.58H.534z"/>
        <path id="g" d="M0 .292h68.385v29.004H0z"/>
        <path id="i" d="M.416.308h67.846v111.097H.416V23z"/>
    </defs>
    <g fill="none" fill-rule="evenodd" transform="translate(8 3)">
        <mask id="b" fill="#fff">
            <use xlink:href="#a"/>
        </mask>
        <use fill="#008181" xlink:href="#a"/>
        <g mask="url(#b)">
            <path fill="#432911" d="M124.575 99.08c0 8.984 7.565 16.271 16.901 16.271 9.334 0 16.901-7.287 16.901-16.272 0-8.988-7.567-16.275-16.901-16.275-9.336 0-16.9 7.287-16.9 16.275"/>
            <g transform="matrix(-1 0 0 1 139.666 42.422)">
                <mask id="d" fill="#fff">
                    <use xlink:href="#c"/>
                </mask>
                <path fill="#432911" d="M27.24 22.475c0 6.703-5.319 12.134-11.875 12.134l-2.97-5.762C5.835 28.847.52 23.41.52 16.7v-4.548C.52 5.45 5.836.015 12.394.015h2.971c6.556 0 11.876 5.435 11.876 12.138v10.322z" mask="url(#d)"/>
            </g>
            <g transform="matrix(-1 0 0 1 140.873 42.422)">
                <mask id="f" fill="#fff">
                    <use xlink:href="#e"/>
                </mask>
                <path fill="#432911" d="M.534 16.53v-4.503C.534 5.392 6 .012 12.74.012h3.054c2.788 0 5.35.927 7.404 2.481a26.6 26.6 0 0 1-.632 8.198c-2.049 8.755-8.003 15.268-14.629 16.89C3.587 25.744.534 21.49.534 16.53" mask="url(#f)"/>
            </g>
            <path fill="#432911" d="M125.783 76.773c0 8.655 7.029 15.675 15.693 15.675 8.665 0 15.694-7.02 15.694-15.675 0-8.656-7.029-15.667-15.694-15.667-8.664 0-15.693 7.01-15.693 15.667"/>
            <path fill="#FFC8A6" d="M117.578 46.64c.013 1.105.1 2.239.28 3.39 1.192 7.727 5.8 13.594 10.838 14.319.155 3.496.847 6.644 1.67 9.319.94 3.046 4.441 6.27 4.441 6.27.853 5.395-17.163 13.314-16.736 12.444.428-.87 4.863-7.224 6.319-13.06 1.013-4.057-.29-7.409-1.814-9.725-2.813-3.378-6.898-3.327-6.898-3.327a1.35 1.35 0 0 1-.995-.443 8.805 8.805 0 0 1-.369-2.516v-9.922a8.55 8.55 0 0 1 3.264-6.748"/>
            <path fill="#0B656C" d="M113.68 157.729l-8.42 2.224s5.489-24.662 7.02-34.294c1.53-9.64 1.363-12.792.85-15.776-.507-2.973-1.87-6.48 0-9.811 1.875-3.325 4.793-8.848 5.954-9.285 1.875-.701 3.919-1.574 5.448-3.153.841-.865-10.852 70.095-10.852 70.095"/>
            <path fill="#71D8B8" d="M111.296 159.73s4.143-22.912 5.984-34.485c1.84-11.569 6.9-33.552 7.36-36.33.463-2.775 2.07-6.482 2.07-6.482s4.372-3.238 8.284-2.545c3.913.698 7.134 9.49 8.745 18.052 1.61 8.563-10.126 32.397-10.126 34.48 0 2.083 8.282 19.667 8.282 24.761v5.786s-20.479-9.953-30.599-3.238"/>
            <path fill="#3CCDA0" d="M134.24 76.174l-3.478 2.044-4.98 3.218.955 4.985 9.307-7.874z"/>
            <path fill="#FFC8A6" d="M154.536 132.228s-7.583 9.936-11.567 9.542c-1.246-.124-1.167-.142-3.881-.66-2.71-.515-3.239-.487-5.392-.774-2.171-.286-2.424-.262-2.424-.262s0 1.209.817 1.525c.733.28 2.565.514 3.18.769.613.256-1.544-.166-4.782.088-3.24.259-6.386.92-7.73 1.291-.85.234-.968.283-.968.328 0 .386.032.745.426.82.347.057 1.577-.035 1.504.022-.277.224-2.21.854-2.539.938-.35.082-.83.184-1.124.283-.597.203-.316.916.716 1.2.014.008.243.5.558.607.156.05.274.096.436.14.185.053.4.055.583.1.696.156 1.396.247 2.068.285.278.022 2.699-.163 2.699-.016 0 0-1.904.426-1.868.569.073.317.438.706.778.683.61-.052 1.543-.117 4.079-.43 2.8-.347 3.381-.63 6.97-.201 3.13.376 2.824 1.01 5.045.172 2.974-1.125 13.798-9.37 15.807-10.658 2.015-1.288-3.39-6.361-3.39-6.361"/>
            <path fill="#71D8B8" d="M158.22 124.617l-24.36-26.32s-2.95-6.932-2.804-10.46c.175-4.182 5.197-7.324 5.197-7.324s11.103 9.943 24.244 24.231c13.144 14.298 20.333 20.57 13.144 26.15-7.185 5.579-18.576 12.726-18.576 12.726l-4.378-11.16 7.533-7.843z"/>
        </g>
        <path fill="#058C87" d="M28.748 130.067c.595.914 1.176 2.446 1.808 2.926l-2.535-1.015c-1.455-.584-1.939-1.827-1.939-2.915L25.975 48.9l2.535 1.006.307.404-.21 79.703.141.054z"/>
        <g transform="translate(25.975 20.87)">
            <mask id="h" fill="#fff">
                <use xlink:href="#g"/>
            </mask>
            <path fill="#058C87" d="M2.786 29.296l-.647-.04L0 28.281c0-2.878 3.593-6.74 7.268-7.96L60.436.916C61.931.338 64.01.018 65.611.599l2.774 1.022c-1.347.275-3.927.232-5.395.768l-.381-.22-29.541 11.468-21.163 7.85c-2.665 2.22-7.44 5.605-9.12 7.809" mask="url(#h)"/>
        </g>
        <g transform="translate(28.265 22.307)">
            <mask id="j" fill="#fff">
                <use xlink:href="#i"/>
            </mask>
            <path fill="#DDE2E6" d="M7.67 20.17l5.015-1.815 15.454-5.593L60.837.93c4.008-1.45 7.307-.272 7.319 2.611l.106 80.12c.015 2.892-3.245 6.434-7.268 7.883l-53.166 19.24c-3.996 1.45-7.295.28-7.307-2.611l-.105-80.12c-.013-2.882 3.26-6.432 7.255-7.883" mask="url(#j)"/>
        </g>
        <path fill="#EBF9FF" d="M38.58 48.102c16.799-6.142 32.285-11.87 49.084-18.013 3.8-1.388 6.928-.26 6.94 2.501l.099 67.776c.014 2.77-3.075 6.162-6.89 7.55L38.73 125.928c-3.788 1.39-6.915.268-6.927-2.5l-.1-67.776c-.011-2.76 3.09-6.161 6.878-7.55"/>
        <path fill="#F4FAFC" d="M49.937 39.705c2.572-.96 22.789-8.44 25.36-9.399.583-.217 1.062-.04 1.063.39l.015.347c.003.432-.47.962-1.054 1.178l-25.362 9.4c-.579.216-1.058.04-1.06-.392l-.015-.346c-.002-.43.473-.962 1.053-1.178"/>
        <path fill="#BFF2F2" d="M31.702 54.456l.025 10.975 61.83-22.087-.024-10.975zM31.702 66.041l.02 30.296 62.981-22.89-.019-30.296z"/>
        <path fill="#D0021B" d="M28.549 107.13l6.8-7.655c.099.224.243.42.44.589.342.225.779.168 1.317-.168.487-.337.901-.813 1.242-1.43l5.85 3.617c-.34.73-.51 1.457-.51 2.187 0 .729.192 1.207.583 1.43.34.224.804.169 1.39-.168.535-.394 1-.954 1.389-1.682.342-.73.512-1.458.512-2.188 0-.673-.147-1.15-.44-1.43l4.096-13.965c.148-.057.292-.14.439-.252l1.974 5.552a1.52 1.52 0 0 0-.437.673c-.39.729-.587 1.459-.587 2.188 0 .73.196 1.234.587 1.514.389.224.852.168 1.388-.168.536-.393.975-.953 1.316-1.683.439-.73.658-1.457.658-2.187 0-.337-.048-.59-.146-.757l8.336-14.47c.34.224.756.168 1.245-.168.583-.394 1.045-.954 1.388-1.683.05-.168.098-.31.146-.42l2.705-.084v.673c0 .728.196 1.204.585 1.43.39.28.853.225 1.391-.169.536-.336.974-.898 1.315-1.682.39-.729.585-1.459.585-2.187 0-.618-.146-1.065-.437-1.346l2.777-5.805c.34.057.683-.029 1.024-.252.535-.392 1-.953 1.39-1.683a6.5 6.5 0 0 0 .511-1.43l4.826-3.029c.098.392.293.673.585.842.343.225.78.168 1.318-.169.584-.336 1.046-.896 1.388-1.682.389-.786.585-1.514.585-2.187 0-.392-.048-.702-.145-.926l9.14-18.507v-1.43l-9.58 19.348c-.342-.225-.804-.168-1.388.169-.538.392-.975.954-1.318 1.682-.34.673-.535 1.289-.585 1.851l-4.753 2.944c-.048-.562-.243-.952-.585-1.177-.389-.226-.854-.169-1.39.168-.534.392-.998.954-1.389 1.682-.39.729-.583 1.46-.583 2.188 0 .617.145 1.065.437 1.346l-2.779 5.72c-.292 0-.608.141-.949.42-.538.337-1 .869-1.39 1.6a2.288 2.288 0 0 0-.22.504l-2.706.084c.05-.224.074-.478.074-.757 0-.729-.196-1.206-.585-1.43-.343-.28-.805-.224-1.388.168-.539.337-.976.897-1.318 1.683-.39.785-.585 1.514-.585 2.187 0 .449.05.786.146 1.01l-8.19 14.3c-.048-.057-.098-.084-.146-.084-.34-.223-.78-.168-1.316.169a.904.904 0 0 0-.22.168l-1.974-5.468c.244-.226.463-.532.658-.926.34-.728.513-1.458.513-2.187 0-.728-.172-1.233-.513-1.514-.39-.226-.853-.168-1.39.168-.584.392-1.047.954-1.387 1.683-.39.784-.587 1.543-.587 2.271 0 .673.196 1.15.587 1.43.096.056.17.084.218.084L46.465 99.98c-.243 0-.512.11-.805.336a3.152 3.152 0 0 0-.804.673l-5.996-3.701c.146-.448.22-.868.22-1.262 0-.729-.197-1.233-.586-1.514-.342-.281-.804-.226-1.388.168-.538.336-.975.898-1.318 1.682-.389.729-.585 1.46-.585 2.188l-6.872 7.74.218.84z"/>
    </g>
</svg>
