<svg width="260" height="110" viewBox="0 0 260 110" fill="none" xmlns="http://www.w3.org/2000/svg">
<path d="M130 0C58.203 0 0 49.2487 0 110H260C260 49.2487 201.797 0 130 0Z" fill="url(#paint0_radial)" fill-opacity="0.7"/>
<g filter="url(#filter0_f)">
<path d="M92.1908 44.3669L94.1313 51.2961L93.7355 52.3934L87.7642 56.64L94.9092 54.7527L96.047 55.1473L100.428 60.9248L98.4923 54.0062L98.8828 52.8983L104.859 48.6623L97.7091 50.539L96.5766 50.155L92.1908 44.3669Z" fill="white"/>
</g>
<path fill-rule="evenodd" clip-rule="evenodd" d="M106.327 13.0362C106.327 13.0362 107.63 19.1147 113.83 22.4974C120.03 25.8801 127.26 27.1773 127.26 27.1773C127.26 27.1773 118.171 21.8686 116.41 18.8718C114.275 15.2367 115.073 12.3554 115.073 12.3554C115.073 12.3554 111.802 11.8492 109.963 11.8878C108.125 11.9264 106.327 13.0362 106.327 13.0362Z" fill="#005960"/>
<rect width="67.8621" height="17.8301" transform="matrix(0.957983 0.287001 -0.309846 0.950843 93.6841 17.076)" fill="url(#paint1_linear)"/>
<rect width="18.7447" height="17.699" transform="matrix(0.958288 0.286046 -0.310876 0.950528 117.197 24.1985)" fill="url(#paint2_linear)"/>
<rect width="18.7447" height="17.699" transform="matrix(0.958288 0.286046 -0.310876 0.950528 117.197 24.1985)" fill="url(#paint3_linear)"/>
<path fill-rule="evenodd" clip-rule="evenodd" d="M152.793 28.1966C152.793 28.1966 149.883 31.4344 141.487 30.7091C133.092 29.9838 127.338 27.2891 127.338 27.2891C127.338 27.2891 138.934 27.2011 142.74 25.457C146.547 23.7129 147.622 21.8383 147.622 21.8383C147.622 21.8383 149.588 22.426 151.35 23.6388C153.112 24.8516 152.793 28.1966 152.793 28.1966Z" fill="#005960"/>
<path fill-rule="evenodd" clip-rule="evenodd" d="M106.331 13.2503C106.331 13.2503 105.871 7.46995 109.208 4.45359C112.546 1.43723 119.36 -0.432521 124.46 2.84537C129.56 6.12327 131.66 13.538 130.577 16.851C129.493 20.1641 127.139 27.3614 127.139 27.3614C127.139 27.3614 123.472 16.1095 117.5 13.7C111.528 11.2904 106.331 13.2503 106.331 13.2503Z" fill="url(#paint4_linear)"/>
<path fill-rule="evenodd" clip-rule="evenodd" d="M152.727 28.2247C152.727 28.2247 157.026 22.1124 155.084 17.0814C153.141 12.0503 147.77 9.41787 144.158 9.08986C140.545 8.76185 133.302 10.9742 130.905 16.0189C128.508 21.0635 127.303 27.5098 127.303 27.5098C127.303 27.5098 136.766 21.4323 143.344 22.3484C149.922 23.2646 152.727 28.2247 152.727 28.2247Z" fill="url(#paint5_linear)"/>
<path fill-rule="evenodd" clip-rule="evenodd" d="M145.828 78.9054C145.828 78.9054 147.752 82.6321 152.273 83.6004C156.794 84.5686 161.531 84.0216 161.531 84.0216C161.531 84.0216 154.349 81.9431 152.776 80.4196C150.518 78.2324 150.691 76.7183 150.691 76.7183C150.691 76.7183 148.866 77.243 147.735 77.6154C146.605 77.9878 145.828 78.9054 145.828 78.9054Z" fill="#005960"/>
<rect x="138.681" y="84.2787" width="44.3194" height="12.4855" fill="url(#paint6_linear)"/>
<rect x="141.34" y="96.0295" width="39.0011" height="13.7728" fill="url(#paint7_linear)"/>
<rect x="141.312" y="95.8978" width="38.9091" height="3.36484" fill="#15ACAC"/>
<rect x="155.522" y="84.2786" width="10.6367" height="25.4266" fill="url(#paint8_linear)"/>
<rect x="155.522" y="84.2786" width="10.6367" height="25.4266" fill="url(#paint9_linear)"/>
<path fill-rule="evenodd" clip-rule="evenodd" d="M177.268 79.7467C177.268 79.7467 176.324 82.3797 170.981 83.5093C165.638 84.6389 161.531 84.0217 161.531 84.0217C161.531 84.0217 167.86 82.0703 170.32 80.0832C172.431 78.3768 172.984 76.7317 172.984 76.7317C172.984 76.7317 174.32 76.7317 175.656 77.1662C176.992 77.6006 177.268 79.7467 177.268 79.7467Z" fill="#005960"/>
<path fill-rule="evenodd" clip-rule="evenodd" d="M145.828 78.9055C145.828 78.9055 144.327 75.1374 145.778 72.4757C147.228 69.8139 151.67 67.8175 155.478 68.9821C159.285 70.1466 161.461 74.0561 161.461 76.4683C161.461 78.8806 161.461 84.1209 161.461 84.1209C161.461 84.1209 156.928 77.3833 152.758 76.9674C148.588 76.5515 145.828 78.9055 145.828 78.9055Z" fill="url(#paint10_linear)"/>
<path fill-rule="evenodd" clip-rule="evenodd" d="M177.268 79.7467C177.268 79.7467 178.763 74.6568 176.543 71.7046C174.324 68.7525 170.532 68.4052 168.775 68.7525C167.018 69.0998 161.931 71.552 161.469 75.3724C161.006 79.1928 161.469 84.1209 161.469 84.1209C161.469 84.1209 166.093 78.2167 170.347 77.5221C174.601 76.8274 177.268 79.7467 177.268 79.7467Z" fill="url(#paint11_linear)"/>
<g filter="url(#filter1_d)">
<ellipse rx="12.8648" ry="12.6853" transform="matrix(0.891924 0.452168 -0.4757 0.8796 113.404 59.0356)" fill="url(#paint12_linear)" stroke="#EFC52D"/>
</g>
<path d="M118.381 52.7089C118.823 52.898 119.028 53.3941 118.839 53.8169L118.162 55.3323C118.52 55.8835 118.735 56.4988 118.806 57.1781L118.825 57.4358L116.742 57.6438L116.731 57.46C116.65 56.5595 116.195 55.932 115.367 55.5775C114.954 55.4008 114.59 55.3516 114.275 55.43C113.959 55.5085 113.738 55.6901 113.611 55.9748C113.475 56.278 113.497 56.5802 113.677 56.8815C113.824 57.1281 114.129 57.4549 114.591 57.8619L114.922 58.1452L115.452 58.5942L115.612 58.735L115.818 58.9272L116.068 59.1694C116.295 59.3922 116.462 59.5814 116.569 59.737C116.677 59.8925 116.792 60.0895 116.914 60.3279C117.036 60.5662 117.111 60.7897 117.138 60.9982C117.165 61.2067 117.162 61.4435 117.129 61.7085C117.096 61.9736 117.018 62.2439 116.895 62.5195C116.496 63.4106 115.842 63.973 114.931 64.2068C114.675 64.2725 114.412 64.3106 114.142 64.3212L113.703 65.2994C113.514 65.7221 113.003 65.9115 112.561 65.7223C112.119 65.5332 111.914 65.0371 112.103 64.6143L112.367 64.0282C112.225 63.9787 112.082 63.9229 111.937 63.8609C111.808 63.8058 111.684 63.7483 111.563 63.6883L111.303 64.2718C111.114 64.6946 110.603 64.8839 110.161 64.6948C109.719 64.5056 109.514 64.0095 109.703 63.5867L110.12 62.6544C109.965 62.4925 109.826 62.3214 109.703 62.1412C109.257 61.4876 109.035 60.7781 109.036 60.0129L109.043 59.7816L111.167 59.5584L111.165 59.7375C111.181 60.7955 111.735 61.5581 112.826 62.0254C113.383 62.2638 113.834 62.342 114.18 62.2601C114.525 62.1781 114.764 61.9902 114.895 61.6962C115.047 61.3564 115.007 61.0244 114.774 60.7005C114.605 60.4649 114.308 60.1643 113.882 59.7986L113.539 59.5122C113.478 59.4624 113.415 59.4116 113.349 59.3598C112.956 59.038 112.632 58.746 112.377 58.4839C112.123 58.2217 111.888 57.9158 111.672 57.5664C111.457 57.2169 111.341 56.8419 111.326 56.4414C111.311 56.0408 111.402 55.62 111.599 55.1791C111.989 54.3064 112.624 53.7493 113.504 53.5078C113.758 53.4382 114.013 53.3948 114.269 53.3777L114.838 52.1043C115.027 51.6815 115.539 51.4921 115.981 51.6813C116.423 51.8705 116.628 52.3665 116.439 52.7893L116.044 53.6712L116.193 53.7311C116.418 53.8277 116.63 53.9355 116.827 54.0547L117.239 53.1318C117.428 52.7091 117.939 52.5197 118.381 52.7089Z" fill="#005960"/>
<g filter="url(#filter2_d)">
<ellipse rx="9.4719" ry="9.08196" transform="matrix(0.948406 -0.312023 0.336542 0.943506 94.4571 69.2124)" fill="url(#paint13_linear)" stroke="#EFC52D"/>
</g>
<path d="M93.5 63.5119C93.8236 63.3808 94.1959 63.5239 94.3315 63.8316L94.8183 64.9338C95.2972 65.0263 95.7391 65.2241 96.1441 65.5271L96.2943 65.6457L95.367 66.8132L95.2614 66.7272C94.7308 66.3189 94.1623 66.2376 93.5558 66.4833C93.2534 66.6058 93.0449 66.7671 92.9301 66.9673C92.8153 67.1674 92.8035 67.3711 92.8949 67.5783C92.9922 67.7989 93.1677 67.9386 93.4215 67.9973C93.6291 68.0453 93.9591 68.053 94.4113 68.0204L94.7309 67.9927L95.2398 67.9466L95.3965 67.9351L95.6041 67.9257L95.8608 67.9191C96.0951 67.9148 96.2815 67.924 96.4199 67.9467C96.5584 67.9694 96.723 68.0091 96.9137 68.0657C97.1044 68.1224 97.2633 68.196 97.3901 68.2864C97.517 68.3768 97.6444 68.4966 97.7723 68.6457C97.9002 68.7948 98.0083 68.9696 98.0968 69.1702C98.3826 69.8186 98.3617 70.4338 98.034 71.0156C97.9419 71.1791 97.8314 71.3323 97.7025 71.4752L98.0156 72.1879C98.1512 72.4955 97.9988 72.8512 97.6752 72.9823C97.3516 73.1134 96.9793 72.9703 96.8436 72.6626L96.6563 72.2354C96.5586 72.283 96.4566 72.3283 96.3505 72.3713C96.2563 72.4095 96.1628 72.4443 96.0702 72.4757L96.2577 72.9C96.3933 73.2077 96.2409 73.5634 95.9173 73.6945C95.5937 73.8256 95.2214 73.6825 95.0858 73.3748L94.7867 72.6963C94.6212 72.6945 94.4587 72.68 94.2992 72.6528C93.7208 72.554 93.2236 72.3133 92.8076 71.9306L92.6852 71.8116L93.6248 70.6155L93.7211 70.7061C94.3049 71.2262 94.9965 71.3243 95.7959 71.0005C96.2038 70.8353 96.4716 70.644 96.5996 70.4267C96.7276 70.2094 96.7444 69.9938 96.6501 69.7799C96.541 69.5325 96.3403 69.3873 96.0478 69.3443C95.8351 69.313 95.523 69.3147 95.1114 69.3494L94.7841 69.3815C94.7265 69.3879 94.6673 69.3948 94.6065 69.4023C94.2348 69.4426 93.914 69.4622 93.6442 69.4612C93.3744 69.4602 93.0906 69.4274 92.7929 69.3629C92.4951 69.2984 92.2334 69.17 92.0077 68.9778C91.7821 68.7855 91.5985 68.529 91.4571 68.2081C91.1771 67.573 91.1911 66.9705 91.4992 66.4005C91.588 66.2364 91.6916 66.0846 91.8102 65.9453L91.4017 65.0185C91.2661 64.7109 91.4185 64.3552 91.7421 64.2241C92.0657 64.093 92.438 64.2361 92.5736 64.5438L92.8566 65.1855L92.9634 65.1396C93.1285 65.0727 93.2929 65.0186 93.4563 64.9774L93.1596 64.3064C93.024 63.9987 93.1763 63.643 93.5 63.5119Z" fill="#005960"/>
<path fill-rule="evenodd" clip-rule="evenodd" d="M77.9064 73.0629C77.5856 72.8116 77.5138 72.382 77.7461 72.1033L84.2644 64.2832C84.4967 64.0046 84.945 63.9824 85.2658 64.2338L95.5598 72.2982C95.5598 72.2982 95.2643 72.7357 95.7244 73.0961C96.1845 73.4565 96.5636 73.0846 96.5636 73.0846L109.534 83.2462C109.855 83.4975 109.927 83.9271 109.695 84.2058L109.414 84.5421C109.201 84.3746 108.902 84.3893 108.747 84.5751C108.592 84.7609 108.64 85.0473 108.854 85.2148L108.503 85.6352C108.289 85.4677 107.99 85.4825 107.836 85.6682C107.681 85.854 107.729 86.1404 107.943 86.3079L107.592 86.7284C107.378 86.5608 107.079 86.5756 106.924 86.7614C106.77 86.9471 106.817 87.2335 107.031 87.4011L106.681 87.8215C106.467 87.654 106.168 87.6687 106.013 87.8545C105.858 88.0403 105.906 88.3267 106.12 88.4942L105.77 88.9146C105.556 88.7471 105.257 88.7619 105.102 88.9476C104.947 89.1334 104.995 89.4198 105.209 89.5873L104.859 90.0078C104.645 89.8402 104.346 89.855 104.191 90.0408C104.036 90.2265 104.084 90.5129 104.298 90.6805L103.947 91.1009C103.734 90.9334 103.435 90.9481 103.28 91.1339C103.125 91.3197 103.173 91.6061 103.387 91.7736L103.176 92.0259C102.944 92.3045 102.496 92.3267 102.175 92.0753L89.2042 81.9138C89.2042 81.9138 89.5586 81.4056 89.1009 81.0423C88.6432 80.6791 88.2003 81.1274 88.2003 81.1274L77.9064 73.0629Z" fill="#F7FAFA"/>
<path fill-rule="evenodd" clip-rule="evenodd" d="M89.9633 80.5457L89.5547 81.0355L89.0091 80.6084L89.4176 80.1186L89.9633 80.5457ZM91.5976 78.5866L90.7804 79.5662L90.2348 79.139L91.052 78.1595L91.5976 78.5866ZM93.2319 76.6274L92.4148 77.607L91.8691 77.1799L92.6863 76.2003L93.2319 76.6274ZM94.8663 74.6683L94.0491 75.6479L93.5035 75.2208L94.3206 74.2412L94.8663 74.6683ZM96.092 73.1989L95.6835 73.6887L95.1378 73.2616L95.5464 72.7718L96.092 73.1989Z" fill="#97D1D2"/>
<path fill-rule="evenodd" clip-rule="evenodd" d="M139.465 87.5782C139.32 87.9493 138.916 88.1433 138.564 88.0115L128.69 84.3134C128.338 84.1817 128.171 83.774 128.317 83.4029L132.996 71.4946C132.996 71.4946 133.526 71.6376 133.735 71.1053C133.944 70.5731 133.452 70.3333 133.452 70.3333L139.347 55.3283C139.493 54.9572 139.896 54.7632 140.248 54.895L140.673 55.054C140.576 55.3014 140.687 55.5732 140.922 55.661C141.156 55.7489 141.425 55.6195 141.522 55.3721L142.053 55.571C141.956 55.8184 142.067 56.0901 142.302 56.178C142.536 56.2658 142.805 56.1365 142.903 55.8891L143.433 56.0879C143.336 56.3353 143.448 56.6071 143.682 56.6949C143.917 56.7828 144.186 56.6534 144.283 56.406L144.814 56.6048C144.716 56.8522 144.828 57.124 145.062 57.2119C145.297 57.2997 145.566 57.1704 145.663 56.923L146.194 57.1218C146.097 57.3692 146.208 57.641 146.443 57.7288C146.677 57.8167 146.946 57.6873 147.043 57.4399L147.574 57.6387C147.477 57.8861 147.588 58.1579 147.823 58.2457C148.057 58.3336 148.326 58.2042 148.423 57.9568L148.954 58.1557C148.857 58.4031 148.968 58.6748 149.203 58.7627C149.438 58.8505 149.707 58.7212 149.804 58.4738L150.122 58.5931C150.474 58.7248 150.641 59.1325 150.495 59.5036L144.6 74.5086C144.6 74.5086 143.981 74.3322 143.768 74.8631C143.555 75.394 144.144 75.6699 144.144 75.6699L139.465 87.5782Z" fill="#F7FAFA"/>
<path fill-rule="evenodd" clip-rule="evenodd" d="M142.914 74.1933L143.522 74.4198L143.278 75.0364L142.671 74.81L142.914 74.1933ZM140.484 73.2875L141.699 73.7404L141.455 74.3571L140.24 73.9042L140.484 73.2875ZM138.053 72.3817L139.268 72.8346L139.025 73.4513L137.809 72.9984L138.053 72.3817ZM135.622 71.4759L136.837 71.9288L136.594 72.5455L135.378 72.0926L135.622 71.4759ZM133.799 70.7966L134.407 71.023L134.163 71.6397L133.555 71.4132L133.799 70.7966Z" fill="#97D1D2"/>
<g filter="url(#filter3_d)">
<ellipse rx="11.8448" ry="11.6795" transform="matrix(0.891924 0.452168 -0.4757 0.8796 126.079 74.7833)" fill="url(#paint14_linear)" stroke="#EFC52D"/>
<path d="M129.991 69.256C130.393 69.4269 130.577 69.8824 130.4 70.2735L129.769 71.6754C130.092 72.1806 130.283 72.746 130.342 73.3714L130.358 73.6087L128.45 73.8167L128.442 73.6475C128.375 72.8182 127.964 72.2435 127.21 71.9233C126.834 71.7636 126.501 71.7212 126.212 71.7959C125.923 71.8706 125.719 72.0397 125.6 72.3032C125.474 72.5836 125.491 72.8619 125.653 73.1383C125.786 73.3643 126.062 73.6631 126.481 74.0346L126.782 74.293L127.262 74.7027L127.408 74.8312L127.595 75.0067L127.821 75.228C128.027 75.4315 128.178 75.6046 128.275 75.7471C128.372 75.8896 128.476 76.0702 128.585 76.289C128.695 76.5077 128.761 76.713 128.784 76.905C128.807 77.0969 128.802 77.3151 128.77 77.5597C128.738 77.8042 128.664 78.054 128.549 78.3089C128.177 79.1332 127.574 79.6566 126.739 79.8792C126.504 79.9418 126.263 79.979 126.017 79.9908L125.607 80.8957C125.43 81.2868 124.961 81.4653 124.558 81.2944C124.156 81.1236 123.973 80.668 124.149 80.2769L124.395 79.7347C124.266 79.6901 124.135 79.6399 124.003 79.5838C123.886 79.5341 123.773 79.482 123.663 79.4277L123.42 79.9675C123.244 80.3586 122.774 80.5371 122.372 80.3662C121.969 80.1954 121.786 79.7398 121.962 79.3487L122.352 78.4862C122.211 78.3382 122.086 78.1817 121.975 78.0165C121.572 77.4176 121.375 76.7656 121.382 76.0603L121.39 75.8471L123.335 75.6248L123.332 75.7898C123.338 76.7647 123.838 77.4632 124.832 77.8853C125.34 78.1007 125.752 78.1692 126.068 78.091C126.385 78.0128 126.605 77.8378 126.727 77.5658C126.869 77.2514 126.835 76.9458 126.625 76.6491C126.472 76.4333 126.203 76.1586 125.817 75.8249L125.505 75.5637C125.45 75.5183 125.392 75.472 125.333 75.4247C124.976 75.1313 124.682 74.8647 124.451 74.6251C124.22 74.3854 124.008 74.1054 123.814 73.7851C123.62 73.4647 123.517 73.12 123.507 72.751C123.496 72.3819 123.583 71.9935 123.767 71.5856C124.131 70.7783 124.717 70.2599 125.524 70.0304C125.756 69.9643 125.99 69.9224 126.224 69.9046L126.756 68.7265C126.932 68.3354 127.402 68.1569 127.804 68.3278C128.207 68.4987 128.39 68.9542 128.213 69.3453L127.845 70.1611L127.981 70.2152C128.186 70.3024 128.379 70.4002 128.558 70.5085L128.942 69.6547C129.119 69.2636 129.588 69.0851 129.991 69.256Z" fill="#005960"/>
</g>
<g filter="url(#filter4_d)">
<ellipse rx="7.28815" ry="7.00043" transform="matrix(0.998432 0.0872034 -0.0871447 0.993747 107.312 74.9716)" fill="url(#paint15_linear)" stroke="#EFC52D"/>
</g>
<path d="M108.476 70.6688C108.746 70.6743 108.962 70.8877 108.958 71.1453L108.945 72.0684C109.253 72.2783 109.5 72.5512 109.688 72.887L109.755 73.0159L108.726 73.5574L108.679 73.4649C108.437 73.0171 108.063 72.7879 107.557 72.7775C107.305 72.7723 107.106 72.8228 106.961 72.929C106.815 73.0352 106.741 73.1751 106.739 73.3486C106.736 73.5333 106.815 73.6847 106.975 73.8028C107.105 73.8994 107.335 74.0045 107.664 74.1183L107.898 74.1955L108.271 74.3169L108.385 74.3562L108.534 74.4123L108.717 74.4853C108.883 74.5531 109.012 74.6159 109.102 74.6737C109.192 74.7316 109.295 74.8093 109.411 74.9069C109.527 75.0044 109.615 75.1042 109.675 75.2062C109.736 75.3083 109.787 75.4311 109.829 75.5747C109.871 75.7184 109.89 75.8742 109.888 76.0421C109.88 76.585 109.667 77.0118 109.249 77.3223C109.131 77.4095 109.004 77.484 108.868 77.5457L108.858 78.142C108.855 78.3996 108.633 78.6039 108.363 78.5984C108.092 78.5928 107.876 78.3795 107.88 78.1219L107.886 77.7645C107.802 77.7684 107.715 77.7695 107.627 77.7677C107.548 77.7661 107.471 77.7623 107.396 77.7564L107.391 78.1118C107.387 78.3694 107.166 78.5738 106.895 78.5682C106.625 78.5627 106.409 78.3493 106.413 78.0917L106.421 77.5236C106.305 77.4723 106.196 77.413 106.092 77.3456C105.717 77.1012 105.444 76.7814 105.275 76.3862L105.227 76.2654L106.274 75.7074L106.312 75.8003C106.556 76.343 107.011 76.6212 107.678 76.6349C108.019 76.6419 108.269 76.5883 108.429 76.474C108.589 76.3597 108.67 76.213 108.673 76.0339C108.676 75.8268 108.581 75.6639 108.389 75.5451C108.25 75.4588 108.029 75.3656 107.729 75.2656L107.488 75.1893C107.445 75.1763 107.401 75.1633 107.356 75.1502C107.081 75.0661 106.849 74.983 106.66 74.9007C106.47 74.8184 106.281 74.7095 106.092 74.5741C105.903 74.4386 105.76 74.2691 105.663 74.0655C105.566 73.862 105.52 73.6259 105.524 73.3572C105.531 72.8254 105.735 72.4055 106.136 72.0974C106.251 72.0087 106.373 71.9332 106.502 71.871L106.513 71.095C106.516 70.8374 106.738 70.6331 107.008 70.6386C107.279 70.6442 107.494 70.8575 107.491 71.1151L107.483 71.6525L107.573 71.6524C107.711 71.6553 107.844 71.6669 107.972 71.6873L107.98 71.1252C107.984 70.8675 108.205 70.6632 108.476 70.6688Z" fill="#005960"/>
<g filter="url(#filter5_f)">
<path d="M98.459 75.1434L99.6843 77.2164L99.6521 77.6018L98.0978 79.4547L100.234 78.266L100.635 78.3005L102.546 79.8043L101.323 77.7342L101.353 77.3458L102.91 75.496L100.771 76.6817L100.373 76.6502L98.459 75.1434Z" fill="white"/>
</g>
<rect x="81.603" y="79.3544" width="61.4426" height="30.5827" fill="url(#paint16_linear)"/>
<rect x="81.603" y="79.3544" width="61.4426" height="4.86544" fill="#15ACAC"/>
<rect x="104.021" y="79.3542" width="16.6061" height="30.5827" fill="url(#paint17_linear)"/>
<rect x="104.021" y="79.3542" width="16.6061" height="30.5827" fill="url(#paint18_linear)"/>
<g filter="url(#filter6_f)">
<path d="M137.865 79.0593L138.671 81.9363L138.506 82.3919L136.027 84.1551L138.994 83.3715L139.466 83.5353L141.285 85.9341L140.482 83.0615L140.644 82.6015L143.125 80.8427L140.156 81.6219L139.686 81.4625L137.865 79.0593Z" fill="white"/>
</g>
<g filter="url(#filter7_f)">
<path d="M123.752 56.1685L125.05 60.8025L124.785 61.5363L120.792 64.3763L125.57 63.1142L126.331 63.3781L129.261 67.2418L127.967 62.6149L128.228 61.874L132.225 59.0411L127.443 60.2962L126.685 60.0394L123.752 56.1685Z" fill="white"/>
</g>
<path fill-rule="evenodd" clip-rule="evenodd" d="M164.269 84.228C164.697 84.1327 165.222 84.1675 165.854 84.4387L166.194 83.6995C165.429 83.3709 164.723 83.302 164.096 83.4417C163.47 83.5809 162.957 83.9197 162.56 84.3477C161.778 85.1903 161.408 86.4176 161.467 87.3677C161.522 88.246 161.713 89.0894 162.17 89.7073C162.648 90.3546 163.384 90.7088 164.393 90.649L164.354 89.8438C163.601 89.8885 163.143 89.6379 162.841 89.2296C162.518 88.792 162.343 88.1289 162.291 87.3081C162.244 86.5591 162.549 85.5522 163.168 84.8853C163.471 84.5586 163.839 84.3237 164.269 84.228Z" fill="#BB9C4E"/>
<ellipse rx="5.85203" ry="6.11239" transform="matrix(0.976622 0.215753 -0.246665 0.969294 167.052 93.7568)" fill="#005150"/>
<mask id="mask0" mask-type="alpha" maskUnits="userSpaceOnUse" x="161" y="87" width="12" height="13">
<ellipse rx="5.85203" ry="6.11239" transform="matrix(0.976622 0.215753 -0.246665 0.969294 167.052 93.7568)" fill="white"/>
</mask>
<g mask="url(#mask0)">
<path fill-rule="evenodd" clip-rule="evenodd" d="M163.185 95.1899C159.733 97.5029 158.585 101.998 160.637 105.366C162.691 108.737 167.19 109.729 170.794 107.653L163.185 95.1899Z" fill="#008181"/>
<path fill-rule="evenodd" clip-rule="evenodd" d="M165.805 98.4102C166.338 100.148 168.182 101.109 169.956 100.56C171.728 100.012 172.767 98.161 172.303 96.4037L165.805 98.4102Z" fill="#FF9445"/>
<mask id="mask1" mask-type="alpha" maskUnits="userSpaceOnUse" x="161" y="90" width="12" height="13">
<path fill-rule="evenodd" clip-rule="evenodd" d="M164.326 90.0417L172.404 91.8282L169.614 102.805L161.535 101.019L164.326 90.0417Z" fill="white"/>
</mask>
<g mask="url(#mask1)">
<path fill-rule="evenodd" clip-rule="evenodd" d="M168.713 101.994L170.448 95.1696C170.481 95.0377 170.508 94.9059 170.527 94.7748C170.605 94.2332 170.786 93.7095 171.046 93.2228C171.095 93.1322 171.142 93.0376 171.189 92.939C171.31 92.6856 171.091 92.4197 170.831 92.5059C170.714 92.5447 170.594 92.5806 170.476 92.6101C170.325 92.6476 170.174 92.583 170.098 92.4499C169.643 91.652 168.881 91.05 167.924 90.8384C166.967 90.6267 165.996 90.8456 165.205 91.3678C165.073 91.455 164.907 91.4494 164.791 91.3528C164.699 91.2771 164.61 91.1948 164.524 91.1116C164.334 90.9257 164.01 91.0714 163.996 91.3486C163.99 91.4556 163.987 91.5593 163.987 91.6598C163.984 92.2035 163.894 92.7472 163.704 93.2639C163.657 93.3898 163.617 93.5192 163.583 93.6519L163.133 95.4204C162.562 97.6683 163.362 99.8926 164.992 101.172L162.53 100.627L169.761 102.226L168.713 101.994Z" fill="#00BCBC"/>
</g>
<path opacity="0.901284" fill-rule="evenodd" clip-rule="evenodd" d="M168.88 92.9008C168.228 92.7566 167.562 93.0671 167.197 93.627C167.141 92.9741 166.696 92.4181 166.043 92.2739C165.21 92.0898 164.355 92.6468 164.133 93.518C163.677 95.3136 163.472 96.8058 166.233 97.416C168.841 97.9923 169.53 96.6071 169.987 94.8115C170.209 93.9404 169.713 93.0848 168.88 92.9008Z" fill="white"/>
</g>
<path fill-rule="evenodd" clip-rule="evenodd" d="M166.914 96.1027L167.456 95.4744C167.517 95.4043 167.53 95.3022 167.489 95.2253L167.108 94.5117C167.055 94.4132 166.931 94.3858 166.837 94.4518L166.153 94.9298C166.079 94.9812 166.042 95.078 166.062 95.166L166.244 95.9544C166.316 96.2676 166.699 96.3523 166.914 96.1027Z" fill="#FFA32C"/>
<path fill-rule="evenodd" clip-rule="evenodd" d="M168.943 94.8389L168.628 94.7683C168.656 94.6564 168.695 94.3902 168.453 94.336C168.211 94.2819 168.119 94.5364 168.091 94.6483L167.776 94.5777C167.88 94.1614 168.185 93.9342 168.534 94.0123C168.884 94.0904 169.048 94.4226 168.943 94.8389Z" fill="#007F7E"/>
<path fill-rule="evenodd" clip-rule="evenodd" d="M166.022 94.168L165.707 94.0975C165.735 93.9855 165.774 93.7193 165.532 93.6651C165.29 93.611 165.199 93.8655 165.17 93.9774L164.855 93.9068C164.96 93.4905 165.264 93.2633 165.614 93.3414C165.963 93.4196 166.127 93.7517 166.022 94.168Z" fill="#007F7E"/>
<ellipse rx="0.82475" ry="0.811886" transform="matrix(0.975528 0.220125 -0.241768 0.970395 168.394 89.4908)" fill="white"/>
<path fill-rule="evenodd" clip-rule="evenodd" d="M166.941 84.8736C166.514 84.7355 166.083 84.5928 165.727 84.4173L166.107 83.6943C166.401 83.8389 166.774 83.9644 167.21 84.1057C167.247 84.1174 167.284 84.1293 167.321 84.1413C167.718 84.2695 168.154 84.4103 168.575 84.5837C169.491 84.9613 170.431 85.5306 170.841 86.5979C171.039 87.1122 171.082 87.5816 170.995 88.0042C170.907 88.4265 170.696 88.7731 170.433 89.0508C169.918 89.5945 169.188 89.8922 168.687 90.0371C168.687 90.0371 168.49 90.0419 168.381 89.7163C168.272 89.3907 168.461 89.2619 168.461 89.2619C168.903 89.1342 169.464 88.8909 169.828 88.506C170.005 88.3192 170.131 88.1047 170.183 87.8539C170.234 87.6035 170.219 87.2881 170.066 86.8909C169.775 86.1352 169.096 85.6804 168.244 85.3294C167.855 85.169 167.45 85.038 167.048 84.9081C167.012 84.8966 166.976 84.8851 166.941 84.8736Z" fill="#BB9C4E"/>
<defs>
<filter id="filter0_f" x="84.7642" y="41.3669" width="23.0952" height="22.5579" filterUnits="userSpaceOnUse" color-interpolation-filters="sRGB">
<feFlood flood-opacity="0" result="BackgroundImageFix"/>
<feBlend mode="normal" in="SourceGraphic" in2="BackgroundImageFix" result="shape"/>
<feGaussianBlur stdDeviation="1.5" result="effect1_foregroundBlur"/>
</filter>
<filter id="filter1_d" x="95.9312" y="44.9553" width="34.9456" height="34.1605" filterUnits="userSpaceOnUse" color-interpolation-filters="sRGB">
<feFlood flood-opacity="0" result="BackgroundImageFix"/>
<feColorMatrix in="SourceAlpha" type="matrix" values="0 0 0 0 0 0 0 0 0 0 0 0 0 0 0 0 0 0 127 0"/>
<feOffset dy="3"/>
<feGaussianBlur stdDeviation="2"/>
<feColorMatrix type="matrix" values="0 0 0 0 0 0 0 0 0 0 0 0 0 0 0 0 0 0 0.4 0"/>
<feBlend mode="normal" in2="BackgroundImageFix" result="effect1_dropShadow"/>
<feBlend mode="normal" in="SourceGraphic" in2="effect1_dropShadow" result="shape"/>
</filter>
<filter id="filter2_d" x="80.4619" y="58.6493" width="27.9909" height="27.1263" filterUnits="userSpaceOnUse" color-interpolation-filters="sRGB">
<feFlood flood-opacity="0" result="BackgroundImageFix"/>
<feColorMatrix in="SourceAlpha" type="matrix" values="0 0 0 0 0 0 0 0 0 0 0 0 0 0 0 0 0 0 127 0"/>
<feOffset dy="3"/>
<feGaussianBlur stdDeviation="2"/>
<feColorMatrix type="matrix" values="0 0 0 0 0 0 0 0 0 0 0 0 0 0 0 0 0 0 0.4 0"/>
<feBlend mode="normal" in2="BackgroundImageFix" result="effect1_dropShadow"/>
<feBlend mode="normal" in="SourceGraphic" in2="effect1_dropShadow" result="shape"/>
</filter>
<filter id="filter3_d" x="109.635" y="61.7009" width="32.8893" height="32.1647" filterUnits="userSpaceOnUse" color-interpolation-filters="sRGB">
<feFlood flood-opacity="0" result="BackgroundImageFix"/>
<feColorMatrix in="SourceAlpha" type="matrix" values="0 0 0 0 0 0 0 0 0 0 0 0 0 0 0 0 0 0 127 0"/>
<feOffset dy="3"/>
<feGaussianBlur stdDeviation="2"/>
<feColorMatrix type="matrix" values="0 0 0 0 0 0 0 0 0 0 0 0 0 0 0 0 0 0 0.4 0"/>
<feBlend mode="normal" in2="BackgroundImageFix" result="effect1_dropShadow"/>
<feBlend mode="normal" in="SourceGraphic" in2="effect1_dropShadow" result="shape"/>
</filter>
<filter id="filter4_d" x="95.5078" y="66.4868" width="23.6078" height="22.9696" filterUnits="userSpaceOnUse" color-interpolation-filters="sRGB">
<feFlood flood-opacity="0" result="BackgroundImageFix"/>
<feColorMatrix in="SourceAlpha" type="matrix" values="0 0 0 0 0 0 0 0 0 0 0 0 0 0 0 0 0 0 127 0"/>
<feOffset dy="3"/>
<feGaussianBlur stdDeviation="2"/>
<feColorMatrix type="matrix" values="0 0 0 0 0 0 0 0 0 0 0 0 0 0 0 0 0 0 0.4 0"/>
<feBlend mode="normal" in2="BackgroundImageFix" result="effect1_dropShadow"/>
<feBlend mode="normal" in="SourceGraphic" in2="effect1_dropShadow" result="shape"/>
</filter>
<filter id="filter5_f" x="97.0977" y="74.1434" width="6.81213" height="6.66089" filterUnits="userSpaceOnUse" color-interpolation-filters="sRGB">
<feFlood flood-opacity="0" result="BackgroundImageFix"/>
<feBlend mode="normal" in="SourceGraphic" in2="BackgroundImageFix" result="shape"/>
<feGaussianBlur stdDeviation="0.5" result="effect1_foregroundBlur"/>
</filter>
<filter id="filter6_f" x="135.027" y="78.0593" width="9.09797" height="8.87486" filterUnits="userSpaceOnUse" color-interpolation-filters="sRGB">
<feFlood flood-opacity="0" result="BackgroundImageFix"/>
<feBlend mode="normal" in="SourceGraphic" in2="BackgroundImageFix" result="shape"/>
<feGaussianBlur stdDeviation="0.5" result="effect1_foregroundBlur"/>
</filter>
<filter id="filter7_f" x="119.792" y="55.1685" width="13.4327" height="13.0733" filterUnits="userSpaceOnUse" color-interpolation-filters="sRGB">
<feFlood flood-opacity="0" result="BackgroundImageFix"/>
<feBlend mode="normal" in="SourceGraphic" in2="BackgroundImageFix" result="shape"/>
<feGaussianBlur stdDeviation="0.5" result="effect1_foregroundBlur"/>
</filter>
<radialGradient id="paint0_radial" cx="0" cy="0" r="1" gradientUnits="userSpaceOnUse" gradientTransform="translate(140.176 65.8067) rotate(-93.7155) scale(41.0429 189.501)">
<stop stop-color="#A9EDED"/>
<stop offset="1" stop-color="#B7EAEA" stop-opacity="0.4"/>
</radialGradient>
<linearGradient id="paint1_linear" x1="5.40164e-09" y1="12.4811" x2="77.4497" y2="12.132" gradientUnits="userSpaceOnUse">
<stop stop-color="#A5E9E9"/>
<stop offset="0.540249" stop-color="#62E8D0"/>
<stop offset="1" stop-color="#00A7A7"/>
</linearGradient>
<linearGradient id="paint2_linear" x1="9.37233" y1="-4.42475" x2="0.831214" y2="13.6667" gradientUnits="userSpaceOnUse">
<stop stop-color="#FFED7D"/>
<stop offset="1" stop-color="#FFA600"/>
</linearGradient>
<linearGradient id="paint3_linear" x1="9.37233" y1="0" x2="9.37233" y2="17.699" gradientUnits="userSpaceOnUse">
<stop stop-color="#FFDD61"/>
<stop offset="1" stop-color="white" stop-opacity="0"/>
</linearGradient>
<linearGradient id="paint4_linear" x1="134.325" y1="17.7786" x2="104.773" y2="12.9097" gradientUnits="userSpaceOnUse">
<stop stop-color="#B48700"/>
<stop offset="0.331903" stop-color="#FFED7D"/>
<stop offset="1" stop-color="#BC8520"/>
</linearGradient>
<linearGradient id="paint5_linear" x1="158.498" y1="25.092" x2="129.173" y2="20.2252" gradientUnits="userSpaceOnUse">
<stop stop-color="#B48700"/>
<stop offset="0.331903" stop-color="#FFED7D"/>
<stop offset="1" stop-color="#BC8520"/>
</linearGradient>
<linearGradient id="paint6_linear" x1="138.681" y1="93.0185" x2="189.262" y2="92.8059" gradientUnits="userSpaceOnUse">
<stop stop-color="#A5E9E9"/>
<stop offset="0.540249" stop-color="#62E8D0"/>
<stop offset="1" stop-color="#00A7A7"/>
</linearGradient>
<linearGradient id="paint7_linear" x1="141.34" y1="105.67" x2="185.851" y2="105.521" gradientUnits="userSpaceOnUse">
<stop stop-color="#A5E9E9"/>
<stop offset="0.540249" stop-color="#62E8D0"/>
<stop offset="1" stop-color="#00A7A7"/>
</linearGradient>
<linearGradient id="paint8_linear" x1="160.84" y1="77.9219" x2="145.198" y2="91.009" gradientUnits="userSpaceOnUse">
<stop stop-color="#FFED7D"/>
<stop offset="1" stop-color="#FFA600"/>
</linearGradient>
<linearGradient id="paint9_linear" x1="160.84" y1="84.2786" x2="160.84" y2="109.705" gradientUnits="userSpaceOnUse">
<stop stop-color="#FFDD61"/>
<stop offset="1" stop-color="white" stop-opacity="0"/>
</linearGradient>
<linearGradient id="paint10_linear" x1="163.948" y1="76.3415" x2="144.846" y2="79.076" gradientUnits="userSpaceOnUse">
<stop stop-color="#B48700"/>
<stop offset="0.331903" stop-color="#FFED7D"/>
<stop offset="1" stop-color="#BC8520"/>
</linearGradient>
<linearGradient id="paint11_linear" x1="180.276" y1="76.3415" x2="161.174" y2="79.076" gradientUnits="userSpaceOnUse">
<stop stop-color="#B48700"/>
<stop offset="0.331903" stop-color="#FFED7D"/>
<stop offset="1" stop-color="#BC8520"/>
</linearGradient>
<linearGradient id="paint12_linear" x1="14.5295" y1="7.67575" x2="16.1688" y2="20.9373" gradientUnits="userSpaceOnUse">
<stop stop-color="#FFF0BA"/>
<stop offset="1" stop-color="#EDCF61"/>
</linearGradient>
<linearGradient id="paint13_linear" x1="10.6976" y1="5.49539" x2="11.8397" y2="14.9977" gradientUnits="userSpaceOnUse">
<stop stop-color="#FFF0BA"/>
<stop offset="1" stop-color="#EDCF61"/>
</linearGradient>
<linearGradient id="paint14_linear" x1="13.3775" y1="7.06714" x2="14.8868" y2="19.2772" gradientUnits="userSpaceOnUse">
<stop stop-color="#FFF0BA"/>
<stop offset="1" stop-color="#EDCF61"/>
</linearGradient>
<linearGradient id="paint15_linear" x1="7.68653" y1="2.12056" x2="10.0497" y2="12.7658" gradientUnits="userSpaceOnUse">
<stop stop-color="#F3DE91"/>
<stop offset="1" stop-color="#FFF2C5"/>
</linearGradient>
<linearGradient id="paint16_linear" x1="81.603" y1="100.762" x2="151.727" y2="100.595" gradientUnits="userSpaceOnUse">
<stop stop-color="#A5E9E9"/>
<stop offset="0.540249" stop-color="#62E8D0"/>
<stop offset="1" stop-color="#00A7A7"/>
</linearGradient>
<linearGradient id="paint17_linear" x1="112.325" y1="71.7086" x2="93.2752" y2="92.3958" gradientUnits="userSpaceOnUse">
<stop stop-color="#FFED7D"/>
<stop offset="1" stop-color="#FFA600"/>
</linearGradient>
<linearGradient id="paint18_linear" x1="112.325" y1="79.3542" x2="112.325" y2="109.937" gradientUnits="userSpaceOnUse">
<stop stop-color="#FFDD61"/>
<stop offset="1" stop-color="white" stop-opacity="0"/>
</linearGradient>
</defs>
</svg>
