<svg xmlns="http://www.w3.org/2000/svg" xmlns:xlink="http://www.w3.org/1999/xlink" width="260" height="115" viewBox="0 0 260 115">
    <defs>
        <path id="a" d="M4.81 4.384c1.254 0 2.21-1.076 2.21-2.286S5.504.141 4.087.015C3.14-.07 1.778.204 0 .834c1.072.292 1.94.694 2.603 1.204 1.054.81.648 1.957 2.208 2.346z"/>
        <path id="c" d="M2.806 2.877c.731 0 1.29-.706 1.29-1.5S3.21.092 2.382.01C1.832-.045 1.037.134 0 .547c.625.192 1.131.456 1.518.79.615.532.379 1.285 1.288 1.54z"/>
        <path id="e" d="M4.81 4.384c1.254 0 2.21-1.076 2.21-2.286S5.504.141 4.087.015C3.14-.07 1.778.204 0 .834c1.072.292 1.94.694 2.603 1.204 1.054.81.648 1.957 2.208 2.346z"/>
        <path id="g" d="M2.806 2.877c.731 0 1.29-.706 1.29-1.5S3.21.092 2.382.01C1.832-.045 1.037.134 0 .547c.625.192 1.131.456 1.518.79.615.532.379 1.285 1.288 1.54z"/>
        <path id="i" d="M6.01 11.362c2.824-1.31 4.219-2.711 4.184-4.205-.035-1.494-1.451-4.1-4.25-7.816-2.216 3.576-3.308 6.11-3.273 7.605.035 1.494 1.148 2.966 3.339 4.416z"/>
        <path id="k" d="M6.092 11.573c2.753-1.338 4.116-2.764 4.089-4.278-.028-1.513-1.394-4.146-4.1-7.9C3.909 3.028 2.837 5.6 2.864 7.114c.028 1.513 1.104 3 3.228 4.46z"/>
        <ellipse id="m" cx="8.024" cy="7.623" rx="8.024" ry="7.623"/>
    </defs>
    <g fill="none" fill-rule="evenodd">
        <g fill="#0F6064">
            <path d="M95.176 110.759c39.893 3.765 69.177-1.357 69.177-3.03 0-1.674-30.971-3.03-69.177-3.03-38.205 0-69.176 1.356-69.176 3.03 0 1.673 29.284-.735 69.176 3.03z"/>
            <path d="M165.588 110.759c-39.892 3.765-69.176-1.357-69.176-3.03 0-1.674 30.971-3.03 69.176-3.03s69.177 1.356 69.177 3.03c0 1.673-29.285-.735-69.177 3.03z"/>
        </g>
        <path fill="#00BCBC" d="M33.494 28.063c-2.919 14.096-4.378 25.221-4.378 33.376 0 12.233 2.97 20.329 11.558 29.384 5.725 6.037 12.613 8.832 20.665 8.386 5.825-.713 9.689-1.48 11.59-2.3 2.852-1.23 8.713-8.778 10.324-20.11 1.074-7.556 1.074-13.988 0-19.296.707-3.12-.891-8.187-4.793-15.203S59.57 30.54 33.494 28.063z"/>
        <path fill="#00BCBC" d="M60.557 63.588c7.888 0 16.503-.642 21.973-5.63 5.4-4.923 7.877-14.108 7.877-21.57 0-9.12-5.334-17.215-12.897-22.14-.952-.619 0-2.165-2.004-3.055-2.004-.89-2.978.397-4.028 0a30.94 30.94 0 0 0-10.921-2.006c-3.02 0-5.93.452-8.659 1.29-1.64.502-3.609-1.29-6.036 0-2.427 1.289-1.82 3.72-3.235 4.825-6.378 4.988-10.45 12.58-10.45 21.086 0 15.022 12.706 27.2 28.38 27.2z"/>
        <g transform="translate(50.706 22.824)">
            <path fill="#E6F8F8" d="M37.65 6.066c-1.104-2.7-3.203-5.1-6.213-4.885-2.006.144-3.51 1.848-4.511 5.113C24.905 2.446 21.278.52 16.046.52 8.196.521 1.741 6.497.465 15.643c-1.276 9.145 2.428 15.67 7.32 17.606 4.891 1.936 19.082 2.716 23.651.74 4.57-1.975 7.254-7.79 8.045-13.132.79-5.342-.728-12.09-1.832-14.79z"/>
            <ellipse cx="19.39" cy="15.497" fill="#007F7E" rx="2.844" ry="2.653"/>
            <ellipse cx="33.609" cy="15.497" fill="#007F7E" rx="1.551" ry="2.653"/>
            <g fill="#D8D8D8" transform="matrix(-1 0 0 1 39.53 3.706)">
                <ellipse cx="6.176" cy="10.5" opacity=".423" rx="6.176" ry="10.5"/>
                <path d="M6.176 21C2.766 21 0 16.299 0 10.5S2.765 0 6.176 0c3.412 0 6.177 4.701 6.177 10.5S9.588 21 6.176 21zm-.341-2.059c2.755 0 4.988-3.78 4.988-8.441 0-4.662-2.233-8.441-4.988-8.441-2.756 0-4.989 3.78-4.989 8.441 0 4.662 2.233 8.441 4.989 8.441z"/>
            </g>
            <path fill="#F8B25A" d="M28.418 17.595c-1.66 0-5.834 4.051-6.188 5.808-.2.998 3.837 6.351 5.797 6.351.84 0 3.265-3.644 4.65-6.453.39-.792-3.225-5.706-4.259-5.706z"/>
            <path fill="#E99221" d="M22.765 23.56c4.858.557 7.5.836 7.924.836.424 0 .975-.309 1.653-.925-.743 1.434-1.35 2.152-1.821 2.152-.472 0-3.057-.688-7.756-2.064z"/>
            <g fill="#D8D8D8" transform="translate(4.941 1.235)">
                <ellipse cx="11.393" cy="11.983" opacity=".423" rx="11.393" ry="11.983"/>
                <path d="M11.393 23.966C5.1 23.966 0 18.601 0 11.983S5.1 0 11.393 0c6.292 0 11.392 5.365 11.392 11.983s-5.1 11.983-11.392 11.983zm0-1.24c5.566 0 10.078-4.717 10.078-10.536 0-5.82-4.512-10.537-10.078-10.537S1.315 6.37 1.315 12.19c0 5.82 4.512 10.537 10.078 10.537z"/>
            </g>
        </g>
        <g fill="#F8B25A">
            <path d="M56.082 98.347c.367 1.332.564 2.264.593 2.8.136 2.533-.332 3.79-.593 3.79h-.923c.111-1.704.111-2.967 0-3.79-.11-.824-.415-1.814-.911-2.97l1.834.17z"/>
            <path d="M54.623 103.61c1.687-.471 7.292.989 6.924 1.227-.206.134-.07.327-.07.515 0 .816-7.006.106-7.804 0-.798-.105-.738-1.273.95-1.743z"/>
            <g>
                <path d="M65.632 98.347c.367 1.332.565 2.264.594 2.8.135 2.533-.332 3.79-.594 3.79h-.922c.111-1.704.111-2.967 0-3.79-.111-.824-.415-1.814-.911-2.97l1.833.17z"/>
                <path d="M63.671 103.61c1.687-.471 7.292.989 6.924 1.227-.206.134-.07.327-.07.515 0 .816-7.006.106-7.804 0-.798-.105-.737-1.273.95-1.743z"/>
            </g>
        </g>
        <path fill="#00BCBC" d="M46.955 95.706c.975-.504 5.844.05 14.61 1.663-1.071 1.768-3.101 2.817-6.092 3.148-4.485.495-7.361-3.859-8.518-4.811zM62.809 97.858c1.605 0 4.901-.417 9.89-1.25-1.391 2.284-3.541 3.426-6.45 3.426-4.361 0-5.848-2.176-3.44-2.176z"/>
        <g>
            <path fill="#008181" d="M52.542 58.782c-2.91-4.013-5.367-8.186-12.494-7.924-7.127.262-6.714 7.765-5.906 13.512.807 5.746 2.869 9.243 5.247 12.848 2.38 3.606 10.264 9.9 13.483 10.183 3.22.284 21.214-7.836 22.014-8.886.295-.387.433-1.647.218-1.868-.503-.515-1.4.197-1.44-.08-.038-.276 1.417-.153 1.788-.474.207-.18.174-.58.025-1.636-.138-.986-6.235-1.044-6.077-1.456.454-1.181 3.11-.868 2.947-1.35-.198-.582-2.358-.831-3.236-.708-1.52.214-3.13 1.14-4.831 2.777-3.36-1.095-5.223-2.022-5.588-2.783-.549-1.142-3.24-8.143-6.15-12.155z"/>
            <path fill="#004472" d="M97.766 71.643l-5.774 18.351.22 1.417c-2.262 1.66-5.7 1.814-10.311.464-4.612-1.35-7.382-3.321-8.31-5.915l1.08-1.305L79.26 65.78l18.507 5.862z"/>
            <path fill="#1C2C57" d="M88.011 70.448c5.116 1.482 9.493 1.874 9.777.876.283-.999-3.635-3.01-8.75-4.491-5.117-1.482-9.494-1.874-9.777-.875-.284.998 3.634 3.009 8.75 4.49z"/>
            <path fill="#0A568A" d="M91.293 65.078c-1.433-.125-3.054 1.584-4.863 5.127 3.212.77 5.406 1.258 6.582 1.463 1.764.306 3.74.923 4.754-.025 1.016-.948-4.324-6.377-6.473-6.565z"/>
            <path fill="#004472" d="M79.04 72.012l-3.563 13.934c-5.925-10.283-7.173-16.308-3.743-18.076 3.43-1.767 5.866-.387 7.306 4.142zm-2.026.378c-.741-2.964-2.15-3.892-4.224-2.781-2.074 1.11-1.378 4.78 2.09 11.01l2.134-8.229z"/>
            <path fill="#093C5E" d="M90.143 83.863l10.605-5.823 4.243-3.448a1 1 0 0 1 1.627.863l-.453 5.17a1 1 0 0 1-1.452.804l-2.927-1.498c-7.928 4.518-12.255 6.985-12.98 7.4-.727.414-.28-.742 1.337-3.468z"/>
            <path fill="#008181" d="M52.937 87.377c3.224.294 21.099-6.835 21.898-7.899.295-.391.422-1.662.215-1.893-.048-.054.138.004.099-.277-.04-.28.228-.066.286-.55.057-.484.529-1.618-.366-2.603-.596-.657-4.356-.89-11.279-.7-3.089-.355-4.817-.919-5.184-1.691-.551-1.159-8.893 15.32-5.67 15.613z"/>
            <g transform="translate(108.765 77.497)">
                <mask id="b" fill="#fff">
                    <use xlink:href="#a"/>
                </mask>
                <use fill="#B4E6FF" xlink:href="#a"/>
                <path fill="#76D1FF" d="M7.02 2.814c-.31.52-.828.842-1.557.968-.729.125-1.495-.197-2.3-.968l1.712 2.837c.925-.587 1.51-1.085 1.757-1.493a2.69 2.69 0 0 0 .389-1.344z" mask="url(#b)"/>
                <ellipse cx="3.05" cy=".469" fill="#FFF" mask="url(#b)" rx="1" ry="1"/>
                <path fill="#F8FCFF" d="M3.788.469c.73-.065 1.244-.065 1.541 0 .447.097 1.325.572 1.078 1.192-.247.62-.565-.42-1.078-.749C4.988.693 4.474.545 3.79.47z" mask="url(#b)"/>
            </g>
            <g transform="rotate(29 -105.96 258.366)">
                <mask id="d" fill="#fff">
                    <use xlink:href="#c"/>
                </mask>
                <use fill="#B4E6FF" xlink:href="#c"/>
                <path fill="#76D1FF" d="M4.095 1.847c-.18.34-.483.552-.908.635-.425.082-.873-.13-1.342-.635l.999 1.862c.54-.386.881-.713 1.025-.98.143-.268.219-.562.226-.882z" mask="url(#d)"/>
                <ellipse cx="1.779" cy=".308" fill="#FFF" mask="url(#d)" rx="1" ry="1"/>
                <path fill="#F8FCFF" d="M2.21.308c.426-.043.725-.043.899 0 .26.064.772.375.628.782-.144.407-.33-.276-.628-.491-.2-.144-.5-.241-.9-.291z" mask="url(#d)"/>
            </g>
        </g>
        <g>
            <path fill="#00BCBC" d="M227.593 35.255c1.134 4.697 1.701 12.266 1.701 22.709 0 12.167-2.972 19.653-4.294 25.184-1.884 7.88-5.292 14.023-23.99 13.761-13.343.127-12.528-12.125-19.073-20.46-4.363-5.557-5.426-11.872-3.19-18.946-.707-3.12.891-8.187 4.793-15.203s18.586-9.364 44.053-7.045z"/>
            <g fill="#F8B25A">
                <path d="M207.864 97.238c-.396 1.575-.61 2.68-.64 3.312-.147 3 .358 4.486.64 4.486h.996c-.12-2.016-.12-3.511 0-4.486.12-.975.448-2.146.984-3.514l-1.98.202z"/>
                <path d="M209.439 103.654c-1.822-.489-7.87 1.03-7.474 1.278.223.14.076.341.076.537 0 .85 7.562.11 8.423 0 .861-.11.796-1.325-1.025-1.815z"/>
                <g>
                    <path d="M197.322 97.238c-.396 1.575-.61 2.68-.64 3.312-.147 3 .357 4.486.64 4.486h.995c-.12-2.016-.12-3.511 0-4.486.12-.975.448-2.146.984-3.514l-1.98.202z"/>
                    <path d="M199.439 103.654c-1.822-.489-7.87 1.03-7.474 1.278.223.14.076.341.076.537 0 .85 7.562.11 8.423 0 .861-.11.796-1.325-1.025-1.815z"/>
                </g>
            </g>
            <path fill="#00BCBC" d="M200.3 63.588c-7.586 0-15.871-.614-21.132-5.382-5.192-4.706-7.575-13.485-7.575-20.618 0-8.718 5.13-16.455 12.403-21.162.915-.592 0-2.07 1.927-2.92 1.928-.85 2.864.379 3.874 0a29.915 29.915 0 0 1 10.503-1.918c2.904 0 5.702.432 8.327 1.233 1.576.48 3.47-1.233 5.805 0 2.334 1.232 1.75 3.555 3.11 4.612 6.135 4.768 10.051 12.026 10.051 20.155 0 14.36-12.22 26-27.293 26z"/>
            <g transform="matrix(-1 0 0 1 211.294 22.824)">
                <path fill="#E6F8F8" d="M37.65 6.066c-1.104-2.7-3.203-5.1-6.213-4.885-2.006.144-3.51 1.848-4.511 5.113C24.905 2.446 21.278.52 16.046.52 8.196.521 1.741 6.497.465 15.643c-1.276 9.145 2.428 15.67 7.32 17.606 4.891 1.936 19.082 2.716 23.651.74 4.57-1.975 7.254-7.79 8.045-13.132.79-5.342-.728-12.09-1.832-14.79z"/>
                <ellipse cx="19.39" cy="15.497" fill="#007F7E" rx="2.844" ry="2.653"/>
                <path fill="#007F7E" d="M23.286 12.877c-.635.18-1.103.27-1.403.27-.3 0-.692-.023-1.178-.069.183.543.606.858 1.269.945.662.087 1.1-.295 1.312-1.146zM36.43 13.154c-.51.225-.974.338-1.395.338-.42 0-.816-.046-1.187-.137.183.543.606.857 1.268.945.663.087 1.1-.295 1.313-1.146z"/>
                <ellipse cx="33.609" cy="15.497" fill="#007F7E" rx="1.551" ry="2.653"/>
                <path fill="#F8B25A" d="M28.418 17.595c-1.66 0-5.834 4.051-6.188 5.808-.2.998 3.837 6.351 5.797 6.351.84 0 3.265-3.644 4.65-6.453.39-.792-3.225-5.706-4.259-5.706z"/>
                <path fill="#E02020" d="M32.058 23.47a5.602 5.602 0 0 0-.821-.279c-.3-.078-.584.165-.854.729-.551-.675-1.064-.95-1.538-.824s-2.576.285-6.304.478l8.696 1.355.821-1.458z"/>
                <path fill="#E02020" d="M22.54 23.574c4.859.558 7.5.837 7.925.837.636 0 1.76-1.168 1.653-.925-.83 1.707-.977 2.936-2.596 2.936-1.079 0-3.406-.949-6.981-2.848z"/>
                <path fill="#E99221" d="M22.54 23.56c4.859.557 7.5.836 7.925.836.424 0 .975-.309 1.653-.925-.743 1.434-1.35 2.152-1.822 2.152-.47 0-3.056-.688-7.755-2.064z"/>
            </g>
            <path fill="#00BCBC" d="M191.947 94c-.26-.74 4.01-.423 12.809.952-1.07 1.768-3.1 2.817-6.091 3.147-4.486.496-6.33-2.988-6.718-4.099z"/>
            <path fill="#00BCBC" d="M203 95.426c1.683 0 6.829-.605 15.439-1.815-2.284 2.444-5.056 3.958-8.317 4.541-4.89.875-6.457-1.612-7.122-2.726z"/>
            <g>
                <path fill="#FFA32C" d="M210.059 62.1c2.73-5.123 7.582-7.1 10.647-6.016 3.065 1.083 5.426 4.302 2.874 10.049-2.55 5.747-3.134 7.48-5.308 11.085-2.175 3.606-2.895 7.372-12.408 7.752-9.512.38-19.314-5.405-20.046-6.455-.27-.387-.396-1.647-.2-1.868.46-.515 1.281.197 1.317-.08.035-.276-1.294-.153-1.634-.474-.19-.18-.159-.58-.023-1.636.127-.986 5.7-1.044 5.556-1.456-.415-1.181-2.843-.868-2.694-1.35.18-.582 2.155-.831 2.958-.708 1.39.214 2.862 1.14 4.417 2.777 2.759.089 5.694-.458 8.805-1.64 4.667-1.773 3.01-4.858 5.739-9.98z"/>
                <path fill="#004472" d="M162.998 71.643l5.775 18.351-.221 1.417c2.263 1.66 5.7 1.814 10.312.464 4.612-1.35 7.382-3.321 8.31-5.915l-1.08-1.305-4.589-18.874-18.507 5.862z"/>
                <path fill="#1C2C57" d="M172.754 70.448c-5.116 1.482-9.494 1.874-9.777.876-.283-.999 3.634-3.01 8.75-4.491 5.116-1.482 9.494-1.874 9.777-.875.283.998-3.634 3.009-8.75 4.49z"/>
                <path fill="#0A568A" d="M169.472 65.078c1.433-.125 3.054 1.584 4.862 5.127-3.211.77-5.405 1.258-6.581 1.463-1.764.306-3.74.923-4.755-.025-1.015-.948 4.324-6.377 6.474-6.565z"/>
                <path fill="#004472" d="M181.725 72.012l3.562 13.934c5.926-10.283 7.174-16.308 3.744-18.076-3.43-1.767-5.866-.387-7.306 4.142zm2.026.378c.741-2.964 2.149-3.892 4.224-2.781 2.074 1.11 1.378 4.78-2.09 11.01l-2.134-8.229z"/>
                <path fill="#093C5E" d="M170.622 83.863l-10.606-5.823-4.242-3.448a1 1 0 0 0-1.627.863l.453 5.17a1 1 0 0 0 1.451.804l2.928-1.498c7.928 4.518 12.255 6.985 12.98 7.4.727.414.28-.742-1.337-3.468z"/>
                <path fill="#FFA32C" d="M205.299 84.988c-2.892.293-18.72-4.446-19.437-5.51-.264-.391-.378-1.662-.192-1.893.043-.054-.124.004-.089-.277.036-.28-.205-.066-.256-.55-.052-.484-.475-1.618.328-2.603.535-.657 3.907-.89 10.117-.7 3.026-.185 4.793-.308 5.302-.369.763-.092 7.119 11.608 4.227 11.902z"/>
                <g transform="matrix(-1 0 0 1 152 77.497)">
                    <mask id="f" fill="#fff">
                        <use xlink:href="#e"/>
                    </mask>
                    <use fill="#B4E6FF" xlink:href="#e"/>
                    <path fill="#76D1FF" d="M7.02 2.814c-.31.52-.828.842-1.557.968-.729.125-1.495-.197-2.3-.968l1.712 2.837c.925-.587 1.51-1.085 1.757-1.493a2.69 2.69 0 0 0 .389-1.344z" mask="url(#f)"/>
                    <ellipse cx="3.05" cy=".469" fill="#FFF" mask="url(#f)" rx="1" ry="1"/>
                    <path fill="#F8FCFF" d="M3.788.469c.73-.065 1.244-.065 1.541 0 .447.097 1.325.572 1.078 1.192-.247.62-.565-.42-1.078-.749C4.988.693 4.474.545 3.79.47z" mask="url(#f)"/>
                </g>
                <g transform="scale(-1 1) rotate(29 -236.343 -245.785)">
                    <mask id="h" fill="#fff">
                        <use xlink:href="#g"/>
                    </mask>
                    <use fill="#B4E6FF" xlink:href="#g"/>
                    <path fill="#76D1FF" d="M4.095 1.847c-.18.34-.483.552-.908.635-.425.082-.873-.13-1.342-.635l.999 1.862c.54-.386.881-.713 1.025-.98.143-.268.219-.562.226-.882z" mask="url(#h)"/>
                    <ellipse cx="1.779" cy=".308" fill="#FFF" mask="url(#h)" rx="1" ry="1"/>
                    <path fill="#F8FCFF" d="M2.21.308c.426-.043.725-.043.899 0 .26.064.772.375.628.782-.144.407-.33-.276-.628-.491-.2-.144-.5-.241-.9-.291z" mask="url(#h)"/>
                </g>
            </g>
        </g>
        <g>
            <path fill="#475C68" d="M123.933 76.678l-2.142 1.474 8.24 11.717 1.4-2.67z"/>
            <g transform="scale(1 -1) rotate(-41 -45.069 -189.649)">
                <mask id="j" fill="#fff">
                    <use xlink:href="#i"/>
                </mask>
                <use fill="#0D8282" transform="rotate(-96 6.433 5.351)" xlink:href="#i"/>
                <path fill="#38BCBC" d="M6.953 4.905c2.256-.301 4.112-.216 5.569.256-2.144-.154-4-.154-5.569 0-1.568.154-3.717.589-6.447 1.304a31.018 31.018 0 0 1 6.447-1.56z" mask="url(#j)"/>
            </g>
            <path fill="#475C68" d="M137.25 76.678l2.016 1.474-7.755 11.717-1.317-2.67z"/>
            <g transform="rotate(139 59.245 66.834)">
                <mask id="l" fill="#fff">
                    <use xlink:href="#k"/>
                </mask>
                <use fill="#0D8282" transform="rotate(-96 6.522 5.484)" xlink:href="#k"/>
                <path fill="#38BCBC" d="M7.047 5.044c2.287-.294 4.168-.21 5.645.248-2.173-.15-4.054-.15-5.645 0-1.59.15-3.768.573-6.534 1.268a32.552 32.552 0 0 1 6.534-1.516z" mask="url(#l)"/>
            </g>
            <path fill="#475C68" d="M128.603 56.73h3.076v39.283h-3.076z"/>
            <g transform="translate(119.13 49.692)">
                <ellipse cx="11.418" cy="10.849" fill="#F19F07" rx="11.418" ry="10.849"/>
                <ellipse cx="11.11" cy="10.556" fill="#FEE34B" rx="11.11" ry="10.556"/>
                <g transform="translate(3.086 2.932)">
                    <ellipse cx="8.332" cy="7.917" fill="#F19F07" rx="8.332" ry="7.917"/>
                    <mask id="n" fill="#fff">
                        <use xlink:href="#m"/>
                    </mask>
                    <use fill="#FEE34B" xlink:href="#m"/>
                    <path fill="#FFFBB6" d="M1.191 2.837l12.46-1.45 1.667 1.45L-.729 4.158z" mask="url(#n)"/>
                    <path fill="#FFFBB6" d="M.152 5.09l16.191-.94-.428 4.893-16.94 1.132z" mask="url(#n)" transform="rotate(-5 7.659 7.162)"/>
                    <path fill="#FFFBB6" d="M1.09 13.328l15.22-3.343-.073.83-14.475 4.53z" mask="url(#n)" transform="rotate(-5 8.7 12.665)"/>
                </g>
            </g>
            <path fill="#E49503" fill-rule="nonzero" d="M127.391 62.566c.068-.198.142-.395.217-.593.09-.226.172-.255.44-.145.456.186.941.29 1.456.337a2.3 2.3 0 0 0 .956-.099c.567-.192.657-.703.179-1.01a2.723 2.723 0 0 0-.545-.25c-.5-.169-1.015-.302-1.486-.517-.761-.355-1.246-.842-1.187-1.563.067-.813.657-1.324 1.62-1.597.396-.11.396-.11.403-.43v-.325c.008-.244.06-.285.374-.29h.29c.665 0 .665 0 .665.516 0 .366 0 .366.47.424.359.041.702.128 1.03.239.18.064.255.162.195.313-.082.221-.164.448-.254.668-.09.21-.172.238-.433.14a3.957 3.957 0 0 0-1.635-.25c-.15.006-.298.023-.433.07-.493.168-.575.592-.157.853.21.134.456.227.71.308.44.14.88.28 1.291.453 1.322.57 1.68 1.865.747 2.742-.336.32-.777.534-1.284.639-.224.046-.321.14-.314.32.008.173 0 .354 0 .534 0 .156-.104.244-.306.244-.246.005-.493.005-.74 0-.216-.006-.313-.1-.32-.262 0-.128 0-.261-.008-.389-.007-.285-.015-.296-.365-.343-.456-.058-.896-.133-1.307-.29-.328-.122-.358-.186-.269-.447z"/>
            <path fill="#8EE9E9" d="M116.67 44.304l-1.161 3.116-1.161-3.116-3.064-1.157 3.064-1.156 1.16-3.118 1.162 3.118 2.746 1.157zM144.226 43.45l-.581 1.558-.58-1.558-1.533-.579 1.532-.578.581-1.559.58 1.56 1.373.578z" opacity=".64"/>
            <path fill="#8EE9E9" d="M130.069 36.702l-1.452 3.895-1.451-3.895-3.83-1.447 3.83-1.444 1.451-3.898 1.452 3.898 3.432 1.445zM152.683 58.083l-.87 2.337-.872-2.337-2.298-.868 2.298-.867.871-2.339.871 2.34 2.06.866z"/>
            <g transform="translate(116.945 91.044)">
                <path fill="#308389" d="M3.087 0h21.607L23.18 18.005H5.221z"/>
                <rect width="27.78" height="3.001" fill="#475C68" rx="1.5"/>
            </g>
        </g>
    </g>
</svg>
