<svg xmlns="http://www.w3.org/2000/svg" width="50" height="50" viewBox="0 0 50 50">
    <g fill="none" fill-rule="evenodd">
        <circle cx="25" cy="25" r="25" fill="#00A7A7"/>
        <path fill="#FCC431" fill-rule="nonzero" d="M12.564 19.444c-.805 0-1.453.621-1.453 1.382V34.73c0 .76.648 1.381 1.453 1.381h23.819c.804 0 1.452-.62 1.452-1.381V20.826c0-.761-.648-1.382-1.452-1.382h-23.82z"/>
        <path fill="#F2BC2D" d="M18.75 25h11.806l5.555 11.111H12.5z"/>
        <path fill="#FFF7C6" d="M12.835 19.444h23.563c-4.155 8.334-8.186 12.5-12.092 12.5-3.907 0-7.73-4.166-11.47-12.5z"/>
        <g>
            <path fill="#FFF" fill-rule="nonzero" d="M23.746 9.144l.455.748-1.719 1.02 1.033 1.697-.749.445-1.032-1.698-1.719 1.02-.455-.748 1.719-1.02-1.033-1.697.749-.444 1.032 1.697z"/>
            <path fill="#FFF" d="M34.673 15.392l-1.604.654.127-1.727-1.118-1.323 1.682-.413.913-1.472.912 1.472 1.682.413-1.118 1.323.127 1.727zM12.153 14.925l-1.429.583.113-1.539-.996-1.178 1.499-.368.813-1.312.813 1.312 1.498.368-.996 1.178.113 1.539z"/>
            <path fill="#00A7A7" fill-rule="nonzero" d="M29.301 21.644l.455.748-1.718 1.02 1.032 1.697-.748.445-1.033-1.698-1.718 1.02-.455-.748 1.718-1.02-1.032-1.697.748-.444 1.033 1.697z"/>
        </g>
    </g>
</svg>
