<svg width="250" height="130" viewBox="0 0 250 130" fill="none" xmlns="http://www.w3.org/2000/svg">
    <path fill="#fff" d="M0 0h250v130H0z"/>
    <path d="M190.124 19.675h-55.968v100.8h55.968v-100.8z" fill="#037A77"/>
    <path d="M190.124 120.475H134.15v-41.67l15.684-11.797 24.652-9.232 15.638-9.526v72.225z" fill="#22B573"/>
    <path fill-rule="evenodd" clip-rule="evenodd" d="M129.214 127.76c35.955 4.289 63.787 2.278 63.787-4.823 0-7.101-28.373-6.306-62.348-5.561-33.976.744-62.349 3.652-62.349 5.561 0 1.909 24.988.535 60.91 4.823z" fill="#0F6064"/>
    <path d="M96.103 123.274c9.785 0 17.717-.823 17.717-1.839 0-1.015-7.932-1.838-17.716-1.838-9.785 0-17.717.823-17.717 1.838 0 1.016 7.932 1.839 17.716 1.839z" fill="#064E52"/>
    <path fill-rule="evenodd" clip-rule="evenodd" d="M115.608 63.897c-1.003.884-7.858 25.572-7.858 25.572 4.17 3.257 19.326 1.17 22.434-5.86 5.576-12.51-6.301-17.06-14.576-19.712z" fill="#FF9C39"/>
    <path d="m72.395 78.69 3.082-2.965c-.37-3.232-2.64-6.732-3.853-8.393-.825-1.215-2.33-.165-3.24.344-1.511-.05-2.402 1.018-2.58 2.399-.574.763-1.98 2.023-.878 2.94 1.683 1.546 5.51 4.924 7.47 5.675z" fill="#03B5B5"/>
    <path d="M72.013 83.672a3.4 3.4 0 0 0 .139 1.47c.153.475.41.913.751 1.285 3.451 3.767 10.947 13.617 16.074 13.617 8.202 0 19.65-19.725 13.758-30.39-5.892-10.663-27.496-11.35-27.496-11.35l-3.226 25.368z" fill="#00BCBC"/>
    <path d="M87.044 99.7c14.107 3.143 27.265-1.909 33.85-15.589 6.295-13.406 7.918-41.62-4.309-46.951-12.227-5.332-33.652 14.234-39.927 27.64-6.46 14.03-1.273 26.896 10.386 34.9z" fill="#00BCBC"/>
    <path d="M116.328 20.56c2.863-1.477 4.618-3.08 6.42-2.062 1.979 1.132 1.115 3.27.429 6.305-.601 2.666-1.036 5.377-1.036 5.377l-10.63-7.355s1.946-.821 4.817-2.266z" fill="#00B4B4"/>
    <path d="m118.532 71.061-39.03-2.443a4.43 4.43 0 0 1-2.992-1.416 4.12 4.12 0 0 1-1.086-3.038l-2.092-20.005a10.338 10.338 0 0 1 0-2.303c1.663-13.967 11.673-24.478 29.159-23.44 17.505.934 25.364 12.177 25.734 25.724.033 1.385-.12 2.77-.456 4.117l-4.619 18.872a4.163 4.163 0 0 1-1.469 2.883 4.476 4.476 0 0 1-3.149 1.049z" fill="#00BCBC"/>
    <path d="M79.878 25.72c-3.082-.993-5.12-2.285-6.691-.993-1.749 1.438-.521 3.398.66 6.28a124.613 124.613 0 0 1 1.98 5.135l9.237-8.94s-2.098-.496-5.186-1.483z" fill="#00BCBC"/>
    <path d="M91.214 32.343c5.167-1.489 10.808-.496 17.064 2.762.963.503 1.821.108 2.494-.776 1.366-1.801 2.639-3.487 4.078-4.079 7.205-2.971 10.61 3.633 11.329 10.282 1.419 12.949-3.959 21.494-19.399 23.104-15.44 1.61-22.798-2.813-23.8-17.415-.43-6.338 3.087-12.389 8.234-13.878z" fill="#fff"/>
    <path d="M110.521 44.853c.19-.191.421-.34.676-.438a1.976 1.976 0 0 1 1.589.08c.243.123.457.295.625.504l2.593 4.53a1.17 1.17 0 0 1-.059 1.273l-2.831 3.818c-.24.25-.532.45-.856.586a2.646 2.646 0 0 1-2.056 0 2.576 2.576 0 0 1-.856-.587l-3.081-2.863a1.136 1.136 0 0 1-.211-1.419 50.695 50.695 0 0 1 4.467-5.484z" fill="#FF9C39"/>
    <path fill-rule="evenodd" clip-rule="evenodd" d="M107.67 49.867s1.379 4.314 3.755 4.314c2.204 0 3.748-4.314 3.748-4.314l-3.299-.98a1.75 1.75 0 0 0-1.023 0l-3.181.98z" fill="#F6871F"/>
    <path d="M111.44 51.735c2.268-.196 4.039-1.095 3.954-2.009-.085-.913-1.993-1.495-4.262-1.299-2.268.196-4.038 1.095-3.953 2.009.084.913 1.992 1.495 4.261 1.3z" fill="#FFA32C"/>
    <path d="M119.381 45.631c1.254-.126 2.129-1.532 1.955-3.14-.174-1.607-1.332-2.808-2.586-2.682-1.254.126-2.129 1.532-1.955 3.14.174 1.607 1.331 2.808 2.586 2.682zM99.558 49.097c1.457-.146 2.474-1.78 2.272-3.65-.203-1.87-1.548-3.268-3.005-3.12-1.457.146-2.474 1.78-2.272 3.65.203 1.87 1.548 3.267 3.005 3.12z" fill="#007F7E"/>
    <path d="M120.109 47.223c2.03-.168 3.487-2.421 3.255-5.033-.232-2.612-2.066-4.593-4.096-4.426-2.029.168-3.486 2.421-3.254 5.033.232 2.612 2.066 4.594 4.095 4.426z" fill="#007F7E"/>
    <path d="M118.244 41.46c.552-.046.958-.551.906-1.129-.051-.578-.54-1.009-1.092-.963-.552.045-.958.55-.906 1.128.051.578.54 1.01 1.092.964z" fill="#E6F8F8"/>
    <path fill-rule="evenodd" clip-rule="evenodd" d="M121.138 41.181a5.847 5.847 0 0 1-1.248 1.49c-.725.553-1.319.922-1.319.928.507.19.959.492 1.319.885.353.4.656.837.904 1.304.296-.514.641-1 1.03-1.45.406-.309.834-.59 1.28-.84a5.672 5.672 0 0 1-1.161-.828 12.215 12.215 0 0 1-.805-1.489z" fill="#FFD052"/>
    <path d="M99.623 50.719c2.102-.174 3.612-2.506 3.371-5.21-.24-2.702-2.139-4.752-4.241-4.579-2.103.174-3.612 2.506-3.372 5.21.24 2.702 2.14 4.752 4.242 4.579z" fill="#007F7E"/>
    <path d="M97.553 44.794c.552-.046.958-.551.906-1.13-.051-.577-.54-1.008-1.092-.963-.552.046-.958.551-.906 1.13.051.577.54 1.008 1.092.962z" fill="#E6F8F8"/>
    <path fill-rule="evenodd" clip-rule="evenodd" d="M100.32 44.242a6.45 6.45 0 0 1-1.412 1.686c-.819.636-1.505 1.043-1.472 1.05.573.22 1.085.564 1.498 1.005.401.45.745.946 1.023 1.476.333-.583.722-1.134 1.161-1.648.459-.346.942-.663 1.445-.948a6.82 6.82 0 0 1-1.32-.935 14.647 14.647 0 0 1-.923-1.686zM65.982 47.162s-1.9 2.584-3.616 3.36c-2.066.929-5.437.248-5.365.299.073.05 2.838.948 3.669 3.519a7.892 7.892 0 0 1-.04 4.829s2.527-3.137 3.96-3.589c1.431-.451 4.803.058 4.803.058s-2.824-1.91-3.2-3.34c-.376-1.433-.211-5.136-.211-5.136z" fill="#FFD052"/>
    <path fill-rule="evenodd" clip-rule="evenodd" d="M71.379 9.743s2.257 2.31 2.712 4.078c.54 2.113-.825 5.192-.752 5.129.072-.064 1.524-2.495 4.295-2.775a8.714 8.714 0 0 1 4.91.987s-2.7-3.01-2.87-4.454c-.172-1.445.995-4.537.995-4.537s-2.52 2.297-4.018 2.373c-1.498.077-5.272-.801-5.272-.801z" fill="#71D8B8"/>
    <path fill-rule="evenodd" clip-rule="evenodd" d="M107.05 7.242c.503.505.899 1.1 1.168 1.75a4.574 4.574 0 0 1-.323 2.201c.203-.313.472-.581.791-.787a2.759 2.759 0 0 1 1.056-.403 3.755 3.755 0 0 1 2.105.42s-1.154-1.272-1.234-1.908c.031-.67.176-1.33.429-1.954 0 0-1.082.986-1.722 1.018a14.034 14.034 0 0 1-2.27-.337z" fill="#FFD052"/>
    <path d="M136.783 76.323v-.05c-.456-4.805-3.299-10.5-11.567-16.124-3.959-2.717-9.456-4.963-11.495-3.506-1.63 1.17-1.623 4.053 2.745 8.31-3.246-.153-6.156 4.581.436 8.418-6.388 2.889.732 11.892 6.097 14.138h.052l.126.044c.405.179.833.303 1.273.37l.462.057H125.255c2.204.038 4.778-1.063 7.292-3.023 3.272-2.5 4.849-5.86 4.236-8.634z" fill="#FF9C39"/>
    <path d="M102.933 79.352c6.387-1.96 11.514-9.144 3.959-11.969 4.434-3.423 8.017-9.62 4.513-11.95-1.979-1.329-4.229-.4-6.235 1.153-5.866 4.562-9.436 7.807-26.328 13.444-6.031 1.273-10.558 5.39-10.88 10.639a10.34 10.34 0 0 0 1.424 5.866c2.376 4.155 7.457 7.292 13.527 7.808 1.801.163 3.617.073 5.391-.268 6.031-.636 12.847-5.09 15.414-9.067 1.485-2.303 1.557-4.466-.785-5.656z" fill="#007878"/>
    <path fill-rule="evenodd" clip-rule="evenodd" d="M111.418 55.434c-1.979-1.33-4.229-.401-6.235 1.152-5.88 4.562-9.45 7.807-26.341 13.444-6.031 1.273-10.558 5.39-10.88 10.639a10.34 10.34 0 0 0 1.424 5.866c6.018 6.63 20.456 5.95 34.312-1.527 1.485-2.303 1.557-4.454-.785-5.656 6.387-1.96 11.514-9.144 3.959-11.969 4.467-3.423 8.05-9.62 4.546-11.95z" fill="#008282"/>
    <path d="M107.182 67.975a.44.44 0 0 0-.132-.503.499.499 0 0 0-.66 0 19.442 19.442 0 0 1-4.381 3.08 72.974 72.974 0 0 1-7.318 3.029.482.482 0 0 0-.275.244.456.456 0 0 0-.015.36.478.478 0 0 0 .253.265.505.505 0 0 0 .374.015 71.602 71.602 0 0 0 7.456-3.086 19.8 19.8 0 0 0 4.619-3.27.474.474 0 0 0 .079-.134zM103.487 79.689a.48.48 0 0 0-.119-.49.497.497 0 0 0-.66 0 15.87 15.87 0 0 1-3.82 2.443 66.315 66.315 0 0 1-6.407 2.323.494.494 0 0 0-.285.232.46.46 0 0 0 .21.635.501.501 0 0 0 .372.03 64.824 64.824 0 0 0 6.545-2.373 16.162 16.162 0 0 0 4.045-2.596.52.52 0 0 0 .119-.204z" fill="#007878"/>
    <path d="m90.304 106.648-.871-.757.534-4.448 1.518.344-1.181 4.861z" fill="#FFA32C"/>
    <path d="M94.223 99.624c-.568 2.347-2.059 3.181-3.57 2.831-1.51-.35-2.468-1.718-1.894-4.066.574-2.348 2.257-3.983 3.768-3.64 1.511.344 2.27 2.52 1.696 4.875z" fill="#00BCBC"/>
    <path d="M85.955 110.708c2.857-2.488 3.094-4.34 3.094-4.34l2.64-.814s1.808.942 0 4.397c-1.135 2.188-2.956 4.924-4.091 4.982-2.58.133-3.016-3.029-1.643-4.225z" fill="#FFA32C"/>
    <path d="M92.125 108.315a1.58 1.58 0 0 1-.537.385 1.63 1.63 0 0 1-1.845-.385 1.94 1.94 0 0 1-.692-1.181 1.902 1.902 0 0 1 .27-1.332c.145-.174.326-.316.532-.418a1.71 1.71 0 0 1 1.922.278c.36.339.591.786.655 1.268.063.482-.044.97-.305 1.385zM95.186 107.749l1.128-.305 1.564-4.219-1.51-.337-1.182 4.861z" fill="#FFA32C"/>
    <path d="M94.903 99.776c-.568 2.348.389 3.723 1.893 4.06 1.505.337 3.003-.477 3.57-2.825.568-2.348-.185-4.537-1.696-4.874-1.51-.337-3.2 1.285-3.767 3.64z" fill="#00BCBC"/>
    <path d="M97.212 113.253c-1.419-3.455-.779-5.218-.779-5.218l-1.979-1.864s-2.052.07-2.039 3.932c0 2.45.39 5.682 1.373 6.217 2.256 1.234 4.124-1.413 3.424-3.067z" fill="#FFA32C"/>
    <path d="M92.785 108.462c.058.21.163.407.307.575.144.168.323.304.527.4a1.626 1.626 0 0 0 1.31.03c.468-.113.88-.383 1.16-.762a1.91 1.91 0 0 0 .37-1.306 1.578 1.578 0 0 0-.282-.606 1.658 1.658 0 0 0-.514-.443 1.711 1.711 0 0 0-1.341-.134 2.24 2.24 0 0 0-1.173.865 2.111 2.111 0 0 0-.364 1.381z" fill="#FFA32C"/>
    <path fill-rule="evenodd" clip-rule="evenodd" d="M174.684 125.088c6.981 0 11.659-1.273 12.537-3.621.09-.43.09-.874 0-1.304-.779-2.094-6.084-3.264-12.537-3.264-6.453 0-11.732 1.317-12.537 3.397a5.374 5.374 0 0 0 0 1.076c0 2.341 5.549 3.716 12.537 3.716z" fill="#F19F07"/>
    <path d="M175.007 123.332c6.782 0 12.28-1.439 12.28-3.214 0-1.774-5.498-3.213-12.28-3.213-6.782 0-12.279 1.439-12.279 3.213 0 1.775 5.497 3.214 12.279 3.214z" fill="#FEE34B"/>
    <path d="M175.007 122.752c5.765 0 10.439-1.31 10.439-2.926 0-1.617-4.674-2.927-10.439-2.927s-10.439 1.31-10.439 2.927c0 1.616 4.674 2.926 10.439 2.926z" fill="#F19F07"/>
    <path d="M174.704 122.167c5.597 0 10.135-1.179 10.135-2.634 0-1.455-4.538-2.634-10.135-2.634-5.598 0-10.136 1.179-10.136 2.634 0 1.455 4.538 2.634 10.136 2.634z" fill="#FEE34B"/>
    <path fill-rule="evenodd" clip-rule="evenodd" d="m167.815 117.115 1.979 5.434 6.982-.096-5.2-5.338h-3.761zM165.03 117.446l1.445 4.136h.898l-1.168-4.136h-1.175zM173.78 116.899l4.078 5.033 2.652-.268-5.899-4.765h-.831z" fill="#FFFBB6"/>
    <path fill-rule="evenodd" clip-rule="evenodd" d="M174.684 122.772c6.981 0 11.659-1.273 12.537-3.627.086-.42.086-.853 0-1.273-.779-2.093-6.084-3.264-12.537-3.264-6.453 0-11.732 1.311-12.537 3.392a5.364 5.364 0 0 0 0 1.075c0 2.316 5.549 3.697 12.537 3.697z" fill="#F19F07"/>
    <path d="M175.007 121.009c6.782 0 12.28-1.438 12.28-3.213 0-1.775-5.498-3.213-12.28-3.213-6.782 0-12.279 1.438-12.279 3.213 0 1.775 5.497 3.213 12.279 3.213z" fill="#FEE34B"/>
    <path d="M175.007 120.43c5.765 0 10.439-1.31 10.439-2.927 0-1.616-4.674-2.927-10.439-2.927s-10.439 1.311-10.439 2.927c0 1.617 4.674 2.927 10.439 2.927z" fill="#F19F07"/>
    <path d="M174.704 119.845c5.597 0 10.135-1.18 10.135-2.634 0-1.455-4.538-2.635-10.135-2.635-5.598 0-10.136 1.18-10.136 2.635 0 1.454 4.538 2.634 10.136 2.634z" fill="#FEE34B"/>
    <path fill-rule="evenodd" clip-rule="evenodd" d="m167.815 114.799 1.979 5.434 6.982-.096-5.2-5.338h-3.761zM165.03 115.13l1.445 4.129h.898l-1.168-4.129h-1.175zM173.78 114.583l4.078 5.033 2.652-.274-5.899-4.759h-.831z" fill="#FFFBB6"/>
    <path fill-rule="evenodd" clip-rule="evenodd" d="M174.684 120.456c6.981 0 11.659-1.273 12.537-3.621.09-.43.09-.874 0-1.304-.779-2.087-6.084-3.264-12.537-3.264-6.453 0-11.732 1.317-12.537 3.397a5.374 5.374 0 0 0 0 1.076c0 2.335 5.549 3.716 12.537 3.716z" fill="#F19F07"/>
    <path d="M175.007 118.693c6.782 0 12.28-1.438 12.28-3.213 0-1.775-5.498-3.213-12.28-3.213-6.782 0-12.279 1.438-12.279 3.213 0 1.775 5.497 3.213 12.279 3.213z" fill="#FEE34B"/>
    <path d="M175.007 118.114c5.765 0 10.439-1.31 10.439-2.927 0-1.616-4.674-2.927-10.439-2.927s-10.439 1.311-10.439 2.927c0 1.617 4.674 2.927 10.439 2.927z" fill="#F19F07"/>
    <path d="M174.704 117.529c5.597 0 10.135-1.18 10.135-2.635 0-1.454-4.538-2.634-10.135-2.634-5.598 0-10.136 1.18-10.136 2.634 0 1.455 4.538 2.635 10.136 2.635z" fill="#FEE34B"/>
    <path fill-rule="evenodd" clip-rule="evenodd" d="m167.815 112.483 1.979 5.427 6.982-.095-5.2-5.332h-3.761zM165.03 112.807l1.445 4.136h.898l-1.168-4.136h-1.175zM173.78 112.26l4.078 5.033 2.652-.267-5.899-4.766h-.831z" fill="#FFFBB6"/>
    <path fill-rule="evenodd" clip-rule="evenodd" d="M174.684 118.133c6.981 0 11.659-1.272 12.537-3.627.086-.42.086-.852 0-1.272-.779-2.094-6.084-3.264-12.537-3.264-6.453 0-11.732 1.31-12.537 3.391a5.364 5.364 0 0 0 0 1.075c0 2.316 5.549 3.697 12.537 3.697z" fill="#F19F07"/>
    <path d="M175.007 116.371c6.782 0 12.28-1.439 12.28-3.214 0-1.774-5.498-3.213-12.28-3.213-6.782 0-12.279 1.439-12.279 3.213 0 1.775 5.497 3.214 12.279 3.214z" fill="#FEE34B"/>
    <path d="M175.007 115.798c5.765 0 10.439-1.31 10.439-2.927 0-1.616-4.674-2.927-10.439-2.927s-10.439 1.311-10.439 2.927c0 1.617 4.674 2.927 10.439 2.927z" fill="#F19F07"/>
    <path d="M174.704 115.213c5.597 0 10.135-1.18 10.135-2.635 0-1.454-4.538-2.634-10.135-2.634-5.598 0-10.136 1.18-10.136 2.634 0 1.455 4.538 2.635 10.136 2.635z" fill="#FEE34B"/>
    <path fill-rule="evenodd" clip-rule="evenodd" d="m167.815 110.161 1.979 5.433 6.982-.095-5.2-5.338h-3.761zM165.03 110.491l1.445 4.13h.898l-1.168-4.13h-1.175zM173.78 109.944l4.078 5.033 2.652-.273-5.899-4.76h-.831z" fill="#FFFBB6"/>
    <path fill-rule="evenodd" clip-rule="evenodd" d="M174.684 115.811c6.981 0 11.659-1.273 12.537-3.621.085-.42.085-.852 0-1.272-.779-2.087-6.084-3.258-12.537-3.258-6.453 0-11.732 1.311-12.537 3.391a5.374 5.374 0 0 0 0 1.076c0 2.309 5.549 3.684 12.537 3.684z" fill="#F19F07"/>
    <path d="M175.007 114.055c6.782 0 12.28-1.439 12.28-3.213 0-1.775-5.498-3.214-12.28-3.214-6.782 0-12.279 1.439-12.279 3.214 0 1.774 5.497 3.213 12.279 3.213z" fill="#FEE34B"/>
    <path d="M175.007 113.476c5.765 0 10.439-1.311 10.439-2.927 0-1.617-4.674-2.927-10.439-2.927s-10.439 1.31-10.439 2.927c0 1.616 4.674 2.927 10.439 2.927z" fill="#F19F07"/>
    <path d="M174.704 112.89c5.597 0 10.135-1.179 10.135-2.634 0-1.455-4.538-2.634-10.135-2.634-5.598 0-10.136 1.179-10.136 2.634 0 1.455 4.538 2.634 10.136 2.634z" fill="#FEE34B"/>
    <path fill-rule="evenodd" clip-rule="evenodd" d="m167.815 107.844 1.979 5.428 6.982-.089-5.2-5.339h-3.761zM165.03 108.169l1.445 4.136h.898l-1.168-4.136h-1.175zM173.78 107.628l4.078 5.027 2.652-.267-5.899-4.76h-.831z" fill="#FFFBB6"/>
    <path fill-rule="evenodd" clip-rule="evenodd" d="M174.684 113.495c6.981 0 11.659-1.305 12.537-3.627.086-.42.086-.853 0-1.273-.779-2.093-6.084-3.264-12.537-3.264-6.453 0-11.732 1.311-12.537 3.392a5.364 5.364 0 0 0 0 1.075c0 2.316 5.549 3.697 12.537 3.697z" fill="#F19F07"/>
    <path d="M175.007 111.739c6.782 0 12.28-1.439 12.28-3.214 0-1.774-5.498-3.213-12.28-3.213-6.782 0-12.279 1.439-12.279 3.213 0 1.775 5.497 3.214 12.279 3.214z" fill="#FEE34B"/>
    <path d="M175.007 111.159c5.765 0 10.439-1.31 10.439-2.926 0-1.617-4.674-2.927-10.439-2.927s-10.439 1.31-10.439 2.927c0 1.616 4.674 2.926 10.439 2.926z" fill="#F19F07"/>
    <path d="M174.704 110.574c5.597 0 10.135-1.179 10.135-2.634 0-1.455-4.538-2.634-10.135-2.634-5.598 0-10.136 1.179-10.136 2.634 0 1.455 4.538 2.634 10.136 2.634z" fill="#FEE34B"/>
    <path fill-rule="evenodd" clip-rule="evenodd" d="m167.815 105.522 1.979 5.434 6.982-.096-5.2-5.338h-3.761zM165.03 105.853l1.445 4.129h.898l-1.168-4.129h-1.175zM173.78 105.306l4.078 5.033 2.652-.274-5.899-4.759h-.831z" fill="#FFFBB6"/>
    <path fill-rule="evenodd" clip-rule="evenodd" d="M174.684 111.172c6.981 0 11.659-1.272 12.537-3.62.086-.42.086-.853 0-1.273-.779-2.093-6.084-3.264-12.537-3.264-6.453 0-11.732 1.311-12.537 3.391a5.374 5.374 0 0 0 0 1.076c0 2.316 5.549 3.69 12.537 3.69z" fill="#F19F07"/>
    <path d="M175.007 109.416c6.782 0 12.28-1.438 12.28-3.213 0-1.775-5.498-3.213-12.28-3.213-6.782 0-12.279 1.438-12.279 3.213 0 1.775 5.497 3.213 12.279 3.213z" fill="#FEE34B"/>
    <path d="M175.007 108.837c5.765 0 10.439-1.31 10.439-2.927 0-1.616-4.674-2.927-10.439-2.927s-10.439 1.311-10.439 2.927c0 1.617 4.674 2.927 10.439 2.927z" fill="#F19F07"/>
    <path d="M174.704 108.252c5.597 0 10.135-1.18 10.135-2.635 0-1.454-4.538-2.634-10.135-2.634-5.598 0-10.136 1.18-10.136 2.634 0 1.455 4.538 2.635 10.136 2.635z" fill="#FEE34B"/>
    <path fill-rule="evenodd" clip-rule="evenodd" d="m167.815 103.206 1.979 5.427 6.982-.089-5.2-5.338h-3.761zM165.03 103.531l1.445 4.135h.898l-1.168-4.135h-1.175zM173.78 102.99l4.078 5.026 2.652-.267-5.899-4.759h-.831z" fill="#FFFBB6"/>
    <path fill-rule="evenodd" clip-rule="evenodd" d="M174.684 108.856c6.981 0 11.659-1.304 12.537-3.627.086-.42.086-.852 0-1.272-.779-2.094-6.084-3.264-12.537-3.264-6.453 0-11.732 1.317-12.537 3.391a5.364 5.364 0 0 0 0 1.075c0 2.316 5.549 3.697 12.537 3.697z" fill="#F19F07"/>
    <path d="M175.007 107.1c6.782 0 12.28-1.438 12.28-3.213 0-1.775-5.498-3.213-12.28-3.213-6.782 0-12.279 1.438-12.279 3.213 0 1.775 5.497 3.213 12.279 3.213z" fill="#FEE34B"/>
    <path d="M175.007 106.521c5.765 0 10.439-1.311 10.439-2.927s-4.674-2.927-10.439-2.927-10.439 1.311-10.439 2.927 4.674 2.927 10.439 2.927z" fill="#F19F07"/>
    <path d="M174.704 105.936c5.597 0 10.135-1.18 10.135-2.635 0-1.455-4.538-2.634-10.135-2.634-5.598 0-10.136 1.179-10.136 2.634 0 1.455 4.538 2.635 10.136 2.635z" fill="#FEE34B"/>
    <path fill-rule="evenodd" clip-rule="evenodd" d="m167.815 100.884 1.979 5.433 6.982-.095-5.2-5.338h-3.761zM165.03 101.214l1.445 4.13h.898l-1.168-4.13h-1.175zM173.78 100.667l4.078 5.033 2.652-.273-5.899-4.76h-.831z" fill="#FFFBB6"/>
    <path fill-rule="evenodd" clip-rule="evenodd" d="M174.684 106.534c6.981 0 11.659-1.273 12.537-3.621.086-.42.086-.852 0-1.272-.779-2.094-6.084-3.264-12.537-3.264-6.453 0-11.732 1.31-12.537 3.391a5.364 5.364 0 0 0 0 1.075c0 2.342 5.549 3.691 12.537 3.691z" fill="#F19F07"/>
    <path d="M175.007 104.778c6.782 0 12.28-1.439 12.28-3.214 0-1.774-5.498-3.213-12.28-3.213-6.782 0-12.279 1.439-12.279 3.213 0 1.775 5.497 3.214 12.279 3.214z" fill="#FEE34B"/>
    <path d="M175.007 104.199c5.765 0 10.439-1.311 10.439-2.927 0-1.617-4.674-2.927-10.439-2.927s-10.439 1.31-10.439 2.927c0 1.616 4.674 2.927 10.439 2.927z" fill="#F19F07"/>
    <path d="M174.704 103.613c5.597 0 10.135-1.179 10.135-2.634 0-1.455-4.538-2.634-10.135-2.634-5.598 0-10.136 1.18-10.136 2.634 0 1.455 4.538 2.634 10.136 2.634z" fill="#FEE34B"/>
    <path fill-rule="evenodd" clip-rule="evenodd" d="m167.815 98.567 1.979 5.428 6.982-.089-5.2-5.339h-3.761zM165.03 98.898l1.445 4.13h.898l-1.168-4.13h-1.175zM173.78 98.351l4.078 5.027 2.652-.267-5.899-4.76h-.831z" fill="#FFFBB6"/>
    <path fill-rule="evenodd" clip-rule="evenodd" d="M174.684 104.218c6.981 0 11.659-1.273 12.537-3.627.086-.42.086-.853 0-1.273-.779-2.093-6.084-3.264-12.537-3.264-6.453 0-11.732 1.317-12.537 3.392-.036.36-.036.722 0 1.081 0 2.316 5.549 3.691 12.537 3.691z" fill="#F19F07"/>
    <path d="M175.007 102.462c6.782 0 12.28-1.439 12.28-3.213 0-1.775-5.498-3.214-12.28-3.214-6.782 0-12.279 1.439-12.279 3.214 0 1.774 5.497 3.213 12.279 3.213z" fill="#FEE34B"/>
    <path d="M175.007 101.883c5.765 0 10.439-1.311 10.439-2.927 0-1.617-4.674-2.927-10.439-2.927s-10.439 1.31-10.439 2.927c0 1.616 4.674 2.927 10.439 2.927z" fill="#F19F07"/>
    <path d="M174.704 101.297c5.597 0 10.135-1.179 10.135-2.634 0-1.455-4.538-2.634-10.135-2.634-5.598 0-10.136 1.18-10.136 2.634 0 1.455 4.538 2.634 10.136 2.634z" fill="#FEE34B"/>
    <path fill-rule="evenodd" clip-rule="evenodd" d="m167.815 96.245 1.979 5.434 6.982-.096-5.2-5.338h-3.761zM165.03 96.576l1.445 4.136h.898l-1.168-4.136h-1.175zM173.78 96.029l4.078 5.033 2.652-.267-5.899-4.766h-.831z" fill="#FFFBB6"/>
    <path fill-rule="evenodd" clip-rule="evenodd" d="M174.684 101.895c6.981 0 11.659-1.272 12.537-3.62a3.17 3.17 0 0 0 0-1.273c-.779-2.093-6.084-3.264-12.537-3.264-6.453 0-11.732 1.31-12.537 3.391a5.368 5.368 0 0 0 0 1.076c0 2.316 5.549 3.69 12.537 3.69z" fill="#F19F07"/>
    <path d="M175.007 100.139c6.782 0 12.28-1.438 12.28-3.213 0-1.775-5.498-3.213-12.28-3.213-6.782 0-12.279 1.438-12.279 3.213 0 1.775 5.497 3.213 12.279 3.213z" fill="#FEE34B"/>
    <path d="M175.007 99.56c5.765 0 10.439-1.31 10.439-2.927 0-1.616-4.674-2.927-10.439-2.927s-10.439 1.31-10.439 2.927 4.674 2.927 10.439 2.927z" fill="#F19F07"/>
    <path d="M174.704 98.975c5.597 0 10.135-1.18 10.135-2.634 0-1.455-4.538-2.635-10.135-2.635-5.598 0-10.136 1.18-10.136 2.635 0 1.454 4.538 2.634 10.136 2.634z" fill="#FEE34B"/>
    <path fill-rule="evenodd" clip-rule="evenodd" d="m167.815 93.929 1.979 5.427 6.982-.089-5.2-5.338h-3.761zM165.03 94.26l1.445 4.13h.898l-1.168-4.13h-1.175zM173.78 93.713l4.078 5.033 2.652-.274-5.899-4.76h-.831z" fill="#FFFBB6"/>
    <path fill-rule="evenodd" clip-rule="evenodd" d="M174.684 99.58c6.981 0 11.659-1.273 12.537-3.621.09-.43.09-.874 0-1.305-.779-2.093-6.084-3.264-12.537-3.264-6.453 0-11.732 1.317-12.537 3.398a5.367 5.367 0 0 0 0 1.075c0 2.323 5.549 3.716 12.537 3.716z" fill="#F19F07"/>
    <path d="M175.007 97.823c6.782 0 12.28-1.438 12.28-3.213 0-1.775-5.498-3.213-12.28-3.213-6.782 0-12.279 1.438-12.279 3.213 0 1.775 5.497 3.213 12.279 3.213z" fill="#FEE34B"/>
    <path d="M175.007 97.244c5.765 0 10.439-1.31 10.439-2.927 0-1.616-4.674-2.927-10.439-2.927s-10.439 1.31-10.439 2.927 4.674 2.927 10.439 2.927z" fill="#F19F07"/>
    <path d="M174.704 96.659c5.597 0 10.135-1.18 10.135-2.635 0-1.454-4.538-2.634-10.135-2.634-5.598 0-10.136 1.18-10.136 2.635 0 1.454 4.538 2.634 10.136 2.634z" fill="#FEE34B"/>
    <path fill-rule="evenodd" clip-rule="evenodd" d="m167.815 91.606 1.979 5.434 6.982-.095-5.2-5.339h-3.761zM165.03 91.938l1.445 4.135h.898l-1.168-4.135h-1.175zM173.78 91.39l4.078 5.033 2.652-.267-5.899-4.766h-.831z" fill="#FFFBB6"/>
    <path fill-rule="evenodd" clip-rule="evenodd" d="M174.684 113.577c6.981 0 11.659-1.272 12.537-3.62.086-.42.086-.853 0-1.273-.779-2.093-6.084-3.264-12.537-3.264-6.453 0-11.732 1.311-12.537 3.392a5.364 5.364 0 0 0 0 1.075c0 2.297 5.549 3.69 12.537 3.69z" fill="#F19F07"/>
    <path d="M175.007 111.821c6.782 0 12.28-1.438 12.28-3.213 0-1.775-5.498-3.213-12.28-3.213-6.782 0-12.279 1.438-12.279 3.213 0 1.775 5.497 3.213 12.279 3.213z" fill="#FEE34B"/>
    <path d="M175.007 111.242c5.765 0 10.439-1.31 10.439-2.927 0-1.616-4.674-2.927-10.439-2.927s-10.439 1.311-10.439 2.927c0 1.617 4.674 2.927 10.439 2.927z" fill="#F19F07"/>
    <path d="M174.704 110.657c5.597 0 10.135-1.18 10.135-2.634 0-1.455-4.538-2.635-10.135-2.635-5.598 0-10.136 1.18-10.136 2.635 0 1.454 4.538 2.634 10.136 2.634z" fill="#FEE34B"/>
    <path fill-rule="evenodd" clip-rule="evenodd" d="m167.815 105.611 1.979 5.427 6.982-.089-5.2-5.338h-3.761zM165.03 105.935l1.445 4.136h.898l-1.168-4.136h-1.175zM173.78 105.395l4.078 5.026 2.652-.267-5.899-4.759h-.831z" fill="#FFFBB6"/>
    <path fill-rule="evenodd" clip-rule="evenodd" d="M174.684 111.261c6.981 0 11.659-1.304 12.537-3.627.086-.42.086-.852 0-1.272-.779-2.094-6.084-3.264-12.537-3.264-6.453 0-11.732 1.317-12.537 3.391-.036.36-.036.722 0 1.082 0 2.309 5.549 3.69 12.537 3.69z" fill="#F19F07"/>
    <path d="M175.007 109.505c6.782 0 12.28-1.438 12.28-3.213 0-1.775-5.498-3.213-12.28-3.213-6.782 0-12.279 1.438-12.279 3.213 0 1.775 5.497 3.213 12.279 3.213z" fill="#FEE34B"/>
    <path d="M175.007 108.926c5.765 0 10.439-1.31 10.439-2.927 0-1.616-4.674-2.927-10.439-2.927s-10.439 1.311-10.439 2.927c0 1.617 4.674 2.927 10.439 2.927z" fill="#F19F07"/>
    <path d="M174.704 108.341c5.597 0 10.135-1.18 10.135-2.635 0-1.454-4.538-2.634-10.135-2.634-5.598 0-10.136 1.18-10.136 2.634 0 1.455 4.538 2.635 10.136 2.635z" fill="#FEE34B"/>
    <path fill-rule="evenodd" clip-rule="evenodd" d="m167.815 103.289 1.979 5.434 6.982-.096-5.2-5.338h-3.761zM165.03 103.62l1.445 4.129h.898l-1.168-4.129h-1.175zM173.78 103.072l4.078 5.033 2.652-.273-5.899-4.76h-.831z" fill="#FFFBB6"/>
    <path fill-rule="evenodd" clip-rule="evenodd" d="M174.684 108.939c6.981 0 11.659-1.273 12.537-3.621.086-.42.086-.852 0-1.272-.779-2.094-6.084-3.264-12.537-3.264-6.453 0-11.732 1.31-12.537 3.391a5.364 5.364 0 0 0 0 1.075c0 2.316 5.549 3.691 12.537 3.691z" fill="#F19F07"/>
    <path d="M175.007 107.183c6.782 0 12.28-1.439 12.28-3.214 0-1.774-5.498-3.213-12.28-3.213-6.782 0-12.279 1.439-12.279 3.213 0 1.775 5.497 3.214 12.279 3.214z" fill="#FEE34B"/>
    <path d="M175.007 106.604c5.765 0 10.439-1.311 10.439-2.927 0-1.617-4.674-2.927-10.439-2.927s-10.439 1.31-10.439 2.927c0 1.616 4.674 2.927 10.439 2.927z" fill="#F19F07"/>
    <path d="M174.704 106.018c5.597 0 10.135-1.179 10.135-2.634 0-1.455-4.538-2.634-10.135-2.634-5.598 0-10.136 1.179-10.136 2.634 0 1.455 4.538 2.634 10.136 2.634z" fill="#FEE34B"/>
    <path fill-rule="evenodd" clip-rule="evenodd" d="m167.815 100.972 1.979 5.428 6.982-.089-5.2-5.339h-3.761zM165.03 101.303l1.445 4.13h.898l-1.168-4.13h-1.175zM173.78 100.756l4.078 5.027 2.652-.267-5.899-4.76h-.831z" fill="#FFFBB6"/>
    <path fill-rule="evenodd" clip-rule="evenodd" d="M174.684 106.623c6.981 0 11.659-1.273 12.537-3.627.086-.42.086-.853 0-1.273-.779-2.093-6.084-3.264-12.537-3.264-6.453 0-11.732 1.317-12.537 3.392a5.424 5.424 0 0 0 0 1.081c0 2.316 5.549 3.691 12.537 3.691z" fill="#F19F07"/>
    <path d="M175.007 104.867c6.782 0 12.28-1.439 12.28-3.213 0-1.775-5.498-3.214-12.28-3.214-6.782 0-12.279 1.439-12.279 3.214 0 1.774 5.497 3.213 12.279 3.213z" fill="#FEE34B"/>
    <path d="M175.007 104.288c5.765 0 10.439-1.311 10.439-2.927 0-1.617-4.674-2.927-10.439-2.927s-10.439 1.31-10.439 2.927c0 1.616 4.674 2.927 10.439 2.927z" fill="#F19F07"/>
    <path d="M174.704 103.702c5.597 0 10.135-1.179 10.135-2.634 0-1.455-4.538-2.634-10.135-2.634-5.598 0-10.136 1.18-10.136 2.634 0 1.455 4.538 2.634 10.136 2.634z" fill="#FEE34B"/>
    <path fill-rule="evenodd" clip-rule="evenodd" d="m167.815 98.65 1.979 5.434 6.982-.095-5.2-5.339h-3.761zM165.03 98.981l1.445 4.136h.898l-1.168-4.136h-1.175zM173.78 98.434l4.078 5.033 2.652-.267-5.899-4.766h-.831z" fill="#FFFBB6"/>
    <path fill-rule="evenodd" clip-rule="evenodd" d="M174.684 104.3c6.981 0 11.659-1.272 12.537-3.62.086-.42.086-.853 0-1.273-.779-2.093-6.084-3.264-12.537-3.264-6.453 0-11.732 1.31-12.537 3.392a5.368 5.368 0 0 0 0 1.075c0 2.316 5.549 3.69 12.537 3.69z" fill="#F19F07"/>
    <path d="M175.007 102.544c6.782 0 12.28-1.438 12.28-3.213 0-1.775-5.498-3.213-12.28-3.213-6.782 0-12.279 1.439-12.279 3.213 0 1.775 5.497 3.213 12.279 3.213z" fill="#FEE34B"/>
    <path d="M175.007 101.965c5.765 0 10.439-1.31 10.439-2.927 0-1.616-4.674-2.927-10.439-2.927s-10.439 1.31-10.439 2.927 4.674 2.927 10.439 2.927z" fill="#F19F07"/>
    <path d="M174.704 101.38c5.597 0 10.135-1.18 10.135-2.634 0-1.455-4.538-2.635-10.135-2.635-5.598 0-10.136 1.18-10.136 2.635 0 1.454 4.538 2.634 10.136 2.634z" fill="#FEE34B"/>
    <path fill-rule="evenodd" clip-rule="evenodd" d="m167.815 96.334 1.979 5.434 6.982-.096-5.2-5.338h-3.761zM165.03 96.665l1.445 4.13h.898l-1.168-4.13h-1.175zM173.78 96.118l4.078 5.033 2.652-.274-5.899-4.76h-.831z" fill="#FFFBB6"/>
    <path fill-rule="evenodd" clip-rule="evenodd" d="M174.684 102.003c6.981 0 11.659-1.272 12.537-3.62.09-.43.09-.874 0-1.304-.779-2.094-6.084-3.265-12.537-3.265-6.453 0-11.732 1.317-12.537 3.398a5.367 5.367 0 0 0 0 1.075c0 2.323 5.549 3.716 12.537 3.716z" fill="#F19F07"/>
    <path d="M175.007 100.228c6.782 0 12.28-1.438 12.28-3.213 0-1.775-5.498-3.213-12.28-3.213-6.782 0-12.279 1.438-12.279 3.213 0 1.775 5.497 3.213 12.279 3.213z" fill="#FEE34B"/>
    <path d="M175.007 99.65c5.765 0 10.439-1.311 10.439-2.928 0-1.616-4.674-2.927-10.439-2.927s-10.439 1.31-10.439 2.927 4.674 2.927 10.439 2.927z" fill="#F19F07"/>
    <path d="M174.704 99.064c5.597 0 10.135-1.18 10.135-2.634 0-1.455-4.538-2.635-10.135-2.635-5.598 0-10.136 1.18-10.136 2.635 0 1.454 4.538 2.634 10.136 2.634z" fill="#FEE34B"/>
    <path fill-rule="evenodd" clip-rule="evenodd" d="m167.815 94.012 1.979 5.433 6.982-.095-5.2-5.338h-3.761zM165.03 94.343l1.445 4.135h.898l-1.168-4.135h-1.175zM173.78 93.795l4.078 5.033 2.652-.267-5.899-4.766h-.831z" fill="#FFFBB6"/>
    <path fill-rule="evenodd" clip-rule="evenodd" d="M174.684 99.668c6.981 0 11.659-1.304 12.537-3.627a3.17 3.17 0 0 0 0-1.272c-.779-2.094-6.084-3.264-12.537-3.264-6.453 0-11.732 1.31-12.537 3.391a5.367 5.367 0 0 0 0 1.075c0 2.316 5.549 3.697 12.537 3.697z" fill="#F19F07"/>
    <path d="M175.007 97.906c6.782 0 12.28-1.439 12.28-3.213 0-1.775-5.498-3.214-12.28-3.214-6.782 0-12.279 1.439-12.279 3.214 0 1.774 5.497 3.213 12.279 3.213z" fill="#FEE34B"/>
    <path d="M175.007 97.327c5.765 0 10.439-1.31 10.439-2.927s-4.674-2.927-10.439-2.927-10.439 1.31-10.439 2.927c0 1.616 4.674 2.927 10.439 2.927z" fill="#F19F07"/>
    <path d="M174.704 96.741c5.597 0 10.135-1.18 10.135-2.634 0-1.455-4.538-2.634-10.135-2.634-5.598 0-10.136 1.18-10.136 2.634 0 1.455 4.538 2.634 10.136 2.634z" fill="#FEE34B"/>
    <path fill-rule="evenodd" clip-rule="evenodd" d="m167.815 91.695 1.979 5.434 6.982-.095-5.2-5.339h-3.761zM165.03 92.026l1.445 4.13h.898l-1.168-4.13h-1.175zM173.78 91.48l4.078 5.032 2.652-.273-5.899-4.76h-.831z" fill="#FFFBB6"/>
    <path fill-rule="evenodd" clip-rule="evenodd" d="M174.684 97.346c6.981 0 11.659-1.273 12.537-3.62.09-.431.09-.875 0-1.305-.779-2.087-6.084-3.264-12.537-3.264-6.453 0-11.732 1.317-12.537 3.398a5.367 5.367 0 0 0 0 1.075c0 2.341 5.549 3.716 12.537 3.716z" fill="#F19F07"/>
    <path d="M175.007 95.59c6.782 0 12.28-1.439 12.28-3.214 0-1.774-5.498-3.213-12.28-3.213-6.782 0-12.279 1.439-12.279 3.213 0 1.775 5.497 3.214 12.279 3.214z" fill="#FEE34B"/>
    <path d="M175.007 95.01c5.765 0 10.439-1.31 10.439-2.926 0-1.617-4.674-2.927-10.439-2.927s-10.439 1.31-10.439 2.927c0 1.616 4.674 2.926 10.439 2.926z" fill="#F19F07"/>
    <path d="M174.704 94.425c5.597 0 10.135-1.18 10.135-2.634 0-1.455-4.538-2.634-10.135-2.634-5.598 0-10.136 1.18-10.136 2.634 0 1.455 4.538 2.634 10.136 2.634z" fill="#FEE34B"/>
    <path fill-rule="evenodd" clip-rule="evenodd" d="m167.815 89.38 1.979 5.427 6.982-.096-5.2-5.332h-3.761zM165.03 89.704l1.445 4.136h.898l-1.168-4.136h-1.175zM173.78 89.157l4.078 5.033 2.652-.267-5.899-4.766h-.831z" fill="#FFFBB6"/>
    <path fill-rule="evenodd" clip-rule="evenodd" d="M174.684 95.004c6.981 0 11.659-1.272 12.537-3.627a3.17 3.17 0 0 0 0-1.272c-.779-2.093-6.084-3.264-12.537-3.264-6.453 0-11.732 1.31-12.537 3.391a5.367 5.367 0 0 0 0 1.076c0 2.341 5.549 3.696 12.537 3.696z" fill="#F19F07"/>
    <path d="M175.007 93.267c6.782 0 12.28-1.438 12.28-3.213 0-1.775-5.498-3.213-12.28-3.213-6.782 0-12.279 1.438-12.279 3.213 0 1.775 5.497 3.213 12.279 3.213z" fill="#FEE34B"/>
    <path d="M175.007 92.688c5.765 0 10.439-1.31 10.439-2.927 0-1.616-4.674-2.927-10.439-2.927s-10.439 1.31-10.439 2.927 4.674 2.927 10.439 2.927z" fill="#F19F07"/>
    <path d="M174.704 92.11c5.597 0 10.135-1.18 10.135-2.635 0-1.455-4.538-2.634-10.135-2.634-5.598 0-10.136 1.18-10.136 2.634 0 1.455 4.538 2.634 10.136 2.634z" fill="#FEE34B"/>
    <path fill-rule="evenodd" clip-rule="evenodd" d="m167.815 87.057 1.979 5.434 6.982-.096-5.2-5.338h-3.761zM165.03 87.388l1.445 4.13h.898l-1.168-4.13h-1.175zM173.78 86.84l4.078 5.034 2.652-.274-5.899-4.76h-.831z" fill="#FFFBB6"/>
    <path fill-rule="evenodd" clip-rule="evenodd" d="M174.684 92.707c6.981 0 11.659-1.272 12.537-3.62.085-.42.085-.853 0-1.273-.779-2.087-6.084-3.257-12.537-3.257-6.453 0-11.732 1.31-12.537 3.39a5.367 5.367 0 0 0 0 1.076c0 2.31 5.549 3.684 12.537 3.684z" fill="#F19F07"/>
    <path d="M175.007 90.951c6.782 0 12.28-1.438 12.28-3.213 0-1.775-5.498-3.213-12.28-3.213-6.782 0-12.279 1.438-12.279 3.213 0 1.775 5.497 3.213 12.279 3.213z" fill="#FEE34B"/>
    <path d="M175.007 90.372c5.765 0 10.439-1.31 10.439-2.927 0-1.616-4.674-2.927-10.439-2.927s-10.439 1.31-10.439 2.927 4.674 2.927 10.439 2.927z" fill="#F19F07"/>
    <path d="M174.704 89.787c5.597 0 10.135-1.18 10.135-2.635 0-1.454-4.538-2.634-10.135-2.634-5.598 0-10.136 1.18-10.136 2.635 0 1.454 4.538 2.634 10.136 2.634z" fill="#FEE34B"/>
    <path fill-rule="evenodd" clip-rule="evenodd" d="m167.815 84.741 1.979 5.427 6.982-.089-5.2-5.338h-3.761zM165.03 85.065l1.445 4.136h.898l-1.168-4.136h-1.175zM173.78 84.525l4.078 5.026 2.652-.267-5.899-4.76h-.831z" fill="#FFFBB6"/>
    <path fill-rule="evenodd" clip-rule="evenodd" d="M174.684 90.391c6.981 0 11.659-1.304 12.537-3.627a3.17 3.17 0 0 0 0-1.272c-.779-2.094-6.084-3.264-12.537-3.264-6.453 0-11.732 1.31-12.537 3.391a5.368 5.368 0 0 0 0 1.075c0 2.316 5.549 3.697 12.537 3.697z" fill="#F19F07"/>
    <path d="M175.007 88.635c6.782 0 12.28-1.438 12.28-3.213 0-1.775-5.498-3.213-12.28-3.213-6.782 0-12.279 1.438-12.279 3.213 0 1.775 5.497 3.213 12.279 3.213z" fill="#FEE34B"/>
    <path d="M175.007 88.056c5.765 0 10.439-1.31 10.439-2.927 0-1.616-4.674-2.927-10.439-2.927s-10.439 1.31-10.439 2.927 4.674 2.927 10.439 2.927z" fill="#F19F07"/>
    <path d="M174.704 87.47c5.597 0 10.135-1.179 10.135-2.633 0-1.455-4.538-2.635-10.135-2.635-5.598 0-10.136 1.18-10.136 2.635 0 1.454 4.538 2.634 10.136 2.634z" fill="#FEE34B"/>
    <path fill-rule="evenodd" clip-rule="evenodd" d="m167.815 82.419 1.979 5.433 6.982-.095-5.2-5.338h-3.761zM165.03 82.75l1.445 4.129h.898l-1.168-4.13h-1.175zM173.78 82.202l4.078 5.033 2.652-.273-5.899-4.76h-.831z" fill="#FFFBB6"/>
    <path fill-rule="evenodd" clip-rule="evenodd" d="M174.684 88.069c6.981 0 11.659-1.273 12.537-3.62.085-.42.085-.853 0-1.273-.779-2.087-6.084-3.258-12.537-3.258-6.453 0-11.732 1.31-12.537 3.391a5.367 5.367 0 0 0 0 1.076c0 2.31 5.549 3.684 12.537 3.684z" fill="#F19F07"/>
    <path d="M175.007 86.313c6.782 0 12.28-1.439 12.28-3.213 0-1.775-5.498-3.214-12.28-3.214-6.782 0-12.279 1.439-12.279 3.214 0 1.774 5.497 3.213 12.279 3.213z" fill="#FEE34B"/>
    <path d="M175.007 85.734c5.765 0 10.439-1.31 10.439-2.927s-4.674-2.927-10.439-2.927-10.439 1.31-10.439 2.927c0 1.616 4.674 2.927 10.439 2.927z" fill="#F19F07"/>
    <path d="M174.704 85.148c5.597 0 10.135-1.18 10.135-2.634 0-1.455-4.538-2.634-10.135-2.634-5.598 0-10.136 1.18-10.136 2.634 0 1.455 4.538 2.634 10.136 2.634z" fill="#FEE34B"/>
    <path fill-rule="evenodd" clip-rule="evenodd" d="m167.815 80.102 1.979 5.428 6.982-.09-5.2-5.338h-3.761zM165.03 80.427l1.445 4.136h.898l-1.168-4.136h-1.175zM173.78 79.886l4.078 5.027 2.652-.267-5.899-4.76h-.831z" fill="#FFFBB6"/>
    <path fill-rule="evenodd" clip-rule="evenodd" d="M174.684 85.753c6.981 0 11.659-1.305 12.537-3.627a3.17 3.17 0 0 0 0-1.273c-.779-2.093-6.084-3.264-12.537-3.264-6.453 0-11.732 1.317-12.537 3.392a5.367 5.367 0 0 0 0 1.075c0 2.316 5.549 3.697 12.537 3.697z" fill="#F19F07"/>
    <path d="M175.007 83.997c6.782 0 12.28-1.439 12.28-3.214 0-1.774-5.498-3.213-12.28-3.213-6.782 0-12.279 1.439-12.279 3.213 0 1.775 5.497 3.214 12.279 3.214z" fill="#FEE34B"/>
    <path d="M175.007 83.418c5.765 0 10.439-1.31 10.439-2.927s-4.674-2.927-10.439-2.927-10.439 1.31-10.439 2.927c0 1.616 4.674 2.927 10.439 2.927z" fill="#F19F07"/>
    <path d="M174.704 82.832c5.597 0 10.135-1.18 10.135-2.634 0-1.455-4.538-2.634-10.135-2.634-5.598 0-10.136 1.18-10.136 2.634 0 1.455 4.538 2.634 10.136 2.634z" fill="#FEE34B"/>
    <path fill-rule="evenodd" clip-rule="evenodd" d="m167.815 77.78 1.979 5.434 6.982-.096-5.2-5.338h-3.761zM165.03 78.111l1.445 4.13h.898l-1.168-4.13h-1.175zM173.78 77.564l4.078 5.033 2.652-.267-5.899-4.766h-.831z" fill="#FFFBB6"/>
    <path fill-rule="evenodd" clip-rule="evenodd" d="M174.684 83.43c6.981 0 11.659-1.272 12.537-3.62a3.17 3.17 0 0 0 0-1.273c-.779-2.093-6.084-3.264-12.537-3.264-6.453 0-11.732 1.31-12.537 3.392a5.367 5.367 0 0 0 0 1.075c0 2.316 5.549 3.69 12.537 3.69z" fill="#F19F07"/>
    <path d="M175.007 81.674c6.782 0 12.28-1.438 12.28-3.213 0-1.775-5.498-3.213-12.28-3.213-6.782 0-12.279 1.438-12.279 3.213 0 1.775 5.497 3.213 12.279 3.213z" fill="#FEE34B"/>
    <path d="M175.007 81.095c5.765 0 10.439-1.31 10.439-2.927 0-1.616-4.674-2.927-10.439-2.927s-10.439 1.31-10.439 2.927 4.674 2.927 10.439 2.927z" fill="#F19F07"/>
    <path d="M174.704 80.51c5.597 0 10.135-1.18 10.135-2.635 0-1.454-4.538-2.634-10.135-2.634-5.598 0-10.136 1.18-10.136 2.635 0 1.454 4.538 2.634 10.136 2.634z" fill="#FEE34B"/>
    <path fill-rule="evenodd" clip-rule="evenodd" d="m167.815 75.464 1.979 5.427 6.982-.089-5.2-5.338h-3.761zM165.03 75.795l1.445 4.13h.898l-1.168-4.13h-1.175zM173.78 75.248l4.078 5.033 2.652-.274-5.899-4.76h-.831z" fill="#FFFBB6"/>
    <path fill-rule="evenodd" clip-rule="evenodd" d="M174.684 81.114c6.981 0 11.659-1.272 12.537-3.627a3.17 3.17 0 0 0 0-1.272c-.779-2.093-6.084-3.264-12.537-3.264-6.453 0-11.732 1.317-12.537 3.391a5.43 5.43 0 0 0 0 1.082c0 2.31 5.549 3.69 12.537 3.69z" fill="#F19F07"/>
    <path d="M175.007 79.358c6.782 0 12.28-1.438 12.28-3.213 0-1.775-5.498-3.213-12.28-3.213-6.782 0-12.279 1.438-12.279 3.213 0 1.775 5.497 3.213 12.279 3.213z" fill="#FEE34B"/>
    <path d="M175.007 78.78c5.765 0 10.439-1.311 10.439-2.928 0-1.616-4.674-2.927-10.439-2.927s-10.439 1.31-10.439 2.927 4.674 2.927 10.439 2.927z" fill="#F19F07"/>
    <path d="M174.704 78.194c5.597 0 10.135-1.18 10.135-2.635 0-1.454-4.538-2.634-10.135-2.634-5.598 0-10.136 1.18-10.136 2.635 0 1.454 4.538 2.634 10.136 2.634z" fill="#FEE34B"/>
    <path fill-rule="evenodd" clip-rule="evenodd" d="m167.815 73.142 1.979 5.434 6.982-.096-5.2-5.338h-3.761zM165.03 73.472l1.445 4.136h.898l-1.168-4.136h-1.175zM173.78 72.925l4.078 5.033 2.652-.267-5.899-4.766h-.831z" fill="#FFFBB6"/>
    <path fill-rule="evenodd" clip-rule="evenodd" d="M174.684 78.792c6.981 0 11.659-1.273 12.537-3.62a3.17 3.17 0 0 0 0-1.273c-.779-2.094-6.084-3.264-12.537-3.264-6.453 0-11.732 1.31-12.537 3.391a5.367 5.367 0 0 0 0 1.075c0 2.316 5.549 3.69 12.537 3.69z" fill="#F19F07"/>
    <path d="M175.007 77.036c6.782 0 12.28-1.439 12.28-3.213 0-1.775-5.498-3.214-12.28-3.214-6.782 0-12.279 1.439-12.279 3.214 0 1.774 5.497 3.213 12.279 3.213z" fill="#FEE34B"/>
    <path d="M175.007 76.457c5.765 0 10.439-1.31 10.439-2.927s-4.674-2.927-10.439-2.927-10.439 1.31-10.439 2.927c0 1.616 4.674 2.927 10.439 2.927z" fill="#F19F07"/>
    <path d="M174.704 75.871c5.597 0 10.135-1.18 10.135-2.634 0-1.455-4.538-2.634-10.135-2.634-5.598 0-10.136 1.18-10.136 2.634 0 1.455 4.538 2.634 10.136 2.634z" fill="#FEE34B"/>
    <path fill-rule="evenodd" clip-rule="evenodd" d="m167.815 70.826 1.979 5.427 6.982-.089-5.2-5.338h-3.761zM165.03 71.156l1.445 4.13h.898l-1.168-4.13h-1.175zM173.78 70.61l4.078 5.032 2.652-.273-5.899-4.76h-.831z" fill="#FFFBB6"/>
    <path fill-rule="evenodd" clip-rule="evenodd" d="M174.684 76.272c6.981 0 11.659-1.273 12.537-3.627a3.17 3.17 0 0 0 0-1.272c-.779-2.094-6.084-3.264-12.537-3.264-6.453 0-11.732 1.31-12.537 3.39a5.367 5.367 0 0 0 0 1.076c0 2.316 5.549 3.697 12.537 3.697z" fill="#F19F07"/>
    <path d="M175.007 74.51c6.782 0 12.28-1.439 12.28-3.214 0-1.774-5.498-3.213-12.28-3.213-6.782 0-12.279 1.439-12.279 3.213 0 1.775 5.497 3.214 12.279 3.214z" fill="#FEE34B"/>
    <path d="M175.007 73.93c5.765 0 10.439-1.31 10.439-2.926 0-1.617-4.674-2.927-10.439-2.927s-10.439 1.31-10.439 2.927c0 1.616 4.674 2.927 10.439 2.927z" fill="#F19F07"/>
    <path d="M174.704 73.345c5.597 0 10.135-1.18 10.135-2.634 0-1.455-4.538-2.634-10.135-2.634-5.598 0-10.136 1.18-10.136 2.634 0 1.455 4.538 2.634 10.136 2.634z" fill="#FEE34B"/>
    <path fill-rule="evenodd" clip-rule="evenodd" d="m167.815 68.3 1.979 5.433 6.982-.095-5.2-5.339h-3.761zM165.03 68.63l1.445 4.13h.898l-1.168-4.13h-1.175zM173.78 68.083l4.078 5.033 2.652-.273-5.899-4.76h-.831z" fill="#FFFBB6"/>
    <path fill-rule="evenodd" clip-rule="evenodd" d="M174.684 73.95c6.981 0 11.659-1.273 12.537-3.62.085-.42.085-.853 0-1.273-.779-2.087-6.084-3.264-12.537-3.264-6.453 0-11.732 1.317-12.537 3.397a5.367 5.367 0 0 0 0 1.076c0 2.31 5.549 3.684 12.537 3.684z" fill="#F19F07"/>
    <path d="M175.007 72.194c6.782 0 12.28-1.439 12.28-3.213 0-1.775-5.498-3.214-12.28-3.214-6.782 0-12.279 1.439-12.279 3.214 0 1.774 5.497 3.213 12.279 3.213z" fill="#FEE34B"/>
    <path d="M175.007 71.615c5.765 0 10.439-1.31 10.439-2.927s-4.674-2.927-10.439-2.927-10.439 1.31-10.439 2.927c0 1.616 4.674 2.927 10.439 2.927z" fill="#F19F07"/>
    <path d="M174.704 71.03c5.597 0 10.135-1.18 10.135-2.635 0-1.455-4.538-2.634-10.135-2.634-5.598 0-10.136 1.18-10.136 2.634 0 1.455 4.538 2.634 10.136 2.634z" fill="#FEE34B"/>
    <path fill-rule="evenodd" clip-rule="evenodd" d="m167.815 65.983 1.979 5.428 6.982-.09-5.2-5.338h-3.761zM165.03 66.308l1.445 4.136h.898l-1.168-4.136h-1.175zM173.78 65.76l4.078 5.034 2.652-.267-5.899-4.766h-.831z" fill="#FFFBB6"/>
    <path fill-rule="evenodd" clip-rule="evenodd" d="M174.684 71.634c6.981 0 11.659-1.273 12.537-3.627a3.17 3.17 0 0 0 0-1.273c-.779-2.093-6.084-3.264-12.537-3.264-6.453 0-11.732 1.31-12.537 3.392a5.367 5.367 0 0 0 0 1.075c0 2.316 5.549 3.697 12.537 3.697z" fill="#F19F07"/>
    <path d="M175.007 69.871c6.782 0 12.28-1.438 12.28-3.213 0-1.775-5.498-3.213-12.28-3.213-6.782 0-12.279 1.438-12.279 3.213 0 1.775 5.497 3.213 12.279 3.213z" fill="#FEE34B"/>
    <path d="M175.007 69.292c5.765 0 10.439-1.31 10.439-2.927 0-1.616-4.674-2.927-10.439-2.927s-10.439 1.31-10.439 2.927 4.674 2.927 10.439 2.927z" fill="#F19F07"/>
    <path d="M174.704 68.713c5.597 0 10.135-1.18 10.135-2.634 0-1.455-4.538-2.634-10.135-2.634-5.598 0-10.136 1.18-10.136 2.634 0 1.455 4.538 2.634 10.136 2.634z" fill="#FEE34B"/>
    <path fill-rule="evenodd" clip-rule="evenodd" d="m167.815 63.661 1.979 5.434 6.982-.096-5.2-5.338h-3.761zM165.03 63.992l1.445 4.13h.898l-1.168-4.13h-1.175zM173.78 63.445l4.078 5.033 2.652-.274-5.899-4.76h-.831z" fill="#FFFBB6"/>
    <path fill-rule="evenodd" clip-rule="evenodd" d="M174.684 69.311c6.981 0 11.659-1.272 12.537-3.62.09-.43.09-.874 0-1.305-.779-2.086-6.084-3.257-12.537-3.257-6.453 0-11.732 1.31-12.537 3.391a5.367 5.367 0 0 0 0 1.076c0 2.341 5.549 3.715 12.537 3.715z" fill="#F19F07"/>
    <path d="M175.007 67.555c6.782 0 12.28-1.438 12.28-3.213 0-1.775-5.498-3.213-12.28-3.213-6.782 0-12.279 1.438-12.279 3.213 0 1.775 5.497 3.213 12.279 3.213z" fill="#FEE34B"/>
    <path d="M175.007 66.976c5.765 0 10.439-1.31 10.439-2.927 0-1.616-4.674-2.927-10.439-2.927s-10.439 1.31-10.439 2.927 4.674 2.927 10.439 2.927z" fill="#F19F07"/>
    <path d="M164.555 63.757c0 .54.627 1.043 1.703 1.457l-.878-2.495c-.515.319-.825.669-.825 1.038zM166.37 62.261l.93 3.29a20.06 20.06 0 0 0 2.217.464l-1.537-4.225c-.547.124-1.085.281-1.61.471zM184.832 63.757c0-1.451-4.533-2.628-10.128-2.628h-.086l5.892 4.76-2.639.266-4.078-5.02c-1.095 0-2.145.096-3.108.21h.897l4.85 5.027c4.778-.242 8.4-1.317 8.4-2.615z" fill="#FEE34B"/>
    <path d="M170.679 61.345c-.908.095-1.81.244-2.699.445l1.537 4.225a34.31 34.31 0 0 0 5.187.376c.594 0 1.181 0 1.748-.045l-4.876-5.001h-.897zM165.393 62.72l.878 2.494c.336.131.679.244 1.029.337l-.93-3.29c-.34.122-.668.276-.977.458zM180.51 65.888l-5.892-4.76h-.825l4.071 5.021 2.646-.26z" fill="#FFFBB6"/>
    <path fill-rule="evenodd" clip-rule="evenodd" d="M181.712 12.536c6.017-3.016 9.435-6.16 9.112-8.545a3.081 3.081 0 0 0-.607-1.127c-1.643-1.476-6.763-.19-12.319 2.596-5.556 2.787-9.495 6.204-9.238 8.348.137.325.304.636.501.93 1.082 2.004 6.513.814 12.551-2.202z" fill="#F19F07"/>
    <path d="M181.15 10.874c5.845-2.931 9.912-6.554 9.083-8.091-.829-1.537-6.24-.406-12.085 2.525-5.845 2.932-9.912 6.555-9.083 8.092.829 1.537 6.24.406 12.085-2.526z" fill="#FEE34B"/>
    <path d="M180.88 10.364c4.966-2.49 8.381-5.642 7.627-7.039-.753-1.396-5.389-.51-10.355 1.981-4.966 2.49-8.381 5.642-7.628 7.039.754 1.397 5.39.51 10.356-1.98z" fill="#F19F07"/>
    <path d="m171.246 10.035 2.356 2.463a16.621 16.621 0 0 0 2.131-.554l-3.352-3.035c-.412.342-.792.72-1.135 1.126zM172.52 12.625l-1.854-1.73c-.548 1.138.125 1.813 1.854 1.73z" fill="#FEE34B"/>
    <path d="M174.308 7.484c-.673.434-1.317.91-1.927 1.425l3.352 3.035a33.8 33.8 0 0 0 4.619-1.94c.535-.268 1.023-.535 1.498-.79l-6.546-2.227-.996.497zM170.666 10.894l1.854 1.73a9.253 9.253 0 0 0 1.082-.126l-2.356-2.463a4.19 4.19 0 0 0-.58.86z" fill="#FFFBB6"/>
    <path d="m177.891 5.454-.297.146 8.935.325c3.292-3.315-.245-4.696-8.638-.471zM177.376 5.715a35.03 35.03 0 0 0-3.068 1.769l.99-.496 6.545 2.227.561-.325-5.549-2.857.521-.318z" fill="#FEE34B"/>
    <path d="m177.561 5.6-.185.118.218-.118h-.033z" fill="#FFFBB6"/>
    <path d="m177.376 5.715-.521.318 5.978 2.437 1.194-.58a16.334 16.334 0 0 0 2.501-1.965l-8.934-.318-.218.108z" fill="#FFFBB6"/>
    <path d="m176.855 6.033 5.549 2.857a33.441 33.441 0 0 0 1.623-.999l-1.194.579-5.978-2.437z" fill="#FFFBB6"/>
    <path fill-rule="evenodd" clip-rule="evenodd" d="M174.453 28.424c5.939 3.105 10.557 4.072 12.451 2.468.285-.325.496-.704.62-1.113.344-2.138-3.629-5.504-9.138-8.373-5.51-2.87-10.657-4.098-12.346-2.673-.203.291-.378.6-.521.923-1.142 2.01 2.943 5.663 8.934 8.768z" fill="#F19F07"/>
    <path d="M187.599 29.772c.854-1.524-3.154-5.207-8.951-8.226-5.798-3.02-11.19-4.23-12.043-2.706-.854 1.524 3.154 5.207 8.951 8.226 5.798 3.019 11.189 4.23 12.043 2.706z" fill="#FEE34B"/>
    <path d="M186.157 28.699c.776-1.386-2.588-4.588-7.513-7.152-4.926-2.565-9.547-3.521-10.323-2.136-.776 1.385 2.588 4.587 7.513 7.152 4.926 2.565 9.547 3.52 10.323 2.136z" fill="#F19F07"/>
    <path d="m170.712 18.682-.785 3.264c.52.5 1.075.963 1.663 1.387l.732-4.377a10.618 10.618 0 0 0-1.61-.274zM169.207 21.157l.443-2.456c-1.287.204-1.485 1.12-.443 2.456z" fill="#FEE34B"/>
    <path d="M174.618 19.694a20.763 20.763 0 0 0-2.296-.738l-.733 4.377a32.627 32.627 0 0 0 4.263 2.59c.528.274 1.029.522 1.518.75l-1.769-6.464-.983-.515zM169.65 18.701l-.442 2.456c.223.277.463.54.719.79l.785-3.265a4.424 4.424 0 0 0-1.062.02z" fill="#FFFBB6"/>
    <path d="m178.412 21.412-.297-.153 4.745 7.305c4.651.776 3.853-2.825-4.448-7.152zM177.858 21.151a33.514 33.514 0 0 0-3.24-1.457l.983.515 1.769 6.465c.204.102.396.178.594.267l-.66-6.032.554.242z" fill="#FEE34B"/>
    <path d="m178.062 21.236-.204-.085.224.11-.02-.025z" fill="#FFFBB6"/>
    <path d="m177.858 21.151-.561-.242 1.267 6.14 1.168.637c.999.391 2.036.688 3.095.884l-4.744-7.31-.225-.109z" fill="#FFFBB6"/>
    <path d="m177.297 20.91.66 6.031c.62.28 1.214.528 1.769.738l-1.168-.636-1.261-6.134z" fill="#FFFBB6"/>
    <path fill-rule="evenodd" clip-rule="evenodd" d="M174.453 62.783c5.939 3.105 10.557 4.072 12.451 2.469.285-.326.496-.705.62-1.114.344-2.138-3.629-5.504-9.138-8.373-5.51-2.87-10.657-4.098-12.346-2.673-.203.292-.378.6-.521.923-1.142 2.01 2.943 5.663 8.934 8.768z" fill="#F19F07"/>
    <path d="M187.602 64.137c.854-1.524-3.154-5.207-8.951-8.226-5.798-3.02-11.19-4.23-12.043-2.706-.854 1.524 3.154 5.207 8.951 8.226 5.798 3.019 11.189 4.23 12.043 2.706z" fill="#FEE34B"/>
    <path d="M186.16 63.063c.776-1.385-2.588-4.587-7.513-7.152-4.926-2.564-9.547-3.52-10.323-2.135-.776 1.385 2.588 4.587 7.513 7.152 4.926 2.565 9.547 3.52 10.323 2.136z" fill="#F19F07"/>
    <path d="m170.712 53.041-.785 3.265c.52.499 1.075.962 1.663 1.387l.732-4.378a10.618 10.618 0 0 0-1.61-.273zM169.207 55.517l.443-2.456c-1.287.203-1.485 1.12-.443 2.456z" fill="#FEE34B"/>
    <path d="M174.618 54.053a20.763 20.763 0 0 0-2.296-.738l-.733 4.378a32.638 32.638 0 0 0 4.263 2.59c.528.273 1.029.521 1.518.75l-1.769-6.465-.983-.515zM169.65 53.06l-.442 2.457a8.9 8.9 0 0 0 .719.789l.785-3.264a4.434 4.434 0 0 0-1.062.019z" fill="#FFFBB6"/>
    <path d="m178.412 55.771-.297-.153 4.745 7.305c4.651.776 3.853-2.825-4.448-7.152zM177.858 55.51a33.538 33.538 0 0 0-3.24-1.457l.983.516 1.769 6.464c.204.102.396.178.594.267l-.66-6.031.554.241z" fill="#FEE34B"/>
    <path d="m178.062 55.595-.204-.085.224.111-.02-.026z" fill="#FFFBB6"/>
    <path d="m177.858 55.51-.561-.241 1.267 6.14 1.168.636a16.97 16.97 0 0 0 3.095.884l-4.744-7.31-.225-.109z" fill="#FFFBB6"/>
    <path d="m177.297 55.269.66 6.032c.62.28 1.214.528 1.769.738l-1.168-.637-1.261-6.133z" fill="#FFFBB6"/>
    <path fill-rule="evenodd" clip-rule="evenodd" d="M181.712 45.686c5.938-3.118 9.323-6.318 8.954-8.698-.12-.41-.332-.79-.621-1.113-1.669-1.451-6.77-.083-12.273 2.793-5.503 2.876-9.383 6.363-9.073 8.507.145.321.317.63.515.923 1.148 2.004 6.559.706 12.498-2.412z" fill="#F19F07"/>
    <path d="M181.166 44.052c5.793-3.028 9.794-6.717 8.938-8.24-.856-1.523-6.246-.303-12.038 2.724-5.793 3.028-9.794 6.717-8.938 8.24.856 1.523 6.246.304 12.038-2.724z" fill="#FEE34B"/>
    <path d="M180.883 43.545c4.921-2.573 8.279-5.78 7.501-7.164-.778-1.384-5.398-.42-10.319 2.152-4.921 2.572-8.28 5.78-7.502 7.163.779 1.384 5.399.421 10.32-2.151z" fill="#F19F07"/>
    <path d="m171.24 43.357 2.402 2.425c.721-.15 1.43-.345 2.124-.586l-3.405-3.003c-.404.36-.779.749-1.121 1.164zM172.566 45.922l-1.887-1.7c-.528 1.152.158 1.789 1.887 1.7z" fill="#FEE34B"/>
    <path d="M174.255 40.755c-.659.444-1.292.924-1.894 1.438l3.405 2.99a34.49 34.49 0 0 0 4.573-2.023 40.895 40.895 0 0 0 1.484-.814l-6.598-2.113-.97.522zM170.679 44.223l1.887 1.699a8.22 8.22 0 0 0 1.075-.14l-2.401-2.425a4.198 4.198 0 0 0-.561.866z" fill="#FFFBB6"/>
    <path d="m177.805 38.661-.29.16 8.934.165c3.233-3.36-.323-4.683-8.644-.325zM177.291 38.935a38.852 38.852 0 0 0-3.036 1.82l.984-.51 6.598 2.113.554-.337-5.602-2.755.502-.33z" fill="#FEE34B"/>
    <path d="m177.482 38.82-.191.118.224-.117h-.033z" fill="#FFFBB6"/>
    <path d="m177.291 38.935-.515.331 6.024 2.335 1.188-.598a16.773 16.773 0 0 0 2.461-1.992l-8.934-.165-.224.09z" fill="#FFFBB6"/>
    <path d="m176.776 39.266 5.595 2.755a28.347 28.347 0 0 0 1.61-1.018l-1.187.598-6.018-2.335z" fill="#FFFBB6"/>
    <path fill-rule="evenodd" clip-rule="evenodd" d="M168.6 94.368c3.372 0 5.629-.636 6.051-1.693.052-.209.052-.427 0-.636-.376-.973-2.936-1.52-6.051-1.52-3.114 0-5.668.636-6.057 1.577a2.638 2.638 0 0 0 0 .503c.033 1.133 2.672 1.769 6.057 1.769z" fill="#F19F07"/>
    <path d="M168.752 93.566c3.276 0 5.932-.672 5.932-1.501 0-.83-2.656-1.502-5.932-1.502-3.276 0-5.932.672-5.932 1.502 0 .829 2.656 1.501 5.932 1.501z" fill="#FEE34B"/>
    <path d="M168.752 93.286c2.784 0 5.041-.61 5.041-1.361 0-.752-2.257-1.362-5.041-1.362-2.784 0-5.041.61-5.041 1.362 0 .752 2.257 1.361 5.041 1.361z" fill="#F19F07"/>
    <path d="M163.711 91.823c0 .248.303.483.825.68l-.423-1.17c-.257.12-.402.286-.402.49zM173.503 91.823c0-.681-2.19-1.228-4.896-1.228h-.039l2.844 2.22-1.281.128-1.979-2.342a13.9 13.9 0 0 0-1.505.096h.436l2.356 2.335c2.309-.134 4.064-.636 4.064-1.21zM164.556 91.091l.448 1.534c.352.091.709.164 1.069.216l-.739-1.966a6.026 6.026 0 0 0-.778.216z" fill="#FEE34B"/>
    <path d="M166.661 90.665c-.445.043-.885.113-1.32.21l.739 1.966c.83.12 1.668.18 2.507.178h.845l-2.356-2.335-.415-.02zM164.114 91.301l.442 1.158c.145.051.317.108.495.153l-.449-1.533c-.17.059-.333.133-.488.222zM171.411 92.784l-2.843-2.234h-.403l1.98 2.342 1.266-.108z" fill="#FFFBB6"/>
    <path fill-rule="evenodd" clip-rule="evenodd" d="M154.084 98.186c3.372 0 5.628-.637 6.051-1.693.051-.209.051-.427 0-.636-.376-.974-2.937-1.52-6.051-1.52-3.115 0-5.668.635-6.057 1.577a2.483 2.483 0 0 0 0 .503c.033 1.132 2.672 1.769 6.057 1.769z" fill="#F19F07"/>
    <path d="M154.236 97.384c3.276 0 5.932-.672 5.932-1.502 0-.829-2.656-1.501-5.932-1.501-3.276 0-5.932.672-5.932 1.501 0 .83 2.656 1.502 5.932 1.502z" fill="#FEE34B"/>
    <path d="M154.236 97.104c2.784 0 5.041-.61 5.041-1.362 0-.752-2.257-1.361-5.041-1.361-2.785 0-5.042.61-5.042 1.361 0 .752 2.257 1.362 5.042 1.362z" fill="#F19F07"/>
    <path d="M149.194 95.64c0 .249.304.484.825.681l-.422-1.17c-.257.12-.403.286-.403.49zM158.987 95.64c0-.68-2.191-1.227-4.896-1.227h-.04l2.844 2.22-1.28.127-1.98-2.341c-.528 0-1.036.044-1.504.095h.435l2.356 2.336c2.309-.134 4.065-.637 4.065-1.21zM150.039 94.909l.449 1.533c.351.092.708.165 1.069.217l-.739-1.967a6.012 6.012 0 0 0-.779.217z" fill="#FEE34B"/>
    <path d="M152.144 94.483c-.444.043-.885.113-1.32.21l.739 1.966c.83.12 1.668.179 2.508.178h.844l-2.355-2.335-.416-.02zM149.597 95.119l.442 1.158c.145.05.317.108.495.153l-.449-1.534c-.169.06-.333.134-.488.223zM156.895 96.601l-2.844-2.233h-.403l1.98 2.342 1.267-.109z" fill="#FFFBB6"/>
    <path fill-rule="evenodd" clip-rule="evenodd" d="M162.002 96.913c3.372 0 5.628-.636 6.051-1.692.051-.21.051-.428 0-.637-.377-.973-2.937-1.52-6.051-1.52-3.115 0-5.668.636-6.057 1.578a2.483 2.483 0 0 0 0 .502c.032 1.133 2.672 1.77 6.057 1.77z" fill="#F19F07"/>
    <path d="M162.154 96.111c3.276 0 5.932-.672 5.932-1.501 0-.83-2.656-1.502-5.932-1.502-3.276 0-5.932.672-5.932 1.502s2.656 1.501 5.932 1.501z" fill="#FEE34B"/>
    <path d="M162.153 95.831c2.785 0 5.042-.61 5.042-1.361 0-.752-2.257-1.362-5.042-1.362-2.784 0-5.041.61-5.041 1.362 0 .752 2.257 1.361 5.041 1.361z" fill="#F19F07"/>
    <path d="M157.112 94.368c0 .248.304.484.825.68l-.422-1.17c-.258.12-.403.286-.403.49zM166.905 94.368c0-.68-2.191-1.228-4.896-1.228h-.04l2.844 2.22-1.28.128-1.98-2.342c-.528 0-1.036.045-1.504.096h.435l2.356 2.335c2.309-.134 4.065-.636 4.065-1.21zM157.957 93.636l.449 1.534c.351.092.708.164 1.069.216l-.739-1.966a5.996 5.996 0 0 0-.779.216z" fill="#FEE34B"/>
    <path d="M160.062 93.21c-.444.043-.885.113-1.32.21l.739 1.966c.83.12 1.668.18 2.508.178h.844l-2.355-2.335-.416-.019zM157.515 93.846l.442 1.158c.145.051.317.108.495.153l-.449-1.533c-.169.059-.333.133-.488.222zM164.813 95.329l-2.844-2.234h-.403l1.98 2.342 1.267-.108z" fill="#FFFBB6"/>
    <path fill-rule="evenodd" clip-rule="evenodd" d="M149.28 105.433c3.372 0 5.629-.579 6.051-1.623.046-.19.046-.388 0-.579-.376-.935-2.936-1.463-6.051-1.463-3.114 0-5.668.592-6.057 1.521-.017.16-.017.322 0 .483 0 1.05 2.679 1.661 6.057 1.661z" fill="#F19F07"/>
    <path d="M149.432 104.65c3.276 0 5.932-.643 5.932-1.438 0-.794-2.656-1.438-5.932-1.438-3.276 0-5.932.644-5.932 1.438 0 .795 2.656 1.438 5.932 1.438z" fill="#FEE34B"/>
    <path d="M149.432 104.389c2.784 0 5.041-.586 5.041-1.31 0-.724-2.257-1.311-5.041-1.311-2.784 0-5.041.587-5.041 1.311s2.257 1.31 5.041 1.31z" fill="#F19F07"/>
    <path d="M149.287 104.122c2.704 0 4.896-.527 4.896-1.177s-2.192-1.177-4.896-1.177c-2.704 0-4.896.527-4.896 1.177s2.192 1.177 4.896 1.177z" fill="#FEE34B"/>
    <path fill-rule="evenodd" clip-rule="evenodd" d="m145.961 101.87.95 2.43 3.379-.044-2.514-2.386h-1.815zM144.615 102.016l.699 1.852h.436l-.568-1.852h-.567zM148.838 101.768l1.973 2.252 1.28-.121-2.851-2.131h-.402z" fill="#FFFBB6"/>
    <path fill-rule="evenodd" clip-rule="evenodd" d="M166.621 92.46c3.372 0 5.628-.637 6.051-1.693.051-.21.051-.427 0-.637-.376-.973-2.937-1.52-6.051-1.52-3.114 0-5.668.636-6.057 1.578a2.484 2.484 0 0 0 0 .502c.033 1.133 2.672 1.77 6.057 1.77z" fill="#F19F07"/>
    <path d="M166.773 91.657c3.276 0 5.932-.672 5.932-1.501 0-.83-2.656-1.502-5.932-1.502-3.276 0-5.932.672-5.932 1.502s2.656 1.501 5.932 1.501z" fill="#FEE34B"/>
    <path d="M166.773 91.377c2.784 0 5.041-.61 5.041-1.361 0-.752-2.257-1.362-5.041-1.362-2.785 0-5.042.61-5.042 1.362 0 .752 2.257 1.361 5.042 1.361z" fill="#F19F07"/>
    <path d="M161.731 89.914c0 .248.304.484.825.68l-.422-1.17c-.257.121-.403.286-.403.49zM171.524 89.914c0-.68-2.191-1.228-4.896-1.228h-.04l2.844 2.22-1.28.128-1.98-2.342c-.527 0-1.036.045-1.504.096h.435l2.356 2.335c2.31-.134 4.065-.636 4.065-1.209zM162.576 89.182l.449 1.534c.352.092.708.164 1.069.216l-.739-1.966a5.996 5.996 0 0 0-.779.216z" fill="#FEE34B"/>
    <path d="M164.681 88.756c-.444.043-.885.113-1.32.21l.739 1.966c.83.12 1.669.18 2.508.178h.844l-2.355-2.335-.416-.019zM162.134 89.392l.442 1.158c.146.051.317.109.495.153l-.448-1.533a2.9 2.9 0 0 0-.489.222zM169.432 90.875l-2.844-2.234h-.402l1.979 2.342 1.267-.108z" fill="#FFFBB6"/>
    <path fill-rule="evenodd" clip-rule="evenodd" d="M157.383 92.46c3.372 0 5.629-.637 6.051-1.693.052-.21.052-.427 0-.637-.376-.973-2.936-1.52-6.051-1.52-3.114 0-5.668.636-6.057 1.578a2.484 2.484 0 0 0 0 .502c.033 1.133 2.672 1.77 6.057 1.77z" fill="#F19F07"/>
    <path d="M157.535 91.657c3.276 0 5.932-.672 5.932-1.501 0-.83-2.656-1.502-5.932-1.502-3.276 0-5.932.672-5.932 1.502s2.656 1.501 5.932 1.501z" fill="#FEE34B"/>
    <path d="M157.535 91.377c2.784 0 5.041-.61 5.041-1.361 0-.752-2.257-1.362-5.041-1.362-2.784 0-5.041.61-5.041 1.362 0 .752 2.257 1.361 5.041 1.361z" fill="#F19F07"/>
    <path d="M152.494 89.914c0 .248.303.484.824.68l-.422-1.17c-.257.121-.402.286-.402.49zM162.286 89.914c0-.68-2.191-1.228-4.896-1.228h-.04l2.844 2.22-1.28.128-1.979-2.342a13.9 13.9 0 0 0-1.505.096h.436l2.355 2.335c2.31-.134 4.065-.636 4.065-1.209zM153.338 89.182l.449 1.534c.352.092.709.164 1.069.216l-.739-1.966a6.04 6.04 0 0 0-.779.216z" fill="#FEE34B"/>
    <path d="M155.443 88.756a10.96 10.96 0 0 0-1.319.21l.739 1.966c.83.12 1.668.18 2.507.178h.845l-2.356-2.335-.416-.019zM152.896 89.392l.443 1.158c.145.051.316.109.494.153l-.448-1.533c-.17.059-.333.133-.489.222zM160.194 90.875l-2.844-2.234h-.402l1.979 2.342 1.267-.108z" fill="#FFFBB6"/>
    <path fill-rule="evenodd" clip-rule="evenodd" d="M162.662 95.004c3.372 0 5.628-.636 6.051-1.692.051-.21.051-.427 0-.637-.376-.973-2.937-1.52-6.051-1.52-3.114 0-5.668.636-6.057 1.578a2.484 2.484 0 0 0 0 .502c.033 1.133 2.672 1.77 6.057 1.77z" fill="#F19F07"/>
    <path d="M162.814 94.203c3.276 0 5.932-.673 5.932-1.502 0-.83-2.656-1.502-5.932-1.502-3.276 0-5.932.672-5.932 1.502s2.656 1.502 5.932 1.502z" fill="#FEE34B"/>
    <path d="M162.814 93.922c2.784 0 5.041-.61 5.041-1.361 0-.752-2.257-1.362-5.041-1.362-2.785 0-5.042.61-5.042 1.362 0 .752 2.257 1.361 5.042 1.361z" fill="#F19F07"/>
    <path d="M157.772 92.46c0 .247.304.483.825.68l-.422-1.17c-.257.12-.403.285-.403.49zM167.565 92.46c0-.682-2.191-1.229-4.896-1.229h-.04l2.844 2.22-1.28.128-1.98-2.342c-.527 0-1.036.045-1.504.096h.435l2.356 2.335c2.31-.134 4.065-.636 4.065-1.209zM158.617 91.727l.449 1.534c.352.092.708.164 1.069.216l-.739-1.966a6.012 6.012 0 0 0-.779.216z" fill="#FEE34B"/>
    <path d="M160.722 91.301c-.444.043-.885.114-1.32.21l.739 1.966c.83.12 1.669.18 2.508.178h.844l-2.355-2.335-.416-.019zM158.175 91.937l.442 1.159c.146.05.317.108.495.152l-.448-1.533c-.17.059-.334.133-.489.222zM165.473 93.42l-2.844-2.234h-.402l1.979 2.342 1.267-.108z" fill="#FFFBB6"/>
    <path fill-rule="evenodd" clip-rule="evenodd" d="M152.764 95.004c3.372 0 5.629-.636 6.051-1.692.051-.21.051-.427 0-.637-.376-.973-2.936-1.52-6.051-1.52-3.114 0-5.668.636-6.057 1.578a2.484 2.484 0 0 0 0 .502c.033 1.133 2.672 1.77 6.057 1.77z" fill="#F19F07"/>
    <path d="M152.916 94.203c3.276 0 5.932-.673 5.932-1.502 0-.83-2.656-1.502-5.932-1.502-3.276 0-5.932.672-5.932 1.502s2.656 1.502 5.932 1.502z" fill="#FEE34B"/>
    <path d="M152.916 93.922c2.784 0 5.041-.61 5.041-1.361 0-.752-2.257-1.362-5.041-1.362-2.784 0-5.041.61-5.041 1.362 0 .752 2.257 1.361 5.041 1.361z" fill="#F19F07"/>
    <path d="M147.875 92.46c0 .247.303.483.824.68l-.422-1.17c-.257.12-.402.285-.402.49zM157.667 92.46c0-.682-2.191-1.229-4.896-1.229h-.04l2.844 2.22-1.28.128-1.98-2.342c-.527 0-1.035.045-1.504.096h.436l2.355 2.335c2.31-.134 4.065-.636 4.065-1.209zM148.719 91.727l.449 1.534c.352.092.709.164 1.069.216l-.739-1.966a6.012 6.012 0 0 0-.779.216z" fill="#FEE34B"/>
    <path d="M150.824 91.301c-.444.043-.885.114-1.32.21l.739 1.966c.83.12 1.669.18 2.508.178h.844l-2.355-2.335-.416-.019zM148.277 91.937l.442 1.159c.146.05.317.108.495.152l-.448-1.533c-.17.059-.334.133-.489.222zM155.575 93.42l-2.844-2.234h-.402l1.979 2.342 1.267-.108z" fill="#FFFBB6"/>
    <path fill-rule="evenodd" clip-rule="evenodd" d="M146.826 97.55c3.371 0 5.628-.637 6.05-1.693.052-.21.052-.427 0-.636-.376-.974-2.936-1.521-6.05-1.521-3.115 0-5.668.636-6.058 1.578a2.638 2.638 0 0 0 0 .502c.033 1.133 2.673 1.77 6.058 1.77z" fill="#F19F07"/>
    <path d="M146.977 96.748c3.277 0 5.932-.673 5.932-1.502 0-.83-2.655-1.502-5.932-1.502-3.276 0-5.932.673-5.932 1.502 0 .83 2.656 1.502 5.932 1.502z" fill="#FEE34B"/>
    <path d="M146.977 96.468c2.784 0 5.041-.61 5.041-1.362 0-.752-2.257-1.362-5.041-1.362-2.784 0-5.041.61-5.041 1.362 0 .752 2.257 1.362 5.041 1.362z" fill="#F19F07"/>
    <path d="M141.936 95.004c0 .248.304.484.825.681l-.422-1.17c-.258.12-.403.286-.403.49zM151.728 95.004c0-.68-2.19-1.228-4.896-1.228h-.039l2.844 2.22-1.28.128-1.98-2.341c-.528 0-1.036.044-1.504.095h.435l2.356 2.335c2.309-.133 4.064-.636 4.064-1.209zM142.781 94.272l.448 1.534c.352.092.709.164 1.069.216l-.739-1.966a6.026 6.026 0 0 0-.778.216z" fill="#FEE34B"/>
    <path d="M144.886 93.846c-.444.043-.885.114-1.32.21l.739 1.966c.83.12 1.668.18 2.507.178h.845l-2.356-2.335-.415-.019zM142.339 94.483l.442 1.157c.145.051.317.109.495.153l-.449-1.533c-.17.059-.333.133-.488.222zM149.637 95.965l-2.844-2.233h-.403l1.98 2.341 1.267-.108z" fill="#FFFBB6"/>
    <path fill-rule="evenodd" clip-rule="evenodd" d="M166.621 90.55c3.372 0 5.628-.636 6.051-1.692.051-.21.051-.427 0-.636-.376-.974-2.937-1.521-6.051-1.521-3.114 0-5.668.636-6.057 1.578a2.484 2.484 0 0 0 0 .502c.033 1.133 2.672 1.77 6.057 1.77z" fill="#F19F07"/>
    <path d="M166.773 89.749c3.276 0 5.932-.673 5.932-1.502 0-.83-2.656-1.502-5.932-1.502-3.276 0-5.932.673-5.932 1.502 0 .83 2.656 1.502 5.932 1.502z" fill="#FEE34B"/>
    <path d="M166.773 89.469c2.784 0 5.041-.61 5.041-1.362 0-.752-2.257-1.362-5.041-1.362-2.785 0-5.042.61-5.042 1.362 0 .752 2.257 1.362 5.042 1.362z" fill="#F19F07"/>
    <path d="M161.731 88.005c0 .248.304.484.825.681l-.422-1.17c-.257.12-.403.286-.403.49zM171.524 88.005c0-.68-2.191-1.228-4.896-1.228h-.04l2.844 2.22-1.28.128-1.98-2.341c-.527 0-1.036.044-1.504.095h.435l2.356 2.335c2.31-.134 4.065-.636 4.065-1.209zM162.576 87.273l.449 1.534c.352.092.708.164 1.069.216l-.739-1.966a5.996 5.996 0 0 0-.779.216z" fill="#FEE34B"/>
    <path d="M164.681 86.847c-.444.043-.885.114-1.32.21l.739 1.966c.83.12 1.669.18 2.508.178h.844l-2.355-2.335-.416-.019zM162.134 87.483l.442 1.158c.146.051.317.109.495.153l-.448-1.533c-.17.059-.334.133-.489.222zM169.432 88.966l-2.844-2.233h-.402l1.979 2.341 1.267-.108z" fill="#FFFBB6"/>
    <path fill-rule="evenodd" clip-rule="evenodd" d="M175.047 91.466c2.903-2.971 3.299-.789 3.299.039.086 1.794-.66 5.37 0 7.037 6.486 16.168 1.181 26.151-13.771 27.952-14.952 1.8-21.22-10.658-20.923-17.683.297-7.024-1.597-6.458-4.421-9.64-.786-.877-.819-3.702 2.269-2.742 7.173 2.215 29.938-1.272 33.547-4.963z" fill="#004472"/>
    <path fill-rule="evenodd" clip-rule="evenodd" d="M180.115 113.507c-1.115 7.4-6.652 11.931-16.048 13.076-14.787 1.794-21.115-5.867-20.871-13.038.245-7.17.825-9.257-2.395-12.814 5.807 2.481 9.502 25.496 39.314 12.776z" fill="#1C2C57"/>
    <path d="M157.858 111.548a2.958 2.958 0 0 1-1.214-1.273 4.089 4.089 0 0 1-.429-1.909 4.14 4.14 0 0 1 .422-1.909c.259-.533.68-.977 1.208-1.272a4.126 4.126 0 0 1 3.708 0c.527.294.947.739 1.201 1.272.289.597.432 1.25.416 1.909a4.086 4.086 0 0 1-.423 1.909 2.967 2.967 0 0 1-1.201 1.273 4.081 4.081 0 0 1-3.688 0zm3.424-1.273a2.93 2.93 0 0 0 .561-1.909 2.876 2.876 0 0 0-.561-1.909 2.147 2.147 0 0 0-.718-.495 2.214 2.214 0 0 0-2.449.495 2.887 2.887 0 0 0-.561 1.909 2.935 2.935 0 0 0 .561 1.909c.201.212.446.382.718.498a2.216 2.216 0 0 0 1.731 0c.273-.116.517-.286.718-.498zM170.428 111.923l-.733-1.654h-3.569l-.739 1.654h-1.32l3.299-7.05h1.076l3.299 7.05h-1.313zm-3.86-2.641h2.685l-1.319-3.022-1.366 3.022zM138.934 33.145v-6.783h4.506v.967h-3.299v1.91h3.121v.973h-3.121v1.991h3.299v.974l-4.506-.032zM149.082 28.335v4.81h-1.168v-.776c-.138.267-.357.489-.627.636a1.858 1.858 0 0 1-.93.23 2.03 2.03 0 0 1-1.108-.306 2.029 2.029 0 0 1-.753-.872 3.35 3.35 0 0 1 0-2.622c.16-.36.421-.67.753-.897a1.982 1.982 0 0 1 1.101-.318c.325-.005.646.072.931.223.268.149.486.37.627.636v-.744h1.174zm-1.491 3.537c.237-.338.351-.743.323-1.151a1.856 1.856 0 0 0-.323-1.171 1.186 1.186 0 0 0-.411-.305 1.229 1.229 0 0 0-1.423.305 1.899 1.899 0 0 0-.337 1.19c-.026.407.09.81.33 1.145.11.133.251.239.412.308.16.07.336.102.512.093.176.008.352-.025.512-.097.16-.072.299-.18.405-.317zM153.43 28.297v1.081a1.657 1.657 0 0 0-.626-.12 1.204 1.204 0 0 0-.931.35 1.35 1.35 0 0 0-.317.935v2.602h-1.174v-3.449c.003-.455-.023-.91-.079-1.361h1.115l.092.846a1.42 1.42 0 0 1 .568-.713c.262-.165.57-.252.884-.248.16-.003.319.023.468.077zM158.557 30.186v2.959h-1.187v-2.901a1.284 1.284 0 0 0-.218-.828.829.829 0 0 0-.66-.267 1.163 1.163 0 0 0-.871.35c-.234.25-.355.58-.337.916v2.73h-1.174v-3.449c.003-.455-.023-.91-.079-1.361h1.115l.086.789c.152-.279.38-.512.66-.675a1.92 1.92 0 0 1 .956-.242c1.109-.012 1.709.662 1.709 1.98zM144.1 42.27l-.659-1.591h-3.3l-.66 1.59h-1.233l3.055-6.782h.996l3.068 6.782H144.1zm-3.569-2.546h2.494l-1.247-2.901-1.247 2.901zM149.808 37.644c.329.216.587.519.746.871.186.411.278.856.27 1.305.008.454-.085.905-.27 1.323a2.177 2.177 0 0 1-.753.89c-.323.21-.705.319-1.095.313a1.935 1.935 0 0 1-.95-.23 1.508 1.508 0 0 1-.62-.636v.79h-1.168v-7h1.174v2.927c.149-.271.379-.493.66-.636.284-.154.605-.231.931-.223.381 0 .755.106 1.075.306zm-.508 3.353c.238-.348.352-.762.323-1.177a1.781 1.781 0 0 0-.323-1.146 1.199 1.199 0 0 0-.413-.303 1.245 1.245 0 0 0-1.428.303 2.266 2.266 0 0 0-.324 1.165c0 .408.112.81.324 1.164.111.133.253.24.415.309.162.07.338.101.515.092.175.01.35-.023.508-.094.159-.071.297-.179.403-.313zM152.744 42.04a2.108 2.108 0 0 1-.858-.871 3.13 3.13 0 0 1 0-2.654c.191-.366.489-.67.858-.871.403-.215.86-.321 1.32-.306.445-.009.884.097 1.273.306.366.204.662.507.852.871a3.13 3.13 0 0 1 0 2.654 2.13 2.13 0 0 1-.871.871 2.59 2.59 0 0 1-1.274.306 2.623 2.623 0 0 1-1.3-.306zm2.204-1.024c.236-.349.347-.762.317-1.177a1.823 1.823 0 0 0-.323-1.171 1.112 1.112 0 0 0-.911-.407 1.131 1.131 0 0 0-.514.094c-.161.07-.301.178-.41.313-.237.346-.35.757-.323 1.17-.033.417.081.832.323 1.178.107.132.246.237.405.306.158.069.332.099.506.088a1.13 1.13 0 0 0 .515-.087c.162-.068.305-.174.415-.307zM160.755 37.472h1.161l-2.098 4.797h-1.036l-2.066-4.797h1.241l1.392 3.448 1.406-3.448zM166.66 39.928h-3.299c-.011.41.124.813.383 1.139a1.36 1.36 0 0 0 1.036.363 2.388 2.388 0 0 0 1.458-.51l.343.815c-.25.194-.534.345-.838.445-.327.108-.67.164-1.016.166a2.542 2.542 0 0 1-.997-.148 2.474 2.474 0 0 1-.851-.52 2.428 2.428 0 0 1-.66-1.826 2.79 2.79 0 0 1 .291-1.273 2.198 2.198 0 0 1 2.032-1.21c.294-.014.587.035.858.145.271.11.512.279.706.492.408.5.612 1.127.574 1.763l-.02.159zm-2.883-1.451a1.39 1.39 0 0 0-.383.814h2.23a1.319 1.319 0 0 0-.33-.82.976.976 0 0 0-.341-.217 1.013 1.013 0 0 0-.404-.063 1.064 1.064 0 0 0-.772.286zM143.44 50.395V51.4h-4.539v-.935l2.296-2.482c.238-.246.44-.522.6-.82a1.62 1.62 0 0 0 .192-.732.909.909 0 0 0-.271-.706 1.157 1.157 0 0 0-.779-.242 3.055 3.055 0 0 0-1.827.706l-.409-.891a2.84 2.84 0 0 1 1.022-.579c.407-.14.835-.213 1.267-.216a2.439 2.439 0 0 1 1.61.502 1.673 1.673 0 0 1 .588 1.349 2.41 2.41 0 0 1-.251 1.095c-.22.42-.502.809-.838 1.151l-1.663 1.77 3.002.025zM144.43 50.064h1.32V51.4h-1.32v-1.336zM150.619 47.334c.32.181.581.446.753.763.182.35.273.736.264 1.127.018.409-.078.815-.278 1.177a1.95 1.95 0 0 1-.871.789 2.903 2.903 0 0 1-1.319.286 3.844 3.844 0 0 1-1.254-.216 2.913 2.913 0 0 1-1.016-.58l.409-.89c.526.434 1.189.68 1.881.7a1.365 1.365 0 0 0 .97-.318 1.381 1.381 0 0 0 0-1.807 1.25 1.25 0 0 0-.931-.337 1.83 1.83 0 0 0-.745.146c-.238.097-.45.245-.621.433h-.739v-3.99h4.236v.948h-3.041v1.852a2.084 2.084 0 0 1 1.214-.35c.38-.003.755.089 1.088.267zM152.856 48.136a2.893 2.893 0 0 1-.449-1.543c0-.545.156-1.078.449-1.543a1.55 1.55 0 0 1 .56-.404c.216-.092.452-.134.687-.124.239-.012.478.03.698.122.219.091.414.23.569.406a2.85 2.85 0 0 1 0 3.086c-.155.175-.35.314-.569.406a1.62 1.62 0 0 1-.698.122 1.594 1.594 0 0 1-.687-.124 1.55 1.55 0 0 1-.56-.404zm1.789-.547c.137-.316.196-.658.171-1a2.066 2.066 0 0 0-.171-.986.566.566 0 0 0-.223-.233.59.59 0 0 0-.319-.078.575.575 0 0 0-.308.08.546.546 0 0 0-.213.231c-.134.312-.193.65-.171.987-.022.339.037.678.171.992a.593.593 0 0 0 .221.226.618.618 0 0 0 .621 0 .593.593 0 0 0 .221-.226v.007zm.442 3.817h-1.05l3.92-6.789h1.056l-3.926 6.79zm2.586-.464a2.33 2.33 0 0 1-.455-1.56 2.27 2.27 0 0 1 .455-1.532c.162-.166.357-.297.573-.387a1.782 1.782 0 0 1 1.941.386c.298.465.456 1 .456 1.547 0 .546-.158 1.081-.456 1.546-.16.166-.355.3-.571.39a1.771 1.771 0 0 1-1.371 0 1.716 1.716 0 0 1-.572-.39zm1.788-.554c.135-.314.194-.653.172-.992a2.056 2.056 0 0 0-.178-.987.544.544 0 0 0-.212-.231.57.57 0 0 0-.309-.08.577.577 0 0 0-.317.077.55.55 0 0 0-.218.234 2.936 2.936 0 0 0 0 1.98.586.586 0 0 0 .221.225.618.618 0 0 0 .62 0 .586.586 0 0 0 .221-.226zM142.675 55.911c.342.228.608.546.765.916.186.418.278.87.271 1.324.006.437-.084.871-.264 1.272a2.04 2.04 0 0 1-.746.866c-.33.205-.716.312-1.108.305a1.926 1.926 0 0 1-.931-.223 1.578 1.578 0 0 1-.66-.636v2.819h-1.181v-5.478c.004-.456-.023-.91-.079-1.362h1.115l.093.827c.12-.293.339-.54.62-.7a2.037 2.037 0 0 1 2.078.07h.027zm-.495 3.353c.236-.334.349-.735.323-1.139a1.923 1.923 0 0 0-.323-1.177 1.181 1.181 0 0 0-.411-.31 1.224 1.224 0 0 0-1.43.31c-.237.346-.35.757-.323 1.171-.028.41.085.817.323 1.158.108.133.248.24.408.309.159.07.334.101.509.092a1.14 1.14 0 0 0 .515-.098c.16-.072.301-.18.409-.316zM144.49 59.188h1.319v1.336h-1.319v-1.336zM151.457 55.714v4.81h-1.168v-.77c-.14.267-.358.488-.626.637a1.926 1.926 0 0 1-.931.222 2.034 2.034 0 0 1-1.115-.305 2.048 2.048 0 0 1-.746-.866 3.01 3.01 0 0 1-.27-1.272c-.01-.461.082-.919.27-1.343.163-.358.426-.667.759-.89a1.937 1.937 0 0 1 1.102-.319c.325-.008.647.07.931.223.27.147.488.369.626.636v-.763h1.168zm-1.491 3.544a1.8 1.8 0 0 0 .323-1.152 1.855 1.855 0 0 0-.323-1.17 1.09 1.09 0 0 0-.409-.317 1.13 1.13 0 0 0-.515-.097 1.109 1.109 0 0 0-.51.103 1.068 1.068 0 0 0-.4.323c-.241.347-.357.76-.33 1.177a1.7 1.7 0 0 0 .33 1.14c.109.133.25.238.411.308.161.07.336.101.512.092a1.12 1.12 0 0 0 .508-.096c.158-.07.297-.177.403-.311zM152.625 59.188h1.32v1.336h-1.32v-1.336z" fill="#fff"/>
</svg>
