<svg xmlns="http://www.w3.org/2000/svg" xmlns:xlink="http://www.w3.org/1999/xlink" width="252" height="106" viewBox="0 0 252 106">
    <defs>
        <path id="a" d="M12.475 77.42l.32.339c-3.001-.039-5.21-.803-6.625-2.294-1.334-1.406-1.697-3.178-1.088-5.315-2.946-3.489-4.97-7.013-4.97-9.991 0-7.476 2.861-22.343 11.987-35.974 2.366-3.534 5.069-7.172 7.776-10.355C24.644 5.556 33.48 0 43.593 0c15.172 0 27.472 12.507 27.472 27.935 0 13.79-9.828 25.246-22.75 27.523-.054.426-.165.788-.34 1.08-1.242 2.07-5.066 7.868-8.787 13.716-5.247 8.248-8.748 16.361-12.282 16.361-1.739 0-8.259-3.964-14.431-9.195z"/>
        <ellipse id="c" cx="7.179" cy="1.792" rx="7.179" ry="1.792"/>
        <ellipse id="e" cx="7.179" cy="1.792" rx="7.179" ry="1.792"/>
        <ellipse id="g" cx="7.179" cy="1.792" rx="7.179" ry="1.792"/>
        <ellipse id="i" cx="7.179" cy="1.792" rx="7.179" ry="1.792"/>
        <ellipse id="k" cx="7.179" cy="1.792" rx="7.179" ry="1.792"/>
        <ellipse id="m" cx="7.179" cy="1.792" rx="7.179" ry="1.792"/>
        <ellipse id="o" cx="7.179" cy="1.792" rx="7.179" ry="1.792"/>
        <ellipse id="q" cx="7.179" cy="1.792" rx="7.179" ry="1.792"/>
        <ellipse id="s" cx="7.179" cy="1.792" rx="7.179" ry="1.792"/>
        <ellipse id="u" cx="7.179" cy="1.792" rx="7.179" ry="1.792"/>
        <ellipse id="w" cx="7.179" cy="1.792" rx="7.179" ry="1.792"/>
        <ellipse id="y" cx="7.179" cy="1.792" rx="7.179" ry="1.792"/>
        <ellipse id="A" cx="7.179" cy="1.868" rx="7.179" ry="1.868"/>
        <ellipse id="C" cx="7.179" cy="1.868" rx="7.179" ry="1.868"/>
        <ellipse id="E" cx="7.179" cy="1.868" rx="7.179" ry="1.868"/>
        <ellipse id="G" cx="7.179" cy="1.868" rx="7.179" ry="1.868"/>
        <ellipse id="I" cx="12.359" cy="3.259" rx="12.359" ry="3.259"/>
        <ellipse id="K" cx="12.359" cy="3.259" rx="12.359" ry="3.259"/>
        <ellipse id="M" cx="12.359" cy="3.259" rx="12.359" ry="3.259"/>
        <ellipse id="O" cx="12.359" cy="3.259" rx="12.359" ry="3.259"/>
        <ellipse id="Q" cx="12.359" cy="3.259" rx="12.359" ry="3.259"/>
        <ellipse id="S" cx="12.359" cy="3.259" rx="12.359" ry="3.259"/>
        <ellipse id="U" cx="12.359" cy="3.344" rx="12.359" ry="3.344"/>
        <ellipse id="W" cx="12.359" cy="3.344" rx="12.359" ry="3.344"/>
        <ellipse id="Y" cx="12.359" cy="3.344" rx="12.359" ry="3.344"/>
        <ellipse id="aa" cx="12.359" cy="3.344" rx="12.359" ry="3.344"/>
        <ellipse id="ac" cx="12.359" cy="3.344" rx="12.359" ry="3.344"/>
        <ellipse id="ae" cx="12.359" cy="3.344" rx="12.359" ry="3.344"/>
        <ellipse id="ag" cx="12.359" cy="3.344" rx="12.359" ry="3.344"/>
        <ellipse id="ai" cx="12.359" cy="3.344" rx="12.359" ry="3.344"/>
        <ellipse id="ak" cx="12.359" cy="3.344" rx="12.359" ry="3.344"/>
        <ellipse id="am" cx="12.359" cy="3.344" rx="12.359" ry="3.344"/>
        <ellipse id="ao" cx="12.359" cy="3.329" rx="12.359" ry="3.329"/>
        <ellipse id="aq" cx="12.359" cy="3.329" rx="12.359" ry="3.329"/>
        <ellipse id="as" cx="12.359" cy="3.329" rx="12.359" ry="3.329"/>
        <ellipse id="au" cx="12.359" cy="3.329" rx="12.359" ry="3.329"/>
        <ellipse id="aw" cx="12.359" cy="3.329" rx="12.359" ry="3.329"/>
        <ellipse id="ay" cx="12.359" cy="3.329" rx="12.359" ry="3.329"/>
        <ellipse id="aA" cx="12.359" cy="3.329" rx="12.359" ry="3.329"/>
        <ellipse id="aC" cx="12.359" cy="3.329" rx="12.359" ry="3.329"/>
        <ellipse id="aE" cx="12.359" cy="3.329" rx="12.359" ry="3.329"/>
        <ellipse id="aG" cx="12.359" cy="3.329" rx="12.359" ry="3.329"/>
        <ellipse id="aI" cx="12.359" cy="3.329" rx="12.359" ry="3.329"/>
        <ellipse id="aK" cx="12.359" cy="3.329" rx="12.359" ry="3.329"/>
        <ellipse id="aM" cx="12.359" cy="3.329" rx="12.359" ry="3.329"/>
        <ellipse id="aO" cx="12.359" cy="3.329" rx="12.359" ry="3.329"/>
        <ellipse id="aQ" cx="12.359" cy="3.329" rx="12.359" ry="3.329"/>
        <ellipse id="aS" cx="12.359" cy="3.329" rx="12.359" ry="3.329"/>
        <ellipse id="aU" cx="12.237" cy="3.404" rx="12.237" ry="3.404"/>
    </defs>
    <g fill="none" fill-rule="evenodd">
        <g stroke="#F3F3F3" stroke-linecap="round" stroke-width="2">
            <path d="M224 13.116h-98.5M210.92 99.92V6.367M246 33.116H110M179.92 100.207V1.5M236.5 51.5h-121M149.92 100.207V6.366M227 73H120.5"/>
        </g>
        <g transform="translate(0 90)">
            <path fill="#0F6064" d="M123.087 13.345C195.747 18.346 252 16 252 7.718S194.602.364 126 1.23 0 5.495 0 7.718s50.426.625 123.087 5.627z"/>
            <ellipse cx="80.912" cy="8" fill="#064E52" rx="20.382" ry="1.846"/>
        </g>
        <g transform="translate(-22 -9)">
            <path fill="#FF9445" d="M57.325 97.498v8.44l1.17-.45V96.52z"/>
            <path fill="#FF9445" d="M54.726 104.039c1.151-.198 9.571-.022 10.514 1.209.13.17-.83.17-2.88 0 3.034.4 4.187.811 3.46 1.234-1.092.635-4.86.338-7.399.338-1.117 0-5.807.174-5.807-.985 0-1.16.961-1.599 2.112-1.796z"/>
            <path fill="#008181" d="M31.097 79.012c-5.676-.736-7.036 4.933-1.055 10.216C34.03 92.75 40.55 94.792 49.6 95.353l3.33-3.35c-10.77-8.17-18.048-12.5-21.832-12.991z"/>
            <g transform="rotate(-45 61.953 24.778)">
                <mask id="b" fill="#fff">
                    <use xlink:href="#a"/>
                </mask>
                <use fill="#00BCBC" xlink:href="#a"/>
                <path fill="#E6F8F8" d="M55.306 50.596c4.31-.031 13.154-4.178 15.268-5.398.699-.403 3.511-2.74 4.09-5.778.534-2.801.184-4.605-1.073-6.782-2.42-4.191-6.989-6.757-11.586-8.168-5.545-1.7-13.767-1.858-17.185.718-3.418 2.577-3.625 3.636-5.13 10.791-1.506 7.155 5.496 14.69 15.616 14.617z" mask="url(#b)" transform="rotate(-60 57.196 36.907)"/>
            </g>
            <g transform="translate(72.229 67.563)">
                <path fill="#F19F07" d="M8.907 5.576c4.948 0 8.258-.886 8.88-2.468.088-.221.046-.767 0-.885C17.239.798 13.478 0 8.908 0 4.355 0 .597.894.022 2.31c-.05.124 0 .606 0 .734 0 1.594 3.936 2.532 8.885 2.532z"/>
                <ellipse cx="9.137" cy="2.19" fill="#FEE34B" rx="8.702" ry="2.19"/>
                <ellipse cx="9.137" cy="1.991" fill="#F19F07" rx="7.396" ry="1.991"/>
                <g transform="translate(1.74)">
                    <mask id="d" fill="#fff">
                        <use xlink:href="#c"/>
                    </mask>
                    <use fill="#FEE34B" xlink:href="#c"/>
                    <path fill="#FFFBB6" d="M2.302.148L3.7 3.847l4.95-.063L4.964.148zM.327.372l1.022 2.814h.64L1.157.372zM6.525 0l2.89 3.427 1.878-.184L7.117 0z" mask="url(#d)"/>
                </g>
            </g>
            <g transform="translate(72.229 56.895)">
                <path fill="#F19F07" d="M8.907 5.576c4.948 0 8.258-.886 8.88-2.468.088-.221.046-.767 0-.885C17.239.798 13.478 0 8.908 0 4.355 0 .597.894.022 2.31c-.05.124 0 .606 0 .734 0 1.594 3.936 2.532 8.885 2.532z"/>
                <ellipse cx="9.137" cy="2.19" fill="#FEE34B" rx="8.702" ry="2.19"/>
                <ellipse cx="9.137" cy="1.991" fill="#F19F07" rx="7.396" ry="1.991"/>
                <g transform="translate(1.74)">
                    <mask id="f" fill="#fff">
                        <use xlink:href="#e"/>
                    </mask>
                    <use fill="#FEE34B" xlink:href="#e"/>
                    <path fill="#FFFBB6" d="M2.302.148L3.7 3.847l4.95-.063L4.964.148zM.327.372l1.022 2.814h.64L1.157.372zM6.525 0l2.89 3.427 1.878-.184L7.117 0z" mask="url(#f)"/>
                </g>
            </g>
            <g transform="translate(75.221 55.371)">
                <path fill="#F19F07" d="M8.907 5.576c4.948 0 8.258-.886 8.88-2.468.088-.221.046-.767 0-.885C17.239.798 13.478 0 8.908 0 4.355 0 .597.894.022 2.31c-.05.124 0 .606 0 .734 0 1.594 3.936 2.532 8.885 2.532z"/>
                <ellipse cx="9.137" cy="2.19" fill="#FEE34B" rx="8.702" ry="2.19"/>
                <ellipse cx="9.137" cy="1.991" fill="#F19F07" rx="7.396" ry="1.991"/>
                <g transform="translate(1.74)">
                    <mask id="h" fill="#fff">
                        <use xlink:href="#g"/>
                    </mask>
                    <use fill="#FEE34B" xlink:href="#g"/>
                    <path fill="#FFFBB6" d="M2.302.148L3.7 3.847l4.95-.063L4.964.148zM.327.372l1.022 2.814h.64L1.157.372zM6.525 0l2.89 3.427 1.878-.184L7.117 0z" mask="url(#h)"/>
                </g>
            </g>
            <g transform="translate(76.718 56.895)">
                <path fill="#F19F07" d="M8.907 5.576c4.948 0 8.258-.886 8.88-2.468.088-.221.046-.767 0-.885C17.239.798 13.478 0 8.908 0 4.355 0 .597.894.022 2.31c-.05.124 0 .606 0 .734 0 1.594 3.936 2.532 8.885 2.532z"/>
                <ellipse cx="9.137" cy="2.19" fill="#FEE34B" rx="8.702" ry="2.19"/>
                <ellipse cx="9.137" cy="1.991" fill="#F19F07" rx="7.396" ry="1.991"/>
                <g transform="translate(1.74)">
                    <mask id="j" fill="#fff">
                        <use xlink:href="#i"/>
                    </mask>
                    <use fill="#FEE34B" xlink:href="#i"/>
                    <path fill="#FFFBB6" d="M2.302.148L3.7 3.847l4.95-.063L4.964.148zM.327.372l1.022 2.814h.64L1.157.372zM6.525 0l2.89 3.427 1.878-.184L7.117 0z" mask="url(#j)"/>
                </g>
            </g>
            <g transform="translate(81.207 55.371)">
                <path fill="#F19F07" d="M8.907 5.576c4.948 0 8.258-.886 8.88-2.468.088-.221.046-.767 0-.885C17.239.798 13.478 0 8.908 0 4.355 0 .597.894.022 2.31c-.05.124 0 .606 0 .734 0 1.594 3.936 2.532 8.885 2.532z"/>
                <ellipse cx="9.137" cy="2.19" fill="#FEE34B" rx="8.702" ry="2.19"/>
                <ellipse cx="9.137" cy="1.991" fill="#F19F07" rx="7.396" ry="1.991"/>
                <g transform="translate(1.74)">
                    <mask id="l" fill="#fff">
                        <use xlink:href="#k"/>
                    </mask>
                    <use fill="#FEE34B" xlink:href="#k"/>
                    <path fill="#FFFBB6" d="M2.302.148L3.7 3.847l4.95-.063L4.964.148zM.327.372l1.022 2.814h.64L1.157.372zM6.525 0l2.89 3.427 1.878-.184L7.117 0z" mask="url(#l)"/>
                </g>
            </g>
            <g transform="translate(88.689 56.895)">
                <path fill="#F19F07" d="M8.907 5.576c4.948 0 8.258-.886 8.88-2.468.088-.221.046-.767 0-.885C17.239.798 13.478 0 8.908 0 4.355 0 .597.894.022 2.31c-.05.124 0 .606 0 .734 0 1.594 3.936 2.532 8.885 2.532z"/>
                <ellipse cx="9.137" cy="2.19" fill="#FEE34B" rx="8.702" ry="2.19"/>
                <ellipse cx="9.137" cy="1.991" fill="#F19F07" rx="7.396" ry="1.991"/>
                <g transform="translate(1.74)">
                    <mask id="n" fill="#fff">
                        <use xlink:href="#m"/>
                    </mask>
                    <use fill="#FEE34B" xlink:href="#m"/>
                    <path fill="#FFFBB6" d="M2.302.148L3.7 3.847l4.95-.063L4.964.148zM.327.372l1.022 2.814h.64L1.157.372zM6.525 0l2.89 3.427 1.878-.184L7.117 0z" mask="url(#n)"/>
                </g>
            </g>
            <g transform="translate(96.171 55.371)">
                <path fill="#F19F07" d="M8.907 5.576c4.948 0 8.258-.886 8.88-2.468.088-.221.046-.767 0-.885C17.239.798 13.478 0 8.908 0 4.355 0 .597.894.022 2.31c-.05.124 0 .606 0 .734 0 1.594 3.936 2.532 8.885 2.532z"/>
                <ellipse cx="9.137" cy="2.19" fill="#FEE34B" rx="8.702" ry="2.19"/>
                <ellipse cx="9.137" cy="1.991" fill="#F19F07" rx="7.396" ry="1.991"/>
                <g transform="translate(1.74)">
                    <mask id="p" fill="#fff">
                        <use xlink:href="#o"/>
                    </mask>
                    <use fill="#FEE34B" xlink:href="#o"/>
                    <path fill="#FFFBB6" d="M2.302.148L3.7 3.847l4.95-.063L4.964.148zM.327.372l1.022 2.814h.64L1.157.372zM6.525 0l2.89 3.427 1.878-.184L7.117 0z" mask="url(#p)"/>
                </g>
            </g>
            <g transform="translate(96.171 53.847)">
                <path fill="#F19F07" d="M8.907 5.576c4.948 0 8.258-.886 8.88-2.468.088-.221.046-.767 0-.885C17.239.798 13.478 0 8.908 0 4.355 0 .597.894.022 2.31c-.05.124 0 .606 0 .734 0 1.594 3.936 2.532 8.885 2.532z"/>
                <ellipse cx="9.137" cy="2.19" fill="#FEE34B" rx="8.702" ry="2.19"/>
                <ellipse cx="9.137" cy="1.991" fill="#F19F07" rx="7.396" ry="1.991"/>
                <g transform="translate(1.74)">
                    <mask id="r" fill="#fff">
                        <use xlink:href="#q"/>
                    </mask>
                    <use fill="#FEE34B" xlink:href="#q"/>
                    <path fill="#FFFBB6" d="M2.302.148L3.7 3.847l4.95-.063L4.964.148zM.327.372l1.022 2.814h.64L1.157.372zM6.525 0l2.89 3.427 1.878-.184L7.117 0z" mask="url(#r)"/>
                </g>
            </g>
            <g transform="translate(102.157 52.323)">
                <path fill="#F19F07" d="M8.907 5.576c4.948 0 8.258-.886 8.88-2.468.088-.221.046-.767 0-.885C17.239.798 13.478 0 8.908 0 4.355 0 .597.894.022 2.31c-.05.124 0 .606 0 .734 0 1.594 3.936 2.532 8.885 2.532z"/>
                <ellipse cx="9.137" cy="2.19" fill="#FEE34B" rx="8.702" ry="2.19"/>
                <ellipse cx="9.137" cy="1.991" fill="#F19F07" rx="7.396" ry="1.991"/>
                <g transform="translate(1.74)">
                    <mask id="t" fill="#fff">
                        <use xlink:href="#s"/>
                    </mask>
                    <use fill="#FEE34B" xlink:href="#s"/>
                    <path fill="#FFFBB6" d="M2.302.148L3.7 3.847l4.95-.063L4.964.148zM.327.372l1.022 2.814h.64L1.157.372zM6.525 0l2.89 3.427 1.878-.184L7.117 0z" mask="url(#t)"/>
                </g>
            </g>
            <g transform="translate(91.682 53.847)">
                <path fill="#F19F07" d="M8.907 5.576c4.948 0 8.258-.886 8.88-2.468.088-.221.046-.767 0-.885C17.239.798 13.478 0 8.908 0 4.355 0 .597.894.022 2.31c-.05.124 0 .606 0 .734 0 1.594 3.936 2.532 8.885 2.532z"/>
                <ellipse cx="9.137" cy="2.19" fill="#FEE34B" rx="8.702" ry="2.19"/>
                <ellipse cx="9.137" cy="1.991" fill="#F19F07" rx="7.396" ry="1.991"/>
                <g transform="translate(1.74)">
                    <mask id="v" fill="#fff">
                        <use xlink:href="#u"/>
                    </mask>
                    <use fill="#FEE34B" xlink:href="#u"/>
                    <path fill="#FFFBB6" d="M2.302.148L3.7 3.847l4.95-.063L4.964.148zM.327.372l1.022 2.814h.64L1.157.372zM6.525 0l2.89 3.427 1.878-.184L7.117 0z" mask="url(#v)"/>
                </g>
            </g>
            <g transform="translate(79.71 52.323)">
                <path fill="#F19F07" d="M8.907 5.576c4.948 0 8.258-.886 8.88-2.468.088-.221.046-.767 0-.885C17.239.798 13.478 0 8.908 0 4.355 0 .597.894.022 2.31c-.05.124 0 .606 0 .734 0 1.594 3.936 2.532 8.885 2.532z"/>
                <ellipse cx="9.137" cy="2.19" fill="#FEE34B" rx="8.702" ry="2.19"/>
                <ellipse cx="9.137" cy="1.991" fill="#F19F07" rx="7.396" ry="1.991"/>
                <g transform="translate(1.74)">
                    <mask id="x" fill="#fff">
                        <use xlink:href="#w"/>
                    </mask>
                    <use fill="#FEE34B" xlink:href="#w"/>
                    <path fill="#FFFBB6" d="M2.302.148L3.7 3.847l4.95-.063L4.964.148zM.327.372l1.022 2.814h.64L1.157.372zM6.525 0l2.89 3.427 1.878-.184L7.117 0z" mask="url(#x)"/>
                </g>
            </g>
            <g transform="translate(97.667 50.8)">
                <path fill="#F19F07" d="M8.907 5.576c4.948 0 8.258-.886 8.88-2.468.088-.221.046-.767 0-.885C17.239.798 13.478 0 8.908 0 4.355 0 .597.894.022 2.31c-.05.124 0 .606 0 .734 0 1.594 3.936 2.532 8.885 2.532z"/>
                <ellipse cx="9.137" cy="2.19" fill="#FEE34B" rx="8.702" ry="2.19"/>
                <ellipse cx="9.137" cy="1.991" fill="#F19F07" rx="7.396" ry="1.991"/>
                <g transform="translate(1.74)">
                    <mask id="z" fill="#fff">
                        <use xlink:href="#y"/>
                    </mask>
                    <use fill="#FEE34B" xlink:href="#y"/>
                    <path fill="#FFFBB6" d="M2.302.148L3.7 3.847l4.95-.063L4.964.148zM.327.372l1.022 2.814h.64L1.157.372zM6.525 0l2.89 3.427 1.878-.184L7.117 0z" mask="url(#z)"/>
                </g>
            </g>
            <g transform="translate(87.193 50.8)">
                <path fill="#F19F07" d="M8.907 5.81c4.948 0 8.258-.923 8.88-2.571.088-.23.046-.8 0-.923C17.239.831 13.478 0 8.908 0 4.355 0 .597.932.022 2.408c-.05.129 0 .63 0 .764 0 1.662 3.936 2.638 8.885 2.638z"/>
                <ellipse cx="9.137" cy="2.283" fill="#FEE34B" rx="8.702" ry="2.283"/>
                <ellipse cx="9.137" cy="2.075" fill="#F19F07" rx="7.396" ry="2.075"/>
                <g transform="translate(1.74)">
                    <mask id="B" fill="#fff">
                        <use xlink:href="#A"/>
                    </mask>
                    <use fill="#FEE34B" xlink:href="#A"/>
                    <path fill="#FFFBB6" d="M2.302.154L3.7 4.009l4.95-.066L4.964.153zM.327.388L1.349 3.32h.64L1.157.388zM6.525 0l2.89 3.571 1.878-.191L7.117 0z" mask="url(#B)"/>
                </g>
            </g>
            <g transform="translate(102.157 47.751)">
                <path fill="#F19F07" d="M8.966 6.096c4.98 0 8.313-.969 8.94-2.698.087-.242.045-.84 0-.968C17.351.872 13.565 0 8.965 0 4.384 0 .6.978.022 2.526c-.05.135 0 .662 0 .802 0 1.743 3.962 2.768 8.944 2.768z"/>
                <ellipse cx="8.978" cy="2.438" fill="#FEE34B" rx="8.978" ry="2.438"/>
                <ellipse cx="8.978" cy="1.829" fill="#F19F07" rx="7.696" ry="1.829"/>
                <g transform="translate(1.283)">
                    <mask id="D" fill="#fff">
                        <use xlink:href="#C"/>
                    </mask>
                    <use fill="#FEE34B" xlink:href="#C"/>
                    <path fill="#FFFBB6" d="M2.302.154L3.7 4.009l4.95-.066L4.964.153zM.327.388L1.349 3.32h.64L1.157.388zM6.525 0l2.89 3.571 1.878-.191L7.117 0z" mask="url(#D)"/>
                </g>
            </g>
            <g transform="translate(87.193 47.751)">
                <path fill="#F19F07" d="M8.907 5.81c4.948 0 8.258-.923 8.88-2.571.088-.23.046-.8 0-.923C17.239.831 13.478 0 8.908 0 4.355 0 .597.932.022 2.408c-.05.129 0 .63 0 .764 0 1.662 3.936 2.638 8.885 2.638z"/>
                <ellipse cx="9.137" cy="2.283" fill="#FEE34B" rx="8.702" ry="2.283"/>
                <ellipse cx="9.137" cy="2.075" fill="#F19F07" rx="7.396" ry="2.075"/>
                <g transform="translate(1.74)">
                    <mask id="F" fill="#fff">
                        <use xlink:href="#E"/>
                    </mask>
                    <use fill="#FEE34B" xlink:href="#E"/>
                    <path fill="#FFFBB6" d="M2.302.154L3.7 4.009l4.95-.066L4.964.153zM.327.388L1.349 3.32h.64L1.157.388zM6.525 0l2.89 3.571 1.878-.191L7.117 0z" mask="url(#F)"/>
                </g>
            </g>
            <g transform="translate(97.667 44.703)">
                <path fill="#F19F07" d="M8.907 5.81c4.948 0 8.258-.923 8.88-2.571.088-.23.046-.8 0-.923C17.239.831 13.478 0 8.908 0 4.355 0 .597.932.022 2.408c-.05.129 0 .63 0 .764 0 1.662 3.936 2.638 8.885 2.638z"/>
                <ellipse cx="9.137" cy="2.283" fill="#FEE34B" rx="8.702" ry="2.283"/>
                <ellipse cx="9.137" cy="2.075" fill="#F19F07" rx="7.396" ry="2.075"/>
                <g transform="translate(1.74)">
                    <mask id="H" fill="#fff">
                        <use xlink:href="#G"/>
                    </mask>
                    <use fill="#FEE34B" xlink:href="#G"/>
                    <path fill="#FFFBB6" d="M2.302.154L3.7 4.009l4.95-.066L4.964.153zM.327.388L1.349 3.32h.64L1.157.388zM6.525 0l2.89 3.571 1.878-.191L7.117 0z" mask="url(#H)"/>
                </g>
            </g>
            <g>
                <path fill="#004472" d="M118.94 51.887c4.259-4.521 4.833-1.194 4.89.064.123 2.72-1.013 8.164-.032 10.699 9.517 24.597 1.732 39.782-20.204 42.53-21.936 2.747-31.123-16.217-30.696-26.908.428-10.69-2.335-9.82-6.484-14.658-1.145-1.335-1.195-5.634 3.333-4.178 10.497 3.376 43.9-1.932 49.193-7.55z"/>
                <path fill="#1C2C57" d="M126.376 85.422c-1.64 11.255-9.755 18.147-23.548 19.884-21.691 2.732-31.003-8.916-30.616-19.833.387-10.916 1.209-14.077-3.549-19.47 8.554 3.759 13.977 38.767 57.713 19.42z"/>
            </g>
            <path d="M98.519 83.198c14.335-.171 24.638-3.069 30.91-8.693"/>
            <text fill="#FFF" font-family="Muli-ExtraBold, Muli" font-size="12" font-weight="600" letter-spacing=".6" transform="translate(63.928 44.487)">
                <tspan x="36.982" y="28.051">SRS</tspan>
            </text>
            <path fill="#00BCBC" d="M48.093 12.229S51.27 9.08 54.567 9.08c2.199 0 3.867 2.108 5.005 6.323L48.093 12.23z"/>
            <ellipse cx="71.269" cy="33.725" fill="#007F7E" rx="1.672" ry="2.681" transform="rotate(-8 71.269 33.725)"/>
            <path fill="#FFA32C" d="M78.36 34.822c1.84 1.503 2.747 2.573 2.722 3.211-.037.957-1.2 5.37-1.941 6.141-.494.515-.723.61-.687.287l-.095-9.64z"/>
            <path fill="#008181" d="M56.223 56.398c-4.267-3.39-10.527-8.077-16.857-3.222s-5.198 11.247-1.888 16.183c3.31 4.935 4.239 8.237 9.232 12.024 4.993 3.787 2.927 5.848 21.537 7.99 1.92.221 10.947-.213 17.706 1.267 8.772 1.921 9.292-5.032 9.531-5.658.19-.5-.05-1.88-.341-2.05-.683-.397-.084-.005-.209-.288-.125-.282.113.047.403-.406.163-.253.186-.199-.291-1.276-.477-1.078-.79-.677-.964-.912-.175-.235.185-.489-.77-1.188-1.545-1.13-5.438 2.058-5.248 1.906 2.304-1.846 2.479-2.803 2.087-4.072-.392-1.27-2.215 1.837-3.096 2.232-.686.306-1.547-.259-2.265-.158-.587.082-1.439.306-2.555.674-8.566-5.352-13.833-8.185-15.802-8.499-2.952-.471-5.944-11.156-10.21-14.547z"/>
        </g>
        <g transform="translate(118.681 91.105)">
            <path fill="#F19F07" d="M15.333 10.138c8.52 0 14.219-1.61 15.29-4.487.15-.402.078-1.395 0-1.61C29.677 1.451 23.202 0 15.333 0 7.498 0 1.027 1.626.038 4.202c-.086.224 0 1.1 0 1.332 0 2.9 6.776 4.604 15.295 4.604z"/>
            <ellipse cx="15.73" cy="3.983" fill="#FEE34B" rx="14.981" ry="3.983"/>
            <ellipse cx="15.73" cy="3.621" fill="#F19F07" rx="12.734" ry="3.621"/>
            <g transform="translate(2.996)">
                <mask id="J" fill="#fff">
                    <use xlink:href="#I"/>
                </mask>
                <use fill="#FEE34B" xlink:href="#I"/>
                <path fill="#FFFBB6" d="M3.963.269L6.37 6.995l8.522-.116L8.546.27zM.563.676l1.76 5.117h1.1L1.993.676zM11.233 0l4.975 6.231 3.234-.334L12.252 0z" mask="url(#J)"/>
            </g>
        </g>
        <g transform="translate(118.681 88.233)">
            <path fill="#F19F07" d="M15.333 10.138c8.52 0 14.219-1.61 15.29-4.487.15-.402.078-1.395 0-1.61C29.677 1.451 23.202 0 15.333 0 7.498 0 1.027 1.626.038 4.202c-.086.224 0 1.1 0 1.332 0 2.9 6.776 4.604 15.295 4.604z"/>
            <ellipse cx="15.73" cy="3.983" fill="#FEE34B" rx="14.981" ry="3.983"/>
            <ellipse cx="15.73" cy="3.621" fill="#F19F07" rx="12.734" ry="3.621"/>
            <g transform="translate(2.996)">
                <mask id="L" fill="#fff">
                    <use xlink:href="#K"/>
                </mask>
                <use fill="#FEE34B" xlink:href="#K"/>
                <path fill="#FFFBB6" d="M3.963.269L6.37 6.995l8.522-.116L8.546.27zM.563.676l1.76 5.117h1.1L1.993.676zM11.233 0l4.975 6.231 3.234-.334L12.252 0z" mask="url(#L)"/>
            </g>
        </g>
        <g transform="translate(118.681 85.362)">
            <path fill="#F19F07" d="M15.333 10.138c8.52 0 14.219-1.61 15.29-4.487.15-.402.078-1.395 0-1.61C29.677 1.451 23.202 0 15.333 0 7.498 0 1.027 1.626.038 4.202c-.086.224 0 1.1 0 1.332 0 2.9 6.776 4.604 15.295 4.604z"/>
            <ellipse cx="15.73" cy="3.983" fill="#FEE34B" rx="14.981" ry="3.983"/>
            <ellipse cx="15.73" cy="3.621" fill="#F19F07" rx="12.734" ry="3.621"/>
            <g transform="translate(2.996)">
                <mask id="N" fill="#fff">
                    <use xlink:href="#M"/>
                </mask>
                <use fill="#FEE34B" xlink:href="#M"/>
                <path fill="#FFFBB6" d="M3.963.269L6.37 6.995l8.522-.116L8.546.27zM.563.676l1.76 5.117h1.1L1.993.676zM11.233 0l4.975 6.231 3.234-.334L12.252 0z" mask="url(#N)"/>
            </g>
        </g>
        <g transform="translate(118.681 82.49)">
            <path fill="#F19F07" d="M15.333 10.138c8.52 0 14.219-1.61 15.29-4.487.15-.402.078-1.395 0-1.61C29.677 1.451 23.202 0 15.333 0 7.498 0 1.027 1.626.038 4.202c-.086.224 0 1.1 0 1.332 0 2.9 6.776 4.604 15.295 4.604z"/>
            <ellipse cx="15.73" cy="3.983" fill="#FEE34B" rx="14.981" ry="3.983"/>
            <ellipse cx="15.73" cy="3.621" fill="#F19F07" rx="12.734" ry="3.621"/>
            <g transform="translate(2.996)">
                <mask id="P" fill="#fff">
                    <use xlink:href="#O"/>
                </mask>
                <use fill="#FEE34B" xlink:href="#O"/>
                <path fill="#FFFBB6" d="M3.963.269L6.37 6.995l8.522-.116L8.546.27zM.563.676l1.76 5.117h1.1L1.993.676zM11.233 0l4.975 6.231 3.234-.334L12.252 0z" mask="url(#P)"/>
            </g>
        </g>
        <g transform="translate(118.681 79.618)">
            <path fill="#F19F07" d="M15.333 10.138c8.52 0 14.219-1.61 15.29-4.487.15-.402.078-1.395 0-1.61C29.677 1.451 23.202 0 15.333 0 7.498 0 1.027 1.626.038 4.202c-.086.224 0 1.1 0 1.332 0 2.9 6.776 4.604 15.295 4.604z"/>
            <ellipse cx="15.73" cy="3.983" fill="#FEE34B" rx="14.981" ry="3.983"/>
            <ellipse cx="15.73" cy="3.621" fill="#F19F07" rx="12.734" ry="3.621"/>
            <g transform="translate(2.996)">
                <mask id="R" fill="#fff">
                    <use xlink:href="#Q"/>
                </mask>
                <use fill="#FEE34B" xlink:href="#Q"/>
                <path fill="#FFFBB6" d="M3.963.269L6.37 6.995l8.522-.116L8.546.27zM.563.676l1.76 5.117h1.1L1.993.676zM11.233 0l4.975 6.231 3.234-.334L12.252 0z" mask="url(#R)"/>
            </g>
        </g>
        <g transform="translate(118.681 76.746)">
            <path fill="#F19F07" d="M15.333 10.138c8.52 0 14.219-1.61 15.29-4.487.15-.402.078-1.395 0-1.61C29.677 1.451 23.202 0 15.333 0 7.498 0 1.027 1.626.038 4.202c-.086.224 0 1.1 0 1.332 0 2.9 6.776 4.604 15.295 4.604z"/>
            <ellipse cx="15.73" cy="3.983" fill="#FEE34B" rx="14.981" ry="3.983"/>
            <ellipse cx="15.73" cy="3.621" fill="#F19F07" rx="12.734" ry="3.621"/>
            <g transform="translate(2.996)">
                <mask id="T" fill="#fff">
                    <use xlink:href="#S"/>
                </mask>
                <use fill="#FEE34B" xlink:href="#S"/>
                <path fill="#FFFBB6" d="M3.963.269L6.37 6.995l8.522-.116L8.546.27zM.563.676l1.76 5.117h1.1L1.993.676zM11.233 0l4.975 6.231 3.234-.334L12.252 0z" mask="url(#T)"/>
            </g>
        </g>
        <g>
            <g transform="translate(159.487 90.828)">
                <path fill="#F19F07" d="M15.333 10.405c8.52 0 14.219-1.653 15.29-4.605.15-.413.078-1.432 0-1.652C29.677 1.488 23.202 0 15.333 0 7.498 0 1.027 1.67.038 4.312c-.086.23 0 1.129 0 1.368 0 2.976 6.776 4.725 15.295 4.725z"/>
                <ellipse cx="15.73" cy="4.088" fill="#FEE34B" rx="14.981" ry="4.088"/>
                <ellipse cx="15.73" cy="3.716" fill="#F19F07" rx="12.734" ry="3.716"/>
                <g transform="translate(2.996)">
                    <mask id="V" fill="#fff">
                        <use xlink:href="#U"/>
                    </mask>
                    <use fill="#FEE34B" xlink:href="#U"/>
                    <path fill="#FFFBB6" d="M3.963.276L6.37 7.179l8.522-.118L8.546.276zM.563.694l1.76 5.252h1.1L1.993.694zM11.233 0l4.975 6.395 3.234-.343L12.252 0z" mask="url(#V)"/>
                </g>
            </g>
            <g transform="translate(159.487 87.88)">
                <path fill="#F19F07" d="M15.333 10.405c8.52 0 14.219-1.653 15.29-4.605.15-.413.078-1.432 0-1.652C29.677 1.488 23.202 0 15.333 0 7.498 0 1.027 1.67.038 4.312c-.086.23 0 1.129 0 1.368 0 2.976 6.776 4.725 15.295 4.725z"/>
                <ellipse cx="15.73" cy="4.088" fill="#FEE34B" rx="14.981" ry="4.088"/>
                <ellipse cx="15.73" cy="3.716" fill="#F19F07" rx="12.734" ry="3.716"/>
                <g transform="translate(2.996)">
                    <mask id="X" fill="#fff">
                        <use xlink:href="#W"/>
                    </mask>
                    <use fill="#FEE34B" xlink:href="#W"/>
                    <path fill="#FFFBB6" d="M3.963.276L6.37 7.179l8.522-.118L8.546.276zM.563.694l1.76 5.252h1.1L1.993.694zM11.233 0l4.975 6.395 3.234-.343L12.252 0z" mask="url(#X)"/>
                </g>
            </g>
            <g transform="translate(159.487 84.933)">
                <path fill="#F19F07" d="M15.333 10.405c8.52 0 14.219-1.653 15.29-4.605.15-.413.078-1.432 0-1.652C29.677 1.488 23.202 0 15.333 0 7.498 0 1.027 1.67.038 4.312c-.086.23 0 1.129 0 1.368 0 2.976 6.776 4.725 15.295 4.725z"/>
                <ellipse cx="15.73" cy="4.088" fill="#FEE34B" rx="14.981" ry="4.088"/>
                <ellipse cx="15.73" cy="3.716" fill="#F19F07" rx="12.734" ry="3.716"/>
                <g transform="translate(2.996)">
                    <mask id="Z" fill="#fff">
                        <use xlink:href="#Y"/>
                    </mask>
                    <use fill="#FEE34B" xlink:href="#Y"/>
                    <path fill="#FFFBB6" d="M3.963.276L6.37 7.179l8.522-.118L8.546.276zM.563.694l1.76 5.252h1.1L1.993.694zM11.233 0l4.975 6.395 3.234-.343L12.252 0z" mask="url(#Z)"/>
                </g>
            </g>
            <g transform="translate(159.487 81.986)">
                <path fill="#F19F07" d="M15.333 10.405c8.52 0 14.219-1.653 15.29-4.605.15-.413.078-1.432 0-1.652C29.677 1.488 23.202 0 15.333 0 7.498 0 1.027 1.67.038 4.312c-.086.23 0 1.129 0 1.368 0 2.976 6.776 4.725 15.295 4.725z"/>
                <ellipse cx="15.73" cy="4.088" fill="#FEE34B" rx="14.981" ry="4.088"/>
                <ellipse cx="15.73" cy="3.716" fill="#F19F07" rx="12.734" ry="3.716"/>
                <g transform="translate(2.996)">
                    <mask id="ab" fill="#fff">
                        <use xlink:href="#aa"/>
                    </mask>
                    <use fill="#FEE34B" xlink:href="#aa"/>
                    <path fill="#FFFBB6" d="M3.963.276L6.37 7.179l8.522-.118L8.546.276zM.563.694l1.76 5.252h1.1L1.993.694zM11.233 0l4.975 6.395 3.234-.343L12.252 0z" mask="url(#ab)"/>
                </g>
            </g>
            <g transform="translate(159.487 79.039)">
                <path fill="#F19F07" d="M15.333 10.405c8.52 0 14.219-1.653 15.29-4.605.15-.413.078-1.432 0-1.652C29.677 1.488 23.202 0 15.333 0 7.498 0 1.027 1.67.038 4.312c-.086.23 0 1.129 0 1.368 0 2.976 6.776 4.725 15.295 4.725z"/>
                <ellipse cx="15.73" cy="4.088" fill="#FEE34B" rx="14.981" ry="4.088"/>
                <ellipse cx="15.73" cy="3.716" fill="#F19F07" rx="12.734" ry="3.716"/>
                <g transform="translate(2.996)">
                    <mask id="ad" fill="#fff">
                        <use xlink:href="#ac"/>
                    </mask>
                    <use fill="#FEE34B" xlink:href="#ac"/>
                    <path fill="#FFFBB6" d="M3.963.276L6.37 7.179l8.522-.118L8.546.276zM.563.694l1.76 5.252h1.1L1.993.694zM11.233 0l4.975 6.395 3.234-.343L12.252 0z" mask="url(#ad)"/>
                </g>
            </g>
            <g transform="translate(159.487 76.091)">
                <path fill="#F19F07" d="M15.333 10.405c8.52 0 14.219-1.653 15.29-4.605.15-.413.078-1.432 0-1.652C29.677 1.488 23.202 0 15.333 0 7.498 0 1.027 1.67.038 4.312c-.086.23 0 1.129 0 1.368 0 2.976 6.776 4.725 15.295 4.725z"/>
                <ellipse cx="15.73" cy="4.088" fill="#FEE34B" rx="14.981" ry="4.088"/>
                <ellipse cx="15.73" cy="3.716" fill="#F19F07" rx="12.734" ry="3.716"/>
                <g transform="translate(2.996)">
                    <mask id="af" fill="#fff">
                        <use xlink:href="#ae"/>
                    </mask>
                    <use fill="#FEE34B" xlink:href="#ae"/>
                    <path fill="#FFFBB6" d="M3.963.276L6.37 7.179l8.522-.118L8.546.276zM.563.694l1.76 5.252h1.1L1.993.694zM11.233 0l4.975 6.395 3.234-.343L12.252 0z" mask="url(#af)"/>
                </g>
            </g>
            <g transform="translate(159.487 73.144)">
                <path fill="#F19F07" d="M15.333 10.405c8.52 0 14.219-1.653 15.29-4.605.15-.413.078-1.432 0-1.652C29.677 1.488 23.202 0 15.333 0 7.498 0 1.027 1.67.038 4.312c-.086.23 0 1.129 0 1.368 0 2.976 6.776 4.725 15.295 4.725z"/>
                <ellipse cx="15.73" cy="4.088" fill="#FEE34B" rx="14.981" ry="4.088"/>
                <ellipse cx="15.73" cy="3.716" fill="#F19F07" rx="12.734" ry="3.716"/>
                <g transform="translate(2.996)">
                    <mask id="ah" fill="#fff">
                        <use xlink:href="#ag"/>
                    </mask>
                    <use fill="#FEE34B" xlink:href="#ag"/>
                    <path fill="#FFFBB6" d="M3.963.276L6.37 7.179l8.522-.118L8.546.276zM.563.694l1.76 5.252h1.1L1.993.694zM11.233 0l4.975 6.395 3.234-.343L12.252 0z" mask="url(#ah)"/>
                </g>
            </g>
            <g transform="translate(159.487 70.196)">
                <path fill="#F19F07" d="M15.333 10.405c8.52 0 14.219-1.653 15.29-4.605.15-.413.078-1.432 0-1.652C29.677 1.488 23.202 0 15.333 0 7.498 0 1.027 1.67.038 4.312c-.086.23 0 1.129 0 1.368 0 2.976 6.776 4.725 15.295 4.725z"/>
                <ellipse cx="15.73" cy="4.088" fill="#FEE34B" rx="14.981" ry="4.088"/>
                <ellipse cx="15.73" cy="3.716" fill="#F19F07" rx="12.734" ry="3.716"/>
                <g transform="translate(2.996)">
                    <mask id="aj" fill="#fff">
                        <use xlink:href="#ai"/>
                    </mask>
                    <use fill="#FEE34B" xlink:href="#ai"/>
                    <path fill="#FFFBB6" d="M3.963.276L6.37 7.179l8.522-.118L8.546.276zM.563.694l1.76 5.252h1.1L1.993.694zM11.233 0l4.975 6.395 3.234-.343L12.252 0z" mask="url(#aj)"/>
                </g>
            </g>
            <g transform="translate(159.487 67.25)">
                <path fill="#F19F07" d="M15.333 10.405c8.52 0 14.219-1.653 15.29-4.605.15-.413.078-1.432 0-1.652C29.677 1.488 23.202 0 15.333 0 7.498 0 1.027 1.67.038 4.312c-.086.23 0 1.129 0 1.368 0 2.976 6.776 4.725 15.295 4.725z"/>
                <ellipse cx="15.73" cy="4.088" fill="#FEE34B" rx="14.981" ry="4.088"/>
                <ellipse cx="15.73" cy="3.716" fill="#F19F07" rx="12.734" ry="3.716"/>
                <g transform="translate(2.996)">
                    <mask id="al" fill="#fff">
                        <use xlink:href="#ak"/>
                    </mask>
                    <use fill="#FEE34B" xlink:href="#ak"/>
                    <path fill="#FFFBB6" d="M3.963.276L6.37 7.179l8.522-.118L8.546.276zM.563.694l1.76 5.252h1.1L1.993.694zM11.233 0l4.975 6.395 3.234-.343L12.252 0z" mask="url(#al)"/>
                </g>
            </g>
            <g transform="translate(159.487 64.302)">
                <path fill="#F19F07" d="M15.333 10.405c8.52 0 14.219-1.653 15.29-4.605.15-.413.078-1.432 0-1.652C29.677 1.488 23.202 0 15.333 0 7.498 0 1.027 1.67.038 4.312c-.086.23 0 1.129 0 1.368 0 2.976 6.776 4.725 15.295 4.725z"/>
                <ellipse cx="15.73" cy="4.088" fill="#FEE34B" rx="14.981" ry="4.088"/>
                <ellipse cx="15.73" cy="3.716" fill="#F19F07" rx="12.734" ry="3.716"/>
                <g transform="translate(2.996)">
                    <mask id="an" fill="#fff">
                        <use xlink:href="#am"/>
                    </mask>
                    <use fill="#FEE34B" xlink:href="#am"/>
                    <path fill="#FFFBB6" d="M3.963.276L6.37 7.179l8.522-.118L8.546.276zM.563.694l1.76 5.252h1.1L1.993.694zM11.233 0l4.975 6.395 3.234-.343L12.252 0z" mask="url(#an)"/>
                </g>
            </g>
        </g>
        <g>
            <g transform="translate(201.53 90.88)">
                <path fill="#F19F07" d="M15.333 10.355c8.52 0 14.219-1.645 15.29-4.583.15-.411.078-1.425 0-1.644C29.677 1.482 23.202 0 15.333 0 7.498 0 1.027 1.661.038 4.292c-.086.229 0 1.123 0 1.36 0 2.962 6.776 4.703 15.295 4.703z"/>
                <ellipse cx="15.73" cy="4.068" fill="#FEE34B" rx="14.981" ry="4.068"/>
                <ellipse cx="15.73" cy="3.698" fill="#F19F07" rx="12.734" ry="3.698"/>
                <g transform="translate(2.996)">
                    <mask id="ap" fill="#fff">
                        <use xlink:href="#ao"/>
                    </mask>
                    <use fill="#FEE34B" xlink:href="#ao"/>
                    <path fill="#FFFBB6" d="M3.963.274l2.407 6.87 8.522-.117L8.546.274zM.563.69l1.76 5.227h1.1L1.993.691zM11.233 0l4.975 6.365 3.234-.342L12.252 0z" mask="url(#ap)"/>
                </g>
            </g>
            <g transform="translate(201.53 87.946)">
                <path fill="#F19F07" d="M15.333 10.355c8.52 0 14.219-1.645 15.29-4.583.15-.411.078-1.425 0-1.644C29.677 1.482 23.202 0 15.333 0 7.498 0 1.027 1.661.038 4.292c-.086.229 0 1.123 0 1.36 0 2.962 6.776 4.703 15.295 4.703z"/>
                <ellipse cx="15.73" cy="4.068" fill="#FEE34B" rx="14.981" ry="4.068"/>
                <ellipse cx="15.73" cy="3.698" fill="#F19F07" rx="12.734" ry="3.698"/>
                <g transform="translate(2.996)">
                    <mask id="ar" fill="#fff">
                        <use xlink:href="#aq"/>
                    </mask>
                    <use fill="#FEE34B" xlink:href="#aq"/>
                    <path fill="#FFFBB6" d="M3.963.274l2.407 6.87 8.522-.117L8.546.274zM.563.69l1.76 5.227h1.1L1.993.691zM11.233 0l4.975 6.365 3.234-.342L12.252 0z" mask="url(#ar)"/>
                </g>
            </g>
            <g transform="translate(201.53 85.013)">
                <path fill="#F19F07" d="M15.333 10.355c8.52 0 14.219-1.645 15.29-4.583.15-.411.078-1.425 0-1.644C29.677 1.482 23.202 0 15.333 0 7.498 0 1.027 1.661.038 4.292c-.086.229 0 1.123 0 1.36 0 2.962 6.776 4.703 15.295 4.703z"/>
                <ellipse cx="15.73" cy="4.068" fill="#FEE34B" rx="14.981" ry="4.068"/>
                <ellipse cx="15.73" cy="3.698" fill="#F19F07" rx="12.734" ry="3.698"/>
                <g transform="translate(2.996)">
                    <mask id="at" fill="#fff">
                        <use xlink:href="#as"/>
                    </mask>
                    <use fill="#FEE34B" xlink:href="#as"/>
                    <path fill="#FFFBB6" d="M3.963.274l2.407 6.87 8.522-.117L8.546.274zM.563.69l1.76 5.227h1.1L1.993.691zM11.233 0l4.975 6.365 3.234-.342L12.252 0z" mask="url(#at)"/>
                </g>
            </g>
            <g transform="translate(201.53 82.08)">
                <path fill="#F19F07" d="M15.333 10.355c8.52 0 14.219-1.645 15.29-4.583.15-.411.078-1.425 0-1.644C29.677 1.482 23.202 0 15.333 0 7.498 0 1.027 1.661.038 4.292c-.086.229 0 1.123 0 1.36 0 2.962 6.776 4.703 15.295 4.703z"/>
                <ellipse cx="15.73" cy="4.068" fill="#FEE34B" rx="14.981" ry="4.068"/>
                <ellipse cx="15.73" cy="3.698" fill="#F19F07" rx="12.734" ry="3.698"/>
                <g transform="translate(2.996)">
                    <mask id="av" fill="#fff">
                        <use xlink:href="#au"/>
                    </mask>
                    <use fill="#FEE34B" xlink:href="#au"/>
                    <path fill="#FFFBB6" d="M3.963.274l2.407 6.87 8.522-.117L8.546.274zM.563.69l1.76 5.227h1.1L1.993.691zM11.233 0l4.975 6.365 3.234-.342L12.252 0z" mask="url(#av)"/>
                </g>
            </g>
            <g transform="translate(201.53 79.146)">
                <path fill="#F19F07" d="M15.333 10.355c8.52 0 14.219-1.645 15.29-4.583.15-.411.078-1.425 0-1.644C29.677 1.482 23.202 0 15.333 0 7.498 0 1.027 1.661.038 4.292c-.086.229 0 1.123 0 1.36 0 2.962 6.776 4.703 15.295 4.703z"/>
                <ellipse cx="15.73" cy="4.068" fill="#FEE34B" rx="14.981" ry="4.068"/>
                <ellipse cx="15.73" cy="3.698" fill="#F19F07" rx="12.734" ry="3.698"/>
                <g transform="translate(2.996)">
                    <mask id="ax" fill="#fff">
                        <use xlink:href="#aw"/>
                    </mask>
                    <use fill="#FEE34B" xlink:href="#aw"/>
                    <path fill="#FFFBB6" d="M3.963.274l2.407 6.87 8.522-.117L8.546.274zM.563.69l1.76 5.227h1.1L1.993.691zM11.233 0l4.975 6.365 3.234-.342L12.252 0z" mask="url(#ax)"/>
                </g>
            </g>
            <g transform="translate(201.53 76.213)">
                <path fill="#F19F07" d="M15.333 10.355c8.52 0 14.219-1.645 15.29-4.583.15-.411.078-1.425 0-1.644C29.677 1.482 23.202 0 15.333 0 7.498 0 1.027 1.661.038 4.292c-.086.229 0 1.123 0 1.36 0 2.962 6.776 4.703 15.295 4.703z"/>
                <ellipse cx="15.73" cy="4.068" fill="#FEE34B" rx="14.981" ry="4.068"/>
                <ellipse cx="15.73" cy="3.698" fill="#F19F07" rx="12.734" ry="3.698"/>
                <g transform="translate(2.996)">
                    <mask id="az" fill="#fff">
                        <use xlink:href="#ay"/>
                    </mask>
                    <use fill="#FEE34B" xlink:href="#ay"/>
                    <path fill="#FFFBB6" d="M3.963.274l2.407 6.87 8.522-.117L8.546.274zM.563.69l1.76 5.227h1.1L1.993.691zM11.233 0l4.975 6.365 3.234-.342L12.252 0z" mask="url(#az)"/>
                </g>
            </g>
            <g transform="translate(201.53 73.28)">
                <path fill="#F19F07" d="M15.333 10.355c8.52 0 14.219-1.645 15.29-4.583.15-.411.078-1.425 0-1.644C29.677 1.482 23.202 0 15.333 0 7.498 0 1.027 1.661.038 4.292c-.086.229 0 1.123 0 1.36 0 2.962 6.776 4.703 15.295 4.703z"/>
                <ellipse cx="15.73" cy="4.068" fill="#FEE34B" rx="14.981" ry="4.068"/>
                <ellipse cx="15.73" cy="3.698" fill="#F19F07" rx="12.734" ry="3.698"/>
                <g transform="translate(2.996)">
                    <mask id="aB" fill="#fff">
                        <use xlink:href="#aA"/>
                    </mask>
                    <use fill="#FEE34B" xlink:href="#aA"/>
                    <path fill="#FFFBB6" d="M3.963.274l2.407 6.87 8.522-.117L8.546.274zM.563.69l1.76 5.227h1.1L1.993.691zM11.233 0l4.975 6.365 3.234-.342L12.252 0z" mask="url(#aB)"/>
                </g>
            </g>
            <g transform="translate(201.53 58.613)">
                <path fill="#F19F07" d="M15.333 10.355c8.52 0 14.219-1.645 15.29-4.583.15-.411.078-1.425 0-1.644C29.677 1.482 23.202 0 15.333 0 7.498 0 1.027 1.661.038 4.292c-.086.229 0 1.123 0 1.36 0 2.962 6.776 4.703 15.295 4.703z"/>
                <ellipse cx="15.73" cy="4.068" fill="#FEE34B" rx="14.981" ry="4.068"/>
                <ellipse cx="15.73" cy="3.698" fill="#F19F07" rx="12.734" ry="3.698"/>
                <g transform="translate(2.996)">
                    <mask id="aD" fill="#fff">
                        <use xlink:href="#aC"/>
                    </mask>
                    <use fill="#FEE34B" xlink:href="#aC"/>
                    <path fill="#FFFBB6" d="M3.963.274l2.407 6.87 8.522-.117L8.546.274zM.563.69l1.76 5.227h1.1L1.993.691zM11.233 0l4.975 6.365 3.234-.342L12.252 0z" mask="url(#aD)"/>
                </g>
            </g>
            <g transform="translate(201.53 67.413)">
                <path fill="#F19F07" d="M15.333 10.355c8.52 0 14.219-1.645 15.29-4.583.15-.411.078-1.425 0-1.644C29.677 1.482 23.202 0 15.333 0 7.498 0 1.027 1.661.038 4.292c-.086.229 0 1.123 0 1.36 0 2.962 6.776 4.703 15.295 4.703z"/>
                <ellipse cx="15.73" cy="4.068" fill="#FEE34B" rx="14.981" ry="4.068"/>
                <ellipse cx="15.73" cy="3.698" fill="#F19F07" rx="12.734" ry="3.698"/>
                <g transform="translate(2.996)">
                    <mask id="aF" fill="#fff">
                        <use xlink:href="#aE"/>
                    </mask>
                    <use fill="#FEE34B" xlink:href="#aE"/>
                    <path fill="#FFFBB6" d="M3.963.274l2.407 6.87 8.522-.117L8.546.274zM.563.69l1.76 5.227h1.1L1.993.691zM11.233 0l4.975 6.365 3.234-.342L12.252 0z" mask="url(#aF)"/>
                </g>
            </g>
            <g transform="translate(201.53 64.48)">
                <path fill="#F19F07" d="M15.333 10.355c8.52 0 14.219-1.645 15.29-4.583.15-.411.078-1.425 0-1.644C29.677 1.482 23.202 0 15.333 0 7.498 0 1.027 1.661.038 4.292c-.086.229 0 1.123 0 1.36 0 2.962 6.776 4.703 15.295 4.703z"/>
                <ellipse cx="15.73" cy="4.068" fill="#FEE34B" rx="14.981" ry="4.068"/>
                <ellipse cx="15.73" cy="3.698" fill="#F19F07" rx="12.734" ry="3.698"/>
                <g transform="translate(2.996)">
                    <mask id="aH" fill="#fff">
                        <use xlink:href="#aG"/>
                    </mask>
                    <use fill="#FEE34B" xlink:href="#aG"/>
                    <path fill="#FFFBB6" d="M3.963.274l2.407 6.87 8.522-.117L8.546.274zM.563.69l1.76 5.227h1.1L1.993.691zM11.233 0l4.975 6.365 3.234-.342L12.252 0z" mask="url(#aH)"/>
                </g>
            </g>
            <g transform="translate(201.53 61.546)">
                <path fill="#F19F07" d="M15.333 10.355c8.52 0 14.219-1.645 15.29-4.583.15-.411.078-1.425 0-1.644C29.677 1.482 23.202 0 15.333 0 7.498 0 1.027 1.661.038 4.292c-.086.229 0 1.123 0 1.36 0 2.962 6.776 4.703 15.295 4.703z"/>
                <ellipse cx="15.73" cy="4.068" fill="#FEE34B" rx="14.981" ry="4.068"/>
                <ellipse cx="15.73" cy="3.698" fill="#F19F07" rx="12.734" ry="3.698"/>
                <g transform="translate(2.996)">
                    <mask id="aJ" fill="#fff">
                        <use xlink:href="#aI"/>
                    </mask>
                    <use fill="#FEE34B" xlink:href="#aI"/>
                    <path fill="#FFFBB6" d="M3.963.274l2.407 6.87 8.522-.117L8.546.274zM.563.69l1.76 5.227h1.1L1.993.691zM11.233 0l4.975 6.365 3.234-.342L12.252 0z" mask="url(#aJ)"/>
                </g>
            </g>
            <g transform="translate(201.53 58.613)">
                <path fill="#F19F07" d="M15.333 10.355c8.52 0 14.219-1.645 15.29-4.583.15-.411.078-1.425 0-1.644C29.677 1.482 23.202 0 15.333 0 7.498 0 1.027 1.661.038 4.292c-.086.229 0 1.123 0 1.36 0 2.962 6.776 4.703 15.295 4.703z"/>
                <ellipse cx="15.73" cy="4.068" fill="#FEE34B" rx="14.981" ry="4.068"/>
                <ellipse cx="15.73" cy="3.698" fill="#F19F07" rx="12.734" ry="3.698"/>
                <g transform="translate(2.996)">
                    <mask id="aL" fill="#fff">
                        <use xlink:href="#aK"/>
                    </mask>
                    <use fill="#FEE34B" xlink:href="#aK"/>
                    <path fill="#FFFBB6" d="M3.963.274l2.407 6.87 8.522-.117L8.546.274zM.563.69l1.76 5.227h1.1L1.993.691zM11.233 0l4.975 6.365 3.234-.342L12.252 0z" mask="url(#aL)"/>
                </g>
            </g>
            <g>
                <g transform="translate(201.53 55.68)">
                    <path fill="#F19F07" d="M15.333 10.355c8.52 0 14.219-1.645 15.29-4.583.15-.411.078-1.425 0-1.644C29.677 1.482 23.202 0 15.333 0 7.498 0 1.027 1.661.038 4.292c-.086.229 0 1.123 0 1.36 0 2.962 6.776 4.703 15.295 4.703z"/>
                    <ellipse cx="15.73" cy="4.068" fill="#FEE34B" rx="14.981" ry="4.068"/>
                    <ellipse cx="15.73" cy="3.698" fill="#F19F07" rx="12.734" ry="3.698"/>
                    <g transform="translate(2.996)">
                        <mask id="aN" fill="#fff">
                            <use xlink:href="#aM"/>
                        </mask>
                        <use fill="#FEE34B" xlink:href="#aM"/>
                        <path fill="#FFFBB6" d="M3.963.274l2.407 6.87 8.522-.117L8.546.274zM.563.69l1.76 5.227h1.1L1.993.691zM11.233 0l4.975 6.365 3.234-.342L12.252 0z" mask="url(#aN)"/>
                    </g>
                </g>
                <g transform="translate(201.53 52.746)">
                    <path fill="#F19F07" d="M15.333 10.355c8.52 0 14.219-1.645 15.29-4.583.15-.411.078-1.425 0-1.644C29.677 1.482 23.202 0 15.333 0 7.498 0 1.027 1.661.038 4.292c-.086.229 0 1.123 0 1.36 0 2.962 6.776 4.703 15.295 4.703z"/>
                    <ellipse cx="15.73" cy="4.068" fill="#FEE34B" rx="14.981" ry="4.068"/>
                    <ellipse cx="15.73" cy="3.698" fill="#F19F07" rx="12.734" ry="3.698"/>
                    <g transform="translate(2.996)">
                        <mask id="aP" fill="#fff">
                            <use xlink:href="#aO"/>
                        </mask>
                        <use fill="#FEE34B" xlink:href="#aO"/>
                        <path fill="#FFFBB6" d="M3.963.274l2.407 6.87 8.522-.117L8.546.274zM.563.69l1.76 5.227h1.1L1.993.691zM11.233 0l4.975 6.365 3.234-.342L12.252 0z" mask="url(#aP)"/>
                    </g>
                </g>
                <g transform="translate(201.53 49.813)">
                    <path fill="#F19F07" d="M15.333 10.355c8.52 0 14.219-1.645 15.29-4.583.15-.411.078-1.425 0-1.644C29.677 1.482 23.202 0 15.333 0 7.498 0 1.027 1.661.038 4.292c-.086.229 0 1.123 0 1.36 0 2.962 6.776 4.703 15.295 4.703z"/>
                    <ellipse cx="15.73" cy="4.068" fill="#FEE34B" rx="14.981" ry="4.068"/>
                    <ellipse cx="15.73" cy="3.698" fill="#F19F07" rx="12.734" ry="3.698"/>
                    <g transform="translate(2.996)">
                        <mask id="aR" fill="#fff">
                            <use xlink:href="#aQ"/>
                        </mask>
                        <use fill="#FEE34B" xlink:href="#aQ"/>
                        <path fill="#FFFBB6" d="M3.963.274l2.407 6.87 8.522-.117L8.546.274zM.563.69l1.76 5.227h1.1L1.993.691zM11.233 0l4.975 6.365 3.234-.342L12.252 0z" mask="url(#aR)"/>
                    </g>
                </g>
                <g transform="translate(201.53 46.88)">
                    <path fill="#F19F07" d="M15.333 10.355c8.52 0 14.219-1.645 15.29-4.583.15-.411.078-1.425 0-1.644C29.677 1.482 23.202 0 15.333 0 7.498 0 1.027 1.661.038 4.292c-.086.229 0 1.123 0 1.36 0 2.962 6.776 4.703 15.295 4.703z"/>
                    <ellipse cx="15.73" cy="4.068" fill="#FEE34B" rx="14.981" ry="4.068"/>
                    <ellipse cx="15.73" cy="3.698" fill="#F19F07" rx="12.734" ry="3.698"/>
                    <g transform="translate(2.996)">
                        <mask id="aT" fill="#fff">
                            <use xlink:href="#aS"/>
                        </mask>
                        <use fill="#FEE34B" xlink:href="#aS"/>
                        <path fill="#FFFBB6" d="M3.963.274l2.407 6.87 8.522-.117L8.546.274zM.563.69l1.76 5.227h1.1L1.993.691zM11.233 0l4.975 6.365 3.234-.342L12.252 0z" mask="url(#aT)"/>
                    </g>
                </g>
            </g>
        </g>
        <g transform="translate(223 67)">
            <path fill="#000" fill-opacity=".2" d="M5.464 25.435c1.178 7.846 6.267 8.024 9.312 8.373.426.049 1.372-.274 1.56-.407 2.286-1.605 2.141-8.475.257-16.378-1.877-7.87-5.004-13.958-7.737-14.3-.239-.03-1.065.284-1.293.337-4.188.971-3.277 14.53-2.1 22.375z"/>
            <path fill="#F19F07" d="M7.986 18.638c2.04 8.557 4.968 13.874 8.013 14.223.426.049 1.372-.274 1.56-.407 2.286-1.605 2.141-8.475.256-16.378-1.876-7.87-5.003-13.958-7.737-14.3-.238-.03-1.066.278-1.292.337-2.811.733-2.84 7.969-.8 16.525z"/>
            <ellipse cx="14.049" cy="17.481" fill="#FEE34B" rx="15.468" ry="3.994" transform="rotate(76 14.049 17.481)"/>
            <ellipse cx="14.4" cy="17.389" fill="#F19F07" rx="13.147" ry="3.63" transform="rotate(76 14.4 17.39)"/>
            <g transform="rotate(76 4.795 11.721)">
                <mask id="aV" fill="#fff">
                    <use xlink:href="#aU"/>
                </mask>
                <use fill="#FEE34B" xlink:href="#aU"/>
                <path fill="#FFFBB6" d="M3.924.28l2.383 7.027 8.438-.12L8.462.28zM.557.706L2.3 6.052h1.09L1.972.706zM11.122 0l4.926 6.51 3.202-.35L12.132 0z" mask="url(#aV)"/>
            </g>
        </g>
        <g>
            <path stroke="#FF872F" stroke-linecap="round" stroke-linejoin="round" stroke-width="8" d="M125.1 55.016l36.136-33.522 30.962 16.645 35.94-23.912"/>
            <path fill="#FF872F" d="M232.567 9h-16.835a2 2 0 0 0-1.666 3.107l10.489 15.776a2 2 0 0 0 3.52-.361l2.835-7.045 3.512-8.73A2 2 0 0 0 232.567 9z"/>
        </g>
    </g>
</svg>
