<svg xmlns="http://www.w3.org/2000/svg" xmlns:xlink="http://www.w3.org/1999/xlink" width="203" height="133" viewBox="0 0 203 133">
    <defs>
        <ellipse id="2xebsyhm8c" cx="4.757" cy="1.295" rx="4.757" ry="1.295"/>
        <ellipse id="wxp8y0zm8e" cx="4.757" cy="1.295" rx="4.757" ry="1.295"/>
        <ellipse id="ehble8dcqg" cx="4.757" cy="1.295" rx="4.757" ry="1.295"/>
        <ellipse id="hc3qd2vssi" cx="4.757" cy="1.295" rx="4.757" ry="1.295"/>
        <ellipse id="6v6abcr3sk" cx="4.757" cy="1.295" rx="4.757" ry="1.295"/>
        <ellipse id="sab13e1p0m" cx="4.757" cy="1.295" rx="4.757" ry="1.295"/>
        <ellipse id="vhs7zch81o" cx="4.757" cy="1.295" rx="4.757" ry="1.295"/>
        <ellipse id="tflqz8336q" cx="4.757" cy="1.295" rx="4.757" ry="1.295"/>
        <ellipse id="tb3l31jfps" cx="4.757" cy="1.295" rx="4.757" ry="1.295"/>
        <ellipse id="tt27hgy0ru" cx="4.757" cy="1.295" rx="4.757" ry="1.295"/>
        <ellipse id="k9xvaiw6nw" cx="4.757" cy="1.295" rx="4.757" ry="1.295"/>
        <ellipse id="577ieu1u7y" cx="4.826" cy="1.325" rx="4.826" ry="1.325"/>
        <ellipse id="xmuwmwp8hA" cx="4.826" cy="1.325" rx="4.826" ry="1.325"/>
        <ellipse id="aqcxehz15C" cx="4.826" cy="1.325" rx="4.826" ry="1.325"/>
        <ellipse id="ecish3fwzE" cx="4.826" cy="1.325" rx="4.826" ry="1.325"/>
        <ellipse id="o7dsabd7cG" cx="10.547" cy="2.904" rx="10.547" ry="2.904"/>
        <ellipse id="v1lye7jzhI" cx="11.006" cy="2.904" rx="11.006" ry="2.904"/>
        <ellipse id="1mhqrdqowK" cx="11.006" cy="2.904" rx="11.006" ry="2.904"/>
        <ellipse id="a6khat6i6M" cx="11.006" cy="2.904" rx="11.006" ry="2.904"/>
        <ellipse id="u4dpaqphbO" cx="11.006" cy="2.904" rx="11.006" ry="2.904"/>
        <ellipse id="0egae8og6Q" cx="11.006" cy="2.904" rx="11.006" ry="2.904"/>
        <ellipse id="0z2jrtefwS" cx="10.313" cy="2.966" rx="10.313" ry="2.966"/>
        <ellipse id="7aedty0a8U" cx="10.313" cy="2.966" rx="10.313" ry="2.966"/>
        <ellipse id="esskvearlW" cx="10.761" cy="2.966" rx="10.761" ry="2.966"/>
        <ellipse id="uk6sq5rv5Y" cx="10.313" cy="2.966" rx="10.313" ry="2.966"/>
        <ellipse id="cz4pce3fbaa" cx="10.313" cy="2.966" rx="10.313" ry="2.966"/>
        <ellipse id="px3yp1qnbac" cx="11.06" cy="2.744" rx="11.06" ry="2.744"/>
        <ellipse id="xhzln4inhae" cx="11.06" cy="2.744" rx="11.06" ry="2.744"/>
        <ellipse id="c6zbnqnmcag" cx="11.06" cy="2.744" rx="11.06" ry="2.744"/>
        <ellipse id="nmeu9xg6fai" cx="11.06" cy="2.744" rx="11.06" ry="2.744"/>
        <ellipse id="uql8c78mnak" cx="11.06" cy="2.744" rx="11.06" ry="2.744"/>
        <ellipse id="wfg48rq77am" cx="11.06" cy="2.744" rx="11.06" ry="2.744"/>
        <ellipse id="dsa12qz9hao" cx="11.115" cy="2.886" rx="11.115" ry="2.886"/>
        <ellipse id="9kasc05caaq" cx="11.115" cy="2.886" rx="11.115" ry="2.886"/>
        <ellipse id="j1ph7pb30as" cx="11.115" cy="2.886" rx="11.115" ry="2.886"/>
        <ellipse id="p8xx6383hau" cx="11.115" cy="2.886" rx="11.115" ry="2.886"/>
        <ellipse id="e9fuph3teaw" cx="10.818" cy="2.766" rx="10.818" ry="2.766"/>
        <ellipse id="u30s4o9jaay" cx="10.691" cy="2.789" rx="10.691" ry="2.789"/>
        <path id="wuuibjwdma" d="M111.376 0c100.138-.19 104.981 97.612 76.634 115.976-37.089 24.026-79.474 16.958-105.63 12.448-9.89-1.705-47.824 6.195-61.583-2.496-17.454-11.026 1.491-30.45-10.614-42.702C-1.95 70.944-3.968 53.3 8.093 35.309 23.78 11.912 53.655.112 111.376 0z"/>
    </defs>
    <g fill="none" fill-rule="evenodd">
        <g>
            <g transform="translate(-87 -206) translate(87 206)">
                <mask id="ady59gwf2b" fill="#fff">
                    <use xlink:href="#wuuibjwdma"/>
                </mask>
                <use fill="#099197" xlink:href="#wuuibjwdma"/>
                <g mask="url(#ady59gwf2b)">
                    <g>
                        <g transform="translate(86 14) translate(5.64 56.884)">
                            <path fill="#0C7474" d="M1.323 0.089L70.435 25.83 71.424 27.212 69.02 30.889 0.844 5.833 2.116 1.445z"/>
                            <path fill="#055E5E" d="M1.323 0.089L70.435 25.83 71.424 27.212 2.116 1.445z"/>
                            <path fill="#055E5E" d="M1.342 0.112L0.059 4.116 0.844 5.833 2.226 1.47z"/>
                            <ellipse cx="40.912" cy="17.914" fill="#FFF" rx="1.265" ry="1.25"/>
                        </g>
                        <path fill="#004472" d="M101.509 28.33c-4.966.45-8.296.112-9.99-1.015-1.693-1.127-2.4-2.754-2.117-4.882L41.491 74.054 7.25 61.198c1.175 2.213 1.762 3.798 1.762 4.755 0 .957.118 2.366.355 4.227l36.841 13.944 55.3-55.794z" transform="translate(86 14)"/>
                        <path fill="#24B8B5" d="M39.193 33.65c-.65 1.533-1.352 2.34-2.106 2.419-6.839.72-13.491.493-17.117 3.64-6.337 5.505-8.788 17.392-7.593 21.403.854 2.867 2.358 7.46 11.652 10.072 12.565 3.531 20.617 3.937 32.41-2.558 7.863-4.33 15.904-13.76 24.124-28.287l-41.37-6.69z" transform="translate(86 14)"/>
                        <path fill="#00BCBC" d="M61.287 53.679c14.27 0 25.84-11.43 25.84-25.53 0-2.763-.445-5.423-1.266-7.914-.137-.416 3.4-6.937 1.265-8.364-2.135-1.427-4.799 1.406-5.548.469-4.732-5.922-12.062-9.722-20.291-9.722-.69 0-1.375.027-2.053.08-.99.076 1.62-1.712 0-2.456-.72-.33-2.195-.442-3.725.454-1.913 1.12-3.305 2.786-3.84 2.956-10.39 3.308-16.221 13.13-16.221 24.497 0 14.1 11.568 25.53 25.839 25.53z" transform="translate(86 14)"/>
                        <path fill="#E6F8F8" d="M53.158 12.082c.677-2.697.094-4.597-1.75-5.7-4.175-2.502-9.069 1.753-10.16 3.061-.5.6-2.628 2.94-3.747 5.462-1.352 3.047-2.387 6.195-2.771 10.103-.426 4.334.447 9.654 8.195 14.313 7.748 4.658 17.632 7.273 22.547 6.044 2.396-.6 6.157-3.645 9.733-9.862 1.994-3.466 4.37-8.52 3.597-14.111-.354-2.564-5.076-8.051-9.37-10-4.294-1.949-8.646-2.427-11.373-1.949-1.818.32-3.452 1.2-4.901 2.639z" transform="translate(86 14)"/>
                        <g>
                            <path fill="#FFA32C" d="M5.37.224C4.192-.196 1.543 1.25.696 2.307c-.132.166-.246.57-.277.7-.234.968-.763 5.414 1.273 6.383 1.752.832 6.393-1.627 7.392-2.95C9.166 6.334 6.961.795 5.37.225z" transform="translate(86 14) translate(39.476 22.433)"/>
                            <path fill="#E38D1D" d="M.764 3.29c.464 2.29.999 3.6 1.603 3.93.167.09 1.136.312 2.773.087.548-.076 1.533-.325 2.955-.75-3.037.12-4.832-.002-5.384-.366-.277-.182-.616-.246-.943-.732-.217-.322-.552-1.045-1.004-2.17z" transform="translate(86 14) translate(39.476 22.433)"/>
                        </g>
                        <path fill="#008181" d="M45.536 17.626c.291-.238.417-.48.377-.725-.175-1.082-1.082-2.24-1.792-2.387-.729-.15-2.216-.173-3.563.361-.273.109-.634.417-1.082.923 2.22-.22 3.638-.22 4.253 0 .615.22 1.218.83 1.807 1.828zM54.017 23.65c-.107-.432 0-.739.32-.922 1.602-.915 3.57-1.289 4.906-1.001 2.493.536 4.327 6.304 4.285 6.7-.01.094.267 1.458 0 1.18-.87-.91-3.321-4.818-5.018-5.556-1.478-.643-2.976-.777-4.493-.402z" transform="translate(86 14)"/>
                        <path fill="#24282B" d="M44.665 8.18c4.183.976 5.906 2.792 5.906 5.37 0 .996-.761 2.469-1.846 3.926.142.004.302.024.479.06.5.103.898.378 1.194.824.877-1.59 1.497-2.503 2.513-3.12 1.205-.73 5.554-1.472 12.488 1.586 6.934 3.057 8.282 6.572 7.836 9.395-.446 2.824-4.573 12.344-10.155 12.235-5.582-.11-14.125-10.313-14.558-12.705-.193-1.064.1-3.615 1.01-5.716-.15-.532-.452-.854-.903-.964-.4-.098-.846-.058-1.338.119-1.507 1.62-3.22 2.939-4.409 3.139-2.593.437-4.759-.873-6.158-3.603-1.4-2.729.713-5.917 1.27-6.947.557-1.03 2.489-4.575 6.671-3.599z" opacity=".682" transform="translate(86 14)"/>
                        <path fill="#FFF" d="M4.834 30.445L16.237 41.171 16.283 50.537 11.669 52.646 22.157 52.878 17.299 50.537 17.299 41.171 28.197 30.445z" opacity=".828" transform="translate(86 14)"/>
                        <path fill="#1174B6" d="M11.279 34.451L16.408 40.059 21.752 34.451z" transform="translate(86 14)"/>
                        <path fill="#FFA32C" d="M69.232 49.657c-2.86-3.744-20.723-1.885-43.017-3.272-5.21-.324-14.883-3.406-11.99 6.305 2.356 7.91 16.871 15.325 22.561 16.068 12.676 1.656 38.305-11.434 32.446-19.101z" transform="translate(86 14)"/>
                        <path fill="#A5DBFF" d="M18.811 35.252L20.946 35.252 18.529 37.655z" transform="translate(86 14)"/>
                        <g>
                            <g>
                                <path fill="#055E5E" d="M68.539 0L0 69.225 1.509 72.008 4.205 73.544 71.719 3.68 69.461 1.857z" transform="translate(86 14) translate(6.445 26.439) translate(23.966)"/>
                                <path fill="#0C7474" d="M1.261 72.008L5.638 74.277 72.139 4.397 69.346 1.684z" transform="translate(86 14) translate(6.445 26.439) translate(23.966)"/>
                                <path fill="#055E5E" d="M68.536 0L71.341 2.501 72.394 4.397 69.445 1.872z" transform="translate(86 14) translate(6.445 26.439) translate(23.966)"/>
                            </g>
                            <g transform="translate(86 14) translate(6.445 26.439) translate(0 41.675)">
                                <path fill="#0C7474" d="M1.319 0.09L70.217 26.099 71.203 27.496 68.806 31.211 0.841 5.893 2.11 1.46z"/>
                                <path fill="#055E5E" d="M1.319 0.09L70.217 26.099 71.203 27.496 2.11 1.46z"/>
                                <path fill="#055E5E" d="M1.338 0.113L0.059 4.159 0.841 5.893 2.219 1.485z"/>
                                <ellipse cx="40.785" cy="18.101" fill="#FFF" rx="1.261" ry="1.263"/>
                            </g>
                        </g>
                        <path fill="#FFA32C" d="M15.307 64.593L12.129 63.293 8.056 65.048 8.44 65.697 12.129 64.495 15.307 65.697zM7.91 66.145c-1.598-2.02-2.88-2.966-3.85-2.84-1.452.187-3.4.128-3.246 1.286.103.772 1.423 1.29 3.96 1.554L8.862 68.1l-.953-1.955zM14.501 61.257L11.507 60.088 7.251 62.014 7.547 62.492 11.507 61.169 14.501 62.249z" transform="translate(86 14)"/>
                        <path fill="#FFA32C" d="M7.104 62.94c-1.597-2.02-2.88-2.966-3.849-2.84-1.453.188-3.401.128-3.246 1.286.103.772 1.423 1.29 3.96 1.554l4.087 1.956-.952-1.956z" transform="translate(86 14)"/>
                    </g>
                </g>
                <g mask="url(#ady59gwf2b)">
                    <g>
                        <path fill="#BFE4E6" d="M86.757 17L261 17 201.875 117 0 114.525z" transform="translate(-58 67)"/>
                        <path fill="#AAD6D8" d="M271 0L270.634 14.624 213.256 114 212 99.325" transform="translate(-58 67)"/>
                    </g>
                </g>
                <g mask="url(#ady59gwf2b)">
                    <g transform="translate(42 54)">
                        <path fill="#3AC6CA" d="M31.46 11.585c.695.77 1.267 1.793 1.75 3.208.652 1.901 1.872 35.02-1.267 39.29-5.132 6.98-24.896 6.594-29.625.143C-.583 50.267-.103 17.202.316 15.38c.419-1.822 1.414-3.182 2.002-3.796.487-.508 28.448-.77 29.142 0z"/>
                        <path fill="#3AC6CA" d="M16.057 14.129c7.64 0 13.079-1 15.717-2.71.384-1.226.384-1.85.589-3.278C20.74 9.33 22.976 9.568 15.77 9.568c-6.83 0-4.932.325-14.944-1.102.284 2.046.38 2.201.833 3.18 2.698 1.446 7.487 2.483 14.398 2.483z"/>
                        <path fill="#FFF" d="M16.596 12.617c7.864 0 14.377-1.991 15.779-3.264.125-.113.011-.746-.195-.718-1.475.198-7.803 2.76-15.588 2.76C8.788 11.394 2.477 9.018.9 8.867c-.216-.02-.122.41-.152.485-.25.62 6.975 3.264 15.848 3.264z" opacity=".884"/>
                        <path fill="#B89357" d="M17.253 11.92c7.817 0 13.215-1.678 15.023-3.286.323-.287.347-4.155.347-4.464 0-2.04-6.158-4.17-15.37-4.17C8.043 0 .5 2.13.5 4.17c0 .415-.086 4.253.482 4.625 2.23 1.46 8.932 3.125 16.272 3.125z"/>
                        <ellipse cx="16.556" cy="4.317" fill="#FFF" rx="16.062" ry="4.317"/>
                        <ellipse cx="16.556" cy="4.194" fill="#E8CF98" rx="16.062" ry="4.194"/>
                        <ellipse cx="16.556" cy="3.7" fill="#DDC07A" rx="12.85" ry="2.96"/>
                        <path fill="#C3A464" d="M16.556 6.66c4.568 0-.342-.047-4.397-.804-2.245-.42-4.202-1.335-4.202-1.918 0-.955 3.304-2.015 6.344-2.624C16.466.88 19.508.74 16.556.74 9.46.74 3.706 2.065 3.706 3.7s5.754 2.96 12.85 2.96z"/>
                        <path fill="#AE8B54" d="M16.556 6.66c4.568 0-2.986-.047-7.04-.804-2.245-.42-4.204-1.511-4.204-2.094 0-.955.908-1.485 3.948-2.094C11.425 1.234 19.508.74 16.556.74 9.46.74 3.706 2.065 3.706 3.7s5.754 2.96 12.85 2.96z"/>
                        <rect width="9.637" height="1" x="12.108" y="3.207" fill="#AE8B54" rx=".5"/>
                        <path fill="#E8F8F8" d="M2.847 12.617c1.254.526 2.305.916 3.152 1.172.847.256 2.224.586 4.131.99-1.45 3.173-2.584 6.469-3.405 9.89-.57 2.376-.872 4.55-1.52 8.88-.191 1.27-1.25 3.611-3.174 7.023-.326-6.797-.425-12.098-.297-15.903.128-3.806.499-7.823 1.113-12.052z" opacity=".717"/>
                        <g>
                            <g transform="translate(5.186 17.876) translate(14.643 36.061)">
                                <path fill="#F19F07" d="M5.902 4.03c3.279 0 5.472-.64 5.884-1.784.058-.16.03-.555 0-.64C11.422.576 8.93 0 5.902 0 2.886 0 .395.646.015 1.67c-.033.09 0 .437 0 .53 0 1.152 2.608 1.83 5.887 1.83z"/>
                                <ellipse cx="6.054" cy="1.583" fill="#FEE34B" rx="5.766" ry="1.583"/>
                                <ellipse cx="6.054" cy="1.439" fill="#F19F07" rx="4.901" ry="1.439"/>
                                <g transform="translate(1.153)">
                                    <mask id="4wo04zui9d" fill="#fff">
                                        <use xlink:href="#2xebsyhm8c"/>
                                    </mask>
                                    <use fill="#FEE34B" xlink:href="#2xebsyhm8c"/>
                                    <path fill="#FFFBB6" d="M1.525.107L2.452 2.78 5.732 2.734 3.289.107zM.217.269L.894 2.302 1.318 2.302.767.269zM4.323 0L6.238 2.476 7.483 2.344 4.716 0z" mask="url(#4wo04zui9d)"/>
                                </g>
                            </g>
                            <g transform="translate(5.186 17.876) translate(14.643 34.331)">
                                <path fill="#F19F07" d="M5.902 4.03c3.279 0 5.472-.64 5.884-1.784.058-.16.03-.555 0-.64C11.422.576 8.93 0 5.902 0 2.886 0 .395.646.015 1.67c-.033.09 0 .437 0 .53 0 1.152 2.608 1.83 5.887 1.83z"/>
                                <ellipse cx="6.054" cy="1.583" fill="#FEE34B" rx="5.766" ry="1.583"/>
                                <ellipse cx="6.054" cy="1.439" fill="#F19F07" rx="4.901" ry="1.439"/>
                                <g transform="translate(1.153)">
                                    <mask id="dbvzzfv3bf" fill="#fff">
                                        <use xlink:href="#wxp8y0zm8e"/>
                                    </mask>
                                    <use fill="#FEE34B" xlink:href="#wxp8y0zm8e"/>
                                    <path fill="#FFFBB6" d="M1.525.107L2.452 2.78 5.732 2.734 3.289.107zM.217.269L.894 2.302 1.318 2.302.767.269zM4.323 0L6.238 2.476 7.483 2.344 4.716 0z" mask="url(#dbvzzfv3bf)"/>
                                </g>
                            </g>
                            <g transform="translate(5.186 17.876) translate(14.643 32.602)">
                                <path fill="#F19F07" d="M5.902 4.03c3.279 0 5.472-.64 5.884-1.784.058-.16.03-.555 0-.64C11.422.576 8.93 0 5.902 0 2.886 0 .395.646.015 1.67c-.033.09 0 .437 0 .53 0 1.152 2.608 1.83 5.887 1.83z"/>
                                <ellipse cx="6.054" cy="1.583" fill="#FEE34B" rx="5.766" ry="1.583"/>
                                <ellipse cx="6.054" cy="1.439" fill="#F19F07" rx="4.901" ry="1.439"/>
                                <g transform="translate(1.153)">
                                    <mask id="f1153tni2h" fill="#fff">
                                        <use xlink:href="#ehble8dcqg"/>
                                    </mask>
                                    <use fill="#FEE34B" xlink:href="#ehble8dcqg"/>
                                    <path fill="#FFFBB6" d="M1.525.107L2.452 2.78 5.732 2.734 3.289.107zM.217.269L.894 2.302 1.318 2.302.767.269zM4.323 0L6.238 2.476 7.483 2.344 4.716 0z" mask="url(#f1153tni2h)"/>
                                </g>
                            </g>
                            <g transform="translate(5.186 17.876) translate(5.423 37.215)">
                                <path fill="#F19F07" d="M5.902 4.03c3.279 0 5.472-.64 5.884-1.784.058-.16.03-.555 0-.64C11.422.576 8.93 0 5.902 0 2.886 0 .395.646.015 1.67c-.033.09 0 .437 0 .53 0 1.152 2.608 1.83 5.887 1.83z"/>
                                <ellipse cx="6.054" cy="1.583" fill="#FEE34B" rx="5.766" ry="1.583"/>
                                <ellipse cx="6.054" cy="1.439" fill="#F19F07" rx="4.901" ry="1.439"/>
                                <g transform="translate(1.153)">
                                    <mask id="cv36kg2u5j" fill="#fff">
                                        <use xlink:href="#hc3qd2vssi"/>
                                    </mask>
                                    <use fill="#FEE34B" xlink:href="#hc3qd2vssi"/>
                                    <path fill="#FFFBB6" d="M1.525.107L2.452 2.78 5.732 2.734 3.289.107zM.217.269L.894 2.302 1.318 2.302.767.269zM4.323 0L6.238 2.476 7.483 2.344 4.716 0z" mask="url(#cv36kg2u5j)"/>
                                </g>
                            </g>
                            <g transform="translate(5.186 17.876) translate(5.423 36.061)">
                                <path fill="#F19F07" d="M5.902 4.03c3.279 0 5.472-.64 5.884-1.784.058-.16.03-.555 0-.64C11.422.576 8.93 0 5.902 0 2.886 0 .395.646.015 1.67c-.033.09 0 .437 0 .53 0 1.152 2.608 1.83 5.887 1.83z"/>
                                <ellipse cx="6.054" cy="1.583" fill="#FEE34B" rx="5.766" ry="1.583"/>
                                <ellipse cx="6.054" cy="1.439" fill="#F19F07" rx="4.901" ry="1.439"/>
                                <g transform="translate(1.153)">
                                    <mask id="xxgwz7tozl" fill="#fff">
                                        <use xlink:href="#6v6abcr3sk"/>
                                    </mask>
                                    <use fill="#FEE34B" xlink:href="#6v6abcr3sk"/>
                                    <path fill="#FFFBB6" d="M1.525.107L2.452 2.78 5.732 2.734 3.289.107zM.217.269L.894 2.302 1.318 2.302.767.269zM4.323 0L6.238 2.476 7.483 2.344 4.716 0z" mask="url(#xxgwz7tozl)"/>
                                </g>
                            </g>
                            <g transform="translate(5.186 17.876) translate(1.389 34.908)">
                                <path fill="#F19F07" d="M5.902 4.03c3.279 0 5.472-.64 5.884-1.784.058-.16.03-.555 0-.64C11.422.576 8.93 0 5.902 0 2.886 0 .395.646.015 1.67c-.033.09 0 .437 0 .53 0 1.152 2.608 1.83 5.887 1.83z"/>
                                <ellipse cx="6.054" cy="1.583" fill="#FEE34B" rx="5.766" ry="1.583"/>
                                <ellipse cx="6.054" cy="1.439" fill="#F19F07" rx="4.901" ry="1.439"/>
                                <g transform="translate(1.153)">
                                    <mask id="f5xev3ta2n" fill="#fff">
                                        <use xlink:href="#sab13e1p0m"/>
                                    </mask>
                                    <use fill="#FEE34B" xlink:href="#sab13e1p0m"/>
                                    <path fill="#FFFBB6" d="M1.525.107L2.452 2.78 5.732 2.734 3.289.107zM.217.269L.894 2.302 1.318 2.302.767.269zM4.323 0L6.238 2.476 7.483 2.344 4.716 0z" mask="url(#f5xev3ta2n)"/>
                                </g>
                            </g>
                            <g transform="translate(5.186 17.876) translate(7.728 33.178)">
                                <path fill="#F19F07" d="M5.902 4.03c3.279 0 5.472-.64 5.884-1.784.058-.16.03-.555 0-.64C11.422.576 8.93 0 5.902 0 2.886 0 .395.646.015 1.67c-.033.09 0 .437 0 .53 0 1.152 2.608 1.83 5.887 1.83z"/>
                                <ellipse cx="6.054" cy="1.583" fill="#FEE34B" rx="5.766" ry="1.583"/>
                                <ellipse cx="6.054" cy="1.439" fill="#F19F07" rx="4.901" ry="1.439"/>
                                <g transform="translate(1.153)">
                                    <mask id="kfe2yywa7p" fill="#fff">
                                        <use xlink:href="#vhs7zch81o"/>
                                    </mask>
                                    <use fill="#FEE34B" xlink:href="#vhs7zch81o"/>
                                    <path fill="#FFFBB6" d="M1.525.107L2.452 2.78 5.732 2.734 3.289.107zM.217.269L.894 2.302 1.318 2.302.767.269zM4.323 0L6.238 2.476 7.483 2.344 4.716 0z" mask="url(#kfe2yywa7p)"/>
                                </g>
                            </g>
                            <g transform="translate(5.186 17.876) translate(14.643 30.872)">
                                <path fill="#F19F07" d="M5.902 4.03c3.279 0 5.472-.64 5.884-1.784.058-.16.03-.555 0-.64C11.422.576 8.93 0 5.902 0 2.886 0 .395.646.015 1.67c-.033.09 0 .437 0 .53 0 1.152 2.608 1.83 5.887 1.83z"/>
                                <ellipse cx="6.054" cy="1.583" fill="#FEE34B" rx="5.766" ry="1.583"/>
                                <ellipse cx="6.054" cy="1.439" fill="#F19F07" rx="4.901" ry="1.439"/>
                                <g transform="translate(1.153)">
                                    <mask id="2nr1ts7k7r" fill="#fff">
                                        <use xlink:href="#tflqz8336q"/>
                                    </mask>
                                    <use fill="#FEE34B" xlink:href="#tflqz8336q"/>
                                    <path fill="#FFFBB6" d="M1.525.107L2.452 2.78 5.732 2.734 3.289.107zM.217.269L.894 2.302 1.318 2.302.767.269zM4.323 0L6.238 2.476 7.483 2.344 4.716 0z" mask="url(#2nr1ts7k7r)"/>
                                </g>
                            </g>
                            <g transform="translate(5.186 17.876) translate(14.643 29.142)">
                                <path fill="#F19F07" d="M5.902 4.03c3.279 0 5.472-.64 5.884-1.784.058-.16.03-.555 0-.64C11.422.576 8.93 0 5.902 0 2.886 0 .395.646.015 1.67c-.033.09 0 .437 0 .53 0 1.152 2.608 1.83 5.887 1.83z"/>
                                <ellipse cx="6.054" cy="1.583" fill="#FEE34B" rx="5.766" ry="1.583"/>
                                <ellipse cx="6.054" cy="1.439" fill="#F19F07" rx="4.901" ry="1.439"/>
                                <g transform="translate(1.153)">
                                    <mask id="sxcks5862t" fill="#fff">
                                        <use xlink:href="#tb3l31jfps"/>
                                    </mask>
                                    <use fill="#FEE34B" xlink:href="#tb3l31jfps"/>
                                    <path fill="#FFFBB6" d="M1.525.107L2.452 2.78 5.732 2.734 3.289.107zM.217.269L.894 2.302 1.318 2.302.767.269zM4.323 0L6.238 2.476 7.483 2.344 4.716 0z" mask="url(#sxcks5862t)"/>
                                </g>
                            </g>
                            <g transform="translate(5.186 17.876) translate(9.22 27.102)">
                                <path fill="#F19F07" d="M5.902 4.03c3.279 0 5.472-.64 5.884-1.784.058-.16.03-.555 0-.64C11.422.576 8.93 0 5.902 0 2.886 0 .395.646.015 1.67c-.033.09 0 .437 0 .53 0 1.152 2.608 1.83 5.887 1.83z"/>
                                <ellipse cx="6.054" cy="1.583" fill="#FEE34B" rx="5.766" ry="1.583"/>
                                <ellipse cx="6.054" cy="1.439" fill="#F19F07" rx="4.901" ry="1.439"/>
                                <g transform="translate(1.153)">
                                    <mask id="u48qtpj1nv" fill="#fff">
                                        <use xlink:href="#tt27hgy0ru"/>
                                    </mask>
                                    <use fill="#FEE34B" xlink:href="#tt27hgy0ru"/>
                                    <path fill="#FFFBB6" d="M1.525.107L2.452 2.78 5.732 2.734 3.289.107zM.217.269L.894 2.302 1.318 2.302.767.269zM4.323 0L6.238 2.476 7.483 2.344 4.716 0z" mask="url(#u48qtpj1nv)"/>
                                </g>
                            </g>
                            <g transform="translate(5.186 17.876) translate(12.914 26.258)">
                                <path fill="#F19F07" d="M5.902 4.03c3.279 0 5.472-.64 5.884-1.784.058-.16.03-.555 0-.64C11.422.576 8.93 0 5.902 0 2.886 0 .395.646.015 1.67c-.033.09 0 .437 0 .53 0 1.152 2.608 1.83 5.887 1.83z"/>
                                <ellipse cx="6.054" cy="1.583" fill="#FEE34B" rx="5.766" ry="1.583"/>
                                <ellipse cx="6.054" cy="1.439" fill="#F19F07" rx="4.901" ry="1.439"/>
                                <g transform="translate(1.153)">
                                    <mask id="e7s5wws5jx" fill="#fff">
                                        <use xlink:href="#k9xvaiw6nw"/>
                                    </mask>
                                    <use fill="#FEE34B" xlink:href="#k9xvaiw6nw"/>
                                    <path fill="#FFFBB6" d="M1.525.107L2.452 2.78 5.732 2.734 3.289.107zM.217.269L.894 2.302 1.318 2.302.767.269zM4.323 0L6.238 2.476 7.483 2.344 4.716 0z" mask="url(#e7s5wws5jx)"/>
                                </g>
                            </g>
                            <g transform="translate(5.186 17.876) rotate(38 -16.455 21.55)">
                                <path fill="#F19F07" d="M5.988 4.124c3.326 0 5.552-.655 5.97-1.825.059-.164.03-.568 0-.655C11.588.59 9.06 0 5.988 0 2.928 0 .4.662.015 1.709c-.034.091 0 .447 0 .542 0 1.18 2.646 1.873 5.973 1.873z"/>
                                <ellipse cx="6.142" cy="1.62" fill="#FEE34B" rx="5.85" ry="1.62"/>
                                <ellipse cx="6.142" cy="1.473" fill="#F19F07" rx="4.972" ry="1.473"/>
                                <g transform="translate(1.17)">
                                    <mask id="pymbyex88z" fill="#fff">
                                        <use xlink:href="#577ieu1u7y"/>
                                    </mask>
                                    <use fill="#FEE34B" xlink:href="#577ieu1u7y"/>
                                    <path fill="#FFFBB6" d="M1.548.109L2.487 2.845 5.815 2.798 3.337.109zM.22.275L.907 2.356 1.337 2.356.778.275zM4.386 0L6.329 2.535 7.592 2.399 4.785 0z" mask="url(#pymbyex88z)"/>
                                </g>
                            </g>
                            <g transform="translate(5.186 17.876) rotate(-39 25.588 -14.805)">
                                <path fill="#F19F07" d="M5.988 4.124c3.326 0 5.552-.655 5.97-1.825.059-.164.03-.568 0-.655C11.588.59 9.06 0 5.988 0 2.928 0 .4.662.015 1.709c-.034.091 0 .447 0 .542 0 1.18 2.646 1.873 5.973 1.873z"/>
                                <ellipse cx="6.142" cy="1.62" fill="#FEE34B" rx="5.85" ry="1.62"/>
                                <ellipse cx="6.142" cy="1.473" fill="#F19F07" rx="4.972" ry="1.473"/>
                                <g transform="translate(1.17)">
                                    <mask id="w0dn078ksB" fill="#fff">
                                        <use xlink:href="#xmuwmwp8hA"/>
                                    </mask>
                                    <use fill="#FEE34B" xlink:href="#xmuwmwp8hA"/>
                                    <path fill="#FFFBB6" d="M1.548.109L2.487 2.845 5.815 2.798 3.337.109zM.22.275L.907 2.356 1.337 2.356.778.275zM4.386 0L6.329 2.535 7.592 2.399 4.785 0z" mask="url(#w0dn078ksB)"/>
                                </g>
                            </g>
                            <g transform="translate(5.186 17.876) rotate(30 2.4 10.201)">
                                <path fill="#F19F07" d="M5.988 4.124c3.326 0 5.552-.655 5.97-1.825.059-.164.03-.568 0-.655C11.588.59 9.06 0 5.988 0 2.928 0 .4.662.015 1.709c-.034.091 0 .447 0 .542 0 1.18 2.646 1.873 5.973 1.873z"/>
                                <ellipse cx="6.142" cy="1.62" fill="#FEE34B" rx="5.85" ry="1.62"/>
                                <ellipse cx="6.142" cy="1.473" fill="#F19F07" rx="4.972" ry="1.473"/>
                                <g transform="translate(1.17)">
                                    <mask id="ef6knt56cD" fill="#fff">
                                        <use xlink:href="#aqcxehz15C"/>
                                    </mask>
                                    <use fill="#FEE34B" xlink:href="#aqcxehz15C"/>
                                    <path fill="#FFFBB6" d="M1.548.109L2.487 2.845 5.815 2.798 3.337.109zM.22.275L.907 2.356 1.337 2.356.778.275zM4.386 0L6.329 2.535 7.592 2.399 4.785 0z" mask="url(#ef6knt56cD)"/>
                                </g>
                            </g>
                            <g transform="translate(5.186 17.876) rotate(-31 60.4 16.26)">
                                <path fill="#F19F07" d="M5.988 4.124c3.326 0 5.552-.655 5.97-1.825.059-.164.03-.568 0-.655C11.588.59 9.06 0 5.988 0 2.928 0 .4.662.015 1.709c-.034.091 0 .447 0 .542 0 1.18 2.646 1.873 5.973 1.873z"/>
                                <ellipse cx="6.142" cy="1.62" fill="#FEE34B" rx="5.85" ry="1.62"/>
                                <ellipse cx="6.142" cy="1.473" fill="#F19F07" rx="4.972" ry="1.473"/>
                                <g transform="translate(1.17)">
                                    <mask id="0nmty791cF" fill="#fff">
                                        <use xlink:href="#ecish3fwzE"/>
                                    </mask>
                                    <use fill="#FEE34B" xlink:href="#ecish3fwzE"/>
                                    <path fill="#FFFBB6" d="M1.548.109L2.487 2.845 5.815 2.798 3.337.109zM.22.275L.907 2.356 1.337 2.356.778.275zM4.386 0L6.329 2.535 7.592 2.399 4.785 0z" mask="url(#0nmty791cF)"/>
                                </g>
                            </g>
                        </g>
                    </g>
                </g>
                <g mask="url(#ady59gwf2b)">
                    <g>
                        <g>
                            <g transform="translate(59 91) translate(0 10) translate(0 13.526)">
                                <path fill="#F19F07" d="M13.086 9.033c7.27 0 12.134-1.435 13.048-3.998.128-.358.067-1.243 0-1.434C25.326 1.292 19.8 0 13.086 0 6.399 0 .876 1.45.033 3.744c-.074.2 0 .98 0 1.187 0 2.584 5.782 4.102 13.053 4.102z"/>
                                <ellipse cx="13.424" cy="3.549" fill="#FEE34B" rx="12.785" ry="3.549"/>
                                <ellipse cx="13.424" cy="3.226" fill="#F19F07" rx="10.867" ry="3.226"/>
                                <g transform="translate(2.557)">
                                    <mask id="p9xu3tozxH" fill="#fff">
                                        <use xlink:href="#o7dsabd7cG"/>
                                    </mask>
                                    <use fill="#FEE34B" xlink:href="#o7dsabd7cG"/>
                                    <path fill="#FFFBB6" d="M3.382.239L5.436 6.233 12.709 6.13 7.293.239zM.48.602L1.982 5.162 2.921 5.162 1.701.602zM9.586 0L13.832 5.552 16.592 5.254 10.456 0z" mask="url(#p9xu3tozxH)"/>
                                </g>
                            </g>
                            <g transform="translate(59 91) translate(0 10) translate(16.493 12.37)">
                                <path fill="#F19F07" d="M13.654 9.033c7.587 0 12.662-1.435 13.616-3.998.134-.358.07-1.243 0-1.434C26.427 1.292 20.661 0 13.654 0 6.677 0 .914 1.45.034 3.744c-.077.2 0 .98 0 1.187 0 2.584 6.034 4.102 13.62 4.102z"/>
                                <ellipse cx="14.008" cy="3.549" fill="#FEE34B" rx="13.341" ry="3.549"/>
                                <ellipse cx="14.008" cy="3.226" fill="#F19F07" rx="11.339" ry="3.226"/>
                                <g transform="translate(2.668)">
                                    <mask id="lxq7rbvkaJ" fill="#fff">
                                        <use xlink:href="#v1lye7jzhI"/>
                                    </mask>
                                    <use fill="#FEE34B" xlink:href="#v1lye7jzhI"/>
                                    <path fill="#FFFBB6" d="M3.529.239L5.673 6.233 13.262 6.13 7.61.239zM.501.602L2.069 5.162 3.048 5.162 1.775.602zM10.003 0L14.433 5.552 17.313 5.254 10.911 0z" mask="url(#lxq7rbvkaJ)"/>
                                </g>
                            </g>
                            <g transform="translate(59 91) translate(0 10) translate(16.493 8.997)">
                                <path fill="#F19F07" d="M13.654 9.033c7.587 0 12.662-1.435 13.616-3.998.134-.358.07-1.243 0-1.434C26.427 1.292 20.661 0 13.654 0 6.677 0 .914 1.45.034 3.744c-.077.2 0 .98 0 1.187 0 2.584 6.034 4.102 13.62 4.102z"/>
                                <ellipse cx="14.008" cy="3.549" fill="#FEE34B" rx="13.341" ry="3.549"/>
                                <ellipse cx="14.008" cy="3.226" fill="#F19F07" rx="11.339" ry="3.226"/>
                                <g transform="translate(2.668)">
                                    <mask id="tu1cg4pj3L" fill="#fff">
                                        <use xlink:href="#1mhqrdqowK"/>
                                    </mask>
                                    <use fill="#FEE34B" xlink:href="#1mhqrdqowK"/>
                                    <path fill="#FFFBB6" d="M3.529.239L5.673 6.233 13.262 6.13 7.61.239zM.501.602L2.069 5.162 3.048 5.162 1.775.602zM10.003 0L14.433 5.552 17.313 5.254 10.911 0z" mask="url(#tu1cg4pj3L)"/>
                                </g>
                            </g>
                            <g transform="translate(59 91) translate(0 10) translate(10.608 5.623)">
                                <path fill="#F19F07" d="M13.654 9.033c7.587 0 12.662-1.435 13.616-3.998.134-.358.07-1.243 0-1.434C26.427 1.292 20.661 0 13.654 0 6.677 0 .914 1.45.034 3.744c-.077.2 0 .98 0 1.187 0 2.584 6.034 4.102 13.62 4.102z"/>
                                <ellipse cx="14.008" cy="3.549" fill="#FEE34B" rx="13.341" ry="3.549"/>
                                <ellipse cx="14.008" cy="3.226" fill="#F19F07" rx="11.339" ry="3.226"/>
                                <g transform="translate(2.668)">
                                    <mask id="q6qjnm983N" fill="#fff">
                                        <use xlink:href="#a6khat6i6M"/>
                                    </mask>
                                    <use fill="#FEE34B" xlink:href="#a6khat6i6M"/>
                                    <path fill="#FFFBB6" d="M3.529.239L5.673 6.233 13.262 6.13 7.61.239zM.501.602L2.069 5.162 3.048 5.162 1.775.602zM10.003 0L14.433 5.552 17.313 5.254 10.911 0z" mask="url(#q6qjnm983N)"/>
                                </g>
                            </g>
                            <g transform="translate(59 91) translate(0 10) translate(16.493 3.374)">
                                <path fill="#F19F07" d="M13.654 9.033c7.587 0 12.662-1.435 13.616-3.998.134-.358.07-1.243 0-1.434C26.427 1.292 20.661 0 13.654 0 6.677 0 .914 1.45.034 3.744c-.077.2 0 .98 0 1.187 0 2.584 6.034 4.102 13.62 4.102z"/>
                                <ellipse cx="14.008" cy="3.549" fill="#FEE34B" rx="13.341" ry="3.549"/>
                                <ellipse cx="14.008" cy="3.226" fill="#F19F07" rx="11.339" ry="3.226"/>
                                <g transform="translate(2.668)">
                                    <mask id="jw3hwyqv7P" fill="#fff">
                                        <use xlink:href="#u4dpaqphbO"/>
                                    </mask>
                                    <use fill="#FEE34B" xlink:href="#u4dpaqphbO"/>
                                    <path fill="#FFFBB6" d="M3.529.239L5.673 6.233 13.262 6.13 7.61.239zM.501.602L2.069 5.162 3.048 5.162 1.775.602zM10.003 0L14.433 5.552 17.313 5.254 10.911 0z" mask="url(#jw3hwyqv7P)"/>
                                </g>
                            </g>
                            <g transform="translate(59 91) translate(0 10) translate(24.75)">
                                <path fill="#F19F07" d="M13.654 9.033c7.587 0 12.662-1.435 13.616-3.998.134-.358.07-1.243 0-1.434C26.427 1.292 20.661 0 13.654 0 6.677 0 .914 1.45.034 3.744c-.077.2 0 .98 0 1.187 0 2.584 6.034 4.102 13.62 4.102z"/>
                                <ellipse cx="14.008" cy="3.549" fill="#FEE34B" rx="13.341" ry="3.549"/>
                                <ellipse cx="14.008" cy="3.226" fill="#F19F07" rx="11.339" ry="3.226"/>
                                <g transform="translate(2.668)">
                                    <mask id="k4rxtqrj5R" fill="#fff">
                                        <use xlink:href="#0egae8og6Q"/>
                                    </mask>
                                    <use fill="#FEE34B" xlink:href="#0egae8og6Q"/>
                                    <path fill="#FFFBB6" d="M3.529.239L5.673 6.233 13.262 6.13 7.61.239zM.501.602L2.069 5.162 3.048 5.162 1.775.602zM10.003 0L14.433 5.552 17.313 5.254 10.911 0z" mask="url(#k4rxtqrj5R)"/>
                                </g>
                            </g>
                        </g>
                        <g>
                            <g transform="translate(59 91) translate(24 11) translate(5.755 12.636)">
                                <path fill="#F19F07" d="M12.795 9.227c7.108 0 11.864-1.466 12.758-4.083.125-.367.065-1.27 0-1.466C24.763 1.32 19.36 0 12.795 0 6.256 0 .857 1.48.032 3.824c-.072.205 0 1.001 0 1.213 0 2.64 5.654 4.19 12.763 4.19z"/>
                                <ellipse cx="13.125" cy="3.625" fill="#FEE34B" rx="12.5" ry="3.625"/>
                                <ellipse cx="13.125" cy="3.296" fill="#F19F07" rx="10.625" ry="3.296"/>
                                <g transform="translate(2.5)">
                                    <mask id="f0wyuktazT" fill="#fff">
                                        <use xlink:href="#0z2jrtefwS"/>
                                    </mask>
                                    <use fill="#FEE34B" xlink:href="#0z2jrtefwS"/>
                                    <path fill="#FFFBB6" d="M3.307.244L5.315 6.367 12.427 6.261 7.131.244zM.47.615L1.938 5.273 2.856 5.273 1.663.615zM9.373 0L13.524 5.671 16.223 5.367 10.224 0z" mask="url(#f0wyuktazT)"/>
                                </g>
                            </g>
                            <g transform="translate(59 91) translate(24 11) translate(5.755 9.19)">
                                <path fill="#F19F07" d="M12.795 9.227c7.108 0 11.864-1.466 12.758-4.083.125-.367.065-1.27 0-1.466C24.763 1.32 19.36 0 12.795 0 6.256 0 .857 1.48.032 3.824c-.072.205 0 1.001 0 1.213 0 2.64 5.654 4.19 12.763 4.19z"/>
                                <ellipse cx="13.125" cy="3.625" fill="#FEE34B" rx="12.5" ry="3.625"/>
                                <ellipse cx="13.125" cy="3.296" fill="#F19F07" rx="10.625" ry="3.296"/>
                                <g transform="translate(2.5)">
                                    <mask id="0wyvv6vzwV" fill="#fff">
                                        <use xlink:href="#7aedty0a8U"/>
                                    </mask>
                                    <use fill="#FEE34B" xlink:href="#7aedty0a8U"/>
                                    <path fill="#FFFBB6" d="M3.307.244L5.315 6.367 12.427 6.261 7.131.244zM.47.615L1.938 5.273 2.856 5.273 1.663.615zM9.373 0L13.524 5.671 16.223 5.367 10.224 0z" mask="url(#0wyvv6vzwV)"/>
                                </g>
                            </g>
                            <g transform="translate(59 91) translate(24 11) translate(0 5.744)">
                                <path fill="#F19F07" d="M13.35 9.227c7.419 0 12.381-1.466 13.314-4.083.13-.367.068-1.27 0-1.466C25.84 1.32 20.202 0 13.35 0 6.528 0 .894 1.48.033 3.824c-.075.205 0 1.001 0 1.213 0 2.64 5.9 4.19 13.318 4.19z"/>
                                <ellipse cx="13.696" cy="3.625" fill="#FEE34B" rx="13.044" ry="3.625"/>
                                <ellipse cx="13.696" cy="3.296" fill="#F19F07" rx="11.087" ry="3.296"/>
                                <g transform="translate(2.609)">
                                    <mask id="24umerlv9X" fill="#fff">
                                        <use xlink:href="#esskvearlW"/>
                                    </mask>
                                    <use fill="#FEE34B" xlink:href="#esskvearlW"/>
                                    <path fill="#FFFBB6" d="M3.451.244L5.546 6.367 12.967 6.261 7.441.244zM.49.615L2.023 5.273 2.981 5.273 1.735.615zM9.781 0L14.112 5.671 16.928 5.367 10.668 0z" mask="url(#24umerlv9X)"/>
                                </g>
                            </g>
                            <g transform="translate(59 91) translate(24 11) translate(5.755 3.446)">
                                <path fill="#F19F07" d="M12.795 9.227c7.108 0 11.864-1.466 12.758-4.083.125-.367.065-1.27 0-1.466C24.763 1.32 19.36 0 12.795 0 6.256 0 .857 1.48.032 3.824c-.072.205 0 1.001 0 1.213 0 2.64 5.654 4.19 12.763 4.19z"/>
                                <ellipse cx="13.125" cy="3.625" fill="#FEE34B" rx="12.5" ry="3.625"/>
                                <ellipse cx="13.125" cy="3.296" fill="#F19F07" rx="10.625" ry="3.296"/>
                                <g transform="translate(2.5)">
                                    <mask id="53ir8waheZ" fill="#fff">
                                        <use xlink:href="#uk6sq5rv5Y"/>
                                    </mask>
                                    <use fill="#FEE34B" xlink:href="#uk6sq5rv5Y"/>
                                    <path fill="#FFFBB6" d="M3.307.244L5.315 6.367 12.427 6.261 7.131.244zM.47.615L1.938 5.273 2.856 5.273 1.663.615zM9.373 0L13.524 5.671 16.223 5.367 10.224 0z" mask="url(#53ir8waheZ)"/>
                                </g>
                            </g>
                            <g transform="translate(59 91) translate(24 11) translate(9.207)">
                                <path fill="#F19F07" d="M12.795 9.227c7.108 0 11.864-1.466 12.758-4.083.125-.367.065-1.27 0-1.466C24.763 1.32 19.36 0 12.795 0 6.256 0 .857 1.48.032 3.824c-.072.205 0 1.001 0 1.213 0 2.64 5.654 4.19 12.763 4.19z"/>
                                <ellipse cx="13.125" cy="3.625" fill="#FEE34B" rx="12.5" ry="3.625"/>
                                <ellipse cx="13.125" cy="3.296" fill="#F19F07" rx="10.625" ry="3.296"/>
                                <g transform="translate(2.5)">
                                    <mask id="bj4qn4s58ab" fill="#fff">
                                        <use xlink:href="#cz4pce3fbaa"/>
                                    </mask>
                                    <use fill="#FEE34B" xlink:href="#cz4pce3fbaa"/>
                                    <path fill="#FFFBB6" d="M3.307.244L5.315 6.367 12.427 6.261 7.131.244zM.47.615L1.938 5.273 2.856 5.273 1.663.615zM9.373 0L13.524 5.671 16.223 5.367 10.224 0z" mask="url(#bj4qn4s58ab)"/>
                                </g>
                            </g>
                        </g>
                        <g>
                            <g>
                                <g transform="translate(59 91) translate(38) translate(8.169) translate(5.904 12.645)">
                                    <path fill="#F19F07" d="M13.722 8.535c7.624 0 12.724-1.356 13.682-3.777.134-.34.07-1.175 0-1.356C26.557 1.222 20.763 0 13.722 0 6.71 0 .919 1.37.034 3.537c-.077.19 0 .926 0 1.122 0 2.441 6.064 3.876 13.688 3.876z"/>
                                    <ellipse cx="14.076" cy="3.353" fill="#FEE34B" rx="13.406" ry="3.353"/>
                                    <ellipse cx="14.076" cy="3.048" fill="#F19F07" rx="11.395" ry="3.048"/>
                                    <g transform="translate(2.681)">
                                        <mask id="9mqcd3eeiad" fill="#fff">
                                            <use xlink:href="#px3yp1qnbac"/>
                                        </mask>
                                        <use fill="#FEE34B" xlink:href="#px3yp1qnbac"/>
                                        <path fill="#FFFBB6" d="M3.547.226L5.7 5.889 13.327 5.792 7.648.226zM.504.569L2.079 4.877 3.063 4.877 1.784.569zM10.052 0L14.504 5.246 17.398 4.965 10.965 0z" mask="url(#9mqcd3eeiad)"/>
                                    </g>
                                </g>
                                <g transform="translate(59 91) translate(38) translate(8.169) translate(5.904 9.032)">
                                    <path fill="#F19F07" d="M13.722 8.535c7.624 0 12.724-1.356 13.682-3.777.134-.34.07-1.175 0-1.356C26.557 1.222 20.763 0 13.722 0 6.71 0 .919 1.37.034 3.537c-.077.19 0 .926 0 1.122 0 2.441 6.064 3.876 13.688 3.876z"/>
                                    <ellipse cx="14.076" cy="3.353" fill="#FEE34B" rx="13.406" ry="3.353"/>
                                    <ellipse cx="14.076" cy="3.048" fill="#F19F07" rx="11.395" ry="3.048"/>
                                    <g transform="translate(2.681)">
                                        <mask id="a6chocmi5af" fill="#fff">
                                            <use xlink:href="#xhzln4inhae"/>
                                        </mask>
                                        <use fill="#FEE34B" xlink:href="#xhzln4inhae"/>
                                        <path fill="#FFFBB6" d="M3.547.226L5.7 5.889 13.327 5.792 7.648.226zM.504.569L2.079 4.877 3.063 4.877 1.784.569zM10.052 0L14.504 5.246 17.398 4.965 10.965 0z" mask="url(#a6chocmi5af)"/>
                                    </g>
                                </g>
                                <g transform="translate(59 91) translate(38) translate(8.169) translate(0 5.42)">
                                    <path fill="#F19F07" d="M13.722 8.535c7.624 0 12.724-1.356 13.682-3.777.134-.34.07-1.175 0-1.356C26.557 1.222 20.763 0 13.722 0 6.71 0 .919 1.37.034 3.537c-.077.19 0 .926 0 1.122 0 2.441 6.064 3.876 13.688 3.876z"/>
                                    <ellipse cx="14.076" cy="3.353" fill="#FEE34B" rx="13.406" ry="3.353"/>
                                    <ellipse cx="14.076" cy="3.048" fill="#F19F07" rx="11.395" ry="3.048"/>
                                    <g transform="translate(2.681)">
                                        <mask id="ydo2494oaah" fill="#fff">
                                            <use xlink:href="#c6zbnqnmcag"/>
                                        </mask>
                                        <use fill="#FEE34B" xlink:href="#c6zbnqnmcag"/>
                                        <path fill="#FFFBB6" d="M3.547.226L5.7 5.889 13.327 5.792 7.648.226zM.504.569L2.079 4.877 3.063 4.877 1.784.569zM10.052 0L14.504 5.246 17.398 4.965 10.965 0z" mask="url(#ydo2494oaah)"/>
                                    </g>
                                </g>
                                <g transform="translate(59 91) translate(38) translate(8.169) translate(5.904 3.613)">
                                    <path fill="#F19F07" d="M13.722 8.535c7.624 0 12.724-1.356 13.682-3.777.134-.34.07-1.175 0-1.356C26.557 1.222 20.763 0 13.722 0 6.71 0 .919 1.37.034 3.537c-.077.19 0 .926 0 1.122 0 2.441 6.064 3.876 13.688 3.876z"/>
                                    <ellipse cx="14.076" cy="3.353" fill="#FEE34B" rx="13.406" ry="3.353"/>
                                    <ellipse cx="14.076" cy="3.048" fill="#F19F07" rx="11.395" ry="3.048"/>
                                    <g transform="translate(2.681)">
                                        <mask id="hf26mgldraj" fill="#fff">
                                            <use xlink:href="#nmeu9xg6fai"/>
                                        </mask>
                                        <use fill="#FEE34B" xlink:href="#nmeu9xg6fai"/>
                                        <path fill="#FFFBB6" d="M3.547.226L5.7 5.889 13.327 5.792 7.648.226zM.504.569L2.079 4.877 3.063 4.877 1.784.569zM10.052 0L14.504 5.246 17.398 4.965 10.965 0z" mask="url(#hf26mgldraj)"/>
                                    </g>
                                </g>
                                <g transform="translate(59 91) translate(38) translate(8.169) translate(9.84)">
                                    <path fill="#F19F07" d="M13.722 8.535c7.624 0 12.724-1.356 13.682-3.777.134-.34.07-1.175 0-1.356C26.557 1.222 20.763 0 13.722 0 6.71 0 .919 1.37.034 3.537c-.077.19 0 .926 0 1.122 0 2.441 6.064 3.876 13.688 3.876z"/>
                                    <ellipse cx="14.076" cy="3.353" fill="#FEE34B" rx="13.406" ry="3.353"/>
                                    <ellipse cx="14.076" cy="3.048" fill="#F19F07" rx="11.395" ry="3.048"/>
                                    <g transform="translate(2.681)">
                                        <mask id="zteq1gr38al" fill="#fff">
                                            <use xlink:href="#uql8c78mnak"/>
                                        </mask>
                                        <use fill="#FEE34B" xlink:href="#uql8c78mnak"/>
                                        <path fill="#FFFBB6" d="M3.547.226L5.7 5.889 13.327 5.792 7.648.226zM.504.569L2.079 4.877 3.063 4.877 1.784.569zM10.052 0L14.504 5.246 17.398 4.965 10.965 0z" mask="url(#zteq1gr38al)"/>
                                    </g>
                                </g>
                                <g transform="translate(59 91) translate(38) translate(8.169) translate(27.554 12.645)">
                                    <path fill="#F19F07" d="M13.722 8.535c7.624 0 12.724-1.356 13.682-3.777.134-.34.07-1.175 0-1.356C26.557 1.222 20.763 0 13.722 0 6.71 0 .919 1.37.034 3.537c-.077.19 0 .926 0 1.122 0 2.441 6.064 3.876 13.688 3.876z"/>
                                    <ellipse cx="14.076" cy="3.353" fill="#FEE34B" rx="13.406" ry="3.353"/>
                                    <ellipse cx="14.076" cy="3.048" fill="#F19F07" rx="11.395" ry="3.048"/>
                                    <g transform="translate(2.681)">
                                        <mask id="ryasief58an" fill="#fff">
                                            <use xlink:href="#wfg48rq77am"/>
                                        </mask>
                                        <use fill="#FEE34B" xlink:href="#wfg48rq77am"/>
                                        <path fill="#FFFBB6" d="M3.547.226L5.7 5.889 13.327 5.792 7.648.226zM.504.569L2.079 4.877 3.063 4.877 1.784.569zM10.052 0L14.504 5.246 17.398 4.965 10.965 0z" mask="url(#ryasief58an)"/>
                                    </g>
                                </g>
                            </g>
                            <g>
                                <g transform="translate(59 91) translate(38) translate(0 15.097) translate(22.634 9.501)">
                                    <path fill="#F19F07" d="M13.79 8.979c7.661 0 12.787-1.427 13.75-3.974.135-.357.07-1.236 0-1.426C26.689 1.285 20.866 0 13.79 0 6.743 0 .923 1.44.034 3.721c-.077.2 0 .974 0 1.18C.034 7.47 6.128 8.98 13.79 8.98z"/>
                                    <ellipse cx="14.146" cy="3.527" fill="#FEE34B" rx="13.472" ry="3.527"/>
                                    <ellipse cx="14.146" cy="3.207" fill="#F19F07" rx="11.452" ry="3.207"/>
                                    <g transform="translate(2.694)">
                                        <mask id="f6bz5gs8rap" fill="#fff">
                                            <use xlink:href="#dsa12qz9hao"/>
                                        </mask>
                                        <use fill="#FEE34B" xlink:href="#dsa12qz9hao"/>
                                        <path fill="#FFFBB6" d="M3.564.238L5.729 6.195 13.393 6.093 7.686.238zM.506.599L2.089 5.131 3.079 5.131 1.792.599zM10.102 0L14.576 5.519 17.484 5.223 11.019 0z" mask="url(#f6bz5gs8rap)"/>
                                    </g>
                                </g>
                                <g transform="translate(59 91) translate(38) translate(0 15.097) translate(28.567 3.8)">
                                    <path fill="#F19F07" d="M13.79 8.979c7.661 0 12.787-1.427 13.75-3.974.135-.357.07-1.236 0-1.426C26.689 1.285 20.866 0 13.79 0 6.743 0 .923 1.44.034 3.721c-.077.2 0 .974 0 1.18C.034 7.47 6.128 8.98 13.79 8.98z"/>
                                    <ellipse cx="14.146" cy="3.527" fill="#FEE34B" rx="13.472" ry="3.527"/>
                                    <ellipse cx="14.146" cy="3.207" fill="#F19F07" rx="11.452" ry="3.207"/>
                                    <g transform="translate(2.694)">
                                        <mask id="q1kpzye1bar" fill="#fff">
                                            <use xlink:href="#9kasc05caaq"/>
                                        </mask>
                                        <use fill="#FEE34B" xlink:href="#9kasc05caaq"/>
                                        <path fill="#FFFBB6" d="M3.564.238L5.729 6.195 13.393 6.093 7.686.238zM.506.599L2.089 5.131 3.079 5.131 1.792.599zM10.102 0L14.576 5.519 17.484 5.223 11.019 0z" mask="url(#q1kpzye1bar)"/>
                                    </g>
                                </g>
                                <g transform="translate(59 91) translate(38) translate(0 15.097) rotate(-14 45.242 4.979)">
                                    <path fill="#F19F07" d="M13.79 8.979c7.661 0 12.787-1.427 13.75-3.974.135-.357.07-1.236 0-1.426C26.689 1.285 20.866 0 13.79 0 6.743 0 .923 1.44.034 3.721c-.077.2 0 .974 0 1.18C.034 7.47 6.128 8.98 13.79 8.98z"/>
                                    <ellipse cx="14.146" cy="3.527" fill="#FEE34B" rx="13.472" ry="3.527"/>
                                    <ellipse cx="14.146" cy="3.207" fill="#F19F07" rx="11.452" ry="3.207"/>
                                    <g transform="translate(2.694)">
                                        <mask id="idk1d3bmgat" fill="#fff">
                                            <use xlink:href="#j1ph7pb30as"/>
                                        </mask>
                                        <use fill="#FEE34B" xlink:href="#j1ph7pb30as"/>
                                        <path fill="#FFFBB6" d="M3.564.238L5.729 6.195 13.393 6.093 7.686.238zM.506.599L2.089 5.131 3.079 5.131 1.792.599zM10.102 0L14.576 5.519 17.484 5.223 11.019 0z" mask="url(#idk1d3bmgat)"/>
                                    </g>
                                </g>
                                <g transform="translate(59 91) translate(38) translate(0 15.097) translate(14.722)">
                                    <path fill="#F19F07" d="M13.79 8.979c7.661 0 12.787-1.427 13.75-3.974.135-.357.07-1.236 0-1.426C26.689 1.285 20.866 0 13.79 0 6.743 0 .923 1.44.034 3.721c-.077.2 0 .974 0 1.18C.034 7.47 6.128 8.98 13.79 8.98z"/>
                                    <ellipse cx="14.146" cy="3.527" fill="#FEE34B" rx="13.472" ry="3.527"/>
                                    <ellipse cx="14.146" cy="3.207" fill="#F19F07" rx="11.452" ry="3.207"/>
                                    <g transform="translate(2.694)">
                                        <mask id="5ynzlscrcav" fill="#fff">
                                            <use xlink:href="#p8xx6383hau"/>
                                        </mask>
                                        <use fill="#FEE34B" xlink:href="#p8xx6383hau"/>
                                        <path fill="#FFFBB6" d="M3.564.238L5.729 6.195 13.393 6.093 7.686.238zM.506.599L2.089 5.131 3.079 5.131 1.792.599zM10.102 0L14.576 5.519 17.484 5.223 11.019 0z" mask="url(#5ynzlscrcav)"/>
                                    </g>
                                </g>
                            </g>
                        </g>
                        <g>
                            <g transform="translate(59 91) translate(67 19) rotate(-14 43.572 4.682)">
                                <path fill="#F19F07" d="M13.422 8.605c7.457 0 12.446-1.367 13.383-3.809.132-.341.069-1.184 0-1.366C25.977 1.231 20.31 0 13.422 0 6.563 0 .899 1.38.034 3.566c-.076.19 0 .934 0 1.131 0 2.461 5.93 3.908 13.388 3.908z"/>
                                <ellipse cx="13.769" cy="3.38" fill="#FEE34B" rx="13.113" ry="3.38"/>
                                <ellipse cx="13.769" cy="3.073" fill="#F19F07" rx="11.146" ry="3.073"/>
                                <g transform="translate(2.623)">
                                    <mask id="jn6vh3ca4ax" fill="#fff">
                                        <use xlink:href="#e9fuph3teaw"/>
                                    </mask>
                                    <use fill="#FEE34B" xlink:href="#e9fuph3teaw"/>
                                    <path fill="#FFFBB6" d="M3.469.228L5.576 5.937 13.036 5.839 7.481.228zM.493.574L2.033 4.917 2.996 4.917 1.745.574zM9.833 0L14.187 5.289 17.018 5.005 10.725 0z" mask="url(#jn6vh3ca4ax)"/>
                                </g>
                            </g>
                            <g transform="translate(59 91) translate(67 19) translate(14.724)">
                                <path fill="#F19F07" d="M13.264 8.677c7.37 0 12.3-1.379 13.226-3.84.13-.345.068-1.195 0-1.378C25.671 1.24 20.07 0 13.264 0 6.486 0 .888 1.392.034 3.596c-.075.192 0 .941 0 1.14 0 2.482 5.86 3.941 13.23 3.941z"/>
                                <ellipse cx="13.607" cy="3.409" fill="#FEE34B" rx="12.959" ry="3.409"/>
                                <ellipse cx="13.607" cy="3.099" fill="#F19F07" rx="11.015" ry="3.099"/>
                                <g transform="translate(2.592)">
                                    <mask id="zir2wyojhaz" fill="#fff">
                                        <use xlink:href="#u30s4o9jaay"/>
                                    </mask>
                                    <use fill="#FEE34B" xlink:href="#u30s4o9jaay"/>
                                    <path fill="#FFFBB6" d="M3.429.23L5.51 5.987 12.883 5.888 7.393.23zM.487.579L2.009 4.958 2.961 4.958 1.724.579zM9.717 0L14.02 5.333 16.818 5.047 10.599 0z" mask="url(#zir2wyojhaz)"/>
                                </g>
                            </g>
                        </g>
                    </g>
                </g>
                <path fill="#FFF" fill-rule="nonzero" d="M28.5 86c.276 0 .5.195.5.435V88h1.615c.213 0 .385.224.385.5s-.172.5-.385.5H29L29 90.565c0 .24-.224.435-.5.435s-.5-.195-.5-.435L27.999 89h-1.614c-.213 0-.385-.224-.385-.5s.172-.5.385-.5H28v-1.565c0-.24.224-.435.5-.435zM114 49.5c.276 0 .5.156.5.348V51h1.192c.17 0 .308.224.308.5s-.138.5-.308.5H114.5l.001 1.152c0 .192-.224.348-.5.348s-.5-.156-.5-.348L113.499 52h-1.191c-.17 0-.308-.224-.308-.5s.138-.5.308-.5h1.192v-1.152c0-.192.224-.348.5-.348zM128 87.5c.276 0 .5.156.5.348V89h1.192c.17 0 .308.224.308.5s-.138.5-.308.5H128.5l.001 1.152c0 .192-.224.348-.5.348s-.5-.156-.5-.348L127.499 90h-1.191c-.17 0-.308-.224-.308-.5s.138-.5.308-.5h1.192v-1.152c0-.192.224-.348.5-.348z" mask="url(#ady59gwf2b)"/>
                <circle cx="55" cy="31" r="2" stroke="#FFF" mask="url(#ady59gwf2b)"/>
                <path stroke="#FFF" d="M33.5 55.5H36.5V59.5H33.5zM85.5 95L88 99 83 99z" mask="url(#ady59gwf2b)"/>
            </g>
        </g>
    </g>
</svg>
