<svg width="354" height="30" viewBox="0 0 354 30" fill="none" xmlns="http://www.w3.org/2000/svg">
<mask id="mask0_315_23433" style="mask-type:alpha" maskUnits="userSpaceOnUse" x="0" y="10" width="155" height="10">
<rect x="154.424" y="10" width="10" height="154.423" transform="rotate(90 154.424 10)" fill="white"/>
</mask>
<g mask="url(#mask0_315_23433)">
<path d="M344.971 14.9471C344.971 15.433 344.622 15.8336 344.173 15.8884L344.068 15.8948L0.904663 16C0.405914 16.0001 0.0014953 15.5761 0.00134273 15.0528C0.00122068 14.567 0.349731 14.1664 0.798828 14.1115L0.904144 14.1051L344.067 14C344.566 13.9998 344.971 14.4239 344.971 14.9471Z" fill="#008C8C"/>
</g>
<mask id="mask1_315_23433" style="mask-type:alpha" maskUnits="userSpaceOnUse" x="199" y="10" width="155" height="10">
<rect x="354" y="10" width="10" height="154.423" transform="rotate(90 354 10)" fill="white"/>
</mask>
<g mask="url(#mask1_315_23433)">
<path d="M544.547 14.9471C544.547 15.433 544.199 15.8336 543.749 15.8884L543.644 15.8948L200.481 16C199.982 16.0001 199.578 15.5761 199.578 15.0528C199.577 14.567 199.926 14.1664 200.375 14.1115L200.48 14.1051L543.644 14C544.142 13.9998 544.547 14.4239 544.547 14.9471Z" fill="#008C8C"/>
</g>
<circle cx="177" cy="15" r="15" fill="#008C8C"/>
<path fill-rule="evenodd" clip-rule="evenodd" d="M174.899 18.9115C174.241 19.2972 173.461 19.49 172.559 19.49C171.667 19.49 170.889 19.2972 170.226 18.9115C169.563 18.5258 169.052 17.9755 168.692 17.2605C168.332 16.5455 168.152 15.7027 168.152 14.732C168.152 13.77 168.33 12.9315 168.685 12.2165C169.041 11.5015 169.55 10.9533 170.213 10.572C170.876 10.1907 171.658 10 172.559 10C173.461 10 174.243 10.1907 174.906 10.572C175.569 10.9533 176.076 11.5015 176.427 12.2165C176.778 12.9315 176.953 13.77 176.953 14.732C176.953 15.7027 176.776 16.5455 176.42 17.2605C176.065 17.9755 175.558 18.5258 174.899 18.9115ZM170.557 17.267C171.033 17.8563 171.701 18.151 172.559 18.151C173.417 18.151 174.084 17.8563 174.561 17.267C175.037 16.6777 175.276 15.8327 175.276 14.732C175.276 13.64 175.037 12.8015 174.561 12.2165C174.084 11.6315 173.417 11.339 172.559 11.339C171.701 11.339 171.033 11.6293 170.557 12.21C170.08 12.7907 169.842 13.6313 169.842 14.732C169.842 15.8327 170.08 16.6777 170.557 17.267ZM180.211 19.373V15.525H181.888C182.235 15.525 182.516 15.5813 182.733 15.694C182.95 15.8067 183.11 16.006 183.214 16.292L184.397 19.373H186.165L185.034 16.409C184.791 15.759 184.397 15.3777 183.851 15.265C184.449 15.083 184.91 14.7775 185.235 14.3485C185.56 13.9195 185.723 13.3973 185.723 12.782C185.723 11.924 185.45 11.2653 184.904 10.806C184.358 10.3467 183.561 10.117 182.512 10.117H178.547V19.373H180.211ZM180.185 14.225H182.278C182.911 14.225 183.379 14.108 183.682 13.874C183.986 13.64 184.137 13.2847 184.137 12.808C184.137 12.34 183.988 11.9912 183.689 11.7615C183.39 11.5318 182.92 11.417 182.278 11.417H180.185V14.225Z" fill="#98DFDF"/>
</svg>
