<svg xmlns="http://www.w3.org/2000/svg" xmlns:xlink="http://www.w3.org/1999/xlink" width="30" height="382" viewBox="0 0 30 382">
    <defs>
        <path id="v44khp2s6a" d="M0 0H10V171H0z"/>
        <path id="d8bi8zoosc" d="M0 0H10V171H0z"/>
    </defs>
    <g fill="none" fill-rule="evenodd">
        <g>
            <g>
                <g>
                    <g transform="translate(-723 -257) translate(253 158) translate(0 11) translate(470 88)">
                        <g transform="translate(10)">
                            <mask id="him7vriz0b" fill="#fff">
                                <use xlink:href="#v44khp2s6a"/>
                            </mask>
                            <path fill="#008C8C" fill-rule="nonzero" d="M4.947 0c.486 0 .887.386.941.883L5.895 1 6 381c0 .552-.424 1-.947 1-.486 0-.887-.386-.941-.883L4.105 381 4 1c0-.552.424-1 .947-1z" mask="url(#him7vriz0b)"/>
                        </g>
                        <g transform="translate(10 211)">
                            <mask id="pwb53qx4qd" fill="#fff">
                                <use xlink:href="#d8bi8zoosc"/>
                            </mask>
                            <path fill="#008C8C" fill-rule="nonzero" d="M4.947-211c.486 0 .887.386.941.883l.007.117L6 170c0 .552-.424 1-.947 1-.486 0-.887-.386-.941-.883L4.105 170 4-210c0-.552.424-1 .947-1z" mask="url(#pwb53qx4qd)"/>
                        </g>
                        <circle cx="15" cy="191" r="15" fill="#008C8C"/>
                        <g fill="#98DFDF" fill-rule="nonzero">
                            <path d="M5.559 13.117c.901 0 1.681-.193 2.34-.579.659-.385 1.166-.936 1.52-1.65.356-.716.534-1.558.534-2.529 0-.962-.176-1.8-.527-2.516-.35-.715-.858-1.263-1.52-1.644-.664-.381-1.446-.572-2.347-.572s-1.684.19-2.347.572c-.663.381-1.172.93-1.527 1.644-.355.716-.533 1.554-.533 2.516 0 .97.18 1.813.54 2.528.359.715.87 1.266 1.533 1.652.663.385 1.441.578 2.334.578zm0-1.339c-.858 0-1.525-.295-2.002-.884-.477-.59-.715-1.434-.715-2.535 0-1.1.238-1.941.715-2.522.477-.58 1.144-.871 2.002-.871.858 0 1.525.292 2.002.877.477.585.715 1.424.715 2.516 0 1.1-.238 1.946-.715 2.535-.477.59-1.144.884-2.002.884zM13.21 13V9.152h1.677c.347 0 .628.056.845.169.217.113.377.312.481.598L17.397 13h1.768l-1.131-2.964c-.243-.65-.637-1.031-1.183-1.144.598-.182 1.06-.487 1.384-.916.326-.43.488-.952.488-1.567 0-.858-.273-1.517-.819-1.976-.546-.46-1.343-.689-2.392-.689h-3.965V13h1.664zm2.067-5.148h-2.093V5.044h2.093c.641 0 1.112.115 1.41.345.3.23.449.578.449 1.046 0 .477-.152.832-.455 1.066-.303.234-.771.351-1.404.351z" transform="translate(5 183)"/>
                        </g>
                    </g>
                </g>
            </g>
        </g>
    </g>
</svg>
