<svg width="19" height="10" viewBox="0 0 19 10" fill="none" xmlns="http://www.w3.org/2000/svg">
<path fill-rule="evenodd" clip-rule="evenodd" d="M6.89934 8.9115C6.24068 9.29717 5.46068 9.49 4.55934 9.49C3.66668 9.49 2.88884 9.29717 2.22584 8.9115C1.56284 8.52583 1.05151 7.9755 0.691844 7.2605C0.332177 6.5455 0.152344 5.70267 0.152344 4.732C0.152344 3.77 0.33001 2.9315 0.685344 2.2165C1.04068 1.5015 1.54984 0.953333 2.21284 0.572C2.87584 0.190667 3.65801 0 4.55934 0C5.46068 0 6.24284 0.190667 6.90584 0.572C7.56884 0.953333 8.07584 1.5015 8.42684 2.2165C8.77784 2.9315 8.95334 3.77 8.95334 4.732C8.95334 5.70267 8.77568 6.5455 8.42034 7.2605C8.06501 7.9755 7.55801 8.52583 6.89934 8.9115ZM2.5568 7.26699C3.03346 7.85632 3.7008 8.15099 4.5588 8.15099C5.4168 8.15099 6.08413 7.85632 6.5608 7.26699C7.03746 6.67766 7.2758 5.83266 7.2758 4.73199C7.2758 3.63999 7.03746 2.80149 6.5608 2.21649C6.08413 1.63149 5.4168 1.33899 4.5588 1.33899C3.7008 1.33899 3.03346 1.62932 2.5568 2.20999C2.08013 2.79066 1.8418 3.63132 1.8418 4.73199C1.8418 5.83266 2.08013 6.67766 2.5568 7.26699ZM12.2109 9.373V5.525H13.8879C14.2345 5.525 14.5162 5.58134 14.7329 5.694C14.9495 5.80667 15.1099 6.006 15.2139 6.292L16.3969 9.373H18.1649L17.0339 6.409C16.7912 5.759 16.3969 5.37767 15.8509 5.265C16.4489 5.083 16.9104 4.7775 17.2354 4.3485C17.5604 3.9195 17.7229 3.39734 17.7229 2.782C17.7229 1.924 17.4499 1.26534 16.9039 0.806004C16.3579 0.346671 15.5605 0.117004 14.5119 0.117004H10.5469V9.373H12.2109ZM12.1855 4.225H14.2785C14.9111 4.225 15.3791 4.108 15.6825 3.874C15.9858 3.64 16.1375 3.28467 16.1375 2.808C16.1375 2.34 15.988 1.99117 15.689 1.7615C15.39 1.53183 14.9198 1.417 14.2785 1.417H12.1855V4.225Z" fill="#98DFDF"/>
</svg>
