<?xml version="1.0" encoding="UTF-8"?>
<svg width="342px" height="310px" viewBox="0 0 342 310" version="1.1" xmlns="http://www.w3.org/2000/svg" xmlns:xlink="http://www.w3.org/1999/xlink">
    <!-- Generator: sketchtool 52.5 (67469) - http://www.bohemiancoding.com/sketch -->
    <title>D15143EF-5343-4848-A162-776E32B855C2</title>
    <desc>Created with sketchtool.</desc>
    <defs>
        <path d="M41.6146055,0.632539683 C34.949653,1.98968254 29.4220457,9.11666667 30.9520924,16.1492063 C27.6709574,12.3436508 21.5139303,11.518254 17.3690087,14.3293651 C13.2233033,17.1396825 12.3117027,22.8880952 14.0800354,27.6111111 C10.1835896,25.3055556 4.66852367,26.3896825 1.91412606,30.0087302 C0.645096538,31.6761905 -0.00313534162,33.8277778 -3.38813179e-21,35.9555556 L-3.38813179e-21,35.9611111 C0.00548684783,38.452381 0.902978386,40.9111111 2.74107241,42.5238095 C9.24063558,48.2261905 16.7051001,42.9626984 17.234189,41.615873 C17.5477232,44.8793651 22.4811832,47.6880952 25.7192073,48.2214286 C30.0216798,48.9301587 33.9698588,47.2333333 34.1822781,44.1396825 C34.8297262,47.2007937 39.2670184,50.0460317 44.2671045,49.9992063 L44.2671045,0.393650794 C44.1957754,0.392063492 44.1244464,0.392063492 44.0539012,0.392063492 C43.2410639,0.392063492 42.4250913,0.467460317 41.6146055,0.632539683" id="path-1"></path>
        <linearGradient x1="21.8050727%" y1="26.8977519%" x2="103.855303%" y2="68.4576976%" id="linearGradient-3">
            <stop stop-color="#FFFFFF" offset="0%"></stop>
            <stop stop-color="#EBEBEB" offset="100%"></stop>
        </linearGradient>
        <path d="M0.372321817,0.393650794 L0.372321817,49.9992063 C5.37240786,50.0460317 9.80970009,47.2007937 10.4563643,44.1396825 C10.6695675,47.2333333 14.6177465,48.9301587 18.920219,48.2214286 C22.1574592,47.6880952 27.0917031,44.8793651 27.4052372,41.615873 C27.9335423,42.9626984 35.3987907,48.2261905 41.8983539,42.5238095 C45.3088217,39.531746 45.4804817,33.6285714 42.7253002,30.0087302 C39.9709026,26.3896825 34.4558367,25.3055556 30.5593909,27.6111111 C32.3277236,22.8880952 31.4153392,17.1396825 27.2704176,14.3293651 C23.1254959,11.518254 16.9684688,12.3436508 13.6881177,16.1492063 C15.2173805,9.11666667 9.68898943,1.98968254 3.02482083,0.632539683 C2.21433502,0.467460317 1.39836236,0.392063492 0.585525047,0.392063492 C0.514979861,0.392063492 0.443650839,0.392063492 0.372321817,0.393650794" id="path-4"></path>
        <linearGradient x1="90.7680706%" y1="49.999868%" x2="-1.65773029%" y2="49.999868%" id="linearGradient-6">
            <stop stop-color="#E6E6E6" offset="0%"></stop>
            <stop stop-color="#D1D1D1" offset="100%"></stop>
        </linearGradient>
        <path d="M27.2194962,0.632539683 C22.87598,1.98968254 19.2745761,9.11666667 20.2711268,16.1492063 C18.1327442,12.3436508 14.1206263,11.518254 11.4191807,14.3293651 C8.71773513,17.1396825 8.12326004,22.8880952 9.27608624,27.6111111 C6.73719857,25.3055556 3.1428624,26.3896825 1.34765757,30.0087302 C-0.447547253,33.6285714 -0.336034093,39.531746 1.88716139,42.5238095 C6.12230558,48.2261905 10.9864782,42.9626984 11.3312267,41.615873 C11.536191,44.8793651 14.7512254,47.6880952 16.8605518,48.2214286 C19.6648722,48.9301587 22.2375279,47.2333333 22.3765267,44.1396825 C22.7974496,47.2007937 25.6897241,50.0460317 28.9479501,49.9992063 L28.9479501,0.393650794 C28.9016172,0.392063492 28.8552843,0.392063492 28.8089513,0.392063492 C28.2796565,0.392063492 27.7472204,0.467460317 27.2194962,0.632539683" id="path-7"></path>
        <linearGradient x1="26.8259872%" y1="34.2454012%" x2="101.365968%" y2="59.70552%" id="linearGradient-9">
            <stop stop-color="#E6E6E6" offset="0%"></stop>
            <stop stop-color="#D1D1D1" offset="100%"></stop>
        </linearGradient>
        <path d="M0.373019376,0.393650794 L0.373019376,49.9992063 C3.63124546,50.0460317 6.5227346,47.2007937 6.94444282,44.1396825 C7.08344161,47.2333333 9.65609735,48.9301587 12.4604177,48.2214286 C14.5697442,47.6880952 17.7847785,44.8793651 17.9897429,41.615873 C18.3344913,42.9626984 23.1978786,48.2261905 27.4338081,42.5238095 C29.6570036,39.531746 29.7685168,33.6285714 27.9733119,30.0087302 C26.1773218,26.3896825 22.5837709,25.3055556 20.0448833,27.6111111 C21.1969242,22.8880952 20.6032344,17.1396825 17.9017888,14.3293651 C15.2003432,11.518254 11.18744,12.3436508 9.0498427,16.1492063 C10.0463934,9.11666667 6.4442042,1.98968254 2.10147337,0.632539683 C1.57296381,0.467460317 1.04131304,0.392063492 0.512018174,0.392063492 C0.465685241,0.392063492 0.419352308,0.392063492 0.373019376,0.393650794" id="path-10"></path>
        <linearGradient x1="78.3853409%" y1="49.999868%" x2="-32.8161148%" y2="49.999868%" id="linearGradient-12">
            <stop stop-color="#FFFFFF" offset="0%"></stop>
            <stop stop-color="#EBEBEB" offset="100%"></stop>
        </linearGradient>
    </defs>
    <g id="latest" stroke="none" stroke-width="1" fill="none" fill-rule="evenodd">
        <g id="mobile-promotions" transform="translate(-24.000000, -153.000000)">
            <g id="Group-8" transform="translate(24.000000, 153.000000)">
                <polygon id="Fill-2" fill="#009BFF" points="149 65.5 163.495348 80 178 65.5 163.495348 51"></polygon>
                <polygon id="Fill-3" fill="#FFAC00" points="275.794308 102.632721 292 98.2703545 273.116929 126 255 113.728961 273.883758 86"></polygon>
                <polygon id="Fill-10" fill="#A80F7E" points="217.000966 283 208 292.000241 217.000966 301 226 292.000241"></polygon>
                <polygon id="Fill-11" fill="#FF8800" points="3.66147438 223 0 236.339881 13.341501 240 17 226.657143"></polygon>
                <polygon id="Fill-14" fill="#FF8800" points="32.3311601 68.6615522 31.0792309 82 16 60.0790465 29.9207691 50 45 71.9187616"></polygon>
                <path d="M263.139258,33.1375651 C272.286914,23.9861179 272.286914,9.14991324 263.139258,0 L230,33.1375651 C239.150724,42.2874783 253.987767,42.2874783 263.139258,33.1375651" id="Fill-19" fill="#009BFF"></path>
                <g id="Group-5" transform="translate(28.000000, 255.000000)">
                    <polygon id="Fill-23" fill="#007F7E" points="54 26.8983082 45.8868598 0 37 9.0739577 45.0902428 36"></polygon>
                    <polygon id="Fill-25" fill="#007F7E" points="36 45.8426257 27.2349559 19 18 28.1656138 26.772793 55"></polygon>
                    <polygon id="Fill-27" fill="#00B6AA" points="28.1606997 19 55 27.6246722 45.926312 37 19 28.4646648"></polygon>
                    <polygon id="Fill-29" fill="#00B6AA" points="9.42407807 37 36 45.7656264 26.9261704 55 0 46.59299"></polygon>
                </g>
                <g id="Group-2" transform="translate(277.000000, 243.000000)">
                    <polygon id="Fill-31" fill="#007F7E" points="32.8685012 64 65 54.4520442 54.1581047 44 22 53.5155464"></polygon>
                    <polygon id="Fill-33" fill="#007F7E" points="10.6816896 42 42 31.7735318 31.3093296 21 0 31.2348204"></polygon>
                    <polygon id="Fill-35" fill="#00B6AA" points="43 32.687042 32.9373822 64 22 53.4107532 31.9608681 22"></polygon>
                    <polygon id="Fill-37" fill="#00B6AA" points="21 10.9966621 10.7721758 42 0 31.4136612 9.81016309 0"></polygon>
                </g>
                <g id="Group-13-Copy-2" transform="translate(240.000000, 25.000000)">
                    <g id="Group-13-Copy" transform="translate(0.000000, 0.500000)">
                        <g id="Group-3">
                            <mask id="mask-2" fill="white">
                                <use xlink:href="#path-1"></use>
                            </mask>
                            <g id="Clip-2"></g>
                            <path d="M41.6146055,0.632539683 C34.949653,1.98968254 29.4220457,9.11666667 30.9520924,16.1492063 C27.6709574,12.3436508 21.5139303,11.518254 17.3690087,14.3293651 C13.2233033,17.1396825 12.3117027,22.8880952 14.0800354,27.6111111 C10.1835896,25.3055556 4.66852367,26.3896825 1.91412606,30.0087302 C0.645096538,31.6761905 -0.00313534162,33.8277778 -3.38813179e-21,35.9555556 L-3.38813179e-21,35.9611111 C0.00548684783,38.452381 0.902978386,40.9111111 2.74107241,42.5238095 C9.24063558,48.2261905 16.7051001,42.9626984 17.234189,41.615873 C17.5477232,44.8793651 22.4811832,47.6880952 25.7192073,48.2214286 C30.0216798,48.9301587 33.9698588,47.2333333 34.1822781,44.1396825 C34.8297262,47.2007937 39.2670184,50.0460317 44.2671045,49.9992063 L44.2671045,0.393650794 C44.1957754,0.392063492 44.1244464,0.392063492 44.0539012,0.392063492 C43.2410639,0.392063492 42.4250913,0.467460317 41.6146055,0.632539683" id="Fill-1" fill="url(#linearGradient-3)" mask="url(#mask-2)"></path>
                        </g>
                        <g id="Group-6" transform="translate(44.040352, 0.000000)">
                            <mask id="mask-5" fill="white">
                                <use xlink:href="#path-4"></use>
                            </mask>
                            <g id="Clip-5"></g>
                            <path d="M0.372321817,0.393650794 L0.372321817,49.9992063 C5.37240786,50.0460317 9.80970009,47.2007937 10.4563643,44.1396825 C10.6695675,47.2333333 14.6177465,48.9301587 18.920219,48.2214286 C22.1574592,47.6880952 27.0917031,44.8793651 27.4052372,41.615873 C27.9335423,42.9626984 35.3987907,48.2261905 41.8983539,42.5238095 C45.3088217,39.531746 45.4804817,33.6285714 42.7253002,30.0087302 C39.9709026,26.3896825 34.4558367,25.3055556 30.5593909,27.6111111 C32.3277236,22.8880952 31.4153392,17.1396825 27.2704176,14.3293651 C23.1254959,11.518254 16.9684688,12.3436508 13.6881177,16.1492063 C15.2173805,9.11666667 9.68898943,1.98968254 3.02482083,0.632539683 C2.21433502,0.467460317 1.39836236,0.392063492 0.585525047,0.392063492 C0.514979861,0.392063492 0.443650839,0.392063492 0.372321817,0.393650794" id="Fill-4" fill="url(#linearGradient-6)" mask="url(#mask-5)"></path>
                        </g>
                        <g id="Group-9" transform="translate(15.318383, 0.000000)">
                            <mask id="mask-8" fill="white">
                                <use xlink:href="#path-7"></use>
                            </mask>
                            <g id="Clip-8"></g>
                            <path d="M27.2194962,0.632539683 C22.87598,1.98968254 19.2745761,9.11666667 20.2711268,16.1492063 C18.1327442,12.3436508 14.1206263,11.518254 11.4191807,14.3293651 C8.71773513,17.1396825 8.12326004,22.8880952 9.27608624,27.6111111 C6.73719857,25.3055556 3.1428624,26.3896825 1.34765757,30.0087302 C-0.447547253,33.6285714 -0.336034093,39.531746 1.88716139,42.5238095 C6.12230558,48.2261905 10.9864782,42.9626984 11.3312267,41.615873 C11.536191,44.8793651 14.7512254,47.6880952 16.8605518,48.2214286 C19.6648722,48.9301587 22.2375279,47.2333333 22.3765267,44.1396825 C22.7974496,47.2007937 25.6897241,50.0460317 28.9479501,49.9992063 L28.9479501,0.393650794 C28.9016172,0.392063492 28.8552843,0.392063492 28.8089513,0.392063492 C28.2796565,0.392063492 27.7472204,0.467460317 27.2194962,0.632539683" id="Fill-7" fill="url(#linearGradient-9)" mask="url(#mask-8)"></path>
                        </g>
                        <g id="Group-12" transform="translate(44.040352, 0.000000)">
                            <mask id="mask-11" fill="white">
                                <use xlink:href="#path-10"></use>
                            </mask>
                            <g id="Clip-11"></g>
                            <path d="M0.373019376,0.393650794 L0.373019376,49.9992063 C3.63124546,50.0460317 6.5227346,47.2007937 6.94444282,44.1396825 C7.08344161,47.2333333 9.65609735,48.9301587 12.4604177,48.2214286 C14.5697442,47.6880952 17.7847785,44.8793651 17.9897429,41.615873 C18.3344913,42.9626984 23.1978786,48.2261905 27.4338081,42.5238095 C29.6570036,39.531746 29.7685168,33.6285714 27.9733119,30.0087302 C26.1773218,26.3896825 22.5837709,25.3055556 20.0448833,27.6111111 C21.1969242,22.8880952 20.6032344,17.1396825 17.9017888,14.3293651 C15.2003432,11.518254 11.18744,12.3436508 9.0498427,16.1492063 C10.0463934,9.11666667 6.4442042,1.98968254 2.10147337,0.632539683 C1.57296381,0.467460317 1.04131304,0.392063492 0.512018174,0.392063492 C0.465685241,0.392063492 0.419352308,0.392063492 0.373019376,0.393650794" id="Fill-10" fill="url(#linearGradient-12)" mask="url(#mask-11)"></path>
                        </g>
                    </g>
                </g>
            </g>
        </g>
    </g>
</svg>