<svg xmlns="http://www.w3.org/2000/svg" xmlns:xlink="http://www.w3.org/1999/xlink" width="151" height="101" viewBox="0 0 151 101">
    <defs>
        <path id="a" d="M3.723.004C1.695.004.051 1.66.051 3.701V16.28c0 2.042 1.644 3.697 3.672 3.697h12.493c2.028 0 3.672-1.655 3.672-3.697V3.7c0-2.042-1.644-3.697-3.672-3.697H3.723z"/>
        <path id="c" d="M3.723.004C1.695.004.051 1.66.051 3.701V16.28c0 2.042 1.644 3.697 3.672 3.697h12.493c2.028 0 3.672-1.655 3.672-3.697V3.7c0-2.042-1.644-3.697-3.672-3.697H3.723z"/>
        <path id="e" d="M3.723.004C1.695.004.051 1.66.051 3.701V16.28c0 2.042 1.644 3.697 3.672 3.697h12.493c2.028 0 3.672-1.655 3.672-3.697V3.7c0-2.042-1.644-3.697-3.672-3.697H3.723z"/>
        <path id="g" d="M3.723.004C1.695.004.051 1.66.051 3.701V16.28c0 2.042 1.644 3.697 3.672 3.697h12.493c2.028 0 3.672-1.655 3.672-3.697V3.7c0-2.042-1.644-3.697-3.672-3.697"/>
        <path id="i" d="M3.723.004C1.695.004.051 1.66.051 3.701V16.28c0 2.042 1.644 3.697 3.672 3.697h12.493c2.028 0 3.672-1.655 3.672-3.697V3.7c0-2.042-1.644-3.697-3.672-3.697"/>
        <path id="k" d="M3.723.004C1.695.004.051 1.66.051 3.701V16.28c0 2.042 1.644 3.697 3.672 3.697h12.493c2.028 0 3.672-1.655 3.672-3.697V3.7c0-2.042-1.644-3.697-3.672-3.697"/>
        <path id="m" d="M3.723.004C1.695.004.051 1.66.051 3.701V16.28c0 2.042 1.644 3.697 3.672 3.697h12.493c2.028 0 3.672-1.655 3.672-3.697V3.7c0-2.042-1.644-3.697-3.672-3.697"/>
        <path id="o" d="M3.723.004C1.695.004.051 1.66.051 3.701V16.28c0 2.042 1.644 3.697 3.672 3.697h12.493c2.028 0 3.672-1.655 3.672-3.697V3.7c0-2.042-1.644-3.697-3.672-3.697"/>
        <path id="q" d="M3.723.004C1.695.004.051 1.66.051 3.701V16.28c0 2.042 1.644 3.697 3.672 3.697h12.493c2.028 0 3.672-1.655 3.672-3.697V3.7c0-2.042-1.644-3.697-3.672-3.697"/>
        <path id="s" d="M0 .086h6.902v6.891H0z"/>
        <path id="u" d="M11.16.762s-.295 5.941 2.761 9.208L.02.07l11.14.692z"/>
    </defs>
    <g fill="none" fill-rule="evenodd" transform="translate(40 9)">
        <path fill="#D8D8D8" d="M27 9h38v11H27zM2 26h66v40H2z" opacity=".356"/>
        <circle cx="6" cy="67" r="6" fill="#58C4C5"/>
        <path fill="#58C4C5" d="M58 0h13v32z"/>
        <g opacity=".425">
            <g transform="translate(0 3)">
                <mask id="b" fill="#fff">
                    <use xlink:href="#a"/>
                </mask>
                <path fill="#71D8B8" d="M15.79 17.135l-.9-.568 2.806-1.26-1.161-2.663c-.537-1.136-1.924-2.057-3.25-2.058H7.508c-1.325.001-2.712.922-3.249 2.058l-1.161 2.663 2.806 1.26-.9.568-.498 4.328 5.891-.093 5.891.093-.499-4.328z" mask="url(#b)"/>
            </g>
            <g transform="translate(0 3)">
                <mask id="d" fill="#fff">
                    <use xlink:href="#c"/>
                </mask>
                <path fill="#FAB08A" d="M17.696 15.307l.58 1.926c.422 1.406-.029 2.915-1.169 3.91L14.48 23.21l-.845-2.313 1.453-1.365c.478-.449.62-1.123.36-1.707l-.557-1.258 2.806-1.26z" mask="url(#d)"/>
            </g>
            <g transform="translate(0 3)">
                <mask id="f" fill="#fff">
                    <use xlink:href="#e"/>
                </mask>
                <path fill="#FAB08A" d="M3.126 15.307l-.579 1.926c-.423 1.406.029 2.915 1.168 3.91l2.629 2.067.845-2.313-1.454-1.365a1.495 1.495 0 0 1-.36-1.707l.558-1.258-2.807-1.26z" mask="url(#f)"/>
            </g>
            <g transform="translate(0 3)">
                <mask id="h" fill="#fff">
                    <use xlink:href="#g"/>
                </mask>
                <path fill="#1C2C57" d="M22.607 22.416c1.94 3.48-17.6 5.615-17.6 5.615l-.331-1.55s15.539-8.355 17.931-4.065" mask="url(#h)"/>
            </g>
            <g transform="translate(0 3)">
                <mask id="j" fill="#fff">
                    <use xlink:href="#i"/>
                </mask>
                <path fill="#004472" d="M-1.522 22.416c-1.649 3.629 17.762 5.805 17.762 5.805l.144-1.744S.426 18.126-1.522 22.417" mask="url(#j)"/>
            </g>
            <g transform="translate(0 3)">
                <mask id="l" fill="#fff">
                    <use xlink:href="#k"/>
                </mask>
                <path fill="#F79C82" d="M11.42 10.574c-.18-.549-.506-2.175-.506-2.175l-2.08.409v1.775s.69.493 1.271.498c.634.005 1.338-.446 1.315-.507" mask="url(#l)"/>
            </g>
            <g transform="translate(0 3)">
                <mask id="n" fill="#fff">
                    <use xlink:href="#m"/>
                </mask>
                <path fill="#FAB08A" d="M11.422 5.517L11.03 3.19l-3.996.477.242 2.679s.31 3.315 2.436 2.92c2.3-.426 1.812-3.78 1.71-3.75" mask="url(#n)"/>
            </g>
            <g transform="translate(0 3)">
                <mask id="p" fill="#fff">
                    <use xlink:href="#o"/>
                </mask>
                <path fill="#004472" d="M12.354 5.199c-.053-.282.022-.723.17-.968.69-1.136-.354-1.467-.718-1.565-.403-.109-.531-.74-1.072-.942-.826-.307-1.292.437-1.74.495-.448.057-.89-.425-1.41.073-.52.499-.297.963-.43 1.232-.131.268-.674-.182-1.068.659-.3.64.032 1.015.437 1.23.473.25 1.038.25 1.528.037a6.904 6.904 0 0 0 1.603-.98c.155-.128 1.374-.212 1.476-.038.343.59.371 2.557.371 2.557l.043-.06c.152-.214.321-.414.498-.606.181-.198.417-.573.312-1.124" mask="url(#p)"/>
            </g>
            <g transform="translate(0 3)">
                <mask id="r" fill="#fff">
                    <use xlink:href="#q"/>
                </mask>
                <path fill="#FAB08A" d="M11.84 6.038c0 .224-.18.406-.403.406a.405.405 0 0 1-.404-.406c0-.225.18-.407.404-.407.223 0 .404.182.404.407" mask="url(#r)"/>
            </g>
        </g>
        <path fill="#58C4C5" d="M68 70.751L54.751 84 39 68.249 52.249 55z"/>
        <path fill="#FFF" d="M39.295 67.705c.47.47 1.443.362 2.705-.202L39.497 65c-.564 1.262-.671 2.236-.202 2.705"/>
        <path fill="#004966" d="M44.59 59.59c-2.193 2.193-3.837 4.441-4.59 6.126L42.284 68c1.685-.753 3.933-2.397 6.126-4.59 2.193-2.193 3.837-4.441 4.59-6.126L50.716 55c-1.685.753-3.933 2.397-6.126 4.59"/>
        <g transform="translate(20 25)">
            <mask id="t" fill="#fff">
                <use xlink:href="#s"/>
            </mask>
            <path fill="#004966" d="M4.922 6.977S-1.17 1.657.201.328c1.37-1.33 6.701 3.25 6.701 3.25" mask="url(#t)"/>
        </g>
        <path fill="#99DCDC" d="M23.003 50.968l1.925-28.809a1.254 1.254 0 0 1 1.354-1.155l16.59 1.236c.66.05 1.16.61 1.126 1.261l-.948 17.855L37.278 53l-13.087-.712a1.248 1.248 0 0 1-1.188-1.32"/>
        <path fill="#FFF" d="M41.17 49L25 47.908 26.81 23l16.19.469z"/>
        <path stroke="#FFF" stroke-width=".9" d="M41.17 49L25 47.908 26.81 23l16.19.469z"/>
        <path fill="#FF7900" d="M25 43l16 1.655L40.698 49l-15.597-1.138"/>
        <path fill="#004966" d="M26 52.038l11.613.646c.144-7.461 5.842-12.842 5.842-12.842l.505-9.542c.505-3.228 2.309-3.3 2.309-3.3l2.196 10.66a5.94 5.94 0 0 1 .093 1.794l-1.208 12.01.008.045L51 55.131c-1.718.764-4.01 2.432-6.247 4.656-2.236 2.224-3.913 4.504-4.68 6.213L26 52.038z"/>
        <g transform="translate(26 52)">
            <mask id="v" fill="#fff">
                <use xlink:href="#u"/>
            </mask>
            <path d="M11.16.762s-.295 5.941 2.761 9.208L.02.07l11.14.692z" mask="url(#v)"/>
        </g>
        <path fill="#004966" d="M23.317 45.822l2.643-2.676C29.283 40.264 27.546 38 27.546 38l-6.35 4.555a2.89 2.89 0 0 0-.618.607c-.927 1.225-.71 2.889.447 3.94L23.114 49l.203-3.178z"/>
        <path fill="#004966" d="M22.42 45l-1.69-2.134c-.96-1.21-.986-2.968-.002-4.157.186-.225.399-.42.633-.573L27.7 34s1.427 2.653-1.942 5.337l-2.724 2.567.573 2.37L22.42 45z"/>
        <path fill="#004966" d="M24.395 43l-3.663-4.446c-.962-1.168-.99-2.864-.002-4.01.187-.217.4-.406.635-.553L27.725 30s1.34 2.422-1.896 5.201l-2.785 2.425L24.394 43z"/>
        <path fill="#00C9C3" d="M34.441 50.999l-2.955-.164c-.288-.016-.505-.216-.485-.446.02-.23.27-.404.558-.388l2.955.164c.288.016.505.216.485.446-.02.23-.27.404-.558.388"/>
        <path fill="#009792" d="M50 71.5a1.5 1.5 0 1 1-3 0 1.5 1.5 0 0 1 3 0"/>
        <path fill="#FF7900" d="M42.1 18.897a.35.35 0 0 1 .002-.492l3.31-3.304a.344.344 0 0 1 .488.002.35.35 0 0 1-.003.492l-3.309 3.304a.343.343 0 0 1-.488-.002M25.897 18.9a.344.344 0 0 0 .002-.488l-3.304-3.31a.35.35 0 0 0-.492-.002.343.343 0 0 0-.002.488l3.304 3.31a.35.35 0 0 0 .492.002M33.483 18c-.268-.001-.484-.175-.483-.389l.029-5.226c0-.213.22-.386.487-.385.269.001.485.175.484.389l-.03 5.226c0 .213-.218.386-.487.385"/>
    </g>
</svg>
