<svg xmlns="http://www.w3.org/2000/svg" xmlns:xlink="http://www.w3.org/1999/xlink" width="151" height="101" viewBox="0 0 151 101">
    <defs>
        <path id="a" d="M14.151.224L10.28 2.427C4.993 11.39 2.203 16.194 1.908 16.835c-.192.416-.573 2.089-.954 3.99-.138.686-.341 1.764-.61 3.232 2.244-1.312 3.719-2.06 4.425-2.246.706-.185 1.781-.08 3.225.316l-.203-4.97"/>
        <path id="c" d="M22.175 6.962c0-1.7-6.94-3.348-8.933-6.088-1.33-1.826-3.91-.79-7.742 3.108-4.207 8.374-6 15.381-5.38 21.022 4.479 0 15.98.56 20.68 0"/>
        <path id="e" d="M.023.122h15.04v35.804H.024z"/>
        <path id="g" d="M5.506 35.567h11.711v8.446H5.506z"/>
    </defs>
    <g fill="none" fill-rule="evenodd" transform="translate(9 6)">
        <g transform="translate(16)">
            <rect width="104" height="24" fill="#0A9494" opacity=".3" rx="4"/>
            <path fill="#FFF" d="M27.972 5.091h70.29v3.636h-70.29zM27.972 17.455h70.29v1.455h-70.29zM27.972 13.818h70.29v1.455h-70.29z"/>
            <ellipse cx="13.986" cy="12" fill="#FFF" rx="6.814" ry="6.909"/>
            <path fill="#58C4C5" d="M20.8 12c0-3.816-3.05-6.91-6.814-6.91V12H20.8z"/>
        </g>
        <rect width="104" height="41" x="16" y="27" fill="#0A9494" opacity=".3" rx="4"/>
        <path fill="#0A9494" d="M31.955 75.59C17.76 78.724 13.037 84.194 17.785 92L114 91.25V75.59c-40.503-3.133-67.851-3.133-82.045 0z"/>
        <path stroke="#979797" d="M57.255 46.563c.251-.67.579-.842.982-.516.605.487.498 1.93.246 2.262-.168.222-.476.158-.925-.192"/>
        <path fill="#1C2C57" d="M57.48 46.644l-6.29-4.024-3.181-2.763c1.186-1.16 2.76-1.734 4.724-1.723 2.945.016 5.439 2.417 6.148 5.605.472 2.126 1.07 5.723 1.796 10.793-1.71 1.32-2.76 1.5-3.148.541-.388-.958-.405-3.768-.05-8.43z"/>
        <path fill="#FF7900" d="M49.437 54.136c8.983-.821 13.667-.393 14.051 1.284 1.857 8.104.898 13.104.898 19.281l-22.157-.311 4.95-19.696 2.258-.558z"/>
        <path fill="#EE770B" d="M47.474 54.694l-4.292 1.952c-2.253 12.044-3.149 18.38-2.688 19.005.305.414 1.777.46 2.332.46 1.815 0 2.675-.257 2.582-.771l1.168-4.84.898-5.777"/>
        <path fill="#F2A883" d="M50.043 54.754c1.098-1.127 7.82-1.331 8.634 0 .814 1.332-1.254 4.543-4.425 4.543-3.172 0-5.307-3.415-4.209-4.543z"/>
        <path fill="#EDA079" d="M56.375 53.731v3.39c-.456.46-1.144.691-2.066.691-.922 0-1.61-.23-2.066-.691v-4.277l4.132.887z"/>
        <path fill="#FDBA98" d="M55.284 54.867c1.564-.387 3.04-3.718 2.409-7.073-.63-3.354-3.025-5.695-5.349-5.23-2.324.466-3.697 3.563-3.067 6.917.63 3.354 4.443 5.773 6.007 5.386z"/>
        <path fill="#1C2C57" d="M51.416 39.318l1.29 3.06c-1.61 3.405-2.54 5.756-2.79 7.055-.376 1.948.482 1.422 1.586 3.802s1.743 3.671.71 6.789c-1.034 3.118.624 3.5-1.645 5.371-2.27 1.871-7.27.776-8.844-.69-.96-.893-2.566-4.757-.428-7.624.706-.946 2.173-5.003 2.157-7.61-.016-2.607 2.325-7.919 3.865-9.344 1.026-.95 2.392-1.219 4.099-.809z"/>
        <path fill="#D66500" d="M59.491 59.993v11.754l-15.253 1.938c1.056-1.067 1.99-1.837 2.803-2.31.799-.465 9.067-1.335 9.498-1.9 1.087-1.43 2.07-4.59 2.952-9.482z"/>
        <path fill="#F2A883" d="M50.45 72.867l-3.3-.066-3.56.541-1.838 2.754 2.495.016.735-1.172 4.34-.239z"/>
        <path fill="#F6BDA1" d="M50.45 72.8l-3.3-.066-3.56.542-1.838 2.754h1.03l1.465-1.648 5.076.252z"/>
        <path fill="#FDBA98" d="M45.686 74.39l-2.504.786.547.854 2.437-.379c.667.314 1.252.44 1.753.379.502-.062 1.21-.346 2.124-.854v-2.375"/>
        <path fill="#FF7900" d="M58.394 71.85c-2.406.232-5.19.527-8.35.884l-.662 2.606h14.97v-3.015c-1.565-.549-3.55-.707-5.958-.475z"/>
        <path fill="#E3DFDF" d="M67.47 77.005c1.935.199 3.69.066 5.265-.397 1.574-.464 2.215-.98 1.922-1.546l-3-.926c-1.469.709-2.615 1.345-3.438 1.909-.823.564-1.073.884-.75.96z"/>
        <path fill="#F2AB86" d="M76.187 76.585l3.405 3.314-4.514 1.927-1.401-2.798-4.981-3.559c.255-.298.775-.801 1.56-1.51.785-.708 2.762.167 5.93 2.626z"/>
        <g transform="translate(66.788 53.038)">
            <mask id="b" fill="#fff">
                <use xlink:href="#a"/>
            </mask>
            <use fill="#FFF" xlink:href="#a"/>
            <path fill="#F3F3F3" d="M13.591 3.054L8.8 20.203c-.186 1.31-.496 1.925-.93 1.846-.435-.078-2.422.268-5.961 1.04 1.768-1.54 2.95-2.902 3.546-4.083 2.963-5.877 4.32-10.959 4.9-12.349.423-1.013 1.797-3.055 2.45-3.603.341-.288.604-.288.787 0z" mask="url(#b)"/>
        </g>
        <g transform="translate(74.657 49.43)">
            <mask id="d" fill="#fff">
                <use xlink:href="#c"/>
            </mask>
            <use fill="#FFF" xlink:href="#c"/>
            <path fill="#F3F3F3" d="M18.724 7.06l-1.3 18.193h-7.64c2.442-1.178 4.2-2.861 5.276-5.05 1.076-2.19 2.297-6.57 3.664-13.143z" mask="url(#d)"/>
        </g>
        <path fill="#F2AB86" d="M80.38 53.496c-.035 2.756.68 3.703 2.142 2.842 1.463-.861 2.895-3.072 4.296-6.632l-3.012-3.883"/>
        <path fill="#037090" d="M80.842 56.261l1.517.276.583-.613 1.014 1.612-1.014 1.274h-2.358l-.204-2.273z"/>
        <path fill="#06627D" d="M80.38 56.646c1.073 0 1.715.058 1.926.176.212.118.27.78.176 1.988H80.38v-2.164z"/>
        <path fill="#037090" d="M80.746 58.81l-1.797 15.874h5.007l-.868-15.874"/>
        <path fill="#FFF" d="M86.959 49.683l-5.149 7.044.792-.694 1.968 2.777c2.929-4.758 4.394-7.332 4.394-7.72 0-.584-.808-1.107-1.092-1.407-.284-.3-.2-.893-.467-.962-.178-.046-.517.04-1.016.257l.57.705zM80.324 53.76c.004.523.054.97.15 1.338.097.369.304.822.62 1.36h-.77l-1.375 1.63.338-3.886 1.037-.443zM71.142 83.018l-7.556 1.767-4.666-4.178c3.574-1.031 6.365-1.703 8.373-2.014 2.007-.31 3.914-.382 5.718-.213l3.792 2.263"/>
        <path fill="#FAB08A" d="M72.555 42.206c-.47 2.18 2.904 12.497 5.05 12.978 1.01.226 3.275-1.583 5.21-4.877.536-.911 1.154-2.49 1.857-4.736-2.36-3.17-4.265-4.933-5.716-5.287-2.176-.532-5.93-.259-6.4 1.922z"/>
        <path fill="#1C2C57" d="M69.191 42.438c-.858 1.687.462 4.846 3.535 3.949 4.847-1.415 5.112-4.595 6.725-4.619 1.075-.016 1.868.707 2.378 2.169l3.558-5.678c-1.816-2.423-4.053-3.495-6.71-3.216-2.366.25-4.815 2.053-6.395 3.302-1.562 1.237-2.371 2.678-3.09 4.093z"/>
        <path fill="#FFF" d="M87.488 49.43l11.515 4.643 1.406 25.632-21.96 5.08-.93-6.211 13.513-3.344 1.518-17.2"/>
        <path fill="#F2AB86" d="M77.687 80.806c-2.269-.382-4.26-.452-5.973-.208-2.569.365-5.152 1.557-5.496 1.716-.345.16-1.193.89-.72 1.277.473.386 3.086-.502 4.477.093 1.39.595 1.394 2.107 2.19 2.252.861.158 2.809.48 3.517.146.363-.17.404-.906 1.284-1.439.274-.165.935-.325 1.983-.48"/>
        <g transform="translate(16 45.823)">
            <g transform="translate(8.73)">
                <mask id="f" fill="#fff">
                    <use xlink:href="#e"/>
                </mask>
                <path fill="#58C4C5" d="M14.918 10.979c-.2-.608-.638-1.2-1.275-1.613-.557-.36-1.578-.581-1.714-1.189a.991.991 0 0 1-.023-.2c.02-.138.04-.277.058-.416.047-.175.114-.348.178-.511.16-.412.362-.816.49-1.235.277-.903.294-1.83.08-2.742-.196-.83-.592-1.918-1.557-2.437-.388-.208-1.786-.995-2.397-.082-.728 1.086-.915 2.278-1.08 3.475-.17 1.238-.291 2.482-.615 3.705-.307 1.157-.824 2.253-1.541 3.305-.703 1.031-1.53 2.012-2.326 3.005C1.573 16.07.026 18.299.023 20.719c0 1.218.488 2.344 1.112 3.454.615 1.095 1.194 2.177 1.493 3.348.658 2.578.142 5.266-1.062 7.711-.141.286.144.694.529.694 2.754 0 4.799-1.899 5.332-2.75.395-.63.55-1.29.459-1.983-.039-.293-.122-.615-.055-.908.07-.306.396-.356.744-.45.996-.27 1.623-.787 1.745-1.587.12-.79-.381-1.498-1.008-2.105-.564-.548-1.387-1.108-1.534-1.824-.147-.713.514-1.395 1.049-1.935 1.256-1.266 2.56-2.506 2.865-4.117.078-.41.076-.81.05-1.224-.023-.381-.077-.799.122-1.161.318-.58 1.183-.942 1.759-1.365 1.238-.909 1.706-2.288 1.295-3.538" mask="url(#f)"/>
            </g>
            <path fill="#49B0B1" d="M17.766 21.981c-.414-.628-.846-1.249-1.248-1.881-.117-.185-.256-.372-.347-.564.173.364-.09-.165-.128-.238a10.804 10.804 0 0 1-.999-2.644c-.024-.1-.044-.2-.066-.3l-.004-.019-.019-.113a11.742 11.742 0 0 1-.08-.607c-.099-.95-.083-1.904.028-2.852.027-.238.06-.475.1-.711a.898.898 0 0 0 .006-.054c.01-.094.04-.189.059-.282.104-.489.235-.973.371-1.458.303-1.075.602-2.152.719-3.249a.805.805 0 0 0-.057-.383c-.06.3-.128.6-.21.9-.311 1.148-.838 2.235-1.567 3.279-.715 1.023-1.557 1.996-2.366 2.98-1.651 2.012-3.225 4.222-3.227 6.623-.001 1.208.496 2.325 1.13 3.427.626 1.086 1.215 2.159 1.52 3.32.669 2.558.144 5.225-1.081 7.65-.144.284.146.69.538.69 2.802 0 4.881-1.885 5.424-2.73.402-.625.559-1.278.466-1.966-.038-.291-.123-.61-.056-.902.071-.303.403-.353.758-.446 1.013-.268 1.65-.781 1.774-1.574.122-.783-.387-1.486-1.024-2.089-.574-.543-1.412-1.099-1.561-1.809-.15-.707.523-1.384 1.067-1.919l.08-.079"/>
            <path fill="#58C4C5" d="M12.62 31.15c-.39-.608-1.069-1.134-1.347-1.777-.273-.632-.005-1.337-.123-1.99-.232-1.292-1.186-2.425-2.125-3.506-.821-.946-1.712-1.86-2.118-2.928-1.102-2.899-.365-4.07-.18-5.98.096-.98.185-1.964.153-2.948a9.967 9.967 0 0 0-.14-1.408c-.077-.441-.143-.91-.37-1.326a1.478 1.478 0 0 0-1.335-.768c-.169 0-.326.023-.468.064-.743.098-.93.79-.968 1.256-.05.62.088 1.243-.07 1.858-.125.492-.362.965-.658 1.416-.622.953-1.44 1.832-2.018 2.802-.626 1.051-.894 2.153-.565 3.287.325 1.122 1.2 2.02 2.323 2.797 1.043.72 2.097 1.401 2.287 2.498.347 2.008-1.245 4.192.566 6.014.517.52 1.182.952 1.599 1.524.423.58.628 1.23.917 1.848.518 1.109 1.476 2.33 3.208 2.55.519.066.825-.33.688-.593.358.018 2.057.558 2.076.354.181-1.931-.704-3.718-.81-4.014a5.169 5.169 0 0 0-.522-1.03z"/>
            <mask id="h" fill="#fff">
                <use xlink:href="#g"/>
            </mask>
            <path fill="#085454" d="M14.268 35.717c-.204-.254-5.31-.133-5.477-.02-.81.554-2.954 3.62-3.174 4.49-.207.82-.152 1.69.399 2.43.53.713 1.476 1.136 2.518 1.287 1.275.185 5.265.111 6.014-.055 1.149-.254 2.21-.865 2.5-1.732.215-.644.257-1.498-.062-2.17-1.016-2.136-2.453-3.9-2.718-4.23" mask="url(#h)"/>
        </g>
        <path fill="#58C4C5" d="M0 70h11v11H0z"/>
        <path fill="#1C2C57" d="M85.242 38c1.247 1.543 2.025 3.101 2.333 4.675.308 1.574.308 3.483 0 5.727l-1.522.83L82 42.35 85.242 38z"/>
        <path fill="#FAB08A" d="M81.02 43.862c-.106-1.383.215-1.996.963-1.838 1.122.238 2.404 1.594 1.907 2.55-.331.637-.727 1.112-1.187 1.426l-1.683-2.138z"/>
        <circle cx="128.5" cy="7.5" r="4.5" fill="#58C4C5"/>
    </g>
</svg>
