<svg xmlns="http://www.w3.org/2000/svg" xmlns:xlink="http://www.w3.org/1999/xlink" width="151" height="101" viewBox="0 0 151 101">
    <defs>
        <circle id="a" cx="19.5" cy="19.5" r="19.5"/>
        <rect id="c" width="44" height="44" rx="6"/>
    </defs>
    <g fill="none" fill-rule="evenodd">
        <path fill="#004966" d="M52 11h45.037L109 21.485V86H52z"/>
        <path fill="#71D8B8" d="M47 11h45.827L105 21.765V88H47z"/>
        <rect width="47" height="4" x="53" y="24" fill="#FFF" rx="2"/>
        <rect width="47" height="12" x="53" y="32" fill="#FFF" rx="2"/>
        <path fill="#077F7F" d="M108 70.355L112.974 67l13.42 19.897a3 3 0 0 1-4.974 3.355L108 70.355z"/>
        <path fill="#0A9494" d="M98.5 74C86.074 74 76 63.926 76 51.5S86.074 29 98.5 29 121 39.074 121 51.5 110.926 74 98.5 74zm0-3c10.77 0 19.5-8.73 19.5-19.5S109.27 32 98.5 32 79 40.73 79 51.5 87.73 71 98.5 71z"/>
        <g transform="translate(79 32)">
            <mask id="b" fill="#fff">
                <use xlink:href="#a"/>
            </mask>
            <use fill="#FFF" opacity=".766" xlink:href="#a"/>
            <path fill="#FFF" d="M10.754-.664l-9.431 31.91L5.113 33 20.186-.664zM21.774-.664L7.738 38l11.86 2.8L27-.663z" mask="url(#b)" opacity=".827"/>
        </g>
        <circle cx="116.5" cy="11.5" r="4.5" fill="#58C4C5"/>
        <path fill="#58C4C5" d="M123 5h10v25z"/>
        <g transform="translate(25 53)">
            <mask id="d" fill="#fff">
                <use xlink:href="#c"/>
            </mask>
            <use fill="#116060" xlink:href="#c"/>
            <g mask="url(#d)">
                <path fill="#FAA48F" d="M10.503 25.962a.732.732 0 0 1 .208-.425c.11-.823 1.187-.8 1.327-.021a.65.65 0 0 1 .759.323.684.684 0 0 1 .115.015c.226-.52 1.166-.474 1.26.137l.014.104a.699.699 0 0 1 .352.056c.367-.25.967-.178 1.038.358l.088.664a.62.62 0 0 1 .497.645c-.018.905.023 8.582.005 9.488-.004.181-2.843-.34-2.954-.31-.745.44-.587 2.791-1.368 2.225-.974-.71-1.567-7.753-1.576-8.802-.014-1.492.027-2.979.235-4.457z"/>
                <path fill="#F7F7F7" d="M15.721 13.12c1.79-1.115 5.599-2.716 7.59-3.399 1.553-.532 2.09 2.344 4.025 3.4.336.183.833.82 1.12.879.162-.096 1.223-4 2.118-3.68 2.888 1.031 5.631 2.518 7.506 5.073 1.18 1.608 2.035 3.335 2.726 5.193a43.682 43.682 0 0 1 1.835 6.45c.213 1.038-1.37 1.481-1.583.44-.032-.154-.067-.308-.1-.462-.12.22-.372.368-.63.405 0 .013.004.027.004.042.105 5.125-1.97 10.234-2.431 15.334-.003.485-.754 3.34-1.612 4.09-.939.82-3.025.854-4.222.859-2.777.013-5.554-.015-8.331-.082-1.288-.03-2.633.025-3.913-.141-1.035-.135-1.706-.822-2.098-1.76-.206-.495-1.494-15.382-1.817-17.181.336 0-1.41-.093-1.502-.098-.978-.063-3.863-.207-4.805-.507-1.493-.475.422-6.619 1.3-8.673.845-1.977 3.042-5.072 4.82-6.181z"/>
                <path fill="#FAA48F" d="M12.168 35.022c.337-.39 3.782.054 3.998.259 1.753 1.657 12.558 5.89 12.598 5.92 1.02.3 2.928.456 4.003.395 1.127-.066 1.918.037 2.734.878.43.443.883.92 1.25 1.414.178.24.367.514.283.829a.572.572 0 0 1-.92.304.411.411 0 0 0-.004.019c-.009.029-.022.052-.036.076.013.469-.486.762-.908.474-.396-.27-.409-.798-.865-1.053-.508-.285-1.12-.254-1.68-.23-.965.042-3.767.59-4.307-.678-.26.018-12.903-1.011-15.35-2.826-2.279-1.687-1.594-4.859-.796-5.781M25.289 9.447c.397.348.879.593 1.435.724l.105.341a.43.43 0 0 1 .072-.3c.535.124.561.718.276 1.061.656.017 1.297-.238 1.558-.92a.686.686 0 0 1 .293-.355c.24-.015.499-.027.713-.026.258.123.425.387.29.739-.619 1.616-2.383 2.287-3.982 1.73a5.042 5.042 0 0 1-2.087-1.4 3.023 3.023 0 0 1-.65-1.22 11.88 11.88 0 0 1 1.977-.374"/>
                <path fill="#CFCFCF" d="M30.688 10L22.97 9l5.486 3.766z"/>
                <path fill="#FAA48F" d="M26.921 12.601l.36.026a2.758 2.758 0 0 0 2.942-2.561l.465-5.78-5.848-.424-.465 5.78a2.762 2.762 0 0 0 2.546 2.959"/>
                <path fill="#FFF" d="M30.614 10l-1.682 1.79-.476 1.791.881-1.221 2.424-1.615zM28.456 13.727l-.903-1.796L22.99 9l-1.503 1.67 4.893 2.458.809-.494z"/>
                <path fill="#0A9494" d="M28.852 12h-1.348c-.483.505-.748.836-.795.993-.077.259.296.353.396.448.287.273 1.452.19 1.747 0 .197-.126.197-.607 0-1.441z"/>
                <path fill="#0A9494" d="M28.712 13.352L30.688 23l-1.54 10-1.641.086-2.561-9.68 2.56-9.825z"/>
                <path fill="#12141C" d="M27.197 41.57h16.368v2.264h-18.62a2.257 2.257 0 0 1 2.252-2.264"/>
            </g>
        </g>
        <path fill="#1C2C57" d="M58.25 49.353a.866.866 0 0 1 .528-.742l-.036-.023c-.926-.51-.171-1.978.759-1.466 1.13.624 1.231 1.707 1.418 2.86.185 1.135-.91 2.757-.945 3.939-.03 1.046-1.728.478-1.924-.512a.88.88 0 0 1-.365-.442c-.382-.957-.857-2.844.253-3.501a.88.88 0 0 1 .311-.113z"/>
        <path fill="#1C2C57" d="M46.651 48.565c.968-1.865 3.157-2.665 5.148-2.603 1.123.037 2.238.322 3.315.625 1.032.289 2.021.7 2.535 1.714.83 1.636-1.674 2.977-2.504 1.34-.148-.291-1.116-.402-1.42-.48-.76-.201-1.519-.362-2.309-.352l-.128.005c.391.563.464 1.307.067 1.944-.173.275-.477.429-.66.669a.86.86 0 0 0-.154.396c-.034 1.087.552 2.382 1.07 3.055.46.599.514 1.431-.053 1.988.045.1.092.2.139.3.612 1.278-.78 2.628-2.015 1.87-1.668-1.02-2.766-2.664-3.331-4.52-.566-1.86-.61-4.199.3-5.951"/>
        <path fill="#FAA48F" d="M53.747 47.22c-2.265.039-4.94-.487-5.311 6.343-.037.682.401 1.798.402 2.627.002 1.37.59 2.487 1.372 3.36 1.729 1.93 5.562 3.72 7.482 1.093.93-1.274 1.107-2.625 1.307-4.14.216-1.634.424-3.293.463-4.944.033-1.343-.513-2.532-1.589-3.434-1.112-.934-2.78-.926-4.126-.904z"/>
        <path fill="#1C2C57" d="M47.797 52.888c.057-.27.129-.533.213-.79a.302.302 0 0 1-.129-.307c.109-.834.527-1.686 1.036-2.428a1.049 1.049 0 0 1-.586-.444c-.318-.512-.1-1.096.301-1.475.915-.863 2.192-.792 3.28-1.232.547-.22.831-.78 1.42-.967a2.999 2.999 0 0 1 1.673-.06c.642.17 1.176.51 1.812.615.604.1 1.1.182 1.652.477 1.009.54 2.037 1.396 1.93 2.666a1.44 1.44 0 0 1-.411.892.815.815 0 0 1-.576.428c-.059.012-.657-.128-.705-.143-1.436-.42-3.342 1.913-4.019 1.977-1.277.122-3.533.636-3.964.697-.39.055-.635-.25-.995-.266a1.022 1.022 0 0 0-.454.083c-.155.127-.568.238-.662 1.413-.019.255.038.485.13.705.037.086.08.174.125.264.07.13.147.26.221.39.906 1.488-.421 2.932-.487 2.839-.416-.603-.465-1.645-.489-2.355-.008-.243.223-.354.408-.283l-.101-.192a4.08 4.08 0 0 1-.207-.448c-.135.012-.282-.056-.32-.198-.14-.533-.172-1.066-.024-1.599a.28.28 0 0 1-.072-.259z"/>
        <path fill="#12141C" d="M81.875 78.31c-.038-.687-.025-1.473-.477-2.039-.469-.586-1.206-.73-1.911-.808-1.887-.208-21.846-.287-22.189-.327-.908-.11-1.822.478-2.196 1.262-.46.967-.305 2.221-.332 3.264-.067 2.575-.148 5.148-.148 7.724 0 2.574.079 4.473.357 7.033.104.952.302 1.857 1.303 2.205 1.04.362 18.49.174 20.761.111 1.301-.035 3.311.245 4.108-1.144.384-.667.342-1.531.392-2.273.067-.981.134-1.964.199-2.946.133-2.008.12-4.019.181-6.03a70.52 70.52 0 0 0-.048-6.032"/>
        <path fill="#1B1D29" d="M81.839 78.442l-.007-.125c-.037-.688-.024-1.475-.476-2.039-.469-.588-1.206-.732-1.911-.809-1.888-.207-21.847-.287-22.19-.328-.907-.108-1.821.478-2.195 1.263-.46.967-.305 2.222-.332 3.265-.067 2.573-.148 5.148-.148 7.723 0 2.573.079 4.472.358 7.033.103.953.301 1.856 1.302 2.206.349.12 2.548.18 5.401.203a129.83 129.83 0 0 0 2.103-2.81c.364-.498.727-.997 1.094-1.495.183-.248.368-.495.553-.741l.051-.067.016-.02c.763-.961 1.55-1.903 2.41-2.779.43-.435.874-.855 1.338-1.255.086-.073.176-.16.27-.248.03-.02.072-.052.132-.095.151-.11.3-.223.452-.332a50.137 50.137 0 0 1 3.008-1.976c2.53-1.563 5.062-3.1 7.313-5.065.52-.455 1.012-.962 1.458-1.509"/>
        <path fill="#58C4C5" d="M20 49h11v11H20z"/>
    </g>
</svg>
