<svg xmlns="http://www.w3.org/2000/svg" xmlns:xlink="http://www.w3.org/1999/xlink" width="999" height="323" viewBox="0 0 999 323">
    <defs>
        <path id="a" d="M0 0h999v361H0z"/>
        <path id="c" d="M.672.656H108.69v139.342H.67z"/>
        <rect id="e" width="14" height="6" rx="3"/>
        <rect id="g" width="14.383" height="6.17" rx="3.085"/>
        <rect id="i" width="14" height="6" rx="3"/>
        <rect id="k" width="14.383" height="6.17" rx="3.085"/>
        <rect id="m" width="14" height="6" rx="3"/>
        <rect id="o" width="14.383" height="6.17" rx="3.085"/>
        <path id="q" d="M.162.12h38.586V38H.16z"/>
        <path id="s" d="M0 .058h26.828v7.909H0z"/>
        <path id="u" d="M.325.916h11.342V4.29H.325z"/>
        <path id="w" d="M0 .089h17.846V13H0z"/>
    </defs>
    <g fill="none" fill-rule="evenodd">
        <g transform="translate(0 -39)">
            <mask id="b" fill="#fff">
                <use xlink:href="#a"/>
            </mask>
            <path fill="#005960" fill-opacity=".3" d="M609.554 187.974c-7.659-.785-15.43-1.189-23.296-1.189-58.154 0-111.174 21.988-151.24 58.106-23.934-48.532-73.556-82.08-131.087-82.838-34.257-53.031-93.832-88.132-161.6-88.132C36.112 73.92-50 160.15-50 266.518c0 106.368 86.11 192.597 192.332 192.597 30.642 0 59.603-7.188 85.313-19.952 21.848 12.685 47.225 19.952 74.297 19.952 21.574 0 42.07-4.617 60.565-12.91 15.94 109.442 110.037 193.493 223.751 193.493 97.455 0 180.51-61.733 212.302-148.277 7.659.785 15.43 1.19 23.296 1.19C946.752 492.61 1048 391.222 1048 266.153c0-125.069-101.248-226.456-226.144-226.456-97.456 0-180.51 61.732-212.302 148.276z" mask="url(#b)" opacity=".172"/>
        </g>
        <g transform="translate(651 106)">
            <mask id="d" fill="#fff">
                <use xlink:href="#c"/>
            </mask>
            <path fill="#D9D9D9" d="M.672 137.633V3.036a2.393 2.393 0 0 1 2.39-2.38h103.239c1.306 0 2.39 1.075 2.39 2.38v134.597c0 1.31-1.084 2.365-2.39 2.365H3.063c-1.318 0-2.391-1.056-2.391-2.365" mask="url(#d)"/>
        </g>
        <path fill="#F2F2F2" d="M658 239h95V111.25h-95z"/>
        <path fill="#BEBFC3" d="M668.556 135.025h19.351v-2.05h-19.351zM668.556 140.288h19.351v-2.076h-19.351zM668.556 157.775h73.888v-2.05h-73.888zM668.556 164.78h73.888v-2.06h-73.888zM668.556 171.782h14.074v-2.065h-14.074zM668.556 177.03h73.888v-2.06h-73.888zM668.556 184.025h73.888v-2.05h-73.888zM670.315 191.02h52.778v-2.04h-52.778zM668.556 198.03h73.888v-2.06h-73.888zM668.556 205.03h73.888v-2.06h-73.888zM668.556 210.28h73.888v-2.06h-73.888zM668.556 217.282h28.148v-2.065h-28.148zM668.556 150.78h73.888v-2.06h-73.888z"/>
        <path fill="#9FBECC" d="M682.63 113h47.5v-8h-47.5z"/>
        <path fill="#118C8C" d="M731.889 142.75h3.518V130.5h-3.518z"/>
        <path fill="#118C8C" d="M728.37 137.5h12.315V134H728.37zM719.7 217.516c-.191.204-.615.812-1.254 2.581a258.042 258.042 0 0 1-1.147 3.13c1.595-1.212 3.15-3.274 2.604-5.18a2.646 2.646 0 0 0-.203-.531m-5.986 11.835c-.933.746-1.594 1.703-1.625 2.374-.008.274.057.616.684.846.027-.082.153-.683.23-1.039.088-.382.172-.771.286-1.087.146-.363.28-.727.425-1.094m-.933 4.399c-.13 0-.275-.022-.432-.078-.97-.352-1.506-1.083-1.472-1.999.07-1.465 1.675-3.286 3.517-4.132.252-.656.497-1.313.742-1.97-1.682.435-3.65.453-5.428.012-1.12-.275-7.168-.048-10.41.074-1.334.048-2.34.044-2.798.089v-1.183c.44-.019 1.445-.034 2.749-.085 4.988-.19 9.56-.334 10.76-.034 1.904.475 4.037.356 5.654-.278.555-1.484 1.101-2.97 1.64-4.458.899-2.482 1.575-3.494 2.47-3.457.879.026 1.196 1.116 1.292 1.476.906 3.108-2.068 6.042-4.152 7.162-.091.052-.187.1-.283.145-.244.66-.496 1.317-.741 1.97.363-.127.764-.242 1.284-.197.692.063 1.105.523 1.376.823.077.074.173.182.21.208 1.71.119 8.583-.542 10.773-1.28l.394 1.113c-2.343.79-9.438 1.469-11.38 1.31-.417-.034-.688-.335-.906-.572-.23-.256-.383-.412-.581-.43-.333-.03-.59.067-.922.193-.175.066-.348.13-.539.181a4.677 4.677 0 0 0-.244.075c-.306.812-.62 1.62-.925 2.425-.1.267-.169.594-.234.924-.172.79-.336 1.543-.917 1.85a1.023 1.023 0 0 1-.497.123"/>
        <g>
            <path fill="#CCC" d="M748 266h-10.995v-26.779c0-4.818-4.113-8.736-9.17-8.736H703.16c-5.036 0-9.165 3.918-9.165 8.736V266H683v-26.779C683 228.62 692.053 220 703.16 220h24.675c11.117 0 20.165 8.62 20.165 19.221V266z"/>
            <path fill="#DD705A" d="M765.162 322h-99.324c-8.205 0-14.838-6.242-14.838-13.93v-49.134c0-7.704 6.633-13.936 14.838-13.936h99.324c8.195 0 14.838 6.232 14.838 13.936v49.133c0 7.69-6.643 13.931-14.838 13.931"/>
            <path fill="#C9614B" d="M662.468 307.136V261.67c0-4.433 2.067-8.342 5.232-10.67-6.483.155-11.7 5.514-11.7 12.11v42.764c0 6.701 5.36 12.126 11.966 12.126H668c-3.332-2.298-5.532-6.292-5.532-10.864"/>
            <path fill="#FFF" d="M707 304h20v-39h-20z"/>
            <path fill="#FFF" d="M695 293h44v-19h-44z"/>
        </g>
        <g>
            <path fill="#DD705A" d="M703 40.787C703 60.344 667.493 81 667.493 81S632 60.568 632 40.787C632 29.867 640.883 21 651.83 21a19.77 19.77 0 0 1 15.663 7.66c3.306-4.225 8.282-7.086 13.918-7.586a24.101 24.101 0 0 1 1.748-.074c10.736 0 19.48 8.505 19.825 19.123.016.226.016.437.016.664"/>
            <path fill="#C9614B" d="M650.639 29.25c7.06 0 13.344 1.755 17.362 6.75 4.022-4.995 10.305-6.75 17.363-6.75 4.71 0 9.062 1.441 12.636 3.874-3.279-4.885-8.969-8.124-15.446-8.124-5.922 0-11.18 2.7-14.553 6.886C664.63 27.699 659.373 25 653.454 25c-6.48 0-12.173 3.239-15.454 8.124a22.406 22.406 0 0 1 12.639-3.873"/>
            <path fill="#FFC62B" d="M659.614 66h-.01a1.311 1.311 0 0 1-1.273-1.033L652.9 38.62l-4.972 16.495c-.166.548-.677.919-1.254.919H629V53.45h16.694l6.193-20.53a1.306 1.306 0 0 1 1.318-.919 1.316 1.316 0 0 1 1.228 1.031l5.255 25.544 3.908-16.87a1.303 1.303 0 0 1 1.265-1.004h.013c.603 0 1.125.402 1.27.976l2.989 11.772H706v2.584h-37.89c-.6 0-1.125-.4-1.27-.974l-1.905-7.514-4.043 17.448A1.307 1.307 0 0 1 659.614 66"/>
        </g>
        <g>
            <g transform="translate(733.82 239)">
                <mask id="f" fill="#fff">
                    <use xlink:href="#e"/>
                </mask>
                <use fill="#4B8BBB" xlink:href="#e"/>
                <path fill="#CA5EFF" d="M0-1.125h7.189v8.25H0z" mask="url(#f)"/>
            </g>
            <path fill="#387CAE" d="M747.6 243.774c.592-.528.664-2.824-.022-3.355-.686-.531-1.541-1.589-2.205-1.239.784.507 2.305 2.784 2.228 4.594z"/>
            <g transform="rotate(-139 423.156 -17.607)">
                <mask id="h" fill="#fff">
                    <use xlink:href="#g"/>
                </mask>
                <use fill="#4B8BBB" xlink:href="#g"/>
                <path fill="#CA5EFF" d="M0-1.157h7.386v8.483H0z" mask="url(#h)"/>
            </g>
            <g transform="translate(679.82 239)">
                <mask id="j" fill="#fff">
                    <use xlink:href="#i"/>
                </mask>
                <use fill="#4B8BBB" xlink:href="#i"/>
                <path fill="#CA5EFF" d="M0-1.125h7.189v8.25H0z" mask="url(#j)"/>
            </g>
            <path fill="#387CAE" d="M693.6 243.774c.592-.528.664-2.824-.022-3.355-.686-.531-1.541-1.589-2.205-1.239.784.507 2.305 2.784 2.228 4.594z"/>
            <g transform="rotate(176 355.593 134.042)">
                <mask id="l" fill="#fff">
                    <use xlink:href="#k"/>
                </mask>
                <use fill="#4B8BBB" xlink:href="#k"/>
                <path fill="#CA5EFF" d="M0-1.157h7.386v8.483H0z" mask="url(#l)"/>
            </g>
            <g>
                <g transform="rotate(-142 384.933 -2.405)">
                    <mask id="n" fill="#fff">
                        <use xlink:href="#m"/>
                    </mask>
                    <use fill="#4B8BBB" xlink:href="#m"/>
                    <path fill="#CA5EFF" d="M0-1.125h7.189v8.25H0z" mask="url(#n)"/>
                </g>
                <g transform="rotate(41 38.575 1024.741)">
                    <mask id="p" fill="#fff">
                        <use xlink:href="#o"/>
                    </mask>
                    <use fill="#4B8BBB" xlink:href="#o"/>
                    <path fill="#CA5EFF" d="M0-1.157h7.386v8.483H0z" mask="url(#p)"/>
                </g>
            </g>
            <g transform="rotate(87 247.95 488.52)">
                <path fill="#FFC62B" fill-opacity=".6" d="M2 5h26v40H2z"/>
                <path fill="#FFF" d="M2 15h26v20H2z"/>
                <path fill="#FFC62B" d="M0 0h30v5H0z"/>
                <circle cx="7" cy="20" r="2" fill="#4B8BBB"/>
            </g>
        </g>
        <g transform="translate(261 76)">
            <path fill="#D8D8D8" d="M65 4h6v127h-6zM3 8a3 3 0 0 1 3 3v13H3a3 3 0 0 1-3-3V11a3 3 0 0 1 3-3z"/>
            <path fill="#D8D8D8" d="M68.5 18v6h-66v-6z"/>
            <circle cx="68" cy="4" r="4" fill="#D0D0D0"/>
        </g>
        <g transform="translate(261 89)">
            <path fill="#E9E9E9" d="M0 20.574C8.705 17.524 17.557 16 26.557 16S44.705 17.525 54 20.574v68.301C45 91.625 36 93 27 93S9 91.625 0 88.875V20.574z"/>
            <g fill="#CCC">
                <path d="M28.563 14.4h-2.625V3.9h2.625z"/>
                <path d="M32.5 3.478v.96h-2.199c0-1.01-1.738-.88-1.712.13h-2.651v-1.09c0-3.387 6.562-3.415 6.562 0z"/>
            </g>
            <ellipse cx="27" cy="93" fill="#E9E9E9" rx="3" ry="2"/>
            <ellipse cx="27" cy="16" fill="#E9E9E9" rx="3" ry="2"/>
            <path fill="#C9614B" fill-opacity=".86" d="M5 54.162c11.272-1.55 20.39-1.55 27.353 0 6.963 1.548 12.846 1.548 17.647 0v28.427C42.5 84.863 35 86 27.5 86s-15-1.137-22.5-3.411V54.162z"/>
            <rect width="11" height="1" x="9" y="78" fill="#FFF" rx=".5"/>
            <rect width="11" height="1" x="9" y="46" fill="#D8D8D8" rx=".5"/>
            <rect width="9" height="1" x="9" y="73" fill="#FFF" rx=".5"/>
            <rect width="9" height="1" x="9" y="41" fill="#D8D8D8" rx=".5"/>
            <rect width="9" height="1" x="9" y="67" fill="#FFF" rx=".5"/>
            <rect width="9" height="1" x="9" y="35" fill="#D8D8D8" rx=".5"/>
            <rect width="11" height="1" x="9" y="62" fill="#FFF" rx=".5"/>
            <rect width="11" height="1" x="9" y="30" fill="#D8D8D8" rx=".5"/>
        </g>
        <g>
            <path fill="#C6C6C6" d="M236.429 234H238v-4.673h-1.571c-3.667 0-6.736-2.684-7.135-6.244l-8.975-74.006c-.762-6.276-6.214-11.023-12.683-11.045l-9.618-.032-.018 4.673 9.619.032c4.055.015 7.47 2.989 7.946 6.918l8.973 73.99c.663 5.916 5.778 10.387 11.89 10.387"/>
            <path fill="#C6C6C6" d="M312.292 301H317v-72h-82v34.39h4.708v-29.71h72.584z"/>
            <path fill="#FEC757" d="M234.37 157.167l6.604 57.841a6.14 6.14 0 0 0 6.1 5.443h60.478c5.772 0 10.448 4.674 10.448 10.444V231h-79.329a9.099 9.099 0 0 1-9.038-8.041L221 149.462l3.053-.387c5.097-.648 9.736 2.992 10.318 8.092"/>
            <path fill="#C6C6C6" d="M307 300.999c0 9.942 8.058 18.001 18 18.001 9.94 0 18-8.059 18-18.001 0-9.943-8.06-17.999-18-17.999-9.942 0-18 8.056-18 17.999"/>
            <g transform="translate(305 282)">
                <mask id="r" fill="#fff">
                    <use xlink:href="#q"/>
                </mask>
                <path fill="#323031" d="M19.454.12C8.799.12.161 8.6.161 19.06.162 29.519 8.8 38 19.454 38c10.657 0 19.295-8.481 19.295-18.941C38.749 8.599 30.111.12 19.454.12m0 5.316c7.652 0 13.877 6.11 13.877 13.623 0 7.512-6.225 13.626-13.877 13.626-7.652 0-13.878-6.114-13.878-13.626S11.802 5.436 19.454 5.436" mask="url(#r)"/>
            </g>
            <path fill="#706F6F" d="M321.472 296.604c-4.485 6.423 2.17 13.68 8.057 8.793 4.483-6.423-2.17-13.683-8.057-8.793"/>
            <path fill="#C6C6C6" d="M256.717 212l3.283 1.266L221.286 314 218 312.734z"/>
            <path fill="#C6C6C6" d="M215 214.429l3.215-1.429L262 311.571 258.785 313z"/>
            <path fill="#C6C6C6" d="M187 244.283l1.266-3.283L289 279.717 287.737 283z"/>
            <path fill="#C6C6C6" d="M189.443 285L188 281.785 287.557 238l1.443 3.215z"/>
            <path fill="#C6C6C6" d="M218.702 217.05c-24.569 11.012-35.675 40.136-24.759 64.924 10.917 24.784 39.785 35.988 64.354 24.975 24.567-11.012 35.676-40.136 24.76-64.922-10.917-24.786-39.788-35.99-64.355-24.978m-3.145-7.14c28.471-12.763 61.927.224 74.576 28.945 12.653 28.723-.221 62.474-28.69 75.237-28.472 12.762-61.927-.223-74.577-28.946-12.65-28.723.22-62.474 28.69-75.235"/>
            <path fill="#323031" d="M189.829 243.084c10.432-27.112 40.972-40.683 68.093-30.249 27.112 10.42 40.684 40.97 30.25 68.081-10.433 27.112-40.973 40.683-68.094 30.249-27.112-10.422-40.684-40.972-30.25-68.081m28.353 73.031c29.887 11.504 63.434-3.408 74.938-33.293 11.494-29.896-3.406-63.446-33.3-74.937a56.748 56.748 0 0 0-7.383-2.29 56.152 56.152 0 0 0-8.149-1.352c-25.183-2.324-49.872 12.158-59.406 36.935-11.494 29.896 3.406 63.44 33.3 74.937"/>
            <path fill="#C6C6C6" d="M233.02 249.166c-6.813 3.027-9.88 11.003-6.854 17.815 3.027 6.812 11.003 9.88 17.815 6.851 6.812-3.024 9.88-11 6.853-17.813-3.027-6.81-11.003-9.88-17.815-6.853"/>
            <path fill="#706F6F" d="M236.187 256.345c-6.297 4.218-2.477 13.562 4.626 11.31 6.297-4.217 2.477-13.56-4.626-11.31"/>
            <g transform="translate(178 137)">
                <mask id="t" fill="#fff">
                    <use xlink:href="#s"/>
                </mask>
                <path fill="#FEC757" d="M2.791 7.966h21.247c1.541 0 2.79-1.272 2.79-2.842V2.902c0-1.57-1.249-2.845-2.79-2.845H2.79C1.25.057.001 1.33.001 2.9v2.223c0 1.57 1.249 2.843 2.79 2.843" mask="url(#t)"/>
            </g>
        </g>
        <g>
            <path fill="#F2B7A0" d="M673.554 211.41c-.156-1.106-.626-1.98-1.272-2.63-.669-5.087-7.233-4.95-8.085-.127-1.785-.525-3.686.236-4.628 1.999a4.113 4.113 0 0 0-.7.091c-1.383-3.22-7.112-2.934-7.68.852-.036.22-.06.431-.093.642-.743-.066-1.488.043-2.142.347-2.24-1.552-5.893-1.106-6.33 2.217l-.537 4.108c-1.66.396-3.067 1.737-3.025 3.99.107 5.6-.142 53.103-.035 58.713.025 1.12 17.336-2.108 18.012-1.923 4.538 2.724 3.578 17.274 8.337 13.77 5.938-4.388 9.553-47.971 9.61-54.466.082-9.23-.164-18.433-1.432-27.583z"/>
            <path fill="#D6F2FF" d="M637.352 125c-22.659-6-30.191-8.406-42.338-12.6-9.47-3.268-12.747 14.4-24.546 20.883-2.049 1.126-5.082 5.035-6.83 5.403-.987-.59-7.461-24.578-12.921-22.613-17.616 6.343-36.66 8.234-48.094 23.927-7.199 9.882-10.095 27.733-14.31 39.146-4.754 12.893-8.454 26.149-11.194 39.628-1.295 6.373 8.358 9.094 9.658 2.697.194-.947.408-1.893.612-2.84.723 1.357 2.265 2.263 3.841 2.49-.007.083-.027.166-.03.257-.638 31.484 13.643 68.292 16.453 99.622 7.593-1 128.366.076 141.674.538 13.309.462-11.13-82.232-9.162-93.284-2.05 0 8.6-.57 9.162-.605 5.963-.382 23.56-1.269 29.307-3.114 9.108-2.913-2.571-40.658-7.93-53.28-5.15-12.14-10.694-40.255-33.352-46.255z"/>
            <path fill="#F2B7A0" d="M637.89 269.52c-10.73 10.096-76.883 35.868-77.13 36.058-6.243 1.829-17.925 2.772-24.51 2.4-6.899-.399-11.744.225-16.739 5.347-2.628 2.698 36.146 7.675 44.002 7.038 1.59.107 79.003-6.16 93.987-17.209 13.948-10.275 9.755-29.59 4.872-35.211-2.066-2.374-23.159.334-24.482 1.577z"/>
            <path fill="#FAA48F" d="M582.021 111c-2.408 2.072-5.325 3.533-8.696 4.315-.21.674-.428 1.356-.638 2.033.074-.75-.106-1.334-.434-1.791-3.243.74-3.401 4.283-1.675 6.33-3.972.098-7.852-1.421-9.437-5.492-.383-.982-1.02-1.674-1.774-2.111-1.452-.09-3.02-.164-4.322-.157-1.559.733-2.571 2.31-1.756 4.406 3.752 9.636 14.436 13.634 24.128 10.32 4.767-1.634 9.287-4.608 12.639-8.353 2.003-2.243 3.213-4.672 3.944-7.274-3.944-1.041-7.96-1.862-11.979-2.226"/>
            <path fill="#CFCFCF" d="M549 114.107L597 108l-34.117 23z"/>
            <path fill="#F6C2AD" d="M570.027 129.956c-9.353.673-17.483-6.386-18.157-15.766L549 78.61 585.085 76 594 113.226c.68 9.38-12.404 15.892-21.76 16.57l-2.213.16z"/>
            <path fill="#0A9494" d="M560.897 126h8.206c2.936 3.126 4.547 5.175 4.833 6.147.471 1.6-1.801 2.183-2.41 2.772-1.745 1.688-8.834 1.172-10.629 0-1.196-.782-1.196-3.755 0-8.919z"/>
            <path fill="#ECF9FF" d="M549.287 114l14.261 12c-.941.996-1.709 2.182-2.301 3.558-.593 1.375-1.008 2.935-1.247 4.679l-16.249-15.172a1 1 0 0 1 .14-1.57l5.396-3.495zM568.443 125.98L597 108l5.242 6.053a1 1 0 0 1-.201 1.487L574 134.237c-.604-2.198-1.299-3.83-2.084-4.892-.786-1.063-1.944-2.185-3.473-3.365z"/>
            <path fill="#0A9494" d="M562.042 135L550 275.757l8.718 24.411a3 3 0 0 0 2.667 1.987l6.265.33a3 3 0 0 0 2.683-1.376L585 278.25l-15.609-141.842-7.349-1.408z"/>
            <path fill="#232323" d="M570.337 307H471v14h113c0-7.738-6.114-14-13.663-14"/>
            <g>
                <path fill="#1C2C57" d="M532.765 30.404c-.208-2.296-1.598-3.857-3.295-4.57.08-.05.148-.1.227-.143 5.766-3.142 1.067-12.19-4.73-9.032-7.04 3.841-8.836 9.032-8.836 17.627 0 8.595 5.258 21.814 8.835 23.89 2.508 1.454 7.817 3.324 9.042-2.776.957-.563 1.768-1.47 2.27-2.72 2.386-5.897 5.346-17.53-1.572-21.58a5.523 5.523 0 0 0-1.94-.696z"/>
                <path fill="#1C2C57" d="M573.5 10.02c-6.999.225-13.95 1.963-20.663 3.805-6.434 1.76-12.6 4.27-15.801 10.443-5.171 9.967 10.437 18.136 15.608 8.164.922-1.777 6.955-2.449 8.853-2.93 4.74-1.222 9.464-2.203 14.389-2.143.269.01.53.023.798.033-2.437 3.428-2.895 7.964-.415 11.841 1.078 1.675 2.974 2.614 4.11 4.074.559.724.823 1.553.96 2.417.216 6.621-3.438 14.508-6.663 18.607-2.872 3.648-3.212 8.718.325 12.108-.282.615-.574 1.219-.866 1.825-3.815 7.79 4.856 16.016 12.56 11.402 10.397-6.219 17.243-16.232 20.765-27.54 3.525-11.329 1.252-22.827-4.427-33.503-5.68-10.675-17.122-18.982-29.534-18.602z"/>
                <path fill="#FAC9B6" d="M561.764 18.036c14.165.233 30.899-2.979 33.222 38.704.23 4.16-2.51 10.97-2.517 16.03-.008 8.366-3.69 15.179-8.582 20.511-10.814 11.778-30.325 19.006-42.333 2.969-.535-.715-1.08-1.42-1.63-2.114-5.415-6.852-11.147-12.81-10.31-20.104.924-8.032-5.602-13.515-5.594-21.338.009-7.455 5.197-23.638 11.928-29.143 6.96-5.698 17.392-5.65 25.816-5.515z"/>
                <path fill="#E8A2A2" d="M546.834 67.575c.21-1.327 2.23-.763 2.023.552-.33 2.123-.466 4.243-.354 6.39.13 2.516.815 7.22 4.593 4.383 1.082-.812 2.133 1.009 1.062 1.81-2.14 1.608-5.95 1.45-7.083-1.291-1.417-3.43-.803-8.304-.24-11.844"/>
                <path fill="#E78686" d="M546.483 89.398c6.222.32 12.11-.909 17.711-3.618.672-.323 1.36-.2 1.678.284.202.308.115.997-.104 1.47-.039.077-.097.153-.138.23-1.805 3.46-5.86 6.394-9.61 6.983-3.792.599-7.881-.939-10.47-3.646-.678-.708.09-1.748.933-1.703"/>
                <path fill="#FFF" d="M554.977 92.058c-3.215.505-6.628-.532-9.174-2.501.176-.1.377-.154.583-.144 6.22.321 12.107-.91 17.71-3.618-1.883 3.114-5.621 5.713-9.12 6.263"/>
                <path fill="#633941" d="M561.726 67.76a2.124 2.124 0 0 0 1.705-2.463l-.18-.989a2.125 2.125 0 0 0-2.47-1.696 2.121 2.121 0 0 0-1.706 2.462l.182.99a2.124 2.124 0 0 0 2.469 1.697M556.61 53.913c1.35-1.164 3.422-1.555 5.165-1.745 1.796-.195 4.315-.377 5.571 1.123.287.343.198 1.024-.205 1.25-1.413.794-3.108.336-4.685.486-1.745.166-3.327.94-5.047 1.076-1.118.088-1.57-1.525-.799-2.19M537.682 71.297a2.125 2.125 0 0 1-2.365-1.84l-.12-.996a2.123 2.123 0 0 1 4.214-.517l.121.996a2.123 2.123 0 0 1-1.85 2.357"/>
                <g transform="scale(-1 1) rotate(9 -611.729 -3402.612)">
                    <mask id="v" fill="#fff">
                        <use xlink:href="#u"/>
                    </mask>
                    <path fill="#633941" d="M.853 1.905C2.358.95 4.465.867 6.217.934c1.806.067 4.326.251 5.35 1.919.233.382.044 1.043-.388 1.208-1.511.58-3.122-.12-4.703-.201-1.75-.088-3.43.445-5.15.33C.205 4.113-.005 2.451.854 1.904" mask="url(#v)"/>
                </g>
                <path fill="#1C2C57" d="M596.326 45.802c-.67-5.08-2.955-24.547-8.605-29.802-5.65-5.255-21.41-8.938-25.042-10.074-3.139-.991-6.79-1.298-10.33-.367-3.966 1.039-7.258 3.113-11.19 3.752-3.726.607-6.787 1.106-10.197 2.906-6.224 3.29-12.574 8.503-11.915 16.24a8.719 8.719 0 0 0 2.54 5.432c.672 1.27 1.807 2.224 3.556 2.606.362.075 21.42 8.099 29.161 11.174 8.375 3.327 20.982 1.715 24.158 9.772 1.038-4.391 4.233-7.056 6.455-7.148a6.385 6.385 0 0 1 2.804.507c.956.774 3.506 1.445 4.084 8.602.119 1.553-.234 2.954-.795 4.3-.234.524-.503 1.055-.778 1.602-.435.796-.906 1.588-1.364 2.384-5.594 9.057 2.603 17.857 3.005 17.286 2.57-3.67 5.44-27.664 4.528-30.911.029-4.927.004-7.68-.075-8.261z"/>
            </g>
        </g>
        <g>
            <path stroke="#979797" d="M432.573 114.834c1.762-4.69 4.056-5.896 6.88-3.618 4.236 3.417 3.487 13.514 1.724 15.845-1.175 1.554-3.334 1.107-6.476-1.342"/>
            <path fill="#1C2C57" d="M433.22 123.914l-44.058-28.187-22.276-19.355c8.306-8.123 19.335-12.146 33.088-12.07 20.629.116 39.374 22.212 44.337 44.542 3.309 14.886 7.078 38.329 11.309 70.326-19.185 10.61-30.138 12.558-32.86 5.845-2.72-6.713.766-27.08 10.46-61.101z"/>
            <path fill="#FFAA5E" d="M377.51 167.836c62.951-5.753 95.773-2.753 98.465 9 13.01 56.813 6.29 91.864 6.29 135.164L327 309.816l34.694-138.065 15.815-3.915z"/>
            <path fill="#FFAA5E" d="M363 172l-29.63 13.667c-15.556 84.355-21.742 128.725-18.559 133.11 2.103 2.897 12.27 3.223 16.1 3.223 12.526 0 18.468-1.802 17.824-5.405l8.063-33.896 6.202-40.46"/>
            <path fill="#F6C2AD" d="M382.05 172.42c7.72-7.836 54.974-9.255 60.699 0 5.725 9.257-8.813 31.58-31.111 31.58-22.298 0-37.309-23.743-29.588-31.58z"/>
            <path fill="#F9BBA2" d="M426 165.247v23.881c-3.527 3.248-8.86 4.872-16 4.872-7.14 0-12.473-1.624-16-4.872V159l32 6.247z"/>
            <path fill="#FAC9B6" d="M418.77 172.998c10.955-2.71 21.287-26.044 16.873-49.54-4.414-23.495-21.189-39.897-37.467-36.635-16.277 3.263-25.894 24.954-21.48 48.45 4.414 23.495 31.12 40.436 42.075 37.725z"/>
            <path fill="#E8A2A2" d="M416.501 137.499c-.962-.955-2.191.596-1.24 1.547a33.012 33.012 0 0 1 4.112 4.959c1.411 2.102 3.7 6.268-.935 6.038-1.328-.068-1.052 1.972.26 2.038 2.63.13 5.492-2.07 4.726-4.898-.958-3.537-4.36-7.137-6.923-9.684"/>
            <g transform="rotate(-50 374.985 -354.861)">
                <mask id="x" fill="#fff">
                    <use xlink:href="#w"/>
                </mask>
                <path fill="#FFF" d="M17.027 9.431C11.285 7.884 6.275 4.903 1.937.548 1.417.028.755-.057.333.327.065.572-.05 1.278.021 1.809c.012.089.046.182.06.27.676 3.96 3.542 8.074 6.786 9.779 3.284 1.727 7.426 1.434 10.534-.464.814-.498.404-1.753-.374-1.963" mask="url(#x)"/>
            </g>
            <path fill="#633941" d="M403 147.053c-1.14.358-2.313-.275-2.607-1.408l-.253-.978c-.294-1.133.398-2.354 1.538-2.713 1.138-.357 2.313.274 2.606 1.409l.254.977c.294 1.133-.397 2.354-1.537 2.713M404.707 135.237c-1.574-.298-3.458.377-4.986 1.056-1.58.7-3.757 1.755-4.236 3.569-.11.415.227.924.652.915 1.485-.033 2.727-1.212 4.105-1.844 1.522-.7 3.143-.83 4.633-1.541.971-.464.733-1.985-.168-2.155M427.39 134.76c1.14-.36 1.832-1.58 1.538-2.713l-.254-.977c-.293-1.135-1.468-1.766-2.606-1.41-1.14.36-1.831 1.58-1.538 2.714l.253.978c.294 1.133 1.468 1.766 2.608 1.407M421.165 127.787c1.042-1.421 2.868-2.331 4.424-2.97 1.609-.661 3.874-1.503 5.265-.477.317.234.346.877.017 1.191-1.16 1.1-2.778 1.14-4.194 1.699-1.561.618-2.88 1.747-4.424 2.332-1.007.38-1.682-.964-1.088-1.775"/>
            <path fill="#1C2C57" d="M391.676 64.087c16.492 6.982 27.287 11.826 32.385 14.533 8.493 4.51 12.258 38.64 9.122 42.46-11.16-26.26-13.126-20.617-13.126-23.08-4.79 20.017-25.749 19.353-28.381 33-2.632 13.647-2.632 18.291 2.324 30.584 4.956 12.293 14.688 25.359 7.449 47.199-7.24 21.84.175 24.86-15.72 37.963-15.894 13.103-46.444 2.636-57.473-7.628-6.727-6.26-14.977-31.785 0-51.868 4.94-6.625 11.857-32.489 11.744-50.75-.113-18.261 11.076-47.901 21.859-57.88 7.189-6.653 17.128-11.497 29.817-14.533z"/>
            <path fill="#EB964A" d="M448 209v81.552L341 304c7.41-7.4 13.964-12.742 19.664-16.027 5.604-3.229 63.606-9.26 66.625-13.187C434.914 264.868 441.818 242.94 448 209z"/>
            <g>
                <path fill="#F2A883" d="M399.958 298.726l-23.13-.468-24.947 3.809L339 321.432l17.487.106 5.148-8.235 30.419-1.682z"/>
                <path fill="#F6C2AD" d="M399.958 298.258l-23.13-.469-21.628 3.303a8 8 0 0 0-5.282 3.23c-6.734 9.346-10.374 14.416-10.918 15.212-.893 1.304 2.304 5.08 7.217 0a326.53 326.53 0 0 1 7.751-7.747 8 8 0 0 1 5.96-2.239l32.126 1.604 7.904-12.894z"/>
                <path fill="#FAC9B6" d="M366.57 309.43c-8.072 3.173-13.204 5.017-15.398 5.532-3.29.773-4.164 7.038 3.828 6.001 5.328-.69 10.306-1.578 14.934-2.66 4.674 2.206 8.769 3.093 12.284 2.66 3.514-.432 8.476-2.432 14.884-6.001v-16.704c-5.357-1.006-10.997-.425-16.919 1.742-5.921 2.167-10.459 5.31-13.612 9.43z"/>
            </g>
            <path fill="#FFAA5E" d="M455.958 286.375c-16.881 1.68-36.655 5.602-59.32 11.768L392 317h105v-21.813c-10.48-7.555-24.16-10.493-41.042-8.813z"/>
        </g>
        <path fill="#3A3A3A" d="M400.15 205.451c2.608-3.292 6.705-4.105 10.626-4.54 10.49-1.165 121.444-1.61 123.347-1.837 5.048-.615 10.133 2.687 12.21 7.089 2.56 5.435 1.695 12.48 1.844 18.34.372 14.462.823 28.918.823 43.388 0 14.459-.437 25.125-1.985 39.505-.578 5.35-1.678 10.436-7.244 12.389-5.775 2.035-102.786.978-115.412.626-7.232-.198-18.406 1.372-22.836-6.43-2.13-3.746-1.9-8.6-2.18-12.767-.37-5.511-.744-11.032-1.104-16.55-.742-11.282-.669-22.575-1.009-33.876-.342-11.293-.342-22.597.272-33.883.21-3.859.138-8.277 2.647-11.454z"/>
    </g>
</svg>
