<?xml version="1.0" encoding="UTF-8"?>
<svg width="31px" height="34px" viewBox="0 0 31 34" version="1.1" xmlns="http://www.w3.org/2000/svg" xmlns:xlink="http://www.w3.org/1999/xlink">
    <!-- Generator: Sketch 55.2 (78181) - https://sketchapp.com -->
    <title>Group 26</title>
    <desc>Created with Sketch.</desc>
    <defs>
        <ellipse id="path-1" cx="10.6450633" cy="10.5768183" rx="10.6450633" ry="10.5768183"></ellipse>
        <polygon id="path-3" points="0 0 15.0902546 0 15.0902546 19.6426625 0 19.6426625"></polygon>
    </defs>
    <g id="Symbols" stroke="none" stroke-width="1" fill="none" fill-rule="evenodd">
        <g id="Group-26" transform="translate(0.000000, 0.607143)">
            <g id="Group-5" transform="translate(2.000000, 9.392857)">
                <g id="Group-12" transform="translate(0.000000, 0.000000)">
                    <g id="Group-2">
                        <g id="Group-14">
                            <g>
                                <g id="Group-4">
                                    <g id="Group-9" transform="translate(0.000000, 0.090416)">
                                        <mask id="mask-2" fill="white">
                                            <use xlink:href="#path-1"></use>
                                        </mask>
                                        <use id="Mask" fill="#005150" xlink:href="#path-1"></use>
                                        <g mask="url(#mask-2)" id="Group-8">
                                            <g transform="translate(-4.913106, 5.346524)">
                                                <g>
                                                    <path d="M0.824830634,16.3882569 L27.3670404,16.3882569 C27.1543403,23.6141691 21.2940777,29.4058794 14.0959355,29.4058794 C6.89779332,29.4058794 1.03753078,23.6141691 0.824830634,16.3882569 Z" id="Combined-Shape-Copy-2" fill="#008181" transform="translate(14.095936, 22.897068) rotate(-315.000000) translate(-14.095936, -22.897068) "></path>
                                                    <g id="Group-7" transform="translate(9.007361, 0.000000)">
                                                        <g id="Group-6">
                                                            <path d="M7.13818379,10.3443607 L19.065049,10.3443607 C18.9731068,13.5695836 16.3383807,16.1557993 13.1016164,16.1557993 C9.86485211,16.1557993 7.230126,13.5695836 7.13818379,10.3443607 Z" id="Combined-Shape-Copy" fill="#FF9445" transform="translate(13.101616, 13.250080) rotate(-30.000000) translate(-13.101616, -13.250080) "></path>
                                                            <g id="Group">
                                                                <g id="Group-3">
                                                                    <mask id="mask-4" fill="white">
                                                                        <use xlink:href="#path-3"></use>
                                                                    </mask>
                                                                    <g id="Clip-2"></g>
                                                                    <path d="M13.1332551,18.5966036 L13.1332551,6.3897897 C13.1332551,6.15395248 13.1202371,5.92101437 13.0949594,5.69185773 C12.9906889,4.74510551 13.0752428,3.79053826 13.3161392,2.86899579 C13.3608808,2.69744343 13.4020834,2.51946258 13.4408847,2.3349272 C13.540858,1.86035362 13.0339137,1.4921652 12.6132928,1.73556535 C12.4247211,1.84484963 12.2285662,1.95060453 12.0325376,2.04488901 C11.7831731,2.16476137 11.4872976,2.11194694 11.2932913,1.91493274 C10.1302643,0.734107968 8.51287067,0 6.72611644,0 C4.93936221,0 3.32234774,0.733981919 2.15919437,1.91442854 C1.96531441,2.11144275 1.66918615,2.16425718 1.41982164,2.04425876 C1.22429863,1.95022639 1.02864923,1.84459753 0.840330366,1.73556535 C0.419835825,1.4921652 -0.0871084505,1.86022757 0.0127384648,2.33480115 C0.0514133459,2.51807604 0.0922368316,2.6947964 0.136599195,2.86521432 C0.377116512,3.7867568 0.462302361,4.74119799 0.357399905,5.68769812 C0.331869428,5.9182413 0.318725024,6.15243989 0.318725024,6.3897897 L0.318725024,9.55310934 C0.318725024,13.5739387 2.73198705,17.0412879 6.18871254,18.5966036 L1.59297389,18.5966036 L15.0902546,18.5966036 L13.1332551,18.5966036 Z" id="Fill-1" fill="#00BCBC" mask="url(#mask-4)"></path>
                                                                </g>
                                                                <path d="M9.36238558,3.13817685 C8.14977278,3.13817685 7.1170871,3.90992522 6.72627628,4.99004367 C6.33546547,3.90992522 5.30290615,3.13817685 4.09029334,3.13817685 C2.54195977,3.13817685 1.2867659,4.39622547 1.2867659,5.94795385 C1.2867659,9.14626449 1.59468894,11.739106 6.72627628,11.739106 C11.5729369,11.739106 12.1657867,9.14626449 12.1657867,5.94795385 C12.1657867,4.39622547 10.9105928,3.13817685 9.36238558,3.13817685" id="Fill-4" fill="#FFFFFF" opacity="0.901283482"></path>
                                                            </g>
                                                        </g>
                                                    </g>
                                                </g>
                                            </g>
                                        </g>
                                    </g>
                                </g>
                                <path d="M11.4268737,14.7221635 L12.1021319,13.4551467 C12.1775166,13.3137804 12.1552553,13.1359654 12.0479965,13.0211692 L11.0541663,11.9554716 C10.9170572,11.8084847 10.6855063,11.8084847 10.5485659,11.9554716 L9.55456698,13.0211692 C9.44730819,13.1359654 9.42504693,13.3137804 9.50043165,13.4551467 L10.1756898,14.7221635 C10.4438368,15.2254616 11.1587267,15.2254616 11.4268737,14.7221635" id="Fill-10" fill="#FFA32C"></path>
                            </g>
                        </g>
                    </g>
                </g>
                <g id="Group-13" transform="translate(6.926508, 10.632127)" fill="#007F7E">
                    <path d="M7.49349042,1.56883722 L6.91289072,1.56883722 C6.91289072,1.31651122 6.8648544,0.729665015 6.41932513,0.729665015 C5.97389741,0.729665015 5.92575953,1.31651122 5.92575953,1.56883722 L5.34515984,1.56883722 C5.34515984,0.630368289 5.7768774,0 6.41932513,0 C7.06187441,0 7.49349042,0.630368289 7.49349042,1.56883722" id="Fill-7"></path>
                    <path d="M2.14833057,1.56883722 L1.56773088,1.56883722 C1.56773088,1.31651122 1.51969456,0.729665015 1.07416529,0.729665015 C0.628737571,0.729665015 0.580599692,1.31651122 0.580599692,1.56883722 L0,1.56883722 C0,0.630368289 0.43171756,0 1.07416529,0 C1.71671457,0 2.14833057,0.630368289 2.14833057,1.56883722" id="Fill-7-Copy"></path>
                </g>
            </g>
            <path d="M17.6760465,0.373626374 C18.9730233,0.124542125 20.2110465,8.8817842e-16 21.3901163,8.8817842e-16 C23.1587209,8.8817842e-16 25.3694767,1.12087912 27.0496512,1.12087912 C28.1697674,1.12087912 29.2898837,0.871794872 30.41,0.373626374 L30.41,8.96703297 C29.1719767,9.46520147 28.0518605,9.71428571 27.0496512,9.71428571 C25.5463372,9.71428571 23.3355814,8.59340659 21.5669767,8.59340659 C20.387907,8.59340659 19.0909302,8.71794872 17.6760465,8.96703297 L17.6760465,0.373626374 Z" id="Mask" fill="#FFFFFF"></path>
            <path d="M18.1760465,0.790548934 L18.1760465,8.3773065 C19.3929618,8.18818885 20.5231461,8.09340659 21.5669767,8.09340659 C22.2233685,8.09340659 22.9249192,8.22223693 23.8704794,8.48102781 C24.0670902,8.53483831 24.2575471,8.58927108 24.5476738,8.67380996 C26.0046024,9.09833862 26.4970422,9.21428571 27.0496512,9.21428571 C27.8994459,9.21428571 28.8532683,9.01903291 29.91,8.62472498 L29.91,1.11211568 C28.959578,1.45080195 28.0055032,1.62087912 27.0496512,1.62087912 C26.2865161,1.62087912 25.6611071,1.48139685 24.1160741,1.04131268 C23.9821579,1.00318132 23.9821579,1.00318132 23.8487625,0.965433186 C22.6853789,0.637131264 22.0168417,0.5 21.3901163,0.5 C20.3666657,0.5 19.2953261,0.596726464 18.1760467,0.790549602 Z" id="Mask-Copy" stroke="#006D75"></path>
            <path d="M18.7668512,4.67032967 L23.0327824,4.67032967 C23.5850671,4.67032967 24.0327824,5.11804492 24.0327824,5.67032967 C24.0327824,5.67372589 24.0327651,5.67712208 24.0327305,5.68051812 L24,8.89285714 C23.1297313,8.2647792 22.4630647,7.93144586 22,7.89285714 C21.6165145,7.86090002 20.6361754,7.96971258 19.0589825,8.2192948 C18.5134998,8.30557726 18.0013282,7.93335602 17.9150094,7.38787909 C17.9113551,7.36478599 17.9085117,7.34157183 17.9064847,7.31827941 L17.7706165,5.75702714 C17.7227348,5.20682191 18.1299485,4.72197667 18.6801537,4.67409498 C18.7089848,4.67158596 18.7379112,4.67032967 18.7668512,4.67032967 Z" id="Rectangle" fill="#006D75"></path>
            <path d="M24,0.892857143 L29.1914871,1.32548107 C29.6627053,1.36474925 30.0420131,1.7287033 30.1007077,2.19789791 L30.2693755,3.54620076 C30.33793,4.09421419 29.9492518,4.59404126 29.4012383,4.66259577 C29.3600626,4.66774671 29.3186061,4.67032967 29.2771094,4.67032967 L25.0316987,4.67032967 C24.4838564,4.67032967 24.0380027,4.22952515 24.0317635,3.68171836 L24,0.892857143 Z" id="Rectangle-Copy" fill="#006D75"></path>
            <rect id="Rectangle" fill="#FFFFFF" x="14.7074419" y="0.373626374" width="2.4" height="14.5714286" rx="1"></rect>
            <path d="M12.6450633,32.6369101 C19.6258697,32.6369101 25.2901267,27.0089665 25.2901267,20.0600919 C25.2901267,13.1112172 19.6258697,7.48327359 12.6450633,7.48327359 C5.66425694,7.48327359 1.77635684e-15,13.1112172 1.77635684e-15,20.0600919 C1.77635684e-15,27.0089665 5.66425694,32.6369101 12.6450633,32.6369101 Z M12.6450633,30.6369101 C6.7659572,30.6369101 2,25.9015073 2,20.0600919 C2,14.2186764 6.7659572,9.48327359 12.6450633,9.48327359 C18.5241695,9.48327359 23.2901267,14.2186764 23.2901267,20.0600919 C23.2901267,25.9015073 18.5241695,30.6369101 12.6450633,30.6369101 Z" id="Mask" fill="#FFFFFF" fill-rule="nonzero"></path>
        </g>
    </g>
</svg>