<svg xmlns="http://www.w3.org/2000/svg" width="45" height="38" viewBox="0 0 45 38">
    <g fill="none" fill-rule="evenodd">
        <path fill="#CCC" d="M33.98 17.161h-3.832v-9.99c0-1.798-1.434-3.26-3.196-3.26h-8.6c-1.755 0-3.194 1.462-3.194 3.26v9.99h-3.831v-9.99C11.327 3.216 14.482 0 18.352 0h8.6c3.874 0 7.028 3.216 7.028 7.17v9.991z"/>
        <path fill="#DD705A" d="M39.824 38H5.176C2.314 38 0 35.69 0 32.844V14.658A5.163 5.163 0 0 1 5.176 9.5h34.648C42.683 9.5 45 11.807 45 14.658v18.186C45 35.69 42.683 38 39.824 38"/>
        <path fill="#C9614B" d="M4.147 32.393V15.341c0-1.663.738-3.129 1.868-4.002-2.315.058-4.178 2.068-4.178 4.542V31.92c0 2.513 1.914 4.548 4.273 4.548h.012c-1.19-.862-1.975-2.36-1.975-4.075"/>
        <path fill="#FFF" d="M19.592 31.258h7.04v-14.71h-7.04z"/>
        <path fill="#FFF" d="M15.306 27.274h15.306v-7.048H15.306z"/>
    </g>
</svg>
