<svg width="360" height="300" viewBox="0 0 360 300" fill="none" xmlns="http://www.w3.org/2000/svg">
<g clip-path="url(#clip0_170_2072)">
<path d="M326.428 123.14C312.173 108.777 293.135 100 272.23 100C238.72 100 209.983 122.529 198.114 154.487C193.003 152.474 187.558 151.441 182.065 151.441C164.096 151.441 148.451 162.373 140.224 178.56C130.308 170.059 117.653 165.423 104.587 165.503C95.5907 165.474 86.7246 167.648 78.7642 171.834C56.9774 148.746 19.4421 153.181 0 175.762V287.586C48.2317 294.529 122.276 281.368 147.839 242.155C153.436 249.435 160.078 255.85 167.55 261.192C198.996 284.155 251.181 280.052 288.259 280.052C310.254 280.052 335.983 277.606 360 270.943V113.845C348.25 114.372 336.772 117.55 326.428 123.14Z" fill="#CBF3F3"/>
<path d="M360 240.404C342.799 212.881 301.031 205.492 277.625 230.269C245.464 207.254 200.646 218.984 188.912 248.829C144.083 216.85 96.0588 237.109 85.3833 271.223C49.0721 241.368 3.20576 259.492 0 275.482V300.021H360V240.404Z" fill="#78D0D0"/>
<g clip-path="url(#clip1_170_2072)">
<path d="M100.954 182.487C167.571 115.854 205.476 174.501 232.045 156.058C272.001 97.3026 228.76 16.7097 139.902 28.0815C77.6373 36.2672 33.2292 120.862 100.954 182.487Z" fill="#3DBCBC"/>
<path d="M165.461 207.386C169.071 208.833 171.055 211.271 166.879 217.618C162.702 223.965 156.4 227.933 152.79 226.486C149.18 225.038 149.639 218.708 153.807 212.344C157.975 205.98 161.852 205.93 165.461 207.386Z" fill="#007878"/>
<path d="M196.556 206.038C193.697 209.074 192.73 212.26 199.016 216.203C205.301 220.146 212.721 220.887 215.58 217.867C218.44 214.847 215.672 209.174 209.386 205.231C203.1 201.288 199.407 202.993 196.556 206.038Z" fill="#F6871F"/>
<path d="M167.562 209.44L196.807 206.562C198.616 206.379 200.191 207.394 200.333 208.741L204.059 220.288C204.201 220.727 204.283 221.183 204.301 221.644C204.601 230.054 196.256 237.591 185.227 238.681C174.498 239.737 165.061 234.314 163.303 226.378C163.127 225.558 163.09 224.714 163.194 223.882L164.545 212.236C164.403 210.905 165.762 209.64 167.562 209.44Z" fill="#00BCBC"/>
<path d="M197.823 178.777C198.165 176.281 198.899 174.476 197.632 173.47C196.231 172.338 194.839 173.595 192.705 174.967C190.829 176.173 188.879 177.271 188.879 177.271L197.39 182.97C197.39 182.97 197.482 181.306 197.823 178.777Z" fill="#00BCBC"/>
<path d="M172.848 198.243C174.698 208.342 188.011 218.458 193.614 214.34C201.116 208.825 205.126 204.308 204.009 198.21C203.225 193.951 198.407 174.684 184.569 177.213C176.241 178.735 170.989 188.152 172.848 198.243Z" fill="#00BCBC"/>
<path d="M188.128 195.448C189.987 205.547 181.142 219.714 174.44 217.851C165.453 215.355 160.11 212.543 158.984 206.446C158.201 202.186 155.85 182.471 169.697 179.934C178.025 178.411 186.278 185.357 188.128 195.448Z" fill="#00BCBC"/>
<path d="M157.534 186.148C156.166 184.001 154.758 182.695 155.483 181.248C156.316 179.642 158.076 180.191 160.593 180.557C162.794 180.874 165.028 181.056 165.028 181.056L159.684 189.783C159.684 189.783 158.901 188.344 157.534 186.148Z" fill="#00BCBC"/>
<path d="M198.499 208.966L167.962 214.556C167.12 214.749 166.235 214.608 165.495 214.163C164.755 213.717 164.217 213.003 163.994 212.169L158.709 198.468C158.504 197.932 158.367 197.373 158.301 196.804C157 186.647 164.97 176.93 176.449 174.817C187.653 172.771 198.249 178.661 201.025 188.127C201.302 189.099 201.439 190.104 201.433 191.114L201.367 205.256C201.475 206.127 201.235 207.005 200.698 207.7C200.161 208.395 199.371 208.85 198.499 208.966Z" fill="#00BCBC"/>
<path d="M198.982 191.33C197.748 185.765 194.48 178.419 187.778 178.677C187.086 178.632 186.392 178.674 185.711 178.802C184.228 179.083 182.841 179.738 181.684 180.705C180.527 181.672 179.637 182.918 179.1 184.326C178.841 184.975 178.708 185.099 178.333 185.158C177.958 185.216 177.791 185.158 177.316 184.633C176.315 183.505 175.04 182.652 173.614 182.157C172.188 181.662 170.658 181.541 169.171 181.805C168.492 181.927 167.831 182.134 167.204 182.421C162.269 183.943 160.835 189.633 160.91 194.242C160.916 195.711 161.044 197.177 161.293 198.626C161.852 202.427 166.295 204.615 172.014 205.705C177.433 206.662 186.828 204.948 191.554 202.128C196.706 198.958 200.057 195.381 198.982 191.33Z" fill="white"/>
<path d="M176.641 196.371C176.507 196.238 176.413 196.07 176.37 195.886C176.328 195.702 176.337 195.51 176.399 195.332L177.774 191.397C177.909 191.112 178.111 190.863 178.363 190.673C178.614 190.483 178.909 190.356 179.22 190.305C179.532 190.253 179.852 190.278 180.152 190.377C180.451 190.476 180.723 190.646 180.942 190.873L183.752 193.975C183.881 194.12 183.967 194.299 183.998 194.491C184.029 194.682 184.004 194.879 183.927 195.057L182.384 198.626C182.236 198.864 182.04 199.069 181.808 199.227C181.575 199.385 181.312 199.493 181.036 199.543C180.759 199.593 180.475 199.585 180.202 199.518C179.929 199.452 179.673 199.329 179.45 199.158L176.641 196.371Z" fill="#FF9C39"/>
<path fill-rule="evenodd" clip-rule="evenodd" d="M182.384 194.866C182.384 194.866 181.918 196.979 180.492 197.237C179.066 197.495 177.883 195.689 177.883 195.689L179.775 194.857C179.971 194.78 180.181 194.743 180.392 194.749L182.384 194.866Z" fill="#E38D1D"/>
<path d="M180.322 195.987C181.871 195.704 183.009 194.836 182.865 194.05C182.721 193.264 181.348 192.856 179.799 193.14C178.25 193.423 177.112 194.29 177.256 195.076C177.401 195.863 178.773 196.27 180.322 195.987Z" fill="#FFA32C"/>
<path d="M170.965 196.699C172.532 196.413 173.486 194.462 173.097 192.343C172.707 190.223 171.121 188.737 169.554 189.024C167.988 189.311 167.033 191.261 167.422 193.381C167.812 195.5 169.398 196.986 170.965 196.699Z" fill="#007F7E"/>
<path d="M189.044 193.383C190.611 193.096 191.565 191.146 191.176 189.026C190.786 186.907 189.2 185.421 187.633 185.708C186.067 185.994 185.112 187.945 185.501 190.065C185.891 192.184 187.477 193.67 189.044 193.383Z" fill="#007F7E"/>
<path d="M178.766 192.828L174.256 189.716L177.866 184.5L183.101 188.111L179.992 192.611L179.267 192.112L178.766 192.828Z" fill="#C15E14"/>
<path d="M169.35 205.5C174.793 204.504 178.405 199.337 177.417 193.959C176.429 188.582 171.215 185.03 165.772 186.026C160.328 187.021 156.716 192.188 157.705 197.566C158.693 202.944 163.906 206.496 169.35 205.5Z" fill="#224747"/>
<path d="M165.011 207.253C162.737 206.77 160.657 205.627 159.034 203.965C157.41 202.304 156.317 200.2 155.891 197.919C155.607 196.401 155.631 194.842 155.96 193.333C156.289 191.824 156.918 190.397 157.809 189.134C159.144 187.228 161.012 185.755 163.181 184.901C165.349 184.047 167.721 183.85 170.002 184.332C172.282 184.815 174.369 185.956 176.004 187.615C177.638 189.274 178.747 191.376 179.192 193.66C179.472 195.177 179.446 196.734 179.115 198.241C178.784 199.748 178.156 201.174 177.266 202.436C175.924 204.352 174.046 205.831 171.866 206.688C169.687 207.544 167.302 207.741 165.011 207.253ZM169.296 187.895C167.709 187.554 166.057 187.688 164.546 188.28C163.035 188.872 161.733 189.895 160.802 191.222C160.189 192.09 159.757 193.072 159.531 194.109C159.305 195.146 159.289 196.218 159.484 197.262C159.798 198.838 160.568 200.287 161.701 201.43C162.833 202.572 164.278 203.357 165.854 203.687C167.43 204.017 169.068 203.877 170.565 203.285C172.062 202.693 173.352 201.674 174.273 200.356C174.885 199.488 175.317 198.506 175.543 197.469C175.769 196.432 175.785 195.36 175.59 194.317C175.297 192.744 174.542 191.294 173.422 190.151C172.301 189.007 170.865 188.222 169.296 187.895Z" fill="#F6871F"/>
<path d="M193.052 201.154C198.495 200.158 202.107 194.992 201.119 189.614C200.131 184.236 194.917 180.684 189.474 181.68C184.03 182.676 180.419 187.843 181.407 193.221C182.395 198.598 187.609 202.15 193.052 201.154Z" fill="#224747"/>
<path d="M188.72 202.91C186.445 202.43 184.364 201.288 182.739 199.628C181.115 197.968 180.019 195.865 179.592 193.585C179.313 192.066 179.34 190.507 179.671 188.999C180.001 187.491 180.629 186.064 181.517 184.8C182.724 183.048 184.385 181.657 186.323 180.774C188.261 179.892 190.403 179.551 192.52 179.79C194.637 180.028 196.649 180.835 198.341 182.126C200.034 183.417 201.343 185.143 202.129 187.118C202.914 189.094 203.147 191.246 202.803 193.344C202.458 195.441 201.548 197.406 200.171 199.028C198.794 200.65 197.001 201.868 194.984 202.551C192.967 203.235 190.802 203.359 188.72 202.91ZM193.005 183.552C191.418 183.216 189.767 183.352 188.257 183.944C186.747 184.535 185.444 185.556 184.51 186.88C183.898 187.748 183.466 188.729 183.24 189.767C183.013 190.804 182.997 191.876 183.193 192.919C183.446 194.379 184.093 195.742 185.063 196.864C186.033 197.985 187.291 198.822 188.701 199.285C190.111 199.748 191.621 199.819 193.069 199.492C194.517 199.164 195.849 198.45 196.921 197.425C197.993 196.401 198.766 195.104 199.157 193.675C199.548 192.246 199.542 190.738 199.139 189.311C198.737 187.885 197.954 186.595 196.873 185.579C195.793 184.563 194.455 183.86 193.005 183.544V183.552Z" fill="#F6871F"/>
<path d="M164.873 196.391C166.209 196.146 167.089 194.845 166.839 193.485C166.589 192.125 165.304 191.22 163.968 191.465C162.632 191.709 161.752 193.01 162.002 194.37C162.251 195.73 163.537 196.635 164.873 196.391Z" fill="#467F7C"/>
<path d="M189.313 192.349C190.644 192.106 191.521 190.809 191.272 189.454C191.022 188.099 189.741 187.198 188.41 187.442C187.079 187.686 186.202 188.982 186.452 190.337C186.701 191.693 187.982 192.593 189.313 192.349Z" fill="#467F7C"/>
<path d="M197.699 211.47C200.933 209.956 206.702 218.866 203.317 226.353C201.385 230.574 198.06 234.007 193.897 236.077C193.897 236.077 200.85 229.472 197.815 222.859C195.723 218.258 192.747 213.791 197.699 211.47Z" fill="#00B4B4"/>
<path d="M164.253 213.267C164.253 213.267 170.047 209.432 167.421 219.431C164.978 228.723 169.263 234.405 169.263 234.405C169.263 234.405 162.735 230.046 162.927 222.085C163.035 219.105 163.48 216.147 164.253 213.267Z" fill="#00B4B4"/>
<path d="M159.426 203.476C161.185 205.971 161.71 208.7 160.585 209.54C159.459 210.38 157.125 209.033 155.358 206.52C153.59 204.008 152.415 201.695 154.191 200.456C156.266 199.008 157.659 200.972 159.426 203.476Z" fill="#008282"/>
<path d="M162.56 206.346C166.345 208.841 164.703 212.859 161.251 218.558C157.8 224.256 153.94 229.148 151.248 225.546C148.555 221.944 148.205 216.395 149.022 214.814C151.223 210.522 158.776 203.883 162.56 206.346Z" fill="#008282"/>
<path d="M163.152 206.229C164.761 208.85 164.903 211.703 163.469 212.61C162.035 213.517 159.559 212.111 157.942 209.49C156.325 206.87 153.274 202.685 155.541 201.354C158.209 199.807 161.543 203.617 163.152 206.229Z" fill="#008282"/>
<path d="M201.717 197.22C200.883 200.173 201.317 202.902 202.659 203.326C204.001 203.75 205.751 201.662 206.568 198.726C207.385 195.789 207.727 193.202 205.635 192.62C203.225 191.971 202.542 194.267 201.717 197.22Z" fill="#FF9C39"/>
<path d="M199.724 200.972C196.982 204.557 199.891 207.818 205.059 212.036C210.228 216.253 215.497 219.573 216.856 215.272C218.214 210.971 216.647 205.622 215.347 204.416C211.804 201.121 202.459 197.378 199.724 200.972Z" fill="#FF9C39"/>
<path d="M198.699 200.939C198.34 203.992 199.424 206.645 201.108 206.853C202.792 207.061 204.442 204.757 204.801 201.704C205.159 198.651 206.41 194.075 203.792 193.826C200.724 193.535 199.057 197.886 198.699 200.939Z" fill="#FF9C39"/>
<path d="M203.167 219.132C202.627 219.132 202.108 218.923 201.719 218.549C201.331 218.175 201.102 217.665 201.083 217.127C201.083 216.669 200.725 205.813 204.759 190.507C207.927 178.527 216.172 165.65 216.522 165.109C216.822 164.645 217.294 164.318 217.835 164.201C218.376 164.084 218.941 164.186 219.406 164.485C219.872 164.784 220.199 165.255 220.317 165.795C220.434 166.335 220.331 166.899 220.032 167.364C219.948 167.488 211.787 180.233 208.794 191.571C204.926 206.254 205.251 216.886 205.251 216.994C205.261 217.267 205.217 217.539 205.122 217.795C205.026 218.052 204.881 218.286 204.694 218.487C204.508 218.687 204.283 218.848 204.034 218.962C203.785 219.075 203.516 219.139 203.242 219.148L203.167 219.132Z" fill="#534741"/>
<path d="M162.377 230.137C161.921 230.136 161.477 229.985 161.115 229.709C160.752 229.433 160.49 229.046 160.368 228.607C160.368 228.507 157.433 218.449 145.421 205.846C133.408 193.243 116.935 189.567 116.768 189.533C116.228 189.416 115.756 189.09 115.456 188.626C115.157 188.161 115.055 187.598 115.172 187.058C115.289 186.519 115.616 186.048 116.081 185.749C116.546 185.45 117.112 185.348 117.652 185.465C118.377 185.623 135.559 189.467 148.438 202.976C161.318 216.486 164.278 227.059 164.394 227.509C164.477 227.818 164.488 228.142 164.426 228.456C164.363 228.77 164.229 229.065 164.034 229.319C163.839 229.573 163.589 229.779 163.301 229.921C163.014 230.063 162.698 230.137 162.377 230.137Z" fill="#534741"/>
<path d="M154.041 234.58C154.107 234.904 155.108 238.864 155.183 239.18C159.243 256.841 169.255 272.04 195.756 263.596C225.842 254.013 220.274 242.874 216.214 225.204C216.139 224.888 214.546 218.067 214.421 217.718C214.421 217.718 210.503 213.259 183.718 221.27C158.659 228.807 154.041 234.58 154.041 234.58Z" fill="#FFD578"/>
<path d="M213.371 250.269C213.921 252.158 207.294 258.363 196.09 261.466C179.158 266.158 175.249 263.355 174.665 261.466C174.081 259.578 174.557 258.272 193.005 252.449C209.778 247.174 212.821 248.381 213.371 250.269Z" fill="#F2C26B"/>
<path d="M161.227 252.981C161.042 252.98 160.862 252.918 160.716 252.804C160.57 252.69 160.467 252.53 160.422 252.351C160.377 252.172 160.393 251.983 160.468 251.814C160.543 251.644 160.672 251.505 160.835 251.417C164.559 249.199 167.441 245.811 169.03 241.784C171.43 235.195 170.855 227.301 170.847 227.226C170.829 227.033 170.879 226.839 170.989 226.679C171.099 226.519 171.261 226.402 171.448 226.349C171.635 226.296 171.835 226.309 172.013 226.387C172.191 226.466 172.336 226.603 172.422 226.777C172.689 227.284 179.15 239.255 192.071 236.901C197.407 235.936 200.933 232.633 202.559 227.076C203.31 224.371 203.592 221.557 203.392 218.757C203.357 218.537 203.411 218.311 203.542 218.13C203.673 217.949 203.871 217.828 204.093 217.792C204.314 217.757 204.54 217.811 204.721 217.942C204.902 218.073 205.024 218.27 205.06 218.491C206.106 222.006 208.338 225.051 211.379 227.11C216.172 230.437 217.714 230.254 217.898 230.212C218.069 230.099 218.276 230.053 218.48 230.083C218.683 230.113 218.868 230.217 219 230.375C219.131 230.533 219.199 230.733 219.191 230.938C219.183 231.143 219.1 231.338 218.956 231.485C218.44 232.009 216.555 232.758 210.42 228.474C208.22 226.946 206.379 224.959 205.026 222.651C204.559 227.95 202.275 236.793 192.371 238.556C182.084 240.436 175.457 233.823 172.589 230.038C172.596 234.23 171.923 238.396 170.597 242.375C168.889 246.798 165.722 250.509 161.619 252.898C161.497 252.957 161.362 252.986 161.227 252.981Z" fill="#534741"/>
<path d="M167.437 258.605C168.346 261.641 166.604 262.232 164.494 262.872C162.385 263.513 160.593 263.953 159.684 260.917C158.776 257.881 159.059 252.524 161.202 251.883C163.344 251.242 166.545 255.577 167.437 258.605Z" fill="#F6871F"/>
<path d="M194.706 245.344C195.339 248.447 193.58 248.88 191.371 249.329C189.162 249.778 187.395 250.061 186.753 246.958C186.111 243.855 186.878 238.539 189.07 238.09C191.263 237.641 194.055 242.241 194.706 245.344Z" fill="#F6871F"/>
<path d="M224.825 236.327C226.075 239.238 224.442 240.02 222.391 240.902C220.34 241.784 218.639 242.424 217.389 239.521C216.139 236.618 215.797 231.244 217.848 230.37C219.898 229.497 223.566 233.415 224.825 236.327Z" fill="#F6871F"/>
<path d="M115.026 164.519C113.842 163.021 86.1903 127.292 92.6677 87.5527C96.244 65.591 109.649 46.7904 132.499 31.8165L134.8 35.2937C112.967 49.6604 100.179 67.4711 96.786 88.2266C90.592 126.152 118.027 161.632 118.302 161.99L115.026 164.519Z" fill="#00B4B4"/>
<path d="M215.48 146.217L211.604 144.686C211.745 144.329 225.467 108.799 209.036 77.4538C197.982 56.3656 175.965 41.8243 143.595 34.1959L144.554 30.1445C178.166 38.0308 201.116 53.2959 212.746 75.5238C230.052 108.649 216.089 144.728 215.48 146.217Z" fill="#00B4B4"/>
<path d="M145.996 149.345C128.965 118.399 126.197 89.7572 126.872 71.148C127.606 50.9665 132.332 38.2554 132.533 37.723L136.434 39.1871C136.384 39.3119 131.716 51.9231 131.032 71.4807C130.398 89.4993 133.116 117.234 149.656 147.315L145.996 149.345Z" fill="#00B4B4"/>
<path opacity="0.19" d="M159.159 117.459C177.599 138.431 151.656 183.311 121.645 180.682C104.872 179.218 79.963 139.088 79.963 119.639C79.963 69.5925 117.477 35.1025 139.985 35.1025C159.993 35.1025 123.312 76.6967 159.159 117.459Z" fill="#9DD1D1"/>
<path d="M137.458 38.8514C144.696 37.4643 150.12 34.0281 149.571 31.1765C149.022 28.325 142.709 27.1378 135.47 28.5249C128.232 29.912 122.808 33.3482 123.357 36.1997C123.906 39.0513 130.219 40.2385 137.458 38.8514Z" fill="#00B4B4"/>
<path d="M100.954 182.487L118.194 192.803C142.37 168.678 189.054 156.2 219.065 172.837L232.044 156.075C209.478 130.02 116.977 141.559 100.954 182.487Z" fill="#007878"/>
<path d="M180.717 142.166L176.657 141.201C184.252 109.215 173.323 82.0541 162.802 64.8923C156.022 53.7381 147.625 43.6463 137.885 34.9445L140.544 31.7417C141.111 32.2159 154.566 43.4548 166.387 62.6962C177.283 80.5484 188.637 108.782 180.717 142.166Z" fill="#00B4B4"/>
<g clip-path="url(#clip2_170_2072)">
<path d="M202.495 113.426L172.258 131.796C168.326 134.185 167.075 139.308 169.464 143.24L174.324 151.24C176.713 155.171 181.837 156.422 185.768 154.034L216.005 135.664C219.937 133.275 221.188 128.151 218.799 124.219L213.94 116.22C211.551 112.288 206.427 111.037 202.495 113.426Z" fill="#005960"/>
<path d="M181.626 94.9287L132.176 101.536C127.615 102.145 124.413 106.335 125.022 110.896L127.222 127.359C127.831 131.919 132.021 135.122 136.581 134.513L186.032 127.906C190.592 127.296 193.795 123.106 193.185 118.546L190.986 102.082C190.377 97.5223 186.186 94.3195 181.626 94.9287Z" fill="#005960"/>
<path d="M201.296 60.1303L151.845 66.7372C147.285 67.3465 144.082 71.537 144.692 76.097L146.891 92.5606C147.5 97.1206 151.691 100.323 156.251 99.7142L205.702 93.1073C210.262 92.498 213.464 88.3074 212.855 83.7474L210.656 67.2839C210.046 62.7238 205.856 59.5211 201.296 60.1303Z" fill="#005960"/>
<path d="M185.72 138.45L187.98 142.17L186.15 143.29L183.94 139.65C183.767 139.301 183.482 139.019 183.13 138.85C182.973 138.802 182.807 138.792 182.646 138.82C182.485 138.847 182.332 138.913 182.2 139.01C182.012 139.113 181.85 139.256 181.724 139.429C181.597 139.602 181.511 139.8 181.47 140.01C181.428 140.229 181.431 140.454 181.477 140.672C181.524 140.89 181.613 141.097 181.74 141.28L183.83 144.72L182 145.84L176.58 136.91L178.41 135.8L180.6 139.41C180.626 138.968 180.759 138.539 180.99 138.16C181.246 137.774 181.589 137.452 181.99 137.22C183.43 136.32 184.673 136.73 185.72 138.45Z" fill="white"/>
<path d="M190.48 140.29C189.847 140.33 189.217 140.181 188.67 139.86C188.08 139.502 187.592 138.999 187.25 138.4C186.872 137.82 186.652 137.151 186.61 136.46C186.578 135.829 186.734 135.202 187.06 134.66C187.426 134.067 187.935 133.575 188.54 133.23C189.121 132.861 189.784 132.638 190.47 132.58C191.101 132.543 191.728 132.696 192.27 133.02C192.865 133.375 193.358 133.878 193.7 134.48C194.07 135.064 194.29 135.731 194.34 136.42C194.373 137.048 194.216 137.672 193.89 138.21C193.531 138.799 193.029 139.288 192.43 139.63C191.843 140.006 191.174 140.232 190.48 140.29ZM192.35 137.16C192.37 136.596 192.205 136.041 191.88 135.58C191.624 135.082 191.208 134.685 190.7 134.45C190.484 134.373 190.252 134.348 190.024 134.377C189.797 134.407 189.579 134.49 189.39 134.62C189.182 134.729 189.003 134.885 188.867 135.076C188.732 135.267 188.643 135.488 188.61 135.72C188.578 136.281 188.741 136.835 189.07 137.29C189.8 138.5 190.64 138.81 191.58 138.29C191.793 138.173 191.974 138.007 192.108 137.805C192.242 137.603 192.325 137.371 192.35 137.13V137.16Z" fill="white"/>
<path d="M197.8 135.81C197.171 135.844 196.546 135.695 196 135.38C195.41 135.02 194.918 134.518 194.57 133.92C194.203 133.334 193.984 132.669 193.93 131.98C193.895 131.348 194.052 130.721 194.38 130.18C194.748 129.589 195.257 129.098 195.86 128.75C196.443 128.376 197.11 128.153 197.8 128.1C198.431 128.064 199.057 128.217 199.6 128.54C200.177 128.913 200.662 129.412 201.019 129.999C201.376 130.586 201.595 131.246 201.66 131.93C201.698 132.561 201.545 133.188 201.22 133.73C200.859 134.317 200.357 134.805 199.76 135.15C199.171 135.527 198.498 135.754 197.8 135.81ZM199.67 132.68C199.653 132.125 199.494 131.584 199.206 131.109C198.919 130.635 198.514 130.242 198.03 129.97C197.812 129.892 197.579 129.868 197.35 129.897C197.12 129.927 196.901 130.01 196.71 130.14C196.503 130.25 196.325 130.406 196.19 130.597C196.054 130.788 195.965 131.008 195.93 131.24C195.904 131.8 196.066 132.353 196.39 132.81C197.12 134.02 197.96 134.33 198.91 133.76C199.113 133.652 199.287 133.498 199.419 133.311C199.551 133.123 199.637 132.907 199.67 132.68Z" fill="white"/>
<path d="M203.43 126.29L204.88 128.68C204.952 128.823 205.053 128.95 205.177 129.052C205.301 129.153 205.445 129.228 205.6 129.27C205.894 129.317 206.195 129.249 206.44 129.08C206.64 128.952 206.825 128.801 206.99 128.63L207.85 130.05C207.586 130.377 207.264 130.651 206.9 130.86C206.594 131.075 206.246 131.223 205.879 131.295C205.513 131.368 205.135 131.362 204.77 131.28C204.038 131.034 203.429 130.514 203.07 129.83L201.6 127.41L200.43 128.12L199.6 126.74L200.76 126.04L199.89 124.59L201.36 122.89L202.6 124.89L204.16 123.94L204.99 125.31L203.43 126.29Z" fill="white"/>
<path d="M207.49 126.51L203.35 121L205.62 119.63L208.62 125.84L207.49 126.51ZM207.56 127.6L209.56 126.4L210.74 128.4L208.74 129.6L207.56 127.6Z" fill="white"/>
<path d="M146.79 115.98L147.52 121.5L144.81 121.86L144.08 116.46C144.057 115.967 143.87 115.496 143.55 115.12C143.392 114.982 143.204 114.883 143.001 114.831C142.798 114.779 142.585 114.775 142.38 114.82C142.112 114.845 141.852 114.926 141.617 115.059C141.383 115.192 141.179 115.373 141.02 115.59C140.861 115.825 140.75 116.089 140.694 116.367C140.637 116.645 140.636 116.931 140.69 117.21L141.37 122.32L138.65 122.68L136.89 109.44L139.6 109.08L140.32 114.44C140.568 113.932 140.943 113.498 141.41 113.18C141.895 112.854 142.45 112.649 143.03 112.58C145.163 112.293 146.417 113.427 146.79 115.98Z" fill="white"/>
<path d="M151.43 120.54C150.67 120.265 150.011 119.767 149.54 119.11C149.029 118.384 148.709 117.542 148.61 116.66C148.48 115.789 148.566 114.9 148.86 114.07C149.144 113.31 149.654 112.654 150.32 112.19C151.051 111.685 151.897 111.369 152.78 111.27C153.653 111.131 154.547 111.214 155.38 111.51C156.138 111.789 156.793 112.291 157.26 112.95C157.772 113.671 158.093 114.511 158.19 115.39C158.321 116.261 158.235 117.15 157.94 117.98C157.653 118.736 157.149 119.39 156.49 119.86C155.765 120.362 154.926 120.675 154.05 120.77C153.171 120.907 152.272 120.828 151.43 120.54ZM155.23 117.83C155.492 117.173 155.579 116.46 155.485 115.759C155.39 115.058 155.116 114.394 154.69 113.83C154.475 113.629 154.215 113.481 153.931 113.4C153.648 113.318 153.35 113.304 153.06 113.36C152.761 113.382 152.471 113.474 152.214 113.629C151.957 113.784 151.74 113.996 151.58 114.25C151.263 114.891 151.168 115.619 151.31 116.32C151.55 118.11 152.37 118.91 153.78 118.72C154.075 118.696 154.359 118.603 154.611 118.448C154.863 118.294 155.075 118.082 155.23 117.83Z" fill="white"/>
<path d="M162.3 119.08C161.536 118.807 160.874 118.308 160.4 117.65C159.895 116.926 159.579 116.087 159.48 115.21C159.339 114.339 159.425 113.448 159.73 112.62C160.012 111.861 160.517 111.205 161.18 110.74C161.915 110.235 162.763 109.919 163.65 109.82C164.52 109.681 165.41 109.764 166.24 110.06C166.998 110.339 167.656 110.836 168.13 111.49C168.633 112.215 168.949 113.053 169.05 113.93C169.191 114.804 169.105 115.699 168.8 116.53C168.521 117.288 168.019 117.943 167.36 118.41C166.621 118.894 165.782 119.205 164.906 119.321C164.03 119.437 163.14 119.355 162.3 119.08ZM166.09 116.38C166.405 115.731 166.496 114.996 166.35 114.29C166.307 113.575 166.025 112.896 165.55 112.36C165.335 112.158 165.075 112.01 164.792 111.928C164.508 111.847 164.209 111.834 163.92 111.89C163.623 111.912 163.336 112.003 163.081 112.156C162.826 112.309 162.61 112.519 162.45 112.77C162.128 113.413 162.033 114.146 162.18 114.85C162.42 116.637 163.24 117.437 164.64 117.25C164.933 117.229 165.217 117.139 165.469 116.988C165.721 116.837 165.934 116.629 166.09 116.38Z" fill="white"/>
<path d="M173.79 110.77L174.27 114.32C174.284 114.516 174.339 114.706 174.432 114.878C174.525 115.051 174.654 115.201 174.81 115.32C175.127 115.525 175.509 115.6 175.88 115.53C176.183 115.491 176.479 115.41 176.76 115.29L177.05 117.39C176.571 117.64 176.048 117.796 175.51 117.85C175.043 117.945 174.561 117.941 174.096 117.838C173.631 117.735 173.193 117.534 172.81 117.25C172.075 116.589 171.626 115.667 171.56 114.68L171.08 111.09L169.35 111.32L169.08 109.32L170.8 109.09L170.52 106.95L173.12 105.71L173.52 108.71L175.84 108.4L176.11 110.4L173.79 110.77Z" fill="white"/>
<path d="M178.42 113.18L176.42 104.59L179.79 104.15L180.1 112.96L178.42 113.18ZM177.93 114.49L180.86 114.1L181.25 116.99L178.32 117.38L177.93 114.49Z" fill="white"/>
<path d="M166.45 81.1899L167.18 86.71L164.47 87.0801L163.75 81.6799C163.721 81.1834 163.531 80.7098 163.21 80.3301C163.051 80.1937 162.863 80.0965 162.659 80.0461C162.456 79.9958 162.244 79.9936 162.04 80.04C161.771 80.0627 161.51 80.1432 161.276 80.2761C161.041 80.409 160.838 80.5912 160.68 80.8101C160.521 81.0452 160.41 81.3092 160.354 81.5872C160.297 81.8651 160.296 82.1515 160.35 82.4299L161.03 87.53L158.32 87.9001L156.55 74.6602L159.26 74.29L159.98 79.6602C160.225 79.1479 160.601 78.7096 161.07 78.3901C161.558 78.0629 162.117 77.8571 162.7 77.79C164.85 77.5 166.11 78.6399 166.45 81.1899Z" fill="white"/>
<path d="M171.09 85.7499C170.337 85.4618 169.689 84.9529 169.23 84.2899C168.718 83.5694 168.401 82.729 168.31 81.85C168.171 80.9769 168.254 80.0829 168.55 79.2499C168.839 78.4923 169.348 77.8381 170.01 77.37C170.742 76.868 171.587 76.5552 172.47 76.4599C173.343 76.3214 174.237 76.4039 175.07 76.6999C175.828 76.9779 176.486 77.476 176.96 78.13C177.463 78.855 177.779 79.6932 177.88 80.57C178.015 81.4439 177.929 82.3377 177.63 83.1698C177.343 83.9208 176.843 84.5712 176.19 85.0399C175.451 85.5285 174.611 85.8436 173.733 85.9613C172.855 86.0791 171.961 85.9965 171.12 85.7199L171.09 85.7499ZM174.89 83.05C175.205 82.401 175.296 81.6661 175.15 80.9599C175.104 80.2457 174.823 79.5669 174.35 79.0299C174.136 78.8266 173.876 78.6777 173.592 78.5958C173.308 78.514 173.009 78.5018 172.72 78.56C172.423 78.5805 172.135 78.671 171.88 78.8239C171.624 78.9768 171.408 79.1877 171.25 79.4398C170.928 80.0829 170.833 80.816 170.98 81.5199C171.21 83.3099 172.03 84.0998 173.44 83.9198C173.733 83.8981 174.016 83.8082 174.268 83.6571C174.52 83.506 174.733 83.2981 174.89 83.05Z" fill="white"/>
<path d="M181.96 84.2901C181.199 84.0116 180.538 83.5141 180.06 82.8602C179.557 82.1352 179.241 81.2967 179.14 80.42C179.005 79.546 179.091 78.6523 179.39 77.8201C179.672 77.0611 180.178 76.4055 180.84 75.94C181.583 75.46 182.422 75.1503 183.299 75.0328C184.175 74.9152 185.067 74.9928 185.91 75.2601C186.668 75.5393 187.323 76.0412 187.79 76.7C188.273 77.4283 188.584 78.2569 188.7 79.1231C188.817 79.9892 188.734 80.8703 188.46 81.7C188.179 82.454 187.677 83.1058 187.02 83.5701C186.296 84.0743 185.457 84.3873 184.58 84.48C183.705 84.635 182.804 84.5698 181.96 84.2901ZM185.75 81.5901C186.069 80.9425 186.161 80.2061 186.01 79.5C185.965 78.7846 185.688 78.1034 185.22 77.5601C185.005 77.3588 184.745 77.2114 184.461 77.1297C184.178 77.048 183.88 77.0344 183.59 77.0901C183.291 77.1134 183.002 77.2059 182.745 77.3604C182.488 77.5149 182.271 77.7269 182.11 77.98C181.788 78.6231 181.693 79.3562 181.84 80.0601C182.08 81.8401 182.9 82.64 184.3 82.46C184.592 82.4402 184.876 82.3521 185.127 82.2027C185.379 82.0533 185.593 81.847 185.75 81.6001V81.5901Z" fill="white"/>
<path d="M193.45 75.99L193.93 79.53C193.937 79.734 193.99 79.9338 194.083 80.1152C194.176 80.2967 194.308 80.4554 194.47 80.5801C194.786 80.7872 195.168 80.8658 195.54 80.8C195.845 80.7514 196.144 80.6675 196.43 80.55L196.71 82.6602C196.232 82.9045 195.714 83.0603 195.18 83.1201C194.711 83.2162 194.227 83.2114 193.76 83.1062C193.292 83.001 192.853 82.7979 192.47 82.51C191.737 81.8511 191.289 80.9331 191.22 79.95L190.74 76.3501L189.01 76.5801L188.74 74.5801L190.47 74.3501L190.18 72.21L192.78 70.96L193.18 73.96L195.5 73.6401L195.77 75.6401L193.45 75.99Z" fill="white"/>
<path d="M198.08 78.3901L196.08 69.8L199.45 69.3701L199.76 78.1699L198.08 78.3901ZM197.59 79.7L200.53 79.3101L200.91 82.21L197.98 82.6001L197.59 79.7Z" fill="white"/>
</g>
</g>
<path fill-rule="evenodd" clip-rule="evenodd" d="M289.369 178.705C300.75 173.256 307.449 165.984 312.647 157.479L314.353 158.521C308.832 167.557 301.609 175.308 289.187 180.999C287.229 188.222 280.633 193.426 274.136 196.806C270.787 198.548 267.399 199.841 264.545 200.7C261.721 201.549 259.331 202 258 202V200C259.028 200 261.189 199.62 263.969 198.784C266.719 197.957 269.988 196.709 273.213 195.032C279.036 192.002 284.506 187.68 286.724 182.077C284.44 183.03 282.263 183.797 280.308 184.259C277.827 184.844 275.499 184.988 273.757 184.174C272.52 183.597 271.643 182.785 271.36 181.704C271.078 180.628 271.466 179.59 272.067 178.738C273.253 177.054 275.636 175.541 278.127 174.608C280.616 173.675 283.506 173.211 285.768 173.939C286.931 174.314 287.954 175.015 288.618 176.142C289.045 176.868 289.297 177.724 289.369 178.705ZM287.385 179.616C287.431 178.499 287.22 177.71 286.895 177.157C286.523 176.526 285.94 176.096 285.155 175.843C283.519 175.316 281.143 175.613 278.828 176.481C276.515 177.347 274.559 178.673 273.702 179.89C273.28 180.488 273.221 180.915 273.295 181.198C273.367 181.476 273.648 181.916 274.603 182.362C275.703 182.875 277.459 182.876 279.849 182.312C282.05 181.793 284.62 180.837 287.385 179.616Z" fill="#A2A2A2"/>
</g>
<defs>
<clipPath id="clip0_170_2072">
<rect width="360" height="300" fill="white"/>
</clipPath>
<clipPath id="clip1_170_2072">
<rect width="180" height="239" fill="white" transform="translate(67 27)"/>
</clipPath>
<clipPath id="clip2_170_2072">
<rect width="95.04" height="95.14" fill="white" transform="translate(125 60)"/>
</clipPath>
</defs>
</svg>
