<svg width="360" height="300" viewBox="0 0 360 300" fill="none" xmlns="http://www.w3.org/2000/svg">
<g clip-path="url(#clip0_170_1718)">
<g clip-path="url(#clip1_170_1718)">
<path d="M359.985 279.095V145.766C348.406 139.652 335.619 136.048 322.492 135.196C309.364 134.345 296.204 136.267 283.902 140.833C271.6 145.398 260.444 152.499 251.192 161.656C241.94 170.812 234.807 181.809 230.277 193.9C227.135 193.586 223.979 193.428 220.82 193.428C198.14 193.4 176.26 201.631 159.435 216.521C154.534 206.763 146.971 198.524 137.582 192.715C128.193 186.907 117.345 183.755 106.24 183.609C95.2193 166.858 77.9484 154.985 58.1117 150.525C38.275 146.064 17.4431 149.369 0.0604248 159.734V279.095H359.985Z" fill="#CBF3F3"/>
<path d="M337.844 250.685L332.445 258.067L326.713 249.681C325.587 256.354 324.742 259.47 324.179 259.027C322.002 257.476 319.561 256.316 316.97 255.601L319.036 260.858H287.318L289.188 258.067L283.683 259.396L281.738 255.158L278.118 259.588L273.065 258.318L273.759 260.813H234.696L237.32 255.557L230.895 258.023L228.738 248.795L222.404 258.023L220.322 254.199L214.289 258.982L207.442 249.636L205.074 257.225L202.058 254.642L202.676 261.182L143.131 260.828V260.725L140.115 260.813H139.18L130.296 261.065L130.915 254.509L127.898 257.107L125.53 249.503L118.728 258.865L112.786 254.081L110.719 257.905L104.43 248.662L102.288 257.905L95.8932 255.424L98.5026 260.695H59.6806L60.3594 258.2L55.3369 259.47L51.7323 255.04L49.8169 259.292L44.342 257.964L46.1971 260.755H14.0867V254.14L9.84869 258.923L4.22301 246.211L2.27734 257.166L-0.030304 254.213V299.985H359.955V260.902H339.805L337.844 250.685Z" fill="#005960"/>
<path opacity="0.1" d="M179.992 289.34C216.643 289.34 246.355 283.721 246.355 276.789C246.355 269.858 216.643 264.239 179.992 264.239C143.342 264.239 113.63 269.858 113.63 276.789C113.63 283.721 143.342 289.34 179.992 289.34Z" fill="black"/>
</g>
<g clip-path="url(#clip2_170_1718)">
<path d="M180.616 285.279C213.058 285.279 239.356 261.024 239.356 231.104C239.356 201.183 213.058 176.928 180.616 176.928C148.175 176.928 121.876 201.183 121.876 231.104C121.876 261.024 148.175 285.279 180.616 285.279Z" fill="#007878"/>
<path opacity="0.83" d="M180.616 276.543C207.822 276.543 229.876 256.199 229.876 231.104C229.876 206.008 207.822 185.664 180.616 185.664C153.411 185.664 131.356 206.008 131.356 231.104C131.356 256.199 153.411 276.543 180.616 276.543Z" fill="#A2BCBB"/>
<path opacity="0.83" d="M181.207 275.854C207.18 275.854 228.234 256.436 228.234 232.483C228.234 208.53 207.18 189.112 181.207 189.112C155.235 189.112 134.181 208.53 134.181 232.483C134.181 256.436 155.235 275.854 181.207 275.854Z" fill="white"/>
<path d="M182.729 230.347L186.017 226.984C186.51 226.471 187.592 226.687 188.168 227.416L195.305 236.56L200.784 243.664C201.606 244.731 200.62 245.744 199.414 245.123L190.99 240.963L180.154 235.56C179.291 235.142 178.921 234.21 179.414 233.67L182.729 230.347Z" fill="#00B4B4"/>
<path d="M183.025 236.555C186.35 236.555 189.045 233.859 189.045 230.534C189.045 227.209 186.35 224.514 183.025 224.514C179.699 224.514 177.004 227.209 177.004 230.534C177.004 233.859 179.699 236.555 183.025 236.555Z" fill="#007878"/>
<path d="M181.459 192.199H179.784C178.745 192.199 177.902 193.042 177.902 194.082V199.106C177.902 200.146 178.745 200.989 179.784 200.989H181.459C182.499 200.989 183.342 200.146 183.342 199.106V194.082C183.342 193.042 182.499 192.199 181.459 192.199Z" fill="#00B4B4"/>
<path d="M181.459 261.229H179.784C178.745 261.229 177.902 262.072 177.902 263.112V268.136C177.902 269.176 178.745 270.019 179.784 270.019H181.459C182.499 270.019 183.342 269.176 183.342 268.136V263.112C183.342 262.072 182.499 261.229 181.459 261.229Z" fill="#00B4B4"/>
<path d="M222.794 231.815V230.403C222.794 229.405 221.985 228.597 220.988 228.597H215.077C214.079 228.597 213.27 229.405 213.27 230.403V231.815C213.27 232.813 214.079 233.621 215.077 233.621H220.988C221.985 233.621 222.794 232.813 222.794 231.815Z" fill="#00B4B4"/>
<path d="M147.962 231.815V230.403C147.962 229.405 147.154 228.597 146.156 228.597H140.245C139.247 228.597 138.439 229.405 138.439 230.403V231.815C138.439 232.813 139.247 233.621 140.245 233.621H146.156C147.154 233.621 147.962 232.813 147.962 231.815Z" fill="#00B4B4"/>
<path fill-rule="evenodd" clip-rule="evenodd" d="M195.657 124.242C195.099 125.906 204.01 157.706 204.01 157.706C211.114 158.385 227.402 145.599 226.242 135.725C224.151 118.167 207.162 121.418 195.657 124.242Z" fill="#F6871F"/>
<path d="M203.265 175.834C203 176.006 202.777 176.236 202.612 176.506C202.447 176.776 202.344 177.08 202.312 177.395C202.279 177.71 202.318 178.028 202.424 178.326C202.53 178.624 202.701 178.894 202.926 179.118C204.425 181.022 214.726 187.656 215.744 184.591C216.368 182.686 215.23 179.873 214.354 178.308C213.588 176.961 205.235 174.805 203.265 175.834Z" fill="#FFA32C"/>
<path d="M165.543 182.467L162.576 177.596C160.07 175.292 157.037 173.638 153.742 172.78C151.969 172.309 151.487 174.531 151.093 175.757C150.783 176.022 150.528 176.347 150.344 176.711C150.16 177.076 150.05 177.473 150.02 177.88C149.991 178.288 150.042 178.697 150.172 179.084C150.302 179.471 150.507 179.828 150.776 180.136C150.896 181.318 150.699 183.65 152.472 183.628C155.319 183.715 163.113 183.365 165.543 182.467Z" fill="#00B4B4"/>
<path d="M199.85 186.463C207.031 180.869 212.986 175.768 215.109 167.635C219.411 150.864 213.27 143.453 208.837 136.054C197.408 116.962 171.125 84.7354 154.103 93.1534C137.081 101.571 140.497 144.296 150.349 164.307C160.704 185.029 180.2 191.695 199.85 186.463Z" fill="#00BCBC"/>
<path d="M150.174 172.648C156.052 179.216 177.179 188.937 184.185 187.798C196.445 185.784 199.576 147.766 187.786 132.583C175.997 117.4 145.97 117.422 144.405 126.793C137.749 166.715 148.083 170.306 150.174 172.648Z" fill="#00BCBC"/>
<path d="M195.482 72.103C199.138 70.1654 201.426 68.0418 203.692 69.3992C206.21 70.9098 205.093 73.7779 204.206 77.7406C203.44 81.2763 202.871 84.8559 202.871 84.8559L189.33 75.1243C189.33 75.1243 191.815 74.0405 195.482 72.103Z" fill="#00B4B4"/>
<path d="M198.12 139.009L148.324 135.638C146.848 135.539 145.471 134.859 144.496 133.747C143.521 132.634 143.028 131.181 143.124 129.704L140.529 103.246C140.42 102.231 140.42 101.207 140.529 100.192C142.719 81.7142 155.483 67.8119 177.748 69.2569C200.079 70.5596 210.074 85.4689 210.501 103.4C210.536 105.242 210.338 107.081 209.91 108.873L203.977 133.842C203.873 135.299 203.2 136.657 202.105 137.624C201.01 138.59 199.579 139.087 198.12 139.009Z" fill="#00BCBC"/>
<path d="M148.948 78.8461C145.018 77.5325 142.38 75.8138 140.409 77.5215C138.22 79.4152 139.73 82.0207 141.252 85.8411C142.598 89.1907 143.737 92.6389 143.737 92.6389L155.505 80.8383C155.505 80.8383 152.91 80.1707 148.948 78.8461Z" fill="#00BCBC"/>
<path d="M163.397 87.702C169.965 85.7535 177.19 87.089 185.159 91.413C186.385 92.0807 187.48 91.5662 188.345 90.3949C190.096 88.0194 191.738 85.7864 193.566 85.0201C202.772 81.1012 207.096 89.8585 207.994 98.6597C209.745 115.802 202.86 127.121 183.145 129.179C163.43 131.237 154.06 125.381 152.834 106.049C152.308 97.6088 156.818 89.6177 163.397 87.702Z" fill="white"/>
<path d="M187.94 104.286C188.184 104.035 188.48 103.839 188.807 103.711C189.134 103.584 189.484 103.527 189.834 103.546C190.185 103.565 190.527 103.658 190.838 103.82C191.15 103.981 191.423 104.207 191.64 104.483L194.924 110.493C195.074 110.754 195.146 111.053 195.13 111.354C195.114 111.655 195.012 111.945 194.836 112.19L191.213 117.28C190.905 117.612 190.533 117.876 190.118 118.057C189.704 118.238 189.257 118.331 188.804 118.331C188.352 118.331 187.905 118.238 187.49 118.057C187.076 117.876 186.703 117.612 186.396 117.28L182.488 113.471C182.24 113.234 182.078 112.921 182.028 112.582C181.978 112.242 182.044 111.896 182.214 111.599C183.954 109.033 185.867 106.59 187.94 104.286Z" fill="#FF9C39"/>
<path fill-rule="evenodd" clip-rule="evenodd" d="M184.338 110.92C184.338 110.92 186.079 116.623 189.111 116.634C191.924 116.634 193.906 110.942 193.906 110.942L189.702 109.628C189.278 109.496 188.824 109.496 188.399 109.628L184.338 110.92Z" fill="#F6871F"/>
<path d="M189.107 113.415C192.004 113.163 194.267 111.982 194.163 110.778C194.058 109.573 191.625 108.801 188.728 109.053C185.831 109.305 183.567 110.485 183.672 111.69C183.776 112.895 186.21 113.667 189.107 113.415Z" fill="#FF9C39"/>
<path d="M176.402 159.26C175.307 157.761 173.118 146.464 167.776 138.692C163.726 132.759 156.764 131.741 152.538 134.412C140.322 142.151 145.357 161.001 152.801 170.328C161.755 181.548 182.16 182.27 186.177 177.618C194.059 168.467 199.313 170.24 199.948 168.489C200.605 166.518 197.343 163.245 195.066 162.884C187.546 161.713 177.431 160.695 176.402 159.26Z" fill="#008181"/>
<path d="M180.616 185.883C180.435 186.143 180.315 186.441 180.264 186.754C180.213 187.068 180.233 187.388 180.322 187.693C180.411 187.997 180.567 188.278 180.779 188.514C180.991 188.75 181.254 188.936 181.547 189.057C183.66 190.24 195.723 192.44 195.493 189.222C195.351 187.218 193.216 185.062 191.815 183.945C190.589 182.938 182.05 184.175 180.616 185.883Z" fill="#FFA32C"/>
<path fill-rule="evenodd" clip-rule="evenodd" d="M184.021 113.525C184.021 113.525 187.71 118.046 189.625 117.411C191.815 116.711 193.938 112.409 193.938 112.409L191.618 109.672C189.822 108.161 187.535 109.267 186.44 110.613L184.021 113.525Z" fill="#F6871F"/>
<path d="M225.158 127.296C225.158 127.296 225.158 127.296 225.158 127.241C221.787 122.742 215.525 118.758 204.064 117.981C198.525 117.608 191.837 118.561 190.753 121.188C189.888 123.301 191.662 126.158 198.503 127.844C195.219 129.573 195.34 135.966 204.086 135.933C199.707 142.501 212.088 147.307 218.667 146.409H218.733H218.886C219.385 146.341 219.874 146.212 220.342 146.026L220.824 145.818H220.922L221.174 145.687C223.363 144.428 225.158 141.844 226.406 138.44C227.928 133.941 227.348 129.661 225.158 127.296Z" fill="#FF9C39"/>
<path d="M198.983 104.233C200.649 104.063 201.817 102.132 201.592 99.9183C201.368 97.7049 199.835 96.0478 198.169 96.217C196.503 96.3863 195.334 98.3177 195.559 100.531C195.784 102.745 197.317 104.402 198.983 104.233Z" fill="#007F7E"/>
<path d="M172.654 108.933C174.591 108.737 175.949 106.49 175.687 103.916C175.426 101.342 173.644 99.4144 171.707 99.6111C169.77 99.8079 168.412 102.054 168.674 104.629C168.935 107.203 170.717 109.13 172.654 108.933Z" fill="#007F7E"/>
<path fill-rule="evenodd" clip-rule="evenodd" d="M126.835 125.643C126.835 125.643 121.646 129.289 121.526 132.485C121.406 135.681 124.449 139.524 125.533 141.089C125.533 141.089 120.059 138.035 116.775 138.757C112.397 139.732 109.113 143.935 109.113 143.935C109.113 143.935 110.809 139.556 108.85 135.835C106.89 132.113 100.552 128.719 100.552 128.719C100.552 128.719 105.248 129.814 108.116 126.957C110.623 124.494 110.656 117.805 110.656 117.805C112.039 120.617 114.211 122.964 116.907 124.56C119.873 126.202 126.835 125.643 126.835 125.643Z" fill="#FFA32C"/>
<path fill-rule="evenodd" clip-rule="evenodd" d="M238.831 95.9449C238.831 95.9449 235.448 98.3312 235.372 100.411C235.295 102.491 237.276 104.987 237.988 106.016C237.988 106.016 234.397 104.034 232.285 104.494C230.32 105.097 228.581 106.276 227.293 107.877C227.915 106.157 227.852 104.264 227.118 102.589C225.804 100.126 221.71 97.959 221.71 97.959C221.71 97.959 224.775 98.6487 226.647 96.8644C228.278 95.2552 228.3 90.8985 228.3 90.8985C229.202 92.7238 230.617 94.2457 232.372 95.2772C234.299 96.3171 238.831 95.9449 238.831 95.9449Z" fill="#FFA32C"/>
<path d="M215.306 264.141C212.986 263.385 210.523 264.239 209.833 266.067C209.143 267.895 210.358 270.008 212.679 270.763C215 271.519 217.518 270.632 218.262 268.804C219.006 266.976 217.66 264.896 215.306 264.141Z" fill="#BEBEBE"/>
<path d="M202.696 270.796C202.254 270.624 201.762 270.628 201.323 270.81C200.884 270.992 200.533 271.336 200.342 271.77C200.273 271.991 200.249 272.223 200.271 272.454C200.292 272.684 200.36 272.907 200.469 273.111C200.578 273.314 200.726 273.495 200.906 273.64C201.085 273.786 201.292 273.895 201.514 273.96C201.959 274.132 202.453 274.126 202.894 273.943C203.335 273.759 203.687 273.412 203.878 272.975C203.948 272.754 203.973 272.522 203.951 272.291C203.929 272.061 203.861 271.837 203.751 271.634C203.64 271.43 203.49 271.251 203.309 271.107C203.128 270.963 202.919 270.858 202.696 270.796Z" fill="#B3B3B3"/>
<path d="M219.685 266.253C219.225 264.71 216.915 262.969 215.131 262.313C214.689 262.097 214.2 261.995 213.709 262.016C213.218 262.037 212.74 262.181 212.318 262.433C209.931 264.086 203.692 268.607 201.645 270.096C201.376 270.293 201.181 270.575 201.092 270.897C201.002 271.219 201.024 271.561 201.152 271.869C201.359 272.315 201.715 272.675 202.159 272.887C202.895 273.249 203.73 273.361 204.535 273.204L205.629 273.029C211.103 272.121 215.788 271.355 217.572 270.785C218.431 270.435 219.125 269.774 219.517 268.934C219.909 268.093 219.969 267.136 219.685 266.253ZM216.817 268.64C215.284 269.111 210.424 269.91 205.279 270.763L204.425 270.895C207.118 268.946 211.661 265.662 213.577 264.327C214.107 264.323 214.626 264.48 215.065 264.776C216.051 265.239 216.886 265.971 217.474 266.888C217.593 267.213 217.589 267.57 217.464 267.892C217.339 268.214 217.102 268.48 216.795 268.64H216.817Z" fill="#F7705C"/>
<path d="M202.751 269.8C202.31 269.625 201.819 269.629 201.381 269.811C200.943 269.993 200.594 270.339 200.408 270.774C200.337 270.994 200.311 271.226 200.332 271.456C200.352 271.686 200.418 271.91 200.526 272.114C200.634 272.318 200.782 272.498 200.961 272.644C201.14 272.79 201.347 272.899 201.568 272.964C202.013 273.139 202.509 273.134 202.95 272.95C203.392 272.766 203.744 272.418 203.933 271.979C204.001 271.758 204.025 271.526 204.003 271.296C203.98 271.066 203.912 270.843 203.801 270.64C203.691 270.437 203.541 270.258 203.361 270.114C203.18 269.97 202.973 269.863 202.751 269.8Z" fill="#066360"/>
<path d="M202.357 270.862C202.211 270.803 202.049 270.804 201.903 270.863C201.758 270.922 201.642 271.036 201.579 271.18C201.556 271.253 201.547 271.33 201.553 271.407C201.56 271.483 201.581 271.558 201.617 271.626C201.653 271.695 201.702 271.755 201.761 271.804C201.82 271.854 201.889 271.89 201.962 271.913C202.036 271.943 202.114 271.959 202.194 271.959C202.273 271.959 202.352 271.943 202.425 271.913C202.498 271.882 202.565 271.837 202.62 271.781C202.676 271.725 202.721 271.658 202.751 271.584C202.774 271.511 202.782 271.434 202.775 271.357C202.768 271.281 202.745 271.206 202.708 271.139C202.671 271.071 202.621 271.012 202.561 270.964C202.5 270.917 202.431 270.882 202.357 270.862Z" fill="#00A7A7"/>
<path d="M215.799 261.623C213.467 260.868 211.026 261.721 210.326 263.539C209.625 265.356 210.873 267.458 213.194 268.224C215.514 268.99 218.021 268.103 218.755 266.275C219.488 264.447 218.131 262.378 215.799 261.623Z" fill="#00A7A7"/>
<path d="M214.879 263.944C214.596 263.822 214.277 263.81 213.985 263.911C213.693 264.013 213.45 264.219 213.303 264.491C213.268 264.633 213.261 264.781 213.284 264.926C213.307 265.071 213.358 265.21 213.436 265.335C213.514 265.46 213.615 265.567 213.736 265.652C213.856 265.736 213.992 265.796 214.135 265.826C214.42 265.945 214.739 265.953 215.03 265.85C215.322 265.747 215.564 265.54 215.711 265.268C215.745 265.126 215.751 264.979 215.727 264.836C215.703 264.692 215.651 264.554 215.574 264.431C215.496 264.308 215.395 264.201 215.276 264.117C215.156 264.034 215.022 263.975 214.879 263.944Z" fill="#066360"/>
<path d="M148.072 217.606C147.429 217.76 146.859 218.133 146.46 218.66C146.061 219.186 145.857 219.836 145.883 220.496C145.883 221.908 146.846 222.916 148.072 222.686C148.716 222.534 149.287 222.162 149.686 221.634C150.086 221.107 150.289 220.457 150.261 219.796C150.217 218.438 149.265 217.431 148.072 217.606Z" fill="#BEBEBE"/>
<path d="M149.626 217.814C148.983 217.968 148.414 218.341 148.015 218.868C147.615 219.395 147.411 220.044 147.437 220.704C147.437 222.116 148.4 223.123 149.626 222.894C150.267 222.736 150.834 222.363 151.233 221.837C151.632 221.31 151.837 220.663 151.816 220.004C151.816 218.635 150.809 217.628 149.626 217.814Z" fill="#066360"/>
<path d="M149.626 219.642C149.445 219.692 149.286 219.801 149.175 219.952C149.064 220.103 149.007 220.287 149.013 220.474C149.013 220.879 149.287 221.164 149.626 221.109C149.807 221.064 149.967 220.957 150.079 220.808C150.191 220.658 150.247 220.475 150.239 220.288C150.249 220.204 150.24 220.118 150.213 220.038C150.186 219.957 150.142 219.884 150.084 219.822C150.025 219.76 149.954 219.712 149.875 219.681C149.796 219.65 149.711 219.637 149.626 219.642Z" fill="#00A7A7"/>
<path d="M150.403 221.033C150.042 221.037 149.692 220.909 149.418 220.674C149.143 220.438 148.964 220.111 148.913 219.754C148.862 219.396 148.943 219.032 149.141 218.73C149.339 218.427 149.639 218.207 149.987 218.11C154.651 216.774 156.556 214.191 155.986 209.955C154.804 201.274 160.682 199.435 163.835 198.439C164.217 198.321 164.63 198.356 164.986 198.538C165.341 198.72 165.612 199.034 165.74 199.413C165.799 199.598 165.822 199.792 165.807 199.986C165.791 200.179 165.738 200.368 165.649 200.541C165.561 200.713 165.439 200.867 165.291 200.993C165.143 201.119 164.972 201.214 164.787 201.274C161.503 202.292 158.22 203.343 158.997 209.539C159.533 213.534 158.57 218.756 150.863 220.956C150.716 221.009 150.56 221.035 150.403 221.033Z" fill="#F7705C"/>
<path d="M166.112 201.548C167.393 201.427 167.097 198.154 165.817 198.264C164.536 198.373 163.561 199.194 163.627 200.103C163.693 201.011 164.831 201.624 166.112 201.548Z" fill="#004472"/>
<path d="M230.904 188.36L223.171 180.627L215.438 188.36L223.171 196.093L230.904 188.36Z" fill="#008282"/>
<path d="M228.242 174.845L236.687 183.289C237.713 184.316 238.29 185.708 238.29 187.16C238.29 188.611 237.713 190.004 236.687 191.03L234.519 193.197C234.076 193.641 233.474 193.89 232.847 193.89C232.22 193.89 231.619 193.641 231.175 193.197L218.28 180.302C217.836 179.858 217.587 179.257 217.587 178.63C217.587 178.003 217.836 177.401 218.28 176.958L220.447 174.79C221.474 173.764 222.866 173.187 224.317 173.187C225.769 173.187 227.161 173.764 228.188 174.79L228.242 174.845Z" fill="#008282"/>
<path d="M135.825 180.619L128.093 188.352L135.825 196.084L143.558 188.352L135.825 180.619Z" fill="#008282"/>
<path d="M122.314 183.277L130.759 174.832C131.786 173.806 133.178 173.229 134.63 173.229C136.081 173.229 137.473 173.806 138.5 174.832L140.667 176.999C141.111 177.443 141.36 178.044 141.36 178.671C141.36 179.299 141.111 179.9 140.667 180.343L127.771 193.239C127.328 193.682 126.727 193.932 126.1 193.932C125.472 193.932 124.871 193.682 124.428 193.239L122.26 191.072C121.747 190.559 121.342 189.949 121.066 189.278C120.791 188.607 120.652 187.888 120.657 187.163C120.662 186.438 120.811 185.721 121.096 185.054C121.38 184.386 121.795 183.783 122.314 183.277Z" fill="#008282"/>
</g>
<path fill-rule="evenodd" clip-rule="evenodd" d="M135.199 22C135.199 22 135.286 33.8991 140.092 37.4896C144.897 41.0801 154.06 40.489 157.606 40.489C157.606 40.489 147.032 45.7324 144.689 51.5013C141.526 59.2625 144.492 68.8299 144.492 68.8299C144.492 68.8299 139.479 61.4956 131.728 60.598C123.726 59.6785 111.893 65.7977 111.893 65.7977C111.893 65.7977 118.549 59.6894 117.246 52.2457C116.151 45.7653 105.85 38.5733 105.85 38.5733C111.659 39.4397 117.594 38.5913 122.927 36.1322C128.641 33.308 135.199 22 135.199 22Z" fill="#FFA32C"/>
</g>
<defs>
<clipPath id="clip0_170_1718">
<rect width="360" height="300" fill="white"/>
</clipPath>
<clipPath id="clip1_170_1718">
<rect width="360" height="165" fill="white" transform="translate(0 135)"/>
</clipPath>
<clipPath id="clip2_170_1718">
<rect width="156.494" height="219.492" fill="white" transform="translate(82.8625 65.7867)"/>
</clipPath>
</defs>
</svg>
