<svg width="360" height="300" viewBox="0 0 360 300" fill="none" xmlns="http://www.w3.org/2000/svg">
<g clip-path="url(#clip0_170_1838)">
<path d="M359.985 279.095V145.766C348.406 139.652 335.619 136.048 322.492 135.196C309.364 134.345 296.204 136.267 283.902 140.833C271.6 145.398 260.444 152.499 251.192 161.656C241.94 170.812 234.807 181.809 230.277 193.9C227.135 193.586 223.979 193.428 220.82 193.428C198.14 193.4 176.26 201.631 159.435 216.521C154.534 206.763 146.971 198.524 137.582 192.715C128.193 186.907 117.345 183.755 106.24 183.609C95.2193 166.858 77.9484 154.985 58.1117 150.525C38.275 146.064 17.4431 149.369 0.0604248 159.734V279.095H359.985Z" fill="#CBF3F3"/>
<path d="M337.844 250.685L332.445 258.067L326.713 249.68C325.587 256.354 324.742 259.47 324.179 259.027C322.002 257.476 319.561 256.316 316.97 255.601L319.036 260.858H287.318L289.188 258.067L283.683 259.396L281.738 255.158L278.118 259.588L273.065 258.318L273.759 260.813H234.696L237.32 255.557L230.895 258.023L228.738 248.795L222.404 258.023L220.322 254.199L214.289 258.982L207.442 249.636L205.074 257.225L202.058 254.642L202.676 261.182L143.131 260.828V260.725L140.115 260.813H139.18L130.296 261.064L130.915 254.509L127.898 257.107L125.53 249.503L118.728 258.864L112.786 254.08L110.719 257.905L104.43 248.662L102.288 257.905L95.8932 255.424L98.5026 260.695H59.6806L60.3594 258.2L55.3369 259.47L51.7323 255.04L49.8169 259.292L44.342 257.964L46.1971 260.754H14.0867V254.14L9.84869 258.923L4.22301 246.211L2.27734 257.166L-0.030304 254.213V299.985H359.955V260.902H339.805L337.844 250.685Z" fill="#005960"/>
<path opacity="0.1" d="M179.992 289.34C216.643 289.34 246.355 283.721 246.355 276.789C246.355 269.858 216.643 264.239 179.992 264.239C143.342 264.239 113.63 269.858 113.63 276.789C113.63 283.721 143.342 289.34 179.992 289.34Z" fill="black"/>
</g>
<path d="M175.642 79.724C174.969 80.8022 173.943 81.6159 172.739 82.0267C171.536 82.4375 170.229 82.4199 169.041 81.9771C167.854 81.5342 166.858 80.6934 166.224 79.5977C165.59 78.5019 165.357 77.2188 165.564 75.9666C165.771 74.7145 166.406 73.5706 167.36 72.7295C168.315 71.8884 169.53 71.4021 170.799 71.3532C172.068 71.3043 173.313 71.6959 174.322 72.4614C175.331 73.2269 176.041 74.319 176.332 75.5519C176.508 76.2563 176.537 76.9896 176.418 77.7071C176.3 78.4245 176.036 79.1108 175.642 79.724ZM165.286 67.391L159.602 51.1201L156.569 38.5563L166.354 36.1808L169.357 48.7676L171.68 65.8601L165.286 67.391Z" fill="#F63600"/>
<g clip-path="url(#clip1_170_1838)">
<path d="M237.214 102.603C237.109 102.494 236.984 102.407 236.844 102.347C236.705 102.287 236.555 102.257 236.404 102.257C236.252 102.257 236.102 102.287 235.963 102.347C235.824 102.407 235.698 102.494 235.594 102.603L230.331 107.711C230.113 107.923 229.989 108.213 229.986 108.517C229.983 108.82 230.101 109.113 230.314 109.33C230.528 109.546 230.819 109.67 231.124 109.673C231.429 109.676 231.722 109.559 231.94 109.346L235.18 106.197V105.418H235.962L237.18 104.228C237.294 104.126 237.386 104.002 237.449 103.863C237.513 103.725 237.547 103.575 237.551 103.423C237.554 103.27 237.526 103.119 237.468 102.978C237.41 102.837 237.323 102.71 237.214 102.603Z" fill="black"/>
<path d="M235.18 106.164L235.973 105.396L235.191 105.385L235.18 106.164Z" fill="black"/>
<path d="M243.962 107.433C243.858 107.321 243.731 107.233 243.591 107.172C243.45 107.112 243.299 107.08 243.146 107.08C242.993 107.08 242.842 107.112 242.702 107.172C242.562 107.233 242.435 107.321 242.331 107.433L236.398 113.207C236.288 113.311 236.201 113.437 236.141 113.575C236.081 113.714 236.05 113.863 236.05 114.014C236.05 114.165 236.081 114.314 236.141 114.453C236.201 114.592 236.288 114.717 236.398 114.821C236.502 114.93 236.628 115.018 236.767 115.077C236.906 115.137 237.056 115.167 237.208 115.167C237.359 115.167 237.509 115.137 237.649 115.077C237.788 115.018 237.914 114.93 238.018 114.821L243.962 109.046C244.072 108.942 244.159 108.817 244.219 108.678C244.279 108.54 244.31 108.39 244.31 108.239C244.31 108.088 244.279 107.939 244.219 107.8C244.159 107.662 244.072 107.536 243.962 107.433Z" fill="black"/>
<path d="M249.481 102.069C249.377 101.961 249.252 101.876 249.114 101.817C248.976 101.759 248.827 101.729 248.677 101.729C248.527 101.729 248.378 101.759 248.24 101.817C248.101 101.876 247.977 101.961 247.872 102.069L245.347 104.528C245.217 104.659 245.121 104.82 245.068 104.997C245.015 105.173 245.008 105.36 245.046 105.541H245.303V106.075C245.406 106.18 245.53 106.264 245.666 106.321C245.802 106.378 245.948 106.408 246.096 106.409C246.245 106.411 246.393 106.384 246.531 106.328C246.669 106.273 246.795 106.191 246.9 106.086L248.453 104.584L249.437 103.627C249.647 103.425 249.77 103.148 249.778 102.857C249.787 102.566 249.68 102.283 249.481 102.069Z" fill="black"/>
<path d="M245.046 105.519C245.078 105.715 245.163 105.9 245.292 106.053V105.519H245.046Z" fill="black"/>
<path d="M261.715 102.915C261.605 102.803 261.474 102.715 261.329 102.655C261.184 102.594 261.029 102.563 260.872 102.563C260.715 102.563 260.559 102.594 260.415 102.655C260.27 102.715 260.139 102.803 260.028 102.915L247.001 115.555L242.465 120.006C242.298 120.171 242.183 120.38 242.136 120.609C242.088 120.838 242.109 121.076 242.196 121.293C242.283 121.51 242.432 121.697 242.625 121.83C242.818 121.964 243.046 122.037 243.28 122.043C243.438 122.05 243.594 122.023 243.741 121.966C243.887 121.908 244.02 121.821 244.13 121.709L246.487 119.483L261.715 104.606C261.939 104.381 262.065 104.077 262.065 103.76C262.065 103.444 261.939 103.14 261.715 102.915Z" fill="black"/>
<path d="M220.913 111.728C217.323 111.235 213.671 111.474 210.177 112.431C206.684 113.387 203.422 115.041 200.589 117.291C200.589 117.38 200.589 117.536 200.589 117.625C196.626 121.066 193.896 125.698 192.811 130.821C191.727 135.945 192.347 141.281 194.578 146.022C194.969 146.867 201.695 147.435 206.232 149.594C206.153 148.381 206.097 147.502 206.042 146.979L210.321 143.318L219.404 145.209L221.292 150.261L216.332 157.928C215.963 157.928 215.918 157.928 215.55 157.928C216.2 158.757 216.902 159.545 217.65 160.287C221.427 160.431 231.136 157.505 234.409 153.455L234.353 153.388C237.395 150.513 239.6 146.872 240.733 142.85H240.945C245.381 129.119 235.281 113.53 220.913 111.728ZM204.511 145.176L195.897 142.951C194.818 139.832 194.47 136.509 194.88 133.236L202.757 130.199L207.818 132.658L208.79 141.56L204.511 145.176ZM217.348 126.883L208.935 130.599L203.829 128.118C203.829 127.996 203.271 118.66 203.215 118.56C206.037 116.344 209.357 114.843 212.891 114.187L218.32 120.685L217.348 126.883ZM219.695 127.328L220.611 121.453L229.851 117.881L229.985 117.803C233.084 119.92 235.582 122.799 237.236 126.16L232.488 133.481L225.862 134.027L219.695 127.328ZM233.035 151.43L223.304 148.948L221.572 144.275L226.186 136.363L232.89 135.807L238.476 142.55C237.406 145.906 235.539 148.955 233.035 151.441V151.43Z" fill="black"/>
<path d="M209.203 151.519C208.902 151.274 208.567 151.029 208.198 150.773C209.244 151.552 210.24 152.396 211.181 153.299C210.801 152.932 210.176 152.342 209.807 152.019C209.438 151.697 209.516 151.786 209.203 151.519Z" fill="black"/>
<path d="M211.192 153.343C212.868 155.012 214.108 156.437 215.516 157.95C214.136 156.327 212.674 154.774 211.136 153.299L211.192 153.343Z" fill="black"/>
<path d="M207.997 150.673L207.706 150.484L207.997 150.673Z" fill="black"/>
<path d="M206.209 149.66C206.727 149.891 207.227 150.159 207.706 150.461C207.225 150.152 206.725 149.874 206.209 149.627V149.66Z" fill="black"/>
<path d="M207.997 150.673L208.167 150.797H208.099L207.997 150.673Z" fill="black"/>
<path fill-rule="evenodd" clip-rule="evenodd" d="M197.349 85.0222C197.349 85.0222 197.349 88.3604 198.746 89.4731C200.142 90.5858 202.735 90.3299 203.751 90.3299C203.751 90.3299 200.735 91.8209 200.064 93.4677C199.551 95.0683 199.532 96.7854 200.008 98.3971C199.143 97.1772 197.838 96.3363 196.366 96.0493C194.076 95.7934 190.69 97.5292 190.69 97.5292C191.217 97.0416 191.628 96.4428 191.893 95.7767C192.158 95.1106 192.27 94.394 192.221 93.6792C191.908 91.8321 188.969 89.7847 188.969 89.7847C190.63 90.0361 192.328 89.7963 193.852 89.0948C195.472 88.2269 197.349 85.0222 197.349 85.0222Z" fill="#FF9C39"/>
<path fill-rule="evenodd" clip-rule="evenodd" d="M154.968 103.441C154.968 103.441 154.967 110.049 157.736 112.052C160.504 114.056 165.65 113.715 167.679 113.715C167.679 113.715 161.693 116.557 160.359 119.84C158.562 124.103 160.243 129.475 160.243 129.475C160.243 129.475 157.344 125.396 152.996 124.899C148.648 124.401 141.749 127.741 141.749 127.741C141.749 127.741 145.517 124.345 144.778 120.209C144.14 116.6 138.314 112.607 138.314 112.607C141.618 113.073 144.99 112.579 148.01 111.186C151.242 109.736 154.968 103.441 154.968 103.441Z" fill="#FF9C39"/>
<path fill-rule="evenodd" clip-rule="evenodd" d="M262.587 119.027C262.587 119.027 262.587 123.478 264.419 124.813C266.251 126.148 269.659 125.926 271 125.926C271 125.926 267.034 127.884 266.151 130.043C265.48 132.146 265.456 134.402 266.084 136.519C264.942 134.918 263.226 133.815 261.291 133.437C258.286 133.092 253.85 135.384 253.85 135.384C253.85 135.384 256.341 133.159 255.861 130.321C255.436 127.895 251.582 125.214 251.582 125.214C253.763 125.535 255.991 125.218 257.995 124.301C260.129 123.267 262.587 119.027 262.587 119.027Z" fill="#FF9C39"/>
<path fill-rule="evenodd" clip-rule="evenodd" d="M214.466 194.292C212.645 195.404 198.143 231.657 198.143 231.657C204.991 237.443 231.728 233.671 237.884 223.59C248.833 205.652 228.499 200 214.466 194.292Z" fill="#F6871F"/>
<path d="M148.87 147.635C144.479 146.901 141.429 145.521 139.586 147.635C137.53 150.028 139.586 152.531 141.91 156.314C143.899 159.653 145.708 163.113 145.708 163.113L156.166 148.648C156.166 148.648 153.239 148.37 148.87 147.635Z" fill="#00BCBC"/>
<path d="M154.859 185.468L209.203 183.309C210.817 183.246 212.389 183.823 213.575 184.915C214.761 186.006 215.463 187.522 215.527 189.129L221.426 217.403C221.657 218.5 221.77 219.619 221.762 220.741C221.666 230.527 217.798 239.903 210.956 246.928C204.114 253.953 194.822 258.091 185.003 258.484C175.467 258.867 166.131 255.687 158.826 249.569C151.522 243.452 146.776 234.837 145.519 225.414C145.256 223.439 145.256 221.437 145.519 219.461L149.016 191.799C148.978 191 149.1 190.202 149.374 189.451C149.648 188.699 150.069 188.009 150.612 187.42C151.155 186.832 151.811 186.356 152.54 186.021C153.268 185.686 154.057 185.498 154.859 185.468Z" fill="#00BCBC"/>
<path d="M202.824 139.112C206.768 137.064 209.248 134.816 211.661 136.296C214.354 137.932 213.136 140.959 212.153 145.265C211.281 149.048 210.645 152.887 210.645 152.887L196.187 142.305C196.187 142.305 198.857 141.17 202.824 139.112Z" fill="#00BCBC"/>
<path d="M217.103 162.913C217.006 162.268 216.875 161.63 216.712 160.999C214.386 151.928 208.744 144.048 200.891 138.903C193.038 133.758 183.539 131.717 174.255 133.181C164.965 134.637 156.557 139.496 150.677 146.805C144.797 154.114 141.87 163.347 142.469 172.693C142.469 173.35 142.603 173.995 142.703 174.63C142.799 175.382 142.952 176.126 143.161 176.855C143.306 177.389 143.452 177.968 143.631 178.435L152.367 204.473C152.49 205.248 152.765 205.991 153.176 206.66C153.587 207.329 154.127 207.91 154.764 208.371C155.401 208.832 156.124 209.164 156.889 209.346C157.655 209.529 158.45 209.559 159.228 209.436L212.164 201.079C213.733 200.827 215.138 199.967 216.071 198.687C217.005 197.407 217.392 195.81 217.147 194.247L217.371 166.796C217.371 166.251 217.371 165.683 217.371 165.149C217.336 164.398 217.247 163.651 217.103 162.913Z" fill="#00BCBC"/>
<path d="M209.338 163.925C209.338 163.525 209.226 163.135 209.159 162.735C207.751 153.888 199.807 147.78 191.405 149.115C188.865 149.539 186.475 150.601 184.459 152.199C182.444 153.797 180.87 155.879 179.886 158.25C179.473 159.218 179.238 159.574 178.769 159.719L178.489 159.786H178.199C177.719 159.786 177.383 159.519 176.679 158.673C175.011 156.721 172.87 155.225 170.46 154.326C168.05 153.426 165.449 153.153 162.904 153.532C154.513 154.868 148.848 163.113 150.256 171.97C150.312 172.36 150.379 172.749 150.446 173.15C150.98 177.329 152.148 181.403 153.909 185.234C158.379 194.892 166.859 199.543 184.277 196.795H184.445H184.623C202.042 194.046 208.667 187.003 209.918 176.443C210.358 172.265 210.162 168.045 209.338 163.925Z" fill="white"/>
<path fill-rule="evenodd" clip-rule="evenodd" d="M164.825 171.514C166.803 171.145 168.847 171.43 170.646 172.326C170.67 172.338 170.696 172.343 170.722 172.34C170.748 172.338 170.772 172.327 170.792 172.311C170.813 172.294 170.828 172.272 170.835 172.247C170.843 172.222 170.843 172.196 170.836 172.171C170.318 170.931 169.398 169.9 168.221 169.245C167.044 168.589 165.681 168.347 164.349 168.556C163.017 168.765 161.795 169.414 160.878 170.399C159.962 171.383 159.404 172.646 159.295 173.984C159.292 174.012 159.298 174.041 159.313 174.065C159.327 174.089 159.349 174.108 159.375 174.12C159.401 174.131 159.431 174.133 159.458 174.127C159.486 174.121 159.511 174.106 159.529 174.085C160.966 172.675 162.826 171.772 164.825 171.514Z" fill="#008282"/>
<path d="M206.757 201.635C213.594 198.23 226.41 216.957 219.583 233.125C215.672 242.255 208.729 249.77 199.919 254.412C199.919 254.412 214.444 239.946 207.617 225.971C202.857 216.234 196.277 206.865 206.757 201.635Z" fill="#00B4B4"/>
<path fill-rule="evenodd" clip-rule="evenodd" d="M194.332 166.863C196.31 166.494 198.354 166.779 200.153 167.675C200.178 167.689 200.206 167.695 200.233 167.692C200.261 167.689 200.287 167.678 200.308 167.659C200.329 167.641 200.343 167.616 200.35 167.589C200.356 167.562 200.354 167.534 200.344 167.508C199.822 166.274 198.899 165.249 197.724 164.599C196.549 163.948 195.188 163.708 193.86 163.919C192.532 164.129 191.313 164.776 190.398 165.758C189.483 166.74 188.925 167.999 188.813 169.333C188.813 169.36 188.821 169.387 188.837 169.409C188.852 169.432 188.874 169.449 188.9 169.459C188.925 169.468 188.953 169.47 188.979 169.464C189.006 169.457 189.03 169.443 189.048 169.422C190.481 168.016 192.337 167.118 194.332 166.863Z" fill="#008282"/>
<path d="M191.748 179.905C191.867 179.497 191.853 179.062 191.709 178.662C191.564 178.263 191.296 177.919 190.944 177.68L181.681 172.116C181.46 171.972 181.211 171.873 180.951 171.825C180.691 171.777 180.423 171.782 180.164 171.837C179.905 171.893 179.66 172 179.443 172.151C179.226 172.302 179.041 172.494 178.899 172.717L173.682 181.485C173.462 181.85 173.365 182.275 173.403 182.699C173.441 183.123 173.613 183.524 173.894 183.844C177.35 183.147 180.33 182.524 182.832 181.975C185.335 181.426 188.307 180.736 191.748 179.905Z" fill="#FF9C39"/>
<path d="M186.888 177.858C187.877 177.916 188.858 178.072 189.815 178.325C186.966 176.5 184.374 175.844 181.994 176.356C179.615 176.868 177.525 178.581 175.738 181.374C176.354 180.868 176.995 180.392 177.659 179.95C179.078 178.995 180.686 178.354 182.374 178.069C183.854 177.729 185.383 177.658 186.888 177.858Z" fill="#F6871F"/>
<path d="M193.204 266.429L191.83 265.272L192.411 258.173L194.757 258.64L193.204 266.429Z" fill="#FFA32C"/>
<path d="M198.399 255.146C197.662 258.918 195.416 260.298 193.07 259.831C190.724 259.363 189.182 257.249 189.919 253.477C190.657 249.705 193.17 247.034 195.506 247.491C197.841 247.947 199.148 251.385 198.399 255.146Z" fill="#00BCBC"/>
<path d="M201.785 268.944C198.377 268.543 194.712 264.426 194.712 264.426L190.69 266.251C191.277 267.936 192.025 269.561 192.925 271.103C193.539 272.215 198.511 280.85 202.042 274.964C202.757 273.784 204.366 275.665 205.237 274.218C206.511 272.126 204.846 269.3 201.785 268.944Z" fill="#FFA32C"/>
<path d="M192.444 268.154C192.725 268.269 193.026 268.325 193.329 268.32C193.633 268.315 193.932 268.249 194.209 268.125C194.486 268.002 194.734 267.823 194.939 267.6C195.144 267.378 195.302 267.116 195.402 266.831C195.502 266.545 195.543 266.243 195.522 265.941C195.501 265.64 195.419 265.346 195.28 265.077C195.141 264.809 194.949 264.571 194.715 264.379C194.481 264.186 194.21 264.044 193.919 263.959C193.334 263.725 192.681 263.718 192.092 263.941C191.502 264.164 191.017 264.599 190.735 265.161C190.595 265.782 190.692 266.433 191.008 266.986C191.324 267.54 191.836 267.956 192.444 268.154Z" fill="#FFA32C"/>
<path d="M161.976 254.445C161.666 255.249 161.182 255.975 160.559 256.571C159.935 257.168 159.187 257.619 158.367 257.895C159.205 256.544 159.724 255.022 159.887 253.444C160.303 251.243 160.393 248.994 160.155 246.767L163.507 249.505C163.507 249.505 162.468 253.321 161.976 254.445Z" fill="#FFA32C"/>
<path d="M144.021 260.298C138.1 254.59 145.228 248.437 147.53 251.541C148.77 253.221 148.993 251.764 147.753 250.094C146.513 248.425 149.474 243.652 154.222 247.869C163.105 255.825 162.769 263.525 156.993 264.805C152.848 265.75 146.736 262.902 144.021 260.298Z" fill="#FFA32C"/>
<path d="M123.944 206.186C123.802 206.16 123.671 206.095 123.564 205.997C123.431 205.862 123.357 205.68 123.357 205.491C123.357 205.302 123.431 205.12 123.564 204.985L134.022 193.858C134.088 193.791 134.168 193.737 134.255 193.701C134.342 193.665 134.436 193.646 134.53 193.646C134.625 193.646 134.719 193.665 134.806 193.701C134.893 193.737 134.972 193.791 135.039 193.858C135.172 193.993 135.246 194.175 135.246 194.364C135.246 194.553 135.172 194.735 135.039 194.87L124.57 205.997C124.489 206.077 124.389 206.136 124.28 206.169C124.171 206.202 124.056 206.208 123.944 206.186Z" fill="#333333"/>
<path d="M122.603 214.231C122.475 214.21 122.354 214.154 122.255 214.069C122.155 213.985 122.081 213.876 122.038 213.753C121.996 213.63 121.988 213.498 122.015 213.371C122.041 213.243 122.102 213.126 122.19 213.03L132.659 201.903C132.789 201.764 132.97 201.682 133.16 201.676C133.351 201.67 133.536 201.739 133.676 201.869C133.815 201.999 133.897 202.179 133.903 202.368C133.909 202.558 133.839 202.743 133.709 202.882L123.24 214.009C123.16 214.095 123.06 214.16 122.949 214.198C122.838 214.237 122.72 214.249 122.603 214.231Z" fill="#333333"/>
<path d="M235.18 185.167C235.04 185.145 234.911 185.079 234.811 184.978C234.744 184.913 234.691 184.835 234.655 184.749C234.619 184.663 234.6 184.571 234.6 184.477C234.6 184.384 234.619 184.292 234.655 184.206C234.691 184.12 234.744 184.042 234.811 183.977L245.28 172.849C245.345 172.782 245.422 172.727 245.508 172.689C245.594 172.65 245.686 172.63 245.78 172.627C245.874 172.624 245.968 172.64 246.055 172.674C246.143 172.707 246.223 172.757 246.292 172.822C246.36 172.886 246.414 172.963 246.453 173.048C246.491 173.134 246.512 173.226 246.515 173.319C246.518 173.413 246.502 173.506 246.468 173.593C246.434 173.681 246.384 173.761 246.319 173.829L235.862 184.956C235.775 185.046 235.668 185.112 235.548 185.149C235.429 185.186 235.302 185.192 235.18 185.167Z" fill="#333333"/>
<path d="M233.839 193.168C233.701 193.148 233.572 193.086 233.471 192.99C233.403 192.923 233.35 192.845 233.314 192.758C233.277 192.671 233.258 192.577 233.258 192.483C233.258 192.389 233.277 192.296 233.314 192.209C233.35 192.122 233.403 192.043 233.471 191.977L243.928 180.85C244.059 180.711 244.239 180.63 244.43 180.623C244.621 180.617 244.806 180.687 244.945 180.816C245.084 180.946 245.166 181.126 245.172 181.316C245.179 181.506 245.109 181.69 244.979 181.829L234.521 192.956C234.436 193.048 234.328 193.116 234.208 193.153C234.089 193.19 233.962 193.195 233.839 193.168Z" fill="#333333"/>
<path d="M146.938 207.6C146.938 207.6 155.742 200.356 152.066 218.66C148.647 235.685 155.485 245.899 155.485 245.899C152.255 243.181 149.663 239.79 147.891 235.966C146.119 232.143 145.21 227.979 145.228 223.767C145.272 218.336 145.844 212.921 146.938 207.6Z" fill="#00B4B4"/>
<path d="M191.059 192.311C188.701 189.395 180.188 191.198 173.272 193.257C160.412 197.107 142.513 205.919 134.927 219.283L134.815 219.472L134.536 219.973C134.528 220.017 134.528 220.062 134.536 220.107C133.396 222.158 132.768 224.452 132.706 226.795C132.644 229.138 133.149 231.462 134.178 233.57C135.105 235.645 136.479 237.491 138.203 238.975C139.928 240.46 141.96 241.548 144.156 242.161L144.245 242.316C144.558 242.316 144.882 242.339 145.217 242.383C149.152 242.939 153.164 242.271 156.703 240.469C157.931 239.905 159.112 239.243 160.233 238.489C171.752 233.159 182.5 223.445 175.875 216.123C187.908 214.409 188.958 205.085 183.953 203.572C191.83 198.887 192.936 194.636 191.059 192.311Z" fill="#008282"/>
<path d="M167.998 208.735C170.538 207.308 173.2 206.109 175.953 205.152C178.409 204.32 180.971 203.837 183.562 203.716" stroke="#007878" stroke-width="2" stroke-miterlimit="10" stroke-linecap="round"/>
<path d="M164.188 221.776C165.666 220.349 167.388 219.196 169.272 218.371C171.146 217.577 173.086 216.948 175.071 216.49" stroke="#007878" stroke-width="2" stroke-miterlimit="10" stroke-linecap="round"/>
<path fill-rule="evenodd" clip-rule="evenodd" d="M197.26 191.621C199.103 189.117 206.198 190.286 212.03 191.732C223.013 194.47 233.828 198.909 239.035 204.406C239.951 205.519 231.694 228.263 231.694 228.263C221.717 229.832 202.958 220.296 210.745 210.782C200.69 209.814 199.483 202.125 203.572 200.679C196.913 197.107 195.796 193.613 197.26 191.621Z" fill="#FF9C39"/>
<path d="M241.023 218.709C243.579 211.599 241.29 204.279 235.911 202.361C230.531 200.443 224.098 204.652 221.542 211.762C218.985 218.873 221.274 226.193 226.653 228.111C232.033 230.029 238.466 225.82 241.023 218.709Z" fill="#FF9C39"/>
</g>
<defs>
<clipPath id="clip0_170_1838">
<rect width="360" height="165" fill="white" transform="translate(0 135)"/>
</clipPath>
<clipPath id="clip1_170_1838">
<rect width="149" height="192" fill="white" transform="translate(122 85)"/>
</clipPath>
</defs>
</svg>
