<svg xmlns="http://www.w3.org/2000/svg" xmlns:xlink="http://www.w3.org/1999/xlink" width="362" height="228" viewBox="0 0 362 228">
    <defs>
        <path id="a" d="M.022.433H73.44v68.463H.022z"/>
        <path id="c" d="M.022.182H131.88V123.14H.022z"/>
        <path id="e" d="M.122.183h79.22v96.11H.122z"/>
        <path id="g" d="M.656.183h60.679v96.11H.656z"/>
        <path id="i" d="M.62.413h88.172V112.86H.62z"/>
        <path id="k" d="M.33.413h75.13v112.446H.33z"/>
        <path id="m" d="M.353.434h34.661v35.157H.354z"/>
        <path id="o" d="M0 .122h46.388V47H0z"/>
    </defs>
    <g fill="none" fill-rule="evenodd" transform="translate(0 -51)">
        <path fill="#A2D7C5" d="M163.673 212.866c34.774-2.673 69.257 73.368 130.145 45.165 60.889-28.204 18.008-79.794 19.184-100.329.556-12.71 21.45-69.007-19.01-94.911-40.46-25.904-70.657-.415-105.955 11.332-34.01 11.319-97.157 2.923-112.164 8.98-35.149 14.19-46.886 39.76-32.73 74.767 14.157 35.007 85.757 57.668 120.53 54.996z" opacity=".265"/>
        <path fill="#1C2C57" d="M21.192 251.237c-26.525 0-29.106 8.823-2.308 8.823 26.798 0 60.729.69 89.852 2.784 29.123 2.095-38.186 13.05 8.816 15.63S244.92 273.66 290.8 266.93c45.881-6.73 62.764-8.122 12.87-12.657-49.895-4.535-173.672-3.037-209.139-3.037H21.192z" opacity=".423"/>
        <path fill="#1C2C57" d="M50.311 251.235c-21.198 0-42.779 3.74-3.34 3.74 31.02 0 44.84 1.805 68.115 3.878 22.884 2.038-12.103 8.022 22.265 10.746 19.06 1.295 48.49-.805 70.96-2.641 21.815-1.783 33.106-2.308 57.14-4.734 48.792-4.923 57.503-3.371 10.6-7.985-39.873-4.487-138.788-3.004-167.132-3.004H50.311z" opacity=".374"/>
        <g transform="translate(192.785 185)">
            <mask id="b" fill="#fff">
                <use xlink:href="#a"/>
            </mask>
            <path fill="#005960" d="M68.929 54.987c6.637-7.654 5.86-19.28-1.738-25.968a18.181 18.181 0 0 0-12.105-4.546c-.331 0-.64.082-.966.097.614-1.819.94-3.724.966-5.644C55.086 8.712 46.868.433 36.73.433c-10.136 0-18.354 8.279-18.354 18.493.026 1.92.352 3.825.965 5.644-.326 0-.634-.097-.965-.097C8.289 24.425.072 32.626.023 42.79a18.488 18.488 0 0 0 4.511 12.197c-6.295 7.23-5.965 18.136.756 24.966-7.095 7.294-6.979 19.004.26 26.153a18.286 18.286 0 0 0 12.827 5.286h36.709c10.136-.011 18.345-8.3 18.333-18.514a18.57 18.57 0 0 0-5.247-12.925c6.722-6.83 7.052-17.736.757-24.966" mask="url(#b)"/>
        </g>
        <g transform="translate(70 131.251)">
            <mask id="d" fill="#fff">
                <use xlink:href="#c"/>
            </mask>
            <path fill="#005960" d="M123.776 98.162c11.921-13.747 10.524-34.629-3.12-46.64a32.66 32.66 0 0 0-21.742-8.162c-.593 0-1.147.145-1.733.173a33.088 33.088 0 0 0 1.733-10.137C98.914 15.052 84.156.182 65.95.182c-18.205 0-32.963 14.87-32.963 33.214.046 3.45.63 6.87 1.734 10.137-.587 0-1.141-.173-1.734-.173C14.869 43.272.11 58 .025 76.254a33.195 33.195 0 0 0 8.1 21.908C-3.182 111.147-2.588 130.733 9.485 143c-12.745 13.1-12.536 34.128.465 46.969a32.838 32.838 0 0 0 23.037 9.494h65.927c18.206-.02 32.948-14.908 32.927-33.252A33.35 33.35 0 0 0 122.418 143c12.072-12.267 12.665-31.853 1.358-44.838" mask="url(#d)"/>
        </g>
        <g transform="translate(154.842 157.763)">
            <mask id="f" fill="#fff">
                <use xlink:href="#e"/>
            </mask>
            <path fill="#59C09C" d="M.122 87.549S9.967 17.49 56.298.183c45.235 38.83 9.922 96.242 9.922 96.242l-49.916 36.044L.122 87.549z" mask="url(#f)"/>
        </g>
        <g transform="translate(169.968 157.763)">
            <mask id="h" fill="#fff">
                <use xlink:href="#g"/>
            </mask>
            <path fill="#006769" d="M1.47 38.257L21.42 62.35 40.083.613c.362-.143.721-.293 1.087-.43.179.153.344.309.52.462L31.694 33.71l26.343-12.05c.119.249.23.499.347.748l.3.666-27.59 12.621-16.66 55.104 46.9-19.665a95.473 95.473 0 0 1-.509 1.902L13.85 92.73 2.02 131.86l-.843.61-.521-1.446 20.224-66.89L.684 39.738c.259-.495.521-.988.787-1.482" mask="url(#h)"/>
        </g>
        <g transform="translate(93.677 141.196)">
            <mask id="j" fill="#fff">
                <use xlink:href="#i"/>
            </mask>
            <path fill="#004966" d="M20.604 118.09S-20.624 47.91 15.356.414c97.962 28.756 69.632 125.753 69.632 125.753l-64.384-8.075z" mask="url(#j)"/>
        </g>
        <g transform="translate(94.334 141.196)">
            <mask id="l" fill="#fff">
                <use xlink:href="#k"/>
            </mask>
            <path fill="#59C09C" d="M14.698.413c.34.1.673.204 1.012.306l26.534 92.297L74.44 42.628c.348.569.686 1.139 1.02 1.711L42.898 95.296l7.657 26.634-1.919-.24-15.264-53.094L.51 58.1a98.742 98.742 0 0 1-.18-1.935l32.45 10.363L14.036 1.323c.221-.303.432-.608.662-.91" mask="url(#l)"/>
        </g>
        <path fill="#FAB08A" d="M286.398 218.158l4.232 10.552-6.982 17.869-7.407-24.468z"/>
        <path fill="#58C4C5" d="M176.583 191.632l-6.398 13.987-6.178 36.223h6.178c15.885-17.034 15.885-48.297 15.885-48.297l-9.487-1.913z"/>
        <path fill="#A2D7C5" d="M227.547 255.105h-67.054c-4.24 0-7.517-3.723-6.98-7.928l7.228-56.493h9.544s1.952 15.943 2.17 24.89c.867 9.815-4.772 24.565-4.772 24.565s32.752-19.956 46.85-18.654c11.063 1.41 13.745-.65 13.745-.65l-.73 34.27z"/>
        <path fill="#118C8C" d="M270.572 204.869s9.517-1.304 16.22 13.918c-2.81 3.48-6.811 5.655-6.811 5.655s.693 11.022-3.136 13.483c-3.832 2.463-27.467 17.18-27.467 17.18h-22.06V225.53l30.927-21.583 12.327.922z"/>
        <path fill="#F79C82" d="M262.378 195.421c-1.442 0 .538 9.159.538 9.159s.11 13.578 4.948 13.578c5.499 0 5.499-13.977 5.499-13.977v-3.728s-9.542-5.032-10.985-5.032"/>
        <path fill="#FAB08A" d="M271.88 202.874c1.322.197 2.58.199 3.32-.255 4.878-5.346 4.878-22.356 4.878-22.356h-15.609l-2.398 10.804a9.265 9.265 0 0 0 2.09 8.12c2.17 1.93 4.84 3.263 7.719 3.687"/>
        <path fill="#1C2C57" d="M222.991 202.009c12.374-6.753 20.253-3.341 24.344-5.211 6.773-3.094 10.481-24.262 22.492-23.122 12.01 1.139 12.01 9.28 12.01 9.28s2.672 6.957-13.903 5.361c-2.656-.255-6.012 1.153-6.074 3.847a211.87 211.87 0 0 0 .094 12.612s-12.361 3.91-17.037 8.304c-4.675 4.398-13.22 26.867-26.924 26.867-12.9-1.14-14.995-27.029 4.998-37.938"/>
        <path fill="#FAB08A" d="M251.366 234.097l-5.605 10.47c-1.37 1.817-.116 3.123 2.151 3.175l31.207.748v5.668h-48.51c-5.695 0 8.18-27.474 8.18-27.474l12.577 7.413z"/>
        <path fill="#1C2C57" d="M329 225.737h-43.323l-14.233 29.368h43.33z"/>
        <path fill="#1C2C57" d="M254.178 257h59.474v-3.79h-59.474z"/>
        <path fill="#E9E9EA" d="M302.14 236.158c0 1.047.86 1.895 1.92 1.895 1.059 0 1.918-.848 1.918-1.895a1.907 1.907 0 0 0-1.918-1.895c-1.06 0-1.92.85-1.92 1.895"/>
        <path fill="#FAB08A" d="M162.089 189.737l1.526-9.046 1.22-.283a5.642 5.642 0 0 1 2.373-.036l1.596.319v9.046h-6.715z"/>
        <path fill="#FAA525" d="M163.132 181.952l-7.25-9.938c-1.16-1.592-2.156-3.683-.847-5.563 0 0 .86-1.255 1.921-2.29.923-.213 13.766 14.401 13.766 14.401l-.006.128c-.086 1.826-1.193 3.468-3.629 3.468l-3.955-.206z"/>
        <path fill="#FFF" d="M157.293 163.902l13.789 14.466.6-.872-13.765-14.285zM161.901 179.316l-.771-1.195 2.106-1.647.771 1.195zM159.948 176.474l-.737-1.167 2.141-1.675.737 1.167z"/>
        <path fill="#FAA525" d="M180.773 185.218l-3.82-11.373c-.611-1.82-.916-4.048.887-5.354 0 0 1.19-.877 2.503-1.491.934.098 8.605 17.508 8.605 17.508l-.045.115c-.634 1.643-2.173 2.797-4.469 2.029l-3.661-1.434z"/>
        <path fill="#FFF" d="M180.315 166.486l8.751 17.567.841-.607-8.783-17.393zM180.706 182.158l-.391-1.19 2.487-.705.39 1.19zM179.724 180.263l-.368-1.175 2.509-.72.368 1.175z"/>
        <path fill="#FAB08A" d="M177.437 192.131l4.087-7.131 5.506 1.807-2.553 6.72z"/>
        <g transform="translate(211.011 131)">
            <mask id="n" fill="#fff">
                <use xlink:href="#m"/>
            </mask>
            <path fill="#FFD052" d="M35.014 18.012c0 9.708-7.759 17.58-17.33 17.58-9.57 0-17.33-7.872-17.33-17.58C.353 8.305 8.113.434 17.683.434c9.571 0 17.33 7.87 17.33 17.578" mask="url(#n)"/>
        </g>
        <path fill="#FFF" d="M220.604 151.842h18.226s-1.918 9.474-9.262 9.474-8.964-9.474-8.964-9.474M237.803 143.316c.04-.134.067-.273.067-.421 0-.814-.645-1.474-1.44-1.474-.794 0-1.437.66-1.437 1.474 0 .148.026.287.065.42h2.745zM224.374 143.316c.038-.134.067-.273.067-.421 0-.814-.645-1.474-1.44-1.474-.795 0-1.438.66-1.438 1.474 0 .148.027.287.066.42h2.745z"/>
        <g>
            <g transform="matrix(-1 0 0 1 362 160)">
                <mask id="p" fill="#fff">
                    <use xlink:href="#o"/>
                </mask>
                <path fill="#FF7900" d="M46.388 23.561c0 12.945-10.385 23.44-23.194 23.44C10.384 47 0 36.505 0 23.56 0 10.616 10.384.122 23.194.122c12.81 0 23.194 10.494 23.194 23.44" mask="url(#p)"/>
            </g>
            <path fill="#FF7900" d="M323.976 177.265l5.753 16.306L306 190.736z"/>
            <g stroke="#FFF" stroke-linecap="round" stroke-width="4">
                <path d="M328.78 184.939l6.275 6.341M348.712 176.306l-12.939 14.028"/>
            </g>
        </g>
        <circle cx="19" cy="147" r="12" fill="#A2D7C5" opacity=".27"/>
    </g>
</svg>
