<svg xmlns="http://www.w3.org/2000/svg" xmlns:xlink="http://www.w3.org/1999/xlink" width="375" height="265" viewBox="0 0 375 265">
    <defs>
        <path id="a" d="M0 0c62.5 6.723 125 10.085 187.5 10.085S312.5 6.723 375 0v265H0V0z"/>
        <path id="c" d="M.136.14h134.7v89.418H.136z"/>
        <path id="e" d="M0 243h194.592V.09H0z"/>
        <path id="g" d="M.155.182h41.613V50.18H.155z"/>
        <path id="i" d="M.23.182h31.874V50.18H.229z"/>
        <path id="k" d="M.149.097h46.315v58.497H.15z"/>
        <path id="m" d="M.06.097h39.466v58.497H.06z"/>
        <path id="o" d="M.007.107h44.76V60.86H.006z"/>
        <path id="q" d="M.193.107h38.14V60.86H.192z"/>
        <path id="s" d="M.117.562H110.75v104.307H.117z"/>
        <path id="u" d="M.27.18h120.835v145.608H.271z"/>
        <path id="w" d="M.082.18h92.554v145.608H.082z"/>
        <path id="y" d="M.028.529h134.488v170.358H.028z"/>
        <path id="A" d="M.589.529h114.596v170.358H.589z"/>
    </defs>
    <g fill="none" fill-rule="evenodd" opacity=".21">
        <mask id="b" fill="#fff">
            <use xlink:href="#a"/>
        </mask>
        <use fill="#FFF" xlink:href="#a"/>
        <g mask="url(#b)" opacity=".133">
            <path fill="#00C9C3" d="M155.373 185h-10.746c-6.422 0-11.627-5.205-11.627-11.627v-10.746c0-6.421 5.205-11.627 11.627-11.627h10.746c6.421 0 11.627 5.206 11.627 11.627v10.746c0 6.422-5.206 11.627-11.627 11.627"/>
            <path fill="#59C09C" d="M278 117h24V93h-24z"/>
            <path fill="#009792" d="M34 106c0-6.075 4.925-11 11-11s11 4.925 11 11-4.925 11-11 11-11-4.925-11-11M276 168a7 7 0 1 1 14 0 7 7 0 0 1-14 0"/>
        </g>
        <g mask="url(#b)">
            <g transform="translate(270 78)">
                <path fill="#FFEDDC" d="M74.868 47.876s.502 4.027-3.012 4.53c-3.514.504-6.578 7.246-.688 10.07l7.213-8.895-.334-7.214-3.18 1.51z"/>
                <g transform="translate(59.755 134.658)">
                    <mask id="d" fill="#fff">
                        <use xlink:href="#c"/>
                    </mask>
                    <path fill="#007C79" d="M78.949 47.447V.14H.136v89.418h134.7v-42.11z" mask="url(#d)"/>
                </g>
                <path fill="#F79C82" d="M84.07 53.245l-4.35-6.207-3.346 1.006.836 6.543s3.765 2.6 6.777-1.426"/>
                <path fill="#006769" d="M77.21 54.587L64.43 70.258a.553.553 0 0 1-.601.146l-7.87-3.067 2.51 7.046s9.37 1.51 9.873 1.342c.502-.168 6.667-.926 6.667-.926l2.201-20.212z"/>
                <path fill="#00C9C3" d="M36.131 104.329v43.203H2.498v76.747h97.553V104.33z"/>
                <path fill="#FAB08A" d="M84.74 39.656c0 5.003-3.371 9.06-7.53 9.06-4.158 0-7.53-4.057-7.53-9.06s3.372-9.059 7.53-9.059c4.159 0 7.53 4.056 7.53 9.06"/>
                <path fill="#FFEDDC" d="M97.799 81.217c-9.946 3.294-.844-20.59-.844-20.59l-12.884-7.382s-7.028-.671-3.849-8.892c0 0 1.506-2.18.837-4.697 0 0-6.384.682-9.132-6.453 0 0-2.757 3.501-2.084 8.333 0 0-4.898-7.872 2.431-13.036 6.191-4.362 12.466-1.258 16.65 5.284 4.183 6.543 5.187 7.047 7.696 7.718 1.703.455 3.944 2.453 5.471 4.478 1.232 1.633 4.641 2.754 6.577 3.406 5.247 1.768 17.81 22.332-10.87 31.831"/>
                <path fill="#59C09C" d="M101.808 59.872c0-4.002-3.213-7.25-7.194-7.296l-.002-.002-.023.001-.06-.001c-.333 0-.66.025-.98.068l-9.478.603-6.86 1.342-4.178 5.214a10.885 10.885 0 0 0-1.56 10.966l1.22 2.945.669 7.214S94.863 98.96 94.863 98.625c0-.336 6.792-37.259 6.792-37.259.1-.483.153-.982.153-1.494"/>
                <path fill="#004060" d="M39.608 54.09l4.73 17.655c.1.444.411.81.833.979l10.203 4.092 3.514-6.543-4.261-16.297a1.379 1.379 0 0 0-1.269-1.03l-12.342-.54a1.38 1.38 0 0 0-1.408 1.683"/>
                <path fill="#F79C82" d="M58.553 68.931l.35.133c.368.185.658.495.818.876l.4.95a5.465 5.465 0 0 0 2.22 2.568l.981.59-.67 3.187-6.729-2.053a1.551 1.551 0 0 1-1.086-1.303l-.062-.526a5.96 5.96 0 0 1 .265-2.577 1.436 1.436 0 0 1 1.702-.945l1.701.35a.286.286 0 0 0 .335-.35l-.225-.9zM40.957 62.684l1.08 4.118c.08.31.4.494.707.404.909-.266 2.58-1.04 2.554-3.123-.027-2.16-2.59-2.215-3.838-2.113a.57.57 0 0 0-.503.714"/>
                <path fill="#004966" d="M50.808 92.503a12.419 12.419 0 0 1-9.239 4.109 12.38 12.38 0 0 1-5.686-1.378l-18.911 28.64-4.183-2.182 17.244-42.318.068-.167.257-.63.043-.016c2.04-4.116 6.273-6.946 11.168-6.946 1.723 0 3.682.084 5.522.755l37.147 11.74s4.532 1.864 7.118 4.12v.002a11.059 11.059 0 0 1 3.926 8.464c0 6.115-4.945 11.072-11.044 11.072-2.125 0-5.843-.912-7.72-1.99a20.815 20.815 0 0 0-.807-.447L50.808 92.503z"/>
                <path fill="#003A4C" d="M76.89 105.979l-32.644-4.083-5.689 34.56s-4.685-.336-4.685-.671c0-.336-2.008-41.606-2.008-41.606s-.167-10.737 14.558-5.033L76.89 105.98z"/>
                <mask id="f" fill="#fff">
                    <use xlink:href="#e"/>
                </mask>
                <path fill="#00C9C3" d="M57.884 121.273h37.984v-16.944H57.884z" mask="url(#f)"/>
                <path fill="#F79C82" d="M7.793 132.591c.37-.07.724-.209 1.048-.4l6.355-3.765c.032-.337.115-.669.25-.984l1.526-3.569-3.928-2.047s-2.156 6.132-7.44 7.546a4.753 4.753 0 0 1-1.662.132c-.231-.021-.51-.042-.81-.054.538 3.503 3.368 3.387 4.66 3.141" mask="url(#f)"/>
                <path fill="#99DCDC" d="M1.745 132.932s1.84 1.678 4.35 1.678 4.686-2.013 6.359-2.18c1.477-.149 3.214-.95 2.797-2.982a3.431 3.431 0 0 1-.055-1.023L8.84 132.19c-.324.192-.678.33-1.048.4-1.293.247-4.123.363-4.662-3.14-2.039-.08-5.1.24-1.386 3.482" mask="url(#f)"/>
                <path fill="#F79C82" d="M33.203 148.534c3.346-.838 2.844-3.523 4.35-4.865 1.158-1.032 1.72-2.164 1.767-3.471a4.342 4.342 0 0 0-.344-.303s-.67-1.678-.502-3.523l-4.321-.44s.807 6.311-1.201 8.492c0 0-.97 1.7-2.6 3.035.28.776 1.005 1.538 2.85 1.075" mask="url(#f)"/>
                <path fill="#99DCDC" d="M30.442 151.135c1.506 0 5.187-.504 6.693-3.188 1.506-2.684 2.844-3.69 2.844-3.69s1.197-2.253-.659-4.059c-.046 1.307-.609 2.439-1.767 3.471-1.506 1.342-1.004 4.027-4.35 4.865-1.846.463-2.57-.299-2.85-1.075-.286.233-.591.456-.915.656-2.176 1.342-.502 3.02 1.004 3.02" mask="url(#f)"/>
                <path fill="#59C09C" d="M93.525 55.677L86.584 71.68a4.414 4.414 0 0 1-4.115 2.658l-19.147-.29-.67 3.187 22.162 7.058a7.277 7.277 0 0 0 8.893-4.07l7.933-19.544-8.115-5.002z" mask="url(#f)"/>
            </g>
            <g transform="translate(352.769 251.415)">
                <mask id="h" fill="#fff">
                    <use xlink:href="#g"/>
                </mask>
                <path fill="#59C09C" d="M.155 45.631S5.325 9.186 29.663.181c23.763 20.2 5.212 50.068 5.212 50.068L8.655 69l-8.5-23.368z" mask="url(#h)"/>
            </g>
            <g transform="translate(360.92 251.415)">
                <mask id="j" fill="#fff">
                    <use xlink:href="#i"/>
                </mask>
                <path fill="#006769" d="M.657 19.989l10.479 12.534L20.94.406c.19-.075.38-.153.572-.224.093.08.18.16.273.24l-5.252 17.201 13.838-6.268c.063.13.121.259.182.389l.158.346-14.493 6.566-8.751 28.666 24.637-10.23a52.29 52.29 0 0 1-.268.99L7.16 48.326.946 68.682.503 69l-.274-.752 10.624-34.799L.243 20.76c.137-.257.275-.514.414-.77" mask="url(#j)"/>
            </g>
            <g transform="translate(330 243)">
                <mask id="l" fill="#fff">
                    <use xlink:href="#k"/>
                </mask>
                <path fill="#004966" d="M10.646 61.316S-11.01 24.806 7.889.097c51.459 14.96 36.577 65.42 36.577 65.42l-33.82-4.2z" mask="url(#l)"/>
            </g>
            <g transform="translate(330.281 243)">
                <mask id="n" fill="#fff">
                    <use xlink:href="#m"/>
                </mask>
                <path fill="#59C09C" d="M7.608.097l.532.16 13.938 48.015L38.99 22.059c.182.296.36.592.535.89L22.422 49.458l4.022 13.855-1.008-.124-8.018-27.621-17.263-5.46C.12 29.772.089 29.437.06 29.1l17.046 5.391L7.26.571c.117-.157.228-.316.348-.474" mask="url(#n)"/>
            </g>
        </g>
        <g mask="url(#b)">
            <g transform="translate(331 261)">
                <mask id="p" fill="#fff">
                    <use xlink:href="#o"/>
                </mask>
                <path fill="#004966" d="M10.151 61.908S-10.778 25.05 7.487.108c49.73 15.1 35.348 66.04 35.348 66.04l-32.684-4.24z" mask="url(#p)"/>
            </g>
            <g transform="translate(331 261)">
                <mask id="r" fill="#fff">
                    <use xlink:href="#q"/>
                </mask>
                <path fill="#006769" d="M7.487.107L8 .267 21.47 48.74l16.344-26.462c.177.298.348.598.517.899l-16.53 26.76 3.888 13.988-.974-.126-7.748-27.883L.284 30.402a56.926 56.926 0 0 1-.09-1.016l16.472 5.443L7.151.585c.112-.159.22-.32.336-.478" mask="url(#r)"/>
            </g>
        </g>
        <g mask="url(#b)">
            <g transform="translate(57 191)">
                <mask id="t" fill="#fff">
                    <use xlink:href="#s"/>
                </mask>
                <path fill="#005960" d="M103.952 83.68c10.002-11.663 8.83-29.377-2.618-39.566-5.049-4.495-11.536-6.957-18.242-6.925-.498 0-.963.125-1.456.147a28.323 28.323 0 0 0 1.456-8.599C83.092 13.176 70.71.562 55.433.562c-15.274 0-27.657 12.614-27.657 28.175.038 2.926.53 5.828 1.454 8.599-.492 0-.956-.147-1.454-.147C12.575 37.116.192 49.61.118 65.095c-.032 6.831 2.385 13.44 6.798 18.584-9.487 11.015-8.99 27.631 1.14 38.038-10.693 11.112-10.518 28.952.39 39.845 5.163 5.154 12.1 8.045 19.33 8.054h55.316c15.275-.017 27.645-12.647 27.626-28.208-.008-7.364-2.846-14.432-7.905-19.691 10.128-10.407 10.626-27.023 1.14-38.038" mask="url(#t)"/>
            </g>
            <g transform="translate(-1.708 133.099)">
                <mask id="v" fill="#fff">
                    <use xlink:href="#u"/>
                </mask>
                <path fill="#59C09C" d="M.27 132.542S15.288 26.402 85.957.18c68.998 58.828 15.134 145.81 15.134 145.81l-76.137 54.607L.27 132.542z" mask="url(#v)"/>
            </g>
            <g transform="translate(22.368 133.099)">
                <mask id="x" fill="#fff">
                    <use xlink:href="#w"/>
                </mask>
                <path fill="#006769" d="M1.325 57.863l30.427 36.502L60.222.832c.552-.216 1.1-.444 1.658-.652.272.232.525.468.793.7L47.425 50.975l40.18-18.257c.182.378.352.756.53 1.134l.458 1.009L46.51 53.982l-25.412 83.484 71.538-29.792c-.253.972-.51 1.935-.778 2.88l-71.651 29.84-18.046 59.28-1.285.923-.794-2.19L30.93 97.065.125 60.108c.394-.749.795-1.497 1.2-2.245" mask="url(#x)"/>
            </g>
            <g transform="translate(-94 108)">
                <mask id="z" fill="#fff">
                    <use xlink:href="#y"/>
                </mask>
                <path fill="#004966" d="M30.508 178.814S-32.376 72.487 22.504.529c149.422 43.566 106.21 190.52 106.21 190.52l-98.206-12.235z" mask="url(#z)"/>
            </g>
            <g transform="translate(-94 108)">
                <mask id="B" fill="#fff">
                    <use xlink:href="#A"/>
                </mask>
                <path fill="#59C09C" d="M22.503.529c.52.151 1.026.31 1.544.463l40.472 139.833 49.112-76.34c.53.862 1.046 1.726 1.554 2.593L65.519 144.28l11.678 40.35-2.926-.364-23.282-80.438v.001L.862 87.926c-.1-.975-.192-1.952-.273-2.932l49.495 15.7L21.493 1.908c.338-.458.66-.921 1.01-1.378" mask="url(#B)"/>
            </g>
        </g>
    </g>
</svg>
