<svg xmlns="http://www.w3.org/2000/svg" xmlns:xlink="http://www.w3.org/1999/xlink" width="381" height="446" viewBox="0 0 381 446">
    <defs>
        <path id="b" d="M44 0h212c24.3 0 44 19.7 44 44v135H0V44C0 19.7 19.7 0 44 0z"/>
        <filter id="a" width="108.7%" height="114.5%" x="-4.3%" y="-6.1%" filterUnits="objectBoundingBox">
            <feOffset dy="2" in="SourceAlpha" result="shadowOffsetOuter1"/>
            <feGaussianBlur in="shadowOffsetOuter1" result="shadowBlurOuter1" stdDeviation="4"/>
            <feColorMatrix in="shadowBlurOuter1" values="0 0 0 0 0.626302083 0 0 0 0 0.626302083 0 0 0 0 0.626302083 0 0 0 0.25 0"/>
        </filter>
        <path id="c" d="M.765.103h29.453v58.98H.765z"/>
    </defs>
    <g fill="none" fill-rule="evenodd" transform="translate(-30 -53)">
        <path fill="#004060" d="M342.143 472.97c-2.079-12.647-20.444-18.97-55.095-18.97-51.977 0-102.974.8-141.55 9.485-38.575 8.685-27.863 19.128-19.416 26.756s13.975 9.896 61.681 7.87c47.706-2.027 73.937-19.726 99.285-21.704 25.348-1.978 28.394 13.49 51.977 9.9 11.925 0 12.964-4.446 3.118-13.338z"/>
        <path fill="#A2D7C5" d="M170.197 292.173c51.272-3.917 102.189 108.486 191.945 66.863 89.757-41.622 26.48-117.9 28.196-148.245.807-18.782 31.566-101.958-28.119-140.275-59.684-38.317-104.186-.678-156.224 16.65-50.138 16.694-90.052 7.034-112.174 15.972-51.816 20.935-76.873 79.854-55.966 131.6 20.906 51.746 81.07 61.353 132.342 57.435z" opacity=".265"/>
        <g transform="translate(66 72)">
            <use fill="#000" filter="url(#a)" xlink:href="#b"/>
            <use fill="#FFF" xlink:href="#b"/>
        </g>
        <path fill="#006769" d="M234.229 424.78l5.442 14.012c.451 1.958.529 4.305-1.55 5.464 0 0-1.373.781-2.853 1.276-.99-.205-7.268-19.124-7.268-19.124l.06-.116c2.491-3.16 6.169-1.511 6.169-1.511"/>
        <path fill="#FAB08A" d="M240.53 422.51l-6 3.349a3.795 3.795 0 0 0 1.324 3.85l.208.168 6.623-1.687-2.154-5.68z"/>
        <path fill="#1C2C57" d="M286.294 334.104s-5.758 6.208-7.242 17.126c-.987 7.268 1.732 18.783 2.028 27.82.272 8.262-3.454 14.827-10 19.876l-31.148 22.638 2.084 5.55s42.632-6.396 53.825-25.496c11.19-19.103 13.844-62.342 13.844-62.342l-23.39-5.172z"/>
        <path fill="#FAB08A" d="M262.158 311.082l-16.075 35.705s-6.606.766-9.467 3.285c-1.498 1.318-1.43 3.948-1.024 6.165.307 1.676 2.334 2.388 3.63 1.27 1.765-1.526 4.045-3.243 5.54-3.492 3.965-.657 5.15-3.45 5.15-3.45l23.06-35.978-10.814-3.505z"/>
        <g transform="translate(331.712 184)">
            <mask id="d" fill="#fff">
                <use xlink:href="#c"/>
            </mask>
            <path fill="#FAB08A" d="M11.138 54.041l7.983-6.932-6.19-34.246-9.604-4.985s1.046-1.885 3.416-1.084c2.367.804 4.375.325 4.375.325s1.797-2.256-1.609-3.786C7.595 2.026 6.316 3.328.765 3.11c0-.867 7.314-2.924 7.314-2.924 2.28-.744 8.1 3.835 8.1 3.835.39.54.645 1.173.74 1.837l.922 6.356S30.219 46.68 30.219 50.361c0 3.68-6.937 8.721-6.937 8.721l-12.144-5.041z" mask="url(#d)"/>
        </g>
        <path fill="#004060" d="M298.862 338.112s-4.974 5.959-1.992 19.816c1.905 8.845 10.272 19.977 15.889 27.642 4.028 5.494 4.114 12.408 2.902 19.103-4.6 25.448 2.76 56.514 2.76 56.514h5.97s8.953-45.525 11.604-77.528c2.393-28.852-10.016-50.1-10.277-50.475l-26.856 4.928z"/>
        <path fill="#FFF" d="M330.95 191.367l-3.827-2.44.279-2.011 4.31-1.074z"/>
        <path fill="#004060" d="M327.778 188.604l-1.573-1.165 1.836-.676z"/>
        <path fill="#F68B27" d="M332.43 185.842l-.19 1.4-.073.538h.001l-.191 1.422-.156 1.149-.109.82 18.554 2.959.72-5.33z"/>
        <path fill="#006769" d="M284.192 267.992c-10.631 7.74-23.15 44.947-23.15 44.947l9.337 5.19 15.192-20.657s1.485 23.914-2.152 42.26c1.653 6.88 9.538 6.106 22.325 3.704 12.782-2.403 21.16-7.863 21.16-7.863s.55-33.182 2.204-50.776c1.654-17.597-1.61-19.475 2.863-18.894 9.99-5.62 26.358-23.72 26.358-23.72l-15.203-2.93-32.736 19.004s-16.005 4.181-26.198 9.735"/>
        <path fill="#1C2C57" d="M291.891 220.835c-18.802 0-10.804 36.673-10.804 36.673s3.348 23.79 10.804 33.342c6.453 8.267 19.22 5.782 25.27 1.811 2.955-1.938 6.27-3.232 9.762-3.662 5.122-.625 11.214-2.923 11.214-12.313 0-8.839-10.382-15.674-17.218-20.556-4.454-3.181-7.56-7.94-8.859-13.312-2.188-9.05-7.524-21.983-20.169-21.983"/>
        <path fill="#006769" d="M319.416 467.655l14.87-.022c1.973.301 4.181 1.13 4.55 3.653 0 0 .259 1.675.213 3.34-.526.908-20.241-.123-20.241-.123l-.085-.103c-2.09-3.705.693-6.745.693-6.745"/>
        <path fill="#004060" d="M339.024 474.177l-20.161-.098.175.921h20.017z"/>
        <path fill="#FAB08A" d="M317.945 461.187l1.104 6.715a4.255 4.255 0 0 0 4.304.13l.243-.137.774-6.708h-6.425z"/>
        <g transform="translate(86 104)">
            <rect width="260" height="12.871" fill="#BFEDEC" rx="2"/>
            <g stroke="#59C09C" stroke-width="3">
                <path stroke-linecap="round" d="M130 53.782v22.984"/>
                <path d="M34.912 79.984V65.597a4 4 0 0 1 4-4h176.664a4 4 0 0 1 4 4v14.387"/>
            </g>
            <g transform="translate(117.597 19.306)">
                <rect width="23.887" height="6.435" y="22.065" fill="#BFEDEC" rx="2"/>
                <g fill="#FF872F" transform="translate(3.675)">
                    <ellipse cx="8.728" cy="5.056" rx="5.053" ry="5.056"/>
                    <path d="M17.456 17.008c0-3.3-3.908-5.976-8.728-5.976S0 13.708 0 17.008s17.456 3.3 17.456 0z"/>
                </g>
            </g>
            <g transform="translate(23 86)">
                <rect width="23.887" height="6.435" y="22.065" fill="#BFEDEC" rx="2"/>
                <g fill="#FF872F" transform="translate(3.675)">
                    <ellipse cx="8.728" cy="5.056" rx="5.053" ry="5.056"/>
                    <path d="M17.456 17.008c0-3.3-3.908-5.976-8.728-5.976S0 13.708 0 17.008s17.456 3.3 17.456 0z"/>
                </g>
            </g>
            <g transform="translate(118 86)">
                <rect width="23.887" height="6.435" y="22.065" fill="#BFEDEC" rx="2"/>
                <g fill="#FF872F" transform="translate(3.675)">
                    <ellipse cx="8.728" cy="5.056" rx="5.053" ry="5.056"/>
                    <path d="M17.456 17.008c0-3.3-3.908-5.976-8.728-5.976S0 13.708 0 17.008s17.456 3.3 17.456 0z"/>
                </g>
            </g>
            <g transform="translate(208 86)">
                <rect width="23.887" height="6.435" y="22.065" fill="#BFEDEC" rx="2"/>
                <g fill="#FF872F" transform="translate(3.675)">
                    <ellipse cx="8.728" cy="5.056" rx="5.053" ry="5.056"/>
                    <path d="M17.456 17.008c0-3.3-3.908-5.976-8.728-5.976S0 13.708 0 17.008s17.456 3.3 17.456 0z"/>
                </g>
            </g>
        </g>
        <circle cx="85" cy="350" r="19" fill="#A2D7C5" opacity=".27"/>
    </g>
</svg>
