<svg xmlns="http://www.w3.org/2000/svg" xmlns:xlink="http://www.w3.org/1999/xlink" width="444" height="371" viewBox="0 0 444 371">
    <defs>
        <rect id="b" width="56" height="36" rx="2"/>
        <filter id="a" width="125%" height="138.9%" x="-12.5%" y="-13.9%" filterUnits="objectBoundingBox">
            <feOffset dy="2" in="SourceAlpha" result="shadowOffsetOuter1"/>
            <feGaussianBlur in="shadowOffsetOuter1" result="shadowBlurOuter1" stdDeviation="2"/>
            <feColorMatrix in="shadowBlurOuter1" values="0 0 0 0 0 0 0 0 0 0 0 0 0 0 0 0 0 0 0.25 0"/>
        </filter>
        <rect id="d" width="56" height="36" rx="2"/>
        <filter id="c" width="125%" height="138.9%" x="-12.5%" y="-13.9%" filterUnits="objectBoundingBox">
            <feOffset dy="2" in="SourceAlpha" result="shadowOffsetOuter1"/>
            <feGaussianBlur in="shadowOffsetOuter1" result="shadowBlurOuter1" stdDeviation="2"/>
            <feColorMatrix in="shadowBlurOuter1" values="0 0 0 0 0 0 0 0 0 0 0 0 0 0 0 0 0 0 0.25 0"/>
        </filter>
        <rect id="f" width="55.404" height="35.879" rx="2"/>
        <filter id="e" width="125.3%" height="139%" x="-12.6%" y="-13.9%" filterUnits="objectBoundingBox">
            <feOffset dy="2" in="SourceAlpha" result="shadowOffsetOuter1"/>
            <feGaussianBlur in="shadowOffsetOuter1" result="shadowBlurOuter1" stdDeviation="2"/>
            <feColorMatrix in="shadowBlurOuter1" values="0 0 0 0 0 0 0 0 0 0 0 0 0 0 0 0 0 0 0.25 0"/>
        </filter>
    </defs>
    <g fill="none" fill-rule="evenodd">
        <path fill="#004472" d="M5.6 344.273c-21.503 11.126 25.223 6.268 34.173 11.214 8.95 4.947-28.293 7.356-3.886 11.04 24.407 3.682 71.222 6.1 98.012 3.165 22.155-2.426 42.816 1.545 68.851 0 5.446-.323 27.124-7.384 31.332-7.58 41.611-1.935 162.605-4.228 202.35-10.167 20.208-3.02-21.007-7.09-22.068-7.672-7.063-3.87-221.257-3.356-239.325-3.356-21.601-2.276-139.152 0-169.439 3.356z"/>
        <path fill="#A2D7C5" d="M185.431 256.275c55.022-4.187 109.712 116.56 206.019 71.893s28.367-126.619 30.197-159.209c.858-20.172 33.833-109.493-30.234-150.672-64.068-41.178-111.811-.77-167.65 17.818-53.8 17.91-96.637 7.518-120.374 17.108-55.6 22.463-82.465 85.734-60.008 141.32 22.458 55.585 87.028 65.929 142.05 61.742z" opacity=".265"/>
        <g transform="translate(232 25)">
            <rect width="169" height="324" fill="#FAA525" rx="31"/>
            <path fill="#FFEDDC" d="M41.132 0h96.425c17.121 0 31 13.88 31 31v265.28c0 15.31-12.41 27.72-27.72 27.72L41.133 0z" opacity=".475"/>
            <path fill="#F2F3FF" d="M162.46 47.6v231.605H8.352V47.6z"/>
            <path fill="#F7F8FB" d="M162.46 47.6v231.605h-34.908L56.219 47.6z"/>
            <ellipse cx="84.947" cy="301.562" fill="#FF7900" rx="13.413" ry="13.463"/>
            <ellipse cx="86.288" cy="302.011" fill="#F4C47C" rx="12.071" ry="12.116"/>
            <rect width="28.614" height="3.59" x="71.534" y="26.925" fill="#FF7900" rx="1.795"/>
        </g>
        <g transform="rotate(15 -1115.544 400.373)">
            <use fill="#000" filter="url(#a)" xlink:href="#b"/>
            <use fill="#FFF" xlink:href="#b"/>
        </g>
        <g fill="#004472" transform="rotate(15 -1162.627 467.46)">
            <ellipse cx="8.581" cy="4.05" rx="4.065" ry="4.05"/>
            <path d="M17.309 15.75c0-3.728-3.875-6.75-8.655-6.75C3.874 9 0 12.022 0 15.75h17.309z"/>
        </g>
        <g transform="translate(56 320)">
            <use fill="#000" filter="url(#c)" xlink:href="#d"/>
            <use fill="#FFF" xlink:href="#d"/>
        </g>
        <g fill="#004472" transform="translate(74.968 329.9)">
            <ellipse cx="8.581" cy="4.05" rx="4.065" ry="4.05"/>
            <path d="M17.309 15.75c0-3.728-3.875-6.75-8.655-6.75C3.874 9 0 12.022 0 15.75h17.309z"/>
        </g>
        <path fill="#FAB08A" d="M184.45 99.813c1.329 1.188.715 16.193-1.706 18.437-6.375-1.066-15.455-3.637-19.254-8.507.156-1.112.207-1.66.4-2.51.495-2.185 2.85-2.919 7.067-2.201"/>
        <path fill="#004472" d="M186.648 91.542c1.65 2.54 1.65 3.94 0 6.325-1.65 2.386-13.824 6.647-15.598 7.24-.856.286-.522 2.925-.53 3.911-.01 1.058-1.108.294-1.452.294-.237 0-1.055-.461-1.055-1.244 0-1.621-1.087-3.242-2.718-2.961-1.819.313-1.653 1.494-1.675 2.35-.023.923.963 1.813 1.231 2.838.088.335-.3.68-.3 1.053-1.223 0-6.79-9.695-6.79-13.48 0-2.525.717-3.786 2.15-3.786-.096-2.595 1.14-4.505 3.71-5.73 3.852-1.84 7.133-1.846 9.203-1.846 2.069 0 12.173 2.497 13.824 5.036z"/>
        <path fill="#FAAE87" d="M164.38 110.383v7.952c1.785 3.761 3.838 5.385 5.879 5.385 2.041 0 2.99-1.18 3.807-2.715v-4.97l-9.686-5.652z"/>
        <path fill="#F4A881" d="M164.397 110.813v1.613c.69.68 3.92 3.001 9.685 6.965v-3.238l-9.685-5.34z"/>
        <path fill="#00C9C3" d="M180.311 119.926c24.965 11.087 24.315 12.37 35.235 15.853 3.28 0 12.006-2.046 26.175-6.138l4.224 2.655c-15.818 11.143-24.774 16.957-26.87 17.443-2.094.485-9.616.11-22.563-1.123-7.951-13.842-13.352-23.406-16.2-28.69z"/>
        <path fill="#004472" d="M163.919 118.13l-19.559 13.395c0 29.313 1.282 47.753 3.844 55.317 1.429 5.726-.833 16.27-2.119 19.573a637.293 637.293 0 0 1 51.963-2.104c-4.82-12.306-6.11-25.403-3.87-39.29 1.604-9.953 2.794-18.27 1.616-25.293-1.288-7.676-5.223-13.717-10.039-16.494-5.333-3.403-9.085-5.104-11.255-5.104"/>
        <path fill="#00C9C3" d="M144.918 132.558c5.103 0 9.324 3.496 12.057 10.685 2.733 7.19 7.015 28 8.266 35.873 15.537 4.079 35.723 8.788 38.135 9.765 1.608.652 1.608 2.38 0 5.187-30.8-.308-47.035-.848-48.704-1.62-2.502-1.158-13.187-22.782-14.88-29.135-1.534-4.347-.541-30.755 5.126-30.755z"/>
        <path fill="#034E54" d="M197.175 203.565c0 .673.555 11.271 1.666 31.795-.438 6.335-1.666 15.874-1.666 28.329 0 1.754.127 28.332.383 79.735h-3.189c-8.35-30.037-12.86-48.029-13.53-53.976-1.007-8.922 2.214-19.663 2.214-22.627 0-1.976-4.164-13.421-12.49-34.336l-3.298-28.92h29.91z"/>
        <path fill="#FAB08A" d="M240.949 129.727c0 .862 1.244-6.383 1.865-7.684.104-.217 1.698-1.016 4.782-2.398h2.261c.888.971 1.487 1.881 1.799 2.73.182.495-.252 2.112 0 2.315 0 .417.624 3.633-2.176 5.5-.676.452-1.84 1.203-3.49 2.256-3.36-2.388-5.041-3.294-5.041-2.72zM204.058 189.16c5.076-1.094 7.885-1.64 8.427-1.64.812 0 1.851.415 2.369.861.517.447.517 6.142.517 7.792-2.48.535-5.173.658-5.993.658-.41 0-.815-.652-.33-.946.487-.293 1.863-.228 1.718-.566-.643-.29-3.038-.8-7.188-1.53"/>
        <path fill="#1C2C57" d="M134.736 344.738c-.695.209-1.98 2.64-1.69 3.838 4.555.725 14.431.748 17.233.544.669-.544.888-1.094 1.08-1.877-2.075-.343-4.568-.172-6.466-.343-1.265-.113-3.294-.834-6.087-2.162l-3.072-.126M194.253 343.758c-.521 2.818-.674 4.56-.458 5.228.742.165 5.888.165 15.44 0 .669-.944.75-1.54.243-1.791-.761-.376-5.534-.61-6.476-.823-.628-.143-2.4-1.014-5.319-2.614h-3.43z"/>
        <path fill="#FFF" d="M160.954 120.563l9.876 9.622.787-6.53-7.34-5.326zM174.63 117.745l-2.396 5.73 3.302 4.182.909-9.912z"/>
        <path fill="#005960" d="M146.288 205.988c-1.435 21.034-2.153 41.47-2.153 61.307-1.711 3.364-7.246 9.756-7.246 15.451 0 8.999-.635 29.62-1.907 61.866h3.531c9.78-39.099 16.67-64.871 20.67-77.317 5.53-17.205 12.936-26.034 14.878-33.022 6.334-7.25 8.973-27.64 9.323-30.498-14.08 0-26.445.738-37.096 2.213z"/>
        <g transform="translate(246 90)">
            <g transform="rotate(15 4.872 37.794)">
                <use fill="#000" filter="url(#e)" xlink:href="#f"/>
                <use fill="#FFF" xlink:href="#f"/>
            </g>
            <g fill="#004472" transform="rotate(15 -41.984 104.131)">
                <ellipse cx="8.489" cy="4.036" rx="4.021" ry="4.036"/>
                <path d="M17.124 15.697c0-3.715-3.833-6.727-8.562-6.727C3.833 8.97 0 11.982 0 15.697h17.124z"/>
            </g>
            <path fill="#118C8C" d="M116.42 21.527h-4.968c-3.663 2.362-9.58 10.001-9.58 14.673 0 3.937 1.193 6.417 3.785 8.558a4.293 4.293 0 0 0 2.732.987h11.094c.998 0 1.963-.352 2.732-.987 2.592-2.141 3.785-4.62 3.785-8.558 0-4.672-5.917-12.311-9.58-14.673M118.669 17.092a1.421 1.421 0 0 0-.95-.07l-1.158.39c-.269.09-.675.023-.904-.15l-1.304-.987a.73.73 0 0 0-.831 0l-1.303.987c-.229.173-.635.24-.904.15l-1.16-.39a1.422 1.422 0 0 0-.95.07l-.856.432c-.254.128-.296.4-.092.605l3.003 3.026c.204.205.601.372.883.372h3.586c.282 0 .68-.167.883-.372l3.003-3.026c.204-.205.163-.477-.091-.606l-.855-.431z"/>
            <path fill="#00756F" d="M114.056 34.02c-1.041-.435-1.217-.652-1.217-.973 0-.142.06-.604.842-.604a2.46 2.46 0 0 1 1.297.354l.256.148c.094.054.203.014.241-.089l.482-1.284a.181.181 0 0 0-.073-.211l-.188-.112a3.428 3.428 0 0 0-1.34-.447v-1.029a.172.172 0 0 0-.17-.173h-1.248a.172.172 0 0 0-.17.173v1.13c-1.106.313-1.802 1.18-1.802 2.289 0 1.411 1.132 2.05 2.236 2.487.952.39 1.083.727 1.083 1.033 0 .448-.4.748-.998.748-.515 0-1.07-.167-1.486-.447l-.269-.18c-.098-.067-.212-.028-.252.085l-.463 1.304a.186.186 0 0 0 .062.2l.159.115c.405.292 1.02.505 1.647.58v1.074c0 .095.076.173.17.173h1.26c.092 0 .169-.078.169-.173v-1.167c1.142-.327 1.886-1.253 1.886-2.397 0-1.539-1.13-2.202-2.114-2.606"/>
            <path fill="#FF7900" d="M117.064 22.424h-6.255a.895.895 0 0 1-.894-.897c0-.495.4-.897.894-.897h6.255c.493 0 .893.402.893.897 0 .496-.4.897-.893.897"/>
            <rect width="20.553" height="3.588" x="70.596" y="23.321" fill="#118C8C" rx="1.794"/>
            <rect width="20.553" height="3.588" x="70.596" y="32.291" fill="#118C8C" rx="1.794"/>
            <path fill="#118C8C" d="M116.42 75.345h-4.968c-3.663 2.362-9.58 10.001-9.58 14.673 0 3.938 1.193 6.417 3.785 8.558a4.293 4.293 0 0 0 2.732.988h11.094c.998 0 1.963-.353 2.732-.988 2.592-2.141 3.785-4.62 3.785-8.558 0-4.672-5.917-12.311-9.58-14.673M118.669 70.91a1.421 1.421 0 0 0-.95-.07l-1.158.39c-.269.091-.675.023-.904-.15l-1.304-.987a.73.73 0 0 0-.831 0l-1.303.987c-.229.173-.635.241-.904.15l-1.16-.39a1.422 1.422 0 0 0-.95.07l-.856.432c-.254.128-.296.4-.092.606l3.003 3.025c.204.205.601.372.883.372h3.586c.282 0 .68-.167.883-.372l3.003-3.026c.204-.205.163-.477-.091-.605l-.855-.432z"/>
            <path fill="#00756F" d="M114.056 87.839c-1.041-.436-1.217-.652-1.217-.974 0-.142.06-.604.842-.604a2.46 2.46 0 0 1 1.297.354l.256.148c.094.054.203.014.241-.089l.482-1.284a.181.181 0 0 0-.073-.211l-.188-.111a3.428 3.428 0 0 0-1.34-.448V83.59a.172.172 0 0 0-.17-.173h-1.248a.172.172 0 0 0-.17.173v1.13c-1.106.313-1.802 1.18-1.802 2.289 0 1.412 1.132 2.05 2.236 2.487.952.39 1.083.727 1.083 1.033 0 .448-.4.749-.998.749-.515 0-1.07-.167-1.486-.447l-.269-.181c-.098-.066-.212-.028-.252.086l-.463 1.303a.186.186 0 0 0 .062.2l.159.115c.405.292 1.02.505 1.647.58v1.074c0 .095.076.173.17.173h1.26c.092 0 .169-.078.169-.173v-1.167c1.142-.327 1.886-1.253 1.886-2.396 0-1.54-1.13-2.202-2.114-2.607"/>
            <path fill="#FF7900" d="M117.064 76.242h-6.255a.895.895 0 0 1-.894-.897c0-.495.4-.897.894-.897h6.255c.493 0 .893.402.893.897 0 .496-.4.897-.893.897"/>
            <g>
                <path fill="#118C8C" d="M116.42 123.782h-4.968c-3.663 2.361-9.58 10-9.58 14.672 0 3.938 1.193 6.417 3.785 8.559a4.293 4.293 0 0 0 2.732.987h11.094c.998 0 1.963-.352 2.732-.987 2.592-2.142 3.785-4.621 3.785-8.559 0-4.671-5.917-12.31-9.58-14.672"/>
                <path fill="#118C8C" d="M118.669 119.346a1.421 1.421 0 0 0-.95-.069l-1.158.39c-.269.09-.675.023-.904-.15l-1.304-.987a.73.73 0 0 0-.831 0l-1.303.986c-.229.174-.635.241-.904.151l-1.16-.39a1.422 1.422 0 0 0-.95.069l-.856.432c-.254.128-.296.401-.092.606l3.003 3.025c.204.205.601.373.883.373h3.586c.282 0 .68-.168.883-.373l3.003-3.025c.204-.205.163-.478-.091-.606l-.855-.432z"/>
                <path fill="#00756F" d="M114.056 136.275c-1.041-.435-1.217-.652-1.217-.974 0-.141.06-.604.842-.604a2.46 2.46 0 0 1 1.297.354l.256.148c.094.055.203.015.241-.088l.482-1.284a.181.181 0 0 0-.073-.212l-.188-.111a3.428 3.428 0 0 0-1.34-.448v-1.028a.172.172 0 0 0-.17-.173h-1.248a.172.172 0 0 0-.17.173v1.129c-1.106.313-1.802 1.18-1.802 2.289 0 1.412 1.132 2.05 2.236 2.488.952.39 1.083.726 1.083 1.032 0 .448-.4.749-.998.749-.515 0-1.07-.167-1.486-.447l-.269-.18c-.098-.067-.212-.029-.252.085l-.463 1.303a.186.186 0 0 0 .062.2l.159.115c.405.292 1.02.506 1.647.58v1.074c0 .095.076.173.17.173h1.26c.092 0 .169-.078.169-.173v-1.166c1.142-.327 1.886-1.254 1.886-2.397 0-1.54-1.13-2.202-2.114-2.607"/>
                <path fill="#FF7900" d="M117.064 124.679h-6.255a.895.895 0 0 1-.894-.897c0-.495.4-.897.894-.897h6.255c.493 0 .893.402.893.897s-.4.897-.893.897"/>
            </g>
            <rect width="20.553" height="3.588" x="70.596" y="77.139" fill="#118C8C" rx="1.794"/>
            <rect width="20.553" height="3.588" x="70.596" y="125.576" fill="#118C8C" rx="1.794"/>
            <rect width="20.553" height="3.588" x="70.596" y="86.109" fill="#118C8C" rx="1.794"/>
            <rect width="20.553" height="3.588" x="70.596" y="134.545" fill="#118C8C" rx="1.794"/>
        </g>
        <path fill="#F9AF89" d="M248.407 125.42c.495-.227.884.14 1.23 0 .512-.227 2.44-1.058 2.817-1.518.52-.635 1.11-2.359 2.393-1.788.51.227-.391 1.227-.7 2.481-1.172 1.937-1.407 3.257-4.51 5.35-.899.607-2.35-4.01-1.23-4.524z"/>
        <path fill="#004472" fill-rule="nonzero" d="M280 158c-8.28 0-15 6.72-15 15 0 8.28 6.72 15 15 15 8.28 0 15-6.72 15-15 0-8.28-6.72-15-15-15zm1.364 25.455h-2.728v-2.728h2.728v2.728zm3.171-11.25l-1.33 1.421c-1.063 1.129-1.728 2.056-1.728 4.374h-2.954v-.773c0-1.7.665-3.245 1.728-4.373l1.832-1.948c.547-.556.872-1.329.872-2.179 0-1.7-1.33-3.09-2.955-3.09s-2.955 1.39-2.955 3.09h-2.954c0-3.415 2.644-6.182 5.909-6.182 3.265 0 5.91 2.767 5.91 6.182 0 1.36-.533 2.597-1.375 3.478zM280 206c-8.28 0-15 6.72-15 15 0 8.28 6.72 15 15 15 8.28 0 15-6.72 15-15 0-8.28-6.72-15-15-15zm1.364 25.455h-2.728v-2.728h2.728v2.728zm3.171-11.25l-1.33 1.421c-1.063 1.129-1.728 2.056-1.728 4.374h-2.954v-.773c0-1.7.665-3.245 1.728-4.373l1.832-1.948c.547-.556.872-1.329.872-2.179 0-1.7-1.33-3.09-2.955-3.09s-2.955 1.39-2.955 3.09h-2.954c0-3.415 2.644-6.182 5.909-6.182 3.265 0 5.91 2.767 5.91 6.182 0 1.36-.533 2.597-1.375 3.478z"/>
    </g>
</svg>
