<svg xmlns="http://www.w3.org/2000/svg" xmlns:xlink="http://www.w3.org/1999/xlink" width="264" height="226" viewBox="0 0 264 226">
    <defs>
        <path id="a" d="M.074.03h119.371v74.707H.075z"/>
    </defs>
    <g fill="none" fill-rule="evenodd">
        <path fill="#004966" d="M142.233 107.229s20.096-64.123 69.488-68.192c37.188 76.182-38.385 112.287-38.385 112.287l-31.103-44.095z"/>
        <path fill="#118C8C" d="M211.721 39.037c.129.265.253.528.38.791l-41.943 67.286 49.054-7.995a61.354 61.354 0 0 1-.483 1.573l-49.606 8.084-12.103 19.417-.926-1.313 24.126-38.707h-.001l-11.953-26.028c.36-.393.723-.786 1.091-1.177l11.803 25.698 29.63-47.535c.31-.03.617-.069.931-.094"/>
        <g transform="translate(143.692 82.935)">
            <mask id="b" fill="#fff">
                <use xlink:href="#a"/>
            </mask>
            <path fill="#FAA525" d="M10.214 30.962s60.831-48.14 109.2-24.31c1.66 56.645-61.696 68.085-61.696 68.085L.074 62.287l10.14-31.325z" mask="url(#b)"/>
        </g>
        <path fill="#FFF" d="M206.405 115.055L262.1 89.091c.336.165.672.323 1.005.497.007.222.004.438.008.66l-29.829 13.907 25.488 10.992c-.097.243-.204.48-.306.72l-.276.636-26.696-11.514-49.712 23.174 44.115 20.71c-.561.29-1.12.574-1.674.846l-44.184-20.743-35.3 16.456-.973-.21.688-1.286 60.343-28.132 4.25-29.768c.518-.13 1.036-.258 1.557-.383l-4.199 29.402z"/>
        <path fill="#59C09C" d="M154.247 133.312s64.306 5.185 77.165 40.488c-47.906 60.123-128.327 3.878-128.327 3.878l51.162-44.366z"/>
        <path fill="#118C8C" d="M231.41 173.8c-.184.232-.37.457-.557.686l-75.87-7.593 22.527 34.61c-.58.022-1.16.037-1.738.046l-22.681-34.845-29.635-2.965 1.89-1.293 57.696 5.772 24.545-19.692c.474.25.944.504 1.413.763l-23.855 19.14 45.966 4.6c.1.255.204.509.3.77v.001z"/>
        <g>
            <g>
                <path fill="#FFF" d="M.46 22.183L0 219.902h187.13l1.88-198.058z"/>
                <path d="M.46.377L0 220.322h186.948L188.826 0z"/>
                <path fill="#FFF" d="M0 226h188.826V0H0z"/>
                <rect width="167.214" height="15.899" x="11.375" y="29.528" fill="#59C09C" rx="1"/>
                <rect width="109.201" height="9.085" x="11.375" y="52.241" fill="#EBF5FF" rx="3"/>
                <rect width="109.201" height="9.085" x="11.375" y="67.005" fill="#EBF5FF" rx="3"/>
                <rect width="109.201" height="9.085" x="11.375" y="85.176" fill="#EBF5FF" rx="3"/>
                <rect width="109.201" height="9.085" x="11.375" y="116.975" fill="#EBF5FF" rx="3"/>
                <rect width="167.214" height="9.085" x="11.375" y="135.146" fill="#EBF5FF" rx="3"/>
                <rect width="167.214" height="9.085" x="11.375" y="154.452" fill="#EBF5FF" rx="3"/>
                <rect width="109.201" height="9.085" x="11.375" y="101.075" fill="#EBF5FF" rx="3"/>
                <ellipse cx="151.288" cy="73.819" fill="#71D8B8" rx="20.475" ry="20.442"/>
                <path stroke="#FFF" stroke-linecap="round" stroke-width="4" d="M143.326 75.565l4.974 5.068 12.088-13.628"/>
                <path fill="#004966" d="M0 24.985h188.826V0H0z"/>
                <rect width="167.214" height="9.085" x="11.375" y="172.623" fill="#EBF5FF" rx="3"/>
                <rect width="167.214" height="9.085" x="11.375" y="172.623" fill="#EBF5FF" rx="3"/>
            </g>
            <g transform="translate(0 82.293)">
                <path fill="#F2BFA5" d="M59.37 22.91v7.136c3.733 5.656 5.043 8.851 3.93 9.587-1.112.735-5.954 1.178-14.526 1.327l-3.286-3.56 3.286-13.72 10.596-.77z"/>
                <path fill="#FCCCB3" d="M63.277 11.732c2.506 3.392 2.506 5.277 2.506 9.97-3.585 1.73-7.537 3.058-11.854 3.985L49.687 8.33c7.39.006 11.92 1.14 13.59 3.4zM34.53 104.466c-11.33 6.808-19.407 11.183-24.232 13.127-1.046 4.973-2.225 6.421-2.225 7.37-1.196 0-.525-.23-1.775-1.98.436-4.592 2.232-6.693 1.25-10.755 4.61-1.745 9.453-5.6 14.527-11.564l15.015.889-2.56 2.913z"/>
                <path fill="#F2BFA5" d="M45.898 27.77c-7.456 3.88-10.076 12.127-15.062 17.97-.293 4.118.885 9.698 3.533 16.741l3.524-3.993-1.03-10.615a188.974 188.974 0 0 0 7.08-5.742c2.113-4.703 2.657-14.362 1.955-14.362z"/>
                <path fill="#FCCCB3" d="M50.387 112.252c2.873-1.709 6.193-2.563 9.96-2.563-.92 12.412-1.117 20.7-.592 24.863 2.148 1.284 4.39 2.947 6.728 4.99h-4.896c-4.476-3.063-5.201-3.063-8.581-3.063.94-8.223-.742-11.944-2.62-24.227zM62.42 27.774c6.24 1.416 10.986 3.285 14.237 5.606l7.798-11.859 3.022.981c-2.145 8.789-5.315 14.941-9.51 18.458-6.577-.984-12.846-2.742-18.807-5.275-.5-1.71-.5-3.103 0-4.176.75-1.61.75-2.898 3.26-3.735z"/>
                <path fill="#FAA525" d="M57.566 27.77h5.017c-3.992 3.427-5.325 6.6-4.002 9.518h4.972c1.317 3.599 1.784 5.874 1.4 6.827-.864 2.88-1.856 3.423-4.713 6.035-3.69 4.798-4.551 6.204-7.07 18.15 0 6.27 3.171 9.4 4.835 17.044 2.058 9.462 2.897 19.456 2.897 25.137-7.529 3.871-13.467 3.871-17.508 2.662-5.846-1.727-6.19-6.67-8.876-8.454-4.943-3.284-9.808-3.046-14.923-3.046.672-2.855 9.906-6.4 11.531-9.136 1.084-1.824.601-7.034-1.447-15.63-.443-6.466.975-11.35 4.254-14.652 4.64-5.382 3.823-4.19 7.424-9.047 2.037-5.863-3.058-18.26 4.035-25.409H47.6c-1.473 3.428-1.105 5.142 1.103 5.142 3.7 0 6.655-1.714 8.862-5.142z"/>
                <path fill="#FF7900" d="M34.532 105.49c-4.948-3.318-9.817-3.078-14.937-3.078.672-2.885 9.916-6.466 11.542-9.23 1.085-1.844.602-7.108-1.448-15.794-.444-6.534.976-11.468 4.258-14.804 4.644-5.438 3.826-4.234 7.43-9.141 2.04-5.925-3.06-18.45 4.04-25.674h1.36c-.628 0-2.843 6.259-2.572 13.631.153 4.148 3.263 7.763 2.572 12.982-2.572 5.79-9.144 8.74-10.198 14.259-1.652 8.64 5.64 18.67 5.685 25.529.05 7.742-7.06 11.77-7.732 11.32z"/>
                <path fill="#004472" d="M6.7 112.622c-.638-.719-4.408 1.262-6.7 1.648.312 1.026.469 2.099.469 3.218l3.277-.975a68.923 68.923 0 0 0-1.718 7.297 142.05 142.05 0 0 1 1.718 8.095h1.319l1.933-6.208-.298-.403c-.287 0-.724-.653-1.31-1.958 1.608-6.823 1.608-8.557 1.31-10.714zM7.476 119.408l2.321 2.021-.717 2.145-2.082-2.083zM53.186 136.764v6.943h3.455v-2.88c1.738 0 3.172 1.1 6.202 2.88h8.924c.21-.407.314-.807.314-1.2-1.872-.957-3.499-1.887-4.88-2.79h-5.106c-3.355-1.969-6.324-2.953-8.909-2.953z"/>
                <path fill="#004472" d="M61.998 136.764c-1.347.894-1.276.593-2.514 1.677.403.39 1.032.756 1.888 1.1.417-.623 1.188-1.18 2.311-1.67-.634-.534-1.05-.534-1.685-1.107z"/>
                <ellipse cx="40.939" cy="5.901" fill="#1C2C57" rx="4.549" ry="4.513"/>
                <path fill="#1C2C57" d="M54.762 9.347l9.621 1.623c-2.224-4.896-5.021-7.542-8.391-7.935-5.054-.59-6.482-.29-9.863 2.205-3.38 2.495-3.837 13.997-3.19 21.075 4.955 2.84 10.722 2.84 15.882 4.231-1.43-2.47-2.493-5.903-3.188-10.297-.163-.691-.453-1.12-.871-1.285-1.106 0-1.894-.36-2.364-1.08-.526-.55-.641-1.188-.347-1.91.295-.724.978-.964 2.05-.72l1.288.72-.627-6.627z"/>
                <path fill="#FCCCB3" d="M84.678 23.76c.384-2.65.327-4.309.327-6.583.37-.298.93-.529 1.678-.693.601-.69 1.176-1.557 1.725-2.6 1.171 0 1.171 0 2.568.553-.384.77-.576 1.452-.576 2.047l-2.573 8.508a16.373 16.373 0 0 1-3.15-1.231z"/>
                <g transform="rotate(23 44.526 223.676)">
                    <ellipse cx="4.541" cy="6.218" fill="#005960" rx="4.541" ry="6.218"/>
                    <ellipse cx="4.115" cy="6.218" fill="#044146" rx="3.264" ry="5.087"/>
                    <ellipse cx="4.541" cy="6.218" fill="#00C9C3" rx="2.838" ry="4.522"/>
                    <path fill="#005960" d="M4.257 11.87h1.136v6.78a.568.568 0 0 1-1.135 0v-6.78z"/>
                    <path fill="#D8D8D8" d="M4.257 13.283h1.135v1H4.257z"/>
                    <path fill="#FFF" d="M3.834 3.528c-.542 0-2.128 2.059-1.709 2.659.28.4 1.087.066 2.421-1.002-1.047 1.434-1.39 2.152-1.028 2.152.543 0 .266.355 1.479-.899 1.213-1.253.804-2.07.43-2.452-.25-.256-.887.058-1.909.942.573-.933.678-1.4.316-1.4z"/>
                    <ellipse cx="3.264" cy="8.337" fill="#FFF" rx="1" ry="1"/>
                </g>
                <path fill="#FCCCB3" d="M87.477 24.298l3.5-4.712c-.429-2.584-.693-4.022-.793-4.313-.375 0-.569.027-.583.082-.024.77-.084 1.354-.178 1.755-.095.4-.3.936-.617 1.607"/>
                <path fill="#FCCCB3" d="M89.263 16.662l1.713 1.885-1.713 2.28h-2.486l1.336-4.165z"/>
                <path fill="#FF7900" d="M45.168 5.554l.32.664a24.522 24.522 0 0 1-.822 2.314c-.257.6-.717 1.459-1.38 2.576l-.597-.366c.76-.871 1.277-1.675 1.549-2.411a58.11 58.11 0 0 0 .93-2.777z"/>
            </g>
        </g>
    </g>
</svg>
