<svg xmlns="http://www.w3.org/2000/svg" xmlns:xlink="http://www.w3.org/1999/xlink" width="376" height="201" viewBox="0 0 376 201">
    <defs>
        <path id="a" d="M0 0h376v87.092H0z"/>
        <path id="c" d="M0 0h376v139.413H0z"/>
        <path id="e" d="M85.053 99.78L110.05 142l44.053-45.837S179.225 31.553 125.767 1C81.82 27.265 85.053 99.78 85.053 99.78z"/>
        <path id="f" d="M.644 43.676l4.195 77.314s74.414-31.849 74.528-91.653v-.269c-.017-8.784-1.637-18.175-5.33-28.15a44.177 44.177 0 0 0-8.864-.894C29.05.026.644 43.676.644 43.676z"/>
        <path id="h" d="M1.805 1.616c-11.6 52.363 48.288 93.938 48.288 93.938l50.865.894S93.48.418 17.11.42c-4.823 0-9.92.383-15.306 1.196z"/>
        <path id="j" d="M0 .363h37.64V38.34H0z"/>
        <path id="l" d="M0 .34h49.406V112H0z"/>
    </defs>
    <g fill="none" fill-rule="evenodd">
        <path stroke="#979797" stroke-linecap="square" d="M128.656 12.656L168.95 52.95"/>
        <path d="M0 195h376V-56H0z"/>
        <g opacity=".262" transform="translate(0 107)">
            <mask id="b" fill="#fff">
                <use xlink:href="#a"/>
            </mask>
            <path fill="#005960" d="M319.263 0c-42.96 0-79.572 23.44-93.587 56.3a116.772 116.772 0 0 0-10.27-.45c-25.635 0-49.008 8.348-66.67 22.062-10.55-18.428-32.425-31.166-57.786-31.454C75.85 26.322 49.587 12.995 19.714 12.995c-46.825 0-84.785 32.74-84.785 73.129 0 40.388 37.96 73.129 84.785 73.129 13.507 0 26.274-2.73 37.608-7.576 9.63 4.817 20.817 7.576 32.751 7.576 9.51 0 18.546-1.753 26.699-4.902 7.027 41.555 48.507 73.47 98.635 73.47 42.96 0 79.573-23.44 93.587-56.301 3.376.298 6.802.451 10.27.451 55.057 0 99.69-38.497 99.69-85.985C418.953 38.496 374.32 0 319.263 0" mask="url(#b)"/>
        </g>
        <g opacity=".207" transform="translate(0 54)">
            <mask id="d" fill="#fff">
                <use xlink:href="#c"/>
            </mask>
            <path fill="#005960" d="M319.263 0c-42.96 0-79.572 37.521-93.587 90.124a73.334 73.334 0 0 0-10.27-.723c-25.635 0-49.008 13.365-66.67 35.318-10.55-29.499-32.425-49.89-57.786-50.35C75.85 42.136 49.587 20.8 19.714 20.8c-46.825 0-84.785 52.411-84.785 117.063 0 64.651 37.96 117.062 84.785 117.062 13.507 0 26.274-4.369 37.608-12.127 9.63 7.71 20.817 12.127 32.751 12.127 9.51 0 18.546-2.806 26.699-7.847 7.027 66.52 48.507 117.607 98.635 117.607 42.96 0 79.573-37.522 93.587-90.124 3.376.477 6.802.723 10.27.723 55.057 0 99.69-61.625 99.69-137.643S374.32 0 319.263 0" mask="url(#d)"/>
        </g>
        <g>
            <path fill="#118C8C" d="M170.053 99.78S166.821 27.266 210.767 1c53.458 30.553 28.336 95.163 28.336 95.163L195.05 142l-24.997-42.22z"/>
            <path fill="#006769" d="M246 68.22l-45.006 29.4 6.562-58.974 25.793-18.048-.92-1.314-24.636 17.239L211.857 0l-1.68.574-7.446 66.908-25.683-21.188-.048 2.043 25.519 21.053-8.284 74.434 1.598.176 4.932-44.313 44.779-29.254z"/>
            <path fill="#FFD052" d="M197.644 120.677s33.161-50.964 73.393-42.76c28.91 78.088-69.198 120.073-69.198 120.073l-4.195-77.313z"/>
            <path fill="#FAA525" d="M197.644 120.677s33.161-50.964 73.393-42.76c28.91 78.088-69.198 120.073-69.198 120.073l-4.195-77.313z"/>
            <g transform="translate(197 77)">
                <mask id="g" fill="#fff">
                    <use xlink:href="#f"/>
                </mask>
                <path fill="#FFF" d="M70.267 66.11l-46.04 1.095L74.679 1.403 73.395.432 42.773 40.37l-4.43-33.614-1.446 1.378 4.487 34.046L-.152 96.357l1.284.969 21.844-28.49 45.864-1.091z" mask="url(#g)"/>
            </g>
            <path fill="#004060" d="M164.956 127.107s-60.1-41.564-48.46-93.91C207.516 19.494 216 128 216 128l-51.044-.893z"/>
            <g transform="translate(114 31)">
                <mask id="i" fill="#fff">
                    <use xlink:href="#h"/>
                </mask>
                <path fill="#006769" d="M67.94 13.505l-1.487-.888-7.539 54.041L2.408 1.09 1.202 2.142l40.085 46.513-31.419 3.992 1.595 1.418 31.08-3.949L75.08 87.868l1.979-.157L60.302 68.27z" mask="url(#i)"/>
            </g>
            <path fill="#58C4C5" d="M214.29 137.128l-5.051-3.14 15.761-6.95-6.525-14.689c-3.016-6.264-10.807-11.344-18.251-11.349h-32.449c-7.442.005-15.236 5.085-18.252 11.35L143 127.038l15.76 6.949-5.05 3.14-2.8 23.872 33.091-.513 33.088.513-2.799-23.872z"/>
            <path fill="#FAB08A" d="M143.138 127l-3.26 10.728c-2.378 7.824.161 16.226 6.576 21.764L161.247 171 166 158.12l-8.18-7.599c-2.688-2.495-3.489-6.244-2.028-9.502l3.137-7.006L143.138 127zM224.863 127l3.26 10.728c2.377 7.824-.162 16.226-6.575 21.764L206.756 171 202 158.12l8.183-7.599c2.685-2.495 3.486-6.244 2.028-9.502l-3.139-7.006 15.79-7.013z"/>
            <path fill="#000" d="M160 147h53v34h-53z"/>
            <path fill="#FFF" d="M184.512 156.331c0 1.18.973 2.137 2.169 2.137 1.198 0 2.167-.956 2.167-2.137 0-1.182-.97-2.139-2.167-2.139-1.196 0-2.169.957-2.169 2.139"/>
            <path fill="#FAB08A" d="M161 196.148L147.584 198 145 195.117l1.31-5.229L159.208 188z"/>
            <path fill="#919A9A" d="M148 197.698l-16.699 2.081s-16.437 2.155-14.067-6.997c2.287-8.836 17.04-4.915 17.04-4.915L148 189.54c-1.65 2.269-1.726 5.52-.19 7.866l.19.29z"/>
            <path fill="#FAB08A" d="M214 197.148L227.416 199l2.584-2.883-1.31-5.229L215.792 189z"/>
            <path fill="#919A9A" d="M227 198.698l16.699 2.081s16.437 2.155 14.067-6.997c-2.287-8.836-17.04-4.915-17.04-4.915L227 190.54c1.65 2.269 1.726 5.52.19 7.866l-.19.29z"/>
            <path fill="#C0ABC3" d="M160 177h54v-3h-54z"/>
            <path fill="#1C2C57" d="M252.242 166.806C263.09 186.136 153.85 198 153.85 198l-1.85-8.61s86.866-46.419 100.242-22.584"/>
            <path fill="#004060" d="M117.557 166.798C108.314 186.928 217.19 199 217.19 199l.809-9.672S128.49 143 117.557 166.798"/>
            <path fill="#F79C82" d="M189.997 101.164c-.974-3.067-2.74-12.164-2.74-12.164L176 91.287v9.93s3.735 2.755 6.88 2.783c3.432.029 7.239-2.49 7.117-2.836"/>
            <g>
                <g transform="translate(85 69.33)">
                    <mask id="k" fill="#fff">
                        <use xlink:href="#j"/>
                    </mask>
                    <path fill="#FFD052" d="M37.64 19.351c0 10.486-8.426 18.988-18.82 18.988C8.427 38.34 0 29.837 0 19.351 0 8.865 8.427.363 18.82.363c10.394 0 18.82 8.502 18.82 18.988" mask="url(#k)"/>
                </g>
                <path fill="#FFF" d="M94.172 91.144h20.31s-2.136 9.915-10.32 9.915c-8.184 0-9.99-9.915-9.99-9.915M113.096 83.212a1.44 1.44 0 0 0 .076-.441c0-.851-.734-1.542-1.638-1.542-.905 0-1.637.69-1.637 1.542 0 .155.03.3.075.44h3.124zM99.337 83.212c.044-.14.077-.286.077-.441 0-.851-.735-1.542-1.639-1.542-.905 0-1.637.69-1.637 1.542 0 .155.03.3.075.44h3.124z"/>
            </g>
            <g>
                <path fill="#FAB08A" d="M191.319 73.704L188.969 60 165 70.572l1.453 8.022s1.853 19.539 14.612 17.214c13.799-2.513 10.868-22.277 10.254-22.104"/>
                <g transform="translate(144 53)">
                    <mask id="m" fill="#fff">
                        <use xlink:href="#l"/>
                    </mask>
                    <path fill="#1C2C57" d="M21.568 26.45c15.342 3.235 23.987-13.858 23.987-13.858s-.47 3.568.98 8.85c5.164-6.704 1.787-15.15 1.787-15.15s-4.174-9.226-22.791-4.706C3.825 6.858.208 36.696.208 36.696s-1.587 6.498 4.003 16.912c1.579 2.942 1.49 6.566-.54 9.216C-.975 68.89.208 76.374.208 76.374s.455 3.903 3.783 6.457c3.114 2.388 4.37 7.506 3.121 11.227-2.672 7.963-.393 12.497-.393 12.497s1.455 5.115 9.407 5.429c11.596.456 11.349-8.758 10.305-13.95-.397-1.973.118-4.017 1.463-5.515 1.422-1.585 2.968-4.06 3.065-7.397.08-2.815-1.016-5.794-2.248-8.218-1.597-3.14-1.32-6.88.768-9.715 2.96-4.023 6.785-12.029 4.643-17.22-3.618-8.776-9.796-11.704-12.554-23.52" mask="url(#m)"/>
                </g>
            </g>
        </g>
    </g>
</svg>
