<?xml version="1.0" encoding="UTF-8"?>
<svg width="349px" height="124px" viewBox="0 0 349 124" version="1.1" xmlns="http://www.w3.org/2000/svg" xmlns:xlink="http://www.w3.org/1999/xlink">
    <!-- Generator: Sketch 52.4 (67378) - http://www.bohemiancoding.com/sketch -->
    <title>Group 10</title>
    <desc>Created with Sketch.</desc>
    <defs>
        <ellipse id="path-1" cx="18.4922831" cy="18.2117233" rx="18.4922831" ry="18.2117233"></ellipse>
        <polygon id="path-3" points="0 0 26.2143354 0 26.2143354 33.8217719 0 33.8217719"></polygon>
        <path d="M337,16 L336.987511,83.7720047 C336.987511,92.6036857 329.831673,99.7651088 320.999995,99.7719998 L60.7957505,99.9999951 C51.9591972,100.00689 44.790166,92.8490374 44.7832712,84.0124841 C44.783268,84.0083227 44.7832664,84.0041613 44.7832664,83.9999999 L44.7957457,10.2186639 C44.7957457,7.10210909 43.1971638,3.69588779 40,3.55271368e-14 C133.666667,3.55271368e-14 227.333333,3.55271368e-14 321,3.55271368e-14 L321,-7.46069873e-14 C329.836556,-7.62302363e-14 337,7.163444 337,16 Z" id="path-5"></path>
        <filter x="-7.4%" y="-30.0%" width="114.8%" height="144.0%" filterUnits="objectBoundingBox" id="filter-6">
            <feOffset dx="0" dy="-8" in="SourceAlpha" result="shadowOffsetOuter1"></feOffset>
            <feGaussianBlur stdDeviation="6" in="shadowOffsetOuter1" result="shadowBlurOuter1"></feGaussianBlur>
            <feColorMatrix values="0 0 0 0 0   0 0 0 0 0   0 0 0 0 0  0 0 0 0.25 0" type="matrix" in="shadowBlurOuter1"></feColorMatrix>
        </filter>
    </defs>
    <g id="Page-1" stroke="none" stroke-width="1" fill="none" fill-rule="evenodd">
        <g id="Distribute-Estate" transform="translate(-600.000000, -696.000000)">
            <g id="Group-10" transform="translate(600.000000, 700.000000)">
                <g id="Group-5" transform="translate(0.000000, 65.000000)">
                    <g id="Group-12">
                        <g id="Group-4">
                            <g id="Group-9" transform="translate(0.000000, 0.155684)">
                                <mask id="mask-2" fill="white">
                                    <use xlink:href="#path-1"></use>
                                </mask>
                                <use id="Mask" fill="#005150" xlink:href="#path-1"></use>
                                <g mask="url(#mask-2)" id="Group-8">
                                    <g transform="translate(-8.534900, 9.205926)">
                                        <g>
                                            <path d="M1.43287091,28.2181647 L47.5411975,28.2181647 C47.1717012,40.6601214 36.9914298,50.6325934 24.4870342,50.6325934 C11.9826386,50.6325934 1.80236719,40.6601214 1.43287091,28.2181647 Z" id="Combined-Shape-Copy-2" fill="#008181" transform="translate(24.487034, 39.425379) rotate(-315.000000) translate(-24.487034, -39.425379) "></path>
                                            <g id="Group-7" transform="translate(15.647316, 0.000000)">
                                                <g id="Group-6">
                                                    <path d="M12.4002377,17.8114657 L33.1192284,17.8114657 C32.9595092,23.3648245 28.3825424,27.8179071 22.759733,27.8179071 C17.1369237,27.8179071 12.5599569,23.3648245 12.4002377,17.8114657 Z" id="Combined-Shape-Copy" fill="#FF9445" transform="translate(22.759733, 22.814686) rotate(-30.000000) translate(-22.759733, -22.814686) "></path>
                                                    <g id="Group">
                                                        <g id="Group-3">
                                                            <mask id="mask-4" fill="white">
                                                                <use xlink:href="#path-3"></use>
                                                            </mask>
                                                            <g id="Clip-2"></g>
                                                            <path d="M22.8146948,32.0206124 L22.8146948,11.0022768 C22.8146948,10.5961998 22.7920803,10.1951147 22.7481686,9.80054072 C22.567033,8.17037283 22.7139175,6.52674862 23.1323956,4.93998821 C23.2101193,4.64460031 23.2816953,4.3381435 23.3490997,4.02040075 C23.5227703,3.20325495 22.642122,2.56928871 21.911432,2.98838793 C21.583851,3.17655935 21.2430965,3.35865373 20.9025616,3.5209977 C20.4693731,3.72740027 19.9553871,3.6364616 19.6183652,3.29723214 C17.5979897,1.2640258 14.7883023,0 11.6844067,0 C8.58051112,0 5.77148232,1.26380877 3.75088736,3.29636399 C3.41408494,3.63559345 2.89965986,3.72653212 2.46647135,3.51991251 C2.12681467,3.35800262 1.78693843,3.17612528 1.45979658,2.98838793 C0.729326137,2.56928871 -0.151322174,3.20303791 0.022128877,4.02018372 C0.0893137145,4.33575609 0.160231043,4.64004252 0.237296004,4.93347708 C0.655115434,6.5202375 0.803097723,8.16364467 0.62086434,9.79337849 C0.576513565,10.1903399 0.553679503,10.5935954 0.553679503,11.0022768 L0.553679503,16.4490473 C0.553679503,23.3723233 4.74592554,29.342588 10.7508448,32.0206124 L2.76726621,32.0206124 L26.2143354,32.0206124 L22.8146948,32.0206124 Z" id="Fill-1" fill="#00BCBC" mask="url(#mask-4)"></path>
                                                        </g>
                                                        <path d="M16.264054,5.40347835 C14.1575396,5.40347835 12.3635891,6.73231538 11.6846844,8.59212027 C11.0057796,6.73231538 9.21204868,5.40347835 7.10553428,5.40347835 C4.41581587,5.40347835 2.23533092,7.56965279 2.23533092,10.2415005 C2.23533092,15.7485204 2.77024554,20.2130116 11.6846844,20.2130116 C20.1041571,20.2130116 21.1340378,15.7485204 21.1340378,10.2415005 C21.1340378,7.56965279 18.9535529,5.40347835 16.264054,5.40347835" id="Fill-4" fill="#FFFFFF" opacity="0.901283482"></path>
                                                    </g>
                                                </g>
                                            </g>
                                        </g>
                                    </g>
                                </g>
                            </g>
                        </g>
                        <path d="M19.8271447,25.5979014 L20.9087431,23.6255727 C21.0294909,23.4055119 20.9938339,23.1287124 20.8220315,22.9500124 L19.2301586,21.2910717 C19.0105433,21.0622614 18.6396556,21.0622614 18.4203105,21.2910717 L16.8281674,22.9500124 C16.6563651,23.1287124 16.620708,23.4055119 16.7414559,23.6255727 L17.8230542,25.5979014 C18.2525601,26.381371 19.3976389,26.381371 19.8271447,25.5979014" id="Fill-10" fill="#FFA32C"></path>
                    </g>
                    <g id="Group-14" transform="translate(13.000000, 19.000000)" fill="#007F7E">
                        <ellipse id="Oval-7" cx="9.6444953" cy="1.5" rx="1.3555047" ry="1.5"></ellipse>
                        <ellipse id="Oval-7-Copy" cx="1.3555047" cy="1.5" rx="1.3555047" ry="1.5"></ellipse>
                    </g>
                </g>
                <g id="Shape" fill-rule="nonzero" transform="translate(188.500000, 50.000000) scale(1, -1) translate(-188.500000, -50.000000) ">
                    <use fill="black" fill-opacity="1" filter="url(#filter-6)" xlink:href="#path-5"></use>
                    <use fill="#F3F3F3" xlink:href="#path-5"></use>
                </g>
            </g>
        </g>
    </g>
</svg>