<svg xmlns="http://www.w3.org/2000/svg" width="180" height="153" viewBox="0 0 180 153">
    <g fill="none" fill-rule="evenodd">
        <path fill="#FFF2F2" stroke="#E02020" stroke-dasharray="4,4" stroke-linecap="round" stroke-width="2" d="M147.876 21.178L4.794 51.528c-2.463.522-4.038 2.923-3.52 5.363l16.581 77.845c.52 2.44 2.938 3.993 5.402 3.47l143.082-30.35c2.464-.522 4.039-2.923 3.52-5.362l-16.58-77.845c-.52-2.44-2.939-3.994-5.403-3.471"/>
        <path fill="#FFF" stroke="#98DFDF" stroke-width="2" d="M173.506 62.462H27.227c-2.518 0-4.56 2.021-4.56 4.515v79.584c0 2.494 2.042 4.516 4.56 4.516h146.279c2.519 0 4.56-2.022 4.56-4.516V66.977c0-2.494-2.041-4.515-4.56-4.515"/>
        <path fill="#175059" d="M25.133 96.923H175.6v-17.23H25.133z"/>
        <path fill="#8CD7D7" d="M123.8 122.956h32.067v-3.88H123.8zM74.467 132.802h83.866v-3.879H74.467z"/>
        <path fill="#FF872F" d="M146 114.154h22.2v-12.308H146z"/>
        <g>
            <g transform="translate(128.733 .923)">
                <ellipse cx="24.667" cy="24.184" fill="#E02020" rx="24.667" ry="24.184"/>
                <g fill="#FFF" transform="translate(22.28 12.482)">
                    <path d="M0 0h4.774v15.29H0z"/>
                    <ellipse cx="2.387" cy="19.659" rx="2.387" ry="2.184"/>
                </g>
            </g>
        </g>
    </g>
</svg>
