<svg width="282" height="193" viewBox="0 0 282 193" fill="none" xmlns="http://www.w3.org/2000/svg">
<path fill-rule="evenodd" clip-rule="evenodd" d="M122.213 130.378C122.213 130.378 120.27 85.5141 146.684 69.2646C178.816 88.1667 163.716 128.14 163.716 128.14L137.238 156.498L122.213 130.378Z" fill="#118C8C"/>
<path fill-rule="evenodd" clip-rule="evenodd" d="M167.261 111.177L140.209 129.24L144.153 93.008L159.657 81.9196L159.103 81.1121L144.296 91.7034L146.739 69.2646L145.729 69.617L141.253 110.724L125.816 97.7068L125.787 98.9621L141.125 111.896L136.147 157.627L137.107 157.735L140.071 130.51L166.986 112.537L167.261 111.177Z" fill="#006769"/>
<path fill-rule="evenodd" clip-rule="evenodd" d="M138.797 143.306C138.797 143.306 158.729 111.775 182.91 116.852C200.287 165.163 141.318 191.138 141.318 191.138L138.797 143.306Z" fill="#FFD052"/>
<path fill-rule="evenodd" clip-rule="evenodd" d="M138.797 143.306C138.797 143.306 158.729 111.775 182.91 116.852C200.287 165.163 141.318 191.138 141.318 191.138L138.797 143.306Z" fill="#FAA525"/>
<mask id="mask0_324_3797" style="mask-type:alpha" maskUnits="userSpaceOnUse" x="138" y="116" width="49" height="76">
<path fill-rule="evenodd" clip-rule="evenodd" d="M138.797 143.306L141.318 191.138C141.318 191.138 186.045 171.434 186.114 134.434V134.268C186.104 128.833 185.13 123.023 182.91 116.852C181.108 116.473 179.331 116.298 177.583 116.299C155.87 116.3 138.797 143.306 138.797 143.306Z" fill="white"/>
</mask>
<g mask="url(#mask0_324_3797)">
<path fill-rule="evenodd" clip-rule="evenodd" d="M180.645 157.184L152.971 157.862L183.296 117.152L182.525 116.551L164.119 141.26L161.456 120.464L160.587 121.317L163.284 142.38L138.318 175.898L139.09 176.497L152.22 158.871L179.787 158.196L180.645 157.184Z" fill="white"/>
</g>
<path fill-rule="evenodd" clip-rule="evenodd" d="M119.149 147.284C119.149 147.284 83.0249 121.569 90.0217 89.1838C144.731 80.7066 149.83 147.837 149.83 147.837L119.149 147.284Z" fill="#004060"/>
<mask id="mask1_324_3797" style="mask-type:alpha" maskUnits="userSpaceOnUse" x="88" y="88" width="62" height="60">
<path fill-rule="evenodd" clip-rule="evenodd" d="M89.606 88.825C82.6334 121.22 118.631 146.942 118.631 146.942L149.203 147.495C149.203 147.495 144.709 88.0838 98.8058 88.0847C95.9073 88.0847 92.8434 88.3214 89.606 88.825Z" fill="white"/>
</mask>
<g mask="url(#mask1_324_3797)">
<path fill-rule="evenodd" clip-rule="evenodd" d="M129.43 96.7102L128.548 96.1674L124.076 129.216L90.5598 89.1177L89.8445 89.7613L113.621 118.206L95.5783 120.883L95.9311 121.515L114.366 119.1L133.664 142.187L134.838 142.091L124.9 130.201L129.43 96.7102Z" fill="#006769"/>
</g>
<path fill-rule="evenodd" clip-rule="evenodd" d="M148.802 153.484L145.766 151.541L155.239 147.242L151.318 138.154C149.505 134.278 144.822 131.135 140.347 131.132H120.843C116.37 131.135 111.686 134.278 109.873 138.154L105.952 147.242L115.425 151.541L112.39 153.484L110.707 168.253L130.596 167.935L150.484 168.253L148.802 153.484Z" fill="#58C4C5"/>
<path fill-rule="evenodd" clip-rule="evenodd" d="M106.035 147.218L104.076 153.855C102.646 158.695 104.172 163.894 108.028 167.32L116.92 174.44L119.777 166.472L114.86 161.77C113.244 160.226 112.763 157.906 113.641 155.891L115.526 151.557L106.035 147.218Z" fill="#FAB08A"/>
<path fill-rule="evenodd" clip-rule="evenodd" d="M155.157 147.218L157.116 153.855C158.545 158.695 157.019 163.894 153.164 167.32L144.274 174.44L141.415 166.472L146.333 161.77C147.947 160.226 148.429 157.906 147.552 155.891L145.666 151.557L155.157 147.218Z" fill="#FAB08A"/>
<rect x="116.17" y="159.591" width="31.8564" height="21.035" fill="black"/>
<path fill-rule="evenodd" clip-rule="evenodd" d="M130.904 165.364C130.904 166.095 131.488 166.687 132.207 166.687C132.927 166.687 133.51 166.095 133.51 165.364C133.51 164.633 132.927 164.041 132.207 164.041C131.488 164.041 130.904 164.633 130.904 165.364Z" fill="white"/>
<path fill-rule="evenodd" clip-rule="evenodd" d="M116.771 189.998L108.707 191.144L107.154 189.36L107.942 186.125L115.694 184.957L116.771 189.998Z" fill="#FAB08A"/>
<path fill-rule="evenodd" clip-rule="evenodd" d="M108.957 190.957L98.9203 192.245C98.9203 192.245 89.0406 193.578 90.4649 187.916C91.8398 182.449 100.707 184.875 100.707 184.875L108.957 185.91C107.966 187.314 107.92 189.326 108.843 190.777L108.957 190.957Z" fill="#919A9A"/>
<path fill-rule="evenodd" clip-rule="evenodd" d="M148.628 190.617L156.691 191.763L158.245 189.979L157.457 186.744L149.705 185.576L148.628 190.617Z" fill="#FAB08A"/>
<path fill-rule="evenodd" clip-rule="evenodd" d="M156.441 191.576L166.479 192.863C166.479 192.863 176.358 194.197 174.934 188.535C173.559 183.068 164.691 185.493 164.691 185.493L156.441 186.529C157.433 187.933 157.479 189.944 156.556 191.396L156.441 191.576Z" fill="#919A9A"/>
<path fill-rule="evenodd" clip-rule="evenodd" d="M116.17 178.152H148.628V176.296H116.17V178.152Z" fill="#C0ABC3"/>
<path fill-rule="evenodd" clip-rule="evenodd" d="M171.614 171.845C178.134 183.805 112.474 191.144 112.474 191.144L111.362 185.818C111.362 185.818 163.574 157.099 171.614 171.845Z" fill="#1C2C57"/>
<path fill-rule="evenodd" clip-rule="evenodd" d="M90.6592 171.84C85.1035 184.294 150.545 191.763 150.545 191.763L151.032 185.779C151.032 185.779 97.2306 157.116 90.6592 171.84Z" fill="#004060"/>
<path fill-rule="evenodd" clip-rule="evenodd" d="M134.2 131.234C133.615 129.336 132.553 123.708 132.553 123.708L125.787 125.123V131.266C125.787 131.266 128.032 132.971 129.922 132.988C131.985 133.006 134.273 131.448 134.2 131.234Z" fill="#F79C82"/>
<path fill-rule="evenodd" clip-rule="evenodd" d="M76.6035 125.035H88.8113C88.8113 125.035 87.5268 131.169 82.6078 131.169C77.6888 131.169 76.6035 125.035 76.6035 125.035Z" fill="white"/>
<path fill-rule="evenodd" clip-rule="evenodd" d="M87.9777 120.127C88.0045 120.04 88.0237 119.95 88.0237 119.854C88.0237 119.328 87.582 118.9 87.0387 118.9C86.4952 118.9 86.0547 119.328 86.0547 119.854C86.0547 119.95 86.0729 120.04 86.0998 120.127H87.9777Z" fill="white"/>
<path fill-rule="evenodd" clip-rule="evenodd" d="M79.7079 120.127C79.7342 120.04 79.7539 119.95 79.7539 119.854C79.7539 119.328 79.3125 118.9 78.7689 118.9C78.2248 118.9 77.7849 119.328 77.7849 119.854C77.7849 119.95 77.8031 120.04 77.83 120.127H79.7079Z" fill="white"/>
<path fill-rule="evenodd" clip-rule="evenodd" d="M134.995 114.245L133.583 105.767L119.176 112.307L120.049 117.271C120.049 117.271 121.163 129.358 128.832 127.92C137.126 126.365 135.364 114.138 134.995 114.245Z" fill="#FAB08A"/>
<mask id="mask2_324_3797" style="mask-type:alpha" maskUnits="userSpaceOnUse" x="106" y="101" width="31" height="70">
<path fill-rule="evenodd" clip-rule="evenodd" d="M106.553 101.646H136.249V170.728H106.553V101.646Z" fill="white"/>
</mask>
<g mask="url(#mask2_324_3797)">
<path fill-rule="evenodd" clip-rule="evenodd" d="M119.517 117.8C128.738 119.801 133.935 109.226 133.935 109.226C133.935 109.226 133.652 111.434 134.523 114.701C137.627 110.554 135.598 105.329 135.598 105.329C135.598 105.329 133.089 99.6203 121.899 102.417C108.853 105.679 106.678 124.139 106.678 124.139C106.678 124.139 105.724 128.159 109.084 134.602C110.033 136.422 109.98 138.664 108.76 140.303C105.967 144.056 106.678 148.687 106.678 148.687C106.678 148.687 106.952 151.101 108.952 152.682C110.824 154.159 111.578 157.325 110.828 159.627C109.222 164.554 110.592 167.359 110.592 167.359C110.592 167.359 111.466 170.523 116.246 170.717C123.216 171 123.067 165.299 122.44 162.087C122.202 160.866 122.511 159.602 123.319 158.675C124.174 157.695 125.103 156.163 125.162 154.099C125.21 152.357 124.551 150.514 123.81 149.015C122.85 147.072 123.017 144.758 124.272 143.004C126.051 140.515 128.35 135.562 127.063 132.35C124.888 126.921 121.175 125.11 119.517 117.8Z" fill="#1C2C57"/>
</g>
<path d="M0 39.5C0 73 41 85.8333 65.5 98.5L71 101C64.6 86.2 76.6671 79.1667 83.5007 77.5C103.334 71.8333 133 62 133 35.5C133 8.99992 104 0 66 0C21.5 0 0 15.5 0 39.5Z" fill="#58C4C5"/>
<path d="M21.4334 38.162C20.1734 38.162 19.0694 37.892 18.1214 37.352C17.1854 36.812 16.4654 36.05 15.9614 35.066C15.4574 34.07 15.2054 32.906 15.2054 31.574C15.2054 30.254 15.4574 29.102 15.9614 28.118C16.4654 27.122 17.1854 26.36 18.1214 25.832C19.0694 25.292 20.1734 25.022 21.4334 25.022C22.2974 25.022 23.1074 25.16 23.8634 25.436C24.6314 25.7 25.2674 26.072 25.7714 26.552L25.0154 28.244C24.4394 27.776 23.8634 27.44 23.2874 27.236C22.7234 27.02 22.1174 26.912 21.4694 26.912C20.2334 26.912 19.2734 27.314 18.5894 28.118C17.9174 28.922 17.5814 30.074 17.5814 31.574C17.5814 33.086 17.9174 34.25 18.5894 35.066C19.2614 35.87 20.2214 36.272 21.4694 36.272C22.1174 36.272 22.7234 36.17 23.2874 35.966C23.8634 35.75 24.4394 35.408 25.0154 34.94L25.7714 36.632C25.2674 37.112 24.6314 37.49 23.8634 37.766C23.1074 38.03 22.2974 38.162 21.4334 38.162ZM31.5659 38.144C30.6419 38.144 29.8259 37.952 29.1179 37.568C28.4219 37.184 27.8819 36.638 27.4979 35.93C27.1259 35.21 26.9399 34.37 26.9399 33.41C26.9399 32.45 27.1259 31.616 27.4979 30.908C27.8819 30.188 28.4219 29.636 29.1179 29.252C29.8259 28.868 30.6419 28.676 31.5659 28.676C32.4779 28.676 33.2819 28.868 33.9779 29.252C34.6739 29.636 35.2079 30.188 35.5799 30.908C35.9639 31.616 36.1559 32.45 36.1559 33.41C36.1559 34.37 35.9639 35.21 35.5799 35.93C35.2079 36.638 34.6739 37.184 33.9779 37.568C33.2819 37.952 32.4779 38.144 31.5659 38.144ZM31.5479 36.38C32.3159 36.38 32.8979 36.134 33.2939 35.642C33.7019 35.138 33.9059 34.394 33.9059 33.41C33.9059 32.438 33.7019 31.7 33.2939 31.196C32.8859 30.68 32.3099 30.422 31.5659 30.422C30.8099 30.422 30.2279 30.68 29.8199 31.196C29.4119 31.7 29.2079 32.438 29.2079 33.41C29.2079 34.394 29.4059 35.138 29.8019 35.642C30.2099 36.134 30.7919 36.38 31.5479 36.38ZM43.1383 28.676C45.3103 28.676 46.3963 29.924 46.3963 32.42V38H44.1463V32.528C44.1463 31.808 44.0083 31.286 43.7323 30.962C43.4563 30.626 43.0303 30.458 42.4543 30.458C41.7703 30.458 41.2183 30.68 40.7983 31.124C40.3783 31.556 40.1683 32.132 40.1683 32.852V38H37.9363V31.484C37.9363 30.524 37.8883 29.666 37.7923 28.91H39.8983L40.0603 30.404C40.3723 29.852 40.7923 29.426 41.3203 29.126C41.8603 28.826 42.4663 28.676 43.1383 28.676ZM52.924 26.534C51.952 26.534 51.466 27.068 51.466 28.136V28.91H53.5V30.602H51.466V38H49.216V30.602H47.488V28.91H49.216V28.028C49.216 26.948 49.486 26.12 50.026 25.544C50.578 24.956 51.364 24.662 52.384 24.662C52.948 24.662 53.422 24.734 53.806 24.878V26.66C53.47 26.576 53.176 26.534 52.924 26.534ZM55.228 38V24.752H57.46V38H55.228ZM59.7647 38V28.91H61.9967V38H59.7647ZM59.6207 24.788H62.1227V27.002H59.6207V24.788ZM68.4201 38.144C67.4721 38.144 66.6501 37.952 65.9541 37.568C65.2581 37.184 64.7241 36.644 64.3521 35.948C63.9801 35.24 63.7941 34.412 63.7941 33.464C63.7941 32.516 63.9861 31.682 64.3701 30.962C64.7661 30.242 65.3181 29.684 66.0261 29.288C66.7461 28.88 67.5741 28.676 68.5101 28.676C69.1581 28.676 69.7821 28.778 70.3821 28.982C70.9941 29.186 71.4801 29.468 71.8401 29.828L71.2101 31.412C70.8261 31.1 70.4181 30.866 69.9861 30.71C69.5541 30.542 69.1281 30.458 68.7081 30.458C67.8921 30.458 67.2561 30.716 66.8001 31.232C66.3441 31.736 66.1161 32.468 66.1161 33.428C66.1161 34.388 66.3381 35.12 66.7821 35.624C67.2381 36.128 67.8801 36.38 68.7081 36.38C69.1281 36.38 69.5541 36.296 69.9861 36.128C70.4181 35.96 70.8261 35.72 71.2101 35.408L71.8401 36.992C71.4561 37.352 70.9581 37.634 70.3461 37.838C69.7341 38.042 69.0921 38.144 68.4201 38.144ZM76.1055 30.602V34.67C76.1055 35.738 76.6035 36.272 77.5995 36.272C77.8755 36.272 78.1755 36.224 78.4995 36.128V37.91C78.1035 38.054 77.6235 38.126 77.0595 38.126C76.0275 38.126 75.2355 37.838 74.6835 37.262C74.1315 36.686 73.8555 35.858 73.8555 34.778V30.602H72.1095V28.91H73.8555V26.696L76.1055 25.94V28.91H78.5175V30.602H76.1055ZM79.7109 34.04V32.24H85.1289V34.04H79.7109ZM91.7275 26.534C90.7555 26.534 90.2695 27.068 90.2695 28.136V28.91H92.3035V30.602H90.2695V38H88.0195V30.602H86.2915V28.91H88.0195V28.028C88.0195 26.948 88.2895 26.12 88.8295 25.544C89.3815 24.956 90.1675 24.662 91.1875 24.662C91.7515 24.662 92.2255 24.734 92.6095 24.878V26.66C92.2735 26.576 91.9795 26.534 91.7275 26.534ZM98.7709 28.694C99.1189 28.694 99.4189 28.742 99.6709 28.838L99.6529 30.89C99.2689 30.734 98.8729 30.656 98.4649 30.656C97.6969 30.656 97.1089 30.878 96.7009 31.322C96.3049 31.766 96.1069 32.354 96.1069 33.086V38H93.8749V31.484C93.8749 30.524 93.8269 29.666 93.7309 28.91H95.8369L96.0169 30.512C96.2449 29.924 96.6049 29.474 97.0969 29.162C97.5889 28.85 98.1469 28.694 98.7709 28.694ZM108.544 33.572H102.28C102.328 34.544 102.568 35.264 103 35.732C103.444 36.188 104.098 36.416 104.962 36.416C105.958 36.416 106.882 36.092 107.734 35.444L108.382 36.992C107.95 37.34 107.416 37.622 106.78 37.838C106.156 38.042 105.52 38.144 104.872 38.144C103.384 38.144 102.214 37.724 101.362 36.884C100.51 36.044 100.084 34.892 100.084 33.428C100.084 32.504 100.27 31.682 100.642 30.962C101.014 30.242 101.536 29.684 102.208 29.288C102.88 28.88 103.642 28.676 104.494 28.676C105.742 28.676 106.726 29.084 107.446 29.9C108.178 30.704 108.544 31.814 108.544 33.23V33.572ZM104.548 30.296C103.948 30.296 103.456 30.476 103.072 30.836C102.7 31.184 102.46 31.694 102.352 32.366H106.582C106.51 31.682 106.3 31.166 105.952 30.818C105.616 30.47 105.148 30.296 104.548 30.296ZM118.245 33.572H111.981C112.029 34.544 112.269 35.264 112.701 35.732C113.145 36.188 113.799 36.416 114.663 36.416C115.659 36.416 116.583 36.092 117.435 35.444L118.083 36.992C117.651 37.34 117.117 37.622 116.481 37.838C115.857 38.042 115.221 38.144 114.573 38.144C113.085 38.144 111.915 37.724 111.063 36.884C110.211 36.044 109.785 34.892 109.785 33.428C109.785 32.504 109.971 31.682 110.343 30.962C110.715 30.242 111.237 29.684 111.909 29.288C112.581 28.88 113.343 28.676 114.195 28.676C115.443 28.676 116.427 29.084 117.147 29.9C117.879 30.704 118.245 31.814 118.245 33.23V33.572ZM114.249 30.296C113.649 30.296 113.157 30.476 112.773 30.836C112.401 31.184 112.161 31.694 112.053 32.366H116.283C116.211 31.682 116.001 31.166 115.653 30.818C115.317 30.47 114.849 30.296 114.249 30.296ZM49.0653 59L47.7873 55.994H41.5233L40.2273 59H37.8873L43.6833 46.184H45.5733L51.3873 59H49.0653ZM42.2973 54.194H47.0133L44.6553 48.704L42.2973 54.194ZM61.1453 45.752V59H58.9313V57.542C58.6553 58.046 58.2593 58.442 57.7433 58.73C57.2273 59.006 56.6393 59.144 55.9793 59.144C55.1993 59.144 54.5033 58.946 53.8913 58.55C53.2793 58.154 52.7993 57.596 52.4513 56.876C52.1153 56.144 51.9473 55.31 51.9473 54.374C51.9473 53.438 52.1153 52.616 52.4513 51.908C52.7873 51.2 53.2613 50.654 53.8733 50.27C54.4853 49.874 55.1873 49.676 55.9793 49.676C56.6273 49.676 57.2033 49.814 57.7073 50.09C58.2233 50.354 58.6193 50.732 58.8953 51.224V45.752H61.1453ZM56.5733 57.38C57.3173 57.38 57.8933 57.122 58.3013 56.606C58.7213 56.09 58.9313 55.358 58.9313 54.41C58.9313 53.462 58.7273 52.73 58.3193 52.214C57.9113 51.698 57.3353 51.44 56.5913 51.44C55.8353 51.44 55.2473 51.698 54.8273 52.214C54.4193 52.718 54.2153 53.438 54.2153 54.374C54.2153 55.322 54.4193 56.06 54.8273 56.588C55.2473 57.116 55.8293 57.38 56.5733 57.38ZM69.8078 49.928H72.0398L68.0618 59H66.0998L62.1758 49.928H64.5338L67.1438 56.444L69.8078 49.928ZM73.0493 59V49.91H75.2813V59H73.0493ZM72.9053 45.788H75.4073V48.002H72.9053V45.788ZM81.7046 59.144C80.7566 59.144 79.9346 58.952 79.2386 58.568C78.5426 58.184 78.0086 57.644 77.6366 56.948C77.2646 56.24 77.0786 55.412 77.0786 54.464C77.0786 53.516 77.2706 52.682 77.6546 51.962C78.0506 51.242 78.6026 50.684 79.3106 50.288C80.0306 49.88 80.8586 49.676 81.7946 49.676C82.4426 49.676 83.0666 49.778 83.6666 49.982C84.2786 50.186 84.7646 50.468 85.1246 50.828L84.4946 52.412C84.1106 52.1 83.7026 51.866 83.2706 51.71C82.8386 51.542 82.4126 51.458 81.9926 51.458C81.1766 51.458 80.5406 51.716 80.0846 52.232C79.6286 52.736 79.4006 53.468 79.4006 54.428C79.4006 55.388 79.6226 56.12 80.0666 56.624C80.5226 57.128 81.1646 57.38 81.9926 57.38C82.4126 57.38 82.8386 57.296 83.2706 57.128C83.7026 56.96 84.1106 56.72 84.4946 56.408L85.1246 57.992C84.7406 58.352 84.2426 58.634 83.6306 58.838C83.0186 59.042 82.3766 59.144 81.7046 59.144ZM94.4314 54.572H88.1674C88.2154 55.544 88.4554 56.264 88.8874 56.732C89.3314 57.188 89.9854 57.416 90.8494 57.416C91.8454 57.416 92.7694 57.092 93.6214 56.444L94.2694 57.992C93.8374 58.34 93.3034 58.622 92.6674 58.838C92.0434 59.042 91.4074 59.144 90.7594 59.144C89.2714 59.144 88.1014 58.724 87.2494 57.884C86.3974 57.044 85.9714 55.892 85.9714 54.428C85.9714 53.504 86.1574 52.682 86.5294 51.962C86.9014 51.242 87.4234 50.684 88.0954 50.288C88.7674 49.88 89.5294 49.676 90.3814 49.676C91.6294 49.676 92.6134 50.084 93.3334 50.9C94.0654 51.704 94.4314 52.814 94.4314 54.23V54.572ZM90.4354 51.296C89.8354 51.296 89.3434 51.476 88.9594 51.836C88.5874 52.184 88.3474 52.694 88.2394 53.366H92.4694C92.3974 52.682 92.1874 52.166 91.8394 51.818C91.5034 51.47 91.0354 51.296 90.4354 51.296Z" fill="white"/>
<path d="M282 67.9048C282 98.1944 244.699 109.798 222.41 121.251L217.406 123.511C219.074 120.045 220.135 116.911 220.135 114.017C220.135 112.661 221.955 108.14 206.033 102.263C187.989 97.1396 160.999 88.2486 160.999 64.2881C160.999 40.3276 187.383 32.1902 221.955 32.1902C262.44 32.1902 282 46.2048 282 67.9048Z" fill="#2D8289"/>
<path d="M184.365 66.7792C182.601 66.7792 181.263 66.3292 180.351 65.4292C179.451 64.5172 179.001 63.1852 179.001 61.4332V53.8012H181.287V61.5592C181.287 62.6632 181.545 63.5032 182.061 64.0792C182.577 64.6432 183.345 64.9252 184.365 64.9252C185.361 64.9252 186.117 64.6372 186.633 64.0612C187.161 63.4852 187.425 62.6512 187.425 61.5592V53.8012H189.711V61.4332C189.711 63.1732 189.255 64.4992 188.343 65.4112C187.431 66.3232 186.105 66.7792 184.365 66.7792ZM197.26 57.2932C198.04 57.2932 198.73 57.4972 199.33 57.9052C199.942 58.3012 200.416 58.8652 200.752 59.5972C201.1 60.3172 201.274 61.1452 201.274 62.0812C201.274 63.0172 201.106 63.8392 200.77 64.5472C200.434 65.2552 199.96 65.8012 199.348 66.1852C198.748 66.5692 198.052 66.7612 197.26 66.7612C196.6 66.7612 196.012 66.6232 195.496 66.3472C194.98 66.0592 194.584 65.6632 194.308 65.1592V70.5052H192.076V60.1012C192.076 59.1412 192.028 58.2832 191.932 57.5272H194.038L194.218 59.0932C194.458 58.5292 194.848 58.0912 195.388 57.7792C195.928 57.4552 196.552 57.2932 197.26 57.2932ZM196.648 64.9972C197.404 64.9972 197.986 64.7452 198.394 64.2412C198.802 63.7372 199.006 63.0172 199.006 62.0812C199.006 61.1332 198.802 60.3952 198.394 59.8672C197.986 59.3272 197.41 59.0572 196.666 59.0572C195.898 59.0572 195.31 59.3152 194.902 59.8312C194.494 60.3472 194.29 61.0852 194.29 62.0452C194.29 62.9932 194.494 63.7252 194.902 64.2412C195.31 64.7452 195.892 64.9972 196.648 64.9972ZM210.719 59.2192V63.2872C210.719 64.3552 211.217 64.8892 212.213 64.8892C212.489 64.8892 212.789 64.8412 213.113 64.7452V66.5272C212.717 66.6712 212.237 66.7432 211.673 66.7432C210.641 66.7432 209.849 66.4552 209.297 65.8792C208.745 65.3032 208.469 64.4752 208.469 63.3952V59.2192H206.723V57.5272H208.469V55.3132L210.719 54.5572V57.5272H213.131V59.2192H210.719ZM218.639 66.7612C217.715 66.7612 216.899 66.5692 216.191 66.1852C215.495 65.8012 214.955 65.2552 214.571 64.5472C214.199 63.8272 214.013 62.9872 214.013 62.0272C214.013 61.0672 214.199 60.2332 214.571 59.5252C214.955 58.8052 215.495 58.2532 216.191 57.8692C216.899 57.4852 217.715 57.2932 218.639 57.2932C219.551 57.2932 220.355 57.4852 221.051 57.8692C221.747 58.2532 222.281 58.8052 222.653 59.5252C223.037 60.2332 223.229 61.0672 223.229 62.0272C223.229 62.9872 223.037 63.8272 222.653 64.5472C222.281 65.2552 221.747 65.8012 221.051 66.1852C220.355 66.5692 219.551 66.7612 218.639 66.7612ZM218.621 64.9972C219.389 64.9972 219.971 64.7512 220.367 64.2592C220.775 63.7552 220.979 63.0112 220.979 62.0272C220.979 61.0552 220.775 60.3172 220.367 59.8132C219.959 59.2972 219.383 59.0392 218.639 59.0392C217.883 59.0392 217.301 59.2972 216.893 59.8132C216.485 60.3172 216.281 61.0552 216.281 62.0272C216.281 63.0112 216.479 63.7552 216.875 64.2592C217.283 64.7512 217.865 64.9972 218.621 64.9972ZM234.649 58.4272C235.453 58.4272 236.161 58.6012 236.773 58.9492C237.385 59.2852 237.859 59.7652 238.195 60.3892C238.531 61.0012 238.699 61.7092 238.699 62.5132C238.699 63.3532 238.507 64.0972 238.123 64.7452C237.739 65.3812 237.187 65.8792 236.467 66.2392C235.747 66.5872 234.913 66.7612 233.965 66.7612C233.161 66.7612 232.369 66.6292 231.589 66.3652C230.809 66.0892 230.167 65.7232 229.663 65.2672L230.437 63.5752C231.601 64.4632 232.789 64.9072 234.001 64.9072C234.805 64.9072 235.417 64.7092 235.837 64.3132C236.269 63.9052 236.485 63.3292 236.485 62.5852C236.485 61.8772 236.263 61.3132 235.819 60.8932C235.387 60.4612 234.805 60.2452 234.073 60.2452C233.569 60.2452 233.095 60.3412 232.651 60.5332C232.207 60.7132 231.817 60.9832 231.481 61.3432H230.077V53.8012H238.105V55.6012H232.345V59.0932C232.993 58.6492 233.761 58.4272 234.649 58.4272ZM244.598 66.7792C243.074 66.7792 241.91 66.2212 241.106 65.1052C240.314 63.9772 239.918 62.3392 239.918 60.1912C239.918 58.0792 240.314 56.4652 241.106 55.3492C241.91 54.2332 243.074 53.6752 244.598 53.6752C246.122 53.6752 247.28 54.2332 248.072 55.3492C248.876 56.4532 249.278 58.0672 249.278 60.1912C249.278 62.3272 248.876 63.9592 248.072 65.0872C247.28 66.2152 246.122 66.7792 244.598 66.7792ZM244.598 64.9612C245.426 64.9612 246.026 64.5832 246.398 63.8272C246.782 63.0592 246.974 61.8472 246.974 60.1912C246.974 58.5592 246.782 57.3712 246.398 56.6272C246.026 55.8712 245.426 55.4932 244.598 55.4932C243.77 55.4932 243.164 55.8712 242.78 56.6272C242.408 57.3712 242.222 58.5592 242.222 60.1912C242.222 61.8472 242.408 63.0592 242.78 63.8272C243.164 64.5832 243.77 64.9612 244.598 64.9612ZM253.845 61.4512C252.837 61.4512 252.045 61.1212 251.469 60.4612C250.905 59.7892 250.623 58.8112 250.623 57.5272C250.623 56.2552 250.905 55.2892 251.469 54.6292C252.045 53.9572 252.837 53.6212 253.845 53.6212C254.865 53.6212 255.663 53.9572 256.239 54.6292C256.815 55.2892 257.103 56.2552 257.103 57.5272C257.103 58.8112 256.815 59.7892 256.239 60.4612C255.663 61.1212 254.865 61.4512 253.845 61.4512ZM255.699 66.6172H253.719L261.135 53.8012H263.133L255.699 66.6172ZM253.845 59.9932C254.313 59.9932 254.655 59.8012 254.871 59.4172C255.087 59.0332 255.195 58.4032 255.195 57.5272C255.195 56.6752 255.081 56.0572 254.853 55.6732C254.637 55.2772 254.301 55.0792 253.845 55.0792C253.401 55.0792 253.071 55.2772 252.855 55.6732C252.639 56.0572 252.531 56.6752 252.531 57.5272C252.531 58.3912 252.639 59.0212 252.855 59.4172C253.071 59.8012 253.401 59.9932 253.845 59.9932ZM262.989 66.7432C261.969 66.7432 261.171 66.4132 260.595 65.7532C260.031 65.0812 259.749 64.0972 259.749 62.8012C259.749 61.5292 260.031 60.5632 260.595 59.9032C261.171 59.2432 261.969 58.9132 262.989 58.9132C264.009 58.9132 264.801 59.2432 265.365 59.9032C265.941 60.5632 266.229 61.5352 266.229 62.8192C266.229 64.1032 265.941 65.0812 265.365 65.7532C264.801 66.4132 264.009 66.7432 262.989 66.7432ZM262.989 65.2852C263.445 65.2852 263.781 65.0932 263.997 64.7092C264.213 64.3132 264.321 63.6832 264.321 62.8192C264.321 61.9672 264.207 61.3492 263.979 60.9652C263.763 60.5692 263.433 60.3712 262.989 60.3712C262.533 60.3712 262.197 60.5692 261.981 60.9652C261.765 61.3492 261.657 61.9672 261.657 62.8192C261.657 63.6832 261.765 64.3132 261.981 64.7092C262.197 65.0932 262.533 65.2852 262.989 65.2852ZM203.865 87.6172H201.417L199.779 83.3512C199.635 82.9552 199.413 82.6792 199.113 82.5232C198.813 82.3672 198.423 82.2892 197.943 82.2892H195.621V87.6172H193.317V74.8012H198.807C200.259 74.8012 201.363 75.1192 202.119 75.7552C202.875 76.3912 203.253 77.3032 203.253 78.4912C203.253 79.3432 203.025 80.0692 202.569 80.6692C202.125 81.2572 201.489 81.6772 200.661 81.9292C201.417 82.0852 201.963 82.6132 202.299 83.5132L203.865 87.6172ZM198.483 80.4892C199.359 80.4892 200.007 80.3272 200.427 80.0032C200.847 79.6792 201.057 79.1872 201.057 78.5272C201.057 77.8792 200.847 77.3992 200.427 77.0872C200.019 76.7632 199.371 76.6012 198.483 76.6012H195.585V80.4892H198.483ZM213.589 83.1892H207.325C207.373 84.1612 207.613 84.8812 208.045 85.3492C208.489 85.8052 209.143 86.0332 210.007 86.0332C211.003 86.0332 211.927 85.7092 212.779 85.0612L213.427 86.6092C212.995 86.9572 212.461 87.2392 211.825 87.4552C211.201 87.6592 210.565 87.7612 209.917 87.7612C208.429 87.7612 207.259 87.3412 206.407 86.5012C205.555 85.6612 205.129 84.5092 205.129 83.0452C205.129 82.1212 205.315 81.2992 205.687 80.5792C206.059 79.8592 206.581 79.3012 207.253 78.9052C207.925 78.4972 208.687 78.2932 209.539 78.2932C210.787 78.2932 211.771 78.7012 212.491 79.5172C213.223 80.3212 213.589 81.4312 213.589 82.8472V83.1892ZM209.593 79.9132C208.993 79.9132 208.501 80.0932 208.117 80.4532C207.745 80.8012 207.505 81.3112 207.397 81.9832H211.627C211.555 81.2992 211.345 80.7832 210.997 80.4352C210.661 80.0872 210.193 79.9132 209.593 79.9132ZM220.519 78.2932C221.311 78.2932 222.007 78.4912 222.607 78.8872C223.219 79.2712 223.693 79.8172 224.029 80.5252C224.365 81.2332 224.533 82.0552 224.533 82.9912C224.533 83.9272 224.359 84.7612 224.011 85.4932C223.675 86.2132 223.201 86.7712 222.589 87.1672C221.989 87.5632 221.299 87.7612 220.519 87.7612C219.847 87.7612 219.247 87.6172 218.719 87.3292C218.203 87.0412 217.813 86.6392 217.549 86.1232V87.6172H215.335V74.3692H217.567V79.8952C217.843 79.3912 218.239 79.0012 218.755 78.7252C219.271 78.4372 219.859 78.2932 220.519 78.2932ZM219.925 85.9972C220.669 85.9972 221.245 85.7332 221.653 85.2052C222.061 84.6772 222.265 83.9392 222.265 82.9912C222.265 82.0552 222.061 81.3352 221.653 80.8312C221.245 80.3152 220.663 80.0572 219.907 80.0572C219.151 80.0572 218.569 80.3152 218.161 80.8312C217.753 81.3472 217.549 82.0792 217.549 83.0272C217.549 83.9872 217.753 84.7252 218.161 85.2412C218.569 85.7452 219.157 85.9972 219.925 85.9972ZM235.031 78.5272V87.6172H232.817V86.1592C232.541 86.6632 232.145 87.0592 231.629 87.3472C231.113 87.6232 230.525 87.7612 229.865 87.7612C229.073 87.7612 228.371 87.5692 227.759 87.1852C227.147 86.8012 226.673 86.2552 226.337 85.5472C226.001 84.8392 225.833 84.0172 225.833 83.0812C225.833 82.1452 226.001 81.3172 226.337 80.5972C226.685 79.8652 227.165 79.3012 227.777 78.9052C228.389 78.4972 229.085 78.2932 229.865 78.2932C230.525 78.2932 231.113 78.4372 231.629 78.7252C232.145 79.0012 232.541 79.3912 232.817 79.8952V78.5272H235.031ZM230.477 85.9972C231.221 85.9972 231.797 85.7392 232.205 85.2232C232.613 84.7072 232.817 83.9812 232.817 83.0452C232.817 82.0852 232.613 81.3472 232.205 80.8312C231.797 80.3152 231.215 80.0572 230.459 80.0572C229.715 80.0572 229.133 80.3272 228.713 80.8672C228.305 81.3952 228.101 82.1332 228.101 83.0812C228.101 84.0172 228.305 84.7372 228.713 85.2412C229.133 85.7452 229.721 85.9972 230.477 85.9972ZM240.183 80.2192V84.2872C240.183 85.3552 240.681 85.8892 241.677 85.8892C241.953 85.8892 242.253 85.8412 242.577 85.7452V87.5272C242.181 87.6712 241.701 87.7432 241.137 87.7432C240.105 87.7432 239.313 87.4552 238.761 86.8792C238.209 86.3032 237.933 85.4752 237.933 84.3952V80.2192H236.187V78.5272H237.933V76.3132L240.183 75.5572V78.5272H242.595V80.2192H240.183ZM251.938 83.1892H245.674C245.722 84.1612 245.962 84.8812 246.394 85.3492C246.838 85.8052 247.492 86.0332 248.356 86.0332C249.352 86.0332 250.276 85.7092 251.128 85.0612L251.776 86.6092C251.344 86.9572 250.81 87.2392 250.174 87.4552C249.55 87.6592 248.914 87.7612 248.266 87.7612C246.778 87.7612 245.608 87.3412 244.756 86.5012C243.904 85.6612 243.478 84.5092 243.478 83.0452C243.478 82.1212 243.664 81.2992 244.036 80.5792C244.408 79.8592 244.93 79.3012 245.602 78.9052C246.274 78.4972 247.036 78.2932 247.888 78.2932C249.136 78.2932 250.12 78.7012 250.84 79.5172C251.572 80.3212 251.938 81.4312 251.938 82.8472V83.1892ZM247.942 79.9132C247.342 79.9132 246.85 80.0932 246.466 80.4532C246.094 80.8012 245.854 81.3112 245.746 81.9832H249.976C249.904 81.2992 249.694 80.7832 249.346 80.4352C249.01 80.0872 248.542 79.9132 247.942 79.9132Z" fill="white"/>
</svg>
