<svg width="255" height="164" viewBox="0 0 255 164" fill="none" xmlns="http://www.w3.org/2000/svg">
<path fill-rule="evenodd" clip-rule="evenodd" d="M115.744 108.545C115.744 108.545 114.063 69.5267 136.919 55.3942C164.722 71.8337 151.656 106.599 151.656 106.599L128.745 131.263L115.744 108.545Z" fill="#118C8C"/>
<path fill-rule="evenodd" clip-rule="evenodd" d="M154.723 91.8462L131.316 107.556L134.729 76.0443L148.144 66.4005L147.665 65.6982L134.852 74.9097L136.966 55.3942L136.092 55.7007L132.219 91.4525L118.862 80.1309L118.837 81.2227L132.109 92.4716L127.801 132.245L128.632 132.339L131.197 108.661L154.486 93.0294L154.723 91.8462Z" fill="#006769"/>
<path fill-rule="evenodd" clip-rule="evenodd" d="M130.094 119.789C130.094 119.789 147.341 92.3667 168.265 96.7815C183.3 138.799 132.275 161.39 132.275 161.39L130.094 119.789Z" fill="#FFD052"/>
<path fill-rule="evenodd" clip-rule="evenodd" d="M130.094 119.789C130.094 119.789 147.341 92.3667 168.265 96.7815C183.3 138.799 132.275 161.39 132.275 161.39L130.094 119.789Z" fill="#FAA525"/>
<mask id="mask0_920_4617" style="mask-type:alpha" maskUnits="userSpaceOnUse" x="130" y="96" width="42" height="66">
<path fill-rule="evenodd" clip-rule="evenodd" d="M130.094 119.789L132.275 161.389C132.275 161.389 170.977 144.252 171.037 112.073V111.929C171.028 107.202 170.186 102.149 168.265 96.7817C166.705 96.4526 165.168 96.3003 163.655 96.3006C144.867 96.3017 130.094 119.789 130.094 119.789Z" fill="white"/>
</mask>
<g mask="url(#mask0_920_4617)">
<path fill-rule="evenodd" clip-rule="evenodd" d="M166.304 131.859L142.359 132.449L168.598 97.0429L167.931 96.5202L152.005 118.01L149.7 99.9232L148.948 100.665L151.282 118.984L129.68 148.135L130.347 148.656L141.708 133.326L165.562 132.74L166.304 131.859Z" fill="white"/>
</g>
<path fill-rule="evenodd" clip-rule="evenodd" d="M113.093 123.249C113.093 123.249 81.8353 100.885 87.8896 72.7183C135.228 65.3455 139.641 123.73 139.641 123.73L113.093 123.249Z" fill="#004060"/>
<mask id="mask1_920_4617" style="mask-type:alpha" maskUnits="userSpaceOnUse" x="86" y="71" width="54" height="53">
<path fill-rule="evenodd" clip-rule="evenodd" d="M87.53 72.4062C81.4967 100.581 112.644 122.952 112.644 122.952L139.099 123.433C139.099 123.433 135.209 71.7617 95.4904 71.7624C92.9824 71.7624 90.3312 71.9683 87.53 72.4062Z" fill="white"/>
</mask>
<g mask="url(#mask1_920_4617)">
<path fill-rule="evenodd" clip-rule="evenodd" d="M121.989 79.2642L121.226 78.7921L117.356 107.535L88.3553 72.6608L87.7363 73.2205L108.309 97.9595L92.6977 100.288L93.003 100.837L108.955 98.7369L125.653 118.816L126.668 118.733L118.069 108.392L121.989 79.2642Z" fill="#006769"/>
</g>
<path fill-rule="evenodd" clip-rule="evenodd" d="M138.751 128.641L136.124 126.952L144.321 123.212L140.928 115.308C139.359 111.938 135.307 109.204 131.435 109.202H114.559C110.688 109.204 106.635 111.938 105.067 115.308L101.674 123.212L109.87 126.952L107.244 128.641L105.788 141.486L122.998 141.21L140.207 141.486L138.751 128.641Z" fill="#58C4C5"/>
<path fill-rule="evenodd" clip-rule="evenodd" d="M101.745 123.192L100.05 128.964C98.8132 133.174 100.134 137.695 103.47 140.675L111.164 146.867L113.636 139.937L109.382 135.848C107.984 134.505 107.567 132.488 108.327 130.735L109.958 126.965L101.745 123.192Z" fill="#FAB08A"/>
<path fill-rule="evenodd" clip-rule="evenodd" d="M144.25 123.192L145.945 128.964C147.182 133.174 145.861 137.695 142.526 140.675L134.833 146.867L132.359 139.937L136.615 135.848C138.012 134.505 138.429 132.488 137.67 130.735L136.038 126.965L144.25 123.192Z" fill="#FAB08A"/>
<rect x="110.515" y="133.953" width="27.5648" height="18.2945" fill="black"/>
<path fill-rule="evenodd" clip-rule="evenodd" d="M123.264 138.974C123.264 139.609 123.77 140.124 124.392 140.124C125.015 140.124 125.519 139.609 125.519 138.974C125.519 138.338 125.015 137.823 124.392 137.823C123.77 137.823 123.264 138.338 123.264 138.974Z" fill="white"/>
<path fill-rule="evenodd" clip-rule="evenodd" d="M111.036 160.398L104.058 161.395L102.714 159.844L103.396 157.03L110.103 156.014L111.036 160.398Z" fill="#FAB08A"/>
<path fill-rule="evenodd" clip-rule="evenodd" d="M104.274 161.232L95.5893 162.352C95.5893 162.352 87.0405 163.512 88.2729 158.587C89.4626 153.833 97.1356 155.942 97.1356 155.942L104.274 156.843C103.416 158.064 103.376 159.813 104.175 161.076L104.274 161.232Z" fill="#919A9A"/>
<path fill-rule="evenodd" clip-rule="evenodd" d="M138.6 160.937L145.578 161.933L146.922 160.382L146.24 157.568L139.533 156.552L138.6 160.937Z" fill="#FAB08A"/>
<path fill-rule="evenodd" clip-rule="evenodd" d="M145.362 161.77L154.046 162.89C154.046 162.89 162.595 164.05 161.363 159.125C160.173 154.371 152.5 156.48 152.5 156.48L145.362 157.381C146.22 158.602 146.259 160.351 145.461 161.614L145.362 161.77Z" fill="#919A9A"/>
<path fill-rule="evenodd" clip-rule="evenodd" d="M110.515 150.095H138.6V148.481H110.515V150.095Z" fill="#C0ABC3"/>
<path fill-rule="evenodd" clip-rule="evenodd" d="M158.49 144.61C164.132 155.012 107.317 161.395 107.317 161.395L106.355 156.762C106.355 156.762 151.533 131.785 158.49 144.61Z" fill="#1C2C57"/>
<path fill-rule="evenodd" clip-rule="evenodd" d="M88.441 144.606C83.6337 155.438 140.26 161.933 140.26 161.933L140.681 156.729C140.681 156.729 94.1271 131.8 88.441 144.606Z" fill="#004060"/>
<path fill-rule="evenodd" clip-rule="evenodd" d="M126.117 109.29C125.61 107.639 124.692 102.745 124.692 102.745L118.837 103.975V109.318C118.837 109.318 120.779 110.801 122.415 110.816C124.2 110.831 126.18 109.476 126.117 109.29Z" fill="#F79C82"/>
<path fill-rule="evenodd" clip-rule="evenodd" d="M76.2791 103.898H86.8423C86.8423 103.898 85.7308 109.233 81.4745 109.233C77.2181 109.233 76.2791 103.898 76.2791 103.898Z" fill="white"/>
<path fill-rule="evenodd" clip-rule="evenodd" d="M86.121 99.6302C86.1442 99.5547 86.1608 99.4766 86.1608 99.3931C86.1608 98.9349 85.7786 98.5632 85.3085 98.5632C84.8382 98.5632 84.457 98.9349 84.457 99.3931C84.457 99.4766 84.4728 99.5547 84.496 99.6302H86.121Z" fill="white"/>
<path fill-rule="evenodd" clip-rule="evenodd" d="M78.9652 99.6302C78.9879 99.5547 79.005 99.4766 79.005 99.3931C79.005 98.9349 78.6231 98.5632 78.1527 98.5632C77.6819 98.5632 77.3013 98.9349 77.3013 99.3931C77.3013 99.4766 77.317 99.5547 77.3403 99.6302H78.9652Z" fill="white"/>
<path fill-rule="evenodd" clip-rule="evenodd" d="M126.804 94.5145L125.582 87.1406L113.116 92.8293L113.871 97.1458C113.871 97.1458 114.835 107.659 121.471 106.408C128.648 105.055 127.123 94.4212 126.804 94.5145Z" fill="#FAB08A"/>
<mask id="mask2_920_4617" style="mask-type:alpha" maskUnits="userSpaceOnUse" x="102" y="83" width="26" height="61">
<path fill-rule="evenodd" clip-rule="evenodd" d="M102.194 83.5566H127.89V143.638H102.194V83.5566Z" fill="white"/>
</mask>
<g mask="url(#mask2_920_4617)">
<path fill-rule="evenodd" clip-rule="evenodd" d="M113.411 97.6061C121.391 99.3469 125.887 90.1494 125.887 90.1494C125.887 90.1494 125.642 92.0694 126.396 94.911C129.082 91.304 127.326 86.7597 127.326 86.7597C127.326 86.7597 125.155 81.7951 115.472 84.2274C104.184 87.0642 102.302 103.119 102.302 103.119C102.302 103.119 101.477 106.616 104.384 112.219C105.205 113.802 105.159 115.752 104.103 117.178C101.687 120.442 102.302 124.469 102.302 124.469C102.302 124.469 102.539 126.569 104.27 127.943C105.889 129.228 106.542 131.982 105.893 133.984C104.503 138.269 105.689 140.708 105.689 140.708C105.689 140.708 106.445 143.461 110.581 143.629C116.612 143.875 116.483 138.917 115.94 136.124C115.734 135.062 116.002 133.962 116.702 133.156C117.441 132.303 118.245 130.972 118.296 129.176C118.338 127.661 117.767 126.058 117.127 124.754C116.296 123.064 116.44 121.052 117.526 119.527C119.066 117.362 121.054 113.054 119.94 110.261C118.059 105.539 114.846 103.964 113.411 97.6061Z" fill="#1C2C57"/>
</g>
<path d="M0 41.322C0 67.8862 32.3458 78.0626 51.6744 88.1068L56.0134 90.0892C50.9643 78.3533 60.4843 72.7762 65.8755 71.4546C81.5224 66.9611 104.927 59.1636 104.927 38.1501C104.927 17.1366 82.0478 10 52.0688 10C16.9618 10 0 22.2909 0 41.322Z" fill="#58C4C5"/>
<path d="M15.6313 41.7052C14.6513 41.7052 13.7926 41.4952 13.0553 41.0752C12.3273 40.6552 11.7673 40.0625 11.3753 39.2972C10.9833 38.5225 10.7873 37.6172 10.7873 36.5812C10.7873 35.5545 10.9833 34.6585 11.3753 33.8932C11.7673 33.1185 12.3273 32.5258 13.0553 32.1152C13.7926 31.6952 14.6513 31.4852 15.6313 31.4852C16.3033 31.4852 16.9333 31.5925 17.5213 31.8072C18.1186 32.0125 18.6133 32.3018 19.0053 32.6752L18.4173 33.9912C17.9693 33.6272 17.5213 33.3658 17.0733 33.2072C16.6346 33.0392 16.1633 32.9552 15.6593 32.9552C14.698 32.9552 13.9513 33.2678 13.4193 33.8932C12.8966 34.5185 12.6353 35.4145 12.6353 36.5812C12.6353 37.7572 12.8966 38.6625 13.4193 39.2972C13.942 39.9225 14.6886 40.2352 15.6593 40.2352C16.1633 40.2352 16.6346 40.1558 17.0733 39.9972C17.5213 39.8292 17.9693 39.5632 18.4173 39.1992L19.0053 40.5152C18.6133 40.8885 18.1186 41.1825 17.5213 41.3972C16.9333 41.6025 16.3033 41.7052 15.6313 41.7052ZM23.4766 41.6912C22.7579 41.6912 22.1232 41.5418 21.5726 41.2432C21.0312 40.9445 20.6112 40.5198 20.3126 39.9692C20.0232 39.4092 19.8786 38.7558 19.8786 38.0092C19.8786 37.2625 20.0232 36.6138 20.3126 36.0632C20.6112 35.5032 21.0312 35.0738 21.5726 34.7752C22.1232 34.4765 22.7579 34.3272 23.4766 34.3272C24.1859 34.3272 24.8112 34.4765 25.3526 34.7752C25.8939 35.0738 26.3092 35.5032 26.5986 36.0632C26.8972 36.6138 27.0466 37.2625 27.0466 38.0092C27.0466 38.7558 26.8972 39.4092 26.5986 39.9692C26.3092 40.5198 25.8939 40.9445 25.3526 41.2432C24.8112 41.5418 24.1859 41.6912 23.4766 41.6912ZM23.4626 40.3192C24.0599 40.3192 24.5126 40.1278 24.8206 39.7452C25.1379 39.3532 25.2966 38.7745 25.2966 38.0092C25.2966 37.2532 25.1379 36.6792 24.8206 36.2872C24.5032 35.8858 24.0552 35.6852 23.4766 35.6852C22.8886 35.6852 22.4359 35.8858 22.1186 36.2872C21.8012 36.6792 21.6426 37.2532 21.6426 38.0092C21.6426 38.7745 21.7966 39.3532 22.1046 39.7452C22.4219 40.1278 22.8746 40.3192 23.4626 40.3192ZM32.4417 34.3272C34.1311 34.3272 34.9757 35.2978 34.9757 37.2392V41.5792H33.2257V37.3232C33.2257 36.7632 33.1184 36.3572 32.9037 36.1052C32.6891 35.8438 32.3577 35.7132 31.9097 35.7132C31.3777 35.7132 30.9484 35.8858 30.6217 36.2312C30.2951 36.5672 30.1317 37.0152 30.1317 37.5752V41.5792H28.3957V36.5112C28.3957 35.7645 28.3584 35.0972 28.2837 34.5092H29.9217L30.0477 35.6712C30.2904 35.2418 30.6171 34.9105 31.0277 34.6772C31.4477 34.4438 31.9191 34.3272 32.4417 34.3272ZM40.0173 32.6612C39.2613 32.6612 38.8833 33.0765 38.8833 33.9072V34.5092H40.4653V35.8252H38.8833V41.5792H37.1333V35.8252H35.7893V34.5092H37.1333V33.8232C37.1333 32.9832 37.3433 32.3392 37.7633 31.8912C38.1926 31.4338 38.8039 31.2052 39.5973 31.2052C40.0359 31.2052 40.4046 31.2612 40.7033 31.3732V32.7592C40.4419 32.6938 40.2133 32.6612 40.0173 32.6612ZM41.8093 41.5792V31.2752H43.5453V41.5792H41.8093ZM45.3023 41.5792V34.5092H47.0383V41.5792H45.3023ZM45.1903 31.3032H47.1363V33.0252H45.1903V31.3032ZM51.9987 41.6912C51.2613 41.6912 50.622 41.5418 50.0807 41.2432C49.5393 40.9445 49.124 40.5245 48.8347 39.9832C48.5453 39.4325 48.4007 38.7885 48.4007 38.0512C48.4007 37.3138 48.55 36.6652 48.8487 36.1052C49.1567 35.5452 49.586 35.1112 50.1367 34.8032C50.6967 34.4858 51.3407 34.3272 52.0687 34.3272C52.5727 34.3272 53.058 34.4065 53.5247 34.5652C54.0007 34.7238 54.3787 34.9432 54.6587 35.2232L54.1687 36.4552C53.87 36.2125 53.5527 36.0305 53.2167 35.9092C52.8807 35.7785 52.5493 35.7132 52.2227 35.7132C51.588 35.7132 51.0933 35.9138 50.7387 36.3152C50.384 36.7072 50.2067 37.2765 50.2067 38.0232C50.2067 38.7698 50.3793 39.3392 50.7247 39.7312C51.0793 40.1232 51.5787 40.3192 52.2227 40.3192C52.5493 40.3192 52.8807 40.2538 53.2167 40.1232C53.5527 39.9925 53.87 39.8058 54.1687 39.5632L54.6587 40.7952C54.36 41.0752 53.9727 41.2945 53.4967 41.4532C53.0207 41.6118 52.5213 41.6912 51.9987 41.6912ZM57.9407 35.8252V38.9892C57.9407 39.8198 58.328 40.2352 59.1027 40.2352C59.3174 40.2352 59.5507 40.1978 59.8027 40.1232V41.5092C59.4947 41.6212 59.1214 41.6772 58.6827 41.6772C57.88 41.6772 57.264 41.4532 56.8347 41.0052C56.4054 40.5572 56.1907 39.9132 56.1907 39.0732V35.8252H54.8327V34.5092H56.1907V32.7872L57.9407 32.1992V34.5092H59.8167V35.8252H57.9407ZM60.7093 38.4992V37.0992H64.9233V38.4992H60.7093ZM70.02 32.6612C69.264 32.6612 68.886 33.0765 68.886 33.9072V34.5092H70.468V35.8252H68.886V41.5792H67.136V35.8252H65.792V34.5092H67.136V33.8232C67.136 32.9832 67.346 32.3392 67.766 31.8912C68.1953 31.4338 68.8067 31.2052 69.6 31.2052C70.0387 31.2052 70.4073 31.2612 70.706 31.3732V32.7592C70.4447 32.6938 70.216 32.6612 70.02 32.6612ZM75.4626 34.3412C75.7333 34.3412 75.9666 34.3785 76.1626 34.4532L76.1486 36.0492C75.85 35.9278 75.542 35.8672 75.2246 35.8672C74.6273 35.8672 74.17 36.0398 73.8526 36.3852C73.5446 36.7305 73.3906 37.1878 73.3906 37.7572V41.5792H71.6546V36.5112C71.6546 35.7645 71.6173 35.0972 71.5426 34.5092H73.1806L73.3206 35.7552C73.498 35.2978 73.778 34.9478 74.1606 34.7052C74.5433 34.4625 74.9773 34.3412 75.4626 34.3412ZM83.0283 38.1352H78.1563C78.1937 38.8912 78.3803 39.4512 78.7163 39.8152C79.0617 40.1698 79.5703 40.3472 80.2423 40.3472C81.017 40.3472 81.7357 40.0952 82.3983 39.5912L82.9023 40.7952C82.5663 41.0658 82.151 41.2852 81.6563 41.4532C81.171 41.6118 80.6763 41.6912 80.1723 41.6912C79.015 41.6912 78.105 41.3645 77.4423 40.7112C76.7797 40.0578 76.4483 39.1618 76.4483 38.0232C76.4483 37.3045 76.593 36.6652 76.8823 36.1052C77.1717 35.5452 77.5777 35.1112 78.1003 34.8032C78.623 34.4858 79.2157 34.3272 79.8783 34.3272C80.849 34.3272 81.6143 34.6445 82.1743 35.2792C82.7437 35.9045 83.0283 36.7678 83.0283 37.8692V38.1352ZM79.9203 35.5872C79.4537 35.5872 79.071 35.7272 78.7723 36.0072C78.483 36.2778 78.2963 36.6745 78.2123 37.1972H81.5023C81.4463 36.6652 81.283 36.2638 81.0123 35.9932C80.751 35.7225 80.387 35.5872 79.9203 35.5872ZM90.5383 38.1352H85.6663C85.7036 38.8912 85.8903 39.4512 86.2263 39.8152C86.5716 40.1698 87.0803 40.3472 87.7523 40.3472C88.5269 40.3472 89.2456 40.0952 89.9083 39.5912L90.4123 40.7952C90.0763 41.0658 89.6609 41.2852 89.1663 41.4532C88.6809 41.6118 88.1863 41.6912 87.6823 41.6912C86.5249 41.6912 85.6149 41.3645 84.9523 40.7112C84.2896 40.0578 83.9583 39.1618 83.9583 38.0232C83.9583 37.3045 84.1029 36.6652 84.3923 36.1052C84.6816 35.5452 85.0876 35.1112 85.6103 34.8032C86.1329 34.4858 86.7256 34.3272 87.3883 34.3272C88.3589 34.3272 89.1243 34.6445 89.6843 35.2792C90.2536 35.9045 90.5383 36.7678 90.5383 37.8692V38.1352ZM87.4303 35.5872C86.9636 35.5872 86.5809 35.7272 86.2823 36.0072C85.9929 36.2778 85.8063 36.6745 85.7223 37.1972H89.0123C88.9563 36.6652 88.7929 36.2638 88.5223 35.9932C88.2609 35.7225 87.8969 35.5872 87.4303 35.5872ZM36.9983 62.5792L36.0043 60.2412H31.1323L30.1243 62.5792H28.3043L32.8123 52.6112H34.2823L38.8043 62.5792H36.9983ZM31.7343 58.8412H35.4023L33.5683 54.5712L31.7343 58.8412ZM46.3583 52.2752V62.5792H44.6363V61.4452C44.4216 61.8372 44.1136 62.1452 43.7123 62.3692C43.311 62.5838 42.8536 62.6912 42.3403 62.6912C41.7336 62.6912 41.1923 62.5372 40.7163 62.2292C40.2403 61.9212 39.867 61.4872 39.5963 60.9272C39.335 60.3578 39.2043 59.7092 39.2043 58.9812C39.2043 58.2532 39.335 57.6138 39.5963 57.0632C39.8576 56.5125 40.2263 56.0878 40.7023 55.7892C41.1783 55.4812 41.7243 55.3272 42.3403 55.3272C42.8443 55.3272 43.2923 55.4345 43.6843 55.6492C44.0856 55.8545 44.3936 56.1485 44.6083 56.5312V52.2752H46.3583ZM42.8023 61.3192C43.381 61.3192 43.829 61.1185 44.1463 60.7172C44.473 60.3158 44.6363 59.7465 44.6363 59.0092C44.6363 58.2718 44.4776 57.7025 44.1603 57.3012C43.843 56.8998 43.395 56.6992 42.8163 56.6992C42.2283 56.6992 41.771 56.8998 41.4443 57.3012C41.127 57.6932 40.9683 58.2532 40.9683 58.9812C40.9683 59.7185 41.127 60.2925 41.4443 60.7032C41.771 61.1138 42.2236 61.3192 42.8023 61.3192ZM53.0603 55.5232H54.7963L51.7023 62.5792H50.1763L47.1243 55.5232H48.9583L50.9883 60.5912L53.0603 55.5232ZM55.5458 62.5792V55.5092H57.2818V62.5792H55.5458ZM55.4338 52.3032H57.3798V54.0252H55.4338V52.3032ZM62.2422 62.6912C61.5049 62.6912 60.8656 62.5418 60.3242 62.2432C59.7829 61.9445 59.3676 61.5245 59.0782 60.9832C58.7889 60.4325 58.6442 59.7885 58.6442 59.0512C58.6442 58.3138 58.7936 57.6652 59.0922 57.1052C59.4002 56.5452 59.8296 56.1112 60.3802 55.8032C60.9402 55.4858 61.5842 55.3272 62.3122 55.3272C62.8162 55.3272 63.3016 55.4065 63.7682 55.5652C64.2442 55.7238 64.6222 55.9432 64.9022 56.2232L64.4122 57.4552C64.1136 57.2125 63.7962 57.0305 63.4602 56.9092C63.1242 56.7785 62.7929 56.7132 62.4662 56.7132C61.8316 56.7132 61.3369 56.9138 60.9822 57.3152C60.6276 57.7072 60.4502 58.2765 60.4502 59.0232C60.4502 59.7698 60.6229 60.3392 60.9682 60.7312C61.3229 61.1232 61.8222 61.3192 62.4662 61.3192C62.7929 61.3192 63.1242 61.2538 63.4602 61.1232C63.7962 60.9925 64.1136 60.8058 64.4122 60.5632L64.9022 61.7952C64.6036 62.0752 64.2162 62.2945 63.7402 62.4532C63.2642 62.6118 62.7649 62.6912 62.2422 62.6912ZM72.1052 59.1352H67.2332C67.2706 59.8912 67.4572 60.4512 67.7932 60.8152C68.1386 61.1698 68.6472 61.3472 69.3192 61.3472C70.0939 61.3472 70.8126 61.0952 71.4752 60.5912L71.9792 61.7952C71.6432 62.0658 71.2279 62.2852 70.7332 62.4532C70.2479 62.6118 69.7532 62.6912 69.2492 62.6912C68.0919 62.6912 67.1819 62.3645 66.5192 61.7112C65.8566 61.0578 65.5252 60.1618 65.5252 59.0232C65.5252 58.3045 65.6699 57.6652 65.9592 57.1052C66.2486 56.5452 66.6546 56.1112 67.1772 55.8032C67.6999 55.4858 68.2926 55.3272 68.9552 55.3272C69.9259 55.3272 70.6912 55.6445 71.2512 56.2792C71.8206 56.9045 72.1052 57.7678 72.1052 58.8692V59.1352ZM68.9972 56.5872C68.5306 56.5872 68.1479 56.7272 67.8492 57.0072C67.5599 57.2778 67.3732 57.6745 67.2892 58.1972H70.5792C70.5232 57.6652 70.3599 57.2638 70.0892 56.9932C69.8279 56.7225 69.4639 56.5872 68.9972 56.5872Z" fill="white"/>
<path d="M255 41.0608C255 75.7326 220.782 89.0148 200.335 102.124L195.745 104.712C197.275 100.745 198.248 97.1566 198.248 93.8447C198.248 92.2922 199.917 87.1173 185.312 80.39C168.759 74.5251 144 64.3478 144 36.9209C144 9.49397 168.203 0.17926 199.917 0.17926C237.056 0.17926 255 16.2214 255 41.0608Z" fill="#2D8289"/>
<path d="M172.175 27.3617C170.803 27.3617 169.762 27.0117 169.053 26.3117C168.353 25.6023 168.003 24.5663 168.003 23.2037V17.2677H169.781V23.3017C169.781 24.1603 169.981 24.8137 170.383 25.2617C170.784 25.7003 171.381 25.9197 172.175 25.9197C172.949 25.9197 173.537 25.6957 173.939 25.2477C174.349 24.7997 174.555 24.151 174.555 23.3017V17.2677H176.333V23.2037C176.333 24.557 175.978 25.5883 175.269 26.2977C174.559 27.007 173.528 27.3617 172.175 27.3617ZM182.168 19.9837C182.775 19.9837 183.311 20.1423 183.778 20.4597C184.254 20.7677 184.623 21.2063 184.884 21.7757C185.155 22.3357 185.29 22.9797 185.29 23.7077C185.29 24.4357 185.159 25.075 184.898 25.6257C184.637 26.1763 184.268 26.601 183.792 26.8997C183.325 27.1983 182.784 27.3477 182.168 27.3477C181.655 27.3477 181.197 27.2403 180.796 27.0257C180.395 26.8017 180.087 26.4937 179.872 26.1017V30.2597H178.136V22.1677C178.136 21.421 178.099 20.7537 178.024 20.1657H179.662L179.802 21.3837C179.989 20.945 180.292 20.6043 180.712 20.3617C181.132 20.1097 181.617 19.9837 182.168 19.9837ZM181.692 25.9757C182.28 25.9757 182.733 25.7797 183.05 25.3877C183.367 24.9957 183.526 24.4357 183.526 23.7077C183.526 22.9703 183.367 22.3963 183.05 21.9857C182.733 21.5657 182.285 21.3557 181.706 21.3557C181.109 21.3557 180.651 21.5563 180.334 21.9577C180.017 22.359 179.858 22.933 179.858 23.6797C179.858 24.417 180.017 24.9863 180.334 25.3877C180.651 25.7797 181.104 25.9757 181.692 25.9757ZM192.565 21.4817V24.6457C192.565 25.4763 192.953 25.8917 193.727 25.8917C193.942 25.8917 194.175 25.8543 194.427 25.7797V27.1657C194.119 27.2777 193.746 27.3337 193.307 27.3337C192.505 27.3337 191.889 27.1097 191.459 26.6617C191.03 26.2137 190.815 25.5697 190.815 24.7297V21.4817H189.457V20.1657H190.815V18.4437L192.565 17.8557V20.1657H194.441V21.4817H192.565ZM198.69 27.3477C197.971 27.3477 197.337 27.1983 196.786 26.8997C196.245 26.601 195.825 26.1763 195.526 25.6257C195.237 25.0657 195.092 24.4123 195.092 23.6657C195.092 22.919 195.237 22.2703 195.526 21.7197C195.825 21.1597 196.245 20.7303 196.786 20.4317C197.337 20.133 197.971 19.9837 198.69 19.9837C199.399 19.9837 200.025 20.133 200.566 20.4317C201.107 20.7303 201.523 21.1597 201.812 21.7197C202.111 22.2703 202.26 22.919 202.26 23.6657C202.26 24.4123 202.111 25.0657 201.812 25.6257C201.523 26.1763 201.107 26.601 200.566 26.8997C200.025 27.1983 199.399 27.3477 198.69 27.3477ZM198.676 25.9757C199.273 25.9757 199.726 25.7843 200.034 25.4017C200.351 25.0097 200.51 24.431 200.51 23.6657C200.51 22.9097 200.351 22.3357 200.034 21.9437C199.717 21.5423 199.269 21.3417 198.69 21.3417C198.102 21.3417 197.649 21.5423 197.332 21.9437C197.015 22.3357 196.856 22.9097 196.856 23.6657C196.856 24.431 197.01 25.0097 197.318 25.4017C197.635 25.7843 198.088 25.9757 198.676 25.9757ZM211.071 20.8657C211.696 20.8657 212.247 21.001 212.723 21.2717C213.199 21.533 213.568 21.9063 213.829 22.3917C214.09 22.8677 214.221 23.4183 214.221 24.0437C214.221 24.697 214.072 25.2757 213.773 25.7797C213.474 26.2743 213.045 26.6617 212.485 26.9417C211.925 27.2123 211.276 27.3477 210.539 27.3477C209.914 27.3477 209.298 27.245 208.691 27.0397C208.084 26.825 207.585 26.5403 207.193 26.1857L207.795 24.8697C208.7 25.5603 209.624 25.9057 210.567 25.9057C211.192 25.9057 211.668 25.7517 211.995 25.4437C212.331 25.1263 212.499 24.6783 212.499 24.0997C212.499 23.549 212.326 23.1103 211.981 22.7837C211.645 22.4477 211.192 22.2797 210.623 22.2797C210.231 22.2797 209.862 22.3543 209.517 22.5037C209.172 22.6437 208.868 22.8537 208.607 23.1337H207.515V17.2677H213.759V18.6677H209.279V21.3837C209.783 21.0383 210.38 20.8657 211.071 20.8657ZM218.774 27.3617C217.588 27.3617 216.683 26.9277 216.058 26.0597C215.442 25.1823 215.134 23.9083 215.134 22.2377C215.134 20.595 215.442 19.3397 216.058 18.4717C216.683 17.6037 217.588 17.1697 218.774 17.1697C219.959 17.1697 220.86 17.6037 221.476 18.4717C222.101 19.3303 222.414 20.5857 222.414 22.2377C222.414 23.899 222.101 25.1683 221.476 26.0457C220.86 26.923 219.959 27.3617 218.774 27.3617ZM218.774 25.9477C219.418 25.9477 219.884 25.6537 220.174 25.0657C220.472 24.4683 220.622 23.5257 220.622 22.2377C220.622 20.9683 220.472 20.0443 220.174 19.4657C219.884 18.8777 219.418 18.5837 218.774 18.5837C218.13 18.5837 217.658 18.8777 217.36 19.4657C217.07 20.0443 216.926 20.9683 216.926 22.2377C216.926 23.5257 217.07 24.4683 217.36 25.0657C217.658 25.6537 218.13 25.9477 218.774 25.9477ZM225.93 23.2177C225.146 23.2177 224.53 22.961 224.082 22.4477C223.643 21.925 223.424 21.1643 223.424 20.1657C223.424 19.1763 223.643 18.425 224.082 17.9117C224.53 17.389 225.146 17.1277 225.93 17.1277C226.724 17.1277 227.344 17.389 227.792 17.9117C228.24 18.425 228.464 19.1763 228.464 20.1657C228.464 21.1643 228.24 21.925 227.792 22.4477C227.344 22.961 226.724 23.2177 225.93 23.2177ZM227.372 27.2357H225.832L231.6 17.2677H233.154L227.372 27.2357ZM225.93 22.0837C226.294 22.0837 226.56 21.9343 226.728 21.6357C226.896 21.337 226.98 20.847 226.98 20.1657C226.98 19.503 226.891 19.0223 226.714 18.7237C226.546 18.4157 226.285 18.2617 225.93 18.2617C225.585 18.2617 225.328 18.4157 225.16 18.7237C224.992 19.0223 224.908 19.503 224.908 20.1657C224.908 20.8377 224.992 21.3277 225.16 21.6357C225.328 21.9343 225.585 22.0837 225.93 22.0837ZM233.042 27.3337C232.249 27.3337 231.628 27.077 231.18 26.5637C230.742 26.041 230.522 25.2757 230.522 24.2677C230.522 23.2783 230.742 22.527 231.18 22.0137C231.628 21.5003 232.249 21.2437 233.042 21.2437C233.836 21.2437 234.452 21.5003 234.89 22.0137C235.338 22.527 235.562 23.283 235.562 24.2817C235.562 25.2803 235.338 26.041 234.89 26.5637C234.452 27.077 233.836 27.3337 233.042 27.3337ZM233.042 26.1997C233.397 26.1997 233.658 26.0503 233.826 25.7517C233.994 25.4437 234.078 24.9537 234.078 24.2817C234.078 23.619 233.99 23.1383 233.812 22.8397C233.644 22.5317 233.387 22.3777 233.042 22.3777C232.688 22.3777 232.426 22.5317 232.258 22.8397C232.09 23.1383 232.006 23.619 232.006 24.2817C232.006 24.9537 232.09 25.4437 232.258 25.7517C232.426 26.0503 232.688 26.1997 233.042 26.1997ZM167.418 48.3617C166.438 48.3617 165.579 48.1517 164.842 47.7317C164.114 47.3117 163.554 46.719 163.162 45.9537C162.77 45.179 162.574 44.2737 162.574 43.2377C162.574 42.211 162.77 41.315 163.162 40.5497C163.554 39.775 164.114 39.1823 164.842 38.7717C165.579 38.3517 166.438 38.1417 167.418 38.1417C168.09 38.1417 168.72 38.249 169.308 38.4637C169.905 38.669 170.4 38.9583 170.792 39.3317L170.204 40.6477C169.756 40.2837 169.308 40.0223 168.86 39.8637C168.421 39.6957 167.95 39.6117 167.446 39.6117C166.484 39.6117 165.738 39.9243 165.206 40.5497C164.683 41.175 164.422 42.071 164.422 43.2377C164.422 44.4137 164.683 45.319 165.206 45.9537C165.728 46.579 166.475 46.8917 167.446 46.8917C167.95 46.8917 168.421 46.8123 168.86 46.6537C169.308 46.4857 169.756 46.2197 170.204 45.8557L170.792 47.1717C170.4 47.545 169.905 47.839 169.308 48.0537C168.72 48.259 168.09 48.3617 167.418 48.3617ZM175.263 48.3477C174.544 48.3477 173.91 48.1983 173.359 47.8997C172.818 47.601 172.398 47.1763 172.099 46.6257C171.81 46.0657 171.665 45.4123 171.665 44.6657C171.665 43.919 171.81 43.2703 172.099 42.7197C172.398 42.1597 172.818 41.7303 173.359 41.4317C173.91 41.133 174.544 40.9837 175.263 40.9837C175.972 40.9837 176.598 41.133 177.139 41.4317C177.68 41.7303 178.096 42.1597 178.385 42.7197C178.684 43.2703 178.833 43.919 178.833 44.6657C178.833 45.4123 178.684 46.0657 178.385 46.6257C178.096 47.1763 177.68 47.601 177.139 47.8997C176.598 48.1983 175.972 48.3477 175.263 48.3477ZM175.249 46.9757C175.846 46.9757 176.299 46.7843 176.607 46.4017C176.924 46.0097 177.083 45.431 177.083 44.6657C177.083 43.9097 176.924 43.3357 176.607 42.9437C176.29 42.5423 175.842 42.3417 175.263 42.3417C174.675 42.3417 174.222 42.5423 173.905 42.9437C173.588 43.3357 173.429 43.9097 173.429 44.6657C173.429 45.431 173.583 46.0097 173.891 46.4017C174.208 46.7843 174.661 46.9757 175.249 46.9757ZM188.526 40.9837C189.329 40.9837 189.926 41.2263 190.318 41.7117C190.71 42.1877 190.906 42.9157 190.906 43.8957V48.2357H189.156V43.9517C189.156 43.3917 189.063 42.9903 188.876 42.7477C188.699 42.4957 188.4 42.3697 187.98 42.3697C187.495 42.3697 187.112 42.5423 186.832 42.8877C186.561 43.2237 186.426 43.6903 186.426 44.2877V48.2357H184.676V43.9517C184.676 43.401 184.578 42.9997 184.382 42.7477C184.195 42.4957 183.897 42.3697 183.486 42.3697C183.001 42.3697 182.618 42.5423 182.338 42.8877C182.058 43.2237 181.918 43.6903 181.918 44.2877V48.2357H180.182V43.1677C180.182 42.421 180.145 41.7537 180.07 41.1657H181.708L181.834 42.2857C182.039 41.8657 182.333 41.5437 182.716 41.3197C183.108 41.0957 183.556 40.9837 184.06 40.9837C185.143 40.9837 185.847 41.4317 186.174 42.3277C186.398 41.9077 186.715 41.581 187.126 41.3477C187.546 41.105 188.013 40.9837 188.526 40.9837ZM200.958 40.9837C201.76 40.9837 202.358 41.2263 202.75 41.7117C203.142 42.1877 203.338 42.9157 203.338 43.8957V48.2357H201.588V43.9517C201.588 43.3917 201.494 42.9903 201.308 42.7477C201.13 42.4957 200.832 42.3697 200.412 42.3697C199.926 42.3697 199.544 42.5423 199.264 42.8877C198.993 43.2237 198.858 43.6903 198.858 44.2877V48.2357H197.108V43.9517C197.108 43.401 197.01 42.9997 196.814 42.7477C196.627 42.4957 196.328 42.3697 195.918 42.3697C195.432 42.3697 195.05 42.5423 194.77 42.8877C194.49 43.2237 194.35 43.6903 194.35 44.2877V48.2357H192.614V43.1677C192.614 42.421 192.576 41.7537 192.502 41.1657H194.14L194.266 42.2857C194.471 41.8657 194.765 41.5437 195.148 41.3197C195.54 41.0957 195.988 40.9837 196.492 40.9837C197.574 40.9837 198.279 41.4317 198.606 42.3277C198.83 41.9077 199.147 41.581 199.558 41.3477C199.978 41.105 200.444 40.9837 200.958 40.9837ZM205.046 48.2357V41.1657H206.782V48.2357H205.046ZM204.934 37.9597H206.88V39.6817H204.934V37.9597ZM211.126 48.3477C209.847 48.3477 208.83 48.049 208.074 47.4517L208.564 46.2197C209.32 46.7797 210.183 47.0597 211.154 47.0597C211.574 47.0597 211.896 46.9897 212.12 46.8497C212.353 46.7097 212.47 46.5137 212.47 46.2617C212.47 46.047 212.391 45.879 212.232 45.7577C212.073 45.627 211.803 45.515 211.42 45.4217L210.244 45.1557C208.956 44.8757 208.312 44.2177 208.312 43.1817C208.312 42.7523 208.433 42.3743 208.676 42.0477C208.919 41.7117 209.259 41.4503 209.698 41.2637C210.137 41.077 210.645 40.9837 211.224 40.9837C211.728 40.9837 212.213 41.063 212.68 41.2217C213.147 41.371 213.557 41.5903 213.912 41.8797L213.394 43.0697C212.685 42.547 211.957 42.2857 211.21 42.2857C210.809 42.2857 210.496 42.3603 210.272 42.5097C210.048 42.659 209.936 42.8643 209.936 43.1257C209.936 43.331 210.001 43.4943 210.132 43.6157C210.272 43.737 210.505 43.8397 210.832 43.9237L212.036 44.1897C212.736 44.3483 213.245 44.5957 213.562 44.9317C213.889 45.2583 214.052 45.6877 214.052 46.2197C214.052 46.873 213.791 47.391 213.268 47.7737C212.745 48.1563 212.031 48.3477 211.126 48.3477ZM217.98 48.3477C216.701 48.3477 215.684 48.049 214.928 47.4517L215.418 46.2197C216.174 46.7797 217.037 47.0597 218.008 47.0597C218.428 47.0597 218.75 46.9897 218.974 46.8497C219.207 46.7097 219.324 46.5137 219.324 46.2617C219.324 46.047 219.244 45.879 219.086 45.7577C218.927 45.627 218.656 45.515 218.274 45.4217L217.098 45.1557C215.81 44.8757 215.166 44.2177 215.166 43.1817C215.166 42.7523 215.287 42.3743 215.53 42.0477C215.772 41.7117 216.113 41.4503 216.552 41.2637C216.99 41.077 217.499 40.9837 218.078 40.9837C218.582 40.9837 219.067 41.063 219.534 41.2217C220 41.371 220.411 41.5903 220.766 41.8797L220.248 43.0697C219.538 42.547 218.81 42.2857 218.064 42.2857C217.662 42.2857 217.35 42.3603 217.126 42.5097C216.902 42.659 216.79 42.8643 216.79 43.1257C216.79 43.331 216.855 43.4943 216.986 43.6157C217.126 43.737 217.359 43.8397 217.686 43.9237L218.89 44.1897C219.59 44.3483 220.098 44.5957 220.416 44.9317C220.742 45.2583 220.906 45.6877 220.906 46.2197C220.906 46.873 220.644 47.391 220.122 47.7737C219.599 48.1563 218.885 48.3477 217.98 48.3477ZM222.243 48.2357V41.1657H223.979V48.2357H222.243ZM222.131 37.9597H224.077V39.6817H222.131V37.9597ZM228.94 48.3477C228.221 48.3477 227.586 48.1983 227.036 47.8997C226.494 47.601 226.074 47.1763 225.776 46.6257C225.486 46.0657 225.342 45.4123 225.342 44.6657C225.342 43.919 225.486 43.2703 225.776 42.7197C226.074 42.1597 226.494 41.7303 227.036 41.4317C227.586 41.133 228.221 40.9837 228.94 40.9837C229.649 40.9837 230.274 41.133 230.816 41.4317C231.357 41.7303 231.772 42.1597 232.062 42.7197C232.36 43.2703 232.51 43.919 232.51 44.6657C232.51 45.4123 232.36 46.0657 232.062 46.6257C231.772 47.1763 231.357 47.601 230.816 47.8997C230.274 48.1983 229.649 48.3477 228.94 48.3477ZM228.926 46.9757C229.523 46.9757 229.976 46.7843 230.284 46.4017C230.601 46.0097 230.76 45.431 230.76 44.6657C230.76 43.9097 230.601 43.3357 230.284 42.9437C229.966 42.5423 229.518 42.3417 228.94 42.3417C228.352 42.3417 227.899 42.5423 227.582 42.9437C227.264 43.3357 227.106 43.9097 227.106 44.6657C227.106 45.431 227.26 46.0097 227.568 46.4017C227.885 46.7843 228.338 46.9757 228.926 46.9757ZM237.905 40.9837C239.594 40.9837 240.439 41.9543 240.439 43.8957V48.2357H238.689V43.9797C238.689 43.4197 238.582 43.0137 238.367 42.7617C238.152 42.5003 237.821 42.3697 237.373 42.3697C236.841 42.3697 236.412 42.5423 236.085 42.8877C235.758 43.2237 235.595 43.6717 235.595 44.2317V48.2357H233.859V43.1677C233.859 42.421 233.822 41.7537 233.747 41.1657H235.385L235.511 42.3277C235.754 41.8983 236.08 41.567 236.491 41.3337C236.911 41.1003 237.382 40.9837 237.905 40.9837ZM187.27 69.2357H185.366L184.092 65.9177C183.98 65.6097 183.807 65.395 183.574 65.2737C183.341 65.1523 183.037 65.0917 182.664 65.0917H180.858V69.2357H179.066V59.2677H183.336C184.465 59.2677 185.324 59.515 185.912 60.0097C186.5 60.5043 186.794 61.2137 186.794 62.1377C186.794 62.8003 186.617 63.365 186.262 63.8317C185.917 64.289 185.422 64.6157 184.778 64.8117C185.366 64.933 185.791 65.3437 186.052 66.0437L187.27 69.2357ZM183.084 63.6917C183.765 63.6917 184.269 63.5657 184.596 63.3137C184.923 63.0617 185.086 62.679 185.086 62.1657C185.086 61.6617 184.923 61.2883 184.596 61.0457C184.279 60.7937 183.775 60.6677 183.084 60.6677H180.83V63.6917H183.084ZM194.798 65.7917H189.926C189.963 66.5477 190.15 67.1077 190.486 67.4717C190.831 67.8263 191.34 68.0037 192.012 68.0037C192.787 68.0037 193.505 67.7517 194.168 67.2477L194.672 68.4517C194.336 68.7223 193.921 68.9417 193.426 69.1097C192.941 69.2683 192.446 69.3477 191.942 69.3477C190.785 69.3477 189.875 69.021 189.212 68.3677C188.549 67.7143 188.218 66.8183 188.218 65.6797C188.218 64.961 188.363 64.3217 188.652 63.7617C188.941 63.2017 189.347 62.7677 189.87 62.4597C190.393 62.1423 190.985 61.9837 191.648 61.9837C192.619 61.9837 193.384 62.301 193.944 62.9357C194.513 63.561 194.798 64.4243 194.798 65.5257V65.7917ZM191.69 63.2437C191.223 63.2437 190.841 63.3837 190.542 63.6637C190.253 63.9343 190.066 64.331 189.982 64.8537H193.272C193.216 64.3217 193.053 63.9203 192.782 63.6497C192.521 63.379 192.157 63.2437 191.69 63.2437ZM200.152 61.9837C200.768 61.9837 201.309 62.1377 201.776 62.4457C202.252 62.7443 202.621 63.169 202.882 63.7197C203.143 64.2703 203.274 64.9097 203.274 65.6377C203.274 66.3657 203.139 67.0143 202.868 67.5837C202.607 68.1437 202.238 68.5777 201.762 68.8857C201.295 69.1937 200.759 69.3477 200.152 69.3477C199.629 69.3477 199.163 69.2357 198.752 69.0117C198.351 68.7877 198.047 68.475 197.842 68.0737V69.2357H196.12V58.9317H197.856V63.2297C198.071 62.8377 198.379 62.5343 198.78 62.3197C199.181 62.0957 199.639 61.9837 200.152 61.9837ZM199.69 67.9757C200.269 67.9757 200.717 67.7703 201.034 67.3597C201.351 66.949 201.51 66.375 201.51 65.6377C201.51 64.9097 201.351 64.3497 201.034 63.9577C200.717 63.5563 200.264 63.3557 199.676 63.3557C199.088 63.3557 198.635 63.5563 198.318 63.9577C198.001 64.359 197.842 64.9283 197.842 65.6657C197.842 66.4123 198.001 66.9863 198.318 67.3877C198.635 67.7797 199.093 67.9757 199.69 67.9757ZM211.404 62.1657V69.2357H209.682V68.1017C209.467 68.4937 209.159 68.8017 208.758 69.0257C208.356 69.2403 207.899 69.3477 207.386 69.3477C206.77 69.3477 206.224 69.1983 205.748 68.8997C205.272 68.601 204.903 68.1763 204.642 67.6257C204.38 67.075 204.25 66.4357 204.25 65.7077C204.25 64.9797 204.38 64.3357 204.642 63.7757C204.912 63.2063 205.286 62.7677 205.762 62.4597C206.238 62.1423 206.779 61.9837 207.386 61.9837C207.899 61.9837 208.356 62.0957 208.758 62.3197C209.159 62.5343 209.467 62.8377 209.682 63.2297V62.1657H211.404ZM207.862 67.9757C208.44 67.9757 208.888 67.775 209.206 67.3737C209.523 66.9723 209.682 66.4077 209.682 65.6797C209.682 64.933 209.523 64.359 209.206 63.9577C208.888 63.5563 208.436 63.3557 207.848 63.3557C207.269 63.3557 206.816 63.5657 206.49 63.9857C206.172 64.3963 206.014 64.9703 206.014 65.7077C206.014 66.4357 206.172 66.9957 206.49 67.3877C206.816 67.7797 207.274 67.9757 207.862 67.9757ZM215.376 63.4817V66.6457C215.376 67.4763 215.763 67.8917 216.538 67.8917C216.752 67.8917 216.986 67.8543 217.238 67.7797V69.1657C216.93 69.2777 216.556 69.3337 216.118 69.3337C215.315 69.3337 214.699 69.1097 214.27 68.6617C213.84 68.2137 213.626 67.5697 213.626 66.7297V63.4817H212.268V62.1657H213.626V60.4437L215.376 59.8557V62.1657H217.252V63.4817H215.376ZM224.482 65.7917H219.61C219.648 66.5477 219.834 67.1077 220.17 67.4717C220.516 67.8263 221.024 68.0037 221.696 68.0037C222.471 68.0037 223.19 67.7517 223.852 67.2477L224.356 68.4517C224.02 68.7223 223.605 68.9417 223.11 69.1097C222.625 69.2683 222.13 69.3477 221.626 69.3477C220.469 69.3477 219.559 69.021 218.896 68.3677C218.234 67.7143 217.902 66.8183 217.902 65.6797C217.902 64.961 218.047 64.3217 218.336 63.7617C218.626 63.2017 219.032 62.7677 219.554 62.4597C220.077 62.1423 220.67 61.9837 221.332 61.9837C222.303 61.9837 223.068 62.301 223.628 62.9357C224.198 63.561 224.482 64.4243 224.482 65.5257V65.7917ZM221.374 63.2437C220.908 63.2437 220.525 63.3837 220.226 63.6637C219.937 63.9343 219.75 64.331 219.666 64.8537H222.956C222.9 64.3217 222.737 63.9203 222.466 63.6497C222.205 63.379 221.841 63.2437 221.374 63.2437Z" fill="white"/>
</svg>
