<svg width="269" height="193" viewBox="0 0 269 193" fill="none" xmlns="http://www.w3.org/2000/svg">
<path fill-rule="evenodd" clip-rule="evenodd" d="M122.213 130.378C122.213 130.378 120.27 85.5141 146.684 69.2646C178.816 88.1667 163.716 128.14 163.716 128.14L137.238 156.498L122.213 130.378Z" fill="#118C8C"/>
<path fill-rule="evenodd" clip-rule="evenodd" d="M167.261 111.177L140.209 129.24L144.153 93.008L159.657 81.9196L159.103 81.1121L144.296 91.7034L146.739 69.2646L145.729 69.617L141.253 110.724L125.816 97.7068L125.787 98.9621L141.125 111.896L136.147 157.627L137.107 157.735L140.071 130.51L166.986 112.537L167.261 111.177Z" fill="#006769"/>
<path fill-rule="evenodd" clip-rule="evenodd" d="M138.797 143.306C138.797 143.306 158.729 111.775 182.91 116.852C200.287 165.163 141.318 191.138 141.318 191.138L138.797 143.306Z" fill="#FFD052"/>
<path fill-rule="evenodd" clip-rule="evenodd" d="M138.797 143.306C138.797 143.306 158.729 111.775 182.91 116.852C200.287 165.163 141.318 191.138 141.318 191.138L138.797 143.306Z" fill="#FAA525"/>
<mask id="mask0_324_3797" style="mask-type:alpha" maskUnits="userSpaceOnUse" x="138" y="116" width="49" height="76">
<path fill-rule="evenodd" clip-rule="evenodd" d="M138.797 143.306L141.318 191.138C141.318 191.138 186.045 171.434 186.114 134.434V134.268C186.104 128.833 185.13 123.023 182.91 116.852C181.108 116.473 179.331 116.298 177.583 116.299C155.87 116.3 138.797 143.306 138.797 143.306Z" fill="white"/>
</mask>
<g mask="url(#mask0_324_3797)">
<path fill-rule="evenodd" clip-rule="evenodd" d="M180.645 157.184L152.971 157.862L183.296 117.152L182.525 116.551L164.119 141.26L161.456 120.464L160.587 121.317L163.284 142.38L138.318 175.898L139.09 176.497L152.22 158.871L179.787 158.196L180.645 157.184Z" fill="white"/>
</g>
<path fill-rule="evenodd" clip-rule="evenodd" d="M119.149 147.284C119.149 147.284 83.0249 121.569 90.0217 89.1838C144.731 80.7066 149.83 147.837 149.83 147.837L119.149 147.284Z" fill="#004060"/>
<mask id="mask1_324_3797" style="mask-type:alpha" maskUnits="userSpaceOnUse" x="88" y="88" width="62" height="60">
<path fill-rule="evenodd" clip-rule="evenodd" d="M89.606 88.825C82.6334 121.22 118.631 146.942 118.631 146.942L149.203 147.495C149.203 147.495 144.709 88.0838 98.8058 88.0847C95.9073 88.0847 92.8434 88.3214 89.606 88.825Z" fill="white"/>
</mask>
<g mask="url(#mask1_324_3797)">
<path fill-rule="evenodd" clip-rule="evenodd" d="M129.43 96.7102L128.548 96.1674L124.076 129.216L90.5598 89.1177L89.8445 89.7613L113.621 118.206L95.5783 120.883L95.9311 121.515L114.366 119.1L133.664 142.187L134.838 142.091L124.9 130.201L129.43 96.7102Z" fill="#006769"/>
</g>
<path fill-rule="evenodd" clip-rule="evenodd" d="M148.802 153.484L145.766 151.541L155.239 147.242L151.318 138.154C149.505 134.278 144.822 131.135 140.347 131.132H120.843C116.37 131.135 111.686 134.278 109.873 138.154L105.952 147.242L115.425 151.541L112.39 153.484L110.707 168.253L130.596 167.935L150.484 168.253L148.802 153.484Z" fill="#58C4C5"/>
<path fill-rule="evenodd" clip-rule="evenodd" d="M106.035 147.218L104.076 153.855C102.646 158.695 104.172 163.894 108.028 167.32L116.92 174.44L119.777 166.472L114.86 161.77C113.244 160.226 112.763 157.906 113.641 155.891L115.526 151.557L106.035 147.218Z" fill="#FAB08A"/>
<path fill-rule="evenodd" clip-rule="evenodd" d="M155.157 147.218L157.116 153.855C158.545 158.695 157.019 163.894 153.164 167.32L144.274 174.44L141.415 166.472L146.333 161.77C147.947 160.226 148.429 157.906 147.552 155.891L145.666 151.557L155.157 147.218Z" fill="#FAB08A"/>
<rect x="116.17" y="159.591" width="31.8564" height="21.035" fill="black"/>
<path fill-rule="evenodd" clip-rule="evenodd" d="M130.904 165.364C130.904 166.095 131.488 166.687 132.207 166.687C132.927 166.687 133.51 166.095 133.51 165.364C133.51 164.633 132.927 164.041 132.207 164.041C131.488 164.041 130.904 164.633 130.904 165.364Z" fill="white"/>
<path fill-rule="evenodd" clip-rule="evenodd" d="M116.771 189.998L108.707 191.144L107.154 189.36L107.942 186.125L115.694 184.957L116.771 189.998Z" fill="#FAB08A"/>
<path fill-rule="evenodd" clip-rule="evenodd" d="M108.957 190.957L98.9203 192.245C98.9203 192.245 89.0406 193.578 90.4649 187.916C91.8398 182.449 100.707 184.875 100.707 184.875L108.957 185.91C107.966 187.314 107.92 189.326 108.843 190.777L108.957 190.957Z" fill="#919A9A"/>
<path fill-rule="evenodd" clip-rule="evenodd" d="M148.628 190.617L156.691 191.763L158.245 189.979L157.457 186.744L149.705 185.576L148.628 190.617Z" fill="#FAB08A"/>
<path fill-rule="evenodd" clip-rule="evenodd" d="M156.441 191.576L166.479 192.863C166.479 192.863 176.358 194.197 174.934 188.535C173.559 183.068 164.691 185.493 164.691 185.493L156.441 186.529C157.433 187.933 157.479 189.944 156.556 191.396L156.441 191.576Z" fill="#919A9A"/>
<path fill-rule="evenodd" clip-rule="evenodd" d="M116.17 178.152H148.628V176.296H116.17V178.152Z" fill="#C0ABC3"/>
<path fill-rule="evenodd" clip-rule="evenodd" d="M171.614 171.845C178.134 183.805 112.474 191.144 112.474 191.144L111.362 185.818C111.362 185.818 163.574 157.099 171.614 171.845Z" fill="#1C2C57"/>
<path fill-rule="evenodd" clip-rule="evenodd" d="M90.6592 171.84C85.1035 184.294 150.545 191.763 150.545 191.763L151.032 185.779C151.032 185.779 97.2306 157.116 90.6592 171.84Z" fill="#004060"/>
<path fill-rule="evenodd" clip-rule="evenodd" d="M134.2 131.234C133.615 129.336 132.553 123.708 132.553 123.708L125.787 125.123V131.266C125.787 131.266 128.032 132.971 129.922 132.988C131.985 133.006 134.273 131.448 134.2 131.234Z" fill="#F79C82"/>
<path fill-rule="evenodd" clip-rule="evenodd" d="M76.6035 125.035H88.8113C88.8113 125.035 87.5268 131.169 82.6078 131.169C77.6888 131.169 76.6035 125.035 76.6035 125.035Z" fill="white"/>
<path fill-rule="evenodd" clip-rule="evenodd" d="M87.9777 120.127C88.0045 120.04 88.0237 119.95 88.0237 119.854C88.0237 119.328 87.582 118.9 87.0387 118.9C86.4952 118.9 86.0547 119.328 86.0547 119.854C86.0547 119.95 86.0729 120.04 86.0998 120.127H87.9777Z" fill="white"/>
<path fill-rule="evenodd" clip-rule="evenodd" d="M79.7079 120.127C79.7342 120.04 79.7539 119.95 79.7539 119.854C79.7539 119.328 79.3125 118.9 78.7689 118.9C78.2248 118.9 77.7849 119.328 77.7849 119.854C77.7849 119.95 77.8031 120.04 77.83 120.127H79.7079Z" fill="white"/>
<path fill-rule="evenodd" clip-rule="evenodd" d="M134.995 114.245L133.583 105.767L119.176 112.307L120.049 117.271C120.049 117.271 121.163 129.358 128.832 127.92C137.126 126.365 135.364 114.138 134.995 114.245Z" fill="#FAB08A"/>
<mask id="mask2_324_3797" style="mask-type:alpha" maskUnits="userSpaceOnUse" x="106" y="101" width="31" height="70">
<path fill-rule="evenodd" clip-rule="evenodd" d="M106.553 101.646H136.249V170.728H106.553V101.646Z" fill="white"/>
</mask>
<g mask="url(#mask2_324_3797)">
<path fill-rule="evenodd" clip-rule="evenodd" d="M119.517 117.8C128.738 119.801 133.935 109.226 133.935 109.226C133.935 109.226 133.652 111.434 134.523 114.701C137.627 110.554 135.598 105.329 135.598 105.329C135.598 105.329 133.089 99.6203 121.899 102.417C108.853 105.679 106.678 124.139 106.678 124.139C106.678 124.139 105.724 128.159 109.084 134.602C110.033 136.422 109.98 138.664 108.76 140.303C105.967 144.056 106.678 148.687 106.678 148.687C106.678 148.687 106.952 151.101 108.952 152.682C110.824 154.159 111.578 157.325 110.828 159.627C109.222 164.554 110.592 167.359 110.592 167.359C110.592 167.359 111.466 170.523 116.246 170.717C123.216 171 123.067 165.299 122.44 162.087C122.202 160.866 122.511 159.602 123.319 158.675C124.174 157.695 125.103 156.163 125.162 154.099C125.21 152.357 124.551 150.514 123.81 149.015C122.85 147.072 123.017 144.758 124.272 143.004C126.051 140.515 128.35 135.562 127.063 132.35C124.888 126.921 121.175 125.11 119.517 117.8Z" fill="#1C2C57"/>
</g>
<path d="M0 39.5C0 73 41 85.8333 65.5 98.5L71 101C64.6 86.2 76.6671 79.1667 83.5007 77.5C103.334 71.8333 133 62 133 35.5C133 8.99992 104 0 66 0C21.5 0 0 15.5 0 39.5Z" fill="#58C4C5"/>
<path d="M21.4334 38.162C20.1734 38.162 19.0694 37.892 18.1214 37.352C17.1854 36.812 16.4654 36.05 15.9614 35.066C15.4574 34.07 15.2054 32.906 15.2054 31.574C15.2054 30.254 15.4574 29.102 15.9614 28.118C16.4654 27.122 17.1854 26.36 18.1214 25.832C19.0694 25.292 20.1734 25.022 21.4334 25.022C22.2974 25.022 23.1074 25.16 23.8634 25.436C24.6314 25.7 25.2674 26.072 25.7714 26.552L25.0154 28.244C24.4394 27.776 23.8634 27.44 23.2874 27.236C22.7234 27.02 22.1174 26.912 21.4694 26.912C20.2334 26.912 19.2734 27.314 18.5894 28.118C17.9174 28.922 17.5814 30.074 17.5814 31.574C17.5814 33.086 17.9174 34.25 18.5894 35.066C19.2614 35.87 20.2214 36.272 21.4694 36.272C22.1174 36.272 22.7234 36.17 23.2874 35.966C23.8634 35.75 24.4394 35.408 25.0154 34.94L25.7714 36.632C25.2674 37.112 24.6314 37.49 23.8634 37.766C23.1074 38.03 22.2974 38.162 21.4334 38.162ZM31.5659 38.144C30.6419 38.144 29.8259 37.952 29.1179 37.568C28.4219 37.184 27.8819 36.638 27.4979 35.93C27.1259 35.21 26.9399 34.37 26.9399 33.41C26.9399 32.45 27.1259 31.616 27.4979 30.908C27.8819 30.188 28.4219 29.636 29.1179 29.252C29.8259 28.868 30.6419 28.676 31.5659 28.676C32.4779 28.676 33.2819 28.868 33.9779 29.252C34.6739 29.636 35.2079 30.188 35.5799 30.908C35.9639 31.616 36.1559 32.45 36.1559 33.41C36.1559 34.37 35.9639 35.21 35.5799 35.93C35.2079 36.638 34.6739 37.184 33.9779 37.568C33.2819 37.952 32.4779 38.144 31.5659 38.144ZM31.5479 36.38C32.3159 36.38 32.8979 36.134 33.2939 35.642C33.7019 35.138 33.9059 34.394 33.9059 33.41C33.9059 32.438 33.7019 31.7 33.2939 31.196C32.8859 30.68 32.3099 30.422 31.5659 30.422C30.8099 30.422 30.2279 30.68 29.8199 31.196C29.4119 31.7 29.2079 32.438 29.2079 33.41C29.2079 34.394 29.4059 35.138 29.8019 35.642C30.2099 36.134 30.7919 36.38 31.5479 36.38ZM43.1383 28.676C45.3103 28.676 46.3963 29.924 46.3963 32.42V38H44.1463V32.528C44.1463 31.808 44.0083 31.286 43.7323 30.962C43.4563 30.626 43.0303 30.458 42.4543 30.458C41.7703 30.458 41.2183 30.68 40.7983 31.124C40.3783 31.556 40.1683 32.132 40.1683 32.852V38H37.9363V31.484C37.9363 30.524 37.8883 29.666 37.7923 28.91H39.8983L40.0603 30.404C40.3723 29.852 40.7923 29.426 41.3203 29.126C41.8603 28.826 42.4663 28.676 43.1383 28.676ZM52.924 26.534C51.952 26.534 51.466 27.068 51.466 28.136V28.91H53.5V30.602H51.466V38H49.216V30.602H47.488V28.91H49.216V28.028C49.216 26.948 49.486 26.12 50.026 25.544C50.578 24.956 51.364 24.662 52.384 24.662C52.948 24.662 53.422 24.734 53.806 24.878V26.66C53.47 26.576 53.176 26.534 52.924 26.534ZM55.228 38V24.752H57.46V38H55.228ZM59.7647 38V28.91H61.9967V38H59.7647ZM59.6207 24.788H62.1227V27.002H59.6207V24.788ZM68.4201 38.144C67.4721 38.144 66.6501 37.952 65.9541 37.568C65.2581 37.184 64.7241 36.644 64.3521 35.948C63.9801 35.24 63.7941 34.412 63.7941 33.464C63.7941 32.516 63.9861 31.682 64.3701 30.962C64.7661 30.242 65.3181 29.684 66.0261 29.288C66.7461 28.88 67.5741 28.676 68.5101 28.676C69.1581 28.676 69.7821 28.778 70.3821 28.982C70.9941 29.186 71.4801 29.468 71.8401 29.828L71.2101 31.412C70.8261 31.1 70.4181 30.866 69.9861 30.71C69.5541 30.542 69.1281 30.458 68.7081 30.458C67.8921 30.458 67.2561 30.716 66.8001 31.232C66.3441 31.736 66.1161 32.468 66.1161 33.428C66.1161 34.388 66.3381 35.12 66.7821 35.624C67.2381 36.128 67.8801 36.38 68.7081 36.38C69.1281 36.38 69.5541 36.296 69.9861 36.128C70.4181 35.96 70.8261 35.72 71.2101 35.408L71.8401 36.992C71.4561 37.352 70.9581 37.634 70.3461 37.838C69.7341 38.042 69.0921 38.144 68.4201 38.144ZM76.1055 30.602V34.67C76.1055 35.738 76.6035 36.272 77.5995 36.272C77.8755 36.272 78.1755 36.224 78.4995 36.128V37.91C78.1035 38.054 77.6235 38.126 77.0595 38.126C76.0275 38.126 75.2355 37.838 74.6835 37.262C74.1315 36.686 73.8555 35.858 73.8555 34.778V30.602H72.1095V28.91H73.8555V26.696L76.1055 25.94V28.91H78.5175V30.602H76.1055ZM79.7109 34.04V32.24H85.1289V34.04H79.7109ZM91.7275 26.534C90.7555 26.534 90.2695 27.068 90.2695 28.136V28.91H92.3035V30.602H90.2695V38H88.0195V30.602H86.2915V28.91H88.0195V28.028C88.0195 26.948 88.2895 26.12 88.8295 25.544C89.3815 24.956 90.1675 24.662 91.1875 24.662C91.7515 24.662 92.2255 24.734 92.6095 24.878V26.66C92.2735 26.576 91.9795 26.534 91.7275 26.534ZM98.7709 28.694C99.1189 28.694 99.4189 28.742 99.6709 28.838L99.6529 30.89C99.2689 30.734 98.8729 30.656 98.4649 30.656C97.6969 30.656 97.1089 30.878 96.7009 31.322C96.3049 31.766 96.1069 32.354 96.1069 33.086V38H93.8749V31.484C93.8749 30.524 93.8269 29.666 93.7309 28.91H95.8369L96.0169 30.512C96.2449 29.924 96.6049 29.474 97.0969 29.162C97.5889 28.85 98.1469 28.694 98.7709 28.694ZM108.544 33.572H102.28C102.328 34.544 102.568 35.264 103 35.732C103.444 36.188 104.098 36.416 104.962 36.416C105.958 36.416 106.882 36.092 107.734 35.444L108.382 36.992C107.95 37.34 107.416 37.622 106.78 37.838C106.156 38.042 105.52 38.144 104.872 38.144C103.384 38.144 102.214 37.724 101.362 36.884C100.51 36.044 100.084 34.892 100.084 33.428C100.084 32.504 100.27 31.682 100.642 30.962C101.014 30.242 101.536 29.684 102.208 29.288C102.88 28.88 103.642 28.676 104.494 28.676C105.742 28.676 106.726 29.084 107.446 29.9C108.178 30.704 108.544 31.814 108.544 33.23V33.572ZM104.548 30.296C103.948 30.296 103.456 30.476 103.072 30.836C102.7 31.184 102.46 31.694 102.352 32.366H106.582C106.51 31.682 106.3 31.166 105.952 30.818C105.616 30.47 105.148 30.296 104.548 30.296ZM118.245 33.572H111.981C112.029 34.544 112.269 35.264 112.701 35.732C113.145 36.188 113.799 36.416 114.663 36.416C115.659 36.416 116.583 36.092 117.435 35.444L118.083 36.992C117.651 37.34 117.117 37.622 116.481 37.838C115.857 38.042 115.221 38.144 114.573 38.144C113.085 38.144 111.915 37.724 111.063 36.884C110.211 36.044 109.785 34.892 109.785 33.428C109.785 32.504 109.971 31.682 110.343 30.962C110.715 30.242 111.237 29.684 111.909 29.288C112.581 28.88 113.343 28.676 114.195 28.676C115.443 28.676 116.427 29.084 117.147 29.9C117.879 30.704 118.245 31.814 118.245 33.23V33.572ZM114.249 30.296C113.649 30.296 113.157 30.476 112.773 30.836C112.401 31.184 112.161 31.694 112.053 32.366H116.283C116.211 31.682 116.001 31.166 115.653 30.818C115.317 30.47 114.849 30.296 114.249 30.296ZM49.0653 59L47.7873 55.994H41.5233L40.2273 59H37.8873L43.6833 46.184H45.5733L51.3873 59H49.0653ZM42.2973 54.194H47.0133L44.6553 48.704L42.2973 54.194ZM61.1453 45.752V59H58.9313V57.542C58.6553 58.046 58.2593 58.442 57.7433 58.73C57.2273 59.006 56.6393 59.144 55.9793 59.144C55.1993 59.144 54.5033 58.946 53.8913 58.55C53.2793 58.154 52.7993 57.596 52.4513 56.876C52.1153 56.144 51.9473 55.31 51.9473 54.374C51.9473 53.438 52.1153 52.616 52.4513 51.908C52.7873 51.2 53.2613 50.654 53.8733 50.27C54.4853 49.874 55.1873 49.676 55.9793 49.676C56.6273 49.676 57.2033 49.814 57.7073 50.09C58.2233 50.354 58.6193 50.732 58.8953 51.224V45.752H61.1453ZM56.5733 57.38C57.3173 57.38 57.8933 57.122 58.3013 56.606C58.7213 56.09 58.9313 55.358 58.9313 54.41C58.9313 53.462 58.7273 52.73 58.3193 52.214C57.9113 51.698 57.3353 51.44 56.5913 51.44C55.8353 51.44 55.2473 51.698 54.8273 52.214C54.4193 52.718 54.2153 53.438 54.2153 54.374C54.2153 55.322 54.4193 56.06 54.8273 56.588C55.2473 57.116 55.8293 57.38 56.5733 57.38ZM69.8078 49.928H72.0398L68.0618 59H66.0998L62.1758 49.928H64.5338L67.1438 56.444L69.8078 49.928ZM73.0493 59V49.91H75.2813V59H73.0493ZM72.9053 45.788H75.4073V48.002H72.9053V45.788ZM81.7046 59.144C80.7566 59.144 79.9346 58.952 79.2386 58.568C78.5426 58.184 78.0086 57.644 77.6366 56.948C77.2646 56.24 77.0786 55.412 77.0786 54.464C77.0786 53.516 77.2706 52.682 77.6546 51.962C78.0506 51.242 78.6026 50.684 79.3106 50.288C80.0306 49.88 80.8586 49.676 81.7946 49.676C82.4426 49.676 83.0666 49.778 83.6666 49.982C84.2786 50.186 84.7646 50.468 85.1246 50.828L84.4946 52.412C84.1106 52.1 83.7026 51.866 83.2706 51.71C82.8386 51.542 82.4126 51.458 81.9926 51.458C81.1766 51.458 80.5406 51.716 80.0846 52.232C79.6286 52.736 79.4006 53.468 79.4006 54.428C79.4006 55.388 79.6226 56.12 80.0666 56.624C80.5226 57.128 81.1646 57.38 81.9926 57.38C82.4126 57.38 82.8386 57.296 83.2706 57.128C83.7026 56.96 84.1106 56.72 84.4946 56.408L85.1246 57.992C84.7406 58.352 84.2426 58.634 83.6306 58.838C83.0186 59.042 82.3766 59.144 81.7046 59.144ZM94.4314 54.572H88.1674C88.2154 55.544 88.4554 56.264 88.8874 56.732C89.3314 57.188 89.9854 57.416 90.8494 57.416C91.8454 57.416 92.7694 57.092 93.6214 56.444L94.2694 57.992C93.8374 58.34 93.3034 58.622 92.6674 58.838C92.0434 59.042 91.4074 59.144 90.7594 59.144C89.2714 59.144 88.1014 58.724 87.2494 57.884C86.3974 57.044 85.9714 55.892 85.9714 54.428C85.9714 53.504 86.1574 52.682 86.5294 51.962C86.9014 51.242 87.4234 50.684 88.0954 50.288C88.7674 49.88 89.5294 49.676 90.3814 49.676C91.6294 49.676 92.6134 50.084 93.3334 50.9C94.0654 51.704 94.4314 52.814 94.4314 54.23V54.572ZM90.4354 51.296C89.8354 51.296 89.3434 51.476 88.9594 51.836C88.5874 52.184 88.3474 52.694 88.2394 53.366H92.4694C92.3974 52.682 92.1874 52.166 91.8394 51.818C91.5034 51.47 91.0354 51.296 90.4354 51.296Z" fill="white"/>
<path d="M269 77.2871C269 103.822 236.323 113.987 216.797 124.02L212.414 126C213.875 122.964 214.805 120.218 214.805 117.683C214.805 116.495 216.399 112.535 202.451 107.386C186.644 102.898 163 95.1089 163 74.1188C163 53.1287 186.113 46 216.399 46C251.865 46 269 58.2772 269 77.2871Z" fill="#2D8289"/>
<path d="M204.355 62.81C205.159 62.81 205.867 62.984 206.479 63.332C207.091 63.668 207.565 64.148 207.901 64.772C208.237 65.384 208.405 66.092 208.405 66.896C208.405 67.736 208.213 68.48 207.829 69.128C207.445 69.764 206.893 70.262 206.173 70.622C205.453 70.97 204.619 71.144 203.671 71.144C202.867 71.144 202.075 71.012 201.295 70.748C200.515 70.472 199.873 70.106 199.369 69.65L200.143 67.958C201.307 68.846 202.495 69.29 203.707 69.29C204.511 69.29 205.123 69.092 205.543 68.696C205.975 68.288 206.191 67.712 206.191 66.968C206.191 66.26 205.969 65.696 205.525 65.276C205.093 64.844 204.511 64.628 203.779 64.628C203.275 64.628 202.801 64.724 202.357 64.916C201.913 65.096 201.523 65.366 201.187 65.726H199.783V58.184H207.811V59.984H202.051V63.476C202.699 63.032 203.467 62.81 204.355 62.81ZM214.304 71.162C212.78 71.162 211.616 70.604 210.812 69.488C210.02 68.36 209.624 66.722 209.624 64.574C209.624 62.462 210.02 60.848 210.812 59.732C211.616 58.616 212.78 58.058 214.304 58.058C215.828 58.058 216.986 58.616 217.778 59.732C218.582 60.836 218.984 62.45 218.984 64.574C218.984 66.71 218.582 68.342 217.778 69.47C216.986 70.598 215.828 71.162 214.304 71.162ZM214.304 69.344C215.132 69.344 215.732 68.966 216.104 68.21C216.488 67.442 216.68 66.23 216.68 64.574C216.68 62.942 216.488 61.754 216.104 61.01C215.732 60.254 215.132 59.876 214.304 59.876C213.476 59.876 212.87 60.254 212.486 61.01C212.114 61.754 211.928 62.942 211.928 64.574C211.928 66.23 212.114 67.442 212.486 68.21C212.87 68.966 213.476 69.344 214.304 69.344ZM223.551 65.834C222.543 65.834 221.751 65.504 221.175 64.844C220.611 64.172 220.329 63.194 220.329 61.91C220.329 60.638 220.611 59.672 221.175 59.012C221.751 58.34 222.543 58.004 223.551 58.004C224.571 58.004 225.369 58.34 225.945 59.012C226.521 59.672 226.809 60.638 226.809 61.91C226.809 63.194 226.521 64.172 225.945 64.844C225.369 65.504 224.571 65.834 223.551 65.834ZM225.405 71H223.425L230.841 58.184H232.839L225.405 71ZM223.551 64.376C224.019 64.376 224.361 64.184 224.577 63.8C224.793 63.416 224.901 62.786 224.901 61.91C224.901 61.058 224.787 60.44 224.559 60.056C224.343 59.66 224.007 59.462 223.551 59.462C223.107 59.462 222.777 59.66 222.561 60.056C222.345 60.44 222.237 61.058 222.237 61.91C222.237 62.774 222.345 63.404 222.561 63.8C222.777 64.184 223.107 64.376 223.551 64.376ZM232.695 71.126C231.675 71.126 230.877 70.796 230.301 70.136C229.737 69.464 229.455 68.48 229.455 67.184C229.455 65.912 229.737 64.946 230.301 64.286C230.877 63.626 231.675 63.296 232.695 63.296C233.715 63.296 234.507 63.626 235.071 64.286C235.647 64.946 235.935 65.918 235.935 67.202C235.935 68.486 235.647 69.464 235.071 70.136C234.507 70.796 233.715 71.126 232.695 71.126ZM232.695 69.668C233.151 69.668 233.487 69.476 233.703 69.092C233.919 68.696 234.027 68.066 234.027 67.202C234.027 66.35 233.913 65.732 233.685 65.348C233.469 64.952 233.139 64.754 232.695 64.754C232.239 64.754 231.903 64.952 231.687 65.348C231.471 65.732 231.363 66.35 231.363 67.202C231.363 68.066 231.471 68.696 231.687 69.092C231.903 69.476 232.239 69.668 232.695 69.668ZM194.661 92H192.213L190.575 87.734C190.431 87.338 190.209 87.062 189.909 86.906C189.609 86.75 189.219 86.672 188.739 86.672H186.417V92H184.113V79.184H189.603C191.055 79.184 192.159 79.502 192.915 80.138C193.671 80.774 194.049 81.686 194.049 82.874C194.049 83.726 193.821 84.452 193.365 85.052C192.921 85.64 192.285 86.06 191.457 86.312C192.213 86.468 192.759 86.996 193.095 87.896L194.661 92ZM189.279 84.872C190.155 84.872 190.803 84.71 191.223 84.386C191.643 84.062 191.853 83.57 191.853 82.91C191.853 82.262 191.643 81.782 191.223 81.47C190.815 81.146 190.167 80.984 189.279 80.984H186.381V84.872H189.279ZM204.386 87.572H198.122C198.17 88.544 198.41 89.264 198.842 89.732C199.286 90.188 199.94 90.416 200.804 90.416C201.8 90.416 202.724 90.092 203.576 89.444L204.224 90.992C203.792 91.34 203.258 91.622 202.622 91.838C201.998 92.042 201.362 92.144 200.714 92.144C199.226 92.144 198.056 91.724 197.204 90.884C196.352 90.044 195.926 88.892 195.926 87.428C195.926 86.504 196.112 85.682 196.484 84.962C196.856 84.242 197.378 83.684 198.05 83.288C198.722 82.88 199.484 82.676 200.336 82.676C201.584 82.676 202.568 83.084 203.288 83.9C204.02 84.704 204.386 85.814 204.386 87.23V87.572ZM200.39 84.296C199.79 84.296 199.298 84.476 198.914 84.836C198.542 85.184 198.302 85.694 198.194 86.366H202.424C202.352 85.682 202.142 85.166 201.794 84.818C201.458 84.47 200.99 84.296 200.39 84.296ZM211.315 82.676C212.107 82.676 212.803 82.874 213.403 83.27C214.015 83.654 214.489 84.2 214.825 84.908C215.161 85.616 215.329 86.438 215.329 87.374C215.329 88.31 215.155 89.144 214.807 89.876C214.471 90.596 213.997 91.154 213.385 91.55C212.785 91.946 212.095 92.144 211.315 92.144C210.643 92.144 210.043 92 209.515 91.712C208.999 91.424 208.609 91.022 208.345 90.506V92H206.131V78.752H208.363V84.278C208.639 83.774 209.035 83.384 209.551 83.108C210.067 82.82 210.655 82.676 211.315 82.676ZM210.721 90.38C211.465 90.38 212.041 90.116 212.449 89.588C212.857 89.06 213.061 88.322 213.061 87.374C213.061 86.438 212.857 85.718 212.449 85.214C212.041 84.698 211.459 84.44 210.703 84.44C209.947 84.44 209.365 84.698 208.957 85.214C208.549 85.73 208.345 86.462 208.345 87.41C208.345 88.37 208.549 89.108 208.957 89.624C209.365 90.128 209.953 90.38 210.721 90.38ZM225.827 82.91V92H223.613V90.542C223.337 91.046 222.941 91.442 222.425 91.73C221.909 92.006 221.321 92.144 220.661 92.144C219.869 92.144 219.167 91.952 218.555 91.568C217.943 91.184 217.469 90.638 217.133 89.93C216.797 89.222 216.629 88.4 216.629 87.464C216.629 86.528 216.797 85.7 217.133 84.98C217.481 84.248 217.961 83.684 218.573 83.288C219.185 82.88 219.881 82.676 220.661 82.676C221.321 82.676 221.909 82.82 222.425 83.108C222.941 83.384 223.337 83.774 223.613 84.278V82.91H225.827ZM221.273 90.38C222.017 90.38 222.593 90.122 223.001 89.606C223.409 89.09 223.613 88.364 223.613 87.428C223.613 86.468 223.409 85.73 223.001 85.214C222.593 84.698 222.011 84.44 221.255 84.44C220.511 84.44 219.929 84.71 219.509 85.25C219.101 85.778 218.897 86.516 218.897 87.464C218.897 88.4 219.101 89.12 219.509 89.624C219.929 90.128 220.517 90.38 221.273 90.38ZM230.98 84.602V88.67C230.98 89.738 231.478 90.272 232.474 90.272C232.75 90.272 233.05 90.224 233.374 90.128V91.91C232.978 92.054 232.498 92.126 231.934 92.126C230.902 92.126 230.11 91.838 229.558 91.262C229.006 90.686 228.73 89.858 228.73 88.778V84.602H226.984V82.91H228.73V80.696L230.98 79.94V82.91H233.392V84.602H230.98ZM242.734 87.572H236.47C236.518 88.544 236.758 89.264 237.19 89.732C237.634 90.188 238.288 90.416 239.152 90.416C240.148 90.416 241.072 90.092 241.924 89.444L242.572 90.992C242.14 91.34 241.606 91.622 240.97 91.838C240.346 92.042 239.71 92.144 239.062 92.144C237.574 92.144 236.404 91.724 235.552 90.884C234.7 90.044 234.274 88.892 234.274 87.428C234.274 86.504 234.46 85.682 234.832 84.962C235.204 84.242 235.726 83.684 236.398 83.288C237.07 82.88 237.832 82.676 238.684 82.676C239.932 82.676 240.916 83.084 241.636 83.9C242.368 84.704 242.734 85.814 242.734 87.23V87.572ZM238.738 84.296C238.138 84.296 237.646 84.476 237.262 84.836C236.89 85.184 236.65 85.694 236.542 86.366H240.772C240.7 85.682 240.49 85.166 240.142 84.818C239.806 84.47 239.338 84.296 238.738 84.296ZM247.809 92.144C246.165 92.144 244.857 91.76 243.885 90.992L244.515 89.408C245.487 90.128 246.597 90.488 247.845 90.488C248.385 90.488 248.799 90.398 249.087 90.218C249.387 90.038 249.537 89.786 249.537 89.462C249.537 89.186 249.435 88.97 249.231 88.814C249.027 88.646 248.679 88.502 248.187 88.382L246.675 88.04C245.019 87.68 244.191 86.834 244.191 85.502C244.191 84.95 244.347 84.464 244.659 84.044C244.971 83.612 245.409 83.276 245.973 83.036C246.537 82.796 247.191 82.676 247.935 82.676C248.583 82.676 249.207 82.778 249.807 82.982C250.407 83.174 250.935 83.456 251.391 83.828L250.725 85.358C249.813 84.686 248.877 84.35 247.917 84.35C247.401 84.35 246.999 84.446 246.711 84.638C246.423 84.83 246.279 85.094 246.279 85.43C246.279 85.694 246.363 85.904 246.531 86.06C246.711 86.216 247.011 86.348 247.431 86.456L248.979 86.798C249.879 87.002 250.533 87.32 250.941 87.752C251.361 88.172 251.571 88.724 251.571 89.408C251.571 90.248 251.235 90.914 250.563 91.406C249.891 91.898 248.973 92.144 247.809 92.144Z" fill="white"/>
</svg>
