<svg xmlns="http://www.w3.org/2000/svg" xmlns:xlink="http://www.w3.org/1999/xlink" width="540" height="450" viewBox="0 0 540 450">
    <defs>
        <path id="prefix__a" d="M39.622 141.909c10.106 0 57.686-25.926 107.508-46.496 53.166-11.772 69.461-15.579 111.579-38.405 70.06-10.317 110.116-13.694 117.012-22.353 7.923-7.994 3.198-11.541-.557-12.725-2.503-.789-19.984-.466-52.445.97L99.981.33.534 33.86C19.972 38.423 30.72 46.821 32.78 59.054c3.09 18.348-17.126 34.67-8.498 57.807 8.627 23.138 12.215 25.048 15.339 25.048z"/>
        <path id="prefix__c" d="M0 0.824L99.283 0.824 99.283 72.533 0 72.533z"/>
        <path id="prefix__d" d="M0 0.22L43.574 0.22 43.574 17.82 0 17.82z"/>
        <path id="prefix__f" d="M0.012 0.102L30.371 0.102 30.371 35.454 0.012 35.454z"/>
        <path id="prefix__h" d="M15.365 35.454c6.213 0 11.184-1.272 15.006-2.41-.003-.008-.004-.015-.008-.022L17.06 1.46c-.767-1.82-3.29-1.81-4.042.016L.012 33.007c3.945 1.153 9.05 2.447 15.353 2.447"/>
        <path id="prefix__j" d="M0 0.334L65.654 0.334 65.654 26.97 0 26.97z"/>
        <path id="prefix__l" d="M0.019 0.154L45.761 0.154 45.761 53.661 0.019 53.661z"/>
        <path id="prefix__n" d="M23.15 53.66c9.363 0 16.852-1.925 22.611-3.648l-.011-.033L25.704 2.21c-1.157-2.755-4.957-2.74-6.091.025L.019 49.956c5.944 1.745 13.635 3.705 23.132 3.705"/>
        <path id="prefix__p" d="M20.193 57.852c9.543 0 18.94-6.263 28.19-18.79 1.81-16.156 1.09-26.233-2.16-30.231C42.268 3.964 24.666 0 15.306 0 8.105 0 0 14.186 0 24.229c0 5.662 2.198 15.627 6.68 23.243 3.47 5.893 7.269 10.38 13.513 10.38z"/>
        <ellipse id="prefix__q" cx="2.691" cy="2.867" rx="2.691" ry="2.867"/>
        <ellipse id="prefix__s" cx="2.691" cy="2.867" rx="2.691" ry="2.867"/>
    </defs>
    <g fill="none" fill-rule="evenodd">
        <path fill="#B1DFE1" d="M22 385.072c-5 35.619 27.167 58.761 96.5 69.428 104 16 138.157-30.69 235.5-3.5 64.895 18.127 133.486.26 205.771-53.602l-358.081-60.33L22 385.073z" transform="translate(-22 -64)"/>
        <g>
            <g>
                <g>
                    <path fill="#F0A57E" d="M207.174 116.394l34.73 11.4-17.365 88.9c-53.34 3.559-80.01 3.559-80.01 0s9.392-31.147 28.175-82.765l34.47-17.535z" transform="translate(-22 -64) scale(-1 1) rotate(-19 175.688 1775.699) translate(.389 22.311) translate(.194 19.053)"/>
                    <path fill="#FFDBC8" d="M241.291 84.38v5.936c3.238 1.399 7.99 1.654 12.148 1.894 2.772.16 7.167-.472 13.184-1.894l-25.332-5.936z" transform="translate(-22 -64) scale(-1 1) rotate(-19 175.688 1775.699) translate(.389 22.311) translate(.194 19.053)"/>
                    <g transform="translate(-22 -64) scale(-1 1) rotate(-19 175.688 1775.699) translate(.389 22.311) translate(.194 19.053) translate(0 191.135)">
                        <mask id="prefix__b" fill="#fff">
                            <use xlink:href="#prefix__a"/>
                        </mask>
                        <use fill="#FEC3A4" xlink:href="#prefix__a"/>
                        <path fill="#F0A57E" d="M37.877 150.444s83.139-44.249 109.253-55.03c53.166-11.773 69.461-15.58 111.579-38.406 70.06-10.317 103.63-24.238 110.526-32.897 7.923-7.994 3.198-11.541-.557-12.725-2.503-.788-17.822 3.05-45.959 11.513-18.616-.646-46.047-3.425-82.293-8.338-15.45 20.094-29.896 42.447-95.897 61.032-73.949 35.735-39.898 21.19-118.462 53.862-11.447 6.764 11.81 20.989 11.81 20.989z" mask="url(#prefix__b)"/>
                    </g>
                    <path fill="#FAB08A" d="M330.37 237.986c25.999-3.886 41.325-7.141 45.351-12.196 7.923-7.993 3.198-11.54-.557-12.724-2.138-.674-15.204-.537-39.2.412-4.096.162-10.158 17.367-5.594 24.508zM338.57 169.136c11.842-6.362 37.345-41.871 41.048-47.166 2.625-5.914 3.089-11.863 2.625-15.29-.463-3.426-2.625-3.426-5.227-3.94-6.707 1.1-12.243 3.65-16.61 7.645-17.994 37.094-25.273 56.677-21.835 58.75z" transform="translate(-22 -64) scale(-1 1) rotate(-19 175.688 1775.699) translate(.389 22.311) translate(.194 19.053)"/>
                    <path fill="#F0A57E" d="M338.57 169.136c5.65-3.035 14.408-12.704 22.425-22.561-8.24-13.192 6.921-37.258 10.913-42.648-2.976.915-6.81 3.068-11.501 6.458-17.995 37.094-25.274 56.677-21.836 58.75z" transform="translate(-22 -64) scale(-1 1) rotate(-19 175.688 1775.699) translate(.389 22.311) translate(.194 19.053)"/>
                    <path fill="#FAB08A" d="M363.769 98.777c0 1.78 14.037-9.218 20.36-16.85 6-7.242 12.251-18.262 12.251-22.72 0-4.457-3.487-6.45-6.84-6.45-2.931 0-5.943.601-9.036 1.805l-16.735 44.215z" transform="translate(-22 -64) scale(-1 1) rotate(-19 175.688 1775.699) translate(.389 22.311) translate(.194 19.053)"/>
                    <path fill="#F0A57E" d="M363.769 98.777c0 1.351 8.084-4.657 14.746-10.97-1.263-13.895 6.07-31.962 6.07-34.494-1.989.441-3.349.858-4.081 1.249l-16.735 44.215z" transform="translate(-22 -64) scale(-1 1) rotate(-19 175.688 1775.699) translate(.389 22.311) translate(.194 19.053)"/>
                    <path fill="#FAB08A" d="M320.095 9.208C327.17 3.256 332.435.28 335.888.28c5.179 0 8.54 1.578 11.075 5.775 1.69 2.798 1.347 7.174-1.03 13.129l-25.838-9.976z" transform="translate(-22 -64) scale(-1 1) rotate(-19 175.688 1775.699) translate(.389 22.311) translate(.194 19.053)"/>
                    <path fill="#F0A57E" d="M320.095 9.208c2.938-2.369 5.046-3.989 6.324-4.86 5.777 2.133 15.477 5.812 21.29 9.019-.219 1.156-.811 3.095-1.777 5.817l-25.837-9.976z" transform="translate(-22 -64) scale(-1 1) rotate(-19 175.688 1775.699) translate(.389 22.311) translate(.194 19.053)"/>
                </g>
                <g>
                    <path fill="#066360" d="M100.864 1.222l125.89 43.077c5.656 1.935 8.714 8.02 6.938 13.69l-.105.319-86.271 248.987c-1.984 5.724-8.223 8.767-13.955 6.806L7.47 271.024c-5.656-1.935-8.714-8.02-6.938-13.69l.105-.32L86.91 8.029c1.984-5.725 8.223-8.768 13.955-6.806z" transform="translate(-22 -64) scale(-1 1) rotate(-19 175.688 1775.699) translate(.389 22.311) rotate(2 72.684 4531.17)"/>
                    <path fill="#00A7A7" fill-rule="nonzero" d="M221.735 46.702L103.018 6.074c-6.26-2.143-13.072 1.186-15.23 7.44L4.73 254.338c-2.146 6.272 1.197 13.095 7.468 15.24l118.716 40.628c6.26 2.143 13.073-1.186 15.23-7.44l83.058-240.823c2.147-6.272-1.197-13.095-7.467-15.24zm-.324.946c5.657 1.936 8.715 8.023 6.936 13.695l-.099.299-83.05 240.796c-1.977 5.734-8.222 8.785-13.96 6.821L12.522 268.631c-5.657-1.936-8.715-8.023-6.936-13.695l.098-.299 83.05-240.796c1.977-5.734 8.222-8.785 13.96-6.821l118.717 40.628z" transform="translate(-22 -64) scale(-1 1) rotate(-19 175.688 1775.699) translate(.389 22.311) rotate(2 72.684 4531.17)"/>
                    <path fill="#F3FAFF" d="M94.203 25.905L215.29 67.323c1.568.536 2.404 2.241 1.868 3.81l-.004.01-77.875 224.831c-.54 1.562-2.242 2.392-3.805 1.857L14.387 256.413c-1.568-.536-2.404-2.241-1.868-3.809l.004-.011L90.398 27.762c.54-1.562 2.242-2.392 3.805-1.857z" transform="translate(-22 -64) scale(-1 1) rotate(-19 175.688 1775.699) translate(.389 22.311) rotate(2 72.684 4531.17)"/>
                    <path fill="#00A7A7" d="M150.318 31.112l21.403 7.323c1.611.552 2.47 2.304 1.919 3.915l-.004.012c-.56 1.616-2.322 2.476-3.941 1.922l-21.403-7.324c-1.611-.551-2.47-2.304-1.919-3.915l.004-.011c.56-1.617 2.322-2.476 3.941-1.922z" transform="translate(-22 -64) scale(-1 1) rotate(-19 175.688 1775.699) translate(.389 22.311) rotate(2 72.684 4531.17)"/>
                </g>
                <path fill="#FEC3A4" d="M158.65 232.4c0-2.098 18.255-15.797 25.585-29.755 4.887-9.306 8.104-26.3 9.65-50.985l23.245-24.996c20.976-6.493 33.161-11.693 36.555-15.6 5.092-5.862 8.518-16.989 1.72-21.401-6.796-4.412-30.918 5.935-50.23 6.225-25.773 14.124-34.878 18.947-60.065 37.772-16.854 23.449-32.28 49.498-46.275 78.147 39.877 15.126 59.816 21.99 59.816 20.592z" transform="translate(-22 -64) scale(-1 1) rotate(-19 175.688 1775.699) translate(.389 22.311)"/>
            </g>
            <g transform="translate(-22 -64) scale(-1 1) rotate(-19 175.688 1775.699) translate(370.6 .602)"/>
        </g>
        <g fill-rule="nonzero">
            <path fill="#2F9191" d="M21.871 6.474C17.408 4.692 5.38 10.295 3.358 14.773c-1.487 3.296 2.135 6.76 8.096 10.178 5.432 3.115 10.492 4.734 13.145 3.279 5.179-2.84 2.51-19.665-2.728-21.756zm.445 17.651c-.587.322-4.64-.974-8.563-3.224-2.032-1.165-3.817-2.435-4.967-3.534l-.188-.184c-.3-.302-.533-.572-.691-.796l-.028-.042.047-.056c.837-.98 3.05-2.498 5.653-3.71 3.011-1.402 5.855-2.06 6.593-1.765 1.738.694 3.573 12.09 2.218 13.26l-.074.051z" transform="translate(-22 -64) translate(339 125)"/>
            <path fill="#FFD052" d="M26.43 7.013c-4.16-1.66-15.869 3.794-17.767 8-1.288 2.854 2.196 6.187 7.85 9.428 5.243 3.007 10.176 4.585 12.571 3.272 4.719-2.588 2.15-18.782-2.654-20.7zm1.403 10.43c.592 3.733.223 6.816-.46 7.192-.846.463-5.024-.873-9.137-3.231-2.07-1.188-3.893-2.484-5.081-3.62-.565-.54-.956-1.017-1.147-1.374l-.052-.105.073-.118c1.716-2.619 10.88-6.815 13.127-5.919.743.297 2.093 3.493 2.677 7.175z" transform="translate(-22 -64) translate(339 125)"/>
        </g>
        <g fill-rule="nonzero">
            <path fill="#2F9191" d="M21.646 24.986c4.606-.509 12.655-11.078 12.356-15.809-.205-3.25-5-4.58-11.747-4.779l-.758-.017c-5.9-.087-10.8.883-12.294 3.138-3.08 4.647 7.103 18.057 12.443 17.467zm-6.281-8.808c-2.32-3.057-3.46-5.987-3.037-6.626.537-.81 4.977-1.616 9.842-1.472 2.453.072 4.734.362 6.358.813.769.213 1.348.451 1.688.677l.063.045-.003.06c-.244 3.124-6.603 11.378-9.071 11.65-.796.089-3.548-2.128-5.84-5.147z" transform="translate(-22 -64) translate(422.167 151)"/>
            <path fill="#E23D3D" d="M17.29 27.302c4.607-.509 12.656-11.078 12.357-15.809-.205-3.25-5-4.58-11.747-4.78l-.759-.016c-5.9-.087-10.8.883-12.293 3.138-3.08 4.646 7.103 18.057 12.442 17.467zm-6.28-8.809c-2.32-3.056-3.46-5.986-3.037-6.625.536-.81 4.977-1.616 9.842-1.472 2.453.072 4.733.362 6.358.813.768.213 1.348.451 1.688.677l.063.044-.003.06c-.244 3.125-6.603 11.379-9.072 11.651-.795.088-3.547-2.129-5.84-5.148z" transform="translate(-22 -64) translate(422.167 151)"/>
        </g>
        <g fill-rule="nonzero">
            <path fill="#2F9191" d="M9.349 6.033c1.29-.214 2.513.642 2.73 1.913.218 1.27-.652 2.475-1.943 2.689-3.558.59-5.79 3.207-5.544 5.735.255 2.607 3.126 4.46 8.732 4.2l.395-.022c8.02-.503 14.104 1.869 16.778 6.337 2.643 4.416 1.279 9.838-3.324 13.58-1.01.821-2.503.681-3.337-.313-.833-.993-.69-2.464.318-3.284 6.398-5.202 2.263-12.282-9.743-11.685l-.39.022C5.84 25.72.412 22.32-.126 16.817c-.494-5.06 3.55-9.802 9.475-10.784z" transform="translate(-22 -64) translate(382.167 201)"/>
            <path fill="#BD10E0" d="M10.349.033c1.29-.214 2.513.642 2.73 1.913.218 1.27-.652 2.475-1.943 2.689-3.558.59-5.79 3.207-5.544 5.735.255 2.607 3.126 4.46 8.732 4.2l.395-.022c8.02-.503 14.104 1.869 16.778 6.337 2.643 4.416 1.279 9.838-3.324 13.58-1.01.821-2.503.681-3.337-.313-.833-.993-.69-2.464.318-3.284 6.398-5.202 2.263-12.282-9.743-11.685l-.39.022C6.84 19.72 1.412 16.32.874 10.817.38 5.757 4.424 1.015 10.35.033z" transform="translate(-22 -64) translate(382.167 201)"/>
        </g>
        <g>
            <g>
                <path fill="#59C09C" d="M0 8.5L19.038 22 19.161 125.575 0 113.479z" transform="translate(-22 -64) translate(213 169) matrix(-1 0 0 1 91 0)"/>
                <path fill="#B0D5C8" d="M19 22L35.129 11.836 35.129 115.538 19.161 125.575z" transform="translate(-22 -64) translate(213 169) matrix(-1 0 0 1 91 0)"/>
                <path fill="#7AD9B8" d="M0 8.75L16.319 0 35 12 19 22z" transform="translate(-22 -64) translate(213 169) matrix(-1 0 0 1 91 0)"/>
                <path fill="#59C09C" d="M27.871 76.5L46.909 90 47.032 143.575 27.871 131.479z" transform="translate(-22 -64) translate(213 169) matrix(-1 0 0 1 91 0)"/>
                <path fill="#B0D5C8" d="M46.871 90L63 79.836 63 133.538 47.032 143.575z" transform="translate(-22 -64) translate(213 169) matrix(-1 0 0 1 91 0)"/>
                <path fill="#7AD9B8" d="M27.871 76.75L44.19 68 62.871 80 46.871 90z" transform="translate(-22 -64) translate(213 169) matrix(-1 0 0 1 91 0)"/>
                <path fill="#59C09C" d="M55.871 124.5L74.909 138 75.032 161.575 55.871 149.479z" transform="translate(-22 -64) translate(213 169) matrix(-1 0 0 1 91 0)"/>
                <path fill="#B0D5C8" d="M74.871 138L91 127.836 91 151.538 75.032 161.575z" transform="translate(-22 -64) translate(213 169) matrix(-1 0 0 1 91 0)"/>
                <path fill="#7AD9B8" d="M55.871 124.75L72.19 116 90.871 128 74.871 138z" transform="translate(-22 -64) translate(213 169) matrix(-1 0 0 1 91 0)"/>
            </g>
            <path fill="#FF872F" fill-rule="nonzero" d="M73.872 5.135c-.875-.369-1.861.043-2.27.92l-.057.136-27.414 72.56-28.826 45.302c-.524.824-.354 1.926.369 2.534l.118.091c.78.554 1.823.373 2.399-.39l.087-.125L47.21 80.695c.047-.074.089-.151.126-.231l.05-.123L74.873 7.593c.367-.97-.081-2.07-1-2.458z" transform="translate(-22 -64) translate(213 169)"/>
        </g>
        <g>
            <path fill="#00A7A7" d="M9.414 44.189c-1.82 3.7 1.429 10.517 28.807 9.752C51.58 53.567 63.06 39.58 50.76 37.306c-5.79-1.07-8.762.74-17.64 4.327-6.096 2.464-17.894-9.255-23.706 2.556z" transform="translate(-22 -64) translate(172 386)"/>
            <g>
                <g transform="translate(-22 -64) translate(172 386) rotate(-118 29.824 25.484) translate(0 32.075)">
                    <mask id="prefix__e" fill="#fff">
                        <use xlink:href="#prefix__d"/>
                    </mask>
                    <path fill="#DD6400" d="M9.42.22C8.8.213 7.87.498 7.355.854L.363 5.701c-.515.357-.478.874.082 1.15l21.91 10.8c.56.275 1.438.207 1.95-.153l18.92-13.272c.513-.36.453-.827-.133-1.037L36.864.947c-.586-.21-1.573-.39-2.195-.398L9.42.22z" mask="url(#prefix__e)"/>
                </g>
                <g transform="translate(-22 -64) translate(172 386) rotate(-118 29.824 25.484) translate(7.613)">
                    <mask id="prefix__g" fill="#fff">
                        <use xlink:href="#prefix__f"/>
                    </mask>
                    <g mask="url(#prefix__g)">
                        <mask id="prefix__i" fill="#fff">
                            <use xlink:href="#prefix__h"/>
                        </mask>
                        <use fill="#FFF" xlink:href="#prefix__h"/>
                        <path fill="#FF7900" d="M15.186 22.77c-4.83 0-8.463-.292-10.953-1.2l-2.676 6.175c1.932.976 6.035 2.041 13.629 2.041 7.313 0 11.436-1.168 13.362-2.143l-2.67-6.03c-2.406.89-5.927 1.157-10.692 1.157M15.22 11.158c-2.298 0-4.32-.184-6.08-.466l-2.392 5.616c2.15.463 4.925.799 8.471.799 3.36 0 6.037-.341 8.138-.811l-2.42-5.555c-1.658.254-3.557.417-5.718.417" mask="url(#prefix__i)"/>
                    </g>
                </g>
            </g>
        </g>
        <g>
            <path fill="#00A7A7" d="M1.019 69.993c2.415 9.46 24.312 18.255 45.302 15.49 13.56-1.785 20.711-5.933 23.188-6.323 21.252-3.35 9.496-22.821-11.48-26.653-9.874-1.803-27.497-7.952-42.638-1.907C4.994 54.75-.583 63.72 1.019 69.993z" transform="translate(-22 -64) translate(91 332)"/>
            <g>
                <g transform="translate(-22 -64) translate(91 332) translate(2.747) translate(0 48.547)">
                    <mask id="prefix__k" fill="#fff">
                        <use xlink:href="#prefix__j"/>
                    </mask>
                    <path fill="#DD6400" d="M14.194.334c-.936-.012-2.336.42-3.111.959L.547 8.629c-.775.54-.72 1.323.124 1.74l33.014 16.345c.843.418 2.165.314 2.937-.23L65.13 6.396c.772-.544.681-1.25-.202-1.57l-9.383-3.392c-.883-.32-2.371-.59-3.307-.603L14.194.334z" mask="url(#prefix__k)"/>
                </g>
                <g transform="translate(-22 -64) translate(91 332) translate(2.747) translate(11.47)">
                    <mask id="prefix__m" fill="#fff">
                        <use xlink:href="#prefix__l"/>
                    </mask>
                    <g mask="url(#prefix__m)">
                        <mask id="prefix__o" fill="#fff">
                            <use xlink:href="#prefix__n"/>
                        </mask>
                        <use fill="#FFF" xlink:href="#prefix__n"/>
                        <path fill="#FF7900" d="M22.881 34.463c-7.278 0-12.75-.442-16.502-1.817l-4.033 9.347c2.911 1.476 9.092 3.09 20.535 3.09 11.019 0 17.231-1.77 20.133-3.245l-4.024-9.125c-3.624 1.346-8.929 1.75-16.109 1.75M22.931 16.889c-3.462 0-6.508-.28-9.158-.707l-3.606 8.5c3.239.702 7.422 1.21 12.764 1.21 5.062 0 9.096-.517 12.262-1.228l-3.646-8.407c-2.5.384-5.36.632-8.616.632" mask="url(#prefix__o)"/>
                    </g>
                </g>
            </g>
        </g>
        <g>
            <path fill="#FFA32C" d="M114.11 115.755c-2.41-9.73-13.26-10.747-20.545-16.17-2.363-1.758-5.861-7.814-6.552-7.353-3.37 2.248 1.263 12.39 4.196 14.814-1.049 2.343-1.083 4.91 2.548 7.942-1.773 3.961 4.98 9.816 20.26 17.564.297-10.252.328-15.851.094-16.797z" transform="translate(-22 -64) matrix(-1 0 0 1 323 115)"/>
            <g>
                <g>
                    <path fill="#FFA32C" d="M8.22 7.04c-1.6 1.407-2.478 2.678-2.633 3.812-.107.782-.27 2.503.485 2.75.351.116.498-1.4 1.007-1.483.37-.06 0 1.484.504 1.484.503 0 .352-1.313 1.07-3.463.718-2.15 1.7-3.585 1.448-4.08-.168-.33-.795-.003-1.88.98zM4.181.586c-.149 1.513-.202 2.443-.158 2.79.043.347.675 1.34 1.895 2.98.207.308.394.451.56.431.168-.02.137-.266-.091-.736-.979-1.663-1.485-2.628-1.519-2.897C4.835 2.886 4.856 2 4.931.495c-.113-.152-.253-.219-.42-.198-.167.02-.277.116-.33.289z" transform="translate(-22 -64) matrix(-1 0 0 1 323 115) translate(147.264 146.684) rotate(-15 11.74 1.475)"/>
                    <path fill="#FFA32C" d="M8.086.247c-.336 1.484-.503 2.401-.503 2.751 0 .35.503 1.412 1.51 3.185.168.33.336.495.504.495.168 0 .168-.248 0-.742C8.832 4.168 8.45 3.15 8.45 2.879c0-.27.131-1.148.393-2.632C8.748.082 8.617 0 8.449 0c-.167 0-.289.082-.363.247zM5.632 6.593c-1.59.69-2.7 1.454-3.333 2.292-.468.62-.69 2.912-.196 3.175.623.331 1.276-2.484 1.944-2.448.42.023-.65 1.926-.066 2.063.737.172 1.155-1.398 1.897-2.513.743-1.114 1.645-2.603 1.796-3.086.101-.322-.58-.15-2.042.517z" transform="translate(-22 -64) matrix(-1 0 0 1 323 115) translate(147.264 146.684) rotate(-15 11.74 1.475)"/>
                    <path fill="#2BC6C3" d="M6.044 1.979c.697.68 1.288 1.009 1.773.989.485-.02 1.405-1.01 2.76-2.968-.603.211-1.321.54-2.154.99-.832.448-1.625.777-2.38.989z" transform="translate(-22 -64) matrix(-1 0 0 1 323 115) translate(147.264 146.684) rotate(-15 11.74 1.475)"/>
                </g>
                <path fill="#1CBBB7" d="M2.892 5.116c.978.079 1.647.096 2.006.05.538-.067.784-.4.943-.637.106-.158.355-.543.747-1.154l-3.696 1.74z" transform="translate(-22 -64) matrix(-1 0 0 1 323 115) translate(147.264 146.684)"/>
            </g>
            <path fill="#24B8B5" d="M166.033 136.364c1.331-1.455 2.339-2.62 3.023-3.492.684-.873 1.548-2.097 2.591-3.672.144-.142.216-.354.216-.637 0-.283-.144-.496-.432-.637l-1.372-.756c-.355-.76-.69-1.227-1.003-1.4-.313-.172-.826-.172-1.537 0l-1.486-.817c-.432-.073-.72-.073-.863 0-.144.073-.288.285-.432.637-.68 1.91-1.09 3.387-1.228 4.427-.137 1.04-.137 2.657 0 4.85l2.523 1.497z" transform="translate(-22 -64) matrix(-1 0 0 1 323 115)"/>
            <g>
                <path fill="#03B5B5" d="M50.012 15.159c-.18-2.852-.9-4.476-2.159-4.872-1.258-.397-2.97.076-5.137 1.418l7.296 3.454zM26.906 8.027c-.657-2.294-1.64-3.44-2.95-3.44-1.31 0-2.53.797-3.663 2.392l6.613 1.048z" transform="translate(-22 -64) matrix(-1 0 0 1 323 115) translate(104.6 84)"/>
                <g transform="translate(-22 -64) matrix(-1 0 0 1 323 115) translate(104.6 84) translate(4.712 6.98)">
                    <ellipse cx="26.907" cy="39.31" fill="#24B8B5" rx="21.476" ry="21.509"/>
                    <path fill="#24B8B5" d="M44.06 30.462c2.038-1.293 3.347 1.593 3.927 8.656l9.178 6.482c-6.357 10.585-13.106 16.118-20.247 16.6-7.141.48-13.687-.722-19.638-3.607 9.655-13.555 18.582-22.932 26.78-28.13z"/>
                    <g>
                        <use fill="#00BCBC" xlink:href="#prefix__p"/>
                    </g>
                </g>
                <path fill="#F2FEFE" d="M16.296 40.898c6.52 2.85 14.478 3.723 20.18 1.146 5.7-2.576 8.646-5.812 10.321-13.674 1.676-7.861-.742-10.365-3.462-12.339-2.72-1.973-7.172-2.846-9.15-2.846-3.648 0-6.863 1.937-9.645 5.811 1.259-4.327.764-7.04-1.484-8.14-3.373-1.65-7.105-1.011-9.603.638-2.499 1.649-5.958 9.337-6.534 11.248-.577 1.911.035 13.005 9.377 18.156z" transform="translate(-22 -64) matrix(-1 0 0 1 323 115) translate(104.6 84)"/>
                <g>
                    <path fill="#FFA32C" d="M4.848.071C3.706-.33 1.136 1.05.314 2.06c-.129.157-.239.543-.27.667-.226.923.385 6.168 2.362 7.091 1.7.795 5.078-2.554 6.048-3.815.079-.103-2.062-5.387-3.606-5.93z" transform="translate(-22 -64) matrix(-1 0 0 1 323 115) translate(104.6 84) translate(17.011 25.326)"/>
                    <path fill="#E38D1D" d="M.497 3.478C.97 5.692 1.514 6.957 2.13 7.274c.17.088 1.156.303 2.822.085.557-.073 1.56-.314 3.008-.723-3.091.115-4.918-.003-5.48-.355-.281-.176-.627-.238-.96-.707-.22-.311-.561-1.01-1.022-2.096z" transform="translate(-22 -64) matrix(-1 0 0 1 323 115) translate(104.6 84) translate(17.011 25.326)"/>
                </g>
            </g>
            <path d="M15.487 84.95c8.537 2.713 15.377-4.31 22.23-4.31 14.98 0 8.537 15.491 28.994 22.035 3.176 1.016 25.99 6.527 44.852-1.79C136.608 89.842 157.007 71.07 160.3 66.66c8.312-11.141 28.373-44.114 5.799-44.114-16.43 0-4.672-5.905-17.88-7.182-13.209-1.276-15.621-6.482-30.645-13.142-9.569-4.241-46.854-1.953-71.158 11.546-13.877 7.708-16.89 23.38-24.807 32.718-13.81 16.29-16.268 35.24-6.12 38.464z" transform="translate(-22 -64) matrix(-1 0 0 1 323 115)"/>
            <g transform="translate(-22 -64) matrix(-1 0 0 1 323 115) translate(118.052 102.347)">
                <mask id="prefix__r" fill="#fff">
                    <use xlink:href="#prefix__q"/>
                </mask>
                <use fill="#0F5553" xlink:href="#prefix__q"/>
                <path fill="#F1F1F1" d="M.51 2.897c1.054-.04 2.504-.678 2.541-1.604C3.088.366 1.7-.497.646-.457c-1.054.04-1.938.824-1.975 1.75-.037.927.786 1.645 1.84 1.604z" mask="url(#prefix__r)" transform="rotate(30 .86 1.22)"/>
            </g>
            <g transform="translate(-22 -64) matrix(-1 0 0 1 323 115) translate(134.195 109.609)">
                <mask id="prefix__t" fill="#fff">
                    <use xlink:href="#prefix__s"/>
                </mask>
                <use fill="#0F5553" xlink:href="#prefix__s"/>
                <path fill="#F1F1F1" d="M.51 2.897c1.054-.04 2.504-.678 2.541-1.604C3.088.366 1.7-.497.646-.457c-1.054.04-1.938.824-1.975 1.75-.037.927.786 1.645 1.84 1.604z" mask="url(#prefix__t)" transform="rotate(30 .86 1.22)"/>
            </g>
            <path fill="#008181" d="M152.964 120.187c8.264-3.44 16.308 1.566 26.137.573 3.188-.322 6.392-2.054 8.84-1.338 3.895 1.14-6.726 16.245-17.68 18.347-11.46 2.2-22.697-.016-24.792-4.395-2.422-5.064 2.664-11.176 7.495-13.187z" transform="translate(-22 -64) matrix(-1 0 0 1 323 115)"/>
        </g>
    </g>
</svg>
