<svg xmlns="http://www.w3.org/2000/svg" width="58" height="60" viewBox="0 0 58 60">
    <defs>
        <filter id="a" width="236.2%" height="255.5%" x="-67.5%" y="-77.1%" filterUnits="objectBoundingBox">
            <feOffset dx="-5" dy="-1" in="SourceAlpha" result="shadowOffsetOuter1"/>
            <feGaussianBlur in="shadowOffsetOuter1" result="shadowBlurOuter1" stdDeviation="1.5"/>
            <feColorMatrix in="shadowBlurOuter1" result="shadowMatrixOuter1" values="0 0 0 0 0 0 0 0 0 0 0 0 0 0 0 0 0 0 0.134915865 0"/>
            <feMerge>
                <feMergeNode in="shadowMatrixOuter1"/>
                <feMergeNode in="SourceGraphic"/>
            </feMerge>
        </filter>
    </defs>
    <g fill="none" fill-rule="evenodd">
        <g filter="url(#a)" transform="rotate(-168 28.15 26.265)">
            <g fill="#FEDD00">
                <path d="M4.583 10.841l9.732-3.556c.854.339 1.537.678 2.05 1.016.511.339.938.678 1.28 1.016L6.12 13.89c-.342-.17-.683-.508-1.025-1.016-.341-.508-.512-1.186-.512-2.033zM7.144 14.398l11.013-4.573c.254.224.425.393.512.508.087.115.172.285.256.508L8.17 15.414a1.354 1.354 0 0 1-.513-.254c-.152-.122-.323-.376-.512-.762z"/>
            </g>
            <path fill="#F1A11F" d="M9.697 16.147c5.181 1.375 10.807.869 11.757-2.642.343-1.27.881-3.426.255-5.063-1.105-2.89-4.306-5.227-7.667-5.821-7.156-1.266-9.2 1.012-10.223 2.025-.835.826-.991 1.976-1.278 3.037-.95 3.51 1.975 7.09 7.156 8.464z"/>
            <path fill="#FEE600" d="M9.697 18.061c5.181 1.375 10.587-.594 11.537-4.104.95-3.511-2.48-7.472-7.661-8.847C8.392 3.735 2.98 5.438 2.03 8.95c-.95 3.51 2.486 7.737 7.667 9.112z"/>
            <path fill="#EFA71F" d="M10.04 16.84c4.41 1.2 8.964-.26 9.988-3.642 1.024-3.381-1.793-6.242-6.402-7.543-4.61-1.3-9.167.01-9.988 3.121-.82 3.111 1.993 6.864 6.402 8.064z"/>
            <path fill="#FDC010" d="M10.717 16.48c5.121 1.041 8.45-1.04 9.219-3.64.768-2.602-1.722-5.891-6.31-7.185-4.589-1.293-8.768-.269-9.568 2.762-.8 3.031 1.537 7.023 6.659 8.064z"/>
            <g fill="#FEDD00">
                <path d="M4.583 10.841l9.732-3.556c.854.339 1.537.678 2.05 1.016.511.339.938.678 1.28 1.016L6.12 13.89c-.342-.17-.683-.508-1.025-1.016-.341-.508-.512-1.186-.512-2.033zM7.144 14.398l11.013-4.573c.254.224.425.393.512.508.087.115.172.285.256.508L8.17 15.414a1.354 1.354 0 0 1-.513-.254c-.152-.122-.323-.376-.512-.762z"/>
            </g>
            <path fill="#FFF" d="M7.116 5.594c-.22.92-.48 1.512-.778 1.774-.298.262-.903.431-1.815.507.891.21 1.496.464 1.815.76.319.296.578.888.778 1.774.214-.885.473-1.476.778-1.774.304-.298.91-.55 1.815-.76-.88-.047-1.485-.216-1.815-.507-.33-.29-.59-.882-.778-1.774z"/>
        </g>
        <path fill="#FFB481" d="M51.81 47.006c-1.853 1.057-8.31 5.27-8.31 5.27.127-.21.202-.47.202-.788 0-1.033-1.504-1.59-3.229-1.89-1.325-.372-2.74-.434-4.34-1.53-1.856-1.268-3.844-.996-5.248-.568-1.508.46-10.505.284-11.626.322V55.7c.62.056 9.215-.05 10.196.358 1.722.717 6.382 2.318 9.575 2.318 2.628 0 11.572-6.15 14.56-8.778.786-.691 1.01-1.623.338-2.423-.537-.64-1.327-.62-2.118-.17z"/>
        <path fill="#E59768" d="M43.331 52.138a1.874 1.874 0 0 1-1.649.623l-5.752-.762a.537.537 0 0 0-.61.44.52.52 0 0 0 .461.58l5.752.762a2.93 2.93 0 0 0 2.755-1.168c.05-.07.113-.2.53-.945a.494.494 0 0 0 .062-.217c-.899.403-1.549.687-1.549.687"/>
        <path fill="#005960" d="M1.818 43.485l19.063.48-.157 15.749-18.87-.478C.664 57.763.078 56.14.096 54.37c.026-2.656 2.537-5.412 2.583-7.555.031-1.429-.256-2.539-.861-3.33z"/>
        <path fill="#FFF" d="M20.927 44.38l1.586-.032-.292 14.778-1.485-.023z"/>
        <g>
            <g fill="#FEDD00">
                <path d="M29.416 19.895l-.616 7.647c-.48.482-.908.847-1.285 1.096a6.2 6.2 0 0 1-1.052.574l.494-9.16c.214-.183.539-.317.975-.4.435-.085.93-.003 1.484.243zM26.315 20.6l-.34 8.812a2.983 2.983 0 0 1-.487.2 1.457 1.457 0 0 1-.41.026l.262-8.639c.089-.114.196-.206.321-.274.126-.068.343-.11.654-.126z"/>
            </g>
            <path fill="#F1A11F" d="M24.737 21.517c-2.355 2.94-3.643 6.7-1.686 8.302.707.58 1.922 1.535 3.14 1.595 2.151.107 4.55-1.29 5.89-3.282 2.85-4.241 1.99-6.199 1.64-7.142-.286-.77-.972-1.195-1.563-1.68-1.957-1.602-5.066-.734-7.421 2.207z"/>
            <path fill="#FEE600" d="M23.522 20.976c-2.355 2.94-2.652 6.971-.695 8.574 1.957 1.603 5.453.518 7.808-2.423 2.355-2.941 2.823-6.9.866-8.503-1.957-1.603-5.624-.589-7.979 2.352z"/>
            <path fill="#EFA71F" d="M24.173 21.585c-2.011 2.474-2.381 5.79-.534 7.395 1.848 1.605 4.457.614 6.588-1.96 2.131-2.574 2.596-5.85.862-7.248-1.734-1.4-4.905-.662-6.916 1.813z"/>
            <path fill="#FDC010" d="M24.207 22.117c-2.112 2.974-1.741 5.683-.315 6.905 1.427 1.222 4.214.56 6.335-2.002 2.12-2.562 2.66-5.516.97-6.88-1.69-1.363-4.877-.997-6.99 1.977z"/>
            <g fill="#FEDD00">
                <path d="M29.416 19.895l-.616 7.647c-.48.482-.908.847-1.285 1.096a6.2 6.2 0 0 1-1.052.574l.494-9.16c.214-.183.539-.317.975-.4.435-.085.93-.003 1.484.243zM26.315 20.6l-.34 8.812a2.983 2.983 0 0 1-.487.2 1.457 1.457 0 0 1-.41.026l.262-8.639c.089-.114.196-.206.321-.274.126-.068.343-.11.654-.126z"/>
            </g>
            <path fill="#FFF" d="M25.226 26.606c-.518-.403-.816-.738-.896-1.007-.079-.268-.01-.71.207-1.326-.392.522-.728.845-1.008.97-.28.124-.73.127-1.348.008.498.388.796.724.896 1.007.1.282.084.748-.046 1.398.285-.56.567-.908.847-1.041.28-.134.73-.137 1.348-.009z"/>
        </g>
        <g>
            <g fill="#FEDD00">
                <path d="M46.473 12.426l-5.534-2.98c-.234-.505-.395-.934-.484-1.287a5.108 5.108 0 0 1-.154-.946l6.693 3.396c.08.214.096.492.045.832-.05.341-.239.67-.566.985zM46.752 9.966l-6.474-3.17a2.379 2.379 0 0 1-.023-.415c.008-.082.037-.183.087-.303l6.365 3.055a.886.886 0 0 1 .121.322c.018.112-.007.283-.076.51z"/>
            </g>
            <path fill="#F1A11F" d="M46.403 8.594c-1.48-2.625-3.88-4.708-5.646-3.745-.639.348-1.706.957-2.112 1.839-.716 1.556-.393 3.749.685 5.337 2.294 3.383 3.999 3.337 4.8 3.362.655.02 1.174-.357 1.707-.648 1.766-.963 2.045-3.52.566-6.145z"/>
            <path fill="#FEE600" d="M47.163 7.86c-1.479-2.625-4.374-4.058-6.14-3.095-1.767.962-2 3.87-.52 6.495 1.478 2.625 4.27 4.163 6.037 3.2 1.766-.962 2.102-3.975.623-6.6z"/>
            <path fill="#EFA71F" d="M46.519 7.933c-1.256-2.258-3.628-3.55-5.378-2.666-1.75.883-1.781 3.13-.487 5.508 1.295 2.377 3.609 3.729 5.17 2.866 1.562-.862 1.95-3.451.695-5.708z"/>
            <path fill="#FDC010" d="M46.11 7.795c-1.6-2.485-3.737-3.04-5.075-2.353-1.339.688-1.67 2.967-.381 5.333s3.34 3.673 4.862 2.833c1.522-.84 2.194-3.327.594-5.813z"/>
            <g fill="#FEDD00">
                <path d="M46.473 12.426l-5.534-2.98c-.234-.505-.395-.934-.484-1.287a5.108 5.108 0 0 1-.154-.946l6.693 3.396c.08.214.096.492.045.832-.05.341-.239.67-.566.985zM46.752 9.966l-6.474-3.17a2.379 2.379 0 0 1-.023-.415c.008-.082.037-.183.087-.303l6.365 3.055a.886.886 0 0 1 .121.322c.018.112-.007.283-.076.51z"/>
            </g>
            <path fill="#FFF" d="M42.492 7.506c.434-.265.753-.393.958-.384.205.01.48.164.826.463-.228-.4-.34-.712-.336-.937.004-.225.143-.54.417-.943-.417.254-.736.382-.957.384-.221.001-.53-.121-.925-.369.288.334.432.615.434.843.003.227-.136.542-.417.943z"/>
        </g>
        <g fill="#FDC010">
            <path fill-rule="nonzero" d="M55.279 32.488l.364.599-1.376.817.827 1.36-.6.355-.827-1.36-1.376.817-.365-.599 1.377-.816-.827-1.36.6-.356.826 1.36zM56.36 3.51l-.388.583-1.322-.902-.883 1.324-.576-.393.883-1.324-1.322-.903.389-.583 1.322.902.882-1.324.576.393-.882 1.324zM14.88 20.176l-.39.584-1.322-.903-.882 1.324-.576-.393.882-1.324-1.322-.902.39-.583 1.321.902.883-1.324.576.393-.883 1.324z"/>
            <path d="M25 14.148l-1.415.577.112-1.524-.987-1.167 1.485-.364.805-1.3.805 1.3 1.485.364-.987 1.167.112 1.524zM37.963 33.037l-1.415.577.112-1.524-.987-1.167 1.485-.365.805-1.299.805 1.3 1.485.364-.987 1.167.112 1.524zM50.926 23.407l-1.415.578.112-1.525-.987-1.167 1.485-.364.805-1.3.805 1.3 1.485.364-.987 1.167.112 1.525z"/>
        </g>
    </g>
</svg>
