<svg xmlns="http://www.w3.org/2000/svg" xmlns:xlink="http://www.w3.org/1999/xlink" width="337" height="105" viewBox="0 0 337 105">
    <defs>
        <path id="ggjel8qn8a" d="M331 0c3.314 0 6 2.686 6 6v93c0 3.314-2.686 6-6 6H6c-3.314 0-6-2.686-6-6v-4c2.21 0 4-1.79 4-4s-1.79-4-4-4v-5c2.21 0 4-1.79 4-4s-1.79-4-4-4v-5c2.21 0 4-1.79 4-4s-1.79-4-4-4v-5c2.21 0 4-1.79 4-4s-1.79-4-4-4v-5c2.21 0 4-1.79 4-4s-1.79-4-4-4v-5c2.21 0 4-1.79 4-4s-1.79-4-4-4v-5c2.21 0 4-1.79 4-4S2.21 9 0 9V6c0-3.314 2.686-6 6-6h325z"/>
    </defs>
    <g fill="none" fill-rule="evenodd">
        <g>
            <use fill="#FFF" xlink:href="#ggjel8qn8a"/>
        </g>
    </g>
</svg>
