<svg xmlns="http://www.w3.org/2000/svg" xmlns:xlink="http://www.w3.org/1999/xlink" width="70" height="70" viewBox="0 0 70 70">
    <defs>
        <linearGradient id="zaip4b4pwb" x1="50%" x2="50%" y1="0%" y2="100%">
            <stop offset="0%" stop-color="#B062C8"/>
            <stop offset="51.393%" stop-color="#17B1C8"/>
            <stop offset="100%" stop-color="#4951A6"/>
        </linearGradient>
        <linearGradient id="i39kgeo2gd" x1="50%" x2="50%" y1="0%" y2="100%">
            <stop offset="0%" stop-color="#B062C8"/>
            <stop offset="51.393%" stop-color="#17B1C8"/>
            <stop offset="100%" stop-color="#4951A6"/>
        </linearGradient>
        <linearGradient id="tvbwhwf1ae" x1="50%" x2="50%" y1="0%" y2="100%">
            <stop offset="0%" stop-color="#B062C8"/>
            <stop offset="51.393%" stop-color="#17B1C8"/>
            <stop offset="100%" stop-color="#4951A6"/>
        </linearGradient>
        <linearGradient id="xksko8t0mf" x1="50%" x2="50%" y1="0%" y2="100%">
            <stop offset="0%" stop-color="#B062C8"/>
            <stop offset="51.393%" stop-color="#17B1C8"/>
            <stop offset="100%" stop-color="#4951A6"/>
        </linearGradient>
        <path id="1wo2u2r2ia" d="M0 0.013L68 0.013 68 68 0 68z"/>
        <path id="wktgkzdumi" d="M0 0L38.298 0 38.298 49.065 0 49.065z"/>
        <ellipse id="mdhbiv767g" cx="27.016" cy="26.646" rx="27.016" ry="26.42"/>
    </defs>
    <g fill="none" fill-rule="evenodd">
        <g>
            <g>
                <g>
                    <g>
                        <g>
                            <g transform="translate(-36 -318) translate(20 268) translate(0 31) translate(5 8) translate(11 11)">
                                <mask id="2q2z5chuuc" fill="#fff">
                                    <use xlink:href="#1wo2u2r2ia"/>
                                </mask>
                                <path fill="url(#zaip4b4pwb)" d="M65.832 42.54c-2.279 8.506-7.732 15.615-15.355 20.02C34.74 71.65 14.546 66.236 5.46 50.492 1.06 42.865-.11 33.98 2.168 25.474c2.278-8.507 7.731-15.617 15.354-20.02C25.145 1.051 34.024-.118 42.53 2.161c8.502 2.279 15.608 7.734 20.011 15.36 4.4 7.628 5.57 16.513 3.291 25.02m-2.4-25.535C54.062.771 33.237-4.813 17.007 4.562 9.147 9.102 3.522 16.434 1.172 25.206-1.177 33.98.03 43.142 4.568 51.007 10.856 61.903 22.302 68 34.058 68c5.76 0 11.595-1.465 16.934-4.549 7.862-4.54 13.486-11.873 15.835-20.644 2.35-8.773 1.143-17.935-3.395-25.8" mask="url(#2q2z5chuuc)"/>
                            </g>
                            <path fill="url(#i39kgeo2gd)" d="M52.626 31.809l-2.713-4.75c-.302-.528-.635-1.044-.99-1.53-1.344-1.845-2.344-3.97-2.97-6.315-.12-.442-.254-.894-.403-1.357-.234-.732-.85-1.239-1.61-1.322-.775-.086-1.502.287-1.9.97-.272.472-.564.945-.872 1.394-.275.401-.768.588-1.24.461-4.365-1.183-8.938-.567-12.873 1.73-3.934 2.296-6.746 5.991-7.919 10.404-.124.472-.533.815-1.015.856-.536.043-1.087.063-1.627.066-.783.005-1.465.456-1.78 1.178-.309.707-.183 1.5.327 2.072.32.359.638.7.956 1.023 1.698 1.726 3.017 3.663 3.92 5.757.241.558.518 1.111.822 1.644l2.904 5.084-.13-.042c-.424 1.301-.718 3.002-.876 5.056-.104 1.358-.117 2.557-.056 3.614-4.948-2.138-9.257-5.816-12.125-10.837-3.474-6.084-4.343-13.203-2.448-20.045 1.895-6.848 6.332-12.598 12.491-16.193 6.159-3.596 13.305-4.605 20.116-2.84 6.81 1.762 12.472 6.082 15.946 12.166 1.002 1.754 1.768 3.582 2.324 5.447l-6.26 6.309zm5.782 10.127l-5.252-9.197 6.043-6.092c1.267 5.098.94 10.418-.79 15.289zM46.518 56.29c-3.555 2.075-7.38 3.24-11.205 3.57-3.99-2.1-7.398-5.28-9.718-9.343l-3.967-6.946c-.285-.5-.544-1.018-.77-1.54-.955-2.214-2.345-4.257-4.133-6.075-.307-.31-.612-.64-.922-.987-.24-.267-.295-.624-.15-.957.152-.347.468-.557.848-.559.564-.003 1.141-.024 1.704-.07.914-.075 1.687-.727 1.923-1.62 1.101-4.146 3.744-7.617 7.44-9.775 2.47-1.441 5.204-2.177 7.97-2.177 1.378 0 2.761.182 4.125.55.88.239 1.827-.111 2.349-.872.322-.471.63-.967.915-1.461.19-.33.526-.503.902-.462.356.038.635.267.745.61.143.446.273.883.388 1.309.66 2.47 1.714 4.71 3.134 6.658.334.457.646.94.93 1.434l8.907 15.6c-2.186 5.31-6.071 9.994-11.415 13.113zm-22.882 1.938c-.098-1.11-.093-2.434.024-3.96.121-1.57.326-2.906.604-4.007l.442.775c2.13 3.728 5.133 6.748 8.653 8.915-3.34.041-6.64-.547-9.723-1.723zM40.87 6.88c-7.076-1.832-14.491-.785-20.884 2.947C13.592 13.56 8.987 19.531 7.019 26.64c-1.97 7.114-1.064 14.516 2.548 20.844 3.083 5.398 7.763 9.304 13.125 11.491.014.11.024.234.04.34l.596-.1C26.41 60.382 29.698 61 33.033 61c4.745-.001 9.575-1.229 13.999-3.811 13.2-7.707 17.875-24.599 10.417-37.655-3.612-6.327-9.5-10.82-16.579-12.653z" transform="translate(-36 -318) translate(20 268) translate(0 31) translate(5 8) translate(11 11)"/>
                            <path fill="url(#tvbwhwf1ae)" d="M42.317 47.051c-5.05 2.93-8.807 3.632-11.822 2.21-2.81-1.326-4.734-4.38-6.618-7.662-1.79-3.116-.686-7.138 2.459-8.963 1.034-.6 2.183-.895 3.324-.895 1.502 0 2.99.51 4.18 1.508l1.064.891-.236-1.373c-.465-2.701.83-5.45 3.224-6.84 1.525-.885 3.296-1.13 4.987-.685 1.689.442 3.096 1.517 3.961 3.025 3.667 6.386 6.08 12.629-4.523 18.784m.82-22.802c-1.954-.51-3.996-.231-5.755.79-2.423 1.406-3.871 4.023-3.826 6.753-2.33-1.402-5.309-1.45-7.73-.044-3.632 2.107-4.902 6.757-2.833 10.363 1.97 3.427 3.991 6.627 7.069 8.08 1.143.537 2.367.809 3.699.809 2.569 0 5.533-1.01 9.066-3.062 11.409-6.623 8.675-13.603 4.896-20.184-1.003-1.748-2.632-2.992-4.586-3.505" transform="translate(-36 -318) translate(20 268) translate(0 31) translate(5 8) translate(11 11)"/>
                            <path fill="url(#xksko8t0mf)" d="M40.335 42.773c-.389.224-.845.224-1.216-.002l-2.898-1.745c-.126-.076-.189-.225-.154-.364l.84-3.362c.028-.111.108-.172.152-.198.034-.019.091-.044.165-.044.026 0 .054.003.085.01l3.33.955c.138.039.236.169.239.315l.063 3.382c.009.435-.218.829-.606 1.053m.596-5.767l-3.331-.954c-.36-.102-.747-.052-1.071.134-.323.187-.56.5-.649.86l-.84 3.36c-.146.583.114 1.212.635 1.526l2.898 1.744c.356.217.752.324 1.149.324.39 0 .782-.104 1.142-.311.727-.419 1.151-1.163 1.136-1.99l-.064-3.382c-.012-.605-.425-1.145-1.005-1.311" transform="translate(-36 -318) translate(20 268) translate(0 31) translate(5 8) translate(11 11)"/>
                            <path fill="#777FC8" d="M39.945 31.238c-.938.523-1.227 1.735-.644 2.709.582.972 1.814 1.337 2.754.814.938-.521 1.227-1.733.644-2.707-.581-.973-1.815-1.338-2.754-.816M29.946 37.238c-.94.524-1.228 1.735-.645 2.708.582.973 1.815 1.338 2.753.815.94-.522 1.228-1.734.645-2.707-.583-.974-1.816-1.338-2.753-.816" transform="translate(-36 -318) translate(20 268) translate(0 31) translate(5 8) translate(11 11)"/>
                        </g>
                        <g opacity=".132" transform="translate(-36 -318) translate(20 268) translate(0 31) translate(5 8)">
                            <circle cx="45.919" cy="46.294" r="33.222" stroke="#00BCBC" transform="rotate(-30 45.92 46.294)"/>
                            <g transform="rotate(-30 72.34 1.042)">
                                <mask id="asjqedw1yh" fill="#fff">
                                    <use xlink:href="#mdhbiv767g"/>
                                </mask>
                                <use stroke="#00BCBC" stroke-width="1.275" xlink:href="#mdhbiv767g"/>
                                <g mask="url(#asjqedw1yh)">
                                    <g transform="translate(10.39 13.58)">
                                        <mask id="unrbhfmmej" fill="#fff">
                                            <use xlink:href="#wktgkzdumi"/>
                                        </mask>
                                        <path stroke="#00BCBC" d="M33.331 46.452V15.961c0-.59-.033-1.17-.097-1.743-.265-2.365-.05-4.75.561-7.052.114-.428.219-.873.317-1.334.254-1.185-1.033-2.105-2.1-1.497-.479.273-.977.537-1.474.773-.633.3-1.384.167-1.876-.325C25.71 1.833 21.605 0 17.07 0 12.536 0 8.432 1.833 5.48 4.782c-.492.492-1.244.624-1.877.324-.496-.235-.992-.498-1.47-.77-1.067-.609-2.354.31-2.1 1.496.097.458.201.9.314 1.325.61 2.302.826 4.686.56 7.05-.065.576-.098 1.161-.098 1.754v7.902c0 10.043 6.125 18.704 14.898 22.59H4.043h34.255-4.967z" mask="url(#unrbhfmmej)"/>
                                    </g>
                                </g>
                                <path stroke="#00BCBC" d="M27.462 26.045c-.992-2.698-3.613-4.625-6.69-4.625-3.93 0-7.115 3.142-7.115 7.018 0 7.99.781 14.466 13.805 14.466 12.3 0 13.805-6.477 13.805-14.466 0-3.876-3.186-7.018-7.115-7.018-3.078 0-5.698 1.927-6.69 4.625z" mask="url(#asjqedw1yh)" opacity=".901"/>
                                <path stroke="#00BCBC" d="M28.967 37.135l1.58-2.861c.176-.32.124-.721-.127-.98l-2.326-2.407c-.32-.332-.862-.332-1.183 0l-2.326 2.407c-.25.259-.303.66-.126.98l1.58 2.86c.627 1.137 2.3 1.137 2.928 0" mask="url(#asjqedw1yh)"/>
                                <g fill="#00BCBC" mask="url(#asjqedw1yh)">
                                    <g transform="translate(19.485 27.622)">
                                        <ellipse cx="13.376" cy="1.882" rx="1.751" ry="1.882"/>
                                        <ellipse cx="2.044" cy="1.883" rx="1.752" ry="1.883"/>
                                    </g>
                                </g>
                                <path stroke="#00B0B0" d="M11.032 35.406c-.98.876-2.036 2.137-3.165 3.784-1.129 1.647-1.924 3.084-2.385 4.312" mask="url(#asjqedw1yh)"/>
                                <path stroke="#00B0B0" d="M53.398 35.406L43.823 32.856" mask="url(#asjqedw1yh)" transform="matrix(-1 0 0 1 97.221 0)"/>
                            </g>
                        </g>
                    </g>
                </g>
            </g>
        </g>
    </g>
</svg>
