<?xml version="1.0" encoding="UTF-8"?>
<svg width="300px" height="70px" viewBox="0 0 300 70" version="1.1" xmlns="http://www.w3.org/2000/svg" xmlns:xlink="http://www.w3.org/1999/xlink">
    <!-- Generator: sketchtool 51.2 (57519) - http://www.bohemiancoding.com/sketch -->
    <title>0F60559C-F619-425A-BD2A-88F03F52422F</title>
    <desc>Created with sketchtool.</desc>
    <defs>
        <polygon id="path-1" points="0 0.455948642 44.9539964 0.455948642 44.9539964 58.5798713 0 58.5798713"></polygon>
        <polygon id="path-3" points="0 69.3239684 300.895522 69.3239684 300.895522 0 0 0"></polygon>
    </defs>
    <g id="Latest" stroke="none" stroke-width="1" fill="none" fill-rule="evenodd">
        <g id="Homepage-with-pop-up-box-(new)" transform="translate(-361.000000, -218.000000)">
            <g id="Group-5" transform="translate(361.000000, 218.000000)">
                <g id="Group-22">
                    <g id="Group-3">
                        <mask id="mask-2" fill="white">
                            <use xlink:href="#path-1"></use>
                        </mask>
                        <g id="Clip-2"></g>
                        <path d="M39.1236052,55.6400683 L39.1236052,19.4175712 C39.1236052,18.7175158 39.0852367,18.0265869 39.0095805,17.3463951 C38.6988497,14.5370471 38.9512172,11.7040776 39.6688703,8.96935211 C39.8023495,8.46041614 39.9244802,7.93269035 40.0401261,7.38456417 C40.3378873,5.97640064 38.8274653,4.88390625 37.5753551,5.60650942 C37.0133376,5.93023135 36.4291637,6.24428993 35.8449897,6.52398997 C35.1024781,6.87992303 34.220543,6.72316216 33.6423134,6.13853003 C30.1777998,2.6344952 25.3595805,0.455948642 20.0371668,0.455948642 C14.7142126,0.455948642 9.89707411,2.63395834 6.43256047,6.13745633 C5.85433093,6.72155161 4.97239578,6.87777562 4.2298842,6.52237941 C3.64733145,6.24321623 3.06369789,5.92969449 2.5033016,5.60650942 C1.25065106,4.88390625 -0.259770973,5.97640064 0.0379902213,7.38456417 C0.153095728,7.92839553 0.274145651,8.45290021 0.406544004,8.95807821 C1.12365672,11.6928037 1.37710499,14.5252364 1.06421256,17.3340475 C0.988556356,18.0179973 0.949107051,18.713221 0.949107051,19.4175712 L0.949107051,28.8038965 C0.949107051,40.7359752 8.13860782,51.0247492 18.4359573,55.6400683 L4.74542717,55.6400683 L4.74542717,58.5798713 L44.9539964,58.5798713 L44.9539964,55.6400683 L39.1236052,55.6400683 Z" id="Fill-1" fill="#00A7A7" mask="url(#mask-2)"></path>
                    </g>
                    <path d="M27.9592398,10.2702175 C24.3448525,10.2702175 21.2677317,12.5741687 20.1029336,15.798398 C18.9381355,12.5741687 15.8604742,10.2702175 12.2466274,10.2702175 C7.63175692,10.2702175 3.89089038,14.0256687 3.89089038,18.6579887 C3.89089038,28.2058747 4.80867558,35.9457614 20.1029336,35.9457614 C34.5475106,35.9457614 36.3149768,28.2058747 36.3149768,18.6579887 C36.3149768,14.0256687 32.5741103,10.2702175 27.9592398,10.2702175" id="Fill-4" fill="#FFFFFF"></path>
                    <path d="M23.2383508,25.6340306 C23.4197902,25.3001887 23.3667002,24.8795596 23.1076677,24.6070474 L20.7122007,22.0850081 C20.3819926,21.7372803 19.8236726,21.7372803 19.4934645,22.0850081 L17.0985808,24.6070474 C16.8395483,24.8795596 16.7858749,25.3001887 16.9673144,25.6340306 L18.5950185,28.6334001 C19.2414329,29.8247005 20.9648157,29.8247005 21.6106467,28.6334001 L23.2383508,25.6340306 Z" id="Fill-6" fill="#FF9C39"></path>
                    <path d="M32.5576946,41.5741663 C31.9250635,46.3604164 33.5530418,51.0161964 37.1439874,54.6839765 L38.9089038,56.4861965 L38.9089038,30.8106526 C35.3496463,33.6035792 33.1139347,37.3660991 32.5576946,41.5741663" id="Fill-8" fill="#FF9C39"></path>
                    <mask id="mask-4" fill="white">
                        <use xlink:href="#path-3"></use>
                    </mask>
                    <g id="Clip-11"></g>
                    <polygon id="Fill-10" fill="#066360" mask="url(#mask-4)" points="5.18785383 60.337528 45.393721 60.337528 45.393721 56.4861965 5.18785383 56.4861965"></polygon>
                    <polygon id="Fill-12" fill="#00A7A7" mask="url(#mask-4)" points="92.0844056 23.1079895 92.0844056 60.337528 86.0738188 60.337528 86.0738188 33.798039 74.9413263 52.519473 74.2121661 52.5178278 63.0775178 33.7415534 63.0775178 60.337528 57.0663922 60.337528 57.0663922 23.1079895 63.547457 23.1079895 74.5834827 41.7186457 85.6502269 23.1079895"></polygon>
                    <path d="M103.867937,52.6495871 C105.41519,54.1874924 107.323593,54.9559165 109.593678,54.9559165 C111.863231,54.9559165 113.771634,54.1874924 115.318888,52.6495871 C116.866673,51.1122103 117.640566,49.1816371 117.640566,46.8578675 C117.640566,44.5351549 116.866673,42.6040532 115.318888,41.0661479 C113.771634,39.5287712 111.863231,38.7598185 109.593678,38.7598185 C107.323593,38.7598185 105.41519,39.5287712 103.867937,41.0661479 C102.320152,42.6040532 101.546791,44.5351549 101.546791,46.8578675 C101.546791,49.1816371 102.320152,51.1122103 103.867937,52.6495871 M109.593678,60.337528 C105.809849,60.337528 102.594604,59.0395571 99.9474127,56.4425583 C97.2986257,53.846088 95.9752959,50.6508387 95.9752959,46.8578675 C95.9752959,43.0648963 97.2986257,39.870704 99.9474127,37.2737052 C102.594604,34.6772349 105.809849,33.378207 109.593678,33.378207 C113.410485,33.378207 116.634771,34.6772349 119.264942,37.2737052 C121.896177,39.870704 123.211529,43.0648963 123.211529,46.8578675 C123.211529,50.6508387 121.896177,53.846088 119.264942,56.4425583 C116.634771,59.0395571 113.410485,60.337528 109.593678,60.337528" id="Fill-13" fill="#00A7A7" mask="url(#mask-4)"></path>
                    <path d="M141.89361,33.378207 C144.835189,33.378207 147.21226,34.3422204 149.025352,36.2686216 C150.837914,38.1955647 151.744725,40.8405055 151.744725,44.2039857 L151.744725,60.337528 L146.203341,60.337528 L146.203341,44.782177 C146.203341,42.8205533 145.690681,41.3135711 144.664302,40.262856 C143.637924,39.2115991 142.235384,38.6859707 140.456681,38.6859707 C138.50762,38.6859707 136.933664,39.3085965 135.736399,40.5511389 C134.539134,41.7953068 133.940766,43.6967813 133.940766,46.2533948 L133.940766,60.337528 L128.399382,60.337528 L128.399382,34.061524 L133.940766,34.061524 L133.940766,37.4244624 C135.616302,34.7275007 138.267427,33.378207 141.89361,33.378207" id="Fill-14" fill="#00A7A7" mask="url(#mask-4)"></path>
                    <path d="M161.558811,44.7053286 L177.107338,44.7053286 C176.718529,42.6214934 175.828577,41.0492363 174.436392,39.9896142 C173.043115,38.9310492 171.412628,38.4009739 169.544383,38.4009739 C167.429112,38.4009739 165.665568,38.9648725 164.255932,40.0921413 C162.845206,41.2199385 161.946529,42.7573153 161.558811,44.7053286 Z M161.611707,49.2154605 C162.03487,51.1629453 163.003892,52.6585714 164.520409,53.7002248 C166.035836,54.7429352 167.88663,55.2634976 170.073338,55.2634976 C173.105281,55.2634976 175.379239,54.2049326 176.895211,52.0856885 L181.602358,54.7508625 C178.993032,58.4756585 175.132212,60.337528 170.020442,60.337528 C165.718463,60.337528 162.246452,59.0649246 159.601681,56.5191893 C156.957455,53.974511 155.635615,50.7528373 155.635615,46.8578675 C155.635615,43.0316015 156.93946,39.8278964 159.548785,37.2478092 C162.158111,34.6682506 165.506882,33.378207 169.597279,33.378207 C173.475549,33.378207 176.657454,34.6941466 179.142993,37.3244402 C181.629078,39.9563194 182.871848,43.1510402 182.871848,46.909131 C182.871848,47.4904698 182.800412,48.2594224 182.659721,49.2154605 L161.611707,49.2154605 Z" id="Fill-15" fill="#00A7A7" mask="url(#mask-4)"></path>
                    <path d="M203.966561,33.378207 L210.10808,33.378207 L199.854777,60.8023459 C197.291451,67.6761914 192.946737,70.9352808 186.82394,70.5818063 L186.82394,65.2139265 C188.639469,65.3202429 190.09872,64.9388193 191.202795,64.0712998 C192.306319,63.2021362 193.214358,61.8474247 193.926913,60.0049733 L194.193433,59.4739395 L182.871848,33.378207 L189.17416,33.378207 L197.136164,52.6680488 L203.966561,33.378207 Z" id="Fill-16" fill="#00A7A7" mask="url(#mask-4)"></path>
                    <path d="M221.066979,50.6030807 C223.536015,53.1324179 226.584116,54.3965395 230.211281,54.3965395 C233.837378,54.3965395 236.884944,53.1324179 239.354515,50.6030807 C241.823552,48.0748375 243.059138,44.900585 243.059138,41.0808702 C243.059138,37.2611553 241.823552,34.0874498 239.354515,31.5586596 C236.884944,29.0304164 233.837378,27.7657478 230.211281,27.7657478 C226.584116,27.7657478 223.536015,29.0304164 221.066979,31.5586596 C218.597408,34.0874498 217.36289,37.2611553 217.36289,41.0808702 C217.36289,44.900585 218.597408,48.0748375 221.066979,50.6030807 M243.551663,54.7411507 C239.907404,58.4727983 235.460254,60.337528 230.211281,60.337528 C224.960706,60.337528 220.51409,58.4727983 216.870899,54.7411507 C213.226639,51.0100502 211.405044,46.4573527 211.405044,41.0808702 C211.405044,35.7054817 213.226639,31.1522371 216.870899,27.4205896 C220.51409,23.689489 224.960706,21.8242123 230.211281,21.8242123 C235.460254,21.8242123 239.907404,23.689489 243.551663,27.4205896 C247.194854,31.1522371 249.016984,35.7054817 249.016984,41.0808702 C249.016984,46.4573527 247.194854,51.0100502 243.551663,54.7411507" id="Fill-17" fill="#FF9C39" mask="url(#mask-4)"></path>
                    <polygon id="Fill-18" fill="#FF9C39" mask="url(#mask-4)" points="285.781919 33.378207 291.816778 33.378207 283.505201 59.0537509 277.894463 59.0537509 272.282633 41.5276016 266.671349 59.0537509 260.606468 59.0537509 252.907874 33.378207 258.95638 33.378207 264.078587 51.0955024 269.635832 33.378207 275.112838 33.378207 280.61659 51.0875601"></polygon>
                    <polygon id="Fill-19" fill="#FF9C39" mask="url(#mask-4)" points="294.410705 60.337528 299.598559 60.337528 299.598559 21.8242123 294.410705 21.8242123"></polygon>
                    <path d="M31.127123,17.9725851 C31.127123,19.3906956 29.9661713,20.5404351 28.5334947,20.5404351 C27.1008181,20.5404351 25.9392692,19.3906956 25.9392692,17.9725851 C25.9392692,16.5550658 27.1008181,15.4053263 28.5334947,15.4053263 C29.9661713,15.4053263 31.127123,16.5550658 31.127123,17.9725851" id="Fill-20" fill="#066360" mask="url(#mask-4)"></path>
                    <path d="M15.5635615,17.9725851 C15.5635615,19.3906956 14.4021463,20.5404351 12.9696346,20.5404351 C11.5371229,20.5404351 10.3757077,19.3906956 10.3757077,17.9725851 C10.3757077,16.5550658 11.5371229,15.4053263 12.9696346,15.4053263 C14.4021463,15.4053263 15.5635615,16.5550658 15.5635615,17.9725851" id="Fill-21" fill="#066360" mask="url(#mask-4)"></path>
                </g>
            </g>
        </g>
    </g>
</svg>