<svg width="27" height="27" viewBox="0 0 27 27" fill="none" xmlns="http://www.w3.org/2000/svg">
<path d="M13.4245 0.251013C9.925 0.267344 6.5744 1.66898 4.10564 4.14931C1.63689 6.62964 0.250938 9.98676 0.250977 13.4863C0.250977 16.9965 1.6454 20.363 4.1275 22.8451C6.6096 25.3272 9.97605 26.7216 13.4863 26.7216C16.9965 26.7216 20.3629 25.3272 22.845 22.8451C25.3271 20.363 26.7216 16.9965 26.7216 13.4863C26.7216 9.97609 25.3271 6.60964 22.845 4.12754C20.3629 1.64544 16.9965 0.251013 13.4863 0.251013C13.4657 0.250965 13.4451 0.250965 13.4245 0.251013ZM18.8973 8.21866C19.0076 8.21645 19.2513 8.24403 19.4102 8.37307C19.5157 8.46472 19.583 8.59264 19.5988 8.73153C19.6164 8.8341 19.6385 9.06903 19.6208 9.25212C19.4223 11.3455 18.5598 16.4234 18.1208 18.7672C17.9355 19.7598 17.5705 20.0918 17.2164 20.1238C16.4488 20.1955 15.8653 19.6165 15.1208 19.129C13.9561 18.3646 13.2977 17.8892 12.1671 17.1437C10.8602 16.2834 11.7072 15.8091 12.4517 15.037C12.6469 14.8341 16.033 11.7536 16.0991 11.4745C16.1069 11.4392 16.1146 11.3091 16.0374 11.2407C15.9602 11.1723 15.8455 11.1955 15.7627 11.2142C15.6458 11.2407 13.7852 12.4716 10.1808 14.9036C9.65134 15.2676 9.17377 15.444 8.74472 15.433C8.27267 15.4242 7.36384 15.1672 6.68774 14.9477C5.85833 14.6775 5.19987 14.5352 5.25723 14.0775C5.287 13.8392 5.61568 13.5955 6.24215 13.3462C10.1002 11.6654 12.6723 10.5569 13.9605 10.022C17.6355 8.49329 18.3999 8.22748 18.8973 8.21866Z" fill="white"/>
</svg>
