<svg width="27" height="27" viewBox="0 0 27 27" fill="none" xmlns="http://www.w3.org/2000/svg">
<path d="M19.7077 16.1135C19.3801 15.9492 17.7687 15.1573 17.4687 15.047C17.1676 14.9378 16.9493 14.8837 16.7298 15.2124C16.5125 15.54 15.8838 16.2779 15.693 16.4962C15.5022 16.7157 15.3103 16.7422 14.9827 16.579C14.6551 16.4135 13.5985 16.0683 12.3467 14.9521C11.3728 14.083 10.7143 13.0098 10.5235 12.6812C10.3327 12.3536 10.5037 12.176 10.6669 12.0128C10.8147 11.8661 10.9956 11.6301 11.1588 11.4393C11.3232 11.2473 11.3772 11.1106 11.4875 10.8911C11.5967 10.6727 11.5426 10.4819 11.4599 10.3176C11.3772 10.1532 10.7221 8.53963 10.4496 7.88338C10.1827 7.24477 9.9125 7.33191 9.71176 7.32088C9.52095 7.31205 9.30257 7.30985 9.08308 7.30985C8.8647 7.30985 8.50955 7.39146 8.20956 7.72014C7.90956 8.04771 7.0625 8.84073 7.0625 10.4543C7.0625 12.0668 8.23713 13.6253 8.40036 13.8448C8.5647 14.0632 10.7121 17.3742 14 18.7937C14.782 19.1312 15.3919 19.333 15.8684 19.483C16.6537 19.7334 17.3684 19.6981 17.932 19.6132C18.5618 19.5194 19.8709 18.8201 20.1445 18.0547C20.418 17.2893 20.418 16.633 20.3353 16.4962C20.2537 16.3595 20.0353 16.2779 19.7066 16.1135H19.7077ZM13.7276 24.2786H13.7232C11.7707 24.2788 9.85413 23.7538 8.17426 22.7587L7.7761 22.5227L3.65 23.6058L4.75073 19.5823L4.49154 19.1698C3.40012 17.4318 2.82273 15.4205 2.8261 13.3683C2.8272 7.35727 7.71875 2.46683 13.732 2.46683C16.6437 2.46683 19.3812 3.60286 21.4393 5.66316C22.4548 6.67413 23.2596 7.87646 23.8073 9.20056C24.355 10.5247 24.6347 11.9442 24.6301 13.3771C24.6268 19.3882 19.7364 24.2786 13.7276 24.2786ZM23.0066 4.09808C21.7914 2.87483 20.3455 1.90492 18.7527 1.24455C17.1599 0.58418 15.4518 0.246481 13.7276 0.251022C6.49779 0.251022 0.613603 6.13521 0.610294 13.3672C0.610294 15.679 1.2136 17.9356 2.36176 19.9242L0.5 26.7216L7.45404 24.8974C9.37712 25.9451 11.5321 26.4941 13.7221 26.4944H13.7276C20.9562 26.4944 26.8415 20.6102 26.8448 13.3771C26.8502 11.6535 26.5137 9.94599 25.8549 8.35327C25.1961 6.76054 24.228 5.31426 23.0066 4.09808Z" fill="white"/>
</svg>
