<svg xmlns="http://www.w3.org/2000/svg" width="147" height="117" fill="none" viewBox="0 0 147 117">
    <path fill="#F1A14F" d="M90.964 50.143h-18.66L69.64 66.857h18.66l-2.167 14.207H67.306l-4.664 27.579H47.814l4.665-27.579H33.82l-4.664 27.579H14.328l4.664-27.579H0l2.332-14.207h18.993l2.665-16.714H4.998L7.33 35.936h19.16l4.498-27.579h14.827l-4.498 27.579h18.66l4.497-27.579h14.828l-4.499 27.579h18.493l-2.332 14.207zM54.812 66.857l2.665-16.714h-18.66l-2.665 16.714h18.66zM130.34 0H147v117h-19.159V20.559l-23.491 6.685-4.664-16.38L130.34 0z"/>
</svg>
