<svg xmlns="http://www.w3.org/2000/svg" width="105" height="162" fill="none" viewBox="0 0 105 162">
    <ellipse cx="58.289" cy="151.812" fill="url(#a)" rx="42.605" ry="10.188"/>
    <path fill="#00A7A7" d="M14.078 72.035c.069-24.927 20.332-45.079 45.259-45.01 24.927.068 45.078 20.331 45.01 45.259-.045 16.288-8.713 30.538-21.671 38.439a44.932 44.932 0 0 1-23.588 6.571 44.926 44.926 0 0 1-25.057-7.672c-12.072-8.13-19.996-21.94-19.953-37.587z"/>
    <path fill="#6CB1C7" d="M.337 6.7a2.016 2.016 0 0 1 .037-2.285L2.916.846a2.016 2.016 0 0 1 3.283 0l2.542 3.57c.485.68.5 1.588.037 2.284l-2.542 3.826a2.015 2.015 0 0 1-3.357 0L.337 6.7z"/>
    <path fill="#B9C154" d="M2.723 39.035a3.212 3.212 0 0 1 .059-3.641l4.051-5.688c1.28-1.799 3.952-1.799 5.233 0l4.051 5.688a3.213 3.213 0 0 1 .06 3.641l-4.052 6.098c-1.27 1.912-4.08 1.912-5.351 0l-4.051-6.098z"/>
    <path fill="#F1A14F" d="M24.082 21.408a2.461 2.461 0 0 1 .046-2.79l3.104-4.358a2.461 2.461 0 0 1 4.01 0l3.104 4.358c.591.831.61 1.94.045 2.79l-3.104 4.672a2.461 2.461 0 0 1-4.1 0l-3.105-4.672z"/>
    <path fill="#fff" fill-rule="evenodd" d="M37.748 67.877a2.667 2.667 0 0 1 2.66 2.674c-.03 10.56 8.508 19.146 19.069 19.175 10.56.029 19.146-8.509 19.175-19.07a2.667 2.667 0 0 1 5.333.015c-.037 13.506-11.016 24.425-24.523 24.388-13.507-.037-24.426-11.016-24.388-24.523a2.667 2.667 0 0 1 2.674-2.66z" clip-rule="evenodd"/>
    <path fill="#00A7A7" fill-rule="evenodd" d="M31.986 134.773a2.778 2.778 0 0 1 .244 3.921l-9.964 11.29a2.779 2.779 0 0 1-4.167-3.678l9.965-11.289a2.779 2.779 0 0 1 3.922-.244zM20.293 134.02a2.778 2.778 0 0 1 .244 3.921l-9.965 11.29a2.779 2.779 0 0 1-4.166-3.678l9.965-11.289a2.778 2.778 0 0 1 3.922-.244z" clip-rule="evenodd"/>
    <path fill="#fff" fill-rule="evenodd" d="M45.323 57.049a4.925 4.925 0 0 0-4.72 3.519 2.487 2.487 0 1 1-4.77-1.416c1.214-4.09 5-7.078 9.49-7.078s8.275 2.988 9.489 7.078a2.488 2.488 0 0 1-4.77 1.416 4.925 4.925 0 0 0-4.72-3.519zM72.801 57.049a4.925 4.925 0 0 0-4.72 3.519 2.488 2.488 0 1 1-4.769-1.416c1.214-4.09 5-7.078 9.49-7.078s8.275 2.988 9.489 7.078a2.488 2.488 0 0 1-4.77 1.416 4.925 4.925 0 0 0-4.72-3.519z" clip-rule="evenodd"/>
    <defs>
        <radialGradient id="a" cx="0" cy="0" r="1" gradientTransform="matrix(0 10.1881 -42.6049 0 58.339 152.265)" gradientUnits="userSpaceOnUse">
            <stop stop-color="#EBEBEB"/>
            <stop offset="1" stop-color="#F1F1F1" stop-opacity="0"/>
        </radialGradient>
    </defs>
</svg>
