<svg width="300" height="323" viewBox="0 0 300 323" fill="none" xmlns="http://www.w3.org/2000/svg">
<rect y="22.8359" width="300" height="300" rx="150" fill="#D1E9E9"/>
<ellipse cx="112.156" cy="153.524" rx="32.1037" ry="5.49142" fill="url(#paint0_radial)"/>
<path d="M81.3175 205.11H84.1075V207H76.2055V205.11H79.0135V196.848L76.4035 198.414V196.344L79.9675 194.184H81.3175V205.11ZM95.2679 207.144C94.3439 207.144 93.5279 206.952 92.8199 206.568C92.1239 206.184 91.5839 205.638 91.1999 204.93C90.8279 204.21 90.6419 203.37 90.6419 202.41C90.6419 201.45 90.8279 200.616 91.1999 199.908C91.5839 199.188 92.1239 198.636 92.8199 198.252C93.5279 197.868 94.3439 197.676 95.2679 197.676C96.1799 197.676 96.9839 197.868 97.6799 198.252C98.3759 198.636 98.9099 199.188 99.2819 199.908C99.6659 200.616 99.8579 201.45 99.8579 202.41C99.8579 203.37 99.6659 204.21 99.2819 204.93C98.9099 205.638 98.3759 206.184 97.6799 206.568C96.9839 206.952 96.1799 207.144 95.2679 207.144ZM95.2499 205.38C96.0179 205.38 96.5999 205.134 96.9959 204.642C97.4039 204.138 97.6079 203.394 97.6079 202.41C97.6079 201.438 97.4039 200.7 96.9959 200.196C96.5879 199.68 96.0119 199.422 95.2679 199.422C94.5119 199.422 93.9299 199.68 93.5219 200.196C93.1139 200.7 92.9099 201.438 92.9099 202.41C92.9099 203.394 93.1079 204.138 93.5039 204.642C93.9119 205.134 94.4939 205.38 95.2499 205.38ZM110.078 197.91V207H107.882V205.596C107.594 206.1 107.21 206.484 106.73 206.748C106.25 207.012 105.698 207.144 105.074 207.144C102.854 207.144 101.744 205.896 101.744 203.4V197.91H103.976V203.418C103.976 204.078 104.108 204.564 104.372 204.876C104.648 205.188 105.068 205.344 105.632 205.344C106.292 205.344 106.82 205.128 107.216 204.696C107.612 204.264 107.81 203.688 107.81 202.968V197.91H110.078ZM115.383 199.602V203.67C115.383 204.738 115.881 205.272 116.877 205.272C117.153 205.272 117.453 205.224 117.777 205.128V206.91C117.381 207.054 116.901 207.126 116.337 207.126C115.305 207.126 114.513 206.838 113.961 206.262C113.409 205.686 113.133 204.858 113.133 203.778V199.602H111.387V197.91H113.133V195.696L115.383 194.94V197.91H117.795V199.602H115.383ZM128.403 207.144C127.479 207.144 126.663 206.952 125.955 206.568C125.259 206.184 124.719 205.638 124.335 204.93C123.963 204.21 123.777 203.37 123.777 202.41C123.777 201.45 123.963 200.616 124.335 199.908C124.719 199.188 125.259 198.636 125.955 198.252C126.663 197.868 127.479 197.676 128.403 197.676C129.315 197.676 130.119 197.868 130.815 198.252C131.511 198.636 132.045 199.188 132.417 199.908C132.801 200.616 132.993 201.45 132.993 202.41C132.993 203.37 132.801 204.21 132.417 204.93C132.045 205.638 131.511 206.184 130.815 206.568C130.119 206.952 129.315 207.144 128.403 207.144ZM128.385 205.38C129.153 205.38 129.735 205.134 130.131 204.642C130.539 204.138 130.743 203.394 130.743 202.41C130.743 201.438 130.539 200.7 130.131 200.196C129.723 199.68 129.147 199.422 128.403 199.422C127.647 199.422 127.065 199.68 126.657 200.196C126.249 200.7 126.045 201.438 126.045 202.41C126.045 203.394 126.243 204.138 126.639 204.642C127.047 205.134 127.629 205.38 128.385 205.38ZM139.182 195.534C138.21 195.534 137.724 196.068 137.724 197.136V197.91H139.758V199.602H137.724V207H135.474V199.602H133.746V197.91H135.474V197.028C135.474 195.948 135.744 195.12 136.284 194.544C136.836 193.956 137.622 193.662 138.642 193.662C139.206 193.662 139.68 193.734 140.064 193.878V195.66C139.728 195.576 139.434 195.534 139.182 195.534ZM152.585 200.412C153.341 200.616 153.917 200.988 154.313 201.528C154.721 202.068 154.925 202.734 154.925 203.526C154.925 204.642 154.511 205.524 153.683 206.172C152.867 206.82 151.763 207.144 150.371 207.144C149.507 207.144 148.673 207.012 147.869 206.748C147.077 206.484 146.423 206.118 145.907 205.65L146.699 203.958C147.839 204.846 149.033 205.29 150.281 205.29C151.097 205.29 151.703 205.128 152.099 204.804C152.507 204.48 152.711 203.988 152.711 203.328C152.711 202.68 152.507 202.206 152.099 201.906C151.691 201.594 151.061 201.438 150.209 201.438H148.517V199.584H149.903C151.559 199.584 152.387 198.954 152.387 197.694C152.387 197.106 152.207 196.656 151.847 196.344C151.487 196.032 150.983 195.876 150.335 195.876C149.183 195.876 148.031 196.32 146.879 197.208L146.105 195.516C146.621 195.06 147.269 194.7 148.049 194.436C148.841 194.16 149.651 194.022 150.479 194.022C151.739 194.022 152.741 194.334 153.485 194.958C154.241 195.57 154.619 196.392 154.619 197.424C154.607 198.132 154.421 198.75 154.061 199.278C153.713 199.794 153.221 200.172 152.585 200.412Z" fill="#00A7A7"/>
<path d="M158.662 200.772L157.384 199.836L159.04 197.802L156.484 197.1L156.988 195.588L159.436 196.524L159.31 193.896H160.894L160.768 196.506L163.234 195.588L163.72 197.1L161.182 197.784L162.838 199.836L161.542 200.772L160.102 198.576L158.662 200.772ZM178.296 193.752V207H176.856V205.362C176.592 205.926 176.19 206.364 175.65 206.676C175.122 206.976 174.504 207.126 173.796 207.126C173.004 207.126 172.302 206.928 171.69 206.532C171.09 206.136 170.622 205.584 170.286 204.876C169.95 204.156 169.782 203.328 169.782 202.392C169.782 201.456 169.944 200.64 170.268 199.944C170.604 199.236 171.078 198.69 171.69 198.306C172.302 197.922 173.004 197.73 173.796 197.73C174.504 197.73 175.122 197.886 175.65 198.198C176.178 198.498 176.574 198.924 176.838 199.476V193.752H178.296ZM174.084 205.92C174.972 205.92 175.656 205.62 176.136 205.02C176.616 204.408 176.856 203.544 176.856 202.428C176.856 201.324 176.616 200.472 176.136 199.872C175.656 199.26 174.972 198.954 174.084 198.954C173.196 198.954 172.5 199.254 171.996 199.854C171.504 200.454 171.258 201.3 171.258 202.392C171.258 203.508 171.504 204.378 171.996 205.002C172.5 205.614 173.196 205.92 174.084 205.92ZM184.859 207.126C184.007 207.126 183.257 206.934 182.609 206.55C181.961 206.166 181.457 205.62 181.097 204.912C180.749 204.204 180.575 203.376 180.575 202.428C180.575 201.48 180.749 200.652 181.097 199.944C181.457 199.236 181.961 198.69 182.609 198.306C183.257 197.922 184.007 197.73 184.859 197.73C185.711 197.73 186.461 197.922 187.109 198.306C187.757 198.69 188.255 199.236 188.603 199.944C188.963 200.652 189.143 201.48 189.143 202.428C189.143 203.376 188.963 204.204 188.603 204.912C188.255 205.62 187.757 206.166 187.109 206.55C186.461 206.934 185.711 207.126 184.859 207.126ZM184.859 205.92C185.759 205.92 186.449 205.626 186.929 205.038C187.409 204.438 187.649 203.568 187.649 202.428C187.649 201.324 187.403 200.472 186.911 199.872C186.419 199.26 185.735 198.954 184.859 198.954C183.971 198.954 183.281 199.26 182.789 199.872C182.297 200.472 182.051 201.324 182.051 202.428C182.051 203.568 182.291 204.438 182.771 205.038C183.263 205.626 183.959 205.92 184.859 205.92ZM200.627 197.73C202.799 197.73 203.885 198.924 203.885 201.312V207H202.427V201.384C202.427 200.544 202.259 199.932 201.923 199.548C201.587 199.152 201.059 198.954 200.339 198.954C199.499 198.954 198.827 199.212 198.323 199.728C197.819 200.244 197.567 200.94 197.567 201.816V207H196.109V200.484C196.109 199.548 196.061 198.702 195.965 197.946H197.351L197.495 199.566C197.771 198.978 198.185 198.528 198.737 198.216C199.289 197.892 199.919 197.73 200.627 197.73ZM210.382 207.126C209.53 207.126 208.78 206.934 208.132 206.55C207.484 206.166 206.98 205.62 206.62 204.912C206.272 204.204 206.098 203.376 206.098 202.428C206.098 201.48 206.272 200.652 206.62 199.944C206.98 199.236 207.484 198.69 208.132 198.306C208.78 197.922 209.53 197.73 210.382 197.73C211.234 197.73 211.984 197.922 212.632 198.306C213.28 198.69 213.778 199.236 214.126 199.944C214.486 200.652 214.666 201.48 214.666 202.428C214.666 203.376 214.486 204.204 214.126 204.912C213.778 205.62 213.28 206.166 212.632 206.55C211.984 206.934 211.234 207.126 210.382 207.126ZM210.382 205.92C211.282 205.92 211.972 205.626 212.452 205.038C212.932 204.438 213.172 203.568 213.172 202.428C213.172 201.324 212.926 200.472 212.434 199.872C211.942 199.26 211.258 198.954 210.382 198.954C209.494 198.954 208.804 199.26 208.312 199.872C207.82 200.472 207.574 201.324 207.574 202.428C207.574 203.568 207.814 204.438 208.294 205.038C208.786 205.626 209.482 205.92 210.382 205.92ZM218.866 199.098V204.048C218.866 204.72 219.004 205.194 219.28 205.47C219.556 205.734 219.946 205.866 220.45 205.866C220.786 205.866 221.11 205.812 221.422 205.704V206.946C221.05 207.066 220.63 207.126 220.162 207.126C219.298 207.126 218.62 206.886 218.128 206.406C217.648 205.914 217.408 205.194 217.408 204.246V199.098H215.644V197.946H217.408V195.624L218.866 195.102V197.946H221.458V199.098H218.866ZM90.5876 230V220.946H92.0456V230H90.5876ZM90.4436 217.112H92.2256V218.768H90.4436V217.112ZM99.3947 220.73C101.567 220.73 102.653 221.924 102.653 224.312V230H101.195V224.384C101.195 223.544 101.027 222.932 100.691 222.548C100.355 222.152 99.8267 221.954 99.1067 221.954C98.2667 221.954 97.5947 222.212 97.0907 222.728C96.5867 223.244 96.3347 223.94 96.3347 224.816V230H94.8767V223.484C94.8767 222.548 94.8287 221.702 94.7327 220.946H96.1187L96.2627 222.566C96.5387 221.978 96.9527 221.528 97.5047 221.216C98.0567 220.892 98.6867 220.73 99.3947 220.73ZM111.904 220.964H113.362L109.456 230H108.07L104.218 220.964H105.748L108.808 228.416L111.904 220.964ZM122.441 225.428H115.799C115.811 226.58 116.075 227.45 116.591 228.038C117.119 228.626 117.881 228.92 118.877 228.92C119.933 228.92 120.905 228.566 121.793 227.858L122.279 228.92C121.883 229.292 121.373 229.586 120.749 229.802C120.137 230.018 119.507 230.126 118.859 230.126C117.443 230.126 116.333 229.712 115.529 228.884C114.725 228.044 114.323 226.898 114.323 225.446C114.323 224.522 114.503 223.706 114.863 222.998C115.223 222.278 115.727 221.72 116.375 221.324C117.023 220.928 117.761 220.73 118.589 220.73C119.789 220.73 120.731 221.126 121.415 221.918C122.099 222.698 122.441 223.778 122.441 225.158V225.428ZM118.607 221.864C117.851 221.864 117.233 222.092 116.753 222.548C116.285 223.004 115.985 223.646 115.853 224.474H121.127C121.055 223.622 120.803 222.974 120.371 222.53C119.951 222.086 119.363 221.864 118.607 221.864ZM127.714 230.126C126.19 230.126 124.984 229.736 124.096 228.956L124.582 227.876C125.074 228.26 125.572 228.536 126.076 228.704C126.58 228.872 127.144 228.956 127.768 228.956C128.452 228.956 128.968 228.842 129.316 228.614C129.676 228.374 129.856 228.032 129.856 227.588C129.856 227.228 129.736 226.94 129.496 226.724C129.256 226.508 128.86 226.34 128.308 226.22L126.778 225.86C126.022 225.692 125.434 225.392 125.014 224.96C124.606 224.528 124.402 224.012 124.402 223.412C124.402 222.62 124.72 221.978 125.356 221.486C125.992 220.982 126.832 220.73 127.876 220.73C128.512 220.73 129.112 220.832 129.676 221.036C130.24 221.24 130.714 221.534 131.098 221.918L130.612 222.98C129.76 222.272 128.848 221.918 127.876 221.918C127.228 221.918 126.724 222.044 126.364 222.296C126.016 222.536 125.842 222.878 125.842 223.322C125.842 223.694 125.95 223.988 126.166 224.204C126.394 224.42 126.754 224.588 127.246 224.708L128.776 225.086C129.616 225.278 130.24 225.578 130.648 225.986C131.056 226.382 131.26 226.904 131.26 227.552C131.26 228.332 130.942 228.956 130.306 229.424C129.67 229.892 128.806 230.126 127.714 230.126ZM135.44 222.098V227.048C135.44 227.72 135.578 228.194 135.854 228.47C136.13 228.734 136.52 228.866 137.024 228.866C137.36 228.866 137.684 228.812 137.996 228.704V229.946C137.624 230.066 137.204 230.126 136.736 230.126C135.872 230.126 135.194 229.886 134.702 229.406C134.222 228.914 133.982 228.194 133.982 227.246V222.098H132.218V220.946H133.982V218.624L135.44 218.102V220.946H138.032V222.098H135.44ZM152.456 220.946V230H151.016V228.362C150.752 228.926 150.35 229.364 149.81 229.676C149.282 229.976 148.664 230.126 147.956 230.126C147.152 230.126 146.444 229.934 145.832 229.55C145.232 229.166 144.764 228.626 144.428 227.93C144.104 227.222 143.942 226.4 143.942 225.464C143.942 224.528 144.11 223.706 144.446 222.998C144.782 222.278 145.25 221.72 145.85 221.324C146.462 220.928 147.164 220.73 147.956 220.73C148.664 220.73 149.282 220.886 149.81 221.198C150.338 221.51 150.74 221.948 151.016 222.512V220.946H152.456ZM148.244 228.92C149.132 228.92 149.816 228.62 150.296 228.02C150.776 227.408 151.016 226.544 151.016 225.428C151.016 224.312 150.776 223.454 150.296 222.854C149.816 222.254 149.132 221.954 148.244 221.954C147.356 221.954 146.66 222.266 146.156 222.89C145.664 223.502 145.418 224.36 145.418 225.464C145.418 226.568 145.664 227.42 146.156 228.02C146.648 228.62 147.344 228.92 148.244 228.92ZM159.793 220.73C161.965 220.73 163.051 221.924 163.051 224.312V230H161.593V224.384C161.593 223.544 161.425 222.932 161.089 222.548C160.753 222.152 160.225 221.954 159.505 221.954C158.665 221.954 157.993 222.212 157.489 222.728C156.985 223.244 156.733 223.94 156.733 224.816V230H155.275V223.484C155.275 222.548 155.227 221.702 155.131 220.946H156.517L156.661 222.566C156.937 221.978 157.351 221.528 157.903 221.216C158.455 220.892 159.085 220.73 159.793 220.73ZM173.778 216.752V230H172.338V228.362C172.074 228.926 171.672 229.364 171.132 229.676C170.604 229.976 169.986 230.126 169.278 230.126C168.486 230.126 167.784 229.928 167.172 229.532C166.572 229.136 166.104 228.584 165.768 227.876C165.432 227.156 165.264 226.328 165.264 225.392C165.264 224.456 165.426 223.64 165.75 222.944C166.086 222.236 166.56 221.69 167.172 221.306C167.784 220.922 168.486 220.73 169.278 220.73C169.986 220.73 170.604 220.886 171.132 221.198C171.66 221.498 172.056 221.924 172.32 222.476V216.752H173.778ZM169.566 228.92C170.454 228.92 171.138 228.62 171.618 228.02C172.098 227.408 172.338 226.544 172.338 225.428C172.338 224.324 172.098 223.472 171.618 222.872C171.138 222.26 170.454 221.954 169.566 221.954C168.678 221.954 167.982 222.254 167.478 222.854C166.986 223.454 166.74 224.3 166.74 225.392C166.74 226.508 166.986 227.378 167.478 228.002C167.982 228.614 168.678 228.92 169.566 228.92ZM189.265 220.946V230H187.825V228.362C187.561 228.926 187.159 229.364 186.619 229.676C186.091 229.976 185.473 230.126 184.765 230.126C183.961 230.126 183.253 229.934 182.641 229.55C182.041 229.166 181.573 228.626 181.237 227.93C180.913 227.222 180.751 226.4 180.751 225.464C180.751 224.528 180.919 223.706 181.255 222.998C181.591 222.278 182.059 221.72 182.659 221.324C183.271 220.928 183.973 220.73 184.765 220.73C185.473 220.73 186.091 220.886 186.619 221.198C187.147 221.51 187.549 221.948 187.825 222.512V220.946H189.265ZM185.053 228.92C185.941 228.92 186.625 228.62 187.105 228.02C187.585 227.408 187.825 226.544 187.825 225.428C187.825 224.312 187.585 223.454 187.105 222.854C186.625 222.254 185.941 221.954 185.053 221.954C184.165 221.954 183.469 222.266 182.965 222.89C182.473 223.502 182.227 224.36 182.227 225.464C182.227 226.568 182.473 227.42 182.965 228.02C183.457 228.62 184.153 228.92 185.053 228.92ZM196.296 220.73C196.596 220.73 196.872 220.766 197.124 220.838L197.088 222.17C196.812 222.074 196.494 222.026 196.134 222.026C195.258 222.026 194.604 222.302 194.172 222.854C193.752 223.394 193.542 224.054 193.542 224.834V230H192.084V223.484C192.084 222.548 192.036 221.702 191.94 220.946H193.326L193.47 222.62C193.698 222.008 194.064 221.54 194.568 221.216C195.072 220.892 195.648 220.73 196.296 220.73ZM206.007 225.428H199.365C199.377 226.58 199.641 227.45 200.157 228.038C200.685 228.626 201.447 228.92 202.443 228.92C203.499 228.92 204.471 228.566 205.359 227.858L205.845 228.92C205.449 229.292 204.939 229.586 204.315 229.802C203.703 230.018 203.073 230.126 202.425 230.126C201.009 230.126 199.899 229.712 199.095 228.884C198.291 228.044 197.889 226.898 197.889 225.446C197.889 224.522 198.069 223.706 198.429 222.998C198.789 222.278 199.293 221.72 199.941 221.324C200.589 220.928 201.327 220.73 202.155 220.73C203.355 220.73 204.297 221.126 204.981 221.918C205.665 222.698 206.007 223.778 206.007 225.158V225.428ZM202.173 221.864C201.417 221.864 200.799 222.092 200.319 222.548C199.851 223.004 199.551 223.646 199.419 224.474H204.693C204.621 223.622 204.369 222.974 203.937 222.53C203.517 222.086 202.929 221.864 202.173 221.864ZM58.6673 243.946H64.2293V253H62.7713V245.098H58.6673V253H57.2093V245.098H55.4453V243.946H57.2093V242.74C57.2093 242.008 57.3173 241.42 57.5333 240.976C57.7613 240.532 58.1273 240.208 58.6313 240.004C59.1353 239.8 59.8193 239.698 60.6833 239.698H61.2593V240.832H60.8093C60.1853 240.832 59.7233 240.886 59.4233 240.994C59.1353 241.102 58.9373 241.312 58.8293 241.624C58.7213 241.924 58.6673 242.392 58.6673 243.028V243.946ZM62.5913 240.022H64.4093V241.714H62.5913V240.022ZM71.5597 243.73C73.7317 243.73 74.8177 244.924 74.8177 247.312V253H73.3597V247.384C73.3597 246.544 73.1917 245.932 72.8557 245.548C72.5197 245.152 71.9917 244.954 71.2717 244.954C70.4317 244.954 69.7597 245.212 69.2557 245.728C68.7517 246.244 68.4997 246.94 68.4997 247.816V253H67.0417V246.484C67.0417 245.548 66.9937 244.702 66.8977 243.946H68.2837L68.4277 245.566C68.7037 244.978 69.1177 244.528 69.6697 244.216C70.2217 243.892 70.8517 243.73 71.5597 243.73ZM85.545 243.946V253H84.105V251.362C83.841 251.926 83.439 252.364 82.899 252.676C82.371 252.976 81.753 253.126 81.045 253.126C80.241 253.126 79.533 252.934 78.921 252.55C78.321 252.166 77.853 251.626 77.517 250.93C77.193 250.222 77.031 249.4 77.031 248.464C77.031 247.528 77.199 246.706 77.535 245.998C77.871 245.278 78.339 244.72 78.939 244.324C79.551 243.928 80.253 243.73 81.045 243.73C81.753 243.73 82.371 243.886 82.899 244.198C83.427 244.51 83.829 244.948 84.105 245.512V243.946H85.545ZM81.333 251.92C82.221 251.92 82.905 251.62 83.385 251.02C83.865 250.408 84.105 249.544 84.105 248.428C84.105 247.312 83.865 246.454 83.385 245.854C82.905 245.254 82.221 244.954 81.333 244.954C80.445 244.954 79.749 245.266 79.245 245.89C78.753 246.502 78.507 247.36 78.507 248.464C78.507 249.568 78.753 250.42 79.245 251.02C79.737 251.62 80.433 251.92 81.333 251.92ZM92.882 243.73C95.054 243.73 96.14 244.924 96.14 247.312V253H94.682V247.384C94.682 246.544 94.514 245.932 94.178 245.548C93.842 245.152 93.314 244.954 92.594 244.954C91.754 244.954 91.082 245.212 90.578 245.728C90.074 246.244 89.822 246.94 89.822 247.816V253H88.364V246.484C88.364 245.548 88.316 244.702 88.22 243.946H89.606L89.75 245.566C90.026 244.978 90.44 244.528 90.992 244.216C91.544 243.892 92.174 243.73 92.882 243.73ZM102.691 253.126C101.815 253.126 101.047 252.934 100.387 252.55C99.7393 252.166 99.2353 251.626 98.8753 250.93C98.5273 250.222 98.3533 249.4 98.3533 248.464C98.3533 247.528 98.5333 246.706 98.8933 245.998C99.2533 245.278 99.7633 244.72 100.423 244.324C101.095 243.928 101.875 243.73 102.763 243.73C103.375 243.73 103.963 243.838 104.527 244.054C105.103 244.258 105.577 244.546 105.949 244.918L105.463 245.998C105.007 245.638 104.563 245.374 104.131 245.206C103.711 245.038 103.279 244.954 102.835 244.954C101.911 244.954 101.185 245.266 100.657 245.89C100.129 246.502 99.8653 247.36 99.8653 248.464C99.8653 249.556 100.123 250.408 100.639 251.02C101.167 251.62 101.899 251.92 102.835 251.92C103.279 251.92 103.711 251.836 104.131 251.668C104.563 251.5 105.007 251.236 105.463 250.876L105.949 251.956C105.565 252.316 105.079 252.604 104.491 252.82C103.915 253.024 103.315 253.126 102.691 253.126ZM107.805 253V243.946H109.263V253H107.805ZM107.661 240.112H109.443V241.768H107.661V240.112ZM120.068 243.946V253H118.628V251.362C118.364 251.926 117.962 252.364 117.422 252.676C116.894 252.976 116.276 253.126 115.568 253.126C114.764 253.126 114.056 252.934 113.444 252.55C112.844 252.166 112.376 251.626 112.04 250.93C111.716 250.222 111.554 249.4 111.554 248.464C111.554 247.528 111.722 246.706 112.058 245.998C112.394 245.278 112.862 244.72 113.462 244.324C114.074 243.928 114.776 243.73 115.568 243.73C116.276 243.73 116.894 243.886 117.422 244.198C117.95 244.51 118.352 244.948 118.628 245.512V243.946H120.068ZM115.856 251.92C116.744 251.92 117.428 251.62 117.908 251.02C118.388 250.408 118.628 249.544 118.628 248.428C118.628 247.312 118.388 246.454 117.908 245.854C117.428 245.254 116.744 244.954 115.856 244.954C114.968 244.954 114.272 245.266 113.768 245.89C113.276 246.502 113.03 247.36 113.03 248.464C113.03 249.568 113.276 250.42 113.768 251.02C114.26 251.62 114.956 251.92 115.856 251.92ZM122.887 253V239.752H124.345V253H122.887ZM127.176 253V239.752H128.634V253H127.176ZM139.422 243.946L135.192 253.828C134.748 254.86 134.19 255.616 133.518 256.096C132.846 256.576 132.018 256.906 131.034 257.086L130.728 255.952C131.58 255.76 132.222 255.502 132.654 255.178C133.098 254.866 133.464 254.38 133.752 253.72L134.112 252.91L130.278 243.946H131.808L134.868 251.416L137.964 243.946H139.422ZM153.299 243.946V253H151.877V251.434C151.589 251.986 151.187 252.406 150.671 252.694C150.155 252.982 149.573 253.126 148.925 253.126C147.857 253.126 147.047 252.826 146.495 252.226C145.943 251.626 145.667 250.738 145.667 249.562V243.946H147.125V249.526C147.125 250.342 147.293 250.942 147.629 251.326C147.965 251.71 148.475 251.902 149.159 251.902C149.963 251.902 150.611 251.644 151.103 251.128C151.595 250.6 151.841 249.91 151.841 249.058V243.946H153.299ZM160.628 243.73C162.8 243.73 163.886 244.924 163.886 247.312V253H162.428V247.384C162.428 246.544 162.26 245.932 161.924 245.548C161.588 245.152 161.06 244.954 160.34 244.954C159.5 244.954 158.828 245.212 158.324 245.728C157.82 246.244 157.568 246.94 157.568 247.816V253H156.11V246.484C156.11 245.548 156.062 244.702 155.966 243.946H157.352L157.496 245.566C157.772 244.978 158.186 244.528 158.738 244.216C159.29 243.892 159.92 243.73 160.628 243.73ZM171.157 243.73C171.949 243.73 172.651 243.928 173.263 244.324C173.875 244.72 174.349 245.278 174.685 245.998C175.021 246.706 175.189 247.528 175.189 248.464C175.189 249.4 175.021 250.222 174.685 250.93C174.349 251.626 173.875 252.166 173.263 252.55C172.663 252.934 171.961 253.126 171.157 253.126C170.449 253.126 169.831 252.97 169.303 252.658C168.775 252.346 168.373 251.902 168.097 251.326V256.888H166.639V246.484C166.639 245.548 166.591 244.702 166.495 243.946H167.881L168.025 245.692C168.277 245.068 168.673 244.588 169.213 244.252C169.765 243.904 170.413 243.73 171.157 243.73ZM170.887 251.92C171.775 251.92 172.459 251.62 172.939 251.02C173.431 250.42 173.677 249.568 173.677 248.464C173.677 247.36 173.431 246.502 172.939 245.89C172.447 245.266 171.763 244.954 170.887 244.954C169.987 244.954 169.297 245.254 168.817 245.854C168.337 246.454 168.097 247.312 168.097 248.428C168.097 249.544 168.337 250.408 168.817 251.02C169.297 251.62 169.987 251.92 170.887 251.92ZM181.644 243.73C181.944 243.73 182.22 243.766 182.472 243.838L182.436 245.17C182.16 245.074 181.842 245.026 181.482 245.026C180.606 245.026 179.952 245.302 179.52 245.854C179.1 246.394 178.89 247.054 178.89 247.834V253H177.432V246.484C177.432 245.548 177.384 244.702 177.288 243.946H178.674L178.818 245.62C179.046 245.008 179.412 244.54 179.916 244.216C180.42 243.892 180.996 243.73 181.644 243.73ZM191.356 248.428H184.714C184.726 249.58 184.99 250.45 185.506 251.038C186.034 251.626 186.796 251.92 187.792 251.92C188.848 251.92 189.82 251.566 190.708 250.858L191.194 251.92C190.798 252.292 190.288 252.586 189.664 252.802C189.052 253.018 188.422 253.126 187.774 253.126C186.358 253.126 185.248 252.712 184.444 251.884C183.64 251.044 183.238 249.898 183.238 248.446C183.238 247.522 183.418 246.706 183.778 245.998C184.138 245.278 184.642 244.72 185.29 244.324C185.938 243.928 186.676 243.73 187.504 243.73C188.704 243.73 189.646 244.126 190.33 244.918C191.014 245.698 191.356 246.778 191.356 248.158V248.428ZM187.522 244.864C186.766 244.864 186.148 245.092 185.668 245.548C185.2 246.004 184.9 246.646 184.768 247.474H190.042C189.97 246.622 189.718 245.974 189.286 245.53C188.866 245.086 188.278 244.864 187.522 244.864ZM198.087 243.73C198.879 243.73 199.581 243.928 200.193 244.324C200.805 244.72 201.279 245.278 201.615 245.998C201.951 246.706 202.119 247.528 202.119 248.464C202.119 249.4 201.951 250.222 201.615 250.93C201.279 251.626 200.805 252.166 200.193 252.55C199.593 252.934 198.891 253.126 198.087 253.126C197.379 253.126 196.761 252.97 196.233 252.658C195.705 252.346 195.303 251.902 195.027 251.326V256.888H193.569V246.484C193.569 245.548 193.521 244.702 193.425 243.946H194.811L194.955 245.692C195.207 245.068 195.603 244.588 196.143 244.252C196.695 243.904 197.343 243.73 198.087 243.73ZM197.817 251.92C198.705 251.92 199.389 251.62 199.869 251.02C200.361 250.42 200.607 249.568 200.607 248.464C200.607 247.36 200.361 246.502 199.869 245.89C199.377 245.266 198.693 244.954 197.817 244.954C196.917 244.954 196.227 245.254 195.747 245.854C195.267 246.454 195.027 247.312 195.027 248.428C195.027 249.544 195.267 250.408 195.747 251.02C196.227 251.62 196.917 251.92 197.817 251.92ZM212.336 243.946V253H210.896V251.362C210.632 251.926 210.23 252.364 209.69 252.676C209.162 252.976 208.544 253.126 207.836 253.126C207.032 253.126 206.324 252.934 205.712 252.55C205.112 252.166 204.644 251.626 204.308 250.93C203.984 250.222 203.822 249.4 203.822 248.464C203.822 247.528 203.99 246.706 204.326 245.998C204.662 245.278 205.13 244.72 205.73 244.324C206.342 243.928 207.044 243.73 207.836 243.73C208.544 243.73 209.162 243.886 209.69 244.198C210.218 244.51 210.62 244.948 210.896 245.512V243.946H212.336ZM208.124 251.92C209.012 251.92 209.696 251.62 210.176 251.02C210.656 250.408 210.896 249.544 210.896 248.428C210.896 247.312 210.656 246.454 210.176 245.854C209.696 245.254 209.012 244.954 208.124 244.954C207.236 244.954 206.54 245.266 206.036 245.89C205.544 246.502 205.298 247.36 205.298 248.464C205.298 249.568 205.544 250.42 206.036 251.02C206.528 251.62 207.224 251.92 208.124 251.92ZM219.367 243.73C219.667 243.73 219.943 243.766 220.195 243.838L220.159 245.17C219.883 245.074 219.565 245.026 219.205 245.026C218.329 245.026 217.675 245.302 217.243 245.854C216.823 246.394 216.613 247.054 216.613 247.834V253H215.155V246.484C215.155 245.548 215.107 244.702 215.011 243.946H216.397L216.541 245.62C216.769 245.008 217.135 244.54 217.639 244.216C218.143 243.892 218.719 243.73 219.367 243.73ZM229.079 248.428H222.437C222.449 249.58 222.713 250.45 223.229 251.038C223.757 251.626 224.519 251.92 225.515 251.92C226.571 251.92 227.543 251.566 228.431 250.858L228.917 251.92C228.521 252.292 228.011 252.586 227.387 252.802C226.775 253.018 226.145 253.126 225.497 253.126C224.081 253.126 222.971 252.712 222.167 251.884C221.363 251.044 220.961 249.898 220.961 248.446C220.961 247.522 221.141 246.706 221.501 245.998C221.861 245.278 222.365 244.72 223.013 244.324C223.661 243.928 224.399 243.73 225.227 243.73C226.427 243.73 227.369 244.126 228.053 244.918C228.737 245.698 229.079 246.778 229.079 248.158V248.428ZM225.245 244.864C224.489 244.864 223.871 245.092 223.391 245.548C222.923 246.004 222.623 246.646 222.491 247.474H227.765C227.693 246.622 227.441 245.974 227.009 245.53C226.589 245.086 226.001 244.864 225.245 244.864ZM239.266 239.752V253H237.826V251.362C237.562 251.926 237.16 252.364 236.62 252.676C236.092 252.976 235.474 253.126 234.766 253.126C233.974 253.126 233.272 252.928 232.66 252.532C232.06 252.136 231.592 251.584 231.256 250.876C230.92 250.156 230.752 249.328 230.752 248.392C230.752 247.456 230.914 246.64 231.238 245.944C231.574 245.236 232.048 244.69 232.66 244.306C233.272 243.922 233.974 243.73 234.766 243.73C235.474 243.73 236.092 243.886 236.62 244.198C237.148 244.498 237.544 244.924 237.808 245.476V239.752H239.266ZM235.054 251.92C235.942 251.92 236.626 251.62 237.106 251.02C237.586 250.408 237.826 249.544 237.826 248.428C237.826 247.324 237.586 246.472 237.106 245.872C236.626 245.26 235.942 244.954 235.054 244.954C234.166 244.954 233.47 245.254 232.966 245.854C232.474 246.454 232.228 247.3 232.228 248.392C232.228 249.508 232.474 250.378 232.966 251.002C233.47 251.614 234.166 251.92 235.054 251.92ZM75.4551 263.94C74.9751 263.94 74.5971 264.078 74.3211 264.354C74.0571 264.618 73.9251 265.08 73.9251 265.74V266.946H76.1391V268.098H73.9251V276H72.4671V268.098H70.7031V266.946H72.4671V265.56C72.4671 264.612 72.7011 263.898 73.1691 263.418C73.6491 262.926 74.3151 262.68 75.1671 262.68C75.5871 262.68 75.9951 262.734 76.3911 262.842V264.084C76.0551 263.988 75.7431 263.94 75.4551 263.94ZM81.7017 276.126C80.8497 276.126 80.0997 275.934 79.4517 275.55C78.8037 275.166 78.2997 274.62 77.9397 273.912C77.5917 273.204 77.4177 272.376 77.4177 271.428C77.4177 270.48 77.5917 269.652 77.9397 268.944C78.2997 268.236 78.8037 267.69 79.4517 267.306C80.0997 266.922 80.8497 266.73 81.7017 266.73C82.5537 266.73 83.3037 266.922 83.9517 267.306C84.5997 267.69 85.0977 268.236 85.4457 268.944C85.8057 269.652 85.9857 270.48 85.9857 271.428C85.9857 272.376 85.8057 273.204 85.4457 273.912C85.0977 274.62 84.5997 275.166 83.9517 275.55C83.3037 275.934 82.5537 276.126 81.7017 276.126ZM81.7017 274.92C82.6017 274.92 83.2917 274.626 83.7717 274.038C84.2517 273.438 84.4917 272.568 84.4917 271.428C84.4917 270.324 84.2457 269.472 83.7537 268.872C83.2617 268.26 82.5777 267.954 81.7017 267.954C80.8137 267.954 80.1237 268.26 79.6317 268.872C79.1397 269.472 78.8937 270.324 78.8937 271.428C78.8937 272.568 79.1337 273.438 79.6137 274.038C80.1057 274.626 80.8017 274.92 81.7017 274.92ZM92.4705 266.73C92.7705 266.73 93.0465 266.766 93.2985 266.838L93.2625 268.17C92.9865 268.074 92.6685 268.026 92.3085 268.026C91.4325 268.026 90.7785 268.302 90.3465 268.854C89.9265 269.394 89.7165 270.054 89.7165 270.834V276H88.2585V269.484C88.2585 268.548 88.2105 267.702 88.1145 266.946H89.5005L89.6445 268.62C89.8725 268.008 90.2385 267.54 90.7425 267.216C91.2465 266.892 91.8225 266.73 92.4705 266.73ZM101.417 268.098V273.048C101.417 273.72 101.555 274.194 101.831 274.47C102.107 274.734 102.497 274.866 103.001 274.866C103.337 274.866 103.661 274.812 103.973 274.704V275.946C103.601 276.066 103.181 276.126 102.713 276.126C101.849 276.126 101.171 275.886 100.679 275.406C100.199 274.914 99.9593 274.194 99.9593 273.246V268.098H98.1953V266.946H99.9593V264.624L101.417 264.102V266.946H104.009V268.098H101.417ZM110.284 266.73C112.456 266.73 113.542 267.924 113.542 270.312V276H112.084V270.384C112.084 269.544 111.916 268.932 111.58 268.548C111.244 268.152 110.716 267.954 109.996 267.954C109.156 267.954 108.484 268.212 107.98 268.728C107.476 269.244 107.224 269.94 107.224 270.816V276H105.766V262.752H107.224V268.422C107.512 267.87 107.92 267.45 108.448 267.162C108.988 266.874 109.6 266.73 110.284 266.73ZM123.874 271.428H117.232C117.244 272.58 117.508 273.45 118.024 274.038C118.552 274.626 119.314 274.92 120.31 274.92C121.366 274.92 122.338 274.566 123.226 273.858L123.712 274.92C123.316 275.292 122.806 275.586 122.182 275.802C121.57 276.018 120.94 276.126 120.292 276.126C118.876 276.126 117.766 275.712 116.962 274.884C116.158 274.044 115.756 272.898 115.756 271.446C115.756 270.522 115.936 269.706 116.296 268.998C116.656 268.278 117.16 267.72 117.808 267.324C118.456 266.928 119.194 266.73 120.022 266.73C121.222 266.73 122.164 267.126 122.848 267.918C123.532 268.698 123.874 269.778 123.874 271.158V271.428ZM120.04 267.864C119.284 267.864 118.666 268.092 118.186 268.548C117.718 269.004 117.418 269.646 117.286 270.474H122.56C122.488 269.622 122.236 268.974 121.804 268.53C121.384 268.086 120.796 267.864 120.04 267.864ZM126.087 276V266.946H127.545V276H126.087ZM125.943 263.112H127.725V264.768H125.943V263.112ZM134.588 266.73C134.888 266.73 135.164 266.766 135.416 266.838L135.38 268.17C135.104 268.074 134.786 268.026 134.426 268.026C133.55 268.026 132.896 268.302 132.464 268.854C132.044 269.394 131.834 270.054 131.834 270.834V276H130.376V269.484C130.376 268.548 130.328 267.702 130.232 266.946H131.618L131.762 268.62C131.99 268.008 132.356 267.54 132.86 267.216C133.364 266.892 133.94 266.73 134.588 266.73ZM145.803 266.73C146.103 266.73 146.379 266.766 146.631 266.838L146.595 268.17C146.319 268.074 146.001 268.026 145.641 268.026C144.765 268.026 144.111 268.302 143.679 268.854C143.259 269.394 143.049 270.054 143.049 270.834V276H141.591V269.484C141.591 268.548 141.543 267.702 141.447 266.946H142.833L142.977 268.62C143.205 268.008 143.571 267.54 144.075 267.216C144.579 266.892 145.155 266.73 145.803 266.73ZM155.514 271.428H148.872C148.884 272.58 149.148 273.45 149.664 274.038C150.192 274.626 150.954 274.92 151.95 274.92C153.006 274.92 153.978 274.566 154.866 273.858L155.352 274.92C154.956 275.292 154.446 275.586 153.822 275.802C153.21 276.018 152.58 276.126 151.932 276.126C150.516 276.126 149.406 275.712 148.602 274.884C147.798 274.044 147.396 272.898 147.396 271.446C147.396 270.522 147.576 269.706 147.936 268.998C148.296 268.278 148.8 267.72 149.448 267.324C150.096 266.928 150.834 266.73 151.662 266.73C152.862 266.73 153.804 267.126 154.488 267.918C155.172 268.698 155.514 269.778 155.514 271.158V271.428ZM151.68 267.864C150.924 267.864 150.306 268.092 149.826 268.548C149.358 269.004 149.058 269.646 148.926 270.474H154.2C154.128 269.622 153.876 268.974 153.444 268.53C153.024 268.086 152.436 267.864 151.68 267.864ZM159.619 268.098V273.048C159.619 273.72 159.757 274.194 160.033 274.47C160.309 274.734 160.699 274.866 161.203 274.866C161.539 274.866 161.863 274.812 162.175 274.704V275.946C161.803 276.066 161.383 276.126 160.915 276.126C160.051 276.126 159.373 275.886 158.881 275.406C158.401 274.914 158.161 274.194 158.161 273.246V268.098H156.397V266.946H158.161V264.624L159.619 264.102V266.946H162.211V268.098H159.619ZM163.967 276V266.946H165.425V276H163.967ZM163.823 263.112H165.605V264.768H163.823V263.112ZM172.469 266.73C172.769 266.73 173.045 266.766 173.297 266.838L173.261 268.17C172.985 268.074 172.667 268.026 172.307 268.026C171.431 268.026 170.777 268.302 170.345 268.854C169.925 269.394 169.715 270.054 169.715 270.834V276H168.257V269.484C168.257 268.548 168.209 267.702 168.113 266.946H169.499L169.643 268.62C169.871 268.008 170.237 267.54 170.741 267.216C171.245 266.892 171.821 266.73 172.469 266.73ZM182.18 271.428H175.538C175.55 272.58 175.814 273.45 176.33 274.038C176.858 274.626 177.62 274.92 178.616 274.92C179.672 274.92 180.644 274.566 181.532 273.858L182.018 274.92C181.622 275.292 181.112 275.586 180.488 275.802C179.876 276.018 179.246 276.126 178.598 276.126C177.182 276.126 176.072 275.712 175.268 274.884C174.464 274.044 174.062 272.898 174.062 271.446C174.062 270.522 174.242 269.706 174.602 268.998C174.962 268.278 175.466 267.72 176.114 267.324C176.762 266.928 177.5 266.73 178.328 266.73C179.528 266.73 180.47 267.126 181.154 267.918C181.838 268.698 182.18 269.778 182.18 271.158V271.428ZM178.346 267.864C177.59 267.864 176.972 268.092 176.492 268.548C176.024 269.004 175.724 269.646 175.592 270.474H180.866C180.794 269.622 180.542 268.974 180.11 268.53C179.69 268.086 179.102 267.864 178.346 267.864ZM194.437 266.73C196.441 266.73 197.443 267.924 197.443 270.312V276H195.985V270.384C195.985 269.532 195.835 268.914 195.535 268.53C195.247 268.146 194.773 267.954 194.113 267.954C193.345 267.954 192.745 268.212 192.313 268.728C191.881 269.244 191.665 269.946 191.665 270.834V276H190.207V270.384C190.207 269.544 190.057 268.932 189.757 268.548C189.457 268.152 188.977 267.954 188.317 267.954C187.549 267.954 186.943 268.212 186.499 268.728C186.067 269.244 185.851 269.946 185.851 270.834V276H184.393V269.484C184.393 268.548 184.345 267.702 184.249 266.946H185.635L185.779 268.53C186.031 267.954 186.403 267.51 186.895 267.198C187.399 266.886 187.981 266.73 188.641 266.73C189.361 266.73 189.949 266.874 190.405 267.162C190.861 267.45 191.197 267.894 191.413 268.494C191.689 267.954 192.091 267.528 192.619 267.216C193.159 266.892 193.765 266.73 194.437 266.73ZM207.792 271.428H201.15C201.162 272.58 201.426 273.45 201.942 274.038C202.47 274.626 203.232 274.92 204.228 274.92C205.284 274.92 206.256 274.566 207.144 273.858L207.63 274.92C207.234 275.292 206.724 275.586 206.1 275.802C205.488 276.018 204.858 276.126 204.21 276.126C202.794 276.126 201.684 275.712 200.88 274.884C200.076 274.044 199.674 272.898 199.674 271.446C199.674 270.522 199.854 269.706 200.214 268.998C200.574 268.278 201.078 267.72 201.726 267.324C202.374 266.928 203.112 266.73 203.94 266.73C205.14 266.73 206.082 267.126 206.766 267.918C207.45 268.698 207.792 269.778 207.792 271.158V271.428ZM203.958 267.864C203.202 267.864 202.584 268.092 202.104 268.548C201.636 269.004 201.336 269.646 201.204 270.474H206.478C206.406 269.622 206.154 268.974 205.722 268.53C205.302 268.086 204.714 267.864 203.958 267.864ZM214.523 266.73C216.695 266.73 217.781 267.924 217.781 270.312V276H216.323V270.384C216.323 269.544 216.155 268.932 215.819 268.548C215.483 268.152 214.955 267.954 214.235 267.954C213.395 267.954 212.723 268.212 212.219 268.728C211.715 269.244 211.463 269.94 211.463 270.816V276H210.005V269.484C210.005 268.548 209.957 267.702 209.861 266.946H211.247L211.391 268.566C211.667 267.978 212.081 267.528 212.633 267.216C213.185 266.892 213.815 266.73 214.523 266.73ZM222.478 268.098V273.048C222.478 273.72 222.616 274.194 222.892 274.47C223.168 274.734 223.558 274.866 224.062 274.866C224.398 274.866 224.722 274.812 225.034 274.704V275.946C224.662 276.066 224.242 276.126 223.774 276.126C222.91 276.126 222.232 275.886 221.74 275.406C221.26 274.914 221.02 274.194 221.02 273.246V268.098H219.256V266.946H221.02V264.624L222.478 264.102V266.946H225.07V268.098H222.478Z" fill="black"/>
<rect x="94.9691" y="116.048" width="38.0117" height="38.0117" rx="19.0059" fill="white" stroke="#D1E9E9"/>
<circle cx="108.617" cy="128.928" r="2.16965" fill="#007814"/>
<circle cx="119.337" cy="128.928" r="2.16965" fill="#007814"/>
<path fill-rule="evenodd" clip-rule="evenodd" d="M105.169 133.322C105.773 133.322 106.263 133.812 106.263 134.416C106.263 138.746 109.773 142.256 114.103 142.256C118.433 142.256 121.943 138.746 121.943 134.416C121.943 133.812 122.433 133.322 123.037 133.322C123.641 133.322 124.13 133.812 124.13 134.416C124.13 139.954 119.641 144.443 114.103 144.443C108.565 144.443 104.076 139.954 104.076 134.416C104.076 133.812 104.565 133.322 105.169 133.322Z" fill="#007814"/>
<rect x="107.277" y="78.1206" width="39.0117" height="39.0117" rx="19.5059" fill="white" stroke="#D1E9E9" stroke-width="2"/>
<circle cx="121.421" cy="91.5005" r="2.16965" fill="#007814"/>
<circle cx="132.141" cy="91.5005" r="2.16965" fill="#007814"/>
<path fill-rule="evenodd" clip-rule="evenodd" d="M117.975 95.895C118.579 95.895 119.069 96.3846 119.069 96.9884C119.069 101.319 122.579 104.829 126.909 104.829C131.239 104.829 134.75 101.319 134.75 96.9884C134.75 96.3846 135.239 95.895 135.843 95.895C136.447 95.895 136.937 96.3846 136.937 96.9884C136.937 102.526 132.447 107.016 126.909 107.016C121.371 107.016 116.882 102.526 116.882 96.9884C116.882 96.3846 117.372 95.895 117.975 95.895Z" fill="#007814"/>
<path fill-rule="evenodd" clip-rule="evenodd" d="M117.975 96C118.579 96 119.069 96.4895 119.069 97.0934C119.069 101.424 122.579 104.934 126.909 104.934C131.239 104.934 134.75 101.424 134.75 97.0934C134.75 96.4895 135.239 96 135.843 96C136.447 96 136.937 96.4895 136.937 97.0934C136.937 102.631 132.447 107.121 126.909 107.121C121.371 107.121 116.882 102.631 116.882 97.0934C116.882 96.4895 117.372 96 117.975 96Z" fill="#007814"/>
<g filter="url(#filter0_d)">
<mask id="path-14-inside-1" fill="white">
<path fill-rule="evenodd" clip-rule="evenodd" d="M192.621 66.3075C174.077 65.2882 160 59.5605 160 40.0645C160 18.1756 177.745 11 199.633 11C221.522 11 239.267 18.1756 239.267 40.0645C239.267 59.3702 225.463 65.1751 207.188 66.2763L200.098 102.119L192.621 66.3075Z"/>
</mask>
<path fill-rule="evenodd" clip-rule="evenodd" d="M192.621 66.3075C174.077 65.2882 160 59.5605 160 40.0645C160 18.1756 177.745 11 199.633 11C221.522 11 239.267 18.1756 239.267 40.0645C239.267 59.3702 225.463 65.1751 207.188 66.2763L200.098 102.119L192.621 66.3075Z" fill="#DFDFDF"/>
<path d="M192.621 66.3075L192.676 65.309L193.443 65.3512L193.6 66.1031L192.621 66.3075ZM207.188 66.2763L206.207 66.0823L206.356 65.3246L207.127 65.2781L207.188 66.2763ZM200.098 102.119L201.079 102.313L199.119 102.323L200.098 102.119ZM161 40.0645C161 49.5303 164.394 55.5051 169.921 59.2896C175.528 63.128 183.457 64.8022 192.676 65.309L192.566 67.306C183.241 66.7934 174.859 65.0942 168.792 60.9399C162.645 56.7317 159 50.0947 159 40.0645H161ZM199.633 12C188.768 12 179.082 13.7864 172.142 18.1694C165.276 22.506 161 29.4436 161 40.0645H159C159 28.7965 163.596 21.2019 171.074 16.4784C178.479 11.8014 188.61 10 199.633 10V12ZM238.267 40.0645C238.267 29.4436 233.991 22.506 227.125 18.1694C220.185 13.7864 210.499 12 199.633 12V10C210.657 10 220.788 11.8014 228.193 16.4784C235.671 21.2019 240.267 28.7965 240.267 40.0645H238.267ZM207.127 65.2781C216.21 64.7308 224.003 63.0186 229.508 59.177C234.938 55.3883 238.267 49.4394 238.267 40.0645H240.267C240.267 49.9954 236.694 56.6018 230.653 60.8172C224.688 64.9797 216.441 66.7206 207.248 67.2745L207.127 65.2781ZM199.117 101.924L206.207 66.0823L208.169 66.4703L201.079 102.313L199.117 101.924ZM193.6 66.1031L201.077 101.914L199.119 102.323L191.642 66.5119L193.6 66.1031Z" fill="#F5F5F5" mask="url(#path-14-inside-1)"/>
</g>
<path d="M189.553 38.0271C189.031 39.3771 188.419 40.7901 187.717 42.2661C187.033 43.7241 186.214 45.1731 185.26 46.6131C184.99 47.0271 184.684 47.2341 184.342 47.2341C184.126 47.2341 183.946 47.1891 183.802 47.0991C183.658 46.9911 183.532 46.8561 183.424 46.6941C182.956 45.9741 182.533 45.2091 182.155 44.3991C181.777 43.5891 181.408 42.6711 181.048 41.6451C180.526 42.5631 179.941 43.4901 179.293 44.4261C178.663 45.3621 177.97 46.2351 177.214 47.0451C177.07 47.2071 176.917 47.3151 176.755 47.3691C176.611 47.4231 176.494 47.4411 176.404 47.4231C176.026 47.3691 175.729 47.1351 175.513 46.7211C174.847 45.4791 174.397 44.1111 174.163 42.6171C173.929 41.1231 173.803 39.5931 173.785 38.0271C173.785 37.8831 173.839 37.7391 173.947 37.5951C174.055 37.4511 174.217 37.3881 174.433 37.4061C174.757 37.4241 175.009 37.5501 175.189 37.7841C175.369 38.0001 175.477 38.2701 175.513 38.5941C175.549 39.0441 175.594 39.5571 175.648 40.1331C175.702 40.6911 175.774 41.2671 175.864 41.8611C175.954 42.4551 176.071 43.0311 176.215 43.5891C176.359 44.1471 176.539 44.6331 176.755 45.0471C177.025 44.7051 177.313 44.3271 177.619 43.9131C177.925 43.4991 178.222 43.0671 178.51 42.6171C178.816 42.1671 179.104 41.7171 179.374 41.2671C179.644 40.7991 179.887 40.3401 180.103 39.8901C180.247 39.5841 180.427 39.3861 180.643 39.2961C180.859 39.2061 181.03 39.1611 181.156 39.1611C181.696 39.1611 182.065 39.4221 182.263 39.9441C182.569 40.7001 182.875 41.5011 183.181 42.3471C183.505 43.1931 183.856 43.9941 184.234 44.7501C184.558 44.2461 184.891 43.6791 185.233 43.0491C185.575 42.4191 185.908 41.7801 186.232 41.1321C186.556 40.4661 186.862 39.8001 187.15 39.1341C187.456 38.4681 187.726 37.8381 187.96 37.2441C188.05 37.0281 188.203 36.8481 188.419 36.7041C188.635 36.5601 188.869 36.5691 189.121 36.7311C189.319 36.8571 189.454 37.0641 189.526 37.3521C189.616 37.6221 189.625 37.8471 189.553 38.0271Z" fill="black"/>
<path d="M193.346 36.4881C193.346 36.9201 193.337 37.4061 193.319 37.9461C193.319 38.4861 193.319 39.0441 193.319 39.6201C193.337 40.1961 193.346 40.7901 193.346 41.4021C193.364 42.0141 193.382 42.5991 193.4 43.1571C193.58 42.7971 193.796 42.4461 194.048 42.1041C194.3 41.7441 194.579 41.4291 194.885 41.1591C195.209 40.8891 195.542 40.6731 195.884 40.5111C196.244 40.3491 196.631 40.2681 197.045 40.2681C197.495 40.2681 197.891 40.4121 198.233 40.7001C198.593 40.9881 198.899 41.3751 199.151 41.8611C199.421 42.3291 199.646 42.8601 199.826 43.4541C200.006 44.0301 200.15 44.6241 200.258 45.2361C200.384 45.8301 200.474 46.4061 200.528 46.9641C200.582 47.5041 200.627 47.9721 200.663 48.3681C200.663 48.6561 200.591 48.8901 200.447 49.0701C200.303 49.2501 200.132 49.3401 199.934 49.3401C199.79 49.3401 199.61 49.2501 199.394 49.0701C199.196 48.8721 199.052 48.6381 198.962 48.3681C198.908 48.1521 198.854 47.8371 198.8 47.4231C198.746 47.0091 198.683 46.5681 198.611 46.1001C198.539 45.6141 198.449 45.1281 198.341 44.6421C198.233 44.1561 198.098 43.7241 197.936 43.3461C197.792 42.9501 197.612 42.6441 197.396 42.4281C197.18 42.2121 196.928 42.1311 196.64 42.1851C196.19 42.2751 195.794 42.5901 195.452 43.1301C195.128 43.6701 194.84 44.2821 194.588 44.9661C194.354 45.6501 194.156 46.3431 193.994 47.0451C193.85 47.7471 193.742 48.3141 193.67 48.7461C193.598 49.0701 193.499 49.2951 193.373 49.4211C193.265 49.5291 193.139 49.5831 192.995 49.5831C192.851 49.5831 192.716 49.5111 192.59 49.3671C192.482 49.2231 192.374 49.0521 192.266 48.8541C192.176 48.6381 192.095 48.4221 192.023 48.2061C191.951 47.9721 191.906 47.7741 191.888 47.6121C191.798 46.6401 191.726 45.7131 191.672 44.8311C191.618 43.9311 191.573 43.0311 191.537 42.1311C191.519 41.2311 191.51 40.3131 191.51 39.3771C191.51 38.4231 191.528 37.4061 191.564 36.3261C191.564 35.4261 191.888 35.0211 192.536 35.1111C192.752 35.1471 192.941 35.3091 193.103 35.5971C193.265 35.8671 193.346 36.1641 193.346 36.4881Z" fill="black"/>
<path d="M209.359 38.4591C209.431 38.9631 209.485 39.5031 209.521 40.0791C209.575 40.6371 209.611 41.2041 209.629 41.7801C209.665 42.3561 209.683 42.9141 209.683 43.4541C209.683 43.9941 209.674 44.4801 209.656 44.9121C210.232 45.3081 210.574 45.6591 210.682 45.9651C210.808 46.2711 210.826 46.5411 210.736 46.7751C210.628 47.0991 210.43 47.2701 210.142 47.2881C209.872 47.2881 209.557 47.1891 209.197 46.9911C208.945 47.1711 208.657 47.3691 208.333 47.5851C208.009 47.7831 207.667 47.9811 207.307 48.1791C206.947 48.3591 206.587 48.5211 206.227 48.6651C205.867 48.8091 205.534 48.9081 205.228 48.9621C204.652 49.0521 204.13 48.9441 203.662 48.6381C203.212 48.3321 202.906 47.8731 202.744 47.2611C202.636 46.8471 202.609 46.4241 202.663 45.9921C202.717 45.5421 202.852 45.1191 203.068 44.7231C203.284 44.3091 203.572 43.9401 203.932 43.6161C204.31 43.2921 204.751 43.0401 205.255 42.8601C205.381 42.8061 205.552 42.7611 205.768 42.7251C206.002 42.6891 206.236 42.6801 206.47 42.6981C206.722 42.6981 206.974 42.7431 207.226 42.8331C207.478 42.9231 207.712 43.0761 207.928 43.2921C207.928 42.9861 207.919 42.6531 207.901 42.2931C207.901 41.9151 207.892 41.5371 207.874 41.1591C207.856 40.7811 207.829 40.4301 207.793 40.1061C207.775 39.7641 207.748 39.4761 207.712 39.2421C207.676 38.9721 207.568 38.8101 207.388 38.7561C207.226 38.6841 207.019 38.6931 206.767 38.7831C206.335 38.9271 205.831 39.2061 205.255 39.6201C204.679 40.0341 204.13 40.4751 203.608 40.9431C203.446 41.1051 203.257 41.1771 203.041 41.1591C202.843 41.1411 202.672 41.0601 202.528 40.9161C202.384 40.7721 202.303 40.6101 202.285 40.4301C202.267 40.2321 202.339 40.0251 202.501 39.8091C202.807 39.4851 203.149 39.1521 203.527 38.8101C203.905 38.4681 204.301 38.1621 204.715 37.8921C205.129 37.6041 205.552 37.3701 205.984 37.1901C206.416 37.0101 206.848 36.9111 207.28 36.8931C207.91 36.8751 208.396 37.0191 208.738 37.3251C209.08 37.6131 209.287 37.9911 209.359 38.4591ZM206.227 44.2641C205.993 44.3181 205.741 44.4351 205.471 44.6151C205.219 44.7771 204.985 44.9841 204.769 45.2361C204.571 45.4701 204.418 45.7401 204.31 46.0461C204.22 46.3341 204.22 46.6221 204.31 46.9101C204.346 47.0181 204.418 47.0991 204.526 47.1531C204.652 47.2071 204.787 47.2161 204.931 47.1801C205.363 47.0901 205.849 46.9191 206.389 46.6671C206.947 46.3971 207.388 46.1091 207.712 45.8031C207.712 45.6951 207.658 45.5601 207.55 45.3981C207.442 45.2181 207.316 45.0471 207.172 44.8851C207.028 44.7051 206.866 44.5521 206.686 44.4261C206.524 44.3001 206.371 44.2461 206.227 44.2641Z" fill="black"/>
<path d="M218.441 41.2131C218.783 41.1951 219.125 41.2761 219.467 41.4561C219.809 41.6361 219.98 41.9151 219.98 42.2931C219.944 42.5991 219.773 42.7971 219.467 42.8871C219.179 42.9591 218.945 42.9951 218.765 42.9951C218.405 42.9951 218.018 43.0041 217.604 43.0221C217.19 43.0401 216.767 43.0671 216.335 43.1031C216.299 43.6971 216.263 44.2551 216.227 44.7771C216.209 45.2991 216.191 45.7671 216.173 46.1811C216.155 46.5771 216.146 46.9011 216.146 47.1531C216.146 47.4051 216.155 47.5401 216.173 47.5581C216.569 47.4861 216.992 47.3691 217.442 47.2071C217.91 47.0271 218.369 46.8381 218.819 46.6401C219.287 46.4241 219.737 46.2081 220.169 45.9921C220.619 45.7581 221.042 45.5421 221.438 45.3441C221.618 45.2541 221.78 45.2271 221.924 45.2631C222.086 45.2991 222.185 45.3801 222.221 45.5061C222.257 45.7041 222.23 45.9471 222.14 46.2351C222.05 46.5231 221.888 46.7841 221.654 47.0181C221.384 47.2341 221.024 47.4861 220.574 47.7741C220.142 48.0441 219.674 48.3051 219.17 48.5571C218.666 48.8091 218.153 49.0341 217.631 49.2321C217.127 49.4121 216.677 49.5201 216.281 49.5561C215.687 49.6101 215.237 49.4481 214.931 49.0701C214.625 48.6921 214.454 48.2151 214.418 47.6391C214.382 47.0631 214.373 46.3971 214.391 45.6411C214.427 44.8851 214.463 44.0841 214.499 43.2381C214.157 43.2741 213.824 43.3101 213.5 43.3461C213.194 43.3641 212.897 43.3911 212.609 43.4271C212.375 43.4271 212.114 43.3731 211.826 43.2651C211.556 43.1571 211.421 42.9501 211.421 42.6441C211.421 42.5361 211.466 42.3921 211.556 42.2121C211.646 42.0321 211.844 41.8971 212.15 41.8071C212.888 41.6811 213.707 41.5731 214.607 41.4831C214.661 40.6371 214.724 39.8181 214.796 39.0261C214.868 38.2341 214.931 37.5141 214.985 36.8661C215.003 36.6501 215.066 36.4611 215.174 36.2991C215.282 36.1371 215.399 36.0561 215.525 36.0561C215.831 36.0381 216.119 36.1191 216.389 36.2991C216.677 36.4611 216.821 36.6501 216.821 36.8661C216.749 37.4781 216.677 38.1711 216.605 38.9451C216.551 39.7191 216.497 40.5111 216.443 41.3211C216.803 41.2851 217.145 41.2671 217.469 41.2671C217.811 41.2491 218.135 41.2311 218.441 41.2131Z" fill="black"/>
<path d="M227.6 34.3011C227.438 35.0931 227.267 35.8761 227.087 36.6501C226.925 37.4241 226.772 38.1981 226.628 38.9721C226.484 39.7461 226.376 40.5201 226.304 41.2941C226.232 42.0681 226.223 42.8421 226.277 43.6161C226.313 43.8141 226.277 44.0031 226.169 44.1831C226.079 44.3631 225.971 44.4801 225.845 44.5341C225.449 44.6781 225.161 44.5791 224.981 44.2371C224.765 43.3191 224.648 42.4101 224.63 41.5101C224.63 40.6101 224.693 39.7191 224.819 38.8371C224.963 37.9551 225.143 37.0821 225.359 36.2181C225.593 35.3361 225.827 34.4631 226.061 33.5991C226.151 33.2391 226.295 33.0411 226.493 33.0051C226.691 32.9691 226.88 32.9871 227.06 33.0591C227.33 33.1491 227.501 33.3291 227.573 33.5991C227.645 33.8691 227.654 34.1031 227.6 34.3011ZM226.52 48.8271C226.52 49.0251 226.493 49.2951 226.439 49.6371C226.403 49.9611 226.331 50.2671 226.223 50.5551C226.133 50.8431 225.998 51.0771 225.818 51.2571C225.656 51.4371 225.449 51.4731 225.197 51.3651C225.053 51.2751 224.909 51.1041 224.765 50.8521C224.621 50.6001 224.558 50.3661 224.576 50.1501C224.612 49.7181 224.702 49.2951 224.846 48.8811C224.99 48.4671 225.179 48.2151 225.413 48.1251C225.521 48.0891 225.638 48.0891 225.764 48.1251C225.908 48.1611 226.034 48.2241 226.142 48.3141C226.25 48.3861 226.34 48.4761 226.412 48.5841C226.484 48.6741 226.52 48.7551 226.52 48.8271Z" fill="black"/>
<g filter="url(#filter1_d)">
<mask id="path-17-inside-2" fill="white">
<path fill-rule="evenodd" clip-rule="evenodd" d="M78.5122 65.9831C60.6699 63.4348 48 55.5184 48 35.1056C48 8.66702 69.2541 0 95.4723 0C121.691 0 142.945 8.66702 142.945 35.1056C142.945 47.1202 138.555 54.8057 131.306 59.6156L137.091 73.1225L120.283 64.3971C113.063 66.3609 104.566 67.0197 95.4723 67.0197C94.4265 67.0197 93.3886 67.011 92.3597 66.9926L87.5612 85.6363L78.5122 65.9831Z"/>
</mask>
<path fill-rule="evenodd" clip-rule="evenodd" d="M78.5122 65.9831C60.6699 63.4348 48 55.5184 48 35.1056C48 8.66702 69.2541 0 95.4723 0C121.691 0 142.945 8.66702 142.945 35.1056C142.945 47.1202 138.555 54.8057 131.306 59.6156L137.091 73.1225L120.283 64.3971C113.063 66.3609 104.566 67.0197 95.4723 67.0197C94.4265 67.0197 93.3886 67.011 92.3597 66.9926L87.5612 85.6363L78.5122 65.9831Z" fill="#DFDFDF"/>
<path d="M78.5122 65.9831L78.6536 64.9931L79.1927 65.0701L79.4205 65.5648L78.5122 65.9831ZM131.306 59.6156L130.386 60.0093L130.058 59.2431L130.753 58.7823L131.306 59.6156ZM137.091 73.1225L138.01 72.7287L139.111 75.2975L136.63 74.01L137.091 73.1225ZM120.283 64.3971L120.021 63.4321L120.397 63.3296L120.744 63.5095L120.283 64.3971ZM92.3597 66.9926L91.3912 66.7433L91.5881 65.9786L92.3776 65.9928L92.3597 66.9926ZM87.5612 85.6363L88.5296 85.8855L87.8288 88.6085L86.6528 86.0545L87.5612 85.6363ZM49 35.1056C49 45.0854 52.086 51.8752 57.2335 56.4996C62.4195 61.1586 69.8205 63.7316 78.6536 64.9931L78.3708 66.973C69.3616 65.6863 61.5064 63.0269 55.8969 57.9874C50.2489 52.9134 47 45.5385 47 35.1056H49ZM95.4723 1C82.4429 1 70.7988 3.15893 62.4415 8.48178C54.1571 13.7582 49 22.206 49 35.1056H47C47 21.5665 52.47 12.4616 61.3671 6.79487C70.1914 1.17458 82.2834 -1 95.4723 -1V1ZM141.945 35.1056C141.945 22.206 136.788 13.7582 128.503 8.48178C120.146 3.15893 108.502 1 95.4723 1V-1C108.661 -1 120.753 1.17458 129.578 6.79487C138.475 12.4616 143.945 21.5665 143.945 35.1056H141.945ZM130.753 58.7823C137.686 54.1826 141.945 46.8327 141.945 35.1056H143.945C143.945 47.4077 139.425 55.4289 131.859 60.4489L130.753 58.7823ZM132.225 59.2219L138.01 72.7287L136.172 73.5162L130.386 60.0093L132.225 59.2219ZM136.63 74.01L119.822 65.2846L120.744 63.5095L137.552 72.2349L136.63 74.01ZM95.4723 66.0197C104.53 66.0197 112.925 65.3621 120.021 63.4321L120.545 65.362C113.201 67.3598 104.602 68.0197 95.4723 68.0197V66.0197ZM92.3776 65.9928C93.4001 66.0111 94.4321 66.0197 95.4723 66.0197V68.0197C94.421 68.0197 93.3771 68.011 92.3418 67.9924L92.3776 65.9928ZM93.3281 67.2419L88.5296 85.8855L86.5927 85.387L91.3912 66.7433L93.3281 67.2419ZM86.6528 86.0545L77.6038 66.4013L79.4205 65.5648L88.4695 85.2181L86.6528 86.0545Z" fill="#F5F5F5" mask="url(#path-17-inside-2)"/>
</g>
<path d="M87.6525 25.076C87.1885 26.276 86.6445 27.532 86.0205 28.844C85.4125 30.14 84.6845 31.428 83.8365 32.708C83.5965 33.076 83.3245 33.26 83.0205 33.26C82.8285 33.26 82.6685 33.22 82.5405 33.14C82.4125 33.044 82.3005 32.924 82.2045 32.78C81.7885 32.14 81.4125 31.46 81.0765 30.74C80.7405 30.02 80.4125 29.204 80.0925 28.292C79.6285 29.108 79.1085 29.932 78.5325 30.764C77.9725 31.596 77.3565 32.372 76.6845 33.092C76.5565 33.236 76.4205 33.332 76.2765 33.38C76.1485 33.428 76.0445 33.444 75.9645 33.428C75.6285 33.38 75.3645 33.172 75.1725 32.804C74.5805 31.7 74.1805 30.484 73.9725 29.156C73.7645 27.828 73.6525 26.468 73.6365 25.076C73.6365 24.948 73.6845 24.82 73.7805 24.692C73.8765 24.564 74.0205 24.508 74.2125 24.524C74.5005 24.54 74.7245 24.652 74.8845 24.86C75.0445 25.052 75.1405 25.292 75.1725 25.58C75.2045 25.98 75.2445 26.436 75.2925 26.948C75.3405 27.444 75.4045 27.956 75.4845 28.484C75.5645 29.012 75.6685 29.524 75.7965 30.02C75.9245 30.516 76.0845 30.948 76.2765 31.316C76.5165 31.012 76.7725 30.676 77.0445 30.308C77.3165 29.94 77.5805 29.556 77.8365 29.156C78.1085 28.756 78.3645 28.356 78.6045 27.956C78.8445 27.54 79.0605 27.132 79.2525 26.732C79.3805 26.46 79.5405 26.284 79.7325 26.204C79.9245 26.124 80.0765 26.084 80.1885 26.084C80.6685 26.084 80.9965 26.316 81.1725 26.78C81.4445 27.452 81.7165 28.164 81.9885 28.916C82.2765 29.668 82.5885 30.38 82.9245 31.052C83.2125 30.604 83.5085 30.1 83.8125 29.54C84.1165 28.98 84.4125 28.412 84.7005 27.836C84.9885 27.244 85.2605 26.652 85.5165 26.06C85.7885 25.468 86.0285 24.908 86.2365 24.38C86.3165 24.188 86.4525 24.028 86.6445 23.9C86.8365 23.772 87.0445 23.78 87.2685 23.924C87.4445 24.036 87.5645 24.22 87.6285 24.476C87.7085 24.716 87.7165 24.916 87.6525 25.076Z" fill="black"/>
<path d="M95.1521 28.7C94.5281 29.068 93.8561 29.356 93.1361 29.564C92.4161 29.756 91.6401 29.852 90.8081 29.852C90.8401 30.412 91.0001 30.86 91.2881 31.196C91.5761 31.516 91.9361 31.708 92.3681 31.772C92.6241 31.804 92.8801 31.796 93.1361 31.748C93.4081 31.7 93.6561 31.628 93.8801 31.532C94.1201 31.42 94.3361 31.3 94.5281 31.172C94.7201 31.044 94.8881 30.916 95.0321 30.788C95.1761 30.66 95.3281 30.58 95.4881 30.548C95.6481 30.5 95.7681 30.492 95.8481 30.524C96.0721 30.604 96.1521 30.844 96.0881 31.244C95.8321 31.756 95.4641 32.196 94.9841 32.564C94.5041 32.916 93.9681 33.14 93.3761 33.236C92.8641 33.332 92.3361 33.308 91.7921 33.164C91.2481 33.02 90.7601 32.74 90.3281 32.324C89.9601 31.956 89.6801 31.524 89.4881 31.028C89.2961 30.532 89.1761 30.02 89.1281 29.492C89.0801 28.996 89.1201 28.524 89.2481 28.076C89.3921 27.628 89.6081 27.236 89.8961 26.9C90.1841 26.548 90.5441 26.26 90.9761 26.036C91.4081 25.812 91.9121 25.684 92.4881 25.652C93.1761 25.604 93.8001 25.732 94.3601 26.036C94.9201 26.34 95.3121 26.764 95.5361 27.308C95.6641 27.612 95.6961 27.876 95.6321 28.1C95.5841 28.324 95.4241 28.524 95.1521 28.7ZM92.3921 27.068C92.2321 27.1 92.0561 27.156 91.8641 27.236C91.6881 27.316 91.5201 27.42 91.3601 27.548C91.2161 27.66 91.0801 27.796 90.9521 27.956C90.8401 28.1 90.7761 28.268 90.7601 28.46C91.0321 28.46 91.3281 28.436 91.6481 28.388C91.9841 28.34 92.3041 28.284 92.6081 28.22C92.9281 28.14 93.2161 28.052 93.4721 27.956C93.7441 27.86 93.9681 27.756 94.1441 27.644C94.0161 27.34 93.7761 27.156 93.4241 27.092C93.0881 27.012 92.7441 27.004 92.3921 27.068Z" fill="black"/>
<path d="M99.0542 21.692C98.9742 21.5 98.8622 21.316 98.7182 21.14C98.5742 20.964 98.4622 20.732 98.3822 20.444C98.2702 20.076 98.2542 19.748 98.3342 19.46C98.4302 19.172 98.5902 18.972 98.8142 18.86C99.0222 18.764 99.2222 18.732 99.4142 18.764C99.6062 18.796 99.7822 18.876 99.9422 19.004C100.102 19.116 100.238 19.276 100.35 19.484C100.462 19.676 100.542 19.892 100.59 20.132C100.654 20.516 100.662 20.972 100.614 21.5C100.582 22.028 100.502 22.564 100.374 23.108C100.246 23.636 100.07 24.156 99.8462 24.668C99.6382 25.164 99.3982 25.588 99.1262 25.94C99.0142 26.084 98.8942 26.172 98.7662 26.204C98.6382 26.22 98.5262 26.204 98.4302 26.156C98.3342 26.092 98.2622 26.004 98.2142 25.892C98.1822 25.764 98.1982 25.636 98.2622 25.508C98.4222 25.188 98.5582 24.892 98.6702 24.62C98.7822 24.348 98.8702 24.076 98.9342 23.804C99.0142 23.532 99.0702 23.26 99.1022 22.988C99.1342 22.7 99.1502 22.396 99.1502 22.076C99.1502 21.948 99.1182 21.82 99.0542 21.692Z" fill="black"/>
<path d="M111.846 25.628C111.59 26.06 111.334 26.484 111.078 26.9C110.822 27.316 110.542 27.796 110.238 28.34C109.95 28.868 109.614 29.484 109.23 30.188C108.846 30.892 108.398 31.748 107.886 32.756C107.758 32.996 107.63 33.188 107.502 33.332C107.374 33.476 107.222 33.548 107.046 33.548C106.806 33.548 106.614 33.484 106.47 33.356C106.342 33.212 106.23 33.06 106.134 32.9C105.606 32.02 105.086 31.044 104.574 29.972C104.062 28.9 103.646 27.852 103.326 26.828C103.294 26.748 103.294 26.66 103.326 26.564C103.374 26.452 103.438 26.38 103.518 26.348C103.678 26.268 103.886 26.26 104.142 26.324C104.334 26.404 104.526 26.548 104.718 26.756C104.91 26.964 105.062 27.18 105.174 27.404C105.27 27.628 105.382 27.884 105.51 28.172C105.638 28.46 105.774 28.772 105.918 29.108C106.078 29.428 106.238 29.748 106.398 30.068C106.558 30.388 106.718 30.676 106.878 30.932C107.15 30.452 107.438 29.94 107.742 29.396C108.062 28.836 108.382 28.276 108.702 27.716C109.022 27.14 109.342 26.588 109.662 26.06C109.998 25.532 110.326 25.06 110.646 24.644C110.726 24.532 110.838 24.468 110.982 24.452C111.126 24.436 111.286 24.492 111.462 24.62C111.862 24.924 111.99 25.26 111.846 25.628Z" fill="black"/>
<path d="M119.269 28.7C118.645 29.068 117.973 29.356 117.253 29.564C116.533 29.756 115.757 29.852 114.925 29.852C114.957 30.412 115.117 30.86 115.405 31.196C115.693 31.516 116.053 31.708 116.485 31.772C116.741 31.804 116.997 31.796 117.253 31.748C117.525 31.7 117.773 31.628 117.997 31.532C118.237 31.42 118.453 31.3 118.645 31.172C118.837 31.044 119.005 30.916 119.149 30.788C119.293 30.66 119.445 30.58 119.605 30.548C119.765 30.5 119.885 30.492 119.965 30.524C120.189 30.604 120.269 30.844 120.205 31.244C119.949 31.756 119.581 32.196 119.101 32.564C118.621 32.916 118.085 33.14 117.493 33.236C116.981 33.332 116.453 33.308 115.909 33.164C115.365 33.02 114.877 32.74 114.445 32.324C114.077 31.956 113.797 31.524 113.605 31.028C113.413 30.532 113.293 30.02 113.245 29.492C113.197 28.996 113.237 28.524 113.365 28.076C113.509 27.628 113.725 27.236 114.013 26.9C114.301 26.548 114.661 26.26 115.093 26.036C115.525 25.812 116.029 25.684 116.605 25.652C117.293 25.604 117.917 25.732 118.477 26.036C119.037 26.34 119.429 26.764 119.653 27.308C119.781 27.612 119.813 27.876 119.749 28.1C119.701 28.324 119.541 28.524 119.269 28.7ZM116.509 27.068C116.349 27.1 116.173 27.156 115.981 27.236C115.805 27.316 115.637 27.42 115.477 27.548C115.333 27.66 115.197 27.796 115.069 27.956C114.957 28.1 114.893 28.268 114.877 28.46C115.149 28.46 115.445 28.436 115.765 28.388C116.101 28.34 116.421 28.284 116.725 28.22C117.045 28.14 117.333 28.052 117.589 27.956C117.861 27.86 118.085 27.756 118.261 27.644C118.133 27.34 117.893 27.156 117.541 27.092C117.205 27.012 116.861 27.004 116.509 27.068Z" fill="black"/>
<path d="M64.9816 39.548C64.9496 39.708 64.8376 39.796 64.6456 39.812C64.4536 39.828 64.2936 39.836 64.1656 39.836C63.7656 39.852 63.3496 39.892 62.9176 39.956C62.5016 40.02 62.0616 40.116 61.5976 40.244C61.4056 40.308 61.1976 40.284 60.9736 40.172C60.7496 40.06 60.6136 39.836 60.5656 39.5C60.5656 39.372 60.6136 39.268 60.7096 39.188C60.8056 39.108 60.9176 39.036 61.0456 38.972C61.2536 38.876 61.5016 38.796 61.7896 38.732C62.0776 38.652 62.3656 38.596 62.6536 38.564C62.9576 38.532 63.2456 38.524 63.5176 38.54C63.7896 38.54 64.0136 38.564 64.1896 38.612C64.4456 38.692 64.6456 38.812 64.7896 38.972C64.9496 39.132 65.0136 39.324 64.9816 39.548ZM64.4296 47.54C64.5416 47.796 64.5976 48.076 64.5976 48.38C64.6136 48.668 64.5336 48.868 64.3576 48.98C64.1336 49.124 63.8936 49.116 63.6376 48.956C63.3816 48.796 63.1896 48.58 63.0616 48.308C62.8856 47.972 62.7496 47.564 62.6536 47.084C62.5576 46.588 62.4856 46.1 62.4376 45.62C62.3896 45.14 62.3576 44.692 62.3416 44.276C62.3416 43.86 62.3416 43.548 62.3416 43.34C62.3576 43.116 62.4216 42.908 62.5336 42.716C62.6456 42.524 62.7896 42.412 62.9656 42.38C63.2536 42.396 63.4856 42.532 63.6616 42.788C63.8376 43.028 63.9176 43.332 63.9016 43.7C63.9016 43.988 63.9096 44.308 63.9256 44.66C63.9416 45.012 63.9736 45.364 64.0216 45.716C64.0696 46.068 64.1256 46.412 64.1896 46.748C64.2536 47.068 64.3336 47.332 64.4296 47.54Z" fill="black"/>
<path d="M68.2981 41.42C68.3461 41.66 68.3941 41.932 68.4421 42.236C68.5061 42.524 68.5701 42.828 68.6341 43.148C68.6981 43.452 68.7541 43.764 68.8021 44.084C68.8501 44.404 68.8901 44.708 68.9221 44.996C69.1141 44.58 69.3221 44.14 69.5461 43.676C69.7701 43.212 70.0101 42.788 70.2661 42.404C70.5381 42.004 70.8181 41.676 71.1061 41.42C71.4101 41.164 71.7381 41.036 72.0901 41.036C72.6181 41.036 73.0581 41.228 73.4101 41.612C73.7781 41.996 74.0821 42.476 74.3221 43.052C74.5781 43.612 74.7781 44.204 74.9221 44.828C75.0661 45.452 75.1861 46.004 75.2821 46.484C75.3781 46.916 75.1861 47.236 74.7061 47.444C74.4821 47.556 74.3141 47.572 74.2021 47.492C74.0901 47.412 74.0261 47.332 74.0101 47.252C73.9301 47.06 73.8261 46.724 73.6981 46.244C73.5861 45.764 73.4501 45.276 73.2901 44.78C73.1461 44.284 72.9781 43.852 72.7861 43.484C72.5941 43.116 72.3781 42.948 72.1381 42.98C71.8501 42.996 71.5941 43.212 71.3701 43.628C71.1781 43.964 70.9781 44.34 70.7701 44.756C70.5781 45.156 70.3861 45.572 70.1941 46.004C70.0021 46.42 69.8101 46.844 69.6181 47.276C69.4421 47.692 69.2741 48.076 69.1141 48.428C69.0021 48.54 68.8581 48.62 68.6821 48.668C68.5221 48.7 68.3541 48.684 68.1781 48.62C68.0181 48.572 67.8901 48.492 67.7941 48.38C67.6981 48.268 67.6501 48.156 67.6501 48.044C67.5061 46.796 67.3541 45.66 67.1941 44.636C67.0501 43.612 66.8581 42.564 66.6181 41.492C66.5061 41.124 66.4821 40.836 66.5461 40.628C66.6261 40.404 66.8661 40.316 67.2661 40.364C67.8261 40.46 68.1701 40.812 68.2981 41.42Z" fill="black"/>
<path d="M85.022 40.628C84.766 41.06 84.51 41.484 84.254 41.9C83.998 42.316 83.718 42.796 83.414 43.34C83.126 43.868 82.79 44.484 82.406 45.188C82.022 45.892 81.574 46.748 81.062 47.756C80.934 47.996 80.806 48.188 80.678 48.332C80.55 48.476 80.398 48.548 80.222 48.548C79.982 48.548 79.79 48.484 79.646 48.356C79.518 48.212 79.406 48.06 79.31 47.9C78.782 47.02 78.262 46.044 77.75 44.972C77.238 43.9 76.822 42.852 76.502 41.828C76.47 41.748 76.47 41.66 76.502 41.564C76.55 41.452 76.614 41.38 76.694 41.348C76.854 41.268 77.062 41.26 77.318 41.324C77.51 41.404 77.702 41.548 77.894 41.756C78.086 41.964 78.238 42.18 78.35 42.404C78.446 42.628 78.558 42.884 78.686 43.172C78.814 43.46 78.95 43.772 79.094 44.108C79.254 44.428 79.414 44.748 79.574 45.068C79.734 45.388 79.894 45.676 80.054 45.932C80.326 45.452 80.614 44.94 80.918 44.396C81.238 43.836 81.558 43.276 81.878 42.716C82.198 42.14 82.518 41.588 82.838 41.06C83.174 40.532 83.502 40.06 83.822 39.644C83.902 39.532 84.014 39.468 84.158 39.452C84.302 39.436 84.462 39.492 84.638 39.62C85.038 39.924 85.166 40.26 85.022 40.628Z" fill="black"/>
<path d="M92.4451 43.7C91.8211 44.068 91.1491 44.356 90.4291 44.564C89.7091 44.756 88.9331 44.852 88.1011 44.852C88.1331 45.412 88.2931 45.86 88.5811 46.196C88.8691 46.516 89.2291 46.708 89.6611 46.772C89.9171 46.804 90.1731 46.796 90.4291 46.748C90.7011 46.7 90.9491 46.628 91.1731 46.532C91.4131 46.42 91.6291 46.3 91.8211 46.172C92.0131 46.044 92.1811 45.916 92.3251 45.788C92.4691 45.66 92.6211 45.58 92.7811 45.548C92.9411 45.5 93.0611 45.492 93.1411 45.524C93.3651 45.604 93.4451 45.844 93.3811 46.244C93.1251 46.756 92.7571 47.196 92.2771 47.564C91.7971 47.916 91.2611 48.14 90.6691 48.236C90.1571 48.332 89.6291 48.308 89.0851 48.164C88.5411 48.02 88.0531 47.74 87.6211 47.324C87.2531 46.956 86.9731 46.524 86.7811 46.028C86.5891 45.532 86.4691 45.02 86.4211 44.492C86.3731 43.996 86.4131 43.524 86.5411 43.076C86.6851 42.628 86.9011 42.236 87.1891 41.9C87.4771 41.548 87.8371 41.26 88.2691 41.036C88.7011 40.812 89.2051 40.684 89.7811 40.652C90.4691 40.604 91.0931 40.732 91.6531 41.036C92.2131 41.34 92.6051 41.764 92.8291 42.308C92.9571 42.612 92.9891 42.876 92.9251 43.1C92.8771 43.324 92.7171 43.524 92.4451 43.7ZM89.6851 42.068C89.5251 42.1 89.3491 42.156 89.1571 42.236C88.9811 42.316 88.8131 42.42 88.6531 42.548C88.5091 42.66 88.3731 42.796 88.2451 42.956C88.1331 43.1 88.0691 43.268 88.0531 43.46C88.3251 43.46 88.6211 43.436 88.9411 43.388C89.2771 43.34 89.5971 43.284 89.9011 43.22C90.2211 43.14 90.5091 43.052 90.7651 42.956C91.0371 42.86 91.2611 42.756 91.4371 42.644C91.3091 42.34 91.0691 42.156 90.7171 42.092C90.3811 42.012 90.0371 42.004 89.6851 42.068Z" fill="black"/>
<path d="M99.5392 42.164C99.5072 41.988 99.4752 41.82 99.4432 41.66C99.4112 41.5 99.3312 41.396 99.2032 41.348C98.9312 41.268 98.6432 41.26 98.3392 41.324C98.0352 41.388 97.7552 41.492 97.4992 41.636C97.2432 41.764 97.0272 41.916 96.8512 42.092C96.6752 42.252 96.5792 42.396 96.5632 42.524C96.5152 42.764 96.5792 42.996 96.7552 43.22C96.9312 43.444 97.1872 43.668 97.5232 43.892C98.0832 44.228 98.6672 44.572 99.2752 44.924C99.8832 45.276 100.395 45.636 100.811 46.004C101.227 46.372 101.507 46.78 101.651 47.228C101.811 47.66 101.779 48.156 101.555 48.716C101.379 49.148 101.051 49.5 100.571 49.772C100.091 50.044 99.5632 50.26 98.9872 50.42C98.4112 50.564 97.8352 50.668 97.2592 50.732C96.6832 50.78 96.1952 50.804 95.7952 50.804C95.6992 50.804 95.5792 50.772 95.4352 50.708C95.3072 50.628 95.1792 50.54 95.0512 50.444C94.9392 50.348 94.8352 50.252 94.7392 50.156C94.6592 50.044 94.6192 49.948 94.6192 49.868C94.6192 49.58 94.7472 49.38 95.0032 49.268C95.2592 49.156 95.5232 49.1 95.7952 49.1C96.1792 49.1 96.5872 49.084 97.0192 49.052C97.4672 49.004 97.8912 48.94 98.2912 48.86C98.6912 48.764 99.0512 48.644 99.3712 48.5C99.6912 48.356 99.9152 48.172 100.043 47.948C100.155 47.756 100.083 47.532 99.8272 47.276C99.5872 47.004 99.2592 46.724 98.8432 46.436C98.4432 46.148 98.0032 45.868 97.5232 45.596C97.0592 45.324 96.6592 45.076 96.3232 44.852C95.9872 44.628 95.6992 44.364 95.4592 44.06C95.2192 43.74 95.0672 43.348 95.0032 42.884C94.9872 42.468 95.0752 42.068 95.2672 41.684C95.4592 41.3 95.7072 40.964 96.0112 40.676C96.3312 40.372 96.6912 40.132 97.0912 39.956C97.4912 39.78 97.8912 39.692 98.2912 39.692C98.9792 39.724 99.5472 39.916 99.9952 40.268C100.443 40.604 100.707 41.108 100.787 41.78C100.787 42.004 100.747 42.188 100.667 42.332C100.603 42.476 100.483 42.564 100.307 42.596C100.083 42.628 99.8992 42.604 99.7552 42.524C99.6272 42.428 99.5552 42.308 99.5392 42.164Z" fill="black"/>
<path d="M108.632 42.908C108.936 42.892 109.24 42.964 109.544 43.124C109.848 43.284 110 43.532 110 43.868C109.968 44.14 109.816 44.316 109.544 44.396C109.288 44.46 109.08 44.492 108.92 44.492C108.6 44.492 108.256 44.5 107.888 44.516C107.52 44.532 107.144 44.556 106.76 44.588C106.728 45.116 106.696 45.612 106.664 46.076C106.648 46.54 106.632 46.956 106.616 47.324C106.6 47.676 106.592 47.964 106.592 48.188C106.592 48.412 106.6 48.532 106.616 48.548C106.968 48.484 107.344 48.38 107.744 48.236C108.16 48.076 108.568 47.908 108.968 47.732C109.384 47.54 109.784 47.348 110.168 47.156C110.568 46.948 110.944 46.756 111.296 46.58C111.456 46.5 111.6 46.476 111.728 46.508C111.872 46.54 111.96 46.612 111.992 46.724C112.024 46.9 112 47.116 111.92 47.372C111.84 47.628 111.696 47.86 111.488 48.068C111.248 48.26 110.928 48.484 110.528 48.74C110.144 48.98 109.728 49.212 109.28 49.436C108.832 49.66 108.376 49.86 107.912 50.036C107.464 50.196 107.064 50.292 106.712 50.324C106.184 50.372 105.784 50.228 105.512 49.892C105.24 49.556 105.088 49.132 105.056 48.62C105.024 48.108 105.016 47.516 105.032 46.844C105.064 46.172 105.096 45.46 105.128 44.708C104.824 44.74 104.528 44.772 104.24 44.804C103.968 44.82 103.704 44.844 103.448 44.876C103.24 44.876 103.008 44.828 102.752 44.732C102.512 44.636 102.392 44.452 102.392 44.18C102.392 44.084 102.432 43.956 102.512 43.796C102.592 43.636 102.768 43.516 103.04 43.436C103.696 43.324 104.424 43.228 105.224 43.148C105.272 42.396 105.328 41.668 105.392 40.964C105.456 40.26 105.512 39.62 105.56 39.044C105.576 38.852 105.632 38.684 105.728 38.54C105.824 38.396 105.928 38.324 106.04 38.324C106.312 38.308 106.568 38.38 106.808 38.54C107.064 38.684 107.192 38.852 107.192 39.044C107.128 39.588 107.064 40.204 107 40.892C106.952 41.58 106.904 42.284 106.856 43.004C107.176 42.972 107.48 42.956 107.768 42.956C108.072 42.94 108.36 42.924 108.632 42.908Z" fill="black"/>
<path d="M118.789 43.7C118.165 44.068 117.493 44.356 116.773 44.564C116.053 44.756 115.277 44.852 114.445 44.852C114.477 45.412 114.637 45.86 114.925 46.196C115.213 46.516 115.573 46.708 116.005 46.772C116.261 46.804 116.517 46.796 116.773 46.748C117.045 46.7 117.293 46.628 117.517 46.532C117.757 46.42 117.973 46.3 118.165 46.172C118.357 46.044 118.525 45.916 118.669 45.788C118.813 45.66 118.965 45.58 119.125 45.548C119.285 45.5 119.405 45.492 119.485 45.524C119.709 45.604 119.789 45.844 119.725 46.244C119.469 46.756 119.101 47.196 118.621 47.564C118.141 47.916 117.605 48.14 117.013 48.236C116.501 48.332 115.973 48.308 115.429 48.164C114.885 48.02 114.397 47.74 113.965 47.324C113.597 46.956 113.317 46.524 113.125 46.028C112.933 45.532 112.813 45.02 112.765 44.492C112.717 43.996 112.757 43.524 112.885 43.076C113.029 42.628 113.245 42.236 113.533 41.9C113.821 41.548 114.181 41.26 114.613 41.036C115.045 40.812 115.549 40.684 116.125 40.652C116.813 40.604 117.437 40.732 117.997 41.036C118.557 41.34 118.949 41.764 119.173 42.308C119.301 42.612 119.333 42.876 119.269 43.1C119.221 43.324 119.061 43.524 118.789 43.7ZM116.029 42.068C115.869 42.1 115.693 42.156 115.501 42.236C115.325 42.316 115.157 42.42 114.997 42.548C114.853 42.66 114.717 42.796 114.589 42.956C114.477 43.1 114.413 43.268 114.397 43.46C114.669 43.46 114.965 43.436 115.285 43.388C115.621 43.34 115.941 43.284 116.245 43.22C116.565 43.14 116.853 43.052 117.109 42.956C117.381 42.86 117.605 42.756 117.781 42.644C117.653 42.34 117.413 42.156 117.061 42.092C116.725 42.012 116.381 42.004 116.029 42.068Z" fill="black"/>
<path d="M125.451 37.172C125.403 36.884 125.419 36.62 125.499 36.38C125.595 36.14 125.779 36.004 126.051 35.972C126.291 35.94 126.499 36.004 126.675 36.164C126.867 36.324 126.987 36.532 127.035 36.788C127.355 38.628 127.651 40.46 127.923 42.284C128.211 44.092 128.467 45.868 128.691 47.612C128.755 48.076 128.723 48.396 128.595 48.572C128.467 48.732 128.315 48.852 128.139 48.932C127.947 49.012 127.763 49.012 127.587 48.932C127.427 48.852 127.323 48.708 127.275 48.5L127.251 48.356L127.155 48.38C126.627 48.572 126.075 48.684 125.499 48.716C124.923 48.732 124.371 48.66 123.843 48.5C123.315 48.34 122.843 48.084 122.427 47.732C122.027 47.364 121.739 46.9 121.563 46.34C121.179 45.108 121.419 43.988 122.283 42.98C122.651 42.564 123.107 42.188 123.651 41.852C124.195 41.516 124.851 41.252 125.619 41.06L126.051 40.964L125.451 37.172ZM123.027 45.74C123.123 46.124 123.299 46.42 123.555 46.628C123.811 46.836 124.115 46.98 124.467 47.06C124.819 47.124 125.195 47.132 125.595 47.084C125.995 47.036 126.387 46.948 126.771 46.82L126.987 46.748L126.315 42.524L125.835 42.644C125.499 42.74 125.139 42.892 124.755 43.1C124.387 43.292 124.059 43.524 123.771 43.796C123.483 44.068 123.259 44.372 123.099 44.708C122.955 45.044 122.931 45.388 123.027 45.74Z" fill="black"/>
<path d="M131.845 48.956C131.925 49.532 131.685 49.86 131.125 49.94C130.837 49.972 130.597 49.892 130.405 49.7C130.229 49.508 130.117 49.276 130.069 49.004C130.021 48.716 130.037 48.436 130.117 48.164C130.213 47.892 130.389 47.74 130.645 47.708C130.965 47.66 131.237 47.78 131.461 48.068C131.685 48.34 131.813 48.636 131.845 48.956Z" fill="black"/>
<ellipse cx="199.104" cy="153.595" rx="32.1037" ry="5.49142" fill="url(#paint1_radial)"/>
<rect x="181.461" y="116.5" width="36.0117" height="36.0117" rx="18.0059" fill="#F58A8A" stroke="#D1E9E9"/>
<path fill-rule="evenodd" clip-rule="evenodd" d="M190.962 125.721C191.232 125.181 191.889 124.962 192.429 125.232L196.768 127.402C197.139 127.587 197.373 127.966 197.373 128.38C197.373 128.794 197.139 129.173 196.768 129.358L192.429 131.527C191.889 131.797 191.232 131.579 190.962 131.038C190.692 130.498 190.911 129.841 191.451 129.571L193.834 128.38L191.451 127.188C190.911 126.918 190.692 126.261 190.962 125.721Z" fill="#690000"/>
<path fill-rule="evenodd" clip-rule="evenodd" d="M207.978 125.721C207.708 125.181 207.051 124.962 206.511 125.232L202.171 127.402C201.801 127.587 201.567 127.966 201.567 128.38C201.567 128.794 201.801 129.173 202.171 129.358L206.511 131.527C207.051 131.797 207.708 131.579 207.978 131.038C208.248 130.498 208.029 129.841 207.489 129.571L205.105 128.38L207.489 127.188C208.029 126.918 208.248 126.261 207.978 125.721Z" fill="#690000"/>
<path fill-rule="evenodd" clip-rule="evenodd" d="M208.532 143.895C207.928 143.895 207.439 143.405 207.439 142.802C207.439 138.471 203.928 134.961 199.598 134.961C195.268 134.961 191.758 138.471 191.758 142.802C191.758 143.405 191.268 143.895 190.664 143.895C190.061 143.895 189.571 143.405 189.571 142.802C189.571 137.264 194.06 132.774 199.598 132.774C205.136 132.774 209.626 137.264 209.626 142.802C209.626 143.405 209.136 143.895 208.532 143.895Z" fill="#690000"/>
<defs>
<filter id="filter0_d" x="156" y="11" width="87.2668" height="99.1185" filterUnits="userSpaceOnUse" color-interpolation-filters="sRGB">
<feFlood flood-opacity="0" result="BackgroundImageFix"/>
<feColorMatrix in="SourceAlpha" type="matrix" values="0 0 0 0 0 0 0 0 0 0 0 0 0 0 0 0 0 0 127 0"/>
<feOffset dy="4"/>
<feGaussianBlur stdDeviation="2"/>
<feColorMatrix type="matrix" values="0 0 0 0 0 0 0 0 0 0 0 0 0 0 0 0 0 0 0.2 0"/>
<feBlend mode="normal" in2="BackgroundImageFix" result="effect1_dropShadow"/>
<feBlend mode="normal" in="SourceGraphic" in2="effect1_dropShadow" result="shape"/>
</filter>
<filter id="filter1_d" x="44" y="0" width="102.945" height="93.6363" filterUnits="userSpaceOnUse" color-interpolation-filters="sRGB">
<feFlood flood-opacity="0" result="BackgroundImageFix"/>
<feColorMatrix in="SourceAlpha" type="matrix" values="0 0 0 0 0 0 0 0 0 0 0 0 0 0 0 0 0 0 127 0"/>
<feOffset dy="4"/>
<feGaussianBlur stdDeviation="2"/>
<feColorMatrix type="matrix" values="0 0 0 0 0 0 0 0 0 0 0 0 0 0 0 0 0 0 0.2 0"/>
<feBlend mode="normal" in2="BackgroundImageFix" result="effect1_dropShadow"/>
<feBlend mode="normal" in="SourceGraphic" in2="effect1_dropShadow" result="shape"/>
</filter>
<radialGradient id="paint0_radial" cx="0" cy="0" r="1" gradientUnits="userSpaceOnUse" gradientTransform="translate(112.156 153.524) rotate(90) scale(5.49142 32.1037)">
<stop stop-color="#3E8F8F"/>
<stop offset="1" stop-color="#97C4C4" stop-opacity="0"/>
</radialGradient>
<radialGradient id="paint1_radial" cx="0" cy="0" r="1" gradientUnits="userSpaceOnUse" gradientTransform="translate(199.104 153.595) rotate(90) scale(5.49142 32.1037)">
<stop stop-color="#3E8F8F"/>
<stop offset="1" stop-color="#97C4C4" stop-opacity="0"/>
</radialGradient>
</defs>
</svg>
