<svg xmlns="http://www.w3.org/2000/svg" width="300" height="322" fill="none" viewBox="0 0 300 322">
    <rect width="300" height="300" y="21.877" fill="#D1E9E9" rx="150"/>
    <path fill="#00A7A7" d="M62.427 186.225h8.928v1.728l-5.814 11.088h-2.484l5.796-10.926h-6.426v-1.89zm15.941 4.626c.804 0 1.512.174 2.124.522a3.499 3.499 0 0 1 1.422 1.44c.336.612.504 1.32.504 2.124 0 .84-.192 1.584-.576 2.232-.384.636-.936 1.134-1.656 1.494-.72.348-1.554.522-2.502.522a7.365 7.365 0 0 1-2.376-.396c-.78-.276-1.422-.642-1.926-1.098l.774-1.692c1.164.888 2.352 1.332 3.564 1.332.804 0 1.416-.198 1.836-.594.432-.408.648-.984.648-1.728 0-.708-.222-1.272-.666-1.692-.432-.432-1.014-.648-1.746-.648-.504 0-.978.096-1.422.288-.444.18-.834.45-1.17.81h-1.404v-7.542h8.028v1.8h-5.76v3.492c.648-.444 1.416-.666 2.304-.666zm8.723 3.024c-1.008 0-1.8-.33-2.376-.99-.564-.672-.846-1.65-.846-2.934 0-1.272.282-2.238.846-2.898.576-.672 1.368-1.008 2.376-1.008 1.02 0 1.818.336 2.394 1.008.576.66.864 1.626.864 2.898 0 1.284-.288 2.262-.864 2.934-.576.66-1.374.99-2.394.99zm1.854 5.166h-1.98l7.416-12.816h1.998l-7.434 12.816zm-1.854-6.624c.468 0 .81-.192 1.026-.576.216-.384.324-1.014.324-1.89 0-.852-.114-1.47-.342-1.854-.216-.396-.552-.594-1.008-.594-.444 0-.774.198-.99.594-.216.384-.324 1.002-.324 1.854 0 .864.108 1.494.324 1.89.216.384.546.576.99.576zm9.144 6.75c-1.02 0-1.818-.33-2.394-.99-.564-.672-.846-1.656-.846-2.952 0-1.272.282-2.238.846-2.898.576-.66 1.374-.99 2.394-.99s1.812.33 2.376.99c.576.66.864 1.632.864 2.916s-.288 2.262-.864 2.934c-.564.66-1.356.99-2.376.99zm0-1.458c.456 0 .792-.192 1.008-.576.216-.396.324-1.026.324-1.89 0-.852-.114-1.47-.342-1.854-.216-.396-.546-.594-.99-.594-.456 0-.792.198-1.008.594-.216.384-.324 1.002-.324 1.854 0 .864.108 1.494.324 1.89.216.384.552.576 1.008.576z"/>
    <path fill="#000" d="M102.933 192.813l-1.278-.936 1.656-2.034-2.556-.702.504-1.512 2.448.936-.126-2.628h1.584l-.126 2.61 2.466-.918.486 1.512-2.538.684 1.656 2.052-1.296.936-1.44-2.196-1.44 2.196zm19.633-2.826v9.054h-1.44v-1.638a2.907 2.907 0 0 1-1.206 1.314c-.528.3-1.146.45-1.854.45-.804 0-1.512-.192-2.124-.576-.6-.384-1.068-.924-1.404-1.62-.324-.708-.486-1.53-.486-2.466 0-.936.168-1.758.504-2.466.336-.72.804-1.278 1.404-1.674.612-.396 1.314-.594 2.106-.594.708 0 1.326.156 1.854.468.528.312.93.75 1.206 1.314v-1.566h1.44zm-4.212 7.974c.888 0 1.572-.3 2.052-.9.48-.612.72-1.476.72-2.592s-.24-1.974-.72-2.574c-.48-.6-1.164-.9-2.052-.9-.888 0-1.584.312-2.088.936-.492.612-.738 1.47-.738 2.574 0 1.104.246 1.956.738 2.556.492.6 1.188.9 2.088.9zm11.243-8.19c.3 0 .576.036.828.108l-.036 1.332a2.9 2.9 0 0 0-.954-.144c-.876 0-1.53.276-1.962.828-.42.54-.63 1.2-.63 1.98v5.166h-1.458v-6.516c0-.936-.048-1.782-.144-2.538h1.386l.144 1.674c.228-.612.594-1.08 1.098-1.404.504-.324 1.08-.486 1.728-.486zm9.712 4.698h-6.642c.012 1.152.276 2.022.792 2.61.528.588 1.29.882 2.286.882 1.056 0 2.028-.354 2.916-1.062l.486 1.062c-.396.372-.906.666-1.53.882a5.638 5.638 0 0 1-1.89.324c-1.416 0-2.526-.414-3.33-1.242-.804-.84-1.206-1.986-1.206-3.438 0-.924.18-1.74.54-2.448.36-.72.864-1.278 1.512-1.674.648-.396 1.386-.594 2.214-.594 1.2 0 2.142.396 2.826 1.188.684.78 1.026 1.86 1.026 3.24v.27zm-3.834-3.564c-.756 0-1.374.228-1.854.684-.468.456-.768 1.098-.9 1.926h5.274c-.072-.852-.324-1.5-.756-1.944-.42-.444-1.008-.666-1.764-.666zm15.259-1.134c2.172 0 3.258 1.194 3.258 3.582v5.688h-1.458v-5.616c0-.84-.168-1.452-.504-1.836-.336-.396-.864-.594-1.584-.594-.84 0-1.512.258-2.016.774s-.756 1.212-.756 2.088v5.184h-1.458v-6.516c0-.936-.048-1.782-.144-2.538h1.386l.144 1.62a2.95 2.95 0 0 1 1.242-1.35c.552-.324 1.182-.486 1.89-.486zm9.755 9.396c-.852 0-1.602-.192-2.25-.576a3.92 3.92 0 0 1-1.512-1.638c-.348-.708-.522-1.536-.522-2.484s.174-1.776.522-2.484a3.92 3.92 0 0 1 1.512-1.638c.648-.384 1.398-.576 2.25-.576.852 0 1.602.192 2.25.576.648.384 1.146.93 1.494 1.638.36.708.54 1.536.54 2.484s-.18 1.776-.54 2.484a3.806 3.806 0 0 1-1.494 1.638c-.648.384-1.398.576-2.25.576zm0-1.206c.9 0 1.59-.294 2.07-.882.48-.6.72-1.47.72-2.61 0-1.104-.246-1.956-.738-2.556-.492-.612-1.176-.918-2.052-.918-.888 0-1.578.306-2.07.918-.492.6-.738 1.452-.738 2.556 0 1.14.24 2.01.72 2.61.492.588 1.188.882 2.088.882zm8.483-6.822v4.95c0 .672.138 1.146.414 1.422.276.264.666.396 1.17.396.336 0 .66-.054.972-.162v1.242c-.372.12-.792.18-1.26.18-.864 0-1.542-.24-2.034-.72-.48-.492-.72-1.212-.72-2.16v-5.148h-1.764v-1.152h1.764v-2.322l1.458-.522v2.844h2.592v1.152h-2.592zm12.786 8.028c-.852 0-1.602-.192-2.25-.576a3.92 3.92 0 0 1-1.512-1.638c-.348-.708-.522-1.536-.522-2.484s.174-1.776.522-2.484a3.92 3.92 0 0 1 1.512-1.638c.648-.384 1.398-.576 2.25-.576.852 0 1.602.192 2.25.576.648.384 1.146.93 1.494 1.638.36.708.54 1.536.54 2.484s-.18 1.776-.54 2.484a3.806 3.806 0 0 1-1.494 1.638c-.648.384-1.398.576-2.25.576zm0-1.206c.9 0 1.59-.294 2.07-.882.48-.6.72-1.47.72-2.61 0-1.104-.246-1.956-.738-2.556-.492-.612-1.176-.918-2.052-.918-.888 0-1.578.306-2.07.918-.492.6-.738 1.452-.738 2.556 0 1.14.24 2.01.72 2.61.492.588 1.188.882 2.088.882zm11.075-8.19c2.172 0 3.258 1.194 3.258 3.582v5.688h-1.458v-5.616c0-.84-.168-1.452-.504-1.836-.336-.396-.864-.594-1.584-.594-.84 0-1.512.258-2.016.774s-.756 1.212-.756 2.088v5.184h-1.458v-6.516c0-.936-.048-1.782-.144-2.538h1.386l.144 1.62a2.95 2.95 0 0 1 1.242-1.35c.552-.324 1.182-.486 1.89-.486zm12.649 1.368v4.95c0 .672.138 1.146.414 1.422.276.264.666.396 1.17.396.336 0 .66-.054.972-.162v1.242c-.372.12-.792.18-1.26.18-.864 0-1.542-.24-2.034-.72-.48-.492-.72-1.212-.72-2.16v-5.148h-1.764v-1.152h1.764v-2.322l1.458-.522v2.844h2.592v1.152h-2.592zm8.561-1.368c.3 0 .576.036.828.108l-.036 1.332a2.9 2.9 0 0 0-.954-.144c-.876 0-1.53.276-1.962.828-.42.54-.63 1.2-.63 1.98v5.166h-1.458v-6.516c0-.936-.048-1.782-.144-2.538h1.386l.144 1.674c.228-.612.594-1.08 1.098-1.404.504-.324 1.08-.486 1.728-.486zm10.107.216v9.054h-1.44v-1.638a2.907 2.907 0 0 1-1.206 1.314c-.528.3-1.146.45-1.854.45-.804 0-1.512-.192-2.124-.576-.6-.384-1.068-.924-1.404-1.62-.324-.708-.486-1.53-.486-2.466 0-.936.168-1.758.504-2.466.336-.72.804-1.278 1.404-1.674.612-.396 1.314-.594 2.106-.594.708 0 1.326.156 1.854.468.528.312.93.75 1.206 1.314v-1.566h1.44zm-4.212 7.974c.888 0 1.572-.3 2.052-.9.48-.612.72-1.476.72-2.592s-.24-1.974-.72-2.574c-.48-.6-1.164-.9-2.052-.9-.888 0-1.584.312-2.088.936-.492.612-.738 1.47-.738 2.574 0 1.104.246 1.956.738 2.556.492.6 1.188.9 2.088.9zm10.829 1.206c-.876 0-1.644-.192-2.304-.576a3.945 3.945 0 0 1-1.512-1.62c-.348-.708-.522-1.53-.522-2.466 0-.936.18-1.758.54-2.466.36-.72.87-1.278 1.53-1.674.672-.396 1.452-.594 2.34-.594.612 0 1.2.108 1.764.324.576.204 1.05.492 1.422.864l-.486 1.08c-.456-.36-.9-.624-1.332-.792a3.46 3.46 0 0 0-1.296-.252c-.924 0-1.65.312-2.178.936-.528.612-.792 1.47-.792 2.574 0 1.092.258 1.944.774 2.556.528.6 1.26.9 2.196.9a3.46 3.46 0 0 0 1.296-.252c.432-.168.876-.432 1.332-.792l.486 1.08c-.384.36-.87.648-1.458.864a5.352 5.352 0 0 1-1.8.306zm13.125-.126h-1.908l-4.644-4.356v4.356h-1.458v-13.248h1.458v8.352l4.266-4.14h1.854l-4.536 4.338 4.968 4.698zM81.931 212.987h1.44l-3.348 9.054h-1.404l-2.592-7.074-2.574 7.074h-1.404l-3.348-9.054h1.53l2.556 7.308 2.646-7.308h1.278l2.61 7.326 2.61-7.326zm3.332 9.054v-9.054h1.458v9.054h-1.458zm-.144-12.888h1.782v1.656H85.12v-1.656zm6.377 4.986v4.95c0 .672.138 1.146.414 1.422.276.264.666.396 1.17.396.336 0 .66-.054.972-.162v1.242c-.372.12-.792.18-1.26.18-.864 0-1.542-.24-2.034-.72-.48-.492-.72-1.212-.72-2.16v-5.148h-1.764v-1.152h1.764v-2.322l1.458-.522v2.844h2.592v1.152h-2.592zm8.867-1.368c2.172 0 3.258 1.194 3.258 3.582v5.688h-1.458v-5.616c0-.84-.168-1.452-.504-1.836-.336-.396-.864-.594-1.584-.594-.84 0-1.512.258-2.016.774s-.756 1.212-.756 2.088v5.184h-1.458v-13.248h1.458v5.67a2.955 2.955 0 0 1 1.224-1.26c.54-.288 1.152-.432 1.836-.432zm12.649 1.368v4.95c0 .672.138 1.146.414 1.422.276.264.666.396 1.17.396.336 0 .66-.054.972-.162v1.242c-.372.12-.792.18-1.26.18-.864 0-1.542-.24-2.034-.72-.48-.492-.72-1.212-.72-2.16v-5.148h-1.764v-1.152h1.764v-2.322l1.458-.522v2.844h2.592v1.152h-2.592zm8.867-1.368c2.172 0 3.258 1.194 3.258 3.582v5.688h-1.458v-5.616c0-.84-.168-1.452-.504-1.836-.336-.396-.864-.594-1.584-.594-.84 0-1.512.258-2.016.774s-.756 1.212-.756 2.088v5.184h-1.458v-13.248h1.458v5.67a2.955 2.955 0 0 1 1.224-1.26c.54-.288 1.152-.432 1.836-.432zm13.589 4.698h-6.642c.012 1.152.276 2.022.792 2.61.528.588 1.29.882 2.286.882 1.056 0 2.028-.354 2.916-1.062l.486 1.062c-.396.372-.906.666-1.53.882a5.638 5.638 0 0 1-1.89.324c-1.416 0-2.526-.414-3.33-1.242-.804-.84-1.206-1.986-1.206-3.438 0-.924.18-1.74.54-2.448.36-.72.864-1.278 1.512-1.674.648-.396 1.386-.594 2.214-.594 1.2 0 2.142.396 2.826 1.188.684.78 1.026 1.86 1.026 3.24v.27zm-3.834-3.564c-.756 0-1.374.228-1.854.684-.468.456-.768 1.098-.9 1.926h5.274c-.072-.852-.324-1.5-.756-1.944-.42-.444-1.008-.666-1.764-.666zm6.047 8.136v-9.054h1.458v9.054h-1.458zm-.144-12.888h1.782v1.656h-1.782v-1.656zm8.645 3.618c.3 0 .576.036.828.108l-.036 1.332a2.9 2.9 0 0 0-.954-.144c-.876 0-1.53.276-1.962.828-.42.54-.63 1.2-.63 1.98v5.166h-1.458v-6.516c0-.936-.048-1.782-.144-2.538h1.386l.144 1.674c.228-.612.594-1.08 1.098-1.404.504-.324 1.08-.486 1.728-.486zm11.215 0c.3 0 .576.036.828.108l-.036 1.332a2.9 2.9 0 0 0-.954-.144c-.876 0-1.53.276-1.962.828-.42.54-.63 1.2-.63 1.98v5.166h-1.458v-6.516c0-.936-.048-1.782-.144-2.538h1.386l.144 1.674c.228-.612.594-1.08 1.098-1.404.504-.324 1.08-.486 1.728-.486zm9.712 4.698h-6.642c.012 1.152.276 2.022.792 2.61.528.588 1.29.882 2.286.882 1.056 0 2.028-.354 2.916-1.062l.486 1.062c-.396.372-.906.666-1.53.882a5.638 5.638 0 0 1-1.89.324c-1.416 0-2.526-.414-3.33-1.242-.804-.84-1.206-1.986-1.206-3.438 0-.924.18-1.74.54-2.448.36-.72.864-1.278 1.512-1.674.648-.396 1.386-.594 2.214-.594 1.2 0 2.142.396 2.826 1.188.684.78 1.026 1.86 1.026 3.24v.27zm-3.834-3.564c-.756 0-1.374.228-1.854.684-.468.456-.768 1.098-.9 1.926h5.274c-.072-.852-.324-1.5-.756-1.944-.42-.444-1.008-.666-1.764-.666zm7.938.234v4.95c0 .672.138 1.146.414 1.422.276.264.666.396 1.17.396.336 0 .66-.054.972-.162v1.242c-.372.12-.792.18-1.26.18-.864 0-1.542-.24-2.034-.72-.48-.492-.72-1.212-.72-2.16v-5.148h-1.764v-1.152h1.764v-2.322l1.458-.522v2.844h2.592v1.152h-2.592zm4.349 7.902v-9.054h1.458v9.054h-1.458zm-.144-12.888h1.782v1.656h-1.782v-1.656zm8.645 3.618c.3 0 .576.036.828.108l-.036 1.332a2.9 2.9 0 0 0-.954-.144c-.876 0-1.53.276-1.962.828-.42.54-.63 1.2-.63 1.98v5.166h-1.458v-6.516c0-.936-.048-1.782-.144-2.538h1.386l.144 1.674c.228-.612.594-1.08 1.098-1.404.504-.324 1.08-.486 1.728-.486zm9.712 4.698h-6.642c.012 1.152.276 2.022.792 2.61.528.588 1.29.882 2.286.882 1.056 0 2.028-.354 2.916-1.062l.486 1.062c-.396.372-.906.666-1.53.882a5.638 5.638 0 0 1-1.89.324c-1.416 0-2.526-.414-3.33-1.242-.804-.84-1.206-1.986-1.206-3.438 0-.924.18-1.74.54-2.448.36-.72.864-1.278 1.512-1.674.648-.396 1.386-.594 2.214-.594 1.2 0 2.142.396 2.826 1.188.684.78 1.026 1.86 1.026 3.24v.27zm-3.834-3.564c-.756 0-1.374.228-1.854.684-.468.456-.768 1.098-.9 1.926h5.274c-.072-.852-.324-1.5-.756-1.944-.42-.444-1.008-.666-1.764-.666zm16.091-1.134c2.004 0 3.006 1.194 3.006 3.582v5.688h-1.458v-5.616c0-.852-.15-1.47-.45-1.854-.288-.384-.762-.576-1.422-.576-.768 0-1.368.258-1.8.774-.432.516-.648 1.218-.648 2.106v5.166h-1.458v-5.616c0-.84-.15-1.452-.45-1.836-.3-.396-.78-.594-1.44-.594-.768 0-1.374.258-1.818.774-.432.516-.648 1.218-.648 2.106v5.166h-1.458v-6.516c0-.936-.048-1.782-.144-2.538h1.386l.144 1.584c.252-.576.624-1.02 1.116-1.332.504-.312 1.086-.468 1.746-.468.72 0 1.308.144 1.764.432.456.288.792.732 1.008 1.332.276-.54.678-.966 1.206-1.278a3.465 3.465 0 0 1 1.818-.486zm13.354 4.698h-6.642c.012 1.152.276 2.022.792 2.61.528.588 1.29.882 2.286.882 1.056 0 2.028-.354 2.916-1.062l.486 1.062c-.396.372-.906.666-1.53.882a5.638 5.638 0 0 1-1.89.324c-1.416 0-2.526-.414-3.33-1.242-.804-.84-1.206-1.986-1.206-3.438 0-.924.18-1.74.54-2.448.36-.72.864-1.278 1.512-1.674.648-.396 1.386-.594 2.214-.594 1.2 0 2.142.396 2.826 1.188.684.78 1.026 1.86 1.026 3.24v.27zm-3.834-3.564c-.756 0-1.374.228-1.854.684-.468.456-.768 1.098-.9 1.926h5.274c-.072-.852-.324-1.5-.756-1.944-.42-.444-1.008-.666-1.764-.666zm10.565-1.134c2.172 0 3.258 1.194 3.258 3.582v5.688h-1.458v-5.616c0-.84-.168-1.452-.504-1.836-.336-.396-.864-.594-1.584-.594-.84 0-1.512.258-2.016.774s-.756 1.212-.756 2.088v5.184h-1.458v-6.516c0-.936-.048-1.782-.144-2.538h1.386l.144 1.62a2.95 2.95 0 0 1 1.242-1.35c.552-.324 1.182-.486 1.89-.486zm7.956 1.368v4.95c0 .672.138 1.146.414 1.422.276.264.666.396 1.17.396.336 0 .66-.054.972-.162v1.242c-.372.12-.792.18-1.26.18-.864 0-1.542-.24-2.034-.72-.48-.492-.72-1.212-.72-2.16v-5.148h-1.764v-1.152h1.764v-2.322l1.458-.522v2.844h2.592v1.152h-2.592zm-98.202 21.632c.792 0 1.494.198 2.106.594.612.396 1.086.954 1.422 1.674.336.708.504 1.53.504 2.466 0 .936-.168 1.758-.504 2.466-.336.696-.81 1.236-1.422 1.62-.6.384-1.302.576-2.106.576-.708 0-1.326-.156-1.854-.468a3.025 3.025 0 0 1-1.206-1.332v5.562h-1.458v-10.404c0-.936-.048-1.782-.144-2.538h1.386l.144 1.746a2.94 2.94 0 0 1 1.188-1.44c.552-.348 1.2-.522 1.944-.522zm-.27 8.19c.888 0 1.572-.3 2.052-.9.492-.6.738-1.452.738-2.556s-.246-1.962-.738-2.574c-.492-.624-1.176-.936-2.052-.936-.9 0-1.59.3-2.07.9-.48.6-.72 1.458-.72 2.574 0 1.116.24 1.98.72 2.592.48.6 1.17.9 2.07.9zm6.545 1.08v-13.248h1.458v13.248h-1.458zm12.263-9.054v9.054h-1.44v-1.638a2.907 2.907 0 0 1-1.206 1.314c-.528.3-1.146.45-1.854.45-.804 0-1.512-.192-2.124-.576-.6-.384-1.068-.924-1.404-1.62-.324-.708-.486-1.53-.486-2.466 0-.936.168-1.758.504-2.466.336-.72.804-1.278 1.404-1.674.612-.396 1.314-.594 2.106-.594.708 0 1.326.156 1.854.468.528.312.93.75 1.206 1.314v-1.566h1.44zm-4.212 7.974c.888 0 1.572-.3 2.052-.9.48-.612.72-1.476.72-2.592s-.24-1.974-.72-2.574c-.48-.6-1.164-.9-2.052-.9-.888 0-1.584.312-2.088.936-.492.612-.738 1.47-.738 2.574 0 1.104.246 1.956.738 2.556.492.6 1.188.9 2.088.9zm11.549-8.19c2.172 0 3.258 1.194 3.258 3.582v5.688h-1.458v-5.616c0-.84-.168-1.452-.504-1.836-.336-.396-.864-.594-1.584-.594-.84 0-1.512.258-2.016.774s-.756 1.212-.756 2.088v5.184h-1.458v-6.516c0-.936-.048-1.782-.144-2.538h1.386l.144 1.62a2.95 2.95 0 0 1 1.242-1.35c.552-.324 1.182-.486 1.89-.486zm9.072 9.396c-1.524 0-2.73-.39-3.618-1.17l.486-1.08c.492.384.99.66 1.494.828a5.331 5.331 0 0 0 1.692.252c.684 0 1.2-.114 1.548-.342.36-.24.54-.582.54-1.026 0-.36-.12-.648-.36-.864-.24-.216-.636-.384-1.188-.504l-1.53-.36c-.756-.168-1.344-.468-1.764-.9a2.176 2.176 0 0 1-.612-1.548c0-.792.318-1.434.954-1.926.636-.504 1.476-.756 2.52-.756.636 0 1.236.102 1.8.306a3.81 3.81 0 0 1 1.422.882l-.486 1.062c-.852-.708-1.764-1.062-2.736-1.062-.648 0-1.152.126-1.512.378-.348.24-.522.582-.522 1.026 0 .372.108.666.324.882.228.216.588.384 1.08.504l1.53.378c.84.192 1.464.492 1.872.9.408.396.612.918.612 1.566 0 .78-.318 1.404-.954 1.872-.636.468-1.5.702-2.592.702z"/>
    <path fill="#83C0C0" d="M67.019 57.199h168.808v103.322H67.019z"/>
    <mask id="a" width="169" height="104" x="67" y="57" maskUnits="userSpaceOnUse">
        <path fill="#00A7A7" d="M67.019 57.199h168.808v103.322H67.019z"/>
    </mask>
    <g fill="#fff" mask="url(#a)">
        <path d="M164.379 9.176l89.742 142.977-4.224 2.651-89.742-142.977 4.224-2.651z"/>
        <path d="M67.019 86.303h168.808v2.91H67.019zM67.019 123.412h168.808v2.91H67.019z"/>
    </g>
    <path fill="#64ACAC" d="M178.326 67.496l3.195 4.213-18.171-.839-1.409-1.857 15.442.712-1.786-2.355 2.729.126zM186.39 105.546c2.138.978 3.765 1.678 4.881 2.101 1.116.422 2.096.653 2.94.692.845.039 1.403-.133 1.674-.517.292-.382.2-.888-.277-1.516-.836-1.103-2.416-2.061-4.74-2.874l.273-1.751c1.834.654 3.371 1.35 4.609 2.088a11.021 11.021 0 0 1 3.142 2.8c.856 1.128 1.042 2.09.559 2.885-.464.795-1.661 1.148-3.591 1.059-1.085-.05-2.257-.277-3.514-.682-1.258-.404-3.025-1.123-5.303-2.157l-7.429-3.387 4.626 6.098-3.408-.157-6.974-9.196 3.015.139 9.517 4.375zM214.607 142.71l3.665.169 6.908 9.108-3.211-.148-9.452-4.068c1.011 1.422 1.146 2.503.405 3.243-.719.74-2.009 1.067-3.87.981a17.117 17.117 0 0 1-7.097-1.896c-2.231-1.134-3.987-2.548-5.271-4.24-1.284-1.693-1.69-3.309-1.218-4.849l4.16 1.267c-.428 1.212-.112 2.516.946 3.912.687.905 1.576 1.663 2.666 2.272a7.961 7.961 0 0 0 3.538 1.023c1.257.058 2.01-.223 2.259-.842.249-.619-.066-1.507-.944-2.665a10.231 10.231 0 0 0-1.65-1.688l3.141.145 9.298 3.91-4.273-5.634z"/>
    <ellipse cx="73.459" cy="149.376" fill="url(#b)" rx="32.664" ry="4.611"/>
    <path fill="#F58A8A" d="M61.944 135.542c6.609-5.696 13.032-16.909 21.756-16.909 6.773 0 12.263 5.49 12.263 12.263v3.017c0 8.439-6.841 15.28-15.28 15.28h-18.74c1.003 0 1.486-1.463.762-2.155-2.712-2.589-5.827-7.13-.761-11.496z"/>
    <path fill="#690000" fill-rule="evenodd" d="M84.696 126.596a1.006 1.006 0 0 1 1.348-.449l3.99 1.994a1.007 1.007 0 0 1 0 1.799l-3.99 1.994a1.006 1.006 0 0 1-.899-1.798l2.191-1.095-2.19-1.096a1.005 1.005 0 0 1-.45-1.349z" clip-rule="evenodd"/>
    <rect width="18.446" height="3.074" x="50.784" y="127.856" fill="#00A7A7" rx="1.537"/>
    <rect width="18.446" height="3.074" x="40.024" y="133.236" fill="#00A7A7" rx="1.537"/>
    <rect width="10.76" height="3.074" x="51.552" y="138.616" fill="#00A7A7" rx="1.537"/>
    <ellipse cx="106.038" cy="110.196" fill="url(#c)" rx="32.664" ry="4.611"/>
    <path fill="#F58A8A" d="M94.523 96.362c6.609-5.696 13.032-16.909 21.757-16.909 6.772 0 12.262 5.49 12.262 12.262v3.018c0 8.439-6.841 15.28-15.28 15.28H94.523c1.002 0 1.486-1.463.76-2.155-2.711-2.589-5.826-7.13-.76-11.496z"/>
    <rect width="18.446" height="3.074" x="83.366" y="88.676" fill="#00A7A7" rx="1.537"/>
    <rect width="18.446" height="3.074" x="72.606" y="94.056" fill="#00A7A7" rx="1.537"/>
    <path fill="#690000" d="M117.263 87.54c-1.989 0-3.855 1.587-4.582 2.716-.31.481.22.9.795.755 1.015-.255 2.52-.563 3.787-.536 1.206.026 2.518.298 3.432.53.577.146 1.113-.274.804-.76-.714-1.125-2.254-2.705-4.236-2.705z"/>
    <path fill="url(#d)" d="M102.694 100.349c-3.703.471-6.108-1.637-6.467-4.453-.359-2.816 1.464-5.273 5.168-5.745 3.704-.472 9.37 4.009 9.37 4.009s-4.367 5.717-8.071 6.189z"/>
    <path fill="url(#e)" d="M101.849 78.893c-1.442-1.095-1.527-2.68-.66-3.823.868-1.142 2.36-1.408 3.802-.313 1.442 1.096 1.816 4.654 1.816 4.654s-3.516.577-4.958-.518z"/>
    <ellipse cx="211.299" cy="69.64" fill="url(#f)" rx="21.409" ry="5.12"/>
    <path fill="#fff" stroke="#D1E9E9" stroke-width="2" d="M211.828 5.934c-13.078-.036-23.709 10.536-23.745 23.615-.023 8.21 4.137 15.456 10.468 19.72a23.57 23.57 0 0 0 13.147 4.025c4.53.013 8.77-1.25 12.376-3.448 6.796-4.144 11.346-11.62 11.369-20.167.036-13.078-10.537-23.71-23.615-23.745z"/>
    <path fill="#6CB1C7" d="M189.197 24.683a1.012 1.012 0 0 1 .018-1.148l1.278-1.794a1.012 1.012 0 0 1 1.649 0l1.278 1.794c.243.342.251.798.018 1.148l-1.277 1.922a1.013 1.013 0 0 1-1.687 0l-1.277-1.922z"/>
    <path fill="#B9C154" d="M183.377 12.969a1.613 1.613 0 0 1 .029-1.83l2.036-2.858a1.615 1.615 0 0 1 2.63 0l2.035 2.858c.388.545.4 1.273.03 1.83l-2.036 3.064a1.614 1.614 0 0 1-2.689 0l-2.035-3.064z"/>
    <path fill="#70C2DA" d="M194.11 4.111a1.235 1.235 0 0 1 .023-1.402l1.56-2.19a1.236 1.236 0 0 1 2.014 0l1.56 2.19c.298.418.307.975.023 1.402l-1.56 2.348a1.237 1.237 0 0 1-2.06 0l-1.56-2.348z"/>
    <path fill="#007814" fill-rule="evenodd" d="M200.977 27.462a1.34 1.34 0 0 1 1.336 1.344c-.015 5.307 4.276 9.62 9.583 9.635 5.307.015 9.62-4.275 9.635-9.582a1.34 1.34 0 0 1 2.68.007c-.019 6.787-5.536 12.274-12.323 12.255-6.787-.019-12.274-5.536-12.255-12.323a1.34 1.34 0 0 1 1.344-1.336z" clip-rule="evenodd"/>
    <path fill="#00A7A7" fill-rule="evenodd" d="M198.081 61.077c.578.51.633 1.393.123 1.971l-5.007 5.673a1.397 1.397 0 0 1-2.094-1.848l5.007-5.673a1.397 1.397 0 0 1 1.971-.123zM192.206 60.699c.578.51.633 1.393.122 1.97l-5.007 5.674a1.397 1.397 0 0 1-2.094-1.848l5.008-5.673a1.396 1.396 0 0 1 1.971-.123z" clip-rule="evenodd"/>
    <path stroke="#007814" stroke-linecap="round" stroke-width="2.5" d="M201.213 23.433a3.725 3.725 0 0 1 7.14 0M215.021 23.433a3.725 3.725 0 0 1 7.14 0"/>
    <defs>
        <radialGradient id="b" cx="0" cy="0" r="1" gradientTransform="matrix(0 4.61145 -32.6644 0 73.46 149.376)" gradientUnits="userSpaceOnUse">
            <stop stop-color="#3E8F8F"/>
            <stop offset="1" stop-color="#97C4C4" stop-opacity="0"/>
        </radialGradient>
        <radialGradient id="c" cx="0" cy="0" r="1" gradientTransform="matrix(0 4.61145 -32.6644 0 106.038 110.196)" gradientUnits="userSpaceOnUse">
            <stop stop-color="#3E8F8F"/>
            <stop offset="1" stop-color="#97C4C4" stop-opacity="0"/>
        </radialGradient>
        <linearGradient id="d" x1="111.316" x2="95.987" y1="94.225" y2="96.178" gradientUnits="userSpaceOnUse">
            <stop stop-color="#8AEAFF"/>
            <stop offset="1" stop-color="#3889AB"/>
        </linearGradient>
        <linearGradient id="e" x1="106.973" x2="101.007" y1="79.624" y2="75.091" gradientUnits="userSpaceOnUse">
            <stop stop-color="#8AEAFF"/>
            <stop offset="1" stop-color="#3889AB"/>
        </linearGradient>
        <radialGradient id="f" cx="0" cy="0" r="1" gradientTransform="matrix(0 5.11956 -21.4091 0 211.299 69.64)" gradientUnits="userSpaceOnUse">
            <stop stop-color="#6AAAAA"/>
            <stop offset="1" stop-color="#97C4C4" stop-opacity="0"/>
        </radialGradient>
    </defs>
</svg>
