<svg xmlns="http://www.w3.org/2000/svg" width="300" height="313" fill="none" viewBox="0 0 300 313">
    <path fill="#D1E9E9" d="M0 162.836c0-82.843 67.157-150 150-150s150 67.157 150 150-67.157 150-150 150-150-67.157-150-150z"/>
    <path stroke="#2770DC" stroke-width="2" d="M178.254 44.333a10.221 10.221 0 0 0-.466-.197 7.018 7.018 0 0 0-.806-.327 11.03 11.03 0 0 0-1.426-.379v-1.763H171.704v1.875c-.29.09-.569.2-.836.333-.505.237-.955.54-1.34.916-.391.367-.7.795-.92 1.28a3.733 3.733 0 0 0-.338 1.551c0 .626.113 1.222.363 1.767.242.527.591.989 1.033 1.383.417.372.901.698 1.443.983l.016.008.016.008a18.32 18.32 0 0 0 1.792.736l.007.003.007.002c.31.106.576.208.8.306l.03.013.031.012c.197.071.325.145.405.207l.034.027.037.024c.035.023.054.04.063.05.009.01.011.015.013.017l.014.029.015.026a.525.525 0 0 1 .025.198c0 .351-.1.462-.177.522-.125.097-.43.228-1.082.228-.192 0-.423-.032-.698-.11a11.352 11.352 0 0 1-.908-.3 23.222 23.222 0 0 1-.797-.372 4.659 4.659 0 0 1-.43-.23l-.925-.618-.516.985-.971 1.856-.443.846.825.481c.14.082.337.19.581.317l.031.016.032.014c.274.121.584.247.926.378l.007.002.007.003c.375.137.777.264 1.206.383l.019.005.02.005c.19.044.384.083.583.117V60.05H175.556v-2.294c.349-.114.678-.256.984-.43l.008-.005c.518-.3.969-.662 1.337-1.094.374-.42.66-.892.841-1.411a4.4 4.4 0 0 0 .286-1.565c0-.597-.1-1.166-.331-1.683a3.746 3.746 0 0 0-.913-1.304 5.896 5.896 0 0 0-1.331-.917 15.407 15.407 0 0 0-1.595-.7l-.019-.007-.019-.006c-.391-.13-.733-.259-1.03-.383a4.17 4.17 0 0 1-.616-.366c-.1-.082-.17-.162-.219-.239a.821.821 0 0 1-.048-.299l.001-.038.009-.005.013-.006c.253-.123.56-.195.942-.195.241 0 .485.027.731.082.28.062.531.135.757.216l.337-.929-.337.93c.25.09.463.177.641.26l.036.018.037.014c.218.08.362.14.447.18l.866.404.443-.847.903-1.73.485-.926-.948-.443zM198.733 44.333a9.642 9.642 0 0 0-.465-.197 7.037 7.037 0 0 0-.807-.327 10.95 10.95 0 0 0-1.426-.379v-1.763H192.183v1.875c-.289.09-.568.2-.836.333-.504.237-.955.54-1.34.916-.391.367-.7.795-.92 1.28a3.732 3.732 0 0 0-.337 1.551c0 .626.112 1.222.362 1.767.242.527.592.989 1.033 1.383.417.372.901.698 1.444.983l.015.008.016.008c.535.257 1.134.502 1.793.736l.006.003.007.002c.311.106.577.208.8.306l.031.013.03.012c.198.071.325.145.405.207l.035.027.037.024a.31.31 0 0 1 .062.05c.009.01.012.015.013.017l.014.029.015.026a.485.485 0 0 1 .026.198c0 .351-.101.462-.178.522-.125.097-.43.228-1.081.228-.193 0-.424-.032-.698-.11-.31-.088-.613-.188-.909-.3a22.262 22.262 0 0 1-.796-.372 4.908 4.908 0 0 1-.431-.23l-.925-.618-.515.985-.972 1.856-.443.846.825.481c.141.082.337.19.582.317l.03.016.032.014c.275.121.584.247.927.378l.006.002.007.003c.375.137.777.264 1.206.383l.02.005.02.005c.189.044.384.083.582.117V60.05H196.035v-2.294c.349-.114.678-.256.984-.43l.008-.005c.518-.3.969-.662 1.338-1.094a4.2 4.2 0 0 0 .84-1.411 4.379 4.379 0 0 0 .286-1.565c0-.597-.099-1.166-.33-1.683a3.76 3.76 0 0 0-.913-1.304 5.903 5.903 0 0 0-1.332-.917 15.313 15.313 0 0 0-1.595-.7l-.018-.007-.019-.006c-.391-.13-.734-.259-1.03-.383a4.134 4.134 0 0 1-.617-.366 1.061 1.061 0 0 1-.219-.239.821.821 0 0 1-.048-.299l.001-.038a.358.358 0 0 0 .009-.005l.013-.006c.254-.123.561-.195.942-.195.242 0 .485.027.732.082.279.062.531.135.756.216l.338-.929-.338.93c.25.09.463.177.642.26l.035.018.038.014c.217.08.361.14.446.18l.866.404.443-.847.904-1.73.484-.926-.948-.443zM219.213 44.333a10.604 10.604 0 0 0-.465-.197 7.112 7.112 0 0 0-.807-.327 11.03 11.03 0 0 0-1.426-.379v-1.763H212.663v1.875c-.29.09-.569.2-.836.333-.505.237-.955.54-1.34.916-.391.367-.7.795-.92 1.28a3.733 3.733 0 0 0-.338 1.551c0 .626.113 1.222.363 1.767.242.527.592.989 1.033 1.383.417.372.901.698 1.444.983l.015.008.016.008a18.32 18.32 0 0 0 1.792.736l.007.003.007.002c.31.106.576.208.8.306l.03.013.031.012c.197.071.325.145.405.207l.035.027.036.024c.035.023.054.04.063.05.009.01.012.015.013.017l.014.029.015.026a.525.525 0 0 1 .025.198c0 .351-.1.462-.177.522-.125.097-.43.228-1.081.228-.193 0-.424-.032-.698-.11-.31-.088-.613-.188-.909-.3a22.262 22.262 0 0 1-.796-.372 4.747 4.747 0 0 1-.431-.23l-.925-.618-.516.985-.971 1.856-.443.846.825.481c.14.082.337.19.581.317l.031.016.032.014c.274.121.584.247.926.378l.007.002.007.003c.375.137.777.264 1.206.383l.02.005.019.005c.19.044.384.083.583.117V60.05H216.515v-2.294c.349-.114.678-.256.984-.43l.008-.005c.518-.3.969-.662 1.337-1.094.374-.42.66-.892.841-1.411a4.4 4.4 0 0 0 .286-1.565c0-.597-.099-1.166-.33-1.683a3.75 3.75 0 0 0-.914-1.304 5.896 5.896 0 0 0-1.331-.917 15.407 15.407 0 0 0-1.595-.7l-.018-.007-.019-.006c-.391-.13-.734-.259-1.03-.383a4.134 4.134 0 0 1-.617-.366c-.1-.082-.17-.162-.219-.239a.821.821 0 0 1-.048-.299l.001-.038.009-.005.013-.006c.253-.123.561-.195.942-.195.241 0 .485.027.732.082.279.062.53.135.756.216l.337-.929-.337.93c.25.09.463.177.641.26l.036.018.037.014c.218.08.362.14.447.18l.866.404.443-.847.904-1.73.484-.926-.948-.443z"/>
    <path stroke="#1469E9" stroke-opacity=".6" stroke-width="2" d="M178.254 23.854a10.108 10.108 0 0 0-.466-.197 7.036 7.036 0 0 0-.806-.328 11.03 11.03 0 0 0-1.426-.378v-1.764H171.704v1.875c-.29.09-.569.2-.836.333-.505.238-.955.541-1.34.916-.391.367-.7.795-.92 1.28a3.733 3.733 0 0 0-.338 1.551c0 .627.113 1.223.363 1.767.242.528.591.989 1.033 1.383.417.372.901.698 1.443.983l.016.008.016.008a18.27 18.27 0 0 0 1.792.737l.007.002.007.002c.31.106.576.208.8.307l.03.013.031.01c.197.072.325.146.405.209l.034.026.037.024c.035.023.054.04.063.05.009.01.011.015.013.017l.014.03.015.026a.524.524 0 0 1 .025.197c0 .351-.1.463-.177.522-.125.097-.43.228-1.082.228-.192 0-.423-.031-.698-.11a11.312 11.312 0 0 1-.908-.3 23.402 23.402 0 0 1-.797-.372 4.659 4.659 0 0 1-.43-.23l-.925-.617-.516.985-.971 1.855-.443.846.825.482c.14.082.337.188.581.317l.031.016.032.014c.274.12.584.246.926.377l.007.002.007.003c.375.137.777.264 1.206.383l.019.005.02.005c.19.044.384.083.583.117V39.571H175.556v-2.294c.349-.114.678-.256.984-.43l.008-.004a5.09 5.09 0 0 0 1.337-1.095c.374-.42.66-.892.841-1.41a4.4 4.4 0 0 0 .286-1.566c0-.596-.1-1.166-.331-1.683a3.746 3.746 0 0 0-.913-1.304 5.899 5.899 0 0 0-1.331-.917 15.385 15.385 0 0 0-1.595-.7l-.019-.007-.019-.006a14.58 14.58 0 0 1-1.03-.383 4.17 4.17 0 0 1-.616-.366c-.1-.082-.17-.162-.219-.238a.822.822 0 0 1-.047-.338.181.181 0 0 0 .009-.004l.013-.006c.253-.123.56-.196.942-.196.241 0 .485.027.731.082.28.062.531.135.757.217l.337-.93-.337.93c.25.09.463.178.641.261l.036.017.037.014c.218.081.362.14.447.18l.866.404.443-.847.903-1.73.485-.926-.948-.442zM198.733 23.854a9.541 9.541 0 0 0-.465-.197 7.055 7.055 0 0 0-.807-.328 10.95 10.95 0 0 0-1.426-.378v-1.764H192.183v1.875c-.289.09-.568.2-.836.333a4.88 4.88 0 0 0-1.34.916c-.391.367-.7.795-.92 1.28a3.732 3.732 0 0 0-.337 1.551c0 .627.112 1.223.362 1.767.242.528.592.989 1.033 1.383.417.372.901.698 1.444.983l.015.008.016.008c.535.257 1.134.502 1.793.737l.006.002.007.002c.311.106.577.208.8.307l.031.013.03.01c.198.072.325.146.405.209l.035.026.037.024a.31.31 0 0 1 .062.05.06.06 0 0 1 .013.017l.014.03.015.026a.484.484 0 0 1 .026.197c0 .351-.101.463-.178.522-.125.097-.43.228-1.081.228-.193 0-.424-.031-.698-.11-.31-.087-.613-.187-.909-.3a22.428 22.428 0 0 1-.796-.372 4.908 4.908 0 0 1-.431-.23l-.925-.617-.515.985-.972 1.855-.443.846.825.482c.141.082.337.188.582.317l.03.016.032.014c.275.12.584.246.927.377l.006.002.007.003c.375.137.777.264 1.206.383l.02.005.02.005c.189.044.384.083.582.117V39.571H196.035v-2.294c.349-.114.678-.256.984-.43l.008-.004c.518-.3.969-.663 1.338-1.095a4.2 4.2 0 0 0 .84-1.41 4.379 4.379 0 0 0 .286-1.566c0-.596-.099-1.166-.33-1.683a3.76 3.76 0 0 0-.913-1.304 5.905 5.905 0 0 0-1.332-.917 15.292 15.292 0 0 0-1.595-.7l-.018-.007-.019-.006c-.391-.13-.734-.258-1.03-.383a4.134 4.134 0 0 1-.617-.366 1.061 1.061 0 0 1-.219-.238.822.822 0 0 1-.048-.3l.001-.038a.181.181 0 0 0 .009-.004l.013-.006c.254-.123.561-.196.942-.196.242 0 .485.027.732.082.279.062.531.135.756.217l.338-.93-.338.93c.25.09.463.178.642.261l.035.017.038.014c.217.081.361.14.446.18l.866.404.443-.847.904-1.73.484-.926-.948-.442zM219.213 23.854a10.482 10.482 0 0 0-.465-.197 7.13 7.13 0 0 0-.807-.328 11.03 11.03 0 0 0-1.426-.378v-1.764H212.663v1.875c-.29.09-.569.2-.836.333-.505.238-.955.541-1.34.916-.391.367-.7.795-.92 1.28a3.733 3.733 0 0 0-.338 1.551c0 .627.113 1.223.363 1.767.242.528.592.989 1.033 1.383.417.372.901.698 1.444.983l.015.008.016.008a18.27 18.27 0 0 0 1.792.737l.007.002.007.002c.31.106.576.208.8.307l.03.013.031.01c.197.072.325.146.405.209l.035.026.036.024c.035.023.054.04.063.05a.06.06 0 0 1 .013.017l.014.03.015.026a.524.524 0 0 1 .025.197c0 .351-.1.463-.177.522-.125.097-.43.228-1.081.228-.193 0-.424-.031-.698-.11-.31-.087-.613-.187-.909-.3a22.428 22.428 0 0 1-.796-.372 4.747 4.747 0 0 1-.431-.23l-.925-.617-.516.985-.971 1.855-.443.846.825.482c.14.082.337.188.581.317l.031.016.032.014c.274.12.584.246.926.377l.007.002.007.003c.375.137.777.264 1.206.383l.02.005.019.005c.19.044.384.083.583.117V39.571H216.515v-2.294c.349-.114.678-.256.984-.43l.008-.004a5.09 5.09 0 0 0 1.337-1.095c.374-.42.66-.892.841-1.41a4.4 4.4 0 0 0 .286-1.566c0-.596-.099-1.166-.33-1.683a3.75 3.75 0 0 0-.914-1.304 5.899 5.899 0 0 0-1.331-.917 15.385 15.385 0 0 0-1.595-.7l-.018-.007-.019-.006c-.391-.13-.734-.258-1.03-.383a4.134 4.134 0 0 1-.617-.366c-.1-.082-.17-.162-.219-.238a.822.822 0 0 1-.047-.338.181.181 0 0 0 .009-.004l.013-.006c.253-.123.561-.196.942-.196.241 0 .485.027.732.082.279.062.53.135.756.217l.337-.93-.337.93c.25.09.463.178.641.261l.036.017.037.014c.218.081.362.14.447.18l.866.404.443-.847.904-1.73.484-.926-.948-.442z"/>
    <path stroke="#4791FF" stroke-opacity=".4" stroke-width="2" d="M178.254 3.666a10.169 10.169 0 0 0-.466-.197 7.033 7.033 0 0 0-.806-.327 11.035 11.035 0 0 0-1.426-.379V1H171.704v1.875c-.29.09-.569.2-.836.333-.505.237-.955.54-1.34.916-.391.367-.7.795-.92 1.28a3.733 3.733 0 0 0-.338 1.551 4.2 4.2 0 0 0 .363 1.767c.242.527.591.989 1.033 1.383.417.372.901.698 1.443.983l.016.008.016.008a18.32 18.32 0 0 0 1.792.737l.007.002.007.002c.31.106.576.208.8.306l.03.013.031.012c.197.071.325.145.405.207l.034.027.037.024c.035.023.054.04.063.05.009.01.011.015.013.017l.014.029.015.026a.526.526 0 0 1 .025.198c0 .351-.1.462-.177.522-.125.097-.43.228-1.082.228-.192 0-.423-.032-.698-.11a11.352 11.352 0 0 1-.908-.3 23.222 23.222 0 0 1-.797-.372 4.659 4.659 0 0 1-.43-.23l-.925-.618-.516.985-.971 1.856-.443.846.825.482c.14.081.337.188.581.316l.031.016.032.015c.274.12.584.246.926.377l.007.002.007.003c.375.137.777.264 1.206.383l.019.005.02.005c.19.044.384.083.583.117V19.384H175.556V17.09c.349-.114.678-.256.984-.43l.008-.005c.518-.3.969-.662 1.337-1.094.374-.42.66-.892.841-1.411a4.4 4.4 0 0 0 .286-1.565c0-.597-.1-1.166-.331-1.683a3.747 3.747 0 0 0-.913-1.304 5.897 5.897 0 0 0-1.331-.917 15.385 15.385 0 0 0-1.595-.7l-.019-.007-.019-.006a14.56 14.56 0 0 1-1.03-.383 4.17 4.17 0 0 1-.616-.366c-.1-.082-.17-.162-.219-.238a.821.821 0 0 1-.048-.3l.001-.038a.241.241 0 0 0 .009-.005l.013-.006c.253-.122.56-.195.942-.195.241 0 .485.027.731.082.28.062.531.134.757.216l.337-.929-.337.93c.25.09.463.177.641.26l.036.018.037.013c.218.082.362.141.447.18l.866.405.443-.847.903-1.73.485-.926-.948-.443zM198.733 3.666a9.595 9.595 0 0 0-.465-.197 7.052 7.052 0 0 0-.807-.327 10.955 10.955 0 0 0-1.426-.379V1H192.183v1.875c-.289.09-.568.2-.836.333a4.88 4.88 0 0 0-1.34.916c-.391.367-.7.795-.92 1.28a3.732 3.732 0 0 0-.337 1.551c0 .626.112 1.222.362 1.767.242.527.592.989 1.033 1.383.417.372.901.698 1.444.983l.015.008.016.008c.535.257 1.134.502 1.793.737l.006.002.007.002c.311.106.577.208.8.306l.031.013.03.012c.198.071.325.145.405.207l.035.027.037.024a.31.31 0 0 1 .062.05c.009.01.012.015.013.017l.014.029.015.026a.486.486 0 0 1 .026.198c0 .351-.101.462-.178.522-.125.097-.43.228-1.081.228-.193 0-.424-.032-.698-.11-.31-.088-.613-.188-.909-.3a22.262 22.262 0 0 1-.796-.372 4.908 4.908 0 0 1-.431-.23l-.925-.618-.515.985-.972 1.856-.443.846.825.482c.141.081.337.188.582.316l.03.016.032.015c.275.12.584.246.927.377l.006.002.007.003c.375.137.777.264 1.206.383l.02.005.02.005c.189.044.384.083.582.117V19.384H196.035V17.09c.349-.114.678-.256.984-.43l.008-.005c.518-.3.969-.662 1.338-1.094a4.2 4.2 0 0 0 .84-1.411 4.379 4.379 0 0 0 .286-1.565c0-.597-.099-1.166-.33-1.683a3.76 3.76 0 0 0-.913-1.304 5.903 5.903 0 0 0-1.332-.917 15.291 15.291 0 0 0-1.595-.7l-.018-.007-.019-.006c-.391-.13-.734-.259-1.03-.383a4.134 4.134 0 0 1-.617-.366 1.062 1.062 0 0 1-.219-.238.821.821 0 0 1-.048-.3l.001-.038a.241.241 0 0 0 .009-.005l.013-.006c.254-.122.561-.195.942-.195.242 0 .485.027.732.082.279.062.531.134.756.216l.338-.929-.338.93c.25.09.463.177.642.26l.035.018.038.013c.217.082.361.141.446.18l.866.405.443-.847.904-1.73.484-.926-.948-.443zM219.213 3.666a10.547 10.547 0 0 0-.465-.197 7.127 7.127 0 0 0-.807-.327 11.035 11.035 0 0 0-1.426-.379V1H212.663v1.875c-.29.09-.569.2-.836.333-.505.237-.955.54-1.34.916-.391.367-.7.795-.92 1.28a3.733 3.733 0 0 0-.338 1.551 4.2 4.2 0 0 0 .363 1.767c.242.527.592.989 1.033 1.383.417.372.901.698 1.444.983l.015.008.016.008a18.32 18.32 0 0 0 1.792.737l.007.002.007.002c.31.106.576.208.8.306l.03.013.031.012c.197.071.325.145.405.207l.035.027.036.024c.035.023.054.04.063.05.009.01.012.015.013.017l.014.029.015.026a.526.526 0 0 1 .025.198c0 .351-.1.462-.177.522-.125.097-.43.228-1.081.228-.193 0-.424-.032-.698-.11-.31-.088-.613-.188-.909-.3a22.262 22.262 0 0 1-.796-.372 4.747 4.747 0 0 1-.431-.23l-.925-.618-.516.985-.971 1.856-.443.846.825.482c.14.081.337.188.581.316l.031.016.032.015c.274.12.584.246.926.377l.007.002.007.003c.375.137.777.264 1.206.383l.02.005.019.005c.19.044.384.083.583.117V19.384H216.515V17.09c.349-.114.678-.256.984-.43l.008-.005c.518-.3.969-.662 1.337-1.094.374-.42.66-.892.841-1.411a4.4 4.4 0 0 0 .286-1.565c0-.597-.099-1.166-.33-1.683a3.75 3.75 0 0 0-.914-1.304 5.897 5.897 0 0 0-1.331-.917 15.385 15.385 0 0 0-1.595-.7l-.018-.007-.019-.006c-.391-.13-.734-.259-1.03-.383a4.134 4.134 0 0 1-.617-.366c-.1-.082-.17-.162-.219-.238a.821.821 0 0 1-.048-.3l.001-.038a.241.241 0 0 0 .009-.005l.013-.006c.253-.122.561-.195.942-.195.241 0 .485.027.732.082.279.062.53.134.756.216l.337-.929-.337.93c.25.09.463.177.641.26l.036.018.037.013c.218.082.362.141.447.18l.866.405.443-.847.904-1.73.484-.926-.948-.443z"/>
    <rect width="33.012" height="33.012" x="75.17" y="102.183" fill="#F58A8A" rx="16.506"/>
    <path fill="#690000" fill-rule="evenodd" d="M84.088 110.853a.976.976 0 0 1 1.309-.436l3.87 1.935a.977.977 0 0 1 0 1.745l-3.87 1.935a.975.975 0 1 1-.873-1.744l2.126-1.063-2.126-1.063a.976.976 0 0 1-.436-1.309zM99.264 110.853a.976.976 0 0 0-1.308-.436l-3.87 1.935a.977.977 0 0 0 0 1.745l3.87 1.935a.975.975 0 1 0 .872-1.744l-2.126-1.063 2.126-1.063a.976.976 0 0 0 .436-1.309zM99.76 127.063a.975.975 0 0 1-.976-.975 6.993 6.993 0 0 0-13.986 0 .975.975 0 1 1-1.95 0 8.944 8.944 0 0 1 17.886 0 .974.974 0 0 1-.975.975z" clip-rule="evenodd"/>
    <rect width="33.012" height="33.012" x="93.091" y="72" fill="#F58A8A" rx="16.506"/>
    <path fill="#690000" fill-rule="evenodd" d="M102.007 80.67a.976.976 0 0 1 1.309-.436l3.87 1.936a.976.976 0 0 1 0 1.744l-3.87 1.936a.976.976 0 0 1-.873-1.745l2.126-1.063-2.126-1.063a.976.976 0 0 1-.436-1.308zM117.183 80.67a.975.975 0 0 0-1.308-.436l-3.871 1.936a.976.976 0 0 0 0 1.744l3.871 1.936a.975.975 0 1 0 .872-1.745l-2.126-1.063 2.126-1.063a.975.975 0 0 0 .436-1.308zM117.679 96.88a.975.975 0 0 1-.975-.975 6.993 6.993 0 0 0-13.987 0 .975.975 0 0 1-1.95 0 8.943 8.943 0 1 1 17.887 0 .975.975 0 0 1-.975.976z" clip-rule="evenodd"/>
    <rect width="33.012" height="33.012" x="110.067" y="102.183" fill="#F58A8A" rx="16.506"/>
    <path fill="#690000" fill-rule="evenodd" d="M118.985 110.853a.976.976 0 0 1 1.309-.436l3.87 1.935a.977.977 0 0 1 0 1.745l-3.87 1.935a.975.975 0 0 1-.873-1.744l2.126-1.063-2.126-1.063a.976.976 0 0 1-.436-1.309zM134.16 110.853a.975.975 0 0 0-1.308-.436l-3.87 1.935a.976.976 0 0 0 0 1.745l3.87 1.935a.974.974 0 1 0 .872-1.744l-2.126-1.063 2.126-1.063a.975.975 0 0 0 .436-1.309zM134.656 127.063a.975.975 0 0 1-.975-.975 6.993 6.993 0 0 0-13.986 0 .975.975 0 0 1-1.951 0 8.944 8.944 0 0 1 17.887 0 .974.974 0 0 1-.975.975z" clip-rule="evenodd"/>
    <rect width="33.012" height="33.012" x="159.264" y="102" fill="#fff" rx="16.506" transform="rotate(.158 159.264 102)"/>
    <circle cx="170.957" cy="113.074" r="1.935" fill="#007814" transform="rotate(.158 170.957 113.074)"/>
    <circle cx="180.519" cy="113.101" r="1.935" fill="#007814" transform="rotate(.158 180.519 113.101)"/>
    <path fill="#007814" fill-rule="evenodd" d="M167.873 116.985c.539.002.974.44.973.978a6.993 6.993 0 1 0 13.986.039.975.975 0 1 1 1.95.005 8.942 8.942 0 0 1-8.968 8.919 8.943 8.943 0 0 1-8.919-8.968.976.976 0 0 1 .978-.973z" clip-rule="evenodd"/>
    <rect width="33.012" height="33.012" x="176.832" y="72" fill="#fff" rx="16.506" transform="rotate(.158 176.832 72)"/>
    <circle cx="188.525" cy="83.074" r="1.935" fill="#007814" transform="rotate(.158 188.525 83.074)"/>
    <circle cx="198.086" cy="83.101" r="1.935" fill="#007814" transform="rotate(.158 198.086 83.1)"/>
    <path fill="#007814" fill-rule="evenodd" d="M185.44 86.986c.539.001.975.439.973.977a6.993 6.993 0 0 0 13.986.04.976.976 0 0 1 1.951.004 8.944 8.944 0 0 1-17.887-.049.975.975 0 0 1 .977-.972z" clip-rule="evenodd"/>
    <rect width="33.012" height="33.012" x="193.705" y="102" fill="#fff" rx="16.506" transform="rotate(.158 193.705 102)"/>
    <circle cx="205.4" cy="113.074" r="1.935" fill="#007814" transform="rotate(.158 205.4 113.074)"/>
    <circle cx="214.962" cy="113.101" r="1.935" fill="#007814" transform="rotate(.158 214.962 113.101)"/>
    <path fill="#007814" fill-rule="evenodd" d="M202.316 116.985c.538.002.974.44.972.978a6.994 6.994 0 0 0 13.987.039.975.975 0 1 1 1.95.005 8.943 8.943 0 0 1-8.968 8.919 8.943 8.943 0 0 1-8.919-8.968.975.975 0 0 1 .978-.973z" clip-rule="evenodd"/>
    <path fill="#00A7A7" d="M151.296 147l8.227 15h-16.454l8.227-15zM64.796 137h172v10h-172z"/>
    <path stroke="#6083A3" stroke-linecap="round" stroke-linejoin="round" stroke-width="2" d="M100.022 21.494c13.849-3.634 16.822 16.18 8.656 11.943-6.432-3.336 10.624-12.37 14.425-8.143 6.347 7.057-10.963 21.172-17.31 15.744-6.348-5.43 2.885-30.402 15.579-23.887 12.694 6.514 16.157 19 8.078 19.543-8.078.543-39.814 4.343-35.198-4.343s25.389-4.885 27.697 9.772c1.261 8.007-12.694 13.572-24.235 3.258-7.5-6.705 18.465-26.602 25.389-23.887 6.924 2.714-1.154 24.972-10.386 26.058-13.849 1.629-23.594-27.758-12.695-31.487 19.042-6.515 37.507 18.458 24.812 31.487"/>
    <path fill="#000" d="M74.385 197l-1.404-3.294h-6.696L64.863 197h-1.53l5.634-12.816h1.296L75.897 197h-1.512zm-7.578-4.518h5.652l-2.826-6.588-2.826 6.588zM77.632 197v-13.248h1.457V197h-1.457zm14.333-9.27c2.004 0 3.006 1.194 3.006 3.582V197h-1.458v-5.616c0-.852-.15-1.47-.45-1.854-.288-.384-.762-.576-1.422-.576-.768 0-1.368.258-1.8.774-.432.516-.648 1.218-.648 2.106V197h-1.458v-5.616c0-.84-.15-1.452-.45-1.836-.3-.396-.78-.594-1.44-.594-.768 0-1.374.258-1.818.774-.432.516-.648 1.218-.648 2.106V197H81.92v-6.516c0-.936-.048-1.782-.144-2.538h1.386l.144 1.584c.252-.576.624-1.02 1.116-1.332.504-.312 1.086-.468 1.746-.468.72 0 1.308.144 1.764.432.456.288.792.732 1.008 1.332.276-.54.678-.966 1.206-1.278a3.465 3.465 0 0 1 1.818-.486zm9.52 9.396c-.852 0-1.602-.192-2.25-.576a3.92 3.92 0 0 1-1.512-1.638c-.348-.708-.522-1.536-.522-2.484s.174-1.776.522-2.484a3.92 3.92 0 0 1 1.512-1.638c.648-.384 1.398-.576 2.25-.576.852 0 1.602.192 2.25.576.648.384 1.146.93 1.494 1.638.36.708.54 1.536.54 2.484s-.18 1.776-.54 2.484a3.806 3.806 0 0 1-1.494 1.638c-.648.384-1.398.576-2.25.576zm0-1.206c.9 0 1.59-.294 2.07-.882.48-.6.72-1.47.72-2.61 0-1.104-.246-1.956-.738-2.556-.492-.612-1.176-.918-2.052-.918-.888 0-1.578.306-2.07.918-.492.6-.738 1.452-.738 2.556 0 1.14.24 2.01.72 2.61.492.588 1.188.882 2.088.882zm9.617 1.206c-1.524 0-2.73-.39-3.618-1.17l.486-1.08c.492.384.99.66 1.494.828a5.331 5.331 0 0 0 1.692.252c.684 0 1.2-.114 1.548-.342.36-.24.54-.582.54-1.026 0-.36-.12-.648-.36-.864-.24-.216-.636-.384-1.188-.504l-1.53-.36c-.756-.168-1.344-.468-1.764-.9a2.176 2.176 0 0 1-.612-1.548c0-.792.318-1.434.954-1.926.636-.504 1.476-.756 2.52-.756.636 0 1.236.102 1.8.306a3.81 3.81 0 0 1 1.422.882L114 189.98c-.852-.708-1.764-1.062-2.736-1.062-.648 0-1.152.126-1.512.378-.348.24-.522.582-.522 1.026 0 .372.108.666.324.882.228.216.588.384 1.08.504l1.53.378c.84.192 1.464.492 1.872.9.408.396.612.918.612 1.566 0 .78-.318 1.404-.954 1.872-.636.468-1.5.702-2.592.702zm7.725-8.028v4.95c0 .672.138 1.146.414 1.422.276.264.666.396 1.17.396.336 0 .66-.054.972-.162v1.242c-.372.12-.792.18-1.26.18-.864 0-1.542-.24-2.034-.72-.48-.492-.72-1.212-.72-2.16v-5.148h-1.764v-1.152h1.764v-2.322l1.458-.522v2.844h2.592v1.152h-2.592zm49.08 1.674l-1.278-.936 1.656-2.034-2.556-.702.504-1.512 2.448.936-.126-2.628h1.584l-.126 2.61 2.466-.918.486 1.512-2.538.684 1.656 2.052-1.296.936-1.44-2.196-1.44 2.196zm19.634-7.02V197h-1.44v-1.638a2.907 2.907 0 0 1-1.206 1.314c-.528.3-1.146.45-1.854.45-.792 0-1.494-.198-2.106-.594-.6-.396-1.068-.948-1.404-1.656-.336-.72-.504-1.548-.504-2.484 0-.936.162-1.752.486-2.448.336-.708.81-1.254 1.422-1.638.612-.384 1.314-.576 2.106-.576.708 0 1.326.156 1.854.468.528.3.924.726 1.188 1.278v-5.724h1.458zm-4.212 12.168c.888 0 1.572-.3 2.052-.9.48-.612.72-1.476.72-2.592 0-1.104-.24-1.956-.72-2.556-.48-.612-1.164-.918-2.052-.918-.888 0-1.584.3-2.088.9-.492.6-.738 1.446-.738 2.538 0 1.116.246 1.986.738 2.61.504.612 1.2.918 2.088.918zm10.775 1.206c-.852 0-1.602-.192-2.25-.576a3.92 3.92 0 0 1-1.512-1.638c-.348-.708-.522-1.536-.522-2.484s.174-1.776.522-2.484a3.92 3.92 0 0 1 1.512-1.638c.648-.384 1.398-.576 2.25-.576.852 0 1.602.192 2.25.576.648.384 1.146.93 1.494 1.638.36.708.54 1.536.54 2.484s-.18 1.776-.54 2.484a3.806 3.806 0 0 1-1.494 1.638c-.648.384-1.398.576-2.25.576zm0-1.206c.9 0 1.59-.294 2.07-.882.48-.6.72-1.47.72-2.61 0-1.104-.246-1.956-.738-2.556-.492-.612-1.176-.918-2.052-.918-.888 0-1.578.306-2.07.918-.492.6-.738 1.452-.738 2.556 0 1.14.24 2.01.72 2.61.492.588 1.188.882 2.088.882zm15.768-8.19c2.172 0 3.258 1.194 3.258 3.582V197h-1.458v-5.616c0-.84-.168-1.452-.504-1.836-.336-.396-.864-.594-1.584-.594-.84 0-1.512.258-2.016.774s-.756 1.212-.756 2.088V197h-1.458v-6.516c0-.936-.048-1.782-.144-2.538h1.386l.144 1.62a2.95 2.95 0 0 1 1.242-1.35c.552-.324 1.182-.486 1.89-.486zm9.755 9.396c-.852 0-1.602-.192-2.25-.576a3.92 3.92 0 0 1-1.512-1.638c-.348-.708-.522-1.536-.522-2.484s.174-1.776.522-2.484a3.92 3.92 0 0 1 1.512-1.638c.648-.384 1.398-.576 2.25-.576.852 0 1.602.192 2.25.576.648.384 1.146.93 1.494 1.638.36.708.54 1.536.54 2.484s-.18 1.776-.54 2.484a3.806 3.806 0 0 1-1.494 1.638c-.648.384-1.398.576-2.25.576zm0-1.206c.9 0 1.59-.294 2.07-.882.48-.6.72-1.47.72-2.61 0-1.104-.246-1.956-.738-2.556-.492-.612-1.176-.918-2.052-.918-.888 0-1.578.306-2.07.918-.492.6-.738 1.452-.738 2.556 0 1.14.24 2.01.72 2.61.492.588 1.188.882 2.088.882zm8.484-6.822v4.95c0 .672.138 1.146.414 1.422.276.264.666.396 1.17.396.336 0 .66-.054.972-.162v1.242c-.372.12-.792.18-1.26.18-.864 0-1.542-.24-2.034-.72-.48-.492-.72-1.212-.72-2.16v-5.148h-1.764v-1.152h1.764v-2.322l1.458-.522v2.844h2.592v1.152h-2.592zM53.568 210.73c2.172 0 3.258 1.194 3.258 3.582V220h-1.459v-5.616c0-.84-.167-1.452-.503-1.836-.336-.396-.864-.594-1.584-.594-.84 0-1.513.258-2.017.774-.503.516-.755 1.212-.755 2.088V220h-1.459v-13.248h1.459v5.67a2.955 2.955 0 0 1 1.223-1.26c.54-.288 1.152-.432 1.837-.432zm13.985.216V220h-1.44v-1.638a2.907 2.907 0 0 1-1.206 1.314c-.528.3-1.146.45-1.854.45-.804 0-1.512-.192-2.124-.576-.6-.384-1.068-.924-1.404-1.62-.324-.708-.486-1.53-.486-2.466 0-.936.168-1.758.504-2.466.336-.72.804-1.278 1.404-1.674.612-.396 1.314-.594 2.106-.594.708 0 1.326.156 1.854.468.528.312.93.75 1.206 1.314v-1.566h1.44zm-4.212 7.974c.888 0 1.572-.3 2.052-.9.48-.612.72-1.476.72-2.592s-.24-1.974-.72-2.574c-.48-.6-1.164-.9-2.052-.9-.888 0-1.584.312-2.088.936-.492.612-.738 1.47-.738 2.574 0 1.104.246 1.956.738 2.556.492.6 1.188.9 2.088.9zm13.529-7.956h1.458L74.422 220h-1.386l-3.852-9.036h1.53l3.06 7.452 3.096-7.452zm10.537 4.464h-6.642c.012 1.152.276 2.022.792 2.61.528.588 1.29.882 2.286.882 1.056 0 2.028-.354 2.916-1.062l.486 1.062c-.396.372-.906.666-1.53.882a5.638 5.638 0 0 1-1.89.324c-1.416 0-2.526-.414-3.33-1.242-.804-.84-1.206-1.986-1.206-3.438 0-.924.18-1.74.54-2.448.36-.72.864-1.278 1.512-1.674.648-.396 1.386-.594 2.214-.594 1.2 0 2.142.396 2.826 1.188.684.78 1.026 1.86 1.026 3.24v.27zm-3.834-3.564c-.756 0-1.374.228-1.854.684-.468.456-.768 1.098-.9 1.926h5.274c-.072-.852-.324-1.5-.756-1.944-.42-.444-1.008-.666-1.764-.666zm15.276.09c.78 0 1.47.174 2.07.522a3.499 3.499 0 0 1 1.422 1.44c.336.612.504 1.314.504 2.106 0 .792-.18 1.5-.54 2.124a3.829 3.829 0 0 1-1.458 1.476c-.624.348-1.332.522-2.124.522-1.548 0-2.742-.54-3.582-1.62-.84-1.08-1.26-2.616-1.26-4.608 0-1.44.192-2.676.576-3.708.396-1.032.96-1.818 1.692-2.358.744-.54 1.632-.81 2.664-.81.744 0 1.464.138 2.16.414a5.6 5.6 0 0 1 1.854 1.17l-.558 1.134c-.6-.504-1.176-.876-1.728-1.116a4.203 4.203 0 0 0-1.692-.36c-1.104 0-1.962.492-2.574 1.476-.612.984-.918 2.364-.918 4.14v.27a3.366 3.366 0 0 1 1.35-1.62c.624-.396 1.338-.594 2.142-.594zm-.198 6.948c.816 0 1.476-.258 1.98-.774.504-.528.756-1.224.756-2.088 0-.852-.258-1.536-.774-2.052-.504-.528-1.164-.792-1.98-.792-.84 0-1.524.264-2.052.792s-.792 1.212-.792 2.052c0 .852.264 1.542.792 2.07.528.528 1.218.792 2.07.792zm21.193-8.172c2.004 0 3.006 1.194 3.006 3.582V220h-1.458v-5.616c0-.852-.15-1.47-.45-1.854-.288-.384-.762-.576-1.422-.576-.768 0-1.368.258-1.8.774-.432.516-.648 1.218-.648 2.106V220h-1.458v-5.616c0-.84-.15-1.452-.45-1.836-.3-.396-.78-.594-1.44-.594-.768 0-1.374.258-1.818.774-.432.516-.648 1.218-.648 2.106V220H109.8v-6.516c0-.936-.048-1.782-.144-2.538h1.386l.144 1.584c.252-.576.624-1.02 1.116-1.332.504-.312 1.086-.468 1.746-.468.72 0 1.308.144 1.764.432.456.288.792.732 1.008 1.332.276-.54.678-.966 1.206-1.278a3.465 3.465 0 0 1 1.818-.486zm9.52 9.396c-.852 0-1.602-.192-2.25-.576a3.92 3.92 0 0 1-1.512-1.638c-.348-.708-.522-1.536-.522-2.484s.174-1.776.522-2.484a3.92 3.92 0 0 1 1.512-1.638c.648-.384 1.398-.576 2.25-.576.852 0 1.602.192 2.25.576.648.384 1.146.93 1.494 1.638.36.708.54 1.536.54 2.484s-.18 1.776-.54 2.484a3.806 3.806 0 0 1-1.494 1.638c-.648.384-1.398.576-2.25.576zm0-1.206c.9 0 1.59-.294 2.07-.882.48-.6.72-1.47.72-2.61 0-1.104-.246-1.956-.738-2.556-.492-.612-1.176-.918-2.052-.918-.888 0-1.578.306-2.07.918-.492.6-.738 1.452-.738 2.556 0 1.14.24 2.01.72 2.61.492.588 1.188.882 2.088.882zm11.075-8.19c2.172 0 3.258 1.194 3.258 3.582V220h-1.458v-5.616c0-.84-.168-1.452-.504-1.836-.336-.396-.864-.594-1.584-.594-.84 0-1.512.258-2.016.774s-.756 1.212-.756 2.088V220h-1.458v-6.516c0-.936-.048-1.782-.144-2.538h1.386l.144 1.62a2.95 2.95 0 0 1 1.242-1.35c.552-.324 1.182-.486 1.89-.486zm7.955 1.368v4.95c0 .672.138 1.146.414 1.422.276.264.666.396 1.17.396.336 0 .66-.054.972-.162v1.242c-.372.12-.792.18-1.26.18-.864 0-1.542-.24-2.034-.72-.48-.492-.72-1.212-.72-2.16v-5.148h-1.764v-1.152h1.764v-2.322l1.458-.522v2.844h2.592v1.152h-2.592zm8.867-1.368c2.172 0 3.258 1.194 3.258 3.582V220h-1.458v-5.616c0-.84-.168-1.452-.504-1.836-.336-.396-.864-.594-1.584-.594-.84 0-1.512.258-2.016.774s-.756 1.212-.756 2.088V220h-1.458v-13.248h1.458v5.67a2.955 2.955 0 0 1 1.224-1.26c.54-.288 1.152-.432 1.836-.432zm9.071 9.396c-1.524 0-2.73-.39-3.618-1.17l.486-1.08c.492.384.99.66 1.494.828a5.331 5.331 0 0 0 1.692.252c.684 0 1.2-.114 1.548-.342.36-.24.54-.582.54-1.026 0-.36-.12-.648-.36-.864-.24-.216-.636-.384-1.188-.504l-1.53-.36c-.756-.168-1.344-.468-1.764-.9a2.176 2.176 0 0 1-.612-1.548c0-.792.318-1.434.954-1.926.636-.504 1.476-.756 2.52-.756.636 0 1.236.102 1.8.306a3.81 3.81 0 0 1 1.422.882l-.486 1.062c-.852-.708-1.764-1.062-2.736-1.062-.648 0-1.152.126-1.512.378-.348.24-.522.582-.522 1.026 0 .372.108.666.324.882.228.216.588.384 1.08.504l1.53.378c.84.192 1.464.492 1.872.9.408.396.612.918.612 1.566 0 .78-.318 1.404-.954 1.872-.636.468-1.5.702-2.592.702zm22.875-9.18h1.44L187.299 220h-1.404l-2.592-7.074-2.574 7.074h-1.404l-3.348-9.054h1.53l2.556 7.308 2.646-7.308h1.278l2.61 7.326 2.61-7.326zm6.971 9.18c-.852 0-1.602-.192-2.25-.576a3.92 3.92 0 0 1-1.512-1.638c-.348-.708-.522-1.536-.522-2.484s.174-1.776.522-2.484a3.92 3.92 0 0 1 1.512-1.638c.648-.384 1.398-.576 2.25-.576.852 0 1.602.192 2.25.576.648.384 1.146.93 1.494 1.638.36.708.54 1.536.54 2.484s-.18 1.776-.54 2.484a3.806 3.806 0 0 1-1.494 1.638c-.648.384-1.398.576-2.25.576zm0-1.206c.9 0 1.59-.294 2.07-.882.48-.6.72-1.47.72-2.61 0-1.104-.246-1.956-.738-2.556-.492-.612-1.176-.918-2.052-.918-.888 0-1.578.306-2.07.918-.492.6-.738 1.452-.738 2.556 0 1.14.24 2.01.72 2.61.492.588 1.188.882 2.088.882zm10.769-8.19c.3 0 .576.036.828.108l-.036 1.332a2.9 2.9 0 0 0-.954-.144c-.876 0-1.53.276-1.962.828-.42.54-.63 1.2-.63 1.98V220h-1.458v-6.516c0-.936-.048-1.782-.144-2.538h1.386l.144 1.674c.228-.612.594-1.08 1.098-1.404.504-.324 1.08-.486 1.728-.486zm4.957 1.368v4.95c0 .672.138 1.146.414 1.422.276.264.666.396 1.17.396.336 0 .66-.054.972-.162v1.242c-.372.12-.792.18-1.26.18-.864 0-1.542-.24-2.034-.72-.48-.492-.72-1.212-.72-2.16v-5.148h-1.764v-1.152h1.764v-2.322l1.458-.522v2.844h2.592v1.152h-2.592zm8.867-1.368c2.172 0 3.258 1.194 3.258 3.582V220h-1.458v-5.616c0-.84-.168-1.452-.504-1.836-.336-.396-.864-.594-1.584-.594-.84 0-1.512.258-2.016.774s-.756 1.212-.756 2.088V220h-1.458v-13.248h1.458v5.67a2.955 2.955 0 0 1 1.224-1.26c.54-.288 1.152-.432 1.836-.432zm14.448 9.396c-.852 0-1.602-.192-2.25-.576a3.92 3.92 0 0 1-1.512-1.638c-.348-.708-.522-1.536-.522-2.484s.174-1.776.522-2.484a3.92 3.92 0 0 1 1.512-1.638c.648-.384 1.398-.576 2.25-.576.852 0 1.602.192 2.25.576.648.384 1.146.93 1.494 1.638.36.708.54 1.536.54 2.484s-.18 1.776-.54 2.484a3.806 3.806 0 0 1-1.494 1.638c-.648.384-1.398.576-2.25.576zm0-1.206c.9 0 1.59-.294 2.07-.882.48-.6.72-1.47.72-2.61 0-1.104-.246-1.956-.738-2.556-.492-.612-1.176-.918-2.052-.918-.888 0-1.578.306-2.07.918-.492.6-.738 1.452-.738 2.556 0 1.14.24 2.01.72 2.61.492.588 1.188.882 2.088.882zm10.013-10.98c-.48 0-.858.138-1.134.414-.264.264-.396.726-.396 1.386v1.206h2.214v1.152h-2.214V220h-1.458v-7.902h-1.764v-1.152h1.764v-1.386c0-.948.234-1.662.702-2.142.48-.492 1.146-.738 1.998-.738.42 0 .828.054 1.224.162v1.242a3.421 3.421 0 0 0-.936-.144zm-160.62 30.488H77.97c.012 1.152.276 2.022.792 2.61.528.588 1.29.882 2.286.882 1.056 0 2.028-.354 2.916-1.062l.486 1.062c-.396.372-.906.666-1.53.882a5.638 5.638 0 0 1-1.89.324c-1.416 0-2.526-.414-3.33-1.242-.804-.84-1.206-1.986-1.206-3.438 0-.924.18-1.74.54-2.448.36-.72.864-1.278 1.512-1.674.648-.396 1.386-.594 2.214-.594 1.2 0 2.142.396 2.826 1.188.684.78 1.026 1.86 1.026 3.24v.27zm-3.834-3.564c-.756 0-1.374.228-1.854.684-.468.456-.768 1.098-.9 1.926h5.274c-.072-.852-.324-1.5-.756-1.944-.42-.444-1.008-.666-1.764-.666zm16.09-1.134c2.005 0 3.007 1.194 3.007 3.582V243h-1.458v-5.616c0-.852-.15-1.47-.45-1.854-.288-.384-.762-.576-1.422-.576-.768 0-1.368.258-1.8.774-.432.516-.648 1.218-.648 2.106V243h-1.458v-5.616c0-.84-.15-1.452-.45-1.836-.3-.396-.78-.594-1.44-.594-.768 0-1.374.258-1.818.774-.432.516-.648 1.218-.648 2.106V243h-1.458v-6.516c0-.936-.048-1.782-.144-2.538h1.386l.144 1.584c.252-.576.624-1.02 1.116-1.332.504-.312 1.086-.468 1.746-.468.72 0 1.308.144 1.764.432.456.288.792.732 1.008 1.332.276-.54.678-.966 1.206-1.278a3.465 3.465 0 0 1 1.818-.486zm13.355 4.698h-6.642c.012 1.152.276 2.022.792 2.61.528.588 1.29.882 2.286.882 1.056 0 2.028-.354 2.916-1.062l.486 1.062c-.396.372-.906.666-1.53.882a5.638 5.638 0 0 1-1.89.324c-1.416 0-2.526-.414-3.33-1.242-.804-.84-1.206-1.986-1.206-3.438 0-.924.18-1.74.54-2.448.36-.72.864-1.278 1.512-1.674.648-.396 1.386-.594 2.214-.594 1.2 0 2.142.396 2.826 1.188.684.78 1.026 1.86 1.026 3.24v.27zm-3.834-3.564c-.756 0-1.374.228-1.854.684-.468.456-.768 1.098-.9 1.926h5.274c-.072-.852-.324-1.5-.756-1.944-.42-.444-1.008-.666-1.764-.666zm10.259-1.134c.3 0 .576.036.828.108l-.036 1.332a2.9 2.9 0 0 0-.954-.144c-.876 0-1.53.276-1.962.828-.42.54-.63 1.2-.63 1.98V243h-1.458v-6.516c0-.936-.048-1.782-.144-2.538h1.386l.144 1.674c.228-.612.594-1.08 1.098-1.404.504-.324 1.08-.486 1.728-.486zm10.198.216v8.982c0 1.344-.348 2.358-1.044 3.042-.684.696-1.698 1.044-3.042 1.044-1.38 0-2.568-.312-3.564-.936l.252-1.188a7.61 7.61 0 0 0 1.62.702 6.28 6.28 0 0 0 1.692.216c.876 0 1.536-.234 1.98-.702.444-.456.666-1.14.666-2.052v-2.142a3.102 3.102 0 0 1-1.224 1.35c-.528.312-1.158.468-1.89.468-.792 0-1.5-.186-2.124-.558-.612-.372-1.086-.9-1.422-1.584-.336-.684-.504-1.47-.504-2.358 0-.888.168-1.674.504-2.358.336-.684.81-1.212 1.422-1.584.624-.372 1.332-.558 2.124-.558.72 0 1.344.156 1.872.468.54.312.948.75 1.224 1.314v-1.566h1.458zm-4.266 7.56c.876 0 1.56-.288 2.052-.864.504-.588.756-1.392.756-2.412s-.252-1.818-.756-2.394c-.492-.588-1.176-.882-2.052-.882-.888 0-1.59.294-2.106.882-.504.576-.756 1.374-.756 2.394s.252 1.824.756 2.412c.516.576 1.218.864 2.106.864zm14.643-3.078h-6.642c.012 1.152.276 2.022.792 2.61.528.588 1.29.882 2.286.882 1.056 0 2.028-.354 2.916-1.062l.486 1.062c-.396.372-.906.666-1.53.882a5.638 5.638 0 0 1-1.89.324c-1.416 0-2.526-.414-3.33-1.242-.804-.84-1.206-1.986-1.206-3.438 0-.924.18-1.74.54-2.448.36-.72.864-1.278 1.512-1.674.648-.396 1.386-.594 2.214-.594 1.2 0 2.142.396 2.826 1.188.684.78 1.026 1.86 1.026 3.24v.27zm-3.834-3.564c-.756 0-1.374.228-1.854.684-.468.456-.768 1.098-.9 1.926h5.274c-.072-.852-.324-1.5-.756-1.944-.42-.444-1.008-.666-1.764-.666zm10.565-1.134c2.172 0 3.258 1.194 3.258 3.582V243h-1.458v-5.616c0-.84-.168-1.452-.504-1.836-.336-.396-.864-.594-1.584-.594-.84 0-1.512.258-2.016.774s-.756 1.212-.756 2.088V243h-1.458v-6.516c0-.936-.048-1.782-.144-2.538h1.386l.144 1.62a2.95 2.95 0 0 1 1.242-1.35c.552-.324 1.182-.486 1.89-.486zm9.81 9.396c-.876 0-1.644-.192-2.304-.576a3.945 3.945 0 0 1-1.512-1.62c-.348-.708-.522-1.53-.522-2.466 0-.936.18-1.758.54-2.466.36-.72.87-1.278 1.53-1.674.672-.396 1.452-.594 2.34-.594.612 0 1.2.108 1.764.324.576.204 1.05.492 1.422.864l-.486 1.08c-.456-.36-.9-.624-1.332-.792a3.46 3.46 0 0 0-1.296-.252c-.924 0-1.65.312-2.178.936-.528.612-.792 1.47-.792 2.574 0 1.092.258 1.944.774 2.556.528.6 1.26.9 2.196.9a3.46 3.46 0 0 0 1.296-.252c.432-.168.876-.432 1.332-.792l.486 1.08c-.384.36-.87.648-1.458.864a5.352 5.352 0 0 1-1.8.306zm13.07-9.18l-4.23 9.882c-.444 1.032-1.002 1.788-1.674 2.268-.672.48-1.5.81-2.484.99l-.306-1.134c.852-.192 1.494-.45 1.926-.774.444-.312.81-.798 1.098-1.458l.36-.81-3.834-8.964h1.53l3.06 7.47 3.096-7.47h1.458zm9.773-3.006c-.48 0-.858.138-1.134.414-.264.264-.396.726-.396 1.386v1.206h2.214v1.152h-2.214V243h-1.458v-7.902h-1.764v-1.152h1.764v-1.386c0-.948.234-1.662.702-2.142.48-.492 1.146-.738 1.998-.738.42 0 .828.054 1.224.162v1.242a3.421 3.421 0 0 0-.936-.144zm10.169 3.006V243h-1.422v-1.566c-.288.552-.69.972-1.206 1.26a3.52 3.52 0 0 1-1.746.432c-1.068 0-1.878-.3-2.43-.9-.552-.6-.828-1.488-.828-2.664v-5.616h1.458v5.58c0 .816.168 1.416.504 1.8.336.384.846.576 1.53.576.804 0 1.452-.258 1.944-.774.492-.528.738-1.218.738-2.07v-5.112h1.458zm7.329-.216c2.172 0 3.258 1.194 3.258 3.582V243h-1.458v-5.616c0-.84-.168-1.452-.504-1.836-.336-.396-.864-.594-1.584-.594-.84 0-1.512.258-2.016.774s-.756 1.212-.756 2.088V243h-1.458v-6.516c0-.936-.048-1.782-.144-2.538h1.386l.144 1.62a2.95 2.95 0 0 1 1.242-1.35c.552-.324 1.182-.486 1.89-.486zm13.985-3.978V243h-1.44v-1.638a2.907 2.907 0 0 1-1.206 1.314c-.528.3-1.146.45-1.854.45-.792 0-1.494-.198-2.106-.594-.6-.396-1.068-.948-1.404-1.656-.336-.72-.504-1.548-.504-2.484 0-.936.162-1.752.486-2.448.336-.708.81-1.254 1.422-1.638.612-.384 1.314-.576 2.106-.576.708 0 1.326.156 1.854.468.528.3.924.726 1.188 1.278v-5.724h1.458zm-4.212 12.168c.888 0 1.572-.3 2.052-.9.48-.612.72-1.476.72-2.592 0-1.104-.24-1.956-.72-2.556-.48-.612-1.164-.918-2.052-.918-.888 0-1.584.3-2.088.9-.492.6-.738 1.446-.738 2.538 0 1.116.246 1.986.738 2.61.504.612 1.2.918 2.088.918zm10.091 1.206c-1.524 0-2.73-.39-3.618-1.17l.486-1.08c.492.384.99.66 1.494.828a5.331 5.331 0 0 0 1.692.252c.684 0 1.2-.114 1.548-.342.36-.24.54-.582.54-1.026 0-.36-.12-.648-.36-.864-.24-.216-.636-.384-1.188-.504l-1.53-.36c-.756-.168-1.344-.468-1.764-.9a2.176 2.176 0 0 1-.612-1.548c0-.792.318-1.434.954-1.926.636-.504 1.476-.756 2.52-.756.636 0 1.236.102 1.8.306a3.81 3.81 0 0 1 1.422.882l-.486 1.062c-.852-.708-1.764-1.062-2.736-1.062-.648 0-1.152.126-1.512.378-.348.24-.522.582-.522 1.026 0 .372.108.666.324.882.228.216.588.384 1.08.504l1.53.378c.84.192 1.464.492 1.872.9.408.396.612.918.612 1.566 0 .78-.318 1.404-.954 1.872-.636.468-1.5.702-2.592.702z"/>
    <path fill="#00A7A7" d="M132.55 188.81c.804 0 1.512.174 2.124.522a3.499 3.499 0 0 1 1.422 1.44c.336.612.504 1.32.504 2.124 0 .84-.192 1.584-.576 2.232-.384.636-.936 1.134-1.656 1.494-.72.348-1.554.522-2.502.522a7.365 7.365 0 0 1-2.376-.396c-.78-.276-1.422-.642-1.926-1.098l.774-1.692c1.164.888 2.352 1.332 3.564 1.332.804 0 1.416-.198 1.836-.594.432-.408.648-.984.648-1.728 0-.708-.222-1.272-.666-1.692-.432-.432-1.014-.648-1.746-.648-.504 0-.978.096-1.422.288-.444.18-.834.45-1.17.81h-1.404v-7.542h8.028v1.8h-5.76v3.492c.648-.444 1.416-.666 2.304-.666zm10.109 8.352c-1.524 0-2.688-.558-3.492-1.674-.792-1.128-1.188-2.766-1.188-4.914 0-2.112.396-3.726 1.188-4.842.804-1.116 1.968-1.674 3.492-1.674s2.682.558 3.474 1.674c.804 1.104 1.206 2.718 1.206 4.842 0 2.136-.402 3.768-1.206 4.896-.792 1.128-1.95 1.692-3.474 1.692zm0-1.818c.828 0 1.428-.378 1.8-1.134.384-.768.576-1.98.576-3.636 0-1.632-.192-2.82-.576-3.564-.372-.756-.972-1.134-1.8-1.134-.828 0-1.434.378-1.818 1.134-.372.744-.558 1.932-.558 3.564 0 1.656.186 2.868.558 3.636.384.756.99 1.134 1.818 1.134zm9.407-3.51c-1.008 0-1.8-.33-2.376-.99-.564-.672-.846-1.65-.846-2.934 0-1.272.282-2.238.846-2.898.576-.672 1.368-1.008 2.376-1.008 1.02 0 1.818.336 2.394 1.008.576.66.864 1.626.864 2.898 0 1.284-.288 2.262-.864 2.934-.576.66-1.374.99-2.394.99zM153.92 197h-1.98l7.416-12.816h1.998L153.92 197zm-1.854-6.624c.468 0 .81-.192 1.026-.576.216-.384.324-1.014.324-1.89 0-.852-.114-1.47-.342-1.854-.216-.396-.552-.594-1.008-.594-.444 0-.774.198-.99.594-.216.384-.324 1.002-.324 1.854 0 .864.108 1.494.324 1.89.216.384.546.576.99.576zm9.144 6.75c-1.02 0-1.818-.33-2.394-.99-.564-.672-.846-1.656-.846-2.952 0-1.272.282-2.238.846-2.898.576-.66 1.374-.99 2.394-.99s1.812.33 2.376.99c.576.66.864 1.632.864 2.916s-.288 2.262-.864 2.934c-.564.66-1.356.99-2.376.99zm0-1.458c.456 0 .792-.192 1.008-.576.216-.396.324-1.026.324-1.89 0-.852-.114-1.47-.342-1.854-.216-.396-.546-.594-.99-.594-.456 0-.792.198-1.008.594-.216.384-.324 1.002-.324 1.854 0 .864.108 1.494.324 1.89.216.384.552.576 1.008.576z"/>
</svg>
