<svg xmlns="http://www.w3.org/2000/svg" width="205" height="73" fill="none" viewBox="0 0 205 73">
    <path fill="#00A7A7" fill-rule="evenodd" d="M95.405 39.181c-1.41 1.877-3.214 3.444-5.41 4.7-3.068 1.795-6.569 2.692-10.504 2.692-4.201 0-7.97-.963-11.304-2.89-3.268-1.928-5.836-4.619-7.703-8.075-1.867-3.455-2.801-7.41-2.801-11.862 0-4.518 1-8.572 3.001-12.16 2.068-3.59 4.902-6.38 8.503-8.374A23.716 23.716 0 0 1 76.702.54C78.27.187 79.902 0 81.576 0c1.235 0 2.446.102 3.627.297 7.268.727 13 3.726 17.197 8.996 4.935 6.047 7.403 14.686 7.403 25.917 0 7.841-1.167 14.586-3.502 20.235-2.334 5.648-5.702 9.968-10.103 12.958-4.335 2.99-9.504 4.486-15.506 4.486-4.269 0-8.437-.698-12.505-2.093-4.002-1.462-7.47-3.522-10.404-6.18l4.302-9.37c6.335 4.917 12.371 7.376 18.107 7.376 5.268 0 9.336-2.226 12.204-6.679 2.793-4.3 4.317-10.348 4.573-18.14-.5.483-1.021.943-1.564 1.378zm27.564-1.28c3.201 3.655 7.603 5.482 13.205 5.482 5.669 0 10.104-1.827 13.305-5.482 3.201-3.721 4.802-9.137 4.802-16.248 0-7.044-1.601-12.394-4.802-16.049-3.201-3.72-7.636-5.582-13.305-5.582-5.602 0-10.004 1.861-13.205 5.582-3.135 3.655-4.702 9.005-4.702 16.05 0 7.11 1.567 12.526 4.702 16.247zm12.505 34.09h11.004L187.793 1.02h-11.104l-41.215 70.973zm6.402-39.871c-1.201 2.126-3.101 3.19-5.702 3.19-2.468 0-4.302-1.064-5.502-3.19-1.201-2.193-1.801-5.682-1.801-10.467 0-4.718.6-8.14 1.801-10.267 1.2-2.193 3.034-3.29 5.502-3.29 2.534 0 4.401 1.097 5.602 3.29 1.267 2.127 1.901 5.549 1.901 10.267 0 4.851-.601 8.34-1.801 10.467zm31.812 35.087c3.201 3.655 7.636 5.483 13.305 5.483s10.071-1.828 13.205-5.483C203.399 63.486 205 58.07 205 50.96c0-7.11-1.601-12.493-4.802-16.148-3.134-3.655-7.536-5.483-13.205-5.483-5.669 0-10.104 1.828-13.305 5.483-3.134 3.655-4.702 9.005-4.702 16.049 0 7.177 1.568 12.626 4.702 16.347zm18.907-5.781c-1.2 2.126-3.068 3.19-5.602 3.19-2.534 0-4.402-1.064-5.602-3.19-1.2-2.193-1.801-5.682-1.801-10.467 0-4.718.601-8.14 1.801-10.267 1.2-2.193 3.068-3.29 5.602-3.29 2.468 0 4.302 1.097 5.502 3.29 1.267 2.127 1.901 5.55 1.901 10.267 0 4.785-.6 8.274-1.801 10.467zM27.711 26.637c4.468 0 8.403.964 11.804 2.89 3.401 1.862 6.036 4.52 7.903 7.975 1.867 3.39 2.801 7.31 2.801 11.763 0 4.651-1.067 8.772-3.201 12.36-2.134 3.522-5.202 6.28-9.204 8.274-4.001 1.927-8.636 2.89-13.905 2.89-4.468 0-8.87-.73-13.205-2.193C6.37 69.068 2.801 67.041 0 64.516l4.302-9.37c6.469 4.917 13.071 7.376 19.807 7.376 4.469 0 7.87-1.096 10.204-3.29 2.401-2.259 3.601-5.448 3.601-9.569 0-3.92-1.233-7.044-3.701-9.37-2.4-2.392-5.635-3.588-9.704-3.588-2.8 0-5.435.532-7.903 1.595-2.467.997-4.635 2.492-6.502 4.485H2.3V1.02h44.617v9.968H14.906v19.338c3.601-2.459 7.87-3.688 12.805-3.688z" clip-rule="evenodd"/>
    <path fill="#fff" fill-rule="evenodd" d="M69.423 10.83a1.688 1.688 0 0 1 2.26-.75l6.688 3.331a1.678 1.678 0 0 1 0 3.004l-6.688 3.331a1.688 1.688 0 0 1-2.26-.75 1.676 1.676 0 0 1 .753-2.253l3.673-1.83-3.673-1.83a1.676 1.676 0 0 1-.753-2.253zM93.49 10.83a1.688 1.688 0 0 0-2.261-.75L84.54 13.41a1.678 1.678 0 0 0 0 3.004l6.688 3.331a1.688 1.688 0 0 0 2.26-.75 1.676 1.676 0 0 0-.753-2.253l-3.673-1.83 3.673-1.83a1.676 1.676 0 0 0 .753-2.253z" clip-rule="evenodd"/>
    <ellipse cx="81.709" cy="28.797" fill="#fff" rx="7.781" ry="7.753"/>
</svg>
