<svg xmlns="http://www.w3.org/2000/svg" xmlns:xlink="http://www.w3.org/1999/xlink" width="120" height="120" viewBox="0 0 120 120">
    <defs>
        <path id="hi7ernvjxa" d="M0 0L22.675 0 22.675 36.364 0 36.364z"/>
        <path id="sr71jp3i6c" d="M0 0L19.239 0 19.239 16.783 0 16.783z"/>
        <path id="2yo39dpgge" d="M15.198 0l-4.262 2.446c-5.819 9.95-8.89 15.282-9.215 15.994-.21.461-.63 2.318-1.05 4.428-.152.762-.376 1.958-.671 3.588C2.47 25 4.093 24.169 4.87 23.963c.778-.206 1.961-.089 3.55.35l-.223-5.517"/>
        <path id="ol061nnaug" d="M24.41 7.728c0-1.887-7.639-3.717-9.833-6.758-1.463-2.027-4.304-.877-8.523 3.45C1.423 13.715-.55 21.494.132 27.755c4.93 0 17.592.623 22.763 0"/>
    </defs>
    <g fill="none" fill-rule="evenodd">
        <g>
            <g>
                <g>
                    <g transform="translate(-113.000000, -350.000000) translate(0.000000, 171.000000) translate(113.000000, 179.000000) translate(16.368098, 8.800000)">
                        <rect width="97.632" height="90.676" x="1" y="8.324" stroke="#6FCCCD" stroke-width="2" rx="4"/>
                        <path fill="#6FCCCD" d="M4 5.226h91.632c2.209 0 4 1.79 4 4v15.58H0V9.226c0-2.21 1.79-4 4-4z"/>
                        <g fill="#D5D9D9" fill-rule="nonzero">
                            <path d="M12.86 0c.883 0 1.6.716 1.6 1.6v7.989c0 .883-.717 1.6-1.6 1.6H1.6c-.884 0-1.6-.717-1.6-1.6V1.6C0 .716.716 0 1.6 0h11.26zm0 .8H1.6c-.41 0-.748.309-.795.707L.8 1.6v7.989c0 .41.309.748.707.794l.093.006h11.26c.41 0 .748-.309.794-.707l.005-.093V1.6c0-.41-.309-.748-.706-.795L12.859.8zM35.452 0c.884 0 1.6.716 1.6 1.6v7.989c0 .883-.716 1.6-1.6 1.6h-11.26c-.883 0-1.6-.717-1.6-1.6V1.6c0-.884.717-1.6 1.6-1.6h11.26zm0 .8h-11.26c-.41 0-.748.309-.794.707l-.005.093v7.989c0 .41.309.748.706.794l.094.006h11.259c.41 0 .748-.309.795-.707l.005-.093V1.6c0-.41-.309-.748-.707-.795L35.452.8zM81.541 0c.884 0 1.6.716 1.6 1.6v7.989c0 .883-.716 1.6-1.6 1.6h-11.26c-.883 0-1.6-.717-1.6-1.6V1.6c0-.884.717-1.6 1.6-1.6h11.26zm0 .8h-11.26c-.41 0-.748.309-.794.707l-.005.093v7.989c0 .41.309.748.706.794l.094.006h11.26c.41 0 .748-.309.794-.707l.005-.093V1.6c0-.41-.309-.748-.707-.795L81.541.8zM58.948 0c.884 0 1.6.716 1.6 1.6v7.989c0 .883-.716 1.6-1.6 1.6H47.69c-.884 0-1.6-.717-1.6-1.6V1.6c0-.884.716-1.6 1.6-1.6h11.26zm0 .8H47.69c-.41 0-.748.309-.795.707l-.005.093v7.989c0 .41.309.748.707.794l.093.006h11.26c.41 0 .748-.309.794-.707l.005-.093V1.6c0-.41-.308-.748-.706-.795L58.948.8z" transform="translate(8.932515, 30.769231)"/>
                        </g>
                        <g transform="translate(31.525207, 48.251748)">
                            <rect width="13.459" height="10.189" x=".5" y=".5" stroke="#D5D9D9" rx="1"/>
                            <path fill="#D5D9D9" fill-rule="nonzero" d="M58.948 0c.884 0 1.6.716 1.6 1.6v7.989c0 .883-.716 1.6-1.6 1.6H47.69c-.884 0-1.6-.717-1.6-1.6V1.6c0-.884.716-1.6 1.6-1.6h11.26zm0 .8H47.69c-.41 0-.748.309-.795.707l-.005.093v7.989c0 .41.309.748.707.794l.093.006h11.26c.41 0 .748-.309.794-.707l.005-.093V1.6c0-.41-.308-.748-.706-.795L58.948.8zM36.356 0c.883 0 1.6.716 1.6 1.6v7.989c0 .883-.717 1.6-1.6 1.6h-11.26c-.883 0-1.6-.717-1.6-1.6V1.6c0-.884.717-1.6 1.6-1.6h11.26zm0 .8h-11.26c-.41 0-.748.309-.794.707l-.006.093v7.989c0 .41.31.748.707.794l.093.006h11.26c.41 0 .748-.309.794-.707l.006-.093V1.6c0-.41-.31-.748-.707-.795L36.356.8z"/>
                        </g>
                        <rect width="9.189" height="14.818" x="19.972" y="-.5" fill="#00A7A7" stroke="#FFF" rx="1.5"/>
                        <rect width="9.189" height="14.818" x="71.835" y="-.5" fill="#00A7A7" stroke="#FFF" rx="1.5"/>
                    </g>
                    <g>
                        <path fill="#54AEAF" d="M24.165 32.867s16.943-5.537 21.2-13.472c2.053-3.824-.86-8.29-5.225-8.205-12.766.247-17.465 20.356-17.465 20.356l1.49 1.321z" transform="translate(-113.000000, -350.000000) translate(0.000000, 171.000000) translate(113.000000, 179.000000) translate(4.000000, 48.660140)"/>
                        <path fill="#FFF" d="M22.443 34.266l-.455-.264c.471-.787 11.498-19.27 22.298-20.715l.377.449c-10.547 1.411-22.106 20.34-22.22 20.53" transform="translate(-113.000000, -350.000000) translate(0.000000, 171.000000) translate(113.000000, 179.000000) translate(4.000000, 48.660140)"/>
                        <g transform="translate(-113.000000, -350.000000) translate(0.000000, 171.000000) translate(113.000000, 179.000000) translate(4.000000, 48.660140) translate(6.184049, 0.000000)">
                            <mask id="f9b9gktemb" fill="#fff">
                                <use xlink:href="#hi7ernvjxa"/>
                            </mask>
                            <path fill="#6FCCCD" d="M4.268 20.378C2.228 17.61 1.043 15.15.412 13.015-1.301 7.223 2.519 1.203 8.392.19c3.293-.569 7.358-.018 11.18 3.917 8.4 8.648-2.917 32.258-2.917 32.258H12.57s-.155-4.926-8.303-15.986" mask="url(#f9b9gktemb)"/>
                        </g>
                        <g transform="translate(-113.000000, -350.000000) translate(0.000000, 171.000000) translate(113.000000, 179.000000) translate(4.000000, 48.660140) translate(0.000000, 18.881119)">
                            <mask id="heezk8kond" fill="#fff">
                                <use xlink:href="#sr71jp3i6c"/>
                            </mask>
                            <path fill="#ADE8E8" d="M14.563 16.783S2.338 14.235.12 5.285C-.57 2.501 1.807-.14 4.793.005c15.14.74 14.441 16.778 14.441 16.778h-4.67z" mask="url(#heezk8kond)"/>
                        </g>
                        <path fill="#FFF" d="M20.917 36.364l-.48-.118c.052-.233 4.862-23.486-7.382-34.626l.53-.221c12.472 11.346 7.384 34.73 7.332 34.965M17.401 35.664c-.084-.14-8.549-14.05-16.714-14.877l.302-.507c8.437.854 16.53 14.535 16.876 15.117l-.464.267z" transform="translate(-113.000000, -350.000000) translate(0.000000, 171.000000) translate(113.000000, 179.000000) translate(4.000000, 48.660140)"/>
                        <path fill="#157778" d="M12.368 50.35L27.485 50.35 27.485 36.364 12.368 36.364z" transform="translate(-113.000000, -350.000000) translate(0.000000, 171.000000) translate(113.000000, 179.000000) translate(4.000000, 48.660140)"/>
                        <path fill="#DBF2F2" d="M27.822 37.762H10.658c-.571 0-1.038-.471-1.038-1.049 0-.577.467-1.049 1.038-1.049h17.164c.57 0 1.037.472 1.037 1.05 0 .577-.467 1.048-1.037 1.048" transform="translate(-113.000000, -350.000000) translate(0.000000, 171.000000) translate(113.000000, 179.000000) translate(4.000000, 48.660140)"/>
                    </g>
                    <g>
                        <g>
                            <path fill="#0A9494" d="M17.563 45.057C1.938 48.535-3.261 54.607 1.965 63.272l94.71.346c2.761.01 5.008-2.22 5.018-4.982V45.057c-40.462-3.478-68.506-3.478-84.13 0z" transform="translate(-113.000000, -350.000000) translate(0.000000, 171.000000) translate(113.000000, 179.000000) translate(14.306748, 45.163636)"/>
                            <g>
                                <path stroke="#979797" d="M20.657 9.983c-.756-.239-1.128-.072-1.117.5.017.857 1.35 1.75 1.812 1.759.308.006.46-.305.459-.933" transform="translate(-113.000000, -350.000000) translate(0.000000, 171.000000) translate(113.000000, 179.000000) translate(14.306748, 45.163636) translate(25.574698, 2.452451) translate(20.675163, 11.059835) scale(-1, 1) rotate(52.000000) translate(-20.675163, -11.059835)"/>
                                <path fill="#1C2C57" d="M20.021 9.836l-7.649-3.063L8.35 4.43c1.036-1.513 2.616-2.47 4.74-2.87 3.186-.6 6.39 1.492 7.83 4.817.96 2.217 2.37 6.011 4.228 11.383-1.569 1.797-2.664 2.213-3.287 1.25-.623-.962-1.236-4.02-1.84-9.174z" transform="translate(-113.000000, -350.000000) translate(0.000000, 171.000000) translate(113.000000, 179.000000) translate(14.306748, 45.163636) translate(25.574698, 2.452451) translate(16.748897, 10.486037) rotate(11.000000) translate(-16.748897, -10.486037)"/>
                                <path fill="#FF7900" d="M11.232 18.789c9.89-.911 15.045-.436 15.468 1.425 2.044 8.996.988 14.547.988 21.403l-24.39-.346 5.45-21.862 2.484-.62z" transform="translate(-113.000000, -350.000000) translate(0.000000, 171.000000) translate(113.000000, 179.000000) translate(14.306748, 45.163636) translate(25.574698, 2.452451)"/>
                                <path fill="#EE770B" d="M9.072 19.409l-4.725 2.166C1.867 34.945.881 41.977 1.388 42.672c.335.46 1.957.51 2.567.51 1.998 0 2.945-.285 2.842-.856l1.286-5.372.989-6.413" transform="translate(-113.000000, -350.000000) translate(0.000000, 171.000000) translate(113.000000, 179.000000) translate(14.306748, 45.163636) translate(25.574698, 2.452451)"/>
                                <path fill="#F2A883" d="M11.9 19.475c1.209-1.25 8.607-1.478 9.503 0 .897 1.478-1.38 5.043-4.87 5.043-3.492 0-5.842-3.791-4.633-5.043z" transform="translate(-113.000000, -350.000000) translate(0.000000, 171.000000) translate(113.000000, 179.000000) translate(14.306748, 45.163636) translate(25.574698, 2.452451)"/>
                                <path fill="#EDA079" d="M18.87 18.34v3.762c-.502.512-1.26.768-2.275.768-1.014 0-1.772-.256-2.273-.768v-4.747l4.547.985z" transform="translate(-113.000000, -350.000000) translate(0.000000, 171.000000) translate(113.000000, 179.000000) translate(14.306748, 45.163636) translate(25.574698, 2.452451)"/>
                                <path fill="#FDBA98" d="M16.343 19.849c1.772-.094 4.071-3.414 4.1-7.2.03-3.788-2.062-6.843-4.672-6.823-2.61.02-4.749 3.105-4.778 6.892-.03 3.788 3.578 7.224 5.35 7.13z" transform="translate(-113.000000, -350.000000) translate(0.000000, 171.000000) translate(113.000000, 179.000000) translate(14.306748, 45.163636) translate(25.574698, 2.452451) translate(15.718216, 12.838045) rotate(-11.000000) translate(-15.718216, -12.838045)"/>
                                <path fill="#1C2C57" d="M10.513 1.855l2.042 3.063c-1.018 4.048-1.525 6.806-1.52 8.274.006 2.201.821 1.447 2.519 3.809 1.697 2.362 2.661 3.634 2.205 7.249-.457 3.614 1.416 3.683-.64 6.198-2.056 2.515-7.691 2.372-9.703 1.106-1.227-.772-3.78-4.645-2.077-8.218.562-1.18 1.289-5.909.72-8.746-.57-2.837.834-9.117 2.196-10.992.908-1.25 2.327-1.832 4.258-1.743z" transform="translate(-113.000000, -350.000000) translate(0.000000, 171.000000) translate(113.000000, 179.000000) translate(14.306748, 45.163636) translate(25.574698, 2.452451) translate(9.437984, 17.144360) rotate(11.000000) translate(-9.437984, -17.144360)"/>
                                <path fill="#D66500" d="M22.3 25.291v13.047L5.51 40.489c1.162-1.184 2.19-2.038 3.085-2.564.88-.516 9.981-1.481 10.455-2.11 1.196-1.586 2.28-5.094 3.25-10.524z" transform="translate(-113.000000, -350.000000) translate(0.000000, 171.000000) translate(113.000000, 179.000000) translate(14.306748, 45.163636) translate(25.574698, 2.452451)"/>
                                <g>
                                    <path fill="#F2A883" d="M9.576 0.158L5.942 0.079 2.023 0.721 0 3.982 2.747 4 3.556 2.613 8.334 2.33z" transform="translate(-113.000000, -350.000000) translate(0.000000, 171.000000) translate(113.000000, 179.000000) translate(14.306748, 45.163636) translate(25.574698, 2.452451) translate(2.772622, 39.433544)"/>
                                    <path fill="#F6BDA1" d="M9.576 0.079L5.942 0 2.023 0.642 0 3.903 1.134 3.903 2.747 1.952 8.334 2.251z" transform="translate(-113.000000, -350.000000) translate(0.000000, 171.000000) translate(113.000000, 179.000000) translate(14.306748, 45.163636) translate(25.574698, 2.452451) translate(2.772622, 39.433544)"/>
                                    <path fill="#FDBA98" d="M4.331 1.96l-2.756.932.601 1.011 2.683-.448c.735.372 1.378.521 1.93.448.552-.073 1.331-.41 2.338-1.01V.078" transform="translate(-113.000000, -350.000000) translate(0.000000, 171.000000) translate(113.000000, 179.000000) translate(14.306748, 45.163636) translate(25.574698, 2.452451) translate(2.772622, 39.433544)"/>
                                </g>
                                <path fill="#FF7900" d="M21.093 38.453c-2.65.257-5.714.584-9.193.98l-.728 2.893H27.65V38.98c-1.723-.61-3.909-.785-6.558-.527z" transform="translate(-113.000000, -350.000000) translate(0.000000, 171.000000) translate(113.000000, 179.000000) translate(14.306748, 45.163636) translate(25.574698, 2.452451)"/>
                            </g>
                            <g>
                                <path fill="#E3DFDF" d="M.371 26.356c2.13.22 4.062.074 5.795-.441C7.9 25.4 8.605 24.829 8.283 24.2L4.98 23.17c-1.618.787-2.88 1.493-3.785 2.12-.906.625-1.181.98-.825 1.065z" transform="translate(-113.000000, -350.000000) translate(0.000000, 171.000000) translate(113.000000, 179.000000) translate(14.306748, 45.163636) translate(56.286314, 20.270939)"/>
                                <path fill="#F2AB86" d="M9.967 25.89l3.748 3.678-4.969 2.14L7.203 28.6l-5.482-3.95c.28-.33.853-.89 1.717-1.676.864-.786 3.04.185 6.529 2.915z" transform="translate(-113.000000, -350.000000) translate(0.000000, 171.000000) translate(113.000000, 179.000000) translate(14.306748, 45.163636) translate(56.286314, 20.270939)"/>
                                <g transform="translate(-113.000000, -350.000000) translate(0.000000, 171.000000) translate(113.000000, 179.000000) translate(14.306748, 45.163636) translate(56.286314, 20.270939)">
                                    <mask id="pt155tnrpf" fill="#fff">
                                        <use xlink:href="#2yo39dpgge"/>
                                    </mask>
                                    <use fill="#FFF" xlink:href="#2yo39dpgge"/>
                                    <path fill="#F3F3F3" d="M14.582 3.141L9.307 22.177c-.205 1.454-.546 2.138-1.024 2.05-.478-.087-2.666.298-6.562 1.154 1.947-1.71 3.248-3.22 3.904-4.532 3.261-6.524 4.754-12.164 5.393-13.708.466-1.124 1.979-3.39 2.697-4 .376-.318.665-.318.867 0z" mask="url(#pt155tnrpf)"/>
                                </g>
                            </g>
                            <g transform="translate(-113.000000, -350.000000) translate(0.000000, 171.000000) translate(113.000000, 179.000000) translate(14.306748, 45.163636) translate(64.568895, 16.018238)">
                                <mask id="a1kw07gdph" fill="#fff">
                                    <use xlink:href="#ol061nnaug"/>
                                </mask>
                                <use fill="#FFF" xlink:href="#ol061nnaug"/>
                                <path fill="#F3F3F3" d="M20.611 7.836L19.18 28.032h-8.41c2.689-1.308 4.624-3.177 5.808-5.606 1.184-2.43 2.529-7.293 4.033-14.59z" mask="url(#a1kw07gdph)"/>
                            </g>
                            <path fill="#F2AB86" d="M70.87 20.53c-.04 3.06.746 4.112 2.357 3.156 1.61-.956 3.186-3.41 4.728-7.362l-3.315-4.31" transform="translate(-113.000000, -350.000000) translate(0.000000, 171.000000) translate(113.000000, 179.000000) translate(14.306748, 45.163636)"/>
                            <path fill="#037090" d="M71.378 23.601L73.048 23.907 73.689 23.226 74.805 25.015 73.689 26.43 71.093 26.43 70.868 23.907z" transform="translate(-113.000000, -350.000000) translate(0.000000, 171.000000) translate(113.000000, 179.000000) translate(14.306748, 45.163636)"/>
                            <path fill="#06627D" d="M70.868 24.027c1.182 0 1.889.066 2.121.196.233.131.297.867.193 2.207h-2.314v-2.403z" transform="translate(-113.000000, -350.000000) translate(0.000000, 171.000000) translate(113.000000, 179.000000) translate(14.306748, 45.163636)"/>
                            <path fill="#037090" d="M71.271 26.43L69.293 44.05 74.805 44.05 73.85 26.43" transform="translate(-113.000000, -350.000000) translate(0.000000, 171.000000) translate(113.000000, 179.000000) translate(14.306748, 45.163636)"/>
                            <path fill="#FFF" d="M78.11 16.298l-5.667 7.82.872-.77 2.166 3.082c3.224-5.282 4.836-8.139 4.836-8.57 0-.648-.889-1.229-1.201-1.562-.313-.333-.22-.99-.514-1.067-.196-.051-.57.043-1.119.285l.628.782zM70.807 20.824c.004.581.06 1.077.166 1.486.106.409.334.912.683 1.508h-.85l-1.513 1.811.373-4.314 1.14-.491zM60.7 53.301l-8.318 1.962-5.136-4.638c3.934-1.145 7.006-1.89 9.216-2.235 2.21-.345 4.309-.424 6.295-.236l4.174 2.511" transform="translate(-113.000000, -350.000000) translate(0.000000, 171.000000) translate(113.000000, 179.000000) translate(14.306748, 45.163636)"/>
                            <path fill="#FAB08A" d="M62.256 7.999c-.519 2.42 3.195 13.872 5.557 14.405 1.113.252 3.607-1.756 5.736-5.413.59-1.011 1.271-2.764 2.044-5.257-2.598-3.52-4.695-5.476-6.292-5.87-2.396-.589-6.527-.286-7.045 2.135z" transform="translate(-113.000000, -350.000000) translate(0.000000, 171.000000) translate(113.000000, 179.000000) translate(14.306748, 45.163636)"/>
                            <path fill="#1C2C57" d="M58.552 8.256c-.944 1.873.508 5.38 3.892 4.384 5.335-1.57 5.627-5.1 7.402-5.127 1.183-.018 2.056.785 2.618 2.407l3.916-6.302c-2-2.69-4.461-3.88-7.386-3.57-2.605.276-5.3 2.278-7.039 3.665-1.72 1.373-2.61 2.972-3.403 4.543z" transform="translate(-113.000000, -350.000000) translate(0.000000, 171.000000) translate(113.000000, 179.000000) translate(14.306748, 45.163636)"/>
                            <path fill="#FFF" d="M78.693 16.018L91.369 21.172 92.916 49.624 68.744 55.263 67.719 48.369 82.595 44.656 84.266 25.564" transform="translate(-113.000000, -350.000000) translate(0.000000, 171.000000) translate(113.000000, 179.000000) translate(14.306748, 45.163636)"/>
                            <path fill="#F2AB86" d="M67.905 50.846c-2.498-.424-4.69-.501-6.575-.23-2.828.405-5.672 1.728-6.05 1.905-.38.177-1.314.987-.793 1.417.52.429 3.397-.558 4.928.103 1.53.66 1.535 2.338 2.41 2.5.95.176 3.093.532 3.872.162.4-.19.445-1.006 1.414-1.597.301-.184 1.029-.362 2.182-.533" transform="translate(-113.000000, -350.000000) translate(0.000000, 171.000000) translate(113.000000, 179.000000) translate(14.306748, 45.163636)"/>
                        </g>
                        <path fill="#1C2C57" d="M75.6 2.797c1.329 1.73 2.157 3.476 2.485 5.24.328 1.763.328 3.902 0 6.416l-1.621.932-4.317-7.714L75.6 2.797z" transform="translate(-113.000000, -350.000000) translate(0.000000, 171.000000) translate(113.000000, 179.000000) translate(14.306748, 45.163636)"/>
                        <path fill="#FAB08A" d="M70.791 9.97c-.097-1.692.197-2.442.883-2.248 1.028.29 2.202 1.95 1.747 3.12-.304.78-.666 1.362-1.088 1.745l-1.542-2.616z" transform="translate(-113.000000, -350.000000) translate(0.000000, 171.000000) translate(113.000000, 179.000000) translate(14.306748, 45.163636)"/>
                    </g>
                </g>
            </g>
        </g>
    </g>
</svg>
