<svg xmlns="http://www.w3.org/2000/svg" width="34" height="41" viewBox="0 0 34 41">
    <g fill="none" fill-rule="evenodd">
        <path fill="#00A7A7" d="M0 0h34v41H0z"/>
        <g transform="translate(4 1)">
            <path stroke="#FFF" stroke-width=".5" d="M4.058.947A8.127 8.127 0 0 0 2 6.35c0 2.042.758 3.911 2.016 5.355m13.028-.069a8.121 8.121 0 0 0-.045-10.624"/>
            <path fill="#00A7A7" d="M12 14c-2.556 6.02-3.834 10.357-3.834 13.012 0 2.654-.157 6.014-.47 10.078l15.724-.064L26 29.35l-.3-11.035c-.59-.518-1.156-.777-1.7-.777s-1.21.26-2 .777v-1.682c-1.07-.67-1.903-1.005-2.5-1.005s-1.43.335-2.5 1.005l-.325-2.352c-.87-1.128-1.595-1.683-2.175-1.665-.58.019-1.413.48-2.5 1.384z"/>
            <ellipse cx="10.5" cy="6.333" fill="#098E8E" rx="5.5" ry="5.359"/>
            <g stroke="#FFF">
                <path fill="#00A7A7" d="M7.79 37.026l-4.014-6.157a5 5 0 0 1-.538-1.1l-3.13-9.073a1.945 1.945 0 0 1 1.076-2.423c.734-.313 1.453-.216 2.156.29l-.03.043c.366.264.685.59.942.963l3.539 5.136V8.97a2.15 2.15 0 0 1 2.15-2.15A2.06 2.06 0 0 1 12 8.88v13.515"/>
                <path d="M12 17.538v-2.371a2.5 2.5 0 0 1 5 0v7.243M17 20.009v-1.92a2.5 2.5 0 0 1 5 0v5.296M22 21.034v-1.496a2 2 0 1 1 4 0V29.64l-2.712 7.45"/>
            </g>
        </g>
    </g>
</svg>
