<?xml version="1.0" encoding="UTF-8"?>
<svg width="174px" height="133px" viewBox="0 0 174 133" version="1.1" xmlns="http://www.w3.org/2000/svg" xmlns:xlink="http://www.w3.org/1999/xlink">
    <!-- Generator: Sketch 54.1 (76490) - https://sketchapp.com -->
    <title>Group</title>
    <desc>Created with Sketch.</desc>
    <defs>
        <polygon id="path-1" points="0.210379752 0.0594106701 36.4745506 0.0594106701 36.4745506 57.9506751 0.210379752 57.9506751"></polygon>
        <polygon id="path-3" points="0 0.178607984 30.3124564 0.178607984 30.3124564 27.535415 0 27.535415"></polygon>
        <linearGradient x1="-9.82867346e-06%" y1="50.0001561%" x2="100.000145%" y2="50.0001561%" id="linearGradient-5">
            <stop stop-color="#FFFFFF" offset="0%"></stop>
            <stop stop-color="#F2F4FF" offset="100%"></stop>
        </linearGradient>
        <linearGradient x1="116.24516%" y1="50.0011224%" x2="-8.39702904%" y2="50.0011224%" id="linearGradient-6">
            <stop stop-color="#FF9E54" offset="0%"></stop>
            <stop stop-color="#FFD154" offset="100%"></stop>
        </linearGradient>
        <polygon id="path-7" points="0 132.649077 147.318029 132.649077 147.318029 0.061060686 0 0.061060686"></polygon>
        <path d="M0.139667546,1.82234565 C0.139667546,1.82234565 -1.06961478,9.9690343 7.24586807,14.2141557 L7.24586807,14.2141557 C15.561,9.9690343 14.3520686,1.82234565 14.3520686,1.82234565 L14.3520686,1.82234565 C8.89064644,1.82234565 7.24586807,0.0421108179 7.24586807,0.0421108179 L7.24586807,0.0421108179 C7.24586807,0.0421108179 5.60108971,1.82234565 0.139667546,1.82234565 M1.02925858,2.4866438 C5.80708179,2.4866438 7.24586807,0.929596306 7.24586807,0.929596306 L7.24586807,0.929596306 C7.24586807,0.929596306 8.68465435,2.4866438 13.4624776,2.4866438 L13.4624776,2.4866438 C13.4624776,2.4866438 14.51981,9.61284697 7.24586807,13.3270211 L7.24586807,13.3270211 C-0.0280738786,9.61284697 1.02925858,2.4866438 1.02925858,2.4866438" id="path-9"></path>
        <linearGradient x1="-0.00116781271%" y1="50.000151%" x2="99.9996346%" y2="50.000151%" id="linearGradient-11">
            <stop stop-color="#FF9E54" offset="0%"></stop>
            <stop stop-color="#FFD154" offset="100%"></stop>
        </linearGradient>
        <path d="M0.361802111,1.50862005 C0.361802111,1.50862005 -0.438654354,6.90371768 5.06803694,9.71531662 L5.06803694,9.71531662 L5.06803694,0.32951715 C5.06803694,0.32951715 3.97912137,1.50862005 0.361802111,1.50862005" id="path-12"></path>
        <linearGradient x1="152.167259%" y1="50.0020975%" x2="-25.5449322%" y2="50.0020975%" id="linearGradient-14">
            <stop stop-color="#FF9E54" offset="0%"></stop>
            <stop stop-color="#FFD154" offset="100%"></stop>
        </linearGradient>
        <path d="M1.79707916,0.0235118734 C0.971005277,0.0235118734 0.301092348,0.693073879 0.301092348,1.51879683 L0.301092348,1.51879683 L0.301092348,9.38650132 C0.301092348,10.2125752 0.971005277,10.8821372 1.79707916,10.8821372 L1.79707916,10.8821372 L9.66408179,10.8821372 C10.4901557,10.8821372 11.1597177,10.2125752 11.1597177,9.38650132 L11.1597177,9.38650132 L11.1597177,1.51879683 C11.1597177,0.693073879 10.4901557,0.0235118734 9.66408179,0.0235118734 L9.66408179,0.0235118734 L1.79707916,0.0235118734 Z M5.31017414,5.69268074 C4.64517414,5.50809499 4.15598681,4.90029551 4.15598681,4.17669129 L4.15598681,4.17669129 C4.15598681,3.3071029 4.86099208,2.60209763 5.73058047,2.60209763 L5.73058047,2.60209763 C6.60016887,2.60209763 7.30517414,3.3071029 7.30517414,4.17669129 L7.30517414,4.17669129 C7.30517414,4.90029551 6.81668865,5.50809499 6.15168865,5.69268074 L6.15168865,5.69268074 L6.15168865,8.3028496 L5.31017414,8.3028496 L5.31017414,5.69268074 Z" id="path-15"></path>
        <linearGradient x1="152.164696%" y1="49.9989083%" x2="-25.5462858%" y2="49.9989083%" id="linearGradient-17">
            <stop stop-color="#FF9E54" offset="0%"></stop>
            <stop stop-color="#FFD154" offset="100%"></stop>
        </linearGradient>
        <path d="M8.24880739,0.061060686 C6.43769129,0.061060686 4.76834828,0.669562005 3.43589182,1.69601319 L3.43589182,1.69601319 C1.55704749,3.1397124 0.346361478,5.40983641 0.346361478,7.96385752 L0.346361478,7.96385752 C0.346361478,8.21546966 0.357591029,8.46392348 0.381453826,8.70956992 L0.381453826,8.70956992 C0.518313984,10.1778338 1.05698153,11.5292401 1.88726649,12.6528971 L1.88726649,12.6528971 C3.06180739,14.2450369 4.82028496,15.3799235 6.84756992,15.7424274 L6.84756992,15.7424274 C7.30166491,15.8241926 7.77049868,15.8666544 8.24880739,15.8666544 L8.24880739,15.8666544 C9.48440897,15.8666544 10.6533351,15.5831082 11.694876,15.0781293 L11.694876,15.0781293 C13.7418127,14.084314 15.2957018,12.2338945 15.8887625,9.99254617 L15.8887625,9.99254617 C16.0056201,9.55143536 16.0856306,9.09453298 16.1242322,8.62675198 L16.1242322,8.62675198 C16.1421293,8.40777573 16.1519551,8.18704485 16.1519551,7.96385752 L16.1519551,7.96385752 C16.1519551,5.79479947 15.2781557,3.82962797 13.8625303,2.40207124 L13.8625303,2.40207124 L13.8625303,2.40136939 C12.4300607,0.955915567 10.4441847,0.061060686 8.24880739,0.061060686 Z" id="path-18"></path>
        <linearGradient x1="99.9995098%" y1="49.9997973%" x2="-0.00160168739%" y2="49.9997973%" id="linearGradient-20">
            <stop stop-color="#FF9E54" offset="0%"></stop>
            <stop stop-color="#FFD154" offset="100%"></stop>
        </linearGradient>
        <polygon id="path-21" points="0.0154406332 5.09014512 29.393 10.0922084 30.2436385 5.09786544 0.866079156 0.0954511873"></polygon>
        <linearGradient x1="100.000087%" y1="50.0007333%" x2="0.000432556682%" y2="50.0007333%" id="linearGradient-23">
            <stop stop-color="#FF9E54" offset="0%"></stop>
            <stop stop-color="#FFD154" offset="100%"></stop>
        </linearGradient>
    </defs>
    <g id="5.0-Result+Dashboard" stroke="none" stroke-width="1" fill="none" fill-rule="evenodd">
        <g id="4.1-Review-Inputs/Confirm" transform="translate(-101.000000, -205.000000)">
            <g id="Group" transform="translate(96.000000, 201.000000)">
                <path d="M91.2118002,129 C124.625028,129 183.372503,113 178.667407,68.5 C173.962312,24 124.625028,8 91.2118002,8 C57.7985728,8 -2.75789893,42 5.82348958,79.8874885 C14.4048781,117.774977 57.7985728,129 91.2118002,129 Z" id="Oval" fill="#066360"></path>
                <g id="Group-201">
                    <g id="left-leaf" transform="translate(32.628055, 36.564553) rotate(-18.000000) translate(-32.628055, -36.564553) translate(8.628055, 6.064553)">
                        <g id="Group-28" transform="translate(0.713522, 0.333179)"></g>
                        <g id="Group-2" transform="translate(0.834483, 0.348031)">
                            <g id="Group-7" transform="translate(9.574074, 0.000000)">
                                <mask id="mask-2" fill="white">
                                    <use xlink:href="#path-1"></use>
                                </mask>
                                <g id="Clip-6"></g>
                                <path d="M7.03568693,32.5016268 C3.77463893,28.0951877 1.87813671,24.1776303 0.868910933,20.7799903 C-1.87100107,11.5589222 4.23904071,1.9751831 13.6303092,0.361045441 C18.8989883,-0.54518896 25.3988585,0.331487893 31.5118247,6.5956189 C44.9473074,20.3641156 26.846166,57.9506751 26.846166,57.9506751 L20.3147118,57.9506751 C20.3147118,57.9506751 20.0681812,50.1093533 7.03568693,32.5016268" id="Fill-5" fill="#6FCCCD" mask="url(#mask-2)"></path>
                            </g>
                            <g id="Group-10" transform="translate(0.000000, 29.548724)">
                                <mask id="mask-4" fill="white">
                                    <use xlink:href="#path-3"></use>
                                </mask>
                                <g id="Clip-9"></g>
                                <path d="M22.9449995,27.535415 C22.9449995,27.535415 3.68353416,23.381395 0.189166127,8.79372959 C-0.897444804,4.25592378 2.84654207,-0.0491515125 7.55085167,0.187970138 C31.4045347,1.3914357 30.3046147,27.535415 30.3046147,27.535415 L22.9449995,27.535415 Z" id="Fill-8" fill="#ADE8E8" mask="url(#mask-4)"></path>
                            </g>
                        </g>
                        <path d="M33.9182488,59.3157183 L33.1115636,59.1237144 C33.1980869,58.7438485 41.276763,20.8374344 20.7156655,2.67724174 L21.6065666,2.31571829 C42.5489433,20.8122875 34.0053488,58.9317106 33.9182488,59.3157183" id="Fill-11" fill="#FFFFFF"></path>
                        <path d="M28.0204123,57.6185964 C27.8877407,57.4000146 14.5832181,35.6997258 1.74937084,34.4095176 L2.22445882,33.6185964 C15.4857381,34.9513705 28.2051524,56.2930125 28.7493708,57.2018529 L28.0204123,57.6185964 Z" id="Fill-13" fill="#FFFFFF"></path>
                    </g>
                    <g id="right-leaf" transform="translate(150.652566, 58.585391) rotate(-4.000000) translate(-150.652566, -58.585391) translate(133.652566, 43.085391)">
                        <path d="M4.59057449,29.1902393 C4.59057449,29.1902393 27.0734094,21.7828239 32.7232917,11.1677751 C35.445914,6.05290674 31.5819599,0.078997589 25.7888071,0.191813132 C8.84979085,0.522529362 2.6137801,27.4223932 2.6137801,27.4223932 L4.59057449,29.1902393 Z" id="Fill-1" fill="#54AEAF"></path>
                        <path d="M1.58526844,30.8177562 L0.963425012,30.4654957 C1.6078718,29.4147503 16.6838077,4.74758348 31.4488219,2.81775619 L31.963425,3.41676802 C17.543991,5.3009632 1.7412316,30.5635202 1.58526844,30.8177562" id="Fill-3" fill="#FFFFFF"></path>
                    </g>
                    <g id="Group-21" transform="translate(40.810026, 42.891446)">
                        <polygon id="Fill-18" fill="#AEBECC" points="44.9820739 90.302438 56.735905 90.302438 56.735905 54.6022902 44.9820739 54.6022902"></polygon>
                        <path d="M5.27360792,71.7995061 L96.4438797,71.7995061 C99.295133,71.7995061 101.606315,69.4879731 101.606315,66.6370707 L101.606315,5.36232137 C101.606315,2.511419 99.295133,0.200236939 96.4438797,0.200236939 L5.27360792,0.200236939 C2.42270554,0.200236939 0.111523483,2.511419 0.111523483,5.36232137 L0.111523483,66.6370707 C0.111523483,69.4879731 2.42270554,71.7995061 5.27360792,71.7995061" id="Fill-20" fill="#DEDEDE"></path>
                    </g>
                    <polygon id="Fill-22" fill="url(#linearGradient-5)" points="44.8965303 103.470665 138.44115 103.470665 138.44115 35.4708179 44.8965303 35.4708179"></polygon>
                    <polygon id="Fill-24" fill="url(#linearGradient-6)" points="44.8965303 43.6841821 138.44115 43.6841821 138.44115 35.4708179 44.8965303 35.4708179"></polygon>
                    <g id="Group-31" transform="translate(18.000000, 4.289863)">
                        <path d="M70.3950752,104.314778 C70.3950752,106.122735 71.8608826,107.588894 73.6688404,107.588894 C75.4767982,107.588894 76.9429565,106.122735 76.9429565,104.314778 C76.9429565,102.50682 75.4767982,101.041012 73.6688404,101.041012 C71.8608826,101.041012 70.3950752,102.50682 70.3950752,104.314778" id="Fill-26" fill="#949494"></path>
                        <mask id="mask-8" fill="white">
                            <use xlink:href="#path-7"></use>
                        </mask>
                        <g id="Clip-29"></g>
                        <g id="Group-117" mask="url(#mask-8)">
                            <g transform="translate(29.000000, 43.000000)">
                                <polygon id="Fill-56" fill="#E0E0E0" points="0.847094987 53.2183061 4.13314248 53.2183061 4.13314248 35.3068206 0.847094987 35.3068206"></polygon>
                                <polygon id="Fill-58" fill="#E0E0E0" points="8.10138522 53.2183061 11.3874327 53.2183061 11.3874327 30.1001689 8.10138522 30.1001689"></polygon>
                                <polygon id="Fill-59" fill="#E0E0E0" points="15.3556755 53.2183061 18.641723 53.2183061 18.641723 38.9616887 15.3556755 38.9616887"></polygon>
                                <polygon id="Fill-60" fill="#E0E0E0" points="22.6099657 53.2179551 25.8960132 53.2179551 25.8960132 32.0523562 22.6099657 32.0523562"></polygon>
                                <polygon id="Fill-61" fill="#E0E0E0" points="29.8642559 53.2179551 33.1503034 53.2179551 33.1503034 27.1959261 29.8642559 27.1959261"></polygon>
                                <polygon id="Fill-62" fill="#E0E0E0" points="37.1185462 53.2179551 40.4045937 53.2179551 40.4045937 36.4080185 37.1185462 36.4080185"></polygon>
                                <polygon id="Fill-63" fill="#4AAFFF" points="0.847094987 53.2179551 4.13314248 53.2179551 4.13314248 40.2516834 0.847094987 40.2516834"></polygon>
                                <polygon id="Fill-64" fill="#4AAFFF" points="8.10138522 53.2179551 11.3874327 53.2179551 11.3874327 36.4824142 8.10138522 36.4824142"></polygon>
                                <polygon id="Fill-65" fill="#4AAFFF" points="15.3556755 53.2179551 18.641723 53.2179551 18.641723 42.8972955 15.3556755 42.8972955"></polygon>
                                <polygon id="Fill-66" fill="#4AAFFF" points="22.6099657 53.2179551 25.8960132 53.2179551 25.8960132 37.895934 22.6099657 37.895934"></polygon>
                                <polygon id="Fill-67" fill="#4AAFFF" points="29.8642559 53.2183061 33.1503034 53.2183061 33.1503034 34.3807335 29.8642559 34.3807335"></polygon>
                                <polygon id="Fill-68" fill="#4AAFFF" points="37.1185462 53.2183061 40.4045937 53.2183061 40.4045937 41.0493325 37.1185462 41.0493325"></polygon>
                                <path d="M26.3243855,22.7402507 L1.18633272,22.7402507 C0.998939578,22.7402507 0.84698971,22.8925515 0.84698971,23.0799446 L0.84698971,24.3036148 C0.84698971,24.4910079 0.998939578,24.6429578 1.18633272,24.6429578 L26.3243855,24.6429578 C26.5117786,24.6429578 26.6637285,24.4910079 26.6637285,24.3036148 L26.6637285,23.0799446 C26.6637285,22.8925515 26.5117786,22.7402507 26.3243855,22.7402507" id="Fill-89" fill="#E0E0E0"></path>
                                <path d="M16.9620277,18.6946995 L1.18626253,18.6946995 C0.998869393,18.6946995 0.847270449,18.8466493 0.847270449,19.0340425 L0.847270449,20.2577127 C0.847270449,20.4451058 0.998869393,20.5970557 1.18626253,20.5970557 L16.9620277,20.5970557 C17.1494208,20.5970557 17.3013707,20.4451058 17.3013707,20.2577127 L17.3013707,19.0340425 C17.3013707,18.8466493 17.1494208,18.6946995 16.9620277,18.6946995" id="Fill-90" fill="#E0E0E0"></path>
                                <path d="M21.0673763,14.8993216 L1.18650818,14.8993216 C0.99911504,14.8993216 0.847165172,15.0512715 0.847165172,15.2386646 L0.847165172,16.4623348 C0.847165172,16.649728 0.99911504,16.8016778 1.18650818,16.8016778 L21.0673763,16.8016778 C21.2547694,16.8016778 21.4067193,16.649728 21.4067193,16.4623348 L21.4067193,15.2386646 C21.4067193,15.0512715 21.2547694,14.8993216 21.0673763,14.8993216" id="Fill-91" fill="#E0E0E0"></path>
                                <path d="M30.7301245,11.0185992 L1.18657836,11.0185992 C0.998834301,11.0185992 0.847235356,11.1705491 0.847235356,11.3579422 L0.847235356,12.5816124 C0.847235356,12.7690055 0.998834301,12.9209554 1.18657836,12.9209554 L30.7301245,12.9209554 C30.9175177,12.9209554 31.0694675,12.7690055 31.0694675,12.5816124 L31.0694675,11.3579422 C31.0694675,11.1705491 30.9175177,11.0185992 30.7301245,11.0185992" id="Fill-92" fill="#E0E0E0"></path>
                                <path d="M11.5050623,7.33871029 L1.18650818,7.33871029 C0.99911504,7.33871029 0.847165172,7.49066016 0.847165172,7.6780533 L0.847165172,8.90172348 C0.847165172,9.08911662 0.99911504,9.24106649 1.18650818,9.24106649 L11.5050623,9.24106649 C11.6924554,9.24106649 11.8444053,9.08911662 11.8444053,8.90172348 L11.8444053,7.6780533 C11.8444053,7.49066016 11.6924554,7.33871029 11.5050623,7.33871029" id="Fill-93" fill="#E0E0E0"></path>
                                <path d="M67.6291673,14.095005 C66.4209377,10.7170156 67.511257,7.07618443 70.0908955,4.88185989 C70.7057135,4.35898391 71.405104,3.91752216 72.1785393,3.58239024 C72.3490881,3.50834538 72.5234971,3.43921346 72.7014153,3.37534538 C74.4862121,2.73701557 76.3447029,2.74087573 78.0238718,3.2665591 C80.4480512,4.02525567 82.4995499,5.87146412 83.4203731,8.44724248 C83.7246237,9.29753008 83.8828902,10.1643111 83.9088586,11.0202135 C84.0155393,14.5557675 81.8594654,17.9112979 78.3488269,19.1669021 C73.9879008,20.7260551 69.1886712,18.4555802 67.6291673,14.095005 M79.2910565,21.8023375 C83.9730776,20.1277306 86.8488955,15.6527544 86.7071224,10.9366937 C86.6730828,9.79478865 86.4618269,8.63919763 86.0561594,7.50501293 C84.8272253,4.06982296 82.0910749,1.60634011 78.8583678,0.594276781 C76.6180723,-0.107219261 74.1394997,-0.111430343 71.7584839,0.739910026 C71.5216106,0.824833509 71.2885974,0.916775462 71.0611989,1.01573588 C70.0298348,1.46351425 69.0970802,2.05131108 68.276972,2.74929789 C64.8361673,5.67599974 63.3819404,10.5324298 64.9930301,15.0379364 C67.0736554,20.8537913 73.4748507,23.8822609 79.2910565,21.8023375" id="Fill-94" fill="#4AAFFF"></path>
                                <path d="M78.0239069,3.26641873 L78.8584029,0.594487335 C82.09111,1.60655066 84.8272604,4.06968259 86.0561945,7.50487256 C86.4615111,8.63940818 86.672767,9.79499921 86.7071575,10.9365533 L83.9088937,11.020424 C83.8829253,10.1641707 83.7246588,9.29774063 83.4204082,8.44745303 C82.499585,5.87167467 80.4480863,4.0251153 78.0239069,3.26641873" id="Fill-95" fill="#1A598C"></path>
                                <path d="M72.1785042,3.58235515 L71.0611639,1.01570079 C71.2885623,0.916740369 71.5215755,0.824798417 71.7584488,0.739874934 C74.1394646,-0.111465435 76.6180372,-0.107254354 78.8583327,0.594241689 L78.0238367,3.26652401 C76.3446678,2.74084063 74.486177,2.73698047 72.7013802,3.37531029 C72.523462,3.43917836 72.349053,3.50831029 72.1785042,3.58235515" id="Fill-96" fill="#2273B5"></path>
                                <path d="M68.2770422,2.7492628 C69.0971504,2.05127599 70.029905,1.46347916 71.0612691,1.01570079 L72.1786095,3.58235515 C71.4051741,3.91748707 70.7054327,4.35894881 70.0906148,4.8818248 L68.2770422,2.7492628 Z" id="Fill-97" fill="#5CAEF2"></path>
                                <path d="M58.8831715,9.09434538 L52.5444406,9.09434538 C52.2163272,9.09434538 51.9506781,8.82834538 51.9506781,8.50093377 L51.9506781,8.07912375 C51.9506781,7.75136121 52.2163272,7.48571214 52.5444406,7.48571214 L58.8831715,7.48571214 C59.210934,7.48571214 59.4765831,7.75136121 59.4765831,8.07912375 L59.4765831,8.50093377 C59.4765831,8.82834538 59.210934,9.09434538 58.8831715,9.09434538" id="Fill-98" fill="#78C2FF"></path>
                                <path d="M51.5055668,16.6481137 L45.1668359,16.6481137 C44.8390734,16.6481137 44.5730734,16.3821137 44.5730734,16.0547021 L44.5730734,15.6328921 C44.5730734,15.3054805 44.8390734,15.0394805 45.1668359,15.0394805 L51.5055668,15.0394805 C51.8336802,15.0394805 52.0993293,15.3054805 52.0993293,15.6328921 L52.0993293,16.0547021 C52.0993293,16.3821137 51.8336802,16.6481137 51.5055668,16.6481137" id="Fill-99" fill="#4AAFFF"></path>
                                <path d="M59.638815,24.4959208 L53.3000842,24.4959208 C52.9719707,24.4959208 52.7063216,24.2299208 52.7063216,23.9025092 L52.7063216,23.4806992 C52.7063216,23.1532876 52.9719707,22.8872876 53.3000842,22.8872876 L59.638815,22.8872876 C59.9665776,22.8872876 60.2322266,23.1532876 60.2322266,23.4806992 L60.2322266,23.9025092 C60.2322266,24.2299208 59.9665776,24.4959208 59.638815,24.4959208" id="Fill-100" fill="#2273B5"></path>
                                <path d="M72.4494172,29.8001995 L66.1106863,29.8001995 C65.7825728,29.8001995 65.5169237,29.5341995 65.5169237,29.2067879 L65.5169237,28.7849778 C65.5169237,28.4575662 65.7825728,28.1915662 66.1106863,28.1915662 L72.4494172,28.1915662 C72.7771797,28.1915662 73.0431797,28.4575662 73.0431797,28.7849778 L73.0431797,29.2067879 C73.0431797,29.5341995 72.7771797,29.8001995 72.4494172,29.8001995" id="Fill-101" fill="#1A598C"></path>
                                <polygon id="Fill-102" fill="#4AAFFF" points="47.5579934 51.5636317 47.2326873 51.2190248 55.6485343 43.2783282 64.1661491 45.1234839 72.3019591 35.8457689 79.3976319 36.2461726 84.9239749 28.6234127 85.3078852 28.901695 79.6295923 36.7339562 72.5061966 36.3321488 64.3384525 45.6463599 55.7924129 43.7941858"></polygon>
                                <path d="M65.4881831,45.117448 C65.6359219,45.7996433 65.2025314,46.4727145 64.5199852,46.6208042 C63.8374391,46.768543 63.1643678,46.3351525 63.016629,45.6526063 C62.8688902,44.9700602 63.3022807,44.2969889 63.9848269,44.1492501 C64.6673731,44.0015113 65.3404443,44.4349018 65.4881831,45.117448" id="Fill-103" fill="#FFFFFF"></path>
                                <path d="M64.0349739,44.381 C63.4812166,44.5010158 63.1285385,45.0488074 63.2485544,45.6022137 C63.3682193,46.155971 63.9163617,46.5086491 64.4697681,46.3889842 C65.0235253,46.2693193 65.3762034,45.7211768 65.2561876,45.1674195 C65.1365227,44.6140132 64.5887311,44.2609842 64.0349739,44.381 M64.5701322,46.8525541 C63.7609026,47.0276649 62.9600953,46.5118074 62.7849844,45.7029288 C62.6095227,44.8936992 63.1253802,44.0928918 63.9346098,43.917781 C64.7438393,43.7423193 65.5446467,44.2578259 65.7197575,45.0674063 C65.8952193,45.8766359 65.3793617,46.6774433 64.5701322,46.8525541" id="Fill-104" fill="#4AAFFF"></path>
                                <path d="M73.6373633,35.9012499 C73.7851021,36.5834451 73.3517116,37.2565164 72.6691654,37.4046061 C71.9866193,37.5523449 71.313548,37.1189544 71.1658092,36.4360573 C71.0180704,35.753862 71.4514609,35.0807908 72.1340071,34.933052 C72.8165533,34.7853132 73.4896245,35.2190546 73.6373633,35.9012499" id="Fill-105" fill="#FFFFFF"></path>
                                <path d="M72.1841541,35.1648018 C71.6303968,35.2848177 71.2777187,35.8326092 71.3973836,36.3860156 C71.5173995,36.9401237 72.065542,37.2924509 72.6189483,37.1731369 C73.1727055,37.0531211 73.5253836,36.5049786 73.4057187,35.9512214 C73.2857029,35.397815 72.7379113,35.044786 72.1841541,35.1648018 M72.7193124,37.6363559 C71.9100828,37.8114668 71.1092755,37.2956092 70.9341646,36.4867306 C70.7590538,35.6775011 71.2749113,34.8766937 72.08379,34.7015828 C72.8930195,34.5261211 73.6938269,35.0416277 73.8689377,35.8512082 C74.0440485,36.6604377 73.528542,37.4608942 72.7193124,37.6363559" id="Fill-106" fill="#4AAFFF"></path>
                                <path d="M80.6810293,36.1832871 C80.8287681,36.8654823 80.3953776,37.5385536 79.7128314,37.6866433 C79.0302852,37.8343821 78.357214,37.4009916 78.2098261,36.7184454 C78.0617364,36.0358992 78.4951269,35.362828 79.1776731,35.2150892 C79.8602193,35.0673504 80.5332905,35.5007409 80.6810293,36.1832871" id="Fill-107" fill="#FFFFFF"></path>
                                <path d="M79.2279955,35.4468391 C78.6742383,35.5668549 78.3215602,36.1146464 78.4412251,36.6680528 C78.5612409,37.2221609 79.1090325,37.5744881 79.6627897,37.4548232 C80.216196,37.3351583 80.5692251,36.7870158 80.4492092,36.2332586 C80.3295443,35.6798522 79.7817528,35.3268232 79.2279955,35.4468391 M79.7631538,37.9183931 C78.9539243,38.093504 78.1531169,37.5776464 77.9776551,36.7687678 C77.8025443,35.9595383 78.3184018,35.1587309 79.1276314,34.9836201 C79.9368609,34.8081583 80.7376683,35.3236649 80.9127792,36.1332454 C81.08789,36.9424749 80.5723834,37.7429314 79.7631538,37.9183931" id="Fill-108" fill="#4AAFFF"></path>
                                <path d="M56.9493024,43.3854652 C57.0970412,44.0680113 56.6636507,44.7410826 55.9811045,44.8888214 C55.2985583,45.0365602 54.6254871,44.6031697 54.4780992,43.9206235 C54.3300095,43.2380773 54.7634,42.5650061 55.4459462,42.4172673 C56.1284923,42.2695285 56.8015636,42.7032699 56.9493024,43.3854652" id="Fill-109" fill="#FFFFFF"></path>
                                <path d="M55.4962686,42.6489821 C54.9425113,42.7689979 54.5898332,43.3167894 54.7094982,43.8705467 C54.829514,44.424304 55.3773055,44.7769821 55.9310628,44.6573172 C56.4844691,44.5373013 56.8374982,43.9891588 56.7174823,43.4357525 C56.5978174,42.8819953 56.0500259,42.5293172 55.4962686,42.6489821 M56.0314269,45.1205361 C55.2221974,45.295647 54.42139,44.7801404 54.2462792,43.9709108 C54.0708174,43.1616813 54.5866749,42.3608739 55.3959045,42.1857631 C56.205134,42.0106522 57.0059414,42.5261588 57.1810522,43.3353884 C57.3561631,44.1446179 56.8406565,44.9454253 56.0314269,45.1205361" id="Fill-110" fill="#4AAFFF"></path>
                                <polygon id="Fill-111" fill="#E0E0E0" points="54.4489024 49.3497256 59.6250237 49.3497256 59.6250237 48.3531029 54.4489024 48.3531029"></polygon>
                                <polygon id="Fill-112" fill="#E0E0E0" points="58.0490264 39.1213588 63.2251478 39.1213588 63.2251478 38.1243852 58.0490264 38.1243852"></polygon>
                                <polygon id="Fill-113" fill="#E0E0E0" points="68.7862322 46.2489657 73.9623536 46.2489657 73.9623536 45.252343 68.7862322 45.252343"></polygon>
                                <polygon id="Fill-114" fill="#E0E0E0" points="73.4289499 32.2509789 78.6050712 32.2509789 78.6050712 31.2540053 73.4289499 31.2540053"></polygon>
                                <polygon id="Fill-115" fill="#E0E0E0" points="80.9467836 40.5917282 86.122905 40.5917282 86.122905 39.5951055 80.9467836 39.5951055"></polygon>
                                <path d="M100.052918,52.6777435 C100.052918,52.6777435 98.135823,48.3340127 100.359976,48.6933583 C100.359976,48.6933583 101.117269,49.3197567 101.894564,50.5946617 C102.483063,51.5607541 103.706733,54.1172317 103.661464,54.9819071 C103.616195,55.8462317 103.001377,56.491229 102.33743,57.8798332 C102.33743,57.8798332 100.956546,60.4573662 100.898644,60.7679335 L99.4391528,60.0102897 C99.4391528,60.0102897 100.675456,57.5457541 101.54715,55.3795034 L100.052918,52.6777435 Z" id="Fill-116" fill="#9EAACE"></path>
                            </g>
                        </g>
                        <polygon id="Fill-28" fill="#E3E3E3" mask="url(#mask-8)" points="47.2293879 130.251567 100.108293 130.251567 100.108293 127.556475 47.2293879 127.556475"></polygon>
                        <path d="M43.0300971,36.8394559 L31.9191578,36.8394559 C31.3029361,36.8394559 30.803572,36.3397409 30.803572,35.7235193 L30.803572,34.8514744 C30.803572,34.2352528 31.3029361,33.7358887 31.9191578,33.7358887 L43.0300971,33.7358887 C43.6463187,33.7358887 44.1456828,34.2352528 44.1456828,34.8514744 L44.1456828,35.7235193 C44.1456828,36.3397409 43.6463187,36.8394559 43.0300971,36.8394559" id="Fill-30" fill="#F5F7FF" mask="url(#mask-8)"></path>
                    </g>
                    <g id="safe" transform="translate(22.211082, 73.421789)">
                        <g id="Group-34" transform="translate(-0.000000, -0.000000)">
                            <mask id="mask-10" fill="white">
                                <use xlink:href="#path-9"></use>
                            </mask>
                            <g id="Clip-33"></g>
                            <path d="M0.139667546,1.82234565 C0.139667546,1.82234565 -1.06961478,9.9690343 7.24586807,14.2141557 L7.24586807,14.2141557 C15.561,9.9690343 14.3520686,1.82234565 14.3520686,1.82234565 L14.3520686,1.82234565 C8.89064644,1.82234565 7.24586807,0.0421108179 7.24586807,0.0421108179 L7.24586807,0.0421108179 C7.24586807,0.0421108179 5.60108971,1.82234565 0.139667546,1.82234565 M1.02925858,2.4866438 C5.80708179,2.4866438 7.24586807,0.929596306 7.24586807,0.929596306 L7.24586807,0.929596306 C7.24586807,0.929596306 8.68465435,2.4866438 13.4624776,2.4866438 L13.4624776,2.4866438 C13.4624776,2.4866438 14.51981,9.61284697 7.24586807,13.3270211 L7.24586807,13.3270211 C-0.0280738786,9.61284697 1.02925858,2.4866438 1.02925858,2.4866438" id="Fill-32" fill="url(#linearGradient-11)" mask="url(#mask-10)"></path>
                        </g>
                        <g id="Group-37" transform="translate(1.754617, 2.105541)">
                            <mask id="mask-13" fill="white">
                                <use xlink:href="#path-12"></use>
                            </mask>
                            <g id="Clip-36"></g>
                            <path d="M0.361802111,1.50862005 C0.361802111,1.50862005 -0.438654354,6.90371768 5.06803694,9.71531662 L5.06803694,9.71531662 L5.06803694,0.32951715 C5.06803694,0.32951715 3.97912137,1.50862005 0.361802111,1.50862005" id="Fill-35" fill="url(#linearGradient-14)" mask="url(#mask-13)"></path>
                        </g>
                    </g>
                    <g id="lock" transform="translate(154.158311, 71.549647)">
                        <path d="M2.14747625,5.45405277 L9.31403562,5.45405277 L9.31403562,4.39777309 C9.31403562,2.42172296 7.70645515,0.814493404 5.73075594,0.814493404 C3.7547058,0.814493404 2.14747625,2.42172296 2.14747625,4.39777309 L2.14747625,5.45405277 Z M10.1281781,6.26819525 L1.33298285,6.26819525 L1.33298285,4.39777309 C1.33298285,1.97289182 3.30587467,0 5.73075594,0 C8.1556372,0 10.1281781,1.97289182 10.1281781,4.39777309 L10.1281781,6.26819525 Z" id="Fill-38" fill="#FFCA55"></path>
                        <g id="Group-42" transform="translate(0.000000, 5.381377)">
                            <mask id="mask-16" fill="white">
                                <use xlink:href="#path-15"></use>
                            </mask>
                            <g id="Clip-41"></g>
                            <path d="M1.79707916,0.0235118734 C0.971005277,0.0235118734 0.301092348,0.693073879 0.301092348,1.51879683 L0.301092348,1.51879683 L0.301092348,9.38650132 C0.301092348,10.2125752 0.971005277,10.8821372 1.79707916,10.8821372 L1.79707916,10.8821372 L9.66408179,10.8821372 C10.4901557,10.8821372 11.1597177,10.2125752 11.1597177,9.38650132 L11.1597177,9.38650132 L11.1597177,1.51879683 C11.1597177,0.693073879 10.4901557,0.0235118734 9.66408179,0.0235118734 L9.66408179,0.0235118734 L1.79707916,0.0235118734 Z M5.31017414,5.69268074 C4.64517414,5.50809499 4.15598681,4.90029551 4.15598681,4.17669129 L4.15598681,4.17669129 C4.15598681,3.3071029 4.86099208,2.60209763 5.73058047,2.60209763 L5.73058047,2.60209763 C6.60016887,2.60209763 7.30517414,3.3071029 7.30517414,4.17669129 L7.30517414,4.17669129 C7.30517414,4.90029551 6.81668865,5.50809499 6.15168865,5.69268074 L6.15168865,5.69268074 L6.15168865,8.3028496 L5.31017414,8.3028496 L5.31017414,5.69268074 Z" id="Fill-40" fill="url(#linearGradient-17)" mask="url(#mask-16)"></path>
                        </g>
                    </g>
                    <g id="world-bg" transform="translate(86.781003, 4.289863)">
                        <mask id="mask-19" fill="white">
                            <use xlink:href="#path-18"></use>
                        </mask>
                        <g id="Clip-44"></g>
                        <path d="M8.24880739,0.061060686 C6.43769129,0.061060686 4.76834828,0.669562005 3.43589182,1.69601319 L3.43589182,1.69601319 C1.55704749,3.1397124 0.346361478,5.40983641 0.346361478,7.96385752 L0.346361478,7.96385752 C0.346361478,8.21546966 0.357591029,8.46392348 0.381453826,8.70956992 L0.381453826,8.70956992 C0.518313984,10.1778338 1.05698153,11.5292401 1.88726649,12.6528971 L1.88726649,12.6528971 C3.06180739,14.2450369 4.82028496,15.3799235 6.84756992,15.7424274 L6.84756992,15.7424274 C7.30166491,15.8241926 7.77049868,15.8666544 8.24880739,15.8666544 L8.24880739,15.8666544 C9.48440897,15.8666544 10.6533351,15.5831082 11.694876,15.0781293 L11.694876,15.0781293 C13.7418127,14.084314 15.2957018,12.2338945 15.8887625,9.99254617 L15.8887625,9.99254617 C16.0056201,9.55143536 16.0856306,9.09453298 16.1242322,8.62675198 L16.1242322,8.62675198 C16.1421293,8.40777573 16.1519551,8.18704485 16.1519551,7.96385752 L16.1519551,7.96385752 C16.1519551,5.79479947 15.2781557,3.82962797 13.8625303,2.40207124 L13.8625303,2.40207124 L13.8625303,2.40136939 C12.4300607,0.955915567 10.4441847,0.061060686 8.24880739,0.061060686 Z" id="Fill-43" fill="url(#linearGradient-20)" mask="url(#mask-19)"></path>
                    </g>
                    <g id="world-sections" transform="translate(87.364659, 6.174111)" fill="#FFFFFF">
                        <path d="M6.30609499,13.6242533 C4.33951979,13.272628 2.63403166,12.171781 1.49493404,10.6273668 C1.48721372,10.5424433 1.50230343,10.4624327 1.54336148,10.3890897 C2.1981847,9.22718206 1.77251451,9.42334828 1.64162005,8.67026649 C1.51037467,7.9171847 1.1341847,8.24494723 1.01943272,7.78629024 C0.905031662,7.32833509 1.26507916,7.36412929 0.479361478,7.06724802 C0.36074934,7.02268074 0.207044855,6.93073879 0.0340395778,6.80300264 C0.0112295515,6.56472559 2.84217094e-14,6.32364116 2.84217094e-14,6.07939842 C2.84217094e-14,3.60258047 1.1745409,1.40053562 2.99688654,1.24344979e-14 C2.99688654,1.24344979e-14 2.95091557,0.526736148 2.55823219,1.20998417 C2.16519789,1.89358311 1.96903166,1.51002375 1.96903166,2.51998153 C1.96903166,3.53029024 2.64982322,3.89770712 2.99688654,4.5325277 C3.34394987,5.16734828 4.02474142,5.63056728 2.99688654,5.95552243 C1.96903166,6.28047757 1.51037467,6.77878892 1.51037467,7.11848285 C1.51037467,7.45922955 1.31420844,7.45922955 1.51037467,7.9171847 C1.70724274,8.37584169 1.8381372,8.06983641 1.99043799,8.50673615 C2.14379156,8.94328496 1.99043799,8.94328496 2.18695515,9.09593668 C2.3834723,9.24858839 2.71088391,9.59810818 3.32219261,9.55424274 C3.9331504,9.51037731 6.31206069,9.15243536 6.44295515,10.4122507 C6.54226649,11.3685172 6.27661741,12.8448522 6.30609499,13.6242533" id="Fill-46"></path>
                        <path d="M4.04221741,0.869693668 C3.91132296,1.04234802 3.40950237,1.79051689 3.40950237,2.24601557 C3.40950237,2.70116332 3.23474248,3.58057757 3.7804285,4.06836121 C4.32611451,4.55649578 5.24272665,4.3133058 5.1553467,3.75814485 C5.06796675,3.20298391 5.74489815,2.87592322 6.02844433,2.76643509 C6.3119905,2.65764881 6.33374776,1.55223984 6.09406702,1.21008945 C5.85368443,0.86793905 4.91531504,0.667561741 4.54438892,0.702303166 C4.1734628,0.737044591 4.04221741,0.869693668 4.04221741,0.869693668" id="Fill-48"></path>
                        <path d="M15.0750763,8.04716675 C14.5002636,10.2214887 12.9930472,12.0164623 11.0078731,12.9800982 C10.958042,12.8653462 10.8801369,12.7628765 10.7643322,12.7081325 C10.4369206,12.5551298 10.4916646,12.2171905 10.393757,11.7690612 C10.2954984,11.3219847 10.1207385,11.4967446 9.92422137,11.1910902 C9.72770422,10.8854359 9.68383879,10.5692538 9.83719235,10.2632485 C9.98984406,9.95829604 9.85859868,10.0239187 10.4916646,9.70668391 C11.1243797,9.39050185 11.1791237,9.48876042 11.343005,9.4122591 C11.5068863,9.33645963 12.2161026,9.23820106 12.7561739,9.31400053 C13.2365881,9.38207968 14.2061897,8.42054934 15.0750763,8.04716675" id="Fill-52"></path>
                        <path d="M15.3305485,6.07939842 C15.3305485,6.29626913 15.3214245,6.51033245 15.3035274,6.72229024 C15.0684087,6.62929551 14.8950525,6.54156464 14.8676805,6.47699472 C14.7694219,6.24749077 14.8020578,6.11659631 14.8020578,5.92043008 C14.8020578,5.72391293 14.1472346,4.97118206 14.1472346,4.97118206 L13.4597755,5.46212401 C13.4597755,5.46212401 13.4271396,5.94183641 13.4597755,6.13835356 C13.4927623,6.33487071 14.0380974,6.62859367 14.0707332,6.8696781 C14.1033691,7.11076253 14.2342636,7.18586016 14.2342636,7.18586016 C14.2342636,7.18586016 13.9391369,8.29477836 13.8640393,7.4374723 C13.8419311,7.18901847 13.6345354,7.33921372 13.6345354,7.17568338 C13.6345354,7.01180211 13.1435934,6.73878364 13.1435934,6.73878364 C13.1435934,6.73878364 13.0670921,6.54226649 12.6414219,6.182219 C12.2161026,5.82252243 11.2665037,7.01250396 11.2665037,7.01250396 C11.2665037,7.01250396 11.4261739,7.90911346 11.2665037,9.06330079 C11.2521158,9.16577045 9.93088892,9.78339578 9.56417388,9.78339578 C9.19745884,9.78339578 8.61457493,7.85191293 8.61457493,7.65539578 C8.61457493,7.45922955 9.00760923,7.29534828 9.23009472,7.01250396 C9.45222929,6.72965963 9.30203404,6.08431135 9.36765673,5.5277467 C9.43327942,4.97118206 9.53118707,5.19998417 9.53118707,5.10207652 C9.53118707,5.00381794 9.98984406,4.64341953 10.3825274,4.33320317 C10.7759127,4.02368865 10.6443164,4.28372296 11.1352583,4.33144855 C11.6265512,4.3784723 12.0848573,3.59591293 12.379633,3.40957256 C12.6740578,3.22253034 12.8049522,3.46501847 13.0344562,3.40957256 C13.2632583,3.3534248 13.2306224,3.30148813 13.4927623,3.17585752 C13.7545512,3.04917414 13.558034,2.67965172 13.4927623,2.28416095 C13.4271396,1.88867018 13.3945037,1.69741689 13.1102557,0.685002639 C14.4830683,2.0697467 15.3305485,3.97596306 15.3305485,6.07939842" id="Fill-54"></path>
                    </g>
                    <g id="Group-120" transform="translate(128.891821, 102.899361)">
                        <mask id="mask-22" fill="white">
                            <use xlink:href="#path-21"></use>
                        </mask>
                        <g id="Clip-119"></g>
                        <polygon id="Fill-118" fill="url(#linearGradient-23)" mask="url(#mask-22)" points="0.0154406332 5.09014512 29.393 10.0922084 30.2436385 5.09786544 0.866079156 0.0954511873"></polygon>
                    </g>
                    <g id="Group-200" transform="translate(48.179420, 46.255562)">
                        <polygon id="Fill-121" fill="#2D3038" points="80.8304166 61.1321459 79.2610868 60.8647422 79.906786 57.0740668 81.4757649 57.3411195"></polygon>
                        <path d="M45.6162628,55.0060747 C45.6162628,64.0156842 52.9196823,71.3187528 61.9292918,71.3187528 C70.9385504,71.3187528 78.2419699,64.0156842 78.2419699,55.0060747 C78.2419699,45.9964652 70.9385504,38.6933966 61.9292918,38.6933966 C52.9196823,38.6933966 45.6162628,45.9964652 45.6162628,55.0060747" id="Fill-159" fill-opacity="0.2" fill="#B8B8B8"></path>
                        <path d="M72.3006599,43.6065359 C72.3006599,43.6065359 52.3004778,41.1279633 48.3153908,62.2356599 L48.3150398,62.2356599 C47.167871,60.0792351 46.5176098,57.6189106 46.5176098,55.0059343 C46.5176098,46.4946361 53.4174673,39.5944277 61.9291164,39.5944277 C65.9233274,39.5944277 69.5627549,41.1139264 72.3006599,43.6065359" id="Fill-161" fill-opacity="0.2" fill="#869AC2"></path>
                        <path d="M61.9283794,70.4429179 C53.4030443,70.4429179 46.4919573,63.5325327 46.4919573,55.0061449 C46.4919573,46.4811607 53.4030443,39.5697227 61.9283794,39.5697227 C70.4537145,39.5697227 77.3648016,46.4811607 77.3648016,55.0061449 C77.3648016,63.5325327 70.4537145,70.4429179 61.9283794,70.4429179 M43.4894559,55.0061449 C43.4894559,65.1902953 51.7445799,73.4457702 61.9283794,73.4457702 C72.1121789,73.4457702 80.3673029,65.1902953 80.3673029,55.0061449 C80.3673029,44.8230472 72.1121789,36.5679232 61.9283794,36.5679232 C51.7445799,36.5679232 43.4894559,44.8230472 43.4894559,55.0061449 Z" id="Fill-163" fill="#3F444F"></path>
                        <polygon id="Fill-165" fill="#E0E0E0" points="0.0701846966 1.36668338 10.7607177 1.36668338 10.7607177 0.272153034 0.0701846966 0.272153034"></polygon>
                        <polygon id="Fill-167" fill="#E0E0E0" points="12.8402902 1.36668338 20.4297124 1.36668338 20.4297124 0.272153034 12.8402902 0.272153034"></polygon>
                        <polygon id="Fill-168" fill="#E0E0E0" points="12.8402902 5.48792876 19.9268391 5.48792876 19.9268391 4.39339842 12.8402902 4.39339842"></polygon>
                        <polygon id="Fill-169" fill="#78C2FF" points="50.856533 1.36668338 58.4456042 1.36668338 58.4456042 0.272153034 50.856533 0.272153034"></polygon>
                        <polygon id="Fill-170" fill="#1487E3" points="22.4727889 1.36668338 32.1417836 1.36668338 32.1417836 0.272153034 22.4727889 0.272153034"></polygon>
                        <polygon id="Fill-171" fill="#FFC055" points="39.2932533 1.36668338 48.962248 1.36668338 48.962248 0.272153034 39.2932533 0.272153034"></polygon>
                        <polygon id="Fill-172" fill="#E0E0E0" points="33.9297388 1.36668338 37.4688021 1.36668338 37.4688021 0.272153034 33.9297388 0.272153034"></polygon>
                        <polygon id="Fill-173" fill="#78C2FF" points="0.0701846966 5.48792876 5.60705541 5.48792876 5.60705541 4.39339842 0.0701846966 4.39339842"></polygon>
                        <polygon id="Fill-174" fill="#1487E3" points="6.96618206 5.48792876 8.7541372 5.48792876 8.7541372 4.39339842 6.96618206 4.39339842"></polygon>
                        <polygon id="Fill-175" fill="#E0E0E0" points="43.6685673 5.48792876 58.4456042 5.48792876 58.4456042 4.39339842 43.6685673 4.39339842"></polygon>
                        <polygon id="Fill-176" fill="#FFC455" points="10.0676438 5.48792876 11.8917441 5.48792876 11.8917441 4.39339842 10.0676438 4.39339842"></polygon>
                        <polygon id="Fill-177" fill="#1487E3" points="37.469153 5.48792876 42.3034749 5.48792876 42.3034749 4.39339842 37.469153 4.39339842"></polygon>
                        <polygon id="Fill-178" fill="#78C2FF" points="25.902715 5.48792876 36.1889842 5.48792876 36.1889842 4.39339842 25.902715 4.39339842"></polygon>
                        <polygon id="Fill-179" fill="#E0E0E0" points="20.9041609 5.48792876 24.4432243 5.48792876 24.4432243 4.39339842 20.9041609 4.39339842"></polygon>
                        <polygon id="Fill-181" fill="#FBBFA1" points="63.3649549 1.06871425 63.6284984 1.3863 64.690042 0.403012401 64.4538704 0.0689332454"></polygon>
                    </g>
                </g>
                <g id="top-woman" transform="translate(98.279195, 63.464160)">
                    <path d="M12.8942185,1.16085459 C12.8942185,1.16085459 11.2189098,1.98026092 11.6329995,4.20967781 C12.0474401,6.4390947 12.2306222,6.73913427 11.7674032,7.61047728 C11.3041842,8.48146937 10.7570945,12.1977491 11.1743425,12.9020525 C11.5912396,13.6063559 16.336076,9.80690736 16.9937066,6.61911844 C17.6516881,3.43132953 16.5768095,2.01359865 16.1967594,1.48545881 C15.8170602,0.956968048 14.373361,0.410229262 12.8942185,1.16085459" id="Fill-180" fill="#16202E"></path>
                    <path d="M13.5288987,38.1778076 C13.5288987,38.1778076 13.2527219,39.8566256 13.0355003,40.0745491 C12.8186296,40.2924725 11.7083077,41.4575385 11.9574633,41.7677549 C12.2069699,42.0779712 14.6339567,40.3759923 14.9806691,39.7657364 C15.3273815,39.1558314 16.0358961,39.0484488 16.146437,38.4332799 C16.2569779,37.8174092 14.5900913,37.1941691 14.5900913,37.1941691 L13.5288987,38.1778076 Z" id="Fill-182" fill="#3F444F"></path>
                    <path d="M12.1555246,26.4873182 L3.27891506,26.4873182 C3.27891506,26.4873182 3.66949289,27.7095847 3.84355094,29.0255477 C4.01795991,30.3172971 4.51065648,37.2354026 4.51065648,37.2354026 L2.75042429,37.7368723 C2.97255886,36.9588749 0.34730028,26.4213446 0.230091837,25.9402285 C-0.103285472,24.5586427 1.68993353,24.3365082 3.58842957,23.3539224 C5.54974091,22.3418591 10.3861684,21.1431045 10.3861684,21.1431045 C17.3551578,21.1224 12.1555246,26.4873182 12.1555246,26.4873182" id="Fill-184" fill="#B95649"></path>
                    <polygon id="Fill-185" fill="#FBBFA1" points="3.00136967 37.6658103 3.01961769 38.089024 4.40962561 37.6872166 4.348214 37.2826018"></polygon>
                    <path d="M3.01951242,38.089024 C3.01951242,38.089024 2.01867864,39.464995 1.72671031,39.5622008 C1.43474197,39.6597575 -0.0801947064,40.2019343 0.0033250825,40.5911084 C0.0864939479,40.9802826 3.01951242,40.5493485 3.60344909,40.1598235 C4.18703485,39.7710002 4.86817733,39.9934857 5.24331453,39.4930688 C5.61880266,38.992301 4.40952033,37.6868657 4.40952033,37.6868657 L3.01951242,38.089024 Z" id="Fill-186" fill="#3F444F"></path>
                    <path d="M13.1313726,8.95760235 C13.1313726,8.95760235 11.7069742,9.39204562 11.2069082,11.0670034 C10.9700348,11.8593886 9.88603221,15.6819981 9.58037785,15.9876525 C9.2747235,16.2936578 5.39631717,18.6150166 5.39631717,18.6150166 L5.85532508,19.4347739 C5.85532508,19.4347739 10.6647314,17.2109717 10.8314201,16.9888372 C10.9981087,16.7660008 12.7467604,12.7212567 12.8941483,12.1232831 C13.0415362,11.5256604 14.4027684,8.21013533 13.1313726,8.95760235" id="Fill-187" fill="#FBBFA1"></path>
                    <path d="M13.1371979,1.40793982 C13.1371979,1.40793982 10.7045963,2.17260208 12.0251214,6.37069971 C13.3456465,10.5684464 16.6678391,5.88396884 16.3204248,3.3264385 C15.9730106,0.768908154 13.1371979,1.40793982 13.1371979,1.40793982" id="Fill-188" fill="#FBBFA1"></path>
                    <path d="M15.7519639,8.49564668 C15.7519639,8.49564668 18.3098451,9.5659633 18.9488768,10.8724514 C19.5886103,12.1792905 18.2958082,14.5420583 18.0178768,15.3621665 C17.7399454,16.1822746 17.2254916,18.0449765 17.3367343,18.9763274 C17.4479771,19.9076783 17.7813544,21.7981031 17.8371512,22.3816889 C17.8371512,22.3816889 12.4855681,22.8266599 10.3866947,21.1446836 C10.3866947,21.1446836 11.7767027,20.074367 11.8879454,18.8236757 C11.9991881,17.5722826 11.6654599,16.0710319 11.5819401,15.9043432 C11.4984203,15.7376546 10.3308979,14.7090979 10.6228662,13.722301 C10.9148346,12.7351533 11.3594546,10.3172905 12.0521776,9.64702662 C12.7217396,8.9995728 13.5972937,8.66268625 13.5972937,8.66268625 L15.7519639,8.49564668 Z" id="Fill-189" fill="#DEDEDE"></path>
                    <path d="M17.2949744,10.1357929 C17.0524863,10.3730171 16.3636235,11.0253839 17.1837317,12.8463258 C18.0038399,14.6672678 19.5468504,17.0721464 19.5886103,17.4055237 C19.6300193,17.739252 21.9050562,24.5345343 21.9608531,24.6738509 C22.0166499,24.8128166 22.9497554,24.7064868 22.9497554,24.7064868 C22.9497554,24.7064868 21.5902779,17.9536662 21.4509612,17.1791781 C21.4509612,17.1791781 19.1436393,8.32888784 17.2949744,10.1357929" id="Fill-190" fill="#FBBFA1"></path>
                    <path d="M22.9059953,24.6737456 C22.9059953,24.6737456 23.7864623,25.3408512 23.962275,25.3685741 C24.1384385,25.396648 25.7877789,25.7672232 25.9456945,25.7023023 C26.1029082,25.6373815 26.2976707,26.0546295 25.7786549,26.0265556 C25.25999,25.9988327 23.3323673,26.0174316 22.8133515,25.9711097 C22.2943356,25.9244369 21.7198739,26.8235029 21.5251114,26.8143789 C21.3306998,26.8049039 21.3584227,26.5455715 21.6363541,26.0546295 C21.9142855,25.5633366 22.1809874,25.2924237 21.9609583,24.6737456 C21.7405784,24.0550675 22.9059953,24.6737456 22.9059953,24.6737456" id="Fill-191" fill="#FBBFA1"></path>
                    <path d="M5.39649263,18.6148411 C5.39649263,18.6148411 4.79851901,18.7120469 4.53462455,18.5039493 C4.2707301,18.2951498 3.43447944,17.9772132 3.43447944,17.9772132 L4.61814434,20.0743319 C4.61814434,20.0743319 5.73022086,19.6574348 5.85514962,19.4349493 C5.9804293,19.2124638 5.39649263,18.6148411 5.39649263,18.6148411" id="Fill-192" fill="#FBBFA1"></path>
                    <polygon id="Fill-193" fill="#434343" points="4.73114171 20.1737836 4.44233168 20.3408232 2.4476826 16.8859815 2.73649263 16.7189419"></polygon>
                    <path d="M3.3603293,18.4664356 C3.3603293,18.4664356 3.1016987,19.8624092 4.31168287,20.1140213 L3.3603293,18.4664356 Z" id="Fill-194" fill="#FBBFA1"></path>
                    <path d="M15.7512971,8.49666435 C15.7691942,9.43713929 14.6486955,10.9927831 13.7355926,10.6415087 C12.8224897,10.2898834 13.5973288,8.66194931 13.5973288,8.66194931 L13.8798222,8.55702319 C13.8738565,8.49982267 13.8528011,8.43069074 13.8285874,8.36155881 C13.765772,8.19908124 13.669619,8.0401129 13.669619,8.0401129 C13.669619,8.0401129 16.0127351,4.93128177 15.724276,6.04827121 C15.4386243,7.16596251 15.7512971,8.49666435 15.7512971,8.49666435" id="Fill-195" fill="#FBBFA1"></path>
                    <path d="M11.7766676,3.85756119 C11.7766676,3.85756119 12.985248,5.04368256 15.007971,5.19212319 C15.007971,5.19212319 15.6926227,6.00170367 15.7522797,6.35964562 C15.7522797,6.35964562 17.649723,3.38486726 15.4315356,1.54076435 C13.2129974,-0.302987625 10.9611214,3.09781185 11.7766676,3.85756119" id="Fill-196" fill="#16202E"></path>
                    <path d="M15.0107082,5.08989918 C15.0261488,4.78459575 15.2145947,4.08906541 15.6686897,4.28382794 C16.1227847,4.47859048 15.6409668,5.89421581 15.3395235,5.80718678 C15.3395235,5.80718678 14.9738612,5.81315248 15.0107082,5.08989918" id="Fill-197" fill="#FBBFA1"></path>
                    <path d="M15.1683781,6.94972346 C15.1683781,6.94972346 14.8258768,8.12426435 13.8289032,8.36148863 C13.765737,8.19936198 13.6695839,8.04004272 13.6695839,8.04004272 C13.6695839,8.04004272 14.3212488,8.03723533 15.1683781,6.94972346" id="Fill-198" fill="#E49871"></path>
                    <polygon id="Fill-199" fill="#B95649" points="11.4164797 23.2580501 8.37046387 26.487248 7.25031611 26.487248"></polygon>
                    <path d="M12.5686668,22.0788419 C12.5686668,22.0788419 5.80882772,28.9148314 5.77162983,29.7858235 C5.73443194,30.6568155 13.1203185,37.8296915 13.1943633,38.089024 L14.4871655,36.8604409 C14.4871655,36.8604409 11.2018198,32.1952641 10.201337,31.1947812 C9.26296756,30.2560609 8.64428946,29.7672245 8.64428946,29.7672245 C8.64428946,29.7672245 16.6864029,26.7555992 17.2794636,25.9404039 C17.8725243,25.1248578 18.5045375,23.6885279 17.837081,22.3816889 C17.1699755,21.0752008 12.5686668,22.0788419 12.5686668,22.0788419" id="Fill-183" fill="#C75F50"></path>
                </g>
                <g id="bottom-right-woman" transform="translate(130.663289, 87.030245)">
                    <path d="M5.29135756,49.7366716 L4.92955545,49.7366716 C4.92955545,49.7366716 5.05027313,48.3701756 4.71514121,48.3568405 C4.3803602,48.3435054 3.55007524,49.4685661 3.05422036,49.6429751 C2.55836548,49.8170331 0.013468382,49.9640701 0.000133289637,49.4955872 C-0.0132018027,49.0271044 0.977806113,48.8390094 1.28591693,48.7056585 C1.59402775,48.5716057 3.09457656,47.1114131 3.36233118,46.9370041 C3.63043672,46.7625951 4.08733909,45.55226 4.08733909,45.55226 L5.50822828,45.4890938 C5.50822828,45.4890938 5.58823883,46.620822 5.67456601,47.2198484 C5.70650004,47.4416321 5.72966099,47.6434131 5.73317023,47.781326 C5.74650532,48.290165 5.29135756,49.7366716 5.29135756,49.7366716" id="Fill-123" fill="#FBBFA1"></path>
                    <path d="M14.4437929,49.466636 L14.1423496,49.466636 L14.1423496,48.1948893 C13.8914394,48.2159447 13.0471175,49.0146466 12.7860304,49.2459052 C12.5249433,49.4768128 12.1666504,49.466636 11.0661544,49.5364698 C9.9663602,49.6063036 9.86248685,48.9476202 10.0365449,48.723731 C10.2106029,48.4994909 10.7734842,48.4015833 11.0661544,48.2615648 C11.3591755,48.1211954 12.5147665,46.8182165 12.8228774,46.5101057 C13.1309882,46.2016439 13.3187322,45.3190714 13.3187322,45.3190714 L14.6045159,45.431016 C14.6045159,45.431016 14.5964446,46.2388418 14.7427797,46.9161242 L14.7427797,46.9164751 C14.7434816,46.9182297 14.7434816,46.9199843 14.7438325,46.9217389 C14.7564657,46.9796413 14.7701518,47.03614 14.7852415,47.091235 C14.9764948,47.7955384 14.4437929,49.466636 14.4437929,49.466636" id="Fill-125" fill="#FBBFA1"></path>
                    <path d="M15.8121839,30.8197202 C15.6570758,31.8510843 15.8199043,33.2067017 16.1441576,36.9791292 C16.4684109,40.7512057 15.5767143,45.3188257 15.5767143,45.3188257 C14.4572684,45.7020342 13.1676246,45.3188257 13.1676246,45.3188257 C13.1974531,45.0538785 13.1676246,36.1242796 13.1676246,35.328736 C13.1676246,34.5328416 12.9391734,33.6299154 12.8805692,32.7164616 C12.840213,32.0939234 12.5507011,30.9464036 12.2246932,29.775021 C12.1271365,29.4240975 12.0264214,29.0714194 11.9281628,28.7296199 L11.9281628,28.729269 C11.8727169,28.5376648 11.8190256,28.3495698 11.7663871,28.1670896 C11.3077301,26.5760025 10.6904557,20.4309814 10.6904557,20.4309814 C10.6904557,20.4309814 14.110556,17.6762321 15.7756879,20.2699075 C17.4411708,22.8625302 16.5859702,24.7487439 16.527366,25.0729972 C16.4684109,25.3976015 15.9672921,29.7883561 15.8121839,30.8197202" id="Fill-129" fill="#184F75"></path>
                    <path d="M14.3939267,25.2775856 C14.3672565,25.3365408 12.6631721,29.119145 12.2248686,29.775021 C12.1273119,29.4240975 12.026246,29.0714194 11.9283383,28.7296199 L11.9283383,28.729269 C11.9283383,28.729269 14.3367262,25.3607545 14.3939267,25.2775856" id="Fill-131" fill="#0F476E"></path>
                    <path d="M14.4437929,49.466636 L14.1423496,49.466636 L14.1423496,48.1948893 C13.8914394,48.2159447 13.0471175,49.0146466 12.7860304,49.2459052 C12.5249433,49.4768128 12.1666504,49.466636 11.0661544,49.5364698 C9.9663602,49.6063036 9.86248685,48.9476202 10.0365449,48.723731 C10.2106029,48.4994909 10.7734842,48.4015833 11.0661544,48.2615648 C12.2431518,48.3243801 13.6794816,46.6697759 14.3686953,46.6732851 C14.7350594,46.6750397 14.7315502,46.8778735 14.7427797,46.9161242 L14.7427797,46.9164751 C14.7434816,46.9182297 14.7434816,46.9199843 14.7438325,46.9217389 C14.7564657,46.9796413 14.7701518,47.03614 14.7852415,47.091235 C14.9764948,47.7955384 14.4437929,49.466636 14.4437929,49.466636" id="Fill-133" fill="#172F42"></path>
                    <path d="M5.29135756,49.7366716 L4.92955545,49.7366716 C4.92955545,49.7366716 5.05027313,48.3701756 4.71514121,48.3568405 C4.3803602,48.3435054 3.55007524,49.4685661 3.05422036,49.6429751 C2.55836548,49.8170331 0.013468382,49.9640701 0.000133289637,49.4955872 C-0.0132018027,49.0271044 0.977806113,48.8390094 1.28591693,48.7056585 C2.33587999,48.703202 4.04277181,47.547611 4.57231535,47.313545 C5.10115704,47.0791281 5.67456601,47.2198484 5.67456601,47.2198484 C5.70650004,47.4416321 5.72966099,47.6434131 5.73317023,47.781326 C5.74650532,48.290165 5.29135756,49.7366716 5.29135756,49.7366716" id="Fill-135" fill="#172F42"></path>
                    <path d="M12.7087219,6.21496584 C12.7087219,6.21496584 13.254408,7.65866505 12.8301415,8.77495265 C12.8301415,8.77495265 14.8311072,8.64476004 14.9069066,8.411045 C14.9823552,8.17768088 14.8261942,6.01423761 15.1016692,5.3745041 C15.3767932,4.73547244 12.7087219,6.21496584 12.7087219,6.21496584" id="Fill-137" fill="#FBBFA1"></path>
                    <path d="M12.5154333,8.28657244 C12.5154333,8.28657244 11.3328212,8.70697877 10.7987156,8.82383629 C10.2642591,8.94069381 9.14621693,9.47023734 9.23710611,11.4638337 C9.32799529,13.457079 9.66172353,15.186079 9.78279213,16.0430342 C9.90421165,16.8992875 9.82841218,19.079926 9.63119318,20.1390131 C9.63119318,20.1390131 12.4659531,20.8552479 15.8011299,20.1390131 C15.8011299,20.1390131 15.2101747,18.332459 15.2252644,17.8650289 C15.2403541,17.3979497 17.1960507,13.5507756 17.2869399,12.943678 C17.3774781,12.3358785 17.7719161,9.65692864 16.8777631,9.06527165 C15.9832591,8.47326373 15.2554438,8.55116874 14.8767974,8.28657244 C14.4974491,8.02162521 13.0684887,8.09637191 12.5154333,8.28657244" id="Fill-139" fill="#C6D4FF"></path>
                    <path d="M14.4528818,0.421991171 C13.6485652,0.146165313 11.4738924,-0.147557642 10.9169768,3.1900756 C10.3597103,6.52770885 11.5732037,6.58490938 12.8196839,6.49016004 C14.0658132,6.39505977 16.015895,4.14248194 16.1646866,3.4574793 C16.31418,2.77247666 16.7482723,1.20946347 14.4528818,0.421991171" id="Fill-143" fill="#FBBFA1"></path>
                    <path d="M11.3650008,1.70401993 C11.3650008,1.70401993 12.029299,3.12490911 12.9002911,3.62006215 C12.9002911,3.62006215 13.446328,5.13008589 14.6282383,5.74069275 C14.6282383,5.74069275 17.7647924,3.66287481 15.9449032,1.19377719 C14.1246631,-1.27532044 11.5702911,0.690903836 11.3650008,1.70401993" id="Fill-145" fill="#004966"></path>
                    <path d="M12.823509,3.12761122 C12.8940446,2.9539041 13.3642821,2.6714107 13.5748362,3.14796479 C13.7857412,3.62416795 13.0287993,4.46357692 12.8214035,4.41830779 C12.6140077,4.37303866 12.5557544,3.78664552 12.823509,3.12761122" id="Fill-147" fill="#FBBFA1"></path>
                    <path d="M15.8385734,1.57516083 C15.9070035,1.46812917 17.9841196,0.506949746 18.4164573,2.51598669 C18.8480932,4.52502362 16.7432541,6.86112125 16.3744336,7.8661661 C16.0059639,8.87050911 16.5411222,11.2252057 16.5411222,11.2252057 C16.5411222,11.2252057 15.2749903,10.0278548 14.8917818,8.77505793 C14.4710246,7.39873603 14.3296024,3.92880463 15.8385734,1.57516083" id="Fill-149" fill="#004966"></path>
                    <path d="M15.9434644,1.50662547 C15.9434644,1.50662547 15.3075911,2.00984975 15.2258259,2.80328774 C15.2258259,2.80328774 15.106161,2.18460964 15.363037,1.80631413 C15.6192111,1.42766769 15.9434644,1.50662547 15.9434644,1.50662547" id="Fill-151" fill="#FFFFFF"></path>
                    <path d="M9.17822115,21.1350392 C9.31051931,20.6423426 9.40737419,20.1612265 9.47650611,19.6983585 C9.47650611,19.6983585 9.79549556,19.0193215 9.90322907,18.6950682 C10.0113135,18.370464 10.8128227,14.3818677 10.8128227,14.3818677 C10.8128227,14.3818677 11.6610048,18.1279759 9.17822115,21.1350392" id="Fill-153" fill="#F9EBDB"></path>
                    <path d="M5.61280347,21.3667189 C5.61280347,21.3667189 4.98815967,21.9871516 4.78637867,22.049265 C4.58424675,22.1117294 4.1950726,21.7681753 2.76084833,21.6614946 C2.63521772,21.6520197 2.413785,21.7657189 2.46572168,21.9317057 C2.51800928,22.0980434 3.14195123,22.5507347 3.40935493,22.6198666 C3.6764077,22.6889986 4.93657392,23.1894154 5.55104094,22.943769 C6.16515704,22.6981226 6.5831069,21.916265 6.5831069,21.916265 L5.61280347,21.3667189 Z" id="Fill-155" fill="#FBBFA1"></path>
                    <path d="M10.4642153,8.93325423 C10.4642153,8.93325423 8.80575097,9.59053391 8.70749239,11.8953994 C8.60923382,14.2006157 8.51939741,15.4039323 8.42921007,15.7597687 C8.33902274,16.1156052 8.16707023,17.5456183 7.74982221,18.4060827 C7.34485651,19.2409297 4.68731297,21.8826817 4.68731297,21.8826817 L5.97344754,23.0923149 C5.97344754,23.0923149 9.67814675,19.3746315 9.9030887,18.6948928 C10.1283816,18.015154 11.0544686,13.2850563 11.1285135,12.4877582 C11.1878196,11.8448664 12.0356507,8.98097982 10.4642153,8.93325423" id="Fill-157" fill="#C6D4FF"></path>
                    <path d="M9.68902537,20.6405178 C9.68902537,20.6405178 9.20299635,21.7894413 9.16018369,22.0800059 C9.11737102,22.3702197 7.97967709,25.120407 7.65051086,26.9743358 C7.45364279,28.0843067 6.90971139,31.5588001 6.86584595,32.0006128 C6.79004648,32.756502 6.43421007,34.4254941 6.37946601,35.1975257 C6.34893566,35.6291616 4.22269028,42.2556497 3.70823646,45.7154044 C3.70823646,45.7154044 4.93085387,45.8964809 5.84922062,45.6532909 C5.84922062,45.6532909 7.71578263,42.0780825 8.7524106,37.0065363 C9.37670347,33.9520983 9.92870611,32.3234624 10.4122787,31.0654017 C10.8958512,29.807341 13.634809,26.2444149 13.9208117,25.8440112 C14.2064634,25.4439585 15.9975768,23.2317368 14.3015636,20.8356313 C12.6055504,18.4391748 9.68902537,20.6405178 9.68902537,20.6405178" id="Fill-127" fill="#0E5F96"></path>
                    <path d="M17.0781404,23.2717772 C12.2346945,24.556859 8.38050189,23.277041 8.38050189,23.277041 C8.73212722,22.5544896 8.99075783,21.8336928 9.17780004,21.1357059 C9.17780004,21.1357059 9.17815097,21.1357059 9.17815097,21.1350041 C9.31080004,20.6423075 9.407304,20.1611914 9.47643593,19.6983234 C9.86982115,17.0597297 9.35677102,15.0394632 9.35677102,15.0394632 C9.91579213,10.4385054 16.8777631,9.06534183 17.4353805,10.5237798 C17.992647,11.9822178 16.3545362,18.2497112 16.2717183,18.787326 C16.1889003,19.3245899 17.0781404,23.2717772 17.0781404,23.2717772" id="Fill-141" fill="#C6D4FF"></path>
                </g>
                <g id="bottom-left-man" transform="translate(31.963164, 86.746251)">
                    <path d="M1.78501857,23.6469416 C1.78501857,23.6469416 1.97557002,23.9592635 1.99943282,24.213683 C2.01838269,24.4151131 2.18752781,24.7165564 2.26087082,24.8825432 C2.33456475,25.0492318 2.57073625,25.8023136 2.57915841,25.9981289 C2.58266765,26.0784904 2.40369667,26.5834693 2.42896316,26.7448941 C2.45458058,26.9063189 2.54687345,27.2263611 2.40194206,27.2477674 C2.25665973,27.2688228 2.09207662,27.006683 2.09207662,27.006683 C2.09207662,27.006683 2.10611356,27.1554746 1.98329034,27.2119732 C1.74466237,27.3228651 1.61832992,27.2253083 1.61832992,27.2253083 C1.61832992,27.2253083 1.53024812,27.3888387 1.41970723,27.4109469 C1.17616633,27.4593743 1.05685235,27.3618176 1.05685235,27.3618176 C1.05685235,27.3618176 0.94946976,27.4537595 0.781026488,27.4506012 C0.56555947,27.4460392 0.475372135,27.2600498 0.475372135,27.2600498 C0.475372135,27.2600498 0.202353665,27.3154957 0.123395882,27.1881104 C0.0444380979,27.0610761 0.0581241137,26.9252688 0.0251373063,26.8098149 C-0.0074985776,26.694712 0.0170660662,25.6531711 0.37114786,24.9035986 C0.724878731,24.1536751 0.280960525,23.4223505 0.280960525,23.4223505 L1.78501857,23.6469416 Z" id="Fill-69" fill="#FBBFA1"></path>
                    <path d="M2.13060802,26.9090912 C2.13060802,26.9090912 2.15482174,25.9749329 1.9091753,25.7759593 C1.66317794,25.5769856 1.63510406,25.9142231 1.63510406,25.9142231 C1.63510406,25.9142231 1.66844179,25.5808458 1.3996344,25.5359276 C1.13117794,25.4910094 1.11994839,25.8868511 1.11994839,25.8868511 C1.11994839,25.8868511 1.07573203,25.6296242 0.793589549,25.6826136 C0.511096145,25.7352521 0.578473454,26.0633656 0.578473454,26.0633656 C0.578473454,26.0633656 0.308964219,25.7419197 0.134204325,26.0507323 C-0.161273248,26.5722046 0.123325697,27.1880753 0.123325697,27.1880753 C0.123325697,27.1880753 0.206494562,27.3291466 0.47530195,27.2600147 C0.47530195,27.2600147 0.654974773,27.6221677 1.05678216,27.3617825 C1.05678216,27.3617825 1.46841541,27.588479 1.61825973,27.2252732 C1.61825973,27.2252732 2.0720038,27.4410912 2.13060802,26.9090912" id="Fill-70" fill="#ECAC8C"></path>
                    <path d="M4.95445419,10.1884645 C4.95445419,10.1884645 3.35494496,15.5189922 2.81452279,17.4855674 C2.64502675,18.10214 2.2347972,23.9913379 2.16250696,24.2285622 C2.09021673,24.4657864 0.0615280715,24.7900397 0.0615280715,24.7900397 C0.0615280715,24.7900397 0.307174509,17.4227521 0.330335459,17.0212957 C0.353145486,16.6191374 2.56887636,8.39208722 3.21317187,8.09871519 C3.69569166,7.87868617 3.95046211,8.06081545 4.55896343,8.51245398 C5.41240934,9.14587086 4.95445419,10.1884645 4.95445419,10.1884645" id="Fill-71" fill="#F8DAB7"></path>
                    <path d="M13.4991252,11.6164775 L13.912513,11.4634748 C13.912513,11.4634748 13.3970064,10.2538416 13.1720645,10.2833191 C12.913083,10.3173587 12.5895315,10.4026331 12.5895315,10.4026331 L13.4991252,11.6164775 Z" id="Fill-72" fill="#EAD8CF"></path>
                    <path d="M13.5935587,11.8252067 C13.5405692,11.7859033 12.7151972,10.2018347 12.7151972,10.2018347 L10.9514558,10.4418664 L11.904564,12.3175524 L13.5935587,11.8252067 Z" id="Fill-73" fill="#DA9B5B"></path>
                    <path d="M3.4927877,47.7487875 C3.47453968,47.9007374 1.87081936,47.659302 1.87081936,47.659302 L1.74097768,46.4545817 C1.74097768,46.4545817 3.45629166,46.4422994 3.65666897,46.5847743 C3.65666897,46.5847743 3.5106848,47.5968376 3.4927877,47.7487875 Z" id="Fill-74" fill="#FBBFA1"></path>
                    <path d="M3.50980749,47.6200688 C3.50980749,47.6200688 4.01794469,48.2299738 4.50923757,48.4956228 C5.00088137,48.7616228 5.77291303,48.8668999 6.06347768,49.1420239 C6.27332992,49.3402957 6.8274381,50.1954962 4.78646712,50.1783009 C2.74549615,50.1607548 1.7615067,50.2990186 1.54288137,49.9712561 C1.32390512,49.6434936 1.85906343,47.5516387 1.85906343,47.5516387 C1.85906343,47.5516387 2.34263599,47.7256967 3.50980749,47.6200688" id="Fill-75" fill="#023436"></path>
                    <path d="M15.1468513,46.5847743 C15.1468513,46.5847743 15.0008671,47.5968376 14.9826191,47.7487875 C14.9643711,47.9007374 13.3610017,47.659302 13.3610017,47.659302 L13.23116,46.4545817 C13.23116,46.4545817 14.946474,46.4422994 15.1468513,46.5847743" id="Fill-76" fill="#FBBFA1"></path>
                    <path d="M14.9998144,47.6200688 C14.9998144,47.6200688 15.5079516,48.2299738 15.9992444,48.4956228 C16.4908882,48.7616228 18.2991969,48.9798972 18.5897616,49.2550213 C18.7996138,49.4536439 19.1484318,50.2530476 16.276474,50.1783009 C14.2362049,50.1253115 13.2515136,50.2990186 13.0328882,49.9712561 C12.8142629,49.6434936 13.3494212,47.5516387 13.3494212,47.5516387 C13.3494212,47.5516387 13.8049199,47.7372772 14.9998144,47.6200688" id="Fill-77" fill="#023436"></path>
                    <path d="M3.59037952,25.1399806 C3.70267504,27.3041257 3.04399166,29.6668936 2.81764601,31.9271917 C2.56533203,34.4475242 1.53256422,40.4135743 1.49501541,41.7618223 C1.45746659,43.1097194 1.65185943,47.2549594 1.65185943,47.2549594 L3.74178635,47.2549594 C3.74178635,47.2075847 5.45869615,37.0313738 5.90822913,35.9670228 C6.35811303,34.9030228 8.58788084,27.3153553 8.66262754,26.4643658 C8.73772517,25.6126746 4.98459852,20.5821864 4.98459852,20.5821864 C4.98459852,20.5821864 3.47808401,22.9761864 3.59037952,25.1399806 Z" id="Fill-78" fill="#077C7C"></path>
                    <path d="M14.2019898,28.1620635 C14.3518341,29.4864487 14.4518473,34.5716809 14.526945,35.3995094 C14.6016917,36.226987 15.1952193,46.0126061 15.3945439,47.2671576 L12.7674592,47.2671576 C12.7674592,47.1797369 10.7545175,40.1885622 10.7545175,36.7477574 C10.7545175,33.3066017 9.18729324,29.2664197 8.17558084,26.9962957 C7.16386844,24.7258207 4.84812438,24.6717785 4.22628797,20.4596439 C4.22628797,20.4596439 12.0746917,19.5704038 12.9165571,20.9063695 C12.9165571,20.9063695 14.0521455,26.8376783 14.2019898,28.1620635 Z" id="Fill-79" fill="#118C8C"></path>
                    <path d="M7.49900037,0.45479461 C7.49900037,0.45479461 9.5213724,-0.300392725 10.4537761,1.23875767 C11.3865307,2.77860991 11.2966943,5.86041994 10.2772616,6.2394173 C9.25782886,6.61841466 7.72639878,6.42049382 7.20457556,5.45720886 C6.68240142,4.4939239 6.21146211,3.10110859 6.23392121,2.17045952 C6.25638031,1.23945952 6.96805314,0.723601997 7.49900037,0.45479461" id="Fill-80" fill="#FBBFA1"></path>
                    <path d="M10.0577589,6.31012838 C10.0577589,6.31012838 9.97353731,6.85651625 10.112503,7.12497271 C10.2518196,7.39413102 7.49250828,7.40114949 7.49250828,7.40114949 C7.49250828,7.40114949 7.26826818,5.93779857 6.84365076,4.70184606 C6.41903335,3.46589355 10.0577589,6.31012838 10.0577589,6.31012838" id="Fill-81" fill="#FBBFA1"></path>
                    <path d="M6.84375604,4.70184606 C6.84375604,4.70184606 7.03395657,5.0162735 7.81160301,4.89415213 C8.58889852,4.77238168 9.53744469,3.73785925 9.86204892,3.62451097 C10.1866531,3.51081176 10.1898114,3.31990939 10.1898114,3.31990939 L10.3929961,3.61714158 L10.737603,3.63889883 C10.737603,3.63889883 10.4231756,2.71386453 10.8976241,2.33627086 C11.3717217,1.95937904 10.4052785,-0.658159216 7.91196712,0.213183792 C7.91196712,0.213183792 5.99697768,0.74097271 6.06681145,1.82988828 C6.1362943,2.91915477 6.41527847,4.15966928 6.84375604,4.70184606" id="Fill-82" fill="#323657"></path>
                    <path d="M10.2764194,7.09286321 C10.2764194,7.09286321 10.2679972,6.57876031 10.034984,6.52963102 C9.80161989,6.48050173 7.46341673,6.25555978 7.17741409,6.36820622 L7.17741409,6.96688168 C7.17741409,6.96688168 7.72836396,7.30552284 10.2764194,7.09286321" id="Fill-83" fill="#E2D2CA"></path>
                    <path d="M10.1381204,2.92427825 C10.094255,2.74144712 9.62998322,2.2196239 9.45206501,2.77829408 C9.27449773,3.33731519 9.7208724,4.08899329 9.97002807,4.02477429 C10.2188328,3.9605553 10.2486613,3.38714632 10.1381204,2.92427825" id="Fill-84" fill="#EEA886"></path>
                    <path d="M6.92309984,0.636432604 C6.92309984,0.636432604 4.34416316,0.838213607 6.84379113,4.70188115 L6.92309984,0.636432604 Z" id="Fill-86" fill="#323657"></path>
                    <path d="M24.4963302,1.42120279 C24.4138632,1.16292311 24.1366336,1.08747456 24.1366336,1.08747456 C24.0208289,0.912714662 23.7232457,0.821474557 23.7232457,0.821474557 C23.7190347,0.809192235 23.7113144,0.797962683 23.7056996,0.786031285 C23.8885307,0.589865058 24.4201798,0.222448172 24.4510611,0.152965322 C24.4886099,0.0683927626 24.4791349,0.0589178286 24.3759634,0.00277007135 C24.2899872,-0.0442536754 23.4225043,0.520382209 23.1333434,0.711635507 C23.0621059,0.756202789 23.0045545,0.798313607 22.9926231,0.807788541 C22.9126125,0.87516585 22.7504859,0.924646061 22.6143275,1.06817377 C22.5992378,1.08326348 22.584499,1.10045873 22.5704621,1.11835582 C22.4272853,1.3018888 22.0889951,2.7722582 22.0889951,2.7722582 L22.6929344,3.0428202 L23.2747655,3.53656954 C23.2747655,3.53656954 23.9541534,2.97439012 24.1282114,2.79752469 C24.3026204,2.62065925 24.382631,2.41466717 24.4307075,2.32763815 C24.442288,2.30658274 24.4629925,2.27675424 24.4882589,2.24271466 C24.5672167,2.13603392 24.6868816,1.99285714 24.6868816,1.99285714 C24.7461877,1.9100392 24.7812801,1.70299435 24.7812801,1.70299435 C24.7689977,1.52963815 24.4963302,1.42120279 24.4963302,1.42120279" id="Fill-87" fill="#FBBFA1"></path>
                    <path d="M14.1442629,7.87114131 C12.5408935,7.65953445 10.2763843,7.09279303 10.2763843,7.09279303 L7.17737899,6.96646057 C7.17737899,6.96646057 4.33314417,7.59250807 3.21299641,8.09853973 C3.10666659,8.14626532 3.10631567,10.6360674 2.81469826,11.2887851 L3.74324179,13.2479909 C3.74324179,13.2479909 4.2798038,17.1292046 4.39139746,18.8550463 C4.44228137,19.6474315 3.2845848,26.2855002 3.2845848,26.2855002 C3.2845848,26.2855002 4.52509931,26.6504606 6.64011514,26.8838247 C8.75513097,27.1168379 14.0400386,26.7992521 14.0730254,26.5497455 C14.1067141,26.299888 13.0497326,17.2474658 13.0030597,16.7786321 C12.9311204,16.0592389 13.2511626,12.2359276 13.2511626,12.2359276 C13.7392972,11.8569302 18.0268803,9.86684316 19.1968592,8.82951334 C19.509883,8.55193287 20.8311099,7.26509646 21.206598,6.82117825 C22.5369489,5.2483392 23.6269173,3.89938933 23.7595663,3.60847377 C23.9104634,3.44283788 22.3144634,2.57535503 22.169883,2.52692759 C22.0431996,2.48481677 20.2450676,4.81459778 19.5533975,5.56417034 C19.2445848,5.89824949 17.9619595,6.83135503 17.9619595,6.83135503 C17.9619595,6.83135503 15.1472022,7.92869276 14.1442629,7.87114131" id="Fill-88" fill="#F9EBDB"></path>
                </g>
            </g>
        </g>
    </g>
</svg>