<?xml version="1.0" encoding="UTF-8"?>
<svg width="180px" height="180px" viewBox="0 0 180 180" version="1.1" xmlns="http://www.w3.org/2000/svg" xmlns:xlink="http://www.w3.org/1999/xlink">
    <!-- Generator: sketchtool 51.1 (57501) - http://www.bohemiancoding.com/sketch -->
    <title>D9D4877E-51AC-4FEB-883C-831ADA47BEC8</title>
    <desc>Created with sketchtool.</desc>
    <defs>
        <ellipse id="path-1" cx="89.9624583" cy="89.2917822" rx="89.9624583" ry="89.2917822"></ellipse>
        <polygon id="path-3" points="0 0 127.529199 0 127.529199 165.827595 0 165.827595"></polygon>
    </defs>
    <g id="Web" stroke="none" stroke-width="1" fill="none" fill-rule="evenodd">
        <g id="1.0-Create-Account" transform="translate(-219.000000, -206.000000)">
            <g id="Group-11" transform="translate(219.000000, 206.000000)">
                <g id="Group-10">
                    <g id="Group-5">
                        <g id="Group-12">
                            <g id="Group-2">
                                <g id="Group-14">
                                    <g>
                                        <g id="Group-4">
                                            <g id="Group-9" transform="translate(0.000000, 0.763315)">
                                                <mask id="mask-2" fill="white">
                                                    <use xlink:href="#path-1"></use>
                                                </mask>
                                                <use id="Mask" fill="#005150" xlink:href="#path-1"></use>
                                                <g mask="url(#mask-2)" id="Group-8">
                                                    <g transform="translate(-41.521135, 45.136505)">
                                                        <g>
                                                            <path d="M6.97072334,138.353201 L231.281501,138.353201 C229.483944,199.355919 179.958302,248.250779 119.126112,248.250779 C58.2939224,248.250779 8.76828082,199.355919 6.97072378,138.353216 Z" id="Combined-Shape-Copy-2" fill="#008181" transform="translate(119.126112, 193.301990) rotate(-315.000000) translate(-119.126112, -193.301990) "></path>
                                                            <g id="Group-7" transform="translate(76.122080, 0.000000)">
                                                                <g id="Group-6">
                                                                    <path d="M60.3254805,87.3293254 L161.120571,87.3293254 C160.343555,114.557356 138.077231,136.390744 110.723026,136.390744 C83.3688198,136.390744 61.1024962,114.557356 60.3254807,87.3293313 Z" id="Combined-Shape-Copy" fill="#FF9445" transform="translate(110.723026, 111.860035) rotate(-30.000000) translate(-110.723026, -111.860035) "></path>
                                                                    <g id="Group">
                                                                        <g id="Group-3">
                                                                            <mask id="mask-4" fill="white">
                                                                                <use xlink:href="#path-3"></use>
                                                                            </mask>
                                                                            <g id="Clip-2"></g>
                                                                            <path d="M110.990407,156.99654 L110.990407,53.9439835 C110.990407,51.9529947 110.88039,49.986481 110.666766,48.0518912 C109.785566,40.0592046 110.500139,32.0005419 112.535979,24.2206815 C112.914094,22.7723995 113.262301,21.2698468 113.590215,19.7119593 C114.435099,15.7055067 110.150864,12.5971806 106.596155,14.6520172 C105.002518,15.5746186 103.344794,16.4674244 101.688138,17.2633942 C99.580734,18.2753827 97.0802617,17.8295118 95.4406953,16.1662754 C85.611842,6.19749788 71.9430922,0 56.8430596,0 C41.7430271,0 28.0774816,6.19643375 18.2475601,16.1620188 C16.6090619,17.8252553 14.1064534,18.2711261 11.9990498,17.2580736 C10.346666,16.464232 8.69321399,15.5724904 7.10171307,14.6520172 C3.5480731,12.5971806 -0.736161928,15.7044426 0.107653996,19.7108951 C0.434499152,21.2581413 0.779502371,22.7500527 1.15441299,24.1887576 C3.18704806,31.968618 3.9069619,40.0262165 3.02042112,48.0167749 C2.80466059,49.9630701 2.69357596,51.9402252 2.69357596,53.9439835 L2.69357596,80.6494105 C2.69357596,114.594119 23.0882864,143.86623 52.3014073,156.99654 L13.4623761,156.99654 L127.529199,156.99654 L110.990407,156.99654 Z" id="Fill-1" fill="#00BCBC" mask="url(#mask-4)"></path>
                                                                        </g>
                                                                        <path d="M79.1224247,26.4931661 C68.8745168,26.4931661 60.1471904,33.0084324 56.8444105,42.1270254 C53.5416305,33.0084324 44.8153719,26.4931661 34.567464,26.4931661 C21.4823475,26.4931661 10.8745829,37.1138841 10.8745829,50.2139099 C10.8745829,77.2147385 13.4768702,99.1040659 56.8444105,99.1040659 C97.8040074,99.1040659 102.814238,77.2147385 102.814238,50.2139099 C102.814238,37.1138841 92.2064734,26.4931661 79.1224247,26.4931661" id="Fill-4" fill="#FFFFFF" opacity="0.901283482"></path>
                                                                    </g>
                                                                </g>
                                                            </g>
                                                        </g>
                                                    </g>
                                                </g>
                                            </g>
                                        </g>
                                        <path d="M96.5696131,124.287681 L102.276285,113.591252 C102.913369,112.397807 102.725237,110.896655 101.818782,109.92752 L93.4198267,100.930671 C92.2611043,99.6897762 90.3042461,99.6897762 89.146949,100.930671 L80.7465683,109.92752 C79.8401139,110.896655 79.6519818,112.397807 80.2890654,113.591252 L85.9957373,124.287681 C88.2618732,128.536632 94.3034772,128.536632 96.5696131,124.287681" id="Fill-10" fill="#FF9445"></path>
                                    </g>
                                </g>
                            </g>
                        </g>
                        <g id="Group-13" transform="translate(59.340659, 90.000000)" fill="#007F7E">
                            <path d="M64.1981042,9.24139734 L59.2240003,9.24139734 C59.2240003,7.75504504 58.8124644,4.29816699 54.9955335,4.29816699 C51.1794727,4.29816699 50.7670667,7.75504504 50.7670667,9.24139734 L45.7929629,9.24139734 C45.7929629,3.71324939 49.4915662,0 54.9955335,0 C60.5003709,0 64.1981042,3.71324939 64.1981042,9.24139734" id="Fill-7"></path>
                            <path d="M18.4051413,9.24139734 L13.4310375,9.24139734 C13.4310375,7.75504504 13.0195015,4.29816699 9.20257066,4.29816699 C5.38650987,4.29816699 4.97410385,7.75504504 4.97410385,9.24139734 L0,9.24139734 C0,3.71324939 3.69860337,0 9.20257066,0 C14.707408,0 18.4051413,3.71324939 18.4051413,9.24139734" id="Fill-7-Copy"></path>
                        </g>
                    </g>
                </g>
            </g>
        </g>
    </g>
</svg>