<svg xmlns="http://www.w3.org/2000/svg" xmlns:xlink="http://www.w3.org/1999/xlink" width="81" height="88" viewBox="0 0 81 88">
    <defs>
        <path id="a" d="M.06 13.034l4.86.033L5.022.142.161.109z"/>
    </defs>
    <g fill="none" fill-rule="evenodd">
        <path fill="#CDEAE6" d="M7.193 11L7 14h37.24l.76-2.65z"/>
        <path fill="#F6F6F6" d="M.183.142L0 83h74.254L75 0z"/>
        <path fill="#FF7900" d="M6 18l.025 2h49.47L56 18.233z"/>
        <path fill="#CDEAE6" d="M7 24v3h63v-3zM6 30v3h63v-3zM6 38v3h63v-3zM6 45v3h63v-3zM6 52v3h63v-3zM6 61v3h63v-3z"/>
        <g transform="translate(70.865 74)">
            <mask id="b" fill="#fff">
                <use xlink:href="#a"/>
            </mask>
            <path fill="#FFF" d="M.06 13.067h4.962V.109H.059z" mask="url(#b)"/>
        </g>
        <path fill="#009792" d="M74.183 86.991c3.684.003 6.696-.646 6.74-6.488.047-6.38-2.958-6.533-6.642-6.583l-.098 13.071z"/>
        <path fill="#CDEAE6" d="M21.892 86.626L11.513 82.33l.035-4.7 10.44-3.922z"/>
        <path fill="#004060" d="M11.513 82.331l-4.582-2.35 4.617-2.35z"/>
        <path fill="#71D8B8" d="M21.988 73.709l-.013 1.762-.022 2.938-.024 3.29-.023 2.938-.014 1.989 50.355.353.096-12.916z"/>
        <path fill="#006769" d="M24.044 63.081l.912 2.646c.076.37.089.813-.26 1.032 0 0-.23.148-.478.241-.166-.039-1.218-3.612-1.218-3.612l.01-.022c.418-.596 1.034-.285 1.034-.285"/>
        <path fill="#FAB08A" d="M25.74 63l-.727.455a.551.551 0 0 0 .16.522l.025.023.802-.229-.26-.771z"/>
        <path fill="#1C2C57" d="M33.64 47s-1.072 1.135-1.349 3.13c-.184 1.329.323 3.433.378 5.085.05 1.51-.644 2.71-1.864 3.633L25 62.986 25.388 64s7.946-1.169 10.032-4.66C37.506 55.848 38 47.945 38 47.945L33.64 47z"/>
        <path fill="#FAB08A" d="M29.988 42l-2.99 6.842s-1.229.147-1.761.63c-.279.252-.266.756-.19 1.181a.41.41 0 0 0 .675.244c.328-.293.752-.622 1.03-.67.738-.126.958-.66.958-.66L32 42.671 29.988 42zM44.76 29.06l1.356-1.293-1.05-6.387-1.631-.93s.178-.352.58-.202c.402.15.743.06.743.06s.305-.42-.274-.706c-.324-.243-.542 0-1.484-.041 0-.162 1.242-.546 1.242-.546.387-.139 1.375.716 1.375.716.066.1.11.218.125.342l.157 1.186S48 27.687 48 28.373C48 29.06 46.822 30 46.822 30l-2.061-.94z"/>
        <path fill="#004060" d="M36.583 47.924s-.985 1.117-.394 3.716c.377 1.658 2.035 3.745 3.147 5.182.798 1.03.815 2.327.575 3.582C39 65.175 40.458 71 40.458 71h1.182s1.774-8.536 2.3-14.536c.473-5.41-1.985-9.394-2.037-9.464l-5.32.924zM42.112 19l-.9.283.684.717 2.85.448c.209.02.343-.129.403-.448.06-.32-.011-.51-.212-.572L42.112 19z"/>
        <path fill="#006769" d="M33.521 34.427C31.445 35.89 29 42.916 29 42.916l1.824.98 2.967-3.901s.29 4.516-.42 7.981c.322 1.3 1.862 1.153 4.36.7 2.496-.454 4.132-1.486 4.132-1.486s.107-6.266.43-9.589c.323-3.323-.314-3.678.56-3.568 1.95-1.061 5.147-4.48 5.147-4.48L45.03 29l-6.392 3.589s-3.126.79-5.117 1.838"/>
        <path fill="#FAB08A" d="M37 27l1.32 1.264c.56.537.796 1.316.625 2.061l-.154.675L37 27z"/>
        <path fill="#1C2C57" d="M35.34 26c-3.521 0-2.024 6.8-2.024 6.8s.627 4.41 2.024 6.18c1.208 1.533 3.599 1.073 4.732.336.553-.359 1.174-.599 1.828-.678.96-.116 2.1-.543 2.1-2.283 0-1.64-1.944-2.906-3.224-3.811a4.246 4.246 0 0 1-1.66-2.468C38.707 28.398 37.709 26 35.34 26"/>
        <path fill="#006769" d="M39.279 72.003L42.097 72c.373.04.792.153.861.496 0 0 .05.227.041.453-.1.123-3.836-.016-3.836-.016l-.016-.014c-.396-.503.132-.916.132-.916"/>
        <path fill="#004060" d="M42.995 72.924L40 72.903l.026.194H43z"/>
        <path fill="#FAB08A" d="M40 71l.172.912c.2.111.461.117.67.017l.038-.018L41 71h-1zM43 20.279l1.237.651c.016-.008.834.554.85.546.193-.095-.27-.805-.087-.842-.111-.134-1.155-.504-1.372-.59-.436-.175-.628.235-.628.235z"/>
        <path fill="#00BCBC" d="M3 13h69V4H3z"/>
    </g>
</svg>
