<?xml version="1.0" encoding="UTF-8"?>
<svg width="15px" height="15px" viewBox="0 0 15 15" version="1.1" xmlns="http://www.w3.org/2000/svg" xmlns:xlink="http://www.w3.org/1999/xlink">
    <!-- Generator: Sketch 61.2 (89653) - https://sketch.com -->
    <title>Group 20</title>
    <desc>Created with Sketch.</desc>
    <g id="5.0-Result+Dashboard" stroke="none" stroke-width="1" fill="none" fill-rule="evenodd">
        <g id="5.3-Dashboard--(Dropoff_Not-completed)" transform="translate(-110.000000, -305.000000)">
            <g id="Group-25-Copy" transform="translate(16.000000, 289.000000)">
                <g id="Group-23-Copy-2">
                    <g id="Group-28" transform="translate(59.000000, 10.000000)">
                        <g id="Group-20" transform="translate(35.000000, 6.000000)">
                            <rect id="Rectangle" fill="#FF872F" x="0" y="0" width="15" height="15" rx="3"></rect>
                            <path d="M7.8045832,10.479209 C8.1885832,10.479209 8.54991654,10.419209 8.8885832,10.299209 C9.22724987,10.179209 9.5085832,10.0125423 9.7325832,9.79920895 L9.7325832,9.79920895 L9.3965832,9.04720895 C9.1405832,9.25520895 8.88591654,9.40587562 8.6325832,9.49920895 C8.37924987,9.59254229 8.1085832,9.63920895 7.8205832,9.63920895 C7.26591654,9.63920895 6.83924987,9.45920895 6.5405832,9.09920895 C6.24191654,8.73920895 6.0925832,8.22320895 6.0925832,7.55120895 C6.0925832,6.88454229 6.24324987,6.37254229 6.5445832,6.01520895 C6.84591654,5.65787562 7.27124987,5.47920895 7.8205832,5.47920895 C8.1085832,5.47920895 8.37924987,5.52587562 8.6325832,5.61920895 C8.88591654,5.71254229 9.1405832,5.86320895 9.3965832,6.07120895 L9.3965832,6.07120895 L9.7325832,5.31920895 C9.5085832,5.10587562 9.22724987,4.93920895 8.8885832,4.81920895 C8.54991654,4.69920895 8.1885832,4.63920895 7.8045832,4.63920895 C7.2445832,4.63920895 6.75524987,4.75787562 6.3365832,4.99520895 C5.91791654,5.23254229 5.5965832,5.57120895 5.3725832,6.01120895 C5.1485832,6.45120895 5.0365832,6.96454229 5.0365832,7.55120895 C5.0365832,8.14320895 5.1485832,8.65920895 5.3725832,9.09920895 C5.5965832,9.53920895 5.91791654,9.87920895 6.3365832,10.119209 C6.75524987,10.359209 7.2445832,10.479209 7.8045832,10.479209 Z" id="C" fill="#FFFFFF" fill-rule="nonzero"></path>
                        </g>
                    </g>
                </g>
            </g>
        </g>
    </g>
</svg>