<svg xmlns="http://www.w3.org/2000/svg" xmlns:xlink="http://www.w3.org/1999/xlink" width="83" height="85" viewBox="0 0 83 85">
    <defs>
        <path id="a" d="M.052.065h13.884v17.802H.052z"/>
        <path id="c" d="M.077.065h10.635v17.802H.077z"/>
        <path id="e" d="M.05.035h15.453v20.828H.05z"/>
        <path id="g" d="M.02.035h13.168v20.828H.02z"/>
        <path id="i" d="M.615 0l.615.972H0z"/>
    </defs>
    <g fill="none" fill-rule="evenodd">
        <g transform="translate(3 .434)">
            <rect width="56" height="80.071" fill="#EEE" rx="4"/>
            <path fill="#FFF" d="M16.535 6.255c0 3.577.717 8.7-5.099 10.781-5.815-2.08-5.098-7.204-5.098-10.78 2.112 0 3.73-.624 5.098-1.997 1.369 1.373 2.987 1.996 5.1 1.996zm-3.127 3.87h-1.482V8.518h-.978v1.607H9.465v1.045h1.483v1.607h.978V11.17h1.482v-1.045z"/>
            <path fill="#D8D8D8" d="M6.31 40.887h44.169v3.407H6.31zM6.31 48.554h44.169v3.407H6.31zM6.31 56.22h44.169v3.407H6.31zM6.31 22.999h44.169v13.629H6.31z"/>
        </g>
        <path fill="#118C8C" d="M46.873 47.11v15.285h-11.09v17.071H67.95V47.111z"/>
        <path fill="#FAB08A" d="M48.638 70.837l-.248 1.835c.462.394 1.068.42 1.55.064l.087-.064.368-1.835h-1.757z"/>
        <path fill="#005960" d="M62.213 30.204c-1.516 5.12-6.605 12.98-6.605 12.98l4.02-1.683 2.84-6.715s1.261-9.702-.255-4.582"/>
        <path fill="#1C2C57" d="M51.503 50.5l-2.98 19.907h2.65s5.949-17.91 6.574-23.175c0-2.983-6.015 0-6.015 0l-.229 3.269z"/>
        <path fill="#F79C82" d="M61.222 21.953l1.057 2.89 2.285-1.75-1.543-3.408z"/>
        <path fill="#FAB08A" d="M60.726 22.783c-.35.068-.685.085-.883-.025-1.312-1.348-.992-5.85-.992-5.85l1.466-1.091 2.31.91.67 2.819a2.487 2.487 0 0 1-.531 2.167 4.16 4.16 0 0 1-2.04 1.07"/>
        <path fill="#1C2C57" d="M62.125 17.744a.906.906 0 0 0-1.145-.46 7.056 7.056 0 0 1-1.093.34c-.914.194-2.62.177-2.91-1.236-.29-1.412 1.517-1.29 1.517-1.29l2.404.168a4.379 4.379 0 0 0 2.073-.386c.578-.256 1.092.288 1.216.652.27.797-.012 2.16-.25 3.033a4.44 4.44 0 0 1-.663 1.407l-1.15-2.228z"/>
        <path fill="#FAB08A" d="M63.432 17.875c-.245-.123-.626-.021-.85.227-.223.249-.206.549.04.672.245.122.625.02.85-.228.223-.248.206-.549-.04-.671"/>
        <path fill="#1C2C57" d="M48.44 72.593s-.006 1.828-3.565 2.924c-.73.226-.492.448-.63.765h4.095l1.603-1.86.5.443 1.155-1.172s-.2-1.695-1.081-1.71c-.727.255-2.076.61-2.076.61"/>
        <path fill="#FAB08A" d="M58.282 70.303l.703 1.478c.64.166 1.328-.025 1.759-.487l.077-.083-.568-1.52-1.971.612z"/>
        <path fill="#006769" d="M62.143 24.284s-.28-.472 2.222-1.876c3.773 4.095 5.012 19.773 5.012 19.773H59.51c-.334-8.948 2.632-17.897 2.632-17.897"/>
        <path fill="#FAB08A" d="M52.411 41.1a.488.488 0 0 1 .2-.512l1.57-1.002a1.68 1.68 0 0 1 1.286-.23l1.703.076.223.296.354 1.657c-.342-.09-.543-.148-.543-.148l-1.081.033s-2.04 2.086-3.05.272c-.043 1.93-.556 1.782-.556 1.782l-.106-2.224z"/>
        <path fill="#004060" d="M69.195 41.75l.147 1.28.005.052c.262 2.444-1.26 4.71-3.497 5.373 0 0-4.44 1.555-10.043 1.88 3.678 4.997 4.696 19.018 4.696 19.018l-2.37.91L48.98 47.2c-.585-1.473.242-3.146 1.72-3.479l8.742-1.97h9.753z"/>
        <path fill="#006769" d="M63.1 29.199s1.833 1.783 2.911 3.612c.3.508.255 1.166-.116 1.62-2.048 2.508-9.351 4.918-9.351 4.918l.473 2.832S67.38 40.014 71.05 36.1c3.766-4.016-5.972-12.404-5.972-12.404"/>
        <path fill="#118C8C" d="M48.493 44.33l-3.044-11.724.558-.169 2.903 11.18 8.738-1.635.099.615z"/>
        <path fill="#1C2C57" d="M59.122 71.432s.139 1.843-3.42 2.939c-.729.226-.491.448-.629.764h4.095l1.603-1.859.498.442 1.157-1.17s-.54-1.696-1.42-1.711c-.726.255-1.884.595-1.884.595"/>
        <g>
            <g transform="translate(68.407 62.006)">
                <mask id="b" fill="#fff">
                    <use xlink:href="#a"/>
                </mask>
                <path fill="#59C09C" d="M.052 16.248S1.777 3.27 9.897.065c7.929 7.192 1.74 17.827 1.74 17.827l-8.75 6.676-2.835-8.32z" mask="url(#b)"/>
            </g>
            <g transform="translate(71.127 62.006)">
                <mask id="d" fill="#fff">
                    <use xlink:href="#c"/>
                </mask>
                <path fill="#006769" d="M.22 7.117l3.496 4.463L6.986.144l.192-.08.09.086-1.752 6.125 4.617-2.232.061.138.053.124-4.836 2.338-2.92 10.207 8.22-3.643c-.029.119-.058.237-.089.352L2.39 17.208.315 24.455l-.147.113-.091-.267L3.62 11.91.081 7.39l.138-.274" mask="url(#d)"/>
            </g>
            <g transform="translate(60.81 59.01)">
                <mask id="f" fill="#fff">
                    <use xlink:href="#e"/>
                </mask>
                <path fill="#004966" d="M3.552 21.833s-7.226-13-.92-21.798c17.17 5.326 12.204 23.293 12.204 23.293L3.552 21.833z" mask="url(#f)"/>
            </g>
            <g transform="translate(60.904 59.01)">
                <mask id="h" fill="#fff">
                    <use xlink:href="#g"/>
                </mask>
                <path fill="#59C09C" d="M2.538.035l.178.056 4.65 17.097 5.644-9.334c.06.106.12.211.178.317l-5.707 9.44 1.342 4.933-.336-.045-2.675-9.835-5.76-1.944c-.012-.119-.022-.238-.032-.358l5.688 1.92L2.422.202c.04-.056.076-.112.116-.168" mask="url(#h)"/>
            </g>
        </g>
        <g>
            <path fill="#1C2C57" d="M25.238 52.536a.615.615 0 0 1 .225-.84l3.983-2.3.615 1.066-3.983 2.299a.615.615 0 0 1-.84-.225z"/>
            <path fill="#FFF" d="M26.081 52.76l-.614-1.066.23-.132.614 1.065z"/>
            <g transform="rotate(-120 29.597 16.553)">
                <mask id="j" fill="#fff">
                    <use xlink:href="#i"/>
                </mask>
                <use fill="#FBF2F2" transform="matrix(1 0 0 -1 0 .972)" xlink:href="#i"/>
                <path fill="#000" d="M.615.607l.615.365H0z" mask="url(#j)" transform="matrix(1 0 0 -1 0 1.58)"/>
            </g>
            <g>
                <path fill="#FABC9C" d="M20.856 43.489c.56 1.724.918 3.03 1.074 3.92.234 1.336.033 2.342-.481 3.292-1.263.118-2.56-.104-3.892-.665-.497-.213-.796-.39-.897-.533-.293-.415-.343-.927-.343-1.234 0-.467.413-.643 1.24-.53.455-1.75 1.032-2.955 1.73-3.611.697-.657 1.22-.87 1.57-.64z"/>
                <path fill="#EFAF8E" d="M20.156 50.538c0 .159-.261.932-.785 2.32l-1.637-1.76v-1.062c1.615.176 2.422.344 2.422.502z"/>
                <path fill="#FABC9C" d="M26.207 55.426c-.189-1.601-.234-3.06-.137-4.378.71-.485 1.69-1.085 2.941-1.797.135 0 .17.13.106.394-.196.166-.931.634-2.208 1.403v.844l-.702 3.534z"/>
                <path fill="#FABC9C" d="M26.849 52.153l.824-1.692c.989-.678 1.513-1.032 1.575-1.062.091-.044.091.147 0 .297-.432.39-.798.734-1.1 1.03l-.664 1.71-.635-.283z"/>
                <path fill="#FABC9C" d="M28.18 50.752c.74-.788 1.144-1.182 1.209-1.182.097 0 .097.14.097.336-.289.365-.544.853-.767 1.463.076 1.077.113 1.947.113 2.609-.242.738-.63 1.987-1.164 3.746l-1.47-2.298.651-3.255 1.33-1.419z"/>
                <path fill="#FFF" d="M17.757 51.088l-.468 1.324 2.743 2.03v-.494l-.682-1.183zM26.159 55.338l-.65 1.06 2.02 1.846.355-.549-1.725-2.357z"/>
                <path fill="#00C9C3" d="M13.411 53.57c-.69 3.96-2.088 7.72-4.19 11.28-1.02 1.349-3.137 3.937-2.586 5.17 1.088 0 .88-.063 1.829.301 4.237 2.202 6.238 1.951 9.466.922.951-1.904.398-5.603 2.54-10.604-.097-2.822-1.159-5.523-3.184-8.103h-3.457l-.418 1.034z"/>
                <path fill="#09B9B4" d="M16.057 64.31c-.78 3.104 0 6.87 2.065 6.262-.007-1.612 1.78-8.606 2.348-9.933-.097-2.822-1.069-4-2.915-3.534-.87 4.286-1.369 6.688-1.498 7.205z"/>
                <path fill="#00C9C3" d="M17.465 52.562c1.795.716 4.094 2.819 6.895 6.31l1.107-2.488 3.827 3.415c-2.445 4.046-3.8 6.194-4.066 6.444-.4.375-1.027 0-1.849 0-.547 0-2.105-2.148-4.674-6.444-1.922-4.645-2.336-7.057-1.24-7.237z"/>
                <path fill="#09ACA7" d="M10.512 58.203a233.587 233.587 0 0 1-2.395 4.423c-.46 1.366-.46 2.6 0 3.7l3.854-4.694.996-5.09-2.425 1.463"/>
                <path fill="#1C2C57" d="M21.502 46.123c.65-1.392.81-2.358.476-2.895-.5-.806-2.092-.476-2.677-.476-2.43.263-3.74.248-4.763 1.282-1.022 1.034-1.365 2.026-1.127 4.654a17.994 17.994 0 0 0-4.22 3.347c-1.216 1.71-1.216 3.7 0 5.968 1.133 1.474 3.656 2.258 6.319 0 .702-.78.315-1.735.679-3.034.174-.621.705-1.127 1.143-2.387.37-1.06.664-1.525.472-2.546-1.077-.41-1.505-.999-1.283-1.767 1.1-.215 2.026-.666 2.78-1.354.578-.457.867-1.115.867-1.974-.309-.931-.16-1.397.445-1.397.387.234.683 1.094.889 2.58z"/>
                <path fill="#005960" d="M7.375 76.786L7.162 79.4h2.72z"/>
                <path fill="#FABC9C" d="M8.568 79.372H7.29v.4c-.951.78-1.484 1.285-1.6 1.514-.115.229 0 .638.349 1.228h4.522L9.405 79.56l-.837-.188z"/>
                <path fill="#FF7900" d="M7.523 79.345c-.387-.156-1.16-.294-2.317-.415l-1.379 1.222c.314.108.424.214.328.318C3.123 82 .141 83.885 0 84.334c0 0 .558.42 1.131.359.393-.404 2.158-1.104 5.294-2.1l-.627-1.3 1.725-1.509c.386-.137.386-.284 0-.44z"/>
                <path fill="#118C8C" d="M11.043 76.78H7.41c.736 1.798 1.732 3.72 2.989 5.766 3.394 0 8.81.115 16.247.346l-7.94-6.111h-7.662z"/>
                <path fill="#127676" d="M11.197 76.78H7.409c.61 1.692 2.023 2.71 4.238 3.057 2.215.345 5.156.345 8.823 0-2.639-.363-4.701-.829-6.189-1.399-1.487-.57-2.515-1.122-3.084-1.657z"/>
                <path fill="#118C8C" d="M7.536 70.714c-.52 3.936 0 3.936 3.62 6.476 4.423 2.436 8.706 5.29 14.608 5.892 3.437-.227 3.698-2.773 2.92-4.152-.52-.92-3.551-3.217-9.095-6.892-7.118-1.188-11.136-1.63-12.053-1.324z"/>
                <g>
                    <path fill="#118C8C" d="M18.705 67.264l5.045-3.09c1.318.237 2.415.686 3.29 1.348.144 3.054-.219 6.728-1.088 11.022l-8.342-5.301 1.095-3.979z"/>
                    <path fill="#FF7900" d="M28.822 80.856c1.493.576 2.785.84 3.13.99.063.144.008.374-.166.69H27.53c.46-.689.89-1.249 1.293-1.68z"/>
                    <path fill="#005960" d="M20.47 72.662s1.588-1.487 2.203-2.374c.196.129-.12 1.197-.945 3.203l-1.258-.829z"/>
                </g>
                <path fill="#FFF" d="M7.164 69.945v.617c.863.659 1.481 1.128 1.854 1.408.773.579 1.28 1.13 2.364 1.282 1.87.26 4.522-.167 7.96-1.282l-1.507-.904-10.671-1.12z"/>
            </g>
        </g>
    </g>
</svg>
