<svg xmlns="http://www.w3.org/2000/svg" xmlns:xlink="http://www.w3.org/1999/xlink" width="79" height="96" viewBox="0 0 79 96">
    <defs>
        <path id="a" d="M.408 0l.409.645H0z"/>
        <path id="c" d="M.019 0h20.8v29.5H.018z"/>
    </defs>
    <g fill="none" fill-rule="evenodd">
        <path fill="#CDEAE6" d="M33.332 7.617l-.129 1.992h24.73l.504-1.76z"/>
        <path fill="#F6F6F6" d="M28.676.407l-.121 55.023h49.309L78.359.313z"/>
        <path fill="#FF7900" d="M32.54 12.266l.016 1.328h32.85l.336-1.173z"/>
        <path fill="#CDEAE6" d="M33.203 16.25v1.992H75.04V16.25zM32.54 20.234v1.993h41.835v-1.993zM32.54 25.547v1.992h41.835v-1.992zM32.54 30.195v1.992h41.835v-1.992zM32.54 34.844v1.992h41.835v-1.992zM32.54 40.82v1.992h41.835V40.82z"/>
        <path fill="#00BCBC" d="M30.547 8.945h45.82V2.97h-45.82z"/>
        <g>
            <g transform="translate(1.992 39.82)">
                <rect width="37.188" height="53.172" fill="#EEE" rx="4"/>
                <path fill="#FFF" d="M10.98 4.154c0 2.375.477 5.778-3.385 7.16-3.862-1.383-3.386-4.785-3.386-7.16 1.402 0 2.477-.414 3.386-1.326.908.912 1.983 1.326 3.385 1.326zm-2.076 2.57h-.985V5.657h-.65v1.067h-.984v.694h.985v1.067h.65V7.418h.984v-.694z"/>
                <path fill="#D8D8D8" d="M4.19 27.152h29.331v2.263H4.19zM4.19 32.243h29.331v2.263H4.19zM4.19 37.334h29.331v2.263H4.19zM4.19 15.273h29.331v9.051H4.19z"/>
            </g>
            <path fill="#1C2C57" d="M16.76 74.419a.408.408 0 0 1 .15-.558l2.644-1.527.408.708-2.644 1.526a.408.408 0 0 1-.558-.15z"/>
            <path fill="#FFF" d="M17.32 74.567l-.409-.707.153-.088.408.707z"/>
            <g transform="rotate(-120 31.066 30.758)">
                <mask id="b" fill="#fff">
                    <use xlink:href="#a"/>
                </mask>
                <use fill="#FBF2F2" transform="matrix(1 0 0 -1 0 .645)" xlink:href="#a"/>
                <path fill="#000" d="M.408.403l.409.242H0z" mask="url(#b)" transform="matrix(1 0 0 -1 0 1.049)"/>
            </g>
            <g>
                <path fill="#FABC9C" d="M13.85 68.41c.372 1.146.61 2.014.713 2.605.155.886.022 1.555-.32 2.186-.838.078-1.7-.07-2.584-.442-.33-.142-.528-.26-.595-.354-.195-.276-.229-.615-.229-.82 0-.31.275-.427.824-.352.302-1.162.685-1.962 1.148-2.398.464-.436.811-.577 1.043-.424z"/>
                <path fill="#EFAF8E" d="M13.385 73.092c0 .105-.174.619-.521 1.541l-1.088-1.169v-.705c1.073.117 1.609.228 1.609.333z"/>
                <path fill="#FABC9C" d="M17.403 76.338c-.125-1.063-.155-2.032-.09-2.907.47-.323 1.122-.72 1.952-1.194.09 0 .113.087.07.262-.13.11-.618.42-1.466.932v.56l-.466 2.347z"/>
                <path fill="#FABC9C" d="M17.83 74.165l.547-1.124c.656-.45 1.005-.685 1.045-.705.06-.03.06.098 0 .197-.286.26-.53.487-.73.683l-.44 1.136-.423-.187z"/>
                <path fill="#FABC9C" d="M18.713 73.234c.492-.523.76-.785.803-.785.064 0 .064.093.064.224-.191.242-.36.566-.509.97.05.716.076 1.294.076 1.734-.162.49-.42 1.32-.774 2.487l-.975-1.526.432-2.162.883-.942z"/>
                <path fill="#FFF" d="M11.792 73.457l-.31.88 1.82 1.348v-.328l-.452-.786zM17.371 76.28l-.43.704 1.34 1.226.236-.365-1.146-1.566z"/>
                <path fill="#00C9C3" d="M8.906 75.106c-.459 2.63-1.387 5.126-2.783 7.49-.677.896-2.083 2.615-1.717 3.433.723 0 .584-.041 1.215.2 2.813 1.463 4.142 1.296 6.286.612.631-1.264.264-3.72 1.686-7.04-.064-1.875-.769-3.669-2.114-5.382H9.184l-.278.687z"/>
                <path fill="#09B9B4" d="M10.663 82.238c-.518 2.06 0 4.562 1.371 4.158-.004-1.07 1.182-5.715 1.56-6.596-.065-1.874-.71-2.656-1.936-2.347-.578 2.846-.91 4.441-.995 4.785z"/>
                <path fill="#00C9C3" d="M11.598 74.436c1.192.475 2.718 1.872 4.579 4.19l.735-1.652 2.54 2.268c-1.622 2.687-2.522 4.114-2.7 4.28-.265.248-.681 0-1.227 0-.363 0-1.398-1.427-3.103-4.28-1.277-3.084-1.552-4.686-.824-4.806z"/>
                <path fill="#09ACA7" d="M6.98 78.182a155.117 155.117 0 0 1-1.59 2.937c-.305.908-.305 1.727 0 2.458l2.56-3.118.66-3.38L7 78.05"/>
                <path fill="#1C2C57" d="M14.279 70.16c.432-.924.537-1.565.316-1.922-.332-.535-1.39-.317-1.778-.317-1.614.175-2.483.166-3.163.852-.679.687-.906 1.345-.748 3.09a11.949 11.949 0 0 0-2.802 2.223c-.808 1.136-.808 2.457 0 3.964.752.978 2.427 1.499 4.195 0 .467-.52.21-1.153.451-2.016.116-.412.468-.748.76-1.585.245-.703.44-1.012.313-1.69-.715-.272-1-.664-.852-1.174.73-.142 1.345-.442 1.846-.899.384-.303.576-.74.576-1.31-.205-.62-.107-.928.295-.928.257.155.454.726.59 1.713z"/>
                <path fill="#005960" d="M4.898 90.522l-.142 1.737h1.806z"/>
                <path fill="#FABC9C" d="M5.69 92.24H4.84v.265c-.632.519-.986.854-1.062 1.006-.077.152 0 .424.231.816h3.003l-.768-1.963-.555-.124z"/>
                <path fill="#FF7900" d="M4.995 92.222c-.256-.104-.77-.195-1.538-.276l-.915.812c.208.071.28.142.217.211C2.074 93.985.094 95.237 0 95.535c0 0 .37.278.751.238.261-.268 1.433-.733 3.516-1.394l-.417-.863 1.145-1.002c.257-.092.257-.19 0-.292z"/>
                <path fill="#118C8C" d="M7.333 90.519H4.92c.489 1.193 1.15 2.47 1.985 3.828 2.254 0 5.85.077 10.789.23l-5.272-4.058H7.333z"/>
                <path fill="#127676" d="M7.435 90.519H4.92c.405 1.123 1.343 1.8 2.814 2.03 1.471.229 3.424.229 5.86 0-1.753-.241-3.123-.55-4.11-.93-.988-.378-1.67-.745-2.049-1.1z"/>
                <path fill="#118C8C" d="M5.004 86.49c-.344 2.614 0 2.614 2.404 4.3 2.937 1.619 5.781 3.513 9.701 3.914 2.282-.151 2.456-1.842 1.939-2.758-.345-.61-2.358-2.136-6.04-4.577-4.726-.788-7.394-1.082-8.004-.879z"/>
                <g>
                    <path fill="#118C8C" d="M12.422 84.2l3.35-2.053c.875.158 1.603.456 2.185.895.095 2.029-.146 4.469-.724 7.32l-5.539-3.52.728-2.642z"/>
                    <path fill="#FF7900" d="M19.14 93.225c.991.383 1.849.558 2.078.658.042.096.005.248-.11.457h-2.827c.305-.457.591-.828.859-1.115z"/>
                    <path fill="#005960" d="M13.593 87.784s1.055-.988 1.463-1.577c.13.086-.079.795-.627 2.128l-.836-.55z"/>
                </g>
                <path fill="#FFF" d="M4.757 85.98v.41c.573.437.984.748 1.232.934.513.385.85.751 1.57.852 1.24.173 3.002-.111 5.285-.852l-1-.6-7.087-.744z"/>
            </g>
        </g>
        <g>
            <path fill="#00756F" d="M36.692 81.555c0 7.024 5.697 12.718 12.726 12.718 7.028 0 12.726-5.694 12.726-12.718 0-7.025-5.698-12.72-12.726-12.72-7.029 0-12.726 5.695-12.726 12.72"/>
            <path fill="#005960" d="M25.178 81.555c0 7.024 5.697 12.718 12.726 12.718 7.028 0 12.726-5.694 12.726-12.718 0-7.025-5.698-12.72-12.726-12.72-7.029 0-12.726 5.695-12.726 12.72"/>
            <path fill="#005960" d="M42.288 47.79h21.921a3.24 3.24 0 0 1 3.227 2.995c.018.233.006-1.484.01 26.53H48.173a2.987 2.987 0 0 1-2.982-2.99v1.85H39.42V50.668a2.882 2.882 0 0 1 2.869-2.878"/>
            <path fill="#00756F" d="M42.6 47.79v.005c1.492.09 2.684 1.347 2.684 2.87l-.003 5.399v18.26c0 1.099.587 2.058 1.463 2.578.442.262.957.413 1.507.413h19.195v-26.28a3.232 3.232 0 0 0-3.224-3.246H42.6z"/>
            <g transform="matrix(-1 0 0 1 67.446 47.79)">
                <mask id="d" fill="#fff">
                    <use xlink:href="#c"/>
                </mask>
                <path fill="#00756F" d="M18.57 26.281V5.392a2.397 2.397 0 0 0-2.395-2.399H4.22a.574.574 0 0 1-.542-.755A3.24 3.24 0 0 1 6.757 0H3.258A3.24 3.24 0 0 0 .03 2.993C.006 3.276.027 2.721.02 29.5h19.285c.552 0 1.07-.15 1.513-.413a2.883 2.883 0 0 1-2.247-2.805" mask="url(#d)"/>
            </g>
            <path fill="#71D8B8" d="M53.261 52.634a2.392 2.392 0 0 0-2.39 2.394v19.419a2.875 2.875 0 0 1-2.514 2.846v.022h18.828v-.002l.085.002h.826a2.085 2.085 0 0 0 2.077-2.08V52.633H53.261z"/>
            <path fill="#EEE" d="M72.678 52.634h-.006 2.761c1.113 0 2.094.526 2.673 1.326.014.018.026.037.039.056l.045.066c.296.454.467.988.467 1.559v29.401c0 .417-.09.815-.255 1.177-.378.834-1.146 1.475-2.09 1.728a3.459 3.459 0 0 1-.897.118H59.46c-1.64 0-2.969-1.24-2.969-2.769V60.298l.003-5c0-1.41-1.192-2.575-2.684-2.658v-.006h18.867z"/>
            <path fill="#FAB08A" d="M25.177 83.22l-.15 1.034c.279.223.645.237.937.037l.052-.037.222-1.034h-1.061z"/>
            <path fill="#005960" d="M32.928 60.442c-.875 2.893-3.811 7.334-3.811 7.334l2.319-.951 1.639-3.794s.727-5.481-.147-2.589"/>
            <path fill="#1C2C57" d="M26.837 72.026l-1.81 11.194h1.61s3.615-10.072 3.995-13.033c0-1.678-3.656 0-3.656 0l-.139 1.839z"/>
            <path fill="#F79C82" d="M32.904 55.952l.575 1.528 1.243-.925-.84-1.8z"/>
            <path fill="#FAB08A" d="M32.32 56.39c-.199.037-.388.046-.5-.013-.744-.727-.563-3.154-.563-3.154l.831-.589 1.309.492.38 1.519c.1.406-.011.84-.302 1.168a2.4 2.4 0 0 1-1.155.577"/>
            <path fill="#1C2C57" d="M33.166 53.512a.53.53 0 0 0-.66-.257c-.186.07-.41.144-.631.19-.528.108-1.512.098-1.68-.69-.167-.787.876-.72.876-.72l1.387.094c.41.028.819-.054 1.196-.215.333-.143.63.16.701.364.156.445-.006 1.204-.144 1.691a2.441 2.441 0 0 1-.382.785l-.663-1.242z"/>
            <path fill="#FAB08A" d="M33.841 53.885c-.154-.093-.394-.016-.535.172-.141.187-.13.414.024.506.155.093.394.016.536-.171.14-.188.13-.415-.025-.507"/>
            <path fill="#1C2C57" d="M25.023 84.17s-.005 1.03-2.058 1.648c-.421.127-.284.252-.363.43h2.362l.925-1.047.288.249.667-.66s-.116-.956-.624-.964c-.419.144-1.197.344-1.197.344"/>
            <path fill="#FAB08A" d="M30.935 82.96l.377.832a.936.936 0 0 0 .944-.274l.042-.047-.305-.857-1.058.345z"/>
            <path fill="#006769" d="M32.977 57.288s-.168-.256 1.327-1.02c2.254 2.227 2.994 10.75 2.994 10.75h-5.893c-.2-4.864 1.572-9.73 1.572-9.73"/>
            <path fill="#FAB08A" d="M27.306 66.667a.265.265 0 0 1 .124-.29l.98-.568c.241-.14.527-.186.8-.13l1.062.043.139.168.22.938c-.213-.051-.338-.084-.338-.084l-.674.019s-1.27 1.18-1.9.154c-.027 1.093-.347 1.009-.347 1.009l-.066-1.26z"/>
            <path fill="#004060" d="M37.34 66.867l.088.72.003.03c.158 1.376-.76 2.65-2.11 3.024 0 0-2.68.876-6.06 1.058 2.219 2.813 2.833 10.706 2.833 10.706l-1.43.512-5.524-12.982a1.432 1.432 0 0 1 1.038-1.959l5.276-1.109h5.885z"/>
            <path fill="#006769" d="M33.6 59.939s1.083.993 1.72 2.012a.76.76 0 0 1-.068.902c-1.211 1.397-5.53 2.74-5.53 2.74l.28 1.577s6.128-1.207 8.299-3.387c2.226-2.237-3.531-6.909-3.531-6.909"/>
            <path fill="#118C8C" d="M25.045 68.381l-1.837-6.418.337-.092 1.752 6.12 5.275-.895.06.337z"/>
            <path fill="#1C2C57" d="M31.3 83.556s.081 1.038-1.972 1.656c-.42.127-.284.253-.363.43h2.362l.925-1.047.288.249.667-.66s-.311-.955-.82-.964c-.418.144-1.086.336-1.086.336"/>
            <path fill="#00756F" d="M38.995 84.652c.362-.079.638-.236.828-.472a1.3 1.3 0 0 0 .285-.842c0-.324-.09-.587-.271-.789-.182-.202-.462-.396-.842-.583v2.686zm-1.97-6.11c0 .306.084.556.252.753.167.197.446.394.835.59v-2.567c-.335.059-.6.197-.794.413a1.168 1.168 0 0 0-.292.811zm4.645 4.782c0 .836-.247 1.517-.74 2.044-.494.526-1.139.843-1.935.951v1.314h-.883v-1.299c-.751-.05-1.394-.27-1.928-.664-.535-.393-.92-.93-1.155-1.609l1.345-.84c.317.865.896 1.347 1.738 1.445v-3.069a12.036 12.036 0 0 1-.991-.45 4.741 4.741 0 0 1-.808-.553 2.194 2.194 0 0 1-.639-.864c-.14-.339-.21-.735-.21-1.188 0-.826.253-1.495.76-2.007.507-.51 1.137-.806 1.888-.885v-1.298h.883v1.313c1.213.177 2.055.851 2.526 2.021l-1.318.827c-.235-.64-.638-1.028-1.208-1.166v2.922c.29.118.509.212.658.28.15.07.349.173.598.31.249.138.441.276.577.414.136.137.278.305.428.501.15.197.255.426.319.686.063.261.095.549.095.864z"/>
        </g>
        <g>
            <path fill="#006769" d="M44.775 45.525l.677 1.952c.056.273.066.6-.193.762 0 0-.17.109-.355.178-.123-.029-.904-2.665-.904-2.665l.008-.016c.31-.44.767-.21.767-.21"/>
            <path fill="#FAB08A" d="M45.858 45.3l-1.116.738c-.03.143.215.285.319.378l.423-.213.374-.165V45.3z"/>
            <path fill="#1C2C57" d="M51.897 33.66s-.796.837-1.001 2.31c-.137.98.24 2.532.28 3.751.038 1.114-.478 2-1.383 2.68l-4.309 3.054.289.748s5.897-.862 7.445-3.438c1.548-2.577 1.915-8.408 1.915-8.408l-3.236-.697z"/>
            <path fill="#FAB08A" d="M49.187 29.97l-2.22 5.049s-.912.108-1.307.464c-.207.187-.197.559-.141.872a.304.304 0 0 0 .5.18c.245-.216.56-.459.766-.494.547-.093.711-.488.711-.488l3.184-5.087-1.493-.496zM60.15 20.423l1.006-.954-.78-4.713-1.21-.686s.132-.26.431-.15c.298.111.551.046.551.046s.227-.311-.203-.521c-.24-.18-.402-.001-1.101-.031 0-.12.921-.403.921-.403.288-.102 1.02.528 1.02.528a.6.6 0 0 1 .094.253l.116.874s1.56 4.744 1.56 5.25c0 .507-.874 1.2-.874 1.2l-1.53-.693z"/>
            <path fill="#004060" d="M54.081 34.342s-.731.824-.293 2.741c.28 1.224 1.51 2.764 2.337 3.824.592.76.604 1.717.426 2.643-.676 3.52.406 7.818.406 7.818h.878s1.316-6.298 1.706-10.725c.352-3.992-1.473-6.931-1.511-6.983l-3.949.682zM58.184 13l-.667.21.507.528 2.116.33c.155.016.254-.094.298-.33.045-.236-.008-.376-.156-.422L58.184 13z"/>
            <path fill="#006769" d="M51.809 24.383c-1.541 1.079-3.356 6.263-3.356 6.263l1.354.723 2.202-2.878s.215 3.332-.312 5.889c.24.959 1.382.85 3.236.516C56.785 34.56 58 33.8 58 33.8s.08-4.624.32-7.075c.239-2.452-.234-2.714.414-2.633 1.448-.783 3.82-3.305 3.82-3.305l-2.203-.409-4.745 2.649s-2.32.582-3.797 1.356"/>
            <path fill="#1C2C57" d="M53.158 18.165c-2.613 0-1.501 5.017-1.501 5.017s.465 3.254 1.501 4.56c.897 1.132 2.672.792 3.512.248a3.22 3.22 0 0 1 1.357-.5c.712-.086 1.559-.4 1.559-1.685 0-1.21-1.443-2.144-2.393-2.812a3.132 3.132 0 0 1-1.231-1.82c-.305-1.239-1.046-3.008-2.804-3.008"/>
            <path fill="#FAB08A" d="M54.762 18.903l1.045.955a1.6 1.6 0 0 1 .465 1.52l-.06.574-1.45-3.05z"/>
            <path fill="#006769" d="M56.693 52.108l2.091-.002c.278.03.588.113.64.366 0 0 .037.167.03.334-.074.091-2.846-.012-2.846-.012l-.012-.01c-.294-.371.097-.676.097-.676"/>
            <path fill="#004060" d="M58.84 52.787l-2.223-.015.02.143h2.207z"/>
            <path fill="#FAB08A" d="M56.957 51.368l.227.672c.15.082.392.14.546.066v-.738h-.773zM58.844 13.943l.918.481c.012-.006.619.409.631.403.143-.07-.201-.594-.065-.621-.083-.1-.857-.372-1.018-.436-.324-.129-.466.173-.466.173z"/>
        </g>
    </g>
</svg>
