<svg xmlns="http://www.w3.org/2000/svg" xmlns:xlink="http://www.w3.org/1999/xlink" width="243" height="150" viewBox="0 0 243 150">
    <defs>
        <filter id="a" width="182.8%" height="180%" x="-41.4%" y="-40%" filterUnits="objectBoundingBox">
            <feOffset dy="2" in="SourceAlpha" result="shadowOffsetOuter1"/>
            <feGaussianBlur in="shadowOffsetOuter1" result="shadowBlurOuter1" stdDeviation="2"/>
            <feColorMatrix in="shadowBlurOuter1" result="shadowMatrixOuter1" values="0 0 0 0 0.337026998 0 0 0 0 0.337026998 0 0 0 0 0.337026998 0 0 0 0.5 0"/>
            <feMerge>
                <feMergeNode in="shadowMatrixOuter1"/>
                <feMergeNode in="SourceGraphic"/>
            </feMerge>
        </filter>
        <ellipse id="b" cx="14.494" cy="14.195" rx="14.494" ry="14.195"/>
        <path id="d" d="M0 0h20.546v26.363H0z"/>
    </defs>
    <g fill="none" fill-rule="evenodd">
        <path fill="#00A7A7" d="M0 0h243v150H0z"/>
        <path fill="#055E5E" d="M21.416 131.727c-13.254 3.08-17.116 5.875-11.586 8.385 8.296 3.765 4.074 6.815 52.404 6.888 48.33.073 56.043-3 87.414-3 48.192 0 71.824 2.956 82.651 0 18.423-5.03 12.076-14.795-36.527-17.357-32.402-1.708-90.52-.013-174.356 5.084z"/>
        <g fill="#FFA32C">
            <path stroke="#FFA32C" stroke-width=".2" d="M171.197 105.984c.86 3.226 1.39 5.469 1.59 6.728.516 3.251.348 5.455.025 5.983-.512.834.152.99 1.992.467-.242-2.933-.49-5.129-.748-6.587-.258-1.457-.726-3.326-1.405-5.605l-1.454-.986z"/>
            <path d="M172.415 118.418c-2.028.375-3.529 1.589-4.5 3.641-.24.505-.502 1.297-.226 2.308.277 1.012.98-1.784 2.232-1.59.24.037-.138.93-.074 1.592.122 1.257-.167 1.867.571 1.866.347-.001.437-1.42 1.286-2.716.55-.837 1.778-2.443 3.686-4.82l-2.975-.28z"/>
        </g>
        <g fill="#FFA32C">
            <path stroke="#FFA32C" stroke-width=".2" d="M181.382 110.226c.86 4.733 1.39 7.73 1.59 8.988.516 3.251.348 5.455.024 5.983-.512.834.152.99 1.992.467-.241-2.933-.49-5.129-.748-6.586-.257-1.458-.726-4.08-1.405-7.866l-1.453-.986z"/>
            <path d="M182.6 124.92c-1.343 1.557-2.32 2.583-2.932 3.08-2.478 2.012-3.975 2.581-3.73 2.56 1.002-.086 1.3.231 2.116 0 .663-.187 1.614-1.281 2.052-1.281.248 0-1.99 1.313-2.434 1.846-.33.398 2.332.385 3.071.383.347 0 1.408.101 2.257-1.194.3-.458.106-1.076.591-2.054.268-.539.93-1.558 1.984-3.058l-2.975-.281z"/>
        </g>
        <path fill="#008181" d="M158.164 55.368c11.054-6.104 21.36-4.684 29.105-8.26 7.745-3.575 12.18-12.902 14.036-12.405 1.856.498-1.274 7.058-.633 7.23.64.17 1.221-3.212 3.658-.79 2.438 2.423.801 12.855-3.258 21.508-6.115 13.039-10.945 15.237-22.163 21.492-11.218 6.256-19.399 6.32-25.408 5.034-6.01-1.286-15.633-11.708-13.74-18.774 1.893-7.066 7.35-8.93 18.403-15.035z"/>
        <path fill="#00BCBC" d="M148.164 81.545c18.137 4.86 36.77-5.864 41.617-23.954 2.424-9.044.942-18.217-3.412-25.736-.613-1.06 1.898-3.217.353-5.018-1.545-1.802-3.712.19-4.452-.636a33.906 33.906 0 0 0-16.554-10.164 34.234 34.234 0 0 0-6.916-1.115c-.73-.041-.13-1.497-1.923-1.253-1.793.243-1.982 1.245-2.836 1.317-13.867 1.166-26.142 10.822-29.943 25.005-4.847 18.09 5.928 36.694 24.066 41.554zM197.324 107.099l23.751-15.918c-.22-.578-.93-1.127-2.129-1.646-1.2-.52-2.692-.52-4.479 0 .2-2.172-.217-3.615-1.252-4.33-1.035-.715-2.71-.848-5.028-.399-.185-1.095-.567-1.976-1.145-2.643-.578-.666-1.381-.883-2.41-.649l-11.271 24.03 3.963 1.555z"/>
        <path fill="#00BCBC" d="M123.863 43c-4.55 14.049-3.538 27.74 3.038 41.073 9.863 20 37.688 29.893 48.092 31.747 6.935 1.237 17.815-4.318 32.64-16.665-8.017-1.266-13.265-4.786-15.746-10.558-2.48-5.773-4.376-18.875-5.685-39.306L123.863 43z"/>
        <path fill="#E6F8F8" d="M142.581 29.004c.41-4.395-.317-6.842-2.182-7.342-2.797-.75-11.608 6.675-15.173 15.118-3.565 8.443-1.814 15.453 1.763 20.4 3.576 4.95 20.66 15.054 29.33 11.693 4.242-1.645 10.935-3.07 13.88-8.265 3.073-5.422 4.285-9.738 3.513-15.114-.771-5.376-3.62-10.827-5.943-13.46-2.323-2.632-5.376-5.22-12.335-6.343-4.639-.749-8.923.356-12.853 3.313z"/>
        <path fill="#008181" d="M134.151 29.52c1.19-.779 2.094-1 2.714-.66.62.34 1.013 2.158 1.177 5.457-.518-2.168-1.066-3.407-1.643-3.718-.576-.312-1.315-.263-2.216.147l-.032-1.225zM153.846 36.632c1.483.997 2.512 2.481 3.088 4.452l-1.48 2.039c-.461-2.22-1.184-3.687-2.169-4.399-.985-.711-2.659-.73-5.021-.054 2.238-2.356 4.098-3.035 5.582-2.038z"/>
        <path fill="#FFA32C" d="M133.9 35.617c1.568-1.144 2.724-1.505 3.467-1.083.585.332 3.694 1.808 4.912 4.08 1.107 2.064 1.625 5.288 1.185 6.048-.44.759-2.391 1.876-4.295 2.996-1.13.665-3.572 1.532-4.177 1.37-.274-.073-1.503-.891-2.56-2.616-.331-.542-.686-1.424-1.063-2.646 1.605 1.052 3.203 1.35 4.793.896 1.59-.455 2.311-1.489 2.164-3.102l-4.427-5.943z"/>
        <path fill="#E69021" d="M134.852 36c.414-.538 1.135-.538 2.165 0 .509.265 3.614 2.677 3.983 4 .34 1.222.7 2.77.322 3.972-.549 1.749-4.66 3.726-5.68 3.726-.624 0-3.16-1.913-3.16-2.698 0-1.197 1.331 1.694 4.535 1 2.137-.462 2.856-1.462 2.158-3l-4.323-7z"/>
        <path fill="#FFA32C" d="M175.879 54.939c11.053-6.104 21.36-4.685 29.105-8.26 7.745-3.576 12.18-12.903 14.036-12.405 1.856.497-1.274 7.057-.634 7.229.64.171 1.222-3.212 3.66-.79 2.436 2.423.8 12.855-3.259 21.508-6.115 13.039-10.945 15.238-22.163 21.493-11.218 6.255-19.4 6.32-25.409 5.034-6.009-1.287-15.633-11.708-13.74-18.775 1.894-7.066 7.35-8.93 18.404-15.034z"/>
        <g transform="translate(49)">
            <path fill="#C24D3C" d="M.51 107.5L21.215 4.042A5 5 0 0 1 28.74.766L89.204 38c2.31 1.696 2.926 3.754 1.846 6.176s-3.04 3.039-5.882 1.85l-51.67-30.85a3 3 0 0 0-4.48 1.987l-18.647 93.063L.51 107.5z"/>
            <path fill="#C75F50" d="M.51 107.5L21.215 4.042A5 5 0 0 1 28.74.766L89.204 38a5.582 5.582 0 0 1 0 4c-.494 1.333-1.447 2.059-2.859 2.176l-55.2-33.944a3 3 0 0 0-4.508 1.938L6.151 109.53.511 107.5z"/>
            <path fill="#ECDEDE" d="M29.356 2.63c.256-.28-.081-.467-.974-.912-1.54-.77-2.969-1.264-4.465 0-1.197 1.01-1.701 3.315-2.292 5.14-.278.86-3.308 16.57-2.598 16.57.514 0 1.808-7.129 3.303-12.98.935-3.661 2.275-6.95 2.543-7.289.299-.378 1.022-.963 1.825-.797.957.197 2.402.547 2.658.268z"/>
            <circle cx="32" cy="3.945" r="1" fill="#ECDEDE"/>
        </g>
        <g>
            <g transform="translate(8 33)">
                <path fill="#FFF" d="M8 3h91l-8.415 98.51a6 6 0 0 1-5.979 5.49H21.557a6 6 0 0 1-5.982-5.54L8 3z" opacity=".83"/>
                <path fill="#1174B6" d="M18.615 38.073h70.058L84.457 92.52a6 6 0 0 1-5.982 5.537H28.153a6 6 0 0 1-5.987-5.61l-3.551-54.374z"/>
                <path fill="#2386C8" d="M75 43l9.588.297-3.91 49.858a2.955 2.955 0 0 1-2.946 2.724A2.732 2.732 0 0 1 75 93.146V43z"/>
                <rect width="107" height="8" fill="#004472" rx="4"/>
                <g filter="url(#a)" transform="translate(39 36)">
                    <g transform="translate(0 .121)">
                        <mask id="c" fill="#fff">
                            <use xlink:href="#b"/>
                        </mask>
                        <use fill="#005150" xlink:href="#b"/>
                        <g mask="url(#c)">
                            <path fill="#008181" d="M5.903 18.952l25.554 25.554c-7.062 6.653-18.2 6.507-25.13-.423-6.931-6.93-7.077-18.069-.424-25.131z"/>
                            <path fill="#FF9445" d="M14.432 25.641l14.063-8.12c2.056 3.812.685 8.611-3.132 10.815-3.816 2.203-8.659.991-10.931-2.695z"/>
                            <g transform="translate(5.575 7.176)">
                                <mask id="e" fill="#fff">
                                    <use xlink:href="#d"/>
                                </mask>
                                <path fill="#00BCBC" d="M17.882 24.959V8.576c0-.317-.018-.63-.052-.937a10.307 10.307 0 0 1 .3-3.789c.062-.23.118-.469.17-.716.137-.637-.553-1.131-1.126-.805-.257.147-.524.289-.79.415a.886.886 0 0 1-1.007-.174A8.768 8.768 0 0 0 9.158 0 8.77 8.77 0 0 0 2.94 2.57a.886.886 0 0 1-1.007.174 11.831 11.831 0 0 1-.789-.415c-.572-.326-1.263.168-1.127.805.053.246.109.483.169.711.327 1.237.443 2.518.3 3.788-.034.31-.052.624-.052.943v4.245c0 5.397 3.286 10.05 7.992 12.138H2.17h18.377-2.664z" mask="url(#e)"/>
                            </g>
                            <path fill="#FFF" d="M18.322 11.387a3.816 3.816 0 0 0-3.59 2.486 3.816 3.816 0 0 0-3.588-2.486c-2.108 0-3.817 1.689-3.817 3.771 0 4.293.419 7.773 7.406 7.773 6.599 0 7.406-3.48 7.406-7.773 0-2.082-1.709-3.77-3.817-3.77" opacity=".901"/>
                        </g>
                    </g>
                    <path fill="#FFA32C" d="M15.54 19.952l.848-1.537a.45.45 0 0 0-.068-.527l-1.248-1.293a.443.443 0 0 0-.634 0l-1.248 1.293a.45.45 0 0 0-.068.527l.847 1.537c.337.611 1.235.611 1.571 0"/>
                    <g fill="#007F7E" transform="translate(11 15)">
                        <circle cx="6.919" cy="1" r="1"/>
                        <circle cx="1" cy="1" r="1"/>
                    </g>
                </g>
                <path fill="#FFF" fill-opacity=".704" d="M16.297 12.778l11.163-.284-8.004 49.723z"/>
            </g>
        </g>
    </g>
</svg>
