<?xml version="1.0" encoding="UTF-8"?>
<svg width="269px" height="150px" viewBox="0 0 269 150" version="1.1" xmlns="http://www.w3.org/2000/svg" xmlns:xlink="http://www.w3.org/1999/xlink">
    <!-- Generator: Sketch 53.2 (72643) - https://sketchapp.com -->
    <title>Bucket/Assets</title>
    <desc>Created with Sketch.</desc>
    <defs>
        <filter x="-69.2%" y="-67.9%" width="242.1%" height="237.6%" filterUnits="objectBoundingBox" id="filter-1">
            <feOffset dx="0" dy="2" in="SourceAlpha" result="shadowOffsetOuter1"></feOffset>
            <feGaussianBlur stdDeviation="2" in="shadowOffsetOuter1" result="shadowBlurOuter1"></feGaussianBlur>
            <feColorMatrix values="0 0 0 0 0.337026998   0 0 0 0 0.337026998   0 0 0 0 0.337026998  0 0 0 0.5 0" type="matrix" in="shadowBlurOuter1" result="shadowMatrixOuter1"></feColorMatrix>
            <feMerge>
                <feMergeNode in="shadowMatrixOuter1"></feMergeNode>
                <feMergeNode in="SourceGraphic"></feMergeNode>
            </feMerge>
        </filter>
        <ellipse id="path-2" cx="8.67159498" cy="8.36502532" rx="8.67159498" ry="8.36502532"></ellipse>
        <polygon id="path-4" points="0 0 12.2927006 0 12.2927006 15.535047 0 15.535047"></polygon>
        <filter x="-69.2%" y="-67.9%" width="242.1%" height="237.6%" filterUnits="objectBoundingBox" id="filter-6">
            <feOffset dx="0" dy="2" in="SourceAlpha" result="shadowOffsetOuter1"></feOffset>
            <feGaussianBlur stdDeviation="2" in="shadowOffsetOuter1" result="shadowBlurOuter1"></feGaussianBlur>
            <feColorMatrix values="0 0 0 0 0.337026998   0 0 0 0 0.337026998   0 0 0 0 0.337026998  0 0 0 0.5 0" type="matrix" in="shadowBlurOuter1" result="shadowMatrixOuter1"></feColorMatrix>
            <feMerge>
                <feMergeNode in="shadowMatrixOuter1"></feMergeNode>
                <feMergeNode in="SourceGraphic"></feMergeNode>
            </feMerge>
        </filter>
        <ellipse id="path-7" cx="8.67159498" cy="8.36502532" rx="8.67159498" ry="8.36502532"></ellipse>
        <polygon id="path-9" points="0 0 12.2927006 0 12.2927006 15.535047 0 15.535047"></polygon>
        <filter x="-69.2%" y="-67.9%" width="242.1%" height="237.6%" filterUnits="objectBoundingBox" id="filter-11">
            <feOffset dx="0" dy="2" in="SourceAlpha" result="shadowOffsetOuter1"></feOffset>
            <feGaussianBlur stdDeviation="2" in="shadowOffsetOuter1" result="shadowBlurOuter1"></feGaussianBlur>
            <feColorMatrix values="0 0 0 0 0.337026998   0 0 0 0 0.337026998   0 0 0 0 0.337026998  0 0 0 0.5 0" type="matrix" in="shadowBlurOuter1" result="shadowMatrixOuter1"></feColorMatrix>
            <feMerge>
                <feMergeNode in="shadowMatrixOuter1"></feMergeNode>
                <feMergeNode in="SourceGraphic"></feMergeNode>
            </feMerge>
        </filter>
        <ellipse id="path-12" cx="8.67159498" cy="8.36502532" rx="8.67159498" ry="8.36502532"></ellipse>
        <polygon id="path-14" points="0 0 12.2927006 0 12.2927006 15.535047 0 15.535047"></polygon>
    </defs>
    <g id="Bucket/Assets" stroke="none" stroke-width="1" fill="none" fill-rule="evenodd">
        <rect fill="#00A7A7" x="0" y="0" width="269" height="150"></rect>
        <path d="M22.421662,134.726356 C8.79560668,137.806148 4.82530654,140.601098 10.5107616,143.111206 C19.0389443,146.876367 14.6988126,149.925505 64.3831183,149.998712 C114.067424,150.07192 121.997022,146.998896 154.246767,146.998896 C203.789074,146.998896 228.084182,149.954535 239.214725,146.998896 C258.153938,141.96972 251.628469,132.204348 201.663363,129.642852 C168.353292,127.935187 108.606059,129.629689 22.421662,134.726356 Z" id="Path-40" fill="#055E5E"></path>
        <g id="Group-3" transform="translate(8.000000, 78.000000)">
            <g id="Bucket/Income/70%">
                <g id="Group-2" transform="translate(2.991453, 0.000000)">
                    <path d="M4.78632479,1.76785714 L59.2307692,1.76785714 L54.3907434,57.5720191 C54.1217763,60.6731352 51.5259426,63.0535714 48.4131844,63.0535714 L15.1227888,63.0535714 C11.9902854,63.0535714 9.38493438,60.6437809 9.14100751,57.5207892 L4.78632479,1.76785714 Z" id="Path-4" fill="#FFFFFF" opacity="0.83"></path>
                    <path d="M11.1371756,22.4359997 L53.0520213,22.4359997 L50.7082529,52.2534853 C50.4628726,55.3752202 47.8580672,57.7833126 44.7267032,57.7833126 L19.0960874,57.7833126 C15.9364612,57.7833126 13.318257,55.3329482 13.1092313,52.1802436 L11.1371756,22.4359997 Z" id="Path-4" fill="#1174B6"></path>
                    <path d="M44.8717949,25.3392857 L50.6084624,25.5142689 L48.2708941,54.8703272 C48.197624,55.7904808 47.4295331,56.4998413 46.5064669,56.4998413 L46.5064669,56.4998413 C45.6036625,56.4998413 44.8717949,55.7679737 44.8717949,54.8651693 L44.8717949,25.3392857 Z" id="Path-4" fill="#2386C8"></path>
                    <rect id="Rectangle" fill="#004472" x="0" y="0" width="64.017094" height="4.71428571" rx="2.35714286"></rect>
                    <g id="Group-5-Copy" filter="url(#filter-1)" transform="translate(23.333333, 21.214286)">
                        <g id="Group-12">
                            <g id="Group-4">
                                <g id="Group-9" transform="translate(0.000000, 0.071509)">
                                    <mask id="mask-3" fill="white">
                                        <use xlink:href="#path-2"></use>
                                    </mask>
                                    <use id="Mask" fill="#005150" xlink:href="#path-2"></use>
                                    <g mask="url(#mask-3)" id="Group-8">
                                        <g transform="translate(-4.002275, 4.228474)">
                                            <g>
                                                <path d="M0.671916828,12.9611931 L22.293516,12.9611931 C22.120248,18.6760439 17.3464085,23.2566089 11.4827164,23.2566089 C5.61902433,23.2566089 0.845184892,18.6760439 0.671916828,12.9611931 Z" id="Combined-Shape-Copy-2" fill="#008181" transform="translate(11.482716, 18.108901) rotate(-315.000000) translate(-11.482716, -18.108901) "></path>
                                                <g id="Group-7" transform="translate(7.337503, 0.000000)">
                                                    <g id="Group-6">
                                                        <path d="M5.81484926,8.18117861 L15.5306153,8.18117861 C15.4557181,10.7319524 13.3094389,12.7773464 10.6727323,12.7773464 C8.03602565,12.7773464 5.88974648,10.7319524 5.81484926,8.18117861 Z" id="Combined-Shape-Copy" fill="#FF9445" transform="translate(10.672732, 10.479262) rotate(-30.000000) translate(-10.672732, -10.479262) "></path>
                                                        <g id="Group">
                                                            <g id="Group-3">
                                                                <mask id="mask-5" fill="white">
                                                                    <use xlink:href="#path-4"></use>
                                                                </mask>
                                                                <g id="Clip-2"></g>
                                                                <path d="M10.6985055,14.7077368 L10.6985055,5.05357578 C10.6985055,4.86705614 10.6879009,4.68282936 10.6673094,4.50159328 C10.5823694,3.75282308 10.651248,2.99787211 10.8474851,2.26903988 C10.8839321,2.13336204 10.9174963,1.99260002 10.9491043,1.84665413 C11.0305437,1.47132198 10.6175809,1.18012803 10.2749381,1.37262906 C10.1213254,1.45906013 9.96153521,1.54269988 9.80184801,1.61726787 C9.59871272,1.71207288 9.35768904,1.67030285 9.19964917,1.51448767 C8.25223358,0.580593482 6.93468552,0 5.47917431,0 C4.0236631,0 2.70642391,0.580493792 1.75890537,1.51408891 C1.60096845,1.66990409 1.35973886,1.71167412 1.15660357,1.61676942 C0.9973282,1.54240082 0.837949877,1.45886075 0.684543093,1.37262906 C0.342003247,1.18012803 -0.070959578,1.47122229 0.0103769047,1.84655444 C0.041881922,1.99150343 0.0751372181,2.13126855 0.111275326,2.26604918 C0.307203588,2.99488142 0.376596992,3.7497327 0.291142206,4.49830351 C0.270344777,4.68063619 0.259637189,4.86585986 0.259637189,5.05357578 L0.259637189,7.55539138 C0.259637189,10.7353968 2.22550909,13.4776642 5.04139871,14.7077368 L1.29765544,14.7077368 L12.2927006,14.7077368 L10.6985055,14.7077368 Z" id="Fill-1" fill="#00BCBC" mask="url(#mask-5)"></path>
                                                            </g>
                                                            <path d="M7.62671045,2.48193059 C6.63890167,2.48193059 5.79766365,3.09229322 5.47930452,3.9465405 C5.16094539,3.09229322 4.31981031,2.48193059 3.33200152,2.48193059 C2.07071061,2.48193059 1.04821478,3.4768998 1.04821478,4.70413534 C1.04821478,7.23362472 1.29905254,9.28425887 5.47930452,9.28425887 C9.4274518,9.28425887 9.91039427,7.23362472 9.91039427,4.70413534 C9.91039427,3.4768998 8.88789843,2.48193059 7.62671045,2.48193059" id="Fill-4" fill="#FFFFFF" opacity="0.901283482"></path>
                                                        </g>
                                                    </g>
                                                </g>
                                            </g>
                                        </g>
                                    </g>
                                </g>
                            </g>
                            <path d="M9.29755227,11.7576513 L9.8047467,10.8517196 C9.86136905,10.750641 9.84464835,10.6235012 9.764085,10.5414206 L9.01760729,9.77943441 C8.91462301,9.67433707 8.74070244,9.67433707 8.63784483,9.77943441 L7.89124044,10.5414206 C7.81067709,10.6235012 7.79395639,10.750641 7.85057875,10.8517196 L8.35777318,11.7576513 C8.55918155,12.1175153 9.09614389,12.1175153 9.29755227,11.7576513" id="Fill-10" fill="#FFA32C"></path>
                        </g>
                        <g id="Group-14" transform="translate(6.581197, 8.839286)" fill="#007F7E">
                            <ellipse id="Oval-7" cx="4.13946559" cy="0.589285714" rx="1" ry="1"></ellipse>
                            <ellipse id="Oval-7-Copy" cx="0.598290598" cy="0.589285714" rx="1" ry="1"></ellipse>
                        </g>
                    </g>
                    <polygon id="Rectangle" fill-opacity="0.704427083" fill="#FFFFFF" transform="translate(14.024178, 21.864077) rotate(-4.000000) translate(-14.024178, -21.864077) " points="10.7603517 7.26678655 17.4347788 7.56578515 10.6135764 36.461367"></polygon>
                </g>
            </g>
        </g>
        <g id="Group-3" transform="translate(78.000000, 78.000000)">
            <g id="Bucket/Income/70%">
                <g id="Group-2" transform="translate(2.991453, 0.000000)">
                    <path d="M4.78632479,1.76785714 L59.2307692,1.76785714 L54.3907434,57.5720191 C54.1217763,60.6731352 51.5259426,63.0535714 48.4131844,63.0535714 L15.1227888,63.0535714 C11.9902854,63.0535714 9.38493438,60.6437809 9.14100751,57.5207892 L4.78632479,1.76785714 Z" id="Path-4" fill="#FFFFFF" opacity="0.83"></path>
                    <path d="M11.1371756,22.4359997 L53.0520213,22.4359997 L50.7082529,52.2534853 C50.4628726,55.3752202 47.8580672,57.7833126 44.7267032,57.7833126 L19.0960874,57.7833126 C15.9364612,57.7833126 13.318257,55.3329482 13.1092313,52.1802436 L11.1371756,22.4359997 Z" id="Path-4" fill="#1174B6"></path>
                    <path d="M44.8717949,25.3392857 L50.6084624,25.5142689 L48.2708941,54.8703272 C48.197624,55.7904808 47.4295331,56.4998413 46.5064669,56.4998413 L46.5064669,56.4998413 C45.6036625,56.4998413 44.8717949,55.7679737 44.8717949,54.8651693 L44.8717949,25.3392857 Z" id="Path-4" fill="#2386C8"></path>
                    <rect id="Rectangle" fill="#004472" x="0" y="0" width="64.017094" height="4.71428571" rx="2.35714286"></rect>
                    <g id="Group-5-Copy" filter="url(#filter-6)" transform="translate(23.333333, 21.214286)">
                        <g id="Group-12">
                            <g id="Group-4">
                                <g id="Group-9" transform="translate(0.000000, 0.071509)">
                                    <mask id="mask-8" fill="white">
                                        <use xlink:href="#path-7"></use>
                                    </mask>
                                    <use id="Mask" fill="#005150" xlink:href="#path-7"></use>
                                    <g mask="url(#mask-8)" id="Group-8">
                                        <g transform="translate(-4.002275, 4.228474)">
                                            <g>
                                                <path d="M0.671916828,12.9611931 L22.293516,12.9611931 C22.120248,18.6760439 17.3464085,23.2566089 11.4827164,23.2566089 C5.61902433,23.2566089 0.845184892,18.6760439 0.671916828,12.9611931 Z" id="Combined-Shape-Copy-2" fill="#008181" transform="translate(11.482716, 18.108901) rotate(-315.000000) translate(-11.482716, -18.108901) "></path>
                                                <g id="Group-7" transform="translate(7.337503, 0.000000)">
                                                    <g id="Group-6">
                                                        <path d="M5.81484926,8.18117861 L15.5306153,8.18117861 C15.4557181,10.7319524 13.3094389,12.7773464 10.6727323,12.7773464 C8.03602565,12.7773464 5.88974648,10.7319524 5.81484926,8.18117861 Z" id="Combined-Shape-Copy" fill="#FF9445" transform="translate(10.672732, 10.479262) rotate(-30.000000) translate(-10.672732, -10.479262) "></path>
                                                        <g id="Group">
                                                            <g id="Group-3">
                                                                <mask id="mask-10" fill="white">
                                                                    <use xlink:href="#path-9"></use>
                                                                </mask>
                                                                <g id="Clip-2"></g>
                                                                <path d="M10.6985055,14.7077368 L10.6985055,5.05357578 C10.6985055,4.86705614 10.6879009,4.68282936 10.6673094,4.50159328 C10.5823694,3.75282308 10.651248,2.99787211 10.8474851,2.26903988 C10.8839321,2.13336204 10.9174963,1.99260002 10.9491043,1.84665413 C11.0305437,1.47132198 10.6175809,1.18012803 10.2749381,1.37262906 C10.1213254,1.45906013 9.96153521,1.54269988 9.80184801,1.61726787 C9.59871272,1.71207288 9.35768904,1.67030285 9.19964917,1.51448767 C8.25223358,0.580593482 6.93468552,0 5.47917431,0 C4.0236631,0 2.70642391,0.580493792 1.75890537,1.51408891 C1.60096845,1.66990409 1.35973886,1.71167412 1.15660357,1.61676942 C0.9973282,1.54240082 0.837949877,1.45886075 0.684543093,1.37262906 C0.342003247,1.18012803 -0.070959578,1.47122229 0.0103769047,1.84655444 C0.041881922,1.99150343 0.0751372181,2.13126855 0.111275326,2.26604918 C0.307203588,2.99488142 0.376596992,3.7497327 0.291142206,4.49830351 C0.270344777,4.68063619 0.259637189,4.86585986 0.259637189,5.05357578 L0.259637189,7.55539138 C0.259637189,10.7353968 2.22550909,13.4776642 5.04139871,14.7077368 L1.29765544,14.7077368 L12.2927006,14.7077368 L10.6985055,14.7077368 Z" id="Fill-1" fill="#00BCBC" mask="url(#mask-10)"></path>
                                                            </g>
                                                            <path d="M7.62671045,2.48193059 C6.63890167,2.48193059 5.79766365,3.09229322 5.47930452,3.9465405 C5.16094539,3.09229322 4.31981031,2.48193059 3.33200152,2.48193059 C2.07071061,2.48193059 1.04821478,3.4768998 1.04821478,4.70413534 C1.04821478,7.23362472 1.29905254,9.28425887 5.47930452,9.28425887 C9.4274518,9.28425887 9.91039427,7.23362472 9.91039427,4.70413534 C9.91039427,3.4768998 8.88789843,2.48193059 7.62671045,2.48193059" id="Fill-4" fill="#FFFFFF" opacity="0.901283482"></path>
                                                        </g>
                                                    </g>
                                                </g>
                                            </g>
                                        </g>
                                    </g>
                                </g>
                            </g>
                            <path d="M9.29755227,11.7576513 L9.8047467,10.8517196 C9.86136905,10.750641 9.84464835,10.6235012 9.764085,10.5414206 L9.01760729,9.77943441 C8.91462301,9.67433707 8.74070244,9.67433707 8.63784483,9.77943441 L7.89124044,10.5414206 C7.81067709,10.6235012 7.79395639,10.750641 7.85057875,10.8517196 L8.35777318,11.7576513 C8.55918155,12.1175153 9.09614389,12.1175153 9.29755227,11.7576513" id="Fill-10" fill="#FFA32C"></path>
                        </g>
                        <g id="Group-14" transform="translate(6.581197, 8.839286)" fill="#007F7E">
                            <ellipse id="Oval-7" cx="4.13946559" cy="0.589285714" rx="1" ry="1"></ellipse>
                            <ellipse id="Oval-7-Copy" cx="0.598290598" cy="0.589285714" rx="1" ry="1"></ellipse>
                        </g>
                    </g>
                    <polygon id="Rectangle" fill-opacity="0.704427083" fill="#FFFFFF" transform="translate(14.024178, 21.864077) rotate(-4.000000) translate(-14.024178, -21.864077) " points="10.7603517 7.26678655 17.4347788 7.56578515 10.6135764 36.461367"></polygon>
                </g>
            </g>
        </g>
        <g id="Group-3" transform="translate(43.000000, 16.000000)">
            <g id="Bucket/Income/70%">
                <g id="Group-2" transform="translate(2.991453, 0.000000)">
                    <path d="M4.78632479,1.76785714 L59.2307692,1.76785714 L54.3907434,57.5720191 C54.1217763,60.6731352 51.5259426,63.0535714 48.4131844,63.0535714 L15.1227888,63.0535714 C11.9902854,63.0535714 9.38493438,60.6437809 9.14100751,57.5207892 L4.78632479,1.76785714 Z" id="Path-4" fill="#FFFFFF" opacity="0.83"></path>
                    <path d="M11.1371756,22.4359997 L53.0520213,22.4359997 L50.7082529,52.2534853 C50.4628726,55.3752202 47.8580672,57.7833126 44.7267032,57.7833126 L19.0960874,57.7833126 C15.9364612,57.7833126 13.318257,55.3329482 13.1092313,52.1802436 L11.1371756,22.4359997 Z" id="Path-4" fill="#1174B6"></path>
                    <path d="M44.8717949,25.3392857 L50.6084624,25.5142689 L48.2708941,54.8703272 C48.197624,55.7904808 47.4295331,56.4998413 46.5064669,56.4998413 L46.5064669,56.4998413 C45.6036625,56.4998413 44.8717949,55.7679737 44.8717949,54.8651693 L44.8717949,25.3392857 Z" id="Path-4" fill="#2386C8"></path>
                    <rect id="Rectangle" fill="#004472" x="0" y="0" width="64.017094" height="4.71428571" rx="2.35714286"></rect>
                    <g id="Group-5-Copy" filter="url(#filter-11)" transform="translate(23.333333, 21.214286)">
                        <g id="Group-12">
                            <g id="Group-4">
                                <g id="Group-9" transform="translate(0.000000, 0.071509)">
                                    <mask id="mask-13" fill="white">
                                        <use xlink:href="#path-12"></use>
                                    </mask>
                                    <use id="Mask" fill="#005150" xlink:href="#path-12"></use>
                                    <g mask="url(#mask-13)" id="Group-8">
                                        <g transform="translate(-4.002275, 4.228474)">
                                            <g>
                                                <path d="M0.671916828,12.9611931 L22.293516,12.9611931 C22.120248,18.6760439 17.3464085,23.2566089 11.4827164,23.2566089 C5.61902433,23.2566089 0.845184892,18.6760439 0.671916828,12.9611931 Z" id="Combined-Shape-Copy-2" fill="#008181" transform="translate(11.482716, 18.108901) rotate(-315.000000) translate(-11.482716, -18.108901) "></path>
                                                <g id="Group-7" transform="translate(7.337503, 0.000000)">
                                                    <g id="Group-6">
                                                        <path d="M5.81484926,8.18117861 L15.5306153,8.18117861 C15.4557181,10.7319524 13.3094389,12.7773464 10.6727323,12.7773464 C8.03602565,12.7773464 5.88974648,10.7319524 5.81484926,8.18117861 Z" id="Combined-Shape-Copy" fill="#FF9445" transform="translate(10.672732, 10.479262) rotate(-30.000000) translate(-10.672732, -10.479262) "></path>
                                                        <g id="Group">
                                                            <g id="Group-3">
                                                                <mask id="mask-15" fill="white">
                                                                    <use xlink:href="#path-14"></use>
                                                                </mask>
                                                                <g id="Clip-2"></g>
                                                                <path d="M10.6985055,14.7077368 L10.6985055,5.05357578 C10.6985055,4.86705614 10.6879009,4.68282936 10.6673094,4.50159328 C10.5823694,3.75282308 10.651248,2.99787211 10.8474851,2.26903988 C10.8839321,2.13336204 10.9174963,1.99260002 10.9491043,1.84665413 C11.0305437,1.47132198 10.6175809,1.18012803 10.2749381,1.37262906 C10.1213254,1.45906013 9.96153521,1.54269988 9.80184801,1.61726787 C9.59871272,1.71207288 9.35768904,1.67030285 9.19964917,1.51448767 C8.25223358,0.580593482 6.93468552,0 5.47917431,0 C4.0236631,0 2.70642391,0.580493792 1.75890537,1.51408891 C1.60096845,1.66990409 1.35973886,1.71167412 1.15660357,1.61676942 C0.9973282,1.54240082 0.837949877,1.45886075 0.684543093,1.37262906 C0.342003247,1.18012803 -0.070959578,1.47122229 0.0103769047,1.84655444 C0.041881922,1.99150343 0.0751372181,2.13126855 0.111275326,2.26604918 C0.307203588,2.99488142 0.376596992,3.7497327 0.291142206,4.49830351 C0.270344777,4.68063619 0.259637189,4.86585986 0.259637189,5.05357578 L0.259637189,7.55539138 C0.259637189,10.7353968 2.22550909,13.4776642 5.04139871,14.7077368 L1.29765544,14.7077368 L12.2927006,14.7077368 L10.6985055,14.7077368 Z" id="Fill-1" fill="#00BCBC" mask="url(#mask-15)"></path>
                                                            </g>
                                                            <path d="M7.62671045,2.48193059 C6.63890167,2.48193059 5.79766365,3.09229322 5.47930452,3.9465405 C5.16094539,3.09229322 4.31981031,2.48193059 3.33200152,2.48193059 C2.07071061,2.48193059 1.04821478,3.4768998 1.04821478,4.70413534 C1.04821478,7.23362472 1.29905254,9.28425887 5.47930452,9.28425887 C9.4274518,9.28425887 9.91039427,7.23362472 9.91039427,4.70413534 C9.91039427,3.4768998 8.88789843,2.48193059 7.62671045,2.48193059" id="Fill-4" fill="#FFFFFF" opacity="0.901283482"></path>
                                                        </g>
                                                    </g>
                                                </g>
                                            </g>
                                        </g>
                                    </g>
                                </g>
                            </g>
                            <path d="M9.29755227,11.7576513 L9.8047467,10.8517196 C9.86136905,10.750641 9.84464835,10.6235012 9.764085,10.5414206 L9.01760729,9.77943441 C8.91462301,9.67433707 8.74070244,9.67433707 8.63784483,9.77943441 L7.89124044,10.5414206 C7.81067709,10.6235012 7.79395639,10.750641 7.85057875,10.8517196 L8.35777318,11.7576513 C8.55918155,12.1175153 9.09614389,12.1175153 9.29755227,11.7576513" id="Fill-10" fill="#FFA32C"></path>
                        </g>
                        <g id="Group-14" transform="translate(6.581197, 8.839286)" fill="#007F7E">
                            <ellipse id="Oval-7" cx="4.13946559" cy="0.589285714" rx="1" ry="1"></ellipse>
                            <ellipse id="Oval-7-Copy" cx="0.598290598" cy="0.589285714" rx="1" ry="1"></ellipse>
                        </g>
                    </g>
                    <polygon id="Rectangle" fill-opacity="0.704427083" fill="#FFFFFF" transform="translate(14.024178, 21.864077) rotate(-4.000000) translate(-14.024178, -21.864077) " points="10.7603517 7.26678655 17.4347788 7.56578515 10.6135764 36.461367"></polygon>
                </g>
            </g>
        </g>
        <g id="Group-27" transform="translate(113.000000, 7.000000)">
            <g id="Group-23" transform="translate(7.044025, 76.896774)">
                <polygon id="Path-30" fill="#0C7474" points="1.80286832 0.120416989 96.0110988 35.072 97.3593052 36.9489687 94.081444 41.940985 1.14983352 7.91948387 2.88476907 1.96193355"></polygon>
                <polygon id="Path-30" fill="#055E5E" points="1.80286832 0.120416989 96.0110988 35.072 97.3593052 36.9489687 2.88476907 1.96193355"></polygon>
                <polygon id="Path-31" fill="#055E5E" points="1.82946798 0.152288879 0.0800626276 5.58825566 1.14983352 7.91948387 3.03388535 1.99578151"></polygon>
                <ellipse id="Oval" fill="#FFFFFF" cx="55.7669256" cy="24.324129" rx="1.72475028" ry="1.69703226"></ellipse>
            </g>
            <path d="M137.358491,38.0780605 C130.632267,38.6906426 126.121997,38.2301049 123.827683,36.6964475 C121.533368,35.1627902 120.577404,32.9478453 120.95979,30.0516129 L56.0640294,100.313612 L9.68553459,82.8142766 C11.2769738,85.8263777 12.0726935,87.9839622 12.0726935,89.2870303 C12.0726935,90.5900984 12.2329382,92.5078699 12.5534278,95.0403447 L62.454769,114.019355 L137.358491,38.0780605 Z" id="Path-32" fill="#004472"></path>
            <path d="M53.677112,45.0774194 C52.7917675,47.1748881 51.8349429,48.2779679 50.8066382,48.386659 C41.486418,49.3717997 32.4189539,49.061141 27.4778587,53.3678658 C18.8396203,60.8970702 15.5001698,77.1580435 17.1283513,82.6458882 C18.291913,86.5677148 20.3427311,92.8498491 33.0097005,96.4233031 C50.1359037,101.254743 61.1097498,101.809001 77.1844032,92.9239806 C87.9008388,87.0006338 98.8603354,74.1022716 110.062893,54.2288941 L53.677112,45.0774194 Z" id="Path-13" fill="#24B8B5"></path>
            <path d="M82.7397326,72.4774194 C102.176048,72.4774194 117.932295,57.0440902 117.932295,38.0061138 C117.932295,34.2763817 117.327558,30.6849988 116.208888,27.320907 C116.022439,26.7602155 120.840772,17.9550131 117.932295,16.0281779 C115.023819,14.1013427 111.395856,17.9266521 110.375481,16.6608975 C103.930532,8.66606633 93.9469053,3.5348083 82.7397326,3.5348083 C81.7988783,3.5348083 80.8666474,3.5709723 79.9444094,3.64195858 C78.5943142,3.74587779 82.1503659,1.33108395 79.9444094,0.327253275 C78.9641459,-0.11882021 76.9540651,-0.270317162 74.870402,0.939333327 C72.2650507,2.4518448 70.3691122,4.70110375 69.6409882,4.9309215 C55.4903337,9.39729187 47.5471698,22.659989 47.5471698,38.0061138 C47.5471698,57.0440902 63.3034169,72.4774194 82.7397326,72.4774194 Z" id="Oval" fill="#00BCBC"></path>
            <path d="M72.665055,16.6259538 C73.5827827,12.9923942 72.7922614,10.4323983 70.2934912,8.94596593 C64.6302437,5.57709502 57.9945299,11.3088467 56.5150931,13.0714229 C55.8380259,13.8780694 52.9519515,17.0306046 51.4341858,20.429153 C49.6009149,24.5341742 48.1966336,28.774367 47.6763092,34.0394065 C47.0992426,39.8786057 48.2826112,47.0453128 58.7894474,53.3209057 C69.2962835,59.5964987 82.6992371,63.1195544 89.3637757,61.4631506 C92.6128815,60.6556181 97.7120718,56.5535669 102.561939,48.1780171 C105.265723,43.5086777 108.486418,36.6990039 107.439037,29.1677419 C106.958628,25.7133329 100.556584,18.3218495 94.7334713,15.6966362 C88.9103588,13.0714229 83.0090497,12.4262195 79.3109711,13.0714229 C76.8455854,13.5015585 74.6302801,14.6864021 72.665055,16.6259538 Z" id="Path-14" fill="#E6F8F8"></path>
            <g id="mouth" transform="translate(53.710692, 30.051613)">
                <path d="M7.3353379,0.309569223 C5.72788093,-0.271281598 2.10979081,1.72232072 0.952286166,3.18193548 C0.771314009,3.41014159 0.616194999,3.96789141 0.573381723,4.14694612 C0.254353283,5.48119455 -0.468961845,11.6131328 2.31337796,12.9483589 C4.70674728,14.0969206 11.046867,10.7050102 12.4119209,8.88171207 C12.5227416,8.73368916 9.50943396,1.09517375 7.3353379,0.309569223 Z" id="Path-16" fill="#FFA32C"></path>
                <path d="M1.04343408,4.53626925 C1.6781743,7.69606648 2.40847979,9.50240188 3.23435055,9.95527546 C3.46241124,10.0803346 4.78568538,10.3867601 7.02171908,10.0759836 C7.77046387,9.97191887 9.11646399,9.62774935 11.0597194,9.04347506 C6.91010865,9.20847844 4.45823877,9.03988781 3.7041098,8.53770316 C3.32587131,8.28582905 2.86177935,8.19824667 2.41478839,7.52796589 C2.1186443,7.083886 1.6615262,6.08665379 1.04343408,4.53626925 Z" id="Path-17" fill="#E38D1D"></path>
            </g>
            <path d="M61.3073224,24.4326882 C61.6864864,24.090394 61.8501784,23.7423908 61.7983984,23.3886785 C61.5703556,21.8309058 60.3918658,20.1642959 59.46945,19.9527426 C58.5215518,19.7353449 56.5891456,19.7040461 54.8385973,20.4728443 C54.4831717,20.6289386 54.0142569,21.0718994 53.4318529,21.8017269 C56.3170533,21.4845495 58.1595834,21.4845495 58.9594432,21.8017269 C59.7593029,22.1189043 60.5419293,22.9958914 61.3073224,24.4326882 Z" id="Path-19" fill="#008181"></path>
            <path d="M73.1370446,31.838662 C72.9902734,31.2680803 73.1357469,30.8616732 73.5734649,30.6194408 C75.7625327,29.4080143 78.4502525,28.9127143 80.2764045,29.2936366 C83.6813899,30.0038924 86.1875853,37.6394074 86.1304533,38.1645778 C86.1170627,38.2876673 86.4944803,40.0931997 86.1304533,39.7246828 C84.9413317,38.5208949 81.5927673,33.3472164 79.2742201,32.3700543 C77.2553358,31.5191865 75.2096107,31.3420557 73.1370446,31.838662 Z" id="Path-20" fill="#008181"></path>
            <path d="M66.2001574,23.5195189 C66.3930795,23.5258178 66.6087908,23.5536076 66.8472911,23.6028884 C67.5245625,23.7428313 68.0634484,24.1171184 68.4639489,24.7257497 C69.6518684,22.5567063 70.4917804,21.3109254 71.8681107,20.470375 C73.500064,19.473711 79.3895897,18.4611016 88.7802637,22.6328116 C98.1709377,26.8045215 99.9967831,31.6011457 99.3924654,35.4535167 C98.7881476,39.3058876 93.200062,52.2956278 85.6402454,52.1471241 C78.0804288,51.9986204 66.5105448,38.0747845 65.9239019,34.8114548 C65.6628893,33.3595154 66.0603363,29.8760406 67.2930122,27.0098315 C67.0864589,26.2848638 66.678365,25.8472124 66.0687306,25.6968773 C65.5281749,25.5635769 64.9261544,25.6169155 64.2626691,25.8568933 C62.219443,28.0669965 59.8967768,29.8687261 58.286228,30.1419876 C54.7735084,30.73799 51.8408957,28.9507987 49.9457566,25.2266141 C48.0506174,21.5024295 50.9112307,17.1518532 51.6655986,15.7470758 C52.4199665,14.3422984 55.0364127,9.50393755 60.7006066,10.8360645 C66.3648005,12.1681915 68.6992567,14.645925 68.6992567,18.1624419 C68.6992567,19.5218019 67.6681299,21.5312672 66.2001574,23.5195189 Z" id="Combined-Shape" fill="#24282B" opacity="0.682128906"></path>
            <polygon id="Path-24" fill="#FFFFFF" opacity="0.828031994" points="7.04402516 41.5419355 22.5147773 56.3334548 22.5784785 69.249424 16.3181811 72.1572044 30.5471807 72.4774194 23.955655 69.249424 23.955655 56.3339247 38.7421384 41.5419355"></polygon>
            <polygon id="Path-25" fill="#1174B6" points="15.8490566 46.8451613 22.7486392 54.8 29.9371069 46.8451613"></polygon>
            <path d="M93.9295856,67.3345511 C90.0440539,62.2079842 65.7804456,64.7537647 35.4970683,62.8540824 C28.4196761,62.4101162 15.2793196,58.1893848 19.2093733,71.4890199 C22.4100381,82.3203413 42.1273823,92.4767553 49.8560972,93.4942692 C67.0747982,95.7611748 101.888045,77.8349345 93.9295856,67.3345511 Z" id="Path-23" fill="#FFA32C"></path>
            <polygon id="Path-26" fill="#A5DBFF" points="25.2085211 47.7290323 28.1761006 47.7290323 24.8171956 51.2645161"></polygon>
            <g id="Chair-leg" transform="translate(8.805031, 35.354839)">
                <g id="Group-26" transform="translate(32.524115, 0.000000)">
                    <polygon id="Path-28" fill="#055E5E" points="93.0122622 5.68434189e-14 -1.42108547e-13 94.4359395 2.04845737 98.2328459 5.70598503 100.327382 97.327505 5.02073183 94.2631814 2.53299409"></polygon>
                    <polygon id="Path-28" fill="#0C7474" points="1.71179551 98.2328459 7.65171719 101.327137 97.8974104 5.99890654 94.1069592 2.29706579"></polygon>
                    <polygon id="Path-29" fill="#055E5E" points="93.0075561 -4.17443857e-14 96.8144506 3.41150493 98.2433107 5.99890654 94.2415109 2.55330785"></polygon>
                </g>
                <g id="Group-23" transform="translate(0.000000, 56.852378)">
                    <polygon id="Path-30" fill="#0C7474" points="1.7893268 0.122245355 95.2899501 35.6045198 96.6280299 37.5099877 93.3747892 42.5778008 1.14119701 8.03973027 2.86310129 1.99172279"></polygon>
                    <polygon id="Path-30" fill="#055E5E" points="1.7893268 0.122245355 95.2899501 35.6045198 96.6280299 37.5099877 2.86310129 1.99172279"></polygon>
                    <polygon id="Path-31" fill="#055E5E" points="1.81572667 0.154601175 0.0794612694 5.67310559 1.14119701 8.03973027 3.01109754 2.02608469"></polygon>
                    <ellipse id="Oval" fill="#FFFFFF" cx="55.3480548" cy="24.6934573" rx="1.71179551" ry="1.72279934"></ellipse>
                </g>
            </g>
            <polygon id="Path-33" fill="#FFA32C" points="20.2515723 87.6474023 16.0059416 85.7354839 10.5660377 88.3172766 11.0780706 89.2709677 16.0059416 87.5032258 20.2515723 89.2709677"></polygon>
            <path d="M10.9738,89.4053283 C8.70480391,86.8068264 6.88207888,85.5882629 5.50562494,85.7496377 C3.44094401,85.9916999 0.6730517,85.9151641 0.892817449,87.405693 C1.03932795,88.399379 2.9147002,89.0659241 6.5189342,89.4053283 L12.327044,91.9225806 L10.9738,89.4053283 Z" id="Path-34" fill="#FFA32C"></path>
            <polygon id="Path-33" fill="#FFA32C" points="19.3710692 83.0351055 15.3716369 81.316129 9.68553459 84.1489791 10.0813705 84.8516129 15.3716369 82.9054786 19.3710692 84.4948282"></polygon>
            <path d="M10.0932969,85.8698444 C7.82430077,83.2713425 6.00157574,82.052779 4.62512179,82.2141538 C2.56044087,82.456216 -0.207451444,82.3796802 0.0123143046,83.8702092 C0.158824804,84.8638951 2.03419706,85.5304402 5.63843106,85.8698444 L11.4465409,88.3870968 L10.0932969,85.8698444 Z" id="Path-34" fill="#FFA32C"></path>
        </g>
        <path d="M179.917224,34.5842526 C179.711447,33.8512911 179.304887,33.4088139 178.697545,33.2568211 C178.159021,33.1220509 177.559264,33.1759777 176.898273,33.4186015 C174.862728,35.6530746 172.548794,37.474671 170.9443,37.7509456 C167.444786,38.3535199 164.523198,36.5466221 162.635184,32.7813726 C160.747169,29.016123 163.597028,24.6175749 164.34856,23.1973076 C165.100092,21.7770403 167.706702,16.885329 173.349602,18.2321448 C178.992502,19.5789605 181.318182,22.0840149 181.318182,25.6393069 C181.318182,27.0136559 180.290931,29.0452787 178.828478,31.055454 C179.020674,31.0618223 179.235575,31.0899186 179.473179,31.1397427 C180.147904,31.2812287 180.684764,31.6596429 181.083759,32.2749853 C182.267212,30.0820248 183.103967,28.8225073 184.475123,27.9726885 C186.100941,26.9650347 191.968326,25.9412598 201.323696,30.1589693 C210.679067,34.3766788 212.498048,39.2261933 211.896002,43.1210426 C211.293957,47.015892 205.726879,60.1488643 198.195483,59.9987231 C190.664086,59.8485819 179.137698,45.771214 178.553261,42.4719011 C178.293229,41.0039517 178.689182,37.4820662 179.917224,34.5842526 Z M186.040524,30.3392037 C184.75505,31.1553811 184.063634,32.438119 182.804903,34.8946262 C181.546172,37.3511333 181.128669,40.7550944 181.358326,42.0832467 C181.82042,44.7556176 190.933909,56.1579757 196.888707,56.2795868 C202.843504,56.4011979 207.245187,45.7637793 207.721202,42.6090371 C208.197217,39.4542948 206.759016,35.5262948 199.36207,32.110043 C191.965123,28.6937911 187.325999,29.5230263 186.040524,30.3392037 Z M172.484935,20.4861802 C168.123189,19.4422957 166.267022,22.9850615 165.686116,24.0858765 C165.105211,25.1866916 162.785995,28.3255665 164.245359,31.243921 C165.704722,34.1622755 167.962998,35.5627586 170.667988,35.0957178 C173.372979,34.6286769 178.686603,28.4638988 178.686603,25.7082774 C178.686603,22.9526559 176.846681,21.5300647 172.484935,20.4861802 Z" id="Glass-Frame" fill="#1B4E71"></path>
    </g>
</svg>