<svg xmlns="http://www.w3.org/2000/svg" width="55" height="20" viewBox="0 0 55 20">
    <g fill="none" fill-rule="evenodd">
        <path fill="#E46F6F" d="M0 6v8a6 6 0 0 0 6 6h49l-6.811-10L55 0H6a6 6 0 0 0-6 6z"/>
        <g fill="#FFF" fill-rule="nonzero" transform="translate(6 6)">
            <path d="M9 8.556V.012h5.58v1.236h-4.044v2.34h3.804v1.248h-3.804v3.72H9zm10.02-6.204c.232 0 .432.032.6.096l-.012 1.368a2.086 2.086 0 0 0-.792-.156c-.512 0-.902.148-1.17.444-.268.296-.402.688-.402 1.176v3.276h-1.488V4.212c0-.64-.032-1.212-.096-1.716h1.404l.12 1.068c.152-.392.392-.692.72-.9a2.04 2.04 0 0 1 1.116-.312zm6.744 3.252h-4.176c.032.648.194 1.126.486 1.434.292.308.726.462 1.302.462.664 0 1.28-.216 1.848-.648l.432 1.032a3.378 3.378 0 0 1-1.062.558c-.42.14-.846.21-1.278.21-.992 0-1.772-.28-2.34-.84-.568-.56-.852-1.328-.852-2.304 0-.616.124-1.164.372-1.644s.596-.854 1.044-1.122a2.91 2.91 0 0 1 1.524-.402c.832 0 1.49.27 1.974.81s.726 1.282.726 2.226v.228zM23.1 3.42c-.4 0-.726.118-.978.354s-.414.578-.486 1.026h2.82c-.048-.456-.186-.8-.414-1.032-.228-.232-.542-.348-.942-.348zm9.24 2.184h-4.176c.032.648.194 1.126.486 1.434.292.308.726.462 1.302.462.664 0 1.28-.216 1.848-.648l.432 1.032a3.378 3.378 0 0 1-1.062.558c-.42.14-.846.21-1.278.21-.992 0-1.772-.28-2.34-.84-.568-.56-.852-1.328-.852-2.304 0-.616.124-1.164.372-1.644s.596-.854 1.044-1.122a2.91 2.91 0 0 1 1.524-.402c.832 0 1.49.27 1.974.81s.726 1.282.726 2.226v.228zM29.676 3.42c-.4 0-.726.118-.978.354s-.414.578-.486 1.026h2.82c-.048-.456-.186-.8-.414-1.032-.228-.232-.542-.348-.942-.348zm4.164 2.568L33.36 0l1.86.012-.468 5.976h-.912zm-.384.888h1.68v1.68h-1.68v-1.68z"/>
            <circle cx="2" cy="4" r="2"/>
        </g>
    </g>
</svg>
