<?xml version="1.0" encoding="UTF-8"?>
<svg width="19px" height="19px" viewBox="0 0 19 19" version="1.1" xmlns="http://www.w3.org/2000/svg" xmlns:xlink="http://www.w3.org/1999/xlink">
    <!-- Generator: Sketch 54 (76480) - https://sketchapp.com -->
    <title>noun_Phone_1172782</title>
    <desc>Created with Sketch.</desc>
    <g id="5.0-Result+Dashboard" stroke="none" stroke-width="1" fill="none" fill-rule="evenodd">
        <g id="5.2.1-Insurance-(Thankyou)" transform="translate(-120.000000, -407.000000)" fill="#00A7A7">
            <g id="Group" transform="translate(38.000000, 353.000000)">
                <g id="Group-4" transform="translate(82.000000, 50.000000)">
                    <g id="noun_Phone_1172782" transform="translate(0.000000, 4.000000)">
                        <path d="M16.7479063,18.302748 C14.7488153,20.3018393 8.33984357,17.673942 4.84440103,14.1784997 C1.34864223,10.6827408 -1.2792147,4.27436167 0.720152667,2.27499427 L2.47932647,0.5158205 C3.0000255,-0.00487856667 3.8442455,-0.00487856667 4.36494453,0.5158205 C4.3962788,0.547154733 4.42603147,0.5800316 4.4540918,0.614328667 L7.84814463,4.76274817 C8.28190037,5.292911 8.24336123,6.06549423 7.75899737,6.54985807 L5.89046187,8.4183936 C5.7832083,8.52564717 5.761888,8.69178757 5.83858523,8.822647 C6.4171024,9.8097025 7.04260707,10.6381501 7.71367883,11.3092217 C8.3847506,11.9802937 9.21319817,12.6057983 10.2002537,13.1843153 C10.3311131,13.2610127 10.4972535,13.2396923 10.6045071,13.1324387 L12.4730426,11.2639033 C12.9574064,10.7795394 13.7299896,10.7410003 14.2601525,11.174756 L18.408572,14.568809 C18.9785057,15.0351033 19.062522,15.8751323 18.5962273,16.445066 C18.568167,16.479363 18.5384143,16.51224 18.5070803,16.5435743 L16.7479063,18.302748 Z" id="Shape"></path>
                    </g>
                </g>
            </g>
        </g>
    </g>
</svg>