<svg xmlns="http://www.w3.org/2000/svg" width="35" height="35" viewBox="0 0 35 35">
    <g fill="none" fill-rule="evenodd">
        <circle cx="17.5" cy="17.5" r="17.5" fill="#468087"/>
        <path fill="#FFF" fill-rule="nonzero" d="M17.462 29.924c6.882 0 12.462-5.58 12.462-12.462S24.344 5 17.462 5a12.451 12.451 0 0 0-9.1 3.941A12.414 12.414 0 0 0 5 17.45c.012 6.906 5.58 12.474 12.462 12.474zm-3.404-8.715c.09-.342.189-.683.288-1.025.12-.391.229-.441.587-.25a5.43 5.43 0 0 0 1.939.582c.437.05.865.01 1.272-.17.756-.332.875-1.216.239-1.748a3.31 3.31 0 0 0-.726-.432c-.666-.292-1.352-.523-1.978-.894-1.015-.613-1.66-1.457-1.581-2.702.09-1.406.875-2.29 2.157-2.762.527-.19.527-.19.537-.743v-.563c.01-.422.08-.492.497-.502h.388c.885 0 .885 0 .885.894 0 .633 0 .633.626.733.477.07.935.221 1.372.412.239.11.338.281.259.542-.11.382-.22.774-.338 1.155-.12.362-.23.412-.577.241a4.184 4.184 0 0 0-2.177-.432 1.6 1.6 0 0 0-.577.121c-.656.291-.766 1.024-.209 1.476.279.231.607.392.945.533.586.24 1.173.482 1.72.783 1.76.984 2.237 3.224.994 4.74a3.249 3.249 0 0 1-1.71 1.106c-.298.08-.428.24-.418.552.01.301 0 .613 0 .924 0 .271-.139.422-.407.422-.328.01-.657.01-.985 0-.288-.01-.417-.17-.427-.452 0-.22 0-.452-.01-.673-.01-.492-.02-.512-.487-.592-.607-.1-1.193-.232-1.74-.503-.438-.21-.477-.321-.358-.773z"/>
    </g>
</svg>
