<svg xmlns="http://www.w3.org/2000/svg" xmlns:xlink="http://www.w3.org/1999/xlink" width="60" height="60" viewBox="0 0 60 60">
    <defs>
        <path id="prefix__a" d="M3.977 5.223L22.78 5.223 22.78 24.027 7.366 20.108z"/>
    </defs>
    <g fill="none" fill-rule="evenodd">
        <path fill="#D2EBEB" d="M12.536 51.464v-44c0-1.657 1.343-3 3-3h27.928c1.657 0 3 1.343 3 3v44c0 1.657-1.343 3-3 3H15.536c-1.657 0-3-1.343-3-3z" transform="translate(4.5 5.5)"/>
        <g>
            <path fill="#00A7A7" fill-rule="nonzero" d="M46.263.5H4C2.067.5.5 2.067.5 4v26.175c0 1.933 1.567 3.5 3.5 3.5h42.263c1.932 0 3.5-1.567 3.5-3.5V4c0-1.933-1.568-3.5-3.5-3.5zM4 1.5h42.263c1.38 0 2.5 1.12 2.5 2.5v26.175c0 1.38-1.12 2.5-2.5 2.5H4c-1.38 0-2.5-1.12-2.5-2.5V4c0-1.38 1.12-2.5 2.5-2.5z" transform="translate(4.5 5.5) rotate(-90 29.5 20.75)"/>
        </g>
        <path fill="#D2EBEB" d="M14.5 5h22c.552 0 1 .448 1 1v10c0 .552-.448 1-1 1h-22c-.552 0-1-.448-1-1V6c0-.552.448-1 1-1z" transform="translate(4.5 5.5)"/>
        <path fill="#FFF" stroke="#00A7A7" d="M9.595 13.774v20.121c.077.417.33.76.675.968.318.193.713.271 1.11.187.34-.072.644-.258.857-.523h0l6.302-9.468c.595-.699 1.415-1.133 2.287-1.278.884-.146 1.822.004 2.638.483.73.429 1.221 1.09 1.427 1.823.205.732.125 1.535-.274 2.236h0L13.363 47.19c-.147.223-.288.442-.427.657-.792 1.229-1.46 2.31-2.381 2.84-.649.371-1.426.428-2.472.072-1.89-.61-3.774-1.835-5.663-3.663C.171 44.92.447 41.002.575 38.611c.033-.626.06-1.158.046-1.547.217-5.15.487-8.178.85-9.067.18-.367.38-.896.63-1.561.983-2.617 2.786-7.424 7.494-12.662h0z" transform="translate(4.5 5.5)"/>
        <g transform="translate(4.5 5.5) rotate(-180 27 21.25)">
            <mask id="prefix__b" fill="#fff">
                <use xlink:href="#prefix__a"/>
            </mask>
            <use fill="#FFF" transform="rotate(45 13.378 14.625)" xlink:href="#prefix__a"/>
            <g stroke="#00A7A7" stroke-width="1.5" mask="url(#prefix__b)">
                <g>
                    <path d="M15.96 20.483c-2.938 0-5.32-2.292-5.32-5.12 0-2.829 2.382-5.121 5.32-5.121" transform="translate(9.063 -.813)"/>
                    <path d="M15.96 25.604c-2.37 0-4.558-.745-6.326-2.006-2.617-1.866-4.314-4.86-4.314-8.236 0-3.586 1.915-6.742 4.815-8.571 1.673-1.056 3.674-1.67 5.825-1.67" transform="translate(9.063 -.813)"/>
                    <path d="M15.96 30.725C7.145 30.725 0 23.847 0 15.362 0 6.878 7.145 0 15.96 0" transform="translate(9.063 -.813)"/>
                </g>
            </g>
        </g>
    </g>
</svg>
