<svg xmlns="http://www.w3.org/2000/svg" xmlns:xlink="http://www.w3.org/1999/xlink" width="212" height="133" viewBox="0 0 212 133">
    <defs>
        <path id="a" d="M0 .215h142.763v43.682H0z"/>
        <path id="c" d="M3.691 6.162c-.89.657-3.012.982-3.497 2.221C.06 8.725.001 9.294 0 10v.046c.005 2.986 1.02 8.337 1.735 9.29.89 1.183 4.908 2.544 6.996 2.544h6.818c1.334 0 2.49-1.806 6.136-1.806h94c9.693 0 21.106-1.746 21.817-2.07.711-.327 4.773-4.055 4.98-5.003.147-.671.28-4.22.281-6.612v-.06c0-.953-.023-1.713-.073-2.02-.178-1.074-3.764-2.73-3.764-2.73s-.243-.46-.7-1.208L3.692 6.162z"/>
        <linearGradient id="d" x1="49.385%" x2="50.535%" y1="48.545%" y2="50.632%">
            <stop offset="0%" stop-color="#FFD42A"/>
            <stop offset="100%" stop-color="#FFBA00"/>
        </linearGradient>
        <path id="f" d="M2 0h22a2 2 0 0 1 2 2v37a2 2 0 0 1-2 2H2a2 2 0 0 1-2-2V2a2 2 0 0 1 2-2z"/>
        <path id="h" d="M0 0l27.003.07a1 1 0 0 1 .997 1v6.99a1 1 0 0 1-1.061.997L0 7.405V0z"/>
        <rect id="j" width="29" height="4" rx="1"/>
        <path id="l" d="M.293.274h38.653v19.513H.293z"/>
        <path id="n" d="M0 .013h38.96V25H0z"/>
        <path id="p" d="M.17.309h62.504v35.676H.17z"/>
        <path id="r" d="M.17.37h62.504v15.614H.17z"/>
    </defs>
    <g fill="none" fill-rule="evenodd">
        <path fill="#066360" d="M47.512 119.194c-21.414.495-35.541 1.911-42.382 4.248-10.26 3.505-3.918 5.648 8.343 7.7 12.261 2.051 32.838 1.988 48.012 1.728 15.173-.26 47.766-.563 76.578-.723 28.812-.159 34.533.16 54.16 0 19.626-.159 33.006-7.642-1.561-10.737-23.045-2.062-70.761-2.801-143.15-2.216z"/>
        <path fill="#4D4D4D" d="M49.167 85.315c.563.013 2.075 1.42 2.342 3.285.267 1.865.267 3.374-1.542 3.345-1.808-.03-1.304 0-1.304 0s1.274.444 2.105 2.885h-5.306s.029-1.938.8-3.151c0 0-.356-.29-.356-.664 0-.373.593-5.76 3.26-5.7"/>
        <g transform="rotate(-6 606.439 -405.527)">
            <path stroke="#F1961F" stroke-linecap="round" stroke-width="3" d="M31.803 54.028c1.575-.446 2.934-.669 4.078-.669 1.144 0 2.206.223 3.187.67"/>
            <path fill="#F1961F" d="M38.876 54.484c.31-1.624.985-4.137 1.803-4.137.545 0 .545.312 0 .937 1.042-.377 1.56-.377 1.553 0-.01.565-1.605.594-1.963 1.865-.446 1.585-1.702 2.96-1.393 1.335z"/>
            <path stroke="#FFA32C" stroke-linecap="round" stroke-width="3" d="M30.388 53.88c1.574-.446 2.934-.67 4.078-.67 1.144 0 2.206.224 3.187.67"/>
            <path fill="#FFA32C" d="M37.461 54.336c.31-1.624.985-4.138 1.802-4.138.546 0 .546.313 0 .937 1.043-.376 1.56-.376 1.554 0-.01.566-1.154 1.214-1.587 1.925-.434.712-.381.976-.754 1.276-.373.3-1.324 1.624-1.015 0z"/>
            <path fill="#00BCBC" d="M1.024 18.55C-1.01 39.884 4.897 52.196 18.742 55.483c3.723-.557 8.284-.916 10.766-1.32 7.798-1.274 9.278-12.15 7.371-17.106-.576-1.496-2.732-4.133-6.469-7.913L1.024 18.549z"/>
            <path fill="#00BCBC" d="M17.214 34.62c8.106 0 15.035-4.268 16.678-11.904.25-1.157-.145-3.876-1.189-8.258-1.688-7.09-4.982-10.05-10.364-11.766-.39-.124-1.12-2.166-2.458-2.166-1.058 0 .429 1.651 0 1.583-.869-.138-1.76-.21-2.667-.21-2.825 0-5.488.695-7.828 1.923-.832.437-4.275-1.591-5.443-.43-1.168 1.16 1.76 3.015 1.168 3.624-2.97 3.055-3.873 7.82-3.873 12.424 0 9.361 6.64 15.18 15.976 15.18z"/>
            <path fill="#E6F8F8" d="M25.856 9.567c-7.005-1.299-11.63-.523-13.126 4.652-.656 2.271-.244 6.576 1.751 10.279 2.559 4.75 7.326 8.001 11.375 6.962 4.437-1.139 7.42-6.237 7.83-8.532.306-1.717-.112-4.45-1.073-7.64-1.067-3.54-3.016-6.841-4.088-7.408-2.037-1.079-2.67.383-2.67 1.687z"/>
            <ellipse cx="23.653" cy="17.851" fill="#007F7E" rx="1.779" ry="1.776"/>
            <ellipse cx="30.057" cy="15.62" fill="#007F7E" rx="1" ry="1.416" transform="rotate(-19 30.057 15.62)"/>
            <path fill="#FFA32C" d="M28.763 18.937l-.787 1.251a2 2 0 0 0 .392 2.585l.867.741a1.29 1.29 0 0 0 2.125-.902l.11-1.812a2 2 0 0 0-.443-1.38l-.478-.59a1.1 1.1 0 0 0-1.786.107z"/>
            <path fill="#008181" d="M8.046 31.202c1.995-2.952 9.606 2.094 13.706 2.402 5.258.395 8.973-.18 10.747 0 3.306.335 4.972 2.374 4.999 6.116-4.272-1.434-6.59-1.93-6.954-1.49-3.645 4.412-4.796 8.995-10.335 8.319C11.178 45.446 6.05 34.154 8.046 31.202z"/>
        </g>
        <path fill="#4D4D4D" d="M89.917 97.652a1.125 1.125 0 0 0 .534 1.5 1.128 1.128 0 0 0 1.5-.533l2.179-4.57a1.127 1.127 0 0 0-2.035-.967l-2.178 4.57z"/>
        <path fill="#EBEBEB" d="M50.834 93.883L30.828 85.36s-1.427 1.109-1.871 2.93h-1.201s-2.815 1.335-3.426 3.64l26.504 1.953z"/>
        <path fill="#4D4D4D" d="M91.757 80.891h-2.105c-.756 0-1.956.562-2.624 1.805-.666 1.243-.133 2.042 1.601 3.196 1.735 1.154 7.248 5.816 8.493 6.925 1.245 1.11 1.111 3.197 0 4.04h8.57L91.757 80.891z"/>
        <g transform="matrix(-1 0 0 1 151 80.646)">
            <mask id="b" fill="#fff">
                <use xlink:href="#a"/>
            </mask>
            <path fill="#FFBA00" d="M.194 30.402c-.7 1.786.652 9.767 1.541 10.951.89 1.183 4.907 2.544 6.996 2.544h6.818c1.334 0 2.49-1.805 6.136-1.805h94c9.693 0 21.106-1.745 21.817-2.07.712-.327 4.773-4.056 4.98-5.003.208-.946.386-7.617.208-8.691-.178-1.076-3.765-2.732-3.765-2.732s-4.476-8.494-11.457-12.357c0 0-79.104 4.425-79.43 4.455-.326.03-.977-.444.03-1.746 1.008-1.302 4.595-5.09 8.508-7.487 3.913-2.398 5.098-2.99 5.098-3.493 0-.503-1.808-2.634-2.43-2.722-.623-.09-1.127-.03-2.342.739-1.215.77-11.339 7.147-17.43 12.385 0 0-9.871.489-18.898 2.708-9.027 2.22-12.229 4.217-14.407 7.192-2.18 2.974-1.557 4.017-2.312 4.772-.756.755-3.143 1.036-3.661 2.36" mask="url(#b)"/>
        </g>
        <g transform="matrix(-1 0 0 1 151 102.664)">
            <mask id="e" fill="#fff">
                <use xlink:href="#c"/>
            </mask>
            <path fill="url(#d)" d="M3.691 6.162c-.89.657-3.012.982-3.497 2.221C.06 8.725.001 9.294 0 10v.046c.005 2.986 1.02 8.337 1.735 9.29.89 1.183 4.908 2.544 6.996 2.544h6.818c1.334 0 2.49-1.806 6.136-1.806h94c9.693 0 21.106-1.746 21.817-2.07.711-.327 4.773-4.055 4.98-5.003.147-.671.28-4.22.281-6.612v-.06c0-.953-.023-1.713-.073-2.02-.178-1.074-3.764-2.73-3.764-2.73s-.243-.46-.7-1.208L3.692 6.162z" mask="url(#e)"/>
        </g>
        <g>
            <path fill="#4D4D4D" d="M30.828 106.127c7.908 0 14.318 6.4 14.318 14.294 0 .79-.081 1.56-.205 2.317h-9.626c-6.864 0-14.585-.876-18.763-1.502-.015-.27-.042-.54-.042-.815 0-7.895 6.41-14.294 14.318-14.294M112.555 120.421c0-7.895 6.41-14.294 14.318-14.294 7.908 0 14.318 6.4 14.318 14.294 0 1.435-.217 2.816-.61 4.122h-5.13c-1.334 0-2.49-1.805-6.136-1.805H112.76a14.3 14.3 0 0 1-.205-2.317"/>
            <path fill="#000" d="M115.49 120.421c0 6.277 5.097 11.365 11.383 11.365 6.286 0 11.383-5.088 11.383-11.365s-5.097-11.364-11.383-11.364c-6.286 0-11.383 5.087-11.383 11.364"/>
            <path fill="#EEE" d="M119.093 120.421c0 4.29 3.483 7.768 7.78 7.768 4.297 0 7.78-3.478 7.78-7.768 0-4.29-3.483-7.767-7.78-7.767-4.297 0-7.78 3.478-7.78 7.767"/>
            <path fill="#000" d="M19.445 120.421c0 6.277 5.097 11.365 11.383 11.365 6.286 0 11.383-5.088 11.383-11.365s-5.097-11.364-11.383-11.364c-6.286 0-11.383 5.087-11.383 11.364"/>
            <path fill="#EEE" d="M23.048 120.421c0 4.29 3.484 7.768 7.78 7.768 4.297 0 7.78-3.478 7.78-7.768 0-4.29-3.483-7.767-7.78-7.767-4.296 0-7.78 3.478-7.78 7.767"/>
            <path fill="#F09400" d="M14.033 101.097a15.417 15.417 0 0 1 4.58-2.974c3.438-3.26 6.233-5.204 7.62-6.087l.616.035c-1.077.658-3.817 2.455-7.332 5.697 1.032-.377 2.184-.7 3.498-.952 9.376-1.794 17.284.003 22.87 5.193 7.014 6.518 7.217 17.022 7.217 18.198 0 .736 0 .933 1.11.933h9.589c-.453-1.525-3.06-10.482-3.584-16.454-.493-5.598-.21-8.947.916-10.696l.413.022c-1.177 1.614-1.478 4.925-.975 10.643.535 6.084 3.25 15.308 3.601 16.485h40.213c.61 0 .859-.266.859-.917 0-.653.038-1.548.506-5.276.083-.665.243-1.455.49-2.32.411-8.486-.27-12.386-.488-13.38-.255-1.163-1.505-2.504-2.31-3.27.039-.13.037-.302-.025-.512.789.715 2.371 2.293 2.683 3.707.209.952.837 4.553.55 12.203 1.24-3.456 3.805-7.674 8.438-10.234.41-.226.829-.435 1.252-.632-1.538-1.632-4.714-5.019-4.803-5.283-.052-.158-.155-.826-.239-1.405.077.065.155.13.23.195l.16.008c.076.52.149.978.18 1.075.15.271 2.931 3.26 4.817 5.257 5.521-2.462 12.133-2.532 20.15-.207 6.014 1.745 8.079 5.255 9.071 6.942.22.373.47.798.572.82h.254c.037.128.078.246.127.355h-.38c-.294 0-.502-.354-.88-.996-.969-1.647-2.985-5.075-8.864-6.78-8.706-2.524-15.73-2.21-21.474.962-6.329 3.496-8.735 10.155-9.158 13.54-.465 3.707-.503 4.59-.503 5.231 0 .844-.41 1.272-1.215 1.272H54.213c-1.335 0-1.467-.373-1.467-1.288 0-1.16-.2-11.522-7.102-17.937-5.5-5.111-13.303-6.877-22.562-5.105-5.288 1.012-8.02 3.172-10.074 5.49.282-.451.625-.979 1.025-1.558"/>
            <path fill="#FFF" d="M138.64 106.005c1.195 2.156 3.445 3.903 5.026 3.903 1.582 0 1.894-1.747.699-3.903-1.195-2.155-3.446-3.903-5.027-3.903s-1.894 1.748-.699 3.903"/>
            <path fill="#EE3061" d="M20.927 102.899c-1.88 1.974-4.776 3.219-6.468 2.78-1.692-.44-1.54-2.397.341-4.371 1.88-1.976 4.776-3.22 6.468-2.78 1.692.44 1.539 2.396-.34 4.37"/>
            <path fill="#F16914" d="M9.036 114.87c0 .38.31.736.69.795l3.023.473c.381.059.69-.2.69-.58a.835.835 0 0 0-.69-.796l-3.023-.473c-.38-.059-.69.2-.69.58"/>
            <path fill="#4D4D4D" d="M150.82 115.336c-.209 1.79-.567 3.714-.94 5.065h-2.454c-1.178 0-2.467-.95-2.878-2.123l-.29-.822c-.41-1.17.212-2.12 1.39-2.12h5.171zM108.638 94.593c-.889-.399-2.668-1.643-5.024-3.418-2.357-1.775-9.07-6.748-10.072-7.236-1-.489-1.222-1.332-1-1.642.12-.168.688-.56 1.189-.888.116.067.235.138.368.222 1.212.767 11.288 7.116 17.384 12.347-.814.583-2.172.918-2.845.615"/>
        </g>
        <g transform="translate(161 44)">
            <path fill="#B7B7B7" d="M13 7h4v33h-4z"/>
            <path fill="#D8D8D8" d="M13 26c.508 5.396 1.042 9.072 1.6 11.026.558 1.954 1.358 2.946 2.4 2.974h-4V26z"/>
            <g transform="translate(2 40)">
                <mask id="g" fill="#fff">
                    <use xlink:href="#f"/>
                </mask>
                <use fill="#1F1F1F" xlink:href="#f"/>
                <path fill="#404040" d="M6 0h20v41H6z" mask="url(#g)"/>
            </g>
            <path fill="#000" d="M4.327 55C5.062 55 6 52.974 6 50.493S4.91 46 4.175 46C3.44 46 3 48.012 3 50.493 3 52.974 3.592 55 4.327 55z"/>
            <path fill="#000" d="M2.812 46.015h1.396l.792.97zM3 55h1.994L6 54zM3 47h29a1 1 0 0 1 1 1v7a1 1 0 0 1-1 1h-3.305L3 47z"/>
            <path fill="#2C2C2C" d="M3 47l27.003.07a1 1 0 0 1 .997 1v6.99a1 1 0 0 1-1.061.997L3 54.405V47z"/>
            <g transform="translate(8 47)">
                <mask id="i" fill="#fff">
                    <use xlink:href="#h"/>
                </mask>
                <use fill="#2C2C2C" xlink:href="#h"/>
                <path stroke="#F7B500" stroke-linecap="square" stroke-width="3" d="M18.9 9.346l10.24-5.064M9.775 9.346L27.303.358M4.2 7.615l16.1-9M-6.325 7.962L11.227-1.04" mask="url(#i)"/>
            </g>
            <path fill="#000" d="M3.769 55C4.749 55 6 52.974 6 50.493S4.546 46 3.566 46C2.586 46 2 48.012 2 50.493 2 52.974 2.789 55 3.769 55z"/>
            <path fill="#000" d="M2.861 55C3.893 55 5 52.974 5 50.493S3.68 46 2.648 46C1.618 46 1 48.012 1 50.493 1 52.974 1.83 55 2.861 55z"/>
            <g transform="translate(0 77)">
                <mask id="k" fill="#fff">
                    <use xlink:href="#j"/>
                </mask>
                <use fill="#000" xlink:href="#j"/>
                <path fill="#212121" d="M8 0h23v5H8z" mask="url(#k)"/>
            </g>
            <ellipse cx="13" cy="15.5" fill="#D8D8D8" rx="12" ry="15.5"/>
            <path fill="#D8D8D8" d="M12 26h-1l.362-2zM12 5h-1l.362 2z"/>
            <ellipse cx="12" cy="15.5" fill="#CF3C2B" rx="12" ry="15.5"/>
            <path fill="#FFF" d="M3 14h18v4H3z"/>
        </g>
        <g>
            <g>
                <mask id="m" fill="#fff">
                    <use xlink:href="#l"/>
                </mask>
                <path fill="#F5F5F5" d="M38.932 12.242a4.697 4.697 0 0 0-1.562-3.141l-.998-.674a4.648 4.648 0 0 0-2.42-.473l-1.176.25a4.81 4.81 0 0 0-.861.41 7.803 7.803 0 0 0-2.059-2.933L28.2 4.563a7.722 7.722 0 0 0-4.018-.785l-1.95.413A9.655 9.655 0 0 0 20.87 2.7l-2.09-1.41A9.733 9.733 0 0 0 13.713.3l-2.462.52A9.75 9.75 0 0 0 7.168 3.59 9.789 9.789 0 0 0 5.036 7.72c-.141-.002-.283 0-.426.01l-1.187.25a4.705 4.705 0 0 0-1.967 1.334 4.746 4.746 0 0 0-1.15 3.465 4.743 4.743 0 0 0 1.576 3.169l1.007.679a4.69 4.69 0 0 0 2.44.477l1.186-.251c.25-.09.485-.198.71-.323.26.292.534.57.827.83l2.09 1.411a9.738 9.738 0 0 0 5.066.99l2.463-.52a9.798 9.798 0 0 0 2.701-1.472l.976.658a7.72 7.72 0 0 0 4.018.786l1.953-.413a7.75 7.75 0 0 0 3.24-2.196c.186-.213.358-.437.52-.67.056.057.11.115.17.167l.998.674c.764.376 1.57.533 2.419.472L35.842 17a4.664 4.664 0 0 0 1.95-1.322 4.705 4.705 0 0 0 1.14-3.435" mask="url(#m)"/>
            </g>
            <path fill="#E8E8E8" d="M12 12.604c-.61.934-1.965 1.508-3.256 1.378C7.452 13.852 6.31 13.026 6 12c.762.625 1.754.912 2.824 1.05 1.07.139 2.212-.044 3.176-.446M23 11c-.242 1.456-1.334 2.683-2.626 2.946-1.292.263-2.697-.454-3.374-1.722.965.577 2.025.627 3.107.45 1.08-.179 2.114-.81 2.893-1.674"/>
            <path fill="#E8E8E8" d="M36.12 13.978c-2.066 0-3.941-.956-5.22-2.442-1.163 2.234-3.49 3.788-6.127 3.788-1.732 0-3.328-.676-4.553-1.77-1.239 1.826-3.319 3.043-5.638 3.043-2.387 0-4.515-1.291-5.74-3.204-.905.432-1.9.67-2.914.67-2.27 0-4.419-1.172-5.675-3.063a4.817 4.817 0 0 0-.24 1.896 4.812 4.812 0 0 0 1.592 3.212c.34.23.678.46 1.017.688.78.384 1.6.545 2.465.484l1.198-.254c.252-.091.49-.201.717-.327.262.296.539.578.836.842l2.11 1.429a9.8 9.8 0 0 0 5.117 1.003l2.488-.527c1-.36 1.91-.858 2.729-1.492l.986.668a7.77 7.77 0 0 0 4.057.796l1.974-.419a7.829 7.829 0 0 0 3.27-2.225c.19-.217.364-.444.526-.68.058.058.112.116.172.17l1.008.683c.772.38 1.586.54 2.444.479l1.188-.253a4.702 4.702 0 0 0 1.97-1.34A4.772 4.772 0 0 0 39 13.322a6.722 6.722 0 0 1-2.88.657"/>
            <g>
                <g transform="translate(146)">
                    <mask id="o" fill="#fff">
                        <use xlink:href="#n"/>
                    </mask>
                    <path fill="#F5F5F5" d="M38.948 14.431c-.22-2.924-2.647-4.687-5.367-4.687a3.81 3.81 0 0 0-.99.134 5.59 5.59 0 0 0 .235-2.012c-.244-3.255-2.946-5.219-5.976-5.219-1.719 0-3.202 1.025-4.127 2.44a8.165 8.165 0 0 0-1.79-2.321c-.656-.759-1.396-1.402-2.353-1.81-.791-.34-1.593-.709-2.448-.802a44.525 44.525 0 0 0-2.338-.141c-1.525.119-2.857.627-4.127 1.483C7.822 2.74 6.532 4.764 6.112 6.971c-.017.087-.028.176-.042.264A6.997 6.997 0 0 0 .721 11.09a7.23 7.23 0 0 0-.703 3.684l.117.567c.04.268.095.533.164.795l.09.43c.346.99.884 1.847 1.592 2.589.062.065.125.131.19.195.063.06.117.127.182.186l.032.023.062.042c.418.365.875.68 1.365.935l.054.036c.333.166.672.3 1.017.41.047.016.095.03.143.044.194.057.388.025.585.064l.003-.082h.003c.195 0 .393.148.592.17.046.005.092.05.14.054.19.016.382.047.576.047.01 0 .02.012.03.012.165 0 .332 0 .5-.012.032-.003.063-.008.094-.01.133-.012.264-.031.396-.05.07-.011.141-.017.21-.031.301-.053.594-.133.883-.227 1.647 3.057 5.226 5.03 8.723 3.522l.19-.082c.162-.07.32-.15.475-.23 1.492-.622 2.775-1.761 3.583-3.423a6.97 6.97 0 0 0 .286-.685l.08.056a7.03 7.03 0 0 0 3.705.734l1.8-.387a7.113 7.113 0 0 0 2.796-1.859c.98.836 2.287 1.296 3.674 1.296 2.724 0 4.793-2.866 4.598-5.47" mask="url(#o)"/>
                </g>
                <path fill="#E8E8E8" d="M159 17.906c-.71 1.401-2.293 2.262-3.8 2.066-1.506-.195-2.839-1.433-3.2-2.972.89.937 2.046 1.369 3.294 1.576 1.248.207 2.582-.067 3.706-.67"/>
                <path fill="#E8E8E8" d="M184.987 14.558A4.873 4.873 0 0 0 184.06 12c-1.14 2.033-3.278 3.429-5.69 3.429a6.32 6.32 0 0 1-3.307-.95c-.94 1.955-2.792 3.417-5.567 3.417a6.825 6.825 0 0 1-1.852-.252c-.717 2.43-2.676 4.418-5.89 4.418-2.748 0-4.577-1.455-5.5-3.394-.03.02-.06.042-.09.06a6.352 6.352 0 0 1-3.285.912l-1.73-.239c-.564-.193-1.15-.371-1.642-.716a6.602 6.602 0 0 1-2.328-2.387 3.318 3.318 0 0 1-.179-.292c.018.078.028.157.048.235l.087.425c.34.978.869 1.825 1.563 2.558.062.064.124.13.188.192.061.06.115.126.178.184l.031.023.061.042c.41.36.859.671 1.34.923l.053.036c.327.164.66.297.998.405.047.016.094.03.141.044.19.056.38.122.574.16l.003.017h.003c.192 0 .386.049.58.07.047.005.092.001.138.005.187.016.376.023.566.023l.03-.001c.162 0 .326-.007.49-.018l.093-.014c.13-.011.259-.032.388-.05.07-.01.139-.018.207-.032.295-.052.583-.132.867-.224 1.616 3.02 5.129 4.97 8.562 3.479l.186-.08c.16-.07.314-.15.467-.227 1.465-.615 2.724-1.741 3.517-3.383.107-.22.199-.446.281-.677l.08.055a6.863 6.863 0 0 0 3.635.725l1.768-.381a6.98 6.98 0 0 0 2.744-1.837c.961.825 2.246 1.28 3.606 1.28 2.675 0 4.706-2.832 4.514-5.405"/>
            </g>
            <g>
                <g transform="translate(39 1)">
                    <mask id="q" fill="#fff">
                        <use xlink:href="#p"/>
                    </mask>
                    <path fill="#F5F5F5" d="M62.653 24.305A7.431 7.431 0 0 0 60.11 19.3l-1.624-1.073a7.892 7.892 0 0 0-1.473-.537l-.008-.002.01-.158a8.522 8.522 0 0 0-.61-2.544l-.313-1.46a8.78 8.78 0 0 0-2.52-3.678c-1.785-1.546-4.179-2.33-6.55-2.15-.672.05-1.33.186-1.968.384-.486-1.977-1.552-3.81-3.175-5.162-1.634-1.36-2.855-1.911-4.92-2.41-.953-.231-1.978-.233-2.962-.154a9.827 9.827 0 0 0-4.695 1.612l-1.87 1.617a9.618 9.618 0 0 0-1.488 2.239c-.037.07-.078.136-.114.206a10.085 10.085 0 0 0-1.055 3.908c-1.02-.36-2.15-.537-3.204-.427a7.287 7.287 0 0 0-3.481 1.195 7.159 7.159 0 0 0-1.995 1.992c-1.68-.734-3.563-1.123-5.514-1.123-6.153 0-10.824 6.247-10.382 11.926.495 6.375 5.975 10.217 12.117 10.217 2.277 0 4.349-.856 6.035-2.222a10.531 10.531 0 0 0 3.977 3.384c.045.02.092.033.138.052.87.41 1.765.7 2.683.868a7.378 7.378 0 0 0 1.976.178c.263 0 .527-.008.794-.026.714-.058 1.403-.18 2.072-.365 1.29-.261 2.498-.76 3.619-1.499a10.043 10.043 0 0 0 2.418-2.256c.179.184.362.364.557.533l2.015 1.331a9.565 9.565 0 0 0 4.886.935l2.375-.492a9.413 9.413 0 0 0 3.937-2.613c.208-.232.398-.477.58-.728.938.698 1.925 1.091 3.124 1.358.71.158 1.473.121 2.21.122l1.913-.396a7.588 7.588 0 0 0 3.173-2.106 7.398 7.398 0 0 0 1.855-5.471" mask="url(#q)"/>
                </g>
                <path fill="#E8E8E8" d="M64 26.208c-1.016 1.869-3.275 3.016-5.428 2.755-2.151-.26-4.056-1.91-4.572-3.963 1.27 1.25 2.922 1.825 4.705 2.102 1.784.276 3.688-.09 5.295-.894M93 25c-.346 1.924-1.974 3.557-3.912 3.921-1.936.365-4.055-.563-5.088-2.227 1.456.75 3.05.8 4.672.552C90.295 26.997 91.838 26.15 93 25"/>
                <g transform="translate(39 22)">
                    <mask id="s" fill="#fff">
                        <use xlink:href="#r"/>
                    </mask>
                    <path fill="#E8E8E8" d="M62.64 3.903c-.165.192-.329.386-.508.566a10.365 10.365 0 0 1-4.587 2.699l-2.764.375c-.13.017-.257.017-.388.017-1.49 0-2.952-.338-4.292-.95-1.883 1.817-4.42 2.947-7.182 2.947-2.6 0-5.002-1.002-6.847-2.637a10.34 10.34 0 0 1-.774.886 10.387 10.387 0 0 1-7.351 3.073c-2.747 0-5.41-1.114-7.351-3.073a10.465 10.465 0 0 1-1.783-2.42c-1.91 2.475-4.882 4.09-8.173 4.09C5.443 9.477 1.04 5.453.365.37.19 1.302.128 2.25.2 3.181c.496 6.538 5.975 10.48 12.117 10.48 2.277 0 4.349-.88 6.035-2.28a10.603 10.603 0 0 0 3.977 3.47c.045.02.092.035.137.054.871.42 1.766.717 2.685.89.691.162 1.341.209 1.975.182.263 0 .527-.007.794-.026a10.788 10.788 0 0 0 2.071-.375 10.05 10.05 0 0 0 3.62-1.537c.945-.648 1.75-1.42 2.418-2.314.179.189.362.373.557.547l2.015 1.366a9.354 9.354 0 0 0 4.885.958l2.376-.505a9.403 9.403 0 0 0 3.937-2.68c.208-.238.398-.49.58-.746.939.716 1.925 1.119 3.124 1.392.71.162 1.473.125 2.21.126l1.913-.407a7.574 7.574 0 0 0 3.172-2.16 7.71 7.71 0 0 0 1.856-5.61c-.003-.035-.01-.069-.013-.103" mask="url(#s)"/>
                </g>
            </g>
        </g>
    </g>
</svg>
