<svg xmlns="http://www.w3.org/2000/svg" xmlns:xlink="http://www.w3.org/1999/xlink" width="212" height="133" viewBox="0 0 212 133">
    <defs>
        <path id="a" d="M10.807.585c2.563 7.324 3.516 11.57 2.858 12.738-.657 1.167-4.796 4.032-12.417 8.593L0 19.286l9.167-8.167-1.835-8.147c-.115-.892.162-1.67.831-2.336.67-.666 1.55-.683 2.644-.051z"/>
        <path id="c" d="M.12.034h20.833v32.948H.121z"/>
        <path id="e" d="M0 .102h17.414v15.57H0z"/>
        <path id="g" d="M.12.034h20.833v32.948H.121z"/>
        <path id="i" d="M0 .102h17.414v15.57H0z"/>
    </defs>
    <g fill="none" fill-rule="evenodd">
        <path fill="#066360" d="M47.512 122.152c-21.414.39-35.541 1.502-42.382 3.338-10.26 2.754-3.918 4.438 8.343 6.05s32.838 1.562 48.012 1.358c15.173-.205 47.766-.443 76.578-.568 28.812-.125 34.533.125 54.16 0 19.626-.125 33.006-6.005-1.561-8.436-23.045-1.62-70.761-2.201-143.15-1.742z"/>
        <g transform="translate(46.53 .094)">
            <path fill="#FFF" stroke="#00C9C3" stroke-width=".5" d="M6.228.25h90.88v61.214H6.228z"/>
            <path fill="#297CA5" d="M30.345 49.744a.64.64 0 0 1 .84.34l2.753 6.51-1.18.502-2.753-6.51a.643.643 0 0 1 .34-.842z"/>
            <path fill="#0C4663" d="M29.464 53.571h5.978v6.857h-5.978z"/>
            <path fill="#083146" d="M34.74 54.333l.702-.762v6.858h-5.978c2.636-.585 4.257-1.228 4.862-1.927.606-.7.744-2.09.414-4.17z"/>
            <path stroke="#4FA9D6" stroke-width=".5" d="M19.892 40.964h2.062v6.786h-2.062zM23.308 37.536h2.062V47.75h-2.062zM26.724 40.964h2.062v6.786h-2.062zM20.923 16.09c1.164-.726 1.995-1.09 2.494-1.09.748 0 .392.836 1.08.917.687.08 1.708-.488 2.562-.488.854 0 1.865.768 3.02.857.768.059 2.032-.227 3.791-.857M21.777 18.436c.681-.29 1.271-.436 1.77-.436.749 0 1.26.355 1.947.436.687.08.69-.436 1.545-.436.854 0 .083.769 1.237.857.769.059 1.338-.082 1.708-.421"/>
            <path fill="#0F638D" d="M0 60.429h44.836v3.857H0z"/>
            <path fill="#042434" d="M38.723 57h3.259a2 2 0 0 1 2 2v1.429h-7.26V59a2 2 0 0 1 2-2z"/>
            <path stroke="#4FA9D6" stroke-width=".5" d="M54.87 46.286c10.023 0 18.148-8.155 18.148-18.215 0-.263-.028-.796-.085-1.598H54.87V9.857c-10.022 0-18.147 8.155-18.147 18.214 0 10.06 8.125 18.215 18.147 18.215z"/>
            <ellipse cx="46.757" cy="25.929" stroke="#4FA9D6" stroke-width=".5" rx="3.63" ry="3.643"/>
            <path stroke="#4FA9D6" stroke-width=".5" d="M56.365 25.059h16.44v-.378c0-9.134-7.36-16.538-16.44-16.538V25.059zM43.328 39.429c-2.73 4.424-2.53 6.812.6 7.165"/>
            <path stroke="#4FA9D6" stroke-width=".5" d="M43.261 45l.802 1.515L42.7 47.62M47.08 47.711c0-.298.572-1.425.925-1.425.235 0 .235.475 0 1.425.579-.106.94-.106 1.082 0 .142.106.053.35-.269.73.18.143.269.322.269.536 0 .135-.269.224-.269.504 0 .168.26.487 0 .545H45.69V48.01c.926 0 1.39-.1 1.39-.298z"/>
            <g stroke="#4FA9D6" stroke-width=".5">
                <path d="M76.434 10.128c1.812-1.323 3.052-1.985 3.72-1.985 1.001 0 .707 1.949 2.245 2.124 1.538.176 2.976-.958 4.218-1.054.828-.064 1.846.1 3.055.494M76.434 13.885c.532-.685 1.315-1.028 2.351-1.028.958 0 1.976 1.328 3.11 1.281 1.538-.063 2.075-.887 3-.925.986-.04 1.855 1.006 2.686.925.348-.033 1.045-.46 2.09-1.28M76.861 17.425c.389-.727 1.3-1.107 2.735-1.139 1.04-.023 1.857 1.324 2.564 1.64.757.338 1.78-.598 3.096-.501 1.696.125 3.025.207 3.989.248"/>
            </g>
            <ellipse cx="45.69" cy="25.286" stroke="#4FA9D6" stroke-width=".5" rx="1" ry="1"/>
            <ellipse cx="47.825" cy="25.286" stroke="#4FA9D6" stroke-width=".5" rx="1" ry="1"/>
            <path stroke="#4FA9D6" stroke-width=".5" d="M44.836 26.571c.353.992 1.01 1.487 1.973 1.487.962 0 1.616-.495 1.963-1.487M68.748 18.39c1.702-3.117 3.219-4.676 4.55-4.676"/>
            <path stroke="#4FA9D6" stroke-width=".5" d="M71.737 13.334l1.545.395-.772 1.233"/>
        </g>
        <g fill="#003A4C">
            <path d="M119.12 93.937v31.206h2.562V93.429M117.412 125.143h6.406v2.571h-6.406z"/>
        </g>
        <path fill="#B35144" d="M136.169 92.31l-12.58 4.388-18.251-.402 11.595-3.885"/>
        <path fill="#AC4D40" d="M136.169 93.037l-12.599 4.535-17.912-.299v-1.009l17.912.205 12.599-4.649z"/>
        <path fill="#C75F50" d="M119.547 72.262c1.566-2.364 4.32-3.592 8.261-3.685 3.942-.094 6.508 1.089 7.7 3.547l.66 20.41-16.62.138v-20.41z"/>
        <path fill="#B95649" d="M131.496 70.286c2.787-.31 4.145.907 4.075 3.65l.598 18.597c-7.252.317-10.834.363-10.747.139.424-1.099 7.438-2.813 7.255-4.68-.68-6.939-4.274-17.363-1.18-17.706z"/>
        <path fill="#56A0B7" d="M87.962 123.857h4.21V80.76h-4.21z"/>
        <path fill="#468193" d="M86.676 122.571h7.67c1.184 0 2.143.96 2.143 2.143H84.533c0-1.183.96-2.143 2.143-2.143z"/>
        <path fill="#7FBED2" d="M64.096 77.571h51.318v2.924c-14.386.307-25.184.461-32.394.461-7.209 0-17.807-.154-31.794-.461v-2.733l12.87-.19z"/>
        <path fill="#053D4E" d="M78.61 67.853l6.005.524a2 2 0 0 1 1.614 1.097l3.783 7.556-9.124.718-3.298-8.538a1 1 0 0 1 1.02-1.357z"/>
        <path fill="#EEF9FD" d="M80.357 69.226l4.18.232a2 2 0 0 1 1.699 1.148l1.224 2.608a2 2 0 0 1-1.638 2.842l-2.752.24a2 2 0 0 1-2.046-1.291l-1.659-4.43a1 1 0 0 1 .992-1.35z"/>
        <path fill="#053D4E" d="M90.012 76.906h6.365l-2.536.842H81.013"/>
        <path fill="#022A36" d="M77.469 68.58v-.866l-.652.865 3.864 9.825h13.16l2.536-.891v-.607l-2.536.842H81.013z"/>
        <path fill="#FBBFA1" d="M114.234 118.82l.786 1.594 1.913-.414-1.35-2.676"/>
        <path fill="#034045" d="M115.02 120.414c.09.454-.007.798-.292 1.03-.427.349-1.764 1.767-1.764 2.363 0 .398.342.753 1.028 1.066 2.28-1.94 3.542-3.094 3.788-3.461.246-.368-.136-1.013-1.147-1.936"/>
        <path fill="#FBBFA1" d="M48.873 122.571v3.029h-2.259v-3.029"/>
        <path fill="#118C8C" d="M48.873 125.571c2.918 1.072 4.567 1.643 4.948 1.715.38.071.523.523.427 1.356-4.235 0-6.78-.006-7.634-.017-.854-.01-.854-1.029 0-3.054"/>
        <path fill="#184F75" d="M51.548 66.94v28.927c0 3.003-.79 11.934-2.372 26.793H45.76V95.867c-2.847-7.64-4.27-14.219-4.27-19.74 0-5.52.397-9.324 1.191-11.413l8.867 2.226z"/>
        <path fill="#ECAF90" d="M45.992 38.571l-4.27 11.767-1.45 16.585-1.344 4.206 2.794 3.203.738-10.475"/>
        <path fill="#FBBFA1" d="M65.163 122.571l.468 2.94h-2.369l-.507-2.94z"/>
        <path fill="#118C8C" d="M65.618 125.511c3.434.96 5.393 1.565 5.876 1.817.483.253.483.69 0 1.314l-8.227-.107v-2.964l2.351-.06z"/>
        <path fill="#0E5F96" d="M44.92 64.714c-1.801 5.037-2.123 9.158-.965 12.363 1.158 3.205 4.37 9.084 9.636 17.637l7.428 28.29 4.6-.344-4.6-29.676-4.428-25.938"/>
        <path fill="#FBBFA1" d="M49.336 24.857c1.035 1.97 1.773 3.53 2.212 4.682.66 1.725 1.896 4.384.56 4.747-.89.242-3.006.22-6.348-.066-1.033-2.006-1.336-3.566-.91-4.681.426-1.116 1.921-2.676 4.486-4.682z"/>
        <path fill="#FFD052" d="M52.704 40.174c1.04.434 3.52 14.185 7.435 41.255-4.594.681-8.072.824-10.434.428-2.363-.396-5.84-1.704-10.435-3.925 3.97-24.708 6.134-38.14 6.49-40.293.535-3.23 5.382 1.885 6.944 2.535z"/>
        <path fill="#F4C442" d="M52.704 40.174c1.04.434 3.52 14.185 7.435 41.255-4.594.681-8.072.824-10.434.428-2.363-.396-5.84-1.704-10.435-3.925 7.284 1.327 11.762.481 13.434-2.538 2.508-4.53-1.562-35.87 0-35.22z"/>
        <g>
            <path fill="#FBBFA1" d="M51.157 41.216c.819-.901 4.47-3.655 10.954-8.26l4.93-8.91v-3.449c2.699-2.249 4.304-3.283 4.815-3.101.512.182.237 1.688-.823 4.52l-1.538 2.841-4.331 11.955c-6.657 5.623-10.325 8.627-11.005 9.013-1.02.578-2.915.759-3.67-.688-.755-1.447-.56-2.569.668-3.92z"/>
            <path fill="#F2B597" d="M55.286 43.654c1.094-.347 3.851-2.379 6.645-4.479.796-.598 1.873-1.385 3.233-2.363-6.657 5.623-10.325 8.627-11.005 9.013-1.02.578-2.915.759-3.67-.688-.755-1.447 2.551-.77 4.797-1.483z"/>
            <path fill="#004966" d="M67.026 20.624l9.555-3.053h1.404l-1.096 1.031-9.863 3.235z"/>
            <path fill="#FBBFA1" d="M69.588 21.86l1.266-1.221c-.157-.925-.157-1.488 0-1.69.157-.2.496-.074 1.016.381l.427 1.309-1.443 1.7"/>
        </g>
        <path fill="#F5B595" d="M51.523 34.286l-.907 4.351-4.002-1.714v-2.637"/>
        <path fill="#004966" d="M51.733 24.619c0 1.195-.85 1.75-2.19 2.895-.893.762-2.046 1.343-3.456 1.741.565 4.017.964 7.174 1.197 9.47.596 5.873 3.999 12.282 2.562 15.096-1.436 2.814-2.904 3.13-7.686 4.422-4.782 1.291-7.425-.765-7.139-1.72.618-2.064.792-10.016 1.768-17.193.721-5.308 1.427-9.926 2.072-11.816.334-.978 1.82-2.147 4.457-3.508 2.472-.861 4.275-1.292 5.41-1.292 1.701 0 3.005.71 3.005 1.905z"/>
        <g>
            <path fill="#ECAA88" d="M136.2 61.286l-2.389 5.56-7.858 6.065 1.063 2.946 7.577-5.473"/>
            <path fill="#ECB295" d="M137.397 105.468l1.973 17.253c-2.742.736-4.396 1.257-4.962 1.565-1.32.716-1.336 1.34-.9 1.34.718 0 3.438-.019 8.159-.055v-18.857l-4.27-1.246z"/>
            <path fill="#356270" d="M135.11 124.583c-1.006-.13 1.044-.947.693-.833-.68.22-1.144.4-1.395.536-1.32.716-1.336 1.34-.9 1.34.718 0 3.438-.019 8.159-.055v-2.03c-3.701.782-5.887 1.13-6.557 1.042z"/>
            <path fill="#FBBFA1" d="M136.116 106.714l8.069 16.577-1.86.995-.765.425v.94h3.917l1.42-1.365a3403.433 3403.433 0 0 0-7.005-17.175c-1.352-3.272-1.188-3.82.494-1.643"/>
            <path fill="#356270" d="M144.214 123.315c-2.053.722-3.202 1.188-3.449 1.4-.247.21-.373.496-.38.856 3.757.168 5.925.168 6.507 0 .58-.167.493-.844-.265-2.03-2.455.782-3.785 1.104-3.987.965-.203-.139.322-.536 1.574-1.191z"/>
            <path fill="#ECAA88" d="M134.408 43.387l1.565 4.184 4.413-1.178L138.16 42"/>
            <path fill="#F9EBDB" d="M135.948 47.342l-3.675 32.714 18.36.944-7.973-35.571z"/>
            <path fill="#118C8C" d="M133.335 79.714l-5.333 27h23.913l-4.056-26.324"/>
            <path fill="#FBBFA1" d="M144.733 51.857l7.182 15.234-7.182 11.766c0 3.555-.322 5.332-.965 5.332-.966 0-1.687-1.088-2.101-2.356-.276-.846-.01-2.296.797-4.352l5.885-9.83-6.682-13.356 3.066-2.438zM133.667 35.571c-2.324 5.258-2.776 8.213-1.355 8.866 1.42.652 4.567-1.065 9.44-5.152l-7.312-3.714"/>
            <path fill="#004966" d="M132.273 31.74c-1.764.777-.024 3.988 1.684 4.568 1.708.581 4.35.928 4.682 2.222.221.862-.144 2.797-1.097 5.805-1.902 4.181-2.378 6.729-1.426 7.643 1.426 1.37 1.571.109 2.82.703 1.247.594 1.291 3.847 3.421 3.803 2.13-.043 6.272-1.587 7.553-4.28 1.281-2.691-.853-3.957-2.94-7.138-2.086-3.181-1.45-9.19-3.63-11.155-2.181-1.966-8.115-3.472-11.067-2.171z"/>
            <path fill="#FBBFA1" d="M138.237 39.05c1.103-.016 1.655.235 1.655.755 0 .779-.624 1.537-1.176 1.889-.368.234-.888.234-1.56 0l1.081-2.643z"/>
        </g>
        <g>
            <path fill="#FBBFA1" d="M88.622 118.574l-.66 2.686 2.659.632.316-1.892z"/>
            <path fill="#034045" d="M88.08 120.857c-.109.37-.674.89-1.694 1.556-1.53 1-2.631.587-3.134.976-.336.26-.336.679 0 1.258h4.16c.58 0 .785-.512 1.55-.974.381-.23.96-.333 1.352-.673.262-.227.372-.792.328-1.695"/>
        </g>
        <g>
            <path fill="#FBBFA1" d="M97.915 75.429c-.115 0-2.823-.257-2.998-.236-.431.053-1.086.368-1.964.946-1.1.226-1.744.393-1.933.5-.189.108-.424.276-.706.504 2.425-.098 3.889-.098 4.393 0 .45.088-1.022.498-.963.57.07.083.222.265.296.263.327-.01.943-.239 1.74-.419.398-.09 1.11-.228 2.135-.414.543-1.143.543-1.714 0-1.714z"/>
            <path fill="#035B5D" d="M117.51 64.517l-7.027 9.577-12.647.803v2.66c8.178.083 12.702.083 13.572 0 .87-.082 1.65-.555 2.338-1.418"/>
        </g>
        <path fill="#136D9A" d="M110.988 84.36c-7.228 2.319-11.011 4.187-11.348 5.605-.336 1.418 2.007 1.418 7.03 0 5.274-1.775 8.208-3.05 8.804-3.822.595-.773-.9-1.367-4.486-1.783z"/>
        <path fill="#ECAA88" d="M120.327 60.92l-.563 2.828c-.56.849-.189 1.454 1.117 1.815 1.306.362 2.202-.313 2.69-2.022V60"/>
        <path fill="#FBBFA1" d="M122.151 52.116c-1.913 1.834-3.17 3.28-3.772 4.338-.903 1.588-1.51 4.07 0 4.832 1.007.507 4.364-.589 10.071-3.287.34-2.666.001-4.455-1.018-5.365-1.019-.91-2.78-1.083-5.28-.518z"/>
        <path fill="#006769" d="M126.816 65.542c.535 1.485.688 7.558.458 18.22-2.21 1.312-3.786 2-4.73 2.067-7.742.54-11.52-1.12-11.52-1.538 0-.368-.348-4.604 2.16-12.161.859-2.59 3.918-6.91 4.636-7.85.478-.628 1.177-.95 2.096-.966-.422.879-.036 1.414 1.156 1.606 1.192.192 2.043-.428 2.553-1.86 1.593.17 2.656.997 3.191 2.482z"/>
        <path fill="#0F638D" d="M127.27 83.505c.444 6.408-.826 10.197-3.81 11.368-4.474 1.757-20.938.189-23.394 2.878-1.638 1.793-4.659 9.303-9.063 22.53l-3.243-1.877c4.507-16.104 7.575-25.379 9.207-27.823 1.63-2.444 11.732-4.802 30.303-7.076z"/>
        <path fill="#136D9A" d="M110.988 84.36c-8.107 2.057-12.329 3.794-12.665 5.211-.019.078 5.12 9.907 15.414 29.488l2.736-1.917-9.075-27.175c-.56-.532-.56-1.236 0-2.11.56-.874 1.756-2.04 3.59-3.497z"/>
        <path fill="#004966" d="M121.059 51.107c-.85 1.484.85 2.651 1.93 3.726.72.717 1.833 1.225 3.34 1.523l-3.34 4.069.593.647c4.488-.882 7.008-1.888 7.558-3.02.51-1.049-1.417-2.872-2.852-5.108-.885-1.38-1.023-3.44-1.96-4.012-2.453-1.5-4.419.692-5.27 2.175z"/>
        <path fill="#FBBFA1" d="M125.39 56.254c.763.34 1.07.773.92 1.297-.096.341-.753.95-1.547 1.223-.283.097-.72-.011-1.31-.325l1.938-2.195z"/>
        <g>
            <path fill="#F5B595" d="M61.676 57.832l-.362 4.965H56.35L57.652 57"/>
            <path fill="#FBBFA1" d="M63.975 57.429c-.92 1.318-3.797.957-8.63-1.082 2.086-5.099 3.532-8.009 4.339-8.73 1.209-1.08 5.096 8.66 4.291 9.812z"/>
            <path fill="#DEDEDE" d="M60.556 63.955c1.024-1.213 2.645-1.27 4.864-.172 3.33 1.648 5.388 3.597 7.229 6.173 1.841 2.575 4.624 6.888 3.409 7.98-.364.327-3.91.49-10.638.493l-4.864-14.474z"/>
            <path fill="#CBCBCB" d="M68.455 71.164c1.866 2.31 5.108 5.822 4.38 6.816-.219.298-3.173.447-8.863.449 1.744-6.385 3.239-8.806 4.483-7.265z"/>
            <path fill="#FBBFA1" d="M92.369 118.086l1.315 1.39-1.125.805-1.914-1.098z"/>
            <path fill="#99DCDC" d="M93.684 119.476c.846.222 1.656.222 2.43 0 1.162-.333 1.506-1.084 2.784-.417.737.386-.586 1.247-2.157 2.385-1.15.833-1.906 1.654-2.386 1.484-.374-.132-.973-1.014-1.796-2.647"/>
            <path fill="#034045" d="M66.172 88.286l26.387 29.858-2.219 1.332L59.3 93.217z"/>
            <path fill="#AF4C3E" d="M66.599 93.857h17.546l-17.546 4.335"/>
            <path fill="#9C3F32" d="M66.599 98.063v1.35l17.309-4.653v-.903z"/>
            <path fill="#FBBFA1" d="M76.457 123.333l-.61 1.435-2.057-.718.534-1.853"/>
            <path fill="#99DCDC" d="M75.822 124.768c.442.691.896 1.236 1.363 1.636.7.599 1.66.822 1.995 1.237.224.276.121.658-.307 1.145l-6.268-2.003 1.185-2.76 2.032.745z"/>
            <path fill="#005960" d="M54.588 94.91c4.527 2.28 21.99.348 21.99 1.332 0 .985-.767 2.546-1.358 5.821-.394 2.183-1.016 8.977-1.868 20.382l3.225.888c6.149-20.53 8.73-31.305 7.744-32.33-1.478-1.535-7.084-2.754-15.003-4.085-2.752-.462-8.62-.462-17.604 0 .734 4.733 1.692 7.397 2.874 7.992z"/>
            <path fill="#CBCBCB" d="M52.784 64.28C48.12 71.711 46.169 76 46.93 77.142c1.164 1.745 4.529 1.745 10.097 0-.871-4.437-1.761-7.676-2.67-9.717-.909-2.04-1.434-3.09-1.574-3.147z"/>
            <path fill="#DEDEDE" d="M53.315 64.041c1.664-1.094 5.144-2.074 9.642-1.378 2.98.462 3.821 4.998 4.77 9.691.631 3.13 1.307 8.346 2.025 15.65l-20.234.145c.429-7.764.807-12.854 1.135-15.271.833-6.139 1.98-8.388 2.662-8.837z"/>
            <path fill="#FFEDDC" d="M62.533 49.356c0 .491-1.078 1.393-3.232 2.707 2.11 5.705 2.11 9.107 0 10.207-3.166 1.65-6.832 1.108-8.172 0-1.34-1.108-.8-8.1 1.27-12.087 2.07-3.985 6.971-4.265 8.12-3.674 1.15.592 2.014 2.112 2.014 2.847z"/>
            <path fill="#FBBFA1" d="M59.647 53.22l1.268 2.615c-1.189-.22-1.877-.638-2.066-1.258-.107-.351-.232-.833 0-1.071.118-.121.384-.217.798-.286z"/>
            <g fill="#003A4C">
                <path d="M61.474 98.175v28.254h2.562V97.714M59.766 126.429h6.406V129h-6.406z"/>
            </g>
            <path fill="#B95649" d="M49.091 82.257c.902-5.923 4.089-8.913 9.561-8.97 5.473-.058 8.66 2.932 9.562 8.97V97.54a2 2 0 0 1-2 2H51.09a2 2 0 0 1-2-2V82.257z"/>
            <path fill="#C75F50" d="M49.091 82.257c.801-5.923 3.632-8.913 8.494-8.97 4.861-.058 7.693 2.932 8.494 8.97V97.54a2 2 0 0 1-2 2H51.09a2 2 0 0 1-2-2V82.257z"/>
            <path fill="#B95649" d="M61.474 93c3.924 0 5.886-3.581 5.886-10.743V97.54a2 2 0 0 1-2 2H52.092a2 2 0 0 1-1.896-2.637l.2-.604C51.45 93.087 55.59 93 61.474 93z"/>
        </g>
        <path fill="#FBBFA1" d="M116.888 85.507l-3.462.71c-1.768.691-2.574 1.266-2.419 1.725.234.688 1.379 1.205 2.42 1.205.693 0 1.342-.287 1.948-.861l2.136-1.495"/>
        <g>
            <g transform="translate(116.131 65.571)">
                <mask id="b" fill="#fff">
                    <use xlink:href="#a"/>
                </mask>
                <use fill="#006769" xlink:href="#a"/>
                <path fill="#035B5D" d="M8.356 3.15a32.866 32.866 0 0 1 1.066 3.587c.245 1.074.463 2.675.654 4.806-1.18 1.062-2.431 2.184-3.754 3.366s-3.316 2.857-5.98 5.027l5.579-5.818 3.053-2.974-.618-7.995z" mask="url(#b)"/>
            </g>
        </g>
        <g>
            <path fill="#54AEAF" d="M35.871 113.172s15.593-5.054 19.511-12.296c1.889-3.49-.791-7.565-4.809-7.488-11.748.226-16.073 18.578-16.073 18.578l1.371 1.206z"/>
            <path fill="#FFF" d="M34.421 114.656l-.421-.243c.437-.724 10.65-17.718 20.651-19.047l.349.412c-9.768 1.298-20.473 18.703-20.579 18.878"/>
            <g transform="translate(19.5 83)">
                <mask id="d" fill="#fff">
                    <use xlink:href="#c"/>
                </mask>
                <path fill="#6FCCCD" d="M4.042 18.498C2.168 15.99 1.079 13.76.499 11.827-1.075 6.579 2.435 1.124 7.83.205 10.857-.31 14.59.19 18.103 3.754c7.718 7.836-2.68 29.228-2.68 29.228H11.67s-.141-4.463-7.628-14.484" mask="url(#d)"/>
            </g>
            <g transform="translate(14 99.817)">
                <mask id="f" fill="#fff">
                    <use xlink:href="#e"/>
                </mask>
                <path fill="#ADE8E8" d="M13.181 15.671S2.116 13.307.11 5.005C-.516 2.422 1.635-.028 4.338.107 18.04.792 17.409 15.671 17.409 15.671h-4.228z" mask="url(#f)"/>
            </g>
            <path fill="#FFF" d="M32.981 116.14l-.457-.109c.05-.214 4.627-21.595-7.024-31.838l.505-.204c11.867 10.433 7.026 31.934 6.976 32.15M29.582 115.645c-.077-.126-7.714-12.648-15.082-13.393l.273-.456c7.613.769 14.915 13.084 15.227 13.609l-.418.24z"/>
            <path fill="#157778" d="M25 129h14v-12.86H25z"/>
            <path fill="#DBF2F2" d="M39.53 117.624H23.47a.983.983 0 0 1-.971-.99c0-.544.437-.989.971-.989H39.53c.534 0 .97.445.97.99 0 .544-.436.989-.97.989"/>
        </g>
        <g>
            <path fill="#54AEAF" d="M165.871 113.172s15.593-5.054 19.511-12.296c1.889-3.49-.791-7.565-4.809-7.488-11.748.226-16.073 18.578-16.073 18.578l1.371 1.206z"/>
            <path fill="#FFF" d="M164.421 114.656l-.421-.243c.437-.724 10.65-17.718 20.651-19.047l.349.412c-9.768 1.298-20.473 18.703-20.579 18.878"/>
            <g transform="translate(149.5 83)">
                <mask id="h" fill="#fff">
                    <use xlink:href="#g"/>
                </mask>
                <path fill="#6FCCCD" d="M4.042 18.498C2.168 15.99 1.079 13.76.499 11.827-1.075 6.579 2.435 1.124 7.83.205 10.857-.31 14.59.19 18.103 3.754c7.718 7.836-2.68 29.228-2.68 29.228H11.67s-.141-4.463-7.628-14.484" mask="url(#h)"/>
            </g>
            <g transform="translate(144 99.817)">
                <mask id="j" fill="#fff">
                    <use xlink:href="#i"/>
                </mask>
                <path fill="#ADE8E8" d="M13.181 15.671S2.116 13.307.11 5.005C-.516 2.422 1.635-.028 4.338.107 18.04.792 17.409 15.671 17.409 15.671h-4.228z" mask="url(#j)"/>
            </g>
            <path fill="#FFF" d="M162.981 116.14l-.457-.109c.05-.214 4.627-21.595-7.024-31.838l.505-.204c11.867 10.433 7.026 31.934 6.976 32.15M159.582 115.645c-.077-.126-7.714-12.648-15.082-13.393l.273-.456c7.613.769 14.915 13.084 15.227 13.609l-.418.24z"/>
            <path fill="#157778" d="M155 129h14v-12.86h-14z"/>
            <path fill="#DBF2F2" d="M169.53 117.624H153.47a.983.983 0 0 1-.971-.99c0-.544.437-.989.971-.989h16.059c.534 0 .97.445.97.99 0 .544-.436.989-.97.989"/>
        </g>
    </g>
</svg>
