<svg xmlns="http://www.w3.org/2000/svg" xmlns:xlink="http://www.w3.org/1999/xlink" width="199" height="134" viewBox="0 0 199 134">
    <defs>
        <path id="a" d="M.229.065h39.439v63.472H.228z"/>
        <path id="c" d="M0 .192h32.797v29.48H0z"/>
    </defs>
    <g fill="none" fill-rule="evenodd">
        <path fill="#045454" d="M9.79 121.294c7.36-4.767 148.578-.744 161.252 0 12.675.744 10.346 2.396 2.598 5.206-7.75 2.81-40.65 7.542-75.603 7.5-32.234-.04-69.591-2.502-73.877-5.753-4.287-3.25-21.73-2.185-14.37-6.953z"/>
        <path fill="#0D4D6D" d="M9.424 96.04c22.52 38.07 50.223 35.213 97.862 29.664 47.639-5.55 94.082 2.884 91.423-41.114-1.38-22.835-27.219-48.925-65.343-54.231-25.377-3.532-33.78-33.84-87.183-29.184C7.879 4.515-13.096 57.969 9.423 96.04z" opacity=".102"/>
        <path fill="#28AAAB" d="M142.55 97s29.01-9.45 36.301-22.994c3.513-6.526-1.473-14.148-8.948-14.004C148.046 60.424 140 94.744 140 94.744L142.55 97z"/>
        <path fill="#78D0D0" d="M138.782 100l-.782-.453c.81-1.35 19.777-33.066 38.353-35.547l.647.77c-18.14 2.423-38.021 34.903-38.218 35.23"/>
        <g transform="translate(111 41)">
            <mask id="b" fill="#fff">
                <use xlink:href="#a"/>
            </mask>
            <path fill="#35B8B9" d="M7.652 35.635c-3.547-4.832-5.61-9.127-6.707-12.852C-2.035 12.673 4.61 2.166 14.824.396 20.554-.598 27.623.363 34.27 7.23c14.612 15.096-5.074 56.306-5.074 56.306h-7.104s-.268-8.597-14.441-27.902" mask="url(#b)"/>
        </g>
        <g transform="translate(101 73)">
            <mask id="d" fill="#fff">
                <use xlink:href="#c"/>
            </mask>
            <path fill="#52C6C6" d="M24.825 29.672S3.985 25.196.205 9.476C-.971 4.586 3.08-.053 8.17.203c25.808 1.296 24.618 29.47 24.618 29.47h-7.963z" mask="url(#d)"/>
        </g>
        <path fill="#78D0D0" d="M136.963 103l-.914-.205c.098-.407 9.254-40.974-14.049-60.408l1.01-.387c23.734 19.795 14.052 60.589 13.953 61M130.217 103c-.142-.237-14.432-23.745-28.217-25.143l.51-.857c14.244 1.444 27.905 24.564 28.49 25.549l-.783.451z"/>
        <path fill="#0A9091" d="M122 128h26v-25h-26z"/>
        <path fill="#68CACA" d="M149.221 107h-29.44c-.98 0-1.781-.9-1.781-2s.801-2 1.78-2h29.441c.979 0 1.779.9 1.779 2s-.8 2-1.779 2"/>
        <g>
            <g transform="rotate(-6 215.508 -421.89)">
                <path stroke="#F1961F" stroke-linecap="round" stroke-width="3" d="M49.802 84.053c2.547-.673 4.745-1.01 6.595-1.01 1.85 0 3.569.337 5.155 1.01"/>
                <path fill="#F1961F" d="M61.241 84.741c.5-2.45 1.592-6.241 2.915-6.241.882 0 .882.471 0 1.413 1.686-.568 2.523-.568 2.512 0-.016.853-2.596.896-3.175 2.814-.721 2.39-2.752 4.464-2.252 2.014z"/>
                <path stroke="#FFA32C" stroke-linecap="round" stroke-width="3" d="M47.336 84.553c2.547-.673 4.746-1.01 6.596-1.01 1.85 0 3.568.337 5.155 1.01"/>
                <path fill="#FFA32C" d="M58.776 85.241c.5-2.45 1.592-6.241 2.914-6.241.882 0 .882.471 0 1.413 1.686-.568 2.524-.568 2.513 0-.016.853-1.867 1.831-2.567 2.904-.7 1.073-.616 1.472-1.22 1.924-.603.453-2.14 2.45-1.64 0z"/>
                <path fill="#00BCBC" d="M.986 28.582C-2.238 62.708 7.13 82.4 29.088 87.657c5.905-.89 13.14-1.464 17.077-2.112 12.368-2.036 14.715-19.433 11.69-27.359-.913-2.392-4.333-6.611-10.26-12.656L.987 28.582z"/>
                <path fill="#00BCBC" d="M27.366 54.14c12.652 0 23.466-6.736 26.03-18.787.389-1.827-.227-6.118-1.855-13.032-2.635-11.19-7.776-15.862-16.176-18.57-.608-.195-1.748-3.418-3.836-3.418-1.652 0 .67 2.606 0 2.498a26.216 26.216 0 0 0-4.163-.331A25.975 25.975 0 0 0 15.15 5.535c-1.298.69-6.672-2.512-8.495-.68-1.823 1.83 2.748 4.759 1.823 5.72-4.636 4.821-6.045 12.343-6.045 19.608 0 14.774 10.364 23.956 24.933 23.956z"/>
                <path fill="#E6F8F8" d="M40.433 14c-11.08-2.072-18.395-.834-20.76 7.423-1.039 3.622-.386 10.49 2.769 16.398 4.047 7.578 11.588 12.767 17.991 11.11 7.019-1.818 11.738-9.952 12.385-13.614.484-2.739-.177-7.099-1.697-12.188-1.687-5.65-4.77-10.916-6.465-11.821-3.222-1.72-4.223.612-4.223 2.692z"/>
                <ellipse cx="36.92" cy="27" fill="#007F7E" rx="2.897" ry="3"/>
                <ellipse cx="47.219" cy="23.682" fill="#007F7E" rx="1.42" ry="2.247" transform="rotate(-19 47.22 23.682)"/>
                <path fill="#FFA32C" d="M45.298 29.157l-1.807 3.077a2 2 0 0 0 .373 2.487l2.053 1.883a2 2 0 0 0 3.349-1.362l.2-3.55a2 2 0 0 0-.402-1.318l-1.04-1.376a1.643 1.643 0 0 0-2.726.159z"/>
                <path fill="#008181" d="M13.191 48.344c3.1-4.647 14.924 3.295 21.295 3.78 8.168.622 13.94-.283 16.697 0 5.136.527 7.724 3.736 7.766 9.627-6.636-2.257-10.238-3.039-10.804-2.345-5.663 6.944-7.45 14.159-16.057 13.094-14.031-1.736-21.997-19.51-18.897-24.156z"/>
            </g>
            <path fill="#023751" d="M71.886 108.798l5.24 1.012-4.85 13.05-5.24-1.012zM110.244 108.798l4.85 13.05-5.24 1.013-4.85-13.051z"/>
            <g fill="#005150">
                <path d="M85.731 54.263c-5.477 1.07-10.875-3.007-12.054-9.108-1.18-6.101 2.304-11.914 7.782-12.984 5.477-1.07 10.874 3.007 12.054 9.108 1.18 6.101-2.304 11.914-7.782 12.984zm.09-1.225c4.737-.925 7.738-6.018 6.702-11.375-1.036-5.357-5.716-8.949-10.454-8.023-4.738.925-7.738 6.018-6.702 11.375 1.036 5.357 5.716 8.949 10.454 8.023z"/>
                <path d="M98.86 45.676c-1.584.648-4.508-2.548-6.53-7.14-2.022-4.591-2.377-8.839-.793-9.487 1.584-.648 4.796 2.033 6.818 6.625 2.022 4.591 2.088 9.354.505 10.002zm-.538-1.899c1.192-.487 1.069-4.241-.537-7.887-1.606-3.646-4.086-5.804-5.279-5.317-1.192.488-.857 3.84.749 7.486 1.605 3.646 3.874 6.206 5.067 5.718z"/>
            </g>
            <path fill="#0D4D6D" d="M34 36.848l27.32 76.115a13.397 13.397 0 0 0 8.593-14.667c-2.158-13.602-4.456-23.799-6.894-30.59-2.365-6.59-6.668-15.006-12.908-25.25A13.423 13.423 0 0 0 34 36.849z"/>
            <path fill="#0D4D6D" d="M61.613 112.708h64.594c0-6.604-4.85-12.206-11.386-13.151C107.644 98.519 100.115 98 92.232 98c-6.936 0-13.235.402-18.897 1.205a13.638 13.638 0 0 0-11.722 13.503z"/>
            <path fill="#023751" d="M34 37l27.613 75.651h64.594c0-1.773-2.31-2.66-6.932-2.66-17.148 0-52.381-.24-55.197-2.548-5.4-4.43-12.646-35.816-23.227-59.676C39.307 44.285 37.023 40.696 34 37z"/>
            <path fill="#023751" d="M85.774 81h3.452v31.5h-3.452z"/>
            <path fill="#0D4D6D" d="M62.106 72h38.83a9 9 0 0 1 9 9h-47.83v-9z"/>
            <path fill="#023751" d="M66.544 78.546l41.73-.046c.211.02.338.035.38.046.92.236 1.346 1.07 1.282 2.5H66.544v-2.5zM43.862 112.653c11.254 7.494 26.94 11.24 47.055 11.24 20.117 0 35.167-3.746 45.152-11.24v7.934C124.474 127.529 109.423 131 90.917 131c-18.505 0-34.19-3.471-47.055-10.413v-7.934z"/>
        </g>
    </g>
</svg>
