<?xml version="1.0" encoding="UTF-8"?>
<svg width="375px" height="591px" viewBox="0 0 375 591" version="1.1" xmlns="http://www.w3.org/2000/svg" xmlns:xlink="http://www.w3.org/1999/xlink">
    <!-- Generator: Sketch 54 (76480) - https://sketchapp.com -->
    <title>bg_5.2.1 Insurance (Thankyou)</title>
    <desc>Created with Sketch.</desc>
    <defs>
        <polygon id="path-1" points="0.0705749979 0.336989423 66.8497429 0.336989423 66.8497429 62.92125 0.0705749979 62.92125"></polygon>
        <polygon id="path-3" points="0.162133333 0.107818713 72.546345 0.107818713 72.546345 87.4674795 0.162133333 87.4674795"></polygon>
        <polygon id="path-5" points="0.0490366197 0.107939181 55.4922667 0.107939181 55.4922667 87.4674795 0.0490366197 87.4674795"></polygon>
        <polygon id="path-7" points="0.0167068763 0.317312281 80.5801945 0.317312281 80.5801945 102.525959 0.0167068763 102.525959"></polygon>
        <polygon id="path-9" points="0.35269108 0.317312281 68.9997521 0.317312281 68.9997521 102.525959 0.35269108 102.525959"></polygon>
    </defs>
    <g id="5.0-Result+Dashboard" stroke="none" stroke-width="1" fill="none" fill-rule="evenodd">
        <g id="5.2.1-Insurance-(Thankyou)" transform="translate(0.000000, -76.000000)">
            <g id="bg_5.2.1-Insurance-(Thankyou)" transform="translate(-60.000000, 76.000000)">
                <rect id="Rectangle" fill="#00A7A7" x="60" y="0" width="375" height="235"></rect>
                <g id="Grass" transform="translate(362.500000, 208.500000) scale(-1, 1) translate(-362.500000, -208.500000) translate(284.000000, 152.000000)">
                    <g id="Group-3" transform="translate(90.000000, 50.000000)">
                        <mask id="mask-2" fill="white">
                            <use xlink:href="#path-1"></use>
                        </mask>
                        <g id="Clip-2"></g>
                        <path d="M62.7460384,50.2075471 C68.783217,43.2103067 68.0761277,32.5820856 61.1655563,26.4686625 C58.1182527,23.7711721 54.202342,22.2943067 50.1548241,22.3136913 C49.8539223,22.3136913 49.5733598,22.388201 49.2760473,22.4015279 C49.8347795,20.7392971 50.1314938,18.9977106 50.1548241,17.2421913 C50.1548241,7.90547019 42.6801366,0.336989423 33.4598598,0.336989423 C24.2401813,0.336989423 16.7654938,7.90547019 16.7654938,17.2421913 C16.7888241,18.9977106 17.0855384,20.7392971 17.6430741,22.4015279 C17.3463598,22.4015279 17.0663955,22.3136913 16.7654938,22.3136913 C7.59008304,22.2694702 0.11599375,29.7658644 0.0711276786,39.0571529 C0.0519848214,43.1557875 1.51102946,47.1211529 4.17427946,50.2075471 C-1.55182768,56.8164894 -1.25152411,66.7862394 4.86222589,73.0299029 C-1.59190804,79.6976048 -1.48602411,90.4015471 5.09852054,96.9371913 C8.21461875,100.029643 12.4021188,101.763961 16.7654938,101.769412 L50.1548241,101.769412 C59.3745027,101.759114 66.8414134,94.1815471 66.8300473,84.844826 C66.8246634,80.4263452 65.1119759,76.1853548 62.058092,73.0299029 C68.171842,66.7862394 68.4721455,56.8164894 62.7460384,50.2075471" id="Fill-1" fill="#005960" mask="url(#mask-2)"></path>
                    </g>
                    <g id="Group-16">
                        <g id="Group-6" transform="translate(55.286385, 15.058480)">
                            <mask id="mask-4" fill="white">
                                <use xlink:href="#path-3"></use>
                            </mask>
                            <g id="Clip-5"></g>
                            <path d="M0.162133333,79.5202164 C0.162133333,79.5202164 9.15758873,15.8397135 51.4907343,0.107818713 C92.8233164,35.4024854 60.5564995,87.589152 60.5564995,87.589152 L14.9476357,120.350982 L0.162133333,79.5202164 Z" id="Fill-4" fill="#59C09C" mask="url(#mask-4)"></path>
                        </g>
                        <g id="Group-9" transform="translate(69.708920, 15.058480)">
                            <mask id="mask-6" fill="white">
                                <use xlink:href="#path-5"></use>
                            </mask>
                            <g id="Clip-8"></g>
                            <path d="M0.7936,34.7159392 L19.0206798,56.6157871 L36.0747268,0.499459649 C36.4058441,0.369354386 36.7339568,0.232623392 37.0680789,0.107939181 C37.2315343,0.247079532 37.3829709,0.38862924 37.5434216,0.527769591 L28.4091493,30.5832901 L52.4785577,19.629752 C52.5873277,19.8562316 52.6894873,20.0833135 52.7958535,20.309793 L53.0704826,20.9151439 L27.861093,32.3872959 L12.638708,82.4748105 L55.4922667,64.6003953 C55.34083,65.1834596 55.1863887,65.7617053 55.026539,66.3285064 L12.1044732,84.2312316 L1.2947831,119.796951 L0.524980282,120.351103 L0.0490366197,119.036799 L18.5279099,58.2354772 L0.0748769953,36.0627696 C0.311046009,35.6134246 0.550820657,35.1646819 0.7936,34.7159392" id="Fill-7" fill="#006769" mask="url(#mask-6)"></path>
                        </g>
                        <g id="Group-12">
                            <mask id="mask-8" fill="white">
                                <use xlink:href="#path-7"></use>
                            </mask>
                            <g id="Clip-11"></g>
                            <path d="M18.2753953,107.281909 C18.2753953,107.281909 -19.3944638,43.4893708 13.4805033,0.317312281 C102.989762,26.4552187 77.1043155,114.622014 77.1043155,114.622014 L18.2753953,107.281909 Z" id="Fill-10" fill="#004966" mask="url(#mask-8)"></path>
                        </g>
                        <g id="Group-15">
                            <mask id="mask-10" fill="white">
                                <use xlink:href="#path-9"></use>
                            </mask>
                            <g id="Clip-14"></g>
                            <path d="M13.4802028,0.317312281 C13.7914892,0.408265497 14.0949634,0.502832749 14.4050479,0.594990643 L38.6493296,84.4899965 L68.0688977,38.6887275 C68.3861934,39.2061368 68.695677,39.7241485 68.9997521,40.2445696 L39.2484657,86.5626456 L46.2439962,110.77126 L44.4910573,110.553213 L30.5444657,62.2931953 L30.5444657,62.2937977 L0.516146479,52.7521427 C0.456052582,52.1672713 0.401367136,51.5811953 0.35269108,50.9933123 L30.0024188,60.4132947 L12.8750573,1.14432398 C13.0775737,0.869054971 13.2704751,0.591376608 13.4802028,0.317312281" id="Fill-13" fill="#59C09C" mask="url(#mask-10)"></path>
                        </g>
                    </g>
                </g>
                <path d="M60,203 C122.5,223.473855 185,233.710783 247.5,233.710783 C310,233.710783 372.5,223.473855 435,203 L435,1010 L60,1010 L60,203 Z" id="Rectangle-13-Copy" fill="#F6F6F6"></path>
                <polygon id="Fill-1" fill="#59C09C" opacity="0.563448661" points="405 69 419 69 419 55 405 55"></polygon>
                <path d="M290.5,66 L290.5,66 C285.253236,66 281,61.7465909 281,56.5 C281,51.2534091 285.253236,47 290.5,47 C295.746764,47 300,51.2534091 300,56.5 C300,61.7465909 295.746764,66 290.5,66" id="Fill-1" fill="#00C9C3" opacity="0.432700893"></path>
                <path d="M76.4107723,210 C91.2757336,210 122.154853,201.446839 159.617025,176.689893 C173.00411,167.843013 201.124614,147.979632 233.888989,132.194301 C264.177216,117.601936 280.624646,84.0292333 267.369274,57 C254.113901,29.9707667 203.953255,14 131.389073,14 C58.8248919,14 0,45.4050824 0,84.1452147 C0,122.885347 3.84659076,210 76.4107723,210 Z" id="Oval" fill="#FFFFFF" opacity="0.247823661"></path>
            </g>
        </g>
    </g>
</svg>