<svg xmlns="http://www.w3.org/2000/svg" width="22" height="22" viewBox="0 0 22 22">
    <g fill="none" fill-rule="evenodd">
        <circle cx="8.5" cy="8.5" r="7.5" fill="#066360" stroke="#00A7A7" stroke-width="2"/>
        <path fill="#00A7A7" d="M14.568 16.327c2.244 2.297 3.883 3.969 4.916 5.016 1.55 1.57 3.25-.395 1.825-1.772-.95-.918-2.593-2.65-4.927-5.195a5.147 5.147 0 0 1-.784 1.124 4.604 4.604 0 0 1-1.03.827z"/>
        <path fill="#00A7A7" fill-rule="nonzero" d="M7.053 11.815L5.08 9.842a.5.5 0 0 1 0-.707l.352-.352a.5.5 0 0 1 .707 0l1.262 1.261L11.645 5.8a.5.5 0 0 1 .707 0l.357.358a.5.5 0 0 1 0 .707l-4.949 4.95a.5.5 0 0 1-.707 0z"/>
    </g>
</svg>
