<svg xmlns="http://www.w3.org/2000/svg" width="22" height="22" viewBox="0 0 22 22">
    <g fill="none" fill-rule="evenodd">
        <path fill="#066360" d="M0 0h22v22H0z"/>
        <g fill="#00A7A7">
            <path d="M10.89 20.567v-3.784L9.53 13.017l-2.019-1.906c-.224-.12-.423-.12-.597 0s-.251.272-.232.456l1.227 2.97-3.974-2.525-1.766-4.43a1 1 0 0 0-.312-.417C1.718 7.055 1.603 7 1.514 7a.514.514 0 0 0-.497.646l1.544 5.847 4.122 4.453v2.62h4.207zM12 20.567v-3.784l1.358-3.766 2.02-1.906c.224-.12.423-.12.596 0 .174.12.252.272.233.456l-1.228 2.97 3.975-2.525 1.766-4.43a1 1 0 0 1 .311-.417c.14-.11.255-.165.344-.165a.514.514 0 0 1 .498.646l-1.544 5.847-4.122 4.453v2.62H12zM15.298 3.362A3.209 3.209 0 0 0 13.812 3c-.952 0-1.804.41-2.367 1.053A3.148 3.148 0 0 0 9.075 3a3.21 3.21 0 0 0-1.485.362C6.642 3.858 6 4.812 6 5.909c0 .314.054.615.152.896.528 2.243 5.293 5.072 5.293 5.072s4.763-2.829 5.291-5.072c.098-.281.153-.583.153-.896 0-1.096-.643-2.05-1.59-2.547z"/>
        </g>
    </g>
</svg>
