<svg xmlns="http://www.w3.org/2000/svg" xmlns:xlink="http://www.w3.org/1999/xlink" width="375" height="440" viewBox="0 0 375 440">
    <defs>
        <ellipse id="prefix__e" cx="6.439" cy="1.695" rx="6.439" ry="1.695"/>
        <ellipse id="prefix__g" cx="6.439" cy="1.695" rx="6.439" ry="1.695"/>
        <ellipse id="prefix__i" cx="6.439" cy="1.695" rx="6.439" ry="1.695"/>
        <ellipse id="prefix__k" cx="6.439" cy="1.695" rx="6.439" ry="1.695"/>
        <ellipse id="prefix__m" cx="6.439" cy="1.695" rx="6.439" ry="1.695"/>
        <ellipse id="prefix__o" cx="6.439" cy="1.695" rx="6.439" ry="1.695"/>
        <ellipse id="prefix__q" cx="6.439" cy="1.695" rx="6.439" ry="1.695"/>
        <path id="prefix__a" d="M0 0H375V440H0z"/>
        <path id="prefix__c" d="M59.312 28.24c.01-6.858-.262-11.51.826-15.59.202-.76.388-1.548.563-2.365.452-2.102-1.838-3.732-3.738-2.654-.851.484-1.737.952-2.622 1.37-1.126.53-2.463.296-3.339-.576C46.145 3.59 39.533.446 32.185 0c-.399-.024-.676 2.368-.832 7.175h-2.417c-.047-4.797-.228-7.185-.542-7.164C21.114.496 14.57 3.627 9.75 8.423c-.875.872-2.213 1.106-3.339.575-.883-.417-1.766-.884-2.617-1.367-1.899-1.078-4.188.552-3.737 2.653.174.812.359 1.594.559 2.349 1.086 4.08 1.47 8.307.997 12.498-.115 1.021-.175 2.058-.175 3.11-.065 6.194.33 10.73 1.184 13.611 3.051 10.28 7.2 14.435 27.827 14.435 20.626 0 24.72-6.973 27.069-13.075 2.028-5.27 1.783-8.114 1.793-14.972z"/>
        <filter id="prefix__s" width="205.5%" height="220%" x="-51.4%" y="-58.7%" filterUnits="objectBoundingBox">
            <feOffset dx="-5" dy="-1" in="SourceAlpha" result="shadowOffsetOuter1"/>
            <feGaussianBlur in="shadowOffsetOuter1" result="shadowBlurOuter1" stdDeviation="1.5"/>
            <feColorMatrix in="shadowBlurOuter1" result="shadowMatrixOuter1" values="0 0 0 0 0 0 0 0 0 0 0 0 0 0 0 0 0 0 0.134915865 0"/>
            <feMerge>
                <feMergeNode in="shadowMatrixOuter1"/>
                <feMergeNode in="SourceGraphic"/>
            </feMerge>
        </filter>
    </defs>
    <g fill="none" fill-rule="evenodd">
        <mask id="prefix__b" fill="#fff">
            <use xlink:href="#prefix__a"/>
        </mask>
        <use fill="#00A7A7" xlink:href="#prefix__a"/>
        <g mask="url(#prefix__b)">
            <g>
                <path fill="#008486" d="M228.56 133.042c-9.147-9.447-43.057-3.983-88.85-5.645-45.793-1.663-101.611-1.636-89.55 9.71 6.225 5.856 62.083 7.879 99.467 7.969 58.006.14 88.08-2.587 78.933-12.034z" transform="translate(48 17)"/>
                <g opacity=".642">
                    <g>
                        <path fill="#35B3B5" d="M0 7.951L15.748 0 31.497 7.951 31.497 10.12 0 10.12z" transform="translate(48 17) translate(61.147 22.4) translate(6.66 36.806)"/>
                        <path fill="#1B7576" d="M0 55.659H31.497V64.333H0z" transform="translate(48 17) translate(61.147 22.4) translate(6.66 36.806) matrix(1 0 0 -1 0 119.992)"/>
                        <path fill="#118C8C" d="M0.685 10.12H30.811999999999998V55.659H0.685z" transform="translate(48 17) translate(61.147 22.4) translate(6.66 36.806)"/>
                        <g fill="#157979" stroke="#169C9C">
                            <path d="M0 0H3.424V5.783H0zM3.424 0H6.848V5.783H3.424zM0 5.783H3.424V11.566H0zM3.424 5.783H6.848V11.566H3.424zM11.64 0H15.064V5.783H11.64zM15.064 0H18.488V5.783H15.064zM11.64 5.783H15.064V11.566H11.64zM15.064 5.783H18.488V11.566H15.064z" transform="translate(48 17) translate(61.147 22.4) translate(6.66 36.806) translate(6.162 13.734)"/>
                            <g>
                                <path d="M0 0H3.424V5.783H0zM3.424 0H6.848V5.783H3.424zM0 5.783H3.424V11.566H0zM3.424 5.783H6.848V11.566H3.424zM11.64 0H15.064V5.783H11.64zM15.064 0H18.488V5.783H15.064zM11.64 5.783H15.064V11.566H11.64zM15.064 5.783H18.488V11.566H15.064z" transform="translate(48 17) translate(61.147 22.4) translate(6.66 36.806) translate(6.162 13.734) translate(0 13.734)"/>
                            </g>
                            <g>
                                <path d="M0 0H3.424V5.783H0zM3.424 0H6.848V5.783H3.424zM0 5.783H3.424V11.566H0zM3.424 5.783H6.848V11.566H3.424zM11.64 0H15.064V5.783H11.64zM15.064 0H18.488V5.783H15.064zM11.64 5.783H15.064V11.566H11.64zM15.064 5.783H18.488V11.566H15.064z" transform="translate(48 17) translate(61.147 22.4) translate(6.66 36.806) translate(6.162 13.734) translate(0 27.468)"/>
                            </g>
                        </g>
                    </g>
                    <g>
                        <path fill="#35B3B5" d="M0 7.951L15.748 0 31.497 7.951 31.497 10.12 0 10.12z" transform="translate(48 17) translate(61.147 22.4) matrix(-1 0 0 1 143.676 36.806)"/>
                        <path fill="#1B7576" d="M0 55.659H31.497V64.333H0z" transform="translate(48 17) translate(61.147 22.4) matrix(-1 0 0 1 143.676 36.806) matrix(1 0 0 -1 0 119.992)"/>
                        <path fill="#118C8C" d="M0.685 10.12H30.811999999999998V55.659H0.685z" transform="translate(48 17) translate(61.147 22.4) matrix(-1 0 0 1 143.676 36.806)"/>
                        <g fill="#157979" stroke="#169C9C">
                            <path d="M0 0H3.424V5.783H0zM3.424 0H6.848V5.783H3.424zM0 5.783H3.424V11.566H0zM3.424 5.783H6.848V11.566H3.424zM11.64 0H15.064V5.783H11.64zM15.064 0H18.488V5.783H15.064zM11.64 5.783H15.064V11.566H11.64zM15.064 5.783H18.488V11.566H15.064z" transform="translate(48 17) translate(61.147 22.4) matrix(-1 0 0 1 143.676 36.806) translate(6.162 13.734)"/>
                            <g>
                                <path d="M0 0H3.424V5.783H0zM3.424 0H6.848V5.783H3.424zM0 5.783H3.424V11.566H0zM3.424 5.783H6.848V11.566H3.424zM11.64 0H15.064V5.783H11.64zM15.064 0H18.488V5.783H15.064zM11.64 5.783H15.064V11.566H11.64zM15.064 5.783H18.488V11.566H15.064z" transform="translate(48 17) translate(61.147 22.4) matrix(-1 0 0 1 143.676 36.806) translate(6.162 13.734) translate(0 13.734)"/>
                            </g>
                            <g>
                                <path d="M0 0H3.424V5.783H0zM3.424 0H6.848V5.783H3.424zM0 5.783H3.424V11.566H0zM3.424 5.783H6.848V11.566H3.424zM11.64 0H15.064V5.783H11.64zM15.064 0H18.488V5.783H15.064zM11.64 5.783H15.064V11.566H11.64zM15.064 5.783H18.488V11.566H15.064z" transform="translate(48 17) translate(61.147 22.4) matrix(-1 0 0 1 143.676 36.806) translate(6.162 13.734) translate(0 27.468)"/>
                            </g>
                        </g>
                    </g>
                    <g>
                        <path fill="#58C4C5" d="M0 13.444L40.459 0 80.917 13.444 80.917 20.913 0 20.913z" transform="translate(48 17) translate(61.147 22.4) translate(32.35)"/>
                        <path fill="#118C8C" d="M2.167 20.913H79.47200000000001V97.097H2.167z" transform="translate(48 17) translate(61.147 22.4) translate(32.35)"/>
                        <g stroke="#247B7C">
                            <path fill="#025555" d="M0.094 8.963L21.768 8.963 21.768 41.827 0.094 41.827z" transform="translate(48 17) translate(61.147 22.4) translate(32.35) translate(29.528 54.524)"/>
                            <path fill="#045050" d="M10.57 0c7.465 0 11.198 3.486 11.198 10.457H.094C-.388 3.486 3.104 0 10.569 0z" transform="translate(48 17) translate(61.147 22.4) translate(32.35) translate(29.528 54.524)"/>
                            <path d="M10.931 10.457L4.067 1.12M11.292 10.457L17.072 1.867" transform="translate(48 17) translate(61.147 22.4) translate(32.35) translate(29.528 54.524)"/>
                        </g>
                    </g>
                    <path fill="#2D9899" d="M34.254 23.594H112.27699999999999V27.369H34.254z" transform="translate(48 17) translate(61.147 22.4)"/>
                    <path fill="#117B7C" d="M34.254 27.369H112.27699999999999V31.144H34.254z" transform="translate(48 17) translate(61.147 22.4)"/>
                    <g transform="translate(48 17) translate(61.147 22.4) translate(33.302 30.2)">
                        <rect width="9.161" height="2.957" x="1.409" fill="#F1F1F1" rx="1.478"/>
                        <path fill="#A9D2D2" d="M2.554 2.957L9.425 2.957 10.57 65.047 1.409 65.047z"/>
                        <g transform="translate(0 53.22)">
                            <rect width="11.979" height="2.957" fill="#FFF" rx="1.478"/>
                            <path fill="#31B1B2" d="M0 2.957H11.979V11.826999999999998H0z"/>
                        </g>
                    </g>
                    <g transform="translate(48 17) translate(61.147 22.4) translate(48.526 30.2)">
                        <rect width="7.899" height="2.924" fill="#F1F1F1" rx="1.462"/>
                        <path fill="#A9D2D2" d="M0.987 2.924L6.911 2.924 7.899 64.333 0 64.333z"/>
                    </g>
                    <g transform="translate(48 17) translate(61.147 22.4) translate(92.295 30.2)">
                        <rect width="7.899" height="2.924" fill="#F1F1F1" rx="1.462"/>
                        <path fill="#A9D2D2" d="M0.987 2.924L6.911 2.924 7.899 64.333 0 64.333z"/>
                    </g>
                    <g transform="translate(48 17) translate(61.147 22.4) translate(108.47 30.2)">
                        <rect width="7.899" height="2.924" fill="#F1F1F1" rx="1.462"/>
                        <path fill="#A9D2D2" d="M0.987 2.924L6.911 2.924 7.899 64.333 0 64.333z"/>
                    </g>
                    <path fill="#3AA5A6" d="M34.254 21.706H116.083V25.480999999999998H34.254z" transform="translate(48 17) translate(61.147 22.4)"/>
                    <g transform="translate(48 17) translate(61.147 22.4) translate(48.526 84.937)">
                        <rect width="11.979" height="2.356" fill="#FFF" rx="1.178"/>
                        <path fill="#31B1B2" d="M0 2.356H11.979V9.424H0z"/>
                    </g>
                    <g transform="translate(48 17) translate(61.147 22.4) translate(90.392 84.937)">
                        <rect width="11.979" height="2.356" fill="#FFF" rx="1.178"/>
                        <path fill="#31B1B2" d="M0 2.356H11.979V9.424H0z"/>
                    </g>
                    <g transform="translate(48 17) translate(61.147 22.4) translate(107.519 84.937)">
                        <rect width="11.979" height="2.356" fill="#FFF" rx="1.178"/>
                        <path fill="#31B1B2" d="M0 2.356H11.979V9.424H0z"/>
                    </g>
                    <path fill="#7AC8C9" d="M0 96.262H148.433V106.643H0z" transform="translate(48 17) translate(61.147 22.4)"/>
                    <path fill="#0B6262" d="M48.526 96.262H98.004V100.037H48.526z" transform="translate(48 17) translate(61.147 22.4)"/>
                    <path fill="#147979" d="M46.623 99.093H105.616V102.86800000000001H46.623z" transform="translate(48 17) translate(61.147 22.4)"/>
                    <path fill="#0B6262" d="M34.254 102.868H112.27699999999999V106.643H34.254z" transform="translate(48 17) translate(61.147 22.4)"/>
                </g>
                <g transform="translate(48 17) translate(131.227 78.887)">
                    <mask id="prefix__d" fill="#fff">
                        <use xlink:href="#prefix__c"/>
                    </mask>
                    <use fill="#62D7D7" xlink:href="#prefix__c"/>
                    <path fill="#1DBEBE" d="M57.761 42.57c-1.737 3.652-5.417 6.457-9.137 8.53-3.471 1.935-7.73 3.354-17.18 3.643-5.071.155-11.129-.43-15.799-1.625-6.473-1.655-10.166-4.417-9.834-3.916 1.862 2.815 3.477 3.817 4.236 4.306 4.495 2.897 9.228 2.78 11.128 2.78 8.894 0 20.388 2.563 30.397-4.36 10.01-6.924 7.217-11.517 6.189-9.357z" mask="url(#prefix__d)"/>
                    <path fill="#FFF" d="M42.282 13.842c-5.476 0-10.14 3.417-11.905 8.2-1.765-4.783-6.428-8.2-11.905-8.2-6.992 0-12.66 5.57-12.66 12.442 0 14.162 1.39 25.644 24.565 25.644 21.888 0 24.565-11.482 24.565-25.644 0-6.871-5.668-12.442-12.66-12.442" opacity=".901"/>
                    <path fill="#FFCD8C" d="M33.055 41.7l2.812-5.072c.313-.566.22-1.277-.226-1.737l-4.138-4.266c-.571-.589-1.535-.589-2.106 0l-4.139 4.266c-.446.46-.54 1.171-.225 1.737l2.812 5.073c1.116 2.015 4.093 2.015 5.21 0"/>
                    <g>
                        <g transform="translate(44.773 39.443) translate(3.622 11.16)">
                            <path fill="#F19F07" d="M7.989 5.273c4.438 0 7.407-.838 7.965-2.334.078-.21.041-.726 0-.837C15.461.754 12.088 0 7.99 0 3.906 0 .535.846.02 2.185c-.045.117 0 .572 0 .693 0 1.508 3.53 2.395 7.969 2.395z"/>
                            <ellipse cx="8.195" cy="2.071" fill="#FEE34B" rx="7.805" ry="2.071"/>
                            <ellipse cx="8.195" cy="1.883" fill="#F19F07" rx="6.634" ry="1.883"/>
                            <g transform="translate(1.561)">
                                <mask id="prefix__f" fill="#fff">
                                    <use xlink:href="#prefix__e"/>
                                </mask>
                                <use fill="#FEE34B" xlink:href="#prefix__e"/>
                                <path fill="#FFFBB6" d="M2.065.14L3.319 3.638 7.759 3.578 4.452.14zM.293.352L1.21 3.013 1.783 3.013 1.038.352zM5.852 0L8.444 3.241 10.129 3.067 6.383 0z" mask="url(#prefix__f)"/>
                            </g>
                        </g>
                        <g transform="translate(44.773 39.443) translate(3.622 8.623)">
                            <path fill="#F19F07" d="M7.989 5.273c4.438 0 7.407-.838 7.965-2.334.078-.21.041-.726 0-.837C15.461.754 12.088 0 7.99 0 3.906 0 .535.846.02 2.185c-.045.117 0 .572 0 .693 0 1.508 3.53 2.395 7.969 2.395z"/>
                            <ellipse cx="8.195" cy="2.071" fill="#FEE34B" rx="7.805" ry="2.071"/>
                            <ellipse cx="8.195" cy="1.883" fill="#F19F07" rx="6.634" ry="1.883"/>
                            <g transform="translate(1.561)">
                                <mask id="prefix__h" fill="#fff">
                                    <use xlink:href="#prefix__g"/>
                                </mask>
                                <use fill="#FEE34B" xlink:href="#prefix__g"/>
                                <path fill="#FFFBB6" d="M2.065.14L3.319 3.638 7.759 3.578 4.452.14zM.293.352L1.21 3.013 1.783 3.013 1.038.352zM5.852 0L8.444 3.241 10.129 3.067 6.383 0z" mask="url(#prefix__h)"/>
                            </g>
                        </g>
                        <g transform="translate(44.773 39.443) translate(0 6.594)">
                            <path fill="#F19F07" d="M7.989 5.273c4.438 0 7.407-.838 7.965-2.334.078-.21.041-.726 0-.837C15.461.754 12.088 0 7.99 0 3.906 0 .535.846.02 2.185c-.045.117 0 .572 0 .693 0 1.508 3.53 2.395 7.969 2.395z"/>
                            <ellipse cx="8.195" cy="2.071" fill="#FEE34B" rx="7.805" ry="2.071"/>
                            <ellipse cx="8.195" cy="1.883" fill="#F19F07" rx="6.634" ry="1.883"/>
                            <g transform="translate(1.561)">
                                <mask id="prefix__j" fill="#fff">
                                    <use xlink:href="#prefix__i"/>
                                </mask>
                                <use fill="#FEE34B" xlink:href="#prefix__i"/>
                                <path fill="#FFFBB6" d="M2.065.14L3.319 3.638 7.759 3.578 4.452.14zM.293.352L1.21 3.013 1.783 3.013 1.038.352zM5.852 0L8.444 3.241 10.129 3.067 6.383 0z" mask="url(#prefix__j)"/>
                            </g>
                        </g>
                        <g transform="translate(44.773 39.443) translate(3.622 5.58)">
                            <path fill="#F19F07" d="M7.989 5.273c4.438 0 7.407-.838 7.965-2.334.078-.21.041-.726 0-.837C15.461.754 12.088 0 7.99 0 3.906 0 .535.846.02 2.185c-.045.117 0 .572 0 .693 0 1.508 3.53 2.395 7.969 2.395z"/>
                            <ellipse cx="8.195" cy="2.071" fill="#FEE34B" rx="7.805" ry="2.071"/>
                            <ellipse cx="8.195" cy="1.883" fill="#F19F07" rx="6.634" ry="1.883"/>
                            <g transform="translate(1.561)">
                                <mask id="prefix__l" fill="#fff">
                                    <use xlink:href="#prefix__k"/>
                                </mask>
                                <use fill="#FEE34B" xlink:href="#prefix__k"/>
                                <path fill="#FFFBB6" d="M2.065.14L3.319 3.638 7.759 3.578 4.452.14zM.293.352L1.21 3.013 1.783 3.013 1.038.352zM5.852 0L8.444 3.241 10.129 3.067 6.383 0z" mask="url(#prefix__l)"/>
                            </g>
                        </g>
                        <g transform="translate(44.773 39.443) translate(5.692 3.043)">
                            <path fill="#F19F07" d="M7.989 5.273c4.438 0 7.407-.838 7.965-2.334.078-.21.041-.726 0-.837C15.461.754 12.088 0 7.99 0 3.906 0 .535.846.02 2.185c-.045.117 0 .572 0 .693 0 1.508 3.53 2.395 7.969 2.395z"/>
                            <ellipse cx="8.195" cy="2.071" fill="#FEE34B" rx="7.805" ry="2.071"/>
                            <ellipse cx="8.195" cy="1.883" fill="#F19F07" rx="6.634" ry="1.883"/>
                            <g transform="translate(1.561)">
                                <mask id="prefix__n" fill="#fff">
                                    <use xlink:href="#prefix__m"/>
                                </mask>
                                <use fill="#FEE34B" xlink:href="#prefix__m"/>
                                <path fill="#FFFBB6" d="M2.065.14L3.319 3.638 7.759 3.578 4.452.14zM.293.352L1.21 3.013 1.783 3.013 1.038.352zM5.852 0L8.444 3.241 10.129 3.067 6.383 0z" mask="url(#prefix__n)"/>
                            </g>
                        </g>
                        <g transform="translate(44.773 39.443) translate(1.552)">
                            <path fill="#F19F07" d="M7.989 5.273c4.438 0 7.407-.838 7.965-2.334.078-.21.041-.726 0-.837C15.461.754 12.088 0 7.99 0 3.906 0 .535.846.02 2.185c-.045.117 0 .572 0 .693 0 1.508 3.53 2.395 7.969 2.395z"/>
                            <ellipse cx="8.195" cy="2.071" fill="#FEE34B" rx="7.805" ry="2.071"/>
                            <ellipse cx="8.195" cy="1.883" fill="#F19F07" rx="6.634" ry="1.883"/>
                            <g transform="translate(1.561)">
                                <mask id="prefix__p" fill="#fff">
                                    <use xlink:href="#prefix__o"/>
                                </mask>
                                <use fill="#FEE34B" xlink:href="#prefix__o"/>
                                <path fill="#FFFBB6" d="M2.065.14L3.319 3.638 7.759 3.578 4.452.14zM.293.352L1.21 3.013 1.783 3.013 1.038.352zM5.852 0L8.444 3.241 10.129 3.067 6.383 0z" mask="url(#prefix__p)"/>
                            </g>
                        </g>
                        <g transform="translate(44.773 39.443) rotate(12 -31.124 79.38)">
                            <path fill="#F19F07" d="M7.989 5.273c4.438 0 7.407-.838 7.965-2.334.078-.21.041-.726 0-.837C15.461.754 12.088 0 7.99 0 3.906 0 .535.846.02 2.185c-.045.117 0 .572 0 .693 0 1.508 3.53 2.395 7.969 2.395z"/>
                            <ellipse cx="8.195" cy="2.071" fill="#FEE34B" rx="7.805" ry="2.071"/>
                            <ellipse cx="8.195" cy="1.883" fill="#F19F07" rx="6.634" ry="1.883"/>
                            <g transform="translate(1.561)">
                                <mask id="prefix__r" fill="#fff">
                                    <use xlink:href="#prefix__q"/>
                                </mask>
                                <use fill="#FEE34B" xlink:href="#prefix__q"/>
                                <path fill="#FFFBB6" d="M2.065.14L3.319 3.638 7.759 3.578 4.452.14zM.293.352L1.21 3.013 1.783 3.013 1.038.352zM5.852 0L8.444 3.241 10.129 3.067 6.383 0z" mask="url(#prefix__r)"/>
                            </g>
                        </g>
                    </g>
                </g>
                <g>
                    <g filter="url(#prefix__s)" transform="translate(48 17) translate(52.387 73.53) rotate(-168 34.762 13.341)">
                        <g fill="#FEDD00">
                            <path d="M0 4.676L12.788 0c1.122.445 2.02.89 2.692 1.336.673.445 1.234.89 1.683 1.336L2.019 8.683c-.449-.222-.897-.668-1.346-1.336C.224 6.68 0 5.79 0 4.676zM3.365 9.351l14.47-6.011c.335.294.56.517.674.668.114.15.226.373.336.668L4.711 10.687c-.248-.063-.472-.175-.673-.334-.2-.16-.425-.493-.673-1.002z" transform="translate(6.022 9.579)"/>
                        </g>
                        <path fill="#F1A11F" d="M12.742 21.23c6.808 1.808 14.2 1.142 15.448-3.474.451-1.67 1.158-4.504.336-6.656-1.452-3.8-5.659-6.873-10.075-7.654-9.403-1.664-12.09 1.33-13.433 2.662-1.096 1.087-1.302 2.599-1.68 3.994-1.247 4.616 2.596 9.32 9.404 11.128z"/>
                        <path fill="#FEE600" d="M12.742 23.746c6.808 1.808 13.911-.78 15.16-5.396 1.247-4.616-3.26-9.824-10.068-11.631-6.807-1.808-13.919.43-15.167 5.047-1.248 4.616 3.267 10.173 10.075 11.98z"/>
                        <g>
                            <path fill="#EFA71F" d="M10.628 17.913c5.794 1.578 11.778-.342 13.124-4.788 1.346-4.445-2.356-8.207-8.413-9.917-6.057-1.71-12.045.013-13.124 4.104-1.078 4.09 2.619 9.023 8.413 10.601z" transform="translate(2.565 4.227)"/>
                            <path fill="#FDC010" d="M11.516 17.441c6.73 1.368 11.105-1.368 12.115-4.788 1.01-3.42-2.263-7.745-8.292-9.445C9.31 1.508 3.818 2.855 2.767 6.84c-1.05 3.985 2.02 9.233 8.75 10.601z" transform="translate(2.565 4.227)"/>
                        </g>
                        <g fill="#FEDD00">
                            <path d="M0 4.676L12.788 0c1.122.445 2.02.89 2.692 1.336.673.445 1.234.89 1.683 1.336L2.019 8.683c-.449-.222-.897-.668-1.346-1.336C.224 6.68 0 5.79 0 4.676zM3.365 9.351l14.47-6.011c.335.294.56.517.674.668.114.15.226.373.336.668L4.711 10.687c-.248-.063-.472-.175-.673-.334-.2-.16-.425-.493-.673-1.002z" transform="translate(6.022 9.579)"/>
                        </g>
                        <path fill="#FFF" d="M9.35 7.355c-.29 1.21-.63 1.988-1.022 2.333-.391.344-1.186.566-2.384.666 1.17.277 1.965.61 2.384 1 .42.389.76 1.166 1.022 2.332.281-1.164.622-1.941 1.022-2.333.4-.391 1.196-.724 2.385-1-1.155-.061-1.95-.283-2.385-.665-.434-.383-.775-1.16-1.022-2.333z"/>
                    </g>
                    <g>
                        <g>
                            <path fill="#FFB481" d="M42.771.446c-2.434 1.39-10.919 6.93-10.919 6.93.168-.277.266-.618.266-1.038 0-1.358-1.977-2.09-4.243-2.484-1.742-.49-3.6-.571-5.704-2.01-2.437-1.67-5.05-1.31-6.894-.748C13.295 1.7 1.473 1.469 0 1.519v10.358c.814.074 12.108-.066 13.397.47 2.263.944 8.386 3.048 12.582 3.048 3.453 0 15.206-8.084 19.132-11.541 1.032-.909 1.326-2.134.443-3.186-.705-.841-1.743-.816-2.783-.222z" transform="translate(48 17) translate(52.387 73.53) translate(0 14.589) translate(25.307 4.383)"/>
                            <path fill="#E59768" d="M31.63 7.193c-.507.603-1.355.927-2.166.82L21.906 7.01c-.389-.052-.748.207-.802.577-.054.37.217.713.606.765l7.558 1.001c1.327.176 2.718-.329 3.62-1.536.065-.09.148-.262.696-1.242.05-.091.076-.189.081-.285-1.18.53-2.034.902-2.034.902" transform="translate(48 17) translate(52.387 73.53) translate(0 14.589) translate(25.307 4.383)"/>
                        </g>
                        <path fill="#005960" d="M2.389.2l25.05.632-.207 20.704-24.796-.628C.873 18.971.102 16.838.126 14.511.16 11.019 3.46 7.395 3.52 4.577 3.56 2.7 3.184 1.24 2.389.2z" transform="translate(48 17) translate(52.387 73.53) translate(0 14.589)"/>
                        <path fill="#FFF" d="M24.253 2.255L26.198 1.502 32.482 19.892 30.639 20.531z" transform="translate(48 17) translate(52.387 73.53) translate(0 14.589) rotate(20 28.367 11.016)"/>
                    </g>
                </g>
            </g>
        </g>
        <g mask="url(#prefix__b)">
            <g transform="translate(30 191)">
                <path fill="#FFF" d="M5.642 31.84h303.716c3.116 0 5.642 2.686 5.642 6v40c0 3.314-2.526 6-5.642 6H5.642c-3.116 0-5.642-2.686-5.642-6v-40c0-3.314 2.526-6 5.642-6z"/>
                <rect width="23.858" height="24" fill="#FFF" stroke="#94CCCC" rx="11.929" transform="translate(14.911 45.84)"/>
                <path fill="#000" fill-rule="nonzero" d="M59.402 64.84c.778 0 1.5-.121 2.166-.363.666-.242 1.228-.594 1.686-1.056l-.575-1.226c-.533.44-1.058.76-1.574.96-.517.198-1.08.298-1.687.298-1.182 0-2.096-.39-2.74-1.17-.645-.779-.968-1.89-.968-3.33 0-1.43.323-2.532.967-3.307.645-.774 1.559-1.16 2.741-1.16.608 0 1.17.099 1.687.298.516.198 1.041.518 1.574.96l.575-1.227c-.458-.462-1.02-.814-1.686-1.056-.666-.242-1.388-.363-2.166-.363-1.097 0-2.053.237-2.869.71-.815.473-1.44 1.15-1.878 2.032-.437.882-.655 1.92-.655 3.113 0 1.204.218 2.247.655 3.129.437.882 1.063 1.562 1.878 2.04.816.479 1.772.718 2.87.718zm8.428-.016c.618 0 1.159-.13 1.622-.387.464-.258.813-.63 1.047-1.113v1.387h1.598v-8.13H70.5v1.324c-.245-.484-.597-.858-1.055-1.121-.458-.264-.996-.396-1.614-.396-.693 0-1.31.178-1.854.533-.544.354-.967.854-1.271 1.5-.304.645-.456 1.387-.456 2.225 0 .84.15 1.573.448 2.202.298.63.717 1.116 1.255 1.46.538.344 1.164.516 1.878.516zm.383-1.29c-.735 0-1.308-.253-1.718-.759-.41-.505-.615-1.215-.615-2.129 0-.924.205-1.647.615-2.169.41-.521.978-.782 1.702-.782.736 0 1.303.253 1.703.758.4.505.599 1.226.599 2.161 0 .925-.2 1.643-.6 2.153-.399.511-.961.767-1.686.767zm8.763 1.29c1.002 0 1.793-.212 2.374-.637.58-.425.871-1.003.871-1.734 0-.591-.184-1.073-.551-1.444-.368-.37-.935-.642-1.703-.814l-1.374-.339c-.394-.097-.682-.231-.863-.403-.181-.172-.272-.398-.272-.678 0-.354.144-.631.431-.83.288-.2.693-.299 1.215-.299.863 0 1.684.312 2.462.936l.495-1.145c-.362-.334-.802-.592-1.318-.774-.517-.183-1.063-.275-1.639-.275-.959 0-1.729.226-2.31.678-.58.451-.87 1.043-.87 1.774 0 .57.183 1.046.55 1.427.369.382.904.648 1.607.799l1.343.322c.469.119.802.261.999.428.197.166.296.395.296.685 0 .344-.144.61-.432.799-.288.188-.709.282-1.263.282-1.087 0-2.05-.323-2.893-.968l-.48 1.178c.81.688 1.919 1.032 3.325 1.032zm6.446-.113v-4.63c0-.72.205-1.295.615-1.725.41-.43.956-.645 1.638-.645.597 0 1.031.161 1.303.484.272.322.408.839.408 1.548v4.968H89v-5.065c0-2.172-.964-3.258-2.893-3.258-.586 0-1.114.124-1.582.371-.47.248-.837.608-1.103 1.081v-5h-1.599v11.871h1.599z"/>
                <g>
                    <path fill="#FFF" d="M5.642 0h303.716C312.474 0 315 2.686 315 6v40c0 3.314-2.526 6-5.642 6H5.642C2.526 52 0 49.314 0 46V6c0-3.314 2.526-6 5.642-6z" transform="translate(0 95.84)"/>
                    <g transform="translate(0 95.84) translate(14.911 14)">
                        <rect width="23.858" height="24" fill="#FFF" stroke="#94CCCC" rx="11.929"/>
                        <rect width="13.917" height="14" x="4.97" y="5" fill="#FF872F" rx="6.958"/>
                    </g>
                    <path fill="#00A7A7" fill-rule="nonzero" d="M290.062 16c-5.486 0-9.938 4.48-9.938 10s4.452 10 9.938 10c5.486 0 9.938-4.48 9.938-10s-4.452-10-9.938-10zm.994 17h-1.988v-2h1.988v2zm2.057-7.75l-.894.92c-.716.73-1.163 1.33-1.163 2.83h-1.988v-.5c0-1.1.448-2.1 1.163-2.83l1.232-1.26c.368-.36.587-.86.587-1.41 0-1.1-.895-2-1.988-2s-1.987.9-1.987 2h-1.988c0-2.21 1.779-4 3.975-4s3.975 1.79 3.975 4c0 .88-.357 1.68-.924 2.25z" transform="translate(0 95.84)"/>
                    <path fill="#000" fill-rule="nonzero" d="M58.273 33c.876 0 1.638-.14 2.287-.42.648-.28 1.147-.673 1.495-1.179.348-.505.522-1.099.522-1.78 0-.66-.174-1.198-.522-1.616-.348-.417-.812-.747-1.393-.989-.58-.241-1.34-.472-2.278-.692-.897-.22-1.549-.467-1.955-.742-.406-.274-.61-.675-.61-1.203 0-.615.233-1.102.697-1.459.464-.357 1.103-.535 1.915-.535.623 0 1.208.107 1.757.321.548.214 1.081.547 1.598.997l.586-1.252c-.465-.462-1.042-.82-1.733-1.072-.691-.253-1.432-.379-2.224-.379-.833 0-1.57.146-2.207.437-.639.291-1.132.698-1.48 1.22-.348.522-.522 1.123-.522 1.805 0 .68.163 1.239.49 1.673.327.434.776.78 1.345 1.038.57.258 1.303.486 2.2.684.94.22 1.625.459 2.057.717.433.258.65.64.65 1.146 0 .604-.233 1.071-.697 1.4-.464.33-1.118.495-1.962.495-.739 0-1.404-.104-1.994-.313-.591-.209-1.16-.544-1.71-1.005L54 31.549c.528.484 1.153.847 1.875 1.088.723.242 1.522.363 2.398.363zm7.647-.132v-5.01h2.47c.495 0 .885.079 1.17.238.285.16.501.448.65.866l1.408 3.906h1.725l-1.393-3.873c-.295-.847-.77-1.33-1.424-1.451.717-.22 1.271-.599 1.661-1.137.39-.539.586-1.193.586-1.962 0-1.066-.33-1.885-.99-2.456-.659-.571-1.606-.857-2.84-.857h-4.637v11.736h1.614zm2.833-6.379H65.92V22.5h2.833c.834 0 1.448.162 1.844.486.395.324.593.822.593 1.492s-.2 1.173-.601 1.508c-.401.335-1.013.503-1.836.503zM78.695 33c.876 0 1.638-.14 2.287-.42.65-.28 1.148-.673 1.496-1.179.348-.505.522-1.099.522-1.78 0-.66-.174-1.198-.522-1.616-.348-.417-.813-.747-1.393-.989-.58-.241-1.34-.472-2.279-.692-.896-.22-1.548-.467-1.954-.742-.406-.274-.61-.675-.61-1.203 0-.615.233-1.102.697-1.459.464-.357 1.102-.535 1.915-.535.622 0 1.208.107 1.756.321.549.214 1.082.547 1.599.997l.585-1.252c-.464-.462-1.042-.82-1.733-1.072-.69-.253-1.432-.379-2.223-.379-.834 0-1.57.146-2.208.437-.638.291-1.131.698-1.48 1.22-.348.522-.522 1.123-.522 1.805 0 .68.164 1.239.491 1.673.327.434.775.78 1.345 1.038s1.303.486 2.2.684c.939.22 1.625.459 2.057.717.433.258.649.64.649 1.146 0 .604-.232 1.071-.696 1.4-.465.33-1.119.495-1.963.495-.738 0-1.403-.104-1.994-.313-.59-.209-1.16-.544-1.709-1.005l-.585 1.252c.527.484 1.152.847 1.875 1.088.723.242 1.522.363 2.397.363z" transform="translate(0 95.84)"/>
                </g>
                <path fill="#FFF" fill-rule="nonzero" d="M2.976 11.84V.448H1.328V11.84h1.648zm10.448 0L15.568 6l2.16 5.84H19.2l3.072-8.064h-1.584l-2.208 6.16-2.224-6.16h-1.28l-2.224 6.16-2.192-6.16H8.88l3.072 8.064h1.472zm13.344.112c.619 0 1.16-.128 1.624-.384.464-.256.813-.624 1.048-1.104v1.376h1.6V3.776h-1.6v1.312c-.245-.48-.597-.85-1.056-1.112-.459-.261-.997-.392-1.616-.392-.693 0-1.312.176-1.856.528-.544.352-.968.848-1.272 1.488-.304.64-.456 1.376-.456 2.208 0 .832.15 1.56.448 2.184.299.624.717 1.107 1.256 1.448.539.341 1.165.512 1.88.512zm.384-1.28c-.736 0-1.31-.25-1.72-.752-.41-.501-.616-1.205-.616-2.112 0-.917.205-1.635.616-2.152.41-.517.979-.776 1.704-.776.736 0 1.304.25 1.704.752.4.501.6 1.216.6 2.144 0 .917-.2 1.63-.6 2.136-.4.507-.963.76-1.688.76zm7.856 1.168V7.248c0-.715.205-1.285.616-1.712.41-.427.957-.64 1.64-.64.597 0 1.032.16 1.304.48.272.32.408.832.408 1.536v4.928h1.616V6.816c0-2.155-.965-3.232-2.896-3.232-.619 0-1.17.136-1.656.408-.485.272-.856.664-1.112 1.176l-.144-1.392H33.28c.085.672.128 1.43.128 2.272v5.792h1.6zM46 11.952c.448 0 .848-.059 1.2-.176v-1.312c-.288.085-.57.128-.848.128-.427 0-.76-.115-1-.344-.24-.23-.36-.621-.36-1.176V5.024h2.224V3.776h-2.224V1.2l-1.616.56v2.016h-1.568v1.248h1.568V9.2c0 .896.23 1.579.688 2.048.459.47 1.104.704 1.936.704zm10.08 0c.448 0 .848-.059 1.2-.176v-1.312c-.288.085-.57.128-.848.128-.427 0-.76-.115-1-.344-.24-.23-.36-.621-.36-1.176V5.024h2.224V3.776h-2.224V1.2l-1.616.56v2.016h-1.568v1.248h1.568V9.2c0 .896.23 1.579.688 2.048.459.47 1.104.704 1.936.704zm6.176 0c.779 0 1.467-.17 2.064-.512.597-.341 1.059-.827 1.384-1.456.325-.63.488-1.365.488-2.208 0-.843-.163-1.581-.488-2.216-.325-.635-.787-1.123-1.384-1.464-.597-.341-1.285-.512-2.064-.512-.79 0-1.483.17-2.08.512-.597.341-1.059.83-1.384 1.464-.325.635-.488 1.373-.488 2.216 0 .843.163 1.579.488 2.208.325.63.787 1.115 1.384 1.456.597.341 1.29.512 2.08.512zm-.016-1.28c-.736 0-1.304-.245-1.704-.736-.4-.49-.6-1.21-.6-2.16 0-.928.203-1.643.608-2.144.405-.501.976-.752 1.712-.752.725 0 1.288.25 1.688.752.4.501.6 1.216.6 2.144 0 .95-.197 1.67-.592 2.16-.395.49-.965.736-1.712.736zm12.192 1.168V5.024h1.888V3.776h-1.888V2.88c0-1.013.443-1.52 1.328-1.52.256 0 .528.043.816.128V.16C76.224.053 75.835 0 75.408 0c-.821 0-1.459.235-1.912.704-.453.47-.68 1.152-.68 2.048v1.024h-1.552v1.248h1.552v6.816h1.616zm6.4.112c.565 0 1.072-.125 1.52-.376.448-.25.8-.61 1.056-1.08v1.344h1.568V3.776H83.36v4.528c0 .704-.2 1.27-.6 1.696-.4.427-.93.64-1.592.64-.555 0-.968-.157-1.24-.472-.272-.315-.408-.803-.408-1.464V3.776h-1.6V8.72c0 2.155.97 3.232 2.912 3.232zm8.112-.112V7.248c0-.715.205-1.285.616-1.712.41-.427.957-.64 1.64-.64.597 0 1.032.16 1.304.48.272.32.408.832.408 1.536v4.928h1.616V6.816c0-2.155-.965-3.232-2.896-3.232-.619 0-1.17.136-1.656.408-.485.272-.856.664-1.112 1.176l-.144-1.392h-1.504c.085.672.128 1.43.128 2.272v5.792h1.6zm10.992.112c.619 0 1.16-.128 1.624-.384.464-.256.813-.624 1.048-1.104v1.376h1.6V.064h-1.616v4.992c-.235-.47-.584-.832-1.048-1.088-.464-.256-1-.384-1.608-.384-.715 0-1.341.17-1.88.512-.539.341-.957.827-1.256 1.456-.299.63-.448 1.36-.448 2.192 0 .832.152 1.565.456 2.2.304.635.728 1.128 1.272 1.48.544.352 1.163.528 1.856.528zm.368-1.28c-.725 0-1.293-.259-1.704-.776-.41-.517-.616-1.235-.616-2.152 0-.907.205-1.61.616-2.112.41-.501.984-.752 1.72-.752.725 0 1.288.253 1.688.76.4.507.6 1.219.6 2.136s-.2 1.63-.6 2.136c-.4.507-.968.76-1.704.76zm13.648 1.28c.448 0 .848-.059 1.2-.176v-1.312c-.288.085-.57.128-.848.128-.427 0-.76-.115-1-.344-.24-.23-.36-.621-.36-1.176V5.024h2.224V3.776h-2.224V1.2l-1.616.56v2.016h-1.568v1.248h1.568V9.2c0 .896.23 1.579.688 2.048.459.47 1.104.704 1.936.704zm4.304-.112V7.248c0-.715.205-1.285.616-1.712.41-.427.957-.64 1.64-.64.597 0 1.032.16 1.304.48.272.32.408.832.408 1.536v4.928h1.616V6.816c0-2.155-.965-3.232-2.896-3.232-.587 0-1.115.123-1.584.368-.47.245-.837.603-1.104 1.072V.064h-1.6V11.84h1.6zm9.616-9.888V.256H126v1.696h1.872zm-.128 9.888V3.776h-1.6v8.064h1.6zm5.184.112c1.003 0 1.795-.21 2.376-.632.581-.421.872-.995.872-1.72 0-.587-.184-1.064-.552-1.432-.368-.368-.936-.637-1.704-.808l-1.376-.336c-.395-.096-.683-.23-.864-.4-.181-.17-.272-.395-.272-.672 0-.352.144-.627.432-.824.288-.197.693-.296 1.216-.296.864 0 1.685.31 2.464.928l.496-1.136c-.363-.33-.803-.587-1.32-.768-.517-.181-1.064-.272-1.64-.272-.96 0-1.73.224-2.312.672-.581.448-.872 1.035-.872 1.76 0 .565.184 1.037.552 1.416.368.379.904.643 1.608.792l1.344.32c.47.117.803.259 1 .424.197.165.296.392.296.68 0 .341-.144.605-.432.792-.288.187-.71.28-1.264.28-1.088 0-2.053-.32-2.896-.96l-.48 1.168c.81.683 1.92 1.024 3.328 1.024zm11.024 3.344v-4.864c.235.49.584.867 1.048 1.128.464.261 1.005.392 1.624.392.704 0 1.328-.17 1.872-.512.544-.341.965-.824 1.264-1.448.299-.624.448-1.352.448-2.184 0-.832-.152-1.568-.456-2.208-.304-.64-.728-1.136-1.272-1.488-.544-.352-1.163-.528-1.856-.528-.65 0-1.216.147-1.696.44-.48.293-.827.707-1.04 1.24l-.16-1.488h-1.504c.085.672.128 1.43.128 2.272v9.248h1.6zm2.304-4.624c-.736 0-1.304-.25-1.704-.752-.4-.501-.6-1.216-.6-2.144 0-.928.197-1.643.592-2.144.395-.501.965-.752 1.712-.752.725 0 1.29.259 1.696.776.405.517.608 1.235.608 2.152 0 .907-.203 1.61-.608 2.112-.405.501-.97.752-1.696.752zm9.312 1.28c.779 0 1.467-.17 2.064-.512.597-.341 1.059-.827 1.384-1.456.325-.63.488-1.365.488-2.208 0-.843-.163-1.581-.488-2.216-.325-.635-.787-1.123-1.384-1.464-.597-.341-1.285-.512-2.064-.512-.79 0-1.483.17-2.08.512-.597.341-1.059.83-1.384 1.464-.325.635-.488 1.373-.488 2.216 0 .843.163 1.579.488 2.208.325.63.787 1.115 1.384 1.456.597.341 1.29.512 2.08.512zm-.016-1.28c-.736 0-1.304-.245-1.704-.736-.4-.49-.6-1.21-.6-2.16 0-.928.203-1.643.608-2.144.405-.501.976-.752 1.712-.752.725 0 1.288.25 1.688.752.4.501.6 1.216.6 2.144 0 .95-.197 1.67-.592 2.16-.395.49-.965.736-1.712.736zm7.44 1.168V7.344c0-.672.184-1.23.552-1.672.368-.443.92-.664 1.656-.664.341 0 .656.053.944.16l.032-1.472c-.267-.075-.523-.112-.768-.112-.555 0-1.056.141-1.504.424-.448.283-.779.69-.992 1.224l-.144-1.456h-1.504c.085.672.128 1.43.128 2.272v5.792h1.6zm8.192.112c.448 0 .848-.059 1.2-.176v-1.312c-.288.085-.57.128-.848.128-.427 0-.76-.115-1-.344-.24-.23-.36-.621-.36-1.176V5.024h2.224V3.776h-2.224V1.2l-1.616.56v2.016h-1.568v1.248h1.568V9.2c0 .896.23 1.579.688 2.048.459.47 1.104.704 1.936.704zm4.912-.112V5.024h1.888V3.776h-1.888V2.88c0-1.013.443-1.52 1.328-1.52.256 0 .528.043.816.128V.16c-.352-.107-.741-.16-1.168-.16-.821 0-1.459.235-1.912.704-.453.47-.68 1.152-.68 2.048v1.024h-1.552v1.248h1.552v6.816h1.616zm6.928.112c.779 0 1.467-.17 2.064-.512.597-.341 1.059-.827 1.384-1.456.325-.63.488-1.365.488-2.208 0-.843-.163-1.581-.488-2.216-.325-.635-.787-1.123-1.384-1.464-.597-.341-1.285-.512-2.064-.512-.79 0-1.483.17-2.08.512-.597.341-1.059.83-1.384 1.464-.325.635-.488 1.373-.488 2.216 0 .843.163 1.579.488 2.208.325.63.787 1.115 1.384 1.456.597.341 1.29.512 2.08.512zm-.016-1.28c-.736 0-1.304-.245-1.704-.736-.4-.49-.6-1.21-.6-2.16 0-.928.203-1.643.608-2.144.405-.501.976-.752 1.712-.752.725 0 1.288.25 1.688.752.4.501.6 1.216.6 2.144 0 .95-.197 1.67-.592 2.16-.395.49-.965.736-1.712.736zm7.44 1.168V.064h-1.6V11.84h1.6zm4.096-9.888V.256h-1.872v1.696h1.872zm-.128 9.888V3.776h-1.6v8.064h1.6zm5.84.112c.779 0 1.467-.17 2.064-.512.597-.341 1.059-.827 1.384-1.456.325-.63.488-1.365.488-2.208 0-.843-.163-1.581-.488-2.216-.325-.635-.787-1.123-1.384-1.464-.597-.341-1.285-.512-2.064-.512-.79 0-1.483.17-2.08.512-.597.341-1.059.83-1.384 1.464-.325.635-.488 1.373-.488 2.216 0 .843.163 1.579.488 2.208.325.63.787 1.115 1.384 1.456.597.341 1.29.512 2.08.512zm-.016-1.28c-.736 0-1.304-.245-1.704-.736-.4-.49-.6-1.21-.6-2.16 0-.928.203-1.643.608-2.144.405-.501.976-.752 1.712-.752.725 0 1.288.25 1.688.752.4.501.6 1.216.6 2.144 0 .95-.197 1.67-.592 2.16-.395.49-.965.736-1.712.736zm12.976 1.28c.565 0 1.072-.125 1.52-.376.448-.25.8-.61 1.056-1.08v1.344h1.568V3.776h-1.616v4.528c0 .704-.2 1.27-.6 1.696-.4.427-.93.64-1.592.64-.555 0-.968-.157-1.24-.472-.272-.315-.408-.803-.408-1.464V3.776h-1.6V8.72c0 2.155.97 3.232 2.912 3.232zm9.328 0c1.003 0 1.795-.21 2.376-.632.581-.421.872-.995.872-1.72 0-.587-.184-1.064-.552-1.432-.368-.368-.936-.637-1.704-.808l-1.376-.336c-.395-.096-.683-.23-.864-.4-.181-.17-.272-.395-.272-.672 0-.352.144-.627.432-.824.288-.197.693-.296 1.216-.296.864 0 1.685.31 2.464.928l.496-1.136c-.363-.33-.803-.587-1.32-.768-.517-.181-1.064-.272-1.64-.272-.96 0-1.73.224-2.312.672-.581.448-.872 1.035-.872 1.76 0 .565.184 1.037.552 1.416.368.379.904.643 1.608.792l1.344.32c.47.117.803.259 1 .424.197.165.296.392.296.68 0 .341-.144.605-.432.792-.288.187-.71.28-1.264.28-1.088 0-2.053-.32-2.896-.96l-.48 1.168c.81.683 1.92 1.024 3.328 1.024zm6.88-10V.256h-1.872v1.696h1.872zm-.128 9.888V3.776h-1.6v8.064h1.6zm3.968 0V7.248c0-.715.205-1.285.616-1.712.41-.427.957-.64 1.64-.64.597 0 1.032.16 1.304.48.272.32.408.832.408 1.536v4.928h1.616V6.816c0-2.155-.965-3.232-2.896-3.232-.619 0-1.17.136-1.656.408-.485.272-.856.664-1.112 1.176l-.144-1.392h-1.504c.085.672.128 1.43.128 2.272v5.792h1.6zm11.488 3.568c1.27 0 2.227-.312 2.872-.936.645-.624.968-1.55.968-2.776v-7.92h-1.6v1.312c-.245-.48-.603-.85-1.072-1.112-.47-.261-1.013-.392-1.632-.392-.704 0-1.33.168-1.88.504-.55.336-.976.808-1.28 1.416-.304.608-.456 1.307-.456 2.096 0 .79.152 1.488.456 2.096.304.608.73 1.077 1.28 1.408.55.33 1.176.496 1.88.496.619 0 1.163-.136 1.632-.408.47-.272.827-.643 1.072-1.112v1.744c0 1.536-.752 2.304-2.256 2.304-.523 0-1.016-.064-1.48-.192-.464-.128-.947-.325-1.448-.592l-.272 1.264c.917.533 1.99.8 3.216.8zm-.096-5.104c-.725 0-1.299-.243-1.72-.728-.421-.485-.632-1.144-.632-1.976 0-.843.21-1.507.632-1.992.421-.485.995-.728 1.72-.728.736 0 1.31.243 1.72.728.41.485.616 1.15.616 1.992 0 .843-.208 1.504-.624 1.984-.416.48-.987.72-1.712.72z"/>
            </g>
        </g>
    </g>
</svg>
