<svg xmlns="http://www.w3.org/2000/svg" xmlns:xlink="http://www.w3.org/1999/xlink" width="36" height="40" viewBox="0 0 36 40">
    <defs>
        <path id="a" d="M0 0h32v32H0z"/>
        <path id="c" d="M7.573 21.526c3.579 0 7.103-2.33 10.572-6.991.679-6.012.409-9.761-.81-11.25C15.85 1.476 9.25 0 5.74 0 3.04 0 0 5.279 0 9.015c0 2.107.824 5.815 2.505 8.65 1.301 2.192 2.726 3.861 5.068 3.861z"/>
    </defs>
    <g fill="none" fill-rule="evenodd">
        <g transform="translate(5 -1)">
            <mask id="b" fill="#fff">
                <use xlink:href="#a"/>
            </mask>
            <g mask="url(#b)">
                <path fill="#FFA32C" d="M21.253 26.21c-.444.661-.64 1.203-.587 1.626.037.291.144.926.441.941.138.008.046-.552.222-.63.129-.058.143.533.325.484.183-.05.002-.506.055-1.349.053-.842.27-1.453.131-1.607-.092-.102-.288.076-.587.535zM19.169 24.282c.091.559.162.898.21 1.019.05.12.375.416.974.887.105.09.187.124.245.1.059-.023.024-.108-.104-.256-.515-.502-.791-.8-.83-.893-.037-.093-.115-.414-.232-.962-.056-.044-.113-.054-.172-.03-.058.023-.089.068-.091.135z"/>
                <path fill="#FFA32C" d="M20.55 23.782c.022.566.05.911.083 1.037.034.126.318.459.854.998.093.103.17.146.23.13.061-.017.037-.106-.071-.267-.448-.561-.684-.89-.71-.988-.026-.097-.064-.425-.112-.984-.05-.05-.105-.067-.166-.05-.06.016-.096.057-.107.124zM20.273 26.3c-.51.403-.839.785-.987 1.148-.11.268.03 1.113.235 1.16.257.059.223-1.017.468-1.068.155-.033-.05.755.175.747.284-.01.284-.614.445-1.087.162-.473.345-1.095.354-1.283.005-.126-.225.002-.69.384z"/>
                <path fill="#2BC6C3" d="M19.977 24.602c.318.177.564.238.738.184.174-.055.412-.5.714-1.335a5.834 5.834 0 0 0-.685.565 4.417 4.417 0 0 1-.767.586z"/>
                <path fill="#1CBBB7" d="M18.67 25.228c.367.03.618.036.752.019a.476.476 0 0 0 .354-.237c.04-.06.133-.202.28-.43l-1.386.648z"/>
            </g>
            <path fill="#24B8B5" d="M24.624 19.484c.5-.541.878-.974 1.134-1.3.257-.324.58-.78.972-1.365.054-.053.08-.132.08-.237 0-.106-.053-.185-.161-.238l-.515-.28c-.133-.284-.258-.457-.376-.521-.117-.065-.31-.065-.576 0l-.558-.305c-.161-.027-.27-.027-.323 0-.054.027-.108.106-.162.237-.256.711-.409 1.26-.46 1.648-.052.387-.052.988 0 1.804l.945.557z" mask="url(#b)"/>
            <g mask="url(#b)">
                <path fill="#03B5B5" d="M20.341 5.64c-.068-1.06-.338-1.665-.81-1.812-.471-.148-1.114.028-1.926.527L20.34 5.64zM11.676 2.987c-.246-.854-.615-1.28-1.106-1.28-.492 0-.95.296-1.374.89l2.48.39z"/>
                <g transform="translate(3.352 2.597)">
                    <ellipse cx="10.091" cy="14.627" fill="#24B8B5" rx="8.054" ry="8.003"/>
                    <path fill="#24B8B5" d="M16.523 11.335c.764-.481 1.255.592 1.473 3.22l3.442 2.412c-2.384 3.94-4.915 5.998-7.593 6.177-2.678.179-5.133-.269-7.365-1.342 3.621-5.044 6.969-8.533 10.043-10.467z"/>
                    <use fill="#00BCBC" xlink:href="#c"/>
                </g>
                <path fill="#E6F8F8" d="M7.697 15.218c2.445 1.06 5.43 1.385 7.568.426 2.138-.958 3.242-2.162 3.87-5.088.629-2.925-.278-3.857-1.298-4.591s-2.69-1.059-3.432-1.059c-1.368 0-2.573.72-3.617 2.162.473-1.61.287-2.62-.556-3.029-1.265-.613-2.664-.376-3.601.238-.937.613-2.235 3.474-2.45 4.185-.217.711.012 4.84 3.516 6.756z"/>
                <path fill="#FFA32C" d="M9.783 9.45c-.428-.15-1.392.364-1.7.74a.818.818 0 0 0-.101.248c-.085.343.144 2.295.885 2.639.638.295 1.905-.95 2.268-1.42.03-.038-.773-2.005-1.352-2.207z"/>
                <path fill="#E38D1D" d="M8.152 10.718c.177.823.381 1.294.612 1.412.063.033.433.113 1.058.032.209-.027.585-.117 1.128-.27-1.16.044-1.844 0-2.055-.131-.106-.066-.235-.089-.36-.263-.083-.116-.21-.376-.383-.78z"/>
                <g fill="#008181">
                    <path d="M11.762 9.619c-.05-.11-.028-.195.065-.257.463-.312 1.059-.497 1.484-.48.792.033 1.573 1.474 1.575 1.58 0 .025.136.372.043.31-.303-.2-1.207-1.124-1.76-1.244a2.495 2.495 0 0 0-1.407.09zM6.307 7.815c-.05-.103-.033-.186.05-.249.414-.312.956-.505 1.348-.5.732.011 1.224.635 1.277.726.086.145.288.696.132.734-.241.058-.723-.78-1.238-.882-.448-.089-.971-.031-1.57.171z"/>
                </g>
            </g>
            <path fill="#FFA32C" fill-rule="nonzero" d="M21.759 12.314c3.01-1.173 4.328-2.796 5.46-3.703.56-.45 1.041-.827 1.266-.786.742.139-.104 1.543.292 2.008.262.308 1.18.086 1.3.684.222 1.1-.363 3.418-.725 4.252-.533 1.23-1.465 3.417-4.257 5.293-1.718 1.155-4.683 1.78-6.573.096-2.194-1.954-1.87-3.604-.963-5.36.752-1.455 3.612-2.255 4.2-2.484z" mask="url(#b)"/>
            <path d="M-31.793.363c3.202 1.01 5.767-1.604 8.337-1.604 5.618 0 3.201 5.764 10.873 8.199 1.191.378 9.747 2.429 16.82-.666C13.63 2.183 21.28-4.801 22.515-6.443c3.118-4.145 10.641-16.414 2.175-16.414-6.161 0-1.752-2.198-6.705-2.673-4.954-.475-5.858-2.412-11.493-4.89-3.588-1.578-17.57-.726-26.685 4.297-5.204 2.867-6.334 8.699-9.303 12.174-5.179 6.061-6.1 13.112-2.296 14.312z" mask="url(#b)"/>
        </g>
        <path fill="#1C45D4" d="M2.798 35.404l-.58 1.484-.579-1.484-1.528-.551 1.528-.55.58-1.485.579 1.485 1.37.55z"/>
        <path fill="#9C0089" d="M16.84 37.753l-.79 2.026-.791-2.026L13.172 37l2.087-.751.79-2.028.792 2.028 1.87.752z" opacity=".64"/>
        <path fill="#A035D1" d="M11.68 30.09l-.724 1.854-.724-1.854-1.91-.69 1.91-.687.724-1.856.724 1.856 1.712.689z"/>
        <path fill="#1355B6" d="M27.84 35.753l-.79 2.026-.791-2.026L24.172 35l2.087-.751.79-2.028.792 2.028 1.87.752z"/>
    </g>
</svg>
