<svg xmlns="http://www.w3.org/2000/svg" xmlns:xlink="http://www.w3.org/1999/xlink" width="375" height="440" viewBox="0 0 375 440">
    <defs>
        <path id="a" d="M0 0h375v440H0z"/>
        <rect id="d" width="350" height="160" rx="6"/>
        <filter id="c" width="114.9%" height="132.5%" x="-7.4%" filterUnits="objectBoundingBox">
            <feOffset dy="10" in="SourceAlpha" result="shadowOffsetOuter1"/>
            <feGaussianBlur in="shadowOffsetOuter1" result="shadowBlurOuter1" stdDeviation="7"/>
            <feColorMatrix in="shadowBlurOuter1" values="0 0 0 0 0 0 0 0 0 0 0 0 0 0 0 0 0 0 0.142804574 0"/>
        </filter>
        <path id="f" d="M16.801 0H100.2c9.073 0 16.428 7.355 16.428 16.429 0 9.073-7.355 16.428-16.428 16.428H89.83c0 8.762-4.26 13.143-12.78 13.143 2.749-5.476 2.749-9.857 0-13.143h-60.25C7.728 32.857.373 25.502.373 16.43.373 7.355 7.728 0 16.8 0z"/>
        <filter id="e" width="112%" height="130.4%" x="-6%" y="-10.9%" filterUnits="objectBoundingBox">
            <feOffset dy="2" in="SourceAlpha" result="shadowOffsetOuter1"/>
            <feGaussianBlur in="shadowOffsetOuter1" result="shadowBlurOuter1" stdDeviation="2"/>
            <feColorMatrix in="shadowBlurOuter1" values="0 0 0 0 0.596608922 0 0 0 0 0.596608922 0 0 0 0 0.596608922 0 0 0 0.5 0"/>
        </filter>
        <path id="h" d="M17.531 0h86.938c9.467 0 17.142 7.675 17.142 17.143s-7.675 17.143-17.142 17.143H93.67C93.67 43.429 89.228 48 80.344 48c2.866-5.714 2.866-10.286 0-13.714H17.531C8.064 34.286.39 26.61.39 17.143S8.064 0 17.53 0z"/>
        <filter id="g" width="111.5%" height="129.2%" x="-5.8%" y="-10.4%" filterUnits="objectBoundingBox">
            <feOffset dy="2" in="SourceAlpha" result="shadowOffsetOuter1"/>
            <feGaussianBlur in="shadowOffsetOuter1" result="shadowBlurOuter1" stdDeviation="2"/>
            <feColorMatrix in="shadowBlurOuter1" values="0 0 0 0 0.596608922 0 0 0 0 0.596608922 0 0 0 0 0.596608922 0 0 0 0.5 0"/>
        </filter>
        <path id="j" d="M20 0h121c11.046 0 20 8.954 20 20s-8.954 20-20 20h-22.5c0 10.667-5.167 16-15.5 16 3.333-6.667 3.333-12 0-16H20C8.954 40 0 31.046 0 20S8.954 0 20 0z"/>
        <filter id="i" width="108.7%" height="125%" x="-4.3%" y="-8.9%" filterUnits="objectBoundingBox">
            <feOffset dy="2" in="SourceAlpha" result="shadowOffsetOuter1"/>
            <feGaussianBlur in="shadowOffsetOuter1" result="shadowBlurOuter1" stdDeviation="2"/>
            <feColorMatrix in="shadowBlurOuter1" values="0 0 0 0 0.596608922 0 0 0 0 0.596608922 0 0 0 0 0.596608922 0 0 0 0.5 0"/>
        </filter>
        <path id="k" d="M0 0h52v52H0z"/>
        <path id="m" d="M12.306 34.98c5.815 0 11.542-3.787 17.18-11.36 1.102-9.77.664-15.863-1.317-18.28C25.758 2.396 15.03 0 9.327 0 4.939 0 0 8.578 0 14.65c0 3.423 1.34 9.449 4.071 14.054 2.114 3.563 4.43 6.276 8.235 6.276z"/>
    </defs>
    <g fill="none" fill-rule="evenodd">
        <mask id="b" fill="#fff">
            <use xlink:href="#a"/>
        </mask>
        <use fill="#56E4D6" xlink:href="#a"/>
        <g mask="url(#b)">
            <g transform="translate(-44 16)">
                <circle cx="231.5" cy="148.5" r="148.5" fill="#5DD8CC"/>
                <circle cx="148.5" cy="471.5" r="148.5" fill="#5DD8CC"/>
                <circle cx="148.5" cy="471.5" r="129.5" fill="#3CCEC0"/>
                <circle cx="461.5" cy="390.5" r="148.5" fill="#5DD8CC"/>
                <circle cx="461.5" cy="390.5" r="129.5" fill="#3CCEC0"/>
                <circle cx="231.5" cy="148.5" r="129.5" fill="#3CCEC0"/>
                <g transform="translate(57 64)">
                    <use fill="#000" filter="url(#c)" xlink:href="#d"/>
                    <use fill="#FFF" xlink:href="#d"/>
                </g>
                <path fill="#000" fill-rule="nonzero" d="M127.608 115h-2.176l-1.456-3.792c-.128-.352-.325-.597-.592-.736-.267-.139-.613-.208-1.04-.208h-2.064V115h-2.048v-11.392h4.88c1.29 0 2.272.283 2.944.848.672.565 1.008 1.376 1.008 2.432 0 .757-.2 1.4-.6 1.928-.4.528-.968.904-1.704 1.128.672.139 1.157.608 1.456 1.408l1.392 3.648zm-4.784-6.336c.779 0 1.355-.144 1.728-.432.373-.288.56-.725.56-1.312 0-.576-.184-1.005-.552-1.288-.368-.283-.947-.424-1.736-.424h-2.576v3.456h2.576zm13.268 2.4h-5.568c.043.864.259 1.501.648 1.912.39.41.968.616 1.736.616.885 0 1.707-.288 2.464-.864l.576 1.376c-.384.31-.856.557-1.416.744-.56.187-1.128.28-1.704.28-1.323 0-2.363-.373-3.12-1.12-.757-.747-1.136-1.77-1.136-3.072 0-.821.165-1.552.496-2.192.33-.64.795-1.139 1.392-1.496.597-.357 1.275-.536 2.032-.536 1.11 0 1.987.36 2.632 1.08.645.72.968 1.71.968 2.968v.304zm-3.552-2.912c-.533 0-.968.157-1.304.472-.336.315-.552.77-.648 1.368h3.76c-.064-.608-.248-1.067-.552-1.376-.304-.31-.723-.464-1.256-.464zm7.38.272v3.616c0 .95.443 1.424 1.328 1.424.245 0 .512-.043.8-.128v1.584c-.352.128-.779.192-1.28.192-.917 0-1.621-.256-2.112-.768-.49-.512-.736-1.248-.736-2.208v-3.712h-1.552v-1.504h1.552v-1.968l2-.672v2.64h2.144v1.504h-2.144zm3.22 6.576v-8.08h1.984V115h-1.984zm-.128-11.744h2.224v1.968h-2.224v-1.968zm8.356 3.472c.31 0 .576.043.8.128l-.016 1.824a2.78 2.78 0 0 0-1.056-.208c-.683 0-1.203.197-1.56.592-.357.395-.536.917-.536 1.568V115h-1.984v-5.792c0-.853-.043-1.616-.128-2.288h1.872l.16 1.424c.203-.523.523-.923.96-1.2a2.72 2.72 0 0 1 1.488-.416zm8.532 4.336h-5.568c.043.864.259 1.501.648 1.912.39.41.968.616 1.736.616.885 0 1.707-.288 2.464-.864l.576 1.376c-.384.31-.856.557-1.416.744-.56.187-1.128.28-1.704.28-1.323 0-2.363-.373-3.12-1.12-.757-.747-1.136-1.77-1.136-3.072 0-.821.165-1.552.496-2.192.33-.64.795-1.139 1.392-1.496.597-.357 1.275-.536 2.032-.536 1.11 0 1.987.36 2.632 1.08.645.72.968 1.71.968 2.968v.304zm-3.552-2.912c-.533 0-.968.157-1.304.472-.336.315-.552.77-.648 1.368h3.76c-.064-.608-.248-1.067-.552-1.376-.304-.31-.723-.464-1.256-.464zm14.484-1.44c.917 0 1.6.275 2.048.824.448.55.672 1.384.672 2.504V115h-2v-4.896c0-.64-.104-1.101-.312-1.384-.208-.283-.552-.424-1.032-.424-.555 0-.99.195-1.304.584-.315.39-.472.925-.472 1.608V115h-2v-4.896c0-.63-.11-1.088-.328-1.376-.219-.288-.563-.432-1.032-.432-.555 0-.992.195-1.312.584-.32.39-.48.925-.48 1.608V115h-1.984v-5.792c0-.853-.043-1.616-.128-2.288h1.872l.144 1.28a2.52 2.52 0 0 1 1.016-1.104c.443-.256.952-.384 1.528-.384 1.237 0 2.043.512 2.416 1.536.256-.48.621-.856 1.096-1.128a3.144 3.144 0 0 1 1.592-.408zm11.62 4.352h-5.568c.043.864.259 1.501.648 1.912.39.41.968.616 1.736.616.885 0 1.707-.288 2.464-.864l.576 1.376c-.384.31-.856.557-1.416.744-.56.187-1.128.28-1.704.28-1.323 0-2.363-.373-3.12-1.12-.757-.747-1.136-1.77-1.136-3.072 0-.821.165-1.552.496-2.192.33-.64.795-1.139 1.392-1.496.597-.357 1.275-.536 2.032-.536 1.11 0 1.987.36 2.632 1.08.645.72.968 1.71.968 2.968v.304zm-3.552-2.912c-.533 0-.968.157-1.304.472-.336.315-.552.77-.648 1.368h3.76c-.064-.608-.248-1.067-.552-1.376-.304-.31-.723-.464-1.256-.464zm9.572-1.44c1.93 0 2.896 1.11 2.896 3.328V115h-2v-4.864c0-.64-.123-1.107-.368-1.4-.245-.293-.624-.44-1.136-.44-.608 0-1.099.195-1.472.584-.373.39-.56.904-.56 1.544V115h-1.984v-5.792c0-.853-.043-1.616-.128-2.288h1.872l.144 1.328c.277-.49.653-.87 1.128-1.136.475-.267 1.01-.4 1.608-.4zm7.268 1.712v3.616c0 .95.443 1.424 1.328 1.424.245 0 .512-.043.8-.128v1.584c-.352.128-.779.192-1.28.192-.917 0-1.621-.256-2.112-.768-.49-.512-.736-1.248-.736-2.208v-3.712h-1.552v-1.504h1.552v-1.968l2-.672v2.64h2.144v1.504h-2.144zm7.448 6.576v-11.392h7.44v1.648h-5.392v3.12h5.072v1.664h-5.072V115h-2.048zm15.908-8.08V115h-1.952v-1.248c-.256.448-.597.79-1.024 1.024-.427.235-.917.352-1.472.352-1.973 0-2.96-1.11-2.96-3.328v-4.88h1.984v4.896c0 .587.12 1.019.36 1.296.24.277.61.416 1.112.416.587 0 1.056-.192 1.408-.576.352-.384.528-.896.528-1.536v-4.496h2.016zm18.952-3.696V115h-1.968v-1.296a2.596 2.596 0 0 1-1.056 1.048c-.459.25-.981.376-1.568.376a3.341 3.341 0 0 1-1.856-.528c-.544-.352-.968-.85-1.272-1.496-.304-.645-.456-1.384-.456-2.216 0-.832.15-1.563.448-2.192.299-.63.72-1.117 1.264-1.464s1.168-.52 1.872-.52c.576 0 1.09.12 1.544.36.453.24.803.579 1.048 1.016v-4.864h2zm-12.452 3.488c1.93 0 2.896 1.11 2.896 3.328V115h-2v-4.864c0-.64-.123-1.107-.368-1.4-.245-.293-.624-.44-1.136-.44-.608 0-1.099.195-1.472.584-.373.39-.56.904-.56 1.544V115h-1.984v-5.792c0-.853-.043-1.616-.128-2.288h1.872l.144 1.328c.277-.49.653-.87 1.128-1.136.475-.267 1.01-.4 1.608-.4zM234 108.28c-.672 0-1.192.227-1.56.68-.368.453-.552 1.096-.552 1.928 0 .843.184 1.499.552 1.968.368.47.883.704 1.544.704s1.176-.23 1.544-.688c.368-.459.552-1.11.552-1.952 0-.843-.181-1.493-.544-1.952-.363-.459-.875-.688-1.536-.688z"/>
                <path fill="#005150" d="M87.95 102.219c8.81 0 15.951 6.87 15.951 15.343 0 8.474-7.141 15.343-15.95 15.343-8.81 0-15.951-6.87-15.951-15.343 0-8.474 7.141-15.343 15.95-15.343"/>
                <path fill="#FFF" d="M85.34 124.573c.809 0 1.554.405 1.994 1.084a.064.064 0 0 0 .102.007 3.48 3.48 0 0 1 3.574-1.027l-1.142-2.913h-4.04l-1.155 2.944c.212-.061.435-.095.666-.095"/>
                <path fill="#9DE9E9" d="M84.177 127.579a.063.063 0 0 0 .026.041.065.065 0 0 0 .048.012 4.398 4.398 0 0 1 3.653 1.085.065.065 0 0 0 .088 0 4.398 4.398 0 0 1 3.653-1.085.065.065 0 0 0 .048-.011.063.063 0 0 0 .026-.042c.12-.783.422-1.524.875-2.17a3.602 3.602 0 0 0-2.439-.942 3.595 3.595 0 0 0-2.67 1.175 2.471 2.471 0 0 0-2.067-1.1c-.832 0-1.567.403-2.012 1.02.396.61.661 1.296.771 2.017"/>
                <path fill="#008181" d="M84.04 127.636c-.386-2.483-2.624-4.388-5.328-4.388-1.878 0-3.53.918-4.494 2.31 1.476 2.372 3.617 4.32 6.176 5.613.273-1.812 1.759-3.248 3.646-3.535M96.972 123.248c-2.704 0-4.943 1.905-5.328 4.388 1.886.287 3.372 1.723 3.646 3.535 2.558-1.293 4.699-3.241 6.175-5.613-.964-1.392-2.616-2.31-4.493-2.31"/>
                <path fill="#00BCBC" d="M91.036 127.514c-1.173 0-2.24.441-3.036 1.16a4.514 4.514 0 0 0-3.036-1.16c-2.243 0-4.099 1.608-4.41 3.7A16.28 16.28 0 0 0 88 133c2.69 0 5.223-.646 7.446-1.786-.311-2.092-2.167-3.7-4.41-3.7"/>
                <path fill="#FF9600" d="M83.073 113.188c0-.51.02-1.017.056-1.521-1.524.846-2.575 2.73-2.575 4.913 0 1.152.291 2.252.841 3.178a.281.281 0 0 0 .348.117 6.245 6.245 0 0 1 2.297-.447c-.633-1.92-.967-4.062-.967-6.24M92.871 111.667c.036.504.056 1.012.056 1.521 0 2.178-.334 4.32-.967 6.24a6.245 6.245 0 0 1 2.297.447.283.283 0 0 0 .348-.117c.55-.926.84-2.026.84-3.178 0-2.182-1.05-4.067-2.574-4.913M85.307 120.2v1.503c0 .179.149.326.33.326h4.408a.33.33 0 0 0 .331-.326V120.2h-5.07"/>
                <path fill="#E6F8F8" d="M91.802 106.486h-7.92c-.727 2.024-1.11 4.303-1.11 6.636 0 2.426.416 4.81 1.203 6.895.041.11.15.183.27.183h7.193c.121 0 .23-.073.27-.183.787-2.085 1.203-4.47 1.203-6.895 0-2.333-.383-4.612-1.109-6.636"/>
                <path fill="#FF9600" d="M85.94 106.79v.937c0 .156.149.283.33.283h3.143c.181 0 .33-.127.33-.283v-.937H85.94M88 101a.29.29 0 0 0-.18.063c-1.446 1.147-2.663 2.887-3.521 5.031-.091.229-.177.461-.26.696h7.921a16.932 16.932 0 0 0-.259-.696c-.858-2.144-2.075-3.884-3.52-5.031A.29.29 0 0 0 88 101"/>
                <path fill="#007F7E" d="M88 109.229c1.837 0 3.327 1.432 3.327 3.2 0 1.767-1.49 3.2-3.327 3.2s-3.327-1.433-3.327-3.2c0-1.768 1.49-3.2 3.327-3.2"/>
                <path fill="#00BCBC" d="M88 110.448c1.137 0 2.06.887 2.06 1.98 0 1.095-.923 1.982-2.06 1.982s-2.06-.887-2.06-1.981.923-1.981 2.06-1.981"/>
                <path fill="#FFF" d="M78.495 111.971a.18.18 0 0 1-.166-.106c-.353-.82-.613-1.07-1.466-1.41a.173.173 0 0 1-.11-.16c0-.07.043-.132.11-.16.853-.339 1.113-.59 1.466-1.41a.18.18 0 0 1 .166-.106.18.18 0 0 1 .166.107c.353.82.613 1.07 1.466 1.41.067.027.11.09.11.16s-.043.132-.11.159c-.853.34-1.113.59-1.466 1.41a.18.18 0 0 1-.166.106M96.396 107.095a.196.196 0 0 1-.18-.116c-.386-.895-.67-1.168-1.6-1.538a.188.188 0 0 1-.121-.174c0-.076.048-.145.12-.174.931-.37 1.215-.644 1.6-1.539a.196.196 0 0 1 .181-.116c.08 0 .15.046.18.116.386.895.67 1.168 1.6 1.539.073.029.121.098.121.174a.188.188 0 0 1-.12.174c-.93.37-1.215.643-1.6 1.538a.196.196 0 0 1-.181.116"/>
                <path fill="#11B600" fill-rule="nonzero" d="M125.19 174.005v1.335h-3.03v3.03h-1.32v-3.03h-3.03v-1.335h3.03v-3.03h1.32v3.03h3.03zm13.26 1.395v1.515h-1.515V179h-1.89v-2.085h-4.65v-1.44l4.995-7.155h1.545v7.08h1.515zm-6.225 0h2.82v-4.065l-2.82 4.065zm7.26 1.5h2.1v2.1h-2.1v-2.1zm11.025.525V179h-7.17v-1.425l3.63-3.915c.43-.47.745-.9.945-1.29.2-.39.3-.775.3-1.155 0-.49-.142-.86-.428-1.11-.285-.25-.692-.375-1.222-.375-.94 0-1.905.37-2.895 1.11l-.645-1.41c.42-.38.96-.682 1.62-.908a6.147 6.147 0 0 1 1.995-.337c1.07 0 1.917.262 2.543.787.625.526.937 1.233.937 2.123 0 .61-.132 1.185-.398 1.725-.265.54-.707 1.145-1.327 1.815l-2.625 2.79h4.74zm6.57 0h2.325V179h-6.585v-1.575h2.34v-6.885l-2.175 1.305v-1.725l2.97-1.8h1.125v9.105zm13.875-4.845c.85 0 1.512.275 1.987.825.476.55.713 1.36.713 2.43s-.237 1.882-.713 2.438c-.475.555-1.137.832-1.987.832-.85 0-1.512-.277-1.988-.832-.475-.556-.712-1.373-.712-2.453 0-1.06.237-1.865.712-2.415.476-.55 1.138-.825 1.988-.825zm.12-4.26L164.88 179h-1.65l6.18-10.68h1.665zm-.12 5.475c-.38 0-.66.162-.84.488-.18.325-.27.842-.27 1.552 0 .72.09 1.242.27 1.568.18.325.46.487.84.487.38 0 .66-.162.84-.487.18-.326.27-.848.27-1.568 0-.71-.092-1.227-.278-1.552a.9.9 0 0 0-.832-.488zm-7.62-5.625c.85 0 1.515.277 1.995.833.48.555.72 1.362.72 2.422 0 1.07-.24 1.882-.72 2.438-.48.555-1.145.832-1.995.832-.84 0-1.497-.277-1.973-.832-.475-.556-.712-1.368-.712-2.438 0-1.06.237-1.867.712-2.422.476-.556 1.133-.833 1.973-.833zm0 1.215a.884.884 0 0 0-.825.488c-.18.325-.27.842-.27 1.552 0 .72.09 1.242.27 1.568.18.325.455.487.825.487.39 0 .675-.16.855-.48.18-.32.27-.845.27-1.575 0-.71-.092-1.227-.278-1.552-.185-.326-.467-.488-.847-.488z"/>
                <path fill="#00A7A7" fill-rule="nonzero" d="M127.242 153.382c0 .972-.339 1.791-1.017 2.457-.678.666-1.587 1.083-2.727 1.251v1.998h-1.836v-1.962a8.305 8.305 0 0 1-2.241-.468 5.99 5.99 0 0 1-1.809-1.026l.792-1.692c1.044.816 2.172 1.266 3.384 1.35v-3.744c-.804-.204-1.482-.429-2.034-.675a3.531 3.531 0 0 1-1.386-1.098c-.372-.486-.558-1.119-.558-1.899 0-.648.162-1.239.486-1.773a3.96 3.96 0 0 1 1.359-1.332c.582-.354 1.251-.579 2.007-.675v-1.998h1.836v1.98c.696.084 1.35.252 1.962.504.612.252 1.128.57 1.548.954l-.792 1.692c-.876-.72-1.824-1.152-2.844-1.296v3.906c.804.204 1.47.423 1.998.657.528.234.972.585 1.332 1.053.36.468.54 1.08.54 1.836zm-7.11-5.634c0 .42.144.759.432 1.017.288.258.696.477 1.224.657v-3.474c-.516.108-.921.318-1.215.63-.294.312-.441.702-.441 1.17zm3.24 7.452c.504-.108.888-.309 1.152-.603.264-.294.396-.675.396-1.143 0-.372-.132-.672-.396-.9-.264-.228-.648-.42-1.152-.576v3.222zm14.123-.09V157h-8.604v-1.71l4.356-4.698c.516-.564.893-1.08 1.134-1.548.24-.468.36-.93.36-1.386 0-.588-.171-1.032-.513-1.332-.343-.3-.831-.45-1.467-.45-1.129 0-2.286.444-3.474 1.332l-.774-1.692c.504-.456 1.151-.819 1.944-1.089a7.376 7.376 0 0 1 2.394-.405c1.284 0 2.3.315 3.05.945.75.63 1.126 1.479 1.126 2.547 0 .732-.16 1.422-.477 2.07-.319.648-.85 1.374-1.593 2.178l-3.15 3.348h5.688zm6.148 2.052c-1.524 0-2.685-.561-3.483-1.683-.798-1.122-1.197-2.757-1.197-4.905 0-2.112.399-3.726 1.197-4.842.798-1.116 1.959-1.674 3.483-1.674s2.685.555 3.483 1.665c.798 1.11 1.197 2.727 1.197 4.851 0 2.136-.399 3.768-1.197 4.896-.798 1.128-1.959 1.692-3.483 1.692zm0-1.818c.828 0 1.431-.381 1.809-1.143.378-.762.567-1.971.567-3.627 0-1.632-.189-2.823-.567-3.573-.378-.75-.981-1.125-1.809-1.125s-1.431.375-1.809 1.125c-.378.75-.567 1.941-.567 3.573 0 1.656.189 2.865.567 3.627.378.762.981 1.143 1.809 1.143zm8.723-.864v1.656c0 .636-.108 1.212-.324 1.728-.217.516-.582 1.032-1.098 1.548l-.918-.738c.564-.6.887-1.158.972-1.674h-1.152v-2.52h2.52zm8.2-4.068c.756.204 1.335.576 1.737 1.116.402.54.603 1.206.603 1.998 0 1.116-.411 1.998-1.233 2.646-.822.648-1.929.972-3.321.972a7.885 7.885 0 0 1-2.493-.396c-.798-.264-1.455-.63-1.971-1.098l.792-1.692c1.14.888 2.334 1.332 3.582 1.332.816 0 1.425-.162 1.827-.486.402-.324.603-.816.603-1.476 0-.648-.204-1.125-.612-1.431-.408-.306-1.038-.459-1.89-.459h-1.692v-1.854h1.386c1.656 0 2.484-.63 2.484-1.89 0-.588-.18-1.038-.54-1.35-.36-.312-.864-.468-1.512-.468-1.152 0-2.304.444-3.456 1.332l-.774-1.692c.516-.456 1.167-.819 1.953-1.089a7.402 7.402 0 0 1 2.421-.405c1.26 0 2.265.309 3.015.927.75.618 1.125 1.443 1.125 2.475-.012.708-.195 1.323-.549 1.845-.354.522-.849.903-1.485 1.143zm19.263-6.354c1.524 0 2.685.555 3.483 1.665.798 1.11 1.197 2.727 1.197 4.851 0 2.136-.399 3.768-1.197 4.896-.798 1.128-1.959 1.692-3.483 1.692s-2.685-.561-3.483-1.683c-.798-1.122-1.197-2.757-1.197-4.905 0-2.112.399-3.726 1.197-4.842.798-1.116 1.959-1.674 3.483-1.674zm-10.792-.036c1.284 0 2.3.315 3.05.945.75.63 1.126 1.479 1.126 2.547 0 .732-.16 1.422-.477 2.07-.319.648-.85 1.374-1.593 2.178l-3.15 3.348h5.688V157h-8.604v-1.71l4.356-4.698c.516-.564.893-1.08 1.134-1.548.24-.468.36-.93.36-1.386 0-.588-.171-1.032-.513-1.332-.343-.3-.831-.45-1.467-.45-1.129 0-2.286.444-3.474 1.332l-.774-1.692c.504-.456 1.151-.819 1.944-1.089a7.376 7.376 0 0 1 2.394-.405zm10.792 1.854c-.828 0-1.431.375-1.809 1.125-.378.75-.567 1.941-.567 3.573 0 1.656.189 2.865.567 3.627.378.762.981 1.143 1.809 1.143s1.431-.381 1.809-1.143c.378-.762.567-1.971.567-3.627 0-1.632-.189-2.823-.567-3.573-.378-.75-.981-1.125-1.809-1.125z"/>
                <path fill="#9B9B9B" fill-rule="nonzero" d="M286.05 184.112c-.943 0-1.762-.205-2.457-.616-.695-.41-1.23-1.001-1.603-1.771s-.56-1.678-.56-2.723.187-1.948.56-2.709a4.068 4.068 0 0 1 1.603-1.757c.695-.41 1.514-.616 2.457-.616.69 0 1.323.105 1.897.315.574.21 1.071.525 1.491.945l-.434.882c-.476-.41-.945-.705-1.407-.882a4.246 4.246 0 0 0-1.533-.266c-1.092 0-1.939.355-2.541 1.064-.602.71-.903 1.717-.903 3.024 0 1.316.299 2.331.896 3.045s1.447 1.071 2.548 1.071c.56 0 1.071-.089 1.533-.266.462-.177.931-.471 1.407-.882l.434.882c-.42.42-.917.735-1.491.945a5.485 5.485 0 0 1-1.897.315zm10.98-7.154V184h-1.12v-1.274a2.232 2.232 0 0 1-.932 1.015c-.415.238-.898.357-1.449.357-.625 0-1.173-.15-1.645-.448a2.937 2.937 0 0 1-1.092-1.267c-.256-.546-.384-1.183-.384-1.911s.13-1.37.392-1.925c.26-.555.627-.987 1.099-1.295.47-.308 1.014-.462 1.63-.462.551 0 1.032.121 1.442.364.411.243.724.583.939 1.022v-1.218h1.12zm-3.276 6.202c.69 0 1.222-.236 1.595-.707.374-.471.56-1.141.56-2.009 0-.868-.186-1.535-.56-2.002-.373-.467-.905-.7-1.596-.7-.69 0-1.23.24-1.617.721-.387.48-.58 1.15-.58 2.009s.19 1.521.573 1.988c.383.467.924.7 1.624.7zm7.591.938c-1.185 0-2.123-.303-2.814-.91l.378-.84c.383.299.77.513 1.162.644.392.13.83.196 1.316.196.532 0 .936-.091 1.211-.273.275-.182.413-.446.413-.791 0-.28-.093-.504-.28-.672-.16-.144-.41-.26-.747-.35l-1.367-.322c-.588-.13-1.043-.364-1.365-.7a1.68 1.68 0 0 1-.483-1.204c0-.616.247-1.118.742-1.505.495-.387 1.148-.581 1.96-.581.495 0 .961.08 1.4.238.439.159.807.387 1.106.686l-.378.826c-.663-.55-1.372-.826-2.128-.826-.504 0-.894.096-1.169.287a.925.925 0 0 0-.413.805c0 .29.086.518.259.686.173.168.45.299.833.392l1.19.294c.653.15 1.139.38 1.456.693.317.313.476.721.476 1.225 0 .607-.247 1.092-.742 1.456-.495.364-1.167.546-2.016.546zm7.815-7.308c1.69 0 2.534.929 2.534 2.786V184h-1.134v-4.368c0-.653-.13-1.132-.392-1.435-.26-.303-.671-.455-1.232-.455-.653 0-1.175.2-1.568.602-.392.401-.588.943-.588 1.624V184h-1.134v-10.304h1.134v4.41c.225-.43.544-.756.96-.98a2.946 2.946 0 0 1 1.42-.336zm15.561 7.21l-1.092-2.562h-5.208L317.315 184h-1.19l4.382-9.968h1.008l4.382 9.968h-1.176zm-5.894-3.514h4.396l-2.198-5.124-2.198 5.124zm11.106 3.612c-.681 0-1.276-.15-1.785-.448a3 3 0 0 1-1.176-1.267c-.275-.546-.413-1.183-.413-1.911s.14-1.37.42-1.925a3.09 3.09 0 0 1 1.197-1.295c.518-.308 1.122-.462 1.813-.462.476 0 .936.082 1.379.245.443.163.81.39 1.099.679l-.378.84a4.135 4.135 0 0 0-1.029-.616 2.745 2.745 0 0 0-1.015-.196c-.719 0-1.283.24-1.694.721-.41.48-.616 1.15-.616 2.009 0 .85.203 1.51.609 1.981.406.471.973.707 1.701.707.345 0 .684-.065 1.015-.196.331-.13.674-.336 1.029-.616l.378.84c-.299.28-.674.502-1.127.665a4.114 4.114 0 0 1-1.407.245zm6.667 0c-.68 0-1.276-.15-1.785-.448a3 3 0 0 1-1.176-1.267c-.275-.546-.413-1.183-.413-1.911s.14-1.37.42-1.925a3.09 3.09 0 0 1 1.197-1.295c.519-.308 1.123-.462 1.813-.462.477 0 .936.082 1.38.245.443.163.81.39 1.098.679l-.378.84a4.135 4.135 0 0 0-1.029-.616 2.745 2.745 0 0 0-1.015-.196c-.718 0-1.283.24-1.694.721-.41.48-.616 1.15-.616 2.009 0 .85.203 1.51.61 1.981.406.471.972.707 1.7.707.346 0 .684-.065 1.015-.196.332-.13.675-.336 1.03-.616l.377.84c-.298.28-.674.502-1.127.665a4.114 4.114 0 0 1-1.407.245zm6.626 0c-.663 0-1.246-.15-1.75-.448a3.004 3.004 0 0 1-1.169-1.274c-.275-.55-.413-1.195-.413-1.932 0-.737.138-1.381.413-1.932.275-.55.665-.975 1.169-1.274.504-.299 1.087-.448 1.75-.448s1.246.15 1.75.448c.504.299.894.723 1.169 1.274.275.55.413 1.195.413 1.932 0 .737-.138 1.381-.413 1.932-.275.55-.665.975-1.169 1.274-.504.299-1.087.448-1.75.448zm0-.938c.7 0 1.237-.231 1.61-.693.373-.462.56-1.136.56-2.023 0-.859-.191-1.524-.574-1.995-.383-.471-.915-.707-1.596-.707-.69 0-1.227.236-1.61.707s-.574 1.136-.574 1.995c0 .887.189 1.561.567 2.023.378.462.917.693 1.617.693zm10.727-6.202V184h-1.106v-1.218c-.224.43-.536.756-.938.98a2.738 2.738 0 0 1-1.358.336c-.83 0-1.46-.233-1.89-.7-.429-.467-.644-1.157-.644-2.072v-4.368h1.134v4.34c0 .635.131 1.101.392 1.4.262.299.658.448 1.19.448.626 0 1.13-.203 1.512-.609.383-.406.574-.94.574-1.603v-3.976h1.134zm5.436-.168c1.69 0 2.534.929 2.534 2.786V184h-1.134v-4.368c0-.653-.13-1.132-.392-1.435-.261-.303-.672-.455-1.232-.455-.653 0-1.176.2-1.568.602-.392.401-.588.943-.588 1.624V184h-1.134v-5.068c0-.728-.037-1.386-.112-1.974h1.078l.112 1.26c.215-.457.537-.81.966-1.057.43-.247.92-.371 1.47-.371zm5.925 1.064v3.85c0 .523.108.889.322 1.099.215.21.518.315.91.315.262 0 .514-.042.756-.126v.966c-.289.093-.615.14-.98.14-.672 0-1.196-.189-1.575-.567-.378-.378-.567-.936-.567-1.673v-4.004h-1.372v-.896h1.372v-1.806l1.134-.406v2.212h2.016v.896h-2.016zm2.944-.742h1.442v1.456h-1.442v-1.456zm0 5.446h1.442V184h-1.442v-1.442zm10.297-10.15v1.54a4.871 4.871 0 0 1 1.547.392c.49.215.908.495 1.253.84l-.434.882a4.038 4.038 0 0 0-2.408-1.134v3.766a9.47 9.47 0 0 1 1.533.49 2.61 2.61 0 0 1 1.015.777c.27.34.406.786.406 1.337 0 .747-.266 1.372-.798 1.876-.532.504-1.237.807-2.114.91v1.54h-.98v-1.526a5.76 5.76 0 0 1-1.785-.378 4.494 4.494 0 0 1-1.435-.896l.434-.882c.448.383.898.667 1.351.854a4.46 4.46 0 0 0 1.477.322v-3.556a10.581 10.581 0 0 1-1.596-.532 2.758 2.758 0 0 1-1.057-.819c-.285-.36-.427-.833-.427-1.421 0-.513.128-.975.385-1.386.257-.41.614-.744 1.071-1.001a3.948 3.948 0 0 1 1.582-.469v-1.526h.98zm7.507 1.512c1.14 0 2.005.432 2.597 1.295.593.863.89 2.126.89 3.787 0 1.67-.297 2.94-.89 3.808-.592.868-1.458 1.302-2.597 1.302-1.138 0-2.004-.432-2.597-1.295-.592-.863-.889-2.13-.889-3.801 0-1.67.297-2.938.89-3.801.592-.863 1.458-1.295 2.596-1.295zm0 .98c-.793 0-1.378.331-1.757.994-.378.663-.567 1.699-.567 3.108 0 1.41.19 2.452.567 3.129.379.677.964 1.015 1.757 1.015.794 0 1.38-.336 1.757-1.008.379-.672.567-1.717.567-3.136 0-1.41-.186-2.445-.56-3.108-.373-.663-.96-.994-1.764-.994zm-7.549 4.886v3.304c.57-.075 1.01-.264 1.323-.567.313-.303.469-.702.469-1.197 0-.41-.154-.73-.462-.959-.308-.229-.751-.422-1.33-.581zm-.896-4.858c-.597.056-1.064.245-1.4.567-.336.322-.504.74-.504 1.253 0 .476.163.84.49 1.092.327.252.798.462 1.414.63v-3.542z"/>
                <path fill="#000" fill-rule="nonzero" d="M124.764 132h-1.044l-1.056-2.844c-.128-.352-.306-.588-.534-.708-.228-.12-.55-.18-.966-.18h-2.136V132h-.972v-8.544h3.396c.92 0 1.626.204 2.118.612.492.408.738.996.738 1.764 0 .56-.146 1.03-.438 1.41-.292.38-.714.65-1.266.81.248.04.46.146.636.318.176.172.324.418.444.738l1.08 2.892zm-3.396-4.548c1.312 0 1.968-.536 1.968-1.608 0-.528-.16-.922-.48-1.182-.32-.26-.816-.39-1.488-.39h-2.34v3.18h2.34zm9.711 1.5h-4.428c.008.768.186 1.348.534 1.74.348.392.854.588 1.518.588.704 0 1.352-.236 1.944-.708l.324.708a2.813 2.813 0 0 1-1.014.588 3.81 3.81 0 0 1-1.266.216c-.944 0-1.684-.278-2.22-.834-.536-.556-.804-1.318-.804-2.286 0-.616.12-1.162.36-1.638s.576-.846 1.008-1.11a2.773 2.773 0 0 1 1.476-.396c.8 0 1.428.262 1.884.786.456.524.684 1.246.684 2.166v.18zm-2.556-2.376c-.504 0-.914.152-1.23.456-.316.304-.518.732-.606 1.284h3.516c-.048-.568-.214-1-.498-1.296-.284-.296-.678-.444-1.182-.444zm6.111-2.616c-.32 0-.57.09-.75.27-.18.18-.27.49-.27.93v.804h1.476v.768h-1.476V132h-.972v-5.268h-1.176v-.768h1.176v-.924c0-.632.158-1.11.474-1.434.316-.324.758-.486 1.326-.486.28 0 .552.036.816.108v.828a2.281 2.281 0 0 0-.624-.096zm8.178 8.136c-.808 0-1.51-.176-2.106-.528a3.474 3.474 0 0 1-1.374-1.518c-.32-.66-.48-1.438-.48-2.334 0-.896.16-1.67.48-2.322a3.487 3.487 0 0 1 1.374-1.506c.596-.352 1.298-.528 2.106-.528.592 0 1.134.09 1.626.27.492.18.918.45 1.278.81l-.372.756c-.408-.352-.81-.604-1.206-.756a3.64 3.64 0 0 0-1.314-.228c-.936 0-1.662.304-2.178.912-.516.608-.774 1.472-.774 2.592 0 1.128.256 1.998.768 2.61.512.612 1.24.918 2.184.918.48 0 .918-.076 1.314-.228.396-.152.798-.404 1.206-.756l.372.756c-.36.36-.786.63-1.278.81-.492.18-1.034.27-1.626.27zm6.591-.012c-.568 0-1.068-.128-1.5-.384a2.575 2.575 0 0 1-1.002-1.092c-.236-.472-.354-1.024-.354-1.656 0-.632.118-1.184.354-1.656s.57-.836 1.002-1.092c.432-.256.932-.384 1.5-.384s1.068.128 1.5.384c.432.256.766.62 1.002 1.092.236.472.354 1.024.354 1.656 0 .632-.118 1.184-.354 1.656s-.57.836-1.002 1.092c-.432.256-.932.384-1.5.384zm0-.804c.6 0 1.06-.198 1.38-.594.32-.396.48-.974.48-1.734 0-.736-.164-1.306-.492-1.71-.328-.404-.784-.606-1.368-.606-.592 0-1.052.202-1.38.606-.328.404-.492.974-.492 1.71 0 .76.162 1.338.486 1.734.324.396.786.594 1.386.594zm9.459-8.112V132h-.96v-1.092a1.913 1.913 0 0 1-.798.87c-.356.204-.77.306-1.242.306-.528 0-.994-.132-1.398-.396a2.625 2.625 0 0 1-.942-1.11c-.224-.476-.336-1.026-.336-1.65 0-.624.11-1.17.33-1.638.22-.468.534-.83.942-1.086a2.586 2.586 0 0 1 1.404-.384c.472 0 .884.102 1.236.306.352.204.616.49.792.858v-3.816h.972zm-2.808 8.112c.592 0 1.048-.202 1.368-.606.32-.404.48-.978.48-1.722 0-.736-.16-1.306-.48-1.71-.32-.404-.776-.606-1.368-.606-.592 0-1.054.2-1.386.6-.332.4-.498.964-.498 1.692 0 .744.166 1.322.498 1.734.332.412.794.618 1.386.618zm9.519-2.328h-4.428c.008.768.186 1.348.534 1.74.348.392.854.588 1.518.588.704 0 1.352-.236 1.944-.708l.324.708a2.813 2.813 0 0 1-1.014.588 3.81 3.81 0 0 1-1.266.216c-.944 0-1.684-.278-2.22-.834-.536-.556-.804-1.318-.804-2.286 0-.616.12-1.162.36-1.638s.576-.846 1.008-1.11a2.773 2.773 0 0 1 1.476-.396c.8 0 1.428.262 1.884.786.456.524.684 1.246.684 2.166v.18zm-2.556-2.376c-.504 0-.914.152-1.23.456-.316.304-.518.732-.606 1.284h3.516c-.048-.568-.214-1-.498-1.296-.284-.296-.678-.444-1.182-.444zm3.639-.48h1.236v1.248h-1.236v-1.248zm0 4.668h1.236V132h-1.236v-1.236zm12.498-3.216v3.96c-.336.176-.776.318-1.32.426a8.483 8.483 0 0 1-1.656.162c-.848 0-1.58-.174-2.196-.522a3.428 3.428 0 0 1-1.41-1.506c-.324-.656-.486-1.44-.486-2.352 0-.904.162-1.682.486-2.334a3.465 3.465 0 0 1 1.392-1.5c.604-.348 1.318-.522 2.142-.522.6 0 1.15.09 1.65.27.5.18.93.45 1.29.81l-.384.756c-.416-.352-.822-.606-1.218-.762a3.625 3.625 0 0 0-1.338-.234c-.968 0-1.71.302-2.226.906-.516.604-.774 1.474-.774 2.61 0 1.16.264 2.042.792 2.646.528.604 1.296.906 2.304.906.712 0 1.396-.112 2.052-.336v-2.604h-2.124v-.78h3.024zm4.335 4.548c-.976 0-1.718-.37-2.226-1.11-.508-.74-.762-1.826-.762-3.258s.254-2.518.762-3.258c.508-.74 1.25-1.11 2.226-1.11s1.718.37 2.226 1.11c.508.74.762 1.822.762 3.246 0 1.432-.254 2.52-.762 3.264-.508.744-1.25 1.116-2.226 1.116zm0-.828c.68 0 1.182-.288 1.506-.864.324-.576.486-1.472.486-2.688 0-1.208-.16-2.096-.48-2.664-.32-.568-.824-.852-1.512-.852-.68 0-1.182.284-1.506.852-.324.568-.486 1.456-.486 2.664 0 1.208.162 2.102.486 2.682.324.58.826.87 1.506.87zm6.975.828c-.976 0-1.718-.37-2.226-1.11-.508-.74-.762-1.826-.762-3.258s.254-2.518.762-3.258c.508-.74 1.25-1.11 2.226-1.11s1.718.37 2.226 1.11c.508.74.762 1.822.762 3.246 0 1.432-.254 2.52-.762 3.264-.508.744-1.25 1.116-2.226 1.116zm0-.828c.68 0 1.182-.288 1.506-.864.324-.576.486-1.472.486-2.688 0-1.208-.16-2.096-.48-2.664-.32-.568-.824-.852-1.512-.852-.68 0-1.182.284-1.506.852-.324.568-.486 1.456-.486 2.664 0 1.208.162 2.102.486 2.682.324.58.826.87 1.506.87zm6.975.828c-.976 0-1.718-.37-2.226-1.11-.508-.74-.762-1.826-.762-3.258s.254-2.518.762-3.258c.508-.74 1.25-1.11 2.226-1.11s1.718.37 2.226 1.11c.508.74.762 1.822.762 3.246 0 1.432-.254 2.52-.762 3.264-.508.744-1.25 1.116-2.226 1.116zm0-.828c.68 0 1.182-.288 1.506-.864.324-.576.486-1.472.486-2.688 0-1.208-.16-2.096-.48-2.664-.32-.568-.824-.852-1.512-.852-.68 0-1.182.284-1.506.852-.324.568-.486 1.456-.486 2.664 0 1.208.162 2.102.486 2.682.324.58.826.87 1.506.87zm6.975.828c-.976 0-1.718-.37-2.226-1.11-.508-.74-.762-1.826-.762-3.258s.254-2.518.762-3.258c.508-.74 1.25-1.11 2.226-1.11s1.718.37 2.226 1.11c.508.74.762 1.822.762 3.246 0 1.432-.254 2.52-.762 3.264-.508.744-1.25 1.116-2.226 1.116zm0-.828c.68 0 1.182-.288 1.506-.864.324-.576.486-1.472.486-2.688 0-1.208-.16-2.096-.48-2.664-.32-.568-.824-.852-1.512-.852-.68 0-1.182.284-1.506.852-.324.568-.486 1.456-.486 2.664 0 1.208.162 2.102.486 2.682.324.58.826.87 1.506.87zm6.975.828c-.976 0-1.718-.37-2.226-1.11-.508-.74-.762-1.826-.762-3.258s.254-2.518.762-3.258c.508-.74 1.25-1.11 2.226-1.11s1.718.37 2.226 1.11c.508.74.762 1.822.762 3.246 0 1.432-.254 2.52-.762 3.264-.508.744-1.25 1.116-2.226 1.116zm0-.828c.68 0 1.182-.288 1.506-.864.324-.576.486-1.472.486-2.688 0-1.208-.16-2.096-.48-2.664-.32-.568-.824-.852-1.512-.852-.68 0-1.182.284-1.506.852-.324.568-.486 1.456-.486 2.664 0 1.208.162 2.102.486 2.682.324.58.826.87 1.506.87zm6.975.828c-.976 0-1.718-.37-2.226-1.11-.508-.74-.762-1.826-.762-3.258s.254-2.518.762-3.258c.508-.74 1.25-1.11 2.226-1.11s1.718.37 2.226 1.11c.508.74.762 1.822.762 3.246 0 1.432-.254 2.52-.762 3.264-.508.744-1.25 1.116-2.226 1.116zm0-.828c.68 0 1.182-.288 1.506-.864.324-.576.486-1.472.486-2.688 0-1.208-.16-2.096-.48-2.664-.32-.568-.824-.852-1.512-.852-.68 0-1.182.284-1.506.852-.324.568-.486 1.456-.486 2.664 0 1.208.162 2.102.486 2.682.324.58.826.87 1.506.87zm10.863-7.812l-3.36 5.088V132h-.984v-3.468l-3.36-5.076h1.152l2.712 4.2 2.712-4.2h1.128z"/>
                <path fill="#00A7A7" fill-rule="nonzero" d="M316.209 165.103h2.04V166h-5.16v-.897h2.04v-7.033l-1.897 1.209v-1.027l2.366-1.508h.61v8.359zm10.198-5.798c.572 0 1.08.139 1.521.416.442.277.785.67 1.027 1.176.243.508.364 1.099.364 1.775 0 .676-.121 1.272-.364 1.787a2.827 2.827 0 0 1-1.027 1.203 2.738 2.738 0 0 1-1.52.429c-.512 0-.958-.113-1.34-.338a2.184 2.184 0 0 1-.87-.962V166h-1.054v-9.568h1.053v4.186c.19-.425.48-.75.865-.975.385-.225.834-.338 1.345-.338zm-.195 5.915c.633 0 1.127-.223 1.482-.67.356-.446.533-1.072.533-1.878 0-.789-.175-1.4-.526-1.833-.351-.433-.847-.65-1.489-.65-.65 0-1.148.217-1.495.65-.346.433-.52 1.053-.52 1.859s.174 1.428.52 1.865c.347.438.845.657 1.495.657zm9.962-5.759V166h-1.027v-1.131a2.156 2.156 0 0 1-.871.91 2.543 2.543 0 0 1-1.262.312c-.77 0-1.356-.217-1.755-.65-.398-.433-.598-1.075-.598-1.924v-4.056h1.053v4.03c0 .59.122 1.023.365 1.3.242.277.61.416 1.104.416.581 0 1.05-.188 1.404-.566.356-.377.534-.873.534-1.488v-3.692h1.053zm7.53 0l-3.055 7.137c-.32.745-.724 1.291-1.21 1.638-.485.347-1.083.585-1.793.715l-.221-.819c.615-.139 1.08-.323 1.397-.552.317-.23.579-.583.787-1.06l.26-.585-2.77-6.474h1.106l2.21 5.395 2.236-5.395h1.053zm7.104-.156c.217 0 .416.026.598.078l-.026.962c-.2-.07-.429-.104-.689-.104-.632 0-1.103.197-1.41.591-.308.395-.462.874-.462 1.437V166h-1.053v-4.706c0-.676-.034-1.287-.104-1.833h1.001l.104 1.209a1.99 1.99 0 0 1 .793-1.014c.364-.234.78-.351 1.248-.351zm6.764 3.393h-4.798c.01.832.202 1.46.579 1.885.377.425.925.637 1.644.637.763 0 1.465-.256 2.106-.767l.351.767c-.286.269-.652.481-1.098.637a4.128 4.128 0 0 1-1.371.234c-1.023 0-1.825-.301-2.406-.904-.58-.602-.87-1.427-.87-2.476 0-.667.13-1.259.39-1.775a2.91 2.91 0 0 1 1.091-1.202 3.004 3.004 0 0 1 1.6-.429c.866 0 1.546.284 2.04.851.495.568.742 1.35.742 2.347v.195zm-2.77-2.574c-.546 0-.99.165-1.332.494-.342.33-.561.793-.657 1.391h3.81c-.053-.615-.232-1.083-.54-1.404-.308-.32-.734-.481-1.28-.481zm9.988-.663c-.07.546-.104 1.157-.104 1.833v7.514h-1.053v-3.965c-.19.399-.477.706-.858.923-.382.217-.828.325-1.34.325-.58 0-1.09-.139-1.527-.416a2.727 2.727 0 0 1-1.014-1.177c-.238-.507-.357-1.098-.357-1.774 0-.676.121-1.272.364-1.788a2.843 2.843 0 0 1 1.02-1.202c.438-.286.943-.429 1.515-.429.528 0 .988.12 1.378.357.39.239.68.579.87 1.021l.13-1.222h.976zm-3.146 5.759c.641 0 1.135-.219 1.482-.657.346-.437.52-1.059.52-1.865s-.174-1.426-.52-1.859c-.347-.433-.84-.65-1.482-.65s-1.142.223-1.502.67c-.36.446-.54 1.068-.54 1.865 0 .797.178 1.413.534 1.846.355.433.858.65 1.508.65zm10.312-5.759V166h-1.027v-1.131a2.156 2.156 0 0 1-.871.91 2.543 2.543 0 0 1-1.261.312c-.771 0-1.356-.217-1.755-.65-.399-.433-.598-1.075-.598-1.924v-4.056h1.053v4.03c0 .59.121 1.023.364 1.3.243.277.611.416 1.105.416.58 0 1.049-.188 1.404-.566.355-.377.533-.873.533-1.488v-3.692h1.053zm7.257 3.237h-4.797c.009.832.202 1.46.579 1.885.377.425.925.637 1.644.637.763 0 1.465-.256 2.106-.767l.351.767c-.286.269-.652.481-1.098.637a4.128 4.128 0 0 1-1.372.234c-1.022 0-1.824-.301-2.405-.904-.58-.602-.87-1.427-.87-2.476 0-.667.13-1.259.39-1.775a2.91 2.91 0 0 1 1.091-1.202 3.004 3.004 0 0 1 1.6-.429c.866 0 1.546.284 2.04.851.494.568.741 1.35.741 2.347v.195zm-2.769-2.574c-.546 0-.99.165-1.332.494-.343.33-.561.793-.657 1.391h3.81c-.053-.615-.233-1.083-.54-1.404-.308-.32-.735-.481-1.28-.481zm6.334 5.967c-1.1 0-1.971-.282-2.613-.845l.351-.78c.356.277.715.477 1.08.598a3.85 3.85 0 0 0 1.221.182c.495 0 .87-.084 1.125-.254.256-.169.383-.413.383-.734a.798.798 0 0 0-.26-.624c-.148-.134-.38-.242-.694-.325l-1.268-.299c-.547-.121-.969-.338-1.268-.65a1.56 1.56 0 0 1-.448-1.118c0-.572.23-1.038.688-1.398.46-.36 1.066-.539 1.82-.539.46 0 .893.074 1.3.221.408.147.75.36 1.028.637l-.351.767c-.616-.511-1.274-.767-1.976-.767-.469 0-.83.089-1.086.267a.858.858 0 0 0-.384.747c0 .269.08.481.241.637.16.156.418.277.774.364l1.105.273c.606.139 1.057.353 1.351.644.295.29.442.669.442 1.137 0 .563-.23 1.014-.688 1.352-.46.338-1.084.507-1.873.507zm5.334-5.798v3.575c0 .485.1.825.299 1.02.2.196.48.293.845.293.242 0 .476-.039.702-.117v.897c-.269.087-.572.13-.91.13-.624 0-1.112-.175-1.463-.527-.35-.35-.526-.868-.526-1.553v-3.718h-1.274v-.832h1.274v-1.677l1.053-.377v2.054h1.872v.832h-1.872z"/>
                <g>
                    <g transform="matrix(-1 0 0 1 225.5 28)">
                        <use fill="#000" filter="url(#e)" xlink:href="#f"/>
                        <use fill="#FFF" xlink:href="#f"/>
                    </g>
                    <path fill="#000" fill-rule="nonzero" d="M120.901 39.032h4.326c1.073 0 1.909.259 2.506.777.597.518.896 1.225.896 2.121 0 .896-.301 1.605-.903 2.128-.602.523-1.435.784-2.499.784h-2.52V49h-1.806v-9.968zm4.116 4.41c.625 0 1.099-.128 1.421-.385.322-.257.483-.628.483-1.113 0-.495-.159-.87-.476-1.127-.317-.257-.793-.385-1.428-.385h-2.31v3.01h2.31zm7.882 5.67c-.719 0-1.351-.15-1.897-.448a3.06 3.06 0 0 1-1.26-1.281c-.294-.555-.441-1.206-.441-1.953 0-.747.147-1.398.441-1.953a3.06 3.06 0 0 1 1.26-1.281c.546-.299 1.178-.448 1.897-.448.71 0 1.335.15 1.876.448a3.07 3.07 0 0 1 1.253 1.281c.294.555.441 1.206.441 1.953 0 .747-.147 1.398-.441 1.953a3.07 3.07 0 0 1-1.253 1.281c-.541.299-1.167.448-1.876.448zm-.014-1.372c.597 0 1.052-.194 1.365-.581.313-.387.469-.964.469-1.729 0-.756-.159-1.332-.476-1.729-.317-.397-.765-.595-1.344-.595-.588 0-1.04.198-1.358.595-.317.397-.476.973-.476 1.729 0 .765.156 1.342.469 1.729.313.387.763.581 1.351.581zm8.764-5.978c.27 0 .504.037.7.112l-.014 1.596a2.433 2.433 0 0 0-.924-.182c-.597 0-1.052.173-1.365.518-.313.345-.469.803-.469 1.372V49h-1.736v-5.068c0-.747-.037-1.414-.112-2.002h1.638l.14 1.246c.177-.457.457-.807.84-1.05a2.38 2.38 0 0 1 1.302-.364zm4.41 1.484v3.164c0 .83.387 1.246 1.162 1.246.215 0 .448-.037.7-.112v1.386c-.308.112-.681.168-1.12.168-.803 0-1.419-.224-1.848-.672-.43-.448-.644-1.092-.644-1.932v-3.248h-1.358V41.93h1.358v-1.722l1.75-.588v2.31h1.876v1.316h-1.876zm6.356-3.164c-.756 0-1.134.415-1.134 1.246v.602h1.582v1.316h-1.582V49h-1.75v-5.754h-1.344V41.93h1.344v-.686c0-.84.212-1.486.637-1.939.425-.453 1.034-.679 1.827-.679.439 0 .807.056 1.106.168v1.386a2.88 2.88 0 0 0-.686-.098zm4.788 9.03c-.719 0-1.351-.15-1.897-.448a3.06 3.06 0 0 1-1.26-1.281c-.294-.555-.441-1.206-.441-1.953 0-.747.147-1.398.441-1.953a3.06 3.06 0 0 1 1.26-1.281c.546-.299 1.178-.448 1.897-.448.71 0 1.335.15 1.876.448a3.07 3.07 0 0 1 1.253 1.281c.294.555.441 1.206.441 1.953 0 .747-.147 1.398-.441 1.953a3.07 3.07 0 0 1-1.253 1.281c-.541.299-1.167.448-1.876.448zm-.014-1.372c.597 0 1.052-.194 1.365-.581.313-.387.469-.964.469-1.729 0-.756-.159-1.332-.476-1.729-.317-.397-.765-.595-1.344-.595-.588 0-1.04.198-1.358.595-.317.397-.476.973-.476 1.729 0 .765.156 1.342.469 1.729.313.387.763.581 1.351.581zm4.956 1.26V38.696h1.736V49h-1.736zm3.514 0v-7.07h1.736V49h-1.736zm-.112-10.276h1.946v1.722h-1.946v-1.722zm6.832 10.388c-.719 0-1.351-.15-1.897-.448a3.06 3.06 0 0 1-1.26-1.281c-.294-.555-.441-1.206-.441-1.953 0-.747.147-1.398.441-1.953a3.06 3.06 0 0 1 1.26-1.281c.546-.299 1.178-.448 1.897-.448.71 0 1.335.15 1.876.448a3.07 3.07 0 0 1 1.253 1.281c.294.555.441 1.206.441 1.953 0 .747-.147 1.398-.441 1.953a3.07 3.07 0 0 1-1.253 1.281c-.541.299-1.167.448-1.876.448zm-.014-1.372c.597 0 1.052-.194 1.365-.581.313-.387.469-.964.469-1.729 0-.756-.159-1.332-.476-1.729-.317-.397-.765-.595-1.344-.595-.588 0-1.04.198-1.358.595-.317.397-.476.973-.476 1.729 0 .765.156 1.342.469 1.729.313.387.763.581 1.351.581zm13.608-5.796h1.736L184.615 49h-1.526l-3.052-7.056h1.834l2.03 5.068 2.072-5.068zm9.142-.014V49h-1.722v-1.134a2.271 2.271 0 0 1-.924.917c-.401.22-.859.329-1.372.329-.616 0-1.162-.15-1.638-.448a2.959 2.959 0 0 1-1.106-1.274c-.261-.55-.392-1.19-.392-1.918s.133-1.374.399-1.939.637-1.003 1.113-1.316a2.892 2.892 0 0 1 1.624-.469c.513 0 .97.11 1.372.329.401.22.71.525.924.917V41.93h1.722zm-3.542 5.81c.579 0 1.027-.2 1.344-.602.317-.401.476-.966.476-1.694 0-.747-.159-1.32-.476-1.722-.317-.401-.77-.602-1.358-.602-.579 0-1.029.208-1.351.623-.322.415-.483.992-.483 1.729 0 .728.161 1.288.483 1.68.322.392.777.588 1.365.588zm5.306 1.26V38.696h1.736V49h-1.736zm5.208-7.07v4.284c0 .513.105.891.315 1.134.21.243.534.364.973.364.513 0 .924-.168 1.232-.504.308-.336.462-.784.462-1.344V41.93h1.764V49h-1.708v-1.092c-.224.392-.523.69-.896.896a2.629 2.629 0 0 1-1.288.308c-1.727 0-2.59-.97-2.59-2.912v-4.27h1.736zm9.548-.182c.97 0 1.738.315 2.303.945.565.63.847 1.496.847 2.597v.266h-4.872c.037.756.226 1.314.567 1.673.34.36.847.539 1.519.539.775 0 1.493-.252 2.156-.756l.504 1.204c-.336.27-.749.488-1.239.651-.49.163-.987.245-1.491.245-1.157 0-2.067-.327-2.73-.98-.663-.653-.994-1.55-.994-2.688 0-.719.145-1.358.434-1.918.29-.56.695-.996 1.218-1.309.523-.313 1.115-.469 1.778-.469zm.042 1.26c-.467 0-.847.138-1.141.413-.294.275-.483.674-.567 1.197h3.29c-.056-.532-.217-.933-.483-1.204-.266-.27-.632-.406-1.099-.406z"/>
                </g>
                <g>
                    <g transform="rotate(180 124.75 133)">
                        <use fill="#000" filter="url(#g)" xlink:href="#h"/>
                        <use fill="#FFF" xlink:href="#h"/>
                    </g>
                    <path fill="#000" fill-rule="nonzero" d="M155.928 249.982c-.784 0-1.398-.259-1.841-.777-.443-.518-.665-1.276-.665-2.275 0-.99.222-1.743.665-2.261.443-.518 1.057-.777 1.841-.777.793 0 1.414.259 1.862.777.448.518.672 1.272.672 2.261 0 .999-.224 1.757-.672 2.275-.448.518-1.069.777-1.862.777zM157.37 254h-1.54l5.768-9.968h1.554L157.37 254zm-1.442-5.152c.364 0 .63-.15.798-.448.168-.299.252-.789.252-1.47 0-.663-.086-1.146-.259-1.449a.851.851 0 0 0-.791-.455.825.825 0 0 0-.77.455c-.168.303-.252.786-.252 1.449 0 .672.084 1.16.252 1.463a.825.825 0 0 0 .77.455zm7.112 5.25c-.793 0-1.412-.259-1.855-.777-.443-.518-.665-1.281-.665-2.289 0-.99.222-1.74.665-2.254.443-.513 1.062-.77 1.855-.77.793 0 1.412.257 1.855.77.443.513.665 1.27.665 2.268 0 .999-.222 1.757-.665 2.275-.443.518-1.062.777-1.855.777zm0-1.134c.355 0 .616-.152.784-.455.168-.303.252-.791.252-1.463 0-.663-.086-1.146-.259-1.449a.84.84 0 0 0-.777-.455c-.355 0-.616.152-.784.455-.168.303-.252.786-.252 1.449 0 .672.084 1.16.252 1.463.168.303.43.455.784.455zm10.85 1.148c-.719 0-1.351-.15-1.897-.448a3.06 3.06 0 0 1-1.26-1.281c-.294-.555-.441-1.206-.441-1.953 0-.747.147-1.398.441-1.953a3.06 3.06 0 0 1 1.26-1.281c.546-.299 1.178-.448 1.897-.448.71 0 1.335.15 1.876.448a3.07 3.07 0 0 1 1.253 1.281c.294.555.441 1.206.441 1.953 0 .747-.147 1.398-.441 1.953a3.07 3.07 0 0 1-1.253 1.281c-.541.299-1.167.448-1.876.448zm-.014-1.372c.597 0 1.052-.194 1.365-.581.313-.387.469-.964.469-1.729 0-.756-.159-1.332-.476-1.729-.317-.397-.765-.595-1.344-.595-.588 0-1.04.198-1.358.595-.317.397-.476.973-.476 1.729 0 .765.156 1.342.469 1.729.313.387.763.581 1.351.581zm8.26-7.658c-.756 0-1.134.415-1.134 1.246v.602h1.582v1.316h-1.582V254h-1.75v-5.754h-1.344v-1.316h1.344v-.686c0-.84.212-1.486.637-1.939.425-.453 1.034-.679 1.827-.679.439 0 .807.056 1.106.168v1.386a2.88 2.88 0 0 0-.686-.098zm9.156 1.68c.27 0 .504.037.7.112l-.014 1.596a2.433 2.433 0 0 0-.924-.182c-.597 0-1.052.173-1.365.518-.313.345-.469.803-.469 1.372V254h-1.736v-5.068c0-.747-.037-1.414-.112-2.002h1.638l.14 1.246c.177-.457.457-.807.84-1.05a2.38 2.38 0 0 1 1.302-.364zm7.588 3.794h-4.872c.037.756.226 1.314.567 1.673.34.36.847.539 1.519.539.775 0 1.493-.252 2.156-.756l.504 1.204c-.336.27-.749.488-1.239.651-.49.163-.987.245-1.491.245-1.157 0-2.067-.327-2.73-.98-.663-.653-.994-1.55-.994-2.688 0-.719.145-1.358.434-1.918.29-.56.695-.996 1.218-1.309.523-.313 1.115-.469 1.778-.469.97 0 1.738.315 2.303.945.565.63.847 1.496.847 2.597v.266zm-3.108-2.548c-.467 0-.847.138-1.141.413-.294.275-.483.674-.567 1.197h3.29c-.056-.532-.217-.933-.483-1.204-.266-.27-.632-.406-1.099-.406zm6.58.238v3.164c0 .83.387 1.246 1.162 1.246.215 0 .448-.037.7-.112v1.386c-.308.112-.681.168-1.12.168-.803 0-1.419-.224-1.848-.672-.43-.448-.644-1.092-.644-1.932v-3.248h-1.358v-1.316h1.358v-1.722l1.75-.588v2.31h1.876v1.316h-1.876zm9.38-1.316V254h-1.708v-1.092c-.224.392-.523.69-.896.896a2.629 2.629 0 0 1-1.288.308c-1.727 0-2.59-.97-2.59-2.912v-4.27h1.736v4.284c0 .513.105.891.315 1.134.21.243.534.364.973.364.513 0 .924-.168 1.232-.504.308-.336.462-.784.462-1.344v-3.934h1.764zm5.572-.168c.27 0 .504.037.7.112l-.014 1.596a2.433 2.433 0 0 0-.924-.182c-.597 0-1.052.173-1.365.518-.313.345-.469.803-.469 1.372V254h-1.736v-5.068c0-.747-.037-1.414-.112-2.002h1.638l.14 1.246c.177-.457.457-.807.84-1.05a2.38 2.38 0 0 1 1.302-.364zm5.586-.014c1.69 0 2.534.97 2.534 2.912V254h-1.75v-4.256c0-.56-.107-.968-.322-1.225-.215-.257-.546-.385-.994-.385-.532 0-.961.17-1.288.511-.327.34-.49.791-.49 1.351V254h-1.736v-5.068c0-.747-.037-1.414-.112-2.002h1.638l.126 1.162c.243-.43.572-.76.987-.994.415-.233.884-.35 1.407-.35z"/>
                </g>
                <g>
                    <g transform="matrix(-1 0 0 1 393 14)">
                        <use fill="#000" filter="url(#i)" xlink:href="#j"/>
                        <use fill="#FFF" xlink:href="#j"/>
                    </g>
                    <path fill="#000" fill-rule="nonzero" d="M257.777 28.032h1.694V38h-1.344l-5.376-6.986V38h-1.68v-9.968h1.344l5.362 6.972v-6.972zm6.804 10.08c-.719 0-1.351-.15-1.897-.448a3.06 3.06 0 0 1-1.26-1.281c-.294-.555-.441-1.206-.441-1.953 0-.747.147-1.398.441-1.953a3.06 3.06 0 0 1 1.26-1.281c.546-.299 1.178-.448 1.897-.448.71 0 1.335.15 1.876.448a3.07 3.07 0 0 1 1.253 1.281c.294.555.441 1.206.441 1.953 0 .747-.147 1.398-.441 1.953a3.07 3.07 0 0 1-1.253 1.281c-.541.299-1.167.448-1.876.448zm-.014-1.372c.597 0 1.052-.194 1.365-.581.313-.387.469-.964.469-1.729 0-.756-.159-1.332-.476-1.729-.317-.397-.765-.595-1.344-.595-.588 0-1.04.198-1.358.595-.317.397-.476.973-.476 1.729 0 .765.156 1.342.469 1.729.313.387.763.581 1.351.581zm4.592-.7h1.96V38h-1.96v-1.96zm10.458 2.072c-.719 0-1.351-.15-1.897-.448a3.06 3.06 0 0 1-1.26-1.281c-.294-.555-.441-1.206-.441-1.953 0-.747.147-1.398.441-1.953a3.06 3.06 0 0 1 1.26-1.281c.546-.299 1.178-.448 1.897-.448.71 0 1.335.15 1.876.448a3.07 3.07 0 0 1 1.253 1.281c.294.555.441 1.206.441 1.953 0 .747-.147 1.398-.441 1.953a3.07 3.07 0 0 1-1.253 1.281c-.541.299-1.167.448-1.876.448zm-.014-1.372c.597 0 1.052-.194 1.365-.581.313-.387.469-.964.469-1.729 0-.756-.159-1.332-.476-1.729-.317-.397-.765-.595-1.344-.595-.588 0-1.04.198-1.358.595-.317.397-.476.973-.476 1.729 0 .765.156 1.342.469 1.729.313.387.763.581 1.351.581zm8.26-7.658c-.756 0-1.134.415-1.134 1.246v.602h1.582v1.316h-1.582V38h-1.75v-5.754h-1.344V30.93h1.344v-.686c0-.84.212-1.486.637-1.939.425-.453 1.034-.679 1.827-.679.439 0 .807.056 1.106.168v1.386a2.88 2.88 0 0 0-.686-.098zm9.38 1.666c.616 0 1.16.152 1.631.455.471.303.838.73 1.099 1.281.261.55.392 1.19.392 1.918s-.133 1.374-.399 1.939-.635 1.001-1.106 1.309a2.89 2.89 0 0 1-1.617.462c-.523 0-.987-.112-1.393-.336a2.195 2.195 0 0 1-.917-.938V38h-1.722V27.696h1.736v4.298c.215-.392.523-.698.924-.917.401-.22.859-.329 1.372-.329zm-.462 5.992c.579 0 1.027-.205 1.344-.616.317-.41.476-.985.476-1.722 0-.728-.159-1.29-.476-1.687-.317-.397-.77-.595-1.358-.595-.588 0-1.04.2-1.358.602-.317.401-.476.97-.476 1.708 0 .747.159 1.318.476 1.715.317.397.775.595 1.372.595zm11.41-5.81V38h-1.708v-1.092c-.224.392-.523.69-.896.896a2.629 2.629 0 0 1-1.288.308c-1.727 0-2.59-.97-2.59-2.912v-4.27h1.736v4.284c0 .513.105.891.315 1.134.21.243.534.364.973.364.513 0 .924-.168 1.232-.504.308-.336.462-.784.462-1.344V30.93h1.764zm8.456 0l-3.29 7.546c-.373.877-.85 1.517-1.428 1.918-.579.401-1.293.667-2.142.798l-.392-1.344c.663-.15 1.16-.338 1.491-.567.331-.229.6-.567.805-1.015l.224-.518-2.94-6.818h1.834l2.03 5.082 2.072-5.082h1.736zm8.274-.168c.27 0 .504.037.7.112l-.014 1.596a2.433 2.433 0 0 0-.924-.182c-.597 0-1.052.173-1.365.518-.313.345-.469.803-.469 1.372V38h-1.736v-5.068c0-.747-.037-1.414-.112-2.002h1.638l.14 1.246c.177-.457.457-.807.84-1.05a2.38 2.38 0 0 1 1.302-.364zm7.588 3.794h-4.872c.037.756.226 1.314.567 1.673.34.36.847.539 1.519.539.775 0 1.493-.252 2.156-.756l.504 1.204c-.336.27-.749.488-1.239.651-.49.163-.987.245-1.491.245-1.157 0-2.067-.327-2.73-.98-.663-.653-.994-1.55-.994-2.688 0-.719.145-1.358.434-1.918.29-.56.695-.996 1.218-1.309.523-.313 1.115-.469 1.778-.469.97 0 1.738.315 2.303.945.565.63.847 1.496.847 2.597v.266zm-3.108-2.548c-.467 0-.847.138-1.141.413-.294.275-.483.674-.567 1.197h3.29c-.056-.532-.217-.933-.483-1.204-.266-.27-.632-.406-1.099-.406zm11.34-1.078c-.084.56-.126 1.227-.126 2.002v8.092h-1.75v-4.102c-.215.383-.52.677-.917.882a2.896 2.896 0 0 1-1.351.308c-.616 0-1.162-.15-1.638-.448a2.959 2.959 0 0 1-1.106-1.274c-.261-.55-.392-1.19-.392-1.918s.133-1.374.399-1.939.637-1.003 1.113-1.316a2.892 2.892 0 0 1 1.624-.469 2.83 2.83 0 0 1 1.442.364c.42.243.728.583.924 1.022l.126-1.204h1.652zm-3.668 5.81c.579 0 1.027-.2 1.344-.602.317-.401.476-.966.476-1.694 0-.747-.159-1.32-.476-1.722-.317-.401-.77-.602-1.358-.602-.579 0-1.029.208-1.351.623-.322.415-.483.992-.483 1.729 0 .728.161 1.288.483 1.68.322.392.777.588 1.365.588zm11.746-5.81V38h-1.708v-1.092c-.224.392-.523.69-.896.896a2.629 2.629 0 0 1-1.288.308c-1.727 0-2.59-.97-2.59-2.912v-4.27h1.736v4.284c0 .513.105.891.315 1.134.21.243.534.364.973.364.513 0 .924-.168 1.232-.504.308-.336.462-.784.462-1.344V30.93h1.764zm7.952 3.626h-4.872c.037.756.226 1.314.567 1.673.34.36.847.539 1.519.539.775 0 1.493-.252 2.156-.756l.504 1.204c-.336.27-.749.488-1.239.651-.49.163-.987.245-1.491.245-1.157 0-2.067-.327-2.73-.98-.663-.653-.994-1.55-.994-2.688 0-.719.145-1.358.434-1.918.29-.56.695-.996 1.218-1.309.523-.313 1.115-.469 1.778-.469.97 0 1.738.315 2.303.945.565.63.847 1.496.847 2.597v.266zm-3.108-2.548c-.467 0-.847.138-1.141.413-.294.275-.483.674-.567 1.197h3.29c-.056-.532-.217-.933-.483-1.204-.266-.27-.632-.406-1.099-.406zm7.042 6.104c-1.279 0-2.296-.299-3.052-.896l.49-1.232c.756.56 1.62.84 2.59.84.42 0 .744-.07.973-.21.229-.14.343-.336.343-.588a.618.618 0 0 0-.238-.511c-.159-.126-.43-.236-.812-.329l-1.176-.266c-1.288-.28-1.932-.938-1.932-1.974 0-.43.121-.81.364-1.141.243-.331.583-.59 1.022-.777.439-.187.947-.28 1.526-.28.504 0 .99.077 1.456.231.467.154.877.376 1.232.665l-.518 1.19c-.71-.523-1.437-.784-2.184-.784-.401 0-.714.075-.938.224a.703.703 0 0 0-.336.616c0 .205.068.369.203.49s.366.224.693.308l1.204.266c.7.159 1.211.404 1.533.735.322.331.483.763.483 1.295 0 .653-.261 1.171-.784 1.554s-1.237.574-2.142.574zm6.44-5.866v3.164c0 .83.387 1.246 1.162 1.246.215 0 .448-.037.7-.112v1.386c-.308.112-.681.168-1.12.168-.803 0-1.419-.224-1.848-.672-.43-.448-.644-1.092-.644-1.932v-3.248h-1.358V30.93h1.358v-1.722l1.75-.588v2.31h1.876v1.316h-1.876zm5.53 5.866c-1.279 0-2.296-.299-3.052-.896l.49-1.232c.756.56 1.62.84 2.59.84.42 0 .744-.07.973-.21.229-.14.343-.336.343-.588a.618.618 0 0 0-.238-.511c-.159-.126-.43-.236-.812-.329l-1.176-.266c-1.288-.28-1.932-.938-1.932-1.974 0-.43.121-.81.364-1.141.243-.331.583-.59 1.022-.777.439-.187.947-.28 1.526-.28.504 0 .99.077 1.456.231.467.154.877.376 1.232.665l-.518 1.19c-.71-.523-1.437-.784-2.184-.784-.401 0-.714.075-.938.224a.703.703 0 0 0-.336.616c0 .205.068.369.203.49s.366.224.693.308l1.204.266c.7.159 1.211.404 1.533.735.322.331.483.763.483 1.295 0 .653-.261 1.171-.784 1.554s-1.237.574-2.142.574z"/>
                </g>
            </g>
        </g>
        <g mask="url(#b)">
            <g transform="translate(308 214)">
                <mask id="l" fill="#fff">
                    <use xlink:href="#k"/>
                </mask>
                <g mask="url(#l)">
                    <path fill="#FFA32C" d="M34.537 42.591c-.722 1.075-1.04 1.955-.954 2.642.06.474.232 1.505.716 1.53.225.012.074-.897.36-1.025.21-.094.233.866.53.787.296-.08.001-.822.087-2.191.086-1.369.44-2.362.214-2.612-.15-.166-.468.124-.953.87zM31.149 39.459c.149.907.263 1.459.343 1.655.08.195.608.676 1.582 1.441.17.147.303.201.398.163.095-.038.038-.176-.17-.415-.836-.817-1.285-1.3-1.347-1.452-.061-.152-.188-.673-.379-1.563-.09-.071-.183-.088-.278-.05-.095.038-.145.112-.149.22z"/>
                    <path fill="#FFA32C" d="M33.395 38.645c.034.92.079 1.482.134 1.686.054.205.517.745 1.388 1.622.15.166.275.236.373.21.1-.027.06-.171-.116-.434-.727-.911-1.111-1.446-1.154-1.604-.042-.158-.102-.69-.18-1.599-.082-.081-.171-.109-.27-.082-.099.026-.157.093-.175.201zM32.943 42.738c-.828.654-1.362 1.276-1.603 1.865-.179.436.049 1.81.382 1.885.418.095.362-1.652.76-1.736.251-.053-.081 1.227.284 1.215.462-.016.461-.999.724-1.767.263-.768.561-1.78.575-2.086.009-.203-.365.005-1.122.624z"/>
                    <path fill="#2BC6C3" d="M32.463 39.979c.517.287.917.386 1.2.298.282-.089.668-.811 1.159-2.169a9.48 9.48 0 0 0-1.113.917c-.42.394-.835.711-1.246.954z"/>
                    <path fill="#1CBBB7" d="M30.339 40.996c.596.047 1.004.058 1.223.03.328-.04.478-.242.574-.385.065-.096.217-.328.455-.698l-2.252 1.053z"/>
                </g>
                <path fill="#24B8B5" d="M40.015 31.662c.81-.88 1.425-1.584 1.842-2.112.417-.528.943-1.268 1.579-2.22.088-.085.132-.214.132-.385s-.088-.3-.264-.385l-.836-.457c-.216-.46-.42-.742-.611-.846-.191-.105-.503-.105-.937 0l-.905-.495c-.263-.044-.439-.044-.527 0-.087.044-.175.173-.263.385-.415 1.156-.664 2.048-.748 2.677-.084.63-.084 1.607 0 2.933l1.538.905z" mask="url(#l)"/>
                <g mask="url(#l)">
                    <path fill="#03B5B5" d="M33.054 9.166c-.11-1.724-.548-2.706-1.315-2.946-.767-.24-1.81.046-3.131.858l4.446 2.088zM18.973 4.853c-.4-1.386-.999-2.08-1.797-2.08-.799 0-1.543.483-2.233 1.447l4.03.633z"/>
                    <g transform="translate(5.448 4.22)">
                        <ellipse cx="16.397" cy="23.769" fill="#24B8B5" rx="13.088" ry="13.006"/>
                        <path fill="#24B8B5" d="M26.85 18.419c1.242-.782 2.04.963 2.393 5.234l5.593 3.92c-3.873 6.4-7.986 9.745-12.338 10.036-4.352.29-8.341-.436-11.968-2.18 5.885-8.197 11.324-13.866 16.32-17.01z"/>
                        <use fill="#00BCBC" xlink:href="#m"/>
                    </g>
                    <path fill="#E6F8F8" d="M12.508 24.729c3.973 1.724 8.822 2.25 12.297.693 3.474-1.557 5.269-3.514 6.29-8.268 1.021-4.753-.452-6.267-2.11-7.46-1.658-1.194-4.37-1.721-5.576-1.721-2.223 0-4.182 1.17-5.878 3.513.768-2.617.466-4.257-.904-4.922-2.055-.997-4.33-.611-5.852.386-1.523.997-3.63 5.646-3.982 6.801-.352 1.156.021 7.864 5.715 10.978z"/>
                    <path fill="#FFA32C" d="M15.898 15.356c-.696-.242-2.262.591-2.763 1.202-.079.095-.146.329-.164.404-.139.558.234 3.729 1.438 4.287 1.036.48 3.095-1.544 3.686-2.307.048-.062-1.256-3.257-2.197-3.586z"/>
                    <path fill="#E38D1D" d="M13.246 17.416c.289 1.339.62 2.104.995 2.296.104.053.704.182 1.72.05.34-.043.95-.189 1.832-.437-1.883.07-2.996-.001-3.339-.214-.171-.106-.382-.144-.585-.427-.134-.189-.342-.61-.623-1.268z"/>
                    <g fill="#008181">
                        <path d="M19.113 15.63c-.08-.177-.045-.316.106-.417.752-.506 1.72-.807 2.411-.779 1.288.053 2.557 2.394 2.56 2.567 0 .04.221.605.07.505-.493-.328-1.961-1.828-2.86-2.024a4.055 4.055 0 0 0-2.287.148zM10.249 12.7c-.081-.168-.054-.303.08-.405.673-.507 1.554-.82 2.192-.812 1.189.018 1.988 1.032 2.075 1.179.139.236.468 1.131.214 1.192-.391.095-1.175-1.267-2.012-1.433-.728-.143-1.578-.05-2.55.28z"/>
                    </g>
                </g>
                <path fill="#FFA32C" fill-rule="nonzero" d="M35.358 20.01c4.89-1.905 7.033-4.543 8.872-6.017.912-.73 1.693-1.345 2.058-1.277 1.206.225-.169 2.506.475 3.263.426.5 1.916.139 2.113 1.112.36 1.787-.59 5.553-1.178 6.909-.867 1.998-2.381 5.552-6.92 8.601-2.79 1.876-7.608 2.892-10.68.156-3.565-3.175-3.039-5.857-1.564-8.71 1.222-2.364 5.868-3.664 6.824-4.036z" mask="url(#l)"/>
                <path d="M-51.663.59c5.203 1.64 9.37-2.606 13.547-2.606 9.129 0 5.202 9.366 17.669 13.323 1.936.614 15.839 3.946 27.333-1.082C22.15 3.548 34.58-7.802 36.586-10.47c5.065-6.736 17.291-26.673 3.534-26.673-10.013 0-2.847-3.57-10.896-4.343-8.05-.772-9.52-3.92-18.675-7.946-5.832-2.565-28.553-1.18-43.365 6.981-8.456 4.66-10.292 14.137-15.117 19.783-8.415 9.85-9.914 21.308-3.73 23.257z" mask="url(#l)"/>
            </g>
            <path fill="#1C45D4" d="M302.036 278.853l-1.043 2.644-1.043-2.644-2.75-.981 2.75-.98 1.043-2.645 1.043 2.644 2.465.981z"/>
            <path fill="#9C0089" d="M327.324 273.86l-.522 1.321-.521-1.321-1.376-.491 1.376-.49.521-1.323.522 1.323 1.232.49z" opacity=".64"/>
            <path fill="#A035D1" d="M318.025 269.386l-1.304 3.304-1.303-3.304-3.439-1.227 3.439-1.225 1.303-3.306 1.304 3.306 3.081 1.226z"/>
            <path fill="#1355B6" d="M339.593 268.477l-.782 1.982-.782-1.982-2.063-.737 2.063-.735.782-1.984.782 1.984 1.849.736z"/>
        </g>
    </g>
</svg>
