<svg xmlns="http://www.w3.org/2000/svg" xmlns:xlink="http://www.w3.org/1999/xlink" width="375" height="440" viewBox="0 0 375 440">
    <defs>
        <path id="cdzgk0e3va" d="M0 0H375V440H0z"/>
        <path id="85v62i3jod" d="M18.657 17.71c10.304 0 19.54-3.965 19.54-8.855C38.196 3.965 28.96 0 18.656 0 8.353 0 0 3.965 0 8.855c0 4.89 8.353 8.855 18.657 8.855z"/>
        <path id="ooe38r8q8f" d="M14 .857h80c7.732 0 14 6.268 14 14s-6.268 14-14 14H14c-7.732 0-14-6.268-14-14s6.268-14 14-14z"/>
        <path id="9obt5tfjmh" d="M15 0h116c8.284 0 15 6.716 15 15 0 8.284-6.716 15-15 15H15C6.716 30 0 23.284 0 15 0 6.716 6.716 0 15 0z"/>
        <path id="1iork445ej" d="M16 0h168c8.837 0 16 7.163 16 16s-7.163 16-16 16H16C7.163 32 0 24.837 0 16S7.163 0 16 0z"/>
        <filter id="82pcpz6k7c" width="127.5%" height="157.5%" x="-13.7%" y="-28.8%" filterUnits="objectBoundingBox">
            <feOffset dx="10" dy="14" in="SourceAlpha" result="shadowOffsetOuter1"/>
            <feGaussianBlur in="shadowOffsetOuter1" result="shadowBlurOuter1" stdDeviation="5"/>
            <feColorMatrix in="shadowBlurOuter1" result="shadowMatrixOuter1" values="0 0 0 0 0 0 0 0 0 0 0 0 0 0 0 0 0 0 0.15 0"/>
            <feMerge>
                <feMergeNode in="shadowMatrixOuter1"/>
                <feMergeNode in="SourceGraphic"/>
            </feMerge>
        </filter>
        <filter id="v4ubc8uele" width="163.9%" height="346.4%" x="-23.6%" y="-101.8%" filterUnits="objectBoundingBox">
            <feOffset dx="9" dy="6" in="SourceAlpha" result="shadowOffsetOuter1"/>
            <feGaussianBlur in="shadowOffsetOuter1" result="shadowBlurOuter1" stdDeviation="10"/>
            <feColorMatrix in="shadowBlurOuter1" values="0 0 0 0 0 0 0 0 0 0 0 0 0 0 0 0 0 0 0.3 0"/>
        </filter>
        <filter id="x3y70yr5jg" width="147.3%" height="330%" x="-17.5%" y="-95%" filterUnits="objectBoundingBox">
            <feOffset dx="9" dy="6" in="SourceAlpha" result="shadowOffsetOuter1"/>
            <feGaussianBlur in="shadowOffsetOuter1" result="shadowBlurOuter1" stdDeviation="10"/>
            <feColorMatrix in="shadowBlurOuter1" values="0 0 0 0 0 0 0 0 0 0 0 0 0 0 0 0 0 0 0.3 0"/>
        </filter>
        <filter id="k00r3n5ngi" width="134.5%" height="315.6%" x="-12.8%" y="-89.1%" filterUnits="objectBoundingBox">
            <feOffset dx="9" dy="6" in="SourceAlpha" result="shadowOffsetOuter1"/>
            <feGaussianBlur in="shadowOffsetOuter1" result="shadowBlurOuter1" stdDeviation="10"/>
            <feColorMatrix in="shadowBlurOuter1" values="0 0 0 0 0 0 0 0 0 0 0 0 0 0 0 0 0 0 0.3 0"/>
        </filter>
    </defs>
    <g fill="none" fill-rule="evenodd">
        <g>
            <g transform="translate(0 -76) translate(0 76)">
                <mask id="kyq2blu4fb" fill="#fff">
                    <use xlink:href="#cdzgk0e3va"/>
                </mask>
                <use fill="#56E4D6" xlink:href="#cdzgk0e3va"/>
                <circle cx="187.5" cy="209.5" r="148.5" fill="#5DD8CC" mask="url(#kyq2blu4fb)"/>
                <circle cx="187.5" cy="209.5" r="129.5" fill="#3CCEC0" mask="url(#kyq2blu4fb)"/>
                <g mask="url(#kyq2blu4fb)">
                    <g filter="url(#82pcpz6k7c)" transform="translate(49 55)">
                        <rect width="335" height="160" fill="#005960" rx="6"/>
                        <text fill="#FFF" font-family="Muli-Bold, Muli" font-size="18" font-weight="bold" letter-spacing="-.188">
                            <tspan x="129" y="51">WiseSaver Portfolio</tspan>
                        </text>
                        <text fill="#FFF" font-family="Muli-Regular, Muli" font-size="13">
                            <tspan x="129" y="74">Great for shorter </tspan> <tspan x="129" y="90">savings period</tspan>
                        </text>
                    </g>
                </g>
                <g mask="url(#kyq2blu4fb)">
                    <g>
                        <g fill="#FF872F">
                            <g transform="translate(67 91) translate(49.157) rotate(-90 12.5 12.424)">
                                <circle cx="19.591" cy="19.188" r="2.671" transform="rotate(-45 19.591 19.188)"/>
                                <circle cx="12.072" cy="11.717" r="2.671" transform="rotate(-45 12.072 11.717)"/>
                                <circle cx="4.552" cy="4.246" r="2.671" transform="rotate(-45 4.552 4.246)"/>
                            </g>
                            <g transform="translate(67 91) translate(49.157) rotate(-90 21.436 5.559)">
                                <circle cx="12.072" cy="11.717" r="2.671" transform="rotate(-45 12.072 11.717)"/>
                                <circle cx="4.552" cy="4.246" r="2.671" transform="rotate(-45 4.552 4.246)"/>
                            </g>
                            <g transform="translate(67 91) translate(49.157) rotate(-90 30.376 -1.306)">
                                <circle cx="4.552" cy="4.246" r="2.671" transform="rotate(-45 4.552 4.246)"/>
                            </g>
                        </g>
                        <g fill="#63B9C6">
                            <path d="M32.682 1.846L30.77-1.32 27.759.709c-8.729 4.415-15.028 11.898-14.9 19.008.23 12.728 7.562 20.623 21.997 23.684-.65-2.708-.666-5.207-.049-7.497 2.156-7.998 9.352-17.232-2.125-34.058zm-3.984 1.571c4.051 6.72 5.362 11.03 5.409 14.558.07 5.293-2.753 13.337-4.196 19.37-7.42-1.709-13.789-10.103-13.291-17.387.331-4.856 3.132-10.136 12.078-16.54z" transform="translate(67 91) translate(6.643 33) rotate(113 25.938 21.04)"/>
                            <path d="M58.014 37.103c.69-1.026 1.33-1.479 1.924-1.359 2.217.449 4.054 1.135 5.51 2.079 1.364.882 2.838 2.076 4.432 3.582.673.635.726 1.72.118 2.424s-1.646.759-2.319.123c-1.457-1.376-2.78-2.447-3.96-3.21-1.085-.704-2.553-1.253-4.405-1.627-.593-.12-1.026-.791-1.3-2.012z" transform="translate(67 91) translate(6.643 33) scale(-1 1) rotate(-60 0 151.289)"/>
                            <path d="M57.899 18.114c-.825 1.726-1.986 3.197-3.484 4.412-2.248 1.823-5.84 7.23-5.685 12.682.23 8.056 4.38 16.972 10.856 19.436l4.098 1.56.526-4.527c.14-1.209.451-2.329 1.165-4.292l.77-2.08c.784-2.137 1.078-3.133 1.333-4.604.213-1.233.231-2.412.16-3.613-.423-7.195-3.67-13.52-9.74-18.974zm.521 6.132c3.75 5.277 5.377 10.25 4.884 14.92-.376 3.56-3.326 7.17-3.798 11.179-4.337-1.63-7.138-9.527-7.28-14.445-.094-3.278 1.19-9.036 6.194-11.654z" transform="translate(67 91) translate(6.643 33) rotate(117 58.2 37.159)"/>
                            <path d="M23.188 18.805c.898-1.184 1.7-1.683 2.405-1.495 3.43.91 6.262 2.3 8.48 4.185 2.086 1.772 4.347 4.175 6.796 7.21.705.874.599 2.18-.237 2.916-.835.737-2.083.626-2.788-.248-2.3-2.852-4.394-5.076-6.267-6.668-1.74-1.48-4.054-2.614-6.958-3.385-.706-.188-1.183-1.026-1.43-2.515z" transform="translate(67 91) translate(6.643 33)"/>
                        </g>
                        <g>
                            <g transform="translate(67 91) translate(27.9 62.04) translate(0 15.18)">
                                <use fill="#3E8C98" xlink:href="#85v62i3jod"/>
                            </g>
                            <path fill="#63B9C6" d="M19.098 0c1.343 0 2.442 1.294 2.54 2.934l.007.237v17.693c0 1.751-1.14 3.171-2.547 3.171-1.342 0-2.442-1.294-2.54-2.934l-.006-.237V3.171C16.552 1.42 17.692 0 19.098 0z" transform="translate(67 91) translate(27.9 62.04)"/>
                            <path fill="#63B9C6" d="M20.371 3.795h2.547l1.91 3.614c-.85.301-1.486.603-1.91.904-.425.301-.849.903-1.273 1.807L20.37 3.795z" transform="translate(67 91) translate(27.9 62.04)"/>
                            <path fill="#63B9C6" d="M12.732 2.53h2.547l3.183 2.71c-.85.302-1.698.754-2.547 1.356-.849.602-1.273 1.355-1.273 2.259l-1.91-6.325z" transform="translate(67 91) translate(27.9 62.04) matrix(-1 0 0 1 31.194 0)"/>
                        </g>
                        <g fill="#FF872F" fill-rule="nonzero">
                            <path d="M13.286 0C20.623 0 26.57 5.91 26.57 13.2c0 7.29-5.948 13.2-13.285 13.2C5.948 26.4 0 20.49 0 13.2 0 5.91 5.948 0 13.286 0zm0 3.3c-5.503 0-9.965 4.432-9.965 9.9s4.462 9.9 9.965 9.9 9.964-4.432 9.964-9.9-4.461-9.9-9.964-9.9z" transform="translate(67 91) translate(49.157 29.04)"/>
                            <path d="M14.727 5.698h-2.844V7.2l-.114.04c-.598.23-1.1.585-1.497 1.064-.513.62-.773 1.345-.773 2.154 0 .532.094 1.023.282 1.468.19.45.465.838.822 1.163.306.279.812.596 1.53.967l.28.142c.763.38 1.268.723 1.504 1.001.214.253.313.502.313.763 0 .435-.296.638-1.18.638-.559 0-1.137-.182-1.741-.558l-.807-.532-1.16 2.796.39.247.268.16c.54.304 1.118.512 1.731.624l.152.024v1.655h2.84V19.15l.105-.034c.673-.24 1.227-.605 1.654-1.098.54-.624.815-1.364.815-2.197 0-.568-.1-1.09-.301-1.564-.202-.475-.497-.893-.882-1.249-.328-.303-.81-.615-1.453-.945l-.285-.142c-1.233-.597-1.802-1.128-1.802-1.476 0-.226.067-.391.209-.529.138-.134.35-.207.668-.207.576 0 1.126.164 1.661.498l.81.54.967-2.721-.307-.244-.17-.125c-.416-.28-.946-.473-1.59-.588l-.104-.017.009-1.353zM12.99 6.797h.622l-.006 1.225.793.093.245.039c.316.057.588.136.814.234l.11.052-.226.634-.113-.058c-.573-.273-1.165-.408-1.778-.408-.59 0-1.081.17-1.443.522-.358.348-.54.797-.54 1.314 0 .864.747 1.61 2.165 2.336l.257.128c.696.339 1.189.645 1.47.905.27.25.475.54.616.871.142.334.214.711.214 1.136 0 .57-.18 1.056-.547 1.48-.375.432-.904.734-1.604.903l-.422.103-.001 1.61h-.626v-1.541l-.824-.081-.278-.045c-.368-.07-.722-.186-1.062-.347l-.099-.051.292-.704.212.11c.609.296 1.214.444 1.819.444 1.427 0 2.287-.59 2.287-1.738 0-.531-.197-1.027-.573-1.47-.315-.372-.836-.743-1.57-1.131l-.724-.372c-.543-.289-.92-.53-1.12-.711-.238-.217-.42-.475-.548-.778-.13-.306-.195-.652-.195-1.042 0-.555.17-1.033.52-1.456.354-.427.828-.712 1.44-.86l.424-.102V6.797z" transform="translate(67 91) translate(49.157 29.04)"/>
                            <path d="M14.17 20.467v-1.73c.807-.195 1.438-.555 1.892-1.078.454-.524.681-1.137.681-1.839 0-.496-.085-.946-.257-1.35-.172-.403-.421-.757-.75-1.06-.327-.303-.862-.635-1.604-.996-1.407-.682-2.111-1.339-2.111-1.97 0-.371.125-.678.374-.922.25-.243.602-.364 1.056-.364.767 0 1.496.245 2.187.737l.598-1.685c-.454-.36-1.145-.586-2.073-.677l.007-1.285h-1.733v1.36c-.727.176-1.306.525-1.737 1.046-.431.521-.647 1.123-.647 1.805 0 .46.08.88.238 1.255.16.376.388.7.685.97.298.271.86.612 1.684 1.023.825.411 1.385.79 1.68 1.14.296.348.443.72.443 1.116 0 .792-.578 1.188-1.733 1.188-.752 0-1.516-.27-2.293-.812l-.727 1.752c.727.461 1.529.722 2.407.782v1.594h1.733z" transform="translate(67 91) translate(49.157 29.04)"/>
                        </g>
                    </g>
                </g>
                <g mask="url(#kyq2blu4fb)">
                    <g>
                        <g>
                            <g transform="translate(225 175)">
                                <use fill="#000" filter="url(#v4ubc8uele)" xlink:href="#ooe38r8q8f"/>
                                <use fill="#FFF" xlink:href="#ooe38r8q8f"/>
                            </g>
                        </g>
                        <text font-family="Muli-Bold, Muli" font-size="12" font-weight="bold" letter-spacing="-.12" transform="translate(225 175)">
                            <tspan x="14.544" y="20" fill="#000">Low to no risk</tspan>
                        </text>
                    </g>
                </g>
                <g mask="url(#kyq2blu4fb)">
                    <g>
                        <g>
                            <g transform="translate(173 228) rotate(180 73 15)">
                                <use fill="#000" filter="url(#x3y70yr5jg)" xlink:href="#9obt5tfjmh"/>
                                <use fill="#FFF" xlink:href="#9obt5tfjmh"/>
                            </g>
                        </g>
                        <text font-family="Muli-Bold, Muli" font-size="13" font-weight="bold" letter-spacing="-.13" transform="translate(173 228)">
                            <tspan x="21.358" y="20" fill="#000">No lock-in period</tspan>
                        </text>
                    </g>
                </g>
                <g mask="url(#kyq2blu4fb)">
                    <g>
                        <g>
                            <g transform="translate(110 272) rotate(180 100 16)">
                                <use fill="#000" filter="url(#k00r3n5ngi)" xlink:href="#1iork445ej"/>
                                <use fill="#FFF" xlink:href="#1iork445ej"/>
                            </g>
                        </g>
                        <text font-family="Muli-Bold, Muli" font-size="12" font-weight="bold" letter-spacing="-.12" transform="translate(110 272)">
                            <tspan x="21.174" y="21" fill="#000">No Advisory or Platform Fee</tspan>
                        </text>
                    </g>
                </g>
                <g mask="url(#kyq2blu4fb)">
                    <g transform="translate(63 68)">
                        <circle cx="14.5" cy="14.5" r="14.5" fill="#00A7A7"/>
                        <g>
                            <g fill="#FFF">
                                <path d="M5.181 9.659L1.658 6.024 0.483 7.236 5.181 12.083 15.247 1.695 14.073 0.483z" transform="translate(6.525 8.7) translate(.242 .161)"/>
                            </g>
                        </g>
                    </g>
                </g>
            </g>
        </g>
    </g>
</svg>
