<svg xmlns="http://www.w3.org/2000/svg" xmlns:xlink="http://www.w3.org/1999/xlink" width="375" height="440" viewBox="0 0 375 440">
    <defs>
        <path id="prefix__a" d="M0 0H375V440H0z"/>
        <path id="prefix__e" d="M14 .857h80c7.732 0 14 6.268 14 14s-6.268 14-14 14H14c-7.732 0-14-6.268-14-14s6.268-14 14-14z"/>
        <path id="prefix__g" d="M131 30H15C6.716 30 0 23.284 0 15 0 6.716 6.716 0 15 0h116c8.284 0 15 6.716 15 15 0 8.284-6.716 15-15 15z"/>
        <path id="prefix__i" d="M184 32H16C7.163 32 0 24.837 0 16S7.163 0 16 0h168c8.837 0 16 7.163 16 16s-7.163 16-16 16z"/>
        <path id="prefix__j" d="M0.004 0L40.31 0 40.31 28.463 0.004 28.463z"/>
        <path id="prefix__l" d="M52.003 24.564c.009-5.965-.23-10.011.724-13.56.178-.662.34-1.347.494-2.058.396-1.828-1.611-3.246-3.277-2.308-.746.42-1.523.828-2.3 1.19-.987.463-2.158.26-2.926-.5C40.459 3.123 34.662.388 28.219 0c-.35-.02-.593 2.06-.73 6.241H25.37c-.04-4.172-.2-6.25-.475-6.231C18.513.43 12.775 3.155 8.55 7.326c-.768.76-1.94.963-2.928.5-.774-.362-1.549-.769-2.295-1.188C1.662 5.7-.345 7.118.05 8.946c.154.706.315 1.386.49 2.043.953 3.55 1.29 7.225.875 10.871-.1.888-.153 1.79-.153 2.704-.058 5.388.288 9.335 1.038 11.84 2.675 8.942 6.313 12.557 24.398 12.557 18.084 0 21.674-6.066 23.733-11.374 1.778-4.584 1.564-7.057 1.572-13.023z"/>
        <filter id="prefix__c" width="127.5%" height="157.5%" x="-13.7%" y="-28.8%" filterUnits="objectBoundingBox">
            <feOffset dx="10" dy="14" in="SourceAlpha" result="shadowOffsetOuter1"/>
            <feGaussianBlur in="shadowOffsetOuter1" result="shadowBlurOuter1" stdDeviation="5"/>
            <feColorMatrix in="shadowBlurOuter1" result="shadowMatrixOuter1" values="0 0 0 0 0 0 0 0 0 0 0 0 0 0 0 0 0 0 0.15 0"/>
            <feMerge>
                <feMergeNode in="shadowMatrixOuter1"/>
                <feMergeNode in="SourceGraphic"/>
            </feMerge>
        </filter>
        <filter id="prefix__d" width="163.9%" height="346.4%" x="-23.6%" y="-101.8%" filterUnits="objectBoundingBox">
            <feOffset dx="9" dy="6" in="SourceAlpha" result="shadowOffsetOuter1"/>
            <feGaussianBlur in="shadowOffsetOuter1" result="shadowBlurOuter1" stdDeviation="10"/>
            <feColorMatrix in="shadowBlurOuter1" values="0 0 0 0 0 0 0 0 0 0 0 0 0 0 0 0 0 0 0.3 0"/>
        </filter>
        <filter id="prefix__f" width="147.3%" height="330%" x="-17.5%" y="-95%" filterUnits="objectBoundingBox">
            <feOffset dx="9" dy="6" in="SourceAlpha" result="shadowOffsetOuter1"/>
            <feGaussianBlur in="shadowOffsetOuter1" result="shadowBlurOuter1" stdDeviation="10"/>
            <feColorMatrix in="shadowBlurOuter1" values="0 0 0 0 0 0 0 0 0 0 0 0 0 0 0 0 0 0 0.3 0"/>
        </filter>
        <filter id="prefix__h" width="134.5%" height="315.6%" x="-12.8%" y="-89.1%" filterUnits="objectBoundingBox">
            <feOffset dx="9" dy="6" in="SourceAlpha" result="shadowOffsetOuter1"/>
            <feGaussianBlur in="shadowOffsetOuter1" result="shadowBlurOuter1" stdDeviation="10"/>
            <feColorMatrix in="shadowBlurOuter1" values="0 0 0 0 0 0 0 0 0 0 0 0 0 0 0 0 0 0 0.3 0"/>
        </filter>
    </defs>
    <g fill="none" fill-rule="evenodd">
        <mask id="prefix__b" fill="#fff">
            <use xlink:href="#prefix__a"/>
        </mask>
        <use fill="#56E4D6" xlink:href="#prefix__a"/>
        <circle cx="187.5" cy="209.5" r="148.5" fill="#5DD8CC" mask="url(#prefix__b)"/>
        <circle cx="187.5" cy="209.5" r="129.5" fill="#3CCEC0" mask="url(#prefix__b)"/>
        <g filter="url(#prefix__c)" mask="url(#prefix__b)">
            <g>
                <path fill="#005960" d="M6 0h323c3.314 0 6 2.686 6 6v148c0 3.314-2.686 6-6 6H6c-3.314 0-6-2.686-6-6V6c0-3.314 2.686-6 6-6z" transform="translate(49 55)"/>
                <path fill="#FFF" fill-rule="nonzero" d="M119.408 46.338l3.258-9.216 3.222 9.216h1.89l4.536-12.816h-2.232l-3.276 9.63-3.258-9.63h-1.656l-3.33 9.558-3.204-9.558H113l4.518 12.816h1.89zm16.715-10.998v-2.214h-2.502v2.214h2.501zm-.126 10.998v-9.09h-2.233v9.09h2.232zm5.608.144c1.164 0 2.082-.246 2.754-.738.672-.492 1.008-1.158 1.008-1.998 0-.684-.207-1.239-.621-1.665-.414-.426-1.071-.741-1.971-.945l-1.548-.342c-.42-.108-.717-.24-.891-.396-.174-.156-.261-.366-.261-.63 0-.336.144-.6.432-.792.288-.192.69-.288 1.206-.288.96 0 1.896.336 2.808 1.008l.666-1.53c-.456-.372-.984-.657-1.584-.855-.6-.198-1.224-.297-1.872-.297-.744 0-1.398.12-1.962.36-.564.24-1.002.573-1.314.999-.312.426-.468.915-.468 1.467 0 1.332.828 2.178 2.484 2.538l1.512.342c.492.12.84.261 1.044.423.204.162.306.381.306.657 0 .324-.147.576-.441.756-.294.18-.711.27-1.251.27-1.248 0-2.358-.36-3.33-1.08l-.63 1.584c.972.768 2.28 1.152 3.924 1.152zm9.785 0c.648 0 1.287-.105 1.917-.315.63-.21 1.16-.489 1.593-.837l-.649-1.548c-.852.648-1.775.972-2.772.972-.864 0-1.515-.231-1.953-.693-.438-.462-.68-1.179-.728-2.151h6.263v-.342c0-1.416-.363-2.529-1.089-3.339s-1.713-1.215-2.96-1.215c-.852 0-1.614.201-2.286.603-.672.402-1.195.963-1.566 1.683-.373.72-.559 1.542-.559 2.466 0 1.464.427 2.616 1.279 3.456.852.84 2.022 1.26 3.51 1.26zm1.71-5.778h-4.23c.107-.672.35-1.185.728-1.539.378-.354.867-.531 1.467-.531.6 0 1.072.174 1.413.522.343.348.55.864.621 1.548zm8.182 5.796c1.044 0 1.95-.156 2.718-.468.768-.312 1.356-.753 1.764-1.323.408-.57.612-1.239.612-2.007 0-.696-.18-1.275-.54-1.737-.36-.462-.876-.84-1.548-1.134-.672-.294-1.542-.567-2.61-.819-1.032-.228-1.761-.474-2.187-.738-.426-.264-.639-.648-.639-1.152 0-.588.24-1.053.72-1.395.48-.342 1.134-.513 1.962-.513 1.38 0 2.64.456 3.78 1.368l.774-1.692c-.516-.48-1.179-.855-1.989-1.125s-1.665-.405-2.565-.405c-.984 0-1.851.168-2.601.504-.75.336-1.329.798-1.737 1.386-.408.588-.612 1.26-.612 2.016 0 1.056.366 1.86 1.098 2.412.732.552 1.902 1.002 3.51 1.35 1.032.228 1.773.471 2.223.729.45.258.675.627.675 1.107 0 .564-.243 1.002-.729 1.314-.486.312-1.173.468-2.061.468-.804 0-1.545-.111-2.223-.333-.678-.222-1.329-.567-1.953-1.035l-.792 1.692c.6.492 1.329.87 2.187 1.134.858.264 1.779.396 2.763.396zm10.432-.018c.66 0 1.249-.141 1.764-.423.516-.282.912-.675 1.189-1.179v1.458h2.214v-9.09h-2.214v1.368c-.276-.504-.673-.897-1.189-1.179-.516-.282-1.103-.423-1.764-.423-.78 0-1.476.201-2.088.603-.612.402-1.089.966-1.43 1.692-.343.726-.513 1.557-.513 2.493 0 .936.168 1.758.504 2.466.335.708.81 1.254 1.421 1.638.612.384 1.315.576 2.106.576zm.613-1.764c-.756 0-1.341-.252-1.756-.756-.413-.504-.62-1.224-.62-2.16 0-.948.207-1.689.62-2.223.415-.534.994-.801 1.738-.801.756 0 1.338.258 1.745.774.409.516.613 1.254.613 2.214 0 .936-.204 1.662-.613 2.178-.407.516-.983.774-1.727.774zm11.44 1.62l3.978-9.072h-2.232l-2.664 6.516-2.61-6.516h-2.358l3.924 9.072h1.962zm9.083.144c.648 0 1.287-.105 1.917-.315.63-.21 1.16-.489 1.593-.837l-.649-1.548c-.852.648-1.776.972-2.772.972-.863 0-1.514-.231-1.952-.693-.439-.462-.681-1.179-.73-2.151h6.264v-.342c0-1.416-.362-2.529-1.088-3.339-.726-.81-1.713-1.215-2.962-1.215-.852 0-1.614.201-2.286.603-.672.402-1.194.963-1.566 1.683-.371.72-.558 1.542-.558 2.466 0 1.464.427 2.616 1.278 3.456.852.84 2.023 1.26 3.51 1.26zm1.71-5.778h-4.23c.107-.672.35-1.185.728-1.539.379-.354.868-.531 1.468-.531s1.07.174 1.412.522c.343.348.55.864.622 1.548zm5.914 5.634v-4.914c0-.732.201-1.32.603-1.764.402-.444.987-.666 1.755-.666.408 0 .804.078 1.188.234l.018-2.052c-.252-.096-.552-.144-.9-.144-.624 0-1.182.156-1.674.468-.492.312-.852.762-1.08 1.35l-.18-1.602h-2.106c.096.756.144 1.614.144 2.574v6.516h2.232zm11.865 0v-5.346h3.24c1.368 0 2.439-.336 3.213-1.008.774-.672 1.161-1.584 1.161-2.736 0-1.152-.384-2.061-1.152-2.727-.768-.666-1.842-.999-3.222-.999h-5.562v12.816h2.322zm2.97-7.146h-2.97v-3.87h2.97c.816 0 1.428.165 1.836.495.408.33.612.813.612 1.449 0 .624-.207 1.101-.621 1.431-.414.33-1.023.495-1.827.495zm10.126 7.29c.912 0 1.716-.192 2.412-.576.696-.384 1.233-.933 1.611-1.647.379-.714.567-1.551.567-2.511 0-.96-.189-1.797-.567-2.511-.377-.714-.915-1.263-1.61-1.647-.697-.384-1.5-.576-2.413-.576-.923 0-1.737.192-2.439.576-.702.384-1.242.933-1.62 1.647-.377.714-.566 1.551-.566 2.511 0 .96.189 1.797.566 2.511.379.714.918 1.263 1.62 1.647.702.384 1.516.576 2.44.576zm-.018-1.764c-.756 0-1.334-.249-1.737-.747-.401-.498-.603-1.239-.603-2.223 0-.972.204-1.713.613-2.223.407-.51.99-.765 1.745-.765.744 0 1.32.255 1.728.765.408.51.612 1.251.612 2.223 0 .984-.2 1.725-.602 2.223-.403.498-.988.747-1.756.747zm8.597 1.62v-4.914c0-.732.201-1.32.603-1.764.402-.444.987-.666 1.755-.666.408 0 .804.078 1.188.234l.018-2.052c-.252-.096-.552-.144-.9-.144-.624 0-1.182.156-1.674.468-.492.312-.852.762-1.08 1.35l-.18-1.602h-2.106c.096.756.144 1.614.144 2.574v6.516h2.232zm9.28.126c.564 0 1.044-.072 1.44-.216v-1.782c-.323.096-.624.144-.9.144-.995 0-1.494-.534-1.494-1.602V38.94h2.412v-1.692h-2.412v-2.97l-2.25.756v2.214h-1.745v1.692h1.745v4.176c0 1.08.276 1.908.828 2.484.552.576 1.344.864 2.376.864zm5.753-.126V38.94h2.034v-1.692h-2.034v-.774c0-1.068.486-1.602 1.458-1.602.252 0 .546.042.882.126v-1.782c-.384-.144-.858-.216-1.422-.216-1.02 0-1.803.291-2.349.873-.546.582-.819 1.413-.819 2.493v.882h-1.728v1.692h1.728v7.398h2.25zm7.607.144c.911 0 1.716-.192 2.411-.576.697-.384 1.233-.933 1.611-1.647.379-.714.567-1.551.567-2.511 0-.96-.188-1.797-.567-2.511-.377-.714-.914-1.263-1.61-1.647-.696-.384-1.5-.576-2.412-.576-.924 0-1.737.192-2.44.576-.702.384-1.242.933-1.62 1.647-.377.714-.566 1.551-.566 2.511 0 .96.189 1.797.567 2.511.377.714.917 1.263 1.62 1.647.702.384 1.514.576 2.439.576zm-.019-1.764c-.755 0-1.334-.249-1.736-.747-.403-.498-.603-1.239-.603-2.223 0-.972.204-1.713.612-2.223.407-.51.99-.765 1.746-.765.743 0 1.32.255 1.728.765.407.51.611 1.251.611 2.223 0 .984-.2 1.725-.603 2.223-.401.498-.986.747-1.755.747zm8.597 1.62V33.09H263v13.248h2.232zm4.636-10.998v-2.214h-2.502v2.214h2.502zm-.125 10.998v-9.09h-2.233v9.09h2.233zm6.4.144c.912 0 1.716-.192 2.412-.576.696-.384 1.233-.933 1.611-1.647.378-.714.567-1.551.567-2.511 0-.96-.189-1.797-.567-2.511-.378-.714-.915-1.263-1.611-1.647-.696-.384-1.5-.576-2.412-.576-.924 0-1.737.192-2.439.576-.702.384-1.242.933-1.62 1.647-.378.714-.567 1.551-.567 2.511 0 .96.189 1.797.567 2.511.378.714.918 1.263 1.62 1.647.702.384 1.515.576 2.439.576zm-.018-1.764c-.756 0-1.335-.249-1.737-.747-.402-.498-.603-1.239-.603-2.223 0-.972.204-1.713.612-2.223.408-.51.99-.765 1.746-.765.744 0 1.32.255 1.728.765.408.51.612 1.251.612 2.223 0 .984-.201 1.725-.603 2.223-.402.498-.987.747-1.755.747zM117.807 69.442c.607 0 1.205-.058 1.794-.175.59-.117 1.066-.271 1.43-.462v-4.29h-3.276v.845h2.301v2.821c-.71.243-1.452.364-2.223.364-1.092 0-1.924-.327-2.496-.981-.572-.655-.858-1.61-.858-2.867 0-1.23.28-2.173.838-2.828.56-.654 1.363-.981 2.412-.981.537 0 1.02.084 1.45.254.428.168.868.444 1.319.825l.416-.819c-.39-.39-.856-.683-1.398-.878-.541-.195-1.137-.292-1.787-.292-.893 0-1.666.188-2.32.566-.655.377-1.158.918-1.509 1.625-.35.706-.526 1.549-.526 2.528 0 .988.175 1.837.526 2.548.351.71.86 1.254 1.528 1.631.667.377 1.46.566 2.379.566zm6.331-.104v-3.731c0-.563.154-1.042.462-1.436.307-.395.777-.592 1.41-.592.26 0 .49.035.689.104l.026-.962c-.182-.052-.381-.078-.598-.078-.468 0-.884.117-1.248.351-.364.234-.628.572-.793 1.014l-.104-1.209h-1.001c.07.546.104 1.157.104 1.833v4.706h1.053zm6.409.091c.468 0 .925-.078 1.371-.234.447-.156.813-.368 1.099-.637l-.351-.767c-.641.511-1.343.767-2.106.767-.72 0-1.268-.212-1.644-.637-.377-.425-.57-1.053-.579-1.885h4.797v-.195c0-.997-.247-1.779-.741-2.346-.494-.568-1.174-.852-2.041-.852-.598 0-1.131.143-1.599.429-.468.286-.832.687-1.092 1.203-.26.515-.39 1.107-.39 1.774 0 1.049.29 1.874.871 2.476.58.603 1.382.904 2.405.904zm1.638-4.082h-3.809c.095-.598.314-1.062.656-1.391.343-.33.787-.494 1.333-.494.546 0 .973.16 1.28.481.308.32.488.789.54 1.404zm5.057 4.082c.511 0 .96-.11 1.346-.332.385-.22.673-.535.864-.942v1.183h1.04v-6.539h-1.04v1.131c-.2-.407-.49-.724-.871-.949-.381-.225-.828-.338-1.339-.338-.572 0-1.077.143-1.514.429-.438.286-.778.687-1.021 1.203-.243.515-.364 1.111-.364 1.787 0 .676.12 1.267.358 1.775.238.507.576.899 1.013 1.176.438.277.947.416 1.528.416zm.208-.871c-.65 0-1.153-.217-1.508-.65-.355-.433-.533-1.049-.533-1.846 0-.797.18-1.42.54-1.865.36-.447.86-.67 1.501-.67.641 0 1.135.217 1.482.65.347.433.52 1.053.52 1.859s-.173 1.428-.52 1.865c-.347.438-.84.657-1.482.657zm7.423.871c.338 0 .641-.043.91-.13v-.897c-.225.078-.46.117-.702.117-.364 0-.646-.098-.845-.293-.2-.195-.299-.535-.299-1.02v-3.575h1.872v-.832h-1.872v-2.054l-1.053.377v1.677h-1.274v.832h1.274v3.718c0 .685.176 1.203.527 1.553.35.352.838.527 1.462.527zm7.007-.091v-5.707h1.599v-.832h-1.599v-.871c0-.477.097-.813.293-1.008.195-.195.465-.292.812-.292.208 0 .433.035.676.104v-.897c-.286-.078-.58-.117-.884-.117-.615 0-1.094.175-1.436.526-.343.352-.514.87-.514 1.554v1.001h-1.274v.832h1.274v5.707h1.053zm5.616.091c.615 0 1.157-.139 1.625-.416.468-.277.83-.672 1.085-1.183.256-.511.384-1.11.384-1.794 0-.685-.128-1.283-.383-1.794-.256-.511-.618-.906-1.086-1.183-.468-.277-1.01-.416-1.625-.416s-1.157.139-1.625.416c-.468.277-.83.672-1.085 1.183-.256.511-.384 1.11-.384 1.794 0 .685.128 1.283.384 1.794.255.511.617.906 1.085 1.183.468.277 1.01.416 1.625.416zm0-.871c-.65 0-1.15-.215-1.502-.644-.35-.428-.526-1.055-.526-1.878 0-.797.178-1.415.533-1.853.355-.437.854-.656 1.495-.656.633 0 1.127.219 1.482.656.355.438.533 1.056.533 1.853 0 .823-.173 1.45-.52 1.879-.347.428-.845.643-1.495.643zm5.785.78v-3.731c0-.563.154-1.042.462-1.436.307-.395.777-.592 1.41-.592.26 0 .49.035.689.104l.026-.962c-.182-.052-.381-.078-.598-.078-.468 0-.884.117-1.248.351-.364.234-.628.572-.793 1.014l-.104-1.209h-1.001c.07.546.104 1.157.104 1.833v4.706h1.053zm9.256.091c.789 0 1.413-.169 1.872-.507.46-.338.689-.789.689-1.352 0-.468-.147-.847-.442-1.137-.295-.29-.745-.505-1.352-.644l-1.105-.273c-.355-.087-.613-.208-.774-.364-.16-.156-.24-.368-.24-.637 0-.32.128-.57.383-.748.256-.177.618-.266 1.086-.266.702 0 1.36.256 1.976.767l.351-.767c-.277-.277-.62-.49-1.027-.637-.407-.147-.84-.221-1.3-.221-.754 0-1.36.18-1.82.54-.46.36-.689.825-.689 1.397 0 .433.15.806.448 1.118.3.312.722.529 1.268.65l1.105.26c.399.087.685.208.858.364.173.156.26.364.26.624 0 .32-.128.566-.383.734-.256.17-.631.254-1.125.254-.45 0-.858-.06-1.222-.182-.364-.121-.724-.32-1.079-.598l-.351.78c.641.563 1.512.845 2.613.845zm5.291-.091v-3.744c0-.633.182-1.135.546-1.508.364-.373.85-.559 1.456-.559.52 0 .901.14 1.144.422.243.282.364.726.364 1.333v4.056h1.053V65.23c0-1.725-.784-2.587-2.353-2.587-.494 0-.934.104-1.32.312-.385.208-.682.511-.89.91V59.77h-1.053v9.568h1.053zm9.256.091c.615 0 1.157-.139 1.625-.416.468-.277.83-.672 1.085-1.183.256-.511.384-1.11.384-1.794 0-.685-.128-1.283-.383-1.794-.256-.511-.618-.906-1.086-1.183-.468-.277-1.01-.416-1.625-.416s-1.157.139-1.625.416c-.468.277-.83.672-1.085 1.183-.256.511-.384 1.11-.384 1.794 0 .685.128 1.283.383 1.794.256.511.618.906 1.086 1.183.468.277 1.01.416 1.625.416zm0-.871c-.65 0-1.15-.215-1.501-.644-.351-.428-.527-1.055-.527-1.878 0-.797.178-1.415.533-1.853.355-.437.854-.656 1.495-.656.633 0 1.127.219 1.482.656.355.438.533 1.056.533 1.853 0 .823-.173 1.45-.52 1.879-.347.428-.845.643-1.495.643zm5.785.78v-3.731c0-.563.154-1.042.462-1.436.307-.395.777-.592 1.41-.592.26 0 .49.035.689.104l.026-.962c-.182-.052-.381-.078-.598-.078-.468 0-.884.117-1.248.351-.364.234-.628.572-.793 1.014l-.104-1.209h-1.001c.07.546.104 1.157.104 1.833v4.706h1.053zm6.5.091c.338 0 .641-.043.91-.13v-.897c-.225.078-.46.117-.702.117-.364 0-.646-.098-.845-.293-.2-.195-.299-.535-.299-1.02v-3.575h1.872v-.832h-1.872v-2.054l-1.053.377v1.677h-1.274v.832h1.274v3.718c0 .685.175 1.203.526 1.553.351.352.839.527 1.463.527zm5.096 0c.468 0 .925-.078 1.371-.234.447-.156.813-.368 1.099-.637l-.351-.767c-.641.511-1.343.767-2.106.767-.72 0-1.268-.212-1.645-.637-.376-.425-.57-1.053-.578-1.885h4.797v-.195c0-.997-.247-1.779-.741-2.346-.494-.568-1.174-.852-2.041-.852-.598 0-1.131.143-1.599.429-.468.286-.832.687-1.092 1.203-.26.515-.39 1.107-.39 1.774 0 1.049.29 1.874.871 2.476.58.603 1.382.904 2.405.904zm1.638-4.082h-3.809c.095-.598.314-1.062.656-1.391.343-.33.787-.494 1.333-.494.546 0 .973.16 1.28.481.308.32.488.789.54 1.404zm3.601 3.991v-3.731c0-.563.154-1.042.462-1.436.307-.395.777-.592 1.41-.592.26 0 .49.035.689.104l.026-.962c-.182-.052-.381-.078-.598-.078-.468 0-.884.117-1.248.351-.364.234-.628.572-.793 1.014l-.104-1.209h-1.001c.07.546.104 1.157.104 1.833v4.706h1.053zm-93.912 16.091c.789 0 1.413-.169 1.872-.507.46-.338.689-.789.689-1.352 0-.468-.147-.847-.442-1.137-.295-.29-.745-.505-1.352-.644l-1.105-.273c-.355-.087-.613-.208-.773-.364-.16-.156-.241-.368-.241-.637 0-.32.128-.57.383-.748.256-.177.618-.266 1.086-.266.702 0 1.36.256 1.976.767l.351-.767c-.277-.277-.62-.49-1.027-.637-.407-.147-.84-.221-1.3-.221-.754 0-1.36.18-1.82.54-.46.36-.689.825-.689 1.397 0 .433.15.806.448 1.118.3.312.722.529 1.268.65l1.105.26c.399.087.685.208.858.364.173.156.26.364.26.624 0 .32-.128.566-.383.734-.256.17-.631.254-1.125.254-.45 0-.858-.06-1.222-.182-.364-.121-.724-.32-1.079-.598l-.351.78c.641.563 1.512.845 2.613.845zm6.747 0c.511 0 .96-.11 1.346-.332.385-.22.673-.535.864-.942v1.183h1.04v-6.539h-1.04v1.131c-.2-.407-.49-.724-.871-.949-.381-.225-.828-.338-1.339-.338-.572 0-1.077.143-1.514.429-.438.286-.778.687-1.021 1.203-.243.515-.364 1.111-.364 1.787 0 .676.12 1.267.358 1.775.238.507.576.899 1.013 1.176.438.277.947.416 1.528.416zm.208-.871c-.65 0-1.153-.217-1.508-.65-.355-.433-.533-1.049-.533-1.846 0-.797.18-1.42.54-1.865.36-.447.86-.67 1.501-.67.641 0 1.135.217 1.482.65.347.433.52 1.053.52 1.859s-.173 1.428-.52 1.865c-.347.438-.84.657-1.482.657zm8.008.78l2.821-6.526h-1.053l-2.236 5.382-2.21-5.382h-1.105l2.782 6.526h1.001zm5.161-8.112V76.03h-1.287v1.196h1.287zm-.13 8.112v-6.539h-1.053v6.539h1.053zm3.094 0v-3.744c0-.633.182-1.135.546-1.508.364-.373.85-.559 1.456-.559.52 0 .901.14 1.144.422.243.282.364.726.364 1.333v4.056h1.053V81.23c0-1.725-.784-2.587-2.353-2.587-.511 0-.966.115-1.365.344-.399.23-.698.557-.897.982l-.104-1.17h-1.001c.07.546.104 1.157.104 1.833v4.706h1.053zm9.425 2.899c.97 0 1.705-.25 2.203-.747.499-.499.748-1.233.748-2.204v-6.487h-1.053v1.131c-.2-.407-.492-.724-.877-.949-.386-.225-.839-.338-1.359-.338-.572 0-1.081.134-1.528.403-.446.269-.79.65-1.033 1.144-.243.494-.364 1.062-.364 1.703s.121 1.209.364 1.703.587.875 1.034 1.144c.446.269.955.403 1.527.403.529 0 .986-.115 1.371-.344.386-.23.679-.553.878-.969v1.547c0 .659-.16 1.155-.481 1.489-.32.333-.797.5-1.43.5-.442 0-.847-.052-1.216-.156-.368-.104-.76-.273-1.176-.507l-.182.858c.72.45 1.577.676 2.574.676zm-.13-3.978c-.641 0-1.146-.21-1.514-.63-.369-.42-.553-1-.553-1.736 0-.737.184-1.315.553-1.736.368-.42.873-.63 1.514-.63.633 0 1.129.21 1.488.63.36.42.54 1 .54 1.736 0 .737-.18 1.315-.54 1.736-.36.42-.855.63-1.488.63zm7.319 1.17c.789 0 1.413-.169 1.872-.507.46-.338.689-.789.689-1.352 0-.468-.147-.847-.442-1.137-.295-.29-.745-.505-1.352-.644l-1.105-.273c-.355-.087-.613-.208-.774-.364-.16-.156-.24-.368-.24-.637 0-.32.128-.57.383-.748.256-.177.618-.266 1.086-.266.702 0 1.36.256 1.976.767l.351-.767c-.277-.277-.62-.49-1.027-.637-.407-.147-.84-.221-1.3-.221-.754 0-1.36.18-1.82.54-.46.36-.689.825-.689 1.397 0 .433.15.806.448 1.118.3.312.722.529 1.268.65l1.105.26c.399.087.685.208.858.364.173.156.26.364.26.624 0 .32-.128.566-.383.734-.256.17-.631.254-1.125.254-.45 0-.858-.06-1.222-.182-.364-.121-.724-.32-1.079-.598l-.351.78c.641.563 1.512.845 2.613.845zm8.684 2.717v-4.017c.2.416.49.737.871.962.381.225.828.338 1.339.338.58 0 1.09-.139 1.528-.416.437-.277.777-.67 1.02-1.177s.364-1.098.364-1.774c0-.676-.121-1.272-.364-1.787-.243-.516-.585-.917-1.027-1.203-.442-.286-.949-.429-1.521-.429-.537 0-1.003.123-1.398.37-.394.247-.682.596-.864 1.047l-.104-1.261h-1.001c.07.546.104 1.157.104 1.833v7.514h1.053zm2.015-3.588c-.65 0-1.148-.219-1.495-.657-.347-.437-.52-1.059-.52-1.865s.173-1.426.52-1.859c.347-.433.845-.65 1.495-.65.633 0 1.127.223 1.482.67.355.446.533 1.068.533 1.865 0 .797-.175 1.413-.526 1.846-.351.433-.848.65-1.489.65zm7.618.871c.468 0 .925-.078 1.371-.234.447-.156.813-.368 1.099-.637l-.351-.767c-.641.511-1.343.767-2.106.767-.72 0-1.268-.212-1.645-.637-.376-.425-.57-1.053-.578-1.885h4.797v-.195c0-.997-.247-1.779-.741-2.346-.494-.568-1.174-.852-2.041-.852-.598 0-1.131.143-1.599.429-.468.286-.832.687-1.092 1.203-.26.515-.39 1.107-.39 1.774 0 1.049.29 1.874.871 2.476.58.603 1.382.904 2.405.904zm1.638-4.082h-3.809c.095-.598.314-1.062.657-1.391.342-.33.786-.494 1.332-.494s.973.16 1.28.481c.308.32.488.789.54 1.404zm3.601 3.991v-3.731c0-.563.154-1.042.462-1.436.307-.395.777-.592 1.41-.592.26 0 .49.035.689.104l.026-.962c-.182-.052-.381-.078-.598-.078-.468 0-.884.117-1.248.351-.364.234-.628.572-.793 1.014l-.104-1.209h-1.001c.07.546.104 1.157.104 1.833v4.706h1.053zm4.836-8.112V76.03h-1.287v1.196h1.287zm-.13 8.112v-6.539h-1.053v6.539h1.053zm4.745.091c.615 0 1.157-.139 1.625-.416.468-.277.83-.672 1.085-1.183.256-.511.384-1.11.384-1.794 0-.685-.128-1.283-.383-1.794-.256-.511-.618-.906-1.086-1.183-.468-.277-1.01-.416-1.625-.416s-1.157.139-1.625.416c-.468.277-.83.672-1.085 1.183-.256.511-.384 1.11-.384 1.794 0 .685.128 1.283.383 1.794.256.511.618.906 1.086 1.183.468.277 1.01.416 1.625.416zm0-.871c-.65 0-1.15-.215-1.501-.644-.351-.428-.527-1.055-.527-1.878 0-.797.178-1.415.533-1.853.355-.437.854-.656 1.495-.656.633 0 1.127.219 1.482.656.355.438.533 1.056.533 1.853 0 .823-.173 1.45-.52 1.879-.347.428-.845.643-1.495.643zm7.241.871c.511 0 .96-.11 1.346-.332.385-.22.673-.535.864-.942v1.183h1.04V75.77h-1.053v4.134c-.19-.399-.477-.709-.858-.93-.381-.22-.828-.331-1.339-.331-.572 0-1.079.139-1.521.416-.442.277-.782.67-1.02 1.177-.239.507-.358 1.098-.358 1.774 0 .676.121 1.272.364 1.787.243.516.583.917 1.02 1.203.438.286.943.429 1.515.429zm.208-.871c-.641 0-1.142-.223-1.501-.67-.36-.446-.54-1.072-.54-1.878 0-.789.18-1.4.54-1.833.36-.433.86-.65 1.501-.65.641 0 1.135.219 1.482.656.347.438.52 1.056.52 1.853 0 .806-.173 1.428-.52 1.865-.347.438-.84.657-1.482.657z" transform="translate(49 55)"/>
            </g>
        </g>
        <g mask="url(#prefix__b)">
            <g>
                <g transform="translate(225 175)">
                    <use fill="#000" filter="url(#prefix__d)" xlink:href="#prefix__e"/>
                    <use fill="#FFF" xlink:href="#prefix__e"/>
                </g>
                <path fill="#000" fill-rule="nonzero" d="M21.012 20v-1.272h-3.996v-7.272h-1.548V20h5.544zm3.66.096c.608 0 1.144-.128 1.608-.384.464-.256.822-.622 1.074-1.098.252-.476.378-1.034.378-1.674 0-.64-.126-1.198-.378-1.674s-.61-.842-1.074-1.098c-.464-.256-1-.384-1.608-.384-.616 0-1.158.128-1.626.384-.468.256-.828.622-1.08 1.098-.252.476-.378 1.034-.378 1.674 0 .64.126 1.198.378 1.674s.612.842 1.08 1.098c.468.256 1.01.384 1.626.384zm-.012-1.176c-.504 0-.89-.166-1.158-.498-.268-.332-.402-.826-.402-1.482 0-.648.136-1.142.408-1.482.272-.34.66-.51 1.164-.51.496 0 .88.17 1.152.51.272.34.408.834.408 1.482 0 .656-.134 1.15-.402 1.482-.268.332-.658.498-1.17.498zM31.8 20l1.464-3.972 1.5 3.972h1.308l2.376-6.06h-1.464l-1.56 4.308-1.572-4.308h-1.08L31.2 18.212l-1.56-4.272h-1.536L30.48 20h1.32zm13.188.084c.376 0 .696-.048.96-.144v-1.188c-.216.064-.416.096-.6.096-.664 0-.996-.356-.996-1.068v-2.712h1.608V13.94h-1.608v-1.98l-1.5.504v1.476h-1.164v1.128h1.164v2.784c0 .72.184 1.272.552 1.656.368.384.896.576 1.584.576zm4.632.012c.608 0 1.144-.128 1.608-.384.464-.256.822-.622 1.074-1.098.252-.476.378-1.034.378-1.674 0-.64-.126-1.198-.378-1.674s-.61-.842-1.074-1.098c-.464-.256-1-.384-1.608-.384-.616 0-1.158.128-1.626.384-.468.256-.828.622-1.08 1.098-.252.476-.378 1.034-.378 1.674 0 .64.126 1.198.378 1.674s.612.842 1.08 1.098c.468.256 1.01.384 1.626.384zm-.012-1.176c-.504 0-.89-.166-1.158-.498-.268-.332-.402-.826-.402-1.482 0-.648.136-1.142.408-1.482.272-.34.66-.51 1.164-.51.496 0 .88.17 1.152.51.272.34.408.834.408 1.482 0 .656-.134 1.15-.402 1.482-.268.332-.658.498-1.17.498zM58.512 20v-3.432c0-.48.14-.866.42-1.158.28-.292.648-.438 1.104-.438.384 0 .668.11.852.33.184.22.276.57.276 1.05V20h1.5v-3.72c0-1.664-.724-2.496-2.172-2.496-.448 0-.85.1-1.206.3-.356.2-.638.484-.846.852l-.108-.996h-1.404c.064.504.096 1.076.096 1.716V20h1.488zm8.376.096c.608 0 1.144-.128 1.608-.384.464-.256.822-.622 1.074-1.098.252-.476.378-1.034.378-1.674 0-.64-.126-1.198-.378-1.674s-.61-.842-1.074-1.098c-.464-.256-1-.384-1.608-.384-.616 0-1.158.128-1.626.384-.468.256-.828.622-1.08 1.098-.252.476-.378 1.034-.378 1.674 0 .64.126 1.198.378 1.674s.612.842 1.08 1.098c.468.256 1.01.384 1.626.384zm-.012-1.176c-.504 0-.89-.166-1.158-.498-.268-.332-.402-.826-.402-1.482 0-.648.136-1.142.408-1.482.272-.34.66-.51 1.164-.51.496 0 .88.17 1.152.51.272.34.408.834.408 1.482 0 .656-.134 1.15-.402 1.482-.268.332-.658.498-1.17.498zM75.78 20v-3.276c0-.488.134-.88.402-1.176.268-.296.658-.444 1.17-.444.272 0 .536.052.792.156l.012-1.368c-.168-.064-.368-.096-.6-.096-.416 0-.788.104-1.116.312-.328.208-.568.508-.72.9l-.12-1.068h-1.404c.064.504.096 1.076.096 1.716V20h1.488zm4.668-7.332v-1.476H78.78v1.476h1.668zM80.364 20v-6.06h-1.488V20h1.488zm3.744.096c.776 0 1.388-.164 1.836-.492.448-.328.672-.772.672-1.332 0-.456-.138-.826-.414-1.11-.276-.284-.714-.494-1.314-.63l-1.032-.228c-.28-.072-.478-.16-.594-.264-.116-.104-.174-.244-.174-.42 0-.224.096-.4.288-.528.192-.128.46-.192.804-.192.64 0 1.264.224 1.872.672l.444-1.02c-.304-.248-.656-.438-1.056-.57-.4-.132-.816-.198-1.248-.198-.496 0-.932.08-1.308.24-.376.16-.668.382-.876.666-.208.284-.312.61-.312.978 0 .888.552 1.452 1.656 1.692l1.008.228c.328.08.56.174.696.282.136.108.204.254.204.438 0 .216-.098.384-.294.504-.196.12-.474.18-.834.18-.832 0-1.572-.24-2.22-.72l-.42 1.056c.648.512 1.52.768 2.616.768zm5.16-.096v-2.796L91.92 20h1.872l-2.94-3.156 2.724-2.892h-1.812l-2.496 2.664v-5.448H87.78V20h1.488z" transform="translate(225 175)"/>
            </g>
        </g>
        <g mask="url(#prefix__b)">
            <g>
                <g transform="translate(173 228)">
                    <use fill="#000" filter="url(#prefix__f)" xlink:href="#prefix__g"/>
                    <use fill="#FFF" xlink:href="#prefix__g"/>
                </g>
                <path fill="#000" fill-rule="nonzero" d="M23.919 20v-6.487L28.91 20h1.248v-9.256h-1.573v6.474l-4.979-6.474h-1.248V20h1.56zm10.985.104c.658 0 1.239-.139 1.741-.416.503-.277.891-.674 1.164-1.19.273-.515.41-1.12.41-1.813 0-.693-.137-1.298-.41-1.813-.273-.516-.66-.913-1.163-1.19-.503-.277-1.084-.416-1.742-.416-.668 0-1.255.139-1.762.416-.507.277-.897.674-1.17 1.19-.273.515-.41 1.12-.41 1.813 0 .693.137 1.298.41 1.814.273.515.663.912 1.17 1.189.507.277 1.094.416 1.761.416zm-.014-1.274c-.546 0-.964-.18-1.254-.54-.29-.36-.436-.894-.436-1.605 0-.702.148-1.237.442-1.605.295-.369.715-.553 1.261-.553.538 0 .954.184 1.248.553.295.368.442.903.442 1.605 0 .71-.145 1.246-.435 1.606-.29.36-.713.539-1.267.539zM44.537 20v-9.568h-1.611V20h1.611zm4.628.104c.66 0 1.24-.139 1.742-.416.503-.277.891-.674 1.164-1.19.273-.515.41-1.12.41-1.813 0-.693-.137-1.298-.41-1.813-.273-.516-.66-.913-1.163-1.19-.503-.277-1.084-.416-1.742-.416-.668 0-1.255.139-1.762.416-.507.277-.897.674-1.17 1.19-.273.515-.41 1.12-.41 1.813 0 .693.137 1.298.41 1.814.273.515.663.912 1.17 1.189.507.277 1.094.416 1.761.416zm-.013-1.274c-.546 0-.964-.18-1.254-.54-.29-.36-.435-.894-.435-1.605 0-.702.147-1.237.441-1.605.295-.369.715-.553 1.261-.553.538 0 .954.184 1.248.553.295.368.443.903.443 1.605 0 .71-.146 1.246-.436 1.606-.29.36-.713.539-1.267.539zm7.58 1.274c.485 0 .948-.074 1.39-.221.442-.147.802-.351 1.08-.611l-.456-1.144c-.277.225-.572.399-.883.52-.313.121-.62.182-.924.182-.598 0-1.059-.182-1.384-.546-.325-.364-.488-.893-.488-1.586 0-.693.165-1.224.494-1.593.33-.368.79-.552 1.378-.552.304 0 .611.058.923.175.313.117.607.289.885.514l.454-1.144c-.26-.26-.608-.464-1.046-.611-.438-.147-.89-.221-1.359-.221-.675 0-1.271.145-1.787.435-.516.29-.914.696-1.196 1.216-.282.52-.422 1.122-.422 1.807 0 .685.134 1.28.402 1.788.27.506.655.899 1.157 1.176.503.277 1.097.416 1.782.416zM61.774 20v-3.029L64.647 20h2.028l-3.184-3.419 2.95-3.133h-1.963l-2.703 2.886v-5.902h-1.612V20h1.612zm9.074-2.86v-1.3h-3.913v1.3h3.912zm3.34-5.083v-1.599h-1.806v1.599h1.806zM74.1 20v-6.565h-1.612V20h1.612zm3.263 0v-3.718c0-.52.151-.938.455-1.255.303-.316.702-.474 1.196-.474.415 0 .723.12.922.357.2.239.3.618.3 1.138V20h1.624v-4.03c0-1.803-.784-2.704-2.352-2.704-.486 0-.921.108-1.307.325-.386.217-.691.524-.916.923l-.118-1.079h-1.52c.069.546.103 1.166.103 1.859V20h1.613zm11.14 2.808v-3.861c.2.364.486.648.859.852.372.203.797.305 1.273.305.573 0 1.077-.139 1.515-.416.438-.277.778-.672 1.02-1.183.243-.511.365-1.105.365-1.781 0-.676-.124-1.276-.371-1.8-.247-.525-.59-.932-1.027-1.223-.438-.29-.938-.435-1.501-.435-.512 0-.963.115-1.353.345-.39.23-.671.548-.844.955l-.13-1.131h-1.522c.07.546.105 1.166.105 1.859v7.514h1.611zm1.69-3.978c-.545 0-.966-.184-1.26-.552-.295-.369-.442-.895-.442-1.58 0-.693.147-1.226.442-1.599.294-.373.719-.559 1.273-.559.538 0 .954.193 1.249.579.294.385.442.92.442 1.605 0 .676-.148 1.196-.442 1.56-.295.364-.715.546-1.261.546zm7.723 1.274c.467 0 .929-.076 1.384-.227.455-.152.838-.354 1.15-.605l-.468-1.118c-.615.468-1.282.702-2.001.702-.624 0-1.095-.167-1.411-.5-.316-.334-.492-.852-.526-1.554h4.523v-.247c0-1.023-.262-1.826-.786-2.412-.524-.585-1.237-.877-2.139-.877-.615 0-1.165.145-1.65.435-.486.29-.863.696-1.132 1.216-.268.52-.402 1.114-.402 1.781 0 1.057.307 1.89.922 2.496.616.607 1.46.91 2.535.91zm1.234-4.173h-3.055c.079-.485.254-.856.527-1.111.273-.256.626-.384 1.06-.384.433 0 .773.126 1.02.377s.397.624.449 1.118zM103.428 20v-3.549c0-.529.145-.953.435-1.274.29-.32.713-.481 1.267-.481.295 0 .581.056.858.169l.014-1.482c-.183-.07-.4-.104-.65-.104-.451 0-.854.113-1.21.338-.355.225-.615.55-.78.975l-.13-1.157h-1.52c.069.546.103 1.166.103 1.859V20h1.613zm5.056-7.943v-1.599h-1.806v1.599h1.806zm-.09 7.943v-6.565h-1.612V20h1.611zm4.627.104c.66 0 1.24-.139 1.743-.416.502-.277.89-.674 1.163-1.19.273-.515.41-1.12.41-1.813 0-.693-.137-1.298-.41-1.813-.273-.516-.66-.913-1.163-1.19-.503-.277-1.084-.416-1.743-.416-.667 0-1.254.139-1.761.416-.507.277-.897.674-1.17 1.19-.273.515-.41 1.12-.41 1.813 0 .693.137 1.298.41 1.814.273.515.663.912 1.17 1.189.507.277 1.094.416 1.761.416zm-.013-1.274c-.546 0-.964-.18-1.254-.54-.29-.36-.436-.894-.436-1.605 0-.702.148-1.237.443-1.605.294-.369.715-.553 1.26-.553.538 0 .954.184 1.249.553.294.368.441.903.441 1.605 0 .71-.145 1.246-.435 1.606-.29.36-.713.539-1.268.539zm7.15 1.274c.477 0 .902-.102 1.275-.305.372-.204.658-.488.858-.852V20h1.598v-9.568h-1.625v3.952c-.199-.355-.483-.63-.851-.825-.368-.195-.787-.293-1.255-.293-.572 0-1.078.14-1.52.422-.442.282-.785.679-1.028 1.19-.242.511-.363 1.105-.363 1.781 0 .676.123 1.276.37 1.8.247.525.591.93 1.034 1.216.441.286.944.429 1.507.429zm.43-1.274c-.538 0-.956-.19-1.255-.572-.299-.381-.448-.914-.448-1.599 0-.676.149-1.198.448-1.566.299-.369.722-.553 1.268-.553.537 0 .953.186 1.248.559.294.373.442.901.442 1.586s-.15 1.213-.449 1.586c-.299.373-.717.559-1.254.559z" transform="translate(173 228)"/>
            </g>
        </g>
        <g mask="url(#prefix__b)">
            <g>
                <g transform="translate(110 272)">
                    <use fill="#000" filter="url(#prefix__h)" xlink:href="#prefix__i"/>
                    <use fill="#FFF" xlink:href="#prefix__i"/>
                </g>
                <path fill="#000" fill-rule="nonzero" d="M23.538 21v-5.988L28.146 21h1.152v-8.544h-1.452v5.976l-4.596-5.976h-1.152V21h1.44zm10.14.096c.608 0 1.144-.128 1.608-.384.464-.256.822-.622 1.074-1.098.252-.476.378-1.034.378-1.674 0-.64-.126-1.198-.378-1.674s-.61-.842-1.074-1.098c-.464-.256-1-.384-1.608-.384-.616 0-1.158.128-1.626.384-.468.256-.828.622-1.08 1.098-.252.476-.378 1.034-.378 1.674 0 .64.126 1.198.378 1.674s.612.842 1.08 1.098c.468.256 1.01.384 1.626.384zm-.012-1.176c-.504 0-.89-.166-1.158-.498-.268-.332-.402-.826-.402-1.482 0-.648.136-1.142.408-1.482.272-.34.66-.51 1.164-.51.496 0 .88.17 1.152.51.272.34.408.834.408 1.482 0 .656-.134 1.15-.402 1.482-.268.332-.658.498-1.17.498zm8.16 1.08l.864-2.004h4.176L47.718 21h1.548l-3.876-8.544h-1.26L40.266 21h1.56zm4.524-3.204h-3.144l1.572-3.66 1.572 3.66zm5.964 3.3c.44 0 .832-.094 1.176-.282.344-.188.608-.45.792-.786V21h1.476v-8.832h-1.5v3.648c-.184-.328-.446-.582-.786-.762-.34-.18-.726-.27-1.158-.27-.528 0-.996.13-1.404.39-.408.26-.724.626-.948 1.098-.224.472-.336 1.02-.336 1.644 0 .624.114 1.178.342 1.662.228.484.546.858.954 1.122.408.264.872.396 1.392.396zm.396-1.176c-.496 0-.882-.176-1.158-.528-.276-.352-.414-.844-.414-1.476 0-.624.138-1.106.414-1.446.276-.34.666-.51 1.17-.51.496 0 .88.172 1.152.516.272.344.408.832.408 1.464s-.138 1.12-.414 1.464c-.276.344-.662.516-1.158.516zM60.354 21l2.652-6.048h-1.488l-1.776 4.344-1.74-4.344H56.43L59.046 21h1.308zm4.884-7.332v-1.476H63.57v1.476h1.668zM65.154 21v-6.06h-1.488V21h1.488zm3.744.096c.776 0 1.388-.164 1.836-.492.448-.328.672-.772.672-1.332 0-.456-.138-.826-.414-1.11-.276-.284-.714-.494-1.314-.63l-1.032-.228c-.28-.072-.478-.16-.594-.264-.116-.104-.174-.244-.174-.42 0-.224.096-.4.288-.528.192-.128.46-.192.804-.192.64 0 1.264.224 1.872.672l.444-1.02c-.304-.248-.656-.438-1.056-.57-.4-.132-.816-.198-1.248-.198-.496 0-.932.08-1.308.24-.376.16-.668.382-.876.666-.208.284-.312.61-.312.978 0 .888.552 1.452 1.656 1.692l1.008.228c.328.08.56.174.696.282.136.108.204.254.204.438 0 .216-.098.384-.294.504-.196.12-.474.18-.834.18-.832 0-1.572-.24-2.22-.72l-.42 1.056c.648.512 1.52.768 2.616.768zm6.42 0c.608 0 1.144-.128 1.608-.384.464-.256.822-.622 1.074-1.098.252-.476.378-1.034.378-1.674 0-.64-.126-1.198-.378-1.674s-.61-.842-1.074-1.098c-.464-.256-1-.384-1.608-.384-.616 0-1.158.128-1.626.384-.468.256-.828.622-1.08 1.098-.252.476-.378 1.034-.378 1.674 0 .64.126 1.198.378 1.674s.612.842 1.08 1.098c.468.256 1.01.384 1.626.384zm-.012-1.176c-.504 0-.89-.166-1.158-.498-.268-.332-.402-.826-.402-1.482 0-.648.136-1.142.408-1.482.272-.34.66-.51 1.164-.51.496 0 .88.17 1.152.51.272.34.408.834.408 1.482 0 .656-.134 1.15-.402 1.482-.268.332-.658.498-1.17.498zM81.042 21v-3.276c0-.488.134-.88.402-1.176.268-.296.658-.444 1.17-.444.272 0 .536.052.792.156l.012-1.368c-.168-.064-.368-.096-.6-.096-.416 0-.788.104-1.116.312-.328.208-.568.508-.72.9l-.12-1.068h-1.404c.064.504.096 1.076.096 1.716V21h1.488zm3.312 2.736c.728-.112 1.34-.34 1.836-.684.496-.344.904-.892 1.224-1.644l2.82-6.468h-1.488l-1.776 4.356-1.74-4.356h-1.572l2.52 5.844-.192.444c-.176.384-.406.674-.69.87-.284.196-.71.358-1.278.486l.336 1.152zm12.456-2.64c.608 0 1.144-.128 1.608-.384.464-.256.822-.622 1.074-1.098.252-.476.378-1.034.378-1.674 0-.64-.126-1.198-.378-1.674s-.61-.842-1.074-1.098c-.464-.256-1-.384-1.608-.384-.616 0-1.158.128-1.626.384-.468.256-.828.622-1.08 1.098-.252.476-.378 1.034-.378 1.674 0 .64.126 1.198.378 1.674s.612.842 1.08 1.098c.468.256 1.01.384 1.626.384zm-.012-1.176c-.504 0-.89-.166-1.158-.498-.268-.332-.402-.826-.402-1.482 0-.648.136-1.142.408-1.482.272-.34.66-.51 1.164-.51.496 0 .88.17 1.152.51.272.34.408.834.408 1.482 0 .656-.134 1.15-.402 1.482-.268.332-.658.498-1.17.498zm5.736 1.08v-3.276c0-.488.134-.88.402-1.176.268-.296.658-.444 1.17-.444.272 0 .536.052.792.156l.012-1.368c-.168-.064-.368-.096-.6-.096-.416 0-.788.104-1.116.312-.328.208-.568.508-.72.9l-.12-1.068h-1.404c.064.504.096 1.076.096 1.716V21h1.488zm7.92 0v-3.564h2.16c.912 0 1.626-.224 2.142-.672.516-.448.774-1.056.774-1.824s-.256-1.374-.768-1.818c-.512-.444-1.228-.666-2.148-.666h-3.708V21h1.548zm1.98-4.764h-1.98v-2.58h1.98c.544 0 .952.11 1.224.33.272.22.408.542.408.966 0 .416-.138.734-.414.954-.276.22-.682.33-1.218.33zM118.158 21v-8.832h-1.488V21h1.488zm3.876.096c.44 0 .832-.094 1.176-.282.344-.188.608-.45.792-.786V21h1.476v-6.06h-1.476v.912c-.184-.336-.448-.598-.792-.786-.344-.188-.736-.282-1.176-.282-.52 0-.984.134-1.392.402-.408.268-.726.644-.954 1.128-.228.484-.342 1.038-.342 1.662 0 .624.112 1.172.336 1.644.224.472.54.836.948 1.092.408.256.876.384 1.404.384zm.408-1.176c-.504 0-.894-.168-1.17-.504-.276-.336-.414-.816-.414-1.44 0-.632.138-1.126.414-1.482.276-.356.662-.534 1.158-.534.504 0 .892.172 1.164.516.272.344.408.836.408 1.476 0 .624-.136 1.108-.408 1.452-.272.344-.656.516-1.152.516zm7.092 1.164c.376 0 .696-.048.96-.144v-1.188c-.216.064-.416.096-.6.096-.664 0-.996-.356-.996-1.068v-2.712h1.608V14.94h-1.608v-1.98l-1.5.504v1.476h-1.164v1.128h1.164v2.784c0 .72.184 1.272.552 1.656.368.384.896.576 1.584.576zm3.84-.084v-4.932h1.356V14.94h-1.356v-.516c0-.712.324-1.068.972-1.068.168 0 .364.028.588.084v-1.188c-.256-.096-.572-.144-.948-.144-.68 0-1.202.194-1.566.582-.364.388-.546.942-.546 1.662v.588h-1.152v1.128h1.152V21h1.5zm5.076.096c.608 0 1.144-.128 1.608-.384.464-.256.822-.622 1.074-1.098.252-.476.378-1.034.378-1.674 0-.64-.126-1.198-.378-1.674s-.61-.842-1.074-1.098c-.464-.256-1-.384-1.608-.384-.616 0-1.158.128-1.626.384-.468.256-.828.622-1.08 1.098-.252.476-.378 1.034-.378 1.674 0 .64.126 1.198.378 1.674s.612.842 1.08 1.098c.468.256 1.01.384 1.626.384zm-.012-1.176c-.504 0-.89-.166-1.158-.498-.268-.332-.402-.826-.402-1.482 0-.648.136-1.142.408-1.482.272-.34.66-.51 1.164-.51.496 0 .88.17 1.152.51.272.34.408.834.408 1.482 0 .656-.134 1.15-.402 1.482-.268.332-.658.498-1.17.498zm5.736 1.08v-3.276c0-.488.134-.88.402-1.176.268-.296.658-.444 1.17-.444.272 0 .536.052.792.156l.012-1.368c-.168-.064-.368-.096-.6-.096-.416 0-.788.104-1.116.312-.328.208-.568.508-.72.9l-.12-1.068h-1.404c.064.504.096 1.076.096 1.716V21h1.488zm4.584 0v-3.384c0-.512.12-.914.36-1.206.24-.292.568-.438.984-.438.352 0 .61.108.774.324.164.216.246.56.246 1.032V21h1.5v-3.384c0-.512.118-.914.354-1.206.236-.292.562-.438.978-.438.36 0 .618.106.774.318.156.212.234.558.234 1.038V21h1.5v-3.72c0-.84-.168-1.466-.504-1.878-.336-.412-.848-.618-1.536-.618-.44 0-.838.102-1.194.306-.356.204-.63.486-.822.846-.28-.768-.884-1.152-1.812-1.152-.432 0-.814.096-1.146.288-.332.192-.586.468-.762.828l-.108-.96h-1.404c.064.504.096 1.076.096 1.716V21h1.488zm13.992 0v-3.72h3.804v-1.248h-3.804v-2.34h4.044v-1.236h-5.58V21h1.536zm7.836.096c.432 0 .858-.07 1.278-.21.42-.14.774-.326 1.062-.558l-.432-1.032c-.568.432-1.184.648-1.848.648-.576 0-1.01-.154-1.302-.462-.292-.308-.454-.786-.486-1.434h4.176v-.228c0-.944-.242-1.686-.726-2.226s-1.142-.81-1.974-.81c-.568 0-1.076.134-1.524.402-.448.268-.796.642-1.044 1.122-.248.48-.372 1.028-.372 1.644 0 .976.284 1.744.852 2.304.568.56 1.348.84 2.34.84zm1.14-3.852h-2.82c.072-.448.234-.79.486-1.026s.578-.354.978-.354.714.116.942.348c.228.232.366.576.414 1.032zm5.316 3.852c.432 0 .858-.07 1.278-.21.42-.14.774-.326 1.062-.558l-.432-1.032c-.568.432-1.184.648-1.848.648-.576 0-1.01-.154-1.302-.462-.292-.308-.454-.786-.486-1.434h4.176v-.228c0-.944-.242-1.686-.726-2.226s-1.142-.81-1.974-.81c-.568 0-1.076.134-1.524.402-.448.268-.796.642-1.044 1.122-.248.48-.372 1.028-.372 1.644 0 .976.284 1.744.852 2.304.568.56 1.348.84 2.34.84zm1.14-3.852h-2.82c.072-.448.234-.79.486-1.026s.578-.354.978-.354.714.116.942.348c.228.232.366.576.414 1.032z" transform="translate(110 272)"/>
            </g>
        </g>
        <g mask="url(#prefix__b)">
            <g transform="translate(70 70)">
                <circle cx="14.5" cy="14.5" r="14.5" fill="#00A7A7"/>
                <path fill="#FFF" d="M5.181 9.659L1.658 6.024 0.483 7.236 5.181 12.083 15.247 1.695 14.073 0.483z" transform="translate(6.767 8.861)"/>
            </g>
        </g>
        <g mask="url(#prefix__b)">
            <g>
                <path fill="#FAB08A" d="M54.933 60.074c-2.18 0-4.23-1.304-5.05-3.419-3.82-9.876 4.663-23.379 12.18-28.337 2.48-1.63 5.831-.987 7.497 1.44 1.663 2.428 1.006 5.718-1.468 7.35-4.578 3.017-9.635 11.852-8.11 15.791 1.056 2.735-.347 5.792-3.135 6.829-.63.234-1.278.346-1.914.346" transform="translate(39 96)"/>
                <path fill="#F49E8E" d="M69.56 29.76c-1.666-2.43-5.018-3.07-7.496-1.441-2.56 1.689-5.233 4.37-7.494 7.56.711 3.034 2.275 5.357 5.217 5.798 1.59.238 3.211-.276 4.801-1.266 1.12-1.363 2.327-2.528 3.504-3.303 2.473-1.632 3.13-4.921 1.467-7.349" transform="translate(39 96)"/>
                <path fill="#FAB08A" d="M59.707 17.445c-2.115 3.653-6.519 21.585 2.201 23.328 8.723 1.744 19.56-19.26 19.56-19.26S63.433 8.81 61.57 13.127l-1.864 4.318z" transform="translate(39 96)"/>
                <g transform="translate(39 96) translate(54.94)">
                    <mask id="prefix__k" fill="#fff">
                        <use xlink:href="#prefix__j"/>
                    </mask>
                    <path fill="#DC6D08" d="M3.429 24.29c.347-.643 1.472-9.306 6.873-10.029 5.4-.722 9.273 2.862 11.918 6.838 3.627 5.456 15.164 2.147 17.291-3.549 2.127-5.695-.327-7.781-3.436-7.06.49-2.326.082-10.83-9.737-8.022-1.8-2.488-17.346-6.42-18.246 7.621-13.307.02-6.185 18.374-6.185 18.374L3.43 24.29z" mask="url(#prefix__k)"/>
                </g>
                <path fill="#FF7900" d="M95.235 13.558c-.116-2.653-1.996-3.584-4.22-3.068.491-2.326.081-10.829-9.737-8.021C79.705.293 67.616-2.988 64.007 5.617l-.005.046h-.014c-.507 1.225-.844 2.687-.956 4.426-3.885.006-6.021 1.58-7.109 3.8-.144 4.891 1.894 10.15 1.894 10.15l1.521-4.175c.347-.642 1.473-9.305 6.873-10.028 5.4-.722 9.274 2.86 11.918 6.838 3.534 5.315 14.573 2.31 17.106-3.116" transform="translate(39 96)"/>
                <path fill="#FAB08A" d="M60.327 21.134c-.126 2.313-1.024 4.145-2.004 4.093-.981-.05-1.673-1.967-1.548-4.279.127-2.312 1.025-4.145 2.004-4.094.98.051 1.673 1.967 1.548 4.28" transform="translate(39 96)"/>
                <path fill="#004472" d="M44.95 44.346C39.973 41.378.488 58.968.276 94.649c-.202 33.938 13.582 46.935 31.255 46.935H72.77l-2.29-33.938 35.673 15.406 2.712-11.85s-16.285-14.266-20.36-22.69c-4.075-8.424-9.721-37.632-24.327-39.11-4.207-.427-7.527 1.924-19.227-5.056" transform="translate(39 96)"/>
                <path fill="#1C2C57" d="M101.271 104.073c-7.572 1.265-24.584-4.542-21.116-5.974 4.058-1.676 3.624-11.169-.641-12.265l-9.215-.08s-7.772 18.346-7.618 18.713c.103.248 5.083 6.918 8.345 11.278l-.547-8.098 32.115 13.868 4.109-.873 2.162-9.44s-3.463-3.036-7.594-7.13" transform="translate(39 96)"/>
                <path fill="#1C2C57" d="M33.46 83.82c.245 5.768-1.263 36.257 7.222 34.435 8.485-1.822 14.751-20.638 22.084-15.099 7.333 5.54-3.531 36.134-6.244 37.742-2.712 1.61-31.999 3.123-19.39-.567 10.923-6.818 14.2-16.699 14.2-16.699l-.527-3.825-.916-1.073-7.161 2.656s-10.161 1.148-13.239-4.19c-3.078-5.336-2.167-22.806-2.167-22.806l1.23-10.573s4.607-7.115 4.909 0" transform="translate(39 96)"/>
                <path fill="#1C2C57" d="M53.749 141.584c5.35-4.642 25.142-22.682-9.484-7.058C4.823 152.326 2.35 90.764 2.11 82.85l-.235-.062C.878 86.488.301 90.441.276 94.65c-.201 33.937 13.582 46.934 31.255 46.934h22.218z" transform="translate(39 96)"/>
                <path fill="#004472" d="M56.422 54.263c-1.589 0-3.223-.3-4.841-.909-4.315-1.625-7.3-5.054-7.602-8.737-.152-1.855 1.257-3.479 3.149-3.629 1.89-.155 3.548 1.233 3.702 3.088.073.9 1.297 2.264 3.214 2.987 1.032.388 3.655 1.086 5.729-.835 1.38-1.276 3.553-1.215 4.857.137 1.303 1.353 1.24 3.485-.137 4.763-2.23 2.065-5.067 3.135-8.07 3.135" transform="translate(39 96)"/>
                <g transform="translate(39 96) translate(77.287 93.337)">
                    <mask id="prefix__m" fill="#fff">
                        <use xlink:href="#prefix__l"/>
                    </mask>
                    <use fill="#62D7D7" xlink:href="#prefix__l"/>
                    <path fill="#1DBEBE" d="M50.644 37.03c-1.523 3.176-4.75 5.616-8.011 7.419-3.044 1.682-6.778 2.917-15.063 3.168-4.447.136-9.758-.374-13.852-1.413-5.676-1.44-8.914-3.842-8.623-3.406 1.633 2.448 3.049 3.32 3.714 3.745 3.941 2.52 8.09 2.418 9.757 2.418 7.798 0 17.876 2.23 26.651-3.792 8.776-6.023 6.327-10.018 5.427-8.14z" mask="url(#prefix__m)"/>
                    <path fill="#FFF" d="M37.072 12.04c-4.802 0-8.89 2.973-10.438 7.133-1.548-4.16-5.636-7.133-10.438-7.133-6.13 0-11.1 4.846-11.1 10.823 0 12.319 1.218 22.306 21.538 22.306 19.19 0 21.538-9.987 21.538-22.306 0-5.977-4.97-10.823-11.1-10.823" opacity=".901"/>
                    <path fill="#FFCD8C" d="M28.982 36.273l2.465-4.412c.275-.493.194-1.112-.198-1.512l-3.628-3.71c-.5-.512-1.346-.512-1.846 0l-3.63 3.71c-.39.4-.472 1.02-.197 1.512l2.466 4.412c.979 1.752 3.589 1.752 4.568 0"/>
                </g>
                <path fill="#232374" d="M30.97 142.11c-.661 0-1.335-.044-2.025-.135-.269-.036-.458-.279-.42-.542.036-.263.28-.459.552-.412 13.293 1.75 21.064-15.611 21.803-17.347l-1.081-4.42c-1.589.945-6.208 3.232-13.214 2.834-2.47-.14-4.522-1.147-6.096-2.992-5.876-6.888-3.802-23.74-2.805-31.837.157-1.273.283-2.301.34-2.998.02-.264.258-.456.529-.44.27.02.471.252.45.518-.058.706-.185 1.746-.344 3.035-.904 7.341-3.02 24.536 2.584 31.104 1.392 1.634 3.21 2.523 5.399 2.648 8.248.467 13.132-3 13.18-3.036.133-.096.307-.12.46-.065.154.056.27.183.31.341l1.28 5.234c.024.097.017.197-.02.288-.076.192-7.468 18.221-20.882 18.222" transform="translate(39 96)"/>
                <path fill="#272727" d="M72.59 73.519c9.528-2.685 15.187 11.811 10.377 13.993C78.16 89.694 66.25 75.313 72.59 73.52" transform="translate(39 96)"/>
                <path fill="#FAB08A" d="M70.02 104.433c.128.017.262.032.398.032 1.997.06 3.661-1.482 3.72-3.445.057-2.09.182-6.438 3.001-9.06 1.452-1.354 1.51-3.6.135-5.018-1.382-1.424-3.668-1.484-5.122-.133-4.983 4.643-5.179 11.447-5.25 14.012-.052 1.829 1.314 3.37 3.119 3.612" transform="translate(39 96)"/>
                <path fill="#F29B8B" d="M71.566 92.28c-.534-1.228-.908-2.444-1.1-3.593.493-.65 1.05-1.284 1.685-1.878 1.455-1.351 3.741-1.292 5.123.133 1.375 1.418 1.317 3.664-.135 5.017-1.325 1.228-2.044 2.847-2.447 4.427-1.264-1.017-2.392-2.407-3.126-4.106" transform="translate(39 96)"/>
                <path fill="#FAB08A" d="M82.081 83.68c1.959 4.518.404 9.472-2.29 10.608-2.696 1.133-7.423-1.228-9.38-5.748-1.954-4.515-1.876-8.843 2.295-10.602 6.093-2.578 7.417 1.222 9.375 5.743M101.762 126.213c-.233 0-.468-.082-.655-.246-.403-.355-.438-.963-.076-1.36l3.519-3.85c.36-.397.982-.43 1.387-.075.402.355.437.963.075 1.358l-3.518 3.852c-.194.212-.463.32-.732.32" transform="translate(39 96)"/>
                <path fill="#FAB08A" d="M100.463 125.052c0-.469 9.419-4.288 10.015-1.754.596 2.533-.993 5.3-12.12 4.676 0-1.637 2.105-2.922 2.105-2.922" transform="translate(39 96)"/>
                <path fill="#00A7A7" d="M67.58 99.859c-5.031 2.696-17.39 40.438-16.163 40.799 1.473 0 34.975 2.121 33.748-.887-1.227-3.009-5.311-33.486-5.311-33.486l-5.96-4.523-6.313-1.903z" transform="translate(39 96)"/>
                <path fill="#00A7A7" d="M100.964 123.657l-.022-.001c-5.521-.49-11.948-1.834-15.754-6.11-2.083-2.343-2.138-5.255-2.142-8.202-.06-10.912-17.765-8.267-14.356 2.76 2.775 8.973 9.68 16.513 19.864 17.04 4.224.423 8.306.035 12.41-.675v-4.812z" transform="translate(39 96)"/>
                <path fill="#008F91" d="M78.836 102.87c-2.639-.989-5.94-.458-8.149 1.359 1.173.47 2.62.767 4.02.767 1.095 0 2.159-.18 3.036-.596.634-.3 1.022-.891 1.093-1.53M82.998 128.196c-4.342-1.483-8.43-5.619-9.111-6.271-.856 5.228 5.487 11.398 10.146 12.602-.321-1.838-.675-4.015-1.035-6.331" transform="translate(39 96)"/>
                <path fill="#00A7A7" d="M72.805 103.681c-1.717 0-3.507-.441-4.77-1.107-1.778-.938-2.286-2.122-2.4-2.95-.145-1.053.61-2.023 1.685-2.164 1.01-.132 1.943.512 2.172 1.464.628.646 3.414 1.275 4.639.695.978-.464 2.15-.062 2.623.896.472.956.063 2.108-.913 2.57-.877.416-1.942.596-3.036.596" transform="translate(39 96)"/>
                <path fill="#008F91" d="M51.417 140.658c1.043 0 18.14 1.063 27.601.616l-9.048-.23c-15.484-.397-6.135-29.462-1.536-40.928l-.853-.257c-5.032 2.696-17.39 40.438-16.164 40.8" transform="translate(39 96)"/>
                <path fill="#272727" d="M70.479 101.452c1.43-3.512-.094-5.32-.014-12.765.038-3.347 5.664-3.965 7.602-6.745 4.733-6.803-3.203-10.716-8.633-8.628-6.195 2.38-5.909 12.35-6.44 13.393-.533 1.044-10.556 3.49-9.676 13.151.798 8.768 14.475 8.186 17.16 1.594" transform="translate(39 96)"/>
                <path fill="#FAB08A" d="M68.804 86.135c.33 1.227 1.263 2.047 2.088 1.837.828-.212 1.232-1.38.903-2.602-.327-1.227-1.263-2.049-2.09-1.832-.823.21-1.232 1.374-.9 2.597M61.108 109.814c-1.294-7.268-5.633 1.374-6.146 4.206-.396 2.175-2.182 4.622-4.158 5.787.006.021.02.043.025.066.168.8.54 1.795.546 2.56.26.012.427-.004.736 0 5.567.08 10.29-5.352 8.997-12.62" transform="translate(39 96)"/>
                <path fill="#181615" d="M63.49 87.248s-.352-.066-.936-.172c-2.021 1.247-10.026 4.103-9.236 12.783.55 6.035 7.202 7.64 12.17 5.903-13.512-3.524-4.499-17.77-1.998-18.514" transform="translate(39 96)"/>
                <path fill="#EFAE64" d="M105.993 77.095c-.313 0-.594-.19-.714-.48-1.52-3.696-2.642-4.824-6.313-6.355-.289-.12-.477-.404-.477-.719 0-.314.188-.598.477-.718 3.671-1.532 4.792-2.66 6.313-6.356.12-.29.401-.48.714-.48.312 0 .594.19.713.48 1.521 3.696 2.642 4.824 6.314 6.356.289.12.477.404.477.718 0 .315-.188.599-.477.719-3.672 1.53-4.793 2.659-6.314 6.355-.12.29-.4.48-.713.48M128.135 69.34c-.213 0-.406-.13-.488-.328-1.04-2.53-1.808-3.302-4.32-4.35-.198-.082-.327-.276-.327-.492 0-.215.129-.409.326-.491 2.513-1.049 3.28-1.821 4.321-4.35.082-.2.275-.329.488-.329.214 0 .407.13.489.329 1.04 2.529 1.808 3.301 4.32 4.35.198.082.327.276.327.491 0 .216-.129.41-.326.492-2.513 1.048-3.28 1.82-4.321 4.35-.082.199-.275.328-.489.328" transform="translate(39 96)"/>
            </g>
        </g>
    </g>
</svg>
