<?xml version="1.0" encoding="UTF-8"?>
<svg width="375px" height="440px" viewBox="0 0 375 440" version="1.1" xmlns="http://www.w3.org/2000/svg" xmlns:xlink="http://www.w3.org/1999/xlink">
    <title>graphic/walkthrough/1-pathed</title>
    <defs>
        <rect id="path-1" x="0" y="0" width="375" height="440"></rect>
        <filter x="-13.7%" y="-28.8%" width="127.5%" height="157.5%" filterUnits="objectBoundingBox" id="filter-3">
            <feOffset dx="10" dy="14" in="SourceAlpha" result="shadowOffsetOuter1"></feOffset>
            <feGaussianBlur stdDeviation="5" in="shadowOffsetOuter1" result="shadowBlurOuter1"></feGaussianBlur>
            <feColorMatrix values="0 0 0 0 0   0 0 0 0 0   0 0 0 0 0  0 0 0 0.15 0" type="matrix" in="shadowBlurOuter1" result="shadowMatrixOuter1"></feColorMatrix>
            <feMerge>
                <feMergeNode in="shadowMatrixOuter1"></feMergeNode>
                <feMergeNode in="SourceGraphic"></feMergeNode>
            </feMerge>
        </filter>
        <polygon id="path-4" points="0.00369346101 -0.000147016213 40.3102162 -0.000147016213 40.3102162 28.4634534 0.00369346101 28.4634534"></polygon>
        <path d="M52.0031888,24.5643879 C52.0117799,18.5990328 51.7734799,14.5527382 52.7273474,11.003193 C52.9045086,10.3424174 53.0676569,9.65688082 53.2212967,8.94609788 C53.6171567,7.11816223 51.6098311,5.6999949 49.9443164,6.63750983 C49.1976373,7.05844481 48.4209309,7.46578558 47.644725,7.82894518 C46.657327,8.29066278 45.4857615,8.08723515 44.7175629,7.32838697 C40.4590547,3.12254542 34.6620933,0.388033028 28.2190429,-9.02898433e-15 C27.8693622,-0.020945507 27.6261724,2.05940339 27.4894734,6.2410467 L25.3702901,6.2410467 C25.3291413,2.06864832 25.1707215,-0.00844937035 24.8950307,0.0097536249 C18.5131117,0.43113175 12.7750813,3.15508033 8.54966966,7.32644494 C7.78197147,8.08529312 6.60940506,8.28872075 5.62200707,7.82651764 C4.84780296,7.46432906 4.0730984,7.0574738 3.32742023,6.63750983 C1.66240597,5.6999949 -0.344919609,7.11767672 0.0504399547,8.94561237 C0.203579229,9.65154024 0.36522624,10.3322217 0.540885995,10.9886278 C1.49325213,14.538173 1.8305589,18.2144356 1.41518113,21.8601112 C1.31408919,22.7481044 1.26204186,23.6501773 1.26204186,24.5643879 C1.20429713,29.9523883 1.55026765,33.8991827 2.29995344,36.404771 C4.9751077,45.3456304 8.61312074,48.9606313 26.6975678,48.9606313 C44.7820149,48.9606313 48.3722167,42.8950435 50.4310891,37.5872059 C52.2093877,33.0026966 51.9945978,30.5297429 52.0031888,24.5643879 Z" id="path-6"></path>
    </defs>
    <g id="graphic/walkthrough/1-pathed" stroke="none" stroke-width="1" fill="none" fill-rule="evenodd">
        <mask id="mask-2" fill="white">
            <use xlink:href="#path-1"></use>
        </mask>
        <use id="Mask" fill="#56E4D6" xlink:href="#path-1"></use>
        <circle id="Oval" fill="#5DD8CC" mask="url(#mask-2)" cx="187.5" cy="199.5" r="148.5"></circle>
        <circle id="Oval-Copy" fill="#3CCEC0" mask="url(#mask-2)" cx="187.5" cy="199.5" r="129.5"></circle>
        <circle id="Oval-Copy-3" fill="#5DD8CC" mask="url(#mask-2)" cx="336.5" cy="477.5" r="148.5"></circle>
        <circle id="Oval-Copy-2" fill="#3CCEC0" mask="url(#mask-2)" cx="336.5" cy="477.5" r="129.5"></circle>
        <g id="graphics/card" filter="url(#filter-3)" mask="url(#mask-2)">
            <g transform="translate(49.000000, 89.000000)">
                <path d="M6,0 L329,0 C332.313708,0 335,2.6862915 335,6 L335,154 C335,157.313708 332.313708,160 329,160 L6,160 C2.6862915,160 0,157.313708 0,154 L0,6 C0,2.6862915 2.6862915,0 6,0 Z" id="Mask" fill="#005960" fill-rule="evenodd"></path>
                <path d="M119.408,57.338 L122.666,48.122 L125.888,57.338 L127.778,57.338 L132.314,44.522 L130.082,44.522 L126.806,54.152 L123.548,44.522 L121.892,44.522 L118.562,54.08 L115.358,44.522 L113,44.522 L117.518,57.338 L119.408,57.338 Z M136.1225,46.34 L136.1225,44.126 L133.6205,44.126 L133.6205,46.34 L136.1225,46.34 Z M135.9965,57.338 L135.9965,48.248 L133.7645,48.248 L133.7645,57.338 L135.9965,57.338 Z M141.605,57.482 C142.769,57.482 143.687,57.236 144.359,56.744 C145.031,56.252 145.367,55.586 145.367,54.746 C145.367,54.062 145.16,53.507 144.746,53.081 C144.332,52.655 143.675,52.34 142.775,52.136 L142.775,52.136 L141.227,51.794 C140.807,51.686 140.51,51.554 140.336,51.398 C140.162,51.242 140.075,51.032 140.075,50.768 C140.075,50.432 140.219,50.168 140.507,49.976 C140.795,49.784 141.197,49.688 141.713,49.688 C142.673,49.688 143.609,50.024 144.521,50.696 L144.521,50.696 L145.187,49.166 C144.731,48.794 144.203,48.509 143.603,48.311 C143.003,48.113 142.379,48.014 141.731,48.014 C140.987,48.014 140.333,48.134 139.769,48.374 C139.205,48.614 138.767,48.947 138.455,49.373 C138.143,49.799 137.987,50.288 137.987,50.84 C137.987,52.172 138.815,53.018 140.471,53.378 L140.471,53.378 L141.983,53.72 C142.475,53.84 142.823,53.981 143.027,54.143 C143.231,54.305 143.333,54.524 143.333,54.8 C143.333,55.124 143.186,55.376 142.892,55.556 C142.598,55.736 142.181,55.826 141.641,55.826 C140.393,55.826 139.283,55.466 138.311,54.746 L138.311,54.746 L137.681,56.33 C138.653,57.098 139.961,57.482 141.605,57.482 Z M151.3895,57.482 C152.0375,57.482 152.6765,57.377 153.3065,57.167 C153.9365,56.957 154.4675,56.678 154.8995,56.33 L154.8995,56.33 L154.2515,54.782 C153.3995,55.43 152.4755,55.754 151.4795,55.754 C150.6155,55.754 149.9645,55.523 149.5265,55.061 C149.0885,54.599 148.8455,53.882 148.7975,52.91 L148.7975,52.91 L155.0615,52.91 L155.0615,52.568 C155.0615,51.152 154.6985,50.039 153.9725,49.229 C153.2465,48.419 152.2595,48.014 151.0115,48.014 C150.1595,48.014 149.3975,48.215 148.7255,48.617 C148.0535,49.019 147.5315,49.58 147.1595,50.3 C146.7875,51.02 146.6015,51.842 146.6015,52.766 C146.6015,54.23 147.0275,55.382 147.8795,56.222 C148.7315,57.062 149.9015,57.482 151.3895,57.482 Z M153.0995,51.704 L148.8695,51.704 C148.9775,51.032 149.2205,50.519 149.5985,50.165 C149.9765,49.811 150.4655,49.634 151.0655,49.634 C151.6655,49.634 152.1365,49.808 152.4785,50.156 C152.8205,50.504 153.0275,51.02 153.0995,51.704 L153.0995,51.704 Z M161.282,57.5 C162.326,57.5 163.232,57.344 164,57.032 C164.768,56.72 165.356,56.279 165.764,55.709 C166.172,55.139 166.376,54.47 166.376,53.702 C166.376,53.006 166.196,52.427 165.836,51.965 C165.476,51.503 164.96,51.125 164.288,50.831 C163.616,50.537 162.746,50.264 161.678,50.012 C160.646,49.784 159.917,49.538 159.491,49.274 C159.065,49.01 158.852,48.626 158.852,48.122 C158.852,47.534 159.092,47.069 159.572,46.727 C160.052,46.385 160.706,46.214 161.534,46.214 C162.914,46.214 164.174,46.67 165.314,47.582 L165.314,47.582 L166.088,45.89 C165.572,45.41 164.909,45.035 164.099,44.765 C163.289,44.495 162.434,44.36 161.534,44.36 C160.55,44.36 159.683,44.528 158.933,44.864 C158.183,45.2 157.604,45.662 157.196,46.25 C156.788,46.838 156.584,47.51 156.584,48.266 C156.584,49.322 156.95,50.126 157.682,50.678 C158.414,51.23 159.584,51.68 161.192,52.028 C162.224,52.256 162.965,52.499 163.415,52.757 C163.865,53.015 164.09,53.384 164.09,53.864 C164.09,54.428 163.847,54.866 163.361,55.178 C162.875,55.49 162.188,55.646 161.3,55.646 C160.496,55.646 159.755,55.535 159.077,55.313 C158.399,55.091 157.748,54.746 157.124,54.278 L157.124,54.278 L156.332,55.97 C156.932,56.462 157.661,56.84 158.519,57.104 C159.377,57.368 160.298,57.5 161.282,57.5 Z M171.7145,57.482 C172.3745,57.482 172.9625,57.341 173.4785,57.059 C173.9945,56.777 174.3905,56.384 174.6665,55.88 L174.6665,55.88 L174.6665,57.338 L176.8805,57.338 L176.8805,48.248 L174.6665,48.248 L174.6665,49.616 C174.3905,49.112 173.9945,48.719 173.4785,48.437 C172.9625,48.155 172.3745,48.014 171.7145,48.014 C170.9345,48.014 170.2385,48.215 169.6265,48.617 C169.0145,49.019 168.5375,49.583 168.1955,50.309 C167.8535,51.035 167.6825,51.866 167.6825,52.802 C167.6825,53.738 167.8505,54.56 168.1865,55.268 C168.5225,55.976 168.9965,56.522 169.6085,56.906 C170.2205,57.29 170.9225,57.482 171.7145,57.482 Z M172.3265,55.718 C171.5705,55.718 170.9855,55.466 170.5715,54.962 C170.1575,54.458 169.9505,53.738 169.9505,52.802 C169.9505,51.854 170.1575,51.113 170.5715,50.579 C170.9855,50.045 171.5645,49.778 172.3085,49.778 C173.0645,49.778 173.6465,50.036 174.0545,50.552 C174.4625,51.068 174.6665,51.806 174.6665,52.766 C174.6665,53.702 174.4625,54.428 174.0545,54.944 C173.6465,55.46 173.0705,55.718 172.3265,55.718 Z M183.767,57.338 L187.745,48.266 L185.513,48.266 L182.849,54.782 L180.239,48.266 L177.881,48.266 L181.805,57.338 L183.767,57.338 Z M192.8495,57.482 C193.4975,57.482 194.1365,57.377 194.7665,57.167 C195.3965,56.957 195.9275,56.678 196.3595,56.33 L196.3595,56.33 L195.7115,54.782 C194.8595,55.43 193.9355,55.754 192.9395,55.754 C192.0755,55.754 191.4245,55.523 190.9865,55.061 C190.5485,54.599 190.3055,53.882 190.2575,52.91 L190.2575,52.91 L196.5215,52.91 L196.5215,52.568 C196.5215,51.152 196.1585,50.039 195.4325,49.229 C194.7065,48.419 193.7195,48.014 192.4715,48.014 C191.6195,48.014 190.8575,48.215 190.1855,48.617 C189.5135,49.019 188.9915,49.58 188.6195,50.3 C188.2475,51.02 188.0615,51.842 188.0615,52.766 C188.0615,54.23 188.4875,55.382 189.3395,56.222 C190.1915,57.062 191.3615,57.482 192.8495,57.482 Z M194.5595,51.704 L190.3295,51.704 C190.4375,51.032 190.6805,50.519 191.0585,50.165 C191.4365,49.811 191.9255,49.634 192.5255,49.634 C193.1255,49.634 193.5965,49.808 193.9385,50.156 C194.2805,50.504 194.4875,51.02 194.5595,51.704 L194.5595,51.704 Z M200.474,57.338 L200.474,52.424 C200.474,51.692 200.675,51.104 201.077,50.66 C201.479,50.216 202.064,49.994 202.832,49.994 C203.24,49.994 203.636,50.072 204.02,50.228 L204.02,50.228 L204.038,48.176 C203.786,48.08 203.486,48.032 203.138,48.032 C202.514,48.032 201.956,48.188 201.464,48.5 C200.972,48.812 200.612,49.262 200.384,49.85 L200.384,49.85 L200.204,48.248 L198.098,48.248 C198.194,49.004 198.242,49.862 198.242,50.822 L198.242,50.822 L198.242,57.338 L200.474,57.338 Z M212.339,57.338 L212.339,51.992 L215.579,51.992 C216.947,51.992 218.018,51.656 218.792,50.984 C219.566,50.312 219.953,49.4 219.953,48.248 C219.953,47.096 219.569,46.187 218.801,45.521 C218.033,44.855 216.959,44.522 215.579,44.522 L215.579,44.522 L210.017,44.522 L210.017,57.338 L212.339,57.338 Z M215.309,50.192 L212.339,50.192 L212.339,46.322 L215.309,46.322 C216.125,46.322 216.737,46.487 217.145,46.817 C217.553,47.147 217.757,47.63 217.757,48.266 C217.757,48.89 217.55,49.367 217.136,49.697 C216.722,50.027 216.113,50.192 215.309,50.192 L215.309,50.192 Z M225.4355,57.482 C226.3475,57.482 227.1515,57.29 227.8475,56.906 C228.5435,56.522 229.0805,55.973 229.4585,55.259 C229.8365,54.545 230.0255,53.708 230.0255,52.748 C230.0255,51.788 229.8365,50.951 229.4585,50.237 C229.0805,49.523 228.5435,48.974 227.8475,48.59 C227.1515,48.206 226.3475,48.014 225.4355,48.014 C224.5115,48.014 223.6985,48.206 222.9965,48.59 C222.2945,48.974 221.7545,49.523 221.3765,50.237 C220.9985,50.951 220.8095,51.788 220.8095,52.748 C220.8095,53.708 220.9985,54.545 221.3765,55.259 C221.7545,55.973 222.2945,56.522 222.9965,56.906 C223.6985,57.29 224.5115,57.482 225.4355,57.482 Z M225.4175,55.718 C224.6615,55.718 224.0825,55.469 223.6805,54.971 C223.2785,54.473 223.0775,53.732 223.0775,52.748 C223.0775,51.776 223.2815,51.035 223.6895,50.525 C224.0975,50.015 224.6795,49.76 225.4355,49.76 C226.1795,49.76 226.7555,50.015 227.1635,50.525 C227.5715,51.035 227.7755,51.776 227.7755,52.748 C227.7755,53.732 227.5745,54.473 227.1725,54.971 C226.7705,55.469 226.1855,55.718 225.4175,55.718 Z M234.014,57.338 L234.014,52.424 C234.014,51.692 234.215,51.104 234.617,50.66 C235.019,50.216 235.604,49.994 236.372,49.994 C236.78,49.994 237.176,50.072 237.56,50.228 L237.56,50.228 L237.578,48.176 C237.326,48.08 237.026,48.032 236.678,48.032 C236.054,48.032 235.496,48.188 235.004,48.5 C234.512,48.812 234.152,49.262 233.924,49.85 L233.924,49.85 L233.744,48.248 L231.638,48.248 C231.734,49.004 231.782,49.862 231.782,50.822 L231.782,50.822 L231.782,57.338 L234.014,57.338 Z M243.2945,57.464 C243.8585,57.464 244.3385,57.392 244.7345,57.248 L244.7345,57.248 L244.7345,55.466 C244.4105,55.562 244.1105,55.61 243.8345,55.61 C242.8385,55.61 242.3405,55.076 242.3405,54.008 L242.3405,54.008 L242.3405,49.94 L244.7525,49.94 L244.7525,48.248 L242.3405,48.248 L242.3405,45.278 L240.0905,46.034 L240.0905,48.248 L238.3445,48.248 L238.3445,49.94 L240.0905,49.94 L240.0905,54.116 C240.0905,55.196 240.3665,56.024 240.9185,56.6 C241.4705,57.176 242.2625,57.464 243.2945,57.464 Z M249.047,57.338 L249.047,49.94 L251.081,49.94 L251.081,48.248 L249.047,48.248 L249.047,47.474 C249.047,46.406 249.533,45.872 250.505,45.872 C250.757,45.872 251.051,45.914 251.387,45.998 L251.387,45.998 L251.387,44.216 C251.003,44.072 250.529,44 249.965,44 C248.945,44 248.162,44.291 247.616,44.873 C247.07,45.455 246.797,46.286 246.797,47.366 L246.797,47.366 L246.797,48.248 L245.069,48.248 L245.069,49.94 L246.797,49.94 L246.797,57.338 L249.047,57.338 Z M256.6535,57.482 C257.5655,57.482 258.3695,57.29 259.0655,56.906 C259.7615,56.522 260.2985,55.973 260.6765,55.259 C261.0545,54.545 261.2435,53.708 261.2435,52.748 C261.2435,51.788 261.0545,50.951 260.6765,50.237 C260.2985,49.523 259.7615,48.974 259.0655,48.59 C258.3695,48.206 257.5655,48.014 256.6535,48.014 C255.7295,48.014 254.9165,48.206 254.2145,48.59 C253.5125,48.974 252.9725,49.523 252.5945,50.237 C252.2165,50.951 252.0275,51.788 252.0275,52.748 C252.0275,53.708 252.2165,54.545 252.5945,55.259 C252.9725,55.973 253.5125,56.522 254.2145,56.906 C254.9165,57.29 255.7295,57.482 256.6535,57.482 Z M256.6355,55.718 C255.8795,55.718 255.3005,55.469 254.8985,54.971 C254.4965,54.473 254.2955,53.732 254.2955,52.748 C254.2955,51.776 254.4995,51.035 254.9075,50.525 C255.3155,50.015 255.8975,49.76 256.6535,49.76 C257.3975,49.76 257.9735,50.015 258.3815,50.525 C258.7895,51.035 258.9935,51.776 258.9935,52.748 C258.9935,53.732 258.7925,54.473 258.3905,54.971 C257.9885,55.469 257.4035,55.718 256.6355,55.718 Z M265.232,57.338 L265.232,44.09 L263,44.09 L263,57.338 L265.232,57.338 Z M269.8685,46.34 L269.8685,44.126 L267.3665,44.126 L267.3665,46.34 L269.8685,46.34 Z M269.7425,57.338 L269.7425,48.248 L267.5105,48.248 L267.5105,57.338 L269.7425,57.338 Z M276.143,57.482 C277.055,57.482 277.859,57.29 278.555,56.906 C279.251,56.522 279.788,55.973 280.166,55.259 C280.544,54.545 280.733,53.708 280.733,52.748 C280.733,51.788 280.544,50.951 280.166,50.237 C279.788,49.523 279.251,48.974 278.555,48.59 C277.859,48.206 277.055,48.014 276.143,48.014 C275.219,48.014 274.406,48.206 273.704,48.59 C273.002,48.974 272.462,49.523 272.084,50.237 C271.706,50.951 271.517,51.788 271.517,52.748 C271.517,53.708 271.706,54.545 272.084,55.259 C272.462,55.973 273.002,56.522 273.704,56.906 C274.406,57.29 275.219,57.482 276.143,57.482 Z M276.125,55.718 C275.369,55.718 274.79,55.469 274.388,54.971 C273.986,54.473 273.785,53.732 273.785,52.748 C273.785,51.776 273.989,51.035 274.397,50.525 C274.805,50.015 275.387,49.76 276.143,49.76 C276.887,49.76 277.463,50.015 277.871,50.525 C278.279,51.035 278.483,51.776 278.483,52.748 C278.483,53.732 278.282,54.473 277.88,54.971 C277.478,55.469 276.893,55.718 276.125,55.718 Z" id="WiseSaverPortfolio" fill="#FFFFFF" fill-rule="nonzero"></path>
                <g id="Stacked-Group" stroke-width="1" fill="none" fill-rule="evenodd" transform="translate(120.000000, 114.000000)"></g>
            </g>
        </g>
        <g id="icon/circle/tick/ON" mask="url(#mask-2)">
            <g transform="translate(70.000000, 109.000000)">
                <circle id="Oval" fill="#00A7A7" cx="14.5" cy="14.5" r="14.5"></circle>
                <g id="Group" stroke-width="1" fill="none" transform="translate(6.525000, 8.700000)">
                    <g id="Group-28" transform="translate(0.241667, 0.161111)" fill="#FFFFFF">
                        <polygon id="Shape" points="5.18085391 9.65945265 1.65771348 6.02363182 0.483333333 7.2355721 5.18085391 12.0833332 15.2469694 1.69527369 14.0725893 0.483333414"></polygon>
                    </g>
                </g>
            </g>
        </g>
        <g id="Image/wisesaver_family" mask="url(#mask-2)">
            <g transform="translate(39.000000, 146.000000)" id="Group-155">
                <g>
                    <path d="M54.932578,60.0742044 C52.7535678,60.0742044 50.702331,58.7700389 49.8833799,56.6552896 C46.0621796,46.7786116 54.5458273,33.2761687 62.0638844,28.3184901 C64.5421763,26.6889139 67.894302,27.3313268 69.5596455,29.758874 C71.223274,32.1864212 70.5655405,35.4758443 68.0915363,37.1087839 C63.5139853,40.1249293 58.4570693,48.9597884 59.9817762,52.8991922 C61.0382661,55.6336513 59.6353299,58.6909986 56.8474659,59.7277723 C56.2171736,59.9615298 55.5688731,60.0742044 54.932578,60.0742044" id="Fill-60" fill="#FAB08A"></path>
                    <path d="M69.5593025,29.7591262 C67.8939589,27.3307382 64.5418333,26.6891661 62.064399,28.3187423 C59.5037832,30.0080192 56.8308296,32.6886636 54.570353,35.8788659 C55.281254,38.9126692 56.8454078,41.2359505 59.7867715,41.6773991 C61.3766515,41.915361 62.9982605,41.400758 64.5881405,40.4110721 C65.7080883,39.0480468 66.9146477,37.8834632 68.0920508,37.1081953 C70.5651974,35.4760966 71.222931,32.1866734 69.5593025,29.7591262" id="Fill-62" fill="#F49E8E"></path>
                    <path d="M59.7071918,17.4452312 C57.5916395,21.0979036 53.1881693,39.0299685 61.9084981,40.77306 C70.630542,42.5169924 81.4672807,21.5132857 81.4672807,21.5132857 C81.4672807,21.5132857 63.4340626,8.8104955 61.5706272,13.1274429 L59.7071918,17.4452312 Z" id="Fill-64" fill="#FAB08A"></path>
                    <g id="Group-68" transform="translate(54.940353, 0.000000)">
                        <mask id="mask-5" fill="white">
                            <use xlink:href="#path-4"></use>
                        </mask>
                        <g id="Clip-67"></g>
                        <path d="M3.42864682,24.2902921 C3.7759507,23.6470383 4.90104377,14.9837135 10.3018335,14.2614194 C15.7017658,13.5391254 19.575276,17.1228476 22.2199307,21.0992489 C25.8473268,26.5547135 37.3838185,23.2459507 39.5113764,17.5500017 C41.6380767,11.8548936 39.1837959,9.76873339 36.0752118,10.4901866 C36.5657249,8.16354199 36.1566781,-0.339179585 26.33784,2.46843388 C24.5387201,-0.0196548426 8.99151172,-3.95149089 8.09195179,10.089099 C-5.21450339,10.1084386 1.90737006,28.4634534 1.90737006,28.4634534 L3.42864682,24.2902921 Z" id="Fill-66" fill="#DC6D08" mask="url(#mask-5)"></path>
                    </g>
                    <path d="M95.2348354,13.5578764 C95.1190674,10.9049802 93.2393388,9.97415417 91.0157364,10.4904389 C91.5062495,8.16379424 91.0963452,-0.338927329 81.2783646,2.46868613 C79.7047778,0.292554465 67.6160301,-2.98761927 64.0066423,5.6168457 C64.0057848,5.63282194 64.0032122,5.64711647 64.0023546,5.6630927 C63.9972094,5.6630927 63.9929217,5.66393356 63.9877764,5.66393356 C63.48097,6.88821784 63.1439566,8.35046396 63.0324764,10.0893512 C59.1469606,10.0952372 57.0108273,11.669317 55.923466,13.8891731 C55.7793992,18.7804242 57.8169153,24.038288 57.8169153,24.038288 L59.3381921,19.8642858 C59.685496,19.2218729 60.8105891,10.5585481 66.2113788,9.83625401 C71.611311,9.11395992 75.4848213,12.6968413 78.129476,16.6740835 C81.6634002,21.9891253 92.7016609,18.9839111 95.2348354,13.5578764" id="Fill-69" fill="#FF7900"></path>
                    <path d="M60.3269362,21.1338081 C60.2008778,23.446999 59.3030329,25.2792212 58.3228642,25.2270882 C57.3418379,25.1766369 56.6498028,23.2603293 56.7750037,20.9479792 C56.9019197,18.6356291 57.7997645,16.8034069 58.7790757,16.8538582 C59.7592445,16.9051503 60.4521372,18.8214579 60.3269362,21.1338081" id="Fill-71" fill="#FAB08A"></path>
                    <path d="M44.9502069,44.3460193 C39.9730421,41.3778026 0.488449588,58.9684806 0.275779557,94.6493041 C0.0742575505,128.587036 13.8583628,141.584125 31.5314139,141.584125 L72.7688191,141.584125 L70.4791861,107.646393 L106.152011,123.05169 L108.864412,111.201527 C108.864412,111.201527 92.5788611,96.9364285 88.5038289,88.5119064 C84.4287967,80.0882252 78.7827503,50.8803003 64.1771214,49.4012371 C59.9700279,48.9749238 56.6504888,51.3259532 44.9502069,44.3460193" id="Fill-73" fill="#004472"></path>
                    <path d="M101.271148,104.07293 C93.6990662,105.337575 76.6871787,99.531474 80.1550723,98.0994986 C84.2129537,96.4228346 83.7790383,86.9304271 79.5136321,85.8339528 L70.2993599,85.7540716 C70.2993599,85.7540716 62.5266133,104.099837 62.6809705,104.46729 C62.7838754,104.714502 67.7636128,111.385001 71.0256967,115.744832 L70.4785859,107.646562 L102.594333,121.514776 C103.833479,121.251589 105.244133,120.950563 106.70281,120.641969 L108.864669,111.201695 C108.864669,111.201695 105.401921,108.16621 101.271148,104.07293" id="Fill-75" fill="#1C2C57"></path>
                    <path d="M33.4605369,83.8201901 C33.704936,89.5884526 32.1965223,120.076999 40.6818851,118.254867 C49.1672478,116.432735 55.4332959,97.6169322 62.7661243,103.156482 C70.0989527,108.696032 59.2347727,139.289685 56.5223723,140.89824 C53.8099718,142.507636 24.5232503,144.021174 37.1316676,140.330663 C48.0550179,133.513014 51.3316799,123.632132 51.3316799,123.632132 L50.8051501,119.807085 L49.8892969,118.734154 L42.7279766,121.389573 C42.7279766,121.389573 32.5669798,122.53818 29.4892671,117.200435 C26.4106969,111.863531 27.3222624,94.3939365 27.3222624,94.3939365 L28.5519754,83.821031 C28.5519754,83.821031 33.1586827,76.7057195 33.4605369,83.8201901" id="Fill-77" fill="#1C2C57"></path>
                    <path d="M53.7488292,141.583789 C59.0998816,136.942272 78.8910577,118.901737 44.2652893,134.526496 C4.82271629,152.325706 2.34956963,90.7642195 2.10860076,82.8492553 L1.87449222,82.7870321 C0.878030216,86.488474 0.300905492,90.4413314 0.276036819,94.6498086 C0.0745148126,128.5867 13.8577625,141.583789 31.5308136,141.583789 L53.7488292,141.583789 Z" id="Fill-79" fill="#1C2C57"></path>
                    <path d="M56.4223831,54.2629742 C54.8333606,54.2629742 53.1988885,53.96363 51.5807097,53.3540104 C47.2655661,51.7286385 44.2813254,48.2996335 43.9786136,44.6166904 C43.8268289,42.7617652 45.2357679,41.138075 47.1275021,40.9884029 C49.0183788,40.8328448 50.6760045,42.2210957 50.8295042,44.0760209 C50.9032527,44.9757353 52.1269629,46.3404423 54.0444234,47.0627364 C55.0760446,47.4512112 57.6992608,48.1491205 59.7727936,46.2277678 C61.1525762,44.9521914 63.3264412,45.0127329 64.6299027,46.3648271 C65.9333642,47.7177621 65.8707638,49.8501694 64.4926963,51.1282683 C62.2639486,53.1925663 59.4263473,54.2629742 56.4223831,54.2629742" id="Fill-85" fill="#004472"></path>
                    <g id="piggy-bank" transform="translate(76.421009, 93.266605)">
                        <g id="Group-25" transform="translate(0.865558, 0.070031)">
                            <g id="Path-68">
                                <mask id="mask-7" fill="white">
                                    <use xlink:href="#path-6"></use>
                                </mask>
                                <use id="Mask" fill="#62D7D7" xlink:href="#path-6"></use>
                                <path d="M50.6435364,37.0296672 C49.1207254,40.2058542 45.8941447,42.6456318 42.6325027,44.4488919 C39.589121,46.1314827 35.8548619,47.3657086 27.5699164,47.6174961 C23.1229404,47.752644 17.8118236,47.2432984 13.7175171,46.2043428 C8.04151023,44.7640211 4.80429305,42.3617211 5.09515193,42.7978152 C6.72788312,45.2458223 8.14358748,46.1179106 8.80904776,46.5434267 C12.7499955,49.0633915 16.8996189,48.9606313 18.5661876,48.9606313 C26.3641482,48.9606313 36.4415949,51.1909042 45.2174525,45.1685817 C53.99331,39.1462592 51.5444757,35.1505427 50.6435364,37.0296672 Z" fill="#1DBEBE" mask="url(#mask-7)"></path>
                            </g>
                            <path d="M37.0718381,12.0400094 C32.270307,12.0400094 28.1812256,15.0125861 26.6337487,19.1729253 C25.0862718,15.0125861 20.9976908,12.0400094 16.1961597,12.0400094 C10.0652895,12.0400094 5.09515193,16.8856899 5.09515193,22.8625495 C5.09515193,35.1816215 6.31442163,45.1685817 26.6337487,45.1685817 C45.8248636,45.1685817 48.1723455,35.1816215 48.1723455,22.8625495 C48.1723455,16.8856899 43.202208,12.0400094 37.0718381,12.0400094" id="Fill-4" fill="#FFFFFF" opacity="0.901283482"></path>
                            <path d="M28.9816022,36.2727537 L31.4469678,31.8607017 C31.7221972,31.3684308 31.6409214,30.749237 31.2493199,30.3494893 L27.6208485,26.6384785 C27.1202635,26.1266354 26.2748721,26.1266354 25.7749029,26.6384785 L22.1458157,30.3494893 C21.7542142,30.749237 21.6729384,31.3684308 21.9481678,31.8607017 L24.4135334,36.2727537 C25.3925372,38.0253567 28.0025984,38.0253567 28.9816022,36.2727537" id="Fill-10" fill="#FFCD8C"></path>
                        </g>
                    </g>
                    <path d="M30.9699822,142.11008 C30.3088185,142.11008 29.6347917,142.066355 28.9453292,141.974702 C28.6760615,141.938546 28.4874026,141.696379 28.5242768,141.433192 C28.5611511,141.170004 28.8055501,140.974085 29.0765329,141.021173 C42.370125,142.770992 50.1411565,125.409867 50.8803564,123.673502 L49.7989979,119.253971 C48.2099754,120.199091 43.5912626,122.486216 36.5851571,122.08765 C34.114583,121.947228 32.0633463,120.940725 30.488902,119.09589 C24.6130348,112.207609 26.6874252,95.3568832 27.6838872,87.2586127 C27.8408171,85.9863997 27.9668755,84.9580345 28.0234732,84.2609661 C28.0449117,83.9969377 28.2824504,83.8052229 28.5525757,83.8211991 C28.8227009,83.8413796 29.0242229,84.0734555 29.0027844,84.3391656 C28.9453292,85.0446426 28.8175557,86.0847797 28.6589107,87.3738098 C27.755063,94.7153111 25.6395107,111.909947 31.2426801,118.477862 C32.6353257,120.111642 34.452454,121.001266 36.6417547,121.125713 C44.8904363,121.593228 49.7741292,118.125544 49.8212939,118.090228 C49.9550702,117.993529 50.129151,117.969986 50.2817932,118.024641 C50.4361504,118.080978 50.5527759,118.207947 50.5913653,118.366028 L51.8725307,123.600348 C51.8956843,123.697046 51.888824,123.797108 51.8519497,123.88792 C51.7756286,124.080476 44.3844875,142.109239 30.9699822,142.11008" id="Fill-89" fill="#232374"></path>
                    <path d="M72.5891644,73.5188806 C82.1181539,70.8340319 87.7770634,85.3303649 82.967119,87.5123826 C78.1597472,89.6944002 66.2485103,75.3132643 72.5891644,73.5188806" id="Fill-121" fill="#272727"></path>
                    <path d="M70.020745,104.433404 C70.147661,104.450221 70.2822949,104.465356 70.4177862,104.465356 C72.414998,104.525898 74.079484,102.98293 74.1386543,101.019534 C74.1952519,98.9308515 74.3195953,94.5819516 77.1391883,91.9593262 C78.5910043,90.6063911 78.649317,88.3604685 77.2738222,86.9419468 C75.8923245,85.5175392 73.6061216,85.4578385 72.151733,86.8090918 C67.1685655,91.4522908 66.9730463,98.2564861 66.9018704,100.821093 C66.850418,102.649951 68.2164799,104.190397 70.020745,104.433404" id="Fill-123" fill="#FAB08A"></path>
                    <path d="M71.5657756,92.2796077 C71.0315279,91.05196 70.6584979,89.8360842 70.4655512,88.6874769 C70.958637,88.0374963 71.5151808,87.4026511 72.1514758,86.8090077 C73.6058644,85.4577544 75.8920672,85.5174551 77.2735649,86.9418628 C78.6490598,88.3603844 78.590747,90.606307 77.138931,91.9592421 C75.814031,93.1868898 75.0945546,94.8063757 74.6923681,96.3855006 C73.4283535,95.3689074 72.2998303,93.9789748 71.5657756,92.2796077" id="Fill-125" fill="#F29B8B"></path>
                    <path d="M82.0811082,83.6806082 C84.0397306,88.1976791 82.4850097,93.1519943 79.7906176,94.2879888 C77.095368,95.42062 72.3677475,93.0595003 70.4108402,88.5399069 C68.4565055,84.0245178 68.5345417,79.6966392 72.7056184,77.9375714 C78.7993009,75.3595113 80.1233433,79.160174 82.0811082,83.6806082" id="Fill-127" fill="#FAB08A"></path>
                    <path d="M101.761833,126.212715 C101.52944,126.212715 101.294473,126.131152 101.106672,125.967185 C100.703628,125.611504 100.669326,125.004407 101.031209,124.607523 L104.549697,120.75725 C104.910722,120.359526 105.531581,120.327574 105.937197,120.681573 C106.339384,121.037255 106.373686,121.645193 106.011804,122.040394 L102.494173,125.892349 C102.299511,126.104245 102.031101,126.212715 101.761833,126.212715" id="Fill-129" fill="#FAB08A"></path>
                    <path d="M100.463431,125.051579 C100.463431,124.583223 109.881798,120.764061 110.477788,123.297556 C111.073779,125.831051 109.484757,128.598303 98.3573117,127.974389 C98.3573117,126.337245 100.463431,125.051579 100.463431,125.051579" id="Fill-131" fill="#FAB08A"></path>
                    <path d="M67.5808709,99.8588186 C62.5488236,102.554598 50.1899506,140.297197 51.417091,140.657924 C52.8903455,140.657924 86.3918783,142.7794 85.1647379,139.770822 C83.9375975,136.762245 79.8539899,106.28547 79.8539899,106.28547 L73.8940837,101.761673 L67.5808709,99.8588186 Z" id="Fill-133" fill="#00A7A7"></path>
                    <path d="M100.963806,123.657274 C100.956946,123.657274 100.94837,123.657274 100.94151,123.655592 C95.4206644,123.165374 88.9942563,121.821688 85.1884917,117.545102 C83.1046685,115.203322 83.0497859,112.291442 83.0463557,109.344247 C82.9854703,98.4316362 65.2806902,101.076965 68.690271,112.103932 C71.4652719,121.076691 78.3701876,128.616634 88.554338,129.144691 C92.7777247,129.5668 96.8596173,129.179166 100.963806,128.468644 L100.963806,123.657274 Z" id="Fill-135" fill="#00A7A7"></path>
                    <path d="M78.8356606,102.869919 C76.1970086,101.881074 72.8963354,102.412494 70.6873112,104.22874 C71.8604265,104.698778 73.3062397,104.995599 74.7074608,104.995599 C75.8016825,104.995599 76.8658902,104.816497 77.743154,104.400274 C78.3768764,104.10093 78.7653423,103.508968 78.8356606,102.869919" id="Fill-137" fill="#008F91"></path>
                    <path d="M82.9981619,128.195786 C78.6555771,126.71336 74.5676818,122.577196 73.8867946,121.924693 C73.0309693,127.153127 79.374196,133.323318 84.0332133,134.526581 C83.7116356,132.689313 83.3583289,130.512341 82.9981619,128.195786" id="Fill-139" fill="#008F91"></path>
                    <path d="M72.8052646,103.68126 C71.0884686,103.68126 69.2979242,103.239811 68.0347671,102.573854 C66.2570857,101.636301 65.7485642,100.451537 65.6353689,99.6241361 C65.4904446,98.5705453 66.2442226,97.60104 67.3195783,97.4597764 C68.329761,97.3277623 69.262765,97.9718569 69.4917283,98.9237043 C70.1203055,99.5703214 72.9055968,100.199281 74.1310222,99.619091 C75.1094758,99.1549393 76.2817336,99.5568678 76.7542384,100.514601 C77.2258856,101.471494 76.8168388,102.622624 75.8409578,103.085934 C74.9636939,103.501317 73.8994862,103.68126 72.8052646,103.68126" id="Fill-141" fill="#00A7A7"></path>
                    <path d="M51.4173482,140.658344 C52.4601174,140.658344 69.5577589,141.721185 79.0181452,141.27385 C76.6539062,141.214149 73.6962491,141.138472 69.9702359,141.043456 C54.485628,140.647413 63.8353915,111.582434 68.4343809,100.1157 L67.5811282,99.8592391 C62.5490808,102.555019 50.1902078,140.296777 51.4173482,140.658344" id="Fill-143" fill="#008F91"></path>
                    <path d="M70.4788431,101.451818 C71.9092206,97.9395681 70.3845137,96.1317307 70.4651225,88.6868042 C70.5028543,85.3402029 76.1291772,84.7221748 78.0672186,81.9423096 C82.7999843,75.1389551 74.864305,71.2264587 69.4343589,73.3143007 C63.2386291,75.6939191 63.5250476,85.663932 62.9933725,86.7074325 C62.4608399,87.750933 52.4379071,90.196979 53.3177436,99.8583982 C54.1161138,108.625989 67.7930264,108.044118 70.4788431,101.451818" id="Fill-147" fill="#272727"></path>
                    <path d="M68.8043239,86.1349787 C69.1336194,87.3617855 70.0666234,88.1824596 70.8924349,87.972246 C71.7199614,87.7603506 72.123863,86.5924036 71.7945674,85.369801 C71.4678445,84.1429942 70.5322679,83.3214793 69.7047414,83.5375789 C68.8823601,83.7477925 68.4733133,84.9115353 68.8043239,86.1349787" id="Fill-149" fill="#FAB08A"></path>
                    <path d="M61.1078126,109.813612 C59.813784,102.546106 55.4746294,111.188409 54.9618202,114.019567 C54.566494,116.194857 52.7802373,118.641744 50.8044641,119.807169 C50.8104668,119.82819 50.8241875,119.850052 50.8293327,119.872755 C50.9974107,120.673249 51.3695832,121.66798 51.3747285,122.432317 C51.6354208,122.44493 51.8017836,122.428953 52.1113557,122.433158 C57.6776508,122.51388 62.4009836,117.081118 61.1078126,109.813612" id="Fill-151" fill="#FAB08A"></path>
                    <path d="M63.4895454,87.2475975 C63.4895454,87.2475975 63.1379538,87.1820108 62.5539688,87.0760631 C60.532746,88.3230505 52.5276058,91.1785927 53.3182581,99.8587346 C53.867084,105.894389 60.5198828,107.498739 65.4884722,105.762375 C51.9762073,102.238353 60.9889575,87.9925946 63.4895454,87.2475975" id="Fill-153" fill="#181615"></path>
                    <path d="M105.992651,77.0951901 C105.680228,77.0951901 105.398585,76.9057109 105.279009,76.615048 C103.758296,72.9189684 102.637168,71.7905933 98.9657209,70.2596776 C98.6769952,70.1392993 98.4890511,69.8557659 98.4890511,69.5412468 C98.4890511,69.2267276 98.6772676,68.9431943 98.9657209,68.822816 C102.637441,67.2913518 103.758296,66.1627025 105.279009,62.4668971 C105.398585,62.1762342 105.680228,61.986755 105.992651,61.986755 C106.305074,61.986755 106.586718,62.1762342 106.706294,62.4668971 C108.22728,66.1627025 109.348407,67.2913518 113.019854,68.822816 C113.30858,68.9431943 113.496797,69.2267276 113.496797,69.5412468 C113.496797,69.8557659 113.30858,70.1395735 113.019854,70.2596776 C109.348407,71.7903191 108.22728,72.9189684 106.706294,76.615048 C106.586718,76.9057109 106.305074,77.0951901 105.992651,77.0951901" id="Fill-29" fill="#EFAE64"></path>
                    <path d="M128.135469,69.3402233 C127.921647,69.3402233 127.728889,69.2105435 127.647052,69.0116137 C126.606275,66.4820142 125.838974,65.7097536 123.326233,64.6619938 C123.128629,64.5796068 123,64.3855564 123,64.1702993 C123,63.9550422 123.128815,63.7609918 123.326233,63.6786048 C125.839161,62.6304697 126.606275,61.8580213 127.647052,59.3286096 C127.728889,59.1296797 127.921647,59 128.135469,59 C128.349292,59 128.542049,59.1296797 128.623887,59.3286096 C129.66485,61.8580213 130.432151,62.6304697 132.944892,63.6786048 C133.142496,63.7609918 133.271311,63.9550422 133.271311,64.1702993 C133.271311,64.3855564 133.142496,64.5797945 132.944892,64.6619938 C130.432151,65.7095659 129.66485,66.4820142 128.623887,69.0116137 C128.542049,69.2105435 128.349292,69.3402233 128.135469,69.3402233" id="Fill-29-Copy" fill="#EFAE64"></path>
                </g>
            </g>
        </g>
        <path d="M167.34,173.22 C168.04,173.22 168.73,173.1525 169.41,173.0175 C170.09,172.8825 170.64,172.705 171.06,172.485 L171.06,172.485 L171.06,167.535 L167.28,167.535 L167.28,168.51 L169.935,168.51 L169.935,171.765 C169.115,172.045 168.26,172.185 167.37,172.185 C166.11,172.185 165.15,171.8075 164.49,171.0525 C163.83,170.2975 163.5,169.195 163.5,167.745 C163.5,166.325 163.8225,165.2375 164.4675,164.4825 C165.1125,163.7275 166.04,163.35 167.25,163.35 C167.87,163.35 168.4275,163.4475 168.9225,163.6425 C169.4175,163.8375 169.925,164.155 170.445,164.595 L170.445,164.595 L170.925,163.65 C170.475,163.2 169.9375,162.8625 169.3125,162.6375 C168.6875,162.4125 168,162.3 167.25,162.3 C166.22,162.3 165.3275,162.5175 164.5725,162.9525 C163.8175,163.3875 163.2375,164.0125 162.8325,164.8275 C162.4275,165.6425 162.225,166.615 162.225,167.745 C162.225,168.885 162.4275,169.865 162.8325,170.685 C163.2375,171.505 163.825,172.1325 164.595,172.5675 C165.365,173.0025 166.28,173.22 167.34,173.22 Z M174.645,173.1 L174.645,168.795 C174.645,168.145 174.8225,167.5925 175.1775,167.1375 C175.5325,166.6825 176.075,166.455 176.805,166.455 C177.105,166.455 177.37,166.495 177.6,166.575 L177.6,166.575 L177.63,165.465 C177.42,165.405 177.19,165.375 176.94,165.375 C176.4,165.375 175.92,165.51 175.5,165.78 C175.08,166.05 174.775,166.44 174.585,166.95 L174.585,166.95 L174.465,165.555 L173.31,165.555 C173.39,166.185 173.43,166.89 173.43,167.67 L173.43,167.67 L173.43,173.1 L174.645,173.1 Z M182.04,173.205 C182.58,173.205 183.1075,173.115 183.6225,172.935 C184.1375,172.755 184.56,172.51 184.89,172.2 L184.89,172.2 L184.485,171.315 C183.745,171.905 182.935,172.2 182.055,172.2 C181.225,172.2 180.5925,171.955 180.1575,171.465 C179.7225,170.975 179.5,170.25 179.49,169.29 L179.49,169.29 L185.025,169.29 L185.025,169.065 C185.025,167.915 184.74,167.0125 184.17,166.3575 C183.6,165.7025 182.815,165.375 181.815,165.375 C181.125,165.375 180.51,165.54 179.97,165.87 C179.43,166.2 179.01,166.6625 178.71,167.2575 C178.41,167.8525 178.26,168.535 178.26,169.305 C178.26,170.515 178.595,171.4675 179.265,172.1625 C179.935,172.8575 180.86,173.205 182.04,173.205 Z M183.93,168.495 L179.535,168.495 C179.645,167.805 179.8975,167.27 180.2925,166.89 C180.6875,166.51 181.2,166.32 181.83,166.32 C182.46,166.32 182.9525,166.505 183.3075,166.875 C183.6625,167.245 183.87,167.785 183.93,168.495 L183.93,168.495 Z M189.765,173.205 C190.355,173.205 190.8725,173.0775 191.3175,172.8225 C191.7625,172.5675 192.095,172.205 192.315,171.735 L192.315,171.735 L192.315,173.1 L193.515,173.1 L193.515,165.555 L192.315,165.555 L192.315,166.86 C192.085,166.39 191.75,166.025 191.31,165.765 C190.87,165.505 190.355,165.375 189.765,165.375 C189.105,165.375 188.5225,165.54 188.0175,165.87 C187.5125,166.2 187.12,166.6625 186.84,167.2575 C186.56,167.8525 186.42,168.54 186.42,169.32 C186.42,170.1 186.5575,170.7825 186.8325,171.3675 C187.1075,171.9525 187.4975,172.405 188.0025,172.725 C188.5075,173.045 189.095,173.205 189.765,173.205 Z M190.005,172.2 C189.255,172.2 188.675,171.95 188.265,171.45 C187.855,170.95 187.65,170.24 187.65,169.32 C187.65,168.4 187.8575,167.6825 188.2725,167.1675 C188.6875,166.6525 189.265,166.395 190.005,166.395 C190.745,166.395 191.315,166.645 191.715,167.145 C192.115,167.645 192.315,168.36 192.315,169.29 C192.315,170.22 192.115,170.9375 191.715,171.4425 C191.315,171.9475 190.745,172.2 190.005,172.2 Z M198.57,173.205 C198.96,173.205 199.31,173.155 199.62,173.055 L199.62,173.055 L199.62,172.02 C199.36,172.11 199.09,172.155 198.81,172.155 C198.39,172.155 198.065,172.0425 197.835,171.8175 C197.605,171.5925 197.49,171.2 197.49,170.64 L197.49,170.64 L197.49,166.515 L199.65,166.515 L199.65,165.555 L197.49,165.555 L197.49,163.185 L196.275,163.62 L196.275,165.555 L194.805,165.555 L194.805,166.515 L196.275,166.515 L196.275,170.805 C196.275,171.595 196.4775,172.1925 196.8825,172.5975 C197.2875,173.0025 197.85,173.205 198.57,173.205 Z M206.655,173.1 L206.655,166.515 L208.5,166.515 L208.5,165.555 L206.655,165.555 L206.655,164.55 C206.655,164 206.7675,163.6125 206.9925,163.3875 C207.2175,163.1625 207.53,163.05 207.93,163.05 C208.17,163.05 208.43,163.09 208.71,163.17 L208.71,163.17 L208.71,162.135 C208.38,162.045 208.04,162 207.69,162 C206.98,162 206.4275,162.2025 206.0325,162.6075 C205.6375,163.0125 205.44,163.61 205.44,164.4 L205.44,164.4 L205.44,165.555 L203.97,165.555 L203.97,166.515 L205.44,166.515 L205.44,173.1 L206.655,173.1 Z M213.135,173.205 C213.845,173.205 214.47,173.045 215.01,172.725 C215.55,172.405 215.9675,171.95 216.2625,171.36 C216.5575,170.77 216.705,170.08 216.705,169.29 C216.705,168.5 216.5575,167.81 216.2625,167.22 C215.9675,166.63 215.55,166.175 215.01,165.855 C214.47,165.535 213.845,165.375 213.135,165.375 C212.425,165.375 211.8,165.535 211.26,165.855 C210.72,166.175 210.3025,166.63 210.0075,167.22 C209.7125,167.81 209.565,168.5 209.565,169.29 C209.565,170.08 209.7125,170.77 210.0075,171.36 C210.3025,171.95 210.72,172.405 211.26,172.725 C211.8,173.045 212.425,173.205 213.135,173.205 Z M213.135,172.2 C212.385,172.2 211.8075,171.9525 211.4025,171.4575 C210.9975,170.9625 210.795,170.24 210.795,169.29 C210.795,168.37 211,167.6575 211.41,167.1525 C211.82,166.6475 212.395,166.395 213.135,166.395 C213.865,166.395 214.435,166.6475 214.845,167.1525 C215.255,167.6575 215.46,168.37 215.46,169.29 C215.46,170.24 215.26,170.9625 214.86,171.4575 C214.46,171.9525 213.885,172.2 213.135,172.2 Z M219.81,173.1 L219.81,168.795 C219.81,168.145 219.9875,167.5925 220.3425,167.1375 C220.6975,166.6825 221.24,166.455 221.97,166.455 C222.27,166.455 222.535,166.495 222.765,166.575 L222.765,166.575 L222.795,165.465 C222.585,165.405 222.355,165.375 222.105,165.375 C221.565,165.375 221.085,165.51 220.665,165.78 C220.245,166.05 219.94,166.44 219.75,166.95 L219.75,166.95 L219.63,165.555 L218.475,165.555 C218.555,166.185 218.595,166.89 218.595,167.67 L218.595,167.67 L218.595,173.1 L219.81,173.1 Z M230.49,173.205 C231.4,173.205 232.12,173.01 232.65,172.62 C233.18,172.23 233.445,171.71 233.445,171.06 C233.445,170.52 233.275,170.0825 232.935,169.7475 C232.595,169.4125 232.075,169.165 231.375,169.005 L231.375,169.005 L230.1,168.69 C229.69,168.59 229.3925,168.45 229.2075,168.27 C229.0225,168.09 228.93,167.845 228.93,167.535 C228.93,167.165 229.0775,166.8775 229.3725,166.6725 C229.6675,166.4675 230.085,166.365 230.625,166.365 C231.435,166.365 232.195,166.66 232.905,167.25 L232.905,167.25 L233.31,166.365 C232.99,166.045 232.595,165.8 232.125,165.63 C231.655,165.46 231.155,165.375 230.625,165.375 C229.755,165.375 229.055,165.5825 228.525,165.9975 C227.995,166.4125 227.73,166.95 227.73,167.61 C227.73,168.11 227.9025,168.54 228.2475,168.9 C228.5925,169.26 229.08,169.51 229.71,169.65 L229.71,169.65 L230.985,169.95 C231.445,170.05 231.775,170.19 231.975,170.37 C232.175,170.55 232.275,170.79 232.275,171.09 C232.275,171.46 232.1275,171.7425 231.8325,171.9375 C231.5375,172.1325 231.105,172.23 230.535,172.23 C230.015,172.23 229.545,172.16 229.125,172.02 C228.705,171.88 228.29,171.65 227.88,171.33 L227.88,171.33 L227.475,172.23 C228.215,172.88 229.22,173.205 230.49,173.205 Z M236.595,173.1 L236.595,168.78 C236.595,168.05 236.805,167.47 237.225,167.04 C237.645,166.61 238.205,166.395 238.905,166.395 C239.505,166.395 239.945,166.5575 240.225,166.8825 C240.505,167.2075 240.645,167.72 240.645,168.42 L240.645,168.42 L240.645,173.1 L241.86,173.1 L241.86,168.36 C241.86,166.37 240.955,165.375 239.145,165.375 C238.575,165.375 238.0675,165.495 237.6225,165.735 C237.1775,165.975 236.835,166.325 236.595,166.785 L236.595,166.785 L236.595,162.06 L235.38,162.06 L235.38,173.1 L236.595,173.1 Z M247.275,173.205 C247.985,173.205 248.61,173.045 249.15,172.725 C249.69,172.405 250.1075,171.95 250.4025,171.36 C250.6975,170.77 250.845,170.08 250.845,169.29 C250.845,168.5 250.6975,167.81 250.4025,167.22 C250.1075,166.63 249.69,166.175 249.15,165.855 C248.61,165.535 247.985,165.375 247.275,165.375 C246.565,165.375 245.94,165.535 245.4,165.855 C244.86,166.175 244.4425,166.63 244.1475,167.22 C243.8525,167.81 243.705,168.5 243.705,169.29 C243.705,170.08 243.8525,170.77 244.1475,171.36 C244.4425,171.95 244.86,172.405 245.4,172.725 C245.94,173.045 246.565,173.205 247.275,173.205 Z M247.275,172.2 C246.525,172.2 245.9475,171.9525 245.5425,171.4575 C245.1375,170.9625 244.935,170.24 244.935,169.29 C244.935,168.37 245.14,167.6575 245.55,167.1525 C245.96,166.6475 246.535,166.395 247.275,166.395 C248.005,166.395 248.575,166.6475 248.985,167.1525 C249.395,167.6575 249.6,168.37 249.6,169.29 C249.6,170.24 249.4,170.9625 249,171.4575 C248.6,171.9525 248.025,172.2 247.275,172.2 Z M253.95,173.1 L253.95,168.795 C253.95,168.145 254.1275,167.5925 254.4825,167.1375 C254.8375,166.6825 255.38,166.455 256.11,166.455 C256.41,166.455 256.675,166.495 256.905,166.575 L256.905,166.575 L256.935,165.465 C256.725,165.405 256.495,165.375 256.245,165.375 C255.705,165.375 255.225,165.51 254.805,165.78 C254.385,166.05 254.08,166.44 253.89,166.95 L253.89,166.95 L253.77,165.555 L252.615,165.555 C252.695,166.185 252.735,166.89 252.735,167.67 L252.735,167.67 L252.735,173.1 L253.95,173.1 Z M261.45,173.205 C261.84,173.205 262.19,173.155 262.5,173.055 L262.5,173.055 L262.5,172.02 C262.24,172.11 261.97,172.155 261.69,172.155 C261.27,172.155 260.945,172.0425 260.715,171.8175 C260.485,171.5925 260.37,171.2 260.37,170.64 L260.37,170.64 L260.37,166.515 L262.53,166.515 L262.53,165.555 L260.37,165.555 L260.37,163.185 L259.155,163.62 L259.155,165.555 L257.685,165.555 L257.685,166.515 L259.155,166.515 L259.155,170.805 C259.155,171.595 259.3575,172.1925 259.7625,172.5975 C260.1675,173.0025 260.73,173.205 261.45,173.205 Z M267.33,173.205 C267.87,173.205 268.3975,173.115 268.9125,172.935 C269.4275,172.755 269.85,172.51 270.18,172.2 L270.18,172.2 L269.775,171.315 C269.035,171.905 268.225,172.2 267.345,172.2 C266.515,172.2 265.8825,171.955 265.4475,171.465 C265.0125,170.975 264.79,170.25 264.78,169.29 L264.78,169.29 L270.315,169.29 L270.315,169.065 C270.315,167.915 270.03,167.0125 269.46,166.3575 C268.89,165.7025 268.105,165.375 267.105,165.375 C266.415,165.375 265.8,165.54 265.26,165.87 C264.72,166.2 264.3,166.6625 264,167.2575 C263.7,167.8525 263.55,168.535 263.55,169.305 C263.55,170.515 263.885,171.4675 264.555,172.1625 C265.225,172.8575 266.15,173.205 267.33,173.205 Z M269.22,168.495 L264.825,168.495 C264.935,167.805 265.1875,167.27 265.5825,166.89 C265.9775,166.51 266.49,166.32 267.12,166.32 C267.75,166.32 268.2425,166.505 268.5975,166.875 C268.9525,167.245 269.16,167.785 269.22,168.495 L269.22,168.495 Z M273.375,173.1 L273.375,168.795 C273.375,168.145 273.5525,167.5925 273.9075,167.1375 C274.2625,166.6825 274.805,166.455 275.535,166.455 C275.835,166.455 276.1,166.495 276.33,166.575 L276.33,166.575 L276.36,165.465 C276.15,165.405 275.92,165.375 275.67,165.375 C275.13,165.375 274.65,165.51 274.23,165.78 C273.81,166.05 273.505,166.44 273.315,166.95 L273.315,166.95 L273.195,165.555 L272.04,165.555 C272.12,166.185 272.16,166.89 272.16,167.67 L272.16,167.67 L272.16,173.1 L273.375,173.1 Z M165.015,192.205 C165.925,192.205 166.645,192.01 167.175,191.62 C167.705,191.23 167.97,190.71 167.97,190.06 C167.97,189.52 167.8,189.0825 167.46,188.7475 C167.12,188.4125 166.6,188.165 165.9,188.005 L165.9,188.005 L164.625,187.69 C164.215,187.59 163.9175,187.45 163.7325,187.27 C163.5475,187.09 163.455,186.845 163.455,186.535 C163.455,186.165 163.6025,185.8775 163.8975,185.6725 C164.1925,185.4675 164.61,185.365 165.15,185.365 C165.96,185.365 166.72,185.66 167.43,186.25 L167.43,186.25 L167.835,185.365 C167.515,185.045 167.12,184.8 166.65,184.63 C166.18,184.46 165.68,184.375 165.15,184.375 C164.28,184.375 163.58,184.5825 163.05,184.9975 C162.52,185.4125 162.255,185.95 162.255,186.61 C162.255,187.11 162.4275,187.54 162.7725,187.9 C163.1175,188.26 163.605,188.51 164.235,188.65 L164.235,188.65 L165.51,188.95 C165.97,189.05 166.3,189.19 166.5,189.37 C166.7,189.55 166.8,189.79 166.8,190.09 C166.8,190.46 166.6525,190.7425 166.3575,190.9375 C166.0625,191.1325 165.63,191.23 165.06,191.23 C164.54,191.23 164.07,191.16 163.65,191.02 C163.23,190.88 162.815,190.65 162.405,190.33 L162.405,190.33 L162,191.23 C162.74,191.88 163.745,192.205 165.015,192.205 Z M172.8,192.205 C173.39,192.205 173.9075,192.0775 174.3525,191.8225 C174.7975,191.5675 175.13,191.205 175.35,190.735 L175.35,190.735 L175.35,192.1 L176.55,192.1 L176.55,184.555 L175.35,184.555 L175.35,185.86 C175.12,185.39 174.785,185.025 174.345,184.765 C173.905,184.505 173.39,184.375 172.8,184.375 C172.14,184.375 171.5575,184.54 171.0525,184.87 C170.5475,185.2 170.155,185.6625 169.875,186.2575 C169.595,186.8525 169.455,187.54 169.455,188.32 C169.455,189.1 169.5925,189.7825 169.8675,190.3675 C170.1425,190.9525 170.5325,191.405 171.0375,191.725 C171.5425,192.045 172.13,192.205 172.8,192.205 Z M173.04,191.2 C172.29,191.2 171.71,190.95 171.3,190.45 C170.89,189.95 170.685,189.24 170.685,188.32 C170.685,187.4 170.8925,186.6825 171.3075,186.1675 C171.7225,185.6525 172.3,185.395 173.04,185.395 C173.78,185.395 174.35,185.645 174.75,186.145 C175.15,186.645 175.35,187.36 175.35,188.29 C175.35,189.22 175.15,189.9375 174.75,190.4425 C174.35,190.9475 173.78,191.2 173.04,191.2 Z M182.28,192.1 L185.535,184.57 L184.32,184.57 L181.74,190.78 L179.19,184.57 L177.915,184.57 L181.125,192.1 L182.28,192.1 Z M188.235,182.74 L188.235,181.36 L186.75,181.36 L186.75,182.74 L188.235,182.74 Z M188.085,192.1 L188.085,184.555 L186.87,184.555 L186.87,192.1 L188.085,192.1 Z M191.655,192.1 L191.655,187.78 C191.655,187.05 191.865,186.47 192.285,186.04 C192.705,185.61 193.265,185.395 193.965,185.395 C194.565,185.395 195.005,185.5575 195.285,185.8825 C195.565,186.2075 195.705,186.72 195.705,187.42 L195.705,187.42 L195.705,192.1 L196.92,192.1 L196.92,187.36 C196.92,185.37 196.015,184.375 194.205,184.375 C193.615,184.375 193.09,184.5075 192.63,184.7725 C192.17,185.0375 191.825,185.415 191.595,185.905 L191.595,185.905 L191.475,184.555 L190.32,184.555 C190.4,185.185 190.44,185.89 190.44,186.67 L190.44,186.67 L190.44,192.1 L191.655,192.1 Z M202.53,195.445 C203.65,195.445 204.4975,195.1575 205.0725,194.5825 C205.6475,194.0075 205.935,193.16 205.935,192.04 L205.935,192.04 L205.935,184.555 L204.72,184.555 L204.72,185.86 C204.49,185.39 204.1525,185.025 203.7075,184.765 C203.2625,184.505 202.74,184.375 202.14,184.375 C201.48,184.375 200.8925,184.53 200.3775,184.84 C199.8625,185.15 199.465,185.59 199.185,186.16 C198.905,186.73 198.765,187.385 198.765,188.125 C198.765,188.865 198.905,189.52 199.185,190.09 C199.465,190.66 199.8625,191.1 200.3775,191.41 C200.8925,191.72 201.48,191.875 202.14,191.875 C202.75,191.875 203.2775,191.7425 203.7225,191.4775 C204.1675,191.2125 204.505,190.84 204.735,190.36 L204.735,190.36 L204.735,192.145 C204.735,192.905 204.55,193.4775 204.18,193.8625 C203.81,194.2475 203.26,194.44 202.53,194.44 C202.02,194.44 201.5525,194.38 201.1275,194.26 C200.7025,194.14 200.25,193.945 199.77,193.675 L199.77,193.675 L199.56,194.665 C200.39,195.185 201.38,195.445 202.53,195.445 Z M202.38,190.855 C201.64,190.855 201.0575,190.6125 200.6325,190.1275 C200.2075,189.6425 199.995,188.975 199.995,188.125 C199.995,187.275 200.2075,186.6075 200.6325,186.1225 C201.0575,185.6375 201.64,185.395 202.38,185.395 C203.11,185.395 203.6825,185.6375 204.0975,186.1225 C204.5125,186.6075 204.72,187.275 204.72,188.125 C204.72,188.975 204.5125,189.6425 204.0975,190.1275 C203.6825,190.6125 203.11,190.855 202.38,190.855 Z M210.825,192.205 C211.735,192.205 212.455,192.01 212.985,191.62 C213.515,191.23 213.78,190.71 213.78,190.06 C213.78,189.52 213.61,189.0825 213.27,188.7475 C212.93,188.4125 212.41,188.165 211.71,188.005 L211.71,188.005 L210.435,187.69 C210.025,187.59 209.7275,187.45 209.5425,187.27 C209.3575,187.09 209.265,186.845 209.265,186.535 C209.265,186.165 209.4125,185.8775 209.7075,185.6725 C210.0025,185.4675 210.42,185.365 210.96,185.365 C211.77,185.365 212.53,185.66 213.24,186.25 L213.24,186.25 L213.645,185.365 C213.325,185.045 212.93,184.8 212.46,184.63 C211.99,184.46 211.49,184.375 210.96,184.375 C210.09,184.375 209.39,184.5825 208.86,184.9975 C208.33,185.4125 208.065,185.95 208.065,186.61 C208.065,187.11 208.2375,187.54 208.5825,187.9 C208.9275,188.26 209.415,188.51 210.045,188.65 L210.045,188.65 L211.32,188.95 C211.78,189.05 212.11,189.19 212.31,189.37 C212.51,189.55 212.61,189.79 212.61,190.09 C212.61,190.46 212.4625,190.7425 212.1675,190.9375 C211.8725,191.1325 211.44,191.23 210.87,191.23 C210.35,191.23 209.88,191.16 209.46,191.02 C209.04,190.88 208.625,190.65 208.215,190.33 L208.215,190.33 L207.81,191.23 C208.55,191.88 209.555,192.205 210.825,192.205 Z M220.845,195.34 L220.845,190.705 C221.075,191.185 221.41,191.555 221.85,191.815 C222.29,192.075 222.805,192.205 223.395,192.205 C224.065,192.205 224.6525,192.045 225.1575,191.725 C225.6625,191.405 226.055,190.9525 226.335,190.3675 C226.615,189.7825 226.755,189.1 226.755,188.32 C226.755,187.54 226.615,186.8525 226.335,186.2575 C226.055,185.6625 225.66,185.2 225.15,184.87 C224.64,184.54 224.055,184.375 223.395,184.375 C222.775,184.375 222.2375,184.5175 221.7825,184.8025 C221.3275,185.0875 220.995,185.49 220.785,186.01 L220.785,186.01 L220.665,184.555 L219.51,184.555 C219.59,185.185 219.63,185.89 219.63,186.67 L219.63,186.67 L219.63,195.34 L220.845,195.34 Z M223.17,191.2 C222.42,191.2 221.845,190.9475 221.445,190.4425 C221.045,189.9375 220.845,189.22 220.845,188.29 C220.845,187.36 221.045,186.645 221.445,186.145 C221.845,185.645 222.42,185.395 223.17,185.395 C223.9,185.395 224.47,185.6525 224.88,186.1675 C225.29,186.6825 225.495,187.4 225.495,188.32 C225.495,189.24 225.2925,189.95 224.8875,190.45 C224.4825,190.95 223.91,191.2 223.17,191.2 Z M231.96,192.205 C232.5,192.205 233.0275,192.115 233.5425,191.935 C234.0575,191.755 234.48,191.51 234.81,191.2 L234.81,191.2 L234.405,190.315 C233.665,190.905 232.855,191.2 231.975,191.2 C231.145,191.2 230.5125,190.955 230.0775,190.465 C229.6425,189.975 229.42,189.25 229.41,188.29 L229.41,188.29 L234.945,188.29 L234.945,188.065 C234.945,186.915 234.66,186.0125 234.09,185.3575 C233.52,184.7025 232.735,184.375 231.735,184.375 C231.045,184.375 230.43,184.54 229.89,184.87 C229.35,185.2 228.93,185.6625 228.63,186.2575 C228.33,186.8525 228.18,187.535 228.18,188.305 C228.18,189.515 228.515,190.4675 229.185,191.1625 C229.855,191.8575 230.78,192.205 231.96,192.205 Z M233.85,187.495 L229.455,187.495 C229.565,186.805 229.8175,186.27 230.2125,185.89 C230.6075,185.51 231.12,185.32 231.75,185.32 C232.38,185.32 232.8725,185.505 233.2275,185.875 C233.5825,186.245 233.79,186.785 233.85,187.495 L233.85,187.495 Z M238.005,192.1 L238.005,187.795 C238.005,187.145 238.1825,186.5925 238.5375,186.1375 C238.8925,185.6825 239.435,185.455 240.165,185.455 C240.465,185.455 240.73,185.495 240.96,185.575 L240.96,185.575 L240.99,184.465 C240.78,184.405 240.55,184.375 240.3,184.375 C239.76,184.375 239.28,184.51 238.86,184.78 C238.44,185.05 238.135,185.44 237.945,185.95 L237.945,185.95 L237.825,184.555 L236.67,184.555 C236.75,185.185 236.79,185.89 236.79,186.67 L236.79,186.67 L236.79,192.1 L238.005,192.1 Z M243.585,182.74 L243.585,181.36 L242.1,181.36 L242.1,182.74 L243.585,182.74 Z M243.435,192.1 L243.435,184.555 L242.22,184.555 L242.22,192.1 L243.435,192.1 Z M248.91,192.205 C249.62,192.205 250.245,192.045 250.785,191.725 C251.325,191.405 251.7425,190.95 252.0375,190.36 C252.3325,189.77 252.48,189.08 252.48,188.29 C252.48,187.5 252.3325,186.81 252.0375,186.22 C251.7425,185.63 251.325,185.175 250.785,184.855 C250.245,184.535 249.62,184.375 248.91,184.375 C248.2,184.375 247.575,184.535 247.035,184.855 C246.495,185.175 246.0775,185.63 245.7825,186.22 C245.4875,186.81 245.34,187.5 245.34,188.29 C245.34,189.08 245.4875,189.77 245.7825,190.36 C246.0775,190.95 246.495,191.405 247.035,191.725 C247.575,192.045 248.2,192.205 248.91,192.205 Z M248.91,191.2 C248.16,191.2 247.5825,190.9525 247.1775,190.4575 C246.7725,189.9625 246.57,189.24 246.57,188.29 C246.57,187.37 246.775,186.6575 247.185,186.1525 C247.595,185.6475 248.17,185.395 248.91,185.395 C249.64,185.395 250.21,185.6475 250.62,186.1525 C251.03,186.6575 251.235,187.37 251.235,188.29 C251.235,189.24 251.035,189.9625 250.635,190.4575 C250.235,190.9525 249.66,191.2 248.91,191.2 Z M257.265,192.205 C257.855,192.205 258.3725,192.0775 258.8175,191.8225 C259.2625,191.5675 259.595,191.205 259.815,190.735 L259.815,190.735 L259.815,192.1 L261.015,192.1 L261.015,181.06 L259.8,181.06 L259.8,185.83 C259.58,185.37 259.25,185.0125 258.81,184.7575 C258.37,184.5025 257.855,184.375 257.265,184.375 C256.605,184.375 256.02,184.535 255.51,184.855 C255,185.175 254.6075,185.6275 254.3325,186.2125 C254.0575,186.7975 253.92,187.48 253.92,188.26 C253.92,189.04 254.06,189.7275 254.34,190.3225 C254.62,190.9175 255.0125,191.38 255.5175,191.71 C256.0225,192.04 256.605,192.205 257.265,192.205 Z M257.505,191.2 C256.765,191.2 256.1875,190.9425 255.7725,190.4275 C255.3575,189.9125 255.15,189.19 255.15,188.26 C255.15,187.35 255.3575,186.645 255.7725,186.145 C256.1875,185.645 256.765,185.395 257.505,185.395 C258.245,185.395 258.815,185.6475 259.215,186.1525 C259.615,186.6575 259.815,187.37 259.815,188.29 C259.815,189.22 259.615,189.9375 259.215,190.4425 C258.815,190.9475 258.245,191.2 257.505,191.2 Z" id="Greatforshortersavingsperiod" fill="#FFFFFF" fill-rule="nonzero" mask="url(#mask-2)"></path>
    </g>
</svg>