<svg xmlns="http://www.w3.org/2000/svg" xmlns:xlink="http://www.w3.org/1999/xlink" width="96" height="95" viewBox="0 0 96 95">
    <defs>
        <circle id="a" cx="45" cy="45" r="45"/>
        <path id="c" d="M11.459 5.818c0 3.21-2.565 5.657-5.728 5.657S.004 9.028.004 5.818 2.568.005 5.731.005c3.163 0 5.728 2.602 5.728 5.813"/>
        <path id="e" d="M11.459 5.818c0 3.21-2.565 5.657-5.728 5.657S.004 9.028.004 5.818 2.568.005 5.731.005c3.163 0 5.728 2.602 5.728 5.813"/>
        <path id="g" d="M11.459 5.818c0 3.21-2.565 5.657-5.728 5.657S.004 9.028.004 5.818 2.568.005 5.731.005c3.163 0 5.728 2.602 5.728 5.813"/>
        <path id="i" d="M11.459 5.818c0 3.21-2.565 5.657-5.728 5.657S.004 9.028.004 5.818 2.568.005 5.731.005c3.163 0 5.728 2.602 5.728 5.813"/>
        <path id="k" d="M11.459 5.818c0 3.21-2.565 5.657-5.728 5.657S.004 9.028.004 5.818 2.568.005 5.731.005c3.163 0 5.728 2.602 5.728 5.813"/>
        <path id="m" d="M11.459 5.818c0 3.21-2.565 5.657-5.728 5.657S.004 9.028.004 5.818 2.568.005 5.731.005c3.163 0 5.728 2.602 5.728 5.813"/>
        <path id="o" d="M11.459 5.818c0 3.21-2.565 5.657-5.728 5.657S.004 9.028.004 5.818 2.568.005 5.731.005c3.163 0 5.728 2.602 5.728 5.813"/>
        <path id="q" d="M11.459 5.818c0 3.21-2.565 5.657-5.728 5.657S.004 9.028.004 5.818 2.568.005 5.731.005c3.163 0 5.728 2.602 5.728 5.813"/>
        <path id="s" d="M11.459 5.818c0 3.21-2.565 5.657-5.728 5.657S.004 9.028.004 5.818 2.568.005 5.731.005c3.163 0 5.728 2.602 5.728 5.813"/>
        <path id="u" d="M.74.526c-.195.21-.317.475-.413.744-.702 1.99.043 4.27 1.42 5.875.976 1.139 2.234 1.995 3.551 2.701 1.317.706 2.46 1.543 3.748 2.307-.116-.07 3.043-5.165 2.799-5.885a.194.194 0 0 0-.013-.03c-.196-.335-.952-.699-1.264-.969a27.377 27.377 0 0 1-1.171-1.088c-.767-.743-1.513-1.51-2.34-2.188-.941-.77-2.032-1.416-3.218-1.73C3.376.143 2.78.016 2.21.016c-.571 0-1.114.127-1.47.511"/>
        <path id="w" d="M.068 4.384c-.041.378-.035.752.007 1.121.159 1.378.826 2.705 1.477 3.96l1.999 3.84c1.175-.817 2.41-1.552 3.623-2.317.912-.612 1.784-1.295 2.695-1.905C9.34 8.03 8.59 6.95 8.078 5.985A42.57 42.57 0 0 0 5.009 1.04C4.543.393 4.031.13 3.52.13 1.88.129.236 2.83.068 4.384"/>
        <path id="y" d="M.098 5.829c-.02.107-.048.213-.066.32.733-.386 2.355-1.19 3.112-.441-.553-.547-.309-1.748-.092-2.38.054-.154.855-1.779.958-1.722-.352-.193-.9-.435-1.213-.668a10.71 10.71 0 0 1-1.03-.875C1.255 2.005.743 3.929.098 5.829"/>
        <path id="A" d="M2.546.253c-.412.86-1.214 1.673-2.21 1.565-.36-.04-.408.537-.05.576 1.259.137 2.263-.851 2.786-1.942.102-.214-.075-.37-.258-.37a.29.29 0 0 0-.268.17"/>
        <path id="C" d="M2.451 14.234c-4.633 7.859-1.225 24.515.227 25.358 6.386 3.707 16.334-1.597 22.332-11.77 5.997-10.174 5.973-21.155-.136-25.296-2.604-1.766-4.96-2.5-7.097-2.5-7.427 0-12.185 8.88-15.326 14.208"/>
        <path id="E" d="M2.102 1.901L.695 1.084.096 2.101l1.465.85c-.671 1.632-.326 3.127.876 3.825 1.26.732 2.535.087 4.1-1.244 1.148-.96 2.018-1.313 2.815-.85.826.48.958 1.61.272 2.773-.54.916-1.319 1.608-2.013 1.996l.738.956c.7-.363 1.542-1.193 2.115-2.134l1.463.85.609-1.032-1.507-.875c.747-1.83.205-3.352-.94-4.017-1.29-.748-2.545-.336-4.147.998C4.58 5.319 3.847 5.705 3.093 5.268c-.58-.337-.967-1.198-.224-2.46a5.076 5.076 0 0 1 1.71-1.776L3.862.068C3.338.4 2.71.936 2.102 1.9"/>
        <path id="G" d="M17.026 8.342c0 4.604-3.81 8.112-8.51 8.112-4.7 0-8.51-3.508-8.51-8.112 0-4.603 3.81-8.335 8.51-8.335 4.7 0 8.51 3.732 8.51 8.335"/>
    </defs>
    <g fill="none" fill-rule="evenodd" transform="translate(3 3)">
        <mask id="b" fill="#fff">
            <use xlink:href="#a"/>
        </mask>
        <use fill="#00A7A7" xlink:href="#a"/>
        <g mask="url(#b)">
            <path fill="#F1A944" d="M55.588 75.892c1.545 3.663-.067 7.93-3.602 9.532-3.534 1.602-7.652-.07-9.198-3.732-1.546-3.663.067-7.93 3.602-9.532 3.534-1.601 7.652.07 9.198 3.732"/>
            <path fill="#EB8B30" d="M54.65 76.453c1.246 2.954-.054 6.396-2.905 7.687-2.85 1.292-6.171-.056-7.418-3.01-1.246-2.953.054-6.395 2.905-7.686 2.85-1.292 6.171.056 7.418 3.01"/>
            <path fill="#F1A944" d="M50.958 79.387a.553.553 0 0 0-.339-.325c-.156-.053-.368-.05-.635.013l.53 1.25c.191-.11.334-.243.43-.4.095-.157.1-.336.014-.538m-2.32-1.62l-.484-1.143c-.17.097-.3.22-.392.369-.09.15-.1.31-.026.483.06.14.146.238.26.295.115.057.329.056.642-.004m3.917.673c.116.274.17.557.163.851-.007.295-.07.577-.188.848-.12.275-.298.538-.534.79a3.22 3.22 0 0 1-.882.65l.75 1.768-.777.35-.74-1.744c-.342.15-.74.278-1.193.381-.453.103-.828.146-1.125.129l-.601-1.417.151-.068c.195.033.518.026.968-.02a4.66 4.66 0 0 0 1.275-.31l-.574-1.352-.467.083c-.27.048-.534.077-.793.089a2.218 2.218 0 0 1-.75-.093 1.69 1.69 0 0 1-.641-.36c-.19-.168-.357-.42-.499-.755-.207-.488-.185-.993.065-1.515.251-.523.715-.979 1.393-1.37l-.483-1.137.777-.35.48 1.128a6.46 6.46 0 0 1 1.033-.312c.4-.09.717-.134.95-.134l.597 1.406-.151.068a3.374 3.374 0 0 0-.901-.007 4.268 4.268 0 0 0-1.01.269l.527 1.24.456-.095c.72-.15 1.297-.155 1.733-.015.435.139.765.474.99 1.004M82.484 72.934c1.545 3.663-.068 7.93-3.602 9.532-3.535 1.601-7.653-.07-9.199-3.732-1.545-3.663.067-7.93 3.602-9.532 3.534-1.602 7.653.069 9.199 3.732"/>
            <path fill="#EB8B30" d="M81.094 73.34c1.247 2.953-.053 6.395-2.904 7.686-2.85 1.292-6.172-.055-7.418-3.01-1.247-2.953.054-6.395 2.905-7.686 2.85-1.292 6.17.055 7.417 3.01"/>
            <path fill="#F1A944" d="M77.403 76.584a.552.552 0 0 0-.34-.325c-.155-.053-.367-.049-.634.013l.53 1.25c.191-.109.334-.242.43-.4.094-.157.099-.336.014-.538m-2.32-1.62l-.485-1.142c-.17.096-.3.219-.391.368-.091.15-.1.31-.026.483.059.14.146.239.26.296.115.057.329.055.642-.005m3.916.674c.116.273.17.557.164.85-.007.295-.07.577-.188.847-.12.276-.299.54-.534.79-.236.252-.53.47-.882.651l.75 1.768-.777.35-.74-1.743c-.343.15-.74.277-1.193.38-.453.103-.828.146-1.126.13l-.6-1.417.151-.068c.195.032.517.025.968-.02.451-.047.876-.15 1.275-.31l-.574-1.353-.468.083a6.18 6.18 0 0 1-.792.089 2.21 2.21 0 0 1-.75-.092 1.697 1.697 0 0 1-.642-.36c-.19-.168-.356-.42-.498-.755-.207-.489-.186-.994.065-1.516s.715-.979 1.393-1.37l-.483-1.137.777-.35.479 1.128a6.503 6.503 0 0 1 1.033-.312c.4-.089.718-.134.951-.134l.597 1.406-.152.069a3.383 3.383 0 0 0-.9-.008 4.281 4.281 0 0 0-1.01.27l.527 1.24.456-.096c.72-.15 1.297-.154 1.732-.015.436.14.766.474.991 1.005"/>
            <path fill="#F1A944" d="M82.634 79.473c1.545 3.663-.067 7.93-3.602 9.532-3.534 1.602-7.653-.07-9.198-3.732-1.546-3.662.067-7.93 3.601-9.532 3.535-1.601 7.653.07 9.199 3.732"/>
            <path fill="#EB8B30" d="M81.245 80.19c1.246 2.954-.054 6.396-2.905 7.687-2.85 1.292-6.172-.056-7.418-3.01-1.246-2.953.054-6.395 2.905-7.687 2.85-1.291 6.171.056 7.418 3.01"/>
            <path fill="#F1A944" d="M77.553 82.812a.553.553 0 0 0-.339-.325c-.156-.053-.368-.049-.635.013l.53 1.25c.191-.109.334-.242.43-.4.094-.156.1-.336.014-.538m-2.32-1.62l-.484-1.142c-.17.096-.301.218-.392.368-.09.15-.1.31-.026.483.06.14.146.239.26.296.115.057.33.055.643-.004m3.916.673c.116.273.17.557.163.85a2.22 2.22 0 0 1-.188.848c-.12.275-.298.538-.534.79-.236.252-.53.468-.881.65l.75 1.768-.778.35-.74-1.743c-.342.15-.74.277-1.193.38-.453.104-.828.146-1.125.13l-.601-1.417.151-.068c.195.032.517.026.968-.02.451-.047.876-.15 1.275-.31l-.574-1.353-.468.083a6.13 6.13 0 0 1-.792.09 2.217 2.217 0 0 1-.75-.093 1.697 1.697 0 0 1-.641-.36c-.19-.168-.356-.42-.499-.755-.207-.489-.185-.994.066-1.516.25-.522.715-.978 1.392-1.37l-.483-1.137.777-.35.479 1.128a6.503 6.503 0 0 1 1.034-.312c.4-.089.717-.134.95-.134l.597 1.406-.151.068a3.395 3.395 0 0 0-.901-.007 4.268 4.268 0 0 0-1.01.27l.527 1.24.456-.096c.72-.15 1.297-.154 1.733-.015.435.14.766.474.99 1.005M62.5 81.497c1.545 3.663-.067 7.93-3.602 9.532-3.534 1.602-7.653-.069-9.198-3.732-1.546-3.663.066-7.93 3.601-9.532 3.535-1.601 7.653.07 9.199 3.732"/>
            <path fill="#EB8B30" d="M60.96 82.214c1.247 2.954-.054 6.396-2.904 7.687-2.85 1.292-6.172-.056-7.418-3.01-1.247-2.953.054-6.395 2.904-7.686 2.85-1.292 6.172.056 7.418 3.01"/>
            <path fill="#F1A944" d="M57.419 84.992a.554.554 0 0 0-.338-.325c-.157-.054-.369-.05-.636.013l.53 1.25c.191-.11.334-.242.43-.4.095-.157.1-.337.014-.538m-2.32-1.62l-.484-1.142c-.17.096-.301.218-.392.368-.09.15-.1.31-.026.483.06.14.146.238.26.295.115.058.33.056.643-.004m3.916.673c.116.274.17.558.163.851-.007.294-.07.577-.188.847-.12.276-.298.54-.534.79a3.21 3.21 0 0 1-.882.65l.75 1.769-.777.35-.74-1.744a6.64 6.64 0 0 1-1.193.38c-.453.104-.828.147-1.125.13l-.602-1.416.152-.069c.195.033.517.026.969-.02.45-.046.875-.15 1.274-.31l-.574-1.352-.468.083a6.13 6.13 0 0 1-.792.089 2.222 2.222 0 0 1-.75-.092 1.692 1.692 0 0 1-.642-.36c-.19-.169-.356-.42-.498-.756-.207-.488-.185-.993.065-1.515.251-.523.715-.979 1.393-1.37l-.483-1.137.777-.35.479 1.128a6.425 6.425 0 0 1 1.034-.312c.4-.09.717-.134.95-.134l.597 1.406-.152.068a3.383 3.383 0 0 0-.9-.007 4.276 4.276 0 0 0-1.01.269l.527 1.24.456-.095c.72-.15 1.297-.155 1.733-.016.435.14.765.475.99 1.005"/>
            <path fill="#F1A944" d="M62.8 74.18c1.546 3.662-.067 7.93-3.601 9.531-3.535 1.602-7.653-.07-9.199-3.732-1.545-3.663.067-7.93 3.602-9.532 3.534-1.601 7.653.07 9.198 3.732"/>
            <path fill="#EB8B30" d="M61.561 74.896c1.247 2.954-.053 6.396-2.904 7.687-2.85 1.292-6.172-.055-7.418-3.01-1.246-2.953.054-6.395 2.904-7.687 2.851-1.29 6.172.057 7.418 3.01"/>
            <path fill="#F1A944" d="M57.87 77.518a.554.554 0 0 0-.339-.325c-.156-.053-.368-.049-.635.013l.53 1.25c.191-.109.334-.242.43-.4.094-.156.099-.336.013-.538m-2.319-1.62l-.485-1.142c-.17.096-.3.219-.391.368-.09.15-.1.31-.026.483.059.14.146.239.26.296.115.057.33.055.642-.004m3.917.673c.115.273.17.557.163.85-.007.295-.07.577-.188.848-.12.275-.299.538-.534.79-.236.252-.53.469-.882.65l.75 1.768-.777.35-.74-1.743a6.64 6.64 0 0 1-1.193.38c-.453.104-.828.147-1.126.13l-.6-1.417.151-.068c.195.033.517.026.968-.02.451-.047.876-.15 1.275-.31l-.575-1.353-.467.083a6.13 6.13 0 0 1-.792.09 2.217 2.217 0 0 1-.75-.093 1.69 1.69 0 0 1-.641-.36c-.19-.168-.357-.42-.5-.756-.206-.488-.185-.993.066-1.515.251-.522.715-.979 1.393-1.37l-.483-1.137.777-.35.479 1.128a6.433 6.433 0 0 1 1.033-.311c.401-.09.718-.135.951-.135l.597 1.406-.151.068a3.397 3.397 0 0 0-.901-.007 4.276 4.276 0 0 0-1.01.27l.526 1.24.457-.096c.72-.15 1.297-.154 1.732-.015.436.14.766.474.992 1.005"/>
            <path fill="#F1A944" d="M67.091 84.495c-1.795 3.54-6.018 4.9-9.433 3.04-3.415-1.86-4.728-6.236-2.934-9.775 1.795-3.539 6.019-4.9 9.434-3.04 3.415 1.86 4.728 6.236 2.933 9.775"/>
            <path fill="#EB8B30" d="M66.195 83.688c-1.448 2.853-4.854 3.951-7.608 2.451-2.754-1.5-3.813-5.03-2.365-7.883 1.447-2.854 4.853-3.952 7.607-2.451 2.754 1.5 3.813 5.029 2.366 7.883"/>
            <path fill="#F1A944" d="M61.662 82.844a.574.574 0 0 0 .034-.472c-.056-.158-.191-.325-.404-.5l-.612 1.201c.2.085.39.117.567.095.178-.021.316-.13.415-.324m-.22-2.862l.56-1.1a1.004 1.004 0 0 0-.52-.083.474.474 0 0 0-.38.279.574.574 0 0 0-.062.392c.029.128.163.298.402.512m1.923 3.553a1.956 1.956 0 0 1-.539.66 2.057 2.057 0 0 1-.755.376c-.281.075-.59.096-.926.064a3.127 3.127 0 0 1-1.037-.302l-.866 1.7-.746-.406.854-1.675a6.77 6.77 0 0 1-1.028-.72c-.358-.298-.624-.572-.795-.82l.693-1.362.146.08c.096.175.302.43.616.762.315.332.656.608 1.024.828l.663-1.3-.352-.323a6.34 6.34 0 0 1-.56-.58c-.169-.198-.301-.418-.396-.657a1.798 1.798 0 0 1-.127-.737c.01-.257.096-.546.26-.869.24-.47.633-.766 1.182-.89.549-.123 1.18-.035 1.895.264l.557-1.094.747.405-.553 1.085c.268.157.56.368.876.633.316.266.547.491.692.678l-.69 1.352-.145-.08a3.55 3.55 0 0 0-.553-.725 4.368 4.368 0 0 0-.83-.64l-.607 1.191.355.307c.56.483.922.942 1.087 1.377.166.435.118.908-.142 1.418"/>
            <path fill="#F1A944" d="M76.745 76.3c.249 3.99-2.67 7.435-6.521 7.693-3.85.257-7.174-2.768-7.423-6.758-.249-3.99 2.67-7.434 6.521-7.692 3.85-.258 7.174 2.768 7.423 6.757"/>
            <path fill="#EB8B30" d="M75.245 76.703c.201 3.217-2.154 5.995-5.259 6.203-3.105.208-5.785-2.232-5.986-5.45-.2-3.218 2.154-5.995 5.259-6.203 3.105-.208 5.785 2.232 5.986 5.45"/>
            <path fill="#F1A944" d="M70.736 77.824a.552.552 0 0 0-.21-.414c-.13-.103-.33-.171-.6-.206l.085 1.33c.215-.034.393-.108.534-.22.141-.111.205-.275.191-.49m-1.642-2.282l-.078-1.216a1.03 1.03 0 0 0-.489.204.48.48 0 0 0-.184.435.55.55 0 0 0 .147.36c.089.092.29.164.604.217m3.454 1.96c.019.292-.024.571-.127.84a2.123 2.123 0 0 1-.456.712 2.715 2.715 0 0 1-.763.543c-.304.15-.652.248-1.042.295l.12 1.881-.845.055-.119-1.855c-.371.02-.786.001-1.246-.06-.46-.06-.826-.15-1.099-.267l-.097-1.507.165-.01c.172.096.477.2.916.312.438.113.871.164 1.299.153l-.093-1.44-.466-.084a6.272 6.272 0 0 1-.773-.19 2.268 2.268 0 0 1-.674-.341c-.2-.147-.36-.33-.483-.55-.123-.22-.196-.509-.219-.866-.033-.52.154-.976.562-1.37.408-.393.994-.653 1.759-.78l-.078-1.21.846-.055.077 1.2c.31-.01.667.013 1.073.068.406.056.718.123.937.203l.096 1.496-.165.011a3.462 3.462 0 0 0-.843-.315 4.334 4.334 0 0 0-1.037-.1l.085 1.32.46.07c.725.109 1.269.302 1.631.579.363.277.563.698.6 1.263M54.77 87.142c-1.794 3.539-6.018 4.9-9.433 3.04-3.415-1.86-4.728-6.236-2.933-9.775 1.794-3.539 6.018-4.9 9.433-3.04 3.415 1.86 4.728 6.237 2.933 9.775"/>
            <path fill="#EB8B30" d="M53.573 86.18c-1.447 2.853-4.853 3.95-7.607 2.45-2.754-1.5-3.813-5.029-2.366-7.883 1.448-2.854 4.854-3.951 7.608-2.451 2.754 1.5 3.813 5.03 2.365 7.883"/>
            <path fill="#F1A944" d="M49.04 85.18a.575.575 0 0 0 .035-.472c-.057-.159-.191-.326-.404-.501l-.612 1.201c.2.086.39.117.567.096.177-.022.315-.13.414-.324m-.22-2.863l.56-1.099a1.007 1.007 0 0 0-.52-.084.475.475 0 0 0-.38.28.573.573 0 0 0-.06.391c.027.128.161.298.4.512m1.924 3.553a1.953 1.953 0 0 1-.54.66 2.062 2.062 0 0 1-.754.376c-.282.075-.59.096-.927.064a3.12 3.12 0 0 1-1.036-.302l-.866 1.7-.746-.405.854-1.676a6.715 6.715 0 0 1-1.028-.719c-.358-.299-.624-.572-.795-.82l.693-1.362.146.079c.096.176.302.43.616.762.315.333.656.609 1.024.828l.662-1.3-.352-.323a6.336 6.336 0 0 1-.558-.579c-.17-.2-.302-.418-.397-.658a1.8 1.8 0 0 1-.127-.737c.009-.257.096-.546.26-.868.239-.47.633-.766 1.182-.89.548-.124 1.18-.036 1.895.263l.557-1.093.746.405-.552 1.084c.268.157.56.369.876.634.316.265.546.49.691.677l-.689 1.352-.145-.079a3.557 3.557 0 0 0-.554-.725 4.365 4.365 0 0 0-.829-.642l-.607 1.193.355.306c.56.483.921.942 1.087 1.378.165.435.118.907-.142 1.417M76.407 87.298c-1.795 3.539-6.018 4.9-9.433 3.04-3.415-1.86-4.729-6.237-2.934-9.775 1.795-3.54 6.019-4.9 9.433-3.04 3.415 1.86 4.729 6.236 2.934 9.775"/>
            <path fill="#EB8B30" d="M75.36 86.49c-1.447 2.854-4.853 3.952-7.607 2.452-2.754-1.5-3.813-5.03-2.366-7.884 1.448-2.853 4.854-3.95 7.608-2.45 2.754 1.499 3.813 5.028 2.365 7.882"/>
            <path fill="#F1A944" d="M70.827 85.336a.575.575 0 0 0 .035-.473c-.057-.158-.192-.325-.405-.5l-.612 1.201c.201.085.39.117.567.095.178-.021.316-.129.415-.323m-.22-2.863l.56-1.099a1.002 1.002 0 0 0-.52-.084.474.474 0 0 0-.38.279.572.572 0 0 0-.06.392c.027.127.16.298.4.512m1.924 3.553a1.957 1.957 0 0 1-.54.66 2.067 2.067 0 0 1-.754.376 2.62 2.62 0 0 1-.927.063 3.11 3.11 0 0 1-1.036-.301l-.866 1.7-.746-.405.853-1.676a6.775 6.775 0 0 1-1.027-.719c-.359-.299-.624-.572-.795-.82l.693-1.362.146.079c.096.176.301.43.616.762a4.79 4.79 0 0 0 1.024.828l.662-1.3-.352-.323a6.372 6.372 0 0 1-.559-.579c-.17-.2-.301-.42-.396-.658a1.8 1.8 0 0 1-.127-.737c.009-.257.095-.546.26-.869.239-.47.633-.766 1.181-.89.55-.123 1.18-.035 1.896.264l.557-1.093.746.404-.552 1.085c.268.157.56.369.876.633.315.266.546.492.691.678l-.689 1.352-.145-.079a3.541 3.541 0 0 0-.554-.726 4.334 4.334 0 0 0-.829-.64l-.607 1.192.355.306c.559.483.921.942 1.087 1.377.165.436.118.908-.142 1.418"/>
            <path fill="#F1A944" d="M69.662 83.357c.388 3.978-2.409 7.529-6.248 7.932-3.839.402-7.265-2.496-7.654-6.474-.389-3.978 2.408-7.53 6.247-7.932 3.84-.403 7.266 2.496 7.655 6.474"/>
            <path fill="#EB8B30" d="M68.016 83.186c.313 3.208-1.942 6.073-5.038 6.397-3.096.325-5.86-2.012-6.173-5.22-.313-3.209 1.942-6.072 5.038-6.397 3.096-.325 5.86 2.013 6.173 5.22"/>
            <path fill="#F1A944" d="M63.664 84.942a.549.549 0 0 0-.227-.406c-.134-.098-.338-.16-.613-.184l.134 1.326c.216-.043.393-.122.531-.24.138-.116.197-.282.175-.496m-1.74-2.221l-.122-1.212a1.05 1.05 0 0 0-.486.222.479.479 0 0 0-.17.44.547.547 0 0 0 .161.356c.093.088.299.153.618.194m3.555 1.833c.03.29-.003.571-.098.842-.095.272-.24.515-.434.73a2.73 2.73 0 0 1-.75.57 3.24 3.24 0 0 1-1.04.333l.19 1.876-.85.085-.188-1.849a6.88 6.88 0 0 1-1.26-.014c-.465-.043-.838-.119-1.118-.227l-.152-1.502.166-.017c.177.09.488.184.935.28.446.096.885.13 1.315.105l-.145-1.435-.473-.068a6.327 6.327 0 0 1-.787-.161 2.296 2.296 0 0 1-.693-.317 1.72 1.72 0 0 1-.507-.532c-.132-.215-.215-.501-.252-.857-.052-.518.12-.98.517-1.39.397-.407.98-.689 1.746-.843l-.122-1.207.85-.086.122 1.197a6.663 6.663 0 0 1 1.085.029c.411.04.729.096.953.168l.15 1.491-.165.017a3.504 3.504 0 0 0-.862-.284 4.423 4.423 0 0 0-1.05-.062l.134 1.317.467.052c.734.082 1.29.255 1.666.52.376.263.593.677.65 1.24"/>
            <path fill="#9ACBC8" d="M70.926 90.929c1.3-.13 2.55-.637 3.594-1.468.53.132 1.076.2 1.627.2.932 0 1.88-.194 2.788-.604 3.525-1.589 5.134-5.823 3.592-9.457a7.378 7.378 0 0 0-.326-.673 7.368 7.368 0 0 0 .148-6.08c-.056-.132-4.55-4.306-6.388-4.306-.932 0-1.879.194-2.787.603a6.958 6.958 0 0 0-1.378.824 6.744 6.744 0 0 0-2.558-.32c-2.807.188-5.117 2.063-6.06 4.605-.155-.054-.311-.101-.468-.143-1.176-2.6-3.685-4.143-6.315-4.143-.932 0-1.88.194-2.788.603a6.939 6.939 0 0 0-2.002 1.366 6.767 6.767 0 0 0-4.966.243c-2.994 1.349-4.605 4.604-4.08 7.78a7.436 7.436 0 0 0-.169.312c-1.79 3.51-.48 7.853 2.926 9.698a6.77 6.77 0 0 0 6.462.012 6.95 6.95 0 0 0 1.593.964c-4.486.133-8.223.361-10.661.648a4.518 4.518 0 0 1-1.861-3.677V55.494c0-4.425 3.48-8.011 7.772-8.011h.34V44.46l.04.001H76.27l.04-.001v3.023h.34c4.293 0 7.773 3.586 7.773 8.01v32.423c0 1.55-.764 2.917-1.925 3.721-2.515-.319-6.611-.571-11.572-.708zm6.358-42.384c-.423 0-.816.274-.96.71-.179.546.105 1.138.635 1.324 2.428.847 4.058 3.193 4.058 5.837v11.131c0 .577.454 1.044 1.013 1.044.56 0 1.013-.467 1.013-1.044V56.416c0-3.54-2.183-6.68-5.434-7.815a.986.986 0 0 0-.325-.056m-18.26 42.289c.243-.116.476-.245.699-.386.337.152.689.277 1.05.373-.589.003-1.172.007-1.748.013"/>
            <path fill="#E9C480" d="M42.6 79.804c-.526-3.126 1.089-6.33 4.09-7.658a6.888 6.888 0 0 1 4.977-.239 7.022 7.022 0 0 0-.986 1.18 5.52 5.52 0 0 0-3.437.344c-1.956.867-3.178 2.73-3.338 4.744a7.02 7.02 0 0 0-1.306 1.63"/>
            <path fill="#E3B270" d="M43.854 78.558c.16-2.043 1.379-3.932 3.331-4.81a5.435 5.435 0 0 1 3.43-.35c-.296.453-.54.939-.73 1.446a6.587 6.587 0 0 0-.616.11c-.397.09-.74.192-1.025.31l-.475-1.118-.77.347.478 1.127c-.671.386-1.131.838-1.38 1.355-.033.07-.063.138-.088.207a6.933 6.933 0 0 0-2.155 1.376m5.6-1.812a6.726 6.726 0 0 0-.63-.054l-.065-.152c.264-.102.513-.176.747-.224a7.422 7.422 0 0 0-.052.43"/>
            <path fill="#E9C480" d="M46.258 76.846c.025-.067.055-.134.089-.202.25-.504.714-.944 1.39-1.32l-.482-1.099.777-.338.478 1.089a6.627 6.627 0 0 1 1.033-.3c.236-.051.444-.087.622-.108a6.994 6.994 0 0 0-.383 1.434 4.82 4.82 0 0 0-.753.219l.065.147a7.085 7.085 0 0 0-2.836.478M82.339 79.026a7.173 7.173 0 0 0-.951-1.347 5.957 5.957 0 0 0-.167-4.186c-.916-2.172-2.963-3.467-5.11-3.467a5.385 5.385 0 0 0-2.664.706 6.818 6.818 0 0 0-1.496-.705 6.937 6.937 0 0 1 1.376-.827 6.722 6.722 0 0 1 2.783-.606c1.835 0 3.61.757 4.914 2.104-.063.157-.099.33-.099.511 0 .732.573 1.326 1.278 1.326.036 0 .071-.002.106-.005a7.439 7.439 0 0 1 .03 6.496"/>
            <path fill="#E3B270" d="M81.26 77.469a7.094 7.094 0 0 0-2.159-1.6 1.997 1.997 0 0 0-.159-.625c-.227-.527-.56-.86-1-.998a2.451 2.451 0 0 0-.737-.1c-.3 0-.637.039-1.013.115l-.029.006a7.18 7.18 0 0 0-.594-1.27 3.575 3.575 0 0 1 1.559-.133l.154-.067-.603-1.396c-.236 0-.556.044-.96.133a6.71 6.71 0 0 0-1.012.296 4.823 4.823 0 0 0-.072-.078l-.444-1.029-.469.208a7.19 7.19 0 0 0-.569-.388 5.609 5.609 0 0 1 2.72-.703 5.69 5.69 0 0 1 5.217 3.455 5.809 5.809 0 0 1 .17 4.174"/>
            <path fill="#E9C480" d="M79.164 76.223a6.777 6.777 0 0 0-2.621-.685 7.303 7.303 0 0 0-.252-.914l.028-.006c.368-.077.698-.115.991-.115.273 0 .513.033.72.1.43.138.756.47.979.996.085.202.137.41.155.624m-3.453-2.867a7.159 7.159 0 0 0-.844-1.165c.279-.113.608-.21.99-.297.395-.088.708-.132.938-.133l.59 1.395-.15.067a3.222 3.222 0 0 0-.89-.007c-.199.025-.41.071-.634.14m-.914-1.244a7.091 7.091 0 0 0-.892-.82l.458-.207.434 1.027"/>
            <path fill="#E9C480" d="M76.157 89.769c-.56 0-1.114-.068-1.651-.2a7.103 7.103 0 0 0 1.231-1.254 5.49 5.49 0 0 0 2.685-.472c2.865-1.285 4.173-4.707 2.92-7.645-.856-2.006-2.685-3.267-4.671-3.456a7.491 7.491 0 0 0-.157-1.453c.929.05 1.835.286 2.667.691a7.066 7.066 0 0 1 2.149 1.612 7.204 7.204 0 0 1 1.297 2.03c1.563 3.666-.068 7.936-3.643 9.538a6.897 6.897 0 0 1-2.827.609"/>
            <path fill="#E3B270" d="M76.122 88.368c-.139 0-.277-.006-.414-.016a7.364 7.364 0 0 0 1.254-2.58l.716 1.689.772-.348-.745-1.758c.35-.18.641-.396.876-.647.234-.25.41-.512.53-.786.118-.269.18-.55.187-.842a2.025 2.025 0 0 0-.162-.846c-.224-.527-.552-.86-.985-1-.209-.066-.45-.1-.724-.1-.224 0-.47.023-.736.067a7.287 7.287 0 0 0-.652-1.278 3.46 3.46 0 0 1 .843-.105c.159 0 .315.011.469.033l.15-.068-.592-1.398c-.121 0-.264.012-.43.036a7.402 7.402 0 0 0 .152-1.575c1.963.188 3.77 1.441 4.617 3.436 1.238 2.921-.054 6.324-2.886 7.6-.73.33-1.492.486-2.24.486M77.2 84.05a7.43 7.43 0 0 0-.078-1.222.55.55 0 0 1 .426.346c.086.2.081.38-.013.536-.079.13-.19.243-.335.34"/>
            <path fill="#E9C480" d="M77.757 87.122l-.687-1.71a7.84 7.84 0 0 0 .228-1.741c.14-.098.246-.213.322-.345.09-.158.095-.339.014-.542a.54.54 0 0 0-.41-.35 7.831 7.831 0 0 0-.414-1.648c.256-.045.492-.067.706-.067.263 0 .495.033.695.101.416.14.731.478.946 1.012.11.275.163.56.156.856-.006.296-.066.58-.18.853a2.83 2.83 0 0 1-.509.795 3.087 3.087 0 0 1-.84.655l.715 1.779-.742.352m-1.573-7.63l-.025-.041c.195-.47.346-.965.447-1.478a2.78 2.78 0 0 1 .413-.037l.57 1.415-.146.069a2.991 2.991 0 0 0-.86-.007 3.17 3.17 0 0 0-.4.08M51.817 90.018c.42-.242.82-.533 1.189-.872a5.045 5.045 0 0 0 2.961.979c.72 0 1.453-.16 2.155-.5a6.64 6.64 0 0 0 1.358.876c-.215.145-.439.279-.673.399-1.909.02-3.738.06-5.454.115a6.635 6.635 0 0 1-1.536-.997z"/>
            <path fill="#E3B270" d="M56.063 89.925a5.385 5.385 0 0 1-3.044-.952c.53-.46 1-1.008 1.388-1.638l.189.45c.042.003.085.004.13.004.27 0 .594-.044.976-.132a7.1 7.1 0 0 0 .824-.24 7.2 7.2 0 0 0 .938 1.269l.138.33.127-.059c.175.17.359.331.55.481a5.312 5.312 0 0 1-2.216.487M54.938 86.3c.164-.394.293-.797.386-1.203.15.216.31.424.484.623.039.136.08.27.127.403a4.654 4.654 0 0 1-.997.177"/>
            <path fill="#E9C480" d="M57.7 88.99l-.137-.302c.086.086.174.169.265.25l-.127.052m-2.862-1.122c-.045 0-.088-.001-.13-.004l-.187-.412a6.576 6.576 0 0 0 .528-.947l.167-.014a4.99 4.99 0 0 0 .825-.147c.156.416.354.812.589 1.183a7.54 7.54 0 0 1-.82.22c-.38.08-.704.12-.972.12M50.773 76.846a6.591 6.591 0 0 0-1.36-.338 7.796 7.796 0 0 1 .431-1.948c.189-.52.433-1.018.728-1.481.282-.442.61-.854.982-1.226a6.92 6.92 0 0 1 1.998-1.397 6.61 6.61 0 0 1 2.781-.617c2.625 0 5.128 1.58 6.303 4.237a6.555 6.555 0 0 0-1.71-.23c-1.05-1.615-2.785-2.549-4.592-2.549-.745 0-1.503.16-2.23.495-1.987.918-3.213 2.913-3.33 5.054"/>
            <path fill="#E3B270" d="M54.257 79.337a6.894 6.894 0 0 0-3.341-2.507c.117-2.036 1.332-3.934 3.303-4.808a5.447 5.447 0 0 1 2.21-.47c1.792 0 3.513.888 4.554 2.424h-.014c-1.736 0-3.43.666-4.714 1.881l-.48-1.114c.358-.136.688-.222.99-.259a3.298 3.298 0 0 1 .884.007l.148-.066-.585-1.356c-.23 0-.54.043-.932.13-.393.086-.731.186-1.014.3l-.47-1.088-.762.338.474 1.097c-.665.377-1.12.817-1.366 1.32-.246.504-.267.992-.064 1.463.14.323.303.566.49.729.185.162.395.278.628.347.202.06.41.09.623.09a7.051 7.051 0 0 0-.562 1.542m.918-3.14a.544.544 0 0 1-.235-.04.538.538 0 0 1-.256-.285.48.48 0 0 1 .026-.466c.09-.144.217-.262.384-.355l.475 1.102a2.22 2.22 0 0 1-.394.044"/>
            <path fill="#E9C480" d="M54.787 77.624c-.218 0-.43-.031-.636-.092a1.704 1.704 0 0 1-.642-.351c-.19-.165-.356-.41-.499-.738-.208-.477-.186-.97.065-1.48.252-.51.716-.955 1.394-1.336l-.483-1.11.778-.342.48 1.1a6.563 6.563 0 0 1 1.034-.303c.402-.087.718-.131.952-.132l.598 1.373-.152.067a3.396 3.396 0 0 0-.902-.007 4.368 4.368 0 0 0-1.01.262l.49 1.127a7.05 7.05 0 0 0-1.467 1.962m.281-2.778c-.17.094-.3.214-.392.36a.481.481 0 0 0-.026.472c.06.136.146.232.26.288a.56.56 0 0 0 .24.04c.109 0 .243-.014.403-.044l-.485-1.116"/>
            <path fill="#E9C480" d="M55.851 86.188a7.241 7.241 0 0 1-.49-.634 7.667 7.667 0 0 0-1.14-6.025 7.596 7.596 0 0 1 .613-1.71 7.307 7.307 0 0 1 1.416-1.952 6.838 6.838 0 0 1 4.783-1.98h.015a6.63 6.63 0 0 1 2.189.377 7.607 7.607 0 0 0-.365 1.411 5.324 5.324 0 0 0-1.84-.328c-2.016 0-3.965 1.146-4.968 3.152a6.14 6.14 0 0 0-.41 4.422 7.724 7.724 0 0 0 .197 3.267"/>
            <path fill="#E3B270" d="M55.655 82.762a6.052 6.052 0 0 1 .406-4.364c.99-1.978 2.916-3.11 4.907-3.11.608 0 1.222.106 1.818.325a7.582 7.582 0 0 0-.091 1l-.03.061a6.243 6.243 0 0 0-.882.035c-3.182.338-5.64 2.89-6.128 6.053"/>
            <path fill="#E9C480" d="M62.802 76.725l-.033-.001.034-.069-.001.07M76.141 79.493a7.004 7.004 0 0 0-1.023-1.215c.2-.647.288-1.34.243-2.057-.192-2.993-2.655-5.292-5.583-5.292-.121 0-.244.004-.367.012-2.984.195-5.27 2.716-5.239 5.7a6.873 6.873 0 0 0-1.386-.184l.001-.06a7.11 7.11 0 0 1 .456-2.33c.946-2.497 3.264-4.34 6.079-4.524a6.89 6.89 0 0 1 4.627 1.384 7.077 7.077 0 0 1 2.402 3.275 7.047 7.047 0 0 1 .394 1.929 7.113 7.113 0 0 1-.604 3.362"/>
            <path fill="#E3B270" d="M75 78.714a7.031 7.031 0 0 0-2.498-1.54 1.471 1.471 0 0 0-.504-.743c-.364-.28-.908-.477-1.634-.588l-.46-.07-.086-1.34h.07c.362 0 .685.034.968.102.302.072.584.178.845.32l.165-.011-.096-1.518c-.22-.081-.532-.15-.938-.206a6.927 6.927 0 0 0-1.075-.07l-.078-1.217-.847.056.078 1.228c-.766.128-1.353.392-1.761.792-.409.399-.597.862-.563 1.39.023.361.096.654.219.877.123.223.284.41.484.558a2.261 2.261 0 0 0 .78.38 6.999 6.999 0 0 0-1.845.917 6.944 6.944 0 0 0-2.236-.981c-.03-3.035 2.27-5.599 5.271-5.797.124-.008.247-.012.37-.012 2.945 0 5.423 2.337 5.616 5.382a5.854 5.854 0 0 1-.244 2.091m-5.863-2.991c-.315-.054-.516-.126-.605-.22a.561.561 0 0 1-.148-.366.49.49 0 0 1 .185-.44c.135-.108.298-.177.49-.208l.078 1.234"/>
            <path fill="#E9C480" d="M72.552 77.001a7.105 7.105 0 0 0-2.335-.394c-.738 0-1.469.115-2.166.335a2.316 2.316 0 0 1-.792-.376 1.73 1.73 0 0 1-.49-.554c-.125-.22-.2-.51-.223-.87-.034-.522.157-.981.571-1.377.415-.396 1.011-.657 1.789-.784l-.08-1.218.86-.055.08 1.207c.046-.002.095-.003.145-.003.28 0 .595.024.945.071.413.056.73.124.953.204l.098 1.505-.168.01a3.545 3.545 0 0 0-.858-.317 4.36 4.36 0 0 0-.983-.1h-.07l.086 1.327.468.07c.736.11 1.29.305 1.658.583.242.183.413.429.512.736m-3.495-2.66c-.194.03-.36.098-.497.205a.48.48 0 0 0-.187.437c.01.15.06.27.15.363.09.092.295.164.614.217l-.08-1.223M48.581 91.015a6.76 6.76 0 0 1-3.244-.833c-3.415-1.86-4.728-6.237-2.933-9.775a7.16 7.16 0 0 1 1.476-1.982 6.943 6.943 0 0 1 2.159-1.39 6.799 6.799 0 0 1 3.452-.44 6.728 6.728 0 0 1 2.346.772 7.038 7.038 0 0 1 2.407 2.158 7.466 7.466 0 0 1 .747 7.14 7.48 7.48 0 0 1-.536 1.037 7.112 7.112 0 0 1-1.404 1.642c-.383.33-.798.614-1.235.85a6.823 6.823 0 0 1-3.235.82m.01-13.042c-2.013 0-3.958 1.128-4.96 3.103-1.438 2.836-.386 6.344 2.351 7.835a5.416 5.416 0 0 0 2.6.667c2.013 0 3.959-1.129 4.96-3.103 1.439-2.836.387-6.344-2.35-7.835a5.42 5.42 0 0 0-2.6-.667"/>
            <path fill="#E3B270" d="M48.582 89.302a5.45 5.45 0 0 1-2.616-.672c-2.754-1.5-3.813-5.029-2.366-7.883 1.008-1.987 2.966-3.123 4.992-3.123.883 0 1.78.216 2.616.672 2.754 1.5 3.813 5.03 2.365 7.883-1.007 1.987-2.965 3.123-4.99 3.123M45.58 83.18l-.698 1.376c.173.251.44.528.801.83.361.302.706.543 1.034.726l-.86 1.694.752.41.87-1.719c.358.171.706.272 1.044.305.102.01.201.015.298.015.225 0 .436-.026.635-.079.279-.074.532-.2.76-.38.226-.179.407-.401.542-.667.262-.515.31-.993.143-1.433-.167-.44-.531-.904-1.094-1.392l-.357-.31.61-1.205c.336.207.614.423.835.648.22.225.407.47.557.733l.147.08.693-1.366c-.146-.189-.378-.417-.696-.685a6.596 6.596 0 0 0-.882-.64l.556-1.097-.75-.409-.561 1.106c-.51-.214-.976-.322-1.402-.322-.175 0-.344.019-.506.055-.552.125-.948.425-1.19.9-.164.325-.252.618-.26.878-.01.26.033.508.127.744.096.242.229.464.4.666.17.202.357.396.562.585l.354.326-.666 1.314c-.371-.222-.715-.5-1.031-.837-.317-.336-.524-.592-.62-.77l-.147-.08m2.936 2.147c-.146 0-.3-.034-.46-.103l.615-1.214c.215.177.35.346.407.506.057.16.046.32-.035.477-.1.196-.238.306-.417.327a.899.899 0 0 1-.11.007m.306-3.228c-.24-.216-.375-.388-.404-.517a.581.581 0 0 1 .061-.396.478.478 0 0 1 .383-.282 1.053 1.053 0 0 1 .524.085l-.564 1.11"/>
            <path fill="#E9C480" d="M46.621 88.368l-.746-.405.854-1.676a6.715 6.715 0 0 1-1.028-.719c-.358-.299-.624-.572-.795-.82l.693-1.362.146.079c.096.176.302.43.616.762.315.333.656.609 1.024.828l.662-1.3-.352-.323a6.336 6.336 0 0 1-.558-.579c-.17-.2-.302-.418-.397-.658a1.8 1.8 0 0 1-.127-.737c.009-.257.096-.546.26-.868.239-.47.633-.766 1.182-.89.16-.036.328-.054.502-.054.423 0 .887.106 1.393.317l.557-1.093.746.405-.552 1.084c.268.157.56.369.876.634.316.265.546.49.691.677l-.689 1.352-.145-.079a3.557 3.557 0 0 0-.554-.725 4.365 4.365 0 0 0-.829-.642l-.607 1.193.355.306c.56.483.921.942 1.087 1.378.165.435.118.907-.142 1.417a1.953 1.953 0 0 1-.54.66 2.062 2.062 0 0 1-.754.376 2.453 2.453 0 0 1-.63.078c-.097 0-.195-.005-.297-.014a3.12 3.12 0 0 1-1.036-.302l-.866 1.7m2.05-4.161l-.612 1.201c.16.068.312.102.457.102a.897.897 0 0 0 .11-.006c.177-.022.315-.13.414-.324a.575.575 0 0 0 .035-.472c-.057-.159-.191-.326-.404-.501m.295-3.08a.903.903 0 0 0-.106.007.475.475 0 0 0-.38.28.573.573 0 0 0-.06.391c.027.128.161.298.4.512l.56-1.099a1.05 1.05 0 0 0-.414-.09"/>
            <path fill="#9ACBC8" d="M69.397 91.17a306.511 306.511 0 0 0-4.958-.065 6.726 6.726 0 0 0 2.185-1.025 6.808 6.808 0 0 0 2.773 1.09"/>
            <path fill="#E9C480" d="M70.876 91.17c-.553-.015-1.116-.029-1.69-.041a6.824 6.824 0 0 1-2.822-1.11c.406-.288.779-.618 1.116-.985l.108.06a5.441 5.441 0 0 0 2.609.67c2.02 0 3.971-1.132 4.976-3.111 1.443-2.843.387-6.36-2.359-7.853a5.438 5.438 0 0 0-5.436.119 7.118 7.118 0 0 0-1.136-.96 6.939 6.939 0 0 1 1.84-.927 6.743 6.743 0 0 1 4.42.06 7.014 7.014 0 0 1 2.49 1.557c.39.378.734.799 1.026 1.25l.026.04c.26.407.479.84.654 1.288a7.496 7.496 0 0 1 .272 4.606 7.438 7.438 0 0 1-1.258 2.599c-.36.476-.772.896-1.222 1.255a6.902 6.902 0 0 1-3.614 1.483"/>
            <path fill="#E3B270" d="M70.303 89.613a5.568 5.568 0 0 1-2.756-.732c.155-.167.303-.342.442-.524l.318.17.881-1.717c.362.17.714.272 1.055.305.104.01.204.014.303.014.227 0 .44-.026.64-.079.283-.074.54-.2.77-.38.23-.178.412-.4.549-.667.264-.515.312-.993.144-1.433-.168-.44-.537-.904-1.107-1.392l-.361-.31.618-1.205c.34.207.62.423.844.648.223.226.412.47.564.734l.148.08.701-1.367c-.147-.188-.382-.417-.703-.685a6.714 6.714 0 0 0-.893-.64l.563-1.097-.76-.409-.567 1.106c-.515-.214-.988-.321-1.418-.321-.178 0-.349.018-.512.054-.472.106-.832.336-1.078.692a7.277 7.277 0 0 0-1.244-1.731 5.624 5.624 0 0 1 2.869-.791c.894 0 1.8.215 2.647.671 2.786 1.5 3.857 5.03 2.393 7.883-1.02 1.987-3 3.123-5.05 3.123m-.067-3.974c-.148 0-.303-.034-.466-.102l.623-1.215c.217.177.354.346.412.506.057.16.046.32-.035.478-.101.196-.242.305-.422.327a.982.982 0 0 1-.112.006m-.746-1.25c.018-.25.023-.5.015-.755l.254.231-.269.524m1.056-1.977c-.244-.216-.38-.389-.409-.517a.574.574 0 0 1 .062-.397.482.482 0 0 1 .387-.282 1.073 1.073 0 0 1 .53.085l-.57 1.111"/>
            <path fill="#E9C480" d="M68.209 88.523l-.314-.169a7.281 7.281 0 0 0 1.486-3.925l.267-.518-.252-.229a7.312 7.312 0 0 0-.81-3.143c.245-.351.601-.579 1.069-.684.161-.036.33-.054.506-.054.427 0 .895.106 1.405.318l.562-1.093.753.404-.557 1.085c.27.157.564.369.883.633.319.266.552.492.698.678l-.695 1.352-.147-.079a3.544 3.544 0 0 0-.558-.726 4.367 4.367 0 0 0-.836-.64l-.613 1.192.358.306c.564.483.93.942 1.097 1.377.166.436.119.908-.143 1.418a1.96 1.96 0 0 1-.544.66 2.092 2.092 0 0 1-.762.376c-.198.052-.41.078-.635.078-.097 0-.197-.005-.3-.015a3.158 3.158 0 0 1-1.045-.301l-.873 1.7m2.067-4.161l-.617 1.201c.16.068.315.102.46.102a.974.974 0 0 0 .112-.007c.179-.021.318-.129.418-.323a.57.57 0 0 0 .035-.473c-.057-.158-.193-.325-.408-.5m.298-3.08a.924.924 0 0 0-.107.007.478.478 0 0 0-.384.279.567.567 0 0 0-.06.392c.028.127.163.298.404.512l.565-1.099a1.064 1.064 0 0 0-.418-.09"/>
            <path fill="#E9C480" d="M64.44 91.015a321.896 321.896 0 0 0-3.465-.001 6.76 6.76 0 0 1-1.054-.378 6.945 6.945 0 0 1-1.967-1.343 7.256 7.256 0 0 1-1.815-2.854 7.549 7.549 0 0 1-.326-3.64c.493-3.172 2.978-5.732 6.194-6.071a6.778 6.778 0 0 1 .892-.035h.03c.473.015.937.08 1.386.19a6.834 6.834 0 0 1 2.221.995c.409.279.789.601 1.133.962a7.266 7.266 0 0 1 1.222 1.729 7.48 7.48 0 0 1 .803 3.172 7.429 7.429 0 0 1-1.924 5.24 7.075 7.075 0 0 1-1.112.988 6.81 6.81 0 0 1-2.218 1.046m-1.723-12.88c-.188 0-.378.01-.57.03-3.077.324-5.318 3.184-5.007 6.387.292 3.004 2.725 5.244 5.564 5.244.188 0 .379-.01.57-.03 3.077-.324 5.32-3.184 5.008-6.388-.292-3.004-2.726-5.244-5.565-5.244"/>
            <path fill="#E3B270" d="M62.403 89.613c-2.856 0-5.304-2.242-5.598-5.25-.313-3.209 1.942-6.072 5.038-6.397.193-.02.384-.03.574-.03 2.857 0 5.305 2.242 5.599 5.25.313 3.208-1.942 6.073-5.038 6.397-.193.02-.385.03-.575.03m-.14-2.558l.186 1.904.844-.089-.189-1.93a3.133 3.133 0 0 0 1.033-.343c.299-.167.547-.362.743-.588.193-.22.337-.472.431-.75a2.06 2.06 0 0 0 .098-.868c-.057-.58-.272-1.005-.645-1.277-.373-.271-.925-.45-1.654-.535l-.463-.053-.132-1.356c.093-.004.183-.006.271-.006.281 0 .538.023.77.07.304.062.589.159.855.293l.165-.018-.15-1.536c-.222-.073-.537-.131-.945-.173a7.366 7.366 0 0 0-.74-.04c-.119 0-.23.003-.337.01l-.12-1.232-.845.089.122 1.242c-.76.16-1.339.45-1.733.87-.394.42-.565.897-.513 1.43.037.366.12.66.25.882.131.221.299.404.504.548.208.147.437.256.687.326.25.071.51.127.78.166l.47.07.144 1.477a4.718 4.718 0 0 1-1.305-.108c-.443-.099-.752-.195-.928-.288l-.164.017.15 1.547c.279.111.648.19 1.11.234.26.025.503.038.733.038.181 0 .353-.008.517-.023m.643-1.507l-.133-1.365c.273.025.475.088.608.19.133.1.208.24.226.417.021.22-.037.391-.174.512-.137.12-.313.202-.527.246m-1.025-3.045c-.317-.042-.52-.108-.613-.2a.572.572 0 0 1-.16-.365.503.503 0 0 1 .168-.454c.132-.115.292-.19.483-.229l.122 1.248"/>
            <path fill="#F6BE2A" d="M54.93 84.514c0 3.237-2.597 5.704-5.802 5.704-3.205 0-5.803-2.467-5.803-5.704 0-3.238 2.598-5.862 5.803-5.862s5.803 2.624 5.803 5.862"/>
            <path fill="#EBD60E" d="M48.995 91.307c-4.301 0-7.67-3.395-7.67-7.729 0-4.367 3.44-7.92 7.67-7.92s7.67 3.553 7.67 7.92c0 4.334-3.37 7.729-7.67 7.729"/>
            <path fill="#CE5D00" d="M49.061 76.747c-3.604 0-6.536 2.974-6.536 6.63 0 3.608 2.871 6.433 6.536 6.433 3.666 0 6.537-2.825 6.537-6.432 0-3.657-2.932-6.631-6.537-6.631"/>
            <path fill="#E4AF14" d="M49.061 76.883c-3.604 0-6.536 2.975-6.536 6.631 0 3.607 2.871 6.432 6.536 6.432 3.666 0 6.537-2.825 6.537-6.432 0-3.656-2.932-6.631-6.537-6.631"/>
            <g transform="translate(43.432 77.7)">
                <mask id="d" fill="#fff">
                    <use xlink:href="#c"/>
                </mask>
                <path fill="#EBCD06" d="M.031 10.175L-.93 9.2l11.4-11.57.961.976-11.4 11.57M-.29 11.78L12.017-.713l2.258 2.291L1.968 14.071z" mask="url(#d)"/>
            </g>
            <path fill="#169D97" d="M55.998 90.899V87.36v3.538"/>
            <path fill="#E0A600" d="M49.792 82.708c-.87-.371-1.016-.556-1.016-.83 0-.122.051-.516.704-.516.38-.004.754.1 1.081.302l.215.126c.036.023.08.027.119.012a.141.141 0 0 0 .082-.09l.402-1.095a.16.16 0 0 0-.06-.181l-.158-.094a2.817 2.817 0 0 0-1.119-.382v-.878a.145.145 0 0 0-.141-.147h-1.042a.145.145 0 0 0-.142.147v.963c-.923.267-1.504 1.007-1.504 1.953 0 1.203.946 1.748 1.866 2.122.795.333.903.62.903.881 0 .382-.335.639-.833.639a2.271 2.271 0 0 1-1.241-.382l-.226-.157a.13.13 0 0 0-.123-.02.139.139 0 0 0-.087.093l-.386 1.112a.161.161 0 0 0 .052.17l.132.098c.338.249.852.43 1.375.495v.915c0 .081.063.147.14.148h1.054a.145.145 0 0 0 .142-.148v-.994c.953-.28 1.574-1.07 1.574-2.044 0-1.313-.943-1.878-1.764-2.223l.001.005z"/>
            <path fill="#F6BE2A" d="M55.174 77.809c0 3.237-2.598 5.704-5.803 5.704s-5.803-2.467-5.803-5.704c0-3.238 2.598-5.862 5.803-5.862s5.803 2.624 5.803 5.862"/>
            <path fill="#EBD60E" d="M49.238 84.602c-4.302 0-7.67-3.395-7.67-7.729 0-4.367 3.44-7.92 7.67-7.92s7.67 3.553 7.67 7.92c0 4.334-3.37 7.73-7.67 7.73"/>
            <path fill="#CE5D00" d="M49.304 70.042c-3.604 0-6.536 2.975-6.536 6.63 0 3.608 2.871 6.433 6.536 6.433 3.666 0 6.537-2.825 6.537-6.432 0-3.656-2.932-6.631-6.537-6.631"/>
            <path fill="#E4AF14" d="M49.304 70.178c-3.604 0-6.536 2.975-6.536 6.631 0 3.607 2.871 6.432 6.536 6.432 3.666 0 6.537-2.825 6.537-6.432 0-3.656-2.932-6.631-6.537-6.631"/>
            <g transform="translate(43.675 70.994)">
                <mask id="f" fill="#fff">
                    <use xlink:href="#e"/>
                </mask>
                <path fill="#EBCD06" d="M.031 10.175L-.93 9.2l11.4-11.57.961.976-11.4 11.57M-.29 11.78L12.017-.713l2.258 2.291L1.968 14.071z" mask="url(#f)"/>
            </g>
            <path fill="#169D97" d="M56.241 84.194v-3.538 3.538"/>
            <path fill="#E0A600" d="M50.035 76.003c-.87-.371-1.016-.556-1.016-.83 0-.122.051-.516.704-.516.38-.004.754.1 1.081.303l.215.125c.036.023.08.027.119.012a.141.141 0 0 0 .082-.09l.402-1.095a.16.16 0 0 0-.06-.181l-.158-.094a2.817 2.817 0 0 0-1.119-.382v-.878a.145.145 0 0 0-.141-.147h-1.042a.145.145 0 0 0-.142.147v.963c-.923.268-1.504 1.007-1.504 1.953 0 1.203.946 1.748 1.866 2.122.795.333.903.62.903.881 0 .382-.335.639-.833.639a2.271 2.271 0 0 1-1.241-.382l-.226-.157a.13.13 0 0 0-.123-.02.139.139 0 0 0-.087.093l-.386 1.112a.161.161 0 0 0 .052.17l.132.098c.338.249.852.43 1.375.495v.915c0 .081.063.147.14.148h1.054a.145.145 0 0 0 .142-.148v-.994c.953-.28 1.574-1.07 1.574-2.044 0-1.313-.943-1.878-1.764-2.223l.001.005z"/>
            <path fill="#E9C480" d="M62.497 88.99l-.187-1.849a5.736 5.736 0 0 1-.52.023c-.233 0-.479-.012-.74-.037-.465-.043-.838-.119-1.118-.227l-.152-1.502.166-.017c.177.09.488.184.935.28a4.926 4.926 0 0 0 1.315.105l-.145-1.435-.473-.068a6.327 6.327 0 0 1-.787-.161 2.296 2.296 0 0 1-.693-.317 1.72 1.72 0 0 1-.507-.532c-.132-.215-.215-.501-.252-.857-.052-.518.12-.98.517-1.39.397-.407.98-.689 1.746-.843l-.122-1.207.85-.086.122 1.197c.107-.007.22-.011.339-.011a7.7 7.7 0 0 1 .746.04c.411.04.729.096.953.168l.15 1.491-.165.017a3.504 3.504 0 0 0-.862-.284 4.063 4.063 0 0 0-.776-.068c-.089 0-.18.002-.273.006l.133 1.317.467.052c.734.082 1.29.255 1.666.52.376.263.593.677.65 1.24.03.29-.003.57-.098.841-.095.272-.24.515-.434.73a2.73 2.73 0 0 1-.75.57 3.24 3.24 0 0 1-1.04.333l.19 1.876-.85.085m.326-4.638l.134 1.326c.216-.043.393-.122.531-.24.138-.116.197-.282.175-.496a.549.549 0 0 0-.227-.406c-.134-.098-.338-.16-.613-.184m-1.022-2.843a1.05 1.05 0 0 0-.486.222.479.479 0 0 0-.17.44.547.547 0 0 0 .161.356c.093.088.299.153.618.194l-.123-1.212"/>
            <path fill="#9ACBC8" d="M76.309 42.592l-.04-.001H48.962v-1.024H76.31v1.025m0-2.896l-.04-.001H48.962v-1.65c0-.585.463-1.059 1.034-1.059h25.28c.57 0 1.033.474 1.033 1.059v1.65" opacity=".675"/>
            <path fill="#8CB2B2" d="M80.043 92.38H45.14a4.025 4.025 0 0 1-2.49-.874c2.442-.312 5.956-.451 10.444-.595.852.401 2 .505 2.938.505.932 0 2.083-.06 2.992-.505.053-.026.295-.216.346-.243.577-.007.768.003 1.358 0a6.244 6.244 0 0 0 2.434.202 6.36 6.36 0 0 0 1.023-.201c1.736.01 3.418.034 5.022.071a6.197 6.197 0 0 0 1.68.045c4.965.148 9.064.422 11.581.77a4.017 4.017 0 0 1-2.426.825"/>
            <path fill="#C8AD78" d="M56.213 91.446a8.705 8.705 0 0 1-2.593-.39c1.702-.037 3.516-.063 5.41-.077l-.15.05a8.641 8.641 0 0 1-2.667.417M70.384 91.057a5.8 5.8 0 0 1-.987-.085c.56.014 1.112.03 1.653.046-.221.026-.443.039-.666.039M63.216 91.054a12.79 12.79 0 0 1-3.412-.464 613.224 613.224 0 0 1 6.842.002 13.005 13.005 0 0 1-3.43.462"/>
            <path fill="#B5D9D7" d="M80.929 67.899V56.74c0-2.65-1.7-5.001-4.23-5.85a1.044 1.044 0 0 1-.662-1.328c.15-.436.68-1.018 1.12-1.018.514 0 .679.156.792.194 3.388 1.137 5.091 4.314 5.091 7.862v11.298a1.05 1.05 0 0 1-1.056 1.046A1.05 1.05 0 0 1 80.93 67.9z"/>
            <path fill="#9ACBC8" d="M49.229 41.502c-.48-.022-.867-.434-.867-.935 0-.5.386-.912.867-.934v1.869m27.114 0v-1.869c.48.022.867.434.867.934 0 .501-.387.913-.867.935"/>
            <path fill="#B5D9D7" d="M76.27 41.502H49.001a.96.96 0 0 1-.04-.001v-1.867a.96.96 0 0 1 .04 0H76.31v1.867h-.04"/>
            <path fill="#9ACBC8" d="M49.229 44.46c-.48-.021-.867-.433-.867-.934 0-.501.386-.913.867-.934v1.868m27.114 0v-1.868c.48.021.867.433.867.934 0 .5-.387.913-.867.934"/>
            <path fill="#B5D9D7" d="M76.27 44.46H49.001l-.04-.001v-1.867H76.31v1.867l-.04.001"/>
            <g>
                <path fill="#F6BE2A" d="M76.671 84.514c0 3.237-2.598 5.704-5.803 5.704-3.204 0-5.802-2.467-5.802-5.704 0-3.238 2.598-5.862 5.802-5.862 3.205 0 5.803 2.624 5.803 5.862"/>
                <path fill="#EBD60E" d="M70.735 91.307c-4.301 0-7.67-3.395-7.67-7.729 0-4.367 3.44-7.92 7.67-7.92s7.67 3.553 7.67 7.92c0 4.334-3.369 7.729-7.67 7.729"/>
                <path fill="#CE5D00" d="M70.802 76.747c-3.605 0-6.537 2.974-6.537 6.63 0 3.608 2.871 6.433 6.537 6.433 3.665 0 6.536-2.825 6.536-6.432 0-3.657-2.932-6.631-6.536-6.631"/>
                <path fill="#E4AF14" d="M70.802 76.883c-3.605 0-6.537 2.975-6.537 6.631 0 3.607 2.871 6.432 6.537 6.432 3.665 0 6.536-2.825 6.536-6.432 0-3.656-2.932-6.631-6.536-6.631"/>
                <g transform="translate(65.172 77.7)">
                    <mask id="h" fill="#fff">
                        <use xlink:href="#g"/>
                    </mask>
                    <path fill="#EBCD06" d="M.031 10.175L-.93 9.2l11.4-11.57.961.976-11.4 11.57M-.29 11.78L12.017-.713l2.258 2.291L1.968 14.071z" mask="url(#h)"/>
                </g>
                <path fill="#169D97" d="M77.738 90.899V87.36v3.538"/>
                <path fill="#E0A600" d="M71.533 82.708c-.87-.371-1.017-.556-1.017-.83 0-.122.052-.516.704-.516.38-.004.754.1 1.082.302l.214.126c.036.023.08.027.119.012a.141.141 0 0 0 .083-.09l.401-1.095a.16.16 0 0 0-.06-.181l-.158-.094a2.817 2.817 0 0 0-1.118-.382v-.878a.145.145 0 0 0-.142-.147H70.6a.145.145 0 0 0-.141.147v.963c-.924.267-1.505 1.007-1.505 1.953 0 1.203.946 1.748 1.867 2.122.794.333.902.62.902.881 0 .382-.334.639-.832.639a2.271 2.271 0 0 1-1.242-.382l-.225-.157a.13.13 0 0 0-.124-.02.139.139 0 0 0-.087.093l-.386 1.112a.161.161 0 0 0 .052.17l.132.098c.338.249.853.43 1.376.495v.915c0 .081.062.147.14.148h1.053a.145.145 0 0 0 .142-.148v-.994c.954-.28 1.574-1.07 1.574-2.044 0-1.313-.943-1.878-1.764-2.223l.002.005z"/>
            </g>
            <g>
                <path fill="#F6BE2A" d="M73.704 73.242c0 3.237-2.598 5.705-5.802 5.705-3.205 0-5.803-2.468-5.803-5.705s2.598-5.862 5.803-5.862c3.204 0 5.802 2.625 5.802 5.862"/>
                <path fill="#EBD60E" d="M67.768 80.035c-4.301 0-7.67-3.395-7.67-7.728 0-4.368 3.44-7.92 7.67-7.92s7.67 3.552 7.67 7.92c0 4.333-3.369 7.728-7.67 7.728"/>
                <path fill="#CE5D00" d="M67.835 65.475c-3.605 0-6.537 2.975-6.537 6.631 0 3.607 2.871 6.433 6.537 6.433 3.665 0 6.536-2.826 6.536-6.433 0-3.656-2.932-6.631-6.536-6.631"/>
                <path fill="#E4AF14" d="M67.835 65.611c-3.605 0-6.537 2.975-6.537 6.631 0 3.607 2.871 6.433 6.537 6.433 3.665 0 6.536-2.826 6.536-6.433 0-3.656-2.932-6.63-6.536-6.63"/>
                <g transform="translate(62.205 66.428)">
                    <mask id="j" fill="#fff">
                        <use xlink:href="#i"/>
                    </mask>
                    <path fill="#EBCD06" d="M.031 10.175L-.93 9.2l11.4-11.57.961.976-11.4 11.57M-.29 11.78L12.017-.713l2.258 2.291L1.968 14.071z" mask="url(#j)"/>
                </g>
                <path fill="#169D97" d="M74.772 79.627V76.09v3.538"/>
                <path fill="#E0A600" d="M68.566 71.436c-.87-.371-1.016-.556-1.016-.83 0-.121.05-.516.703-.516.38-.004.754.1 1.082.303l.214.126c.036.022.08.026.12.011a.141.141 0 0 0 .082-.09l.401-1.095a.16.16 0 0 0-.06-.18l-.158-.095a2.817 2.817 0 0 0-1.118-.382v-.877a.145.145 0 0 0-.142-.147h-1.042a.145.145 0 0 0-.141.147v.963c-.924.267-1.505 1.007-1.505 1.952 0 1.204.946 1.748 1.867 2.122.794.333.902.62.902.882 0 .38-.334.638-.832.638a2.271 2.271 0 0 1-1.242-.381l-.225-.158a.13.13 0 0 0-.124-.02.139.139 0 0 0-.087.094l-.386 1.111a.161.161 0 0 0 .052.17l.133.098c.337.25.852.43 1.375.495v.915c0 .082.063.148.14.148h1.054a.145.145 0 0 0 .141-.148v-.994c.954-.28 1.575-1.07 1.575-2.044 0-1.313-.944-1.878-1.765-2.223l.002.005z"/>
            </g>
            <g>
                <path fill="#F6BE2A" d="M81.646 75.982c0 3.237-2.598 5.705-5.803 5.705s-5.803-2.468-5.803-5.705 2.598-5.862 5.803-5.862 5.803 2.625 5.803 5.862"/>
                <path fill="#EBD60E" d="M75.71 82.775c-4.301 0-7.67-3.395-7.67-7.728 0-4.367 3.44-7.92 7.67-7.92s7.67 3.553 7.67 7.92c0 4.333-3.37 7.728-7.67 7.728"/>
                <path fill="#CE5D00" d="M75.776 68.215c-3.604 0-6.536 2.975-6.536 6.631 0 3.607 2.871 6.433 6.536 6.433 3.666 0 6.537-2.826 6.537-6.433 0-3.656-2.932-6.631-6.537-6.631"/>
                <path fill="#E4AF14" d="M75.776 68.351c-3.604 0-6.536 2.975-6.536 6.631 0 3.607 2.871 6.433 6.536 6.433 3.666 0 6.537-2.826 6.537-6.433 0-3.656-2.932-6.63-6.537-6.63"/>
                <g transform="translate(70.147 69.168)">
                    <mask id="l" fill="#fff">
                        <use xlink:href="#k"/>
                    </mask>
                    <path fill="#EBCD06" d="M.031 10.175L-.93 9.2l11.4-11.57.961.976-11.4 11.57M-.29 11.78L12.017-.713l2.258 2.291L1.968 14.071z" mask="url(#l)"/>
                </g>
                <path fill="#169D97" d="M82.713 82.367V78.83v3.538"/>
                <path fill="#E0A600" d="M76.508 74.176c-.87-.371-1.017-.556-1.017-.83 0-.121.051-.516.704-.516.38-.004.754.1 1.081.303l.215.126c.036.022.08.026.119.011a.141.141 0 0 0 .082-.09l.402-1.095a.16.16 0 0 0-.06-.18l-.158-.095a2.817 2.817 0 0 0-1.119-.382v-.877a.145.145 0 0 0-.141-.147h-1.042a.145.145 0 0 0-.141.147v.963c-.924.267-1.505 1.007-1.505 1.952 0 1.204.946 1.748 1.866 2.122.795.333.903.62.903.882 0 .38-.335.638-.833.638a2.271 2.271 0 0 1-1.24-.381l-.227-.158a.13.13 0 0 0-.123-.02.139.139 0 0 0-.087.094l-.386 1.111a.161.161 0 0 0 .052.17l.132.098c.338.25.852.43 1.375.495v.915c0 .082.063.148.141.148h1.053a.145.145 0 0 0 .142-.148v-.994c.953-.28 1.574-1.07 1.574-2.044 0-1.313-.943-1.878-1.764-2.223l.002.005z"/>
            </g>
            <g>
                <path fill="#F6BE2A" d="M69.638 84.514c0 3.237-2.598 5.704-5.803 5.704s-5.803-2.467-5.803-5.704c0-3.238 2.598-5.862 5.803-5.862s5.803 2.624 5.803 5.862"/>
                <path fill="#EBD60E" d="M63.701 91.307c-4.3 0-7.67-3.395-7.67-7.729 0-4.367 3.441-7.92 7.67-7.92 4.23 0 7.67 3.553 7.67 7.92 0 4.334-3.368 7.729-7.67 7.729"/>
                <path fill="#CE5D00" d="M63.768 76.747c-3.604 0-6.536 2.974-6.536 6.63 0 3.608 2.87 6.433 6.536 6.433 3.665 0 6.537-2.825 6.537-6.432 0-3.657-2.933-6.631-6.537-6.631"/>
                <path fill="#E4AF14" d="M63.768 76.883c-3.604 0-6.536 2.975-6.536 6.631 0 3.607 2.87 6.432 6.536 6.432 3.665 0 6.537-2.825 6.537-6.432 0-3.656-2.933-6.631-6.537-6.631"/>
                <g transform="translate(58.138 77.7)">
                    <mask id="n" fill="#fff">
                        <use xlink:href="#m"/>
                    </mask>
                    <path fill="#EBCD06" d="M.031 10.175L-.93 9.2l11.4-11.57.961.976-11.4 11.57M-.29 11.78L12.017-.713l2.258 2.291L1.968 14.071z" mask="url(#n)"/>
                </g>
                <path fill="#169D97" d="M70.705 90.899V87.36v3.538"/>
                <path fill="#E0A600" d="M64.5 82.708c-.87-.371-1.017-.556-1.017-.83 0-.122.051-.516.703-.516.38-.004.755.1 1.082.302l.214.126c.036.023.08.027.12.012a.141.141 0 0 0 .082-.09l.402-1.095a.16.16 0 0 0-.061-.181l-.157-.094a2.817 2.817 0 0 0-1.12-.382v-.878a.145.145 0 0 0-.14-.147h-1.042a.145.145 0 0 0-.142.147v.963c-.924.267-1.504 1.007-1.504 1.953 0 1.203.945 1.748 1.866 2.122.794.333.903.62.903.881 0 .382-.335.639-.833.639a2.271 2.271 0 0 1-1.241-.382l-.226-.157a.13.13 0 0 0-.124-.02.139.139 0 0 0-.087.093l-.386 1.112a.161.161 0 0 0 .052.17l.133.098c.338.249.852.43 1.375.495v.915c0 .081.063.147.14.148h1.054a.145.145 0 0 0 .141-.148v-.994c.954-.28 1.575-1.07 1.575-2.044 0-1.313-.944-1.878-1.764-2.223l.001.005z"/>
            </g>
            <g>
                <path fill="#F6BE2A" d="M61.35 75.069c0 3.237-2.597 5.704-5.802 5.704-3.205 0-5.803-2.467-5.803-5.704 0-3.238 2.598-5.862 5.803-5.862s5.803 2.624 5.803 5.862"/>
                <path fill="#EBD60E" d="M55.415 81.862c-4.302 0-7.67-3.395-7.67-7.729 0-4.367 3.44-7.92 7.67-7.92s7.67 3.553 7.67 7.92c0 4.334-3.37 7.73-7.67 7.73"/>
                <path fill="#CE5D00" d="M55.481 67.302c-3.604 0-6.536 2.975-6.536 6.63 0 3.608 2.87 6.433 6.536 6.433 3.665 0 6.537-2.825 6.537-6.432 0-3.656-2.933-6.631-6.537-6.631"/>
                <path fill="#E4AF14" d="M55.481 67.438c-3.604 0-6.536 2.975-6.536 6.631 0 3.607 2.87 6.432 6.536 6.432 3.665 0 6.537-2.825 6.537-6.432 0-3.656-2.933-6.631-6.537-6.631"/>
                <g transform="translate(49.851 68.254)">
                    <mask id="p" fill="#fff">
                        <use xlink:href="#o"/>
                    </mask>
                    <path fill="#EBCD06" d="M.031 10.175L-.93 9.2l11.4-11.57.961.976-11.4 11.57M-.29 11.78L12.017-.713l2.258 2.291L1.968 14.071z" mask="url(#p)"/>
                </g>
                <path fill="#169D97" d="M62.418 81.454v-3.538 3.538"/>
                <path fill="#E0A600" d="M56.212 73.263c-.87-.371-1.016-.556-1.016-.83 0-.122.051-.516.703-.516.38-.004.755.1 1.082.303l.215.125c.035.023.08.027.118.012a.141.141 0 0 0 .083-.09l.402-1.095a.16.16 0 0 0-.061-.181l-.157-.094a2.817 2.817 0 0 0-1.119-.382v-.878a.145.145 0 0 0-.141-.147h-1.042a.145.145 0 0 0-.142.147v.963c-.924.268-1.504 1.007-1.504 1.953 0 1.203.945 1.748 1.866 2.122.795.333.903.62.903.881 0 .382-.335.639-.833.639a2.271 2.271 0 0 1-1.241-.382l-.226-.157a.13.13 0 0 0-.123-.02.139.139 0 0 0-.088.093l-.385 1.112a.161.161 0 0 0 .051.17l.133.098c.338.249.852.43 1.375.495v.915c0 .081.063.147.14.148h1.054a.145.145 0 0 0 .141-.148v-.994c.954-.28 1.575-1.07 1.575-2.044 0-1.313-.943-1.878-1.764-2.223l.001.005z"/>
            </g>
            <g>
                <path fill="#F6BE2A" d="M61.965 84.514c0 3.237-2.598 5.704-5.803 5.704s-5.803-2.467-5.803-5.704c0-3.238 2.598-5.862 5.803-5.862s5.803 2.624 5.803 5.862"/>
                <path fill="#EBD60E" d="M56.028 91.307c-4.3 0-7.67-3.395-7.67-7.729 0-4.367 3.441-7.92 7.67-7.92 4.23 0 7.67 3.553 7.67 7.92 0 4.334-3.369 7.729-7.67 7.729"/>
                <path fill="#CE5D00" d="M56.095 76.747c-3.604 0-6.536 2.974-6.536 6.63 0 3.608 2.87 6.433 6.536 6.433 3.665 0 6.537-2.825 6.537-6.432 0-3.657-2.933-6.631-6.537-6.631"/>
                <path fill="#E4AF14" d="M56.095 76.883c-3.604 0-6.536 2.975-6.536 6.631 0 3.607 2.87 6.432 6.536 6.432 3.665 0 6.537-2.825 6.537-6.432 0-3.656-2.933-6.631-6.537-6.631"/>
                <g transform="translate(50.465 77.7)">
                    <mask id="r" fill="#fff">
                        <use xlink:href="#q"/>
                    </mask>
                    <path fill="#EBCD06" d="M.031 10.175L-.93 9.2l11.4-11.57.961.976-11.4 11.57M-.29 11.78L12.017-.713l2.258 2.291L1.968 14.071z" mask="url(#r)"/>
                </g>
                <path fill="#169D97" d="M63.032 90.899V87.36v3.538"/>
                <path fill="#E0A600" d="M56.826 82.708c-.87-.371-1.016-.556-1.016-.83 0-.122.051-.516.703-.516.38-.004.755.1 1.082.302l.214.126c.036.023.08.027.12.012a.141.141 0 0 0 .082-.09l.402-1.095a.16.16 0 0 0-.061-.181l-.157-.094a2.817 2.817 0 0 0-1.12-.382v-.878a.145.145 0 0 0-.14-.147h-1.042a.145.145 0 0 0-.142.147v.963c-.924.267-1.504 1.007-1.504 1.953 0 1.203.945 1.748 1.866 2.122.794.333.903.62.903.881 0 .382-.335.639-.833.639a2.271 2.271 0 0 1-1.241-.382l-.226-.157a.13.13 0 0 0-.124-.02.139.139 0 0 0-.087.093l-.386 1.112a.161.161 0 0 0 .052.17l.133.098c.337.249.852.43 1.375.495v.915c0 .081.063.147.14.148h1.054a.145.145 0 0 0 .141-.148v-.994c.954-.28 1.575-1.07 1.575-2.044 0-1.313-.944-1.878-1.764-2.223l.001.005z"/>
            </g>
            <g>
                <path fill="#F6BE2A" d="M81.787 84.514c0 3.237-2.598 5.704-5.803 5.704s-5.803-2.467-5.803-5.704c0-3.238 2.598-5.862 5.803-5.862s5.803 2.624 5.803 5.862"/>
                <path fill="#EBD60E" d="M75.85 91.307c-4.3 0-7.67-3.395-7.67-7.729 0-4.367 3.441-7.92 7.67-7.92 4.23 0 7.67 3.553 7.67 7.92 0 4.334-3.368 7.729-7.67 7.729"/>
                <path fill="#CE5D00" d="M75.917 76.747c-3.604 0-6.536 2.974-6.536 6.63 0 3.608 2.87 6.433 6.536 6.433 3.665 0 6.537-2.825 6.537-6.432 0-3.657-2.933-6.631-6.537-6.631"/>
                <path fill="#E4AF14" d="M75.917 76.883c-3.604 0-6.536 2.975-6.536 6.631 0 3.607 2.87 6.432 6.536 6.432 3.665 0 6.537-2.825 6.537-6.432 0-3.656-2.933-6.631-6.537-6.631"/>
                <g transform="translate(70.287 77.7)">
                    <mask id="t" fill="#fff">
                        <use xlink:href="#s"/>
                    </mask>
                    <path fill="#EBCD06" d="M.031 10.175L-.93 9.2l11.4-11.57.961.976-11.4 11.57M-.29 11.78L12.017-.713l2.258 2.291L1.968 14.071z" mask="url(#t)"/>
                </g>
                <path fill="#169D97" d="M82.854 90.899V87.36v3.538"/>
                <path fill="#E0A600" d="M76.648 82.708c-.87-.371-1.016-.556-1.016-.83 0-.122.051-.516.703-.516.38-.004.755.1 1.082.302l.214.126c.036.023.08.027.12.012a.141.141 0 0 0 .082-.09l.402-1.095a.16.16 0 0 0-.061-.181l-.157-.094a2.817 2.817 0 0 0-1.119-.382v-.878a.145.145 0 0 0-.141-.147h-1.042a.145.145 0 0 0-.142.147v.963c-.924.267-1.504 1.007-1.504 1.953 0 1.203.945 1.748 1.866 2.122.794.333.903.62.903.881 0 .382-.335.639-.833.639a2.271 2.271 0 0 1-1.241-.382l-.226-.157a.13.13 0 0 0-.124-.02.139.139 0 0 0-.087.093l-.386 1.112a.161.161 0 0 0 .052.17l.133.098c.338.249.852.43 1.375.495v.915c0 .081.063.147.14.148h1.054a.145.145 0 0 0 .141-.148v-.994c.954-.28 1.575-1.07 1.575-2.044 0-1.313-.944-1.878-1.764-2.223l.001.005z"/>
            </g>
            <g>
                <path fill="#FFBE96" d="M37.065 47.336c.2.042.4.077.6.107.253.036.517.063.76-.015 2.245-.723 4.438-2.3 6.274-3.768 2.082-1.668 3.717-3.68 5.59-5.513.845-.827 1.653-1.703 2.546-2.491.211-.187.773-.617.964-.161.146.348-.595 1.096-.818 1.35-.425.483-.479.721-.07 1.183.344.392.482.892.367 1.367-.143.597-.632 1.096-1.227 1.416-.238.128-.494.231-.733.357-.994.519-1.816 1.435-2.467 2.245-2.53 3.148-5.52 5.757-9.232 7.893-4.362 2.511-9.9-.851-13.328-3.535-.929-.727-1.84-1.595-2.006-2.659-.2-1.272.749-2.192 1.903-2.53 1.47-.429 2.358.157 3.65.708 1.279.545 2.264 1.586 3.398 2.386a10.298 10.298 0 0 0 3.83 1.66"/>
                <g transform="translate(20.641 38.264)">
                    <mask id="v" fill="#fff">
                        <use xlink:href="#u"/>
                    </mask>
                    <path d="M.74.526c-.195.21-.317.475-.413.744-.702 1.99.043 4.27 1.42 5.875.976 1.139 2.234 1.995 3.551 2.701 1.317.706 2.46 1.543 3.748 2.307-.116-.07 3.043-5.165 2.799-5.885a.194.194 0 0 0-.013-.03c-.196-.335-.952-.699-1.264-.969a27.377 27.377 0 0 1-1.171-1.088c-.767-.743-1.513-1.51-2.34-2.188-.941-.77-2.032-1.416-3.218-1.73C3.376.143 2.78.016 2.21.016c-.571 0-1.114.127-1.47.511" mask="url(#v)"/>
                </g>
                <path fill="#003A61" d="M19.5 61.52c1.232-1.444 4.03-1.608 5.555-.325l1.829 2.168c1.044 4.81 1.444 7.798 1.821 12.455.515 6.353.583 12.741-.175 19.055-.382 3.18-2.71 12.97-3.221 14.375-1.217-.196-3.522-.59-5.143-.939.428-7.065 1.68-14.204.9-21.27-.821-7.452-2.996-14.84-2.545-22.33.067-1.119.217-2.294.98-3.188"/>
                <path fill="#004472" d="M6.102 106.162c2.895-13.335 3.417-23.51 4.381-34.545.213-2.434.46-4.88 1.208-7.223.375-1.176.977-2.421 2.238-2.961 1.661-.712 3.67.096 5.27.971 1.389.761 2.977-1.213 2.995.193.095 7.6-2.044 17.586-3.952 25.004-1.75 6.799-4.371 14.048-6.812 20.133-1.957-.483-3.457-.835-5.328-1.572"/>
                <g transform="translate(14.906 38.264)">
                    <mask id="x" fill="#fff">
                        <use xlink:href="#w"/>
                    </mask>
                    <path d="M.068 4.384c-.041.378-.035.752.007 1.121.159 1.378.826 2.705 1.477 3.96l1.999 3.84c1.175-.817 2.41-1.552 3.623-2.317.912-.612 1.784-1.295 2.695-1.905C9.34 8.03 8.59 6.95 8.078 5.985A42.57 42.57 0 0 0 5.009 1.04C4.543.393 4.031.13 3.52.13 1.88.129.236 2.83.068 4.384" mask="url(#x)"/>
                </g>
                <g transform="translate(22.204 32.985)">
                    <mask id="z" fill="#fff">
                        <use xlink:href="#y"/>
                    </mask>
                    <path d="M.098 5.829c-.02.107-.048.213-.066.32.733-.386 2.355-1.19 3.112-.441-.553-.547-.309-1.748-.092-2.38.054-.154.855-1.779.958-1.722-.352-.193-.9-.435-1.213-.668a10.71 10.71 0 0 1-1.03-.875C1.255 2.005.743 3.929.098 5.829" mask="url(#z)"/>
                </g>
                <g transform="translate(12.87 66.974)">
                    <mask id="B" fill="#fff">
                        <use xlink:href="#A"/>
                    </mask>
                    <path d="M2.546.253c-.412.86-1.214 1.673-2.21 1.565-.36-.04-.408.537-.05.576 1.259.137 2.263-.851 2.786-1.942.102-.214-.075-.37-.258-.37a.29.29 0 0 0-.268.17" mask="url(#B)"/>
                </g>
                <g transform="translate(42.85 26)">
                    <mask id="D" fill="#fff">
                        <use xlink:href="#C"/>
                    </mask>
                    <path d="M2.451 14.234c-4.633 7.859-1.225 24.515.227 25.358 6.386 3.707 16.334-1.597 22.332-11.77 5.997-10.174 5.973-21.155-.136-25.296-2.604-1.766-4.96-2.5-7.097-2.5-7.427 0-12.185 8.88-15.326 14.208" mask="url(#D)"/>
                </g>
                <g transform="translate(47.022 40.227)">
                    <mask id="F" fill="#fff">
                        <use xlink:href="#E"/>
                    </mask>
                    <path d="M2.102 1.901L.695 1.084.096 2.101l1.465.85c-.671 1.632-.326 3.127.876 3.825 1.26.732 2.535.087 4.1-1.244 1.148-.96 2.018-1.313 2.815-.85.826.48.958 1.61.272 2.773-.54.916-1.319 1.608-2.013 1.996l.738.956c.7-.363 1.542-1.193 2.115-2.134l1.463.85.609-1.032-1.507-.875c.747-1.83.205-3.352-.94-4.017-1.29-.748-2.545-.336-4.147.998C4.58 5.319 3.847 5.705 3.093 5.268c-.58-.337-.967-1.198-.224-2.46a5.076 5.076 0 0 1 1.71-1.776L3.862.068C3.338.4 2.71.936 2.102 1.9" mask="url(#F)"/>
                </g>
                <g>
                    <path fill="#F6BE2A" d="M56.106 55.207c0 4.642-3.86 8.18-8.622 8.18-4.762 0-8.623-3.538-8.623-8.18 0-4.643 3.86-8.406 8.623-8.406 4.762 0 8.622 3.763 8.622 8.406"/>
                    <path fill="#FEE600" d="M47.285 64.948c-6.39 0-11.397-4.868-11.397-11.083 0-6.262 5.113-11.357 11.397-11.357 6.285 0 11.398 5.095 11.398 11.357 0 6.215-5.007 11.083-11.398 11.083"/>
                    <path fill="#CE5D00" d="M47.384 44.07c-5.355 0-9.712 4.265-9.712 9.508 0 5.172 4.266 9.223 9.712 9.223 5.447 0 9.713-4.051 9.713-9.223 0-5.243-4.357-9.509-9.713-9.509"/>
                    <path fill="#FDC010" d="M47.384 44.264c-5.355 0-9.712 4.266-9.712 9.51 0 5.171 4.266 9.223 9.712 9.223 5.447 0 9.713-4.052 9.713-9.224 0-5.243-4.357-9.509-9.713-9.509"/>
                    <g transform="translate(39.02 45.435)">
                        <mask id="H" fill="#fff">
                            <use xlink:href="#G"/>
                        </mask>
                        <path fill="#FEDD00" d="M.047 14.59l-1.43-1.399L15.558-3.4 16.986-2 .046 14.59M2.924 20.176l-3.355-3.285L17.857-1.021l3.354 3.286L2.924 20.176" mask="url(#H)"/>
                    </g>
                    <path fill="#169D97" d="M57.692 64.363v-5.074 5.074"/>
                    <path fill="#E0A600" d="M48.16 52.581c-1.254-.547-1.465-.82-1.465-1.224 0-.178.074-.76 1.013-.76a2.852 2.852 0 0 1 1.56.446l.308.186c.052.033.115.039.172.016a.207.207 0 0 0 .119-.132l.579-1.615a.24.24 0 0 0-.088-.267l-.227-.139a3.999 3.999 0 0 0-1.612-.563v-1.294c0-.12-.091-.216-.203-.216h-1.502c-.112 0-.203.097-.204.216v1.42c-1.331.394-2.168 1.485-2.168 2.88 0 1.774 1.363 2.577 2.69 3.13 1.145.49 1.3.914 1.3 1.299 0 .562-.482.94-1.2.94a3.22 3.22 0 0 1-1.788-.561l-.325-.232a.185.185 0 0 0-.178-.03.203.203 0 0 0-.126.138l-.556 1.639a.241.241 0 0 0 .075.251l.19.144c.487.367 1.229.635 1.982.73v1.35c0 .12.09.217.203.217h1.518c.112 0 .203-.097.203-.218v-1.466c1.375-.411 2.27-1.576 2.27-3.014 0-1.935-1.36-2.769-2.543-3.278l.002.007z"/>
                </g>
                <g>
                    <path fill="#FFBE96" d="M15.36 42.087l.195-12.746 6.117.043-.195 12.746zM13.297 28.556c.065.106.145.218.238.332.33.412 1.453 1.184 1.453 1.184s-.21-.38-.333-1.024c-.124-.645-.155-2.81-.155-2.81s-.777-.04-1.125.149c-.506.276-.607 1.32-.078 2.17"/>
                    <path fill="#F09F7C" d="M21.58 35.12a10.97 10.97 0 0 1-1.726.056c-1.751-.08-3.327-.557-4.495-1.275l.074-4.56 6.24.042-.093 5.737z"/>
                    <path fill="#FFC8A6" d="M15.754 32.369s3.767 2.547 5.38 2.318c1.2-.17 3.41-3.05 3.679-3.586.515-1.018.71-1.784.562-2.801l-.54-3.815c-.426-3.017-1.54-5.053-4.593-4.619l-2.097.302c-1.89.269-3.426.89-3.35 2.417l-.464 3.227-.458.657.5 3.538a3.682 3.682 0 0 0 1.381 2.362"/>
                    <path fill="#000" d="M13.874 26.202c.706.164 1.406-.297 1.565-1.03l1.034-4.783-1.911.588-.688 5.225z"/>
                    <path fill="#000" d="M25.943 23.249l-11.138.063-.003-.347c-.012-2.107 1.727-3.824 3.881-3.837l3.332-.018c2.155-.013 3.913 1.685 3.925 3.792l.003.347zM18.421 27.88c-.254 0-.462-.177-.462-.392v-.131c0-.215.208-.391.462-.391.257 0 .466.176.466.39v.132c0 .215-.209.391-.466.391M22.692 27.88c-.254 0-.463-.177-.463-.392v-.131c0-.215.209-.391.463-.391.257 0 .466.176.466.39v.132c0 .215-.209.391-.466.391"/>
                    <path fill="#FFF" fill-rule="nonzero" d="M22.23 30.254s-.315 1.097-1.936 1.097c-1.645 0-1.964-1.097-1.964-1.097h3.9z"/>
                    <path fill="#000" d="M19.176 25.915c-.412-.044-.815-.07-1.227-.013-.269.036-.64.121-.73.343-.01.024.01.15.021.166.109.144.582.025.845.012a5.885 5.885 0 0 1 1.157.06c.278.051.282-.53-.066-.568M21.94 25.915c.412-.044.814-.07 1.227-.013.268.037.64.122.732.343a.479.479 0 0 1-.024.168c-.108.142-.582.023-.845.013-.311-.016-.822-.006-1.156.057-.278.052-.28-.529.065-.568"/>
                    <path fill="#F09F7C" d="M20.446 29.237a.75.75 0 0 0 .31.096c.17.002.283-.086.33-.268.037-.15-.017-.418-.043-.563a13.992 13.992 0 0 0-.248-1.085c-.064-.235.283-.386.347-.15.154.572.482 1.391.281 1.98-.183.536-.68.533-1.125.344-.223-.096-.077-.45.148-.354"/>
                </g>
                <g fill="#71D8B8">
                    <path d="M29.245 50.077l.306-.13c.884-.376 4.3-3.211 4.377-4.173l-11.253-8.74-1.141.884c-1.418 1.194-1.54 3.343-.264 4.637l7.975 7.522z"/>
                    <path d="M16.821 36.62l5.589.214c.834 0 3.205 1.841 7.113 5.523l-1.6 6.436.543 13.045.027 1.172c-4.645 3.08-11.925 2.957-16.97.418V47.876C11.314 40.34 13.08 36.59 16.82 36.62z"/>
                </g>
                <path fill="#FFC8A6" d="M25.28 56.628c.35.285.706.562 1.066.83.477.355.967.696 1.455 1.035 1.414.984 2.884 1.886 4.43 2.65 1.48.73 3.092 1.138 4.685 1.546.73.187 1.438.263 2.155.524.73.267 1.436.598 2.164.872.599.227 1.218.417 1.856.498.508.065 1.123.197 1.631.119.274-.043.546-.165.713-.385.16-.212.206-.494.17-.757-.081-.598-.55-1.088-1.092-1.359-.542-.27-1.155-.361-1.755-.447-1.201-.173-2.248-.34-3.343-.894-.973-.494-1.874-1.116-2.828-1.644-1.55-.86-3.012-1.91-4.527-2.832-1.31-.797-2.646-1.569-3.652-2.752-.877-1.03-1.538-2.216-2.33-3.307-.771-1.062-1.488-2.164-2.197-3.267-.74-1.154-1.676-2.449-2.797-3.27-.57-.417-1.274-.723-1.975-.616-1.073.164-1.798 1.278-1.845 2.355-.048 1.078.43 2.108.976 3.04 1.776 3.037 4.276 5.818 7.04 8.061"/>
                <path fill="#74E6C2" d="M21.155 53.192l.331-.044c.957-.127 4.63-1.999 4.95-2.89-4.232-7.447-7.012-11.155-8.34-11.125-1.327.03-2.143.161-2.446.393-1.686.765-1.245 2.919-.334 4.475l5.84 9.191z"/>
            </g>
            <text font-family="Muli-BlackItalic, Muli" font-size="25" font-style="italic" font-weight="700" letter-spacing="-.262" transform="translate(4.932 7.014)">
                <tspan x="56.068" y="25.986" fill="#FFF">3</tspan>
            </text>
            <text font-family="Muli-BlackItalic, Muli" font-size="20" font-style="italic" font-weight="700" letter-spacing="-.21" transform="translate(4.932 7.014)">
                <tspan x="43.384" y="25.301" fill="#FFF">x</tspan>
            </text>
        </g>
    </g>
</svg>
