<svg xmlns="http://www.w3.org/2000/svg" xmlns:xlink="http://www.w3.org/1999/xlink" width="96" height="95" viewBox="0 0 96 95">
    <defs>
        <circle id="a" cx="45" cy="45" r="45"/>
    </defs>
    <g fill="none" fill-rule="evenodd" transform="translate(3 3)">
        <mask id="b" fill="#fff">
            <use xlink:href="#a"/>
        </mask>
        <use fill="#00A7A7" xlink:href="#a"/>
        <g mask="url(#b)">
            <path fill="#F9F6ED" stroke="#DFDFDF" stroke-width="2" d="M19.971 20.11c-1.88 0-2.619.142-3.38.55-.64.342-1.137.839-1.48 1.48-.407.76-.55 1.498-.55 3.38v27.248c0 1.881.143 2.62.55 3.38.343.641.84 1.138 1.48 1.48.761.408 1.5.55 3.38.55h53.756c1.881 0 2.62-.142 3.38-.55a3.543 3.543 0 0 0 1.48-1.48c.408-.76.55-1.499.55-3.38V25.52c0-1.88-.142-2.619-.55-3.38a3.543 3.543 0 0 0-1.48-1.48c-.76-.407-1.499-.55-3.38-.55H19.971z"/>
            <path fill="#E0D5BD" d="M18.494 30.822h15.41v1.849h-15.41zM17.877 33.905h9.863v1.849h-9.863z"/>
            <path stroke="#7C7C7C" stroke-linecap="square" stroke-width="2" d="M33.378 53.688l40.527-.029"/>
            <path fill="#E0D5BD" d="M18.494 24.658h12.945v2.466H18.494zM48.699 24.658h26.507v2.466H48.699z"/>
            <path stroke="#7C7C7C" d="M53.596 50.046c-3.355 1.416-9.298 1.982-4.052-1.103 1.654-.973 3.344 3.955 4.363 4.286.779.252 1.334.095 1.845-.112 2.259-.912 5.263-2.719 6.484-4.453.383-.545-3.837-1.335-4.42.994-.734 2.934.744 5.509 1.357 6.438"/>
            <path fill="#E0D5BD" d="M43.935 33.807c0-.097.042-.415.581-.415.471 0 .768.17.895.243l.176.102c.065.037.14.01.167-.06l.332-.883a.125.125 0 0 0-.05-.146l-.13-.076a2.374 2.374 0 0 0-.925-.308v-.707a.118.118 0 0 0-.117-.119h-.86a.118.118 0 0 0-.118.12v.775c-.763.216-1.243.812-1.243 1.573 0 .971.781 1.41 1.542 1.71.657.268.748.5.748.71 0 .308-.277.515-.689.515-.355 0-.738-.115-1.025-.308l-.186-.124c-.067-.046-.146-.02-.174.059l-.319.896a.127.127 0 0 0 .043.138l.11.078c.279.2.704.347 1.136.399v.738c0 .065.052.119.117.119h.869a.118.118 0 0 0 .117-.12v-.8c.787-.225 1.3-.862 1.3-1.648 0-1.058-.78-1.513-1.457-1.792-.719-.299-.84-.448-.84-.669z"/>
            <path fill="#E0D5BD" fill-rule="nonzero" d="M52.238 35.286c.397.11.71.3.937.57.228.271.342.583.342.936 0 .408-.124.756-.37 1.045-.247.289-.582.506-1.006.652-.423.147-.891.22-1.404.22-.834 0-1.485-.156-1.953-.466-.468-.31-.702-.76-.702-1.35 0-.396.14-.736.419-1.018.279-.283.655-.48 1.13-.59a1.733 1.733 0 0 1-.818-.565 1.35 1.35 0 0 1-.298-.849c0-.383.12-.712.36-.986.241-.273.565-.48.972-.62.407-.14.858-.21 1.352-.21.461 0 .873.067 1.236.2.362.134.644.325.846.571.202.246.303.537.303.872 0 .377-.123.709-.37.995a1.914 1.914 0 0 1-.976.593zm-1.27-.457c.314-.066.545-.167.692-.3.148-.135.222-.326.222-.576 0-.2-.074-.353-.222-.456-.147-.104-.35-.155-.606-.155-.25 0-.456.06-.62.182-.164.122-.245.305-.245.548 0 .377.26.63.779.757zm-.164 2.593c.302 0 .552-.069.75-.206.2-.137.299-.336.299-.598 0-.194-.09-.354-.27-.479a1.815 1.815 0 0 0-.702-.269c-.737.134-1.106.42-1.106.858 0 .237.09.412.27.525.179.112.432.169.76.169zm5.365-.484l-.077 1.013a2.77 2.77 0 0 1-.318 1.118c-.18.332-.462.665-.846 1l-.625-.493c.378-.323.622-.636.73-.94h-.817l.144-1.698h1.809zm3.555 1.77c-.808 0-1.425-.249-1.851-.748-.427-.499-.64-1.223-.64-2.172 0-.779.11-1.447.332-2.004.221-.556.54-.982.957-1.277.417-.296.917-.443 1.5-.443.809 0 1.426.25 1.852.748.427.5.64 1.223.64 2.173 0 .778-.11 1.446-.332 2.003-.221.557-.54.983-.957 1.278-.417.295-.917.443-1.5.443zm.039-1.286c.327 0 .577-.226.75-.676.173-.45.26-1.113.26-1.99 0-.486-.063-.842-.188-1.067-.125-.226-.322-.338-.591-.338-.327 0-.577.23-.75.689-.174.46-.26 1.118-.26 1.976 0 .487.062.843.187 1.068.125.225.323.338.592.338zm5.999 1.287c-.808 0-1.425-.25-1.852-.749-.426-.499-.64-1.223-.64-2.172 0-.779.111-1.447.333-2.004.22-.556.54-.982.957-1.277.416-.296.917-.443 1.5-.443.808 0 1.425.25 1.852.748.426.5.64 1.223.64 2.173 0 .778-.111 1.446-.332 2.003-.222.557-.54.983-.957 1.278-.417.295-.917.443-1.501.443zm.038-1.287c.328 0 .578-.226.75-.676.174-.45.26-1.113.26-1.99 0-.486-.062-.842-.187-1.067-.125-.226-.322-.338-.592-.338-.327 0-.577.23-.75.689-.173.46-.26 1.118-.26 1.976 0 .487.063.843.188 1.068.125.225.322.338.591.338zm6 1.287c-.808 0-1.426-.25-1.852-.749-.427-.499-.64-1.223-.64-2.172 0-.779.11-1.447.332-2.004.221-.556.54-.982.957-1.277.417-.296.917-.443 1.5-.443.809 0 1.426.25 1.852.748.427.5.64 1.223.64 2.173 0 .778-.11 1.446-.332 2.003-.221.557-.54.983-.957 1.278-.417.295-.917.443-1.5.443zm.038-1.287c.327 0 .577-.226.75-.676.173-.45.26-1.113.26-1.99 0-.486-.062-.842-.188-1.067-.125-.226-.322-.338-.591-.338-.327 0-.577.23-.75.689-.174.46-.26 1.118-.26 1.976 0 .487.062.843.187 1.068.126.225.323.338.592.338z"/>
        </g>
        <g mask="url(#b)">
            <path fill="#2D8289" d="M28.02 39.97c-4.586 2.954-11.993 12.514-11.993 18.36 0 4.926 1.494 8.03 4.739 10.709a5.375 5.375 0 0 0 3.42 1.235h13.888c1.25 0 2.458-.44 3.42-1.235 3.245-2.68 4.739-5.783 4.739-10.71 0-5.845-7.408-15.405-11.994-18.36H28.02zM37.31 35.158c-.338-.133-.907-.165-1.265-.071l-1.543.402c-.358.093-.9.023-1.204-.156l-1.737-1.017c-.305-.178-.803-.178-1.108 0l-1.735 1.017c-.305.179-.847.249-1.205.156l-1.545-.402c-.357-.094-.927-.062-1.266.07l-1.14.446c-.34.132-.394.414-.123.625l4.002 3.119c.27.21.8.383 1.175.383h4.779c.375 0 .904-.172 1.175-.383l4.002-3.12c.27-.21.216-.492-.123-.624l-1.138-.445"/>
            <path fill="#FFF" d="M30.097 54.022c0-.185.085-.79 1.176-.79.954 0 1.555.325 1.812.463l.358.194c.131.07.283.018.337-.116l.672-1.68a.23.23 0 0 0-.102-.277l-.262-.145a5.019 5.019 0 0 0-1.873-.585V49.74a.232.232 0 0 0-.236-.226h-1.744a.232.232 0 0 0-.236.226v1.477c-1.546.41-2.519 1.545-2.519 2.994 0 1.847 1.582 2.683 3.124 3.254 1.33.51 1.513.95 1.513 1.351 0 .586-.56.98-1.394.98a4.05 4.05 0 0 1-2.076-.586l-.376-.236c-.137-.086-.295-.036-.352.112l-.646 1.705a.234.234 0 0 0 .086.262l.222.15c.566.382 1.427.66 2.301.759v1.404c0 .125.106.227.237.227h1.76c.13 0 .236-.102.236-.227v-1.525c1.595-.428 2.635-1.64 2.635-3.135 0-2.013-1.58-2.88-2.952-3.41-1.455-.57-1.701-.853-1.701-1.274z"/>
            <path fill="#E49503" d="M35.11 40.513h-7.96c-.628 0-1.137-.29-1.137-.649 0-.358.509-.648 1.137-.648h7.96c.628 0 1.138.29 1.138.648 0 .359-.51.65-1.138.65"/>
            <g>
                <path fill="#F1A11F" d="M8.63 68.172c0-1.475 2.622-2.472 5.856-2.472 3.235 0 5.856.997 5.856 2.472 0 1.474-2.621 2.669-5.856 2.669-3.234 0-5.856-1.195-5.856-2.67z"/>
                <path fill="#F1A11F" d="M19.446 66.84a4.002 4.002 0 0 0-.353-.21v.21h-9.09v-.272a4.16 4.16 0 0 0-.478.273H8.63v1.355c0 .651.517 1.248 1.373 1.71v-1.71h9.09v1.64c.782-.451 1.25-1.02 1.25-1.64v-1.355h-.897z"/>
                <path fill="#FD0" d="M14.486 69.572c-3.234 0-5.856-1.195-5.856-2.67 0-1.475 2.622-2.671 5.856-2.671 3.235 0 5.856 1.196 5.856 2.67 0 1.476-2.621 2.671-5.856 2.671"/>
                <path fill="#EFA71F" d="M14.486 68.905c-2.54 0-4.599-.912-4.599-2.037 0-1.124 2.06-2.036 4.6-2.036 2.54 0 4.598.912 4.598 2.036 0 1.125-2.059 2.037-4.599 2.037"/>
                <path fill="#FDC010" d="M14.486 68.905c-2.54 0-4.599-.837-4.599-1.87 0-1.032 2.06-1.87 4.6-1.87 2.54 0 4.598.838 4.598 1.87 0 1.033-2.059 1.87-4.599 1.87"/>
                <path fill="#FEDD00" d="M16.978 66.152l-2.958 2.62a4.303 4.303 0 0 1-.847-.031 3.008 3.008 0 0 1-.577-.146l3.458-3.221c.14.005.303.066.487.183.184.117.33.316.437.595zM15.298 65.48l-3.274 3.022a1.538 1.538 0 0 1-.246-.115.783.783 0 0 1-.155-.147l3.184-2.989a.505.505 0 0 1 .213.025c.07.024.162.092.278.205z"/>
                <path fill="#E0A600" d="M14.264 66.585v-.236c-.15.01-.224.044-.224.104 0 .031.018.057.056.077.037.02.093.038.168.055m.48.901c.036-.016.055-.037.055-.064 0-.03-.022-.055-.067-.077a.838.838 0 0 0-.179-.059v.23a.581.581 0 0 0 .19-.03m1.149-.382a.42.42 0 0 1 .083.265.452.452 0 0 1-.115.312.856.856 0 0 1-.303.21 1.852 1.852 0 0 1-.429.122c-.16.027-.326.043-.498.048v.376l-.449-.002.001-.383a6.382 6.382 0 0 1-.767-.088 4.8 4.8 0 0 1-.682-.169l.471-.529a4.708 4.708 0 0 0 .663.183c.129.026.26.045.395.056v-.273a6.604 6.604 0 0 1-.8-.171 1.43 1.43 0 0 1-.313-.133.529.529 0 0 1-.182-.167.395.395 0 0 1-.058-.215c0-.112.034-.21.101-.296a.849.849 0 0 1 .275-.22c.116-.062.251-.111.406-.148.155-.036.32-.06.496-.069V65.5l.448.002v.317a4.894 4.894 0 0 1 .69.099c.107.022.207.046.3.07.093.025.18.047.258.069l-.472.497a3.198 3.198 0 0 0-.268-.082 3.484 3.484 0 0 0-.588-.112v.28c.033.004.069.01.106.017a6.467 6.467 0 0 1 .613.126c.147.039.273.084.377.135a.667.667 0 0 1 .24.186"/>
                <g>
                    <path fill="#F1A11F" d="M8.63 66.61c0-1.474 2.622-2.472 5.856-2.472 3.235 0 5.856.998 5.856 2.472s-2.621 2.67-5.856 2.67c-3.234 0-5.856-1.196-5.856-2.67z"/>
                    <path fill="#F1A11F" d="M19.446 65.28a4.002 4.002 0 0 0-.353-.21v.21h-9.09v-.274a4.16 4.16 0 0 0-.478.273H8.63v1.356c0 .651.517 1.248 1.373 1.71v-1.71h9.09v1.64c.782-.451 1.25-1.02 1.25-1.64v-1.356h-.897z"/>
                    <path fill="#FEE34B" d="M14.486 68.011c-3.234 0-5.856-1.196-5.856-2.67 0-1.476 2.622-2.671 5.856-2.671 3.235 0 5.856 1.195 5.856 2.67 0 1.475-2.621 2.671-5.856 2.671"/>
                    <path fill="#EFA71F" d="M14.486 67.343c-2.54 0-4.599-.911-4.599-2.036s2.06-2.036 4.6-2.036c2.54 0 4.598.911 4.598 2.036s-2.059 2.036-4.599 2.036"/>
                    <path fill="#FDC010" d="M14.486 67.343c-2.54 0-4.599-.837-4.599-1.869 0-1.033 2.06-1.87 4.6-1.87 2.54 0 4.598.837 4.598 1.87 0 1.032-2.059 1.87-4.599 1.87"/>
                    <path fill="#FEDD00" d="M16.978 64.591l-2.958 2.62a4.303 4.303 0 0 1-.847-.032 3.008 3.008 0 0 1-.577-.145l3.458-3.221c.14.005.303.066.487.183.184.117.33.315.437.595zM15.298 63.92l-3.274 3.02a1.538 1.538 0 0 1-.246-.114.783.783 0 0 1-.155-.147l3.184-2.989a.505.505 0 0 1 .213.025c.07.023.162.092.278.205z"/>
                    <path fill="#E0A600" d="M14.264 65.024v-.236c-.15.009-.224.044-.224.104 0 .031.018.057.056.076.037.02.093.039.168.056m.48.901c.036-.016.055-.038.055-.065 0-.029-.022-.054-.067-.076a.838.838 0 0 0-.179-.059v.23a.581.581 0 0 0 .19-.03m1.149-.382a.42.42 0 0 1 .083.265.452.452 0 0 1-.115.312.856.856 0 0 1-.303.21 1.852 1.852 0 0 1-.429.121c-.16.027-.326.044-.498.049v.376l-.449-.003.001-.382a6.382 6.382 0 0 1-.767-.088 4.8 4.8 0 0 1-.682-.17l.471-.528a4.708 4.708 0 0 0 .663.182c.129.027.26.046.395.057v-.273a6.604 6.604 0 0 1-.8-.171 1.43 1.43 0 0 1-.313-.133.529.529 0 0 1-.182-.167.395.395 0 0 1-.058-.215c0-.112.034-.21.101-.296a.849.849 0 0 1 .275-.221c.116-.062.251-.11.406-.147.155-.036.32-.06.496-.069v-.314l.448.003v.317a4.894 4.894 0 0 1 .69.099c.107.022.207.045.3.07l.258.068-.472.498a3.198 3.198 0 0 0-.268-.082 3.484 3.484 0 0 0-.588-.113v.28c.033.005.069.01.106.018.037.007.076.015.117.02.183.033.348.068.496.106.147.039.273.083.377.135a.667.667 0 0 1 .24.186"/>
                </g>
                <g>
                    <path fill="#F1A11F" d="M8.63 65.049c0-1.474 2.622-2.472 5.856-2.472 3.235 0 5.856.998 5.856 2.472s-2.621 2.67-5.856 2.67c-3.234 0-5.856-1.196-5.856-2.67z"/>
                    <path fill="#F1A11F" d="M19.446 63.718a4.002 4.002 0 0 0-.353-.21v.21h-9.09v-.273a4.16 4.16 0 0 0-.478.273H8.63v1.355c0 .652.517 1.248 1.373 1.71v-1.71h9.09v1.641c.782-.452 1.25-1.021 1.25-1.64v-1.356h-.897z"/>
                    <path fill="#FEE34B" d="M14.486 66.45c-3.234 0-5.856-1.196-5.856-2.671 0-1.475 2.622-2.67 5.856-2.67 3.235 0 5.856 1.195 5.856 2.67 0 1.475-2.621 2.67-5.856 2.67"/>
                    <path fill="#EFA71F" d="M14.486 65.782c-2.54 0-4.599-.912-4.599-2.036 0-1.125 2.06-2.037 4.6-2.037 2.54 0 4.598.912 4.598 2.037 0 1.124-2.059 2.036-4.599 2.036"/>
                    <path fill="#FDC010" d="M14.486 65.782c-2.54 0-4.599-.837-4.599-1.87 0-1.032 2.06-1.869 4.6-1.869 2.54 0 4.598.837 4.598 1.87 0 1.032-2.059 1.87-4.599 1.87"/>
                    <path fill="#FEDD00" d="M16.978 63.03l-2.958 2.62a4.303 4.303 0 0 1-.847-.032 3.008 3.008 0 0 1-.577-.145l3.458-3.222c.14.006.303.067.487.184.184.117.33.315.437.595zM15.298 62.358l-3.274 3.021a1.538 1.538 0 0 1-.246-.114.783.783 0 0 1-.155-.148l3.184-2.988a.505.505 0 0 1 .213.024c.07.024.162.092.278.205z"/>
                    <path fill="#E0A600" d="M14.264 63.462v-.236c-.15.01-.224.045-.224.105 0 .03.018.056.056.076.037.02.093.039.168.055m.48.902c.036-.016.055-.038.055-.065 0-.03-.022-.055-.067-.077a.838.838 0 0 0-.179-.058v.23a.581.581 0 0 0 .19-.03m1.149-.382a.42.42 0 0 1 .083.265.452.452 0 0 1-.115.311.856.856 0 0 1-.303.21 1.852 1.852 0 0 1-.429.122c-.16.027-.326.043-.498.048v.377l-.449-.003.001-.382a6.382 6.382 0 0 1-.767-.089 4.8 4.8 0 0 1-.682-.168l.471-.53a4.708 4.708 0 0 0 .663.183c.129.027.26.046.395.057v-.274a6.604 6.604 0 0 1-.8-.17 1.43 1.43 0 0 1-.313-.133.529.529 0 0 1-.182-.168.395.395 0 0 1-.058-.214c0-.112.034-.211.101-.297a.849.849 0 0 1 .275-.22c.116-.062.251-.111.406-.147.155-.037.32-.06.496-.07v-.313l.448.002v.318a4.894 4.894 0 0 1 .69.098c.107.023.207.046.3.07l.258.069-.472.498a3.198 3.198 0 0 0-.268-.083 3.484 3.484 0 0 0-.588-.112v.28c.033.004.069.01.106.018l.117.02c.183.033.348.068.496.106.147.038.273.083.377.134a.667.667 0 0 1 .24.187"/>
                </g>
                <g>
                    <path fill="#F1A11F" d="M8.63 63.488c0-1.475 2.622-2.472 5.856-2.472 3.235 0 5.856.997 5.856 2.472 0 1.474-2.621 2.669-5.856 2.669-3.234 0-5.856-1.195-5.856-2.67z"/>
                    <path fill="#F1A11F" d="M19.446 62.157a4.002 4.002 0 0 0-.353-.21v.21h-9.09v-.273a4.16 4.16 0 0 0-.478.273H8.63v1.355c0 .652.517 1.248 1.373 1.71v-1.71h9.09v1.64c.782-.451 1.25-1.02 1.25-1.64v-1.355h-.897z"/>
                    <path fill="#FEE34B" d="M14.486 64.888c-3.234 0-5.856-1.195-5.856-2.67 0-1.475 2.622-2.671 5.856-2.671 3.235 0 5.856 1.196 5.856 2.67 0 1.476-2.621 2.671-5.856 2.671"/>
                    <path fill="#EFA71F" d="M14.486 64.22c-2.54 0-4.599-.911-4.599-2.036 0-1.124 2.06-2.036 4.6-2.036 2.54 0 4.598.912 4.598 2.036 0 1.125-2.059 2.037-4.599 2.037"/>
                    <path fill="#FDC010" d="M14.486 64.22c-2.54 0-4.599-.836-4.599-1.869 0-1.032 2.06-1.87 4.6-1.87 2.54 0 4.598.838 4.598 1.87 0 1.033-2.059 1.87-4.599 1.87"/>
                    <path fill="#FEDD00" d="M16.978 61.468l-2.958 2.62a4.303 4.303 0 0 1-.847-.031 3.008 3.008 0 0 1-.577-.146l3.458-3.221c.14.005.303.066.487.183.184.117.33.316.437.595zM15.298 60.797l-3.274 3.021a1.538 1.538 0 0 1-.246-.115.783.783 0 0 1-.155-.147l3.184-2.989a.505.505 0 0 1 .213.025c.07.024.162.092.278.205z"/>
                    <path fill="#E0A600" d="M14.264 61.901v-.236c-.15.01-.224.044-.224.104 0 .031.018.057.056.077.037.02.093.038.168.055m.48.902c.036-.017.055-.038.055-.065 0-.03-.022-.055-.067-.077a.838.838 0 0 0-.179-.058v.23a.581.581 0 0 0 .19-.03m1.149-.382a.42.42 0 0 1 .083.264.452.452 0 0 1-.115.312.856.856 0 0 1-.303.21 1.852 1.852 0 0 1-.429.122c-.16.027-.326.043-.498.048v.376l-.449-.002.001-.383a6.382 6.382 0 0 1-.767-.088 4.8 4.8 0 0 1-.682-.169l.471-.529a4.708 4.708 0 0 0 .663.183c.129.026.554.055.688.066v-.23c-.116-.017-.524-.09-.64-.114a4.446 4.446 0 0 1-.453-.11 1.43 1.43 0 0 1-.313-.132.529.529 0 0 1-.182-.168.395.395 0 0 1-.058-.215c0-.112.034-.21.101-.296a.849.849 0 0 1 .275-.22c.116-.062.251-.111.406-.148.155-.036.32-.06.496-.068v-.314l.448.002v.317a4.894 4.894 0 0 1 .69.1c.107.021.207.045.3.07.093.024.18.046.258.068l-.472.497a3.198 3.198 0 0 0-.268-.082 3.484 3.484 0 0 0-.277-.065c-.103-.02-.5-.048-.605-.059v.24a22.112 22.112 0 0 1 .517.09c.183.033.348.068.496.106.147.038.273.083.377.134"/>
                </g>
                <g>
                    <path fill="#F1A11F" d="M8.63 61.926c0-1.474 2.622-2.471 5.856-2.471 3.235 0 5.856.997 5.856 2.471 0 1.474-2.621 2.67-5.856 2.67-3.234 0-5.856-1.196-5.856-2.67z"/>
                    <path fill="#F1A11F" d="M19.446 60.595a4.002 4.002 0 0 0-.353-.21v.21h-9.09v-.272a4.16 4.16 0 0 0-.478.272H8.63v1.356c0 .651.517 1.248 1.373 1.71v-1.71h9.09v1.64c.782-.451 1.25-1.02 1.25-1.64v-1.356h-.897z"/>
                    <path fill="#FEE34B" d="M14.486 63.327c-3.234 0-5.856-1.196-5.856-2.67 0-1.476 2.622-2.671 5.856-2.671 3.235 0 5.856 1.195 5.856 2.67 0 1.475-2.621 2.671-5.856 2.671"/>
                    <path fill="#EFA71F" d="M14.486 62.66c-2.54 0-4.599-.912-4.599-2.037s2.06-2.036 4.6-2.036c2.54 0 4.598.911 4.598 2.036s-2.059 2.036-4.599 2.036"/>
                    <path fill="#FDC010" d="M14.486 62.66c-2.54 0-4.599-.838-4.599-1.87s2.06-1.87 4.6-1.87c2.54 0 4.598.838 4.598 1.87s-2.059 1.87-4.599 1.87"/>
                    <path fill="#FEDD00" d="M16.978 59.907l-2.958 2.62a4.303 4.303 0 0 1-.847-.032 3.008 3.008 0 0 1-.577-.145l3.458-3.221c.14.005.303.066.487.183.184.117.33.315.437.595zM15.298 59.236l-3.274 3.02a1.538 1.538 0 0 1-.246-.114.783.783 0 0 1-.155-.147l3.184-2.989a.505.505 0 0 1 .213.025c.07.023.162.092.278.205z"/>
                    <path fill="#E0A600" d="M14.264 60.34v-.236c-.15.01-.224.044-.224.104 0 .031.018.057.056.076.037.02.093.039.168.056m.48.901c.036-.016.055-.038.055-.065 0-.029-.022-.054-.067-.076a.838.838 0 0 0-.179-.059v.23a.581.581 0 0 0 .19-.03m1.149-.382a.42.42 0 0 1 .083.265.452.452 0 0 1-.115.312.856.856 0 0 1-.303.21 1.852 1.852 0 0 1-.429.121c-.16.027-.326.044-.498.049v.376l-.449-.003.001-.382a6.382 6.382 0 0 1-.767-.088 4.8 4.8 0 0 1-.682-.17l.471-.528a4.708 4.708 0 0 0 .663.182c.129.027.554.056.688.067v-.23c-.116-.017-.524-.091-.64-.114a4.446 4.446 0 0 1-.453-.11 1.43 1.43 0 0 1-.313-.133.529.529 0 0 1-.182-.167.395.395 0 0 1-.058-.215c0-.112.034-.21.101-.296a.849.849 0 0 1 .275-.221c.116-.062.251-.11.406-.147.155-.036.32-.06.496-.069v-.314l.448.003v.317a4.894 4.894 0 0 1 .69.099c.107.022.207.046.3.07l.258.068-.472.498a3.198 3.198 0 0 0-.268-.082 3.484 3.484 0 0 0-.277-.066c-.103-.02-.5-.047-.605-.058v.24a22.112 22.112 0 0 1 .517.09c.183.032.348.067.496.105.147.039.273.083.377.135"/>
                </g>
                <g>
                    <path fill="#F1A11F" d="M8.63 60.365c0-1.474 2.622-2.472 5.856-2.472 3.235 0 5.856.998 5.856 2.472s-2.621 2.67-5.856 2.67c-3.234 0-5.856-1.196-5.856-2.67z"/>
                    <path fill="#F1A11F" d="M19.446 59.034a4.002 4.002 0 0 0-.353-.21v.21h-9.09v-.273a4.16 4.16 0 0 0-.478.273H8.63v1.356c0 .65.517 1.247 1.373 1.71v-1.71h9.09v1.64c.782-.452 1.25-1.021 1.25-1.64v-1.356h-.897z"/>
                    <path fill="#FEE34B" d="M14.486 61.766c-3.234 0-5.856-1.196-5.856-2.671 0-1.475 2.622-2.67 5.856-2.67 3.235 0 5.856 1.195 5.856 2.67 0 1.475-2.621 2.67-5.856 2.67"/>
                    <path fill="#EFA71F" d="M14.486 61.098c-2.54 0-4.599-.912-4.599-2.036 0-1.125 2.06-2.037 4.6-2.037 2.54 0 4.598.912 4.598 2.037 0 1.124-2.059 2.036-4.599 2.036"/>
                    <path fill="#FDC010" d="M14.486 61.098c-2.54 0-4.599-.837-4.599-1.87 0-1.032 2.06-1.869 4.6-1.869 2.54 0 4.598.837 4.598 1.87 0 1.032-2.059 1.87-4.599 1.87"/>
                    <path fill="#FEDD00" d="M16.978 58.346l-2.958 2.62a4.303 4.303 0 0 1-.847-.032 3.008 3.008 0 0 1-.577-.145l3.458-3.222c.14.006.303.067.487.184.184.117.33.315.437.595zM15.298 57.674l-3.274 3.021a1.538 1.538 0 0 1-.246-.114.783.783 0 0 1-.155-.148l3.184-2.988a.505.505 0 0 1 .213.025c.07.023.162.091.278.204z"/>
                    <path fill="#E0A600" d="M14.264 58.778v-.236c-.15.01-.224.045-.224.105 0 .03.018.056.056.076.037.02.093.039.168.055m.48.902c.036-.016.055-.038.055-.065 0-.03-.022-.055-.067-.077a.838.838 0 0 0-.179-.058v.23a.581.581 0 0 0 .19-.03m1.149-.382a.42.42 0 0 1 .083.265.452.452 0 0 1-.115.311.856.856 0 0 1-.303.21 1.852 1.852 0 0 1-.429.122c-.16.027-.326.043-.498.049v.376l-.449-.003.001-.382a6.382 6.382 0 0 1-.767-.089 4.8 4.8 0 0 1-.682-.168l.471-.53a4.708 4.708 0 0 0 .663.183c.129.027.554.055.688.067v-.23c-.116-.018-.524-.091-.64-.115a4.446 4.446 0 0 1-.453-.11 1.43 1.43 0 0 1-.313-.132.529.529 0 0 1-.182-.167.395.395 0 0 1-.058-.215c0-.112.034-.211.101-.297a.849.849 0 0 1 .275-.22c.116-.062.251-.11.406-.147.155-.037.32-.06.496-.07v-.313l.448.003v.317a4.894 4.894 0 0 1 .69.098c.107.023.207.046.3.07l.258.069-.472.498a3.198 3.198 0 0 0-.268-.082 3.484 3.484 0 0 0-.277-.066c-.103-.02-.5-.048-.605-.059v.24a22.112 22.112 0 0 1 .517.09c.183.033.348.068.496.106.147.038.273.083.377.134"/>
                </g>
                <g>
                    <path fill="#F1A11F" d="M8.63 58.804c0-1.475 2.622-2.472 5.856-2.472 3.235 0 5.856.997 5.856 2.472 0 1.474-2.621 2.67-5.856 2.67-3.234 0-5.856-1.196-5.856-2.67z"/>
                    <path fill="#F1A11F" d="M19.446 57.473a4.002 4.002 0 0 0-.353-.21v.21h-9.09V57.2a4.16 4.16 0 0 0-.478.273H8.63v1.355c0 .652.517 1.248 1.373 1.71v-1.71h9.09v1.64c.782-.451 1.25-1.02 1.25-1.64v-1.355h-.897z"/>
                    <path fill="#FEE34B" d="M14.486 60.204c-3.234 0-5.856-1.195-5.856-2.67 0-1.475 2.622-2.671 5.856-2.671 3.235 0 5.856 1.196 5.856 2.67 0 1.476-2.621 2.671-5.856 2.671"/>
                    <path fill="#EFA71F" d="M14.486 59.537c-2.54 0-4.599-.912-4.599-2.037 0-1.124 2.06-2.036 4.6-2.036 2.54 0 4.598.912 4.598 2.036 0 1.125-2.059 2.037-4.599 2.037"/>
                    <path fill="#FDC010" d="M14.486 59.537c-2.54 0-4.599-.837-4.599-1.87 0-1.032 2.06-1.87 4.6-1.87 2.54 0 4.598.838 4.598 1.87 0 1.033-2.059 1.87-4.599 1.87"/>
                    <path fill="#FEDD00" d="M16.978 56.784l-2.958 2.62a4.303 4.303 0 0 1-.847-.031 3.008 3.008 0 0 1-.577-.146l3.458-3.22c.14.004.303.065.487.182.184.118.33.316.437.595zM15.298 56.113l-3.274 3.021a1.538 1.538 0 0 1-.246-.115.783.783 0 0 1-.155-.147l3.184-2.989a.505.505 0 0 1 .213.025c.07.024.162.092.278.205z"/>
                    <path fill="#E0A600" d="M14.264 57.217v-.236c-.15.01-.224.044-.224.104 0 .031.018.057.056.077.037.02.093.038.168.055m.48.902c.036-.017.055-.038.055-.065 0-.03-.022-.055-.067-.077a.838.838 0 0 0-.179-.058v.23a.581.581 0 0 0 .19-.03m1.149-.382a.42.42 0 0 1 .083.264.452.452 0 0 1-.115.312.856.856 0 0 1-.303.21 1.852 1.852 0 0 1-.429.122c-.16.027-.326.043-.498.048v.376l-.449-.002.001-.383a6.382 6.382 0 0 1-.767-.088 4.8 4.8 0 0 1-.682-.169l.471-.529a4.708 4.708 0 0 0 .663.183c.129.027.554.055.688.066v-.23c-.116-.017-.524-.09-.64-.114a4.446 4.446 0 0 1-.453-.11 1.43 1.43 0 0 1-.313-.132.529.529 0 0 1-.182-.168.395.395 0 0 1-.058-.215c0-.112.034-.21.101-.296a.849.849 0 0 1 .275-.22c.116-.062.251-.111.406-.148.155-.036.32-.059.496-.068v-.314l.448.002v.317a4.894 4.894 0 0 1 .69.1c.107.022.207.045.3.07.093.024.18.046.258.068l-.472.498a3.198 3.198 0 0 0-.268-.083 3.484 3.484 0 0 0-.277-.065c-.103-.02-.5-.048-.605-.059v.24a22.112 22.112 0 0 1 .517.09c.183.033.348.068.496.106.147.038.273.083.377.134"/>
                </g>
            </g>
            <g>
                <path fill="#F1A11F" d="M14.178 71.001c0-1.513 2.622-2.537 5.856-2.537 3.235 0 5.856 1.024 5.856 2.537s-2.621 2.74-5.856 2.74c-3.234 0-5.856-1.227-5.856-2.74z"/>
                <path fill="#F1A11F" d="M24.994 69.635a3.981 3.981 0 0 0-.353-.215v.215h-9.09v-.28a4.134 4.134 0 0 0-.478.28h-.895v1.391c0 .669.517 1.281 1.373 1.756v-1.756h9.09v1.684c.782-.464 1.25-1.048 1.25-1.684v-1.39h-.897z"/>
                <path fill="#FD0" d="M20.034 72.439c-3.234 0-5.856-1.227-5.856-2.741s2.622-2.741 5.856-2.741c3.235 0 5.856 1.227 5.856 2.74 0 1.515-2.621 2.742-5.856 2.742"/>
                <path fill="#EFA71F" d="M20.034 71.754c-2.54 0-4.599-.936-4.599-2.09s2.06-2.09 4.6-2.09c2.54 0 4.598.936 4.598 2.09s-2.059 2.09-4.599 2.09"/>
                <path fill="#FDC010" d="M20.034 71.754c-2.54 0-4.599-.86-4.599-1.919 0-1.06 2.06-1.919 4.6-1.919 2.54 0 4.598.86 4.598 1.92 0 1.059-2.059 1.918-4.599 1.918"/>
                <path fill="#FEDD00" d="M22.526 68.929l-2.958 2.688a4.194 4.194 0 0 1-.847-.032 2.945 2.945 0 0 1-.577-.149l3.458-3.306c.14.005.303.068.487.188s.33.324.437.61zM20.846 68.24l-3.274 3.1a1.52 1.52 0 0 1-.246-.117.791.791 0 0 1-.155-.152l3.184-3.067a.493.493 0 0 1 .213.026c.069.024.162.094.278.21z"/>
                <path fill="#E0A600" d="M19.812 69.373v-.242c-.15.01-.224.045-.224.107 0 .032.018.058.056.078.037.02.093.04.168.057m.48.925c.036-.017.055-.039.055-.067 0-.03-.022-.056-.067-.078a.823.823 0 0 0-.179-.06v.236a.568.568 0 0 0 .19-.03m1.148-.393a.44.44 0 0 1 .084.272.471.471 0 0 1-.116.32.856.856 0 0 1-.302.215 1.816 1.816 0 0 1-.429.125c-.16.028-.326.044-.498.05v.386l-.449-.003.001-.392a6.225 6.225 0 0 1-.767-.09 4.699 4.699 0 0 1-.682-.174l.471-.543a4.62 4.62 0 0 0 .663.187c.129.028.26.047.395.059v-.281a6.45 6.45 0 0 1-.8-.176 1.41 1.41 0 0 1-.313-.136.534.534 0 0 1-.182-.171.487.487 0 0 1 .043-.525.853.853 0 0 1 .275-.227 1.66 1.66 0 0 1 .406-.15c.155-.038.32-.061.496-.07v-.323l.448.003v.325a4.773 4.773 0 0 1 .69.101c.107.023.207.047.3.072l.258.07-.472.512a3.138 3.138 0 0 0-.268-.085 3.41 3.41 0 0 0-.588-.115v.287c.033.005.069.01.106.018a6.324 6.324 0 0 1 .613.13c.147.04.273.085.377.138a.67.67 0 0 1 .24.191"/>
                <g>
                    <path fill="#F1A11F" d="M14.178 69.436c0-1.513 2.622-2.537 5.856-2.537 3.235 0 5.856 1.024 5.856 2.537s-2.621 2.74-5.856 2.74c-3.234 0-5.856-1.227-5.856-2.74z"/>
                    <path fill="#F1A11F" d="M24.994 68.07a3.981 3.981 0 0 0-.353-.216v.216h-9.09v-.28a4.134 4.134 0 0 0-.478.28h-.895v1.39c0 .67.517 1.282 1.373 1.756v-1.755h9.09v1.684c.782-.464 1.25-1.048 1.25-1.684V68.07h-.897z"/>
                    <path fill="#FEE34B" d="M20.034 70.873c-3.234 0-5.856-1.227-5.856-2.74 0-1.514 2.622-2.742 5.856-2.742 3.235 0 5.856 1.228 5.856 2.741 0 1.514-2.621 2.741-5.856 2.741"/>
                    <path fill="#EFA71F" d="M20.034 70.188c-2.54 0-4.599-.936-4.599-2.09s2.06-2.09 4.6-2.09c2.54 0 4.598.936 4.598 2.09s-2.059 2.09-4.599 2.09"/>
                    <path fill="#FDC010" d="M20.034 70.188c-2.54 0-4.599-.859-4.599-1.918 0-1.06 2.06-1.92 4.6-1.92 2.54 0 4.598.86 4.598 1.92s-2.059 1.918-4.599 1.918"/>
                    <path fill="#FEDD00" d="M22.526 67.363l-2.958 2.689a4.194 4.194 0 0 1-.847-.032 2.945 2.945 0 0 1-.577-.15l3.458-3.305c.14.005.303.068.487.188s.33.323.437.61zM20.846 66.674l-3.274 3.1a1.52 1.52 0 0 1-.246-.117.791.791 0 0 1-.155-.151l3.184-3.067a.493.493 0 0 1 .213.025c.069.024.162.094.278.21z"/>
                    <path fill="#E0A600" d="M19.812 67.807v-.242c-.15.01-.224.046-.224.107 0 .032.018.058.056.079.037.02.093.04.168.056m.48.926c.036-.017.055-.04.055-.067 0-.03-.022-.056-.067-.079a.823.823 0 0 0-.179-.06v.236a.568.568 0 0 0 .19-.03m1.148-.392a.44.44 0 0 1 .084.271.471.471 0 0 1-.116.32.856.856 0 0 1-.302.216 1.816 1.816 0 0 1-.429.125c-.16.027-.326.044-.498.05v.385l-.449-.002.001-.393a6.225 6.225 0 0 1-.767-.09 4.699 4.699 0 0 1-.682-.174l.471-.543a4.62 4.62 0 0 0 .663.188c.129.027.26.047.395.058v-.28a6.45 6.45 0 0 1-.8-.176 1.41 1.41 0 0 1-.313-.136.534.534 0 0 1-.182-.172.487.487 0 0 1 .043-.525.853.853 0 0 1 .275-.226 1.66 1.66 0 0 1 .406-.15c.155-.038.32-.062.496-.071v-.323l.448.003v.325a4.773 4.773 0 0 1 .69.102c.107.023.207.047.3.072l.258.07-.472.511a3.138 3.138 0 0 0-.268-.084 3.41 3.41 0 0 0-.588-.116v.287c.033.005.069.01.106.019.037.007.076.015.117.021.183.033.348.07.496.108.147.04.273.085.377.138a.67.67 0 0 1 .24.192"/>
                </g>
                <g>
                    <path fill="#F1A11F" d="M14.178 67.87c0-1.513 2.622-2.537 5.856-2.537 3.235 0 5.856 1.024 5.856 2.537s-2.621 2.74-5.856 2.74c-3.234 0-5.856-1.227-5.856-2.74z"/>
                    <path fill="#F1A11F" d="M24.994 66.504a3.981 3.981 0 0 0-.353-.215v.215h-9.09v-.28a4.134 4.134 0 0 0-.478.28h-.895v1.391c0 .669.517 1.281 1.373 1.755v-1.755h9.09v1.684c.782-.464 1.25-1.048 1.25-1.684v-1.39h-.897z"/>
                    <path fill="#FEE34B" d="M20.034 69.308c-3.234 0-5.856-1.227-5.856-2.741s2.622-2.741 5.856-2.741c3.235 0 5.856 1.227 5.856 2.74 0 1.515-2.621 2.742-5.856 2.742"/>
                    <path fill="#EFA71F" d="M20.034 68.623c-2.54 0-4.599-.936-4.599-2.09 0-1.155 2.06-2.09 4.6-2.09 2.54 0 4.598.935 4.598 2.09 0 1.154-2.059 2.09-4.599 2.09"/>
                    <path fill="#FDC010" d="M20.034 68.623c-2.54 0-4.599-.86-4.599-1.919 0-1.06 2.06-1.919 4.6-1.919 2.54 0 4.598.86 4.598 1.919 0 1.06-2.059 1.919-4.599 1.919"/>
                    <path fill="#FEDD00" d="M22.526 65.798l-2.958 2.688a4.194 4.194 0 0 1-.847-.032 2.945 2.945 0 0 1-.577-.149l3.458-3.306c.14.005.303.068.487.188s.33.324.437.61zM20.846 65.109l-3.274 3.1a1.52 1.52 0 0 1-.246-.117.791.791 0 0 1-.155-.152l3.184-3.067a.493.493 0 0 1 .213.026c.069.024.162.094.278.21z"/>
                    <path fill="#E0A600" d="M19.812 66.242v-.243c-.15.01-.224.046-.224.108 0 .031.018.058.056.078.037.02.093.04.168.057m.48.925c.036-.017.055-.039.055-.067 0-.03-.022-.056-.067-.078a.823.823 0 0 0-.179-.06v.236a.568.568 0 0 0 .19-.03m1.148-.393a.44.44 0 0 1 .084.272.471.471 0 0 1-.116.32.856.856 0 0 1-.302.215 1.816 1.816 0 0 1-.429.125c-.16.028-.326.044-.498.05v.386l-.449-.003.001-.392a6.225 6.225 0 0 1-.767-.09 4.699 4.699 0 0 1-.682-.174l.471-.543a4.62 4.62 0 0 0 .663.187c.129.028.26.047.395.058v-.28a6.45 6.45 0 0 1-.8-.176 1.41 1.41 0 0 1-.313-.136.534.534 0 0 1-.182-.171.487.487 0 0 1 .043-.525.853.853 0 0 1 .275-.227 1.66 1.66 0 0 1 .406-.15c.155-.038.32-.061.496-.071v-.322l.448.002v.326a4.773 4.773 0 0 1 .69.101c.107.023.207.047.3.072l.258.07-.472.511a3.138 3.138 0 0 0-.268-.084 3.41 3.41 0 0 0-.588-.115v.287c.033.004.069.01.106.018a6.324 6.324 0 0 1 .613.13c.147.039.273.085.377.138a.67.67 0 0 1 .24.191"/>
                </g>
                <g>
                    <path fill="#F1A11F" d="M14.178 66.305c0-1.513 2.622-2.537 5.856-2.537 3.235 0 5.856 1.024 5.856 2.537s-2.621 2.74-5.856 2.74c-3.234 0-5.856-1.227-5.856-2.74z"/>
                    <path fill="#F1A11F" d="M24.994 64.939a3.981 3.981 0 0 0-.353-.216v.216h-9.09v-.28a4.134 4.134 0 0 0-.478.28h-.895v1.39c0 .67.517 1.281 1.373 1.756V66.33h9.09v1.684c.782-.464 1.25-1.048 1.25-1.684v-1.391h-.897z"/>
                    <path fill="#FEE34B" d="M20.034 67.742c-3.234 0-5.856-1.227-5.856-2.74 0-1.515 2.622-2.742 5.856-2.742 3.235 0 5.856 1.227 5.856 2.741s-2.621 2.741-5.856 2.741"/>
                    <path fill="#EFA71F" d="M20.034 67.057c-2.54 0-4.599-.936-4.599-2.09s2.06-2.09 4.6-2.09c2.54 0 4.598.936 4.598 2.09s-2.059 2.09-4.599 2.09"/>
                    <path fill="#FDC010" d="M20.034 67.057c-2.54 0-4.599-.859-4.599-1.919s2.06-1.918 4.6-1.918c2.54 0 4.598.859 4.598 1.918 0 1.06-2.059 1.919-4.599 1.919"/>
                    <path fill="#FEDD00" d="M22.526 64.232l-2.958 2.689a4.194 4.194 0 0 1-.847-.032 2.945 2.945 0 0 1-.577-.15l3.458-3.306c.14.006.303.069.487.189s.33.323.437.61zM20.846 63.543l-3.274 3.1a1.52 1.52 0 0 1-.246-.117.791.791 0 0 1-.155-.151l3.184-3.067a.493.493 0 0 1 .213.025c.069.024.162.094.278.21z"/>
                    <path fill="#E0A600" d="M19.812 64.676v-.242c-.15.01-.224.045-.224.107 0 .032.018.058.056.079.037.02.093.039.168.056m.48.926c.036-.017.055-.04.055-.067 0-.03-.022-.056-.067-.079a.823.823 0 0 0-.179-.06v.236a.568.568 0 0 0 .19-.03m1.148-.393a.44.44 0 0 1 .084.272.471.471 0 0 1-.116.32.856.856 0 0 1-.302.215 1.816 1.816 0 0 1-.429.126c-.16.027-.326.044-.498.05v.385l-.449-.002.001-.393a6.225 6.225 0 0 1-.767-.09 4.699 4.699 0 0 1-.682-.174l.471-.543a4.62 4.62 0 0 0 .663.188c.129.027.554.057.688.068v-.236a21.913 21.913 0 0 1-.64-.117 4.352 4.352 0 0 1-.453-.113 1.41 1.41 0 0 1-.313-.136.534.534 0 0 1-.182-.172.487.487 0 0 1 .043-.525.853.853 0 0 1 .275-.226 1.66 1.66 0 0 1 .406-.151c.155-.037.32-.06.496-.07v-.323l.448.003v.325a4.773 4.773 0 0 1 .69.102c.107.023.207.047.3.072l.258.07-.472.51a3.138 3.138 0 0 0-.268-.084 3.41 3.41 0 0 0-.277-.067c-.103-.02-.5-.049-.605-.06v.247a21.595 21.595 0 0 1 .517.092c.183.033.348.07.496.108.147.04.273.085.377.138"/>
                </g>
            </g>
        </g>
    </g>
</svg>
