<svg xmlns="http://www.w3.org/2000/svg" width="124" height="95" viewBox="0 0 124 95">
    <g fill="none" fill-rule="evenodd">
        <path fill="#F9F6ED" stroke="#DFDFDF" stroke-width="5" d="M19.41 5.5c-1.655 0-2.159.097-2.673.372-.38.203-.662.486-.865.865-.275.514-.372 1.018-.372 2.673v54.76c0 1.654.097 2.158.372 2.672.203.38.486.662.865.865.514.275 1.018.372 2.673.372h94.18c1.655 0 2.159-.097 2.673-.372.38-.203.662-.486.865-.865.275-.514.372-1.018.372-2.673V9.41c0-1.654-.097-2.158-.372-2.672a2.044 2.044 0 0 0-.865-.865c-.514-.275-1.018-.372-2.673-.372H19.41z"/>
        <path fill="#E0D5BD" d="M20.926 22.308h25.099v2.758H20.926zM20.926 27.825h15.191v2.758H20.926z"/>
        <path stroke="#7C7C7C" stroke-linecap="square" stroke-width="2" d="M45.509 61.442l65.136-.086"/>
        <path fill="#E0D5BD" d="M20.926 12.654h21.136v4.827H20.926zM69.142 12.654h42.932v4.827H69.142z"/>
        <path stroke="#7C7C7C" d="M77.4 53.44c-5.243 2.559-14.53 3.582-6.332-1.994 2.584-1.758 5.225 7.148 6.817 7.746 1.218.456 2.085.17 2.883-.202 3.53-1.648 8.225-4.913 10.132-8.047.6-.984-5.995-2.412-6.905 1.797-1.147 5.302 1.16 9.954 2.119 11.633"/>
        <path fill="#E0D5BD" d="M61.075 28.573c0-.173.075-.736 1.038-.736.841 0 1.371.302 1.598.431l.315.18c.116.066.25.018.298-.107l.593-1.563a.22.22 0 0 0-.09-.258l-.232-.135a4.263 4.263 0 0 0-1.652-.545v-1.252a.21.21 0 0 0-.208-.211h-1.537a.21.21 0 0 0-.21.21v1.375c-1.363.381-2.22 1.438-2.22 2.786 0 1.72 1.395 2.497 2.754 3.029 1.173.474 1.335.884 1.335 1.257 0 .545-.494.911-1.23.911a3.434 3.434 0 0 1-1.83-.544l-.332-.22c-.12-.08-.26-.034-.31.104l-.57 1.587a.224.224 0 0 0 .076.244l.196.14c.499.355 1.258.614 2.03.706v1.306c0 .116.093.211.208.211h1.552a.21.21 0 0 0 .208-.21v-1.42c1.407-.398 2.324-1.526 2.324-2.918 0-1.873-1.393-2.68-2.604-3.173-1.283-.53-1.5-.794-1.5-1.185z"/>
        <path fill="#E0D5BD" fill-rule="nonzero" d="M75.108 30.905c.634.198 1.133.542 1.496 1.031.363.49.544 1.053.544 1.69 0 .737-.196 1.367-.59 1.89-.394.521-.928.915-1.603 1.178-.675.264-1.422.396-2.24.396-1.33 0-2.367-.28-3.114-.84-.746-.562-1.12-1.375-1.12-2.442 0-.715.223-1.328.668-1.839.445-.511 1.045-.866 1.802-1.064a2.79 2.79 0 0 1-1.304-1.022 2.65 2.65 0 0 1-.475-1.534c0-.693.192-1.287.575-1.782.383-.494.9-.868 1.55-1.121.649-.253 1.367-.38 2.155-.38.736 0 1.393.122 1.97.363.578.242 1.028.586 1.35 1.031.323.446.484.97.484 1.575 0 .682-.197 1.281-.59 1.798a3.019 3.019 0 0 1-1.558 1.072zm-2.025-.824c.501-.121.87-.303 1.105-.545.235-.242.353-.588.353-1.039 0-.363-.118-.638-.353-.824-.235-.187-.558-.28-.967-.28-.398 0-.728.11-.989.329-.26.22-.391.55-.391.99 0 .681.414 1.138 1.242 1.369zm-.26 4.684c.48 0 .88-.124 1.196-.371.317-.248.476-.608.476-1.08 0-.353-.144-.641-.43-.867-.286-.225-.66-.387-1.12-.486-1.176.242-1.764.758-1.764 1.55 0 .429.143.745.43.949.286.203.69.305 1.212.305zm8.554-.874l-.123 1.83a5.517 5.517 0 0 1-.506 2.02c-.286.6-.736 1.202-1.35 1.807l-.997-.89c.604-.584.992-1.15 1.166-1.7h-1.304l.23-3.067h2.884zm5.67 3.2c-1.288 0-2.272-.452-2.952-1.353-.68-.902-1.02-2.21-1.02-3.926 0-1.407.176-2.614.53-3.62.352-1.006.86-1.776 1.525-2.309.665-.533 1.463-.8 2.393-.8 1.289 0 2.273.45 2.953 1.353.68.901 1.02 2.21 1.02 3.925 0 1.407-.176 2.614-.529 3.62-.353 1.006-.861 1.776-1.526 2.31-.665.533-1.462.8-2.393.8zm.062-2.326c.522 0 .92-.407 1.197-1.22.276-.815.414-2.013.414-3.596 0-.88-.1-1.523-.3-1.93-.199-.407-.513-.61-.943-.61-.521 0-.92.415-1.196 1.245-.276.83-.414 2.02-.414 3.57 0 .88.1 1.524.299 1.93.2.407.514.61.943.61zm9.567 2.325c-1.288 0-2.273-.45-2.953-1.352-.68-.902-1.02-2.21-1.02-3.926 0-1.407.177-2.614.53-3.62.352-1.006.861-1.776 1.526-2.309.665-.533 1.462-.8 2.393-.8 1.288 0 2.273.45 2.953 1.353.68.901 1.02 2.21 1.02 3.925 0 1.407-.177 2.614-.53 3.62-.352 1.006-.861 1.776-1.526 2.31-.664.533-1.462.8-2.393.8zm.062-2.325c.521 0 .92-.407 1.196-1.22.276-.815.414-2.013.414-3.596 0-.88-.1-1.523-.299-1.93-.2-.407-.514-.61-.943-.61-.522 0-.92.415-1.197 1.245-.276.83-.414 2.02-.414 3.57 0 .88.1 1.524.3 1.93.199.407.513.61.943.61zm9.567 2.325c-1.289 0-2.273-.45-2.953-1.352-.68-.902-1.02-2.21-1.02-3.926 0-1.407.176-2.614.529-3.62.353-1.006.861-1.776 1.526-2.309.665-.533 1.463-.8 2.393-.8 1.289 0 2.273.45 2.953 1.353.68.901 1.02 2.21 1.02 3.925 0 1.407-.176 2.614-.53 3.62-.352 1.006-.86 1.776-1.525 2.31-.665.533-1.463.8-2.393.8zm.061-2.325c.522 0 .92-.407 1.196-1.22.277-.815.415-2.013.415-3.596 0-.88-.1-1.523-.3-1.93-.199-.407-.513-.61-.943-.61-.521 0-.92.415-1.196 1.245-.276.83-.415 2.02-.415 3.57 0 .88.1 1.524.3 1.93.199.407.513.61.943.61z"/>
        <g>
            <path fill="#2D8289" d="M35.915 36.367c-7.332 5.028-19.173 21.292-19.173 31.237 0 8.383 2.388 13.662 7.575 18.22 1.538 1.353 3.47 2.102 5.468 2.102h22.201c1.999 0 3.93-.75 5.468-2.101 5.188-4.56 7.576-9.838 7.576-18.22 0-9.946-11.842-26.21-19.174-31.238h-9.941zM50.767 26.927c-.542-.262-1.452-.325-2.024-.14l-2.467.794c-.572.184-1.438.045-1.925-.307l-2.776-2.01c-.487-.352-1.284-.352-1.771 0l-2.775 2.01c-.487.352-1.354.49-1.925.307l-2.47-.795c-.572-.184-1.483-.12-2.024.14l-1.823.88c-.542.262-.63.818-.197 1.235l6.398 6.162c.433.417 1.279.758 1.879.758h7.639c.6 0 1.445-.341 1.88-.758l6.396-6.162c.433-.418.346-.974-.196-1.235l-1.82-.879"/>
            <path fill="#FFF" d="M39.234 60.277c0-.315.136-1.345 1.881-1.345 1.525 0 2.485.553 2.896.789l.572.329c.21.12.452.031.539-.197l1.075-2.858a.404.404 0 0 0-.164-.471l-.419-.247c-.895-.528-1.88-.857-2.994-.997v-2.288a.383.383 0 0 0-.377-.386h-2.787a.383.383 0 0 0-.379.386v2.512c-2.471.698-4.025 2.628-4.025 5.094 0 3.143 2.528 4.564 4.992 5.537 2.127.867 2.42 1.617 2.42 2.298 0 .996-.896 1.666-2.229 1.666-1.15 0-2.39-.372-3.32-.996l-.599-.401c-.22-.148-.473-.062-.563.19l-1.033 2.901a.412.412 0 0 0 .138.446l.355.254c.904.65 2.28 1.125 3.678 1.292v2.389c0 .212.17.385.378.385h2.813a.382.382 0 0 0 .378-.385v-2.595c2.55-.728 4.212-2.79 4.212-5.334 0-3.425-2.524-4.9-4.719-5.802-2.326-.968-2.72-1.45-2.72-2.166z"/>
            <path fill="#E49503" d="M47.249 37.583H34.523c-1.004 0-1.818-.455-1.818-1.015 0-.56.814-1.014 1.818-1.014H47.25c1.004 0 1.818.454 1.818 1.014s-.814 1.015-1.818 1.015"/>
            <g>
                <path fill="#F1A11F" d="M4 84.617c0-2.544 4.204-4.265 9.39-4.265 5.185 0 9.388 1.721 9.388 4.265 0 2.544-4.203 4.607-9.389 4.607C8.204 89.224 4 87.161 4 84.617z"/>
                <path fill="#F1A11F" d="M21.342 82.32a6.335 6.335 0 0 0-.567-.362v.362H6.202v-.47c-.28.147-.535.304-.767.47H4v2.34c0 1.124.828 2.153 2.202 2.951V84.66h14.573v2.831c1.254-.78 2.003-1.762 2.003-2.831v-2.34h-1.436z"/>
                <path fill="#FD0" d="M13.39 87.035c-5.186 0-9.39-2.064-9.39-4.61 0-2.545 4.204-4.608 9.39-4.608 5.185 0 9.388 2.063 9.388 4.609 0 2.545-4.203 4.609-9.389 4.609"/>
                <path fill="#EFA71F" d="M13.39 85.883c-4.073 0-7.374-1.574-7.374-3.515 0-1.94 3.3-3.514 7.373-3.514s7.374 1.573 7.374 3.514c0 1.941-3.301 3.515-7.374 3.515"/>
                <path fill="#FDC010" d="M13.39 85.883c-4.073 0-7.374-1.445-7.374-3.227 0-1.782 3.3-3.226 7.373-3.226s7.374 1.444 7.374 3.226-3.301 3.227-7.374 3.227"/>
                <path fill="#FEDD00" d="M17.384 81.132l-4.743 4.521c-.548.026-1 .008-1.357-.054a4.546 4.546 0 0 1-.925-.25l5.543-5.56c.226.01.487.115.782.317.295.202.528.544.7 1.026zM14.69 79.974l-5.249 5.214c-.19-.081-.32-.147-.393-.198a1.298 1.298 0 0 1-.25-.255l5.106-5.157a.756.756 0 0 1 .34.042c.112.04.26.159.447.354z"/>
                <path fill="#E0A600" d="M13.032 81.88v-.408c-.239.016-.358.076-.358.18 0 .053.029.098.089.132s.15.066.27.095m.768 1.556c.06-.028.09-.065.09-.112 0-.05-.036-.094-.108-.132a1.278 1.278 0 0 0-.286-.101l-.001.397a.873.873 0 0 0 .305-.052m1.841-.66c.09.127.135.279.134.458 0 .21-.062.39-.185.538a1.376 1.376 0 0 1-.486.362c-.2.093-.429.163-.686.21a5.5 5.5 0 0 1-.8.084v.649l-.719-.005.001-.66a9.537 9.537 0 0 1-1.229-.152 7.25 7.25 0 0 1-1.094-.291l.755-.913a7.318 7.318 0 0 0 1.063.315c.207.046.418.079.633.098l.001-.472a9.907 9.907 0 0 1-.556-.106 6.712 6.712 0 0 1-.727-.19 2.208 2.208 0 0 1-.502-.228.876.876 0 0 1-.291-.289.721.721 0 0 1-.094-.37c0-.194.055-.365.163-.512.108-.148.255-.275.44-.381.186-.106.403-.19.651-.254.249-.062.514-.102.795-.118v-.542l.72.004-.002.548c.197.015.389.038.574.068a8.882 8.882 0 0 1 1.014.223l.413.118-.756.86a4.862 4.862 0 0 0-.43-.143 5.255 5.255 0 0 0-.943-.193v.483c.054.007.11.017.17.03.06.013.123.025.188.036.293.056.558.116.795.182.236.066.437.143.605.232.167.089.296.196.385.322"/>
                <g>
                    <path fill="#F1A11F" d="M4 81.923c0-2.545 4.204-4.266 9.39-4.266 5.185 0 9.388 1.721 9.388 4.266 0 2.544-4.203 4.607-9.389 4.607C8.204 86.53 4 84.467 4 81.923z"/>
                    <path fill="#F1A11F" d="M21.342 79.626a6.335 6.335 0 0 0-.567-.362v.362H6.202v-.471c-.28.147-.535.305-.767.47H4v2.34c0 1.124.828 2.154 2.202 2.951v-2.95h14.573v2.83c1.254-.78 2.003-1.762 2.003-2.83v-2.34h-1.436z"/>
                    <path fill="#FEE34B" d="M13.39 84.34C8.203 84.34 4 82.277 4 79.731c0-2.545 4.204-4.609 9.39-4.609 5.185 0 9.388 2.064 9.388 4.609 0 2.546-4.203 4.61-9.389 4.61"/>
                    <path fill="#EFA71F" d="M13.39 83.188c-4.073 0-7.374-1.573-7.374-3.514 0-1.941 3.3-3.515 7.373-3.515s7.374 1.574 7.374 3.515c0 1.94-3.301 3.514-7.374 3.514"/>
                    <path fill="#FDC010" d="M13.39 83.188c-4.073 0-7.374-1.445-7.374-3.226 0-1.782 3.3-3.227 7.373-3.227s7.374 1.445 7.374 3.227c0 1.781-3.301 3.226-7.374 3.226"/>
                    <path fill="#FEDD00" d="M17.384 78.438l-4.743 4.52c-.548.026-1 .008-1.357-.053a4.546 4.546 0 0 1-.925-.251l5.543-5.56c.226.01.487.115.782.317.295.202.528.544.7 1.027zM14.69 77.28l-5.249 5.213c-.19-.08-.32-.147-.393-.198a1.298 1.298 0 0 1-.25-.254l5.106-5.158a.756.756 0 0 1 .34.043c.112.04.26.158.447.353z"/>
                    <path fill="#E0A600" d="M13.032 79.185v-.408c-.239.017-.358.077-.358.18 0 .054.029.098.089.132.06.035.15.067.27.096m.768 1.555c.06-.028.09-.065.09-.112 0-.05-.036-.094-.108-.132a1.278 1.278 0 0 0-.286-.1l-.001.396a.873.873 0 0 0 .305-.052m1.841-.659c.09.126.135.278.134.457 0 .211-.062.39-.185.538a1.376 1.376 0 0 1-.486.362c-.2.094-.429.164-.686.21a5.5 5.5 0 0 1-.8.084v.65l-.719-.005.001-.66a9.537 9.537 0 0 1-1.229-.153 7.25 7.25 0 0 1-1.094-.29l.755-.914a7.318 7.318 0 0 0 1.063.315c.207.046.418.08.633.098l.001-.472a9.907 9.907 0 0 1-.556-.105 6.712 6.712 0 0 1-.727-.19 2.208 2.208 0 0 1-.502-.229.876.876 0 0 1-.291-.288.721.721 0 0 1-.094-.371c0-.193.055-.364.163-.512.108-.148.255-.275.44-.38.186-.107.403-.191.651-.254.249-.063.514-.103.795-.119v-.542l.72.005-.002.547c.197.016.389.038.574.068a8.882 8.882 0 0 1 1.014.224l.413.118-.756.859a4.862 4.862 0 0 0-.43-.142 5.255 5.255 0 0 0-.943-.194v.483c.054.008.11.018.17.03.06.013.123.026.188.037.293.055.558.116.795.182.236.066.437.143.605.231.167.09.296.196.385.322"/>
                </g>
                <g>
                    <path fill="#F1A11F" d="M4 79.228c0-2.544 4.204-4.265 9.39-4.265 5.185 0 9.388 1.721 9.388 4.265 0 2.544-4.203 4.607-9.389 4.607C8.204 83.835 4 81.772 4 79.228z"/>
                    <path fill="#F1A11F" d="M21.342 76.931a6.335 6.335 0 0 0-.567-.362v.362H6.202v-.47c-.28.147-.535.304-.767.47H4v2.34c0 1.124.828 2.153 2.202 2.95v-2.95h14.573v2.831c1.254-.78 2.003-1.762 2.003-2.831v-2.34h-1.436z"/>
                    <path fill="#FEE34B" d="M13.39 81.646c-5.186 0-9.39-2.064-9.39-4.61 0-2.545 4.204-4.608 9.39-4.608 5.185 0 9.388 2.063 9.388 4.609 0 2.545-4.203 4.609-9.389 4.609"/>
                    <path fill="#EFA71F" d="M13.39 80.494c-4.073 0-7.374-1.574-7.374-3.515 0-1.94 3.3-3.514 7.373-3.514s7.374 1.573 7.374 3.514c0 1.941-3.301 3.515-7.374 3.515"/>
                    <path fill="#FDC010" d="M13.39 80.494c-4.073 0-7.374-1.445-7.374-3.227 0-1.782 3.3-3.226 7.373-3.226s7.374 1.444 7.374 3.226-3.301 3.227-7.374 3.227"/>
                    <path fill="#FEDD00" d="M17.384 75.743l-4.743 4.521c-.548.026-1 .008-1.357-.054a4.546 4.546 0 0 1-.925-.25l5.543-5.56c.226.01.487.115.782.317.295.202.528.544.7 1.026zM14.69 74.585l-5.249 5.214c-.19-.081-.32-.147-.393-.199a1.298 1.298 0 0 1-.25-.254l5.106-5.157a.756.756 0 0 1 .34.042c.112.04.26.159.447.354z"/>
                    <path fill="#E0A600" d="M13.032 76.49v-.407c-.239.016-.358.076-.358.18 0 .053.029.097.089.132.06.034.15.066.27.095m.768 1.556c.06-.028.09-.065.09-.112 0-.05-.036-.094-.108-.132a1.278 1.278 0 0 0-.286-.101l-.001.397a.873.873 0 0 0 .305-.052m1.841-.66c.09.127.135.279.134.458 0 .21-.062.39-.185.538a1.376 1.376 0 0 1-.486.362c-.2.093-.429.163-.686.21a5.5 5.5 0 0 1-.8.084v.649l-.719-.005.001-.66a9.537 9.537 0 0 1-1.229-.152 7.25 7.25 0 0 1-1.094-.291l.755-.913a7.318 7.318 0 0 0 1.063.315c.207.046.418.079.633.098l.001-.472a9.907 9.907 0 0 1-.556-.106 6.712 6.712 0 0 1-.727-.19 2.208 2.208 0 0 1-.502-.228.876.876 0 0 1-.291-.289.721.721 0 0 1-.094-.37c0-.194.055-.365.163-.512.108-.148.255-.275.44-.381.186-.106.403-.19.651-.254.249-.062.514-.102.795-.118v-.542l.72.004-.002.548c.197.015.389.038.574.068a8.882 8.882 0 0 1 1.014.223l.413.118-.756.86a4.862 4.862 0 0 0-.43-.143 5.255 5.255 0 0 0-.943-.193v.483c.054.007.11.017.17.03.06.013.123.025.188.036.293.056.558.116.795.182.236.066.437.143.605.232.167.089.296.196.385.322"/>
                </g>
                <g>
                    <path fill="#F1A11F" d="M4 76.534c0-2.545 4.204-4.266 9.39-4.266 5.185 0 9.388 1.721 9.388 4.266 0 2.544-4.203 4.607-9.389 4.607C8.204 81.14 4 79.078 4 76.534z"/>
                    <path fill="#F1A11F" d="M21.342 74.237a6.335 6.335 0 0 0-.567-.362v.362H6.202v-.471c-.28.147-.535.305-.767.47H4v2.34c0 1.124.828 2.154 2.202 2.951v-2.95h14.573v2.83c1.254-.78 2.003-1.762 2.003-2.83v-2.34h-1.436z"/>
                    <path fill="#FEE34B" d="M13.39 78.951c-5.186 0-9.39-2.063-9.39-4.609 0-2.545 4.204-4.609 9.39-4.609 5.185 0 9.388 2.064 9.388 4.609 0 2.546-4.203 4.61-9.389 4.61"/>
                    <path fill="#EFA71F" d="M13.39 77.799c-4.073 0-7.374-1.574-7.374-3.514 0-1.941 3.3-3.515 7.373-3.515s7.374 1.574 7.374 3.515c0 1.94-3.301 3.514-7.374 3.514"/>
                    <path fill="#FDC010" d="M13.39 77.799c-4.073 0-7.374-1.445-7.374-3.226 0-1.782 3.3-3.227 7.373-3.227s7.374 1.445 7.374 3.227c0 1.781-3.301 3.226-7.374 3.226"/>
                    <path fill="#FEDD00" d="M17.384 73.049l-4.743 4.52c-.548.026-1 .008-1.357-.053a4.546 4.546 0 0 1-.925-.251l5.543-5.56c.226.01.487.115.782.317.295.202.528.544.7 1.027zM14.69 71.89l-5.249 5.214c-.19-.08-.32-.147-.393-.198a1.298 1.298 0 0 1-.25-.254l5.106-5.158a.756.756 0 0 1 .34.043c.112.04.26.158.447.353z"/>
                    <path fill="#E0A600" d="M13.032 73.796v-.408c-.239.017-.358.077-.358.18 0 .054.029.098.089.132.06.035.15.067.27.096m.768 1.555c.06-.028.09-.065.09-.112 0-.05-.036-.094-.108-.132a1.278 1.278 0 0 0-.286-.1l-.001.396a.873.873 0 0 0 .305-.052m1.841-.659c.09.126.135.278.134.457 0 .211-.062.39-.185.538a1.376 1.376 0 0 1-.486.362c-.2.094-.429.164-.686.21a5.5 5.5 0 0 1-.8.084v.65l-.719-.005.001-.66a9.537 9.537 0 0 1-1.229-.153 7.25 7.25 0 0 1-1.094-.29l.755-.914a7.318 7.318 0 0 0 1.063.315c.207.046.888.096 1.103.115v-.397c-.186-.03-.84-.157-1.025-.197a6.712 6.712 0 0 1-.727-.19 2.208 2.208 0 0 1-.502-.229.876.876 0 0 1-.291-.288.721.721 0 0 1-.094-.371c0-.193.055-.364.163-.512.108-.148.255-.275.44-.38.186-.107.403-.191.651-.254.249-.063.514-.103.795-.119v-.542l.72.005-.002.547c.197.016.389.038.574.068a8.882 8.882 0 0 1 1.014.224l.413.118-.756.859a4.862 4.862 0 0 0-.43-.142 5.255 5.255 0 0 0-.444-.113c-.165-.035-.803-.082-.97-.101v.415a33.162 33.162 0 0 1 .83.155c.292.055.557.116.794.182.236.066.437.143.605.231"/>
                </g>
                <g>
                    <path fill="#F1A11F" d="M4 73.84c0-2.545 4.204-4.266 9.39-4.266 5.185 0 9.388 1.72 9.388 4.265 0 2.544-4.203 4.607-9.389 4.607C8.204 78.446 4 76.383 4 73.84z"/>
                    <path fill="#F1A11F" d="M21.342 71.542a6.335 6.335 0 0 0-.567-.362v.362H6.202v-.47c-.28.147-.535.304-.767.47H4v2.34c0 1.124.828 2.153 2.202 2.95v-2.95h14.573v2.831c1.254-.78 2.003-1.762 2.003-2.831v-2.34h-1.436z"/>
                    <path fill="#FEE34B" d="M13.39 76.257c-5.186 0-9.39-2.064-9.39-4.61 0-2.545 4.204-4.608 9.39-4.608 5.185 0 9.388 2.063 9.388 4.608 0 2.546-4.203 4.61-9.389 4.61"/>
                    <path fill="#EFA71F" d="M13.39 75.104c-4.073 0-7.374-1.573-7.374-3.514 0-1.94 3.3-3.514 7.373-3.514s7.374 1.573 7.374 3.514c0 1.941-3.301 3.514-7.374 3.514"/>
                    <path fill="#FDC010" d="M13.39 75.104c-4.073 0-7.374-1.444-7.374-3.226s3.3-3.226 7.373-3.226 7.374 1.444 7.374 3.226-3.301 3.226-7.374 3.226"/>
                    <path fill="#FEDD00" d="M17.384 70.354l-4.743 4.521c-.548.026-1 .008-1.357-.054a4.546 4.546 0 0 1-.925-.25l5.543-5.56c.226.01.487.115.782.317.295.202.528.544.7 1.026zM14.69 69.196L9.442 74.41c-.19-.081-.32-.147-.393-.199a1.298 1.298 0 0 1-.25-.254l5.106-5.157a.756.756 0 0 1 .34.042c.112.04.26.159.447.354z"/>
                    <path fill="#E0A600" d="M13.032 71.101v-.407c-.239.016-.358.076-.358.18 0 .053.029.097.089.132.06.034.15.066.27.095m.768 1.556c.06-.028.09-.065.09-.112 0-.05-.036-.094-.108-.132a1.278 1.278 0 0 0-.286-.101l-.001.397a.873.873 0 0 0 .305-.052m1.841-.66c.09.127.135.279.134.458 0 .21-.062.39-.185.538a1.376 1.376 0 0 1-.486.362c-.2.093-.429.163-.686.21a5.5 5.5 0 0 1-.8.084v.649l-.719-.005.001-.66a9.537 9.537 0 0 1-1.229-.152 7.25 7.25 0 0 1-1.094-.291l.755-.913a7.318 7.318 0 0 0 1.063.315c.207.046.888.095 1.103.114v-.396c-.186-.03-.84-.157-1.025-.198a6.712 6.712 0 0 1-.727-.19 2.208 2.208 0 0 1-.502-.228.876.876 0 0 1-.291-.289.721.721 0 0 1-.094-.37c0-.194.055-.365.163-.512.108-.148.255-.275.44-.381.186-.106.403-.19.651-.254.249-.062.514-.102.795-.118v-.542l.72.004-.002.548c.197.015.389.038.574.068a8.882 8.882 0 0 1 1.014.223l.413.118-.756.86a4.862 4.862 0 0 0-.43-.143 5.255 5.255 0 0 0-.444-.112c-.165-.036-.803-.083-.97-.102v.415a33.162 33.162 0 0 1 .83.155c.292.056.557.116.794.182.236.066.437.143.605.232"/>
                </g>
                <g>
                    <path fill="#F1A11F" d="M4 71.145c0-2.545 4.204-4.266 9.39-4.266 5.185 0 9.388 1.721 9.388 4.266 0 2.544-4.203 4.607-9.389 4.607C8.204 75.752 4 73.689 4 71.145z"/>
                    <path fill="#F1A11F" d="M21.342 68.848a6.335 6.335 0 0 0-.567-.362v.362H6.202v-.471c-.28.147-.535.305-.767.47H4v2.34c0 1.124.828 2.154 2.202 2.951v-2.95h14.573v2.83c1.254-.78 2.003-1.762 2.003-2.83v-2.34h-1.436z"/>
                    <path fill="#FEE34B" d="M13.39 73.562C8.203 73.562 4 71.5 4 68.953c0-2.545 4.204-4.609 9.39-4.609 5.185 0 9.388 2.064 9.388 4.609 0 2.546-4.203 4.61-9.389 4.61"/>
                    <path fill="#EFA71F" d="M13.39 72.41c-4.073 0-7.374-1.574-7.374-3.514 0-1.941 3.3-3.515 7.373-3.515s7.374 1.574 7.374 3.515c0 1.94-3.301 3.514-7.374 3.514"/>
                    <path fill="#FDC010" d="M13.39 72.41c-4.073 0-7.374-1.445-7.374-3.226 0-1.782 3.3-3.227 7.373-3.227s7.374 1.445 7.374 3.227c0 1.781-3.301 3.226-7.374 3.226"/>
                    <path fill="#FEDD00" d="M17.384 67.66l-4.743 4.52c-.548.026-1 .008-1.357-.053a4.546 4.546 0 0 1-.925-.251l5.543-5.56c.226.01.487.115.782.317.295.202.528.544.7 1.027zM14.69 66.501l-5.249 5.214c-.19-.08-.32-.147-.393-.198a1.298 1.298 0 0 1-.25-.254l5.106-5.158a.756.756 0 0 1 .34.043c.112.04.26.158.447.353z"/>
                    <path fill="#E0A600" d="M13.032 68.407v-.408c-.239.017-.358.077-.358.18 0 .054.029.098.089.132.06.035.15.067.27.096m.768 1.555c.06-.028.09-.065.09-.112 0-.05-.036-.094-.108-.132a1.278 1.278 0 0 0-.286-.1l-.001.396a.873.873 0 0 0 .305-.052m1.841-.659c.09.126.135.278.134.457 0 .211-.062.39-.185.538a1.376 1.376 0 0 1-.486.362c-.2.094-.429.164-.686.21a5.5 5.5 0 0 1-.8.084v.65l-.719-.005.001-.66a9.537 9.537 0 0 1-1.229-.153 7.25 7.25 0 0 1-1.094-.29l.755-.914a7.318 7.318 0 0 0 1.063.315c.207.046.888.096 1.103.115v-.397c-.186-.03-.84-.157-1.025-.197a6.712 6.712 0 0 1-.727-.19 2.208 2.208 0 0 1-.502-.229.876.876 0 0 1-.291-.288.721.721 0 0 1-.094-.371c0-.193.055-.364.163-.512.108-.148.255-.275.44-.38.186-.107.403-.191.651-.254.249-.063.514-.103.795-.119v-.542l.72.005-.002.547c.197.016.389.038.574.068a8.882 8.882 0 0 1 1.014.224l.413.118-.756.859a4.862 4.862 0 0 0-.43-.142 5.255 5.255 0 0 0-.444-.113c-.165-.035-.803-.083-.97-.101v.415a33.162 33.162 0 0 1 .83.155c.292.055.557.116.794.182.236.065.437.143.605.231"/>
                </g>
                <g>
                    <path fill="#F1A11F" d="M4 68.45c0-2.544 4.204-4.265 9.39-4.265 5.185 0 9.388 1.72 9.388 4.265 0 2.544-4.203 4.607-9.389 4.607C8.204 73.057 4 70.994 4 68.45z"/>
                    <path fill="#F1A11F" d="M21.342 66.153a6.335 6.335 0 0 0-.567-.362v.362H6.202v-.47c-.28.147-.535.304-.767.47H4v2.34c0 1.124.828 2.153 2.202 2.95v-2.95h14.573v2.831c1.254-.78 2.003-1.762 2.003-2.831v-2.34h-1.436z"/>
                    <path fill="#FEE34B" d="M13.39 70.868c-5.186 0-9.39-2.064-9.39-4.61 0-2.545 4.204-4.609 9.39-4.609 5.185 0 9.388 2.064 9.388 4.61 0 2.545-4.203 4.609-9.389 4.609"/>
                    <path fill="#EFA71F" d="M13.39 69.715c-4.073 0-7.374-1.573-7.374-3.514 0-1.94 3.3-3.514 7.373-3.514s7.374 1.573 7.374 3.514c0 1.941-3.301 3.514-7.374 3.514"/>
                    <path fill="#FDC010" d="M13.39 69.715c-4.073 0-7.374-1.444-7.374-3.226s3.3-3.226 7.373-3.226 7.374 1.444 7.374 3.226-3.301 3.226-7.374 3.226"/>
                    <path fill="#FEDD00" d="M17.384 64.965l-4.743 4.521c-.548.026-1 .008-1.357-.054a4.546 4.546 0 0 1-.925-.25l5.543-5.56c.226.01.487.115.782.317.295.202.528.544.7 1.026zM14.69 63.807L9.442 69.02c-.19-.081-.32-.147-.393-.199a1.298 1.298 0 0 1-.25-.254l5.106-5.157a.756.756 0 0 1 .34.042c.112.04.26.159.447.354z"/>
                    <path fill="#E0A600" d="M13.032 65.712v-.407c-.239.016-.358.076-.358.18 0 .053.029.097.089.132.06.034.15.066.27.095m.768 1.556c.06-.028.09-.065.09-.112 0-.05-.036-.094-.108-.132a1.278 1.278 0 0 0-.286-.101l-.001.397a.873.873 0 0 0 .305-.052m1.841-.66c.09.126.135.279.134.458 0 .21-.062.39-.185.538a1.376 1.376 0 0 1-.486.362c-.2.093-.429.163-.686.21a5.5 5.5 0 0 1-.8.084v.649l-.719-.005.001-.66a9.537 9.537 0 0 1-1.229-.152 7.25 7.25 0 0 1-1.094-.291l.755-.913a7.318 7.318 0 0 0 1.063.315c.207.046.888.095 1.103.114v-.396c-.186-.03-.84-.157-1.025-.198a6.712 6.712 0 0 1-.727-.19 2.208 2.208 0 0 1-.502-.228.876.876 0 0 1-.291-.289.721.721 0 0 1-.094-.37c0-.194.055-.365.163-.512.108-.148.255-.275.44-.381.186-.106.403-.19.651-.254.249-.062.514-.102.795-.118v-.542l.72.004-.002.548c.197.015.389.038.574.068a8.882 8.882 0 0 1 1.014.223l.413.118-.756.86a4.862 4.862 0 0 0-.43-.143 5.255 5.255 0 0 0-.444-.113c-.165-.035-.803-.082-.97-.1v.414a33.162 33.162 0 0 1 .83.155c.292.056.557.116.794.182.236.066.437.143.605.232"/>
                </g>
            </g>
            <g>
                <path fill="#F1A11F" d="M14.06 89.238c0-2.501 4.053-4.194 9.054-4.194 5 0 9.053 1.693 9.053 4.194s-4.053 4.529-9.053 4.529c-5 0-9.054-2.028-9.054-4.53z"/>
                <path fill="#F1A11F" d="M30.782 86.98a6.095 6.095 0 0 0-.547-.356v.356H16.183v-.463c-.27.145-.516.3-.74.463H14.06v2.3c0 1.105.799 2.117 2.123 2.901V89.28h14.052v2.783c1.21-.767 1.932-1.732 1.932-2.783v-2.3h-1.385z"/>
                <path fill="#FD0" d="M23.114 91.615c-5 0-9.054-2.03-9.054-4.532 0-2.502 4.053-4.53 9.054-4.53 5 0 9.053 2.028 9.053 4.53 0 2.503-4.053 4.532-9.053 4.532"/>
                <path fill="#EFA71F" d="M23.114 90.482c-3.927 0-7.11-1.547-7.11-3.455 0-1.908 3.183-3.455 7.11-3.455 3.927 0 7.11 1.547 7.11 3.455 0 1.908-3.183 3.455-7.11 3.455"/>
                <path fill="#FDC010" d="M23.114 90.482c-3.927 0-7.11-1.42-7.11-3.172 0-1.752 3.183-3.172 7.11-3.172 3.927 0 7.11 1.42 7.11 3.172 0 1.752-3.183 3.172-7.11 3.172"/>
                <path fill="#FEDD00" d="M26.966 85.812l-4.574 4.444c-.528.026-.965.008-1.308-.053a4.318 4.318 0 0 1-.893-.246l5.346-5.465c.218.008.47.112.753.31.285.2.51.536.676 1.01zM24.369 84.673l-5.062 5.126a2.29 2.29 0 0 1-.38-.195c-.07-.05-.15-.134-.24-.25l4.923-5.07a.716.716 0 0 1 .328.041c.108.04.251.156.43.348z"/>
                <path fill="#E0A600" d="M22.77 86.546v-.4c-.23.016-.346.075-.346.177 0 .052.028.096.086.13.058.033.144.065.26.093m.74 1.53c.058-.028.087-.065.088-.11 0-.05-.035-.093-.104-.13a1.217 1.217 0 0 0-.277-.1v.39a.827.827 0 0 0 .294-.05m1.775-.648c.087.123.13.273.13.449 0 .207-.06.384-.18.529a1.329 1.329 0 0 1-.467.356c-.194.092-.414.16-.663.206a5.205 5.205 0 0 1-.77.083l-.001.638-.693-.005.001-.648a9.029 9.029 0 0 1-1.185-.15 6.884 6.884 0 0 1-1.055-.287l.728-.897a6.948 6.948 0 0 0 1.025.31c.2.045.403.077.61.096l.001-.464a9.39 9.39 0 0 1-.536-.104 6.373 6.373 0 0 1-.7-.186 2.11 2.11 0 0 1-.485-.225.853.853 0 0 1-.281-.284.72.72 0 0 1-.09-.365c0-.19.052-.357.157-.502.104-.146.245-.27.424-.375.18-.104.389-.187.628-.25.24-.06.495-.1.766-.116l.001-.533.693.005-.001.538c.19.015.375.038.554.067a8.418 8.418 0 0 1 .977.22l.398.116-.729.844a4.625 4.625 0 0 0-.415-.14 4.989 4.989 0 0 0-.908-.19v.475c.051.007.106.017.163.03a9.234 9.234 0 0 1 .948.214c.228.065.422.141.584.228.16.087.285.193.371.317"/>
                <g>
                    <path fill="#F1A11F" d="M14.06 86.65c0-2.501 4.053-4.194 9.054-4.194 5 0 9.053 1.693 9.053 4.194s-4.053 4.529-9.053 4.529c-5 0-9.054-2.028-9.054-4.53z"/>
                    <path fill="#F1A11F" d="M30.782 84.392a6.095 6.095 0 0 0-.547-.356v.356H16.183v-.463c-.27.145-.516.3-.74.463H14.06v2.3c0 1.105.799 2.117 2.123 2.901v-2.901h14.052v2.783c1.21-.767 1.932-1.733 1.932-2.783v-2.3h-1.385z"/>
                    <path fill="#FEE34B" d="M23.114 89.027c-5 0-9.054-2.03-9.054-4.532 0-2.502 4.053-4.53 9.054-4.53 5 0 9.053 2.028 9.053 4.53 0 2.503-4.053 4.532-9.053 4.532"/>
                    <path fill="#EFA71F" d="M23.114 87.894c-3.927 0-7.11-1.547-7.11-3.455 0-1.908 3.183-3.455 7.11-3.455 3.927 0 7.11 1.547 7.11 3.455 0 1.908-3.183 3.455-7.11 3.455"/>
                    <path fill="#FDC010" d="M23.114 87.894c-3.927 0-7.11-1.42-7.11-3.172 0-1.752 3.183-3.172 7.11-3.172 3.927 0 7.11 1.42 7.11 3.172 0 1.752-3.183 3.172-7.11 3.172"/>
                    <path fill="#FEDD00" d="M26.966 83.224l-4.574 4.444c-.528.026-.965.008-1.308-.053a4.318 4.318 0 0 1-.893-.246l5.346-5.466c.218.01.47.113.753.312.285.198.51.535.676 1.009zM24.369 82.085l-5.062 5.126a2.29 2.29 0 0 1-.38-.195c-.07-.05-.15-.134-.24-.25l4.923-5.07a.716.716 0 0 1 .328.041c.108.04.251.156.43.348z"/>
                    <path fill="#E0A600" d="M22.77 83.958v-.4c-.23.016-.346.075-.346.177 0 .052.028.096.086.13.058.033.144.064.26.093m.74 1.53c.058-.028.087-.065.088-.11 0-.05-.035-.093-.104-.13a1.217 1.217 0 0 0-.277-.1v.39a.827.827 0 0 0 .294-.05m1.775-.649c.087.124.13.274.13.45 0 .207-.06.384-.18.529a1.329 1.329 0 0 1-.467.356c-.194.092-.414.16-.663.206a5.205 5.205 0 0 1-.77.082l-.001.639-.693-.005.001-.648a9.029 9.029 0 0 1-1.185-.15 6.884 6.884 0 0 1-1.055-.287l.728-.897a6.948 6.948 0 0 0 1.025.31c.2.045.403.077.61.096l.001-.464a9.39 9.39 0 0 1-.536-.104 6.373 6.373 0 0 1-.7-.187 2.11 2.11 0 0 1-.485-.224.853.853 0 0 1-.281-.284.72.72 0 0 1-.09-.365c0-.19.052-.357.157-.502.104-.146.245-.27.424-.375.18-.104.389-.187.628-.25.24-.061.495-.1.766-.116l.001-.533.693.005-.001.538c.19.015.375.038.554.067a8.418 8.418 0 0 1 .977.22l.398.116-.729.844a4.625 4.625 0 0 0-.415-.14 4.989 4.989 0 0 0-.908-.19v.475c.051.007.106.017.163.03a9.234 9.234 0 0 1 .948.214c.228.065.422.14.584.228.16.087.285.193.371.316"/>
                </g>
                <g>
                    <path fill="#F1A11F" d="M14.06 84.062c0-2.501 4.053-4.194 9.054-4.194 5 0 9.053 1.693 9.053 4.194 0 2.5-4.053 4.529-9.053 4.529-5 0-9.054-2.028-9.054-4.53z"/>
                    <path fill="#F1A11F" d="M30.782 81.804a6.095 6.095 0 0 0-.547-.356v.356H16.183v-.463c-.27.145-.516.3-.74.463H14.06v2.3c0 1.105.799 2.117 2.123 2.9v-2.9h14.052v2.783c1.21-.767 1.932-1.733 1.932-2.783v-2.3h-1.385z"/>
                    <path fill="#FEE34B" d="M23.114 86.439c-5 0-9.054-2.03-9.054-4.532 0-2.502 4.053-4.531 9.054-4.531 5 0 9.053 2.029 9.053 4.531 0 2.503-4.053 4.532-9.053 4.532"/>
                    <path fill="#EFA71F" d="M23.114 85.306c-3.927 0-7.11-1.547-7.11-3.455 0-1.908 3.183-3.455 7.11-3.455 3.927 0 7.11 1.547 7.11 3.455 0 1.908-3.183 3.455-7.11 3.455"/>
                    <path fill="#FDC010" d="M23.114 85.306c-3.927 0-7.11-1.42-7.11-3.172 0-1.752 3.183-3.172 7.11-3.172 3.927 0 7.11 1.42 7.11 3.172 0 1.752-3.183 3.172-7.11 3.172"/>
                    <path fill="#FEDD00" d="M26.966 80.636l-4.574 4.444c-.528.026-.965.008-1.308-.053a4.318 4.318 0 0 1-.893-.246l5.346-5.466c.218.01.47.113.753.312.285.198.51.535.676 1.009zM24.369 79.497l-5.062 5.126a2.29 2.29 0 0 1-.38-.195c-.07-.05-.15-.134-.24-.25l4.923-5.07a.716.716 0 0 1 .328.041c.108.04.251.156.43.348z"/>
                    <path fill="#E0A600" d="M22.77 81.37v-.4c-.23.016-.346.075-.346.177 0 .052.028.096.086.13.058.033.144.064.26.093m.74 1.53c.058-.028.087-.065.088-.11 0-.05-.035-.093-.104-.13a1.217 1.217 0 0 0-.277-.1v.39a.827.827 0 0 0 .294-.05m1.775-.649c.087.124.13.274.13.45 0 .207-.06.383-.18.529a1.329 1.329 0 0 1-.467.355c-.194.093-.414.161-.663.207a5.205 5.205 0 0 1-.77.082l-.001.639-.693-.005.001-.649a9.029 9.029 0 0 1-1.185-.15 6.884 6.884 0 0 1-1.055-.286l.728-.897a6.948 6.948 0 0 0 1.025.31c.2.045.403.077.61.096l.001-.464a9.39 9.39 0 0 1-.536-.104 6.373 6.373 0 0 1-.7-.187 2.11 2.11 0 0 1-.485-.224.853.853 0 0 1-.281-.284.72.72 0 0 1-.09-.365c0-.19.052-.357.157-.503.104-.145.245-.27.424-.374.18-.104.389-.187.628-.25.24-.061.495-.1.766-.116l.001-.533.693.005-.001.538c.19.015.375.038.554.067a8.418 8.418 0 0 1 .977.22c.144.04.277.08.398.116l-.729.844a4.625 4.625 0 0 0-.415-.14 4.989 4.989 0 0 0-.908-.19v.475c.051.007.106.017.163.03a9.234 9.234 0 0 1 .948.214c.228.065.422.14.584.228.16.087.285.193.371.316"/>
                </g>
                <g>
                    <path fill="#F1A11F" d="M14.06 81.474c0-2.502 4.053-4.194 9.054-4.194 5 0 9.053 1.692 9.053 4.194 0 2.5-4.053 4.529-9.053 4.529-5 0-9.054-2.028-9.054-4.53z"/>
                    <path fill="#F1A11F" d="M30.782 79.216a6.095 6.095 0 0 0-.547-.356v.356H16.183v-.463c-.27.145-.516.3-.74.463H14.06v2.3c0 1.105.799 2.116 2.123 2.9v-2.9h14.052v2.783c1.21-.767 1.932-1.733 1.932-2.784v-2.3h-1.385z"/>
                    <path fill="#FEE34B" d="M23.114 83.85c-5 0-9.054-2.028-9.054-4.53 0-2.503 4.053-4.532 9.054-4.532 5 0 9.053 2.029 9.053 4.531 0 2.503-4.053 4.531-9.053 4.531"/>
                    <path fill="#EFA71F" d="M23.114 82.718c-3.927 0-7.11-1.547-7.11-3.455 0-1.908 3.183-3.455 7.11-3.455 3.927 0 7.11 1.547 7.11 3.455 0 1.908-3.183 3.455-7.11 3.455"/>
                    <path fill="#FDC010" d="M23.114 82.718c-3.927 0-7.11-1.42-7.11-3.172 0-1.752 3.183-3.172 7.11-3.172 3.927 0 7.11 1.42 7.11 3.172 0 1.752-3.183 3.172-7.11 3.172"/>
                    <path fill="#FEDD00" d="M26.966 78.048l-4.574 4.444c-.528.026-.965.008-1.308-.053a4.318 4.318 0 0 1-.893-.246l5.346-5.466c.218.01.47.113.753.311.285.2.51.536.676 1.01zM24.369 76.909l-5.062 5.125a2.29 2.29 0 0 1-.38-.194c-.07-.05-.15-.134-.24-.25l4.923-5.07a.716.716 0 0 1 .328.041c.108.04.251.156.43.348z"/>
                    <path fill="#E0A600" d="M22.77 78.782v-.4c-.23.015-.346.075-.346.177 0 .052.028.095.086.13.058.033.144.064.26.093m.74 1.53c.058-.028.087-.065.088-.11 0-.05-.035-.093-.104-.13a1.217 1.217 0 0 0-.277-.1v.39a.827.827 0 0 0 .294-.05m1.775-.649c.087.124.13.274.13.45 0 .207-.06.383-.18.529a1.329 1.329 0 0 1-.467.355c-.194.092-.414.161-.663.207a5.205 5.205 0 0 1-.77.082l-.001.639-.693-.005.001-.649a9.029 9.029 0 0 1-1.185-.15 6.884 6.884 0 0 1-1.055-.286l.728-.897a6.948 6.948 0 0 0 1.025.31c.2.045.856.093 1.064.112v-.39c-.18-.03-.81-.154-.99-.194a6.373 6.373 0 0 1-.7-.187 2.11 2.11 0 0 1-.484-.224.853.853 0 0 1-.281-.284.72.72 0 0 1-.09-.365c0-.19.052-.358.157-.503.104-.145.245-.27.424-.374.18-.104.389-.188.628-.25.24-.061.495-.1.766-.116l.001-.533.693.005-.001.538c.19.015.375.037.554.067a8.418 8.418 0 0 1 .977.22c.144.04.277.08.398.115l-.729.845a4.625 4.625 0 0 0-.415-.14 4.989 4.989 0 0 0-.428-.11c-.159-.035-.773-.082-.935-.1v.408a31.427 31.427 0 0 1 .8.152c.283.055.538.114.766.18.228.064.422.14.584.227"/>
                </g>
            </g>
        </g>
    </g>
</svg>
