<svg xmlns="http://www.w3.org/2000/svg" width="124" height="95" viewBox="0 0 124 95">
    <g fill="none" fill-rule="evenodd">
        <path fill="#019A6A" fill-rule="nonzero" d="M83.907 54.9H7.805C5.712 54.9 4 53.207 4 51.14V9.762C4 7.692 5.712 6 7.805 6h76.103C86 6 87.713 7.693 87.713 9.762v41.377c0 2.068-1.713 3.761-3.806 3.761z"/>
        <path fill="#4ECDA6" fill-rule="nonzero" d="M76.633 51.511H15.572c0-4.164-3.435-7.57-7.633-7.57V17.444c4.198 0 7.633-3.407 7.633-7.57h61.061c0 4.163 3.435 7.57 7.633 7.57V43.94c-4.198 0-7.633 3.406-7.633 7.57z"/>
        <g fill="#019A6A" fill-rule="nonzero" transform="translate(18.28 13.262)">
            <ellipse cx="26.837" cy="17.437" rx="15.327" ry="17.302"/>
            <ellipse cx="3.847" cy="17.437" rx="3.832" ry="3.845"/>
            <ellipse cx="49.828" cy="17.437" rx="3.832" ry="3.845"/>
        </g>
        <path fill="#4ECDA6" d="M43.82 26.823c0-.327.145-1.393 2.008-1.393 1.628 0 2.653.573 3.09.817l.612.34a.395.395 0 0 0 .575-.204l1.148-2.958a.412.412 0 0 0-.175-.488l-.447-.256c-.956-.546-2.008-.887-3.196-1.032v-2.37a.402.402 0 0 0-.404-.398h-2.975a.402.402 0 0 0-.404.398v2.602c-2.639.722-4.298 2.721-4.298 5.275 0 3.254 2.7 4.725 5.33 5.732 2.27.898 2.583 1.674 2.583 2.38 0 1.031-.956 1.725-2.379 1.725-1.227 0-2.551-.385-3.544-1.03l-.64-.417c-.234-.153-.505-.064-.6.197L39 38.747a.42.42 0 0 0 .148.462l.378.263c.966.674 2.435 1.165 3.927 1.337v2.474c0 .22.181.399.404.399h3.003a.402.402 0 0 0 .403-.399v-2.687c2.723-.753 4.497-2.889 4.497-5.523 0-3.546-2.695-5.074-5.038-6.007-2.483-1.003-2.903-1.503-2.903-2.243z"/>
        <g>
            <path fill="#019A6A" fill-rule="nonzero" d="M100.418 68.435H24.316c-2.093 0-3.805-1.693-3.805-3.762V23.296c0-2.069 1.712-3.761 3.805-3.761h76.102c2.093 0 3.806 1.692 3.806 3.761v41.377c0 2.069-1.713 3.762-3.806 3.762z"/>
            <path fill="#4ECDA6" fill-rule="nonzero" d="M93.144 65.046H32.083c0-4.164-3.435-7.57-7.633-7.57V30.977c4.198 0 7.633-3.406 7.633-7.57h61.061c0 4.164 3.435 7.57 7.633 7.57v26.497c-4.198 0-7.633 3.407-7.633 7.57z"/>
            <g fill="#019A6A" fill-rule="nonzero" transform="translate(34.791 26.797)">
                <ellipse cx="26.837" cy="17.437" rx="15.327" ry="17.302"/>
                <ellipse cx="3.847" cy="17.437" rx="3.832" ry="3.845"/>
                <ellipse cx="49.828" cy="17.437" rx="3.832" ry="3.845"/>
            </g>
            <path fill="#4ECDA6" d="M60.33 40.357c0-.326.145-1.392 2.008-1.392 1.628 0 2.654.572 3.092.816l.61.341a.395.395 0 0 0 .576-.204l1.148-2.959a.412.412 0 0 0-.175-.488l-.447-.256c-.956-.546-2.009-.887-3.197-1.031v-2.37a.402.402 0 0 0-.403-.399h-2.975a.402.402 0 0 0-.404.399v2.601c-2.639.723-4.298 2.722-4.298 5.275 0 3.254 2.7 4.725 5.33 5.732 2.27.898 2.583 1.675 2.583 2.38 0 1.032-.956 1.725-2.379 1.725-1.227 0-2.552-.385-3.544-1.03l-.64-.416c-.234-.153-.505-.064-.6.197L55.51 52.28a.42.42 0 0 0 .147.463l.379.263c.966.673 2.435 1.164 3.927 1.337v2.474c0 .22.181.398.404.398h3.003a.402.402 0 0 0 .403-.398V54.13c2.723-.754 4.497-2.89 4.497-5.523 0-3.546-2.695-5.074-5.038-6.007-2.483-1.003-2.903-1.503-2.903-2.244z"/>
        </g>
        <g fill-rule="nonzero">
            <path fill="#019A6A" d="M115.493 84.106H39.391c-2.093 0-3.805-1.692-3.805-3.761V38.968c0-2.07 1.712-3.762 3.805-3.762h76.103c2.092 0 3.805 1.693 3.805 3.762v41.377c0 2.069-1.713 3.761-3.806 3.761z"/>
            <path fill="#4ECDA6" d="M108.22 80.717H47.157c0-4.164-3.435-7.57-7.633-7.57V46.65c4.198 0 7.633-3.407 7.633-7.57h61.061c0 4.163 3.435 7.57 7.633 7.57v26.497c-4.198 0-7.633 3.406-7.633 7.57z"/>
        </g>
        <text fill="#019A6A" font-family="Muli-BlackItalic, Muli" font-size="16" font-style="italic" font-weight="700" letter-spacing="-.167" transform="translate(4 6)">
            <tspan x="38.808" y="60.766">CPF LIFE</tspan>
        </text>
    </g>
</svg>
