<svg xmlns="http://www.w3.org/2000/svg" xmlns:xlink="http://www.w3.org/1999/xlink" width="96" height="95" viewBox="0 0 96 95">
    <defs>
        <circle id="a" cx="45" cy="45" r="45"/>
    </defs>
    <g fill="none" fill-rule="evenodd" transform="translate(3 2)">
        <mask id="b" fill="#fff">
            <use xlink:href="#a"/>
        </mask>
        <use fill="#00A7A7" xlink:href="#a"/>
        <g mask="url(#b)">
            <g fill="#FFF" fill-rule="nonzero">
                <path d="M75.3 16.644l-9.363.16c-.192.004-.3.253-.186.43l1.73 2.688c.305.475.188 1.146-.254 1.451l-6.295 4.344a.796.796 0 0 1-1.043-.113l-2.792-2.874a.796.796 0 0 0-1.065-.098L40.335 34.193a.791.791 0 0 1-1.018-.053l-4.63-4.145a.793.793 0 0 0-1.002-.065l-9.674 6.783c-.364.256-.586.709-.586 1.196v3.22c0 1.107 1.071 1.778 1.89 1.183l8.372-6.085a.79.79 0 0 1 1.007.052l4.62 4.061a.792.792 0 0 0 1.017.045l15.524-11.578c.342-.254.791-.207 1.086.113l2.218 2.408c.285.31.716.365 1.055.136l9.542-6.476c.39-.264.89-.148 1.157.268l1.147 1.782c.423.657 1.319.494 1.542-.279l2.546-8.799c.19-.654-.243-1.326-.847-1.316z"/>
                <path d="M76.393 17.96l-2.546 8.799c-.223.773-1.119.936-1.541.28l-1.147-1.784c-.268-.414-.768-.531-1.158-.268l-9.543 6.477c-.338.23-.769.174-1.054-.136l-2.217-2.408c-.296-.32-.745-.368-1.087-.112L40.576 40.385a.791.791 0 0 1-1.016-.045l-4.62-4.061a.79.79 0 0 0-1.008-.051l-8.371 6.084c-.82.595-1.89-.076-1.89-1.184v-2.705c0 1.109 1.07 1.779 1.89 1.184l8.37-6.084a.79.79 0 0 1 1.009.05l4.62 4.062a.792.792 0 0 0 1.016.045L56.1 26.102c.342-.254.79-.208 1.087.113l2.217 2.408c.285.31.716.365 1.054.136l9.543-6.477c.39-.263.89-.147 1.158.268l.457.997c.422.656 1.318.494 1.543-.279l1.914-6.615.472-.01c.604-.01 1.038.663.848 1.317z"/>
            </g>
            <g fill-rule="nonzero">
                <path fill="#DD705A" d="M44.353 73.042h-9.637c-.448 0-.812-.467-.812-1.043v-21.23c0-.577.364-1.044.812-1.044h9.637c.448 0 .811.467.811 1.043v21.23c0 .577-.363 1.044-.811 1.044z"/>
                <path fill="#FFF" fill-opacity=".2" d="M44.32 50.768v21.23c0 .577-.355 1.044-.792 1.044h-2.023c.437 0 .791-.467.791-1.043V50.768c0-.576-.354-1.043-.791-1.043h2.023c.437 0 .792.467.792 1.043z"/>
                <path fill="#9BC500" d="M73.347 73.042H63.71c-.448 0-.811-.484-.811-1.08V34.385c0-.595.363-1.079.811-1.079h9.637c.449 0 .812.484.812 1.08v37.578c0 .595-.363 1.079-.812 1.079z"/>
                <path fill="#F39533" d="M58.709 73.042h-9.637c-.448 0-.811-.484-.811-1.081V42.924c0-.597.363-1.08.811-1.08h9.637c.448 0 .812.483.812 1.08v29.037c0 .597-.364 1.08-.812 1.08z"/>
                <path fill="#FFF" fill-opacity=".2" d="M74.44 34.384v37.579c0 .595-.354 1.079-.791 1.079h-2.024c.437 0 .792-.484.792-1.08V34.385c0-.596-.355-1.079-.792-1.079h2.024c.437 0 .791.483.791 1.08zM59.802 42.924v29.037c0 .597-.354 1.08-.791 1.08h-2.024c.438 0 .792-.483.792-1.08V42.924c0-.596-.354-1.08-.792-1.08h2.024c.437 0 .791.484.791 1.08z"/>
            </g>
        </g>
        <g mask="url(#b)">
            <path fill="#94F7D0" d="M29.58 27.133s-2.683-.208-4.21 1.32c-1.527 1.526-1.32 4.209-1.32 4.209s2.684.207 4.21-1.32c1.527-1.526 1.32-4.21 1.32-4.21z"/>
            <path stroke="#94F7D0" stroke-linecap="round" stroke-linejoin="round" stroke-width="2" d="M24.35 41.918V22.192"/>
            <path fill="#94F7D0" d="M24.041 17.26s-1.233 1.104-1.233 2.466 1.233 2.466 1.233 2.466 1.233-1.104 1.233-2.466-1.233-2.466-1.233-2.466zM23.008 25.69c-1.188-1.187-3.275-1.025-3.275-1.025s-.161 2.087 1.027 3.274c1.187 1.188 3.274 1.026 3.274 1.026s.161-2.087-1.026-3.274"/>
            <path fill="#2D8289" d="M20.995 41.99C16.502 45.05 9.247 54.943 9.247 60.993c0 5.1 1.463 8.311 4.641 11.084a5.097 5.097 0 0 0 3.35 1.28h13.605a5.096 5.096 0 0 0 3.35-1.28c3.18-2.773 4.643-5.984 4.643-11.084 0-6.05-7.257-15.944-11.75-19.003h-6.091z"/>
            <path fill="#2D8289" d="M30.243 37.681c-.326-.132-.875-.164-1.22-.071l-1.487.402c-.345.093-.867.023-1.161-.155l-1.674-1.018c-.294-.178-.774-.178-1.068 0l-1.673 1.018c-.294.178-.816.248-1.16.155l-1.49-.402c-.345-.093-.894-.061-1.22.07l-1.1.446c-.326.133-.38.414-.118.625l3.857 3.119c.261.21.771.384 1.133.384h4.607c.361 0 .871-.173 1.133-.384l3.857-3.12c.261-.21.208-.492-.118-.624l-1.098-.445"/>
            <path fill="#FFF" d="M23.32 56.564c0-.187.08-.799 1.095-.799.886 0 1.445.328 1.684.469l.332.195c.122.072.263.019.314-.117l.625-1.698a.243.243 0 0 0-.095-.28l-.244-.147a4.402 4.402 0 0 0-1.741-.592v-1.36c0-.126-.1-.229-.22-.229h-1.62a.225.225 0 0 0-.22.229v1.493c-1.438.414-2.341 1.562-2.341 3.027 0 1.868 1.47 2.712 2.903 3.29 1.236.515 1.407.96 1.407 1.366 0 .592-.52.99-1.296.99-.669 0-1.39-.221-1.93-.592l-.35-.239c-.127-.087-.274-.036-.326.114l-.601 1.723c-.032.09.004.21.08.266l.206.15c.526.387 1.326.669 2.14.768v1.42c0 .126.098.228.22.228h1.635c.121 0 .22-.102.22-.228v-1.543c1.483-.432 2.45-1.657 2.45-3.169 0-2.035-1.469-2.912-2.745-3.447-1.353-.576-1.581-.863-1.581-1.288z"/>
            <path fill="#E49503" d="M28.033 43.044h-7.735c-.61 0-1.106-.276-1.106-.616 0-.34.495-.616 1.106-.616h7.735c.61 0 1.105.276 1.105.616 0 .34-.495.616-1.105.616"/>
        </g>
    </g>
</svg>
