<svg xmlns="http://www.w3.org/2000/svg" xmlns:xlink="http://www.w3.org/1999/xlink" width="134" height="130" viewBox="0 0 134 130">
    <defs>
        <circle id="a" cx="62.5" cy="62.5" r="62.5"/>
    </defs>
    <g fill="none" fill-rule="evenodd" transform="translate(4 2)">
        <mask id="b" fill="#fff">
            <use xlink:href="#a"/>
        </mask>
        <use fill="#00A7A7" xlink:href="#a"/>
        <g mask="url(#b)">
            <path fill="#FFBE96" d="M35.492 130.762l1.184-52.456 37.055.18-1.183 52.455zM22.817 72.79c.39.644.873 1.322 1.433 2.013 1.995 2.497 8.775 7.176 8.775 7.176s-1.262-2.305-2.011-6.208c-.748-3.908-.934-17.027-.934-17.027s-4.692-.249-6.795.897c-3.056 1.677-3.663 8-.468 13.15"/>
            <path fill="#F09F7C" d="M73.17 113.38a64.027 64.027 0 0 1-10.445.351c-10.602-.5-19.698-3.85-26.767-8.36V76.503l37.773.842-.56 36.033z"/>
            <path fill="#FFC8A6" d="M37.921 96.64s23.101 15.75 32.994 14.332c7.364-1.054 20.919-18.861 22.568-22.17 3.158-6.298 4.356-11.036 3.45-17.322l-3.311-23.586c-2.613-18.659-9.451-31.247-28.178-28.562L52.584 21.2c-11.59 1.66-21.017 5.501-20.545 14.943l-2.846 19.954-2.81 4.062 3.068 21.874a22.804 22.804 0 0 0 8.47 14.607"/>
            <path fill="#000" d="M26.857 58.511c4.36 1.036 8.677-1.86 9.654-6.469L42.893 22l-11.79 3.698-4.246 32.813z"/>
            <path fill="#000" d="M98.636 39.974l-67.829.386-.016-2.122c-.073-12.886 10.514-23.393 23.637-23.468l20.286-.114c13.123-.075 23.832 10.311 23.906 23.196l.016 2.122zM54.602 68.514c-1.689 0-3.074-1.182-3.074-2.62v-.88c0-1.439 1.385-2.62 3.074-2.62 1.706 0 3.094 1.181 3.094 2.62v.88c0 1.438-1.388 2.62-3.094 2.62M80.507 68.514c-1.689 0-3.075-1.182-3.075-2.62v-.88c0-1.439 1.386-2.62 3.075-2.62 1.706 0 3.093 1.181 3.093 2.62v.88c0 1.438-1.387 2.62-3.093 2.62M58.532 56.592c-2.512-.307-4.964-.488-7.475-.09-1.635.252-3.894.847-4.447 2.4-.06.161.06 1.046.132 1.154.661 1.01 3.545.18 5.144.089 1.911-.107 5.012-.018 7.043.416 1.694.36 1.718-3.699-.397-3.969M75.357 56.594c2.512-.309 4.963-.49 7.474-.091 1.636.254 3.895.85 4.458 2.392.049.162-.072 1.05-.144 1.177-.66.996-3.544.163-5.143.09-1.898-.108-5.01-.037-7.04.399-1.695.363-1.708-3.696.395-3.967"/>
            <path fill="#F09F7C" d="M66.573 77.835c.556.298 1.144.583 1.762.594.973.012 1.614-.534 1.88-1.663.214-.939-.095-2.603-.245-3.506a93.956 93.956 0 0 0-1.41-6.75c-.364-1.461 1.613-2.4 1.976-.926.877 3.553 2.745 8.65 1.602 12.31-1.047 3.34-3.877 3.316-6.408 2.14-1.272-.594-.439-2.793.843-2.199"/>
            <path fill="#FFF" d="M70.296 90.477c3.006.106 5.584-2.03 5.769-4.773l-20.174-.713c-.185 2.743 2.098 5.053 5.104 5.158l9.3.328z"/>
        </g>
    </g>
</svg>
