<svg xmlns="http://www.w3.org/2000/svg" width="33" height="33" viewBox="0 0 33 33">
    <g fill="none" fill-rule="evenodd">
        <path d="M-2-1h35v35H-2z"/>
        <path fill="#66F5C9" fill-rule="nonzero" d="M15.802 8.892c-.798 0-1.45.652-1.45 1.45v4.35h-4.35c-.798 0-1.45.652-1.45 1.45 0 .797.652 1.45 1.45 1.45h4.35v4.35c0 .797.652 1.45 1.45 1.45.797 0 1.45-.653 1.45-1.45v-4.35h4.35c.797 0 1.45-.653 1.45-1.45 0-.798-.653-1.45-1.45-1.45h-4.35v-4.35c0-.798-.653-1.45-1.45-1.45zm0-7.25c-8.004 0-14.5 6.496-14.5 14.5s6.496 14.5 14.5 14.5 14.5-6.496 14.5-14.5-6.496-14.5-14.5-14.5zm0 26.1c-6.395 0-11.6-5.206-11.6-11.6 0-6.395 5.205-11.6 11.6-11.6 6.394 0 11.6 5.205 11.6 11.6 0 6.394-5.206 11.6-11.6 11.6z"/>
    </g>
</svg>
