<svg xmlns="http://www.w3.org/2000/svg" xmlns:xlink="http://www.w3.org/1999/xlink" width="999" height="322" viewBox="0 0 999 322">
    <defs>
        <path id="a" d="M0 0h999v361H0z"/>
        <path id="c" d="M.672.656H108.69v139.342H.67z"/>
    </defs>
    <g fill="none" fill-rule="evenodd" transform="translate(0 -39)">
        <mask id="b" fill="#fff">
            <use xlink:href="#a"/>
        </mask>
        <path fill="#005960" fill-opacity=".3" d="M609.554 187.974c-7.659-.785-15.43-1.189-23.296-1.189-58.154 0-111.174 21.988-151.24 58.106-23.934-48.532-73.556-82.08-131.087-82.838-34.257-53.031-93.832-88.132-161.6-88.132C36.112 73.92-50 160.15-50 266.518c0 106.368 86.11 192.597 192.332 192.597 30.642 0 59.603-7.188 85.313-19.952 21.848 12.685 47.225 19.952 74.297 19.952 21.574 0 42.07-4.617 60.565-12.91 15.94 109.442 110.037 193.493 223.751 193.493 97.455 0 180.51-61.733 212.302-148.277 7.659.785 15.43 1.19 23.296 1.19C946.752 492.61 1048 391.222 1048 266.153c0-125.069-101.248-226.456-226.144-226.456-97.456 0-180.51 61.732-212.302 148.276z" mask="url(#b)" opacity=".172"/>
        <g mask="url(#b)">
            <g transform="translate(643 145)">
                <mask id="d" fill="#fff">
                    <use xlink:href="#c"/>
                </mask>
                <path fill="#D9D9D9" d="M.672 137.633V3.036a2.393 2.393 0 0 1 2.39-2.38h103.239c1.306 0 2.39 1.075 2.39 2.38v134.597c0 1.31-1.084 2.365-2.39 2.365H3.063c-1.318 0-2.391-1.056-2.391-2.365" mask="url(#d)"/>
            </g>
            <path fill="#F2F2F2" d="M650 278h95V150.25h-95z"/>
            <path fill="#BEBFC3" d="M660.556 174.025h19.351v-2.05h-19.351zM660.556 179.288h19.351v-2.076h-19.351zM660.556 196.775h73.888v-2.05h-73.888zM660.556 203.78h73.888v-2.06h-73.888zM660.556 210.782h14.074v-2.065h-14.074zM660.556 216.03h73.888v-2.06h-73.888zM660.556 223.025h73.888v-2.05h-73.888zM662.315 230.02h52.778v-2.04h-52.778zM660.556 237.03h73.888v-2.06h-73.888zM660.556 244.03h73.888v-2.06h-73.888zM660.556 249.28h73.888v-2.06h-73.888zM660.556 256.283h28.148v-2.065h-28.148zM660.556 189.78h73.888v-2.06h-73.888z"/>
            <path fill="#9FBECC" d="M674.63 152h47.5v-8h-47.5z"/>
            <path fill="#118C8C" d="M723.889 181.75h3.518V169.5h-3.518z"/>
            <path fill="#118C8C" d="M720.37 176.5h12.315V173H720.37zM711.7 256.516c-.191.204-.615.812-1.254 2.581a258.042 258.042 0 0 1-1.147 3.13c1.595-1.212 3.15-3.274 2.604-5.18a2.646 2.646 0 0 0-.203-.531m-5.986 11.835c-.933.746-1.594 1.703-1.625 2.374-.008.274.057.616.684.846.027-.082.153-.683.23-1.039.088-.382.172-.771.286-1.087.146-.363.28-.727.425-1.094m-.933 4.399c-.13 0-.275-.022-.432-.078-.97-.352-1.506-1.083-1.472-1.999.07-1.465 1.675-3.286 3.517-4.132.252-.656.497-1.313.742-1.97-1.682.435-3.65.453-5.428.012-1.12-.275-7.168-.048-10.41.074-1.334.048-2.34.044-2.798.089v-1.183c.44-.019 1.445-.034 2.749-.085 4.988-.19 9.56-.334 10.76-.034 1.904.475 4.037.356 5.654-.278.555-1.484 1.101-2.97 1.64-4.458.899-2.482 1.575-3.494 2.47-3.457.879.026 1.196 1.116 1.292 1.476.906 3.108-2.068 6.042-4.152 7.162-.091.052-.187.1-.283.145-.244.66-.496 1.317-.741 1.97.363-.127.764-.242 1.284-.197.692.063 1.105.523 1.376.823.077.074.173.182.21.208 1.71.119 8.583-.542 10.773-1.28l.394 1.113c-2.343.79-9.438 1.469-11.38 1.31-.417-.034-.688-.335-.906-.572-.23-.256-.383-.412-.581-.43-.333-.03-.59.067-.922.193-.175.066-.348.13-.539.181a4.677 4.677 0 0 0-.244.075c-.306.812-.62 1.62-.925 2.425-.1.267-.169.594-.234.924-.172.79-.336 1.543-.917 1.85a1.023 1.023 0 0 1-.497.123"/>
            <g>
                <path fill="#CCC" d="M740 305h-10.995v-26.779c0-4.818-4.113-8.736-9.17-8.736H695.16c-5.036 0-9.165 3.918-9.165 8.736V305H675v-26.779C675 267.62 684.053 259 695.16 259h24.675c11.117 0 20.165 8.62 20.165 19.221V305z"/>
                <path fill="#DD705A" d="M757.162 361h-99.324c-8.205 0-14.838-6.242-14.838-13.93v-49.134c0-7.704 6.633-13.936 14.838-13.936h99.324c8.195 0 14.838 6.232 14.838 13.936v49.133c0 7.69-6.643 13.931-14.838 13.931"/>
                <path fill="#C9614B" d="M654.468 346.136V300.67c0-4.433 2.067-8.342 5.232-10.67-6.483.155-11.7 5.514-11.7 12.11v42.764c0 6.701 5.36 12.126 11.966 12.126H660c-3.332-2.298-5.532-6.292-5.532-10.864"/>
                <path fill="#FFF" d="M699 343h20v-39h-20z"/>
                <path fill="#FFF" d="M687 332h44v-19h-44z"/>
            </g>
            <g>
                <path fill="#DD705A" d="M695 79.787C695 99.344 659.493 120 659.493 120S624 99.568 624 79.787C624 68.867 632.883 60 643.83 60a19.77 19.77 0 0 1 15.663 7.66c3.306-4.225 8.282-7.086 13.918-7.586a24.101 24.101 0 0 1 1.748-.074c10.736 0 19.48 8.505 19.825 19.123.016.226.016.437.016.664"/>
                <path fill="#C9614B" d="M642.639 68.25c7.06 0 13.344 1.755 17.362 6.75 4.022-4.995 10.305-6.75 17.363-6.75 4.71 0 9.062 1.441 12.636 3.874-3.279-4.885-8.969-8.124-15.446-8.124-5.922 0-11.18 2.7-14.553 6.886C656.63 66.699 651.373 64 645.454 64c-6.48 0-12.173 3.239-15.454 8.124a22.406 22.406 0 0 1 12.639-3.873"/>
                <path fill="#FFC62B" d="M651.614 105h-.01a1.311 1.311 0 0 1-1.273-1.033L644.9 77.62l-4.972 16.495c-.166.548-.677.919-1.254.919H621V92.45h16.694l6.193-20.53a1.306 1.306 0 0 1 1.318-.919 1.316 1.316 0 0 1 1.228 1.031l5.255 25.544 3.908-16.87a1.303 1.303 0 0 1 1.265-1.004h.013c.603 0 1.125.402 1.27.976l2.989 11.772H698v2.584h-37.89c-.6 0-1.125-.4-1.27-.974l-1.905-7.514-4.043 17.448a1.307 1.307 0 0 1-1.278 1.005"/>
            </g>
        </g>
        <g mask="url(#b)">
            <path fill="#00B16A" d="M331.293 165.293c7.707-7.704 6.66-21.245 6.66-21.245s-13.542-1.048-21.249 6.659c-7.704 7.704-6.656 21.245-6.656 21.245s13.54 1.048 21.245-6.659"/>
            <path stroke="#00B16A" stroke-linecap="round" stroke-linejoin="round" stroke-width="2" d="M310 215v-98"/>
            <path fill="#00B16A" d="M317 106.999C317 99.82 310 94 310 94s-7 5.821-7 12.999c0 7.18 7 13.001 7 13.001s7-5.821 7-13.001zM304.733 136.267c-6.055-6.054-16.695-5.23-16.695-5.23s-.823 10.639 5.231 16.694c6.055 6.054 16.693 5.231 16.693 5.231s.825-10.64-5.23-16.695"/>
            <path fill="#2D8289" d="M296.19 221C275.085 234.652 241 278.815 241 305.819c0 22.762 6.874 37.095 21.804 49.474 4.428 3.671 9.99 5.707 15.74 5.707h63.91c5.752 0 11.312-2.036 15.74-5.707C373.125 342.914 380 328.58 380 305.819c0-27.004-34.087-71.167-55.192-84.819H296.19zM338.611 200.396c-1.51-.598-4.05-.742-5.643-.322l-6.88 1.812c-1.595.42-4.01.104-5.368-.7l-7.742-4.583c-1.36-.804-3.58-.804-4.94 0l-7.737 4.583c-1.359.804-3.775 1.12-5.369.7l-6.889-1.812c-1.593-.42-4.134-.276-5.642.32l-5.087 2.008c-1.51.595-1.754 1.862-.547 2.813l17.84 14.055c1.208.951 3.567 1.73 5.241 1.73h21.304c1.674 0 4.03-.779 5.24-1.73l17.84-14.055c1.208-.953.964-2.22-.546-2.815l-5.075-2.004-17.891 4.82"/>
            <path fill="#FFF" d="M306.117 286.495c0-.842.364-3.593 5.029-3.593 4.076 0 6.643 1.477 7.74 2.107l1.53.88c.56.321 1.208.083 1.44-.528l2.873-7.634c.17-.45-.027-1.018-.437-1.26l-1.12-.66c-2.393-1.41-5.028-2.29-8.003-2.663v-6.115c0-.567-.456-1.029-1.01-1.029h-7.449c-.556 0-1.012.462-1.012 1.029v6.713c-6.606 1.864-10.76 7.023-10.76 13.612 0 8.397 6.76 12.193 13.346 14.792 5.683 2.317 6.466 4.321 6.466 6.141 0 2.662-2.393 4.452-5.956 4.452-3.073 0-6.388-.994-8.873-2.66l-1.603-1.073c-.586-.395-1.264-.166-1.504.508l-2.762 7.751c-.144.406.02.943.369 1.193l.948.679c2.418 1.738 6.095 3.005 9.832 3.45v6.384c0 .567.454 1.029 1.01 1.029h7.52c.556 0 1.01-.462 1.01-1.029v-6.934c6.817-1.944 11.259-7.455 11.259-14.252 0-9.15-6.748-13.093-12.615-15.501-6.217-2.588-7.268-3.878-7.268-5.79z"/>
            <path fill="#E49503" d="M328.889 225H293.11c-2.822 0-5.111-1.12-5.111-2.5s2.29-2.5 5.111-2.5h35.778c2.822 0 5.111 1.12 5.111 2.5s-2.29 2.5-5.111 2.5"/>
        </g>
        <g mask="url(#b)">
            <path fill="#004472" d="M495.78 342.454c-.47-5.212-6.75-44.62-6.75-44.62-15.013 1.176-31.339-1.568-44.825-2.535-9.99-13.487-38.73-4.278-66.935-3.63 0 0-5.571 25.83-6.254 50.785-.63 22.7 17.598 336.179 17.598 336.179.816 4.86 24.48 4.445 24.722-1.156 0 0 17.49-191.992 21.682-238.725 9.04 47.235 24.709 239.332 24.709 239.332.804 5.548 24.388 3.575 24.709-1.343 0 0 13.433-311.675 11.343-334.287"/>
            <path fill="#D3EBFF" d="M376.3 362.482c-5.16-.023-9.322-4.24-9.282-9.416l1.388-126.827L346 214.994c0-20.906 15.777-53.595 73.67-59.994l25.02 2.275c40.487 4.124 53.65 34.272 54.04 61.058l.27 12.635L496.117 363l-119.816-.518z"/>
            <path fill="#EDE7E1" d="M434.318 68.027c-5.618 8.532-.672 21.482 11.033 28.923 11.705 7.441 25.736 6.556 31.34-1.977 5.604-8.533.658-21.482-11.047-28.923-11.705-7.441-25.722-6.556-31.326 1.977"/>
            <path fill="#EDE7E1" d="M393.88 104.761c1.07 6.383 4.693 15.69 8.745 21.084 4.224 5.604 10.682 10.838 21.752 14.523 17.435 5.805 36.46-4.369 42.49-22.722 6.03-18.355 4.305-46.09-13.598-50.254-55.551-12.922-63.373 13.58-59.388 37.369"/>
            <path fill="#FAC9B6" d="M447.527 162.076L449 118.594 413.464 117l-1.46 43.484c-.247 5.912 9.383 7.543 18.909 7.516 8.17-.025 16.406-.853 16.614-5.924"/>
            <path fill="#FAB79E" d="M412 150.737L413.055 119 449 120.637l-1.226 37.026c-3.493 1.854-7.065 1.58-11.995.392 0 0-18.23-3.126-21.116-5.14a25.019 25.019 0 0 1-2.663-2.178"/>
            <path fill="#FAC9B6" d="M433.194 148.775c8.349 2.024 11.344 3.897 18.606-.264 4.134-2.479 6.52-4.515 8.865-8.184 6.905-10.752 10.032-38.648 10.032-38.648 1.829-12.084-4.731-23.211-16.67-25.024l-22.41-3.432c-11.542-1.752-19.321 7.053-21.56 18.65-.425 2.175 1.682 22.746 1.682 22.746-.33 3.263 1.498 17.13 5.897 24.917 2.783 4.926 15.558 9.239 15.558 9.239z"/>
            <path fill="#3A1311" d="M431.062 111.969c1.326.22 2.574-.746 2.78-2.15l.129-.834c.206-1.403-.708-2.731-2.033-2.954-1.326-.22-2.574.747-2.78 2.151l-.129.834c-.206 1.404.708 2.732 2.033 2.953M460.988 114.956c1.306.26 2.587-.67 2.83-2.067l.141-.832c.244-1.398-.627-2.754-1.947-3.013-1.306-.26-2.587.67-2.83 2.067l-.141.832c-.244 1.398.627 2.754 1.947 3.013"/>
            <path fill="#EDE7E1" d="M437.546 102.998c.625.038 1.21-.468 1.409-1.273.24-.959-.518-2.851-1.262-3.15-1.635-.666-2.844-.968-4.559-1.27-2.206-.392-2.897-.415-5.13-.016-1.58.284-3.056 1.43-3.003 2.43.054 1.001.731 1.723 1.489 1.663a21.882 21.882 0 0 1 6.113.207c1.555.275 3.11.723 4.598 1.33.106.045.226.073.345.079M457.054 106.127c-.614-.149-1.054-.785-1.054-1.577-.013-.94 1.174-2.44 1.962-2.494 1.734-.122 2.975-.038 4.71.19 2.228.298 2.896.479 4.95 1.5 1.468.726 2.616 2.205 2.336 3.1-.294.894-1.121 1.35-1.842 1.073a23.584 23.584 0 0 0-5.951-1.617 23.642 23.642 0 0 0-4.75-.145c-.12.009-.24-.003-.36-.03"/>
            <path fill="#FFF" d="M437.967 135.314l10.1 1.604c3.265.518 6.363-1.469 6.933-4.438L433.09 129c-.57 2.97 1.612 5.797 4.877 6.314"/>
            <path fill="#FAB79E" d="M450.203 125c-.367 0-.735-.2-.976-.575-.39-.62-.264-1.492.276-1.943 1.814-1.52 2.549-4.286 1.802-6.723l-1.837-5.898c-.218-.725.104-1.522.735-1.78.62-.257 1.31.12 1.539.841l1.825 5.899c1.114 3.595.023 7.67-2.652 9.914-.218.179-.46.265-.712.265"/>
            <path fill="#EDE7E1" d="M422.212 72.175c-.567-.308-1.162-.558-1.838-.682-2.677-.498-5.286.825-6.57 3.068C405.287 77.283 397 81.068 397 85.5c0 9.105 2.055 15.5 13.194 15.5 11.14 0 19.102-7.444 20.17-16.488C431.432 75.427 432 70 432 70s-4.245.778-9.788 2.175M412.085 135L401 121.432 403.144 107 414 108.746 412.085 135"/>
            <path fill="#FAC9B6" d="M411.677 120.884l10.082.116.241-21.482-8.218-1.226c-4.304-1.309-8.634 1.948-8.674 6.53L405 113.91c-.04 3.81 2.95 6.931 6.677 6.974"/>
            <path fill="#F7EDE3" d="M620.58 139.967c-4.486-16.848-18.761-33.662-31.657-36.978-3.575-1.868-7.847-3.264-12.909-4.051a73.947 73.947 0 0 0-4.62-.567c-3.441-4.318-7.82-7.422-12.976-8.807-17.207-4.62-41.15 19.95-47.712 44.56-6.561 24.608 6.736 39.937 23.957 44.559 4.392 1.18 8.918.994 13.337-.335 3.268 1.692 6.923 2.19 10.914.997 8.33-2.485 16.444-3.855 23.474-5.972 5.758 3.835 12.16 5.34 18.252 3.705 14.329-3.848 25.403-16.615 19.94-37.111"/>
            <path fill="#F9EBDB" d="M515.774 375l94.313-1.446.547 1.342c11.84-8.19 14.298-16.22 15.14-33.93l9.046-56.423.067-32.486C636.624 219.791 618.264 204 581.785 204h-30.948C520.972 204 497 222.672 497 252.837l6.32 38.034 2.606 57.506c-.027 9.177 3.969 17.895 10.904 23.82L515.774 375"/>
            <path fill="#FAC9B6" d="M550.121 209.798l-.121-41.4 34.865-.398.135 41.4c.067 5.631-9.436 6.877-18.777 6.552-7.997-.28-16.048-1.327-16.102-6.154"/>
            <path fill="#FAB79E" d="M584.866 167l-34.866.396.134 29.12a916.46 916.46 0 0 0 8.549 5.29c5.295 2.866 9.69 3.314 16.559-1.025 0 0 6.573-4.557 9.758-6.911l-.134-26.87"/>
            <path fill="#FAC9B6" d="M572.089 187.823c-3.103 1.289-9.901 2.414-13.098 3.144-8.161 1.868-11.358 1.132-15.594-1.638-3.898-2.546-8.08-6.372-10.548-9.752-4.425-6.043-5.275-14.869-4.681-25.17l2.94-27.935c1.66-11.639 11.858-19.96 23.431-18.249l24.497 3.77c11.182 1.655 15.944 11.957 14.798 23.263-.216 2.12-3.993 29.172-3.993 29.172-1.565 8.038-7.838 19.286-17.752 23.395"/>
            <path fill="#FAC9B6" d="M586.839 167.755L578 165.2 583.056 148l7.81.04c4.092.021 7.038 3.923 5.88 7.822l-2.264 7.734c-.953 3.241-4.375 5.102-7.643 4.159"/>
            <path fill="#3A1311" d="M566.01 154.976c-1.278-.189-2.172-1.417-1.985-2.732l.297-2.172c.186-1.314 1.378-2.236 2.656-2.048 1.278.188 2.184 1.416 1.998 2.73l-.298 2.173c-.186 1.314-1.377 2.236-2.668 2.049"/>
            <path fill="#F7EDE3" d="M563.03 139.92c-.602-.158-1.043-.78-1.03-1.542.027-.908 1.244-2.32 2.02-2.355 1.752-.075 2.995.035 4.72.297 2.234.34 2.89.531 4.935 1.562 1.458.735 2.582 2.186 2.274 3.04-.308.854-1.15 1.275-1.859.989a24.656 24.656 0 0 0-5.938-1.7 24.4 24.4 0 0 0-4.76-.253 1.33 1.33 0 0 1-.362-.039M543.464 137.993c.629.069 1.244-.373 1.471-1.113.281-.88-.4-2.689-1.123-3.007-1.618-.71-2.822-1.059-4.52-1.434-2.22-.485-2.902-.545-5.163-.295-1.604.18-3.129 1.169-3.129 2.106.013.937.655 1.645 1.431 1.632 2.06-.091 4.12.086 6.138.526a24.16 24.16 0 0 1 4.548 1.492c.12.049.24.08.347.093"/>
            <path fill="#3A1311" d="M537.034 150.977c1.28.181 2.485-.746 2.659-2.062l.285-2.172c.174-1.315-.72-2.54-2.012-2.72-1.28-.181-2.473.746-2.646 2.06l-.299 2.174c-.174 1.315.733 2.54 2.013 2.72"/>
            <path fill="#FFF" d="M548.866 178.917l-2.016-.28c-4.94-.687-8.425-5.448-7.771-10.637L559 170.767c-.654 5.188-5.194 8.837-10.134 8.15"/>
            <path fill="#FAB79E" d="M547.843 163.688c.476.108 1.744.57 2.05.116.414-.612-.464-2.12-1.038-2.558l-1-.765c-2.16-1.645-2.904-4.693-1.757-7.245l3.001-6.706c.293-.68.171-2.142-.463-2.466-.647-.317-1.55.614-1.855 1.293l-3 6.707c-1.672 3.746-.587 8.217 2.573 10.633l1 .765c.16.113.318.187.489.226"/>
            <path fill="#F7F1EB" d="M594.68 147.995l6.32-.209L599.812 112l-15.812.522.864 26.315c.176 5.231 4.578 9.331 9.817 9.158"/>
            <path fill="#D3EBFF" d="M372.611 310L344 292.724l3.497-79.76c-.107-18.309 20.137-45.829 33.44-44.943 13.223.881 19.142 26.69 16.411 37.934L372.611 310"/>
            <path fill="#C24937" d="M591 165c0 1.657-1.348 3-3.006 3a2.994 2.994 0 0 1-2.994-3c0-1.657 1.336-3 2.994-3a3.005 3.005 0 0 1 3.006 3"/>
            <path fill="#910063" d="M480 534.984l14.783-284.115c1.263-24.199 19.97-43.83 44.014-46.168L546 204l-6.29 273.768c-.739 32.347-27.483 57.963-59.71 57.216M651 537l-9.01-284.73c-.753-24.251-19.083-44.29-43.088-47.124L587 204l2.448 273.61c.08 32.398 29.276 59.474 61.552 59.39"/>
            <path fill="#910063" d="M628.101 349l16.792-7.1.107-99.114c-2.912-18.037-15.83-30.05-40.785-36.786l17.18 18.506c-12.29 2.384-20.386 13.416-17.968 24.498L628.101 349"/>
            <path fill="#C1E1FC" d="M432 163.153L420.918 180 398 159.166 410.808 152 432 163.153M432 164.24l9.693 17.76L463 162.473 448.18 154 432 164.24"/>
            <path fill="#C24937" d="M446.073 156.302a2.064 2.064 0 0 0-1.97-.097l-10.217 4.895a3.205 3.205 0 0 0-1.568-.424c-.496 0-.979.118-1.408.328l-10.001-4.8a2.089 2.089 0 0 0-1.985.098c-6.247 3.794-6.623 12.765-.71 17.07 1.046.756 2.36.824 3.405.213l9.117-5.278a3.26 3.26 0 0 0 1.582.433c.643 0 1.247-.206 1.77-.54l9.29 5.385a3.071 3.071 0 0 0 3.352-.175c5.98-4.343 5.604-13.314-.657-17.108M387.897 361.957l10.074.043 2.015-148.844c.247-17.881-2.769-32.734-11.815-48.245l-.316-.545c-.219-.388-.329-.59-.74-1.246a.798.798 0 0 1-.096-.12c-3.385 1.199-6.374 2.569-9.019 4.073.123.422.274.838.52 1.231.316.496.398.647.577.941l.342.6c8.142 13.969 10.692 27.072 10.472 43.179l-2.014 148.933M462.029 161c-.148 1.558.283 3.307 1.079 4.593 8.956 14.573 11.195 28.015 10.966 45.122l-2.023 152.242 9.914.043 2.023-152.152c.216-15.987-2.468-29.931-9.24-43.594-3.736-2.482-7.958-4.6-12.72-6.254"/>
            <path fill="#FAB79E" d="M419 347.587L427.689 328l26.027 9.911c.282.105.552.225.808.36l12.919 6.568c3.381 1.72 5.173 5.523 4.365 9.249l-.93 4.32c-.876 4.053-4.567 6.848-8.689 6.573l-16.812-1.13a8.265 8.265 0 0 1-4.042-1.375L419 347.586"/>
            <path fill="#D3EBFF" d="M356.513 315.418L423.655 353l2.308-1.667c6.66-4.817 10.05-13.064 8.77-21.285L354.68 269l-5.236 6.995c-9.496 12.697-6.212 30.969 7.069 39.423"/>
            <path fill="#910063" d="M459 325.811L487.544 347l47.781-95.292c5.184-10.152 3.063-23.087-8.379-28.478-11.242-5.3-17.54-4.54-22.008 5.749L459 325.81"/>
            <path fill="#FAC9B6" d="M563.522 356.909L485 347.732l4.676-20.306L560.23 324 591 333.77c.066 13.612-12.672 24.336-27.478 23.139"/>
            <path fill="#910063" d="M596.246 230.247l-36.06 93.564c.027.01-38.278 1.888-38.278 1.888a25.324 25.324 0 0 0-1.162 24.984l1.162 2.283 41.873 4.94c11.083.905 20.99-4.766 25.545-13.359l.081.057 47.86-96.716c5.298-10.308 3.122-23.437-8.542-28.91-11.462-5.38-27.924.824-32.479 11.269z"/>
            <path fill="#FAC9B6" d="M490 327.616L485.258 348l-27.42-4.537a8.942 8.942 0 0 1-.868-.19l-13.904-3.832c-3.647-1.004-6.144-4.3-6.064-8.015l.08-4.311c.08-4.043 3.165-7.418 7.253-7.935l16.695-2.113a8.424 8.424 0 0 1 4.22.547L490 327.616"/>
            <path fill="#FAB79E" d="M427.636 132.97c-.35.074-.712.011-1.022-.2a1.404 1.404 0 0 1-.388-1.926l5.288-8.219a1.33 1.33 0 0 1 1.875-.396c.62.423.802 1.285.388 1.926l-5.288 8.22c-.207.319-.517.524-.853.596M539.879 161.018c.335.053.657.227.876.506.425.56.284 1.336-.322 1.732l-5.297 3.515c-.606.397-1.457.264-1.882-.296-.438-.56-.296-1.335.322-1.732l5.284-3.515c.31-.197.67-.264 1.019-.21M558.382 163c-.343-.011-.685.1-.964.338a1.217 1.217 0 0 0-.064 1.776l4.34 4.484c.494.51 1.344.538 1.877.065.545-.473.57-1.267.076-1.777l-4.339-4.484a1.387 1.387 0 0 0-.926-.401M459.477 139.563c-.343.264-.811.43-1.333.437-1.045.012-1.892-.618-1.91-1.41L456 128.457c-.018-.791.829-1.444 1.873-1.456 1.045-.013 1.892.617 1.91 1.408l.216 10.136c.018.396-.18.756-.522 1.02"/>
        </g>
    </g>
</svg>
