<?xml version="1.0" encoding="UTF-8"?>
<svg width="318px" height="171px" viewBox="0 0 318 171" version="1.1" xmlns="http://www.w3.org/2000/svg" xmlns:xlink="http://www.w3.org/1999/xlink">
    <!-- Generator: sketchtool 52.5 (67469) - http://www.bohemiancoding.com/sketch -->
    <title>B9BB3E26-73D5-4E2C-8564-98ED513B2BAE</title>
    <desc>Created with sketchtool.</desc>
    <defs>
        <rect id="path-1" x="0" y="0" width="318" height="171"></rect>
        <polygon id="path-3" points="0 0.0620497918 306.338374 0.0620497918 306.338374 251.820704 0 251.820704"></polygon>
        <polygon id="path-5" points="0 261 338 261 338 0 0 0"></polygon>
    </defs>
    <g id="latest" stroke="none" stroke-width="1" fill="none" fill-rule="evenodd">
        <g id="1024px-promotions" transform="translate(-112.000000, -1843.000000)">
            <g id="promo5" transform="translate(112.000000, 1843.000000)">
                <g id="Group-6">
                    <mask id="mask-2" fill="white">
                        <use xlink:href="#path-1"></use>
                    </mask>
                    <use id="Mask" fill="#00A7A7" fill-rule="nonzero" xlink:href="#path-1"></use>
                    <g id="Group-105" mask="url(#mask-2)">
                        <g transform="translate(0.000000, -63.000000)">
                            <g id="Group-3" stroke="none" stroke-width="1" fill="none" fill-rule="evenodd">
                                <mask id="mask-4" fill="white">
                                    <use xlink:href="#path-3"></use>
                                </mask>
                                <g id="Clip-2"></g>
                                <path d="M112.637289,190.906094 C153.983939,187.754068 195.008882,277.751065 267.400217,244.392886 C339.791552,211.034707 288.790028,149.969912 290.181639,125.669929 C290.837921,110.628908 315.667235,44.0129335 267.549121,13.3459315 C219.431927,-17.320158 183.534067,12.8348908 141.566064,26.7260709 C101.130304,40.1098605 68.9476961,32.3858461 51.106768,39.549541 C9.31616317,56.3299258 -10.907232,103.52088 5.93640569,144.951676 C22.7791243,186.383384 71.2915584,194.059032 112.638208,190.906094 L112.637289,190.906094 Z" id="Fill-1" fill="#A2D7C5" mask="url(#mask-4)"></path>
                            </g>
                            <path d="M153.694983,173 C153.694983,173 229.846834,148.478601 248.983673,113.339276 C258.206024,96.4070538 245.117309,76.6318496 225.495326,77.0052072 C168.12177,78.0997825 147,167.148303 147,167.148303 L153.694983,173 Z" id="Fill-4" stroke="none" fill="#1C2C57" fill-rule="evenodd"></path>
                            <path d="M148.026121,178 L146,176.841923 C148.099865,173.389472 197.218084,92.3412911 245.324164,86 L247,87.9685502 C200.020362,94.1591824 148.534034,177.164115 148.026121,178" id="Fill-6" stroke="none" fill="#006769" fill-rule="evenodd"></path>
                            <path d="M95.0092909,114.422031 C85.9268008,102.548239 80.6448898,91.9917227 77.8343232,82.8367566 C70.2027454,57.9880864 87.2200854,32.162911 113.376145,27.8126074 C128.050271,25.3713442 146.152569,27.7329114 163.178205,44.6128954 C200.597733,81.715516 150.183598,183 150.183598,183 L131.991886,183 C131.991886,183 131.306067,161.869562 95.0092909,114.422031" id="Fill-8" stroke="none" fill="#FFD052" fill-rule="evenodd"></path>
                            <path d="M112.826989,184.999087 C112.826989,184.999087 60.0856836,173.611348 50.5182498,133.618618 C47.542675,121.177694 57.7940221,109.376171 70.6753105,110.02562 C135.98996,113.324931 132.978535,185 132.978535,185 L112.826989,185 L112.826989,184.999087 Z" id="Fill-10" stroke="none" fill="#118C8C" fill-rule="evenodd"></path>
                            <path d="M140.967339,183.999085 L138.707881,183.481084 C138.950755,182.455149 161.57109,80.0410768 104,30.9765139 L106.494051,30 C165.133231,79.9733524 141.211132,182.962168 140.967339,184" id="Fill-12" stroke="none" fill="#FFFFFF" fill-rule="evenodd"></path>
                            <path d="M124.975321,187 C124.606609,186.389524 87.6495115,125.809164 52,122.206895 L53.3195993,120 C90.1565653,123.720692 125.48819,183.299504 127,185.835964 L124.975321,187 Z" id="Fill-14" stroke="none" fill="#006769" fill-rule="evenodd"></path>
                            <mask id="mask-6" fill="white">
                                <use xlink:href="#path-5"></use>
                            </mask>
                            <g id="Clip-17" stroke="none" fill="none"></g>
                            <polygon id="Fill-16" stroke="none" fill="#004060" fill-rule="evenodd" mask="url(#mask-6)" points="101 246 168 246 168 183 101 183"></polygon>
                            <path d="M173.310809,191 L95.6937524,191 C93.1119605,191 91,188.977639 91,186.500493 C91,184.026307 93.1119605,182 95.6937524,182 L173.310809,182 C175.890776,182 178,184.026307 178,186.500493 C178,188.976652 175.890776,191 173.310809,191" id="Fill-18" stroke="none" fill="#A2D7C5" fill-rule="evenodd" mask="url(#mask-6)"></path>
                            <polygon id="Fill-19" stroke="none" fill="#E6E6E6" fill-rule="evenodd" mask="url(#mask-6)" points="183.385276 113.921445 113 251.839316 124.02471 261 337.778162 261 338 108.906665 338 108.755756 330.572565 98"></polygon>
                            <polygon id="Fill-20" stroke="none" fill="#FFFFFF" fill-rule="evenodd" mask="url(#mask-6)" points="113 247 323 247 323 97 113 97"></polygon>
                            <path d="M116.099035,244.941389 L324.900965,244.941389 L324.900965,99.0576946 L116.099035,99.0576946 L116.099035,244.941389 Z M112,249 L329,249 L329,95 L112,95 L112,249 Z" id="Fill-21" stroke="none" fill="#006769" fill-rule="evenodd" mask="url(#mask-6)"></path>
                            <polygon id="Fill-22" stroke="none" fill="#D2F8EB" fill-rule="evenodd" mask="url(#mask-6)" points="141 221 297 221 297 123 141 123"></polygon>
                            <path d="M216.545496,150.498412 L218.044197,149.666528 C221.106129,148.028244 219.379305,147.222755 225.98577,149.023046 C228.515112,149.711125 237.282833,156.422627 237.282833,156.422627 C237.282833,156.422627 246.580417,155.840126 249.143387,155.696321 C251.472782,155.563438 254.434739,159.697373 252.217134,160.917895 L247.670134,162.140236 L224.935134,157.387394 L216.545496,150.498412 Z M205.105742,222.805873 L203.569778,191.806819 C204.06783,191.373584 203.154431,188.05151 201.56848,185.038888 L194.126778,185.038888 L194.229478,183.966723 L179.955006,184.186071 C178.596269,187.307911 177.931896,190.689146 178.005513,194.094045 L178.654435,224 L190.525895,222.61565 L191.880089,208.483635 L194.56121,223.48121 L205.105742,222.806784 L205.105742,222.805873 Z" id="Fill-23" stroke="none" fill="#003A4C" fill-rule="evenodd" mask="url(#mask-6)"></path>
                            <path d="M253.778704,158.112223 C252.406984,157.113374 250.016391,156.865726 249.905735,157.062193 L249.137404,158.406099 C248.489126,159.546107 250.262758,161.573522 251.780628,161.919405 C252.996803,162.196771 254.288141,161.739447 254.835159,160.836355 C254.835159,160.836355 255.616016,159.449524 253.778704,158.112223" id="Fill-24" stroke="none" fill="#FAE6BB" fill-rule="evenodd" mask="url(#mask-6)"></path>
                            <path d="M211,149.512254 L209.478009,148.69138 C206.370381,147.074779 209.825761,146.277256 201.122741,147.855238 C198.507684,148.329441 189.952251,155.358063 189.952251,155.358063 C189.952251,155.358063 180.515908,154.783271 177.914687,154.64137 C175.549606,154.512042 172.543443,158.590366 174.795067,159.793836 L179.41085,161 L211,149.512254 Z" id="Fill-25" stroke="none" fill="#003A4C" fill-rule="evenodd" mask="url(#mask-6)"></path>
                            <polygon id="Fill-26" stroke="none" fill="#E89561" fill-rule="evenodd" mask="url(#mask-6)" points="210 151 217 151 217 143 210 143"></polygon>
                            <path d="M217.99298,125.681929 C215.028811,124.336132 211.776951,125.043755 210.726882,127.263289 C210.695236,127.33086 210.672221,127.39937 210.646329,127.46788 C209.389122,126.916985 207.735862,127.182579 206.479614,128.259968 C205.203228,129.357065 204.723745,130.964702 205.154321,132.268268 C205.150485,132.268268 207.804908,140.74473 207.804908,140.74473 L212.214241,139.800607 L219.681722,141 L221.9679,131.390778 L221.94009,131.398286 C222.347652,129.312017 220.636853,126.882261 217.99298,125.681929 M211.860382,132.071185 C212.304384,132.544185 212.845241,132.971199 213.458022,133.332518 L211.101838,133.031262 C211.408708,132.736576 211.661875,132.412796 211.860382,132.070246" id="Fill-27" stroke="none" fill="#1C2C57" fill-rule="evenodd" mask="url(#mask-6)"></path>
                            <path d="M218.35947,140.994989 L219.275208,140.999987 C220.426682,141.005984 220.934418,138.958015 220.934418,138.958015 C221.199166,137.988502 220.627056,136.956022 219.851852,137.001999 L218.604271,137 L218.35947,140.994989 Z M209.640913,140.994989 L208.725174,140.999987 C207.573701,141.005984 207.065964,138.958015 207.065964,138.958015 C206.800309,137.988502 207.372419,136.956022 208.148531,137.001999 L209.396111,137 L209.640913,140.994989 Z" id="Fill-28" stroke="none" fill="#E89561" fill-rule="evenodd" mask="url(#mask-6)"></path>
                            <path d="M213.071704,130 C211.02273,130 208.795426,130.838211 207.750922,132.124687 C206.868372,133.210097 207.004849,134.772495 207.011217,134.823849 L207.424288,141.796758 C207.626274,143.260799 210.8999,145.41508 210.8999,145.41508 C212.154579,146.194973 213.772285,146.194973 215.026963,145.41508 C215.026963,145.41508 218.163203,143.690784 218.59902,141.964748 L218.997532,132.817539 C219.084878,132.387553 216.848475,130 213.071704,130" id="Fill-29" stroke="none" fill="#FFAB78" fill-rule="evenodd" mask="url(#mask-6)"></path>
                            <path d="M225.34682,184.764301 L201.234147,185 L198,156.270516 C198,151.161558 202.139708,147 207.335904,147 L213.463909,147.559785 L219.520669,147.032224 C224.716865,147.032224 229,151.141303 229,156.24934 L225.34682,184.764301 Z" id="Fill-30" stroke="none" fill="#003A4C" fill-rule="evenodd" mask="url(#mask-6)"></path>
                            <path d="M216.978519,126.838775 C214.178421,125.516645 211.297674,125.786787 210.543731,127.442677 C210.339841,127.891685 210.317186,128.397856 210.444052,128.922467 C209.729981,128.980552 208.926199,129.249773 208.161383,129.73105 C206.43964,130.813464 205.566988,132.554176 206.213095,133.61815 C206.302807,133.765668 206.419704,133.890136 206.554725,133.997087 L206.554725,136.320495 C206.555631,136.695744 206.854671,137 207.22258,137 L207.277857,137 C207.645766,137 207.9439,136.694822 207.945712,136.320495 L207.945712,133.912264 C207.945712,133.88737 207.940275,133.863398 207.937556,133.838505 L207.937556,133.366447 C207.937556,132.005593 209.022254,130.901052 210.359777,130.90013 L211.574965,130.90013 C212.243726,131.63772 213.158062,132.319069 214.248197,132.833538 C217.048295,134.155668 220.074938,133.966661 220.827974,132.312615 C221.581916,130.656726 219.77771,128.160905 216.978519,126.838775" id="Fill-31" stroke="none" fill="#1C2C57" fill-rule="evenodd" mask="url(#mask-6)"></path>
                            <path d="M213.058129,148.760197 L214.15131,150.275917 C214.772514,151.137399 215.870901,151.245085 216.606628,150.518717 C216.730696,150.395793 216.839146,150.253567 216.930245,150.094071 L218,148.222786 L216.634392,146.156448 L213.058129,148.760197 Z M213.058129,148.760197 L212.004859,150.214963 C211.382787,151.074414 210.283533,151.181083 209.54954,150.451668 C209.460177,150.363285 209.378622,150.263726 209.305744,150.156041 L208,148.210595 L209.620684,146 L213.058129,148.760197 Z" id="Fill-32" stroke="none" fill="#FFFFFF" fill-rule="evenodd" mask="url(#mask-6)"></path>
                            <path d="M206,163.163931 C205.766054,157.342129 202.588595,153.76711 197.109145,154.011809 L184.255832,154.549406 C178.776382,154.795032 176.785101,158.696317 177.018133,164.519046 L178.82573,194.113751 C179.926006,194.241662 181.057354,194.13785 182.182304,194.298202 C188.528999,195.200994 196.346993,195.288122 201.928794,194.234246 L206,163.163931 Z" id="Fill-33" stroke="none" fill="#3E517C" fill-rule="evenodd" mask="url(#mask-6)"></path>
                            <path d="M207.960899,213.189297 L207.567651,211.681284 L206.727449,208.697817 L204.738454,195.994594 C204.617385,195.223377 204.629219,194.438205 204.772135,193.671639 L207.645937,177.163496 C207.645937,177.163496 207.138903,176.885337 206.749296,177.054651 C204.506329,178.033325 203.226454,180.505127 202.906941,182.976 L200.180607,192.494812 C199.918442,193.61303 199.94211,194.781485 200.248879,195.886679 L204.10671,209.786266 L203.835442,212.058054 L204.674734,214.25821 C204.889563,214.824762 205.493089,215.125248 206.061113,214.950352 L207.189879,214.603351 C207.77884,214.421012 208.120201,213.795852 207.960899,213.189297" id="Fill-34" stroke="none" fill="#FFB385" fill-rule="evenodd" mask="url(#mask-6)"></path>
                            <polygon id="Fill-35" stroke="none" fill="#00756F" fill-rule="evenodd" mask="url(#mask-6)" points="225.917074 212.23125 225.806196 203.303828 216.494293 200.72328 216.548334 200 215.583042 200.469769 214.791055 200.250786 214.860936 200.821414 206.191009 205.039337 206 212.470223 206.456557 223.867338 214.494759 223.867338 215.584906 212.983607 215.871884 209.11642 216.366643 213.176239 217.971116 224 226 223.637451"></polygon>
                            <path d="M245,158 C245,158 246.044228,158.134709 246.54814,158.275789 C249.450902,159.085862 251.875619,161.365898 252.617116,164.153823 L257,175.57858 L252.391027,179 L245,158 Z" id="Fill-36" stroke="none" fill="#FAB08A" fill-rule="evenodd" mask="url(#mask-6)"></path>
                            <path d="M256.947898,175.289224 C257.503684,176.587885 261,192.830851 261,192.830851 L257.550389,193 L252,177.49094 C252,177.49094 256.394914,173.989639 256.948832,175.289224" id="Fill-37" stroke="none" fill="#E89561" fill-rule="evenodd" mask="url(#mask-6)"></path>
                            <path d="M261.430377,192 L258,192.377069 L258.955151,195.221696 L258.644679,197.074649 C258.598156,197.507365 258.971291,197.886095 259.465957,197.906858 L261.493991,197.999049 C261.934538,198.018152 262.320965,197.747393 262.395972,197.367833 L262.985583,194.355435 C263.031157,194.122051 262.967544,193.882853 262.810884,193.690165 L261.430377,192 Z" id="Fill-38" stroke="none" fill="#FAE6BB" fill-rule="evenodd" mask="url(#mask-6)"></path>
                            <path d="M262,161 C262,161 256.808507,161.348098 254.23979,167.40751 L248.432215,179.383685 L241.416709,181.861638 L240,188 L250.327063,183.577006 C252.194882,182.775843 253.710388,181.365509 254.60422,179.595415 L259.946704,169.021499 L262,161 Z" id="Fill-39" stroke="none" fill="#FFAB78" fill-rule="evenodd" mask="url(#mask-6)"></path>
                            <path d="M182,155 C182,155 180.98144,155.119467 180.487536,155.2518 C177.649918,156.018226 175.251223,158.277072 174.477751,161.079951 L170,172.537755 L175.639823,179 L182,155.000919 L182,155 Z" id="Fill-40" stroke="none" fill="#3E517C" fill-rule="evenodd" mask="url(#mask-6)"></path>
                            <path d="M251,219.867009 L249.728784,191.938073 C249.581075,189.124953 248.824993,186.377406 247.51408,183.884757 L241.350944,183.884757 L241.4368,183 L229.618276,183.180091 C228.493845,185.763248 227.943631,188.559743 228.004561,191.375633 L228.599087,219.933505 L238.130899,219.928887 L239.490741,203.274593 L242.075639,220 L251,219.867009 Z" id="Fill-41" stroke="none" fill="#58C4C5" fill-rule="evenodd" mask="url(#mask-6)"></path>
                            <path d="M184.907713,187.438941 C185.170911,186.498692 185.140506,185.380407 184.746183,184.270467 C184.465881,183.467453 184.003145,182.736766 183.392182,182.132187 C183.844466,181.557281 184.117166,180.840503 184.117166,180.058816 C184.118116,179.265075 183.834014,178.494516 183.313317,177.884373 L180.700334,173.549396 C179.645638,171.595643 177.312006,170.928937 174.604955,171.005901 C171.653709,171.089355 169.673542,172.468202 168.595093,174.614827 C168.587491,174.612045 165.480416,180.696777 165.351192,181.410773 C165.155456,182.498458 165.408203,183.524016 165.921298,184.179595 C164.711724,184.513411 164.008593,185.740187 164.350657,186.920599 C164.498884,187.434305 164.832396,187.878466 165.28848,188.171483 C162.998556,189.580003 162.312529,192.532424 163.754897,194.766212 C164.651863,196.155259 166.216802,196.999073 167.898614,197 C170.604715,196.998145 172.797721,194.855229 172.79582,192.214371 C172.79582,191.796173 172.735009,191.391884 172.63239,191.004286 C173.302264,190.869832 173.935081,190.599997 174.490934,190.210545 C175.536128,191.515211 177.049758,192.157807 178.383805,191.706228 C179.402393,191.35943 180.098872,190.44978 180.366822,189.301822 C181.031945,189.696838 181.75883,189.872092 182.459109,189.778438 C182.539874,191.001504 183.621174,191.928772 184.873506,191.849954 C186.063127,191.774846 186.991448,190.816051 187,189.651402 C187,188.484899 186.078329,187.530741 184.907713,187.439869 L184.907713,187.438941 Z M170.723487,180.809903 C171.237532,181.152993 171.802886,181.417264 172.398647,181.593445 C172.152551,181.5545 171.902655,181.5341 171.653709,181.532245 C171.024692,181.532245 170.426082,181.65279 169.874029,181.86328 C169.916787,181.4729 169.903485,181.079738 169.834122,180.693995 L170.723487,180.809903 Z M173.623424,181.846589 L173.625324,181.939316 C173.491349,181.882752 173.355474,181.830825 173.216748,181.785389 C173.349773,181.808571 173.485648,181.829898 173.623424,181.846589 Z M175.341342,183.155891 C174.863403,182.639403 174.279045,182.225841 173.628174,181.94117 L173.842914,181.866989 C174.157422,181.894807 174.476681,181.911498 174.812094,181.902225 C175.705259,181.882752 176.588923,181.709353 177.421277,181.393155 C177.620814,181.851225 177.922019,182.253659 178.293538,182.581912 C178.144361,182.869365 178.027489,183.181855 177.947674,183.518453 C177.118171,183.027001 176.193649,182.866584 175.341342,183.156818 L175.341342,183.155891 Z" id="Fill-42" stroke="none" fill="#1C2C57" fill-rule="evenodd" mask="url(#mask-6)"></path>
                            <polygon id="Fill-43" stroke="none" fill="#FAE6BB" fill-rule="evenodd" mask="url(#mask-6)" points="229 175.873287 231.620937 176 234 172.095363 230.039305 171"></polygon>
                            <path d="M280,221 L256,220.504687 L257.361562,190.537355 C257.361562,188.329236 258.863417,186 258.863417,186 L275.464758,186 C275.464758,186 277.262487,188.367198 277.262487,190.573509 L280,221 Z" id="Fill-44" stroke="none" fill="#3E517C" fill-rule="evenodd" mask="url(#mask-6)"></path>
                            <path d="M238.594467,152.68406 C238.50835,152.68406 238.426583,152.69246 238.342206,152.698994 C238.647529,152.142699 238.808455,151.508933 238.810195,150.864901 C238.812804,149.559101 238.143006,148.388642 237.159186,147.738075 L237.159186,147.288186 L234.287752,141 L232.185282,149.672973 C232.06437,150.054726 232.00261,150.45328 232,150.855567 C232,151.677875 232.252262,152.436714 232.679367,153.049011 C232.896834,153.359827 233.31611,153.631441 233.77366,153.852652 C234.673973,154.290408 235.235908,155.272324 235.189805,156.331711 C235.184586,158.292744 236.690327,159.953228 238.51183,159.998964 C240.393354,160.046566 241.954767,158.447685 241.99913,156.429716 C241.99913,156.399848 242,156.370913 242,156.342912 C242.000869,154.324009 240.476861,152.685926 238.596207,152.68406 L238.594467,152.68406" id="Fill-45" stroke="none" fill="#1C2C57" fill-rule="evenodd" mask="url(#mask-6)"></path>
                            <path d="M256.10033,155.051808 C255.25413,154.458826 254.883749,153.317759 255.235206,152.321662 C255.501051,151.573421 255.56143,150.73352 255.365876,149.894555 C254.953139,148.134317 253.53109,146.907202 251.917092,146.74633 C250.697807,146.648123 249.644338,145.865276 249.27666,144.667155 L247.897867,140 L240,143.220243 L242.255632,154.907771 C242.255632,154.907771 244.099429,158.5489 246.87684,158.576959 C247.358967,158.5807 247.905978,158.357163 248.466506,158.018584 C248.440372,158.202838 248.425053,158.388963 248.424151,158.576959 C248.424151,161.019031 250.568038,163 253.212076,163 C255.857014,163 258,161.019031 258,158.576959 C258,157.136595 257.254731,155.857102 256.10033,155.050872" id="Fill-46" stroke="none" fill="#1C2C57" fill-rule="evenodd" mask="url(#mask-6)"></path>
                            <path d="M234,156 C234,156 232.956449,156.083191 232.448929,156.200966 C229.527366,156.873968 226.995472,159.080854 226.098284,161.899984 L221.099122,173.379343 L217,177.134133 L220.937552,180 C223.901884,178.124007 226.293118,175.492756 227.854643,172.38386 L232.327277,163.486213 L234,156.000935 L234,156 Z" id="Fill-47" stroke="none" fill="#FAB08A" fill-rule="evenodd" mask="url(#mask-6)"></path>
                            <path d="M246.938315,142.351437 C246.537297,145.198719 243.705656,147.3253 239.931886,146.958874 C236.15724,146.591513 233.915743,143.971378 234.002426,141.094183 C234.103994,137.758956 237.087986,135.674439 240.861757,136.0418 C244.635527,136.409161 247.457537,138.659131 246.938315,142.351437" id="Fill-48" stroke="none" fill="#1C2C57" fill-rule="evenodd" mask="url(#mask-6)"></path>
                            <path d="M244.269818,150.901373 L245.14457,150.99498 C246.244489,151.110265 246.893182,149.201665 246.893182,149.201665 C247.221102,148.300081 246.756474,147.256608 246.011281,147.226063 L244.818437,147.103881 L244.269818,150.901373 Z M236.33182,149.972199 L235.456174,149.890416 C234.354468,149.784 234.030122,147.776867 234.030122,147.776867 C233.853206,146.826016 234.482241,145.891915 235.219392,146.010156 L236.41313,146.128396 L236.33182,149.972199 Z" id="Fill-49" stroke="none" fill="#E89561" fill-rule="evenodd" mask="url(#mask-6)"></path>
                            <path d="M241,158 C239.342462,158 238,157.245775 238,155.392862 L238,151 L244,151 L244,155.218737 C244,157.071651 242.656691,158 241,158" id="Fill-50" stroke="none" fill="#FFAB78" fill-rule="evenodd" mask="url(#mask-6)"></path>
                            <path d="M238.000847,155.44527 C238.94933,155.798365 240.03331,156 241.184192,156 C242.190261,156 243.141284,155.842037 244,155.568853 L244,151 L238,151 L238,155.44527 L238.000847,155.44527 Z" id="Fill-51" stroke="none" fill="#E89561" fill-rule="evenodd" mask="url(#mask-6)"></path>
                            <path d="M237.764764,141.009514 C236.501583,140.893522 235.386071,141.8516 235.273096,143.148523 C235.269538,143.185969 235.266869,143.223415 235.26598,143.260862 L235,150.072444 C235.058711,151.580345 237.320872,153.915719 237.320872,153.915719 C237.869732,154.357768 238.537795,154.96239 239.234323,154.998009 C240.694987,155.073815 244.68468,152.969513 245.253111,151.249721 L245.973657,145.39987 C246.264545,143.503806 244.077997,141.599522 242.786351,141.47531 C240.868451,141.290818 239.68978,141.184872 237.764764,141.009514" id="Fill-52" stroke="none" fill="#FAB08A" fill-rule="evenodd" mask="url(#mask-6)"></path>
                            <path d="M241.705275,139.922782 C242.595612,141.188113 241.400911,143.280712 239.035213,144.595747 C236.669516,145.911625 232.14103,143.488793 233.142303,144.687572 C233.311078,144.889756 233.447615,141.329642 235.812365,140.013764 C238.177114,138.698729 240.816835,138.65745 241.705275,139.922782" id="Fill-53" stroke="none" fill="#1C2C57" fill-rule="evenodd" mask="url(#mask-6)"></path>
                            <path d="M200,154 C200,154 201.013876,154.095435 201.506013,154.216318 C204.338575,154.912536 206.771508,157.093896 207.603145,159.848773 L214,176.112634 L208.60037,180 L200,154 Z" id="Fill-54" stroke="none" fill="#3E517C" fill-rule="evenodd" mask="url(#mask-6)"></path>
                            <path d="M213.540635,180.271086 C214.108651,181.55075 218,197.691211 218,197.691211 L214.780658,198 L209,182.677411 C209,182.677411 212.973493,178.989567 213.540635,180.270159" id="Fill-55" stroke="none" fill="#FAE6BB" fill-rule="evenodd" mask="url(#mask-6)"></path>
                            <polygon id="Fill-56" stroke="none" fill="#FAE6BB" fill-rule="evenodd" mask="url(#mask-6)" points="214.933913 201 214 197.544959 217.32562 197 219 199.111717"></polygon>
                            <polygon id="Fill-57" stroke="none" fill="#FAE6BB" fill-rule="evenodd" mask="url(#mask-6)" points="215 204 215.143182 201.140651 219.308743 199 220 203.422364"></polygon>
                            <path d="M274.993254,162 C274.993254,162 278.094621,162.517979 279.860998,168.311935 L284,181.952349 L278.363572,182 L274,169.687624 L274.994142,162 L274.993254,162 Z" id="Fill-58" stroke="none" fill="#FFAB78" fill-rule="evenodd" mask="url(#mask-6)"></path>
                            <path d="M279.08783,167.585695 C277.347021,161.696974 274.336872,160.983414 274.128338,160.940675 C273.257933,160.477977 272.265128,160.213179 271.162616,160.196455 L262.453131,160.001341 C261.948115,159.991121 261.443099,160.039435 260.948057,160.141638 L260.948057,160.140708 C260.948057,160.140708 255.642216,160.000412 252.805241,166.583181 L250,172.728338 C250.970138,174.335704 253.172443,174.840213 253.833406,175.170048 L255.825363,175.550985 L255.979498,175.086428 L257.145477,188.061498 C261.329765,193.28869 274.115644,190.193813 275.065836,188.98132 L277.023339,175.938425 C278.571934,176.055493 280.070662,175.355871 281,174.081127 L279.08783,167.584766 L279.08783,167.585695 Z" id="Fill-59" stroke="none" fill="#FFD874" fill-rule="evenodd" mask="url(#mask-6)"></path>
                            <path d="M276.687831,152.9707 L273.258116,144.188745 C272.603126,142.532762 270.960584,141.257443 268.920995,141.034929 C266.979056,140.81977 265.180828,141.615121 264.1509,142.965837 C262.150003,143.520283 260.631826,144.829623 260.2053,146.453425 C260.189639,146.446069 258.255991,155.353992 258.255991,155.353992 C258.038582,155.767758 257.947381,156.254163 258.030291,156.753441 C258.221906,157.910147 259.264731,158.706416 260.397836,158.592401 L268.857431,157.750157 L268.350758,156.543799 L262.989237,155.12688 L264.232889,151.914217 C264.897091,152.10271 265.58156,152.207531 266.272478,152.224082 C267.331885,152.251666 268.336019,152.078804 269.222236,151.752389 C267.647865,153.609738 267.880934,156.389327 269.742727,157.959799 C270.412456,158.524359 271.235109,158.87744 272.105665,158.973066 C274.52664,159.239715 276.707176,157.496381 276.97341,155.079987 C277.052635,154.364631 276.954064,153.640081 276.687831,152.9707" id="Fill-60" stroke="none" fill="#FFFFFF" fill-rule="evenodd" mask="url(#mask-6)"></path>
                            <path d="M270.423739,154.944548 L271.27468,154.998051 C272.342271,155.065588 272.913046,153.35523 272.913046,153.35523 C273.205393,152.547414 272.725108,151.638731 272.002069,151.6361 L270.844859,151.566809 L270.423739,154.943671 L270.423739,154.944548 Z M262.331101,154.474418 L261.4819,154.429686 C260.412569,154.372674 260.039303,152.607057 260.039303,152.607057 C259.840925,151.770297 260.42214,150.923889 261.139088,151.00546 L262.297168,151.070366 L262.331971,154.473541 L262.331101,154.474418 Z" id="Fill-61" stroke="none" fill="#E89561" fill-rule="evenodd" mask="url(#mask-6)"></path>
                            <path d="M265.781726,163.997107 C264.177346,163.921539 262.932762,162.456833 263.002818,160.725309 L263.191365,156 L269,156.270551 L268.811453,160.995859 C268.743126,162.727384 267.386106,164.070809 265.781726,163.997107" id="Fill-62" stroke="none" fill="#FFAB78" fill-rule="evenodd" mask="url(#mask-6)"></path>
                            <path d="M263,160.312093 C263.906805,160.69668 264.950585,160.937954 266.067187,160.989655 C266.992198,161.034101 267.919809,160.935233 268.817945,160.694866 L269,156.263043 L263.176853,156 L263,160.312093 Z" id="Fill-63" stroke="none" fill="#E89561" fill-rule="evenodd" mask="url(#mask-6)"></path>
                            <path d="M267.35676,145.382338 C265.350865,145.263313 263.368927,144.416917 262.269693,145.707294 C261.341841,146.794573 261.043306,148.73864 261.045149,148.790596 L261,156.034088 C261.096747,157.375475 263.497002,158.813216 264.137377,159.174068 C264.252553,159.237359 264.360357,159.311041 264.470004,159.384723 C265.507504,160.077143 266.813132,160.192389 267.951986,159.69362 C268.213664,159.579318 268.472579,159.461239 268.741628,159.366775 C269.593926,159.063545 271.526108,158.23982 271.936133,156.855924 L272.995746,148.682907 C273.106314,148.236092 271.057114,145.600549 267.35676,145.382338" id="Fill-64" stroke="none" fill="#FFAB78" fill-rule="evenodd" mask="url(#mask-6)"></path>
                            <path d="M270.673569,143.173988 C268.141518,141.663853 265.417476,141.602657 264.589227,143.036532 C264.346224,143.460198 264.295212,143.965773 264.408366,144.508065 L262.206502,143.917757 L260.560205,146.860824 L260,150.996747 C260.748485,151.047587 261.407004,150.496821 261.498826,149.741754 L261.813245,147.330623 C261.958861,146.252628 262.839978,145.430716 263.91123,145.374227 L264.694033,145.332802 C265.205081,146.406089 266.261493,147.522685 267.675917,148.366251 C270.207968,149.875444 272.93201,149.937582 273.76026,148.502766 C274.587582,147.068892 273.204692,144.684122 270.673569,143.173988" id="Fill-65" stroke="none" fill="#FFFFFF" fill-rule="evenodd" mask="url(#mask-6)"></path>
                            <path d="M174.068883,158.251071 C175.272175,157.127111 177.36422,156.848443 177.463885,157.070449 L178.134107,158.582686 C178.703751,159.864557 177.149347,162.145917 175.819874,162.535123 C174.755564,162.847231 173.624507,162.332625 173.14447,161.316416 C173.14447,161.316416 172.460532,159.755877 174.068883,158.251071 Z M275,195.691011 L271.90765,197.317502 C271.751295,197.399245 271.610485,197.504209 271.487047,197.631468 L270.646754,198.496267 C270.002134,199.161354 268.948796,199.168785 268.294118,198.512987 C268.236513,198.455395 268.184395,198.394088 268.13502,198.329066 C267.644925,197.670481 267.694301,196.747162 268.252057,196.146169 L269.520268,194.589345 C269.881439,194.145334 270.381591,193.839729 270.936605,193.721759 L272.569643,193.375282 L275,195.691011 Z" id="Fill-66" stroke="none" fill="#FFAB78" fill-rule="evenodd" mask="url(#mask-6)"></path>
                            <path d="M191.748137,156.990868 C189.435484,157.099523 187.415572,156.247491 187.305794,153.955788 L187.077091,149.180425 L195.450395,148.786553 L195.679099,153.563726 C195.788876,155.853618 194.058961,156.883119 191.748137,156.990868 Z M196.884825,147.526161 L197.931374,147.570528 C199.245963,147.622139 199.905545,145.544123 199.905545,145.544123 C200.244027,144.560801 199.630186,143.476973 198.742815,143.492365 L197.316618,143.437133 L196.884825,147.526161 Z M186.922487,147.162169 L185.875023,147.128667 C184.560434,147.087016 184.057285,144.965538 184.057285,144.965538 C183.791989,143.959579 184.485419,142.924646 185.36913,143.004326 L186.795327,143.05322 L186.923402,147.162169 L186.922487,147.162169 Z" id="Fill-67" stroke="none" fill="#E89561" fill-rule="evenodd" mask="url(#mask-6)"></path>
                            <path d="M191.708894,134.012588 C185.550564,133.722925 184.995649,138.52772 185.000025,138.588368 L185.193458,147.695574 C185.350129,149.42903 187.728211,150.564149 188.791652,151.224039 C189.476981,151.647672 190.217451,151.967207 191.014813,151.997984 C191.81305,152.027856 192.555271,151.720993 193.288739,151.394216 C194.440581,150.881874 196.811661,150.373152 197.358699,148.358179 L197.995888,139.057261 C198.110547,136.482876 195.822617,134.205396 191.708894,134.012588" id="Fill-68" stroke="none" fill="#FFAB78" fill-rule="evenodd" mask="url(#mask-6)"></path>
                            <path d="M196.895419,142.022472 L197.079057,136.394195 C198.168646,137.643258 197.991129,139.143258 197.986757,139.17603 L197.749775,143 C197.261822,142.98221 196.878804,142.546816 196.895419,142.024345 L196.895419,142.023408 M185.999532,141.588951 L186.235639,136 C185.160042,137.17603 184.998265,138.713483 185.000014,138.746255 L185.076093,142.492509 C185.564047,142.515918 185.977671,142.11236 185.999532,141.590824 L185.999532,141.588951" id="Fill-69" stroke="none" fill="#FFFFFF" fill-rule="evenodd" mask="url(#mask-6)"></path>
                            <path d="M189.974964,138.92339 C189.842256,138.919561 189.738485,138.833045 189.743474,138.731217 C189.747465,138.628623 189.860217,138.548997 189.993922,138.552825 L193.576028,138.627857 C193.710731,138.638576 193.816498,138.715904 193.812506,138.818499 C193.808515,138.921093 193.697759,139.002249 193.565052,138.999952 L193.564054,138.999952 L189.980951,138.92339 L189.974964,138.92339 M189.233598,137.372227 C189.098895,137.368398 188.996121,137.281117 189.000112,137.179288 C189.005101,137.076694 189.118851,136.996303 189.251558,137.000131 L194.765406,137.118038 C194.899112,137.121101 195.003881,137.206085 194.99989,137.309445 C194.995898,137.411274 194.884145,137.49243 194.750439,137.489368 L189.238587,137.372227 L189.234596,137.372227" id="Fill-70" stroke="none" fill="#E89561" fill-rule="evenodd" mask="url(#mask-6)"></path>
                            <path d="M191.557759,147 C191.545222,147.034395 191.540745,147.069538 191.53179,147.103185 L188,147.467322 C188.123577,148.307754 189.038762,148.90443 190.045286,148.801246 C190.732122,148.729465 191.307023,148.330933 191.516566,147.779867 C191.648203,148.320465 192.117436,148.759374 192.745171,148.928357 C193.680952,149.179589 194.682103,148.748906 194.982986,147.967543 C194.982986,147.966796 194.982986,147.966048 194.983881,147.9653 L195,147.921933 L191.557759,147 Z" id="Fill-71" stroke="none" fill="#F2D6D6" fill-rule="evenodd" mask="url(#mask-6)"></path>
                            <path d="M181.368335,188 L182.499172,188.403551 C184.415967,189.332444 185.692016,191.214771 185.846304,193.341592 L186.765676,200.13742 C187.043393,202.182439 187.074251,204.255635 186.858248,206.307926 L185.794572,216.40487 L185.3426,220.96481 C183.868701,221.448344 182.684317,216.800241 181.2803,216.138563 L182.069889,203.226763 L181.368335,188 Z M168.547041,188.4699 L167.394422,188.808919 C165.429525,189.626927 164.049106,191.432907 163.775018,193.547911 L162.470835,200.281025 C162.078763,202.306958 161.930829,204.372883 162.029754,206.434263 L163.015379,219.913215 C163.015379,219.913215 165.924153,220.492183 167.362657,219.913215 L167.042284,216.569381 L166.986014,203.631222 L168.547041,188.4699 Z" id="Fill-72" stroke="none" fill="#FAB08A" fill-rule="evenodd" mask="url(#mask-6)"></path>
                            <path d="M177.833455,183 L178.663955,182.919968 C179.71075,182.818542 179.978153,181.309828 179.978153,181.309828 C180.125088,180.593506 179.508145,179.907295 178.809065,180.010306 L177.677394,180.122825 L177.833455,182.999208 L177.833455,183 Z M170.459344,182.932647 L169.623368,182.953249 C168.57201,182.977021 168.069147,181.514265 168.069147,181.514265 C167.809958,180.822507 168.312821,180.068942 169.021028,180.08796 L170.160912,180.064188 L170.459344,182.932647 Z" id="Fill-73" stroke="none" fill="#E89561" fill-rule="evenodd" mask="url(#mask-6)"></path>
                            <path d="M175.239655,190.996515 C173.63874,191.073858 172.277082,189.854617 172.198795,188.272123 L172.198795,188.271254 L172,184.280695 L177.797602,184 L177.996397,187.989691 C178.075563,189.572184 176.840571,190.918302 175.239655,190.996515" id="Fill-74" stroke="none" fill="#FFAB78" fill-rule="evenodd" mask="url(#mask-6)"></path>
                            <path d="M172.19193,187.615037 C173.125165,187.907948 174.181658,188.046186 175.294497,187.986251 C176.216288,187.938882 177.126632,187.749408 178,187.421696 L177.802788,183 L172,183.313212 L172.19193,187.615037 Z" id="Fill-75" stroke="none" fill="#E89561" fill-rule="evenodd" mask="url(#mask-6)"></path>
                            <path d="M170.950636,175.138654 C169.720166,175.169078 169.183853,176.766781 169,178.042731 L169.307618,183.908045 C169.519273,185.310299 171.956895,187.197488 171.956895,187.197488 C172.514732,187.552431 173.199025,188.016162 173.854618,187.999567 C174.509314,187.985738 175.316474,187.496194 175.857271,187.116359 C175.857271,187.116359 178.643766,185.555533 178.996226,183.885919 L178.999813,177.674882 C179.015059,176.421058 178.096691,174.973629 176.876983,175.000365 C175.069842,175.037242 172.765849,175.09348 170.950636,175.137732" id="Fill-76" stroke="none" fill="#FAB08A" fill-rule="evenodd" mask="url(#mask-6)"></path>
                            <path d="M174.113582,172.004889 L173.345551,172.040955 C170.716112,172.16899 168.87426,174.673791 169.00671,177.70606 L169.028044,177.879178 C169.385392,177.550074 169.627179,177.343594 170.109865,177.334578 L177.367046,177.199329 C177.952847,177.18851 178.513758,177.438268 178.901329,177.884588 L179,178 L179,177.33007 C178.958221,174.279767 176.755465,171.876854 174.113582,172.004889" id="Fill-77" stroke="none" fill="#1C2C57" fill-rule="evenodd" mask="url(#mask-6)"></path>
                            <path d="M253.732872,165.132369 C253.618519,162.597964 252.373444,160.490161 250.423955,158.851258 L249.811024,159.254459 C249.153266,157.915257 247.869768,157.013455 245.42902,156.746155 L235.480315,156.010853 C233.275591,155.914553 231.860359,156.460854 230.960173,157.579556 L230.599732,157.198855 C228.883523,158.218557 227.524096,159.81786 226.923972,161.702463 L226,163.826466 C226.77577,165.485169 228.012611,166.894572 229.567811,167.891773 L229.70412,184 L247.785605,184 L249.897017,169.005975 C251.795276,168.000673 254,165.85327 254,165.85327 L253.731957,165.133269 L253.732872,165.132369 Z" id="Fill-78" stroke="none" fill="#118C8C" fill-rule="evenodd" mask="url(#mask-6)"></path>
                            <path d="M175.053983,192.961513 C177.521622,192.645114 179.271843,190.463083 178.965121,188.087074 C178.961655,188.057762 178.952991,188.02845 178.948658,188 L170.006934,188.461235 C169.993071,188.714699 169.999136,188.971612 170.032928,189.23111 C170.33965,191.608843 172.588077,193.277911 175.053983,192.961513" id="Fill-79" stroke="none" fill="#FAE6BB" fill-rule="evenodd" mask="url(#mask-6)"></path>
                            <path d="M244.954488,156.675263 L234.697448,156.009879 C232.435504,155.921813 230.856483,156.424928 230,157.42382 C231.318681,159.280534 235.192661,160.747477 239.792954,160.976611 C243.954629,161.183728 248.187992,159.985874 250,158.549101 C249.159553,157.880456 247.423006,156.91255 244.954488,156.675263" id="Fill-80" stroke="none" fill="#FAB08A" fill-rule="evenodd" mask="url(#mask-6)"></path>
                            <path d="M184,193.354697 C183.912743,189.998829 182.063079,187.911391 178.817306,188.00289 L169.377204,188.454107 C166.130522,188.545606 164.917106,190.775675 165.004363,194.13244 L166.235957,198.360241 L166.27595,208.73643 C166.92765,208.819856 177.303945,209.394866 182.247591,208.525623 L182.609344,199.286895 L184,193.354697 Z" id="Fill-81" stroke="none" fill="#005960" fill-rule="evenodd" mask="url(#mask-6)"></path>
                            <path d="M179.031658,188.002741 L169.58737,188.514299 C169.390974,188.519394 169.195487,188.535698 169,188.562193 C169.18003,190.756183 171.794098,192.273532 174.837328,191.958649 C177.586874,191.673318 179.740866,189.989866 180,188.055731 C179.679038,188.010894 179.354439,187.992551 179.030749,188.002741" id="Fill-82" stroke="none" fill="#FAB08A" fill-rule="evenodd" mask="url(#mask-6)"></path>
                            <path d="M187,201.893606 C186.965892,201.149155 185.945428,193.999359 185.945428,193.999359 C185.789639,192.012954 184.492625,190.255473 182.548488,189.38935 L181.473636,189 L182.022124,202.154975 L181.949299,203.242811 L182.044248,203.252725 C183.903577,203.41225 185.731563,203.158091 186.999078,201.893606 L187,201.893606 Z M167.1816,189.81475 C165.184919,190.625896 163.783739,192.417626 163.506268,194.513986 L162.180678,201.190613 C162.112463,201.533998 162.053466,201.877383 162,202.223471 L162.19635,202.424455 C163.357854,203.616839 165.038348,204.184641 166.705015,203.946705 L167.991888,192.891695 L168.352323,189.479477 L167.180678,189.81475 L167.1816,189.81475 Z" id="Fill-83" stroke="none" fill="#005960" fill-rule="evenodd" mask="url(#mask-6)"></path>
                            <polygon id="Fill-84" stroke="none" fill="#FEF4E1" fill-rule="evenodd" mask="url(#mask-6)" points="188.769677 160 185 154.930905 186.934548 153 191 157.176099"></polygon>
                            <polygon id="Fill-85" stroke="none" fill="#FEF4E1" fill-rule="evenodd" mask="url(#mask-6)" points="193.636943 160 197 154.099413 194.872315 153 191 157.128636"></polygon>
                            <path d="M225.186938,204.862145 L205.812201,206 L205.007464,182.164196 C204.866866,178.231462 206.712211,175.458176 210.583274,175.314536 L219.663852,175.004724 C223.534915,174.862962 225.859402,177.929161 226,181.861895 L225.186938,204.862145 Z" id="Fill-86" stroke="none" fill="#118C8C" fill-rule="evenodd" mask="url(#mask-6)"></path>
                            <path d="M218.997611,158.554598 C218.646124,158.435932 218.279355,158.373277 217.909889,158.370429 C217.892809,157.703055 217.394794,157.118272 216.7089,157.016694 C216.320556,156.954988 215.925919,157.066059 215.616682,157.321427 C215.589714,157.34516 215.565443,157.370792 215.542969,157.398322 C215.262499,157.750521 214.802239,157.867288 214.431874,157.62521 C214.042631,157.374589 213.608441,157.212255 213.156273,157.14865 C211.75392,156.939799 210.501691,157.63945 210.35786,158.714084 C210.347072,158.798574 210.343476,158.883064 210.347072,158.967553 C210.176273,158.894455 209.994686,158.852685 209.810403,158.844141 C208.888086,158.808067 208.112297,159.567525 208.078137,160.54248 C208.062855,160.946892 208.183314,161.319976 208.389172,161.625658 C208.073643,161.957921 207.924418,162.378471 208.037685,162.751555 C208.148255,163.118943 208.488955,163.344882 208.912357,163.397095 L208.872804,168.21396 L213.223693,167.582661 L213.198523,168.653497 L220.163542,169 L220.361309,163.077173 L220.366703,163.034454 C220.399065,162.645231 220.384682,162.284488 220.332543,161.949377 C220.626498,161.759513 220.843143,161.497499 220.942027,161.169983 C221.238679,160.188383 220.367602,159.016918 218.997611,158.554598" id="Fill-87" stroke="none" fill="#1C2C57" fill-rule="evenodd" mask="url(#mask-6)"></path>
                            <path d="M218.634538,171 L219.507691,170.941724 C220.60537,170.868163 220.964226,169.073083 220.964226,169.073083 C221.156128,168.223788 220.547799,167.372582 219.812815,167.464294 L218.622064,167.546453 L218.634538,171 Z M210.473911,170.602579 L209.599798,170.588249 C208.500201,170.570098 208.054029,168.793169 208.054029,168.793169 C207.818949,167.953427 208.383141,167.074516 209.123882,167.128971 L210.197573,167 L210.473911,170.602579 Z" id="Fill-88" stroke="none" fill="#F09C69" fill-rule="evenodd" mask="url(#mask-6)"></path>
                            <path d="M215.024127,178.999971 C213.373112,179.007084 212.027335,177.705425 212.020045,176.092578 L212,172.028452 L217.978095,172 L217.999962,176.064126 C218.008163,177.676085 216.676964,178.990191 215.025038,178.999971 L215.024127,178.999971" id="Fill-89" stroke="none" fill="#FFB385" fill-rule="evenodd" mask="url(#mask-6)"></path>
                            <path d="M212.019137,175.464416 C213.04435,175.831368 214.11695,176.012345 215.195018,175.999346 C216.197448,175.994347 217.1452,175.832368 218,175.555404 L217.97904,171 L212,171.032996 L212.019137,175.464416 Z" id="Fill-90" stroke="none" fill="#F09C69" fill-rule="evenodd" mask="url(#mask-6)"></path>
                            <path d="M212.095608,163.009644 C211.684439,163.021404 210.741912,163.367852 210.745527,164.572733 L210,165.960335 L210.0985,170.807899 C210.249413,172.185552 212.609796,174.132175 212.609796,174.132175 C213.151997,174.503047 213.818001,174.98518 214.474065,174.999653 C215.131032,175.014126 215.959696,174.572698 216.51726,174.22625 C216.51726,174.22625 219.374661,172.827793 219.799386,171.214953 L220,166.178335 L219.193024,165.158891 C219.262606,163.935014 218.722212,163.149852 218.035424,163.137188 C216.224471,163.101005 213.914694,162.962607 212.095608,163.009644" id="Fill-91" stroke="none" fill="#FFB385" fill-rule="evenodd" mask="url(#mask-6)"></path>
                            <path d="M220.716573,166.999097 L220.977902,167 L221,162.692238 L219.513691,162.281588 L219.496397,165.841155 C219.493515,166.476534 220.039231,166.995487 220.715612,166.999097 M209.279584,166.716606 L209.016333,166.717509 L209,162.407942 L210.485348,162 L210.498799,165.558664 C210.501681,166.194043 209.955965,166.712094 209.279584,166.716606" id="Fill-92" stroke="none" fill="#1C2C57" fill-rule="evenodd" mask="url(#mask-6)"></path>
                            <path d="M185,222 L164,221.771267 L164.867784,214.592628 C165.050137,213.073724 165.464328,211.596408 166.092944,210.216446 L166.583192,209.138941 L182.38382,209 L182.729284,209 C184.134049,211.583176 184.599555,214.151229 184.750753,217.122873 L185,222 Z" id="Fill-93" stroke="none" fill="#FFD874" fill-rule="evenodd" mask="url(#mask-6)"></path>
                            <path d="M203.01187,182.398651 L200,191.817648 C200.849021,193.177446 205.110995,192.992379 205.110995,192.990617 L209,177 C209,177 208.142545,177.15951 207.731154,177.29875 C205.370575,178.097179 203.482299,180.079152 203.01187,182.398651" id="Fill-94" stroke="none" fill="#FFFFFF" fill-rule="evenodd" mask="url(#mask-6)"></path>
                            <path d="M229.70798,190.119928 L226.729411,180.443421 C226.252039,177.985081 224.332072,175.887135 221.930922,175.039367 C221.513579,174.892782 221,175.202759 221,175.202759 L224.979048,191.571777 C225.17438,192.330847 225.233456,193.116993 225.152465,193.896604 L223.826115,206.742903 L223.123874,209.781984 L222.801815,211.315996 C222.671277,211.933148 223.065751,212.540964 223.692718,212.68755 L224.890435,212.967649 C225.494533,213.109566 226.109114,212.772513 226.300634,212.192707 L227.046705,209.937906 L226.62841,207.678436 L229.836613,193.524071 C230.091973,192.397137 230.04719,191.225387 229.70798,190.119928" id="Fill-95" stroke="none" fill="#FFB385" fill-rule="evenodd" mask="url(#mask-6)"></path>
                            <path d="M230,190.827527 C229.941899,191.01976 226.965639,192.24723 225.470012,191.955353 L225.26666,191.915672 L221,176 C221,176 221.858392,176.160488 222.267909,176.298931 C224.630362,177.098727 226.517701,179.081022 226.987193,181.40281 L230,190.827527 Z" id="Fill-96" stroke="none" fill="#FFFFFF" fill-rule="evenodd" mask="url(#mask-6)"></path>
                            <path d="M143.050849,218.983934 L296.950068,218.983934 L296.950068,121.016066 L143.050849,121.016066 L143.050849,218.983934 Z M136,226 L304,226 L304,114 L136,114 L136,226 Z" id="Fill-97" stroke="none" fill="#58C4C5" fill-rule="evenodd" mask="url(#mask-6)"></path>
                            <polygon id="Fill-98" stroke="none" fill="#074D4F" fill-rule="evenodd" mask="url(#mask-6)" points="116 99 325 99 325 97 116 97"></polygon>
                            <polygon id="Fill-99" stroke="none" fill="#074D4F" fill-rule="evenodd" mask="url(#mask-6)" points="116 245 118 245 118 97 116 97"></polygon>
                            <polygon id="Fill-100" stroke="none" fill="#006769" fill-rule="evenodd" mask="url(#mask-6)" points="296.44118 219 296.44118 219.887143 295 219.887143 302.823266 227 304 227 304 225.872589"></polygon>
                            <polygon id="Fill-101" stroke="none" fill="#074D4F" fill-rule="evenodd" mask="url(#mask-6)" points="327.994994 95 327.994994 247.055277 111 247.78462 113.031678 250 330 250 330 96.5553242"></polygon>
                            <polygon id="Fill-102" stroke="none" fill="#006769" fill-rule="evenodd" mask="url(#mask-6)" points="302.902494 114 295.60596 121.016066 144.395874 121.016066 137.09934 114 136.000917 114 136.000917 115.11207 143.040725 121.882933 143.040725 218.11889 136 224.88793 136 226 137.09934 226 144.395874 218.983934 145.327425 218.983934 145.327425 123.291251 296.950106 123.291251 296.950106 121.892049 304 115.112981 304 114.000912"></polygon>
                            <path d="M144,219.542283 L296.540643,219.542283 M296.540643,122 L296.540643,219.542283" id="Stroke-103" stroke="#006769" stroke-width="2" fill="none" stroke-linecap="square" mask="url(#mask-6)"></path>
                            <path d="M283.730936,184.394834 C283.250168,185.682835 274.836721,195 274.836721,195 L272,193.223509 L278.86879,181.142117 C278.86879,181.142117 285.385455,179.963466 283.730936,184.394834" id="Fill-104" stroke="none" fill="#FFAB78" fill-rule="evenodd" mask="url(#mask-6)"></path>
                        </g>
                    </g>
                </g>
            </g>
        </g>
    </g>
</svg>