<?xml version="1.0" encoding="UTF-8"?>
<svg width="504px" height="386px" viewBox="0 0 504 386" version="1.1" xmlns="http://www.w3.org/2000/svg" xmlns:xlink="http://www.w3.org/1999/xlink">
    <!-- Generator: Sketch 56.3 (81716) - https://sketch.com -->
    <title>Main Img</title>
    <desc>Created with Sketch.</desc>
    <defs>
        <polygon id="path-1" points="0.118266897 0 130.650038 0 130.650038 185.305202 0.118266897 185.305202"></polygon>
    </defs>
    <g id="Symbols" stroke="none" stroke-width="1" fill="none" fill-rule="evenodd">
        <g id="ja-and-srs" transform="translate(-413.000000, -93.000000)">
            <g id="Main-Img" transform="translate(413.000000, 93.000000)">
                <g id="Group-Copy" transform="translate(280.000000, 193.000000) scale(-1, 1) translate(-280.000000, -193.000000) ">
                    <path d="M369.847199,306.104235 C369.847199,350.229702 334.091043,386 289.983022,386 C245.875001,386 210.118846,350.229702 210.118846,306.104235 C210.118846,261.978767 245.875001,226.208469 289.983022,226.208469 C334.091043,226.208469 369.847199,261.978767 369.847199,306.104235" id="Fill-1" fill="#00756F"></path>
                    <path d="M442.105263,306.104235 C442.105263,350.229702 406.349108,386 362.241087,386 C318.133065,386 282.37691,350.229702 282.37691,306.104235 C282.37691,261.978767 318.133065,226.208469 362.241087,226.208469 C406.349108,226.208469 442.105263,261.978767 442.105263,306.104235" id="Fill-3" fill="#005960"></path>
                    <path d="M334.728351,94 L334.487771,94 C332.06961,94 197.327941,94 197.157247,94 C186.464769,94 177.704347,102.292952 176.907158,112.819793 C176.793362,114.286286 176.868195,103.495576 176.846549,279.472313 L297.78862,279.472313 C308.048798,279.472313 316.499992,271.127207 316.499992,260.689151 L316.499992,272.31493 L352.733447,272.31493 L352.733447,112.075991 C352.733447,102.134631 344.631679,94 334.728351,94" id="Fill-5" fill="#005960"></path>
                    <path d="M332.767402,94 L332.767402,94.0353896 C323.403421,94.6028642 315.923816,102.500944 315.923816,112.069783 L315.943528,145.977944 L315.943528,260.689151 C315.943528,267.584527 312.256703,273.609443 306.76127,276.875837 C303.987989,278.526108 300.757628,279.472313 297.306734,279.472313 L176.842105,279.472313 L176.842105,114.389351 C176.842105,113.862233 176.86305,113.336356 176.90309,112.819793 C177.696512,102.292952 186.422307,94 197.07252,94 L332.767402,94 Z" id="Fill-7" fill="#00756F"></path>
                    <g id="Group-11" transform="translate(176.842105, 94.000000)">
                        <mask id="mask-2" fill="white">
                            <use xlink:href="#path-1"></use>
                        </mask>
                        <g id="Clip-10"></g>
                        <path d="M116.542978,165.091201 L116.542978,33.8723308 C116.542978,25.5496485 109.812511,18.8025503 101.508197,18.8025503 L26.4822075,18.8025503 C24.0301513,18.8025503 22.3201484,16.3976134 23.0789119,14.06029 C25.7290141,5.89888798 33.3760628,-0.000248123495 42.4026252,-0.000248123495 L20.4479954,-0.000248123495 C9.74980145,-0.000248123495 0.989363232,8.285836 0.189752763,18.8025503 L0.184182721,18.8025503 C0.0455505654,20.5772536 0.177374892,17.0923592 0.123531153,185.305202 L22.078161,185.305202 L121.15126,185.305202 C124.618301,185.305202 127.863779,184.359231 130.650038,182.71045 C122.604422,180.914656 116.542978,173.680616 116.542978,165.091201" id="Fill-9" fill="#00756F"></path>
                    </g>
                    <path d="M265.861398,124.436482 C274.146628,124.436482 280.863096,131.167966 280.863096,139.474773 L280.863096,261.4536 C280.863096,270.618322 287.776509,278.244242 296.63837,279.33366 L296.63837,279.472313 L178.483099,279.472313 L178.483099,279.456838 C178.304059,279.462409 178.126254,279.470456 177.945979,279.470456 L172.762463,279.470456 C165.593456,279.470456 159.728353,273.58946 159.728353,266.40302 L159.728353,147.782198 L159.728353,124.436482 L265.861398,124.436482 Z" id="Fill-12" fill="#71D8B8"></path>
                    <path d="M144.005732,124.436482 C144.019285,124.436482 144.032837,124.436482 144.046389,124.436482 L126.715743,124.436482 C119.732726,124.436482 113.57577,127.738685 109.940733,132.762571 C109.857573,132.877227 109.780572,132.996197 109.699876,133.112702 C109.604395,133.250782 109.50645,133.387629 109.415282,133.527558 C107.556183,136.383468 106.485569,139.734985 106.485569,143.320745 L106.485569,328.011119 C106.485569,330.633403 107.054756,333.132401 108.084714,335.404553 C110.458176,340.641723 115.278404,344.673161 121.206823,346.261695 C122.994465,346.741276 124.880668,347.003257 126.832784,347.003257 L226.950618,347.003257 C237.242806,347.003257 245.585959,339.21531 245.585959,329.6089 L245.585959,172.575172 L245.564399,141.174344 C245.564399,132.310113 253.046995,124.994966 262.410866,124.470386 L262.410866,124.436482 L144.005732,124.436482 Z" id="Fill-14" fill="#FFFFFF"></path>
                    <path d="M218.499457,0 C308.245569,0 381,72.7531011 381,162.5 C381,252.245812 308.245569,325 218.499457,325 C128.753344,325 56,252.245812 56,162.5 C56,72.7531011 128.753344,0 218.499457,0" id="Fill-16" fill="#004060"></path>
                    <polygon id="Fill-32" fill="#118C8C" points="164.482173 385 64.6519525 385 64.6519525 322.119073 114.567063 271.814332 164.482173 322.119073"></polygon>
                    <polygon id="Clip-35" points="0 386 560 386 560 94 0 94"></polygon>
                    <polygon id="Fill-34" fill="#00756F" points="164.482173 385.04886 246.247878 385.04886 246.247878 322.273616 164.482173 322.273616"></polygon>
                    <polygon id="Fill-36" fill="#005960" points="200.950705 277.540523 196.265237 272.814332 115.042445 272.814332 160.339001 318.499186 165.025085 323.224756 246.247878 323.224756"></polygon>
                    <polygon id="Fill-37" fill="#71D8B8" points="98.8794567 385 130.254669 385 130.254669 341.247557 98.8794567 341.247557"></polygon>
                    <polygon id="Fill-38" fill="#00A7A7" points="177.429471 300.397394 168.285229 290.885993 184.827271 290.885993 193.955857 300.397394"></polygon>
                    <path d="M442.111703,316.566775 L443.056027,323.062427 C441.302121,324.459615 439.002453,324.548936 437.172684,323.29062 L436.844888,323.062427 L435.449915,316.566775 L442.111703,316.566775 Z" id="Fill-39" fill="#FAB08A"></path>
                    <path d="M393.467973,173.483318 C398.959172,191.654824 417.385399,219.550489 417.385399,219.550489 L402.829691,213.577735 L392.545328,189.745211 C392.545328,189.745211 387.979257,155.312433 393.467973,173.483318" id="Fill-40" fill="#005960"></path>
                    <path d="M431.689984,246.24571 L443.056027,316.566775 L432.951376,316.566775 C432.951376,316.566775 410.261685,253.296374 407.877759,234.696209 C407.877759,224.159054 430.818131,234.696209 430.818131,234.696209 L431.689984,246.24571 Z" id="Fill-41" fill="#1C2C57"></path>
                    <polygon id="Fill-42" fill="#F79C82" points="393.616299 145.277668 390.009693 154.872964 382.207131 149.065651 387.474257 137.752443"></polygon>
                    <path d="M397.28469,148.031168 C398.530709,148.26149 399.719787,148.319847 400.422452,147.943633 C405.091539,143.380645 403.952131,128.132192 403.952131,128.132192 L398.737268,124.436482 L390.523359,127.521931 L388.140961,137.065717 C387.505534,139.614161 388.208805,142.340159 390.030282,144.406231 C392.059529,146.224597 394.568527,147.527687 397.28469,148.031168" id="Fill-43" fill="#FAB08A"></path>
                    <path d="M391.974624,129.948358 C392.723228,128.439979 394.522866,127.729184 396.119017,128.332413 C397.28206,128.774903 398.685305,129.239395 400.077348,129.523592 C403.387884,130.205662 409.560291,130.146378 410.61568,125.197699 C411.667335,120.249021 405.120315,120.673787 405.120315,120.673787 L396.4146,121.26357 C393.837112,121.437755 391.277669,120.92498 388.908645,119.912264 C386.817157,119.016282 384.957159,120.922535 384.508494,122.196833 C383.529023,124.991123 384.551431,129.763172 385.412046,132.822711 C385.905515,134.595727 386.723193,136.259344 387.812807,137.752443 L391.974624,129.948358 Z" id="Fill-44" fill="#1C2C57"></path>
                    <path d="M387.736491,132.292685 C388.705822,131.710146 390.21022,132.192925 391.09325,133.370382 C391.979043,134.548567 391.908621,135.972147 390.942051,136.554686 C389.969267,137.136496 388.467632,136.653717 387.58184,135.47626 C386.696738,134.298803 386.766469,132.872311 387.736491,132.292685" id="Fill-45" fill="#FAB08A"></path>
                    <path d="M443.078437,322.531844 C443.078437,322.531844 443.104481,329.002376 455.988477,332.882985 C458.63287,333.681952 457.770989,334.469313 458.268251,335.589577 L443.443056,335.589577 L437.640049,329.009095 L435.830887,330.572822 L431.646859,326.425891 C431.646859,326.425891 432.373068,320.423867 435.560754,320.371336 C438.191822,321.275365 443.078437,322.531844 443.078437,322.531844" id="Fill-46" fill="#1C2C57"></path>
                    <path d="M405.976231,314.928606 L403.606405,320.16196 C401.44931,320.749784 399.131922,320.076354 397.680947,318.437293 L397.419355,318.143951 L399.333926,312.762215 L405.976231,314.928606 Z" id="Fill-47" fill="#FAB08A"></path>
                    <path d="M393.158106,153.671628 C393.158106,153.671628 394.211675,152.061046 384.831231,147.263844 C370.688205,161.250185 366.044143,214.794788 366.044143,214.794788 L403.025725,214.794788 C404.277034,184.236909 393.158106,153.671628 393.158106,153.671628" id="Fill-48" fill="#006769"></path>
                    <path d="M428.750491,212.583535 C428.917641,211.870919 428.59923,211.130307 427.967494,210.763819 L421.823632,207.197556 C420.305939,206.315057 418.513688,206.026193 416.794525,206.38441 L410.135232,206.650368 L409.262622,207.702114 L407.877759,213.596468 C409.214956,213.273246 409.99986,213.069641 409.99986,213.069641 L414.230081,213.186078 C414.230081,213.186078 422.20814,220.60365 426.161261,214.1532 C426.32841,221.01913 428.336113,220.492303 428.336113,220.492303 L428.750491,212.583535 Z" id="Fill-49" fill="#FAB08A"></path>
                    <path d="M365.783041,213.843648 L365.224206,218.37002 C365.217353,218.432176 365.208631,218.492487 365.20427,218.551567 C364.212447,227.194444 369.974613,235.202829 378.450586,237.550019 C378.450586,237.550019 395.264224,243.049975 416.484994,244.197723 C402.554619,261.86688 398.699469,311.445879 398.699469,311.445879 L407.675091,314.664495 L442.340292,233.111036 C444.554449,227.899709 441.421984,221.984963 435.828029,220.808291 L402.718469,213.843648 L365.783041,213.843648 Z" id="Fill-50" fill="#004060"></path>
                    <path d="M389.251784,170.320637 C389.251784,170.320637 382.451719,176.560432 378.44929,182.961378 C377.33812,184.738355 377.504426,187.039535 378.879837,188.625107 C386.483099,197.405029 413.582343,205.837953 413.582343,205.837953 L411.827507,215.745928 C411.827507,215.745928 373.371415,208.164447 359.749727,194.469744 C345.775101,180.418782 381.908453,151.068404 381.908453,151.068404" id="Fill-51" fill="#006769"></path>
                    <polygon id="Fill-52" fill="#118C8C" points="442.934541 223.355049 454.465195 183.036383 452.348237 182.456026 441.355401 220.904244 408.252734 215.280087 407.877759 217.395859"></polygon>
                    <path d="M403.678135,318.674226 C403.678135,318.674226 403.17421,325.198162 416.056389,329.078927 C418.698359,329.877926 417.838901,330.665318 418.336163,331.785016 L403.510362,331.785016 L397.705538,325.202438 L395.900616,326.766228 L391.714771,322.621574 C391.714771,322.621574 393.669296,316.619309 396.856377,316.566775 C399.485022,317.47023 403.678135,318.674226 403.678135,318.674226" id="Fill-53" fill="#1C2C57"></path>
                    <polygon id="Fill-55" fill="#005960" points="411.680815 386 536.2309 386 536.2309 367.928339 411.680815 367.928339"></polygon>
                    <polygon id="Fill-56" fill="#00756F" points="435.449915 368.879479 560 368.879479 560 350.807818 435.449915 350.807818"></polygon>
                    <polygon id="Fill-57" fill="#005960" points="435.449915 353.661238 560 353.661238 560 335.589577 435.449915 335.589577"></polygon>
                </g>
                <path d="M203.273766,328.594978 C205.672572,328.109177 207.504056,327.137575 208.763353,325.679557 C210.023258,324.221538 210.652603,322.490757 210.652603,320.485981 C210.652603,318.481206 210.051837,316.857559 208.853346,315.611963 C207.652423,314.367598 205.793577,313.166949 203.273766,312.01248 L203.273766,328.594978 Z M190.22718,290.874904 C190.22718,292.758999 190.781125,294.306913 191.892663,295.521723 C193.001161,296.737764 194.846022,297.951343 197.425423,299.165538 L197.425423,283.312664 C195.205995,283.677785 193.451127,284.529322 192.162035,285.864197 C190.871118,287.200919 190.22718,288.870129 190.22718,290.874904 L190.22718,290.874904 Z M221,320.395471 C221,325.557645 219.36492,329.764841 216.096585,333.013981 C212.825818,336.263737 208.551747,338.221718 203.273766,338.890387 L203.273766,347 L197.425423,347 L197.425423,338.982129 C192.446608,338.676733 188.187739,337.311688 184.648816,334.881452 C181.108069,332.453063 178.55968,329.141119 177,324.949932 L185.908722,319.756972 C188.007145,325.10263 191.847058,328.079623 197.425423,328.685489 L197.425423,309.734325 C194.726234,308.702383 192.535993,307.775729 190.857741,306.955593 C189.177057,306.135458 187.393002,304.996997 185.503144,303.539594 C183.613894,302.080959 182.203798,300.305846 181.27407,298.209329 C180.343735,296.114043 179.879175,293.669645 179.879175,290.874904 C179.879175,285.773071 181.558035,281.642223 184.918188,278.482978 C188.277124,275.326195 192.446608,273.504287 197.425423,273.016639 L197.425423,265 L203.273766,265 L203.273766,273.108997 C211.311743,274.201279 216.891323,278.363529 220.010683,285.590203 L211.282556,290.692036 C209.721659,286.744673 207.052874,284.346454 203.273766,283.494917 L203.273766,301.534818 C205.194027,302.263827 206.648512,302.841986 207.63783,303.265599 C208.628363,303.692292 209.946643,304.329559 211.597532,305.179865 C213.245989,306.031402 214.521096,306.880476 215.422244,307.730781 C216.321568,308.582318 217.265281,309.614261 218.255815,310.828455 C219.245132,312.043881 219.949876,313.456337 220.369439,315.063975 C220.788394,316.675307 221,318.451035 221,320.395471 L221,320.395471 Z" id="Fill-54" fill="#00756F"></path>
            </g>
        </g>
    </g>
</svg>