<?xml version="1.0" encoding="UTF-8"?>
<svg width="39px" height="45px" viewBox="0 0 39 45" version="1.1" xmlns="http://www.w3.org/2000/svg" xmlns:xlink="http://www.w3.org/1999/xlink">
    <!-- Generator: Sketch 56.3 (81716) - https://sketch.com -->
    <title>Group 56 Copy</title>
    <desc>Created with Sketch.</desc>
    <g id="Symbols" stroke="none" stroke-width="1" fill="none" fill-rule="evenodd">
        <g id="ja-and-srs" transform="translate(-734.000000, -133.000000)">
            <g id="Group-56-Copy" transform="translate(754.202638, 155.673735) rotate(-7.000000) translate(-754.202638, -155.673735) translate(733.702638, 133.173735)">
                <path d="M8.47044564,30.7580294 C12.922035,30.7637805 16.5255177,26.8641711 16.5190582,22.0480018 C16.5125813,17.2318325 13.8781794,13.5067913 8.44702224,13.3171311 C3.01586503,13.1274709 0.39195017,17.2109831 0.398406436,22.0271524 C0.404886559,26.8433217 4.01885627,30.7522657 8.47044564,30.7580294 Z" id="Oval" fill="#00BCBC" transform="translate(8.458732, 22.034404) rotate(-2.000000) translate(-8.458732, -22.034404) "></path>
                <path d="M6.71569965,13.0462144 C5.42770928,13.3901002 3.4185789,16.0386216 4.8322572,22.6444341 C6.24593549,29.2502466 8.68955806,30.612133 10.1170457,30.2942199 C11.5445333,29.9763067 11.4134631,29.8789987 12.3485568,29.4484609 C12.2281598,24.773759 11.3301575,19.0698406 9.65454985,12.3367057 C8.55397662,12.5804543 7.57435989,12.8169572 6.71569965,13.0462144 Z" id="Path-14" fill="#73D6D6"></path>
                <path d="M12.6101475,29.4430588 C14.2295375,28.3634255 15.4856484,27.8030956 16.3784803,27.7620691 C17.2713121,27.7210426 18.7574628,28.1611866 20.8369323,29.0825011 C20.9089441,31.0899543 21.3594462,33.2926045 22.1884385,35.6904517 C23.4319269,39.2872226 25.0407961,41.1881157 25.4159738,42.3273066 C25.7911514,43.4664976 25.5863605,43.9909153 25.111654,44.4380915 C24.6369475,44.8852677 23.1482088,45.1428122 20.5594117,43.2666059 C17.9706146,41.3903995 16.7733813,39.7395721 15.6045397,37.2787092 C14.8253119,35.638134 13.8271812,33.0262505 12.6101475,29.4430588 Z" id="Rectangle" fill="#FFD763"></path>
                <path d="M8.22403166,12.8281874 C6.85775218,13.1736479 4.83055905,15.2861389 6.24641095,21.8584913 C7.66226286,28.4308437 10.4216919,30.3577178 11.9243628,29.9269948 C12.5401654,29.7504822 16.6141677,28.6564018 21.3608167,29.4670464 C23.3442465,29.8057816 26.4790485,30.8248594 30.7652226,32.5242799 L25.6923011,4.52427986 C22.464167,7.18994363 20.0507944,8.86560713 18.4521831,9.55127034 C13.6055075,11.6300666 8.84652567,12.6707913 8.22403166,12.8281874 Z" id="Path-14-Copy" fill="#FFD763"></path>
                <path d="M9.96699405,29.7296469 C9.99898181,29.7205785 10.0305126,29.7116425 10.0615865,29.702839 C9.62611549,29.6081277 9.16355466,29.3051324 8.69683406,28.7623473 C8.87884016,28.6457624 9.11900157,28.5195973 9.42578042,28.3846175 C11.7676189,27.3542309 20.0563379,27.2795582 21.3970951,26.9465456 C22.0079609,26.794821 23.2888781,25.1960813 22.9741109,23.0384942 C22.4538833,19.47257 23.4978053,8.14246998 24.5021189,5.64242227 C25.3555038,6.86154833 27.0870755,15.8615483 29.6968341,32.6424223 C25.490726,31.004237 22.4144824,30.0218797 20.4681033,29.6953502 C15.8101221,28.9139156 11.1544657,29.5472303 10.5501663,29.7173827 C10.4138107,29.7557762 10.1891269,29.7464903 9.96699405,29.7296469 Z" id="Combined-Shape" fill="#FCB328"></path>
                <path d="M18.2167869,31.6408176 C18.9034709,31.7002634 19.3589238,31.7310281 19.5831458,31.7331118 C19.8037239,31.7351616 20.212057,31.7132794 20.808145,31.6674651 C21.0899756,31.6458174 21.3360033,31.8567258 21.3576643,32.1385554 C21.3591254,32.1575665 21.3595231,32.1766444 21.3588553,32.1956999 C21.3460844,32.5601422 21.0842428,32.8679008 20.7265531,32.9388896 C20.3897312,33.0057322 20.020042,33.0415013 19.6174855,33.046197 C19.1547468,33.0515947 18.6832865,33.0155286 18.2031045,32.9379987 C17.8431671,32.8798788 17.5816352,32.5646011 17.5910193,32.2001224 C17.5992106,31.8819705 17.8637641,31.6306978 18.181916,31.6388891 C18.1935559,31.6391888 18.2051841,31.6398412 18.2167869,31.6408176 Z" id="Rectangle" fill="#00BCBC" transform="translate(19.477100, 32.316412) rotate(-15.000000) translate(-19.477100, -32.316412) "></path>
                <ellipse id="Oval" fill="#FF9125" transform="translate(31.107933, 18.282475) rotate(-10.000000) translate(-31.107933, -18.282475) " cx="31.107933" cy="18.2824753" rx="6.37605119" ry="17.2444396"></ellipse>
                <path d="M24.7478918,13.8076349 C26.0633829,14.2101319 27.2478655,14.4761386 28.3013398,14.6056551 C29.3548141,14.7351716 30.2704979,14.6532564 31.0483911,14.3599097 L32.7478918,21.388498 C31.5035723,21.5892921 30.500063,21.9469388 29.737364,22.461438 C28.974665,22.9759373 28.0561738,23.7580029 26.9818905,24.8076349 L24.7478918,13.8076349 Z" id="Path-16" fill="#00BCBC"></path>
                <path d="M24.7478918,13.8076349 C25.6205342,17.2377463 26.4019763,19.3943303 27.0922179,20.2773871 C27.7824596,21.1604438 28.5153639,21.566032 29.2909308,21.4941517 L32.7478918,21.388498 C31.5035723,21.5892921 30.500063,21.9469388 29.737364,22.461438 C28.974665,22.9759373 28.0561738,23.7580029 26.9818905,24.8076349 L24.7478918,13.8076349 Z" id="Path-16" fill="#00A7A7"></path>
                <ellipse id="Oval" fill="#F6B525" transform="translate(31.596076, 18.227187) rotate(-10.000000) translate(-31.596076, -18.227187) " cx="31.5960757" cy="18.2271875" rx="1.88881804" ry="3.6455824"></ellipse>
                <ellipse id="Oval" fill="#FFD464" transform="translate(31.757520, 18.005170) rotate(-10.000000) translate(-31.757520, -18.005170) " cx="31.7575201" cy="18.0051704" rx="1.69001192" ry="3.45370758"></ellipse>
                <path d="M34.6266524,35.0866655 C30.8853101,35.7002921 26.4131746,28.6033072 24.6378239,19.2349112 C22.8624732,9.86651515 24.4561964,1.77432898 28.19747,1.16031253 C31.9388124,0.546685975 36.4109479,7.64367085 38.1862986,17.0120669 C39.9616493,26.3804629 38.3679261,34.4726491 34.6266524,35.0866655 Z M34.7309162,33.5474578 C37.977023,33.0147185 39.2794321,25.5693966 37.6399004,16.9177071 C36.0003686,8.26601765 32.0397532,1.68417928 28.7935903,2.21660078 C25.5474834,2.74934012 24.2450743,10.194662 25.8846061,18.8463515 C27.5241379,27.498041 31.4847533,34.0798793 34.7309162,33.5474578 Z" id="Combined-Shape" fill="#FCD469"></path>
            </g>
        </g>
    </g>
</svg>