<?xml version="1.0" encoding="UTF-8"?>
<svg version="1.1" viewBox="0 0 295 294" xmlns="http://www.w3.org/2000/svg" xmlns:xlink="http://www.w3.org/1999/xlink" width="295px" height="294px">
<title>D1ABA491-90AA-43CB-8675-8D4BE3022DA3</title>
<desc>Created with sketchtool.</desc>
<defs>
<polygon id="e" points="0.23221 0.32357 115.27 0.32357 115.27 83.785 0.23221 83.785"/>
<polygon id="d" points="0 195.64 296.87 195.64 296.87 0.047098 0 0.047098"/>
<path id="b" d="m0.37189 54.469c0 30.036 24.352 54.385 54.391 54.385 30.039 0 54.391-24.349 54.391-54.385 0-30.036-24.352-54.384-54.391-54.384-30.04 0-54.391 24.348-54.391 54.384"/>
<polygon id="c" points="0 0 17 0 17 15 0 15"/>
</defs>
<g fill="none" fill-rule="evenodd">
<g transform="translate(0 87)" opacity=".2">
<path d="m131.63 56.317c-0.9456 0-1.8664-0.46518-2.404-1.3256-1.715-2.7886-4.9424-6.0144-8.6468-5.8887-1.5818-0.084052-2.8575-1.1753-2.8998-2.7219-0.038945-1.543 1.1669-2.827 2.7349-2.8828 5.9152-0.17861 10.97 4.3069 13.606 8.5544 0.80838 1.3119 0.39709 3.0364-0.92085 3.8552-0.45351 0.28694-0.95979 0.40939-1.4693 0.40939" fill="#71D8B8"/>
<g transform="translate(116.47 .31519)">
<path d="m72.713 18.734c-0.38326-5.4547-4.942-9.758-10.502-9.758h-0.056416c0.098636-0.8224 0.041857-1.6966-0.21765-2.6103-0.75597-2.5574-3.0231-4.5236-5.6841-4.8384-2.1718-0.25904-4.1755 0.51772-5.5884 1.8999-1.3321-1.2035-3.0756-1.9557-5.0122-1.9557-4.1616 0-7.5393 3.3621-7.5393 7.5045v0.038403c-5.0512 0.37099-9.0338 4.5656-9.0338 9.7054 0 0.78002 0.10919 1.5289 0.28826 2.2672-6.0277 0.24817-10.819 5.1674-10.819 11.22 0 2.0506 0.54814 3.9642 1.5112 5.6192-1.8421 1.501-3.0228 3.7997-3.0228 6.3673 0 2.3375 1.0016 4.4435 2.5835 5.9445 6.7804-5.521 13.909 12.931 22.295 27.664 2.7873 4.8913 32.885-0.31483 35.287 2.7186 2.7345-2.4455 4.506-45.046 4.5726-48.79 0.12302-6.0003-3.7045-11.126-9.0614-12.998" fill="#00756F"/>
<path d="m76.558 74.535 2.0037-1.1894c3.7081-2.2292 8.348-2.2292 12.056 0l2.0037 1.1894c3.7081 2.2147 8.3477 2.2147 12.056 0l5.6696-2.5016c0.82257-2.323 1.4024-3.9885 1.6342-4.7268 5.2867-16.934 8.6923-34.756 9.1564-52.523 0.19363-7.1477-5.75-18.302-15.623-13.228-9.6944 4.9714-16.64 24.053-21.515 33.112-6.9347 12.889-12.425 26.884-16.323 41.166 2.9631 0.73799 6.1617 0.31483 8.882-1.2981" fill="#CE5D00"/>
<path d="m3.4447 71.666 3.7893 2.2531c4.3407 2.5962 9.7752 2.5962 14.116 0l0.97362-0.58764c3.7085-2.2151 8.348-2.2151 12.056 0l2.0037 1.2035c2.1827 1.2981 4.6679 1.8191 7.1145 1.5847 1.7962-5.7796 1.1913-13.011-1.596-17.903-9.3744-16.482-17.174-13.12-24.685-5.972-1.441 1.3677-3.1986 2.3788-5.1211 2.9248-8.2392 2.3371-14.306 6.1753-10.847 16.605 0.60419-0.43729 1.4552-0.5601 2.1966-0.10869" fill="#FF7900"/>
</g>
<g transform="translate(160.15 15.894)">
<path d="m40.021 52.861c-0.3021 0-0.60456-0.041664-0.90665-0.15035-1.4693-0.49308-2.2497-2.0781-1.7576-3.5407 1.8806-5.4931 7.8945-8.432 13.416-6.5879 2.5802 0.87457 5.3955-0.50395 6.2741-3.0751 0.49245-1.4734 2.0881-2.2535 3.5676-1.764 1.4693 0.50757 2.253 2.0926 1.7576 3.5552-1.8806 5.4927-7.8945 8.4458-13.413 6.5883-2.5798-0.87494-5.3955 0.50322-6.2741 3.0751-0.39709 1.1756-1.4974 1.8995-2.6643 1.8995" fill="#FF7900"/>
<path d="m46.668 33.36c-0.28826 0-0.60456-0.042026-0.90665-0.13658-1.4693-0.50721-2.2533-2.0922-1.7576-3.5544 0.92085-2.6661 2.8153-4.825 5.3394-6.0673 2.527-1.2314 5.3988-1.4234 8.0732-0.52098 2.5977 0.87457 5.3955-0.50395 6.2745-3.0893 0.49536-1.4629 2.1019-2.2393 3.5709-1.7495 1.4693 0.50721 2.253 2.0922 1.7572 3.5548-1.8803 5.4931-7.8942 8.4458-13.412 6.5883-1.2517-0.42352-2.5977-0.34309-3.7787 0.24455-1.1778 0.57387-2.0706 1.5847-2.4957 2.8306-0.40073 1.1756-1.4832 1.8999-2.6643 1.8999" fill="#FF7900"/>
<path d="m53.325 13.854c-0.30246 0-0.60456-0.038403-0.90701-0.13658-1.469-0.50395-2.2635-2.0886-1.7572-3.5512 1.6342-4.8246 6.9205-7.4103 11.768-5.7833 0.93468 0.31519 1.9225 0.24853 2.7873-0.17499 0.87862-0.42678 1.5392-1.1753 1.8522-2.0919 0.49573-1.4629 2.0877-2.2571 3.5709-1.7499 1.4693 0.4938 2.2533 2.0785 1.7576 3.5548-0.80838 2.3335-2.471 4.2229-4.6818 5.3007-2.225 1.0948-4.7524 1.2593-7.1003 0.46518-1.9087-0.64343-3.9786 0.36736-4.6253 2.2814-0.39709 1.1615-1.4974 1.8857-2.6643 1.8857" fill="#FF7900"/>
<path d="m5.6555 24.147c-2.6643 3.5128-6.8503 7.6795-5.2441 15.034l4.3513 19.775 2.0037-1.1894c3.7081-2.2288 8.3477-2.2288 12.056 0l2.0037 1.1894c1.6342 0.96913 3.1735 1.2981 3.1735 1.2981 2.9249-10.703 6.7382-21.251 11.396-31.296-2.1827-5.4123-6.8259-7.2317-10.204-9.0895-0.025114 0-0.038945-0.013767-0.05314-0.027896-2.1438-1.214-2.2668-4.1247-0.66061-5.9724 0.63258-0.73799 0.92085-1.7354 0.69955-2.7462l-0.34104-1.543c-0.37234-1.697-2.0739-2.7886-3.7889-2.4212l-17.083 3.7189c-1.7147 0.36773-2.8011 2.0643-2.4284 3.7718l0.34432 1.543c0.21838 1.0249 0.93176 1.8194 1.8384 2.2143 2.0877 0.8887 3.3496 3.198 2.2919 5.1956-0.10919 0.17535-0.21802 0.36773-0.35524 0.54597" fill="#CDEAE6"/>
</g>
<g transform="translate(116.47 21.69)">
<path d="m67.262 9.3978-19.346 4.2087c-2.1405 0.46518-4.2672-0.8887-4.7345-3.0197l-0.27443-1.2557c-0.46734-2.1343 0.89282-4.2511 3.0333-4.7163l19.346-4.2087c2.1267-0.46555 4.2566 0.90247 4.7243 3.0193l0.28826 1.2702c0.4637 2.1198-0.90701 4.2366-3.037 4.7022" fill="#fff"/>
<g transform="translate(0 48.547)">
<mask id="h" fill="white">
<use xlink:href="#e"/>
</mask>
<path d="m115.26 1.2501-4.9172 70.054c-0.35487 6.9977-6.1653 12.48-13.195 12.48h-78.935c-7.0294 0-12.836-5.4826-13.195-12.48l-4.7909-67.759c-0.080801-1.585 1.6626-2.6241 3.0333-1.802l3.7787 2.2531c4.3513 2.5962 9.7748 2.5962 14.112 0l0.97362-0.58764c3.7223-2.2147 8.348-2.2147 12.056 0l2.0033 1.2035c3.7227 2.2151 8.3484 2.2151 12.056 0l2.0037-1.2035c3.7223-2.2147 8.348-2.2147 12.056 0l2.0037 1.2035c3.7223 2.2151 8.348 2.2151 12.056 0l2.0033-1.2035c3.7223-2.2147 8.348-2.2147 12.056 0l2.0037 1.2035c3.722 2.2151 8.3477 2.2151 12.056 0l9.5288-4.2091c0.60492-0.27281 1.2761 0.19238 1.2513 0.84704" fill="#009792" mask="url(#h)"/>
</g>
</g>
<g transform="translate(0 .31519)">
<path d="m150.45 117.83h-19.691c-1.5494 0-2.8149-1.2561-2.8149-2.8023 0-1.543 1.2655-2.8027 2.8149-2.8027h19.691c1.5502 0 2.7978 1.2597 2.7978 2.8027 0 1.5463-1.2477 2.8023-2.7978 2.8023" fill="#E0B877"/>
<path d="m156.07 129.02h-25.304c-1.5498 0-2.8153-1.2561-2.8153-2.8023 0-1.543 1.2655-2.7991 2.8153-2.7991h25.304c1.5538 0 2.8153 1.2561 2.8153 2.7991 0 1.5463-1.2615 2.8023-2.8153 2.8023" fill="#E0B877"/>
<path d="m161.7 140.22h-30.935c-1.5498 0-2.8153-1.2423-2.8153-2.7994 0-1.5463 1.2655-2.7882 2.8153-2.7882h30.935c1.5502 0 2.8153 1.2419 2.8153 2.7882 0 1.5571-1.2652 2.7994-2.8153 2.7994" fill="#E0B877"/>
<path d="m178.57 140.22h-5.6314c-1.5498 0-2.8149-1.2423-2.8149-2.7994 0-1.5463 1.2652-2.7882 2.8149-2.7882h5.6314c1.5502 0 2.7978 1.2419 2.7978 2.7882 0 1.5571-1.2477 2.7994-2.7978 2.7994" fill="#E0B877"/>
<mask id="a" fill="white">
<use xlink:href="#d"/>
</mask>
<polygon points="130.79 166.83 139.87 166.83 139.87 119.45 130.79 119.45" fill="#009792" mask="url(#a)"/>
<path d="m45.775 157.28c-5.6743 0-10.275-4.5794-10.275-10.227v-99.719l10.275 7.6708 10.275-7.6708 10.275 7.6708 10.275-7.6708 10.275 7.6708 10.275-7.6708 10.275 7.6708 10.275-7.6708v109.95h-71.924z" fill="#00756F" mask="url(#a)"/>
<polygon points="48.344 118.93 56.05 118.93 56.05 113.82 48.344 113.82" fill="#71D8B8" mask="url(#a)"/>
<polygon points="48.344 134.27 56.05 134.27 56.05 129.16 48.344 129.16" fill="#E3E2E1" mask="url(#a)"/>
<polygon points="48.344 88.249 66.325 88.249 66.325 83.135 48.344 83.135" fill="#71D8B8" mask="url(#a)"/>
<polygon points="48.344 103.59 56.05 103.59 56.05 98.476 48.344 98.476" fill="#71D8B8" mask="url(#a)"/>
<polygon points="48.344 72.907 79.169 72.907 79.169 67.794 48.344 67.794" fill="#71D8B8" mask="url(#a)"/>
<polygon points="94.581 72.907 104.86 72.907 104.86 67.794 94.581 67.794" fill="#71D8B8" mask="url(#a)"/>
<path d="m66.325 85.692c-5.6743 0-10.275 4.5797-10.275 10.228v51.138c0 5.6481-4.601 10.227-10.275 10.227h113.02v-61.365c0-5.6478-4.6002-10.228-10.275-10.228h-82.199" fill="#005960" mask="url(#a)"/>
<path d="m87.033 183.76h-81.921c-2.8237 0-5.1112-2.2788-5.1112-5.0898v-56.241c0-2.8107 2.2876-5.0877 5.1112-5.0877h81.921c2.8157 0 5.1032 2.277 5.1032 5.0877v56.241c0 2.811-2.2876 5.0898-5.1032 5.0898" fill="#009792" mask="url(#a)"/>
<path d="m23.829 161.62h-14.296c-0.87753 0-1.5906 0.71154-1.5906 1.5832 0 0.87385 0.71302 1.5832 1.5906 1.5832h14.296c0.87535 0 1.5906-0.70937 1.5906-1.5832 0-0.87168-0.7152-1.5832-1.5906-1.5832" fill="#006661" mask="url(#a)"/>
<path d="m46.068 163.2c0-0.87168-0.70501-1.5832-1.5906-1.5832h-14.295c-0.87608 0-1.5909 0.71154-1.5909 1.5832 0 0.87385 0.71484 1.5832 1.5909 1.5832h14.295c0.88554 0 1.5906-0.70937 1.5906-1.5832" fill="#006661" mask="url(#a)"/>
<path d="m11.124 169.52h-1.5906c-0.87753 0-1.5906 0.71154-1.5906 1.5832 0 0.87349 0.71302 1.5832 1.5906 1.5832h1.5906c0.87571 0 1.5807-0.70973 1.5807-1.5832 0-0.87168-0.70501-1.5832-1.5807-1.5832" fill="#006661" mask="url(#a)"/>
<path d="m20.648 169.52h-3.1713c-0.87753 0-1.5906 0.71154-1.5906 1.5832 0 0.87349 0.71302 1.5832 1.5906 1.5832h3.1713c0.8859 0 1.5906-0.70973 1.5906-1.5832 0-0.87168-0.70465-1.5832-1.5906-1.5832" fill="#006661" mask="url(#a)"/>
<path d="m28.591 169.52h-1.5807c-0.88554 0-1.5906 0.71154-1.5906 1.5832 0 0.87349 0.70501 1.5832 1.5906 1.5832h1.5807c0.8859 0 1.5906-0.70973 1.5906-1.5832 0-0.87168-0.70465-1.5832-1.5906-1.5832" fill="#006661" mask="url(#a)"/>
<path d="m38.125 169.52h-3.1713c-0.88554 0-1.5906 0.71154-1.5906 1.5832 0 0.87349 0.70501 1.5832 1.5906 1.5832h3.1713c0.8779 0 1.5906-0.70973 1.5906-1.5832 0-0.87168-0.71265-1.5832-1.5906-1.5832" fill="#006661" mask="url(#a)"/>
<path d="m43.353 169.99c-0.28572 0.30034-0.45678 0.70937-0.45678 1.1188 0 0.40903 0.17107 0.82603 0.45678 1.1285 0.30173 0.27679 0.71302 0.45468 1.1239 0.45468 0.41893 0 0.83022-0.17789 1.1338-0.45468 0.28608-0.30251 0.45678-0.71951 0.45678-1.1285 0-0.40939-0.1707-0.81842-0.45678-1.1188-0.60528-0.58728-1.6914-0.58728-2.2577 0" fill="#006661" mask="url(#a)"/>
<path d="m73.079 166.37c0 5.2424-4.2676 9.4899-9.5335 9.4899-5.2663 0-9.5338-4.2475-9.5338-9.4899 0-5.2438 4.2676-9.4895 9.5338-9.4895 5.2659 0 9.5335 4.2457 9.5335 9.4895" fill="#71D8B8" mask="url(#a)"/>
<path d="m84.193 166.37c0 5.2424-4.2657 9.4899-9.524 9.4899-5.2681 0-9.5335-4.2475-9.5335-9.4899 0-5.2438 4.2654-9.4895 9.5335-9.4895 5.2583 0 9.524 4.2457 9.524 9.4895" fill="#fff" mask="url(#a)"/>
<path d="m32.96 148.97h-21.433c-1.1017 0-1.9935-0.88762-1.9935-1.9846v-15.01c0-1.0952 0.89173-1.9846 1.9935-1.9846h21.433c1.0999 0 1.9938 0.88943 1.9938 1.9846v15.01c0 1.097-0.89391 1.9846-1.9938 1.9846" fill="#00C9C3" mask="url(#a)"/>
<path d="m11.527 131.57c-0.22639 0-0.40292 0.18586-0.40292 0.40106v15.011c0 0.22317 0.17653 0.40106 0.40292 0.40106h21.433c0.2162 0 0.40292-0.17789 0.40292-0.40106v-15.011c0-0.2152-0.18672-0.40106-0.40292-0.40106h-21.433zm21.433 18.98h-21.433c-1.9778 0-3.5844-1.5992-3.5844-3.5679v-15.011c0-1.9607 1.6066-3.5577 3.5844-3.5577h21.433c1.9698 0 3.5742 1.597 3.5742 3.5577v15.011c0 1.9687-1.6044 3.5679-3.5742 3.5679z" fill="#00C9C3" mask="url(#a)"/>
<path d="m34.954 131.97c0-1.0948-0.89355-1.9846-1.9938-1.9846h-11.901c-1.1079 0-1.9916 0.88979-1.9916 1.9846v15.011c0 1.0967 0.88372 1.9843 1.9916 1.9843h2.3673c1.1017 0 1.9938-0.88762 1.9938-1.9843v-8.6794c0-1.0952 0.89136-1.9828 1.9935-1.9828h5.5462c1.1003 0 1.9938-0.88943 1.9938-1.9846v-2.364z" fill="#00C9C3" mask="url(#a)"/>
<path d="m21.059 131.57c-0.22421 0-0.41129 0.18586-0.41129 0.40106v15.011c0 0.22317 0.18708 0.40106 0.41129 0.40106h2.3673c0.22421 0 0.40292-0.17789 0.40292-0.40106v-8.6794c0-1.9691 1.6062-3.566 3.5844-3.566h5.5462c0.21656 0 0.40328-0.18549 0.40328-0.40106v-2.3643c0-0.2152-0.18672-0.40106-0.40328-0.40106h-11.901zm2.3673 18.98h-2.3673c-1.9782 0-3.5826-1.5992-3.5826-3.5679v-15.011c0-1.9607 1.6044-3.5577 3.5826-3.5577h11.901c1.9698 0 3.5746 1.597 3.5746 3.5577v2.3643c0 1.9607-1.6047 3.5577-3.5746 3.5577h-5.5462c-0.22639 0-0.40292 0.18622-0.40292 0.40939v8.6794c0 1.9687-1.6146 3.5679-3.5844 3.5679z" fill="#00C9C3" mask="url(#a)"/>
<path d="m34.954 144.23h-9.5335c-0.8779 0-1.5906-0.7119-1.5906-1.5832 0-0.87385 0.71265-1.5832 1.5906-1.5832h9.5335c0.87571 0 1.5807 0.70937 1.5807 1.5832 0 0.87131-0.70501 1.5832-1.5807 1.5832" fill="#00C9C3" mask="url(#a)"/>
<path d="m19.274 137.9h-8.288c-0.76325 0-1.3831-0.70176-1.3831-1.5734 0-0.87349 0.61984-1.5832 1.3831-1.5832h8.288c0.76143 0 1.374 0.70973 1.374 1.5832 0 0.87168-0.61256 1.5734-1.374 1.5734" fill="#00A7A7" mask="url(#a)"/>
<path d="m19.274 144.23h-8.288c-0.76325 0-1.3831-0.7119-1.3831-1.5832 0-0.87385 0.61984-1.5832 1.3831-1.5832h8.288c0.76143 0 1.374 0.70937 1.374 1.5832 0 0.87131-0.61256 1.5832-1.374 1.5832" fill="#00A7A7" mask="url(#a)"/>
<path d="m148.52 85.692h-82.199c5.6743 0 10.275 4.5797 10.275 10.228v99.719l10.275-7.6708 10.275 7.6708 10.275-7.6708 10.275 7.6708 10.275-7.6708 10.275 7.6708 10.275-7.6708 10.275 7.6708v-99.719c0-5.6478-4.6002-10.228-10.275-10.228" fill="#fff" mask="url(#a)"/>
<polygon points="89.444 136.83 120.27 136.83 120.27 131.72 89.444 131.72" fill="#00C9C3" mask="url(#a)"/>
<polygon points="135.68 136.83 145.96 136.83 145.96 131.72 135.68 131.72" fill="#00C9C3" mask="url(#a)"/>
<polygon points="89.444 106.15 120.27 106.15 120.27 101.03 89.444 101.03" fill="#CDEAE6" mask="url(#a)"/>
<polygon points="135.68 106.15 145.96 106.15 145.96 101.03 135.68 101.03" fill="#CDEAE6" mask="url(#a)"/>
<polygon points="89.444 121.49 109.99 121.49 109.99 116.37 89.444 116.37" fill="#CDEAE6" mask="url(#a)"/>
<polygon points="135.68 121.49 145.96 121.49 145.96 116.37 135.68 116.37" fill="#CDEAE6" mask="url(#a)"/>
<polygon points="68.964 183.76 76.53 183.76 76.53 117.43 68.964 117.43" fill="#000" mask="url(#a)"/>
<polygon points="233.61 181.13 158.64 181.13 158.64 134.49 196.13 97.182 233.61 134.49" fill="#118C8C" mask="url(#a)"/>
<polygon points="233.61 181.13 294.53 181.13 294.53 134.49 233.61 134.49" fill="#00756F" mask="url(#a)"/>
<polygon points="260.56 100.68 260.56 100.68 257.04 97.182 196.13 97.182 230.1 131 233.61 134.49 294.53 134.49" fill="#005960" mask="url(#a)"/>
<polygon points="184.42 181.13 207.84 181.13 207.84 148.49 184.42 148.49" fill="#71D8B8" mask="url(#a)"/>
<polygon points="242.58 118.17 235.83 111.17 248.04 111.17 254.77 118.17" fill="#00A7A7" mask="url(#a)"/>
<path d="m104.43 166.32c0.82658-0.16448 1.4573-0.49344 1.8912-0.98761 0.43422-0.49344 0.65078-1.0796 0.65078-1.7586s-0.20674-1.2293-0.61984-1.651c-0.41347-0.42134-1.0541-0.82784-1.9221-1.2188v5.6159zm-4.495-12.775c0 0.638 0.19108 1.1622 0.57398 1.5738 0.3818 0.41193 1.0173 0.82276 1.9061 1.234v-5.3688c-0.7647 0.12354-1.3693 0.41193-1.8137 0.86407-0.44441 0.45286-0.66643 1.018-0.66643 1.697zm10.602 9.9978c0 1.7484-0.56343 3.1733-1.6892 4.2736-1.1269 1.1006-2.5995 1.7636-4.4179 1.9901v2.7465h-2.0149v-2.7154c-1.7154-0.10325-3.1826-0.5659-4.4019-1.3887-1.2197-0.82277-2.0979-1.9441-2.6351-3.3635l3.0694-1.7589c0.72285 1.8104 2.0459 2.819 3.9676 3.0241v-6.4184c-0.92994-0.34961-1.6845-0.66336-2.2628-0.94124-0.57908-0.27752-1.1935-0.66336-1.8446-1.1568-0.65078-0.4938-1.1367-1.0952-1.457-1.8049-0.32066-0.70973-0.48081-1.5376-0.48081-2.4842 0-1.7278 0.57835-3.1269 1.7361-4.1968 1.1574-1.0691 2.5937-1.6861 4.309-1.8513v-2.715h2.0149v2.7462c2.7691 0.3699 4.6916 1.7796 5.7664 4.2272l-3.0071 1.7278c-0.53758-1.3369-1.4573-2.1491-2.7593-2.4375v6.1097c0.66133 0.24708 1.1625 0.44272 1.5036 0.58619 0.34104 0.14456 0.79528 0.36012 1.3642 0.64814 0.56779 0.28838 1.0071 0.57604 1.3176 0.86407 0.3101 0.28838 0.63513 0.638 0.97653 1.0492 0.34068 0.41156 0.58344 0.89015 0.7283 1.4347 0.14413 0.54525 0.21693 1.147 0.21693 1.8053z" fill="#00C9C3" mask="url(#a)"/>
</g>
</g>
<g transform="translate(126 43)">
<g transform="translate(32 228)">
<g transform="translate(21.053 13.126) rotate(-44) translate(-10.5 -8)">
<path d="m9.4954 12.743c0.43289-0.083508 0.84652-0.24688 1.2259-0.47454l7.429-4.4561c0.038196-0.39865 0.13548-0.79133 0.29284-1.1641l1.7838-4.2244-4.592-2.4237s-2.5213 7.2585-8.699 8.9323c-0.63204 0.17165-1.2912 0.21672-1.9428 0.15674-0.27031-0.025516-0.59612-0.049376-0.94773-0.063625 0.62942 4.1462 3.9385 4.0084 5.45 3.7174" fill="#F79C82"/>
<path d="m2.0279 13.319s2.1395 1.9635 5.057 1.9635c2.9172 0 5.4458-2.356 7.3906-2.5527 1.7169-0.17334 3.7363-1.1112 3.2508-3.4895-0.080816-0.39584-0.10224-0.79922-0.063939-1.1967l-7.3857 4.4067c-0.37714 0.22479-0.78836 0.38634-1.2187 0.46892-1.5027 0.28771-4.7925 0.42402-5.4182-3.676-2.3703-0.093718-5.9278 0.28017-1.6118 4.0757" fill="#99DCDC"/>
</g>
<g transform="translate(7.1603 12.395) rotate(-1) translate(-6.5 -8.5)">
<path d="m5.0788 14.142c3.6599-0.94128 3.1108-3.9536 4.7577-5.4598 1.2667-1.1584 1.8817-2.4289 1.9327-3.8958-0.11543-0.1153-0.23941-0.22904-0.37714-0.34026 0 0-0.73198-1.8829-0.54906-3.954l-4.7254-0.49232s0.88253 7.0819-1.3134 9.5294c0 0-1.0609 1.9086-2.8427 3.4057 0.30629 0.87153 1.099 1.7261 3.1173 1.2071" fill="#F79C82"/>
<path d="m2.1248 16.25c1.5637 0 5.3866-0.53849 6.9503-3.41 1.5637-2.8715 2.9538-3.9482 2.9538-3.9482s1.2425-2.41-0.68459-4.3418c-0.048423 1.3983-0.63211 2.6092-1.8349 3.7137-1.5637 1.4358-1.0424 4.3073-4.5176 5.2046-1.9163 0.49476-2.6691-0.31986-2.9602-1.1507-0.29605 0.24978-0.61297 0.48787-0.94962 0.70201-2.2588 1.4358-0.52135 3.2303 1.0427 3.2303" fill="#99DCDC"/>
</g>
</g>
<polygon transform="translate(35.5 60) scale(-1 1) translate(-35.5 -60)" points="33 61 38 61 38 59 33 59" fill="#139296"/>
<polygon transform="translate(35.5 65) scale(-1 1) translate(-35.5 -65)" points="33 66 38 66 38 64 33 64" fill="#139296"/>
<polygon transform="translate(35.5 69) scale(-1 1) translate(-35.5 -69)" points="33 70 38 70 38 68 33 68" fill="#139296"/>
<polygon transform="translate(42.5 61) scale(-1 1) translate(-42.5 -61)" points="42 63 42.977 63 42.977 59 42 59" fill="#139296"/>
<polygon transform="translate(41.5 61) scale(-1 1) translate(-41.5 -61)" points="41 63 41.977 63 41.977 59 41 59" fill="#139296"/>
<polygon transform="translate(42.5 66) scale(-1 1) translate(-42.5 -66)" points="42 68 42.977 68 42.977 64 42 64" fill="#139296"/>
<polygon transform="translate(41.5 66) scale(-1 1) translate(-41.5 -66)" points="41 68 41.977 68 41.977 64 41 64" fill="#139296"/>
<polygon transform="translate(42.5 70) scale(-1 1) translate(-42.5 -70)" points="42 72 42.977 72 42.977 68 42 68" fill="#139296"/>
<polygon transform="translate(41.5 70) scale(-1 1) translate(-41.5 -70)" points="41 72 41.977 72 41.977 68 41 68" fill="#139296"/>
<polygon transform="translate(31.5 61) scale(-1 1) translate(-31.5 -61)" points="31 63 31.977 63 31.977 59 31 59" fill="#139296"/>
<polygon transform="translate(29.5 61) scale(-1 1) translate(-29.5 -61)" points="29 63 29.977 63 29.977 59 29 59" fill="#139296"/>
<polygon transform="translate(31.5 66) scale(-1 1) translate(-31.5 -66)" points="31 68 31.977 68 31.977 64 31 64" fill="#139296"/>
<polygon transform="translate(29.5 66) scale(-1 1) translate(-29.5 -66)" points="29 68 29.977 68 29.977 64 29 64" fill="#139296"/>
<polygon transform="translate(31.5 70) scale(-1 1) translate(-31.5 -70)" points="31 72 31.977 72 31.977 68 31 68" fill="#139296"/>
<polygon transform="translate(29.5 70) scale(-1 1) translate(-29.5 -70)" points="29 72 29.977 72 29.977 68 29 68" fill="#139296"/>
<polygon transform="translate(25.5 60) scale(-1 1) translate(-25.5 -60)" points="24 61 27 61 27 59 24 59" fill="#139296"/>
<polygon transform="translate(20.5 60) scale(-1 1) translate(-20.5 -60)" points="18 61 23 61 23 59 18 59" fill="#139296"/>
<polygon transform="translate(25.5 66) scale(-1 1) translate(-25.5 -66)" points="24 67 27 67 27 65 24 65" fill="#139296"/>
<polygon transform="translate(20.5 66) scale(-1 1) translate(-20.5 -66)" points="18 67 23 67 23 65 18 65" fill="#139296"/>
<polygon transform="translate(25.5 70) scale(-1 1) translate(-25.5 -70)" points="24 71 27 71 27 69 24 69" fill="#139296"/>
<polygon transform="translate(20.5 70) scale(-1 1) translate(-20.5 -70)" points="18 71 23 71 23 69 18 69" fill="#139296"/>
<polygon transform="translate(46.5 60) scale(-1 1) translate(-46.5 -60)" points="45 61 48 61 48 59 45 59" fill="#139296"/>
<polygon transform="translate(51.5 60) scale(-1 1) translate(-51.5 -60)" points="49 61 54 61 54 59 49 59" fill="#139296"/>
<polygon transform="translate(46.5 66) scale(-1 1) translate(-46.5 -66)" points="45 67 48 67 48 65 45 65" fill="#139296"/>
<polygon transform="translate(51.5 66) scale(-1 1) translate(-51.5 -66)" points="49 67 54 67 54 65 49 65" fill="#139296"/>
<polygon transform="translate(46.5 70) scale(-1 1) translate(-46.5 -70)" points="45 71 48 71 48 69 45 69" fill="#139296"/>
<polygon transform="translate(51.5 70) scale(-1 1) translate(-51.5 -70)" points="49 71 54 71 54 69 49 69" fill="#139296"/>
<polygon transform="translate(14.5 59) scale(-1 1) translate(-14.5 -59)" points="9.9758 48.687 21 70 8.8529 69.399 8 48" fill="#FAB08A"/>
<polygon transform="translate(31.5 72.5) scale(-1 1) translate(-31.5 -72.5)" points="26.004 39.014 36.606 39 41 106 22 106" fill="#fff"/>
<path transform="translate(20 79.5) scale(-1 1) translate(-20 -79.5)" d="m13 39 3.2455 81 10.754-4.7522s-4.8455-15.205-4.3857-36.329c-1.6444-15.275 6.7524-7.2287-3.535-36.64-3.8311-3.2929-6.0793-3.2791-6.0793-3.2791" fill="#006769"/>
<path transform="translate(32 30) scale(-1 1) translate(-32 -30)" d="m38 30.59-1.2551 6.8578c-0.55242 3.0178-3.8469 4.5129-6.3484 2.8828l-4.3964-2.8676 7.8498-18.463 4.1502 11.59z" fill="#F79C82"/>
<g transform="translate(41 169) scale(-1 1) rotate(-6) translate(-24 -64)">
<path d="m18.882 0.21941s-12.335 10.001-2.3718 59.152c0.636 22.9-0.94866 68.474-0.94866 68.474l5.8354-0.2773 26.391-127.35h-28.906z" fill="#004060"/>
<path d="m18.882 0.21941s-11.819 11.389-1.8553 60.54c-8.0657 25.614-16.474 64.598-16.474 64.598l8.9821 0.95221 38.253-126.09h-28.906z" fill="#004966"/>
</g>
<path transform="translate(47.5 76) scale(-1 1) translate(-47.5 -76)" d="m58.539 32s-10.555 5.8697-13.835 11.11c-3.1263 4.9939-4.2088 16.364-4.5092 26.484-0.4128 13.896-7.1945 50.406-7.1945 50.406h28.295l0.70542-79.478-3.4609-8.522z" fill="#006769"/>
<path transform="translate(25.5 24.5) scale(-1 1) translate(-25.5 -24.5)" d="m35.428 9.9823c-6.3092-1.5878-12.378 4.8362-12.378 4.8362l-4.7464 25.39-7.2992-11.174s-0.41689-15.182 6.6393-25.235c5.0525-6.0887 14.751-4.3403 19.654 1.5804 2.3842 2.8797 2.8818 6.8555 2.6512 10.514-0.31053 4.912-1.7116 33.107-1.7116 33.107l-14.454-10.633s0.34662-2.8677 1.7304-8.0812c2.3798-8.9723 14.151-19.236 9.9146-20.303" fill="#1C2C57"/>
<path transform="translate(22 20.5) scale(-1 1) translate(-22 -20.5)" d="m20.463 32.475c1.1708 0.4397 2.3185 0.6856 3.0809 0.40666 5.4772-4.0419 7.4558-20.189 7.4558-20.189l-4.3383-4.6931-8.6381 1.933-4.2564 9.6172c-1.1359 2.5662-1.0044 5.5316 0.35396 7.9844 1.613 2.2251 3.7943 3.9848 6.3422 4.9404" fill="#FAB08A"/>
<path transform="translate(22.5 10.5) scale(-1 1) translate(-22.5 -10.5)" d="m29.994 10.703c-0.46436 4.8959-14.275 5.297-14.275 5.297l-0.71931-6.6277 8.0515-4.3723 6.3725 3.7834s0.64305 1.1021 0.57021 1.9196" fill="#1C2C57"/>
<path transform="translate(13.5 13) scale(-1 1) translate(-13.5 -13)" d="m12.084 10.832c-0.53212 1.8837 1.6396 5.1676 1.6396 5.1676l1.2764-2.025-0.034703-1.7545-1.2606-1.3672s-1.0877-1.906-1.6208-0.020904" fill="#1C2C57"/>
<path transform="translate(35.5 72) scale(-1 1) translate(-35.5 -72)" d="m23.347 44.061c-13.597 1.5866-7.174 36.644-4.253 51.039 0.71859 3.5418 4.3435 5.7043 7.7924 4.6173 11.83-3.7299 29.114-19.216 29.114-19.216l-2.7398-3.4469-22.96 5.3569s8.8094-40.189-6.9536-38.35" fill="#FAB08A"/>
<path transform="translate(12.5 82) scale(-1 1) translate(-12.5 -82)" d="m4.5371 68.096-4.5197 27.391c-0.1311 0.79287 0.49474 1.5127 1.3153 1.5127h17.894c0.65551 0 1.2136-0.46698 1.3161-1.0999l4.44-27.391c0.12856-0.79287-0.49729-1.5091-1.3164-1.5091h-17.815c-0.65325 0-1.2107 0.46449-1.315 1.0963" fill="#004060"/>
<path transform="translate(4 80.5) scale(-1 1) translate(-4 -80.5)" d="m6.9315 80.853c0.10416-0.97609 0.015942-1.5876-0.29254-3.6076-0.40121-2.6276-0.29599-6.742-2.8372-4.6914-2.4017 3.1804-2.6804 6.5622-2.6804 6.5622-0.48942 1.8658 0.59331 4.4589 1.6032 5.8655l1.7481 4.0185s3.0152-3.7047 2.4588-8.1473" fill="#FAB08A"/>
</g>
<g transform="translate(55 54.5) scale(-1 1) translate(-55 -54.5)" fill="#71D8B8">
<path d="m0.84603 54.469c0 30.036 24.352 54.385 54.391 54.385 30.039 0 54.391-24.349 54.391-54.385 0-30.036-24.352-54.384-54.391-54.384-30.04 0-54.391 24.348-54.391 54.384"/>
<polygon points="60.851 90.152 0.10052 107.77 20.537 51.148"/>
</g>
<mask id="g" fill="white">
<use xlink:href="#b"/>
</mask>
<use fill="#71D8B8" xlink:href="#b"/>
<g fill="#53C5A1" mask="url(#g)">
<g transform="translate(11 -41)">
<path d="m68 9v151.93c-0.66011 0.37145-1.3287 0.72884-2 1.0739v-153h2z"/>
<path d="m2 36v91c-0.69429-1.2403-1.3628-2.5043-2-3.7887v-83.423c0.63717-1.2844 1.3057-2.5485 2-3.7887"/>
<path d="m90 39.854v86.292c-0.63702 1.3092-1.3059 2.593-2 3.854v-94c0.69413 1.261 1.363 2.5447 2 3.854"/>
<path d="m44 0.0073456v168.99c-0.30899 0.003391-0.61985 0.007346-0.92884 0.007346-0.35721 0-0.71442-0.00339-1.0712-0.010171v-168.98c0.35674-0.0073456 0.71395-0.010736 1.0712-0.010736 0.30852 0 0.61985 0.0033903 0.92884 0.0073456"/>
<path d="m24 7v153c-0.67166-0.3629-1.34-0.73925-2-1.1268v-150.75c0.65996-0.38757 1.3288-0.76393 2-1.1263"/>
</g>
</g>
<g transform="translate(1 26)">
<path d="m110 25.435v0.0024371l-6.2717 15.14-1.5026-2.2364-1.6088-2.3948-7.5081-11.171-8.8612 4.2047-4.219-11.486-1.1148-3.0369-0.55834-1.5219-0.6231-1.6962-0.98567 3.1909-0.032379 0.10642-0.96044 3.1019-5.5612 17.996h-8.0597l-7.4799 15.366-0.16792-0.10642-1.6088-1.0292-8.8978-5.6892-7.0507-18.192-6.3127 15.166-0.63892 1.5345-0.96986-0.42404-7.4505-3.2477-8.4614 9.1258-6.3492 1.9984-1.6088 0.50609-1.0297 0.32453-3.0334-1.6361c-0.38854-1.1036-0.74433-2.2218-1.0734-3.3521l4.3297 2.3355 0.80683-0.25304 1.6088-0.50812 5.1403-1.6162 9.1214-9.8379 7.7792 3.3919 0.22025-0.53086 7.9953-19.209 8.804 22.712 7.071 4.5223 0.86632 0.55239 0.74208-1.5248 6.2578-12.857h7.7954l5.0673-16.405 0.97663-3.1637 2.1649-7.0064 0.79742-2.5804 0.81135 2.2088 2.6242 7.1478 1.1423 3.1064 3.3828 9.2128 8.3763-3.9744 6.7359 10.023 1.6084 2.3927 1.0275 1.5296 6.3609-15.356c0.19502 1.6933 0.32379 3.409 0.38591 5.1446" fill="#fff"/>
<path d="m78.5 0c3.0376 0 5.5 2.6862 5.5 5.9999 0 3.3137-2.4624 6.0001-5.5 6.0001s-5.5-2.6865-5.5-6.0001c0-3.3137 2.4624-5.9999 5.5-5.9999" fill="#FF7900"/>
</g>
<g transform="translate(13 132)">
<path d="m22.5 15c12.426 0 22.5 10.073 22.5 22.499s-10.074 22.501-22.5 22.501-22.5-10.074-22.5-22.501 10.074-22.499 22.5-22.499" fill="#FF7900"/>
<g transform="translate(22.5 37) scale(-1 1) translate(-11.5 -13)" fill="#fff">
<path d="m22.937 4.0622c0 7.2781 1.6083 17.704-11.437 21.938-13.045-4.2341-11.437-14.66-11.437-21.938 4.7377 0 8.3675-1.2675 11.437-4.0622 3.0693 2.7947 6.6994 4.0622 11.437 4.0622zm-6.7273 7.1881h-3.4251v-3.2242h-2.2586v3.2242h-3.4249v2.0975h3.4249v3.2242h2.2586v-3.2242h3.4251v-2.0975z"/>
</g>
<path d="m70 0c8.2843 0 15 6.7155 15 15 0 8.2841-6.7157 15-15 15s-15-6.7162-15-15c0-8.2841 6.7157-15 15-15" fill="#FF7900"/>
<g transform="translate(61 8)">
<mask id="f" fill="white">
<use xlink:href="#c"/>
</mask>
<path d="m3.7112 0.11571c3.0594-0.61551 4.4152 1.3915 4.7905 2.0938 0.37517-0.70227 1.7284-2.6937 4.7909-2.0938 4.2723 0.83845 3.6794 5.6337 3.6794 5.6337s0.5161 3.7999-7.7805 8.7885c-0.22483 0.1352-0.43103 0.26612-0.63116 0.39257v0.066726c-0.0025482 9.727e-4 -0.0035282 0.0027235-0.0066644 0.0027235-0.017053-0.010505-0.034694-0.022566-0.051943-0.032876-0.0013721 7.782e-4 -0.0029402 0.0017509-0.0049003 0.0023345-0.018033 0.0019453-0.035086 0.0036961-0.053315 0.0054469v-0.044354c-0.20032-0.12645-0.40594-0.25737-0.63038-0.39257-8.2974-4.9887-7.7813-8.7885-7.7813-8.7885s-0.62646-4.7659 3.6794-5.6337" fill="#fff" mask="url(#f)"/>
</g>
</g>
</g>
</svg>
