<svg xmlns="http://www.w3.org/2000/svg" xmlns:xlink="http://www.w3.org/1999/xlink" width="335" height="315" viewBox="0 0 335 315">
    <defs>
        <path id="a" d="M.364.028H119.97v143.934H.364z"/>
        <path id="c" d="M.575.028h91.004v143.934H.575z"/>
        <path id="e" d="M.347.447h132.864v168.562H.347z"/>
        <path id="g" d="M.095.447H113.7V169.01H.095z"/>
        <path id="i" d="M86.2 56.02l15.61 23.755-29.47-1.457C64.676 84.978 54.722 89 43.842 89 19.63 89 0 69.076 0 44.5 0 19.923 19.629 0 43.842 0c24.213 0 43.842 19.923 43.842 44.5 0 3.984-.516 7.846-1.483 11.52z"/>
        <path id="k" d="M6.996 28.66c1.767 0 19.801-9.153 28.514-12.612 9.297-1.98 12.146-2.62 19.511-6.46 12.251-1.735 19.256-2.303 20.462-3.76 1.385-1.344.559-1.94-.098-2.14-.437-.132-3.494-.078-9.17.163L27.265.056 0 12.99c1.87 5.042 3.308 8.86 4.313 11.455 1.51 3.892 2.137 4.213 2.683 4.213z"/>
    </defs>
    <g fill="none" fill-rule="evenodd">
        <g opacity=".107">
            <g transform="translate(132.55 134.447)">
                <mask id="b" fill="#fff">
                    <use xlink:href="#a"/>
                </mask>
                <path fill="#59C09C" d="M.364 130.868S15.227 25.948 85.179.028c68.298 58.152 14.98 144.134 14.98 144.134L24.795 198.14.364 130.868z" mask="url(#b)"/>
            </g>
            <g transform="translate(156.805 134.447)">
                <mask id="d" fill="#fff">
                    <use xlink:href="#c"/>
                </mask>
                <path fill="#006769" d="M1.797 57.049l29.917 36.083L59.707.673c.542-.215 1.08-.439 1.63-.645.268.23.516.462.78.691L47.125 50.24 86.63 32.193c.18.373.347.747.521 1.12l.451.997-41.378 18.9-24.986 82.526 70.34-29.449c-.25.96-.503 1.913-.766 2.846l-70.45 29.496L2.62 197.227l-1.264.914-.781-2.165 30.33-100.177L.617 59.268c.388-.74.781-1.48 1.18-2.22" mask="url(#d)"/>
            </g>
            <g transform="translate(67.867 109.4)">
                <mask id="f" fill="#fff">
                    <use xlink:href="#e"/>
                </mask>
                <path fill="#004966" d="M30.46 176.852S-31.665 71.646 22.55.447C170.17 43.553 127.48 188.957 127.48 188.957l-97.02-12.105z" mask="url(#f)"/>
            </g>
            <g transform="translate(68.765 109.4)">
                <mask id="h" fill="#fff">
                    <use xlink:href="#g"/>
                </mask>
                <path fill="#59C09C" d="M21.82.447c.514.151 1.018.306 1.532.458l40.121 138.359 48.687-75.535c.526.853 1.037 1.707 1.54 2.566L64.464 142.68l11.577 39.925-2.9-.36-23.08-79.59v.002L.364 86.922c-.099-.964-.19-1.93-.27-2.9l49.068 15.535L20.82 1.811c.335-.453.655-.911 1-1.364" mask="url(#h)"/>
            </g>
        </g>
        <g transform="translate(149 9)">
            <mask id="j" fill="#fff">
                <use xlink:href="#i"/>
            </mask>
            <use fill="#B2E7D6" fill-rule="nonzero" xlink:href="#i"/>
            <g mask="url(#j)">
                <path fill="#F0A57E" d="M28.962 40.806l6.073 1.917-3.037 14.953c-9.327.598-13.991.598-13.991 0 0-.599 1.642-5.239 4.927-13.92l6.028-2.95z"/>
                <path fill="#FFDBC8" d="M34.927 35.422v.998c.567.235 1.398.278 2.125.318.484.027 1.253-.079 2.305-.318l-4.43-.998z"/>
                <g transform="translate(-17.048 53.101)">
                    <mask id="l" fill="#fff">
                        <use xlink:href="#k"/>
                    </mask>
                    <use fill="#FEC3A4" xlink:href="#k"/>
                    <path fill="#F0A57E" d="M6.996 28.935s4.824-1.604 10.463-4.15c6.211-2.803 13.484-6.648 18.05-8.462 9.298-1.98 12.147-2.62 19.512-6.46C67.272 8.13 74.277 7.562 75.483 6.105c1.385-1.344.559-1.94-.098-2.14-.437-.132-3.494-.078-9.17.163-3.256-.108-8.053-.576-14.39-1.402-2.703 3.38-5.229 7.139-16.77 10.265C22.123 19 19.683 20.63 5.945 26.126c-2.002 1.138 1.05 2.809 1.05 2.809z" mask="url(#l)"/>
                </g>
                <path fill="#FAB08A" d="M50.504 61.257c4.547-.654 7.227-1.201 7.931-2.051 1.385-1.345.56-1.942-.097-2.14-.374-.114-2.66-.09-6.855.069-.717.027-1.777 2.92-.979 4.122zM51.939 49.677c2.07-1.07 6.53-7.043 7.177-7.933.46-.995.54-1.995.46-2.572-.082-.576-.46-.576-.915-.663-1.172.186-2.14.614-2.904 1.286-3.147 6.24-4.42 9.533-3.818 9.882z"/>
                <path fill="#F0A57E" d="M51.939 49.677c.987-.51 2.519-2.137 3.92-3.795-1.44-2.219 1.211-6.266 1.91-7.173-.521.154-1.932.62-4.232 1.398-1.667 6.031-2.2 9.221-1.598 9.57z"/>
                <path fill="#FAB08A" d="M53.805 39.171c0 .3 2.455-1.55 3.56-2.834 1.05-1.218 2.143-3.072 2.143-3.821 0-.75-.61-1.085-1.196-1.085-.513 0-2.23.627-5.153 1.883-.25 3.905-.035 5.857.646 5.857z"/>
                <path fill="#F0A57E" d="M53.805 39.171c0 .227 1.414-.783 2.58-1.845-.222-2.337.086-4.918.086-5.344-.347.074-1.451.518-3.312 1.332-.134 2.036-.167 3.354-.101 3.955.175 1.59.747 1.934.747 1.902z"/>
                <path fill="#FAB08A" d="M48.708 22.778c1.237-1 2.158-1.501 2.761-1.501.906 0 1.494.265 1.937.971.296.47.236 1.207-.18 2.208l-4.518-1.678z"/>
                <path fill="#F0A57E" d="M48.708 22.778c.513-.398.882-.67 1.106-.817 1.01.359 2.706.977 3.723 1.517-.039.194-.142.52-.311.978l-4.518-1.678z"/>
                <g>
                    <g transform="translate(25.469 14.286)">
                        <path fill="#C5C6C7" d="M2.907 0h34.186C38.7 0 40 1.26 40 2.813v52.374C40 56.741 38.699 58 37.093 58H2.907C1.3 58 0 56.74 0 55.187V2.813C0 1.259 1.301 0 2.907 0z"/>
                        <path fill="#F5F6F8" d="M3.045.402h33.91c1.452 0 2.63 1.14 2.63 2.545v52.106c0 1.406-1.178 2.545-2.63 2.545H3.045c-1.452 0-2.63-1.14-2.63-2.545V2.947C.415 1.54 1.593.402 3.045.402z"/>
                        <path fill="#4A4A4A" fill-rule="nonzero" d="M2.63 6.43a.136.136 0 0 0-.139.134v45.274c0 .074.062.134.139.134h34.879c.076 0 .138-.06.138-.134V6.564a.136.136 0 0 0-.138-.134H2.629zm0-.134h34.879c.153 0 .276.12.276.268v45.274a.272.272 0 0 1-.276.268H2.629a.272.272 0 0 1-.276-.268V6.564c0-.148.124-.268.277-.268z"/>
                        <ellipse cx="20.069" cy="3.349" fill="#111316" rx="1" ry="1"/>
                        <path fill-rule="nonzero" d="M20.138 56.727c-.84 0-1.522-.66-1.522-1.473 0-.814.682-1.473 1.522-1.473.841 0 1.523.66 1.523 1.473 0 .814-.682 1.473-1.523 1.473zm0-.133c.765 0 1.384-.6 1.384-1.34 0-.74-.62-1.34-1.384-1.34-.764 0-1.384.6-1.384 1.34 0 .74.62 1.34 1.384 1.34z"/>
                    </g>
                </g>
                <g fill-rule="nonzero">
                    <path fill="#066360" d="M39.365 26.229h1.371l-.132 1.707a2.37 2.37 0 0 1-.596.196c-.232.046-.468.07-.709.07a1.95 1.95 0 0 1-.919-.203 1.368 1.368 0 0 1-.586-.581c-.134-.252-.2-.55-.2-.894 0-.4.076-.75.228-1.046.152-.298.37-.526.652-.686.283-.16.614-.24.993-.24.535 0 .965.14 1.29.42l-.26.47a1.695 1.695 0 0 0-.48-.287 1.493 1.493 0 0 0-.545-.083c-.386.003-.685.133-.896.388-.212.255-.317.607-.317 1.054 0 .38.093.672.279.874.186.202.463.303.832.303.23 0 .454-.035.67-.105l.067-.892h-.777l.035-.465zm3.44-.661c.102 0 .189.013.26.04l-.051.566a.842.842 0 0 0-.33-.06c-.22 0-.391.06-.513.182a.738.738 0 0 0-.203.494l-.112 1.367h-.634l.147-1.813c.013-.227.02-.399.02-.516 0-.09-.002-.157-.005-.2h.594l.01.385a.783.783 0 0 1 .333-.328c.147-.078.309-.117.485-.117zm1.552 2.629c-.26 0-.487-.051-.68-.153a1.078 1.078 0 0 1-.447-.433 1.318 1.318 0 0 1-.157-.656c0-.28.055-.526.165-.736.11-.21.265-.373.464-.486.2-.114.432-.17.696-.17.257 0 .482.051.675.155.193.103.341.249.444.436.104.187.155.404.155.65 0 .284-.054.531-.162.742a1.14 1.14 0 0 1-.46.483 1.385 1.385 0 0 1-.693.168zm0-.486a.582.582 0 0 0 .51-.253c.117-.169.176-.393.176-.673 0-.237-.055-.42-.165-.546-.11-.127-.269-.19-.475-.19-.227 0-.4.084-.518.252-.118.169-.178.392-.178.669 0 .494.217.74.65.74zm5.32-2.083h.634l-1.209 2.529h-.553l-.508-1.653-.751 1.653h-.553l-.803-2.53h.635l.523 1.778.797-1.777h.462l.523 1.793.802-1.793zm1.739 1.602c-.024.297.103.446.38.446.078 0 .166-.012.264-.035l-.04.49c-.112.04-.25.06-.416.06-.268 0-.473-.069-.615-.207-.142-.139-.213-.34-.213-.604 0-.05.002-.088.005-.115l.091-1.166h-.492l.04-.471h.488l.05-.616.65-.21-.065.826h.685l-.04.47h-.68l-.092 1.132zm2.633-1.667c.287 0 .505.077.652.233.147.155.221.381.221.678 0 .064-.002.112-.005.145l-.127 1.538h-.63l.122-1.508a.747.747 0 0 0 .005-.1c0-.16-.04-.282-.119-.365-.08-.084-.197-.126-.353-.126-.196 0-.35.06-.462.178-.112.119-.176.281-.193.488l-.117 1.433h-.634l.294-3.686h.635l-.117 1.467a.906.906 0 0 1 .35-.278c.143-.065.302-.097.478-.097z"/>
                    <path fill="#1FCF00" d="M40.762 31.83l-.029.357h-.82l-.065.809h-.358l.065-.81h-.82l.028-.356h.82l.066-.81h.357l-.065.81h.82zm2.92-.124c.153.045.272.12.358.226.087.106.13.237.13.395a.82.82 0 0 1-.126.452.835.835 0 0 1-.365.307c-.16.073-.35.11-.569.11a1.74 1.74 0 0 1-.558-.088 1.424 1.424 0 0 1-.453-.244l.203-.377c.257.198.53.297.816.297.176 0 .312-.04.408-.119a.413.413 0 0 0 .145-.338c0-.136-.045-.237-.134-.303-.09-.065-.225-.098-.407-.098h-.373l.032-.412h.33c.183 0 .326-.04.428-.12a.409.409 0 0 0 .152-.341.327.327 0 0 0-.118-.268.507.507 0 0 0-.329-.097c-.265 0-.529.1-.792.297l-.142-.377c.12-.101.267-.181.443-.24s.359-.09.548-.092c.176 0 .333.03.47.088a.73.73 0 0 1 .318.25.643.643 0 0 1 .114.379.716.716 0 0 1-.138.438.795.795 0 0 1-.385.273l-.005.002zm.897.897h.569l-.045.561h-.569l.045-.56zm3.13-.4l-.033.404h-.41l-.044.557h-.512l.044-.557h-1.263l.029-.384 1.498-1.911h.431l-.15 1.89h.41zm-1.678 0h.756l.081-1.074-.837 1.074zm2.508-.511a.724.724 0 0 1-.348-.244.626.626 0 0 1-.13-.391c0-.163.045-.303.136-.42a.842.842 0 0 1 .378-.27 1.55 1.55 0 0 1 .554-.091c.19 0 .357.028.502.086.144.057.258.14.339.248a.613.613 0 0 1 .122.379c0 .17-.053.319-.159.444a.84.84 0 0 1-.426.265c.17.045.304.129.402.25a.662.662 0 0 1 .146.427c0 .17-.048.318-.144.44a.906.906 0 0 1-.398.283c-.17.065-.362.098-.579.098-.328 0-.585-.068-.772-.204a.66.66 0 0 1-.28-.565c0-.182.058-.337.175-.467a.908.908 0 0 1 .487-.266l-.005-.002zm.017-.587c0 .128.044.23.13.304a.696.696 0 0 0 .35.149.787.787 0 0 0 .408-.167.418.418 0 0 0 .144-.33.333.333 0 0 0-.13-.282.588.588 0 0 0-.362-.099c-.17 0-.303.036-.398.109-.094.072-.142.177-.142.316zm.394 1.687a.75.75 0 0 0 .445-.12.39.39 0 0 0 .169-.337.367.367 0 0 0-.145-.303.806.806 0 0 0-.408-.146c-.42.05-.63.214-.63.489 0 .136.05.24.15.31.101.071.24.107.42.107zm2.192-.782c-.23 0-.407-.068-.53-.204-.123-.136-.185-.33-.185-.58 0-.297.067-.53.2-.702a.66.66 0 0 1 .552-.256c.23 0 .406.068.53.204.123.136.184.331.184.585 0 .302-.065.536-.197.703-.13.167-.316.25-.554.25zm.272 1.154h-.447l1.901-2.852h.447l-1.9 2.852zm-.276-1.478c.111 0 .194-.058.248-.174.054-.117.081-.284.081-.503 0-.142-.023-.247-.07-.315-.045-.068-.118-.102-.218-.102-.217 0-.325.227-.325.681 0 .142.023.246.069.313.046.066.117.1.215.1zm1.966 1.506c-.23 0-.407-.068-.53-.204-.123-.136-.185-.33-.185-.581 0-.3.066-.534.199-.703a.662.662 0 0 1 .552-.254c.23 0 .407.067.53.202.124.135.185.329.185.583 0 .301-.065.536-.197.705-.131.168-.316.252-.554.252zm0-.324c.108 0 .19-.058.243-.175.055-.116.082-.283.082-.502 0-.142-.023-.247-.07-.315-.045-.068-.118-.102-.219-.102-.214 0-.32.227-.32.681 0 .142.022.246.066.312.045.067.118.1.218.1z"/>
                </g>
                <g>
                    <path fill="#005150" d="M46.347 37.985c3.854 0 6.978 2.97 6.978 6.633s-3.124 6.633-6.978 6.633c-3.854 0-6.979-2.97-6.979-6.633 0-3.664 3.125-6.633 6.979-6.633"/>
                    <path fill="#FFF" d="M45.23 47.648c.36 0 .692.172.888.46a.029.029 0 0 0 .024.013.029.029 0 0 0 .021-.01 1.582 1.582 0 0 1 1.158-.496c.15 0 .296.021.433.06l-.508-1.239h-1.799l-.513 1.252c.094-.026.193-.04.296-.04"/>
                    <path fill="#9DE9E9" d="M44.683 48.927a.027.027 0 0 0 .011.018.03.03 0 0 0 .022.005 1.969 1.969 0 0 1 1.612.467.03.03 0 0 0 .019.007.03.03 0 0 0 .02-.007 1.969 1.969 0 0 1 1.615-.466.03.03 0 0 0 .017-.006.027.027 0 0 0 .012-.018c.052-.336.186-.655.386-.934a1.612 1.612 0 0 0-1.076-.405c-.47 0-.89.196-1.179.506a1.098 1.098 0 0 0-.912-.473 1.1 1.1 0 0 0-.887.439c.174.262.291.557.34.867"/>
                    <path fill="#008181" d="M44.711 48.923c-.171-1.096-1.166-1.938-2.367-1.938-.834 0-1.569.406-1.997 1.02a6.872 6.872 0 0 0 2.744 2.48c.122-.8.782-1.435 1.62-1.562M50.35 46.985c-1.202 0-2.196.842-2.368 1.938.839.127 1.499.762 1.62 1.562a6.873 6.873 0 0 0 2.745-2.48 2.425 2.425 0 0 0-1.997-1.02"/>
                    <path fill="#00BCBC" d="M47.674 48.9c-.513 0-.98.189-1.327.497a1.997 1.997 0 0 0-1.328-.497c-.98 0-1.792.689-1.928 1.585.972.489 2.08.766 3.256.766a7.238 7.238 0 0 0 3.256-.766c-.136-.896-.948-1.585-1.929-1.585"/>
                    <path fill="#FF9600" d="M44.157 42.688c0-.221.008-.441.025-.66-.686.367-1.158 1.184-1.158 2.13 0 .5.13.976.378 1.378a.131.131 0 0 0 .156.05 2.899 2.899 0 0 1 1.033-.193 8.434 8.434 0 0 1-.434-2.705M48.512 42.028c.016.219.025.439.025.66 0 .944-.15 1.873-.435 2.705.36.003.708.067 1.033.194a.131.131 0 0 0 .047.009.127.127 0 0 0 .11-.06c.247-.402.377-.878.377-1.378 0-.946-.472-1.763-1.157-2.13M45.256 45.704v.624a.14.14 0 0 0 .143.135h1.896a.14.14 0 0 0 .142-.135v-.624h-2.18"/>
                    <path fill="#E6F8F8" d="M48.08 39.834h-3.467a8.384 8.384 0 0 0-.485 2.854c0 1.043.182 2.068.526 2.964a.126.126 0 0 0 .119.079h3.148c.053 0 .1-.031.118-.079a8.354 8.354 0 0 0 .526-2.964 8.383 8.383 0 0 0-.485-2.854"/>
                    <path fill="#FF9600" d="M45.526 39.834v.45a.14.14 0 0 0 .142.135h1.357a.14.14 0 0 0 .143-.135v-.45h-1.642"/>
                    <path fill="#FF9600" d="M46.347 37.39a.13.13 0 0 0-.08.026c-.636.49-1.172 1.232-1.55 2.148-.04.098-.077.197-.113.297h3.486c-.036-.1-.074-.2-.114-.297-.378-.916-.914-1.658-1.55-2.148a.13.13 0 0 0-.08-.027"/>
                    <path fill="#007F7E" d="M46.347 40.906c.802 0 1.453.619 1.453 1.381 0 .763-.65 1.382-1.453 1.382s-1.453-.619-1.453-1.382c0-.762.65-1.38 1.453-1.38"/>
                    <path fill="#00BCBC" d="M46.347 41.401c.515 0 .932.397.932.886 0 .49-.417.887-.932.887-.515 0-.933-.397-.933-.887 0-.489.418-.886.933-.886"/>
                    <path fill="#FFF" d="M42.192 42.228a.08.08 0 0 1-.075-.047c-.159-.365-.276-.477-.66-.628a.077.077 0 0 1-.05-.07c0-.032.02-.06.05-.072.384-.15.501-.262.66-.627a.08.08 0 0 1 .075-.048.08.08 0 0 1 .075.048c.159.365.276.476.66.627.03.012.05.04.05.071 0 .031-.02.06-.05.071-.384.151-.501.263-.66.628a.08.08 0 0 1-.075.047M50.034 39.99a.083.083 0 0 1-.076-.048c-.163-.374-.283-.488-.676-.643a.079.079 0 0 1-.051-.073c0-.032.02-.06.05-.072.394-.155.514-.27.677-.643a.083.083 0 0 1 .076-.049c.034 0 .064.02.077.049.163.374.283.488.676.643.031.012.051.04.051.072 0 .032-.02.06-.05.073-.394.155-.514.269-.677.643a.083.083 0 0 1-.077.048"/>
                    <path fill="#004060" d="M61.111 60.877l-.482-.632-.517-.677-2.41-3.16-2.845 1.19-1.354-3.249-.358-.858-.18-.43-.2-.48-.316.902-.01.03-.308.877-1.786 5.09h-2.587l-2.401 4.344-.054-.03-.517-.29-2.856-1.61-2.263-5.144-2.027 4.289-.205.433-.311-.12-2.392-.918-2.716 2.58-2.039.566-.516.143-.33.092-.974-.463a16.515 16.515 0 0 1-.345-.948l1.39.66.259-.07.516-.145 1.65-.457 2.929-2.782 2.497.96.07-.15.517-1.094 2.05-4.338 2.827 6.422 2.27 1.279.278.156.238-.431 2.009-3.636h2.502l1.627-4.639.314-.894.694-1.982.256-.73.26.625.843 2.022.367.878 1.086 2.605 2.689-1.124 2.162 2.835.517.676.33.433L63 55.14c.063.48.104.964.124 1.455l-2.013 4.282z"/>
                    <path fill="#FF7900" d="M41.818 55.546c0 .953-.795 1.726-1.775 1.726-.98 0-1.776-.773-1.776-1.726s.795-1.726 1.776-1.726c.98 0 1.775.773 1.775 1.726z"/>
                </g>
                <path fill="#FEC3A4" d="M20.386 56.977c0-.35 3.192-2.64 4.474-4.974.855-1.556 1.418-4.397 1.688-8.524l4.066-4.179h6.099c1.126 0 2.173-1.408 2.749-2.763.025-.059.025 0 .073-.177.048-.178-5.528-1.54-11.012-2.205-4.508 2.362-6.1 3.168-10.506 6.315a83.46 83.46 0 0 0-7.831 12.648c6.8 2.807 10.2 4.093 10.2 3.86z"/>
            </g>
        </g>
        <path fill="#FFEDDC" d="M284.318 88.67s.596 4.956-3.574 5.575c-4.17.62-7.805 8.917-.816 12.393l8.56-10.948-.398-8.878-3.772 1.858z"/>
        <path fill="#F79C82" d="M294.734 95.06l-5.044-7.347-3.88 1.192.97 7.743s4.365 3.078 7.857-1.688"/>
        <path fill="#006769" d="M286.703 96.725l-15.564 19.362a.667.667 0 0 1-.733.18l-9.583-3.789 3.057 8.706s11.411 1.865 12.022 1.658c.612-.207 8.12-1.144 8.12-1.144l2.68-24.973z"/>
        <path fill="#FAB08A" d="M296.519 78.25c0 6.222-4.195 11.265-9.37 11.265-5.175 0-9.37-5.043-9.37-11.264 0-6.221 4.195-11.265 9.37-11.265 5.175 0 9.37 5.044 9.37 11.265"/>
        <path fill="#FFEDDC" d="M311.921 128.784c-12.088 4.044-1.025-25.278-1.025-25.278l-15.66-9.062s-8.543-.823-4.679-10.915c0 0 1.83-2.678 1.017-5.767 0 0-7.76.837-11.1-7.922 0 0-3.35 4.298-2.532 10.23 0 0-5.954-9.664 2.955-16.003 7.525-5.355 15.152-1.545 20.236 6.487 5.085 8.032 6.305 8.65 9.356 9.474 2.07.558 4.793 3.012 6.65 5.497 1.497 2.005 5.64 3.382 7.994 4.182 6.377 2.17 21.647 27.415-13.212 39.077"/>
        <path fill="#59C09C" d="M317.044 103.017c0-4.933-3.956-8.936-8.858-8.993l-.002-.003-.03.002-.073-.002c-.41 0-.812.03-1.207.084l-11.67.743-8.449 1.655-5.144 6.427a13.43 13.43 0 0 0-1.92 13.518l1.5 3.63.825 8.893s26.477 22.231 26.477 21.818c0-.414 8.363-45.93 8.363-45.93.123-.595.188-1.21.188-1.842"/>
        <path fill="#004060" d="M241.231 96.073l5.683 21.509c.12.54.494.987 1 1.193l12.257 4.985 4.221-7.97-5.118-19.855a1.662 1.662 0 0 0-1.524-1.254l-14.827-.658c-1.092-.051-1.932.967-1.692 2.05"/>
        <path fill="#F79C82" d="M264.692 113.847l.436.159c.46.22.821.591 1.02 1.045l.498 1.135a6.616 6.616 0 0 0 2.77 3.064l1.223.705-.834 3.805-8.392-2.451c-.733-.215-1.265-.825-1.355-1.555l-.077-.629a6.828 6.828 0 0 1 .33-3.076c.294-.849 1.217-1.339 2.123-1.127l2.12.418c.258.05.482-.174.418-.418l-.28-1.075zM242.998 106.623l1.325 4.912a.7.7 0 0 0 .87.482c1.115-.318 3.168-1.24 3.136-3.726-.034-2.577-3.181-2.641-4.714-2.52a.683.683 0 0 0-.617.852"/>
        <path fill="#004966" d="M254.647 143.026a15.17 15.17 0 0 1-11.294 5.03c-2.505 0-4.867-.61-6.951-1.686l-23.118 35.064-5.113-2.67 21.08-51.812c.028-.069.054-.138.084-.205l.313-.771.052-.02c2.494-5.04 7.669-8.505 13.653-8.505 2.106 0 4.5.103 6.75.925l45.41 14.373s5.539 2.282 8.701 5.046v.001a13.549 13.549 0 0 1 4.799 10.363c0 7.487-6.045 13.556-13.5 13.556-2.599 0-7.143-1.116-9.438-2.435-.326-.188-.653-.375-.987-.548l-30.44-15.706z"/>
        <path fill="#003A4C" d="M286.703 160.086l-39.467-5.033-6.878 42.602s-5.664-.413-5.664-.827-2.428-51.288-2.428-51.288-.202-13.235 17.6-6.204l36.837 20.75z"/>
        <path fill="#F79C82" d="M202.28 192.115a3.95 3.95 0 0 0 1.285-.498l7.784-4.68c.04-.42.142-.832.307-1.223l1.87-4.438-4.812-2.545s-2.642 7.624-9.116 9.382a5.74 5.74 0 0 1-2.035.165 18.767 18.767 0 0 0-.993-.067c.66 4.355 4.127 4.21 5.71 3.904"/>
        <path fill="#99DCDC" d="M195.135 192.996s2.253 1.955 5.324 1.955c3.072 0 5.734-2.346 7.782-2.542 1.807-.172 3.933-1.106 3.422-3.475a3.814 3.814 0 0 1-.067-1.192l-7.776 4.389a4.11 4.11 0 0 1-1.283.467c-1.582.286-5.046.422-5.705-3.661-2.495-.093-6.241.279-1.697 4.059"/>
        <path fill="#F79C82" d="M233.885 211.905c3.996-1.009 3.396-4.236 5.195-5.85 1.383-1.24 2.054-2.602 2.11-4.173a5.195 5.195 0 0 0-.412-.365s-.8-2.017-.6-4.236l-5.159-.527s.964 7.587-1.434 10.209c0 0-1.158 2.045-3.104 3.648.334.934 1.2 1.85 3.404 1.294"/>
        <path fill="#99DCDC" d="M230.246 215.678c1.797 0 6.191-.622 7.988-3.94 1.798-3.317 3.395-4.561 3.395-4.561s1.428-2.784-.787-5.016c-.055 1.615-.726 3.014-2.108 4.29-1.798 1.66-1.199 4.977-5.193 6.013-2.202.572-3.067-.37-3.402-1.329-.34.289-.705.564-1.091.811-2.597 1.659-.6 3.732 1.198 3.732"/>
        <path fill="#59C09C" d="M307.2 97.626l-8.421 19.919c-.863 2.037-2.831 3.342-4.992 3.309l-23.228-.362-.812 3.967 26.885 8.785c4.328 1.414 8.993-.777 10.789-5.066l9.623-24.327-9.844-6.225z"/>
        <path fill="#00C9C3" d="M263 177h47v-21h-47z"/>
        <path fill="#00C9C3" d="M237 277h73V156h-73z"/>
        <g fill-rule="nonzero">
            <path fill="#FF9600" d="M108.475 236.525C104.027 242.842 97.743 246 89.62 246c-8.121 0-14.422-3.174-18.901-9.523C66.24 230.127 64 221.635 64 211s2.24-19.128 6.72-25.477C75.2 179.174 81.5 176 89.62 176c8.122 0 14.422 3.174 18.902 9.523 4.48 6.35 6.72 14.842 6.72 25.477s-2.257 19.144-6.768 25.525zm-32.346-4.21c3.357 4.935 8.004 7.403 13.942 7.403 5.938 0 10.569-2.468 13.893-7.404s4.985-11.89 4.985-20.865c0-8.975-1.661-15.93-4.985-20.866-3.324-4.936-7.955-7.404-13.893-7.404-5.938 0-10.57 2.468-13.893 7.404-3.324 4.936-4.986 11.891-4.986 20.866 0 8.974 1.646 15.93 4.937 20.865zm54.625 12.119c-1.046 1.044-2.32 1.566-3.825 1.566-1.503 0-2.778-.522-3.825-1.566-1.046-1.045-1.569-2.317-1.569-3.819 0-1.5.523-2.774 1.57-3.818 1.046-1.044 2.32-1.566 3.824-1.566s2.779.522 3.825 1.566c1.046 1.044 1.57 2.317 1.57 3.818 0 1.502-.524 2.774-1.57 3.819zm32.106-40.167c6.256 0 11.57 1.86 15.944 5.58 4.373 3.72 6.56 8.816 6.56 15.286 0 6.47-2.187 11.566-6.56 15.286-4.373 3.72-9.688 5.581-15.944 5.581-5.044 0-9.545-1.246-13.503-3.737-3.958-2.49-6.64-6.065-8.044-10.724l5.65-3.3c.958 3.623 2.857 6.39 5.698 8.298 2.84 1.909 6.24 2.863 10.199 2.863 4.596 0 8.379-1.245 11.347-3.736 2.969-2.491 4.453-6.001 4.453-10.53 0-4.53-1.484-8.04-4.453-10.531-2.968-2.491-6.75-3.737-11.347-3.737h-18.195l2.394-33.969h35.91v6.406h-29.973l-1.436 20.964h11.3zm72.372 32.258C230.785 242.842 224.5 246 216.38 246c-8.122 0-14.422-3.174-18.902-9.523-4.48-6.35-6.72-14.842-6.72-25.477s2.24-19.128 6.72-25.477c4.48-6.349 10.78-9.523 18.902-9.523 8.121 0 14.422 3.174 18.901 9.523 4.48 6.35 6.72 14.842 6.72 25.477s-2.256 19.144-6.768 25.525zm-32.345-4.21c3.356 4.935 8.003 7.403 13.941 7.403 5.938 0 10.57-2.468 13.893-7.404 3.324-4.936 4.986-11.89 4.986-20.865 0-8.975-1.662-15.93-4.986-20.866s-7.955-7.404-13.893-7.404c-5.938 0-10.569 2.468-13.893 7.404s-4.986 11.891-4.986 20.866c0 8.974 1.646 15.93 4.938 20.865zM266.926 193.96c-5.36 0-9.855-1.738-13.483-5.215-3.629-3.476-5.443-7.73-5.443-12.765s1.814-9.29 5.443-12.766c3.628-3.476 8.123-5.214 13.483-5.214 5.36 0 9.855 1.738 13.483 5.214 3.629 3.476 5.443 7.731 5.443 12.766 0 5.034-1.773 9.29-5.32 12.765-3.545 3.477-8.08 5.215-13.606 5.215zm-7.777-9.41c2.025 2.078 4.618 3.117 7.777 3.117 3.16 0 5.752-1.04 7.777-3.117 2.025-2.078 3.038-4.635 3.038-7.671 0-3.037-1.013-5.594-3.038-7.672-2.025-2.077-4.618-3.116-7.777-3.116-3.16 0-5.752 1.039-7.777 3.116-2.025 2.078-3.038 4.635-3.038 7.672 0 3.036 1.013 5.593 3.038 7.671zm-6.643 48.725l58.614-64.487 5.374 2.937-58.739 64.487-5.249-2.937zm63.051 8.57c-3.628 3.437-8.123 5.155-13.483 5.155-5.36 0-9.855-1.738-13.483-5.214-3.629-3.476-5.443-7.731-5.443-12.766 0-5.034 1.814-9.29 5.443-12.765 3.628-3.477 8.123-5.215 13.483-5.215 5.36 0 9.855 1.738 13.483 5.215 3.629 3.476 5.443 7.73 5.443 12.765s-1.814 9.31-5.443 12.826zm-22.556-3.875c2.363 2.424 5.387 3.636 9.073 3.636 3.686 0 6.71-1.212 9.073-3.636 2.363-2.424 3.544-5.407 3.544-8.95 0-3.543-1.181-6.526-3.544-8.95-2.363-2.424-5.387-3.636-9.073-3.636-3.686 0-6.71 1.212-9.073 3.636-2.363 2.424-3.544 5.407-3.544 8.95 0 3.543 1.181 6.526 3.544 8.95zM325 152.454v4.092l-6.691-.22 3.823 5.482-3.75 2.192-3.382-5.92-3.382 5.92-3.75-2.192 3.823-5.481-6.691.22v-4.093l6.691.22-3.823-5.482 3.75-2.192 3.382 5.92 3.382-5.92 3.75 2.192-3.823 5.481z"/>
            <path fill="#066360" d="M17.903 163.378l-2.047-4.851H5.823l-2.075 4.85H0l9.283-20.68h3.027l9.312 20.68h-3.72zm-10.84-7.756h7.553l-3.776-8.859-3.777 8.86zM37.506 142v21.378H33.96v-2.353a4.694 4.694 0 0 1-1.902 1.902c-.827.455-1.769.683-2.826.683-1.249 0-2.364-.32-3.344-.959s-1.744-1.544-2.292-2.715c-.547-1.172-.821-2.513-.821-4.023 0-1.51.269-2.837.807-3.98.538-1.142 1.297-2.028 2.277-2.657.98-.63 2.105-.944 3.373-.944 1.038 0 1.966.218 2.782.653a4.58 4.58 0 0 1 1.889 1.845V142h3.603zm-7.322 18.763c1.191 0 2.119-.416 2.782-1.248.663-.833.994-2.014.994-3.544 0-1.53-.326-2.711-.98-3.544-.653-.832-1.576-1.249-2.767-1.249-1.211 0-2.148.412-2.811 1.235-.663.823-.995 1.99-.995 3.5 0 1.53.332 2.72.995 3.572.663.852 1.59 1.278 2.782 1.278zm21.448-12.024h3.575l-6.371 14.639h-3.142l-6.285-14.64h3.777l4.18 10.515 4.266-10.514zm5.45 14.639V148.71h3.574v14.668H57.08zm-.232-21.32h4.008v3.573H56.85v-3.573zM69.94 163.61c-2.633 0-4.728-.62-6.285-1.859l1.01-2.556c1.556 1.162 3.334 1.743 5.332 1.743.865 0 1.533-.145 2.004-.436.47-.29.706-.697.706-1.22 0-.445-.163-.799-.49-1.06-.327-.261-.884-.489-1.672-.683l-2.421-.551c-2.653-.581-3.979-1.946-3.979-4.096 0-.89.25-1.68.75-2.367.5-.688 1.2-1.225 2.104-1.612.904-.387 1.95-.581 3.143-.581a9.44 9.44 0 0 1 2.998.48c.96.319 1.806.779 2.537 1.379l-1.067 2.469c-1.46-1.085-2.96-1.627-4.497-1.627-.827 0-1.47.155-1.932.465-.461.31-.692.736-.692 1.278 0 .426.14.765.418 1.017.279.251.755.464 1.427.639l2.48.551c1.441.33 2.493.838 3.156 1.525.663.688.995 1.583.995 2.687 0 1.355-.538 2.43-1.614 3.224-1.077.794-2.547 1.191-4.411 1.191zm15.711 0c-1.48 0-2.782-.31-3.906-.93a6.326 6.326 0 0 1-2.594-2.657c-.606-1.152-.909-2.503-.909-4.052 0-1.55.303-2.9.909-4.052a6.326 6.326 0 0 1 2.594-2.658c1.124-.62 2.427-.929 3.906-.929 1.461 0 2.749.31 3.864.93a6.349 6.349 0 0 1 2.58 2.657c.605 1.152.908 2.503.908 4.052 0 1.55-.303 2.9-.908 4.052a6.349 6.349 0 0 1-2.58 2.657c-1.115.62-2.403.93-3.864.93zm-.028-2.847c1.23 0 2.167-.401 2.81-1.205.644-.804.966-2 .966-3.587 0-1.569-.327-2.764-.98-3.587-.653-.823-1.576-1.235-2.768-1.235-1.21 0-2.142.412-2.796 1.235-.653.823-.98 2.018-.98 3.587 0 1.588.322 2.783.966 3.587.643.804 1.57 1.205 2.782 1.205zm18.335-12.402c.557 0 1.038.077 1.441.232l-.029 3.312a4.978 4.978 0 0 0-1.902-.378c-1.23 0-2.167.358-2.811 1.075-.644.716-.966 1.665-.966 2.846v7.93h-3.575v-10.515c0-1.549-.077-2.934-.23-4.153h3.373l.288 2.585c.365-.95.942-1.675 1.73-2.179.788-.503 1.681-.755 2.68-.755zm17.24.349l-6.775 15.655c-.77 1.82-1.75 3.147-2.94 3.98-1.193.832-2.663 1.384-4.412 1.655l-.807-2.788c1.365-.31 2.388-.702 3.07-1.177.683-.474 1.235-1.176 1.658-2.106l.461-1.074-6.054-14.145h3.777l4.18 10.543 4.267-10.543h3.574zm10.032 14.668v-20.68h13.405v2.99h-9.715v5.665h9.139v3.02h-9.14v9.005h-3.69zm28.973-7.146h-10.033c.077 1.569.466 2.726 1.168 3.471.701.746 1.744 1.119 3.128 1.119 1.595 0 3.075-.523 4.44-1.569l1.037 2.498c-.692.562-1.542 1.012-2.551 1.35a9.585 9.585 0 0 1-3.07.509c-2.383 0-4.257-.678-5.622-2.033-1.364-1.356-2.047-3.215-2.047-5.577 0-1.491.298-2.817.894-3.98.596-1.161 1.432-2.066 2.508-2.715s2.297-.973 3.661-.973c2 0 3.58.653 4.743 1.96 1.162 1.308 1.744 3.104 1.744 5.388v.552zm-6.4-5.286c-.961 0-1.744.286-2.35.857-.605.571-.994 1.399-1.167 2.483h6.774c-.115-1.103-.446-1.936-.994-2.498-.548-.561-1.302-.842-2.263-.842zM176 156.232h-10.032c.076 1.569.466 2.726 1.167 3.471.702.746 1.744 1.119 3.128 1.119 1.595 0 3.075-.523 4.44-1.569l1.038 2.498c-.692.562-1.543 1.012-2.552 1.35a9.585 9.585 0 0 1-3.07.509c-2.383 0-4.257-.678-5.622-2.033-1.364-1.356-2.047-3.215-2.047-5.577 0-1.491.298-2.817.894-3.98.596-1.161 1.432-2.066 2.508-2.715 1.077-.649 2.297-.973 3.662-.973 1.998 0 3.58.653 4.742 1.96 1.163 1.308 1.744 3.104 1.744 5.388v.552zm-6.4-5.286c-.961 0-1.744.286-2.35.857-.605.571-.994 1.399-1.167 2.483h6.775c-.116-1.103-.447-1.936-.995-2.498-.548-.561-1.302-.842-2.263-.842z"/>
        </g>
        <path fill="#8A9BA9" fill-rule="nonzero" d="M131.104 305.688c-.523-1.077-.901-2.096-1.136-3.056a12.353 12.353 0 0 1-.352-2.944c0-.384.016-.773.048-1.168.096-1.237.344-2.432.744-3.584.4-1.152 1-2.336 1.8-3.552h1.648c-.704 1.419-1.213 2.677-1.528 3.776a16.691 16.691 0 0 0-.6 3.36c-.043.64-.064 1.11-.064 1.408 0 .864.077 1.755.232 2.672.155.917.413 1.947.776 3.088h-1.568zm11.344-10.992l-.64 8.08h-1.936l.096-1.152c-.277.405-.643.72-1.096.944a3.366 3.366 0 0 1-1.512.336c-.885 0-1.56-.243-2.024-.728-.464-.485-.696-1.192-.696-2.12 0-.213.005-.379.016-.496l.384-4.864h2l-.384 4.736-.016.304c0 1.056.485 1.584 1.456 1.584.576 0 1.037-.19 1.384-.568.347-.379.547-.899.6-1.56l.368-4.496h2zm4.608 8.208c-1.312 0-2.49-.341-3.536-1.024l.688-1.392c.907.63 1.872.944 2.896.944 1.035 0 1.552-.299 1.552-.896 0-.277-.136-.488-.408-.632-.272-.144-.707-.307-1.304-.488-.565-.16-1.035-.32-1.408-.48a2.576 2.576 0 0 1-.952-.696c-.261-.304-.392-.701-.392-1.192 0-.768.31-1.387.928-1.856.619-.47 1.44-.704 2.464-.704.597 0 1.173.09 1.728.272.555.181 1.019.432 1.392.752l-.672 1.36c-.8-.608-1.627-.912-2.48-.912-.501 0-.885.08-1.152.24a.772.772 0 0 0-.4.704c0 .288.136.504.408.648.272.144.712.307 1.32.488.587.17 1.061.333 1.424.488.363.155.675.387.936.696.261.31.392.71.392 1.2 0 .779-.31 1.387-.928 1.824-.619.437-1.45.656-2.496.656zM160 294.696l-.64 8.08h-1.936l.096-1.152c-.277.405-.643.72-1.096.944a3.366 3.366 0 0 1-1.512.336c-.885 0-1.56-.243-2.024-.728-.464-.485-.696-1.192-.696-2.12 0-.213.005-.379.016-.496l.384-4.864h2l-.384 4.736-.016.304c0 1.056.485 1.584 1.456 1.584.576 0 1.037-.19 1.384-.568.347-.379.547-.899.6-1.56l.368-4.496h2zm9.904 0l-.64 8.08h-1.968l.096-1.12a2.827 2.827 0 0 1-1.08.92 3.224 3.224 0 0 1-1.448.328c-.683 0-1.283-.157-1.8-.472-.517-.315-.92-.768-1.208-1.36-.288-.592-.432-1.283-.432-2.072 0-.885.16-1.67.48-2.352.32-.683.768-1.213 1.344-1.592.576-.379 1.243-.568 2-.568.597 0 1.117.123 1.56.368.443.245.787.592 1.032 1.04l.096-1.2h1.968zm-4.416 6.656c.661 0 1.184-.256 1.568-.768.384-.512.576-1.205.576-2.08 0-.8-.176-1.41-.528-1.832-.352-.421-.853-.632-1.504-.632-.683 0-1.216.256-1.6.768-.384.512-.576 1.216-.576 2.112 0 .779.179 1.379.536 1.8.357.421.867.632 1.528.632zm5.952 1.424l.944-11.776h2l-.944 11.776h-2zm12.496.128c-1.29 0-2.272-.43-2.944-1.288-.672-.859-1.008-2.11-1.008-3.752 0-1.387.173-2.573.52-3.56.347-.987.85-1.741 1.512-2.264.661-.523 1.456-.784 2.384-.784 1.29 0 2.275.43 2.952 1.288.677.859 1.016 2.11 1.016 3.752 0 1.387-.173 2.573-.52 3.56-.347.987-.853 1.741-1.52 2.264-.667.523-1.464.784-2.392.784zm.048-1.616c.768 0 1.352-.448 1.752-1.344.4-.896.6-2.208.6-3.936 0-1.077-.16-1.87-.48-2.376-.32-.507-.816-.76-1.488-.76-.768 0-1.352.45-1.752 1.352-.4.901-.6 2.21-.6 3.928 0 1.077.16 1.87.48 2.376.32.507.816.76 1.488.76zm5.6-.752h2.24l-.176 2.24h-2.24l.176-2.24zm8.8-5.04c.672 0 1.267.147 1.784.44a3.1 3.1 0 0 1 1.208 1.224c.288.523.432 1.125.432 1.808 0 .757-.165 1.435-.496 2.032a3.637 3.637 0 0 1-1.376 1.408c-.587.341-1.253.512-2 .512-1.387 0-2.453-.435-3.2-1.304-.747-.87-1.12-2.104-1.12-3.704 0-1.344.203-2.52.608-3.528.405-1.008.979-1.784 1.72-2.328.741-.544 1.613-.816 2.616-.816.683 0 1.352.115 2.008.344.656.23 1.245.557 1.768.984l-.816 1.504a5.695 5.695 0 0 0-1.448-.88 3.78 3.78 0 0 0-1.432-.304c-.853 0-1.53.35-2.032 1.048-.501.699-.805 1.715-.912 3.048a2.907 2.907 0 0 1 1.112-1.088c.475-.267 1-.4 1.576-.4zm-.512 5.792c.587 0 1.061-.205 1.424-.616.363-.41.544-.947.544-1.608 0-.597-.176-1.072-.528-1.424-.352-.352-.821-.528-1.408-.528-.597 0-1.088.203-1.472.608-.384.405-.576.928-.576 1.568 0 .597.187 1.08.56 1.448.373.368.859.552 1.456.552zM208 295.496c.672 0 1.27.139 1.792.416.523.277.928.67 1.216 1.176.288.507.432 1.09.432 1.752 0 .821-.176 1.539-.528 2.152a3.563 3.563 0 0 1-1.488 1.416c-.64.33-1.387.496-2.24.496a6.788 6.788 0 0 1-2.176-.344 5.507 5.507 0 0 1-1.792-.984l.816-1.504c.96.79 2.005 1.184 3.136 1.184.715 0 1.277-.197 1.688-.592.41-.395.616-.933.616-1.616 0-.597-.184-1.07-.552-1.416-.368-.347-.872-.52-1.512-.52a3.28 3.28 0 0 0-1.28.248 2.836 2.836 0 0 0-1.024.728h-1.248l.528-6.704h7.136l-.128 1.6h-5.104l-.256 3.04c.576-.352 1.232-.528 1.968-.528zm7.888 2.672c-.907 0-1.603-.272-2.088-.816-.485-.544-.728-1.317-.728-2.32 0-1.184.261-2.117.784-2.8.523-.683 1.248-1.024 2.176-1.024.907 0 1.603.272 2.088.816.485.544.728 1.323.728 2.336 0 1.205-.259 2.141-.776 2.808-.517.667-1.245 1-2.184 1zm1.072 4.608h-1.76l7.488-11.392h1.76l-7.488 11.392zm-1.088-5.904c.437 0 .763-.232.976-.696.213-.464.32-1.133.32-2.008 0-.565-.09-.984-.272-1.256-.181-.272-.47-.408-.864-.408-.853 0-1.28.907-1.28 2.72 0 .565.09.981.272 1.248.181.267.464.4.848.4zm7.744 6.016c-.907 0-1.603-.272-2.088-.816-.485-.544-.728-1.317-.728-2.32 0-1.195.261-2.13.784-2.808.523-.677 1.248-1.016 2.176-1.016.907 0 1.603.27 2.088.808.485.539.728 1.315.728 2.328 0 1.205-.259 2.144-.776 2.816-.517.672-1.245 1.008-2.184 1.008zm0-1.296c.427 0 .747-.232.96-.696.213-.464.32-1.133.32-2.008 0-.565-.09-.984-.272-1.256-.181-.272-.47-.408-.864-.408-.843 0-1.264.907-1.264 2.72 0 .565.088.981.264 1.248.176.267.461.4.856.4zm13.936-7.104c.672 0 1.27.157 1.792.472.523.315.928.768 1.216 1.36.288.592.432 1.283.432 2.072 0 .885-.16 1.67-.48 2.352-.32.683-.77 1.213-1.352 1.592-.581.379-1.25.568-2.008.568-.587 0-1.099-.12-1.536-.36a2.68 2.68 0 0 1-1.04-1.016l-.384 4.704h-1.984l.736-9.248c.043-.437.064-.944.064-1.52 0-.341-.005-.597-.016-.768h1.872l.032 1.232a2.73 2.73 0 0 1 1.088-1.056 3.22 3.22 0 0 1 1.568-.384zm-.736 6.864c.683 0 1.213-.253 1.592-.76s.568-1.208.568-2.104c0-.79-.179-1.395-.536-1.816-.357-.421-.861-.632-1.512-.632-.672 0-1.2.259-1.584.776-.384.517-.576 1.213-.576 2.088 0 .8.176 1.408.528 1.824.352.416.859.624 1.52.624zm7.392-2.512v.096c0 .79.192 1.392.576 1.808.384.416.944.624 1.68.624.928 0 1.76-.283 2.496-.848l.448 1.36c-.341.32-.79.57-1.344.752a5.475 5.475 0 0 1-1.712.272c-.821 0-1.541-.163-2.16-.488a3.395 3.395 0 0 1-1.424-1.384c-.33-.597-.496-1.29-.496-2.08 0-.864.173-1.635.52-2.312a3.91 3.91 0 0 1 1.44-1.584c.613-.379 1.31-.568 2.088-.568 1.077 0 1.928.312 2.552.936.624.624.936 1.501.936 2.632 0 .245-.016.507-.048.784h-5.552zm2.208-2.928c-1.141 0-1.84.619-2.096 1.856h3.808c.01-.587-.139-1.043-.448-1.368-.31-.325-.73-.488-1.264-.488zm9.744-1.408c.32 0 .592.043.816.128l-.16 1.808a2.622 2.622 0 0 0-1.04-.192c-.693 0-1.232.195-1.616.584-.384.39-.597.915-.64 1.576l-.352 4.368h-2l.464-5.792c.043-.725.064-1.275.064-1.648 0-.288-.005-.501-.016-.64h1.872l.032 1.232a2.483 2.483 0 0 1 1.048-1.048c.464-.25.973-.376 1.528-.376zm14.032.192l-.64 8.08h-1.968l.096-1.12a2.827 2.827 0 0 1-1.08.92 3.224 3.224 0 0 1-1.448.328c-.683 0-1.283-.157-1.8-.472-.517-.315-.92-.768-1.208-1.36-.288-.592-.432-1.283-.432-2.072 0-.885.16-1.67.48-2.352.32-.683.768-1.213 1.344-1.592.576-.379 1.243-.568 2-.568.597 0 1.117.123 1.56.368.443.245.787.592 1.032 1.04l.096-1.2h1.968zm-4.416 6.656c.661 0 1.184-.256 1.568-.768.384-.512.576-1.205.576-2.08 0-.8-.176-1.41-.528-1.832-.352-.421-.853-.632-1.504-.632-.683 0-1.216.256-1.6.768-.384.512-.576 1.216-.576 2.112 0 .779.179 1.379.536 1.8.357.421.867.632 1.528.632zm11.12-6.864c.907 0 1.592.248 2.056.744.464.496.696 1.219.696 2.168 0 .203-.005.357-.016.464l-.4 4.912h-1.984l.384-4.816c.01-.075.016-.181.016-.32 0-.512-.125-.901-.376-1.168-.25-.267-.621-.4-1.112-.4-.619 0-1.104.19-1.456.568-.352.379-.555.899-.608 1.56l-.368 4.576h-2l.464-5.792c.043-.437.064-.944.064-1.52 0-.341-.005-.597-.016-.768h1.872l.032 1.2a2.828 2.828 0 0 1 1.128-1.04c.475-.245 1.016-.368 1.624-.368zm9.648 0c.907 0 1.592.248 2.056.744.464.496.696 1.219.696 2.168 0 .203-.005.357-.016.464l-.4 4.912h-1.984l.384-4.816c.01-.075.016-.181.016-.32 0-.512-.125-.901-.376-1.168-.25-.267-.621-.4-1.112-.4-.619 0-1.104.19-1.456.568-.352.379-.555.899-.608 1.56l-.368 4.576h-2l.464-5.792c.043-.437.064-.944.064-1.52 0-.341-.005-.597-.016-.768h1.872l.032 1.2a2.828 2.828 0 0 1 1.128-1.04c.475-.245 1.016-.368 1.624-.368zm12.48.208l-.64 8.08h-1.936l.096-1.152c-.277.405-.643.72-1.096.944a3.366 3.366 0 0 1-1.512.336c-.885 0-1.56-.243-2.024-.728-.464-.485-.696-1.192-.696-2.12 0-.213.005-.379.016-.496l.384-4.864h2l-.384 4.736-.016.304c0 1.056.485 1.584 1.456 1.584.576 0 1.037-.19 1.384-.568.347-.379.547-.899.6-1.56l.368-4.496h2zm11.616-.208c.853 0 1.499.245 1.936.736.437.49.656 1.205.656 2.144 0 .213-.005.373-.016.48l-.384 4.928h-2l.384-4.864c.01-.085.016-.208.016-.368 0-.501-.107-.872-.32-1.112-.213-.24-.539-.36-.976-.36-.555 0-.995.187-1.32.56-.325.373-.515.928-.568 1.664l-.352 4.48h-2l.384-4.832c.01-.085.016-.203.016-.352 0-.512-.107-.893-.32-1.144-.213-.25-.539-.376-.976-.376-.565 0-1.008.187-1.328.56-.32.373-.507.928-.56 1.664l-.352 4.48h-2l.464-5.792c.043-.725.064-1.275.064-1.648 0-.288-.005-.501-.016-.64h1.872l.032 1.152c.587-.907 1.445-1.36 2.576-1.36.597 0 1.096.123 1.496.368.4.245.685.603.856 1.072a3.085 3.085 0 0 1 1.16-1.064c.475-.25 1-.376 1.576-.376zm3.424 11.2c.704-1.43 1.21-2.693 1.52-3.792.31-1.099.512-2.224.608-3.376.032-.47.048-.933.048-1.392 0-.875-.077-1.77-.232-2.688-.155-.917-.419-1.936-.792-3.056h1.6c.523 1.024.901 2.024 1.136 3 .235.976.352 1.97.352 2.984 0 .384-.016.768-.048 1.152a13.803 13.803 0 0 1-.744 3.552c-.4 1.13-1.005 2.336-1.816 3.616h-1.632z"/>
        <text fill="#FF9600" font-family="Muli-Bold, Muli" font-size="30" font-weight="bold" letter-spacing="-.281">
            <tspan x="169.911" y="272">per annum</tspan>
        </text>
    </g>
</svg>
