<?xml version="1.0" encoding="UTF-8"?>
<svg version="1.1" viewBox="0 0 200 315" xmlns="http://www.w3.org/2000/svg" xmlns:xlink="http://www.w3.org/1999/xlink" width="200px" height="315px">
<title>2D4CA075-A618-4F75-8298-2C4E82DBA202</title>
<desc>Created with sketchtool.</desc>
<defs>
<polygon id="b" points="29.485 95.274 49.311 95.274 49.311 110.46 29.485 110.46"/>
<polygon id="a" points="29.485 44.874 49.311 44.874 49.311 60.062 29.485 60.062"/>
</defs>
<g fill="none" fill-rule="evenodd">
<rect x=".49219" y=".45938" width="8.2031" height="203.44" fill="#005150"/>
<path d="m40.688 137.86c-9.0608 0-16.406 7.3454-16.406 16.406s7.3454 16.406 16.406 16.406c9.0608 0 16.406-7.3454 16.406-16.406s-7.3454-16.406-16.406-16.406z" fill="#98D5D4"/>
<path d="m40.688 87.002c-9.0608 0-16.406 7.3454-16.406 16.406 0 9.0608 7.3454 16.406 16.406 16.406 9.0608 0 16.406-7.3454 16.406-16.406 0-9.0608-7.3454-16.406-16.406-16.406z" fill="#FF9445"/>
<path d="m40.688 36.963c-9.0608 0-16.406 7.3454-16.406 16.406 0 9.0608 7.3454 16.406 16.406 16.406 9.0608 0 16.406-7.3454 16.406-16.406 0-9.0608-7.3454-16.406-16.406-16.406z" fill="#FF9445"/>
<path d="m196.27 141.14h-122.82c-1.7847 0-3.232 0.82651-3.232 1.8457v3.6914c0 1.0192 1.4473 1.8457 3.232 1.8457h122.82c1.7847 0 3.232-0.82651 3.232-1.8457v-3.6914c0-1.0192-1.4473-1.8457-3.232-1.8457zm-48.915 15.586h-75.157c-1.0924 0-1.9778 0.82651-1.9778 1.8457v3.6914c0 1.0192 0.8854 1.8457 1.9778 1.8457h75.157c1.0924 0 1.9778-0.82651 1.9778-1.8457v-3.6914c0-1.0192-0.8854-1.8457-1.9778-1.8457zm48.915-64.805h-122.82c-1.7847 0-3.232 0.82651-3.232 1.8457v3.6914c0 1.0192 1.4473 1.8457 3.232 1.8457h122.82c1.7847 0 3.232-0.82651 3.232-1.8457v-3.6914c0-1.0192-1.4473-1.8457-3.232-1.8457zm-124.07 22.148h75.157c1.0924 0 1.9778-0.82651 1.9778-1.8457v-3.6914c0-1.0192-0.8854-1.8457-1.9778-1.8457h-75.157c-1.0924 0-1.9778 0.82651-1.9778 1.8457v3.6914c0 1.0192 0.8854 1.8457 1.9778 1.8457zm124.07-72.187h-122.82c-1.7847 0-3.232 0.82651-3.232 1.8457v3.6914c0 1.0192 1.4473 1.8457 3.232 1.8457h122.82c1.7847 0 3.232-0.82651 3.232-1.8457v-3.6914c0-1.0192-1.4473-1.8457-3.232-1.8457zm-126.05 21.123v-3.6914c0-1.0192 0.8854-1.8457 1.9778-1.8457h75.157c1.0924 0 1.9778 0.82651 1.9778 1.8457v3.6914c0 1.0192-0.8854 1.8457-1.9778 1.8457h-75.157c-1.0924 0-1.9778-0.82651-1.9778-1.8457z" fill="#007F7E" fill-opacity=".24836"/>
<mask id="d" fill="white">
<use xlink:href="#b"/>
</mask>
<polygon points="35.736 107.29 30.985 102.53 29.4 104.11 35.736 110.46 49.311 96.862 47.731 95.274" fill="#fff" mask="url(#d)"/>
<mask id="c" fill="white">
<use xlink:href="#a"/>
</mask>
<polygon points="35.736 56.889 30.985 52.13 29.4 53.713 35.736 60.062 49.311 46.462 47.731 44.874" fill="#fff" mask="url(#c)"/>
<g transform="translate(60.9 93.45)">
<path d="m4.3853 184.07 3.8311 10.418c0.31772 1.4565 0.37252 3.2017-1.0917 4.0638 0 0-0.9661 0.58046-2.0079 0.94822-0.6964-0.15192-5.1168-14.221-5.1168-14.221l0.042486-0.086087c1.7536-2.349 4.3428-1.1236 4.3428-1.1236" fill="#006769"/>
<path d="m9.9069 181.65-4.5765 2.3867c-0.26269 1.0171 0.13068 2.0845 1.0096 2.7435l0.15921 0.11976 5.0508-1.2019-1.6431-4.0481z" fill="#FAB08A"/>
<path d="m44.345 114.45s-4.3335 4.765-5.4505 13.147c-0.74316 5.5789 1.3032 14.419 1.5262 21.356 0.20464 6.3423-2.6001 11.382-7.5272 15.258l-23.443 17.378 1.5687 4.2608s32.088-4.9092 40.512-19.573c8.4225-14.664 10.419-47.858 10.419-47.858l-17.605-3.9699z" fill="#1C2C57"/>
<path d="m25.452 96.6-12.11 27.141s-4.9771 0.58245-7.1329 2.4971c-1.1282 1.0014-1.0766 3.001-0.7712 4.6858 0.23098 1.2741 1.7587 1.8157 2.7342 0.96628 1.3305-1.1604 3.0479-2.4658 4.1741-2.6549 2.9874-0.49942 3.8808-2.6229 3.8808-2.6229l17.373-27.348-8.1478-2.6638z" fill="#FAB08A"/>
<path d="m86.885 41.291 6.2608-5.3065-4.8548-26.216-7.532-3.8166s0.82048-1.4428 2.6791-0.82926c1.8567 0.61542 3.4315 0.24884 3.4315 0.24884s1.4092-1.7273-1.2622-2.8983c-1.501-1.0005-2.5045-0.004455-6.8579-0.17183 0-0.66379 5.7363-2.2383 5.7363-2.2383 1.788-0.5696 6.3526 2.9358 6.3526 2.9358 0.30624 0.41368 0.5059 0.89799 0.58037 1.4065l0.7229 4.8655s9.7078 26.385 9.7078 29.203-5.4404 6.6767-5.4404 6.6767l-9.5242-3.8593z" fill="#FAB08A"/>
<path d="m53.67 117.16s-3.75 4.546-1.5016 15.118c1.4364 6.747 7.7454 15.239 11.981 21.087 3.0372 4.1914 3.1017 9.4653 2.1882 14.573-3.468 19.413 2.0815 43.113 2.0815 43.113h4.5005s6.7513-34.73 8.7503-59.143c1.8047-22.011-7.5523-38.221-7.7492-38.507l-20.25 3.7596z" fill="#004060"/>
<polygon points="94.5 3.3532 93.876 7.35 92.4 7.1475 93.026 3.15" fill="#F68B27"/>
<path d="m93.45 7.2951c0.98485 0.15918 1.8146 0.082747 2.0512-1.7699 0.25731-2.0231-0.54018-2.2019-1.5232-2.3751l-0.52801 4.1451z" fill="#F68B27"/>
<polygon points="78.227 5.25 75.6 3.3956 75.791 1.8664 78.75 1.05" fill="#fff"/>
<polygon points="75.45 3.15 74.55 2.4857 75.6 2.1" fill="#004060"/>
<polygon points="79.297 1.05 79.153 2.1141 79.097 2.5234 79.098 2.5234 78.952 3.6041 78.833 4.4775 78.75 5.1004 92.901 7.35 93.45 3.2982" fill="#F68B27"/>
<path d="m42.691 63.941c-8.0322 5.9093-17.491 34.314-17.491 34.314l7.0549 3.9619 11.478-15.77s1.1216 18.257-1.6262 32.264c1.2487 5.2525 7.2063 4.6609 16.867 2.8274 9.6565-1.8348 15.986-6.0033 15.986-6.0033s0.41646-25.333 1.6652-38.764c1.2494-13.435-1.2168-14.869 2.1634-14.425 7.5474-4.2906 19.913-18.108 19.913-18.108l-11.486-2.2371-24.731 14.509s-12.091 3.1919-19.792 7.432" fill="#006769"/>
<path d="m56.7 30.45 6.2348 5.9739c2.6485 2.5369 3.7652 6.2147 2.9569 9.7385l-0.73088 3.1877-8.4608-18.9z" fill="#FAB08A"/>
<path d="m49.504 28.35c-14.452 0-8.3044 28.046-8.3044 28.046s2.5734 18.193 8.3044 25.499c4.9595 6.3221 14.773 4.4213 19.423 1.3849 2.2714-1.4821 4.8193-2.4715 7.5036-2.8007 3.9369-0.47794 8.6198-2.2358 8.6198-9.4165 0-6.7601-7.9801-11.987-13.235-15.721-3.4233-2.4329-5.8107-6.0715-6.8091-10.18-1.682-6.9218-5.7833-16.812-15.503-16.812" fill="#1C2C57"/>
<path d="m69.348 216.32 11.095-0.015958c1.4715 0.21477 3.1189 0.80522 3.3938 2.6032 0 0 0.19356 1.1935 0.15951 2.3804-0.39278 0.64697-15.102-0.087769-15.102-0.087769l-0.063678-0.073142c-1.5585-2.6404 0.51762-4.8067 0.51762-4.8067" fill="#006769"/>
<polygon points="83.976 220.61 68.25 220.5 68.387 221.55 84 221.55" fill="#004060"/>
<path d="m68.25 211.05 0.72128 4.7857c0.84358 0.58537 1.9377 0.6184 2.8141 0.092363l0.15869-0.097256 0.50591-4.7808h-4.2z" fill="#FAB08A"/>
<path d="m83.486 5.3859c-1.8288-0.54874-2.6362 0.74172-2.6362 0.74172l4.9318 2.2724c0.068226-0.026754 0.13456-0.056355 0.20278-0.083109 0.8105-0.29657 2.494-0.95233 3.2654-1.0702-0.46811-0.42124-4.8504-1.5865-5.7638-1.8608" fill="#FAB08A"/>
</g>
</g>
</svg>
