<svg xmlns="http://www.w3.org/2000/svg" xmlns:xlink="http://www.w3.org/1999/xlink" width="335" height="315" viewBox="0 0 335 315">
    <defs>
        <path id="a" d="M.405.032h133.139v160.901H.405z"/>
        <path id="c" d="M.64.032h101.3v160.901H.64z"/>
        <path id="e" d="M.386.5h147.896v188.432H.386z"/>
        <path id="g" d="M.105.5h126.459v188.432H.105z"/>
        <path id="i" d="M96.342 62.944l17.446 26.691-32.938-1.637C72.285 95.48 61.16 100 49 100 21.938 100 0 77.614 0 50 0 22.385 21.938 0 49 0s49 22.385 49 50c0 4.476-.577 8.815-1.658 12.944z"/>
        <path id="k" d="M7.819 32.201c1.975 0 22.13-10.283 31.868-14.17 10.391-2.224 13.576-2.944 21.807-7.258 13.693-1.95 21.521-2.588 22.87-4.224 1.548-1.51.624-2.181-.11-2.405-.489-.149-3.905-.088-10.25.183L30.472.062 0 14.596c2.09 5.666 3.697 9.957 4.821 12.872C6.507 31.84 7.208 32.2 7.819 32.2z"/>
    </defs>
    <g fill="none" fill-rule="evenodd">
        <g opacity=".107">
            <g transform="translate(109.965 153)">
                <mask id="b" fill="#fff">
                    <use xlink:href="#a"/>
                </mask>
                <path fill="#59C09C" d="M.405 146.295S16.95 29.007 94.815.032c76.025 65.007 16.675 161.124 16.675 161.124L27.6 221.5.405 146.295z" mask="url(#b)"/>
            </g>
            <g transform="translate(136.965 153)">
                <mask id="d" fill="#fff">
                    <use xlink:href="#c"/>
                </mask>
                <path fill="#006769" d="M2 63.774l33.302 40.337L66.462.753c.604-.241 1.203-.491 1.815-.721.298.256.574.516.868.772l-16.69 55.358 43.977-20.174c.2.417.386.835.58 1.252l.502 1.115-46.06 21.129-27.812 92.253 78.298-32.92c-.278 1.072-.56 2.138-.852 3.182l-78.421 32.973-19.75 65.506-1.408 1.02-.87-2.42 33.763-111.986L.686 66.255c.433-.828.87-1.655 1.314-2.48" mask="url(#d)"/>
            </g>
            <g transform="translate(37.965 125)">
                <mask id="f" fill="#fff">
                    <use xlink:href="#e"/>
                </mask>
                <path fill="#004966" d="M33.906 197.7S-35.247 80.092 25.102.5c164.32 48.188 116.799 210.732 116.799 210.732L33.906 197.7z" mask="url(#f)"/>
            </g>
            <g transform="translate(38.965 125)">
                <mask id="h" fill="#fff">
                    <use xlink:href="#g"/>
                </mask>
                <path fill="#59C09C" d="M24.288.5c.573.169 1.134.341 1.705.512l44.661 154.67 54.195-84.44c.585.954 1.155 1.908 1.715 2.868l-54.806 85.391 12.886 44.632-3.229-.402-25.69-88.973v.002L.405 97.17c-.11-1.078-.21-2.158-.3-3.243l54.62 17.367L23.173 2.025c.373-.507.729-1.02 1.114-1.525" mask="url(#h)"/>
            </g>
        </g>
        <g transform="translate(128 14)">
            <mask id="j" fill="#fff">
                <use xlink:href="#i"/>
            </mask>
            <use fill="#B2E7D6" fill-rule="nonzero" xlink:href="#i"/>
            <g mask="url(#j)">
                <path fill="#F0A57E" d="M32.369 45.85l6.787 2.154-3.393 16.8c-10.425.673-15.638.673-15.638 0 0-.672 1.836-5.886 5.507-15.64l6.737-3.314z"/>
                <path fill="#FFDBC8" d="M39.037 39.8v1.121c.632.265 1.561.313 2.374.358.542.03 1.4-.089 2.576-.358l-4.95-1.121z"/>
                <g transform="translate(-19.053 59.664)">
                    <mask id="l" fill="#fff">
                        <use xlink:href="#k"/>
                    </mask>
                    <use fill="#FEC3A4" xlink:href="#k"/>
                    <path fill="#F0A57E" d="M7.819 32.511s5.392-1.802 11.694-4.662c6.942-3.15 15.07-7.47 20.174-9.508 10.391-2.225 13.576-2.944 21.807-7.258 13.693-1.95 21.521-2.588 22.87-4.224 1.548-1.51.624-2.181-.11-2.405-.489-.149-3.905-.088-10.25.183-3.638-.122-9-.647-16.083-1.576-3.02 3.798-5.843 8.022-18.742 11.534-14.453 6.753-17.18 8.586-32.535 14.76-2.237 1.278 1.175 3.156 1.175 3.156z" mask="url(#l)"/>
                </g>
                <path fill="#FAB08A" d="M56.446 68.828c5.081-.735 8.077-1.35 8.864-2.305 1.548-1.51.625-2.18-.11-2.405-.417-.127-2.97-.101-7.66.078-.801.03-1.986 3.282-1.094 4.632zM58.049 55.817c2.314-1.203 7.299-7.913 8.022-8.914.513-1.117.604-2.242.513-2.89-.09-.647-.513-.647-1.021-.744-1.311.208-2.393.69-3.246 1.445-3.517 7.01-4.94 10.71-4.268 11.103z"/>
                <path fill="#F0A57E" d="M58.049 55.817c1.104-.574 2.816-2.401 4.383-4.264-1.61-2.493 1.352-7.041 2.132-8.06-.581.173-2.158.697-4.729 1.571-1.863 6.777-2.458 10.36-1.786 10.753z"/>
                <path fill="#FAB08A" d="M60.136 44.012c0 .337 2.743-1.742 3.979-3.184 1.172-1.369 2.394-3.451 2.394-4.294 0-.842-.681-1.219-1.337-1.219-.573 0-2.492.706-5.759 2.116-.28 4.388-.04 6.581.723 6.581z"/>
                <path fill="#F0A57E" d="M60.136 44.012c0 .256 1.58-.88 2.882-2.073-.247-2.626.097-5.526.097-6.004-.389.083-1.623.582-3.702 1.496-.15 2.288-.187 3.77-.113 4.445.196 1.787.836 2.173.836 2.136z"/>
                <path fill="#FAB08A" d="M54.438 25.594c1.383-1.125 2.412-1.688 3.087-1.688 1.012 0 1.669.299 2.164 1.092.33.528.263 1.355-.201 2.48l-5.05-1.884z"/>
                <path fill="#F0A57E" d="M54.438 25.594c.574-.448.986-.754 1.236-.919 1.13.403 3.025 1.099 4.161 1.704-.043.219-.159.585-.347 1.1l-5.05-1.885z"/>
                <g>
                    <g transform="translate(28.465 16.052)">
                        <path fill="#C5C6C7" d="M3.27 0h38.46C43.536 0 45 1.433 45 3.2v59.6c0 1.767-1.464 3.2-3.27 3.2H3.27C1.464 66 0 64.567 0 62.8V3.2C0 1.434 1.464 0 3.27 0z"/>
                        <path fill="#F5F6F8" d="M3.426.457h38.148c1.634 0 2.959 1.297 2.959 2.896v59.294c0 1.6-1.325 2.896-2.959 2.896H3.426c-1.634 0-2.959-1.297-2.959-2.896V3.353c0-1.6 1.325-2.896 2.959-2.896z"/>
                        <path fill="#4A4A4A" fill-rule="nonzero" d="M2.958 7.316a.154.154 0 0 0-.155.153v51.52c0 .084.07.152.155.152h39.24a.154.154 0 0 0 .155-.153V7.468a.154.154 0 0 0-.156-.152H2.958zm0-.152h39.24c.171 0 .31.136.31.305v51.52c0 .168-.139.304-.31.304H2.957a.308.308 0 0 1-.31-.305V7.468c0-.168.138-.304.31-.304z"/>
                        <ellipse cx="22.578" cy="3.811" fill="#111316" rx="1" ry="1"/>
                        <path fill-rule="nonzero" d="M22.656 64.552c-.946 0-1.713-.75-1.713-1.677 0-.926.767-1.676 1.713-1.676.946 0 1.713.75 1.713 1.676 0 .926-.767 1.677-1.713 1.677zm0-.152c.86 0 1.557-.683 1.557-1.525 0-.842-.697-1.524-1.557-1.524s-1.557.682-1.557 1.524.697 1.525 1.557 1.525z"/>
                    </g>
                </g>
                <g fill-rule="nonzero">
                    <path fill="#066360" d="M43.997 29.47h1.532l-.148 1.92a2.64 2.64 0 0 1-.667.218c-.259.053-.523.08-.791.08-.397 0-.74-.077-1.027-.229a1.533 1.533 0 0 1-.656-.652c-.15-.283-.224-.618-.224-1.005 0-.45.085-.842.256-1.175.17-.334.413-.591.729-.771.316-.18.685-.27 1.11-.27.597 0 1.077.157 1.44.472l-.29.53a1.892 1.892 0 0 0-.535-.324 1.661 1.661 0 0 0-.61-.093c-.432.004-.765.149-1.002.436-.236.287-.354.682-.354 1.184 0 .428.104.755.312.982.208.227.518.34.93.34.257 0 .507-.039.75-.118l.073-1.001h-.868l.04-.524zm3.845-.742c.113 0 .21.015.289.045l-.057.636a.937.937 0 0 0-.369-.068c-.245 0-.436.069-.573.205-.136.137-.212.322-.227.555l-.124 1.536h-.71l.165-2.037c.015-.255.022-.448.022-.58a3.21 3.21 0 0 0-.005-.225h.664l.011.434a.877.877 0 0 1 .372-.369 1.13 1.13 0 0 1 .542-.132zm1.734 2.954a1.6 1.6 0 0 1-.76-.172 1.207 1.207 0 0 1-.5-.487 1.487 1.487 0 0 1-.176-.737c0-.315.062-.59.185-.827.123-.236.296-.418.519-.546a1.54 1.54 0 0 1 .777-.19c.288 0 .54.057.755.174.216.116.381.279.496.49.116.21.173.453.173.73 0 .32-.06.597-.181.833a1.278 1.278 0 0 1-.514.543c-.22.126-.48.189-.774.189zm0-.546c.25 0 .44-.095.57-.284.13-.19.196-.442.196-.757 0-.266-.062-.47-.185-.613-.122-.143-.3-.214-.53-.214-.254 0-.446.095-.579.284-.132.19-.198.44-.198.751 0 .555.242.833.726.833zm5.944-2.34h.71l-1.35 2.84h-.62l-.567-1.856-.84 1.857h-.618l-.897-2.842h.71l.584 1.998.891-1.998h.516l.585 2.015.896-2.015zm1.945 1.8c-.027.334.115.5.425.5.087 0 .186-.013.295-.039l-.045.551c-.125.046-.28.068-.465.068-.3 0-.528-.078-.687-.233-.159-.156-.238-.382-.238-.678 0-.057.002-.1.005-.13l.102-1.31h-.55l.045-.53h.545l.057-.692.726-.236-.074.928h.766l-.045.53h-.76l-.102 1.27zm2.942-1.874c.322 0 .565.087.73.262.164.174.246.428.246.762 0 .071-.001.126-.005.163l-.142 1.728h-.704l.136-1.694a.844.844 0 0 0 .006-.112c0-.18-.044-.317-.133-.411-.09-.094-.22-.14-.395-.14-.219 0-.391.066-.516.199s-.197.316-.216.548l-.13 1.61h-.71l.33-4.141h.709l-.13 1.648c.102-.135.232-.239.391-.312a1.26 1.26 0 0 1 .533-.11z"/>
                    <path fill="#1FCF00" d="M45.557 35.764l-.032.4h-.917l-.072.91h-.4l.073-.91h-.917l.032-.4h.917l.072-.91h.4l-.073.91h.917zm3.265-.14c.17.052.303.136.4.255a.678.678 0 0 1 .145.443.925.925 0 0 1-.141.509.934.934 0 0 1-.409.344c-.178.083-.39.124-.635.124-.221 0-.429-.033-.624-.099a1.589 1.589 0 0 1-.506-.275l.227-.423c.287.222.591.333.912.333.197 0 .349-.044.456-.132a.465.465 0 0 0 .161-.38c0-.154-.05-.267-.15-.34-.1-.074-.25-.11-.453-.11h-.418l.036-.464h.368c.206 0 .365-.045.479-.135a.46.46 0 0 0 .17-.383.368.368 0 0 0-.131-.302.564.564 0 0 0-.368-.108c-.297 0-.592.111-.885.333l-.16-.423a1.47 1.47 0 0 1 .496-.27c.196-.066.4-.1.612-.103.197 0 .372.033.525.099.153.066.271.16.356.281a.725.725 0 0 1 .127.425.808.808 0 0 1-.154.493.889.889 0 0 1-.43.306l-.006.003zm1.002 1.009h.635l-.05.63h-.635l.05-.63zm3.498-.45l-.037.454h-.458l-.05.626h-.572l.05-.626h-1.412l.032-.432 1.675-2.147h.481l-.168 2.125h.459zm-1.875 0h.844l.091-1.207-.935 1.207zm2.802-.574a.81.81 0 0 1-.389-.275.706.706 0 0 1-.145-.439c0-.183.05-.34.152-.472a.942.942 0 0 1 .422-.302c.18-.069.387-.103.62-.103.212 0 .399.032.56.096a.854.854 0 0 1 .38.28c.09.121.136.263.136.425a.754.754 0 0 1-.177.5.939.939 0 0 1-.477.297.83.83 0 0 1 .45.28.746.746 0 0 1 .163.48.782.782 0 0 1-.161.495 1.013 1.013 0 0 1-.445.318c-.19.073-.405.11-.647.11-.366 0-.654-.077-.863-.23a.743.743 0 0 1-.313-.634.76.76 0 0 1 .195-.525c.13-.145.312-.245.545-.299l-.006-.002zm.02-.66a.43.43 0 0 0 .145.343c.097.084.227.14.39.166a.877.877 0 0 0 .457-.187.471.471 0 0 0 .16-.371.374.374 0 0 0-.144-.317c-.097-.074-.232-.11-.404-.11-.191 0-.34.04-.445.12-.106.082-.16.2-.16.356zm.44 1.895c.206 0 .372-.045.497-.135a.439.439 0 0 0 .189-.378.413.413 0 0 0-.162-.34c-.107-.085-.26-.14-.456-.164-.469.057-.703.24-.703.55a.4.4 0 0 0 .168.348c.112.08.267.12.467.12zm2.45-.877c-.257 0-.455-.077-.593-.23-.137-.153-.206-.37-.206-.653 0-.333.074-.595.222-.787a.736.736 0 0 1 .618-.288c.257 0 .454.076.592.23.138.152.207.371.207.656 0 .34-.074.603-.22.79-.147.188-.354.282-.62.282zm.304 1.296h-.5l2.125-3.205h.5l-2.125 3.205zm-.309-1.66c.124 0 .217-.066.277-.197.06-.13.09-.319.09-.565 0-.159-.025-.276-.076-.353-.052-.076-.133-.115-.245-.115-.243 0-.364.255-.364.765 0 .16.026.277.078.352.051.075.131.112.24.112zm2.197 1.692c-.257 0-.454-.077-.592-.23-.138-.153-.207-.37-.207-.653 0-.336.074-.6.223-.79a.738.738 0 0 1 .617-.285c.257 0 .455.075.593.227.137.151.206.37.206.655 0 .339-.073.603-.22.792-.147.189-.353.284-.62.284zm0-.365c.121 0 .212-.065.273-.196.06-.13.09-.319.09-.565 0-.159-.025-.277-.077-.353-.051-.077-.133-.115-.245-.115-.239 0-.358.255-.358.765 0 .16.025.276.074.351.05.075.131.113.243.113z"/>
                </g>
                <g>
                    <path fill="#005150" d="M51.975 42.69c4.405 0 7.976 3.395 7.976 7.581 0 4.187-3.571 7.58-7.976 7.58-4.404 0-7.975-3.393-7.975-7.58 0-4.186 3.57-7.58 7.975-7.58"/>
                    <path fill="#FFF" d="M50.7 53.734c.41 0 .79.197 1.014.527a.033.033 0 0 0 .027.014c.01 0 .018-.004.025-.01.335-.36.817-.567 1.322-.567.172 0 .339.023.496.067l-.581-1.415h-2.056l-.587 1.43a1.26 1.26 0 0 1 .34-.046"/>
                    <path fill="#9DE9E9" d="M50.074 55.197a.03.03 0 0 0 .013.02.034.034 0 0 0 .024.006 2.25 2.25 0 0 1 1.842.533.033.033 0 0 0 .022.008.033.033 0 0 0 .022-.008 2.25 2.25 0 0 1 1.848-.533.034.034 0 0 0 .019-.006.03.03 0 0 0 .013-.02c.06-.385.212-.75.44-1.068a1.842 1.842 0 0 0-1.229-.462c-.536 0-1.017.223-1.347.577a1.255 1.255 0 0 0-1.042-.54c-.42 0-.79.198-1.014.501.2.3.333.637.389.992"/>
                    <path fill="#008181" d="M50.106 55.192c-.196-1.253-1.333-2.215-2.706-2.215-.953 0-1.792.464-2.282 1.167a7.854 7.854 0 0 0 3.136 2.833c.14-.915.894-1.64 1.852-1.785M56.55 52.977c-1.373 0-2.51.962-2.705 2.215.958.145 1.712.87 1.851 1.785a7.854 7.854 0 0 0 3.136-2.833 2.772 2.772 0 0 0-2.282-1.167"/>
                    <path fill="#00BCBC" d="M53.493 55.165c-.587 0-1.12.216-1.518.569a2.282 2.282 0 0 0-1.517-.569c-1.121 0-2.048.788-2.204 1.812a8.272 8.272 0 0 0 3.721.875c1.344 0 2.61-.317 3.721-.875-.155-1.024-1.082-1.812-2.203-1.812"/>
                    <path fill="#FF9600" d="M49.472 48.066c0-.252.01-.504.029-.754-.783.42-1.323 1.353-1.323 2.434 0 .571.15 1.116.432 1.575a.146.146 0 0 0 .124.068.15.15 0 0 0 .055-.01 3.313 3.313 0 0 1 1.18-.222 9.639 9.639 0 0 1-.497-3.091M54.45 47.312c.018.25.028.502.028.754 0 1.079-.171 2.14-.496 3.091.411.003.808.078 1.18.222a.15.15 0 0 0 .054.01c.05 0 .098-.025.124-.068.283-.459.432-1.004.432-1.575 0-1.08-.54-2.015-1.322-2.434M50.729 51.513v.713a.16.16 0 0 0 .163.155h2.167a.16.16 0 0 0 .163-.155v-.713h-2.493"/>
                    <path fill="#E6F8F8" d="M53.956 44.805h-3.962a9.582 9.582 0 0 0-.554 3.26c0 1.193.208 2.364.601 3.389.02.054.075.09.135.09h3.598c.06 0 .115-.036.135-.09.394-1.025.602-2.196.602-3.388a9.58 9.58 0 0 0-.555-3.261"/>
                    <path fill="#FF9600" d="M51.037 44.805v.513a.16.16 0 0 0 .163.155h1.55a.16.16 0 0 0 .163-.155v-.513h-1.876"/>
                    <path fill="#FF9600" d="M51.975 42.01a.149.149 0 0 0-.09.03c-.728.56-1.34 1.41-1.772 2.456a8.106 8.106 0 0 0-.13.34h3.984a8.106 8.106 0 0 0-.13-.34c-.431-1.047-1.044-1.896-1.771-2.455a.148.148 0 0 0-.09-.03"/>
                    <path fill="#007F7E" d="M51.975 46.03c.918 0 1.661.706 1.661 1.578 0 .872-.743 1.579-1.66 1.579-.918 0-1.662-.707-1.662-1.579s.744-1.578 1.661-1.578"/>
                    <path fill="#00BCBC" d="M51.975 46.596c.589 0 1.066.453 1.066 1.012 0 .56-.477 1.013-1.066 1.013-.588 0-1.065-.453-1.065-1.013 0-.559.477-1.012 1.065-1.012"/>
                    <path fill="#FFF" d="M47.227 47.54a.092.092 0 0 1-.085-.054c-.182-.417-.316-.544-.755-.717a.088.088 0 0 1-.057-.08c0-.036.023-.068.057-.082.44-.173.573-.3.755-.717a.092.092 0 0 1 .085-.054c.037 0 .071.021.085.054.182.417.316.544.755.717a.088.088 0 0 1 .057.081.088.088 0 0 1-.057.081c-.439.173-.573.3-.755.717a.092.092 0 0 1-.085.054M56.19 44.983a.095.095 0 0 1-.088-.056c-.186-.427-.323-.557-.772-.734a.09.09 0 0 1-.059-.083.09.09 0 0 1 .059-.083c.45-.177.586-.308.772-.735a.095.095 0 0 1 .088-.055c.038 0 .072.022.087.055.186.427.323.558.773.735a.09.09 0 0 1 .058.083.09.09 0 0 1-.058.083c-.45.177-.587.307-.773.734a.095.095 0 0 1-.087.056"/>
                    <path fill="#004060" d="M68.3 68.401l-.539-.71-.577-.761-2.694-3.55-3.179 1.336-1.514-3.65-.4-.964-.2-.484-.223-.539-.354 1.014-.012.034-.344.986-1.996 5.717h-2.891l-2.684 4.883-.06-.034-.578-.327-3.192-1.808-2.53-5.78-2.265 4.819-.229.487-.348-.135-2.673-1.031-3.036 2.9-2.278.634-.577.16-.37.104-1.088-.52a18.62 18.62 0 0 1-.385-1.065l1.554.742.289-.08.577-.162 1.845-.513 3.272-3.126 2.791 1.078.08-.169.576-1.228 2.292-4.875L47.519 69l2.537 1.437.31.176.267-.485 2.245-4.085h2.797l1.818-5.212.35-1.005.777-2.227.286-.82.291.702.942 2.271.41.987 1.213 2.928 3.006-1.263 2.416 3.184.577.76.37.487 2.281-4.88c.07.538.116 1.084.139 1.635l-2.25 4.811z"/>
                    <path fill="#FF7900" d="M46.738 62.411c0 1.071-.888 1.94-1.984 1.94s-1.985-.869-1.985-1.94c0-1.07.889-1.94 1.985-1.94s1.984.87 1.984 1.94z"/>
                </g>
                <path fill="#FEC3A4" d="M22.784 64.02c0-.394 3.568-2.968 5.001-5.59.956-1.748 1.584-4.94 1.887-9.577l4.544-4.695h6.816c1.259 0 2.43-1.583 3.072-3.105.029-.066.029 0 .082-.2.053-.2-6.178-1.729-12.307-2.476-5.039 2.653-6.819 3.559-11.742 7.095a93.86 93.86 0 0 0-8.753 14.211c7.6 3.154 11.4 4.6 11.4 4.337z"/>
            </g>
        </g>
        <path fill="#FFEDDC" d="M279.328 102.705s.667 5.499-4.005 6.186c-4.673.688-8.746 9.895-.915 13.752L284 110.495l-.445-9.852-4.227 2.062z"/>
        <path fill="#F79C82" d="M291 109.795l-5.652-8.152-4.348 1.322 1.087 8.593s4.891 3.415 8.804-1.873"/>
        <path fill="#006769" d="M282 111.643l-17.44 21.486a.752.752 0 0 1-.821.2L253 129.124l3.425 9.661s12.788 2.07 13.473 1.84c.685-.23 9.098-1.27 9.098-1.27L282 111.643z"/>
        <path fill="#FAB08A" d="M293 91.143c0 6.903-4.7 12.5-10.5 12.5-5.799 0-10.5-5.597-10.5-12.5 0-6.904 4.701-12.5 10.5-12.5 5.8 0 10.5 5.596 10.5 12.5"/>
        <path fill="#FFEDDC" d="M310.26 147.218c-13.547 4.488-1.15-28.05-1.15-28.05l-17.549-10.056s-9.572-.914-5.241-12.112c0 0 2.05-2.971 1.14-6.4 0 0-8.696.93-12.44-8.79 0 0-3.754 4.77-2.837 11.351 0 0-6.672-10.724 3.311-17.758 8.433-5.942 16.979-1.714 22.677 7.199 5.697 8.913 7.065 9.598 10.483 10.513 2.32.62 5.372 3.342 7.451 6.1 1.679 2.225 6.322 3.752 8.958 4.64 7.146 2.409 24.258 30.423-14.804 43.363"/>
        <path fill="#59C09C" d="M316 118.625c0-5.474-4.434-9.916-9.926-9.98l-.002-.002-.033.002-.083-.002c-.459 0-.91.034-1.352.093l-13.078.825-9.467 1.836-5.764 7.131a14.786 14.786 0 0 0-2.153 15.002l1.683 4.028.923 9.868s29.67 24.67 29.67 24.21c0-.459 9.37-50.966 9.37-50.966a9.95 9.95 0 0 0 .212-2.045"/>
        <path fill="#004060" d="M231.046 110.92l6.368 23.868c.134.6.553 1.095 1.12 1.323l13.736 5.532 4.73-8.845-5.736-22.032a1.858 1.858 0 0 0-1.708-1.391l-16.614-.73c-1.223-.057-2.165 1.073-1.896 2.275"/>
        <path fill="#F79C82" d="M257.336 130.643l.488.176c.515.245.92.656 1.144 1.16l.558 1.26a7.367 7.367 0 0 0 3.103 3.4l1.371.782-.935 4.222-9.404-2.72c-.821-.238-1.417-.915-1.518-1.725l-.086-.698a7.508 7.508 0 0 1 .369-3.414c.33-.941 1.364-1.485 2.379-1.25l2.377.464c.288.056.539-.193.468-.464l-.314-1.193zM233.026 122.627l1.484 5.45a.786.786 0 0 0 .975.535c1.25-.352 3.551-1.377 3.515-4.134-.038-2.86-3.565-2.931-5.283-2.797-.485.038-.815.492-.69.946"/>
        <path fill="#004966" d="M246.08 163.022a17.073 17.073 0 0 1-12.656 5.582c-2.807 0-5.453-.678-7.79-1.871l-25.904 38.91-5.73-2.963 23.622-57.495c.031-.076.06-.152.093-.227l.352-.856.058-.022a17.082 17.082 0 0 1 15.299-9.437c2.36 0 5.043.114 7.564 1.025l50.884 15.95s6.208 2.533 9.75 5.6v.001c3.288 2.76 5.378 6.886 5.378 11.5 0 8.307-6.773 15.042-15.128 15.042-2.911 0-8.004-1.238-10.575-2.702-.366-.208-.731-.416-1.106-.608l-34.111-17.429z"/>
        <path fill="#003A4C" d="M282 181.953l-44.225-5.584-7.707 47.274s-6.348-.459-6.348-.918-2.72-56.913-2.72-56.913-.226-14.687 19.722-6.885L282 181.953z"/>
        <path fill="#F79C82" d="M187.4 217.496a4.452 4.452 0 0 0 1.439-.553l8.723-5.194c.045-.465.159-.923.343-1.357l2.095-4.924-5.392-2.825s-2.96 8.46-10.214 10.411c-.742.2-1.516.253-2.281.183-.318-.03-.7-.058-1.113-.074.74 4.833 4.624 4.672 6.4 4.333"/>
        <path fill="#99DCDC" d="M179.393 218.473s2.524 2.17 5.966 2.17c3.441 0 6.425-2.604 8.72-2.821 2.025-.192 4.407-1.228 3.834-3.857a4.192 4.192 0 0 1-.075-1.322l-8.714 4.87c-.445.248-.93.427-1.437.518-1.773.318-5.655.469-6.393-4.062-2.796-.104-6.993.31-1.901 4.504"/>
        <path fill="#F79C82" d="M222.814 239.455c4.478-1.119 3.806-4.7 5.821-6.49 1.55-1.377 2.303-2.888 2.365-4.632a5.804 5.804 0 0 0-.461-.404s-.896-2.239-.672-4.7l-5.782-.586s1.08 8.419-1.607 11.329c0 0-1.298 2.269-3.478 4.048.375 1.036 1.345 2.052 3.814 1.435"/>
        <path fill="#99DCDC" d="M218.737 243.643c2.014 0 6.937-.69 8.951-4.372 2.014-3.681 3.804-5.062 3.804-5.062s1.6-3.09-.881-5.566c-.063 1.793-.814 3.345-2.363 4.761-2.014 1.84-1.343 5.522-5.819 6.673-2.468.634-3.437-.41-3.812-1.476-.382.32-.79.626-1.223.9-2.91 1.841-.672 4.142 1.343 4.142"/>
        <path fill="#59C09C" d="M304.969 112.643l-9.437 22.103c-.967 2.262-3.172 3.71-5.593 3.672l-26.03-.402-.909 4.403 30.127 9.749c4.85 1.569 10.077-.862 12.09-5.622L316 119.55l-11.031-6.908z"/>
        <path fill="#00C9C3" d="M256 201h52v-23h-52z"/>
        <path fill="#00C9C3" d="M227 312h81V178h-81z"/>
        <path fill="#FF9600" fill-rule="nonzero" d="M84.472 301.442C79.525 308.481 72.534 312 63.5 312s-16.042-3.537-21.025-10.612C37.49 294.314 35 284.851 35 273c0-11.85 2.491-21.314 7.475-28.388C47.458 237.537 54.466 234 63.5 234c9.034 0 16.042 3.537 21.025 10.612C89.51 251.686 92 261.149 92 273c0 11.85-2.51 21.331-7.528 28.442zm-35.98-4.692C52.226 302.25 57.395 305 64 305c6.605 0 11.756-2.75 15.454-8.25C83.15 291.25 85 283.5 85 273.5s-1.849-17.75-5.546-23.25C75.756 244.75 70.605 242 64 242s-11.756 2.75-15.454 8.25C44.85 255.75 43 263.5 43 273.5s1.83 17.75 5.492 23.25zm60.763 13.505C108.09 311.418 106.673 312 105 312s-3.09-.582-4.255-1.745C99.582 309.09 99 307.673 99 306s.582-3.09 1.745-4.255C101.91 300.582 103.327 300 105 300s3.09.582 4.255 1.745C110.418 302.91 111 304.327 111 306s-.582 3.09-1.745 4.255zm35.712-44.758c6.96 0 12.872 2.073 17.736 6.219 4.865 4.145 7.297 9.823 7.297 17.033 0 7.21-2.432 12.887-7.297 17.033-4.864 4.145-10.776 6.218-17.736 6.218-5.61 0-10.616-1.388-15.02-4.164-4.402-2.775-7.385-6.759-8.947-11.95l6.285-3.677c1.065 4.038 3.178 7.12 6.338 9.247s6.941 3.19 11.344 3.19c5.113 0 9.321-1.388 12.623-4.164 3.302-2.775 4.953-6.687 4.953-11.733 0-5.047-1.65-8.958-4.953-11.734-3.302-2.776-7.51-4.164-12.623-4.164h-20.239L127.391 235h39.946v7.138h-33.341l-1.598 23.36h12.57zm80.505 35.945C220.525 308.481 213.534 312 204.5 312s-16.042-3.537-21.025-10.612C178.49 294.314 176 284.851 176 273c0-11.85 2.491-21.314 7.475-28.388C188.458 237.537 195.466 234 204.5 234c9.034 0 16.042 3.537 21.025 10.612C230.51 251.686 233 261.149 233 273c0 11.85-2.51 21.331-7.528 28.442zm-35.98-4.692c3.734 5.5 8.903 8.25 15.508 8.25 6.605 0 11.756-2.75 15.454-8.25 3.697-5.5 5.546-13.25 5.546-23.25s-1.849-17.75-5.546-23.25c-3.698-5.5-8.849-8.25-15.454-8.25s-11.756 2.75-15.454 8.25C185.85 255.75 184 263.5 184 273.5s1.83 17.75 5.492 23.25zM260 253c-5.948 0-10.935-1.933-14.96-5.8-4.027-3.867-6.04-8.6-6.04-14.2s2.013-10.333 6.04-14.2c4.025-3.867 9.012-5.8 14.96-5.8s10.935 1.933 14.96 5.8c4.027 3.867 6.04 8.6 6.04 14.2s-1.967 10.333-5.902 14.2c-3.935 3.867-8.967 5.8-15.098 5.8zm-8.63-10.467c2.248 2.311 5.124 3.467 8.63 3.467 3.506 0 6.382-1.156 8.63-3.467 2.246-2.31 3.37-5.155 3.37-8.533 0-3.378-1.124-6.222-3.37-8.533-2.248-2.311-5.124-3.467-8.63-3.467-3.506 0-6.382 1.156-8.63 3.467-2.246 2.31-3.37 5.155-3.37 8.533 0 3.378 1.124 6.222 3.37 8.533zm-7.37 54.2L309.037 225l5.963 3.267L249.824 300 244 296.733zm69.96 9.534C309.936 310.089 304.949 312 299 312s-10.935-1.933-14.96-5.8c-4.027-3.867-6.04-8.6-6.04-14.2s2.013-10.333 6.04-14.2c4.025-3.867 9.012-5.8 14.96-5.8s10.935 1.933 14.96 5.8c4.027 3.867 6.04 8.6 6.04 14.2s-2.013 10.356-6.04 14.267zm-25.027-4.311C291.554 304.652 294.91 306 299 306s7.446-1.348 10.067-4.044C311.69 299.259 313 295.94 313 292c0-3.94-1.31-7.26-3.933-9.956C306.446 279.348 303.09 278 299 278s-7.446 1.348-10.067 4.044C286.31 284.741 285 288.06 285 292c0 3.94 1.31 7.26 3.933 9.956zM324.76 207.16v4.48l-7.28-.24 4.16 6-4.08 2.4-3.68-6.48-3.68 6.48-4.08-2.4 4.16-6-7.28.24v-4.48l7.28.24-4.16-6 4.08-2.4 3.68 6.48 3.68-6.48 4.08 2.4-4.16 6z"/>
    </g>
</svg>
