<?xml version="1.0" encoding="UTF-8"?>
<svg width="459px" height="346px" viewBox="0 0 459 346" version="1.1" xmlns="http://www.w3.org/2000/svg" xmlns:xlink="http://www.w3.org/1999/xlink">
    <!-- Generator: Sketch 52.1 (67048) - http://www.bohemiancoding.com/sketch -->
    <title>reviews_seated_guy</title>
    <desc>Created with Sketch.</desc>
    <defs>
        <polygon id="path-1" points="0.0237345291 0.455785667 78.0051499 0.455785667 78.0051499 72.589872 0.0237345291 72.589872"></polygon>
        <polygon id="path-3" points="0.129723541 0.192354398 84.2731849 0.192354398 84.2731849 101.455599 0.129723541 101.455599"></polygon>
        <polygon id="path-5" points="0.696818697 0.192494039 65.1471343 0.192494039 65.1471343 101.455599 0.696818697 101.455599"></polygon>
        <polygon id="path-7" points="0 0 132 0 132 76 0 76"></polygon>
        <polygon id="path-9" points="0.3613 0.321643396 12.324 0.321643396 12.324 48.4720019 0.3613 48.4720019"></polygon>
    </defs>
    <g id="Latest-Copy" stroke="none" stroke-width="1" fill="none" fill-rule="evenodd">
        <g id="1024px---homepage-copy-2" transform="translate(-665.000000, -184.000000)">
            <g id="reviews_seated_guy" transform="translate(665.000000, 184.000000)">
                <path d="M282.944635,286.370699 C212.289999,283.918086 132.144442,293.728536 123.708067,313.042859 C120.51585,320.351154 19.3079331,312.123129 3.48973097,321.933579 C-21.1628523,337.223112 91.0171161,343.087361 144.799003,345.84655 C166.115902,346.940177 217.174182,341.86131 261.853699,340.941325 C329.899246,339.540215 394.849179,340.339419 409.490252,328.678263 C433.744829,309.360253 375.46342,289.582275 282.944635,286.370699 Z" id="Path-5" fill="#E8F3F1" fill-rule="nonzero"></path>
                <g id="Group-2" transform="translate(55.000000, 170.000000)">
                    <g id="Group-21">
                        <g id="Group-3" transform="translate(105.766084, 57.981016)">
                            <mask id="mask-2" fill="white">
                                <use xlink:href="#path-1"></use>
                            </mask>
                            <g id="Clip-2"></g>
                        </g>
                        <g id="Group-19" transform="translate(0.282753, 0.030326)">
                            <g id="Group-9" transform="translate(64.966555, 17.455027)">
                                <mask id="mask-4" fill="white">
                                    <use xlink:href="#path-3"></use>
                                </mask>
                                <g id="Clip-8"></g>
                                <path d="M0.129723541,92.2431852 C0.129723541,92.2431852 10.5865447,18.4279703 59.7969638,0.192354398 C107.844272,41.104145 70.335517,101.595589 70.335517,101.595589 L17.3172195,139.572142 L0.129723541,92.2431852 Z" id="Fill-7" fill="#59C09C" mask="url(#mask-4)"></path>
                            </g>
                            <g id="Group-12" transform="translate(81.033553, 17.455027)">
                                <mask id="mask-6" fill="white">
                                    <use xlink:href="#path-5"></use>
                                </mask>
                                <g id="Clip-11"></g>
                                <path d="M1.56234087,40.3083355 L22.7505192,65.6935304 L42.5750984,0.646324742 C42.9600078,0.495513308 43.3414244,0.337021663 43.7298266,0.192494039 C43.9198363,0.353778489 44.0958747,0.517855743 44.2823916,0.679140193 L33.6642019,35.5179778 L61.6438302,22.8211911 C61.7702705,23.0837147 61.8890266,23.3469365 62.0126726,23.6094602 L62.3319169,24.3111522 L33.0271105,37.6090901 L15.3317577,95.6680011 L65.1471343,74.948884 C64.9710959,75.6247426 64.7915646,76.2950157 64.6057463,76.9520229 L14.7107334,97.7039555 L2.14494417,138.929937 L1.25008226,139.572282 L0.696818697,138.048807 L22.1776958,67.5709931 L0.726856996,41.8695131 C1.00139308,41.3486551 1.28012056,40.8284953 1.56234087,40.3083355" id="Fill-10" fill="#006769" mask="url(#mask-6)"></path>
                            </g>
                            <g id="Group-15" fill="#004966">
                                <path d="M21.8841588,124.423203 C21.8841588,124.423203 -21.9053951,50.478123 16.3103077,0.435258555 C120.360882,30.7329963 90.2701901,132.931482 90.2701901,132.931482 L21.8841588,124.423203 Z" id="Fill-13"></path>
                            </g>
                            <g id="Group-18" transform="translate(0.698565, 0.000000)" fill="#59C09C">
                                <path d="M15.6113934,0.435188735 C15.9732501,0.540617098 16.3260255,0.650234668 16.6864851,0.757059434 L44.8693958,98.0039027 L79.0683493,44.9133905 C79.4371917,45.5131452 79.7969527,46.1135982 80.1504267,46.7168439 L45.5658652,100.406413 L53.6978617,128.467812 L51.6601473,128.215064 L35.4478482,72.2744946 L35.4478482,72.2751928 L0.541248247,61.2149894 C0.471391736,60.5370361 0.407822311,59.8576865 0.351238537,59.1762422 L34.8177425,70.095409 L14.9079383,1.39381882 C15.1433547,1.07474093 15.3675941,0.752870228 15.6113934,0.435188735" id="Fill-16"></path>
                            </g>
                        </g>
                        <polygon id="Fill-20" fill="#00756F" points="0.282752544 133.792306 150.470925 133.792306 150.470925 118.146728 0.282752544 118.146728"></polygon>
                    </g>
                </g>
                <g id="Group-8" transform="translate(255.000000, 0.000000)">
                    <g id="Group-7" fill="#85CFC5">
                        <g id="Group-6">
                            <path d="M81.8902592,39.8252584 C81.8902592,61.8203618 63.7822751,79.6508924 41.4449151,79.6508924 C19.107555,79.6508924 1.00004768,61.8203618 1.00004768,39.8252584 C1.00004768,17.8301551 19.107555,9.38918438e-05 41.4449151,9.38918438e-05 C63.7822751,9.38918438e-05 81.8902592,17.8301551 81.8902592,39.8252584" id="Fill-1"></path>
                            <g id="Group-5" transform="translate(0.803792, 25.101570)">
                                <polygon id="Fill-3" transform="translate(37.877668, 38.240350) rotate(49.000000) translate(-37.877668, -38.240350) " points="12.0487247 48.6013151 63.7066112 65.6666272 46.32903 10.814073"></polygon>
                            </g>
                        </g>
                    </g>
                    <g id="Group-51" transform="translate(43.500000, 39.000000) scale(-1, 1) translate(-43.500000, -39.000000) translate(24.000000, 19.000000)">
                        <path d="M39,19.9997116 C39,31.0448967 30.2693367,40 19.5002812,40 C8.73178822,40 0,31.0448967 0,19.9997116 C0,8.95452644 8.73178822,0 19.5002812,0 C30.2693367,0 39,8.95452644 39,19.9997116" id="Fill-43" fill="#FFD052"></path>
                        <path d="M9.75,23.3333333 L30.55,23.3333333 C30.55,23.3333333 28.3613212,34 19.9802418,34 C11.5991623,34 9.75,23.3333333 9.75,23.3333333" id="Fill-45" fill="#FFFFFF"></path>
                        <path d="M28.5240868,15.3333333 C28.568412,15.1446694 28.6,14.9494999 28.6,14.7406685 C28.6,13.5956737 27.870928,12.6666667 26.9742358,12.6666667 C26.077034,12.6666667 25.35,13.5956737 25.35,14.7406685 C25.35,14.9494999 25.3800596,15.1446694 25.4243847,15.3333333 L28.5240868,15.3333333 Z" id="Fill-47" fill="#FFFFFF"></path>
                        <path d="M14.2240868,15.3333333 C14.267393,15.1446694 14.3,14.9494999 14.3,14.7406685 C14.3,13.5956737 13.5714375,12.6666667 12.6742358,12.6666667 C11.776015,12.6666667 11.05,13.5956737 11.05,14.7406685 C11.05,14.9494999 11.0800596,15.1446694 11.1243847,15.3333333 L14.2240868,15.3333333 Z" id="Fill-49" fill="#FFFFFF"></path>
                    </g>
                </g>
                <g id="Group-4" transform="translate(368.000000, 104.000000) scale(-1, 1) translate(-368.000000, -104.000000) translate(296.000000, 55.000000)">
                    <g id="Group-3" transform="translate(72.000000, 49.000000) rotate(-10.000000) translate(-72.000000, -49.000000) translate(6.000000, 11.000000)">
                        <mask id="mask-8" fill="white">
                            <use xlink:href="#path-7"></use>
                        </mask>
                        <g id="Clip-2"></g>
                        <path d="M116.240951,66.5307332 L115.302956,66.202528 C102.431232,61.7124787 88.599951,60.9620888 75.2617455,63.7525558 C59.9490802,66.9572553 39.1831108,69.6081989 27.7057995,63.8913562 C19.8740871,59.98904 10.622805,39.2058444 12.4822616,26.1860749 C13.9054252,16.2177462 22.6305681,8.86782966 32.6070887,8.01189368 C47.7256862,6.71353132 75.8317297,5.89446421 89.3532214,15.7398968 C108.370425,29.5917459 108.370425,53.9974881 108.370425,53.9974881 L116.240951,66.5307332 Z" id="Fill-1" fill="#FFD052" mask="url(#mask-8)"></path>
                    </g>
                    <path d="M80,49.1494431 L78.8911445,63.1841566 C78.8911445,63.1841566 58.5578985,69.0696816 54.3681469,63.822926 C48.4700503,56.4406511 47.5908433,47.3957544 50.9527918,45.9081112 C54.4248915,44.3716821 57.5919057,44.8400263 62.297699,43.9547257 C59.6680892,38.5577097 62.297699,31.2502398 62.297699,31.2502398 C62.297699,31.2502398 65.3071636,27.1268597 66.9754538,33.8567051 C67.2278002,44.2825666 80,49.1494431 80,49.1494431 Z" id="Fill-4" fill="#85CFC5"></path>
                </g>
                <g id="Group-31" transform="translate(160.000000, 72.000000)">
                    <path d="M162.557359,253.546404 L197.20944,248.043007 C201.88435,247.818207 207.227618,248.363883 208.694767,252.36364 C208.694767,252.36364 209.700453,255.014599 210,257.762566 C208.991616,259.450897 162.784043,265 162.784043,265 L162.559158,264.857285 C156.802102,259.551637 162.557359,253.546404 162.557359,253.546404" id="Fill-16" fill="#004060"></path>
                    <polygon id="Fill-18" fill="#FFFFFF" points="212.673587 258 164 265.177801 164.709392 267 213 259.680678"></polygon>
                    <polygon id="Fill-20" fill="#FFFFFF" points="176.202899 251.465913 179 251 178.707729 255.52575 176 256"></polygon>
                    <polygon id="Fill-22" fill="#FFFFFF" points="184.205314 250.465913 187 250 186.70934 254.524824 184 255"></polygon>
                    <path d="M158,241.136323 L162.148182,252.482288 C165.154372,253.480638 168.795202,253.01249 171.507093,251.273134 L172,250.957386 L171.916946,239 L158,241.136323 Z" id="Fill-24" fill="#FAB08A"></path>
                    <path d="M276,234.280991 L282.945731,199.533294 C284.382812,195.015621 286.805429,190.108698 291.201995,190.006168 C291.201995,190.006168 294.126967,189.90636 296.896631,190.509744 C298.174569,192.01503 287.181236,237.765197 287.181236,237.765197 L286.966489,237.935778 C279.781085,241.696725 276,234.280991 276,234.280991" id="Fill-26" fill="#004060"></path>
                    <g id="Group-30" transform="translate(286.000000, 190.000000)">
                        <mask id="mask-10" fill="white">
                            <use xlink:href="#path-9"></use>
                        </mask>
                        <g id="Clip-29"></g>
                        <polygon id="Fill-28" fill="#FFFFFF" mask="url(#mask-10)" points="10.4953 0.321643396 0.3613 48.4720019 2.4733 48.4128321 12.3243 0.572190566"></polygon>
                    </g>
                    <polygon id="Fill-31" fill="#FFFFFF" points="278 221.240444 278.658149 218 283 219.851817 282.385405 223"></polygon>
                    <polygon id="Fill-33" fill="#FFFFFF" points="281 214.242607 281.657895 211 286 212.850631 285.383707 216"></polygon>
                    <path d="M265,235 L276.783986,234.821755 C278.687956,232.279707 279.44741,228.647166 278.738646,225.478062 L278.610588,224.904022 L267.59406,221 L265,235 Z" id="Fill-35" fill="#FAB08A"></path>
                    <path d="M58,216.299838 C58,216.299838 96.705969,229.456639 153.443449,225.879916 C162.803656,225.28918 172.197107,226.609106 181.04941,229.70124 C215.406798,241.702414 266.356021,235.287389 266.356021,235.287389 L270,219.331976 L100.140323,175 L58,216.299838 Z" id="Fill-37" fill="#006769"></path>
                    <polygon id="Fill-39" fill="#F79C82" points="37.7559546 44 31 60.7348286 44.7130435 65 50 51.4404067"></polygon>
                    <path d="M38.1796878,14 L34,36.6382492 C36.1936729,37.0869673 36.903552,39.7905172 35.9924185,41.78024 C36.100364,42.345119 36.0921309,42.9418485 35.9668043,43.5160952 C39.0844178,47.2191904 45.0836283,52.5251179 54.325779,52.9869509 C68.786822,53.7082723 66.9215597,24.2849184 66.9215597,24.2849184 L38.1796878,14 Z" id="Fill-41" fill="#FAB08A"></path>
                    <path d="M28.3538263,29.2961034 C28.6436693,27.6403893 27.2622703,23.6431954 26.2886951,22.2725958 C20.0096929,13.4461582 28.3296728,10.1477744 31.2429663,9.13589735 C34.4665404,8.01686942 35.1437697,2.81026816 39.4384622,0.855463329 C45.9980176,-2.13078524 50.2276813,3.64418157 53.9148184,3.84637063 C57.6028845,4.04762795 60.9351497,-0.12752957 65.4620883,3.61529742 C69.9936717,7.3599879 68.4506295,11.2630753 69.6852491,13.3669597 C70.9189397,15.4736392 75.0780006,11.4941486 78.7837174,18.0955748 C84.4198627,28.1379421 68.6392132,28.009361 68.6392132,28.009361 C68.6392132,28.009361 59.6457201,29.4172305 49.8523718,22.5278944 C48.510919,21.5831032 46.6687439,21.476884 45.4146157,22.5390754 C41.9773752,25.4545112 37.4606555,44 37.4606555,44 L34.5798764,40.1127523 C34.5798764,40.1127523 27.0272373,36.8851813 28.3538263,29.2961034" id="Fill-43" fill="#1C2C57"></path>
                    <path d="M36.0400221,33.025539 C36.3313809,34.9350429 38.1138656,36.2516542 40.0253276,35.9593832 C41.9349338,35.6689679 43.2488319,33.8865787 42.9602568,31.9742912 C42.6688981,30.0629316 40.8836297,28.7491038 38.9740235,29.040447 C37.0625615,29.3299345 35.7505192,31.1132515 36.0400221,33.025539" id="Fill-45" fill="#FAB08A"></path>
                    <path d="M1,168.207693 C1,168.207693 5.02480089,213.623962 46.1896315,217.042866 C87.3563049,220.46085 137.734502,175.293194 137.734502,175.293194 L157.855742,244 L173.81581,241.577394 C173.81581,241.577394 181.165126,140.108776 159.246178,133.805948 C137.323545,127.505883 53.6697903,160.209685 53.6697903,160.209685 L1,168.207693 Z" id="Fill-47" fill="#118C8C"></path>
                    <path d="M0.910930584,168 L69,157.736678 C69,157.736678 64.3944764,142.968092 63.5416017,127.545515 C62.8936023,115.870274 67.3127913,105.433107 67.3127913,105.433107 C63.5935158,79.6211934 54.122898,54.4881052 31.1156749,57.2015663 C-8.18609096,66.7483502 0.910930584,168 0.910930584,168" id="Fill-49" fill="#1C2C57"></path>
                    <polygon id="Fill-51" fill="#85CFC5" points="190.563064 73 167.094805 132.816245 107.559556 125.738195 107 130.489126 170.18844 138 195 74.7515549"></polygon>
                    <path d="M41,108.095237 L67.8306115,104 L70.6689537,134.15406 L117.944138,119.216851 L128.438328,112.210912 C131.147192,110.402059 134.424835,109.658822 137.645137,110.12799 L150.659524,112.023245 C152.00147,112.219274 153.058565,113.273741 153.261106,114.61993 L158,128.550052 C158,128.550052 154.907326,130.847584 149.895603,119.119301 C147.542804,132.989965 127.942612,123.78776 127.942612,123.78776 L121.364206,128.448786 C121.364206,128.448786 70.7429412,166.051011 58.0050827,159.155628 C45.2653745,152.257458 41,108.095237 41,108.095237" id="Fill-53" fill="#FAB08A"></path>
                    <path d="M151.329391,115.666206 C151.129769,114.307632 150.087906,113.246801 148.765296,113.048305 L135.937528,111.138249 C132.76454,110.665416 129.534126,111.415394 126.864295,113.235566 L116.521321,120.298094 L115,120.788716 L116.656225,132 C118.702579,130.506598 119.892108,129.603066 119.892108,129.603066 L126.375723,124.904701 C126.375723,124.904701 145.693486,134.178775 148.012383,120.200718 C152.95189,132.020599 156,129.704187 156,129.704187 L151.329391,115.666206 Z" id="Fill-55" fill="#FAB08A"></path>
                </g>
            </g>
        </g>
    </g>
</svg>