<svg width="80" height="80" viewBox="0 0 80 80" fill="none" xmlns="http://www.w3.org/2000/svg">
<g clip-path="url(#clip0_1_3202)">
<rect x="0.000244141" width="80" height="80" fill="#FFD874"/>
<path d="M65.9537 26.4809C65.7723 25.7588 58.21 24.4249 55.7812 26.4809C57.5298 33.5629 53.8796 42.787 51.6012 44.4672C49.3229 46.1474 75.6889 40.3042 72.7746 39.5602C69.8603 38.8163 63.0394 37.0726 62.5537 36.3287C62.068 35.5847 67.8966 34.8407 64.0108 31.8647C60.1251 28.8888 66.1351 27.2031 65.9537 26.4809Z" fill="#C24F75"/>
<path d="M59.444 34.5196C59.444 39.6603 55.2767 43.8276 50.1361 43.8276C44.9954 43.8276 40.8281 39.6603 40.8281 34.5196C40.8281 29.379 44.9954 25.2117 50.1361 25.2117C55.2767 25.2117 59.444 29.379 59.444 34.5196Z" fill="#FFF6E9"/>
<path d="M59.4199 35.1949C57.9478 39.7337 53.8388 43 49 43C47.491 43 46.0531 42.6824 44.7439 42.1076C46.2653 43.1907 48.1263 43.8276 50.136 43.8276C55.0496 43.8276 59.0739 40.0204 59.4199 35.1949Z" fill="#A60B3E"/>
<path fill-rule="evenodd" clip-rule="evenodd" d="M62.444 34.5196C62.444 41.3171 56.9336 46.8276 50.1361 46.8276C43.3386 46.8276 37.8281 41.3171 37.8281 34.5196C37.8281 27.7221 43.3386 22.2117 50.1361 22.2117C56.9336 22.2117 62.444 27.7221 62.444 34.5196ZM50.1361 43.8276C55.2767 43.8276 59.444 39.6603 59.444 34.5196C59.444 29.379 55.2767 25.2117 50.1361 25.2117C44.9954 25.2117 40.8281 29.379 40.8281 34.5196C40.8281 39.6603 44.9954 43.8276 50.1361 43.8276Z" fill="#C24F75"/>
<path fill-rule="evenodd" clip-rule="evenodd" d="M50.1353 29.6349C50.9637 29.6349 51.6353 30.3065 51.6353 31.1349V34.3812L54.4802 36.752C55.1167 37.2823 55.2026 38.2282 54.6723 38.8646C54.142 39.501 53.1961 39.587 52.5597 39.0566L48.6353 35.7863V31.1349C48.6353 30.3065 49.3068 29.6349 50.1353 29.6349Z" fill="#005960"/>
<g filter="url(#filter0_d_1_3202)">
<path d="M33.1546 21.2253C34.1285 20.4948 34.7274 19.7545 35.448 20.0781C36.2515 20.4164 36.047 21.2988 35.9593 22.5293C35.8814 23.6078 35.8668 24.6913 35.8668 24.6913L31.4844 22.3871C31.4844 22.3871 32.1612 21.9508 33.1546 21.2253Z" fill="#00B4B4"/>
<path d="M36.7675 40.9133L21.9986 42.0409C21.5608 42.0747 21.1276 41.932 20.7943 41.6443C20.461 41.3565 20.2549 40.9472 20.2213 40.5065L18.3368 32.7803C18.2646 32.4848 18.2238 32.1824 18.2151 31.8782C18.0642 26.314 21.2341 21.6567 27.8516 21.1322C34.4643 20.5635 38.0335 24.5638 38.9149 29.8437C39.005 30.3847 39.0246 30.9351 38.9733 31.4811L38.2916 39.124C38.3252 39.5647 38.1835 40.0009 37.8976 40.3364C37.6118 40.672 37.2053 40.8795 36.7675 40.9133Z" fill="#00BCBC"/>
<path d="M20.6648 45.0103C20.2725 44.2257 20.1746 41.5775 20.1746 40.1063L38.3193 38.6351C38.3193 38.6351 38.8097 39.6159 38.3193 42.0679C37.8289 44.5199 35.8673 45.9911 35.8673 45.9911C30.6364 46.318 21.0571 45.795 20.6648 45.0103Z" fill="#00BCBC"/>
<path d="M19.7731 25.2012C18.5655 24.9805 17.7279 24.5835 17.2118 25.1717C16.6956 25.76 17.2118 26.5346 17.8107 27.6229C18.3464 28.5593 18.8284 29.53 18.8284 29.53L21.7841 25.5345C21.7841 25.5345 20.9856 25.4267 19.7731 25.2012Z" fill="#00BCBC"/>
<path d="M24.3902 27.1964C26.2454 26.3336 28.4171 26.4218 30.9395 27.368C31.0267 27.3988 31.1192 27.4117 31.2114 27.4061C31.3037 27.4005 31.3939 27.3765 31.4769 27.3354C31.5598 27.2943 31.6338 27.2371 31.6946 27.1669C31.7553 27.0967 31.8015 27.0151 31.8306 26.9268C32.2445 26.1522 32.634 25.4168 33.1356 25.1129C35.6725 23.5637 37.3135 25.9708 37.9514 28.5446C39.198 33.545 37.6495 37.1777 31.9523 38.6386C26.2551 40.0995 23.2458 38.7514 22.0674 33.0793C21.5562 30.6134 22.5447 28.0543 24.3902 27.1964Z" fill="white"/>
<path d="M32.3165 31.0692C32.3778 30.9844 32.4565 30.9138 32.5471 30.8622C32.6378 30.8105 32.7384 30.779 32.8422 30.7697C32.9459 30.7604 33.0505 30.7736 33.1488 30.8084C33.2471 30.8431 33.3368 30.8986 33.4121 30.9712L34.6343 32.6086C34.6847 32.6787 34.7157 32.761 34.7243 32.8471C34.7328 32.9332 34.7186 33.02 34.683 33.0988L33.8357 34.7558C33.7596 34.8674 33.6613 34.962 33.5471 35.0335C33.4328 35.105 33.3051 35.1519 33.172 35.1712C33.0389 35.1906 32.9032 35.1819 32.7736 35.1459C32.6439 35.1098 32.5231 35.0471 32.4187 34.9617L31.1089 33.9812C31.0293 33.9185 30.9711 33.8325 30.9423 33.735C30.9135 33.6375 30.9156 33.5333 30.9482 33.4371C31.3515 32.6181 31.8087 31.8271 32.3165 31.0692Z" fill="#FF9C39"/>
<path d="M37.7365 40.5007C37.9099 39.5276 38.0005 38.5247 38.0005 37.5C38.0005 29.7231 32.7832 23.2028 25.7612 21.4584C26.415 21.301 27.1117 21.1907 27.8514 21.132C34.4641 20.5634 38.0333 24.5637 38.9147 29.8436C39.0048 30.3845 39.0244 30.935 38.9731 31.481L38.2914 39.1239C38.325 39.5646 38.1833 40.0007 37.8974 40.3363C37.8473 40.3951 37.7936 40.45 37.7365 40.5007Z" fill="black" fill-opacity="0.25"/>
<path fill-rule="evenodd" clip-rule="evenodd" d="M31.5278 33.1871C31.5278 33.1871 32.2777 34.8 33.1688 34.6578C34.0599 34.5157 34.3375 32.7704 34.3375 32.7704L33.0471 32.5596C32.9175 32.5398 32.785 32.5603 32.6673 32.6184L31.5278 33.1871Z" fill="#F6871F"/>
<path d="M33.0567 33.6833C33.8971 33.485 34.5118 33.0378 34.4296 32.6846C34.3474 32.3314 33.5994 32.2058 32.7589 32.4041C31.9184 32.6024 31.3037 33.0495 31.3859 33.4028C31.4682 33.756 32.2162 33.8816 33.0567 33.6833Z" fill="#FF9C39"/>
<path fill-rule="evenodd" clip-rule="evenodd" d="M27.9248 32.0105C28.45 31.8439 29.0152 31.8577 29.5317 32.0497C29.5658 32.0497 29.5999 32.0497 29.5804 32.0007C29.4008 31.6766 29.1182 31.4226 28.7781 31.2794C28.438 31.1362 28.0599 31.1121 27.7046 31.211C27.3493 31.3099 27.0372 31.5261 26.8184 31.8248C26.5997 32.1236 26.4868 32.4876 26.4981 32.8586C26.4981 32.8978 26.5419 32.9076 26.5663 32.8586C26.916 32.4354 27.3927 32.1378 27.9248 32.0105Z" fill="#008282"/>
<path d="M35.5735 30.8912C36.0354 30.7754 36.2856 30.1789 36.1322 29.5589C35.9789 28.9389 35.4802 28.5301 35.0182 28.6458C34.5563 28.7616 34.3062 29.3581 34.4595 29.9782C34.6128 30.5982 35.1116 31.007 35.5735 30.8912Z" fill="#008282"/>
</g>
<path fill-rule="evenodd" clip-rule="evenodd" d="M21.5174 46.7963C21.5174 46.7963 18.7716 39.7647 28.9277 40.2452C35.0882 41.1004 39.7314 37.1747 41.5544 35.2071C43.3774 33.2395 46.3812 33.5068 45.3086 38.7612C44.2745 43.8265 27.8916 55.3156 21.5174 46.7963Z" fill="#008F8F"/>
<path d="M38.2162 43C28.4865 43 26.5946 44.3333 22 45H52C49.5676 43.6667 44.7027 43 38.2162 43Z" fill="black" fill-opacity="0.25"/>
<path d="M20.6944 46.0987C20.4677 45.4487 20.9502 44.7693 21.6386 44.7693H51.0985C51.7958 44.7693 52.2791 45.4651 52.0355 46.1185L47.6466 57.8939C47.2091 59.0678 46.0883 59.8462 44.8355 59.8462H27.6209C26.3449 59.8462 25.2086 59.0391 24.7883 57.8343L20.6944 46.0987Z" fill="#008F91"/>
<path d="M27.5 50.0096C27.5 49.452 27.952 49 28.5096 49C29.0672 49 29.5192 49.452 29.5192 50.0096V50.8051C29.5192 51.3627 29.0672 51.8147 28.5096 51.8147C27.952 51.8147 27.5 51.3627 27.5 50.8051V50.0096Z" fill="#005960"/>
<path d="M31.4712 50.0096C31.4712 49.452 31.9232 49 32.4808 49C33.0383 49 33.4904 49.452 33.4904 50.0096V54.1827C33.4904 54.7403 33.0383 55.1923 32.4808 55.1923C31.9232 55.1923 31.4712 54.7403 31.4712 54.1827V50.0096Z" fill="#005960"/>
<path d="M35.4423 50.0096C35.4423 49.452 35.8943 49 36.4519 49C37.0095 49 37.4615 49.452 37.4615 50.0096V54.1827C37.4615 54.7403 37.0095 55.1923 36.4519 55.1923C35.8943 55.1923 35.4423 54.7403 35.4423 54.1827V50.0096Z" fill="#005960"/>
<path d="M39.414 50.0096C39.414 49.452 39.866 49 40.4236 49C40.9812 49 41.4332 49.452 41.4332 50.0096V54.1827C41.4332 54.7403 40.9812 55.1923 40.4236 55.1923C39.866 55.1923 39.414 54.7403 39.414 54.1827V50.0096Z" fill="#005960"/>
<path d="M43.25 50.0096C43.25 49.452 43.702 49 44.2596 49C44.8172 49 45.2692 49.452 45.2692 50.0096V50.8051C45.2692 51.3627 44.8172 51.8147 44.2596 51.8147C43.702 51.8147 43.25 51.3627 43.25 50.8051V50.0096Z" fill="#005960"/>
<path d="M19.1538 45.8462C19.1538 45.2514 19.636 44.7693 20.2307 44.7693H52.5384C53.1332 44.7693 53.6153 45.2514 53.6153 45.8462C53.6153 46.441 53.1332 46.9231 52.5384 46.9231H20.2307C19.636 46.9231 19.1538 46.441 19.1538 45.8462Z" fill="#FF7900"/>
<path d="M43.9232 60.3847C43.9232 61.2768 43.1999 62.0001 42.3078 62.0001C41.4156 62.0001 40.6924 61.2768 40.6924 60.3847C40.6924 59.4925 41.4156 58.7693 42.3078 58.7693C43.1999 58.7693 43.9232 59.4925 43.9232 60.3847Z" fill="#008F91"/>
<path d="M43.9003 60.6572C43.5008 60.8737 43.0188 61.0001 42.5 61.0001C41.7891 61.0001 41.1476 60.7628 40.6924 60.3817L40.6924 60.3847C40.6924 61.2769 41.4156 62.0001 42.3078 62.0001C43.1071 62.0001 43.7708 61.4196 43.9003 60.6572Z" fill="#003F44"/>
<path fill-rule="evenodd" clip-rule="evenodd" d="M44.9232 60.3847C44.9232 61.8291 43.7522 63.0001 42.3078 63.0001C40.8633 63.0001 39.6924 61.8291 39.6924 60.3847C39.6924 58.9402 40.8633 57.7693 42.3078 57.7693C43.7522 57.7693 44.9232 58.9402 44.9232 60.3847ZM42.3078 62.0001C43.1999 62.0001 43.9232 61.2768 43.9232 60.3847C43.9232 59.4925 43.1999 58.7693 42.3078 58.7693C41.4156 58.7693 40.6924 59.4925 40.6924 60.3847C40.6924 61.2768 41.4156 62.0001 42.3078 62.0001Z" fill="#FFDC83"/>
<path d="M32.2308 60.3847C32.2308 61.2768 31.5075 62.0001 30.6154 62.0001C29.7232 62.0001 29 61.2768 29 60.3847C29 59.4925 29.7232 58.7693 30.6154 58.7693C31.5075 58.7693 32.2308 59.4925 32.2308 60.3847Z" fill="#008F91"/>
<path d="M32.2079 60.6572C31.8084 60.8737 31.3265 61.0001 30.8076 61.0001C30.0968 61.0001 29.4552 60.7628 29 60.3817L29 60.3847C29 61.2769 29.7232 62.0001 30.6154 62.0001C31.4147 62.0001 32.0784 61.4196 32.2079 60.6572Z" fill="#003F44"/>
<path fill-rule="evenodd" clip-rule="evenodd" d="M33.2308 60.3847C33.2308 61.8291 32.0598 63.0001 30.6154 63.0001C29.1709 63.0001 28 61.8291 28 60.3847C28 58.9402 29.1709 57.7693 30.6154 57.7693C32.0598 57.7693 33.2308 58.9402 33.2308 60.3847ZM30.6154 62.0001C31.5075 62.0001 32.2308 61.2768 32.2308 60.3847C32.2308 59.4925 31.5075 58.7693 30.6154 58.7693C29.7232 58.7693 29 59.4925 29 60.3847C29 61.2768 29.7232 62.0001 30.6154 62.0001Z" fill="#FFDC83"/>
<path fill-rule="evenodd" clip-rule="evenodd" d="M55.2282 53.9949C56.3578 53.9017 57.5698 54.6127 57.938 56.1024C58.194 57.1385 57.8694 58.052 57.2406 58.7955C57.9065 58.8307 58.5914 58.7066 59.2011 58.3982C59.4475 58.2735 59.7483 58.3722 59.8729 58.6186C59.9976 58.865 59.8989 59.1659 59.6525 59.2905C58.5823 59.8319 57.3579 59.9196 56.2734 59.663C54.4997 60.9048 51.6708 61.5161 49.2999 61.213C49.026 61.178 48.8324 60.9275 48.8674 60.6536C48.9024 60.3797 49.1528 60.186 49.4268 60.2211C51.3304 60.4645 53.5419 60.0478 55.0923 59.2157C54.0883 58.6713 53.3158 57.7575 53.212 56.5493C53.1486 55.8105 53.3481 55.1874 53.7394 54.7342C54.1262 54.2862 54.6691 54.0411 55.2282 53.9949ZM56.0671 58.5602C56.8422 57.8972 57.1654 57.1445 56.9672 56.3423C56.7168 55.329 55.9508 54.9387 55.3105 54.9915C54.9846 55.0185 54.6944 55.1583 54.4963 55.3878C54.3025 55.6121 54.165 55.9591 54.2083 56.4637C54.2896 57.4091 55.0154 58.1814 56.0671 58.5602Z" fill="#C24F75"/>
<path fill-rule="evenodd" clip-rule="evenodd" d="M63.4995 56.5001C62.9472 56.5001 62.4995 56.9478 62.4995 57.5001C62.4995 58.0524 62.9472 58.5001 63.4995 58.5001C64.0518 58.5001 64.4995 58.0524 64.4995 57.5001C64.4995 56.9478 64.0518 56.5001 63.4995 56.5001ZM61.4995 57.5001C61.4995 56.3956 62.3949 55.5001 63.4995 55.5001C64.6041 55.5001 65.4995 56.3956 65.4995 57.5001C65.4995 58.6047 64.6041 59.5001 63.4995 59.5001C62.3949 59.5001 61.4995 58.6047 61.4995 57.5001Z" fill="#C24F75"/>
</g>
<defs>
<filter id="filter0_d_1_3202" x="17" y="18" width="33.0012" height="34.0901" filterUnits="userSpaceOnUse" color-interpolation-filters="sRGB">
<feFlood flood-opacity="0" result="BackgroundImageFix"/>
<feColorMatrix in="SourceAlpha" type="matrix" values="0 0 0 0 0 0 0 0 0 0 0 0 0 0 0 0 0 0 127 0" result="hardAlpha"/>
<feOffset dx="7" dy="2"/>
<feGaussianBlur stdDeviation="2"/>
<feComposite in2="hardAlpha" operator="out"/>
<feColorMatrix type="matrix" values="0 0 0 0 0 0 0 0 0 0 0 0 0 0 0 0 0 0 0.25 0"/>
<feBlend mode="normal" in2="BackgroundImageFix" result="effect1_dropShadow_1_3202"/>
<feBlend mode="normal" in="SourceGraphic" in2="effect1_dropShadow_1_3202" result="shape"/>
</filter>
<clipPath id="clip0_1_3202">
<path d="M0 16C0 7.16344 7.16344 0 16 0H64C72.8366 0 80 7.16344 80 16V64C80 72.8366 72.8366 80 64 80H16C7.16344 80 0 72.8366 0 64V16Z" fill="white"/>
</clipPath>
</defs>
</svg>
