<svg width="80" height="80" viewBox="0 0 80 80" fill="none" xmlns="http://www.w3.org/2000/svg">
<rect width="80" height="80" fill="#FFD874"/>
<path fill-rule="evenodd" clip-rule="evenodd" d="M38.1712 20.7195L57.2402 18.7699C60.5374 18.4328 63.4806 20.8537 63.814 24.1771L64.1737 27.7638C64.5071 31.0871 62.1044 34.0545 58.8072 34.3916L54.9968 34.7812C56.2368 37.1767 57.5398 39.6778 57.5398 39.6778L47.9371 35.503L39.7382 36.3412C36.441 36.6783 33.4978 34.2575 33.1645 30.9341L32.8047 27.3474C32.4713 24.024 34.874 21.0566 38.1712 20.7195Z" fill="#C24F75"/>
<path d="M43.4332 28.8004L43.6934 31.3987L42.4248 31.5245L42.1746 28.986C42.1635 28.7534 42.0796 28.5303 41.9349 28.3486C41.8631 28.2829 41.7768 28.2352 41.6831 28.2095C41.5895 28.1838 41.491 28.1808 41.396 28.2008C41.272 28.2074 41.1509 28.2408 41.0409 28.2988C40.931 28.3568 40.8348 28.438 40.7589 28.5368C40.6807 28.6443 40.6247 28.7665 40.5942 28.8961C40.5637 29.0258 40.5593 29.1602 40.5813 29.2915L40.8246 31.6754L39.5561 31.8013L38.9262 25.5914L40.1951 25.4536L40.4457 27.9803C40.5662 27.7437 40.7481 27.5442 40.9722 27.4031C41.2022 27.2549 41.4647 27.1654 41.7368 27.1424C42.7441 27.0557 43.3178 27.5968 43.4332 28.8004Z" fill="white"/>
<path d="M45.5495 30.9851C45.1958 30.8454 44.8937 30.5995 44.6847 30.2809C44.4526 29.9222 44.3189 29.5085 44.297 29.0814C44.2479 28.6805 44.3016 28.2736 44.453 27.8993C44.5936 27.5483 44.8385 27.2494 45.1545 27.0432C45.5138 26.8141 45.9251 26.6802 46.3499 26.6539C46.7485 26.6094 47.152 26.6588 47.5282 26.7983C47.876 26.9425 48.173 27.1876 48.3812 27.5021C48.6133 27.8608 48.747 28.2745 48.7688 28.7016C48.8154 29.1017 48.766 29.5071 48.6247 29.8841C48.4803 30.2328 48.2362 30.5307 47.9232 30.7402C47.5639 30.9693 47.1526 31.1032 46.7278 31.1295C46.3292 31.174 45.9257 31.1246 45.5495 30.9851ZM47.3625 29.7727C47.5175 29.4752 47.57 29.1345 47.5117 28.804C47.5015 28.4686 47.3783 28.1467 47.1622 27.8907C47.0661 27.7923 46.948 27.7183 46.8177 27.675C46.6874 27.6316 46.5487 27.62 46.4131 27.6412C46.2747 27.6499 46.14 27.6897 46.019 27.7578C45.898 27.8258 45.7939 27.9204 45.7144 28.0345C45.5571 28.331 45.5006 28.671 45.5535 29.0027C45.6452 29.8366 46.012 30.2045 46.6975 30.2263C46.8442 30.2162 46.9862 30.1695 47.1105 30.0906C47.2349 30.0117 47.3377 29.9029 47.4098 29.7742L47.3625 29.7727Z" fill="white"/>
<path d="M50.6447 30.4492C50.2995 30.3008 50.0036 30.0567 49.7918 29.7454C49.5529 29.3891 49.4148 28.9744 49.3923 28.5455C49.3491 28.1447 49.4026 27.7392 49.5482 27.3634C49.6927 27.0148 49.9368 26.7169 50.2498 26.5073C50.6091 26.2783 51.0203 26.1444 51.4451 26.1181C51.8438 26.0649 52.2493 26.1146 52.6235 26.2625C52.9706 26.4022 53.2679 26.6433 53.4769 26.9545C53.7035 27.3167 53.8404 27.7281 53.8763 28.1543C53.9186 28.5552 53.8651 28.9604 53.7204 29.3364C53.5724 29.6829 53.329 29.9799 53.0188 30.1925C52.6604 30.4235 52.2487 30.5576 51.8235 30.5818C51.4256 30.6289 51.0223 30.5835 50.6447 30.4492ZM52.4578 29.2368C52.5884 28.9329 52.6396 28.6007 52.6066 28.2714C52.5737 27.9422 52.4576 27.6268 52.2693 27.3552C52.1721 27.2584 52.0539 27.1855 51.9239 27.1422C51.7939 27.0989 51.6558 27.0865 51.5202 27.1058C51.3796 27.1117 51.2422 27.1502 51.1189 27.2184C50.9957 27.2865 50.8898 27.3825 50.8097 27.4986C50.6555 27.7964 50.6031 28.1367 50.6606 28.4673C50.7405 29.3008 51.1073 29.6686 51.8068 29.6197C51.9369 29.6086 52.0629 29.5685 52.1755 29.5023C52.2882 29.436 52.3846 29.3453 52.4578 29.2368Z" fill="white"/>
<path d="M56.1323 26.6745L56.3037 28.344C56.3059 28.4395 56.329 28.5334 56.3711 28.6189C56.4133 28.7044 56.4736 28.7796 56.5478 28.8392C56.6901 28.942 56.8662 28.9859 57.0398 28.9619C57.1814 28.9387 57.3208 28.9034 57.4564 28.8563L57.5549 29.846C57.327 29.9553 57.0805 30.02 56.8286 30.0368C56.6106 30.0752 56.387 30.0661 56.1729 30.01C55.9587 29.954 55.759 29.8523 55.5873 29.7119C55.2536 29.398 55.0554 28.9649 55.0351 28.5056L54.8645 26.8123L54.059 26.8935L53.9712 25.9398L54.7767 25.8586L54.6668 24.8566L55.8648 24.3124L56.0087 25.7315L57.0867 25.6233L57.1863 26.5774L56.1323 26.6745Z" fill="white"/>
<path d="M58.2679 27.9209L57.4543 23.8611L59.0121 23.7086L59.0352 27.8383L58.2679 27.9209ZM58.0255 28.52L59.3827 28.3849L59.5164 29.7456L58.1588 29.8927L58.0255 28.52Z" fill="white"/>
<path fill-rule="evenodd" clip-rule="evenodd" d="M22.7455 41.7167L43.9329 39.5502C47.5964 39.1756 50.8665 41.8658 51.2369 45.5588L51.6366 49.5444C52.007 53.2375 49.3374 56.535 45.6739 56.9096L42.1938 57.2654L29.5024 62.7837C29.5024 62.7837 30.6153 60.6471 31.8182 58.3264L24.4865 59.0761C20.823 59.4507 17.5529 56.7606 17.1825 53.0675L16.7828 49.0819C16.4124 45.3889 19.082 42.0913 22.7455 41.7167Z" fill="#C24F75"/>
<path d="M28.5929 50.6965L28.882 53.5839L27.4725 53.7237L27.1945 50.9027C27.1822 50.6443 27.089 50.3965 26.9281 50.1945C26.8484 50.1215 26.7525 50.0685 26.6484 50.04C26.5443 50.0114 26.435 50.0081 26.3294 50.0302C26.1916 50.0376 26.057 50.0747 25.9349 50.1392C25.8127 50.2036 25.7058 50.2939 25.6215 50.4037C25.5346 50.5231 25.4724 50.6589 25.4385 50.8029C25.4046 50.947 25.3997 51.0964 25.4242 51.2423L25.6945 53.8914L24.2851 54.0312L23.5853 47.1306L24.9951 46.9775L25.2735 49.7853C25.4074 49.5223 25.6096 49.3007 25.8586 49.1438C26.1141 48.9792 26.4057 48.8797 26.7081 48.8541C27.8273 48.7578 28.4647 49.359 28.5929 50.6965Z" fill="white"/>
<path d="M30.9448 53.1242C30.5518 52.969 30.2162 52.6957 29.9839 52.3417C29.7261 51.9431 29.5775 51.4834 29.5532 51.0088C29.4986 50.5633 29.5583 50.1111 29.7265 49.6951C29.8827 49.3052 30.1549 48.973 30.5059 48.7438C30.9052 48.4893 31.3621 48.3405 31.8341 48.3112C32.277 48.2618 32.7253 48.3167 33.1433 48.4717C33.5297 48.632 33.8597 48.9043 34.0911 49.2538C34.3489 49.6524 34.4975 50.1121 34.5218 50.5867C34.5735 51.0313 34.5186 51.4818 34.3616 51.9008C34.2012 52.2882 33.9299 52.6193 33.5822 52.8521C33.1829 53.1066 32.726 53.2555 32.254 53.2847C31.8111 53.3342 31.3628 53.2792 30.9448 53.1242ZM32.9592 51.7769C33.1315 51.4463 33.1897 51.0678 33.1249 50.7005C33.1136 50.3278 32.9768 49.9701 32.7367 49.6856C32.6299 49.5763 32.4987 49.4941 32.3539 49.4459C32.2092 49.3977 32.055 49.3848 31.9043 49.4084C31.7505 49.418 31.6009 49.4622 31.4665 49.5379C31.3321 49.6135 31.2164 49.7187 31.128 49.8454C30.9533 50.175 30.8905 50.5527 30.9492 50.9214C31.0511 51.848 31.4587 52.2568 32.2203 52.281C32.3834 52.2698 32.5411 52.2179 32.6793 52.1302C32.8174 52.0425 32.9317 51.9217 33.0117 51.7786L32.9592 51.7769Z" fill="white"/>
<path d="M36.6062 52.5287C36.2226 52.3638 35.8939 52.0924 35.6585 51.7465C35.3931 51.3506 35.2397 50.8898 35.2147 50.4132C35.1667 49.9678 35.2261 49.5172 35.388 49.0996C35.5484 48.7122 35.8196 48.3811 36.1674 48.1483C36.5666 47.8938 37.0236 47.745 37.4956 47.7157C37.9385 47.6566 38.3891 47.7118 38.8048 47.8762C39.1905 48.0315 39.5208 48.2993 39.753 48.6451C40.0048 49.0477 40.157 49.5048 40.1968 49.9784C40.2438 50.4239 40.1844 50.8742 40.0236 51.2921C39.8592 51.6771 39.5888 52.0071 39.2441 52.2434C38.8459 52.5 38.3884 52.649 37.9159 52.676C37.4739 52.7283 37.0258 52.6779 36.6062 52.5287ZM38.6207 51.1814C38.7658 50.8437 38.8228 50.4745 38.7861 50.1086C38.7495 49.7427 38.6205 49.3923 38.4113 49.0904C38.3033 48.9829 38.172 48.9019 38.0275 48.8538C37.8831 48.8057 37.7296 48.7918 37.5789 48.8133C37.4227 48.8199 37.2701 48.8627 37.1331 48.9384C36.9962 49.0142 36.8785 49.1208 36.7895 49.2498C36.6182 49.5807 36.56 49.9589 36.6238 50.3263C36.7126 51.2525 37.1202 51.6612 37.8974 51.6068C38.042 51.5946 38.1819 51.55 38.3071 51.4764C38.4323 51.4027 38.5394 51.3019 38.6207 51.1814Z" fill="white"/>
<path d="M42.7028 48.334L42.8933 50.1893C42.8958 50.2954 42.9214 50.3996 42.9682 50.4947C43.0151 50.5898 43.0821 50.6733 43.1644 50.7395C43.3226 50.8537 43.5183 50.9025 43.7112 50.8758C43.8685 50.8501 44.0234 50.8108 44.1741 50.7585L44.2835 51.8583C44.0302 51.9798 43.7564 52.0517 43.4765 52.0703C43.2343 52.113 42.9858 52.1029 42.7479 52.0406C42.51 51.9783 42.2881 51.8653 42.0973 51.7093C41.7265 51.3604 41.5063 50.8792 41.4838 50.3688L41.2942 48.4871L40.3992 48.5774L40.3016 47.5176L41.1966 47.4274L41.0745 46.3139L42.4057 45.7092L42.5656 47.2861L43.7632 47.1659L43.8739 48.2261L42.7028 48.334Z" fill="white"/>
<path d="M45.076 49.7192L44.1721 45.2078L45.903 45.0383L45.9286 49.6274L45.076 49.7192ZM44.8067 50.385L46.3147 50.2347L46.4632 51.7469L44.9548 51.9103L44.8067 50.385Z" fill="white"/>
</svg>
