<svg width="80" height="80" viewBox="0 0 80 80" fill="none" xmlns="http://www.w3.org/2000/svg">
<g clip-path="url(#clip0_1_3196)">
<rect width="80" height="80" fill="#F1CEC7"/>
<path d="M43.8559 54.6293C36.8159 50.8999 27.3942 54.082 21.8718 57.4567C16.3495 60.8314 9.43807 66.3001 7.84975 73.3766C6.26142 80.453 18.9716 87.6174 25.3203 85.0752C27.3496 78.1028 42.3762 73.1855 35.5435 70.1073C41.8024 67.584 42.7447 65.6661 40.3557 63.8489C39.8511 61.8636 45.6052 61.0227 46.682 59.8788C47.7589 58.7348 48.3332 57.0011 43.8559 54.6293Z" fill="#FF9C39"/>
<path d="M40.8946 56.835C40.463 55.2693 37.4016 54.7475 34.0566 55.6695C30.7117 56.5915 28.35 58.6081 28.7816 60.1738C29.2131 61.7395 32.2746 62.2614 35.6195 61.3394C38.9644 60.4174 41.3262 58.4007 40.8946 56.835Z" fill="#F6871F"/>
<path d="M33.7053 56.9326C34.0223 56.7984 34.2986 56.5859 34.5074 56.3157C34.7163 56.0456 34.8507 55.7271 34.8975 55.3909C34.9443 55.0547 34.902 54.7124 34.7746 54.397C34.6473 54.0816 34.4393 53.804 34.1707 53.5909L28.5175 49.193C28.2356 48.9741 27.8987 48.834 27.5425 48.7876C27.1863 48.7412 26.824 48.7902 26.4938 48.9295C26.1795 49.0673 25.9069 49.2826 25.7023 49.5546C25.4976 49.8265 25.368 50.1459 25.326 50.4817C25.284 50.8174 25.331 51.1581 25.4625 51.4707C25.594 51.7834 25.8055 52.0572 26.0764 52.2658L31.7234 56.6802C32.0035 56.887 32.3332 57.0189 32.6805 57.0631C33.0278 57.1073 33.3809 57.0624 33.7053 56.9326Z" fill="#92E0CC"/>
<path d="M52.8857 47.5268C53.1513 46.6654 53.1818 45.7411 52.9744 44.8433C52.7669 43.9456 52.3285 43.1049 51.7015 42.4027C51.0746 41.7006 50.2805 41.1607 49.396 40.8356C48.5116 40.5104 47.567 40.4108 46.6536 40.5466L27.6121 43.5634C26.6632 43.7145 25.7855 44.116 25.0715 44.7254C24.3576 45.3348 23.834 46.1295 23.5559 47.0257C23.3024 47.8882 23.2841 48.8106 23.5029 49.7034C23.7216 50.5962 24.1699 51.4291 24.8043 52.1212C25.4386 52.8132 26.2375 53.3409 27.1233 53.6531C28.009 53.9652 28.9516 54.0511 29.8595 53.9025L48.9254 50.9279C49.8453 50.7583 50.6935 50.3558 51.3876 49.7598C52.0816 49.1637 52.5977 48.3944 52.8857 47.5268Z" fill="black" fill-opacity="0.25"/>
<path d="M19.1612 44.0298C19.6197 43.2774 20.3497 42.7224 21.2058 42.4754C23.3178 41.837 23.8402 42.0086 26.7664 38.5143C33.8702 30.0458 39.7169 23.9738 39.7169 23.9738L51.9919 49.8869C51.9919 49.8869 41.3492 50.4412 31.9773 50.5116C27.5174 50.5411 27.6107 50.9207 25.5069 52.1792C25.1251 52.4162 24.698 52.5738 24.2519 52.6423C23.8058 52.7109 23.3502 52.6889 22.9131 52.5777C22.0349 52.3486 21.2193 51.9306 20.5253 51.3541C19.8313 50.7775 19.2762 50.0567 18.8999 49.2436C18.5277 48.4145 18.3575 47.5115 18.4028 46.6063C18.4482 45.7012 18.7078 44.8189 19.1612 44.0298Z" fill="#E8FFFA"/>
<path d="M39.6705 39.3491C42.8597 46.6949 48.6285 51.3184 52.5415 49.671C56.4546 48.0235 57.7571 40.4377 54.5679 33.0919C51.3786 25.7462 44.9111 21.4489 40.9864 23.0659C37.0617 24.6828 36.4812 32.0034 39.6705 39.3491Z" fill="#00A7A7"/>
<path d="M52.8102 49.5474C48.9582 49.5632 45.8308 44.2263 42.996 37.6969C40.2326 31.332 38.5325 25.8858 41.0148 23.0551C41.0059 23.0586 40.997 23.0623 40.9882 23.0659C37.0635 24.6829 36.483 32.0034 39.6723 39.3491C42.8615 46.6949 48.6303 51.3184 52.5433 49.671C52.6337 49.6329 52.7226 49.5917 52.8102 49.5474Z" fill="black" fill-opacity="0.25"/>
<path d="M44.7804 37.3337C46.1707 40.544 45.211 44.0216 43.5055 44.7412C43.2769 44.8338 43.0318 44.8806 42.7846 44.8789C40.2862 41.4999 38.6011 37.6072 37.8565 33.4945C38.0254 33.3184 38.2296 33.1786 38.4562 33.0839C40.1663 32.4036 43.383 34.1321 44.7804 37.3337Z" fill="#005960"/>
<path d="M26.7881 38.488L28.0104 37.035C27.613 38.5455 27.4336 41.0823 28.9325 44.5271C30.5456 48.2536 32.6669 49.828 34.0251 50.4938L32.2203 50.5079C30.3486 49.0339 28.9078 47.0985 28.0447 44.8988C27.1095 42.8917 26.6785 40.693 26.7881 38.488Z" fill="#066360"/>
<path d="M24.4569 40.9828C24.7356 40.7361 25.0408 40.4386 25.4035 40.0789C25.4005 41.9546 25.8066 43.8093 26.5944 45.5177C27.3664 47.4713 28.6199 49.2059 30.2422 50.5657C29.7227 50.6247 29.2775 50.6276 28.9153 50.7166C27.5375 49.3444 26.4511 47.7166 25.7192 45.9278C25.0095 44.3641 24.5824 42.6907 24.4569 40.9828Z" fill="#066360"/>
<path fill-rule="evenodd" clip-rule="evenodd" d="M58.8918 19.6174C59.4826 20.2732 59.4283 21.2692 58.7704 21.8419L55.3475 24.8217C54.6896 25.3944 53.6772 25.3271 53.0864 24.6713C52.4956 24.0154 52.55 23.0195 53.2079 22.4467L56.6308 19.467C57.2887 18.8942 58.301 18.9616 58.8918 19.6174Z" fill="#FF7900"/>
<path fill-rule="evenodd" clip-rule="evenodd" d="M67.9665 42.9889C67.966 42.1162 67.2504 41.4051 66.3683 41.4006L61.7963 41.3772C60.9142 41.3727 60.1995 42.0765 60.2 42.9492C60.2006 43.8219 60.9161 44.5331 61.7983 44.5376L66.3703 44.5609C67.2524 44.5654 67.9671 43.8616 67.9665 42.9889Z" fill="#FF7900"/>
<path fill-rule="evenodd" clip-rule="evenodd" d="M67.699 30.3282C67.3769 29.5114 66.45 29.0986 65.6288 29.4061L60.3351 31.3884C59.5138 31.6959 59.1091 32.6074 59.4312 33.4242C59.7532 34.241 60.6801 34.6538 61.5014 34.3463L66.7951 32.364C67.6164 32.0565 68.0211 31.145 67.699 30.3282Z" fill="#FF7900"/>
</g>
<defs>
<clipPath id="clip0_1_3196">
<path d="M0 16C0 7.16344 7.16344 0 16 0H64C72.8366 0 80 7.16344 80 16V64C80 72.8366 72.8366 80 64 80H16C7.16344 80 0 72.8366 0 64V16Z" fill="white"/>
</clipPath>
</defs>
</svg>
