<svg width="80" height="80" viewBox="0 0 80 80" fill="none" xmlns="http://www.w3.org/2000/svg">
<g clip-path="url(#clip0_1_3201)">
<rect width="80" height="80" fill="#89E2C4"/>
<path d="M14.7303 54.3675C11.7262 58.788 9.22328 77.4525 10.2241 83.3465H27.7189C27.7189 83.3465 26.4734 81.5034 29.5362 71.9882C32.5991 62.473 41.3488 55.6323 41.3488 55.6323L23.2414 47C23.2414 47 17.7345 51.4205 14.7303 54.3675Z" fill="#FAC99B"/>
<path d="M28.3397 70.8624L32.6637 62.7538C32.6637 62.7538 27.2886 58.0732 26.6921 58.2457C26.6921 58.2457 23.9147 69.5309 28.3397 70.8624Z" fill="#EFA560"/>
<path d="M71.9998 45.0001C76.2161 36.8491 80.7353 12.1656 82.0001 6.00005L63.4998 -3.49994C63.4998 -3.49994 66.65 10.6526 62.4998 20C58.3495 29.3475 52.546 40.1289 52.546 40.1289L58.4998 54.5001C58.4998 54.5001 68.5001 49.5 71.9998 45.0001Z" fill="#FAC99B"/>
<path d="M49.0574 44.5415C49.0574 44.5415 50.5454 47.9798 54.5609 45.5384C59.1701 42.736 64.9998 34.5 64.9998 34.5C64.9998 34.5 60.9882 39.2758 49.0574 44.5415Z" fill="#EFA560"/>
<path d="M79.9141 21.5C80.0717 16.7717 81.0002 10 77.5002 5.49999C75.851 6.48653 78.5317 15.3096 77.5001 21.5C76.0002 30.5 73.5002 40.8768 70.5002 45.5C67.5002 50.1232 59.7686 51.8807 59.9999 53.5C64.5 51.5 70.2544 48 71.9999 45C74.6181 40.5 79.8646 22.9847 79.9141 21.5Z" fill="#EFA560"/>
<path d="M28.681 11.2056C28.6919 10.8182 29.1921 10.6712 29.4109 10.9909L31.4239 13.9321C31.5218 14.0752 31.7006 14.1389 31.8668 14.09L35.2862 13.0844C35.6579 12.9751 35.9524 13.4053 35.7159 13.7123L33.5406 16.5356C33.4349 16.6729 33.4295 16.8627 33.5274 17.0057L35.5404 19.9469C35.7592 20.2667 35.441 20.6797 35.076 20.5496L31.7187 19.3533C31.5555 19.2951 31.3733 19.3487 31.2676 19.486L29.0923 22.3093C28.8558 22.6163 28.3647 22.4413 28.3756 22.0539L28.4759 18.4912C28.4808 18.318 28.3736 18.1614 28.2103 18.1032L24.853 16.9069C24.488 16.7768 24.5027 16.2557 24.8744 16.1463L28.2937 15.1408C28.46 15.0919 28.5758 14.9415 28.5807 14.7683L28.681 11.2056Z" fill="#FF7900"/>
<path d="M22.7983 47.2537L56.512 36.6639L62.9415 57.1329L29.2278 67.7227L22.7983 47.2537Z" fill="#14B1B0"/>
<path d="M28.9397 67.8181L62.9427 57.1375L58.7559 60.131L28.9394 68.9999L28.9397 67.8181Z" fill="black" fill-opacity="0.25"/>
<path d="M22.7983 47.2537L56.512 36.6639L58.7812 43.8883L25.0676 54.478L22.7983 47.2537Z" fill="#005960"/>
<path d="M56.5236 30.6111L18.7613 42.4711L22.2509 53.5795L60.0133 41.7195L56.5236 30.6111Z" fill="#00C9C3"/>
<path d="M43.9363 34.5367L31.8921 38.3071L40.0352 64.3167L52.0794 60.5463L43.9363 34.5367Z" fill="#005960"/>
<path d="M42.734 34.9131L33.0986 37.9294L41.2418 63.9391L50.8771 60.9227L42.734 34.9131Z" fill="#FBBE24"/>
<path opacity="0.9" fill-rule="evenodd" clip-rule="evenodd" d="M19.6296 36.7726C20.6776 37.6472 21.9344 38.3108 23.3253 38.7241C24.7162 39.1374 26.2128 39.2918 27.726 39.1782C31.0116 38.7784 34.2499 37.9201 37.3167 36.636C37.3167 36.636 29.2785 37.1072 27.035 36.0885C25.671 35.4681 24.4562 34.6401 23.4414 33.6392C22.6642 33.9179 21.9294 34.296 21.2624 34.7603C20.554 35.3204 19.9941 36.0105 19.6296 36.7726Z" fill="#FF7900"/>
<path opacity="0.9" d="M24.172 34.3015C23.9182 34.0901 23.4412 33.6392 23.4412 33.6392C23.4412 33.6392 22.5 34.3015 21.5 34.9999C20.5 35.6984 19.6294 36.7726 19.6294 36.7726C19.6294 36.7726 20.2034 37.2242 20.5113 37.4267L24.172 34.3015Z" fill="black" fill-opacity="0.25"/>
<path opacity="0.9" fill-rule="evenodd" clip-rule="evenodd" d="M52.2666 27.3581C52.2666 27.3581 51.9004 30.2868 46.7939 33.1093C43.8548 34.7674 40.6422 35.9631 37.3153 36.637C37.3153 36.637 43.9255 32.1211 45.4462 29.7089C46.2783 28.5082 46.7421 27.1592 46.7877 25.8067C47.7325 25.5396 48.7058 25.4006 49.6726 25.3948C51.1157 25.3624 52.2666 27.3581 52.2666 27.3581Z" fill="#FF7900"/>
<path opacity="0.9" d="M51.9688 28.2527C52.2247 27.6959 52.2669 27.3581 52.2669 27.3581C52.0002 27 49.4998 26.5 49.4998 26.5C49.4998 26.5 47.5 26.5 46.6599 26.902C46.5984 27.2086 46.5158 27.513 46.4126 27.8134L51.9688 28.2527Z" fill="black" fill-opacity="0.25"/>
<path fill-rule="evenodd" clip-rule="evenodd" d="M19.7072 36.8534C19.7072 36.8534 17.0815 33.7722 17.8112 30.8042C18.3742 29.0794 19.5531 27.5158 21.1656 26.3553C22.7781 25.1948 24.7342 24.502 26.7314 24.3841C28.61 24.4099 30.3937 24.908 31.8742 25.8205C33.3547 26.7329 34.4709 28.0219 35.0926 29.5371L37.3535 36.7663C37.3535 36.7663 30.7086 31.8596 26.3041 32.7964C23.662 33.3821 21.294 34.8384 19.7072 36.8534Z" fill="#FBBE24"/>
<path fill-rule="evenodd" clip-rule="evenodd" d="M52.2659 27.3587C52.2659 27.3587 52.2804 22.2662 49.1083 20.181C47.8892 19.4039 46.4156 18.9636 44.8545 18.9102C43.2934 18.8568 41.7074 19.1924 40.2762 19.8789C38.5875 20.7716 34.4267 24.4186 35.0769 28.1779C35.6581 31.0789 36.4168 33.937 37.3498 36.7401C37.3498 36.7401 40.3264 29.6802 44.4834 27.6555C45.7172 27.0701 47.0651 26.738 48.4175 26.6865C49.7699 26.6349 51.0885 26.8653 52.2659 27.3587Z" fill="#FBBE24"/>
<g filter="url(#filter0_d_1_3201)">
<path d="M65.4775 17.3971C66.9973 19.5332 69.5759 28.7613 65.3327 33.4384C62.9897 36.021 63.2574 35.8157 56.2994 41.5795C50.4265 46.4444 51.8732 49.9107 46.061 46.7245C39.2885 43.012 51 29.5 65.4775 17.3971Z" fill="#FAC99B"/>
</g>
<path d="M49.691 46.801C50.7767 46.1337 52.6025 44.243 53.1149 43.045C53.2272 42.7823 53.23 42.4314 53.1508 42.0496C52.9351 41.0094 50.2558 39.7744 49.3809 39.4392C49.1121 39.3363 48.9935 39.3802 48.4459 39.3729C47.5081 39.3604 45.662 43.1855 45.6218 44.2932C45.5781 45.4975 48.2525 47.685 49.691 46.801Z" fill="#FFEDD2"/>
<mask id="mask0_1_3201" style="mask-type:alpha" maskUnits="userSpaceOnUse" x="45" y="39" width="9" height="9">
<path d="M49.9289 47.334C51.0147 46.6668 52.6024 44.243 53.1148 43.045C53.2271 42.7823 53.2299 42.4314 53.1507 42.0496C52.935 41.0094 50.2557 39.7744 49.3808 39.4392C49.112 39.3363 48.9934 39.3802 48.4458 39.3729C47.508 39.3604 46.0372 44.0004 45.997 45.1081C45.9533 46.3124 48.4905 48.218 49.9289 47.334Z" fill="#FFEDD2"/>
</mask>
<g mask="url(#mask0_1_3201)">
<path d="M53.0351 40.9072C52.6898 40.075 50.5103 38.9815 49.4235 38.838C47.2338 38.5489 49.1379 40.5566 49.8967 41.1892C50.4587 41.6578 53.7314 42.5853 53.0351 40.9072Z" fill="#FFFDFC"/>
</g>
<path d="M52.4523 36.98C52.8483 37.6548 54.0992 38.419 55.329 38.5516C57.8068 38.8188 56.0892 37.6232 55.227 37.1023C54.5884 36.7165 51.6537 35.6191 52.4523 36.98Z" fill="#EFA560"/>
<path d="M52.4196 35.7292C52.989 36.3918 54.8355 37.1141 56.6725 37.204C60.3739 37.3851 57.8435 36.2466 56.5706 35.7547C55.6277 35.3903 51.2713 34.3928 52.4196 35.7292Z" fill="#EFA560"/>
<g filter="url(#filter1_d_1_3201)">
<path d="M27.9204 83.233C29.8373 83.3721 36.5662 77.5413 37.8465 72.996C38.5647 70.4461 38.9911 69.5494 40.559 65.6652C44.7149 55.369 44.8415 51.9963 40.2995 50.8788C36.4372 49.9284 34.3598 56.734 32.2463 61.0765C26.1462 69.8008 21.067 82.2739 27.9204 83.233Z" fill="#FAC99B"/>
</g>
<path d="M39.0372 51.3536C38.2021 52.1557 36.9461 54.1872 36.7226 55.3499C36.6736 55.6048 36.7389 55.9169 36.883 56.2406C37.2755 57.1225 39.893 57.7015 40.7345 57.8301C40.993 57.8696 41.0898 57.8077 41.5775 57.7084C42.4126 57.5384 43.3129 53.7855 43.1346 52.7942C42.9408 51.7165 40.1436 50.2908 39.0372 51.3536Z" fill="#FFEDD2"/>
<mask id="mask1_1_3201" style="mask-type:alpha" maskUnits="userSpaceOnUse" x="36" y="50" width="7" height="8">
<path d="M38.7227 50.9262C37.8876 51.7283 36.946 54.1871 36.7225 55.3498C36.6735 55.6047 36.7388 55.9168 36.8829 56.2405C37.2753 57.1224 39.8929 57.7015 40.7344 57.83C40.9929 57.8696 41.0897 57.8076 41.5773 57.7084C42.4124 57.5383 42.8221 53.1344 42.6438 52.1431C42.45 51.0654 39.8292 49.8634 38.7227 50.9262Z" fill="#FFEDD2"/>
</mask>
<g mask="url(#mask1_1_3201)">
<path d="M37.2062 57.2327C37.6735 57.9048 39.8199 58.4548 40.8125 58.3722C42.8126 58.206 40.7342 56.7911 39.9383 56.376C39.3487 56.0685 36.2637 55.8771 37.2062 57.2327Z" fill="#FFFDFC"/>
</g>
<path d="M35.5384 61.2552C36.0105 61.7868 37.2605 62.247 38.38 62.148C40.6358 61.9485 38.8937 61.1862 38.0332 60.8742C37.3958 60.6431 34.5862 60.1832 35.5384 61.2552Z" fill="#EFA560"/>
<path d="M34.0583 62.8355C34.6829 63.3255 36.4563 63.6432 38.1096 63.3989C41.4407 62.9066 38.9842 62.3387 37.7627 62.1251C36.8579 61.9668 32.7988 61.8472 34.0583 62.8355Z" fill="#EFA560"/>
<path d="M37.5003 74.4696C38.255 72.2081 39.0002 70 40.0002 67C38.6852 67.3581 37.6061 73.0303 35.4998 75.5C33.0006 78.4305 27.7745 83.2727 28.8363 84.867C29.8981 86.4614 31.924 81.2348 33.0003 80C34.5003 78.5 35.8535 77.4775 37.5003 74.4696Z" fill="#EFA560"/>
</g>
<defs>
<filter id="filter0_d_1_3201" x="40.0898" y="17.3972" width="27.5649" height="34.5568" filterUnits="userSpaceOnUse" color-interpolation-filters="sRGB">
<feFlood flood-opacity="0" result="BackgroundImageFix"/>
<feColorMatrix in="SourceAlpha" type="matrix" values="0 0 0 0 0 0 0 0 0 0 0 0 0 0 0 0 0 0 127 0" result="hardAlpha"/>
<feOffset dx="-3" dy="3"/>
<feGaussianBlur stdDeviation="0.5"/>
<feComposite in2="hardAlpha" operator="out"/>
<feColorMatrix type="matrix" values="0 0 0 0 0 0 0 0 0 0 0 0 0 0 0 0 0 0 0.25 0"/>
<feBlend mode="normal" in2="BackgroundImageFix" result="effect1_dropShadow_1_3201"/>
<feBlend mode="normal" in="SourceGraphic" in2="effect1_dropShadow_1_3201" result="shape"/>
</filter>
<filter id="filter1_d_1_3201" x="24.6392" y="49.7889" width="21.052" height="34.4464" filterUnits="userSpaceOnUse" color-interpolation-filters="sRGB">
<feFlood flood-opacity="0" result="BackgroundImageFix"/>
<feColorMatrix in="SourceAlpha" type="matrix" values="0 0 0 0 0 0 0 0 0 0 0 0 0 0 0 0 0 0 127 0" result="hardAlpha"/>
<feOffset dx="1"/>
<feGaussianBlur stdDeviation="0.5"/>
<feComposite in2="hardAlpha" operator="out"/>
<feColorMatrix type="matrix" values="0 0 0 0 0 0 0 0 0 0 0 0 0 0 0 0 0 0 0.25 0"/>
<feBlend mode="normal" in2="BackgroundImageFix" result="effect1_dropShadow_1_3201"/>
<feBlend mode="normal" in="SourceGraphic" in2="effect1_dropShadow_1_3201" result="shape"/>
</filter>
<clipPath id="clip0_1_3201">
<path d="M0 16C0 7.16344 7.16344 0 16 0H64C72.8366 0 80 7.16344 80 16V64C80 72.8366 72.8366 80 64 80H16C7.16344 80 0 72.8366 0 64V16Z" fill="white"/>
</clipPath>
</defs>
</svg>
