<svg width="80" height="80" viewBox="0 0 80 80" fill="none" xmlns="http://www.w3.org/2000/svg">
<g clip-path="url(#clip0_1_3200)">
<rect width="80" height="80" fill="#89E2C4"/>
<path d="M-12.8809 -10.4998L94.619 -8.49975C94.619 -8.49975 51.6192 24.5002 51.6192 56.7977L27.7619 56.7977C27.7574 21.3791 -12.8809 -10.4998 -12.8809 -10.4998Z" fill="#77DFBC"/>
<path d="M16.6504 -4.49976L66.1506 -4.49975C66.1506 -4.49975 40.5751 10.208 42.1506 61.0002L36.1506 61.0002C38.1506 16.5002 16.6504 -4.49976 16.6504 -4.49976Z" fill="#89E9C8"/>
<path d="M22.7715 29.6313C20.8047 28.8201 20.2032 28.2228 19.3856 26.2612C19.3576 26.1849 19.3054 26.1187 19.2363 26.0719C19.1672 26.0251 19.0847 26 19 26C18.9154 26 18.8328 26.0251 18.7637 26.0719C18.6946 26.1187 18.6425 26.1849 18.6144 26.2612C17.7968 28.2228 17.1953 28.8201 15.2285 29.6313C15.1594 29.6675 15.1016 29.7208 15.0614 29.7857C15.0212 29.8506 15 29.9246 15 30C15 30.0754 15.0212 30.1494 15.0614 30.2143C15.1016 30.2792 15.1594 30.3325 15.2285 30.3687C17.1953 31.1799 17.7968 31.7772 18.6144 33.7388C18.6425 33.8151 18.6946 33.8813 18.7637 33.9281C18.8328 33.9749 18.9154 34 19 34C19.0847 34 19.1672 33.9749 19.2363 33.9281C19.3054 33.8813 19.3576 33.8151 19.3856 33.7388C20.2032 31.7772 20.8047 31.1799 22.7715 30.3687C22.8406 30.3325 22.8984 30.2792 22.9386 30.2143C22.9788 30.1494 23 30.0754 23 30C23 29.9246 22.9788 29.8506 22.9386 29.7857C22.8984 29.7208 22.8406 29.6675 22.7715 29.6313Z" fill="#FF7900"/>
<path d="M56.7715 20.6313C54.8047 19.8201 54.2032 19.2228 53.3856 17.2612C53.3576 17.1849 53.3054 17.1187 53.2363 17.0719C53.1672 17.0251 53.0847 17 53 17C52.9154 17 52.8328 17.0251 52.7637 17.0719C52.6946 17.1187 52.6425 17.1849 52.6144 17.2612C51.7968 19.2228 51.1953 19.8201 49.2285 20.6313C49.1594 20.6675 49.1016 20.7208 49.0614 20.7857C49.0212 20.8506 49 20.9246 49 21C49 21.0754 49.0212 21.1494 49.0614 21.2143C49.1016 21.2792 49.1594 21.3325 49.2285 21.3687C51.1953 22.1799 51.7968 22.7772 52.6144 24.7388C52.6425 24.8151 52.6946 24.8813 52.7637 24.9281C52.8328 24.9749 52.9154 25 53 25C53.0847 25 53.1672 24.9749 53.2363 24.9281C53.3054 24.8813 53.3576 24.8151 53.3856 24.7388C54.2032 22.7772 54.8047 22.1799 56.7715 21.3687C56.8406 21.3325 56.8984 21.2792 56.9386 21.2143C56.9788 21.1494 57 21.0754 57 21C57 20.9246 56.9788 20.8506 56.9386 20.7857C56.8984 20.7208 56.8406 20.6675 56.7715 20.6313Z" fill="#FF7900"/>
<path d="M36.6199 20.6846C36.0137 20.8713 35.369 20.9112 34.7429 20.8008C34.1169 20.6904 33.5287 20.433 33.0307 20.0516C32.9794 20.018 32.9187 20 32.8566 20C32.7945 20 32.7338 20.018 32.6825 20.0516C32.6323 20.087 32.5944 20.1362 32.5737 20.1926C32.553 20.2491 32.5504 20.3102 32.5664 20.3681C32.7856 20.9442 32.8535 21.5635 32.764 22.1709C32.6746 22.7783 32.4305 23.3551 32.0536 23.8499C32.0187 23.8993 32 23.9577 32 24.0175C32 24.0772 32.0187 24.1356 32.0536 24.185C32.0901 24.234 32.1407 24.2716 32.1992 24.2931C32.2577 24.3146 32.3214 24.3191 32.3826 24.306C32.9889 24.1156 33.6352 24.0746 34.2622 24.1868C34.8893 24.2991 35.4771 24.5609 35.9717 24.9484C36.0231 24.982 36.0837 25 36.1459 25C36.208 25 36.2687 24.982 36.32 24.9484C36.3692 24.9122 36.4063 24.8629 36.4269 24.8067C36.4476 24.7505 36.4507 24.6898 36.4361 24.6319C36.2107 24.0583 36.1395 23.4393 36.2292 22.8323C36.3188 22.2252 36.5664 21.6498 36.9488 21.1594C36.9823 21.1077 37 21.0481 37 20.9872C37 20.9263 36.9823 20.8667 36.9488 20.815C36.9136 20.7643 36.8635 20.7248 36.805 20.7016C36.7464 20.6784 36.682 20.6725 36.6199 20.6846Z" fill="#066360"/>
<path d="M64.6199 32.6846C64.0137 32.8713 63.369 32.9112 62.7429 32.8008C62.1169 32.6904 61.5287 32.433 61.0307 32.0516C60.9794 32.018 60.9187 32 60.8566 32C60.7945 32 60.7338 32.018 60.6825 32.0516C60.6323 32.087 60.5944 32.1362 60.5737 32.1926C60.553 32.2491 60.5504 32.3102 60.5664 32.3681C60.7856 32.9442 60.8535 33.5635 60.764 34.1709C60.6746 34.7783 60.4305 35.3551 60.0536 35.8499C60.0187 35.8993 60 35.9577 60 36.0175C60 36.0772 60.0187 36.1356 60.0536 36.185C60.0901 36.234 60.1407 36.2716 60.1992 36.2931C60.2577 36.3146 60.3214 36.3191 60.3826 36.306C60.9889 36.1156 61.6352 36.0746 62.2622 36.1868C62.8893 36.2991 63.4771 36.5609 63.9717 36.9484C64.0231 36.982 64.0837 37 64.1459 37C64.208 37 64.2687 36.982 64.32 36.9484C64.3692 36.9122 64.4063 36.8629 64.4269 36.8067C64.4476 36.7505 64.4507 36.6898 64.4361 36.6319C64.2107 36.0583 64.1395 35.4393 64.2292 34.8323C64.3188 34.2252 64.5664 33.6498 64.9488 33.1594C64.9823 33.1077 65 33.0481 65 32.9872C65 32.9263 64.9823 32.8667 64.9488 32.815C64.9136 32.7643 64.8635 32.7248 64.805 32.7016C64.7464 32.6784 64.682 32.6725 64.6199 32.6846Z" fill="#066360"/>
<path d="M26.0002 54H55.0002V69H26.0002V54Z" fill="black" fill-opacity="0.25"/>
<path d="M26.0828 49.5276H54.8602V66.9996H26.0828V49.5276Z" fill="#14B1B0"/>
<path d="M26.0828 49.5276H54.8602V55.6942H26.0828V49.5276Z" fill="#005960"/>
<path d="M56.3467 44.8278L24.1137 44.8266L24.1141 54.3087L56.347 54.3099L56.3467 44.8278Z" fill="#00C9C3"/>
<path d="M45.6107 44.8061L35.333 44.7961L35.3122 66.991L45.5899 67.0009L45.6107 44.8061Z" fill="#005960"/>
<path d="M44.583 44.8048L36.3608 44.7969L36.3401 66.9917L44.5622 66.9997L44.583 44.8048Z" fill="#FBBE24"/>
<path opacity="0.9" fill-rule="evenodd" clip-rule="evenodd" d="M26.1787 40.611C26.7795 41.5463 27.594 42.3686 28.5738 43.0291C29.5536 43.6896 30.6786 44.1748 31.882 44.4559C34.5323 44.9471 37.2576 45.0705 39.9537 44.8213C39.9537 44.8213 33.5936 43.2257 32.0992 41.8868C31.1908 41.0719 30.4491 40.1321 29.9049 39.1068C29.2331 39.1337 28.5699 39.2481 27.9384 39.4461C27.2513 39.7083 26.6479 40.1078 26.1787 40.611Z" fill="#FF7900"/>
<path opacity="0.9" d="M30.2557 39.7128C30.131 39.5144 30.014 39.3123 29.9049 39.1068C29.233 39.1337 28.5699 39.2481 27.9383 39.4461C27.2513 39.7083 26.6479 40.1078 26.1787 40.611C26.3502 40.8779 26.5391 41.1357 26.7442 41.3831L30.2557 39.7128Z" fill="black" fill-opacity="0.25"/>
<path opacity="0.9" fill-rule="evenodd" clip-rule="evenodd" d="M53.8335 41.2616C53.8335 41.2616 52.8342 43.4475 48.1781 44.3943C45.4899 44.9653 42.7022 45.1102 39.953 44.8219C39.953 44.8219 46.1907 42.9265 47.9608 41.4235C48.9003 40.6937 49.5898 39.7588 49.9554 38.7192C50.7546 38.7422 51.5447 38.8718 52.2973 39.1032C53.4264 39.4302 53.8335 41.2616 53.8335 41.2616Z" fill="#FF7900"/>
<path fill-rule="evenodd" clip-rule="evenodd" d="M26.2204 40.6932C26.2204 40.6932 24.9324 37.6586 26.2236 35.5307C27.0819 34.3281 28.3794 33.4011 29.9154 32.8929C31.4514 32.3848 33.1403 32.3239 34.7207 32.7197C36.174 33.1982 37.4382 34.0205 38.3657 35.0907C39.2933 36.1609 39.846 37.4348 39.9592 38.7637L39.9516 44.932C39.9516 44.932 35.9864 39.4983 32.3358 39.1512C30.1402 38.9615 27.945 39.515 26.2204 40.6932Z" fill="#FBBE24"/>
<path opacity="0.9" d="M53.3745 41.8936C53.716 41.5181 53.8333 41.2615 53.8333 41.2615L52.5 40L50.5 39.5C50.5 39.5 49.733 39.2757 49.5875 39.5403C49.4927 39.7129 49.3884 39.8814 49.2749 40.0452L53.3745 41.8936Z" fill="black" fill-opacity="0.25"/>
<path fill-rule="evenodd" clip-rule="evenodd" d="M53.8342 41.2622C53.8342 41.2622 55.0883 37.3091 53.1326 34.915C52.3752 34.0137 51.3377 33.3121 50.1379 32.8896C48.9381 32.4672 47.6239 32.3408 46.3444 32.5249C44.8146 32.8064 40.6919 34.6244 40.2797 37.7038C40.0233 40.0996 39.9153 42.5052 39.9561 44.9107C39.9561 44.9107 43.9916 40.152 47.7153 39.5935C48.8168 39.4398 49.9451 39.5107 51.0084 39.8007C52.0717 40.0907 53.0399 40.5914 53.8342 41.2622Z" fill="#FBBE24"/>
</g>
<defs>
<clipPath id="clip0_1_3200">
<path d="M0 16C0 7.16344 7.16344 0 16 0H64C72.8366 0 80 7.16344 80 16V64C80 72.8366 72.8366 80 64 80H16C7.16344 80 0 72.8366 0 64V16Z" fill="white"/>
</clipPath>
</defs>
</svg>
