<svg width="80" height="80" viewBox="0 0 80 80" fill="none" xmlns="http://www.w3.org/2000/svg">
<rect width="80" height="80" fill="#C6CBF2"/>
<path d="M17.0007 25.9277C17.0007 24.4087 18.1357 23.1188 19.653 23.0467C25.8037 22.7547 33.071 23.8213 38.5088 26.5367C39.4528 27.0082 40.0008 27.9981 40.0008 29.0533V51.1904C40.0008 53.2431 37.9838 54.6854 35.9994 54.1601C30.2277 52.6321 25.6044 52.4072 20.0009 52.3741C18.3441 52.3643 17.0007 51.0253 17.0007 49.3684V25.9277Z" fill="black" fill-opacity="0.2"/>
<path d="M63.0012 25.9277C63.0012 24.4087 61.8663 23.1188 60.349 23.0467C54.1982 22.7547 46.931 23.8213 41.4932 26.5367C40.5492 27.0082 40.0012 27.9981 40.0012 29.0533V51.1904C40.0012 53.2431 42.0181 54.6854 44.0025 54.1601C49.7743 52.6321 54.3976 52.4072 60.0011 52.3741C61.6579 52.3643 63.0012 51.0253 63.0012 49.3684V25.9277Z" fill="black" fill-opacity="0.25"/>
<path d="M17.0007 24.3352C17.0007 22.8162 18.1357 21.5263 19.653 21.4542C25.8037 21.1621 33.071 22.2288 38.5088 24.9442C39.4528 25.4156 40.0008 26.4056 40.0008 27.4607V49.5978C40.0008 51.6506 37.9838 53.0928 35.9994 52.5675C30.2277 51.0396 25.6044 50.8147 20.0009 50.7816C18.3441 50.7718 17.0007 49.4327 17.0007 47.7759V24.3352Z" fill="#E8FFFA"/>
<path fill-rule="evenodd" clip-rule="evenodd" d="M19.7004 22.4531C18.7608 22.4977 18.0007 23.3044 18.0007 24.3352V47.7759C18.0007 48.8775 18.8947 49.775 20.0068 49.7816C25.6409 49.8149 30.3627 50.0409 36.2553 51.6008C37.6552 51.9714 39.0008 50.9436 39.0008 49.5978V27.4607C39.0008 26.7414 38.6301 26.1225 38.062 25.8389C32.8178 23.2201 25.7319 22.1667 19.7004 22.4531ZM19.653 21.4542C18.1357 21.5263 17.0007 22.8162 17.0007 24.3352V47.7759C17.0007 49.4327 18.3441 50.7718 20.0009 50.7816C25.6044 50.8147 30.2277 51.0396 35.9994 52.5675C37.9838 53.0928 40.0008 51.6506 40.0008 49.5978V27.4607C40.0008 26.4056 39.4528 25.4156 38.5088 24.9442C33.071 22.2288 25.8037 21.1621 19.653 21.4542Z" fill="white"/>
<path d="M63.0012 24.3352C63.0012 22.8162 61.8663 21.5263 60.349 21.4542C54.1982 21.1621 46.931 22.2288 41.4932 24.9442C40.5492 25.4156 40.0012 26.4056 40.0012 27.4607V49.5978C40.0012 51.6506 42.0181 53.0928 44.0025 52.5675C49.7743 51.0396 54.3976 50.8147 60.0011 50.7816C61.6579 50.7718 63.0012 49.4327 63.0012 47.7759V24.3352Z" fill="#B3EDE1"/>
<path fill-rule="evenodd" clip-rule="evenodd" d="M62.0012 24.3352C62.0012 23.3044 61.2412 22.4977 60.3016 22.4531C54.2701 22.1667 47.1842 23.2201 41.94 25.8389C41.3719 26.1225 41.0012 26.7414 41.0012 27.4607V49.5978C41.0012 50.9436 42.3467 51.9714 43.7466 51.6008C49.6393 50.0409 54.361 49.8149 59.9952 49.7816C61.1073 49.775 62.0012 48.8775 62.0012 47.7759V24.3352ZM60.349 21.4542C61.8663 21.5263 63.0012 22.8162 63.0012 24.3352V47.7759C63.0012 49.4327 61.6579 50.7718 60.0011 50.7816C54.3976 50.8147 49.7743 51.0396 44.0025 52.5675C42.0181 53.0928 40.0012 51.6506 40.0012 49.5978V27.4607C40.0012 26.4056 40.5492 25.4156 41.4932 24.9442C46.931 22.2288 54.1982 21.1621 60.349 21.4542Z" fill="white"/>
<path d="M46.1877 50.0977C46.8222 48.963 47.1341 47.6748 47.0894 46.3739C47.0447 45.0731 46.6451 43.8096 45.9342 42.7215C45.2234 41.6334 44.2286 40.7626 43.0586 40.2041C41.8886 39.6457 40.5885 39.4211 39.3001 39.555C38.0117 39.6888 36.7847 40.1759 35.7531 40.963C34.7215 41.7501 33.9251 42.807 33.4507 44.0182C32.9764 45.2294 32.8423 46.5483 33.0634 47.8309C33.2844 49.1134 33.8519 50.3102 34.7039 51.2906C35.4798 52.3989 36.1925 53.5504 36.8387 54.7397C37.1538 55.529 37.3941 56.3464 37.5565 57.181H42.4978C42.6695 56.3074 42.9063 55.4481 43.2063 54.6103C43.8334 53.4511 44.5471 52.3414 45.3411 51.2906C45.6089 50.9827 45.8491 50.6516 46.0589 50.3012L46.1877 50.0977Z" fill="#00A7A7"/>
<path d="M41.9762 57.1903H38.1022C37.7872 57.1903 37.5317 57.447 37.5317 57.7636V60.4268C37.5317 60.7434 37.7872 61.0001 38.1022 61.0001H41.9762C42.2913 61.0001 42.5467 60.7434 42.5467 60.4268V57.7636C42.5467 57.447 42.2913 57.1903 41.9762 57.1903Z" fill="#F6871F"/>
<path d="M41.9762 56.1903H38.1022C37.7872 56.1903 37.5317 56.447 37.5317 56.7636V58.5959C37.5317 58.9125 37.7872 59.1692 38.1022 59.1692H41.9762C42.2913 59.1692 42.5467 58.9125 42.5467 58.5959V56.7636C42.5467 56.447 42.2913 56.1903 41.9762 56.1903Z" fill="#005960"/>
<path fill-rule="evenodd" clip-rule="evenodd" d="M40.0061 31.5C40.8345 31.5 41.5061 32.1716 41.5061 33V35.7371C41.5061 36.5655 40.8345 37.2371 40.0061 37.2371C39.1777 37.2371 38.5061 36.5655 38.5061 35.7371V33C38.5061 32.1716 39.1777 31.5 40.0061 31.5ZM29.0438 36.0635C29.6296 35.4777 30.5794 35.4778 31.1651 36.0636L33.0975 37.9963C33.6832 38.5821 33.6832 39.5318 33.0973 40.1176C32.5115 40.7033 31.5618 40.7033 30.976 40.1174L29.0436 38.1848C28.4579 37.599 28.458 36.6492 29.0438 36.0635ZM50.9547 36.061C51.5419 36.6453 51.5443 37.595 50.9599 38.1823L49.0368 40.1149C48.4524 40.7021 47.5027 40.7045 46.9155 40.1201C46.3282 39.5358 46.3259 38.586 46.9103 37.9988L48.8334 36.0662C49.4178 35.4789 50.3675 35.4766 50.9547 36.061ZM24.4995 47.0647C24.4995 46.2362 25.1711 45.5647 25.9995 45.5647H28.7324C29.5609 45.5647 30.2324 46.2362 30.2324 47.0647C30.2324 47.8931 29.5609 48.5647 28.7324 48.5647H25.9995C25.1711 48.5647 24.4995 47.8931 24.4995 47.0647ZM49.7661 47.0647C49.7661 46.2362 50.4377 45.5647 51.2661 45.5647H53.999C54.8274 45.5647 55.499 46.2362 55.499 47.0647C55.499 47.8931 54.8274 48.5647 53.999 48.5647H51.2661C50.4377 48.5647 49.7661 47.8931 49.7661 47.0647ZM33.0948 54.0094C33.682 54.5938 33.6843 55.5435 33.1 56.1307L31.1676 58.0726C30.5833 58.6598 29.6335 58.6622 29.0463 58.0778C28.4591 57.4935 28.4568 56.5437 29.0411 55.9565L30.9735 54.0146C31.5578 53.4274 32.5076 53.4251 33.0948 54.0094ZM46.918 54.0069C47.5066 53.424 48.4564 53.4286 49.0393 54.0172L50.9625 55.959C51.5454 56.5477 51.5408 57.4974 50.9522 58.0803C50.3636 58.6633 49.4138 58.6587 48.8309 58.0701L46.9077 56.1282C46.3248 55.5396 46.3294 54.5898 46.918 54.0069Z" fill="#FF7900"/>
<path d="M38.4127 57.1902H39.3329L37.8606 49.9498C37.7741 49.5206 37.8318 49.0748 38.0244 48.6821C38.2171 48.2894 38.5339 47.972 38.9252 47.7795C39.3166 47.5871 39.7604 47.5306 40.1872 47.6187C40.614 47.7069 40.9996 47.9348 41.2837 48.2668C41.4696 48.4829 41.6063 48.7372 41.6842 49.0119C41.7621 49.2867 41.7793 49.5752 41.7346 49.8573L40.612 57.1902H41.5321L42.6271 49.996C42.6915 49.5763 42.6634 49.1476 42.5449 48.74C42.4265 48.3325 42.2205 47.956 41.9415 47.6371C41.6625 47.3181 41.3174 47.0646 40.9303 46.8943C40.5432 46.724 40.1237 46.6411 39.7013 46.6514C39.2789 46.6617 38.8639 46.765 38.4855 46.9539C38.1071 47.1429 37.7746 47.413 37.5114 47.7451C37.2481 48.0772 37.0606 48.4633 36.9619 48.8762C36.8633 49.2891 36.8559 49.7187 36.9404 50.1347L38.4127 57.1902Z" fill="#005960"/>
<path d="M41.5602 39.6865C40.8222 39.5217 40.0592 39.4761 39.3003 39.555C38.0119 39.6888 36.7849 40.1759 35.7534 40.963C34.7218 41.7501 33.9253 42.807 33.451 44.0182C32.9766 45.2294 32.8426 46.5483 33.0636 47.8309C33.222 48.7502 33.5585 49.6256 34.0502 50.4087C34.285 47.8672 34.8477 45.5083 36.5 43.5C37.7224 42.0141 39.7608 40.7203 41.5602 39.6865Z" fill="black" fill-opacity="0.25"/>
</svg>
