<svg width="80" height="80" viewBox="0 0 80 80" fill="none" xmlns="http://www.w3.org/2000/svg">
<g clip-path="url(#clip0_455_2374)">
<rect width="80" height="80" fill="#AADFF7"/>
<path d="M19.244 27.0312L57.4131 23.4179C62.4485 22.9021 66.9428 26.6012 67.4513 31.68L68 37.1612C68.5084 42.2401 64.8385 46.7754 59.803 47.2912L38.5 49.5V59L27.7184 50.6044L21.6339 50.9045C16.5985 51.4203 12.1042 47.7213 11.5958 42.6425L11.0471 37.1612C10.5386 32.0824 14.2085 27.547 19.244 27.0312Z" fill="#C24F75"/>
<path d="M22.4511 37.6413L23.9454 37.4461L22.9237 43.1263L21.5821 43.3016L20.1469 40.1278L19.5752 43.5639L18.2336 43.7392L15.7868 38.5121L17.2811 38.3169L18.6457 41.5443L19.2008 38.066L20.5314 37.8922L21.963 41.1219L22.4511 37.6413Z" fill="white"/>
<path d="M26.1115 40.5244C26.3899 41.1832 26.9472 41.458 27.7834 41.3487C28.3215 41.2784 28.7049 41.0434 28.9338 40.6438L30.1536 41.15C29.7172 41.9983 28.9754 42.4909 27.9283 42.6277C27.0267 42.7456 26.2675 42.5674 25.6509 42.0933C25.0343 41.6192 24.6718 40.9677 24.5635 40.1387C24.4561 39.317 24.6359 38.5984 25.1027 37.9827C25.5686 37.3597 26.2233 36.9932 27.0668 36.8829C27.8666 36.7784 28.5608 36.9688 29.1493 37.4539C29.7451 37.9382 30.0961 38.5875 30.2026 39.4019C30.2263 39.5837 30.2333 39.7788 30.2235 39.9871L26.1115 40.5244ZM25.9472 39.4365L28.7285 39.0731C28.6001 38.7127 28.3967 38.4582 28.1185 38.3097C27.8475 38.1602 27.552 38.1064 27.2321 38.1482C26.854 38.1976 26.5541 38.3366 26.3325 38.5653C26.11 38.7866 25.9816 39.077 25.9472 39.4365Z" fill="white"/>
<path d="M31.5411 42.0004L30.5007 34.0381L31.9078 33.8542L32.9481 41.8165L31.5411 42.0004Z" fill="white"/>
<path d="M36.8518 41.4618C36.0302 41.5692 35.3069 41.3826 34.6821 40.9022C34.0645 40.4208 33.7025 39.7729 33.5961 38.9585C33.4897 38.1441 33.673 37.4249 34.1462 36.8011C34.6266 36.1762 35.2777 35.8101 36.0994 35.7027C36.6302 35.6334 37.1304 35.6975 37.5999 35.895C38.0695 36.0925 38.445 36.391 38.7264 36.7905L37.6084 37.6577C37.4698 37.4465 37.2793 37.2902 37.0368 37.1888C36.8016 37.0864 36.5458 37.0533 36.2695 37.0894C35.8477 37.1445 35.5172 37.3319 35.2779 37.6516C35.0377 37.964 34.9461 38.3384 35.0031 38.7747C35.0592 39.2037 35.2439 39.5419 35.5573 39.7894C35.8697 40.0296 36.2368 40.1222 36.6585 40.0671C36.9421 40.03 37.1849 39.9354 37.3869 39.7833C37.5952 39.623 37.7392 39.423 37.8188 39.1833L39.1316 39.7218C38.9477 40.1821 38.6547 40.5717 38.2526 40.8905C37.8496 41.202 37.3827 41.3924 36.8518 41.4618Z" fill="white"/>
<path d="M44.514 39.6175C44.0263 40.2433 43.3789 40.609 42.5718 40.7144C41.7646 40.8199 41.045 40.6329 40.4129 40.1534C39.7871 39.6657 39.4215 39.0183 39.316 38.2111C39.2106 37.404 39.398 36.688 39.8785 36.0632C40.3652 35.4301 41.0122 35.0608 41.8193 34.9554C42.6264 34.8499 43.3465 35.0406 43.9796 35.5273C44.6117 36.0068 44.9805 36.6501 45.086 37.4572C45.1914 38.2644 45.0008 38.9845 44.514 39.6175ZM41.2786 39.053C41.5993 39.2995 41.9705 39.3952 42.3922 39.3401C42.814 39.285 43.1481 39.0971 43.3946 38.7765C43.6412 38.4558 43.7359 38.0774 43.6789 37.6411C43.6219 37.2048 43.4331 36.8634 43.1125 36.6168C42.7918 36.3703 42.4206 36.2746 41.9989 36.3297C41.5771 36.3848 41.243 36.5727 40.9964 36.8933C40.7572 37.213 40.6661 37.591 40.7231 38.0273C40.7801 38.4636 40.9653 38.8055 41.2786 39.053Z" fill="white"/>
<path d="M51.7313 33.6603C52.3567 33.5786 52.8814 33.7171 53.3054 34.0758C53.7367 34.4336 53.9971 34.9543 54.0864 35.6378L54.5253 38.9973L53.1183 39.1811L52.6921 35.9198C52.6494 35.5926 52.5362 35.3486 52.3524 35.1877C52.1687 35.0268 51.9314 34.9653 51.6405 35.0033C51.3206 35.0451 51.0835 35.1834 50.9293 35.418C50.7823 35.6517 50.735 35.9685 50.7872 36.3684L51.1877 39.4334L49.7806 39.6172L49.3545 36.3559C49.3118 36.0287 49.1985 35.7846 49.0148 35.6238C48.8311 35.4629 48.5938 35.4014 48.3029 35.4394C47.9902 35.4803 47.7531 35.6185 47.5916 35.8541C47.4374 36.0887 47.3864 36.406 47.4387 36.8059L47.8391 39.8709L46.4321 40.0547L45.7195 34.6011L47.1266 34.4172L47.2021 34.9953C47.4657 34.4654 47.9392 34.1557 48.6227 34.0664C49.2917 33.979 49.8204 34.1762 50.2087 34.6579C50.5039 34.0869 51.0114 33.7543 51.7313 33.6603Z" fill="white"/>
<path d="M56.6285 36.537C56.9068 37.1959 57.4641 37.4706 58.3004 37.3614C58.8385 37.2911 59.2219 37.0561 59.4507 36.6564L60.6706 37.1626C60.2342 38.011 59.4924 38.5036 58.4453 38.6404C57.5436 38.7582 56.7845 38.58 56.1679 38.1059C55.5512 37.6318 55.1888 36.9803 55.0805 36.1513C54.9731 35.3297 55.1528 34.611 55.6197 33.9953C56.0856 33.3724 56.7402 33.0058 57.5837 32.8956C58.3836 32.7911 59.0778 32.9814 59.6663 33.4666C60.262 33.9508 60.6131 34.6001 60.7195 35.4145C60.7433 35.5963 60.7503 35.7914 60.7405 35.9998L56.6285 36.537ZM56.4641 35.4492L59.2455 35.0857C59.1171 34.7253 58.9137 34.4709 58.6355 34.3223C58.3645 34.1729 58.069 34.119 57.7491 34.1608C57.3709 34.2102 57.0711 34.3493 56.8495 34.5779C56.627 34.7992 56.4985 35.0897 56.4641 35.4492Z" fill="white"/>
<path d="M61.9849 35.4156L61.3128 32.5637L61.0277 30.3822L62.7184 30.1613L63.0034 32.3428L63.0975 35.2702L61.9849 35.4156ZM63.5134 37.6897C63.3554 37.8953 63.1491 38.0147 62.8946 38.0479C62.6401 38.0812 62.4101 38.0188 62.2046 37.8608C61.999 37.7027 61.8796 37.4965 61.8464 37.2419C61.8131 36.9874 61.8755 36.7574 62.0336 36.5519C62.1916 36.3463 62.3979 36.2269 62.6524 36.1937C62.9069 36.1604 63.1369 36.2228 63.3424 36.3809C63.548 36.5389 63.6674 36.7452 63.7006 36.9997C63.7339 37.2542 63.6715 37.4842 63.5134 37.6897Z" fill="white"/>
<path d="M65.7188 85.3586C62.9472 87.4705 54.8089 89.3812 49.8735 87.4937C45.268 85.7377 48.2864 72.1382 53.9959 67.1228C59.7054 62.1074 71.3998 64.2863 71.3322 68.0356C70.9971 83.9662 66.7085 84.6031 65.7188 85.3586Z" fill="#00BCBC"/>
<path d="M49.8655 87.4937C47.4186 86.4184 44.6704 84.3658 43.7145 81.2715C41.7221 74.8946 44.008 72.0221 45.6211 69.1521C49.7772 61.7773 59.5545 49.2815 66.4252 52.3912C73.2958 55.501 72.7036 71.839 69.1838 79.5335C65.4615 87.5427 57.2297 90.7273 49.8655 87.4937Z" fill="#00BCBC"/>
<path d="M54.3726 44.6142C53.0478 43.6498 52.2711 42.6957 51.3074 43.0928C50.232 43.5389 50.5074 44.7019 50.6217 46.3161C50.7256 47.7369 50.7411 49.1525 50.7411 49.1525L56.6143 46.1304C56.6143 46.1304 55.6973 45.5889 54.3726 44.6142Z" fill="#00B4B4"/>
<path d="M49.4995 70.5368L69.2412 72.0582C69.531 72.0811 69.8226 72.047 70.0992 71.9579C70.3757 71.8688 70.6319 71.7263 70.8529 71.5387C71.0739 71.3512 71.2555 71.1222 71.3872 70.8649C71.519 70.6076 71.5982 70.327 71.6206 70.0392L74.1558 59.8769C74.2515 59.4865 74.3064 59.0872 74.3195 58.6856C74.5325 51.3598 70.3036 45.2176 61.4614 44.5033C52.6296 43.7297 47.8397 48.9798 46.6552 55.9446C46.5384 56.6571 46.5122 57.3813 46.5772 58.1003L47.4734 68.1568C47.4485 68.4452 47.4812 68.7357 47.5696 69.0116C47.658 69.2875 47.8004 69.5433 47.9886 69.7644C48.1769 69.9855 48.4072 70.1676 48.6665 70.3001C48.9258 70.4327 49.2089 70.5131 49.4995 70.5368Z" fill="#00BCBC"/>
<path d="M72.2517 49.8926C73.8674 49.6012 74.987 49.0803 75.6779 49.8565C76.4572 50.7229 75.6779 51.6615 74.8701 53.0514C74.1531 54.2839 73.5089 55.5604 73.5089 55.5604L69.5632 50.2923C69.5632 50.2923 70.6308 50.184 72.2517 49.8926Z" fill="#00BCBC"/>
<path d="M66.0616 52.5047C63.5861 51.3675 60.682 51.4732 57.3051 52.711C56.7856 52.9018 56.383 52.6362 56.1128 52.1334C55.5621 51.1019 55.0426 50.1427 54.3724 49.7378C50.9826 47.6904 48.785 50.857 47.9252 54.2375C46.2523 60.8181 48.3123 65.6117 55.931 67.543C63.5471 69.5157 67.5682 67.7184 69.1553 60.2508C69.8566 57.0121 68.5449 53.6367 66.0616 52.5047Z" fill="white"/>
<path d="M68.3968 85.0874C67.9685 85.2799 67.501 85.3462 66.9931 85.2517C67.1614 85.1067 67.3273 84.9574 67.4907 84.8038C67.8124 84.9124 68.1161 85.0078 68.3968 85.0874Z" fill="black" fill-opacity="0.25"/>
<path d="M56.7277 88.7039C55.123 88.5848 53.5051 88.1866 51.9271 87.4937C49.4802 86.4184 46.732 84.3658 45.7761 81.2715C43.9748 75.5063 45.6704 72.6054 47.2043 69.9812C47.367 69.7028 47.528 69.4274 47.6827 69.1521C48.1731 68.2819 48.7418 67.3404 49.3748 66.3616C49.7391 63.2374 49.9914 60.1028 50.5 57C51.5573 50.783 53.704 44.8768 60.8173 44.4571C52.3962 43.9889 47.8104 49.151 46.655 55.9445C46.5382 56.657 46.512 57.3813 46.5771 58.1003L47.3133 66.3616C46.6803 67.3404 46.1116 68.2819 45.6212 69.1521C45.4665 69.4274 45.3055 69.7028 45.1428 69.9812C43.6089 72.6054 41.9133 75.5063 43.7146 81.2715C44.6705 84.3658 47.4187 86.4184 49.8656 87.4937C52.1231 88.4849 54.4621 88.873 56.7277 88.7039Z" fill="black" fill-opacity="0.25"/>
<path d="M55.4686 57.582C55.387 57.4701 55.2823 57.3769 55.1613 57.3086C55.0404 57.2403 54.9061 57.1985 54.7676 57.1861C54.629 57.1736 54.4893 57.1907 54.358 57.2364C54.2267 57.282 54.1068 57.355 54.0062 57.4505L52.3671 59.6036C52.2926 59.6973 52.2467 59.8104 52.2352 59.9293C52.2237 60.0482 52.247 60.1679 52.3022 60.274L53.4321 62.4607C53.5334 62.6079 53.6645 62.7326 53.8168 62.827C53.9692 62.9213 54.1396 62.9833 54.3173 63.009C54.495 63.0347 54.6762 63.0235 54.8493 62.9762C55.0224 62.9289 55.1838 62.8464 55.3232 62.734L57.0765 61.4757C57.1874 61.3968 57.2687 61.2835 57.3078 61.1538C57.3468 61.0241 57.3413 60.8851 57.2922 60.7588C56.7582 59.6597 56.149 58.5983 55.4686 57.582Z" fill="#FF9C39"/>
<path fill-rule="evenodd" clip-rule="evenodd" d="M56.5208 60.3746C56.5208 60.3746 55.5103 62.4994 54.3206 62.3292C53.214 62.1719 52.762 59.8382 52.762 59.8382L54.4868 59.5804C54.6636 59.5502 54.8455 59.5764 55.0063 59.6552L56.5208 60.3746Z" fill="#F6871F"/>
<path d="M54.4782 61.015C53.3557 60.752 52.5351 60.1624 52.6455 59.6981C52.7559 59.2337 53.7554 59.0706 54.878 59.3336C56.0006 59.5966 56.8212 60.1862 56.7108 60.6505C56.6004 61.1149 55.6008 61.278 54.4782 61.015Z" fill="#FF9C39"/>
<path fill-rule="evenodd" clip-rule="evenodd" d="M51.31 55.7099C50.7273 55.5308 50.1017 55.5453 49.5281 55.7512C49.5203 55.7541 49.5117 55.7546 49.5037 55.7527C49.4956 55.7507 49.4883 55.7464 49.4827 55.7403C49.4771 55.7342 49.4735 55.7265 49.4723 55.7184C49.4711 55.7102 49.4724 55.7018 49.4761 55.6944C49.6735 55.3373 49.9868 55.057 50.3651 54.8991C50.7434 54.7411 51.1644 54.7149 51.5596 54.8245C51.9548 54.9342 52.301 55.1733 52.542 55.5031C52.7829 55.8328 52.9044 56.2338 52.8867 56.6408C52.8861 56.6492 52.8828 56.6573 52.8773 56.6638C52.8719 56.6704 52.8646 56.6751 52.8564 56.6773C52.8481 56.6796 52.8394 56.6793 52.8314 56.6764C52.8233 56.6736 52.8163 56.6683 52.8114 56.6614C52.4286 56.1904 51.9014 55.8564 51.31 55.7099Z" fill="#008282"/>
<path fill-rule="evenodd" clip-rule="evenodd" d="M61.2406 58.6495C60.5374 58.4326 59.7821 58.4498 59.0898 58.6985C59.0804 58.7029 59.0699 58.7043 59.0597 58.7025C59.0495 58.7006 59.0401 58.6957 59.0329 58.6882C59.0258 58.6808 59.0211 58.6713 59.0196 58.6611C59.0182 58.651 59.02 58.6405 59.0248 58.6314C59.2671 58.2055 59.6462 57.8725 60.1016 57.6857C60.557 57.4988 61.0623 57.4689 61.5368 57.6008C62.0113 57.7327 62.4276 58.0187 62.719 58.413C63.0105 58.8074 63.1604 59.2875 63.1446 59.7763C63.1434 59.786 63.1392 59.795 63.1328 59.8023C63.1263 59.8097 63.1178 59.8149 63.1083 59.8174C63.0988 59.8198 63.0888 59.8195 63.0796 59.8163C63.0703 59.8131 63.0622 59.8073 63.0563 59.7995C62.5937 59.2297 61.956 58.8258 61.2406 58.6495Z" fill="#008282"/>
<path d="M38.428 72.6836C37.3036 69.2975 40.0327 65.5739 44.1383 64.2368C48.2439 62.8996 51.5419 68.8728 51.5419 68.8728C51.5419 68.8728 52.3157 75.162 48.2101 76.4992C44.1045 77.8363 39.5523 76.0698 38.428 72.6836Z" fill="#008282"/>
<path fill-rule="evenodd" clip-rule="evenodd" d="M43.3804 66.1406L44.5035 73.1759L45.8042 78.8709C44.9599 78.7966 44.1346 78.5779 43.365 78.2243C39.1109 76.2969 38.6037 72.5459 38.6037 72.5459L43.3804 66.1406Z" fill="#008282"/>
<path d="M60.8652 80.6615C60.8652 80.6615 57.7819 74.6278 54.7568 68.7743C51.9768 63.3856 49.2467 58.1475 49.0266 57.8988C48.5601 57.3822 38.0688 68.8391 38.4855 69.0006C38.9022 69.1622 60.8652 80.6615 60.8652 80.6615Z" fill="#C24F75"/>
<path fill-rule="evenodd" clip-rule="evenodd" d="M61.2216 80.4802L60.8654 80.6615L60.6802 81.0156L61.7929 81.5982L61.2216 80.4802ZM60.5504 80.0455C60.7531 80.4418 60.8654 80.6615 60.8654 80.6615L61.2216 80.4802L60.6925 79.4457C60.3561 78.7885 59.8761 77.8513 59.3015 76.7311C58.1525 74.4909 56.6253 71.5188 55.1125 68.5917C53.7223 65.897 52.3443 63.2393 51.2861 61.2238C50.7571 60.2163 50.3074 59.368 49.9758 58.7555C49.8102 58.4495 49.673 58.2005 49.5697 58.0192C49.5182 57.9288 49.4738 57.8528 49.4376 57.794C49.4085 57.7465 49.3671 57.6805 49.3261 57.6342L49.3235 57.6312C49.1664 57.4573 48.9587 57.4763 48.8769 57.4923C48.7841 57.5103 48.6994 57.5503 48.6353 57.5851C48.5011 57.658 48.3425 57.7725 48.1725 57.9083C47.827 58.1843 47.3699 58.6004 46.8463 59.1046C45.7963 60.1157 44.4486 61.5102 43.1319 62.9225C41.8148 64.3352 40.5239 65.7707 39.587 66.8648C39.1194 67.4109 38.7357 67.8769 38.4804 68.2145C38.3545 68.3809 38.251 68.5276 38.1844 68.6417C38.154 68.6939 38.1154 68.7655 38.0935 68.8412C38.0836 68.8752 38.0639 68.9529 38.0788 69.0469C38.0979 69.1668 38.1768 69.3095 38.3416 69.3734C38.3383 69.3721 38.3394 69.3727 38.347 69.3763C38.3565 69.3808 38.3763 69.3902 38.4101 69.4069C38.4619 69.4324 38.5339 69.4685 38.6253 69.5148C38.8078 69.6073 39.0642 69.7386 39.3841 69.9034C40.0239 70.233 40.9155 70.6951 41.9742 71.2455C44.0914 72.346 46.8756 73.7985 49.647 75.2459C52.4183 76.6934 55.1766 78.1358 57.2421 79.2164C58.2749 79.7566 59.1344 80.2064 59.7357 80.5212L60.6792 81.0151C60.6794 81.0151 60.6802 81.0156 60.8654 80.6615C60.8654 80.6615 60.6466 80.5469 60.2522 80.3405C56.6957 78.4789 38.8607 69.1461 38.4856 69.0006C38.4536 68.9882 38.4859 68.9092 38.5732 68.774C38.5985 68.7348 38.6284 68.6908 38.6627 68.6424C38.6628 68.6423 38.6626 68.6425 38.6627 68.6424C40.0506 66.6851 48.6064 57.4335 49.0267 57.8988C49.2468 58.1475 51.9769 63.3856 54.7569 68.7743C57.2048 73.5108 59.6908 78.3654 60.5504 80.0455Z" fill="#86022D"/>
<path d="M53.4816 76.1938C53.3815 76.174 51.7341 73.3695 51.8629 70.1616C51.9636 68.4114 52.2825 66.6802 52.8121 65.0078L55.0116 69.28L53.4816 76.1938Z" fill="#A82752"/>
<path d="M46.9238 73.2803C46.8243 73.2643 38.7732 69.3896 38.7732 69.3896L45.3775 66.8287L47.025 70.0187L46.9238 73.2803Z" fill="#A82752"/>
<path d="M37.4965 68.4312C35.6962 66.3545 36.9155 62.3827 40.2198 59.5598C43.5241 56.737 47.6622 56.1321 49.4625 58.2087C51.2627 60.2853 50.0435 64.2571 46.7392 67.08C43.4349 69.9029 39.2968 70.5078 37.4965 68.4312Z" fill="#ED98B4"/>
<path fill-rule="evenodd" clip-rule="evenodd" d="M36.5597 64.1588C36.0432 65.8411 36.1705 67.5126 37.1921 68.691C38.2137 69.8694 39.8597 70.2434 41.6125 69.9872C43.3712 69.7301 45.3003 68.8351 47.001 67.3822C48.7017 65.9293 49.8807 64.1691 50.3988 62.4811C50.9153 60.7988 50.7879 59.1273 49.7664 57.9489C48.7448 56.7705 47.0988 56.3964 45.346 56.6527C43.5873 56.9097 41.6582 57.8047 39.9575 59.2576C38.2568 60.7105 37.0779 62.4708 36.5597 64.1588ZM40.2196 59.5598C36.9152 62.3827 35.696 66.3545 37.4963 68.4312C39.2966 70.5078 43.4347 69.9029 46.739 67.08C50.0433 64.2571 51.2625 60.2853 49.4622 58.2087C47.6619 56.1321 43.5239 56.737 40.2196 59.5598Z" fill="#86022D"/>
<path d="M38.5163 66.8313C37.4159 65.562 38.5824 62.7743 41.1218 60.6049C43.6612 58.4355 46.6119 57.7059 47.7123 58.9753C48.8127 60.2446 47.6463 63.0323 45.1069 65.2016C42.5675 67.371 39.6168 68.1007 38.5163 66.8313Z" fill="#A82752"/>
<path d="M41.1215 60.6048C38.5821 62.7742 37.4156 65.5619 38.516 66.8313C39.0193 67.4119 39.9098 67.5743 40.9709 67.3719C40.1113 66.279 40.9874 64.0637 42.9621 62.3767C44.8068 60.8008 46.968 60.2346 48.0276 60.9877C48.2228 60.1737 48.1345 59.4625 47.712 58.9752C46.6115 57.7058 43.6609 58.4354 41.1215 60.6048Z" fill="#86022D"/>
<path fill-rule="evenodd" clip-rule="evenodd" d="M46.3331 78.7783C47.0034 78.5832 50.5153 77.5017 51.0329 76.1188C51.164 75.7719 51.312 74.6986 50.8612 74.6885C50.745 74.6892 50.5638 74.7502 50.3823 74.8113C50.1051 74.9046 49.8272 74.9982 49.7793 74.8773C49.7397 74.7774 49.995 74.6882 50.2873 74.586C50.5798 74.4837 50.9094 74.3685 51.0176 74.2167C51.14 74.0464 51.0437 73.7538 50.7451 72.9944C50.5723 72.5585 49.2419 72.9871 48.2494 73.3069C47.6242 73.5084 47.133 73.6666 47.1501 73.5382C47.2252 72.9707 47.9674 72.6639 48.5154 72.4373C48.8912 72.282 49.1757 72.1643 49.0913 72.0263C48.8502 71.6301 47.1966 71.8132 46.5688 72.0535C45.4796 72.4746 44.3516 73.0334 44.3516 73.0334L44.3528 73.0371C43.4198 73.5607 42.9146 74.8816 43.1923 76.2842C43.5208 77.943 44.8201 79.088 46.0942 78.8415C46.176 78.8257 46.2557 78.8045 46.3331 78.7783Z" fill="#008282"/>
<path d="M66.8841 85.229C63.4423 84.4426 54.8884 80.2137 54.2988 79.7599C54.0806 79.5922 53.8182 78.9269 53.9013 78.7748C54.0961 78.419 54.6806 78.6742 54.6676 78.5169C54.6546 78.3597 53.8883 78.6433 53.6286 78.5169C53.4883 78.4499 53.2987 77.9497 53.2207 77.354C53.1428 76.7583 57.1873 76.3819 57.0392 76.1807C56.6158 75.6057 55.2339 75.2885 55.2495 74.9997C55.2676 74.6542 56.7535 74.5846 57.2159 74.7728C58.1437 75.1544 59.0467 75.5928 59.9199 76.0853C62.7045 77.0523 63.141 73.3829 65.1463 71.6553C68.0037 69.1824 71.5052 71.284 72.0299 74.7496C72.4066 77.3153 70.848 86.1367 66.8841 85.229Z" fill="#FF9C39"/>
<path fill-rule="evenodd" clip-rule="evenodd" d="M38.3971 14.995C38.3598 15.2686 38.1078 15.4602 37.8342 15.423C37.026 15.3129 35.9737 15.0943 35.062 14.4299C34.1297 13.7505 33.4002 12.6472 33.1652 10.8837C32.9593 9.33839 32.3924 8.66406 31.9019 8.38425C31.3903 8.09241 30.8555 8.1642 30.5965 8.29383C30.3496 8.41742 30.0492 8.31742 29.9256 8.07048C29.802 7.82353 29.902 7.52316 30.1489 7.39957C30.6825 7.13253 31.5727 7.04516 32.3974 7.51564C33.2432 7.99816 33.9241 9.00762 34.1565 10.7516C34.3597 12.2773 34.9651 13.1219 35.6509 13.6217C36.3572 14.1364 37.2062 14.3282 37.9691 14.4321C38.2427 14.4694 38.4343 14.7214 38.3971 14.995Z" fill="#F6871F"/>
<path fill-rule="evenodd" clip-rule="evenodd" d="M50.5 18C51.8807 18 53 16.8807 53 15.5C53 14.1193 51.8807 13 50.5 13C49.1193 13 48 14.1193 48 15.5C48 16.8807 49.1193 18 50.5 18ZM50.5 19C52.433 19 54 17.433 54 15.5C54 13.567 52.433 12 50.5 12C48.567 12 47 13.567 47 15.5C47 17.433 48.567 19 50.5 19Z" fill="#007878"/>
<path fill-rule="evenodd" clip-rule="evenodd" d="M72.7866 2.00119C73.0628 2.00053 73.2872 2.22386 73.2878 2.5C73.2898 3.3156 73.2177 4.38792 72.6848 5.38229C72.1399 6.39901 71.1471 7.27313 69.4326 7.74802C67.9302 8.16415 67.3401 8.8183 67.1303 9.34257C66.9115 9.88939 67.0561 10.4093 67.22 10.648C67.3763 10.8756 67.3185 11.1869 67.0909 11.3432C66.8633 11.4996 66.552 11.4418 66.3957 11.2141C66.0579 10.7223 65.8491 9.85257 66.2019 8.97104C66.5637 8.06695 67.4701 7.25394 69.1657 6.78431C70.649 6.37344 71.4025 5.65784 71.8034 4.9099C72.2163 4.13961 72.2896 3.27232 72.2878 2.50238C72.2872 2.22624 72.5105 2.00185 72.7866 2.00119Z" fill="#007878"/>
<path fill-rule="evenodd" clip-rule="evenodd" d="M21.5 69C22.8807 69 24 67.8807 24 66.5C24 65.1193 22.8807 64 21.5 64C20.1193 64 19 65.1193 19 66.5C19 67.8807 20.1193 69 21.5 69ZM21.5 70C23.433 70 25 68.433 25 66.5C25 64.567 23.433 63 21.5 63C19.567 63 18 64.567 18 66.5C18 68.433 19.567 70 21.5 70Z" fill="#007878"/>
<path fill-rule="evenodd" clip-rule="evenodd" d="M20.7432 15.5755C20.9937 15.6917 21.1026 15.9889 20.9865 16.2395C20.3095 17.6994 19.0806 18.8087 17.711 19.4264C17.5724 19.9066 17.3864 20.3872 17.1641 20.8571C16.0595 23.1909 13.9603 25.5259 11.6423 26.9189C11.4056 27.0611 11.0984 26.9846 10.9562 26.7479C10.814 26.5112 10.8905 26.204 11.1272 26.0617C13.2774 24.7696 15.2407 22.5834 16.2602 20.4293C16.3559 20.2271 16.4425 20.0273 16.5198 19.8304C14.9438 20.1941 13.2635 19.9174 12.1101 18.6892C11.4498 17.986 11.1601 17.1998 11.1935 16.4418C11.2266 15.6905 11.575 15.0154 12.1013 14.5245C13.1624 13.5347 14.9539 13.2771 16.5302 14.501C17.7222 15.4266 18.099 16.7489 17.9595 18.1644C18.8532 17.613 19.6213 16.8064 20.0792 15.8188C20.1954 15.5683 20.4926 15.4594 20.7432 15.5755ZM16.8704 18.6877C17.1782 17.2513 16.8917 16.0479 15.9169 15.2909C14.7282 14.3679 13.4855 14.6008 12.7835 15.2557C12.4283 15.5871 12.2129 16.0229 12.1926 16.4857C12.1725 16.9418 12.3397 17.4728 12.8391 18.0046C13.7504 18.975 15.175 19.2018 16.6127 18.7719C16.6989 18.7461 16.7849 18.718 16.8704 18.6877Z" fill="#C24F75"/>
</g>
<defs>
<clipPath id="clip0_455_2374">
<path d="M0 16C0 7.16344 7.16344 0 16 0H64C72.8366 0 80 7.16344 80 16V64C80 72.8366 72.8366 80 64 80H16C7.16344 80 0 72.8366 0 64V16Z" fill="white"/>
</clipPath>
</defs>
</svg>
