<svg width="61" height="60" viewBox="0 0 61 60" fill="none" xmlns="http://www.w3.org/2000/svg">
<g clip-path="url(#clip0_1_2090)">
<path d="M0.5 30C0.5 13.4315 13.9315 0 30.5 0C47.0685 0 60.5 13.4315 60.5 30C60.5 46.5685 47.0685 60 30.5 60C13.9315 60 0.5 46.5685 0.5 30Z" fill="#DAEFEF"/>
<path d="M33.9063 23.3768C33.3763 22.2746 32.0242 21.7976 30.8861 22.3114C29.748 22.8252 29.255 24.1353 29.785 25.2375C30.4342 26.5878 31.156 27.7512 31.9076 28.7659L25.2222 24.3069C24.477 23.8099 23.4318 24.0442 22.8876 24.8302C22.3434 25.6162 22.5063 26.6563 23.2515 27.1533L31.1325 32.4098C31.1146 32.4245 31.0966 32.4393 31.0787 32.4542L21.6381 26.6698C20.8738 26.2015 19.8351 26.4732 19.3182 27.2766C18.8012 28.08 19.0017 29.111 19.7661 29.5793L28.8321 35.1341C28.7416 35.2945 28.6566 35.4565 28.577 35.6198L21.6529 31.603C20.8771 31.1529 19.8432 31.4478 19.3436 32.2616C18.844 33.0754 19.068 34.0999 19.8438 34.55L27.7028 39.1092C27.6953 39.3801 27.7017 39.6497 27.7221 39.9169C27.0475 39.5545 26.507 39.2574 26.2493 39.1013C25.7001 38.7687 24.8726 38.2429 24.1726 37.7937C23.8248 37.5705 23.5119 37.3684 23.2861 37.2222C23.1732 37.1492 23.0821 37.0901 23.0193 37.0493L22.9228 36.9866L22.9225 36.9864C22.255 36.5519 21.3275 36.7699 20.8507 37.4732C20.374 38.1764 20.5286 39.0987 21.196 39.5331L22.0592 38.2598C21.196 39.5331 21.196 39.5331 21.196 39.5331L21.1965 39.5334L21.2954 39.5977C21.3591 39.6391 21.4512 39.6988 21.5653 39.7727C21.7933 39.9203 22.1092 40.1243 22.4609 40.35C23.1599 40.7985 24.0144 41.3418 24.5972 41.6948C25.2083 42.0649 26.9807 43.0056 28.5425 43.8251C29.035 44.0836 29.5138 44.3337 29.9399 44.5558C29.974 44.587 30.0085 44.6179 30.0435 44.6486C33.2212 47.4381 38.4941 46.7301 41.7475 43.2526C44.4497 40.3643 44.9089 36.4739 43.1663 33.6402L43.1859 33.6279C43.0684 33.4516 42.9423 33.2812 42.8098 33.1164C42.5252 32.7372 42.197 32.3816 41.8252 32.0553C41.7611 31.999 41.6961 31.9441 41.6304 31.8905C41.4292 31.7088 41.2275 31.5355 41.0303 31.3699C40.6545 31.0545 40.3251 30.7894 39.9989 30.5269C39.5618 30.1753 39.1305 29.8282 38.601 29.3705C36.97 27.9607 35.2518 26.1753 33.9063 23.3768Z" fill="#FFC894"/>
<g filter="url(#filter0_d_1_2090)">
<path d="M31.2968 27.3819C30.5267 26.4988 29.1619 26.3909 28.2484 27.1409C27.3349 27.891 27.2186 29.215 27.9887 30.0981C28.9322 31.1801 29.8943 32.0725 30.8456 32.8212L23.5578 30.3579C22.7455 30.0833 21.8454 30.5538 21.5474 31.4089C21.2494 32.2639 21.6664 33.1797 22.4787 33.4542L31.0698 36.3581C31.0571 36.3761 31.0444 36.394 31.0318 36.4121L20.8723 33.4042C20.0497 33.1607 19.1653 33.664 18.8968 34.5284C18.6284 35.3928 19.0775 36.2909 19.9001 36.5344L29.6565 39.423C29.6146 39.5924 29.5781 39.762 29.5469 39.9315L22.1535 37.9327C21.3251 37.7087 20.4511 38.2322 20.2012 39.1019C19.9514 39.9715 20.4204 40.8581 21.2488 41.0821L29.6405 43.3508C29.7032 43.6015 29.7784 43.8476 29.8658 44.0881C29.1529 43.92 28.58 43.779 28.3031 43.6986C27.7131 43.5272 26.8178 43.2463 26.0593 43.0046C25.6823 42.8845 25.343 42.7753 25.0979 42.6961C24.9755 42.6566 24.8766 42.6246 24.8084 42.6024L24.7036 42.5684L24.7033 42.5683C23.9785 42.3322 23.1823 42.759 22.9251 43.5216C22.6678 44.2842 23.0468 45.0937 23.7716 45.3298L24.2374 43.949C23.7716 45.3298 23.7716 45.3297 23.7716 45.3298L23.7721 45.3299L23.8795 45.3648C23.9487 45.3873 24.0487 45.4196 24.1724 45.4596C24.4198 45.5395 24.7625 45.6498 25.1435 45.7712C25.901 46.0125 26.8257 46.3029 27.4518 46.4848C28.1084 46.6755 29.9783 47.1068 31.6238 47.4782C32.1427 47.5953 32.6468 47.7082 33.0953 47.8081C33.1347 47.8284 33.1744 47.8484 33.2143 47.868C36.8505 49.6545 41.5129 47.716 43.6082 43.7264C45.3485 40.4128 44.7706 36.7265 42.4415 34.5489L42.4563 34.5328C42.3031 34.3995 42.1434 34.2738 41.9793 34.1548C41.6204 33.876 41.2275 33.6294 40.8022 33.4205C40.7288 33.3844 40.655 33.3498 40.5808 33.3166C40.3493 33.1988 40.1194 33.0889 39.8957 32.985C39.4695 32.7869 39.0987 32.6239 38.7316 32.4625C38.2397 32.2462 37.7542 32.0327 37.1502 31.7416C35.2894 30.8448 33.2521 29.6243 31.2968 27.3819Z" fill="#FFD6AF"/>
</g>
<path fill-rule="evenodd" clip-rule="evenodd" d="M27.4437 14.0176C26.9413 14.1936 26.5174 14.5316 26.2416 14.976C25.9745 15.4299 25.8581 15.9545 25.9079 16.4791C25.9439 16.9559 26.0939 17.4193 26.3458 17.8323C26.5977 18.2453 26.9445 18.5963 27.3585 18.8574C28.4867 19.4637 29.7345 19.8233 31.0138 19.9109C31.2001 19.9274 31.3846 19.9597 31.5655 20.0074C32.7183 19.1277 33.6387 17.9931 34.2522 16.6955C34.4485 16.2593 34.5351 15.7826 34.5049 15.3045C34.4746 14.8264 34.3283 14.3607 34.078 13.9456C33.8227 13.4876 33.4175 13.1247 32.9279 12.9158C32.4382 12.7068 31.8926 12.6639 31.3794 12.7939C30.8846 12.928 30.4573 13.2297 30.1737 13.6452C30.0005 13.9525 29.8908 14.2905 29.8505 14.6404C29.6444 14.3426 29.3738 14.0921 29.0581 13.9069C28.5223 13.7433 27.9454 13.7828 27.4437 14.0176Z" fill="#00A7A7"/>
<path fill-rule="evenodd" clip-rule="evenodd" d="M44.7828 19.0172C44.4635 18.8441 44.094 18.7835 43.7349 18.845C43.3748 18.9154 43.0451 19.0932 42.7904 19.3545C42.5547 19.5874 42.3774 19.8714 42.2726 20.184C42.1679 20.4965 42.1386 20.8289 42.1871 21.1544C42.375 21.9942 42.747 22.783 43.277 23.465C43.3521 23.566 43.4182 23.6733 43.4745 23.7856C44.4586 23.9684 45.4727 23.9197 46.4346 23.6433C46.7536 23.5455 47.0445 23.3742 47.2835 23.1437C47.5224 22.9131 47.7026 22.6298 47.8092 22.3172C47.9362 21.9826 47.9454 21.6157 47.8353 21.2756C47.7252 20.9355 47.5021 20.6421 47.2022 20.4428C46.9085 20.2548 46.5566 20.176 46.2093 20.2207C45.9689 20.2722 45.7409 20.3693 45.5379 20.5066C45.6024 20.269 45.6128 20.0202 45.5685 19.7782C45.4136 19.4354 45.1329 19.1634 44.7828 19.0172Z" fill="#FF9C39"/>
<path fill-rule="evenodd" clip-rule="evenodd" d="M13.8089 23.5754C13.546 23.8227 13.3786 24.1495 13.3342 24.5024C13.298 24.8587 13.3762 25.2181 13.5582 25.5319C13.7178 25.8197 13.9447 26.0679 14.2208 26.2569C14.4968 26.4458 14.8143 26.5701 15.1478 26.6198C16.0265 26.6898 16.9088 26.5731 17.7326 26.278C17.8536 26.2374 17.9781 26.2071 18.1047 26.1874C18.5713 25.3231 18.8195 24.3632 18.8292 23.3854C18.8263 23.0595 18.7433 22.7382 18.5869 22.448C18.4305 22.1579 18.2052 21.9072 17.9296 21.7165C17.6385 21.5004 17.2812 21.3847 16.9154 21.3881C16.5496 21.3915 16.1967 21.5139 15.9137 21.7354C15.6435 21.9544 15.4635 22.2596 15.406 22.5965C15.3863 22.8357 15.415 23.0767 15.4904 23.3061C15.2762 23.1766 15.0352 23.0942 14.7849 23.0649C14.4033 23.1092 14.0545 23.2917 13.8089 23.5754Z" fill="#FF9C39"/>
</g>
<defs>
<filter id="filter0_d_1_2090" x="15.8191" y="23.642" width="28.8012" height="24.8938" filterUnits="userSpaceOnUse" color-interpolation-filters="sRGB">
<feFlood flood-opacity="0" result="BackgroundImageFix"/>
<feColorMatrix in="SourceAlpha" type="matrix" values="0 0 0 0 0 0 0 0 0 0 0 0 0 0 0 0 0 0 127 0" result="hardAlpha"/>
<feOffset dx="-2" dy="-2"/>
<feGaussianBlur stdDeviation="0.5"/>
<feComposite in2="hardAlpha" operator="out"/>
<feColorMatrix type="matrix" values="0 0 0 0 0.8375 0 0 0 0 0.687571 0 0 0 0 0.547865 0 0 0 1 0"/>
<feBlend mode="normal" in2="BackgroundImageFix" result="effect1_dropShadow_1_2090"/>
<feBlend mode="normal" in="SourceGraphic" in2="effect1_dropShadow_1_2090" result="shape"/>
</filter>
<clipPath id="clip0_1_2090">
<path d="M0.5 30C0.5 13.4315 13.9315 0 30.5 0C47.0685 0 60.5 13.4315 60.5 30C60.5 46.5685 47.0685 60 30.5 60C13.9315 60 0.5 46.5685 0.5 30Z" fill="white"/>
</clipPath>
</defs>
</svg>
