<svg width="80" height="80" viewBox="0 0 80 80" fill="none" xmlns="http://www.w3.org/2000/svg">
<rect width="80" height="80" fill="#F1CEC7"/>
<path d="M20.5129 28.9792C20.5129 27.3338 21.9307 26 23.6796 26H57.3463C59.0952 26 60.5129 27.3338 60.5129 28.9792V56.0208C60.5129 57.6662 59.0952 59 57.3463 59H23.6796C21.9307 59 20.5129 57.6662 20.5129 56.0208V28.9792Z" fill="black" fill-opacity="0.25"/>
<path d="M20.5129 27.7693C20.5129 26.1124 21.8905 24.7693 23.5899 24.7693H56.3024C58.0018 24.7693 59.3793 26.1124 59.3793 27.7693V55.0001C59.3793 56.6569 58.0018 58.0001 56.3024 58.0001H23.5899C21.8905 58.0001 20.5129 56.6569 20.5129 55.0001V27.7693Z" fill="#E8FFFA"/>
<path fill-rule="evenodd" clip-rule="evenodd" d="M23.5899 25.7693C22.457 25.7693 21.5386 26.6647 21.5386 27.7693V55.0001C21.5386 56.1046 22.457 57.0001 23.5899 57.0001H56.3024C57.4353 57.0001 58.3537 56.1046 58.3537 55.0001V27.7693C58.3537 26.6647 57.4353 25.7693 56.3024 25.7693H23.5899ZM23.5899 24.7693C21.8905 24.7693 20.5129 26.1124 20.5129 27.7693V55.0001C20.5129 56.6569 21.8905 58.0001 23.5899 58.0001H56.3024C58.0018 58.0001 59.3793 56.6569 59.3793 55.0001V27.7693C59.3793 26.1124 58.0018 24.7693 56.3024 24.7693H23.5899Z" fill="white"/>
<rect x="20.5129" y="25.7693" width="38.8664" height="8.30769" rx="2" fill="black" fill-opacity="0.25"/>
<path d="M20.5129 26.7693C20.5129 25.6647 21.4313 24.7693 22.5642 24.7693H57.3281C58.461 24.7693 59.3793 25.6647 59.3793 26.7693V31.077C59.3793 32.1815 58.4609 33.077 57.3281 33.077H22.5642C21.4313 33.077 20.5129 32.1816 20.5129 31.077V26.7693Z" fill="#00BCBC"/>
<g opacity="0.25">
<path d="M29.3867 24.4211C29.3867 23.6362 30.0393 23 30.8442 23C31.6492 23 32.3017 23.6362 32.3017 24.4211V28.7253C32.3017 29.5102 31.6492 30.1464 30.8442 30.1464C30.0393 30.1464 29.3867 29.5102 29.3867 28.7253V24.4211Z" fill="black"/>
<path d="M38.975 24.4211C38.975 23.6362 39.6276 23 40.4325 23C41.2375 23 41.89 23.6362 41.89 24.4211V28.7253C41.89 29.5102 41.2375 30.1464 40.4325 30.1464C39.6276 30.1464 38.975 29.5102 38.975 28.7253V24.4211Z" fill="black"/>
<path d="M48.983 24.4211C48.983 23.6362 49.6355 23 50.4405 23C51.2454 23 51.898 23.6362 51.898 24.4211V28.7253C51.898 29.5102 51.2454 30.1464 50.4405 30.1464C49.6355 30.1464 48.983 29.5102 48.983 28.7253V24.4211Z" fill="black"/>
</g>
<path d="M29.3865 23.4211C29.3865 22.6362 30.039 22 30.844 22C31.6489 22 32.3015 22.6362 32.3015 23.4211V27.7253C32.3015 28.5102 31.6489 29.1464 30.844 29.1464C30.039 29.1464 29.3865 28.5102 29.3865 27.7253V23.4211Z" fill="#005960"/>
<path d="M38.9748 23.4211C38.9748 22.6362 39.6273 22 40.4323 22C41.2372 22 41.8898 22.6362 41.8898 23.4211V27.7253C41.8898 28.5102 41.2372 29.1464 40.4323 29.1464C39.6273 29.1464 38.9748 28.5102 38.9748 27.7253V23.4211Z" fill="#005960"/>
<path d="M48.9828 23.4211C48.9828 22.6362 49.6353 22 50.4403 22C51.2452 22 51.8977 22.6362 51.8977 23.4211V27.7253C51.8977 28.5102 51.2452 29.1464 50.4403 29.1464C49.6353 29.1464 48.9828 28.5102 48.9828 27.7253V23.4211Z" fill="#005960"/>
<path d="M39.6206 37.1387C39.7421 36.774 40.258 36.774 40.3795 37.1387L41.9813 41.9453C42.0358 42.1087 42.1886 42.2188 42.3608 42.2188H47.5224C47.9123 42.2188 48.0718 42.7198 47.7536 42.9453L43.5954 45.8908C43.4516 45.9927 43.3914 46.1766 43.4471 46.3437L45.0395 51.1221C45.1617 51.4888 44.7442 51.7984 44.4288 51.5749L40.2313 48.6015C40.0927 48.5034 39.9074 48.5034 39.7688 48.6015L35.5713 51.5749C35.2559 51.7984 34.8384 51.4888 34.9606 51.1221L36.553 46.3437C36.6087 46.1766 36.5485 45.9927 36.4047 45.8908L32.2465 42.9453C31.9283 42.7199 32.0878 42.2188 32.4777 42.2188H37.6393C37.8115 42.2188 37.9643 42.1087 38.0188 41.9453L39.6206 37.1387Z" fill="#FF7900"/>
<mask id="path-11-outside-1_951_283" maskUnits="userSpaceOnUse" x="45.2678" y="44.8889" width="20" height="20" fill="black">
<rect fill="white" x="45.2678" y="44.8889" width="20" height="20"/>
<path fill-rule="evenodd" clip-rule="evenodd" d="M63.2767 50.3324C60.7643 46.087 55.18 44.627 50.8282 47.0784C48.7204 48.2657 47.2123 50.1829 46.5822 52.4767C45.9523 54.7707 46.2756 57.1666 47.4926 59.2233C49.1788 62.0724 52.2479 63.6668 55.4001 63.6668C56.9449 63.6668 58.5095 63.2836 59.9411 62.4773C62.0492 61.29 63.5572 59.3726 64.1871 57.0791C64.817 54.785 64.4937 52.3891 63.2767 50.3324Z"/>
</mask>
<path d="M50.8282 47.0784L51.0245 47.4269L51.0245 47.4269L50.8282 47.0784ZM46.5822 52.4767L46.1965 52.3707L46.1964 52.3708L46.5822 52.4767ZM47.4926 59.2233L47.1484 59.427L47.1484 59.427L47.4926 59.2233ZM59.9411 62.4773L59.7448 62.1288L59.7448 62.1288L59.9411 62.4773ZM64.1871 57.0791L64.5728 57.185L64.5729 57.185L64.1871 57.0791ZM63.6209 50.1287C60.9954 45.6922 55.1694 44.174 50.6319 46.7299L51.0245 47.4269C55.1907 45.0801 60.5331 46.4818 62.9324 50.5361L63.6209 50.1287ZM50.6319 46.7299C48.4329 47.9686 46.8554 49.9721 46.1965 52.3707L46.9679 52.5826C47.5692 50.3937 49.0079 48.5629 51.0245 47.4269L50.6319 46.7299ZM46.1964 52.3708C45.5377 54.7699 45.8765 57.2775 47.1484 59.427L47.8369 59.0196C46.6748 57.0557 46.3669 54.7715 46.9679 52.5826L46.1964 52.3708ZM47.1484 59.427C48.9113 62.4057 52.1161 64.0668 55.4001 64.0668V63.2668C52.3797 63.2668 49.4463 61.739 47.8369 59.0196L47.1484 59.427ZM55.4001 64.0668C57.0112 64.0668 58.6438 63.6671 60.1374 62.8258L59.7448 62.1288C58.3752 62.9002 56.8786 63.2668 55.4001 63.2668V64.0668ZM60.1374 62.8258C62.3367 61.5872 63.9142 59.5834 64.5728 57.185L63.8014 56.9731C63.2003 59.1618 61.7617 60.9928 59.7448 62.1288L60.1374 62.8258ZM64.5729 57.185C65.2316 54.7858 64.8928 52.2782 63.6209 50.1287L62.9324 50.5361C64.0945 52.5 64.4024 54.7842 63.8014 56.9731L64.5729 57.185Z" fill="black" mask="url(#path-11-outside-1_951_283)"/>
<mask id="mask0_951_283" style="mask-type:alpha" maskUnits="userSpaceOnUse" x="46" y="45" width="19" height="19">
<path d="M46.2678 45.8389H46.2178V45.8889V63.6667V63.7167H46.2678H64.5014H64.5514V63.6667V45.8889V45.8389H64.5014H46.2678Z" fill="white" stroke="white" stroke-width="0.1"/>
</mask>
<g mask="url(#mask0_951_283)">
<mask id="path-14-outside-2_951_283" maskUnits="userSpaceOnUse" x="45.2678" y="44.8889" width="20" height="19" fill="black">
<rect fill="white" x="45.2678" y="44.8889" width="20" height="19"/>
<path fill-rule="evenodd" clip-rule="evenodd" d="M63.9205 57.0093C63.3094 59.2336 61.8472 61.0925 59.8031 62.2442C55.5833 64.6213 50.1683 63.2055 47.7319 59.0886C46.5519 57.0941 46.2382 54.7707 46.8493 52.5467C47.4601 50.3222 48.9224 48.4629 50.9664 47.3117C53.0104 46.1603 55.3914 45.8545 57.6721 46.4504C59.952 47.0464 61.8574 48.4729 63.0379 50.4671C64.2179 52.4616 64.5313 54.785 63.9205 57.0093ZM63.2767 50.3324C60.7643 46.087 55.18 44.627 50.8282 47.0784C48.7204 48.2657 47.2123 50.1829 46.5822 52.4767C45.9523 54.7707 46.2756 57.1666 47.4926 59.2233C49.1788 62.0724 52.2479 63.6668 55.4001 63.6668C56.9449 63.6668 58.5095 63.2836 59.9411 62.4773C62.0492 61.29 63.5572 59.3726 64.1871 57.0791C64.817 54.785 64.4937 52.3891 63.2767 50.3324Z"/>
</mask>
<path fill-rule="evenodd" clip-rule="evenodd" d="M63.9205 57.0093C63.3094 59.2336 61.8472 61.0925 59.8031 62.2442C55.5833 64.6213 50.1683 63.2055 47.7319 59.0886C46.5519 57.0941 46.2382 54.7707 46.8493 52.5467C47.4601 50.3222 48.9224 48.4629 50.9664 47.3117C53.0104 46.1603 55.3914 45.8545 57.6721 46.4504C59.952 47.0464 61.8574 48.4729 63.0379 50.4671C64.2179 52.4616 64.5313 54.785 63.9205 57.0093ZM63.2767 50.3324C60.7643 46.087 55.18 44.627 50.8282 47.0784C48.7204 48.2657 47.2123 50.1829 46.5822 52.4767C45.9523 54.7707 46.2756 57.1666 47.4926 59.2233C49.1788 62.0724 52.2479 63.6668 55.4001 63.6668C56.9449 63.6668 58.5095 63.2836 59.9411 62.4773C62.0492 61.29 63.5572 59.3726 64.1871 57.0791C64.817 54.785 64.4937 52.3891 63.2767 50.3324Z" fill="black"/>
<path d="M59.8031 62.2442L59.8522 62.3314L59.8522 62.3314L59.8031 62.2442ZM47.7319 59.0886L47.6458 59.1395L47.6458 59.1395L47.7319 59.0886ZM46.8493 52.5467L46.9457 52.5732L46.9457 52.5732L46.8493 52.5467ZM50.9664 47.3117L51.0155 47.3989L51.0155 47.3989L50.9664 47.3117ZM57.6721 46.4504L57.6974 46.3537L57.6974 46.3537L57.6721 46.4504ZM63.0379 50.4671L63.124 50.4162L63.124 50.4162L63.0379 50.4671ZM50.8282 47.0784L50.8773 47.1656L50.8773 47.1656L50.8282 47.0784ZM46.5822 52.4767L46.4857 52.4502L46.4857 52.4502L46.5822 52.4767ZM47.4926 59.2233L47.4066 59.2742L47.4066 59.2742L47.4926 59.2233ZM59.9411 62.4773L59.892 62.3902L59.892 62.3902L59.9411 62.4773ZM64.1871 57.0791L64.2836 57.1055V57.1055L64.1871 57.0791ZM63.8241 56.9828C63.2201 59.1809 61.7753 61.0182 59.754 62.1571L59.8522 62.3314C61.919 61.1668 63.3986 59.2863 64.0169 57.0358L63.8241 56.9828ZM59.754 62.1571C55.5806 64.508 50.2261 63.1068 47.8179 59.0377L47.6458 59.1395C50.1105 63.3042 55.586 64.7346 59.8522 62.3314L59.754 62.1571ZM47.8179 59.0377C46.6517 57.0664 46.3418 54.7709 46.9457 52.5732L46.7529 52.5202C46.1345 54.7705 46.4521 57.1219 47.6458 59.1395L47.8179 59.0377ZM46.9457 52.5732C47.5494 50.3749 48.9942 48.5372 51.0155 47.3989L50.9173 47.2246C48.8505 48.3887 47.3709 50.2695 46.7529 52.5202L46.9457 52.5732ZM51.0155 47.3989C53.0368 46.2602 55.3911 45.9578 57.6468 46.5472L57.6974 46.3537C55.3917 45.7512 52.9841 46.0603 50.9173 47.2246L51.0155 47.3989ZM57.6468 46.5472C59.9016 47.1366 61.785 48.547 62.9519 50.5181L63.124 50.4162C61.9298 48.3989 60.0023 46.9562 57.6974 46.3537L57.6468 46.5472ZM62.9518 50.518C64.1181 52.4893 64.4277 54.7848 63.824 56.9828L64.0169 57.0358C64.635 54.7852 64.3177 52.4339 63.124 50.4162L62.9518 50.518ZM63.3627 50.2815C60.8221 45.9883 55.1774 44.5138 50.7791 46.9913L50.8773 47.1656C55.1827 44.7403 60.7065 46.1857 63.1906 50.3833L63.3627 50.2815ZM50.7791 46.9913C48.6485 48.1914 47.1231 50.1302 46.4857 52.4502L46.6786 52.5032C47.3016 50.2356 48.7923 48.34 50.8773 47.1656L50.7791 46.9913ZM46.4857 52.4502C45.8486 54.7705 46.1759 57.1943 47.4066 59.2742L47.5787 59.1724C46.3754 57.1389 46.0559 54.7709 46.6786 52.5031L46.4857 52.4502ZM47.4066 59.2742C49.1119 62.1557 52.2149 63.7668 55.4001 63.7668V63.5668C52.2809 63.5668 49.2457 61.989 47.5787 59.1724L47.4066 59.2742ZM55.4001 63.7668C56.9615 63.7668 58.5431 63.3795 59.9902 62.5644L59.892 62.3902C58.476 63.1878 56.9283 63.5668 55.4001 63.5668V63.7668ZM59.9902 62.5644C62.1211 61.3643 63.6465 59.4253 64.2836 57.1055L64.0907 57.0526C63.468 59.3199 61.9773 61.2157 59.892 62.3902L59.9902 62.5644ZM64.2836 57.1055C64.9207 54.7852 64.5935 52.3614 63.3627 50.2815L63.1906 50.3833C64.3939 52.4168 64.7134 54.7848 64.0907 57.0526L64.2836 57.1055Z" fill="black" mask="url(#path-14-outside-2_951_283)"/>
</g>
<mask id="path-16-outside-3_951_283" maskUnits="userSpaceOnUse" x="46.8767" y="46.4543" width="16" height="16" fill="black">
<rect fill="white" x="46.8767" y="46.4543" width="16" height="16"/>
<path fill-rule="evenodd" clip-rule="evenodd" d="M60.3793 54.2031L59.652 52.9612C59.5711 52.823 59.4816 52.6881 59.3864 52.5609C59.0261 52.0786 58.7579 51.523 58.59 50.9096C58.5581 50.794 58.522 50.676 58.4821 50.5549C58.4194 50.3633 58.2539 50.2309 58.0502 50.2092C57.8427 50.1866 57.6475 50.2841 57.541 50.4629C57.468 50.5861 57.3896 50.7099 57.307 50.8274C57.2332 50.9322 57.1011 50.981 56.9744 50.9479C55.804 50.6385 54.5779 50.7995 53.5228 51.4003C52.4679 52.0007 51.714 52.9669 51.3993 54.1209C51.366 54.2441 51.2565 54.3339 51.1271 54.3445C50.9834 54.3559 50.8356 54.3611 50.6908 54.3619C50.481 54.3632 50.298 54.481 50.2134 54.6699C50.1309 54.8547 50.1644 55.0624 50.3013 55.2116C50.3871 55.3055 50.4725 55.3948 50.5575 55.4792C51.0128 55.9306 51.3666 56.437 51.6088 56.9847C51.6735 57.1304 51.7475 57.2751 51.829 57.4146L52.6078 58.7439L52.5731 58.7328C52.4594 59.0731 52.3804 59.518 52.338 60.0551C52.3102 60.41 52.3066 60.7235 52.3231 61.0001C50.9963 60.441 49.841 59.4791 49.0719 58.1664C48.1404 56.5754 47.9072 54.7139 48.4154 52.9248C48.9235 51.1341 50.1132 49.6305 51.7649 48.6904C53.4163 47.75 55.3324 47.4862 57.1589 47.9476C58.9848 48.4084 60.5032 49.5383 61.4347 51.1289C61.7034 51.5876 61.9087 52.0658 62.0577 52.5533L60.3793 54.2031ZM61.9299 56.8512L60.5216 54.4463L62.1419 52.8534C62.4816 54.1863 62.3937 55.5775 61.9299 56.8512ZM58.7418 60.6049C57.7885 61.1474 56.7625 61.4522 55.7372 61.5385C54.6674 60.9895 53.7535 60.1576 53.1314 59.0954L52.0675 57.2789C51.9912 57.1483 51.9219 57.0129 51.8613 56.8761C51.605 56.2975 51.2323 55.7631 50.7528 55.2879C50.6705 55.2065 50.5887 55.1204 50.5056 55.0298C50.4414 54.9598 50.4266 54.8664 50.4654 54.7796C50.5061 54.6886 50.5909 54.6338 50.6928 54.6333C50.8442 54.6325 50.9989 54.627 51.1497 54.6151C51.3947 54.5953 51.602 54.4248 51.6653 54.1914C51.9607 53.1072 52.6692 52.1996 53.6605 51.6354C54.3225 51.2584 55.0559 51.066 55.7977 51.066C56.1669 51.066 56.5379 51.1137 56.9035 51.2101C57.1397 51.2722 57.3935 51.1808 57.5333 50.9818C57.6198 50.8586 57.7023 50.7289 57.7789 50.5997C57.8298 50.5134 57.9198 50.4684 58.0206 50.4789C58.1161 50.489 58.1909 50.5487 58.2204 50.6383C58.2587 50.7552 58.2936 50.8695 58.3245 50.9808C58.5015 51.6264 58.7842 52.2124 59.1649 52.7218C59.2543 52.8412 59.338 52.9674 59.414 53.0969L61.8025 57.1758C61.2165 58.5645 60.1746 59.7894 58.7418 60.6049ZM52.6056 61.1116C52.5794 60.8215 52.5808 60.4752 52.6122 60.0762C52.6447 59.6656 52.6995 59.3163 52.7741 59.0283L52.8927 59.2311C53.4636 60.206 54.2691 60.9955 55.213 61.5621C54.3175 61.573 53.4325 61.4191 52.6056 61.1116ZM57.2269 47.6846C55.3294 47.2056 53.3411 47.4794 51.627 48.4554C49.9126 49.4311 48.6777 50.9924 48.15 52.8515C47.6217 54.7117 47.8645 56.6473 48.8332 58.3021C49.6599 59.7134 50.9148 60.7349 52.3526 61.3068L52.523 61.3695C53.3496 61.6748 54.2313 61.8363 55.1254 61.8363C56.3977 61.836 57.6929 61.5149 58.8791 60.8397C62.4188 58.8245 63.6721 54.4075 61.6725 50.9932C60.7039 49.3388 59.1249 48.1639 57.2269 47.6846Z"/>
</mask>
<path fill-rule="evenodd" clip-rule="evenodd" d="M60.3793 54.2031L59.652 52.9612C59.5711 52.823 59.4816 52.6881 59.3864 52.5609C59.0261 52.0786 58.7579 51.523 58.59 50.9096C58.5581 50.794 58.522 50.676 58.4821 50.5549C58.4194 50.3633 58.2539 50.2309 58.0502 50.2092C57.8427 50.1866 57.6475 50.2841 57.541 50.4629C57.468 50.5861 57.3896 50.7099 57.307 50.8274C57.2332 50.9322 57.1011 50.981 56.9744 50.9479C55.804 50.6385 54.5779 50.7995 53.5228 51.4003C52.4679 52.0007 51.714 52.9669 51.3993 54.1209C51.366 54.2441 51.2565 54.3339 51.1271 54.3445C50.9834 54.3559 50.8356 54.3611 50.6908 54.3619C50.481 54.3632 50.298 54.481 50.2134 54.6699C50.1309 54.8547 50.1644 55.0624 50.3013 55.2116C50.3871 55.3055 50.4725 55.3948 50.5575 55.4792C51.0128 55.9306 51.3666 56.437 51.6088 56.9847C51.6735 57.1304 51.7475 57.2751 51.829 57.4146L52.6078 58.7439L52.5731 58.7328C52.4594 59.0731 52.3804 59.518 52.338 60.0551C52.3102 60.41 52.3066 60.7235 52.3231 61.0001C50.9963 60.441 49.841 59.4791 49.0719 58.1664C48.1404 56.5754 47.9072 54.7139 48.4154 52.9248C48.9235 51.1341 50.1132 49.6305 51.7649 48.6904C53.4163 47.75 55.3324 47.4862 57.1589 47.9476C58.9848 48.4084 60.5032 49.5383 61.4347 51.1289C61.7034 51.5876 61.9087 52.0658 62.0577 52.5533L60.3793 54.2031ZM61.9299 56.8512L60.5216 54.4463L62.1419 52.8534C62.4816 54.1863 62.3937 55.5775 61.9299 56.8512ZM58.7418 60.6049C57.7885 61.1474 56.7625 61.4522 55.7372 61.5385C54.6674 60.9895 53.7535 60.1576 53.1314 59.0954L52.0675 57.2789C51.9912 57.1483 51.9219 57.0129 51.8613 56.8761C51.605 56.2975 51.2323 55.7631 50.7528 55.2879C50.6705 55.2065 50.5887 55.1204 50.5056 55.0298C50.4414 54.9598 50.4266 54.8664 50.4654 54.7796C50.5061 54.6886 50.5909 54.6338 50.6928 54.6333C50.8442 54.6325 50.9989 54.627 51.1497 54.6151C51.3947 54.5953 51.602 54.4248 51.6653 54.1914C51.9607 53.1072 52.6692 52.1996 53.6605 51.6354C54.3225 51.2584 55.0559 51.066 55.7977 51.066C56.1669 51.066 56.5379 51.1137 56.9035 51.2101C57.1397 51.2722 57.3935 51.1808 57.5333 50.9818C57.6198 50.8586 57.7023 50.7289 57.7789 50.5997C57.8298 50.5134 57.9198 50.4684 58.0206 50.4789C58.1161 50.489 58.1909 50.5487 58.2204 50.6383C58.2587 50.7552 58.2936 50.8695 58.3245 50.9808C58.5015 51.6264 58.7842 52.2124 59.1649 52.7218C59.2543 52.8412 59.338 52.9674 59.414 53.0969L61.8025 57.1758C61.2165 58.5645 60.1746 59.7894 58.7418 60.6049ZM52.6056 61.1116C52.5794 60.8215 52.5808 60.4752 52.6122 60.0762C52.6447 59.6656 52.6995 59.3163 52.7741 59.0283L52.8927 59.2311C53.4636 60.206 54.2691 60.9955 55.213 61.5621C54.3175 61.573 53.4325 61.4191 52.6056 61.1116ZM57.2269 47.6846C55.3294 47.2056 53.3411 47.4794 51.627 48.4554C49.9126 49.4311 48.6777 50.9924 48.15 52.8515C47.6217 54.7117 47.8645 56.6473 48.8332 58.3021C49.6599 59.7134 50.9148 60.7349 52.3526 61.3068L52.523 61.3695C53.3496 61.6748 54.2313 61.8363 55.1254 61.8363C56.3977 61.836 57.6929 61.5149 58.8791 60.8397C62.4188 58.8245 63.6721 54.4075 61.6725 50.9932C60.7039 49.3388 59.1249 48.1639 57.2269 47.6846Z" fill="black"/>
<path d="M60.3793 54.2031L60.293 54.2536L60.3579 54.3644L60.4494 54.2744L60.3793 54.2031ZM59.652 52.9612L59.7383 52.9106L59.7383 52.9106L59.652 52.9612ZM59.3864 52.5609L59.3063 52.6207L59.3063 52.6208L59.3864 52.5609ZM58.59 50.9096L58.6865 50.8832L58.6864 50.883L58.59 50.9096ZM58.4821 50.5549L58.3871 50.5861L58.3872 50.5862L58.4821 50.5549ZM58.0502 50.2092L58.0394 50.3086L58.0396 50.3086L58.0502 50.2092ZM57.541 50.4629L57.455 50.4117L57.4549 50.412L57.541 50.4629ZM57.307 50.8274L57.3887 50.885L57.3888 50.8849L57.307 50.8274ZM56.9744 50.9479L56.9489 51.0446L56.9491 51.0447L56.9744 50.9479ZM53.5228 51.4003L53.5722 51.4873L53.5723 51.4872L53.5228 51.4003ZM51.3993 54.1209L51.3028 54.0946L51.3028 54.0948L51.3993 54.1209ZM51.1271 54.3445L51.135 54.4442L51.1352 54.4442L51.1271 54.3445ZM50.6908 54.3619L50.6902 54.2619L50.6901 54.2619L50.6908 54.3619ZM50.2134 54.6699L50.1222 54.6291L50.1221 54.6291L50.2134 54.6699ZM50.3013 55.2116L50.375 55.1441L50.375 55.1441L50.3013 55.2116ZM50.5575 55.4792L50.4871 55.5502L50.4871 55.5503L50.5575 55.4792ZM51.6088 56.9847L51.5174 57.0251L51.5174 57.0253L51.6088 56.9847ZM51.829 57.4146L51.7427 57.465L51.7427 57.4651L51.829 57.4146ZM52.6078 58.7439L52.5772 58.8391L52.8263 58.919L52.6941 58.6934L52.6078 58.7439ZM52.5731 58.7328L52.6036 58.6376L52.5096 58.6074L52.4782 58.7011L52.5731 58.7328ZM52.338 60.0551L52.2383 60.0472L52.2383 60.0472L52.338 60.0551ZM52.3231 61.0001L52.2843 61.0922L52.4326 61.1547L52.423 60.9941L52.3231 61.0001ZM49.0719 58.1664L48.9856 58.2169L48.9856 58.2169L49.0719 58.1664ZM48.4154 52.9248L48.5115 52.9521L48.5116 52.9521L48.4154 52.9248ZM51.7649 48.6904L51.8144 48.7773L51.8144 48.7773L51.7649 48.6904ZM57.1589 47.9476L57.1344 48.0445L57.1344 48.0445L57.1589 47.9476ZM61.4347 51.1289L61.3484 51.1795L61.3484 51.1795L61.4347 51.1289ZM62.0577 52.5533L62.1278 52.6246L62.171 52.582L62.1533 52.524L62.0577 52.5533ZM60.5216 54.4463L60.4515 54.375L60.3959 54.4296L60.4353 54.4968L60.5216 54.4463ZM62.1419 52.8534L62.2388 52.8287L62.1958 52.6602L62.0718 52.7821L62.1419 52.8534ZM55.7372 61.5385L55.6915 61.6275L55.717 61.6406L55.7455 61.6382L55.7372 61.5385ZM53.1314 59.0954L53.2177 59.0448L53.2177 59.0448L53.1314 59.0954ZM52.0675 57.2789L51.9811 57.3293L51.9812 57.3294L52.0675 57.2789ZM51.8613 56.8761L51.9527 56.8357L51.9527 56.8356L51.8613 56.8761ZM50.7528 55.2879L50.8232 55.2169L50.8231 55.2168L50.7528 55.2879ZM50.5056 55.0298L50.4318 55.0973L50.4319 55.0974L50.5056 55.0298ZM50.4654 54.7796L50.3741 54.7387L50.3741 54.7388L50.4654 54.7796ZM50.6928 54.6333L50.6933 54.7333H50.6933L50.6928 54.6333ZM51.1497 54.6151L51.1576 54.7148L51.1578 54.7148L51.1497 54.6151ZM51.6653 54.1914L51.5688 54.1652L51.5688 54.1653L51.6653 54.1914ZM53.6605 51.6354L53.71 51.7223L53.71 51.7223L53.6605 51.6354ZM56.9035 51.2101L56.878 51.3068L56.878 51.3068L56.9035 51.2101ZM57.5333 50.9818L57.6151 51.0394L57.6152 51.0393L57.5333 50.9818ZM57.7789 50.5997L57.8649 50.6507L57.865 50.6505L57.7789 50.5997ZM58.0206 50.4789L58.031 50.3795L58.031 50.3795L58.0206 50.4789ZM58.2204 50.6383L58.3154 50.6072L58.3154 50.607L58.2204 50.6383ZM58.3245 50.9808L58.4209 50.9543L58.4208 50.9541L58.3245 50.9808ZM59.1649 52.7218L59.0848 52.7817L59.0848 52.7818L59.1649 52.7218ZM59.414 53.0969L59.5003 53.0463L59.5002 53.0463L59.414 53.0969ZM61.8025 57.1758L61.8947 57.2146L61.9142 57.1685L61.8888 57.1252L61.8025 57.1758ZM52.6122 60.0762L52.5125 60.0683L52.5125 60.0684L52.6122 60.0762ZM52.7741 59.0283L52.8604 58.9778L52.738 58.7688L52.6773 59.0033L52.7741 59.0283ZM52.8927 59.2311L52.8064 59.2816L52.8064 59.2816L52.8927 59.2311ZM55.213 61.5621L55.2142 61.6621L55.5667 61.6579L55.2645 61.4764L55.213 61.5621ZM57.2269 47.6846L57.2514 47.5876L57.2513 47.5876L57.2269 47.6846ZM51.627 48.4554L51.6764 48.5423L51.6764 48.5423L51.627 48.4554ZM48.15 52.8515L48.2462 52.8788L48.2462 52.8788L48.15 52.8515ZM48.8332 58.3021L48.7469 58.3526L48.7469 58.3526L48.8332 58.3021ZM52.3526 61.3068L52.3156 61.3997L52.3181 61.4006L52.3526 61.3068ZM52.523 61.3695L52.5576 61.2757L52.5575 61.2756L52.523 61.3695ZM55.1254 61.8363V61.9363H55.1254L55.1254 61.8363ZM58.8791 60.8397L58.9285 60.9266L58.9285 60.9266L58.8791 60.8397ZM61.6725 50.9932L61.5862 51.0438L61.5862 51.0438L61.6725 50.9932ZM60.4656 54.1526L59.7383 52.9106L59.5657 53.0117L60.293 54.2536L60.4656 54.1526ZM59.7383 52.9106C59.6555 52.7693 59.564 52.6313 59.4665 52.5009L59.3063 52.6208C59.3993 52.745 59.4867 52.8768 59.5658 53.0117L59.7383 52.9106ZM59.4665 52.501C59.1141 52.0293 58.8513 51.4852 58.6865 50.8832L58.4936 50.9361C58.6646 51.5608 58.9381 52.1279 59.3063 52.6207L59.4665 52.501ZM58.6864 50.883C58.654 50.7656 58.6174 50.646 58.5771 50.5236L58.3872 50.5862C58.4266 50.7059 58.4622 50.8224 58.4936 50.9363L58.6864 50.883ZM58.5772 50.5238C58.5019 50.294 58.3028 50.1355 58.0608 50.1097L58.0396 50.3086C58.205 50.3262 58.3368 50.4326 58.3871 50.5861L58.5772 50.5238ZM58.061 50.1097C57.8146 50.083 57.5816 50.1992 57.455 50.4117L57.6269 50.5141C57.7134 50.3689 57.8707 50.2903 58.0394 50.3086L58.061 50.1097ZM57.4549 50.412C57.383 50.5335 57.3059 50.655 57.2252 50.7699L57.3888 50.8849C57.4732 50.7648 57.553 50.6388 57.627 50.5139L57.4549 50.412ZM57.2252 50.7698C57.1756 50.8403 57.0862 50.8738 56.9997 50.8512L56.9491 51.0447C57.1159 51.0883 57.2908 51.024 57.3887 50.885L57.2252 50.7698ZM57 50.8512C55.8041 50.5351 54.5511 50.6997 53.4733 51.3134L53.5723 51.4872C54.6047 50.8993 55.8039 50.7419 56.9489 51.0446L57 50.8512ZM53.4733 51.3134C52.3957 51.9267 51.6246 52.9145 51.3028 54.0946L51.4958 54.1472C51.8033 53.0192 52.5401 52.0747 53.5722 51.4873L53.4733 51.3134ZM51.3028 54.0948C51.2808 54.1762 51.2074 54.2376 51.1189 54.2448L51.1352 54.4442C51.3055 54.4302 51.4513 54.3119 51.4959 54.147L51.3028 54.0948ZM51.1192 54.2448C50.9784 54.256 50.8331 54.2611 50.6902 54.2619L50.6913 54.4619C50.838 54.461 50.9884 54.4558 51.135 54.4442L51.1192 54.2448ZM50.6901 54.2619C50.4421 54.2635 50.223 54.4036 50.1222 54.6291L50.3047 54.7108C50.3729 54.5584 50.52 54.463 50.6914 54.4619L50.6901 54.2619ZM50.1221 54.6291C50.0233 54.8503 50.0638 55.1005 50.2275 55.2792L50.375 55.1441C50.2651 55.0242 50.2384 54.8592 50.3047 54.7107L50.1221 54.6291ZM50.2275 55.2791C50.3143 55.3741 50.4008 55.4645 50.4871 55.5502L50.628 55.4082C50.5442 55.3251 50.46 55.237 50.375 55.1441L50.2275 55.2791ZM50.4871 55.5503C50.9342 55.9934 51.2805 56.4897 51.5174 57.0251L51.7003 56.9442C51.4526 56.3843 51.0915 55.8677 50.6279 55.4082L50.4871 55.5503ZM51.5174 57.0253C51.5836 57.1744 51.6593 57.3224 51.7427 57.465L51.9154 57.3642C51.8357 57.2278 51.7634 57.0865 51.7002 56.9441L51.5174 57.0253ZM51.7427 57.4651L52.5215 58.7945L52.6941 58.6934L51.9153 57.364L51.7427 57.4651ZM52.6383 58.6487L52.6036 58.6376L52.5425 58.828L52.5772 58.8391L52.6383 58.6487ZM52.4782 58.7011C52.361 59.052 52.2811 59.5056 52.2383 60.0472L52.4377 60.0629C52.4797 59.5303 52.5578 59.0943 52.6679 58.7645L52.4782 58.7011ZM52.2383 60.0472C52.2102 60.4061 52.2065 60.7242 52.2233 61.006L52.423 60.9941C52.4068 60.7228 52.4102 60.414 52.4377 60.0629L52.2383 60.0472ZM52.362 60.9079C51.0539 60.3567 49.9158 59.4089 49.1582 58.1158L48.9856 58.2169C49.7662 59.5494 50.9387 60.5252 52.2843 61.0922L52.362 60.9079ZM49.1582 58.1158C48.2406 56.5486 48.0108 54.7152 48.5115 52.9521L48.3192 52.8975C47.8036 54.7125 48.0402 56.6022 48.9856 58.2169L49.1582 58.1158ZM48.5116 52.9521C49.0124 51.1872 50.185 49.7048 51.8144 48.7773L51.7154 48.6035C50.0415 49.5563 48.8346 51.081 48.3192 52.8975L48.5116 52.9521ZM51.8144 48.7773C53.4435 47.8495 55.3332 47.5895 57.1344 48.0445L57.1834 47.8506C55.3317 47.3829 53.389 47.6504 51.7154 48.6035L51.8144 48.7773ZM57.1344 48.0445C58.9349 48.499 60.4308 49.6125 61.3484 51.1795L61.521 51.0784C60.5756 49.464 59.0346 48.3179 57.1834 47.8506L57.1344 48.0445ZM61.3484 51.1795C61.613 51.6311 61.8153 52.1022 61.962 52.5825L62.1533 52.524C62.0022 52.0295 61.7938 51.5441 61.521 51.0784L61.3484 51.1795ZM61.9875 52.4819L60.3092 54.1318L60.4494 54.2744L62.1278 52.6246L61.9875 52.4819ZM62.0162 56.8006L60.6079 54.3958L60.4353 54.4968L61.8436 56.9017L62.0162 56.8006ZM60.5917 54.5176L62.212 52.9247L62.0718 52.7821L60.4515 54.375L60.5917 54.5176ZM62.045 52.8781C62.3795 54.1907 62.2932 55.5614 61.8359 56.817L62.0239 56.8854C62.4943 55.5936 62.5836 54.1818 62.2388 52.8287L62.045 52.8781ZM58.6923 60.518C57.7519 61.0532 56.7401 61.3538 55.7288 61.4389L55.7455 61.6382C56.785 61.5507 57.825 61.2417 58.7912 60.6918L58.6923 60.518ZM55.7828 61.4496C54.729 60.9087 53.8296 60.0897 53.2177 59.0448L53.0451 59.1459C53.6774 60.2256 54.6059 61.0703 55.6915 61.6275L55.7828 61.4496ZM53.2177 59.0448L52.1538 57.2284L51.9812 57.3294L53.0451 59.1459L53.2177 59.0448ZM52.1538 57.2285C52.0794 57.1011 52.0118 56.969 51.9527 56.8357L51.7699 56.9166C51.832 57.0569 51.903 57.1956 51.9811 57.3293L52.1538 57.2285ZM51.9527 56.8356C51.6911 56.2449 51.311 55.7003 50.8232 55.2169L50.6824 55.3589C51.1536 55.8259 51.519 56.3501 51.7699 56.9166L51.9527 56.8356ZM50.8231 55.2168C50.7423 55.1368 50.6617 55.052 50.5793 54.9622L50.4319 55.0974C50.5157 55.1888 50.5987 55.2761 50.6824 55.359L50.8231 55.2168ZM50.5793 54.9622C50.5423 54.9218 50.534 54.8711 50.5567 54.8204L50.3741 54.7388C50.3191 54.8617 50.3406 54.9977 50.4318 55.0973L50.5793 54.9622ZM50.5566 54.8205C50.581 54.7661 50.6298 54.7336 50.6933 54.7333L50.6922 54.5333C50.552 54.534 50.4312 54.6112 50.3741 54.7387L50.5566 54.8205ZM50.6933 54.7333C50.8466 54.7324 51.0039 54.727 51.1576 54.7148L51.1418 54.5154C50.9939 54.5271 50.8417 54.5325 50.6922 54.5333L50.6933 54.7333ZM51.1578 54.7148C51.4439 54.6916 51.6872 54.4926 51.7618 54.2176L51.5688 54.1653C51.5167 54.3571 51.3455 54.4989 51.1417 54.5154L51.1578 54.7148ZM51.7618 54.2177C52.05 53.1596 52.7414 52.2736 53.71 51.7223L53.611 51.5485C52.597 52.1256 51.8713 53.0548 51.5688 54.1652L51.7618 54.2177ZM53.71 51.7223C54.357 51.3538 55.0733 51.166 55.7977 51.166V50.966C55.0384 50.966 54.288 51.163 53.611 51.5485L53.71 51.7223ZM55.7977 51.166C56.1582 51.166 56.5207 51.2126 56.878 51.3068L56.929 51.1134C56.5551 51.0149 56.1755 50.966 55.7977 50.966V51.166ZM56.878 51.3068C57.1542 51.3795 57.4509 51.2729 57.6151 51.0394L57.4515 50.9243C57.336 51.0886 57.1252 51.165 56.9289 51.1134L56.878 51.3068ZM57.6152 51.0393C57.7033 50.9136 57.7873 50.7817 57.8649 50.6507L57.6928 50.5487C57.6174 50.6761 57.5362 50.8036 57.4515 50.9244L57.6152 51.0393ZM57.865 50.6505C57.8958 50.5983 57.9478 50.5718 58.0101 50.5784L58.031 50.3795C57.8918 50.3649 57.7638 50.4285 57.6927 50.5489L57.865 50.6505ZM58.0101 50.5784C58.0674 50.5844 58.1085 50.6182 58.1254 50.6695L58.3154 50.607C58.2734 50.4792 58.1647 50.3935 58.031 50.3795L58.0101 50.5784ZM58.1254 50.6693C58.1632 50.7852 58.1977 50.8979 58.2281 51.0075L58.4208 50.9541C58.3895 50.841 58.3541 50.7253 58.3154 50.6072L58.1254 50.6693ZM58.228 51.0072C58.4081 51.6643 58.6962 52.2617 59.0848 52.7817L59.245 52.6619C58.8722 52.1631 58.5948 51.5886 58.4209 50.9543L58.228 51.0072ZM59.0848 52.7818C59.172 52.8981 59.2536 53.0212 59.3277 53.1475L59.5002 53.0463C59.4224 52.9137 59.3367 52.7843 59.2449 52.6618L59.0848 52.7818ZM59.3277 53.1474L61.7162 57.2263L61.8888 57.1252L59.5003 53.0463L59.3277 53.1474ZM61.7104 57.1369C61.1327 58.5059 60.1055 59.7136 58.6923 60.518L58.7912 60.6918C60.2436 59.8651 61.3003 58.6232 61.8947 57.2146L61.7104 57.1369ZM52.7052 61.1026C52.6797 60.8195 52.6808 60.4791 52.7119 60.0841L52.5125 60.0684C52.4808 60.4713 52.4792 60.8235 52.506 61.1206L52.7052 61.1026ZM52.7119 60.0841C52.7441 59.6775 52.7981 59.3343 52.8709 59.0534L52.6773 59.0033C52.6008 59.2984 52.5453 59.6537 52.5125 60.0683L52.7119 60.0841ZM52.6878 59.0789L52.8064 59.2816L52.979 59.1806L52.8604 58.9778L52.6878 59.0789ZM52.8064 59.2816C53.3862 60.2717 54.204 61.073 55.1615 61.6479L55.2645 61.4764C54.3342 60.9179 53.541 60.1402 52.979 59.1805L52.8064 59.2816ZM55.2118 61.4622C54.3285 61.4729 53.4558 61.3211 52.6404 61.0179L52.5707 61.2053C53.4093 61.5172 54.3065 61.6731 55.2142 61.6621L55.2118 61.4622ZM57.2513 47.5876C55.3286 47.1022 53.3138 47.3799 51.5775 48.3685L51.6764 48.5423C53.3684 47.579 55.3302 47.3089 57.2024 47.7816L57.2513 47.5876ZM51.5775 48.3685C49.8408 49.3568 48.5888 50.9393 48.0538 52.8242L48.2462 52.8788C48.7666 51.0455 49.9843 49.5053 51.6764 48.5423L51.5775 48.3685ZM48.0538 52.8242C47.5182 54.7104 47.7643 56.6741 48.7469 58.3526L48.9195 58.2516C47.9647 56.6206 47.7253 54.7131 48.2462 52.8788L48.0538 52.8242ZM48.7469 58.3526C49.5855 59.7842 50.8584 60.8201 52.3156 61.3997L52.3895 61.2138C50.9713 60.6498 49.7342 59.6425 48.9195 58.2515L48.7469 58.3526ZM52.4883 61.4633C53.3259 61.7726 54.2193 61.9363 55.1254 61.9363V61.7363C54.2434 61.7363 53.3734 61.577 52.5576 61.2757L52.4883 61.4633ZM55.1254 61.9363C56.4146 61.936 57.7269 61.6107 58.9285 60.9266L58.8296 60.7528C57.6589 61.4192 56.3809 61.736 55.1254 61.7363L55.1254 61.9363ZM58.9285 60.9266C62.5142 58.8853 63.788 54.4074 61.7588 50.9427L61.5862 51.0438C63.5563 54.4075 62.3234 58.7638 58.8296 60.7528L58.9285 60.9266ZM61.7588 50.9427C60.7763 49.2646 59.1747 48.0733 57.2514 47.5876L57.2024 47.7816C59.075 48.2544 60.6314 49.413 61.5862 51.0438L61.7588 50.9427ZM52.3181 61.4006L52.4885 61.4633L52.5575 61.2756L52.3871 61.2129L52.3181 61.4006Z" fill="black" mask="url(#path-16-outside-3_951_283)"/>
<mask id="path-18-outside-4_951_283" maskUnits="userSpaceOnUse" x="51.167" y="51.1611" width="9" height="9" fill="black">
<rect fill="white" x="51.167" y="51.1611" width="9" height="9"/>
<path fill-rule="evenodd" clip-rule="evenodd" d="M57.6149 58.1888C56.2609 58.9549 55.2533 59.1385 54.445 58.7667C53.6913 58.4199 53.1755 57.6211 52.6703 56.7631C52.1905 55.9482 52.4863 54.8966 53.3296 54.4192C53.6068 54.2624 53.9149 54.1852 54.2211 54.1852C54.6237 54.1852 55.0226 54.3187 55.3416 54.5795L55.6272 54.8127L55.5638 54.4535C55.4392 53.7472 55.7866 53.0283 56.4282 52.6648C56.8371 52.4335 57.3123 52.3694 57.7655 52.4858C58.2185 52.6016 58.5957 52.8825 58.8278 53.2768C59.8111 54.9468 60.4578 56.5792 57.6149 58.1888ZM57.8346 52.2263C57.3109 52.0928 56.7633 52.1657 56.2915 52.4327C55.6417 52.8005 55.2536 53.4848 55.2656 54.1986C54.6409 53.8319 53.8422 53.8193 53.1929 54.1871C52.219 54.7382 51.8783 55.9541 52.4333 56.8971C52.9614 57.7932 53.5035 58.6298 54.3288 59.0096C54.6352 59.1503 54.9635 59.2213 55.3205 59.2213C56.0094 59.2213 56.8043 58.9571 57.7515 58.4207C60.8107 56.6888 60.0779 54.8637 59.0645 53.1428C58.7955 52.6857 58.3587 52.3603 57.8346 52.2263Z"/>
</mask>
<path fill-rule="evenodd" clip-rule="evenodd" d="M57.6149 58.1888C56.2609 58.9549 55.2533 59.1385 54.445 58.7667C53.6913 58.4199 53.1755 57.6211 52.6703 56.7631C52.1905 55.9482 52.4863 54.8966 53.3296 54.4192C53.6068 54.2624 53.9149 54.1852 54.2211 54.1852C54.6237 54.1852 55.0226 54.3187 55.3416 54.5795L55.6272 54.8127L55.5638 54.4535C55.4392 53.7472 55.7866 53.0283 56.4282 52.6648C56.8371 52.4335 57.3123 52.3694 57.7655 52.4858C58.2185 52.6016 58.5957 52.8825 58.8278 53.2768C59.8111 54.9468 60.4578 56.5792 57.6149 58.1888ZM57.8346 52.2263C57.3109 52.0928 56.7633 52.1657 56.2915 52.4327C55.6417 52.8005 55.2536 53.4848 55.2656 54.1986C54.6409 53.8319 53.8422 53.8193 53.1929 54.1871C52.219 54.7382 51.8783 55.9541 52.4333 56.8971C52.9614 57.7932 53.5035 58.6298 54.3288 59.0096C54.6352 59.1503 54.9635 59.2213 55.3205 59.2213C56.0094 59.2213 56.8043 58.9571 57.7515 58.4207C60.8107 56.6888 60.0779 54.8637 59.0645 53.1428C58.7955 52.6857 58.3587 52.3603 57.8346 52.2263Z" fill="black"/>
<path d="M54.445 58.7667L54.4031 58.8576L54.4032 58.8576L54.445 58.7667ZM52.6703 56.7631L52.5841 56.8138L52.5841 56.8138L52.6703 56.7631ZM53.3296 54.4192L53.2804 54.3322L53.2804 54.3322L53.3296 54.4192ZM55.3416 54.5795L55.2783 54.6569L55.2783 54.657L55.3416 54.5795ZM55.6272 54.8127L55.564 54.8902L55.7725 55.0604L55.7257 54.7953L55.6272 54.8127ZM55.5638 54.4535L55.4653 54.4709L55.4653 54.4709L55.5638 54.4535ZM56.4282 52.6648L56.379 52.5778L56.3789 52.5778L56.4282 52.6648ZM57.7655 52.4858L57.7406 52.5826L57.7407 52.5827L57.7655 52.4858ZM58.8278 53.2768L58.7416 53.3275L58.7416 53.3275L58.8278 53.2768ZM56.2915 52.4327L56.2423 52.3457L56.2423 52.3457L56.2915 52.4327ZM55.2656 54.1986L55.215 54.2849L55.3686 54.375L55.3656 54.1969L55.2656 54.1986ZM53.1929 54.1871L53.2422 54.2741L53.2422 54.2741L53.1929 54.1871ZM52.4333 56.8971L52.3471 56.9478L52.3471 56.9479L52.4333 56.8971ZM54.3288 59.0096L54.287 59.1004L54.287 59.1005L54.3288 59.0096ZM57.7515 58.4207L57.7023 58.3337L57.7023 58.3337L57.7515 58.4207ZM59.0645 53.1428L58.9783 53.1935L58.9783 53.1935L59.0645 53.1428ZM57.5656 58.1018C56.2192 58.8636 55.2496 59.0268 54.4867 58.6759L54.4032 58.8576C55.2569 59.2503 56.3026 59.0462 57.6641 58.2759L57.5656 58.1018ZM54.4868 58.6759C53.7661 58.3442 53.2645 57.5752 52.7565 56.7123L52.5841 56.8138C53.0864 57.667 53.6165 58.4955 54.4031 58.8576L54.4868 58.6759ZM52.7565 56.7123C52.3063 55.9476 52.5821 54.9573 53.3789 54.5063L53.2804 54.3322C52.3905 54.836 52.0748 55.9487 52.5841 56.8138L52.7565 56.7123ZM53.3789 54.5063C53.6406 54.3582 53.9317 54.2852 54.2211 54.2852V54.0852C53.8981 54.0852 53.573 54.1666 53.2804 54.3322L53.3789 54.5063ZM54.2211 54.2852C54.6019 54.2852 54.978 54.4115 55.2783 54.6569L55.4049 54.5021C55.0671 54.226 54.6456 54.0852 54.2211 54.0852V54.2852ZM55.2783 54.657L55.564 54.8902L55.6905 54.7353L55.4048 54.5021L55.2783 54.657ZM55.7257 54.7953L55.6623 54.4362L55.4653 54.4709L55.5288 54.8301L55.7257 54.7953ZM55.6623 54.4362C55.5453 53.7731 55.8713 53.0952 56.4775 52.7518L56.3789 52.5778C55.7019 52.9614 55.3331 53.7213 55.4653 54.4709L55.6623 54.4362ZM56.4774 52.7519C56.8641 52.5332 57.3127 52.4728 57.7406 52.5826L57.7903 52.3889C57.3119 52.2661 56.8102 52.3339 56.379 52.5778L56.4774 52.7519ZM57.7407 52.5827C58.1685 52.692 58.5233 52.9567 58.7416 53.3275L58.914 53.2261C58.668 52.8083 58.2684 52.5111 57.7903 52.3889L57.7407 52.5827ZM58.7416 53.3275C59.2343 54.1643 59.6242 54.9643 59.5565 55.7468C59.4898 56.5181 58.9732 57.3048 57.5656 58.1018L57.6641 58.2758C59.0995 57.4632 59.681 56.6289 59.7558 55.764C59.8296 54.9105 59.4046 54.0593 58.9139 53.2261L58.7416 53.3275ZM57.8593 52.1294C57.3106 51.9895 56.7365 52.066 56.2423 52.3457L56.3408 52.5197C56.7901 52.2655 57.3112 52.1961 57.8099 52.3232L57.8593 52.1294ZM56.2423 52.3457C55.5611 52.7312 55.1529 53.4492 55.1656 54.2003L55.3656 54.1969C55.3542 53.5204 55.7223 52.8698 56.3408 52.5197L56.2423 52.3457ZM55.3162 54.1124C54.6609 53.7277 53.824 53.7147 53.1437 54.1001L53.2422 54.2741C53.8603 53.924 54.621 53.9362 55.215 54.2849L55.3162 54.1124ZM53.1437 54.1001C52.1229 54.6776 51.7627 55.9548 52.3471 56.9478L52.5195 56.8464C51.994 55.9534 52.315 54.7988 53.2422 54.2741L53.1437 54.1001ZM52.3471 56.9479C52.873 57.84 53.4291 58.7056 54.287 59.1004L54.3706 58.9187C53.5779 58.5539 53.0499 57.7463 52.5194 56.8463L52.3471 56.9479ZM54.287 59.1005C54.6071 59.2474 54.9497 59.3213 55.3205 59.3213V59.1213C54.9773 59.1213 54.6633 59.0532 54.3705 58.9187L54.287 59.1005ZM55.3205 59.3213C56.0341 59.3213 56.8468 59.0479 57.8008 58.5077L57.7023 58.3337C56.7619 58.8662 55.9847 59.1213 55.3205 59.1213V59.3213ZM57.8008 58.5077C59.3456 57.6332 59.9586 56.7197 60.0349 55.7857C60.1103 54.8629 59.6567 53.9514 59.1507 53.092L58.9783 53.1935C59.4857 54.055 59.9052 54.9165 59.8356 55.7695C59.7668 56.6113 59.2167 57.4763 57.7023 58.3337L57.8008 58.5077ZM59.1507 53.092C58.8679 52.6115 58.4087 52.2699 57.8594 52.1294L57.8099 52.3232C58.3087 52.4508 58.7232 52.7599 58.9783 53.1935L59.1507 53.092Z" fill="black" mask="url(#path-18-outside-4_951_283)"/>
<mask id="path-20-outside-5_951_283" maskUnits="userSpaceOnUse" x="54.6528" y="54.2991" width="3" height="4" fill="black">
<rect fill="white" x="54.6528" y="54.2991" width="3" height="4"/>
<path fill-rule="evenodd" clip-rule="evenodd" d="M57.0835 57.0701C56.9794 57.1287 56.857 57.1287 56.7574 57.0695L55.9804 56.6134C55.9466 56.5934 55.9299 56.5544 55.9392 56.5182L56.1646 55.639C56.1719 55.61 56.1932 55.5939 56.2052 55.5873C56.2142 55.5823 56.2296 55.5757 56.2494 55.5757C56.2562 55.5757 56.2639 55.5765 56.2721 55.5784L57.1652 55.828C57.2021 55.8382 57.2282 55.8722 57.2291 55.9104L57.2461 56.7948C57.2484 56.9085 57.1877 57.0114 57.0835 57.0701ZM57.2431 55.5621L56.35 55.3126C56.2535 55.286 56.1496 55.299 56.0628 55.3477C55.9762 55.3967 55.9126 55.4786 55.8888 55.5724L55.6638 56.451C55.6243 56.6037 55.6941 56.768 55.8338 56.8502L56.6108 57.3063C56.7064 57.363 56.8126 57.391 56.919 57.391C57.0237 57.391 57.1287 57.3639 57.2252 57.3097C57.4202 57.2001 57.534 57.0056 57.5297 56.7893L57.5127 55.9049C57.5096 55.7466 57.3986 55.6056 57.2431 55.5621Z"/>
</mask>
<path fill-rule="evenodd" clip-rule="evenodd" d="M57.0835 57.0701C56.9794 57.1287 56.857 57.1287 56.7574 57.0695L55.9804 56.6134C55.9466 56.5934 55.9299 56.5544 55.9392 56.5182L56.1646 55.639C56.1719 55.61 56.1932 55.5939 56.2052 55.5873C56.2142 55.5823 56.2296 55.5757 56.2494 55.5757C56.2562 55.5757 56.2639 55.5765 56.2721 55.5784L57.1652 55.828C57.2021 55.8382 57.2282 55.8722 57.2291 55.9104L57.2461 56.7948C57.2484 56.9085 57.1877 57.0114 57.0835 57.0701ZM57.2431 55.5621L56.35 55.3126C56.2535 55.286 56.1496 55.299 56.0628 55.3477C55.9762 55.3967 55.9126 55.4786 55.8888 55.5724L55.6638 56.451C55.6243 56.6037 55.6941 56.768 55.8338 56.8502L56.6108 57.3063C56.7064 57.363 56.8126 57.391 56.919 57.391C57.0237 57.391 57.1287 57.3639 57.2252 57.3097C57.4202 57.2001 57.534 57.0056 57.5297 56.7893L57.5127 55.9049C57.5096 55.7466 57.3986 55.6056 57.2431 55.5621Z" fill="black"/>
<path d="M56.7574 57.0695L56.8085 56.9836L56.808 56.9833L56.7574 57.0695ZM55.9804 56.6134L55.9296 56.6995L55.9298 56.6996L55.9804 56.6134ZM55.9392 56.5182L56.0361 56.5432L56.0361 56.543L55.9392 56.5182ZM56.1646 55.639L56.2614 55.6639L56.2615 55.6636L56.1646 55.639ZM56.2052 55.5873L56.1571 55.4996L56.1565 55.4999L56.2052 55.5873ZM56.2721 55.5784L56.2991 55.482L56.295 55.4811L56.2721 55.5784ZM57.1652 55.828L57.1383 55.9243L57.1385 55.9243L57.1652 55.828ZM57.2291 55.9104L57.3291 55.9085L57.3291 55.9082L57.2291 55.9104ZM57.2461 56.7948L57.1461 56.7968L57.1461 56.7968L57.2461 56.7948ZM56.35 55.3126L56.3769 55.2163L56.3765 55.2162L56.35 55.3126ZM56.0628 55.3477L56.0139 55.2605L56.0135 55.2607L56.0628 55.3477ZM55.8888 55.5724L55.9857 55.5972L55.9857 55.597L55.8888 55.5724ZM55.6638 56.451L55.7606 56.476L55.7606 56.4758L55.6638 56.451ZM55.8338 56.8502L55.783 56.9363L55.7831 56.9364L55.8338 56.8502ZM56.6108 57.3063L56.6618 57.2203L56.6614 57.2201L56.6108 57.3063ZM57.2252 57.3097L57.1762 57.2225L57.1762 57.2225L57.2252 57.3097ZM57.5297 56.7893L57.4297 56.7912L57.4297 56.7913L57.5297 56.7893ZM57.5127 55.9049L57.6127 55.903L57.6127 55.9029L57.5127 55.9049ZM57.0344 56.9829C56.9601 57.0248 56.876 57.0237 56.8085 56.9836L56.7063 57.1555C56.8381 57.2338 56.9986 57.2326 57.1326 57.1572L57.0344 56.9829ZM56.808 56.9833L56.031 56.5271L55.9298 56.6996L56.7068 57.1558L56.808 56.9833ZM56.0312 56.5272C56.0337 56.5287 56.0385 56.5339 56.0361 56.5432L55.8424 56.4932C55.8213 56.575 55.8596 56.6582 55.9296 56.6995L56.0312 56.5272ZM56.0361 56.543L56.2614 55.6639L56.0677 55.6142L55.8424 56.4934L56.0361 56.543ZM56.2615 55.6636C56.2605 55.6677 56.2584 55.6706 56.257 55.6722C56.256 55.6733 56.2551 55.6739 56.2538 55.6747L56.1565 55.4999C56.1322 55.5134 56.0845 55.548 56.0676 55.6144L56.2615 55.6636ZM56.2532 55.675C56.2537 55.6747 56.2522 55.6757 56.2494 55.6757V55.4757C56.2069 55.4757 56.1748 55.4899 56.1571 55.4996L56.2532 55.675ZM56.2494 55.6757L56.2492 55.6758L56.295 55.4811C56.2796 55.4775 56.2643 55.4757 56.2494 55.4757V55.6757ZM56.2452 55.6748L57.1383 55.9243L57.1921 55.7317L56.299 55.4821L56.2452 55.6748ZM57.1385 55.9243C57.1351 55.9234 57.1328 55.9215 57.1315 55.9198C57.1303 55.9182 57.1292 55.9158 57.1291 55.9126L57.3291 55.9082C57.3272 55.8265 57.2719 55.7538 57.192 55.7316L57.1385 55.9243ZM57.1291 55.9123L57.1461 56.7968L57.3461 56.7929L57.3291 55.9085L57.1291 55.9123ZM57.1461 56.7968C57.1476 56.8715 57.1085 56.9413 57.0344 56.9829L57.1326 57.1572C57.2668 57.0816 57.3492 56.9456 57.3461 56.7928L57.1461 56.7968ZM57.27 55.4658L56.3769 55.2163L56.3231 55.4089L57.2162 55.6584L57.27 55.4658ZM56.3765 55.2162C56.2545 55.1826 56.1235 55.199 56.0139 55.2605L56.1117 55.435C56.1757 55.399 56.2525 55.3895 56.3234 55.409L56.3765 55.2162ZM56.0135 55.2607C55.9041 55.3226 55.8227 55.4266 55.7919 55.5477L55.9857 55.597C56.0026 55.5306 56.0483 55.4708 56.112 55.4348L56.0135 55.2607ZM55.7919 55.5475L55.5669 56.4262L55.7606 56.4758L55.9857 55.5972L55.7919 55.5475ZM55.5669 56.426C55.5159 56.6234 55.6063 56.8323 55.783 56.9363L55.8845 56.764C55.782 56.7036 55.7327 56.584 55.7606 56.476L55.5669 56.426ZM55.7831 56.9364L56.5602 57.3926L56.6614 57.2201L55.8844 56.7639L55.7831 56.9364ZM56.5598 57.3924C56.6711 57.4584 56.7949 57.491 56.919 57.491V57.291C56.8302 57.291 56.7417 57.2677 56.6618 57.2203L56.5598 57.3924ZM56.919 57.491C57.0411 57.491 57.163 57.4593 57.2742 57.3968L57.1762 57.2225C57.0945 57.2684 57.0063 57.291 56.919 57.291V57.491ZM57.2742 57.3968C57.4999 57.27 57.6347 57.042 57.6297 56.7873L57.4297 56.7913C57.4332 56.9692 57.3404 57.1302 57.1762 57.2225L57.2742 57.3968ZM57.6297 56.7874L57.6127 55.903L57.4127 55.9068L57.4297 56.7912L57.6297 56.7874ZM57.6127 55.9029C57.6087 55.6993 57.4668 55.5208 57.27 55.4658L57.2162 55.6584C57.3304 55.6903 57.4105 55.794 57.4127 55.9069L57.6127 55.9029Z" fill="black" mask="url(#path-20-outside-5_951_283)"/>
<mask id="path-22-outside-6_951_283" maskUnits="userSpaceOnUse" x="55.7256" y="52.9917" width="3" height="3" fill="black">
<rect fill="white" x="55.7256" y="52.9917" width="3" height="3"/>
<path fill-rule="evenodd" clip-rule="evenodd" d="M56.9791 54.054C56.7275 54.1907 56.65 54.5077 56.8064 54.7623C56.9625 55.0166 57.2927 55.1119 57.5447 54.9753C57.7963 54.8389 57.8737 54.5219 57.7173 54.2673C57.5616 54.013 57.2307 53.9173 56.9791 54.054Z"/>
</mask>
<path fill-rule="evenodd" clip-rule="evenodd" d="M56.9791 54.054C56.7275 54.1907 56.65 54.5077 56.8064 54.7623C56.9625 55.0166 57.2927 55.1119 57.5447 54.9753C57.7963 54.8389 57.8737 54.5219 57.7173 54.2673C57.5616 54.013 57.2307 53.9173 56.9791 54.054Z" fill="black"/>
<path d="M56.8064 54.7623L56.8916 54.71L56.8916 54.71L56.8064 54.7623ZM57.5447 54.9753L57.497 54.8873L57.497 54.8874L57.5447 54.9753ZM57.7173 54.2673L57.6321 54.3195L57.6321 54.3196L57.7173 54.2673ZM56.9313 53.9662C56.6257 54.1322 56.5371 54.5149 56.7212 54.8146L56.8916 54.71C56.763 54.5006 56.8293 54.2492 57.0268 54.1419L56.9313 53.9662ZM56.7212 54.8146C56.9032 55.1111 57.2906 55.2269 57.5924 55.0632L57.497 54.8874C57.2949 54.997 57.0218 54.922 56.8916 54.71L56.7212 54.8146ZM57.5923 55.0632C57.8981 54.8974 57.9866 54.5147 57.8025 54.2149L57.6321 54.3196C57.7608 54.5291 57.6944 54.7803 57.497 54.8873L57.5923 55.0632ZM57.8026 54.2151C57.6209 53.9185 57.2328 53.8024 56.9313 53.9662L57.0268 54.1419C57.2286 54.0323 57.5022 54.1075 57.6321 54.3195L57.8026 54.2151Z" fill="black" mask="url(#path-22-outside-6_951_283)"/>
<mask id="path-24-outside-7_951_283" maskUnits="userSpaceOnUse" x="53.0439" y="54.5605" width="3" height="3" fill="black">
<rect fill="white" x="53.0439" y="54.5605" width="3" height="3"/>
<path fill-rule="evenodd" clip-rule="evenodd" d="M54.2975 55.6229C54.0458 55.7597 53.9684 56.0764 54.1247 56.331C54.2806 56.5853 54.6112 56.6809 54.8629 56.5441C55.1147 56.4075 55.192 56.0905 55.0358 55.8362C54.8795 55.5816 54.5489 55.4863 54.2975 55.6229Z"/>
</mask>
<path fill-rule="evenodd" clip-rule="evenodd" d="M54.2975 55.6229C54.0458 55.7597 53.9684 56.0764 54.1247 56.331C54.2806 56.5853 54.6112 56.6809 54.8629 56.5441C55.1147 56.4075 55.192 56.0905 55.0358 55.8362C54.8795 55.5816 54.5489 55.4863 54.2975 55.6229Z" fill="black"/>
<path d="M54.1247 56.331L54.2099 56.2787L54.2099 56.2787L54.1247 56.331ZM54.8629 56.5441L54.8153 56.4562L54.8152 56.4562L54.8629 56.5441ZM55.0358 55.8362L54.9505 55.8885L54.9506 55.8885L55.0358 55.8362ZM54.2498 55.535C53.944 55.7012 53.8555 56.0835 54.0395 56.3833L54.2099 56.2787C54.0814 56.0693 54.1476 55.8182 54.3453 55.7107L54.2498 55.535ZM54.0394 56.3833C54.2213 56.6799 54.6091 56.7959 54.9107 56.6319L54.8152 56.4562C54.6134 56.5659 54.34 56.4908 54.2099 56.2787L54.0394 56.3833ZM54.9106 56.632C55.2165 56.4661 55.305 56.0834 55.121 55.7839L54.9506 55.8885C55.079 56.0977 55.0129 56.349 54.8153 56.4562L54.9106 56.632ZM55.121 55.7839C54.9389 55.4871 54.5511 55.3714 54.2498 55.535L54.3452 55.7107C54.5468 55.6013 54.8202 55.6761 54.9505 55.8885L55.121 55.7839Z" fill="black" mask="url(#path-24-outside-7_951_283)"/>
</svg>
