<svg width="180" height="145" viewBox="0 0 180 145" fill="none" xmlns="http://www.w3.org/2000/svg">
<path d="M152.512 72.1796C131.733 72.5941 124.086 105.728 124.086 105.728L126.516 107.912C126.516 107.912 154.087 98.7859 161.013 85.7059C164.353 79.4011 159.612 72.0441 152.512 72.1796Z" fill="#28AAAB"/>
<path d="M122.4 110.025L123.144 110.463C123.334 110.144 142.276 78.6757 159.557 76.3323L158.939 75.583C141.247 77.9902 123.168 108.717 122.4 110.025Z" fill="#78D0D0"/>
<path d="M129.936 53.2592C123.603 46.6913 116.899 45.7667 111.453 46.7152C109.132 47.1403 106.925 48.0508 104.975 49.388C103.025 50.7252 101.376 52.4594 100.133 54.4785C98.8903 56.4976 98.0819 58.7568 97.7602 61.11C97.4384 63.4633 97.6104 65.8584 98.2651 68.1405C99.661 72.5828 101.818 76.7451 104.637 80.4394C118.094 98.9155 118.363 107.149 118.363 107.149H125.115C125.115 107.149 143.852 67.7101 129.936 53.2592Z" fill="#35B8B9"/>
<path d="M94.4339 78.7497C89.4866 78.5106 85.5445 82.8466 86.6844 87.4298C90.3652 102.144 110.606 106.328 110.606 106.328H118.355C118.355 106.328 119.543 79.9612 94.4339 78.7497Z" fill="#52C6C6"/>
<path d="M109.3 47.1934L108.35 47.56C130.348 66.2753 121.688 105.332 121.609 105.69L122.472 105.89C122.566 105.491 131.709 66.2753 109.3 47.1934Z" fill="#78D0D0"/>
<path d="M89.3916 81.2207L88.9166 82.0178C101.764 83.3409 115.086 105.651 115.221 105.874L115.949 105.444C115.403 104.535 102.69 82.5917 89.3916 81.2207Z" fill="#78D0D0"/>
<path d="M132.849 105.89H108.35V129.706H132.849V105.89Z" fill="#0A9091"/>
<path d="M132.929 105.89H107.889C107.658 105.874 107.425 105.906 107.206 105.984C106.988 106.062 106.787 106.185 106.617 106.345C106.448 106.504 106.312 106.697 106.22 106.912C106.127 107.126 106.08 107.358 106.08 107.591C106.08 107.825 106.127 108.057 106.22 108.271C106.312 108.486 106.448 108.679 106.617 108.838C106.787 108.998 106.988 109.12 107.206 109.199C107.425 109.277 107.658 109.309 107.889 109.293H132.929C133.16 109.309 133.393 109.277 133.611 109.199C133.83 109.12 134.031 108.998 134.2 108.838C134.37 108.679 134.505 108.486 134.598 108.271C134.691 108.057 134.738 107.825 134.738 107.591C134.738 107.358 134.691 107.126 134.598 106.912C134.505 106.697 134.37 106.504 134.2 106.345C134.031 106.185 133.83 106.062 133.611 105.984C133.393 105.906 133.16 105.874 132.929 105.89Z" fill="#68CACA"/>
<path fill-rule="evenodd" clip-rule="evenodd" d="M78.2587 68.0723C77.1161 69.1307 69.2776 98.7018 69.2776 98.7018C74.0494 102.607 91.3783 100.107 94.9482 91.6872C101.301 76.6954 87.7253 71.2536 78.2587 68.0723Z" fill="#F6871F"/>
<path d="M25.5796 86.5034L29.0963 82.9513C28.67 79.0763 26.071 74.8903 24.6856 72.893C23.7502 71.4398 22.0274 72.7016 20.9854 73.3056C19.2567 73.2458 18.2325 74.5016 18.0252 76.182C17.3681 77.0969 15.7756 78.6039 17.0247 79.7042C18.9548 81.5521 23.3358 85.6004 25.5796 86.5034Z" fill="#03B5B5"/>
<path d="M25.1415 92.4652C25.0678 93.0565 25.1201 93.6569 25.2947 94.2262C25.4693 94.7955 25.7622 95.3204 26.1538 95.7662C30.1086 100.275 38.6754 112.08 44.5424 112.08C53.9143 112.08 67.0042 88.4169 60.2728 75.6735C53.5414 62.9302 28.8298 62.0811 28.8298 62.0811L25.1415 92.4652Z" fill="#00BCBC"/>
<path d="M42.3282 111.666C58.4611 115.428 73.4989 109.4 81.0354 92.991C88.2346 76.9348 90.0758 43.142 76.1097 36.7793C62.1436 30.4166 37.6274 53.8281 30.452 69.8903C23.0338 86.6761 29.0193 102.075 42.3282 111.666Z" fill="#00BCBC"/>
<path d="M46.0521 119.985L45.0634 119.076L45.6732 113.748L47.4079 114.161L46.0521 119.985Z" fill="#FFA32C"/>
<path d="M50.5399 111.571C49.8886 114.387 48.1716 115.368 46.4547 114.961C44.7378 114.555 43.6367 112.91 44.2879 110.094C44.9392 107.277 46.8692 105.31 48.598 105.734C50.3267 106.159 51.1911 108.754 50.5399 111.571Z" fill="#00BCBC"/>
<path d="M41.0848 124.853C44.3469 121.863 44.637 119.65 44.637 119.65L47.6743 118.676C47.6743 118.676 49.7345 119.8 47.6743 123.944C46.3718 126.569 44.2879 129.84 42.9913 129.924C40.0134 130.074 39.5159 126.282 41.0848 124.853Z" fill="#FFA32C"/>
<path d="M48.136 121.959C47.5144 122.784 46.2947 122.778 45.4126 121.959C44.9934 121.6 44.7148 121.101 44.6269 120.553C44.539 120.005 44.6475 119.443 44.933 118.969C45.0983 118.76 45.3053 118.588 45.5404 118.464C45.7755 118.341 46.0336 118.269 46.2981 118.253C46.5625 118.236 46.8274 118.276 47.0757 118.37C47.3239 118.463 47.5501 118.608 47.7394 118.795C48.1473 119.201 48.4082 119.734 48.4802 120.308C48.5521 120.882 48.4309 121.463 48.136 121.959Z" fill="#FFA32C"/>
<path d="M51.635 121.306L52.9256 120.935L54.7195 115.888L52.9908 115.476L51.635 121.306Z" fill="#FFA32C"/>
<path d="M51.3153 111.757C50.6581 114.573 51.7535 116.212 53.4822 116.625C55.2109 117.037 56.91 116.026 57.5613 113.234C58.2125 110.441 57.3481 107.804 55.6194 107.397C53.8906 106.991 51.9665 108.94 51.3153 111.757Z" fill="#00BCBC"/>
<path d="M53.9499 127.897C52.3336 123.765 53.0678 121.648 53.0678 121.648L50.7765 119.411C50.7765 119.411 48.4084 119.495 48.4499 124.123C48.4499 127.06 48.8879 130.929 50.0187 131.568C52.6177 133.052 54.7314 129.876 53.9499 127.897Z" fill="#FFA32C"/>
<path d="M48.8939 122.162C49.0833 123.178 50.1844 123.717 51.3389 123.358C51.881 123.229 52.3589 122.907 52.6852 122.451C53.0114 121.996 53.164 121.436 53.115 120.876C53.0586 120.615 52.9485 120.368 52.7918 120.152C52.6352 119.936 52.4356 119.756 52.2057 119.623C51.9759 119.49 51.7209 119.407 51.4574 119.38C51.1939 119.353 50.9277 119.382 50.6759 119.465C50.1187 119.641 49.638 120.005 49.3138 120.496C48.9896 120.986 48.8414 121.574 48.8939 122.162Z" fill="#FFA32C"/>
<path d="M76.0919 16.645C79.3836 14.851 81.4202 12.9374 83.4805 14.1633C85.7539 15.5328 84.7593 18.1101 83.9719 21.7698C83.2792 24.9931 82.7878 28.2582 82.7878 28.2582L70.5623 19.4198C70.5623 19.4198 72.7884 18.427 76.0919 16.645Z" fill="#00B4B4"/>
<path d="M78.6318 77.6344L33.7556 74.7162C32.4275 74.6286 31.188 74.0131 30.3081 73.0044C29.4282 71.9958 28.9797 70.6761 29.0608 69.3342L26.6631 45.217C26.5624 44.2929 26.5624 43.3604 26.6631 42.4363C28.5576 25.5848 40.0667 12.8833 60.184 14.145C80.3131 15.2753 89.3653 28.8438 89.7857 45.193C89.826 46.8633 89.6509 48.5318 89.2648 50.1564L83.9839 72.9402C83.8837 74.2769 83.2654 75.5197 82.2633 76.3987C81.2611 77.2776 79.9562 77.7217 78.6318 77.6344Z" fill="#00BCBC"/>
<path d="M34.1581 22.9119C30.6059 21.7159 28.2733 20.1611 26.4616 21.7159C24.4487 23.4501 25.8697 25.8241 27.2432 29.2984C28.4568 32.3602 29.4929 35.4936 29.4929 35.4936L40.0784 24.7297C40.0784 24.7297 37.7103 24.1079 34.1581 22.9119Z" fill="#00BCBC"/>
<path d="M47.2006 30.9137C53.1209 29.1197 59.6334 30.3158 66.8325 34.2446C67.9396 34.8426 68.9282 34.3702 69.6978 33.3057C71.2727 31.135 72.7527 29.1198 74.3926 28.3842C82.6811 24.7962 86.6004 32.7675 87.4174 40.7927C89.0455 56.4183 82.8587 66.7337 65.0918 68.6772C47.3308 70.7104 38.8647 65.2807 37.7162 47.6577C37.2307 40.0332 41.2802 32.7077 47.2006 30.9137Z" fill="white"/>
<path d="M69.4137 46.0126C69.633 45.7831 69.8985 45.6038 70.1922 45.4867C70.486 45.3697 70.8011 45.3176 71.1164 45.334C71.4318 45.3505 71.74 45.4351 72.0202 45.5821C72.3005 45.729 72.5463 45.935 72.7411 46.186L75.7012 51.6577C75.8387 51.8963 75.905 52.1698 75.8924 52.4456C75.8798 52.7214 75.7887 52.9877 75.6301 53.2125L72.3739 57.853C72.0969 58.1536 71.7615 58.3933 71.3887 58.5573C71.0159 58.7212 70.6137 58.8059 70.2071 58.8059C69.8005 58.8059 69.3982 58.7212 69.0254 58.5573C68.6526 58.3933 68.3172 58.1536 68.0402 57.853L64.488 54.3965C64.2656 54.1791 64.1206 53.8934 64.0756 53.5841C64.0306 53.2747 64.0883 52.9591 64.2394 52.6862C65.8118 50.3453 67.5406 48.1156 69.4137 46.0126Z" fill="#FF9C39"/>
<path fill-rule="evenodd" clip-rule="evenodd" d="M66.1339 52.0585C66.1339 52.0585 67.7147 57.2611 70.4499 57.2611C72.9897 57.2611 74.7658 52.0585 74.7658 52.0585L70.9709 50.8625C70.586 50.7372 70.1718 50.7372 69.7869 50.8625L66.1339 52.0585Z" fill="#F6871F"/>
<path d="M70.4194 54.4079C73.0279 54.1714 75.0632 53.0864 74.9652 51.9844C74.8673 50.8825 72.6732 50.1809 70.0647 50.4174C67.4561 50.6539 65.4209 51.7391 65.5188 52.841C65.6168 53.943 67.8108 54.6445 70.4194 54.4079Z" fill="#FF9C39"/>
<path fill-rule="evenodd" clip-rule="evenodd" d="M79.3719 43.0702C80.7393 42.847 82.1415 43.0844 83.3622 43.7458C83.3788 43.7552 83.3979 43.7594 83.417 43.7576C83.436 43.7559 83.454 43.7485 83.4687 43.7362C83.4834 43.7239 83.4942 43.7073 83.4995 43.6887C83.5048 43.6702 83.5043 43.6505 83.4983 43.6322C83.1599 42.7627 82.5433 42.0324 81.7465 41.5578C80.9497 41.0832 80.0186 40.8915 79.1014 41.0132C78.1843 41.135 77.3338 41.5631 76.6855 42.2295C76.0371 42.8959 75.6281 43.7623 75.5236 44.6907C75.5232 44.7096 75.5282 44.7282 75.5382 44.7441C75.5483 44.7601 75.5628 44.7728 75.5799 44.7805C75.597 44.7882 75.6159 44.7906 75.6344 44.7874C75.6528 44.7842 75.6699 44.7754 75.6835 44.7624C76.6969 43.8064 77.9924 43.2121 79.3719 43.0702Z" fill="#008282"/>
<path fill-rule="evenodd" clip-rule="evenodd" d="M56.0812 46.5684C57.7343 46.3022 59.4284 46.5878 60.9064 47.3817C60.9259 47.3938 60.9486 47.3996 60.9715 47.3982C60.9944 47.3968 61.0164 47.3884 61.0344 47.3741C61.0525 47.3598 61.0657 47.3402 61.0724 47.3181C61.0792 47.2959 61.079 47.2722 61.072 47.2502C60.6671 46.1944 59.923 45.3066 58.9588 44.7291C57.9947 44.1516 56.8666 43.918 55.7553 44.0656C54.6439 44.2131 53.6138 44.7334 52.8302 45.5429C52.0466 46.3524 51.5549 47.4043 51.4338 48.5298C51.4298 48.5535 51.4338 48.5779 51.4451 48.599C51.4564 48.6202 51.4743 48.6368 51.4961 48.6465C51.5179 48.6561 51.5422 48.6581 51.5652 48.6522C51.5882 48.6462 51.6086 48.6326 51.6232 48.6136C52.8491 47.4599 54.4144 46.7417 56.0812 46.5684Z" fill="#008282"/>
<path fill-rule="evenodd" clip-rule="evenodd" d="M72.8298 60.096C75.1565 58.3438 81.4024 61.0408 85.967 64.282C95.4395 71.0214 98.6721 77.8446 99.1931 83.5973C99.7081 84.7933 86.0144 97.6681 86.0144 97.6681C80.094 97.7936 68.0638 84.0996 76.4648 80.1169C68.9282 75.5243 72.2555 69.8552 75.9616 70.0346C70.9708 64.9516 70.9708 61.5013 72.8298 60.096Z" fill="#FF9C39"/>
<path fill-rule="evenodd" clip-rule="evenodd" d="M85.0731 82.1913C80.2362 86.1262 78.6851 92.124 81.6098 95.5924C84.5344 99.0608 89.537 97.9845 94.3739 94.0437C99.2108 90.1029 100.827 84.4458 97.9261 80.9774C95.0251 77.509 89.9041 78.2505 85.0731 82.1913Z" fill="#FF9C39"/>
<path d="M22.1162 95.8792C24.8277 100.866 30.6474 104.628 37.6038 105.25C39.6626 105.439 41.7376 105.332 43.7668 104.933C50.664 104.138 58.4552 98.8394 61.3917 94.0674C45.5192 103.031 29.0193 103.839 22.1162 95.8792Z" fill="#007878"/>
<path fill-rule="evenodd" clip-rule="evenodd" d="M70.1953 58.6428C67.9101 57.0521 65.3643 58.1643 63.0909 60.03C56.3713 65.4898 52.2921 69.3709 32.9741 76.1342C26.0769 77.6531 20.9321 82.5865 20.5413 88.8714C20.4019 91.3152 20.9608 93.748 22.1517 95.88C29.0252 103.839 45.5548 103.056 61.4272 94.086C63.1264 91.3232 63.2033 88.74 60.5333 87.3108C67.833 84.9606 73.7001 76.3614 65.0741 72.9588C70.1064 68.8566 74.2034 61.4414 70.1953 58.6428Z" fill="#008282"/>
<path d="M65.3582 73.6642C65.4022 73.541 65.4024 73.4063 65.3585 73.2831C65.3146 73.1599 65.2297 73.056 65.1181 72.9894C65.0066 72.9227 64.8754 72.8975 64.7474 72.9181C64.6194 72.9387 64.5026 73.0038 64.417 73.1021C62.9295 74.5661 61.243 75.8085 59.4084 76.7917C56.7146 78.3046 51.1198 80.3797 51.0369 80.4156C50.903 80.4721 50.7959 80.5787 50.738 80.7133C50.6802 80.8478 50.676 80.9997 50.7265 81.1372C50.7769 81.2747 50.8782 81.3872 51.0089 81.4511C51.1396 81.515 51.2897 81.5254 51.4278 81.48C51.6587 81.3903 57.1823 79.3332 59.953 77.7785C61.8981 76.7453 63.6799 75.4251 65.2398 73.8615C65.2924 73.8047 65.3327 73.7375 65.3582 73.6642Z" fill="#007878"/>
<path d="M61.1254 87.6933C61.1766 87.5712 61.1833 87.4347 61.1445 87.308C61.1056 87.1813 61.0237 87.0726 60.9132 87.001C60.8027 86.9294 60.6706 86.8996 60.5404 86.9169C60.4102 86.9342 60.2903 86.9973 60.2018 87.0953C58.9073 88.2689 57.4492 89.2442 55.8741 89.9897C53.4831 91.0493 51.0362 91.9756 48.5447 92.7643C48.468 92.7812 48.3958 92.8142 48.3325 92.861C48.2692 92.9078 48.2163 92.9675 48.1772 93.0361C48.1381 93.1048 48.1136 93.1809 48.1054 93.2597C48.0972 93.3385 48.1053 93.4181 48.1294 93.4936C48.1535 93.569 48.1928 93.6385 48.245 93.6977C48.2972 93.7568 48.3612 93.8041 48.4326 93.8368C48.5041 93.8695 48.5814 93.8868 48.6599 93.8874C48.7383 93.8881 48.8161 93.8722 48.8881 93.8407C51.4328 93.0351 53.9311 92.0868 56.3713 91.0002C58.0599 90.2067 59.619 89.1582 60.9952 87.8907C61.0526 87.8355 61.097 87.768 61.1254 87.6933Z" fill="#007878"/>
<path fill-rule="evenodd" clip-rule="evenodd" d="M97.415 98.5834C100.94 98.5834 103.301 97.9208 103.745 96.7375C103.795 96.5195 103.795 96.2929 103.745 96.0749C103.353 95.0231 100.674 94.4131 97.415 94.4131C94.1561 94.4131 91.4873 95.081 91.0799 96.138C91.0634 96.3129 91.0634 96.489 91.0799 96.6639C91.0799 97.884 93.8845 98.5834 97.415 98.5834Z" fill="#F19F07"/>
<path d="M97.577 97.6888C101.004 97.6888 103.781 96.9542 103.781 96.048C103.781 95.1418 101.004 94.4072 97.577 94.4072C94.1503 94.4072 91.3724 95.1418 91.3724 96.048C91.3724 96.9542 94.1503 97.6888 97.577 97.6888Z" fill="#FEE34B"/>
<path d="M97.5769 97.3896C100.49 97.3896 102.852 96.7233 102.852 95.9014C102.852 95.0794 100.49 94.4131 97.5769 94.4131C94.6637 94.4131 92.302 95.0794 92.302 95.9014C92.302 96.7233 94.6637 97.3896 97.5769 97.3896Z" fill="#F19F07"/>
<path d="M92.302 95.7538C92.302 96.0273 92.6206 96.2797 93.1637 96.4953L92.7198 95.2227C92.4535 95.3804 92.302 95.5645 92.302 95.7538Z" fill="#FEE34B"/>
<path d="M102.57 95.7539C102.57 95.0124 100.277 94.4129 97.4515 94.4129H97.4045L100.381 96.8372L99.0183 96.9582L96.9606 94.4023C96.407 94.4023 95.8795 94.4497 95.3938 94.5075H95.8482L98.3133 97.0528C100.71 96.9582 102.57 96.4323 102.57 95.7539Z" fill="#FEE34B"/>
<path d="M93.216 94.9909L93.686 96.6633C94.0532 96.7662 94.4265 96.8453 94.8037 96.8999L94.0255 94.749C93.7508 94.8122 93.4805 94.893 93.216 94.9909Z" fill="#FEE34B"/>
<path d="M95.3886 94.5234C94.9301 94.5706 94.4749 94.6461 94.0255 94.7496L94.8037 96.9005C95.668 97.0322 96.5409 97.0972 97.415 97.0951C97.7127 97.0951 98.0104 97.0951 98.2977 97.0688L95.8326 94.5234H95.3886Z" fill="#FFFBB6"/>
<path d="M92.7198 95.2226L93.1638 96.4953C93.3152 96.5531 93.4928 96.611 93.686 96.6636L93.216 94.9912C93.043 95.0506 92.8767 95.1282 92.7198 95.2226Z" fill="#FFFBB6"/>
<path d="M100.355 96.8374L97.3784 94.4131H96.9606L99.0184 96.9584L100.355 96.8374Z" fill="#FFFBB6"/>
<path fill-rule="evenodd" clip-rule="evenodd" d="M82.2275 102.743C85.7581 102.743 88.1187 102.08 88.5626 100.897C88.6092 100.678 88.6092 100.452 88.5626 100.234C88.1709 99.1823 85.4865 98.5723 82.2275 98.5723C78.9686 98.5723 76.2998 99.2507 75.8924 100.308C75.8759 100.483 75.8759 100.659 75.8924 100.834C75.8924 102.054 78.697 102.743 82.2275 102.743Z" fill="#F19F07"/>
<path d="M82.3894 101.859C85.8161 101.859 88.5939 101.124 88.5939 100.218C88.5939 99.3118 85.8161 98.5771 82.3894 98.5771C78.9627 98.5771 76.1849 99.3118 76.1849 100.218C76.1849 101.124 78.9627 101.859 82.3894 101.859Z" fill="#FEE34B"/>
<path d="M82.3894 101.56C85.3026 101.56 87.6643 100.893 87.6643 100.071C87.6643 99.2493 85.3026 98.583 82.3894 98.583C79.4761 98.583 77.1145 99.2493 77.1145 100.071C77.1145 100.893 79.4761 101.56 82.3894 101.56Z" fill="#F19F07"/>
<path d="M77.1198 99.9237C77.1198 100.197 77.4331 100.45 77.9763 100.665L77.5323 99.3926C77.266 99.5556 77.1198 99.7344 77.1198 99.9237Z" fill="#FEE34B"/>
<path d="M87.3562 99.924C87.3562 99.1825 85.0634 98.583 82.238 98.583H82.2014L85.1835 101.007L83.8413 101.144L81.7836 98.5883C81.23 98.5883 80.7025 98.6356 80.2168 98.6934H80.6346L83.0997 101.244C85.5282 101.134 87.3562 100.581 87.3562 99.924Z" fill="#FEE34B"/>
<path d="M78.0233 99.1609L78.4934 100.833C78.8606 100.936 79.2339 101.015 79.611 101.07L78.838 98.9189C78.5617 98.9822 78.2896 99.063 78.0233 99.1609Z" fill="#FEE34B"/>
<path d="M80.2012 98.6934C79.7443 98.74 79.2907 98.8156 78.8433 98.9195L79.6162 101.07C80.4805 101.202 81.3535 101.267 82.2275 101.265C82.5305 101.265 82.8229 101.265 83.1102 101.265L80.6346 98.6934H80.2012Z" fill="#FFFBB6"/>
<path d="M77.5323 99.3925L77.9763 100.665C78.133 100.723 78.3105 100.781 78.4985 100.833L78.0285 99.1611C77.8555 99.2206 77.6892 99.2981 77.5323 99.3925Z" fill="#FFFBB6"/>
<path d="M85.1731 101.007L82.2014 98.583H81.7836L83.8309 101.165L85.1731 101.007Z" fill="#FFFBB6"/>
<path fill-rule="evenodd" clip-rule="evenodd" d="M90.5107 101.365C94.0412 101.365 96.4018 100.702 96.8458 99.5139C96.8924 99.2955 96.8924 99.0697 96.8458 98.8513C96.4541 97.7995 93.7696 97.1895 90.5107 97.1895C87.2517 97.1895 84.583 97.8573 84.1756 98.9196C84.1587 99.0945 84.1587 99.2707 84.1756 99.4455C84.1756 100.639 86.9802 101.365 90.5107 101.365Z" fill="#F19F07"/>
<path d="M90.6778 100.471C94.1045 100.471 96.8823 99.7364 96.8823 98.8302C96.8823 97.9241 94.1045 97.1895 90.6778 97.1895C87.2511 97.1895 84.4733 97.9241 84.4733 98.8302C84.4733 99.7364 87.2511 100.471 90.6778 100.471Z" fill="#FEE34B"/>
<path d="M90.6778 100.171C93.591 100.171 95.9527 99.5046 95.9527 98.6826C95.9527 97.8607 93.591 97.1943 90.6778 97.1943C87.7645 97.1943 85.4029 97.8607 85.4029 98.6826C85.4029 99.5046 87.7645 100.171 90.6778 100.171Z" fill="#F19F07"/>
<path d="M85.4029 98.5357C85.4029 98.8091 85.7163 99.0616 86.2594 99.2772L85.8207 98.0098C85.5491 98.1623 85.4029 98.3411 85.4029 98.5357Z" fill="#FEE34B"/>
<path d="M95.6393 98.5354C95.6393 97.7939 93.3466 97.1943 90.5211 97.1943H90.4741L93.4563 99.624L92.114 99.7607L90.0354 97.1943C89.4818 97.1943 88.9543 97.2469 88.4686 97.2995H88.9178L91.3829 99.8501C93.8114 99.7397 95.6393 99.1927 95.6393 98.5354Z" fill="#FEE34B"/>
<path d="M86.3116 97.7679L86.7817 99.4455C87.1489 99.548 87.5222 99.627 87.8993 99.6822L87.1264 97.5312C86.8495 97.5904 86.5773 97.6695 86.3116 97.7679Z" fill="#FEE34B"/>
<path d="M88.4686 97.2998C88.0101 97.3503 87.555 97.4275 87.1055 97.5312L87.8784 99.6821C88.7428 99.8118 89.6158 99.8751 90.4898 99.8714C90.7927 99.8714 91.0851 99.8714 91.3724 99.8714L88.9073 97.3208L88.4686 97.2998Z" fill="#FFFBB6"/>
<path d="M85.8207 98.0097L86.2594 99.2824C86.4303 99.3496 86.6046 99.4076 86.7817 99.4559L86.3117 97.7783C86.1417 97.841 85.9774 97.9185 85.8207 98.0097Z" fill="#FFFBB6"/>
<path d="M93.4562 99.6191L90.4741 97.1895H90.0354L92.1245 99.7558L93.4562 99.6191Z" fill="#FFFBB6"/>
<path fill-rule="evenodd" clip-rule="evenodd" d="M77.2033 110.657C80.7286 110.657 83.0893 110.021 83.5332 108.885C83.5831 108.676 83.5831 108.458 83.5332 108.249C83.1415 107.228 80.4623 106.671 77.2033 106.671C73.9444 106.671 71.2756 107.312 70.8682 108.327C70.85 108.502 70.85 108.679 70.8682 108.853C70.8682 109.984 73.6728 110.657 77.2033 110.657Z" fill="#F19F07"/>
<path d="M77.3652 109.8C80.7919 109.8 83.5698 109.096 83.5698 108.228C83.5698 107.359 80.7919 106.655 77.3652 106.655C73.9386 106.655 71.1607 107.359 71.1607 108.228C71.1607 109.096 73.9386 109.8 77.3652 109.8Z" fill="#FEE34B"/>
<path d="M77.3652 109.516C80.2785 109.516 82.6401 108.876 82.6401 108.086C82.6401 107.296 80.2785 106.655 77.3652 106.655C74.452 106.655 72.0903 107.296 72.0903 108.086C72.0903 108.876 74.452 109.516 77.3652 109.516Z" fill="#F19F07"/>
<path d="M77.2138 109.232C80.0405 109.232 82.332 108.655 82.332 107.944C82.332 107.232 80.0405 106.655 77.2138 106.655C74.3871 106.655 72.0956 107.232 72.0956 107.944C72.0956 108.655 74.3871 109.232 77.2138 109.232Z" fill="#FEE34B"/>
<path fill-rule="evenodd" clip-rule="evenodd" d="M73.7355 106.761L74.7278 109.417L78.2583 109.374L75.6313 106.761H73.7355Z" fill="#FFFBB6"/>
<path fill-rule="evenodd" clip-rule="evenodd" d="M72.3253 106.924L73.0513 108.943H73.5109L72.9155 106.924H72.3253Z" fill="#FFFBB6"/>
<path fill-rule="evenodd" clip-rule="evenodd" d="M76.7437 106.655L78.8067 109.116L80.1437 108.985L77.1667 106.655H76.7437Z" fill="#FFFBB6"/>
<path fill-rule="evenodd" clip-rule="evenodd" d="M95.3416 96.4955C98.8721 96.4955 101.233 95.8329 101.677 94.6496C101.723 94.4313 101.723 94.2054 101.677 93.987C101.285 92.9352 98.6005 92.3252 95.3416 92.3252C92.0827 92.3252 89.4191 92.9931 88.9908 94.0554C88.9739 94.2303 88.9739 94.4064 88.9908 94.5813C88.9908 95.7961 91.8163 96.4955 95.3416 96.4955Z" fill="#F19F07"/>
<path d="M95.5087 95.6068C98.9354 95.6068 101.713 94.8722 101.713 93.966C101.713 93.0598 98.9354 92.3252 95.5087 92.3252C92.0821 92.3252 89.3042 93.0598 89.3042 93.966C89.3042 94.8722 92.0821 95.6068 95.5087 95.6068Z" fill="#FEE34B"/>
<path d="M95.5087 95.3018C98.422 95.3018 100.784 94.6354 100.784 93.8135C100.784 92.9915 98.422 92.3252 95.5087 92.3252C92.5955 92.3252 90.2338 92.9915 90.2338 93.8135C90.2338 94.6354 92.5955 95.3018 95.5087 95.3018Z" fill="#F19F07"/>
<path d="M90.2338 93.6659C90.2338 93.9394 90.5472 94.1918 91.0903 94.4074L90.6516 93.1348C90.3801 93.2768 90.2338 93.4766 90.2338 93.6659Z" fill="#FEE34B"/>
<path d="M100.481 93.6662C100.481 92.9247 98.188 92.3252 95.3625 92.3252H95.3207L98.2977 94.7496L96.9554 94.8916L94.8925 92.3305C94.3389 92.3305 93.8062 92.3778 93.3257 92.4356H93.7801L96.2399 94.9862C98.6424 94.8547 100.481 94.3288 100.481 93.6662Z" fill="#FEE34B"/>
<path d="M91.1426 92.9036L91.6126 94.5813C91.9416 94.6707 92.3177 94.7495 92.7303 94.8179L91.9573 92.667C91.6805 92.7262 91.4082 92.8053 91.1426 92.9036Z" fill="#FEE34B"/>
<path d="M93.3204 92.4355C92.8621 92.4865 92.407 92.5637 91.9573 92.6669L92.7303 94.8178C93.5947 94.9475 94.4677 95.0108 95.3416 95.0072C95.6445 95.0072 95.937 95.0072 96.2243 95.0072L93.7644 92.4566L93.3204 92.4355Z" fill="#FFFBB6"/>
<path d="M90.6517 93.1347L91.0904 94.4074C91.2612 94.4746 91.4356 94.5326 91.6126 94.5809L91.1426 92.9033C90.973 92.967 90.8089 93.0444 90.6517 93.1347Z" fill="#FFFBB6"/>
<path d="M98.2872 94.7496L95.3103 92.3252H94.8925L96.945 94.8863L98.2872 94.7496Z" fill="#FFFBB6"/>
<path fill-rule="evenodd" clip-rule="evenodd" d="M85.6797 96.4955C89.2102 96.4955 91.5709 95.8329 92.0148 94.6496C92.0595 94.4311 92.0595 94.2056 92.0148 93.987C91.6179 92.9352 88.9386 92.3252 85.6797 92.3252C82.4207 92.3252 79.752 92.9931 79.3446 94.0554C79.3277 94.2303 79.3277 94.4064 79.3446 94.5813C79.3446 95.7961 82.1492 96.4955 85.6797 96.4955Z" fill="#F19F07"/>
<path d="M85.8416 95.6068C89.2683 95.6068 92.0461 94.8722 92.0461 93.966C92.0461 93.0598 89.2683 92.3252 85.8416 92.3252C82.4149 92.3252 79.6371 93.0598 79.6371 93.966C79.6371 94.8722 82.4149 95.6068 85.8416 95.6068Z" fill="#FEE34B"/>
<path d="M85.8416 95.3018C88.7548 95.3018 91.1165 94.6354 91.1165 93.8135C91.1165 92.9915 88.7548 92.3252 85.8416 92.3252C82.9284 92.3252 80.5667 92.9915 80.5667 93.8135C80.5667 94.6354 82.9284 95.3018 85.8416 95.3018Z" fill="#F19F07"/>
<path d="M80.5667 93.6659C80.5667 93.9394 80.8853 94.1918 81.4284 94.4074L80.9845 93.1348C80.7182 93.2768 80.5667 93.4766 80.5667 93.6659Z" fill="#FEE34B"/>
<path d="M90.8083 93.6662C90.8083 92.9247 88.5156 92.3252 85.6901 92.3252H85.6431L88.62 94.7496L87.283 94.8916L85.2253 92.3305C84.6717 92.3305 84.1442 92.3778 83.6585 92.4356H84.1129L86.578 94.9862C88.9909 94.8547 90.8083 94.3288 90.8083 93.6662Z" fill="#FEE34B"/>
<path d="M81.4807 92.9036L81.9507 94.5813C82.2797 94.6707 82.6557 94.7495 83.0683 94.8179L82.2954 92.667C82.0184 92.7256 81.7461 92.8047 81.4807 92.9036Z" fill="#FEE34B"/>
<path d="M83.6533 92.4355C83.1966 92.4865 82.7433 92.5637 82.2954 92.6669L83.0684 94.8178C83.9328 94.9475 84.8057 95.0108 85.6797 95.0072C85.9774 95.0072 86.2751 95.0072 86.5623 95.0072L84.0972 92.4566L83.6533 92.4355Z" fill="#FFFBB6"/>
<path d="M80.9845 93.1347L81.4284 94.4074C81.5987 94.4762 81.7732 94.5342 81.9507 94.5809L81.4806 92.9033C81.3094 92.9671 81.1435 93.0445 80.9845 93.1347Z" fill="#FFFBB6"/>
<path d="M88.6201 94.7496L85.6432 92.3252H85.2253L87.2831 94.8863L88.6201 94.7496Z" fill="#FFFBB6"/>
<path fill-rule="evenodd" clip-rule="evenodd" d="M91.2001 99.2768C94.7306 99.2768 97.0912 98.6142 97.5352 97.4309C97.5818 97.2125 97.5818 96.9867 97.5352 96.7683C97.1435 95.7165 94.459 95.1064 91.2001 95.1064C87.9411 95.1064 85.2776 95.7743 84.865 96.8314C84.8484 97.0063 84.8484 97.1824 84.865 97.3573C84.865 98.5773 87.6748 99.2768 91.2001 99.2768Z" fill="#F19F07"/>
<path d="M91.3672 98.3831C94.7938 98.3831 97.5717 97.6485 97.5717 96.7423C97.5717 95.8362 94.7938 95.1016 91.3672 95.1016C87.9405 95.1016 85.1627 95.8362 85.1627 96.7423C85.1627 97.6485 87.9405 98.3831 91.3672 98.3831Z" fill="#FEE34B"/>
<path d="M91.3672 98.083C94.2805 98.083 96.6421 97.4167 96.6421 96.5947C96.6421 95.7728 94.2805 95.1064 91.3672 95.1064C88.454 95.1064 86.0923 95.7728 86.0923 96.5947C86.0923 97.4167 88.454 98.083 91.3672 98.083Z" fill="#F19F07"/>
<path d="M86.0923 96.4321C86.0923 96.7056 86.4057 96.958 86.9489 97.1737L86.5102 95.9062C86.2386 96.0798 86.0923 96.2586 86.0923 96.4321Z" fill="#FEE34B"/>
<path d="M96.3288 96.4319C96.3288 95.6903 94.036 95.0908 91.2105 95.0908H91.1688L94.1457 97.5152L92.8035 97.6519L90.7509 95.0961C90.1973 95.0961 89.6646 95.1434 89.1841 95.2013H89.6385L92.0984 97.7518C94.5008 97.6572 96.3288 97.105 96.3288 96.4319Z" fill="#FEE34B"/>
<path d="M87.001 95.6853L87.4711 97.3629C87.8391 97.4609 88.2122 97.5382 88.5887 97.5943L87.8158 95.4434C87.5394 95.5066 87.2673 95.5874 87.001 95.6853Z" fill="#FEE34B"/>
<path d="M89.1789 95.2168C88.7207 95.2661 88.2655 95.3416 87.8158 95.4429L88.5888 97.5938C89.453 97.7255 90.326 97.7906 91.2001 97.7884C91.503 97.7884 91.7955 97.7884 92.0827 97.7884L89.6228 95.2378L89.1789 95.2168Z" fill="#FFFBB6"/>
<path d="M86.5101 95.9062L86.9488 97.1789C87.1055 97.242 87.2831 97.2946 87.4711 97.3524L87.0011 95.6748C86.8306 95.7363 86.6662 95.8137 86.5101 95.9062Z" fill="#FFFBB6"/>
<path d="M94.1456 97.5308L91.1687 95.1064H90.7509L92.8034 97.6623L94.1456 97.5308Z" fill="#FFFBB6"/>
<path fill-rule="evenodd" clip-rule="evenodd" d="M80.8488 99.2768C84.3741 99.2768 86.7347 98.6142 87.1786 97.4309C87.2286 97.2129 87.2286 96.9863 87.1786 96.7683C86.7869 95.7165 84.1077 95.1064 80.8488 95.1064C77.5898 95.1064 74.921 95.7743 74.5137 96.8314C74.4971 97.0063 74.4971 97.1824 74.5137 97.3573C74.5137 98.5773 77.3182 99.2768 80.8488 99.2768Z" fill="#F19F07"/>
<path d="M81.0106 98.3831C84.4373 98.3831 87.2151 97.6485 87.2151 96.7423C87.2151 95.8362 84.4373 95.1016 81.0106 95.1016C77.584 95.1016 74.8061 95.8362 74.8061 96.7423C74.8061 97.6485 77.584 98.3831 81.0106 98.3831Z" fill="#FEE34B"/>
<path d="M81.0107 98.083C83.9239 98.083 86.2856 97.4167 86.2856 96.5947C86.2856 95.7728 83.9239 95.1064 81.0107 95.1064C78.0974 95.1064 75.7358 95.7728 75.7358 96.5947C75.7358 97.4167 78.0974 98.083 81.0107 98.083Z" fill="#F19F07"/>
<path d="M75.7358 96.4321C75.7358 96.7056 76.0544 96.958 76.5975 97.1737L76.1536 95.9062C75.8872 96.0798 75.7358 96.2586 75.7358 96.4321Z" fill="#FEE34B"/>
<path d="M85.9774 96.4319C85.9774 95.6903 83.6847 95.0908 80.854 95.0908H80.8122L83.7891 97.5152L82.4521 97.6519L80.3944 95.0961C79.8408 95.0961 79.3133 95.1434 78.8276 95.2013H79.2819L81.747 97.7518C84.1442 97.6572 85.9774 97.105 85.9774 96.4319Z" fill="#FEE34B"/>
<path d="M76.6445 95.6853L77.1198 97.3629C77.4876 97.4614 77.8608 97.5387 78.2374 97.5943L77.4593 95.4434C77.1831 95.5073 76.911 95.5881 76.6445 95.6853Z" fill="#FEE34B"/>
<path d="M78.8223 95.2168C78.3641 95.2666 77.9091 95.342 77.4592 95.4429L78.2374 97.5938C79.1017 97.7256 79.9746 97.7907 80.8487 97.7884C81.1517 97.7884 81.4493 97.7884 81.7366 97.7884L79.2715 95.2378L78.8223 95.2168Z" fill="#FFFBB6"/>
<path d="M76.1536 95.9062L76.5975 97.1789C76.7489 97.242 76.9265 97.2946 77.1198 97.3524L76.6445 95.6748C76.4744 95.7373 76.3102 95.8147 76.1536 95.9062Z" fill="#FFFBB6"/>
<path d="M83.7682 97.5308L80.7913 95.1064H80.3735L82.4312 97.6623L83.7682 97.5308Z" fill="#FFFBB6"/>
<path fill-rule="evenodd" clip-rule="evenodd" d="M74.6338 102.059C78.1643 102.059 80.525 101.397 80.9689 100.213C81.0155 99.9951 81.0155 99.7693 80.9689 99.5509C80.5772 98.4991 77.8927 97.8838 74.6338 97.8838C71.3748 97.8838 68.7061 98.5359 68.2987 99.614C68.2818 99.7889 68.2818 99.965 68.2987 100.14C68.2987 101.355 71.1033 102.059 74.6338 102.059Z" fill="#F19F07"/>
<path d="M74.8009 101.165C78.2276 101.165 81.0054 100.431 81.0054 99.5246C81.0054 98.6184 78.2276 97.8838 74.8009 97.8838C71.3742 97.8838 68.5964 98.6184 68.5964 99.5246C68.5964 100.431 71.3742 101.165 74.8009 101.165Z" fill="#FEE34B"/>
<path d="M74.8009 100.865C77.7141 100.865 80.0758 100.199 80.0758 99.3769C80.0758 98.555 77.7141 97.8887 74.8009 97.8887C71.8876 97.8887 69.526 98.555 69.526 99.3769C69.526 100.199 71.8876 100.865 74.8009 100.865Z" fill="#F19F07"/>
<path d="M69.526 99.2251C69.526 99.5038 69.8394 99.751 70.3825 99.9719L69.9438 98.6992C69.667 98.857 69.526 99.0621 69.526 99.2251Z" fill="#FEE34B"/>
<path d="M79.7624 99.2248C79.7624 98.4886 77.4697 97.8838 74.6442 97.8838H74.6024L77.5793 100.313L76.2371 100.45L74.1846 97.8943C73.6258 97.8943 73.0983 97.9416 72.6178 97.9942H73.0669L75.532 100.545C77.9345 100.434 79.7624 99.8874 79.7624 99.2248Z" fill="#FEE34B"/>
<path d="M70.4348 98.4622L70.9048 100.14C71.272 100.242 71.6453 100.321 72.0224 100.376L71.2338 98.2256C70.9629 98.2879 70.696 98.367 70.4348 98.4622Z" fill="#FEE34B"/>
<path d="M72.6126 98.0098C72.1542 98.0607 71.6991 98.1379 71.2495 98.2412L72.0225 100.392C72.8869 100.522 73.7598 100.585 74.6338 100.581C74.9367 100.581 75.2292 100.581 75.5164 100.581L73.0618 98.0098H72.6126Z" fill="#FFFBB6"/>
<path d="M69.9438 98.6986L70.3825 99.9712C70.5392 100.029 70.7167 100.087 70.9048 100.14L70.4347 98.4619C70.2636 98.5239 70.0991 98.6032 69.9438 98.6986Z" fill="#FFFBB6"/>
<path d="M77.5794 100.313L74.6024 97.8838H74.1846L76.2371 100.44L77.5794 100.313Z" fill="#FFFBB6"/>
<path fill-rule="evenodd" clip-rule="evenodd" d="M95.3417 94.4129C98.8722 94.4129 101.233 93.7503 101.677 92.567C101.723 92.3486 101.723 92.1228 101.677 91.9044C101.285 90.8526 98.6006 90.2373 95.3417 90.2373C92.0827 90.2373 89.4192 90.9104 88.9909 91.9675C88.9743 92.1424 88.9743 92.3185 88.9909 92.4934C88.9909 93.7082 91.8164 94.4129 95.3417 94.4129Z" fill="#F19F07"/>
<path d="M95.5087 93.5189C98.9354 93.5189 101.713 92.7843 101.713 91.8781C101.713 90.9719 98.9354 90.2373 95.5087 90.2373C92.0821 90.2373 89.3042 90.9719 89.3042 91.8781C89.3042 92.7843 92.0821 93.5189 95.5087 93.5189Z" fill="#FEE34B"/>
<path d="M95.5088 93.2187C98.422 93.2187 100.784 92.5524 100.784 91.7305C100.784 90.9085 98.422 90.2422 95.5088 90.2422C92.5955 90.2422 90.2339 90.9085 90.2339 91.7305C90.2339 92.5524 92.5955 93.2187 95.5088 93.2187Z" fill="#F19F07"/>
<path d="M90.2339 91.5786C90.2339 91.8573 90.5472 92.1045 91.0904 92.3254L90.6517 91.0527C90.3801 91.2158 90.2339 91.3946 90.2339 91.5786Z" fill="#FEE34B"/>
<path d="M100.481 91.5783C100.481 90.8421 98.188 90.2373 95.3625 90.2373H95.3207L98.2977 92.6617L96.9554 92.7984L94.9029 90.2426C94.3493 90.2426 93.8166 90.2899 93.3361 90.3477H93.7905L96.2504 92.8931C98.6423 92.7931 100.481 92.2252 100.481 91.5783Z" fill="#FEE34B"/>
<path d="M91.1426 90.821L91.6127 92.4934C91.9799 92.5958 92.3532 92.6748 92.7303 92.73L91.9574 90.5791C91.681 90.6424 91.4089 90.7232 91.1426 90.821Z" fill="#FEE34B"/>
<path d="M93.3204 90.3525C92.8618 90.3993 92.4066 90.4748 91.9573 90.5787L92.7303 92.7506C93.5946 92.8823 94.4675 92.9473 95.3416 92.9452C95.6445 92.9452 95.937 92.9452 96.2243 92.9452L93.7644 90.3999L93.3204 90.3525Z" fill="#FFFBB6"/>
<path d="M90.6517 91.0527L91.0904 92.3253C91.2471 92.3832 91.4246 92.441 91.6126 92.4936L91.1426 90.8213C90.9712 90.8806 90.8066 90.9581 90.6517 91.0527Z" fill="#FFFBB6"/>
<path d="M98.2872 92.6666L95.3103 90.2422H94.8925L96.945 92.798L98.2872 92.6666Z" fill="#FFFBB6"/>
<path fill-rule="evenodd" clip-rule="evenodd" d="M104.163 95.381C107.197 92.1362 107.61 94.5238 107.651 95.4283C107.735 97.3847 106.926 101.292 107.651 103.112C114.441 120.771 108.889 131.678 93.2421 133.65C77.595 135.622 71.0249 122.023 71.3278 114.345C71.6307 106.667 69.6618 107.292 66.7058 103.827C65.8858 102.864 65.8545 99.7775 69.0821 100.824C76.5662 103.269 100.387 99.4304 104.163 95.381Z" fill="#004472"/>
<path fill-rule="evenodd" clip-rule="evenodd" d="M109.464 119.477C108.315 127.56 102.507 132.509 92.6728 133.771C77.2033 135.733 70.5653 127.371 70.8369 119.53C71.1084 111.689 71.6986 109.422 68.3091 105.552C74.4092 108.234 78.2739 133.372 109.464 119.477Z" fill="#1C2C57"/>
<path fill-rule="evenodd" clip-rule="evenodd" d="M107.739 127.176C112.043 129.093 115.281 129.496 116.475 128.237C116.652 127.986 116.775 127.701 116.837 127.399C116.945 125.84 114.005 123.64 110.031 121.895C106.057 120.15 102.412 119.562 101.359 120.687C101.236 120.908 101.136 121.142 101.06 121.384C100.4 122.892 103.435 125.283 107.739 127.176Z" fill="#F19F07"/>
<path d="M116.89 127.385C117.387 126.24 114.404 123.822 110.227 121.984C106.05 120.147 102.261 119.586 101.764 120.731C101.268 121.876 104.251 124.294 108.428 126.132C112.605 127.969 116.394 128.531 116.89 127.385Z" fill="#FEE34B"/>
<path d="M115.843 126.698C116.295 125.656 113.783 123.545 110.232 121.983C106.682 120.421 103.437 120 102.985 121.041C102.533 122.083 105.045 124.194 108.596 125.756C112.146 127.318 115.391 127.739 115.843 126.698Z" fill="#F19F07"/>
<path d="M104.59 120.38L104.241 122.771C104.633 123.101 105.046 123.405 105.479 123.679L105.72 120.482C105.347 120.418 104.969 120.383 104.59 120.38Z" fill="#FEE34B"/>
<path d="M103.727 122.247L103.885 120.45C102.984 120.674 102.901 121.345 103.727 122.247Z" fill="#FEE34B"/>
<path d="M107.345 120.879C106.812 120.713 106.269 120.581 105.72 120.482L105.479 123.679C106.466 124.298 107.5 124.839 108.571 125.296C108.952 125.462 109.313 125.609 109.663 125.75L108.056 121.192L107.345 120.879Z" fill="#FFFBB6"/>
<path d="M103.86 120.45L103.701 122.246C103.87 122.432 104.05 122.607 104.241 122.771L104.59 120.38C104.345 120.374 104.1 120.398 103.86 120.45Z" fill="#FFFBB6"/>
<path d="M110.075 121.902L109.859 121.806L113.573 126.792C116.818 127.08 116.049 124.535 110.075 121.902Z" fill="#FEE34B"/>
<path d="M109.669 121.741C108.911 121.411 108.135 121.123 107.345 120.878L108.056 121.191L109.663 125.749L110.088 125.903L109.269 121.6L109.669 121.741Z" fill="#FEE34B"/>
<path d="M109.815 121.792L109.669 121.741L109.828 121.805L109.815 121.792Z" fill="#FFFBB6"/>
<path d="M109.669 121.741L109.269 121.601L110.539 125.948L111.383 126.338C112.096 126.562 112.83 126.714 113.573 126.792L109.859 121.805L109.669 121.741Z" fill="#FFFBB6"/>
<path d="M109.269 121.601L110.088 125.903C110.532 126.069 110.958 126.216 111.358 126.338L110.513 125.948L109.269 121.601Z" fill="#FFFBB6"/>
<path fill-rule="evenodd" clip-rule="evenodd" d="M101.187 132.513C105.879 132.41 108.996 131.426 109.555 129.777C109.617 129.475 109.617 129.164 109.555 128.862C109.002 127.399 105.415 126.651 101.079 126.746C96.743 126.842 93.2195 127.846 92.7053 129.304C92.6799 129.554 92.6799 129.807 92.7053 130.058C92.718 131.726 96.4764 132.615 101.187 132.513Z" fill="#F19F07"/>
<path d="M101.353 131.275C105.91 131.175 109.582 130.081 109.555 128.832C109.528 127.582 105.812 126.65 101.255 126.75C96.6977 126.85 93.0254 127.945 93.0524 129.194C93.0795 130.444 96.7957 131.375 101.353 131.275Z" fill="#FEE34B"/>
<path d="M101.35 130.86C105.224 130.775 108.344 129.785 108.319 128.648C108.295 127.512 105.134 126.659 101.261 126.744C97.3874 126.829 94.2673 127.82 94.2919 128.956C94.3165 130.093 97.4766 130.945 101.35 130.86Z" fill="#F19F07"/>
<path d="M95.4733 127.674L96.1589 129.994C96.6483 130.131 97.147 130.231 97.6509 130.295L96.5398 127.29C96.1737 127.386 95.8168 127.514 95.4733 127.674Z" fill="#FEE34B"/>
<path d="M95.4733 129.745L94.8384 128.051C94.1401 128.594 94.3432 129.265 95.4733 129.745Z" fill="#FEE34B"/>
<path d="M98.1842 126.964C97.63 127.039 97.0808 127.148 96.5399 127.291L97.6509 130.295C98.8069 130.438 99.9722 130.492 101.136 130.455C101.549 130.455 101.936 130.455 102.317 130.404L98.9587 126.945L98.1842 126.964Z" fill="#FFFBB6"/>
<path d="M94.8384 128.051L95.4733 129.745C95.7042 129.845 95.9418 129.928 96.1843 129.994L95.4733 127.674C95.248 127.775 95.035 127.901 94.8384 128.051Z" fill="#FFFBB6"/>
<path d="M101.054 126.747H100.825L106.266 129.7C109.364 128.594 107.606 126.6 101.054 126.747Z" fill="#FEE34B"/>
<path d="M100.647 126.76C99.8234 126.784 99.0012 126.853 98.1842 126.964H98.9587L102.317 130.423L102.768 130.384L100.228 126.824L100.647 126.76Z" fill="#FEE34B"/>
<path d="M100.647 126.76L100.222 126.805L103.162 130.225H104.088C104.83 130.129 105.559 129.957 106.266 129.713L100.825 126.76H100.647Z" fill="#FFFBB6"/>
<path d="M100.222 126.805L102.762 130.365C103.231 130.327 103.676 130.282 104.082 130.218H103.155L100.222 126.805Z" fill="#FFFBB6"/>
<path fill-rule="evenodd" clip-rule="evenodd" d="M97.816 123.723L97.1811 123.084C96.9989 122.902 96.8673 122.675 96.7994 122.426C96.7314 122.177 96.7295 121.915 96.7938 121.665L97.0224 120.744L96.3875 121.447C96.2178 121.641 96.0005 121.785 95.7576 121.867C95.5146 121.949 95.2546 121.965 95.0035 121.914L94.1274 121.722L94.7623 122.362C94.9428 122.544 95.0728 122.771 95.1396 123.02C95.2064 123.269 95.2076 123.531 95.1432 123.781L94.9146 124.708L95.5495 124.004C95.7196 123.812 95.9369 123.667 96.1797 123.585C96.4226 123.504 96.6824 123.487 96.9335 123.538L97.816 123.723Z" fill="white"/>
<path fill-rule="evenodd" clip-rule="evenodd" d="M108.012 115.438L106.964 114.326C106.67 114.004 106.464 113.609 106.369 113.182C106.273 112.754 106.29 112.309 106.418 111.89L106.869 110.337L105.733 111.488C105.432 111.802 105.054 112.032 104.638 112.154C104.221 112.276 103.78 112.287 103.358 112.184L101.879 111.801L102.927 112.913C103.223 113.235 103.43 113.629 103.527 114.057C103.624 114.484 103.607 114.93 103.479 115.349L103.028 116.902L104.158 115.752C104.46 115.436 104.838 115.205 105.256 115.082C105.674 114.96 106.116 114.951 106.539 115.055L108.012 115.438Z" fill="white"/>
<path fill-rule="evenodd" clip-rule="evenodd" d="M97.1049 86.4723L98.4953 87.1116L97.6509 85.833C97.4167 85.4653 97.2824 85.0421 97.2612 84.6058C97.2401 84.1695 97.3328 83.7352 97.5303 83.3462L98.2413 81.8887L96.9271 82.8284C96.5765 83.0875 96.1643 83.2493 95.732 83.2976C95.2997 83.3458 94.8624 83.2788 94.4639 83.1033L93.0735 82.464L93.9179 83.7426C94.1548 84.1102 94.2913 84.5343 94.3136 84.972C94.3359 85.4097 94.2432 85.8456 94.0448 86.2358L93.3338 87.6805L94.6416 86.7472C94.9926 86.4887 95.4047 86.3273 95.8369 86.279C96.2691 86.2308 96.7063 86.2974 97.1049 86.4723Z" fill="white"/>
<path fill-rule="evenodd" clip-rule="evenodd" d="M84.6805 91.1392L84.1218 90.2953C83.9653 90.052 83.8753 89.7714 83.8608 89.4818C83.8463 89.1922 83.9079 88.9039 84.0393 88.646L84.5091 87.6807L83.6393 88.3199C83.4083 88.4915 83.1366 88.599 82.8513 88.6315C82.5661 88.6641 82.2774 88.6206 82.0141 88.5053L81.0935 88.0834L81.6522 88.9273C81.8087 89.1706 81.8987 89.4512 81.9132 89.7408C81.9277 90.0303 81.8661 90.3186 81.7347 90.5766L81.2649 91.5355L82.141 90.8771C82.3744 90.7077 82.6474 90.6022 82.9334 90.5708C83.2194 90.5394 83.5085 90.5833 83.7727 90.6981L84.6805 91.1392Z" fill="white"/>
</svg>
