<svg width="48" height="48" viewBox="0 0 48 48" fill="none" xmlns="http://www.w3.org/2000/svg">
<circle cx="24" cy="24" r="24" fill="#00C9C3"/>
<path fill-rule="evenodd" clip-rule="evenodd" d="M18.1662 33.9997H14V29.8335L26.2876 17.5459L30.4538 21.7121L18.1662 33.9997ZM26.2875 20.6925L16.2219 30.7581V31.7802H17.244L27.3096 21.7146L26.2875 20.6925Z" fill="#00A7A7"/>
<path fill-rule="evenodd" clip-rule="evenodd" d="M18.1662 33.9997H14V29.8335L26.2876 17.5459L30.4538 21.7121L18.1662 33.9997ZM26.2875 20.6925L16.2219 30.7581V31.7802H17.244L27.3096 21.7146L26.2875 20.6925Z" fill="white"/>
<path d="M31.0757 14.325C30.6424 13.8917 29.9425 13.8917 29.5092 14.325L27.4761 16.3581L31.6423 20.5243L33.6754 18.4912C34.1087 18.0579 34.1087 17.358 33.6754 16.9247L31.0757 14.325Z" fill="#00A7A7"/>
<path d="M31.0757 14.325C30.6424 13.8917 29.9425 13.8917 29.5092 14.325L27.4761 16.3581L31.6423 20.5243L33.6754 18.4912C34.1087 18.0579 34.1087 17.358 33.6754 16.9247L31.0757 14.325Z" fill="white"/>
</svg>
