<svg width="71" height="70" viewBox="0 0 71 70" fill="none" xmlns="http://www.w3.org/2000/svg">
<path d="M3.92858 1V16.619" stroke="white" stroke-width="2"/>
<path fill-rule="evenodd" clip-rule="evenodd" d="M3 0H20V9H3V0Z" fill="white"/>
<path d="M6.84042 20.5234L21.5836 20.5234C24.2792 20.5234 26.4645 22.7087 26.4645 25.4044V25.4044C26.4645 28.1001 24.2792 30.2853 21.5836 30.2853H5.88095C3.18527 30.2853 1 32.4706 1 35.1663V35.1663C1 37.862 3.18528 40.0472 5.88095 40.0472H39.755" stroke="white" stroke-width="2"/>
<circle cx="3.92857" cy="19.5477" r="2.92857" stroke="white" stroke-width="2"/>
<circle cx="42.9762" cy="39.0711" r="2.92857" stroke="white" stroke-width="2"/>
<path d="M51.8776 20.2987L50.4639 19.7931C48.321 19.0266 45.9624 20.1425 45.196 22.2855L44.6903 23.6991C43.9239 25.8421 45.0398 28.2007 47.1828 28.9671L48.5964 29.4728C50.7394 30.2392 53.098 29.1233 53.8644 26.9803L54.37 25.5667C55.1365 23.4237 54.0206 21.0651 51.8776 20.2987Z" fill="white"/>
<path d="M38.1904 56.2038L18.9151 49.3069C18.1553 49.0372 17.4801 48.5718 16.9577 47.9576C16.4353 47.3435 16.0842 46.6024 15.9398 45.8091C15.7954 45.0159 15.8629 44.1986 16.1354 43.4398C16.408 42.6809 16.8759 42.0075 17.492 41.4873L33.1311 28.2409L48.7703 14.9476C49.3837 14.4286 50.1229 14.0799 50.9136 13.9367C51.7043 13.7934 52.5188 13.8606 53.2753 14.1316C54.0318 14.4025 54.7038 14.8676 55.2238 15.4802C55.7438 16.0929 56.0936 16.8315 56.238 17.622L59.8585 37.8043L63.5259 57.9554C63.6689 58.7464 63.6012 59.5611 63.3298 60.3178C63.0583 61.0744 62.5926 61.7463 61.9794 62.2661C61.3662 62.7858 60.627 63.1351 59.8361 63.2788C59.0452 63.4226 58.2304 63.3557 57.4735 63.085L38.1904 56.2038Z" fill="white"/>
<path d="M59.0295 65.2201C58.2858 65.2167 57.5481 65.0871 56.8478 64.837L18.2581 51.0432C17.1969 50.6627 16.2545 50.0097 15.5254 49.1499C14.7962 48.2901 14.3061 47.2536 14.104 46.1445C13.902 45.0354 13.9953 43.8927 14.3744 42.831C14.7535 41.7693 15.4053 40.826 16.2641 40.0958L47.519 13.5639C48.6672 12.5608 50.1387 12.0055 51.6634 12C53.1721 11.9993 54.6332 12.528 55.7921 13.4939C56.9509 14.4599 57.7341 15.8019 58.0051 17.286L65.3399 57.5726C65.5092 58.4986 65.4732 59.4506 65.2346 60.3613C64.9959 61.272 64.5603 62.1192 63.9586 62.8433C63.3568 63.5673 62.6036 64.1505 61.7519 64.5517C60.9002 64.9529 59.9709 65.1624 59.0295 65.1654V65.2201Z" fill="white"/>
<mask id="mask0_747_32514" style="mask-type:alpha" maskUnits="userSpaceOnUse" x="44" y="19" width="11" height="11">
<path d="M51.8775 20.2987L50.4638 19.7931C48.3208 19.0266 45.9623 20.1425 45.1958 22.2855L44.6902 23.6991C43.9238 25.8421 45.0397 28.2007 47.1826 28.9671L48.5963 29.4728C50.7393 30.2392 53.0979 29.1233 53.8643 26.9803L54.3699 25.5667C55.1364 23.4237 54.0205 21.0651 51.8775 20.2987Z" fill="white"/>
</mask>
<g mask="url(#mask0_747_32514)">
<path d="M53.4323 23.4233C53.4004 23.3801 53.3573 23.3464 53.3078 23.3258C53.2582 23.3051 53.204 23.2983 53.1508 23.306L52.8224 23.3607C52.755 23.3671 52.6873 23.3525 52.6285 23.3189C52.5697 23.2853 52.5227 23.2344 52.494 23.173C52.3135 22.7829 52.0573 22.4325 51.7403 22.1422C51.4232 21.8519 51.0516 21.6275 50.6471 21.482C50.2427 21.3365 49.8133 21.2728 49.384 21.2946C48.9546 21.3164 48.5339 21.4233 48.1463 21.6091C48.0847 21.6378 48.0159 21.6472 47.9489 21.636C47.8819 21.6249 47.8199 21.5937 47.7709 21.5466C47.6927 21.4684 47.6224 21.3824 47.5442 21.2963C47.5104 21.2544 47.4646 21.2237 47.4129 21.2083C47.3612 21.1929 47.3061 21.1936 47.2549 21.2103C47.2023 21.2237 47.1549 21.2524 47.1187 21.2928C47.0825 21.3332 47.0592 21.3834 47.0515 21.4371C47.0515 21.5309 47.0515 21.6248 47.0515 21.7108C47.0125 22.1878 46.888 22.654 46.684 23.087C46.6292 23.1902 46.5821 23.2974 46.5433 23.4076L46.0115 24.909C45.6887 25.8163 45.6357 26.7978 45.8592 27.7346C46.0826 28.6714 46.5728 29.5233 47.2705 30.1872L50.5782 31.368L50.4062 30.9926C50.2357 30.6236 50.1513 30.2207 50.1595 29.8143C50.1676 29.4079 50.268 29.0087 50.4531 28.6467C50.7778 28.0073 51.3387 27.5193 52.017 27.2861L52.6347 25.5658C52.6738 25.4564 52.7051 25.3469 52.7364 25.2296C52.8484 24.7652 53.0445 24.3252 53.315 23.9315C53.369 23.859 53.4186 23.7833 53.4636 23.7048C53.4846 23.6595 53.4927 23.6093 53.4872 23.5597C53.4817 23.51 53.4627 23.4629 53.4323 23.4233Z" fill="white"/>
<path d="M51.9858 27.3174C51.3084 27.552 50.7479 28.0395 50.4219 28.678C50.2385 29.0404 50.139 29.4395 50.1309 29.8456C50.1228 30.2517 50.2062 30.6544 50.375 31.0239L50.5392 31.407L51.9858 27.3174Z" fill="white"/>
<path d="M45.0289 29.2835L44.7129 30.167L51.3173 32.5291L51.6333 31.6456L45.0289 29.2835Z" fill="white"/>
<path d="M51.3368 23.4459C51.0642 23.3478 50.7681 23.3357 50.4884 23.4112C50.2088 23.4867 49.959 23.6462 49.7729 23.8682C49.7726 23.5357 49.6545 23.214 49.4397 22.9602C49.2249 22.7063 48.9272 22.5368 48.5993 22.4815C48.2714 22.4262 47.9345 22.4888 47.6484 22.6582C47.3622 22.8276 47.1453 23.0928 47.036 23.4068C46.4886 24.916 46.1993 26.1984 48.5999 27.0664C50.8989 27.8483 51.6183 26.7614 52.1657 25.2444C52.2901 24.8958 52.2731 24.5123 52.1181 24.1761C51.9632 23.8399 51.6827 23.5778 51.3368 23.4459Z" fill="white"/>
<path d="M51.2712 24.9507C51.3453 24.7433 51.2373 24.5151 51.03 24.4409C50.8226 24.3667 50.5943 24.4747 50.5202 24.6821C50.446 24.8895 50.554 25.1177 50.7614 25.1919C50.9687 25.2661 51.197 25.1581 51.2712 24.9507Z" fill="white"/>
<path d="M49.5226 24.8928C49.5074 24.8623 49.4827 24.8376 49.4522 24.8224C49.4194 24.8105 49.3834 24.8105 49.3506 24.8224L48.8657 25.0727C48.8413 25.0865 48.8216 25.1072 48.809 25.1323C48.7965 25.1574 48.7917 25.1856 48.7954 25.2134L48.8736 25.7373C48.881 25.7837 48.901 25.8271 48.9313 25.8629C48.9616 25.8987 49.0011 25.9256 49.0456 25.9406C49.0902 25.9565 49.1381 25.9605 49.1847 25.9522C49.2313 25.944 49.275 25.9239 49.3115 25.8937L49.7024 25.534C49.7179 25.5109 49.7262 25.4837 49.7262 25.4558C49.7262 25.428 49.7179 25.4008 49.7024 25.3776L49.5226 24.8928Z" fill="white"/>
<path d="M48.514 23.5397C48.4396 23.5132 48.3591 23.5094 48.2825 23.5288C48.206 23.5481 48.137 23.5897 48.0841 23.6483C48.0312 23.7069 47.997 23.7799 47.9856 23.858C47.9742 23.9361 47.9863 24.0158 48.0203 24.0871C48.0543 24.1583 48.1086 24.2179 48.1765 24.2582C48.2443 24.2985 48.3226 24.3178 48.4014 24.3136C48.4802 24.3095 48.556 24.282 48.6192 24.2347C48.6824 24.1874 48.7301 24.1224 48.7564 24.048C48.7914 23.9484 48.7856 23.839 48.7402 23.7437C48.6948 23.6484 48.6134 23.5751 48.514 23.5397Z" fill="white"/>
</g>
<path d="M34.3742 38.6259L33.2873 41.6521L32.7946 41.4723L33.5766 39.3141L32.1143 40.5026H32.0518L31.6765 38.6416L30.8945 40.8076L30.4019 40.6277L31.481 37.6016L32.0205 37.7971L32.388 39.6347L33.8503 38.4461L34.3742 38.6259Z" fill="white"/>
<path d="M36.5717 42.3711C36.1714 42.5558 35.715 42.5774 35.299 42.4315C34.883 42.2855 34.5402 41.9834 34.3431 41.5891C34.2233 41.3405 34.1669 41.0661 34.1788 40.7904C34.1908 40.5147 34.2707 40.2462 34.4115 40.0089C34.5524 39.7715 34.7497 39.5727 34.986 39.4301C35.2223 39.2875 35.4902 39.2056 35.7658 39.1916C36.0414 39.1776 36.3162 39.232 36.5657 39.3499C36.8152 39.4679 37.0317 39.6457 37.1959 39.8675C37.36 40.0894 37.4667 40.3484 37.5065 40.6215C37.5463 40.8946 37.518 41.1733 37.424 41.4327C37.3553 41.64 37.244 41.8305 37.0972 41.9921C36.9504 42.1538 36.7714 42.2828 36.5717 42.3711ZM34.8122 41.3624C34.9489 41.6406 35.1895 41.854 35.4821 41.9564C35.7747 42.0588 36.0958 42.0421 36.3762 41.9097C36.5138 41.8444 36.6368 41.7518 36.7376 41.6375C36.8384 41.5233 36.9149 41.3898 36.9626 41.2451C37.0247 41.1047 37.0567 40.9529 37.0567 40.7994C37.0567 40.6459 37.0247 40.494 36.9626 40.3536C36.9001 40.2177 36.8102 40.0962 36.6985 39.9966C36.5868 39.897 36.4558 39.8216 36.3136 39.775C36.1754 39.7152 36.0263 39.6843 35.8757 39.6843C35.7251 39.6843 35.5761 39.7152 35.4378 39.775C35.2986 39.8379 35.1743 39.9297 35.0732 40.0443C34.9721 40.1589 34.8965 40.2937 34.8513 40.4397C34.7795 40.5818 34.7388 40.7377 34.7321 40.8968C34.7253 41.0559 34.7527 41.2147 34.8122 41.3624Z" fill="white"/>
<path d="M40.239 40.7213L40.7316 40.8933L39.6525 43.9273L39.2615 43.7866L38.5734 41.2217L37.8071 43.2783L37.3066 43.0984L38.3857 40.0723L38.7689 40.2052L39.4648 42.7857L40.239 40.7213Z" fill="white"/>
<path d="M40.9349 43.8413L42.2721 44.3261L42.1001 44.7953L40.2625 44.1385L41.3494 41.1123L43.1635 41.7613L42.9915 42.2383L41.67 41.7691L41.3885 42.5511L42.6005 42.989L42.4363 43.4582L41.2243 43.0281L40.9349 43.8413Z" fill="white"/>
<path d="M45.955 42.7626L44.2504 44.217L43.8203 45.4134L43.3198 45.2414L43.7577 44.0372L43.3511 41.832L43.9141 42.0353L44.18 43.6384L45.392 42.5671L45.955 42.7626Z" fill="white"/>
<path d="M47.6599 46.3356C47.3611 46.4765 47.0273 46.5258 46.7005 46.4774C46.3737 46.4289 46.0686 46.2848 45.8236 46.0632C45.5786 45.8416 45.4047 45.5524 45.3237 45.2322C45.2428 44.9119 45.2584 44.5748 45.3687 44.2634C45.5235 43.8515 45.8343 43.5171 46.2339 43.3327C46.6334 43.1483 47.0896 43.1287 47.5035 43.2782C47.7114 43.3499 47.903 43.4624 48.0668 43.6093C48.2306 43.7561 48.3635 43.9342 48.4574 44.1331C48.5514 44.332 48.6047 44.5477 48.6141 44.7675C48.6235 44.9873 48.5889 45.2067 48.5122 45.4129C48.4416 45.6173 48.3294 45.8048 48.1827 45.9636C48.036 46.1224 47.858 46.2491 47.6599 46.3356ZM45.9005 45.3269C46.0432 45.5872 46.2806 45.7828 46.5634 45.873C46.8463 45.9633 47.153 45.9413 47.4202 45.8118C47.6874 45.6822 47.8945 45.4549 47.9988 45.1769C48.1031 44.8989 48.0965 44.5915 47.9805 44.3182C47.9179 44.1822 47.828 44.0607 47.7163 43.9611C47.6047 43.8615 47.4736 43.7861 47.3314 43.7395C47.1894 43.6867 47.0382 43.6631 46.8868 43.6701C46.7355 43.6771 46.5871 43.7146 46.4506 43.7803C46.314 43.846 46.1922 43.9386 46.0923 44.0525C45.9924 44.1664 45.9165 44.2993 45.8692 44.4433C45.814 44.585 45.7884 44.7364 45.7938 44.8883C45.7991 45.0402 45.8354 45.1895 45.9005 45.3269Z" fill="white"/>
<path d="M48.9031 47.2354L49.1611 43.9121L49.685 44.0998L49.4739 46.6959L51.0378 44.569L51.4992 44.7332L51.335 47.3449L52.8207 45.2102L53.3133 45.3822L51.4053 48.1191L50.8267 47.9079L50.9831 45.4604L49.5365 47.4544L48.9031 47.2354Z" fill="white"/>
<path d="M53.2821 48.2671L54.5176 48.705L54.3455 49.182L52.6174 48.5643L53.6965 45.5303L54.197 45.7101L53.2821 48.2671Z" fill="white"/>
<path d="M21.0576 43.4579L20.1114 43.1216L19.9081 43.6846L20.8308 44.0131L20.6744 44.4666L19.7439 44.1303L19.4155 45.0531L18.9463 44.881L19.7986 42.5352L21.2218 43.0434L21.0576 43.4579Z" fill="white"/>
<path d="M21.5657 43.1377L22.0349 43.3019L21.1826 45.6478L20.7134 45.4836L21.5657 43.1377Z" fill="white"/>
<path d="M23.8492 43.9507L24.3183 44.1227L23.466 46.4686L23.1141 46.3435L22.6137 44.5215L22.0898 45.9759L21.6206 45.8117L22.4729 43.4268L22.8326 43.5597L23.3331 45.3738L23.8492 43.9507Z" fill="white"/>
<path d="M25.4757 47.188V46.7032L24.5139 46.406L24.2168 46.7892L23.7085 46.6015L25.3975 44.5215L25.9762 44.7326V47.4147L25.4757 47.188ZM24.8111 45.9681L25.4757 46.2105V45.1158L24.8111 45.9681Z" fill="white"/>
<path d="M28.4235 45.6245L28.8926 45.7887L28.0403 48.1346L27.6415 47.9704L27.141 46.1562L26.6171 47.6107L26.1479 47.4387L27.0003 45.0928L27.36 45.2179L27.8604 47.032L28.4235 45.6245Z" fill="white"/>
<path d="M29.5808 48.7521C29.4102 48.702 29.2522 48.6161 29.1173 48.5002C28.9825 48.3842 28.8739 48.2408 28.7988 48.0796C28.7309 47.9215 28.6958 47.7512 28.6958 47.5792C28.6958 47.4071 28.7309 47.2368 28.7988 47.0787C28.8755 46.8636 29.0069 46.6722 29.1801 46.5234C29.3533 46.3745 29.5623 46.2734 29.7865 46.23C30.0107 46.1866 30.2424 46.2024 30.4586 46.2758C30.6748 46.3492 30.8682 46.4777 31.0196 46.6486C31.1631 46.804 31.2605 46.9962 31.3011 47.2038L30.8163 47.2976C30.7908 47.1712 30.7344 47.053 30.6521 46.9536C30.5594 46.8544 30.444 46.7793 30.3159 46.7346C30.161 46.6865 29.9957 46.6835 29.8393 46.7259C29.6828 46.7684 29.5417 46.8546 29.4325 46.9745C29.3233 47.0943 29.2506 47.2429 29.2229 47.4026C29.1951 47.5623 29.2135 47.7266 29.2758 47.8763C29.3221 47.977 29.3893 48.0668 29.4728 48.1395C29.5564 48.2123 29.6545 48.2665 29.7607 48.2986C29.8914 48.333 30.0288 48.333 30.1595 48.2986C30.2845 48.2807 30.4015 48.2263 30.4957 48.1422L30.8163 48.5175C30.6552 48.6573 30.4568 48.747 30.2455 48.7755C30.026 48.829 29.796 48.8209 29.5808 48.7521Z" fill="white"/>
<path d="M31.7625 46.7812L32.2238 46.9455L31.3793 49.3304L30.9102 49.1584L31.7625 46.7812Z" fill="white"/>
<path d="M33.3812 50.0425V49.5343L32.4038 49.1824L32.1067 49.5577L31.6062 49.3779L33.2874 47.2979L33.8661 47.5012V50.1833L33.3812 50.0425ZM32.7166 48.8305L33.3812 49.0651V47.9703L32.7166 48.8305Z" fill="white"/>
<path d="M34.7183 50.0185L35.6254 50.3391L35.4612 50.7926L34.085 50.3L34.9373 47.9541L35.4065 48.1261L34.7183 50.0185Z" fill="white"/>
<path d="M38.3155 49.1272C38.4232 49.1627 38.5225 49.2198 38.6073 49.2951C38.692 49.3704 38.7604 49.4623 38.8082 49.5651C38.9045 49.7694 38.9157 50.0036 38.8395 50.2162C38.7632 50.4288 38.6057 50.6024 38.4016 50.699C38.2986 50.7466 38.1866 50.7713 38.0731 50.7713C37.9597 50.7713 37.8476 50.7466 37.7447 50.699L37.3303 50.5504L37.0488 51.3324L36.5796 51.1603L37.4319 48.8145L38.3155 49.1272ZM37.9011 50.2845C37.9464 50.3055 37.9958 50.3164 38.0458 50.3164C38.0957 50.3164 38.1451 50.3055 38.1904 50.2845C38.2781 50.2375 38.345 50.1594 38.3781 50.0656C38.4172 49.9704 38.4172 49.8636 38.3781 49.7684C38.3586 49.7237 38.3297 49.6838 38.2932 49.6514C38.2567 49.6189 38.2137 49.5949 38.167 49.5808L37.7525 49.4322L37.4945 50.1516L37.9011 50.2845Z" fill="white"/>
<path d="M39.2147 51.622L40.1218 51.9504L39.9575 52.3961L38.5891 51.88L39.4414 49.5342L39.9106 49.7062L39.2147 51.622Z" fill="white"/>
<path d="M41.8576 53.0767V52.5919L40.8801 52.2478L40.583 52.6231L40.0747 52.4433L41.7637 50.3633L42.3424 50.5666V53.2487L41.8576 53.0767ZM41.1929 51.8646L41.8576 52.0992V51.0045L41.1929 51.8646Z" fill="white"/>
<path d="M44.7901 51.4419L45.2593 51.6061L44.4069 53.9519L44.0551 53.819L43.5546 52.0049L43.0307 53.4593L42.5615 53.2873L43.4139 50.9414L43.7736 51.0665L44.274 52.8807L44.7901 51.4419Z" fill="white"/>
<path d="M47.0811 52.2631L47.5503 52.4274L46.698 54.7732L46.3383 54.6481L45.8378 52.8262L45.3217 54.2806L44.8525 54.1164L45.7049 51.7705L46.0568 51.8956L46.5572 53.7098L47.0811 52.2631Z" fill="white"/>
<path d="M47.9725 52.584L48.4416 52.756L47.5893 55.1019L47.1201 54.9299L47.9725 52.584Z" fill="white"/>
<path d="M50.2716 53.4438L50.7407 53.6081L49.8962 55.9539L49.5365 55.7897L49.0361 53.9756L48.5121 55.43L48.043 55.258L48.8953 52.9121L49.255 53.0372L49.7555 54.8514L50.2716 53.4438Z" fill="white"/>
<path d="M53.1257 55.6643L53.0631 55.8442C53.0145 56 52.9337 56.1438 52.826 56.2664C52.7182 56.389 52.5859 56.4876 52.4376 56.5558C52.2867 56.6198 52.1245 56.6529 51.9606 56.6529C51.7967 56.6529 51.6344 56.6198 51.4836 56.5558C51.3132 56.5004 51.156 56.4108 51.0215 56.2925C50.887 56.1742 50.7782 56.0296 50.7016 55.8676C50.6253 55.7132 50.5811 55.5448 50.5717 55.3728C50.5623 55.2007 50.5879 55.0286 50.6469 54.8667C50.7001 54.6964 50.788 54.539 50.9051 54.4044C51.0222 54.2698 51.1659 54.161 51.3272 54.0848C51.4843 54.0076 51.6557 53.9635 51.8306 53.9555C52.0055 53.9474 52.1802 53.9754 52.3437 54.0378C52.5569 54.1153 52.7476 54.2442 52.8989 54.4132C53.0367 54.5725 53.1333 54.7631 53.1804 54.9684L52.6956 55.0544C52.6702 54.931 52.6106 54.8172 52.5236 54.726C52.4276 54.6215 52.3065 54.5434 52.1717 54.4992C52.072 54.455 51.9641 54.4322 51.855 54.4322C51.7459 54.4322 51.6381 54.455 51.5383 54.4992C51.3422 54.6001 51.1919 54.7718 51.1179 54.9795C51.0438 55.1871 51.0515 55.4152 51.1395 55.6174C51.1909 55.7205 51.2624 55.8123 51.3496 55.8874C51.4369 55.9626 51.5383 56.0197 51.6478 56.0553C51.8044 56.1172 51.976 56.1308 52.1404 56.0944C52.288 56.0557 52.4178 55.9673 52.5079 55.8442L51.7885 55.5939L51.9293 55.1717L53.1257 55.6643Z" fill="white"/>
<path d="M56.2769 55.5474L56.1127 56.001L55.4715 55.7664L54.7834 57.6978L54.3142 57.5336L55.0023 55.6022L54.3611 55.3754L54.5253 54.9219L56.2769 55.5474Z" fill="white"/>
<path d="M56.9885 58.4869L56.8086 57.4938L56.4489 57.3609L56.1596 58.1898L55.6826 58.0178L56.5349 55.6719L57.4889 56.0159C57.5943 56.0498 57.6914 56.1056 57.7736 56.1797C57.8558 56.2539 57.9214 56.3446 57.9659 56.446C58.0112 56.5468 58.0347 56.6561 58.0347 56.7666C58.0347 56.8771 58.0112 56.9864 57.9659 57.0872C57.9178 57.2345 57.8214 57.3613 57.6922 57.4469C57.5695 57.5464 57.4196 57.6064 57.2622 57.6189L57.4655 58.6981L56.9885 58.4869ZM56.8477 56.2505L56.5975 56.9543L57.0823 57.1263C57.124 57.1453 57.1694 57.1552 57.2152 57.1552C57.2611 57.1552 57.3064 57.1453 57.3482 57.1263C57.3914 57.1039 57.4296 57.0729 57.4606 57.0353C57.4915 56.9977 57.5144 56.9541 57.528 56.9074C57.5474 56.863 57.5574 56.8151 57.5574 56.7666C57.5574 56.7182 57.5474 56.6703 57.528 56.6259C57.5106 56.5847 57.485 56.5475 57.4527 56.5166C57.4205 56.4857 57.3822 56.4616 57.3404 56.446L56.8477 56.2505Z" fill="white"/>
<path d="M58.6228 56.3916L59.092 56.5558L58.2397 58.9017L57.7705 58.7375L58.6228 56.3916Z" fill="white"/>
<path d="M60.4215 57.0335C60.5292 57.0689 60.6285 57.126 60.7132 57.2014C60.798 57.2767 60.8663 57.3686 60.9141 57.4714C60.9606 57.5732 60.9847 57.6839 60.9847 57.7959C60.9847 57.9079 60.9606 58.0185 60.9141 58.1204C60.8804 58.228 60.8239 58.327 60.7483 58.4107C60.6727 58.4944 60.5799 58.5608 60.4763 58.6052C60.3726 58.65 60.2608 58.6731 60.1478 58.6731C60.0349 58.6731 59.9231 58.65 59.8194 58.6052L59.3972 58.4566L59.1235 59.2386L58.6543 59.0744L59.5066 56.7285L60.4215 57.0335ZM60.0071 58.1908C60.0509 58.2122 60.0991 58.2233 60.1478 58.2233C60.1966 58.2233 60.2448 58.2122 60.2886 58.1908C60.38 58.1452 60.4505 58.0662 60.4854 57.9702C60.5203 57.8741 60.5171 57.7684 60.4763 57.6747C60.4568 57.63 60.4278 57.59 60.3914 57.5576C60.3549 57.5252 60.3118 57.5011 60.2651 57.487L59.8429 57.3384L59.5926 58.0578L60.0071 58.1908Z" fill="white"/>
<path d="M36.8531 33.8951V32.6909L34.7965 31.9558L34.0146 32.8785L33.561 32.7143L36.7671 28.9844L37.2128 29.1408L37.3301 34.0593L36.8531 33.8951ZM35.078 31.5492L36.8218 32.1748L36.7827 29.5474L35.078 31.5492Z" fill="white"/>
<path d="M40.5204 35.1776L40.1529 33.1132L38.9409 32.6754L38.3231 34.4035L37.8931 34.2549L39.457 29.9229L41.1851 30.5484C41.4262 30.6347 41.6385 30.7866 41.798 30.987C41.9574 31.1874 42.0579 31.4282 42.0879 31.6826C42.118 31.9369 42.0765 32.1946 41.9681 32.4266C41.8597 32.6586 41.6888 32.8558 41.4744 32.996C41.2259 33.1559 40.9328 33.2326 40.6377 33.2149L41.06 35.3809L40.5204 35.1776ZM39.6994 30.4859L39.066 32.2687L40.3641 32.7301C40.4751 32.7783 40.5949 32.8032 40.7159 32.8032C40.837 32.8032 40.9568 32.7783 41.0678 32.7301C41.1792 32.6764 41.2787 32.601 41.3606 32.5083C41.4425 32.4157 41.5051 32.3076 41.5448 32.1905C41.6387 31.9599 41.6387 31.7017 41.5448 31.4711C41.4955 31.3595 41.4235 31.2594 41.3332 31.1773C41.243 31.0951 41.1366 31.0328 41.0209 30.9941L39.6994 30.4859Z" fill="white"/>
<path d="M44.2973 36.5302L43.9064 34.4345L42.6865 33.9966L42.0688 35.7326L41.6387 35.5762L43.2026 31.252L44.9307 31.8697C45.103 31.9281 45.2614 32.0214 45.396 32.1439C45.5305 32.2663 45.6383 32.4152 45.7127 32.5813C45.8518 32.8817 45.8786 33.2221 45.7882 33.5406C45.6978 33.8591 45.4962 34.1346 45.22 34.3172C44.9736 34.482 44.6789 34.5591 44.3834 34.5362L44.8056 36.7022L44.2973 36.5302ZM43.4685 31.8384L42.8351 33.6135L44.1331 34.0826C44.247 34.1255 44.3687 34.1435 44.4901 34.1354C44.6115 34.1273 44.7297 34.0933 44.8369 34.0357C44.9488 33.9848 45.0489 33.9112 45.131 33.8197C45.2131 33.7282 45.2753 33.6207 45.3139 33.504C45.3623 33.3889 45.3872 33.2653 45.3872 33.1404C45.3872 33.0155 45.3623 32.8919 45.3139 32.7768C45.2646 32.6652 45.1925 32.5651 45.1023 32.4829C45.0121 32.4008 44.9057 32.3384 44.79 32.2998L43.4685 31.8384Z" fill="white"/>
<path d="M46.9482 32.5967L47.3861 32.7531L45.8222 37.0773L45.3921 36.9209L46.9482 32.5967Z" fill="white"/>
<path d="M47.9727 37.8433L47.9258 32.9482L48.3949 33.1203V37.3429L51.0849 34.0821L51.5462 34.2541L48.4184 38.0075L47.9727 37.8433Z" fill="white"/>
<path d="M53.2117 39.7203V38.5082L51.1552 37.7732L50.3732 38.6959L49.9197 38.5317L53.1257 34.8018L53.5714 34.9581L53.6887 39.8767L53.2117 39.7203ZM51.4445 37.4213L53.1883 38.0469L53.1414 35.4195L51.4445 37.4213Z" fill="white"/>
<path d="M54.8069 39.8221L56.7853 40.5336L56.6367 40.9403L54.2283 40.0801L55.7922 35.7559L56.2223 35.9044L54.8069 39.8221Z" fill="white"/>
<path d="M61.1564 46.1949L26.7815 33.9025L26.8597 33.6836L61.2346 45.976L61.1564 46.1949Z" fill="white"/>
<path d="M62.5405 54.3585L20.5337 39.3371L20.6041 39.1182L62.6187 54.1396L62.5405 54.3585Z" fill="white"/>
<path d="M51.8776 20.2987L50.4639 19.7931C48.321 19.0266 45.9624 20.1425 45.196 22.2855L44.6903 23.6991C43.9239 25.8421 45.0398 28.2007 47.1828 28.9671L48.5964 29.4728C50.7394 30.2392 53.098 29.1233 53.8644 26.9803L54.37 25.5667C55.1365 23.4237 54.0206 21.0651 51.8776 20.2987Z" fill="#00BCBC"/>
<path d="M38.1904 56.2038L18.9151 49.3069C18.1553 49.0372 17.4801 48.5718 16.9577 47.9576C16.4353 47.3435 16.0842 46.6024 15.9398 45.8091C15.7954 45.0159 15.8629 44.1986 16.1354 43.4398C16.408 42.6809 16.8759 42.0075 17.492 41.4873L33.1311 28.2409L48.7703 14.9476C49.3837 14.4286 50.1229 14.0799 50.9136 13.9367C51.7043 13.7934 52.5188 13.8606 53.2753 14.1316C54.0318 14.4025 54.7038 14.8676 55.2238 15.4802C55.7438 16.0929 56.0936 16.8315 56.238 17.622L59.8585 37.8043L63.5259 57.9554C63.6689 58.7464 63.6012 59.5611 63.3298 60.3178C63.0583 61.0744 62.5926 61.7463 61.9794 62.2661C61.3662 62.7858 60.627 63.1351 59.8361 63.2788C59.0452 63.4226 58.2304 63.3557 57.4735 63.085L38.1904 56.2038Z" stroke="#005960" stroke-width="0.25" stroke-miterlimit="10"/>
<path d="M59.0295 65.2201C58.2858 65.2167 57.5481 65.0871 56.8478 64.837L18.2581 51.0432C17.1969 50.6627 16.2545 50.0097 15.5254 49.1499C14.7962 48.2901 14.3061 47.2536 14.104 46.1445C13.902 45.0354 13.9953 43.8927 14.3744 42.831C14.7535 41.7693 15.4053 40.826 16.2641 40.0958L47.519 13.5639C48.6672 12.5608 50.1387 12.0055 51.6634 12C53.1721 11.9993 54.6332 12.528 55.7921 13.4939C56.9509 14.4599 57.7341 15.8019 58.0051 17.286L65.3399 57.5726C65.5092 58.4987 65.4732 59.4506 65.2346 60.3613C64.9959 61.272 64.5603 62.1192 63.9586 62.8433C63.3568 63.5673 62.6036 64.1505 61.7519 64.5517C60.9002 64.9529 59.9709 65.1624 59.0295 65.1654V65.2201Z" stroke="#005960" stroke-width="0.25" stroke-miterlimit="10"/>
<mask id="mask1_747_32514" style="mask-type:alpha" maskUnits="userSpaceOnUse" x="44" y="19" width="11" height="11">
<path d="M51.8775 20.2987L50.4638 19.7931C48.3208 19.0266 45.9623 20.1425 45.1958 22.2855L44.6902 23.6991C43.9238 25.8421 45.0397 28.2007 47.1826 28.9671L48.5963 29.4728C50.7393 30.2392 53.0979 29.1233 53.8643 26.9803L54.3699 25.5667C55.1364 23.4237 54.0205 21.0651 51.8775 20.2987Z" fill="#00BCBC"/>
</mask>
<g mask="url(#mask1_747_32514)">
<path d="M53.4323 23.4233C53.4004 23.3801 53.3573 23.3464 53.3078 23.3258C53.2582 23.3051 53.204 23.2983 53.1508 23.306L52.8224 23.3607C52.755 23.3671 52.6873 23.3525 52.6285 23.3189C52.5697 23.2853 52.5227 23.2344 52.494 23.173C52.3135 22.7829 52.0573 22.4325 51.7403 22.1422C51.4232 21.8519 51.0516 21.6275 50.6471 21.482C50.2427 21.3365 49.8133 21.2728 49.384 21.2946C48.9546 21.3164 48.5339 21.4233 48.1463 21.6091C48.0847 21.6378 48.0159 21.6472 47.9489 21.636C47.8819 21.6249 47.8199 21.5937 47.7709 21.5466C47.6927 21.4684 47.6224 21.3824 47.5442 21.2963C47.5104 21.2544 47.4646 21.2237 47.4129 21.2083C47.3612 21.1929 47.3061 21.1936 47.2549 21.2103C47.2023 21.2237 47.1549 21.2524 47.1187 21.2928C47.0825 21.3332 47.0592 21.3834 47.0515 21.4371C47.0515 21.5309 47.0515 21.6248 47.0515 21.7108C47.0125 22.1878 46.888 22.654 46.684 23.087C46.6292 23.1902 46.5821 23.2974 46.5433 23.4076L46.0115 24.909C45.6887 25.8163 45.6357 26.7978 45.8592 27.7346C46.0826 28.6714 46.5728 29.5233 47.2705 30.1872L50.5782 31.368L50.4062 30.9926C50.2357 30.6236 50.1513 30.2207 50.1595 29.8143C50.1676 29.4079 50.268 29.0087 50.4531 28.6467C50.7778 28.0073 51.3387 27.5193 52.017 27.2861L52.6347 25.5658C52.6738 25.4564 52.7051 25.3469 52.7364 25.2296C52.8484 24.7652 53.0445 24.3252 53.315 23.9315C53.369 23.859 53.4186 23.7833 53.4636 23.7048C53.4846 23.6595 53.4927 23.6093 53.4872 23.5597C53.4817 23.51 53.4627 23.4629 53.4323 23.4233Z" fill="#00A7A7"/>
<path d="M51.9858 27.3174C51.3084 27.552 50.7479 28.0395 50.4219 28.678C50.2385 29.0404 50.139 29.4395 50.1309 29.8456C50.1228 30.2517 50.2062 30.6544 50.375 31.0239L50.5392 31.407L51.9858 27.3174Z" fill="#FF9C39"/>
<path d="M45.0289 29.2835L44.7129 30.167L51.3173 32.5291L51.6333 31.6456L45.0289 29.2835Z" fill="#006561"/>
<path d="M51.3368 23.4459C51.0642 23.3478 50.7681 23.3357 50.4884 23.4112C50.2088 23.4867 49.959 23.6462 49.7729 23.8682C49.7726 23.5357 49.6545 23.214 49.4397 22.9602C49.2249 22.7063 48.9272 22.5368 48.5993 22.4815C48.2714 22.4262 47.9345 22.4888 47.6484 22.6582C47.3622 22.8276 47.1453 23.0928 47.036 23.4068C46.4886 24.916 46.1993 26.1984 48.5999 27.0664C50.8989 27.8483 51.6183 26.7614 52.1657 25.2444C52.2901 24.8958 52.2731 24.5123 52.1181 24.1761C51.9632 23.8399 51.6827 23.5778 51.3368 23.4459Z" fill="white"/>
<path d="M51.2712 24.9507C51.3453 24.7433 51.2373 24.5151 51.03 24.4409C50.8226 24.3667 50.5943 24.4747 50.5202 24.6821C50.446 24.8895 50.554 25.1177 50.7614 25.1919C50.9687 25.2661 51.197 25.1581 51.2712 24.9507Z" fill="#006561"/>
<path d="M49.5226 24.8928C49.5074 24.8623 49.4827 24.8376 49.4522 24.8224C49.4194 24.8105 49.3834 24.8105 49.3506 24.8224L48.8657 25.0727C48.8413 25.0865 48.8216 25.1072 48.809 25.1323C48.7965 25.1574 48.7917 25.1856 48.7954 25.2134L48.8736 25.7373C48.881 25.7837 48.901 25.8271 48.9313 25.8629C48.9616 25.8987 49.0011 25.9256 49.0456 25.9406C49.0902 25.9565 49.1381 25.9605 49.1847 25.9522C49.2313 25.944 49.275 25.9239 49.3115 25.8937L49.7024 25.534C49.7179 25.5109 49.7262 25.4837 49.7262 25.4558C49.7262 25.428 49.7179 25.4008 49.7024 25.3776L49.5226 24.8928Z" fill="#FF9C39"/>
<path d="M48.514 23.5397C48.4396 23.5132 48.3591 23.5094 48.2825 23.5288C48.206 23.5481 48.137 23.5897 48.0841 23.6483C48.0312 23.7069 47.997 23.7799 47.9856 23.858C47.9742 23.9361 47.9863 24.0158 48.0203 24.0871C48.0543 24.1583 48.1086 24.2179 48.1765 24.2582C48.2443 24.2985 48.3226 24.3178 48.4014 24.3136C48.4802 24.3095 48.556 24.282 48.6192 24.2347C48.6824 24.1874 48.7301 24.1224 48.7564 24.048C48.7914 23.9484 48.7856 23.839 48.7402 23.7437C48.6948 23.6484 48.6134 23.5751 48.514 23.5397Z" fill="#006561"/>
</g>
<path d="M34.3742 38.6259L33.2873 41.6521L32.7946 41.4723L33.5766 39.3141L32.1143 40.5026H32.0518L31.6765 38.6416L30.8945 40.8076L30.4019 40.6277L31.481 37.6016L32.0205 37.7971L32.388 39.6347L33.8503 38.4461L34.3742 38.6259Z" fill="#005960"/>
<path d="M36.5717 42.3711C36.1714 42.5558 35.715 42.5774 35.299 42.4315C34.883 42.2855 34.5402 41.9834 34.3431 41.5891C34.2233 41.3405 34.1669 41.0661 34.1788 40.7904C34.1908 40.5147 34.2707 40.2462 34.4115 40.0089C34.5524 39.7715 34.7497 39.5727 34.986 39.4301C35.2223 39.2875 35.4902 39.2056 35.7658 39.1916C36.0414 39.1776 36.3162 39.232 36.5657 39.3499C36.8152 39.4679 37.0317 39.6457 37.1959 39.8675C37.36 40.0894 37.4667 40.3484 37.5065 40.6215C37.5463 40.8946 37.518 41.1733 37.424 41.4327C37.3553 41.64 37.244 41.8305 37.0972 41.9921C36.9504 42.1538 36.7714 42.2828 36.5717 42.3711ZM34.8122 41.3624C34.9489 41.6406 35.1895 41.854 35.4821 41.9564C35.7747 42.0588 36.0958 42.0421 36.3762 41.9097C36.5138 41.8444 36.6368 41.7518 36.7376 41.6375C36.8384 41.5233 36.9149 41.3898 36.9626 41.2451C37.0247 41.1047 37.0567 40.9529 37.0567 40.7994C37.0567 40.6459 37.0247 40.494 36.9626 40.3536C36.9001 40.2177 36.8102 40.0962 36.6985 39.9966C36.5868 39.897 36.4558 39.8216 36.3136 39.775C36.1754 39.7152 36.0263 39.6843 35.8757 39.6843C35.7251 39.6843 35.5761 39.7152 35.4378 39.775C35.2986 39.8379 35.1743 39.9297 35.0732 40.0443C34.9721 40.1589 34.8965 40.2937 34.8513 40.4397C34.7795 40.5818 34.7388 40.7377 34.7321 40.8968C34.7253 41.0559 34.7527 41.2147 34.8122 41.3624Z" fill="#005960"/>
<path d="M40.239 40.7213L40.7316 40.8933L39.6525 43.9273L39.2615 43.7866L38.5734 41.2217L37.8071 43.2783L37.3066 43.0984L38.3857 40.0723L38.7689 40.2052L39.4648 42.7857L40.239 40.7213Z" fill="#005960"/>
<path d="M40.9349 43.8413L42.2721 44.3261L42.1001 44.7953L40.2625 44.1385L41.3494 41.1123L43.1635 41.7613L42.9915 42.2383L41.67 41.7691L41.3885 42.5511L42.6005 42.989L42.4363 43.4582L41.2243 43.0281L40.9349 43.8413Z" fill="#005960"/>
<path d="M45.955 42.7626L44.2504 44.217L43.8203 45.4134L43.3198 45.2414L43.7577 44.0372L43.3511 41.832L43.9141 42.0353L44.18 43.6384L45.392 42.5671L45.955 42.7626Z" fill="#005960"/>
<path d="M47.6599 46.3356C47.3611 46.4765 47.0273 46.5258 46.7005 46.4774C46.3737 46.4289 46.0686 46.2848 45.8236 46.0632C45.5786 45.8416 45.4047 45.5524 45.3237 45.2322C45.2428 44.9119 45.2584 44.5748 45.3687 44.2634C45.5235 43.8515 45.8343 43.5171 46.2339 43.3327C46.6334 43.1483 47.0896 43.1287 47.5035 43.2782C47.7114 43.3499 47.903 43.4624 48.0668 43.6093C48.2306 43.7561 48.3635 43.9342 48.4574 44.1331C48.5514 44.332 48.6047 44.5477 48.6141 44.7675C48.6235 44.9873 48.5889 45.2067 48.5122 45.4129C48.4416 45.6173 48.3294 45.8048 48.1827 45.9636C48.036 46.1224 47.858 46.2491 47.6599 46.3356ZM45.9005 45.3269C46.0432 45.5872 46.2806 45.7828 46.5634 45.873C46.8463 45.9633 47.153 45.9413 47.4202 45.8118C47.6874 45.6822 47.8945 45.4549 47.9988 45.1769C48.1031 44.8989 48.0965 44.5915 47.9805 44.3182C47.9179 44.1822 47.828 44.0607 47.7163 43.9611C47.6047 43.8615 47.4736 43.7861 47.3314 43.7395C47.1894 43.6867 47.0382 43.6631 46.8868 43.6701C46.7355 43.6771 46.5871 43.7146 46.4506 43.7803C46.314 43.846 46.1922 43.9386 46.0923 44.0525C45.9924 44.1664 45.9165 44.2993 45.8692 44.4433C45.814 44.585 45.7884 44.7364 45.7938 44.8883C45.7991 45.0402 45.8354 45.1895 45.9005 45.3269Z" fill="#005960"/>
<path d="M48.9031 47.2354L49.1611 43.9121L49.685 44.0998L49.4739 46.6959L51.0378 44.569L51.4992 44.7332L51.335 47.3449L52.8207 45.2102L53.3133 45.3822L51.4053 48.1191L50.8267 47.9079L50.9831 45.4604L49.5365 47.4544L48.9031 47.2354Z" fill="#005960"/>
<path d="M53.2821 48.2671L54.5176 48.705L54.3455 49.182L52.6174 48.5643L53.6965 45.5303L54.197 45.7101L53.2821 48.2671Z" fill="#005960"/>
<path d="M21.0576 43.4579L20.1114 43.1216L19.9081 43.6846L20.8308 44.0131L20.6744 44.4666L19.7439 44.1303L19.4155 45.0531L18.9463 44.881L19.7986 42.5352L21.2218 43.0434L21.0576 43.4579Z" fill="#005960"/>
<path d="M21.5657 43.1377L22.0349 43.3019L21.1826 45.6478L20.7134 45.4836L21.5657 43.1377Z" fill="#005960"/>
<path d="M23.8492 43.9507L24.3183 44.1227L23.466 46.4686L23.1141 46.3435L22.6137 44.5215L22.0898 45.9759L21.6206 45.8117L22.4729 43.4268L22.8326 43.5597L23.3331 45.3738L23.8492 43.9507Z" fill="#005960"/>
<path d="M25.4757 47.188V46.7032L24.5139 46.406L24.2168 46.7892L23.7085 46.6015L25.3975 44.5215L25.9762 44.7326V47.4147L25.4757 47.188ZM24.8111 45.9681L25.4757 46.2105V45.1158L24.8111 45.9681Z" fill="#005960"/>
<path d="M28.4235 45.6245L28.8926 45.7887L28.0403 48.1346L27.6415 47.9704L27.141 46.1562L26.6171 47.6107L26.1479 47.4387L27.0003 45.0928L27.36 45.2179L27.8604 47.032L28.4235 45.6245Z" fill="#005960"/>
<path d="M29.5808 48.7521C29.4102 48.702 29.2522 48.6161 29.1173 48.5002C28.9825 48.3842 28.8739 48.2408 28.7988 48.0796C28.7309 47.9215 28.6958 47.7512 28.6958 47.5792C28.6958 47.4071 28.7309 47.2368 28.7988 47.0787C28.8755 46.8636 29.0069 46.6722 29.1801 46.5234C29.3533 46.3745 29.5623 46.2734 29.7865 46.23C30.0107 46.1866 30.2424 46.2024 30.4586 46.2758C30.6748 46.3492 30.8682 46.4777 31.0196 46.6486C31.1631 46.804 31.2605 46.9962 31.3011 47.2038L30.8163 47.2976C30.7908 47.1712 30.7344 47.053 30.6521 46.9536C30.5594 46.8544 30.444 46.7793 30.3159 46.7346C30.161 46.6865 29.9957 46.6835 29.8393 46.7259C29.6828 46.7684 29.5417 46.8546 29.4325 46.9745C29.3233 47.0943 29.2506 47.2429 29.2229 47.4026C29.1951 47.5623 29.2135 47.7266 29.2758 47.8763C29.3221 47.977 29.3893 48.0668 29.4728 48.1395C29.5564 48.2123 29.6545 48.2665 29.7607 48.2986C29.8914 48.333 30.0288 48.333 30.1595 48.2986C30.2845 48.2807 30.4015 48.2263 30.4957 48.1422L30.8163 48.5175C30.6552 48.6573 30.4568 48.747 30.2455 48.7755C30.026 48.829 29.796 48.8209 29.5808 48.7521Z" fill="#005960"/>
<path d="M31.7625 46.7812L32.2238 46.9455L31.3793 49.3304L30.9102 49.1584L31.7625 46.7812Z" fill="#005960"/>
<path d="M33.3812 50.0425V49.5343L32.4038 49.1824L32.1067 49.5577L31.6062 49.3779L33.2874 47.2979L33.8661 47.5012V50.1833L33.3812 50.0425ZM32.7166 48.8305L33.3812 49.0651V47.9703L32.7166 48.8305Z" fill="#005960"/>
<path d="M34.7183 50.0185L35.6254 50.3391L35.4612 50.7926L34.085 50.3L34.9373 47.9541L35.4065 48.1261L34.7183 50.0185Z" fill="#005960"/>
<path d="M38.3155 49.1272C38.4232 49.1627 38.5225 49.2198 38.6073 49.2951C38.692 49.3704 38.7604 49.4623 38.8082 49.5651C38.9045 49.7694 38.9157 50.0036 38.8395 50.2162C38.7632 50.4288 38.6057 50.6024 38.4016 50.699C38.2986 50.7466 38.1866 50.7713 38.0731 50.7713C37.9597 50.7713 37.8476 50.7466 37.7447 50.699L37.3303 50.5504L37.0488 51.3324L36.5796 51.1603L37.4319 48.8145L38.3155 49.1272ZM37.9011 50.2845C37.9464 50.3055 37.9958 50.3164 38.0458 50.3164C38.0957 50.3164 38.1451 50.3055 38.1904 50.2845C38.2781 50.2375 38.345 50.1594 38.3781 50.0656C38.4172 49.9704 38.4172 49.8636 38.3781 49.7684C38.3586 49.7237 38.3297 49.6838 38.2932 49.6514C38.2567 49.6189 38.2137 49.5949 38.167 49.5808L37.7525 49.4322L37.4945 50.1516L37.9011 50.2845Z" fill="#005960"/>
<path d="M39.2147 51.622L40.1218 51.9504L39.9575 52.3961L38.5891 51.88L39.4414 49.5342L39.9106 49.7062L39.2147 51.622Z" fill="#005960"/>
<path d="M41.8576 53.0767V52.5919L40.8801 52.2478L40.583 52.6231L40.0747 52.4433L41.7637 50.3633L42.3424 50.5666V53.2487L41.8576 53.0767ZM41.1929 51.8646L41.8576 52.0992V51.0045L41.1929 51.8646Z" fill="#005960"/>
<path d="M44.7901 51.4419L45.2593 51.6061L44.4069 53.9519L44.0551 53.819L43.5546 52.0049L43.0307 53.4593L42.5615 53.2873L43.4139 50.9414L43.7736 51.0665L44.274 52.8807L44.7901 51.4419Z" fill="#005960"/>
<path d="M47.0811 52.2631L47.5503 52.4274L46.698 54.7732L46.3383 54.6481L45.8378 52.8262L45.3217 54.2806L44.8525 54.1164L45.7049 51.7705L46.0568 51.8956L46.5572 53.7098L47.0811 52.2631Z" fill="#005960"/>
<path d="M47.9725 52.584L48.4416 52.756L47.5893 55.1019L47.1201 54.9299L47.9725 52.584Z" fill="#005960"/>
<path d="M50.2716 53.4438L50.7407 53.6081L49.8962 55.9539L49.5365 55.7897L49.0361 53.9756L48.5121 55.43L48.043 55.258L48.8953 52.9121L49.255 53.0372L49.7555 54.8514L50.2716 53.4438Z" fill="#005960"/>
<path d="M53.1257 55.6643L53.0631 55.8442C53.0145 56 52.9337 56.1438 52.826 56.2664C52.7182 56.389 52.5859 56.4876 52.4376 56.5558C52.2867 56.6198 52.1245 56.6529 51.9606 56.6529C51.7967 56.6529 51.6344 56.6198 51.4836 56.5558C51.3132 56.5004 51.156 56.4108 51.0215 56.2925C50.887 56.1742 50.7782 56.0296 50.7016 55.8676C50.6253 55.7132 50.5811 55.5448 50.5717 55.3728C50.5623 55.2007 50.5879 55.0286 50.6469 54.8667C50.7001 54.6964 50.788 54.539 50.9051 54.4044C51.0222 54.2698 51.1659 54.161 51.3272 54.0848C51.4843 54.0076 51.6557 53.9635 51.8306 53.9555C52.0055 53.9474 52.1802 53.9754 52.3437 54.0378C52.5569 54.1153 52.7476 54.2442 52.8989 54.4132C53.0367 54.5725 53.1333 54.7631 53.1804 54.9684L52.6956 55.0544C52.6702 54.931 52.6106 54.8172 52.5236 54.726C52.4276 54.6215 52.3065 54.5434 52.1717 54.4992C52.072 54.455 51.9641 54.4322 51.855 54.4322C51.7459 54.4322 51.6381 54.455 51.5383 54.4992C51.3422 54.6001 51.1919 54.7718 51.1179 54.9795C51.0438 55.1871 51.0515 55.4152 51.1395 55.6174C51.1909 55.7205 51.2624 55.8123 51.3496 55.8874C51.4369 55.9626 51.5383 56.0197 51.6478 56.0553C51.8044 56.1172 51.976 56.1308 52.1404 56.0944C52.288 56.0557 52.4178 55.9673 52.5079 55.8442L51.7885 55.5939L51.9293 55.1717L53.1257 55.6643Z" fill="#005960"/>
<path d="M56.2769 55.5474L56.1127 56.001L55.4715 55.7664L54.7834 57.6978L54.3142 57.5336L55.0023 55.6022L54.3611 55.3754L54.5253 54.9219L56.2769 55.5474Z" fill="#005960"/>
<path d="M56.9885 58.4869L56.8086 57.4938L56.4489 57.3609L56.1596 58.1898L55.6826 58.0178L56.5349 55.6719L57.4889 56.0159C57.5943 56.0498 57.6914 56.1056 57.7736 56.1797C57.8558 56.2539 57.9214 56.3446 57.9659 56.446C58.0112 56.5468 58.0347 56.6561 58.0347 56.7666C58.0347 56.8771 58.0112 56.9864 57.9659 57.0872C57.9178 57.2345 57.8214 57.3613 57.6922 57.4469C57.5695 57.5464 57.4196 57.6064 57.2622 57.6189L57.4655 58.6981L56.9885 58.4869ZM56.8477 56.2505L56.5975 56.9543L57.0823 57.1263C57.124 57.1453 57.1694 57.1552 57.2152 57.1552C57.2611 57.1552 57.3064 57.1453 57.3482 57.1263C57.3914 57.1039 57.4296 57.0729 57.4606 57.0353C57.4915 56.9977 57.5144 56.9541 57.528 56.9074C57.5474 56.863 57.5574 56.8151 57.5574 56.7666C57.5574 56.7182 57.5474 56.6703 57.528 56.6259C57.5106 56.5847 57.485 56.5475 57.4527 56.5166C57.4205 56.4857 57.3822 56.4616 57.3404 56.446L56.8477 56.2505Z" fill="#005960"/>
<path d="M58.6228 56.3916L59.092 56.5558L58.2397 58.9017L57.7705 58.7375L58.6228 56.3916Z" fill="#005960"/>
<path d="M60.4215 57.0335C60.5292 57.0689 60.6285 57.126 60.7132 57.2014C60.798 57.2767 60.8663 57.3686 60.9141 57.4714C60.9606 57.5732 60.9847 57.6839 60.9847 57.7959C60.9847 57.9079 60.9606 58.0185 60.9141 58.1204C60.8804 58.228 60.8239 58.327 60.7483 58.4107C60.6727 58.4944 60.5799 58.5608 60.4763 58.6052C60.3726 58.65 60.2608 58.6731 60.1478 58.6731C60.0349 58.6731 59.9231 58.65 59.8194 58.6052L59.3972 58.4566L59.1235 59.2386L58.6543 59.0744L59.5066 56.7285L60.4215 57.0335ZM60.0071 58.1908C60.0509 58.2122 60.0991 58.2233 60.1478 58.2233C60.1966 58.2233 60.2448 58.2122 60.2886 58.1908C60.38 58.1452 60.4505 58.0662 60.4854 57.9702C60.5203 57.8741 60.5171 57.7684 60.4763 57.6747C60.4568 57.63 60.4278 57.59 60.3914 57.5576C60.3549 57.5252 60.3118 57.5011 60.2651 57.487L59.8429 57.3384L59.5926 58.0578L60.0071 58.1908Z" fill="#005960"/>
<path d="M36.8531 33.8951V32.6909L34.7965 31.9558L34.0146 32.8785L33.561 32.7143L36.7671 28.9844L37.2128 29.1408L37.3301 34.0593L36.8531 33.8951ZM35.078 31.5492L36.8218 32.1748L36.7827 29.5474L35.078 31.5492Z" fill="#005960"/>
<path d="M40.5204 35.1776L40.1529 33.1132L38.9409 32.6754L38.3231 34.4035L37.8931 34.2549L39.457 29.9229L41.1851 30.5484C41.4262 30.6347 41.6385 30.7866 41.798 30.987C41.9574 31.1874 42.0579 31.4282 42.0879 31.6826C42.118 31.9369 42.0765 32.1946 41.9681 32.4266C41.8597 32.6586 41.6888 32.8558 41.4744 32.996C41.2259 33.1559 40.9328 33.2326 40.6377 33.2149L41.06 35.3809L40.5204 35.1776ZM39.6994 30.4859L39.066 32.2687L40.3641 32.7301C40.4751 32.7783 40.5949 32.8032 40.7159 32.8032C40.837 32.8032 40.9568 32.7783 41.0678 32.7301C41.1792 32.6764 41.2787 32.601 41.3606 32.5083C41.4425 32.4157 41.5051 32.3076 41.5448 32.1905C41.6387 31.9599 41.6387 31.7017 41.5448 31.4711C41.4955 31.3595 41.4235 31.2594 41.3332 31.1773C41.243 31.0951 41.1366 31.0328 41.0209 30.9941L39.6994 30.4859Z" fill="#005960"/>
<path d="M44.2973 36.5302L43.9064 34.4345L42.6865 33.9966L42.0688 35.7326L41.6387 35.5762L43.2026 31.252L44.9307 31.8697C45.103 31.9281 45.2614 32.0214 45.396 32.1439C45.5305 32.2663 45.6383 32.4152 45.7127 32.5813C45.8518 32.8817 45.8786 33.2221 45.7882 33.5406C45.6978 33.8591 45.4962 34.1346 45.22 34.3172C44.9736 34.482 44.6789 34.5591 44.3834 34.5362L44.8056 36.7022L44.2973 36.5302ZM43.4685 31.8384L42.8351 33.6135L44.1331 34.0826C44.247 34.1255 44.3687 34.1435 44.4901 34.1354C44.6115 34.1273 44.7297 34.0933 44.8369 34.0357C44.9488 33.9848 45.0489 33.9112 45.131 33.8197C45.2131 33.7282 45.2753 33.6207 45.3139 33.504C45.3623 33.3889 45.3872 33.2653 45.3872 33.1404C45.3872 33.0155 45.3623 32.8919 45.3139 32.7768C45.2646 32.6652 45.1925 32.5651 45.1023 32.4829C45.0121 32.4008 44.9057 32.3384 44.79 32.2998L43.4685 31.8384Z" fill="#005960"/>
<path d="M46.9482 32.5967L47.3861 32.7531L45.8222 37.0773L45.3921 36.9209L46.9482 32.5967Z" fill="#005960"/>
<path d="M47.9727 37.8433L47.9258 32.9482L48.3949 33.1203V37.3429L51.0849 34.0821L51.5462 34.2541L48.4184 38.0075L47.9727 37.8433Z" fill="#005960"/>
<path d="M53.2117 39.7203V38.5082L51.1552 37.7732L50.3732 38.6959L49.9197 38.5317L53.1257 34.8018L53.5714 34.9581L53.6887 39.8767L53.2117 39.7203ZM51.4445 37.4213L53.1883 38.0469L53.1414 35.4195L51.4445 37.4213Z" fill="#005960"/>
<path d="M54.8069 39.8221L56.7853 40.5336L56.6367 40.9403L54.2283 40.0801L55.7922 35.7559L56.2223 35.9044L54.8069 39.8221Z" fill="#005960"/>
<path d="M61.1564 46.1949L26.7815 33.9025L26.8597 33.6836L61.2346 45.976L61.1564 46.1949Z" fill="#005960"/>
<path d="M62.5405 54.3585L20.5337 39.3371L20.6041 39.1182L62.6187 54.1396L62.5405 54.3585Z" fill="#005960"/>
</svg>
