<svg width="23" height="13" viewBox="0 0 23 13" fill="none" xmlns="http://www.w3.org/2000/svg">
<path d="M9.08739 12.7814L7.15639 12.2634L7.94339 9.32438C6.76536 8.8899 5.67051 8.25674 4.70639 7.45237L2.55339 9.60637L1.13839 8.19138L3.29239 6.03837C2.07646 4.58213 1.25947 2.83514 0.921387 0.968375L2.88939 0.609375C3.64839 4.81138 7.32439 7.99937 11.7454 7.99937C16.1654 7.99937 19.8424 4.81138 20.6014 0.609375L22.5694 0.967375C22.2318 2.83439 21.4151 4.58174 20.1994 6.03837L22.3524 8.19138L20.9374 9.60637L18.7844 7.45237C17.8203 8.25674 16.7254 8.8899 15.5474 9.32438L16.3344 12.2644L14.4034 12.7814L13.6154 9.84138C12.3777 10.0535 11.113 10.0535 9.87539 9.84138L9.08739 12.7814Z" fill="white"/>
</svg>
