<svg width="24" height="30" viewBox="0 0 24 30" fill="none" xmlns="http://www.w3.org/2000/svg">
<circle cx="11.6232" cy="18.6371" r="11.3636" fill="#005150"/>
<mask id="mask0_861_38500" style="mask-type:alpha" maskUnits="userSpaceOnUse" x="0" y="7" width="23" height="23">
<circle cx="11.6232" cy="18.6371" r="11.3636" fill="white"/>
</mask>
<g mask="url(#mask0_861_38500)">
<path fill-rule="evenodd" clip-rule="evenodd" d="M4.40137 23.3906C-1.1352 29.2696 -0.992553 38.5621 4.80201 44.3567C10.5966 50.1512 19.889 50.2939 25.768 44.7573L4.40137 23.3906Z" fill="#008181"/>
<path fill-rule="evenodd" clip-rule="evenodd" d="M11.5632 29.0215C13.4553 32.0893 17.4975 33.0916 20.6887 31.2491C23.8799 29.4067 25.0331 25.4049 23.3223 22.2324L11.5632 29.0215Z" fill="#FF9445"/>
<mask id="mask1_861_38500" style="mask-type:alpha" maskUnits="userSpaceOnUse" x="4" y="13" width="18" height="23">
<path fill-rule="evenodd" clip-rule="evenodd" d="M4.15015 13.6367H21.3297V35.5795H4.15015V13.6367Z" fill="white"/>
</mask>
<g mask="url(#mask1_861_38500)">
<path fill-rule="evenodd" clip-rule="evenodd" d="M19.1017 34.4109V20.7747C19.1017 20.5113 19.0869 20.2511 19.0581 19.9951C18.9394 18.9375 19.0357 17.8711 19.3099 16.8417C19.3609 16.65 19.4078 16.4512 19.452 16.2451C19.5658 15.7149 18.9886 15.3036 18.5098 15.5755C18.2951 15.6976 18.0718 15.8157 17.8486 15.9211C17.5647 16.055 17.2279 15.996 17.007 15.7759C15.683 14.4568 13.8416 13.6367 11.8075 13.6367C9.77338 13.6367 7.93248 14.4566 6.60829 15.7753C6.38756 15.9954 6.05044 16.0544 5.76655 15.9204C5.54395 15.8153 5.32121 15.6973 5.10682 15.5755C4.62811 15.3036 4.05098 15.7148 4.16465 16.2449C4.20868 16.4497 4.25515 16.6471 4.30566 16.8374C4.57948 17.8669 4.67646 18.9331 4.55703 19.9904C4.52796 20.248 4.513 20.5096 4.513 20.7747V24.3085C4.513 28.8001 7.26038 32.6735 11.1957 34.4109H5.96367H21.3297H19.1017Z" fill="#00BCBC"/>
</g>
<path opacity="0.901284" fill-rule="evenodd" clip-rule="evenodd" d="M14.8087 17.1426C13.4282 17.1426 12.2525 18.0047 11.8076 19.2113C11.3627 18.0047 10.1872 17.1426 8.80667 17.1426C7.04397 17.1426 5.61499 18.5479 5.61499 20.2814C5.61499 23.8542 5.96555 26.7506 11.8076 26.7506C17.3253 26.7506 18.0002 23.8542 18.0002 20.2814C18.0002 18.5479 16.5713 17.1426 14.8087 17.1426Z" fill="white"/>
<path fill-rule="evenodd" clip-rule="evenodd" d="M12.1463 23.671L12.7072 22.6383C12.7698 22.5231 12.7513 22.3782 12.6622 22.2846L11.8367 21.416C11.7228 21.2962 11.5305 21.2962 11.4168 21.416L10.5911 22.2846C10.502 22.3782 10.4835 22.5231 10.5462 22.6383L11.107 23.671C11.3298 24.0812 11.9236 24.0812 12.1463 23.671Z" fill="#FFA32C"/>
</g>
<path fill-rule="evenodd" clip-rule="evenodd" d="M11.1687 1C11.1687 0.447715 11.6164 0 12.1687 0H21.9869C22.5392 0 22.9869 0.447715 22.9869 1V7.44156C22.9869 7.99384 22.5392 8.44156 21.9869 8.44156H16.874L13.9495 11.8182L13.8176 8.44156H12.1687C11.6164 8.44156 11.1687 7.99384 11.1687 7.44156V1Z" fill="#FF9600"/>
<path fill-rule="evenodd" clip-rule="evenodd" d="M12.0777 9.35154H12.9432L13.041 11.8545C13.0731 12.6782 14.0969 13.0373 14.6365 12.4142L17.2892 9.35154H22.0777C23.0819 9.35154 23.8959 8.53751 23.8959 7.53336V0.909979C23.8959 -0.0941754 23.0819 -0.908203 22.0777 -0.908203H12.0777C11.0735 -0.908203 10.2595 -0.0941754 10.2595 0.909979V7.53336C10.2595 8.53751 11.0735 9.35154 12.0777 9.35154ZM11.1686 0.909979C11.1686 0.407902 11.5756 0.000887811 12.0777 0.000887811H22.0777C22.5798 0.000887811 22.9868 0.407902 22.9868 0.909979V7.53336C22.9868 8.03543 22.5798 8.44245 22.0777 8.44245H16.8739L13.9494 11.8191L13.8175 8.44245H12.0777C11.5756 8.44245 11.1686 8.03543 11.1686 7.53336V0.909979Z" fill="white"/>
<path d="M13.7087 3.63654H20.4467C20.8454 3.63654 21.1686 3.22953 21.1686 2.72745C21.1686 2.22537 20.8454 1.81836 20.4467 1.81836H13.7087C13.31 1.81836 12.9868 2.22537 12.9868 2.72745C12.9868 3.22953 13.31 3.63654 13.7087 3.63654Z" fill="white"/>
<path d="M13.8904 6.3631H18.4469C18.9459 6.3631 19.3505 5.95609 19.3505 5.45401C19.3505 4.95194 18.9459 4.54492 18.4469 4.54492H13.8904C13.3914 4.54492 12.9868 4.95194 12.9868 5.45401C12.9868 5.95609 13.3914 6.3631 13.8904 6.3631Z" fill="white"/>
<ellipse cx="8.805" cy="20.9091" rx="0.818182" ry="0.909091" fill="#007F7E"/>
<ellipse cx="14.7142" cy="20.9091" rx="0.818182" ry="0.909091" fill="#007F7E"/>
</svg>
