<?xml version="1.0" encoding="UTF-8"?>
<svg width="34px" height="45px" viewBox="0 0 34 45" version="1.1" xmlns="http://www.w3.org/2000/svg" xmlns:xlink="http://www.w3.org/1999/xlink">
    <!-- Generator: sketchtool 51.2 (57519) - http://www.bohemiancoding.com/sketch -->
    <title>F7867650-14BE-4A1A-AF88-62C28F1633F5</title>
    <desc>Created with sketchtool.</desc>
    <defs></defs>
    <g id="Web-Direct" stroke="none" stroke-width="1" fill="none" fill-rule="evenodd">
        <g id="Get-Started---Critical-Illness" transform="translate(-188.000000, -126.000000)" fill="#FFFFFF">
            <path d="M196.718247,136.384615 C199.606893,136.384615 201.949195,134.060192 201.949195,131.192308 C201.949195,128.324423 199.606893,126 196.718247,126 C193.827857,126 191.487299,128.324423 191.487299,131.192308 C191.487299,134.060192 193.827857,136.384615 196.718247,136.384615 Z M214.153578,154.557692 L214.153578,146.769231 L205.435331,146.769231 L205.435331,154.557692 L197.588909,154.557692 L197.588909,152.781923 L203.691682,152.781923 L203.691682,145.038462 L205.436494,145.038462 L205.436494,139.846154 L199.761496,138.719423 L196.718247,143.379808 L193.673254,138.72 L188,139.846154 L188,152.537885 L191.511129,155.423077 L193.230948,171 L200.205545,171 L201.07737,163.211538 L205.435331,163.211538 L205.435331,171 L214.153578,171 L214.153578,163.211538 L222,163.211538 L222,154.557692 L214.153578,154.557692 Z" id="Fill-1"></path>
        </g>
    </g>
</svg>