<?xml version="1.0" encoding="UTF-8"?>
<svg width="46px" height="48px" viewBox="0 0 46 48" version="1.1" xmlns="http://www.w3.org/2000/svg" xmlns:xlink="http://www.w3.org/1999/xlink">
    <!-- Generator: sketchtool 51.2 (57519) - http://www.bohemiancoding.com/sketch -->
    <title>F236863A-BF1E-4083-B433-0E3ED2F11BD6</title>
    <desc>Created with sketchtool.</desc>
    <defs>
        <polygon id="path-1" points="0 0 7.59160457 0 7.59160457 7.59548771 0 7.59548771"></polygon>
        <polygon id="path-3" points="0 0 18.5849558 0 18.5849558 37.2710909 0 37.2710909"></polygon>
        <polygon id="path-5" points="0 0 11.5386257 0 11.5386257 20.0725732 0 20.0725732"></polygon>
    </defs>
    <g id="Web-Direct" stroke="none" stroke-width="1" fill="none" fill-rule="evenodd">
        <g id="Get-Started---Long-Term-Care" transform="translate(-553.000000, -122.000000)">
            <g id="Group-2" transform="translate(516.000000, 103.000000)">
                <g id="Group" transform="translate(37.000000, 19.000000)">
                    <path d="M29.5650322,10.9759001 C31.7607682,11.2163176 33.7358964,9.63076806 33.9758934,7.43512659 C34.2163213,5.23948511 32.6311344,3.26487269 30.4353985,3.02402427 C28.2396626,2.78403755 26.2645344,4.36915627 26.0241064,6.56479774 C25.7836785,8.76043922 27.3688654,10.7354825 29.5650322,10.9759001" id="Fill-1" fill="#FFFFFF"></path>
                    <g id="Group-5" transform="translate(1.000000, 0.000000)">
                        <mask id="mask-2" fill="white">
                            <use xlink:href="#path-1"></use>
                        </mask>
                        <g id="Clip-4"></g>
                        <path d="M3.38303937,7.57299248 C5.46668423,7.80126521 7.3409833,6.29621976 7.56872863,4.21108339 C7.79688283,2.12635612 6.29261881,0.251492483 4.20897395,0.0228106649 C2.12532909,-0.205052972 0.251030028,1.29999248 0.0228758227,3.38471976 C-0.205278383,5.46944703 1.29898564,7.34471976 3.38303937,7.57299248" id="Fill-3" fill="#FFFFFF" mask="url(#mask-2)"></path>
                    </g>
                    <path d="M29.2178622,18.9069726 L35.3052343,25.3371137 C36.1251179,26.2031691 37.4833004,26.2321798 38.3390144,25.4028144 C39.1943068,24.5730225 39.2233926,23.1984262 38.4039306,22.3323709 L28.3478161,11.7110338 L28.3436007,11.7153001 C27.5477446,10.8031689 26.4311011,10.173039 25.1420502,10.0305451 C22.3936486,9.72593257 19.9217734,11.7340718 19.6207981,14.515688 L18,29.5010055 L20.3610118,29.7625286 L21.498732,46 L26.504448,46 L26.504448,30.4434273 L27.9528387,30.6038395 L29.2178622,18.9069726 Z" id="Fill-6" fill="#FFFFFF"></path>
                    <g id="Group-10" transform="translate(0.000000, 10.000000)">
                        <mask id="mask-4" fill="white">
                            <use xlink:href="#path-3"></use>
                        </mask>
                        <g id="Clip-9"></g>
                        <path d="M18.262036,9.66106818 C18.8951843,8.62556818 18.5693309,7.27268182 17.5343685,6.63920455 L7.36471963,0.846363636 C6.60468263,0.314363636 5.68193471,0 4.68408943,0 C2.09711513,0 0,2.09820455 0,4.68609091 L0,18.4977955 L2.12473715,18.4977955 L2.94217614,37.2710909 L7.782071,37.2710909 L7.782071,18.4977955 L9.36774727,18.4977955 L9.36774727,7.04338636 L15.2417413,10.3895455 C16.2767037,11.0225909 17.6288876,10.6965682 18.262036,9.66106818" id="Fill-8" fill="#FFFFFF" mask="url(#mask-4)"></path>
                    </g>
                    <g id="Group-13" transform="translate(34.000000, 27.000000)">
                        <mask id="mask-6" fill="white">
                            <use xlink:href="#path-5"></use>
                        </mask>
                        <g id="Clip-12"></g>
                        <path d="M2.17582838,5.64508636 L2.2855565,3.25466591 C2.33149958,2.24695227 3.18791419,1.45744773 4.23612999,1.45744773 L7.30271878,1.45744773 C8.35093458,1.45744773 9.20734919,2.24695227 9.25373832,3.25466591 L9.36346644,5.64508636 L2.17582838,5.64508636 Z M10.0267417,20.0726591 L11.5388488,20.0082273 L10.7658454,3.19023409 C10.6828802,1.40117727 9.16229822,0 7.30271878,0 L4.23612999,0 C2.37565845,0 0.855076466,1.40117727 0.773449448,3.19023409 L0,20.0082273 L1.51210705,20.0726591 L2.10892099,7.10253409 L9.43081988,7.10253409 L10.0267417,20.0726591 Z" id="Fill-11" fill="#FFFFFF" mask="url(#mask-6)"></path>
                    </g>
                </g>
            </g>
        </g>
    </g>
</svg>