<?xml version="1.0" encoding="UTF-8"?>
<svg width="38px" height="45px" viewBox="0 0 38 45" version="1.1" xmlns="http://www.w3.org/2000/svg" xmlns:xlink="http://www.w3.org/1999/xlink">
    <!-- Generator: sketchtool 51.2 (57519) - http://www.bohemiancoding.com/sketch -->
    <title>96FC8B85-DC0B-4BFE-8029-424D4ACB10A4</title>
    <desc>Created with sketchtool.</desc>
    <defs>
        <polygon id="path-1" points="0.0369 0.0736043478 7.39772609 0.0736043478 7.39772609 7.43478261 0.0369 7.43478261"></polygon>
        <polygon id="path-3" points="0.215373913 0.194869565 9.23963478 0.194869565 9.23963478 9.21901304 0.215373913 9.21901304"></polygon>
    </defs>
    <g id="Web-Direct" stroke="none" stroke-width="1" fill="none" fill-rule="evenodd">
        <g id="Get-Started---Occupational-Disability" transform="translate(-310.000000, -127.000000)">
            <g id="Group" transform="translate(310.000000, 127.000000)">
                <path d="M10.173718,24.2608696 C4.55498275,24.2608696 0,28.8162424 0,34.4349776 C0,40.0537129 4.55498275,44.6086957 10.173718,44.6086957 C15.7928433,44.6086957 20.3478261,40.0537129 20.3478261,34.4349776 C20.3478261,28.8162424 15.7928433,24.2608696 10.173718,24.2608696" id="Fill-1" fill="#FFFFFF"></path>
                <g id="Group-5" transform="translate(30.521739, 37.565217)">
                    <mask id="mask-2" fill="white">
                        <use xlink:href="#path-1"></use>
                    </mask>
                    <g id="Clip-4"></g>
                    <path d="M3.71711739,0.0736043478 C1.68468261,0.0736043478 0.0369,1.72138696 0.0369,3.75421304 C0.0369,5.78703913 1.68468261,7.43482174 3.71711739,7.43482174 C5.74994348,7.43482174 7.39772609,5.78703913 7.39772609,3.75421304 C7.39772609,1.72138696 5.74994348,0.0736043478 3.71711739,0.0736043478" id="Fill-3" fill="#FFFFFF" mask="url(#mask-2)"></path>
                </g>
                <g id="Group-8" transform="translate(5.478261, 0.000000)">
                    <mask id="mask-4" fill="white">
                        <use xlink:href="#path-3"></use>
                    </mask>
                    <g id="Clip-7"></g>
                    <path d="M4.72750435,9.21901304 C7.21972174,9.21901304 9.23963478,7.1987087 9.23963478,4.70688261 C9.23963478,2.21505652 7.21972174,0.194752174 4.72750435,0.194752174 C2.23567826,0.194752174 0.215373913,2.21505652 0.215373913,4.70688261 C0.215373913,7.1987087 2.23567826,9.21901304 4.72750435,9.21901304" id="Fill-6" fill="#FFFFFF" mask="url(#mask-4)"></path>
                </g>
                <path d="M36.3913043,33.6374117 L35.919342,32.6460362 C35.3774302,31.5081501 34.0051632,31.0200405 32.854141,31.5559507 L32.2363851,31.8435312 L30.1665884,27.4886296 C29.1318866,25.3107902 26.9178683,23.9206882 24.4845703,23.9206882 L16.9826873,23.9206882 L16.9826873,17.5480596 L20.4349682,19.0967195 L22.1448002,19.86386 C23.6255281,20.5280155 25.3703348,19.8797935 26.0419282,18.4154646 L26.8746411,16.6005984 L27.9065921,14.3504753 C28.4571494,13.1515755 27.9195603,11.7381561 26.706841,11.1940849 C25.4945147,10.6504023 24.0660525,11.1812604 23.5154952,12.3805488 L22.7566615,14.0353026 C22.6057593,14.3640771 22.2143567,14.5094218 21.8819002,14.3605795 L13.4003318,10.5555785 C12.4607298,10.0628054 11.3902673,9.7826087 10.2522132,9.7826087 C6.53506752,9.7826087 3.52173913,12.7625645 3.52173913,16.4385429 L3.52173913,24.8522159 C5.42452161,23.5219617 7.74503597,22.7381105 10.2522132,22.7381105 C15.2422033,22.7381105 19.49851,25.8338758 21.1702234,30.1883888 L22.4418889,30.1883888 C23.6632536,30.1883888 24.7749784,30.8855772 25.2956696,31.9783831 L27.955714,37.5652174 L33.6896047,34.8953821 L36.3913043,33.6374117 Z" id="Fill-9" fill="#FFFFFF"></path>
            </g>
        </g>
    </g>
</svg>