<?xml version="1.0" encoding="UTF-8"?>
<svg width="49px" height="45px" viewBox="0 0 49 45" version="1.1" xmlns="http://www.w3.org/2000/svg" xmlns:xlink="http://www.w3.org/1999/xlink">
    <!-- Generator: sketchtool 51.2 (57519) - http://www.bohemiancoding.com/sketch -->
    <title>C5CB26A0-5DD6-4F97-B62E-C4A9790AFD60</title>
    <desc>Created with sketchtool.</desc>
    <defs></defs>
    <g id="Web-Direct" stroke="none" stroke-width="1" fill="none" fill-rule="evenodd">
        <g id="Get-Started---Retirement" transform="translate(-795.000000, -122.000000)" fill="#FFFFFF">
            <g id="Group-5" transform="translate(762.000000, 103.000000)">
                <path d="M49.0878285,56.453535 C48.8090387,55.8168957 48.4848936,55.0367004 48.1499297,54.1345866 C47.6664167,52.8392543 47.1537764,51.3029978 46.7143704,49.6277625 C46.4867614,48.7913931 46.2916086,47.9188227 46.1064422,47.0287759 C46.085637,46.9243338 46.0685768,46.817395 46.0481877,46.7121207 C46.6677667,47.0470845 47.3268757,47.2984114 47.9256496,47.4835778 C48.8477364,50.7699684 54.1717891,53.8853402 59.3576952,53.8853402 C64.4150251,53.8853402 69.6009312,50.9226786 70.710681,47.7278309 C71.1413488,47.6054963 71.6398415,47.4153367 72.1308444,47.1273926 C72.2232196,49.5807427 71.9956106,51.9928985 71.6943512,53.8121059 C71.5316545,54.8261517 71.3477364,55.65836 71.2108381,56.2288388 C71.1529997,56.4672665 71.1034833,56.6578422 71.0652017,56.7980693 C67.618611,56.017874 63.5695014,55.5680654 59.2366089,55.5680654 C55.5886237,55.5680654 52.1428652,55.8872173 49.0878285,56.453535 Z M81.3596185,62.0405655 C80.3409955,60.4531282 78.1085967,59.0408707 75.0498151,57.9427718 C75.0585533,57.8970004 75.0689559,57.8429068 75.0822712,57.7730013 C75.1155595,57.5861705 75.1592505,57.3215283 75.2075186,56.9865645 C75.3028064,56.3178851 75.4188995,55.3733286 75.492966,54.2394448 C75.6502534,51.975006 75.6377703,48.9395262 75.1471835,45.9427441 C75.0244327,45.1945888 74.8837895,44.4489301 74.7032003,43.7224123 C74.5321815,42.9946461 74.3266261,42.2860207 74.1048425,41.607771 C73.8818107,40.9295212 73.6371415,40.2833114 73.379573,39.6803765 C73.1190918,39.079106 72.8590267,38.5165332 72.5831497,38.0138794 C72.3251651,37.5037357 72.0409659,37.0597526 71.8046188,36.6607087 C71.5495469,36.2716513 71.3211057,35.9366874 71.1309461,35.663307 C71.1018189,35.6246093 71.0751882,35.5900727 71.0477253,35.5538716 L71.206261,35.5297376 C71.398085,35.5031069 71.6003116,35.4752279 71.8150214,35.4552549 C72.0368049,35.4319531 72.32891,35.4044902 72.6305855,35.3961681 C72.7171352,35.3920071 72.8032688,35.3920071 72.8889862,35.3920071 L72.9318449,35.3920071 C73.0446092,35.3920071 73.1507157,35.3462356 73.2281111,35.2680081 C73.299681,35.3533094 73.4024587,35.4069869 73.5139746,35.4161411 C73.7249395,35.4332014 73.9288305,35.4681542 74.1318893,35.5047713 C74.1805735,35.5122612 74.2288416,35.5218316 74.2754453,35.5322342 C74.3815518,35.5572005 74.485994,35.5879922 74.5908522,35.6187839 C74.6611738,35.6395891 74.7314954,35.6603943 74.7656159,35.6678842 L75.0460701,35.7702458 C75.1871295,35.8214266 75.3440007,35.7922993 75.4571811,35.6974276 C75.4784024,35.7236421 75.5004559,35.7519372 75.5225094,35.7823128 C75.5674487,35.8397352 75.6098913,35.8984059 75.6698103,35.9816267 C75.7072597,36.0336397 75.7788296,36.0873171 75.8354197,36.1176927 C75.8716208,36.1368335 75.9090702,36.1538938 75.9465195,36.170538 C75.9714858,36.1813567 75.9960359,36.1917593 76.0089352,36.1992492 C76.0584516,36.2292087 76.1100485,36.2575037 76.1616454,36.2849666 L76.2199,36.3165905 C76.2752418,36.3469661 76.3326642,36.3760934 76.4175494,36.4185361 C76.4820456,36.4588982 76.5465417,36.4971797 76.6022997,36.5283876 C76.6609704,36.5637564 76.7213055,36.5966286 76.7816406,36.6295009 C76.8494656,36.6665341 76.9177066,36.7031513 76.995102,36.7551643 C77.0325514,36.7784661 77.070833,36.8005197 77.1091146,36.8225732 L77.1673691,36.8562776 C77.3125895,36.9419951 77.4919304,36.9170288 77.6267481,36.8146672 C77.7216199,36.7430973 77.7769617,36.6278364 77.7865321,36.5092468 C77.8655919,36.6440645 77.9396584,36.7801306 78.0054029,36.9116195 C78.0927848,37.0822222 78.1560326,37.2324358 78.2001396,37.3402068 L78.585036,37.1816711 L78.2163677,37.3822333 C78.2504882,37.4700313 78.3441117,37.5619903 78.425252,37.6098423 L79.0851932,37.9830877 C79.4430428,38.180321 79.6939536,38.2826827 79.7047723,38.2872598 C79.7551209,38.3072328 79.8083822,38.3176354 79.8612274,38.3176354 C79.9336296,38.3176354 80.0051995,38.2989107 80.0692795,38.2618775 C80.1803793,38.1982135 80.2556942,38.0862815 80.2731705,37.9589536 C80.2773316,37.9306586 80.3118682,37.6697612 80.298969,37.2503283 C80.2956402,36.9898471 80.2694256,36.7264531 80.2224058,36.4705491 C80.1708089,36.174699 80.1063128,35.8538827 79.9864748,35.5180867 C79.9298846,35.3479001 79.8678851,35.171888 79.7863287,34.9779835 C79.7060206,34.8057163 79.6186387,34.628456 79.5287602,34.4595177 C79.4376334,34.2743513 79.3223726,34.1054131 79.2112727,33.9418841 L79.17632,33.8902872 C79.1139044,33.7983282 79.0489921,33.7063692 78.9678518,33.5973499 C78.8942014,33.5078875 78.8188865,33.418009 78.741075,33.3318754 L78.6873976,33.2711242 C78.6274786,33.2032992 78.5667274,33.1350582 78.500983,33.0659849 C78.4269164,32.9898378 78.3461922,32.9161874 78.2646358,32.842953 L77.9234304,32.5462708 C77.8506122,32.491345 77.7744651,32.4380837 77.6979019,32.3844063 L77.6117684,32.3236551 C77.2081473,32.0348788 76.7050774,31.7843841 76.0979815,31.5730032 C75.9527611,31.5297283 75.8058763,31.4906145 75.6577433,31.4560779 C75.2329009,31.3578773 74.845924,31.3100253 74.4755914,31.3100253 L74.3961155,31.3108575 C74.0990171,31.3121059 73.8056637,31.3374882 73.5239611,31.3828436 C73.5863768,31.3071126 73.62341,31.212657 73.6217456,31.112792 C73.6529534,31.112792 73.6854096,31.1136242 73.7291005,31.1157047 C73.8035831,31.116953 73.8772336,31.1215302 73.9758503,31.1273556 C74.0382659,31.132765 74.1277283,31.1098792 74.1872312,31.0844969 C74.2242644,31.0686849 74.2600494,31.0512086 74.2962505,31.0329 C74.3203845,31.0208329 74.3441024,31.0079337 74.3607466,31.0016922 C74.4177529,30.9813031 74.4739269,30.9580012 74.5305171,30.9346994 L74.5829462,30.913062 C74.6416169,30.8897601 74.6994554,30.8639617 74.7872534,30.8240157 C74.8592394,30.7998816 74.9299771,30.7740832 74.98948,30.7499491 C75.0539761,30.7274795 75.1180562,30.701265 75.1817201,30.6754665 C75.2528739,30.6459231 75.3240277,30.6159636 75.4126579,30.5893329 C75.4592616,30.5731049 75.5046169,30.5556285 75.5499723,30.5385682 L75.6028175,30.5185952 C75.7609371,30.4590923 75.8520639,30.3034694 75.8574733,30.1349472 C75.8608021,30.0171897 75.8071246,29.902345 75.7214072,29.8203725 C75.876614,29.8440904 76.0293243,29.8728016 76.1732963,29.9052577 L76.2494434,29.9219019 C76.4029858,29.9576868 76.531562,29.9955523 76.6272659,30.0242635 L76.7487684,29.6264679 L76.6726213,30.0388271 C76.7612515,30.0679544 76.8906599,30.0529747 76.9776256,30.0209347 L77.6858349,29.7446415 C78.0644897,29.5919313 78.3029174,29.4621068 78.3124878,29.4566974 C78.425252,29.3946979 78.5030635,29.2852625 78.5234526,29.1583507 C78.5442578,29.0318551 78.505144,28.9028628 78.4177621,28.8088233 C78.3986213,28.7876019 78.217616,28.5957779 77.8847327,28.3411222 C77.6800095,28.1792577 77.4594743,28.032789 77.2314492,27.9079578 C76.9688875,27.7606569 76.6788629,27.6075306 76.3443151,27.4881087 C76.1770412,27.4252769 76.0010292,27.3624452 75.7983865,27.3025262 C75.7218233,27.2829693 75.6435957,27.2638285 75.5637037,27.2451038 C75.4521878,27.2197215 75.3377592,27.1947552 75.2345653,27.1747822 C75.0352514,27.1290108 74.8334409,27.1115344 74.637872,27.0944741 L74.5708792,27.0882326 C74.4601955,27.0786622 74.3482635,27.0707562 74.2126135,27.0649307 C74.0973527,27.0653468 73.9800113,27.0674274 73.8635021,27.0728367 L73.7786169,27.0761656 C73.6891545,27.0799105 73.5988599,27.0836554 73.5056526,27.0907292 C73.4012104,27.0998835 73.2938555,27.1161116 73.1869168,27.1327557 L72.7371082,27.2101511 C72.6488941,27.2317885 72.5602639,27.2571709 72.4712176,27.2821371 L72.3684399,27.3112644 C72.1295961,27.3765928 71.8828464,27.4668874 71.6273584,27.5821482 C71.6385932,27.5405378 71.6460831,27.5097461 71.6469153,27.5068334 C71.6756265,27.381586 71.6452509,27.2505132 71.5641106,27.1510643 C71.4829703,27.0516154 71.3714544,27.0033473 71.2324756,26.9975219 C71.2112543,26.997938 71.0169336,27.0033473 70.719003,27.0603536 C70.5321723,27.0932258 70.3453415,27.1427422 70.167665,27.2064062 C69.9629418,27.2771439 69.7411583,27.3599486 69.5147976,27.4839476 C69.4007851,27.5434505 69.2834437,27.6075306 69.1511226,27.6903353 C69.0383584,27.7664823 68.9230975,27.848871 68.8178231,27.928763 C68.693408,28.016977 68.5868853,28.1176743 68.4836915,28.2150426 L68.4474905,28.2487471 C68.3900681,28.3032567 68.3334779,28.3590147 68.2598275,28.4347456 C68.2053178,28.4967451 68.1508082,28.559993 68.0983791,28.6249052 L68.0600975,28.6715089 C68.0197354,28.7206092 67.9789572,28.7705417 67.938179,28.8242191 C67.890327,28.8887153 67.8449716,28.9586208 67.7796433,29.0601502 L67.6319263,29.3002423 C67.6011346,29.3580807 67.5720073,29.4175836 67.54288,29.4779187 L67.5104239,29.5444954 C67.4854576,29.5944279 67.4634041,29.6489375 67.4405184,29.7021989 L67.1729634,29.6605885 C67.0893265,29.6510181 67.0056896,29.6410316 66.9203882,29.6368705 C66.8583887,29.63479 66.7959731,29.6343739 66.7343896,29.6339578 L66.6228737,29.6331256 C66.5538004,29.6331256 66.4855594,29.63479 66.3956809,29.6381188 C66.3145405,29.6451926 66.2342324,29.6530986 66.1560049,29.6635012 L66.1114817,29.6689105 C65.9695902,29.6863869 65.8231215,29.7046955 65.6883038,29.7408966 C65.5464123,29.774601 65.4099301,29.8112182 65.265542,29.8540769 C65.1332209,29.8977678 65.0088057,29.9477003 64.8968737,29.9951362 C64.6775868,30.0825181 64.4924205,30.1869602 64.3717502,30.2576979 C64.298932,30.3005567 64.2460868,30.3650528 64.211134,30.4374549 C64.2040603,30.437871 64.1978187,30.437871 64.1907449,30.4382871 C63.5740786,30.5194274 63.0302305,30.6617351 62.5779252,30.8618812 L62.4955366,30.89725 C62.4044098,30.9359477 62.313283,30.9754776 62.1992705,31.0304033 L61.8276894,31.2397037 C61.734066,31.2942134 61.6408587,31.3491391 61.5505641,31.4098903 C61.4731687,31.4631517 61.39827,31.5193257 61.3242034,31.5750837 L61.2655327,31.6187746 C61.170661,31.688264 61.0782859,31.7610822 60.9713471,31.8476319 C60.8864618,31.9233629 60.8036571,32.0003421 60.7250134,32.0773214 L60.6804903,32.119764 C60.5381827,32.2574945 60.3904657,32.3998021 60.2714599,32.5529284 C60.1408032,32.7106319 60.0188847,32.8662549 59.896134,33.0314482 C59.7862825,33.1912322 59.6893302,33.3510162 59.6040288,33.4991493 C59.4142853,33.8103952 59.2852931,34.1112385 59.1758577,34.3871156 C59.0764088,34.6317848 58.997349,34.8847761 58.9420071,35.131942 C58.8425582,35.5463817 58.8234174,35.8089435 58.8213369,35.8380708 C58.8130148,35.9658147 58.8637795,36.0902299 58.9594835,36.1755312 C59.0364628,36.2441884 59.1354956,36.2812217 59.2366089,36.2812217 C59.261159,36.2812217 59.2861253,36.2791412 59.3110915,36.274564 C59.3223263,36.2724835 59.5890491,36.2233832 59.9839319,36.1022969 L60.7370804,35.8597082 C60.8248784,35.8293326 60.9001933,35.7714941 60.9513741,35.6936826 L60.9771725,35.6537366 C61.0425009,35.5572005 61.134876,35.423631 61.2580429,35.2709208 C61.3437603,35.1619015 61.4394643,35.0487212 61.5401615,34.9376214 C61.5235173,35.0528822 61.5559734,35.1727202 61.634201,35.2655114 C61.7444686,35.3953359 61.9233934,35.4469329 62.0848418,35.3911749 L62.1422642,35.3724502 C62.1867873,35.3574705 62.2313105,35.3429068 62.2908134,35.3212694 C62.3623833,35.291726 62.4360337,35.2700886 62.5096842,35.2480351 C62.5758447,35.2280621 62.6420053,35.207673 62.6940183,35.1889483 C62.7743264,35.1635659 62.8529701,35.1365192 62.9108086,35.1148817 C62.9823785,35.096157 63.0539484,35.0774324 63.1234378,35.0557949 L63.1833568,35.0379025 C63.2411953,35.0204261 63.2994498,35.0029497 63.3427247,34.9871378 C63.3685231,34.9788157 63.3947377,34.9738224 63.4209523,34.967997 C63.4613144,34.9588427 63.5016765,34.9501045 63.5536895,34.9355408 C63.6194339,34.9184806 63.6801851,34.8860244 63.7305337,34.8398369 L63.7621577,34.8111257 C63.8133385,34.7649381 63.8641032,34.7179184 63.9256866,34.6654892 C63.9489884,34.644684 63.9731225,34.6242949 63.9976726,34.6043219 C64.0883833,34.7199989 64.2365164,34.7836628 64.3842334,34.7591127 L64.6413857,34.720415 C64.7167006,34.716254 64.7915993,34.7100124 64.8664981,34.7041869 C64.8719074,34.7037708 64.8777329,34.7037708 64.8835584,34.7033547 C64.4154412,34.912239 63.9448274,35.223901 63.5253944,35.6025558 C63.1375853,35.942929 62.7830646,36.3827511 62.4314566,36.9652969 C62.1360226,37.51289 61.9333799,38.0371812 61.8301861,38.5219426 L61.8073003,38.6243042 C61.7869112,38.7162632 61.7665221,38.8078061 61.7457169,38.9259797 L61.6978649,39.3454127 C61.6870462,39.4548481 61.6766436,39.5651157 61.6737309,39.674135 C61.6712343,39.766094 61.6728987,39.8576369 61.6745631,39.9483476 L61.6758114,40.0282396 C61.6766436,40.1464132 61.6812208,40.2637546 61.6887107,40.4010689 C61.7007777,40.5138332 61.7149252,40.6257652 61.7307372,40.7347845 L61.7407237,40.8017772 C61.7686027,40.9956818 61.7973138,41.1966601 61.8509913,41.3805781 C61.9021721,41.5786437 61.9570978,41.7692194 62.0190974,41.9647883 C62.0844257,42.1482903 62.1572439,42.3201413 62.2267333,42.4757642 C62.3686248,42.8128086 62.5375631,43.0928467 62.696931,43.3425092 C62.8371581,43.5676215 62.9956938,43.7802508 63.1633838,43.9683299 C63.4413414,44.2916428 63.6423197,44.4609972 63.6643732,44.4793058 C63.7401041,44.5421375 63.8341437,44.5754258 63.9302637,44.5754258 C63.9598071,44.5754258 63.9897666,44.572097 64.01931,44.5654393 C64.1449735,44.5379764 64.2506639,44.4543395 64.3055897,44.3386625 C64.3105829,44.3282599 64.4270921,44.0823424 64.5594132,43.6924528 L64.8040825,42.9409687 C64.8311292,42.8540029 64.8094918,42.7100309 64.778284,42.6243134 C64.7379219,42.5152941 64.6838284,42.3621678 64.6318153,42.1720082 C64.5939499,42.0388549 64.5581649,41.8952989 64.5269571,41.7479981 C64.6118423,41.8303867 64.7300159,41.8765743 64.8515183,41.863675 C65.0212888,41.8495275 65.1652609,41.7330183 65.2147773,41.5699055 L65.2351664,41.5049932 C65.2484817,41.4633828 65.2613809,41.4217724 65.2771929,41.3647661 C65.2955015,41.2894513 65.3212999,41.2170492 65.3462662,41.1438148 C65.3687358,41.0789026 65.3912054,41.0135742 65.4066013,40.9598968 C65.4328158,40.880837 65.4565338,40.800945 65.4752585,40.7356167 C65.501473,40.6677917 65.5272715,40.6003828 65.549325,40.5350545 L65.5688819,40.4792965 C65.589271,40.4210419 65.6096601,40.3627873 65.6225593,40.3161837 C65.6308814,40.2903852 65.6425323,40.265419 65.653351,40.2408688 C65.6695791,40.2034195 65.6853911,40.1659701 65.7074446,40.1064672 C65.7299142,40.0452999 65.7378202,39.9799715 65.7303303,39.9154754 L65.7253371,39.8717844 C65.7174311,39.8039595 65.7095251,39.7361345 65.7032835,39.6549942 C65.6999547,39.6237864 65.6974581,39.5925786 65.6957937,39.5613707 C65.8430945,39.5555453 65.9783284,39.4719083 66.0478178,39.338755 L66.1672397,39.106985 C66.2067696,39.0445694 66.2454673,38.9813215 66.2833327,38.9176576 C66.3698824,38.7749339 66.4514388,38.6405322 66.5508877,38.5165332 C66.6769673,38.3530043 66.8009663,38.1932203 66.9403612,38.0438389 C67.0031929,37.97643 67.0364813,37.8495182 67.043555,37.7409151 C67.1583998,37.7496532 67.2707479,37.7105395 67.3556331,37.6318958 C67.4288675,37.5644869 67.5025179,37.497078 67.586571,37.4271725 C67.8071062,37.2365968 68.0417889,37.0593365 68.2252908,36.9236865 C68.3950613,36.7955264 68.5644157,36.6790173 68.7250319,36.5691658 L69.0866264,36.3274092 C69.1652701,36.4534888 69.2655512,36.6145211 69.3862214,36.8084256 C69.528529,37.069323 69.7016284,37.3859782 69.899694,37.7492371 C70.0752899,38.1253953 70.2904158,38.5385867 70.4759982,39.0141938 C70.6782248,39.4806465 70.8613107,40.0032734 71.042316,40.5579402 C71.2204085,41.1138553 71.3835214,41.7088843 71.5249968,42.33096 C71.6648078,42.9538679 71.7892229,43.6021582 71.8799336,44.2683409 C71.949423,44.7273038 71.997275,45.1962532 72.0376371,45.666867 C71.5449698,46.0958704 70.9649206,46.3509422 70.4755821,46.4994914 L49.0437215,46.4994914 C47.9897296,46.2444196 46.6419683,45.7738058 45.7614919,45.0273149 C45.726123,44.7897195 45.686177,44.5529562 45.6558014,44.3145285 C45.5983791,43.8576461 45.5376279,43.4003477 45.502259,42.9438814 C45.454407,42.4869991 45.4219509,42.0317811 45.4007296,41.579892 C45.3462199,40.6756977 45.3399784,39.7852348 45.3616158,38.9247314 C45.3853337,38.0646441 45.4444205,37.2345163 45.534299,36.4518244 C45.5659229,36.0577738 45.6387412,35.6824478 45.6895059,35.3150278 C45.7373579,34.9463596 45.8085117,34.5959999 45.8784172,34.2597877 C45.9990874,33.5815379 46.1746833,32.9777708 46.3086689,32.4343388 C46.468869,31.900061 46.6165859,31.4352727 46.7410011,31.0537052 C46.8754027,30.6983522 46.9810932,30.417898 47.0568241,30.218168 L47.9169114,30.5618701 C48.1557552,30.6604867 48.4070821,30.7649289 48.6658989,30.8864313 C48.9413598,31.0120948 49.3008738,31.1802008 49.6479047,31.3716088 C49.7685749,31.4352727 49.8850841,31.5039299 50.0011771,31.5725871 C50.1239279,31.6454053 50.2766381,31.6379154 50.403966,31.572171 C50.4268517,31.5601039 50.4484891,31.5463725 50.4684621,31.5301444 C50.4726231,31.5596878 50.4763681,31.5888151 50.4792808,31.6183585 C50.4796969,31.6225196 50.4830257,31.6558079 50.4834418,31.6599689 C50.483858,31.6637139 50.488019,31.7036599 50.4884351,31.7074048 C50.5025826,31.8247462 50.5658305,31.9308527 50.6623666,31.9986777 C50.8941367,32.1617905 51.1096786,32.3427959 51.3181468,32.5217206 C51.4775147,32.6515451 51.6231511,32.806752 51.7771097,32.970697 C51.8445185,33.042683 51.9123435,33.1150852 51.9552022,33.1558634 L52.2081936,33.462116 C52.3167968,33.5936049 52.4948893,33.6452019 52.65717,33.5927727 C52.6829684,33.5844507 52.7079347,33.5736319 52.7308204,33.5607327 C52.7478807,33.657685 52.7645248,33.7558856 52.7757596,33.8657371 C52.7886589,33.9585283 52.796981,34.0517356 52.8061352,34.1445268 L52.8111285,34.1998687 C52.8173701,34.2639487 52.8556516,34.352995 52.8897722,34.4075047 C52.9164028,34.4507795 52.9459462,34.4923899 52.9754896,34.5344164 C52.9992076,34.5672887 53.0233416,34.6001609 53.0379053,34.6255432 C53.0741063,34.6933682 53.1144684,34.7595288 53.1548305,34.8256893 L53.1972732,34.8960109 C53.2422124,34.9725741 53.2908966,35.0474729 53.3399969,35.1227877 L53.3562249,35.147754 C53.4024125,35.2368003 53.4506806,35.3250143 53.4960359,35.4024097 C53.5384786,35.4802212 53.58425,35.5567843 53.6300215,35.6333475 C53.6849472,35.7253065 53.7411213,35.8172655 53.7943826,35.9279493 C53.8210133,35.9782979 53.8493084,36.0278143 53.8771873,36.0773306 L53.9221266,36.1572226 C54.0049313,36.3074362 54.1763662,36.374429 54.3453045,36.3515433 C54.5154911,36.3290737 54.6586309,36.1880144 54.6994092,36.0215727 L54.7160533,35.958741 C54.7651536,35.7577627 54.8071801,35.555536 54.8421329,35.3562221 C54.8608576,35.5588649 54.8725085,35.7640042 54.8783339,35.9695597 C54.8874882,36.2712352 54.8820789,36.5770717 54.862522,36.8600226 C54.8483744,37.1067723 54.8209116,37.3185693 54.7971936,37.4879237 L54.7859588,37.5565809 C54.7709791,37.6477077 54.7876232,37.7417473 54.8321464,37.8228876 L55.3597664,38.7379006 C55.6331469,39.1972796 55.8478566,39.4781499 55.8565948,39.4898008 C55.9348224,39.5917463 56.0550765,39.6516653 56.1832366,39.6529137 C56.1844849,39.6529137 56.1857332,39.6529137 56.1869815,39.6529137 C56.3138933,39.6529137 56.4337313,39.5946591 56.5127911,39.4952102 C56.5219454,39.4839754 56.7395678,39.2072661 57.007955,38.7175115 C57.1748128,38.4241581 57.3192009,38.1112478 57.4361262,37.7912637 C57.5742728,37.4225954 57.7144999,37.0173099 57.8018817,36.5600115 C57.8426599,36.3681875 57.894673,36.1126995 57.9333706,35.8218427 C57.9575047,35.5725963 57.9766455,35.3121151 57.9870481,35.056211 C58.0070211,34.7915688 57.9891286,34.5244299 57.9716522,34.2656132 L57.966659,34.1857212 C57.9575047,34.0400847 57.9450216,33.8927838 57.9262969,33.721765 C57.9025789,33.5719675 57.8767805,33.4205056 57.8459888,33.2694598 L57.8235192,33.1546151 C57.8014656,33.0410186 57.778996,32.9261739 57.7515331,32.8088325 C57.7174126,32.6702698 57.6728894,32.5287944 57.6283663,32.3877351 L57.4461127,31.8451353 C57.399509,31.7327872 57.3483282,31.620439 57.2967313,31.5080909 L57.239725,31.3824275 C56.975915,30.789479 56.5747906,30.174061 56.0342713,29.5390861 C55.4442356,28.9086883 54.8720924,28.4426516 54.2916271,28.1172582 C53.6425046,27.7398517 52.9505234,27.4673035 52.2959916,27.3291569 C52.0513223,27.273815 51.8029081,27.2363657 51.5557423,27.2076545 C51.6073392,27.1947552 51.6597683,27.1806077 51.7113652,27.1681246 C51.9098469,27.1148632 52.1212278,27.0874004 52.3446757,27.0586892 C52.4424602,27.0462061 52.5402447,27.0337229 52.5997476,27.0224881 L52.9946304,26.9975219 C53.164817,26.9862871 53.3108696,26.8726906 53.3637148,26.71041 C53.3720369,26.6841954 53.3778624,26.6575648 53.3811912,26.6309341 C53.4694053,26.6737928 53.5592838,26.718316 53.6537394,26.7728256 C53.7315509,26.814436 53.8076979,26.8593753 53.883845,26.9038984 L53.9466767,26.9405156 C54.0016025,26.9721395 54.095642,26.9933608 54.159306,26.997938 C54.2504328,27.0041795 54.355291,26.997938 54.4239482,27.0054278 C54.5017597,27.0162466 54.5808195,27.022072 54.6598793,27.0283136 L54.7360263,27.0345551 C54.8229921,27.0428772 54.9116223,27.0474544 55.0335408,27.0528637 C55.1325736,27.0678435 55.2324386,27.0803266 55.321901,27.0890648 C55.4096989,27.1007157 55.497913,27.1077895 55.5865432,27.1156954 C55.6938981,27.1244336 55.8008369,27.1331718 55.921091,27.1543931 C55.9797616,27.1627152 56.0376001,27.1693729 56.0958547,27.1751983 L56.1836527,27.1856009 C56.3559198,27.2043256 56.5077978,27.1073734 56.5889381,26.9567437 C56.6700784,26.8065301 56.640535,26.6084645 56.5298513,26.4778078 L56.4869926,26.4257948 C56.3530071,26.2689235 56.2131961,26.1157972 56.0717207,25.9701607 C56.2473166,26.0737706 56.420832,26.1844543 56.5906025,26.3005474 C56.8415133,26.4703179 57.0865987,26.6538198 57.303389,26.834409 C57.495213,26.9908642 57.651252,27.1369168 57.7781638,27.2596675 L58.0669401,26.9596564 L57.8226869,27.3041906 C57.8888475,27.3703512 57.9753972,27.4123777 58.0686045,27.4231964 L59.1163548,27.5305513 C59.4941773,27.5646718 59.7825375,27.5696651 59.9206841,27.5696651 L60.0176364,27.5688329 C60.1457964,27.5646718 60.2648022,27.5022562 60.3409493,27.3986463 C60.4166802,27.2950363 60.4408143,27.1627152 60.4058615,27.0395484 C60.4021166,27.0254008 60.3051643,26.6871082 60.0650722,26.183206 C59.9248451,25.8748729 59.7554907,25.5748618 59.564915,25.2931592 C59.3460443,24.9648531 59.0992945,24.6132451 58.7809748,24.2757846 C58.6390833,24.1193294 58.4676484,23.933747 58.2600124,23.7377619 C58.0715172,23.5717364 57.8717872,23.4040464 57.6708089,23.2455107 C57.4677501,23.074908 57.2413894,22.9330165 57.0221025,22.7961182 L56.9530293,22.7528434 C56.8294463,22.6746158 56.7025346,22.5980526 56.5527371,22.5131674 C56.4179193,22.4453424 56.2801888,22.3775174 56.1391295,22.3134374 L56.0271975,22.2618405 C55.9240037,22.2144046 55.8199776,22.1657204 55.7109584,22.1207812 C55.5807178,22.0675198 55.4429873,22.0221645 55.3052568,21.976393 L54.7493417,21.8032937 C54.6249265,21.7741664 54.4975986,21.7487841 54.3694386,21.7234017 L54.2550099,21.700516 C53.6216994,21.5673626 52.9276377,21.528665 52.0546511,21.5977382 C52.0246916,21.6014832 51.9984771,21.6073086 51.9689337,21.6114697 C51.9206656,21.517014 51.8416058,21.4400348 51.7354993,21.4042498 C51.5636482,21.3468274 51.3002543,21.2636066 51.0069009,21.2136741 C50.8425397,21.1824663 50.6702726,21.1525068 50.4738715,21.1300372 C50.2966111,21.1167218 50.1114447,21.1067353 49.9337683,21.1034065 C49.7494341,21.0921717 49.5584423,21.1075675 49.3628734,21.1246278 L49.3062832,21.1296211 C49.2022572,21.1387754 49.0973989,21.149178 48.970071,21.1658221 C48.8639645,21.1845468 48.7561935,21.205352 48.6480064,21.22907 L48.5627051,21.2477946 C48.4832292,21.2648549 48.4033372,21.2823313 48.322613,21.3035526 C48.2239963,21.3293511 48.1245474,21.3630555 48.0246824,21.3967599 L47.6327123,21.5374031 L47.5819476,21.560705 C47.5199481,21.4691621 47.4571163,21.3805319 47.391788,21.2981433 L47.3322851,21.2215801 C47.2777754,21.1512585 47.2236819,21.081353 47.1496154,20.9952194 L46.876651,20.7110203 C46.8034167,20.6373699 46.7297663,20.5641355 46.6507065,20.49423 C46.5866264,20.4388882 46.5204659,20.3860429 46.4551375,20.3336138 L46.3948024,20.2849296 C46.3082528,20.2150241 46.2208709,20.1484475 46.1168448,20.0714682 C46.0273824,20.0123814 45.9379201,19.9557912 45.849706,19.9021138 L45.8006057,19.8721543 C45.6416539,19.7747859 45.4772928,19.6740887 45.3096028,19.6016866 C45.1360873,19.5205463 44.9654846,19.4460637 44.7865599,19.3740776 C44.615541,19.311662 44.447435,19.2617295 44.2926442,19.2180386 C43.9639219,19.1194219 43.6601659,19.0736504 43.3842889,19.0395299 C43.1883038,19.0133153 42.9898221,19 42.7942532,19 C42.7422401,19 42.6927237,19.0012483 42.6506972,19.0024966 C42.250405,19.0099865 42.006568,19.0549257 41.9799373,19.0595029 C41.8538578,19.0836369 41.7460868,19.1643611 41.6874161,19.2783737 C41.6287454,19.3923862 41.6262488,19.5276201 41.6799262,19.6437131 C41.6836712,19.651203 41.7494156,19.791014 41.8713341,20.0040593 C41.4094585,19.8846374 40.9675559,19.8072421 40.556445,19.7835241 L40.4137213,19.7739537 C40.2918028,19.7660478 40.1707165,19.7577257 40.0217512,19.7543968 L39.4791514,19.7756181 C39.3310183,19.7835241 39.1824691,19.7914301 39.0368326,19.8097387 C38.9207396,19.8247184 38.8054787,19.8446914 38.6914662,19.8638322 L38.5766214,19.8833891 C38.4234951,19.9087715 38.2720332,19.9383149 38.1026788,19.9740998 C37.9587068,20.0119653 37.8163991,20.0523274 37.6765882,20.0951861 L37.5883741,20.1218168 C37.344537,20.1962994 37.0919618,20.2732787 36.8668495,20.3785531 C36.7228774,20.4401365 36.5826503,20.5025521 36.4457521,20.5670482 C36.3475515,20.6128197 36.2514314,20.6590073 36.1436604,20.7122686 C35.9197964,20.8333549 35.7113282,20.9623472 35.5207525,21.0850979 C35.1162993,21.3335121 34.7867448,21.6081408 34.4942236,21.8648771 C34.2337424,22.0891573 33.992402,22.3346587 33.7806049,22.5901467 C33.413185,23.01915 33.2317636,23.3208256 33.2242737,23.3333087 C33.1581131,23.4435763 33.1468783,23.5779779 33.1930659,23.6973998 C33.2396695,23.8172378 33.3382862,23.9087807 33.4614531,23.945814 C33.4756006,23.9495589 33.8138933,24.0510883 34.3448422,24.1442957 L35.2398822,24.2940932 L35.3817737,24.313234 C35.4758133,24.3282137 35.5719333,24.3082407 35.6534897,24.2599726 L35.7034222,24.2304292 C35.822428,24.165517 35.9826281,24.0793834 36.1765327,23.9886727 L36.277646,23.9424852 C36.5302212,23.8263921 36.8144203,23.7132118 37.1011161,23.6145951 C37.2941884,23.5476023 37.4893413,23.486435 37.6869908,23.4315093 C37.5105626,23.5359514 37.3370472,23.6466351 37.168525,23.7623121 L37.0832236,23.8230633 C36.9434126,23.9208477 36.8776682,24.0943632 36.9171981,24.2603887 C36.956728,24.4259982 37.0932101,24.5512455 37.2621484,24.5753796 L37.3466176,24.5886949 C37.4052882,24.5978492 37.464375,24.6070035 37.5376094,24.6153256 C37.6449642,24.624896 37.7506547,24.6444529 37.8563451,24.6635937 C37.9441431,24.6794056 38.031525,24.6948015 38.1068398,24.7052041 C38.2141947,24.7230966 38.3219657,24.7380763 38.3885424,24.7439018 L38.4451325,24.7559688 C38.5296017,24.7746935 38.6136547,24.7930021 38.6977077,24.8075657 L38.7834252,24.8229616 C38.8587401,24.8371091 38.9340549,24.8508405 38.9952222,24.8587465 C39.0360004,24.8654042 39.0755303,24.8762229 39.1146441,24.8866255 C39.1645766,24.8999408 39.214093,24.9124239 39.3002266,24.9294842 C39.36181,24.9415512 39.4254739,24.9386385 39.4853929,24.9224104 L39.5519696,24.9041019 C39.6385192,24.8812161 39.7250689,24.8570821 39.8245178,24.8333642 C39.9193896,24.8083979 40.0163418,24.7896732 40.1124619,24.7713646 C40.1087169,24.7979953 40.1074686,24.8250421 40.1087169,24.8520888 C40.117039,25.0231077 40.2285549,25.1708246 40.3900033,25.2257504 L40.7287121,25.3393468 C40.7811413,25.3626486 40.8339865,25.3842861 40.8868317,25.4059235 C40.3013732,25.3709707 39.6780491,25.4142456 39.0617989,25.5415734 C38.5562323,25.6385257 38.0402632,25.811625 37.4851802,26.0704418 C37.304591,26.154911 37.1269146,26.2452056 36.9350905,26.3496477 C36.2381161,26.7711612 35.6630601,27.2276275 35.226983,27.7048989 L35.1354401,27.8026834 C35.0497226,27.8946424 34.9644213,27.9861853 34.8658046,28.1010301 L34.5337535,28.5433488 C34.448036,28.6606902 34.3627347,28.7780315 34.2861715,28.8999501 C34.2229237,29.0027278 34.1634208,29.107586 34.1047501,29.2116121 L34.0531532,29.3027389 C33.9753417,29.4371405 33.9029396,29.5727905 33.8230476,29.7275812 C33.7614642,29.8636473 33.7027935,29.9997134 33.6482838,30.134115 L33.6154116,30.2148392 C33.5180432,30.4524347 33.417346,30.6983522 33.3561787,30.940941 C33.2816961,31.2001738 33.2171999,31.4531652 33.157697,31.7123981 C33.1061001,31.9841141 33.0740601,32.243347 33.0532549,32.4305938 C32.990007,32.9020398 32.9945842,33.330211 33.0091478,33.7188523 C33.017886,34.0617221 33.0557515,34.4041758 33.1206638,34.7304015 C33.2209449,35.2867328 33.3395345,35.6175356 33.3449439,35.6316831 C33.3886348,35.7523533 33.485171,35.8455606 33.6070895,35.8855066 C33.6495321,35.898822 33.692807,35.9058957 33.7360818,35.9058957 C33.8180543,35.9058957 33.8991946,35.8813456 33.9691001,35.8343258 C33.9811671,35.8260037 34.2736884,35.6279382 34.6814704,35.2750818 L35.4670751,34.5789396 C35.5365645,34.5156918 35.5831681,34.424981 35.5981479,34.3326059 L35.6068861,34.276848 C35.6393422,34.1020842 35.6805365,33.8915355 35.746281,33.6501951 C35.8161865,33.3805596 35.9077294,33.0880384 36.0121715,32.8042554 C36.0824931,32.6120152 36.1582241,32.4222717 36.2410288,32.2341927 C36.2106532,32.4364193 36.1865192,32.6411425 36.1690428,32.846698 L36.1628012,32.9494757 C36.1503181,33.1200784 36.2431093,33.2798624 36.3966518,33.3543451 C36.5501942,33.4292438 36.73328,33.4013648 36.8589435,33.286104 L36.9255202,33.226185 C36.968795,33.1879034 37.0116537,33.1492057 37.0640828,33.098441 C37.1385655,33.0210456 37.220538,32.9519723 37.3012622,32.8824829 C37.3699194,32.8242284 37.4377444,32.7655577 37.4930862,32.7135447 C37.5750587,32.6415586 37.6549507,32.5674921 37.7181986,32.5059087 C37.7955939,32.4447414 37.8725732,32.3835741 37.9445592,32.3215745 L38.0048943,32.2699776 C38.0652294,32.2187968 38.1259806,32.167616 38.1746648,32.1210123 C38.2046243,32.0943817 38.2374966,32.0710798 38.2699527,32.0473619 C38.3119792,32.0169863 38.3540057,31.9861946 38.4147569,31.935846 C38.4659377,31.8942356 38.5067159,31.8413903 38.5333466,31.7814713 L38.5574806,31.7277939 C38.5945139,31.6433248 38.6319633,31.5592717 38.678567,31.4631517 C38.7189291,31.3732732 38.7655327,31.2863074 38.8117203,31.2005899 C38.8300289,31.2205629 38.850418,31.2388715 38.8724715,31.2550996 C39.0097859,31.3557968 39.1949522,31.3628706 39.3397565,31.272576 L39.641432,31.0820003 C39.7288138,31.0374771 39.8153635,30.9908734 39.901081,30.9442698 C40.0300733,30.8747804 40.1586494,30.805291 40.2913867,30.7432915 C40.3533862,30.7141642 40.4162179,30.6871174 40.4911167,30.6588223 C40.748269,30.5543802 41.0012604,30.453683 41.2683992,30.3742071 C41.3803312,30.3409188 41.4731225,30.261859 41.5243033,30.1565846 C41.5259677,30.1532558 41.5617527,30.0750282 41.5634171,30.0712833 C41.5742358,30.0479814 41.5850545,30.0246796 41.5962893,30.0013778 C41.6108529,30.0238474 41.6274971,30.0446526 41.6466379,30.0642095 C41.7465029,30.1657389 41.8913071,30.2106782 42.0311181,30.1794703 C42.1630232,30.1515914 42.2953443,30.1228802 42.4393163,30.0995783 C42.8221321,30.0288406 43.2149345,29.9830692 43.5186905,29.9510292 C43.7953998,29.9189891 44.064203,29.8998484 44.319691,29.8815398 L45.0054306,29.842426 C44.9425989,29.9789081 44.8739417,30.1278734 44.7965464,30.2955634 C44.631353,30.6996005 44.4349518,31.1935162 44.2194099,31.7644111 C44.0309147,32.3427959 43.7941514,32.9915022 43.6094012,33.7184362 C43.5074557,34.0796146 43.4034296,34.4570211 43.3222893,34.8527361 C43.2382363,35.247619 43.1317136,35.6541527 43.0659692,36.0781629 C42.9078496,36.9228543 42.7796895,37.820391 42.6877305,38.7520482 C42.597852,39.6837054 42.5362686,40.6503153 42.525866,41.6310728 C42.5142151,42.1224918 42.5150473,42.6168236 42.5308592,43.1124036 C42.5350203,43.6096481 42.5649798,44.1056442 42.5916104,44.6028887 C42.6486167,45.5973776 42.7480656,46.5868733 42.8699841,47.5580604 C43.0006408,48.527167 43.1441968,49.4800455 43.3243699,50.3933941 C43.6689041,52.2242524 44.1012363,53.9090581 44.5227498,55.3404564 C44.7437011,56.0952694 44.9642363,56.776848 45.1693757,57.3760379 C41.2138896,58.5323914 38.3169724,60.164768 37.1131831,62.0405655 C36.5169059,62.96931 37.5829647,64 39.0917584,64 L79.3810432,64 C80.8898369,64 81.9558958,62.96931 81.3596185,62.0405655 Z" id="Fill-14"></path>
            </g>
        </g>
    </g>
</svg>