<?xml version="1.0" encoding="UTF-8"?>
<svg width="49px" height="45px" viewBox="0 0 49 45" version="1.1" xmlns="http://www.w3.org/2000/svg" xmlns:xlink="http://www.w3.org/1999/xlink">
    <!-- Generator: sketchtool 51.2 (57519) - http://www.bohemiancoding.com/sketch -->
    <title>CB49498B-1333-4235-AF65-8420E8B24D4A</title>
    <desc>Created with sketchtool.</desc>
    <defs></defs>
    <g id="Symbols" stroke="none" stroke-width="1" fill="none" fill-rule="evenodd">
        <g id="plans_selection" transform="translate(-770.000000, -22.000000)" fill="#00A7A7">
            <path d="M786.087829,59.453535 C785.809039,58.8168957 785.484894,58.0367004 785.14993,57.1345866 C784.666417,55.8392543 784.153776,54.3029978 783.71437,52.6277625 C783.486761,51.7913931 783.291609,50.9188227 783.106442,50.0287759 C783.085637,49.9243338 783.068577,49.817395 783.048188,49.7121207 C783.667767,50.0470845 784.326876,50.2984114 784.92565,50.4835778 C785.847736,53.7699684 791.171789,56.8853402 796.357695,56.8853402 C801.415025,56.8853402 806.600931,53.9226786 807.710681,50.7278309 C808.141349,50.6054963 808.639842,50.4153367 809.130844,50.1273926 C809.22322,52.5807427 808.995611,54.9928985 808.694351,56.8121059 C808.531654,57.8261517 808.347736,58.65836 808.210838,59.2288388 C808.153,59.4672665 808.103483,59.6578422 808.065202,59.7980693 C804.618611,59.017874 800.569501,58.5680654 796.236609,58.5680654 C792.588624,58.5680654 789.142865,58.8872173 786.087829,59.453535 Z M818.359618,65.0405655 C817.340996,63.4531282 815.108597,62.0408707 812.049815,60.9427718 C812.058553,60.8970004 812.068956,60.8429068 812.082271,60.7730013 C812.11556,60.5861705 812.15925,60.3215283 812.207519,59.9865645 C812.302806,59.3178851 812.418899,58.3733286 812.492966,57.2394448 C812.650253,54.975006 812.63777,51.9395262 812.147183,48.9427441 C812.024433,48.1945888 811.88379,47.4489301 811.7032,46.7224123 C811.532182,45.9946461 811.326626,45.2860207 811.104843,44.607771 C810.881811,43.9295212 810.637141,43.2833114 810.379573,42.6803765 C810.119092,42.079106 809.859027,41.5165332 809.58315,41.0138794 C809.325165,40.5037357 809.040966,40.0597526 808.804619,39.6607087 C808.549547,39.2716513 808.321106,38.9366874 808.130946,38.663307 C808.101819,38.6246093 808.075188,38.5900727 808.047725,38.5538716 L808.206261,38.5297376 C808.398085,38.5031069 808.600312,38.4752279 808.815021,38.4552549 C809.036805,38.4319531 809.32891,38.4044902 809.630586,38.3961681 C809.717135,38.3920071 809.803269,38.3920071 809.888986,38.3920071 L809.931845,38.3920071 C810.044609,38.3920071 810.150716,38.3462356 810.228111,38.2680081 C810.299681,38.3533094 810.402459,38.4069869 810.513975,38.4161411 C810.724939,38.4332014 810.92883,38.4681542 811.131889,38.5047713 C811.180574,38.5122612 811.228842,38.5218316 811.275445,38.5322342 C811.381552,38.5572005 811.485994,38.5879922 811.590852,38.6187839 C811.661174,38.6395891 811.731495,38.6603943 811.765616,38.6678842 L812.04607,38.7702458 C812.187129,38.8214266 812.344001,38.7922993 812.457181,38.6974276 C812.478402,38.7236421 812.500456,38.7519372 812.522509,38.7823128 C812.567449,38.8397352 812.609891,38.8984059 812.66981,38.9816267 C812.70726,39.0336397 812.77883,39.0873171 812.83542,39.1176927 C812.871621,39.1368335 812.90907,39.1538938 812.94652,39.170538 C812.971486,39.1813567 812.996036,39.1917593 813.008935,39.1992492 C813.058452,39.2292087 813.110048,39.2575037 813.161645,39.2849666 L813.2199,39.3165905 C813.275242,39.3469661 813.332664,39.3760934 813.417549,39.4185361 C813.482046,39.4588982 813.546542,39.4971797 813.6023,39.5283876 C813.66097,39.5637564 813.721305,39.5966286 813.781641,39.6295009 C813.849466,39.6665341 813.917707,39.7031513 813.995102,39.7551643 C814.032551,39.7784661 814.070833,39.8005197 814.109115,39.8225732 L814.167369,39.8562776 C814.312589,39.9419951 814.49193,39.9170288 814.626748,39.8146672 C814.72162,39.7430973 814.776962,39.6278364 814.786532,39.5092468 C814.865592,39.6440645 814.939658,39.7801306 815.005403,39.9116195 C815.092785,40.0822222 815.156033,40.2324358 815.20014,40.3402068 L815.585036,40.1816711 L815.216368,40.3822333 C815.250488,40.4700313 815.344112,40.5619903 815.425252,40.6098423 L816.085193,40.9830877 C816.443043,41.180321 816.693954,41.2826827 816.704772,41.2872598 C816.755121,41.3072328 816.808382,41.3176354 816.861227,41.3176354 C816.93363,41.3176354 817.005199,41.2989107 817.06928,41.2618775 C817.180379,41.1982135 817.255694,41.0862815 817.273171,40.9589536 C817.277332,40.9306586 817.311868,40.6697612 817.298969,40.2503283 C817.29564,39.9898471 817.269426,39.7264531 817.222406,39.4705491 C817.170809,39.174699 817.106313,38.8538827 816.986475,38.5180867 C816.929885,38.3479001 816.867885,38.171888 816.786329,37.9779835 C816.706021,37.8057163 816.618639,37.628456 816.52876,37.4595177 C816.437633,37.2743513 816.322373,37.1054131 816.211273,36.9418841 L816.17632,36.8902872 C816.113904,36.7983282 816.048992,36.7063692 815.967852,36.5973499 C815.894201,36.5078875 815.818887,36.418009 815.741075,36.3318754 L815.687398,36.2711242 C815.627479,36.2032992 815.566727,36.1350582 815.500983,36.0659849 C815.426916,35.9898378 815.346192,35.9161874 815.264636,35.842953 L814.92343,35.5462708 C814.850612,35.491345 814.774465,35.4380837 814.697902,35.3844063 L814.611768,35.3236551 C814.208147,35.0348788 813.705077,34.7843841 813.097981,34.5730032 C812.952761,34.5297283 812.805876,34.4906145 812.657743,34.4560779 C812.232901,34.3578773 811.845924,34.3100253 811.475591,34.3100253 L811.396115,34.3108575 C811.099017,34.3121059 810.805664,34.3374882 810.523961,34.3828436 C810.586377,34.3071126 810.62341,34.212657 810.621746,34.112792 C810.652953,34.112792 810.68541,34.1136242 810.7291,34.1157047 C810.803583,34.116953 810.877234,34.1215302 810.97585,34.1273556 C811.038266,34.132765 811.127728,34.1098792 811.187231,34.0844969 C811.224264,34.0686849 811.260049,34.0512086 811.29625,34.0329 C811.320385,34.0208329 811.344102,34.0079337 811.360747,34.0016922 C811.417753,33.9813031 811.473927,33.9580012 811.530517,33.9346994 L811.582946,33.913062 C811.641617,33.8897601 811.699455,33.8639617 811.787253,33.8240157 C811.859239,33.7998816 811.929977,33.7740832 811.98948,33.7499491 C812.053976,33.7274795 812.118056,33.701265 812.18172,33.6754665 C812.252874,33.6459231 812.324028,33.6159636 812.412658,33.5893329 C812.459262,33.5731049 812.504617,33.5556285 812.549972,33.5385682 L812.602818,33.5185952 C812.760937,33.4590923 812.852064,33.3034694 812.857473,33.1349472 C812.860802,33.0171897 812.807125,32.902345 812.721407,32.8203725 C812.876614,32.8440904 813.029324,32.8728016 813.173296,32.9052577 L813.249443,32.9219019 C813.402986,32.9576868 813.531562,32.9955523 813.627266,33.0242635 L813.748768,32.6264679 L813.672621,33.0388271 C813.761251,33.0679544 813.89066,33.0529747 813.977626,33.0209347 L814.685835,32.7446415 C815.06449,32.5919313 815.302917,32.4621068 815.312488,32.4566974 C815.425252,32.3946979 815.503063,32.2852625 815.523453,32.1583507 C815.544258,32.0318551 815.505144,31.9028628 815.417762,31.8088233 C815.398621,31.7876019 815.217616,31.5957779 814.884733,31.3411222 C814.680009,31.1792577 814.459474,31.032789 814.231449,30.9079578 C813.968887,30.7606569 813.678863,30.6075306 813.344315,30.4881087 C813.177041,30.4252769 813.001029,30.3624452 812.798386,30.3025262 C812.721823,30.2829693 812.643596,30.2638285 812.563704,30.2451038 C812.452188,30.2197215 812.337759,30.1947552 812.234565,30.1747822 C812.035251,30.1290108 811.833441,30.1115344 811.637872,30.0944741 L811.570879,30.0882326 C811.460195,30.0786622 811.348263,30.0707562 811.212614,30.0649307 C811.097353,30.0653468 810.980011,30.0674274 810.863502,30.0728367 L810.778617,30.0761656 C810.689154,30.0799105 810.59886,30.0836554 810.505653,30.0907292 C810.40121,30.0998835 810.293856,30.1161116 810.186917,30.1327557 L809.737108,30.2101511 C809.648894,30.2317885 809.560264,30.2571709 809.471218,30.2821371 L809.36844,30.3112644 C809.129596,30.3765928 808.882846,30.4668874 808.627358,30.5821482 C808.638593,30.5405378 808.646083,30.5097461 808.646915,30.5068334 C808.675626,30.381586 808.645251,30.2505132 808.564111,30.1510643 C808.48297,30.0516154 808.371454,30.0033473 808.232476,29.9975219 C808.211254,29.997938 808.016934,30.0033473 807.719003,30.0603536 C807.532172,30.0932258 807.345342,30.1427422 807.167665,30.2064062 C806.962942,30.2771439 806.741158,30.3599486 806.514798,30.4839476 C806.400785,30.5434505 806.283444,30.6075306 806.151123,30.6903353 C806.038358,30.7664823 805.923098,30.848871 805.817823,30.928763 C805.693408,31.016977 805.586885,31.1176743 805.483692,31.2150426 L805.44749,31.2487471 C805.390068,31.3032567 805.333478,31.3590147 805.259827,31.4347456 C805.205318,31.4967451 805.150808,31.559993 805.098379,31.6249052 L805.060097,31.6715089 C805.019735,31.7206092 804.978957,31.7705417 804.938179,31.8242191 C804.890327,31.8887153 804.844972,31.9586208 804.779643,32.0601502 L804.631926,32.3002423 C804.601135,32.3580807 804.572007,32.4175836 804.54288,32.4779187 L804.510424,32.5444954 C804.485458,32.5944279 804.463404,32.6489375 804.440518,32.7021989 L804.172963,32.6605885 C804.089326,32.6510181 804.00569,32.6410316 803.920388,32.6368705 C803.858389,32.63479 803.795973,32.6343739 803.73439,32.6339578 L803.622874,32.6331256 C803.5538,32.6331256 803.485559,32.63479 803.395681,32.6381188 C803.314541,32.6451926 803.234232,32.6530986 803.156005,32.6635012 L803.111482,32.6689105 C802.96959,32.6863869 802.823122,32.7046955 802.688304,32.7408966 C802.546412,32.774601 802.40993,32.8112182 802.265542,32.8540769 C802.133221,32.8977678 802.008806,32.9477003 801.896874,32.9951362 C801.677587,33.0825181 801.49242,33.1869602 801.37175,33.2576979 C801.298932,33.3005567 801.246087,33.3650528 801.211134,33.4374549 C801.20406,33.437871 801.197819,33.437871 801.190745,33.4382871 C800.574079,33.5194274 800.03023,33.6617351 799.577925,33.8618812 L799.495537,33.89725 C799.40441,33.9359477 799.313283,33.9754776 799.19927,34.0304033 L798.827689,34.2397037 C798.734066,34.2942134 798.640859,34.3491391 798.550564,34.4098903 C798.473169,34.4631517 798.39827,34.5193257 798.324203,34.5750837 L798.265533,34.6187746 C798.170661,34.688264 798.078286,34.7610822 797.971347,34.8476319 C797.886462,34.9233629 797.803657,35.0003421 797.725013,35.0773214 L797.68049,35.119764 C797.538183,35.2574945 797.390466,35.3998021 797.27146,35.5529284 C797.140803,35.7106319 797.018885,35.8662549 796.896134,36.0314482 C796.786282,36.1912322 796.68933,36.3510162 796.604029,36.4991493 C796.414285,36.8103952 796.285293,37.1112385 796.175858,37.3871156 C796.076409,37.6317848 795.997349,37.8847761 795.942007,38.131942 C795.842558,38.5463817 795.823417,38.8089435 795.821337,38.8380708 C795.813015,38.9658147 795.86378,39.0902299 795.959483,39.1755312 C796.036463,39.2441884 796.135496,39.2812217 796.236609,39.2812217 C796.261159,39.2812217 796.286125,39.2791412 796.311092,39.274564 C796.322326,39.2724835 796.589049,39.2233832 796.983932,39.1022969 L797.73708,38.8597082 C797.824878,38.8293326 797.900193,38.7714941 797.951374,38.6936826 L797.977173,38.6537366 C798.042501,38.5572005 798.134876,38.423631 798.258043,38.2709208 C798.34376,38.1619015 798.439464,38.0487212 798.540161,37.9376214 C798.523517,38.0528822 798.555973,38.1727202 798.634201,38.2655114 C798.744469,38.3953359 798.923393,38.4469329 799.084842,38.3911749 L799.142264,38.3724502 C799.186787,38.3574705 799.23131,38.3429068 799.290813,38.3212694 C799.362383,38.291726 799.436034,38.2700886 799.509684,38.2480351 C799.575845,38.2280621 799.642005,38.207673 799.694018,38.1889483 C799.774326,38.1635659 799.85297,38.1365192 799.910809,38.1148817 C799.982378,38.096157 800.053948,38.0774324 800.123438,38.0557949 L800.183357,38.0379025 C800.241195,38.0204261 800.29945,38.0029497 800.342725,37.9871378 C800.368523,37.9788157 800.394738,37.9738224 800.420952,37.967997 C800.461314,37.9588427 800.501676,37.9501045 800.553689,37.9355408 C800.619434,37.9184806 800.680185,37.8860244 800.730534,37.8398369 L800.762158,37.8111257 C800.813338,37.7649381 800.864103,37.7179184 800.925687,37.6654892 C800.948988,37.644684 800.973122,37.6242949 800.997673,37.6043219 C801.088383,37.7199989 801.236516,37.7836628 801.384233,37.7591127 L801.641386,37.720415 C801.716701,37.716254 801.791599,37.7100124 801.866498,37.7041869 C801.871907,37.7037708 801.877733,37.7037708 801.883558,37.7033547 C801.415441,37.912239 800.944827,38.223901 800.525394,38.6025558 C800.137585,38.942929 799.783065,39.3827511 799.431457,39.9652969 C799.136023,40.51289 798.93338,41.0371812 798.830186,41.5219426 L798.8073,41.6243042 C798.786911,41.7162632 798.766522,41.8078061 798.745717,41.9259797 L798.697865,42.3454127 C798.687046,42.4548481 798.676644,42.5651157 798.673731,42.674135 C798.671234,42.766094 798.672899,42.8576369 798.674563,42.9483476 L798.675811,43.0282396 C798.676644,43.1464132 798.681221,43.2637546 798.688711,43.4010689 C798.700778,43.5138332 798.714925,43.6257652 798.730737,43.7347845 L798.740724,43.8017772 C798.768603,43.9956818 798.797314,44.1966601 798.850991,44.3805781 C798.902172,44.5786437 798.957098,44.7692194 799.019097,44.9647883 C799.084426,45.1482903 799.157244,45.3201413 799.226733,45.4757642 C799.368625,45.8128086 799.537563,46.0928467 799.696931,46.3425092 C799.837158,46.5676215 799.995694,46.7802508 800.163384,46.9683299 C800.441341,47.2916428 800.64232,47.4609972 800.664373,47.4793058 C800.740104,47.5421375 800.834144,47.5754258 800.930264,47.5754258 C800.959807,47.5754258 800.989767,47.572097 801.01931,47.5654393 C801.144973,47.5379764 801.250664,47.4543395 801.30559,47.3386625 C801.310583,47.3282599 801.427092,47.0823424 801.559413,46.6924528 L801.804082,45.9409687 C801.831129,45.8540029 801.809492,45.7100309 801.778284,45.6243134 C801.737922,45.5152941 801.683828,45.3621678 801.631815,45.1720082 C801.59395,45.0388549 801.558165,44.8952989 801.526957,44.7479981 C801.611842,44.8303867 801.730016,44.8765743 801.851518,44.863675 C802.021289,44.8495275 802.165261,44.7330183 802.214777,44.5699055 L802.235166,44.5049932 C802.248482,44.4633828 802.261381,44.4217724 802.277193,44.3647661 C802.295501,44.2894513 802.3213,44.2170492 802.346266,44.1438148 C802.368736,44.0789026 802.391205,44.0135742 802.406601,43.9598968 C802.432816,43.880837 802.456534,43.800945 802.475258,43.7356167 C802.501473,43.6677917 802.527271,43.6003828 802.549325,43.5350545 L802.568882,43.4792965 C802.589271,43.4210419 802.60966,43.3627873 802.622559,43.3161837 C802.630881,43.2903852 802.642532,43.265419 802.653351,43.2408688 C802.669579,43.2034195 802.685391,43.1659701 802.707445,43.1064672 C802.729914,43.0452999 802.73782,42.9799715 802.73033,42.9154754 L802.725337,42.8717844 C802.717431,42.8039595 802.709525,42.7361345 802.703284,42.6549942 C802.699955,42.6237864 802.697458,42.5925786 802.695794,42.5613707 C802.843095,42.5555453 802.978328,42.4719083 803.047818,42.338755 L803.16724,42.106985 C803.20677,42.0445694 803.245467,41.9813215 803.283333,41.9176576 C803.369882,41.7749339 803.451439,41.6405322 803.550888,41.5165332 C803.676967,41.3530043 803.800966,41.1932203 803.940361,41.0438389 C804.003193,40.97643 804.036481,40.8495182 804.043555,40.7409151 C804.1584,40.7496532 804.270748,40.7105395 804.355633,40.6318958 C804.428867,40.5644869 804.502518,40.497078 804.586571,40.4271725 C804.807106,40.2365968 805.041789,40.0593365 805.225291,39.9236865 C805.395061,39.7955264 805.564416,39.6790173 805.725032,39.5691658 L806.086626,39.3274092 C806.16527,39.4534888 806.265551,39.6145211 806.386221,39.8084256 C806.528529,40.069323 806.701628,40.3859782 806.899694,40.7492371 C807.07529,41.1253953 807.290416,41.5385867 807.475998,42.0141938 C807.678225,42.4806465 807.861311,43.0032734 808.042316,43.5579402 C808.220409,44.1138553 808.383521,44.7088843 808.524997,45.33096 C808.664808,45.9538679 808.789223,46.6021582 808.879934,47.2683409 C808.949423,47.7273038 808.997275,48.1962532 809.037637,48.666867 C808.54497,49.0958704 807.964921,49.3509422 807.475582,49.4994914 L786.043721,49.4994914 C784.98973,49.2444196 783.641968,48.7738058 782.761492,48.0273149 C782.726123,47.7897195 782.686177,47.5529562 782.655801,47.3145285 C782.598379,46.8576461 782.537628,46.4003477 782.502259,45.9438814 C782.454407,45.4869991 782.421951,45.0317811 782.40073,44.579892 C782.34622,43.6756977 782.339978,42.7852348 782.361616,41.9247314 C782.385334,41.0646441 782.444421,40.2345163 782.534299,39.4518244 C782.565923,39.0577738 782.638741,38.6824478 782.689506,38.3150278 C782.737358,37.9463596 782.808512,37.5959999 782.878417,37.2597877 C782.999087,36.5815379 783.174683,35.9777708 783.308669,35.4343388 C783.468869,34.900061 783.616586,34.4352727 783.741001,34.0537052 C783.875403,33.6983522 783.981093,33.417898 784.056824,33.218168 L784.916911,33.5618701 C785.155755,33.6604867 785.407082,33.7649289 785.665899,33.8864313 C785.94136,34.0120948 786.300874,34.1802008 786.647905,34.3716088 C786.768575,34.4352727 786.885084,34.5039299 787.001177,34.5725871 C787.123928,34.6454053 787.276638,34.6379154 787.403966,34.572171 C787.426852,34.5601039 787.448489,34.5463725 787.468462,34.5301444 C787.472623,34.5596878 787.476368,34.5888151 787.479281,34.6183585 C787.479697,34.6225196 787.483026,34.6558079 787.483442,34.6599689 C787.483858,34.6637139 787.488019,34.7036599 787.488435,34.7074048 C787.502583,34.8247462 787.56583,34.9308527 787.662367,34.9986777 C787.894137,35.1617905 788.109679,35.3427959 788.318147,35.5217206 C788.477515,35.6515451 788.623151,35.806752 788.77711,35.970697 C788.844519,36.042683 788.912344,36.1150852 788.955202,36.1558634 L789.208194,36.462116 C789.316797,36.5936049 789.494889,36.6452019 789.65717,36.5927727 C789.682968,36.5844507 789.707935,36.5736319 789.73082,36.5607327 C789.747881,36.657685 789.764525,36.7558856 789.77576,36.8657371 C789.788659,36.9585283 789.796981,37.0517356 789.806135,37.1445268 L789.811128,37.1998687 C789.81737,37.2639487 789.855652,37.352995 789.889772,37.4075047 C789.916403,37.4507795 789.945946,37.4923899 789.97549,37.5344164 C789.999208,37.5672887 790.023342,37.6001609 790.037905,37.6255432 C790.074106,37.6933682 790.114468,37.7595288 790.154831,37.8256893 L790.197273,37.8960109 C790.242212,37.9725741 790.290897,38.0474729 790.339997,38.1227877 L790.356225,38.147754 C790.402413,38.2368003 790.450681,38.3250143 790.496036,38.4024097 C790.538479,38.4802212 790.58425,38.5567843 790.630021,38.6333475 C790.684947,38.7253065 790.741121,38.8172655 790.794383,38.9279493 C790.821013,38.9782979 790.849308,39.0278143 790.877187,39.0773306 L790.922127,39.1572226 C791.004931,39.3074362 791.176366,39.374429 791.345305,39.3515433 C791.515491,39.3290737 791.658631,39.1880144 791.699409,39.0215727 L791.716053,38.958741 C791.765154,38.7577627 791.80718,38.555536 791.842133,38.3562221 C791.860858,38.5588649 791.872508,38.7640042 791.878334,38.9695597 C791.887488,39.2712352 791.882079,39.5770717 791.862522,39.8600226 C791.848374,40.1067723 791.820912,40.3185693 791.797194,40.4879237 L791.785959,40.5565809 C791.770979,40.6477077 791.787623,40.7417473 791.832146,40.8228876 L792.359766,41.7379006 C792.633147,42.1972796 792.847857,42.4781499 792.856595,42.4898008 C792.934822,42.5917463 793.055076,42.6516653 793.183237,42.6529137 C793.184485,42.6529137 793.185733,42.6529137 793.186982,42.6529137 C793.313893,42.6529137 793.433731,42.5946591 793.512791,42.4952102 C793.521945,42.4839754 793.739568,42.2072661 794.007955,41.7175115 C794.174813,41.4241581 794.319201,41.1112478 794.436126,40.7912637 C794.574273,40.4225954 794.7145,40.0173099 794.801882,39.5600115 C794.84266,39.3681875 794.894673,39.1126995 794.933371,38.8218427 C794.957505,38.5725963 794.976645,38.3121151 794.987048,38.056211 C795.007021,37.7915688 794.989129,37.5244299 794.971652,37.2656132 L794.966659,37.1857212 C794.957505,37.0400847 794.945022,36.8927838 794.926297,36.721765 C794.902579,36.5719675 794.87678,36.4205056 794.845989,36.2694598 L794.823519,36.1546151 C794.801466,36.0410186 794.778996,35.9261739 794.751533,35.8088325 C794.717413,35.6702698 794.672889,35.5287944 794.628366,35.3877351 L794.446113,34.8451353 C794.399509,34.7327872 794.348328,34.620439 794.296731,34.5080909 L794.239725,34.3824275 C793.975915,33.789479 793.574791,33.174061 793.034271,32.5390861 C792.444236,31.9086883 791.872092,31.4426516 791.291627,31.1172582 C790.642505,30.7398517 789.950523,30.4673035 789.295992,30.3291569 C789.051322,30.273815 788.802908,30.2363657 788.555742,30.2076545 C788.607339,30.1947552 788.659768,30.1806077 788.711365,30.1681246 C788.909847,30.1148632 789.121228,30.0874004 789.344676,30.0586892 C789.44246,30.0462061 789.540245,30.0337229 789.599748,30.0224881 L789.99463,29.9975219 C790.164817,29.9862871 790.31087,29.8726906 790.363715,29.71041 C790.372037,29.6841954 790.377862,29.6575648 790.381191,29.6309341 C790.469405,29.6737928 790.559284,29.718316 790.653739,29.7728256 C790.731551,29.814436 790.807698,29.8593753 790.883845,29.9038984 L790.946677,29.9405156 C791.001602,29.9721395 791.095642,29.9933608 791.159306,29.997938 C791.250433,30.0041795 791.355291,29.997938 791.423948,30.0054278 C791.50176,30.0162466 791.580819,30.022072 791.659879,30.0283136 L791.736026,30.0345551 C791.822992,30.0428772 791.911622,30.0474544 792.033541,30.0528637 C792.132574,30.0678435 792.232439,30.0803266 792.321901,30.0890648 C792.409699,30.1007157 792.497913,30.1077895 792.586543,30.1156954 C792.693898,30.1244336 792.800837,30.1331718 792.921091,30.1543931 C792.979762,30.1627152 793.0376,30.1693729 793.095855,30.1751983 L793.183653,30.1856009 C793.35592,30.2043256 793.507798,30.1073734 793.588938,29.9567437 C793.670078,29.8065301 793.640535,29.6084645 793.529851,29.4778078 L793.486993,29.4257948 C793.353007,29.2689235 793.213196,29.1157972 793.071721,28.9701607 C793.247317,29.0737706 793.420832,29.1844543 793.590603,29.3005474 C793.841513,29.4703179 794.086599,29.6538198 794.303389,29.834409 C794.495213,29.9908642 794.651252,30.1369168 794.778164,30.2596675 L795.06694,29.9596564 L794.822687,30.3041906 C794.888848,30.3703512 794.975397,30.4123777 795.068605,30.4231964 L796.116355,30.5305513 C796.494177,30.5646718 796.782538,30.5696651 796.920684,30.5696651 L797.017636,30.5688329 C797.145796,30.5646718 797.264802,30.5022562 797.340949,30.3986463 C797.41668,30.2950363 797.440814,30.1627152 797.405862,30.0395484 C797.402117,30.0254008 797.305164,29.6871082 797.065072,29.183206 C796.924845,28.8748729 796.755491,28.5748618 796.564915,28.2931592 C796.346044,27.9648531 796.099294,27.6132451 795.780975,27.2757846 C795.639083,27.1193294 795.467648,26.933747 795.260012,26.7377619 C795.071517,26.5717364 794.871787,26.4040464 794.670809,26.2455107 C794.46775,26.074908 794.241389,25.9330165 794.022103,25.7961182 L793.953029,25.7528434 C793.829446,25.6746158 793.702535,25.5980526 793.552737,25.5131674 C793.417919,25.4453424 793.280189,25.3775174 793.13913,25.3134374 L793.027198,25.2618405 C792.924004,25.2144046 792.819978,25.1657204 792.710958,25.1207812 C792.580718,25.0675198 792.442987,25.0221645 792.305257,24.976393 L791.749342,24.8032937 C791.624927,24.7741664 791.497599,24.7487841 791.369439,24.7234017 L791.25501,24.700516 C790.621699,24.5673626 789.927638,24.528665 789.054651,24.5977382 C789.024692,24.6014832 788.998477,24.6073086 788.968934,24.6114697 C788.920666,24.517014 788.841606,24.4400348 788.735499,24.4042498 C788.563648,24.3468274 788.300254,24.2636066 788.006901,24.2136741 C787.84254,24.1824663 787.670273,24.1525068 787.473871,24.1300372 C787.296611,24.1167218 787.111445,24.1067353 786.933768,24.1034065 C786.749434,24.0921717 786.558442,24.1075675 786.362873,24.1246278 L786.306283,24.1296211 C786.202257,24.1387754 786.097399,24.149178 785.970071,24.1658221 C785.863964,24.1845468 785.756194,24.205352 785.648006,24.22907 L785.562705,24.2477946 C785.483229,24.2648549 785.403337,24.2823313 785.322613,24.3035526 C785.223996,24.3293511 785.124547,24.3630555 785.024682,24.3967599 L784.632712,24.5374031 L784.581948,24.560705 C784.519948,24.4691621 784.457116,24.3805319 784.391788,24.2981433 L784.332285,24.2215801 C784.277775,24.1512585 784.223682,24.081353 784.149615,23.9952194 L783.876651,23.7110203 C783.803417,23.6373699 783.729766,23.5641355 783.650706,23.49423 C783.586626,23.4388882 783.520466,23.3860429 783.455138,23.3336138 L783.394802,23.2849296 C783.308253,23.2150241 783.220871,23.1484475 783.116845,23.0714682 C783.027382,23.0123814 782.93792,22.9557912 782.849706,22.9021138 L782.800606,22.8721543 C782.641654,22.7747859 782.477293,22.6740887 782.309603,22.6016866 C782.136087,22.5205463 781.965485,22.4460637 781.78656,22.3740776 C781.615541,22.311662 781.447435,22.2617295 781.292644,22.2180386 C780.963922,22.1194219 780.660166,22.0736504 780.384289,22.0395299 C780.188304,22.0133153 779.989822,22 779.794253,22 C779.74224,22 779.692724,22.0012483 779.650697,22.0024966 C779.250405,22.0099865 779.006568,22.0549257 778.979937,22.0595029 C778.853858,22.0836369 778.746087,22.1643611 778.687416,22.2783737 C778.628745,22.3923862 778.626249,22.5276201 778.679926,22.6437131 C778.683671,22.651203 778.749416,22.791014 778.871334,23.0040593 C778.409459,22.8846374 777.967556,22.8072421 777.556445,22.7835241 L777.413721,22.7739537 C777.291803,22.7660478 777.170716,22.7577257 777.021751,22.7543968 L776.479151,22.7756181 C776.331018,22.7835241 776.182469,22.7914301 776.036833,22.8097387 C775.92074,22.8247184 775.805479,22.8446914 775.691466,22.8638322 L775.576621,22.8833891 C775.423495,22.9087715 775.272033,22.9383149 775.102679,22.9740998 C774.958707,23.0119653 774.816399,23.0523274 774.676588,23.0951861 L774.588374,23.1218168 C774.344537,23.1962994 774.091962,23.2732787 773.866849,23.3785531 C773.722877,23.4401365 773.58265,23.5025521 773.445752,23.5670482 C773.347551,23.6128197 773.251431,23.6590073 773.14366,23.7122686 C772.919796,23.8333549 772.711328,23.9623472 772.520753,24.0850979 C772.116299,24.3335121 771.786745,24.6081408 771.494224,24.8648771 C771.233742,25.0891573 770.992402,25.3346587 770.780605,25.5901467 C770.413185,26.01915 770.231764,26.3208256 770.224274,26.3333087 C770.158113,26.4435763 770.146878,26.5779779 770.193066,26.6973998 C770.23967,26.8172378 770.338286,26.9087807 770.461453,26.945814 C770.475601,26.9495589 770.813893,27.0510883 771.344842,27.1442957 L772.239882,27.2940932 L772.381774,27.313234 C772.475813,27.3282137 772.571933,27.3082407 772.65349,27.2599726 L772.703422,27.2304292 C772.822428,27.165517 772.982628,27.0793834 773.176533,26.9886727 L773.277646,26.9424852 C773.530221,26.8263921 773.81442,26.7132118 774.101116,26.6145951 C774.294188,26.5476023 774.489341,26.486435 774.686991,26.4315093 C774.510563,26.5359514 774.337047,26.6466351 774.168525,26.7623121 L774.083224,26.8230633 C773.943413,26.9208477 773.877668,27.0943632 773.917198,27.2603887 C773.956728,27.4259982 774.09321,27.5512455 774.262148,27.5753796 L774.346618,27.5886949 C774.405288,27.5978492 774.464375,27.6070035 774.537609,27.6153256 C774.644964,27.624896 774.750655,27.6444529 774.856345,27.6635937 C774.944143,27.6794056 775.031525,27.6948015 775.10684,27.7052041 C775.214195,27.7230966 775.321966,27.7380763 775.388542,27.7439018 L775.445133,27.7559688 C775.529602,27.7746935 775.613655,27.7930021 775.697708,27.8075657 L775.783425,27.8229616 C775.85874,27.8371091 775.934055,27.8508405 775.995222,27.8587465 C776.036,27.8654042 776.07553,27.8762229 776.114644,27.8866255 C776.164577,27.8999408 776.214093,27.9124239 776.300227,27.9294842 C776.36181,27.9415512 776.425474,27.9386385 776.485393,27.9224104 L776.55197,27.9041019 C776.638519,27.8812161 776.725069,27.8570821 776.824518,27.8333642 C776.91939,27.8083979 777.016342,27.7896732 777.112462,27.7713646 C777.108717,27.7979953 777.107469,27.8250421 777.108717,27.8520888 C777.117039,28.0231077 777.228555,28.1708246 777.390003,28.2257504 L777.728712,28.3393468 C777.781141,28.3626486 777.833986,28.3842861 777.886832,28.4059235 C777.301373,28.3709707 776.678049,28.4142456 776.061799,28.5415734 C775.556232,28.6385257 775.040263,28.811625 774.48518,29.0704418 C774.304591,29.154911 774.126915,29.2452056 773.935091,29.3496477 C773.238116,29.7711612 772.66306,30.2276275 772.226983,30.7048989 L772.13544,30.8026834 C772.049723,30.8946424 771.964421,30.9861853 771.865805,31.1010301 L771.533753,31.5433488 C771.448036,31.6606902 771.362735,31.7780315 771.286171,31.8999501 C771.222924,32.0027278 771.163421,32.107586 771.10475,32.2116121 L771.053153,32.3027389 C770.975342,32.4371405 770.90294,32.5727905 770.823048,32.7275812 C770.761464,32.8636473 770.702793,32.9997134 770.648284,33.134115 L770.615412,33.2148392 C770.518043,33.4524347 770.417346,33.6983522 770.356179,33.940941 C770.281696,34.2001738 770.2172,34.4531652 770.157697,34.7123981 C770.1061,34.9841141 770.07406,35.243347 770.053255,35.4305938 C769.990007,35.9020398 769.994584,36.330211 770.009148,36.7188523 C770.017886,37.0617221 770.055752,37.4041758 770.120664,37.7304015 C770.220945,38.2867328 770.339535,38.6175356 770.344944,38.6316831 C770.388635,38.7523533 770.485171,38.8455606 770.60709,38.8855066 C770.649532,38.898822 770.692807,38.9058957 770.736082,38.9058957 C770.818054,38.9058957 770.899195,38.8813456 770.9691,38.8343258 C770.981167,38.8260037 771.273688,38.6279382 771.68147,38.2750818 L772.467075,37.5789396 C772.536564,37.5156918 772.583168,37.424981 772.598148,37.3326059 L772.606886,37.276848 C772.639342,37.1020842 772.680537,36.8915355 772.746281,36.6501951 C772.816186,36.3805596 772.907729,36.0880384 773.012172,35.8042554 C773.082493,35.6120152 773.158224,35.4222717 773.241029,35.2341927 C773.210653,35.4364193 773.186519,35.6411425 773.169043,35.846698 L773.162801,35.9494757 C773.150318,36.1200784 773.243109,36.2798624 773.396652,36.3543451 C773.550194,36.4292438 773.73328,36.4013648 773.858943,36.286104 L773.92552,36.226185 C773.968795,36.1879034 774.011654,36.1492057 774.064083,36.098441 C774.138565,36.0210456 774.220538,35.9519723 774.301262,35.8824829 C774.369919,35.8242284 774.437744,35.7655577 774.493086,35.7135447 C774.575059,35.6415586 774.654951,35.5674921 774.718199,35.5059087 C774.795594,35.4447414 774.872573,35.3835741 774.944559,35.3215745 L775.004894,35.2699776 C775.065229,35.2187968 775.125981,35.167616 775.174665,35.1210123 C775.204624,35.0943817 775.237497,35.0710798 775.269953,35.0473619 C775.311979,35.0169863 775.354006,34.9861946 775.414757,34.935846 C775.465938,34.8942356 775.506716,34.8413903 775.533347,34.7814713 L775.557481,34.7277939 C775.594514,34.6433248 775.631963,34.5592717 775.678567,34.4631517 C775.718929,34.3732732 775.765533,34.2863074 775.81172,34.2005899 C775.830029,34.2205629 775.850418,34.2388715 775.872471,34.2550996 C776.009786,34.3557968 776.194952,34.3628706 776.339756,34.272576 L776.641432,34.0820003 C776.728814,34.0374771 776.815364,33.9908734 776.901081,33.9442698 C777.030073,33.8747804 777.158649,33.805291 777.291387,33.7432915 C777.353386,33.7141642 777.416218,33.6871174 777.491117,33.6588223 C777.748269,33.5543802 778.00126,33.453683 778.268399,33.3742071 C778.380331,33.3409188 778.473122,33.261859 778.524303,33.1565846 C778.525968,33.1532558 778.561753,33.0750282 778.563417,33.0712833 C778.574236,33.0479814 778.585054,33.0246796 778.596289,33.0013778 C778.610853,33.0238474 778.627497,33.0446526 778.646638,33.0642095 C778.746503,33.1657389 778.891307,33.2106782 779.031118,33.1794703 C779.163023,33.1515914 779.295344,33.1228802 779.439316,33.0995783 C779.822132,33.0288406 780.214934,32.9830692 780.51869,32.9510292 C780.7954,32.9189891 781.064203,32.8998484 781.319691,32.8815398 L782.005431,32.842426 C781.942599,32.9789081 781.873942,33.1278734 781.796546,33.2955634 C781.631353,33.6996005 781.434952,34.1935162 781.21941,34.7644111 C781.030915,35.3427959 780.794151,35.9915022 780.609401,36.7184362 C780.507456,37.0796146 780.40343,37.4570211 780.322289,37.8527361 C780.238236,38.247619 780.131714,38.6541527 780.065969,39.0781629 C779.90785,39.9228543 779.77969,40.820391 779.68773,41.7520482 C779.597852,42.6837054 779.536269,43.6503153 779.525866,44.6310728 C779.514215,45.1224918 779.515047,45.6168236 779.530859,46.1124036 C779.53502,46.6096481 779.56498,47.1056442 779.59161,47.6028887 C779.648617,48.5973776 779.748066,49.5868733 779.869984,50.5580604 C780.000641,51.527167 780.144197,52.4800455 780.32437,53.3933941 C780.668904,55.2242524 781.101236,56.9090581 781.52275,58.3404564 C781.743701,59.0952694 781.964236,59.776848 782.169376,60.3760379 C778.21389,61.5323914 775.316972,63.164768 774.113183,65.0405655 C773.516906,65.96931 774.582965,67 776.091758,67 L816.381043,67 C817.889837,67 818.955896,65.96931 818.359618,65.0405655 Z" id="Fill-14"></path>
        </g>
    </g>
</svg>