<?xml version="1.0" encoding="UTF-8"?>
<svg width="37px" height="45px" viewBox="0 0 37 45" version="1.1" xmlns="http://www.w3.org/2000/svg" xmlns:xlink="http://www.w3.org/1999/xlink">
    <!-- Generator: sketchtool 51.2 (57519) - http://www.bohemiancoding.com/sketch -->
    <title>9744AEA2-741A-46A8-93FA-11E860F1AE13</title>
    <desc>Created with sketchtool.</desc>
    <defs></defs>
    <g id="Symbols" stroke="none" stroke-width="1" fill="none" fill-rule="evenodd">
        <g id="plans_selection" transform="translate(-899.000000, -24.000000)" fill="#00A7A7" fill-rule="nonzero">
            <g id="Group-2" transform="translate(899.000000, 24.830882)">
                <path d="M34.3117824,6.94852941 L33.0787448,6.94852941 L33.0787448,37.0189209 C33.0787448,39.0165729 31.4405663,40.6426623 29.4281168,40.6426623 L16.9347599,40.6426623 L7,40.6426623 L7,41.7573502 C7,43.033821 8.04367824,44.0697814 9.32956028,44.0697814 L21.8184695,44.0697814 L34.3073787,44.0697814 C35.5932607,44.0697814 36.6368949,43.033821 36.6368949,41.7573502 L36.6368949,9.26096057 C36.6369389,7.98453354 35.5976644,6.94852941 34.3117824,6.94852941 Z" id="Shape"></path>
                <path d="M15.8140658,37.121252 L5.88370955,37.121252 L3.32956028,37.121252 C2.04367824,37.121252 1,36.0852916 1,34.8089083 L1,10.5917216 L1.81028184,10.5917216 C1.87633742,10.5960929 1.94679671,10.6004642 2.0128523,10.6004642 L7.0903249,10.6004642 L8.39382176,10.6004642 C10.2037448,10.6004642 11.6745825,9.14044151 11.6745825,7.34382675 L11.6745825,6.04991442 L11.6745825,1.00977618 C11.6745825,0.926720995 11.6701347,0.843665812 11.6613713,0.764981953 L11.6613713,0 L15.8140658,0 L28.3029749,0 C29.588857,0 30.6325352,1.03600413 30.6325352,2.31243116 L30.6325352,4.73851679 L30.6325352,34.8089083 C30.6325352,36.0852916 29.588857,37.121252 28.3029749,37.121252 L15.8140658,37.121252 Z M22.3765377,14.9051369 L14.898374,23.454741 L11.1890586,20.6418544 L9.48167467,22.8603698 L15.2901816,27.2651372 L24.5002502,16.7354881 L22.3765377,14.9051369 Z" id="Combined-Shape"></path>
                <path d="M0.984405287,9.25409597 L7.36537475,9.25409597 C7.36977846,9.25409597 7.37858587,9.25409597 7.38298958,9.25409597 C8.44868634,9.24535332 9.31181265,8.38857354 9.32062006,7.33071278 C9.32062006,7.32634145 9.32062006,7.3175988 9.32062006,7.31322747 L9.32062006,0.974805575 C9.32062006,0.389047965 8.83621244,0 8.33423403,0 C8.09203022,0 7.84982641,0.087426509 7.64725595,0.28850748 L0.288619796,7.5929923 C-0.327898993,8.20497787 0.108067865,9.25409597 0.984405287,9.25409597 Z" id="Shape"></path>
            </g>
        </g>
    </g>
</svg>