<?xml version="1.0" encoding="UTF-8"?>
<svg width="37px" height="45px" viewBox="0 0 37 45" version="1.1" xmlns="http://www.w3.org/2000/svg" xmlns:xlink="http://www.w3.org/1999/xlink">
    <!-- Generator: sketchtool 51.2 (57519) - http://www.bohemiancoding.com/sketch -->
    <title>AA9D7C65-351B-48A0-9DEF-C67E39A0DF50</title>
    <desc>Created with sketchtool.</desc>
    <defs></defs>
    <g id="Web-Direct" stroke="none" stroke-width="1" fill="none" fill-rule="evenodd">
        <g id="Get-Started---SRS" transform="translate(-923.000000, -127.000000)" fill="#FFFFFF" fill-rule="nonzero">
            <g id="Group-3" transform="translate(885.000000, 104.000000)">
                <g id="Group-2" transform="translate(38.000000, 23.000000)">
                    <path d="M34.3117824,7 L33.0787448,7 L33.0787448,37.2931351 C33.0787448,39.3055846 31.4405663,40.943719 29.4281168,40.943719 L16.9347599,40.943719 L7,40.943719 L7,42.0666639 C7,43.35259 8.04367824,44.3962242 9.32956028,44.3962242 L21.8184695,44.3962242 L34.3073787,44.3962242 C35.5932607,44.3962242 36.6368949,43.35259 36.6368949,42.0666639 L36.6368949,9.32956028 C36.6369389,8.04367824 35.5976644,7 34.3117824,7 Z" id="Shape"></path>
                    <path d="M15.8140658,37.3962242 L5.88370955,37.3962242 L3.32956028,37.3962242 C2.04367824,37.3962242 1,36.35259 1,35.066752 L1,10.6701788 L1.81028184,10.6701788 C1.87633742,10.6745825 1.94679671,10.6789862 2.0128523,10.6789862 L7.0903249,10.6789862 L8.39382176,10.6789862 C10.2037448,10.6789862 11.6745825,9.20814849 11.6745825,7.39822547 L11.6745825,6.0947286 L11.6745825,1.017256 C11.6745825,0.933585595 11.6701347,0.849915188 11.6613713,0.770648486 L11.6613713,0 L15.8140658,0 L28.3029749,0 C29.588857,0 30.6325352,1.04367824 30.6325352,2.32956028 L30.6325352,4.77361691 L30.6325352,35.066752 C30.6325352,36.35259 29.588857,37.3962242 28.3029749,37.3962242 L15.8140658,37.3962242 Z M22.3765377,15.0155454 L14.898374,23.6284799 L11.1890586,20.794757 L9.48167467,23.0297059 L15.2901816,27.4671012 L24.5002502,16.8594546 L22.3765377,15.0155454 Z" id="Combined-Shape"></path>
                    <path d="M0.984405287,9.32264483 L7.36537475,9.32264483 C7.36977846,9.32264483 7.37858587,9.32264483 7.38298958,9.32264483 C8.44868634,9.31383742 9.31181265,8.45071112 9.32062006,7.38501435 C9.32062006,7.38061065 9.32062006,7.37180324 9.32062006,7.36739953 L9.32062006,0.982026357 C9.32062006,0.391929802 8.83621244,0 8.33423403,0 C8.09203022,0 7.84982641,0.0880741127 7.64725595,0.290644572 L0.288619796,7.64923669 C-0.327898993,8.26575548 0.108067865,9.32264483 0.984405287,9.32264483 Z" id="Shape"></path>
                </g>
            </g>
        </g>
    </g>
</svg>