<svg xmlns="http://www.w3.org/2000/svg" xmlns:xlink="http://www.w3.org/1999/xlink" width="218" height="149" viewBox="0 0 218 149">
    <defs>
        <path id="a" d="M108.058.76c39.522 2.452 59.22 3.87 79.26 22.52 35.591 33.126-21.982 102.228-44.563 106.224-20.393 3.609-39.665-13.516-63.589-17.797-18.936-3.389-63.854 9.683-73.002 5.965-21.036-8.552 22.296-55.739 10.51-63.284C-1.74 42.6-7.283-6.398 108.057.76z"/>
        <path id="c" d="M0 0h210v56.412H0z"/>
        <path id="e" d="M.05.021h49.153V5.91H.05z"/>
        <path id="g" d="M.11.086h37.02V45.13H.11z"/>
        <path id="i" d="M.013.1h12.17v61.506H.014z"/>
        <path id="k" d="M.003.103H36.67v38.4H.003z"/>
        <path id="m" d="M.001.077h36.086v27.144H0z"/>
        <path id="o" d="M.085.004h16.8v69.482H.085z"/>
        <path id="q" d="M.087.159H24.63v88.13H.087z"/>
    </defs>
    <g fill="none" fill-rule="evenodd" transform="translate(10 12)">
        <mask id="b" fill="#fff">
            <use xlink:href="#a"/>
        </mask>
        <use fill="#4199A0" xlink:href="#a"/>
        <g mask="url(#b)">
            <g transform="translate(-9 79.71)">
                <mask id="d" fill="#fff">
                    <use xlink:href="#c"/>
                </mask>
                <path fill="#005960" d="M178.312 0c-23.994 0-44.442 15.183-52.27 36.468a56.3 56.3 0 0 0-5.735-.292c-14.318 0-27.372 5.407-37.236 14.29C77.178 38.53 64.96 30.28 50.797 30.093 42.362 17.05 27.695 8.417 11.01 8.417c-26.152 0-47.353 21.208-47.353 47.369 0 26.16 21.201 47.368 47.353 47.368a47.14 47.14 0 0 0 21.005-4.907 36.344 36.344 0 0 0 18.292 4.907 36.384 36.384 0 0 0 14.911-3.175c3.925 26.917 27.092 47.589 55.089 47.589 23.994 0 44.442-15.183 52.27-36.468 1.885.193 3.799.292 5.735.292 30.75 0 55.678-24.936 55.678-55.696C233.99 24.936 209.062 0 178.312 0" mask="url(#d)"/>
            </g>
            <g transform="translate(72.816 130.212)">
                <mask id="f" fill="#fff">
                    <use xlink:href="#e"/>
                </mask>
                <path fill="#4CC4AC" d="M49.171 25.946c-.01-5.01-2.006-7.851-4.016-12.46-1.735-3.98-4.579-7.375-8.109-9.881C33.316.955 28.415-.393 23.86.134c-2.973.344-6.05 1.139-7.775 3.818-1.194 1.856-1.392 4.14-1.74 6.261-.144.875-.283 1.75-.415 2.627-2.709 2.66-4.61 6.033-2.427 9.695.41.687.929 1.232 1.52 1.656.04.284.09.564.151.84C12.101 25.714-.01 32.256.05 33.613h48.994c.25-.735.13-5.845.127-7.666" mask="url(#f)"/>
            </g>
            <g transform="translate(122.944 90.992)">
                <mask id="h" fill="#fff">
                    <use xlink:href="#g"/>
                </mask>
                <path fill="#005960" d="M2.125 72.832h14.682c-.258-3.933-.484-9.376-.532-12.51-.058-3.727 1.23-17.08 2.753-24.586.638 3.49 2.188 18.319 2.822 25.39.268 2.99.613 7.75 1.057 11.706h13.642c-.15-3.91.127-10.802.254-14.495a550.864 550.864 0 0 0-.88-55.442c-.08-1.207-.972-2.239-2.239-2.239-.952 0-1.914.705-2.172 1.635-.305-.886-1.107-1.55-2.105-1.55-1.318 0-2.107 1.032-2.238 2.24l-.078.718c-.594-1.297-2.216-1.615-3.279-.928a2.864 2.864 0 0 0-.184-.513c-.377-.796-1.013-1.411-1.76-1.864-1.262-.766-2.878-.021-3.287 1.338-.014.047-.025.094-.038.141a2.13 2.13 0 0 0-2.048.88c-.107-.878-.63-1.648-1.582-1.91-1.153-.317-2.453.388-2.753 1.563l-.682 2.667c-.022-.305-.045-.61-.071-.913-.095-1.107-.778-2.06-1.94-2.199-.998-.118-2.283.49-2.456 1.604l-.293 1.887c-.652.25-1.137.801-1.346 1.476a2.15 2.15 0 0 0-.809-.164c-1.259 0-2.18 1.026-2.237 2.239L1.155 33.757.574 46.045C.38 50.113.018 54.217.13 58.29c.107 3.831.778 10.262 1.994 14.542" mask="url(#h)"/>
            </g>
            <path fill="#FAB08A" d="M166.72 108.287c.454-8.394 2.583-14.314 2.085-19.285-.231-2.303-1.692-18.442-3.306-24.204-.206-.733-.932-.885-1.474-.648-.051-.16-.101-.32-.156-.48-.385-1.138-2.035-.94-2.093.284-.06 1.25-.102 2.499-.131 3.748-.29-.927-.684-1.817-1.244-2.621-.487-.7-1.734-.706-1.949.255-.434 1.948-.28 3.892-.018 5.852.267 2.003.61 3.994.996 5.977.587 3.026 1.235 6.04 1.881 9.055a1.745 1.745 0 0 0-.054.259c-.678 5.244.986 17.662 2.005 23.091-.031.971-.236 1.92-.569 2.863-.407 1.156-.7 2.298-.694 3.532a9.05 9.05 0 0 0 .717 3.49c.142.334.377.73.712 1 .208.167.43.238.74-.046.222-.203.258-.757.2-.893-.408-.963-.724-2.17-.573-3.223.037-.26.085-.63.427-.392.141.098.233.419.307.58a7.34 7.34 0 0 1 .518 1.594 7.308 7.308 0 0 1-.037 3.103c-.23 1.011-.602 1.982-.784 3.006-.041.233.061.449.298.524.336.107.755-.088.9-.485.92-2.516 2.346-4.909 2.489-7.643.07-1.34-.37-2.587-.637-3.88-.238-1.148-.62-3.23-.556-4.413"/>
            <path fill="#F79C82" d="M136.008 28.887c.033-1.136 1.028-1.448 1.596-.967a.978.978 0 0 1 .746-.141c.492.098 1.107-.187 1.584-.352a8.735 8.735 0 0 0 1.493-.676 11.218 11.218 0 0 0 2.692-2.183c.323-.354.69-.388 1-.239.12-.23.26-.449.43-.65.936-1.114 1.596.356.718 1.54-.697.938-.969 6.009-1.02 7.373-.095 2.487-.12 4.049-.326 6.049-.098.953-3.21 1.556-4.27 1.53-2.67-.067-4.504-1.208-4.538-1.627-.311-3.84-.218-5.8-.105-9.657"/>
            <path fill="#FAB08A" d="M149.788 22.731c-.167-.8-.977-1.123-1.72-.952-.179.165-.356.288-.505.344-.556.208-1.05-.144-1.383-.568-.484-.617-.847-1.403-1.62-1.771-.006-.003-.01-.007-.014-.01a10.383 10.383 0 0 1-1.553-.886c-.602-.411-1.234-1-2-1.008-.864-.009-1.696.363-2.574.32-2.017-.1-4.449-2.546-4.45-4.45l.002-.21c-1.372.951-2.025 2.394-2.269 3.955-.074.232-.235 1.772-.24 2.03-.033 1.708.02 3.415.178 5.116.15 1.626.278 3.343.847 4.887 1.093 2.967 3.832 6.118 6.647 6.118 2.69 0 6.521-4.17 7.482-7.18l.1-.32a6.54 6.54 0 0 0 .474-.378c1.273-1.11 2.983-3.19 2.598-5.037"/>
            <path fill="#FFEDDC" d="M149.166 11.652c-2.212-2.796-5.722-4.18-9.202-4.457-1.476-.117-3.383.118-4.223 1.375-2.13-.618-4.384.551-5.586 2.616-.714 1.228-1.02 2.629-1.373 3.988-.334 1.283-1.048 2.554-.915 3.91.14 1.414 1.249 2.681 2.755 2.634.321-.01.6-.071.847-.17a48.84 48.84 0 0 1-.007-2.022c.005-.259.166-1.799.24-2.031.244-1.561.897-3.004 2.27-3.955-.002.07-.003.139-.003.211 0 .065.004.132.01.198 0 .02.004.04.006.06.005.048.011.096.02.144l.012.066.03.146.016.06c.014.054.03.109.048.164l.012.04c.096.29.234.581.406.867.836 1.393 2.466 2.632 3.89 2.703.878.044 1.71-.328 2.574-.319.766.009 1.398.597 2 1.008.49.334 1.012.643 1.558.89l.009.006c.773.368 1.136 1.154 1.62 1.77.214.274.495.516.817.6a.964.964 0 0 0 .273.029 1.016 1.016 0 0 0 .4-.11l.015-.008c.036-.02.072-.042.11-.067l.02-.014a1.921 1.921 0 0 0 .13-.098c.04-.034.082-.069.123-.107.427-.098.876-.032 1.213.193.086-.318.151-.646.23-.951a33.4 33.4 0 0 1 .806-2.632c.361-.607.58-1.307.628-2.033.114-1.738-.73-3.378-1.779-4.704M154.583 75.924c-.478-2.992-.632-6.046-.541-9.072.091-3.041.596-5.99.997-8.997.21-1.584.333-3.164.148-4.757-.187-1.607-.561-3.17-.934-4.741-.394-1.662-.762-4.062-1.937-5.396.546-.1.74-.843.225-1.157a7.17 7.17 0 0 0-.815-.423c-.026-.066.047-.02-.026-.066-1.82-1.177-4.102-1.875-6.188-2.488.054-1.021.02-2.045-.11-3.072-.029-.221-.208-.42-.454-.346a14.153 14.153 0 0 1-8.457-.054l-.018-.01c-.47-.265-.646-.098-.638.24.016.743.019 1.487-.001 2.23-.026.97-.074 1.514-1.014 1.995-1.442.737-2.918 1.416-4.376 2.123-.38.184-.108.715.258.65l-.105.066a.618.618 0 0 0-.268.4c-.759.367-1.337 1.138-1.288 2.009.356 6.236.71 12.488.42 18.734-.285 6.103-1.545 12.003-2.64 17.994-.558 3.052-1.04 6.13-1.249 9.227-.171 2.534-.359 5.535 1.17 7.731 1.85 2.661 4.946 2.842 7.86 2.199 2.763-.61 5.4-1.192 8.242-1.332 3.011-.148 6.025-.034 9.037.045 1.46.038 3.018-.097 4.077-1.236 1.099-1.18 1.23-3.02 1.367-4.548.554-6.1-1.793-12.007-2.742-17.948"/>
            <path fill="#FF7900" d="M131.826 41.908c-.171-.493-.176-.735-.595-.552-7.706 3.371-17.087 8.366-17.412 17.979-.012.356.51.474.665.198.154.21.417.327.679.15.104-.072.198-.155.288-.246h.037c-.25.669-.429 1.351-.042 2.016.172.295.524.322.764.158-.072.246-.141.494-.203.744-.142.569.706.981.981.414l.224-.46c.071.08.168.14.272.177l-.297.608c-.181.37.055.702.353.783l-.348.663c-.238.453.302 1.01.702.775-.08.247-.162.493-.24.74-.227.725.04 1.295.5 1.633.006.965.044 1.932.077 2.9.085 2.508.175 5.017.304 7.523.242 4.7.636 9.391 1.357 14.042a.723.723 0 0 0-.36.44c-.359-.133-.807-.009-.93.46-.252.084-.464.301-.502.664l-.249 2.366c-.58 2.546-1.016 5.122-1.119 7.741a.673.673 0 0 0 .097.354c-.12 1.663.05 3.307.548 4.924a.743.743 0 0 0 .255.383c.026.13.053.26.081.389-.495.045-.933.528-.557 1.02 1.599 2.092 3.134 4.076 5.553 5.255 2.115 1.031 4.556 1.636 6.113 3.52.417.505 1.206.067 1.222-.506.117-4.107.236-8.214.35-12.321.055-1.956.104-3.92-.118-5.869-.223-1.958-.916-3.885-.77-5.87.067-.92-1.365-.915-1.433 0-.025.34-.024.677-.007 1.012a.76.76 0 0 0-.707-.347 17.152 17.152 0 0 1-.032-.188l.098-2.184c.172-1.486.336-2.973.482-4.462.247-2.517.508-5.052.6-7.587.046.004.093.01.14.01.623 0 1.045-.35 1.267-.839a99.381 99.381 0 0 0-.103 3.852c-.003.46.713.461.716 0 .024-3.658.2-7.312.544-10.954.336-3.565.866-7.106 1.278-10.663.81-6.98 1.013-13.97-.523-20.845"/>
            <path fill="#FFF" d="M127.85 42.613c-2.213.634-6.456 3.48-6.49 3.503-.38.269-.827.358-.914 1.319-.205 2.287.064 7.171.192 9.465.214 3.844.882 7.667 2.4 11.21l.011.337a.5.5 0 0 0 .295.461c.033.17.063.34.098.511a.447.447 0 0 0 .24.317c.11.198.342.283.556.256l.003.025c.05.453.767.458.716 0-.237-2.104.16-4.31.377-6.404.237-2.288.504-4.572.8-6.852.597-4.587 1.32-9.157 2.156-13.707.048-.26-.16-.521-.44-.44M41.119 104.667c-.354-1.876-.756-3.748-1.312-5.577-.552-1.815-1.392-3.516-1.971-5.317-.499-1.549-.632-3.151-1.835-4.233.365-.495.518-1.129.336-1.792-.292-1.06-1.544-1.888-2.643-1.5a79.821 79.821 0 0 0-5.747 2.282c-1.757.776-3.899 1.484-4.903 3.244-.94 1.646-1.02 3.913-.894 5.756.138 2.015.586 3.993 1.123 5.935A193.14 193.14 0 0 0 26.879 115c.584 1.693 1.006 4.034 2.62 5.064 1.71 1.092 4.098.506 5.773-.35 1.734-.887 3.05-2.38 4.146-3.954 1.113-1.595 2.251-3.351 2.444-5.329.184-1.89-.394-3.913-.743-5.764"/>
            <path fill="#3D2459" d="M54.041 57.096c.138-.13-.024-.375-.214-.28l-.48.239a.18.18 0 0 0-.09-.095c.089-.07.18-.137.267-.21.147-.123-.013-.337-.174-.3l-.063.015a.15.15 0 0 0-.082.007c-.026.009-.05.02-.075.03.01-.114-.088-.239-.222-.2-.191.056-.376.12-.559.19a.176.176 0 0 0-.162-.004c-.359.17-.7.36-1.03.57l-.102.03c.271-.264.531-.539.78-.83.093-.109.04-.315-.126-.306-.75.043-1.413.428-2.115.63.796-.444 1.55-.95 2.27-1.523.135-.108.007-.29-.127-.305-1.48-.159-2.927.38-4.323.804-.902.274-1.8.561-2.698.854-.048-.082-.147-.134-.237-.065-.078.06-.159.117-.237.176a.175.175 0 0 0 .004-.063l.157-.169a.17.17 0 0 0 .049-.147l.49-.31c.199-.125.027-.405-.18-.31a6.966 6.966 0 0 0-.845.464.174.174 0 0 0-.11.017c-.37.197-.71.42-1.036.668-.25.12-.497.249-.74.393-.11.064-.104.182-.045.259l-.066.054c-.086.064-.17.132-.253.209-.172.158.078.397.253.253l.204-.168-.036.058c-.115.187.132.334.281.217l.179-.142c-.022.136.117.287.258.19l.095-.067a.166.166 0 0 0 .1-.024c.495-.302.953-.637 1.39-1.01.926-.304 1.854-.604 2.787-.89 1.305-.402 2.685-.93 4.07-.92a16.105 16.105 0 0 1-2.7 1.636c-.173.084-.07.32.09.334.947.076 1.728-.476 2.612-.677a12.56 12.56 0 0 1-1.078 1.035c-.105.09-.04.258.074.298-.052.042-.104.083-.155.127-.134.116.008.356.174.3.143-.05.283-.104.425-.155-.067.082-.03.193.048.249l-.082.028c-.215.074-.125.416.096.345.085-.027.17-.057.254-.086.04.03.089.045.145.024l2.967-1.1c.206-.076.128-.397-.077-.347"/>
            <g transform="translate(21.793 74.516)">
                <mask id="j" fill="#fff">
                    <use xlink:href="#i"/>
                </mask>
                <path fill="#FAB08A" d="M10.976.593c-1.247.15-3.425 1.549-3.605 1.526.11-.838-.126-1.688-.814-1.958C5.974-.07 5.1.367 4.97 1.23a373.029 373.029 0 0 0-2.558 20.925l-.07.204a18.655 18.655 0 0 0-.843 3.785c-.315 2.597-.118 5.224-.055 7.826.125 5.183.141 8.848-.071 13.8-.061.057-.446 3.167-.733 4.614-.249 1.258-.737 2.525-.549 3.819.043.291.09.583.138.874l.007.115-.012.352c-.095.632-.263 1.255-.195 1.889.034.32.174.63.345.929.162.315.364.615.56.901l.027.148c.074.4.139.73.468.99.218.172.544.073.59-.13.179-.781.105-1.105-.029-3.448-.008-.2-.209-2.134-.015-2.739.106-.427.777-1.544 1.008-1.941.022.126.042.246.055.352.135 1.13-.286 3.02.097 4.099.107.302.474.342.655.085.496-.703.272-1.563.565-2.338.299-.789.755-1.434.733-2.314-.021-.88-.396-1.71-.548-2.567-.146-.822-.2-2.556-.195-2.576 1.364-5.116 3.872-16.166 3.816-21.052-.016-1.364.396-4.214.388-4.287.724-2.871 3.13-17.13 3.626-21.296.094-.793-.57-1.732-1.199-1.656" mask="url(#j)"/>
            </g>
            <path fill="#D06345" d="M64.93 95.73c.006-1.441-.086-3.017-1.311-3.978-1.207-.947-2.877-.918-4.337-.963-7.27-.224-14.61-.744-21.857.11-.865.102-1.378 1.167-1.193 1.943.016.069.037.134.06.197.081 2.306.194 4.61.342 6.914-.098.888-.013 1.78.515 2.355.968 1.055 2.894.753 4.184.768 3.28.038 6.564-.064 9.836-.305 1.663-.123 3.324-.28 4.98-.469 1.519-.173 3.054-.487 4.585-.483 1.45.004 2.932.249 3.558-1.438.526-1.416.632-3.15.638-4.65"/>
            <g transform="translate(31.997 97.618)">
                <mask id="l" fill="#fff">
                    <use xlink:href="#k"/>
                </mask>
                <path fill="#00C9C3" d="M12.308 66.206c.047-.256.083-.532.103-.805.255-3.49 1.783-18.293 4.766-36.59.727 7.763 1.41 31.031 2.018 37.395H29.27c1.12-7.359 3.61-39.55 3.663-42.913.03-1.9 2.25-4.73 2.277-6.63.02-1.442.103-2.913-.149-4.336.286-1.03.418-2.097.24-3.246a5.657 5.657 0 0 0-.459-1.52l.787-.131c.694-.116 1.122-.934 1.026-1.572-.114-.76-.677-1.153-1.406-1.242a59.395 59.395 0 0 0-3.646-.331l-.178-.104c.172-.145.318-.304.422-.482.397-.678.2-1.476-.29-2.014-.083-.292-.316-.536-.67-.514l-.077.005c-.033-.012-.064-.026-.097-.036a2.502 2.502 0 0 0-.484-.097c.168-.444-.036-1.008-.622-.933A160.926 160.926 0 0 1 5.075 1.34c-.414-.011-.725-.086-.761.291-.008.083.1 2.127.12 2.378.214 2.51-.532 4.875-1.37 7.202-.131.165-1.492 3.616-2.348 7.56-2.224 10.253 1.386 42.935 2.273 47.435h9.319z" mask="url(#l)"/>
            </g>
            <path fill="#F9EBDB" d="M65.911 85.896c-.054-.223-.11-.445-.166-.668-.29-1.383-.269-2.826-.381-4.23a80.663 80.663 0 0 0-.624-5.44c.11-.723.256-1.44.406-2.161.288-1.382.583-2.778.65-4.192.067-1.435-.352-2.552-1.182-3.701-2.994-4.143-6.51-5.931-11.2-7.784-.125-.05-8.164-.627-10.643-.12-2.725.557-5.346.13-7.68 1.451-2.73 1.545-4.115 2.913-5.908 4.895a23.517 23.517 0 0 0-2.023 2.592c-1.748 2.581-2.455 6.386-3.373 9.402-.108.357-.826.234-.922.591-.222.827-.45 1.327-.603 2.142-.101.534.177.879.551 1.056 1.957.925 3.96 2.135 6.083 2.713 1.038.283 2.096.44 3.164.552.317.033.798.1 1.107.145-.133 1.919-.622 8.167-.808 9.266-.21 1.24-.271 5.151.744 6.122.913.872 3.687.888 5.007.907 2.833.041 6.498.077 9.011-.069 2.69-.155 6.026-.076 9.187-.59 2.662-.433 5.223-.184 7.76-1.203.824-.33.242-4.225.118-5.124a3.08 3.08 0 0 0 1.015-1.093c.84-.908.822-2.65.507-4.074.237-.364.338-.834.203-1.385"/>
            <path fill="#FF7900" d="M65.435 51.784c-.36-2.347-3.57-5.898-3.918-7.016-.387-1.25-.36-2.583-.21-3.87.307-2.643 1.174-5.242.873-7.93-.284-2.525-1.516-4.943-3.925-6.02-2.55-1.14-5.675-.83-8.246.067-.032.01-.06.025-.089.038-2.164-.554-3.423-.474-5.237-.375-1.98.108-3.542 1.895-4.803 3.656-1.505 2.104-1.154 6.105-1.61 6.978-.43.818-2.328.842-3.514 2.066-1.326 1.367-1.505 3.315-1.257 5.244.132 1.036.334 1.925-.07 2.929-.387.96-1.643 2.17-1.928 3.177-.729 2.566-.284 4.66.972 6.223 1.213 1.508 4.14 3.47 7.877 2.26 2.587-.836 2.345-1.712 3.358-3.705.56-1.101 1.134-2.52 1.256-3.89-.698-.853 1.906-2.187 1.406-3.176-.893-1.768.013-2.17-.656-4.033-.543-1.513-.828.966.596.418.842-.324 1.481-8.082 1.687-8.798.438-1.525 6.59 3.886 6.847 5.383-.196 1.282.725 1.867.358 2.997-.743 2.291.504 3.973-.828 5.761-.622.835-1.13 2.973-2.347 3.637-.148 2.21-1.122 2.055.25 3.82 1.298 1.667 3.925 3.153 6.063 3.256 2.109.102 4.158-.994 5.468-2.605 1.488-1.83 1.98-4.181 1.627-6.492"/>
            <path fill="#FAB08A" d="M53.531 57.891c-.028-.011-.547-.222-1.253-.27.35-2.895.543-4.805.838-8.124.1-1.132-9.093-2.902-9.093-2.902s-.349 4.29-.455 5.65c-.17 2.162-.314 3.62-.35 5.289a6.05 6.05 0 0 0-.397.066c-2.106.43-4.15.274-6.048.79.175.617.423 1.234.677 1.862.666 1.642 1.315 3.232 2.435 4.62 1.877 2.324 4.782 4.235 7.735 4.798 3.379.644 6.745-.112 9.316-2.455 1.766-1.61 2.833-3.777 3.336-6.075-1.985-1.392-4.15-2.225-6.74-3.249"/>
            <path fill="#FFF" d="M39.159 57.787c-.102-.674-.943-1.033-1.542-.876-.717.19-.976.877-.875 1.543 2.13 14.03.243 28.38-3.757 41.907a138.933 138.933 0 0 1-1.818 5.687c-.322.94-.655 1.877-.996 2.81-.089.243 2.137 1.434 2.474.511.416-1.141.818-2.287 1.206-3.439.705-2.096 1.363-4.21 1.966-6.337 2.462-8.685 4.04-17.669 4.283-26.704a85.363 85.363 0 0 0-.941-15.102"/>
            <g transform="translate(76.934 108.9)">
                <mask id="n" fill="#fff">
                    <use xlink:href="#m"/>
                </mask>
                <path fill="#005960" d="M.95 35.146c-.103 2.668-.116 5.34-.022 8.01.047 1.335.12 2.67.224 4.002.112 1.455.1 6.017.69 7.766h13.973c.472-1.743.495-6.259.678-7.632.354-2.662.69-5.327 1.035-7.99a808.359 808.359 0 0 1 .363-2.762l.089-.65c.182-1.33.37-2.66.569-3.987.196-1.31.41-2.613.638-3.914.145 2.884.28 5.767.422 8.65.134 2.716.275 5.43.44 8.144.077 1.298.161 5.998.251 7.295.067.96.09 1.963.44 2.846h10.774c.122-.215.23-.44.32-.68.452-1.187.573-5.933.795-7.179 1.86-10.47 3-21.073 3.37-31.7.088-2.52.304-5.234-.598-7.643-1.045-2.791-3.403-4.114-6.025-5.198a12.879 12.879 0 0 0-3.556-.93c-1.382-.153-3.103-.09-4.176.908-.034.032-.062.064-.094.096a2.336 2.336 0 0 0-.255-.214C20.596 1.55 19.643.916 18.403.588c-2.374-.628-4.717.166-6.44 1.736-.374-.982-1.137-1.79-2.254-2.044C7.967-.117 1.255-.085.864 1.829c-2.179 10.687.507 22.399.086 33.317" mask="url(#n)"/>
            </g>
            <path fill="#118C8C" d="M110.619 117.05c-.207-1.137-.682-2.186-1.339-3.114.085-.305.14-.626.16-.961.929-15.442-.093-30.973-2.92-46.18a187.144 187.144 0 0 0-2.836-12.743 2.971 2.971 0 0 0-.04-.14l1.47-.129c.882-.08 1.088-1.173.6-1.613-.028-.873-.143-1.305-.802-1.829-.855-.681-2.413-1.458-3.401-1.924-2.31-1.09-4.928-1.59-7.441-1.972-2.393-.363-4.717-.433-7.092.105-2.432.551-3.509.943-5.787 2.474-.181.122-2.883 4.431-2.824 4.56.026.357.246.706.6.824-.942 1.403-1.382 3.21-1.606 4.926a48.554 48.554 0 0 0-.391 8.03 53.928 53.928 0 0 0 1.039 8.677c.518 2.576 1.108 5.502 2.638 7.686.332.473.713.881 1.149 1.198a124.25 124.25 0 0 0-.407 9.287c-.007 1.073.01 2.146-.026 3.219-.017.51.054 1.193-.11 1.681.282-.843-.027.138-.06.309-.053.29-.112.576-.16.867a9.053 9.053 0 0 0-.122 1.893 28.574 28.574 0 0 0-3.064-.256 3.85 3.85 0 0 0-2.231-.08l-.878.227c-1.859.48-3.006 2.376-2.757 4.225.244 1.818 1.857 3.414 3.78 3.339l.024-.001c-.81.48-1.44 1.24-1.662 2.214-.452 1.986.596 4.224 2.688 4.736 1.635.4 3.19.243 4.809-.139.311-.073.62-.157.932-.226.104-.021.208-.043.311-.066a33.6 33.6 0 0 0 .184-.032c.205.003.438.028.512.03.141.005.281.014.421.03.296.028.187.014-.326-.044.222-.109 1.928-.324 1.797-.38.174.08 1.817 1.245 2.23 1.672 1.936 2 4.607 4.761 7.332 5.411 2.667.637 5.391.613 8.109.489 1.434-.066 3.096.108 4.493-.236 2.83-.695 3.455-3.556 3.004-6.044"/>
            <g transform="translate(105.22 66.636)">
                <mask id="p" fill="#fff">
                    <use xlink:href="#o"/>
                </mask>
                <path fill="#004472" d="M4.089 58.296a.988.988 0 0 0 .07-.03c.012.124.021.249.033.373l-.103-.343zM16.714 81.93c.028-2.32-.029-4.64-.156-6.956-.259-4.72-.813-9.42-1.533-14.091-.728-4.726-1.733-9.423-2.072-14.2-.336-4.733-.086-9.478.112-14.21.191-4.582.304-9.164-.15-13.724.325.111.654.202.995.256.214.034.643-.023.884.046.63.562 1.867.095 1.482-.822a2.06 2.06 0 0 0-.131-.259c.002-.013.008-.026.01-.04.378-.046.714-.323.728-.854a4.12 4.12 0 0 0-.139-1.193l-.442-3.8a.95.95 0 0 0-1.223-.82l-.275-1.642c-.12-.717-.936-.79-1.413-.43a109.91 109.91 0 0 1-.134-3.321c-.023-.934-1.178-1.147-1.637-.475l.053-2.034c.028-1.041-1.451-1.173-1.758-.238l-.01.03c.027-.762.063-1.524.108-2.286C10.075-.18 8.561-.292 8.255.63a20.925 20.925 0 0 0-.862 3.848c-.383-.14-.857-.033-1.094.361-.514-.183-1.236.086-1.28.806a166.835 166.835 0 0 0-.294 7.456c-.006.391-.018.786-.03 1.181-.396-.028-.819.17-.955.625-.137.457-.26.917-.375 1.377-.017-.167-.032-.334-.05-.5a.937.937 0 0 0-.122-.368l.02-.34c.025-.449-.266-.736-.62-.834a134.765 134.765 0 0 0-.452-4.566c-.132-1.131-1.924-1.145-1.79 0 .311 2.67.538 5.347.688 8.028-.02.414-.03.828-.03 1.243-.214 2.281-.179 4.583-.208 6.88l-.268 4.65c-1.2 7.861.34 29.112.808 31.776 1.154 6.561 3.366 12.887 5.916 19.023a222.226 222.226 0 0 0 2.193 5.082c.626 1.406 1.125 6.685 2.519 7.526a.843.843 0 0 0 .705.068l.055.248c.141.608 1.076.927 1.496.395a2.43 2.43 0 0 0 .374-.688c.035.019.071.037.109.051-.013.113-.024.227-.038.34-.04.34.091.577.298.714.226.904 1.711.816 1.76-.244.106-2.291-.023-12.146-.014-12.837z" mask="url(#p)"/>
            </g>
            <path fill="#F79C82" d="M52.28 57.65c.273-2.251.45-3.91.654-6.094a27.023 27.023 0 0 1-3.842-.868c-1.685-.513-3.852-1.12-5.141-2.386l-.056-.068c-.11 1.365-.26 3.226-.324 4.04-.17 2.161-.314 3.618-.35 5.289-.144.02-.277.04-.397.065l-.046.009c.585.236 1.277.323 1.83.408 1.42.217 2.858.3 4.293.2 1.17-.08 2.401-.235 3.558-.58a4.43 4.43 0 0 0-.178-.016M96.703 37.86c-.006-1.137-1.196-1.473-1.896-1.007a1.377 1.377 0 0 0-.896-.16c-.596.087-1.328-.213-1.899-.39a11.6 11.6 0 0 1-1.78-.714 13.202 13.202 0 0 1-3.18-2.249c-.379-.362-.82-.405-1.198-.264a3.555 3.555 0 0 0-.5-.66c-1.095-1.137-1.934.316-.911 1.52.811.956.987 6.032 1.008 7.397.039 2.49.022 4.05.21 6.056.09.955 3.825 1.635 5.103 1.635 3.222 0 5.467-1.094 5.521-1.512.49-3.832.437-5.792.418-9.652"/>
            <path fill="#FAB08A" d="M104.533 24.742c-.299.163-.607.31-.924.437-.307.156-.62.3-.937.432-1.993.83-4.129.917-6.105-.005-1.577-.735-2.811-1.985-3.831-3.373-.57.546-1.12 1.092-1.582 1.749-.568.81-.939 1.676-1.309 2.585-.687 1.69-1.215 2.19-3.283 1.663-.914-.233-.074-.59-2.182-.15-.29.061-1.302 1.277-1.354 1.523-.323 1.54.777 3.202 1.358 4.603.663 1.598 1.643 2.759 2.603 4.191.908 1.354 1.746 2.857 2.935 3.989.648.616 1.546 1.425 2.473 1.87 1.332.641 2.932.548 4.296-.296 1.743-1.078 3.004-2.955 3.906-4.758 2.543-5.08 3.66-10.92 3.893-13.82.014-.083.025-.166.03-.251a4.746 4.746 0 0 0-.006-.081l.019-.264v-.044M53.702 36.45c-1.617-.923-2.983-2.059-3.79-3.686a8.507 8.507 0 0 0-.661.047c-.28.032-2.096.289-2.896 2.03-.85 1.85-.204 5.079-1.672 5.228-.582.059-2.363-1.173-3.326.473-.732 1.252-.084 2.204.458 3.716.67 1.864 2.416 6.135 5.853 8.686 2.354 1.746 4.34 1.777 6.268.317 4.37-3.312 5.128-10.644 5.324-11.926a15.048 15.048 0 0 0-.294-1.343c-1.213-1.673-3.588-2.585-5.264-3.542"/>
            <g transform="translate(60.821 47.832)">
                <mask id="r" fill="#fff">
                    <use xlink:href="#q"/>
                </mask>
                <path fill="#004472" d="M1.498 37.086a98.757 98.757 0 0 0-.527 3.44c-.06.439.092.807.342 1.064-.046 1.008-.037 2.014.093 3.004.093.716.611 1.2 1.255 1.147.07.253.164.505.292.756.26.512.839.654 1.332.508.239.77 1.331.966 1.916.447l-.002.016c-.081 1.016 1.142 1.399 1.845.94.237.463.738.649 1.212.552l-.007.135c-.055 1.254 1.704 1.522 2.207.511l-.109.94c-.126 1.083 1.32 1.45 1.99.827.16.243.428.406.72.478.029.078.058.156.085.234.47 1.33.947 2.659 1.45 3.977.315.828.51 1.708.693 2.592a1.51 1.51 0 0 0-.422.667c-.134.422-.258.845-.376 1.27-.64-.367-1.526-.244-2.067.513-.315.44-.562.911-.763 1.402-.788-.512-2.116-.298-2.402.81-.159.614-.307 1.23-.448 1.847A1.446 1.446 0 0 0 9 64.785c-.381-.647-1.262-.946-1.938-.747a1.428 1.428 0 0 0-.884.374c.19-3.168.274-6.342.256-9.516-.01-1.958-3.054-1.963-3.043 0 .022 4.104-.123 8.208-.45 12.3-.322 4.035-.907 8.035-1.362 12.055a111.597 111.597 0 0 0 .32 27.628c.11.82.622 6.148 1.005 9.113H17.19c1.414-6.424-.008-15.887-.212-25.933-.148-7.3-2.385-12.705 3.662-21.968 1.69-2.588 2.806-12.154 3.429-18.467.198-1.593.356-3.187.454-4.785l.002-.02a.198.198 0 0 0 .001-.036c.147-2.434.151-4.875-.07-7.324-.194-2.162-.547-4.315-1.127-6.408-.575-2.078-1.372-4.085-2.092-6.115-.721-2.035-1.383-4.118-1.644-6.27-.27-2.23-.208-4.52.116-6.74.342-2.342 1.058-4.57 1.607-6.863.545-2.275 1.301-5.318.428-4.857-.135.071-4.924 2.667-11.01 7.831-2.433 2.064-4.523 5.014-5.91 7.904-2.97 6.185-3.168 13.12-4.7 19.704-.22.946.646 1.539 1.375 1.44" mask="url(#r)"/>
            </g>
            <path fill="#004472" d="M106.049 18.084c-.9-.338-1.985-.334-2.909-.596-3.355-.953-4.56-4.626-7.628-6.02-2.508-1.14-6.11-.344-7.62 1.937-1.707.168-3.37.63-4.753 1.71-1.663 1.297-2.331 3.19-2.575 5.228-.118.992-.114 1.998.006 2.99.016 2.155.29 4.308.842 6.395.55 2.077 1.576 3.9 3.337 5.246.098.074.18.126.25.158-.2-.39-3.27-5.484-.615-6.604 1.072-.452 1.438.494 2.312.717 2.068.526 2.462-.988 3.15-2.678.37-.91.74-1.776 1.308-2.585.461-.657 1.012-1.203 1.582-1.749 1.02 1.388 2.254 2.637 3.831 3.373 1.976.922 4.112.835 6.106.005.316-.131.629-.276.936-.432.154-.062.305-.129.455-.199l.04-.02c.146-.068.289-.141.43-.218l-.001.044-.019.264.006.081a2.265 2.265 0 0 1-.03.251c-.115 1.426-.444 3.563-1.05 5.97 1.751.747 3.723.75 5.347-.35 1.659-1.125 2.427-2.954 2.534-4.91.191-3.487-1.613-7.44-5.272-8.008M79.056 104.305a30.086 30.086 0 0 0-1.787-4.584c-.454-.944-1.822-.67-2.249.08-.68-1.17-1.36-2.34-2.036-3.513-.381-.648-1.052-.721-1.578-.474-.383-.48-.788-.946-1.226-1.389-.466-.472-1.038-.461-1.47-.195a66.68 66.68 0 0 0-.413-.587 1.274 1.274 0 0 0-1.235-.551 1.26 1.26 0 0 0-.654.02l.247-1.598c.104-.675-.172-1.34-.876-1.543a1.125 1.125 0 0 0-.355-.04c-.114-1.143-.02-2.747-.774-3.596.037-.192.076-.383.12-.574.224-.983-.639-1.614-1.404-1.562.37-2.015.782-4.024 1.154-6.033.291-1.577-2.124-2.253-2.417-.666-1.155 6.242-2.62 12.47-2.164 18.86.428 6.019 2.155 11.941 5.113 17.206 1.585 2.822 3.592 5.414 6.322 7.206 1.038.683.934.217 1.157-1.41.565-4.127 6.176-10.452 9.197-13.12.613-.542-2.56-1.557-2.672-1.937"/>
            <path fill="#1D2342" d="M81.718 106.251c-3.024 2.674-8.622 8.988-9.187 13.112-.109.79-.14 1.305-.263 1.548 1.499-.114 2.98-2.06 3.746-3.095a12.278 12.278 0 0 0 1.498-2.681c.184-.453.468-1.059.54-1.631a.187.187 0 0 0 .056-.033 8.98 8.98 0 0 0 .858-.844.179.179 0 0 0 .08-.07l.034-.06c1.445-1.676 2.258-3.934 2.682-6.118.012-.063-.01-.104-.044-.128"/>
            <path fill="#FAB08A" d="M86.853 116.747a4.784 4.784 0 0 0-2.167-1.94c-1.032-.47-2.2-.388-3.217-.853a245.194 245.194 0 0 0-3.46-3.907c-1.26 1.451-2.516 3.075-3.513 4.673l3.606 3.586c.259 1.625.26 3.357 1.993 2.31 1.18-.714 2.86-1.817 4.14-2.35.653-.273 2.79-1.227 2.618-1.52"/>
            <path fill="#004472" d="M131.987 82.451c-1.618-4.626-4.142-8.88-6.973-12.858a93.215 93.215 0 0 0-9.376-11.234 85.353 85.353 0 0 0-6.21-5.739 28.307 28.307 0 0 0-6.347-4.027c-1.662-.769-1.694-.696-1.75.33-.24 4.378-.48 8.782-.035 13.156.439 4.297 1.54 8.492 2.162 12.763 1.261 8.662 1.313 17.45 1.344 26.186.017 5.006.618 10.621.81 15.624.044 1.15 1.24.547 1.196-.608-.34-8.842-.088-17.693-.375-26.536-.141-4.347-.415-8.693-.96-13.008a64.578 64.578 0 0 0-.208-1.501c.51.103 1.067-.185 1.06-.84v-.013c.045.17.087.342.135.512.187.667.933.795 1.398.455a.92.92 0 0 0 .206-.047l.12.416c.274.923 1.896.8 1.759-.238-.01-.08-.026-.158-.038-.237a16.033 16.033 0 0 0-.198-1.073c.232.388.492.764.787 1.124.462.563 1.16.236 1.415-.295.09-.03.177-.072.255-.124.441.906.916 1.797 1.435 2.667.266.448.78.522 1.224.321.86-.386.913-1.384.732-2.19-.262-1.168-.688-2.316-1.075-3.45a.933.933 0 0 0 .03-.47c-.087-.482-.186-.96-.29-1.438.19.302.376.607.563.91a179.82 179.82 0 0 0 5.174 9.708c.143.248.338.38.545.424a.965.965 0 0 0 .028.727l.71 1.657c-.563.105-1.699-.454-1.29.152 1.724 2.553 3.517 6.61 3.89 9.674.32 2.635.676 6.78-1.783 9.112-.712.676.287 1.242 1.324 1.032a.863.863 0 0 0 .384-.092c2.068-.51 4.19-1.115 5.937-2.37 1.767-1.27 2.926-3.095 3.498-5.182 1.186-4.33.237-9.235-1.213-13.38"/>
            <path fill="#1D2342" d="M122.057 102.443c2.459-2.332 2.102-6.477 1.782-9.112-.345-2.838-1.91-6.527-3.508-9.085-3.173 2.995-2.403 8.05-1.562 11.89.438 1.997.977 4.146 2.128 5.866.321.48.788 1.201 1.397 1.406-.465-.178-.673-.55-.237-.965"/>
            <path fill="#004472" d="M117.351 104.982l-24.016-1.97 2.89-35.266 24.017 1.97z"/>
            <path fill="#FF7900" d="M115.162 105.769l-24.017-1.97 2.89-35.267 24.017 1.97z"/>
            <path fill="#9CD8DC" d="M118.156 106.868l-24.016-1.97 2.89-35.267 24.017 1.97z"/>
            <path fill="#FAB08A" d="M90.366 83.873c-.474.495.045 1.076.657 1.343.152.066.327.117.515.158-1.083.018-.674 1.015.047 1.175.468.105.943.235 1.463.294-.328.179-.406.48-.24.771.234.41 1.596.352 2.652.288 2.587-.157 5.1 2.194 7.69 2.041.696.46 19.905 4.457 20.546 4.92.446.322.26-.06.305-.684-.11-1.633-1.606-5.345-2.089-5.6-2.252-1.187-19.413-4.484-20.504-5.168-1.276-.801-2.457-1.83-3.959-2.054-1.635-.244-3.56.025-5.173.376-.316.069-.575.349-.597.61"/>
            <path fill="#FF7900" d="M44.574 50.33c-.904-5.46-2.836-4.76-3.517-8.87-.131-.793-2.316-.104-2.079.67.717 2.341-3.133 4.035-2.007 6.158.619 1.165 1.4 4.762 2.1 7.513a1.47 1.47 0 0 0-.228.257 1.516 1.516 0 0 0-.158.003c-.296-.005-.593-.022-.89-.006-.66.037-1.32.158-1.665.795-.186.347-.201.7-.087 1.028.013.132.046.262.103.387.004.022.006.045.011.068.011.247.096.483.271.667.069.093.187.392.279.46.986.216 2.052.046 2.36-.003.332-.053 1.03-.195 1.283-.245 5.345-1.058 4.685-6.096 4.224-8.882M60.546 40.722c-.749-1.987-1.748-4.174-3.426-5.548-.845-.692-1.76-1.269-2.558-2.022-.76-.719-1.482-1.481-2.35-2.073-.523-.358-1.284-.84-1.818-.234a.902.902 0 0 0-.203.378c-.362-.082-.801.191-.652.642.706 2.125 2.263 3.5 4.163 4.585 1.987 1.134 4.957 2.208 5.808 4.558.24.639 1.273.37 1.036-.286M169.411 62.257c-1.768-6.348-4.574-13.17-9.716-17.074-2.103-1.596-8-4.585-9.04-4.484-.125.012-.185 1.164-.192 1.328-.015.35-.397 9.421-.554 13.36-.178 4.483-.251 8.965.301 13.427.537 4.34 1.48 8.618 2.22 12.926.768 4.463 1.407 8.95 1.913 13.45.563 5.007.96 10.031 1.204 15.064a.47.47 0 0 0 .028.136l.114 7.464c.004.25.202.437.448.447 1.217.052 2.089-1.19 2.677-2.11.736-1.154 1.218-2.445 1.824-3.666.656-1.322 1.505-2.293 2.552-3.314.62-.602 1.16-2.034 1.205-2.803 0-.014-.019-.019-.028-.029.426-.901-3.483-26.986-3.81-30.268a60.932 60.932 0 0 0-.285-2.671c-.03-.266-.063-.531-.094-.797a54.873 54.873 0 0 0 7.68-3.223c1.238-.636 2.315-1.149 2.279-2.691-.036-1.502-.324-3.029-.726-4.472"/>
            <path fill="#FFF" d="M155.58 42.34c2.187.718 6.319 3.722 6.352 3.747.37.283.813.39.863 1.353.119 2.292-.336 7.163-.55 9.45-.36 3.834-.316 11.98-1.968 15.462-.008.112-1.089 1.05-1.165.595-.406-2.417-2.145-14.114-2.355-16.404-.422-4.607-.971-9.2-1.634-13.78-.037-.26.18-.514.457-.423"/>
            <g>
                <path fill="#3D2459" d="M91.697 32.29c-.124.552-.46.945-.754.879-.292-.066-.43-.566-.307-1.117.124-.55.46-.944.754-.878.292.066.43.566.307 1.117M98.977 33.109c-.123.55-.46.944-.753.878-.293-.066-.43-.566-.307-1.117s.46-.944.753-.878c.293.066.43.566.307 1.117"/>
                <path fill="#FFF" d="M96.572 38.91c-1.332.324-1.775.563-2.712.433-.523-.073-1.73-.473-2.3-.76-.251-.125-.626-.212-.747-.013-.19.315 1.22 2.027 2.873 2.259.98.137 2.7-.295 3.205-1.577.019-.047.062-.21.006-.287-.06-.083-.223-.079-.325-.054"/>
                <path fill="#3D2459" d="M93.185 28.637c-.376-.413-1.44-.39-1.914-.234-.03.01-.066.024-.107.043-.342.112-.98.484-.518.811.187.132.5.071.713.068.448-.007.925.031 1.37-.031.334-.047.775-.305.456-.657M100.392 30.034c-.077-.183-.273-.337-.41-.44a2.018 2.018 0 0 0-.158-.102.15.15 0 0 0-.106-.113 4.537 4.537 0 0 0-.301-.077c-.31-.108-.65-.155-.959-.098-.29.025-.501.134-.46.411.041.287.382.357.607.433.232.08.465.156.698.231.227.074.507.214.748.226a.47.47 0 0 0 .113-.007c.07.013.14.01.202-.027.195-.115.135-.291.026-.437"/>
                <path fill="#F09F7C" d="M95.777 33.575c-.006-.21-.332-.21-.326 0 .022.678.09 1.376.063 2.053-.034.821-.672 2.089-1.595 1.186-.15-.147-.38.084-.23.231.539.528 1.244.574 1.72-.024.73-.918.402-2.369.368-3.446"/>
                <path fill="#3D2459" d="M134.061 22.955c-.058.43.08.803.31.834.228.03.46-.293.518-.723.057-.43-.081-.803-.31-.834-.228-.031-.46.292-.518.723M135.668 20.473c-.293-.423-1.266-.531-1.717-.446a.907.907 0 0 0-.103.026c-.326.061-.952.323-.57.678.155.143.448.125.642.148.41.047.84.14 1.253.137.31-.002.744-.184.495-.543M141.412 23.658c-.047.431-.27.76-.5.736-.23-.025-.377-.395-.33-.826.046-.432.27-.761.499-.736.23.025.377.395.33.826M140.444 20.862c.385-.34 1.355-.21 1.773-.02.027.012.059.03.093.05.303.138.848.543.392.795-.184.102-.464.014-.658-.01-.41-.053-.85-.066-1.25-.168-.3-.077-.678-.357-.35-.647"/>
                <path fill="#F09F7C" d="M137.723 26.923c-.27-.035-.75-.07-.925-.305-.27-.362-.195-.869-.098-1.267.148-.61.355-1.21.535-1.811.055-.186-.236-.259-.291-.074-.247.825-.777 1.9-.638 2.784.11.7.728.884 1.344.965.19.025.264-.266.073-.292"/>
                <path fill="#FFF" d="M135.516 28.566c-.048.059-.02.19-.008.229.345 1.047 1.23 1.949 2.538 1.854 1.332-.096 2.486-1.864 2.348-2.124-.088-.165-.391-.112-.598-.023-.468.203-1.45.468-1.871.503-.754.061-1.097-.15-2.147-.468-.08-.025-.21-.035-.262.029"/>
                <path fill="#E65F45" d="M52.641 48.102c-1.157.14-1.556.297-2.333.093-.435-.114-1.414-.573-1.867-.872-.2-.131-.508-.242-.63-.086-.192.247.691 2.31 2.068 2.657 1.352.34 2.443-.44 2.998-1.472.02-.038.073-.17.033-.241-.042-.076-.18-.09-.269-.079"/>
                <path fill="#3D2459" d="M48.734 42.271c-.121.445-.411.753-.648.688-.236-.065-.33-.478-.208-.923.121-.445.411-.753.648-.687.236.064.33.478.208.922M55.569 43.374c-.122.445-.412.753-.648.688-.236-.065-.33-.478-.209-.923.122-.445.412-.753.648-.688.237.065.33.478.209.923"/>
                <path fill="#F07A58" d="M49.743 39.921c-.288-.465-1.314-.635-1.798-.57a1.01 1.01 0 0 0-.11.022c-.35.046-1.03.288-.644.686.156.16.469.159.673.194.432.073.884.197 1.322.217.33.015.8-.153.557-.549M54.62 40.618c.405-.367 1.313-.226 1.756-.021.226.104.914.575.433.85-.195.11-.494.02-.7-.003-.436-.05-.681-.04-1.107-.144-.321-.077-.727-.37-.382-.682"/>
                <path fill="#F09F7C" d="M53.087 43.945c-.021-.205-.34-.183-.319.022.053.52.227 1.206.03 1.704-.263.66-.997.91-1.633.638-.188-.08-.33.207-.14.287.639.273 1.37.162 1.825-.391.527-.641.312-1.506.237-2.26"/>
            </g>
        </g>
    </g>
</svg>
