<svg xmlns="http://www.w3.org/2000/svg" xmlns:xlink="http://www.w3.org/1999/xlink" width="218" height="149" viewBox="0 0 218 149">
    <defs>
        <path id="a" d="M101.977 1c70.095 2.797 47.686 31.604 65.998 51 11.803 12.501 30.025 41.656 4.097 59.088-33.925 22.807-72.693 16.097-96.617 11.816-9.046-1.619-43.744 5.88-56.328-2.369C3.16 110.07 20.49 91.631 9.418 80-1.68 68.342-3.526 51.594 7.506 34.516 21.854 12.306 49.268-1.103 101.976 1z"/>
        <ellipse id="c" cx="5.62" cy="1.519" rx="5.62" ry="1.519"/>
        <ellipse id="e" cx="5.62" cy="1.519" rx="5.62" ry="1.519"/>
        <ellipse id="g" cx="5.62" cy="1.519" rx="5.62" ry="1.519"/>
        <ellipse id="i" cx="5.62" cy="1.519" rx="5.62" ry="1.519"/>
        <ellipse id="k" cx="5.62" cy="1.519" rx="5.62" ry="1.519"/>
        <ellipse id="m" cx="5.62" cy="1.519" rx="5.62" ry="1.519"/>
        <ellipse id="o" cx="5.62" cy="1.519" rx="5.62" ry="1.519"/>
        <ellipse id="q" cx="5.62" cy="1.519" rx="5.62" ry="1.519"/>
        <ellipse id="s" cx="5.62" cy="1.519" rx="5.62" ry="1.519"/>
        <ellipse id="u" cx="5.62" cy="1.519" rx="5.62" ry="1.519"/>
        <ellipse id="w" cx="5.62" cy="1.519" rx="5.62" ry="1.519"/>
        <ellipse id="y" cx="5.62" cy="1.519" rx="5.62" ry="1.519"/>
        <ellipse id="A" cx="5.62" cy="1.519" rx="5.62" ry="1.519"/>
        <ellipse id="C" cx="5.62" cy="1.519" rx="5.62" ry="1.519"/>
        <ellipse id="E" cx="5.62" cy="1.519" rx="5.62" ry="1.519"/>
        <ellipse id="G" cx="5.62" cy="1.519" rx="5.62" ry="1.519"/>
        <ellipse id="I" cx="5.62" cy="1.519" rx="5.62" ry="1.519"/>
        <ellipse id="K" cx="5.62" cy="1.519" rx="5.62" ry="1.519"/>
        <ellipse id="M" cx="5.62" cy="1.519" rx="5.62" ry="1.519"/>
        <ellipse id="O" cx="5.62" cy="1.519" rx="5.62" ry="1.519"/>
        <ellipse id="Q" cx="5.62" cy="1.519" rx="5.62" ry="1.519"/>
        <ellipse id="S" cx="5.62" cy="1.519" rx="5.62" ry="1.519"/>
        <ellipse id="U" cx="5.62" cy="1.519" rx="5.62" ry="1.519"/>
        <ellipse id="W" cx="5.62" cy="1.519" rx="5.62" ry="1.519"/>
        <ellipse id="Y" cx="5.62" cy="1.519" rx="5.62" ry="1.519"/>
        <ellipse id="aa" cx="5.62" cy="1.519" rx="5.62" ry="1.519"/>
        <ellipse id="ac" cx="5.62" cy="1.519" rx="5.62" ry="1.519"/>
        <ellipse id="ae" cx="5.62" cy="1.519" rx="5.62" ry="1.519"/>
        <ellipse id="ag" cx="5.62" cy="1.519" rx="5.62" ry="1.519"/>
        <ellipse id="ai" cx="5.62" cy="1.519" rx="5.62" ry="1.519"/>
        <ellipse id="ak" cx="5.62" cy="1.519" rx="5.62" ry="1.519"/>
        <ellipse id="am" cx="5.62" cy="1.519" rx="5.62" ry="1.519"/>
        <ellipse id="ao" cx="5.62" cy="1.519" rx="5.62" ry="1.519"/>
        <ellipse id="aq" cx="5.62" cy="1.519" rx="5.62" ry="1.519"/>
        <ellipse id="as" cx="5.62" cy="1.519" rx="5.62" ry="1.519"/>
        <ellipse id="au" cx="5.62" cy="1.519" rx="5.62" ry="1.519"/>
        <ellipse id="aw" cx="5.62" cy="1.519" rx="5.62" ry="1.519"/>
        <ellipse id="ay" cx="5.62" cy="1.519" rx="5.62" ry="1.519"/>
        <ellipse id="aA" cx="5.62" cy="1.519" rx="5.62" ry="1.519"/>
        <ellipse id="aC" cx="5.62" cy="1.519" rx="5.62" ry="1.519"/>
        <ellipse id="aE" cx="5.62" cy="1.519" rx="5.62" ry="1.519"/>
        <ellipse id="aG" cx="5.62" cy="1.519" rx="5.62" ry="1.519"/>
        <ellipse id="aI" cx="5.62" cy="1.519" rx="5.62" ry="1.519"/>
        <ellipse id="aK" cx="5.62" cy="1.519" rx="5.62" ry="1.519"/>
        <ellipse id="aM" cx="5.62" cy="1.519" rx="5.62" ry="1.519"/>
        <ellipse id="aO" cx="5.62" cy="1.519" rx="5.62" ry="1.519"/>
        <ellipse id="aQ" cx="5.62" cy="1.519" rx="5.62" ry="1.519"/>
        <ellipse id="aS" cx="5.62" cy="1.519" rx="5.62" ry="1.519"/>
        <ellipse id="aU" cx="5.62" cy="1.519" rx="5.62" ry="1.519"/>
        <ellipse id="aW" cx="5.62" cy="1.519" rx="5.62" ry="1.519"/>
        <ellipse id="aY" cx="5.62" cy="1.519" rx="5.62" ry="1.519"/>
        <ellipse id="ba" cx="5.62" cy="1.519" rx="5.62" ry="1.519"/>
        <ellipse id="bc" cx="3.266" cy="5.549" rx="3.266" ry="5.549"/>
    </defs>
    <g fill="none" fill-rule="evenodd">
        <g transform="translate(20 13)">
            <mask id="b" fill="#fff">
                <use xlink:href="#a"/>
            </mask>
            <use fill="#00C1C6" xlink:href="#a"/>
            <g mask="url(#b)">
                <path fill="#BFE4E6" d="M36.647 66h160.471l-54.451 91.805-185.919-2.272z"/>
                <path fill="#AAD6D8" d="M196.857 66l-.34 13.517-53.35 91.853L142 157.805"/>
            </g>
            <g mask="url(#b)">
                <g transform="translate(63 50)">
                    <path fill="#3AC6CA" d="M43.36 15.85c.957 1.053 1.746 2.453 2.413 4.388.897 2.602 2.579 47.913-1.748 53.754-7.073 9.549-34.313 9.021-40.83.196-4-5.416-3.337-50.653-2.76-53.145.578-2.492 1.95-4.354 2.76-5.193.671-.695 39.209-1.053 40.165 0z"/>
                    <path fill="#3AC6CA" d="M22.13 19.33c10.53 0 18.026-1.368 21.663-3.708.529-1.676.529-2.532.81-4.485-16.018 1.628-12.937 1.953-22.868 1.953-9.412 0-6.797.446-20.597-1.507.391 2.799.524 3.011 1.148 4.35 3.72 1.979 10.32 3.397 19.844 3.397z"/>
                    <path fill="#FFF" d="M22.873 17.262c10.838 0 19.815-2.725 21.748-4.466.172-.155.015-1.02-.27-.982-2.032.27-10.754 3.775-21.483 3.775-10.756 0-19.454-3.25-21.627-3.457-.298-.028-.169.562-.21.664-.345.847 9.613 4.466 21.842 4.466z" opacity=".884"/>
                    <path fill="#B89357" d="M23.78 16.308c10.772 0 18.213-2.296 20.705-4.495.444-.393.478-5.685.478-6.108C44.963 2.913 36.475 0 23.78 0 11.084 0 .688 2.913.688 5.705c0 .567-.119 5.819.664 6.328 3.073 1.996 12.311 4.275 22.428 4.275z"/>
                    <ellipse cx="22.819" cy="5.906" fill="#FFF" rx="22.138" ry="5.906"/>
                    <ellipse cx="22.819" cy="5.737" fill="#E8CF98" rx="22.138" ry="5.737"/>
                    <ellipse cx="22.819" cy="5.063" fill="#DDC07A" rx="17.71" ry="4.05"/>
                    <path fill="#C3A464" d="M22.819 9.113c6.295 0-.473-.066-6.06-1.101-3.094-.574-5.792-1.827-5.792-2.624 0-1.306 4.554-2.757 8.744-3.59 2.983-.594 7.176-.786 3.108-.786-9.781 0-17.71 1.814-17.71 4.05 0 2.237 7.929 4.05 17.71 4.05z"/>
                    <path fill="#AE8B54" d="M22.819 9.113c6.295 0-4.117-.066-9.704-1.101C10.02 7.438 7.32 5.944 7.32 5.147c0-1.307 1.252-2.032 5.442-2.865 2.983-.594 14.124-1.27 10.056-1.27-9.781 0-17.71 1.814-17.71 4.05 0 2.237 7.929 4.05 17.71 4.05z"/>
                    <rect width="13.283" height="1" x="16.688" y="4.388" fill="#AE8B54" rx=".5"/>
                    <path fill="#E8F8F8" d="M3.923 17.262c1.73.719 3.177 1.253 4.345 1.603 1.167.35 3.065.802 5.694 1.356A73.586 73.586 0 0 0 9.269 33.75C8.484 37 8.067 39.974 7.172 45.9c-.262 1.737-1.72 4.94-4.373 9.608-.45-9.3-.586-16.552-.41-21.758.177-5.206.689-10.702 1.534-16.488z" opacity=".717"/>
                    <g transform="translate(24.862 71.213)">
                        <path fill="#F19F07" d="M6.972 4.725c3.874 0 6.465-.75 6.952-2.091.068-.188.036-.65 0-.75C13.494.675 10.55 0 6.972 0 3.409 0 .467.758.017 1.958c-.039.105 0 .513 0 .621 0 1.352 3.081 2.146 6.955 2.146z"/>
                        <ellipse cx="7.152" cy="1.856" fill="#FEE34B" rx="6.812" ry="1.856"/>
                        <ellipse cx="7.152" cy="1.688" fill="#F19F07" rx="5.79" ry="1.688"/>
                        <g transform="translate(1.362)">
                            <mask id="d" fill="#fff">
                                <use xlink:href="#c"/>
                            </mask>
                            <use fill="#FEE34B" xlink:href="#c"/>
                            <path fill="#FFFBB6" d="M1.802.125L2.896 3.26l3.875-.054L3.886.126zM.256.315l.8 2.385h.5L.906.315zM5.108 0L7.37 2.904l1.47-.156L5.571 0z" mask="url(#d)"/>
                        </g>
                    </g>
                    <g transform="translate(24.862 69.188)">
                        <path fill="#F19F07" d="M6.972 4.725c3.874 0 6.465-.75 6.952-2.091.068-.188.036-.65 0-.75C13.494.675 10.55 0 6.972 0 3.409 0 .467.758.017 1.958c-.039.105 0 .513 0 .621 0 1.352 3.081 2.146 6.955 2.146z"/>
                        <ellipse cx="7.152" cy="1.856" fill="#FEE34B" rx="6.812" ry="1.856"/>
                        <ellipse cx="7.152" cy="1.688" fill="#F19F07" rx="5.79" ry="1.688"/>
                        <g transform="translate(1.362)">
                            <mask id="f" fill="#fff">
                                <use xlink:href="#e"/>
                            </mask>
                            <use fill="#FEE34B" xlink:href="#e"/>
                            <path fill="#FFFBB6" d="M1.802.125L2.896 3.26l3.875-.054L3.886.126zM.256.315l.8 2.385h.5L.906.315zM5.108 0L7.37 2.904l1.47-.156L5.571 0z" mask="url(#f)"/>
                        </g>
                    </g>
                    <g transform="translate(24.862 66.825)">
                        <path fill="#F19F07" d="M6.972 4.725c3.874 0 6.465-.75 6.952-2.091.068-.188.036-.65 0-.75C13.494.675 10.55 0 6.972 0 3.409 0 .467.758.017 1.958c-.039.105 0 .513 0 .621 0 1.352 3.081 2.146 6.955 2.146z"/>
                        <ellipse cx="7.152" cy="1.856" fill="#FEE34B" rx="6.812" ry="1.856"/>
                        <ellipse cx="7.152" cy="1.688" fill="#F19F07" rx="5.79" ry="1.688"/>
                        <g transform="translate(1.362)">
                            <mask id="h" fill="#fff">
                                <use xlink:href="#g"/>
                            </mask>
                            <use fill="#FEE34B" xlink:href="#g"/>
                            <path fill="#FFFBB6" d="M1.802.125L2.896 3.26l3.875-.054L3.886.126zM.256.315l.8 2.385h.5L.906.315zM5.108 0L7.37 2.904l1.47-.156L5.571 0z" mask="url(#h)"/>
                        </g>
                    </g>
                    <g transform="translate(14.304 72.225)">
                        <path fill="#F19F07" d="M6.972 4.725c3.874 0 6.465-.75 6.952-2.091.068-.188.036-.65 0-.75C13.494.675 10.55 0 6.972 0 3.409 0 .467.758.017 1.958c-.039.105 0 .513 0 .621 0 1.352 3.081 2.146 6.955 2.146z"/>
                        <ellipse cx="7.152" cy="1.856" fill="#FEE34B" rx="6.812" ry="1.856"/>
                        <ellipse cx="7.152" cy="1.688" fill="#F19F07" rx="5.79" ry="1.688"/>
                        <g transform="translate(1.362)">
                            <mask id="j" fill="#fff">
                                <use xlink:href="#i"/>
                            </mask>
                            <use fill="#FEE34B" xlink:href="#i"/>
                            <path fill="#FFFBB6" d="M1.802.125L2.896 3.26l3.875-.054L3.886.126zM.256.315l.8 2.385h.5L.906.315zM5.108 0L7.37 2.904l1.47-.156L5.571 0z" mask="url(#j)"/>
                        </g>
                    </g>
                    <g transform="translate(13.964 70.875)">
                        <path fill="#F19F07" d="M6.972 4.725c3.874 0 6.465-.75 6.952-2.091.068-.188.036-.65 0-.75C13.494.675 10.55 0 6.972 0 3.409 0 .467.758.017 1.958c-.039.105 0 .513 0 .621 0 1.352 3.081 2.146 6.955 2.146z"/>
                        <ellipse cx="7.152" cy="1.856" fill="#FEE34B" rx="6.812" ry="1.856"/>
                        <ellipse cx="7.152" cy="1.688" fill="#F19F07" rx="5.79" ry="1.688"/>
                        <g transform="translate(1.362)">
                            <mask id="l" fill="#fff">
                                <use xlink:href="#k"/>
                            </mask>
                            <use fill="#FEE34B" xlink:href="#k"/>
                            <path fill="#FFFBB6" d="M1.802.125L2.896 3.26l3.875-.054L3.886.126zM.256.315l.8 2.385h.5L.906.315zM5.108 0L7.37 2.904l1.47-.156L5.571 0z" mask="url(#l)"/>
                        </g>
                    </g>
                    <g transform="translate(9.536 69.525)">
                        <path fill="#F19F07" d="M6.972 4.725c3.874 0 6.465-.75 6.952-2.091.068-.188.036-.65 0-.75C13.494.675 10.55 0 6.972 0 3.409 0 .467.758.017 1.958c-.039.105 0 .513 0 .621 0 1.352 3.081 2.146 6.955 2.146z"/>
                        <ellipse cx="7.152" cy="1.856" fill="#FEE34B" rx="6.812" ry="1.856"/>
                        <ellipse cx="7.152" cy="1.688" fill="#F19F07" rx="5.79" ry="1.688"/>
                        <g transform="translate(1.362)">
                            <mask id="n" fill="#fff">
                                <use xlink:href="#m"/>
                            </mask>
                            <use fill="#FEE34B" xlink:href="#m"/>
                            <path fill="#FFFBB6" d="M1.802.125L2.896 3.26l3.875-.054L3.886.126zM.256.315l.8 2.385h.5L.906.315zM5.108 0L7.37 2.904l1.47-.156L5.571 0z" mask="url(#n)"/>
                        </g>
                    </g>
                    <g transform="translate(16.688 67.5)">
                        <path fill="#F19F07" d="M6.972 4.725c3.874 0 6.465-.75 6.952-2.091.068-.188.036-.65 0-.75C13.494.675 10.55 0 6.972 0 3.409 0 .467.758.017 1.958c-.039.105 0 .513 0 .621 0 1.352 3.081 2.146 6.955 2.146z"/>
                        <ellipse cx="7.152" cy="1.856" fill="#FEE34B" rx="6.812" ry="1.856"/>
                        <ellipse cx="7.152" cy="1.688" fill="#F19F07" rx="5.79" ry="1.688"/>
                        <g transform="translate(1.362)">
                            <mask id="p" fill="#fff">
                                <use xlink:href="#o"/>
                            </mask>
                            <use fill="#FEE34B" xlink:href="#o"/>
                            <path fill="#FFFBB6" d="M1.802.125L2.896 3.26l3.875-.054L3.886.126zM.256.315l.8 2.385h.5L.906.315zM5.108 0L7.37 2.904l1.47-.156L5.571 0z" mask="url(#p)"/>
                        </g>
                    </g>
                    <g transform="translate(25.203 64.8)">
                        <path fill="#F19F07" d="M6.972 4.725c3.874 0 6.465-.75 6.952-2.091.068-.188.036-.65 0-.75C13.494.675 10.55 0 6.972 0 3.409 0 .467.758.017 1.958c-.039.105 0 .513 0 .621 0 1.352 3.081 2.146 6.955 2.146z"/>
                        <ellipse cx="7.152" cy="1.856" fill="#FEE34B" rx="6.812" ry="1.856"/>
                        <ellipse cx="7.152" cy="1.688" fill="#F19F07" rx="5.79" ry="1.688"/>
                        <g transform="translate(1.362)">
                            <mask id="r" fill="#fff">
                                <use xlink:href="#q"/>
                            </mask>
                            <use fill="#FEE34B" xlink:href="#q"/>
                            <path fill="#FFFBB6" d="M1.802.125L2.896 3.26l3.875-.054L3.886.126zM.256.315l.8 2.385h.5L.906.315zM5.108 0L7.37 2.904l1.47-.156L5.571 0z" mask="url(#r)"/>
                        </g>
                    </g>
                    <g transform="translate(24.862 62.775)">
                        <path fill="#F19F07" d="M6.972 4.725c3.874 0 6.465-.75 6.952-2.091.068-.188.036-.65 0-.75C13.494.675 10.55 0 6.972 0 3.409 0 .467.758.017 1.958c-.039.105 0 .513 0 .621 0 1.352 3.081 2.146 6.955 2.146z"/>
                        <ellipse cx="7.152" cy="1.856" fill="#FEE34B" rx="6.812" ry="1.856"/>
                        <ellipse cx="7.152" cy="1.688" fill="#F19F07" rx="5.79" ry="1.688"/>
                        <g transform="translate(1.362)">
                            <mask id="t" fill="#fff">
                                <use xlink:href="#s"/>
                            </mask>
                            <use fill="#FEE34B" xlink:href="#s"/>
                            <path fill="#FFFBB6" d="M1.802.125L2.896 3.26l3.875-.054L3.886.126zM.256.315l.8 2.385h.5L.906.315zM5.108 0L7.37 2.904l1.47-.156L5.571 0z" mask="url(#t)"/>
                        </g>
                    </g>
                    <g transform="translate(28.268 61.087)">
                        <path fill="#F19F07" d="M6.972 4.725c3.874 0 6.465-.75 6.952-2.091.068-.188.036-.65 0-.75C13.494.675 10.55 0 6.972 0 3.409 0 .467.758.017 1.958c-.039.105 0 .513 0 .621 0 1.352 3.081 2.146 6.955 2.146z"/>
                        <ellipse cx="7.152" cy="1.856" fill="#FEE34B" rx="6.812" ry="1.856"/>
                        <ellipse cx="7.152" cy="1.688" fill="#F19F07" rx="5.79" ry="1.688"/>
                        <g transform="translate(1.362)">
                            <mask id="v" fill="#fff">
                                <use xlink:href="#u"/>
                            </mask>
                            <use fill="#FEE34B" xlink:href="#u"/>
                            <path fill="#FFFBB6" d="M1.802.125L2.896 3.26l3.875-.054L3.886.126zM.256.315l.8 2.385h.5L.906.315zM5.108 0L7.37 2.904l1.47-.156L5.571 0z" mask="url(#v)"/>
                        </g>
                    </g>
                    <g transform="translate(22.819 60.075)">
                        <path fill="#F19F07" d="M6.972 4.725c3.874 0 6.465-.75 6.952-2.091.068-.188.036-.65 0-.75C13.494.675 10.55 0 6.972 0 3.409 0 .467.758.017 1.958c-.039.105 0 .513 0 .621 0 1.352 3.081 2.146 6.955 2.146z"/>
                        <ellipse cx="7.152" cy="1.856" fill="#FEE34B" rx="6.812" ry="1.856"/>
                        <ellipse cx="7.152" cy="1.688" fill="#F19F07" rx="5.79" ry="1.688"/>
                        <g transform="translate(1.362)">
                            <mask id="x" fill="#fff">
                                <use xlink:href="#w"/>
                            </mask>
                            <use fill="#FEE34B" xlink:href="#w"/>
                            <path fill="#FFFBB6" d="M1.802.125L2.896 3.26l3.875-.054L3.886.126zM.256.315l.8 2.385h.5L.906.315zM5.108 0L7.37 2.904l1.47-.156L5.571 0z" mask="url(#x)"/>
                        </g>
                    </g>
                    <g transform="rotate(38 -58.654 53.726)">
                        <path fill="#F19F07" d="M6.972 4.725c3.874 0 6.465-.75 6.952-2.091.068-.188.036-.65 0-.75C13.494.675 10.55 0 6.972 0 3.409 0 .467.758.017 1.958c-.039.105 0 .513 0 .621 0 1.352 3.081 2.146 6.955 2.146z"/>
                        <ellipse cx="7.152" cy="1.856" fill="#FEE34B" rx="6.812" ry="1.856"/>
                        <ellipse cx="7.152" cy="1.688" fill="#F19F07" rx="5.79" ry="1.688"/>
                        <g transform="translate(1.362)">
                            <mask id="z" fill="#fff">
                                <use xlink:href="#y"/>
                            </mask>
                            <use fill="#FEE34B" xlink:href="#y"/>
                            <path fill="#FFFBB6" d="M1.802.125L2.896 3.26l3.875-.054L3.886.126zM.256.315l.8 2.385h.5L.906.315zM5.108 0L7.37 2.904l1.47-.156L5.571 0z" mask="url(#z)"/>
                        </g>
                    </g>
                    <g transform="rotate(-39 77.6 -15.098)">
                        <path fill="#F19F07" d="M6.972 4.725c3.874 0 6.465-.75 6.952-2.091.068-.188.036-.65 0-.75C13.494.675 10.55 0 6.972 0 3.409 0 .467.758.017 1.958c-.039.105 0 .513 0 .621 0 1.352 3.081 2.146 6.955 2.146z"/>
                        <ellipse cx="7.152" cy="1.856" fill="#FEE34B" rx="6.812" ry="1.856"/>
                        <ellipse cx="7.152" cy="1.688" fill="#F19F07" rx="5.79" ry="1.688"/>
                        <g transform="translate(1.362)">
                            <mask id="B" fill="#fff">
                                <use xlink:href="#A"/>
                            </mask>
                            <use fill="#FEE34B" xlink:href="#A"/>
                            <path fill="#FFFBB6" d="M1.802.125L2.896 3.26l3.875-.054L3.886.126zM.256.315l.8 2.385h.5L.906.315zM5.108 0L7.37 2.904l1.47-.156L5.571 0z" mask="url(#B)"/>
                        </g>
                    </g>
                    <g transform="rotate(30 -35.73 32.34)">
                        <path fill="#F19F07" d="M6.972 4.725c3.874 0 6.465-.75 6.952-2.091.068-.188.036-.65 0-.75C13.494.675 10.55 0 6.972 0 3.409 0 .467.758.017 1.958c-.039.105 0 .513 0 .621 0 1.352 3.081 2.146 6.955 2.146z"/>
                        <ellipse cx="7.152" cy="1.856" fill="#FEE34B" rx="6.812" ry="1.856"/>
                        <ellipse cx="7.152" cy="1.688" fill="#F19F07" rx="5.79" ry="1.688"/>
                        <g transform="translate(1.362)">
                            <mask id="D" fill="#fff">
                                <use xlink:href="#C"/>
                            </mask>
                            <use fill="#FEE34B" xlink:href="#C"/>
                            <path fill="#FFFBB6" d="M1.802.125L2.896 3.26l3.875-.054L3.886.126zM.256.315l.8 2.385h.5L.906.315zM5.108 0L7.37 2.904l1.47-.156L5.571 0z" mask="url(#D)"/>
                        </g>
                    </g>
                    <g transform="rotate(-31 132.725 27.8)">
                        <path fill="#F19F07" d="M6.972 4.725c3.874 0 6.465-.75 6.952-2.091.068-.188.036-.65 0-.75C13.494.675 10.55 0 6.972 0 3.409 0 .467.758.017 1.958c-.039.105 0 .513 0 .621 0 1.352 3.081 2.146 6.955 2.146z"/>
                        <ellipse cx="7.152" cy="1.856" fill="#FEE34B" rx="6.812" ry="1.856"/>
                        <ellipse cx="7.152" cy="1.688" fill="#F19F07" rx="5.79" ry="1.688"/>
                        <g transform="translate(1.362)">
                            <mask id="F" fill="#fff">
                                <use xlink:href="#E"/>
                            </mask>
                            <use fill="#FEE34B" xlink:href="#E"/>
                            <path fill="#FFFBB6" d="M1.802.125L2.896 3.26l3.875-.054L3.886.126zM.256.315l.8 2.385h.5L.906.315zM5.108 0L7.37 2.904l1.47-.156L5.571 0z" mask="url(#F)"/>
                        </g>
                    </g>
                </g>
            </g>
        </g>
        <g transform="translate(92 139)">
            <path fill="#F19F07" d="M6.972 4.725c3.874 0 6.465-.75 6.952-2.091.068-.188.036-.65 0-.75C13.494.675 10.55 0 6.972 0 3.409 0 .467.758.017 1.958c-.039.105 0 .513 0 .621 0 1.352 3.081 2.146 6.955 2.146z"/>
            <ellipse cx="7.152" cy="1.856" fill="#FEE34B" rx="6.812" ry="1.856"/>
            <ellipse cx="7.152" cy="1.688" fill="#F19F07" rx="5.79" ry="1.688"/>
            <g transform="translate(1.362)">
                <mask id="H" fill="#fff">
                    <use xlink:href="#G"/>
                </mask>
                <use fill="#FEE34B" xlink:href="#G"/>
                <path fill="#FFFBB6" d="M1.802.125L2.896 3.26l3.875-.054L3.886.126zM.256.315l.8 2.385h.5L.906.315zM5.108 0L7.37 2.904l1.47-.156L5.571 0z" mask="url(#H)"/>
            </g>
        </g>
        <g transform="translate(92 137)">
            <path fill="#F19F07" d="M6.972 4.725c3.874 0 6.465-.75 6.952-2.091.068-.188.036-.65 0-.75C13.494.675 10.55 0 6.972 0 3.409 0 .467.758.017 1.958c-.039.105 0 .513 0 .621 0 1.352 3.081 2.146 6.955 2.146z"/>
            <ellipse cx="7.152" cy="1.856" fill="#FEE34B" rx="6.812" ry="1.856"/>
            <ellipse cx="7.152" cy="1.688" fill="#F19F07" rx="5.79" ry="1.688"/>
            <g transform="translate(1.362)">
                <mask id="J" fill="#fff">
                    <use xlink:href="#I"/>
                </mask>
                <use fill="#FEE34B" xlink:href="#I"/>
                <path fill="#FFFBB6" d="M1.802.125L2.896 3.26l3.875-.054L3.886.126zM.256.315l.8 2.385h.5L.906.315zM5.108 0L7.37 2.904l1.47-.156L5.571 0z" mask="url(#J)"/>
            </g>
        </g>
        <g transform="translate(89 135)">
            <path fill="#F19F07" d="M6.972 4.725c3.874 0 6.465-.75 6.952-2.091.068-.188.036-.65 0-.75C13.494.675 10.55 0 6.972 0 3.409 0 .467.758.017 1.958c-.039.105 0 .513 0 .621 0 1.352 3.081 2.146 6.955 2.146z"/>
            <ellipse cx="7.152" cy="1.856" fill="#FEE34B" rx="6.812" ry="1.856"/>
            <ellipse cx="7.152" cy="1.688" fill="#F19F07" rx="5.79" ry="1.688"/>
            <g transform="translate(1.362)">
                <mask id="L" fill="#fff">
                    <use xlink:href="#K"/>
                </mask>
                <use fill="#FEE34B" xlink:href="#K"/>
                <path fill="#FFFBB6" d="M1.802.125L2.896 3.26l3.875-.054L3.886.126zM.256.315l.8 2.385h.5L.906.315zM5.108 0L7.37 2.904l1.47-.156L5.571 0z" mask="url(#L)"/>
            </g>
        </g>
        <g transform="translate(92 134)">
            <path fill="#F19F07" d="M6.972 4.725c3.874 0 6.465-.75 6.952-2.091.068-.188.036-.65 0-.75C13.494.675 10.55 0 6.972 0 3.409 0 .467.758.017 1.958c-.039.105 0 .513 0 .621 0 1.352 3.081 2.146 6.955 2.146z"/>
            <ellipse cx="7.152" cy="1.856" fill="#FEE34B" rx="6.812" ry="1.856"/>
            <ellipse cx="7.152" cy="1.688" fill="#F19F07" rx="5.79" ry="1.688"/>
            <g transform="translate(1.362)">
                <mask id="N" fill="#fff">
                    <use xlink:href="#M"/>
                </mask>
                <use fill="#FEE34B" xlink:href="#M"/>
                <path fill="#FFFBB6" d="M1.802.125L2.896 3.26l3.875-.054L3.886.126zM.256.315l.8 2.385h.5L.906.315zM5.108 0L7.37 2.904l1.47-.156L5.571 0z" mask="url(#N)"/>
            </g>
        </g>
        <g transform="translate(94 132)">
            <path fill="#F19F07" d="M6.972 4.725c3.874 0 6.465-.75 6.952-2.091.068-.188.036-.65 0-.75C13.494.675 10.55 0 6.972 0 3.409 0 .467.758.017 1.958c-.039.105 0 .513 0 .621 0 1.352 3.081 2.146 6.955 2.146z"/>
            <ellipse cx="7.152" cy="1.856" fill="#FEE34B" rx="6.812" ry="1.856"/>
            <ellipse cx="7.152" cy="1.688" fill="#F19F07" rx="5.79" ry="1.688"/>
            <g transform="translate(1.362)">
                <mask id="P" fill="#fff">
                    <use xlink:href="#O"/>
                </mask>
                <use fill="#FEE34B" xlink:href="#O"/>
                <path fill="#FFFBB6" d="M1.802.125L2.896 3.26l3.875-.054L3.886.126zM.256.315l.8 2.385h.5L.906.315zM5.108 0L7.37 2.904l1.47-.156L5.571 0z" mask="url(#P)"/>
            </g>
        </g>
        <g transform="translate(103 139)">
            <path fill="#F19F07" d="M6.972 4.725c3.874 0 6.465-.75 6.952-2.091.068-.188.036-.65 0-.75C13.494.675 10.55 0 6.972 0 3.409 0 .467.758.017 1.958c-.039.105 0 .513 0 .621 0 1.352 3.081 2.146 6.955 2.146z"/>
            <ellipse cx="7.152" cy="1.856" fill="#FEE34B" rx="6.812" ry="1.856"/>
            <ellipse cx="7.152" cy="1.688" fill="#F19F07" rx="5.79" ry="1.688"/>
            <g transform="translate(1.362)">
                <mask id="R" fill="#fff">
                    <use xlink:href="#Q"/>
                </mask>
                <use fill="#FEE34B" xlink:href="#Q"/>
                <path fill="#FFFBB6" d="M1.802.125L2.896 3.26l3.875-.054L3.886.126zM.256.315l.8 2.385h.5L.906.315zM5.108 0L7.37 2.904l1.47-.156L5.571 0z" mask="url(#R)"/>
            </g>
        </g>
        <g transform="translate(112 139)">
            <path fill="#F19F07" d="M6.972 4.725c3.874 0 6.465-.75 6.952-2.091.068-.188.036-.65 0-.75C13.494.675 10.55 0 6.972 0 3.409 0 .467.758.017 1.958c-.039.105 0 .513 0 .621 0 1.352 3.081 2.146 6.955 2.146z"/>
            <ellipse cx="7.152" cy="1.856" fill="#FEE34B" rx="6.812" ry="1.856"/>
            <ellipse cx="7.152" cy="1.688" fill="#F19F07" rx="5.79" ry="1.688"/>
            <g transform="translate(1.362)">
                <mask id="T" fill="#fff">
                    <use xlink:href="#S"/>
                </mask>
                <use fill="#FEE34B" xlink:href="#S"/>
                <path fill="#FFFBB6" d="M1.802.125L2.896 3.26l3.875-.054L3.886.126zM.256.315l.8 2.385h.5L.906.315zM5.108 0L7.37 2.904l1.47-.156L5.571 0z" mask="url(#T)"/>
            </g>
        </g>
        <g transform="translate(112 137)">
            <path fill="#F19F07" d="M6.972 4.725c3.874 0 6.465-.75 6.952-2.091.068-.188.036-.65 0-.75C13.494.675 10.55 0 6.972 0 3.409 0 .467.758.017 1.958c-.039.105 0 .513 0 .621 0 1.352 3.081 2.146 6.955 2.146z"/>
            <ellipse cx="7.152" cy="1.856" fill="#FEE34B" rx="6.812" ry="1.856"/>
            <ellipse cx="7.152" cy="1.688" fill="#F19F07" rx="5.79" ry="1.688"/>
            <g transform="translate(1.362)">
                <mask id="V" fill="#fff">
                    <use xlink:href="#U"/>
                </mask>
                <use fill="#FEE34B" xlink:href="#U"/>
                <path fill="#FFFBB6" d="M1.802.125L2.896 3.26l3.875-.054L3.886.126zM.256.315l.8 2.385h.5L.906.315zM5.108 0L7.37 2.904l1.47-.156L5.571 0z" mask="url(#V)"/>
            </g>
        </g>
        <g transform="translate(109 135)">
            <path fill="#F19F07" d="M6.972 4.725c3.874 0 6.465-.75 6.952-2.091.068-.188.036-.65 0-.75C13.494.675 10.55 0 6.972 0 3.409 0 .467.758.017 1.958c-.039.105 0 .513 0 .621 0 1.352 3.081 2.146 6.955 2.146z"/>
            <ellipse cx="7.152" cy="1.856" fill="#FEE34B" rx="6.812" ry="1.856"/>
            <ellipse cx="7.152" cy="1.688" fill="#F19F07" rx="5.79" ry="1.688"/>
            <g transform="translate(1.362)">
                <mask id="X" fill="#fff">
                    <use xlink:href="#W"/>
                </mask>
                <use fill="#FEE34B" xlink:href="#W"/>
                <path fill="#FFFBB6" d="M1.802.125L2.896 3.26l3.875-.054L3.886.126zM.256.315l.8 2.385h.5L.906.315zM5.108 0L7.37 2.904l1.47-.156L5.571 0z" mask="url(#X)"/>
            </g>
        </g>
        <g transform="translate(112 134)">
            <path fill="#F19F07" d="M6.972 4.725c3.874 0 6.465-.75 6.952-2.091.068-.188.036-.65 0-.75C13.494.675 10.55 0 6.972 0 3.409 0 .467.758.017 1.958c-.039.105 0 .513 0 .621 0 1.352 3.081 2.146 6.955 2.146z"/>
            <ellipse cx="7.152" cy="1.856" fill="#FEE34B" rx="6.812" ry="1.856"/>
            <ellipse cx="7.152" cy="1.688" fill="#F19F07" rx="5.79" ry="1.688"/>
            <g transform="translate(1.362)">
                <mask id="Z" fill="#fff">
                    <use xlink:href="#Y"/>
                </mask>
                <use fill="#FEE34B" xlink:href="#Y"/>
                <path fill="#FFFBB6" d="M1.802.125L2.896 3.26l3.875-.054L3.886.126zM.256.315l.8 2.385h.5L.906.315zM5.108 0L7.37 2.904l1.47-.156L5.571 0z" mask="url(#Z)"/>
            </g>
        </g>
        <g transform="translate(114 132)">
            <path fill="#F19F07" d="M6.972 4.725c3.874 0 6.465-.75 6.952-2.091.068-.188.036-.65 0-.75C13.494.675 10.55 0 6.972 0 3.409 0 .467.758.017 1.958c-.039.105 0 .513 0 .621 0 1.352 3.081 2.146 6.955 2.146z"/>
            <ellipse cx="7.152" cy="1.856" fill="#FEE34B" rx="6.812" ry="1.856"/>
            <ellipse cx="7.152" cy="1.688" fill="#F19F07" rx="5.79" ry="1.688"/>
            <g transform="translate(1.362)">
                <mask id="ab" fill="#fff">
                    <use xlink:href="#aa"/>
                </mask>
                <use fill="#FEE34B" xlink:href="#aa"/>
                <path fill="#FFFBB6" d="M1.802.125L2.896 3.26l3.875-.054L3.886.126zM.256.315l.8 2.385h.5L.906.315zM5.108 0L7.37 2.904l1.47-.156L5.571 0z" mask="url(#ab)"/>
            </g>
        </g>
        <g transform="translate(123 139)">
            <path fill="#F19F07" d="M6.972 4.725c3.874 0 6.465-.75 6.952-2.091.068-.188.036-.65 0-.75C13.494.675 10.55 0 6.972 0 3.409 0 .467.758.017 1.958c-.039.105 0 .513 0 .621 0 1.352 3.081 2.146 6.955 2.146z"/>
            <ellipse cx="7.152" cy="1.856" fill="#FEE34B" rx="6.812" ry="1.856"/>
            <ellipse cx="7.152" cy="1.688" fill="#F19F07" rx="5.79" ry="1.688"/>
            <g transform="translate(1.362)">
                <mask id="ad" fill="#fff">
                    <use xlink:href="#ac"/>
                </mask>
                <use fill="#FEE34B" xlink:href="#ac"/>
                <path fill="#FFFBB6" d="M1.802.125L2.896 3.26l3.875-.054L3.886.126zM.256.315l.8 2.385h.5L.906.315zM5.108 0L7.37 2.904l1.47-.156L5.571 0z" mask="url(#ad)"/>
            </g>
        </g>
        <g transform="translate(84 131)">
            <path fill="#F19F07" d="M6.972 4.725c3.874 0 6.465-.75 6.952-2.091.068-.188.036-.65 0-.75C13.494.675 10.55 0 6.972 0 3.409 0 .467.758.017 1.958c-.039.105 0 .513 0 .621 0 1.352 3.081 2.146 6.955 2.146z"/>
            <ellipse cx="7.152" cy="1.856" fill="#FEE34B" rx="6.812" ry="1.856"/>
            <ellipse cx="7.152" cy="1.688" fill="#F19F07" rx="5.79" ry="1.688"/>
            <g transform="translate(1.362)">
                <mask id="af" fill="#fff">
                    <use xlink:href="#ae"/>
                </mask>
                <use fill="#FEE34B" xlink:href="#ae"/>
                <path fill="#FFFBB6" d="M1.802.125L2.896 3.26l3.875-.054L3.886.126zM.256.315l.8 2.385h.5L.906.315zM5.108 0L7.37 2.904l1.47-.156L5.571 0z" mask="url(#af)"/>
            </g>
        </g>
        <g transform="translate(84 129)">
            <path fill="#F19F07" d="M6.972 4.725c3.874 0 6.465-.75 6.952-2.091.068-.188.036-.65 0-.75C13.494.675 10.55 0 6.972 0 3.409 0 .467.758.017 1.958c-.039.105 0 .513 0 .621 0 1.352 3.081 2.146 6.955 2.146z"/>
            <ellipse cx="7.152" cy="1.856" fill="#FEE34B" rx="6.812" ry="1.856"/>
            <ellipse cx="7.152" cy="1.688" fill="#F19F07" rx="5.79" ry="1.688"/>
            <g transform="translate(1.362)">
                <mask id="ah" fill="#fff">
                    <use xlink:href="#ag"/>
                </mask>
                <use fill="#FEE34B" xlink:href="#ag"/>
                <path fill="#FFFBB6" d="M1.802.125L2.896 3.26l3.875-.054L3.886.126zM.256.315l.8 2.385h.5L.906.315zM5.108 0L7.37 2.904l1.47-.156L5.571 0z" mask="url(#ah)"/>
            </g>
        </g>
        <g transform="translate(81 127)">
            <path fill="#F19F07" d="M6.972 4.725c3.874 0 6.465-.75 6.952-2.091.068-.188.036-.65 0-.75C13.494.675 10.55 0 6.972 0 3.409 0 .467.758.017 1.958c-.039.105 0 .513 0 .621 0 1.352 3.081 2.146 6.955 2.146z"/>
            <ellipse cx="7.152" cy="1.856" fill="#FEE34B" rx="6.812" ry="1.856"/>
            <ellipse cx="7.152" cy="1.688" fill="#F19F07" rx="5.79" ry="1.688"/>
            <g transform="translate(1.362)">
                <mask id="aj" fill="#fff">
                    <use xlink:href="#ai"/>
                </mask>
                <use fill="#FEE34B" xlink:href="#ai"/>
                <path fill="#FFFBB6" d="M1.802.125L2.896 3.26l3.875-.054L3.886.126zM.256.315l.8 2.385h.5L.906.315zM5.108 0L7.37 2.904l1.47-.156L5.571 0z" mask="url(#aj)"/>
            </g>
        </g>
        <g transform="translate(84 126)">
            <path fill="#F19F07" d="M6.972 4.725c3.874 0 6.465-.75 6.952-2.091.068-.188.036-.65 0-.75C13.494.675 10.55 0 6.972 0 3.409 0 .467.758.017 1.958c-.039.105 0 .513 0 .621 0 1.352 3.081 2.146 6.955 2.146z"/>
            <ellipse cx="7.152" cy="1.856" fill="#FEE34B" rx="6.812" ry="1.856"/>
            <ellipse cx="7.152" cy="1.688" fill="#F19F07" rx="5.79" ry="1.688"/>
            <g transform="translate(1.362)">
                <mask id="al" fill="#fff">
                    <use xlink:href="#ak"/>
                </mask>
                <use fill="#FEE34B" xlink:href="#ak"/>
                <path fill="#FFFBB6" d="M1.802.125L2.896 3.26l3.875-.054L3.886.126zM.256.315l.8 2.385h.5L.906.315zM5.108 0L7.37 2.904l1.47-.156L5.571 0z" mask="url(#al)"/>
            </g>
        </g>
        <g transform="translate(86 124)">
            <path fill="#F19F07" d="M6.972 4.725c3.874 0 6.465-.75 6.952-2.091.068-.188.036-.65 0-.75C13.494.675 10.55 0 6.972 0 3.409 0 .467.758.017 1.958c-.039.105 0 .513 0 .621 0 1.352 3.081 2.146 6.955 2.146z"/>
            <ellipse cx="7.152" cy="1.856" fill="#FEE34B" rx="6.812" ry="1.856"/>
            <ellipse cx="7.152" cy="1.688" fill="#F19F07" rx="5.79" ry="1.688"/>
            <g transform="translate(1.362)">
                <mask id="an" fill="#fff">
                    <use xlink:href="#am"/>
                </mask>
                <use fill="#FEE34B" xlink:href="#am"/>
                <path fill="#FFFBB6" d="M1.802.125L2.896 3.26l3.875-.054L3.886.126zM.256.315l.8 2.385h.5L.906.315zM5.108 0L7.37 2.904l1.47-.156L5.571 0z" mask="url(#an)"/>
            </g>
        </g>
        <g transform="translate(95 131)">
            <path fill="#F19F07" d="M6.972 4.725c3.874 0 6.465-.75 6.952-2.091.068-.188.036-.65 0-.75C13.494.675 10.55 0 6.972 0 3.409 0 .467.758.017 1.958c-.039.105 0 .513 0 .621 0 1.352 3.081 2.146 6.955 2.146z"/>
            <ellipse cx="7.152" cy="1.856" fill="#FEE34B" rx="6.812" ry="1.856"/>
            <ellipse cx="7.152" cy="1.688" fill="#F19F07" rx="5.79" ry="1.688"/>
            <g transform="translate(1.362)">
                <mask id="ap" fill="#fff">
                    <use xlink:href="#ao"/>
                </mask>
                <use fill="#FEE34B" xlink:href="#ao"/>
                <path fill="#FFFBB6" d="M1.802.125L2.896 3.26l3.875-.054L3.886.126zM.256.315l.8 2.385h.5L.906.315zM5.108 0L7.37 2.904l1.47-.156L5.571 0z" mask="url(#ap)"/>
            </g>
        </g>
        <g>
            <g transform="translate(144 140)">
                <path fill="#F19F07" d="M6.972 4.725c3.874 0 6.465-.75 6.952-2.091.068-.188.036-.65 0-.75C13.494.675 10.55 0 6.972 0 3.409 0 .467.758.017 1.958c-.039.105 0 .513 0 .621 0 1.352 3.081 2.146 6.955 2.146z"/>
                <ellipse cx="7.152" cy="1.856" fill="#FEE34B" rx="6.812" ry="1.856"/>
                <ellipse cx="7.152" cy="1.688" fill="#F19F07" rx="5.79" ry="1.688"/>
                <g transform="translate(1.362)">
                    <mask id="ar" fill="#fff">
                        <use xlink:href="#aq"/>
                    </mask>
                    <use fill="#FEE34B" xlink:href="#aq"/>
                    <path fill="#FFFBB6" d="M1.802.125L2.896 3.26l3.875-.054L3.886.126zM.256.315l.8 2.385h.5L.906.315zM5.108 0L7.37 2.904l1.47-.156L5.571 0z" mask="url(#ar)"/>
                </g>
            </g>
            <g transform="translate(144 138)">
                <path fill="#F19F07" d="M6.972 4.725c3.874 0 6.465-.75 6.952-2.091.068-.188.036-.65 0-.75C13.494.675 10.55 0 6.972 0 3.409 0 .467.758.017 1.958c-.039.105 0 .513 0 .621 0 1.352 3.081 2.146 6.955 2.146z"/>
                <ellipse cx="7.152" cy="1.856" fill="#FEE34B" rx="6.812" ry="1.856"/>
                <ellipse cx="7.152" cy="1.688" fill="#F19F07" rx="5.79" ry="1.688"/>
                <g transform="translate(1.362)">
                    <mask id="at" fill="#fff">
                        <use xlink:href="#as"/>
                    </mask>
                    <use fill="#FEE34B" xlink:href="#as"/>
                    <path fill="#FFFBB6" d="M1.802.125L2.896 3.26l3.875-.054L3.886.126zM.256.315l.8 2.385h.5L.906.315zM5.108 0L7.37 2.904l1.47-.156L5.571 0z" mask="url(#at)"/>
                </g>
            </g>
            <g transform="translate(141 136)">
                <path fill="#F19F07" d="M6.972 4.725c3.874 0 6.465-.75 6.952-2.091.068-.188.036-.65 0-.75C13.494.675 10.55 0 6.972 0 3.409 0 .467.758.017 1.958c-.039.105 0 .513 0 .621 0 1.352 3.081 2.146 6.955 2.146z"/>
                <ellipse cx="7.152" cy="1.856" fill="#FEE34B" rx="6.812" ry="1.856"/>
                <ellipse cx="7.152" cy="1.688" fill="#F19F07" rx="5.79" ry="1.688"/>
                <g transform="translate(1.362)">
                    <mask id="av" fill="#fff">
                        <use xlink:href="#au"/>
                    </mask>
                    <use fill="#FEE34B" xlink:href="#au"/>
                    <path fill="#FFFBB6" d="M1.802.125L2.896 3.26l3.875-.054L3.886.126zM.256.315l.8 2.385h.5L.906.315zM5.108 0L7.37 2.904l1.47-.156L5.571 0z" mask="url(#av)"/>
                </g>
            </g>
            <g transform="translate(144 135)">
                <path fill="#F19F07" d="M6.972 4.725c3.874 0 6.465-.75 6.952-2.091.068-.188.036-.65 0-.75C13.494.675 10.55 0 6.972 0 3.409 0 .467.758.017 1.958c-.039.105 0 .513 0 .621 0 1.352 3.081 2.146 6.955 2.146z"/>
                <ellipse cx="7.152" cy="1.856" fill="#FEE34B" rx="6.812" ry="1.856"/>
                <ellipse cx="7.152" cy="1.688" fill="#F19F07" rx="5.79" ry="1.688"/>
                <g transform="translate(1.362)">
                    <mask id="ax" fill="#fff">
                        <use xlink:href="#aw"/>
                    </mask>
                    <use fill="#FEE34B" xlink:href="#aw"/>
                    <path fill="#FFFBB6" d="M1.802.125L2.896 3.26l3.875-.054L3.886.126zM.256.315l.8 2.385h.5L.906.315zM5.108 0L7.37 2.904l1.47-.156L5.571 0z" mask="url(#ax)"/>
                </g>
            </g>
            <g transform="translate(146 133)">
                <path fill="#F19F07" d="M6.972 4.725c3.874 0 6.465-.75 6.952-2.091.068-.188.036-.65 0-.75C13.494.675 10.55 0 6.972 0 3.409 0 .467.758.017 1.958c-.039.105 0 .513 0 .621 0 1.352 3.081 2.146 6.955 2.146z"/>
                <ellipse cx="7.152" cy="1.856" fill="#FEE34B" rx="6.812" ry="1.856"/>
                <ellipse cx="7.152" cy="1.688" fill="#F19F07" rx="5.79" ry="1.688"/>
                <g transform="translate(1.362)">
                    <mask id="az" fill="#fff">
                        <use xlink:href="#ay"/>
                    </mask>
                    <use fill="#FEE34B" xlink:href="#ay"/>
                    <path fill="#FFFBB6" d="M1.802.125L2.896 3.26l3.875-.054L3.886.126zM.256.315l.8 2.385h.5L.906.315zM5.108 0L7.37 2.904l1.47-.156L5.571 0z" mask="url(#az)"/>
                </g>
            </g>
            <g transform="translate(155 140)">
                <path fill="#F19F07" d="M6.972 4.725c3.874 0 6.465-.75 6.952-2.091.068-.188.036-.65 0-.75C13.494.675 10.55 0 6.972 0 3.409 0 .467.758.017 1.958c-.039.105 0 .513 0 .621 0 1.352 3.081 2.146 6.955 2.146z"/>
                <ellipse cx="7.152" cy="1.856" fill="#FEE34B" rx="6.812" ry="1.856"/>
                <ellipse cx="7.152" cy="1.688" fill="#F19F07" rx="5.79" ry="1.688"/>
                <g transform="translate(1.362)">
                    <mask id="aB" fill="#fff">
                        <use xlink:href="#aA"/>
                    </mask>
                    <use fill="#FEE34B" xlink:href="#aA"/>
                    <path fill="#FFFBB6" d="M1.802.125L2.896 3.26l3.875-.054L3.886.126zM.256.315l.8 2.385h.5L.906.315zM5.108 0L7.37 2.904l1.47-.156L5.571 0z" mask="url(#aB)"/>
                </g>
            </g>
        </g>
        <g>
            <g transform="translate(75 141)">
                <path fill="#F19F07" d="M6.972 4.725c3.874 0 6.465-.75 6.952-2.091.068-.188.036-.65 0-.75C13.494.675 10.55 0 6.972 0 3.409 0 .467.758.017 1.958c-.039.105 0 .513 0 .621 0 1.352 3.081 2.146 6.955 2.146z"/>
                <ellipse cx="7.152" cy="1.856" fill="#FEE34B" rx="6.812" ry="1.856"/>
                <ellipse cx="7.152" cy="1.688" fill="#F19F07" rx="5.79" ry="1.688"/>
                <g transform="translate(1.362)">
                    <mask id="aD" fill="#fff">
                        <use xlink:href="#aC"/>
                    </mask>
                    <use fill="#FEE34B" xlink:href="#aC"/>
                    <path fill="#FFFBB6" d="M1.802.125L2.896 3.26l3.875-.054L3.886.126zM.256.315l.8 2.385h.5L.906.315zM5.108 0L7.37 2.904l1.47-.156L5.571 0z" mask="url(#aD)"/>
                </g>
            </g>
            <g transform="translate(78 138)">
                <path fill="#F19F07" d="M6.972 4.725c3.874 0 6.465-.75 6.952-2.091.068-.188.036-.65 0-.75C13.494.675 10.55 0 6.972 0 3.409 0 .467.758.017 1.958c-.039.105 0 .513 0 .621 0 1.352 3.081 2.146 6.955 2.146z"/>
                <ellipse cx="7.152" cy="1.856" fill="#FEE34B" rx="6.812" ry="1.856"/>
                <ellipse cx="7.152" cy="1.688" fill="#F19F07" rx="5.79" ry="1.688"/>
                <g transform="translate(1.362)">
                    <mask id="aF" fill="#fff">
                        <use xlink:href="#aE"/>
                    </mask>
                    <use fill="#FEE34B" xlink:href="#aE"/>
                    <path fill="#FFFBB6" d="M1.802.125L2.896 3.26l3.875-.054L3.886.126zM.256.315l.8 2.385h.5L.906.315zM5.108 0L7.37 2.904l1.47-.156L5.571 0z" mask="url(#aF)"/>
                </g>
            </g>
            <g transform="rotate(-14 609.104 -188.12)">
                <path fill="#F19F07" d="M6.972 4.725c3.874 0 6.465-.75 6.952-2.091.068-.188.036-.65 0-.75C13.494.675 10.55 0 6.972 0 3.409 0 .467.758.017 1.958c-.039.105 0 .513 0 .621 0 1.352 3.081 2.146 6.955 2.146z"/>
                <ellipse cx="7.152" cy="1.856" fill="#FEE34B" rx="6.812" ry="1.856"/>
                <ellipse cx="7.152" cy="1.688" fill="#F19F07" rx="5.79" ry="1.688"/>
                <g transform="translate(1.362)">
                    <mask id="aH" fill="#fff">
                        <use xlink:href="#aG"/>
                    </mask>
                    <use fill="#FEE34B" xlink:href="#aG"/>
                    <path fill="#FFFBB6" d="M1.802.125L2.896 3.26l3.875-.054L3.886.126zM.256.315l.8 2.385h.5L.906.315zM5.108 0L7.37 2.904l1.47-.156L5.571 0z" mask="url(#aH)"/>
                </g>
            </g>
            <g transform="translate(71 136)">
                <path fill="#F19F07" d="M6.972 4.725c3.874 0 6.465-.75 6.952-2.091.068-.188.036-.65 0-.75C13.494.675 10.55 0 6.972 0 3.409 0 .467.758.017 1.958c-.039.105 0 .513 0 .621 0 1.352 3.081 2.146 6.955 2.146z"/>
                <ellipse cx="7.152" cy="1.856" fill="#FEE34B" rx="6.812" ry="1.856"/>
                <ellipse cx="7.152" cy="1.688" fill="#F19F07" rx="5.79" ry="1.688"/>
                <g transform="translate(1.362)">
                    <mask id="aJ" fill="#fff">
                        <use xlink:href="#aI"/>
                    </mask>
                    <use fill="#FEE34B" xlink:href="#aI"/>
                    <path fill="#FFFBB6" d="M1.802.125L2.896 3.26l3.875-.054L3.886.126zM.256.315l.8 2.385h.5L.906.315zM5.108 0L7.37 2.904l1.47-.156L5.571 0z" mask="url(#aJ)"/>
                </g>
            </g>
        </g>
        <g>
            <g transform="translate(132 136)">
                <path fill="#F19F07" d="M6.972 4.725c3.874 0 6.465-.75 6.952-2.091.068-.188.036-.65 0-.75C13.494.675 10.55 0 6.972 0 3.409 0 .467.758.017 1.958c-.039.105 0 .513 0 .621 0 1.352 3.081 2.146 6.955 2.146z"/>
                <ellipse cx="7.152" cy="1.856" fill="#FEE34B" rx="6.812" ry="1.856"/>
                <ellipse cx="7.152" cy="1.688" fill="#F19F07" rx="5.79" ry="1.688"/>
                <g transform="translate(1.362)">
                    <mask id="aL" fill="#fff">
                        <use xlink:href="#aK"/>
                    </mask>
                    <use fill="#FEE34B" xlink:href="#aK"/>
                    <path fill="#FFFBB6" d="M1.802.125L2.896 3.26l3.875-.054L3.886.126zM.256.315l.8 2.385h.5L.906.315zM5.108 0L7.37 2.904l1.47-.156L5.571 0z" mask="url(#aL)"/>
                </g>
            </g>
            <g transform="translate(135 133)">
                <path fill="#F19F07" d="M6.972 4.725c3.874 0 6.465-.75 6.952-2.091.068-.188.036-.65 0-.75C13.494.675 10.55 0 6.972 0 3.409 0 .467.758.017 1.958c-.039.105 0 .513 0 .621 0 1.352 3.081 2.146 6.955 2.146z"/>
                <ellipse cx="7.152" cy="1.856" fill="#FEE34B" rx="6.812" ry="1.856"/>
                <ellipse cx="7.152" cy="1.688" fill="#F19F07" rx="5.79" ry="1.688"/>
                <g transform="translate(1.362)">
                    <mask id="aN" fill="#fff">
                        <use xlink:href="#aM"/>
                    </mask>
                    <use fill="#FEE34B" xlink:href="#aM"/>
                    <path fill="#FFFBB6" d="M1.802.125L2.896 3.26l3.875-.054L3.886.126zM.256.315l.8 2.385h.5L.906.315zM5.108 0L7.37 2.904l1.47-.156L5.571 0z" mask="url(#aN)"/>
                </g>
            </g>
            <g transform="rotate(-14 617.243 -422.733)">
                <path fill="#F19F07" d="M6.972 4.725c3.874 0 6.465-.75 6.952-2.091.068-.188.036-.65 0-.75C13.494.675 10.55 0 6.972 0 3.409 0 .467.758.017 1.958c-.039.105 0 .513 0 .621 0 1.352 3.081 2.146 6.955 2.146z"/>
                <ellipse cx="7.152" cy="1.856" fill="#FEE34B" rx="6.812" ry="1.856"/>
                <ellipse cx="7.152" cy="1.688" fill="#F19F07" rx="5.79" ry="1.688"/>
                <g transform="translate(1.362)">
                    <mask id="aP" fill="#fff">
                        <use xlink:href="#aO"/>
                    </mask>
                    <use fill="#FEE34B" xlink:href="#aO"/>
                    <path fill="#FFFBB6" d="M1.802.125L2.896 3.26l3.875-.054L3.886.126zM.256.315l.8 2.385h.5L.906.315zM5.108 0L7.37 2.904l1.47-.156L5.571 0z" mask="url(#aP)"/>
                </g>
            </g>
            <g transform="translate(128 131)">
                <path fill="#F19F07" d="M6.972 4.725c3.874 0 6.465-.75 6.952-2.091.068-.188.036-.65 0-.75C13.494.675 10.55 0 6.972 0 3.409 0 .467.758.017 1.958c-.039.105 0 .513 0 .621 0 1.352 3.081 2.146 6.955 2.146z"/>
                <ellipse cx="7.152" cy="1.856" fill="#FEE34B" rx="6.812" ry="1.856"/>
                <ellipse cx="7.152" cy="1.688" fill="#F19F07" rx="5.79" ry="1.688"/>
                <g transform="translate(1.362)">
                    <mask id="aR" fill="#fff">
                        <use xlink:href="#aQ"/>
                    </mask>
                    <use fill="#FEE34B" xlink:href="#aQ"/>
                    <path fill="#FFFBB6" d="M1.802.125L2.896 3.26l3.875-.054L3.886.126zM.256.315l.8 2.385h.5L.906.315zM5.108 0L7.37 2.904l1.47-.156L5.571 0z" mask="url(#aR)"/>
                </g>
            </g>
        </g>
        <g>
            <g transform="translate(88 138)">
                <path fill="#F19F07" d="M6.972 4.725c3.874 0 6.465-.75 6.952-2.091.068-.188.036-.65 0-.75C13.494.675 10.55 0 6.972 0 3.409 0 .467.758.017 1.958c-.039.105 0 .513 0 .621 0 1.352 3.081 2.146 6.955 2.146z"/>
                <ellipse cx="7.152" cy="1.856" fill="#FEE34B" rx="6.812" ry="1.856"/>
                <ellipse cx="7.152" cy="1.688" fill="#F19F07" rx="5.79" ry="1.688"/>
                <g transform="translate(1.362)">
                    <mask id="aT" fill="#fff">
                        <use xlink:href="#aS"/>
                    </mask>
                    <use fill="#FEE34B" xlink:href="#aS"/>
                    <path fill="#FFFBB6" d="M1.802.125L2.896 3.26l3.875-.054L3.886.126zM.256.315l.8 2.385h.5L.906.315zM5.108 0L7.37 2.904l1.47-.156L5.571 0z" mask="url(#aT)"/>
                </g>
            </g>
            <g transform="translate(91 135)">
                <path fill="#F19F07" d="M6.972 4.725c3.874 0 6.465-.75 6.952-2.091.068-.188.036-.65 0-.75C13.494.675 10.55 0 6.972 0 3.409 0 .467.758.017 1.958c-.039.105 0 .513 0 .621 0 1.352 3.081 2.146 6.955 2.146z"/>
                <ellipse cx="7.152" cy="1.856" fill="#FEE34B" rx="6.812" ry="1.856"/>
                <ellipse cx="7.152" cy="1.688" fill="#F19F07" rx="5.79" ry="1.688"/>
                <g transform="translate(1.362)">
                    <mask id="aV" fill="#fff">
                        <use xlink:href="#aU"/>
                    </mask>
                    <use fill="#FEE34B" xlink:href="#aU"/>
                    <path fill="#FFFBB6" d="M1.802.125L2.896 3.26l3.875-.054L3.886.126zM.256.315l.8 2.385h.5L.906.315zM5.108 0L7.37 2.904l1.47-.156L5.571 0z" mask="url(#aV)"/>
                </g>
            </g>
            <g transform="rotate(-14 603.388 -242.557)">
                <path fill="#F19F07" d="M6.972 4.725c3.874 0 6.465-.75 6.952-2.091.068-.188.036-.65 0-.75C13.494.675 10.55 0 6.972 0 3.409 0 .467.758.017 1.958c-.039.105 0 .513 0 .621 0 1.352 3.081 2.146 6.955 2.146z"/>
                <ellipse cx="7.152" cy="1.856" fill="#FEE34B" rx="6.812" ry="1.856"/>
                <ellipse cx="7.152" cy="1.688" fill="#F19F07" rx="5.79" ry="1.688"/>
                <g transform="translate(1.362)">
                    <mask id="aX" fill="#fff">
                        <use xlink:href="#aW"/>
                    </mask>
                    <use fill="#FEE34B" xlink:href="#aW"/>
                    <path fill="#FFFBB6" d="M1.802.125L2.896 3.26l3.875-.054L3.886.126zM.256.315l.8 2.385h.5L.906.315zM5.108 0L7.37 2.904l1.47-.156L5.571 0z" mask="url(#aX)"/>
                </g>
            </g>
            <g transform="translate(84 133)">
                <path fill="#F19F07" d="M6.972 4.725c3.874 0 6.465-.75 6.952-2.091.068-.188.036-.65 0-.75C13.494.675 10.55 0 6.972 0 3.409 0 .467.758.017 1.958c-.039.105 0 .513 0 .621 0 1.352 3.081 2.146 6.955 2.146z"/>
                <ellipse cx="7.152" cy="1.856" fill="#FEE34B" rx="6.812" ry="1.856"/>
                <ellipse cx="7.152" cy="1.688" fill="#F19F07" rx="5.79" ry="1.688"/>
                <g transform="translate(1.362)">
                    <mask id="aZ" fill="#fff">
                        <use xlink:href="#aY"/>
                    </mask>
                    <use fill="#FEE34B" xlink:href="#aY"/>
                    <path fill="#FFFBB6" d="M1.802.125L2.896 3.26l3.875-.054L3.886.126zM.256.315l.8 2.385h.5L.906.315zM5.108 0L7.37 2.904l1.47-.156L5.571 0z" mask="url(#aZ)"/>
                </g>
            </g>
        </g>
        <g transform="translate(77 131)">
            <path fill="#F19F07" d="M6.972 4.725c3.874 0 6.465-.75 6.952-2.091.068-.188.036-.65 0-.75C13.494.675 10.55 0 6.972 0 3.409 0 .467.758.017 1.958c-.039.105 0 .513 0 .621 0 1.352 3.081 2.146 6.955 2.146z"/>
            <ellipse cx="7.152" cy="1.856" fill="#FEE34B" rx="6.812" ry="1.856"/>
            <ellipse cx="7.152" cy="1.688" fill="#F19F07" rx="5.79" ry="1.688"/>
            <g transform="translate(1.362)">
                <mask id="bb" fill="#fff">
                    <use xlink:href="#ba"/>
                </mask>
                <use fill="#FEE34B" xlink:href="#ba"/>
                <path fill="#FFFBB6" d="M1.802.125L2.896 3.26l3.875-.054L3.886.126zM.256.315l.8 2.385h.5L.906.315zM5.108 0L7.37 2.904l1.47-.156L5.571 0z" mask="url(#bb)"/>
            </g>
        </g>
        <path fill="#FFF" fill-rule="nonzero" d="M58.5 97.5v-1.152c0-.192.224-.348.5-.348s.5.156.5.348V97.5h1.192c.17 0 .308.224.308.5s-.138.5-.308.5H59.5v1.152c0 .192-.224.348-.5.348s-.5-.156-.5-.348V98.5h-1.192c-.17 0-.308-.224-.308-.5s.138-.5.308-.5H58.5zM124.5 65.5v-1.152c0-.192.224-.348.5-.348s.5.156.5.348V65.5h1.192c.17 0 .308.224.308.5s-.138.5-.308.5H125.5v1.152c0 .192-.224.348-.5.348s-.5-.156-.5-.348V66.5h-1.192c-.17 0-.308-.224-.308-.5s.138-.5.308-.5h1.192zM127.5 117.5v-1.152c0-.192.224-.348.5-.348s.5.156.5.348v1.152h1.192c.17 0 .308.224.308.5s-.138.5-.308.5H128.5v1.152c0 .192-.224.348-.5.348s-.5-.156-.5-.348V118.5h-1.192c-.17 0-.308-.224-.308-.5s.138-.5.308-.5h1.192z"/>
        <circle cx="136.5" cy="86.5" r="1.5" stroke="#FFF"/>
        <path stroke="#FFF" d="M63.5 68.5h3v3h-3zM74 105l2 3h-4z"/>
        <g>
            <path fill="#F0C2B0" d="M121.854 23.934l-22.493-1.226-17.449 2.089c.587.987 1.192 1.767 1.815 2.341.624.574 1.721 1.073 3.294 1.497h5.014l29.819-4.701z"/>
            <path fill="#FAC9B6" d="M125.181 23.603c-.117.478-10.014 1.274-29.69 2.389L79 35.117c.636 2.141 2.195 3.068 4.676 2.781 2.482-.287 6.96-1.912 13.437-4.876l5.515-.185c15.153-6.634 22.67-9.712 22.553-9.234z"/>
            <path fill="#FAC9B6" d="M140.118 19.745l-7.833 3.188c-15.654 1.875-24.575 3.332-26.76 4.372-3.28 1.558-8.634 10.988-8.634 13.805 0 1.879 1.702 6.83 5.106 14.852 1.958-1.208 3.003-2.696 3.135-4.464.199-2.652-1.493-7.615-1.269-9.36.15-1.164 1.103-3.29 2.86-6.378 2.102-1.112 3.747-1.327 4.937-.644 1.785 1.024 4.137 2.973 5.634 5.57.999 1.73 1.296 3.646.893 5.745-2.196.994-3.936 2.683-5.222 5.067-1.286 2.384-1.489 4.218-.609 5.502 5.97-3.588 10.402-6.479 13.293-8.673 2.892-2.194 5.626-4.741 8.203-7.641l1.044-3.34 8.593-2.61-3.37-14.991z"/>
            <path fill="#004472" d="M140.16 17.67l3.38 19.856L193 35.275c-2.8-3.543-2.43-7.908 1.112-13.095 5.312-7.781 1.905-16.961-7.202-15.18-10.231 2-25.814 5.558-46.75 10.67z"/>
            <g transform="translate(104 48)">
                <path fill="#F19F07" d="M4.975 12.931c.29 0 1.444.046 1.722 0 2.823-.46 4.042-3.164 4.042-6.432 0-3.271-1.225-5.978-4.053-6.432-.275-.044-1.425 0-1.71 0C1.747.067 0 2.91 0 6.5s1.748 6.431 4.975 6.431z"/>
                <ellipse cx="4.641" cy="6.5" fill="#FEE34B" rx="4.641" ry="6.5"/>
                <ellipse cx="4.125" cy="6.659" fill="#F19F07" rx="3.438" ry="5.707"/>
                <g transform="translate(.688 .951)">
                    <mask id="bd" fill="#fff">
                        <use xlink:href="#bc"/>
                    </mask>
                    <use fill="#FEE34B" xlink:href="#bc"/>
                    <path fill="#FFFBB6" d="M2.75-.476l3.87 4.25v2.84L2.392-.349zM1.586.628l5.035 7.508-2.152 3.279L1.03 1.268zM0 1.585l3.094 11.436.108.925-3.546-9.72z" mask="url(#bd)"/>
                </g>
            </g>
            <path fill="#FAC9B6" d="M140.6 20l-7.9 3.17c-15.79 1.863-24.787 3.312-26.992 4.345C102.402 29.065 97 38.437 97 41.238c0 1.866 1.717 6.787 5.15 14.762 1.975-1.2 3.03-2.68 3.163-4.437.2-2.636-1.507-7.57-1.28-9.305.15-1.156 1.113-3.27 2.885-6.339 2.12-1.106 3.779-1.319 4.98-.64 1.2.679 9.011 1.417 23.435 2.216L144 34.901 140.6 20z"/>
        </g>
    </g>
</svg>
