<svg xmlns="http://www.w3.org/2000/svg" width="21" height="21" viewBox="0 0 21 21">
    <g fill="none" fill-rule="evenodd">
        <path fill="#00A7A7" d="M11 21c3.866 0 7-3.354 7-7.492C18 10.75 15.667 6.247 11 0 6.333 6.247 4 10.75 4 13.508 4 17.646 7.134 21 11 21z"/>
        <path fill="#FFF" fill-rule="nonzero" d="M9.032 15.31c.049-.192.103-.384.158-.576.065-.22.125-.249.321-.141a2.92 2.92 0 0 0 1.063.327c.24.029.475.006.698-.096.414-.186.48-.684.131-.984a1.805 1.805 0 0 0-.398-.243c-.365-.164-.741-.294-1.085-.503-.556-.345-.91-.82-.866-1.521.049-.792.48-1.29 1.182-1.555.29-.108.29-.108.295-.419v-.316c.005-.238.043-.277.272-.283h.213c.485 0 .485 0 .485.503 0 .357 0 .357.344.413.261.04.512.124.752.232.13.062.185.158.142.305-.06.215-.12.436-.186.65-.065.204-.125.232-.316.136a2.243 2.243 0 0 0-1.194-.243.858.858 0 0 0-.316.068c-.36.164-.42.577-.114.831.152.13.332.22.517.3.322.136.644.271.943.441.965.554 1.227 1.815.546 2.669-.246.311-.567.52-.938.622-.164.045-.234.136-.229.311.006.17 0 .345 0 .52 0 .153-.076.238-.223.238-.18.005-.36.005-.54 0-.158-.006-.229-.096-.234-.255 0-.124 0-.254-.006-.379-.005-.277-.01-.288-.267-.333-.333-.057-.654-.13-.954-.283-.24-.119-.262-.18-.196-.435z"/>
    </g>
</svg>
