<svg xmlns="http://www.w3.org/2000/svg" xmlns:xlink="http://www.w3.org/1999/xlink" width="140" height="125" viewBox="0 0 140 125">
    <defs>
        <path id="a" d="M0 0h155v131H0z"/>
        <path id="c" d="M0 0h103v135H0z"/>
    </defs>
    <g fill="none" fill-rule="evenodd" transform="translate(-4 -6)">
        <mask id="b" fill="#fff">
            <use xlink:href="#a"/>
        </mask>
        <g mask="url(#b)">
            <path fill="#2D8289" d="M20.163 71.358l81.979 81.979c-23.12 21.653-59.11 21.5-81.295-.684-22.185-22.186-22.337-58.175-.684-81.295z"/>
            <g transform="translate(10 6)">
                <mask id="d" fill="#fff">
                    <use xlink:href="#c"/>
                </mask>
                <path fill="#00A7A7" d="M89.642 128V43.98c0-1.622-.089-3.226-.261-4.803-.712-6.517-.135-13.087 1.51-19.43.305-1.18.586-2.406.851-3.676.682-3.266-2.778-5.8-5.649-4.125a58.687 58.687 0 0 1-3.964 2.129 4.37 4.37 0 0 1-5.046-.895C69.145 5.053 58.105 0 45.91 0 33.714 0 22.677 5.052 14.738 13.177a4.369 4.369 0 0 1-5.047.894 58.853 58.853 0 0 1-3.955-2.125c-2.87-1.675-6.33.858-5.65 4.124.265 1.262.544 2.478.846 3.651 1.642 6.343 2.223 12.913 1.507 19.427a44.253 44.253 0 0 0-.264 4.833v21.773c0 27.675 16.472 51.54 40.067 62.246H10.873 103 89.642z" mask="url(#d)"/>
            </g>
            <path fill="#EEFCFB" d="M73.931 28C65.683 28 58.658 33.294 56 40.703 53.342 33.294 46.318 28 38.07 28 27.538 28 19 36.63 19 47.274 19 69.214 21.095 87 56 87c32.967 0 37-17.786 37-39.726C93 36.63 84.462 28 73.931 28"/>
            <path fill="#FFA32C" d="M59.72 69.796l4.016-7.397a2.188 2.188 0 0 0-.322-2.534l-5.91-6.221a2.078 2.078 0 0 0-3.007 0l-5.911 6.221a2.188 2.188 0 0 0-.322 2.534l4.016 7.397c1.594 2.939 5.846 2.939 7.44 0"/>
            <path fill="#FF872F" d="M99.293 87.008l57.259 57.26c-16.056 15.313-41.331 15.237-56.914-.346-15.583-15.583-15.66-40.858-.345-56.914z"/>
            <g>
                <g fill="#007F7E" transform="translate(34 43)">
                    <circle cx="40.5" cy="5.5" r="5.5"/>
                    <circle cx="5.5" cy="5.5" r="5.5"/>
                </g>
            </g>
        </g>
    </g>
</svg>
