<svg xmlns="http://www.w3.org/2000/svg" xmlns:xlink="http://www.w3.org/1999/xlink" width="218" height="149" viewBox="0 0 218 149">
    <defs>
        <path id="a" d="M108.058 15.123c20.937 1.304 46.896-19.48 57.657-14.245 4.766 2.318 23.103 11.42 24.19 20.623 1.092 9.241-15.066 18.59-10.345 22.999 35.591 33.238-14.224 95.796-36.805 99.806-20.393 3.62-39.665-13.563-63.589-17.858-18.936-3.4-63.854 9.716-73.002 5.985-21.036-8.581 19.037-49.539 12.671-53.99C2.843 67.262 26.525 72.97 14.74 65.4-3.673 53.57-7.282 7.94 108.058 15.123z"/>
        <path id="c" d="M.156.045h26.959v43.773H.156z"/>
        <path id="e" d="M0 .133h22.418v20.33H0z"/>
    </defs>
    <g fill="none" fill-rule="evenodd">
        <path fill="#CEE1EA" d="M128.058 12.76c39.522 2.452 51.462 10.625 71.502 29.277 35.591 33.126-14.224 95.471-36.805 99.467-20.393 3.609-39.665-13.516-63.589-17.797-18.936-3.389-63.854 9.683-73.002 5.965-21.036-8.552 19.037-49.37 12.671-53.807-15.992-11.144 7.69-5.454-4.096-13C16.327 51.077 12.718 5.602 128.058 12.76z"/>
        <g opacity=".543">
            <path fill="#118C8C" d="M164.99 58.815c-1.317-.55-2.882-.315-3.945.579-1.064.895-1.462 2.335-.496 3.41.278.308.657.242.897.022a4.797 4.797 0 0 0 1.78 1.039c1.375.434 2.947-.69 3.334-1.88.394-1.21-.343-2.656-1.57-3.17"/>
            <path fill="#1B1D29" d="M172.362 57.858c-.271-.081-.45.122-.555.362-.096.217-.176.444-.263.665-.06.15-.216.407-.21.575.004.148.175.248.275.13a.148.148 0 0 0 .1.11.18.18 0 0 0 .16.044c.038.125.202.201.28.06.203-.362.92-1.733.213-1.946"/>
            <path fill="#F7BC5C" d="M173.331 58.256c-.001-.04-.025-.07-.052-.09a.457.457 0 0 0-.215-.156c-.236-.094-.647-.27-.874-.098-.175.132-.635.966-1.073 1.567-1.865 2.556-4.62 3.895-7.818 3.392-.644-.103-1.25.488-1.295 1.078-.054.676.467 1.153 1.114 1.256 3.927.618 7.962-1.294 9.824-4.708.123-.228.42-1.173.39-2.241"/>
            <path fill="#1B1D29" d="M170.849 55.802c-.333-.024-.495.21-.563.466-.064.23-.107.469-.16.702-.035.158-.16.442-.117.603.038.143.259.205.348.071.027.05.081.08.141.086.056.029.133.034.195.009.072.114.28.154.34 0 .153-.394.682-1.876-.184-1.937"/>
            <path fill="#F7BC5C" d="M170.52 56.745a.118.118 0 0 0-.064-.08.4.4 0 0 0-.223-.119c-.232-.05-.635-.15-.81.074-.133.172-.393 1.129-.677 1.839-1.206 3.022-3.447 4.964-6.434 5.086-.603.025-1.04.757-.972 1.379.08.71.64 1.1 1.244 1.075 3.67-.15 6.961-2.944 8.005-6.855.069-.26.16-1.298-.069-2.399"/>
            <path fill="#FF7900" d="M166.99 59.495c-1.317-.55-2.882-.315-3.944.579-1.063.895-1.463 2.336-.498 3.409.279.31.658.244.898.023a4.775 4.775 0 0 0 1.78 1.039c1.375.434 2.947-.69 3.334-1.881.394-1.208-.343-2.656-1.57-3.17"/>
            <path fill="#1B1D29" d="M158.631 58.989a26.587 26.587 0 0 1-.948-1.082c-.13-.157-.45-.01-.318.148.304.367.62.728.948 1.082.139.15.46.005.318-.148"/>
            <path fill="#118C8C" d="M119.999 35.093c-.021-2.008-.05-4.016-.09-6.022-.039-2.008-.075-4.016-.144-6.023-.02-.625-.066-1.386-.716-1.687-.66-.305-1.561-.208-2.357-.24a.97.97 0 0 0-.883.6c-1.055 2.818-1.066 6.096-1.1 9.068-.018 1.496-.106 3.054.042 4.545.055.543.213 1.135.768 1.357a.938.938 0 0 0 1.153-.378l1.143.129c.434.05.933.181 1.368.14.838-.078.821-.833.816-1.489"/>
            <path fill="#005960" d="M120.443 21.126c-.089-.559-.04-1.207-.373-1.28-.336-.073-1.062-.056-1.397-.062-.464-.01-1.074-.046-1.539-.005-.427.039-.414.27-.446.376-.27.9-.625 1.922-.685 2.872-.03.472.21.658.61.694.97.087 1.895-.132 2.872.055.382.071.808.173 1.04-.261.316-.593.02-1.744-.082-2.389"/>
            <path fill="#118C8C" d="M92.774 30.443c-.115-.704-.226-1.644-.596-2.25a.571.571 0 0 0-.537-.268c-.523.047-1.077-.097-1.574.113-.408.176-.661.516-.826.884-.484 1.08-.554 2.356-.568 3.506-.009.617-.016 1.248.036 1.863.03.349.077.7.408.927.426.291 1.07.152 1.561.127.729-.037 1.456-.076 2.185-.112.253-.012.412-.172.437-.396.16-1.438-.295-2.976-.526-4.394"/>
            <path fill="#005960" d="M93.157 28.266c-.203-.254-.597-.315-.97-.337-.446-.026-.998-.002-1.412.144-.475.168-.61.546-.757.897a.125.125 0 0 0-.004.086c-.058.127.072.246.258.22a10.85 10.85 0 0 1 1.647-.075c.391.009.838.087 1.22.023.073-.013.134-.062.153-.115.085-.237.038-.628-.135-.843"/>
            <path fill="#118C8C" d="M103.268 33.367a36.373 36.373 0 0 0-.15-2.692c-.047-.484-.068-1.03-.56-1.24-.606-.263-1.52-.109-2.163-.12-.736-.013-2.28.06-2.297.058-1.152-.056-1.426 1.197-1.424 2.162 0 .095-.078 3.169.28 4.368.057.192.285.183.37.059.522.183 1.293.095 1.79.108.915.023 1.83-.006 2.744-.04.455-.017 1.029.031 1.292-.443.315-.566.132-1.593.118-2.22M111.274 33.367a40.443 40.443 0 0 0-.136-2.692c-.042-.484-.061-1.03-.502-1.24-.546-.263-1.37-.109-1.948-.12-.662-.013-2.05.058-2.067.058-1.289-.031-1.284 1.197-1.281 2.162 0 .095-.07 3.169.251 4.368.05.192.257.183.333.059.47.183 1.165.095 1.612.108a35.7 35.7 0 0 0 2.468-.04c.41-.017.928.031 1.164-.443.284-.566.118-1.593.106-2.22M81.985 70.08c-.363-.001-.654-.166-.652-.368l.032-2.669c.002-.2.294-.363.65-.363.365.001.654.166.652.368l-.031 2.67c-.003.2-.295.362-.651.362M119.319 70.08c-.366-.001-.655-.166-.652-.368l.028-2.669c.003-.2.295-.363.653-.363.365.001.655.166.652.368l-.029 2.67c-.002.2-.295.362-.652.362"/>
            <path d="M60.667 104.08H192V15H60.667z"/>
            <path fill="#005960" d="M81.333 117h91.334V70.08H81.333z"/>
            <path fill="#118C8C" d="M81.333 117h40V70.08h-40zM40 117h37.333V70.08H40zM174.667 117H192V82.32h-17.333z"/>
            <path fill="#005960" d="M90 75.86c0 .94-.745 1.7-1.667 1.7-.92 0-1.666-.76-1.666-1.7 0-.938.746-1.7 1.666-1.7.922 0 1.667.762 1.667 1.7M97.333 75.86c0 .94-.745 1.7-1.666 1.7-.92 0-1.667-.76-1.667-1.7 0-.938.747-1.7 1.667-1.7.921 0 1.666.762 1.666 1.7M105.333 75.86c0 .94-.746 1.7-1.666 1.7-.922 0-1.667-.76-1.667-1.7 0-.938.745-1.7 1.667-1.7.92 0 1.666.762 1.666 1.7"/>
            <path fill="#00A7A7" d="M146.667 78.92h22v-6.8h-22zM123.333 78.92h21.334v-6.8h-21.334z"/>
            <path fill="#005960" d="M114 75.86c0 .94-.747 1.7-1.667 1.7-.921 0-1.666-.76-1.666-1.7 0-.938.745-1.7 1.666-1.7.92 0 1.667.762 1.667 1.7M88 101.36h24.667V87.08H88z"/>
            <path fill="#00A7A7" d="M167.777 80.28h-45.11v34h46.666v-34h-1.556zm-43.554 32.394h21.2V81.886h-21.2v30.788zm22.759 0h20.795V81.886h-20.795v30.788z"/>
            <path fill="#118C8C" d="M119.075 66.776c-4.777.202-9.741.303-14.519.368-4.728.066-9.457-.154-14.185-.334-2.66-.1-5.452-.03-8.112-.13-.345-.011-.345.899 0 .91 9.485.36 19.09.66 28.577.258 2.683-.114 5.555-.048 8.239-.162.344-.016.345-.926 0-.91M175.733 35.4c-4.936.218-10.066.328-15.004.4-4.095.055-8.19-.101-12.285-.268-.792-.031-1.583-.063-2.375-.093-2.75-.11-1.196 1.111 2.41 1.202 6.254.157 12.521.188 18.739-.088 2.774-.123 5.741-.052 8.515-.174.356-.017.356-.996 0-.979"/>
            <path fill="#118C8C" d="M160.087 34.23c-.307-.6-.982-1.265-1.58-.58-.616.704-.558 1.906-.539 2.781.029 1.391.08 2.782.14 4.174.117 2.775.317 5.54.495 8.31.005.074.01.147.013.222-1.328-.037-2.728-.033-4.029.264-.898.205-1.624.731-1.845 1.694-.477 2.065 1.397 3.464 3.212 3.337 2.394-.168 3.495-2.296 3.492-4.567-.002-1.5-.186-3.01-.28-4.505a236.526 236.526 0 0 1-.243-4.587c-.073-1.656-.193-3.334-.158-4.992.008-.365.01-.825.159-1.164.237-.538.41-.107.568.265.338.786.43 1.623.326 2.474-.067.536.735.651.801.115.138-1.114-.02-2.245-.532-3.24"/>
            <path fill="#118C8C" d="M152.092 49.377c-.42-.744-1.14-1.233-1.893-1.356.012-.184.018-.37.018-.558a151.722 151.722 0 0 0-.332-10.191c.159-.98.35-2.006.258-2.966-.07-.72-.538-1.744-1.437-1.615-.914.132-.861 1.134-.726 1.803.214 1.052.521 1.985 1.045 2.936-.01.071.203 2.91.244 3.939.05 1.263.084 2.526.102 3.79.012.88.156 1.939.024 2.878-.504.103-.98.396-1.342.912-.814 1.162-.842 2.686-.552 4.074.086.404.247.817.418 1.194.722 1.595 2.6 2.245 3.786.71 1.12-1.449 1.279-3.967.387-5.55M123.075 35.493c-4.777.205-9.741.306-14.52.372-4.728.066-9.457-.155-14.185-.335-2.66-.1-5.45-.03-8.111-.13-.345-.013-.345.897 0 .91 9.485.358 19.09.661 28.577.258 2.683-.114 5.555-.048 8.239-.164.344-.014.345-.924 0-.91"/>
            <path fill="#005960" d="M96.699 30.954a5.492 5.492 0 0 0-.032.336c2.211.035 4.48.116 6.666-.314-.007-.087-.01-.175-.02-.264 0-.023-.004-.048-.005-.072-2.165.432-4.416.35-6.609.314M105.349 31.027a5.605 5.605 0 0 0-.016.282c2.01.07 4.002-.204 6-.388-.007-.093-.015-.187-.026-.281-1.984.183-3.963.453-5.958.387"/>
            <path fill="#00A7A7" d="M148.307 51.039c.443.032.495-.645.053-.678-.443-.032-.496.645-.053.678M149.641 50.36c.18.01.342-.24.357-.61l.001-.042c.013-.346-.127-.697-.307-.707-.18-.014-.342.237-.357.606v.045c-.014.343.127.697.306.708"/>
            <path fill="#00A7A7" d="M150.195 50.133c.22.261.66.314.915.069.258-.242.307-.648.07-.928l-.041-.047c-.221-.26-.66-.313-.916-.071-.257.245-.307.65-.07.93.013.016.026.032.042.047M148.358 51.041c-.441-.034-.494.645-.05.678.442.032.495-.645.05-.678M149.998 51.792l.001-.044c.013-.343-.126-.697-.306-.708-.182-.01-.344.24-.358.61v.042c-.014.346.126.697.306.708.18.013.343-.238.357-.608"/>
            <path fill="#00A7A7" d="M151.112 52.243c.256-.245.305-.65.068-.93l-.039-.048c-.224-.26-.661-.31-.919-.068-.258.245-.305.65-.068.927l.04.048c.22.264.66.314.918.071M148.358 52.401c-.441-.034-.494.645-.05.678.442.033.495-.645.05-.678M149.693 52.4c-.182-.01-.344.24-.358.61v.042c-.014.346.126.697.306.708.18.013.344-.238.357-.607l.001-.045c.013-.344-.126-.697-.306-.708"/>
            <path fill="#00A7A7" d="M151.18 52.673l-.04-.047c-.223-.261-.66-.311-.918-.069-.258.245-.305.65-.068.928l.04.047c.22.263.66.314.918.071.255-.245.305-.65.068-.93"/>
            <path fill="#00C9C3" d="M162.789 62.122a8.715 8.715 0 0 0-.164-.089c-.652-.35-.967-.747-1.346-1.356-.43-.694-1.139-1.539-2.085-1.473-.813.057-1.216.797-1.193 1.515.015.423.163.815.38 1.179.462.775.57 1.319.443 2.21a.322.322 0 0 0 .017.169c-.04.53.112 1.098.516 1.647.174.237.477.146.599-.046.122.08.252.148.387.197.077.028.157.051.24.072.9.587 2.184.74 3.08.203 1.895-1.134.822-3.52-.874-4.228"/>
            <path fill="#FFEDDC" d="M164.667 69.4c-3.682 0-6.667-3.04-6.667-6.792V62.6h13.333v.008c0 3.752-2.985 6.792-6.666 6.792"/>
            <path fill="#1B1D29" d="M163.684 59.31c-.131.08-.504.287-.595.036-.095-.258-.503-.145-.408.116.205.563.806.472 1.217.224.235-.142.023-.518-.214-.376"/>
            <path fill="#00C9C3" d="M153.963 67.59a.093.093 0 0 0 .028-.076c-.038-.35-.41-.577-.772-.736.075-.02.13-.088.073-.159-.68-.867-2.25-.673-3.204-.322-.013.004-.021.011-.03.018l-.015-.002c-.207-.032-.76-.093-1.175-.025-.606-.186-1.285-.239-1.772-.154-.165.029-.095.248.07.22.34-.06.834-.034 1.316.073a.286.286 0 0 0-.112.168 1.26 1.26 0 0 0-.293.026c-.163.033-.094.252.07.218.162-.033.337-.023.515.016-.116-.032-.24.1-.133.186-.058.008-.12.014-.183.02a3.382 3.382 0 0 0-.947-.332c-.163-.032-.233.187-.069.219.234.044.453.115.662.204a.407.407 0 0 0-.128.086l-.288.041c-.235-.14-.473-.274-.716-.405-.144-.077-.274.12-.132.197.158.083.312.172.468.26-.132.012-.285.02-.35.124-.076.122.118.228.208.132.011 0 .036-.006.078-.016.026-.005.052-.008.078-.011l.278-.04.025-.004c.14.084.28.167.419.255.003 0 .004.002.007.003a.133.133 0 0 0 .192.08c.274-.138.553-.267.842-.38l.006.01a1.202 1.202 0 0 0-.004.01 3.538 3.538 0 0 0-.335.193c-.092.058-.079.225.065.21.178-.016.351-.041.524-.07.007.01.015.02.022.032.07.118.26.034.236-.08.192-.038.381-.087.57-.141.08.007.159.007.237.003-.16.064-.325.125-.499.174-.159.045-.091.264.07.219.364-.102.696-.269 1.05-.384.022.034.044.068.065.104.072.122.271.028.232-.092.401.046.82.081 1.192.017.028.012.055.022.081.036.106.053.201-.034.194-.115.218.038.434.082.65.127.163.035.232-.184.069-.218a18.821 18.821 0 0 0-.64-.126.127.127 0 0 0-.055-.036l-.323-.107.178.036c.216.045 1.18.227 1.18.45 0 .147.262.147.262 0a.283.283 0 0 0-.037-.136m-.921-.885l-.085-.033a3.826 3.826 0 0 0-1.926-.181c-.038.005-.063.021-.077.042a4.544 4.544 0 0 0-.45-.132c.814-.234 2.002-.328 2.538.304m-1.966.399a2.94 2.94 0 0 0-.316-.015l-.01-.016c.113-.015.227-.022.34-.02a.16.16 0 0 0-.014.05m-.416-.418c.136.042.267.087.393.14a6.56 6.56 0 0 0-.52.033 1.857 1.857 0 0 0-.43-.281c.288.046.516.095.557.108m-1.104-.17a.292.292 0 0 0-.02.094 1.996 1.996 0 0 0-.14-.111c.052.005.107.011.16.018m-.916.105c.026-.049.091-.083.179-.104.36.112.688.273.903.48-.026.008-.053.014-.08.021-.306-.179-.656-.336-1.002-.397m-.54.987a.137.137 0 0 0-.036-.034l-.153-.093c.05.01.102-.003.13-.046.036-.016.054-.045.056-.075a.549.549 0 0 1 .19-.063c.033.019.065.035.097.054a.122.122 0 0 0 .188-.085c.065-.005.133-.008.198-.01l.036.037a9.53 9.53 0 0 0-.706.315m.862-.576l-.073.001a4.327 4.327 0 0 0-.176-.153.13.13 0 0 0-.047-.024c.166.036.333.097.493.17l-.197.006m4.02.111c-.33-.09-.751-.195-1.15-.219a1.795 1.795 0 0 0-.18-.05 2.828 2.828 0 0 0-.337-.19 3.426 3.426 0 0 1 1.166.081c.303.075.967.285 1.18.587-.224-.102-.507-.161-.68-.209"/>
            <path fill="#FFEDDC" d="M155.333 69.4H144c0-.75.588-1.36 1.312-1.36h8.71c.724 0 1.311.61 1.311 1.36"/>
        </g>
        <g transform="translate(20 -2)">
            <mask id="b" fill="#fff">
                <use xlink:href="#a"/>
            </mask>
            <g mask="url(#b)">
                <path fill="#FAA48F" d="M154.872 49.401c-.284-.498-.908-.72-1.576-.802a.757.757 0 0 0-.41-.08 83.789 83.789 0 0 1-15.503-.64c-.456-.062-.774.188-.85.459-.157.264-.694 2.078-.562 2.391.159.377 1.8.758 2.827.93 2.839.475 13.807 1.71 15.257.441l.083-.012c.424-.058.56-.38.46-.651.37-.621.606-1.452.274-2.036"/>
                <path fill="#FFEDDC" d="M140.632 46.187c.048-.98-.077-1.94-.44-2.874-.347-.895-1.063-2.371-2.102-2.59-1.085-.229-1.523.7-1.44 1.637.03.343.1.677.201 1a12.337 12.337 0 0 0-3.113-1.506c-1.538-.486-3.344-.296-4.11 1.217-1.345 2.016-.98 4.808.515 6.701.898 1.137 2.12 1.97 3.427 2.551 1.395.625 4.346.145 5.411 1.332.269.299.9.264 1.07-.14 1.03-2.45 1.862-3.315 1.862-6.912 0-.946-1.252-.337-1.281-.416"/>
                <path fill="#F7705C" d="M133.418 61.033h-4.474c-3.374 0-6.112-2.853-6.112-6.373V41.885h16.696V54.66c0 3.52-2.736 6.373-6.11 6.373"/>
                <path fill="#FAA48F" d="M147.716 55.385c-.284-.498-.907-.72-1.576-.803a.78.78 0 0 0-.41-.08 83.693 83.693 0 0 1-15.504-.64c-.455-.062-.774.19-.848.46-.16.264-.694 2.078-.562 2.39.157.378 1.799.76 2.825.93 2.841.476 13.808 1.71 15.26.44a1.77 1.77 0 0 0 .083-.01c.424-.058.557-.38.459-.651.37-.621.607-1.452.273-2.036"/>
                <path fill="#1D2342" d="M159.703 44.985c-.152-.483-.66-.823-1.166-.669-.79.244-1.581.485-2.37.728-.71.22-1.467.431-2.027.95-.43.398-.695.895-.921 1.428-.06.143-.204.38-.292.586-.07-.06-.141-.12-.214-.177-.984-.765-2.2-.674-3.023.292-.965 1.132-.6 2.824-.274 4.136.126.51.533.709.935.677.165.351.447.648.842.826.834.371 1.59-.475 1.429-1.126.088.019.18.033.274.041 1.375.13 2.261-.98 2.746-2.136.236-.563.386-1.171.663-1.715.342-.67.82-.787 1.489-1.018 1.198-.415 2.357-1.412 1.909-2.823"/>
                <path fill="#FAA48F" d="M145.33 150.787l-1.091 2.332c-4.291.893-6.759 1.472-7.403 1.739-2.318.96-.147 1.444.19 1.552.478.153 4.181-.494 11.109-1.94l.705-3.683h-3.51zM180.501 148.393l-.798 2.62c-3.855.701-6.077 1.185-6.666 1.451-2.119.96-.134 1.444.174 1.552.23.08 5.444 1.403 7.29 1.045 1.12-.218 2.075-1.083 2.865-2.597v-4.07h-2.865z"/>
                <path fill="#004472" d="M181.81 107.867c-.709-2.363-1.688-4.653-2.317-7.036-.587-2.233-.915-5.112-1.344-7.371-1.389-7.289-.482-12.32-5.081-19.344-1.078-2.426-2.222-3.6-2.915-7.288-.695-3.687-13.072-1.865-13.062-.836.09 8.92.37 19.93-.25 28.83-.606 8.684-2.307 17.226-4.425 25.662a384.892 384.892 0 0 1-1.854 7.066c-.32 1.174-7.411 23.463-7.45 23.7-.22.33 4.968.984 5.224.633.352-.485 11.663-25.13 12.705-27.276 2.08-4.288 2.359-8.456 3.563-13.059.624-2.387 1.163-6.212 1.867-8.575.447-1.507 1.088-2.939 1.799-4.338 3.805 7.542 6.38 15.46 8.88 23.522a364.029 364.029 0 0 1 2.088 7c.338 1.17 1.212 18.464 1.194 18.858-.017.394 4.369.431 4.405 0 .05-.593-.164-14.572-.128-15.167a71.447 71.447 0 0 0-.187-10.991 72.723 72.723 0 0 0-2.712-13.99z"/>
                <path fill="#FAA48F" d="M171.59 60.003c-.258-1.214-2.012-.892-2.047.284-.01.338-.021.674-.034 1.01a1.17 1.17 0 0 0-.258.049c-.306-.256-.773-.248-1.146-.045-.26-.513-.973-.661-1.46-.412-.414-.31-1.032-.279-1.39.112a.95.95 0 0 0-.655-.191c-.034-.127-.064-.256-.098-.381-.166-.612-.856-.906-1.39-.716-.014-.1-.028-.197-.045-.296-.121-.806-1.244-1.014-1.74-.471-.25.27-.443.572-.599.894-.01-.853-.024-1.706-.035-2.558-.02-1.379-2.103-1.384-2.084 0 .043 3.099.03 8.093.2 11.188.07 1.254.42 2.466 1.549 3.127 1.033.606 1.972-.323 3.14-.26 2.553.14 4.998.592 7.679-.32.2-.068.283-1.997.335-2.794.048-.739.405-6.68.078-8.22"/>
                <path fill="#FAB08A" d="M163.219 34.908c-.215-1.094-.105-2.184-.227-3.225a5.571 5.571 0 0 1-.927-1.058 12.66 12.66 0 0 1-.495-.778l-.01-.018c-.052-.089-.104-.18-.154-.27-.366-.676-.67-1.412-.764-2.13-.146-1.124.651-2.495.251-3.539-.223-.582-.858-.857-1.28-1.254-.385-.359-.637-.801-.84-1.3-.233-.575-1.045-2.586-1.026-3.548-.037-.408-.067-.731-.01-1.034-.817 1.062-1.062 2.77-1.134 4.084-.068 1.25-.13 2.454-.337 3.689-.193 1.15.3 6.076.949 6.882.613.76 1.71.85 2.765.843a19.13 19.13 0 0 0 1.782-.077l.638 4.684c.24 1.762 1.564 1.512 3.203 1.253.055-.007.107-.019.161-.03-1.268-.519-2.264-1.74-2.545-3.174"/>
                <path fill="#004472" d="M174.084 48.501c-.47-7.33-1.839-8.434-5.53-10.852-.426-.277-.84-.215-1.143.019a4.255 4.255 0 0 0-1.779-.557c-1.308-.104-2.492.44-3.349 1.334-.08.05-.16.111-.234.19-1.502 1.546-2.816 3.257-4.073 5.007-1.176 1.636-2.24 3.423-3.618 4.897-.632.674-1.33 1.225-2.212 1.528-.938.322-1.913.485-2.827.88a5.976 5.976 0 0 0-2.384 1.878c-.293-.31-.838-.683-.952-.751-.714-.42-1.633-.642-2.443-.393-.947.29-1.236 1.063-1.332 1.962a47.35 47.35 0 0 0-.22 3.106c-.042 1-.188 2.136.096 3.115.23.795.851 1.427 1.692 1.505 1.08.1 1.599-.664 2.257-1.35.611-.64 1.522-.133 2.253.053a7.011 7.011 0 0 0 3.084.09c1.158-.226 2.059-.895 3.136-1.312.858-.332 1.215-.033 2.092-.245.16.692-.105 2.502.698 3.142 1.764 1.404 10.207 1.766 14.322 1.663.566-.016 1.146-.497 1.105-1.107-.083-1.198-.022-2.384.265-3.554.275-1.125 1.305-7.012 1.096-10.248"/>
                <path fill="#F4F4F4" d="M175.928 28.421c-.681-.508-1.29-.692-1.778-1.427a7.897 7.897 0 0 1-1.132-2.594c-.435-1.857-.41-3.676-1.337-5.4-.834-1.551-2.198-2.89-3.761-3.68-2-1.011-4.173-1.087-6.364-.843-1.32.15-2.565.55-3.526 1.321-1.923 1.264-1.871 1.712-1.764 2.831-.02.92.806 2.842 1.043 3.392.206.477.463.9.853 1.243.43.379 1.076.642 1.303 1.198.407.998-.404 2.31-.255 3.383.149 1.075.819 2.197 1.446 3.056.276.378.582.715.943 1.012.124.994.012 2.036.23 3.082a4.236 4.236 0 0 0 2.64 3.057c1.626.6 3.227.035 4.219-1.099.443.223.918.378 1.44.43 1.121.112 2.307-.219 3.39-.481 1.937-.472 3.742-1.23 4.095-3.44.281-1.767-.197-3.935-1.685-5.04"/>
                <path fill="#FFEDDC" d="M132.282 52.17c.05-.978-.076-1.938-.44-2.874-.345-.893-1.06-2.37-2.101-2.589-1.084-.228-1.523.701-1.44 1.637.03.344.099.677.201 1a12.428 12.428 0 0 0-3.113-1.508c-1.538-.483-3.343-.293-4.108 1.22-1.346 2.015-.982 4.806.516 6.7.898 1.136 2.12 1.967 3.424 2.55 1.395.624 4.346.146 5.41 1.332.27.3.902.265 1.072-.14 1.03-2.45 1.862-3.314 1.862-6.913 0-.944-1.252-.335-1.283-.416"/>
                <path fill="#F86070" d="M177.667 74.23c-.236-1.772-2.04-2.58-3.552-2.815-.465-.073-.933-.105-1.4-.15-.29-.03-.585-.058-.873-.114 1.603.029 4.993-.027 4.334-1.74-.333-.864-1.537-.528-2.136-.293-.552.217-1.071.518-1.593.795-.47.25-.984.438-1.306.884a.15.15 0 0 0-.128.06.43.43 0 0 0-.115-.015c-.309.022-.646.341-.91.49-.131.074-.264.145-.397.215-.501-1.6-1.32-3.085-2.112-4.545-1.12-2.063-2.088-4.14-2.625-6.452-.555-2.391-.667-4.853-.394-7.294.036-.321-.123-.52-.342-.6-.691 1.209-1.734 2.205-2.797 3.103-.845.714-1.704 1.473-2.788 1.76a4.18 4.18 0 0 1-1.317.13c.072 13.38-2.538 26.55-3.98 39.804-.389 3.577-1.056 7.435-.097 10.97.125.456.584.576.966.403 1.53-.693 3.09-1.434 4.316-2.634 1.388-1.357 1.851-3.097 2.163-4.983.701-4.248 1.841-8.412 3.495-12.375a55.29 55.29 0 0 1 2.78-5.696c.951-1.698 1.961-3.377 2.608-5.232.64-1.839.785-3.773.316-5.673-.03-.12-.061-.24-.096-.36.202-.103.401-.211.598-.325.202-.116.383-.175.557-.197l-.01.02-.033.081c-.08.201.237.29.317.091-.044.11.889 1.433 1.017 1.648.238.404.486.808.79 1.165a4.848 4.848 0 0 0 2.003 1.404c1.254.463 2.978.238 2.741-1.53m-4.554-4.29c.375-.2.75-.402 1.15-.545.135-.054.273-.096.414-.13.442-.18 1.053-.1 1.123.301.033.19.02.501-.38.793-.535.438-1.653.408-2.282.428-.522.02-1.045.014-1.567.012.4-.392 1.074-.614 1.542-.859m3.985 5.393c-.337.45-1.142.357-1.607.247-.82-.192-1.584-.656-2.167-1.275-.615-.65-.986-1.48-1.467-2.229-.153-.237-.309-.546-.54-.712.297.047.604.149.987.195 1.69.206 3.797.194 4.77 1.93.3.532.42 1.317.024 1.844"/>
                <path fill="#D4604F" d="M132.619 42.557c.843.004 7.152.007 6.473-.72-.312-.334-2.393-.404-3.157-.425-1.63-.046-3.27-.053-4.902-.051-1.689.003-3.384.014-5.07.07-.752.025-1.503.063-2.246.125-.439.037-.87.043-1.14.239-.13.096-.158.202-.104.303.064.125.254.237.54.264 1.559.15 3.126.151 4.705.162"/>
            </g>
        </g>
        <path fill="#28AAAB" d="M35.402 96.62s19.83-6.517 24.813-15.857c2.4-4.501-1.007-9.757-6.117-9.658-14.94.29-20.44 23.96-20.44 23.96l1.744 1.556z"/>
        <path fill="#78D0D0" d="M32.826 98.69l-.535-.313c.554-.931 13.519-22.804 26.216-24.515l.442.531c-12.4 1.67-25.989 24.071-26.123 24.297"/>
        <g transform="translate(13.835 58)">
            <mask id="d" fill="#fff">
                <use xlink:href="#c"/>
            </mask>
            <path fill="#35B8B9" d="M5.23 24.576c-2.424-3.332-3.834-6.294-4.584-8.864C-1.391 8.74 3.15 1.494 10.133.273c3.916-.685 8.748-.022 13.293 4.714 9.987 10.411-3.469 38.831-3.469 38.831h-4.855s-.184-5.929-9.872-19.242" mask="url(#d)"/>
        </g>
        <g transform="translate(7 80.069)">
            <mask id="f" fill="#fff">
                <use xlink:href="#e"/>
            </mask>
            <path fill="#52C6C6" d="M16.97 20.464S2.723 17.376.14 6.535C-.664 3.163 2.105-.037 5.584.14c17.642.894 16.828 20.324 16.828 20.324H16.97z" mask="url(#f)"/>
        </g>
        <path fill="#78D0D0" d="M31.582 100.759l-.625-.142c.067-.28 6.326-28.257-9.603-41.66l.69-.267c16.224 13.651 9.606 41.785 9.538 42.069M26.971 100.759c-.097-.164-9.865-16.377-19.287-17.34l.348-.591c9.736.995 19.075 16.94 19.474 17.62l-.535.31z"/>
        <path fill="#0A9091" d="M21.354 118h17.773v-17.241H21.354z"/>
        <path fill="#68CACA" d="M39.961 103.517H19.837c-.67 0-1.217-.62-1.217-1.38 0-.758.548-1.378 1.217-1.378h20.124c.67 0 1.216.62 1.216 1.379s-.547 1.38-1.216 1.38"/>
    </g>
</svg>
