<svg xmlns="http://www.w3.org/2000/svg" width="21" height="21" viewBox="0 0 21 21">
    <path fill="#00A7A7" fill-rule="nonzero" d="M11 21c5.522 0 10-4.478 10-10S16.522 1 11 1a9.992 9.992 0 0 0-10 9.99C1.01 16.532 5.478 21 11 21zm-2.944-5.745c.086-.313.18-.625.276-.937.115-.359.22-.405.563-.23a5.4 5.4 0 0 0 1.86.533c.42.046.83.009 1.221-.156.725-.304.84-1.112.23-1.6a3.212 3.212 0 0 0-.697-.394c-.64-.267-1.297-.478-1.898-.818-.973-.56-1.594-1.333-1.517-2.472.086-1.286.84-2.095 2.07-2.527.505-.175.505-.175.515-.68v-.515c.01-.385.076-.45.477-.459h.372c.849 0 .849 0 .849.818 0 .579 0 .579.6.67.459.065.898.203 1.317.377.23.101.325.258.248.497-.105.349-.21.707-.324 1.056-.114.331-.22.377-.553.22a4.182 4.182 0 0 0-2.09-.394 1.6 1.6 0 0 0-.553.11c-.63.266-.734.937-.2 1.35.267.212.582.36.906.488.563.22 1.126.44 1.65.716 1.69.901 2.147 2.95.955 4.338-.43.505-.993.845-1.641 1.01-.286.074-.41.22-.4.506.009.275 0 .56 0 .845 0 .248-.134.386-.392.386-.315.01-.63.01-.944 0-.277-.01-.401-.156-.41-.413 0-.203 0-.414-.01-.616-.01-.45-.02-.469-.468-.542-.581-.092-1.144-.212-1.669-.46-.42-.193-.458-.294-.343-.707z"/>
</svg>
