<svg xmlns="http://www.w3.org/2000/svg" width="21" height="21" viewBox="0 0 21 21">
    <g fill="none" fill-rule="evenodd">
        <g transform="translate(1 -2)">
            <rect width="18.196" height="14.327" y="8.673" fill="#00A7A7" rx="1"/>
            <path fill="#00A7A7" d="M13.193 1.757l4.38 4.38a1 1 0 0 1 0 1.415l-8.787 8.787a1 1 0 0 1-1.414 0l-4.38-4.38a1 1 0 0 1 0-1.414l8.787-8.788a1 1 0 0 1 1.414 0z"/>
            <path fill="#FFF" fill-rule="nonzero" d="M10.343 10.919c-.052-.092-.102-.186-.152-.28-.056-.11-.042-.145.079-.185.203-.068.386-.174.556-.31a.803.803 0 0 0 .249-.322c.099-.239-.06-.452-.315-.422-.087.011-.17.04-.254.072-.21.087-.413.192-.631.254-.356.098-.679.064-.924-.216-.276-.317-.287-.68-.1-1.066.078-.158.078-.158-.036-.277l-.119-.118c-.087-.091-.086-.122.005-.217l.087-.087c.198-.198.198-.198.387-.01.133.134.133.134.295.015.121-.092.255-.163.393-.22.077-.03.135-.016.173.056.056.105.114.212.168.32.05.103.035.138-.079.18a1.393 1.393 0 0 0-.578.396.533.533 0 0 0-.103.154c-.086.208.044.387.264.358.111-.013.219-.053.324-.099.182-.08.364-.16.55-.22.601-.186 1.18.18 1.222.778.017.217-.036.426-.15.616-.049.083-.044.146.024.21.066.061.13.129.195.195.057.057.058.12-.002.18a5.397 5.397 0 0 1-.22.22c-.067.062-.13.057-.192 0a4.272 4.272 0 0 0-.144-.14c-.106-.101-.112-.103-.234-.015a2.016 2.016 0 0 1-.495.283c-.142.053-.175.039-.243-.083z"/>
            <path fill="#00A7A7" d="M3.412 10.877h13.647v8.817H3.412z"/>
            <g transform="translate(13.647 13.632)">
                <rect width="5.686" height="3.857" fill="#FFF" rx="1.929"/>
                <rect width="5.118" height="3.264" x=".284" y=".297" fill="#00A7A7" rx="1.632"/>
            </g>
        </g>
        <path fill="#FFF" fill-rule="nonzero" d="M4 9.25v-.5h14v.5z"/>
    </g>
</svg>
