<svg width="90" height="95" viewBox="0 0 90 95" fill="none" xmlns="http://www.w3.org/2000/svg">
    <path fill-rule="evenodd" clip-rule="evenodd" d="M20.357 14.667a2 2 0 0 1 2-2h44.3a2 2 0 0 1 2 2v5.946c0 1.143-.661 2.178-1.58 2.859-1.275.944-2.856 2.508-2.856 4.46 0 2.586 6.464 9.49 9.175 12.273a4.102 4.102 0 0 1 1.175 2.862V74.55c0 1.373-.706 2.645-1.937 3.25-3.897 1.918-13.529 5.8-27.634 5.8s-23.738-3.882-27.634-5.8c-1.232-.605-1.938-1.877-1.938-3.25V44.077c0-1.024.39-2.004 1.074-2.766 2.517-2.803 8.587-9.92 8.587-13.378 0-2.434-1.474-3.51-2.776-3.985-1.038-.38-1.956-1.272-1.956-2.377v-6.904z" fill="#63B9C6"/>
    <mask id="a" style="mask-type:alpha" maskUnits="userSpaceOnUse" x="15" y="12" width="60" height="72">
        <path fill-rule="evenodd" clip-rule="evenodd" d="M20.357 14.667a2 2 0 0 1 2-2h44.3a2 2 0 0 1 2 2v5.946c0 1.143-.661 2.178-1.58 2.859-1.275.944-2.856 2.508-2.856 4.46 0 2.586 6.464 9.49 9.175 12.273a4.102 4.102 0 0 1 1.175 2.862V74.55c0 1.373-.706 2.645-1.937 3.25-3.897 1.918-13.529 5.8-27.634 5.8s-23.738-3.882-27.634-5.8c-1.232-.605-1.938-1.877-1.938-3.25V44.077c0-1.024.39-2.004 1.074-2.766 2.517-2.803 8.587-9.92 8.587-13.378 0-2.434-1.474-3.51-2.776-3.985-1.038-.38-1.956-1.272-1.956-2.377v-6.904z" fill="#fff"/>
    </mask>
    <g mask="url(#a)">
        <ellipse cx="45.076" cy="73.921" rx="27.117" ry="7.479" fill="#005960"/>
        <ellipse cx="37.928" cy="66.989" rx="13.5" ry="5.211" fill="#3E8C98"/>
        <ellipse cx="37.928" cy="63.764" rx="13.5" ry="3.97" fill="#AFD8DE"/>
        <ellipse cx="37.928" cy="60.396" rx="13.5" ry="5.211" fill="#3E8C98"/>
        <ellipse cx="37.928" cy="57.17" rx="13.5" ry="3.97" fill="#AFD8DE"/>
        <ellipse cx="53.357" cy="73.323" rx="13.5" ry="5.211" fill="#3E8C98"/>
        <ellipse cx="53.357" cy="70.097" rx="13.5" ry="3.97" fill="#AFD8DE"/>
        <ellipse cx="53.357" cy="66.729" rx="13.5" ry="5.211" fill="#3E8C98"/>
        <ellipse cx="53.357" cy="63.504" rx="13.5" ry="3.97" fill="#AFD8DE"/>
        <ellipse cx="46.928" cy="56.856" rx="13.5" ry="5.211" fill="#3E8C98"/>
        <ellipse cx="46.928" cy="53.63" rx="13.5" ry="3.97" fill="#AFD8DE"/>
        <path fill-rule="evenodd" clip-rule="evenodd" d="M37.009 38.594c1.93 0 3.438-.614 4.525-1.84 1.087-1.228 1.63-3.002 1.63-5.325 0-2.3-.543-4.064-1.63-5.29-1.087-1.227-2.595-1.84-4.525-1.84-1.908 0-3.405.613-4.492 1.84-1.087 1.226-1.63 2.98-1.63 5.258 0 2.344.543 4.13 1.63 5.356 1.087 1.227 2.584 1.84 4.492 1.84zm3.734 8.797 13.583-23.093h-4.275L36.467 47.391h4.276zm-5.987-12.992c.347.597.905.896 1.674.896.794 0 1.37-.299 1.73-.896.36-.597.54-1.586.54-2.969 0-1.361-.186-2.34-.558-2.938-.372-.596-.943-.895-1.712-.895-.744 0-1.296.299-1.655.895-.36.598-.54 1.577-.54 2.938 0 1.383.174 2.372.52 2.97zm18.979 12.992c1.957 0 3.475-.614 4.554-1.84 1.079-1.227 1.618-3.002 1.618-5.324 0-2.323-.54-4.092-1.618-5.308-1.079-1.216-2.597-1.824-4.554-1.824-1.913 0-3.409.608-4.488 1.824-1.078 1.216-1.618 2.974-1.618 5.275 0 2.344.54 4.13 1.618 5.356 1.08 1.227 2.575 1.84 4.488 1.84zm-1.12-4.195c.347.597.905.896 1.674.896.794 0 1.37-.299 1.73-.896.36-.597.54-1.586.54-2.969 0-1.361-.186-2.34-.558-2.937-.372-.597-.943-.896-1.712-.896-.744 0-1.296.299-1.656.896-.36.597-.539 1.576-.539 2.937 0 1.383.174 2.372.52 2.97z" fill="#FF7900"/>
    </g>
</svg>
