<svg xmlns="http://www.w3.org/2000/svg" width="45" height="20" viewBox="0 0 45 20">
    <g fill="none" fill-rule="evenodd">
        <g>
            <g>
                <path fill="#FF7900" d="M3.006.456H44.75v18.628H3.006c-1.657 0-3-1.343-3-3V3.456c0-1.657 1.343-3 3-3z" transform="translate(-290 -10) translate(290 10)"/>
                <path fill="#FFF" fill-rule="nonzero" d="M11.17 14V7.544L16.066 14h.948V5.456H15.85v6.468l-4.908-6.468h-.936V14h1.164zm10.476.084c.424 0 .846-.07 1.266-.21.42-.14.766-.33 1.038-.57l-.372-.864c-.576.456-1.212.684-1.908.684-1.248 0-1.892-.708-1.932-2.124h4.32v-.204c0-.936-.234-1.668-.702-2.196-.468-.528-1.11-.792-1.926-.792-.56 0-1.06.132-1.5.396-.44.264-.782.636-1.026 1.116-.244.48-.366 1.028-.366 1.644 0 .968.276 1.73.828 2.286.552.556 1.312.834 2.28.834zm1.344-3.804h-3.204c.08-.504.264-.892.552-1.164.288-.272.66-.408 1.116-.408.448 0 .804.134 1.068.402s.42.658.468 1.17zM28.114 14l1.608-4.38 1.62 4.38h1.104l2.304-6.048h-1.188l-1.656 4.62-1.668-4.62h-.96l-1.668 4.62-1.644-4.62h-1.26L27.01 14h1.104z" transform="translate(-290 -10) translate(290 10)"/>
            </g>
        </g>
    </g>
</svg>
