<svg xmlns="http://www.w3.org/2000/svg" width="20" height="16" viewBox="0 0 20 16">
    <g fill="none" fill-rule="evenodd">
        <g fill="#00A7A7" fill-rule="nonzero">
            <g>
                <path d="M15.515 7.892c1.253-.727 2.097-2.083 2.097-3.633 0-2.314-1.883-4.196-4.197-4.196-2.313 0-4.196 1.882-4.196 4.196 0 1.55.844 2.906 2.097 3.632-.736.256-1.408.644-1.996 1.132-.45-.54-1.012-.984-1.652-1.293.73-.612 1.194-1.53 1.194-2.556 0-1.84-1.497-3.336-3.337-3.336S2.19 3.335 2.19 5.174c0 1.025.464 1.944 1.194 2.556C1.726 8.53.58 10.227.58 12.187c0 .605.49 1.095 1.094 1.095h5.358v-.003c-.023.225-.04.452-.04.684 0 .604.49 1.094 1.095 1.094h10.657c.605 0 1.095-.49 1.095-1.095 0-2.806-1.81-5.198-4.324-6.07zm-5.201-3.633c0-1.713 1.388-3.102 3.101-3.102s3.102 1.39 3.102 3.102c0 1.713-1.389 3.102-3.102 3.102-1.713 0-3.101-1.389-3.101-3.102zm-7.03.915c0-1.238 1.003-2.242 2.241-2.242 1.239 0 2.243 1.004 2.243 2.242 0 1.239-1.004 2.242-2.243 2.242-1.238 0-2.241-1.003-2.241-2.242zm3.963 7.013H1.674c0-2.127 1.725-3.851 3.851-3.851 1.22 0 2.306.57 3.012 1.454l.005-.005c-.592.69-1.037 1.507-1.295 2.402zm.84 1.776c0-2.943 2.386-5.33 5.329-5.33 2.943 0 5.328 2.387 5.328 5.33H8.087z" transform="translate(-139 -287) translate(139 287)"/>
            </g>
        </g>
    </g>
</svg>
