<svg xmlns="http://www.w3.org/2000/svg" width="158" height="40" viewBox="0 0 158 40">
    <g fill="none">
        <path fill="#FFF" d="M59.514 6.092h.915v4.225h-.915v-.61c-.34.476-.899.747-1.484.718-.566.01-1.11-.22-1.494-.635-.823-.891-.823-2.263 0-3.155.385-.413.928-.643 1.494-.635.584-.028 1.142.24 1.484.711v-.619zm-2.3 3.08c.536.507 1.377.507 1.912 0 .51-.545.51-1.39 0-1.934-.535-.508-1.376-.508-1.912 0-.505.546-.505 1.387 0 1.933zM63.726 5.981c.441-.018.87.152 1.178.467.313.347.475.804.45 1.27v2.593h-.915V7.81c.017-.267-.075-.53-.255-.727-.188-.175-.438-.266-.694-.254-.293-.008-.576.107-.78.317-.216.255-.323.585-.297.917v2.264h-.917V6.092h.917v.54c.287-.438.789-.688 1.313-.651zM72.078 4.403L73.053 4.403 73.053 10.317 72.291 10.317 69.491 6.305 69.491 10.317 68.517 10.317 68.517 4.403 69.262 4.403 72.078 8.444zM78.099 4.403L78.099 5.33 76.426 5.33 76.426 10.317 75.451 10.317 75.451 5.33 73.773 5.33 73.773 4.403zM82.625 9.863c-.949.75-2.29.75-3.24 0-.426-.383-.66-.936-.637-1.507V4.403h.975v3.895c-.015.318.1.629.319.86.26.233.607.348.955.318.35.03.695-.085.956-.317.22-.232.335-.542.318-.86V4.402h.975v3.953c.027.569-.2 1.12-.62 1.507zM87.177 10.425c-1.286 0-2.436-.798-2.883-2-.447-1.201-.097-2.553.877-3.39.974-.836 2.368-.98 3.494-.362.443.24.81.597 1.064 1.032l-.848.489c-.159-.294-.399-.536-.69-.699-.31-.173-.66-.262-1.014-.257-.574-.022-1.132.195-1.538.6-.786.863-.786 2.179 0 3.041.69.64 1.711.778 2.548.343.292-.159.53-.4.685-.695l.847.48c-.248.435-.613.793-1.054 1.034-.454.256-.967.388-1.488.384zM94.673 10.425c-.512.017-1.018-.117-1.453-.387-.392-.25-.686-.625-.835-1.063l.838-.492c.196.636.81 1.05 1.475.996.292.022.583-.053.828-.212.177-.133.28-.342.274-.562.006-.223-.107-.433-.296-.553-.333-.181-.687-.32-1.054-.415l-.679-.254c-.198-.076-.386-.175-.56-.296-.187-.124-.338-.294-.437-.495-.1-.217-.148-.454-.143-.692-.02-.48.185-.942.557-1.248.38-.309.86-.472 1.35-.46.89-.023 1.707.49 2.068 1.302l-.822.473c-.191-.516-.694-.85-1.245-.829-.243-.013-.482.058-.679.2-.168.126-.264.327-.255.537-.007.202.09.393.258.508.298.176.62.308.956.393l.487.184.446.165c.155.054.3.13.43.229.112.093.219.193.319.298.107.119.186.26.23.413.046.17.069.345.066.52.02.492-.195.963-.58 1.27-.443.334-.99.5-1.544.47zM99.565 10.425c-.595.015-1.171-.214-1.592-.635-.871-.874-.871-2.284 0-3.158.884-.865 2.3-.865 3.185 0 .866.876.866 2.282 0 3.158-.42.422-.997.651-1.593.635zm-.94-1.27c.524.508 1.357.508 1.88 0 .508-.533.508-1.37 0-1.904-.523-.507-1.356-.507-1.88 0-.507.534-.507 1.37 0 1.905zM104.637 10.425c-1.232 0-2.23-.995-2.23-2.222 0-1.227.998-2.222 2.23-2.222.396-.005.786.099 1.127.298.327.185.592.46.762.794l-.787.454c-.095-.2-.248-.365-.44-.476-.204-.117-.436-.177-.672-.172-.35-.008-.69.129-.936.378-.512.533-.512 1.372 0 1.905.429.408 1.075.489 1.592.2.202-.108.367-.272.475-.473l.787.448c-.177.336-.447.615-.777.803-.345.194-.735.293-1.131.285zM108.1 5.286c-.109.11-.257.172-.412.171-.32-.003-.58-.26-.586-.58-.001-.154.06-.302.17-.41.107-.115.259-.179.416-.175.157-.003.308.06.415.175.11.107.172.255.168.41.001.153-.06.301-.172.409zm-.87 5.031V6.092h.914v4.225h-.914zM112.562 6.092h.918v4.225h-.918v-.61c-.338.478-.899.749-1.484.718-.565.01-1.108-.22-1.491-.635-.823-.891-.823-2.263 0-3.155.384-.413.926-.643 1.49-.635.585-.03 1.144.238 1.485.711v-.619zm-2.296 3.08c.534.509 1.376.509 1.91 0 .511-.545.511-1.39 0-1.934-.534-.51-1.376-.51-1.91 0-.51.544-.51 1.39 0 1.933zM114.547 10.317L114.547 4.149 115.461 4.149 115.461 10.317zM119.675 9.387L122.303 9.387 122.303 10.317 118.701 10.317 118.701 4.403 122.262 4.403 122.262 5.33 119.675 5.33 119.675 6.87 122.049 6.87 122.049 7.79 119.675 7.79zM125.365 5.981c.441-.018.87.152 1.178.467.313.347.475.804.45 1.27v2.593h-.915V7.81c.018-.267-.074-.53-.255-.727-.187-.175-.438-.266-.694-.254-.293-.009-.577.107-.78.317-.217.255-.325.584-.3.917v2.264h-.914V6.092h.914v.54c.288-.439.791-.688 1.316-.651zM130.34 6.984h-1.05v2.029c-.013.136.03.271.12.374.098.084.222.13.35.127h.58v.82c-.7.082-1.203.022-1.506-.182-.319-.206-.459-.584-.459-1.136V6.984h-.78v-.88h.78v-.91l.914-.273v1.184h1.051v.88zM131.936 8.594c.053.297.22.563.465.74.263.177.575.267.892.256.431.027.845-.171 1.093-.523l.755.438c-.413.612-1.118.962-1.857.92-.62.026-1.224-.204-1.67-.635-.423-.418-.653-.993-.636-1.587-.014-.593.216-1.166.637-1.587.424-.427 1.009-.657 1.611-.635.581-.016 1.14.222 1.53.65.398.433.613 1.002.598 1.588-.003.128-.015.255-.035.381l-3.383-.006zm0-.743h2.491c-.072-.608-.599-1.06-1.213-1.041-.307-.01-.607.089-.848.279-.232.194-.388.464-.44.762h.01zM137.065 6.803c.218-.517.745-.835 1.306-.787v.987c-.326-.028-.651.061-.917.251-.277.228-.423.577-.389.933v2.13h-.914V6.092h.914v.711zM141.435 5.981c.566-.01 1.108.22 1.491.635.828.89.828 2.265 0 3.155-.383.414-.926.645-1.49.635-.584.03-1.142-.236-1.485-.708v2.29h-.914V6.091h.914v.61c.339-.478.899-.75 1.484-.721zm-1.102 3.19c.535.508 1.376.508 1.912 0 .505-.546.505-1.387 0-1.933-.536-.508-1.377-.508-1.912 0-.51.544-.51 1.39 0 1.933zM145.306 6.803c.218-.517.745-.835 1.306-.787v.987c-.326-.028-.651.061-.918.251-.276.228-.422.577-.388.933v2.13h-.914V6.092h.914v.711zM148.16 5.286c-.227.228-.596.23-.825.003-.229-.226-.23-.594-.003-.822.109-.112.259-.175.416-.175.156 0 .306.063.415.175.11.108.171.255.171.41 0 .153-.061.3-.17.409h-.004zm-.87 5.031V6.092h.915v4.225h-.915zM150.087 7.254c.01.143.102.267.236.317.18.092.37.167.564.223l.672.206c.228.07.429.207.577.394.386.531.28 1.272-.24 1.676-.344.242-.76.364-1.181.346-.376.01-.748-.08-1.077-.26-.29-.166-.52-.421-.653-.727l.79-.458c.133.404.532.658.956.61.48 0 .72-.159.72-.473-.011-.141-.101-.264-.233-.318-.179-.094-.366-.17-.56-.228l-.676-.206c-.226-.067-.427-.2-.576-.381-.162-.196-.245-.443-.236-.696-.015-.37.151-.725.446-.952.316-.242.707-.368 1.105-.356.334-.007.664.074.956.235.27.145.492.366.637.635l-.771.432c-.136-.314-.457-.508-.8-.483-.154-.005-.307.035-.44.115-.136.06-.222.2-.216.349zM153.894 8.594c.052.298.22.564.468.74.262.177.573.267.889.256.43.027.845-.171 1.093-.523l.755.438c-.412.613-1.119.963-1.858.92-.62.025-1.223-.204-1.669-.635-.423-.418-.654-.993-.637-1.587-.013-.593.217-1.166.637-1.587.425-.426 1.01-.657 1.612-.635.58-.016 1.14.222 1.53.65.399.432.614 1.001.598 1.588-.002.128-.014.255-.035.381l-3.383-.006zm0-.743h2.494c-.04-.304-.192-.581-.427-.778-.224-.175-.502-.268-.787-.263-.306-.01-.606.089-.847.279-.234.193-.391.463-.443.762h.01zM47.738 15L47.738 34.333 44.549 34.333 44.549 20.552 38.646 30.276 38.261 30.273 32.355 20.524 32.355 34.333 29.169 34.333 29.169 15 32.607 15 38.458 24.667 44.326 15zM57.377 34.695c-1.943.035-3.816-.724-5.183-2.101-2.846-2.86-2.846-7.471 0-10.33 2.89-2.798 7.488-2.798 10.378 0 2.11 2.08 2.744 5.228 1.603 7.959-1.141 2.73-3.83 4.5-6.798 4.472M54.3 30.568c1.715 1.655 4.439 1.655 6.154 0 1.661-1.752 1.661-4.492 0-6.244-1.715-1.655-4.439-1.655-6.154 0-1.662 1.752-1.662 4.492 0 6.244M74.222 20.165c1.442-.058 2.842.495 3.854 1.52.98 1.014 1.469 2.405 1.469 4.172v8.476H76.55V26.16c0-1.031-.277-1.822-.831-2.375-.612-.574-1.432-.874-2.271-.828-.95-.04-1.873.315-2.549.98-.637.654-.955 1.653-.955 2.997v7.4h-2.995v-13.81h2.995v1.77c.904-1.417 2.336-2.126 4.294-2.128M84.613 28.702c.175.972.722 1.838 1.526 2.415.855.58 1.874.875 2.908.842 1.59 0 2.783-.57 3.577-1.711l2.466 1.435c-1.368 2.006-3.39 3.01-6.068 3.012-2.256 0-4.076-.687-5.46-2.06-1.388-1.373-2.141-3.259-2.08-5.206-.051-1.932.69-3.802 2.05-5.178 1.366-1.39 3.122-2.086 5.267-2.086 1.899-.055 3.727.722 5 2.127 1.299 1.405 2 3.256 1.957 5.165-.01.417-.047.833-.112 1.245H84.613zm-.029-2.432h8.149c-.232-1.988-1.956-3.467-3.963-3.397-1.003-.035-1.986.288-2.771.911-.755.633-1.257 1.515-1.415 2.486M106.66 20.524h3.185l-5.323 14.254c-1.33 3.572-3.584 5.265-6.763 5.08v-2.791c.806.091 1.617-.12 2.275-.594.65-.568 1.137-1.297 1.41-2.114l.141-.276-5.874-13.562h3.268l4.141 10.025 3.54-10.022z"/>
        <path fill="#FF9C39" d="M128.264 31.781c-3.41 3.45-8.793 4.015-12.85 1.348-4.055-2.667-5.652-7.821-3.81-12.303 1.842-4.482 6.608-7.038 11.376-6.103 4.769.935 8.207 5.1 8.208 9.944.053 2.672-1.006 5.247-2.924 7.114m-12.029-2.156c2.726 2.634 7.057 2.634 9.783 0 2.642-2.78 2.642-7.134 0-9.914-2.726-2.633-7.057-2.633-9.783 0-2.642 2.78-2.642 7.134 0 9.914M149.644 20.524L152.804 20.524 148.453 34.333 145.516 34.333 142.579 24.908 139.639 34.333 136.463 34.333 132.433 20.524 135.6 20.524 138.282 30.054 141.193 20.524 144.06 20.524 146.94 30.051zM154.846 14.171H157.84V34.333H154.846z"/>
        <path fill="#066360" d="M2.892 33.676H26.025V34.676H2.892zM26.022 31.978L26.022 33.676 2.889 33.676 2.889 31.978 10.767 31.978 22.668 31.978z"/>
        <path fill="#00C5C4" d="M21.78 3.102c.327-.192.737-.172 1.045.05.307.222.453.605.372.975-.067.317-.137.635-.214.914-.42 1.576-.548 3.214-.379 4.835.044.398.065.797.064 1.197v20.905H10.767C4.65 29.234.715 23.173.707 16.488v-5.415c0-.402.022-.804.067-1.203.17-1.621.04-3.26-.379-4.835-.076-.292-.147-.594-.213-.908-.082-.37.064-.753.372-.975.307-.222.718-.242 1.045-.05.319.187.66.368.994.527.428.208.942.118 1.274-.223C5.927 1.31 8.75.126 11.694.126c2.945 0 5.766 1.183 7.827 3.28.332.34.845.431 1.274.226.334-.162.669-.343.994-.53m.86 28.857V17.26c-1.923 1.526-3.178 3.734-3.504 6.162-.343 2.753.583 5.512 2.52 7.505l.984 1.032zm-1.625-21.546c.001-2.327-1.676-4.318-3.976-4.72-2.3-.403-4.557.9-5.35 3.088-.795-2.188-3.052-3.491-5.352-3.089-2.3.403-3.977 2.394-3.976 4.72 0 5.455.532 9.874 9.327 9.874 8.311 0 9.327-4.42 9.327-9.873"/>
        <path fill="#FF9C39" d="M22.64 17.26V31.96l-.972-1.032c-1.937-1.993-2.863-4.752-2.52-7.505.326-2.428 1.581-4.636 3.504-6.162"/>
        <path fill="#FFF" d="M16.208 5.625c1.276-.002 2.5.501 3.404 1.399.903.898 1.411 2.117 1.412 3.389 0 5.454-1.016 9.873-9.327 9.873-8.795 0-9.327-4.42-9.327-9.873-.001-2.327 1.676-4.318 3.976-4.72 2.3-.403 4.557.9 5.351 3.088.69-1.895 2.497-3.156 4.52-3.156m-2.867 8.6c.096-.18.068-.4-.07-.552l-1.274-1.35c-.084-.085-.199-.133-.318-.133-.12 0-.235.048-.319.134l-1.274 1.349c-.138.151-.165.373-.067.552l.866 1.607c.16.294.469.478.805.478.336 0 .644-.184.804-.478l.847-1.607z"/>
        <path fill="#066360" d="M16.345 9.152c.75 0 1.357.606 1.357 1.353s-.608 1.352-1.357 1.352c-.75 0-1.357-.605-1.357-1.352 0-.747.607-1.353 1.357-1.353"/>
        <path fill="#FF9C39" d="M13.28 13.673c.138.151.166.372.07.552l-.866 1.607c-.16.294-.469.478-.804.478-.336 0-.645-.184-.805-.478l-.866-1.607c-.098-.18-.072-.4.067-.552l1.274-1.35c.084-.085.199-.133.318-.133.12 0 .235.048.319.134l1.293 1.349z"/>
        <path fill="#066360" d="M7.27 9.152c.749 0 1.356.606 1.356 1.353s-.607 1.352-1.357 1.352-1.357-.605-1.357-1.352c0-.359.143-.703.398-.957.254-.253.6-.396.96-.396"/>
    </g>
</svg>
