<svg xmlns="http://www.w3.org/2000/svg" xmlns:xlink="http://www.w3.org/1999/xlink" width="70" height="77" viewBox="0 0 70 77">
    <defs>
        <rect id="xahtj7ztna" width="8.769" height="21.474" x="0" y="0" rx="3"/>
        <rect id="j8azx85a4c" width="7.972" height="28.632" x="0" y="0" rx="3"/>
        <rect id="ix5qnifwte" width="7.972" height="34" x="0" y="0" rx="3"/>
        <rect id="t1g7ny08zg" width="7.972" height="18.789" x="0" y="0" rx="3"/>
    </defs>
    <g fill="none" fill-rule="evenodd">
        <g>
            <g>
                <g>
                    <g>
                        <g>
                            <g transform="translate(-317 -243) translate(287 133) translate(0 68) translate(30 42) translate(14 34) translate(0 12.526)">
                                <mask id="nsvv87hxub" fill="#fff">
                                    <use xlink:href="#xahtj7ztna"/>
                                </mask>
                                <use fill="#3E8C98" xlink:href="#xahtj7ztna"/>
                                <path fill="#63B9C6" d="M3.986 0H11.161V21.474H3.986z" mask="url(#nsvv87hxub)"/>
                            </g>
                            <g transform="translate(-317 -243) translate(287 133) translate(0 68) translate(30 42) translate(14 34) translate(11.958 5.368)">
                                <mask id="w4ir9vhaod" fill="#fff">
                                    <use xlink:href="#j8azx85a4c"/>
                                </mask>
                                <use fill="#3E8C98" xlink:href="#j8azx85a4c"/>
                                <path fill="#63B9C6" d="M4.124 0H11.299V28.632H4.124z" mask="url(#w4ir9vhaod)"/>
                            </g>
                            <g transform="translate(-317 -243) translate(287 133) translate(0 68) translate(30 42) translate(14 34) translate(34.28)">
                                <mask id="s8sh06k2jf" fill="#fff">
                                    <use xlink:href="#ix5qnifwte"/>
                                </mask>
                                <use fill="#3E8C98" xlink:href="#ix5qnifwte"/>
                                <path fill="#63B9C6" d="M4.124 0H10.501999999999999V34H4.124z" mask="url(#s8sh06k2jf)"/>
                            </g>
                            <g transform="translate(-317 -243) translate(287 133) translate(0 68) translate(30 42) translate(14 34) translate(23.12 15.21)">
                                <mask id="2hf7xhz3ih" fill="#fff">
                                    <use xlink:href="#t1g7ny08zg"/>
                                </mask>
                                <use fill="#3E8C98" xlink:href="#t1g7ny08zg"/>
                                <path fill="#63B9C6" d="M3.986 0H9.567V18.789H3.986z" mask="url(#2hf7xhz3ih)"/>
                            </g>
                        </g>
                        <path stroke="#FF872F" stroke-linecap="round" stroke-linejoin="round" stroke-width="6" d="M14 34L28.762 17.324 41.409 28.904 56 13" transform="translate(-317 -243) translate(287 133) translate(0 68) translate(30 42)"/>
                    </g>
                </g>
            </g>
        </g>
    </g>
</svg>
