<svg xmlns="http://www.w3.org/2000/svg" xmlns:xlink="http://www.w3.org/1999/xlink" width="70" height="75" viewBox="0 0 70 75">
    <defs>
        <path id="prefix__a" d="M0.002 0L20.929 0 20.929 14.727 0.002 14.727z"/>
        <path id="prefix__c" d="M27 12.71c.004-3.087-.12-5.18.376-7.017.092-.342.176-.696.256-1.064.206-.946-.837-1.68-1.701-1.195-.388.218-.791.429-1.194.617-.513.239-1.121.133-1.52-.26C21.006 1.617 17.997.202 14.651 0c-.181-.01-.308 1.066-.379 3.23h-1.1c-.021-2.16-.104-3.234-.247-3.225C9.612.223 6.633 1.632 4.44 3.791c-.399.392-1.007.498-1.52.258-.402-.187-.804-.397-1.191-.615C.863 2.95-.18 3.683.026 4.63c.08.365.164.717.255 1.057.494 1.836.67 3.738.454 5.625-.053.459-.08.926-.08 1.399-.03 2.788.15 4.83.54 6.126 1.388 4.626 3.277 6.497 12.666 6.497 9.39 0 11.253-3.139 12.322-5.885.924-2.372.812-3.652.817-6.738z"/>
    </defs>
    <g fill="none" fill-rule="evenodd">
        <path fill="#FAB08A" d="M28.52 31.083c-1.13 0-2.196-.675-2.62-1.77-1.985-5.11 2.42-12.096 6.323-14.66 1.287-.844 3.027-.512 3.892.744.864 1.256.522 2.958-.762 3.803-2.377 1.56-5.003 6.132-4.21 8.17.548 1.415-.18 2.997-1.628 3.534-.327.12-.664.179-.994.179"/>
        <path fill="#F49E8E" d="M36.115 15.398c-.865-1.257-2.605-1.589-3.892-.746-1.33.874-2.717 2.261-3.89 3.912.369 1.57 1.18 2.772 2.708 3 .825.123 1.667-.143 2.493-.655.581-.705 1.208-1.308 1.819-1.709 1.284-.844 1.625-2.546.762-3.802"/>
        <path fill="#FAB08A" d="M31 9.026c-1.099 1.89-3.385 11.168 1.142 12.07 4.529.903 10.155-9.965 10.155-9.965s-9.363-6.572-10.33-4.339L31 9.026z"/>
        <g transform="translate(28.525)">
            <mask id="prefix__b" fill="#fff">
                <use xlink:href="#prefix__a"/>
            </mask>
            <path fill="#DC6D08" d="M1.78 12.568c.18-.333.765-4.815 3.569-5.189 2.803-.374 4.814 1.48 6.187 3.538 1.884 2.823 7.873 1.11 8.978-1.837 1.104-2.946-.17-4.026-1.784-3.652.255-1.204.042-5.603-5.056-4.15C12.74-.01 4.668-2.046 4.201 5.22c-6.908.01-3.21 9.507-3.21 9.507l.79-2.159z" mask="url(#prefix__b)"/>
        </g>
        <path fill="#FF7900" d="M49.445 7.015c-.06-1.373-1.036-1.854-2.19-1.587.254-1.204.042-5.603-5.056-4.15-.817-1.127-7.093-2.824-8.967 1.628l-.002.024h-.008c-.263.634-.438 1.39-.496 2.29-2.017.003-3.126.818-3.691 1.966-.075 2.531.983 5.252.983 5.252l.79-2.16c.18-.332.764-4.815 3.568-5.189 2.804-.373 4.815 1.48 6.188 3.538 1.835 2.75 7.566 1.195 8.881-1.612"/>
        <path fill="#FAB08A" d="M31.321 10.935c-.065 1.197-.531 2.145-1.04 2.118-.51-.026-.869-1.018-.804-2.214.066-1.197.532-2.145 1.04-2.119.51.027.87 1.018.804 2.215"/>
        <path fill="#004472" d="M23.338 22.945C20.754 21.409.254 30.51.143 48.972.04 66.532 7.195 73.257 16.371 73.257h21.41l-1.189-17.56 18.521 7.97 1.409-6.13s-8.456-7.381-10.571-11.74c-2.116-4.359-5.048-19.471-12.63-20.236-2.185-.221-3.909.995-9.983-2.616"/>
        <path fill="#1C2C57" d="M52.58 53.848c-3.932.654-12.765-2.35-10.964-3.09 2.107-.868 1.881-5.78-.333-6.347l-4.784-.041s-4.036 9.492-3.956 9.682c.054.128 2.64 3.58 4.333 5.835l-.284-4.19 16.674 7.176 2.133-.452 1.123-4.884s-1.798-1.571-3.943-3.689"/>
        <path fill="#1C2C57" d="M17.372 43.37c.127 2.984-.656 18.759 3.75 17.816 4.405-.943 7.659-10.678 11.466-7.812 3.807 2.866-1.834 18.695-3.242 19.528-1.408.832-16.614 1.616-10.068-.294 5.672-3.527 7.373-8.64 7.373-8.64l-.273-1.979-.476-.555-3.718 1.374s-5.275.594-6.873-2.168c-1.599-2.761-1.125-11.8-1.125-11.8l.638-5.47s2.392-3.682 2.548 0"/>
        <path fill="#1C2C57" d="M27.906 73.256c2.778-2.401 13.054-11.735-4.924-3.651C2.504 78.815 1.22 46.962 1.095 42.867l-.122-.032c-.517 1.915-.817 3.96-.83 6.137-.104 17.56 7.052 24.284 16.228 24.284h11.535z"/>
        <path fill="#004472" d="M29.294 28.076c-.825 0-1.674-.155-2.514-.47-2.24-.841-3.79-2.615-3.947-4.521-.078-.96.653-1.8 1.635-1.877.982-.08 1.843.637 1.922 1.597.039.466.674 1.172 1.67 1.546.535.2 1.897.562 2.974-.432.716-.66 1.845-.63 2.521.07.677.7.645 1.804-.07 2.465-1.158 1.068-2.631 1.622-4.19 1.622"/>
        <g transform="translate(40.127 48.293)">
            <mask id="prefix__d" fill="#fff">
                <use xlink:href="#prefix__c"/>
            </mask>
            <use fill="#62D7D7" xlink:href="#prefix__c"/>
            <path fill="#1DBEBE" d="M26.294 19.16c-.79 1.643-2.466 2.905-4.16 3.838-1.58.87-3.518 1.51-7.82 1.64-2.309.07-5.066-.194-7.192-.732-2.947-.745-4.628-1.988-4.477-1.762.848 1.266 1.583 1.718 1.929 1.938 2.046 1.304 4.2 1.25 5.065 1.25 4.05 0 9.281 1.155 13.838-1.961 4.556-3.116 3.284-5.184 2.817-4.212z" mask="url(#prefix__d)"/>
            <path fill="#FFF" d="M19.247 6.23c-2.493 0-4.616 1.538-5.419 3.69-.803-2.152-2.926-3.69-5.42-3.69-3.182 0-5.763 2.507-5.763 5.6 0 6.373.633 11.54 11.183 11.54 9.964 0 11.183-5.167 11.183-11.54 0-3.093-2.58-5.6-5.764-5.6" opacity=".901"/>
            <path fill="#FFCD8C" d="M15.047 18.768l1.28-2.283c.143-.255.1-.575-.103-.782l-1.883-1.92c-.26-.265-.7-.265-.959 0l-1.884 1.92c-.203.207-.246.527-.103.782l1.28 2.283c.509.907 1.864.907 2.372 0"/>
        </g>
        <path fill="#232374" d="M16.08 73.529c-.344 0-.694-.023-1.052-.07-.14-.019-.238-.144-.218-.28.019-.137.146-.238.286-.214 6.902.906 10.937-8.077 11.32-8.975l-.56-2.287c-.826.489-3.224 1.672-6.861 1.466-1.283-.073-2.348-.593-3.165-1.548-3.051-3.564-1.974-12.283-1.457-16.473.082-.658.147-1.19.177-1.55.01-.137.134-.237.274-.228.14.01.245.13.234.268-.03.365-.096.903-.179 1.57-.469 3.798-1.567 12.695 1.342 16.093.723.846 1.666 1.306 2.803 1.37 4.283.242 6.818-1.552 6.843-1.57.07-.05.16-.063.239-.034.08.029.14.095.16.176l.666 2.709c.012.05.008.101-.01.148-.04.1-3.878 9.428-10.843 9.429"/>
        <path fill="#272727" d="M37.688 38.04c4.947-1.39 7.885 6.11 5.388 7.24-2.496 1.128-8.68-6.312-5.388-7.24"/>
        <path fill="#FAB08A" d="M36.354 54.035c.066.008.136.016.206.016 1.037.031 1.901-.767 1.932-1.783.03-1.08.094-3.33 1.558-4.688.754-.7.784-1.862.07-2.596-.717-.737-1.904-.768-2.66-.068-2.587 2.402-2.688 5.923-2.725 7.25-.027.946.682 1.743 1.62 1.869"/>
        <path fill="#F29B8B" d="M37.156 47.746c-.277-.635-.47-1.264-.57-1.858.255-.337.544-.665.874-.972.756-.7 1.943-.669 2.66.068.714.734.684 1.896-.07 2.596-.688.636-1.061 1.473-1.27 2.29-.657-.525-1.242-1.245-1.624-2.124"/>
        <path fill="#FAB08A" d="M42.616 43.297c1.017 2.337.21 4.9-1.19 5.488-1.399.586-3.853-.635-4.87-2.974-1.014-2.336-.973-4.575 1.192-5.486 3.164-1.333 3.851.633 4.868 2.972M52.834 65.303c-.12 0-.243-.042-.34-.127-.21-.184-.227-.498-.04-.703l1.827-1.992c.188-.206.51-.223.72-.04.21.184.227.499.04.704l-1.827 1.993c-.1.11-.24.165-.38.165"/>
        <path fill="#FAB08A" d="M52.16 64.703c0-.243 4.89-2.219 5.2-.908.309 1.31-.516 2.743-6.294 2.42 0-.847 1.094-1.512 1.094-1.512"/>
        <path fill="#00A7A7" d="M35.087 51.668c-2.612 1.394-9.029 20.923-8.392 21.11.765 0 18.159 1.097 17.522-.46-.637-1.556-2.757-17.325-2.757-17.325l-3.095-2.34-3.278-.985z"/>
        <path fill="#00A7A7" d="M52.42 63.981h-.012c-2.866-.254-6.203-.95-8.179-3.162-1.082-1.212-1.11-2.719-1.112-4.244-.032-5.646-9.224-4.277-7.454 1.428 1.441 4.643 5.026 8.544 10.314 8.817 2.192.219 4.312.018 6.443-.35v-2.489z"/>
        <path fill="#008F91" d="M40.93 53.226c-1.37-.512-3.083-.237-4.23.703.61.243 1.36.396 2.088.396.568 0 1.12-.092 1.576-.308.329-.154.53-.46.567-.791M43.092 66.33c-2.255-.768-4.377-2.908-4.73-3.245-.445 2.705 2.848 5.897 5.267 6.52-.167-.95-.35-2.077-.537-3.276"/>
        <path fill="#00A7A7" d="M37.8 53.645c-.891 0-1.821-.228-2.477-.573-.923-.485-1.187-1.098-1.246-1.526-.075-.545.316-1.047.875-1.12.524-.068 1.009.265 1.128.758.326.334 1.772.66 2.408.36.508-.24 1.117-.033 1.362.463.245.495.033 1.09-.474 1.33-.455.215-1.008.308-1.576.308"/>
        <path fill="#008F91" d="M26.695 72.778c.542 0 9.419.55 14.33.318-1.227-.03-2.762-.07-4.697-.12-8.04-.204-3.185-15.242-.797-21.175l-.443-.133c-2.613 1.395-9.03 20.923-8.393 21.11"/>
        <path fill="#272727" d="M36.592 52.492c.743-1.817-.049-2.753-.007-6.605.02-1.731 2.94-2.051 3.947-3.49 2.457-3.52-1.663-5.544-4.482-4.464-3.217 1.232-3.068 6.39-3.344 6.93-.277.54-5.48 1.806-5.024 6.804.415 4.537 7.516 4.236 8.91.825"/>
        <path fill="#FAB08A" d="M35.723 44.567c.17.635.655 1.06 1.084.95.43-.11.64-.714.468-1.346-.17-.635-.655-1.06-1.085-.948-.427.109-.64.71-.467 1.344M31.727 56.818c-.672-3.76-2.925.712-3.191 2.176-.205 1.126-1.133 2.392-2.159 2.995.003.01.01.022.013.034.087.414.28.929.283 1.324.136.007.222-.001.383 0 2.89.043 5.342-2.768 4.67-6.529"/>
        <path fill="#181615" d="M32.963 45.143l-.485-.09c-1.05.646-5.206 2.123-4.796 6.615.285 3.122 3.74 3.953 6.32 3.054-7.016-1.823-2.337-9.194-1.039-9.58"/>
        <path fill="#EFAE64" d="M55.336 42.247c-.173 0-.328-.105-.394-.265-.84-2.033-1.458-2.653-3.485-3.495-.16-.067-.263-.223-.263-.396 0-.173.104-.329.263-.395 2.027-.842 2.645-1.463 3.485-3.496.066-.16.221-.264.394-.264.172 0 .328.104.394.264.84 2.033 1.458 2.654 3.485 3.496.159.066.263.222.263.395 0 .173-.104.33-.263.396-2.027.841-2.646 1.462-3.485 3.495-.066.16-.222.265-.394.265M65.784 31.296c-.173 0-.328-.105-.394-.264-.84-2.033-1.459-2.654-3.485-3.496-.16-.066-.263-.222-.263-.395 0-.173.104-.33.263-.396 2.027-.842 2.645-1.463 3.485-3.496.066-.16.221-.264.394-.264.172 0 .327.104.393.264.84 2.033 1.459 2.654 3.485 3.496.16.067.264.223.264.396 0 .173-.104.329-.264.395-2.026.842-2.645 1.463-3.485 3.496-.066.16-.221.264-.393.264"/>
    </g>
</svg>
