<svg xmlns="http://www.w3.org/2000/svg" xmlns:xlink="http://www.w3.org/1999/xlink" width="370" height="280" viewBox="0 0 370 280">
    <defs>
        <path id="a" d="M132.77 293C197.602 293 268 246.16 268 182.539 268 118.917 220.448 6.489 159.772 1 99.096-4.49 0 100.266 0 171.63 0 242.995 67.938 293 132.77 293z"/>
        <ellipse id="c" cx="27.49" cy="28.983" rx="27" ry="28"/>
    </defs>
    <g fill="none" fill-rule="evenodd">
        <path fill="#00BCBC" d="M191.23 269C126.398 269 56 222.16 56 158.539c0-63.622 58.058-105.48 118.734-110.969C235.41 42.081 324 76.266 324 147.63 324 218.995 256.062 269 191.23 269z"/>
        <g transform="translate(56 -24)">
            <mask id="b" fill="#fff">
                <use xlink:href="#a"/>
            </mask>
            <g mask="url(#b)">
                <path fill="#005960" d="M299.952 285.18l-64.568 71.665-84.124-75.557 60.956-72.987z"/>
                <path fill="#000" d="M151.546 281.223c2.262 2.034 6.694 1.31 12.338-1.573l-12.062-10.853c-2.279 5.91-2.537 10.391-.276 12.426M212.935 208.683c-2.262-2.034-6.695-1.31-12.338 1.573l12.062 10.854c2.279-5.91 2.537-10.392.276-12.427"/>
                <path fill="#FAB08A" d="M150.461 268.648l12.01 11.462c8.185-4.414 18.928-13.684 29.245-25.835 10.318-12.152 17.888-24.45 21.172-33.543l-13.116-11.693c-8.185 4.415-17.822 13.914-28.14 26.065-10.318 12.152-17.888 24.45-21.17 33.544z"/>
                <path fill="#F79C82" d="M79.973 107.236S50.911 82.954 56.809 76.193c5.899-6.76 31.31 14.13 31.31 14.13"/>
                <g transform="rotate(-3 882.45 -1316.093)">
                    <path fill="#005960" d="M23.702.421l64.911 3.402c8.273.433 14.628 7.491 14.195 15.764l-7.746 147.798c-.434 8.272-7.492 14.628-15.764 14.194l-64.911-3.402c-8.273-.433-14.628-7.491-14.195-15.764L7.938 14.615C8.372 6.343 15.43-.013 23.702.421z"/>
                    <path fill="#FFF" d="M24.11 6.39l63.913 3.35c6.066.318 10.727 5.494 10.409 11.56l-7.537 143.803c-.318 6.067-5.493 10.727-11.56 10.41l-63.913-3.35c-6.066-.318-10.727-5.494-10.409-11.56L12.55 16.8c.318-6.067 5.493-10.728 11.56-10.41z"/>
                    <circle cx="41.667" cy="15.321" r="2.5" fill="#D7DDDC" transform="rotate(3 41.667 15.321)"/>
                    <path fill="#D7DDDC" d="M47.737 14.138l16.977.89a1.5 1.5 0 0 1-.157 2.995l-16.977-.89a1.5 1.5 0 0 1 .157-2.995z"/>
                </g>
                <path fill="#FAB08A" d="M93.261 222.327l56.722.134c-1.273-37.932 23.658-76.7 23.658-76.7l-.043-48.592c1.638-16.528 10.536-17.36 10.536-17.36l13.702 53.574a31.045 31.045 0 0 1 .935 9.088l-2.775 61.309.051.226 3.725 5.033c-8.294 4.324-3.938 25.808-14.404 37.685-10.467 11.875-31.566 13.045-34.907 21.924l-57.2-46.32z"/>
                <path fill="#F79C82" d="M149.983 222.461s1.317 16.776 7.056 28.19L93.26 222.327l56.722.134zM83.279 165.724L63.18 143.238c-5.278-5.907-5.886-14.853-1.117-21.175.903-1.196 1.95-2.248 3.119-3.09l31.657-22.79s7.569 12.43-8.327 27.974L74.837 137.71l8.442 28.013z"/>
                <path fill="#FAB08A" d="M73.622 176.062l-9.288-10.578c-5.267-5.999-5.882-15.08-1.134-21.49.898-1.213 1.941-2.28 3.105-3.132l31.533-23.099s8.071 13.332-8.554 28.12l-13.337 14.004 3.591 12.1-5.916 4.075z"/>
                <path fill="#FAB08A" d="M78.741 182.35l12.218-14.994c15.495-16.268 6.339-27.932 6.339-27.932l-29.882 25.998c-1.103.96-2.061 2.116-2.857 3.401-4.207 6.792-2.676 15.634 3.297 20.961l10.78 9.614.105-17.049z"/>
                <path fill="#009792" d="M198.482 291.173c.255 4.875-3.491 9.033-8.368 9.289-4.877.255-9.038-3.489-9.294-8.363-.255-4.874 3.491-9.032 8.369-9.288 4.877-.255 9.037 3.488 9.293 8.362"/>
            </g>
        </g>
        <g fill="#FDC010">
            <path d="M58.996 164.226l-5.878 2.4.466-6.331-4.099-4.849 6.166-1.513 3.345-5.397 3.344 5.397 6.166 1.513-4.098 4.849.466 6.331z"/>
            <path fill-rule="nonzero" d="M81.408 186.307l.733 1.22-2.77 1.665 1.665 2.77-1.207.725-1.665-2.77-2.77 1.664-.734-1.22 2.77-1.665-1.664-2.77 1.207-.725 1.665 2.77zM90.408 123.307l.733 1.22-2.77 1.665 1.665 2.77-1.207.725-1.665-2.77-2.77 1.664-.734-1.22 2.77-1.665-1.664-2.77 1.207-.725 1.665 2.77z"/>
        </g>
        <path fill="#FDC010" d="M116.5 209.199l-3.82 1.56.302-4.116-2.664-3.152 4.008-.983L116.5 199l2.174 3.508 4.008.983-2.664 3.152.303 4.116z"/>
        <g fill="#FDC010">
            <path d="M308.396 133.873l-4.996 2.04.396-5.382-3.484-4.122 5.241-1.286 2.843-4.587 2.843 4.587 5.241 1.286-3.484 4.122.397 5.382z"/>
            <path fill-rule="nonzero" d="M281.844 93.307l.733 1.22-2.77 1.665 1.664 2.77-1.206.725-1.665-2.77-2.77 1.664-.734-1.22 2.77-1.665-1.664-2.77 1.207-.725 1.664 2.77zM276.943 132.1l.734 1.221-2.77 1.665 1.664 2.77-1.207.725-1.665-2.77-2.77 1.664-.734-1.22 2.77-1.665-1.664-2.77 1.207-.725 1.665 2.77zM297.844 161.307l.733 1.22-2.77 1.665 1.664 2.77-1.206.725-1.665-2.77-2.77 1.664-.734-1.22 2.77-1.665-1.664-2.77 1.207-.725 1.664 2.77z"/>
        </g>
        <g transform="rotate(-5 1013.196 -1755.18)">
            <mask id="d" fill="#fff">
                <use xlink:href="#c"/>
            </mask>
            <use fill="#FFF" stroke="#00C9C3" stroke-width="2" xlink:href="#c"/>
            <g mask="url(#d)">
                <path fill="#4E2908" d="M27.352 26.902c-5.55-.513-8.848-4.176-8.72-8.197.15-4.661 6.453-7.258 10.087-7.062 3.634.196 9.7 3.659 8.937 8.82-.589 3.979-4.754 6.951-10.304 6.439z"/>
                <path fill="#004472" d="M45.303 57.273c.101-1.994-.207-4.963-.924-8.905-1.052-2.295-4.494-6.143-8.4-6.6l-15.92-1.26c-2.502-.118-4.36 1.095-6.02 1.968-1.66.872-4.644 4.751-5.041 5.798-.398 1.047 2.334 2.115 1.375 5.344l-5.486.28c1.244 2.85 3.23 5.257 5.71 6.964l.221 27.595h28.934l3.377-25.687c2.025-1.148 2.75-2.98 2.174-5.497z"/>
                <path fill="#E89561" d="M21.495 30.034l-1.3-.115c-1.637-.148-2.12-2.943-2.12-2.943-.262-1.326.672-2.627 1.768-2.462l1.773.165-.12 5.355zM32.967 31.14l1.149.118c1.445.146 2.294-2.266 2.294-2.266.433-1.138-.178-2.456-1.156-2.495l-1.567-.153-.72 4.796z"/>
                <path fill="#F2A57E" d="M22.748 40.471l.063-7.362h8.961L32 41.324c0 2.605-2.234 1.625-4.709 1.625-2.474 0-4.543.128-4.543-2.478z"/>
                <path fill="#E89561" d="M22.81 37.893c1.419.478 3.036.75 4.756.75 1.503 0 2.924-.211 4.206-.582v-6.182h-8.961v6.014z"/>
                <path fill="#F9B28D" d="M23.728 18.363c-1.844-.169-3.449 1.273-3.528 3.165l-.377 9.574c.084 2.12 3.28 5.401 3.28 5.401.774.623 1.718 1.472 2.701 1.523 2.062.106 7.696-2.853 8.5-5.27l1.015-8.222c.413-2.664-2.675-5.34-4.5-5.516-2.707-.259-4.372-.406-7.09-.655"/>
                <path fill="#F2A57E" d="M19.658 40.305c-1.388-.064 1.754 5.535 4.657 5.918.337.045 1.87.458 3.277.531 1.308.069 2.5-.2 2.765-.205 2.042-.034 7.372-2.796 7.461-4.557 0 0-1.355-.427-3.397-.891l-14.763-.796z"/>
                <path fill="#4E2908" d="M31.183 23.57c-4.442.577-7.537 1.039-9.339 1.981-.977.511-1.678-1.867-1.726-4.059-.049-2.192.642-4.098 2.794-5.158 4.409-2.172 9.327-2.24 10.986-.151 1.66 2.088 1.727 6.81-2.715 7.387z"/>
            </g>
        </g>
        <g fill-rule="nonzero">
            <path fill="#FF872F" d="M222 66c-16.535 0-30-13.394-30-30s13.465-30 30-30 30 13.394 30 30-13.465 30-30 30z"/>
            <path fill="#FFF" d="M216.309 40.613l18.638-18.698 5.217 5.235-23.855 23.932-12.603-12.643 5.218-5.234z"/>
        </g>
    </g>
</svg>
