<?xml version="1.0" encoding="UTF-8"?>
<svg width="450px" height="345px" viewBox="0 0 450 345" version="1.1" xmlns="http://www.w3.org/2000/svg" xmlns:xlink="http://www.w3.org/1999/xlink">
    <title>6E9FF585-BA8D-49BF-967E-73FCB0A78BAC</title>
    <defs>
        <path d="M17.5685588,217.519937 C-8.08271779,142.837503 -5.64455353,84.6742751 24.8830516,43.0302541 C70.6744592,-19.4357773 216.284493,-6.3471431 258.390496,34.4667039 C300.4965,75.2805509 283.171061,210.47259 270.200221,214.85105 C261.552994,217.770023 177.34244,218.659652 17.5685588,217.519937 Z" id="path-1"></path>
        <path d="M266.301167,98 L30.6988328,98 C28.6644748,98 27,97.5540311 27,97.008958 L27,21.991042 C27,21.4459689 28.6644748,21 30.6988328,21 L266.301167,21 C268.335525,21 270,21.4459689 270,21.991042 L270,97.008958 C270,97.5540311 268.335525,98 266.301167,98 Z" id="path-3"></path>
        <filter x="-2.9%" y="-6.5%" width="105.8%" height="118.2%" filterUnits="objectBoundingBox" id="filter-4">
            <feOffset dx="0" dy="2" in="SourceAlpha" result="shadowOffsetOuter1"></feOffset>
            <feGaussianBlur stdDeviation="2" in="shadowOffsetOuter1" result="shadowBlurOuter1"></feGaussianBlur>
            <feColorMatrix values="0 0 0 0 0   0 0 0 0 0   0 0 0 0 0  0 0 0 0.171082823 0" type="matrix" in="shadowBlurOuter1"></feColorMatrix>
        </filter>
        <path d="M27,171 L27,107.834463 C27,107.375509 28.6644748,107 30.6988328,107 L266.301167,107 C268.335525,107 270,107.375509 270,107.834463 L270,171 L27,171 Z" id="path-5"></path>
        <filter x="-2.9%" y="-7.8%" width="105.8%" height="121.9%" filterUnits="objectBoundingBox" id="filter-6">
            <feOffset dx="0" dy="2" in="SourceAlpha" result="shadowOffsetOuter1"></feOffset>
            <feGaussianBlur stdDeviation="2" in="shadowOffsetOuter1" result="shadowBlurOuter1"></feGaussianBlur>
            <feColorMatrix values="0 0 0 0 0   0 0 0 0 0   0 0 0 0 0  0 0 0 0.171082823 0" type="matrix" in="shadowBlurOuter1"></feColorMatrix>
        </filter>
        <polygon id="path-7" points="1.5417999e-14 0 26.2555033 0 26.2555033 26.276397 1.5417999e-14 26.276397"></polygon>
        <polygon id="path-9" points="0 -1.5417999e-14 23.1935251 -1.5417999e-14 23.1935251 26.1790502 0 26.1790502"></polygon>
        <path d="M0.255569903,10.6802008 C-1.12122559,17.7638082 3.20228115,24.56316 9.91266739,25.8672642 L9.91266739,25.8672642 C16.6230536,27.1713683 23.1793777,22.4865748 24.5561732,15.4040524 L24.5561732,15.4040524 C25.9329687,8.32152991 21.608377,1.52109321 14.8990757,0.218073991 L14.8990757,0.218073991 C14.1417839,0.0705214399 13.387747,0 12.6423896,0 L12.6423896,0 C6.77609073,0 1.47721823,4.39619807 0.255569903,10.6802008 L0.255569903,10.6802008 Z" id="path-11"></path>
        <path d="M12.5518983,0 L12.9035363,0.00518329715 C15.9466676,0.094985052 18.8659802,1.35120731 20.9231065,3.72173 L21.156599,4.00019401 L21.3548925,4.25283492 C24.9742363,9.009084 23.9981622,15.9912405 19.1307523,20.1467112 L18.8662796,20.3665928 L18.5962182,20.5795621 C13.5195815,24.4765007 6.48579377,23.9802165 2.58846285,19.4500746 L2.38270671,19.2035315 L2.18430379,18.9509457 C-1.5016949,14.1107931 -0.423635071,6.96347872 4.6708562,2.83713272 C7.02193251,0.933053841 9.82434604,-0.00108400126 12.5518983,0 Z" id="path-13"></path>
        <path d="M12.5518983,0 L12.9035363,0.00518329715 C15.9466676,0.094985052 18.8659802,1.35120731 20.9231065,3.72173 L21.156599,4.00019401 L21.3548925,4.25283492 C24.9742363,9.009084 23.9981622,15.9912405 19.1307523,20.1467112 L18.8662796,20.3665928 L18.5962182,20.5795621 C13.5195815,24.4765007 6.48579377,23.9802165 2.58846285,19.4500746 L2.38270671,19.2035315 L2.18430379,18.9509457 C-1.5016949,14.1107931 -0.423635071,6.96347872 4.6708562,2.83713272 C7.02193251,0.933053841 9.82434604,-0.00108400126 12.5518983,0 Z" id="path-15"></path>
        <path d="M12.5518983,0 L12.9035363,0.00518329715 C15.9466676,0.094985052 18.8659802,1.35120731 20.9231065,3.72173 L21.156599,4.00019401 L21.3548925,4.25283492 C24.9742363,9.009084 23.9981622,15.9912405 19.1307523,20.1467112 L18.8662796,20.3665928 L18.5962182,20.5795621 C13.5195815,24.4765007 6.48579377,23.9802165 2.58846285,19.4500746 L2.38270671,19.2035315 L2.18430379,18.9509457 C-1.5016949,14.1107931 -0.423635071,6.96347872 4.6708562,2.83713272 C7.02193251,0.933053841 9.82434604,-0.00108400126 12.5518983,0 Z" id="path-17"></path>
        <path d="M12.5518983,0 L12.9035363,0.00518329715 C15.9466676,0.094985052 18.8659802,1.35120731 20.9231065,3.72173 L21.156599,4.00019401 L21.3548925,4.25283492 C24.9742363,9.009084 23.9981622,15.9912405 19.1307523,20.1467112 L18.8662796,20.3665928 L18.5962182,20.5795621 C13.5195815,24.4765007 6.48579377,23.9802165 2.58846285,19.4500746 L2.38270671,19.2035315 L2.18430379,18.9509457 C-1.5016949,14.1107931 -0.423635071,6.96347872 4.6708562,2.83713272" id="path-19"></path>
        <path d="M0.771092999,0 L0.88746342,0.00855901237 C1.0803928,0.0370388246 1.26528555,0.136341451 1.39819134,0.302699719 L1.39819134,0.302699719 L1.46646382,0.400083131 C1.66723983,0.735682531 1.60097747,1.17154359 1.29620649,1.41910836 L1.29620649,1.41910836 L1.20075739,1.48518242 C0.871141089,1.67823094 0.436535342,1.60049148 0.183052684,1.28782999 L0.183052684,1.28782999 L0.114780203,1.19017677 C-0.0859957996,0.853762231 -0.0197334422,0.417901176 0.285037536,0.170336401 C0.428250306,0.0553322067 0.598586707,0 0.771092999,0 L0.771092999,0 Z" id="path-21"></path>
        <path d="M0.771636418,0 L0.888011862,0.00855901237 C1.08096636,0.0370388246 1.26600979,0.136341451 1.39981971,0.302699719 L1.39981971,0.302699719 L1.46811664,0.400353756 C1.66904752,0.736776442 1.60359215,1.17272716 1.29783485,1.42127825 L1.29783485,1.42127825 L1.20211513,1.48710696 C0.871675541,1.67949522 0.43698013,1.60256274 0.182511158,1.28891493 L0.182511158,1.28891493 L0.114484033,1.19101717 C-0.0856317103,0.853950527 -0.0201763369,0.418986121 0.285580955,0.171421346 C0.42770878,0.0553322067 0.599130126,0 0.771636418,0 L0.771636418,0 Z" id="path-23"></path>
        <path d="M12.5518983,0 L12.9035363,0.00518329715 C15.9466676,0.094985052 18.8659802,1.35120731 20.9231065,3.72173 L21.156599,4.00019401 L21.3548925,4.25283492 C24.9742363,9.009084 23.9981622,15.9912405 19.1307523,20.1467112 L18.8662796,20.3665928 L18.5962182,20.5795621 C13.5195815,24.4765007 6.48579377,23.9802165 2.58846285,19.4500746 L2.38270671,19.2035315 L2.18430379,18.9509457 C-1.5016949,14.1107931 -0.423635071,6.96347872 4.6708562,2.83713272" id="path-25"></path>
        <path d="M12.5518983,0 L12.9035363,0.00518329715 C15.9466676,0.094985052 18.8659802,1.35120731 20.9231065,3.72173 L21.156599,4.00019401 L21.3548925,4.25283492 C24.9742363,9.009084 23.9981622,15.9912405 19.1307523,20.1467112 L18.8662796,20.3665928 L18.5962182,20.5795621 C13.5195815,24.4765007 6.48579377,23.9802165 2.58846285,19.4500746 L2.38270671,19.2035315 L2.18430379,18.9509457 C-1.5016949,14.1107931 -0.423635071,6.96347872 4.6708562,2.83713272" id="path-27"></path>
        <linearGradient x1="91.07445%" y1="54.6324098%" x2="19.0870538%" y2="54.6324098%" id="linearGradient-29">
            <stop stop-color="#E0E0E0" stop-opacity="0" offset="0%"></stop>
            <stop stop-color="#3C3C3C" stop-opacity="0.626281098" offset="100%"></stop>
        </linearGradient>
        <filter x="-9.2%" y="-4.1%" width="118.5%" height="108.2%" filterUnits="objectBoundingBox" id="filter-30">
            <feGaussianBlur stdDeviation="1" in="SourceGraphic"></feGaussianBlur>
        </filter>
        <path d="M24.0130928,2.34131181 L24.185147,2.34573195 C24.4592464,2.35954491 24.6693038,2.40098379 24.8040178,2.40098379 L24.8040178,2.40098379 L73.4692361,2.40098379 L73.6595244,2.40614708 C75.7372738,2.51923813 77.2923278,4.47351637 76.9616748,6.63118524 L76.9616748,6.63118524 L76.4285985,7.59433485 C69.9135385,19.4623103 65.6017272,30.9281054 63.4931647,41.9917202 L63.4931647,41.9917202 L63.37064,42.6402229 C60.5334133,57.7811644 59.2130558,73.5196326 59.2130558,79.9333398 L59.2130558,79.9333398 L59.2167556,80.3120298 C59.2981517,84.4342285 60.7226294,87.1245163 63.4931647,88.3828932 L63.4931647,88.3828932 L10.241883,94.4607564 L10.1754652,94.4562451 C7.94697546,94.1585283 2.12871679,79.1281368 5.78601291,50.2177749 L5.78601291,50.2177749 L5.85220342,49.7058801 C8.09059324,32.7494846 15.6602188,9.55014359 21.1499223,3.79513841 C22.3325126,2.55504602 23.3317472,2.34131181 24.0130928,2.34131181 L24.0130928,2.34131181 Z" id="path-31"></path>
        <linearGradient x1="59.31213%" y1="196.021815%" x2="59.31213%" y2="-11.4599943%" id="linearGradient-33">
            <stop stop-color="#E0E0E0" stop-opacity="0" offset="0%"></stop>
            <stop stop-color="#3C3C3C" stop-opacity="0.626281098" offset="100%"></stop>
        </linearGradient>
        <filter x="-5.2%" y="-18.8%" width="110.3%" height="137.6%" filterUnits="objectBoundingBox" id="filter-34">
            <feGaussianBlur stdDeviation="1" in="SourceGraphic"></feGaussianBlur>
        </filter>
        <path d="M9.12460398,7.91901523 C9.12460398,10.2624969 8.55717763,12.420453 7.42123997,14.3939684 L7.42123997,14.3939684 L49.9879811,14.3939684 C54.8919335,13.7180475 57.6520342,11.5600914 58.2682831,7.91901523 L58.2682831,7.91901523 C58.883447,4.28010893 57.576088,1.67515543 54.347291,0.104154742 L54.347291,0.104154742 L4.28357837,0 C7.51129042,2.93911663 9.12460398,5.57770343 9.12460398,7.91901523 L9.12460398,7.91901523 Z" id="path-35"></path>
        <path d="M16.1101557,0 L16.5049717,0.00509340334 C20.448336,0.106921248 24.2369546,1.7350195 26.8901454,4.82055268 L27.1516433,5.13396156 L27.3760019,5.418565 C32.0692149,11.5359162 30.8086769,20.5509547 24.5124329,25.8919433 L24.2136117,26.1395862 L23.9092911,26.3803187 C17.3767677,31.427044 8.29623385,30.78638 3.28889037,24.9252632 L3.05717969,24.6467015 L2.83286974,24.3620981 C-1.93263859,18.1491633 -0.557940006,8.94728103 5.99521137,3.64107693 C9.01244406,1.19669532 12.6101224,-0.00108420885 16.1101557,0 Z" id="path-37"></path>
        <path d="M16.1101557,0 L16.5049717,0.00509340334 C20.448336,0.106921248 24.2369546,1.7350195 26.8901454,4.82055268 L27.1516433,5.13396156 L27.3760019,5.418565 C32.0692149,11.5359162 30.8086769,20.5509547 24.5124329,25.8919433 L24.2136117,26.1395862 L23.9092911,26.3803187 C17.3767677,31.427044 8.29623385,30.78638 3.28889037,24.9252632 L3.05717969,24.6467015 L2.83286974,24.3620981 C-1.93263859,18.1491633 -0.557940006,8.94728103 5.99521137,3.64107693 C9.01244406,1.19669532 12.6101224,-0.00108420885 16.1101557,0 Z" id="path-39"></path>
        <path d="M16.1101557,0 L16.5049717,0.00509340334 C20.448336,0.106921248 24.2369546,1.7350195 26.8901454,4.82055268 L27.1516433,5.13396156 L27.3760019,5.418565 C32.0692149,11.5359162 30.8086769,20.5509547 24.5124329,25.8919433 L24.2136117,26.1395862 L23.9092911,26.3803187 C17.3767677,31.427044 8.29623385,30.78638 3.28889037,24.9252632 L3.05717969,24.6467015 L2.83286974,24.3620981 C-1.93263859,18.1491633 -0.557940006,8.94728103 5.99521137,3.64107693 C9.01244406,1.19669532 12.6101224,-0.00108420885 16.1101557,0 Z" id="path-41"></path>
        <path d="M16.1101557,0 L16.5049717,0.00509340334 C20.448336,0.106921248 24.2369546,1.7350195 26.8901454,4.82055268 L27.1516433,5.13396156 L27.3760019,5.418565 C32.0692149,11.5359162 30.8086769,20.5509547 24.5124329,25.8919433 L24.2136117,26.1395862 L23.9092911,26.3803187 C17.3767677,31.427044 8.29623385,30.78638 3.28889037,24.9252632 L3.05717969,24.6467015 L2.83286974,24.3620981 C-1.93263859,18.1491633 -0.557940006,8.94728103 5.99521137,3.64107693" id="path-43"></path>
        <path d="M0.988011204,0 L1.11647758,0.00807857177 C1.37221467,0.0403422491 1.61758942,0.168941471 1.79521046,0.388410392 L1.79521046,0.388410392 L1.87045785,0.493863414 C2.142027,0.92798768 2.06152278,1.49914394 1.66393208,1.82162304 L1.66393208,1.82162304 L1.56102278,1.89471981 C1.13623783,2.15712149 0.564465278,2.06097865 0.23397427,1.65237158 L0.23397427,1.65237158 L0.158745145,1.54691856 C-0.11268178,1.1127943 -0.03125311,0.541638042 0.366337588,0.219158936 C0.548608387,0.0716063852 0.767767323,0 0.988011204,0 L0.988011204,0 Z" id="path-45"></path>
        <path d="M0.988173087,0 L1.11710127,0.00813867077 C1.37374934,0.0406300918 1.6199212,0.170026417 1.79754223,0.389495337 L1.79754223,0.389495337 L1.87278913,0.494966631 C2.14435235,0.92923312 2.0637711,1.50131383 1.66517891,1.82379293 L1.66517891,1.82379293 L1.56205627,1.89710303 C1.13656021,2.16021583 0.565712106,2.06314854 0.235221098,1.65454148 L0.235221098,1.65454148 L0.159742589,1.54907018 C-0.112673973,1.11480369 -0.0320927154,0.542722987 0.366499471,0.220243882 C0.548770269,0.0726913304 0.769014151,0 0.988173087,0 L0.988173087,0 Z" id="path-47"></path>
        <path d="M16.1101557,0 L16.5049717,0.00509340334 C20.448336,0.106921248 24.2369546,1.7350195 26.8901454,4.82055268 L27.1516433,5.13396156 L27.3760019,5.418565 C32.0692149,11.5359162 30.8086769,20.5509547 24.5124329,25.8919433 L24.2136117,26.1395862 L23.9092911,26.3803187 C17.3767677,31.427044 8.29623385,30.78638 3.28889037,24.9252632 L3.05717969,24.6467015 L2.83286974,24.3620981 C-1.93263859,18.1491633 -0.557940006,8.94728103 5.99521137,3.64107693" id="path-49"></path>
        <path d="M16.1101557,0 L16.5049717,0.00509340334 C20.448336,0.106921248 24.2369546,1.7350195 26.8901454,4.82055268 L27.1516433,5.13396156 L27.3760019,5.418565 C32.0692149,11.5359162 30.8086769,20.5509547 24.5124329,25.8919433 L24.2136117,26.1395862 L23.9092911,26.3803187 C17.3767677,31.427044 8.29623385,30.78638 3.28889037,24.9252632 L3.05717969,24.6467015 L2.83286974,24.3620981 C-1.93263859,18.1491633 -0.557940006,8.94728103 5.99521137,3.64107693" id="path-51"></path>
        <polygon id="path-53" points="0 1.5417999e-14 20.1952336 1.5417999e-14 20.1952336 11.905533 0 11.905533"></polygon>
    </defs>
    <g id="Page-1" stroke="none" stroke-width="1" fill="none" fill-rule="evenodd">
        <g id="(web)-CKA---Choose-Method-pt2" transform="translate(-100.000000, -233.000000)">
            <g id="Image/CKA" transform="translate(100.000000, 233.000000)">
                <g id="Group-3" transform="translate(82.000000, 61.000000)">
                    <path d="M17.5685588,217.519937 C-8.08271779,142.837503 -5.64455353,84.6742751 24.8830516,43.0302541 C70.6744592,-19.4357773 216.284493,-6.3471431 258.390496,34.4667039 C300.4965,75.2805509 283.171061,210.47259 270.200221,214.85105 C261.552994,217.770023 177.34244,218.659652 17.5685588,217.519937 Z" id="Path-3" fill="#039393"></path>
                    <g id="Group-122">
                        <mask id="mask-2" fill="white">
                            <use xlink:href="#path-1"></use>
                        </mask>
                        <use id="Mask" fill="#039393" xlink:href="#path-1"></use>
                        <g id="Computer" mask="url(#mask-2)">
                            <g transform="translate(-1.023520, -7.662882)">
                                <g id="Group-61" stroke-width="1" fill="none" fill-rule="evenodd">
                                    <g id="Group-2">
                                        <g id="Group" transform="translate(111.715361, 178.837121)">
                                            <polygon id="Fill-1" fill="#005960" points="0 43.6267265 73.5170833 43.6267265 73.5170833 0 0 0"></polygon>
                                            <polygon id="Fill-1-Copy" fill="#00484E" points="0 39.9345814 73.5170833 39.9345814 73.5170833 24.4760338 0 24.4760338"></polygon>
                                        </g>
                                        <rect id="Rectangle" fill="#005960" x="0" y="0" width="298" height="185.357224" rx="9"></rect>
                                    </g>
                                    <rect id="Rectangle" fill="#005960" x="83.6849315" y="219.820628" width="131.650685" height="8.1793722" rx="1"></rect>
                                </g>
                                <g id="Fill-8" fill="none">
                                    <use fill="black" fill-opacity="1" filter="url(#filter-4)" xlink:href="#path-3"></use>
                                    <use fill="#056E77" fill-rule="evenodd" xlink:href="#path-3"></use>
                                </g>
                                <g id="Fill-8-Copy" fill="none">
                                    <use fill="black" fill-opacity="1" filter="url(#filter-6)" xlink:href="#path-5"></use>
                                    <use fill="#056E77" fill-rule="evenodd" xlink:href="#path-5"></use>
                                </g>
                                <g id="Group-6" stroke-width="1" fill="none" fill-rule="evenodd" transform="translate(70.000000, 128.000000)" fill-opacity="0.248358243">
                                    <path d="M130.65,0 L3.35,0 C1.50013,0 0,0.709016667 0,1.58333333 L0,4.75 C0,5.62431667 1.50013,6.33333333 3.35,6.33333333 L130.65,6.33333333 C132.49987,6.33333333 134,5.62431667 134,4.75 L134,1.58333333 C134,0.709016667 132.49987,0 130.65,0 Z" id="Path" fill="#007F7E"></path>
                                    <path d="M2.02932692,19 L79.14375,19 C80.2646149,19 81.1730769,18.2909833 81.1730769,17.4166667 L81.1730769,14.25 C81.1730769,13.3756833 80.2646149,12.6666667 79.14375,12.6666667 L2.02932692,12.6666667 C0.908462019,12.6666667 0,13.3756833 0,14.25 L0,17.4166667 C0,18.2909833 0.908462019,19 2.02932692,19 Z" id="Path" fill="#007F7E"></path>
                                </g>
                                <path d="M199.65,46 L72.35,46 C70.50013,46 69,46.6717 69,47.5 L69,50.5 C69,51.3283 70.50013,52 72.35,52 L199.65,52 C201.49987,52 203,51.3283 203,50.5 L203,47.5 C203,46.6717 201.49987,46 199.65,46 Z" id="Path-Copy-2" fill="#039393" fill-rule="evenodd"></path>
                                <path d="M71.05,65 L148.95,65 C150.082283,65 151,64.3283 151,63.5 L151,60.5 C151,59.6717 150.082283,59 148.95,59 L71.05,59 C69.9177167,59 69,59.6717 69,60.5 L69,63.5 C69,64.3283 69.9177167,65 71.05,65 Z" id="Path-Copy" fill="#039393" fill-rule="evenodd"></path>
                                <g id="Group-4" stroke-width="1" fill="none" fill-rule="evenodd" transform="translate(218.000000, 44.000000)">
                                    <path d="M15,30 C6.73273405,30 0,23.3029037 0,15 C0,6.69709628 6.73273405,0 15,0 C23.267266,0 30,6.69709628 30,15 C30,23.3029037 23.267266,30 15,30 Z" id="Oval-2" fill="#039393" fill-rule="nonzero"></path>
                                    <polygon id="Shape" fill="#005960" fill-rule="nonzero" points="13.1850656 16.6928061 20.8532858 9 23 11.153597 13.1850656 21 8 15.7983101 10.1467142 13.6447131"></polygon>
                                </g>
                                <g id="Group-4-Copy" stroke-width="1" fill="none" fill-rule="evenodd" transform="translate(218.000000, 127.000000)">
                                    <path d="M15,30 C6.73273405,30 0,23.3029037 0,15 C0,6.69709628 6.73273405,0 15,0 C23.267266,0 30,6.69709628 30,15 C30,23.3029037 23.267266,30 15,30 Z" id="Oval-2" fill="#039393" fill-rule="nonzero"></path>
                                    <polygon id="Shape" fill="#005960" fill-rule="nonzero" points="13.1850656 16.6928061 20.8532858 9 23 11.153597 13.1850656 21 8 15.7983101 10.1467142 13.6447131"></polygon>
                                </g>
                            </g>
                        </g>
                        <g id="Group-121" mask="url(#mask-2)">
                            <g transform="translate(53.976480, 47.337118)">
                                <g id="Group-19" stroke-width="1" fill="none">
                                    <g id="Group-3" transform="translate(98.474403, 0.000000)">
                                        <mask id="mask-8" fill="white">
                                            <use xlink:href="#path-7"></use>
                                        </mask>
                                        <g id="Clip-2"></g>
                                        <path d="M10.1485777,5.2078456 C16.1819581,1.98664321 19.946718,-1.52749439 23.6886941,0.700983113 C27.8559688,3.1833378 26.028921,7.8561969 24.5891987,14.5047413 C23.3241525,20.3504262 22.4095437,26.276397 22.4095437,26.276397 L1.5417999e-14,10.2376517 C1.5417999e-14,10.2376517 4.09566824,8.43989744 10.1485777,5.2078456" id="Fill-1" fill="#03B5B5" mask="url(#mask-8)"></path>
                                    </g>
                                    <g id="Group-6" transform="translate(0.000000, 100.990093)">
                                        <mask id="mask-10" fill="white">
                                            <use xlink:href="#path-9"></use>
                                        </mask>
                                        <g id="Clip-5"></g>
                                        <path d="M16.6838538,26.1790502 L23.1935251,19.6693788 C22.40477,12.5673273 17.5973776,4.89133981 15.034737,1.2329045 C13.2944849,-1.42738121 10.1090857,0.880297298 8.181138,1.99128121 C4.97512484,1.87627702 3.0862352,4.22735333 2.70867426,7.26411503 C1.49570549,8.93601563 -1.44883586,11.6972012 0.856672753,13.7195391 C4.42939739,17.1056532 12.5317684,24.517999 16.6838538,26.1790502" id="Fill-4" fill="#03B5B5" mask="url(#mask-10)"></path>
                                    </g>
                                    <path d="M15.4563467,141.508104 C15.4563467,141.508104 45.8348132,177.311297 58.8541559,177.311297 C76.2132796,177.311297 93.3771131,130.673841 80.9143473,107.32148 C68.4526664,83.9691191 22.6983561,82.4078829 22.6983561,82.4078829 L15.4563467,141.508104 Z" id="Fill-7" fill="#00BCBC"></path>
                                    <path d="M113.273381,115.856636 L30.9878802,110.508941 C25.9070817,110.179117 22.0544411,105.791599 22.3853494,100.709715 L17.9837266,56.9582141 C17.8155601,55.2787189 17.8242397,53.5829495 18.0151901,51.9067091 C21.4902696,21.3329526 42.5805199,-1.70477444 79.4480438,0.586629886 L79.4480438,0.586629886 C116.356796,2.63500648 132.930419,27.2534987 133.710494,56.9148163 C133.789696,59.9439834 133.442513,62.9709806 132.751403,65.9220316 L123.072607,107.25302 C122.742783,112.334904 118.355265,116.186459 113.273381,115.856636" id="Fill-9" fill="#00BCBC"></path>
                                    <path d="M57.525966,176.964765 C88.2537848,179.512217 115.067121,163.212 125.908979,128.83985 C136.193175,95.242351 133.097826,28.5290688 105.881975,20.1977744 C78.6661238,11.86648 37.637835,65.073279 27.3525542,98.6718628 C16.8090564,133.78937 30.8721165,162.175877 57.525966,176.964765" id="Fill-11" fill="#00BCBC"></path>
                                    <path d="M55.5993202,30.8437994 C66.4813209,27.5791992 75.1283344,29.7588542 88.3125888,36.8869444 C90.3446912,37.9849089 92.1565497,37.1180377 93.5724033,35.1835804 C96.4529328,31.249569 100.082075,27.5889637 102.984303,26.0863146 C118.731198,17.9340362 127.793746,34.2092995 129.317009,48.7703495 C132.297353,77.1199683 120.964015,95.8331036 88.4048091,99.3624305 C55.8466877,103.052329 40.3428204,93.2010265 38.2401966,61.2222659 C37.3299275,47.3469013 44.7498679,34.0986351 55.5993202,30.8437994" id="Fill-13" fill="#FFFFFF"></path>
                                    <path d="M118.508784,55.2850116 C118.874411,58.8067438 117.030004,61.8836485 114.389247,62.1581396 C111.747406,62.4326308 109.309534,59.8005536 108.943907,56.2788214 C108.578281,52.7570892 110.422688,49.6801845 113.064529,49.4056934 C115.705286,49.1312022 118.143158,51.7632794 118.508784,55.2850116" id="Fill-15" fill="#007F7E"></path>
                                    <path d="M31.7769608,16.5763357 C25.2879034,14.4129549 20.9871805,11.5812479 17.6726728,14.4064452 C13.9806042,17.5527864 16.5660287,21.8535093 19.1015457,28.1657206 C21.3300232,33.7152155 23.2275924,39.4046683 23.2275924,39.4046683 L42.6264131,19.8311714 C42.6264131,19.8311714 38.2866322,18.7462261 31.7769608,16.5763357" id="Fill-17" fill="#00BCBC"></path>
                                </g>
                                <g id="Group-22" stroke-width="1" fill="none" transform="translate(62.020286, 77.699438)">
                                    <mask id="mask-12" fill="white">
                                        <use xlink:href="#path-11"></use>
                                    </mask>
                                    <g id="Clip-21"></g>
                                    <polygon id="Fill-20" fill="#004576" mask="url(#mask-12)" points="-0.778057417 -7.10595728 -7.36584485 26.7844769 25.5893665 33.1910784 32.1771539 -0.70044064"></polygon>
                                </g>
                                <g id="Group-59" stroke-width="1" fill="none" transform="translate(20.738943, 83.919483)">
                                    <path d="M70.6494656,53.4764623 L99.8442568,29.0510903 C100.729572,28.6084327 101.166805,27.6200476 100.874955,26.720628 L101.822112,6.39092426 C101.456485,5.26583606 91.1950734,0.530050135 90.0873444,1.08771198 L51.8289207,20.3747833 C50.9468603,20.8196109 50.5117972,21.8058261 50.8036475,22.7019908 L58.7443616,47.143637 C59.1099882,48.2676402 69.5406516,54.0319542 70.6494656,53.4764623" id="Fill-23" fill="#004576"></path>
                                    <path d="M70.1624337,53.6114295 L108.987199,34.0249132 C109.883364,33.5724911 110.322766,32.5537275 110.021152,31.6228445 L101.763633,6.21017239 C101.384988,5.04494121 100.022296,4.50463849 98.899378,5.07531968 L60.1115011,24.7746702 C59.2164213,25.2292623 58.7813582,26.2458559 59.082973,27.1734841 L67.303603,52.4733219 C67.681164,53.6363832 69.0384304,54.1788558 70.1624337,53.6114295" id="Fill-25" fill="#E1F8F7"></path>
                                    <g id="Group-56" transform="translate(74.060149, 16.816566)">
                                        <path d="M18.8669305,20.3673821 C24.0507989,16.1686441 25.0760721,8.84200897 21.156165,4.00098336 C17.2362579,-0.840042258 9.85537547,-1.36081597 4.67150716,2.83683712 C-0.513446089,7.03557516 -1.53763439,14.3632952 2.38227273,19.2043209 C6.30217984,24.0442615 13.6830622,24.5661202 18.8669305,20.3673821 Z" id="Stroke-27" stroke="#004576" stroke-width="0.5"></path>
                                        <g id="Group-55" transform="translate(-0.000000, 0.000030)">
                                            <g id="Group-41">
                                                <g id="Group-31">
                                                    <mask id="mask-14" fill="white">
                                                        <use xlink:href="#path-13"></use>
                                                    </mask>
                                                    <g id="Clip-30"></g>
                                                    <path d="M18.8669305,20.3673523 C24.0507989,16.1686142 25.0760721,8.84197908 21.156165,4.00095347 C17.2362579,-0.840072147 9.85537547,-1.36084586 4.67150716,2.83680724 C-0.513446089,7.03554527 -1.53763439,14.3632654 2.38227273,19.204291 C6.30217984,24.0442316 13.6830622,24.5660903 18.8669305,20.3673523 Z" id="Stroke-29" stroke="#004576" stroke-width="0.5" mask="url(#mask-14)"></path>
                                                </g>
                                                <g id="Group-34">
                                                    <mask id="mask-16" fill="white">
                                                        <use xlink:href="#path-15"></use>
                                                    </mask>
                                                    <g id="Clip-33"></g>
                                                    <path d="M26.543569,17.9785198 L18.3522325,7.86249053 C18.1938305,7.66720039 18.025664,7.48384464 17.8499029,7.31133835 C17.1219046,6.60178417 16.5566482,5.75010217 16.1508787,4.81379443 C16.0749325,4.6402032 15.9913917,4.46335712 15.9024262,4.28217127 C15.6713329,3.81781471 14.9780529,3.87531681 14.7697434,4.37656151 C14.677523,4.60223011 14.5755382,4.83006861 14.4659587,5.0481426 C14.3260008,5.32588858 14.0298107,5.49297015 13.7260261,5.46801641 C11.9087428,5.32046386 9.9894747,5.86619131 8.41413423,7.1420869 C6.83770881,8.41906743 5.90465591,10.1810185 5.67139269,11.9907071 C5.63233466,12.2923219 5.40666605,12.547284 5.10613622,12.6254001 C4.87070311,12.687242 4.62767538,12.7393193 4.38790248,12.7838021 C3.85410943,12.8825321 3.65447951,13.5497734 4.06024902,13.8720022 C4.21756608,13.9956859 4.37271325,14.11286 4.52569052,14.2224395 C5.35567363,14.8148196 6.07173748,15.5449877 6.61421009,16.4042643 C6.74657341,16.6136587 6.89195607,16.8165435 7.05144302,17.0129186 L9.17468083,19.6352312 C11.8729396,22.967098 16.3277247,24.11714 20.4201381,22.9378045 L16.3667828,26.2197638 L28.2697169,16.5811104 L26.543569,17.9785198 Z" id="Stroke-32" stroke="#004576" stroke-width="0.5" mask="url(#mask-16)"></path>
                                                </g>
                                                <g id="Group-37">
                                                    <mask id="mask-18" fill="white">
                                                        <use xlink:href="#path-17"></use>
                                                    </mask>
                                                    <g id="Clip-36"></g>
                                                    <path d="M11.7626007,11.2777896 C10.6928447,10.6615407 9.26505677,10.7591858 8.19530077,11.6249721 C6.83043968,12.7316162 6.56679799,14.6704133 7.60834541,15.9560734 C9.75545201,18.6065946 11.7669405,20.5356273 16.292247,16.8706823 C20.5658463,13.409707 19.3485377,10.8373019 17.2025161,8.18678066 C16.1609687,6.90112056 14.2102371,6.75465295 12.8442911,7.86021214 C11.77562,8.72708338 11.3828699,10.1038789 11.7626007,11.2777896 Z" id="Stroke-35" stroke="#004576" stroke-width="0.5" mask="url(#mask-18)"></path>
                                                </g>
                                                <g id="Group-40">
                                                    <mask id="mask-20" fill="white">
                                                        <use xlink:href="#path-19"></use>
                                                    </mask>
                                                    <g id="Clip-39"></g>
                                                    <path d="M15.2646954,14.5334933 L15.0455365,13.1393386 C15.0205827,12.9841915 14.8947291,12.8659324 14.737412,12.8496583 L13.2835854,12.7064455 C13.0828705,12.6858315 12.8940901,12.8388088 12.8723912,13.0384387 L12.7107343,14.4922653 C12.6922903,14.6484975 12.7823407,14.79605 12.9298933,14.8524672 L14.2470168,15.3569667 C14.7710453,15.5576816 15.351491,15.0868153 15.2646954,14.5334933" id="Stroke-38" stroke="#004576" stroke-width="0.5" mask="url(#mask-20)"></path>
                                                </g>
                                            </g>
                                            <g id="Group-44" transform="translate(13.777105, 10.110606)">
                                                <mask id="mask-22" fill="white">
                                                    <use xlink:href="#path-21"></use>
                                                </mask>
                                                <g id="Clip-43"></g>
                                                <polygon id="Fill-42" fill="#004576" mask="url(#mask-22)" points="-2.11572927 0.488767826 1.09570861 -2.11184589 3.69740727 1.10176188 0.485969392 3.7023756"></polygon>
                                            </g>
                                            <g id="Group-47" transform="translate(9.839295, 13.299260)">
                                                <mask id="mask-24" fill="white">
                                                    <use xlink:href="#path-23"></use>
                                                </mask>
                                                <g id="Clip-46"></g>
                                                <polygon id="Fill-45" fill="#004576" mask="url(#mask-24)" points="-2.11659628 0.489093309 1.09592655 -2.11260535 3.69871015 1.10208736 0.486187328 3.70378602"></polygon>
                                            </g>
                                            <g id="Group-54">
                                                <g id="Group-50">
                                                    <mask id="mask-26" fill="white">
                                                        <use xlink:href="#path-25"></use>
                                                    </mask>
                                                    <g id="Clip-49"></g>
                                                    <path d="M8.56884742,19.0060715 C8.46360773,19.5724129 8.43539915,20.2873918 8.48530663,21.1520931 C8.53521412,22.0157095 8.64587853,22.7165842 8.81512998,23.253632" id="Stroke-48" stroke="#004576" stroke-width="0.5" mask="url(#mask-26)"></path>
                                                </g>
                                                <g id="Group-53">
                                                    <mask id="mask-28" fill="white">
                                                        <use xlink:href="#path-27"></use>
                                                    </mask>
                                                    <g id="Clip-52"></g>
                                                    <line x1="19.9625082" y1="9.77969724" x2="22.6043499" y2="6.23952096" id="Stroke-51" stroke="#004576" stroke-width="0.5" mask="url(#mask-28)"></line>
                                                </g>
                                            </g>
                                        </g>
                                    </g>
                                    <path d="M70.1694858,2.46277157 C68.6169292,-1.75549549 57.0579228,0.557607743 53.6240711,1.32791886 C23.2770681,8.13378028 -0.60040653,29.0873275 0.0115025797,44.2722209 C0.623411689,59.4571144 12.4048319,59.325836 19.9560507,59.7305206 C35.0595733,60.3587039 40.7794045,50.1569639 51.5702698,44.529353 C58.8318082,40.7428941 60.8476364,31.5208597 49.4730707,31.4818016 C56.735694,27.6953428 58.7515223,18.4733083 52.35794,16.7797088 C61.9835741,13.0062693 71.7220425,6.68103862 70.1694858,2.46277157" id="Fill-57" fill="#008181"></path>
                                </g>
                                <g id="Group-62" stroke-width="1" fill="none" transform="translate(100.899906, 68.351549)">
                                    <ellipse id="Oval" fill="url(#linearGradient-29)" opacity="0.6" filter="url(#filter-30)" transform="translate(16.898752, 37.075557) rotate(-1.000000) translate(-16.898752, -37.075557) " cx="16.8987525" cy="37.0755572" rx="16.2592868" ry="36.7973979"></ellipse>
                                    <mask id="mask-32" fill="white">
                                        <use xlink:href="#path-31"></use>
                                    </mask>
                                    <use id="Combined-Shape" fill="#E1F8F7" xlink:href="#path-31"></use>
                                </g>
                                <g id="Group-66" stroke-width="1" fill="none" transform="translate(120.396158, 70.588707)">
                                    <path d="M2.4109629,18.4375592 L58.1185607,18.4375592 L58.1185607,2.46716545 L2.4109629,2.46716545 C0.8036543,6.47192855 0,9.39459721 0,11.2351714 C0,13.0757457 0.8036543,15.4765416 2.4109629,18.4375592 Z" id="Fill-64-Copy" fill="url(#linearGradient-33)" opacity="0.6" filter="url(#filter-34)"></path>
                                    <mask id="mask-36" fill="white">
                                        <use xlink:href="#path-35"></use>
                                    </mask>
                                    <g id="Clip-65"></g>
                                    <polygon id="Fill-64" fill="#FFFFFF" mask="url(#mask-36)" points="3.49590813 15.1827235 59.2035059 15.1827235 59.2035059 -0.787670237 3.49590813 -0.787670237"></polygon>
                                </g>
                                <path d="M151.760837,116.099121 C151.419079,119.134798 155.716547,121.55965 158.586227,121.55965 C162.681895,121.55965 164.836597,119.377826 168.275873,117.492191 C172.609144,115.116161 174.803989,110.159046 173.760271,105.329955 C172.357437,98.8398123 169.307656,92.8932275 163.704999,91.4654396 C158.586227,90.1624204 154.490559,96.9878108 161.180331,101.367735 C151.760837,101.082394 150.395976,110.638592 157.978658,112.292048 C153.125698,112.003453 152.020139,113.792528 151.760837,116.099121" id="Fill-67" fill="#FFA32C"></path>
                                <g id="Group-98" opacity="0.563877651" stroke-width="1" fill="none" transform="translate(120.895498, 105.365058)">
                                    <path d="M24.2142995,26.1398516 C30.8682686,20.7520136 32.1832222,11.3477084 27.1523312,5.13422705 C22.1214402,-1.07816933 12.6487834,-1.74649559 5.99589922,3.64134242 C-0.658069868,9.02918043 -1.97410843,18.4334857 3.0567826,24.646967 C8.08875857,30.8593634 17.5603304,31.5276897 24.2142995,26.1398516 Z" id="Stroke-69" stroke="#004576" stroke-width="0.5"></path>
                                    <g id="Group-97" transform="translate(0.000145, 0.000482)">
                                        <g id="Group-83">
                                            <g id="Group-73">
                                                <mask id="mask-38" fill="white">
                                                    <use xlink:href="#path-37"></use>
                                                </mask>
                                                <g id="Clip-72"></g>
                                                <path d="M24.2141541,26.1393692 C30.8681232,20.7515312 32.1830769,11.3472259 27.1521858,5.13374457 C22.1212948,-1.07865181 12.648638,-1.74697807 5.99575385,3.64085994 C-0.658215247,9.02869795 -1.97425381,18.4330032 3.05663722,24.6464845 C8.08861319,30.8588809 17.560185,31.5272072 24.2141541,26.1393692 Z" id="Stroke-71" stroke="#004576" stroke-width="0.5" mask="url(#mask-38)"></path>
                                            </g>
                                            <g id="Group-76">
                                                <mask id="mask-40" fill="white">
                                                    <use xlink:href="#path-39"></use>
                                                </mask>
                                                <g id="Clip-75"></g>
                                                <path d="M34.0662163,23.0735309 L23.553097,10.0910763 C23.3502123,9.83936902 23.1343082,9.60393591 22.9086395,9.38369203 C21.9755866,8.47233803 21.2486733,7.37979819 20.7278996,6.17876382 C20.6302546,5.9552651 20.5239299,5.7274266 20.4089257,5.49633327 C20.1127357,4.89961339 19.2219957,4.97230472 18.9561841,5.61676219 C18.8368401,5.90644257 18.7055617,6.19829283 18.5656038,6.4782087 C18.3865878,6.83407074 18.0057721,7.04888989 17.6162767,7.01742648 C15.2836445,6.82756107 12.8208188,7.52952063 10.7984809,9.16670298 C8.77614299,10.8038853 7.57836345,13.0670811 7.27891857,15.3877789 C7.22901109,15.7751044 6.93933071,16.1027578 6.55309021,16.2036577 C6.25147544,16.2828587 5.93901121,16.3501253 5.63197171,16.4065425 C4.94628633,16.5334811 4.68915431,17.3895029 5.21101296,17.802867 C5.41281277,17.962354 5.61135775,18.1120764 5.80881778,18.2531193 C6.874234,19.0125809 7.79209766,19.9499736 8.4886325,21.052278 C8.6589689,21.3213444 8.84557948,21.5828162 9.04954918,21.8345235 L11.7749316,25.1989386 C15.2369918,29.4757927 20.9546532,30.9513182 26.206873,29.4378197 L21.0056456,33.649577 L36.2805895,21.2801165 L34.0662163,23.0735309 Z" id="Stroke-74" stroke="#004576" stroke-width="0.5" mask="url(#mask-40)"></path>
                                            </g>
                                            <g id="Group-79">
                                                <mask id="mask-42" fill="white">
                                                    <use xlink:href="#path-41"></use>
                                                </mask>
                                                <g id="Clip-78"></g>
                                                <path d="M15.0962744,14.4738211 C13.7238187,13.682896 11.8902613,13.8087496 10.5178056,14.9197336 C8.76561902,16.3388419 8.42820105,18.8277063 9.76485357,20.477908 C12.5195295,23.8792113 15.1016992,26.3550563 20.909411,21.6518187 C26.3938091,17.2100529 24.8325729,13.9085646 22.077897,10.5072613 C20.7412445,8.85705961 18.2371909,8.66936409 16.4850043,10.0884724 C15.1125486,11.1994564 14.6080491,12.9668321 15.0962744,14.4738211 Z" id="Stroke-77" stroke="#004576" stroke-width="0.5" mask="url(#mask-42)"></path>
                                            </g>
                                            <g id="Group-82">
                                                <mask id="mask-44" fill="white">
                                                    <use xlink:href="#path-43"></use>
                                                </mask>
                                                <g id="Clip-81"></g>
                                                <path d="M19.590877,18.6521621 L19.3087913,16.8630875 C19.2773279,16.6634575 19.115671,16.5115652 18.9149562,16.4920362 L17.0477654,16.3065105 C16.7906334,16.2815568 16.5486906,16.4768469 16.520482,16.733979 L16.3121726,18.5989998 C16.2904736,18.7997147 16.4054778,18.9895801 16.5942583,19.0622714 L18.2856879,19.7099837 C18.957269,19.9671158 19.7026264,19.3628013 19.590877,18.6521621" id="Stroke-80" stroke="#004576" stroke-width="0.5" mask="url(#mask-44)"></path>
                                            </g>
                                        </g>
                                        <g id="Group-86" transform="translate(17.681530, 12.975946)">
                                            <mask id="mask-46" fill="white">
                                                <use xlink:href="#path-45"></use>
                                            </mask>
                                            <g id="Clip-85"></g>
                                            <polygon id="Fill-84" fill="#004576" mask="url(#mask-46)" points="-2.71523235 0.627098343 1.40538963 -2.71019318 4.74485105 1.41368363 0.624229069 4.75097516"></polygon>
                                        </g>
                                        <g id="Group-89" transform="translate(12.627694, 17.067274)">
                                            <mask id="mask-48" fill="white">
                                                <use xlink:href="#path-47"></use>
                                            </mask>
                                            <g id="Clip-88"></g>
                                            <polygon id="Fill-87" fill="#004576" mask="url(#mask-48)" points="-2.71615541 0.628617266 1.40663646 -2.70975921 4.74826777 1.41520256 0.624390952 4.75466397"></polygon>
                                        </g>
                                        <g id="Group-96">
                                            <g id="Group-92">
                                                <mask id="mask-50" fill="white">
                                                    <use xlink:href="#path-49"></use>
                                                </mask>
                                                <g id="Clip-91"></g>
                                                <path d="M10.9974598,24.3923904 C10.8618417,25.1193037 10.8260385,26.0371673 10.8911352,27.1459813 C10.955147,28.2547954 11.0961899,29.154215 11.3131789,29.8442401" id="Stroke-90" stroke="#004576" stroke-width="0.5" mask="url(#mask-50)"></path>
                                            </g>
                                            <g id="Group-95">
                                                <mask id="mask-52" fill="white">
                                                    <use xlink:href="#path-51"></use>
                                                </mask>
                                                <g id="Clip-94"></g>
                                                <line x1="25.6200262" y1="12.5511896" x2="29.01048" y2="8.007439" id="Stroke-93" stroke="#004576" stroke-width="0.5" mask="url(#mask-52)"></line>
                                            </g>
                                        </g>
                                    </g>
                                </g>
                                <g id="Group-4" stroke-width="1" fill="none" transform="translate(39.012344, 54.567187)">
                                    <polygon id="Fill-99" fill="#FFA32C" points="49.1353336 131.544101 52.791599 130.629492 52.4259724 120.574219 49.1353336 120.574219"></polygon>
                                    <path d="M44.5645678,114.6323 C44.5645678,119.933342 47.2248535,122.402678 50.5068128,122.402678 C53.7887721,122.402678 56.4490578,119.933342 56.4490578,114.6323 C56.4490578,109.331257 53.7887721,105.033789 50.5068128,105.033789 C47.2248535,105.033789 44.5645678,109.331257 44.5645678,114.6323" id="Fill-101" fill="#00BCBC"></path>
                                    <path d="M62.1215855,139.724805 C60.3900129,142.336268 51.6659683,135.679044 49.0935632,133.725058 C48.5510905,133.312778 48.3872638,129.834444 51.4359599,128.793981 C54.7385332,127.666723 62.8365644,129.289801 65.9557819,130.832594 C68.4804495,132.081366 70.3226865,138.215646 67.7057986,139.283232 C65.756152,140.078497 63.0253449,136.105427 61.061594,136.174864 C60.3531248,136.200903 63.1501136,138.174418 62.1215855,139.724805" id="Fill-103" fill="#FFA32C"></path>
                                    <polygon id="Fill-105" fill="#FFA32C" points="19.8418124 136.968827 16.1855469 136.054218 16.5511735 125.998946 19.8418124 125.998946"></polygon>
                                    <path d="M24.4125781,120.057026 C24.4125781,125.358068 21.7522924,127.827404 18.4703331,127.827404 C15.1883738,127.827404 12.5280881,125.358068 12.5280881,120.057026 C12.5280881,114.755984 15.1883738,110.458516 18.4703331,110.458516 C21.7522924,110.458516 24.4125781,114.755984 24.4125781,120.057026" id="Fill-107" fill="#00BCBC"></path>
                                    <g id="Group-111" transform="translate(0.000000, 133.842888)">
                                        <mask id="mask-54" fill="white">
                                            <use xlink:href="#path-53"></use>
                                        </mask>
                                        <g id="Clip-110"></g>
                                        <path d="M6.85556043,11.3066433 C8.58713301,13.9181064 17.3111776,7.26088252 19.8835827,5.30689616 C20.4260554,4.89461697 20.5898821,1.41628257 17.541186,0.375820091 C14.2386127,-0.751438003 6.14058152,0.871640061 3.02136399,2.41443218 C0.496696437,3.66320414 -1.34554056,9.79748446 1.27134733,10.8650706 C3.22099391,11.6603354 5.95180105,7.68726599 7.91555192,7.75670249 C8.62402115,7.78274117 5.82703235,9.75625655 6.85556043,11.3066433" id="Fill-109" fill="#FFA32C" mask="url(#mask-54)"></path>
                                    </g>
                                    <path d="M54.9930613,4.67917656 C56.7181243,2.95411364 59.6604957,3.02138025 61.0937084,4.99598057 C61.1045578,5.01225474 61.1154073,5.02744398 61.1262567,5.04263321 L66.5987205,14.9698821 C67.1086447,15.8530275 67.0576523,16.9531619 66.468527,17.7853149 L60.5034982,26.2077447 C58.3683259,28.5338673 54.703381,28.5447168 52.5541045,26.2316135 L46.0693868,19.9595452 C45.2285543,19.1469212 45.0386889,17.8753654 45.6115399,16.8555169 C46.3341135,15.5709417 52.3685788,7.30365907 54.9930613,4.67917656" id="Fill-112" fill="#FFA32C"></path>
                                    <path d="M48.9920123,15.6637045 C48.9920123,15.6637045 51.889901,25.0994732 56.8980082,25.0994732 C61.5502533,25.0994732 64.8040041,15.6637045 64.8040041,15.6637045 L57.8570998,13.514428 C57.1540552,13.296354 56.405443,13.2996089 55.7045684,13.5231076 L48.9920123,15.6637045 Z" id="Fill-114" fill="#E38D1D"></path>
                                    <path d="M47.9504649,16.902929 C48.1294808,18.8992282 52.1513728,20.1696991 56.9338114,19.7411457 C61.715165,19.3115074 65.4462916,17.3445017 65.2672757,15.3471175 C65.0882597,13.3508183 61.0663677,12.0803474 56.2839292,12.5099857 C51.5025755,12.9396241 47.7714489,14.9066298 47.9504649,16.902929" id="Fill-116" fill="#FFA32C"></path>
                                    <path d="M27.7193075,0.0499959617 C31.7197198,-0.366626573 35.490312,1.85369723 37.1003095,5.47293684 C37.5873902,6.56788375 37.0946172,7.85037053 35.9996703,8.33745123 C34.9047234,8.82453193 33.6222366,8.331759 33.1351559,7.23681209 C32.283313,5.3218876 30.2862543,4.14591397 28.167704,4.36654987 C26.1503644,4.5755701 24.4938716,6.00264651 23.9634021,7.92569433 C23.6447283,9.08094467 22.4498767,9.75912391 21.2946263,9.44045006 C20.139376,9.12177622 19.4611968,7.92692459 19.7798706,6.77167426 C20.7817096,3.13982657 23.910138,0.444670642 27.7193075,0.0499959617 Z" id="Stroke-118" fill="#007F7E" fill-rule="nonzero"></path>
                                </g>
                            </g>
                        </g>
                    </g>
                    <polygon id="Fill-86" fill="#925844" points="2.66265451 222.755758 285.170314 222.755758 285.170314 212.291284 2.66265451 212.291284"></polygon>
                    <g id="Sparkles" transform="translate(91.016843, 65.336409)" fill="#FFFFFF">
                        <polygon id="Star" transform="translate(31.374615, 121.567825) rotate(-45.000000) translate(-31.374615, -121.567825) " points="31.3958127 124.817558 25.4153792 127.527062 28.1248826 121.546628 25.4243272 115.617537 31.3503779 118.321133 37.3338518 115.608589 34.6213079 121.592063 36.8750091 127.071259"></polygon>
                        <polygon id="Star" opacity="0.639578683" transform="translate(105.757384, 4.213816) rotate(-45.000000) translate(-105.757384, -4.213816) " points="105.767982 5.83868283 102.777766 7.19343455 104.132517 4.20321781 102.78224 1.23867226 105.745265 2.59047018 108.737002 1.23419825 107.38073 4.2259352 108.507581 6.96553339"></polygon>
                        <polygon id="Star" transform="translate(10.534541, 94.933948) rotate(-45.000000) translate(-10.534541, -94.933948) " points="10.5610375 98.9961138 3.08549562 102.382993 6.47237493 94.9074513 3.09668064 87.4960874 10.504244 90.8755822 17.9835864 87.4849024 14.5929066 94.9642447 17.4100329 101.81324"></polygon>
                        <polygon id="Star" opacity="0.604442778" transform="translate(137.779570, 17.958889) rotate(-45.000000) translate(-137.779570, -17.958889) " points="137.795468 20.3961882 133.310143 22.4283158 135.342271 17.9429907 133.316854 13.4961724 137.761392 15.5238692 142.248997 13.4894614 140.214589 17.9770668 141.904865 22.0864641"></polygon>
                        <polygon id="Star-Copy" opacity="0.907479422" transform="translate(82.025636, 77.325371) rotate(-45.000000) translate(-82.025636, -77.325371) " points="82.041534 79.7626703 77.5562089 81.7947979 79.5883365 77.3094728 77.5629199 72.8626544 82.0074579 74.8903513 86.4950633 72.8559434 84.4606554 77.3435489 86.1509313 81.4529461"></polygon>
                    </g>
                </g>
            </g>
        </g>
    </g>
</svg>