<svg xmlns="http://www.w3.org/2000/svg" xmlns:xlink="http://www.w3.org/1999/xlink" width="40" height="40" viewBox="0 0 40 40">
    <defs>
        <path id="prefix__a" d="M40.19 20c0 11.046-8.955 20-20 20-11.046 0-20-8.954-20-20s8.954-20 20-20c11.045 0 20 8.954 20 20z"/>
    </defs>
    <g fill="none" fill-rule="evenodd">
        <mask id="prefix__b" fill="#fff">
            <use xlink:href="#prefix__a"/>
        </mask>
        <use fill="#005150" xlink:href="#prefix__a"/>
        <g mask="url(#prefix__b)">
            <g>
                <g>
                    <path fill="#FEE175" d="M2.483 0L8.069 0 10.552 8.8 0 8.8z" transform="translate(8.19 22.8) translate(6)"/>
                    <path fill="#EFAE64" d="M8.069 0L15.517 0 18 8.8 10.552 8.8z" transform="translate(8.19 22.8) translate(6)"/>
                </g>
                <g>
                    <path fill="#FEE175" d="M2.483 0L8.069 0 10.552 8.8 0 8.8z" transform="translate(8.19 22.8) translate(0 8.4)"/>
                    <path fill="#E4953B" d="M8.069 0L15.517 0 18 8.8 10.552 8.8z" transform="translate(8.19 22.8) translate(0 8.4)"/>
                </g>
                <g>
                    <path fill="#FEE175" d="M2.483 0L8.069 0 10.552 8.8 0 8.8z" transform="translate(8.19 22.8) translate(11.2 8.4)"/>
                    <path fill="#E4953B" d="M8.069 0L15.517 0 18 8.8 10.552 8.8z" transform="translate(8.19 22.8) translate(11.2 8.4)"/>
                </g>
            </g>
        </g>
        <g mask="url(#prefix__b)">
            <g>
                <path fill="#FEE175" fill-rule="nonzero" d="M39.217.966c.124-.225.699-.304.919-.178.205.116.287.37.199.585l-.024.05-9.63 8.444L20.607 3.2l-7.626 9.577L.863 15.574c-.222.122-.5.037-.62-.19-.11-.21-.046-.47.142-.603l.045-.028 11.986-2.726 8.105-10.139 10.16 6.793L39.217.966z" transform="translate(-1.2 7.17)"/>
                <path fill="#FFF" d="M12.39 15.23c-.142 0-.27-.086-.324-.216-.69-1.664-1.197-2.172-2.86-2.86-.132-.055-.217-.183-.217-.324 0-.142.086-.27.216-.324 1.664-.689 2.172-1.197 2.86-2.86.055-.131.183-.216.324-.216.142 0 .27.085.324.216.689 1.663 1.197 2.171 2.86 2.86.131.055.216.182.216.324 0 .141-.085.269-.216.323-1.663.689-2.171 1.197-2.86 2.86-.055.131-.182.217-.324.217M19.99 6.83c-.142 0-.27-.086-.324-.216-.69-1.664-1.197-2.172-2.86-2.86-.132-.055-.217-.183-.217-.324 0-.142.086-.27.216-.324 1.664-.689 2.172-1.197 2.86-2.86.055-.131.183-.216.324-.216.142 0 .27.085.324.216.689 1.663 1.197 2.171 2.86 2.86.131.055.216.182.216.324 0 .141-.085.269-.216.323-1.663.689-2.171 1.197-2.86 2.86-.055.131-.182.217-.324.217M30.674 12.963c-.142 0-.27-.085-.323-.216-.69-1.664-1.197-2.172-2.86-2.86-.132-.055-.217-.182-.217-.324 0-.141.085-.27.216-.323 1.664-.69 2.172-1.198 2.86-2.86.055-.132.182-.217.324-.217.142 0 .27.085.323.216.69 1.663 1.197 2.171 2.861 2.86.13.055.216.183.216.324 0 .142-.085.27-.216.323-1.664.69-2.172 1.197-2.86 2.86-.055.132-.182.217-.324.217" transform="translate(-1.2 7.17)"/>
            </g>
        </g>
        <g fill-rule="nonzero">
            <path fill="#50E3C2" d="M5.185 10.37C2.327 10.37 0 8.055 0 5.185 0 2.315 2.327 0 5.185 0c2.858 0 5.185 2.315 5.185 5.185 0 2.87-2.327 5.185-5.185 5.185z" transform="translate(29.63 2.667)"/>
            <path fill="#41D1B1" d="M5.185 10.37C2.323 10.37 0 8.051 0 5.185 0 2.32 2.323 0 5.185 0c2.862 0 5.185 2.32 5.185 5.185 0 2.866-2.323 5.185-5.185 5.185zm.065-.907c2.325 0 4.213-1.884 4.213-4.213S7.575 1.037 5.25 1.037 1.037 2.921 1.037 5.25 2.925 9.463 5.25 9.463z" transform="translate(29.63 2.667)"/>
            <path fill="#FFF" d="M4.199 5.985L7.465 2.738 8.379 3.647 4.199 7.802 1.991 5.607 2.905 4.698z" transform="translate(29.63 2.667)"/>
        </g>
    </g>
</svg>
