<svg xmlns="http://www.w3.org/2000/svg" xmlns:xlink="http://www.w3.org/1999/xlink" width="350" height="270" viewBox="0 0 350 270">
    <defs>
        <path id="b" d="M256.572 76.494H92.405c-1.417 0-2.577-.35-2.577-.78V16.717c0-.429 1.16-.78 2.577-.78h164.167c1.417 0 2.577.351 2.577.78v58.999c0 .428-1.16.779-2.577.779z"/>
        <filter id="a" width="108.3%" height="123.1%" x="-4.1%" y="-8.3%" filterUnits="objectBoundingBox">
            <feOffset dy="2" in="SourceAlpha" result="shadowOffsetOuter1"/>
            <feGaussianBlur in="shadowOffsetOuter1" result="shadowBlurOuter1" stdDeviation="2"/>
            <feColorMatrix in="shadowBlurOuter1" values="0 0 0 0 0 0 0 0 0 0 0 0 0 0 0 0 0 0 0.171082823 0"/>
        </filter>
        <ellipse id="c" cx="21.861" cy="21.521" rx="21.861" ry="21.521"/>
        <path id="e" d="M0 .14h23.045v28.103H0z"/>
        <path id="g" d="M0 .021h43.954v97.677H0z"/>
        <path id="i" d="M0 .095h26.415v100.643H0z"/>
        <ellipse id="j" cx="21.861" cy="21.912" rx="21.861" ry="21.912"/>
        <path id="l" d="M0 .21h53.067v164.94H0z"/>
    </defs>
    <g fill="none" fill-rule="evenodd">
        <ellipse cx="181" cy="214.5" fill="#118C8C" rx="128" ry="9.5"/>
        <g transform="translate(82.491 35)">
            <path fill="#D5E3E3" d="M87.018 173.375h57.265v-34H87.018z"/>
            <path fill="#63ACAC" d="M87.018 170.497h57.265V158.45H87.018z"/>
            <rect width="232.121" height="144.456" fill="#FFF" rx="9"/>
            <rect width="205" height="121" x="14" y="12" fill="#005960" rx="4"/>
            <rect width="102.547" height="6.375" x="65.185" y="171.315" fill="#D4E6E6" rx="1"/>
        </g>
        <g transform="translate(34 35)">
            <use fill="#000" filter="url(#a)" xlink:href="#b"/>
            <use fill="#F6F4F4" xlink:href="#b"/>
        </g>
        <path fill="#F6F4F4" d="M123.828 167.804V118.72c0-.356 1.16-.648 2.577-.648h164.167c1.417 0 2.577.292 2.577.648v49.084H123.828z"/>
        <g fill="#007F7E" fill-opacity=".248">
            <path d="M239.554 133.008h-43.452c-.632 0-1.144.535-1.144 1.195v2.39c0 .66.512 1.196 1.144 1.196h43.452c.632 0 1.144-.535 1.144-1.195v-2.39c0-.66-.512-1.196-1.144-1.196zM195.658 148.147h26.59c.387 0 .7-.535.7-1.195v-2.39c0-.66-.313-1.195-.7-1.195h-26.59c-.387 0-.7.535-.7 1.195v2.39c0 .66.313 1.195.7 1.195z"/>
        </g>
        <path fill="#007F7E" fill-opacity=".248" d="M239.554 69.263h-43.452c-.632 0-1.144.535-1.144 1.195v2.39c0 .66.512 1.196 1.144 1.196h43.452c.632 0 1.144-.535 1.144-1.195v-2.39c0-.66-.512-1.196-1.144-1.196zM195.658 84.402h26.59c.387 0 .7-.535.7-1.195v-2.39c0-.66-.313-1.195-.7-1.195h-26.59c-.387 0-.7.535-.7 1.195v2.39c0 .66.313 1.195.7 1.195z"/>
        <g transform="translate(140.521 58.108)">
            <mask id="d" fill="#fff">
                <use xlink:href="#c"/>
            </mask>
            <use fill="#F8F8F8" xlink:href="#c"/>
            <g mask="url(#d)">
                <g transform="translate(9.359 4.287)">
                    <mask id="f" fill="#fff">
                        <use xlink:href="#e"/>
                    </mask>
                    <path fill="#33383D" d="M23.035 23.38a4.481 4.481 0 0 0-.186-.994l.005-.001-3.481-15.69c-.003-.02-.008-.038-.013-.057l-.017-.085h-.003c-.373-1.596-1.14-2.86-2.46-3.687C15.715 1.223 13.723.14 11.46.14c-2.764 0-5.124 1.617-6.062 3.894l-.002.006a5.693 5.693 0 0 0-.297.944L.23 20.465l.011.004c-.081.241-.148.49-.188.75-.384 2.493 1.404 4.814 3.993 5.183 2.408.344 4.661-1.124 5.27-3.339l.91.26.84-7.043c.423.064.862.091 1.31.084l.274 8.084.962-.195c.313 2.377 2.491 4.14 5.005 3.98 2.612-.165 4.59-2.337 4.419-4.852" mask="url(#f)"/>
                </g>
                <path fill="#FFBE96" d="M25.143 28.183V20.46s-.309-.88-.69-.88h-5.15c-.381 0-.69.88-.69.88v7.724h6.53zM28.22 17.09a3.35 3.35 0 0 1-.228.332c-.318.413-1.403 1.19-1.403 1.19s.2-.381.315-1.024c.118-.644.133-2.75.133-2.75s.755-.1 1.093.087c.494.273.6 1.314.09 2.165"/>
                <path fill="#F09F7C" d="M25.143 24.166c-.584.062-1.246.101-1.873.07-1.85-.094-3.426-.599-4.656-1.357l.025-4.776 6.586.08-.082 5.983z"/>
                <path fill="#FFC8A6" d="M27.298 13.087c-.005-1.854-1.566-3.354-3.491-3.354h-3.943c-.363 0-.711.053-1.042.152l-2.03 9.108c.193.368.449.706.767.994-.03.001 3.205 2.584 4.396 2.584 1.599 0 4.356-2.619 4.356-2.619a3.452 3.452 0 0 0 1.005-2.422l-.018-4.443z"/>
                <path fill="#262942" d="M19.13 15.395a.429.429 0 0 1-.436-.42v-.138c0-.23.195-.419.436-.419.238 0 .433.189.433.419v.139c0 .23-.195.419-.433.419M24.867 15.395a.428.428 0 0 1-.434-.42v-.138c0-.23.196-.419.434-.419.24 0 .436.189.436.419v.139c0 .23-.196.419-.436.419"/>
                <path fill="#E65F45" d="M24.123 18.537s-.366 1.043-2.251 1.043c-1.915 0-2.286-1.043-2.286-1.043h4.537z"/>
                <path fill="#FFF" d="M19.914 18.537c.033.245.251.436.512.436h2.82a.51.51 0 0 0 .51-.436h-3.842z"/>
                <path fill="#262942" d="M19.985 12.88a6.198 6.198 0 0 0-1.236-.002c-.27.032-.647.105-.74.286-.01.019.01.122.023.135.108.116.587.016.85.003a7.29 7.29 0 0 1 1.165.037c.278.04.286-.432-.062-.46M24.012 12.88c.414-.034.82-.05 1.236-.002.27.032.646.105.74.286.01.019-.01.122-.023.135-.108.116-.587.016-.85.003a7.29 7.29 0 0 0-1.165.037c-.279.04-.286-.432.062-.46"/>
                <path fill="#F09F7C" d="M21.664 16.88c.13.06.268.119.416.12.225.004.376-.106.439-.337.05-.19-.02-.528-.058-.713-.09-.46-.2-.917-.331-1.37-.085-.297.378-.487.464-.187.205.72.644 1.757.376 2.499-.246.68-.91.674-1.504.435-.298-.12-.103-.567.198-.447"/>
                <g>
                    <g transform="translate(-.009 26.657)">
                        <mask id="h" fill="#fff">
                            <use xlink:href="#g"/>
                        </mask>
                        <path fill="#006661" d="M43.954 97.698l-8.798-53.183a26.01 26.01 0 0 0-3.165-10.126l-1.734-3.115-.134-3.139h-.04l1.796-3.405 4.097-1.393 2.645-10.155-2.704-7.867C34.81 1.71 32.307.02 29.07.02c-1.699-.134-2.977-.134-3.835 0-.29.046-.735.314-1.333.807h-4.452L18.613.02h-4.818c-3.22 0-6.011 2.185-6.725 5.264L1.311 25.296l8.968.522 1.575 2.317-.133 3.139-1.735 3.115a25.964 25.964 0 0 0-3.164 10.126L0 97.698h20.054l1.454-32.941 2.393 32.941h20.053z" mask="url(#h)"/>
                    </g>
                </g>
            </g>
        </g>
        <g fill-rule="nonzero">
            <path fill="#FF872F" d="M270.89 93.167c-6.571 0-11.923-5.336-11.923-11.952s5.352-11.952 11.924-11.952c6.572 0 11.924 5.336 11.924 11.952s-5.352 11.952-11.924 11.952z"/>
            <path fill="#FFF" stroke="#FF872F" d="M269.448 82.564l6.096-6.13 1.706 1.716-7.802 7.846-4.122-4.145 1.707-1.716z"/>
        </g>
        <g transform="translate(141 121)">
            <mask id="k" fill="#fff">
                <use xlink:href="#j"/>
            </mask>
            <use fill="#F8F8F8" xlink:href="#j"/>
            <g mask="url(#k)">
                <path fill="#C26F57" d="M17.76 26.836c.03-1.028.933-1.31 1.45-.875a.892.892 0 0 1 .678-.127c.447.088 1.005-.169 1.438-.319.464-.16.918-.36 1.356-.61.89-.51 1.707-1.168 2.446-1.974.293-.32.626-.35.907-.216a3.24 3.24 0 0 1 .392-.588c.85-1.006 1.45.322.652 1.392-.633.848-.88 5.432-.927 6.666-.086 2.248-.109 3.66-.296 5.468-.089.862-2.916 1.407-3.878 1.383-2.426-.06-4.092-1.092-4.123-1.47-.282-3.472-.197-5.243-.095-8.73"/>
                <path fill="#D58962" d="M30.463 20.989c-.15-.73-.878-1.024-1.545-.868-.16.15-.32.262-.454.313-.5.19-.943-.131-1.242-.518-.435-.562-.761-1.278-1.456-1.615-.005-.002-.008-.005-.012-.008a9.293 9.293 0 0 1-1.395-.808c-.54-.375-1.109-.911-1.797-.919-.776-.008-1.523.33-2.312.291-1.812-.091-3.997-2.32-3.998-4.055l.002-.193c-1.232.868-1.819 2.183-2.038 3.606-.067.212-.212 1.616-.216 1.851-.03 1.557.019 3.113.16 4.663.135 1.483.25 3.048.76 4.456.983 2.705 3.443 5.577 5.972 5.577 2.417 0 5.858-3.802 6.721-6.546l.09-.291a5.89 5.89 0 0 0 .426-.344c1.144-1.013 2.68-2.91 2.334-4.592"/>
                <path fill="#000" d="M21.962 7.992c-1.33-.105-3.046.105-3.803 1.23-1.917-.553-3.948.493-5.03 2.341-.643 1.099-.918 2.352-1.236 3.568-.3 1.148-.944 2.286-.823 3.498.125 1.266 1.124 2.4 2.48 2.358.29-.01.22.087.442 0-.014-.603.05-1.3.061-1.904.005-.232.428-2.138.47-1.875.22-1.397.807-2.688 2.043-3.54l-.002.19c0 .058.003.118.008.177l.006.054c.005.043.01.086.017.129l.011.06.028.129.014.053c.013.05.027.098.043.148l.011.035c.087.26.211.52.365.776.753 1.246 2.221 2.356 3.504 2.42.79.038 1.539-.294 2.317-.286.69.007 1.259.533 1.801.901.441.299.911.575 1.403.797l.008.005c.696.33 1.023 1.033 1.458 1.584.194.245.447.462.736.536a.873.873 0 0 0 .362.013.887.887 0 0 0 .244-.085l.014-.007c.032-.017.065-.038.099-.06l.017-.012c.034-.023.069-.049.103-.076l.015-.012c.037-.03.074-.061.11-.095.385-.088.79-.03 1.093.172.078-.284.136-.578.207-.851.208-.796.453-1.58.725-2.355.326-.543.523-1.17.566-1.819.103-1.555-.657-3.023-1.601-4.21-1.993-2.501-5.153-3.739-8.286-3.987z"/>
                <path fill="#DAB2BD" d="M35.88 57.216c-.437-2.711 1.628-14.034 1.288-15.458-.36-1.505-4.856-3.296-5.109-3.408-.024-.059.042-.017-.024-.059-1.66-1.066-3.743-1.7-5.646-2.254.05-.926.019-1.854-.1-2.785-.027-.2-.19-.38-.414-.313-2.54.766-5.188.747-7.717-.05l-.017-.009c-.428-.24-.589-.088-.582.218.015.674.017 1.347 0 2.021-.025.88-.068 1.372-.925 1.808-1.316.668-2.84 1.152-4.2 1.423-.631.126-5.255 1.745-5.21 2.534.324 5.651 4.785 12.115 4.52 17.776-.174 3.687 7.872 3.206 24.136-1.444z"/>
                <path fill="#3D2459" d="M16.449 21.726c-.042.336.058.629.222.653.163.024.33-.23.37-.566.042-.336-.057-.628-.22-.652-.165-.025-.331.228-.372.565M18.205 19.611c-.278-.254-1.2-.32-1.627-.268a1.28 1.28 0 0 0-.097.016c-.309.037-.902.194-.54.407.146.086.424.075.608.089.388.029.796.084 1.187.083.294-.002.705-.11.469-.327M23.164 22.416c-.034.336-.195.593-.36.574-.167-.02-.273-.308-.24-.645.034-.337.196-.594.361-.574.166.02.273.308.239.645M22.067 19.565c.369-.383 1.296-.238 1.696-.023a.895.895 0 0 1 .089.057c.289.155.81.611.375.895-.176.115-.444.016-.63-.012-.39-.059-.812-.073-1.194-.188-.288-.087-.65-.403-.336-.73"/>
                <path fill="#F09F7C" d="M19.41 25.155c-.212-.034-.59-.066-.729-.29-.213-.343-.154-.825-.077-1.203.116-.58.28-1.15.422-1.72.044-.177-.186-.246-.23-.07-.194.783-.612 1.805-.503 2.644.087.664.575.84 1.06.916.15.024.209-.253.058-.277"/>
                <path fill="#FFF" d="M17.687 26.776c-.042.049-.018.156-.007.187.301.858 1.071 1.596 2.211 1.519 1.161-.08 2.166-1.526 2.045-1.74-.076-.134-.34-.091-.52-.018-.408.166-1.263.383-1.63.412-.657.05-.956-.123-1.87-.384-.07-.02-.184-.028-.229.024"/>
            </g>
        </g>
        <g fill-rule="nonzero">
            <path fill="#FF872F" d="M270.89 156.912c-6.571 0-11.923-5.336-11.923-11.952s5.352-11.952 11.924-11.952c6.572 0 11.924 5.336 11.924 11.952s-5.352 11.952-11.924 11.952z"/>
            <path fill="#FFF" stroke="#FF872F" d="M269.448 146.309l6.096-6.13 1.706 1.716-7.802 7.846-4.122-4.145 1.707-1.716z"/>
        </g>
        <g transform="translate(34 69.263)">
            <path fill="#EFE6E1" d="M78.92 101.909c0 3.76.051 7.523-.017 11.284-.06 3.383-.235 6.764-.39 10.145a240.447 240.447 0 0 1-.391 6.68c-.235 3.202-.52 6.4-.768 9.6a62.488 62.488 0 0 0-.199 3.637c-.012.652-.229.85-.894.989-2.175.457-4.309 1.113-6.483 1.57-1.432.3-2.904.52-4.363.55-5.948.12-11.899.219-17.846.188-2.112-.011-4.22-.418-6.331-.64-1.072-.112-2.143-.23-3.217-.315-1.857-.145-3.719-.236-5.574-.412-.63-.06-1.287-.218-1.844-.504-.314-.162-.583-.657-.633-1.034-.096-.712-.016-1.447-.014-2.172.004-1.733.005-3.465.003-5.198 0-.296-.028-.592-.028-.888-.002-7.688-.047-15.376.016-23.063.036-4.504.23-9.007.385-13.509.096-2.755.254-5.509.389-8.263.061-1.245.105-2.492.22-3.734.021-.23.304-.488.53-.633.208-.133.5-.175.755-.18 3.218-.079 6.435-.197 9.653-.187 1.695.005 3.39.347 5.085.35 3.644.006 7.29-.126 10.936-.169 2.583-.03 5.167-.032 7.75-.001 3.613.042 7.226.12 10.838.2.585.014 1.188.063 1.742.228.22.066.47.493.471.757.028 4.907.02 9.815.02 14.724h.198"/>
            <path fill="#33383D" d="M48.653 105.484c-.023-.578-.09-1.173.009-1.733.147-.834-.048-1.152-.914-1.146-1.381.008-2.764.04-4.146.038-1.311 0-1.826.413-1.825 1.736.004 3.065.085 6.13.114 9.195.087 9.53.167 19.06.235 28.59.004.516-.027 1.076-.218 1.543-.302.74.019.875.633.9 1.019.044 2.037.104 3.138.161.444-.03.969-.092 1.494-.096 1.671-.01 2.274-.544 2.28-2.216.02-5.7.117-11.406-.015-17.104-.153-6.625-.517-13.245-.785-19.868M62.612 135.967c-3.322-.032-6.643-.055-9.966-.082l.145 4.578 10.919-.372.182-4.047c-.426-.027-.853-.073-1.28-.077M63.304 104.158l-9.871.044-.018 4.335 10.206.347-.317-4.726"/>
            <path fill="#77C0AE" d="M52.73 143.778c-.139.812.178 1 .78 1.118.557.11 1.12.184 1.678.275h5.531c.49-.124.978-.332 1.473-.353.884-.04 1.21-.565 1.283-1.314.109-1.135.16-2.275.235-3.413-3.64.123-7.28.248-10.918.372-.006 1.108.123 2.238-.062 3.315M63.62 108.884l-10.205-.347c-.073 2.04-.144 4.079-.22 6.118-.071 1.974-.17 3.947-.218 5.923-.121 5.102-.221 10.204-.331 15.307 3.323.026 6.644.05 9.966.082.427.004.854.05 1.28.077.6-9.06-.026-18.108-.271-27.16M63.284 101.095c.008-.675-.251-1.099-.959-1.095-2.486.018-4.971.047-7.457.092-.737.013-1.146.516-1.234 1.173-.13.97-.14 1.957-.201 2.937l9.87-.045c-.008-1.02-.031-2.041-.02-3.062"/>
            <path fill="#7182AB" d="M50.844 145.12c-.365-.083-.73-.239-1.094-.234-.85.01-1.318-.336-1.33-1.207-.033-2.404-.095-4.809-.077-7.212.034-4.615.136-9.229.173-13.844.06-7.384.087-14.769.13-22.154.007-1.313.025-2.626.04-3.94.01-.782.44-1.141 1.192-1.115.719.026 1.44.149 2.157.124 1.15-.04 1.493.591 1.493 1.597 0 3.922.039 7.845-.006 11.766-.031 2.701-.23 5.4-.264 8.1-.107 8.77-.178 17.54-.24 26.309-.006.825-.164 1.476-.989 1.81h-1.185z"/>
            <path fill="#EFE6E1" d="M35.088 135.151c-.016.878-.01 1.758-.052 2.635-.036.73-.127 1.457-.193 2.185v.198c2.137.028 4.275.058 6.411.08.425.003.849-.026 1.271-.04l.216-4.599-7.653-.459M42.506 96.147l-6.781-.328-.284 3.37 7.097.406-.032-3.448"/>
            <path fill="#FC594C" d="M34.843 140.17v1.386c.084.526.184 1.051.25 1.58.096.773.469 1.156 1.291 1.145a88.06 88.06 0 0 1 4.611.043c.877.034 1.294-.392 1.37-1.181.094-.974.111-1.956.161-2.933-.424.013-.847.043-1.272.039-2.137-.022-4.274-.052-6.41-.08M42.723 128.904c-.042-6.911-.09-13.822-.135-20.733-.018-2.858-.034-5.717-.05-8.576l-7.097-.405c-.02 3.72-.03 7.441-.06 11.161-.05 6.522-.105 13.044-.17 19.566-.018 1.745-.08 3.49-.123 5.234l7.653.46c-.005-2.236-.005-4.472-.018-6.707M42.546 94.176c.045-.635-.225-.897-.841-.923-.884-.038-1.765-.152-2.649-.17-3.085-.058-3.156-.484-3.331 2.736l6.78.328c.012-.657-.005-1.316.041-1.97"/>
            <path fill="#C98822" d="M75.783 54.674c-.121.766-.323 1.53-.342 2.298-.02.778-.31 1.21-1.073 1.21-.678 0-.853.348-.96.947-.811 4.527-1.64 9.05-2.494 13.57-.787 4.17-1.634 8.328-2.401 12.501-.124.673-.425.918-1.026.925-6.606.08-13.213.181-19.82.21-1.392.006-2.795-.2-4.17-.44-.405-.07-.974-.531-1.059-.907-.572-2.529-1.02-5.085-1.534-7.627-1.211-5.998-2.437-11.993-3.658-17.989-.078-.382-.169-.761-.25-1.124-1.823-.386-1.892-.85-2.071-2.636-.167-1.667-.015-3.362-.08-5.042-.034-.906.308-1.23 1.192-1.253 4.358-.117 8.714-.272 13.07-.415l9.298-.005c1.996.073 3.992.134 5.987.219 3.177.135 6.354.26 9.528.442 1.494.086 1.488.143 1.71 1.686.032.222.101.44.153.658v2.772z"/>
            <path fill="#77C0AE" d="M112.593 32.538a9.266 9.266 0 0 0-1.292-3.25c-1.207-1.894-3.047-3.142-4.915-4.341-1.917-1.232-4.259-1.663-5.934-3.393-1.087-1.122-2.46-1.968-3.704-2.936-.194-.151-.388-.298-.758-.582 1.04.057 1.847.14 2.655.135.852-.005 1.706-.077 2.556-.153 1.659-.149 3.234-.545 4.574-1.617 1.555-1.244 1.358-2.95-.485-3.69-1.86-.747-3.833-1.001-5.81-.772-2.968.345-5.576 1.624-7.955 3.41-.196.147-.595.147-.854.065-1.47-.464-2.914-1.014-4.392-1.45-.751-.221-1.554-.264-2.293-.38 2.369-1.49 4.75-2.888 7.021-4.446 1.638-1.125 3.016-2.563 3.714-4.505.73-2.028-.35-3.539-2.47-3.455-.452.019-.922.1-1.346.255-2.568.937-4.786 2.43-6.283 4.724-1.452 2.225-2.657 4.612-3.982 6.92-.157.273-.344.666-.588.729-1.671.43-3.362.786-5.116 1.182.064-.165.082-.3.156-.388 2.838-3.408 4.301-7.437 5.259-11.692.346-1.538.014-2.23-1.279-2.908h-.396c-1.903.549-3.521 1.591-4.863 3.018-3.62 3.85-4.54 8.534-3.956 13.607.075.659-.069.963-.521 1.306a131.782 131.782 0 0 0-3.503 2.727c-.713.579-1.37 1.224-2.054 1.84-.084-1.46.071-2.797.176-4.138.184-2.327.472-4.657.445-6.983-.013-1.123-.466-2.34-1.035-3.333-.88-1.535-2.522-1.485-3.51-.022-2.097 3.105-2.348 6.576-1.805 10.137.352 2.303 1.668 4.196 2.997 6.049.375.523.654.994.24 1.695-1 1.698-1.93 3.438-2.852 5.18-.308.582-.5 1.225-.747 1.84-.382-2.33-.495-4.63-.758-6.913a24.489 24.489 0 0 0-.881-4.334c-.33-1.078-1.175-1.928-2.36-1.981-1.205-.054-1.86.846-2.273 1.89-.158.395-.314.8-.399 1.216-.528 2.587-.008 5.021 1.04 7.4.868 1.969 2.224 3.563 3.665 5.108.544.583.993 1.13.784 2.08-.494 2.243-.979 4.5-1.228 6.777-.168 1.538.07 3.122.125 4.65h1.966c-.173-3.773.362-7.383 1.313-10.954 2.31.558 4.503 1.09 6.697 1.615 1.2.288 2.353.168 3.424-.469.68-.406.998-1.02.608-1.751-.267-.502-.644-1.024-1.11-1.322-1.921-1.233-4.015-1.532-6.228-.925-.938.258-1.88.498-2.923.772.55-3.276 2.388-5.785 4.28-8.613 1.126 2.836 3.122 4.548 5.186 6.185 1.436 1.14 2.97 2.088 4.93 1.907 1.308-.12 1.974-1.003 1.571-2.24-.23-.708-.517-1.462-.99-2.015-2.04-2.388-4.567-4.03-7.673-4.706-.622-.137-1.231-.333-1.872-.509.966-1.807 4.741-5.295 6.343-5.915.056.075.149.145.17.232.778 3.091 2.312 5.802 4.288 8.251 1.172 1.453 2.377 2.932 4.36 3.384 1.963.449 3.328-.839 2.976-2.827-.551-3.118-2.486-5.35-4.796-7.265-1.449-1.2-3.093-2.163-4.735-3.292 2.28-1.083 4.607-1.936 7.09-2.302.221-.032.662.294.732.533.515 1.734.914 3.502 1.444 5.232.597 1.947 1.184 3.91 1.983 5.778.566 1.321 1.596 1.75 2.598 1.505.855-.209 1.505-1.35 1.545-2.63.066-2.157-.45-4.192-1.34-6.123-.656-1.427-1.447-2.792-2.304-4.423 1.39.312 2.553.591 3.725.833.696.144.958.499.935 1.236-.093 3.195.7 6.2 2.106 9.046.749 1.514 1.582 2.985 3.114 3.867 1.218.702 2.33.297 2.713-1.05.382-1.342.592-2.74-.052-4.061-.736-1.506-1.572-2.962-2.35-4.447-.255-.488-.466-1-.697-1.503-.022-.05-.043-.099-.066-.148.047.024.095.048.142.07 1.566 1.026 3.11 2.089 4.708 3.06.97.59 1.487 1.432 1.8 2.468.642 2.133 1.61 4.095 2.987 5.858 1.465 1.878 3.113 3.506 5.501 4.118 1.89.483 3.438-.82 3.091-2.738"/>
            <mask id="m" fill="#fff">
                <use xlink:href="#l"/>
            </mask>
            <path fill="#77C0AE" d="M50.405 33.78c-.95-4.593-2.05-9.133-4.672-13.134-.132-.2-.091-.635.039-.865 1.632-2.898 2.636-5.927 2.3-9.326-.253-2.553-.995-4.894-2.571-6.933-.752-.973-1.777-1.38-2.974-1.106-1.141.26-1.61 1.159-1.804 2.235-.452 2.513-.002 4.99.356 7.46.194 1.332.579 2.636.832 3.756-2.365-1.46-4.762-2.933-7.15-4.421a1.631 1.631 0 0 1-.525-.563c-.472-.826-.96-1.648-1.354-2.513a14.813 14.813 0 0 0-4.967-6.024C26.199 1.126 24.31.291 22.177.212c-1.356-.05-2.612.82-3.042 1.964-.406 1.075.014 2.261 1.145 3.216.327.275.65.56 1.003.799 2.012 1.358 4.032 2.704 6.075 4.072-.089.044-.189.124-.302.149-1.883.416-3.765.835-5.654 1.224-.232.048-.52-.02-.744-.12-4.111-1.843-8.427-2.677-12.915-2.56-2.33.062-4.572.486-6.381 2.18-1.544 1.445-2.372 3.946.853 4.978.467.149.954.235 1.436.33 2.336.458 4.558-.241 6.81-.672 1.804-.346 3.62-.638 5.633-.99-1.636 1.763-3.082 3.33-4.544 4.88a1.21 1.21 0 0 1-.585.32 7.02 7.02 0 0 0-3.686 2.177c-1.699 1.877-3.427 3.752-4.893 5.807-.973 1.362-1.65 2.986-2.205 4.581-.471 1.352.278 2.85 1.44 3.606 1.105.722 2.11.65 3.444-.368.7-.534 1.476-1.092 1.916-1.821 1.579-2.615 3.07-5.286 4.515-7.978 1.167-2.174 1.364-4.834 3.37-6.598 1.154-1.015 2.224-2.126 3.332-3.194l.275.223c-.438.901-.824 1.834-1.325 2.7-1.284 2.217-2.216 4.563-2.573 7.103-.288 2.05-.24 4.086.838 5.957.828 1.434 2.166 1.687 3.184.405 1.116-1.406 2.191-2.912 2.93-4.537 1.935-4.25 1.378-8.703.581-13.103-.16-.884.054-1.186.777-1.43 2.384-.8 4.828-1.267 7.347-1.202.615.016 1.225.257 1.838.394l.095.35c-.259.194-.537.369-.772.589-1.621 1.51-3.188 3.088-4.108 5.137-.954 2.122-1.849 4.279-2.62 6.473-.334.95.127 1.907.923 2.548.786.635 1.721.74 2.577.172.814-.54 1.662-1.107 2.28-1.843 1.927-2.296 2.949-5.043 3.566-7.943.312-1.465.537-2.948.814-4.493 2.903 1.276 5.291 3.212 7.46 5.644-.371.266-.649.485-.945.674-1.97 1.252-4.003 2.416-5.903 3.77-1.797 1.28-3.438 2.788-4.489 4.786-.686 1.306-.127 2.683 1.32 2.882 1.002.138 2.166-.087 3.109-.496 2.128-.924 3.7-2.626 5.124-4.401 1.243-1.55 2.305-3.248 3.61-5.112.87 1.942 1.883 3.728 2.489 5.643 2.153 6.811 3.9 13.724 4.6 20.863.123 1.261.37 1.389 1.867.921-.246-1.859-.42-3.754-.76-5.62-.578-3.166-1.25-6.315-1.902-9.468M104.737 46.519c1.856-1.114 1.875-3.165-.02-4.139-2.888-1.484-5.98-1.96-9.182-1.422-1.145.193-2.251.61-3.185.872l-4.12-3.817c.085-.008.215-.016.345-.03 1.596-.169 3.22-.213 4.644-1.116.74-.47 1.299-1.079 1.225-1.993-.075-.944-.764-1.403-1.617-1.642-3.756-1.049-7.028-.027-10.018 2.301-.35.272-.86.49-1.29.48-2.65-.047-5.21.306-7.455 1.807-3.683 2.462-6.11 5.922-7.63 10.048-.13.349-.151.738-.235 1.176.41.03.725-.015.984.085.899.347 1.096-.171 1.432-.879.745-1.566 1.643-3.06 2.52-4.558.248-.425.636-.769.96-1.149l.24.105c0 .676.05 1.357-.01 2.028-.22 2.408.276 4.694 1.51 6.718.769 1.258 1.854 2.364 2.96 3.357.706.635 1.687.39 2.503-.1.775-.464.836-1.234.736-2.005a11.705 11.705 0 0 0-.459-2.116c-1.196-3.668-2.417-7.328-5.38-10.175 1.712-1.402 3.522-2.112 5.678-2.09.199 2.31.364 4.505.584 6.695.259 2.596.683 5.154 2.033 7.455.701 1.195 1.6 1.688 2.655 1.44.887-.21 1.37-1.071 1.426-2.453.092-2.212-.353-4.33-1.157-6.37-.855-2.17-1.774-4.315-2.736-6.643 3.15.585 5.707 1.91 7.482 4.577.424.638.44 1.159.071 1.816-1.348 2.4-2.29 4.974-2.576 7.705-.14 1.33-.005 2.796.426 4.056.574 1.68 2.455 1.77 3.484.312.264-.374.5-.791.638-1.223.38-1.19.703-2.397 1.082-3.711.099.265.198.431.224.609.272 1.887.493 3.782.814 5.66.125.729-.114 1.21-.52 1.77-1.096 1.512-2.217 3.024-3.126 4.65-.983 1.76-1.668 3.67-1.12 5.761.365 1.385 1.756 1.824 2.724.77.672-.732 1.115-1.685 1.606-2.57.33-.599.565-1.252.853-1.9.239 1.954.472 3.811.685 5.67.038.323.048.667-.02.98-.4 1.856-.932 3.69-1.216 5.561-.292 1.927-.242 3.89.503 5.739.405 1.007 1.037 1.88 2.273 1.913 1.173.03 2.034-.666 2.319-1.678.439-1.564.833-3.21.817-4.817-.027-2.626-.902-5.088-2.144-7.42-.323-.606-.478-1.37-.49-2.065-.05-3.126-.022-6.254-.022-9.316.068.089.2.308.373.487 1.368 1.414 2.71 2.856 4.134 4.21.575.548 1.35.869 2.179.415.827-.453 1.205-1.19 1.218-2.115.018-1.343-.438-2.503-1.338-3.507-1.92-2.144-4.338-3.598-6.791-5.016-.259-.149-.513-.467-.584-.754-.614-2.488-1.158-4.993-1.784-7.478-.226-.898-.613-1.756-.853-2.425 2.149.657 4.31 1.42 6.524 1.96 1.407.343 2.892.297 4.214-.496" mask="url(#m)"/>
            <path fill="#77C0AE" d="M39.619 40.599000000000004c-1.495-.207-2.476-.7-2.861-2.182l-.732-1.095-.566-.903c-1.137-1.223-2.174-2.563-3.435-3.64-1.474-1.258-3.048-2.472-5.106-2.675-.295-.007-.59-.033-.884-.019-1.845.083-2.73 1.47-1.909 3.1.361.718.844 1.427 1.428 1.97 2.43 2.261 5.122 4.164 8.107 5.633a.827.827 0 0 0 .035.18c-1.52.748-3.037 1.506-4.566 2.235-.246.117-.55.11-.827.16l-.998-.85a.245.245 0 0 0-.13-.13l-3.604-2.402c-1.093-.378-2.167-.839-3.285-1.117-2.307-.574-4.623-.758-6.924.129-1.623.625-2.789 2.195-2.63 3.667.186 1.717 1.366 2.974 3.297 3.08 2.083.114 4.182-.031 6.273-.112 2.077-.08 4.152-.22 6.272-.337-1.398 1.987-2.69 3.838-4.002 5.675-.296.414-.655.782-.986 1.172a.768.768 0 0 0 0-.001l-.396.135c-.956-.706-2.017-1.118-3.213-.996-1.722.176-3.462.287-5.153.631-3.44.7-6.395 2.354-8.775 4.965-1.297 1.422-1.086 2.915.493 4.025 1.362.957 2.864 1.073 4.43.764 2.993-.591 5.414-2.293 7.806-4.059 1.207-.89 2.455-1.723 3.684-2.582l-.767 2.58c-.094.207-.218.405-.277.62-.651 2.377-1.313 4.753-1.92 7.142-.137.545-.36.71-.906.8-.956.159-1.933.37-2.817.754a13.738 13.738 0 0 0-5.822 4.73c-1.567 2.22-2.877 4.572-2.801 7.437.034 1.262.377 2.342 1.561 2.978 1.144.614 2.118.069 3.007-.567 1.957-1.399 3.407-3.271 4.668-5.293.614-.983 1.17-2.002 1.878-3.224 0 .773.037 1.267-.006 1.756-.334 3.797-.683 7.591-1.027 11.386l-1.574.129c-.372.117-.787.165-1.11.365-3.157 1.945-5.473 4.634-6.963 8.037l-.238.569c-.15.394-.338.778-.446 1.183-.29 1.084-.187 2.113.697 2.897.942.837 1.934.466 2.8-.115 1.739-1.165 3.117-2.698 4.2-4.494.627-1.043 1.244-2.093 2.006-3.373.027.591.08.937.054 1.276-.187 2.36-.427 4.717-.568 7.08-.047.8-.257 1.367-.978 1.77-3.329 1.862-5.392 4.844-7.056 8.154-.698 1.387-1.246 2.83-1.093 4.446.14 1.455 1.336 2.403 2.593 1.771 1.141-.574 2.228-1.4 3.092-2.343.893-.976 1.49-2.223 2.269-3.433-.086.97-.13 1.857-.248 2.733-.237 1.751-.515 3.497-.777 5.245-1.78 2.283-2.878 4.884-3.566 7.677-.31 1.628-.773 3.247-.874 4.888-.06 1.002.084 2.174 1.068 2.907.164.325.276.707.53.911 1.925 1.54 3.522.851 4.405-1.277.55-1.324.778-2.823.924-4.267.195-1.958.217-3.937.23-5.906.013-1.764-.195-3.534-.104-5.291.097-1.859.432-3.706.67-5.62.472 1.035.814 2.05 1.369 2.93.475.754 1.097 1.501 1.828 1.992 1.074.721 2.237.266 2.57-.968.271-1 .519-2.099.38-3.099-.6-4.332-2.277-8.214-5.213-11.507-.166-.186-.242-.532-.22-.793.167-2.114.368-4.225.56-6.337.218.482.304.961.401 1.44.39 1.917 1.14 3.642 2.683 4.925.649.54 1.394.744 2.208.452.829-.298.92-1.068.997-1.784.059-.552.069-1.135-.039-1.676-.803-4.072-2.445-7.761-5.07-10.997-.211-.258-.432-.633-.41-.937.078-1.041.261-2.075.435-3.333.233.508.351.776.48 1.04.703 1.447 1.822 2.231 3.035 2.13 1.346-.111 2.44-1.18 2.835-2.771.419-1.683.09-3.31-.618-4.808a129.116 129.116 0 0 0-3.883-7.538c-.456-.82-.574-1.587-.445-2.45.094-.616.218-1.23.35-1.84.116-.536.26-1.065.393-1.598l.233.049v3.16l.957.397-.957-.396c.275 1.229.346 2.555.875 3.663.71 1.49 2.21 1.456 2.8-.05.492-1.251.726-2.659.792-4.01.213-4.443.054-8.877-.756-13.267l-.005-.395 1.992-3.603c.022.173.097.358.06.517-.657 2.774-1.29 5.548-1.01 8.434l.19 1.384c.195.552.312 1.148.602 1.644.749 1.28 2.043 1.49 2.963.356.738-.908 1.375-1.987 1.739-3.095.9-2.741 1.126-5.607.99-8.48-.044-.912-.376-1.809-.576-2.712l-.238-.782c-.053-.316-.04-.663-.17-.943-.455-.98-.027-1.567.836-1.92 1.376-.567 2.774-1.08 4.163-1.615-.25.708-.438 1.448-.76 2.12-1.213 2.53-1.524 5.22-1.465 7.97.024 1.164.951 2.391 1.898 2.66 1.19.337 2.02-.253 2.73-1.118 1.178-1.438 1.733-3.143 1.648-4.943-.11-2.315-.48-4.618-.738-6.926 2.277.42 4.49.979 6.01 2.944.58.75 1.252 1.466 1.652 2.307.492 1.036 1.116 1.426 2.194 1.051.248-.025.727.193.427-.407-1.804-4.146-4.552-7.251-9.258-7.906" mask="url(#m)"/>
        </g>
    </g>
</svg>
