<svg xmlns="http://www.w3.org/2000/svg" xmlns:xlink="http://www.w3.org/1999/xlink" width="450" height="345" viewBox="0 0 450 345">
    <defs>
        <filter id="l0xjmys52a" width="135.2%" height="140%" x="-17.6%" y="-20%" filterUnits="objectBoundingBox">
            <feOffset dx="-5" dy="-1" in="SourceAlpha" result="shadowOffsetOuter1"/>
            <feGaussianBlur in="shadowOffsetOuter1" result="shadowBlurOuter1" stdDeviation="1.5"/>
            <feColorMatrix in="shadowBlurOuter1" result="shadowMatrixOuter1" values="0 0 0 0 0 0 0 0 0 0 0 0 0 0 0 0 0 0 0.134915865 0"/>
            <feMerge>
                <feMergeNode in="shadowMatrixOuter1"/>
                <feMergeNode in="SourceGraphic"/>
            </feMerge>
        </filter>
        <filter id="54lylu08ad" width="151.4%" height="137.8%" x="-25.7%" y="-18.9%" filterUnits="objectBoundingBox">
            <feGaussianBlur in="SourceGraphic" stdDeviation="10"/>
        </filter>
        <path id="qgzvxbdcpb" d="M0 0L84 0 84 14 0 14z"/>
    </defs>
    <g fill="none" fill-rule="evenodd">
        <g>
            <g>
                <path stroke="#F5FAFB" stroke-linecap="round" stroke-width="10" d="M180 267L247.873 206.492 261.306 267 402 126" transform="translate(-100.000000, -242.000000) translate(100.000000, 242.000000)"/>
                <path fill="#008486" d="M368.541 262.6c-18.242-14.37-68.631-.28-143.134-3.693-74.504-3.414-165.318-3.36-145.696 19.94 10.128 12.026 30.943 16.366 161.83 16.366 120.5 0 145.242-18.243 127-32.613z" transform="translate(-100.000000, -242.000000) translate(100.000000, 242.000000)"/>
                <g>
                    <g fill="#FEDD00">
                        <path d="M0 11.175L31.667 0c2.777 1.064 5 2.129 6.666 3.193C40 4.257 41.39 5.322 42.5 6.386L5 20.754c-1.111-.532-2.222-1.596-3.333-3.193C.556 15.965 0 13.836 0 11.175zM8.333 22.35L44.167 7.983c.828.704 1.384 1.236 1.666 1.597.283.361.56.893.834 1.596l-35 14.369c-.615-.152-1.17-.418-1.667-.798-.497-.381-1.052-1.18-1.667-2.395z" transform="translate(-100.000000, -242.000000) translate(100.000000, 242.000000) translate(136.989102, 253.459260) rotate(123.000000) translate(-136.989102, -253.459260) translate(99.989102, 221.459260) translate(14.636084, 22.422496)"/>
                    </g>
                    <path fill="#F1A11F" d="M35.455 51.252c16.726-.1 33.295-6.154 33.363-17.363.024-4.053-.07-10.9-3.263-15.263C59.918 10.925 48.397 6.561 37.784 7.51 15.186 9.531 10.833 17.96 8.555 21.797c-1.859 3.132-1.414 6.68-1.435 10.066-.067 11.21 11.609 19.488 28.335 19.389z" transform="translate(-100.000000, -242.000000) translate(100.000000, 242.000000) translate(136.989102, 253.459260) rotate(123.000000) translate(-136.989102, -253.459260) translate(99.989102, 221.459260) translate(37.954156, 29.317154) rotate(15.000000) translate(-37.954156, -29.317154)"/>
                    <path fill="#FEE600" d="M35.234 56.607c16.726-.1 31.466-10.324 31.534-21.533.068-11.21-13.436-20.216-30.163-20.117-16.726.1-31.697 9.538-31.765 20.747-.067 11.21 13.667 21.002 30.394 20.903z" transform="translate(-100.000000, -242.000000) translate(100.000000, 242.000000) translate(136.989102, 253.459260) rotate(123.000000) translate(-136.989102, -253.459260) translate(99.989102, 221.459260) translate(35.804197, 35.781933) rotate(15.000000) translate(-35.804197, -35.781933)"/>
                    <g>
                        <path fill="#EFA71F" d="M29.75 42.397c14.184-.008 26.699-7.976 27.102-18.77.403-10.794-10.313-16.964-25.177-17.091-14.864-.128-27.508 7.403-27.513 17.236-.006 9.832 11.403 18.633 25.588 18.625z" transform="translate(-100.000000, -242.000000) translate(100.000000, 242.000000) translate(136.989102, 253.459260) rotate(123.000000) translate(-136.989102, -253.459260) translate(99.989102, 221.459260) translate(6.672109, 10.356145) translate(30.512312, 24.465536) rotate(15.000000) translate(-30.512312, -24.465536)"/>
                        <path fill="#FDC010" d="M31.686 40.874c16.196-1.052 24.545-9.865 24.796-18.152.251-8.287-9.823-15.984-24.617-16.107-14.794-.124-26.53 6.26-26.535 15.84-.006 9.58 10.16 19.47 26.356 18.42z" transform="translate(-100.000000, -242.000000) translate(100.000000, 242.000000) translate(136.989102, 253.459260) rotate(123.000000) translate(-136.989102, -253.459260) translate(99.989102, 221.459260) translate(6.672109, 10.356145) translate(30.908245, 23.782115) rotate(15.000000) translate(-30.908245, -23.782115)"/>
                    </g>
                    <g fill="#FEDD00">
                        <path d="M0 11.175L31.667 0c2.777 1.064 5 2.129 6.666 3.193C40 4.257 41.39 5.322 42.5 6.386L5 20.754c-1.111-.532-2.222-1.596-3.333-3.193C.556 15.965 0 13.836 0 11.175zM8.333 22.35L44.167 7.983c.828.704 1.384 1.236 1.666 1.597.283.361.56.893.834 1.596l-35 14.369c-.615-.152-1.17-.418-1.667-.798-.497-.381-1.052-1.18-1.667-2.395z" transform="translate(-100.000000, -242.000000) translate(100.000000, 242.000000) translate(136.989102, 253.459260) rotate(123.000000) translate(-136.989102, -253.459260) translate(99.989102, 221.459260) translate(14.636084, 22.422496)"/>
                    </g>
                    <path fill="#FFF" d="M49.094 39.788c-.68 2.676-1.48 4.396-2.4 5.158-.92.762-2.786 1.253-5.6 1.474 2.75.612 4.616 1.35 5.6 2.21.984.86 1.784 2.58 2.4 5.158.66-2.573 1.46-4.292 2.4-5.158.94-.866 2.807-1.603 5.6-2.21-2.713-.137-4.58-.629-5.6-1.474-1.02-.846-1.82-2.565-2.4-5.158z" transform="translate(-100.000000, -242.000000) translate(100.000000, 242.000000) translate(136.989102, 253.459260) rotate(123.000000) translate(-136.989102, -253.459260) translate(99.989102, 221.459260)"/>
                </g>
                <g filter="url(#l0xjmys52a)" transform="translate(-100.000000, -242.000000) translate(100.000000, 242.000000) translate(186.822183, 253.585886) rotate(192.000000) translate(-186.822183, -253.585886) translate(141.322183, 213.585886)">
                    <g fill="#FEDD00">
                        <path d="M0 13.53L37.73 0c3.31 1.289 5.958 2.577 7.944 3.866 1.986 1.288 3.64 2.577 4.964 3.865L5.958 25.126c-1.324-.644-2.648-1.932-3.972-3.865C.662 19.328 0 16.75 0 13.53zM9.93 27.06L52.623 9.663c.987.851 1.649 1.495 1.986 1.933.337.437.668 1.081.993 1.933L13.9 30.925c-.732-.184-1.394-.506-1.986-.967-.592-.46-1.254-1.427-1.986-2.899z" transform="translate(18.099427, 28.803316)"/>
                    </g>
                    <path fill="#F1A11F" d="M44.226 63.983c20.585-.026 40.941-7.503 40.959-21.527.006-5.072-.151-13.639-4.107-19.115-6.983-9.67-21.187-15.197-34.244-14.072-27.8 2.395-33.108 12.914-35.888 17.702-2.27 3.908-1.701 8.35-1.707 12.587-.017 14.024 14.402 24.45 34.987 24.425z" transform="translate(47.182285, 36.553648) rotate(15.000000) translate(-47.182285, -36.553648)"/>
                    <path fill="#FEE600" d="M43.95 70.701c20.586-.026 38.667-12.731 38.684-26.755.018-14.024-16.656-25.372-37.24-25.347-20.586.026-38.955 11.747-38.973 25.77-.017 14.025 16.945 26.357 37.53 26.332z" transform="translate(44.527745, 44.649987) rotate(15.000000) translate(-44.527745, -44.649987)"/>
                    <g>
                        <path fill="#EFA71F" d="M36.69 53.162c17.464.08 32.821-9.826 33.25-23.35C70.367 16.29 57.134 8.49 38.833 8.238 20.532 7.983 5.013 17.34 5.068 29.66c.055 12.321 14.158 23.422 31.622 23.501z" transform="translate(7.902442, 12.929124) translate(37.508731, 30.697082) rotate(15.000000) translate(-37.508731, -30.697082)"/>
                        <path fill="#FDC010" d="M39.069 51.262c19.934-1.216 30.157-12.207 30.414-22.59.257-10.382-12.195-20.09-30.41-20.339C20.858 8.085 6.448 16.01 6.502 28.014c.054 12.005 12.633 24.463 32.567 23.248z" transform="translate(7.902442, 12.929124) translate(37.994618, 29.835797) rotate(15.000000) translate(-37.994618, -29.835797)"/>
                    </g>
                    <g fill="#FEDD00">
                        <path d="M0 13.53L37.73 0c3.31 1.289 5.958 2.577 7.944 3.866 1.986 1.288 3.64 2.577 4.964 3.865L5.958 25.126c-1.324-.644-2.648-1.932-3.972-3.865C.662 19.328 0 16.75 0 13.53zM9.93 27.06L52.623 9.663c.987.851 1.649 1.495 1.986 1.933.337.437.668 1.081.993 1.933L13.9 30.925c-.732-.184-1.394-.506-1.986-.967-.592-.46-1.254-1.427-1.986-2.899z" transform="translate(18.099427, 28.803316)"/>
                    </g>
                    <path fill="#FFF" d="M27.019 22.49c-.851 3.441-1.851 5.652-3 6.632-1.15.98-3.483 1.612-7 1.895 3.436.788 5.77 1.735 7 2.842 1.23 1.107 2.23 3.317 3 6.631.824-3.307 1.824-5.518 3-6.631 1.175-1.113 3.508-2.06 7-2.842-3.392-.176-5.726-.808-7-1.895-1.275-1.087-2.275-3.298-3-6.632z"/>
                </g>
                <g transform="translate(-100.000000, -242.000000) translate(100.000000, 242.000000) translate(88.396208, 30.000000)">
                    <rect width="202" height="184" x=".497" fill="#185C6B" rx="30"/>
                    <path fill="#FFF" d="M32.497 12h139c11.046 0 20 8.954 20 20v120c0 11.046-8.954 20-20 20h-139c-11.046 0-20-8.954-20-20V32c0-11.046 8.954-20 20-20z"/>
                    <path fill="#F1F1F1" d="M12.497 95h176.346l14.852 39.75c2.9 7.76-1.04 16.402-8.8 19.301-1.68.628-3.458.949-5.25.949H15c-8.284 0-15-6.716-15-15 0-1.421.202-2.835.6-4.199L12.497 95z"/>
                    <g>
                        <path fill="#E1F9FF" d="M17.023 61.301L37.167 73.22 17.023 85.04C13.695 87.042 11 91.92 11 95.928v21.808c0 4.01 3.113 7.264 6.955 7.264h48.09c3.842 0 6.955-3.253 6.955-7.264V95.928c0-4.008-2.698-8.886-6.023-10.888L46.833 73.22 66.977 61.3C70.302 59.28 73 54.362 73 50.316V28.322C73 24.276 69.887 21 66.045 21h-48.09C14.113 21 11 24.276 11 28.322v21.994c0 4.046 2.695 8.964 6.023 10.985" transform="translate(60.603792, 21.000000)"/>
                        <path fill="#E3F9FF" d="M13 118.046V96.332c0-3.162 2.32-7.317 4.965-8.89L39.68 74.87c1.09-.63 1.09-1.653.004-2.287L17.949 59.89C15.324 58.315 13 54.118 13 50.917V29.016C13 26.249 15.126 24 17.742 24h48.52C68.874 24 71 26.249 71 29.016v21.901c0 3.2-2.324 7.398-4.972 8.987l-21.71 12.679c-1.086.634-1.083 1.656.003 2.287l21.74 12.585C68.679 89.015 71 93.17 71 96.332v21.714c0 2.734-2.126 4.954-4.738 4.954h-48.52c-2.616 0-4.742-2.22-4.742-4.954" transform="translate(60.603792, 21.000000)"/>
                        <path fill="#185C6B" d="M75 15v4.275C75 20.78 73.614 22 71.906 22H13.097C11.386 22 10 20.78 10 19.275V15h65zM10 131v-4.275c0-1.505 1.386-2.725 3.094-2.725h58.809c1.711 0 3.097 1.22 3.097 2.725V131H10z" transform="translate(60.603792, 21.000000)"/>
                        <g transform="translate(60.603792, 21.000000)">
                            <mask id="bdoyjzhw9c" fill="#fff">
                                <use xlink:href="#qgzvxbdcpb"/>
                            </mask>
                            <path fill="#185C6B" d="M84 0v10.969C84 12.642 82.61 14 80.895 14H3.105C1.39 14 0 12.642 0 10.969V0h84z" mask="url(#bdoyjzhw9c)"/>
                        </g>
                        <g fill="#185C6B">
                            <path d="M0 14V3.031C0 1.358 1.39 0 3.105 0h77.79C82.61 0 84 1.358 84 3.031V14H0z" transform="translate(60.603792, 21.000000) translate(0.000000, 132.000000)"/>
                        </g>
                        <path fill="#FCC74F" d="M44.317 72.515L66.028 59.82C68.676 58.23 71 54.022 71 50.821V44H13v6.821c0 3.201 2.324 7.407 4.949 8.985l21.734 12.71c.557.323.823.75.81 1.179V106.6L13 113.396v4.643c0 2.738 2.126 4.961 4.742 4.961h48.52c2.612 0 4.738-2.223 4.738-4.961v-4.643l-27.493-6.844V73.675c-.006-.418.263-.839.81-1.16" transform="translate(60.603792, 21.000000)"/>
                        <path fill="#FFF" d="M24.184 124c-1.31-1.291-2.184-3.564-2.184-6.16V95.96c0-4.02 1.813-8.914 4.047-10.923l13.544-11.856-13.544-11.96C23.813 59.191 22 54.258 22 50.198V28.133c0-2.566.837-4.819 2.105-6.133h13.882c-.328 1.314-.547 3.567-.547 6.133V50.2c0 4.06.47 8.993 1.05 11.021L42 73.181l-3.51 11.856c-.58 2.009-1.05 6.903-1.05 10.924v21.88c0 2.595.228 4.868.566 6.159H24.184z" opacity=".49" transform="translate(60.603792, 21.000000)"/>
                        <path fill="#E3F9FF" d="M70.268 14.253h5.821c1.608 0 2.911-1.38 2.911-3.084V0H68.398v11.17c0 1.704-.953 3.083-2.128 3.083h-4.257v4.788c0 1.704-.952 3.087-2.125 3.087h-.815c1.313 1.31 2.184 3.558 2.184 6.118v22.01c0 4.05-1.883 8.97-4.204 10.994L43 73.18l14.053 11.827c2.321 2.004 4.204 6.886 4.204 10.896v21.825c0 2.59-.907 4.853-2.266 6.144h.806c1.172 0 2.125 1.383 2.125 3.084v4.788h4.348c1.175 0 2.128 1.382 2.128 3.087V146H79v-11.17c0-1.704-1.303-3.086-2.91-3.086h-5.953v-4.788c0-1.701-1.3-3.084-2.911-3.084h-1.103c1.866-1.29 3.107-3.555 3.107-6.144V95.903c0-4.01-2.577-8.892-5.753-10.896L44.244 73.181 63.477 61.25c3.176-2.023 5.753-6.944 5.753-10.994v-22.01c0-2.56-1.192-4.808-2.99-6.118h1.117c1.608 0 2.91-1.383 2.91-3.087v-4.788z" opacity=".555" transform="translate(60.603792, 21.000000)"/>
                    </g>
                </g>
                <g>
                    <path fill="#000" d="M109.997 170.224c31.55 0 57.125-36.787 57.125-82.167s-24.837-83.385-56.297-74.255C80.192.412 50.388 42.677 50.388 88.057c0 45.38 28.06 82.167 59.609 82.167z" filter="url(#54lylu08ad)" opacity=".135" transform="translate(-100.000000, -242.000000) translate(100.000000, 242.000000) translate(189.000000, 68.000000)"/>
                    <g>
                        <g fill="#FFA32C">
                            <g>
                                <path d="M16.622.592c.569 3.458.85 5.601.845 6.431-.006.83.77 2.895 2.327 6.195 1.212 2.89 2.014 4.333 2.404 4.33.39-.002-.007-1.615-1.19-4.84-.83-2.78-1.242-4.493-1.237-5.134.004-.642-.46-2.973-1.392-6.994-.215-.39-.518-.583-.908-.58-.39.003-.674.2-.849.592z" transform="translate(-100.000000, -242.000000) translate(100.000000, 242.000000) translate(189.000000, 68.000000) translate(0.000000, 0.000000) translate(90.933333, 176.977778) translate(0.000000, -0.000000) translate(19.482703, 8.774308) rotate(49.000000) translate(-19.482703, -8.774308)"/>
                                <path d="M1.515 20.91c.305.468 4.249-.386 5.293.622 1.3 1.253-1.248 3.279 1.046 3.264.988-.007 2.873.47 6.262-.033 2.672-.396 5.291-3.192 4.928-5.348-.163-.966-3.372-2.178-7.671-2.345-5.293-.205-11.72.982-9.858 3.84z" transform="translate(-100.000000, -242.000000) translate(100.000000, 242.000000) translate(189.000000, 68.000000) translate(0.000000, 0.000000) translate(90.933333, 176.977778) translate(0.000000, -0.000000) translate(10.132260, 21.020585) rotate(-17.000000) translate(-10.132260, -21.020585)"/>
                            </g>
                        </g>
                        <g fill="#FFA32C">
                            <g>
                                <path d="M8.182.932c.568 3.457.85 5.6.844 6.43-.005.83.77 2.895 2.327 6.195 1.213 2.89 2.014 4.334 2.405 4.331.39-.003-.007-1.616-1.191-4.84-.829-2.781-1.241-4.493-1.237-5.135.005-.642-.46-2.973-1.392-6.993C9.723.53 9.42.337 9.03.34c-.39.002-.673.2-.848.592z" transform="translate(-100.000000, -242.000000) translate(100.000000, 242.000000) translate(189.000000, 68.000000) translate(0.000000, 0.000000) translate(156.444444, 178.933333) translate(0.615015, 0.584821) translate(11.042312, 9.113760) rotate(-9.000000) translate(-11.042312, -9.113760)"/>
                                <path d="M11.178 15.704c-2.013-.105-13.183-1.442-9.81 3.74.305.467 4.249-.388 5.293.62 1.3 1.254-1.248 3.28 1.046 3.264.988-.007 2.873.47 6.262-.032 2.672-.396 7.21-1.844 6.847-4-.364-2.156-7.625-3.488-9.638-3.592z" transform="translate(-100.000000, -242.000000) translate(100.000000, 242.000000) translate(189.000000, 68.000000) translate(0.000000, 0.000000) translate(156.444444, 178.933333) translate(0.615015, 0.584821) translate(10.787156, 19.499647) rotate(-17.000000) translate(-10.787156, -19.499647)"/>
                            </g>
                        </g>
                        <path fill="#03B5B5" d="M86.044 22.983c-1.859-5.171-3.91-7.19-6.152-6.054-2.243 1.134-4.429 5.921-6.559 14.36l12.711-8.306z" transform="translate(-100.000000, -242.000000) translate(100.000000, 242.000000) translate(189.000000, 68.000000) translate(0.000000, 0.000000) translate(79.688889, 23.955556) rotate(-27.000000) translate(-79.688889, -23.955556)"/>
                        <path fill="#03B5B5" d="M170.133 24.444c-1.606-8.496-3.643-12.733-6.111-12.71-2.469.021-4.668 2.232-6.6 6.63l12.711 6.08z" transform="translate(-100.000000, -242.000000) translate(100.000000, 242.000000) translate(189.000000, 68.000000) translate(0.000000, 0.000000) translate(163.777778, 18.088889) rotate(32.000000) translate(-163.777778, -18.088889)"/>
                        <path fill="#00BCBC" d="M181.573 148.353c0-24.463-8.972-53.816-18.76-62.863-5.985-5.532-7.336-15.777-4.051-30.734-17.378 7.139-31.35 10.708-41.915 10.708-6.7 0-19.72 4.02-39.061 12.058-1.798 24.317-.692 43.038 3.317 56.162 5.406 17.695 16.186 57.96 64.495 52.297 8.463-.992 29.142-7.67 32.846-12.425 4.778-6.133 3.129-15.917 3.129-25.203z" transform="translate(-100.000000, -242.000000) translate(100.000000, 242.000000) translate(189.000000, 68.000000) translate(0.000000, 0.000000)"/>
                        <path fill="#00BCBC" d="M118.869 96.599c12.656 0 49.756 11.594 58.514 5.462 2.03-1.421 6.928-18.95 3.017-28.728 3.934-27.407-6.765-47.03-21.022-57.2-5.904-4.211-25.422-11.244-46.934-8.31C90.934 10.755 82.82 21.444 79.2 26.888c-5.759 8.661-4.397 20.6-4.4 24.933-.01 14.12 3.331 27.63 4.889 31.778 4.826 12.852 9.12 12.999 39.18 12.999z" transform="translate(-100.000000, -242.000000) translate(100.000000, 242.000000) translate(189.000000, 68.000000) translate(0.000000, 0.000000)"/>
                        <g>
                            <path fill="#FFF" d="M33.315 13.443c.597-.88 5.352-7.91 11.244-10.267C49.45 1.22 71.937-5.135 83.67 18.82c3.204 6.54 9.778 34.711-4.889 45.467-3.237 2.374-24.13 6.456-37.644 5.378-14.612-1.166-27.287-6.226-30.8-8.8C2.187 54.893.452 44.595.15 36.637-.403 22.077 2.026 14.42 7.404 9.53c4.03-3.664 17.11-7.822 25.91 3.912z" opacity=".901" transform="translate(-100.000000, -242.000000) translate(100.000000, 242.000000) translate(189.000000, 68.000000) translate(0.000000, 0.000000) translate(76.196369, 23.713046)"/>
                            <g fill-rule="nonzero">
                                <path fill="#FFF" d="M13.895 52.8C5.317 52.8 0 42.455 0 29.822 0 17.19 5.317 6.844 13.895 6.844c8.577 0 15.438 10.345 15.438 22.978 0 12.633-6.86 22.978-15.438 22.978zm-.695-4.889c6.7 0 12.222-8.261 12.222-18.578 0-10.316-5.522-18.577-12.222-18.577-6.7 0-12.222 8.26-12.222 18.577C.978 39.65 6.5 47.911 13.2 47.911zM55.733 50.844c-14.04 0-25.422-11.381-25.422-25.422C30.311 11.382 41.693 0 55.733 0c14.04 0 25.423 11.382 25.423 25.422 0 14.04-11.382 25.422-25.423 25.422zm0-4.888c11.88 0 21.511-9.412 21.511-21.023 0-11.61-9.63-21.022-21.51-21.022s-21.512 9.412-21.512 21.022c0 11.61 9.631 21.023 21.511 21.023z" transform="translate(-100.000000, -242.000000) translate(100.000000, 242.000000) translate(189.000000, 68.000000) translate(0.000000, 0.000000) translate(76.196369, 23.713046) translate(2.025853, 7.575843)"/>
                                <path fill="#FEFEFE" d="M66.272 14.476c1.028-.553 2.172.699 2.172 1.803s-1.072 1.657-1.716 1.104c-.643-.552-1.484-2.355-.456-2.907zm-7.551-6.284c6.81 1.297 7.923 5.707 6.561 6.114-1.327.397-2.724-2.782-13.621-2.782-1.733 0-2.262-1.473-1.362-2.517 1.046-1.214 4.76-1.512 8.422-.815zM8.313 18.698c-1.068.328-1.711-.758-1.382-1.77.382-1.175 2.605-2.118 5.011-2.249 4.475-.243 6.112 3.099 5.36 3.685-.731.57-2.278-1.727-8.99.334zm12.18.406c.238.89-.633 1.639-1.347 1.376-.714-.262-1.88-1.476-1.049-2.213.831-.736 2.158-.053 2.396.837z" transform="translate(-100.000000, -242.000000) translate(100.000000, 242.000000) translate(189.000000, 68.000000) translate(0.000000, 0.000000) translate(76.196369, 23.713046) translate(2.025853, 7.575843)"/>
                            </g>
                        </g>
                        <g fill="#008181" transform="translate(-100.000000, -242.000000) translate(100.000000, 242.000000) translate(189.000000, 68.000000) translate(0.000000, 0.000000) translate(91.911111, 55.733333)">
                            <circle cx="33.244" cy="4.889" r="4.889"/>
                            <ellipse cx="3.911" cy="7.333" rx="3.911" ry="4.4"/>
                        </g>
                        <path fill="#FF9445" d="M184.235 84.11c-3.819-.649-9.53 4.756-20.436 20.312-2.528 3.606-6.124 11.343 1.451 17.998-6.22 7.516-4.597 18.35 5.893 20.126-3.866 10.08-2.244 20.477.693 19.694 3.75-.406 29.285-28.028 26.826-57.358-1.042-12.43-10.608-20.122-14.427-20.771z" transform="translate(-100.000000, -242.000000) translate(100.000000, 242.000000) translate(189.000000, 68.000000) translate(0.000000, 0.000000) translate(179.761786, 123.170293) rotate(-10.000000) translate(-179.761786, -123.170293)"/>
                        <g>
                            <path fill="#FFA32C" d="M5.647.025C4.12-.438 1.262 5.717.266 7.917.12 8.24 0 8.775 0 9.237c0 1.66 6.513 7.874 8.625 7.874 2.133 0 4.086-7.314 4.086-10.267 0-.87-4.836-6.144-7.064-6.82z" transform="translate(-100.000000, -242.000000) translate(100.000000, 242.000000) translate(189.000000, 68.000000) translate(0.000000, 0.000000) translate(103.644444, 65.511111)"/>
                            <path fill="#E38D1D" d="M2.784 11.726c.124.135 2.41-.563 3.784-.563 1.235 0 4.164.708 4.03.563-.133-.146-3.04-3.017-3.998-2.911-.377.041-3.94 2.776-3.816 2.91z" transform="translate(-100.000000, -242.000000) translate(100.000000, 242.000000) translate(189.000000, 68.000000) translate(0.000000, 0.000000) translate(103.644444, 65.511111) translate(6.691486, 10.278705) scale(1, -1) rotate(9.000000) translate(-6.691486, -10.278705)"/>
                        </g>
                        <path fill="#008181" d="M77.452 82.622c-6.966 10.96-11.53 20.412-13.69 28.356-1.24 4.852 3.25 25.312 9.29 26.889 12.102 2.97 34.835-18.955 39.727-24.395 2.23-2.48 2.367-9.733-2.551-11.302 3.934-3.53 1.994-11.429-3.935-11.375 8.254-2.32 23.19-6.795 25.727-9.022 2.536-2.227-21.43-1.758-24.1-.784-9.172 3.347-22.646 9.944-29.733 16.082.813-5.07.568-9.886-.735-14.449z" transform="translate(-100.000000, -242.000000) translate(100.000000, 242.000000) translate(189.000000, 68.000000) translate(0.000000, 0.000000)"/>
                    </g>
                </g>
                <path fill="#FFF" d="M408 107L426 133 390 133z" transform="translate(-100.000000, -242.000000) translate(100.000000, 242.000000) translate(408.000000, 120.000000) rotate(-316.000000) translate(-408.000000, -120.000000)"/>
            </g>
        </g>
    </g>
</svg>
