<svg xmlns="http://www.w3.org/2000/svg" width="250" height="219" viewBox="0 0 250 219">
    <g fill="none" fill-rule="evenodd" transform="translate(-26 -39)">
        <ellipse cx="175.5" cy="248.5" fill="#118C8C" rx="75.5" ry="9.5"/>
        <path fill="#FFF" d="M239.557 82.874l-112.2 32.173c-1.931.554-3.039 2.604-2.472 4.579l18.07 63.02c.567 1.975 2.592 3.127 4.524 2.573l112.2-32.173c1.932-.554 3.04-2.604 2.473-4.578L244.08 85.447c-.566-1.975-2.592-3.127-4.524-2.573"/>
        <path fill="#162323" d="M132.85 144.365l119.196-34.179-3.859-13.458-119.196 34.18z"/>
        <path fill="#175059" d="M218.416 142.934l24.031-6.89-.826-2.885-24.032 6.891zM179.23 159.722l64.404-18.467-.827-2.884-64.404 18.468z"/>
        <path fill="#185994" d="M205.453 129.372l-90.503 25.952c-7.128 2.043-11.256 9.45-9.223 16.543l18.27 63.711c2.033 7.093 9.46 11.187 16.587 9.143l90.503-25.951c7.127-2.044 11.256-9.45 9.222-16.544l-18.269-63.711c-2.034-7.093-9.46-11.186-16.587-9.143"/>
        <path fill="#094276" d="M226.33 156.123l-24.954 7.155c-6.215 1.782-9.834 8.176-8.083 14.282 1.75 6.105 8.208 9.61 14.422 7.827l24.955-7.155c1.239-.356 1.96-1.63 1.611-2.847l-5.075-17.702c-.35-1.217-1.637-1.916-2.876-1.56"/>
        <path fill="#FFF" d="M214.267 171.255a6.5 6.5 0 1 1-12.497 3.583 6.5 6.5 0 0 1 12.497-3.583"/>
        <path fill="#005960" d="M231.344 131.539l15.38-4.41-3.032-10.574-15.38 4.41z"/>
        <g>
            <path fill="#005960" d="M31.347 39.572l93.91 1.413-.463 46.298-93.34-1.404c-3.51-4.331-5.24-9.1-5.188-14.305.078-7.809 7.486-15.913 7.622-22.213.09-4.2-.756-7.463-2.541-9.789z"/>
            <path fill="#D08E6C" d="M189.609 104.478c-12.77-12.549-19.086-19.011-18.949-19.389.138-.377 4.438-5.157 12.903-14.34l18.633 12.136 11.57 7.186-24.157 14.407z"/>
            <path fill="#E18E43" d="M194.025 97.681c-1.698-1.035-2.933-1.484-3.704-1.348-1.693.3-5.393 1.647-2.97 4.319 2.48 2.733 4.808 5.39 6.985 7.972l19.57-14.535-4.466-5.837c-4.884 1.32-8.432 2.836-10.643 4.549-2.211 1.713-3.802 3.34-4.772 4.88z"/>
            <path fill="#FFF" d="M125.39 42.203l4.682-.096-.863 43.448-4.38-.066z"/>
            <path fill="#FEC3A4" d="M130.138 48.771c15.075.046 24.326.038 27.75-.023 5.278-.094 15.822 5.011 25.02 9.106 12.545 5.587 19.94 9.442 20.934 10.597 3.734 4.337 15.49 22.312 14.48 26.709-.36 1.571-7.168 8.67-14.518 13.386-2.546 1.633-3.209 2.372-5.648 3.097-.086.026-1.432.603-2.466.29-1.858-.56-3.934-2.519-4.586-5.241-.246-1.031-1.769-3.448-1.266-4.63.31-.73 3.143-1.38 4.084-1.49 1.424-.17 3.28 2.629 3.787 2.568.511-.06-.683-.344.766-2.103.934-1.133 3.437-2.425 5.577-3.971 1.602-1.157 6.646-4.165 5.752-5.007-4.19-3.945-9.278-9.28-14.813-13.043-2.639-1.794-6.927-2.795-10.123-3.63-.988-.404-3.212-.698-4.73 1.076-1.517 1.774-2.521 5.152-2.107 7.53.317 1.82 2.055 10.419 6.318 13.69 7.383 5.665 6.52 9.5 6.51 11.305-.016 2.753-1.022 6.083-2.596 5.51-2.606-.948-9.253-8.634-15.401-14.445-4.1-3.874-7.064-6.541-8.894-8.001-8.979-5.649-13.831-9.175-14.558-10.58-.727-1.403-2.289-4.579-4.686-9.526l-15.042-.226.456-22.948z"/>
            <path fill="#D08E6C" d="M161.663 91.357c-2.197-1.298-3.693-1.953-4.488-1.965-5.28-.08-5.324 2.417-5.34 2.956-.022.724 5.895 3.869 8.578 4.982 1.154.48 5.04 1.128 11.656 1.947l-7.406-6.987-3-.933z"/>
            <g>
                <g fill="#FEDD00">
                    <path d="M203.405 86.002l3.106 17.413c-.823 1.334-1.596 2.382-2.318 3.142-.723.76-1.42 1.377-2.091 1.85l-4.287-20.728c.387-.524 1.059-.997 2.016-1.42.957-.423 2.148-.509 3.574-.257zM196.656 89.25l4.438 19.868c-.452.361-.788.598-1.007.71-.22.112-.53.205-.932.28L194.64 90.67c.137-.303.33-.565.58-.785.25-.221.728-.433 1.435-.635z"/>
                </g>
                <path fill="#F1A11F" d="M192.797 92.656c-3.876 8.23-4.685 17.76 1 20.386 2.056.949 5.561 2.486 8.53 1.928 5.24-.986 10.164-5.63 12.172-11.057 4.277-11.556 1.012-15.64-.406-17.645-1.156-1.637-3.065-2.239-4.783-3.032-5.686-2.625-12.637 1.19-16.513 9.42z"/>
                <path fill="#FEE600" d="M189.544 92.089c-3.876 8.23-2.135 17.827 3.55 20.452 5.686 2.625 13.437-1.919 17.313-10.149 3.876-8.23 2.59-17.758-3.097-20.384-5.685-2.625-13.89 1.85-17.766 10.08z"/>
                <path fill="#EFA71F" d="M191.491 93.375c-3.286 6.96-2.188 14.938 3.14 17.628 5.327 2.691 10.911-1.14 14.423-8.402 3.512-7.26 2.663-15.202-2.274-17.475-4.936-2.274-12.003 1.29-15.289 8.25z"/>
                <path fill="#FDC010" d="M191.89 94.602c-3.228 8.187-.739 14.317 3.365 16.354 4.103 2.037 10.305-1.127 13.8-8.355 3.493-7.227 3.01-14.458-1.8-16.673-4.81-2.215-12.136.487-15.364 8.674z"/>
                <g fill="#FEDD00">
                    <path d="M203.405 86.002l3.106 17.413c-.823 1.334-1.596 2.382-2.318 3.142-.723.76-1.42 1.377-2.091 1.85l-4.287-20.728c.387-.524 1.059-.997 2.016-1.42.957-.423 2.148-.509 3.574-.257zM196.656 89.25l4.438 19.868c-.452.361-.788.598-1.007.71-.22.112-.53.205-.932.28L194.64 90.67c.137-.303.33-.565.58-.785.25-.221.728-.433 1.435-.635z"/>
                </g>
                <path fill="#FFF" d="M216.461 88.992c-1.488-.64-2.408-1.248-2.762-1.824-.353-.576-.458-1.637-.314-3.185-.621 1.428-1.23 2.366-1.824 2.812-.595.446-1.67.706-3.225.779 1.43.618 2.35 1.226 2.761 1.824.412.597.66 1.684.743 3.26.341-1.458.806-2.42 1.396-2.887.589-.468 1.664-.727 3.225-.779z"/>
            </g>
            <path fill="#FEC3A4" d="M186.967 100c2.689 4.23 4.033 6.898 4.033 8.003 0 1.658-.826 9.24-3.3 7.821-1.65-.946-4.216-3.783-7.7-8.509l6.967-7.315z"/>
        </g>
        <g fill="#FDC010">
            <path fill-rule="nonzero" d="M233.252 66.717l.984 1.617-3.716 2.206 2.233 3.67-1.619.962-2.233-3.671-3.716 2.205-.984-1.617 3.716-2.205-2.233-3.671 1.62-.961 2.232 3.67zM266.174 56.476l-1.05 1.575-3.57-2.436-2.382 3.575-1.556-1.061L260 54.554l-3.57-2.436 1.05-1.576 3.57 2.437 2.383-3.576 1.555 1.062-2.383 3.575zM111.174 129.476l-1.05 1.575-3.57-2.436-2.382 3.575-1.556-1.061 2.384-3.575-3.57-2.436 1.05-1.576 3.57 2.437 2.383-3.576 1.555 1.062-2.383 3.575z"/>
            <path d="M195.5 49.199l-3.82 1.56.302-4.116-2.664-3.152 4.008-.983L195.5 39l2.174 3.508 4.008.983-2.664 3.152.303 4.116zM148.5 169.199l-3.82 1.56.302-4.116-2.664-3.152 4.008-.983L148.5 159l2.174 3.508 4.008.983-2.664 3.152.303 4.116zM269.5 96.199l-3.82 1.56.302-4.116-2.664-3.152 4.008-.983L269.5 86l2.174 3.508 4.008.983-2.664 3.152.303 4.116z"/>
        </g>
    </g>
</svg>
