<svg xmlns="http://www.w3.org/2000/svg" xmlns:xlink="http://www.w3.org/1999/xlink" width="191" height="220" viewBox="0 0 191 220">
    <defs>
        <path id="a" d="M.023 0H190.78v190.595H.023z"/>
    </defs>
    <g fill="none" fill-rule="evenodd">
        <path fill="#00C9C3" d="M11.017 119.185c0 46.354 37.588 83.93 83.955 83.93s83.955-37.576 83.955-83.93c0-46.354-37.588-83.93-83.955-83.93s-83.955 37.576-83.955 83.93z"/>
        <g transform="translate(0 28.557)">
            <mask id="b" fill="#fff">
                <use xlink:href="#a"/>
            </mask>
            <path fill="#008181" d="M95.39 0c52.682 0 95.39 42.666 95.39 95.298 0 52.631-42.708 95.297-95.39 95.297C42.707 190.595 0 147.93 0 95.298 0 42.666 42.707 0 95.39 0" mask="url(#b)"/>
        </g>
        <path fill="#00A7A7" d="M133.209 53.715L21.069 76.667c-6.076 1.244-11.002 8.131-11.002 15.384v97.4c0 7.252 4.926 12.124 11.001 10.88L133.21 177.38c6.076-1.243 11.002-8.131 11.002-15.384v-97.4c0-7.252-4.926-12.123-11.002-10.88"/>
        <path fill="#FFF" d="M176.316 47.258H70.436a3.302 3.302 0 0 0-3.301 3.301v58.196a3.302 3.302 0 0 0 3.301 3.302h105.88a3.302 3.302 0 0 0 3.302-3.302V50.56a3.302 3.302 0 0 0-3.302-3.301"/>
        <path fill="#8CD7D7" d="M67.135 73.894h112.483v-11.91H67.135z"/>
        <path fill="#175059" d="M142.374 93.408h22.4v-2.255h-22.4zM104.92 98.556h59.854v-2.255h-59.853z"/>
        <path fill="#5B232D" d="M89.217 96.08a3.6 3.6 0 0 0-1.133-1.305c-.484-.343-1.072-.635-1.762-.876-.69-.24-1.462-.46-2.314-.66a37.188 37.188 0 0 1-1.463-.391 4.594 4.594 0 0 1-.876-.371 2.09 2.09 0 0 1-.68-.567 1.27 1.27 0 0 1-.247-.784c0-.488.242-.905.726-1.252s1.122-.52 1.912-.52c.851 0 1.47.16 1.855.479.384.32.714.764.989 1.334.213.4.41.686.593.862.181.175.448.262.798.262.385 0 .706-.146.964-.438a1.45 1.45 0 0 0 .386-.984 2.77 2.77 0 0 0-.31-1.227c-.205-.419-.532-.82-.978-1.2-.447-.382-1.008-.688-1.685-.918a6.451 6.451 0 0 0-1.403-.295v-2.254h-1.935v2.245c-.777.07-1.478.229-2.098.48-.859.346-1.515.843-1.968 1.488-.454.647-.68 1.385-.68 2.217 0 .872.214 1.603.644 2.19.43.588 1.01 1.051 1.741 1.391.732.34 1.64.638 2.726.892.81.185 1.458.36 1.942.525.485.166.88.405 1.185.717.306.313.46.72.46 1.222 0 .632-.284 1.16-.85 1.582-.568.422-1.305.633-2.211.633-.66 0-1.192-.104-1.598-.314a2.524 2.524 0 0 1-.942-.799 6.088 6.088 0 0 1-.624-1.206c-.158-.405-.349-.71-.572-.917a1.163 1.163 0 0 0-.82-.31c-.398 0-.726.133-.983.398a1.316 1.316 0 0 0-.387.953c0 .639.215 1.297.644 1.974a4.91 4.91 0 0 0 1.675 1.623c.749.436 1.655.701 2.716.8v2.302h1.935v-2.302c.845-.08 1.6-.271 2.264-.573.906-.412 1.595-.983 2.066-1.711.47-.729.705-1.55.705-2.463 0-.763-.135-1.407-.407-1.933"/>
        <path fill="#1D7279" d="M144.562 109.424h-7.386a1.128 1.128 0 0 1 0-2.255h7.386a1.128 1.128 0 0 1 0 2.255M132.569 109.424H93.595a1.128 1.128 0 0 1 0-2.255h38.974a1.127 1.127 0 1 1 0 2.255"/>
        <path fill="#FF872F" d="M99.417 55.876c0 13.134-10.645 23.781-23.776 23.781-13.132 0-23.777-10.647-23.777-23.781 0-13.135 10.645-23.782 23.777-23.782 13.131 0 23.776 10.647 23.776 23.782"/>
        <path fill="#FFF" fill-opacity=".5" d="M75.64 39.188c-9.2 0-16.684 7.486-16.684 16.688 0 9.202 7.485 16.688 16.685 16.688s16.684-7.486 16.684-16.688c0-9.202-7.484-16.688-16.684-16.688zm0 36.207c-10.76 0-19.515-8.756-19.515-19.52 0-10.763 8.755-19.519 19.516-19.519 10.76 0 19.515 8.756 19.515 19.52 0 10.763-8.755 19.519-19.515 19.519z"/>
        <path fill="#FFF" d="M82.829 57.239a4.635 4.635 0 0 0-1.456-1.675c-.622-.442-1.377-.817-2.264-1.126a29.61 29.61 0 0 0-2.972-.847c-.874-.22-1.5-.389-1.88-.504a5.847 5.847 0 0 1-1.125-.476 2.677 2.677 0 0 1-.874-.728 1.63 1.63 0 0 1-.318-1.007c0-.626.312-1.163.934-1.608.622-.446 1.44-.67 2.456-.67 1.094 0 1.888.206 2.382.617.495.41.918.982 1.271 1.714.274.512.528.88.762 1.106.233.225.575.338 1.026.338.494 0 .906-.188 1.237-.563.331-.375.497-.797.497-1.265 0-.511-.133-1.037-.397-1.575-.265-.539-.685-1.053-1.258-1.543-.574-.49-1.295-.883-2.165-1.178a8.283 8.283 0 0 0-1.801-.38v-2.895h-2.486v2.884c-1 .09-1.899.294-2.696.616-1.103.446-1.946 1.083-2.528 1.913-.583.83-.874 1.779-.874 2.847 0 1.121.276 2.059.828 2.814.551.754 1.297 1.35 2.237 1.787.94.437 2.107.819 3.501 1.145 1.042.239 1.874.464 2.495.676.623.211 1.13.519 1.523.92.393.402.59.925.59 1.57 0 .81-.365 1.489-1.093 2.031-.728.543-1.675.815-2.84.815-.847 0-1.53-.135-2.052-.404-.52-.269-.924-.611-1.21-1.026-.288-.415-.555-.932-.802-1.55-.203-.52-.447-.913-.734-1.178a1.496 1.496 0 0 0-1.053-.397c-.512 0-.933.17-1.264.51-.331.34-.497.748-.497 1.225 0 .82.276 1.666.828 2.535a6.303 6.303 0 0 0 2.151 2.085c.962.56 2.127.9 3.49 1.028v2.957h2.486V65.82c1.084-.104 2.054-.348 2.907-.736 1.165-.53 2.05-1.262 2.654-2.198.604-.936.907-1.99.907-3.164 0-.98-.174-1.808-.523-2.483M51.864 41.373a1.128 1.128 0 0 1-1.127-1.128V17.71a1.127 1.127 0 1 1 2.255 0v22.535c0 .623-.505 1.128-1.128 1.128M99.417 41.373a1.128 1.128 0 0 1-1.127-1.128v-8.151a1.128 1.128 0 0 1 2.255 0v8.151c0 .623-.505 1.128-1.128 1.128M99.417 26.44a1.127 1.127 0 0 1-1.127-1.127v-8.15a1.127 1.127 0 1 1 2.255 0v8.15c0 .623-.505 1.128-1.128 1.128M89.883 32.254a1.127 1.127 0 0 1-1.127-1.127V17.71a1.127 1.127 0 1 1 2.255 0v13.417c0 .622-.505 1.127-1.128 1.127M80.35 14.32a1.127 1.127 0 0 1-1.128-1.128V9.845a1.127 1.127 0 1 1 2.255 0v3.347c0 .623-.505 1.128-1.127 1.128M70.816 9.403a1.127 1.127 0 0 1-1.128-1.128V1.22a1.127 1.127 0 1 1 2.255 0v7.055c0 .623-.505 1.128-1.127 1.128M70.816 27.072a1.128 1.128 0 0 1-1.128-1.127V16.53a1.128 1.128 0 0 1 2.255 0v9.414c0 .622-.505 1.127-1.127 1.127M61.281 22.934a1.128 1.128 0 0 1-1.127-1.128v-11.27a1.128 1.128 0 0 1 2.255 0v11.27c0 .623-.505 1.128-1.128 1.128"/>
        <path fill="#009090" d="M141.7 83.182H26.495c-9.073 0-16.428 7.356-16.428 16.43v81.512c0 9.075 7.355 16.432 16.428 16.432H141.7c9.073 0 16.428-7.357 16.428-16.432V99.613c0-9.075-7.355-16.431-16.428-16.431"/>
        <path fill="#5B232D" d="M14.948 190.875H12.61a.977.977 0 0 1-.975-.98c0-.542.436-.981.975-.981h2.338c.539 0 .975.439.975.98 0 .542-.436.981-.975.981"/>
        <path fill="#31E5DB" d="M158.84 120.665h-32.7c-8.144 0-14.746 6.603-14.746 14.748s6.602 14.748 14.745 14.748h32.7a2.94 2.94 0 0 0 2.94-2.94v-23.616a2.94 2.94 0 0 0-2.94-2.94"/>
        <path fill="#FFF" d="M138.504 135.413a8.17 8.17 0 1 1-16.338 0 8.17 8.17 0 1 1 16.338 0"/>
        <path fill="#FF872F" d="M156.323 87.295h15.099V77.113h-15.099z"/>
        <path fill="#00A7A7" d="M8.725 163.503c7.41 17.338 17.93 30.038 31.555 38.098 13.625 8.06 3.107 7.7-31.555-1.082L1.57 177.428l7.155-13.925z"/>
    </g>
</svg>
