<?xml version="1.0" encoding="UTF-8"?>
<svg width="185px" height="188px" viewBox="0 0 185 188" version="1.1" xmlns="http://www.w3.org/2000/svg" xmlns:xlink="http://www.w3.org/1999/xlink">
    <!-- Generator: Sketch 51.2 (57519) - http://www.bohemiancoding.com/sketch -->
    <title>glassesowl</title>
    <desc>Created with Sketch.</desc>
    <defs>
        <path d="M0.0651300689,93.9870705 L0.0651300689,0.0560979342 L184.637863,0.0560979342 L184.637863,187.803082 L0.0651300689,187.803082 L0.0651300689,93.9870705 C0.0651300689,42.5499954 41.3659143,0.852257077 92.3131217,0.852257077 C143.260329,0.852257077 184.560683,42.5499954 184.560683,93.9870543 C184.560683,145.424113 143.260329,187.121852 92.3131217,187.121852 C41.3659303,187.121852 0.06515597,145.424139 0.0651300689,93.9871027 L0.0651300689,93.9870705 Z" id="path-1"></path>
        <path d="M77.5243049,59.5023743 C75.630608,59.6194536 73.7214673,59.6788523 71.7985845,59.6788523 C42.8279196,59.6788523 16.9764493,46.1957864 0.0645059622,25.1058942 C4.90666491,16.2015484 10.961425,7.76513694 18.2256599,0.0457413925 L77.5243049,59.5023743 Z" id="path-3"></path>
        <path d="M90.0646878,1.00704259 C81.0856257,35.8299483 52.647649,62.7241213 17.1752094,69.1454254 C10.4154077,64.9258719 4.49585422,59.1011549 0.0410290742,51.8441285 L89.5498279,0.028192808 C89.7251542,0.353459945 89.896769,0.67976144 90.0646863,1.00704876 L90.0646878,1.00704259 Z" id="path-5"></path>
        <path d="M113.946014,119.267516 C98.2450251,131.765348 78.4246266,139.222846 56.8789212,139.222846 C41.9127358,139.222846 27.7789804,135.624574 15.2800827,129.238166 C7.40825846,116.072145 2.87289594,100.641077 2.87289594,84.1530865 L2.87289594,56.2981607 C2.87289594,54.208153 2.98694529,52.1457628 3.20801454,50.1158806 C4.11725325,41.7814537 3.37887337,33.3768324 1.29471117,25.2623382 C0.910386381,23.7616465 0.556474751,22.2055761 0.221356159,20.5916817 C-0.644127774,16.4126733 3.74913925,13.171795 7.39312357,15.3150237 C9.02524866,16.2751614 10.7204954,17.2052364 12.4148814,18.0331844 C14.5757938,19.0899832 17.1419759,18.6249457 18.8221595,16.8900811 C28.9016832,6.49556542 42.9144032,0.0325080337 58.3980011,0.0325080337 C73.8815991,0.0325080337 87.8977621,6.49685998 97.9762816,16.8945402 C99.6574694,18.6294047 102.2215,19.0944422 104.382412,18.0387942 C106.081102,17.2084009 107.780939,16.2773191 109.415073,15.3150237 C113.059918,13.171795 117.453185,16.413824 116.586697,20.5928324 C116.250574,22.2178026 115.893506,23.7848049 115.505882,25.2957093 C113.41842,33.4103474 112.685348,41.8156878 113.589135,50.1524162 C113.808196,52.1702158 113.979485,58.245622 113.979485,60.3222525 L113.946014,119.267516 Z" id="path-7"></path>
        <path d="M39.524627,8.82722571 C45.9802506,4.94337873 65.2884468,0.0484743688 72.779409,0.0484743688 C86.1959162,0.0484743688 97.0730681,11.1260903 97.0730681,24.7899648 C97.0730681,52.9528539 115.413782,75.7844254 49.9353959,75.7844254 C-17.1414021,75.7844254 2.79786725,52.9528539 2.79786725,24.7899648 C2.79786725,11.1260903 13.6750191,0.0484743688 27.0926741,0.0484743688 C34.5832058,0.0484743688 26.1743975,3.39881561 30.6300689,8.82722571 C32.8033187,11.4746167 36.5920524,10.59129 39.524627,8.82722571 Z" id="path-9"></path>
        <path d="M0.0651300689,93.2679939 C0.0651300689,144.704765 41.3659143,186.402647 92.3132651,186.402647 C143.260186,186.402647 184.560826,144.704765 184.560826,93.2679939 C184.560826,41.8307911 143.260186,0.133052793 92.3132651,0.133052793 C41.3659143,0.133052793 0.0651300689,41.8307911 0.0651300689,93.2679939 Z" id="path-11"></path>
        <path d="M0.0651300689,93.2679939 C0.0651300689,144.704765 41.3659143,186.402647 92.3132651,186.402647 C143.260186,186.402647 184.560826,144.704765 184.560826,93.2679939 C184.560826,41.8307911 143.260186,0.133052793 92.3132651,0.133052793 C41.3659143,0.133052793 0.0651300689,41.8307911 0.0651300689,93.2679939" id="path-13"></path>
        <path d="M9.56206963,1.04601071 L0.948259373,10.4300444 C0.0189364958,11.4411018 -0.17401492,13.0066656 0.479150727,14.2517521 L6.3309583,25.4083366 C8.65455241,29.8400735 14.8496557,29.8400735 17.1733933,25.4083366 L23.0249139,14.2517521 C23.6783665,13.0066656 23.4854151,11.4411018 22.5560922,10.4300444 L13.9435731,1.04601071 C13.3495122,0.398870696 12.5508799,0.0755164499 11.7522475,0.0755164499 C10.9539021,0.0755164499 10.1555566,0.398870696 9.56206963,1.04601071 Z" id="path-15"></path>
        <polygon id="path-17" points="0.128882938 0.0529334353 81.5021615 0.0529334353 81.5021615 28.1620404 0.128882938 28.1620404"></polygon>
        <path d="M0.0339996174,8.24538944 L4.0740723,8.24538944 C4.0740723,6.93284162 4.40890398,3.87967559 7.50817712,3.87967559 C10.6081676,3.87967559 10.9422819,6.93284162 10.9422819,8.24538944 L14.9823546,8.24538944 C14.9823546,3.36299923 11.9790551,0.0835715379 7.50817712,0.0835715379 C3.03801645,0.0835715379 0.0339996174,3.36299923 0.0339996174,8.24538944 Z" id="path-19"></path>
        <path d="M0.13427697,8.29904208 L4.17391928,8.29904208 C4.17391928,6.98620658 4.50903787,3.93332823 7.6080241,3.93332823 C10.708158,3.93332823 11.0424158,6.98620658 11.0424158,8.29904208 L15.0822016,8.29904208 C15.0822016,3.41693956 12.0789021,0.137511859 7.6080241,0.137511859 C3.13815034,0.137511859 0.13427697,3.41693956 0.13427697,8.29904208 Z" id="path-21"></path>
    </defs>
    <g id="Mobile---28-aug" stroke="none" stroke-width="1" fill="none" fill-rule="evenodd">
        <g id="3.4-Competitive-Fees" transform="translate(-107.000000, -212.000000)">
            <g id="glassesowl" transform="translate(107.000000, 212.000000)">
                <g id="Group-24">
                    <path d="M0.0651300689,94.0317888 C0.0651300689,145.46856 41.3659143,187.166442 92.3132651,187.166442 C143.260186,187.166442 184.560826,145.46856 184.560826,94.0317888 C184.560826,42.5945861 143.260186,0.896847743 92.3132651,0.896847743 C41.3659143,0.896847743 0.0651300689,42.5945861 0.0651300689,94.0317888 Z" id="Clip-27" fill="#005150"></path>
                    <g id="Group-16" transform="translate(0.000000, 0.044591)">
                        <g id="Group-3">
                            <mask id="mask-2" fill="white">
                                <use xlink:href="#path-1"></use>
                            </mask>
                            <g id="Clip-2"></g>
                        </g>
                        <g id="Group-6" transform="translate(20.514537, 127.442999)">
                            <mask id="mask-4" fill="white">
                                <use xlink:href="#path-3"></use>
                            </mask>
                            <g id="Clip-5"></g>
                            <polygon id="Fill-4" fill="#008181" mask="url(#mask-4)" points="18.2257603 -9.43709656 190.324364 163.120293 100.028553 253.656893 -72.0699072 81.0993594"></polygon>
                        </g>
                        <g id="Group-9" transform="translate(91.526396, 116.511094)">
                            <mask id="mask-6" fill="white">
                                <use xlink:href="#path-5"></use>
                            </mask>
                            <g id="Clip-8"></g>
                            <polygon id="Fill-7" fill="#008181" mask="url(#mask-6)" points="-9.09407995 49.3895994 91.9973986 -9.13133405 124.203357 46.7997448 23.1117349 105.320534"></polygon>
                        </g>
                        <g id="Group-12" transform="translate(35.434200, 47.899005)">
                            <mask id="mask-8" fill="white">
                                <use xlink:href="#path-7"></use>
                            </mask>
                            <g id="Clip-11"></g>
                            <polygon id="Fill-10" fill="#00BCBC" mask="url(#mask-8)" points="-6.57641546 170.491116 137.56733 170.491116 137.56733 -6.67292119 -6.57641546 -6.67292119"></polygon>
                        </g>
                        <g id="Group-15" transform="translate(43.898240, 75.516450)">
                            <mask id="mask-10" fill="white">
                                <use xlink:href="#path-9"></use>
                            </mask>
                            <use id="Clip-14" fill="#E0F7F7" xlink:href="#path-9"></use>
                        </g>
                    </g>
                    <g id="Group-29" transform="translate(0.000000, 0.763795)">
                        <g id="Group-19">
                            <mask id="mask-12" fill="white">
                                <use xlink:href="#path-11"></use>
                            </mask>
                            <g id="Clip-18"></g>
                            <path d="M103.363499,157.270875 C103.363499,157.270875 149.413614,157.702398 149.355282,141.30454 L149.355227,166.466909 C149.355227,166.466909 149.42423,187.475153 103.297078,186.613259 L93.6083349,175.538664 L95.3298345,163.312191 L103.363499,157.270875 Z" id="Fill-17" fill="#E0F7F7" mask="url(#mask-12)"></path>
                        </g>
                        <g id="Group-22">
                            <mask id="mask-14" fill="white">
                                <use xlink:href="#path-13"></use>
                            </mask>
                            <g id="Clip-21"></g>
                            <path d="M93.6083349,154.537899 C65.9208827,168.20278 39.6680136,142.023744 38.9507221,142.455267 C38.9507221,142.455267 39.2376387,152.667968 41.8198881,163.743714 C47.7708254,189.268561 46.3415503,187.475153 92.4687022,186.613259 L102.157445,175.538664 L100.435946,163.312191 C100.435946,163.312191 95.8607737,153.426153 93.6083349,154.537899" id="Fill-20" fill="#E0F7F7" mask="url(#mask-14)"></path>
                        </g>
                        <g id="Group-25" transform="translate(84.927314, 152.902831)" fill="#008181">
                            <polygon id="Fill-23" points="0.107421576 4.41214568 8.73959449 0.0969199694 18.3690895 4.41214568 15.6297533 13.5673285 2.84661438 13.5673285"></polygon>
                        </g>
                        <g id="Group-28" transform="translate(84.927314, 166.423871)" fill="#005150">
                            <polygon id="Fill-26" points="18.3697781 20.1894164 0.108110176 20.1894164 2.84730298 0.0479565417 15.6304419 0.0479565417"></polygon>
                        </g>
                    </g>
                    <g id="Group-32" transform="translate(81.914690, 97.137169)">
                        <mask id="mask-16" fill="white">
                            <use xlink:href="#path-15"></use>
                        </mask>
                        <g id="Clip-31"></g>
                        <polygon id="Fill-30" fill="#FF9445" mask="url(#mask-16)" points="-6.59291316 35.4374966 30.0972647 35.4374966 30.0972647 -6.62991278 -6.59291316 -6.62991278"></polygon>
                    </g>
                    <g id="Group-37" transform="translate(100.564269, 94.116511)" fill="#FFFFFF">
                        <path d="M0.622551645,4.70327957 C0.777630069,4.36741117 1.58042272,3.18115562 5.43041316,2.01546932 C9.77103099,0.700763887 15.5308818,0.126695027 19.9192712,0.126695027 C22.958005,0.126695027 25.3379782,0.402006427 26.1381886,0.896675134 C28.2632364,2.20936679 29.1908378,10.0521457 26.2819338,16.8707777 C23.8062739,22.6783523 10.7244549,23.2616269 7.27973412,22.1241334 C5.61791316,21.5725037 3.38469778,18.7151051 1.85012433,15.1743186 C0.0692329763,11.0679498 -0.411782708,6.95755348 0.622551645,4.70327957" id="Fill-33"></path>
                        <path d="M23.4932192,19.6751565 C26.4019797,12.8565246 25.4745218,5.01360184 23.3493305,3.70105402 C22.5491201,3.20638531 20.1692904,2.93093007 17.1304132,2.93093007 C12.7421672,2.93093007 6.98217292,3.50528661 2.64141163,4.8198482 C1.68354055,5.10983137 0.915177888,5.40125295 0.297733359,5.68044805 C0.381369549,5.32688722 0.48767215,4.9976355 0.622522953,4.70319327 C0.777601377,4.36732487 1.58039403,3.18106932 5.43038447,2.01538301 C9.7710023,0.700533741 15.5308531,0.126464881 19.9192425,0.126464881 C22.9581197,0.126464881 25.3379495,0.401776282 26.1381599,0.896444989 C28.2632077,2.20913665 29.1908091,10.0519155 26.2819051,16.8706914 C25.7414977,18.1385047 24.6777544,19.1443838 23.3369931,19.9506118 C23.3843344,19.856396 23.4517598,19.772393 23.4932192,19.6751565" id="Fill-35"></path>
                    </g>
                    <g id="Group-43" transform="translate(52.792655, 91.383535)">
                        <path d="M32.0263342,17.931791 C30.4919042,21.4727213 28.2586888,24.33012 26.5967244,24.881462 C23.1522906,26.0189555 10.0704715,25.4356808 7.59452467,19.62825 C4.68576415,12.8096181 5.61336553,4.96669533 7.73826989,3.65414751 C8.53862376,3.15962265 10.9184535,2.88402357 13.9573307,2.88402357 C18.3458636,2.88402357 24.105571,3.45838011 28.4463322,4.7729417 C32.2963227,5.938628 33.0991153,7.12488355 33.2540503,7.46075195 C34.2885281,9.7151697 33.8075124,13.825566 32.0263342,17.931791" id="Fill-38" fill="#FFFFFF"></path>
                        <g id="Group-42">
                            <mask id="mask-18" fill="white">
                                <use xlink:href="#path-17"></use>
                            </mask>
                            <g id="Clip-41"></g>
                            <path d="M80.0994262,1.44374507 L75.6384468,1.44374507 C75.5470639,1.37642754 75.4625669,1.29386289 75.3670237,1.23488814 C72.3130834,-0.651440857 59.851865,-0.208986381 52.3738141,2.05506871 C51.6989862,2.25932272 51.0756599,2.47350176 50.502544,2.69803734 C49.1972169,3.21011079 47.861907,3.65544208 46.4748087,3.85825769 C44.7243305,4.11400673 42.8180566,4.25727223 40.8156656,4.25727223 C38.8134181,4.25727223 36.9075746,4.11429441 35.1568095,3.85840153 C33.7694243,3.6558736 32.4339709,3.21025463 31.1285004,2.69818118 C30.5555279,2.47350176 29.9322016,2.25932272 29.2575172,2.05506871 C21.782192,-0.20884254 9.31968248,-0.651153175 6.2655987,1.23431278 C6.1696251,1.29357521 6.08512816,1.3762837 5.99331484,1.44374507 L1.53190513,1.44374507 C0.75708684,1.44374507 0.128882938,2.07362418 0.128882938,2.85050865 L0.128882938,5.9953013 C0.128882938,6.6670381 0.463858072,7.29432808 1.02105011,7.66716358 L2.31877391,8.53452395 C2.72361324,8.80523244 2.94726473,9.25991339 2.93220161,9.74739005 C2.82561209,13.201009 3.49900536,17.1570641 5.01320773,20.7093579 C7.45615914,26.4371008 15.937127,28.1620404 22.0148814,28.1620404 C24.3496653,28.1620404 26.3306809,27.9080174 27.4761955,27.5274145 C30.438466,26.5458445 33.0977525,22.4938476 34.6007651,19.0285775 C35.887873,16.0591269 36.5522284,13.1640419 36.5859411,10.6610672 C36.5923967,10.176755 36.8260903,9.73530742 37.2330815,9.47423627 C38.1997035,8.85514522 39.4430566,8.47741913 40.8155222,8.47741913 C42.1878443,8.47741913 43.4314843,8.85514522 44.3979629,9.47423627 C44.8049541,9.73501974 45.0387911,10.1766112 45.0451033,10.6610672 C45.078816,13.1640419 45.7431714,16.0591269 47.0302793,19.0285775 C48.5331484,22.4938476 51.1925784,26.5458445 54.1547054,27.5274145 C55.30022,27.9080174 57.280088,28.1620404 59.616163,28.1620404 C65.6939174,28.1620404 74.1750287,26.4365255 76.6178366,20.7093579 C78.132039,17.1569203 78.8054323,13.2008652 78.6988428,9.74724621 C78.6837796,9.25976955 78.9075746,8.80494476 79.3124139,8.53438011 L80.6098508,7.66716358 C81.1671863,7.29432808 81.5021614,6.6670381 81.5021614,5.9953013 L81.5021614,2.85050865 C81.5024484,2.07362418 80.874101,1.44374507 80.0994262,1.44374507 M32.0262624,17.9070503 C30.4918324,21.4478369 28.2587605,24.3053793 26.5967961,24.8568652 C23.1522188,25.9943587 10.0705432,25.411084 7.5945964,19.6035094 C4.68569243,12.7848774 5.6132938,4.94195471 7.73834162,3.62926305 C8.53869549,3.13459434 10.9185252,2.85928294 13.957259,2.85928294 C18.3457919,2.85928294 24.1056427,3.43349564 28.4462605,4.74820107 C32.296251,5.91388738 33.0990436,7.09999908 33.2539786,7.43586748 C34.2884564,9.69057292 33.8074407,13.8008254 32.0262624,17.9070503 M74.0367349,19.6036533 C71.561075,25.4126663 58.4791125,25.9930641 55.0345352,24.857009 C53.3725708,24.3053793 51.1394989,21.4478369 49.6050689,17.9071942 C47.8238906,13.8008254 47.3428749,9.69057292 48.3772093,7.43629901 C48.5321442,7.1004306 49.3349369,5.91417506 53.1849273,4.74848875 C60.5301358,2.52384606 71.9363619,2.41855455 73.8941373,3.63041377 C76.017894,4.94209855 76.9456389,12.7850213 74.0367349,19.6036533" id="Fill-40" fill="#008181" mask="url(#mask-18)"></path>
                        </g>
                    </g>
                    <path d="M63.1762529,113.791668 C60.2674923,106.973036 61.1949503,99.1301129 63.3199981,97.8175651 C64.1202085,97.3228964 66.5000383,97.0474412 69.5389155,97.0474412 C73.9273049,97.0474412 79.6872992,97.6217977 84.027917,98.9363593 C84.9859315,99.2263425 85.7542942,99.517764 86.3717387,99.7969591 C86.2879591,99.4433983 86.1816565,99.1141466 86.0468057,98.8197044 C85.8918707,98.483836 85.089078,97.2975804 81.2390876,96.1318941 C76.8984698,94.8170448 71.138619,94.242976 66.7500861,94.242976 C63.7112089,94.242976 61.3315226,94.5182874 60.5313122,95.0129561 C58.4061209,96.3256477 57.478663,104.168427 60.3874235,110.987202 C60.9278309,112.255016 61.9917177,113.260895 63.332479,114.067123 C63.2851377,113.972907 63.2175689,113.888904 63.1762529,113.791668" id="Fill-44" fill="#FFFFFF"></path>
                    <g id="Group-48" transform="translate(107.163351, 100.013986)">
                        <mask id="mask-20" fill="white">
                            <use xlink:href="#path-19"></use>
                        </mask>
                        <g id="Clip-47"></g>
                        <polygon id="Fill-46" fill="#007F7E" mask="url(#mask-20)" points="-5.29346787 13.5872073 20.3098221 13.5872073 20.3098221 -5.25839021 -5.29346787 -5.25839021"></polygon>
                    </g>
                    <g id="Group-51" transform="translate(64.843152, 100.877031)">
                        <mask id="mask-22" fill="white">
                            <use xlink:href="#path-21"></use>
                        </mask>
                        <g id="Clip-50"></g>
                        <polygon id="Fill-49" fill="#007F7E" mask="url(#mask-22)" points="-5.19333397 13.64086 20.409956 13.64086 20.409956 -5.20459373 -5.19333397 -5.20459373"></polygon>
                    </g>
                    <g id="Group-58" transform="translate(34.716909, 93.109625)">
                        <path d="M76.8237137,79.5116872 C76.8237137,79.5116872 101.647882,68.4094745 103.076583,66.6187997 L103.076583,72.8862335 C103.076583,72.8862335 80.9313552,84.3464661 76.8237137,85.0627936 L76.8237137,79.5116872 Z" id="Fill-52" fill="#008181"></path>
                        <path d="M114.451951,6.98787513 C114.451951,6.98787513 124.738772,34.7185224 114.409774,48.9587673" id="Fill-54" fill="#00BCBC"></path>
                        <path d="M4.27106924,0.0582986993 C4.27106924,0.0582986993 -5.09101951,27.0949138 4.23377008,50.109451 C13.5585597,73.1239881 50.2838849,64.9250592 50.2838849,64.9250592 L44.5455528,62.4797647 L16.571184,55.8630852 L7.96368592,50.3971327 L5.09451989,42.9174081 L3.80339518,25.6565053 L4.27106924,0.0582986993 Z" id="Fill-56" fill="#00BCBC"></path>
                    </g>
                </g>
            </g>
        </g>
    </g>
</svg>