<svg xmlns="http://www.w3.org/2000/svg" xmlns:xlink="http://www.w3.org/1999/xlink" width="602" height="314" viewBox="0 0 602 314">
    <defs>
        <filter id="w4vsycolwb">
            <feColorMatrix in="SourceGraphic" values="0 0 0 0 0.129412 0 0 0 0 0.368627 0 0 0 0 0.643137 0 0 0 1.000000 0"/>
        </filter>
        <filter id="j0kh0xwiyd" width="139.3%" height="222.2%" x="-19.6%" y="-61.1%" filterUnits="objectBoundingBox">
            <feOffset dy="6" in="SourceAlpha" result="shadowOffsetOuter1"/>
            <feGaussianBlur in="shadowOffsetOuter1" result="shadowBlurOuter1" stdDeviation="4"/>
            <feColorMatrix in="shadowBlurOuter1" result="shadowMatrixOuter1" values="0 0 0 0 0.828464674 0 0 0 0 0.828464674 0 0 0 0 0.828464674 0 0 0 0.5 0"/>
            <feMerge>
                <feMergeNode in="shadowMatrixOuter1"/>
                <feMergeNode in="SourceGraphic"/>
            </feMerge>
        </filter>
        <path id="hw29u2fbja" d="M600 70.8v152.4H50v-36.6c108.906-16.146 196.259-31.146 262.059-45 65.8-13.854 161.78-37.454 287.941-70.8z"/>
    </defs>
    <g fill="none" fill-rule="evenodd">
        <g>
            <g>
                <g>
                    <g>
                        <g>
                            <g transform="translate(-211 -1303) translate(122 649) translate(0 50) translate(20 30) translate(0 518) translate(70 70)">
                                <path fill="#FFF" d="M0 0H600V300H0z"/>
                                <path fill="#FFF" d="M0 0H600V300H0z"/>
                                <g fill-rule="nonzero" stroke="#E7E7E7" stroke-linecap="square">
                                    <path d="M600 31.5L0 31.5M600 62.5L0 62.5M600 .5L0 .5M600 155.5L0 155.5M600 124.5L0 124.5M600 93.5L0 93.5" transform="translate(0 37.2)"/>
                                </g>
                                <path fill="#5E5E5E" fill-rule="nonzero" d="M528.38 246.663c1.005 0 1.804-.234 2.398-.702.593-.468.89-1.105.89-1.91 0-.573-.145-1.054-.435-1.444-.29-.39-.709-.659-1.255-.806.46-.173.817-.448 1.073-.825.255-.377.388-.822.396-1.333 0-.745-.27-1.341-.812-1.787-.542-.447-1.268-.67-2.178-.67-.598 0-1.18.098-1.748.293-.568.195-1.038.457-1.41.786l.558 1.222c.832-.641 1.664-.962 2.496-.962.468 0 .832.113 1.092.338.26.225.39.55.39.975 0 .91-.598 1.365-1.794 1.365h-1v1.34h1.221c.616 0 1.07.11 1.365.33.295.222.442.566.442 1.034 0 .477-.145.832-.435 1.066-.29.234-.73.351-1.32.351-.901 0-1.763-.32-2.587-.962l-.572 1.222c.373.338.847.602 1.424.793.576.19 1.176.286 1.8.286zm7.725.013c1.1 0 1.939-.407 2.515-1.222.576-.815.865-1.993.865-3.536 0-1.534-.289-2.702-.865-3.503-.576-.802-1.415-1.203-2.515-1.203-1.101 0-1.94.403-2.516 1.21-.576.805-.864 1.97-.864 3.496 0 1.551.288 2.732.864 3.543.576.81 1.415 1.215 2.516 1.215zm0-1.313c-.598 0-1.034-.275-1.307-.825-.273-.55-.41-1.424-.41-2.62 0-1.179.137-2.039.41-2.58.273-.542.709-.813 1.307-.813s1.033.27 1.306.813c.273.541.41 1.401.41 2.58 0 1.196-.137 2.07-.41 2.62-.273.55-.708.825-1.306.825zm7.702 4.16c.789-.121 1.452-.368 1.989-.74.537-.374.98-.967 1.326-1.782l3.055-7.007h-1.612l-1.924 4.72-1.885-4.72h-1.703l2.73 6.331-.208.481c-.19.416-.44.73-.747.943-.308.212-.77.387-1.385.526l.364 1.248zm9.948-2.86c.468 0 .93-.076 1.385-.227.455-.152.838-.354 1.15-.605l-.468-1.118c-.615.468-1.282.702-2.002.702-.624 0-1.094-.167-1.41-.5-.317-.334-.492-.852-.527-1.554h4.524v-.247c0-1.023-.262-1.826-.786-2.411-.525-.585-1.237-.878-2.139-.878-.615 0-1.165.145-1.65.436-.486.29-.863.695-1.132 1.215-.268.52-.403 1.114-.403 1.781 0 1.057.308 1.89.923 2.496.616.607 1.46.91 2.535.91zm1.235-4.173h-3.055c.078-.485.254-.856.527-1.111.273-.256.626-.384 1.06-.384.433 0 .773.126 1.02.377s.396.624.448 1.118zm5.1 4.173c.476 0 .9-.102 1.274-.305.372-.204.658-.488.858-.852v1.053h1.599v-6.565h-1.6v.988c-.199-.364-.485-.648-.857-.851-.373-.204-.798-.306-1.274-.306-.564 0-1.066.145-1.508.436-.442.29-.787.697-1.034 1.222-.247.524-.37 1.124-.37 1.8 0 .676.12 1.27.364 1.781.242.511.585.906 1.027 1.183.442.277.949.416 1.52.416zm.442-1.274c-.546 0-.969-.182-1.268-.546-.299-.364-.448-.884-.448-1.56 0-.685.149-1.22.448-1.605.299-.386.717-.579 1.255-.579.546 0 .966.186 1.26.56.295.372.443.905.443 1.598 0 .676-.148 1.2-.442 1.573-.295.373-.711.56-1.248.56zm6.425 1.17v-3.549c0-.529.145-.953.435-1.274.29-.32.713-.48 1.268-.48.294 0 .58.055.858.168l.013-1.482c-.182-.07-.399-.104-.65-.104-.45 0-.854.113-1.21.338-.355.225-.615.55-.78.975l-.13-1.157h-1.52c.07.546.104 1.166.104 1.86v4.705h1.612zm5.58.104c.84 0 1.504-.178 1.989-.533.485-.355.728-.836.728-1.443 0-.494-.15-.895-.448-1.202-.3-.308-.774-.536-1.424-.683l-1.118-.247c-.303-.078-.518-.173-.643-.286-.126-.113-.189-.264-.189-.455 0-.243.104-.433.312-.572.208-.139.498-.208.871-.208.693 0 1.37.243 2.028.728l.481-1.105c-.33-.269-.71-.474-1.144-.617-.433-.143-.884-.215-1.352-.215-.537 0-1.01.087-1.417.26-.407.173-.724.414-.949.722-.225.307-.338.66-.338 1.06 0 .961.598 1.572 1.794 1.832l1.092.247c.355.087.607.189.754.306.147.117.221.275.221.474 0 .234-.106.416-.318.546-.213.13-.514.195-.904.195-.901 0-1.703-.26-2.405-.78l-.455 1.144c.702.555 1.647.832 2.834.832zM114.365 246.284v-7.45l5.59 7.45h.832v-9.256h-1.014v7.448l-5.59-7.448h-.819v9.256h1.001zm11.027.09c.616 0 1.157-.138 1.625-.416.468-.277.83-.671 1.086-1.183.256-.51.383-1.109.383-1.793 0-.685-.127-1.283-.383-1.794-.256-.512-.618-.906-1.086-1.183-.468-.278-1.01-.416-1.625-.416s-1.157.138-1.625.416c-.468.277-.83.671-1.085 1.183-.256.51-.384 1.109-.384 1.794 0 .684.128 1.282.384 1.793.256.512.617.906 1.085 1.183.468.278 1.01.417 1.625.417zm0-.87c-.65 0-1.15-.215-1.501-.644-.351-.429-.527-1.055-.527-1.879 0-.797.178-1.414.533-1.852.356-.438.854-.656 1.495-.656.633 0 1.127.218 1.482.656.356.438.533 1.055.533 1.853 0 .823-.173 1.449-.52 1.878-.346.429-.845.643-1.495.643zm7.18.78l1.859-5.11 1.872 5.11h1.014l2.418-6.54h-1.04l-1.885 5.292-1.885-5.292h-.923l-1.911 5.279-1.846-5.279h-1.105l2.418 6.54h1.014z"/>
                                <g transform="translate(10 274)">
                                    <path fill="#9B9B9B" fill-rule="nonzero" d="M25.21 13V8.931h2.626c.945 0 1.686-.232 2.223-.695.537-.464.806-1.099.806-1.905s-.266-1.439-.8-1.898c-.533-.46-1.276-.689-2.229-.689h-3.692V13h1.066zm2.535-4.953H25.21V4.628h2.535c.685 0 1.2.145 1.547.436.347.29.52.712.52 1.267 0 .555-.173.98-.52 1.274-.347.295-.862.442-1.547.442zm6.984 5.044c.616 0 1.157-.139 1.625-.416.468-.277.83-.672 1.086-1.183.255-.511.383-1.11.383-1.794 0-.685-.128-1.283-.383-1.794-.256-.511-.618-.906-1.086-1.183-.468-.277-1.01-.416-1.625-.416s-1.157.139-1.625.416c-.468.277-.83.672-1.085 1.183-.256.511-.384 1.11-.384 1.794 0 .685.128 1.283.384 1.794.255.511.617.906 1.085 1.183.468.277 1.01.416 1.625.416zm0-.871c-.65 0-1.15-.215-1.501-.644-.351-.428-.527-1.055-.527-1.878 0-.797.178-1.415.533-1.853.356-.437.854-.656 1.495-.656.633 0 1.127.219 1.482.657.356.437.533 1.055.533 1.852 0 .823-.173 1.45-.52 1.878-.346.43-.845.644-1.495.644zm5.541.78V9.269c0-.563.154-1.042.462-1.437.308-.394.778-.591 1.41-.591.26 0 .49.035.69.104l.026-.962c-.182-.052-.382-.078-.598-.078-.468 0-.884.117-1.248.351-.364.234-.629.572-.794 1.014l-.104-1.209h-1c.069.546.104 1.157.104 1.833V13h1.052zm6.257.091c.338 0 .641-.043.91-.13v-.897c-.226.078-.46.117-.702.117-.364 0-.646-.097-.845-.292-.2-.195-.3-.536-.3-1.021V7.293h1.873v-.832H45.59V4.407l-1.053.377v1.677h-1.274v.832h1.274v3.718c0 .685.175 1.203.526 1.554.351.35.839.526 1.463.526zM50.04 13V7.293h1.599v-.832H50.04V5.59c0-.477.098-.813.293-1.008.195-.194.465-.292.812-.292.208 0 .433.035.676.104v-.897c-.286-.078-.58-.117-.884-.117-.615 0-1.094.175-1.436.526-.343.352-.514.87-.514 1.554v1.001h-1.274v.832h1.274V13h1.053zm5.372.091c.616 0 1.157-.139 1.625-.416.468-.277.83-.672 1.086-1.183.255-.511.383-1.11.383-1.794 0-.685-.128-1.283-.383-1.794-.256-.511-.618-.906-1.086-1.183-.468-.277-1.01-.416-1.625-.416s-1.157.139-1.625.416c-.468.277-.83.672-1.085 1.183-.256.511-.384 1.11-.384 1.794 0 .685.128 1.283.384 1.794.255.511.617.906 1.085 1.183.468.277 1.01.416 1.625.416zm0-.871c-.65 0-1.15-.215-1.501-.644-.351-.428-.527-1.055-.527-1.878 0-.797.178-1.415.533-1.853.356-.437.854-.656 1.495-.656.633 0 1.127.219 1.482.657.356.437.533 1.055.533 1.852 0 .823-.173 1.45-.52 1.878-.346.43-.845.644-1.495.644zm5.541.78V3.432H59.9V13h1.053zm2.98-8.112V3.692h-1.286v1.196h1.287zM63.804 13V6.461h-1.052V13h1.053zm4.502.091c.615 0 1.157-.139 1.625-.416.468-.277.83-.672 1.085-1.183.256-.511.384-1.11.384-1.794 0-.685-.128-1.283-.383-1.794-.256-.511-.618-.906-1.086-1.183-.468-.277-1.01-.416-1.625-.416s-1.157.139-1.625.416c-.468.277-.83.672-1.086 1.183-.255.511-.383 1.11-.383 1.794 0 .685.128 1.283.383 1.794.256.511.618.906 1.086 1.183.468.277 1.01.416 1.625.416zm0-.871c-.65 0-1.15-.215-1.502-.644-.35-.428-.526-1.055-.526-1.878 0-.797.178-1.415.533-1.853.355-.437.854-.656 1.495-.656.633 0 1.127.219 1.482.657.355.437.533 1.055.533 1.852 0 .823-.173 1.45-.52 1.878-.347.43-.845.644-1.495.644zm11.628.78l4.043-9.256h-1.105l-3.392 7.904-3.394-7.904h-1.13L78.998 13h.935zm6.595.091c.511 0 .96-.11 1.345-.332.386-.22.674-.535.865-.942V13h1.04V6.461h-1.04v1.131c-.2-.407-.49-.724-.871-.949-.382-.225-.828-.338-1.34-.338-.571 0-1.076.143-1.514.429-.437.286-.778.687-1.02 1.202-.243.516-.364 1.112-.364 1.788 0 .676.119 1.268.357 1.774.239.508.577.9 1.014 1.177.438.277.947.416 1.528.416zm.208-.871c-.65 0-1.153-.217-1.508-.65-.356-.433-.533-1.049-.533-1.846 0-.797.18-1.42.54-1.865.359-.447.86-.67 1.5-.67.642 0 1.136.217 1.483.65.346.433.52 1.053.52 1.859s-.174 1.428-.52 1.865c-.347.438-.84.657-1.482.657zm5.892.78V3.432h-1.053V13h1.053zm4.111.091c.468 0 .889-.104 1.261-.312.373-.208.663-.511.871-.91V13h1.027V6.461h-1.053v3.692c0 .615-.177 1.111-.533 1.489-.355.377-.823.565-1.404.565-.494 0-.862-.139-1.105-.416-.242-.277-.364-.71-.364-1.3v-4.03h-1.053v4.056c0 .85.2 1.49.598 1.924.399.433.984.65 1.755.65zm7.83 0c.468 0 .925-.078 1.371-.234.446-.156.813-.368 1.099-.637l-.352-.767c-.64.511-1.343.767-2.105.767-.72 0-1.268-.212-1.645-.637-.377-.425-.57-1.053-.578-1.885h4.797v-.195c0-.997-.248-1.779-.742-2.346-.493-.568-1.174-.852-2.04-.852-.599 0-1.131.143-1.6.429-.468.286-.832.687-1.091 1.202-.26.516-.39 1.108-.39 1.775 0 1.049.29 1.874.87 2.476.581.603 1.383.904 2.406.904zm1.638-4.082h-3.81c.096-.598.315-1.062.657-1.391.342-.33.787-.494 1.332-.494.547 0 .973.16 1.281.481.308.32.487.789.54 1.404z"/>
                                    <rect width="15" height="3" y="8" fill="#193896" rx="1"/>
                                </g>
                                <mask id="qtn3c1gomc" fill="#fff">
                                    <use xlink:href="#hw29u2fbja"/>
                                </mask>
                                <g filter="url(#w4vsycolwb)">
                                    <g mask="url(#qtn3c1gomc)">
                                        <g fill="#5E5E5E" fill-rule="nonzero">
                                            <path d="M551 0L551 223.2 531.629 223.2 531.629 0zM523.02 0L523.02 223.2 503.648 223.2 503.648 0zM495.039 0L495.039 223.2 475.668 223.2 475.668 0zM467.059 0L467.059 223.2 447.688 223.2 447.688 0zM439.078 0L439.078 223.2 419.707 223.2 419.707 0zM411.098 0L411.098 223.2 391.727 223.2 391.727 0zM383.117 0L383.117 223.2 363.746 223.2 363.746 0zM355.137 0L355.137 223.2 335.766 223.2 335.766 0zM327.156 0L327.156 223.2 307.785 223.2 307.785 0zM299.176 0L299.176 223.2 279.805 223.2 279.805 0zM271.195 0L271.195 223.2 251.824 223.2 251.824 0zM243.215 0L243.215 223.2 223.844 223.2 223.844 0zM215.234 0L215.234 223.2 195.863 223.2 195.863 0zM187.254 0L187.254 223.2 167.883 223.2 167.883 0zM159.273 0L159.273 223.2 139.902 223.2 139.902 0zM131.293 0L131.293 223.2 111.922 223.2 111.922 0zM103.313 0L103.313 223.2 83.941 223.2 83.941 0zM75.332 0L75.332 223.2 55.961 223.2 55.961 0zM47.352 0L47.352 223.2 27.98 223.2 27.98 0zM19.371 0L19.371 223.2 0 223.2 0 0z" transform="translate(50 1.2)"/>
                                        </g>
                                    </g>
                                </g>
                                <g filter="url(#j0kh0xwiyd)" transform="translate(435 7)">
                                    <path fill="#FFF" stroke="#E7E7E7" d="M2 0h136c1.105 0 2 .895 2 2v41c0 1.105-.895 2-2 2H2c-1.105 0-2-.895-2-2V2C0 .895.895 0 2 0z"/>
                                    <path fill="#5E5E5E" fill-rule="nonzero" d="M12.04 18v-3.756h2.424c.872 0 1.556-.214 2.052-.642.496-.428.744-1.014.744-1.758s-.246-1.328-.738-1.752c-.492-.424-1.178-.636-2.058-.636h-3.408V18h.984zm2.34-4.572h-2.34v-3.156h2.34c.632 0 1.108.134 1.428.402.32.268.48.658.48 1.17 0 .512-.16.904-.48 1.176-.32.272-.796.408-1.428.408zM19.375 18v-3.444c0-.52.142-.962.426-1.326.284-.364.718-.546 1.302-.546.24 0 .452.032.636.096l.024-.888c-.168-.048-.352-.072-.552-.072-.432 0-.816.108-1.152.324-.336.216-.58.528-.732.936l-.096-1.116h-.924c.064.504.096 1.068.096 1.692V18h.972zm5.523.084c.568 0 1.068-.128 1.5-.384.432-.256.766-.62 1.002-1.092.236-.472.354-1.024.354-1.656 0-.632-.118-1.184-.354-1.656s-.57-.836-1.002-1.092c-.432-.256-.932-.384-1.5-.384s-1.068.128-1.5.384c-.432.256-.766.62-1.002 1.092-.236.472-.354 1.024-.354 1.656 0 .632.118 1.184.354 1.656s.57.836 1.002 1.092c.432.256.932.384 1.5.384zm0-.804c-.6 0-1.062-.198-1.386-.594-.324-.396-.486-.974-.486-1.734 0-.736.164-1.306.492-1.71.328-.404.788-.606 1.38-.606.584 0 1.04.202 1.368.606.328.404.492.974.492 1.71 0 .76-.16 1.338-.48 1.734-.32.396-.78.594-1.38.594zm5.223-6.768V9.408h-1.188v1.104h1.188zM28.237 20.64c.552 0 .986-.162 1.302-.486.316-.324.474-.802.474-1.434v-6.756h-.972V18.6c0 .8-.336 1.2-1.008 1.2-.176 0-.372-.032-.588-.096v.828c.264.072.528.108.792.108zm6.099-2.556c.432 0 .854-.072 1.266-.216.412-.144.75-.34 1.014-.588l-.324-.708c-.592.472-1.24.708-1.944.708-.664 0-1.17-.196-1.518-.588-.348-.392-.526-.972-.534-1.74h4.428v-.18c0-.92-.228-1.642-.684-2.166-.456-.524-1.084-.786-1.884-.786-.552 0-1.044.132-1.476.396-.432.264-.768.634-1.008 1.11-.24.476-.36 1.022-.36 1.638 0 .968.268 1.73.804 2.286s1.276.834 2.22.834zm1.512-3.768h-3.516c.088-.552.29-.98.606-1.284.316-.304.726-.456 1.23-.456s.898.148 1.182.444c.284.296.45.728.498 1.296zm4.659 3.768c.416 0 .818-.07 1.206-.21.388-.14.71-.33.966-.57l-.324-.72c-.304.24-.598.416-.882.528-.284.112-.574.168-.87.168-.624 0-1.11-.202-1.458-.606-.348-.404-.522-.97-.522-1.698 0-.736.176-1.31.528-1.722.352-.412.836-.618 1.452-.618.296 0 .586.056.87.168.284.112.578.288.882.528l.324-.72c-.248-.248-.562-.442-.942-.582-.38-.14-.774-.21-1.182-.21-.592 0-1.11.132-1.554.396-.444.264-.786.634-1.026 1.11-.24.476-.36 1.026-.36 1.65 0 .624.118 1.17.354 1.638.236.468.572.83 1.008 1.086.436.256.946.384 1.53.384zm5.355 0c.312 0 .592-.04.84-.12v-.828c-.208.072-.424.108-.648.108-.336 0-.596-.09-.78-.27-.184-.18-.276-.494-.276-.942v-3.3h1.728v-.768h-1.728v-1.896l-.972.348v1.548H42.85v.768h1.176v3.432c0 .632.162 1.11.486 1.434.324.324.774.486 1.35.486zm4.479 0c.432 0 .854-.072 1.266-.216.412-.144.75-.34 1.014-.588l-.324-.708c-.592.472-1.24.708-1.944.708-.664 0-1.17-.196-1.518-.588-.348-.392-.526-.972-.534-1.74h4.428v-.18c0-.92-.228-1.642-.684-2.166-.456-.524-1.084-.786-1.884-.786-.552 0-1.044.132-1.476.396-.432.264-.768.634-1.008 1.11-.24.476-.36 1.022-.36 1.638 0 .968.268 1.73.804 2.286s1.276.834 2.22.834zm1.512-3.768h-3.516c.088-.552.29-.98.606-1.284.316-.304.726-.456 1.23-.456s.898.148 1.182.444c.284.296.45.728.498 1.296zm4.443 3.768c.472 0 .886-.102 1.242-.306.356-.204.622-.494.798-.87V18h.96V9.168h-.972v3.816c-.176-.368-.44-.654-.792-.858-.352-.204-.764-.306-1.236-.306-.528 0-.996.128-1.404.384-.408.256-.722.618-.942 1.086-.22.468-.33 1.014-.33 1.638 0 .624.112 1.174.336 1.65.224.476.538.846.942 1.11.404.264.87.396 1.398.396zm.192-.804c-.592 0-1.054-.206-1.386-.618-.332-.412-.498-.99-.498-1.734 0-.728.166-1.292.498-1.692.332-.4.794-.6 1.386-.6.592 0 1.048.202 1.368.606.32.404.48.974.48 1.71 0 .744-.16 1.318-.48 1.722-.32.404-.776.606-1.368.606zm10.554.72v-7.704h2.976v-.84H63.07v.84h2.976V18h.996zm5.403.084c.568 0 1.068-.128 1.5-.384.432-.256.766-.62 1.002-1.092.236-.472.354-1.024.354-1.656 0-.632-.118-1.184-.354-1.656s-.57-.836-1.002-1.092c-.432-.256-.932-.384-1.5-.384s-1.068.128-1.5.384c-.432.256-.766.62-1.002 1.092-.236.472-.354 1.024-.354 1.656 0 .632.118 1.184.354 1.656s.57.836 1.002 1.092c.432.256.932.384 1.5.384zm0-.804c-.6 0-1.062-.198-1.386-.594-.324-.396-.486-.974-.486-1.734 0-.736.164-1.306.492-1.71.328-.404.788-.606 1.38-.606.584 0 1.04.202 1.368.606.328.404.492.974.492 1.71 0 .76-.16 1.338-.48 1.734-.32.396-.78.594-1.38.594zm6.291.804c.312 0 .592-.04.84-.12v-.828c-.208.072-.424.108-.648.108-.336 0-.596-.09-.78-.27-.184-.18-.276-.494-.276-.942v-3.3H79.6v-.768h-1.728v-1.896l-.972.348v1.548h-1.176v.768H76.9v3.432c0 .632.162 1.11.486 1.434.324.324.774.486 1.35.486zm4.131 0c.472 0 .886-.102 1.242-.306.356-.204.622-.494.798-.87V18h.96v-6.036h-.96v1.044c-.184-.376-.452-.668-.804-.876-.352-.208-.764-.312-1.236-.312-.528 0-.994.132-1.398.396-.404.264-.718.634-.942 1.11-.224.476-.336 1.026-.336 1.65 0 .624.11 1.17.33 1.638.22.468.532.83.936 1.086.404.256.874.384 1.41.384zm.192-.804c-.6 0-1.064-.2-1.392-.6-.328-.4-.492-.968-.492-1.704s.166-1.31.498-1.722c.332-.412.794-.618 1.386-.618.592 0 1.048.2 1.368.6.32.4.48.972.48 1.716s-.16 1.318-.48 1.722c-.32.404-.776.606-1.368.606zm5.439.72V9.168h-.972V18h.972zm8.25 0l3.732-8.544h-1.02l-3.132 7.296-3.132-7.296h-1.044L95.884 18h.864zm6.087.084c.472 0 .886-.102 1.242-.306.356-.204.622-.494.798-.87V18h.96v-6.036h-.96v1.044c-.184-.376-.452-.668-.804-.876-.352-.208-.764-.312-1.236-.312-.528 0-.994.132-1.398.396-.404.264-.718.634-.942 1.11-.224.476-.336 1.026-.336 1.65 0 .624.11 1.17.33 1.638.22.468.532.83.936 1.086.404.256.874.384 1.41.384zm.192-.804c-.6 0-1.064-.2-1.392-.6-.328-.4-.492-.968-.492-1.704s.166-1.31.498-1.722c.332-.412.794-.618 1.386-.618.592 0 1.048.2 1.368.6.32.4.48.972.48 1.716s-.16 1.318-.48 1.722c-.32.404-.776.606-1.368.606zm5.439.72V9.168h-.972V18h.972zm3.795.084c.432 0 .82-.096 1.164-.288.344-.192.612-.472.804-.84V18h.948v-6.036h-.972v3.408c0 .568-.164 1.026-.492 1.374-.328.348-.76.522-1.296.522-.456 0-.796-.128-1.02-.384-.224-.256-.336-.656-.336-1.2v-3.72h-.972v3.744c0 .784.184 1.376.552 1.776.368.4.908.6 1.62.6zm7.227 0c.432 0 .854-.072 1.266-.216.412-.144.75-.34 1.014-.588l-.324-.708c-.592.472-1.24.708-1.944.708-.664 0-1.17-.196-1.518-.588-.348-.392-.526-.972-.534-1.74h4.428v-.18c0-.92-.228-1.642-.684-2.166-.456-.524-1.084-.786-1.884-.786-.552 0-1.044.132-1.476.396-.432.264-.768.634-1.008 1.11-.24.476-.36 1.022-.36 1.638 0 .968.268 1.73.804 2.286s1.276.834 2.22.834zM121 14.316h-3.516c.088-.552.29-.98.606-1.284.316-.304.726-.456 1.23-.456s.898.148 1.182.444c.284.296.45.728.498 1.296z"/>
                                    <path fill="#000" fill-rule="nonzero" d="M15.752 38.856V37.08c1.003-.128 1.808-.483 2.416-1.064.608-.581.912-1.304.912-2.168 0-.65-.157-1.173-.472-1.568-.315-.395-.704-.696-1.168-.904-.464-.208-1.048-.397-1.752-.568v-3.936c.97.117 1.85.528 2.64 1.232l.592-1.232c-.384-.363-.85-.661-1.4-.896-.55-.235-1.139-.39-1.768-.464v-1.76h-1.344v1.76c-.672.075-1.27.264-1.792.568-.523.304-.93.693-1.224 1.168-.293.475-.44 1-.44 1.576 0 .683.163 1.235.488 1.656.325.421.73.739 1.216.952.485.213 1.096.416 1.832.608v3.728c-.587-.043-1.13-.165-1.632-.368-.501-.203-1.003-.507-1.504-.912l-.592 1.232c.939.832 2.155 1.296 3.648 1.392v1.744h1.344zm-1.264-8.368c-.597-.17-1.059-.387-1.384-.648-.325-.261-.488-.627-.488-1.096 0-.512.165-.933.496-1.264.33-.33.79-.539 1.376-.624v3.632zm1.2 5.232v-3.376c.565.17.995.373 1.288.608.293.235.44.55.44.944 0 .49-.15.893-.448 1.208-.299.315-.725.52-1.28.616zM27.016 37v-2.368h1.68v-1.328h-1.68v-7.696h-1.328L20.28 33.4v1.232h5.104V37h1.632zm-1.632-3.696h-3.488l3.488-5.024v5.024zm8.416 3.824c1.323 0 2.33-.496 3.024-1.488.693-.992 1.04-2.443 1.04-4.352 0-1.899-.347-3.341-1.04-4.328-.693-.987-1.701-1.48-3.024-1.48s-2.33.496-3.024 1.488c-.693.992-1.04 2.437-1.04 4.336 0 1.899.347 3.344 1.04 4.336.693.992 1.701 1.488 3.024 1.488zm0-1.328c-.821 0-1.427-.365-1.816-1.096-.39-.73-.584-1.87-.584-3.416 0-1.536.195-2.664.584-3.384.39-.72.995-1.08 1.816-1.08.832 0 1.44.357 1.824 1.072.384.715.576 1.845.576 3.392s-.195 2.685-.584 3.416c-.39.73-.995 1.096-1.816 1.096zm9.536 1.312c.81 0 1.52-.155 2.128-.464.608-.31 1.075-.741 1.4-1.296.325-.555.488-1.2.488-1.936 0-.715-.147-1.347-.44-1.896-.293-.55-.71-.976-1.248-1.28-.539-.304-1.165-.456-1.88-.456-.896 0-1.648.256-2.256.768v-3.616h5.344v-1.328h-6.976v6.688h1.072c.619-.779 1.44-1.168 2.464-1.168.704 0 1.267.213 1.688.64.421.427.632.987.632 1.68 0 .725-.21 1.293-.632 1.704-.421.41-1.01.616-1.768.616-1.088 0-2.16-.416-3.216-1.248l-.576 1.216c.448.427 1.013.763 1.696 1.008s1.376.368 2.08.368zm6.304 1.872c.405-.405.693-.813.864-1.224.17-.41.256-.867.256-1.368V35.08h-1.92V37h.88c-.064.459-.32.933-.768 1.424l.688.56zM60.28 37v-1.36h-5.376l3.04-3.28c.672-.725 1.152-1.384 1.44-1.976.288-.592.432-1.219.432-1.88 0-.928-.317-1.664-.952-2.208-.635-.544-1.496-.816-2.584-.816-.704 0-1.403.125-2.096.376-.693.25-1.264.584-1.712 1l.592 1.216c1.056-.832 2.112-1.248 3.168-1.248.63 0 1.11.152 1.44.456.33.304.496.744.496 1.32 0 .448-.115.899-.344 1.352-.23.453-.595.957-1.096 1.512l-3.92 4.304V37h7.472zm5.36.112c1.195 0 2.141-.285 2.84-.856.699-.57 1.048-1.352 1.048-2.344 0-.715-.176-1.307-.528-1.776-.352-.47-.859-.8-1.52-.992.565-.213 1.003-.56 1.312-1.04.31-.48.464-1.045.464-1.696 0-.896-.317-1.608-.952-2.136s-1.485-.792-2.552-.792c-.736 0-1.448.123-2.136.368-.688.245-1.256.581-1.704 1.008l.592 1.216c1.045-.832 2.101-1.248 3.168-1.248.63 0 1.117.155 1.464.464.347.31.52.752.52 1.328 0 .63-.208 1.11-.624 1.44-.416.33-1.019.496-1.808.496h-1.136v1.344h1.392c.821 0 1.435.157 1.84.472.405.315.608.792.608 1.432 0 1.312-.779 1.968-2.336 1.968-1.141 0-2.224-.416-3.248-1.248l-.592 1.216c.459.437 1.032.776 1.72 1.016s1.41.36 2.168.36zM79.032 37v-1.36h-2.496V25.608h-.96l-3.024 1.888v1.52l2.32-1.44v8.064h-2.496V37h6.656z"/>
                                </g>
                                <g fill="#1F57A1" fill-opacity=".7">
                                    <path d="M9.836 15.315c3.333-2.687 5-5.095 5-7.222 0-3.19-2.239-5.778-5-5.778s-5 2.587-5 5.778c0 2.127 1.667 4.535 5 7.222z" transform="translate(580.328 49.2)"/>
                                </g>
                                <path fill="#9B9B9B" fill-rule="nonzero" d="M4.2 33.027v-1.54c.877-.102 1.582-.406 2.114-.91.532-.504.798-1.13.798-1.876 0-.55-.135-.996-.406-1.337-.27-.34-.609-.6-1.015-.777-.406-.177-.917-.34-1.533-.49v-3.766c.924.103 1.727.48 2.408 1.134L7 22.583c-.345-.345-.763-.625-1.253-.84-.49-.214-1.006-.345-1.547-.392v-1.54h-.98v1.526c-.597.056-1.125.213-1.582.47-.457.256-.814.59-1.071 1-.257.41-.385.873-.385 1.386 0 .588.142 1.062.427 1.421.285.36.637.633 1.057.82.42.186.952.363 1.596.531v3.556c-.532-.028-1.024-.135-1.477-.322-.453-.186-.903-.471-1.351-.854L0 30.227c.41.383.889.682 1.435.896.546.215 1.141.34 1.785.378v1.526h.98zm-.938-7.154c-.616-.168-1.087-.378-1.414-.63-.327-.252-.49-.616-.49-1.092 0-.513.168-.93.504-1.253.336-.322.803-.51 1.4-.567v3.542zm.896 4.62V27.19c.579.159 1.022.353 1.33.581.308.229.462.549.462.96 0 .494-.156.893-.469 1.196-.313.304-.754.493-1.323.567zm7.835 1.008c.681 0 1.276-.133 1.785-.399.508-.266.9-.641 1.176-1.127.275-.485.413-1.04.413-1.666 0-.625-.126-1.176-.378-1.652s-.614-.847-1.085-1.113c-.472-.266-1.02-.399-1.645-.399-.859 0-1.564.266-2.114.798v-3.556h4.83v-.952H8.997v5.838h.798c.57-.774 1.33-1.162 2.282-1.162.653 0 1.176.203 1.568.61.392.405.588.94.588 1.602 0 .682-.199 1.22-.595 1.617-.397.397-.945.595-1.645.595-.97 0-1.918-.382-2.842-1.148l-.434.882c.401.383.896.684 1.484.903.588.22 1.185.33 1.792.33zm8.115.014c1.138 0 2.004-.434 2.596-1.302.593-.868.89-2.137.89-3.808 0-1.661-.297-2.923-.89-3.787-.592-.863-1.458-1.295-2.596-1.295-1.14 0-2.005.432-2.598 1.295-.592.864-.889 2.13-.889 3.801 0 1.67.297 2.938.89 3.801.592.864 1.458 1.295 2.597 1.295zm0-.966c-.794 0-1.38-.338-1.758-1.015-.378-.676-.567-1.72-.567-3.129 0-1.41.19-2.445.567-3.108.378-.662.964-.994 1.758-.994.802 0 1.39.332 1.764.994.373.663.56 1.699.56 3.108 0 1.419-.19 2.464-.567 3.136-.378.672-.964 1.008-1.757 1.008zm8.268.966c1.139 0 2.005-.434 2.597-1.302.593-.868.89-2.137.89-3.808 0-1.661-.297-2.923-.89-3.787-.592-.863-1.458-1.295-2.597-1.295-1.138 0-2.004.432-2.597 1.295-.592.864-.889 2.13-.889 3.801 0 1.67.297 2.938.89 3.801.592.864 1.458 1.295 2.596 1.295zm0-.966c-.793 0-1.379-.338-1.757-1.015-.378-.676-.567-1.72-.567-3.129 0-1.41.19-2.445.567-3.108.378-.662.964-.994 1.757-.994.803 0 1.39.332 1.764.994.374.663.56 1.699.56 3.108 0 1.419-.189 2.464-.567 3.136-.378.672-.963 1.008-1.757 1.008zm6.295.854v-3.388l3.612 3.388h1.484l-3.864-3.654 3.528-3.374h-1.442l-3.318 3.22V21.1h-1.134v10.304h1.134zM4.2 72.627v-1.54c.877-.102 1.582-.406 2.114-.91.532-.504.798-1.13.798-1.876 0-.55-.135-.996-.406-1.337-.27-.34-.609-.6-1.015-.777-.406-.177-.917-.34-1.533-.49v-3.766c.924.103 1.727.48 2.408 1.134L7 62.183c-.345-.345-.763-.625-1.253-.84-.49-.214-1.006-.345-1.547-.392v-1.54h-.98v1.526c-.597.056-1.125.213-1.582.47-.457.256-.814.59-1.071 1-.257.41-.385.873-.385 1.386 0 .588.142 1.062.427 1.421.285.36.637.633 1.057.82.42.186.952.363 1.596.531v3.556c-.532-.028-1.024-.135-1.477-.322-.453-.186-.903-.471-1.351-.854L0 69.827c.41.383.889.682 1.435.896.546.215 1.141.34 1.785.378v1.526h.98zm-.938-7.154c-.616-.168-1.087-.378-1.414-.63-.327-.252-.49-.616-.49-1.092 0-.513.168-.93.504-1.253.336-.322.803-.51 1.4-.567v3.542zm.896 4.62V66.79c.579.159 1.022.353 1.33.581.308.229.462.549.462.96 0 .494-.156.893-.469 1.196-.313.304-.754.493-1.323.567zm9.907.91v-2.17h1.512v-.952h-1.512v-6.846h-.938l-4.802 6.93v.868h4.592v2.17h1.148zm-1.148-3.122H9.515l3.402-4.9v4.9zm7.19 3.234c1.14 0 2.005-.434 2.598-1.302.592-.868.889-2.137.889-3.808 0-1.661-.297-2.923-.89-3.787-.592-.863-1.458-1.295-2.596-1.295-1.14 0-2.005.432-2.598 1.295-.592.864-.889 2.13-.889 3.801 0 1.67.297 2.938.89 3.801.592.864 1.458 1.295 2.597 1.295zm0-.966c-.793 0-1.378-.338-1.756-1.015-.378-.676-.567-1.72-.567-3.129 0-1.41.189-2.445.567-3.108.378-.662.963-.994 1.757-.994.802 0 1.39.332 1.764.994.373.663.56 1.699.56 3.108 0 1.419-.19 2.464-.567 3.136-.378.672-.964 1.008-1.757 1.008zm8.27.966c1.138 0 2.004-.434 2.596-1.302.593-.868.89-2.137.89-3.808 0-1.661-.297-2.923-.89-3.787-.592-.863-1.458-1.295-2.597-1.295-1.138 0-2.004.432-2.597 1.295-.592.864-.889 2.13-.889 3.801 0 1.67.297 2.938.89 3.801.592.864 1.458 1.295 2.596 1.295zm0-.966c-.794 0-1.38-.338-1.758-1.015-.378-.676-.567-1.72-.567-3.129 0-1.41.19-2.445.567-3.108.378-.662.964-.994 1.757-.994.803 0 1.39.332 1.764.994.374.663.56 1.699.56 3.108 0 1.419-.189 2.464-.567 3.136-.378.672-.963 1.008-1.757 1.008zm6.294.854v-3.388l3.612 3.388h1.484l-3.864-3.654 3.528-3.374h-1.442l-3.318 3.22V60.7h-1.134v10.304h1.134zM4.2 108.627v-1.54c.877-.102 1.582-.406 2.114-.91.532-.504.798-1.13.798-1.876 0-.55-.135-.996-.406-1.337-.27-.34-.609-.6-1.015-.777-.406-.177-.917-.34-1.533-.49v-3.766c.924.103 1.727.48 2.408 1.134L7 98.183c-.345-.345-.763-.625-1.253-.84-.49-.214-1.006-.345-1.547-.392v-1.54h-.98v1.526c-.597.056-1.125.213-1.582.47-.457.256-.814.59-1.071 1-.257.41-.385.873-.385 1.386 0 .588.142 1.062.427 1.421.285.36.637.633 1.057.82.42.186.952.363 1.596.531v3.556c-.532-.028-1.024-.135-1.477-.322-.453-.186-.903-.471-1.351-.854l-.434.882c.41.383.889.682 1.435.896.546.215 1.141.34 1.785.378v1.526h.98zm-.938-7.154c-.616-.168-1.087-.378-1.414-.63-.327-.252-.49-.616-.49-1.092 0-.513.168-.93.504-1.253.336-.322.803-.51 1.4-.567v3.542zm.896 4.62v-3.304c.579.159 1.022.353 1.33.581.308.229.462.549.462.96 0 .494-.156.893-.469 1.196-.313.304-.754.493-1.323.567zm7.583 1.008c1.008 0 1.806-.25 2.394-.749.588-.5.882-1.183.882-2.05 0-.626-.154-1.144-.462-1.555-.308-.41-.756-.7-1.344-.868.494-.186.882-.494 1.162-.924.28-.43.42-.928.42-1.498 0-.774-.269-1.39-.805-1.848-.537-.457-1.253-.686-2.15-.686-.634 0-1.243.11-1.826.33-.584.219-1.076.52-1.477.902l.434.882c.933-.765 1.876-1.148 2.828-1.148.588 0 1.043.145 1.365.434.322.29.483.705.483 1.246 0 .607-.196 1.074-.588 1.4-.392.327-.957.49-1.694.49h-.924v.966h1.148c1.53 0 2.296.612 2.296 1.834 0 .616-.185 1.083-.553 1.4-.369.318-.908.476-1.617.476-.999 0-1.96-.382-2.884-1.148l-.448.882c.41.392.912.696 1.505.91.592.215 1.21.322 1.855.322zm8.367.014c1.138 0 2.004-.434 2.596-1.302.593-.868.89-2.137.89-3.808 0-1.661-.297-2.923-.89-3.787-.592-.863-1.458-1.295-2.596-1.295-1.14 0-2.005.432-2.598 1.295-.592.864-.889 2.13-.889 3.801 0 1.67.297 2.938.89 3.801.592.864 1.458 1.295 2.597 1.295zm0-.966c-.794 0-1.38-.338-1.758-1.015-.378-.676-.567-1.72-.567-3.129 0-1.41.19-2.445.567-3.108.378-.662.964-.994 1.758-.994.802 0 1.39.332 1.764.994.373.663.56 1.699.56 3.108 0 1.419-.19 2.464-.567 3.136-.378.672-.964 1.008-1.757 1.008zm8.268.966c1.139 0 2.005-.434 2.597-1.302.593-.868.89-2.137.89-3.808 0-1.661-.297-2.923-.89-3.787-.592-.863-1.458-1.295-2.597-1.295-1.138 0-2.004.432-2.597 1.295-.592.864-.889 2.13-.889 3.801 0 1.67.297 2.938.89 3.801.592.864 1.458 1.295 2.596 1.295zm0-.966c-.793 0-1.379-.338-1.757-1.015-.378-.676-.567-1.72-.567-3.129 0-1.41.19-2.445.567-3.108.378-.662.964-.994 1.757-.994.803 0 1.39.332 1.764.994.374.663.56 1.699.56 3.108 0 1.419-.189 2.464-.567 3.136-.378.672-.963 1.008-1.757 1.008zm6.295.854v-3.388l3.612 3.388h1.484l-3.864-3.654 3.528-3.374h-1.442l-3.318 3.22V96.7h-1.134v10.304h1.134zM4.2 144.627v-1.54c.877-.102 1.582-.406 2.114-.91.532-.504.798-1.13.798-1.876 0-.55-.135-.996-.406-1.337-.27-.34-.609-.6-1.015-.777-.406-.177-.917-.34-1.533-.49v-3.766c.924.103 1.727.48 2.408 1.134l.434-.882c-.345-.345-.763-.625-1.253-.84-.49-.214-1.006-.345-1.547-.392v-1.54h-.98v1.526c-.597.056-1.125.213-1.582.47-.457.256-.814.59-1.071 1-.257.41-.385.873-.385 1.386 0 .588.142 1.062.427 1.421.285.36.637.633 1.057.82.42.186.952.363 1.596.531v3.556c-.532-.028-1.024-.135-1.477-.322-.453-.186-.903-.471-1.351-.854l-.434.882c.41.383.889.682 1.435.896.546.215 1.141.34 1.785.378v1.526h.98zm-.938-7.154c-.616-.168-1.087-.378-1.414-.63-.327-.252-.49-.616-.49-1.092 0-.513.168-.93.504-1.253.336-.322.803-.51 1.4-.567v3.542zm.896 4.62v-3.304c.579.159 1.022.353 1.33.581.308.229.462.549.462.96 0 .494-.156.893-.469 1.196-.313.304-.754.493-1.323.567zm11.055.91v-.966h-4.928l2.842-3.08c.597-.653 1.024-1.243 1.28-1.77.257-.528.386-1.076.386-1.646 0-.802-.266-1.44-.798-1.91-.532-.472-1.256-.708-2.17-.708-.607 0-1.209.112-1.806.336-.598.224-1.092.523-1.484.896l.434.882c.933-.765 1.876-1.148 2.828-1.148.588 0 1.04.147 1.358.441.317.294.476.717.476 1.267 0 .42-.108.84-.322 1.26-.215.42-.556.892-1.022 1.414L8.8 142.135v.868h6.412zm4.895.112c1.138 0 2.004-.434 2.596-1.302.593-.868.89-2.137.89-3.808 0-1.661-.297-2.923-.89-3.787-.592-.863-1.458-1.295-2.596-1.295-1.14 0-2.005.432-2.598 1.295-.592.864-.889 2.13-.889 3.801 0 1.67.297 2.938.89 3.801.592.864 1.458 1.295 2.597 1.295zm0-.966c-.794 0-1.38-.338-1.758-1.015-.378-.676-.567-1.72-.567-3.129 0-1.41.19-2.445.567-3.108.378-.662.964-.994 1.758-.994.802 0 1.39.332 1.764.994.373.663.56 1.699.56 3.108 0 1.419-.19 2.464-.567 3.136-.378.672-.964 1.008-1.757 1.008zm8.268.966c1.139 0 2.005-.434 2.597-1.302.593-.868.89-2.137.89-3.808 0-1.661-.297-2.923-.89-3.787-.592-.863-1.458-1.295-2.597-1.295-1.138 0-2.004.432-2.597 1.295-.592.864-.889 2.13-.889 3.801 0 1.67.297 2.938.89 3.801.592.864 1.458 1.295 2.596 1.295zm0-.966c-.793 0-1.379-.338-1.757-1.015-.378-.676-.567-1.72-.567-3.129 0-1.41.19-2.445.567-3.108.378-.662.964-.994 1.757-.994.803 0 1.39.332 1.764.994.374.663.56 1.699.56 3.108 0 1.419-.189 2.464-.567 3.136-.378.672-.963 1.008-1.757 1.008zm6.295.854v-3.388l3.612 3.388h1.484l-3.864-3.654 3.528-3.374h-1.442l-3.318 3.22V132.7h-1.134v10.304h1.134zM4.2 180.627v-1.54c.877-.102 1.582-.406 2.114-.91.532-.504.798-1.13.798-1.876 0-.55-.135-.996-.406-1.337-.27-.34-.609-.6-1.015-.777-.406-.177-.917-.34-1.533-.49v-3.766c.924.103 1.727.48 2.408 1.134l.434-.882c-.345-.345-.763-.625-1.253-.84-.49-.214-1.006-.345-1.547-.392v-1.54h-.98v1.526c-.597.056-1.125.213-1.582.47-.457.256-.814.59-1.071 1-.257.41-.385.873-.385 1.386 0 .588.142 1.062.427 1.421.285.36.637.633 1.057.82.42.186.952.363 1.596.531v3.556c-.532-.028-1.024-.135-1.477-.322-.453-.186-.903-.471-1.351-.854l-.434.882c.41.383.889.682 1.435.896.546.215 1.141.34 1.785.378v1.526h.98zm-.938-7.154c-.616-.168-1.087-.378-1.414-.63-.327-.252-.49-.616-.49-1.092 0-.513.168-.93.504-1.253.336-.322.803-.51 1.4-.567v3.542zm.896 4.62v-3.304c.579.159 1.022.353 1.33.581.308.229.462.549.462.96 0 .494-.156.893-.469 1.196-.313.304-.754.493-1.323.567zm10.83.91v-.966h-2.197v-9.002h-.658l-2.548 1.624v1.106l2.044-1.302v7.574H9.43v.966h5.558zm5.12.112c1.138 0 2.004-.434 2.596-1.302.593-.868.89-2.137.89-3.808 0-1.661-.297-2.923-.89-3.787-.592-.863-1.458-1.295-2.596-1.295-1.14 0-2.005.432-2.598 1.295-.592.864-.889 2.13-.889 3.801 0 1.67.297 2.938.89 3.801.592.864 1.458 1.295 2.597 1.295zm0-.966c-.794 0-1.38-.338-1.758-1.015-.378-.676-.567-1.72-.567-3.129 0-1.41.19-2.445.567-3.108.378-.662.964-.994 1.758-.994.802 0 1.39.332 1.764.994.373.663.56 1.699.56 3.108 0 1.419-.19 2.464-.567 3.136-.378.672-.964 1.008-1.757 1.008zm8.268.966c1.139 0 2.005-.434 2.597-1.302.593-.868.89-2.137.89-3.808 0-1.661-.297-2.923-.89-3.787-.592-.863-1.458-1.295-2.597-1.295-1.138 0-2.004.432-2.597 1.295-.592.864-.889 2.13-.889 3.801 0 1.67.297 2.938.89 3.801.592.864 1.458 1.295 2.596 1.295zm0-.966c-.793 0-1.379-.338-1.757-1.015-.378-.676-.567-1.72-.567-3.129 0-1.41.19-2.445.567-3.108.378-.662.964-.994 1.757-.994.803 0 1.39.332 1.764.994.374.663.56 1.699.56 3.108 0 1.419-.189 2.464-.567 3.136-.378.672-.963 1.008-1.757 1.008zm6.295.854v-3.388l3.612 3.388h1.484l-3.864-3.654 3.528-3.374h-1.442l-3.318 3.22V168.7h-1.134v10.304h1.134zM4.2 216.627v-1.54c.877-.102 1.582-.406 2.114-.91.532-.504.798-1.13.798-1.876 0-.55-.135-.996-.406-1.337-.27-.34-.609-.6-1.015-.777-.406-.177-.917-.34-1.533-.49v-3.766c.924.103 1.727.48 2.408 1.134l.434-.882c-.345-.345-.763-.625-1.253-.84-.49-.214-1.006-.345-1.547-.392v-1.54h-.98v1.526c-.597.056-1.125.213-1.582.47-.457.256-.814.59-1.071 1-.257.41-.385.873-.385 1.386 0 .588.142 1.062.427 1.421.285.36.637.633 1.057.82.42.186.952.363 1.596.531v3.556c-.532-.028-1.024-.135-1.477-.322-.453-.186-.903-.471-1.351-.854l-.434.882c.41.383.889.682 1.435.896.546.215 1.141.34 1.785.378v1.526h.98zm-.938-7.154c-.616-.168-1.087-.378-1.414-.63-.327-.252-.49-.616-.49-1.092 0-.513.168-.93.504-1.253.336-.322.803-.51 1.4-.567v3.542zm.896 4.62v-3.304c.579.159 1.022.353 1.33.581.308.229.462.549.462.96 0 .494-.156.893-.469 1.196-.313.304-.754.493-1.323.567zm7.68 1.022c1.14 0 2.005-.434 2.598-1.302.592-.868.889-2.137.889-3.808 0-1.661-.297-2.923-.89-3.787-.592-.863-1.458-1.295-2.596-1.295-1.139 0-2.005.432-2.597 1.295-.593.864-.89 2.13-.89 3.801 0 1.67.297 2.938.89 3.801.592.864 1.458 1.295 2.597 1.295zm0-.966c-.793 0-1.378-.338-1.756-1.015-.378-.676-.567-1.72-.567-3.129 0-1.41.189-2.445.567-3.108.378-.662.963-.994 1.757-.994.802 0 1.39.332 1.764.994.373.663.56 1.699.56 3.108 0 1.419-.19 2.464-.567 3.136-.378.672-.964 1.008-1.757 1.008zm6.296.854v-3.388l3.611 3.388h1.485l-3.864-3.654 3.527-3.374h-1.442l-3.317 3.22V204.7H17v10.304h1.134z"/>
                            </g>
                        </g>
                    </g>
                </g>
            </g>
        </g>
    </g>
</svg>
