<?xml version="1.0" encoding="UTF-8"?>
<svg width="358px" height="321px" viewBox="0 0 358 321" version="1.1" xmlns="http://www.w3.org/2000/svg" xmlns:xlink="http://www.w3.org/1999/xlink">
    <!-- Generator: Sketch 52.5 (67469) - http://www.bohemiancoding.com/sketch -->
    <title>Group 54</title>
    <desc>Created with Sketch.</desc>
    <defs>
        <ellipse id="path-1" cx="90.9620412" cy="92.2681749" rx="90.9620412" ry="92.2681749"></ellipse>
        <polygon id="path-3" points="0 0 128.94619 0 128.94619 171.355182 0 171.355182"></polygon>
    </defs>
    <g id="investment-journey" stroke="none" stroke-width="1" fill="none" fill-rule="evenodd">
        <g id="Group-54">
            <g id="Group-Copy">
                <polygon id="Fill-2" fill="#009BFF" points="259 312.875986 266.865245 320.751973 274.735537 312.875986 266.865245 305"></polygon>
                <polygon id="Fill-5" fill="#00AAA8" points="328.214876 110.630778 343.108557 125.538895 358 110.630778 343.108557 95.7226607"></polygon>
                <polygon id="Fill-7" fill="#FF2239" points="313.504589 271.807215 300.677686 279.219923 308.082188 292.059752 320.909091 284.646476"></polygon>
                <polygon id="Fill-8" fill="#7171FF" points="256.075793 9 235 30.0961094 256.075793 51.1927847 277.14876 30.0961094"></polygon>
                <polygon id="Fill-11" fill="#FF8800" points="324.510174 165 321 177.802004 333.790199 181.314543 337.297521 168.509683"></polygon>
                <polygon id="Fill-12" fill="#FF2239" points="60 265.568093 74.5534582 269.564825 78.5454545 254.993902 63.9897349 251"></polygon>
                <polygon id="Fill-13" fill="#00AAA8" points="268.272727 217 259 226.282695 268.272727 235.564825 277.545455 226.282695"></polygon>
                <polygon id="Fill-14" fill="#FF8800" points="17.0897748 244.028419 15.779691 257.629087 0 235.27719 14.5674164 225 30.3471074 247.349662"></polygon>
                <g id="Group-39" transform="translate(3.000000, 0.000000)">
                    <path d="M69.7562976,71.155274 C64.7467769,66.1427711 64.7490248,58.0119402 69.7562976,53 L87.8954381,71.155274 C82.8859174,76.1700271 74.7658182,76.1700271 69.7562976,71.155274" id="Fill-15" fill="#ED2EB1"></path>
                    <polygon id="Fill-31" fill="#007F7E" points="8.72824463 165.173356 34.5187901 157.218047 25.816476 148.509456 0.00457520661 156.437761"></polygon>
                    <polygon id="Fill-33" fill="#007F7E" transform="translate(25.083174, 8.486938) scale(1, -1) translate(-25.083174, -8.486938) " points="16.6893884 16.973876 42.1663471 8.70802818 33.4696529 0 8 8.27259865"></polygon>
                </g>
            </g>
            <g id="Group-15-Copy" transform="translate(80.000000, 83.000000)">
                <g id="Group-5" transform="translate(0.000000, 17.000000)">
                    <g id="Group-12">
                        <g id="Group-2">
                            <g id="Group-14">
                                <g>
                                    <g id="Group-4">
                                        <g id="Group-9" transform="translate(0.000000, 0.788759)">
                                            <mask id="mask-2" fill="white">
                                                <use xlink:href="#path-1"></use>
                                            </mask>
                                            <use id="Mask" fill="#005150" xlink:href="#path-1"></use>
                                            <g mask="url(#mask-2)" id="Group-8">
                                                <g transform="translate(-41.982481, 46.641055)">
                                                    <g>
                                                        <path d="M7.04817583,142.964974 L233.851296,142.964974 C232.033765,206.001117 181.957839,256.525805 120.449736,256.525805 C58.9416326,256.525805 8.86570616,206.001117 7.04817627,142.96499 Z" id="Combined-Shape-Copy-2" fill="#008181" transform="translate(120.449736, 199.745390) rotate(-315.000000) translate(-120.449736, -199.745390) "></path>
                                                        <g id="Group-7" transform="translate(76.967881, 0.000000)">
                                                            <g id="Group-6">
                                                                <path d="M60.9957637,90.2403029 L162.910799,90.2403029 C162.12515,118.375935 139.611423,140.937102 111.953281,140.937102 C84.29514,140.937102 61.7814128,118.375935 60.9957638,90.240309 Z" id="Combined-Shape-Copy" fill="#FF9445" transform="translate(111.953281, 115.588703) rotate(-30.000000) translate(-111.953281, -115.588703) "></path>
                                                                <g id="Group">
                                                                    <g id="Group-3">
                                                                        <mask id="mask-4" fill="white">
                                                                            <use xlink:href="#path-3"></use>
                                                                        </mask>
                                                                        <g id="Clip-2"></g>
                                                                        <path d="M112.223634,162.229758 L112.223634,55.7421163 C112.223634,53.6847612 112.112395,51.652697 111.896397,49.6536209 C111.005406,41.3945114 111.727919,33.0672267 113.786378,25.0280376 C114.168695,23.5314795 114.520771,21.9788417 114.852328,20.3690246 C115.7066,16.2290236 111.374762,13.0170866 107.780557,15.1404178 C106.169213,16.0937726 104.493069,17.0163385 102.818006,17.8388407 C100.687187,18.8845621 98.1589313,18.4238289 96.5011475,16.7051512 C86.5630847,6.40408114 72.7424598,0 57.4746492,0 C42.2068385,0 28.3894536,6.40298154 18.4503108,16.7007528 C16.793607,18.4194305 14.2631917,18.8801637 12.1323726,17.8333427 C10.4616289,17.0130397 8.78980526,16.0915734 7.18062099,15.1404178 C3.58749613,13.0170866 -0.744341504,16.227924 0.108850152,20.367925 C0.43932692,21.966746 0.788163509,23.5083878 1.1672398,24.9950495 C3.2224597,33.0342386 3.95037258,41.3604238 3.05398135,49.617334 C2.83582348,51.6285058 2.72350458,53.671566 2.72350458,55.7421163 L2.72350458,83.3377242 C2.72350458,118.413923 23.3448229,148.661771 52.8825341,162.229758 L13.6119581,162.229758 L128.94619,162.229758 L112.223634,162.229758 Z" id="Fill-1" fill="#00BCBC" mask="url(#mask-4)"></path>
                                                                    </g>
                                                                    <path d="M80.0015627,27.3762717 C69.6397892,27.3762717 60.8154925,34.1087135 57.476015,43.5312596 C54.1365375,34.1087135 45.3133205,27.3762717 34.951547,27.3762717 C21.7210402,27.3762717 10.9954116,38.3510135 10.9954116,51.8877069 C10.9954116,79.7885631 13.6266132,102.407535 57.476015,102.407535 C98.8907185,102.407535 103.956618,79.7885631 103.956618,51.8877069 C103.956618,38.3510135 93.2309898,27.3762717 80.0015627,27.3762717" id="Fill-4" fill="#FFFFFF" opacity="0.901283482"></path>
                                                                </g>
                                                            </g>
                                                        </g>
                                                    </g>
                                                </g>
                                            </g>
                                        </g>
                                    </g>
                                    <path d="M97.6426088,128.430604 L103.412688,117.377627 C104.05685,116.144401 103.866628,114.59321 102.950102,113.591771 L94.4578248,104.295027 C93.2862277,103.012769 91.3076266,103.012769 90.1374706,104.295027 L81.6437524,113.591771 C80.7272263,114.59321 80.5370039,116.144401 81.1811661,117.377627 L86.9512455,128.430604 C89.2425607,132.821187 95.3512936,132.821187 97.6426088,128.430604" id="Fill-10" fill="#FFA32C"></path>
                                </g>
                            </g>
                        </g>
                    </g>
                    <g id="Group-13" transform="translate(60.000000, 93.000000)" fill="#007F7E">
                        <path d="M64.9114165,9.54944392 L59.8820448,9.54944392 C59.8820448,8.01354654 59.4659362,4.44143922 55.606595,4.44143922 C51.7481336,4.44143922 51.3311452,8.01354654 51.3311452,9.54944392 L46.3017736,9.54944392 C46.3017736,3.83702437 50.0414725,0 55.606595,0 C61.1725972,0 64.9114165,3.83702437 64.9114165,9.54944392" id="Fill-7"></path>
                        <path d="M18.6096429,9.54944392 L13.5802712,9.54944392 C13.5802712,8.01354654 13.1641626,4.44143922 9.30482144,4.44143922 C5.44635998,4.44143922 5.02937167,8.01354654 5.02937167,9.54944392 L0,9.54944392 C0,3.83702437 3.73969896,0 9.30482144,0 C14.8708236,0 18.6096429,3.83702437 18.6096429,9.54944392" id="Fill-7-Copy"></path>
                    </g>
                </g>
                <g id="chat" transform="translate(146.000000, 0.000000)" fill="#FFFFFF" fill-rule="nonzero">
                    <path d="M88,10.788 L88,63.07 C88,68.514 83.586,72.928 78.142,72.928 L44,73.07 L24,95.07 L24,73.07 L9.858,73.07 C4.414,73.07 0,68.656 0,63.212 L0,10.93 C0,5.486 4.414,1.072 9.858,1.072 L78.14,0.93 C83.586,0.93 88,5.344 88,10.788 Z" id="Shape"></path>
                </g>
                <g id="smiling" transform="translate(167.000000, 13.000000)" fill-rule="nonzero">
                    <circle id="Oval" fill="#FFC700" cx="23" cy="23" r="23"></circle>
                    <g id="Group" transform="translate(8.535156, 11.500000)" fill="#734A3F">
                        <path d="M27.3735938,7.21625 C26.5800938,7.21625 25.9360938,6.57225 25.9360938,5.77875 C25.9360938,4.194625 24.6480938,2.90375 23.0610938,2.90375 C21.4740938,2.90375 20.1860938,4.194625 20.1860938,5.77875 C20.1860938,6.57225 19.5420937,7.21625 18.7485938,7.21625 C17.9550938,7.21625 17.3110938,6.57225 17.3110938,5.77875 C17.3110938,2.607625 19.8899688,0.02875 23.0610938,0.02875 C26.2322188,0.02875 28.8110938,2.607625 28.8110938,5.77875 C28.8110938,6.575125 28.1670937,7.21625 27.3735938,7.21625 Z" id="Shape"></path>
                        <path d="M10.1235938,7.21625 C9.33009375,7.21625 8.68609375,6.57225 8.68609375,5.77875 C8.68609375,4.194625 7.39521875,2.90375 5.81109375,2.90375 C4.22696875,2.90375 2.93609375,4.194625 2.93609375,5.77875 C2.93609375,6.57225 2.29209375,7.21625 1.49859375,7.21625 C0.70509375,7.21625 0.06109375,6.57225 0.06109375,5.77875 C0.06109375,2.607625 2.63996875,0.02875 5.81109375,0.02875 C8.98221875,0.02875 11.5610938,2.607625 11.5610938,5.77875 C11.5610938,6.575125 10.9170938,7.21625 10.1235938,7.21625 Z" id="Shape"></path>
                    </g>
                    <path d="M39.32425,26.475875 C39.051125,26.1165 38.6285,25.90375 38.18,25.90375 L7.7625,25.90375 C7.311125,25.90375 6.8885,26.113625 6.61825,26.473 C6.34225,26.83525 6.256,27.298125 6.37675,27.73225 C8.455375,35.118125 15.280625,40.27875 22.968375,40.27875 C30.656125,40.27875 37.481375,35.118125 39.56,27.73225 C39.683625,27.298125 39.597375,26.83525 39.32425,26.475875 Z" id="Shape" fill="#FAFAFA"></path>
                </g>
            </g>
        </g>
    </g>
</svg>