<svg xmlns="http://www.w3.org/2000/svg" xmlns:xlink="http://www.w3.org/1999/xlink" width="85" height="70" viewBox="0 0 85 70">
    <defs>
        <path id="a" d="M.028 0H31.35v44.422H.028z"/>
    </defs>
    <g fill="none" fill-rule="evenodd">
        <path fill="#00756F" d="M21.253 50.847C21.253 61.425 29.833 70 40.417 70c10.584 0 19.164-8.575 19.164-19.153S51 31.694 40.417 31.694c-10.584 0-19.164 8.575-19.164 19.153"/>
        <path fill="#005960" d="M3.914 50.847C3.914 61.425 12.494 70 23.078 70c10.584 0 19.164-8.575 19.164-19.153s-8.58-19.153-19.164-19.153c-10.584 0-19.164 8.575-19.164 19.153"/>
        <path fill="#005960" d="M29.68 0h33.011a4.88 4.88 0 0 1 4.86 4.512c.026.351.009-2.236.014 39.95H38.544c-2.462 0-4.49-2-4.49-4.502v2.787H25.36V4.333C25.36 1.95 27.304 0 29.68 0"/>
        <path fill="#00756F" d="M30.15 0v.008c2.248.137 4.042 2.03 4.042 4.324l-.004 8.128v27.5c0 1.653.884 3.097 2.203 3.88.665.396 1.44.623 2.269.623h28.906V4.888c0-.127-.005-.253-.015-.376C67.361 1.988 65.267 0 62.711 0h-32.56z"/>
        <g transform="matrix(-1 0 0 1 67.566 0)">
            <mask id="b" fill="#fff">
                <use xlink:href="#a"/>
            </mask>
            <path fill="#00756F" d="M27.965 39.577V8.12a3.61 3.61 0 0 0-3.608-3.613H6.355a.864.864 0 0 1-.817-1.136A4.878 4.878 0 0 1 10.175 0H4.907A4.879 4.879 0 0 0 .046 4.507H.044c-.033.426-.001-.41-.014 39.915H29.07c.832 0 1.61-.226 2.28-.622a4.341 4.341 0 0 1-3.386-4.223" mask="url(#b)"/>
        </g>
        <path fill="#71D8B8" d="M46.205 7.296a3.602 3.602 0 0 0-3.6 3.605v29.242a4.33 4.33 0 0 1-3.785 4.286v.034h28.352v-.004l.129.003h1.244a3.14 3.14 0 0 0 3.127-3.133V7.296H46.205z"/>
        <path fill="#EEE" d="M75.445 7.297h-.01 4.159c1.675 0 3.153.791 4.025 1.995l.058.084.068.1c.446.684.703 1.488.703 2.347V56.1c0 .628-.136 1.227-.384 1.772-.569 1.255-1.726 2.222-3.148 2.603a5.209 5.209 0 0 1-1.35.177H55.542c-2.47 0-4.472-1.867-4.472-4.17V18.838l.006-7.528c0-2.125-1.796-3.879-4.043-4.004v-.009h28.412z"/>
        <path fill="#FAB08A" d="M3.913 53.355l-.227 1.557c.421.335.973.357 1.412.055l.079-.055.334-1.557H3.913z"/>
        <path fill="#005960" d="M15.585 19.054c-1.317 4.356-5.739 11.044-5.739 11.044l3.493-1.432 2.468-5.713s1.095-8.255-.222-3.899"/>
        <path fill="#1C2C57" d="M6.414 36.497L3.686 53.355h2.425s5.445-15.168 6.017-19.626c0-2.526-5.505 0-5.505 0l-.21 2.768z"/>
        <path fill="#F79C82" d="M15.55 12.293l.865 2.3 1.872-1.392-1.264-2.712z"/>
        <path fill="#FAB08A" d="M14.67 12.953c-.3.055-.585.069-.754-.021-1.12-1.094-.846-4.75-.846-4.75l1.25-.886 1.972.74.571 2.288c.153.61-.016 1.264-.453 1.76a3.614 3.614 0 0 1-1.74.869"/>
        <path fill="#1C2C57" d="M15.944 8.618a.798.798 0 0 0-.995-.388 6.29 6.29 0 0 1-.95.286c-.794.163-2.275.15-2.528-1.037-.253-1.186 1.318-1.085 1.318-1.085l2.09.142a3.918 3.918 0 0 0 1.8-.324c.502-.215.948.242 1.056.548.235.67-.01 1.813-.217 2.547a3.676 3.676 0 0 1-.576 1.182l-.998-1.871z"/>
        <path fill="#FAB08A" d="M16.96 9.18c-.232-.14-.593-.024-.805.258-.212.283-.196.624.036.763.234.14.594.024.807-.258.212-.282.195-.624-.037-.763"/>
        <path fill="#1C2C57" d="M3.681 54.785s-.006 1.551-3.098 2.481c-.634.192-.428.38-.547.65h3.557l1.393-1.578.434.375 1.004-.994s-.174-1.44-.94-1.452c-.63.217-1.803.518-1.803.518"/>
        <path fill="#FAB08A" d="M12.584 52.962l.568 1.255a1.41 1.41 0 0 0 1.422-.414l.063-.07-.46-1.29-1.593.52z"/>
        <path fill="#006769" d="M15.66 14.305s-.253-.386 1.998-1.536c3.393 3.353 4.508 16.189 4.508 16.189h-8.874c-.3-7.326 2.368-14.653 2.368-14.653"/>
        <path fill="#FAB08A" d="M7.119 28.428a.4.4 0 0 1 .188-.437l1.474-.855a1.71 1.71 0 0 1 1.207-.195l1.598.064.21.252.332 1.413c-.321-.077-.51-.126-.51-.126l-1.015.028s-1.914 1.778-2.863.232c-.04 1.646-.522 1.52-.522 1.52l-.099-1.896z"/>
        <path fill="#004060" d="M22.228 28.73l.134 1.085.005.043c.238 2.072-1.144 3.992-3.178 4.555 0 0-4.035 1.318-9.127 1.593 3.343 4.236 4.268 16.121 4.268 16.121l-2.154.772-8.318-19.55c-.531-1.25.22-2.668 1.563-2.95l7.945-1.67h8.862z"/>
        <path fill="#006769" d="M16.597 18.296s1.632 1.496 2.592 3.03c.267.426.227.978-.103 1.358-1.825 2.105-8.327 4.126-8.327 4.126l.42 2.376s9.229-1.818 12.497-5.1c3.353-3.37-5.317-10.405-5.317-10.405"/>
        <path fill="#118C8C" d="M3.715 31.01L.95 21.344l.508-.139 2.637 9.217 7.944-1.348.09.507z"/>
        <path fill="#1C2C57" d="M13.135 53.86s.121 1.564-2.97 2.495c-.634.191-.428.38-.547.648h3.558l1.392-1.578.434.375 1.004-.993s-.47-1.44-1.234-1.452c-.63.217-1.637.505-1.637.505"/>
        <path fill="#00756F" d="M24.721 55.511c.545-.119.962-.355 1.248-.711.286-.356.43-.778.43-1.267 0-.489-.137-.885-.41-1.189-.273-.303-.695-.596-1.268-.878v4.045zm-2.965-9.2c0 .46.126.837.379 1.133.252.297.67.593 1.257.89v-3.867c-.504.089-.903.296-1.196.622-.293.326-.44.733-.44 1.222zm6.994 7.2c0 1.26-.372 2.285-1.114 3.078-.744.792-1.715 1.27-2.915 1.433V60h-1.329v-1.956c-1.131-.074-2.1-.407-2.904-1-.804-.592-1.384-1.4-1.738-2.422l2.025-1.267c.477 1.304 1.35 2.03 2.617 2.178v-4.622a18.124 18.124 0 0 1-1.493-.678 7.14 7.14 0 0 1-1.216-.833 3.303 3.303 0 0 1-.962-1.3c-.211-.511-.317-1.107-.317-1.789 0-1.244.382-2.252 1.146-3.022.763-.77 1.71-1.215 2.842-1.334V40h1.33v1.978c1.826.266 3.094 1.281 3.803 3.044l-1.984 1.244c-.354-.962-.96-1.547-1.82-1.755v4.4c.437.178.767.319.992.422.225.104.525.26.9.467.375.208.665.415.87.622.204.208.418.46.643.756.225.296.385.64.48 1.033.096.393.144.826.144 1.3z"/>
    </g>
</svg>
