<svg xmlns="http://www.w3.org/2000/svg" xmlns:xlink="http://www.w3.org/1999/xlink" width="260" height="170" viewBox="0 0 260 170">
    <defs>
        <path id="prefix__a" d="M133.184.284c91.64 3.684 176.943 83.622 91.64 145.004-43.498 31.3-95.036 21.203-126.313 15.564-11.826-2.132-57.19 7.746-73.641-3.12-20.872-13.786 1.782-38.072-12.693-53.392-14.51-15.356-16.922-37.415-2.5-59.91C28.436 15.177 64.276-2.484 133.185.285z"/>
        <path id="prefix__c" d="M0.003 0L30.34 0 30.34 21.217 0.003 21.217z"/>
    </defs>
    <g fill="none" fill-rule="evenodd">
        <g>
            <mask id="prefix__b" fill="#fff">
                <use xlink:href="#prefix__a"/>
            </mask>
            <use fill="#D0EBFC" xlink:href="#prefix__a"/>
            <g mask="url(#prefix__b)">
                <g>
                    <g>
                        <path fill="#3EC5C5" d="M24.264 0H42.998999999999995V28.722H24.264z" transform="translate(59 115) translate(0 3.776)"/>
                        <path fill="#FF9C39" d="M0 2.444H18.735V28.721999999999998H0z" transform="translate(59 115) translate(0 3.776)"/>
                        <path fill="#17679E" d="M48.527 2.444H67.262V28.721999999999998H48.527z" transform="translate(59 115) translate(0 3.776)"/>
                        <path fill="#066360" d="M72.791 0H91.526V28.722H72.791z" transform="translate(59 115) translate(0 3.776)"/>
                    </g>
                    <g transform="translate(59 115) translate(4.532 .453)">
                        <path stroke="#004163" stroke-linecap="round" stroke-width="2" d="M4.566 6.457L28.83 4.246 54.105 6.457 78.369 4.246"/>
                        <ellipse cx="4.086" cy="6.787" fill="#004472" rx="4.025" ry="4.029"/>
                        <ellipse cx="28.35" cy="4.575" fill="#004472" rx="4.025" ry="4.029"/>
                        <ellipse cx="53.624" cy="6.787" fill="#004472" rx="4.025" ry="4.029"/>
                        <ellipse cx="77.888" cy="4.575" fill="#00A7A7" rx="4.025" ry="4.029"/>
                    </g>
                </g>
            </g>
            <g mask="url(#prefix__b)">
                <g>
                    <path fill="#FAB08A" d="M41.054 43.86c-1.747 0-3.393-.955-4.05-2.504-3.064-7.236 3.74-17.128 9.77-20.76 1.988-1.193 4.676-.723 6.012 1.056 1.335 1.778.807 4.188-1.177 5.384-3.672 2.21-7.728 8.682-6.505 11.568.847 2.004-.278 4.243-2.514 5.003-.505.171-1.025.254-1.536.254" transform="matrix(-1 0 0 1 226.734 43)"/>
                    <path fill="#F49E8E" d="M52.832 21.675c-1.252-1.803-3.773-2.28-5.636-1.07-1.925 1.255-3.935 3.246-5.635 5.615.535 2.254 1.71 3.979 3.923 4.307 1.195.177 2.415-.206 3.61-.94.842-1.013 1.75-1.878 2.635-2.454 1.86-1.212 2.354-3.655 1.103-5.458" transform="matrix(-1 0 0 1 226.734 43)"/>
                    <path fill="#FAB08A" d="M45.147 13.174c-1.59 2.712-4.899 16.025 1.654 17.32 6.554 1.294 14.697-14.3 14.697-14.3s-13.55-9.43-14.951-6.226l-1.4 3.206z" transform="matrix(-1 0 0 1 226.734 43)"/>
                    <g transform="matrix(-1 0 0 1 226.734 43) translate(41.561)">
                        <mask id="prefix__d" fill="#fff">
                            <use xlink:href="#prefix__c"/>
                        </mask>
                        <path fill="#DC6D08" d="M2.58 18.106c.262-.48 1.109-6.937 5.174-7.475 4.064-.539 6.98 2.133 8.97 5.097 2.73 4.066 11.413 1.6 13.015-2.646 1.6-4.245-.247-5.8-2.587-5.262.37-1.735.062-8.073-7.329-5.98C18.47-.015 6.768-2.945 6.09 7.52c-10.015.015-4.252 13.746-4.252 13.746l.743-3.16z" mask="url(#prefix__d)"/>
                    </g>
                    <path fill="#FF7900" d="M70.802 10.495c-.086-2.054-1.484-2.774-3.138-2.374.365-1.802.06-8.383-7.241-6.21-1.17-1.684-10.16-4.224-12.845 2.437 0 .012-.003.023-.003.036h-.011c-.377.948-.628 2.08-.71 3.426-2.89.005-4.479 1.223-5.287 2.941-.108 3.787 1.408 7.857 1.408 7.857l1.131-3.231c.258-.498 1.095-7.204 5.112-7.763 4.015-.559 6.896 2.214 8.863 5.293 2.628 4.114 10.837 1.788 12.72-2.412" transform="matrix(-1 0 0 1 226.734 43)"/>
                    <path fill="#FAB08A" d="M45.538 16.009c-.094 1.468-.76 2.631-1.488 2.598-.728-.032-1.242-1.249-1.149-2.716.094-1.468.76-2.631 1.488-2.6.727.033 1.242 1.25 1.149 2.718" transform="matrix(-1 0 0 1 226.734 43)"/>
                    <path fill="#004472" d="M.36 69.832C.21 95.262 10.467 105 23.617 105h30.685l-1.704-25.43 23.52 9.78V77.382s-7.075-5.836-10.108-12.149c-3.032-6.311-7.233-28.197-18.101-29.305-3.13-.32-5.6 1.442-14.307-3.788C29.9 29.916.52 43.097.36 69.832z" transform="matrix(-1 0 0 1 226.734 43)"/>
                    <path fill="#1C2C57" d="M59.778 72.974c2.996-1.246 2.675-8.302-.473-9.117l-6.802-.06s-5.738 13.638-5.624 13.91c.076.184 3.752 5.143 6.16 8.384l-.404-6.02L76.118 90.38V78.335l-.831-.831c-5.59.94-18.069-3.465-15.509-4.53z" transform="matrix(-1 0 0 1 226.734 43)"/>
                    <path fill="#1C2C57" d="M24.888 62.116c.18 4.207-.927 26.444 5.294 25.115 6.222-1.329 10.816-15.052 16.192-11.012 5.376 4.04-2.59 26.354-4.578 27.527-1.989 1.174-23.46 2.278-14.216-.414 8.008-4.972 10.41-12.179 10.41-12.179l-.386-2.79-.671-.782-5.25 1.936s-7.45.838-9.706-3.055c-2.258-3.892-1.59-16.634-1.59-16.634l.902-7.711s3.378-5.19 3.6 0" transform="matrix(-1 0 0 1 226.734 43)"/>
                    <path fill="#1C2C57" d="M40.364 105c4.004-3.462 18.81-16.92-7.094-5.265C3.762 113.013 1.912 67.09 1.73 61.185l-.175-.046C.811 63.9.38 66.85.36 69.99.21 95.305 10.521 105 23.743 105h16.621z" transform="matrix(-1 0 0 1 226.734 43)"/>
                    <path fill="#004472" d="M42.22 39.873c-1.271 0-2.578-.24-3.873-.727-3.451-1.3-5.839-4.045-6.08-6.992-.122-1.485 1.005-2.784 2.518-2.904 1.513-.124 2.839.987 2.961 2.471.06.72 1.038 1.812 2.572 2.39.825.311 2.923.87 4.582-.668 1.104-1.02 2.843-.972 3.885.11 1.043 1.082.993 2.789-.11 3.812-1.782 1.652-4.052 2.508-6.455 2.508" transform="matrix(-1 0 0 1 226.734 43)"/>
                    <path fill="#232374" d="M23.57 105c-.484 0-.978-.033-1.483-.102-.198-.027-.336-.21-.31-.407.028-.198.207-.346.406-.31 9.744 1.316 15.441-11.747 15.983-13.054l-.793-3.325c-1.165.71-4.55 2.432-9.686 2.132-1.811-.106-3.315-.863-4.469-2.251-4.307-5.183-2.787-17.863-2.056-23.957.115-.957.207-1.73.249-2.255.016-.199.19-.343.388-.331.198.015.345.19.33.39-.042.53-.136 1.313-.252 2.283-.663 5.524-2.214 18.463 1.894 23.405 1.02 1.23 2.353 1.898 3.957 1.992 6.047.352 9.627-2.257 9.661-2.284.099-.073.226-.09.338-.05.113.043.199.139.227.258l.94 3.938c.016.073.011.148-.016.217-.056.144-5.474 13.71-15.307 13.711" transform="matrix(-1 0 0 1 226.734 43)"/>
                    <path fill="#272727" d="M53.58 54.735c7.267-1.962 11.582 8.633 7.914 10.227-3.666 1.595-12.75-8.915-7.914-10.227" transform="matrix(-1 0 0 1 226.734 43)"/>
                    <path fill="#FAB08A" d="M53.054 77.062c.089.013.183.025.278.025 1.402.048 2.57-1.163 2.61-2.703.04-1.64.128-5.051 2.106-7.11 1.018-1.06 1.06-2.823.094-3.936-.969-1.117-2.573-1.164-3.593-.104-3.496 3.643-3.633 8.982-3.683 10.994-.036 1.435.922 2.644 2.188 2.834" transform="matrix(-1 0 0 1 226.734 43)"/>
                    <path fill="#F29B8B" d="M54.273 67.34c-.364-.928-.618-1.847-.75-2.715.336-.49.715-.97 1.149-1.42.991-1.02 2.549-.975 3.49.101.938 1.072.898 2.77-.092 3.792-.902.928-1.393 2.152-1.667 3.345-.86-.768-1.63-1.819-2.13-3.103" transform="matrix(-1 0 0 1 226.734 43)"/>
                    <path fill="#FAB08A" d="M62.149 61.657c1.51 3.094.311 6.486-1.767 7.264-2.078.776-5.724-.841-7.233-3.936-1.508-3.092-1.447-6.056 1.77-7.26 4.699-1.766 5.72.837 7.23 3.932M76.832 93.038c-.17 0-.34-.056-.477-.17-.293-.245-.318-.664-.055-.938l2.56-2.658c.262-.274.714-.296 1.009-.052.292.246.317.665.054.938l-2.558 2.659c-.142.146-.337.221-.533.221" transform="matrix(-1 0 0 1 226.734 43)"/>
                    <path fill="#FAB08A" d="M75.062 92.233c0-.332 7.166-3.039 7.62-1.243.453 1.795-.756 3.756-9.222 3.314 0-1.16 1.602-2.071 1.602-2.071" transform="matrix(-1 0 0 1 226.734 43)"/>
                    <path fill="#00A7A7" d="M51.02 74.43c-3.753 1.985-12.969 29.77-12.054 30.035 1.099 0 26.08 1.562 25.166-.653-.915-2.215-3.96-24.65-3.96-24.65l-4.445-3.33-4.707-1.402z" transform="matrix(-1 0 0 1 226.734 43)"/>
                    <path fill="#00A7A7" d="M74.789 91.507l-.016-.001c-4.038-.363-8.739-1.357-11.522-4.521-1.524-1.733-1.564-3.887-1.567-6.068-.044-8.074-12.994-6.116-10.5 2.042 2.03 6.639 7.08 12.217 14.529 12.608 3.089.312 6.074.025 9.076-.5v-3.56z" transform="matrix(-1 0 0 1 226.734 43)"/>
                    <path fill="#008F91" d="M58.84 76.009c-1.722-.502-3.875-.233-5.317.69.766.239 1.709.39 2.623.39.714 0 1.408-.091 1.98-.303.414-.152.668-.453.714-.777M62.02 95.01c-3.387-1.095-6.576-4.149-7.107-4.63-.667 3.86 4.28 8.415 7.914 9.304-.25-1.357-.526-2.964-.807-4.674" transform="matrix(-1 0 0 1 226.734 43)"/>
                    <path fill="#00A7A7" d="M54.594 77.089c-1.208 0-2.468-.377-3.357-.944-1.251-.8-1.609-1.809-1.689-2.514-.102-.898.429-1.724 1.186-1.844.71-.113 1.367.436 1.528 1.247.442.551 2.402 1.087 3.265.593.688-.396 1.513-.053 1.846.763.332.815.044 1.796-.643 2.191-.617.354-1.366.508-2.136.508" transform="matrix(-1 0 0 1 226.734 43)"/>
                    <path fill="#008F91" d="M38.968 104.466c.801 0 13.934.782 21.2.453l-6.949-.17c-11.894-.291-4.712-21.688-1.18-30.13l-.655-.189c-3.865 1.985-13.358 29.77-12.416 30.036" transform="matrix(-1 0 0 1 226.734 43)"/>
                    <path fill="#272727" d="M52.435 74.69c1.014-2.634-.067-3.99-.01-9.574.027-2.51 4.015-2.973 5.39-5.058 3.354-5.103-2.271-8.038-6.12-6.472-4.392 1.785-4.189 9.263-4.566 10.046-.377.782-7.482 2.617-6.858 9.863.566 6.576 10.26 6.14 12.164 1.195" transform="matrix(-1 0 0 1 226.734 43)"/>
                    <path fill="#FAB08A" d="M50.96 63.47c.272 1.087 1.042 1.814 1.724 1.627.683-.187 1.016-1.222.745-2.304-.27-1.087-1.043-1.815-1.726-1.623-.679.186-1.016 1.217-.743 2.3M45.385 80.615c-.98-5.622-4.27 1.063-4.66 3.253-.299 1.683-1.653 3.576-3.151 4.477.004.016.015.033.019.05.127.62.41 1.39.413 1.98.198.01.324-.002.559.002 4.22.062 7.8-4.14 6.82-9.762" transform="matrix(-1 0 0 1 226.734 43)"/>
                    <path fill="#181615" d="M48.015 63.927s-.268-.05-.712-.13c-1.539.943-7.631 3.101-7.03 9.661.418 4.562 5.482 5.774 9.263 4.462-10.284-2.664-3.424-13.43-1.521-13.993" transform="matrix(-1 0 0 1 226.734 43)"/>
                </g>
            </g>
            <g mask="url(#prefix__b)">
                <g>
                    <path fill="#7B584C" d="M241.522 43.4H11.477C5.14 43.4 0 24.059 0 .2h253c0 23.859-5.141 43.2-11.478 43.2" transform="translate(11 146.8)"/>
                    <path fill="#816256" d="M11.477 37C5.14 37 0 24.106 0 8.2c15.111-2.333 36.778-3.5 65-3.5 16.47 0 100.458 4.577 126.5 5.5 12.154.43 32.654-.236 61.5-2 0 15.906-5.141 28.8-11.478 28.8H11.477z" transform="translate(11 146.8)"/>
                    <path fill="#6E4F43" d="M11.141 38C4.988 38 0 25.106 0 9.2c51.889 2 90.722 3 116.5 3 18.643 0 42.928-3.162 73.5-4 11.103-.304 29.637.029 55.6 1 0 15.906-4.991 28.8-11.142 28.8H11.14z" transform="translate(11 146.8)"/>
                </g>
            </g>
        </g>
        <g fill="#FFF">
            <path d="M6.484 24.703L2.058 26.721 4.077 22.296 2.099 17.924 6.469 19.904 10.896 17.884 8.876 22.311 10.525 26.352z" opacity=".64" transform="translate(57 75) rotate(-45 6.477 22.302)"/>
            <path d="M38.53 24.418L36.317 25.427 37.327 23.214 36.338 21.028 38.523 22.018 40.736 21.008 39.726 23.222 40.551 25.242z" opacity=".64" transform="translate(57 75) rotate(-45 38.527 23.218)"/>
            <path d="M20.938 10.942L15.406 13.465 17.929 7.933 15.457 2.468 20.919 4.943 26.453 2.417 23.928 7.952 25.989 13.003z" transform="translate(57 75) rotate(-45 20.93 7.941)"/>
            <path d="M52.063 45.093L48.744 46.606 50.258 43.287 48.775 40.008 52.052 41.494 55.373 39.978 53.857 43.299 55.094 46.33z" transform="translate(57 75) rotate(-45 52.058 43.292)"/>
        </g>
        <g fill="#FFF">
            <path d="M7.634 28.754L2.472 31.087 4.805 25.925 2.466 20.8 7.588 23.142 12.753 20.806 10.417 25.972 12.37 30.707z" opacity=".64" transform="translate(97 43) rotate(-45 7.61 25.944)"/>
            <path d="M45.296 28.413L42.715 29.58 43.882 26.999 42.712 24.436 45.273 25.608 47.856 24.44 46.688 27.022 47.664 29.39z" opacity=".64" transform="translate(97 43) rotate(-45 45.284 27.008)"/>
            <path d="M24.628 12.75L18.175 15.667 21.091 9.214 18.167 2.808 24.569 5.736 31.026 2.816 28.106 9.272 30.547 15.192z" transform="translate(97 43) rotate(-45 24.596 9.237)"/>
            <path d="M61.207 52.468L57.335 54.218 59.085 50.346 57.33 46.503 61.172 48.259 65.046 46.507 63.294 50.381 64.759 53.933z" transform="translate(97 43) rotate(-45 61.188 50.36)"/>
        </g>
    </g>
</svg>
