<svg xmlns="http://www.w3.org/2000/svg" xmlns:xlink="http://www.w3.org/1999/xlink" width="52" height="75" viewBox="0 0 52 75">
    <defs>
        <path id="a" d="M28.3 62.248c12.882 0 23.325-10.249 23.325-22.892C51.625 26.713 40.249.182 27.367.182 14.486.182.172 20.955.172 33.598c0 12.643 15.247 28.65 28.128 28.65z"/>
    </defs>
    <g fill="none" fill-rule="evenodd">
        <g transform="translate(2.115 12.716)">
            <mask id="b" fill="#fff">
                <use xlink:href="#a"/>
            </mask>
            <g mask="url(#b)">
                <path fill="#005960" d="M62.63 61.225L49.14 76.051l-17.56-15.615 12.738-15.099z"/>
                <path fill="#000" d="M31.64 60.423c.471.42 1.397.27 2.576-.327l-2.518-2.243c-.476 1.223-.53 2.15-.059 2.57M44.467 45.416c-.472-.42-1.398-.27-2.577.327l2.518 2.243c.476-1.223.53-2.15.059-2.57"/>
                <path fill="#FAB08A" d="M31.414 57.823l2.507 2.369c1.71-.914 3.954-2.832 6.11-5.346 2.156-2.514 3.738-5.058 4.425-6.938l-2.738-2.417c-1.71.914-3.723 2.88-5.88 5.393-2.155 2.514-3.737 5.058-4.424 6.939z"/>
                <path fill="#F79C82" d="M16.711 24.453s-6.066-5.018-4.834-6.417c1.233-1.399 6.537 2.918 6.537 2.918"/>
                <g transform="rotate(-3 226.101 -274.112)">
                    <path fill="#005960" d="M4.966.087l13.6.703c1.734.09 3.066 1.547 2.975 3.255L19.918 34.57c-.091 1.708-1.57 3.02-3.303 2.931l-13.6-.703C1.28 36.707-.052 35.25.04 33.542L1.663 3.018C1.754 1.31 3.233-.002 4.966.087z"/>
                    <path fill="#FFF" d="M5.052 1.32l13.39.691c1.272.066 2.248 1.135 2.182 2.388l-1.58 29.698c-.066 1.253-1.15 2.216-2.421 2.15L3.23 35.555c-1.27-.065-2.247-1.134-2.18-2.387L2.628 3.469c.067-1.252 1.152-2.215 2.423-2.15z"/>
                    <ellipse cx="8.73" cy="3.164" fill="#D7DDDC" rx="1" ry="1" transform="rotate(3 8.73 3.164)"/>
                    <path fill="#D7DDDC" d="M10.002 2.92l3.557.183a.311.311 0 0 1 .298.326.313.313 0 0 1-.33.293l-3.558-.184a.311.311 0 0 1-.297-.325.313.313 0 0 1 .33-.293z"/>
                </g>
                <path fill="#FAB08A" d="M19.474 48.25l11.845.022c-.262-7.844 4.949-15.863 4.949-15.863l-.004-10.048c.344-3.418 2.202-3.591 2.202-3.591l2.856 11.077c.158.613.223 1.246.194 1.879l-.586 12.678.01.047.778 1.04c-1.733.895-.825 5.337-3.012 7.794-2.187 2.457-6.593 2.701-7.292 4.538l-11.94-9.573z"/>
                <path fill="#F79C82" d="M31.319 48.272s.273 3.469 1.47 5.828l-13.315-5.85 11.845.022zM17.395 36.547l-4.194-4.648c-1.102-1.22-1.228-3.07-.231-4.379.188-.247.407-.465.651-.639l6.614-4.716s1.579 2.57-1.742 5.786l-2.858 2.804 1.76 5.792z"/>
                <path fill="#FAB08A" d="M15.378 38.686l-1.939-2.187c-1.1-1.24-1.227-3.117-.234-4.444a3.07 3.07 0 0 1 .648-.648l6.588-4.78s1.684 2.756-1.79 5.816l-2.786 2.897.749 2.502-1.236.844z"/>
                <path fill="#FAB08A" d="M16.446 39.985l2.553-3.102c3.238-3.365 1.327-5.776 1.327-5.776l-6.243 5.379c-.23.198-.43.438-.597.704-.88 1.404-.56 3.233.686 4.334l2.25 1.987.024-3.526z"/>
                <path fill="#009792" d="M41.44 62.475a1.837 1.837 0 0 1-1.749 1.922 1.837 1.837 0 0 1-1.94-1.728 1.837 1.837 0 0 1 1.749-1.922 1.837 1.837 0 0 1 1.94 1.728"/>
            </g>
        </g>
        <g fill-rule="nonzero">
            <path fill="#FF872F" d="M29.266 47.249a5.53 5.53 0 0 1-5.534-5.528 5.53 5.53 0 0 1 5.534-5.527 5.53 5.53 0 0 1 5.535 5.527 5.53 5.53 0 0 1-5.535 5.528z"/>
            <path fill="#FFF" d="M28.285 42.596l3.235-3.121.906.874-4.14 3.994-2.188-2.11.905-.874z"/>
        </g>
        <path fill="#009C9C" d="M9.64 21.972l-3.716 1.485.295-3.918-2.592-3 3.899-.936 2.115-3.339 2.115 3.34 3.899.936-2.592 3 .295 3.917z"/>
        <path fill="#00BCBC" fill-rule="nonzero" d="M46.447 13.445l.152.252-.574.343.345.572-.25.15-.345-.572-.575.343-.152-.252.575-.343-.345-.571.25-.15.345.571zM1.772 22.384l.152.252-.575.343.345.571-.25.15-.345-.572-.574.344-.152-.252.574-.343-.345-.572.25-.15.345.572zM33.202 6.35l.152.252-.574.344.345.57-.25.15-.345-.57-.575.342-.152-.251.575-.344-.346-.571.25-.15.346.572zM12.825 5.337l.152.252-.575.343.346.571-.25.15-.346-.571-.574.343-.152-.252L12 5.83l-.345-.571.25-.15.345.571z"/>
        <path fill="#009C9C" d="M35.906 16.496l-2.435.973.193-2.567-1.699-1.966 2.555-.613 1.386-2.188 1.386 2.188 2.555.613-1.699 1.966.193 2.567zM22.66 6.36l-2.435.974.193-2.567L18.72 2.8l2.555-.613L22.66 0l1.386 2.188L26.6 2.8l-1.698 1.966.193 2.567z"/>
    </g>
</svg>
