<svg xmlns="http://www.w3.org/2000/svg" width="75" height="87" viewBox="0 0 75 87">
    <g fill="none" fill-rule="evenodd">
        <path fill="#98D5D4" d="M8.193 79.713a.946.946 0 0 1-.942-.945V13.469H1.018a.946.946 0 0 0-.942.946V77.66a46.516 46.516 0 0 0 8.87 9.252h52.072a.946.946 0 0 0 .942-.946v-6.254H8.193"/>
        <path fill="#CBF1F1" d="M14.41 72.907a.946.946 0 0 1-.942-.945V6.806h-5.81a.946.946 0 0 0-.941.945v71.552c0 .52.423.946.942.946h60a.946.946 0 0 0 .942-.946v-6.396H14.41"/>
        <path fill="#FFF" d="M74.817 72.498c0 .52-.424.945-.942.945h-60a.946.946 0 0 1-.941-.945V.945c0-.52.423-.945.941-.945h60c.518 0 .942.425.942.945v71.553"/>
        <path fill="#E26428" d="M20.815 40.3h5.509c0-3.052 2.466-5.528 5.508-5.528v-5.528c-6.084 0-11.017 4.95-11.017 11.057"/>
        <path fill="#F0D055" d="M31.886 29.244v5.528c3.043 0 5.51 2.475 5.51 5.529h5.508c0-6.107-4.933-11.057-11.018-11.057"/>
        <path fill="#F49D39" d="M37.341 40.365c0 3.053-2.466 5.529-5.508 5.529-3.043 0-5.51-2.476-5.51-5.529h-5.508c0 6.107 4.933 11.057 11.017 11.057 6.085 0 11.018-4.95 11.018-11.057h-5.509M26.6 22.055V8.852a.568.568 0 0 0-.565-.567H22.61a.568.568 0 0 0-.565.567v13.203H26.6"/>
        <path fill="#E26428" d="M33.981 21.758v-9.61a.568.568 0 0 0-.565-.568h-3.425a.568.568 0 0 0-.565.568v9.61h4.555"/>
        <path fill="#F0D055" d="M41.363 21.94v-5.262a.568.568 0 0 0-.566-.567h-3.425a.568.568 0 0 0-.565.567v5.263h4.556"/>
        <path fill="#98D5D4" d="M42.474 24.302H20.662c-.595 0-1.078-.635-1.078-1.418 0-.783.483-1.418 1.078-1.418h21.812c.595 0 1.077.635 1.077 1.418 0 .783-.482 1.418-1.077 1.418"/>
        <path fill="#007F7E" fill-opacity=".248" d="M69.16 34.895H50.84c-.267 0-.483.381-.483.852v1.702c0 .47.216.852.482.852h18.322c.266 0 .482-.382.482-.852v-1.702c0-.47-.216-.852-.482-.852zM50.653 45.111h11.212c.163 0 .295-.381.295-.851v-1.703c0-.47-.132-.851-.295-.851H50.652c-.163 0-.295.381-.295.851v1.703c0 .47.132.851.295.851zm18.509-33.296H50.839c-.266 0-.482.381-.482.851v1.703c0 .47.216.851.482.851h18.322c.266 0 .482-.381.482-.851v-1.703c0-.47-.216-.851-.482-.851zm-18.804 9.743v-1.703c0-.47.132-.851.295-.851h11.212c.163 0 .295.381.295.851v1.703c0 .47-.132.851-.295.851H50.652c-.163 0-.295-.381-.295-.851z"/>
        <path fill="#C0E0DF" d="M21.429 56.926h48.214v4.296H21.429zM21.429 64.444h48.214v4.296H21.429z"/>
    </g>
</svg>
