<svg xmlns="http://www.w3.org/2000/svg" width="450" height="345" viewBox="0 0 450 345">
    <defs>
        <filter id="a" width="135.2%" height="140%" x="-17.6%" y="-20%" filterUnits="objectBoundingBox">
            <feOffset dx="-5" dy="-1" in="SourceAlpha" result="shadowOffsetOuter1"/>
            <feGaussianBlur in="shadowOffsetOuter1" result="shadowBlurOuter1" stdDeviation="1.5"/>
            <feColorMatrix in="shadowBlurOuter1" result="shadowMatrixOuter1" values="0 0 0 0 0 0 0 0 0 0 0 0 0 0 0 0 0 0 0.134915865 0"/>
            <feMerge>
                <feMergeNode in="shadowMatrixOuter1"/>
                <feMergeNode in="SourceGraphic"/>
            </feMerge>
        </filter>
    </defs>
    <g fill="none" fill-rule="evenodd">
        <path stroke="#F5FAFB" stroke-linecap="round" stroke-width="10" d="M169 268l67.873-60.508L250.306 268 391 127"/>
        <path fill="#008486" d="M357.541 263.6c-18.242-14.37-68.631-.28-143.134-3.693-74.504-3.414-165.318-3.36-145.696 19.94 10.128 12.026 30.943 16.366 161.83 16.366 120.5 0 145.242-18.243 127-32.613z"/>
        <g fill="#FEDD00">
            <path d="M136.83 234.833l-7.875 32.644c-2.406 1.75-4.509 3.034-6.309 3.853-1.8.818-3.45 1.403-4.947 1.755l8.373-39.276c1.052-.642 2.55-.994 4.494-1.056 1.944-.063 4.032.63 6.263 2.08zM122.918 235.735l-7.466 37.878c-1.04.312-1.79.488-2.246.529-.457.04-1.055-.017-1.793-.171l7.012-37.18a4.468 4.468 0 0 1 1.577-.962c.59-.21 1.562-.24 2.916-.094z"/>
        </g>
        <path fill="#F1A11F" d="M114.9 238.748c-12.364 11.266-20.626 26.852-13.176 35.227 2.694 3.029 7.346 8.053 12.638 9.159 9.342 1.951 20.823-2.515 28.076-10.322 15.441-16.623 13.037-25.799 12.161-30.174-.714-3.572-3.419-5.91-5.67-8.441-7.45-8.376-21.666-6.715-34.03 4.551z"/>
        <path fill="#FEE600" d="M109.958 235.54c-12.363 11.265-16.476 28.726-9.026 37.102 7.45 8.375 23.512 6.032 35.876-5.234 12.363-11.265 17.173-28.297 9.723-36.673-7.45-8.375-24.21-6.462-36.573 4.804z"/>
        <path fill="#EFA71F" d="M112.09 239.241c-10.535 9.497-14.504 23.792-7.581 32.084 6.923 8.291 19.015 5.706 30.147-4.145 11.13-9.852 15.488-23.908 8.913-31.22-6.575-7.31-20.943-6.216-31.479 3.281z"/>
        <path fill="#FDC010" d="M111.865 241.6c-11.332 11.619-11.64 23.755-6.281 30.082 5.358 6.326 17.995 5.305 29.072-4.502 11.077-9.808 15.527-22.405 9.12-29.528-6.405-7.123-20.579-7.67-31.911 3.948z"/>
        <g fill="#FEDD00">
            <path d="M136.83 234.833l-7.875 32.644c-2.406 1.75-4.509 3.034-6.309 3.853-1.8.818-3.45 1.403-4.947 1.755l8.373-39.276c1.052-.642 2.55-.994 4.494-1.056 1.944-.063 4.032.63 6.263 2.08zM122.918 235.735l-7.466 37.878c-1.04.312-1.79.488-2.246.529-.457.04-1.055-.017-1.793-.171l7.012-37.18a4.468 4.468 0 0 1 1.577-.962c.59-.21 1.562-.24 2.916-.094z"/>
        </g>
        <path fill="#FFF" d="M112.87 260.36c-1.873-2.028-2.88-3.635-3.018-4.821-.138-1.187.466-3.02 1.814-5.5-2.011 1.973-3.646 3.137-4.904 3.493-1.258.356-3.135.09-5.633-.796 1.799 1.954 2.805 3.562 3.019 4.822.214 1.26-.185 3.226-1.196 5.9 1.593-2.201 3.021-3.499 4.286-3.894 1.264-.395 3.142-.13 5.633.797z"/>
        <g filter="url(#a)" transform="rotate(-168 121.938 140.444)">
            <g fill="#FEDD00">
                <path d="M18.1 42.333l37.73-13.53c3.31 1.289 5.957 2.577 7.943 3.866 1.986 1.288 3.64 2.577 4.965 3.865L24.057 53.93c-1.324-.645-2.648-1.933-3.972-3.866-1.324-1.933-1.986-4.51-1.986-7.731zM28.029 55.862l42.695-17.395c.986.852 1.648 1.496 1.985 1.933.337.437.668 1.082.993 1.933L32 59.728a5.288 5.288 0 0 1-1.986-.966c-.592-.461-1.254-1.428-1.985-2.9z"/>
            </g>
            <path fill="#F1A11F" d="M37.228 62.283c19.89 5.303 41.488 3.349 45.134-10.193 1.319-4.896 3.384-13.212.981-19.526C79.101 21.417 66.811 12.4 53.908 10.108 26.435 5.227 18.585 14.014 14.66 17.92c-3.204 3.187-3.804 7.625-4.906 11.716-3.647 13.542 7.583 27.345 27.473 32.648z"/>
            <path fill="#FEE600" d="M37.228 69.664c19.89 5.303 40.643-2.29 44.29-15.832 3.646-13.541-9.522-28.818-29.412-34.121-19.89-5.303-40.667 1.264-44.314 14.805-3.646 13.542 9.546 29.845 29.436 35.148z"/>
            <path fill="#EFA71F" d="M38.806 65.114c16.848 4.596 34.246-.997 38.16-13.948 3.913-12.952-6.85-23.91-24.462-28.892-17.612-4.981-35.024.04-38.16 11.955-3.136 11.916 7.613 26.288 24.462 30.885z"/>
            <path fill="#FDC010" d="M41.39 63.739c19.568 3.985 32.288-3.985 35.224-13.948 2.935-9.963-6.58-22.563-24.11-27.517-17.53-4.954-33.5-1.029-36.555 10.58-3.055 11.61 5.871 26.9 25.44 30.885z"/>
            <g fill="#FEDD00">
                <path d="M18.1 42.333l37.73-13.53c3.31 1.289 5.957 2.577 7.943 3.866 1.986 1.288 3.64 2.577 4.965 3.865L24.057 53.93c-1.324-.645-2.648-1.933-3.972-3.866-1.324-1.933-1.986-4.51-1.986-7.731zM28.029 55.862l42.695-17.395c.986.852 1.648 1.496 1.985 1.933.337.437.668 1.082.993 1.933L32 59.728a5.288 5.288 0 0 1-1.986-.966c-.592-.461-1.254-1.428-1.985-2.9z"/>
            </g>
            <path fill="#FFF" d="M27.019 22.49c-.851 3.441-1.851 5.652-3 6.632-1.15.98-3.483 1.612-7 1.895 3.436.788 5.77 1.735 7 2.842 1.23 1.107 2.23 3.317 3 6.631.824-3.307 1.824-5.518 3-6.631 1.175-1.113 3.508-2.06 7-2.842-3.392-.176-5.726-.808-7-1.895-1.275-1.087-2.275-3.298-3-6.632z"/>
        </g>
        <g transform="translate(76.893 31)">
            <rect width="202" height="184" x="1" fill="#185C6B" rx="30"/>
            <path fill="#FFF" d="M33 12h139c11.046 0 20 8.954 20 20v120c0 11.046-8.954 20-20 20H33c-11.046 0-20-8.954-20-20V32c0-11.046 8.954-20 20-20z"/>
            <path fill="#F1F1F1" d="M13 95h176.346l14.853 39.75c2.9 7.76-1.041 16.402-8.801 19.301a15 15 0 0 1-5.25.949H15.502c-8.284 0-15-6.716-15-15a15 15 0 0 1 .6-4.199L13 95z"/>
            <path fill="#005960" fill-rule="nonzero" d="M74.782 53.096v-5.677l-4.37-6.774c-.383-.61-.653-1.087-.812-1.429-.159-.341-.238-.639-.238-.89 0-.416.16-.774.482-1.075.322-.301.718-.452 1.19-.452.497 0 .873.14 1.13.421.256.281.64.84 1.153 1.679l3.345 5.432 3.381-5.432.513-.842a5.21 5.21 0 0 1 .458-.641c.166-.2.351-.352.555-.458.203-.106.452-.159.745-.159.455 0 .836.149 1.14.446.306.297.459.64.459 1.031 0 .318-.078.635-.232.953-.155.317-.42.756-.794 1.318l-4.48 6.872v5.677c0 .74-.17 1.294-.512 1.66-.342.366-.778.55-1.307.55-.537 0-.972-.182-1.306-.544-.333-.362-.5-.918-.5-1.666zm18.878-3.748h-6.518c.008.757.16 1.424.457 2.002.297.578.692 1.013 1.185 1.306.492.293 1.035.44 1.63.44.398 0 .762-.047 1.092-.14.33-.094.649-.24.958-.44.31-.2.594-.413.854-.641.26-.228.599-.537 1.014-.928.17-.146.415-.22.732-.22.342 0 .619.094.83.281.212.187.318.452.318.794 0 .3-.118.653-.354 1.056s-.593.79-1.069 1.16c-.476.37-1.074.677-1.794.921s-1.548.366-2.484.366c-2.14 0-3.805-.61-4.993-1.83-1.188-1.222-1.782-2.878-1.782-4.97 0-.984.146-1.897.44-2.74a6.042 6.042 0 0 1 1.281-2.166 5.558 5.558 0 0 1 2.075-1.386c.822-.321 1.734-.482 2.735-.482 1.302 0 2.419.275 3.35.824.932.55 1.63 1.26 2.094 2.13.464.87.696 1.758.696 2.661 0 .838-.24 1.382-.72 1.63s-1.156.372-2.027.372zm-6.518-1.892h6.042c-.081-1.14-.388-1.992-.921-2.557-.534-.566-1.235-.849-2.106-.849-.83 0-1.512.287-2.045.86-.533.575-.856 1.423-.97 2.546zm20.245 5.97c-.805.626-1.585 1.096-2.337 1.41-.753.313-1.597.47-2.533.47-.855 0-1.606-.17-2.253-.507-.646-.338-1.145-.796-1.495-1.374a3.563 3.563 0 0 1-.525-1.88c0-.911.29-1.688.867-2.331.578-.643 1.371-1.074 2.38-1.294a88.44 88.44 0 0 1 1.575-.33c.838-.17 1.556-.327 2.155-.47a41.21 41.21 0 0 0 1.947-.518c-.041-.88-.218-1.524-.531-1.935-.314-.411-.963-.617-1.947-.617-.847 0-1.484.118-1.91.354-.428.236-.794.59-1.1 1.062-.305.472-.52.784-.646.934-.127.15-.397.226-.812.226a1.42 1.42 0 0 1-.97-.36 1.173 1.173 0 0 1-.41-.922c0-.586.208-1.155.623-1.709.415-.553 1.062-1.009 1.94-1.367.88-.358 1.974-.537 3.285-.537 1.464 0 2.616.173 3.454.519.838.346 1.43.893 1.776 1.642.346.748.519 1.741.519 2.978a273.162 273.162 0 0 1-.024 3.809c0 .626.103 1.28.31 1.959.208.68.312 1.117.312 1.312 0 .342-.16.653-.482.934-.321.28-.686.421-1.093.421-.341 0-.679-.16-1.013-.482-.333-.321-.687-.787-1.062-1.398zm-.22-4.822c-.488.179-1.198.368-2.13.567-.931.2-1.576.346-1.934.44-.358.093-.7.276-1.026.549-.325.273-.488.653-.488 1.141 0 .505.191.934.574 1.288.382.354.883.531 1.501.531.66 0 1.268-.144 1.825-.433.558-.29.966-.661 1.227-1.117.301-.505.452-1.335.452-2.49v-.476zm9.712 1.892v2.783c0 .675-.16 1.182-.477 1.52-.317.337-.72.506-1.208.506-.48 0-.875-.17-1.184-.513-.31-.341-.464-.846-.464-1.513V44c0-1.497.541-2.246 1.624-2.246.553 0 .952.175 1.196.525.244.35.378.867.403 1.55.398-.683.807-1.2 1.226-1.55.42-.35.979-.525 1.679-.525.7 0 1.38.175 2.038.525.66.35.99.814.99 1.392 0 .407-.141.742-.422 1.007-.28.264-.584.397-.91.397-.121 0-.416-.076-.884-.226-.468-.15-.881-.226-1.24-.226-.488 0-.886.128-1.196.385-.309.256-.549.636-.72 1.14-.17.505-.289 1.106-.354 1.801a27.964 27.964 0 0 0-.097 2.546zm17.499.451c0 .92-.224 1.707-.672 2.362-.447.655-1.109 1.152-1.984 1.49-.874.337-1.938.506-3.192.506-1.196 0-2.221-.183-3.076-.55-.854-.365-1.485-.823-1.892-1.372-.407-.55-.61-1.101-.61-1.654 0-.367.13-.68.39-.94.26-.26.59-.391.99-.391.35 0 .618.085.805.256.187.171.366.411.537.72.342.595.75 1.038 1.227 1.331.476.293 1.125.44 1.947.44.667 0 1.214-.149 1.642-.446.427-.297.64-.637.64-1.02 0-.585-.221-1.012-.665-1.281-.443-.269-1.174-.525-2.191-.77-1.147-.284-2.081-.583-2.802-.896-.72-.314-1.295-.727-1.727-1.24-.431-.512-.647-1.143-.647-1.891 0-.668.2-1.298.598-1.893.4-.594.987-1.068 1.764-1.422.777-.354 1.715-.53 2.814-.53.863 0 1.638.089 2.325.268.688.179 1.262.419 1.722.72.46.301.81.635 1.05 1.001.24.366.36.724.36 1.074 0 .383-.129.696-.385.94s-.62.366-1.092.366c-.342 0-.633-.097-.873-.292-.24-.196-.515-.489-.824-.88a3.012 3.012 0 0 0-.891-.78c-.342-.196-.806-.294-1.392-.294-.602 0-1.103.129-1.501.385-.4.256-.599.576-.599.958 0 .35.147.637.44.86.293.225.688.41 1.184.556.496.147 1.18.326 2.05.537 1.034.253 1.879.554 2.534.904.655.35 1.151.763 1.489 1.239.338.476.507 1.019.507 1.63z"/>
        </g>
        <g>
            <g fill="#FFA32C">
                <path d="M277.27 235.812c-2.494 3.003-4.092 4.806-4.794 5.408-.702.601-1.872 2.762-3.51 6.481-1.544 3.13-2.173 4.86-1.885 5.185.287.327 1.354-1.186 3.2-4.537 1.735-2.728 2.874-4.325 3.417-4.79.543-.466 2.165-2.559 4.866-6.28.17-.465.112-.861-.176-1.187-.287-.326-.66-.42-1.119-.28z"/>
                <path d="M252.83 260.52c.477.399 4.404-1.795 5.845-1.062 1.794.912-.261 3.899 2.18 3.135 1.05-.328 3.215-.434 6.665-2.073 2.72-1.291 4.6-5.122 3.51-7.3-.488-.976-4.304-1.222-8.942 0-5.71 1.505-12.174 4.862-9.258 7.3z"/>
            </g>
            <g fill="#FFA32C">
                <path d="M323.492 241.077c1.229 3.704 1.912 6.013 2.051 6.927.138.913 1.353 3.05 3.643 6.408 1.839 2.967 2.973 4.415 3.403 4.345.429-.071-.29-1.777-2.156-5.116-1.397-2.916-2.15-4.727-2.257-5.433-.107-.707-1.024-3.19-2.752-7.45-.305-.39-.672-.551-1.102-.48-.429.07-.706.337-.83.8z"/>
                <path d="M326.963 256.975c-2.18.544-14.525 2.757-9.24 7.176.477.399 4.404-1.795 5.846-1.062 1.794.912-.262 3.899 2.18 3.135 1.05-.328 3.215-.434 6.665-2.073 2.72-1.291 7.085-4.311 5.995-6.489-1.09-2.178-9.265-1.232-11.446-.687z"/>
            </g>
            <path fill="#03B5B5" d="M259.917 100.857c-5.803-3.997-10.198-4.473-13.185-1.428-2.986 3.046-3.895 9.942-2.725 20.69l15.91-19.262zM321.46 114.579c1.212-10.45-.064-16.382-3.827-17.797-3.765-1.415-8.062-.224-12.892 3.575l16.72 14.222z"/>
            <path fill="#00BCBC" d="M334.149 221.356c4.912-22.083-6.54-42.933-6.54-63.156v-30.489c-17.808 6.698-32.124 10.046-42.95 10.046-6.866 0-20.71 5-41.533 14.999-.838 20.354.797 36.688 4.906 49 5.539 16.6 16.565 35.219 36.518 42.466 11.99 4.356 37.063 0 41.968-3.266 5.93-3.95 6.54-14.7 7.63-19.6z"/>
            <path fill="#00BCBC" d="M285.192 177.661c12.886 0 39.613-1.746 48.53-7.99 2.068-1.448-.685-7.388-.118-21.815 1.09-27.767-5.45-39.745-17.987-47.367-10.082-6.13-25.638-8.728-35.973-8.712-18.596.03-28.622 11.74-30.826 14.26-5.942 6.79-12.262 17.58-10.13 34.093 2.134 16.514 15.9 37.531 46.504 37.531z"/>
            <path fill="#FFF" d="M278.009 117.911c1.034-1.377 3.018-5.195 7.63-7.622 2.684-1.412 8.671-1.089 13.082-1.089 8.175 0 16.896 4.356 20.241 14.97 3.346 10.616 1.962 27.095-8.795 34.574-10.14 7.051-25.421 8.323-27.24 8.168-25.63-2.179-39.264-14.96-39.802-27.782-.538-12.822 1.592-23.47 10.757-28.85 4.59-2.695 11.632-2.022 15.406-1.08 4.36 1.089 7.086 4.9 8.721 8.711z" opacity=".901"/>
            <g fill="#008181" transform="translate(257.297 130.978)">
                <ellipse cx="36.579" cy="4.9" rx="3.876" ry="4.9"/>
                <ellipse cx="3.876" cy="4.9" rx="3.876" ry="4.9"/>
            </g>
            <path fill="#FFA32C" d="M277.723 133.185c-1.986-.544-5.703 6.69-6.999 9.277-.19.379-.346 1.009-.346 1.553 0 1.95 4.597 9.83 7.345 9.83 2.774 0 6.827-6.36 6.827-9.83 0-1.024-3.93-10.037-6.827-10.83z"/>
            <path fill="#E38D1D" d="M271.473 144.08c.19-.25 3.695 1.045 5.802 1.045 1.892 0 6.382-1.314 6.178-1.044-.205.27-4.66 5.599-6.129 5.403-.578-.078-6.041-5.152-5.85-5.403z"/>
            <path fill="#008181" d="M242.702 155.376c-7.483 12.274-12.43 22.833-14.837 31.68-1.384 5.403 3.622 28.188 10.356 29.944 13.492 3.307 38.836-21.109 44.29-27.166 2.487-2.762 2.639-10.84-2.844-12.587 4.386-3.931 2.224-12.728-4.387-12.668 9.202-2.582 25.854-7.566 28.682-10.046 2.828-2.48-23.89-1.959-26.867-.874-10.227 3.727-29.736 15.396-33.15 17.91 0-4.66-.414-10.057-1.243-16.193z"/>
            <path fill="#FF9445" d="M331.874 154.932c-2.864-.178-6.189 5.604-11.75 21.614-1.29 3.71-2.731 11.463 3.758 16.91-3.376 7.844-.57 17.937 7.297 18.42-1.284 10.006 1.455 19.685 3.465 18.605 2.657-.815 17.002-29.95 10.808-57.495-2.625-11.674-10.713-17.875-13.578-18.054z"/>
        </g>
        <path fill="#118C8C" fill-rule="nonzero" d="M151.84 155.648v-35.546c-6.616 5.078-11.069 7.617-13.36 7.617-1.094 0-2.064-.436-2.91-1.309-.847-.872-1.27-1.881-1.27-3.027 0-1.328.417-2.305 1.25-2.93s2.305-1.432 4.414-2.422c3.151-1.484 5.67-3.047 7.559-4.687a31.985 31.985 0 0 0 5.02-5.508c1.458-2.031 2.408-3.281 2.85-3.75.443-.469 1.277-.703 2.5-.703 1.381 0 2.488.534 3.321 1.601.833 1.068 1.25 2.54 1.25 4.414v44.727c0 5.234-1.784 7.852-5.351 7.852-1.589 0-2.865-.534-3.829-1.602-.963-1.068-1.445-2.643-1.445-4.727zm61.191-42.265h-18.554l-2.227 12.656c3.698-1.98 7.11-2.969 10.234-2.969 2.5 0 4.838.47 7.012 1.407a18.043 18.043 0 0 1 5.723 3.886c1.64 1.654 2.93 3.614 3.867 5.88.937 2.265 1.406 4.7 1.406 7.304 0 3.776-.846 7.213-2.539 10.312-1.693 3.1-4.134 5.56-7.324 7.383-3.19 1.823-6.869 2.735-11.035 2.735-4.662 0-8.444-.86-11.348-2.579-2.904-1.718-4.96-3.691-6.172-5.918-1.21-2.226-1.816-4.173-1.816-5.84 0-1.015.423-1.979 1.27-2.89.846-.911 1.907-1.367 3.183-1.367 2.187 0 3.815 1.263 4.883 3.789 1.041 2.318 2.448 4.121 4.219 5.41 1.77 1.29 3.75 1.934 5.937 1.934 2.005 0 3.763-.521 5.273-1.563 1.51-1.042 2.676-2.474 3.497-4.297.82-1.823 1.23-3.893 1.23-6.21 0-2.5-.443-4.636-1.328-6.407-.886-1.77-2.07-3.092-3.555-3.965-1.484-.872-3.138-1.308-4.96-1.308-2.24 0-3.842.273-4.805.82-.964.547-2.35 1.504-4.16 2.871s-3.301 2.05-4.473 2.05c-1.276 0-2.41-.461-3.399-1.386-.99-.924-1.484-1.973-1.484-3.144 0-.13.143-1.016.43-2.657l3.28-18.71c.365-2.24 1.043-3.868 2.032-4.883.99-1.016 2.604-1.524 4.844-1.524h20.625c4.062 0 6.094 1.55 6.094 4.649 0 1.354-.495 2.447-1.485 3.28-.99.834-2.448 1.25-4.375 1.25z"/>
        <path fill="#FFF" d="M406.03 111.649l-5.112 31.206-25.897-25.007z"/>
    </g>
</svg>
