<svg xmlns="http://www.w3.org/2000/svg" width="16" height="16" viewBox="0 0 16 16">
    <g fill="none" fill-rule="evenodd">
        <g fill="#9B9B9B" fill-rule="nonzero">
            <g>
                <g>
                    <g>
                        <path d="M11.857 8.69c.91-.528 1.524-1.514 1.524-2.64 0-1.682-1.368-3.05-3.05-3.05-1.682 0-3.05 1.368-3.05 3.05 0 1.126.613 2.112 1.523 2.64-.534.186-1.023.468-1.45.823-.328-.393-.736-.715-1.201-.94.53-.445.867-1.113.867-1.858 0-1.337-1.088-2.425-2.425-2.425-1.337 0-2.425 1.088-2.425 2.425 0 .745.338 1.413.868 1.858C1.833 9.155 1 10.388 1 11.813c0 .44.356.796.796.796H5.69v-.002c-.018.163-.03.329-.03.497 0 .439.357.795.796.795h7.747c.44 0 .796-.356.796-.795 0-2.04-1.316-3.78-3.143-4.413zM8.076 6.05c0-1.245 1.01-2.255 2.254-2.255 1.246 0 2.255 1.01 2.255 2.255 0 1.245-1.01 2.255-2.255 2.255-1.245 0-2.254-1.01-2.254-2.255zm-5.11.665c0-.9.73-1.63 1.63-1.63.9 0 1.629.73 1.629 1.63 0 .9-.73 1.63-1.63 1.63-.9 0-1.63-.73-1.63-1.63zm2.88 5.098h-4.05c0-1.546 1.253-2.8 2.8-2.8.886 0 1.675.414 2.188 1.058l.004-.004c-.43.501-.754 1.095-.942 1.746zm.611 1.29c0-2.139 1.735-3.873 3.874-3.873 2.139 0 3.873 1.734 3.873 3.874H6.457z" transform="translate(-79 -647) translate(-13 552) translate(0 28) translate(92 67)"/>
                    </g>
                </g>
            </g>
        </g>
    </g>
</svg>
