<svg xmlns="http://www.w3.org/2000/svg" width="62" height="38" viewBox="0 0 62 38">
    <g fill="none" fill-rule="evenodd">
        <g fill="#FF872F">
            <path d="M25.5 5c0 .276-.291.5-.65.5h-4.7c-.359 0-.65-.224-.65-.5s.291-.5.65-.5h4.7c.359 0 .65.224.65.5M26 33.5c0 .276-.306.5-.682.5H11.682c-.377 0-.682-.224-.682-.5s.305-.5.682-.5h13.636c.376 0 .682.224.682.5M16.5 5c0 .276-.291.5-.65.5h-4.7c-.359 0-.65-.224-.65-.5s.291-.5.65-.5h4.7c.359 0 .65.224.65.5M20 10.5c0 .276-.29.5-.648.5h-7.704c-.358 0-.648-.224-.648-.5s.29-.5.648-.5h7.704c.358 0 .648.224.648.5M9 15.5c0 .276-.27.5-.604.5H6.604C6.27 16 6 15.776 6 15.5s.27-.5.604-.5h1.792c.334 0 .604.224.604.5M6.5 22c0 .276-.325.5-.727.5H1.227C.825 22.5.5 22.276.5 22s.325-.5.727-.5h4.546c.402 0 .727.224.727.5M17 21.5c0 .276-.303.5-.676.5h-5.648c-.373 0-.676-.224-.676-.5s.303-.5.676-.5h5.648c.373 0 .676.224.676.5M14.5 28c0 .276-.299.5-.667.5H7.167c-.368 0-.667-.224-.667-.5s.299-.5.667-.5h6.666c.368 0 .667.224.667.5"/>
        </g>
        <circle cx="43" cy="19" r="19" fill="#FF872F" fill-rule="nonzero" stroke="#FFF"/>
        <circle cx="43" cy="19" r="15" fill-rule="nonzero" stroke="#FFF" stroke-width="2"/>
        <path fill="#FFF" d="M48.593 20.056a3.597 3.597 0 0 0-1.133-1.298c-.484-.342-1.071-.633-1.761-.872-.69-.24-1.462-.458-2.313-.657-.68-.171-1.167-.301-1.462-.39a4.559 4.559 0 0 1-.876-.37 2.081 2.081 0 0 1-.68-.564 1.26 1.26 0 0 1-.247-.78c0-.486.242-.901.726-1.247.484-.345 1.121-.518 1.91-.518.852 0 1.47.159 1.855.477.384.318.714.761.989 1.33.213.396.41.681.592.856.182.175.448.262.798.262.385 0 .706-.145.963-.437a1.44 1.44 0 0 0 .387-.98c0-.396-.103-.804-.31-1.22-.205-.418-.532-.817-.978-1.197-.446-.38-1.008-.684-1.684-.913a6.466 6.466 0 0 0-1.402-.294V9h-1.934v2.236c-.777.069-1.477.227-2.097.476-.859.346-1.515.84-1.968 1.483-.453.644-.68 1.38-.68 2.207 0 .87.215 1.596.644 2.181.43.585 1.01 1.047 1.74 1.386.732.338 1.64.634 2.725.887.81.185 1.458.36 1.942.524.484.164.88.402 1.185.713.305.311.458.717.458 1.216 0 .63-.283 1.155-.85 1.575-.566.421-1.303.631-2.21.631-.658 0-1.19-.104-1.596-.312a2.519 2.519 0 0 1-.942-.796 6.099 6.099 0 0 1-.623-1.2c-.158-.404-.349-.708-.572-.914a1.166 1.166 0 0 0-.819-.308c-.398 0-.726.132-.984.395a1.31 1.31 0 0 0-.386.95c0 .636.215 1.291.644 1.965.429.674.987 1.213 1.674 1.616.748.434 1.654.698 2.715.797V29h1.934v-2.292c.844-.081 1.598-.27 2.262-.57.907-.411 1.595-.979 2.065-1.704.47-.726.706-1.543.706-2.453 0-.76-.136-1.401-.407-1.925"/>
    </g>
</svg>
