<svg xmlns="http://www.w3.org/2000/svg" xmlns:xlink="http://www.w3.org/1999/xlink" width="34" height="24" viewBox="0 0 34 24">
    <defs>
        <path id="a" d="M1.39 0c-.218 1.773.253 3.07 1.414 3.89 1.077.76 2.07 1.054 2.978.88V3.683c.73.441 1.27.804 1.616 1.089.346.285.817.751 1.413 1.4-.601.687-1.072 1.189-1.413 1.504-.341.315-.88.747-1.616 1.296v-1.14C3.326 7.622 1.626 6.758.684 5.237.04 4.196-.229 2.756.23 1.504.37 1.119.758.618 1.39 0z"/>
        <path id="b" d="M1.678 3.504c-.219 1.773.252 3.07 1.413 3.89 1.077.76 2.07 1.054 2.979.881V7.186c.73.441 1.268.804 1.615 1.089.346.285.817.751 1.413 1.4-.601.688-1.072 1.189-1.413 1.504-.341.315-.88.747-1.615 1.296v-1.14C3.613 11.127 1.914 10.263.97 8.742.326 7.7.058 6.26.517 5.008c.141-.384.528-.886 1.161-1.504z"/>
    </defs>
    <g fill="none" fill-rule="evenodd">
        <ellipse cx="12.027" cy="11.886" fill="#A7DDDD" rx="12.027" ry="11.886"/>
        <ellipse cx="16.838" cy="11.886" fill="#FFF" rx="12.027" ry="11.886"/>
        <g transform="translate(15.798 5.6)">
            <use fill="#85B5C8" transform="rotate(-180 6.015 4.486)" xlink:href="#a"/>
            <use fill="#85B5C8" xlink:href="#b"/>
        </g>
        <ellipse cx="21.649" cy="11.886" stroke="#85B5C8" stroke-width="2" rx="11.027" ry="10.886"/>
    </g>
</svg>
