<svg xmlns="http://www.w3.org/2000/svg" width="108" height="40" viewBox="0 0 108 40">
    <g fill="none" fill-rule="evenodd">
        <g fill="#E30613">
            <path d="M13.012 29.778H11.66l-6.074-14.29a125.003 125.003 0 0 1-2.523-6.42H2.92c.168 3.326.252 6.372.252 9.138v11.572H.234V5.848h4.235l5.678 13.539c.649 1.55 1.363 3.416 2.145 5.598h.09c.864-2.42 1.58-4.286 2.144-5.598l5.677-13.539h4.236v23.93H21.5V18.207c0-2.707.084-5.753.252-9.14h-.144c-.89 2.445-1.73 4.585-2.523 6.421l-6.074 14.29zM27.305 12.787H30.1l5.318 13.325h.11l5.458-13.325h2.794L33.176 38.095H30.4l3.658-8.657z"/>
        </g>
        <g fill="#000">
            <path d="M59.166 17.443c0-1.576 0-1.778-1.128-2.505l-.376-.243c-.167-.162-.167-.606.042-.727.961-.324 3.343-1.375 4.178-1.98.167 0 .376.08.46.282-.084.93-.084 1.536-.084 1.9 0 .242.167.444.46.444 1.754-1.05 3.718-2.06 5.848-2.06 3.468 0 4.889 2.303 4.889 5.01v6.952c0 2.91.083 3.314 1.587 3.517l.92.12c.292.203.209.89-.084 1.011a58.876 58.876 0 0 0-3.928-.121c-1.504 0-2.757.04-3.885.121-.292-.121-.376-.808-.084-1.01l.794-.121c1.546-.243 1.588-.607 1.588-3.517v-6.022c0-2.304-1.087-4.001-3.928-4.001-1.587 0-2.966.646-3.551 1.415-.543.687-.627 1.252-.627 2.424v6.184c0 2.91.084 3.274 1.588 3.516l.752.121c.292.202.209.89-.084 1.01a52.51 52.51 0 0 0-3.802-.12c-1.504 0-2.757.04-3.927.12-.293-.12-.376-.808-.084-1.01l.878-.121c1.545-.202 1.587-.606 1.587-3.516v-7.073h.001zM84.778 14.816c-.71 0-.71.081-.71 1.172v8.528c0 2.91.084 3.395 1.588 3.516l1.504.121c.292.202.209.89-.084 1.01-1.88-.08-3.092-.12-4.554-.12-1.504 0-2.757.04-4.01.12-.293-.12-.377-.808-.085-1.01l.962-.121c1.545-.202 1.587-.606 1.587-3.516v-8.528c0-1.091 0-1.172-.836-1.172h-1.462c-.25-.162-.292-.526-.125-.768l1.796-.849c.334-.161.627-.404.627-.808 0-2.344.292-4.85 1.295-7.113 1.045-2.304 3.385-5.133 7.52-5.133 2.215 0 4.095.97 4.095 2.425 0 .808-.794 1.455-1.587 1.455-.46 0-.71-.162-1.003-.485-.794-.89-1.964-1.779-3.343-1.779-1.295 0-2.34.768-2.966 2.223-.752 1.86-.92 4.81-.92 6.83v1.173c0 1.09 0 1.131.711 1.131h4.763c.46.405.167 1.536-.293 1.698h-4.47z"/>
            <path fill-rule="nonzero" d="M107.966 20.919c0 5.052-3.593 8.69-8.815 8.69-4.805 0-8.565-3.275-8.565-8.326 0-5.093 3.97-8.73 8.899-8.73 4.68 0 8.481 3.395 8.481 8.366zm-8.982-7.154c-2.758 0-4.805 2.546-4.805 6.992 0 3.678 1.713 7.639 5.39 7.639 3.676 0 4.804-3.718 4.804-6.83 0-3.436-1.42-7.8-5.39-7.8z"/>
        </g>
        <path fill="#000" d="M51.556 4.506c.24 1.338-.59 2.632-1.854 2.89-1.264.26-2.484-.616-2.724-1.954l-.117-.645c-.24-1.34.59-2.633 1.854-2.891 1.264-.259 2.485.616 2.725 1.954l.116.646z"/>
        <path fill="#000" d="M35.354 9.047S52.216 11.742 62.108.93c0 0-1.028 5.53-10.518 8.344-7.69 2.282-16.236-.227-16.236-.227zM47.79 15.032s-.31-3.472 1.875-3.715c0 0 2.373-1.035 3.372 2.253 0 0 1.562 4.567-1 17.965L49.853 40s.375-8.22 0-10.597c0 0-2.06-12.24-2.061-14.37z"/>
    </g>
</svg>
