<?xml version="1.0" encoding="UTF-8"?>
<svg width="34px" height="24px" viewBox="0 0 34 24" version="1.1" xmlns="http://www.w3.org/2000/svg" xmlns:xlink="http://www.w3.org/1999/xlink">
    <!-- Generator: Sketch 58 (84663) - https://sketch.com -->
    <title>icon/1time</title>
    <desc>Created with Sketch.</desc>
    <defs>
        <polygon id="path-1" points="9.33333333e-05 0 8.41213333 0 8.41213333 13.9998133 9.33333333e-05 13.9998133"></polygon>
    </defs>
    <g id="icon/1time" stroke="none" stroke-width="1" fill="none" fill-rule="evenodd">
        <g id="Group-6-Copy-2">
            <ellipse id="Oval" fill="#A7DDDD" cx="11.6835764" cy="11.8857144" rx="11.6835764" ry="11.8857144"></ellipse>
            <ellipse id="Oval-Copy-2" fill="#FFFFFF" cx="16.357007" cy="11.8857144" rx="11.6835764" ry="11.8857144"></ellipse>
            <g id="Group-5" transform="translate(9.346861, 0.000000)" fill="#FFFFFF" stroke="#85B5C8" stroke-width="2">
                <ellipse id="Oval-Copy" cx="11.6835764" cy="11.8857144" rx="10.6835764" ry="10.8857144"></ellipse>
            </g>
        </g>
        <g id="Group-8" transform="translate(17.000000, 5.000000)">
            <path d="M4.56362667,7.19049333 L4.56362667,9.57142667 C4.92389333,9.49956 5.20202667,9.35209333 5.39802667,9.13182667 C5.59402667,8.90969333 5.69109333,8.65302667 5.69109333,8.35902667 C5.69109333,8.04356 5.59589333,7.79996 5.40549333,7.62822667 C5.21509333,7.45556 4.93416,7.30996 4.56362667,7.19049333" id="Fill-1" fill="#85B5C8"></path>
            <path d="M2.93402667,4.52629333 C2.93402667,4.81282667 3.01242667,5.02936 3.16922667,5.17589333 C3.32602667,5.32336 3.56496,5.45589333 3.88509333,5.57536 L3.88509333,3.49309333 C3.58549333,3.58362667 3.35216,3.70309333 3.18509333,3.85149333 C3.01709333,4.00082667 2.93402667,4.22576 2.93402667,4.52629333" id="Fill-3" fill="#85B5C8"></path>
            <g id="Group-7">
                <mask id="mask-2" fill="white">
                    <use xlink:href="#path-1"></use>
                </mask>
                <g id="Clip-6"></g>
                <path d="M6.72569333,9.34061333 C6.53529333,9.70088 6.25436,9.99581333 5.88382667,10.2235467 C5.51329333,10.4522133 5.07276,10.58848 4.56409333,10.6323467 L4.56409333,11.98568 C4.56409333,12.1994133 4.54356,12.35528 4.50249333,12.45328 C4.46142667,12.5503467 4.37182667,12.5998133 4.23276,12.5998133 C4.10396,12.5998133 4.01436,12.55968 3.96302667,12.4803467 C3.91076,12.40008 3.88556,12.27688 3.88556,12.1107467 L3.88556,10.6435467 C3.46836,10.5959467 3.10436,10.49608 2.79262667,10.3430133 C2.48089333,10.19088 2.22049333,10.0023467 2.01236,9.77554667 C1.80329333,9.54874667 1.64929333,9.31354667 1.54942667,9.06808 C1.45049333,8.82354667 1.40009333,8.58368 1.40009333,8.34848 C1.40009333,8.17394667 1.46729333,8.01808 1.60076,7.87808 C1.73422667,7.73808 1.90036,7.66808 2.10009333,7.66808 C2.26062667,7.66808 2.39596,7.70728 2.50609333,7.78288 C2.61716,7.85941333 2.69369333,7.96581333 2.73662667,8.10394667 C2.83276,8.40074667 2.91582667,8.62848 2.98769333,8.78621333 C3.05862667,8.94394667 3.16689333,9.08768 3.31062667,9.21834667 C3.45529333,9.34901333 3.64662667,9.44794667 3.88556,9.51701333 L3.88556,6.98861333 C3.40769333,6.85514667 3.00916,6.70581333 2.68809333,6.54061333 C2.36796,6.37541333 2.10756,6.14114667 1.90782667,5.83688 C1.70809333,5.53168 1.60822667,5.14061333 1.60822667,4.66181333 C1.60822667,4.03834667 1.80329333,3.52781333 2.19436,3.12928 C2.58449333,2.72981333 3.14822667,2.49834667 3.88556,2.43301333 L3.88556,1.85621333 C3.88556,1.55194667 3.99756,1.39981333 4.22156,1.39981333 C4.45022667,1.39981333 4.56409333,1.54821333 4.56409333,1.84594667 L4.56409333,2.43301333 C4.94489333,2.47314667 5.27156,2.55248 5.54409333,2.67194667 C5.81662667,2.79141333 6.05462667,2.97341333 6.25809333,3.21608 C6.41862667,3.40088 6.54276,3.59128 6.62956,3.78634667 C6.71729333,3.98234667 6.76022667,4.16154667 6.76022667,4.32488 C6.76022667,4.50594667 6.69582667,4.66274667 6.56516,4.79528 C6.43542667,4.92781333 6.27769333,4.99408 6.09196,4.99408 C5.74289333,4.99408 5.51702667,4.80181333 5.41342667,4.41728 C5.29582667,3.96461333 5.01302667,3.66314667 4.56409333,3.51474667 L4.56409333,5.77714667 C5.00556,5.89941333 5.35742667,6.01234667 5.61969333,6.11314667 C5.88102667,6.21488 6.11529333,6.36234667 6.32249333,6.55461333 C6.54369333,6.75341333 6.71356,6.99141333 6.83302667,7.26861333 C6.95249333,7.54674667 7.01222667,7.85008 7.01222667,8.17954667 C7.01222667,8.59301333 6.91609333,8.97941333 6.72569333,9.34061333 M8.11916,6.71608 C7.97169333,6.37541333 7.77662667,6.06648 7.54236,5.79861333 C7.54889333,5.79208 7.55542667,5.78461333 7.56196,5.77808 C7.94836,5.38701333 8.16022667,4.87088 8.16022667,4.32488 C8.16022667,3.96368 8.07529333,3.59128 7.90822667,3.21701333 C7.76542667,2.89594667 7.56569333,2.58608 7.33142667,2.31821333 C6.98889333,1.90754667 6.57636,1.59581333 6.10782667,1.39048 C6.04062667,1.36154667 5.97062667,1.33261333 5.89969333,1.30741333 C5.68316,0.44688 4.94862667,-0.000186666667 4.22156,-0.000186666667 C3.50382667,-0.000186666667 2.77769333,0.44128 2.55462667,1.29248 C2.02169333,1.48288 1.56622667,1.76941333 1.19289333,2.15021333 C0.548893333,2.80821333 0.208226667,3.67714667 0.208226667,4.66181333 C0.208226667,5.41594667 0.386493333,6.06928 0.736493333,6.60408 C0.76076,6.63954667 0.785026667,6.67594667 0.809293333,6.71048 C0.731826667,6.77114667 0.659026667,6.83741333 0.589026667,6.91021333 C0.20356,7.31248 9.33333333e-05,7.80994667 9.33333333e-05,8.34848 C9.33333333e-05,8.76568 0.0850266667,9.18661333 0.253026667,9.59728 C0.41636,9.99674667 0.660893333,10.37568 0.981026667,10.7219467 C1.30396,11.0747467 1.70622667,11.3706133 2.17756,11.60208 C2.27742667,11.6506133 2.37916,11.6954133 2.48556,11.73648 L2.48556,12.1107467 C2.48556,12.55408 2.58356,12.92368 2.79169333,13.24848 C3.10529333,13.7254133 3.62982667,13.9998133 4.23276,13.9998133 C4.93462667,13.9998133 5.53289333,13.61528 5.79329333,12.99648 C5.90996,12.7183467 5.96409333,12.39728 5.96409333,11.98568 L5.96409333,11.73928 C6.19462667,11.6506133 6.41302667,11.5423467 6.61742667,11.4163467 C7.20262667,11.0570133 7.65529333,10.5782133 7.96329333,9.99488 C8.26102667,9.43208 8.41222667,8.82074667 8.41222667,8.17954667 C8.41222667,7.65968 8.31329333,7.16688 8.11916,6.71608" id="Fill-5" fill="#85B5C8" mask="url(#mask-2)"></path>
            </g>
        </g>
    </g>
</svg>