<?xml version="1.0" encoding="UTF-8"?>
<svg width="34px" height="24px" viewBox="0 0 34 24" version="1.1" xmlns="http://www.w3.org/2000/svg" xmlns:xlink="http://www.w3.org/1999/xlink">
    <!-- Generator: Sketch 58 (84663) - https://sketch.com -->
    <title>icon/1time</title>
    <desc>Created with Sketch.</desc>
    <defs>
        <polygon id="path-1" points="9.33333333e-05 0 8.41213333 0 8.41213333 13.6109296 9.33333333e-05 13.6109296"></polygon>
    </defs>
    <g id="icon/1time" stroke="none" stroke-width="1" fill="none" fill-rule="evenodd">
        <g id="Group-6-Copy-2">
            <ellipse id="Oval" fill="#A7DDDD" cx="11.6835764" cy="11.8857144" rx="11.6835764" ry="11.8857144"></ellipse>
            <ellipse id="Oval-Copy-2" fill="#FFFFFF" cx="16.357007" cy="11.8857144" rx="11.6835764" ry="11.8857144"></ellipse>
        </g>
        <g id="Group-8" transform="translate(17.500000, 5.000000)">
            <path d="M4.56362667,6.99075741 L4.56362667,9.3055537 C4.92389333,9.23568333 5.20202667,9.09231296 5.39802667,8.87816481 C5.59402667,8.66220185 5.69109333,8.41266481 5.69109333,8.12683148 C5.69109333,7.82012778 5.59589333,7.58329444 5.40549333,7.41633148 C5.21509333,7.24846111 4.93416,7.10690556 4.56362667,6.99075741" id="Fill-1" fill="#85B5C8"></path>
            <path d="M2.93402667,4.40056296 C2.93402667,4.67913704 3.01242667,4.88965556 3.16922667,5.03211852 C3.32602667,5.17548889 3.56496,5.30434074 3.88509333,5.42048889 L3.88509333,3.39606296 C3.58549333,3.48408148 3.35216,3.60022963 3.18509333,3.74450741 C3.01709333,3.88969259 2.93402667,4.10837778 2.93402667,4.40056296" id="Fill-3" fill="#85B5C8"></path>
            <g id="Group-7">
                <mask id="mask-2" fill="white">
                    <use xlink:href="#path-1"></use>
                </mask>
                <g id="Clip-6"></g>
                <path d="M6.72569333,9.08115185 C6.53529333,9.43141111 6.25436,9.71815185 5.88382667,9.93955926 C5.51329333,10.1618741 5.07276,10.2943556 4.56409333,10.3370037 L4.56409333,11.6527444 C4.56409333,11.8605407 4.54356,12.0120778 4.50249333,12.1073556 C4.46142667,12.2017259 4.37182667,12.2498185 4.23276,12.2498185 C4.10396,12.2498185 4.01436,12.2108 3.96302667,12.1336704 C3.91076,12.0556333 3.88556,11.9358556 3.88556,11.774337 L3.88556,10.3478926 C3.46836,10.3016148 3.10436,10.2045222 2.79262667,10.0557074 C2.48089333,9.9078 2.22049333,9.7245037 2.01236,9.5040037 C1.80329333,9.2835037 1.64929333,9.05483704 1.54942667,8.81618889 C1.45049333,8.57844815 1.40009333,8.34524444 1.40009333,8.11657778 C1.40009333,7.94689259 1.46729333,7.79535556 1.60076,7.65924444 C1.73422667,7.52313333 1.90036,7.45507778 2.10009333,7.45507778 C2.26062667,7.45507778 2.39596,7.49318889 2.50609333,7.56668889 C2.61716,7.6410963 2.69369333,7.74454074 2.73662667,7.87883704 C2.83276,8.16739259 2.91582667,8.3888 2.98769333,8.54215185 C3.05862667,8.6955037 3.16689333,8.83524444 3.31062667,8.96228148 C3.45529333,9.08931852 3.64662667,9.1855037 3.88556,9.25265185 L3.88556,6.79448519 C3.40769333,6.66472593 3.00916,6.51954074 2.68809333,6.35892963 C2.36796,6.19831852 2.10756,5.97055926 1.90782667,5.67474444 C1.70809333,5.37802222 1.60822667,4.99781852 1.60822667,4.53231852 C1.60822667,3.92617037 1.80329333,3.42981852 2.19436,3.04235556 C2.58449333,2.65398519 3.14822667,2.42894815 3.88556,2.36542963 L3.88556,1.80465185 C3.88556,1.50883704 3.99756,1.36092963 4.22156,1.36092963 C4.45022667,1.36092963 4.56409333,1.50520741 4.56409333,1.79467037 L4.56409333,2.36542963 C4.94489333,2.40444815 5.27156,2.48157778 5.54409333,2.59772593 C5.81662667,2.71387407 6.05462667,2.89081852 6.25809333,3.12674444 C6.41862667,3.30641111 6.54276,3.49152222 6.62956,3.68117037 C6.71729333,3.87172593 6.76022667,4.04594815 6.76022667,4.20474444 C6.76022667,4.38078148 6.69582667,4.53322593 6.56516,4.66207778 C6.43542667,4.79092963 6.27769333,4.85535556 6.09196,4.85535556 C5.74289333,4.85535556 5.51702667,4.66842963 5.41342667,4.29457778 C5.29582667,3.85448519 5.01302667,3.56139259 4.56409333,3.41711481 L4.56409333,5.61667037 C5.00556,5.73554074 5.35742667,5.84533704 5.61969333,5.94333704 C5.88102667,6.04224444 6.11529333,6.18561481 6.32249333,6.37254074 C6.54369333,6.56581852 6.71356,6.79720741 6.83302667,7.06670741 C6.95249333,7.33711481 7.01222667,7.63202222 7.01222667,7.95233704 C7.01222667,8.35431852 6.91609333,8.72998519 6.72569333,9.08115185 M8.11916,6.52952222 C7.97169333,6.19831852 7.77662667,5.89796667 7.54236,5.63754074 C7.54889333,5.63118889 7.55542667,5.62392963 7.56196,5.61757778 C7.94836,5.23737407 8.16022667,4.73557778 8.16022667,4.20474444 C8.16022667,3.85357778 8.07529333,3.49152222 7.90822667,3.12765185 C7.76542667,2.8155037 7.56569333,2.51424444 7.33142667,2.25381852 C6.98889333,1.85455926 6.57636,1.55148519 6.10782667,1.35185556 C6.04062667,1.32372593 5.97062667,1.2955963 5.89969333,1.2710963 C5.68316,0.434466667 4.94862667,-0.000181481481 4.22156,-0.000181481481 C3.50382667,-0.000181481481 2.77769333,0.429022222 2.55462667,1.25657778 C2.02169333,1.44168889 1.56622667,1.72026296 1.19289333,2.09048519 C0.548893333,2.73020741 0.208226667,3.5750037 0.208226667,4.53231852 C0.208226667,5.2655037 0.386493333,5.90068889 0.736493333,6.42063333 C0.76076,6.45511481 0.785026667,6.4905037 0.809293333,6.52407778 C0.731826667,6.58305926 0.659026667,6.64748519 0.589026667,6.71826296 C0.20356,7.10935556 9.33333333e-05,7.5930037 9.33333333e-05,8.11657778 C9.33333333e-05,8.52218889 0.0850266667,8.93142963 0.253026667,9.33068889 C0.41636,9.71905926 0.660893333,10.0874667 0.981026667,10.4241148 C1.30396,10.7671148 1.70622667,11.054763 2.17756,11.2798 C2.27742667,11.3269852 2.37916,11.3705407 2.48556,11.4104667 L2.48556,11.774337 C2.48556,12.2053556 2.58356,12.5646889 2.79169333,12.8804667 C3.10529333,13.3441519 3.62982667,13.6109296 4.23276,13.6109296 C4.93462667,13.6109296 5.53289333,13.2370778 5.79329333,12.6354667 C5.90996,12.3650593 5.96409333,12.0529111 5.96409333,11.6527444 L5.96409333,11.4131889 C6.19462667,11.3269852 6.41302667,11.2217259 6.61742667,11.0992259 C7.20262667,10.7498741 7.65529333,10.2843741 7.96329333,9.71724444 C8.26102667,9.17007778 8.41222667,8.57572593 8.41222667,7.95233704 C8.41222667,7.44691111 8.31329333,6.9678 8.11916,6.52952222" id="Fill-5" fill="#85B5C8" mask="url(#mask-2)"></path>
            </g>
        </g>
        <ellipse id="Oval-Copy" stroke="#85B5C8" stroke-width="2" cx="21.6489798" cy="11.8857144" rx="11.027211" ry="10.8857144"></ellipse>
    </g>
</svg>