<svg xmlns="http://www.w3.org/2000/svg" xmlns:xlink="http://www.w3.org/1999/xlink" width="400" height="270" viewBox="0 0 400 270">
    <defs>
        <path id="a" d="M8 0h202l-9 219H6c10.667-22.547 11.333-37.047 2-43.5-9.333-6.453-10-16.287-2-29.5L8 0z"/>
        <path id="c" d="M21.47 90.24c5.424 0 60.771-28.816 87.509-39.71 28.533-6.234 37.278-8.25 59.88-20.339 37.6-5.463 59.097-7.252 62.798-11.838 4.252-4.233 1.716-6.112-.299-6.739-1.343-.418-10.725-.247-28.145.513L83.676.175 0 40.905c5.739 15.877 10.151 27.901 13.238 36.07 4.63 12.254 6.556 13.266 8.232 13.266z"/>
        <ellipse id="e" cx="29.226" cy="28.815" rx="29.226" ry="28.815"/>
        <path id="g" d="M0 0h41.431v53.513H0z"/>
        <ellipse id="i" cx="11.106" cy="10.541" rx="11.106" ry="10.541"/>
        <path id="k" d="M0 0h15.744v19.577H0z"/>
        <path id="n" d="M259 106h44a3 3 0 0 1 3 3v30a3 3 0 0 1-3 3h-44a3 3 0 0 1-3-3v-30a3 3 0 0 1 3-3z"/>
        <filter id="m" width="130%" height="141.7%" x="-15%" y="-12.5%" filterUnits="objectBoundingBox">
            <feOffset dy="3" in="SourceAlpha" result="shadowOffsetOuter1"/>
            <feGaussianBlur in="shadowOffsetOuter1" result="shadowBlurOuter1" stdDeviation="2"/>
            <feComposite in="shadowBlurOuter1" in2="SourceAlpha" operator="out" result="shadowBlurOuter1"/>
            <feColorMatrix in="shadowBlurOuter1" values="0 0 0 0 0 0 0 0 0 0 0 0 0 0 0 0 0 0 0.142804574 0"/>
        </filter>
    </defs>
    <g fill="none" fill-rule="evenodd">
        <ellipse cx="202.5" cy="243.5" fill="#118C8C" rx="75.5" ry="9.5"/>
        <path fill="#00BCBC" d="M217.081 228.977c-75.436 0-163.413 2.775-176.406-52.444C27.682 121.313 61.62 66.38 151.116 26.099 240.612-14.181 369 18.952 369 101.874c0 82.921-76.483 127.103-151.919 127.103z"/>
        <g transform="translate(56 19)">
            <path fill="#D5E3E3" d="M109.466 214.226h72.037v-39.31h-72.037z"/>
            <path fill="#63ACAC" d="M109.466 213.974h72.037v-15.12h-72.037z"/>
            <path fill="#FFF" d="M9 0h274a9 9 0 0 1 9 9v163.292a9 9 0 0 1-9 9H9a9 9 0 0 1-9-9V9a9 9 0 0 1 9-9z"/>
            <path fill="#E1F4F6" d="M16.087 12.19h258a4 4 0 0 1 4 4v149a4 4 0 0 1-4 4h-258a4 4 0 0 1-4-4v-149a4 4 0 0 1 4-4z"/>
            <rect width="129" height="8" x="82" y="215" fill="#D5E3E3" rx="1"/>
        </g>
        <g transform="translate(13 36)">
            <mask id="b" fill="#fff">
                <use xlink:href="#a"/>
            </mask>
            <g mask="url(#b)">
                <path fill="#F0A57E" d="M94.203 94.504l18.638 6.037-9.319 47.081c-28.626 1.885-42.939 1.885-42.939 0 0-1.884 5.04-16.495 15.12-43.832l18.5-9.286z"/>
                <path fill="#FFDBC8" d="M112.512 77.55v3.143c1.738.74 4.288.876 6.52 1.003 1.488.084 3.846-.25 7.075-1.003l-13.595-3.144z"/>
                <g transform="translate(-47 133.218)">
                    <mask id="d" fill="#fff">
                        <use xlink:href="#c"/>
                    </mask>
                    <use fill="#FEC3A4" xlink:href="#c"/>
                    <path fill="#F0A57E" d="M21.47 91.109s14.806-5.05 32.112-13.064c19.063-8.827 41.382-20.937 55.397-26.646 28.533-6.235 37.278-8.251 59.88-20.34 37.6-5.463 59.097-7.252 62.798-11.838 4.252-4.233 1.716-6.112-.299-6.739-1.343-.417-10.725-.246-28.145.513-9.991-.342-24.713-1.814-44.165-4.416-8.292 10.642-16.044 22.48-51.465 32.323-39.686 18.925-47.175 24.06-89.338 41.363-6.143 3.581 3.225 8.844 3.225 8.844z" mask="url(#d)"/>
                </g>
                <path fill="#FAB08A" d="M160.318 158.898c13.953-2.058 22.178-3.782 24.339-6.459 4.252-4.233 1.716-6.112-.299-6.738-1.147-.357-8.16-.284-21.037.218-2.199.086-5.452 9.197-3.003 12.98zM164.72 122.435c6.354-3.369 20.041-22.174 22.028-24.978 1.41-3.132 1.658-6.283 1.41-8.098-.25-1.814-1.41-1.814-2.806-2.087-3.6.584-6.57 1.933-8.914 4.05-9.657 19.644-13.564 30.016-11.719 31.113z"/>
                <path fill="#F0A57E" d="M164.72 122.435c3.031-1.607 7.731-6.727 12.034-11.948-4.422-6.986 3.714-19.731 5.857-22.586-1.597.485-5.926 1.952-12.987 4.402-5.115 18.99-6.75 29.035-4.905 30.132z"/>
                <path fill="#FAB08A" d="M170.45 89.355c0 .943 7.533-4.882 10.926-8.924 3.22-3.835 6.575-9.671 6.575-12.032 0-2.36-1.872-3.416-3.67-3.416-1.574 0-6.846 1.976-15.816 5.93-.77 12.295-.108 18.442 1.984 18.442z"/>
                <path fill="#F0A57E" d="M170.45 89.355c0 .716 4.338-2.466 7.913-5.81-.678-7.358.267-15.485.267-16.826-1.067.234-4.455 1.632-10.165 4.193-.41 6.411-.514 10.563-.31 12.455.539 5.008 2.294 6.09 2.294 5.988z"/>
                <path fill="#FAB08A" d="M154.804 37.739c3.798-3.153 6.623-4.729 8.476-4.729 2.779 0 4.583.836 5.943 3.059.908 1.482.723 3.8-.553 6.953l-13.866-5.283z"/>
                <path fill="#F0A57E" d="M154.804 37.739c1.577-1.255 2.708-2.113 3.394-2.574 3.1 1.13 8.306 3.078 11.426 4.776-.118.612-.436 1.64-.954 3.08l-13.866-5.282z"/>
                <g>
                    <g transform="rotate(-3 321.63 -1468.727)">
                        <path fill="#005960" d="M23.702.421l64.911 3.402c8.273.433 14.628 7.491 14.195 15.764l-7.746 147.798c-.434 8.272-7.492 14.628-15.764 14.194l-64.911-3.402c-8.273-.433-14.628-7.491-14.195-15.764L7.938 14.615C8.372 6.343 15.43-.013 23.702.421z"/>
                        <path fill="#FFF" d="M24.11 6.39l63.913 3.35c6.066.318 10.727 5.494 10.409 11.56l-7.537 143.803c-.318 6.067-5.493 10.727-11.56 10.41l-63.913-3.35c-6.066-.318-10.727-5.494-10.409-11.56L12.55 16.8c.318-6.067 5.493-10.728 11.56-10.41z"/>
                        <circle cx="41.667" cy="15.321" r="2.5" fill="#D7DDDC" transform="rotate(3 41.667 15.321)"/>
                        <path fill="#D7DDDC" d="M47.737 14.138l16.977.89a1.5 1.5 0 0 1-.157 2.995l-16.977-.89a1.5 1.5 0 0 1 .157-2.995z"/>
                    </g>
                </g>
                <g>
                    <g transform="translate(104.66 46.246)">
                        <mask id="f" fill="#fff">
                            <use xlink:href="#e"/>
                        </mask>
                        <use fill="#F5F5F5" xlink:href="#e"/>
                        <g mask="url(#f)">
                            <path fill="#008181" d="M11.986 38.642L63.515 90.17c-14.333 13.507-36.867 13.287-50.842-.688C-1.3 75.51-1.52 52.975 11.986 38.642z"/>
                            <path fill="#FF9445" d="M29.075 51.994l28.358-16.373c4.175 7.736 1.433 17.454-6.263 21.898-7.696 4.443-17.483 1.958-22.095-5.525z"/>
                            <g transform="translate(11.241 14.566)">
                                <mask id="h" fill="#fff">
                                    <use xlink:href="#g"/>
                                </mask>
                                <path fill="#00BCBC" d="M36.058 50.663V17.408c0-.643-.036-1.277-.105-1.902-.286-2.579-.054-5.18.607-7.69.123-.467.236-.952.343-1.455.274-1.293-1.118-2.296-2.273-1.633-.517.298-1.056.586-1.594.843a1.778 1.778 0 0 1-2.03-.354A17.622 17.622 0 0 0 18.466 0C13.562 0 9.123 2 5.929 5.216a1.778 1.778 0 0 1-2.03.353 23.802 23.802 0 0 1-1.59-.84C1.152 4.064-.24 5.067.034 6.36c.106.5.218.98.34 1.445.66 2.51.894 5.11.606 7.69-.07.627-.106 1.265-.106 1.912v8.618c0 10.954 6.626 20.4 16.116 24.637H4.374 41.43h-5.373z" mask="url(#h)"/>
                            </g>
                            <path fill="#FFF" d="M36.946 23.115a7.698 7.698 0 0 0-7.238 5.045 7.697 7.697 0 0 0-7.237-5.045c-4.251 0-7.697 3.427-7.697 7.655 0 8.713.845 15.777 14.934 15.777 13.307 0 14.935-7.064 14.935-15.777 0-4.228-3.447-7.655-7.697-7.655" opacity=".901"/>
                        </g>
                    </g>
                    <path fill="#FF9445" d="M136.033 86.108l1.854-3.452a1.03 1.03 0 0 0-.148-1.182l-2.729-2.903a.952.952 0 0 0-1.388 0l-2.73 2.903a1.03 1.03 0 0 0-.148 1.182l1.854 3.452c.736 1.371 2.7 1.371 3.435 0"/>
                    <g fill="#007F7E">
                        <path d="M144.456 78.114h-1.539c0-.51-.127-1.696-1.308-1.696-1.18 0-1.308 1.186-1.308 1.696h-1.539c0-1.896 1.145-3.17 2.847-3.17 1.703 0 2.847 1.274 2.847 3.17M130.29 78.114h-1.54c0-.51-.126-1.696-1.307-1.696-1.18 0-1.308 1.186-1.308 1.696h-1.54c0-1.896 1.145-3.17 2.848-3.17 1.703 0 2.847 1.274 2.847 3.17"/>
                    </g>
                    <g>
                        <path fill="#E4E4E4" d="M125 108h39a2 2 0 0 1 2 2v8a2 2 0 0 1-2 2h-39a2 2 0 0 1-2-2v-8a2 2 0 0 1 2-2zM104 108h13a2 2 0 0 1 2 2v8a2 2 0 0 1-2 2h-13a2 2 0 0 1-2-2v-8a2 2 0 0 1 2-2z"/>
                        <path fill="#00C9C3" d="M104 138h60a2 2 0 0 1 2 2v17a2 2 0 0 1-2 2h-60a2 2 0 0 1-2-2v-17a2 2 0 0 1 2-2z"/>
                        <path fill="#E4E4E4" d="M104 121h60a2 2 0 0 1 2 2v8a2 2 0 0 1-2 2h-60a2 2 0 0 1-2-2v-8a2 2 0 0 1 2-2z"/>
                    </g>
                </g>
                <path fill="#FEC3A4" d="M67.883 145.424c0-1.104 9.799-8.316 13.734-15.663 2.623-4.899 4.35-13.845 5.18-26.84l12.478-13.158h18.716c3.457 0 6.671-4.436 8.438-8.7.077-.187.077 0 .224-.56.146-.56-16.964-4.846-33.796-6.94-13.835 7.435-18.722 9.974-32.242 19.883-9.048 12.344-17.059 25.62-24.034 39.826 20.868 8.837 31.302 12.888 31.302 12.152z"/>
            </g>
        </g>
        <path fill="#2F9897" fill-rule="nonzero" d="M217 134.517h23.86v-29.395h23.86l7.28-7.51 38.015-2.208L327 89v72H217z"/>
        <path stroke="#8A9BA9" stroke-linecap="square" d="M202 160h124M240.621 161v5M269.622 160.5v5.5M299.621 161v5M326.48 161v5M216.5 75.263v90.161"/>
        <g>
            <path stroke="#FF872F" stroke-width="2" d="M291.5 84v76.005"/>
            <g transform="translate(279 66)">
                <ellipse cx="11.667" cy="11.68" fill="#000" opacity=".2" rx="11.667" ry="11.32"/>
                <g transform="translate(1.111 .09)">
                    <mask id="j" fill="#fff">
                        <use xlink:href="#i"/>
                    </mask>
                    <use fill="#FFF" stroke="#00A7A7" stroke-width=".637" xlink:href="#i"/>
                    <g mask="url(#j)">
                        <path fill="#008181" d="M4.377 13.771l19.582 19.582c-5.25 4.935-13.655 4.693-18.965-.617-5.31-5.31-5.552-13.716-.617-18.965z"/>
                        <path fill="#FF9445" d="M11.105 19.137l10.777-6.222c1.524 2.832.432 6.439-2.493 8.127-2.924 1.689-6.594.831-8.284-1.905z"/>
                        <g transform="translate(4.272 5.329)">
                            <mask id="l" fill="#fff">
                                <use xlink:href="#k"/>
                            </mask>
                            <path fill="#00BCBC" d="M13.703 18.534V6.368c0-.235-.014-.467-.04-.695a7.426 7.426 0 0 1 .23-2.814c.047-.17.09-.348.13-.532.105-.473-.424-.84-.863-.597a9.145 9.145 0 0 1-.606.308.695.695 0 0 1-.771-.13A6.828 6.828 0 0 0 7.018 0a6.83 6.83 0 0 0-4.765 1.908.695.695 0 0 1-.772.13 9.171 9.171 0 0 1-.604-.308c-.439-.243-.968.124-.864.597.04.183.083.359.13.529.25.918.34 1.87.23 2.813-.027.23-.04.463-.04.7V9.52c0 4.007 2.517 7.463 6.124 9.013H1.662h14.082-2.041z" mask="url(#l)"/>
                        </g>
                        <path fill="#FFF" d="M14.04 8.456c-1.265 0-2.343.77-2.75 1.846-.408-1.077-1.486-1.846-2.75-1.846-1.616 0-2.926 1.254-2.926 2.8 0 3.188.322 5.772 5.676 5.772 5.056 0 5.675-2.584 5.675-5.771 0-1.547-1.31-2.8-2.925-2.8" opacity=".901"/>
                    </g>
                </g>
                <path fill="#FF9445" d="M13.033 14.673l.705-1.263a.366.366 0 0 0-.057-.432l-1.037-1.063a.372.372 0 0 0-.527 0l-1.037 1.063a.366.366 0 0 0-.057.432l.705 1.263c.28.501 1.026.501 1.305 0"/>
                <g fill="#007F7E">
                    <path d="M16.237 11.785h-.61c0-.187-.05-.62-.52-.62-.468 0-.518.433-.518.62h-.61c0-.694.453-1.16 1.129-1.16.675 0 1.13.466 1.13 1.16M10.617 11.785h-.611c0-.187-.05-.62-.519-.62-.468 0-.519.433-.519.62h-.61c0-.694.453-1.16 1.129-1.16.676 0 1.13.466 1.13 1.16"/>
                </g>
            </g>
        </g>
        <g>
            <use fill="#000" filter="url(#m)" xlink:href="#n"/>
            <path fill="#FFF" fill-opacity=".9" stroke="#EBEBEB" stroke-linejoin="square" d="M259 106.5a2.5 2.5 0 0 0-2.5 2.5v30a2.5 2.5 0 0 0 2.5 2.5h44a2.5 2.5 0 0 0 2.5-2.5v-30a2.5 2.5 0 0 0-2.5-2.5h-44z"/>
        </g>
        <path fill="#000" fill-rule="nonzero" d="M286.413 111.4c.43 0 .761.15.995.45.233.3.35.727.35 1.28 0 .603-.121 1.072-.363 1.407-.242.336-.58.503-1.012.503a1.62 1.62 0 0 1-.598-.115 1.62 1.62 0 0 1-.518-.325l.16-.315c.17.143.332.248.486.313.153.064.308.097.464.097.307 0 .545-.137.713-.41.168-.273.252-.657.252-1.15v-.065a.925.925 0 0 1-.375.443 1.1 1.1 0 0 1-.594.162 1.14 1.14 0 0 1-.575-.142 1.001 1.001 0 0 1-.39-.4 1.21 1.21 0 0 1-.14-.588c0-.22.049-.417.147-.59.098-.173.234-.31.407-.407.174-.099.37-.148.59-.148zm.024 1.93a.771.771 0 0 0 .57-.22.771.771 0 0 0 .22-.57.778.778 0 0 0-.22-.575.778.778 0 0 0-.575-.22.73.73 0 0 0-.55.218c-.14.145-.21.337-.21.577 0 .237.07.427.21.572.14.146.325.218.555.218zm6.255-1.89h.34V115h-.38v-2.645L291.498 115h-.29l-1.166-2.625.006 2.625h-.38v-3.56h.34l1.35 3.07 1.334-3.07zm3.335 1.045V115h-.4v-.455a.797.797 0 0 1-.332.362c-.148.086-.32.128-.518.128-.223 0-.419-.053-.587-.16a1.049 1.049 0 0 1-.39-.453 1.589 1.589 0 0 1-.137-.682c0-.26.046-.49.14-.688.093-.198.224-.352.392-.462a1.04 1.04 0 0 1 .582-.165c.197 0 .369.043.516.13a.846.846 0 0 1 .334.365v-.435h.4zm-1.17 2.215c.247 0 .437-.084.57-.252.134-.169.2-.408.2-.718s-.066-.548-.2-.715c-.133-.167-.323-.25-.57-.25-.246 0-.439.086-.577.257-.138.172-.207.411-.207.718s.068.543.204.71c.137.167.33.25.58.25zm4.115-2.215l-1.174 2.745c-.124.287-.279.497-.466.63a1.696 1.696 0 0 1-.69.275l-.084-.315c.236-.053.415-.124.537-.212a.965.965 0 0 0 .302-.408l.1-.225-1.065-2.49h.425l.85 2.075.86-2.075h.406z"/>
        <path fill="#118C8C" fill-rule="nonzero" d="M267.58 132.07c0 .533-.19.98-.57 1.34-.38.36-.883.577-1.51.65v1.1h-.7v-1.09a4.114 4.114 0 0 1-1.275-.27 3.21 3.21 0 0 1-1.025-.64l.31-.63c.32.273.642.477.965.61.323.133.675.21 1.055.23v-2.54c-.46-.12-.84-.247-1.14-.38a1.97 1.97 0 0 1-.755-.585c-.203-.257-.305-.595-.305-1.015 0-.367.092-.697.275-.99.183-.293.438-.532.765-.715a2.82 2.82 0 0 1 1.13-.335v-1.09h.7v1.1a3.48 3.48 0 0 1 1.105.28c.35.153.648.353.895.6l-.31.63a2.884 2.884 0 0 0-1.72-.81v2.69c.44.107.805.223 1.095.35.29.127.532.312.725.555.193.243.29.562.29.955zm-4.11-3.25c0 .34.117.6.35.78.233.18.57.33 1.01.45v-2.53c-.427.04-.76.175-1 .405-.24.23-.36.528-.36.895zm2 4.53c.407-.053.722-.188.945-.405.223-.217.335-.502.335-.855 0-.293-.11-.522-.33-.685-.22-.163-.537-.302-.95-.415v2.36z"/>
    </g>
</svg>
