<svg xmlns="http://www.w3.org/2000/svg" xmlns:xlink="http://www.w3.org/1999/xlink" width="370" height="280" viewBox="0 0 370 280">
    <defs>
        <path id="a" d="M188.77 259C253.602 259 324 212.16 324 148.539c0-63.622-58.058-105.48-118.734-110.969C144.59 32.081 56 66.266 56 137.63 56 208.995 123.938 259 188.77 259z"/>
        <path id="b" d="M188.77 259C253.602 259 324 212.16 324 148.539 324 84.917 273.676-41.511 213-47 152.324-52.49 56 66.266 56 137.63 56 208.995 123.938 259 188.77 259z"/>
        <ellipse id="d" cx="9.579" cy="9.685" rx="9.579" ry="9.685"/>
        <path id="f" d="M0 0h13.58v17.987H0z"/>
    </defs>
    <g fill="none" fill-rule="evenodd">
        <path fill="#2D8289" d="M0 0h370v280H0z"/>
        <use fill="#00BCBC" transform="matrix(-1 0 0 1 380 0)" xlink:href="#a"/>
        <mask id="c" fill="#fff">
            <use xlink:href="#b"/>
        </mask>
        <g mask="url(#c)">
            <path fill="#005960" d="M355.952 251.18l-64.568 71.665-84.124-75.557 60.956-72.987z"/>
            <path fill="#000" d="M207.546 247.223c2.262 2.034 6.694 1.31 12.338-1.573l-12.062-10.853c-2.279 5.91-2.537 10.391-.276 12.426M268.935 174.683c-2.262-2.034-6.695-1.31-12.338 1.573l12.062 10.854c2.279-5.91 2.537-10.392.276-12.427"/>
            <path fill="#FAB08A" d="M206.461 234.648l12.01 11.462c8.185-4.414 18.928-13.684 29.245-25.835 10.318-12.152 17.888-24.45 21.172-33.543l-13.116-11.693c-8.185 4.415-17.822 13.914-28.14 26.065-10.318 12.152-17.888 24.45-21.17 33.544z"/>
            <path fill="#F79C82" d="M135.973 73.236s-29.062-24.282-23.164-31.043c5.899-6.76 31.31 14.13 31.31 14.13"/>
            <g transform="rotate(-3 261.246 -2402.37)">
                <path fill="#005960" d="M23.702.421l64.911 3.402c8.273.433 14.628 7.491 14.195 15.764l-7.746 147.798c-.434 8.272-7.492 14.628-15.764 14.194l-64.911-3.402c-8.273-.433-14.628-7.491-14.195-15.764L7.938 14.615C8.372 6.343 15.43-.013 23.702.421z"/>
                <path fill="#FFF" d="M24.11 6.39l63.913 3.35c6.066.318 10.727 5.494 10.409 11.56l-7.537 143.803c-.318 6.067-5.493 10.727-11.56 10.41l-63.913-3.35c-6.066-.318-10.727-5.494-10.409-11.56L12.55 16.8c.318-6.067 5.493-10.728 11.56-10.41z"/>
                <circle cx="41.667" cy="15.321" r="2.5" fill="#D7DDDC" transform="rotate(3 41.667 15.321)"/>
                <path fill="#D7DDDC" d="M47.737 14.138l16.977.89a1.5 1.5 0 0 1-.157 2.995l-16.977-.89a1.5 1.5 0 0 1 .157-2.995z"/>
            </g>
            <path fill="#FAB08A" d="M149.261 188.327l56.722.134c-1.273-37.932 23.658-76.7 23.658-76.7l-.043-48.592c1.638-16.528 10.536-17.36 10.536-17.36l13.702 53.574a31.045 31.045 0 0 1 .935 9.088l-2.775 61.309.051.226 3.725 5.033c-8.294 4.324-3.938 25.808-14.404 37.685-10.467 11.875-31.566 13.045-34.907 21.924l-57.2-46.32z"/>
            <path fill="#F79C82" d="M205.983 188.461s1.317 16.776 7.056 28.19l-63.778-28.324 56.722.134zM139.279 131.724l-20.099-22.486c-5.278-5.907-5.886-14.853-1.117-21.175.903-1.196 1.95-2.248 3.119-3.09l31.657-22.79s7.569 12.43-8.327 27.974l-13.675 13.554 8.442 28.013z"/>
            <path fill="#FAB08A" d="M129.622 142.062l-9.288-10.578c-5.267-5.999-5.882-15.08-1.134-21.49.898-1.213 1.941-2.28 3.105-3.132l31.533-23.099s8.071 13.332-8.554 28.12l-13.337 14.004 3.591 12.1-5.916 4.075z"/>
            <path fill="#FAB08A" d="M134.741 148.35l12.218-14.994c15.495-16.268 6.339-27.932 6.339-27.932l-29.882 25.998c-1.103.96-2.061 2.116-2.857 3.401-4.207 6.792-2.676 15.634 3.297 20.961l10.78 9.614.105-17.049z"/>
            <path fill="#009792" d="M254.482 257.173c.255 4.875-3.491 9.033-8.368 9.289-4.877.255-9.038-3.489-9.294-8.363-.255-4.874 3.491-9.032 8.369-9.288 4.877-.255 9.037 3.488 9.293 8.362"/>
        </g>
        <path fill="#FDC010" d="M276.5 101.044l-6.76 2.76.536-7.282-4.713-5.576 7.09-1.74L276.5 83l3.846 6.206 7.091 1.74-4.713 5.576.536 7.282z"/>
        <path fill="#FDC010" fill-rule="nonzero" d="M292.252 132.717l.984 1.617-3.716 2.206 2.233 3.67-1.619.962-2.233-3.671-3.716 2.205-.984-1.617 3.716-2.205-2.233-3.671 1.62-.961 2.232 3.67zM306.252 58.717l.984 1.617-3.716 2.206 2.233 3.67-1.619.962-2.233-3.671-3.716 2.205-.984-1.617 3.716-2.205-2.233-3.671 1.62-.961 2.232 3.67zM271.252 26.717l.984 1.617-3.716 2.206 2.233 3.67-1.619.962-2.233-3.671-3.716 2.205-.984-1.617 3.716-2.205-2.233-3.671 1.62-.961 2.232 3.67z"/>
        <g fill="#FDC010">
            <path d="M75.466 178.044l-6.76 2.76.536-7.282-4.713-5.576 7.09-1.74L75.467 160l3.846 6.206 7.091 1.74-4.713 5.576.535 7.282z"/>
            <path fill-rule="nonzero" d="M92.218 217.717l.984 1.617-3.716 2.206 2.233 3.67-1.62.962-2.232-3.671-3.716 2.205-.984-1.617 3.716-2.205-2.233-3.671 1.619-.961 2.233 3.67zM81.174 104.476l-1.05 1.575-3.57-2.436-2.382 3.575-1.556-1.061L75 102.554l-3.57-2.436 1.05-1.576 3.57 2.437 2.383-3.576 1.555 1.062-2.383 3.575z"/>
            <path d="M118.466 241.199l-3.82 1.56.302-4.116-2.664-3.152 4.008-.983 2.174-3.508 2.174 3.508 4.008.983-2.664 3.152.303 4.116zM90.466 138.199l-3.82 1.56.302-4.116-2.664-3.152 4.008-.983L90.466 128l2.174 3.508 4.008.983-2.664 3.152.303 4.116z"/>
        </g>
        <g transform="translate(169 78)">
            <path fill="#17CFCF" d="M10.836 0H28a3 3 0 0 1 3 3v34a3 3 0 0 1-3 3H3a3 3 0 0 1-3-3V12.654L10.836 0z"/>
            <rect width="12" height="2.327" x="14.463" y="2.923" fill="#11C3C3" rx="1.163"/>
            <path fill="#1F5C58" stroke="#FFF" stroke-width="2" d="M10.585 8.021V.39L0 12.02h6.585a4 4 0 0 0 4-4z"/>
        </g>
        <path d="M148.71 91.296c2.643.845 4.762-1.342 6.884-1.342 4.64 0 2.644 4.824 8.98 6.862.984.317 8.05 2.033 13.892-.557 7.757-3.44 14.076-9.286 15.095-10.66 2.574-3.47 8.788-13.74 1.796-13.74-5.089 0-1.447-1.839-5.538-2.236-4.09-.398-4.838-2.02-9.491-4.094-2.964-1.32-14.512-.608-22.04 3.597-4.298 2.4-5.231 7.281-7.683 10.19-4.277 5.074-5.039 10.976-1.896 11.98z"/>
        <g transform="translate(175 91.083)">
            <mask id="e" fill="#fff">
                <use xlink:href="#d"/>
            </mask>
            <use fill="#005150" xlink:href="#d"/>
            <g mask="url(#e)">
                <path fill="#008181" d="M4.033 13.203l16.89 16.89c-4.815 4.543-12.294 4.564-16.874-.016-4.58-4.58-4.56-12.06-.016-16.874z"/>
                <path fill="#FF9445" d="M9.496 17.408l9.295-5.367c1.405 2.6.536 5.836-1.986 7.292-2.523 1.456-5.76.59-7.309-1.925z"/>
                <g transform="translate(3.684 4.896)">
                    <mask id="g" fill="#fff">
                        <use xlink:href="#f"/>
                    </mask>
                    <path fill="#00BCBC" d="M11.818 17.029V5.85c0-.216-.011-.43-.034-.639a7.251 7.251 0 0 1 .199-2.585c.04-.157.077-.32.112-.489.09-.434-.366-.772-.744-.549-.17.1-.347.197-.523.283a.572.572 0 0 1-.665-.119A5.705 5.705 0 0 0 6.053 0a5.706 5.706 0 0 0-4.11 1.753.572.572 0 0 1-.665.119 7.737 7.737 0 0 1-.522-.283c-.378-.223-.834.114-.745.549.035.168.072.33.112.486.216.843.293 1.717.199 2.584a5.94 5.94 0 0 0-.035.643v2.897a9.1 9.1 0 0 0 5.282 8.28H1.433 13.58h-1.76z" mask="url(#g)"/>
                </g>
                <path fill="#FFF" d="M12.11 7.77c-1.092 0-2.021.706-2.373 1.695-.351-.989-1.28-1.696-2.372-1.696-1.393 0-2.523 1.152-2.523 2.573 0 2.929.277 5.303 4.895 5.303 4.362 0 4.895-2.374 4.895-5.303 0-1.42-1.13-2.573-2.523-2.573" opacity=".901"/>
            </g>
        </g>
        <path fill="#FFA32C" d="M185.283 104.48l.608-1.16a.353.353 0 0 0-.05-.397l-.894-.975a.307.307 0 0 0-.455 0l-.894.975a.353.353 0 0 0-.049.398l.608 1.16c.241.46.885.46 1.126 0"/>
        <g fill="#007F7E">
            <path d="M187.967 101.78h-.525c0-.183-.044-.608-.446-.608-.403 0-.447.425-.447.608h-.525c0-.68.39-1.137.972-1.137.58 0 .97.457.97 1.137M183.133 101.78h-.525c0-.183-.043-.608-.446-.608s-.446.425-.446.608h-.526c0-.68.39-1.137.972-1.137.58 0 .971.457.971 1.137"/>
        </g>
        <g stroke="#00C9C3" stroke-linecap="round" stroke-linejoin="round" stroke-width="4">
            <path d="M184.71 66V42.5M195.71 66l6.79-9M174.5 66l-7.5-8.577M184.29 129v23.5M173.29 129l-6.79 9M194.5 129l7.5 8.577"/>
        </g>
    </g>
</svg>
