<svg xmlns="http://www.w3.org/2000/svg" width="50" height="50" viewBox="0 0 50 50">
    <defs>
        <filter id="a" width="341.1%" height="374.4%" x="-118.6%" y="-136.1%" filterUnits="objectBoundingBox">
            <feOffset dx="-5" dy="-1" in="SourceAlpha" result="shadowOffsetOuter1"/>
            <feGaussianBlur in="shadowOffsetOuter1" result="shadowBlurOuter1" stdDeviation="1.5"/>
            <feColorMatrix in="shadowBlurOuter1" result="shadowMatrixOuter1" values="0 0 0 0 0 0 0 0 0 0 0 0 0 0 0 0 0 0 0.134915865 0"/>
            <feMerge>
                <feMergeNode in="shadowMatrixOuter1"/>
                <feMergeNode in="SourceGraphic"/>
            </feMerge>
        </filter>
    </defs>
    <g fill="none" fill-rule="evenodd">
        <circle cx="25" cy="25" r="25" fill="#FFF7D9"/>
        <g filter="url(#a)" transform="rotate(-168 20.775 16.907)">
            <g fill="#FEDD00">
                <path d="M2.608 6.143l5.537-2.015c.486.192.874.384 1.166.576.291.192.534.384.728.576L3.482 7.87c-.194-.095-.389-.287-.583-.575-.194-.288-.291-.672-.291-1.152zM4.065 8.159l6.266-2.591c.144.127.242.222.291.288.05.065.098.16.146.287l-6.12 2.591a.771.771 0 0 1-.292-.144c-.087-.068-.184-.212-.291-.431z"/>
            </g>
            <path fill="#F1A11F" d="M5.517 9.15c2.948.78 6.149.492 6.69-1.497.195-.72.501-1.941.145-2.869-.629-1.638-2.45-2.962-4.363-3.299-4.071-.717-5.235.574-5.816 1.148-.475.468-.564 1.12-.727 1.72-.54 1.99 1.124 4.018 4.071 4.797z"/>
            <path fill="#FEE600" d="M5.517 10.235c2.948.779 6.024-.337 6.564-2.326.54-1.99-1.41-4.234-4.359-5.013-2.947-.78-6.027.185-6.567 2.175-.54 1.99 1.415 4.384 4.362 5.164z"/>
            <path fill="#EFA71F" d="M5.713 9.542c2.509.68 5.1-.147 5.682-2.063.583-1.916-1.02-3.538-3.642-4.274-2.623-.737-5.216.005-5.683 1.768-.467 1.763 1.134 3.89 3.643 4.57z"/>
            <path fill="#FDC010" d="M6.097 9.34c2.914.589 4.809-.59 5.246-2.064.437-1.474-.98-3.338-3.59-4.071-2.611-.733-4.99-.153-5.444 1.565-.455 1.717.874 3.98 3.788 4.57z"/>
            <g fill="#FEDD00">
                <path d="M2.608 6.143l5.537-2.015c.486.192.874.384 1.166.576.291.192.534.384.728.576L3.482 7.87c-.194-.095-.389-.287-.583-.575-.194-.288-.291-.672-.291-1.152zM4.065 8.159l6.266-2.591c.144.127.242.222.291.288.05.065.098.16.146.287l-6.12 2.591a.771.771 0 0 1-.292-.144c-.087-.068-.184-.212-.291-.431z"/>
            </g>
            <path fill="#FFF" d="M4.049 3.17c-.126.522-.273.857-.443 1.005-.17.149-.514.245-1.032.288.507.119.85.263 1.032.43.182.168.33.503.443 1.006.121-.502.269-.837.442-1.006.174-.168.518-.312 1.033-.43-.5-.027-.845-.123-1.033-.288-.188-.164-.335-.5-.442-1.005z"/>
        </g>
        <path fill="#FFB481" d="M38.478 31.637c-1.054.599-4.728 2.986-4.728 2.986a.84.84 0 0 0 .115-.447c0-.585-.856-.9-1.837-1.07-.754-.212-1.56-.247-2.47-.867-1.055-.72-2.186-.565-2.985-.322-.858.26-5.977.16-6.615.182v4.465c.352.031 5.243-.03 5.8.202.98.407 3.632 1.314 5.449 1.314 1.495 0 6.584-3.485 8.284-4.975.447-.391.574-.92.192-1.373-.305-.362-.755-.351-1.205-.095z"/>
        <path fill="#E59768" d="M33.654 34.545c-.22.26-.587.4-.938.353l-3.273-.432a.305.305 0 0 0-.347.249.295.295 0 0 0 .262.33l3.273.431a1.67 1.67 0 0 0 1.568-.662c.027-.04.064-.113.3-.535a.279.279 0 0 0 .036-.123c-.511.228-.881.389-.881.389"/>
        <path fill="#005960" d="M10.034 29.642l10.847.272-.09 8.924-10.736-.271c-.677-.835-1.01-1.754-1-2.757.014-1.505 1.443-3.067 1.47-4.282.017-.81-.146-1.438-.49-1.886z"/>
        <path fill="#FFF" d="M20.906 30.149l.903-.019-.166 8.375-.845-.013z"/>
        <g>
            <g fill="#FEDD00">
                <path d="M25.737 16.263l-.356 4.349a4.91 4.91 0 0 1-.73.624 3.526 3.526 0 0 1-.597.327l.288-5.21c.122-.103.306-.18.553-.227.248-.048.528-.003.842.137zM23.978 16.666l-.2 5.011c-.127.062-.219.1-.277.114a.825.825 0 0 1-.232.015l.156-4.912a.583.583 0 0 1 .182-.156c.071-.039.195-.063.37-.072z"/>
            </g>
            <path fill="#F1A11F" d="M23.082 17.19c-1.338 1.673-2.071 3.811-.963 4.721.4.329 1.089.871 1.78.904 1.22.06 2.581-.737 3.342-1.87 1.62-2.415 1.134-3.527.936-4.063-.162-.437-.55-.679-.885-.954-1.108-.91-2.872-.413-4.21 1.261z"/>
            <path fill="#FEE600" d="M22.394 16.883c-1.338 1.674-1.51 3.966-.402 4.875 1.109.91 3.092.29 4.43-1.384 1.338-1.674 1.606-3.926.498-4.835-1.108-.91-3.188-.33-4.526 1.344z"/>
            <path fill="#EFA71F" d="M22.762 17.228c-1.142 1.409-1.355 3.294-.308 4.205 1.046.911 2.526.346 3.737-1.12 1.21-1.465 1.477-3.327.495-4.122-.982-.794-2.781-.371-3.924 1.037z"/>
            <path fill="#FDC010" d="M22.782 17.53c-1.2 1.693-.993 3.233-.185 3.927s2.389.315 3.594-1.143c1.204-1.459 1.512-3.14.556-3.913-.957-.774-2.765-.563-3.965 1.13z"/>
            <g fill="#FEDD00">
                <path d="M25.737 16.263l-.356 4.349a4.91 4.91 0 0 1-.73.624 3.526 3.526 0 0 1-.597.327l.288-5.21c.122-.103.306-.18.553-.227.248-.048.528-.003.842.137zM23.978 16.666l-.2 5.011c-.127.062-.219.1-.277.114a.825.825 0 0 1-.232.015l.156-4.912a.583.583 0 0 1 .182-.156c.071-.039.195-.063.37-.072z"/>
            </g>
            <path fill="#FFF" d="M23.355 20.083c-.293-.23-.462-.42-.507-.572-.044-.153-.005-.404.119-.755-.223.297-.414.482-.573.553-.159.07-.413.073-.764.005.282.22.45.412.507.572.056.16.047.426-.027.795.162-.319.322-.516.481-.593.159-.076.414-.078.764-.005z"/>
        </g>
        <g fill="#FDC010">
            <path fill-rule="nonzero" d="M40.452 23.41l.207.34-.783.462.47.77-.34.202-.471-.77-.783.463-.208-.34.783-.463-.47-.77.341-.202.47.77zM17.466 16.433l-.221.33-.753-.51-.502.75-.328-.223.503-.75-.753-.511.222-.331.752.511.502-.75.328.223-.502.75z"/>
            <path d="M23.224 13.017l-.805.327.064-.863-.562-.662.845-.206.458-.736.458.736.845.206-.562.662.064.863zM30.6 23.72l-.805.328.063-.864-.561-.661.844-.207.459-.736.458.736.844.207-.561.661.064.864zM37.975 18.264l-.805.327.064-.863-.562-.662.845-.206.458-.737.458.737.845.206-.562.662.064.863z"/>
        </g>
    </g>
</svg>
