<svg xmlns="http://www.w3.org/2000/svg" xmlns:xlink="http://www.w3.org/1999/xlink" width="450" height="345" viewBox="0 0 450 345">
    <defs>
        <path id="a" d="M.004 0h33.834v35.761H.004z"/>
    </defs>
    <g fill="none" fill-rule="evenodd">
        <path fill="#00A7A7" d="M0 0h450v345H0z"/>
        <path fill="#008486" d="M169 230.317c.573-7.023-65.72-57.72-72-53.028-6.28 4.692-82.5 3.312-82.5 19.211 0 9.93 62.838 72.145 85.294 67.127 21.808-4.873 68.878-29.297 69.206-33.31zM380.222 234.07c-3.849-8.717-58.863-2.158-94.207 10.492-35.344 12.65-33.465 38.155-14.94 42.743 11.383 2.82 38.375-.9 64.15-13.881 28.536-14.372 47.197-34.372 44.997-39.354z"/>
        <path fill="#FBFBFB" d="M19 92l63.798-21L161 123.688l-65 25.766z"/>
        <path fill="#D9D9D9" d="M19 92l77 57.454V255l-77-58.214v-35.171c2.722 1.509 4.861 2.83 6.417 3.961-1.556-1.509-3.695-3.207-6.417-5.093v-20.941c3.111.754 5.639 1.698 7.583 2.83-2.333-1.887-4.86-3.208-7.583-3.962V110.11c3.889 1.51 6.417 2.641 7.583 3.396-1.555-1.224-4.083-3.11-7.583-5.66V92z"/>
        <path fill="#C5C5C5" d="M96 149.454l65-25.766v47.783c-3.94 1.65-6.697 3.268-8.273 4.853 2.364-1.585 5.121-2.774 8.273-3.567v28.54c-3.94.793-7.09 1.882-9.455 3.267 3.152-1.385 6.303-2.078 9.455-2.078v28.541l-65 23.807v-105.38z"/>
        <path fill="#FFF" d="M90 183l-61.326-47L23 138.35zM45 179l-23.318-16L18 165.462zM55 216l-25.565-21L27 207.353zM93 166.571L47 135c12.908 10.72 22.632 18.731 29.17 24.034 6.54 5.303 10.79 8.625 12.754 9.966L93 166.571zM88 198.545L52 174l30.645 27zM103 166.696c3.586 2.47 6.368 4.093 8.346 4.87 1.978.776 5.157 1.587 9.539 2.434 2.953-1.187 8.517-4.027 16.692-8.522 8.175-4.494 17.316-10.581 27.423-18.26L159.038 146 103 166.696zM98 215.737l4.64 1.263L156 193zM97 230.857l4.889 1.143L119 224zM99 198.107c2.358 1.915 4.395 3.1 6.111 3.553 1.716.453 4.568.453 8.556 0 1.416-2.165 2.639-3.911 3.666-5.24 1.028-1.327 2.25-3.134 3.667-5.42l-22 7.107z"/>
        <path fill="#D7D7D7" d="M93.357 242.8L80 234v1.1l13.357 9.9L114 237.3v-1.1zM94.894 225L87 222v1l7.894 4L108 222v-1zM94.894 193L87 190v1l7.894 4L108 190v-1z"/>
        <g>
            <path fill="#03B5B5" d="M276.13 68.375c-3.858-2.448-6.664-3.25-8.417-2.408-1.752.843-4.203 5.127-7.351 12.853l15.769-10.445zM333.45 85.007c-1.486-6.879-3.24-10.87-5.265-11.97-2.024-1.102-4.398-.687-7.12 1.245l12.384 10.725z"/>
            <path fill="#08B4B4" d="M312.881 203.15c5.887 2.112 10.167 3.356 12.838 3.73 3.335.47 5.63-1.686 6.444-3.064.75-1.273 1.66-6.19 2.73-14.748l-22.012 14.082z"/>
            <g fill="#FFA32C">
                <path d="M329.25 204.82c2.05 5.405 3.45 8.415 4.203 9.03 1.129.925 9.628 2.734 9.38 3.282-.25.548-8.68-.352-10.26-1.44-1.053-.726-2.41-3.802-4.069-9.23-.276-.364-.33-.729-.165-1.094.166-.365.469-.548.91-.548z"/>
                <path d="M346.326 204.263c1.867.263-2.386 5.547-1.322 6.285 1.242.863 4.341-3.174 5.012-1.123.237.725-1.382 3.321-4.05 6.48-2.654 3.142-6.052 7.338-7.81 5.91-.788-.64-1.375-2.627 1.027-7.716 2.956-6.265 4.99-10.14 7.143-9.836z"/>
            </g>
            <path fill="#08B4B4" d="M270.883 185.706c-1.118 8.593-1.227 13.772-.326 15.538 1.352 2.65 4.317 2.864 7.254 3.23 1.959.244 5.604-.428 10.937-2.017-4.777-2.778-8.125-5.012-10.045-6.702-1.92-1.69-4.527-5.04-7.82-10.049z"/>
            <g fill="#FFA32C">
                <path d="M270.834 200.905c-2.237 5.33-3.743 8.29-4.516 8.879-1.16.884-9.717 2.396-9.488 2.952.23.556 8.686-.05 10.303-1.082 1.078-.688 2.541-3.715 4.389-9.081.288-.355.356-.717.203-1.088-.153-.37-.45-.564-.89-.58z"/>
                <path d="M253.787 199.753c-1.874.198 2.191 5.626 1.102 6.327-1.271.819-4.228-3.323-4.97-1.298-.262.717 1.266 3.368 3.822 6.618 2.542 3.233 5.793 7.545 7.599 6.179.81-.613 1.466-2.577-.757-7.747-2.736-6.364-4.633-10.307-6.796-10.079z"/>
            </g>
            <path fill="#008181" d="M252.363 129.921c-1.633-16.219-22.882-20.997-41.653-27.966-6.554-2.433-15.703-16.24-17.18-15.155-7.195 5.286 6.293 26.72 13.749 31.621-1.795 5.21-1.178 10.78 8.06 16.918 7.508 21.297 20.75 31.695 39.726 31.195-1.594-22.35-2.495-34.554-2.702-36.613z"/>
            <path fill="#FFA32C" d="M332.07 143.161c10.76-22.531 35.21-17.468 54.464-25.797 6.244-2.701 17.399-15.306 18.686-13.664 6.273 8.001-9.673 29.98-17.559 33.932 1.044 6.587-.298 13.007-10.078 17.981-5.568 19.3-29.853 25.046-42.202 19.55-9.784-4.354-4.88-28.715-3.31-32.002z"/>
            <path fill="#00BCBC" d="M331.038 81.81c-20.418-20.432-34.952-6.955-35.38-7.015-.214-.03-8.89-9.418-20.673-6.99-11.782 2.429-17.468 15.87-21.007 21.553-4.434 7.119-7.11 18.605-2.38 34.381-1.374 7.566-3.546 48.487 9.883 64.361 6.376 7.538 17.671 12.877 29.673 14.688.97.147 15.688 3.5 29.724-.39 8.76-2.429 17.049-9.489 22.198-16.352 11.67-15.55 1.807-53.474.544-54.21 1.417-10.076.01-22.541-3.733-34.488-2.667-8.514-8.232-14.92-8.849-15.538z"/>
            <path fill="#FFF" d="M295.793 83.694c1.764-2.958 11.058-6.065 20.595-2.31 8.56 3.371 14.024 14.658 14.753 20.044 1.799 13.283.359 23.259-7.427 29.588-5.997 4.875-16.514 9.932-30.939 7.904-14.424-2.027-28.93-8.058-33.571-16.97-3.939-7.562-1.546-23.343 1.954-30.357 2.27-4.55 10.178-13.528 19-14.075 8.032-.499 14.706 2.711 15.635 6.176z" opacity=".901"/>
            <g>
                <path fill="#008181" d="M274.237 109.247c1.825.88 4.783-.744 5.853-3.585 1.07-2.84.444-6.12-1.382-7-1.825-.881-4.859.802-5.928 3.642-1.07 2.841-.368 6.062 1.457 6.943zM309.158 114.154c-1.997.344-4.393-2.033-4.638-5.058-.245-3.026 1.26-6.005 3.258-6.349 1.997-.343 4.45 2.11 4.695 5.136.245 3.025-1.317 5.928-3.315 6.271z"/>
                <path fill="#FFA32C" d="M293.096 104.658c-2.85-.4-9.596 7.228-10.06 10.53-.464 3.302 3.19 12.193 6.36 12.639 3.922.55 9.26-7.485 9.667-10.386.408-2.902-3.162-12.389-5.967-12.783z"/>
                <path fill="#E38D1D" d="M287.715 116.784c-.143 1.017-.046 6.716 2.435 7.064 2.229.314 3.833-5.146 3.976-6.163.143-1.018-.092-7.992-1.95-8.255-1.857-.263-4.318 6.336-4.461 7.354z"/>
            </g>
            <g fill="#EFEFEF">
                <path d="M347.7 89.553c2.47.765 10.283-10.936 17.382-9.465 7.098 1.471.836-11.94-7.75-9.187-8.587 2.753-12.103 17.886-9.632 18.652zM352.611 94.117c.803.853 6.49-1.877 8.96.297 2.468 2.173 2.992-4.402-1.005-5.288-3.997-.886-8.758 4.137-7.955 4.99z"/>
            </g>
            <g fill="#EFEFEF">
                <path d="M252.639 70.394c-2.803-.711-4.958-15.404-12.665-18.088-7.707-2.684 4.845-10.993 12.015-3.751 7.17 7.242 3.452 22.55.65 21.839zM246.157 73.656c-1.426.804-7.907-5.059-12.105-3.182-4.198 1.876-2.187-6.99 3.525-6.56 5.711.427 10.005 8.938 8.58 9.742z"/>
            </g>
        </g>
        <g>
            <path fill="#185C6B" fill-opacity=".555" d="M61.62 128.074L104 238l95.96-55.876z"/>
            <path fill="#FFF" d="M37.03 90.105l103.596-45.467c13.969 18.415 25.298 36.532 33.988 54.35 8.691 17.818 19.194 45.047 31.51 81.687l-100.914 49.22c-11.456-32.064-21.048-56.017-28.776-71.862-7.727-15.844-20.862-38.487-39.404-67.928z"/>
            <g transform="rotate(-26 229.103 -141.68)">
                <mask id="b" fill="#fff">
                    <use xlink:href="#a"/>
                </mask>
                <path fill="#005150" d="M16.919 0c9.344 0 16.919 8.005 16.919 17.88 0 9.876-7.575 17.881-16.92 17.881C7.576 35.761 0 27.756 0 17.881 0 8.005 7.575 0 16.919 0" mask="url(#b)"/>
            </g>
            <path fill="#008181" d="M103.092 83.29a2.71 2.71 0 0 0 2.459-.797.408.408 0 0 0 .059-.468c-.427-.825-1.206-1.45-2.155-1.62a2.71 2.71 0 0 0-2.458.797.408.408 0 0 0-.06.467c.427.825 1.207 1.451 2.155 1.62M99.447 90.228a.468.468 0 0 0 .122.437c1.547 1.556 3.714 2.296 5.8 1.76a5.416 5.416 0 0 0 2.149-1.107c1.882-1.584.93-4.997-1.526-5.467-2.929-.56-5.745 1.223-6.545 4.377M113.527 79.02a.31.31 0 0 1 .236.193c.823 2.095.057 4.278-1.696 5.201-1.468.773-3.31-.73-2.95-2.407.429-2 2.265-3.313 4.41-2.986"/>
            <path fill="#00BCBC" d="M107.68 84.493c-1.062-1.364-2.473-1.72-2.488-1.724a.582.582 0 0 1-.426-.664.51.51 0 0 1 .622-.414c.072.017 1.795.437 3.114 2.13.19.243.159.59-.068.776a.53.53 0 0 1-.754-.104M114.755 88.559a.51.51 0 0 0-.715.223c-.029.059-.684 1.467.253 3.39l.78 1.6c.136.277.458.398.721.27.263-.128.366-.457.23-.735l-.78-1.6c-.677-1.388-.263-2.352-.24-2.403a.58.58 0 0 0-.25-.745"/>
            <path fill="#00BCBC" d="M112.29 92.764c-.263.128-.586.007-.722-.27l-3.92-8.038c-1.42-2.913-.688-6.05-.657-6.182a.51.51 0 0 1 .648-.376.582.582 0 0 1 .392.686c-.007.029-.665 2.88.568 5.408l3.92 8.037c.136.278.033.607-.23.735"/>
            <path fill="#00BCBC" d="M111.643 91.44a.541.541 0 0 1-.695-.224c-.679-1.125-1.726-1.866-3.112-2.202-1.896-.46-3.863-.001-5.546.91-.256.137-.584.03-.73-.242-.145-.272-.055-.606.202-.745 4.281-2.314 8.386-1.096 10.087 1.722.159.264.087.603-.162.757a.488.488 0 0 1-.044.024M109.6 87.696a.57.57 0 0 1-.585-.522c-.354-3.686 2.254-6.036 2.365-6.134a.527.527 0 0 1 .756.076.563.563 0 0 1-.04.778c-.023.02-2.315 2.104-2.016 5.218a.52.52 0 0 1-.48.584"/>
            <path fill="#FF9600" d="M111.334 97.765c1.932.336 3.243-.228 4.537-.444 1.663-.465 3.248-.593 3.719.372.145.298.197.572.18.824 0 0 2.698-3.497 3.856-5.284a2.9 2.9 0 0 1 .184-.254c-.3 0-.336.102-1.493.641-.34.166-.804.037-1.287-.357l-1.207-.984c-.483-.394-.948-.523-1.287-.358l-1.925.94c-.287.14-.666.069-1.073-.2l-1.554-1.027c-.407-.269-.785-.34-1.073-.2l-1.886.92c-.287.14-.465.483-.503.968l-.147 1.858c-.039.485-.217.827-.504.967l-1.925.94c-.34.165-.524.61-.51 1.234l.006.349c.992-.68 2.29-1.182 3.892-.905"/>
            <path fill="#CD7900" d="M110.458 97.688c-.008-.45.094-.746.3-.847l1.643-.801c.245-.12.345-.519.282-1.129l-.24-2.335c-.045-.444-.004-.775.116-.969l-1.534.748c-.287.14-.465.482-.503.967l-.147 1.858c-.039.486-.217.827-.504.967l-1.925.94c-.34.165-.524.61-.51 1.234l.007.349c.804-.551 1.809-.986 3.015-.982"/>
            <path fill="#FFC59D" d="M125.545 92.32c-.76-.352-1.45.007-1.95.76-1.168 1.765-3.886 5.222-3.886 5.222.02-.247-.03-.517-.172-.808-.46-.943-2.04-.802-3.699-.332-1.338.233-2.617.786-4.521.478-2.207-.358-3.844.748-4.896 1.745-1.13 1.07-2.192 1.39-3.166 1.908l3.508 7.193c.572-.217 1.153-.62 2.203-.67 1.843-.09 6.68-.64 9.504-2.017 2.326-1.134 6.382-7.431 7.855-11.12.387-.97.17-1.918-.78-2.359"/>
            <path fill="#E59768" d="M119.709 98.302a1.74 1.74 0 0 1-1.153 1.314l-5.417 1.723a.535.535 0 0 0-.327.69c.098.292.403.458.682.369l5.417-1.722c.951-.303 1.699-1.13 1.865-2.321.01-.088.004-.243.016-1.148a.581.581 0 0 0-.05-.238c-.597.778-1.033 1.333-1.033 1.333"/>
            <path fill="#E6F8F8" d="M101.895 99.608l-2.873 1.401 5.23 10.725.292.084 2.67-1.302c.31-.152.433-.54.273-.867l-4.741-9.721c-.16-.328-.541-.471-.851-.32"/>
            <path fill="#E6F8F8" d="M105.506 107.012l-2.67 1.302a16.77 16.77 0 0 1-.293-.084l1.71 3.504.291.084 2.67-1.302c.31-.152.433-.54.273-.868l-1.71-3.503c.16.327.039.715-.271.867"/>
            <path fill="#008181" d="M98.278 100.586l-4.76 2.322c2.439 4.493 6.455 7.595 10.918 8.88l-5.308-10.883c-.16-.327-.54-.47-.85-.319"/>
            <path fill="#008181" d="M102.486 109.215l-1.917.935a17.652 17.652 0 0 0 3.867 1.637l-1.678-3.439c.16.328.038.716-.272.867"/>
            <g fill="#007F7E" fill-opacity=".248">
                <path d="M143.77 174.427l-35.27 17.202c-.512.25-.632 1.058-.268 1.804l1.318 2.703c.364.746 1.074 1.148 1.587.898l35.27-17.202c.512-.25.633-1.058.269-1.804l-1.319-2.703c-.363-.746-1.074-1.148-1.587-.898zM138.874 164.389l-35.27 17.202c-.512.25-.632 1.058-.268 1.804l1.318 2.702c.364.747 1.075 1.149 1.587.9l35.27-17.203c.512-.25.633-1.058.269-1.804l-1.318-2.703c-.364-.746-1.075-1.148-1.588-.898zM133.978 154.35l-35.27 17.203c-.512.25-.632 1.058-.268 1.804l1.318 2.702c.364.747 1.075 1.149 1.587.899l35.27-17.202c.512-.25.633-1.058.269-1.804l-1.318-2.703c-.364-.746-1.075-1.148-1.588-.898zM114.822 206.946l-1.318-2.703c-.364-.746-.405-1.475-.09-1.628l21.593-10.532c.314-.153.863.328 1.227 1.074l1.318 2.703c.364.746.405 1.475.091 1.628L116.05 208.02c-.314.153-.864-.328-1.228-1.074z"/>
                <g>
                    <path d="M184.684 154.472l-35.27 17.202c-.512.25-.632 1.058-.268 1.804l1.318 2.702c.364.747 1.075 1.149 1.587.899l35.27-17.202c.512-.25.633-1.058.269-1.804l-1.318-2.703c-.364-.746-1.075-1.148-1.588-.898zM179.789 144.434l-35.27 17.202c-.513.25-.633 1.058-.27 1.804l1.32 2.702c.363.746 1.074 1.149 1.586.899l35.27-17.202c.512-.25.633-1.058.269-1.804l-1.318-2.703c-.364-.746-1.075-1.148-1.587-.898zM174.893 134.396l-35.27 17.202c-.512.25-.633 1.057-.269 1.804l1.318 2.702c.364.746 1.075 1.149 1.587.899l35.27-17.202c.512-.25.633-1.058.269-1.804l-1.318-2.703c-.364-.746-1.075-1.148-1.587-.898zM155.736 186.99l-1.318-2.702c-.364-.746-.404-1.475-.09-1.628l21.593-10.532c.314-.153.864.328 1.227 1.074l1.319 2.702c.363.747.404 1.476.09 1.629l-21.593 10.532c-.314.153-.864-.328-1.228-1.074z"/>
                </g>
            </g>
            <path stroke="#FD0000" stroke-linecap="round" stroke-linejoin="round" stroke-width="3" d="M95.712 161.188l-5.218-26.663 17.985 11.01-.195-14.566 13.858-6.334 6.796-11.525 19.722 10.883 5.412-11.765 18.634 9.661"/>
            <path stroke="#FF7900" stroke-dasharray="3,4" stroke-linecap="round" stroke-linejoin="round" stroke-width="2" d="M96 161.439c15.187-13.61 26.383-24.256 33.59-31.939 7.206-7.683 17.01-19.425 29.41-35.226"/>
        </g>
    </g>
</svg>
