<svg xmlns="http://www.w3.org/2000/svg" xmlns:xlink="http://www.w3.org/1999/xlink" width="450" height="345" viewBox="0 0 450 345">
    <defs>
        <path id="a" d="M.004 0H32.68v34.539H.004z"/>
    </defs>
    <g fill="none" fill-rule="evenodd">
        <path fill="#008486" d="M171.218 209.438c.553-6.783-63.472-55.747-69.539-51.215-6.066 4.532-79.679 3.2-79.679 18.554 0 9.59 60.69 69.678 82.378 64.832 21.062-4.706 66.524-28.295 66.84-32.171z"/>
        <path fill="#FBFBFB" d="M26.346 75.85l61.617-20.282 75.528 50.887-62.777 24.885z"/>
        <path fill="#D9D9D9" d="M26.346 75.85l74.368 55.49v101.937l-74.368-56.224v-33.968c2.63 1.457 4.695 2.733 6.197 3.826-1.502-1.458-3.568-3.098-6.197-4.92v-20.225c3.005.729 5.446 1.64 7.324 2.733-2.253-1.822-4.695-3.097-7.324-3.826V93.342c3.756 1.457 6.197 2.55 7.324 3.28-1.502-1.182-3.944-3.004-7.324-5.467V75.85z"/>
        <path fill="#C5C5C5" d="M100.714 131.34l62.777-24.885v46.15c-3.804 1.593-6.468 3.155-7.99 4.686 2.283-1.531 4.947-2.68 7.99-3.445v27.565c-3.804.765-6.848 1.817-9.13 3.155 3.043-1.338 6.087-2.007 9.13-2.007v27.565l-62.777 22.993V131.34z"/>
        <path fill="#FFF" d="M94.919 163.739l-59.23-45.393-5.48 2.27zM51.457 159.876l-22.52-15.453-3.557 2.377zM61.115 195.61l-24.69-20.281-2.352 11.93zM97.816 147.872L53.39 117.38c12.467 10.353 21.858 18.09 28.173 23.213 6.316 5.121 10.421 8.33 12.318 9.624l3.936-2.345zM92.987 178.753l-34.77-23.707 29.598 26.077zM107.474 147.992c3.464 2.385 6.151 3.953 8.061 4.703 1.91.75 4.981 1.534 9.213 2.351 2.852-1.146 8.226-3.889 16.121-8.23 7.896-4.34 16.724-10.22 26.486-17.636l-5.758-1.176-54.123 19.988zM102.645 195.356l4.482 1.22 51.535-23.18zM101.68 209.96l4.721 1.104 16.526-7.727zM103.611 178.329c2.278 1.85 4.245 2.994 5.902 3.432 1.657.438 4.412.438 8.263 0 1.369-2.091 2.55-3.778 3.542-5.06.992-1.283 2.173-3.028 3.541-5.236l-21.248 6.864z"/>
        <path fill="#D7D7D7" d="M98.161 221.494l-12.9-8.499v1.063l12.9 9.561 19.937-7.437v-1.062zM99.645 204.303l-7.624-2.898v.966l7.624 3.864 12.658-4.83v-.965zM99.645 173.397l-7.624-2.898v.966l7.624 3.864 12.658-4.83v-.965z"/>
        <g>
            <path fill="#185C6B" fill-opacity=".555" d="M67.509 110.69l40.931 106.168 92.68-53.965z"/>
            <path fill="#FFF" d="M43.76 74.02l100.054-43.913c13.491 17.786 24.433 35.283 32.826 52.492 8.394 17.209 18.538 43.507 30.432 78.895l-97.464 47.536c-11.064-30.967-20.327-54.102-27.791-69.404-7.464-15.303-20.15-37.172-38.057-65.606z"/>
            <g transform="rotate(-26 197.103 -160.655)">
                <mask id="b" fill="#fff">
                    <use xlink:href="#a"/>
                </mask>
                <path fill="#005150" d="M16.34 0c9.025 0 16.34 7.732 16.34 17.27 0 9.537-7.315 17.269-16.34 17.269C7.316 34.539 0 26.807 0 17.269 0 7.732 7.316 0 16.34 0" mask="url(#b)"/>
            </g>
            <path fill="#008181" d="M107.564 67.437a2.617 2.617 0 0 0 2.374-.77.394.394 0 0 0 .057-.45c-.412-.797-1.165-1.402-2.081-1.566a2.617 2.617 0 0 0-2.375.77.394.394 0 0 0-.056.451c.411.797 1.165 1.402 2.08 1.565M104.043 74.138a.452.452 0 0 0 .118.423c1.493 1.502 3.587 2.218 5.6 1.7a5.23 5.23 0 0 0 2.077-1.07c1.818-1.53.898-4.826-1.474-5.28-2.828-.54-5.549 1.18-6.321 4.227M117.641 63.314c.1.015.19.088.228.186.796 2.023.055 4.132-1.638 5.023-1.418.747-3.196-.704-2.85-2.325.415-1.932 2.188-3.199 4.26-2.884"/>
            <path fill="#00BCBC" d="M111.995 68.6c-1.026-1.318-2.39-1.662-2.403-1.665a.562.562 0 0 1-.412-.642.492.492 0 0 1 .6-.4c.07.016 1.735.422 3.008 2.058a.541.541 0 0 1-.065.749.511.511 0 0 1-.728-.1M118.827 72.526a.493.493 0 0 0-.69.216c-.028.057-.661 1.417.244 3.273l.754 1.546c.13.268.442.385.696.261.254-.124.353-.441.223-.71l-.754-1.545c-.654-1.341-.254-2.271-.232-2.32a.56.56 0 0 0-.24-.72"/>
            <path fill="#00BCBC" d="M116.446 76.588c-.254.123-.565.006-.696-.262l-3.786-7.762c-1.373-2.814-.665-5.844-.635-5.971a.492.492 0 0 1 .626-.363c.277.083.446.38.378.663-.007.028-.642 2.78.55 5.223l3.785 7.762c.131.268.032.586-.222.71"/>
            <path fill="#00BCBC" d="M115.822 75.31a.523.523 0 0 1-.671-.218c-.656-1.086-1.667-1.801-3.006-2.126-1.83-.444-3.73-.001-5.356.878-.247.134-.564.03-.705-.233-.14-.263-.053-.585.195-.72 4.134-2.234 8.099-1.058 9.741 1.664.154.255.085.582-.156.73a.472.472 0 0 1-.042.024M113.85 71.693a.55.55 0 0 1-.566-.504c-.342-3.56 2.177-5.83 2.284-5.925a.51.51 0 0 1 .73.074.544.544 0 0 1-.038.751c-.023.02-2.237 2.032-1.948 5.04a.502.502 0 0 1-.462.564"/>
            <path fill="#FF9600" d="M115.523 81.418c1.867.324 3.133-.22 4.383-.43 1.605-.448 3.136-.572 3.59.36.141.288.191.553.175.796 0 0 2.606-3.377 3.724-5.103a2.8 2.8 0 0 1 .178-.245c-.29-.001-.325.098-1.442.619-.328.16-.777.035-1.244-.346l-1.164-.95c-.467-.38-.916-.505-1.244-.345l-1.86.907c-.277.135-.643.067-1.035-.192l-1.501-.993c-.393-.26-.759-.327-1.036-.192l-1.822.889c-.277.135-.449.465-.486.934l-.142 1.794c-.037.469-.21.8-.486.934l-1.86.907c-.328.16-.506.59-.493 1.193l.007.336c.958-.656 2.21-1.141 3.758-.873"/>
            <path fill="#CD7900" d="M114.677 81.343c-.008-.433.09-.72.29-.817l1.587-.775c.237-.115.333-.5.272-1.09l-.23-2.254c-.045-.43-.005-.75.11-.937l-1.48.723c-.278.135-.45.465-.487.934l-.142 1.794c-.037.47-.209.8-.486.934l-1.86.907c-.328.16-.506.591-.493 1.193l.007.337c.777-.533 1.748-.952 2.912-.949"/>
            <path fill="#FFC59D" d="M129.248 76.16c-.734-.34-1.4.005-1.882.733-1.129 1.704-3.754 5.043-3.754 5.043a1.495 1.495 0 0 0-.166-.78c-.444-.91-1.97-.775-3.572-.32-1.293.224-2.528.759-4.367.46-2.131-.345-3.713.724-4.729 1.686-1.09 1.034-2.116 1.343-3.058 1.843l3.388 6.947c.553-.209 1.115-.599 2.128-.647 1.78-.086 6.451-.617 9.18-1.948 2.246-1.095 6.163-7.177 7.586-10.74.374-.937.164-1.852-.754-2.278"/>
            <path fill="#E59768" d="M123.612 81.936a1.68 1.68 0 0 1-1.113 1.27l-5.232 1.663a.516.516 0 0 0-.316.667c.094.282.39.442.659.356l5.231-1.663c.92-.292 1.641-1.092 1.802-2.241.01-.085.004-.235.015-1.11a.561.561 0 0 0-.047-.23c-.578.752-.999 1.288-.999 1.288"/>
            <path fill="#E6F8F8" d="M106.407 83.198l-2.775 1.353 5.052 10.358.282.081 2.579-1.257c.3-.146.417-.521.263-.838l-4.58-9.388c-.154-.317-.522-.455-.821-.309"/>
            <path fill="#E6F8F8" d="M109.894 90.348l-2.579 1.258a16.197 16.197 0 0 1-.282-.081l1.651 3.384.282.081 2.579-1.257c.3-.147.417-.522.263-.838l-1.65-3.384c.154.316.036.691-.264.837"/>
            <path fill="#008181" d="M102.914 84.142l-4.598 2.243c2.356 4.34 6.235 7.335 10.545 8.576l-5.126-10.51c-.154-.316-.522-.455-.821-.309"/>
            <path fill="#008181" d="M106.978 92.476l-1.851.903a17.048 17.048 0 0 0 3.734 1.582l-1.62-3.322c.154.317.037.691-.263.837"/>
            <g fill="#007F7E" fill-opacity=".248">
                <path d="M146.85 155.459l-34.063 16.614c-.495.241-.611 1.021-.26 1.742l1.273 2.61c.352.72 1.038 1.11 1.533.868l34.064-16.614c.495-.241.611-1.022.26-1.742l-1.273-2.61c-.352-.721-1.038-1.11-1.533-.868zM142.122 145.764l-34.064 16.614c-.495.241-.61 1.022-.26 1.742l1.274 2.61c.351.721 1.038 1.11 1.533.868l34.063-16.614c.495-.241.612-1.021.26-1.742l-1.273-2.61c-.351-.72-1.038-1.11-1.533-.868zM137.394 136.069l-34.064 16.614c-.495.241-.611 1.022-.26 1.742l1.273 2.61c.352.721 1.038 1.11 1.533.868l34.064-16.614c.495-.241.611-1.021.26-1.742l-1.273-2.61c-.352-.72-1.038-1.11-1.533-.868zM118.892 186.866l-1.273-2.61c-.351-.72-.39-1.425-.087-1.573l20.855-10.172c.303-.148.834.317 1.185 1.038l1.273 2.61c.352.72.391 1.425.088 1.572l-20.855 10.172c-.303.148-.834-.316-1.186-1.037z"/>
                <g>
                    <path d="M186.366 136.186L152.302 152.8c-.495.241-.61 1.021-.26 1.742l1.274 2.61c.351.721 1.038 1.11 1.533.868l34.063-16.614c.495-.241.612-1.021.26-1.742l-1.273-2.61c-.351-.721-1.038-1.11-1.533-.868zM181.638 126.49l-34.064 16.615c-.495.241-.611 1.022-.26 1.742l1.273 2.61c.352.721 1.038 1.11 1.533.868l34.064-16.614c.495-.241.611-1.021.26-1.742l-1.273-2.61c-.352-.72-1.038-1.11-1.533-.868zM176.91 116.796l-34.065 16.614c-.495.241-.611 1.022-.26 1.742l1.274 2.61c.351.721 1.038 1.11 1.533.868l34.063-16.614c.495-.241.612-1.021.26-1.742l-1.273-2.61c-.351-.72-1.038-1.11-1.533-.868zM158.408 167.593l-1.273-2.61c-.352-.72-.391-1.425-.088-1.573l20.855-10.172c.304-.148.834.317 1.186 1.038l1.273 2.61c.351.72.39 1.425.088 1.572l-20.856 10.172c-.303.148-.834-.316-1.185-1.037z"/>
                </g>
            </g>
            <path stroke="#FD0000" stroke-linecap="round" stroke-linejoin="round" stroke-width="3" d="M100.436 142.673l-5.04-25.752 17.37 10.633-.188-14.068 13.384-6.117 6.563-11.131 19.049 10.511 5.226-11.363 17.997 9.332"/>
            <path stroke="#FF7900" stroke-dasharray="3,4" stroke-linecap="round" stroke-linejoin="round" stroke-width="2" d="M100.714 142.915c14.667-13.145 25.48-23.427 32.44-30.847 6.96-7.42 16.43-18.76 28.406-34.022"/>
        </g>
        <path fill="#008486" d="M402.994 263.66c.44-5.072-24.723-15.218-69.986-17.414-45.262-2.197-95.082 10.892-77.325 17.414 10.912 4.008 42.318 8.53 77.325 8.334 38.754-.217 69.735-5.435 69.986-8.334z" opacity=".9"/>
        <g>
            <path fill="#03B5B5" d="M293.9 89.265c-7.065-6.71-12.457-10.065-16.177-10.065-3.72 0-6.582 2.2-8.587 6.598l24.764 3.467zM227.372 116.178c-5.795.3-8.858 2.225-9.19 5.778-.33 3.552 1.01 8.628 4.02 15.23l5.17-21.008z"/>
            <g fill="#FFA32C">
                <path d="M355.978 250.626c-.666.513-1.485 2.625.49 2.917 1.186.176 5.223-1.329 6.938-1.075 1.892.28-.896 3.316 1.132 3.617 2.027.3 6.276-3.94 6.489-5.951.212-2.012.22-3.323-1.196-3.533-1.416-.21-12.096 2.673-13.853 4.025z"/>
                <path d="M359.667 231.969c3.677 3.041 5.951 5.368 6.825 6.979.873 1.61 1.51 4.396 1.913 8.357l1.491-.39c-.736-4.311-1.233-6.967-1.491-7.967-.181-.7-2.568-3.386-7.162-8.06-.7-.936-1.25-1.217-1.646-.842-.396.376-.373 1.016.07 1.923z"/>
            </g>
            <g fill="#FFA32C">
                <path d="M318.57 230.969c-2.628 3.187-4.311 5.1-5.051 5.739-.74.638-1.973 2.931-3.699 6.878-1.627 3.323-2.29 5.157-1.986 5.503.303.346 1.427-1.259 3.373-4.815 1.827-2.896 3.027-4.59 3.6-5.084.572-.494 2.281-2.715 5.127-6.664.18-.494.118-.914-.185-1.26-.304-.346-.697-.445-1.18-.297z"/>
                <path d="M303.795 247.606c-4.702.363-21.82 4.284-16.923 6.76.441.224 8.03-1.602 9.419-1.255 1.727.432-.851 3.115 1.723 2.311 1.981-.618 5.385-3.771 7.133-3.972 1.632-.188 6.972-1.35 7.294-1.671 1.647-1.648-3.945-2.535-8.646-2.173z"/>
            </g>
            <path fill="#00BCBC" d="M280.958 200.533c33.608 0 55.957-22.523 55.957-45.047 0-13.403 1.552-23.385-5.246-32.378-9.764-12.917-25.823-36.349-42.318-38.009-26.371-4.166-67.148 15.479-67.148 52.086.923 8.605 6.277 31.783 23.082 47.68 8.656 8.187 24.248 15.668 35.673 15.668z"/>
            <path fill="#00BCBC" d="M360.04 165.663c0-16.961-8.614-27.203-18.97-38.96-6.352-7.21-22.626-24.487-30.916-29.751-7.5-4.763-74.168 31.936-74.168 68.71 0 34.832 47.67 74.738 85.575 70.694 22.616-2.414 38.48-33.919 38.48-70.693z"/>
            <path fill="#00BCBC" d="M302.608 235.2c20.101 4.622 37.906 2.458 43.649 1.156 16.32-2.52 26.993-8.09 32.162-16.756 3.446-5.778 3.78-11.53 1.002-17.259-6.025-23.532-10.21-38.38-12.557-44.545-4.323-11.359-10.7-22.37-19.532-23.13-7.674 0-48.89 71.352-44.724 100.534z"/>
            <path fill="#FFA32C" d="M395.512 212.982c1.894-3.458-16.49-26.26-16.97-33.403-.48-7.159.677-35.032-11.239-48.062-4.54-4.965-22.475-6.751-27.649-7.25-2.424 0 10.958 24.282 19.09 37.544 7.734 12.61-4.357 37.667 14.849 46.906 4.519 2.174 21.25 5.486 21.919 4.265z"/>
            <path fill="#FFF" d="M269.097 120.18c-6.5-7.268-16.905-9.925-26.793-4.002-9.888 5.922-14.278 18.282-9.1 30.49 5.713 13.47 13.537 28.326 24.719 30.394 9.705 1.795 32.203-3.31 42.797-11.085 10.594-7.776 21.927-22.805 23.592-34.153 1.413-9.628-9.975-20.586-16.244-26.86-7.769-7.775-18.932-15.5-30.156-8.43-11.223 7.068-11.223 14.444-8.815 23.646z" opacity=".901"/>
            <path fill="#008181" d="M288.818 127.733c-.72-.173-1.095-.576-1.126-1.209-.153-3.164.77-6.463 2.202-8.28 2.668-3.389 12.6-1.676 13.157-1.302.13.088 2.361.733 1.748.923-2.003.618-9.64 1.303-12.01 3.319-2.064 1.754-3.387 3.938-3.971 6.55zM265.851 140.014c-.014-.768-.33-1.235-.947-1.398-3.087-.816-6.54-.565-8.642.512-3.92 2.009-4.388 12.475-4.14 13.12.058.151.21 2.556.53 1.972 1.044-1.91 3.379-9.54 5.88-11.531 2.178-1.734 4.618-2.626 7.32-2.675z"/>
            <path fill="#FFA32C" d="M279.212 135.026c-2.148.691-2.148 7.858-2.148 10.694 0 2.837 1.12 3.965 1.368 4.118 2.306 1.418 6.609 7.265 11.623 6.443 4.313-.707 3.666-14.623 2.051-17.123-1.093-1.692-9.275-5.296-12.894-4.132z"/>
            <path fill="#E38D1D" d="M280.21 147.378c5.493 2.048 8.672 2.633 9.536 1.754.24-.243.947-1.75.804-4.495-.047-.919-.387-2.608-1.018-5.068-.472 2.49-1.091 4.515-1.856 6.075-.2.406-2.688.984-7.467 1.734z"/>
            <path fill="#008181" d="M248.622 179.733c-5.014 6.127-7.813 10.948-5.17 18.49 2.644 7.54 15.507 23.688 21.25 26.577 5.744 2.889 10.37.143 11.93-3.37.78-1.752 1.644-3.81 2.552-6.117 7.879-20.014 23.515-47.592 14.81-66.202-4.595-9.822-7.955 6.588-14.359 14.445-8.904 10.923-28.097 12.614-31.013 16.177z"/>
            <g fill="#B7E5E3">
                <path d="M216.062 105.335c-2.2 1.697-14.502-4.473-21.1-.191-6.596 4.281-5.36-9.393 4.335-10.869 9.696-1.476 18.965 9.362 16.765 11.06zM214.567 109.542c.168 1.271-9.816 3.178-11.086 8.941-1.27 5.764-9.46-2.384-5.57-6.801 3.889-4.418 16.489-3.411 16.656-2.14z"/>
            </g>
            <path fill="#FFF" fill-opacity=".8" d="M207.644 99.968c-1.298.85-7.871-1.343-11.728.85-3.857 2.19-2.572-3.931 2.886-5.015 5.458-1.084 10.14 3.315 8.842 4.165z"/>
            <path fill="#FFF" fill-opacity=".7" d="M207.27 110.78c.05 1.076-5.081 3.281-5.214 6.31-.132 3.029-4.548-.669-2.692-3.948 1.857-3.28 7.858-3.437 7.907-2.362z"/>
            <g>
                <path fill="#B7E5E3" d="M305.49 78.867c-2.29-.99 2.32-15.938 10.73-17.957s13.256 12.057 6.617 9.947c-6.64-2.11-15.057 9-17.347 8.01zm16.671.306c-.407-1.113 5.976-3.91 9.33-1.504 3.354 2.407.283 8.326-1.149 5.324-1.432-3-7.773-2.707-8.18-3.82z"/>
                <path fill="#FFF" fill-opacity=".8" d="M308.449 71.904c1.236.423 6.088-5.042 9.688-4.179 3.6.863 1.234-5.732-3.423-4.593-4.658 1.139-7.501 8.35-6.265 8.772z"/>
                <path fill="#FFF" fill-opacity=".7" d="M325.317 78.682c.288.655 4.125.853 5.103 2.636.978 1.784 2.625-1.395.503-2.952-2.123-1.557-5.894-.338-5.606.316z"/>
            </g>
        </g>
    </g>
</svg>
