<svg xmlns="http://www.w3.org/2000/svg" xmlns:xlink="http://www.w3.org/1999/xlink" width="450" height="345" viewBox="0 0 450 345">
    <defs>
        <path id="a" d="M86.93 50.312L33.872 84.594C27.607 74.66 18.835 67.212 8.809 62.245L39.044 6.943c19.328 9.576 36.24 23.938 48.32 43.088 12.08 19.15 19.328 43.087 19.328 71.812-5.898 8.938-25.363 11.627-35.815 11.627-10.48 0-21.986-1.959-26.979-11.627 0-14.9-3.76-27.316-10.025-37.25l53.491-34.562z"/>
        <path id="c" d="M68.574 69.802c-11.446.167-22.847 2.59-33.022 7.27C24.944 59.059 15.608 39.618 5 21.606 24.59 12.597 45.356 9.25 67.302 9.014V9c.39 0 .78.001 1.17.004C68.93 9 69.387 9 69.845 9v.019c22.036.322 43.984 4.838 63.574 13.847-10.607 18.013-21.215 36.193-31.822 54.206-10.175-4.68-21.577-7.103-33.023-7.27z"/>
        <path id="e" d="M81.483 84.604L27.99 50.041c12.08-19.15 28.993-33.512 48.32-43.087l30.235 55.301c-10.025 4.967-18.798 12.417-25.063 22.349zm0 0c-6.266 9.933-10.026 22.35-10.026 37.249-12.074 6.609-21.62 9.531-32.87 9.531-9.682 0-23.471-1.75-29.924-9.531 0-28.725 7.248-52.663 19.328-71.812l53.492 34.563z"/>
        <filter id="g" width="178.3%" height="225.6%" x="-39.1%" y="-62.8%" filterUnits="objectBoundingBox">
            <feOffset in="SourceAlpha" result="shadowOffsetOuter1"/>
            <feGaussianBlur in="shadowOffsetOuter1" result="shadowBlurOuter1" stdDeviation="7"/>
            <feColorMatrix in="shadowBlurOuter1" result="shadowMatrixOuter1" values="0 0 0 0 0 0 0 0 0 0 0 0 0 0 0 0 0 0 0.5 0"/>
            <feMerge>
                <feMergeNode in="shadowMatrixOuter1"/>
                <feMergeNode in="SourceGraphic"/>
            </feMerge>
        </filter>
    </defs>
    <g fill="none" fill-rule="evenodd">
        <g transform="translate(87.443 23.818)">
            <mask id="b" fill="#fff">
                <use xlink:href="#a"/>
            </mask>
            <use fill="#22C500" transform="scale(-1 1) rotate(8 0 -755.667)" xlink:href="#a"/>
            <path fill="#FFF" fill-opacity=".2" d="M44.903 85.15c-5.932-7.94-13.848-13.975-22.796-18.105l29.251-49.853c16.886 6.796 32.98 21.184 44.594 37.762l.127-.075c11.945 17.333 19.994 49.788 19.994 75.788-5.623 11.197-22.795 2.751-33.947 2.751-9.543 0-19.48-13.54-29.023-13.54 0-13.485-3.718-24.724-9.913-33.715l1.713-1.013z" mask="url(#b)" transform="scale(-1 1) rotate(8 0 -911.203)"/>
        </g>
        <g transform="translate(150.017 -1.44)">
            <mask id="d" fill="#fff">
                <use xlink:href="#c"/>
            </mask>
            <use fill="#FF8200" transform="scale(-1 1) rotate(8 0 -946.708)" xlink:href="#c"/>
            <path fill="#FFF" fill-opacity=".2" d="M69.967 77.935l.001.776c-10.435 0-20.87 2.174-30.145 6.523C30.5 69.093 22.293 51.67 12.968 35.53c17.883-8.384 35.98-12.305 56.098-12.305v.218c19.856.088 39.686 4.133 57.336 12.425-9.305 16.14-18.61 32.432-27.916 48.574-8.792-4.131-18.629-6.3-28.519-6.507z" mask="url(#d)" transform="scale(-1 1) rotate(8 0 -942.313)"/>
        </g>
        <g transform="translate(248.904 1.368)">
            <mask id="f" fill="#fff">
                <use xlink:href="#e"/>
            </mask>
            <use fill="#E10600" transform="scale(-1 1) rotate(8 0 -754.619)" xlink:href="#e"/>
            <path fill="#FFF" fill-opacity=".2" d="M69.915 97.283L16.424 62.719c12.08-19.15 28.992-33.512 48.32-43.087L94.98 74.934C84.953 79.9 76.18 87.35 69.915 97.283zM59.89 134.53H-2.904c0-28.724 7.247-52.662 19.328-71.812l53.491 34.564c-6.266 9.933-10.025 22.35-10.025 37.248z" mask="url(#f)" transform="scale(-1 1) rotate(8 0 -581.28)"/>
        </g>
        <path fill="#FFF" d="M33.093 37.179L.594 38.917l26.14-21.938C28.855 7.623 37.22.637 47.217.637c11.598 0 21 9.402 21 21s-9.402 21-21 21a20.923 20.923 0 0 1-14.123-5.458z" filter="url(#g)" transform="translate(182.432 82.515)"/>
        <path fill="#FFF" fill-rule="nonzero" d="M56.547 145.43l-2.32-35.018 8.61-1.21 1.735 27.555 13.712-1.927.539 7.47-22.276 3.13zm37.81-2.558c-2.519.354-4.785.14-6.798-.64-2.014-.78-3.651-2.059-4.913-3.836-1.262-1.778-2.073-3.944-2.432-6.5-.407-2.893-.24-5.463.503-7.71.741-2.248 1.974-4.068 3.697-5.459s3.83-2.261 6.318-2.611c2.49-.35 4.734-.125 6.735.674 2 .799 3.632 2.087 4.894 3.865 1.262 1.777 2.07 3.927 2.425 6.45.411 2.925.254 5.511-.473 7.757-.727 2.246-1.946 4.055-3.657 5.427-1.71 1.372-3.81 2.233-6.3 2.583zm-.592-6.916c1.433-.201 2.379-1.032 2.837-2.494.457-1.46.535-3.264.234-5.41-.265-1.881-.772-3.232-1.524-4.052-.751-.82-1.764-1.141-3.037-.962-1.46.205-2.42 1.03-2.88 2.475-.46 1.445-.544 3.207-.252 5.286.274 1.948.788 3.34 1.541 4.177.754.836 1.78 1.163 3.081.98zm44.844-26.706l8.507-1.195-8.616 25.447-7.042.99-5.579-11.239-3.73 12.547-7.136 1.003-11.469-22.624 8.554-1.203L118.217 126l4.325-14.491 5.576-.784 6.058 13.27 4.433-14.745z"/>
        <g>
            <path fill="#008486" d="M340.707 294.798c-3.127-7.083-47.826-1.754-76.543 8.524-28.717 10.278-27.19 31.001-12.139 34.73 9.249 2.29 31.18-.732 52.123-11.28 23.185-11.676 38.347-27.926 36.56-31.974z"/>
            <path fill="#03B5B5" d="M259.452 142.365c-3.994-2.55-6.9-3.386-8.716-2.504-1.817.882-4.36 5.357-7.63 13.424l16.346-10.92zM319.638 159.778c-1.53-7.18-3.343-11.342-5.44-12.49-2.095-1.147-4.554-.711-7.377 1.308l12.817 11.182z"/>
            <path fill="#08B4B4" d="M299.364 283.325c6.097 2.205 10.53 3.504 13.296 3.897 3.455.49 5.831-1.76 6.674-3.2.778-1.328 1.72-6.46 2.826-15.395l-22.796 14.698z"/>
            <g fill="#FFA32C">
                <path d="M316.29 285.054c2.138 5.644 3.597 8.788 4.379 9.432 1.171.966 9.984 2.874 9.728 3.445-.256.57-8.996-.388-10.636-1.527-1.094-.76-2.507-3.972-4.239-9.637-.286-.381-.344-.762-.174-1.143.171-.38.485-.57.943-.57z"/>
                <path d="M333.988 284.513c1.935.279-2.46 5.781-1.356 6.554 1.29.903 4.493-3.301 5.192-1.16.248.756-1.425 3.461-4.182 6.75-2.743 3.272-6.256 7.642-8.081 6.148-.818-.67-1.432-2.744 1.046-8.047 3.05-6.529 5.149-10.566 7.381-10.245z"/>
            </g>
            <path fill="#08B4B4" d="M252.62 268.084c-1.187 8.962-1.315 14.362-.386 16.201 1.393 2.758 4.468 2.972 7.513 3.345 2.03.249 5.813-.463 11.348-2.137-4.945-2.88-8.411-5.2-10.397-6.956-1.986-1.756-4.679-5.24-8.079-10.453z"/>
            <g fill="#FFA32C">
                <path d="M252.513 283.932c-2.333 5.566-3.901 8.657-4.704 9.273-1.205.925-10.079 2.524-9.843 3.103.236.58 9.004-.073 10.683-1.154 1.12-.721 2.644-3.882 4.572-9.484.3-.37.371-.75.214-1.135-.158-.387-.465-.588-.922-.603z"/>
                <path d="M234.845 282.774c-1.944.21 2.257 5.863 1.127 6.597-1.32.857-4.375-3.456-5.149-1.341-.273.748 1.303 3.51 3.945 6.893 2.627 3.365 5.985 7.855 7.861 6.425.84-.64 1.526-2.692-.765-8.078-2.82-6.632-4.776-10.74-7.019-10.496z"/>
            </g>
            <path fill="#008181" d="M232.673 209.528c-1.673-16.928-23.68-21.891-43.115-29.144-6.787-2.532-16.248-16.933-17.779-15.8-7.46 5.526 2.568 46.66 22.666 54.975 7.174 17.21 20.835 26.604 40.985 28.182-1.626-23.327-2.545-36.065-2.757-38.213z"/>
            <path fill="#FFA32C" d="M315.561 220.695c11.507-21.383 36.685-17.047 56.723-25.218 6.5-2.65 18.243-14.702 19.545-13.18 6.344 7.418-11.382 41.44-29.453 49.317-6.086 18.253-31.28 24.082-43.946 19.128-10.035-3.925-4.548-26.927-2.869-30.047z"/>
            <path fill="#00BCBC" d="M317.382 156.985c-21.655-21.78-37.09-7.391-37.544-7.455-.228-.032-9.43-10.04-21.936-7.44-12.506 2.6-18.552 16.943-22.312 23.008-4.711 7.597-7.56 19.852-2.554 36.677-1.463 8.072-3.8 51.727 10.44 68.65 6.762 8.035 18.745 13.722 31.482 15.645 1.03.155 16.647 3.722 31.547-.44 9.299-2.597 18.101-10.135 23.572-17.46 12.397-16.598 1.96-57.045.62-57.83 1.51-10.749.026-24.045-3.936-36.786-2.824-9.08-8.725-15.91-9.38-16.569z"/>
            <path fill="#FFF" d="M275.19 167.065c1.83-3.09 7.45-9.199 18.722-7.918 15.828 1.798 22.78 15.566 23.206 24.58.663 14.013-.25 22.488-8.322 29.103-6.217 5.095-18.542 8.48-33.482 6.38-14.94-2.1-29.959-8.38-34.757-17.676-4.07-7.888-2.332-19.216.523-26.788 3.818-10.123 10.497-16.698 19.636-17.28 8.321-.53 13.515 5.983 14.474 9.599z" opacity=".901"/>
            <path fill="#FFA32C" d="M273.721 188.001c-1.927-.624-5.946 6.12-7.352 8.532-.205.353-.39.949-.418 1.47-.098 1.87 4.029 9.66 6.732 9.801 2.73.143 7.036-5.743 7.21-9.07.052-.981-3.361-9.823-6.172-10.733z"/>
            <path fill="#E38D1D" d="M268.44 197.667c.166-.182 2.99.951 4.72 1.042 1.553.081 5.29-.723 5.112-.527-.179.196-4.048 4.048-5.245 3.836-.471-.083-4.754-4.169-4.587-4.351z"/>
            <path fill="#008181" d="M285.67 189.546c-.305-.448-.313-.851-.022-1.21 1.455-1.795 3.559-3.134 5.217-3.419 3.093-.53 7.642 5.28 7.762 5.757.028.112.922 1.558.498 1.36-1.385-.648-5.857-4.028-8.12-4.097-1.971-.06-3.75.477-5.335 1.61zM264.48 187.757c.367-.425.422-.833.167-1.225-1.276-1.96-3.269-3.52-4.931-3.968-3.1-.834-8.44 4.625-8.62 5.097-.041.11-1.127 1.493-.67 1.332 1.493-.525 6.466-3.525 8.79-3.379 2.022.128 3.777.842 5.265 2.143z"/>
        </g>
        <path fill="#FFF" fill-rule="nonzero" d="M322.671 75.998l5.218-.733 1.42 21.689-5.275.741-.564-8.774-8.155 1.146.565 8.774-5.246.737-1.42-21.688 5.274-.742.547 8.44 8.154-1.147-.518-8.443zm10.18 18.92l-.98-13.239 3.906-.549.98 13.238-3.907.55zm-1.058-22.826l4.486-.63.531 6.005-4.462.627-.555-6.002zm22.668 5.115l.884 13.637c.192 2.653-.306 4.679-1.495 6.078-1.189 1.4-3.026 2.274-5.512 2.623-2.273.32-4.302.184-6.087-.406l.47-3.998c1.682.625 3.437.808 5.266.551.94-.132 1.635-.479 2.08-1.04.447-.562.638-1.396.573-2.501l-.116-1.598c-.785 1.245-2.038 1.988-3.76 2.23-1.137.16-2.184.024-3.141-.41-.957-.432-1.752-1.122-2.383-2.07-.631-.948-1.041-2.094-1.23-3.436-.207-1.477-.12-2.854.262-4.13.382-1.276 1.022-2.33 1.919-3.16.897-.83 1.985-1.335 3.264-1.515 1.758-.247 3.21.234 4.358 1.442l-.12-1.627 4.768-.67zm-6.433 11.389c.737-.104 1.277-.529 1.618-1.275.342-.745.433-1.682.275-2.809-.161-1.147-.485-1.974-.971-2.48s-1.106-.707-1.859-.6c-.737.103-1.277.527-1.618 1.273-.342.746-.428 1.723-.258 2.93.144 1.027.465 1.803.961 2.328.497.525 1.114.736 1.852.633zm18.063-13.299c1.596-.224 2.869.078 3.818.906.95.828 1.551 2.146 1.805 3.954.06.428.097.76.111.996l.538 8.787-5.158.724-.509-8.582-.033-.442c-.1-.719-.344-1.245-.73-1.577-.386-.333-.902-.454-1.548-.363-.778.11-1.35.453-1.715 1.03-.364.576-.512 1.316-.443 2.218l.504 8.345-5.158.725-1.364-21.696 5.158-.725.509 8.166a5.838 5.838 0 0 1 1.763-1.616 6.384 6.384 0 0 1 2.452-.85z"/>
        <ellipse cx="229.648" cy="104.152" fill="#00BCBC" rx="12.665" ry="12.531"/>
    </g>
</svg>
