<svg xmlns="http://www.w3.org/2000/svg" width="450" height="345" viewBox="0 0 450 345">
    <defs>
        <filter id="a" width="178.3%" height="225.6%" x="-39.1%" y="-62.8%" filterUnits="objectBoundingBox">
            <feOffset in="SourceAlpha" result="shadowOffsetOuter1"/>
            <feGaussianBlur in="shadowOffsetOuter1" result="shadowBlurOuter1" stdDeviation="7"/>
            <feColorMatrix in="shadowBlurOuter1" result="shadowMatrixOuter1" values="0 0 0 0 0 0 0 0 0 0 0 0 0 0 0 0 0 0 0.5 0"/>
            <feMerge>
                <feMergeNode in="shadowMatrixOuter1"/>
                <feMergeNode in="SourceGraphic"/>
            </feMerge>
        </filter>
    </defs>
    <g fill="none" fill-rule="evenodd">
        <g fill-rule="nonzero">
            <path fill="#D0022A" d="M305.744 29.565c27.585 21.632 44.853 53.858 49.951 89.75 2.02 14.223-11.925 27.445-31.15 29.466-19.224 2.02-36.446-6.926-38.466-22.15-1.948-14.674-11.64-33.81-26.397-44.077l46.062-52.99z"/>
            <path fill="#22C500" d="M184.988 87.312a61.613 61.613 0 0 0-5.882 5.987c-10.868 12.681-16.463 29.187-14.359 46.085 2.02 16.224-11.926 25.446-31.15 27.466-19.224 2.02-36.446-5.925-38.466-20.15-5.132-36.122 7.561-71.808 30.824-98.952 1.93-2.253 3.93-4.433 5.997-6.54l53.036 46.104z"/>
            <path fill="#FF8200" d="M260.876 83.412a47.363 47.363 0 0 0-2.874-1.974c-11.522-7.298-25.087-10.555-38.965-9.097-13.165 1.384-25.173 6.87-34.655 15.516l-52.995-46.069c21.147-21.823 49.35-35.807 80.333-39.063 29.698-3.121 59.014 3.917 83.738 19.577a125.405 125.405 0 0 1 11.435 8.174l-46.017 52.936z"/>
            <path fill="#FFF" fill-opacity=".2" d="M108.478 163.146c-3.8-36.492 1.82-72.21 23.026-99.673 20.642-26.733 49.685-43.95 81.871-47.705 28.35-3.307 56.335 4.15 79.937 20.743 31.968 22.475 48.955 60.012 54.454 102.413-5.629 5.179-13.79 8.866-23.22 9.857-19.225 2.02-36.447-6.926-38.467-22.15-2.02-15.224-12.378-35.25-28.077-45.193-11.522-7.298-25.087-10.555-38.965-9.097-15.747 1.656-29.837 9.18-39.93 20.958-10.869 12.681-16.464 29.187-14.36 46.085 2.02 16.224-11.926 25.446-31.15 27.466-9.353.983-18.233-.393-25.119-3.704z"/>
        </g>
        <path fill="#FFF" d="M33.093 37.179L.594 38.917l26.14-21.938C28.855 7.623 37.22.637 47.217.637c11.598 0 21 9.402 21 21s-9.402 21-21 21a20.923 20.923 0 0 1-14.123-5.458z" filter="url(#a)" transform="translate(178.432 94.515)"/>
        <path fill="#FFF" fill-rule="nonzero" d="M58.707 152.446l-2.32-35.018 8.61-1.21 1.735 27.555 13.712-1.927.538 7.47-22.275 3.13zm37.81-2.559c-2.52.354-4.785.141-6.798-.639-2.014-.78-3.651-2.059-4.913-3.836-1.262-1.778-2.073-3.945-2.432-6.5-.407-2.893-.24-5.463.503-7.71.741-2.249 1.974-4.068 3.697-5.46 1.723-1.39 3.83-2.26 6.318-2.61 2.49-.35 4.734-.126 6.735.674 2 .799 3.632 2.087 4.894 3.864 1.262 1.778 2.07 3.928 2.425 6.45.411 2.926.254 5.512-.473 7.758-.727 2.245-1.946 4.054-3.657 5.426-1.71 1.373-3.81 2.234-6.3 2.583zm-.592-6.915c1.433-.201 2.379-1.033 2.837-2.494.457-1.461.535-3.265.234-5.41-.265-1.882-.773-3.232-1.524-4.053-.751-.82-1.764-1.14-3.038-.961-1.46.205-2.42 1.03-2.88 2.475-.46 1.444-.543 3.207-.25 5.286.273 1.948.787 3.34 1.54 4.176.754.837 1.78 1.164 3.081.981zm44.844-26.706l8.507-1.195-8.616 25.447-7.042.99-5.58-11.24-3.73 12.548-7.136 1.002-11.468-22.624 8.554-1.202 6.119 13.023 4.325-14.49 5.576-.784 6.058 13.27 4.433-14.745z"/>
        <ellipse cx="225.648" cy="116.152" fill="#00BCBC" rx="12.665" ry="12.531"/>
        <path fill="#FFF" fill-rule="nonzero" d="M312.764 77.239l6.372-.896 1.669 26.021-6.442.905-.663-10.527-9.958 1.4.663 10.527-6.407.9-1.669-26.02 6.442-.906.641 10.124 9.959-1.4-.607-10.128zm12.445 22.057L324.058 83.3l4.866-.684 1.152 15.996-4.867.684zm-1.247-26.938l5.589-.785.591 6.985-5.559.782-.621-6.982zm28.271 5.886l1.046 16.36c.228 3.182-.38 5.614-1.826 7.295-1.445 1.681-3.676 2.734-6.693 3.158-2.759.387-5.22.229-7.386-.476l.579-4.797c2.039.746 4.168.963 6.388.65 1.142-.16 1.985-.577 2.527-1.252.543-.675.776-1.675.7-3.002l-.138-1.916c-.955 1.495-2.478 2.39-4.568 2.683-1.38.194-2.65.032-3.81-.485-1.16-.517-2.123-1.344-2.887-2.48-.764-1.137-1.26-2.51-1.486-4.12-.249-1.772-.14-3.424.326-4.956.466-1.532 1.244-2.797 2.334-3.795 1.09-.998 2.412-1.606 3.964-1.824 2.133-.3 3.895.274 5.286 1.72l-.143-1.95 5.787-.813zm-8.583 13.674c.919-.129 1.59-.658 2.016-1.587.426-.929.54-2.095.343-3.5-.201-1.428-.605-2.458-1.21-3.089-.606-.63-1.378-.88-2.315-.748-.919.129-1.59.658-2.017 1.587-.425.93-.532 2.146-.32 3.65.179 1.278.578 2.245 1.197 2.9.619.654 1.388.916 2.306.787zm22.688-15.845c1.936-.272 3.48.088 4.63 1.08 1.15.991 1.879 2.571 2.183 4.74.072.513.117.912.133 1.195l.635 10.541-6.26.88-.6-10.297-.04-.53c-.121-.862-.416-1.493-.883-1.89-.467-.399-1.093-.543-1.877-.433-.945.133-1.64.546-2.083 1.239-.444.692-.625 1.58-.543 2.662l.596 10.012-6.26.88-1.613-26.03 6.26-.879.601 9.797c.55-.767 1.265-1.414 2.143-1.942.878-.528 1.87-.87 2.978-1.025z"/>
        <path fill="#008486" d="M341.707 291.798c-3.127-7.083-47.826-1.754-76.543 8.524-28.717 10.278-27.19 31.001-12.139 34.73 9.249 2.29 31.18-.732 52.123-11.28 23.185-11.676 38.347-27.926 36.56-31.974z"/>
        <path fill="#03B5B5" d="M260.452 139.365c-3.994-2.55-6.9-3.386-8.716-2.504-1.817.882-4.36 5.357-7.63 13.424l16.346-10.92zM320.638 156.778c-1.53-7.18-3.343-11.342-5.44-12.49-2.095-1.147-4.554-.711-7.377 1.308l12.817 11.182z"/>
        <path fill="#08B4B4" d="M300.364 280.325c6.097 2.205 10.53 3.504 13.296 3.897 3.455.49 5.831-1.76 6.674-3.2.778-1.328 1.72-6.46 2.826-15.395l-22.796 14.698z"/>
        <g fill="#FFA32C">
            <path d="M317.29 282.054c2.138 5.644 3.597 8.788 4.379 9.432 1.171.966 9.984 2.874 9.728 3.445-.256.57-8.996-.388-10.636-1.527-1.094-.76-2.507-3.972-4.239-9.637-.286-.381-.344-.762-.174-1.143.171-.38.485-.57.943-.57z"/>
            <path d="M334.988 281.513c1.935.279-2.46 5.781-1.356 6.554 1.29.903 4.493-3.301 5.192-1.16.248.756-1.425 3.461-4.182 6.75-2.743 3.272-6.256 7.642-8.081 6.148-.818-.67-1.432-2.744 1.046-8.047 3.05-6.529 5.149-10.566 7.381-10.245z"/>
        </g>
        <path fill="#08B4B4" d="M253.62 265.084c-1.187 8.962-1.315 14.362-.386 16.201 1.393 2.758 4.468 2.972 7.513 3.345 2.03.249 5.813-.463 11.348-2.137-4.945-2.88-8.411-5.2-10.397-6.956-1.986-1.756-4.679-5.24-8.079-10.453z"/>
        <g fill="#FFA32C">
            <path d="M253.513 280.932c-2.333 5.566-3.901 8.657-4.704 9.273-1.205.925-10.079 2.524-9.843 3.103.236.58 9.004-.073 10.683-1.154 1.12-.721 2.644-3.882 4.572-9.484.3-.37.371-.75.214-1.135-.158-.387-.465-.588-.922-.603z"/>
            <path d="M235.845 279.774c-1.944.21 2.257 5.863 1.127 6.597-1.32.857-4.375-3.456-5.149-1.341-.273.748 1.303 3.51 3.945 6.893 2.627 3.365 5.985 7.855 7.861 6.425.84-.64 1.526-2.692-.765-8.078-2.82-6.632-4.776-10.74-7.019-10.496z"/>
        </g>
        <path fill="#008181" d="M233.673 206.528c-1.673-16.928-23.68-21.891-43.115-29.144-6.787-2.532-16.248-16.933-17.779-15.8-7.46 5.526 2.568 46.66 22.666 54.975 7.174 17.21 20.835 26.604 40.985 28.182-1.626-23.327-2.545-36.065-2.757-38.213z"/>
        <path fill="#FFA32C" d="M316.561 217.695c11.507-21.383 36.685-17.047 56.723-25.218 6.5-2.65 18.243-14.702 19.545-13.18 6.344 7.418-11.382 41.44-29.453 49.317-6.086 18.253-31.28 24.082-43.946 19.128-10.035-3.925-4.548-26.927-2.869-30.047z"/>
        <path fill="#00BCBC" d="M318.382 153.985c-21.655-21.78-37.09-7.391-37.544-7.455-.228-.032-9.43-10.04-21.936-7.44-12.506 2.6-18.552 16.943-22.312 23.008-4.711 7.597-7.56 19.852-2.554 36.677-1.463 8.072-3.8 51.727 10.44 68.65 6.762 8.035 18.745 13.722 31.482 15.645 1.03.155 16.647 3.722 31.547-.44 9.299-2.597 18.101-10.135 23.572-17.46 12.397-16.598 1.96-57.045.62-57.83 1.51-10.749.026-24.045-3.936-36.786-2.824-9.08-8.725-15.91-9.38-16.569z"/>
        <path fill="#FFF" d="M276.19 164.065c1.83-3.09 7.45-9.199 18.722-7.918 15.828 1.798 22.78 15.566 23.206 24.58.663 14.013-.25 22.488-8.322 29.103-6.217 5.095-18.542 8.48-33.482 6.38-14.94-2.1-29.959-8.38-34.757-17.676-4.07-7.888-2.332-19.216.523-26.788 3.818-10.123 10.497-16.698 19.636-17.28 8.321-.53 13.515 5.983 14.474 9.599z" opacity=".901"/>
        <path fill="#FFA32C" d="M274.721 185.001c-1.927-.624-5.946 6.12-7.352 8.532-.205.353-.39.949-.418 1.47-.098 1.87 4.029 9.66 6.732 9.801 2.73.143 7.036-5.743 7.21-9.07.052-.981-3.361-9.823-6.172-10.733z"/>
        <path fill="#E38D1D" d="M269.44 194.667c.166-.182 2.99.951 4.72 1.042 1.553.081 5.29-.723 5.112-.527-.179.196-4.048 4.048-5.245 3.836-.471-.083-4.754-4.169-4.587-4.351z"/>
        <path fill="#008181" d="M286.67 186.546c-.305-.448-.313-.851-.022-1.21 1.455-1.795 3.559-3.134 5.217-3.419 3.093-.53 7.642 5.28 7.762 5.757.028.112.922 1.558.498 1.36-1.385-.648-5.857-4.028-8.12-4.097-1.971-.06-3.75.477-5.335 1.61zM265.48 184.757c.367-.425.422-.833.167-1.225-1.276-1.96-3.269-3.52-4.931-3.968-3.1-.834-8.44 4.625-8.62 5.097-.041.11-1.127 1.493-.67 1.332 1.493-.525 6.466-3.525 8.79-3.379 2.022.128 3.777.842 5.265 2.143z"/>
    </g>
</svg>
