<svg xmlns="http://www.w3.org/2000/svg" xmlns:xlink="http://www.w3.org/1999/xlink" width="450" height="345" viewBox="0 0 450 345">
    <defs>
        <path id="a" d="M176.185 199.015c59.958 0 116.467-2.219 151.146-28.273 25.256-18.974 30.071-56.367 11.097-92.284C304.302 13.859 224.512 0 176.185 0 127.857 0 59.292 3.326 13.342 67.632c-30.384 42.522-4.217 93.606 31.91 112.312 33.288 17.236 81.24 19.07 130.933 19.07z"/>
        <ellipse id="c" cx="10.562" cy="10.752" rx="10.562" ry="10.661"/>
    </defs>
    <g fill="none" fill-rule="evenodd">
        <path fill="#00A7A7" d="M0 0h450v345H0z"/>
        <g transform="translate(50 14.493)">
            <mask id="b" fill="#fff">
                <use xlink:href="#a"/>
            </mask>
            <use fill="#003065" xlink:href="#a"/>
            <path fill="#B0EEFF" d="M175.432 199.015H0V-3.602h189l-21 39.868 25.5 33.241-28 27.908 28 34.556z" mask="url(#b)"/>
            <g mask="url(#b)">
                <path fill="#FFF" d="M317.214 129.752l-11.539-4.985-13.054 10.57c3.387 7.352 5.33 10.825 5.827 10.422.466-.377 2.39-4.691 5.775-12.942l12.991-3.065z"/>
                <path fill="#FF9600" d="M257.259 112.141a93.912 93.912 0 0 1-4.011-5.337c-2.815 7.054-1.161 16.351 4.861 23.788 3.181 3.928 7.197 6.879 11.613 8.533a1.22 1.22 0 0 0 1.497-.556c1.638-2.97 3.835-5.593 6.524-7.806-7.433-4.81-14.474-11.2-20.484-18.622M285.877 81.072a93.924 93.924 0 0 1 4.387 5.033c6.01 7.422 10.796 15.638 13.955 23.908 2.724-2.17 5.746-3.773 8.992-4.758a1.22 1.22 0 0 0 .855-1.349c-.7-4.663-2.75-9.205-5.932-13.132-6.022-7.438-14.772-10.989-22.257-9.702M285.727 129.446l3.888 4.802a1.333 1.333 0 0 0 1.868.21l13.65-11.052a1.333 1.333 0 0 0 .181-1.871l-3.888-4.801-15.699 12.712"/>
                <path fill="#E6F8F8" d="M268.532 66.603L242.688 87.53c3.219 8.818 8.258 17.595 14.697 25.547 6.694 8.267 14.631 15.294 22.952 20.321a1.21 1.21 0 0 0 1.388-.09l23.468-19.005a1.21 1.21 0 0 0 .377-1.339c-3.187-9.184-8.41-18.408-15.105-26.674-6.439-7.952-13.977-14.707-21.933-19.688"/>
                <path fill="#FF9600" d="M250.19 82.796l2.544 3.143c.422.52 1.249.557 1.837.08l10.195-8.255c.589-.477.725-1.293.303-1.814l-2.545-3.142-12.335 9.988M239.541 57.384a1.259 1.259 0 0 0-.438.71c-1.726 7.913-1.029 17.232 2.015 26.95.323 1.034.679 2.068 1.053 3.101l26.912-21.793a75.203 75.203 0 0 0-2.815-1.675c-8.873-4.997-17.843-7.616-25.941-7.574a1.257 1.257 0 0 0-.786.281"/>
                <path fill="#C9EBEB" d="M263.57 86.34c6.039-4.89 14.958-3.883 19.923 2.247 4.964 6.131 4.094 15.065-1.944 19.954-6.039 4.89-14.958 3.884-19.923-2.247-4.964-6.13-4.094-15.064 1.945-19.954"/>
                <path fill="#FFF" d="M222.97 60.39a.78.78 0 0 1-.876.063c-3.623-2.035-5.245-2.24-9.132-1.15a.813.813 0 0 1-.846-.28.814.814 0 0 1-.099-.887c1.874-3.576 2.01-5.205.774-9.172a.78.78 0 0 1 .244-.844.78.78 0 0 1 .875-.063c3.624 2.035 5.246 2.24 9.133 1.15a.814.814 0 0 1 .847.28.813.813 0 0 1 .098.887c-1.874 3.576-2.011 5.204-.774 9.172a.78.78 0 0 1-.244.843M276.14 156.265a.483.483 0 0 1-.541.039c-2.243-1.26-3.247-1.386-5.653-.712a.503.503 0 0 1-.524-.174.504.504 0 0 1-.061-.548c1.16-2.214 1.244-3.223.478-5.679-.06-.193 0-.399.152-.522a.483.483 0 0 1 .542-.039c2.243 1.26 3.247 1.386 5.653.712a.504.504 0 0 1 .524.174.503.503 0 0 1 .061.549c-1.16 2.213-1.245 3.221-.479 5.677.06.194 0 .4-.151.523M278.198 56.142a.372.372 0 0 1-.417.03c-1.725-.97-2.498-1.067-4.349-.548a.387.387 0 0 1-.403-.133.388.388 0 0 1-.047-.422c.893-1.704.958-2.479.369-4.368a.372.372 0 0 1 .116-.402.372.372 0 0 1 .417-.03c1.725.969 2.498 1.066 4.349.548a.387.387 0 0 1 .403.133.387.387 0 0 1 .047.422c-.892 1.703-.958 2.479-.369 4.368a.372.372 0 0 1-.116.402M230.27 102.057a.372.372 0 0 1-.417.03c-1.726-.969-2.498-1.066-4.349-.547a.387.387 0 0 1-.403-.134.388.388 0 0 1-.047-.422c.892-1.703.958-2.479.369-4.368a.372.372 0 0 1 .116-.401.372.372 0 0 1 .417-.03c1.725.969 2.498 1.066 4.349.547a.387.387 0 0 1 .403.134.387.387 0 0 1 .047.422c-.893 1.703-.958 2.478-.369 4.368a.371.371 0 0 1-.116.401"/>
            </g>
            <g mask="url(#b)">
                <path fill="#008181" d="M71.647 81.677c2.067 1.523 4.594 1.794 6.795.97.418-.157.695-.586.684-1.059-.057-2.488-1.189-4.914-3.255-6.437-2.067-1.523-4.594-1.794-6.795-.97-.418.157-.696.586-.685 1.059.057 2.488 1.19 4.914 3.256 6.437M51.835 92.425a1.44 1.44 0 0 0-.246 1.36c2.119 6.312 6.977 11.226 13.29 12.542a15.96 15.96 0 0 0 7.235-.162c7.144-1.82 9.06-12.417 3.07-16.975-7.144-5.436-17.06-4.32-23.35 3.235M101.52 83.653c.23.16.362.45.339.742-.473 6.015-4.844 10.375-10.103 10.539-4.404.137-7.05-5.648-4.238-9.268 3.352-4.317 9.261-5.32 14.001-2.013M103.501 65.105c.298.213.468.595.439.982-.61 7.958-6.257 13.728-13.049 13.945-5.689.181-9.106-7.473-5.475-12.263 4.33-5.712 11.963-7.04 18.085-2.664"/>
                <path fill="#00BCBC" d="M81.197 89.968c-.948-4.535-3.902-7.052-3.932-7.077-.609-.51-.72-1.45-.244-2.102.475-.652 1.352-.773 1.965-.268.154.127 3.777 3.164 4.953 8.794.169.808-.308 1.61-1.065 1.79-.755.179-1.508-.326-1.677-1.137M93.347 108.08c-.464-.663-1.345-.799-1.966-.303-.137.109-3.34 2.732-3.34 8.465v4.773c0 .828.628 1.5 1.404 1.5.776 0 1.405-.672 1.405-1.5v-4.773c0-4.142 2.11-5.977 2.224-6.072.612-.498.735-1.431.273-2.09"/>
                <path fill="#00BCBC" d="M82.568 115.316c-.776 0-1.405-.672-1.405-1.5V89.842c0-8.69 5.399-15.389 5.628-15.67a1.344 1.344 0 0 1 1.983-.143c.584.544.644 1.49.135 2.113-.049.061-4.936 6.158-4.936 13.7v23.974c0 .828-.63 1.5-1.405 1.5"/>
                <path fill="#00BCBC" d="M82.566 111.366c-.716 0-1.328-.582-1.397-1.358-.31-3.507-1.948-6.522-4.865-8.962-3.989-3.335-9.216-4.543-14.293-4.328-.772.033-1.43-.61-1.46-1.438-.03-.828.573-1.525 1.348-1.558 12.91-.546 21.289 7.213 22.067 16.004.073.824-.494 1.555-1.266 1.633-.045.005-.09.007-.134.007M82.051 99.943c-.721-.304-1.075-1.175-.79-1.945 3.445-9.298 12.406-11.896 12.785-12.002.75-.21 1.519.27 1.715 1.07.196.8-.252 1.618-1 1.83-.08.022-7.976 2.347-10.887 10.204-.285.771-1.102 1.147-1.823.843"/>
                <path fill="#FF9600" d="M74.466 126.245c4.222 3.079 8.006 3.261 11.347 4.261 4.508.835 8.441 2.388 8.441 5.266 0 .89-.196 1.612-.53 2.199 0 0 10.51-5.257 15.354-8.202.245-.15.49-.28.735-.395-.714-.354-.92-.148-4.31-.209-1.002 0-1.962-.858-2.656-2.375L101.114 123c-.694-1.517-1.654-2.375-2.656-2.375H92.77c-.849 0-1.671-.614-2.328-1.74l-2.514-4.302c-.657-1.125-1.48-1.74-2.328-1.74h-5.572c-.848 0-1.67.615-2.328 1.74l-2.513 4.303c-.658 1.125-1.48 1.74-2.328 1.74H67.17c-1.003 0-1.962.857-2.656 2.374l-.389.849c3.158-.471 6.84-.158 10.34 2.395"/>
                <path fill="#CD7900" d="M72.466 125.028c.503-1.091 1.092-1.688 1.7-1.688h4.856c.724 0 1.426-.843 1.987-2.388l2.146-5.907c.408-1.123.89-1.874 1.403-2.2h-4.53c-.848 0-1.67.614-2.328 1.74l-2.513 4.302c-.658 1.125-1.48 1.74-2.328 1.74H67.17c-1.003 0-1.962.857-2.656 2.375l-.389.848c2.561-.382 5.466-.248 8.34 1.178"/>
                <path fill="#FFC59D" d="M114.72 129.826c-1.403-1.742-3.468-1.69-5.536-.46-4.844 2.878-15.354 8.014-15.354 8.014.334-.573.53-1.279.53-2.148 0-2.813-3.933-4.33-8.441-5.146-3.466-1.014-7.163-1.183-11.347-4.165-4.85-3.456-10.046-2.713-13.716-1.548-3.942 1.251-6.849.773-9.779.877v21.455c1.619.152 3.475-.138 6.039.974 4.502 1.953 16.684 6.311 25.03 6.311 6.87 0 23.881-10.406 31.692-17.566 2.053-1.882 2.637-4.418.882-6.598"/>
                <path fill="#E59768" d="M93.83 137.38c-1.003 1.334-2.68 2.053-4.282 1.813l-14.932-2.216c-.768-.115-1.478.458-1.585 1.278-.107.82.43 1.577 1.198 1.692l14.932 2.216c2.624.39 5.372-.728 7.154-3.4.127-.2.292-.58 1.374-2.748.1-.202.151-.418.16-.632-2.332 1.173-4.02 1.997-4.02 1.997"/>
                <path fill="#E6F8F8" d="M49.793 119.592h-8.487v31.99c.198.184.398.365.598.546h7.89c.915 0 1.658-.793 1.658-1.77v-28.996c0-.978-.742-1.77-1.659-1.77"/>
                <path fill="#E6F8F8" d="M49.793 141.676h-7.889c-.2-.18-.4-.362-.598-.546v10.452c.198.184.398.365.598.546h7.89c.916 0 1.658-.793 1.658-1.77v-10.452c0 .977-.742 1.77-1.659 1.77"/>
                <path fill="#003065" d="M-13 117.697c.245 5.678.245 17.155 0 34.43l54.68-.201v-32.46c0-.977-.742-1.77-1.657-1.77H-13z"/>
                <path fill="#008181" d="M40.023 143.436h-5.664a47.194 47.194 0 0 0 7.321 8.49v-10.258c0 .977-.742 1.768-1.657 1.768"/>
            </g>
            <path fill="#FFF" d="M106.011 29.418c0-10.963 21.22-11.53 22.925-3.24 1.823-.868 13.16-5.462 15.049 5.553 1.87 10.904-8.25 17.22-18.332 16.658-33.173-1.852-25.098-20.55-19.642-18.971z" mask="url(#b)"/>
        </g>
        <path fill="#FFF" d="M306.575 34.787a.78.78 0 0 1-.72-.501c-1.536-3.863-2.667-5.042-6.374-6.641a.813.813 0 0 1-.481-.751c0-.329.19-.625.481-.75 3.707-1.601 4.838-2.78 6.374-6.642a.78.78 0 0 1 .72-.502c.315 0 .6.198.72.502 1.536 3.862 2.668 5.041 6.374 6.641a.814.814 0 0 1 .482.751c0 .329-.19.625-.482.75-3.706 1.6-4.838 2.78-6.374 6.642a.78.78 0 0 1-.72.501M366.607 54.518a.372.372 0 0 1-.343-.24c-.731-1.838-1.27-2.4-3.035-3.161a.387.387 0 0 1-.229-.358c0-.156.09-.298.23-.357 1.764-.762 2.303-1.324 3.034-3.163a.372.372 0 0 1 .343-.239c.15 0 .286.094.343.239.731 1.839 1.27 2.4 3.035 3.163.14.06.23.2.23.357 0 .157-.09.298-.23.358-1.765.761-2.304 1.323-3.035 3.162a.372.372 0 0 1-.343.239"/>
        <path fill="#008486" d="M308.994 312.66c.488-5.072-27.508-15.218-77.866-17.414-50.358-2.197-105.786 10.892-86.03 17.414 12.14 4.008 47.082 8.53 86.03 8.334 43.117-.217 77.586-5.435 77.866-8.334z"/>
        <path fill="#FFF" d="M50 63.362c0-6.838 5.206-12.38 11.629-12.38 1.364 0 2.674.25 3.89.709C68.403 44.247 75.357 39 83.476 39c5.067 0 9.68 2.043 13.133 5.389 2.674-1.396 5.769-2.194 9.067-2.194 10.12 0 18.324 7.51 18.324 16.773 0 17.573-21.848 21.966-36.648 21.966-8.983 0-21.627.955-29.247-4.393C50.485 71.192 50 65.064 50 63.36z"/>
        <g opacity=".843" transform="rotate(-30 354.96 -521.03)">
            <mask id="d" fill="#fff">
                <use xlink:href="#c"/>
            </mask>
            <use stroke="#003065" stroke-width="1.5" xlink:href="#c"/>
            <g stroke="#003065" stroke-width=".5" mask="url(#d)">
                <path d="M17.092 24.225V11.921c0-.238-.013-.472-.038-.703a7.97 7.97 0 0 1 .22-2.846c.044-.173.085-.352.124-.538.099-.478-.404-.85-.822-.604a8.51 8.51 0 0 1-.576.312.632.632 0 0 1-.733-.131 6.295 6.295 0 0 0-4.532-1.93c-1.772 0-3.377.74-4.53 1.929a.632.632 0 0 1-.734.13 8.534 8.534 0 0 1-.575-.31c-.417-.246-.92.125-.821.604.038.185.079.363.123.534.238.93.323 1.891.219 2.845a6.529 6.529 0 0 0-.039.708v3.189c0 4.053 2.395 7.548 5.824 9.115h-4.56 13.392-1.942z"/>
            </g>
            <path stroke="#003065" stroke-width=".5" d="M10.736 10.51c-.388-1.089-1.413-1.866-2.616-1.866-1.536 0-2.781 1.268-2.781 2.832 0 3.224.305 5.837 5.397 5.837 4.808 0 5.396-2.613 5.396-5.837 0-1.564-1.245-2.832-2.78-2.832-1.204 0-2.229.777-2.616 1.866z" mask="url(#d)"/>
            <path stroke="#003065" stroke-width=".5" d="M11.324 14.985l.618-1.154a.345.345 0 0 0-.05-.396l-.909-.971a.316.316 0 0 0-.463 0l-.909.971a.345.345 0 0 0-.05.396l.618 1.154c.246.459.9.459 1.145 0" mask="url(#d)"/>
            <g fill="#003065" mask="url(#d)">
                <g transform="translate(7.617 11.146)">
                    <ellipse cx="5.229" cy=".759" rx="1" ry="1"/>
                    <ellipse cx=".799" cy=".76" rx="1" ry="1"/>
                </g>
            </g>
            <path stroke="#003065" stroke-width=".5" d="M4.313 14.288c-.384.353-.796.862-1.237 1.526-.442.665-.753 1.245-.933 1.74" mask="url(#d)"/>
            <path stroke="#003065" stroke-width=".5" d="M20.875 14.288l-3.743-1.03" mask="url(#d)" transform="matrix(-1 0 0 1 38.007 0)"/>
        </g>
        <g transform="translate(121 121)">
            <g fill="#FFA32C">
                <path d="M129.907 157.083c2.647 3.196 4.344 5.114 5.09 5.754.745.64 1.988 2.94 3.726 6.897 1.64 3.331 2.308 5.17 2.003 5.517-.306.347-1.439-1.262-3.4-4.827-1.841-2.904-3.05-4.603-3.627-5.098-.577-.495-2.3-2.722-5.167-6.681-.181-.496-.119-.917.187-1.264.305-.347.701-.446 1.188-.298z"/>
                <path d="M155.857 183.374c-.506.424-4.675-1.91-6.206-1.13-1.905.97.278 4.148-2.314 3.336-1.116-.35-3.415-.462-7.078-2.206-2.888-1.374-4.885-5.45-3.728-7.767.52-1.039 4.571-1.3 9.496 0 6.063 1.6 12.927 5.172 9.83 7.767z"/>
            </g>
            <g fill="#FFA32C">
                <path d="M78.981 156.15c-2.647 3.196-4.344 5.114-5.09 5.754-.745.64-1.987 2.94-3.726 6.897-1.64 3.33-2.308 5.17-2.002 5.517.305.347 1.438-1.262 3.399-4.828 1.842-2.903 3.05-4.602 3.627-5.097.577-.495 2.3-2.722 5.167-6.682.181-.495.119-.916-.187-1.263-.305-.347-.701-.447-1.188-.298z"/>
                <path d="M53.03 182.44c.507.425 4.677-1.91 6.207-1.13 1.905.971-.277 4.149 2.314 3.337 1.116-.35 3.415-.463 7.078-2.206 2.888-1.375 4.885-5.45 3.728-7.768-.52-1.038-4.571-1.3-9.496 0-6.063 1.601-12.927 5.173-9.83 7.768z"/>
            </g>
            <path fill="#02C2C2" d="M69.932 144.667c1.087 5.242 2.407 8.888 3.961 10.938 2.331 3.075 4.035 4.915 10.06 3.995 4.018-.613 9.912-2.883 17.682-6.808-7.122-.663-12.721-1.423-16.798-2.279-4.076-.856-9.045-2.805-14.905-5.846zM107.23 152.756c8.073 4.093 13.975 6.686 17.704 7.777 5.595 1.638 8.695-.204 11.201-3.266 1.67-2.042 3.224-5.62 4.662-10.734l-33.567 6.223z"/>
            <path fill="#00BCBC" d="M158.514 118.619C158.514 98.512 132.76 84 103.962 84c-28.8 0-52.678 13.323-52.678 33.43 0 10.617 6.778 18.026 17.304 26.83 2.578 2.155 17.449 8.594 35.638 8.802 16.02.184 35.423-5.493 39.92-8.803 10.653-7.839 14.368-21.836 14.368-25.64z"/>
            <path fill="#00BCBC" d="M145.056 105c11.49-10.87 20.917-21 20.917-34.533 0-13.534-12.588-37.567-25.642-47.367-8.392-6.533-13.054-10.948-21.912-10.948-3.873 0-9.953 4.5-13.79 4.648-2.435.094-11.82-4.885-14.183-4.648-11.793 1.183-15.761 6.405-20.514 10.948C55.57 36.83 43.358 54.836 43.358 70.467c0 15.042 17.396 32.498 33.568 40.6 16.17 8.101 56.64 4.802 68.13-6.067z"/>
            <path fill="#FFF" d="M106.297 33.6c1.19-9.642 5.643-14 15.4-14 9.756 0 19.124 4.833 26.063 16.356 6.938 11.523 12.727 31.55 4.693 39.644-6.974 7.025-25.642 17.267-46.156 17.267-20.513 0-42.006-11.704-49.893-19.986-6.691-7.026 2.891-31.717 5.98-36.925 7.294-12.3 17.703-14.926 26.597-14.926 8.894 0 15.068 3.385 17.316 12.57z" opacity=".901"/>
            <ellipse cx="124.946" cy="53.2" fill="#008181" rx="4.662" ry="7.467"/>
            <ellipse cx="84.851" cy="53.2" fill="#008181" rx="4.662" ry="7.467"/>
            <path fill="#FFA32C" d="M106.57 56.031c-2.091-.589-6.003 7.245-7.368 10.046-.2.41-.364 1.091-.364 1.68 0 2.112 4.839 10.643 7.732 10.643 2.92 0 7.187-6.885 7.187-10.643 0-1.108-4.136-10.866-7.187-11.726z"/>
            <path fill="#E38D1D" d="M101.64 70.25c.162.443 3.16-1.847 4.962-1.847 1.619 0 5.46 2.323 5.284 1.846-.175-.476-3.986-9.898-5.242-9.551-.494.136-5.168 9.108-5.005 9.551z"/>
            <path fill="#FFA32C" d="M151.406 98.933c-3.446 4.518-5.408 10.143-5.885 16.875-.477 6.73 1.816 14.484 6.88 23.259 7.183-13.074 10.775-21.435 10.775-25.084 0-3.648-3.924-8.665-11.77-15.05z"/>
            <path fill="#008181" d="M59.365 98.933c-7.874 6.997-11.81 12.472-11.81 16.427s3.936 12.168 11.81 24.64c3.937-11.255 5.905-18.86 5.905-22.815 0-3.954-1.968-10.038-5.905-18.252z"/>
            <g fill="#2EDAEA">
                <path d="M78.486 62.016c1.386.57 4.43 5.974 3.738 10.837-.693 4.863-5.017 6.588-7.642 2.118-2.625-4.47 2.518-13.526 3.904-12.955z"/>
            </g>
        </g>
    </g>
</svg>
