<svg xmlns="http://www.w3.org/2000/svg" xmlns:xlink="http://www.w3.org/1999/xlink" width="120" height="120" viewBox="0 0 120 120">
    <defs>
        <path id="prefix__a" d="M120.568 60c0 33.137-26.863 60-60 60s-60-26.863-60-60 26.863-60 60-60 60 26.863 60 60z"/>
    </defs>
    <g fill="none" fill-rule="evenodd">
        <mask id="prefix__b" fill="#fff">
            <use xlink:href="#prefix__a"/>
        </mask>
        <use fill="#005150" xlink:href="#prefix__a"/>
        <g mask="url(#prefix__b)">
            <g>
                <g>
                    <path fill="#FEE175" d="M7.448 0L24.207 0 31.655 26.4 0 26.4z" transform="translate(24.568 68.4) translate(18)"/>
                    <path fill="#EFAE64" d="M24.207 0L46.552 0 54 26.4 31.655 26.4z" transform="translate(24.568 68.4) translate(18)"/>
                </g>
                <g>
                    <path fill="#FEE175" d="M7.448 0L24.207 0 31.655 26.4 0 26.4z" transform="translate(24.568 68.4) translate(0 25.2)"/>
                    <path fill="#E4953B" d="M24.207 0L46.552 0 54 26.4 31.655 26.4z" transform="translate(24.568 68.4) translate(0 25.2)"/>
                </g>
                <g>
                    <path fill="#FEE175" d="M7.448 0L24.207 0 31.655 26.4 0 26.4z" transform="translate(24.568 68.4) translate(33.6 25.2)"/>
                    <path fill="#E4953B" d="M24.207 0L46.552 0 54 26.4 31.655 26.4z" transform="translate(24.568 68.4) translate(33.6 25.2)"/>
                </g>
            </g>
        </g>
        <g mask="url(#prefix__b)">
            <g>
                <path fill="#FEE175" fill-rule="nonzero" d="M117.652 2.898c.37-.674 2.095-.913 2.756-.535.614.35.86 1.11.596 1.757l-.07.147L92.043 29.6l-30.222-20-22.88 28.73L2.59 46.722c-.667.366-1.499.11-1.857-.57-.333-.632-.141-1.408.422-1.809l.137-.085 35.958-8.176L61.564 5.665l30.48 20.38 25.608-23.147z" transform="translate(-3.6 21.511)"/>
                <path fill="#FFF" d="M37.168 45.689c-.425 0-.808-.256-.97-.648-2.068-4.991-3.591-6.515-8.582-8.582-.393-.162-.648-.545-.648-.97 0-.424.256-.807.648-.97 4.99-2.068 6.514-3.592 8.582-8.582.162-.392.545-.648.97-.648.424 0 .807.256.97.648 2.067 4.99 3.591 6.514 8.582 8.582.392.163.648.546.648.97 0 .425-.256.808-.648.97-4.99 2.067-6.515 3.591-8.582 8.582-.163.392-.546.648-.97.648M59.968 20.489c-.425 0-.808-.256-.97-.648-2.068-4.991-3.591-6.515-8.582-8.582-.393-.162-.648-.545-.648-.97 0-.424.256-.807.648-.97 4.99-2.068 6.514-3.592 8.582-8.582.162-.392.545-.648.97-.648.424 0 .807.256.97.648 2.067 4.99 3.591 6.514 8.582 8.582.392.163.648.546.648.97 0 .425-.256.808-.648.97-4.99 2.067-6.515 3.591-8.582 8.582-.163.392-.546.648-.97.648M92.022 38.889c-.425 0-.808-.256-.97-.648-2.067-4.991-3.591-6.515-8.582-8.582-.392-.162-.648-.545-.648-.97 0-.424.256-.807.648-.97 4.991-2.068 6.515-3.592 8.582-8.582.162-.392.545-.648.97-.648.425 0 .807.256.97.648 2.067 4.99 3.591 6.514 8.582 8.582.392.163.648.546.648.97 0 .425-.256.808-.648.97-4.99 2.067-6.515 3.591-8.582 8.582-.163.392-.545.648-.97.648" transform="translate(-3.6 21.511)"/>
            </g>
        </g>
        <g fill-rule="nonzero">
            <path fill="#50E3C2" d="M15.556 31.111C6.982 31.111 0 24.166 0 15.556S6.982 0 15.556 0C24.129 0 31.11 6.945 31.11 15.556c0 8.61-6.982 15.555-15.555 15.555z" transform="translate(88.889 8)"/>
            <path fill="#41D1B1" d="M15.556 31.111C6.969 31.111 0 24.153 0 15.556 0 6.958 6.97 0 15.556 0 24.142 0 31.11 6.958 31.11 15.556c0 8.597-6.97 15.555-15.555 15.555zm.194-2.722c6.976 0 12.639-5.653 12.639-12.639S22.726 3.111 15.75 3.111c-6.976 0-12.639 5.653-12.639 12.639S8.774 28.389 15.75 28.389z" transform="translate(88.889 8)"/>
            <path fill="#FFF" d="M12.598 17.954L22.395 8.213 25.138 10.94 12.598 23.407 5.973 16.821 8.716 14.094z" transform="translate(88.889 8)"/>
        </g>
    </g>
</svg>
