<svg xmlns="http://www.w3.org/2000/svg" xmlns:xlink="http://www.w3.org/1999/xlink" width="450" height="345" viewBox="0 0 450 345">
    <defs>
        <path id="zgattlw6pb" d="M96.087 125.05c15.29-34.563 13.165-57.299 15.08-68.018C116.336 28.1 92.737 6.156 63.6 1.043 34.46-4.069 7.854 9.787 2.685 38.72 1.712 44.164-.287 64.703.035 90.147c.3 23.762 2.788 52.69 5.485 53.287 17.957 3.976 75.618 15.414 90.567-18.383z"/>
        <path id="j139mjgr4c" d="M31.33 14.429C29.781 6.028 25.79 1.269 19.354.15 11.914-1.19 6.998 6.751 5.849 9.464c-1.15 2.712-2.701 4.583-5.443 23.79-1.734 11.583 2.424 17.838 6.064 22.65 5.468 7.226 29.142 15.607 39.91 17.12 10.77 1.513 14.089.676 24.522-4.118C81.335 64.114 84.015 45.667 84.1 45.197c1.673-9.373 1.09-13.143-1.746-21.76-2.978-9.05-9.945-16.143-23.866-18.6-9.281-1.64-18.334 1.558-27.158 9.592"/>
        <path id="ydqah5hzue" d="M31.466 15.55c3.041.534 5.946-1.494 6.486-4.53.541-3.037-1.485-5.932-4.527-6.467-3.041-.536-5.945 1.493-6.486 4.529-.541 3.037 1.485 5.933 4.527 6.467"/>
        <path id="ug4eno022f" d="M7.43.076c-2.433-.447-3.24 1.11-5.116 3.82C1.432 5.17.31 6.949.024 8.62c-.14.818.315 4.476 1.566 7.298 1.308 2.955 3.444 5.065 4.589 5.275 1.403.258 3.1-1.48 5.396-4.619 1.365-1.865 2.725-3.954 2.954-5.29.118-.695-.408-4.372-2.097-6.917C10.422 1.342 8.597.29 7.431.076"/>
        <path id="5ysh68pe1h" d="M6.188.086C8.373-.507 14.902 1.898 17.9 9.669L0 18.985C0 9.695 4.003.68 6.188.085z"/>
        <path id="vqctuow11i" d="M0 6.01C.13 5.283 14.234-2.432 19.088.778c3.237 2.14 2.853 7.837-1.152 17.09C5.893 10.449-.085 6.497 0 6.01"/>
        <path id="efeqkju5ej" d="M5.961 5.719L4.676 9 3.391 5.719 0 4.5 3.391 3.283 4.676 0 5.961 3.283 9 4.501 5.961 5.719"/>
        <path id="tal5qmrkyl" d="M7.286 7.625L5.714 12 4.144 7.625 0 6 4.144 4.378 5.714 0 7.286 4.378 11 6.002 7.286 7.625"/>
        <path id="ihyz10uzhn" d="M11.922 12.074L9.352 19 6.781 12.074 0 9.5 6.781 6.932 9.352 0 11.922 6.932 18 9.502 11.922 12.074"/>
        <path id="s7vpywx18p" d="M12.585 12.709L9.872 20 7.158 12.709 0 10 7.158 7.296 9.872 0 12.585 7.296 19 10.003 12.585 12.709"/>
        <path id="wblzrhe5ar" d="M.472 3.996c8.09 11.575 23.335 14.418 34.484 6.617l2.92 4.18 4.062-11.34c.188-.524-.066-1.108-.569-1.305-.123-.047-.255-.07-.387-.062l-11.568.59 2.68 3.839c-9.01 6.179-21.245 3.848-27.756-5.467C3.548-.082 2.043-.338.975.475c-1.068.814-1.293 2.39-.503 3.52"/>
        <path id="jk3e892o7t" d="M1.522 3.727C.541 3.568-.13 2.61.022 1.587.175.562 1.096-.138 2.078.022c.982.16 1.654 1.119 1.5 2.14-.153 1.024-1.073 1.724-2.056 1.564"/>
        <path id="2v4x8m4o7v" d="M1.522 3.727C.54 3.567-.131 2.61.022 1.585.175.563 1.095-.137 2.077.023c.983.16 1.655 1.118 1.501 2.142-.152 1.022-1.073 1.722-2.056 1.562"/>
        <path id="y5lep9z5ix" d="M1.522 3.727C.54 3.567-.13 2.61.022 1.586.176.563 1.096-.136 2.077.023c.983.16 1.655 1.119 1.501 2.142-.153 1.022-1.073 1.721-2.056 1.562"/>
        <path id="ecmtlubvqz" d="M5.498 5.719L4.213 9 2.927 5.719 -0.463 4.5 2.927 3.283 4.213 0 5.498 3.283 8.537 4.501 5.498 5.719"/>
        <path id="0zhoxvn1oB" d="M9.274 8.896L7.274 14 5.275 8.896 0 7 5.275 5.107 7.274 0 9.274 5.107 14 7.002 9.274 8.896"/>
        <path id="63xvp2kv0C" d="M11.922 12.073L9.353 19 6.781 12.073 0 9.5 6.781 6.931 9.353 0 11.922 6.931 18 9.502 11.922 12.073"/>
        <path id="zejq5uyq9E" d="M79.118 0H0v7h90c0-3.869-4.87-7-10.882-7z"/>
        <path id="jgil0z9nlG" d="M116.614 13.355c-.163-2.878-.107-6.173-2.038-8.543-2.008-2.456-5.162-3.062-8.18-3.386C98.321.556 12.916.225 11.45.055c-3.885-.458-7.8 2.004-9.397 5.288C.082 9.397.749 14.652.634 19.023.347 29.81 0 40.593 0 51.387c0 10.784.337 18.74 1.528 29.466.445 3.99 1.292 7.785 5.576 9.241 4.445 1.517 79.118.73 88.836.467.884-.024 1.844-.014 2.847-.004 5.32.052 11.862.104 14.732-4.792 1.64-2.795 1.462-6.414 1.678-9.523.284-4.11.572-8.229.85-12.346.57-8.414.514-16.837.775-25.267.264-8.424.264-16.855-.208-25.274z"/>
        <path id="eznl6h4sjI" d="M90 11.91c-.009-.152-.012-.303-.02-.451-.124-2.472-.08-5.3-1.574-7.326-1.548-2.112-3.982-2.63-6.31-2.906C75.865.482 9.966.193 8.835.046c-2.997-.386-6.017 1.72-7.251 4.54C.064 8.062.576 12.572.487 16.32.267 25.566 0 34.819 0 44.07c0 9.248.26 16.07 1.18 25.274.342 3.422.995 6.67 4.302 7.925 1.15.435 8.413.646 17.83.73 2.364-3.327 4.666-6.701 6.944-10.094 1.202-1.794 2.4-3.586 3.613-5.374.605-.89 1.213-1.78 1.827-2.664l.168-.242.052-.072c2.519-3.454 5.116-6.838 7.958-9.984 1.415-1.566 2.885-3.075 4.415-4.51.285-.265.583-.578.893-.892.099-.072.239-.186.435-.341.5-.394.992-.8 1.493-1.192 3.216-2.523 6.562-4.84 9.932-7.101 8.35-5.617 16.712-11.143 24.144-18.2 1.72-1.638 3.341-3.46 4.814-5.423z"/>
        <path id="4sazy1tioJ" d="M9.274 8.897L7.275 14 5.275 8.897 0 7 5.275 5.107 7.275 0 9.274 5.107 14 7.002 9.274 8.897"/>
        <path id="snwovdz8fK" d="M23.5 48.764c2.951 0 5.775-.564 8.377-1.595 1.184-.468 4.043.475 8.577 2.831-.296-5.429-.009-8.668.862-9.717 3.542-4.27 5.684-9.826 5.684-15.9C47 10.915 36.479 0 23.5 0S0 10.916 0 24.382c0 13.466 10.521 24.382 23.5 24.382z"/>
        <path id="tb2mhmjvqM" d="M9.81 0C4.394 0 0 4.558 0 10.181V44.82C0 50.442 4.393 55 9.81 55h33.38C48.606 55 53 50.442 53 44.819V10.18C53 4.558 48.607 0 43.19 0H9.81z"/>
        <path id="n0zuass7fO" d="M9.81 0C4.394 0 0 4.558 0 10.181V44.82C0 50.442 4.393 55 9.81 55h33.38C48.606 55 53 50.442 53 44.819V10.18C53 4.558 48.607 0 43.19 0H9.81z"/>
        <path id="2imx3ymt8Q" d="M9.81 0C4.394 0 0 4.558 0 10.181V44.82C0 50.442 4.393 55 9.81 55h33.38C48.606 55 53 50.442 53 44.819V10.18C53 4.558 48.607 0 43.19 0H9.81z"/>
        <path id="0ub4yo2zqS" d="M9.81 0C4.394 0 0 4.558 0 10.181V44.82C0 50.442 4.393 55 9.81 55h33.38C48.606 55 53 50.442 53 44.819V10.18C53 4.558 48.607 0 43.19 0"/>
        <path id="p12ilu5xsU" d="M9.81 0C4.394 0 0 4.558 0 10.181V44.82C0 50.442 4.393 55 9.81 55h33.38C48.606 55 53 50.442 53 44.819V10.18C53 4.558 48.607 0 43.19 0"/>
        <path id="rsiy4npvcW" d="M9.81 0C4.394 0 0 4.558 0 10.181V44.82C0 50.442 4.393 55 9.81 55h33.38C48.606 55 53 50.442 53 44.819V10.18C53 4.558 48.607 0 43.19 0"/>
        <path id="bkm21yf6aY" d="M9.81 0C4.394 0 0 4.558 0 10.181V44.82C0 50.442 4.393 55 9.81 55h33.38C48.606 55 53 50.442 53 44.819V10.18C53 4.558 48.607 0 43.19 0"/>
        <path id="9igv16eo9aa" d="M9.81 0C4.394 0 0 4.558 0 10.181V44.82C0 50.442 4.393 55 9.81 55h33.38C48.606 55 53 50.442 53 44.819V10.18C53 4.558 48.607 0 43.19 0"/>
        <path id="qor9oin5gac" d="M9.81 0C4.394 0 0 4.558 0 10.181V44.82C0 50.442 4.393 55 9.81 55h33.38C48.606 55 53 50.442 53 44.819V10.18C53 4.558 48.607 0 43.19 0"/>
        <path id="qrl083n6zae" d="M269.69 10.464H12.817C5.738 10.464 0 5.78 0 0h282.508c0 5.78-5.742 10.464-12.817 10.464z"/>
        <filter id="gsfmu0sjva" width="170.6%" height="156.2%" x="-35.3%" y="-28.1%" filterUnits="objectBoundingBox">
            <feOffset dx="-7" in="SourceAlpha" result="shadowOffsetOuter1"/>
            <feGaussianBlur in="shadowOffsetOuter1" result="shadowBlurOuter1" stdDeviation="7.5"/>
            <feColorMatrix in="shadowBlurOuter1" result="shadowMatrixOuter1" values="0 0 0 0 0 0 0 0 0 0 0 0 0 0 0 0 0 0 0.104083295 0"/>
            <feMerge>
                <feMergeNode in="shadowMatrixOuter1"/>
                <feMergeNode in="SourceGraphic"/>
            </feMerge>
        </filter>
    </defs>
    <g fill="none" fill-rule="evenodd">
        <g>
            <g>
                <path fill="#039393" d="M89.592 294.183C63.941 219.5 66.38 161.337 96.907 119.693c45.791-62.466 191.401-49.377 233.507-8.563 42.106 40.813 24.78 176.005 11.81 180.384-8.647 2.919-92.858 3.809-252.632 2.669z" transform="translate(-100.000000, -193.000000) translate(100.000000, 193.000000)"/>
                <g filter="url(#gsfmu0sjva)" transform="translate(-100.000000, -193.000000) translate(100.000000, 193.000000) translate(199.180670, 144.000000)">
                    <path fill="#008181" d="M12.866 90c-6.806 6.466-10.8 13.689-11.98 21.668-1.181 7.98-1.181 17.757 0 29.332H21l-8.134-51z"/>
                    <g transform="translate(8.819330, 3.350365)">
                        <use fill="#25B2AA" xlink:href="#zgattlw6pb"/>
                    </g>
                    <g transform="translate(13.294578, 30.153285)">
                        <mask id="71qok34s2d" fill="#fff">
                            <use xlink:href="#j139mjgr4c"/>
                        </mask>
                        <path fill="#E5E5E0" d="M5.429 -5.764L92.255 9.566 79.658 80.52 -7.168 65.19 5.429 -5.764" mask="url(#71qok34s2d)"/>
                    </g>
                    <g transform="translate(26.720320, 51.372263)">
                        <use fill="#077670" xlink:href="#ydqah5hzue"/>
                        <path fill="#077670" d="M3.525 9.999c2.414.396 4.797-1.51 5.322-4.257C9.372 2.995 7.84.448 5.426.052 3.011-.345.628 1.562.103 4.31c-.525 2.747 1.007 5.294 3.422 5.69"/>
                    </g>
                    <g transform="translate(34.552004, 64.773723)">
                        <mask id="ze2aawpzbg" fill="#fff">
                            <use xlink:href="#ug4eno022f"/>
                        </mask>
                        <path fill="#FFA32C" d="M0.702 -2.41L17.543 0.683 13.597 23.806 -3.245 20.713 0.702 -2.41" mask="url(#ze2aawpzbg)"/>
                    </g>
                    <g transform="translate(24.482697, 0.000000)">
                        <use fill="#25B2AA" xlink:href="#5ysh68pe1h"/>
                    </g>
                    <g transform="translate(96.086657, 16.751825)">
                        <use fill="#25B2AA" xlink:href="#vqctuow11i"/>
                    </g>
                    <path fill="#FF9445" d="M103.389 88.49c-12.359-2.334-23.24 11.101-34.902 28.114-4.036 5.888-19.492 12.562-25.831 19.359-2.168 2.324-2.931 5.82-2.29 10.485l26.223-1.73c-4.19 5.533-.005 8.294 12.554 8.282 18.839-.018 33.434-4.83 38.213-17.037 4.778-12.208 11.294-42.702-13.967-47.472z"/>
                </g>
                <g>
                    <g transform="translate(-100.000000, -193.000000) translate(100.000000, 193.000000) translate(246.000000, 45.000000) translate(59.000000, 0.000000)">
                        <mask id="olw2yqiwck" fill="#fff">
                            <use xlink:href="#efeqkju5ej"/>
                        </mask>
                        <path fill="#FFFFFE" d="M4.676 9L3.391 5.719 0 4.5 3.391 3.283 4.676 0 5.961 3.283 9 4.501 5.961 5.719 4.676 9" mask="url(#olw2yqiwck)"/>
                    </g>
                    <g transform="translate(-100.000000, -193.000000) translate(100.000000, 193.000000) translate(246.000000, 45.000000) translate(71.000000, 26.000000)">
                        <mask id="lf5k75pu7m" fill="#fff">
                            <use xlink:href="#tal5qmrkyl"/>
                        </mask>
                        <path fill="#FFFFFE" d="M-7.508 6L5.5 -7.531 18.507 6 5.5 19.531 -7.508 6" mask="url(#lf5k75pu7m)"/>
                    </g>
                    <g transform="translate(-100.000000, -193.000000) translate(100.000000, 193.000000) translate(246.000000, 45.000000) translate(99.000000, 19.000000)">
                        <mask id="dbnldoltso" fill="#fff">
                            <use xlink:href="#ihyz10uzhn"/>
                        </mask>
                        <path fill="#FFFFFE" d="M9.352 19L6.781 12.074 0 9.5 6.781 6.932 9.352 0 11.922 6.932 18 9.502 11.922 12.074 9.352 19" mask="url(#dbnldoltso)"/>
                    </g>
                    <g>
                        <path fill="#BC742F" d="M30.593 3.922c.161.099.347.14.52.214.766.33 1.244.913 1.57 1.648.427.96.868 1.916 1.302 2.873.14.308.286.615.417.926.129.307.34.495.676.58 5.857 1.475 11.713 2.955 17.568 4.435 6.35 1.604 12.7 3.206 19.048 4.813.703.177 1.316.505 1.764 1.089.402.522.558 1.115.54 1.76-.008.299-.059.592-.135.88l-10.22 39.037c-.036.136-.069.274-.103.412.033.083-.004.16-.021.24l-.056.158-.087.013c-.021-.099.019-.19.043-.282l2.24-8.56c2.462-9.397 4.922-18.793 7.385-28.19.194-.74.121-1.447-.256-2.112-.274-.481-.691-.824-1.193-1.065-.222-.107-.455-.187-.695-.248L13.36 8.012c-1.11-.28-2.082-.02-2.885.785-.327.329-.557.721-.675 1.174L.183 46.69c-.03.111-.036.231-.122.322-.07-.027-.07-.027-.05-.155.033-.108.031-.231.124-.316l.119-.44 9.37-35.773c.705-2.692 1.402-5.385 2.122-8.073.278-1.039.938-1.768 1.99-2.115.471-.154.957-.182 1.446-.083l.18.034L29.77 3.73l.194.033.629.159" transform="translate(-100.000000, -193.000000) translate(100.000000, 193.000000) translate(246.000000, 45.000000) translate(0.000000, 26.000000)"/>
                        <path fill="#ED9840" d="M.066 47.019l.223-.848C3.43 34.186 6.573 22.201 9.71 10.215c.163-.622.476-1.14.973-1.548.645-.528 1.39-.737 2.228-.646.2.022.391.072.584.121 19.07 4.812 38.14 9.626 57.21 14.437.613.154 1.153.427 1.593.881.288.296.479.646.593 1.037.162.556.132 1.104-.015 1.662-3.208 12.223-6.412 24.448-9.616 36.672l-.031.132.007.088-.057.12-.102.162-.103.127-.058.052-.054.054-.118.097-.09.07c-.063.053-.144.071-.215.109l-.192.076-.169.04c-.138.038-.28.044-.422.041l-.16-.03L1.09 48.725c-.087-.023-.176-.043-.252-.093-.11-.063-.21-.138-.306-.22l-.12-.123c-.049-.065-.087-.14-.179-.16l-.103-.042c-.087-.086.02-.19-.029-.28l-.026-.103-.043-.176-.013-.098-.012-.08L0 47.223l.02-.154.046-.05" transform="translate(-100.000000, -193.000000) translate(100.000000, 193.000000) translate(246.000000, 45.000000) translate(0.000000, 26.000000)"/>
                    </g>
                    <g transform="translate(-100.000000, -193.000000) translate(100.000000, 193.000000) translate(246.000000, 45.000000) translate(45.000000, 73.000000)">
                        <mask id="an62py07dq" fill="#fff">
                            <use xlink:href="#s7vpywx18p"/>
                        </mask>
                        <path fill="#FFFFFE" d="M-11.767 10L9.5 -11.346 30.767 10 9.5 31.345 -11.767 10" mask="url(#an62py07dq)"/>
                    </g>
                </g>
                <g>
                    <path fill="#BFE2DD" d="M64.406 75.411c-12.236 4.563-24.478 9.11-36.703 13.703-2.643.993-5.136.867-7.536-.61-1.353-.83-2.403-1.968-3.04-3.459-.125-.297-.249-.597-.36-.902C11.378 69.369 6 54.589.596 39.82c-.958-2.616-.777-5.091.645-7.464.838-1.394 1.983-2.47 3.492-3.113.37-.156.744-.306 1.12-.447C30.3 19.678 54.75 10.57 79.187 1.427c2.667-.997 5.179-.939 7.614.55 1.382.843 2.45 1.996 3.09 3.517.125.298.249.598.36.904 5.379 14.749 10.745 29.503 16.143 44.245.968 2.645.796 5.144-.653 7.537-.828 1.366-1.954 2.427-3.435 3.062-.444.19-.892.366-1.345.534-12.185 4.547-24.37 9.09-36.555 13.635" transform="translate(-100.000000, -193.000000) translate(100.000000, 193.000000) translate(114.000000, 51.243902)"/>
                    <path fill="#E7E7E1" d="M23.933 80.756c-1.084-.017-1.797-.554-2.168-1.567-3.198-8.732-6.398-17.462-9.588-26.196-.506-1.383.093-2.568 1.548-3.11 6.173-2.297 12.348-4.587 18.524-6.88.935-.347 1.87-.702 2.81-1.042 1.495-.541 2.68.001 3.225 1.487 3.172 8.653 6.338 17.309 9.51 25.963.345.943.298 1.803-.46 2.537-.372-.089-.4-.436-.501-.708-.61-1.63-1.2-3.266-1.8-4.898-1.13-3.06-4.618-4.766-7.69-3.669-3.934 1.405-7.848 2.863-11.747 4.36-2.897 1.114-4.472 4.388-3.692 7.387.487 1.87 1.271 3.629 1.88 5.45.096.287.269.563.149.886" transform="translate(-100.000000, -193.000000) translate(100.000000, 193.000000) translate(114.000000, 51.243902)"/>
                    <path fill="#213262" d="M25.435 79.505c-.654-1.825-1.3-3.653-1.964-5.474-.77-2.112-.611-4.13.586-6.04.706-1.128 1.665-1.99 2.903-2.458 3.965-1.502 7.929-3.003 11.916-4.44 3.029-1.09 6.617.558 7.821 3.562.79 1.97 1.488 3.98 2.228 5.972.21.412-.052.517-.372.635-3.067 1.137-6.13 2.282-9.195 3.424-4.406 1.643-8.81 3.286-13.218 4.927-.246.09-.529.32-.705-.108M65.23 37.407c-5.36 2.05-10.718 4.105-16.08 6.146-1.398.533-2.588-.007-3.034-1.33-.357-1.058.137-2.297 1.116-2.797l.288-.122c10.793-4.128 21.583-8.257 32.378-12.38 1.07-.41 2.173-.049 2.758.857.727 1.123.257 2.801-.991 3.315-1.713.706-3.451 1.344-5.18 2.006-3.752 1.437-7.504 2.871-11.256 4.305M35.578 51.703c1.363 3.99-.684 8.292-4.588 9.642-3.894 1.346-8.245-.725-9.562-4.549-1.375-3.995.671-8.282 4.594-9.623 3.945-1.35 8.243.689 9.556 4.53M64.514 48.214l-14.458 5.4c-1.176.44-2.482-.171-2.915-1.363-.434-1.191.168-2.512 1.345-2.953L62.944 43.9c1.176-.44 2.482.17 2.915 1.362.434 1.191-.168 2.513-1.345 2.953M80.506 55.646L56.074 65.6c-1.183.483-2.496-.187-2.932-1.494-.437-1.307.17-2.758 1.352-3.24l24.432-9.953c1.183-.481 2.496.187 2.932 1.494.437 1.307-.17 2.759-1.352 3.24" transform="translate(-100.000000, -193.000000) translate(100.000000, 193.000000) translate(114.000000, 51.243902)"/>
                    <path fill="#25B2AA" d="M4.764 28.591C.623 30.207-.956 35.618.57 40.001l2.354 6.755L92 11.984l-2.281-6.55C88.152.938 83.44-1.364 79.193.294L4.763 28.591z" transform="translate(-100.000000, -193.000000) translate(100.000000, 193.000000) translate(114.000000, 51.243902)"/>
                    <path fill="#0F4744" d="M27.214 35.942l-16.596 5.744c-.623.216-1.314-.083-1.543-.667-.23-.585.088-1.234.71-1.45l16.598-5.743c.622-.215 1.314.084 1.543.668.229.585-.09 1.233-.712 1.448M49.214 26.942l-16.597 5.744c-.622.215-1.312-.083-1.543-.668-.229-.584.09-1.233.712-1.448l16.595-5.744c.623-.215 1.314.084 1.545.668.229.584-.09 1.233-.712 1.448M69.211 14.084L7.624 36.682c-.625.229-1.318-.09-1.55-.712-.23-.622.09-1.313.716-1.541L68.375 11.83c.625-.23 1.32.09 1.55.711.231.622-.089 1.312-.714 1.542" transform="translate(-100.000000, -193.000000) translate(100.000000, 193.000000) translate(114.000000, 51.243902)"/>
                </g>
                <g>
                    <g transform="translate(-100.000000, -193.000000) translate(100.000000, 193.000000) translate(104.000000, 134.000000) translate(10.000000, 23.000000)">
                        <mask id="9cwr97lzjs" fill="#fff">
                            <use xlink:href="#wblzrhe5ar"/>
                        </mask>
                        <path fill="#E67533" d="M47.515 8.701L27.015 -20.63 -2.314 1.728 18.187 31.058 47.515 8.701" mask="url(#9cwr97lzjs)"/>
                    </g>
                    <g>
                        <g transform="translate(-100.000000, -193.000000) translate(100.000000, 193.000000) translate(104.000000, 134.000000) translate(2.400000, 16.250000)">
                            <mask id="yslhelgb3u" fill="#fff">
                                <use xlink:href="#jk3e892o7t"/>
                            </mask>
                            <path fill="#E88045" d="M6.01 -1.326L-1.272 -2.511 -2.41 5.077 4.874 6.261 6.01 -1.326" mask="url(#yslhelgb3u)"/>
                        </g>
                        <g transform="translate(-100.000000, -193.000000) translate(100.000000, 193.000000) translate(104.000000, 134.000000) translate(0.000000, 8.750000)">
                            <mask id="6xs4h5sf2w" fill="#fff">
                                <use xlink:href="#2v4x8m4o7v"/>
                            </mask>
                            <path fill="#E88045" d="M6.011 -1.327L-1.274 -2.51 -2.411 5.076 4.874 6.261 6.011 -1.327" mask="url(#6xs4h5sf2w)"/>
                        </g>
                        <g transform="translate(-100.000000, -193.000000) translate(100.000000, 193.000000) translate(104.000000, 134.000000) translate(2.400000, 0.000000)">
                            <mask id="ovtmc87vsy" fill="#fff">
                                <use xlink:href="#y5lep9z5ix"/>
                            </mask>
                            <path fill="#E88045" d="M6.01 -1.326L-1.273 -2.51 -2.409 5.077 4.873 6.261 6.01 -1.326" mask="url(#ovtmc87vsy)"/>
                        </g>
                    </g>
                </g>
                <g transform="translate(-100.000000, -193.000000) translate(100.000000, 193.000000) translate(173.463415, 49.000000)">
                    <mask id="6jsngoun8A" fill="#fff">
                        <use xlink:href="#ecmtlubvqz"/>
                    </mask>
                    <path fill="#FFFFFE" d="M4.213 9L2.927 5.719 -0.463 4.5 2.927 3.283 4.213 0 5.498 3.283 8.537 4.501 5.498 5.719 4.213 9" mask="url(#6jsngoun8A)"/>
                </g>
                <g transform="translate(-100.000000, -193.000000) translate(100.000000, 193.000000) translate(297.000000, 178.000000)"/>
                <g transform="translate(-100.000000, -193.000000) translate(100.000000, 193.000000) translate(84.000000, 82.000000)">
                    <mask id="adqidp53gD" fill="#fff">
                        <use xlink:href="#63xvp2kv0C"/>
                    </mask>
                    <path fill="#FFFFFE" d="M9.353 19L6.781 12.073 0 9.5 6.781 6.931 9.353 0 11.922 6.931 18 9.502 11.922 12.073 9.353 19" mask="url(#adqidp53gD)"/>
                </g>
                <g>
                    <g transform="translate(-100.000000, -193.000000) translate(100.000000, 193.000000) translate(71.000000, 199.000000) translate(58.000000, 83.000000)">
                        <mask id="4r5martt3F" fill="#fff">
                            <use xlink:href="#zejq5uyq9E"/>
                        </mask>
                        <path fill="#030912" d="M0 7L90 7 90 0 0 0z" mask="url(#4r5martt3F)"/>
                    </g>
                    <g transform="translate(-100.000000, -193.000000) translate(100.000000, 193.000000) translate(71.000000, 199.000000)">
                        <mask id="4jxbiv2kqH" fill="#fff">
                            <use xlink:href="#jgil0z9nlG"/>
                        </mask>
                        <path fill="#030912" d="M0 91.611L117.086 91.611 117.086 -0.403 0 -0.403z" mask="url(#4jxbiv2kqH)"/>
                    </g>
                    <g transform="translate(-100.000000, -193.000000) translate(100.000000, 193.000000) translate(71.000000, 199.000000) translate(2.000000, 1.000000)">
                        <use fill="#0F151D" xlink:href="#eznl6h4sjI"/>
                    </g>
                </g>
                <g transform="translate(-100.000000, -193.000000) translate(100.000000, 193.000000) translate(281.000000, 207.000000)"/>
                <g transform="translate(-100.000000, -193.000000) translate(100.000000, 193.000000) translate(132.500000, 242.000000) scale(-1, 1) translate(-132.500000, -242.000000) translate(109.000000, 217.000000)">
                    <mask id="cddtz98i8L" fill="#fff">
                        <use xlink:href="#snwovdz8fK"/>
                    </mask>
                    <use fill="#FFF" xlink:href="#snwovdz8fK"/>
                    <g mask="url(#cddtz98i8L)">
                        <g>
                            <g transform="translate(-3.000000, 0.000000)">
                                <mask id="uk6puj1wfN" fill="#fff">
                                    <use xlink:href="#tb2mhmjvqM"/>
                                </mask>
                                <path fill="#71D8B8" d="M42.05 47.178l-2.403-1.566 7.498-3.47-3.103-7.334c-1.436-3.127-5.142-5.664-8.683-5.666H19.924c-3.54.002-7.246 2.539-8.682 5.666L8.14 42.142l7.498 3.47-2.403 1.566-1.332 11.918 15.74-.256 15.74.256-1.332-11.918z" mask="url(#uk6puj1wfN)"/>
                            </g>
                            <g transform="translate(-3.000000, 0.000000)">
                                <mask id="oadi2dpygP" fill="#fff">
                                    <use xlink:href="#n0zuass7fO"/>
                                </mask>
                                <path fill="#FAB08A" d="M47.145 42.142l1.547 5.306c1.13 3.871-.076 8.027-3.121 10.767l-7.023 5.693-2.258-6.37 3.884-3.76c1.276-1.235 1.656-3.09.963-4.702l-1.49-3.464 7.498-3.47z" mask="url(#oadi2dpygP)"/>
                            </g>
                            <g transform="translate(-3.000000, 0.000000)">
                                <mask id="df21vhufaR" fill="#fff">
                                    <use xlink:href="#2imx3ymt8Q"/>
                                </mask>
                                <path fill="#FAB08A" d="M8.216 42.142l-1.547 5.306c-1.13 3.871.076 8.027 3.121 10.767l7.023 5.693 2.258-6.37-3.884-3.76c-1.276-1.235-1.656-3.09-.963-4.702l1.49-3.464-7.498-3.47z" mask="url(#df21vhufaR)"/>
                            </g>
                            <g transform="translate(-3.000000, 0.000000)">
                                <mask id="uvclsjlo1T" fill="#fff">
                                    <use xlink:href="#0ub4yo2zqS"/>
                                </mask>
                                <path fill="#1C2C57" d="M60.266 61.721c5.184 9.582-47.024 15.463-47.024 15.463l-.886-4.267s41.518-23.01 47.91-11.196" mask="url(#uvclsjlo1T)"/>
                            </g>
                            <g transform="translate(-3.000000, 0.000000)">
                                <mask id="d224xwl22V" fill="#fff">
                                    <use xlink:href="#p12ilu5xsU"/>
                                </mask>
                                <path fill="#004472" d="M-4.205 61.721c-4.403 9.994 47.459 15.986 47.459 15.986l.385-4.801s-42.638-23-47.844-11.185" mask="url(#d224xwl22V)"/>
                            </g>
                            <g transform="translate(-3.000000, 0.000000)">
                                <mask id="y0kwvwug6X" fill="#fff">
                                    <use xlink:href="#rsiy4npvcW"/>
                                </mask>
                                <path fill="#F79C82" d="M30.376 29.109c-.48-1.512-1.352-5.991-1.352-5.991l-5.556 1.126v4.89s1.843 1.356 3.394 1.37c1.695.014 3.574-1.226 3.514-1.395" mask="url(#y0kwvwug6X)"/>
                            </g>
                            <g transform="translate(-3.000000, 0.000000)">
                                <mask id="8t30ev32qZ" fill="#fff">
                                    <use xlink:href="#bkm21yf6aY"/>
                                </mask>
                                <path fill="#FAB08A" d="M30.38 15.181l-1.048-6.404-10.675 1.312.647 7.378s.825 9.13 6.508 8.045c6.146-1.175 4.84-10.411 4.568-10.33" mask="url(#8t30ev32qZ)"/>
                            </g>
                            <g transform="translate(-3.000000, 0.000000)">
                                <mask id="faqwnnjfaab" fill="#fff">
                                    <use xlink:href="#9igv16eo9aa"/>
                                </mask>
                                <path fill="#004472" d="M32.872 14.305c-.142-.776.057-1.989.454-2.664 1.845-3.13-.946-4.04-1.92-4.311-1.076-.3-1.418-2.038-2.864-2.593-2.206-.847-3.45 1.203-4.647 1.361-1.197.158-2.38-1.169-3.769.203-1.389 1.373-.794 2.651-1.147 3.391-.352.74-1.801-.5-2.854 1.816-.801 1.76.083 2.794 1.167 3.387 1.263.69 2.772.69 4.082.103 1.133-.51 2.699-1.362 4.282-2.7.415-.352 3.673-.584 3.944-.104.918 1.627.993 7.041.993 7.041l.115-.166c.404-.588.857-1.138 1.33-1.669.484-.544 1.113-1.577.834-3.095" mask="url(#faqwnnjfaab)"/>
                            </g>
                            <g transform="translate(-3.000000, 0.000000)">
                                <mask id="mmvr843d4ad" fill="#fff">
                                    <use xlink:href="#qor9oin5gac"/>
                                </mask>
                                <path fill="#FAB08A" d="M31.5 16.616c0 .618-.484 1.12-1.08 1.12-.596 0-1.079-.502-1.079-1.12 0-.618.483-1.12 1.08-1.12.595 0 1.079.502 1.079 1.12" mask="url(#mmvr843d4ad)"/>
                            </g>
                        </g>
                    </g>
                </g>
                <g transform="translate(-100.000000, -193.000000) translate(100.000000, 193.000000) translate(74.686174, 288.954167)">
                    <mask id="rn0dlss6xaf" fill="#fff">
                        <use xlink:href="#qrl083n6zae"/>
                    </mask>
                    <path fill="#925844" d="M0 10.464L282.508 10.464 282.508 0 0 0z" mask="url(#rn0dlss6xaf)"/>
                </g>
                <path fill="#E38D1D" d="M236.061 217.992c.61 2.936 1.466 4.694 2.57 5.276 1.178.622 1.276.506 3.37.218.7-.097 1.846-.536 3.436-1.32-3.143-.148-5.168-.344-6.075-.588-.493-.132-1.459-.921-1.877-1.542-.277-.412-.752-1.093-1.424-2.044z" transform="translate(-100.000000, -193.000000) translate(100.000000, 193.000000) translate(240.749019, 220.855622) rotate(-15.000000) translate(-240.749019, -220.855622)"/>
            </g>
        </g>
    </g>
</svg>
