<?xml version="1.0" encoding="UTF-8"?>
<svg width="306px" height="185px" viewBox="0 0 306 185" version="1.1" xmlns="http://www.w3.org/2000/svg" xmlns:xlink="http://www.w3.org/1999/xlink">
    <!-- Generator: Sketch 53.1 (72631) - https://sketchapp.com -->
    <title>Group 59</title>
    <desc>Created with Sketch.</desc>
    <defs>
        <ellipse id="path-1" cx="77.7453343" cy="78.632484" rx="77.7453343" ry="78.632484"></ellipse>
        <polygon id="path-3" points="0 0 110.210419 0 110.210419 146.031756 0 146.031756"></polygon>
    </defs>
    <g id="investment-journey" stroke="none" stroke-width="1" fill="none" fill-rule="evenodd">
        <g id="3.0-Success-2" transform="translate(-35.000000, -156.000000)">
            <g id="Group-59" transform="translate(35.000000, 156.000000)">
                <g id="Group" transform="translate(0.000000, 2.000000)">
                    <polygon id="Fill-2" fill="#009BFF" points="200.865922 176.085142 207.588729 182.788889 214.31585 176.085142 207.588729 169.381395"></polygon>
                    <polygon id="Fill-5" fill="#00AAA8" points="280.541207 21.8159644 293.27156 34.5051991 306 21.8159644 293.27156 9.12672977"></polygon>
                    <polygon id="Fill-7" fill="#FF2239" points="267.967609 159.003351 257.003832 165.312772 263.33282 176.241556 274.296597 169.931651"></polygon>
                    <polygon id="Fill-11" fill="#FF8800" points="277.374618 68.0930233 274.374302 78.9896126 285.306707 81.9793555 288.304585 71.0803351"></polygon>
                    <polygon id="Fill-12" fill="#FF2239" points="51.2849162 153.692842 63.7244643 157.094712 67.1366176 144.692484 54.6951365 141.293023"></polygon>
                    <polygon id="Fill-13" fill="#00AAA8" points="229.305739 112.353488 221.379888 120.254573 229.305739 128.155177 237.23159 120.254573"></polygon>
                    <polygon id="Fill-14" fill="#FF8800" points="14.6074612 135.359073 13.4876689 146.935455 0 127.910353 12.4514788 119.162791 25.9391477 138.185991"></polygon>
                    <g id="Group-39" transform="translate(2.564246, 0.000000)">
                        <path d="M60.4788465,15.4530936 C56.1969657,11.1866378 56.1988872,4.26597705 60.4788465,1.0125234e-13 L75.9832515,15.4530936 C71.7013707,19.7214649 64.7607273,19.7214649 60.4788465,15.4530936" id="Fill-15" fill="#ED2EB1"></path>
                        <polygon id="Fill-31" fill="#007F7E" points="7.46045491 68.2405771 29.5048876 61.4693141 22.0665968 54.0568857 0.00391065146 60.8051644"></polygon>
                    </g>
                </g>
                <g id="Group-15" transform="translate(68.000000, 0.000000)">
                    <g id="Group-5" transform="translate(0.000000, 14.487685)">
                        <g id="Group-12">
                            <g id="Group-2">
                                <g id="Group-14">
                                    <g>
                                        <g id="Group-4">
                                            <g id="Group-9" transform="translate(0.000000, 0.672194)">
                                                <mask id="mask-2" fill="white">
                                                    <use xlink:href="#path-1"></use>
                                                </mask>
                                                <use id="Mask" fill="#005150" xlink:href="#path-1"></use>
                                                <g mask="url(#mask-2)" id="Group-8">
                                                    <g transform="translate(-35.882462, 39.748289)">
                                                        <g>
                                                            <path d="M6.0240819,121.837146 L199.872902,121.837146 C198.319458,175.557602 155.519521,218.615587 102.948492,218.615587 C50.3774638,218.615587 7.57752663,175.557602 6.02408228,121.837159 Z" id="Combined-Shape-Copy-2" fill="#008181" transform="translate(102.948492, 170.226367) rotate(-315.000000) translate(-102.948492, -170.226367) "></path>
                                                            <g id="Group-7" transform="translate(65.784514, 0.000000)">
                                                                <g id="Group-6">
                                                                    <path d="M52.1331313,76.9042976 L139.239999,76.9042976 C138.568504,100.881954 119.326002,120.108959 95.6865653,120.108959 C72.0471282,120.108959 52.8046264,100.881954 52.1331315,76.9043027 Z" id="Combined-Shape-Copy" fill="#FF9445" transform="translate(95.686565, 98.506628) rotate(-30.000000) translate(-95.686565, -98.506628) "></path>
                                                                    <g id="Group">
                                                                        <g id="Group-3">
                                                                            <mask id="mask-4" fill="white">
                                                                                <use xlink:href="#path-3"></use>
                                                                            </mask>
                                                                            <g id="Clip-2"></g>
                                                                            <path d="M95.9176357,138.254917 L95.9176357,47.5043651 C95.9176357,45.7510527 95.8225597,44.0192935 95.6379461,42.3156473 C94.8764151,35.2770959 95.4939475,28.1804444 97.2533149,21.3293128 C97.580081,20.0539209 97.8810011,18.730737 98.1643829,17.3588239 C98.8945296,13.8306457 95.1921043,11.0933792 92.1201344,12.9029176 C90.7429171,13.7153826 89.3103157,14.5016087 87.8786374,15.2025588 C86.0574244,16.0937401 83.8965225,15.7010956 82.4796132,14.2364097 C73.9855425,5.45766521 62.1730426,0 49.1236318,0 C36.0742209,0 24.2644902,5.45672811 15.7694964,14.2326613 C14.3535102,15.6973472 12.1907622,16.0899917 10.3695492,15.1978733 C8.94156317,14.4987974 7.51265407,13.7135084 6.1372829,12.9029176 C3.06623601,11.0933792 -0.63618932,13.8297086 0.0930343178,17.3578868 C0.375493094,18.7204289 0.673644024,20.0342418 0.997640856,21.3011998 C2.75423906,28.1523314 3.37638682,35.2480459 2.61024047,42.2847231 C2.42378076,43.9986773 2.32778169,45.7398075 2.32778169,47.5043651 L2.32778169,71.0218043 C2.32778169,100.914329 19.9528401,126.692051 45.1987471,138.254917 L11.6341522,138.254917 L110.210419,138.254917 L95.9176357,138.254917 Z" id="Fill-1" fill="#00BCBC" mask="url(#mask-4)"></path>
                                                                        </g>
                                                                        <path d="M68.3774041,23.3305172 C59.5211873,23.3305172 51.9790534,29.0680169 49.1247992,37.0980685 C46.2705449,29.0680169 38.7293338,23.3305172 29.8731171,23.3305172 C18.5649917,23.3305172 9.39778767,32.6833761 9.39778767,44.2195729 C9.39778767,67.9971498 11.646678,87.2734163 49.1247992,87.2734163 C84.5219817,87.2734163 88.8518107,67.9971498 88.8518107,44.2195729 C88.8518107,32.6833761 79.6846067,23.3305172 68.3774041,23.3305172" id="Fill-4" fill="#FFFFFF" opacity="0.901283482"></path>
                                                                    </g>
                                                                </g>
                                                            </g>
                                                        </g>
                                                    </g>
                                                </g>
                                            </g>
                                        </g>
                                        <path d="M83.4552212,109.450712 L88.386913,100.03118 C88.937479,98.9802035 88.7748957,97.6582528 87.9915401,96.8048095 L80.7331835,88.8819688 C79.7318186,87.7892069 78.0407065,87.7892069 77.0405732,88.8819688 L69.7809849,96.8048095 C68.9976293,97.6582528 68.835046,98.9802035 69.385612,100.03118 L74.3173038,109.450712 C76.2756929,113.19244 81.4968321,113.19244 83.4552212,109.450712" id="Fill-10" fill="#FFA32C"></path>
                                    </g>
                                </g>
                            </g>
                        </g>
                        <g id="Group-13" transform="translate(51.282051, 79.256158)" fill="#007F7E">
                            <path d="M55.4798431,8.13819605 L51.1812349,8.13819605 C51.1812349,6.82927858 50.8255865,3.78506889 47.5270043,3.78506889 C44.229174,3.78506889 43.8727737,6.82927858 43.8727737,8.13819605 L39.5741654,8.13819605 C39.5741654,3.26997643 42.7704893,0 47.5270043,0 C52.2842711,0 55.4798431,3.26997643 55.4798431,8.13819605" id="Fill-7"></path>
                            <path d="M15.9056777,8.13819605 L11.6070694,8.13819605 C11.6070694,6.82927858 11.251421,3.78506889 7.95283884,3.78506889 C4.65500853,3.78506889 4.29860827,6.82927858 4.29860827,8.13819605 L0,8.13819605 C0,3.26997643 3.1963239,0 7.95283884,0 C12.7101057,0 15.9056777,3.26997643 15.9056777,8.13819605" id="Fill-7-Copy"></path>
                        </g>
                    </g>
                    <g id="chat" transform="translate(124.786325, 0.000000)" fill="#FFFFFF" fill-rule="nonzero">
                        <path d="M75.2136752,9.19371429 L75.2136752,53.7493103 C75.2136752,58.3887783 71.4410256,62.1504631 66.7880342,62.1504631 L37.6068376,62.2714778 L20.5128205,81.0202463 L20.5128205,62.2714778 L8.42564103,62.2714778 C3.77264957,62.2714778 0,58.5097931 0,53.8703251 L0,9.31472906 C0,4.67526108 3.77264957,0.913576355 8.42564103,0.913576355 L66.7863248,0.792561576 C71.4410256,0.792561576 75.2136752,4.55424631 75.2136752,9.19371429 Z" id="Shape"></path>
                    </g>
                    <g id="smiling" transform="translate(142.735043, 11.078818)" fill-rule="nonzero">
                        <ellipse id="Oval" fill="#FFC700" cx="19.6581197" cy="19.6009852" rx="19.6581197" ry="19.6009852"></ellipse>
                        <g id="Group" transform="translate(7.295005, 9.800493)" fill="#734A3F">
                            <path d="M23.396234,6.14980911 C22.7180288,6.14980911 22.1676015,5.60098153 22.1676015,4.92474754 C22.1676015,3.57472968 21.0667468,2.47462438 19.7103365,2.47462438 C18.3539263,2.47462438 17.2530716,3.57472968 17.2530716,4.92474754 C17.2530716,5.60098153 16.7026442,6.14980911 16.0244391,6.14980911 C15.346234,6.14980911 14.7958066,5.60098153 14.7958066,4.92474754 C14.7958066,2.2222617 16.9999733,0.0245012315 19.7103365,0.0245012315 C22.4206998,0.0245012315 24.6248665,2.2222617 24.6248665,4.92474754 C24.6248665,5.60343165 24.0744391,6.14980911 23.396234,6.14980911 Z" id="Shape"></path>
                            <path d="M8.65264423,6.14980911 C7.9744391,6.14980911 7.42401175,5.60098153 7.42401175,4.92474754 C7.42401175,3.57472968 6.32069979,2.47462438 4.96674679,2.47462438 C3.6127938,2.47462438 2.50948184,3.57472968 2.50948184,4.92474754 C2.50948184,5.60098153 1.95905449,6.14980911 1.28084936,6.14980911 C0.602644231,6.14980911 0.0522168803,5.60098153 0.0522168803,4.92474754 C0.0522168803,2.2222617 2.25638355,0.0245012315 4.96674679,0.0245012315 C7.67711004,0.0245012315 9.88127671,2.2222617 9.88127671,4.92474754 C9.88127671,5.60343165 9.33084936,6.14980911 8.65264423,6.14980911 Z" id="Shape"></path>
                        </g>
                        <path d="M33.6104701,22.5631841 C33.3770299,22.2569187 33.015812,22.0756096 32.6324786,22.0756096 L6.63461538,22.0756096 C6.24882479,22.0756096 5.88760684,22.2544686 5.65662393,22.560734 C5.4207265,22.8694495 5.34700855,23.2639193 5.45021368,23.6338879 C7.22681624,29.9282543 13.0603632,34.3262254 19.6310897,34.3262254 C26.2018162,34.3262254 32.0353632,29.9282543 33.8119658,23.6338879 C33.9176282,23.2639193 33.8439103,22.8694495 33.6104701,22.5631841 Z" id="Shape" fill="#FAFAFA"></path>
                    </g>
                </g>
                <path d="M76.5398663,72.5413488 C70.5924248,78.4862171 60.946845,78.4862171 55,72.5413488 L76.5398663,51 C82.4867112,56.9472543 82.4867112,66.5911119 76.5398663,72.5413488" id="Fill-21" fill="#7171FF"></path>
            </g>
        </g>
    </g>
</svg>