<svg xmlns="http://www.w3.org/2000/svg" width="34" height="34" viewBox="0 0 34 34">
    <g fill="none" fill-rule="evenodd">
        <path fill="#50E3C2" fill-rule="nonzero" d="M17 32C8.733 32 2 25.303 2 17S8.733 2 17 2s15 6.697 15 15-6.733 15-15 15z"/>
        <g fill-rule="nonzero">
            <path fill="#41D1B1" d="M17 33.5C7.893 33.5.5 26.12.5 17 .5 7.88 7.893.5 17 .5S33.5 7.88 33.5 17c0 9.12-7.393 16.5-16.5 16.5zm0-3c7.452 0 13.5-6.038 13.5-13.5S24.452 3.5 17 3.5 3.5 9.538 3.5 17 9.548 30.5 17 30.5z"/>
            <path fill="#FFF" d="M14.148 19.312l9.447-9.392 2.645 2.63L14.148 24.57l-6.388-6.35 2.645-2.63z"/>
        </g>
    </g>
</svg>
