<?xml version="1.0" encoding="UTF-8"?>
<svg width="373px" height="363px" viewBox="0 0 373 363" version="1.1" xmlns="http://www.w3.org/2000/svg" xmlns:xlink="http://www.w3.org/1999/xlink">
    <!-- Generator: Sketch 52.5 (67469) - http://www.bohemiancoding.com/sketch -->
    <title>Group 55</title>
    <desc>Created with Sketch.</desc>
    <defs>
        <ellipse id="path-1" cx="91.4618326" cy="91.7721095" rx="91.4618326" ry="91.7721095"></ellipse>
        <polygon id="path-3" points="0 0 129.654686 0 129.654686 170.433918 0 170.433918"></polygon>
    </defs>
    <g id="investment-journey" stroke="none" stroke-width="1" fill="none" fill-rule="evenodd">
        <g id="Group-55">
            <polygon id="Fill-5" fill="#00AAA8" points="343.214876 180.630778 358.108557 195.538895 373 180.630778 358.108557 165.722661"></polygon>
            <polygon id="Fill-7" fill="#FF2239" points="328.504589 341.807215 315.677686 349.219923 323.082188 362.059752 335.909091 354.646476"></polygon>
            <polygon id="Fill-8" fill="#7171FF" points="322.075793 71 301 92.0961094 322.075793 113.192785 343.14876 92.0961094"></polygon>
            <polygon id="Fill-9" fill="#009BFF" points="167.801653 58 156 69.8125863 167.801653 81.6279594 179.603306 69.8125863"></polygon>
            <polygon id="Fill-11" fill="#FF8800" points="302.510174 217 299 229.802004 311.790199 233.314543 315.297521 220.509683"></polygon>
            <polygon id="Fill-12" fill="#FF2239" points="75 335.568093 89.5534582 339.564825 93.5454545 324.993902 78.9897349 321"></polygon>
            <polygon id="Fill-13" fill="#00AAA8" points="283.272727 287 274 296.282695 283.272727 305.564825 292.545455 296.282695"></polygon>
            <polygon id="Fill-14" fill="#FF8800" points="32.0897748 314.028419 30.779691 327.629087 15 305.27719 29.5674164 295 45.3471074 317.349662"></polygon>
            <g id="Group-39">
                <path d="M82.7098347,104.823192 C77.700314,99.8106888 77.702562,91.6798579 82.7098347,86.6679177 L100.848975,104.823192 C95.8394545,109.837945 87.7193554,109.837945 82.7098347,104.823192" id="Fill-15" fill="#ED2EB1"></path>
                <path d="M355.282182,51.3064194 C361.984959,44.5938286 361.984959,33.7114656 355.282182,27 L331,51.3064194 C337.705025,58.017885 348.576595,58.017885 355.282182,51.3064194" id="Fill-19" fill="#009BFF"></path>
                <path d="M90.6821482,177.708973 C83.590968,184.804001 72.090469,184.804001 65,177.708973 L90.6821482,152 C97.7726173,159.097875 97.7726173,170.607539 90.6821482,177.708973" id="Fill-21" fill="#7171FF"></path>
                <polygon id="Fill-23" fill="#007F7E" points="73.7123107 28.0531949 65.1499306 0.226772153 55.7709884 9.61382289 64.3092033 37.4689368"></polygon>
                <polygon id="Fill-25" fill="#007F7E" points="54.8768165 46.9087003 45.9772463 19.4175696 36.6005521 28.8046203 45.5079901 56.2873125"></polygon>
                <polygon id="Fill-27" fill="#00AAA8" points="45.9770215 19.4177383 73.7125917 28.0531949 64.3358975 37.4402457 36.5104099 28.8942378"></polygon>
                <polygon id="Fill-29" fill="#00AAA8" points="27.422519 37.989652 54.8838413 46.9002055 45.5077091 56.2872563 17.6844694 47.7412484"></polygon>
                <polygon id="Fill-31" fill="#007F7E" points="26.7282446 235.173356 52.5187901 227.218047 43.816476 218.509456 18.0045752 226.437761"></polygon>
                <polygon id="Fill-33" fill="#007F7E" points="9.25409917 217.680677 34.7310579 209.414829 26.0343636 200.706801 0.564710744 208.9794"></polygon>
                <polygon id="Fill-35" fill="#00B6AA" points="34.7312826 209.414886 26.728076 235.173299 18.0291339 226.462458 25.9514149 200.623597"></polygon>
                <polygon id="Fill-37" fill="#00B6AA" points="17.5183471 192.183971 9.26112397 217.688103 0.564429752 208.979512 8.48446281 183.137838"></polygon>
            </g>
            <g id="Group-16-Copy" transform="translate(90.000000, 134.000000)">
                <g id="Group-15" transform="translate(0.000000, 28.000000)">
                    <g id="Group-12">
                        <g id="Group-2">
                            <g id="Group-14">
                                <g>
                                    <g id="Group-4">
                                        <g id="Group-9" transform="translate(0.000000, 0.784518)">
                                            <mask id="mask-2" fill="white">
                                                <use xlink:href="#path-1"></use>
                                            </mask>
                                            <use id="Mask" fill="#005150" xlink:href="#path-1"></use>
                                            <g mask="url(#mask-2)" id="Group-8">
                                                <g transform="translate(-42.213154, 46.390297)">
                                                    <g>
                                                        <path d="M7.08690207,142.196345 L235.136193,142.196345 C233.308676,204.893584 182.957607,255.146634 121.111548,255.146634 C59.2654878,255.146634 8.91441883,204.893584 7.08690251,142.196361 Z" id="Combined-Shape-Copy-2" fill="#008181" transform="translate(121.111548, 198.671490) rotate(-315.000000) translate(-121.111548, -198.671490) "></path>
                                                        <g id="Group-7" transform="translate(77.390781, 0.000000)">
                                                            <g id="Group-6">
                                                                <path d="M61.3309052,89.75514 L163.805913,89.75514 C163.015948,117.739505 140.378519,140.179376 112.568409,140.179376 C84.7583001,140.179376 62.1208712,117.739505 61.3309054,89.755146 Z" id="Combined-Shape-Copy" fill="#FF9445" transform="translate(112.568409, 114.967258) rotate(-30.000000) translate(-112.568409, -114.967258) "></path>
                                                                <g id="Group">
                                                                    <g id="Group-3">
                                                                        <mask id="mask-4" fill="white">
                                                                            <use xlink:href="#path-3"></use>
                                                                        </mask>
                                                                        <g id="Clip-2"></g>
                                                                        <path d="M112.840247,161.357555 L112.840247,55.4424275 C112.840247,53.3961335 112.728397,51.3749944 112.511212,49.3866659 C111.615325,41.1719603 112.341808,32.8894459 114.411578,24.8934782 C114.795995,23.4049661 115.150006,21.8606758 115.483385,20.2595137 C116.34235,16.1417708 111.986711,12.9471023 108.372758,15.0590177 C106.75256,16.0072469 105.067207,16.9248528 103.38294,17.742933 C101.240413,18.7830322 98.6982661,18.3247761 97.0313736,16.6153386 C87.038706,6.3696506 73.1421437,0 57.7904439,0 C42.4387442,0 28.5454396,6.36855691 18.5516861,16.6109638 C16.8858796,18.3204013 14.3415609,18.7786574 12.199034,17.7374645 C10.5191104,16.9215718 8.83810089,16.0050596 7.22007496,15.0590177 C3.60720765,12.9471023 -0.748431293,16.1406771 0.10944823,20.25842 C0.441740804,21.8486453 0.792494077,23.3819986 1.17365321,24.8606675 C3.24016553,32.8566352 3.97207793,41.1380559 3.07076147,49.3505742 C2.85140493,51.3509332 2.73846889,53.3830092 2.73846889,55.4424275 L2.73846889,82.8896719 C2.73846889,117.777289 23.4730912,147.862514 53.1730974,161.357555 L13.6867491,161.357555 L129.654686,161.357555 L112.840247,161.357555 Z" id="Fill-1" fill="#00BCBC" mask="url(#mask-4)"></path>
                                                                    </g>
                                                                    <path d="M80.4411318,27.2290874 C70.0224254,27.2290874 61.1496436,33.9253333 57.7918173,43.2972206 C54.433991,33.9253333 45.5622948,27.2290874 35.1435884,27.2290874 C21.8403866,27.2290874 11.0558259,38.1448253 11.0558259,51.6087407 C11.0558259,79.3595923 13.7014847,101.856957 57.7918173,101.856957 C99.4340741,101.856957 104.527809,79.3595923 104.527809,51.6087407 C104.527809,38.1448253 93.743248,27.2290874 80.4411318,27.2290874" id="Fill-4" fill="#FFFFFF" opacity="0.901283482"></path>
                                                                </g>
                                                            </g>
                                                        </g>
                                                    </g>
                                                </g>
                                            </g>
                                        </g>
                                    </g>
                                    <path d="M98.1791067,127.740117 L103.98089,116.746564 C104.628591,115.519968 104.437324,113.977117 103.515762,112.981062 L94.9768238,103.734301 C93.7987894,102.458937 91.8093168,102.458937 90.6327314,103.734301 L82.0923444,112.981062 C81.1707825,113.977117 80.9795149,115.519968 81.6272164,116.746564 L87.4289996,127.740117 C89.7329044,132.107094 95.8752018,132.107094 98.1791067,127.740117" id="Fill-10" fill="#FFA32C"></path>
                                </g>
                            </g>
                        </g>
                    </g>
                    <g id="Group-13" transform="translate(60.000000, 92.000000)" fill="#007F7E">
                        <path d="M64.9114165,10.5043883 L59.8820448,10.5043883 C59.8820448,8.81490119 59.4659362,4.88558314 55.606595,4.88558314 C51.7481336,4.88558314 51.3311452,8.81490119 51.3311452,10.5043883 L46.3017736,10.5043883 C46.3017736,4.2207268 50.0414725,0 55.606595,0 C61.1725972,0 64.9114165,4.2207268 64.9114165,10.5043883" id="Fill-7"></path>
                        <path d="M18.6096429,10.5043883 L13.5802712,10.5043883 C13.5802712,8.81490119 13.1641626,4.88558314 9.30482144,4.88558314 C5.44635998,4.88558314 5.02937167,8.81490119 5.02937167,10.5043883 L0,10.5043883 C0,4.2207268 3.73969896,0 9.30482144,0 C14.8708236,0 18.6096429,4.2207268 18.6096429,10.5043883" id="Fill-7-Copy"></path>
                    </g>
                </g>
                <g id="Group-2" transform="translate(115.000000, 0.000000)">
                    <circle id="Oval-2" fill="#FF9600" cx="38.5" cy="38.5" r="38.5"></circle>
                    <polygon id="Shape" stroke="#FBFCFF" stroke-width="2" fill="#FFFFFF" points="31 48.6865672 20.5 37.7164179 17 41.3731343 31 56 61 24.6567164 57.5 21"></polygon>
                </g>
            </g>
            <polygon id="Fill-2" fill="#009BFF" points="258 26.8759865 265.865245 34.7519729 273.735537 26.8759865 265.865245 19"></polygon>
        </g>
    </g>
</svg>