<?xml version="1.0" encoding="UTF-8"?>
<svg width="32px" height="32px" viewBox="0 0 32 32" version="1.1" xmlns="http://www.w3.org/2000/svg" xmlns:xlink="http://www.w3.org/1999/xlink">
    <title>Icon / Time Past By@2x</title>
    <g id="Icon-/-Time-Past-By" stroke="none" stroke-width="1" fill="none" fill-rule="evenodd">
        <rect fill="none" x="0" y="0" width="32" height="32"></rect>
        <path d="M23.5892259,4.34720236 C24.2048672,4.90152831 24.2545732,5.84997418 23.7002472,6.46561551 C23.1459213,7.08125684 22.1974754,7.13096278 21.5818341,6.57663684 C20.9661927,6.0223109 20.9164868,5.07386502 21.4708127,4.45822369 C22.0251387,3.84258236 22.9735846,3.79287642 23.5892259,4.34720236 Z" id="Oval" fill="#FFFFFF"></path>
        <path d="M27.6765224,8.0274207 C28.4973775,8.76652196 28.5636521,10.0311165 27.8245509,10.8519716 C27.0854496,11.6728267 25.8208551,11.7391013 25,11 C24.1791449,10.2608987 24.1128703,8.99630424 24.8519716,8.17544914 C25.5910728,7.35459403 26.8556673,7.28831944 27.6765224,8.0274207 Z" id="Oval-Copy-2" fill="#FFFFFF"></path>
        <path d="M29.0132823,13.2679429 C30.0393512,14.1918195 30.1221944,15.7725626 29.1983179,16.7986315 C28.2744413,17.8247004 26.6936982,17.9075436 25.6676293,16.983667 C24.6415604,16.0597905 24.5587172,14.4790473 25.4825937,13.4529785 C26.4064703,12.4269096 27.9872134,12.3440663 29.0132823,13.2679429 Z" id="Oval-Copy-3" fill="#FFFFFF"></path>
        <path d="M15,1 L20,4 L15,7 L14.9999341,5.56258154 C9.6310831,6.12328682 5.49967461,10.6194473 5.49967461,16.0169853 C5.49967461,21.8195423 10.2563965,26.5301759 16.1323038,26.5301759 C20.2135992,26.5301759 23.8762294,24.2374199 25.6598683,20.6898816 C26.0323717,19.9489974 26.934197,19.6507451 27.6741516,20.0237164 C28.4141061,20.3966877 28.7119842,21.2996459 28.3394809,22.0405301 C26.0495928,26.594964 21.3546321,29.5339447 16.1323038,29.5339447 C8.60687889,29.5339447 2.49967461,23.4859137 2.49967461,16.0169853 C2.49967461,8.96318673 7.96616439,3.12021647 14.9997648,2.54608327 L15,1 Z" id="Path" fill="#FFFFFF"></path>
        <path d="M16,9.75068768 C19.3137085,9.75068768 22,12.4369792 22,15.7506877 L21.99389,15.749439 C21.9982839,15.8328917 22,15.9162454 22,16 C22,17.7732009 21.2307979,19.3667451 20.0078658,20.4651605 C22.3826807,21.1351309 24,22.4668334 24,24 C24,26.209139 20.6421356,28 16.5,28 C12.3578644,28 9,26.209139 9,24 C9,22.6282702 10.2946554,21.4178114 12.2678304,20.6972292 C10.8861261,19.5994436 10,17.9032047 10,16 C10,15.9162454 10.0017161,15.8328917 10.005115,15.749972 C10,12.4369792 12.6862915,9.75068768 16,9.75068768 Z M16,13 C15.7217391,13.8347826 14.485293,14.5676705 12.2906616,15.1986635 L12.0682879,15.2601406 C12.0234481,15.4999129 12,15.7472182 12,16 C12,18.209139 13.790861,20 16,20 C18.209139,20 20,18.209139 20,16 C20,15.7472182 19.9765519,15.4999129 19.9317121,15.2601406 C17.5971934,14.6158366 16.2874256,13.8622769 16,13 Z" id="Shape" fill="#FFFFFF" fill-rule="nonzero"></path>
    </g>
</svg>