<svg xmlns="http://www.w3.org/2000/svg" xmlns:xlink="http://www.w3.org/1999/xlink" width="32" height="32" viewBox="0 0 32 32">
    <defs>
        <path id="qchfs9j48a" d="M0 0L32 0 32 16 11 16 11 32 0 32z"/>
    </defs>
    <g fill="none" fill-rule="evenodd">
        <g>
            <g>
                <g transform="translate(-633 -425) translate(620 135) translate(13 290)">
                    <mask id="fkga0i6l8b" fill="#fff">
                        <use xlink:href="#qchfs9j48a"/>
                    </mask>
                    <g fill="#FFF" fill-rule="nonzero" mask="url(#fkga0i6l8b)">
                        <path d="M13 0C5.82 0 0 5.82 0 13s5.82 13 13 13 13-5.82 13-13S20.18 0 13 0zm-.963 2.889c5.584 0 10.111 4.527 10.111 10.111 0 5.584-4.527 10.111-10.111 10.111-5.584 0-10.111-4.527-10.111-10.111 0-5.584 4.527-10.111 10.111-10.111z" transform="translate(3 3)"/>
                    </g>
                    <g fill="#FFF" transform="scale(1 -1) rotate(-42 -4.84 -27.446)">
                        <circle cx="1.5" cy="6.5" r="1.5"/>
                        <circle cx="7" cy="6" r="2"/>
                        <circle cx="11.5" cy="2.5" r="2.5"/>
                    </g>
                    <path fill="#FFF" d="M14.5 7.036L17.5 2.036 20.5 7.036z" transform="rotate(90 17.5 4.536)"/>
                    <g fill="#FFF">
                        <path fill-rule="nonzero" d="M6 1C2.686 1 0 3.685 0 7c0 3.313 2.686 6 6 6s6-2.687 6-6c0-3.314-2.686-6-6-6zm0 2c2.21 0 4 1.79 4 4 0 2.208-1.79 4-4 4S2 9.207 2 7c0-2.21 1.79-4 4-4z" transform="translate(10 9)"/>
                        <path d="M12 6.75c0-3.314-2.686-6-6-6s-6 2.686-6 6C3.636 6.007 5.636 5.09 6 4c.364 1.09 2.364 2.007 6 2.75z" transform="translate(10 9)"/>
                    </g>
                    <ellipse cx="16.5" cy="24" fill="#FFF" rx="7.5" ry="4"/>
                </g>
            </g>
        </g>
    </g>
</svg>
