<?xml version="1.0" encoding="UTF-8"?>
<svg width="28px" height="29px" viewBox="0 0 28 29" version="1.1" xmlns="http://www.w3.org/2000/svg" xmlns:xlink="http://www.w3.org/1999/xlink">
    <!-- Generator: Sketch 52.5 (67469) - http://www.bohemiancoding.com/sketch -->
    <title>Group 5</title>
    <desc>Created with Sketch.</desc>
    <defs>
        <ellipse id="path-1" cx="13.6472835" cy="14.007322" rx="13.6472835" ry="14.007322"></ellipse>
        <polygon id="path-3" points="0 0 19.3461492 0 19.3461492 26.0135979 0 26.0135979"></polygon>
    </defs>
    <g id="Symbols" stroke="none" stroke-width="1" fill="none" fill-rule="evenodd">
        <g id="transfer_instruction_bank" transform="translate(-86.000000, -1006.000000)">
            <g id="Group-20" transform="translate(38.000000, 999.000000)">
                <g id="Group-11" transform="translate(48.000000, 7.000000)">
                    <g id="Group-5">
                        <g id="Group-12">
                            <g id="Group-2">
                                <g id="Group-14">
                                    <g>
                                        <g id="Group-4">
                                            <g id="Group-9" transform="translate(0.000000, 0.119742)">
                                                <mask id="mask-2" fill="white">
                                                    <use xlink:href="#path-1"></use>
                                                </mask>
                                                <use id="Mask" fill="#005150" xlink:href="#path-1"></use>
                                                <g mask="url(#mask-2)" id="Group-8">
                                                    <g transform="translate(-6.402178, 7.080624)">
                                                        <g>
                                                            <path d="M1.16088873,21.7036527 L35.1887804,21.7036527 C34.9160926,31.27323 27.4030641,38.9434336 18.1748346,38.9434336 C8.94660507,38.9434336 1.43357656,31.27323 1.16088873,21.7036527 Z" id="Combined-Shape-Copy-2" fill="#008181" transform="translate(18.174835, 30.323543) rotate(-315.000000) translate(-18.174835, -30.323543) "></path>
                                                            <g id="Group-7" transform="translate(11.651133, 0.000000)">
                                                                <g id="Group-6">
                                                                    <path d="M9.15136105,13.6994687 L24.4419523,13.6994687 C24.3240796,17.970766 20.9462835,21.3957995 16.7966567,21.3957995 C12.6470298,21.3957995 9.26923366,17.970766 9.15136105,13.6994687 Z" id="Combined-Shape-Copy" fill="#FF9445" transform="translate(16.796657, 17.547634) rotate(-30.000000) translate(-16.796657, -17.547634) "></path>
                                                                    <g id="Group">
                                                                        <g id="Group-3">
                                                                            <mask id="mask-4" fill="white">
                                                                                <use xlink:href="#path-3"></use>
                                                                            </mask>
                                                                            <g id="Clip-2"></g>
                                                                            <path d="M16.8372184,24.6282584 L16.8372184,8.46226525 C16.8372184,8.14993616 16.8205289,7.84144651 16.7881221,7.5379648 C16.6544443,6.28414131 16.7628449,5.01996805 17.0716812,3.79953089 C17.1290412,3.57233694 17.1818642,3.33662947 17.2316085,3.09224156 C17.3597772,2.46374396 16.7098598,1.97613667 16.1706114,2.29848165 C15.9288571,2.44321137 15.6773807,2.58326701 15.4260663,2.70813187 C15.1063737,2.86688386 14.7270526,2.7969395 14.4783308,2.53602536 C12.9872961,0.972209828 10.91375,0 8.62307863,0 C6.33240728,0 4.25934728,0.972042896 2.76815053,2.53535764 C2.51959073,2.79627178 2.13994562,2.86621613 1.820253,2.70729722 C1.56958677,2.58276622 1.3187585,2.44287751 1.07732818,2.29848165 C0.538241845,1.97613667 -0.111675589,2.46357703 0.0163310857,3.09207463 C0.065913418,3.33479322 0.118250324,3.56883137 0.175124176,3.79452294 C0.483474433,5.0149601 0.592685191,6.27896643 0.458197165,7.53245606 C0.425466344,7.83777401 0.408614833,8.14793298 0.408614833,8.46226525 L0.408614833,12.6515815 C0.408614833,17.9765336 3.50248756,22.568489 7.93411105,24.6282584 L2.04223926,24.6282584 L19.3461492,24.6282584 L16.8372184,24.6282584 Z" id="Fill-1" fill="#00BCBC" mask="url(#mask-4)"></path>
                                                                        </g>
                                                                        <path d="M12.002853,4.15601861 C10.4482478,4.15601861 9.12431448,5.17807719 8.62328355,6.60852314 C8.12225262,5.17807719 6.79848127,4.15601861 5.24387608,4.15601861 C3.25886701,4.15601861 1.64967164,5.82210491 1.64967164,7.87712359 C1.64967164,12.1127799 2.04443801,15.5465881 8.62328355,15.5465881 C14.8368447,15.5465881 15.5968955,12.1127799 15.5968955,7.87712359 C15.5968955,5.82210491 13.9877001,4.15601861 12.002853,4.15601861" id="Fill-4" fill="#FFFFFF" opacity="0.901283482"></path>
                                                                    </g>
                                                                </g>
                                                            </g>
                                                        </g>
                                                    </g>
                                                </g>
                                            </g>
                                        </g>
                                        <path d="M14.6495873,19.4971757 L15.5152881,17.8192125 C15.6119335,17.6319952 15.583394,17.3965074 15.445885,17.2444779 L14.1717655,15.8331302 C13.9959876,15.6384693 13.6991327,15.6384693 13.523571,15.8331302 L12.2492352,17.2444779 C12.1117263,17.3965074 12.0831867,17.6319952 12.1798321,17.8192125 L13.0455329,19.4971757 C13.3893052,20.1637144 14.3058151,20.1637144 14.6495873,19.4971757" id="Fill-10" fill="#FFA32C"></path>
                                    </g>
                                </g>
                            </g>
                        </g>
                        <g id="Group-13" transform="translate(8.923077, 14.871795)" fill="#007F7E">
                            <path d="M9.78051234,1.64441167 L9.02271296,1.64441167 C9.02271296,1.37993055 8.96001589,0.764814635 8.37851057,0.764814635 C7.7971378,0.764814635 7.73430819,1.37993055 7.73430819,1.64441167 L6.9765088,1.64441167 C6.9765088,0.66073456 7.53998706,0 8.37851057,0 C9.21716664,0 9.78051234,0.66073456 9.78051234,1.64441167" id="Fill-7"></path>
                            <path d="M2.80400355,1.64441167 L2.04620416,1.64441167 C2.04620416,1.37993055 1.98350709,0.764814635 1.40200177,0.764814635 C0.820629004,0.764814635 0.757799389,1.37993055 0.757799389,1.64441167 L0,1.64441167 C0,0.66073456 0.563478258,0 1.40200177,0 C2.24065784,0 2.80400355,0.66073456 2.80400355,1.64441167" id="Fill-7-Copy"></path>
                        </g>
                    </g>
                </g>
            </g>
        </g>
    </g>
</svg>