<?xml version="1.0" encoding="UTF-8"?>
<svg width="77px" height="55px" viewBox="0 0 77 55" version="1.1" xmlns="http://www.w3.org/2000/svg" xmlns:xlink="http://www.w3.org/1999/xlink">
    <!-- Generator: Sketch 51.2 (57519) - http://www.bohemiancoding.com/sketch -->
    <title>Group 16</title>
    <desc>Created with Sketch.</desc>
    <defs></defs>
    <g id="Dashboard-Ideas-(work-in-progress)" stroke="none" stroke-width="1" fill="none" fill-rule="evenodd">
        <g id="assets" transform="translate(-75.000000, -293.000000)">
            <g id="Group-16" transform="translate(75.000000, 293.000000)">
                <g id="Group-15" transform="translate(15.500000, 28.351852) rotate(-90.000000) translate(-15.500000, -28.351852) translate(-3.000000, 12.851852)" fill="#FFFFFF">
                    <path d="M35.6715196,30.1270046 C35.2202417,30.1270046 34.8545791,29.7591655 34.8545791,29.3059352 L34.8545791,23.3699324 C34.8545791,22.9167021 35.2202417,22.548863 35.6715196,22.548863 C36.1227974,22.548863 36.48846,22.9167021 36.48846,23.3699324 L36.48846,29.3059352 C36.48846,29.7591655 36.1227974,30.1270046 35.6715196,30.1270046" id="Fill-21"></path>
                    <path d="M1.21101223,30.1270046 C0.759734348,30.1270046 0.394071818,29.7591655 0.394071818,29.3059352 L0.394071818,12.8963719 C0.394071818,12.4428132 0.759734348,12.0753025 1.21101223,12.0753025 C1.66229012,12.0753025 2.02795265,12.4428132 2.02795265,12.8963719 L2.02795265,29.3059352 C2.02795265,29.7591655 1.66229012,30.1270046 1.21101223,30.1270046" id="Fill-20"></path>
                    <path d="M35.6715196,19.2537476 C35.2202417,19.2537476 34.8545791,18.8862369 34.8545791,18.4326782 L34.8545791,12.4973322 C34.8545791,12.0437735 35.2202417,11.6762628 35.6715196,11.6762628 C36.1227974,11.6762628 36.48846,12.0437735 36.48846,12.4973322 L36.48846,18.4326782 C36.48846,18.8862369 36.1227974,19.2537476 35.6715196,19.2537476" id="Fill-22"></path>
                    <path d="M28.7624911,23.4868526 C28.3112132,23.4868526 27.9455507,23.119342 27.9455507,22.6657833 L27.9455507,12.8963719 C27.9455507,12.4428132 28.3112132,12.0753025 28.7624911,12.0753025 C29.213769,12.0753025 29.5794315,12.4428132 29.5794315,12.8963719 L29.5794315,22.6657833 C29.5794315,23.119342 29.213769,23.4868526 28.7624911,23.4868526" id="Fill-23"></path>
                    <path d="M21.8537894,10.4275806 C21.4025115,10.4275806 21.036849,10.06007 21.036849,9.60651126 L21.036849,7.16859218 C21.036849,6.71503348 21.4025115,6.34752284 21.8537894,6.34752284 C22.3047405,6.34752284 22.6707298,6.71503348 22.6707298,7.16859218 L22.6707298,9.60651126 C22.6707298,10.06007 22.3047405,10.4275806 21.8537894,10.4275806" id="Fill-24"></path>
                    <path d="M14.9447609,6.846733 C14.493483,6.846733 14.1278205,6.47922236 14.1278205,6.02566366 L14.1278205,0.888397024 C14.1278205,0.434838321 14.493483,0.0673276857 14.9447609,0.0673276857 C15.395712,0.0673276857 15.7617013,0.434838321 15.7617013,0.888397024 L15.7617013,6.02566366 C15.7617013,6.47922236 15.395712,6.846733 14.9447609,6.846733" id="Fill-25"></path>
                    <path d="M14.9447609,19.7135464 C14.493483,19.7135464 14.1278205,19.3457073 14.1278205,18.892477 L14.1278205,12.0375334 C14.1278205,11.5843031 14.493483,11.216464 14.9447609,11.216464 C15.395712,11.216464 15.7617013,11.5843031 15.7617013,12.0375334 L15.7617013,18.892477 C15.7617013,19.3457073 15.395712,19.7135464 14.9447609,19.7135464" id="Fill-26"></path>
                    <path d="M8.03540568,16.6998935 C7.58445457,16.6998935 7.21846526,16.3323828 7.21846526,15.8788241 L7.21846526,7.67272875 C7.21846526,7.21949848 7.58445457,6.85165941 8.03540568,6.85165941 C8.48668356,6.85165941 8.85234609,7.21949848 8.85234609,7.67272875 L8.85234609,15.8788241 C8.85234609,16.3323828 8.48668356,16.6998935 8.03540568,16.6998935" id="Fill-27"></path>
                </g>
                <g id="Group-10" transform="translate(20.370370, 0.000000)">
                    <path d="M56.0185185,27.5002608 C56.0185185,42.688015 43.4784149,55 28.0092593,55 C12.5401036,55 0,42.688015 0,27.5002608 C0,12.3125065 12.5401036,0 28.0092593,0 C43.4784149,0 56.0185185,12.3125065 56.0185185,27.5002608" id="Fill-17" fill="#FF872F"></path>
                    <path d="M27.8385829,8.24127 C17.0720787,8.24127 8.31301409,16.8106551 8.31301409,27.3440081 C8.31301409,37.8773612 17.0720787,46.4467463 27.8385829,46.4467463 C38.6050872,46.4467463 47.3641518,37.8773612 47.3641518,27.3440081 C47.3641518,16.8106551 38.6050872,8.24127 27.8385829,8.24127 Z M27.8385829,49.6875 C15.2456465,49.6875 5,39.6642417 5,27.3440081 C5,15.0232583 15.2456465,5 27.8385829,5 C40.4315194,5 50.6766382,15.0232583 50.6766382,27.3440081 C50.6766382,39.6642417 40.4315194,49.6875 27.8385829,49.6875 Z" id="Fill-18" fill-opacity="0.5" fill="#FFFFFF"></path>
                    <path d="M36.4445803,28.6591273 C36.0355405,27.8720804 35.4656365,27.2212026 34.7359264,26.7064939 C34.0056872,26.1923109 33.1198753,25.7548874 32.079549,25.3947491 C31.0381645,25.0346107 29.8756025,24.7054916 28.5918631,24.4068659 C27.5663533,24.1497744 26.8308225,23.9541956 26.3857999,23.8201295 C25.9402482,23.6865892 25.5005172,23.5015254 25.0655486,23.2644124 C24.6305801,23.0278251 24.2887435,22.7449719 24.0400388,22.4158528 C23.7913342,22.0867336 23.6669818,21.6955761 23.6669818,21.24238 C23.6669818,20.5121141 24.0321014,19.886998 24.7623406,19.3675576 C25.4925798,18.8481171 26.4530031,18.5878712 27.6441397,18.5878712 C28.927879,18.5878712 29.8602569,18.8270872 30.440215,19.3055191 C31.0201731,19.7839511 31.5175824,20.4506014 31.9319137,21.3044185 C32.252584,21.9011441 32.5505004,22.3306814 32.8251338,22.5935561 C33.0992381,22.8559051 33.5008697,22.9868167 34.0289702,22.9868167 C34.6089283,22.9868167 35.0931086,22.7686306 35.4815112,22.3306814 C35.8699138,21.8937836 36.0641151,21.4022079 36.0641151,20.8570057 C36.0641151,20.2602801 35.9085424,19.647782 35.5979262,19.0200372 C35.2873099,18.3922924 34.7951922,17.792938 34.1221022,17.2219741 C33.4490121,16.6510103 32.602358,16.1930825 31.5821397,15.8481909 C30.9497949,15.6347366 30.2449554,15.4875268 29.467621,15.4065614 L29.467621,12.03125 L26.5508975,12.03125 L26.5508975,15.3934176 C25.3782815,15.497516 24.3226096,15.7356805 23.387586,16.1105398 C22.0927343,16.630506 21.1037364,17.3739157 20.4205924,18.3407689 C19.7369191,19.3081479 19.3950825,20.4143247 19.3950825,21.6592993 C19.3950825,22.9663124 19.7189277,24.0593455 20.366089,24.9394501 C21.0132503,25.8190289 21.888479,26.5135439 22.991246,27.0229951 C24.0945422,27.5324463 25.4640052,27.9772303 27.1001644,28.3578729 C28.3225213,28.6359943 29.2988193,28.8983433 30.0285294,29.1454455 C30.7587686,29.392022 31.3546014,29.7500574 31.8154988,30.2179743 C32.275867,30.6864171 32.5065802,31.2957607 32.5065802,32.0470566 C32.5065802,32.9934056 32.079549,33.783607 31.2249575,34.4160836 C30.370366,35.0490859 29.2596616,35.3650613 27.8928443,35.3650613 C26.8985549,35.3650613 26.0958209,35.208388 25.4846424,34.8945155 C24.873464,34.5811689 24.3998668,34.1821251 24.0633218,33.6984356 C23.7267768,33.2147461 23.4135147,32.612763 23.1235357,31.8924863 C22.8854142,31.2857714 22.598081,30.8278437 22.261536,30.518703 C21.9244618,30.2100881 21.5127762,30.0560435 21.0264792,30.0560435 C20.4253548,30.0560435 19.9311204,30.2542511 19.5427178,30.6501404 C19.1543153,31.0465555 18.960114,31.5223587 18.960114,32.0780758 C18.960114,33.0349398 19.2839592,34.0201942 19.9311204,35.0333134 C20.5782817,36.047484 21.4196442,36.8576639 22.4557372,37.4643788 C23.5844331,38.1168338 24.9512503,38.5137746 26.5508975,38.662036 L26.5508975,42.109375 L29.467621,42.109375 L29.467621,38.662036 C30.740248,38.5405879 31.8784687,38.2561574 32.8796372,37.8040129 C34.2464545,37.1867831 35.2846641,36.332966 35.9942661,35.2420359 C36.703339,34.1511058 37.0584046,32.9219037 37.0584046,31.5533779 C37.0584046,30.4109244 36.8536201,29.4461742 36.4445803,28.6591273" id="Fill-19" fill="#FFFFFF"></path>
                </g>
            </g>
        </g>
    </g>
</svg>