<svg xmlns="http://www.w3.org/2000/svg" xmlns:xlink="http://www.w3.org/1999/xlink" width="325" height="250" viewBox="0 0 325 250">
    <defs>
        <radialGradient id="oqe7hmub7a" cx="50%" cy="47.566%" r="100.625%" fx="50%" fy="47.566%" gradientTransform="scale(1 .52192) rotate(86.736 .27 .694)">
            <stop offset="0%" stop-color="#FCF2FF"/>
            <stop offset="100%" stop-color="#9AF3EE"/>
        </radialGradient>
        <radialGradient id="urf6a0xcmb" cx="50%" cy="47.566%" r="102.854%" fx="50%" fy="47.566%" gradientTransform="scale(1 .51058) rotate(86.807 .259 .704)">
            <stop offset="0%" stop-color="#FFFEFA"/>
            <stop offset="100%" stop-color="#C6C4F0"/>
        </radialGradient>
        <filter id="u3qzh3rspc" width="245.9%" height="163.4%" x="-72.9%" y="-17.6%" filterUnits="objectBoundingBox">
            <feOffset dy="5" in="SourceAlpha" result="shadowOffsetOuter1"/>
            <feGaussianBlur in="shadowOffsetOuter1" result="shadowBlurOuter1" stdDeviation="3"/>
            <feColorMatrix in="shadowBlurOuter1" values="0 0 0 0 0.693331069 0 0 0 0 0.693331069 0 0 0 0 0.693331069 0 0 0 0.5 0"/>
        </filter>
        <filter id="6a71vn2d9e" width="245.9%" height="163.4%" x="-72.9%" y="-17.6%" filterUnits="objectBoundingBox">
            <feOffset dy="5" in="SourceAlpha" result="shadowOffsetOuter1"/>
            <feGaussianBlur in="shadowOffsetOuter1" result="shadowBlurOuter1" stdDeviation="3"/>
            <feColorMatrix in="shadowBlurOuter1" values="0 0 0 0 0.693331069 0 0 0 0 0.693331069 0 0 0 0 0.693331069 0 0 0 0.5 0"/>
        </filter>
        <path id="t47nye8ufd" d="M41.761 8.927c.553 0 1 .448 1 1v24.999h3.299c.552 0 1 .448 1 1 0 .257-.1.504-.277.69l-8.8 9.233c-.38.4-1.014.415-1.413.034l-.034-.034-8.8-9.233c-.381-.4-.366-1.033.034-1.414.186-.177.433-.276.69-.276h3.142v-25c0-.551.448-1 1-1h9.16z"/>
        <path id="v5ijecwhwf" d="M23.502-8.89c.553 0 1 .448 1 1v24.999h3.299c.552 0 1 .448 1 1 0 .257-.1.504-.277.69l-8.8 9.233c-.38.4-1.014.415-1.413.034l-.034-.034-8.8-9.233c-.381-.4-.366-1.033.034-1.414.186-.177.433-.276.69-.276h3.142v-25c0-.551.448-1 1-1h9.16z"/>
    </defs>
    <g fill="none" fill-rule="evenodd" transform="translate(1)">
        <g transform="translate(64.715 33.333)">
            <ellipse cx="45.301" cy="169.907" fill="#118C8C" rx="45.301" ry="8.796"/>
            <path fill="#1F2020" d="M9 0h71.801c4.971 0 9 4.03 9 9v150.519c0 4.97-4.029 9-9 9H9c-4.97 0-9-4.03-9-9V9c0-4.97 4.03-9 9-9z"/>
            <g transform="translate(1.974 2.903)">
                <rect width="85.054" height="162.963" x=".462" fill="url(#oqe7hmub7a)" rx="7"/>
                <g fill="#0A1616" transform="translate(27.33 7.511)">
                    <ellipse cx="2.363" cy="2.367" rx="2.363" ry="2.367"/>
                    <rect width="18.906" height="2.84" x="6.617" y=".947" rx="1.42"/>
                </g>
            </g>
        </g>
        <g>
            <path fill="#185994" d="M96.088 3.542l-83.67 24.03c-6.59 1.892-10.407 8.75-8.527 15.317l16.89 58.992c1.88 6.568 8.746 10.358 15.335 8.466l83.67-24.03c6.59-1.892 10.407-8.75 8.526-15.317l-16.89-58.992c-1.88-6.568-8.745-10.358-15.334-8.466" transform="translate(149.77 87.037)"/>
            <path fill="#094276" d="M115.389 28.311l-23.07 6.626c-5.746 1.65-9.092 7.57-7.473 13.223 1.619 5.653 7.588 8.898 13.333 7.248l23.07-6.625c1.146-.33 1.814-1.51 1.49-2.637l-4.692-16.39c-.322-1.127-1.513-1.774-2.658-1.445" transform="translate(149.77 87.037)"/>
            <path fill="#FFF" d="M104.236 42.323c.915 3.195-.93 6.528-4.12 7.444-3.19.916-6.518-.931-7.433-4.126-.915-3.196.93-6.529 4.12-7.445 3.19-.916 6.518.931 7.433 4.127" transform="translate(149.77 87.037)"/>
        </g>
        <g transform="translate(131.28 51.852)">
            <ellipse cx="45.301" cy="169.907" fill="#118C8C" rx="45.301" ry="8.796"/>
            <path fill="#1F2020" d="M9 0h71.801c4.971 0 9 4.03 9 9v150.519c0 4.97-4.029 9-9 9H9c-4.97 0-9-4.03-9-9V9c0-4.97 4.03-9 9-9z"/>
            <g transform="translate(2.898 2.903)">
                <rect width="83.205" height="162.963" x=".462" fill="url(#urf6a0xcmb)" rx="7"/>
                <g fill="#0A1616" transform="translate(26.405 7.511)">
                    <ellipse cx="2.363" cy="2.367" rx="2.363" ry="2.367"/>
                    <rect width="18.906" height="2.84" x="6.617" y=".947" rx="1.42"/>
                </g>
            </g>
        </g>
        <ellipse cx="156.607" cy="174.259" fill="#BBB" rx="14.809" ry="19.422" transform="rotate(-121 156.607 174.26)"/>
        <g>
            <path fill="#FDC010" d="M6.009 38.113L2.477 39.558 2.757 35.747 0.294 32.829 3.999 31.918 6.009 28.67 8.019 31.918 11.724 32.829 9.261 35.747 9.541 39.558z" transform="translate(60.093 62.037)"/>
            <path fill="#005960" fill-rule="nonzero" d="M17.805 40.085c.171 1.241.368 2.468.592 3.68.046.251.287.418.538.371.251-.046.417-.288.37-.539-.22-1.199-.415-2.411-.584-3.638-.035-.254-.268-.43-.521-.396-.253.035-.43.27-.395.522zm1.798 9.14c.313 1.209.654 2.403 1.024 3.582.076.244.335.38.58.303.243-.076.378-.336.302-.58-.365-1.165-.702-2.344-1.011-3.538-.064-.248-.317-.396-.564-.332-.247.064-.395.317-.331.564zm2.9 8.851c.463 1.156.955 2.296 1.476 3.42.108.233.383.333.614.226.232-.108.332-.383.225-.615-.515-1.11-1-2.235-1.457-3.376-.095-.237-.365-.352-.602-.257-.236.095-.351.365-.256.602zm4.044 8.421c.612 1.08 1.253 2.145 1.922 3.194.138.216.424.278.639.14.215-.137.278-.423.14-.639-.66-1.035-1.293-2.085-1.896-3.151-.126-.223-.408-.3-.63-.175-.222.126-.3.409-.175.631zm5.104 7.766c.746.987 1.52 1.958 2.322 2.913.164.196.456.221.651.057.196-.165.221-.457.057-.653-.793-.943-1.557-1.902-2.293-2.876-.154-.204-.444-.244-.647-.09-.204.155-.244.445-.09.649zm6.086 7.07c.86.883 1.748 1.75 2.661 2.604.187.174.48.164.654-.023.174-.187.163-.48-.023-.654-.903-.844-1.78-1.702-2.63-2.574-.179-.183-.471-.186-.654-.008-.183.179-.186.472-.008.655zm6.89 6.295c.953.777 1.93 1.54 2.93 2.291.205.153.494.111.647-.093.153-.205.112-.495-.093-.648-.99-.743-1.957-1.499-2.9-2.268-.197-.161-.488-.131-.65.067-.16.198-.131.49.067.651zm7.523 5.525c1.023.677 2.068 1.342 3.136 1.995.218.133.502.065.635-.154.133-.218.065-.503-.153-.636-1.058-.647-2.094-1.306-3.108-1.977-.213-.141-.5-.082-.64.13-.141.214-.083.501.13.642zm7.891 4.742c1.076.587 2.171 1.163 3.287 1.728.228.115.506.024.621-.204.115-.228.024-.507-.204-.622-1.107-.561-2.194-1.133-3.262-1.715-.224-.122-.505-.04-.627.185s-.04.506.185.628zm8.316 4.136c1.137.514 2.273 1.006 3.409 1.476.236.098.506-.014.604-.25.097-.237-.015-.507-.25-.605-1.127-.467-2.254-.955-3.383-1.465-.233-.105-.506-.001-.611.232-.105.233-.002.507.231.612zm8.608 3.484c1.174.42 2.347.817 3.518 1.191.244.078.504-.057.581-.3.078-.244-.057-.505-.3-.582-1.162-.37-2.324-.764-3.488-1.18-.24-.087-.505.039-.591.28-.086.24.04.505.28.591zm8.875 2.742c1.206.313 2.411.602 3.615.866.25.054.496-.104.55-.353.055-.25-.103-.497-.352-.552-1.192-.261-2.386-.547-3.58-.858-.248-.064-.5.085-.564.332-.064.248.084.5.331.565zm9.11 1.903c1.228.193 2.455.362 3.682.504.253.03.483-.152.512-.406.03-.254-.152-.484-.406-.514-1.213-.14-2.428-.307-3.644-.5-.253-.039-.49.134-.529.386-.04.253.132.49.385.53zm9.224.974c1.24.066 2.478.105 3.716.118.255.003.464-.202.467-.458.003-.256-.202-.465-.457-.468-1.225-.013-2.45-.052-3.677-.117-.255-.014-.473.182-.487.438-.013.255.183.473.438.487zm9.305-.003c1.237-.067 2.473-.16 3.708-.28.254-.024.44-.25.415-.505-.024-.255-.25-.441-.504-.416-1.222.118-2.445.21-3.669.277-.255.013-.45.231-.437.487.014.255.232.45.487.437zm9.265-1c1.22-.198 2.439-.422 3.656-.672.25-.05.412-.296.36-.546-.05-.25-.295-.412-.545-.36-1.205.247-2.412.468-3.619.664-.252.041-.423.279-.382.531.04.253.278.424.53.383zm9.11-1.968c1.19-.321 2.38-.668 3.568-1.04.243-.076.38-.335.303-.58-.076-.244-.335-.38-.579-.303-1.177.368-2.354.711-3.533 1.03-.246.066-.392.32-.326.567.067.247.32.393.567.326zm8.784-2.836c1.153-.433 2.304-.89 3.454-1.37.236-.098.347-.37.249-.605-.099-.236-.37-.348-.605-.25-1.14.477-2.28.93-3.422 1.358-.24.09-.36.357-.27.597.089.239.355.36.594.27z" transform="translate(60.093 62.037)"/>
            <g>
                <g fill="#FEDD00">
                    <path d="M0 7.628L21.49 0c1.885.726 3.393 1.453 4.524 2.18 1.131.726 2.074 1.452 2.828 2.179L3.393 14.166c-.754-.363-1.508-1.09-2.262-2.179C.377 10.897 0 9.444 0 7.628zM5.655 15.256L29.973 5.45c.562.48.939.843 1.13 1.09.193.246.381.61.566 1.09L7.917 17.435c-.417-.104-.794-.285-1.13-.545-.338-.26-.715-.805-1.132-1.635z" transform="translate(60.093 62.037) scale(1 -1) rotate(22 389.353 124.41) translate(10.588 14.89)"/>
                </g>
                <path fill="#F1A11F" d="M20.022 33.18c10.85 2.818 22.631 1.78 24.62-5.414.72-2.602 1.846-7.02.535-10.373C42.863 11.47 36.16 6.68 29.121 5.463 14.135 2.87 9.854 7.538 7.713 9.613c-1.748 1.693-2.075 4.05-2.676 6.224-1.99 7.193 4.136 14.526 14.985 17.344z" transform="translate(60.093 62.037) scale(1 -1) rotate(22 389.353 124.41)"/>
                <path fill="#FEE600" d="M20.022 37.102c10.85 2.817 22.17-1.217 24.16-8.41 1.989-7.195-5.194-15.31-16.044-18.127-10.85-2.818-22.183.671-24.172 7.865-1.989 7.194 5.207 15.854 16.056 18.672z" transform="translate(60.093 62.037) scale(1 -1) rotate(22 389.353 124.41)"/>
                <g>
                    <path fill="#EFA71F" d="M17.036 28.117c9.288 2.477 18.88-.537 21.037-7.515 2.158-6.978-3.776-12.883-13.485-15.567-9.71-2.684-19.308.021-21.037 6.441-1.729 6.42 4.197 14.164 13.485 16.641z" transform="translate(60.093 62.037) scale(1 -1) rotate(22 389.353 124.41) translate(3.764 6.84)"/>
                    <path fill="#FDC010" d="M18.46 27.376c10.789 2.147 17.8-2.147 19.42-7.515 1.617-5.368-3.628-12.157-13.292-14.826-9.664-2.67-18.468-.554-20.152 5.7-1.684 6.256 3.236 14.494 14.025 16.641z" transform="translate(60.093 62.037) scale(1 -1) rotate(22 389.353 124.41) translate(3.764 6.84)"/>
                </g>
                <g fill="#FEDD00">
                    <path d="M0 7.628L21.49 0c1.885.726 3.393 1.453 4.524 2.18 1.131.726 2.074 1.452 2.828 2.179L3.393 14.166c-.754-.363-1.508-1.09-2.262-2.179C.377 10.897 0 9.444 0 7.628zM5.655 15.256L29.973 5.45c.562.48.939.843 1.13 1.09.193.246.381.61.566 1.09L7.917 17.435c-.417-.104-.794-.285-1.13-.545-.338-.26-.715-.805-1.132-1.635z" transform="translate(60.093 62.037) scale(1 -1) rotate(22 389.353 124.41) translate(10.588 14.89)"/>
                </g>
                <path fill="#FFF" d="M33.077 26.475c-.452 1.809-.983 2.971-1.594 3.487-.611.515-1.852.847-3.721.996 1.827.414 3.067.913 3.72 1.494.654.582 1.186 1.745 1.595 3.488.439-1.74.97-2.902 1.595-3.488.625-.585 1.865-1.083 3.721-1.494-1.803-.093-3.043-.425-3.72-.996-.678-.572-1.21-1.734-1.596-3.487z" transform="translate(60.093 62.037) scale(1 -1) rotate(22 389.353 124.41)"/>
            </g>
            <path fill="#FDC010" d="M142.836 93.703L139.304 95.147 139.584 91.336 137.121 88.418 140.826 87.507 142.836 84.259 144.846 87.507 148.551 88.418 146.088 91.336 146.368 95.147z" transform="translate(60.093 62.037)"/>
            <path fill="#FDC010" fill-rule="nonzero" d="M177.993 95.673L178.001 97.425 174.005 97.406 174.024 101.383 172.282 101.375 172.263 97.398 168.267 97.379 168.258 95.627 172.255 95.646 172.236 91.669 173.977 91.678 173.996 95.654z" transform="translate(60.093 62.037) rotate(-31 173.13 96.526)"/>
            <path fill="#FDC010" fill-rule="nonzero" d="M27.767 5.825L27.775 7.577 23.778 7.558 23.797 11.534 22.056 11.526 22.037 7.549 18.04 7.53 18.032 5.778 22.029 5.797 22.01 1.821 23.751 1.829 23.77 5.806z" transform="translate(60.093 62.037) rotate(-31 22.903 6.678)"/>
        </g>
        <path fill="#005960" fill-rule="nonzero" d="M111.67 132.064c1.242-.109 2.469-.201 3.681-.279.255-.016.448-.236.432-.49-.016-.256-.236-.45-.49-.434-1.22.078-2.454.171-3.703.28-.254.023-.442.247-.42.502.022.255.246.443.5.421zm9.203-.523c1.245-.03 2.472-.043 3.683-.037.256.001.464-.205.465-.46 0-.257-.205-.465-.46-.466-1.22-.006-2.457.007-3.71.037-.256.006-.458.219-.452.474.007.256.219.458.474.452zm9.218.12c1.243.066 2.466.153 3.67.26.254.022.479-.166.501-.42.023-.255-.165-.48-.419-.502-1.215-.109-2.45-.196-3.703-.263-.255-.013-.472.183-.486.438-.014.255.182.473.437.487zm9.157.912c1.231.185 2.44.393 3.625.626.251.05.494-.114.543-.365.049-.251-.114-.494-.365-.543-1.2-.236-2.421-.447-3.666-.634-.253-.038-.488.137-.526.39-.038.252.136.488.389.526zm8.985 1.882c1.197.33 2.369.687 3.514 1.07.243.082.505-.049.586-.291.08-.242-.05-.505-.292-.586-1.162-.39-2.35-.752-3.563-1.085-.247-.068-.5.077-.569.323-.067.247.078.502.324.57zm8.661 3.06c1.131.498 2.233 1.028 3.305 1.589.226.118.506.03.624-.196.118-.227.03-.506-.196-.625-1.09-.57-2.21-1.109-3.36-1.616-.234-.103-.507.003-.61.237-.103.234.003.507.237.61zm8.067 4.41c1.021.684 2.011 1.4 2.97 2.15.2.158.491.122.648-.08.157-.201.122-.492-.08-.65-.976-.764-1.985-1.494-3.025-2.19-.212-.141-.5-.084-.641.129-.142.212-.085.5.128.642zm7.072 5.754c.869.856 1.706 1.746 2.511 2.67.168.193.46.212.653.044.192-.168.212-.46.044-.653-.821-.942-1.674-1.849-2.56-2.72-.182-.18-.475-.178-.654.005-.179.182-.176.475.006.654zm5.899 7.026c.69.996 1.352 2.026 1.983 3.087.13.22.414.292.634.161.219-.13.29-.415.16-.635-.642-1.08-1.314-2.127-2.018-3.142-.145-.21-.433-.262-.643-.116-.21.146-.262.434-.116.645zm4.57 7.975c.514 1.095 1.002 2.22 1.462 3.372.095.238.364.353.6.258.238-.095.353-.364.258-.602-.467-1.17-.961-2.31-1.483-3.422-.109-.231-.384-.33-.615-.222-.231.109-.33.385-.222.616zm3.305 8.604c.357 1.156.69 2.337 1 3.543.063.248.315.397.562.333.248-.063.397-.316.333-.563-.313-1.22-.65-2.416-1.011-3.586-.076-.244-.335-.381-.578-.306-.244.076-.381.335-.306.58zm2.202 8.969c.123.65.239 1.305.35 1.967.041.252.28.423.531.38.252-.042.422-.28.38-.532-.111-.669-.229-1.331-.352-1.987-.048-.251-.29-.416-.54-.369-.251.047-.416.29-.369.54z"/>
        <g transform="translate(84.13 77.778)">
            <ellipse cx="23.499" cy="30.309" fill="#BBB" rx="11.356" ry="16.464" transform="rotate(-47 23.499 30.309)"/>
            <g>
                <g fill="#FEDD00">
                    <path d="M0 5.861L18.347 0c1.61.558 2.897 1.116 3.863 1.675.965.558 1.77 1.116 2.414 1.674L2.897 10.885c-.644-.279-1.288-.837-1.931-1.674C.322 8.373 0 7.257 0 5.86zM4.828 11.722L25.59 4.187c.48.368.802.647.966.837.164.19.325.468.483.837L6.759 13.397c-.355-.08-.677-.219-.965-.419-.288-.2-.61-.618-.966-1.256z" transform="rotate(-159 23.891 20.497) translate(7.89 13.569)"/>
                </g>
                <path fill="#F1A11F" d="M16.484 27.443c8.932 2.33 18.63 1.471 20.268-4.479.592-2.151 1.52-5.805.44-8.579-1.904-4.898-7.423-8.859-13.218-9.866C11.637 2.374 8.112 6.235 6.35 7.95 4.91 9.35 4.64 11.3 4.147 13.098c-1.638 5.95 3.405 12.015 12.337 14.345z" transform="rotate(-159 23.891 20.497)"/>
                <path fill="#FEE600" d="M16.484 30.686c8.932 2.33 18.252-1.006 19.89-6.956 1.637-5.95-4.277-12.662-13.209-14.992-8.932-2.33-18.262.555-19.9 6.505-1.637 5.95 4.287 13.113 13.219 15.443z" transform="rotate(-159 23.891 20.497)"/>
                <g>
                    <path fill="#EFA71F" d="M14.025 23.148c7.647 2.039 15.543-.442 17.32-6.187 1.775-5.745-3.11-10.606-11.103-12.816-7.993-2.21-15.895.018-17.319 5.303-1.423 5.286 3.456 11.66 11.102 13.7z" transform="rotate(-159 23.891 20.497) translate(3.669 5.961)"/>
                    <path fill="#FDC010" d="M15.198 22.538c8.881 1.768 14.654-1.768 15.986-6.187 1.333-4.42-2.986-10.008-10.942-12.206C12.286 1.947 5.04 3.69 3.652 8.838c-1.387 5.15 2.664 11.932 11.546 13.7z" transform="rotate(-159 23.891 20.497) translate(3.669 5.961)"/>
                </g>
                <g fill="#FEDD00">
                    <path d="M0 5.861L18.347 0c1.61.558 2.897 1.116 3.863 1.675.965.558 1.77 1.116 2.414 1.674L2.897 10.885c-.644-.279-1.288-.837-1.931-1.674C.322 8.373 0 7.257 0 5.86zM4.828 11.722L25.59 4.187c.48.368.802.647.966.837.164.19.325.468.483.837L6.759 13.397c-.355-.08-.677-.219-.965-.419-.288-.2-.61-.618-.966-1.256z" transform="rotate(-159 23.891 20.497) translate(7.89 13.569)"/>
                </g>
                <path fill="#FFF" d="M27.204 21.132c-.338 1.52-.735 2.498-1.192 2.93-.456.434-1.383.713-2.78.838 1.365.348 2.292.767 2.78 1.256.489.49.886 1.466 1.192 2.93.327-1.461.724-2.438 1.191-2.93.467-.492 1.393-.91 2.78-1.256-1.347-.078-2.274-.357-2.78-.837-.506-.48-.903-1.457-1.191-2.93z" transform="rotate(-159 23.891 20.497)"/>
            </g>
        </g>
        <g>
            <g transform="rotate(-36 241.925 -164.2) rotate(-90 37.26 27.353)">
                <use fill="#000" filter="url(#u3qzh3rspc)" xlink:href="#t47nye8ufd"/>
                <use fill="#00A7A7" xlink:href="#t47nye8ufd"/>
            </g>
            <g transform="rotate(-36 241.925 -164.2) matrix(0 -1 -1 0 28.536 28.536)">
                <use fill="#000" filter="url(#6a71vn2d9e)" xlink:href="#v5ijecwhwf"/>
                <use fill="#00A7A7" xlink:href="#v5ijecwhwf"/>
            </g>
        </g>
    </g>
</svg>
