<svg xmlns="http://www.w3.org/2000/svg" xmlns:xlink="http://www.w3.org/1999/xlink" width="600" height="300" viewBox="0 0 600 300">
    <defs>
        <filter id="j9zh9j2lhb">
            <feColorMatrix in="SourceGraphic" values="0 0 0 0 0.000000 0 0 0 0 0.788235 0 0 0 0 0.764706 0 0 0 1.000000 0"/>
        </filter>
        <filter id="bzwrn92o7e">
            <feColorMatrix in="SourceGraphic" values="0 0 0 0 0.121569 0 0 0 0 0.341176 0 0 0 0 0.631373 0 0 0 1.000000 0"/>
        </filter>
        <filter id="gmwgesmuvg" width="139.3%" height="222.2%" x="-19.6%" y="-61.1%" filterUnits="objectBoundingBox">
            <feOffset dy="6" in="SourceAlpha" result="shadowOffsetOuter1"/>
            <feGaussianBlur in="shadowOffsetOuter1" result="shadowBlurOuter1" stdDeviation="4"/>
            <feColorMatrix in="shadowBlurOuter1" result="shadowMatrixOuter1" values="0 0 0 0 0.828464674 0 0 0 0 0.828464674 0 0 0 0 0.828464674 0 0 0 0.5 0"/>
            <feMerge>
                <feMergeNode in="shadowMatrixOuter1"/>
                <feMergeNode in="SourceGraphic"/>
            </feMerge>
        </filter>
        <path id="q5f8vosi8a" d="M550 0L550 180 0 181.2 0 105.6z"/>
        <path id="szw1chnaqd" d="M550 6.6L550 80.4 0 80.4 0 0z"/>
    </defs>
    <g fill="none" fill-rule="evenodd">
        <g>
            <g>
                <g>
                    <g>
                        <g>
                            <g>
                                <path fill="#FFF" d="M0 0H600V300H0z" transform="translate(-213 -1234) translate(123 649) translate(0 50) translate(20 30) translate(0 435) translate(70 70)"/>
                                <g fill-rule="nonzero" stroke="#E7E7E7" stroke-linecap="square">
                                    <path d="M600 31.5L0 31.5M600 62.5L0 62.5M600 .5L0 .5M600 155.5L0 155.5M600 124.5L0 124.5M600 93.5L0 93.5" transform="translate(-213 -1234) translate(123 649) translate(0 50) translate(20 30) translate(0 435) translate(70 70) translate(0 37.2)"/>
                                </g>
                                <path fill="#5E5E5E" fill-rule="nonzero" d="M552.862 246.663c1.005 0 1.805-.234 2.399-.702.593-.468.89-1.105.89-1.91 0-.573-.145-1.054-.435-1.444-.29-.39-.709-.659-1.255-.806.46-.173.817-.448 1.072-.825.256-.377.388-.822.397-1.333 0-.745-.27-1.341-.813-1.787-.541-.447-1.267-.67-2.177-.67-.598 0-1.18.098-1.749.293-.567.195-1.037.457-1.41.786l.559 1.222c.832-.641 1.664-.962 2.496-.962.468 0 .832.113 1.092.338.26.225.39.55.39.975 0 .91-.598 1.365-1.794 1.365h-1.001v1.34h1.222c.615 0 1.07.11 1.365.33.295.222.442.566.442 1.034 0 .477-.145.832-.436 1.066-.29.234-.73.351-1.319.351-.901 0-1.764-.32-2.587-.962l-.572 1.222c.373.338.847.602 1.423.793.577.19 1.177.286 1.801.286zm7.725.013c1.1 0 1.94-.407 2.516-1.222.576-.815.864-1.993.864-3.536 0-1.534-.288-2.702-.864-3.503-.577-.802-1.415-1.203-2.516-1.203-1.1 0-1.939.403-2.515 1.21-.577.805-.865 1.97-.865 3.496 0 1.551.288 2.732.865 3.543.576.81 1.415 1.215 2.515 1.215zm0-1.313c-.598 0-1.033-.275-1.306-.825-.273-.55-.41-1.424-.41-2.62 0-1.179.137-2.039.41-2.58.273-.542.708-.813 1.306-.813.598 0 1.034.27 1.307.813.273.541.41 1.401.41 2.58 0 1.196-.137 2.07-.41 2.62-.273.55-.709.825-1.307.825zm7.703 4.16c.788-.121 1.451-.368 1.989-.74.537-.374.98-.967 1.326-1.782l3.055-7.007h-1.612l-1.924 4.72-1.885-4.72h-1.703l2.73 6.331-.208.481c-.19.416-.44.73-.748.943-.307.212-.769.387-1.384.526l.364 1.248zm9.948-2.86c.468 0 .93-.076 1.384-.227.456-.152.839-.354 1.151-.605l-.468-1.118c-.615.468-1.283.702-2.002.702-.624 0-1.094-.167-1.41-.5-.317-.334-.492-.852-.527-1.554h4.524v-.247c0-1.023-.262-1.826-.786-2.411-.525-.585-1.238-.878-2.139-.878-.615 0-1.166.145-1.651.436-.485.29-.862.695-1.131 1.215-.269.52-.403 1.114-.403 1.781 0 1.057.308 1.89.923 2.496.615.607 1.46.91 2.535.91zm1.235-4.173h-3.055c.078-.485.254-.856.526-1.111.274-.256.627-.384 1.06-.384.433 0 .774.126 1.02.377.247.251.397.624.449 1.118zm5.1 4.173c.476 0 .9-.102 1.273-.305.373-.204.659-.488.858-.852v1.053h1.6v-6.565h-1.6v.988c-.2-.364-.485-.648-.858-.851-.372-.204-.797-.306-1.274-.306-.563 0-1.066.145-1.508.436-.442.29-.786.697-1.033 1.222-.247.524-.37 1.124-.37 1.8 0 .676.12 1.27.363 1.781.243.511.585.906 1.027 1.183.442.277.95.416 1.521.416zm.441-1.274c-.546 0-.968-.182-1.267-.546-.3-.364-.449-.884-.449-1.56 0-.685.15-1.22.449-1.605.299-.386.717-.579 1.254-.579.546 0 .967.186 1.261.56.295.372.442.905.442 1.598 0 .676-.147 1.2-.442 1.573-.294.373-.71.56-1.248.56zm6.425 1.17v-3.549c0-.529.146-.953.436-1.274.29-.32.713-.48 1.268-.48.294 0 .58.055.857.168l.014-1.482c-.183-.07-.4-.104-.65-.104-.451 0-.854.113-1.21.338-.355.225-.615.55-.78.975l-.13-1.157h-1.52c.069.546.103 1.166.103 1.86v4.705h1.612zm5.58.104c.841 0 1.504-.178 1.99-.533.485-.355.728-.836.728-1.443 0-.494-.15-.895-.449-1.202-.299-.308-.773-.536-1.423-.683l-1.118-.247c-.304-.078-.518-.173-.644-.286-.125-.113-.188-.264-.188-.455 0-.243.104-.433.312-.572.208-.139.498-.208.87-.208.694 0 1.37.243 2.029.728l.48-1.105c-.329-.269-.71-.474-1.143-.617-.434-.143-.884-.215-1.352-.215-.538 0-1.01.087-1.417.26-.408.173-.724.414-.95.722-.225.307-.337.66-.337 1.06 0 .961.598 1.572 1.794 1.832l1.092.247c.355.087.606.189.754.306.147.117.22.275.22.474 0 .234-.105.416-.318.546-.212.13-.513.195-.903.195-.902 0-1.703-.26-2.405-.78l-.455 1.144c.702.555 1.646.832 2.834.832zM52.145 246.284v-7.45l5.59 7.45h.832v-9.256h-1.014v7.448l-5.59-7.448h-.819v9.256h1.001zm11.027.09c.616 0 1.157-.138 1.625-.416.468-.277.83-.671 1.086-1.183.255-.51.383-1.109.383-1.793 0-.685-.128-1.283-.383-1.794-.256-.512-.618-.906-1.086-1.183-.468-.278-1.01-.416-1.625-.416s-1.157.138-1.625.416c-.468.277-.83.671-1.085 1.183-.256.51-.384 1.109-.384 1.794 0 .684.128 1.282.384 1.793.255.512.617.906 1.085 1.183.468.278 1.01.417 1.625.417zm0-.87c-.65 0-1.15-.215-1.501-.644-.351-.429-.527-1.055-.527-1.879 0-.797.178-1.414.533-1.852.356-.438.854-.656 1.495-.656.633 0 1.127.218 1.482.656.356.438.533 1.055.533 1.853 0 .823-.173 1.449-.52 1.878-.346.429-.845.643-1.495.643zm7.18.78l1.858-5.11 1.873 5.11h1.014l2.418-6.54h-1.04l-1.885 5.292-1.886-5.292h-.922l-1.911 5.279-1.846-5.279h-1.106l2.419 6.54h1.014z" transform="translate(-213 -1234) translate(123 649) translate(0 50) translate(20 30) translate(0 435) translate(70 70)"/>
                                <g transform="translate(-213 -1234) translate(123 649) translate(0 50) translate(20 30) translate(0 435) translate(70 70) translate(50 43.2)">
                                    <mask id="33eho53x8c" fill="#fff">
                                        <use xlink:href="#q5f8vosi8a"/>
                                    </mask>
                                    <g filter="url(#j9zh9j2lhb)" opacity=".8">
                                        <g mask="url(#33eho53x8c)">
                                            <g fill="#00C9C3" fill-rule="nonzero">
                                                <path d="M552.157 0L552.157 223.2 532.745 223.2 532.745 0zM524.118 0L524.118 223.2 504.706 223.2 504.706 0zM496.078 0L496.078 223.2 476.667 223.2 476.667 0zM468.039 0L468.039 223.2 448.627 223.2 448.627 0zM440 0L440 223.2 420.588 223.2 420.588 0zM411.961 0L411.961 223.2 392.549 223.2 392.549 0zM383.922 0L383.922 223.2 364.51 223.2 364.51 0zM355.882 0L355.882 223.2 336.471 223.2 336.471 0zM327.843 0L327.843 223.2 308.431 223.2 308.431 0zM299.804 0L299.804 223.2 280.392 223.2 280.392 0zM271.765 0L271.765 223.2 252.353 223.2 252.353 0zM243.725 0L243.725 223.2 224.314 223.2 224.314 0zM215.686 0L215.686 223.2 196.275 223.2 196.275 0zM187.647 0L187.647 223.2 168.235 223.2 168.235 0zM159.608 0L159.608 223.2 140.196 223.2 140.196 0zM131.569 0L131.569 223.2 112.157 223.2 112.157 0zM103.529 0L103.529 223.2 84.118 223.2 84.118 0zM75.49 0L75.49 223.2 56.078 223.2 56.078 0zM47.451 0L47.451 223.2 28.039 223.2 28.039 0zM19.412 0L19.412 223.2 0 223.2 0 0z" transform="translate(0 -42)"/>
                                            </g>
                                        </g>
                                    </g>
                                </g>
                                <g transform="translate(-213 -1234) translate(123 649) translate(0 50) translate(20 30) translate(0 435) translate(70 70) matrix(-1 0 0 1 600 144)">
                                    <mask id="ry6x1wgcgf" fill="#fff">
                                        <use xlink:href="#szw1chnaqd"/>
                                    </mask>
                                    <g filter="url(#bzwrn92o7e)">
                                        <g mask="url(#ry6x1wgcgf)">
                                            <g fill="#00C9C3" fill-rule="nonzero">
                                                <path d="M552.157 0L552.157 223.2 532.745 223.2 532.745 0zM524.118 0L524.118 223.2 504.706 223.2 504.706 0zM496.078 0L496.078 223.2 476.667 223.2 476.667 0zM468.039 0L468.039 223.2 448.627 223.2 448.627 0zM440 0L440 223.2 420.588 223.2 420.588 0zM411.961 0L411.961 223.2 392.549 223.2 392.549 0zM383.922 0L383.922 223.2 364.51 223.2 364.51 0zM355.882 0L355.882 223.2 336.471 223.2 336.471 0zM327.843 0L327.843 223.2 308.431 223.2 308.431 0zM299.804 0L299.804 223.2 280.392 223.2 280.392 0zM271.765 0L271.765 223.2 252.353 223.2 252.353 0zM243.725 0L243.725 223.2 224.314 223.2 224.314 0zM215.686 0L215.686 223.2 196.275 223.2 196.275 0zM187.647 0L187.647 223.2 168.235 223.2 168.235 0zM159.608 0L159.608 223.2 140.196 223.2 140.196 0zM131.569 0L131.569 223.2 112.157 223.2 112.157 0zM103.529 0L103.529 223.2 84.118 223.2 84.118 0zM75.49 0L75.49 223.2 56.078 223.2 56.078 0zM47.451 0L47.451 223.2 28.039 223.2 28.039 0zM19.412 0L19.412 223.2 0 223.2 0 0z" transform="translate(-2.157 -141.6)"/>
                                            </g>
                                        </g>
                                    </g>
                                </g>
                                <g filter="url(#gmwgesmuvg)" transform="translate(-213 -1234) translate(123 649) translate(0 50) translate(20 30) translate(0 435) translate(70 70) translate(435 4)">
                                    <path fill="#FFF" stroke="#E7E7E7" d="M2 0h136c1.105 0 2 .895 2 2v41c0 1.105-.895 2-2 2H2c-1.105 0-2-.895-2-2V2C0 .895.895 0 2 0z"/>
                                    <path fill="#5E5E5E" fill-rule="nonzero" d="M12.04 18v-3.756h2.424c.872 0 1.556-.214 2.052-.642.496-.428.744-1.014.744-1.758s-.246-1.328-.738-1.752c-.492-.424-1.178-.636-2.058-.636h-3.408V18h.984zm2.34-4.572h-2.34v-3.156h2.34c.632 0 1.108.134 1.428.402.32.268.48.658.48 1.17 0 .512-.16.904-.48 1.176-.32.272-.796.408-1.428.408zM19.375 18v-3.444c0-.52.142-.962.426-1.326.284-.364.718-.546 1.302-.546.24 0 .452.032.636.096l.024-.888c-.168-.048-.352-.072-.552-.072-.432 0-.816.108-1.152.324-.336.216-.58.528-.732.936l-.096-1.116h-.924c.064.504.096 1.068.096 1.692V18h.972zm5.523.084c.568 0 1.068-.128 1.5-.384.432-.256.766-.62 1.002-1.092.236-.472.354-1.024.354-1.656 0-.632-.118-1.184-.354-1.656s-.57-.836-1.002-1.092c-.432-.256-.932-.384-1.5-.384s-1.068.128-1.5.384c-.432.256-.766.62-1.002 1.092-.236.472-.354 1.024-.354 1.656 0 .632.118 1.184.354 1.656s.57.836 1.002 1.092c.432.256.932.384 1.5.384zm0-.804c-.6 0-1.062-.198-1.386-.594-.324-.396-.486-.974-.486-1.734 0-.736.164-1.306.492-1.71.328-.404.788-.606 1.38-.606.584 0 1.04.202 1.368.606.328.404.492.974.492 1.71 0 .76-.16 1.338-.48 1.734-.32.396-.78.594-1.38.594zm5.223-6.768V9.408h-1.188v1.104h1.188zM28.237 20.64c.552 0 .986-.162 1.302-.486.316-.324.474-.802.474-1.434v-6.756h-.972V18.6c0 .8-.336 1.2-1.008 1.2-.176 0-.372-.032-.588-.096v.828c.264.072.528.108.792.108zm6.099-2.556c.432 0 .854-.072 1.266-.216.412-.144.75-.34 1.014-.588l-.324-.708c-.592.472-1.24.708-1.944.708-.664 0-1.17-.196-1.518-.588-.348-.392-.526-.972-.534-1.74h4.428v-.18c0-.92-.228-1.642-.684-2.166-.456-.524-1.084-.786-1.884-.786-.552 0-1.044.132-1.476.396-.432.264-.768.634-1.008 1.11-.24.476-.36 1.022-.36 1.638 0 .968.268 1.73.804 2.286s1.276.834 2.22.834zm1.512-3.768h-3.516c.088-.552.29-.98.606-1.284.316-.304.726-.456 1.23-.456s.898.148 1.182.444c.284.296.45.728.498 1.296zm4.659 3.768c.416 0 .818-.07 1.206-.21.388-.14.71-.33.966-.57l-.324-.72c-.304.24-.598.416-.882.528-.284.112-.574.168-.87.168-.624 0-1.11-.202-1.458-.606-.348-.404-.522-.97-.522-1.698 0-.736.176-1.31.528-1.722.352-.412.836-.618 1.452-.618.296 0 .586.056.87.168.284.112.578.288.882.528l.324-.72c-.248-.248-.562-.442-.942-.582-.38-.14-.774-.21-1.182-.21-.592 0-1.11.132-1.554.396-.444.264-.786.634-1.026 1.11-.24.476-.36 1.026-.36 1.65 0 .624.118 1.17.354 1.638.236.468.572.83 1.008 1.086.436.256.946.384 1.53.384zm5.355 0c.312 0 .592-.04.84-.12v-.828c-.208.072-.424.108-.648.108-.336 0-.596-.09-.78-.27-.184-.18-.276-.494-.276-.942v-3.3h1.728v-.768h-1.728v-1.896l-.972.348v1.548H42.85v.768h1.176v3.432c0 .632.162 1.11.486 1.434.324.324.774.486 1.35.486zm4.479 0c.432 0 .854-.072 1.266-.216.412-.144.75-.34 1.014-.588l-.324-.708c-.592.472-1.24.708-1.944.708-.664 0-1.17-.196-1.518-.588-.348-.392-.526-.972-.534-1.74h4.428v-.18c0-.92-.228-1.642-.684-2.166-.456-.524-1.084-.786-1.884-.786-.552 0-1.044.132-1.476.396-.432.264-.768.634-1.008 1.11-.24.476-.36 1.022-.36 1.638 0 .968.268 1.73.804 2.286s1.276.834 2.22.834zm1.512-3.768h-3.516c.088-.552.29-.98.606-1.284.316-.304.726-.456 1.23-.456s.898.148 1.182.444c.284.296.45.728.498 1.296zm4.443 3.768c.472 0 .886-.102 1.242-.306.356-.204.622-.494.798-.87V18h.96V9.168h-.972v3.816c-.176-.368-.44-.654-.792-.858-.352-.204-.764-.306-1.236-.306-.528 0-.996.128-1.404.384-.408.256-.722.618-.942 1.086-.22.468-.33 1.014-.33 1.638 0 .624.112 1.174.336 1.65.224.476.538.846.942 1.11.404.264.87.396 1.398.396zm.192-.804c-.592 0-1.054-.206-1.386-.618-.332-.412-.498-.99-.498-1.734 0-.728.166-1.292.498-1.692.332-.4.794-.6 1.386-.6.592 0 1.048.202 1.368.606.32.404.48.974.48 1.71 0 .744-.16 1.318-.48 1.722-.32.404-.776.606-1.368.606zm10.554.72v-7.704h2.976v-.84H63.07v.84h2.976V18h.996zm5.403.084c.568 0 1.068-.128 1.5-.384.432-.256.766-.62 1.002-1.092.236-.472.354-1.024.354-1.656 0-.632-.118-1.184-.354-1.656s-.57-.836-1.002-1.092c-.432-.256-.932-.384-1.5-.384s-1.068.128-1.5.384c-.432.256-.766.62-1.002 1.092-.236.472-.354 1.024-.354 1.656 0 .632.118 1.184.354 1.656s.57.836 1.002 1.092c.432.256.932.384 1.5.384zm0-.804c-.6 0-1.062-.198-1.386-.594-.324-.396-.486-.974-.486-1.734 0-.736.164-1.306.492-1.71.328-.404.788-.606 1.38-.606.584 0 1.04.202 1.368.606.328.404.492.974.492 1.71 0 .76-.16 1.338-.48 1.734-.32.396-.78.594-1.38.594zm6.291.804c.312 0 .592-.04.84-.12v-.828c-.208.072-.424.108-.648.108-.336 0-.596-.09-.78-.27-.184-.18-.276-.494-.276-.942v-3.3H79.6v-.768h-1.728v-1.896l-.972.348v1.548h-1.176v.768H76.9v3.432c0 .632.162 1.11.486 1.434.324.324.774.486 1.35.486zm4.131 0c.472 0 .886-.102 1.242-.306.356-.204.622-.494.798-.87V18h.96v-6.036h-.96v1.044c-.184-.376-.452-.668-.804-.876-.352-.208-.764-.312-1.236-.312-.528 0-.994.132-1.398.396-.404.264-.718.634-.942 1.11-.224.476-.336 1.026-.336 1.65 0 .624.11 1.17.33 1.638.22.468.532.83.936 1.086.404.256.874.384 1.41.384zm.192-.804c-.6 0-1.064-.2-1.392-.6-.328-.4-.492-.968-.492-1.704s.166-1.31.498-1.722c.332-.412.794-.618 1.386-.618.592 0 1.048.2 1.368.6.32.4.48.972.48 1.716s-.16 1.318-.48 1.722c-.32.404-.776.606-1.368.606zm5.439.72V9.168h-.972V18h.972zm8.25 0l3.732-8.544h-1.02l-3.132 7.296-3.132-7.296h-1.044L95.884 18h.864zm6.087.084c.472 0 .886-.102 1.242-.306.356-.204.622-.494.798-.87V18h.96v-6.036h-.96v1.044c-.184-.376-.452-.668-.804-.876-.352-.208-.764-.312-1.236-.312-.528 0-.994.132-1.398.396-.404.264-.718.634-.942 1.11-.224.476-.336 1.026-.336 1.65 0 .624.11 1.17.33 1.638.22.468.532.83.936 1.086.404.256.874.384 1.41.384zm.192-.804c-.6 0-1.064-.2-1.392-.6-.328-.4-.492-.968-.492-1.704s.166-1.31.498-1.722c.332-.412.794-.618 1.386-.618.592 0 1.048.2 1.368.6.32.4.48.972.48 1.716s-.16 1.318-.48 1.722c-.32.404-.776.606-1.368.606zm5.439.72V9.168h-.972V18h.972zm3.795.084c.432 0 .82-.096 1.164-.288.344-.192.612-.472.804-.84V18h.948v-6.036h-.972v3.408c0 .568-.164 1.026-.492 1.374-.328.348-.76.522-1.296.522-.456 0-.796-.128-1.02-.384-.224-.256-.336-.656-.336-1.2v-3.72h-.972v3.744c0 .784.184 1.376.552 1.776.368.4.908.6 1.62.6zm7.227 0c.432 0 .854-.072 1.266-.216.412-.144.75-.34 1.014-.588l-.324-.708c-.592.472-1.24.708-1.944.708-.664 0-1.17-.196-1.518-.588-.348-.392-.526-.972-.534-1.74h4.428v-.18c0-.92-.228-1.642-.684-2.166-.456-.524-1.084-.786-1.884-.786-.552 0-1.044.132-1.476.396-.432.264-.768.634-1.008 1.11-.24.476-.36 1.022-.36 1.638 0 .968.268 1.73.804 2.286s1.276.834 2.22.834zM121 14.316h-3.516c.088-.552.29-.98.606-1.284.316-.304.726-.456 1.23-.456s.898.148 1.182.444c.284.296.45.728.498 1.296z"/>
                                    <path fill="#000" fill-rule="nonzero" d="M15.752 38.856V37.08c1.003-.128 1.808-.483 2.416-1.064.608-.581.912-1.304.912-2.168 0-.65-.157-1.173-.472-1.568-.315-.395-.704-.696-1.168-.904-.464-.208-1.048-.397-1.752-.568v-3.936c.97.117 1.85.528 2.64 1.232l.592-1.232c-.384-.363-.85-.661-1.4-.896-.55-.235-1.139-.39-1.768-.464v-1.76h-1.344v1.76c-.672.075-1.27.264-1.792.568-.523.304-.93.693-1.224 1.168-.293.475-.44 1-.44 1.576 0 .683.163 1.235.488 1.656.325.421.73.739 1.216.952.485.213 1.096.416 1.832.608v3.728c-.587-.043-1.13-.165-1.632-.368-.501-.203-1.003-.507-1.504-.912l-.592 1.232c.939.832 2.155 1.296 3.648 1.392v1.744h1.344zm-1.264-8.368c-.597-.17-1.059-.387-1.384-.648-.325-.261-.488-.627-.488-1.096 0-.512.165-.933.496-1.264.33-.33.79-.539 1.376-.624v3.632zm1.2 5.232v-3.376c.565.17.995.373 1.288.608.293.235.44.55.44.944 0 .49-.15.893-.448 1.208-.299.315-.725.52-1.28.616zM28.28 37v-1.36h-5.376l3.04-3.28c.672-.725 1.152-1.384 1.44-1.976.288-.592.432-1.219.432-1.88 0-.928-.317-1.664-.952-2.208-.635-.544-1.496-.816-2.584-.816-.704 0-1.403.125-2.096.376-.693.25-1.264.584-1.712 1l.592 1.216c1.056-.832 2.112-1.248 3.168-1.248.63 0 1.11.152 1.44.456.33.304.496.744.496 1.32 0 .448-.115.899-.344 1.352-.23.453-.595.957-1.096 1.512l-3.92 4.304V37h7.472zm8.176 0v-2.368h1.68v-1.328h-1.68v-7.696h-1.328L29.72 33.4v1.232h5.104V37h1.632zm-1.632-3.696h-3.488l3.488-5.024v5.024zm8.512 3.808c.81 0 1.52-.155 2.128-.464.608-.31 1.075-.741 1.4-1.296.325-.555.488-1.2.488-1.936 0-.715-.147-1.347-.44-1.896-.293-.55-.71-.976-1.248-1.28-.539-.304-1.165-.456-1.88-.456-.896 0-1.648.256-2.256.768v-3.616h5.344v-1.328h-6.976v6.688h1.072c.619-.779 1.44-1.168 2.464-1.168.704 0 1.267.213 1.688.64.421.427.632.987.632 1.68 0 .725-.21 1.293-.632 1.704-.421.41-1.01.616-1.768.616-1.088 0-2.16-.416-3.216-1.248l-.576 1.216c.448.427 1.013.763 1.696 1.008s1.376.368 2.08.368zm6.304 1.872c.405-.405.693-.813.864-1.224.17-.41.256-.867.256-1.368V35.08h-1.92V37h.88c-.064.459-.32.933-.768 1.424l.688.56zM54.952 37l5.264-10.16v-1.232h-7.712v1.36h5.92L53.176 37h1.776zm14.64 0v-1.36h-2.496V25.608h-.96l-3.024 1.888v1.52l2.32-1.44v8.064h-2.496V37h6.656zm6.016.128c.715 0 1.355-.16 1.92-.48.565-.32 1.008-.76 1.328-1.32.32-.56.48-1.197.48-1.912 0-.715-.15-1.347-.448-1.896-.299-.55-.712-.976-1.24-1.28-.528-.304-1.133-.456-1.816-.456-.672 0-1.272.155-1.8.464-.528.31-.915.741-1.16 1.296v-.016c0-1.504.25-2.664.752-3.48.501-.816 1.216-1.224 2.144-1.224.981 0 1.973.416 2.976 1.248l.592-1.216c-.47-.448-1.021-.79-1.656-1.024-.635-.235-1.288-.352-1.96-.352-.939 0-1.747.24-2.424.72-.677.48-1.195 1.176-1.552 2.088-.357.912-.536 2.003-.536 3.272 0 1.792.381 3.168 1.144 4.128.763.96 1.848 1.44 3.256 1.44zm-.08-1.344c-.693 0-1.253-.216-1.68-.648-.427-.432-.64-.995-.64-1.688 0-.683.216-1.24.648-1.672.432-.432.984-.648 1.656-.648.672 0 1.21.213 1.616.64.405.427.608.987.608 1.68 0 .704-.203 1.27-.608 1.696-.405.427-.939.64-1.6.64z"/>
                                </g>
                                <g>
                                    <g fill-rule="nonzero" transform="translate(-213 -1234) translate(123 649) translate(0 50) translate(20 30) translate(0 435) translate(70 70) translate(10 274) translate(0 3)">
                                        <path fill="#9B9B9B" d="M27.459 10V1.654h3.224v-.91h-7.527v.91h3.224V10h1.079zm5.853.091c.616 0 1.157-.139 1.625-.416.468-.277.83-.672 1.086-1.183.255-.511.383-1.11.383-1.794 0-.685-.128-1.283-.383-1.794-.256-.511-.618-.906-1.086-1.183-.468-.277-1.01-.416-1.625-.416s-1.157.139-1.625.416c-.468.277-.83.672-1.085 1.183-.256.511-.384 1.11-.384 1.794 0 .685.128 1.283.384 1.794.255.511.617.906 1.085 1.183.468.277 1.01.416 1.625.416zm0-.871c-.65 0-1.15-.215-1.501-.644-.351-.428-.527-1.055-.527-1.878 0-.797.178-1.415.533-1.853.356-.437.854-.656 1.495-.656.633 0 1.127.219 1.482.657.356.437.533 1.055.533 1.852 0 .823-.173 1.45-.52 1.878-.346.43-.845.644-1.495.644zm6.816.871c.337 0 .64-.043.91-.13v-.897c-.226.078-.46.117-.702.117-.364 0-.646-.097-.846-.292-.199-.195-.299-.536-.299-1.021V4.293h1.872v-.832h-1.872V1.407l-1.053.377v1.677h-1.273v.832h1.273v3.718c0 .685.176 1.203.527 1.554.351.35.839.526 1.462.526zm4.475 0c.511 0 .96-.11 1.345-.332.386-.22.674-.535.865-.942V10h1.04V3.461h-1.04v1.131c-.2-.407-.49-.724-.871-.949-.382-.225-.828-.338-1.34-.338-.571 0-1.076.143-1.514.429-.437.286-.778.687-1.02 1.202-.243.516-.364 1.112-.364 1.788 0 .676.119 1.268.357 1.774.239.508.577.9 1.014 1.177.438.277.947.416 1.528.416zm.208-.871c-.65 0-1.153-.217-1.508-.65-.356-.433-.533-1.049-.533-1.846 0-.797.18-1.42.54-1.865.359-.447.86-.67 1.5-.67.642 0 1.136.217 1.483.65.346.433.52 1.053.52 1.859s-.174 1.428-.52 1.865c-.347.438-.84.657-1.482.657zm5.892.78V.432H49.65V10h1.053zm6.142 0V5.931h2.627c.944 0 1.685-.232 2.222-.696.538-.463.806-1.098.806-1.904 0-.806-.266-1.439-.799-1.898-.533-.46-1.276-.689-2.23-.689H55.78V10h1.066zm2.535-4.953h-2.535V1.628h2.535c.685 0 1.2.145 1.547.435.347.29.52.713.52 1.268s-.173.98-.52 1.274c-.346.295-.862.442-1.547.442zm6.79 5.044c.511 0 .96-.11 1.345-.332.386-.22.674-.535.865-.942V10h1.04V3.461h-1.04v1.131c-.2-.407-.49-.724-.871-.949-.382-.225-.828-.338-1.34-.338-.571 0-1.076.143-1.514.429-.437.286-.778.687-1.02 1.202-.243.516-.364 1.112-.364 1.788 0 .676.119 1.268.357 1.774.239.508.577.9 1.014 1.177.438.277.947.416 1.528.416zm.208-.871c-.65 0-1.153-.217-1.508-.65-.356-.433-.533-1.049-.533-1.846 0-.797.18-1.42.54-1.865.359-.447.86-.67 1.5-.67.642 0 1.136.217 1.483.65.346.433.52 1.053.52 1.859s-.174 1.428-.52 1.865c-.347.438-.84.657-1.482.657zm4.527 3.731c.71-.13 1.309-.368 1.794-.715.485-.347.888-.893 1.209-1.638l3.055-7.137H75.91l-2.236 5.395-2.21-5.395h-1.105l2.769 6.474-.26.585c-.208.477-.47.83-.786 1.06-.317.23-.783.413-1.398.552l.221.819zm9.597-2.86c.616 0 1.157-.139 1.625-.416.468-.277.83-.672 1.086-1.183.255-.511.383-1.11.383-1.794 0-.685-.128-1.283-.383-1.794-.256-.511-.618-.906-1.086-1.183-.468-.277-1.01-.416-1.625-.416s-1.157.139-1.625.416c-.468.277-.83.672-1.085 1.183-.256.511-.384 1.11-.384 1.794 0 .685.128 1.283.384 1.794.255.511.617.906 1.085 1.183.468.277 1.01.416 1.625.416zm0-.871c-.65 0-1.15-.215-1.501-.644-.351-.428-.527-1.055-.527-1.878 0-.797.178-1.415.533-1.853.356-.437.854-.656 1.495-.656.633 0 1.127.219 1.482.657.356.437.533 1.055.533 1.852 0 .823-.173 1.45-.52 1.878-.346.43-.845.644-1.495.644zm6.803.871c.467 0 .888-.104 1.26-.312.373-.208.663-.511.871-.91V10h1.027V3.461h-1.052v3.692c0 .615-.178 1.112-.534 1.489-.355.377-.823.565-1.403.565-.495 0-.863-.139-1.106-.416-.242-.277-.364-.71-.364-1.3v-4.03h-1.053v4.056c0 .85.2 1.49.599 1.924.398.433.983.65 1.755.65zm7.283 0c.338 0 .641-.043.91-.13v-.897c-.226.078-.46.117-.702.117-.364 0-.646-.097-.845-.292-.2-.195-.3-.536-.3-1.021V4.293h1.873v-.832h-1.872V1.407l-1.053.377v1.677h-1.274v.832h1.274v3.718c0 .685.175 1.203.526 1.554.351.35.839.526 1.463.526zm4.176 0c.789 0 1.413-.169 1.872-.507.46-.338.689-.789.689-1.352 0-.468-.147-.847-.442-1.137-.295-.29-.745-.505-1.352-.644l-1.105-.273c-.355-.087-.613-.208-.773-.364-.16-.156-.241-.368-.241-.637 0-.32.128-.57.383-.747.256-.178.618-.267 1.086-.267.702 0 1.36.256 1.976.767l.351-.767c-.277-.277-.62-.49-1.027-.637-.407-.147-.84-.221-1.3-.221-.754 0-1.36.18-1.82.54-.46.36-.689.825-.689 1.397 0 .433.15.806.448 1.118.3.312.722.529 1.268.65l1.105.26c.399.087.685.208.858.364.173.156.26.364.26.624 0 .32-.128.566-.384.735-.255.168-.63.253-1.124.253-.45 0-.858-.06-1.222-.182-.364-.121-.724-.32-1.079-.598l-.351.78c.641.563 1.512.845 2.613.845z"/>
                                        <rect width="15" height="3" y="5" fill="#00C9C3" rx="1"/>
                                    </g>
                                    <g transform="translate(-213 -1234) translate(123 649) translate(0 50) translate(20 30) translate(0 435) translate(70 70) translate(10 274) translate(122)">
                                        <path fill="#9B9B9B" fill-rule="nonzero" d="M25.21 13V8.931h2.626c.945 0 1.686-.232 2.223-.695.537-.464.806-1.099.806-1.905s-.266-1.439-.8-1.898c-.533-.46-1.276-.689-2.229-.689h-3.692V13h1.066zm2.535-4.953H25.21V4.628h2.535c.685 0 1.2.145 1.547.436.347.29.52.712.52 1.267 0 .555-.173.98-.52 1.274-.347.295-.862.442-1.547.442zm6.984 5.044c.616 0 1.157-.139 1.625-.416.468-.277.83-.672 1.086-1.183.255-.511.383-1.11.383-1.794 0-.685-.128-1.283-.383-1.794-.256-.511-.618-.906-1.086-1.183-.468-.277-1.01-.416-1.625-.416s-1.157.139-1.625.416c-.468.277-.83.672-1.085 1.183-.256.511-.384 1.11-.384 1.794 0 .685.128 1.283.384 1.794.255.511.617.906 1.085 1.183.468.277 1.01.416 1.625.416zm0-.871c-.65 0-1.15-.215-1.501-.644-.351-.428-.527-1.055-.527-1.878 0-.797.178-1.415.533-1.853.356-.437.854-.656 1.495-.656.633 0 1.127.219 1.482.657.356.437.533 1.055.533 1.852 0 .823-.173 1.45-.52 1.878-.346.43-.845.644-1.495.644zm5.541.78V9.269c0-.563.154-1.042.462-1.437.308-.394.778-.591 1.41-.591.26 0 .49.035.69.104l.026-.962c-.182-.052-.382-.078-.598-.078-.468 0-.884.117-1.248.351-.364.234-.629.572-.794 1.014l-.104-1.209h-1c.069.546.104 1.157.104 1.833V13h1.052zm6.257.091c.338 0 .641-.043.91-.13v-.897c-.226.078-.46.117-.702.117-.364 0-.646-.097-.845-.292-.2-.195-.3-.536-.3-1.021V7.293h1.873v-.832H45.59V4.407l-1.053.377v1.677h-1.274v.832h1.274v3.718c0 .685.175 1.203.526 1.554.351.35.839.526 1.463.526zM50.04 13V7.293h1.599v-.832H50.04V5.59c0-.477.098-.813.293-1.008.195-.194.465-.292.812-.292.208 0 .433.035.676.104v-.897c-.286-.078-.58-.117-.884-.117-.615 0-1.094.175-1.436.526-.343.352-.514.87-.514 1.554v1.001h-1.274v.832h1.274V13h1.053zm5.372.091c.616 0 1.157-.139 1.625-.416.468-.277.83-.672 1.086-1.183.255-.511.383-1.11.383-1.794 0-.685-.128-1.283-.383-1.794-.256-.511-.618-.906-1.086-1.183-.468-.277-1.01-.416-1.625-.416s-1.157.139-1.625.416c-.468.277-.83.672-1.085 1.183-.256.511-.384 1.11-.384 1.794 0 .685.128 1.283.384 1.794.255.511.617.906 1.085 1.183.468.277 1.01.416 1.625.416zm0-.871c-.65 0-1.15-.215-1.501-.644-.351-.428-.527-1.055-.527-1.878 0-.797.178-1.415.533-1.853.356-.437.854-.656 1.495-.656.633 0 1.127.219 1.482.657.356.437.533 1.055.533 1.852 0 .823-.173 1.45-.52 1.878-.346.43-.845.644-1.495.644zm5.541.78V3.432H59.9V13h1.053zm2.98-8.112V3.692h-1.286v1.196h1.287zM63.804 13V6.461h-1.052V13h1.053zm4.502.091c.615 0 1.157-.139 1.625-.416.468-.277.83-.672 1.085-1.183.256-.511.384-1.11.384-1.794 0-.685-.128-1.283-.383-1.794-.256-.511-.618-.906-1.086-1.183-.468-.277-1.01-.416-1.625-.416s-1.157.139-1.625.416c-.468.277-.83.672-1.086 1.183-.255.511-.383 1.11-.383 1.794 0 .685.128 1.283.383 1.794.256.511.618.906 1.086 1.183.468.277 1.01.416 1.625.416zm0-.871c-.65 0-1.15-.215-1.502-.644-.35-.428-.526-1.055-.526-1.878 0-.797.178-1.415.533-1.853.355-.437.854-.656 1.495-.656.633 0 1.127.219 1.482.657.355.437.533 1.055.533 1.852 0 .823-.173 1.45-.52 1.878-.347.43-.845.644-1.495.644zm11.628.78l4.043-9.256h-1.105l-3.392 7.904-3.394-7.904h-1.13L78.998 13h.935zm6.595.091c.511 0 .96-.11 1.345-.332.386-.22.674-.535.865-.942V13h1.04V6.461h-1.04v1.131c-.2-.407-.49-.724-.871-.949-.382-.225-.828-.338-1.34-.338-.571 0-1.076.143-1.514.429-.437.286-.778.687-1.02 1.202-.243.516-.364 1.112-.364 1.788 0 .676.119 1.268.357 1.774.239.508.577.9 1.014 1.177.438.277.947.416 1.528.416zm.208-.871c-.65 0-1.153-.217-1.508-.65-.356-.433-.533-1.049-.533-1.846 0-.797.18-1.42.54-1.865.359-.447.86-.67 1.5-.67.642 0 1.136.217 1.483.65.346.433.52 1.053.52 1.859s-.174 1.428-.52 1.865c-.347.438-.84.657-1.482.657zm5.892.78V3.432h-1.053V13h1.053zm4.111.091c.468 0 .889-.104 1.261-.312.373-.208.663-.511.871-.91V13h1.027V6.461h-1.053v3.692c0 .615-.177 1.111-.533 1.489-.355.377-.823.565-1.404.565-.494 0-.862-.139-1.105-.416-.242-.277-.364-.71-.364-1.3v-4.03h-1.053v4.056c0 .85.2 1.49.598 1.924.399.433.984.65 1.755.65zm7.83 0c.468 0 .925-.078 1.371-.234.446-.156.813-.368 1.099-.637l-.352-.767c-.64.511-1.343.767-2.105.767-.72 0-1.268-.212-1.645-.637-.377-.425-.57-1.053-.578-1.885h4.797v-.195c0-.997-.248-1.779-.742-2.346-.493-.568-1.174-.852-2.04-.852-.599 0-1.131.143-1.6.429-.468.286-.832.687-1.091 1.202-.26.516-.39 1.108-.39 1.775 0 1.049.29 1.874.87 2.476.581.603 1.383.904 2.406.904zm1.638-4.082h-3.81c.096-.598.315-1.062.657-1.391.342-.33.787-.494 1.332-.494.547 0 .973.16 1.281.481.308.32.487.789.54 1.404z"/>
                                        <rect width="15" height="3" y="8" fill="#193896" rx="1"/>
                                    </g>
                                </g>
                                <g fill="#33D4CF" fill-opacity=".4">
                                    <path d="M5 13.846c3.333-2.687 5-5.095 5-7.222C10 3.433 7.761.846 5 .846S0 3.433 0 6.624c0 2.127 1.667 4.535 5 7.222z" transform="translate(-213 -1234) translate(123 649) translate(0 50) translate(20 30) translate(0 435) translate(70 70) translate(585.164 19.4)"/>
                                </g>
                                <path fill="#9B9B9B" fill-rule="nonzero" d="M4.2 32.538v-1.54c.877-.103 1.582-.406 2.114-.91.532-.504.798-1.13.798-1.876 0-.551-.135-.997-.406-1.337-.27-.341-.609-.6-1.015-.777-.406-.178-.917-.341-1.533-.49v-3.766c.924.102 1.727.48 2.408 1.134L7 22.094c-.345-.346-.763-.626-1.253-.84-.49-.215-1.006-.346-1.547-.392v-1.54h-.98v1.526c-.597.056-1.125.212-1.582.469-.457.256-.814.59-1.071 1-.257.411-.385.873-.385 1.387 0 .588.142 1.061.427 1.42.285.36.637.633 1.057.82.42.186.952.364 1.596.532v3.556c-.532-.028-1.024-.136-1.477-.322-.453-.187-.903-.472-1.351-.854L0 29.738c.41.382.889.68 1.435.896.546.214 1.141.34 1.785.378v1.526h.98zm-.938-7.154c-.616-.168-1.087-.378-1.414-.63-.327-.252-.49-.616-.49-1.092 0-.514.168-.931.504-1.253.336-.322.803-.511 1.4-.567v3.542zm.896 4.62V26.7c.579.158 1.022.352 1.33.58.308.23.462.549.462.96 0 .494-.156.893-.469 1.197-.313.303-.754.492-1.323.567zm11.055.91v-.966h-4.928l2.842-3.08c.597-.654 1.024-1.244 1.28-1.771.257-.528.386-1.076.386-1.645 0-.803-.266-1.44-.798-1.911-.532-.472-1.256-.707-2.17-.707-.607 0-1.209.112-1.806.336-.598.224-1.092.522-1.484.896l.434.882c.933-.766 1.876-1.148 2.828-1.148.588 0 1.04.147 1.358.44.317.295.476.717.476 1.268 0 .42-.108.84-.322 1.26-.215.42-.556.89-1.022 1.414L8.8 30.046v.868h6.412zm5.049.098c.68 0 1.276-.133 1.785-.4.508-.265.9-.641 1.175-1.126.276-.486.413-1.041.413-1.666 0-.626-.126-1.176-.378-1.652s-.613-.847-1.085-1.113c-.47-.266-1.02-.4-1.645-.4-.858 0-1.563.267-2.114.799v-3.556h4.83v-.952h-5.977v5.838h.798c.569-.775 1.33-1.162 2.282-1.162.653 0 1.175.203 1.567.609.392.406.588.94.588 1.603 0 .68-.198 1.22-.595 1.617-.396.396-.944.595-1.644.595-.971 0-1.919-.383-2.843-1.148l-.434.882c.402.382.896.683 1.485.903.588.219 1.185.329 1.792.329zm8.114.014c1.139 0 2.005-.434 2.597-1.302.593-.868.89-2.138.89-3.808 0-1.662-.297-2.924-.89-3.787-.592-.864-1.458-1.295-2.597-1.295-1.138 0-2.004.431-2.597 1.295-.592.863-.889 2.13-.889 3.8 0 1.671.297 2.938.89 3.802.592.863 1.458 1.295 2.596 1.295zm0-.966c-.793 0-1.379-.339-1.757-1.015-.378-.677-.567-1.72-.567-3.13 0-1.409.19-2.445.567-3.107.378-.663.964-.994 1.757-.994.803 0 1.39.33 1.764.994.374.662.56 1.698.56 3.108 0 1.418-.189 2.464-.567 3.136-.378.672-.963 1.008-1.757 1.008zm6.295.854v-3.388l3.612 3.388h1.484l-3.864-3.654 3.528-3.374h-1.442l-3.318 3.22V20.61h-1.134v10.304h1.134zM4.2 72.138v-1.54c.877-.103 1.582-.406 2.114-.91.532-.504.798-1.13.798-1.876 0-.551-.135-.997-.406-1.337-.27-.341-.609-.6-1.015-.777-.406-.178-.917-.341-1.533-.49v-3.766c.924.102 1.727.48 2.408 1.134L7 61.694c-.345-.346-.763-.626-1.253-.84-.49-.215-1.006-.346-1.547-.392v-1.54h-.98v1.526c-.597.056-1.125.212-1.582.469-.457.256-.814.59-1.071 1-.257.411-.385.873-.385 1.387 0 .588.142 1.061.427 1.42.285.36.637.633 1.057.82.42.186.952.364 1.596.532v3.556c-.532-.028-1.024-.136-1.477-.322-.453-.187-.903-.472-1.351-.854L0 69.338c.41.382.889.68 1.435.896.546.214 1.141.34 1.785.378v1.526h.98zm-.938-7.154c-.616-.168-1.087-.378-1.414-.63-.327-.252-.49-.616-.49-1.092 0-.514.168-.931.504-1.253.336-.322.803-.511 1.4-.567v3.542zm.896 4.62V66.3c.579.158 1.022.352 1.33.58.308.23.462.549.462.96 0 .494-.156.893-.469 1.197-.313.303-.754.492-1.323.567zm11.055.91v-.966h-4.928l2.842-3.08c.597-.654 1.024-1.244 1.28-1.771.257-.528.386-1.076.386-1.645 0-.803-.266-1.44-.798-1.911-.532-.472-1.256-.707-2.17-.707-.607 0-1.209.112-1.806.336-.598.224-1.092.522-1.484.896l.434.882c.933-.766 1.876-1.148 2.828-1.148.588 0 1.04.147 1.358.44.317.295.476.717.476 1.268 0 .42-.108.84-.322 1.26-.215.42-.556.89-1.022 1.414L8.8 69.646v.868h6.412zm4.895.112c1.138 0 2.004-.434 2.596-1.302.593-.868.89-2.138.89-3.808 0-1.662-.297-2.924-.89-3.787-.592-.864-1.458-1.295-2.596-1.295-1.14 0-2.005.431-2.598 1.295-.592.863-.889 2.13-.889 3.8 0 1.671.297 2.938.89 3.802.592.863 1.458 1.295 2.597 1.295zm0-.966c-.794 0-1.38-.339-1.758-1.015-.378-.677-.567-1.72-.567-3.13 0-1.409.19-2.445.567-3.107.378-.663.964-.994 1.758-.994.802 0 1.39.33 1.764.994.373.662.56 1.698.56 3.108 0 1.418-.19 2.464-.567 3.136-.378.672-.964 1.008-1.757 1.008zm8.268.966c1.139 0 2.005-.434 2.597-1.302.593-.868.89-2.138.89-3.808 0-1.662-.297-2.924-.89-3.787-.592-.864-1.458-1.295-2.597-1.295-1.138 0-2.004.431-2.597 1.295-.592.863-.889 2.13-.889 3.8 0 1.671.297 2.938.89 3.802.592.863 1.458 1.295 2.596 1.295zm0-.966c-.793 0-1.379-.339-1.757-1.015-.378-.677-.567-1.72-.567-3.13 0-1.409.19-2.445.567-3.107.378-.663.964-.994 1.757-.994.803 0 1.39.33 1.764.994.374.662.56 1.698.56 3.108 0 1.418-.189 2.464-.567 3.136-.378.672-.963 1.008-1.757 1.008zm6.295.854v-3.388l3.612 3.388h1.484l-3.864-3.654 3.528-3.374h-1.442l-3.318 3.22V60.21h-1.134v10.304h1.134zM4.2 108.138v-1.54c.877-.103 1.582-.406 2.114-.91.532-.504.798-1.13.798-1.876 0-.551-.135-.997-.406-1.337-.27-.341-.609-.6-1.015-.777-.406-.178-.917-.341-1.533-.49v-3.766c.924.102 1.727.48 2.408 1.134L7 97.694c-.345-.346-.763-.626-1.253-.84-.49-.215-1.006-.346-1.547-.392v-1.54h-.98v1.526c-.597.056-1.125.212-1.582.469-.457.256-.814.59-1.071 1-.257.411-.385.873-.385 1.387 0 .588.142 1.061.427 1.42.285.36.637.633 1.057.82.42.186.952.364 1.596.532v3.556c-.532-.028-1.024-.136-1.477-.322-.453-.187-.903-.472-1.351-.854l-.434.882c.41.382.889.68 1.435.896.546.214 1.141.34 1.785.378v1.526h.98zm-.938-7.154c-.616-.168-1.087-.378-1.414-.63-.327-.252-.49-.616-.49-1.092 0-.514.168-.931.504-1.253.336-.322.803-.511 1.4-.567v3.542zm.896 4.62V102.3c.579.158 1.022.352 1.33.58.308.23.462.549.462.96 0 .494-.156.893-.469 1.197-.313.303-.754.492-1.323.567zm10.83.91v-.966h-2.197v-9.002h-.658L9.585 98.17v1.106l2.044-1.302v7.574H9.43v.966h5.558zm5.274.098c.68 0 1.276-.133 1.785-.4.508-.265.9-.641 1.175-1.126.276-.486.413-1.041.413-1.666 0-.626-.126-1.176-.378-1.652s-.613-.847-1.085-1.113c-.47-.266-1.02-.4-1.645-.4-.858 0-1.563.267-2.114.799v-3.556h4.83v-.952h-5.977v5.838h.798c.569-.775 1.33-1.162 2.282-1.162.653 0 1.175.203 1.567.609.392.406.588.94.588 1.603 0 .68-.198 1.22-.595 1.617-.396.396-.944.595-1.644.595-.971 0-1.919-.383-2.843-1.148l-.434.882c.402.382.896.683 1.485.903.588.219 1.185.329 1.792.329zm8.114.014c1.139 0 2.005-.434 2.597-1.302.593-.868.89-2.138.89-3.808 0-1.662-.297-2.924-.89-3.787-.592-.864-1.458-1.295-2.597-1.295-1.138 0-2.004.431-2.597 1.295-.592.863-.889 2.13-.889 3.8 0 1.671.297 2.938.89 3.802.592.863 1.458 1.295 2.596 1.295zm0-.966c-.793 0-1.379-.339-1.757-1.015-.378-.677-.567-1.72-.567-3.13 0-1.409.19-2.445.567-3.107.378-.663.964-.994 1.757-.994.803 0 1.39.33 1.764.994.374.662.56 1.698.56 3.108 0 1.418-.189 2.464-.567 3.136-.378.672-.963 1.008-1.757 1.008zm6.295.854v-3.388l3.612 3.388h1.484l-3.864-3.654 3.528-3.374h-1.442l-3.318 3.22V96.21h-1.134v10.304h1.134zM4.2 144.138v-1.54c.877-.103 1.582-.406 2.114-.91.532-.504.798-1.13.798-1.876 0-.551-.135-.997-.406-1.337-.27-.341-.609-.6-1.015-.777-.406-.178-.917-.341-1.533-.49v-3.766c.924.102 1.727.48 2.408 1.134l.434-.882c-.345-.346-.763-.626-1.253-.84-.49-.215-1.006-.346-1.547-.392v-1.54h-.98v1.526c-.597.056-1.125.212-1.582.469-.457.256-.814.59-1.071 1-.257.411-.385.873-.385 1.387 0 .588.142 1.061.427 1.42.285.36.637.633 1.057.82.42.186.952.364 1.596.532v3.556c-.532-.028-1.024-.136-1.477-.322-.453-.187-.903-.472-1.351-.854l-.434.882c.41.382.889.68 1.435.896.546.214 1.141.34 1.785.378v1.526h.98zm-.938-7.154c-.616-.168-1.087-.378-1.414-.63-.327-.252-.49-.616-.49-1.092 0-.514.168-.931.504-1.253.336-.322.803-.511 1.4-.567v3.542zm.896 4.62V138.3c.579.158 1.022.352 1.33.58.308.23.462.549.462.96 0 .494-.156.893-.469 1.197-.313.303-.754.492-1.323.567zm10.83.91v-.966h-2.197v-9.002h-.658l-2.548 1.624v1.106l2.044-1.302v7.574H9.43v.966h5.558zm5.12.112c1.138 0 2.004-.434 2.596-1.302.593-.868.89-2.138.89-3.808 0-1.662-.297-2.924-.89-3.787-.592-.864-1.458-1.295-2.596-1.295-1.14 0-2.005.431-2.598 1.295-.592.863-.889 2.13-.889 3.8 0 1.671.297 2.938.89 3.802.592.863 1.458 1.295 2.597 1.295zm0-.966c-.794 0-1.38-.339-1.758-1.015-.378-.677-.567-1.72-.567-3.13 0-1.409.19-2.445.567-3.107.378-.663.964-.994 1.758-.994.802 0 1.39.33 1.764.994.373.662.56 1.698.56 3.108 0 1.418-.19 2.464-.567 3.136-.378.672-.964 1.008-1.757 1.008zm8.268.966c1.139 0 2.005-.434 2.597-1.302.593-.868.89-2.138.89-3.808 0-1.662-.297-2.924-.89-3.787-.592-.864-1.458-1.295-2.597-1.295-1.138 0-2.004.431-2.597 1.295-.592.863-.889 2.13-.889 3.8 0 1.671.297 2.938.89 3.802.592.863 1.458 1.295 2.596 1.295zm0-.966c-.793 0-1.379-.339-1.757-1.015-.378-.677-.567-1.72-.567-3.13 0-1.409.19-2.445.567-3.107.378-.663.964-.994 1.757-.994.803 0 1.39.33 1.764.994.374.662.56 1.698.56 3.108 0 1.418-.189 2.464-.567 3.136-.378.672-.963 1.008-1.757 1.008zm6.295.854v-3.388l3.612 3.388h1.484l-3.864-3.654 3.528-3.374h-1.442l-3.318 3.22v-6.496h-1.134v10.304h1.134zM4.2 180.138v-1.54c.877-.103 1.582-.406 2.114-.91.532-.504.798-1.13.798-1.876 0-.551-.135-.997-.406-1.337-.27-.341-.609-.6-1.015-.777-.406-.178-.917-.341-1.533-.49v-3.766c.924.102 1.727.48 2.408 1.134l.434-.882c-.345-.346-.763-.626-1.253-.84-.49-.215-1.006-.346-1.547-.392v-1.54h-.98v1.526c-.597.056-1.125.212-1.582.469-.457.256-.814.59-1.071 1-.257.411-.385.873-.385 1.387 0 .588.142 1.061.427 1.42.285.36.637.633 1.057.82.42.186.952.364 1.596.532v3.556c-.532-.028-1.024-.136-1.477-.322-.453-.187-.903-.472-1.351-.854l-.434.882c.41.382.889.68 1.435.896.546.214 1.141.34 1.785.378v1.526h.98zm-.938-7.154c-.616-.168-1.087-.378-1.414-.63-.327-.252-.49-.616-.49-1.092 0-.514.168-.931.504-1.253.336-.322.803-.511 1.4-.567v3.542zm.896 4.62V174.3c.579.158 1.022.352 1.33.58.308.23.462.549.462.96 0 .494-.156.893-.469 1.197-.313.303-.754.492-1.323.567zm7.835 1.008c.681 0 1.276-.133 1.785-.4.508-.265.9-.641 1.176-1.126.275-.486.413-1.041.413-1.666 0-.626-.126-1.176-.378-1.652s-.614-.847-1.085-1.113c-.472-.266-1.02-.4-1.645-.4-.859 0-1.564.267-2.114.799v-3.556h4.83v-.952H8.997v5.838h.798c.57-.775 1.33-1.162 2.282-1.162.653 0 1.176.203 1.568.609.392.406.588.94.588 1.603 0 .68-.199 1.22-.595 1.617-.397.396-.945.595-1.645.595-.97 0-1.918-.383-2.842-1.148l-.434.882c.401.382.896.683 1.484.903.588.219 1.185.329 1.792.329zm8.115.014c1.138 0 2.004-.434 2.596-1.302.593-.868.89-2.138.89-3.808 0-1.662-.297-2.924-.89-3.787-.592-.864-1.458-1.295-2.596-1.295-1.14 0-2.005.431-2.598 1.295-.592.863-.889 2.13-.889 3.8 0 1.671.297 2.938.89 3.802.592.863 1.458 1.295 2.597 1.295zm0-.966c-.794 0-1.38-.339-1.758-1.015-.378-.677-.567-1.72-.567-3.13 0-1.409.19-2.445.567-3.107.378-.663.964-.994 1.758-.994.802 0 1.39.33 1.764.994.373.662.56 1.698.56 3.108 0 1.418-.19 2.464-.567 3.136-.378.672-.964 1.008-1.757 1.008zm6.294.854v-3.388l3.612 3.388h1.484l-3.864-3.654 3.528-3.374H29.72l-3.318 3.22v-6.496h-1.134v10.304h1.134zM4.2 216.138v-1.54c.877-.103 1.582-.406 2.114-.91.532-.504.798-1.13.798-1.876 0-.551-.135-.997-.406-1.337-.27-.341-.609-.6-1.015-.777-.406-.178-.917-.341-1.533-.49v-3.766c.924.102 1.727.48 2.408 1.134l.434-.882c-.345-.346-.763-.626-1.253-.84-.49-.215-1.006-.346-1.547-.392v-1.54h-.98v1.526c-.597.056-1.125.212-1.582.469-.457.256-.814.59-1.071 1-.257.411-.385.873-.385 1.387 0 .588.142 1.061.427 1.42.285.36.637.633 1.057.82.42.186.952.364 1.596.532v3.556c-.532-.028-1.024-.136-1.477-.322-.453-.187-.903-.472-1.351-.854l-.434.882c.41.382.889.68 1.435.896.546.214 1.141.34 1.785.378v1.526h.98zm-.938-7.154c-.616-.168-1.087-.378-1.414-.63-.327-.252-.49-.616-.49-1.092 0-.514.168-.931.504-1.253.336-.322.803-.511 1.4-.567v3.542zm.896 4.62V210.3c.579.158 1.022.352 1.33.58.308.23.462.549.462.96 0 .494-.156.893-.469 1.197-.313.303-.754.492-1.323.567zm7.68 1.022c1.14 0 2.005-.434 2.598-1.302.592-.868.889-2.138.889-3.808 0-1.662-.297-2.924-.89-3.787-.592-.864-1.458-1.295-2.596-1.295-1.139 0-2.005.431-2.597 1.295-.593.863-.89 2.13-.89 3.8 0 1.671.297 2.938.89 3.802.592.863 1.458 1.295 2.597 1.295zm0-.966c-.793 0-1.378-.339-1.756-1.015-.378-.677-.567-1.72-.567-3.13 0-1.409.189-2.445.567-3.107.378-.663.963-.994 1.757-.994.802 0 1.39.33 1.764.994.373.662.56 1.698.56 3.108 0 1.418-.19 2.464-.567 3.136-.378.672-.964 1.008-1.757 1.008zm6.296.854v-3.388l3.611 3.388h1.485l-3.864-3.654 3.527-3.374h-1.442l-3.317 3.22v-6.496H17v10.304h1.134z" transform="translate(-213 -1234) translate(123 649) translate(0 50) translate(20 30) translate(0 435) translate(70 70)"/>
                            </g>
                        </g>
                    </g>
                </g>
            </g>
        </g>
    </g>
</svg>
