<svg xmlns="http://www.w3.org/2000/svg" xmlns:xlink="http://www.w3.org/1999/xlink" width="101" height="100" viewBox="0 0 101 100">
    <defs>
        <ellipse id="7yqns996oe" cx="8.453" cy="5.384" rx="8.453" ry="5.384"/>
        <ellipse id="0tvnrntlrg" cx="8.35" cy="5.595" rx="8.35" ry="5.595"/>
        <ellipse id="1ectr90oti" cx="8.361" cy="5.246" rx="8.361" ry="5.246"/>
        <ellipse id="o1ua14khok" cx="8.361" cy="5.246" rx="8.361" ry="5.246"/>
        <ellipse id="jhhinht4zm" cx="8.453" cy="5.384" rx="8.453" ry="5.384"/>
        <ellipse id="r4uyumzfro" cx="8.361" cy="5.246" rx="8.361" ry="5.246"/>
        <ellipse id="wvchjsh3mq" cx="8.453" cy="5.384" rx="8.453" ry="5.384"/>
        <ellipse id="27l5b5cnrs" cx="8.453" cy="5.384" rx="8.453" ry="5.384"/>
        <path id="5esd5eqrha" d="M100.51 50c0 27.614-22.385 50-50 50-27.614 0-50-22.386-50-50s22.386-50 50-50c27.615 0 50 22.386 50 50z"/>
        <path id="pfd2sxyi6c" d="M7.667 0H59.2c1.105 0 2 .895 2 2v5.81c0 1.096-.597 2.104-1.556 2.63-2.363 1.297-3.544 2.843-3.544 4.639 0 2.103 3.78 9.533 11.341 22.29.366.617.559 1.321.559 2.039v31.365c0 1.558-.905 2.974-2.319 3.63C57.623 78.133 47.063 80 34 80c-13.063 0-23.623-1.866-31.681-5.598C.905 73.747 0 72.331 0 70.772V40.422c0-.677.172-1.342.499-1.935 7.072-12.798 10.608-20.6 10.608-23.407 0-2.387-1.253-3.782-3.758-4.186-.97-.156-1.682-.992-1.682-1.974V2c0-1.105.895-2 2-2z"/>
    </defs>
    <g fill="none" fill-rule="evenodd">
        <g>
            <mask id="ekw47wk81b" fill="#fff">
                <use xlink:href="#5esd5eqrha"/>
            </mask>
            <use fill="#3F8EC3" xlink:href="#5esd5eqrha"/>
            <g mask="url(#ekw47wk81b)">
                <g transform="translate(17 34)">
                    <mask id="p0m8xowted" fill="#fff">
                        <use xlink:href="#pfd2sxyi6c"/>
                    </mask>
                    <use fill="#2A6BA0" xlink:href="#pfd2sxyi6c"/>
                    <g mask="url(#p0m8xowted)">
                        <g>
                            <g transform="translate(3.2 22.6) rotate(15 -64.526 156.25)">
                                <path fill="#F19F07" d="M10.487 16.75c5.827 0 9.724-2.662 10.457-7.414.102-.665.053-2.305 0-2.66C20.297 2.397 15.868 0 10.487 0 5.127 0 .702 2.687.027 6.941c-.06.372 0 1.818 0 2.202 0 4.79 4.633 7.606 10.46 7.606z"/>
                                <ellipse cx="10.758" cy="6.58" fill="#FEE34B" rx="10.246" ry="6.58"/>
                                <ellipse cx="10.758" cy="5.982" fill="#F19F07" rx="8.709" ry="5.982"/>
                                <g transform="translate(2.05)">
                                    <mask id="aoh0y3i03f" fill="#fff">
                                        <use xlink:href="#7yqns996oe"/>
                                    </mask>
                                    <use fill="#FEE34B" xlink:href="#7yqns996oe"/>
                                    <path fill="#FFFBB6" d="M2.711.444L4.357 11.556 10.185 11.366 5.845.444zM.385 1.117L1.589 9.571 2.341 9.571 1.363 1.117zM7.683 0L11.085 10.294 13.297 9.742 8.38 0z" mask="url(#aoh0y3i03f)"/>
                                </g>
                            </g>
                            <g transform="translate(3.2 22.6) translate(19.2 26)">
                                <path fill="#F19F07" d="M10.36 17.408c5.755 0 9.605-2.766 10.329-7.705.101-.691.053-2.396 0-2.764C20.049 2.491 15.675 0 10.359 0 5.065 0 .694 2.793.026 7.214c-.058.386 0 1.889 0 2.288 0 4.979 4.577 7.906 10.333 7.906z"/>
                                <ellipse cx="10.627" cy="6.839" fill="#FEE34B" rx="10.121" ry="6.839"/>
                                <ellipse cx="10.627" cy="6.217" fill="#F19F07" rx="8.603" ry="6.217"/>
                                <g transform="translate(2.024)">
                                    <mask id="p9wrftnqoh" fill="#fff">
                                        <use xlink:href="#0tvnrntlrg"/>
                                    </mask>
                                    <use fill="#FEE34B" xlink:href="#0tvnrntlrg"/>
                                    <path fill="#FFFBB6" d="M2.678.461L4.304 12.011 10.061 11.812 5.774.461zM.38 1.161L1.569 9.947 2.313 9.947 1.346 1.161zM7.589 0L10.95 10.699 13.135 10.125 8.278 0z" mask="url(#p9wrftnqoh)"/>
                                </g>
                            </g>
                            <g transform="translate(3.2 22.6) rotate(-14 109.789 12.537)">
                                <path fill="#F19F07" d="M10.373 16.32c5.764 0 9.62-2.593 10.344-7.223.101-.648.053-2.246 0-2.591C20.077 2.335 15.697 0 10.373 0 5.073 0 .694 2.618.026 6.763c-.058.362 0 1.771 0 2.146 0 4.667 4.584 7.411 10.347 7.411z"/>
                                <ellipse cx="10.641" cy="6.411" fill="#FEE34B" rx="10.135" ry="6.411"/>
                                <ellipse cx="10.641" cy="5.829" fill="#F19F07" rx="8.614" ry="5.829"/>
                                <g transform="translate(2.027)">
                                    <mask id="ny6r3h58bj" fill="#fff">
                                        <use xlink:href="#1ectr90oti"/>
                                    </mask>
                                    <use fill="#FEE34B" xlink:href="#1ectr90oti"/>
                                    <path fill="#FFFBB6" d="M2.681.432L4.309 11.26 10.075 11.074 5.782.432zM.381 1.088L1.571 9.326 2.316 9.326 1.348 1.088zM7.599 0L10.965 10.03 13.153 9.492 8.289 0z" mask="url(#ny6r3h58bj)"/>
                                </g>
                            </g>
                            <g transform="translate(3.2 22.6) rotate(-14 86.85 -32.582)">
                                <path fill="#F19F07" d="M10.373 16.32c5.764 0 9.62-2.593 10.344-7.223.101-.648.053-2.246 0-2.591C20.077 2.335 15.697 0 10.373 0 5.073 0 .694 2.618.026 6.763c-.058.362 0 1.771 0 2.146 0 4.667 4.584 7.411 10.347 7.411z"/>
                                <ellipse cx="10.641" cy="6.411" fill="#FEE34B" rx="10.135" ry="6.411"/>
                                <ellipse cx="10.641" cy="5.829" fill="#F19F07" rx="8.614" ry="5.829"/>
                                <g transform="translate(2.027)">
                                    <mask id="gzr5pp3hkl" fill="#fff">
                                        <use xlink:href="#o1ua14khok"/>
                                    </mask>
                                    <use fill="#FEE34B" xlink:href="#o1ua14khok"/>
                                    <path fill="#FFFBB6" d="M2.681.432L4.309 11.26 10.075 11.074 5.782.432zM.381 1.088L1.571 9.326 2.316 9.326 1.348 1.088zM7.599 0L10.965 10.03 13.153 9.492 8.289 0z" mask="url(#gzr5pp3hkl)"/>
                                </g>
                            </g>
                            <g transform="translate(3.2 22.6) rotate(27 -9.831 68.145)">
                                <path fill="#F19F07" d="M10.487 16.75c5.827 0 9.724-2.662 10.457-7.414.102-.665.053-2.305 0-2.66C20.297 2.397 15.868 0 10.487 0 5.127 0 .702 2.687.027 6.941c-.06.372 0 1.818 0 2.202 0 4.79 4.633 7.606 10.46 7.606z"/>
                                <ellipse cx="10.758" cy="6.58" fill="#FEE34B" rx="10.246" ry="6.58"/>
                                <ellipse cx="10.758" cy="5.982" fill="#F19F07" rx="8.709" ry="5.982"/>
                                <g transform="translate(2.05)">
                                    <mask id="xzohhohpbn" fill="#fff">
                                        <use xlink:href="#jhhinht4zm"/>
                                    </mask>
                                    <use fill="#FEE34B" xlink:href="#jhhinht4zm"/>
                                    <path fill="#FFFBB6" d="M2.711.444L4.357 11.556 10.185 11.366 5.845.444zM.385 1.117L1.589 9.571 2.341 9.571 1.363 1.117zM7.683 0L11.085 10.294 13.297 9.742 8.38 0z" mask="url(#xzohhohpbn)"/>
                                </g>
                            </g>
                            <g transform="translate(3.2 22.6) rotate(-14 45.627 -23.823)">
                                <path fill="#F19F07" d="M10.373 16.32c5.764 0 9.62-2.593 10.344-7.223.101-.648.053-2.246 0-2.591C20.077 2.335 15.697 0 10.373 0 5.073 0 .694 2.618.026 6.763c-.058.362 0 1.771 0 2.146 0 4.667 4.584 7.411 10.347 7.411z"/>
                                <ellipse cx="10.641" cy="6.411" fill="#FEE34B" rx="10.135" ry="6.411"/>
                                <ellipse cx="10.641" cy="5.829" fill="#F19F07" rx="8.614" ry="5.829"/>
                                <g transform="translate(2.027)">
                                    <mask id="8rouv5qi9p" fill="#fff">
                                        <use xlink:href="#r4uyumzfro"/>
                                    </mask>
                                    <use fill="#FEE34B" xlink:href="#r4uyumzfro"/>
                                    <path fill="#FFFBB6" d="M2.681.432L4.309 11.26 10.075 11.074 5.782.432zM.381 1.088L1.571 9.326 2.316 9.326 1.348 1.088zM7.599 0L10.965 10.03 13.153 9.492 8.289 0z" mask="url(#8rouv5qi9p)"/>
                                </g>
                            </g>
                            <g transform="translate(3.2 22.6) rotate(27 -1.217 92.929)">
                                <path fill="#F19F07" d="M10.487 16.75c5.827 0 9.724-2.662 10.457-7.414.102-.665.053-2.305 0-2.66C20.297 2.397 15.868 0 10.487 0 5.127 0 .702 2.687.027 6.941c-.06.372 0 1.818 0 2.202 0 4.79 4.633 7.606 10.46 7.606z"/>
                                <ellipse cx="10.758" cy="6.58" fill="#FEE34B" rx="10.246" ry="6.58"/>
                                <ellipse cx="10.758" cy="5.982" fill="#F19F07" rx="8.709" ry="5.982"/>
                                <g transform="translate(2.05)">
                                    <mask id="8273dizi6r" fill="#fff">
                                        <use xlink:href="#wvchjsh3mq"/>
                                    </mask>
                                    <use fill="#FEE34B" xlink:href="#wvchjsh3mq"/>
                                    <path fill="#FFFBB6" d="M2.711.444L4.357 11.556 10.185 11.366 5.845.444zM.385 1.117L1.589 9.571 2.341 9.571 1.363 1.117zM7.683 0L11.085 10.294 13.297 9.742 8.38 0z" mask="url(#8273dizi6r)"/>
                                </g>
                            </g>
                            <g transform="translate(3.2 22.6) rotate(27 15.643 67.735)">
                                <path fill="#F19F07" d="M10.487 16.75c5.827 0 9.724-2.662 10.457-7.414.102-.665.053-2.305 0-2.66C20.297 2.397 15.868 0 10.487 0 5.127 0 .702 2.687.027 6.941c-.06.372 0 1.818 0 2.202 0 4.79 4.633 7.606 10.46 7.606z"/>
                                <ellipse cx="10.758" cy="6.58" fill="#FEE34B" rx="10.246" ry="6.58"/>
                                <ellipse cx="10.758" cy="5.982" fill="#F19F07" rx="8.709" ry="5.982"/>
                                <g transform="translate(2.05)">
                                    <mask id="168edrxc2t" fill="#fff">
                                        <use xlink:href="#27l5b5cnrs"/>
                                    </mask>
                                    <use fill="#FEE34B" xlink:href="#27l5b5cnrs"/>
                                    <path fill="#FFFBB6" d="M2.711.444L4.357 11.556 10.185 11.366 5.845.444zM.385 1.117L1.589 9.571 2.341 9.571 1.363 1.117zM7.683 0L11.085 10.294 13.297 9.742 8.38 0z" mask="url(#168edrxc2t)"/>
                                </g>
                            </g>
                        </g>
                    </g>
                </g>
            </g>
            <path fill="#E8F8F8" d="M39.5 47.5L57 47.5 24 98.5 24 76z" mask="url(#ekw47wk81b)" opacity=".5"/>
            <g mask="url(#ekw47wk81b)">
                <g>
                    <path fill="#FEE175" fill-rule="nonzero" d="M98.043 2.415c.309-.561 1.746-.761 2.297-.446.511.292.717.926.496 1.464l-.058.123-24.074 21.11L51.519 8 32.452 31.942 2.158 38.935c-.557.305-1.25.092-1.548-.475-.278-.527-.118-1.174.352-1.507l.114-.072 29.965-6.813L51.304 4.721l25.4 16.983L98.043 2.415z" transform="translate(0 17.926)"/>
                    <path fill="#FFF" d="M30.973 38.074c-.354 0-.673-.213-.808-.54-1.723-4.159-2.993-5.429-7.152-7.151-.327-.136-.54-.455-.54-.809 0-.354.214-.673.54-.808 4.16-1.723 5.429-2.993 7.152-7.152.135-.327.454-.54.808-.54.354 0 .673.213.808.54 1.723 4.159 2.993 5.429 7.152 7.152.327.135.54.454.54.808 0 .354-.213.674-.54.809-4.159 1.722-5.429 2.992-7.152 7.15-.135.328-.454.541-.808.541M49.973 17.074c-.354 0-.673-.213-.808-.54-1.723-4.159-2.993-5.429-7.152-7.151-.327-.136-.54-.455-.54-.809 0-.354.214-.673.54-.808 4.16-1.723 5.43-2.993 7.152-7.152.135-.327.454-.54.808-.54.354 0 .673.213.808.54 1.723 4.159 2.993 5.429 7.152 7.152.327.135.54.454.54.808 0 .354-.213.674-.54.809-4.159 1.722-5.429 2.992-7.152 7.15-.135.328-.454.541-.808.541M76.685 32.407c-.354 0-.673-.213-.809-.54-1.722-4.159-2.992-5.428-7.15-7.15-.328-.136-.54-.455-.54-.81 0-.353.212-.672.54-.808 4.158-1.723 5.428-2.993 7.15-7.151.136-.327.455-.54.809-.54.354 0 .673.213.808.54 1.723 4.158 2.993 5.428 7.152 7.151.327.136.54.455.54.809 0 .354-.213.673-.54.808-4.159 1.722-5.429 2.992-7.152 7.151-.135.327-.454.54-.808.54" transform="translate(0 17.926)"/>
                </g>
            </g>
        </g>
    </g>
</svg>
