<?xml version="1.0" encoding="UTF-8"?>
<svg width="305px" height="300px" viewBox="0 0 305 300" version="1.1" xmlns="http://www.w3.org/2000/svg" xmlns:xlink="http://www.w3.org/1999/xlink" style="background: #FFFFFF;">
    <title>Graph / C White</title>
    <defs>
        <path d="M255.00226,0 L255.00226,138 L-7.27595761e-12,138 L-7.27595761e-12,63.6 C54.7692042,44.0904398 96.7692042,30.6904398 126,23.4 C155.230796,16.1095602 198.231549,8.30956023 255.00226,0 Z" id="path-1"></path>
        <path d="M255.00226,51 L255.00226,74.4 L0,74.4 L0,0 C47.9664535,16.2600082 86.2997869,27.2600082 115,33 C143.700213,38.7399918 190.367633,44.7399918 255.00226,51 Z" id="path-3"></path>
        <filter x="-19.6%" y="-61.1%" width="139.3%" height="222.2%" filterUnits="objectBoundingBox" id="filter-5">
            <feOffset dx="0" dy="6" in="SourceAlpha" result="shadowOffsetOuter1"></feOffset>
            <feGaussianBlur stdDeviation="4" in="shadowOffsetOuter1" result="shadowBlurOuter1"></feGaussianBlur>
            <feColorMatrix values="0 0 0 0 0.828464674   0 0 0 0 0.828464674   0 0 0 0 0.828464674  0 0 0 0.5 0" type="matrix" in="shadowBlurOuter1" result="shadowMatrixOuter1"></feColorMatrix>
            <feMerge>
                <feMergeNode in="shadowMatrixOuter1"></feMergeNode>
                <feMergeNode in="SourceGraphic"></feMergeNode>
            </feMerge>
        </filter>
    </defs>
    <g id="Graph-/-C-White" stroke="none" stroke-width="1" fill="none" fill-rule="evenodd">
        <rect fill="#FFFFFF" x="0" y="0" width="305" height="300"></rect>
        <g id="Grid" transform="translate(0.000000, 39.200000)" fill-rule="nonzero" stroke="#E7E7E7" stroke-linecap="square">
            <line x1="305" y1="75.5" x2="0" y2="75.5" id="Line-7-Copy"></line>
            <line x1="305" y1="39" x2="0" y2="39" id="Line-7-Copy-4"></line>
            <line x1="305" y1="112" x2="0" y2="112" id="Line-7-Copy-5"></line>
            <line x1="305" y1="3" x2="0" y2="3" id="Line-7-Copy"></line>
            <line x1="305" y1="184" x2="0" y2="184" id="Line-7-Copy-2"></line>
            <line x1="305" y1="148" x2="0" y2="148" id="Line-7-Copy-6"></line>
        </g>
        <path d="M257.862,246.6631 C258.867333,246.6631 259.666833,246.4291 260.2605,245.9611 C260.854167,245.4931 261.151,244.8561 261.151,244.0501 C261.151,243.4781 261.005833,242.9971 260.7155,242.6071 C260.425167,242.2171 260.007,241.948433 259.461,241.8011 C259.920333,241.627767 260.277833,241.3526 260.5335,240.9756 C260.789167,240.5986 260.921333,240.154433 260.93,239.6431 C260.93,238.897767 260.659167,238.301933 260.1175,237.8556 C259.575833,237.409267 258.85,237.1861 257.94,237.1861 C257.342,237.1861 256.759167,237.2836 256.1915,237.4786 C255.623833,237.6736 255.153667,237.935767 254.781,238.2651 L254.781,238.2651 L255.34,239.4871 C256.172,238.845767 257.004,238.5251 257.836,238.5251 C258.304,238.5251 258.668,238.637767 258.928,238.8631 C259.188,239.088433 259.318,239.413433 259.318,239.8381 C259.318,240.7481 258.72,241.2031 257.524,241.2031 L257.524,241.2031 L256.523,241.2031 L256.523,242.5421 L257.745,242.5421 C258.360333,242.5421 258.815333,242.6526 259.11,242.8736 C259.404667,243.0946 259.552,243.4391 259.552,243.9071 C259.552,244.383767 259.406833,244.7391 259.1165,244.9731 C258.826167,245.2071 258.386333,245.3241 257.797,245.3241 C256.895667,245.3241 256.033333,245.003433 255.21,244.3621 L255.21,244.3621 L254.638,245.5841 C255.010667,245.9221 255.485167,246.186433 256.0615,246.3771 C256.637833,246.567767 257.238,246.6631 257.862,246.6631 Z M265.58725,246.6761 C266.687917,246.6761 267.526417,246.268767 268.10275,245.4541 C268.679083,244.639433 268.96725,243.460767 268.96725,241.9181 C268.96725,240.3841 268.679083,239.216267 268.10275,238.4146 C267.526417,237.612933 266.687917,237.2121 265.58725,237.2121 C264.486583,237.2121 263.648083,237.6151 263.07175,238.4211 C262.495417,239.2271 262.20725,240.392767 262.20725,241.9181 C262.20725,243.469433 262.495417,244.650267 263.07175,245.4606 C263.648083,246.270933 264.486583,246.6761 265.58725,246.6761 Z M265.58725,245.3631 C264.98925,245.3631 264.55375,245.087933 264.28075,244.5376 C264.00775,243.987267 263.87125,243.1141 263.87125,241.9181 C263.87125,240.739433 264.00775,239.879267 264.28075,239.3376 C264.55375,238.795933 264.98925,238.5251 265.58725,238.5251 C266.18525,238.5251 266.62075,238.795933 266.89375,239.3376 C267.16675,239.879267 267.30325,240.739433 267.30325,241.9181 C267.30325,243.1141 267.16675,243.987267 266.89375,244.5376 C266.62075,245.087933 266.18525,245.3631 265.58725,245.3631 Z M273.28975,249.5231 C274.078417,249.401767 274.741417,249.154767 275.27875,248.7821 C275.816083,248.409433 276.258083,247.815767 276.60475,247.0011 L276.60475,247.0011 L279.65975,239.9941 L278.04775,239.9941 L276.12375,244.7131 L274.23875,239.9941 L272.53575,239.9941 L275.26575,246.3251 L275.05775,246.8061 C274.867083,247.2221 274.617917,247.536267 274.31025,247.7486 C274.002583,247.960933 273.541083,248.136433 272.92575,248.2751 L272.92575,248.2751 L273.28975,249.5231 Z M283.238,246.6631 C283.706,246.6631 284.1675,246.587267 284.6225,246.4356 C285.0775,246.283933 285.461,246.082433 285.773,245.8311 L285.773,245.8311 L285.305,244.7131 C284.689667,245.1811 284.022333,245.4151 283.303,245.4151 C282.679,245.4151 282.208833,245.248267 281.8925,244.9146 C281.576167,244.580933 281.400667,244.0631 281.366,243.3611 L281.366,243.3611 L285.89,243.3611 L285.89,243.1141 C285.89,242.091433 285.627833,241.2876 285.1035,240.7026 C284.579167,240.1176 283.866333,239.8251 282.965,239.8251 C282.349667,239.8251 281.799333,239.970267 281.314,240.2606 C280.828667,240.550933 280.451667,240.9561 280.183,241.4761 C279.914333,241.9961 279.78,242.589767 279.78,243.2571 C279.78,244.314433 280.087667,245.146433 280.703,245.7531 C281.318333,246.359767 282.163333,246.6631 283.238,246.6631 Z M284.473,242.4901 L281.418,242.4901 C281.496,242.004767 281.6715,241.634267 281.9445,241.3786 C282.2175,241.122933 282.570667,240.9951 283.004,240.9951 C283.437333,240.9951 283.7775,241.120767 284.0245,241.3721 C284.2715,241.623433 284.421,241.9961 284.473,242.4901 L284.473,242.4901 Z M289.57225,246.6631 C290.048917,246.6631 290.473583,246.561267 290.84625,246.3576 C291.218917,246.153933 291.504917,245.8701 291.70425,245.5061 L291.70425,245.5061 L291.70425,246.5591 L293.30325,246.5591 L293.30325,239.9941 L291.70425,239.9941 L291.70425,240.9821 C291.504917,240.6181 291.218917,240.334267 290.84625,240.1306 C290.473583,239.926933 290.048917,239.8251 289.57225,239.8251 C289.008917,239.8251 288.50625,239.970267 288.06425,240.2606 C287.62225,240.550933 287.27775,240.958267 287.03075,241.4826 C286.78375,242.006933 286.66025,242.6071 286.66025,243.2831 C286.66025,243.9591 286.781583,244.552767 287.02425,245.0641 C287.266917,245.575433 287.60925,245.969767 288.05125,246.2471 C288.49325,246.524433 289.00025,246.6631 289.57225,246.6631 Z M290.01425,245.3891 C289.46825,245.3891 289.04575,245.2071 288.74675,244.8431 C288.44775,244.4791 288.29825,243.9591 288.29825,243.2831 C288.29825,242.598433 288.44775,242.063267 288.74675,241.6776 C289.04575,241.291933 289.463917,241.0991 290.00125,241.0991 C290.54725,241.0991 290.967583,241.285433 291.26225,241.6581 C291.556917,242.030767 291.70425,242.563767 291.70425,243.2571 C291.70425,243.9331 291.556917,244.457433 291.26225,244.8301 C290.967583,245.202767 290.551583,245.3891 290.01425,245.3891 Z M296.4395,246.5591 L296.4395,243.0101 C296.4395,242.481433 296.584667,242.056767 296.875,241.7361 C297.165333,241.415433 297.587833,241.2551 298.1425,241.2551 C298.437167,241.2551 298.723167,241.311433 299.0005,241.4241 L299.0005,241.4241 L299.0135,239.9421 C298.8315,239.872767 298.614833,239.8381 298.3635,239.8381 C297.912833,239.8381 297.509833,239.950767 297.1545,240.1761 C296.799167,240.401433 296.539167,240.726433 296.3745,241.1511 L296.3745,241.1511 L296.2445,239.9941 L294.7235,239.9941 C294.792833,240.5401 294.8275,241.159767 294.8275,241.8531 L294.8275,241.8531 L294.8275,246.5591 L296.4395,246.5591 Z M302.01975,246.6631 C302.860417,246.6631 303.523417,246.485433 304.00875,246.1301 C304.494083,245.774767 304.73675,245.293767 304.73675,244.6871 C304.73675,244.1931 304.58725,243.792267 304.28825,243.4846 C303.98925,243.176933 303.51475,242.949433 302.86475,242.8021 L302.86475,242.8021 L301.74675,242.5551 C301.443417,242.4771 301.228917,242.381767 301.10325,242.2691 C300.977583,242.156433 300.91475,242.004767 300.91475,241.8141 C300.91475,241.571433 301.01875,241.380767 301.22675,241.2421 C301.43475,241.103433 301.725083,241.0341 302.09775,241.0341 C302.791083,241.0341 303.467083,241.276767 304.12575,241.7621 L304.12575,241.7621 L304.60675,240.6571 C304.277417,240.388433 303.896083,240.1826 303.46275,240.0396 C303.029417,239.8966 302.57875,239.8251 302.11075,239.8251 C301.573417,239.8251 301.101083,239.911767 300.69375,240.0851 C300.286417,240.258433 299.970083,240.498933 299.74475,240.8066 C299.519417,241.114267 299.40675,241.467433 299.40675,241.8661 C299.40675,242.8281 300.00475,243.4391 301.20075,243.6991 L301.20075,243.6991 L302.29275,243.9461 C302.648083,244.032767 302.899417,244.1346 303.04675,244.2516 C303.194083,244.3686 303.26775,244.526767 303.26775,244.7261 C303.26775,244.9601 303.161583,245.1421 302.94925,245.2721 C302.736917,245.4021 302.43575,245.4671 302.04575,245.4671 C301.144417,245.4671 300.34275,245.2071 299.64075,244.6871 L299.64075,244.6871 L299.18575,245.8311 C299.88775,246.385767 300.832417,246.6631 302.01975,246.6631 Z" id="30years" fill="#5E5E5E" fill-rule="nonzero"></path>
        <path d="M52.145,246.2835 L52.145,238.8345 L57.735,246.2835 L58.567,246.2835 L58.567,237.0275 L57.553,237.0275 L57.553,244.4765 L51.963,237.0275 L51.144,237.0275 L51.144,246.2835 L52.145,246.2835 Z M63.17225,246.3745 C63.7875833,246.3745 64.32925,246.235833 64.79725,245.9585 C65.26525,245.681167 65.6270833,245.286833 65.88275,244.7755 C66.1384167,244.264167 66.26625,243.666167 66.26625,242.9815 C66.26625,242.296833 66.1384167,241.698833 65.88275,241.1875 C65.6270833,240.676167 65.26525,240.281833 64.79725,240.0045 C64.32925,239.727167 63.7875833,239.5885 63.17225,239.5885 C62.5569167,239.5885 62.01525,239.727167 61.54725,240.0045 C61.07925,240.281833 60.7174167,240.676167 60.46175,241.1875 C60.2060833,241.698833 60.07825,242.296833 60.07825,242.9815 C60.07825,243.666167 60.2060833,244.264167 60.46175,244.7755 C60.7174167,245.286833 61.07925,245.681167 61.54725,245.9585 C62.01525,246.235833 62.5569167,246.3745 63.17225,246.3745 Z M63.17225,245.5035 C62.52225,245.5035 62.02175,245.289 61.67075,244.86 C61.31975,244.431 61.14425,243.804833 61.14425,242.9815 C61.14425,242.184167 61.3219167,241.566667 61.67725,241.129 C62.0325833,240.691333 62.5309167,240.4725 63.17225,240.4725 C63.8049167,240.4725 64.2989167,240.691333 64.65425,241.129 C65.0095833,241.566667 65.18725,242.184167 65.18725,242.9815 C65.18725,243.804833 65.0139167,244.431 64.66725,244.86 C64.3205833,245.289 63.82225,245.5035 63.17225,245.5035 Z M70.3515,246.2835 L72.2105,241.1745 L74.0825,246.2835 L75.0965,246.2835 L77.5145,239.7445 L76.4745,239.7445 L74.5895,245.0355 L72.7045,239.7445 L71.7815,239.7445 L69.8705,245.0225 L68.0245,239.7445 L66.9195,239.7445 L69.3375,246.2835 L70.3515,246.2835 Z" id="Now" fill="#5E5E5E" fill-rule="nonzero"></path>
        <g id="Payout" transform="translate(52.000000, 85.200000)">
            <mask id="mask-2" fill="white">
                <use xlink:href="#path-1"></use>
            </mask>
            <g id="Mask"></g>
            <g id="payout" opacity="0.8" mask="url(#mask-2)" fill="#00C9C3" fill-opacity="0.9" fill-rule="nonzero">
                <g transform="translate(0.000000, -55.200000)">
                    <polygon id="Path-25-Copy-13" points="253 0 253 194.4 247 194.4 247 0"></polygon>
                    <polygon id="Path-25-Copy-14" points="240 0 240 194.4 234 194.4 234 0"></polygon>
                    <polygon id="Path-25-Copy-15" points="227 0 227 194.4 221 194.4 221 0"></polygon>
                    <polygon id="Path-25-Copy-16" points="214 0 214 194.4 208 194.4 208 0"></polygon>
                    <polygon id="Path-25-Copy-17" points="201 0 201 194.4 195 194.4 195 0"></polygon>
                    <polygon id="Path-25-Copy-18" points="188 0 188 194.4 182 194.4 182 0"></polygon>
                    <polygon id="Path-25-Copy-19" points="175 0 175 194.4 169 194.4 169 0"></polygon>
                    <polygon id="Path-25-Copy-20" points="162 0 162 194.4 156 194.4 156 0"></polygon>
                    <polygon id="Path-25-Copy-21" points="149 0 149 194.4 143 194.4 143 0"></polygon>
                    <polygon id="Path-25-Copy-22" points="136 0 136 194.4 130 194.4 130 0"></polygon>
                    <polygon id="Path-25-Copy-23" points="123 0 123 194.4 117 194.4 117 0"></polygon>
                    <polygon id="Path-25-Copy-24" points="110 0 110 194.4 104 194.4 104 0"></polygon>
                    <polygon id="Path-25-Copy-25" points="97 0 97 194.4 91 194.4 91 0"></polygon>
                    <polygon id="Path-25-Copy-26" points="84 0 84 194.4 78 194.4 78 0"></polygon>
                    <polygon id="Path-25-Copy-27" points="71 0 71 194.4 65 194.4 65 0"></polygon>
                    <polygon id="Path-25-Copy-28" points="58 0 58 194.4 52 194.4 52 0"></polygon>
                    <polygon id="Path-25-Copy-29" points="45 0 45 194.4 39 194.4 39 0"></polygon>
                    <polygon id="Path-25-Copy-30" points="32 0 32 194.4 26 194.4 26 0"></polygon>
                    <polygon id="Path-25-Copy-31" points="19 0 19 194.4 13 194.4 13 0"></polygon>
                    <polygon id="Path-25-Copy-32" points="6 0 6 194.4 0 194.4 0 0"></polygon>
                </g>
            </g>
        </g>
        <g id="Group-4" transform="translate(52.000000, 148.800000)">
            <mask id="mask-4" fill="white">
                <use xlink:href="#path-3"></use>
            </mask>
            <g id="Mask-Copy"></g>
            <g id="portfolio-value" mask="url(#mask-4)" fill="#1F57A1" fill-opacity="0.9" fill-rule="nonzero">
                <g transform="translate(0.000000, -118.800000)">
                    <polygon id="Path-25-Copy-13" points="253 0 253 194.4 247 194.4 247 0"></polygon>
                    <polygon id="Path-25-Copy-14" points="240 0 240 194.4 234 194.4 234 0"></polygon>
                    <polygon id="Path-25-Copy-15" points="227 0 227 194.4 221 194.4 221 0"></polygon>
                    <polygon id="Path-25-Copy-16" points="214 0 214 194.4 208 194.4 208 0"></polygon>
                    <polygon id="Path-25-Copy-17" points="201 0 201 194.4 195 194.4 195 0"></polygon>
                    <polygon id="Path-25-Copy-18" points="188 0 188 194.4 182 194.4 182 0"></polygon>
                    <polygon id="Path-25-Copy-19" points="175 0 175 194.4 169 194.4 169 0"></polygon>
                    <polygon id="Path-25-Copy-20" points="162 0 162 194.4 156 194.4 156 0"></polygon>
                    <polygon id="Path-25-Copy-21" points="149 0 149 194.4 143 194.4 143 0"></polygon>
                    <polygon id="Path-25-Copy-22" points="136 0 136 194.4 130 194.4 130 0"></polygon>
                    <polygon id="Path-25-Copy-23" points="123 0 123 194.4 117 194.4 117 0"></polygon>
                    <polygon id="Path-25-Copy-24" points="110 0 110 194.4 104 194.4 104 0"></polygon>
                    <polygon id="Path-25-Copy-25" points="97 0 97 194.4 91 194.4 91 0"></polygon>
                    <polygon id="Path-25-Copy-26" points="84 0 84 194.4 78 194.4 78 0"></polygon>
                    <polygon id="Path-25-Copy-27" points="71 0 71 194.4 65 194.4 65 0"></polygon>
                    <polygon id="Path-25-Copy-28" points="58 0 58 194.4 52 194.4 52 0"></polygon>
                    <polygon id="Path-25-Copy-29" points="45 0 45 194.4 39 194.4 39 0"></polygon>
                    <polygon id="Path-25-Copy-30" points="32 0 32 194.4 26 194.4 26 0"></polygon>
                    <polygon id="Path-25-Copy-31" points="19 0 19 194.4 13 194.4 13 0"></polygon>
                    <polygon id="Path-25-Copy-32" points="6 0 6 194.4 0 194.4 0 0"></polygon>
                </g>
            </g>
        </g>
        <g id="Group-3" filter="url(#filter-5)" transform="translate(140.000000, 14.000000)">
            <path d="M2,-3.55271368e-15 L138,-3.55271368e-15 C139.104569,-3.7556198e-15 140,0.8954305 140,2 L140,43 C140,44.1045695 139.104569,45 138,45 L2,45 C0.8954305,45 1.3527075e-16,44.1045695 0,43 L0,2 C-1.3527075e-16,0.8954305 0.8954305,-3.34980755e-15 2,-3.55271368e-15 Z" id="Rectangle" stroke="#E7E7E7" fill="#FFFFFF"></path>
            <path d="M12.04,18 L12.04,14.244 L14.464,14.244 C15.336,14.244 16.02,14.03 16.516,13.602 C17.012,13.174 17.26,12.588 17.26,11.844 C17.26,11.1 17.014,10.516 16.522,10.092 C16.03,9.668 15.344,9.456 14.464,9.456 L14.464,9.456 L11.056,9.456 L11.056,18 L12.04,18 Z M14.38,13.428 L12.04,13.428 L12.04,10.272 L14.38,10.272 C15.012,10.272 15.488,10.406 15.808,10.674 C16.128,10.942 16.288,11.332 16.288,11.844 C16.288,12.356 16.128,12.748 15.808,13.02 C15.488,13.292 15.012,13.428 14.38,13.428 L14.38,13.428 Z M19.375,18 L19.375,14.556 C19.375,14.036 19.517,13.594 19.801,13.23 C20.085,12.866 20.519,12.684 21.103,12.684 C21.343,12.684 21.555,12.716 21.739,12.78 L21.739,12.78 L21.763,11.892 C21.595,11.844 21.411,11.82 21.211,11.82 C20.779,11.82 20.395,11.928 20.059,12.144 C19.723,12.36 19.479,12.672 19.327,13.08 L19.327,13.08 L19.231,11.964 L18.307,11.964 C18.371,12.468 18.403,13.032 18.403,13.656 L18.403,13.656 L18.403,18 L19.375,18 Z M24.898,18.084 C25.466,18.084 25.966,17.956 26.398,17.7 C26.83,17.444 27.164,17.08 27.4,16.608 C27.636,16.136 27.754,15.584 27.754,14.952 C27.754,14.32 27.636,13.768 27.4,13.296 C27.164,12.824 26.83,12.46 26.398,12.204 C25.966,11.948 25.466,11.82 24.898,11.82 C24.33,11.82 23.83,11.948 23.398,12.204 C22.966,12.46 22.632,12.824 22.396,13.296 C22.16,13.768 22.042,14.32 22.042,14.952 C22.042,15.584 22.16,16.136 22.396,16.608 C22.632,17.08 22.966,17.444 23.398,17.7 C23.83,17.956 24.33,18.084 24.898,18.084 Z M24.898,17.28 C24.298,17.28 23.836,17.082 23.512,16.686 C23.188,16.29 23.026,15.712 23.026,14.952 C23.026,14.216 23.19,13.646 23.518,13.242 C23.846,12.838 24.306,12.636 24.898,12.636 C25.482,12.636 25.938,12.838 26.266,13.242 C26.594,13.646 26.758,14.216 26.758,14.952 C26.758,15.712 26.598,16.29 26.278,16.686 C25.958,17.082 25.498,17.28 24.898,17.28 Z M30.121,10.512 L30.121,9.408 L28.933,9.408 L28.933,10.512 L30.121,10.512 Z M28.237,20.64 C28.789,20.64 29.223,20.478 29.539,20.154 C29.855,19.83 30.013,19.352 30.013,18.72 L30.013,18.72 L30.013,11.964 L29.041,11.964 L29.041,18.6 C29.041,19.4 28.705,19.8 28.033,19.8 C27.857,19.8 27.661,19.768 27.445,19.704 L27.445,19.704 L27.445,20.532 C27.709,20.604 27.973,20.64 28.237,20.64 Z M34.336,18.084 C34.768,18.084 35.19,18.012 35.602,17.868 C36.014,17.724 36.352,17.528 36.616,17.28 L36.616,17.28 L36.292,16.572 C35.7,17.044 35.052,17.28 34.348,17.28 C33.684,17.28 33.178,17.084 32.83,16.692 C32.482,16.3 32.304,15.72 32.296,14.952 L32.296,14.952 L36.724,14.952 L36.724,14.772 C36.724,13.852 36.496,13.13 36.04,12.606 C35.584,12.082 34.956,11.82 34.156,11.82 C33.604,11.82 33.112,11.952 32.68,12.216 C32.248,12.48 31.912,12.85 31.672,13.326 C31.432,13.802 31.312,14.348 31.312,14.964 C31.312,15.932 31.58,16.694 32.116,17.25 C32.652,17.806 33.392,18.084 34.336,18.084 Z M35.848,14.316 L32.332,14.316 C32.42,13.764 32.622,13.336 32.938,13.032 C33.254,12.728 33.664,12.576 34.168,12.576 C34.672,12.576 35.066,12.724 35.35,13.02 C35.634,13.316 35.8,13.748 35.848,14.316 L35.848,14.316 Z M40.507,18.084 C40.923,18.084 41.325,18.014 41.713,17.874 C42.101,17.734 42.423,17.544 42.679,17.304 L42.679,17.304 L42.355,16.584 C42.051,16.824 41.757,17 41.473,17.112 C41.189,17.224 40.899,17.28 40.603,17.28 C39.979,17.28 39.493,17.078 39.145,16.674 C38.797,16.27 38.623,15.704 38.623,14.976 C38.623,14.24 38.799,13.666 39.151,13.254 C39.503,12.842 39.987,12.636 40.603,12.636 C40.899,12.636 41.189,12.692 41.473,12.804 C41.757,12.916 42.051,13.092 42.355,13.332 L42.355,13.332 L42.679,12.612 C42.431,12.364 42.117,12.17 41.737,12.03 C41.357,11.89 40.963,11.82 40.555,11.82 C39.963,11.82 39.445,11.952 39.001,12.216 C38.557,12.48 38.215,12.85 37.975,13.326 C37.735,13.802 37.615,14.352 37.615,14.976 C37.615,15.6 37.733,16.146 37.969,16.614 C38.205,17.082 38.541,17.444 38.977,17.7 C39.413,17.956 39.923,18.084 40.507,18.084 Z M45.862,18.084 C46.174,18.084 46.454,18.044 46.702,17.964 L46.702,17.964 L46.702,17.136 C46.494,17.208 46.278,17.244 46.054,17.244 C45.718,17.244 45.458,17.154 45.274,16.974 C45.09,16.794 44.998,16.48 44.998,16.032 L44.998,16.032 L44.998,12.732 L46.726,12.732 L46.726,11.964 L44.998,11.964 L44.998,10.068 L44.026,10.416 L44.026,11.964 L42.85,11.964 L42.85,12.732 L44.026,12.732 L44.026,16.164 C44.026,16.796 44.188,17.274 44.512,17.598 C44.836,17.922 45.286,18.084 45.862,18.084 Z M50.341,18.084 C50.773,18.084 51.195,18.012 51.607,17.868 C52.019,17.724 52.357,17.528 52.621,17.28 L52.621,17.28 L52.297,16.572 C51.705,17.044 51.057,17.28 50.353,17.28 C49.689,17.28 49.183,17.084 48.835,16.692 C48.487,16.3 48.309,15.72 48.301,14.952 L48.301,14.952 L52.729,14.952 L52.729,14.772 C52.729,13.852 52.501,13.13 52.045,12.606 C51.589,12.082 50.961,11.82 50.161,11.82 C49.609,11.82 49.117,11.952 48.685,12.216 C48.253,12.48 47.917,12.85 47.677,13.326 C47.437,13.802 47.317,14.348 47.317,14.964 C47.317,15.932 47.585,16.694 48.121,17.25 C48.657,17.806 49.397,18.084 50.341,18.084 Z M51.853,14.316 L48.337,14.316 C48.425,13.764 48.627,13.336 48.943,13.032 C49.259,12.728 49.669,12.576 50.173,12.576 C50.677,12.576 51.071,12.724 51.355,13.02 C51.639,13.316 51.805,13.748 51.853,14.316 L51.853,14.316 Z M56.296,18.084 C56.768,18.084 57.182,17.982 57.538,17.778 C57.894,17.574 58.16,17.284 58.336,16.908 L58.336,16.908 L58.336,18 L59.296,18 L59.296,9.168 L58.324,9.168 L58.324,12.984 C58.148,12.616 57.884,12.33 57.532,12.126 C57.18,11.922 56.768,11.82 56.296,11.82 C55.768,11.82 55.3,11.948 54.892,12.204 C54.484,12.46 54.17,12.822 53.95,13.29 C53.73,13.758 53.62,14.304 53.62,14.928 C53.62,15.552 53.732,16.102 53.956,16.578 C54.18,17.054 54.494,17.424 54.898,17.688 C55.302,17.952 55.768,18.084 56.296,18.084 Z M56.488,17.28 C55.896,17.28 55.434,17.074 55.102,16.662 C54.77,16.25 54.604,15.672 54.604,14.928 C54.604,14.2 54.77,13.636 55.102,13.236 C55.434,12.836 55.896,12.636 56.488,12.636 C57.08,12.636 57.536,12.838 57.856,13.242 C58.176,13.646 58.336,14.216 58.336,14.952 C58.336,15.696 58.176,16.27 57.856,16.674 C57.536,17.078 57.08,17.28 56.488,17.28 Z M67.042,18 L67.042,10.296 L70.018,10.296 L70.018,9.456 L63.07,9.456 L63.07,10.296 L66.046,10.296 L66.046,18 L67.042,18 Z M72.445,18.084 C73.013,18.084 73.513,17.956 73.945,17.7 C74.377,17.444 74.711,17.08 74.947,16.608 C75.183,16.136 75.301,15.584 75.301,14.952 C75.301,14.32 75.183,13.768 74.947,13.296 C74.711,12.824 74.377,12.46 73.945,12.204 C73.513,11.948 73.013,11.82 72.445,11.82 C71.877,11.82 71.377,11.948 70.945,12.204 C70.513,12.46 70.179,12.824 69.943,13.296 C69.707,13.768 69.589,14.32 69.589,14.952 C69.589,15.584 69.707,16.136 69.943,16.608 C70.179,17.08 70.513,17.444 70.945,17.7 C71.377,17.956 71.877,18.084 72.445,18.084 Z M72.445,17.28 C71.845,17.28 71.383,17.082 71.059,16.686 C70.735,16.29 70.573,15.712 70.573,14.952 C70.573,14.216 70.737,13.646 71.065,13.242 C71.393,12.838 71.853,12.636 72.445,12.636 C73.029,12.636 73.485,12.838 73.813,13.242 C74.141,13.646 74.305,14.216 74.305,14.952 C74.305,15.712 74.145,16.29 73.825,16.686 C73.505,17.082 73.045,17.28 72.445,17.28 Z M78.736,18.084 C79.048,18.084 79.328,18.044 79.576,17.964 L79.576,17.964 L79.576,17.136 C79.368,17.208 79.152,17.244 78.928,17.244 C78.592,17.244 78.332,17.154 78.148,16.974 C77.964,16.794 77.872,16.48 77.872,16.032 L77.872,16.032 L77.872,12.732 L79.6,12.732 L79.6,11.964 L77.872,11.964 L77.872,10.068 L76.9,10.416 L76.9,11.964 L75.724,11.964 L75.724,12.732 L76.9,12.732 L76.9,16.164 C76.9,16.796 77.062,17.274 77.386,17.598 C77.71,17.922 78.16,18.084 78.736,18.084 Z M82.867,18.084 C83.339,18.084 83.753,17.982 84.109,17.778 C84.465,17.574 84.731,17.284 84.907,16.908 L84.907,16.908 L84.907,18 L85.867,18 L85.867,11.964 L84.907,11.964 L84.907,13.008 C84.723,12.632 84.455,12.34 84.103,12.132 C83.751,11.924 83.339,11.82 82.867,11.82 C82.339,11.82 81.873,11.952 81.469,12.216 C81.065,12.48 80.751,12.85 80.527,13.326 C80.303,13.802 80.191,14.352 80.191,14.976 C80.191,15.6 80.301,16.146 80.521,16.614 C80.741,17.082 81.053,17.444 81.457,17.7 C81.861,17.956 82.331,18.084 82.867,18.084 Z M83.059,17.28 C82.459,17.28 81.995,17.08 81.667,16.68 C81.339,16.28 81.175,15.712 81.175,14.976 C81.175,14.24 81.341,13.666 81.673,13.254 C82.005,12.842 82.467,12.636 83.059,12.636 C83.651,12.636 84.107,12.836 84.427,13.236 C84.747,13.636 84.907,14.208 84.907,14.952 C84.907,15.696 84.747,16.27 84.427,16.674 C84.107,17.078 83.651,17.28 83.059,17.28 Z M88.498,18 L88.498,9.168 L87.526,9.168 L87.526,18 L88.498,18 Z M96.748,18 L100.48,9.456 L99.46,9.456 L96.328,16.752 L93.196,9.456 L92.152,9.456 L95.884,18 L96.748,18 Z M102.835,18.084 C103.307,18.084 103.721,17.982 104.077,17.778 C104.433,17.574 104.699,17.284 104.875,16.908 L104.875,16.908 L104.875,18 L105.835,18 L105.835,11.964 L104.875,11.964 L104.875,13.008 C104.691,12.632 104.423,12.34 104.071,12.132 C103.719,11.924 103.307,11.82 102.835,11.82 C102.307,11.82 101.841,11.952 101.437,12.216 C101.033,12.48 100.719,12.85 100.495,13.326 C100.271,13.802 100.159,14.352 100.159,14.976 C100.159,15.6 100.269,16.146 100.489,16.614 C100.709,17.082 101.021,17.444 101.425,17.7 C101.829,17.956 102.299,18.084 102.835,18.084 Z M103.027,17.28 C102.427,17.28 101.963,17.08 101.635,16.68 C101.307,16.28 101.143,15.712 101.143,14.976 C101.143,14.24 101.309,13.666 101.641,13.254 C101.973,12.842 102.435,12.636 103.027,12.636 C103.619,12.636 104.075,12.836 104.395,13.236 C104.715,13.636 104.875,14.208 104.875,14.952 C104.875,15.696 104.715,16.27 104.395,16.674 C104.075,17.078 103.619,17.28 103.027,17.28 Z M108.466,18 L108.466,9.168 L107.494,9.168 L107.494,18 L108.466,18 Z M112.261,18.084 C112.693,18.084 113.081,17.988 113.425,17.796 C113.769,17.604 114.037,17.324 114.229,16.956 L114.229,16.956 L114.229,18 L115.177,18 L115.177,11.964 L114.205,11.964 L114.205,15.372 C114.205,15.94 114.041,16.398 113.713,16.746 C113.385,17.094 112.953,17.268 112.417,17.268 C111.961,17.268 111.621,17.14 111.397,16.884 C111.173,16.628 111.061,16.228 111.061,15.684 L111.061,15.684 L111.061,11.964 L110.089,11.964 L110.089,15.708 C110.089,16.492 110.273,17.084 110.641,17.484 C111.009,17.884 111.549,18.084 112.261,18.084 Z M119.488,18.084 C119.92,18.084 120.342,18.012 120.754,17.868 C121.166,17.724 121.504,17.528 121.768,17.28 L121.768,17.28 L121.444,16.572 C120.852,17.044 120.204,17.28 119.5,17.28 C118.836,17.28 118.33,17.084 117.982,16.692 C117.634,16.3 117.456,15.72 117.448,14.952 L117.448,14.952 L121.876,14.952 L121.876,14.772 C121.876,13.852 121.648,13.13 121.192,12.606 C120.736,12.082 120.108,11.82 119.308,11.82 C118.756,11.82 118.264,11.952 117.832,12.216 C117.4,12.48 117.064,12.85 116.824,13.326 C116.584,13.802 116.464,14.348 116.464,14.964 C116.464,15.932 116.732,16.694 117.268,17.25 C117.804,17.806 118.544,18.084 119.488,18.084 Z M121,14.316 L117.484,14.316 C117.572,13.764 117.774,13.336 118.09,13.032 C118.406,12.728 118.816,12.576 119.32,12.576 C119.824,12.576 120.218,12.724 120.502,13.02 C120.786,13.316 120.952,13.748 121,14.316 L121,14.316 Z" id="ProjectedTotalValue" fill="#5E5E5E" fill-rule="nonzero"></path>
            <path d="M15.752,38.856 L15.752,37.08 C16.7546667,36.952 17.56,36.5973333 18.168,36.016 C18.776,35.4346667 19.08,34.712 19.08,33.848 C19.08,33.1973333 18.9226667,32.6746667 18.608,32.28 C18.2933333,31.8853333 17.904,31.584 17.44,31.376 C16.976,31.168 16.392,30.9786667 15.688,30.808 L15.688,30.808 L15.688,26.872 C16.6586667,26.9893333 17.5386667,27.4 18.328,28.104 L18.328,28.104 L18.92,26.872 C18.536,26.5093333 18.0693333,26.2106667 17.52,25.976 C16.9706667,25.7413333 16.3813333,25.5866667 15.752,25.512 L15.752,25.512 L15.752,23.752 L14.408,23.752 L14.408,25.512 C13.736,25.5866667 13.1386667,25.776 12.616,26.08 C12.0933333,26.384 11.6853333,26.7733333 11.392,27.248 C11.0986667,27.7226667 10.952,28.248 10.952,28.824 C10.952,29.5066667 11.1146667,30.0586667 11.44,30.48 C11.7653333,30.9013333 12.1706667,31.2186667 12.656,31.432 C13.1413333,31.6453333 13.752,31.848 14.488,32.04 L14.488,32.04 L14.488,35.768 C13.9013333,35.7253333 13.3573333,35.6026667 12.856,35.4 C12.3546667,35.1973333 11.8533333,34.8933333 11.352,34.488 L11.352,34.488 L10.76,35.72 C11.6986667,36.552 12.9146667,37.016 14.408,37.112 L14.408,37.112 L14.408,38.856 L15.752,38.856 Z M14.488,30.488 C13.8906667,30.3173333 13.4293333,30.1013333 13.104,29.84 C12.7786667,29.5786667 12.616,29.2133333 12.616,28.744 C12.616,28.232 12.7813333,27.8106667 13.112,27.48 C13.4426667,27.1493333 13.9013333,26.9413333 14.488,26.856 L14.488,26.856 L14.488,30.488 Z M15.688,35.72 L15.688,32.344 C16.2533333,32.5146667 16.6826667,32.7173333 16.976,32.952 C17.2693333,33.1866667 17.416,33.5013333 17.416,33.896 C17.416,34.3866667 17.2666667,34.7893333 16.968,35.104 C16.6693333,35.4186667 16.2426667,35.624 15.688,35.72 L15.688,35.72 Z M28.152,37 L28.152,35.64 L25.656,35.64 L25.656,25.608 L24.696,25.608 L21.672,27.496 L21.672,29.016 L23.992,27.576 L23.992,35.64 L21.496,35.64 L21.496,37 L28.152,37 Z M33.8,37.112 C35.0693333,37.112 36.08,36.832 36.832,36.272 C37.584,35.712 37.96,34.9413333 37.96,33.96 C37.96,33.2666667 37.7546667,32.6746667 37.344,32.184 C36.9333333,31.6933333 36.36,31.3466667 35.624,31.144 C36.2746667,30.9413333 36.7813333,30.608 37.144,30.144 C37.5066667,29.68 37.688,29.1386667 37.688,28.52 C37.688,27.912 37.5226667,27.3786667 37.192,26.92 C36.8613333,26.4613333 36.4026667,26.1066667 35.816,25.856 C35.2293333,25.6053333 34.5573333,25.48 33.8,25.48 C33.0426667,25.48 32.3706667,25.6053333 31.784,25.856 C31.1973333,26.1066667 30.7386667,26.4613333 30.408,26.92 C30.0773333,27.3786667 29.912,27.912 29.912,28.52 C29.912,29.1386667 30.096,29.6773333 30.464,30.136 C30.832,30.5946667 31.3466667,30.9306667 32.008,31.144 C31.2613333,31.336 30.68,31.6773333 30.264,32.168 C29.848,32.6586667 29.64,33.256 29.64,33.96 C29.64,34.9413333 30.016,35.712 30.768,36.272 C31.52,36.832 32.5306667,37.112 33.8,37.112 Z M33.8,30.68 C33.096,30.584 32.536,30.3626667 32.12,30.016 C31.704,29.6693333 31.496,29.2186667 31.496,28.664 C31.496,28.0773333 31.7013333,27.6213333 32.112,27.296 C32.5226667,26.9706667 33.0853333,26.808 33.8,26.808 C34.5146667,26.808 35.0773333,26.9706667 35.488,27.296 C35.8986667,27.6213333 36.104,28.0773333 36.104,28.664 C36.104,29.2186667 35.896,29.6693333 35.48,30.016 C35.064,30.3626667 34.504,30.584 33.8,30.68 Z M33.8,35.784 C32.9786667,35.784 32.344,35.6186667 31.896,35.288 C31.448,34.9573333 31.224,34.4773333 31.224,33.848 C31.224,33.2613333 31.456,32.7946667 31.92,32.448 C32.384,32.1013333 33.0106667,31.88 33.8,31.784 C34.5893333,31.88 35.216,32.1013333 35.68,32.448 C36.144,32.7946667 36.376,33.2613333 36.376,33.848 C36.376,34.4773333 36.152,34.9573333 35.704,35.288 C35.256,35.6186667 34.6213333,35.784 33.8,35.784 Z M42.76,37.128 C43.6986667,37.128 44.5066667,36.888 45.184,36.408 C45.8613333,35.928 46.3786667,35.232 46.736,34.32 C47.0933333,33.408 47.272,32.3173333 47.272,31.048 C47.272,29.256 46.8933333,27.88 46.136,26.92 C45.3786667,25.96 44.296,25.48 42.888,25.48 C42.1733333,25.48 41.5306667,25.64 40.96,25.96 C40.3893333,26.28 39.944,26.72 39.624,27.28 C39.304,27.84 39.144,28.4773333 39.144,29.192 C39.144,29.9066667 39.2933333,30.5386667 39.592,31.088 C39.8906667,31.6373333 40.3066667,32.064 40.84,32.368 C41.3733333,32.672 41.9813333,32.824 42.664,32.824 C43.3466667,32.824 43.952,32.664 44.48,32.344 C45.008,32.024 45.3893333,31.5866667 45.624,31.032 L45.624,31.032 L45.624,31.08 C45.624,32.584 45.3706667,33.744 44.864,34.56 C44.3573333,35.376 43.64,35.784 42.712,35.784 C42.232,35.784 41.7493333,35.6853333 41.264,35.488 C40.7786667,35.2906667 40.2693333,34.9733333 39.736,34.536 L39.736,34.536 L39.16,35.752 C39.6293333,36.1893333 40.1786667,36.528 40.808,36.768 C41.4373333,37.008 42.088,37.128 42.76,37.128 Z M42.968,31.48 C42.3066667,31.48 41.7706667,31.2666667 41.36,30.84 C40.9493333,30.4133333 40.744,29.8533333 40.744,29.16 C40.744,28.456 40.9466667,27.8906667 41.352,27.464 C41.7573333,27.0373333 42.296,26.824 42.968,26.824 C43.6506667,26.824 44.2053333,27.04 44.632,27.472 C45.0586667,27.904 45.272,28.4666667 45.272,29.16 C45.272,29.8426667 45.0586667,30.4 44.632,30.832 C44.2053333,31.264 43.6506667,31.48 42.968,31.48 Z M49.64,38.984 C50.0453333,38.5786667 50.3333333,38.1706667 50.504,37.76 C50.6746667,37.3493333 50.76,36.8933333 50.76,36.392 L50.76,36.392 L50.76,35.08 L48.84,35.08 L48.84,37 L49.72,37 C49.656,37.4586667 49.4,37.9333333 48.952,38.424 L48.952,38.424 L49.64,38.984 Z M55.88,37.128 C56.8186667,37.128 57.6266667,36.888 58.304,36.408 C58.9813333,35.928 59.4986667,35.232 59.856,34.32 C60.2133333,33.408 60.392,32.3173333 60.392,31.048 C60.392,29.256 60.0133333,27.88 59.256,26.92 C58.4986667,25.96 57.416,25.48 56.008,25.48 C55.2933333,25.48 54.6506667,25.64 54.08,25.96 C53.5093333,26.28 53.064,26.72 52.744,27.28 C52.424,27.84 52.264,28.4773333 52.264,29.192 C52.264,29.9066667 52.4133333,30.5386667 52.712,31.088 C53.0106667,31.6373333 53.4266667,32.064 53.96,32.368 C54.4933333,32.672 55.1013333,32.824 55.784,32.824 C56.4666667,32.824 57.072,32.664 57.6,32.344 C58.128,32.024 58.5093333,31.5866667 58.744,31.032 L58.744,31.032 L58.744,31.08 C58.744,32.584 58.4906667,33.744 57.984,34.56 C57.4773333,35.376 56.76,35.784 55.832,35.784 C55.352,35.784 54.8693333,35.6853333 54.384,35.488 C53.8986667,35.2906667 53.3893333,34.9733333 52.856,34.536 L52.856,34.536 L52.28,35.752 C52.7493333,36.1893333 53.2986667,36.528 53.928,36.768 C54.5573333,37.008 55.208,37.128 55.88,37.128 Z M56.088,31.48 C55.4266667,31.48 54.8906667,31.2666667 54.48,30.84 C54.0693333,30.4133333 53.864,29.8533333 53.864,29.16 C53.864,28.456 54.0666667,27.8906667 54.472,27.464 C54.8773333,27.0373333 55.416,26.824 56.088,26.824 C56.7706667,26.824 57.3253333,27.04 57.752,27.472 C58.1786667,27.904 58.392,28.4666667 58.392,29.16 C58.392,29.8426667 58.1786667,30.4 57.752,30.832 C57.3253333,31.264 56.7706667,31.48 56.088,31.48 Z M69.592,37 L69.592,35.64 L67.096,35.64 L67.096,25.608 L66.136,25.608 L63.112,27.496 L63.112,29.016 L65.432,27.576 L65.432,35.64 L62.936,35.64 L62.936,37 L69.592,37 Z M79.032,37 L79.032,35.64 L76.536,35.64 L76.536,25.608 L75.576,25.608 L72.552,27.496 L72.552,29.016 L74.872,27.576 L74.872,35.64 L72.376,35.64 L72.376,37 L79.032,37 Z" id="$189,911" fill="#000000" fill-rule="nonzero"></path>
        </g>
        <path d="M300,75.3153848 C303.333333,72.627889 305,70.2204816 305,68.0931626 C305,64.902184 302.761424,62.3153848 300,62.3153848 C297.238576,62.3153848 295,64.902184 295,68.0931626 C295,70.2204816 296.666667,72.627889 300,75.3153848 Z" id="Oval-Copy-2" fill-opacity="0.4" fill="#33D4CF"></path>
        <g id="Group-2" transform="translate(10.000000, 274.000000)">
            <g id="Group" fill-rule="nonzero">
                <path d="M27.459,13 L27.459,4.654 L30.683,4.654 L30.683,3.744 L23.156,3.744 L23.156,4.654 L26.38,4.654 L26.38,13 L27.459,13 Z M33.31225,13.091 C33.9275833,13.091 34.46925,12.9523333 34.93725,12.675 C35.40525,12.3976667 35.7670833,12.0033333 36.02275,11.492 C36.2784167,10.9806667 36.40625,10.3826667 36.40625,9.698 C36.40625,9.01333333 36.2784167,8.41533333 36.02275,7.904 C35.7670833,7.39266667 35.40525,6.99833333 34.93725,6.721 C34.46925,6.44366667 33.9275833,6.305 33.31225,6.305 C32.6969167,6.305 32.15525,6.44366667 31.68725,6.721 C31.21925,6.99833333 30.8574167,7.39266667 30.60175,7.904 C30.3460833,8.41533333 30.21825,9.01333333 30.21825,9.698 C30.21825,10.3826667 30.3460833,10.9806667 30.60175,11.492 C30.8574167,12.0033333 31.21925,12.3976667 31.68725,12.675 C32.15525,12.9523333 32.6969167,13.091 33.31225,13.091 Z M33.31225,12.22 C32.66225,12.22 32.16175,12.0055 31.81075,11.5765 C31.45975,11.1475 31.28425,10.5213333 31.28425,9.698 C31.28425,8.90066667 31.4619167,8.28316667 31.81725,7.8455 C32.1725833,7.40783333 32.6709167,7.189 33.31225,7.189 C33.9449167,7.189 34.4389167,7.40783333 34.79425,7.8455 C35.1495833,8.28316667 35.32725,8.90066667 35.32725,9.698 C35.32725,10.5213333 35.1539167,11.1475 34.80725,11.5765 C34.4605833,12.0055 33.96225,12.22 33.31225,12.22 Z M40.1275,13.091 C40.4655,13.091 40.7688333,13.0476667 41.0375,12.961 L41.0375,12.961 L41.0375,12.064 C40.8121667,12.142 40.5781667,12.181 40.3355,12.181 C39.9715,12.181 39.6898333,12.0835 39.4905,11.8885 C39.2911667,11.6935 39.1915,11.3533333 39.1915,10.868 L39.1915,10.868 L39.1915,7.293 L41.0635,7.293 L41.0635,6.461 L39.1915,6.461 L39.1915,4.407 L38.1385,4.784 L38.1385,6.461 L36.8645,6.461 L36.8645,7.293 L38.1385,7.293 L38.1385,11.011 C38.1385,11.6956667 38.314,12.2135 38.665,12.5645 C39.016,12.9155 39.5035,13.091 40.1275,13.091 Z M44.60275,13.091 C45.1140833,13.091 45.5625833,12.9805 45.94825,12.7595 C46.3339167,12.5385 46.6220833,12.2243333 46.81275,11.817 L46.81275,11.817 L46.81275,13 L47.85275,13 L47.85275,6.461 L46.81275,6.461 L46.81275,7.592 C46.6134167,7.18466667 46.3230833,6.86833333 45.94175,6.643 C45.5604167,6.41766667 45.1140833,6.305 44.60275,6.305 C44.03075,6.305 43.5259167,6.448 43.08825,6.734 C42.6505833,7.02 42.3104167,7.42083333 42.06775,7.9365 C41.8250833,8.45216667 41.70375,9.048 41.70375,9.724 C41.70375,10.4 41.8229167,10.9915 42.06125,11.4985 C42.2995833,12.0055 42.6375833,12.3976667 43.07525,12.675 C43.5129167,12.9523333 44.0220833,13.091 44.60275,13.091 Z M44.81075,12.22 C44.16075,12.22 43.6580833,12.0033333 43.30275,11.57 C42.9474167,11.1366667 42.76975,10.5213333 42.76975,9.724 C42.76975,8.92666667 42.9495833,8.30483333 43.30925,7.8585 C43.6689167,7.41216667 44.1694167,7.189 44.81075,7.189 C45.4520833,7.189 45.9460833,7.40566667 46.29275,7.839 C46.6394167,8.27233333 46.81275,8.892 46.81275,9.698 C46.81275,10.504 46.6394167,11.1258333 46.29275,11.5635 C45.9460833,12.0011667 45.4520833,12.22 44.81075,12.22 Z M50.703,13 L50.703,3.432 L49.65,3.432 L49.65,13 L50.703,13 Z M56.8455,13 L56.8455,8.931 L59.4715,8.931 C60.4161667,8.931 61.1571667,8.69916667 61.6945,8.2355 C62.2318333,7.77183333 62.5005,7.137 62.5005,6.331 C62.5005,5.525 62.234,4.89233333 61.701,4.433 C61.168,3.97366667 60.4248333,3.744 59.4715,3.744 L59.4715,3.744 L55.7795,3.744 L55.7795,13 L56.8455,13 Z M59.3805,8.047 L56.8455,8.047 L56.8455,4.628 L59.3805,4.628 C60.0651667,4.628 60.5808333,4.77316667 60.9275,5.0635 C61.2741667,5.35383333 61.4475,5.77633333 61.4475,6.331 C61.4475,6.88566667 61.2741667,7.31033333 60.9275,7.605 C60.5808333,7.89966667 60.0651667,8.047 59.3805,8.047 L59.3805,8.047 Z M66.16975,13.091 C66.6810833,13.091 67.1295833,12.9805 67.51525,12.7595 C67.9009167,12.5385 68.1890833,12.2243333 68.37975,11.817 L68.37975,11.817 L68.37975,13 L69.41975,13 L69.41975,6.461 L68.37975,6.461 L68.37975,7.592 C68.1804167,7.18466667 67.8900833,6.86833333 67.50875,6.643 C67.1274167,6.41766667 66.6810833,6.305 66.16975,6.305 C65.59775,6.305 65.0929167,6.448 64.65525,6.734 C64.2175833,7.02 63.8774167,7.42083333 63.63475,7.9365 C63.3920833,8.45216667 63.27075,9.048 63.27075,9.724 C63.27075,10.4 63.3899167,10.9915 63.62825,11.4985 C63.8665833,12.0055 64.2045833,12.3976667 64.64225,12.675 C65.0799167,12.9523333 65.5890833,13.091 66.16975,13.091 Z M66.37775,12.22 C65.72775,12.22 65.2250833,12.0033333 64.86975,11.57 C64.5144167,11.1366667 64.33675,10.5213333 64.33675,9.724 C64.33675,8.92666667 64.5165833,8.30483333 64.87625,7.8585 C65.2359167,7.41216667 65.7364167,7.189 66.37775,7.189 C67.0190833,7.189 67.5130833,7.40566667 67.85975,7.839 C68.2064167,8.27233333 68.37975,8.892 68.37975,9.698 C68.37975,10.504 68.2064167,11.1258333 67.85975,11.5635 C67.5130833,12.0011667 67.0190833,12.22 66.37775,12.22 Z M70.905,15.951 C71.6156667,15.821 72.2136667,15.5826667 72.699,15.236 C73.1843333,14.8893333 73.5873333,14.3433333 73.908,13.598 L73.908,13.598 L76.963,6.461 L75.91,6.461 L73.674,11.856 L71.464,6.461 L70.359,6.461 L73.128,12.935 L72.868,13.52 C72.66,13.9966667 72.3978333,14.3498333 72.0815,14.5795 C71.7651667,14.8091667 71.2993333,14.9933333 70.684,15.132 L70.684,15.132 L70.905,15.951 Z M80.50225,13.091 C81.1175833,13.091 81.65925,12.9523333 82.12725,12.675 C82.59525,12.3976667 82.9570833,12.0033333 83.21275,11.492 C83.4684167,10.9806667 83.59625,10.3826667 83.59625,9.698 C83.59625,9.01333333 83.4684167,8.41533333 83.21275,7.904 C82.9570833,7.39266667 82.59525,6.99833333 82.12725,6.721 C81.65925,6.44366667 81.1175833,6.305 80.50225,6.305 C79.8869167,6.305 79.34525,6.44366667 78.87725,6.721 C78.40925,6.99833333 78.0474167,7.39266667 77.79175,7.904 C77.5360833,8.41533333 77.40825,9.01333333 77.40825,9.698 C77.40825,10.3826667 77.5360833,10.9806667 77.79175,11.492 C78.0474167,12.0033333 78.40925,12.3976667 78.87725,12.675 C79.34525,12.9523333 79.8869167,13.091 80.50225,13.091 Z M80.50225,12.22 C79.85225,12.22 79.35175,12.0055 79.00075,11.5765 C78.64975,11.1475 78.47425,10.5213333 78.47425,9.698 C78.47425,8.90066667 78.6519167,8.28316667 79.00725,7.8455 C79.3625833,7.40783333 79.8609167,7.189 80.50225,7.189 C81.1349167,7.189 81.6289167,7.40783333 81.98425,7.8455 C82.3395833,8.28316667 82.51725,8.90066667 82.51725,9.698 C82.51725,10.5213333 82.3439167,11.1475 81.99725,11.5765 C81.6505833,12.0055 81.15225,12.22 80.50225,12.22 Z M87.3045,13.091 C87.7725,13.091 88.1928333,12.987 88.5655,12.779 C88.9381667,12.571 89.2285,12.2676667 89.4365,11.869 L89.4365,11.869 L89.4365,13 L90.4635,13 L90.4635,6.461 L89.4105,6.461 L89.4105,10.153 C89.4105,10.7683333 89.2328333,11.2645 88.8775,11.6415 C88.5221667,12.0185 88.0541667,12.207 87.4735,12.207 C86.9795,12.207 86.6111667,12.0683333 86.3685,11.791 C86.1258333,11.5136667 86.0045,11.0803333 86.0045,10.491 L86.0045,10.491 L86.0045,6.461 L84.9515,6.461 L84.9515,10.517 C84.9515,11.3663333 85.1508333,12.0076667 85.5495,12.441 C85.9481667,12.8743333 86.5331667,13.091 87.3045,13.091 Z M94.58775,13.091 C94.92575,13.091 95.2290833,13.0476667 95.49775,12.961 L95.49775,12.961 L95.49775,12.064 C95.2724167,12.142 95.0384167,12.181 94.79575,12.181 C94.43175,12.181 94.1500833,12.0835 93.95075,11.8885 C93.7514167,11.6935 93.65175,11.3533333 93.65175,10.868 L93.65175,10.868 L93.65175,7.293 L95.52375,7.293 L95.52375,6.461 L93.65175,6.461 L93.65175,4.407 L92.59875,4.784 L92.59875,6.461 L91.32475,6.461 L91.32475,7.293 L92.59875,7.293 L92.59875,11.011 C92.59875,11.6956667 92.77425,12.2135 93.12525,12.5645 C93.47625,12.9155 93.96375,13.091 94.58775,13.091 Z M98.764,13.091 C99.5526667,13.091 100.176667,12.922 100.636,12.584 C101.095333,12.246 101.325,11.7953333 101.325,11.232 C101.325,10.764 101.177667,10.3848333 100.883,10.0945 C100.588333,9.80416667 100.137667,9.58966667 99.531,9.451 L99.531,9.451 L98.426,9.178 C98.0706667,9.09133333 97.8128333,8.97 97.6525,8.814 C97.4921667,8.658 97.412,8.44566667 97.412,8.177 C97.412,7.85633333 97.5398333,7.60716667 97.7955,7.4295 C98.0511667,7.25183333 98.413,7.163 98.881,7.163 C99.583,7.163 100.241667,7.41866667 100.857,7.93 L100.857,7.93 L101.208,7.163 C100.930667,6.88566667 100.588333,6.67333333 100.181,6.526 C99.7736667,6.37866667 99.3403333,6.305 98.881,6.305 C98.127,6.305 97.5203333,6.48483333 97.061,6.8445 C96.6016667,7.20416667 96.372,7.67 96.372,8.242 C96.372,8.67533333 96.5215,9.048 96.8205,9.36 C97.1195,9.672 97.542,9.88866667 98.088,10.01 L98.088,10.01 L99.193,10.27 C99.5916667,10.3566667 99.8776667,10.478 100.051,10.634 C100.224333,10.79 100.311,10.998 100.311,11.258 C100.311,11.5786667 100.183167,11.8235 99.9275,11.9925 C99.6718333,12.1615 99.297,12.246 98.803,12.246 C98.3523333,12.246 97.945,12.1853333 97.581,12.064 C97.217,11.9426667 96.8573333,11.7433333 96.502,11.466 L96.502,11.466 L96.151,12.246 C96.7923333,12.8093333 97.6633333,13.091 98.764,13.091 Z" id="TotalPayouts" fill="#9B9B9B"></path>
                <rect id="Rectangle" fill="#00C9C3" x="0" y="8" width="15" height="3" rx="1"></rect>
            </g>
            <g id="Group-Copy" transform="translate(122.000000, 3.000000)">
                <path d="M25.21,10 L25.21,5.931 L27.836,5.931 C28.7806667,5.931 29.5216667,5.69916667 30.059,5.2355 C30.5963333,4.77183333 30.865,4.137 30.865,3.331 C30.865,2.525 30.5985,1.89233333 30.0655,1.433 C29.5325,0.973666667 28.7893333,0.744 27.836,0.744 L27.836,0.744 L24.144,0.744 L24.144,10 L25.21,10 Z M27.745,5.047 L25.21,5.047 L25.21,1.628 L27.745,1.628 C28.4296667,1.628 28.9453333,1.77316667 29.292,2.0635 C29.6386667,2.35383333 29.812,2.77633333 29.812,3.331 C29.812,3.88566667 29.6386667,4.31033333 29.292,4.605 C28.9453333,4.89966667 28.4296667,5.047 27.745,5.047 L27.745,5.047 Z M34.72925,10.091 C35.3445833,10.091 35.88625,9.95233333 36.35425,9.675 C36.82225,9.39766667 37.1840833,9.00333333 37.43975,8.492 C37.6954167,7.98066667 37.82325,7.38266667 37.82325,6.698 C37.82325,6.01333333 37.6954167,5.41533333 37.43975,4.904 C37.1840833,4.39266667 36.82225,3.99833333 36.35425,3.721 C35.88625,3.44366667 35.3445833,3.305 34.72925,3.305 C34.1139167,3.305 33.57225,3.44366667 33.10425,3.721 C32.63625,3.99833333 32.2744167,4.39266667 32.01875,4.904 C31.7630833,5.41533333 31.63525,6.01333333 31.63525,6.698 C31.63525,7.38266667 31.7630833,7.98066667 32.01875,8.492 C32.2744167,9.00333333 32.63625,9.39766667 33.10425,9.675 C33.57225,9.95233333 34.1139167,10.091 34.72925,10.091 Z M34.72925,9.22 C34.07925,9.22 33.57875,9.0055 33.22775,8.5765 C32.87675,8.1475 32.70125,7.52133333 32.70125,6.698 C32.70125,5.90066667 32.8789167,5.28316667 33.23425,4.8455 C33.5895833,4.40783333 34.0879167,4.189 34.72925,4.189 C35.3619167,4.189 35.8559167,4.40783333 36.21125,4.8455 C36.5665833,5.28316667 36.74425,5.90066667 36.74425,6.698 C36.74425,7.52133333 36.5709167,8.1475 36.22425,8.5765 C35.8775833,9.0055 35.37925,9.22 34.72925,9.22 Z M40.2705,10 L40.2705,6.269 C40.2705,5.70566667 40.4243333,5.22683333 40.732,4.8325 C41.0396667,4.43816667 41.5098333,4.241 42.1425,4.241 C42.4025,4.241 42.6321667,4.27566667 42.8315,4.345 L42.8315,4.345 L42.8575,3.383 C42.6755,3.331 42.4761667,3.305 42.2595,3.305 C41.7915,3.305 41.3755,3.422 41.0115,3.656 C40.6475,3.89 40.3831667,4.228 40.2185,4.67 L40.2185,4.67 L40.1145,3.461 L39.1135,3.461 C39.1828333,4.007 39.2175,4.618 39.2175,5.294 L39.2175,5.294 L39.2175,10 L40.2705,10 Z M46.52675,10.091 C46.86475,10.091 47.1680833,10.0476667 47.43675,9.961 L47.43675,9.961 L47.43675,9.064 C47.2114167,9.142 46.9774167,9.181 46.73475,9.181 C46.37075,9.181 46.0890833,9.0835 45.88975,8.8885 C45.6904167,8.6935 45.59075,8.35333333 45.59075,7.868 L45.59075,7.868 L45.59075,4.293 L47.46275,4.293 L47.46275,3.461 L45.59075,3.461 L45.59075,1.407 L44.53775,1.784 L44.53775,3.461 L43.26375,3.461 L43.26375,4.293 L44.53775,4.293 L44.53775,8.011 C44.53775,8.69566667 44.71325,9.2135 45.06425,9.5645 C45.41525,9.9155 45.90275,10.091 46.52675,10.091 Z M50.04,10 L50.04,4.293 L51.639,4.293 L51.639,3.461 L50.04,3.461 L50.04,2.59 C50.04,2.11333333 50.1375,1.7775 50.3325,1.5825 C50.5275,1.3875 50.7983333,1.29 51.145,1.29 C51.353,1.29 51.5783333,1.32466667 51.821,1.394 L51.821,1.394 L51.821,0.497 C51.535,0.419 51.2403333,0.38 50.937,0.38 C50.3216667,0.38 49.8428333,0.5555 49.5005,0.9065 C49.1581667,1.2575 48.987,1.77533333 48.987,2.46 L48.987,2.46 L48.987,3.461 L47.713,3.461 L47.713,4.293 L48.987,4.293 L48.987,10 L50.04,10 Z M55.41225,10.091 C56.0275833,10.091 56.56925,9.95233333 57.03725,9.675 C57.50525,9.39766667 57.8670833,9.00333333 58.12275,8.492 C58.3784167,7.98066667 58.50625,7.38266667 58.50625,6.698 C58.50625,6.01333333 58.3784167,5.41533333 58.12275,4.904 C57.8670833,4.39266667 57.50525,3.99833333 57.03725,3.721 C56.56925,3.44366667 56.0275833,3.305 55.41225,3.305 C54.7969167,3.305 54.25525,3.44366667 53.78725,3.721 C53.31925,3.99833333 52.9574167,4.39266667 52.70175,4.904 C52.4460833,5.41533333 52.31825,6.01333333 52.31825,6.698 C52.31825,7.38266667 52.4460833,7.98066667 52.70175,8.492 C52.9574167,9.00333333 53.31925,9.39766667 53.78725,9.675 C54.25525,9.95233333 54.7969167,10.091 55.41225,10.091 Z M55.41225,9.22 C54.76225,9.22 54.26175,9.0055 53.91075,8.5765 C53.55975,8.1475 53.38425,7.52133333 53.38425,6.698 C53.38425,5.90066667 53.5619167,5.28316667 53.91725,4.8455 C54.2725833,4.40783333 54.7709167,4.189 55.41225,4.189 C56.0449167,4.189 56.5389167,4.40783333 56.89425,4.8455 C57.2495833,5.28316667 57.42725,5.90066667 57.42725,6.698 C57.42725,7.52133333 57.2539167,8.1475 56.90725,8.5765 C56.5605833,9.0055 56.06225,9.22 55.41225,9.22 Z M60.9535,10 L60.9535,0.432 L59.9005,0.432 L59.9005,10 L60.9535,10 Z M63.93375,1.888 L63.93375,0.692 L62.64675,0.692 L62.64675,1.888 L63.93375,1.888 Z M63.80375,10 L63.80375,3.461 L62.75075,3.461 L62.75075,10 L63.80375,10 Z M68.305,10.091 C68.9203333,10.091 69.462,9.95233333 69.93,9.675 C70.398,9.39766667 70.7598333,9.00333333 71.0155,8.492 C71.2711667,7.98066667 71.399,7.38266667 71.399,6.698 C71.399,6.01333333 71.2711667,5.41533333 71.0155,4.904 C70.7598333,4.39266667 70.398,3.99833333 69.93,3.721 C69.462,3.44366667 68.9203333,3.305 68.305,3.305 C67.6896667,3.305 67.148,3.44366667 66.68,3.721 C66.212,3.99833333 65.8501667,4.39266667 65.5945,4.904 C65.3388333,5.41533333 65.211,6.01333333 65.211,6.698 C65.211,7.38266667 65.3388333,7.98066667 65.5945,8.492 C65.8501667,9.00333333 66.212,9.39766667 66.68,9.675 C67.148,9.95233333 67.6896667,10.091 68.305,10.091 Z M68.305,9.22 C67.655,9.22 67.1545,9.0055 66.8035,8.5765 C66.4525,8.1475 66.277,7.52133333 66.277,6.698 C66.277,5.90066667 66.4546667,5.28316667 66.81,4.8455 C67.1653333,4.40783333 67.6636667,4.189 68.305,4.189 C68.9376667,4.189 69.4316667,4.40783333 69.787,4.8455 C70.1423333,5.28316667 70.32,5.90066667 70.32,6.698 C70.32,7.52133333 70.1466667,8.1475 69.8,8.5765 C69.4533333,9.0055 68.955,9.22 68.305,9.22 Z M79.9335,10 L83.9765,0.744 L82.8715,0.744 L79.4785,8.648 L76.0855,0.744 L74.9545,0.744 L78.9975,10 L79.9335,10 Z M86.52775,10.091 C87.0390833,10.091 87.4875833,9.9805 87.87325,9.7595 C88.2589167,9.5385 88.5470833,9.22433333 88.73775,8.817 L88.73775,8.817 L88.73775,10 L89.77775,10 L89.77775,3.461 L88.73775,3.461 L88.73775,4.592 C88.5384167,4.18466667 88.2480833,3.86833333 87.86675,3.643 C87.4854167,3.41766667 87.0390833,3.305 86.52775,3.305 C85.95575,3.305 85.4509167,3.448 85.01325,3.734 C84.5755833,4.02 84.2354167,4.42083333 83.99275,4.9365 C83.7500833,5.45216667 83.62875,6.048 83.62875,6.724 C83.62875,7.4 83.7479167,7.9915 83.98625,8.4985 C84.2245833,9.0055 84.5625833,9.39766667 85.00025,9.675 C85.4379167,9.95233333 85.9470833,10.091 86.52775,10.091 Z M86.73575,9.22 C86.08575,9.22 85.5830833,9.00333333 85.22775,8.57 C84.8724167,8.13666667 84.69475,7.52133333 84.69475,6.724 C84.69475,5.92666667 84.8745833,5.30483333 85.23425,4.8585 C85.5939167,4.41216667 86.0944167,4.189 86.73575,4.189 C87.3770833,4.189 87.8710833,4.40566667 88.21775,4.839 C88.5644167,5.27233333 88.73775,5.892 88.73775,6.698 C88.73775,7.504 88.5644167,8.12583333 88.21775,8.5635 C87.8710833,9.00116667 87.3770833,9.22 86.73575,9.22 Z M92.628,10 L92.628,0.432 L91.575,0.432 L91.575,10 L92.628,10 Z M96.73925,10.091 C97.20725,10.091 97.6275833,9.987 98.00025,9.779 C98.3729167,9.571 98.66325,9.26766667 98.87125,8.869 L98.87125,8.869 L98.87125,10 L99.89825,10 L99.89825,3.461 L98.84525,3.461 L98.84525,7.153 C98.84525,7.76833333 98.6675833,8.2645 98.31225,8.6415 C97.9569167,9.0185 97.4889167,9.207 96.90825,9.207 C96.41425,9.207 96.0459167,9.06833333 95.80325,8.791 C95.5605833,8.51366667 95.43925,8.08033333 95.43925,7.491 L95.43925,7.491 L95.43925,3.461 L94.38625,3.461 L94.38625,7.517 C94.38625,8.36633333 94.5855833,9.00766667 94.98425,9.441 C95.3829167,9.87433333 95.9679167,10.091 96.73925,10.091 Z M104.5685,10.091 C105.0365,10.091 105.493667,10.013 105.94,9.857 C106.386333,9.701 106.7525,9.48866667 107.0385,9.22 L107.0385,9.22 L106.6875,8.453 C106.046167,8.96433333 105.344167,9.22 104.5815,9.22 C103.862167,9.22 103.314,9.00766667 102.937,8.583 C102.56,8.15833333 102.367167,7.53 102.3585,6.698 L102.3585,6.698 L107.1555,6.698 L107.1555,6.503 C107.1555,5.50633333 106.9085,4.72416667 106.4145,4.1565 C105.9205,3.58883333 105.240167,3.305 104.3735,3.305 C103.7755,3.305 103.2425,3.448 102.7745,3.734 C102.3065,4.02 101.9425,4.42083333 101.6825,4.9365 C101.4225,5.45216667 101.2925,6.04366667 101.2925,6.711 C101.2925,7.75966667 101.582833,8.58516667 102.1635,9.1875 C102.744167,9.78983333 103.545833,10.091 104.5685,10.091 Z M106.2065,6.009 L102.3975,6.009 C102.492833,5.411 102.711667,4.94733333 103.054,4.618 C103.396333,4.28866667 103.8405,4.124 104.3865,4.124 C104.9325,4.124 105.359333,4.28433333 105.667,4.605 C105.974667,4.92566667 106.1545,5.39366667 106.2065,6.009 L106.2065,6.009 Z" id="PortfolioValue" fill="#9B9B9B" fill-rule="nonzero"></path>
                <rect id="Rectangle" fill="#193896" x="0" y="5" width="15" height="3" rx="1"></rect>
            </g>
        </g>
        <path d="M4.2,35.0272 L4.2,33.4872 C5.07733333,33.3845333 5.782,33.0812 6.314,32.5772 C6.846,32.0732 7.112,31.4478667 7.112,30.7012 C7.112,30.1505333 6.97666667,29.7048667 6.706,29.3642 C6.43533333,29.0235333 6.097,28.7645333 5.691,28.5872 C5.285,28.4098667 4.774,28.2465333 4.158,28.0972 L4.158,28.0972 L4.158,24.3312 C5.082,24.4338667 5.88466667,24.8118667 6.566,25.4652 L6.566,25.4652 L7,24.5832 C6.65466667,24.2378667 6.237,23.9578667 5.747,23.7432 C5.257,23.5285333 4.74133333,23.3978667 4.2,23.3512 L4.2,23.3512 L4.2,21.8112 L3.22,21.8112 L3.22,23.3372 C2.62266667,23.3932 2.09533333,23.5495333 1.638,23.8062 C1.18066667,24.0628667 0.823666667,24.3965333 0.567,24.8072 C0.310333333,25.2178667 0.182,25.6798667 0.182,26.1932 C0.182,26.7812 0.324333333,27.2548667 0.609,27.6142 C0.893666667,27.9735333 1.246,28.2465333 1.666,28.4332 C2.086,28.6198667 2.618,28.7972 3.262,28.9652 L3.262,28.9652 L3.262,32.5212 C2.73,32.4932 2.23766667,32.3858667 1.785,32.1992 C1.33233333,32.0125333 0.882,31.7278667 0.434,31.3452 L0.434,31.3452 L3.54916097e-12,32.2272 C0.410666667,32.6098667 0.889,32.9085333 1.435,33.1232 C1.981,33.3378667 2.576,33.4638667 3.22,33.5012 L3.22,33.5012 L3.22,35.0272 L4.2,35.0272 Z M3.262,27.8732 C2.646,27.7052 2.17466667,27.4952 1.848,27.2432 C1.52133333,26.9912 1.358,26.6272 1.358,26.1512 C1.358,25.6378667 1.526,25.2202 1.862,24.8982 C2.198,24.5762 2.66466667,24.3872 3.262,24.3312 L3.262,24.3312 L3.262,27.8732 Z M4.158,32.4932 L4.158,29.1892 C4.73666667,29.3478667 5.18,29.5415333 5.488,29.7702 C5.796,29.9988667 5.95,30.3185333 5.95,30.7292 C5.95,31.2238667 5.79366667,31.6228667 5.481,31.9262 C5.16833333,32.2295333 4.72733333,32.4185333 4.158,32.4932 L4.158,32.4932 Z M15.21275,33.4032 L15.21275,32.4372 L10.28475,32.4372 L13.12675,29.3572 C13.7240833,28.7038667 14.1510833,28.1135333 14.40775,27.5862 C14.6644167,27.0588667 14.79275,26.5105333 14.79275,25.9412 C14.79275,25.1385333 14.52675,24.5015333 13.99475,24.0302 C13.46275,23.5588667 12.7394167,23.3232 11.82475,23.3232 C11.2180833,23.3232 10.6160833,23.4352 10.01875,23.6592 C9.42141667,23.8832 8.92675,24.1818667 8.53475,24.5552 L8.53475,24.5552 L8.96875,25.4372 C9.90208333,24.6718667 10.84475,24.2892 11.79675,24.2892 C12.38475,24.2892 12.8374167,24.4362 13.15475,24.7302 C13.4720833,25.0242 13.63075,25.4465333 13.63075,25.9972 C13.63075,26.4172 13.5234167,26.8372 13.30875,27.2572 C13.0940833,27.6772 12.7534167,28.1485333 12.28675,28.6712 L12.28675,28.6712 L8.80075,32.5352 L8.80075,33.4032 L15.21275,33.4032 Z M20.2615,33.5012 C20.9428333,33.5012 21.5378333,33.3682 22.0465,33.1022 C22.5551667,32.8362 22.9471667,32.4605333 23.2225,31.9752 C23.4978333,31.4898667 23.6355,30.9345333 23.6355,30.3092 C23.6355,29.6838667 23.5095,29.1332 23.2575,28.6572 C23.0055,28.1812 22.6438333,27.8102 22.1725,27.5442 C21.7011667,27.2782 21.1528333,27.1452 20.5275,27.1452 C19.6688333,27.1452 18.9641667,27.4112 18.4135,27.9432 L18.4135,27.9432 L18.4135,24.3872 L23.2435,24.3872 L23.2435,23.4352 L17.2655,23.4352 L17.2655,29.2732 L18.0635,29.2732 C18.6328333,28.4985333 19.3935,28.1112 20.3455,28.1112 C20.9988333,28.1112 21.5215,28.3142 21.9135,28.7202 C22.3055,29.1262 22.5015,29.6605333 22.5015,30.3232 C22.5015,31.0045333 22.3031667,31.5435333 21.9065,31.9402 C21.5098333,32.3368667 20.9615,32.5352 20.2615,32.5352 C19.2908333,32.5352 18.3435,32.1525333 17.4195,31.3872 L17.4195,31.3872 L16.9855,32.2692 C17.3868333,32.6518667 17.8815,32.9528667 18.4695,33.1722 C19.0575,33.3915333 19.6548333,33.5012 20.2615,33.5012 Z M28.37625,33.5152 C29.5149167,33.5152 30.3805833,33.0812 30.97325,32.2132 C31.5659167,31.3452 31.86225,30.0758667 31.86225,28.4052 C31.86225,26.7438667 31.5659167,25.4815333 30.97325,24.6182 C30.3805833,23.7548667 29.5149167,23.3232 28.37625,23.3232 C27.2375833,23.3232 26.3719167,23.7548667 25.77925,24.6182 C25.1865833,25.4815333 24.89025,26.7485333 24.89025,28.4192 C24.89025,30.0898667 25.1865833,31.3568667 25.77925,32.2202 C26.3719167,33.0835333 27.2375833,33.5152 28.37625,33.5152 Z M28.37625,32.5492 C27.5829167,32.5492 26.99725,32.2108667 26.61925,31.5342 C26.24125,30.8575333 26.05225,29.8145333 26.05225,28.4052 C26.05225,26.9958667 26.24125,25.9598667 26.61925,25.2972 C26.99725,24.6345333 27.5829167,24.3032 28.37625,24.3032 C29.1789167,24.3032 29.7669167,24.6345333 30.14025,25.2972 C30.5135833,25.9598667 30.70025,26.9958667 30.70025,28.4052 C30.70025,29.8238667 30.51125,30.8692 30.13325,31.5412 C29.75525,32.2132 29.1695833,32.5492 28.37625,32.5492 Z M34.671,33.4032 L34.671,30.0152 L38.283,33.4032 L39.767,33.4032 L35.903,29.7492 L39.431,26.3752 L37.989,26.3752 L34.671,29.5952 L34.671,23.0992 L33.537,23.0992 L33.537,33.4032 L34.671,33.4032 Z" id="$250k" fill="#9B9B9B" fill-rule="nonzero"></path>
        <path d="M4.2,74.6272 L4.2,73.0872 C5.07733333,72.9845333 5.782,72.6812 6.314,72.1772 C6.846,71.6732 7.112,71.0478667 7.112,70.3012 C7.112,69.7505333 6.97666667,69.3048667 6.706,68.9642 C6.43533333,68.6235333 6.097,68.3645333 5.691,68.1872 C5.285,68.0098667 4.774,67.8465333 4.158,67.6972 L4.158,67.6972 L4.158,63.9312 C5.082,64.0338667 5.88466667,64.4118667 6.566,65.0652 L6.566,65.0652 L7,64.1832 C6.65466667,63.8378667 6.237,63.5578667 5.747,63.3432 C5.257,63.1285333 4.74133333,62.9978667 4.2,62.9512 L4.2,62.9512 L4.2,61.4112 L3.22,61.4112 L3.22,62.9372 C2.62266667,62.9932 2.09533333,63.1495333 1.638,63.4062 C1.18066667,63.6628667 0.823666667,63.9965333 0.567,64.4072 C0.310333333,64.8178667 0.182,65.2798667 0.182,65.7932 C0.182,66.3812 0.324333333,66.8548667 0.609,67.2142 C0.893666667,67.5735333 1.246,67.8465333 1.666,68.0332 C2.086,68.2198667 2.618,68.3972 3.262,68.5652 L3.262,68.5652 L3.262,72.1212 C2.73,72.0932 2.23766667,71.9858667 1.785,71.7992 C1.33233333,71.6125333 0.882,71.3278667 0.434,70.9452 L0.434,70.9452 L3.54916097e-12,71.8272 C0.410666667,72.2098667 0.889,72.5085333 1.435,72.7232 C1.981,72.9378667 2.576,73.0638667 3.22,73.1012 L3.22,73.1012 L3.22,74.6272 L4.2,74.6272 Z M3.262,67.4732 C2.646,67.3052 2.17466667,67.0952 1.848,66.8432 C1.52133333,66.5912 1.358,66.2272 1.358,65.7512 C1.358,65.2378667 1.526,64.8202 1.862,64.4982 C2.198,64.1762 2.66466667,63.9872 3.262,63.9312 L3.262,63.9312 L3.262,67.4732 Z M4.158,72.0932 L4.158,68.7892 C4.73666667,68.9478667 5.18,69.1415333 5.488,69.3702 C5.796,69.5988667 5.95,69.9185333 5.95,70.3292 C5.95,70.8238667 5.79366667,71.2228667 5.481,71.5262 C5.16833333,71.8295333 4.72733333,72.0185333 4.158,72.0932 L4.158,72.0932 Z M15.21275,73.0032 L15.21275,72.0372 L10.28475,72.0372 L13.12675,68.9572 C13.7240833,68.3038667 14.1510833,67.7135333 14.40775,67.1862 C14.6644167,66.6588667 14.79275,66.1105333 14.79275,65.5412 C14.79275,64.7385333 14.52675,64.1015333 13.99475,63.6302 C13.46275,63.1588667 12.7394167,62.9232 11.82475,62.9232 C11.2180833,62.9232 10.6160833,63.0352 10.01875,63.2592 C9.42141667,63.4832 8.92675,63.7818667 8.53475,64.1552 L8.53475,64.1552 L8.96875,65.0372 C9.90208333,64.2718667 10.84475,63.8892 11.79675,63.8892 C12.38475,63.8892 12.8374167,64.0362 13.15475,64.3302 C13.4720833,64.6242 13.63075,65.0465333 13.63075,65.5972 C13.63075,66.0172 13.5234167,66.4372 13.30875,66.8572 C13.0940833,67.2772 12.7534167,67.7485333 12.28675,68.2712 L12.28675,68.2712 L8.80075,72.1352 L8.80075,73.0032 L15.21275,73.0032 Z M20.1075,73.1152 C21.2461667,73.1152 22.1118333,72.6812 22.7045,71.8132 C23.2971667,70.9452 23.5935,69.6758667 23.5935,68.0052 C23.5935,66.3438667 23.2971667,65.0815333 22.7045,64.2182 C22.1118333,63.3548667 21.2461667,62.9232 20.1075,62.9232 C18.9688333,62.9232 18.1031667,63.3548667 17.5105,64.2182 C16.9178333,65.0815333 16.6215,66.3485333 16.6215,68.0192 C16.6215,69.6898667 16.9178333,70.9568667 17.5105,71.8202 C18.1031667,72.6835333 18.9688333,73.1152 20.1075,73.1152 Z M20.1075,72.1492 C19.3141667,72.1492 18.7285,71.8108667 18.3505,71.1342 C17.9725,70.4575333 17.7835,69.4145333 17.7835,68.0052 C17.7835,66.5958667 17.9725,65.5598667 18.3505,64.8972 C18.7285,64.2345333 19.3141667,63.9032 20.1075,63.9032 C20.9101667,63.9032 21.4981667,64.2345333 21.8715,64.8972 C22.2448333,65.5598667 22.4315,66.5958667 22.4315,68.0052 C22.4315,69.4238667 22.2425,70.4692 21.8645,71.1412 C21.4865,71.8132 20.9008333,72.1492 20.1075,72.1492 Z M28.37625,73.1152 C29.5149167,73.1152 30.3805833,72.6812 30.97325,71.8132 C31.5659167,70.9452 31.86225,69.6758667 31.86225,68.0052 C31.86225,66.3438667 31.5659167,65.0815333 30.97325,64.2182 C30.3805833,63.3548667 29.5149167,62.9232 28.37625,62.9232 C27.2375833,62.9232 26.3719167,63.3548667 25.77925,64.2182 C25.1865833,65.0815333 24.89025,66.3485333 24.89025,68.0192 C24.89025,69.6898667 25.1865833,70.9568667 25.77925,71.8202 C26.3719167,72.6835333 27.2375833,73.1152 28.37625,73.1152 Z M28.37625,72.1492 C27.5829167,72.1492 26.99725,71.8108667 26.61925,71.1342 C26.24125,70.4575333 26.05225,69.4145333 26.05225,68.0052 C26.05225,66.5958667 26.24125,65.5598667 26.61925,64.8972 C26.99725,64.2345333 27.5829167,63.9032 28.37625,63.9032 C29.1789167,63.9032 29.7669167,64.2345333 30.14025,64.8972 C30.5135833,65.5598667 30.70025,66.5958667 30.70025,68.0052 C30.70025,69.4238667 30.51125,70.4692 30.13325,71.1412 C29.75525,71.8132 29.1695833,72.1492 28.37625,72.1492 Z M34.671,73.0032 L34.671,69.6152 L38.283,73.0032 L39.767,73.0032 L35.903,69.3492 L39.431,65.9752 L37.989,65.9752 L34.671,69.1952 L34.671,62.6992 L33.537,62.6992 L33.537,73.0032 L34.671,73.0032 Z" id="$200k" fill="#9B9B9B" fill-rule="nonzero"></path>
        <path d="M4.2,110.6272 L4.2,109.0872 C5.07733333,108.984533 5.782,108.6812 6.314,108.1772 C6.846,107.6732 7.112,107.047867 7.112,106.3012 C7.112,105.750533 6.97666667,105.304867 6.706,104.9642 C6.43533333,104.623533 6.097,104.364533 5.691,104.1872 C5.285,104.009867 4.774,103.846533 4.158,103.6972 L4.158,103.6972 L4.158,99.9312 C5.082,100.033867 5.88466667,100.411867 6.566,101.0652 L6.566,101.0652 L7,100.1832 C6.65466667,99.8378667 6.237,99.5578667 5.747,99.3432 C5.257,99.1285333 4.74133333,98.9978667 4.2,98.9512 L4.2,98.9512 L4.2,97.4112 L3.22,97.4112 L3.22,98.9372 C2.62266667,98.9932 2.09533333,99.1495333 1.638,99.4062 C1.18066667,99.6628667 0.823666667,99.9965333 0.567,100.4072 C0.310333333,100.817867 0.182,101.279867 0.182,101.7932 C0.182,102.3812 0.324333333,102.854867 0.609,103.2142 C0.893666667,103.573533 1.246,103.846533 1.666,104.0332 C2.086,104.219867 2.618,104.3972 3.262,104.5652 L3.262,104.5652 L3.262,108.1212 C2.73,108.0932 2.23766667,107.985867 1.785,107.7992 C1.33233333,107.612533 0.882,107.327867 0.434,106.9452 L0.434,106.9452 L3.54916097e-12,107.8272 C0.410666667,108.209867 0.889,108.508533 1.435,108.7232 C1.981,108.937867 2.576,109.063867 3.22,109.1012 L3.22,109.1012 L3.22,110.6272 L4.2,110.6272 Z M3.262,103.4732 C2.646,103.3052 2.17466667,103.0952 1.848,102.8432 C1.52133333,102.5912 1.358,102.2272 1.358,101.7512 C1.358,101.237867 1.526,100.8202 1.862,100.4982 C2.198,100.1762 2.66466667,99.9872 3.262,99.9312 L3.262,99.9312 L3.262,103.4732 Z M4.158,108.0932 L4.158,104.7892 C4.73666667,104.947867 5.18,105.141533 5.488,105.3702 C5.796,105.598867 5.95,105.918533 5.95,106.3292 C5.95,106.823867 5.79366667,107.222867 5.481,107.5262 C5.16833333,107.829533 4.72733333,108.018533 4.158,108.0932 L4.158,108.0932 Z M14.98875,109.0032 L14.98875,108.0372 L12.79075,108.0372 L12.79075,99.0352 L12.13275,99.0352 L9.58475,100.6592 L9.58475,101.7652 L11.62875,100.4632 L11.62875,108.0372 L9.43075,108.0372 L9.43075,109.0032 L14.98875,109.0032 Z M20.2615,109.1012 C20.9428333,109.1012 21.5378333,108.9682 22.0465,108.7022 C22.5551667,108.4362 22.9471667,108.060533 23.2225,107.5752 C23.4978333,107.089867 23.6355,106.534533 23.6355,105.9092 C23.6355,105.283867 23.5095,104.7332 23.2575,104.2572 C23.0055,103.7812 22.6438333,103.4102 22.1725,103.1442 C21.7011667,102.8782 21.1528333,102.7452 20.5275,102.7452 C19.6688333,102.7452 18.9641667,103.0112 18.4135,103.5432 L18.4135,103.5432 L18.4135,99.9872 L23.2435,99.9872 L23.2435,99.0352 L17.2655,99.0352 L17.2655,104.8732 L18.0635,104.8732 C18.6328333,104.098533 19.3935,103.7112 20.3455,103.7112 C20.9988333,103.7112 21.5215,103.9142 21.9135,104.3202 C22.3055,104.7262 22.5015,105.260533 22.5015,105.9232 C22.5015,106.604533 22.3031667,107.143533 21.9065,107.5402 C21.5098333,107.936867 20.9615,108.1352 20.2615,108.1352 C19.2908333,108.1352 18.3435,107.752533 17.4195,106.9872 L17.4195,106.9872 L16.9855,107.8692 C17.3868333,108.251867 17.8815,108.552867 18.4695,108.7722 C19.0575,108.991533 19.6548333,109.1012 20.2615,109.1012 Z M28.37625,109.1152 C29.5149167,109.1152 30.3805833,108.6812 30.97325,107.8132 C31.5659167,106.9452 31.86225,105.675867 31.86225,104.0052 C31.86225,102.343867 31.5659167,101.081533 30.97325,100.2182 C30.3805833,99.3548667 29.5149167,98.9232 28.37625,98.9232 C27.2375833,98.9232 26.3719167,99.3548667 25.77925,100.2182 C25.1865833,101.081533 24.89025,102.348533 24.89025,104.0192 C24.89025,105.689867 25.1865833,106.956867 25.77925,107.8202 C26.3719167,108.683533 27.2375833,109.1152 28.37625,109.1152 Z M28.37625,108.1492 C27.5829167,108.1492 26.99725,107.810867 26.61925,107.1342 C26.24125,106.457533 26.05225,105.414533 26.05225,104.0052 C26.05225,102.595867 26.24125,101.559867 26.61925,100.8972 C26.99725,100.234533 27.5829167,99.9032 28.37625,99.9032 C29.1789167,99.9032 29.7669167,100.234533 30.14025,100.8972 C30.5135833,101.559867 30.70025,102.595867 30.70025,104.0052 C30.70025,105.423867 30.51125,106.4692 30.13325,107.1412 C29.75525,107.8132 29.1695833,108.1492 28.37625,108.1492 Z M34.671,109.0032 L34.671,105.6152 L38.283,109.0032 L39.767,109.0032 L35.903,105.3492 L39.431,101.9752 L37.989,101.9752 L34.671,105.1952 L34.671,98.6992 L33.537,98.6992 L33.537,109.0032 L34.671,109.0032 Z" id="$150k" fill="#9B9B9B" fill-rule="nonzero"></path>
        <path d="M4.2,146.6272 L4.2,145.0872 C5.07733333,144.984533 5.782,144.6812 6.314,144.1772 C6.846,143.6732 7.112,143.047867 7.112,142.3012 C7.112,141.750533 6.97666667,141.304867 6.706,140.9642 C6.43533333,140.623533 6.097,140.364533 5.691,140.1872 C5.285,140.009867 4.774,139.846533 4.158,139.6972 L4.158,139.6972 L4.158,135.9312 C5.082,136.033867 5.88466667,136.411867 6.566,137.0652 L6.566,137.0652 L7,136.1832 C6.65466667,135.837867 6.237,135.557867 5.747,135.3432 C5.257,135.128533 4.74133333,134.997867 4.2,134.9512 L4.2,134.9512 L4.2,133.4112 L3.22,133.4112 L3.22,134.9372 C2.62266667,134.9932 2.09533333,135.149533 1.638,135.4062 C1.18066667,135.662867 0.823666667,135.996533 0.567,136.4072 C0.310333333,136.817867 0.182,137.279867 0.182,137.7932 C0.182,138.3812 0.324333333,138.854867 0.609,139.2142 C0.893666667,139.573533 1.246,139.846533 1.666,140.0332 C2.086,140.219867 2.618,140.3972 3.262,140.5652 L3.262,140.5652 L3.262,144.1212 C2.73,144.0932 2.23766667,143.985867 1.785,143.7992 C1.33233333,143.612533 0.882,143.327867 0.434,142.9452 L0.434,142.9452 L3.54916097e-12,143.8272 C0.410666667,144.209867 0.889,144.508533 1.435,144.7232 C1.981,144.937867 2.576,145.063867 3.22,145.1012 L3.22,145.1012 L3.22,146.6272 L4.2,146.6272 Z M3.262,139.4732 C2.646,139.3052 2.17466667,139.0952 1.848,138.8432 C1.52133333,138.5912 1.358,138.2272 1.358,137.7512 C1.358,137.237867 1.526,136.8202 1.862,136.4982 C2.198,136.1762 2.66466667,135.9872 3.262,135.9312 L3.262,135.9312 L3.262,139.4732 Z M4.158,144.0932 L4.158,140.7892 C4.73666667,140.947867 5.18,141.141533 5.488,141.3702 C5.796,141.598867 5.95,141.918533 5.95,142.3292 C5.95,142.823867 5.79366667,143.222867 5.481,143.5262 C5.16833333,143.829533 4.72733333,144.018533 4.158,144.0932 L4.158,144.0932 Z M14.98875,145.0032 L14.98875,144.0372 L12.79075,144.0372 L12.79075,135.0352 L12.13275,135.0352 L9.58475,136.6592 L9.58475,137.7652 L11.62875,136.4632 L11.62875,144.0372 L9.43075,144.0372 L9.43075,145.0032 L14.98875,145.0032 Z M20.1075,145.1152 C21.2461667,145.1152 22.1118333,144.6812 22.7045,143.8132 C23.2971667,142.9452 23.5935,141.675867 23.5935,140.0052 C23.5935,138.343867 23.2971667,137.081533 22.7045,136.2182 C22.1118333,135.354867 21.2461667,134.9232 20.1075,134.9232 C18.9688333,134.9232 18.1031667,135.354867 17.5105,136.2182 C16.9178333,137.081533 16.6215,138.348533 16.6215,140.0192 C16.6215,141.689867 16.9178333,142.956867 17.5105,143.8202 C18.1031667,144.683533 18.9688333,145.1152 20.1075,145.1152 Z M20.1075,144.1492 C19.3141667,144.1492 18.7285,143.810867 18.3505,143.1342 C17.9725,142.457533 17.7835,141.414533 17.7835,140.0052 C17.7835,138.595867 17.9725,137.559867 18.3505,136.8972 C18.7285,136.234533 19.3141667,135.9032 20.1075,135.9032 C20.9101667,135.9032 21.4981667,136.234533 21.8715,136.8972 C22.2448333,137.559867 22.4315,138.595867 22.4315,140.0052 C22.4315,141.423867 22.2425,142.4692 21.8645,143.1412 C21.4865,143.8132 20.9008333,144.1492 20.1075,144.1492 Z M28.37625,145.1152 C29.5149167,145.1152 30.3805833,144.6812 30.97325,143.8132 C31.5659167,142.9452 31.86225,141.675867 31.86225,140.0052 C31.86225,138.343867 31.5659167,137.081533 30.97325,136.2182 C30.3805833,135.354867 29.5149167,134.9232 28.37625,134.9232 C27.2375833,134.9232 26.3719167,135.354867 25.77925,136.2182 C25.1865833,137.081533 24.89025,138.348533 24.89025,140.0192 C24.89025,141.689867 25.1865833,142.956867 25.77925,143.8202 C26.3719167,144.683533 27.2375833,145.1152 28.37625,145.1152 Z M28.37625,144.1492 C27.5829167,144.1492 26.99725,143.810867 26.61925,143.1342 C26.24125,142.457533 26.05225,141.414533 26.05225,140.0052 C26.05225,138.595867 26.24125,137.559867 26.61925,136.8972 C26.99725,136.234533 27.5829167,135.9032 28.37625,135.9032 C29.1789167,135.9032 29.7669167,136.234533 30.14025,136.8972 C30.5135833,137.559867 30.70025,138.595867 30.70025,140.0052 C30.70025,141.423867 30.51125,142.4692 30.13325,143.1412 C29.75525,143.8132 29.1695833,144.1492 28.37625,144.1492 Z M34.671,145.0032 L34.671,141.6152 L38.283,145.0032 L39.767,145.0032 L35.903,141.3492 L39.431,137.9752 L37.989,137.9752 L34.671,141.1952 L34.671,134.6992 L33.537,134.6992 L33.537,145.0032 L34.671,145.0032 Z" id="$100k" fill="#9B9B9B" fill-rule="nonzero"></path>
        <path d="M4.2,182.6272 L4.2,181.0872 C5.07733333,180.984533 5.782,180.6812 6.314,180.1772 C6.846,179.6732 7.112,179.047867 7.112,178.3012 C7.112,177.750533 6.97666667,177.304867 6.706,176.9642 C6.43533333,176.623533 6.097,176.364533 5.691,176.1872 C5.285,176.009867 4.774,175.846533 4.158,175.6972 L4.158,175.6972 L4.158,171.9312 C5.082,172.033867 5.88466667,172.411867 6.566,173.0652 L6.566,173.0652 L7,172.1832 C6.65466667,171.837867 6.237,171.557867 5.747,171.3432 C5.257,171.128533 4.74133333,170.997867 4.2,170.9512 L4.2,170.9512 L4.2,169.4112 L3.22,169.4112 L3.22,170.9372 C2.62266667,170.9932 2.09533333,171.149533 1.638,171.4062 C1.18066667,171.662867 0.823666667,171.996533 0.567,172.4072 C0.310333333,172.817867 0.182,173.279867 0.182,173.7932 C0.182,174.3812 0.324333333,174.854867 0.609,175.2142 C0.893666667,175.573533 1.246,175.846533 1.666,176.0332 C2.086,176.219867 2.618,176.3972 3.262,176.5652 L3.262,176.5652 L3.262,180.1212 C2.73,180.0932 2.23766667,179.985867 1.785,179.7992 C1.33233333,179.612533 0.882,179.327867 0.434,178.9452 L0.434,178.9452 L2.09610107e-12,179.8272 C0.410666667,180.209867 0.889,180.508533 1.435,180.7232 C1.981,180.937867 2.576,181.063867 3.22,181.1012 L3.22,181.1012 L3.22,182.6272 L4.2,182.6272 Z M3.262,175.4732 C2.646,175.3052 2.17466667,175.0952 1.848,174.8432 C1.52133333,174.5912 1.358,174.2272 1.358,173.7512 C1.358,173.237867 1.526,172.8202 1.862,172.4982 C2.198,172.1762 2.66466667,171.9872 3.262,171.9312 L3.262,171.9312 L3.262,175.4732 Z M4.158,180.0932 L4.158,176.7892 C4.73666667,176.947867 5.18,177.141533 5.488,177.3702 C5.796,177.598867 5.95,177.918533 5.95,178.3292 C5.95,178.823867 5.79366667,179.222867 5.481,179.5262 C5.16833333,179.829533 4.72733333,180.018533 4.158,180.0932 L4.158,180.0932 Z M11.99275,181.1012 C12.6740833,181.1012 13.2690833,180.9682 13.77775,180.7022 C14.2864167,180.4362 14.6784167,180.060533 14.95375,179.5752 C15.2290833,179.089867 15.36675,178.534533 15.36675,177.9092 C15.36675,177.283867 15.24075,176.7332 14.98875,176.2572 C14.73675,175.7812 14.3750833,175.4102 13.90375,175.1442 C13.4324167,174.8782 12.8840833,174.7452 12.25875,174.7452 C11.4000833,174.7452 10.6954167,175.0112 10.14475,175.5432 L10.14475,175.5432 L10.14475,171.9872 L14.97475,171.9872 L14.97475,171.0352 L8.99675,171.0352 L8.99675,176.8732 L9.79475,176.8732 C10.3640833,176.098533 11.12475,175.7112 12.07675,175.7112 C12.7300833,175.7112 13.25275,175.9142 13.64475,176.3202 C14.03675,176.7262 14.23275,177.260533 14.23275,177.9232 C14.23275,178.604533 14.0344167,179.143533 13.63775,179.5402 C13.2410833,179.936867 12.69275,180.1352 11.99275,180.1352 C11.0220833,180.1352 10.07475,179.752533 9.15075,178.9872 L9.15075,178.9872 L8.71675,179.8692 C9.11808333,180.251867 9.61275,180.552867 10.20075,180.7722 C10.78875,180.991533 11.3860833,181.1012 11.99275,181.1012 Z M20.1075,181.1152 C21.2461667,181.1152 22.1118333,180.6812 22.7045,179.8132 C23.2971667,178.9452 23.5935,177.675867 23.5935,176.0052 C23.5935,174.343867 23.2971667,173.081533 22.7045,172.2182 C22.1118333,171.354867 21.2461667,170.9232 20.1075,170.9232 C18.9688333,170.9232 18.1031667,171.354867 17.5105,172.2182 C16.9178333,173.081533 16.6215,174.348533 16.6215,176.0192 C16.6215,177.689867 16.9178333,178.956867 17.5105,179.8202 C18.1031667,180.683533 18.9688333,181.1152 20.1075,181.1152 Z M20.1075,180.1492 C19.3141667,180.1492 18.7285,179.810867 18.3505,179.1342 C17.9725,178.457533 17.7835,177.414533 17.7835,176.0052 C17.7835,174.595867 17.9725,173.559867 18.3505,172.8972 C18.7285,172.234533 19.3141667,171.9032 20.1075,171.9032 C20.9101667,171.9032 21.4981667,172.234533 21.8715,172.8972 C22.2448333,173.559867 22.4315,174.595867 22.4315,176.0052 C22.4315,177.423867 22.2425,178.4692 21.8645,179.1412 C21.4865,179.8132 20.9008333,180.1492 20.1075,180.1492 Z M26.40225,181.0032 L26.40225,177.6152 L30.01425,181.0032 L31.49825,181.0032 L27.63425,177.3492 L31.16225,173.9752 L29.72025,173.9752 L26.40225,177.1952 L26.40225,170.6992 L25.26825,170.6992 L25.26825,181.0032 L26.40225,181.0032 Z" id="$50k" fill="#9B9B9B" fill-rule="nonzero"></path>
        <path d="M4.2,218.6272 L4.2,217.0872 C5.07733333,216.984533 5.782,216.6812 6.314,216.1772 C6.846,215.6732 7.112,215.047867 7.112,214.3012 C7.112,213.750533 6.97666667,213.304867 6.706,212.9642 C6.43533333,212.623533 6.097,212.364533 5.691,212.1872 C5.285,212.009867 4.774,211.846533 4.158,211.6972 L4.158,211.6972 L4.158,207.9312 C5.082,208.033867 5.88466667,208.411867 6.566,209.0652 L6.566,209.0652 L7,208.1832 C6.65466667,207.837867 6.237,207.557867 5.747,207.3432 C5.257,207.128533 4.74133333,206.997867 4.2,206.9512 L4.2,206.9512 L4.2,205.4112 L3.22,205.4112 L3.22,206.9372 C2.62266667,206.9932 2.09533333,207.149533 1.638,207.4062 C1.18066667,207.662867 0.823666667,207.996533 0.567,208.4072 C0.310333333,208.817867 0.182,209.279867 0.182,209.7932 C0.182,210.3812 0.324333333,210.854867 0.609,211.2142 C0.893666667,211.573533 1.246,211.846533 1.666,212.0332 C2.086,212.219867 2.618,212.3972 3.262,212.5652 L3.262,212.5652 L3.262,216.1212 C2.73,216.0932 2.23766667,215.985867 1.785,215.7992 C1.33233333,215.612533 0.882,215.327867 0.434,214.9452 L0.434,214.9452 L6.39488462e-13,215.8272 C0.410666667,216.209867 0.889,216.508533 1.435,216.7232 C1.981,216.937867 2.576,217.063867 3.22,217.1012 L3.22,217.1012 L3.22,218.6272 L4.2,218.6272 Z M3.262,211.4732 C2.646,211.3052 2.17466667,211.0952 1.848,210.8432 C1.52133333,210.5912 1.358,210.2272 1.358,209.7512 C1.358,209.237867 1.526,208.8202 1.862,208.4982 C2.198,208.1762 2.66466667,207.9872 3.262,207.9312 L3.262,207.9312 L3.262,211.4732 Z M4.158,216.0932 L4.158,212.7892 C4.73666667,212.947867 5.18,213.141533 5.488,213.3702 C5.796,213.598867 5.95,213.918533 5.95,214.3292 C5.95,214.823867 5.79366667,215.222867 5.481,215.5262 C5.16833333,215.829533 4.72733333,216.018533 4.158,216.0932 L4.158,216.0932 Z M11.83875,217.1152 C12.9774167,217.1152 13.8430833,216.6812 14.43575,215.8132 C15.0284167,214.9452 15.32475,213.675867 15.32475,212.0052 C15.32475,210.343867 15.0284167,209.081533 14.43575,208.2182 C13.8430833,207.354867 12.9774167,206.9232 11.83875,206.9232 C10.7000833,206.9232 9.83441667,207.354867 9.24175,208.2182 C8.64908333,209.081533 8.35275,210.348533 8.35275,212.0192 C8.35275,213.689867 8.64908333,214.956867 9.24175,215.8202 C9.83441667,216.683533 10.7000833,217.1152 11.83875,217.1152 Z M11.83875,216.1492 C11.0454167,216.1492 10.45975,215.810867 10.08175,215.1342 C9.70375,214.457533 9.51475,213.414533 9.51475,212.0052 C9.51475,210.595867 9.70375,209.559867 10.08175,208.8972 C10.45975,208.234533 11.0454167,207.9032 11.83875,207.9032 C12.6414167,207.9032 13.2294167,208.234533 13.60275,208.8972 C13.9760833,209.559867 14.16275,210.595867 14.16275,212.0052 C14.16275,213.423867 13.97375,214.4692 13.59575,215.1412 C13.21775,215.8132 12.6320833,216.1492 11.83875,216.1492 Z M18.1335,217.0032 L18.1335,213.6152 L21.7455,217.0032 L23.2295,217.0032 L19.3655,213.3492 L22.8935,209.9752 L21.4515,209.9752 L18.1335,213.1952 L18.1335,206.6992 L16.9995,206.6992 L16.9995,217.0032 L18.1335,217.0032 Z" id="$0k" fill="#9B9B9B" fill-rule="nonzero"></path>
    </g>
</svg>