<svg xmlns="http://www.w3.org/2000/svg" width="240" height="208" viewBox="0 0 240 208">
    <g fill="none" fill-rule="evenodd">
        <g fill-rule="nonzero">
            <g>
                <g>
                    <g>
                        <g>
                            <g>
                                <g>
                                    <path fill="#000" d="M4.688 31.994c1.152 0 2.064-.286 2.736-.856.672-.571 1.008-1.352 1.008-2.344 0-.715-.176-1.307-.528-1.776-.352-.47-.864-.8-1.536-.992.565-.214 1.008-.566 1.328-1.056.32-.491.48-1.062.48-1.712 0-.886-.307-1.59-.92-2.112-.613-.523-1.432-.784-2.456-.784-.725 0-1.421.125-2.088.376-.667.25-1.23.594-1.688 1.032l.496 1.008c1.067-.875 2.144-1.312 3.232-1.312.672 0 1.192.165 1.56.496.368.33.552.805.552 1.424 0 .693-.224 1.226-.672 1.6-.448.373-1.093.56-1.936.56H3.2v1.104h1.312c1.75 0 2.624.698 2.624 2.096 0 .704-.21 1.237-.632 1.6-.421.362-1.037.544-1.848.544-1.141 0-2.24-.438-3.296-1.312l-.512 1.008c.47.448 1.043.794 1.72 1.04.677.245 1.384.368 2.12.368zm9.412.016c1.301 0 2.29-.496 2.968-1.488.677-.992 1.016-2.443 1.016-4.352 0-1.9-.339-3.342-1.016-4.328-.677-.987-1.667-1.48-2.968-1.48s-2.29.493-2.968 1.48c-.677.986-1.016 2.434-1.016 4.344 0 1.909.339 3.357 1.016 4.344.677.986 1.667 1.48 2.968 1.48zm0-1.104c-.907 0-1.576-.387-2.008-1.16-.432-.774-.648-1.966-.648-3.576 0-1.611.216-2.795.648-3.552.432-.758 1.101-1.136 2.008-1.136.917 0 1.59.378 2.016 1.136.427.757.64 1.94.64 3.552 0 1.62-.216 2.816-.648 3.584-.432.768-1.101 1.152-2.008 1.152zm8.132-3.584c.864 0 1.539-.294 2.024-.88.485-.587.728-1.456.728-2.608 0-1.142-.243-2.006-.728-2.592-.485-.587-1.16-.88-2.024-.88-.864 0-1.536.293-2.016.88-.48.586-.72 1.45-.72 2.592 0 1.152.24 2.02.72 2.608.48.586 1.152.88 2.016.88zm1.216 4.56L30.04 20.49h-1.264l-6.592 11.392h1.264zm-1.216-5.488c-.523 0-.912-.206-1.168-.616-.256-.411-.384-1.06-.384-1.944 0-.875.128-1.518.384-1.928.256-.411.645-.616 1.168-.616.533 0 .925.205 1.176.616.25.41.376 1.053.376 1.928 0 .885-.125 1.533-.376 1.944-.25.41-.643.616-1.176.616zm7.76 5.6c.864 0 1.539-.294 2.024-.88.485-.587.728-1.456.728-2.608 0-1.152-.243-2.02-.728-2.6-.485-.582-1.16-.872-2.024-.872-.864 0-1.536.29-2.016.872-.48.58-.72 1.448-.72 2.6 0 1.152.24 2.02.72 2.608.48.586 1.152.88 2.016.88zm0-.928c-.533 0-.925-.206-1.176-.616-.25-.411-.376-1.06-.376-1.944 0-.875.125-1.518.376-1.928.25-.411.643-.616 1.176-.616.533 0 .928.205 1.184.616.256.41.384 1.053.384 1.928 0 .896-.125 1.546-.376 1.952-.25.405-.648.608-1.192.608z" transform="translate(-66 -1251) translate(0 196) translate(14 917) translate(0 43) translate(20 29.598) translate(32 65) translate(194 30.17)"/>
                                    <path fill="#5E5E5E" d="M5.918 11.967v-.748H1.859v-2.85h3.839v-.758H1.859V4.883h4.059v-.748H.968v7.832h4.95zm6.075 2.376V7.985c0-.572.03-1.09.088-1.551h-.825l-.11 1.034c-.162-.374-.407-.662-.737-.864-.33-.201-.719-.302-1.166-.302-.484 0-.911.12-1.282.363-.37.242-.658.581-.863 1.017-.206.437-.308.94-.308 1.513 0 .572.1 1.072.302 1.501.202.43.488.761.858.996.37.234.801.352 1.293.352.432 0 .81-.092 1.133-.275.322-.184.564-.444.726-.781v3.355h.89zm-2.574-3.036c-.55 0-.976-.184-1.276-.55-.3-.367-.451-.888-.451-1.562 0-.675.152-1.201.456-1.579.305-.377.728-.566 1.27-.566.543 0 .961.183 1.255.55.293.366.44.89.44 1.573 0 .682-.147 1.208-.44 1.578-.294.37-.712.556-1.254.556zm6.053.737c.396 0 .751-.088 1.066-.264.316-.176.561-.433.738-.77v.957h.869V6.434h-.892v3.124c0 .52-.15.94-.45 1.26-.301.318-.697.478-1.189.478-.418 0-.73-.118-.934-.352-.206-.235-.309-.602-.309-1.1v-3.41h-.89v3.432c0 .718.168 1.261.505 1.628.338.366.833.55 1.486.55zm5.183-6.941V4.09h-1.089v1.012h1.09zm-.11 6.864V6.434h-.89v5.533h.89zm3.501.077c.286 0 .543-.037.77-.11v-.76c-.19.067-.389.1-.594.1-.308 0-.546-.083-.715-.248-.169-.165-.253-.453-.253-.863V7.138h1.584v-.704h-1.584V4.696l-.891.319v1.419h-1.078v.704h1.078v3.146c0 .58.149 1.017.445 1.314.297.297.71.446 1.238.446zm2.665-6.941V4.09h-1.09v1.012h1.09zm-.11 6.864V6.434h-.891v5.533h.89zm3.963.077c.395 0 .782-.066 1.16-.198.378-.132.687-.312.93-.54l-.298-.648c-.542.432-1.136.649-1.782.649-.608 0-1.072-.18-1.391-.54-.319-.359-.482-.89-.49-1.594h4.06v-.165c0-.844-.21-1.505-.627-1.986-.418-.48-.994-.72-1.727-.72-.507 0-.957.12-1.354.363-.396.242-.704.581-.924 1.017-.22.437-.33.937-.33 1.502 0 .887.246 1.586.738 2.095.49.51 1.17.765 2.035.765zM31.95 8.59h-3.223c.08-.506.265-.899.555-1.177.29-.279.666-.418 1.128-.418.462 0 .823.135 1.083.407.26.271.413.667.457 1.188zm3.82 3.454c.667 0 1.195-.143 1.583-.43.389-.285.583-.667.583-1.143 0-.396-.124-.717-.374-.963-.25-.245-.63-.427-1.144-.544l-.935-.231c-.3-.074-.519-.176-.654-.308-.136-.132-.204-.312-.204-.54 0-.27.108-.481.325-.632.216-.15.522-.225.918-.225.594 0 1.152.216 1.672.649l.297-.65c-.234-.234-.524-.414-.869-.538-.344-.125-.711-.187-1.1-.187-.638 0-1.151.152-1.54.456-.388.305-.583.699-.583 1.183 0 .366.127.682.38.946.253.264.61.447 1.072.55l.935.22c.338.073.58.176.726.308.147.132.22.308.22.528 0 .271-.108.478-.324.621-.217.143-.534.215-.952.215-.381 0-.726-.052-1.034-.154-.308-.103-.612-.272-.913-.506l-.297.66c.543.476 1.28.715 2.211.715z" transform="translate(-66 -1251) translate(0 196) translate(14 917) translate(0 43) translate(20 29.598) translate(32 65) translate(194 30.17)"/>
                                </g>
                                <g>
                                    <path fill="#000" d="M8.656 29.886v-1.104H3.024l3.248-3.52c.683-.746 1.17-1.421 1.464-2.024.293-.602.44-1.23.44-1.88 0-.917-.304-1.645-.912-2.184-.608-.538-1.435-.808-2.48-.808-.693 0-1.381.128-2.064.384s-1.248.598-1.696 1.024l.496 1.008c1.067-.874 2.144-1.312 3.232-1.312.672 0 1.19.168 1.552.504.363.336.544.819.544 1.448 0 .48-.123.96-.368 1.44s-.635 1.019-1.168 1.616l-3.984 4.416v.992h7.328zm4.276-4.56c.864 0 1.539-.293 2.024-.88.485-.586.728-1.456.728-2.608 0-1.141-.243-2.005-.728-2.592-.485-.586-1.16-.88-2.024-.88-.864 0-1.536.294-2.016.88-.48.587-.72 1.45-.72 2.592 0 1.152.24 2.022.72 2.608.48.587 1.152.88 2.016.88zm1.216 4.56l6.592-11.392h-1.264l-6.592 11.392h1.264zm-1.216-5.488c-.523 0-.912-.205-1.168-.616-.256-.41-.384-1.058-.384-1.944 0-.874.128-1.517.384-1.928.256-.41.645-.616 1.168-.616.533 0 .925.206 1.176.616.25.41.376 1.054.376 1.928 0 .886-.125 1.534-.376 1.944-.25.41-.643.616-1.176.616zm7.76 5.6c.864 0 1.539-.293 2.024-.88.485-.586.728-1.456.728-2.608 0-1.152-.243-2.018-.728-2.6-.485-.581-1.16-.872-2.024-.872-.864 0-1.536.29-2.016.872-.48.582-.72 1.448-.72 2.6 0 1.152.24 2.022.72 2.608.48.587 1.152.88 2.016.88zm0-.928c-.533 0-.925-.205-1.176-.616-.25-.41-.376-1.058-.376-1.944 0-.874.125-1.517.376-1.928.25-.41.643-.616 1.176-.616.533 0 .928.206 1.184.616.256.41.384 1.054.384 1.928 0 .896-.125 1.547-.376 1.952-.25.406-.648.608-1.192.608z" transform="translate(-66 -1251) translate(0 196) translate(14 917) translate(0 43) translate(20 29.598) translate(32 65) translate(119 .757)"/>
                                    <path fill="#5E5E5E" d="M4.312 11.088c.543 0 1.04-.082 1.49-.247.452-.165.842-.413 1.172-.743l-.341-.693c-.374.323-.742.554-1.106.693-.362.14-.764.209-1.204.209-.865 0-1.533-.28-2.002-.841-.47-.561-.704-1.359-.704-2.393 0-1.027.236-1.819.71-2.376.473-.557 1.138-.836 1.996-.836.44 0 .841.07 1.204.209.364.14.732.37 1.106.693l.341-.693c-.33-.33-.72-.578-1.171-.743-.452-.164-.948-.247-1.491-.247-.74 0-1.384.161-1.93.484-.547.323-.967.783-1.26 1.38-.293.598-.44 1.308-.44 2.129s.147 1.534.44 2.14c.293.605.713 1.068 1.26 1.391.546.323 1.19.484 1.93.484zm5.877-.011c.432 0 .812-.094 1.138-.28.327-.188.57-.453.732-.798V11h.88V5.467h-.88v.957c-.169-.345-.415-.612-.737-.803-.323-.19-.7-.286-1.133-.286-.484 0-.911.121-1.282.363-.37.242-.658.581-.863 1.017-.206.437-.308.941-.308 1.513s.1 1.072.302 1.502c.202.428.488.76.858.995s.801.352 1.293.352zm.176-.737c-.55 0-.976-.183-1.276-.55-.3-.367-.451-.887-.451-1.562s.152-1.2.456-1.579c.305-.377.728-.566 1.27-.566.543 0 .961.183 1.255.55.293.367.44.891.44 1.573 0 .682-.147 1.208-.44 1.579-.294.37-.712.555-1.254.555zm5.964.737c.668 0 1.196-.143 1.584-.429.39-.286.584-.667.584-1.144 0-.396-.125-.717-.375-.963-.249-.245-.63-.427-1.143-.544l-.935-.231c-.301-.073-.52-.176-.655-.308-.136-.132-.204-.312-.204-.539 0-.271.109-.482.325-.632.216-.15.522-.226.918-.226.595 0 1.152.216 1.672.649l.297-.649c-.234-.235-.524-.414-.868-.539-.345-.125-.712-.187-1.1-.187-.638 0-1.152.152-1.54.457-.39.304-.583.698-.583 1.182 0 .367.126.682.379.946.253.264.61.447 1.072.55l.935.22c.338.073.58.176.727.308.146.132.22.308.22.528 0 .271-.109.479-.325.622-.216.143-.534.214-.951.214-.382 0-.726-.051-1.034-.154-.309-.103-.613-.271-.914-.506l-.296.66c.542.477 1.28.715 2.21.715zM20.6 11V7.832c0-.535.154-.96.462-1.276.308-.315.719-.473 1.232-.473.44 0 .763.12.968.357.206.239.308.615.308 1.128V11h.891V7.524c0-1.46-.663-2.189-1.99-2.189-.419 0-.79.088-1.117.264-.327.176-.578.433-.754.77V2.904h-.89V11h.89z" transform="translate(-66 -1251) translate(0 196) translate(14 917) translate(0 43) translate(20 29.598) translate(32 65) translate(119 .757)"/>
                                </g>
                                <g>
                                    <path fill="#000" d="M4.688 29.112c1.152 0 2.064-.285 2.736-.856.672-.57 1.008-1.352 1.008-2.344 0-.715-.176-1.307-.528-1.776-.352-.47-.864-.8-1.536-.992.565-.213 1.008-.565 1.328-1.056.32-.49.48-1.061.48-1.712 0-.885-.307-1.59-.92-2.112-.613-.523-1.432-.784-2.456-.784-.725 0-1.421.125-2.088.376-.667.25-1.23.595-1.688 1.032l.496 1.008c1.067-.875 2.144-1.312 3.232-1.312.672 0 1.192.165 1.56.496.368.33.552.805.552 1.424 0 .693-.224 1.227-.672 1.6-.448.373-1.093.56-1.936.56H3.2v1.104h1.312c1.75 0 2.624.699 2.624 2.096 0 .704-.21 1.237-.632 1.6-.421.363-1.037.544-1.848.544-1.141 0-2.24-.437-3.296-1.312l-.512 1.008c.47.448 1.043.795 1.72 1.04s1.384.368 2.12.368zm9.412.016c1.301 0 2.29-.496 2.968-1.488.677-.992 1.016-2.443 1.016-4.352 0-1.899-.339-3.341-1.016-4.328-.677-.987-1.667-1.48-2.968-1.48s-2.29.493-2.968 1.48c-.677.987-1.016 2.435-1.016 4.344 0 1.91.339 3.357 1.016 4.344.677.987 1.667 1.48 2.968 1.48zm0-1.104c-.907 0-1.576-.387-2.008-1.16-.432-.773-.648-1.965-.648-3.576 0-1.61.216-2.795.648-3.552.432-.757 1.101-1.136 2.008-1.136.917 0 1.59.379 2.016 1.136.427.757.64 1.941.64 3.552 0 1.621-.216 2.816-.648 3.584-.432.768-1.101 1.152-2.008 1.152zm8.132-3.584c.864 0 1.539-.293 2.024-.88.485-.587.728-1.456.728-2.608 0-1.141-.243-2.005-.728-2.592-.485-.587-1.16-.88-2.024-.88-.864 0-1.536.293-2.016.88s-.72 1.45-.72 2.592c0 1.152.24 2.021.72 2.608.48.587 1.152.88 2.016.88zM23.448 29l6.592-11.392h-1.264L22.184 29h1.264zm-1.216-5.488c-.523 0-.912-.205-1.168-.616-.256-.41-.384-1.059-.384-1.944 0-.875.128-1.517.384-1.928.256-.41.645-.616 1.168-.616.533 0 .925.205 1.176.616.25.41.376 1.053.376 1.928 0 .885-.125 1.533-.376 1.944-.25.41-.643.616-1.176.616zm7.76 5.6c.864 0 1.539-.293 2.024-.88.485-.587.728-1.456.728-2.608 0-1.152-.243-2.019-.728-2.6s-1.16-.872-2.024-.872c-.864 0-1.536.29-2.016.872-.48.581-.72 1.448-.72 2.6 0 1.152.24 2.021.72 2.608.48.587 1.152.88 2.016.88zm0-.928c-.533 0-.925-.205-1.176-.616-.25-.41-.376-1.059-.376-1.944 0-.875.125-1.517.376-1.928.25-.41.643-.616 1.176-.616.533 0 .928.205 1.184.616.256.41.384 1.053.384 1.928 0 .896-.125 1.547-.376 1.952-.25.405-.648.608-1.192.608z" transform="translate(-66 -1251) translate(0 196) translate(14 917) translate(0 43) translate(20 29.598) translate(32 65) translate(184 167.35)"/>
                                    <path fill="#5E5E5E" d="M3.454 11.088c.587 0 1.098-.092 1.534-.275.437-.183.772-.442 1.007-.776.235-.333.352-.72.352-1.16 0-.455-.128-.82-.385-1.095-.257-.274-.577-.48-.962-.615-.386-.136-.915-.285-1.59-.446-.623-.147-1.085-.319-1.386-.517-.3-.198-.451-.495-.451-.891 0-.455.172-.812.517-1.072.345-.26.821-.391 1.43-.391.447 0 .86.073 1.238.22.377.147.75.378 1.116.693l.352-.693c-.323-.323-.719-.568-1.188-.737-.47-.169-.975-.253-1.518-.253-.572 0-1.073.095-1.502.286-.428.19-.76.456-.995.797S.671 4.9.671 5.346c0 .47.121.849.363 1.138.242.29.557.512.946.666.389.154.884.297 1.485.429.447.103.805.202 1.072.297.268.095.484.225.65.39.164.165.247.38.247.644 0 .447-.17.794-.511 1.04-.341.245-.827.368-1.458.368-.535 0-1.005-.07-1.408-.209-.403-.14-.8-.374-1.188-.704l-.341.693c.726.66 1.701.99 2.926.99zm7.142-2.673v-.737H7.483v.737h3.113zM13.052 11V7.579h1.957c.382 0 .677.055.886.165.209.11.372.326.49.649L17.351 11h.957l-.99-2.651c-.11-.293-.245-.519-.406-.676-.162-.158-.356-.255-.584-.292.506-.147.893-.394 1.161-.743.268-.348.402-.779.402-1.292 0-.704-.226-1.243-.677-1.617-.451-.374-1.098-.561-1.941-.561H12.16V11h.89zm2.145-4.169h-2.145V3.916h2.145c.616 0 1.07.12 1.364.358.293.238.44.599.44 1.083 0 .983-.602 1.474-1.805 1.474zM24.526 11v-.748h-4.059V7.403h3.84v-.759h-3.84V3.916h4.06v-.748h-4.95V11h4.95zm2.214 0V3.168h-.902V11h.902zm4.535 0V3.938h2.728v-.77h-6.37v.77h2.729V11h.913zm4.534.077c.668 0 1.196-.143 1.584-.429.39-.286.584-.667.584-1.144 0-.396-.125-.717-.375-.963-.249-.245-.63-.427-1.144-.544l-.934-.231c-.301-.073-.52-.176-.655-.308-.136-.132-.203-.312-.203-.539 0-.271.108-.482.324-.632.216-.15.523-.226.919-.226.594 0 1.15.216 1.672.649l.297-.649c-.235-.235-.525-.414-.87-.539-.344-.125-.71-.187-1.1-.187-.637 0-1.15.152-1.54.457-.388.304-.583.698-.583 1.182 0 .367.127.682.38.946.253.264.61.447 1.073.55l.934.22c.338.073.58.176.727.308.146.132.22.308.22.528 0 .271-.109.479-.325.622-.216.143-.534.214-.952.214-.38 0-.726-.051-1.034-.154-.307-.103-.612-.271-.912-.506l-.297.66c.542.477 1.28.715 2.21.715z" transform="translate(-66 -1251) translate(0 196) translate(14 917) translate(0 43) translate(20 29.598) translate(32 65) translate(184 167.35)"/>
                                </g>
                                <g>
                                    <path fill="#000" d="M4.688 44.112c1.152 0 2.064-.285 2.736-.856.672-.57 1.008-1.352 1.008-2.344 0-.715-.176-1.307-.528-1.776-.352-.47-.864-.8-1.536-.992.565-.213 1.008-.565 1.328-1.056.32-.49.48-1.061.48-1.712 0-.885-.307-1.59-.92-2.112-.613-.523-1.432-.784-2.456-.784-.725 0-1.421.125-2.088.376-.667.25-1.23.595-1.688 1.032l.496 1.008c1.067-.875 2.144-1.312 3.232-1.312.672 0 1.192.165 1.56.496.368.33.552.805.552 1.424 0 .693-.224 1.227-.672 1.6-.448.373-1.093.56-1.936.56H3.2v1.104h1.312c1.75 0 2.624.699 2.624 2.096 0 .704-.21 1.237-.632 1.6-.421.363-1.037.544-1.848.544-1.141 0-2.24-.437-3.296-1.312l-.512 1.008c.47.448 1.043.795 1.72 1.04s1.384.368 2.12.368zm9.412 0c1.248 0 2.24-.28 2.976-.84.736-.56 1.104-1.325 1.104-2.296 0-.693-.205-1.288-.616-1.784-.41-.496-.99-.845-1.736-1.048.661-.203 1.176-.536 1.544-1 .368-.464.552-1.01.552-1.64 0-.608-.16-1.139-.48-1.592-.32-.453-.77-.805-1.352-1.056-.581-.25-1.245-.376-1.992-.376-.747 0-1.41.125-1.992.376-.581.25-1.032.603-1.352 1.056-.32.453-.48.984-.48 1.592 0 .63.181 1.176.544 1.64.363.464.885.797 1.568 1-.736.192-1.315.539-1.736 1.04-.421.501-.632 1.099-.632 1.792 0 .97.368 1.736 1.104 2.296.736.56 1.728.84 2.976.84zm0-6.336c-.768-.085-1.379-.317-1.832-.696-.453-.379-.68-.872-.68-1.48 0-.63.221-1.125.664-1.488.443-.363 1.059-.544 1.848-.544.79 0 1.405.181 1.848.544.443.363.664.859.664 1.488 0 .608-.227 1.101-.68 1.48-.453.379-1.064.61-1.832.696zm0 5.248c-.896 0-1.584-.181-2.064-.544-.48-.363-.72-.89-.72-1.584 0-.63.253-1.133.76-1.512s1.181-.61 2.024-.696c.843.085 1.517.317 2.024.696.507.379.76.883.76 1.512 0 .693-.24 1.221-.72 1.584s-1.168.544-2.064.544zm8.132-3.584c.864 0 1.539-.293 2.024-.88.485-.587.728-1.456.728-2.608 0-1.141-.243-2.005-.728-2.592-.485-.587-1.16-.88-2.024-.88-.864 0-1.536.293-2.016.88s-.72 1.45-.72 2.592c0 1.152.24 2.021.72 2.608.48.587 1.152.88 2.016.88zM23.448 44l6.592-11.392h-1.264L22.184 44h1.264zm-1.216-5.488c-.523 0-.912-.205-1.168-.616-.256-.41-.384-1.059-.384-1.944 0-.875.128-1.517.384-1.928.256-.41.645-.616 1.168-.616.533 0 .925.205 1.176.616.25.41.376 1.053.376 1.928 0 .885-.125 1.533-.376 1.944-.25.41-.643.616-1.176.616zm7.76 5.6c.864 0 1.539-.293 2.024-.88.485-.587.728-1.456.728-2.608 0-1.152-.243-2.019-.728-2.6s-1.16-.872-2.024-.872c-.864 0-1.536.29-2.016.872-.48.581-.72 1.448-.72 2.6 0 1.152.24 2.021.72 2.608.48.587 1.152.88 2.016.88zm0-.928c-.533 0-.925-.205-1.176-.616-.25-.41-.376-1.059-.376-1.944 0-.875.125-1.517.376-1.928.25-.41.643-.616 1.176-.616.533 0 .928.205 1.184.616.256.41.384 1.053.384 1.928 0 .896-.125 1.547-.376 1.952-.25.405-.648.608-1.192.608z" transform="translate(-66 -1251) translate(0 196) translate(14 917) translate(0 43) translate(20 29.598) translate(32 65) translate(7 82.471)"/>
                                    <path fill="#5E5E5E" d="M1.859 11V7.403h3.729v-.759H1.859V3.927h3.949v-.759H.968V11h.891zm5.987-6.864V3.124h-1.09v1.012h1.09zM7.736 11V5.467h-.891V11h.89zm1.872 0l1.727-2.178L13.085 11h1.066l-2.277-2.849 2.156-2.684h-1.088l-1.607 2.035L9.73 5.467H8.652l2.167 2.684L8.518 11h1.09zm7.66.077c.395 0 .782-.066 1.16-.198.377-.132.687-.312.93-.539l-.298-.649c-.542.433-1.136.649-1.782.649-.608 0-1.072-.18-1.391-.539-.32-.36-.482-.891-.49-1.595h4.06v-.165c0-.843-.21-1.505-.628-1.986-.418-.48-.993-.72-1.727-.72-.506 0-.957.121-1.353.363s-.704.581-.924 1.017c-.22.437-.33.937-.33 1.502 0 .887.246 1.586.737 2.095.492.51 1.17.765 2.035.765zm1.385-3.454H15.43c.08-.506.266-.898.556-1.177.29-.279.665-.418 1.127-.418.462 0 .823.136 1.084.407.26.271.412.667.456 1.188zm4.073 3.454c.433 0 .812-.094 1.139-.28.326-.188.57-.453.731-.798V11h.88V2.904h-.891v3.498c-.161-.337-.403-.6-.726-.787-.323-.187-.7-.28-1.133-.28-.484 0-.913.117-1.287.352-.374.235-.662.566-.863.995-.202.43-.303.93-.303 1.502s.103 1.076.308 1.513c.205.436.493.775.864 1.017.37.242.797.363 1.281.363zm.176-.737c-.543 0-.966-.189-1.27-.566-.305-.378-.457-.908-.457-1.59 0-.667.152-1.184.456-1.551.305-.367.728-.55 1.271-.55.543 0 .96.185 1.254.555.293.37.44.893.44 1.568 0 .682-.147 1.208-.44 1.579-.293.37-.711.555-1.254.555zM1.87 25v-7.832H.968V25h.902zm2.51 0v-3.168c0-.535.155-.96.463-1.276.308-.315.718-.473 1.232-.473.44 0 .762.12.968.358.205.238.308.614.308 1.127V25h.89v-3.476c0-1.46-.663-2.189-1.99-2.189-.433 0-.818.097-1.155.291-.338.195-.59.472-.76.831l-.087-.99h-.847c.058.462.088.979.088 1.551V25h.89zm7.66.077c.38 0 .75-.064 1.105-.193.356-.128.65-.302.886-.522l-.298-.66c-.278.22-.548.381-.808.484-.26.103-.526.154-.798.154-.572 0-1.017-.185-1.336-.555-.319-.37-.479-.89-.479-1.557 0-.675.162-1.2.485-1.579.322-.377.766-.566 1.33-.566.272 0 .538.051.798.154.26.103.53.264.808.484l.297-.66c-.227-.227-.515-.405-.863-.534-.348-.128-.71-.192-1.083-.192-.543 0-1.018.121-1.425.363-.407.242-.72.581-.94 1.017-.22.437-.33.941-.33 1.513s.108 1.072.324 1.502c.216.428.524.76.924.995s.867.352 1.402.352zm5.205 0c.52 0 .98-.117 1.375-.352.396-.235.702-.568.919-1.001.216-.433.324-.939.324-1.518 0-.58-.108-1.085-.324-1.518-.217-.433-.523-.766-.919-1.001-.396-.235-.854-.352-1.375-.352-.52 0-.979.117-1.375.352s-.702.568-.918 1.001c-.217.433-.325.939-.325 1.518 0 .58.108 1.085.325 1.518.216.433.522.766.918 1.001.396.235.855.352 1.375.352zm0-.737c-.55 0-.973-.181-1.27-.544-.297-.363-.446-.893-.446-1.59 0-.675.15-1.197.451-1.567.3-.37.723-.556 1.265-.556.536 0 .954.185 1.254.556.3.37.451.892.451 1.567 0 .697-.146 1.227-.44 1.59-.293.363-.715.544-1.265.544zm4.689.66v-3.157c0-.543.134-.972.401-1.287.268-.315.637-.473 1.106-.473.403 0 .697.12.88.358.183.238.275.614.275 1.127V25h.891v-3.157c0-.543.132-.972.396-1.287.264-.315.63-.473 1.1-.473.403 0 .695.117.875.352.18.235.269.612.269 1.133V25h.891v-3.476c0-1.46-.612-2.189-1.837-2.189-.41 0-.78.097-1.105.291-.327.195-.574.457-.743.787-.132-.367-.337-.638-.616-.814-.279-.176-.638-.264-1.078-.264-.403 0-.757.095-1.061.286-.305.19-.534.462-.688.814l-.088-.968h-.847c.059.462.088.979.088 1.551V25h.891zm11.014.077c.396 0 .783-.066 1.16-.198.378-.132.688-.312.93-.539l-.297-.649c-.543.433-1.137.649-1.782.649-.609 0-1.073-.18-1.392-.539-.319-.36-.482-.891-.49-1.595h4.06v-.165c0-.843-.21-1.505-.627-1.986-.418-.48-.994-.72-1.727-.72-.506 0-.957.121-1.353.363s-.704.581-.924 1.017c-.22.437-.33.937-.33 1.502 0 .887.245 1.586.737 2.096.491.51 1.17.764 2.035.764zm1.386-3.454H31.11c.08-.506.266-.898.555-1.177.29-.279.666-.418 1.128-.418.462 0 .823.136 1.083.407.26.271.413.667.457 1.188z" transform="translate(-66 -1251) translate(0 196) translate(14 917) translate(0 43) translate(20 29.598) translate(32 65) translate(7 82.471)"/>
                                </g>
                                <g>
                                    <path fill="#287CC6" d="M72 .357v24c-1.583 0-3.155.077-4.713.228-1.558.151-3.101.378-4.626.678C40.35 29.656 24 49.325 24 72.357c0 15.814 7.691 30.311 20.363 39.252l.439.306-13.62 19.761C11.818 118.33 0 96.331 0 72.357 0 37.804 24.514 8.313 58.025 1.715c2.29-.45 4.606-.79 6.942-1.018 1.94-.188 3.893-.299 5.855-.33L72 .357z" transform="translate(-66 -1251) translate(0 196) translate(14 917) translate(0 43) translate(20 29.598) translate(32 65) translate(51 42.983)"/>
                                    <path fill="#004272" d="M72 .357v24c-1.27 0-2.532.05-3.786.147l-.939.082L64.95.7c2-.195 4.015-.307 6.038-.335L72 .357z" transform="translate(-66 -1251) translate(0 196) translate(14 917) translate(0 43) translate(20 29.598) translate(32 65) translate(51 42.983)"/>
                                    <path fill="#B1EBEB" d="M72 .357c39.765 0 72 32.236 72 72 0 8.75-1.567 17.302-4.587 25.335l-.307.801-22.362-8.714C118.887 84.28 120 78.406 120 72.357c0-26.244-21.063-47.57-47.206-47.993L72 24.357v-24z" transform="translate(-66 -1251) translate(0 196) translate(14 917) translate(0 43) translate(20 29.598) translate(32 65) translate(51 42.983)"/>
                                    <path fill="#3EC9C9" d="M118.364 84.78l23.183 6.212c-10.292 38.41-49.772 61.204-88.182 50.912-8.452-2.265-16.306-5.991-23.284-10.988l-.695-.504 14.206-19.344c4.755 3.492 10.142 6.088 15.985 7.654 25.35 6.792 51.4-8.033 58.576-33.176l.211-.765z" transform="translate(-66 -1251) translate(0 196) translate(14 917) translate(0 43) translate(20 29.598) translate(32 65) translate(51 42.983)"/>
                                </g>
                            </g>
                        </g>
                    </g>
                </g>
            </g>
        </g>
    </g>
</svg>
