<svg xmlns="http://www.w3.org/2000/svg" xmlns:xlink="http://www.w3.org/1999/xlink" width="450" height="345" viewBox="0 0 450 345">
    <defs>
        <path id="pys7o69yua" d="M0.209 0.293L103.624 0.293 103.624 75.968 0.209 75.968z"/>
    </defs>
    <g fill="none" fill-rule="evenodd">
        <g>
            <g>
                <path fill="#008486" d="M355.99 292.943c.811-14.63-45.682-43.898-129.313-50.235-83.63-6.336-175.681 31.422-142.871 50.235 20.16 11.56 78.19 24.605 142.871 24.04 71.605-.628 128.849-15.679 129.313-24.04z" transform="translate(-100 -252) translate(100 252)"/>
                <path fill="#FFFFFE" d="M83.798 106.355l.599-2.355.599 2.355c.338 1.33 1.319 2.367 2.574 2.725l2.224.634-2.224.634c-1.255.358-2.236 1.397-2.574 2.726l-.6 2.355-.598-2.355c-.338-1.33-1.319-2.368-2.574-2.726L79 109.714l2.224-.634c1.255-.358 2.236-1.396 2.574-2.725M121.129 71.003L122.143 67l1.014 4.003c.573 2.26 2.235 4.025 4.362 4.634l3.767 1.077-3.767 1.078c-2.127.609-3.79 2.374-4.362 4.634l-1.014 4.003-1.014-4.003c-.573-2.26-2.234-4.025-4.361-4.634L113 76.714l3.768-1.077c2.127-.609 3.788-2.374 4.36-4.634" transform="translate(-100 -252) translate(100 252)"/>
                <g>
                    <g transform="translate(-100 -252) translate(100 252) translate(88 46) translate(14 139)">
                        <path fill="#0C7474" d="M3.218 0.215L171.372 62.506 173.779 65.851 167.928 74.748 2.052 14.114 5.149 3.497z"/>
                        <path fill="#055E5E" d="M3.218 0.215L171.372 62.506 173.779 65.851 5.149 3.497z"/>
                        <path fill="#055E5E" d="M3.265 0.271L0.143 9.96 2.052 14.114 5.415 3.557z"/>
                        <ellipse cx="99.54" cy="43.351" fill="#FFF" rx="3.079" ry="3.024"/>
                    </g>
                    <path fill="#004472" d="M247 68.338c-12.117 1.095-20.242.272-24.375-2.468-4.134-2.74-5.856-6.696-5.167-11.87L100.55 179.516 17 148.256c2.867 5.38 4.3 9.234 4.3 11.562 0 2.328.29 5.754.866 10.278L112.063 204 247 68.338z" transform="translate(-100 -252) translate(100 252) translate(88 46)"/>
                    <path fill="#24B8B5" d="M96.11 81c-1.584 3.713-3.296 5.665-5.136 5.858-16.677 1.743-32.901 1.193-41.742 8.817-15.456 13.327-21.432 42.11-18.518 51.824 2.081 6.942 5.751 18.062 28.416 24.387 30.643 8.552 50.279 9.533 79.041-6.194 19.175-10.485 38.784-33.316 58.829-68.493L96.11 81z" transform="translate(-100 -252) translate(100 252) translate(88 46)"/>
                    <path fill="#00BCBC" d="M149.667 130c34.61 0 62.667-27.682 62.667-61.83 0-6.69-1.077-13.131-3.069-19.166-.332-1.005 8.248-16.799 3.069-20.255-5.18-3.456-11.64 3.405-13.456 1.135C187.4 15.544 169.623 6.34 149.667 6.34c-1.675 0-3.335.065-4.978.192-2.404.187 3.928-4.144 0-5.945-1.745-.8-5.324-1.072-9.035 1.098-4.64 2.713-8.015 6.747-9.312 7.16C101.144 16.854 87 40.644 87 68.17c0 34.148 28.057 61.83 62.667 61.83z" transform="translate(-100 -252) translate(100 252) translate(88 46)"/>
                    <path fill="#E6F8F8" d="M130.13 29.676c1.65-6.531.23-11.133-4.262-13.805-10.18-6.055-22.107 4.248-24.766 7.416-1.217 1.45-6.405 7.116-9.133 13.225-3.295 7.378-5.82 15-6.755 24.463-1.037 10.495 1.09 23.377 19.976 34.657 18.885 11.28 42.977 17.612 54.956 14.635 5.84-1.451 15.006-8.825 23.723-23.879 4.86-8.393 10.65-20.633 8.767-34.17-.864-6.208-12.371-19.494-22.838-24.213-10.467-4.718-21.074-5.878-27.722-4.718-4.431.773-8.413 2.902-11.945 6.389z" transform="translate(-100 -252) translate(100 252) translate(88 46)"/>
                    <g>
                        <path fill="#FFA32C" d="M13.247.553C10.344-.485 3.81 3.077 1.72 5.685c-.327.408-.607 1.404-.685 1.724C.46 9.793-.847 20.75 4.178 23.135c4.322 2.052 15.772-4.008 18.237-7.266.2-.264-5.242-13.912-9.168-15.316z" transform="translate(-100 -252) translate(100 252) translate(88 46) translate(96 55)"/>
                        <path fill="#E38D1D" d="M1.884 8.105c1.147 5.646 2.466 8.873 3.957 9.682.412.224 2.802.771 6.84.216 1.352-.186 3.783-.801 7.292-1.845-7.494.295-11.922-.006-13.284-.904-.683-.45-1.52-.606-2.328-1.804-.535-.793-1.36-2.575-2.477-5.345z" transform="translate(-100 -252) translate(100 252) translate(88 46) translate(96 55)"/>
                    </g>
                    <path fill="#008181" d="M111.044 42c.724-.52 1.037-1.047.938-1.584-.435-2.363-2.687-4.892-4.449-5.213-1.81-.33-5.502-.377-8.846.79-.679.236-1.574.908-2.687 2.015 5.511-.48 9.031-.48 10.56 0 1.527.482 3.022 1.812 4.484 3.992zM131.1 57.785c-.266-1.023-.002-1.75.793-2.184 3.978-2.17 8.862-3.058 12.18-2.375 6.188 1.272 10.742 14.95 10.638 15.89-.024.221.662 3.455 0 2.795-2.16-2.156-8.245-11.424-12.458-13.174-3.669-1.525-7.386-1.842-11.153-.952z" transform="translate(-100 -252) translate(100 252) translate(88 46)"/>
                    <path fill="#24282B" d="M109.43 19.409c10.157 2.373 14.343 6.787 14.343 13.05 0 2.423-1.85 6.003-4.483 9.545.346.01.733.06 1.162.147 1.215.25 2.181.916 2.9 2.001 2.129-3.865 3.635-6.084 6.103-7.581 2.927-1.775 13.488-3.58 30.328 3.852 16.84 7.431 20.113 15.976 19.03 22.838-1.084 6.862-11.105 30.001-24.661 29.737-13.557-.265-34.304-25.068-35.356-30.88-.468-2.587.244-8.79 2.454-13.896-.369-1.293-1.1-2.073-2.194-2.34-.97-.239-2.05-.143-3.241.285-3.663 3.937-7.828 7.146-10.715 7.632-6.3 1.062-11.558-2.122-14.957-8.756-3.398-6.634 1.732-14.383 3.084-16.886 1.353-2.502 6.045-11.12 16.202-8.748z" opacity=".682" transform="translate(-100 -252) translate(100 252) translate(88 46)"/>
                    <path fill="#FFF" d="M12 74L39.82 100.298 39.934 123.261 28.677 128.431 54.264 129 42.411 123.261 42.411 100.299 69 74z" opacity=".828" transform="translate(-100 -252) translate(100 252) translate(88 46)"/>
                    <path fill="#1174B6" d="M28 83L40.733 97 54 83z" transform="translate(-100 -252) translate(100 252) translate(88 46)"/>
                    <path fill="#FFA32C" d="M167.917 120.616c-6.949-9.023-50.343-4.542-104.502-7.886-12.658-.781-36.158-8.21-29.13 15.197 5.725 19.063 40.988 36.937 54.81 38.728 30.794 3.99 93.055-27.56 78.822-46.04z" transform="translate(-100 -252) translate(100 252) translate(88 46)"/>
                    <path fill="#A5DBFF" d="M45.699 86L51 86 45 92z" transform="translate(-100 -252) translate(100 252) translate(88 46)"/>
                    <g>
                        <g>
                            <path fill="#055E5E" d="M166.573 0L0 167.518 3.669 174.253 10.219 177.969 174.301 8.906 168.813 4.493z" transform="translate(-100 -252) translate(100 252) translate(88 46) translate(16 65) translate(58.247)"/>
                            <path fill="#0C7474" d="M3.066 174.253L13.703 179.742 175.322 10.641 168.533 4.075z" transform="translate(-100 -252) translate(100 252) translate(88 46) translate(16 65) translate(58.247)"/>
                            <path fill="#055E5E" d="M166.565 0L173.382 6.052 175.941 10.641 168.774 4.529z" transform="translate(-100 -252) translate(100 252) translate(88 46) translate(16 65) translate(58.247)"/>
                        </g>
                        <g transform="translate(-100 -252) translate(100 252) translate(88 46) translate(16 65) translate(0 100.85)">
                            <path fill="#0C7474" d="M3.204 0.217L170.652 63.158 173.048 66.538 167.222 75.528 2.044 14.262 5.127 3.533z"/>
                            <path fill="#055E5E" d="M3.204 0.217L170.652 63.158 173.048 66.538 5.127 3.533z"/>
                            <path fill="#055E5E" d="M3.252 0.274L0.142 10.063 2.044 14.262 5.392 3.594z"/>
                            <ellipse cx="99.121" cy="43.803" fill="#FFF" rx="3.066" ry="3.056"/>
                        </g>
                    </g>
                    <path fill="#FFA32C" d="M37 156.245L29.11 153 19 157.382 19.952 159 29.11 156 37 159zM18.754 160.118c-3.767-5.04-6.792-7.404-9.077-7.09-3.427.469-8.021.32-7.657 3.211.244 1.928 3.357 3.22 9.34 3.879L21 165l-2.246-4.882zM35 148.917L27.567 146 17 150.808 17.736 152 27.567 148.697 35 151.395z" transform="translate(-100 -252) translate(100 252) translate(88 46)"/>
                    <path fill="#FFA32C" d="M16.754 153.118c-3.767-5.04-6.792-7.404-9.077-7.09-3.427.469-8.021.32-7.657 3.211.244 1.928 3.357 3.22 9.34 3.879L19 158l-2.246-4.882z" transform="translate(-100 -252) translate(100 252) translate(88 46)"/>
                </g>
                <g>
                    <path fill="#FFF" d="M61.96 7.31h-.056c.096-.801.041-1.653-.211-2.543C60.957 2.277 58.75.361 56.16.054c-2.113-.252-4.063.505-5.438 1.85C49.427.734 47.73 0 45.846 0c-4.05 0-7.337 3.275-7.337 7.31v.037c-4.915.362-8.79 4.448-8.79 9.454 0 .76.105 1.49.28 2.209-5.866.241-10.528 5.033-10.528 10.929 0 1.997.533 3.861 1.47 5.473C19.15 36.874 18 39.114 18 41.615c0 2.276.905 5.804 2.444 7.266C27.042 43.503 34.05 60 42.21 74.35c2.712 4.765 32.001-.306 34.338 2.649 2.66-2.382 4.384-43.878 4.45-47.524.119-5.845-3.606-10.838-8.819-12.661-.373-5.313-4.809-9.505-10.22-9.505z" transform="translate(-100 -252) translate(100 252) translate(240 136)"/>
                    <g>
                        <path fill="#A9D2D2" d="M42.161 47.56L0 47.56 0 21.138 21.081 0 42.904 21.381z" transform="translate(-100 -252) translate(100 252) translate(240 136) rotate(27 26.155 131.15)"/>
                        <path fill="#0D8888" d="M42.161 47.56L76.417 47.56 76.417 21.138 42.161 21.138z" transform="translate(-100 -252) translate(100 252) translate(240 136) rotate(27 26.155 131.15)"/>
                        <path fill="#137F7F" d="M57.416 1.982L55.45 0 21.081 0 42.346 21.138 76.417 21.138z" transform="translate(-100 -252) translate(100 252) translate(240 136) rotate(27 26.155 131.15)"/>
                        <path fill="#088888" d="M14.493 47.56L27.668 47.56 27.668 29.064 14.493 29.064z" transform="translate(-100 -252) translate(100 252) translate(240 136) rotate(27 26.155 131.15)"/>
                    </g>
                    <g>
                        <path fill="#E3E2E1" d="M34.385 12.063L39.866 12.063 39.866 8.419 34.385 8.419z" transform="translate(-100 -252) translate(100 252) translate(240 136) rotate(40 -28.758 59.498)"/>
                        <path fill="#086F6F" d="M61.903 47.33H3.635C1.627 47.33 0 45.706 0 43.703V3.625C0 1.623 1.627 0 3.635 0h58.268c2.003 0 3.63 1.623 3.63 3.625v40.078c0 2.003-1.627 3.627-3.63 3.627" transform="translate(-100 -252) translate(100 252) translate(240 136) rotate(40 -28.758 59.498)"/>
                        <path fill="#21C2C2" d="M7.912 37.183c.623 0 1.125.507 1.125 1.128 0 .58-.437 1.06-1.002 1.121l-.123.007H6.781c-.624 0-1.131-.506-1.131-1.128 0-.58.441-1.06 1.008-1.122l.123-.006h1.131zm6.774 0c.63 0 1.131.507 1.131 1.128 0 .58-.436 1.06-1.007 1.121l-.124.007H12.43c-.624 0-1.13-.506-1.13-1.128 0-.58.44-1.06 1.007-1.122l.123-.006h2.256zm5.65 0c.63 0 1.131.507 1.131 1.128 0 .58-.436 1.06-1.007 1.121l-.124.007h-1.124c-.63 0-1.132-.506-1.132-1.128 0-.58.437-1.06 1.007-1.122l.125-.006h1.124zm6.78 0c.625 0 1.132.507 1.132 1.128 0 .58-.442 1.06-1.008 1.121l-.123.007H24.86c-.63 0-1.131-.506-1.131-1.128 0-.58.437-1.06 1.007-1.122l.124-.006h2.256zm5.325.33c.204.215.325.506.325.798 0 .291-.121.588-.325.804-.216.197-.508.324-.806.324-.292 0-.585-.127-.8-.324-.203-.216-.324-.513-.324-.804 0-.292.121-.583.325-.797.402-.419 1.175-.419 1.605 0zM16.95 31.549c.623 0 1.131.507 1.131 1.128 0 .582-.443 1.06-1.008 1.122l-.123.007H6.78c-.624 0-1.131-.506-1.131-1.129 0-.58.441-1.06 1.008-1.121l.123-.007h10.168zm14.686 0c.63 0 1.131.507 1.131 1.128 0 .582-.437 1.06-1.007 1.122l-.124.007H21.467c-.623 0-1.131-.506-1.131-1.129 0-.58.443-1.06 1.008-1.121l.123-.007h10.168zM23.443 7.89c.449 0 .87.117 1.236.321l.135.08c.704.452 1.172 1.24 1.172 2.135v1.685h-.002l.001 5.902v3.109c0 1.403-1.14 2.543-2.542 2.543H8.2c-1.407 0-2.55-1.14-2.55-2.543V10.426c0-1.398 1.143-2.536 2.55-2.536h15.244zM12.43 19.158H7.911l.001 1.964c0 .16.126.286.287.286h4.247c-.01-.094-.016-.189-.016-.286v-1.964zm11.014-9.018H14.98c-.16 0-.293.132-.293.286v10.696c0 .16.133.286.293.286h1.683c.16 0 .287-.127.287-.286v-6.185c0-1.403 1.142-2.54 2.55-2.54h3.944c.154 0 .287-.133.287-.286v-1.685c0-.062-.022-.12-.057-.168-.053-.07-.138-.118-.23-.118zm.286 9.018h-4.518v1.964c0 .097-.005.192-.015.286h4.247c.154 0 .287-.127.287-.286v-1.964zm0-4.623c-.117.074-.212.11-.286.11h-3.945c-.16 0-.286.133-.286.292v1.965h4.517v-2.367zm-11.3.11H7.911v2.257h4.518v-2.257zm.017-4.505H8.2c-.161 0-.287.132-.287.286v1.97h4.517l.001-1.97c0-.097.006-.192.016-.286z" transform="translate(-100 -252) translate(100 252) translate(240 136) rotate(40 -28.758 59.498)"/>
                    </g>
                    <path fill="#21C2C2" d="M88.446 95.42c3.468-2.022 7.54-2.168 11.008-.146l1.874 1.078c3.468 2.009 8.025 2.278 11.493.27l4.266-1.803c.77-2.107 2.83-5.937 3.047-6.606 4.944-15.359 7.428-29.94 7.862-46.053.18-6.483-5.378-16.6-14.61-11.998-9.067 4.509-15.562 21.816-20.12 30.031C86.78 71.883 81.645 84.576 78 97.53c2.771.669 6.074.554 8.618-.909l1.828-1.201zM21.541 96.959c4.07 2.35 9.164 2.35 13.233 0l.913-.532c3.477-2.005 7.826-2.005 11.302 0l1.879 1.09c2.046 1.174 4.376 1.646 6.67 1.434 2.835-4.775 1.116-11.776-1.497-16.203-8.788-14.918-16.1-11.875-23.142-5.406-1.35 1.238-2.998 2.153-4.8 2.648-7.725 2.115-13.412 5.589-10.17 15.028.567-.396 1.365-.507 2.06-.098l3.552 2.039z" transform="translate(-100 -252) translate(100 252) translate(240 136)"/>
                    <g>
                        <path fill="#00A7A7" d="M36.059 48.427c-.273 0-.545-.038-.817-.138-1.324-.451-2.027-1.903-1.584-3.243 1.694-5.033 7.113-7.725 12.088-6.036 2.325.802 4.861-.461 5.653-2.817.444-1.35 1.881-2.064 3.214-1.616 1.324.465 2.03 1.917 1.584 3.257-1.694 5.032-7.113 7.737-12.085 6.036-2.324-.802-4.861.46-5.653 2.817-.358 1.077-1.35 1.74-2.4 1.74M42.047 30.561c-.26 0-.545-.038-.817-.125-1.324-.464-2.03-1.916-1.583-3.256.83-2.443 2.536-4.42 4.81-5.558 2.277-1.129 4.865-1.304 7.274-.478 2.34.802 4.862-.461 5.654-2.83.446-1.34 1.894-2.051 3.217-1.603 1.324.465 2.03 1.917 1.583 3.257-1.694 5.032-7.112 7.737-12.084 6.036-1.128-.388-2.34-.315-3.405.224-1.06.525-1.865 1.451-2.248 2.593-.361 1.077-1.337 1.74-2.4 1.74M48.045 12.692c-.272 0-.544-.035-.817-.125-1.323-.462-2.04-1.913-1.583-3.253 1.472-4.42 6.235-6.789 10.603-5.298.842.288 1.732.227 2.511-.16.792-.392 1.387-1.077 1.669-1.917.447-1.34 1.881-2.068 3.217-1.603 1.324.452 2.03 1.904 1.584 3.256-.728 2.138-2.226 3.87-4.218 4.856-2.005 1.003-4.282 1.154-6.398.427-1.72-.59-3.584.336-4.167 2.09-.358 1.064-1.35 1.727-2.4 1.727" transform="translate(-100 -252) translate(100 252) translate(240 136) translate(56 43)"/>
                        <path fill="#FFF" d="M.37 35.895L4.292 54.01l1.805-1.09c3.341-2.042 7.522-2.042 10.863 0l1.805 1.09c1.473.888 2.86 1.189 2.86 1.189 2.635-9.805 6.366-19.489 10.562-28.691-1.966-4.958-6.445-6.605-9.489-8.307-.022 0-.035-.013-.047-.026-1.932-1.112-2.043-3.778-.596-5.471.57-.676.83-1.59.63-2.516l-.307-1.414c-.335-1.554-1.868-2.554-3.413-2.218L3.572 9.964c-1.545.337-2.524 1.891-2.188 3.456l.31 1.413c.197.94.84 1.667 1.657 2.029 1.88.814 3.018 2.93 2.065 4.76-.099.16-.197.337-.32.5-2.4 3.218-6.173 7.035-4.725 13.773z" transform="translate(-100 -252) translate(100 252) translate(240 136) translate(56 43)"/>
                    </g>
                    <g>
                        <path fill="#FFF" d="M60.469 8.521l-17.393 3.816c-1.924.422-3.836-.806-4.256-2.738l-.247-1.138c-.42-1.936.803-3.855 2.727-4.277L58.692.368c1.912-.422 3.827.818 4.248 2.738l.259 1.152c.417 1.922-.816 3.841-2.73 4.263" transform="translate(-100 -252) translate(100 252) translate(240 136) translate(17 49)"/>
                        <g transform="translate(-100 -252) translate(100 252) translate(240 136) translate(17 49) translate(0 44.018)">
                            <mask id="o57kvnvmib" fill="#fff">
                                <use xlink:href="#pys7o69yua"/>
                            </mask>
                            <path fill="#0D4D6D" d="M104.918.064l-4.485 61.452c-.324 6.139-5.623 10.948-12.035 10.948H16.406c-6.41 0-11.707-4.81-12.034-10.948L.002 2.076C-.07.687 1.52-.224 2.77.497l3.446 1.977c3.969 2.277 8.915 2.277 12.871 0l.888-.516c3.395-1.943 7.614-1.943 10.996 0l1.827 1.056c3.396 1.943 7.614 1.943 10.996 0l1.827-1.056c3.395-1.943 7.614-1.943 10.996 0l1.828 1.056c3.395 1.943 7.613 1.943 10.995 0l1.828-1.056c3.394-1.943 7.613-1.943 10.995 0l1.828 1.056c3.394 1.943 7.613 1.943 10.995 0l8.691-3.692c.552-.24 1.164.168 1.142.743" mask="url(#o57kvnvmib)"/>
                        </g>
                    </g>
                </g>
            </g>
        </g>
    </g>
</svg>
