<svg xmlns="http://www.w3.org/2000/svg" xmlns:xlink="http://www.w3.org/1999/xlink" width="101" height="100" viewBox="0 0 101 100">
    <defs>
        <ellipse id="3c78i8pk2e" cx="8.537" cy="5.384" rx="8.537" ry="5.384"/>
        <ellipse id="f796tm9s2g" cx="8.433" cy="5.595" rx="8.433" ry="5.595"/>
        <ellipse id="ubhqd6627i" cx="8.445" cy="5.246" rx="8.445" ry="5.246"/>
        <ellipse id="u4mvvxghjk" cx="8.445" cy="5.246" rx="8.445" ry="5.246"/>
        <ellipse id="7pw8ys2v4m" cx="8.537" cy="5.384" rx="8.537" ry="5.384"/>
        <ellipse id="bjqd0on23o" cx="8.445" cy="5.246" rx="8.445" ry="5.246"/>
        <ellipse id="f1zlhn6ysq" cx="8.537" cy="5.384" rx="8.537" ry="5.384"/>
        <ellipse id="g2lb4vg1us" cx="8.537" cy="5.384" rx="8.537" ry="5.384"/>
        <path id="tf964fzrca" d="M101.515 50c0 27.614-22.61 50-50.5 50S.515 77.614.515 50s22.61-50 50.5-50 50.5 22.386 50.5 50z"/>
        <path id="kkom8oxirc" d="M7.723 0h52.089c1.105 0 2 .895 2 2v5.802c0 1.1-.602 2.111-1.568 2.636-2.389 1.297-3.583 2.844-3.583 4.64 0 2.103 3.817 9.531 11.451 22.285.372.62.568 1.33.568 2.054v31.345c0 1.563-.91 2.984-2.332 3.636C58.208 78.133 47.538 80 34.34 80c-13.199 0-23.868-1.867-32.008-5.602C.91 73.746 0 72.325 0 70.762V40.43c0-.683.175-1.354.507-1.95 7.14-12.794 10.71-20.595 10.71-23.401 0-2.39-1.268-3.787-3.806-4.187-.972-.154-1.688-.992-1.688-1.976V2c0-1.105.896-2 2-2z"/>
    </defs>
    <g fill="none" fill-rule="evenodd">
        <g>
            <g>
                <g transform="translate(-142 -292) translate(142 292)">
                    <mask id="kodn1jakxb" fill="#fff">
                        <use xlink:href="#tf964fzrca"/>
                    </mask>
                    <use fill="#3F8EC3" xlink:href="#tf964fzrca"/>
                    <g mask="url(#kodn1jakxb)">
                        <g transform="translate(16.422 34)">
                            <mask id="if1ihng2gd" fill="#fff">
                                <use xlink:href="#kkom8oxirc"/>
                            </mask>
                            <use fill="#2A6BA0" xlink:href="#kkom8oxirc"/>
                            <g mask="url(#if1ihng2gd)">
                                <g>
                                    <g transform="translate(3.98 22.526) rotate(15 -64.52 157.643)">
                                        <path fill="#F19F07" d="M10.592 16.75c5.885 0 9.821-2.662 10.561-7.414.104-.665.054-2.305 0-2.66C20.5 2.397 16.027 0 10.592 0 5.179 0 .709 2.687.026 6.941c-.06.372 0 1.818 0 2.202 0 4.79 4.68 7.606 10.566 7.606z"/>
                                        <ellipse cx="10.866" cy="6.58" fill="#FEE34B" rx="10.348" ry="6.58"/>
                                        <ellipse cx="10.866" cy="5.982" fill="#F19F07" rx="8.796" ry="5.982"/>
                                        <g transform="translate(2.07)">
                                            <mask id="2b1swf9dkf" fill="#fff">
                                                <use xlink:href="#3c78i8pk2e"/>
                                            </mask>
                                            <use fill="#FEE34B" xlink:href="#3c78i8pk2e"/>
                                            <path fill="#FFFBB6" d="M2.738.444L4.4 11.556 10.287 11.366 5.903.444zM.389 1.117L1.605 9.571 2.365 9.571 1.377 1.117zM7.759 0L11.196 10.294 13.43 9.742 8.464 0z" mask="url(#2b1swf9dkf)"/>
                                        </g>
                                    </g>
                                    <g transform="translate(3.98 22.526) translate(19.392 26.074)">
                                        <path fill="#F19F07" d="M10.463 17.408c5.813 0 9.702-2.766 10.433-7.705.102-.691.053-2.396 0-2.764C20.25 2.491 15.832 0 10.463 0 5.116 0 .7 2.793.026 7.214c-.059.386 0 1.889 0 2.288 0 4.979 4.623 7.906 10.437 7.906z"/>
                                        <ellipse cx="10.733" cy="6.839" fill="#FEE34B" rx="10.222" ry="6.839"/>
                                        <ellipse cx="10.733" cy="6.217" fill="#F19F07" rx="8.689" ry="6.217"/>
                                        <g transform="translate(2.044)">
                                            <mask id="8ef3iebmnh" fill="#fff">
                                                <use xlink:href="#f796tm9s2g"/>
                                            </mask>
                                            <use fill="#FEE34B" xlink:href="#f796tm9s2g"/>
                                            <path fill="#FFFBB6" d="M2.704.461L4.347 12.011 10.162 11.812 5.831.461zM.384 1.161L1.585 9.947 2.336 9.947 1.36 1.161zM7.665 0L11.059 10.699 13.266 10.125 8.36 0z" mask="url(#8ef3iebmnh)"/>
                                        </g>
                                    </g>
                                    <g transform="translate(3.98 22.526) rotate(-14 110.204 12.494)">
                                        <path fill="#F19F07" d="M10.477 16.32c5.821 0 9.715-2.593 10.447-7.223.102-.648.053-2.246 0-2.591C20.277 2.335 15.854 0 10.477 0 5.123 0 .7 2.618.027 6.763c-.06.362 0 1.771 0 2.146 0 4.667 4.629 7.411 10.45 7.411z"/>
                                        <ellipse cx="10.748" cy="6.411" fill="#FEE34B" rx="10.236" ry="6.411"/>
                                        <ellipse cx="10.748" cy="5.829" fill="#F19F07" rx="8.701" ry="5.829"/>
                                        <g transform="translate(2.047)">
                                            <mask id="84pnflne3j" fill="#fff">
                                                <use xlink:href="#ubhqd6627i"/>
                                            </mask>
                                            <use fill="#FEE34B" xlink:href="#ubhqd6627i"/>
                                            <path fill="#FFFBB6" d="M2.708.432L4.352 11.26 10.176 11.074 5.839.432zM.385 1.088L1.587 9.326 2.339 9.326 1.362 1.088zM7.675 0L11.074 10.03 13.284 9.492 8.372 0z" mask="url(#84pnflne3j)"/>
                                        </g>
                                    </g>
                                    <g transform="translate(3.98 22.526) rotate(-14 87.317 -33.041)">
                                        <path fill="#F19F07" d="M10.477 16.32c5.821 0 9.715-2.593 10.447-7.223.102-.648.053-2.246 0-2.591C20.277 2.335 15.854 0 10.477 0 5.123 0 .7 2.618.027 6.763c-.06.362 0 1.771 0 2.146 0 4.667 4.629 7.411 10.45 7.411z"/>
                                        <ellipse cx="10.748" cy="6.411" fill="#FEE34B" rx="10.236" ry="6.411"/>
                                        <ellipse cx="10.748" cy="5.829" fill="#F19F07" rx="8.701" ry="5.829"/>
                                        <g transform="translate(2.047)">
                                            <mask id="61keksiayl" fill="#fff">
                                                <use xlink:href="#u4mvvxghjk"/>
                                            </mask>
                                            <use fill="#FEE34B" xlink:href="#u4mvvxghjk"/>
                                            <path fill="#FFFBB6" d="M2.708.432L4.352 11.26 10.176 11.074 5.839.432zM.385 1.088L1.587 9.326 2.339 9.326 1.362 1.088zM7.675 0L11.074 10.03 13.284 9.492 8.372 0z" mask="url(#61keksiayl)"/>
                                        </g>
                                    </g>
                                    <g transform="translate(3.98 22.526) rotate(27 -9.753 68.7)">
                                        <path fill="#F19F07" d="M10.592 16.75c5.885 0 9.821-2.662 10.561-7.414.104-.665.054-2.305 0-2.66C20.5 2.397 16.027 0 10.592 0 5.179 0 .709 2.687.026 6.941c-.06.372 0 1.818 0 2.202 0 4.79 4.68 7.606 10.566 7.606z"/>
                                        <ellipse cx="10.866" cy="6.58" fill="#FEE34B" rx="10.348" ry="6.58"/>
                                        <ellipse cx="10.866" cy="5.982" fill="#F19F07" rx="8.796" ry="5.982"/>
                                        <g transform="translate(2.07)">
                                            <mask id="st31ar5dwn" fill="#fff">
                                                <use xlink:href="#7pw8ys2v4m"/>
                                            </mask>
                                            <use fill="#FEE34B" xlink:href="#7pw8ys2v4m"/>
                                            <path fill="#FFFBB6" d="M2.738.444L4.4 11.556 10.287 11.366 5.903.444zM.389 1.117L1.605 9.571 2.365 9.571 1.377 1.117zM7.759 0L11.196 10.294 13.43 9.742 8.464 0z" mask="url(#st31ar5dwn)"/>
                                        </g>
                                    </g>
                                    <g transform="translate(3.98 22.526) rotate(-14 46.077 -24.146)">
                                        <path fill="#F19F07" d="M10.477 16.32c5.821 0 9.715-2.593 10.447-7.223.102-.648.053-2.246 0-2.591C20.277 2.335 15.854 0 10.477 0 5.123 0 .7 2.618.027 6.763c-.06.362 0 1.771 0 2.146 0 4.667 4.629 7.411 10.45 7.411z"/>
                                        <ellipse cx="10.748" cy="6.411" fill="#FEE34B" rx="10.236" ry="6.411"/>
                                        <ellipse cx="10.748" cy="5.829" fill="#F19F07" rx="8.701" ry="5.829"/>
                                        <g transform="translate(2.047)">
                                            <mask id="0x3r3wi9sp" fill="#fff">
                                                <use xlink:href="#bjqd0on23o"/>
                                            </mask>
                                            <use fill="#FEE34B" xlink:href="#bjqd0on23o"/>
                                            <path fill="#FFFBB6" d="M2.708.432L4.352 11.26 10.176 11.074 5.839.432zM.385 1.088L1.587 9.326 2.339 9.326 1.362 1.088zM7.675 0L11.074 10.03 13.284 9.492 8.372 0z" mask="url(#0x3r3wi9sp)"/>
                                        </g>
                                    </g>
                                    <g transform="translate(3.98 22.526) rotate(27 -1.078 93.738)">
                                        <path fill="#F19F07" d="M10.592 16.75c5.885 0 9.821-2.662 10.561-7.414.104-.665.054-2.305 0-2.66C20.5 2.397 16.027 0 10.592 0 5.179 0 .709 2.687.026 6.941c-.06.372 0 1.818 0 2.202 0 4.79 4.68 7.606 10.566 7.606z"/>
                                        <ellipse cx="10.866" cy="6.58" fill="#FEE34B" rx="10.348" ry="6.58"/>
                                        <ellipse cx="10.866" cy="5.982" fill="#F19F07" rx="8.796" ry="5.982"/>
                                        <g transform="translate(2.07)">
                                            <mask id="xg9ymj0fbr" fill="#fff">
                                                <use xlink:href="#f1zlhn6ysq"/>
                                            </mask>
                                            <use fill="#FEE34B" xlink:href="#f1zlhn6ysq"/>
                                            <path fill="#FFFBB6" d="M2.738.444L4.4 11.556 10.287 11.366 5.903.444zM.389 1.117L1.605 9.571 2.365 9.571 1.377 1.117zM7.759 0L11.196 10.294 13.43 9.742 8.464 0z" mask="url(#xg9ymj0fbr)"/>
                                        </g>
                                    </g>
                                    <g transform="translate(3.98 22.526) rotate(27 15.733 68.343)">
                                        <path fill="#F19F07" d="M10.592 16.75c5.885 0 9.821-2.662 10.561-7.414.104-.665.054-2.305 0-2.66C20.5 2.397 16.027 0 10.592 0 5.179 0 .709 2.687.026 6.941c-.06.372 0 1.818 0 2.202 0 4.79 4.68 7.606 10.566 7.606z"/>
                                        <ellipse cx="10.866" cy="6.58" fill="#FEE34B" rx="10.348" ry="6.58"/>
                                        <ellipse cx="10.866" cy="5.982" fill="#F19F07" rx="8.796" ry="5.982"/>
                                        <g transform="translate(2.07)">
                                            <mask id="emtf99krtt" fill="#fff">
                                                <use xlink:href="#g2lb4vg1us"/>
                                            </mask>
                                            <use fill="#FEE34B" xlink:href="#g2lb4vg1us"/>
                                            <path fill="#FFFBB6" d="M2.738.444L4.4 11.556 10.287 11.366 5.903.444zM.389 1.117L1.605 9.571 2.365 9.571 1.377 1.117zM7.759 0L11.196 10.294 13.43 9.742 8.464 0z" mask="url(#emtf99krtt)"/>
                                        </g>
                                    </g>
                                </g>
                            </g>
                        </g>
                    </g>
                    <path fill="#E8F8F8" d="M34.041 45.926L59.478 45.926 19.078 99.259 20.948 74.444z" mask="url(#kodn1jakxb)" opacity=".5"/>
                    <g mask="url(#kodn1jakxb)">
                        <g>
                            <path fill="#FEE175" fill-rule="nonzero" d="M99.023 2.415c.312-.561 1.764-.761 2.32-.446.517.292.724.926.502 1.464l-.06.123-24.314 21.11L52.034 8 32.776 31.942 2.18 38.935c-.562.305-1.262.092-1.563-.475-.28-.527-.119-1.174.356-1.507l.115-.072 30.265-6.813L51.817 4.721 77.47 21.704 99.023 2.415z" transform="translate(0 30.519)"/>
                            <path fill="#FFF" d="M31.283 38.074c-.358 0-.68-.213-.817-.54-1.74-4.159-3.022-5.429-7.223-7.151-.33-.136-.545-.455-.545-.809 0-.354.215-.673.545-.808 4.201-1.723 5.483-2.993 7.223-7.152.137-.327.46-.54.817-.54.357 0 .68.213.816.54 1.74 4.159 3.023 5.429 7.223 7.152.33.135.546.454.546.808 0 .354-.215.674-.546.809-4.2 1.722-5.483 2.992-7.223 7.15-.137.328-.459.541-.816.541M50.473 17.074c-.358 0-.68-.213-.817-.54-1.74-4.159-3.022-5.429-7.223-7.151-.33-.136-.545-.455-.545-.809 0-.354.215-.673.545-.808 4.201-1.723 5.483-2.993 7.223-7.152.137-.327.46-.54.817-.54.357 0 .68.213.816.54 1.74 4.159 3.023 5.429 7.223 7.152.33.135.546.454.546.808 0 .354-.215.674-.546.809-4.2 1.722-5.483 2.992-7.223 7.15-.137.328-.459.541-.816.541M77.452 32.407c-.358 0-.68-.213-.817-.54-1.74-4.159-3.022-5.428-7.223-7.15-.33-.136-.545-.455-.545-.81 0-.353.215-.672.545-.808 4.201-1.723 5.483-2.993 7.223-7.151.137-.327.46-.54.817-.54.357 0 .68.213.816.54 1.74 4.158 3.023 5.428 7.223 7.151.33.136.546.455.546.809 0 .354-.215.673-.546.808-4.2 1.722-5.483 2.992-7.223 7.151-.137.327-.459.54-.816.54" transform="translate(0 30.519)"/>
                        </g>
                    </g>
                </g>
                <g fill-rule="nonzero">
                    <path fill="#50E3C2" d="M13.093 25.926C5.877 25.926 0 20.138 0 12.963 0 5.788 5.877 0 13.093 0s13.092 5.788 13.092 12.963c0 7.175-5.876 12.963-13.092 12.963z" transform="translate(-142 -292) translate(142 292) translate(74.815 6.667)"/>
                    <g>
                        <path fill="#41D1B1" d="M13.093 25.926C5.866 25.926 0 20.128 0 12.963 0 5.798 5.866 0 13.093 0c7.226 0 13.092 5.798 13.092 12.963 0 7.165-5.866 12.963-13.092 12.963zm.163-2.269c5.872 0 10.638-4.71 10.638-10.532 0-5.821-4.766-10.532-10.638-10.532S2.62 7.303 2.62 13.125c0 5.821 4.765 10.532 10.637 10.532z" transform="translate(-142 -292) translate(142 292) translate(74.815 6.667)"/>
                        <path fill="#FFF" d="M10.603 14.961L18.849 6.844 21.158 9.117 10.603 19.506 5.028 14.018 7.336 11.745z" transform="translate(-142 -292) translate(142 292) translate(74.815 6.667)"/>
                    </g>
                </g>
            </g>
        </g>
    </g>
</svg>
