<?xml version="1.0" encoding="UTF-8"?>
<svg width="600px" height="300px" viewBox="0 0 600 300" version="1.1" xmlns="http://www.w3.org/2000/svg" xmlns:xlink="http://www.w3.org/1999/xlink" style="background: #FFFFFF;">
    <title>Graph / A White 600px</title>
    <defs>
        <path d="M600,70.8 L600,223.2 L50,223.2 L50,186.6 C158.905647,170.45394 246.258588,155.45394 312.058824,141.6 C377.859059,127.74606 473.839451,104.14606 600,70.8 Z" id="path-1"></path>
        <filter x="-19.6%" y="-61.1%" width="139.3%" height="222.2%" filterUnits="objectBoundingBox" id="filter-3">
            <feOffset dx="0" dy="6" in="SourceAlpha" result="shadowOffsetOuter1"></feOffset>
            <feGaussianBlur stdDeviation="4" in="shadowOffsetOuter1" result="shadowBlurOuter1"></feGaussianBlur>
            <feColorMatrix values="0 0 0 0 0.828464674   0 0 0 0 0.828464674   0 0 0 0 0.828464674  0 0 0 0.5 0" type="matrix" in="shadowBlurOuter1" result="shadowMatrixOuter1"></feColorMatrix>
            <feMerge>
                <feMergeNode in="shadowMatrixOuter1"></feMergeNode>
                <feMergeNode in="SourceGraphic"></feMergeNode>
            </feMerge>
        </filter>
    </defs>
    <g id="Graph-/-A-White-600px" stroke="none" stroke-width="1" fill="none" fill-rule="evenodd">
        <rect fill="#FFFFFF" x="0" y="0" width="600" height="300"></rect>
        <g id="Grid" transform="translate(0.000000, 39.200000)" fill-rule="nonzero" stroke="#E7E7E7" stroke-linecap="square">
            <line x1="600" y1="39.5" x2="0" y2="39.5" id="Line-7-Copy"></line>
            <line x1="600" y1="76" x2="0" y2="76" id="Line-7-Copy-5"></line>
            <line x1="600" y1="3" x2="0" y2="3" id="Line-7-Copy"></line>
            <line x1="600" y1="184" x2="0" y2="184" id="Line-7-Copy-2"></line>
            <line x1="600" y1="148" x2="0" y2="148" id="Line-7-Copy-6"></line>
            <line x1="600" y1="112" x2="0" y2="112" id="Line-7-Copy-7"></line>
        </g>
        <path d="M553.224,246.477 C554.229333,246.477 555.028833,246.243 555.6225,245.775 C556.216167,245.307 556.513,244.67 556.513,243.864 C556.513,243.292 556.367833,242.811 556.0775,242.421 C555.787167,242.031 555.369,241.762333 554.823,241.615 C555.282333,241.441667 555.639833,241.1665 555.8955,240.7895 C556.151167,240.4125 556.283333,239.968333 556.292,239.457 C556.292,238.711667 556.021167,238.115833 555.4795,237.6695 C554.937833,237.223167 554.212,237 553.302,237 C552.704,237 552.121167,237.0975 551.5535,237.2925 C550.985833,237.4875 550.515667,237.749667 550.143,238.079 L550.143,238.079 L550.702,239.301 C551.534,238.659667 552.366,238.339 553.198,238.339 C553.666,238.339 554.03,238.451667 554.29,238.677 C554.55,238.902333 554.68,239.227333 554.68,239.652 C554.68,240.562 554.082,241.017 552.886,241.017 L552.886,241.017 L551.885,241.017 L551.885,242.356 L553.107,242.356 C553.722333,242.356 554.177333,242.4665 554.472,242.6875 C554.766667,242.9085 554.914,243.253 554.914,243.721 C554.914,244.197667 554.768833,244.553 554.4785,244.787 C554.188167,245.021 553.748333,245.138 553.159,245.138 C552.257667,245.138 551.395333,244.817333 550.572,244.176 L550.572,244.176 L550,245.398 C550.372667,245.736 550.847167,246.000333 551.4235,246.191 C551.999833,246.381667 552.6,246.477 553.224,246.477 Z M560.94925,246.49 C562.049917,246.49 562.888417,246.082667 563.46475,245.268 C564.041083,244.453333 564.32925,243.274667 564.32925,241.732 C564.32925,240.198 564.041083,239.030167 563.46475,238.2285 C562.888417,237.426833 562.049917,237.026 560.94925,237.026 C559.848583,237.026 559.010083,237.429 558.43375,238.235 C557.857417,239.041 557.56925,240.206667 557.56925,241.732 C557.56925,243.283333 557.857417,244.464167 558.43375,245.2745 C559.010083,246.084833 559.848583,246.49 560.94925,246.49 Z M560.94925,245.177 C560.35125,245.177 559.91575,244.901833 559.64275,244.3515 C559.36975,243.801167 559.23325,242.928 559.23325,241.732 C559.23325,240.553333 559.36975,239.693167 559.64275,239.1515 C559.91575,238.609833 560.35125,238.339 560.94925,238.339 C561.54725,238.339 561.98275,238.609833 562.25575,239.1515 C562.52875,239.693167 562.66525,240.553333 562.66525,241.732 C562.66525,242.928 562.52875,243.801167 562.25575,244.3515 C561.98275,244.901833 561.54725,245.177 560.94925,245.177 Z M568.65175,249.337 C569.440417,249.215667 570.103417,248.968667 570.64075,248.596 C571.178083,248.223333 571.620083,247.629667 571.96675,246.815 L571.96675,246.815 L575.02175,239.808 L573.40975,239.808 L571.48575,244.527 L569.60075,239.808 L567.89775,239.808 L570.62775,246.139 L570.41975,246.62 C570.229083,247.036 569.979917,247.350167 569.67225,247.5625 C569.364583,247.774833 568.903083,247.950333 568.28775,248.089 L568.28775,248.089 L568.65175,249.337 Z M578.6,246.477 C579.068,246.477 579.5295,246.401167 579.9845,246.2495 C580.4395,246.097833 580.823,245.896333 581.135,245.645 L581.135,245.645 L580.667,244.527 C580.051667,244.995 579.384333,245.229 578.665,245.229 C578.041,245.229 577.570833,245.062167 577.2545,244.7285 C576.938167,244.394833 576.762667,243.877 576.728,243.175 L576.728,243.175 L581.252,243.175 L581.252,242.928 C581.252,241.905333 580.989833,241.1015 580.4655,240.5165 C579.941167,239.9315 579.228333,239.639 578.327,239.639 C577.711667,239.639 577.161333,239.784167 576.676,240.0745 C576.190667,240.364833 575.813667,240.77 575.545,241.29 C575.276333,241.81 575.142,242.403667 575.142,243.071 C575.142,244.128333 575.449667,244.960333 576.065,245.567 C576.680333,246.173667 577.525333,246.477 578.6,246.477 Z M579.835,242.304 L576.78,242.304 C576.858,241.818667 577.0335,241.448167 577.3065,241.1925 C577.5795,240.936833 577.932667,240.809 578.366,240.809 C578.799333,240.809 579.1395,240.934667 579.3865,241.186 C579.6335,241.437333 579.783,241.81 579.835,242.304 L579.835,242.304 Z M584.93425,246.477 C585.410917,246.477 585.835583,246.375167 586.20825,246.1715 C586.580917,245.967833 586.866917,245.684 587.06625,245.32 L587.06625,245.32 L587.06625,246.373 L588.66525,246.373 L588.66525,239.808 L587.06625,239.808 L587.06625,240.796 C586.866917,240.432 586.580917,240.148167 586.20825,239.9445 C585.835583,239.740833 585.410917,239.639 584.93425,239.639 C584.370917,239.639 583.86825,239.784167 583.42625,240.0745 C582.98425,240.364833 582.63975,240.772167 582.39275,241.2965 C582.14575,241.820833 582.02225,242.421 582.02225,243.097 C582.02225,243.773 582.143583,244.366667 582.38625,244.878 C582.628917,245.389333 582.97125,245.783667 583.41325,246.061 C583.85525,246.338333 584.36225,246.477 584.93425,246.477 Z M585.37625,245.203 C584.83025,245.203 584.40775,245.021 584.10875,244.657 C583.80975,244.293 583.66025,243.773 583.66025,243.097 C583.66025,242.412333 583.80975,241.877167 584.10875,241.4915 C584.40775,241.105833 584.825917,240.913 585.36325,240.913 C585.90925,240.913 586.329583,241.099333 586.62425,241.472 C586.918917,241.844667 587.06625,242.377667 587.06625,243.071 C587.06625,243.747 586.918917,244.271333 586.62425,244.644 C586.329583,245.016667 585.913583,245.203 585.37625,245.203 Z M591.8015,246.373 L591.8015,242.824 C591.8015,242.295333 591.946667,241.870667 592.237,241.55 C592.527333,241.229333 592.949833,241.069 593.5045,241.069 C593.799167,241.069 594.085167,241.125333 594.3625,241.238 L594.3625,241.238 L594.3755,239.756 C594.1935,239.686667 593.976833,239.652 593.7255,239.652 C593.274833,239.652 592.871833,239.764667 592.5165,239.99 C592.161167,240.215333 591.901167,240.540333 591.7365,240.965 L591.7365,240.965 L591.6065,239.808 L590.0855,239.808 C590.154833,240.354 590.1895,240.973667 590.1895,241.667 L590.1895,241.667 L590.1895,246.373 L591.8015,246.373 Z M597.38175,246.477 C598.222417,246.477 598.885417,246.299333 599.37075,245.944 C599.856083,245.588667 600.09875,245.107667 600.09875,244.501 C600.09875,244.007 599.94925,243.606167 599.65025,243.2985 C599.35125,242.990833 598.87675,242.763333 598.22675,242.616 L598.22675,242.616 L597.10875,242.369 C596.805417,242.291 596.590917,242.195667 596.46525,242.083 C596.339583,241.970333 596.27675,241.818667 596.27675,241.628 C596.27675,241.385333 596.38075,241.194667 596.58875,241.056 C596.79675,240.917333 597.087083,240.848 597.45975,240.848 C598.153083,240.848 598.829083,241.090667 599.48775,241.576 L599.48775,241.576 L599.96875,240.471 C599.639417,240.202333 599.258083,239.9965 598.82475,239.8535 C598.391417,239.7105 597.94075,239.639 597.47275,239.639 C596.935417,239.639 596.463083,239.725667 596.05575,239.899 C595.648417,240.072333 595.332083,240.312833 595.10675,240.6205 C594.881417,240.928167 594.76875,241.281333 594.76875,241.68 C594.76875,242.642 595.36675,243.253 596.56275,243.513 L596.56275,243.513 L597.65475,243.76 C598.010083,243.846667 598.261417,243.9485 598.40875,244.0655 C598.556083,244.1825 598.62975,244.340667 598.62975,244.54 C598.62975,244.774 598.523583,244.956 598.31125,245.086 C598.098917,245.216 597.79775,245.281 597.40775,245.281 C596.506417,245.281 595.70475,245.021 595.00275,244.501 L595.00275,244.501 L594.54775,245.645 C595.24975,246.199667 596.194417,246.477 597.38175,246.477 Z" id="30years" fill="#5E5E5E" fill-rule="nonzero"></path>
        <path d="M114.365094,246.2835 L114.365094,238.8345 L119.955094,246.2835 L120.787094,246.2835 L120.787094,237.0275 L119.773094,237.0275 L119.773094,244.4765 L114.183094,237.0275 L113.364094,237.0275 L113.364094,246.2835 L114.365094,246.2835 Z M125.392344,246.3745 C126.007678,246.3745 126.549344,246.235833 127.017344,245.9585 C127.485344,245.681167 127.847178,245.286833 128.102844,244.7755 C128.358511,244.264167 128.486344,243.666167 128.486344,242.9815 C128.486344,242.296833 128.358511,241.698833 128.102844,241.1875 C127.847178,240.676167 127.485344,240.281833 127.017344,240.0045 C126.549344,239.727167 126.007678,239.5885 125.392344,239.5885 C124.777011,239.5885 124.235344,239.727167 123.767344,240.0045 C123.299344,240.281833 122.937511,240.676167 122.681844,241.1875 C122.426178,241.698833 122.298344,242.296833 122.298344,242.9815 C122.298344,243.666167 122.426178,244.264167 122.681844,244.7755 C122.937511,245.286833 123.299344,245.681167 123.767344,245.9585 C124.235344,246.235833 124.777011,246.3745 125.392344,246.3745 Z M125.392344,245.5035 C124.742344,245.5035 124.241844,245.289 123.890844,244.86 C123.539844,244.431 123.364344,243.804833 123.364344,242.9815 C123.364344,242.184167 123.542011,241.566667 123.897344,241.129 C124.252678,240.691333 124.751011,240.4725 125.392344,240.4725 C126.025011,240.4725 126.519011,240.691333 126.874344,241.129 C127.229678,241.566667 127.407344,242.184167 127.407344,242.9815 C127.407344,243.804833 127.234011,244.431 126.887344,244.86 C126.540678,245.289 126.042344,245.5035 125.392344,245.5035 Z M132.571594,246.2835 L134.430594,241.1745 L136.302594,246.2835 L137.316594,246.2835 L139.734594,239.7445 L138.694594,239.7445 L136.809594,245.0355 L134.924594,239.7445 L134.001594,239.7445 L132.090594,245.0225 L130.244594,239.7445 L129.139594,239.7445 L131.557594,246.2835 L132.571594,246.2835 Z" id="Now" fill="#5E5E5E" fill-rule="nonzero"></path>
        <g id="Group" transform="translate(10.000000, 277.000000)">
            <path d="M25.21,10 L25.21,5.931 L27.836,5.931 C28.7806667,5.931 29.5216667,5.69916667 30.059,5.2355 C30.5963333,4.77183333 30.865,4.137 30.865,3.331 C30.865,2.525 30.5985,1.89233333 30.0655,1.433 C29.5325,0.973666667 28.7893333,0.744 27.836,0.744 L27.836,0.744 L24.144,0.744 L24.144,10 L25.21,10 Z M27.745,5.047 L25.21,5.047 L25.21,1.628 L27.745,1.628 C28.4296667,1.628 28.9453333,1.77316667 29.292,2.0635 C29.6386667,2.35383333 29.812,2.77633333 29.812,3.331 C29.812,3.88566667 29.6386667,4.31033333 29.292,4.605 C28.9453333,4.89966667 28.4296667,5.047 27.745,5.047 L27.745,5.047 Z M34.72925,10.091 C35.3445833,10.091 35.88625,9.95233333 36.35425,9.675 C36.82225,9.39766667 37.1840833,9.00333333 37.43975,8.492 C37.6954167,7.98066667 37.82325,7.38266667 37.82325,6.698 C37.82325,6.01333333 37.6954167,5.41533333 37.43975,4.904 C37.1840833,4.39266667 36.82225,3.99833333 36.35425,3.721 C35.88625,3.44366667 35.3445833,3.305 34.72925,3.305 C34.1139167,3.305 33.57225,3.44366667 33.10425,3.721 C32.63625,3.99833333 32.2744167,4.39266667 32.01875,4.904 C31.7630833,5.41533333 31.63525,6.01333333 31.63525,6.698 C31.63525,7.38266667 31.7630833,7.98066667 32.01875,8.492 C32.2744167,9.00333333 32.63625,9.39766667 33.10425,9.675 C33.57225,9.95233333 34.1139167,10.091 34.72925,10.091 Z M34.72925,9.22 C34.07925,9.22 33.57875,9.0055 33.22775,8.5765 C32.87675,8.1475 32.70125,7.52133333 32.70125,6.698 C32.70125,5.90066667 32.8789167,5.28316667 33.23425,4.8455 C33.5895833,4.40783333 34.0879167,4.189 34.72925,4.189 C35.3619167,4.189 35.8559167,4.40783333 36.21125,4.8455 C36.5665833,5.28316667 36.74425,5.90066667 36.74425,6.698 C36.74425,7.52133333 36.5709167,8.1475 36.22425,8.5765 C35.8775833,9.0055 35.37925,9.22 34.72925,9.22 Z M40.2705,10 L40.2705,6.269 C40.2705,5.70566667 40.4243333,5.22683333 40.732,4.8325 C41.0396667,4.43816667 41.5098333,4.241 42.1425,4.241 C42.4025,4.241 42.6321667,4.27566667 42.8315,4.345 L42.8315,4.345 L42.8575,3.383 C42.6755,3.331 42.4761667,3.305 42.2595,3.305 C41.7915,3.305 41.3755,3.422 41.0115,3.656 C40.6475,3.89 40.3831667,4.228 40.2185,4.67 L40.2185,4.67 L40.1145,3.461 L39.1135,3.461 C39.1828333,4.007 39.2175,4.618 39.2175,5.294 L39.2175,5.294 L39.2175,10 L40.2705,10 Z M46.52675,10.091 C46.86475,10.091 47.1680833,10.0476667 47.43675,9.961 L47.43675,9.961 L47.43675,9.064 C47.2114167,9.142 46.9774167,9.181 46.73475,9.181 C46.37075,9.181 46.0890833,9.0835 45.88975,8.8885 C45.6904167,8.6935 45.59075,8.35333333 45.59075,7.868 L45.59075,7.868 L45.59075,4.293 L47.46275,4.293 L47.46275,3.461 L45.59075,3.461 L45.59075,1.407 L44.53775,1.784 L44.53775,3.461 L43.26375,3.461 L43.26375,4.293 L44.53775,4.293 L44.53775,8.011 C44.53775,8.69566667 44.71325,9.2135 45.06425,9.5645 C45.41525,9.9155 45.90275,10.091 46.52675,10.091 Z M50.04,10 L50.04,4.293 L51.639,4.293 L51.639,3.461 L50.04,3.461 L50.04,2.59 C50.04,2.11333333 50.1375,1.7775 50.3325,1.5825 C50.5275,1.3875 50.7983333,1.29 51.145,1.29 C51.353,1.29 51.5783333,1.32466667 51.821,1.394 L51.821,1.394 L51.821,0.497 C51.535,0.419 51.2403333,0.38 50.937,0.38 C50.3216667,0.38 49.8428333,0.5555 49.5005,0.9065 C49.1581667,1.2575 48.987,1.77533333 48.987,2.46 L48.987,2.46 L48.987,3.461 L47.713,3.461 L47.713,4.293 L48.987,4.293 L48.987,10 L50.04,10 Z M55.41225,10.091 C56.0275833,10.091 56.56925,9.95233333 57.03725,9.675 C57.50525,9.39766667 57.8670833,9.00333333 58.12275,8.492 C58.3784167,7.98066667 58.50625,7.38266667 58.50625,6.698 C58.50625,6.01333333 58.3784167,5.41533333 58.12275,4.904 C57.8670833,4.39266667 57.50525,3.99833333 57.03725,3.721 C56.56925,3.44366667 56.0275833,3.305 55.41225,3.305 C54.7969167,3.305 54.25525,3.44366667 53.78725,3.721 C53.31925,3.99833333 52.9574167,4.39266667 52.70175,4.904 C52.4460833,5.41533333 52.31825,6.01333333 52.31825,6.698 C52.31825,7.38266667 52.4460833,7.98066667 52.70175,8.492 C52.9574167,9.00333333 53.31925,9.39766667 53.78725,9.675 C54.25525,9.95233333 54.7969167,10.091 55.41225,10.091 Z M55.41225,9.22 C54.76225,9.22 54.26175,9.0055 53.91075,8.5765 C53.55975,8.1475 53.38425,7.52133333 53.38425,6.698 C53.38425,5.90066667 53.5619167,5.28316667 53.91725,4.8455 C54.2725833,4.40783333 54.7709167,4.189 55.41225,4.189 C56.0449167,4.189 56.5389167,4.40783333 56.89425,4.8455 C57.2495833,5.28316667 57.42725,5.90066667 57.42725,6.698 C57.42725,7.52133333 57.2539167,8.1475 56.90725,8.5765 C56.5605833,9.0055 56.06225,9.22 55.41225,9.22 Z M60.9535,10 L60.9535,0.432 L59.9005,0.432 L59.9005,10 L60.9535,10 Z M63.93375,1.888 L63.93375,0.692 L62.64675,0.692 L62.64675,1.888 L63.93375,1.888 Z M63.80375,10 L63.80375,3.461 L62.75075,3.461 L62.75075,10 L63.80375,10 Z M68.305,10.091 C68.9203333,10.091 69.462,9.95233333 69.93,9.675 C70.398,9.39766667 70.7598333,9.00333333 71.0155,8.492 C71.2711667,7.98066667 71.399,7.38266667 71.399,6.698 C71.399,6.01333333 71.2711667,5.41533333 71.0155,4.904 C70.7598333,4.39266667 70.398,3.99833333 69.93,3.721 C69.462,3.44366667 68.9203333,3.305 68.305,3.305 C67.6896667,3.305 67.148,3.44366667 66.68,3.721 C66.212,3.99833333 65.8501667,4.39266667 65.5945,4.904 C65.3388333,5.41533333 65.211,6.01333333 65.211,6.698 C65.211,7.38266667 65.3388333,7.98066667 65.5945,8.492 C65.8501667,9.00333333 66.212,9.39766667 66.68,9.675 C67.148,9.95233333 67.6896667,10.091 68.305,10.091 Z M68.305,9.22 C67.655,9.22 67.1545,9.0055 66.8035,8.5765 C66.4525,8.1475 66.277,7.52133333 66.277,6.698 C66.277,5.90066667 66.4546667,5.28316667 66.81,4.8455 C67.1653333,4.40783333 67.6636667,4.189 68.305,4.189 C68.9376667,4.189 69.4316667,4.40783333 69.787,4.8455 C70.1423333,5.28316667 70.32,5.90066667 70.32,6.698 C70.32,7.52133333 70.1466667,8.1475 69.8,8.5765 C69.4533333,9.0055 68.955,9.22 68.305,9.22 Z M79.9335,10 L83.9765,0.744 L82.8715,0.744 L79.4785,8.648 L76.0855,0.744 L74.9545,0.744 L78.9975,10 L79.9335,10 Z M86.52775,10.091 C87.0390833,10.091 87.4875833,9.9805 87.87325,9.7595 C88.2589167,9.5385 88.5470833,9.22433333 88.73775,8.817 L88.73775,8.817 L88.73775,10 L89.77775,10 L89.77775,3.461 L88.73775,3.461 L88.73775,4.592 C88.5384167,4.18466667 88.2480833,3.86833333 87.86675,3.643 C87.4854167,3.41766667 87.0390833,3.305 86.52775,3.305 C85.95575,3.305 85.4509167,3.448 85.01325,3.734 C84.5755833,4.02 84.2354167,4.42083333 83.99275,4.9365 C83.7500833,5.45216667 83.62875,6.048 83.62875,6.724 C83.62875,7.4 83.7479167,7.9915 83.98625,8.4985 C84.2245833,9.0055 84.5625833,9.39766667 85.00025,9.675 C85.4379167,9.95233333 85.9470833,10.091 86.52775,10.091 Z M86.73575,9.22 C86.08575,9.22 85.5830833,9.00333333 85.22775,8.57 C84.8724167,8.13666667 84.69475,7.52133333 84.69475,6.724 C84.69475,5.92666667 84.8745833,5.30483333 85.23425,4.8585 C85.5939167,4.41216667 86.0944167,4.189 86.73575,4.189 C87.3770833,4.189 87.8710833,4.40566667 88.21775,4.839 C88.5644167,5.27233333 88.73775,5.892 88.73775,6.698 C88.73775,7.504 88.5644167,8.12583333 88.21775,8.5635 C87.8710833,9.00116667 87.3770833,9.22 86.73575,9.22 Z M92.628,10 L92.628,0.432 L91.575,0.432 L91.575,10 L92.628,10 Z M96.73925,10.091 C97.20725,10.091 97.6275833,9.987 98.00025,9.779 C98.3729167,9.571 98.66325,9.26766667 98.87125,8.869 L98.87125,8.869 L98.87125,10 L99.89825,10 L99.89825,3.461 L98.84525,3.461 L98.84525,7.153 C98.84525,7.76833333 98.6675833,8.2645 98.31225,8.6415 C97.9569167,9.0185 97.4889167,9.207 96.90825,9.207 C96.41425,9.207 96.0459167,9.06833333 95.80325,8.791 C95.5605833,8.51366667 95.43925,8.08033333 95.43925,7.491 L95.43925,7.491 L95.43925,3.461 L94.38625,3.461 L94.38625,7.517 C94.38625,8.36633333 94.5855833,9.00766667 94.98425,9.441 C95.3829167,9.87433333 95.9679167,10.091 96.73925,10.091 Z M104.5685,10.091 C105.0365,10.091 105.493667,10.013 105.94,9.857 C106.386333,9.701 106.7525,9.48866667 107.0385,9.22 L107.0385,9.22 L106.6875,8.453 C106.046167,8.96433333 105.344167,9.22 104.5815,9.22 C103.862167,9.22 103.314,9.00766667 102.937,8.583 C102.56,8.15833333 102.367167,7.53 102.3585,6.698 L102.3585,6.698 L107.1555,6.698 L107.1555,6.503 C107.1555,5.50633333 106.9085,4.72416667 106.4145,4.1565 C105.9205,3.58883333 105.240167,3.305 104.3735,3.305 C103.7755,3.305 103.2425,3.448 102.7745,3.734 C102.3065,4.02 101.9425,4.42083333 101.6825,4.9365 C101.4225,5.45216667 101.2925,6.04366667 101.2925,6.711 C101.2925,7.75966667 101.582833,8.58516667 102.1635,9.1875 C102.744167,9.78983333 103.545833,10.091 104.5685,10.091 Z M106.2065,6.009 L102.3975,6.009 C102.492833,5.411 102.711667,4.94733333 103.054,4.618 C103.396333,4.28866667 103.8405,4.124 104.3865,4.124 C104.9325,4.124 105.359333,4.28433333 105.667,4.605 C105.974667,4.92566667 106.1545,5.39366667 106.2065,6.009 L106.2065,6.009 Z" id="PortfolioValue" fill="#9B9B9B" fill-rule="nonzero"></path>
            <rect id="Rectangle" fill="#193896" x="0" y="5" width="15" height="3" rx="1"></rect>
        </g>
        <mask id="mask-2" fill="white">
            <use xlink:href="#path-1"></use>
        </mask>
        <g id="Mask"></g>
        <g id="PV" mask="url(#mask-2)" fill="#1F57A1" fill-opacity="0.9" fill-rule="nonzero">
            <g transform="translate(52.000000, 1.200000)">
                <polygon id="Path-25-Copy-43" points="548 0 548 223.2 535.003953 223.2 535.003953 0"></polygon>
                <polygon id="Path-25-Copy-36" points="519.841897 0 519.841897 223.2 506.84585 223.2 506.84585 0"></polygon>
                <polygon id="Path-25-Copy-35" points="491.683794 0 491.683794 223.2 478.687747 223.2 478.687747 0"></polygon>
                <polygon id="Path-25-Copy-18" points="463.525692 0 463.525692 223.2 450.529644 223.2 450.529644 0"></polygon>
                <polygon id="Path-25-Copy-19" points="435.367589 0 435.367589 223.2 422.371542 223.2 422.371542 0"></polygon>
                <polygon id="Path-25-Copy-20" points="407.209486 0 407.209486 223.2 394.213439 223.2 394.213439 0"></polygon>
                <polygon id="Path-25-Copy-21" points="379.051383 0 379.051383 223.2 366.055336 223.2 366.055336 0"></polygon>
                <polygon id="Path-25-Copy-22" points="350.893281 0 350.893281 223.2 337.897233 223.2 337.897233 0"></polygon>
                <polygon id="Path-25-Copy-23" points="322.735178 0 322.735178 223.2 309.73913 223.2 309.73913 0"></polygon>
                <polygon id="Path-25-Copy-24" points="294.577075 0 294.577075 223.2 281.581028 223.2 281.581028 0"></polygon>
                <polygon id="Path-25-Copy-25" points="266.418972 0 266.418972 223.2 253.422925 223.2 253.422925 0"></polygon>
                <polygon id="Path-25-Copy-26" points="238.26087 0 238.26087 223.2 225.264822 223.2 225.264822 0"></polygon>
                <polygon id="Path-25-Copy-27" points="210.102767 0 210.102767 223.2 197.106719 223.2 197.106719 0"></polygon>
                <polygon id="Path-25-Copy-28" points="181.944664 0 181.944664 223.2 168.948617 223.2 168.948617 0"></polygon>
                <polygon id="Path-25-Copy-29" points="153.786561 0 153.786561 223.2 140.790514 223.2 140.790514 0"></polygon>
                <polygon id="Path-25-Copy-30" points="125.628458 0 125.628458 223.2 112.632411 223.2 112.632411 0"></polygon>
                <polygon id="Path-25-Copy-31" points="97.4703557 0 97.4703557 223.2 84.4743083 223.2 84.4743083 0"></polygon>
                <polygon id="Path-25-Copy-32" points="69.312253 0 69.312253 223.2 56.3162055 223.2 56.3162055 0"></polygon>
                <polygon id="Path-25-Copy-33" points="41.1541502 0 41.1541502 223.2 28.1581028 223.2 28.1581028 0"></polygon>
                <polygon id="Path-25-Copy-34" points="12.9960474 0 12.9960474 223.2 0 223.2 0 0"></polygon>
            </g>
        </g>
        <g id="Group-3" filter="url(#filter-3)" transform="translate(435.000000, 7.000000)">
            <path d="M2,-3.55271368e-15 L138,-3.55271368e-15 C139.104569,-3.7556198e-15 140,0.8954305 140,2 L140,43 C140,44.1045695 139.104569,45 138,45 L2,45 C0.8954305,45 1.3527075e-16,44.1045695 0,43 L0,2 C-1.3527075e-16,0.8954305 0.8954305,-3.34980755e-15 2,-3.55271368e-15 Z" id="Rectangle" stroke="#E7E7E7" fill="#FFFFFF"></path>
            <path d="M12.04,18 L12.04,14.244 L14.464,14.244 C15.336,14.244 16.02,14.03 16.516,13.602 C17.012,13.174 17.26,12.588 17.26,11.844 C17.26,11.1 17.014,10.516 16.522,10.092 C16.03,9.668 15.344,9.456 14.464,9.456 L14.464,9.456 L11.056,9.456 L11.056,18 L12.04,18 Z M14.38,13.428 L12.04,13.428 L12.04,10.272 L14.38,10.272 C15.012,10.272 15.488,10.406 15.808,10.674 C16.128,10.942 16.288,11.332 16.288,11.844 C16.288,12.356 16.128,12.748 15.808,13.02 C15.488,13.292 15.012,13.428 14.38,13.428 L14.38,13.428 Z M19.375,18 L19.375,14.556 C19.375,14.036 19.517,13.594 19.801,13.23 C20.085,12.866 20.519,12.684 21.103,12.684 C21.343,12.684 21.555,12.716 21.739,12.78 L21.739,12.78 L21.763,11.892 C21.595,11.844 21.411,11.82 21.211,11.82 C20.779,11.82 20.395,11.928 20.059,12.144 C19.723,12.36 19.479,12.672 19.327,13.08 L19.327,13.08 L19.231,11.964 L18.307,11.964 C18.371,12.468 18.403,13.032 18.403,13.656 L18.403,13.656 L18.403,18 L19.375,18 Z M24.898,18.084 C25.466,18.084 25.966,17.956 26.398,17.7 C26.83,17.444 27.164,17.08 27.4,16.608 C27.636,16.136 27.754,15.584 27.754,14.952 C27.754,14.32 27.636,13.768 27.4,13.296 C27.164,12.824 26.83,12.46 26.398,12.204 C25.966,11.948 25.466,11.82 24.898,11.82 C24.33,11.82 23.83,11.948 23.398,12.204 C22.966,12.46 22.632,12.824 22.396,13.296 C22.16,13.768 22.042,14.32 22.042,14.952 C22.042,15.584 22.16,16.136 22.396,16.608 C22.632,17.08 22.966,17.444 23.398,17.7 C23.83,17.956 24.33,18.084 24.898,18.084 Z M24.898,17.28 C24.298,17.28 23.836,17.082 23.512,16.686 C23.188,16.29 23.026,15.712 23.026,14.952 C23.026,14.216 23.19,13.646 23.518,13.242 C23.846,12.838 24.306,12.636 24.898,12.636 C25.482,12.636 25.938,12.838 26.266,13.242 C26.594,13.646 26.758,14.216 26.758,14.952 C26.758,15.712 26.598,16.29 26.278,16.686 C25.958,17.082 25.498,17.28 24.898,17.28 Z M30.121,10.512 L30.121,9.408 L28.933,9.408 L28.933,10.512 L30.121,10.512 Z M28.237,20.64 C28.789,20.64 29.223,20.478 29.539,20.154 C29.855,19.83 30.013,19.352 30.013,18.72 L30.013,18.72 L30.013,11.964 L29.041,11.964 L29.041,18.6 C29.041,19.4 28.705,19.8 28.033,19.8 C27.857,19.8 27.661,19.768 27.445,19.704 L27.445,19.704 L27.445,20.532 C27.709,20.604 27.973,20.64 28.237,20.64 Z M34.336,18.084 C34.768,18.084 35.19,18.012 35.602,17.868 C36.014,17.724 36.352,17.528 36.616,17.28 L36.616,17.28 L36.292,16.572 C35.7,17.044 35.052,17.28 34.348,17.28 C33.684,17.28 33.178,17.084 32.83,16.692 C32.482,16.3 32.304,15.72 32.296,14.952 L32.296,14.952 L36.724,14.952 L36.724,14.772 C36.724,13.852 36.496,13.13 36.04,12.606 C35.584,12.082 34.956,11.82 34.156,11.82 C33.604,11.82 33.112,11.952 32.68,12.216 C32.248,12.48 31.912,12.85 31.672,13.326 C31.432,13.802 31.312,14.348 31.312,14.964 C31.312,15.932 31.58,16.694 32.116,17.25 C32.652,17.806 33.392,18.084 34.336,18.084 Z M35.848,14.316 L32.332,14.316 C32.42,13.764 32.622,13.336 32.938,13.032 C33.254,12.728 33.664,12.576 34.168,12.576 C34.672,12.576 35.066,12.724 35.35,13.02 C35.634,13.316 35.8,13.748 35.848,14.316 L35.848,14.316 Z M40.507,18.084 C40.923,18.084 41.325,18.014 41.713,17.874 C42.101,17.734 42.423,17.544 42.679,17.304 L42.679,17.304 L42.355,16.584 C42.051,16.824 41.757,17 41.473,17.112 C41.189,17.224 40.899,17.28 40.603,17.28 C39.979,17.28 39.493,17.078 39.145,16.674 C38.797,16.27 38.623,15.704 38.623,14.976 C38.623,14.24 38.799,13.666 39.151,13.254 C39.503,12.842 39.987,12.636 40.603,12.636 C40.899,12.636 41.189,12.692 41.473,12.804 C41.757,12.916 42.051,13.092 42.355,13.332 L42.355,13.332 L42.679,12.612 C42.431,12.364 42.117,12.17 41.737,12.03 C41.357,11.89 40.963,11.82 40.555,11.82 C39.963,11.82 39.445,11.952 39.001,12.216 C38.557,12.48 38.215,12.85 37.975,13.326 C37.735,13.802 37.615,14.352 37.615,14.976 C37.615,15.6 37.733,16.146 37.969,16.614 C38.205,17.082 38.541,17.444 38.977,17.7 C39.413,17.956 39.923,18.084 40.507,18.084 Z M45.862,18.084 C46.174,18.084 46.454,18.044 46.702,17.964 L46.702,17.964 L46.702,17.136 C46.494,17.208 46.278,17.244 46.054,17.244 C45.718,17.244 45.458,17.154 45.274,16.974 C45.09,16.794 44.998,16.48 44.998,16.032 L44.998,16.032 L44.998,12.732 L46.726,12.732 L46.726,11.964 L44.998,11.964 L44.998,10.068 L44.026,10.416 L44.026,11.964 L42.85,11.964 L42.85,12.732 L44.026,12.732 L44.026,16.164 C44.026,16.796 44.188,17.274 44.512,17.598 C44.836,17.922 45.286,18.084 45.862,18.084 Z M50.341,18.084 C50.773,18.084 51.195,18.012 51.607,17.868 C52.019,17.724 52.357,17.528 52.621,17.28 L52.621,17.28 L52.297,16.572 C51.705,17.044 51.057,17.28 50.353,17.28 C49.689,17.28 49.183,17.084 48.835,16.692 C48.487,16.3 48.309,15.72 48.301,14.952 L48.301,14.952 L52.729,14.952 L52.729,14.772 C52.729,13.852 52.501,13.13 52.045,12.606 C51.589,12.082 50.961,11.82 50.161,11.82 C49.609,11.82 49.117,11.952 48.685,12.216 C48.253,12.48 47.917,12.85 47.677,13.326 C47.437,13.802 47.317,14.348 47.317,14.964 C47.317,15.932 47.585,16.694 48.121,17.25 C48.657,17.806 49.397,18.084 50.341,18.084 Z M51.853,14.316 L48.337,14.316 C48.425,13.764 48.627,13.336 48.943,13.032 C49.259,12.728 49.669,12.576 50.173,12.576 C50.677,12.576 51.071,12.724 51.355,13.02 C51.639,13.316 51.805,13.748 51.853,14.316 L51.853,14.316 Z M56.296,18.084 C56.768,18.084 57.182,17.982 57.538,17.778 C57.894,17.574 58.16,17.284 58.336,16.908 L58.336,16.908 L58.336,18 L59.296,18 L59.296,9.168 L58.324,9.168 L58.324,12.984 C58.148,12.616 57.884,12.33 57.532,12.126 C57.18,11.922 56.768,11.82 56.296,11.82 C55.768,11.82 55.3,11.948 54.892,12.204 C54.484,12.46 54.17,12.822 53.95,13.29 C53.73,13.758 53.62,14.304 53.62,14.928 C53.62,15.552 53.732,16.102 53.956,16.578 C54.18,17.054 54.494,17.424 54.898,17.688 C55.302,17.952 55.768,18.084 56.296,18.084 Z M56.488,17.28 C55.896,17.28 55.434,17.074 55.102,16.662 C54.77,16.25 54.604,15.672 54.604,14.928 C54.604,14.2 54.77,13.636 55.102,13.236 C55.434,12.836 55.896,12.636 56.488,12.636 C57.08,12.636 57.536,12.838 57.856,13.242 C58.176,13.646 58.336,14.216 58.336,14.952 C58.336,15.696 58.176,16.27 57.856,16.674 C57.536,17.078 57.08,17.28 56.488,17.28 Z M67.042,18 L67.042,10.296 L70.018,10.296 L70.018,9.456 L63.07,9.456 L63.07,10.296 L66.046,10.296 L66.046,18 L67.042,18 Z M72.445,18.084 C73.013,18.084 73.513,17.956 73.945,17.7 C74.377,17.444 74.711,17.08 74.947,16.608 C75.183,16.136 75.301,15.584 75.301,14.952 C75.301,14.32 75.183,13.768 74.947,13.296 C74.711,12.824 74.377,12.46 73.945,12.204 C73.513,11.948 73.013,11.82 72.445,11.82 C71.877,11.82 71.377,11.948 70.945,12.204 C70.513,12.46 70.179,12.824 69.943,13.296 C69.707,13.768 69.589,14.32 69.589,14.952 C69.589,15.584 69.707,16.136 69.943,16.608 C70.179,17.08 70.513,17.444 70.945,17.7 C71.377,17.956 71.877,18.084 72.445,18.084 Z M72.445,17.28 C71.845,17.28 71.383,17.082 71.059,16.686 C70.735,16.29 70.573,15.712 70.573,14.952 C70.573,14.216 70.737,13.646 71.065,13.242 C71.393,12.838 71.853,12.636 72.445,12.636 C73.029,12.636 73.485,12.838 73.813,13.242 C74.141,13.646 74.305,14.216 74.305,14.952 C74.305,15.712 74.145,16.29 73.825,16.686 C73.505,17.082 73.045,17.28 72.445,17.28 Z M78.736,18.084 C79.048,18.084 79.328,18.044 79.576,17.964 L79.576,17.964 L79.576,17.136 C79.368,17.208 79.152,17.244 78.928,17.244 C78.592,17.244 78.332,17.154 78.148,16.974 C77.964,16.794 77.872,16.48 77.872,16.032 L77.872,16.032 L77.872,12.732 L79.6,12.732 L79.6,11.964 L77.872,11.964 L77.872,10.068 L76.9,10.416 L76.9,11.964 L75.724,11.964 L75.724,12.732 L76.9,12.732 L76.9,16.164 C76.9,16.796 77.062,17.274 77.386,17.598 C77.71,17.922 78.16,18.084 78.736,18.084 Z M82.867,18.084 C83.339,18.084 83.753,17.982 84.109,17.778 C84.465,17.574 84.731,17.284 84.907,16.908 L84.907,16.908 L84.907,18 L85.867,18 L85.867,11.964 L84.907,11.964 L84.907,13.008 C84.723,12.632 84.455,12.34 84.103,12.132 C83.751,11.924 83.339,11.82 82.867,11.82 C82.339,11.82 81.873,11.952 81.469,12.216 C81.065,12.48 80.751,12.85 80.527,13.326 C80.303,13.802 80.191,14.352 80.191,14.976 C80.191,15.6 80.301,16.146 80.521,16.614 C80.741,17.082 81.053,17.444 81.457,17.7 C81.861,17.956 82.331,18.084 82.867,18.084 Z M83.059,17.28 C82.459,17.28 81.995,17.08 81.667,16.68 C81.339,16.28 81.175,15.712 81.175,14.976 C81.175,14.24 81.341,13.666 81.673,13.254 C82.005,12.842 82.467,12.636 83.059,12.636 C83.651,12.636 84.107,12.836 84.427,13.236 C84.747,13.636 84.907,14.208 84.907,14.952 C84.907,15.696 84.747,16.27 84.427,16.674 C84.107,17.078 83.651,17.28 83.059,17.28 Z M88.498,18 L88.498,9.168 L87.526,9.168 L87.526,18 L88.498,18 Z M96.748,18 L100.48,9.456 L99.46,9.456 L96.328,16.752 L93.196,9.456 L92.152,9.456 L95.884,18 L96.748,18 Z M102.835,18.084 C103.307,18.084 103.721,17.982 104.077,17.778 C104.433,17.574 104.699,17.284 104.875,16.908 L104.875,16.908 L104.875,18 L105.835,18 L105.835,11.964 L104.875,11.964 L104.875,13.008 C104.691,12.632 104.423,12.34 104.071,12.132 C103.719,11.924 103.307,11.82 102.835,11.82 C102.307,11.82 101.841,11.952 101.437,12.216 C101.033,12.48 100.719,12.85 100.495,13.326 C100.271,13.802 100.159,14.352 100.159,14.976 C100.159,15.6 100.269,16.146 100.489,16.614 C100.709,17.082 101.021,17.444 101.425,17.7 C101.829,17.956 102.299,18.084 102.835,18.084 Z M103.027,17.28 C102.427,17.28 101.963,17.08 101.635,16.68 C101.307,16.28 101.143,15.712 101.143,14.976 C101.143,14.24 101.309,13.666 101.641,13.254 C101.973,12.842 102.435,12.636 103.027,12.636 C103.619,12.636 104.075,12.836 104.395,13.236 C104.715,13.636 104.875,14.208 104.875,14.952 C104.875,15.696 104.715,16.27 104.395,16.674 C104.075,17.078 103.619,17.28 103.027,17.28 Z M108.466,18 L108.466,9.168 L107.494,9.168 L107.494,18 L108.466,18 Z M112.261,18.084 C112.693,18.084 113.081,17.988 113.425,17.796 C113.769,17.604 114.037,17.324 114.229,16.956 L114.229,16.956 L114.229,18 L115.177,18 L115.177,11.964 L114.205,11.964 L114.205,15.372 C114.205,15.94 114.041,16.398 113.713,16.746 C113.385,17.094 112.953,17.268 112.417,17.268 C111.961,17.268 111.621,17.14 111.397,16.884 C111.173,16.628 111.061,16.228 111.061,15.684 L111.061,15.684 L111.061,11.964 L110.089,11.964 L110.089,15.708 C110.089,16.492 110.273,17.084 110.641,17.484 C111.009,17.884 111.549,18.084 112.261,18.084 Z M119.488,18.084 C119.92,18.084 120.342,18.012 120.754,17.868 C121.166,17.724 121.504,17.528 121.768,17.28 L121.768,17.28 L121.444,16.572 C120.852,17.044 120.204,17.28 119.5,17.28 C118.836,17.28 118.33,17.084 117.982,16.692 C117.634,16.3 117.456,15.72 117.448,14.952 L117.448,14.952 L121.876,14.952 L121.876,14.772 C121.876,13.852 121.648,13.13 121.192,12.606 C120.736,12.082 120.108,11.82 119.308,11.82 C118.756,11.82 118.264,11.952 117.832,12.216 C117.4,12.48 117.064,12.85 116.824,13.326 C116.584,13.802 116.464,14.348 116.464,14.964 C116.464,15.932 116.732,16.694 117.268,17.25 C117.804,17.806 118.544,18.084 119.488,18.084 Z M121,14.316 L117.484,14.316 C117.572,13.764 117.774,13.336 118.09,13.032 C118.406,12.728 118.816,12.576 119.32,12.576 C119.824,12.576 120.218,12.724 120.502,13.02 C120.786,13.316 120.952,13.748 121,14.316 L121,14.316 Z" id="ProjectedTotalValue" fill="#5E5E5E" fill-rule="nonzero"></path>
            <path d="M15.752,38.856 L15.752,37.08 C16.7546667,36.952 17.56,36.5973333 18.168,36.016 C18.776,35.4346667 19.08,34.712 19.08,33.848 C19.08,33.1973333 18.9226667,32.6746667 18.608,32.28 C18.2933333,31.8853333 17.904,31.584 17.44,31.376 C16.976,31.168 16.392,30.9786667 15.688,30.808 L15.688,30.808 L15.688,26.872 C16.6586667,26.9893333 17.5386667,27.4 18.328,28.104 L18.328,28.104 L18.92,26.872 C18.536,26.5093333 18.0693333,26.2106667 17.52,25.976 C16.9706667,25.7413333 16.3813333,25.5866667 15.752,25.512 L15.752,25.512 L15.752,23.752 L14.408,23.752 L14.408,25.512 C13.736,25.5866667 13.1386667,25.776 12.616,26.08 C12.0933333,26.384 11.6853333,26.7733333 11.392,27.248 C11.0986667,27.7226667 10.952,28.248 10.952,28.824 C10.952,29.5066667 11.1146667,30.0586667 11.44,30.48 C11.7653333,30.9013333 12.1706667,31.2186667 12.656,31.432 C13.1413333,31.6453333 13.752,31.848 14.488,32.04 L14.488,32.04 L14.488,35.768 C13.9013333,35.7253333 13.3573333,35.6026667 12.856,35.4 C12.3546667,35.1973333 11.8533333,34.8933333 11.352,34.488 L11.352,34.488 L10.76,35.72 C11.6986667,36.552 12.9146667,37.016 14.408,37.112 L14.408,37.112 L14.408,38.856 L15.752,38.856 Z M14.488,30.488 C13.8906667,30.3173333 13.4293333,30.1013333 13.104,29.84 C12.7786667,29.5786667 12.616,29.2133333 12.616,28.744 C12.616,28.232 12.7813333,27.8106667 13.112,27.48 C13.4426667,27.1493333 13.9013333,26.9413333 14.488,26.856 L14.488,26.856 L14.488,30.488 Z M15.688,35.72 L15.688,32.344 C16.2533333,32.5146667 16.6826667,32.7173333 16.976,32.952 C17.2693333,33.1866667 17.416,33.5013333 17.416,33.896 C17.416,34.3866667 17.2666667,34.7893333 16.968,35.104 C16.6693333,35.4186667 16.2426667,35.624 15.688,35.72 L15.688,35.72 Z M27.016,37 L27.016,34.632 L28.696,34.632 L28.696,33.304 L27.016,33.304 L27.016,25.608 L25.688,25.608 L20.28,33.4 L20.28,34.632 L25.384,34.632 L25.384,37 L27.016,37 Z M25.384,33.304 L21.896,33.304 L25.384,28.28 L25.384,33.304 Z M33.8,37.128 C35.1226667,37.128 36.1306667,36.632 36.824,35.64 C37.5173333,34.648 37.864,33.1973333 37.864,31.288 C37.864,29.3893333 37.5173333,27.9466667 36.824,26.96 C36.1306667,25.9733333 35.1226667,25.48 33.8,25.48 C32.4773333,25.48 31.4693333,25.976 30.776,26.968 C30.0826667,27.96 29.736,29.4053333 29.736,31.304 C29.736,33.2026667 30.0826667,34.648 30.776,35.64 C31.4693333,36.632 32.4773333,37.128 33.8,37.128 Z M33.8,35.8 C32.9786667,35.8 32.3733333,35.4346667 31.984,34.704 C31.5946667,33.9733333 31.4,32.8346667 31.4,31.288 C31.4,29.752 31.5946667,28.624 31.984,27.904 C32.3733333,27.184 32.9786667,26.824 33.8,26.824 C34.632,26.824 35.24,27.1813333 35.624,27.896 C36.008,28.6106667 36.2,29.7413333 36.2,31.288 C36.2,32.8346667 36.0053333,33.9733333 35.616,34.704 C35.2266667,35.4346667 34.6213333,35.8 33.8,35.8 Z M43.336,37.112 C44.1466667,37.112 44.856,36.9573333 45.464,36.648 C46.072,36.3386667 46.5386667,35.9066667 46.864,35.352 C47.1893333,34.7973333 47.352,34.152 47.352,33.416 C47.352,32.7013333 47.2053333,32.0693333 46.912,31.52 C46.6186667,30.9706667 46.2026667,30.544 45.664,30.24 C45.1253333,29.936 44.4986667,29.784 43.784,29.784 C42.888,29.784 42.136,30.04 41.528,30.552 L41.528,30.552 L41.528,26.936 L46.872,26.936 L46.872,25.608 L39.896,25.608 L39.896,32.296 L40.968,32.296 C41.5866667,31.5173333 42.408,31.128 43.432,31.128 C44.136,31.128 44.6986667,31.3413333 45.12,31.768 C45.5413333,32.1946667 45.752,32.7546667 45.752,33.448 C45.752,34.1733333 45.5413333,34.7413333 45.12,35.152 C44.6986667,35.5626667 44.1093333,35.768 43.352,35.768 C42.264,35.768 41.192,35.352 40.136,34.52 L40.136,34.52 L39.56,35.736 C40.008,36.1626667 40.5733333,36.4986667 41.256,36.744 C41.9386667,36.9893333 42.632,37.112 43.336,37.112 Z M49.64,38.984 C50.0453333,38.5786667 50.3333333,38.1706667 50.504,37.76 C50.6746667,37.3493333 50.76,36.8933333 50.76,36.392 L50.76,36.392 L50.76,35.08 L48.84,35.08 L48.84,37 L49.72,37 C49.656,37.4586667 49.4,37.9333333 48.952,38.424 L48.952,38.424 L49.64,38.984 Z M60.28,37 L60.28,35.64 L54.904,35.64 L57.944,32.36 C58.616,31.6346667 59.096,30.976 59.384,30.384 C59.672,29.792 59.816,29.1653333 59.816,28.504 C59.816,27.576 59.4986667,26.84 58.864,26.296 C58.2293333,25.752 57.368,25.48 56.28,25.48 C55.576,25.48 54.8773333,25.6053333 54.184,25.856 C53.4906667,26.1066667 52.92,26.44 52.472,26.856 L52.472,26.856 L53.064,28.072 C54.12,27.24 55.176,26.824 56.232,26.824 C56.8613333,26.824 57.3413333,26.976 57.672,27.28 C58.0026667,27.584 58.168,28.024 58.168,28.6 C58.168,29.048 58.0533333,29.4986667 57.824,29.952 C57.5946667,30.4053333 57.2293333,30.9093333 56.728,31.464 L56.728,31.464 L52.808,35.768 L52.808,37 L60.28,37 Z M65.64,37.112 C66.8346667,37.112 67.7813333,36.8266667 68.48,36.256 C69.1786667,35.6853333 69.528,34.904 69.528,33.912 C69.528,33.1973333 69.352,32.6053333 69,32.136 C68.648,31.6666667 68.1413333,31.336 67.48,31.144 C68.0453333,30.9306667 68.4826667,30.584 68.792,30.104 C69.1013333,29.624 69.256,29.0586667 69.256,28.408 C69.256,27.512 68.9386667,26.8 68.304,26.272 C67.6693333,25.744 66.8186667,25.48 65.752,25.48 C65.016,25.48 64.304,25.6026667 63.616,25.848 C62.928,26.0933333 62.36,26.4293333 61.912,26.856 L61.912,26.856 L62.504,28.072 C63.5493333,27.24 64.6053333,26.824 65.672,26.824 C66.3013333,26.824 66.7893333,26.9786667 67.136,27.288 C67.4826667,27.5973333 67.656,28.04 67.656,28.616 C67.656,29.2453333 67.448,29.7253333 67.032,30.056 C66.616,30.3866667 66.0133333,30.552 65.224,30.552 L65.224,30.552 L64.088,30.552 L64.088,31.896 L65.48,31.896 C66.3013333,31.896 66.9146667,32.0533333 67.32,32.368 C67.7253333,32.6826667 67.928,33.16 67.928,33.8 C67.928,35.112 67.1493333,35.768 65.592,35.768 C64.4506667,35.768 63.368,35.352 62.344,34.52 L62.344,34.52 L61.752,35.736 C62.2106667,36.1733333 62.784,36.512 63.472,36.752 C64.16,36.992 64.8826667,37.112 65.64,37.112 Z M79.032,37 L79.032,35.64 L76.536,35.64 L76.536,25.608 L75.576,25.608 L72.552,27.496 L72.552,29.016 L74.872,27.576 L74.872,35.64 L72.376,35.64 L72.376,37 L79.032,37 Z" id="$405,231" fill="#000000" fill-rule="nonzero"></path>
        </g>
        <g id="Group-5" transform="translate(583.327869, 49.200000)" fill="#1F57A1" fill-opacity="0.7">
            <path d="M9.83606557,15.3153848 C13.1693989,12.627889 14.8360656,10.2204816 14.8360656,8.09316258 C14.8360656,4.90218402 12.5974893,2.3153848 9.83606557,2.3153848 C7.07464182,2.3153848 4.83606557,4.90218402 4.83606557,8.09316258 C4.83606557,10.2204816 6.50273224,12.627889 9.83606557,15.3153848 Z" id="Oval-Copy-2"></path>
        </g>
        <path d="M4.2,35.0272 L4.2,33.4872 C5.07733333,33.3845333 5.782,33.0812 6.314,32.5772 C6.846,32.0732 7.112,31.4478667 7.112,30.7012 C7.112,30.1505333 6.97666667,29.7048667 6.706,29.3642 C6.43533333,29.0235333 6.097,28.7645333 5.691,28.5872 C5.285,28.4098667 4.774,28.2465333 4.158,28.0972 L4.158,28.0972 L4.158,24.3312 C5.082,24.4338667 5.88466667,24.8118667 6.566,25.4652 L6.566,25.4652 L7,24.5832 C6.65466667,24.2378667 6.237,23.9578667 5.747,23.7432 C5.257,23.5285333 4.74133333,23.3978667 4.2,23.3512 L4.2,23.3512 L4.2,21.8112 L3.22,21.8112 L3.22,23.3372 C2.62266667,23.3932 2.09533333,23.5495333 1.638,23.8062 C1.18066667,24.0628667 0.823666667,24.3965333 0.567,24.8072 C0.310333333,25.2178667 0.182,25.6798667 0.182,26.1932 C0.182,26.7812 0.324333333,27.2548667 0.609,27.6142 C0.893666667,27.9735333 1.246,28.2465333 1.666,28.4332 C2.086,28.6198667 2.618,28.7972 3.262,28.9652 L3.262,28.9652 L3.262,32.5212 C2.73,32.4932 2.23766667,32.3858667 1.785,32.1992 C1.33233333,32.0125333 0.882,31.7278667 0.434,31.3452 L0.434,31.3452 L3.54916097e-12,32.2272 C0.410666667,32.6098667 0.889,32.9085333 1.435,33.1232 C1.981,33.3378667 2.576,33.4638667 3.22,33.5012 L3.22,33.5012 L3.22,35.0272 L4.2,35.0272 Z M3.262,27.8732 C2.646,27.7052 2.17466667,27.4952 1.848,27.2432 C1.52133333,26.9912 1.358,26.6272 1.358,26.1512 C1.358,25.6378667 1.526,25.2202 1.862,24.8982 C2.198,24.5762 2.66466667,24.3872 3.262,24.3312 L3.262,24.3312 L3.262,27.8732 Z M4.158,32.4932 L4.158,29.1892 C4.73666667,29.3478667 5.18,29.5415333 5.488,29.7702 C5.796,29.9988667 5.95,30.3185333 5.95,30.7292 C5.95,31.2238667 5.79366667,31.6228667 5.481,31.9262 C5.16833333,32.2295333 4.72733333,32.4185333 4.158,32.4932 L4.158,32.4932 Z M11.99275,33.5012 C12.6740833,33.5012 13.2690833,33.3682 13.77775,33.1022 C14.2864167,32.8362 14.6784167,32.4605333 14.95375,31.9752 C15.2290833,31.4898667 15.36675,30.9345333 15.36675,30.3092 C15.36675,29.6838667 15.24075,29.1332 14.98875,28.6572 C14.73675,28.1812 14.3750833,27.8102 13.90375,27.5442 C13.4324167,27.2782 12.8840833,27.1452 12.25875,27.1452 C11.4000833,27.1452 10.6954167,27.4112 10.14475,27.9432 L10.14475,27.9432 L10.14475,24.3872 L14.97475,24.3872 L14.97475,23.4352 L8.99675,23.4352 L8.99675,29.2732 L9.79475,29.2732 C10.3640833,28.4985333 11.12475,28.1112 12.07675,28.1112 C12.7300833,28.1112 13.25275,28.3142 13.64475,28.7202 C14.03675,29.1262 14.23275,29.6605333 14.23275,30.3232 C14.23275,31.0045333 14.0344167,31.5435333 13.63775,31.9402 C13.2410833,32.3368667 12.69275,32.5352 11.99275,32.5352 C11.0220833,32.5352 10.07475,32.1525333 9.15075,31.3872 L9.15075,31.3872 L8.71675,32.2692 C9.11808333,32.6518667 9.61275,32.9528667 10.20075,33.1722 C10.78875,33.3915333 11.3860833,33.5012 11.99275,33.5012 Z M20.1075,33.5152 C21.2461667,33.5152 22.1118333,33.0812 22.7045,32.2132 C23.2971667,31.3452 23.5935,30.0758667 23.5935,28.4052 C23.5935,26.7438667 23.2971667,25.4815333 22.7045,24.6182 C22.1118333,23.7548667 21.2461667,23.3232 20.1075,23.3232 C18.9688333,23.3232 18.1031667,23.7548667 17.5105,24.6182 C16.9178333,25.4815333 16.6215,26.7485333 16.6215,28.4192 C16.6215,30.0898667 16.9178333,31.3568667 17.5105,32.2202 C18.1031667,33.0835333 18.9688333,33.5152 20.1075,33.5152 Z M20.1075,32.5492 C19.3141667,32.5492 18.7285,32.2108667 18.3505,31.5342 C17.9725,30.8575333 17.7835,29.8145333 17.7835,28.4052 C17.7835,26.9958667 17.9725,25.9598667 18.3505,25.2972 C18.7285,24.6345333 19.3141667,24.3032 20.1075,24.3032 C20.9101667,24.3032 21.4981667,24.6345333 21.8715,25.2972 C22.2448333,25.9598667 22.4315,26.9958667 22.4315,28.4052 C22.4315,29.8238667 22.2425,30.8692 21.8645,31.5412 C21.4865,32.2132 20.9008333,32.5492 20.1075,32.5492 Z M28.37625,33.5152 C29.5149167,33.5152 30.3805833,33.0812 30.97325,32.2132 C31.5659167,31.3452 31.86225,30.0758667 31.86225,28.4052 C31.86225,26.7438667 31.5659167,25.4815333 30.97325,24.6182 C30.3805833,23.7548667 29.5149167,23.3232 28.37625,23.3232 C27.2375833,23.3232 26.3719167,23.7548667 25.77925,24.6182 C25.1865833,25.4815333 24.89025,26.7485333 24.89025,28.4192 C24.89025,30.0898667 25.1865833,31.3568667 25.77925,32.2202 C26.3719167,33.0835333 27.2375833,33.5152 28.37625,33.5152 Z M28.37625,32.5492 C27.5829167,32.5492 26.99725,32.2108667 26.61925,31.5342 C26.24125,30.8575333 26.05225,29.8145333 26.05225,28.4052 C26.05225,26.9958667 26.24125,25.9598667 26.61925,25.2972 C26.99725,24.6345333 27.5829167,24.3032 28.37625,24.3032 C29.1789167,24.3032 29.7669167,24.6345333 30.14025,25.2972 C30.5135833,25.9598667 30.70025,26.9958667 30.70025,28.4052 C30.70025,29.8238667 30.51125,30.8692 30.13325,31.5412 C29.75525,32.2132 29.1695833,32.5492 28.37625,32.5492 Z M34.671,33.4032 L34.671,30.0152 L38.283,33.4032 L39.767,33.4032 L35.903,29.7492 L39.431,26.3752 L37.989,26.3752 L34.671,29.5952 L34.671,23.0992 L33.537,23.0992 L33.537,33.4032 L34.671,33.4032 Z" id="$500k" fill="#9B9B9B" fill-rule="nonzero"></path>
        <path d="M4.2,74.6272 L4.2,73.0872 C5.07733333,72.9845333 5.782,72.6812 6.314,72.1772 C6.846,71.6732 7.112,71.0478667 7.112,70.3012 C7.112,69.7505333 6.97666667,69.3048667 6.706,68.9642 C6.43533333,68.6235333 6.097,68.3645333 5.691,68.1872 C5.285,68.0098667 4.774,67.8465333 4.158,67.6972 L4.158,67.6972 L4.158,63.9312 C5.082,64.0338667 5.88466667,64.4118667 6.566,65.0652 L6.566,65.0652 L7,64.1832 C6.65466667,63.8378667 6.237,63.5578667 5.747,63.3432 C5.257,63.1285333 4.74133333,62.9978667 4.2,62.9512 L4.2,62.9512 L4.2,61.4112 L3.22,61.4112 L3.22,62.9372 C2.62266667,62.9932 2.09533333,63.1495333 1.638,63.4062 C1.18066667,63.6628667 0.823666667,63.9965333 0.567,64.4072 C0.310333333,64.8178667 0.182,65.2798667 0.182,65.7932 C0.182,66.3812 0.324333333,66.8548667 0.609,67.2142 C0.893666667,67.5735333 1.246,67.8465333 1.666,68.0332 C2.086,68.2198667 2.618,68.3972 3.262,68.5652 L3.262,68.5652 L3.262,72.1212 C2.73,72.0932 2.23766667,71.9858667 1.785,71.7992 C1.33233333,71.6125333 0.882,71.3278667 0.434,70.9452 L0.434,70.9452 L3.54916097e-12,71.8272 C0.410666667,72.2098667 0.889,72.5085333 1.435,72.7232 C1.981,72.9378667 2.576,73.0638667 3.22,73.1012 L3.22,73.1012 L3.22,74.6272 L4.2,74.6272 Z M3.262,67.4732 C2.646,67.3052 2.17466667,67.0952 1.848,66.8432 C1.52133333,66.5912 1.358,66.2272 1.358,65.7512 C1.358,65.2378667 1.526,64.8202 1.862,64.4982 C2.198,64.1762 2.66466667,63.9872 3.262,63.9312 L3.262,63.9312 L3.262,67.4732 Z M4.158,72.0932 L4.158,68.7892 C4.73666667,68.9478667 5.18,69.1415333 5.488,69.3702 C5.796,69.5988667 5.95,69.9185333 5.95,70.3292 C5.95,70.8238667 5.79366667,71.2228667 5.481,71.5262 C5.16833333,71.8295333 4.72733333,72.0185333 4.158,72.0932 L4.158,72.0932 Z M14.06475,73.0032 L14.06475,70.8332 L15.57675,70.8332 L15.57675,69.8812 L14.06475,69.8812 L14.06475,63.0352 L13.12675,63.0352 L8.32475,69.9652 L8.32475,70.8332 L12.91675,70.8332 L12.91675,73.0032 L14.06475,73.0032 Z M12.91675,69.8812 L9.51475,69.8812 L12.91675,64.9812 L12.91675,69.8812 Z M20.1075,73.1152 C21.2461667,73.1152 22.1118333,72.6812 22.7045,71.8132 C23.2971667,70.9452 23.5935,69.6758667 23.5935,68.0052 C23.5935,66.3438667 23.2971667,65.0815333 22.7045,64.2182 C22.1118333,63.3548667 21.2461667,62.9232 20.1075,62.9232 C18.9688333,62.9232 18.1031667,63.3548667 17.5105,64.2182 C16.9178333,65.0815333 16.6215,66.3485333 16.6215,68.0192 C16.6215,69.6898667 16.9178333,70.9568667 17.5105,71.8202 C18.1031667,72.6835333 18.9688333,73.1152 20.1075,73.1152 Z M20.1075,72.1492 C19.3141667,72.1492 18.7285,71.8108667 18.3505,71.1342 C17.9725,70.4575333 17.7835,69.4145333 17.7835,68.0052 C17.7835,66.5958667 17.9725,65.5598667 18.3505,64.8972 C18.7285,64.2345333 19.3141667,63.9032 20.1075,63.9032 C20.9101667,63.9032 21.4981667,64.2345333 21.8715,64.8972 C22.2448333,65.5598667 22.4315,66.5958667 22.4315,68.0052 C22.4315,69.4238667 22.2425,70.4692 21.8645,71.1412 C21.4865,71.8132 20.9008333,72.1492 20.1075,72.1492 Z M28.37625,73.1152 C29.5149167,73.1152 30.3805833,72.6812 30.97325,71.8132 C31.5659167,70.9452 31.86225,69.6758667 31.86225,68.0052 C31.86225,66.3438667 31.5659167,65.0815333 30.97325,64.2182 C30.3805833,63.3548667 29.5149167,62.9232 28.37625,62.9232 C27.2375833,62.9232 26.3719167,63.3548667 25.77925,64.2182 C25.1865833,65.0815333 24.89025,66.3485333 24.89025,68.0192 C24.89025,69.6898667 25.1865833,70.9568667 25.77925,71.8202 C26.3719167,72.6835333 27.2375833,73.1152 28.37625,73.1152 Z M28.37625,72.1492 C27.5829167,72.1492 26.99725,71.8108667 26.61925,71.1342 C26.24125,70.4575333 26.05225,69.4145333 26.05225,68.0052 C26.05225,66.5958667 26.24125,65.5598667 26.61925,64.8972 C26.99725,64.2345333 27.5829167,63.9032 28.37625,63.9032 C29.1789167,63.9032 29.7669167,64.2345333 30.14025,64.8972 C30.5135833,65.5598667 30.70025,66.5958667 30.70025,68.0052 C30.70025,69.4238667 30.51125,70.4692 30.13325,71.1412 C29.75525,71.8132 29.1695833,72.1492 28.37625,72.1492 Z M34.671,73.0032 L34.671,69.6152 L38.283,73.0032 L39.767,73.0032 L35.903,69.3492 L39.431,65.9752 L37.989,65.9752 L34.671,69.1952 L34.671,62.6992 L33.537,62.6992 L33.537,73.0032 L34.671,73.0032 Z" id="$400k" fill="#9B9B9B" fill-rule="nonzero"></path>
        <path d="M4.2,110.6272 L4.2,109.0872 C5.07733333,108.984533 5.782,108.6812 6.314,108.1772 C6.846,107.6732 7.112,107.047867 7.112,106.3012 C7.112,105.750533 6.97666667,105.304867 6.706,104.9642 C6.43533333,104.623533 6.097,104.364533 5.691,104.1872 C5.285,104.009867 4.774,103.846533 4.158,103.6972 L4.158,103.6972 L4.158,99.9312 C5.082,100.033867 5.88466667,100.411867 6.566,101.0652 L6.566,101.0652 L7,100.1832 C6.65466667,99.8378667 6.237,99.5578667 5.747,99.3432 C5.257,99.1285333 4.74133333,98.9978667 4.2,98.9512 L4.2,98.9512 L4.2,97.4112 L3.22,97.4112 L3.22,98.9372 C2.62266667,98.9932 2.09533333,99.1495333 1.638,99.4062 C1.18066667,99.6628667 0.823666667,99.9965333 0.567,100.4072 C0.310333333,100.817867 0.182,101.279867 0.182,101.7932 C0.182,102.3812 0.324333333,102.854867 0.609,103.2142 C0.893666667,103.573533 1.246,103.846533 1.666,104.0332 C2.086,104.219867 2.618,104.3972 3.262,104.5652 L3.262,104.5652 L3.262,108.1212 C2.73,108.0932 2.23766667,107.985867 1.785,107.7992 C1.33233333,107.612533 0.882,107.327867 0.434,106.9452 L0.434,106.9452 L3.54916097e-12,107.8272 C0.410666667,108.209867 0.889,108.508533 1.435,108.7232 C1.981,108.937867 2.576,109.063867 3.22,109.1012 L3.22,109.1012 L3.22,110.6272 L4.2,110.6272 Z M3.262,103.4732 C2.646,103.3052 2.17466667,103.0952 1.848,102.8432 C1.52133333,102.5912 1.358,102.2272 1.358,101.7512 C1.358,101.237867 1.526,100.8202 1.862,100.4982 C2.198,100.1762 2.66466667,99.9872 3.262,99.9312 L3.262,99.9312 L3.262,103.4732 Z M4.158,108.0932 L4.158,104.7892 C4.73666667,104.947867 5.18,105.141533 5.488,105.3702 C5.796,105.598867 5.95,105.918533 5.95,106.3292 C5.95,106.823867 5.79366667,107.222867 5.481,107.5262 C5.16833333,107.829533 4.72733333,108.018533 4.158,108.0932 L4.158,108.0932 Z M11.74075,109.1012 C12.74875,109.1012 13.54675,108.851533 14.13475,108.3522 C14.72275,107.852867 15.01675,107.1692 15.01675,106.3012 C15.01675,105.675867 14.86275,105.157867 14.55475,104.7472 C14.24675,104.336533 13.79875,104.0472 13.21075,103.8792 C13.7054167,103.692533 14.09275,103.384533 14.37275,102.9552 C14.65275,102.525867 14.79275,102.026533 14.79275,101.4572 C14.79275,100.682533 14.5244167,100.066533 13.98775,99.6092 C13.4510833,99.1518667 12.73475,98.9232 11.83875,98.9232 C11.2040833,98.9232 10.5950833,99.0328667 10.01175,99.2522 C9.42841667,99.4715333 8.93608333,99.7725333 8.53475,100.1552 L8.53475,100.1552 L8.96875,101.0372 C9.90208333,100.271867 10.84475,99.8892 11.79675,99.8892 C12.38475,99.8892 12.83975,100.033867 13.16175,100.3232 C13.48375,100.612533 13.64475,101.027867 13.64475,101.5692 C13.64475,102.175867 13.44875,102.642533 13.05675,102.9692 C12.66475,103.295867 12.1000833,103.4592 11.36275,103.4592 L11.36275,103.4592 L10.43875,103.4592 L10.43875,104.4252 L11.58675,104.4252 C13.1174167,104.4252 13.88275,105.036533 13.88275,106.2592 C13.88275,106.8752 13.6984167,107.341867 13.32975,107.6592 C12.9610833,107.976533 12.4220833,108.1352 11.71275,108.1352 C10.7140833,108.1352 9.75275,107.752533 8.82875,106.9872 L8.82875,106.9872 L8.38075,107.8692 C8.79141667,108.2612 9.29308333,108.564533 9.88575,108.7792 C10.4784167,108.993867 11.09675,109.1012 11.74075,109.1012 Z M20.1075,109.1152 C21.2461667,109.1152 22.1118333,108.6812 22.7045,107.8132 C23.2971667,106.9452 23.5935,105.675867 23.5935,104.0052 C23.5935,102.343867 23.2971667,101.081533 22.7045,100.2182 C22.1118333,99.3548667 21.2461667,98.9232 20.1075,98.9232 C18.9688333,98.9232 18.1031667,99.3548667 17.5105,100.2182 C16.9178333,101.081533 16.6215,102.348533 16.6215,104.0192 C16.6215,105.689867 16.9178333,106.956867 17.5105,107.8202 C18.1031667,108.683533 18.9688333,109.1152 20.1075,109.1152 Z M20.1075,108.1492 C19.3141667,108.1492 18.7285,107.810867 18.3505,107.1342 C17.9725,106.457533 17.7835,105.414533 17.7835,104.0052 C17.7835,102.595867 17.9725,101.559867 18.3505,100.8972 C18.7285,100.234533 19.3141667,99.9032 20.1075,99.9032 C20.9101667,99.9032 21.4981667,100.234533 21.8715,100.8972 C22.2448333,101.559867 22.4315,102.595867 22.4315,104.0052 C22.4315,105.423867 22.2425,106.4692 21.8645,107.1412 C21.4865,107.8132 20.9008333,108.1492 20.1075,108.1492 Z M28.37625,109.1152 C29.5149167,109.1152 30.3805833,108.6812 30.97325,107.8132 C31.5659167,106.9452 31.86225,105.675867 31.86225,104.0052 C31.86225,102.343867 31.5659167,101.081533 30.97325,100.2182 C30.3805833,99.3548667 29.5149167,98.9232 28.37625,98.9232 C27.2375833,98.9232 26.3719167,99.3548667 25.77925,100.2182 C25.1865833,101.081533 24.89025,102.348533 24.89025,104.0192 C24.89025,105.689867 25.1865833,106.956867 25.77925,107.8202 C26.3719167,108.683533 27.2375833,109.1152 28.37625,109.1152 Z M28.37625,108.1492 C27.5829167,108.1492 26.99725,107.810867 26.61925,107.1342 C26.24125,106.457533 26.05225,105.414533 26.05225,104.0052 C26.05225,102.595867 26.24125,101.559867 26.61925,100.8972 C26.99725,100.234533 27.5829167,99.9032 28.37625,99.9032 C29.1789167,99.9032 29.7669167,100.234533 30.14025,100.8972 C30.5135833,101.559867 30.70025,102.595867 30.70025,104.0052 C30.70025,105.423867 30.51125,106.4692 30.13325,107.1412 C29.75525,107.8132 29.1695833,108.1492 28.37625,108.1492 Z M34.671,109.0032 L34.671,105.6152 L38.283,109.0032 L39.767,109.0032 L35.903,105.3492 L39.431,101.9752 L37.989,101.9752 L34.671,105.1952 L34.671,98.6992 L33.537,98.6992 L33.537,109.0032 L34.671,109.0032 Z" id="$300k" fill="#9B9B9B" fill-rule="nonzero"></path>
        <path d="M4.2,146.6272 L4.2,145.0872 C5.07733333,144.984533 5.782,144.6812 6.314,144.1772 C6.846,143.6732 7.112,143.047867 7.112,142.3012 C7.112,141.750533 6.97666667,141.304867 6.706,140.9642 C6.43533333,140.623533 6.097,140.364533 5.691,140.1872 C5.285,140.009867 4.774,139.846533 4.158,139.6972 L4.158,139.6972 L4.158,135.9312 C5.082,136.033867 5.88466667,136.411867 6.566,137.0652 L6.566,137.0652 L7,136.1832 C6.65466667,135.837867 6.237,135.557867 5.747,135.3432 C5.257,135.128533 4.74133333,134.997867 4.2,134.9512 L4.2,134.9512 L4.2,133.4112 L3.22,133.4112 L3.22,134.9372 C2.62266667,134.9932 2.09533333,135.149533 1.638,135.4062 C1.18066667,135.662867 0.823666667,135.996533 0.567,136.4072 C0.310333333,136.817867 0.182,137.279867 0.182,137.7932 C0.182,138.3812 0.324333333,138.854867 0.609,139.2142 C0.893666667,139.573533 1.246,139.846533 1.666,140.0332 C2.086,140.219867 2.618,140.3972 3.262,140.5652 L3.262,140.5652 L3.262,144.1212 C2.73,144.0932 2.23766667,143.985867 1.785,143.7992 C1.33233333,143.612533 0.882,143.327867 0.434,142.9452 L0.434,142.9452 L3.54916097e-12,143.8272 C0.410666667,144.209867 0.889,144.508533 1.435,144.7232 C1.981,144.937867 2.576,145.063867 3.22,145.1012 L3.22,145.1012 L3.22,146.6272 L4.2,146.6272 Z M3.262,139.4732 C2.646,139.3052 2.17466667,139.0952 1.848,138.8432 C1.52133333,138.5912 1.358,138.2272 1.358,137.7512 C1.358,137.237867 1.526,136.8202 1.862,136.4982 C2.198,136.1762 2.66466667,135.9872 3.262,135.9312 L3.262,135.9312 L3.262,139.4732 Z M4.158,144.0932 L4.158,140.7892 C4.73666667,140.947867 5.18,141.141533 5.488,141.3702 C5.796,141.598867 5.95,141.918533 5.95,142.3292 C5.95,142.823867 5.79366667,143.222867 5.481,143.5262 C5.16833333,143.829533 4.72733333,144.018533 4.158,144.0932 L4.158,144.0932 Z M15.21275,145.0032 L15.21275,144.0372 L10.28475,144.0372 L13.12675,140.9572 C13.7240833,140.303867 14.1510833,139.713533 14.40775,139.1862 C14.6644167,138.658867 14.79275,138.110533 14.79275,137.5412 C14.79275,136.738533 14.52675,136.101533 13.99475,135.6302 C13.46275,135.158867 12.7394167,134.9232 11.82475,134.9232 C11.2180833,134.9232 10.6160833,135.0352 10.01875,135.2592 C9.42141667,135.4832 8.92675,135.781867 8.53475,136.1552 L8.53475,136.1552 L8.96875,137.0372 C9.90208333,136.271867 10.84475,135.8892 11.79675,135.8892 C12.38475,135.8892 12.8374167,136.0362 13.15475,136.3302 C13.4720833,136.6242 13.63075,137.046533 13.63075,137.5972 C13.63075,138.0172 13.5234167,138.4372 13.30875,138.8572 C13.0940833,139.2772 12.7534167,139.748533 12.28675,140.2712 L12.28675,140.2712 L8.80075,144.1352 L8.80075,145.0032 L15.21275,145.0032 Z M20.1075,145.1152 C21.2461667,145.1152 22.1118333,144.6812 22.7045,143.8132 C23.2971667,142.9452 23.5935,141.675867 23.5935,140.0052 C23.5935,138.343867 23.2971667,137.081533 22.7045,136.2182 C22.1118333,135.354867 21.2461667,134.9232 20.1075,134.9232 C18.9688333,134.9232 18.1031667,135.354867 17.5105,136.2182 C16.9178333,137.081533 16.6215,138.348533 16.6215,140.0192 C16.6215,141.689867 16.9178333,142.956867 17.5105,143.8202 C18.1031667,144.683533 18.9688333,145.1152 20.1075,145.1152 Z M20.1075,144.1492 C19.3141667,144.1492 18.7285,143.810867 18.3505,143.1342 C17.9725,142.457533 17.7835,141.414533 17.7835,140.0052 C17.7835,138.595867 17.9725,137.559867 18.3505,136.8972 C18.7285,136.234533 19.3141667,135.9032 20.1075,135.9032 C20.9101667,135.9032 21.4981667,136.234533 21.8715,136.8972 C22.2448333,137.559867 22.4315,138.595867 22.4315,140.0052 C22.4315,141.423867 22.2425,142.4692 21.8645,143.1412 C21.4865,143.8132 20.9008333,144.1492 20.1075,144.1492 Z M28.37625,145.1152 C29.5149167,145.1152 30.3805833,144.6812 30.97325,143.8132 C31.5659167,142.9452 31.86225,141.675867 31.86225,140.0052 C31.86225,138.343867 31.5659167,137.081533 30.97325,136.2182 C30.3805833,135.354867 29.5149167,134.9232 28.37625,134.9232 C27.2375833,134.9232 26.3719167,135.354867 25.77925,136.2182 C25.1865833,137.081533 24.89025,138.348533 24.89025,140.0192 C24.89025,141.689867 25.1865833,142.956867 25.77925,143.8202 C26.3719167,144.683533 27.2375833,145.1152 28.37625,145.1152 Z M28.37625,144.1492 C27.5829167,144.1492 26.99725,143.810867 26.61925,143.1342 C26.24125,142.457533 26.05225,141.414533 26.05225,140.0052 C26.05225,138.595867 26.24125,137.559867 26.61925,136.8972 C26.99725,136.234533 27.5829167,135.9032 28.37625,135.9032 C29.1789167,135.9032 29.7669167,136.234533 30.14025,136.8972 C30.5135833,137.559867 30.70025,138.595867 30.70025,140.0052 C30.70025,141.423867 30.51125,142.4692 30.13325,143.1412 C29.75525,143.8132 29.1695833,144.1492 28.37625,144.1492 Z M34.671,145.0032 L34.671,141.6152 L38.283,145.0032 L39.767,145.0032 L35.903,141.3492 L39.431,137.9752 L37.989,137.9752 L34.671,141.1952 L34.671,134.6992 L33.537,134.6992 L33.537,145.0032 L34.671,145.0032 Z" id="$200k" fill="#9B9B9B" fill-rule="nonzero"></path>
        <path d="M4.2,182.6272 L4.2,181.0872 C5.07733333,180.984533 5.782,180.6812 6.314,180.1772 C6.846,179.6732 7.112,179.047867 7.112,178.3012 C7.112,177.750533 6.97666667,177.304867 6.706,176.9642 C6.43533333,176.623533 6.097,176.364533 5.691,176.1872 C5.285,176.009867 4.774,175.846533 4.158,175.6972 L4.158,175.6972 L4.158,171.9312 C5.082,172.033867 5.88466667,172.411867 6.566,173.0652 L6.566,173.0652 L7,172.1832 C6.65466667,171.837867 6.237,171.557867 5.747,171.3432 C5.257,171.128533 4.74133333,170.997867 4.2,170.9512 L4.2,170.9512 L4.2,169.4112 L3.22,169.4112 L3.22,170.9372 C2.62266667,170.9932 2.09533333,171.149533 1.638,171.4062 C1.18066667,171.662867 0.823666667,171.996533 0.567,172.4072 C0.310333333,172.817867 0.182,173.279867 0.182,173.7932 C0.182,174.3812 0.324333333,174.854867 0.609,175.2142 C0.893666667,175.573533 1.246,175.846533 1.666,176.0332 C2.086,176.219867 2.618,176.3972 3.262,176.5652 L3.262,176.5652 L3.262,180.1212 C2.73,180.0932 2.23766667,179.985867 1.785,179.7992 C1.33233333,179.612533 0.882,179.327867 0.434,178.9452 L0.434,178.9452 L3.54916097e-12,179.8272 C0.410666667,180.209867 0.889,180.508533 1.435,180.7232 C1.981,180.937867 2.576,181.063867 3.22,181.1012 L3.22,181.1012 L3.22,182.6272 L4.2,182.6272 Z M3.262,175.4732 C2.646,175.3052 2.17466667,175.0952 1.848,174.8432 C1.52133333,174.5912 1.358,174.2272 1.358,173.7512 C1.358,173.237867 1.526,172.8202 1.862,172.4982 C2.198,172.1762 2.66466667,171.9872 3.262,171.9312 L3.262,171.9312 L3.262,175.4732 Z M4.158,180.0932 L4.158,176.7892 C4.73666667,176.947867 5.18,177.141533 5.488,177.3702 C5.796,177.598867 5.95,177.918533 5.95,178.3292 C5.95,178.823867 5.79366667,179.222867 5.481,179.5262 C5.16833333,179.829533 4.72733333,180.018533 4.158,180.0932 L4.158,180.0932 Z M14.98875,181.0032 L14.98875,180.0372 L12.79075,180.0372 L12.79075,171.0352 L12.13275,171.0352 L9.58475,172.6592 L9.58475,173.7652 L11.62875,172.4632 L11.62875,180.0372 L9.43075,180.0372 L9.43075,181.0032 L14.98875,181.0032 Z M20.1075,181.1152 C21.2461667,181.1152 22.1118333,180.6812 22.7045,179.8132 C23.2971667,178.9452 23.5935,177.675867 23.5935,176.0052 C23.5935,174.343867 23.2971667,173.081533 22.7045,172.2182 C22.1118333,171.354867 21.2461667,170.9232 20.1075,170.9232 C18.9688333,170.9232 18.1031667,171.354867 17.5105,172.2182 C16.9178333,173.081533 16.6215,174.348533 16.6215,176.0192 C16.6215,177.689867 16.9178333,178.956867 17.5105,179.8202 C18.1031667,180.683533 18.9688333,181.1152 20.1075,181.1152 Z M20.1075,180.1492 C19.3141667,180.1492 18.7285,179.810867 18.3505,179.1342 C17.9725,178.457533 17.7835,177.414533 17.7835,176.0052 C17.7835,174.595867 17.9725,173.559867 18.3505,172.8972 C18.7285,172.234533 19.3141667,171.9032 20.1075,171.9032 C20.9101667,171.9032 21.4981667,172.234533 21.8715,172.8972 C22.2448333,173.559867 22.4315,174.595867 22.4315,176.0052 C22.4315,177.423867 22.2425,178.4692 21.8645,179.1412 C21.4865,179.8132 20.9008333,180.1492 20.1075,180.1492 Z M28.37625,181.1152 C29.5149167,181.1152 30.3805833,180.6812 30.97325,179.8132 C31.5659167,178.9452 31.86225,177.675867 31.86225,176.0052 C31.86225,174.343867 31.5659167,173.081533 30.97325,172.2182 C30.3805833,171.354867 29.5149167,170.9232 28.37625,170.9232 C27.2375833,170.9232 26.3719167,171.354867 25.77925,172.2182 C25.1865833,173.081533 24.89025,174.348533 24.89025,176.0192 C24.89025,177.689867 25.1865833,178.956867 25.77925,179.8202 C26.3719167,180.683533 27.2375833,181.1152 28.37625,181.1152 Z M28.37625,180.1492 C27.5829167,180.1492 26.99725,179.810867 26.61925,179.1342 C26.24125,178.457533 26.05225,177.414533 26.05225,176.0052 C26.05225,174.595867 26.24125,173.559867 26.61925,172.8972 C26.99725,172.234533 27.5829167,171.9032 28.37625,171.9032 C29.1789167,171.9032 29.7669167,172.234533 30.14025,172.8972 C30.5135833,173.559867 30.70025,174.595867 30.70025,176.0052 C30.70025,177.423867 30.51125,178.4692 30.13325,179.1412 C29.75525,179.8132 29.1695833,180.1492 28.37625,180.1492 Z M34.671,181.0032 L34.671,177.6152 L38.283,181.0032 L39.767,181.0032 L35.903,177.3492 L39.431,173.9752 L37.989,173.9752 L34.671,177.1952 L34.671,170.6992 L33.537,170.6992 L33.537,181.0032 L34.671,181.0032 Z" id="$100k" fill="#9B9B9B" fill-rule="nonzero"></path>
        <path d="M4.2,218.6272 L4.2,217.0872 C5.07733333,216.984533 5.782,216.6812 6.314,216.1772 C6.846,215.6732 7.112,215.047867 7.112,214.3012 C7.112,213.750533 6.97666667,213.304867 6.706,212.9642 C6.43533333,212.623533 6.097,212.364533 5.691,212.1872 C5.285,212.009867 4.774,211.846533 4.158,211.6972 L4.158,211.6972 L4.158,207.9312 C5.082,208.033867 5.88466667,208.411867 6.566,209.0652 L6.566,209.0652 L7,208.1832 C6.65466667,207.837867 6.237,207.557867 5.747,207.3432 C5.257,207.128533 4.74133333,206.997867 4.2,206.9512 L4.2,206.9512 L4.2,205.4112 L3.22,205.4112 L3.22,206.9372 C2.62266667,206.9932 2.09533333,207.149533 1.638,207.4062 C1.18066667,207.662867 0.823666667,207.996533 0.567,208.4072 C0.310333333,208.817867 0.182,209.279867 0.182,209.7932 C0.182,210.3812 0.324333333,210.854867 0.609,211.2142 C0.893666667,211.573533 1.246,211.846533 1.666,212.0332 C2.086,212.219867 2.618,212.3972 3.262,212.5652 L3.262,212.5652 L3.262,216.1212 C2.73,216.0932 2.23766667,215.985867 1.785,215.7992 C1.33233333,215.612533 0.882,215.327867 0.434,214.9452 L0.434,214.9452 L6.39488462e-13,215.8272 C0.410666667,216.209867 0.889,216.508533 1.435,216.7232 C1.981,216.937867 2.576,217.063867 3.22,217.1012 L3.22,217.1012 L3.22,218.6272 L4.2,218.6272 Z M3.262,211.4732 C2.646,211.3052 2.17466667,211.0952 1.848,210.8432 C1.52133333,210.5912 1.358,210.2272 1.358,209.7512 C1.358,209.237867 1.526,208.8202 1.862,208.4982 C2.198,208.1762 2.66466667,207.9872 3.262,207.9312 L3.262,207.9312 L3.262,211.4732 Z M4.158,216.0932 L4.158,212.7892 C4.73666667,212.947867 5.18,213.141533 5.488,213.3702 C5.796,213.598867 5.95,213.918533 5.95,214.3292 C5.95,214.823867 5.79366667,215.222867 5.481,215.5262 C5.16833333,215.829533 4.72733333,216.018533 4.158,216.0932 L4.158,216.0932 Z M11.83875,217.1152 C12.9774167,217.1152 13.8430833,216.6812 14.43575,215.8132 C15.0284167,214.9452 15.32475,213.675867 15.32475,212.0052 C15.32475,210.343867 15.0284167,209.081533 14.43575,208.2182 C13.8430833,207.354867 12.9774167,206.9232 11.83875,206.9232 C10.7000833,206.9232 9.83441667,207.354867 9.24175,208.2182 C8.64908333,209.081533 8.35275,210.348533 8.35275,212.0192 C8.35275,213.689867 8.64908333,214.956867 9.24175,215.8202 C9.83441667,216.683533 10.7000833,217.1152 11.83875,217.1152 Z M11.83875,216.1492 C11.0454167,216.1492 10.45975,215.810867 10.08175,215.1342 C9.70375,214.457533 9.51475,213.414533 9.51475,212.0052 C9.51475,210.595867 9.70375,209.559867 10.08175,208.8972 C10.45975,208.234533 11.0454167,207.9032 11.83875,207.9032 C12.6414167,207.9032 13.2294167,208.234533 13.60275,208.8972 C13.9760833,209.559867 14.16275,210.595867 14.16275,212.0052 C14.16275,213.423867 13.97375,214.4692 13.59575,215.1412 C13.21775,215.8132 12.6320833,216.1492 11.83875,216.1492 Z M18.1335,217.0032 L18.1335,213.6152 L21.7455,217.0032 L23.2295,217.0032 L19.3655,213.3492 L22.8935,209.9752 L21.4515,209.9752 L18.1335,213.1952 L18.1335,206.6992 L16.9995,206.6992 L16.9995,217.0032 L18.1335,217.0032 Z" id="$0k" fill="#9B9B9B" fill-rule="nonzero"></path>
    </g>
</svg>