<svg xmlns="http://www.w3.org/2000/svg" width="350" height="270" viewBox="0 0 350 270">
    <defs>
        <radialGradient id="a" cy="47.566%" r="103.82%" fx="50%" fy="47.566%" gradientTransform="scale(1 .50581) rotate(86.836 .254 .708)">
            <stop offset="0%" stop-color="#FCF2FF"/>
            <stop offset="100%" stop-color="#9AF3EE"/>
        </radialGradient>
        <filter id="b" width="150%" height="157.1%" x="-25%" y="-28.6%" filterUnits="objectBoundingBox">
            <feOffset dx="-5" dy="-1" in="SourceAlpha" result="shadowOffsetOuter1"/>
            <feGaussianBlur in="shadowOffsetOuter1" result="shadowBlurOuter1" stdDeviation="1.5"/>
            <feColorMatrix in="shadowBlurOuter1" result="shadowMatrixOuter1" values="0 0 0 0 0 0 0 0 0 0 0 0 0 0 0 0 0 0 0.134915865 0"/>
            <feMerge>
                <feMergeNode in="shadowMatrixOuter1"/>
                <feMergeNode in="SourceGraphic"/>
            </feMerge>
        </filter>
    </defs>
    <g fill="none" fill-rule="evenodd">
        <path fill="#185994" d="M298.934 86.826l-90.503 25.951c-7.127 2.044-11.256 9.45-9.222 16.543l18.27 63.712c2.033 7.093 9.46 11.186 16.587 9.142l90.503-25.951c7.127-2.044 11.256-9.45 9.222-16.543l-18.27-63.712c-2.033-7.093-9.46-11.186-16.587-9.142"/>
        <path fill="#094276" d="M319.812 113.576l-24.955 7.156c-6.214 1.782-9.833 8.175-8.082 14.28 1.75 6.106 8.207 9.61 14.422 7.829l24.954-7.156c1.24-.355 1.961-1.63 1.612-2.847l-5.076-17.701c-.349-1.217-1.636-1.916-2.875-1.56"/>
        <path fill="#FFF" d="M307.748 128.709a6.5 6.5 0 1 1-12.496 3.582 6.5 6.5 0 0 1 12.496-3.582"/>
        <g transform="translate(179 37)">
            <ellipse cx="49" cy="183.5" fill="#118C8C" rx="49" ry="9.5"/>
            <path fill="#1F2020" d="M9 0h79.135a9 9 0 0 1 9 9v164a9 9 0 0 1-9 9H9a9 9 0 0 1-9-9V9a9 9 0 0 1 9-9z"/>
            <g transform="translate(5.135 5.135)">
                <rect width="87" height="172" fill="url(#a)" rx="7"/>
                <g fill="#0A1616" transform="translate(26.562 6.112)">
                    <circle cx="2.556" cy="2.556" r="2.556"/>
                    <rect width="20.449" height="3.067" x="7.157" y="1.022" rx="1.5"/>
                </g>
            </g>
            <rect width="75" height="12.817" x="12.895" y="63.922" fill="#2B1F1F" rx="6"/>
            <g>
                <path fill="#007B75" d="M17.763 68.485h64.474v77.31a6 6 0 0 1-6 6H23.763a6 6 0 0 1-6-6v-77.31z"/>
                <path fill="#05A199" d="M17.763 68.485h64.474v71.14a6 6 0 0 1-6 6H23.763a6 6 0 0 1-6-6v-71.14z"/>
                <path fill="#0DC2B9" d="M17.763 68.485h64.474v63.94a6 6 0 0 1-6 6H23.763a6 6 0 0 1-6-6v-63.94z"/>
                <path fill="#0BB2AA" d="M17.763 81.485h64.474v22H17.763z"/>
            </g>
        </g>
        <g filter="url(#b)" transform="rotate(-168 85.5 89.127)">
            <g fill="#FEDD00">
                <path d="M12.375 29.272L38.65 19.67c2.305.915 4.15 1.83 5.532 2.744 1.383.914 2.536 1.829 3.458 2.743L16.524 37.502c-.922-.457-1.844-1.372-2.766-2.743-.922-1.372-1.383-3.201-1.383-5.487zM19.29 38.874l29.734-12.345c.687.604 1.148 1.06 1.383 1.371.234.31.465.768.691 1.372L22.055 41.617c-.51-.13-.97-.359-1.382-.686-.413-.327-.874-1.013-1.383-2.057z"/>
            </g>
            <path fill="#F1A11F" d="M26.182 43.598c13.989 3.712 29.178 2.344 31.743-7.135.927-3.428 2.38-9.249.69-13.668-2.984-7.803-11.627-14.114-20.702-15.72C18.592 3.66 13.071 9.81 10.311 12.544c-2.253 2.232-2.676 5.338-3.45 8.201-2.565 9.48 5.333 19.142 19.321 22.854z"/>
            <path fill="#FEE600" d="M26.182 48.765c13.989 3.712 28.585-1.603 31.15-11.082 2.564-9.48-6.697-20.173-20.686-23.886-13.989-3.712-28.601.885-31.166 10.365-2.564 9.479 6.714 20.89 20.702 24.603z"/>
            <path fill="#EFA71F" d="M27.109 45.467c11.906 3.24 24.2-.702 26.966-9.832 2.766-9.13-4.84-16.855-17.286-20.366-12.446-3.512-24.75.028-26.966 8.427-2.216 8.4 5.38 18.53 17.286 21.771z"/>
            <path fill="#FDC010" d="M28.935 44.498c13.829 2.81 22.817-2.81 24.892-9.832 2.074-7.023-4.65-15.905-17.038-19.397-12.388-3.493-23.673-.726-25.832 7.458-2.159 8.184 4.149 18.962 17.978 21.771z"/>
            <g fill="#FEDD00">
                <path d="M12.375 29.272L38.65 19.67c2.305.915 4.15 1.83 5.532 2.744 1.383.914 2.536 1.829 3.458 2.743L16.524 37.502c-.922-.457-1.844-1.372-2.766-2.743-.922-1.372-1.383-3.201-1.383-5.487zM19.29 38.874l29.734-12.345c.687.604 1.148 1.06 1.383 1.371.234.31.465.768.691 1.372L22.055 41.617c-.51-.13-.97-.359-1.382-.686-.413-.327-.874-1.013-1.383-2.057z"/>
            </g>
            <path fill="#FFF" d="M19.213 15.105c-.595 2.485-1.295 4.081-2.1 4.79-.805.707-2.438 1.163-4.9 1.368 2.406.569 4.04 1.253 4.9 2.052.86.8 1.56 2.396 2.1 4.79.578-2.39 1.278-3.986 2.1-4.79.823-.804 2.456-1.488 4.9-2.052-2.374-.128-4.007-.584-4.9-1.369-.892-.785-1.592-2.381-2.1-4.79z"/>
        </g>
        <path fill="#FFB481" d="M154.887 164.915c-5.003 2.854-22.438 14.231-22.438 14.231.345-.568.548-1.268.548-2.13 0-2.789-4.063-4.293-8.72-5.102-3.579-1.005-7.397-1.172-11.72-4.129-5.008-3.426-10.376-2.69-14.167-1.534-4.07 1.24-28.364.766-31.39.87v21.27c1.672.15 24.88-.137 27.527.966 4.65 1.937 17.234 6.258 25.854 6.258 7.096 0 31.245-16.602 39.313-23.701 2.121-1.866 2.724-4.381.91-6.542-1.448-1.727-3.581-1.675-5.717-.457z"/>
        <path fill="#E59768" d="M131.995 178.771c-1.044 1.238-2.787 1.905-4.454 1.683l-15.529-2.057c-.799-.106-1.537.425-1.648 1.186-.112.761.446 1.464 1.245 1.57l15.53 2.056c2.728.361 5.586-.676 7.44-3.155.132-.186.304-.538 1.43-2.55.104-.187.156-.387.166-.585a485.014 485.014 0 0 1-4.18 1.852"/>
        <path fill="#005960" d="M19.908 155.41l51.472 1.298-.424 42.518-50.95-1.289c-3.213-3.978-4.796-8.357-4.748-13.138.072-7.17 6.851-14.613 6.976-20.399.083-3.857-.692-6.854-2.326-8.99z"/>
        <path fill="#FFF" d="M71.502 157.826l4.284-.088-.79 39.901-4.008-.06z"/>
        <g>
            <g fill="#FEDD00">
                <path d="M94.423 91.717l-1.664 20.647c-1.296 1.3-2.452 2.286-3.468 2.96-1.017.672-1.964 1.189-2.841 1.549l1.333-24.735c.579-.493 1.456-.853 2.632-1.08 1.176-.226 2.513-.007 4.008.66zM86.05 93.618l-.916 23.794c-.603.291-1.042.471-1.316.54-.274.07-.643.093-1.106.07l.706-23.325a2.76 2.76 0 0 1 .867-.74c.339-.184.927-.297 1.764-.34z"/>
            </g>
            <path fill="#F1A11F" d="M81.79 96.095c-6.36 7.94-9.837 18.089-4.553 22.416 1.91 1.565 5.19 4.144 8.48 4.307 5.807.288 12.286-3.483 15.901-8.861 7.698-11.451 5.373-16.737 4.427-19.284-.772-2.078-2.622-3.228-4.219-4.535-5.284-4.327-13.677-1.983-20.036 5.957z"/>
            <path fill="#FEE600" d="M78.51 94.635c-6.36 7.94-7.161 18.823-1.877 23.15 5.284 4.327 14.722 1.398 21.081-6.542 6.36-7.94 7.622-18.63 2.338-22.958-5.284-4.327-15.183-1.59-21.542 6.35z"/>
            <path fill="#EFA71F" d="M80.266 96.279c-5.43 6.68-6.428 15.632-1.44 19.966 4.988 4.334 12.032 1.658 17.787-5.29 5.754-6.95 7.01-15.794 2.328-19.571-4.682-3.778-13.246-1.786-18.675 4.895z"/>
            <path fill="#FDC010" d="M80.36 97.716c-5.703 8.029-4.703 15.343-.85 18.643 3.851 3.3 11.377 1.513 17.103-5.405 5.726-6.917 7.18-14.893 2.618-18.574-4.561-3.681-13.168-2.693-18.87 5.336z"/>
            <g fill="#FEDD00">
                <path d="M94.423 91.717l-1.664 20.647c-1.296 1.3-2.452 2.286-3.468 2.96-1.017.672-1.964 1.189-2.841 1.549l1.333-24.735c.579-.493 1.456-.853 2.632-1.08 1.176-.226 2.513-.007 4.008.66zM86.05 93.618l-.916 23.794c-.603.291-1.042.471-1.316.54-.274.07-.643.093-1.106.07l.706-23.325a2.76 2.76 0 0 1 .867-.74c.339-.184.927-.297 1.764-.34z"/>
            </g>
            <path fill="#FFF" d="M83.111 109.837c-1.399-1.088-2.205-1.994-2.42-2.718-.213-.725-.027-1.92.559-3.583-1.059 1.41-1.966 2.283-2.722 2.62-.755.336-1.968.343-3.639.02 1.343 1.05 2.15 1.957 2.42 2.72.269.763.227 2.021-.126 3.775.77-1.513 1.533-2.45 2.289-2.812.756-.361 1.969-.368 3.639-.022z"/>
        </g>
        <g>
            <g fill="#FEDD00">
                <path d="M140.477 71.551l-14.943-8.049c-.632-1.361-1.066-2.519-1.304-3.472-.238-.954-.377-1.805-.418-2.554l18.072 9.168c.218.578.258 1.328.122 2.248-.136.92-.645 1.806-1.529 2.66zM141.232 64.907l-17.481-8.555c-.06-.53-.081-.905-.062-1.124.02-.22.098-.493.235-.818l17.185 8.25c.168.273.277.563.327.867.05.305-.019.765-.204 1.38z"/>
            </g>
            <path fill="#F1A11F" d="M140.287 61.204c-3.993-7.087-10.475-12.711-15.244-10.112-1.724.94-4.605 2.585-5.7 4.965-1.934 4.202-1.063 10.122 1.847 14.412 6.196 9.133 10.798 9.007 12.963 9.076 1.767.056 3.167-.965 4.607-1.75 4.77-2.599 5.521-9.504 1.527-16.59z"/>
            <path fill="#FEE600" d="M142.34 59.222c-3.993-7.087-11.811-10.957-16.58-8.358-4.769 2.6-5.397 10.451-1.404 17.539 3.994 7.087 11.533 11.238 16.302 8.64 4.769-2.6 5.676-10.734 1.682-17.821z"/>
            <path fill="#EFA71F" d="M140.601 59.418c-3.39-6.094-9.795-9.584-14.52-7.198-4.724 2.386-4.81 8.454-1.315 14.873 3.495 6.418 9.743 10.067 13.96 7.738 4.217-2.329 5.266-9.319 1.875-15.413z"/>
            <path fill="#FDC010" d="M139.497 59.048c-4.318-6.712-10.09-8.21-13.704-6.354-3.613 1.857-4.507 8.011-1.027 14.399 3.48 6.387 9.02 9.918 13.128 7.649 4.109-2.269 5.922-8.983 1.603-15.694z"/>
            <g fill="#FEDD00">
                <path d="M140.477 71.551l-14.943-8.049c-.632-1.361-1.066-2.519-1.304-3.472-.238-.954-.377-1.805-.418-2.554l18.072 9.168c.218.578.258 1.328.122 2.248-.136.92-.645 1.806-1.529 2.66zM141.232 64.907l-17.481-8.555c-.06-.53-.081-.905-.062-1.124.02-.22.098-.493.235-.818l17.185 8.25c.168.273.277.563.327.867.05.305-.019.765-.204 1.38z"/>
            </g>
            <path fill="#FFF" d="M129.73 58.266c1.169-.716 2.03-1.061 2.584-1.037.554.025 1.298.442 2.232 1.25-.615-1.077-.917-1.92-.907-2.53.01-.608.386-1.457 1.126-2.546-1.126.686-1.987 1.031-2.585 1.036-.597.005-1.429-.327-2.497-.994.776.901 1.166 1.66 1.172 2.274.006.614-.369 1.463-1.125 2.547z"/>
        </g>
        <g fill="#FDC010">
            <path fill-rule="nonzero" d="M164.252 125.717l.984 1.617-3.716 2.206 2.233 3.67-1.619.962-2.233-3.671-3.716 2.205-.984-1.617 3.716-2.205-2.233-3.671 1.62-.961 2.232 3.67zM167.174 47.476l-1.05 1.575-3.57-2.436-2.382 3.575-1.556-1.061L161 45.554l-3.57-2.436 1.05-1.576 3.57 2.437 2.383-3.576 1.555 1.062-2.383 3.575zM55.174 92.476l-1.05 1.575-3.57-2.436-2.382 3.575-1.556-1.061L49 90.554l-3.57-2.436 1.05-1.576 3.57 2.437 2.383-3.576 1.555 1.062-2.383 3.575z"/>
            <path d="M82.5 76.199l-3.82 1.56.302-4.116-2.664-3.152 4.008-.983L82.5 66l2.174 3.508 4.008.983-2.664 3.152.303 4.116zM117.5 127.199l-3.82 1.56.302-4.116-2.664-3.152 4.008-.983L117.5 117l2.174 3.508 4.008.983-2.664 3.152.303 4.116zM152.5 101.199l-3.82 1.56.302-4.116-2.664-3.152 4.008-.983L152.5 91l2.174 3.508 4.008.983-2.664 3.152.303 4.116z"/>
        </g>
        <text fill="#096C67" font-family="Muli-SemiBold, Muli" font-size="29" font-weight="500" letter-spacing="-.302">
            <tspan x="219.939" y="150.942">$</tspan>
        </text>
    </g>
</svg>
