<svg xmlns="http://www.w3.org/2000/svg" width="22" height="22" viewBox="0 0 22 22">
    <g fill="none" fill-rule="evenodd">
        <path fill="#066360" d="M0 0h22v22H0z"/>
        <path fill="#00A7A7" d="M11 20a9 9 0 1 1 0-18 9 9 0 0 1 0 18zm-2.952-6.323c-.098.35-.066.436.294.599.45.21.932.31 1.431.389.384.062.392.077.4.458.009.171.009.35.009.521.008.218.114.342.351.35.27.008.54.008.81 0 .22 0 .335-.116.335-.326 0-.241.008-.482 0-.716-.008-.24.098-.365.344-.427a2.693 2.693 0 0 0 1.406-.856c1.022-1.174.63-2.908-.818-3.67-.45-.233-.932-.42-1.414-.606-.278-.109-.548-.233-.777-.412-.458-.35-.368-.918.172-1.143.147-.062.31-.086.474-.093.63-.04 1.226.07 1.79.334.287.132.377.093.475-.187.098-.295.188-.598.278-.894.065-.202-.017-.334-.213-.42a4.662 4.662 0 0 0-1.128-.318c-.515-.078-.515-.078-.515-.568 0-.692 0-.692-.728-.692h-.319c-.343.008-.4.062-.409.389v.435c-.008.428-.008.428-.441.576C8.8 6.765 8.154 7.45 8.08 8.538c-.065.964.466 1.617 1.3 2.091.516.288 1.08.467 1.628.692.212.094.417.195.597.335.523.412.425 1.096-.197 1.352-.335.14-.687.172-1.046.133a4.674 4.674 0 0 1-1.595-.451c-.294-.148-.384-.11-.482.194-.082.264-.164.529-.237.793z"/>
    </g>
</svg>
