<svg width="24" height="24" xmlns="http://www.w3.org/2000/svg" xmlns:xlink="http://www.w3.org/1999/xlink">
    <defs>
        <filter x="-20%" y="-10%" width="140%" height="140%" filterUnits="objectBoundingBox" id="a">
            <feOffset dy="2" in="SourceAlpha" result="shadowOffsetOuter1"/>
            <feGaussianBlur stdDeviation="1" in="shadowOffsetOuter1" result="shadowBlurOuter1"/>
            <feColorMatrix values="0 0 0 0 0 0 0 0 0 0 0 0 0 0 0 0 0 0 0.3 0" in="shadowBlurOuter1"/>
        </filter>
        <circle id="b" cx="12" cy="10" r="10"/>
    </defs>
    <g fill="none" fill-rule="evenodd">
        <use fill="#000" filter="url(#a)" xlink:href="#b"/>
        <use fill="#005960" xlink:href="#b"/>
        <path d="M6 4h13v13H6z"/>
        <g fill="#FFF" fill-rule="nonzero">
            <path d="M7 15h2.083l6.144-6.144-2.083-2.083L7 12.917V15zm1.111-1.622 5.033-5.033.51.511-5.032 5.033h-.511v-.511zM15.538 5.162a.553.553 0 0 0-.784 0L13.738 6.18l2.083 2.083 1.017-1.016a.553.553 0 0 0 0-.784l-1.3-1.3z"/>
        </g>
        <circle fill-opacity=".8" fill="#00A7A7" cx="17.5" cy="17.5" r="6.5"/>
        <g>
            <path d="M12.857 12.857h9.286v9.286h-9.286z"/>
            <path opacity=".87" d="M12.857 12.857h9.286v9.286h-9.286z"/>
            <path d="M19.821 15.952h-.386v-.773a1.935 1.935 0 0 0-3.87 0v.773h-.386a.776.776 0 0 0-.774.774v3.87c0 .425.348.773.774.773h4.642a.776.776 0 0 0 .774-.774v-3.869a.776.776 0 0 0-.774-.774zm-3.482-.773c0-.643.519-1.161 1.161-1.161s1.16.518 1.16 1.16v.774h-2.32v-.773zm3.482 5.416H15.18v-3.869h4.642v3.87zm-2.321-1.16a.776.776 0 0 0 .774-.774.776.776 0 0 0-.774-.774.776.776 0 0 0-.774.774c0 .425.348.774.774.774z" fill="#FFF" fill-rule="nonzero"/>
        </g>
    </g>
</svg>
