<svg xmlns="http://www.w3.org/2000/svg" width="14" height="19" viewBox="0 0 14 19">
    <path fill="#00A7A7" d="M12 6.667h-.833V5C11.167 2.7 9.3.833 7 .833S2.833 2.7 2.833 5v1.667H2c-.917 0-1.667.75-1.667 1.666v8.334c0 .916.75 1.666 1.667 1.666h10c.917 0 1.667-.75 1.667-1.666V8.333c0-.916-.75-1.666-1.667-1.666zm-5 7.5c-.917 0-1.667-.75-1.667-1.667s.75-1.667 1.667-1.667 1.667.75 1.667 1.667-.75 1.667-1.667 1.667zm2.583-7.5H4.417V5c0-1.425 1.158-2.583 2.583-2.583 1.425 0 2.583 1.158 2.583 2.583v1.667z"/>
</svg>
