<?xml version="1.0" encoding="UTF-8"?>
<svg width="260px" height="260px" viewBox="0 0 260 260" version="1.1" xmlns="http://www.w3.org/2000/svg" xmlns:xlink="http://www.w3.org/1999/xlink">
    <!-- Generator: sketchtool 52.4 (67378) - http://www.bohemiancoding.com/sketch -->
    <title>4FC6D804-0F6C-48C2-91D6-6915DCBE2835</title>
    <desc>Created with sketchtool.</desc>
    <g id="latest" stroke="none" stroke-width="1" fill="none" fill-rule="evenodd">
        <g id="1024px---Why-moneyowl" transform="translate(-108.000000, -711.000000)">
            <g id="icon1" transform="translate(108.000000, 711.000000)">
                <path d="M130,260 C201.797017,260 260,201.797017 260,130 C260,58.2029825 201.797017,0 130,0 C58.2029825,0 0,58.2029825 0,130 C0,201.797017 58.2029825,260 130,260 Z" id="Mask-Copy-6" fill="#005960" fill-rule="nonzero"></path>
                <g id="Group-62-Copy" stroke-width="1" fill-rule="evenodd" transform="translate(48.750000, 48.750000)">
                    <rect id="Rectangle-20" fill="#007574" fill-rule="nonzero" x="0" y="22.75" width="165.75" height="117" rx="6"></rect>
                    <rect id="Rectangle-22" fill="#479C9C" fill-rule="nonzero" x="65" y="0" width="32.5" height="42.25" rx="4"></rect>
                </g>
                <g id="Group-37-Copy-2" stroke-width="1" fill-rule="evenodd" transform="translate(71.500000, 113.750000)" fill="#FF9445" stroke="#62C0BF" stroke-linecap="round" stroke-linejoin="round">
                    <path d="M1.1375,3.25 L21.6125,3.25" id="Line-2" stroke-width="3" fill-rule="nonzero"></path>
                    <path d="M1.1171875,22.2083333 L34.6328125,22.2083333" id="Line-2-Copy" stroke-width="3" fill-rule="nonzero"></path>
                    <path d="M1.1171875,41.4660088 L53.625,41.4660088" id="Line-2-Copy-2" stroke-width="3" fill-rule="nonzero"></path>
                </g>
                <g id="Group" stroke-width="1" fill-rule="evenodd" transform="translate(143.000000, 100.750000)">
                    <g id="Group-65">
                        <g id="Group-64">
                            <path d="M59.8776589,85.7086044 L59.8776589,29.6290784 C59.8776589,28.5455917 59.819581,27.4756562 59.7076165,26.4223518 C59.2423947,22.0730055 59.6190028,17.6879331 60.6919468,13.4537728 C60.8919263,12.6659504 61.075141,11.8485616 61.2481772,11.0003744 C61.6930418,8.81984954 59.4351893,7.12840288 57.5623273,8.2469998 C56.7216949,8.74901328 55.8487304,9.23501161 54.975766,9.66803674 C53.8657001,10.2187117 52.5472723,9.97602047 51.6826902,9.07178023 C46.5035802,3.6463388 39.3007254,0.273300957 31.3428582,0.273300957 C23.3855897,0.273300957 16.1833337,3.64510686 11.0036249,9.06931636 C10.1396416,9.9735566 8.8212138,10.2162478 7.71054916,9.6649569 C6.83997968,9.23254774 5.96821272,8.74778135 5.12997526,8.2469998 C3.25711327,7.12840288 0.999260789,8.81984954 1.44412539,10.9997584 C1.61596406,11.8424019 1.79798134,12.653631 1.99556589,13.4365257 C3.06671362,17.6700701 3.44631544,22.0557584 2.97869868,26.4038728 C2.86493788,27.4627209 2.80686,28.538816 2.80686,29.6290784 L2.80686,44.1615988 C2.80686,62.6344631 13.5542618,78.5633818 28.9490915,85.7086044 L59.8776589,85.7086044 Z" id="Fill-1" fill="#29CAC5"></path>
                            <path d="M42.1033112,14.1532258 C37.4418254,14.1532258 33.472174,17.1163984 31.9696689,21.2634952 C30.4671638,17.1163984 26.4975124,14.1532258 21.8355099,14.1532258 C15.8833578,14.1532258 11.0586011,18.9835747 11.0586011,24.9419876 C11.0586011,37.2224216 12.2423147,47.1774194 31.9696689,47.1774194 C50.6011451,47.1774194 52.88022,37.2224216 52.88022,24.9419876 C52.88022,18.9835747 48.0554633,14.1532258 42.1033112,14.1532258" id="Fill-4" fill="#DAF5F5" fill-rule="nonzero"></path>
                        </g>
                        <path d="M45.4785639,57.292274 C44.1811491,66.2149651 47.5196923,74.8941308 54.8828867,81.7312101 L58.5,85.0909091 L58.5,37.2272727 C51.203009,42.4331396 46.6194979,49.4470809 45.4785639,57.292274" id="Fill-8" fill="#FF902C" fill-rule="nonzero"></path>
                    </g>
                </g>
            </g>
        </g>
    </g>
</svg>