<?xml version="1.0" encoding="UTF-8"?>
<svg width="80px" height="80px" viewBox="0 0 80 80" version="1.1" xmlns="http://www.w3.org/2000/svg" xmlns:xlink="http://www.w3.org/1999/xlink">
    <!-- Generator: Sketch 51.2 (57519) - http://www.bohemiancoding.com/sketch -->
    <title>icon1</title>
    <desc>Created with Sketch.</desc>
    <defs></defs>
    <g id="Latest" stroke="none" stroke-width="1" fill="none" fill-rule="evenodd">
        <g id="1024px---homepage-copy-5" transform="translate(-482.000000, -2569.000000)">
            <g id="icon1" transform="translate(482.000000, 2569.000000)">
                <circle id="Mask-Copy-6" fill="#005960" fill-rule="nonzero" cx="40" cy="40" r="40"></circle>
                <g id="Group-62-Copy" stroke-width="1" fill-rule="evenodd" transform="translate(15.000000, 15.000000)">
                    <rect id="Rectangle-20" fill="#007574" fill-rule="nonzero" x="0" y="7" width="51" height="36" rx="6"></rect>
                    <rect id="Rectangle-22" fill="#479C9C" fill-rule="nonzero" x="20" y="0" width="10" height="13" rx="4"></rect>
                </g>
                <g id="Group-37-Copy-2" stroke-width="1" fill-rule="evenodd" transform="translate(22.000000, 35.000000)" fill="#FF9445" stroke="#62C0BF" stroke-linecap="round" stroke-linejoin="round">
                    <path d="M0.35,1 L6.65,1" id="Line-2" stroke-width="3" fill-rule="nonzero"></path>
                    <path d="M0.34375,6.83333333 L10.65625,6.83333333" id="Line-2-Copy" stroke-width="3" fill-rule="nonzero"></path>
                    <path d="M0.34375,12.7587719 L16.5,12.7587719" id="Line-2-Copy-2" stroke-width="3" fill-rule="nonzero"></path>
                </g>
                <g id="Group" stroke-width="1" fill-rule="evenodd" transform="translate(44.000000, 31.000000)">
                    <g id="Group-65">
                        <g id="Group-64">
                            <path d="M18.4238951,26.3718783 L18.4238951,9.11663952 C18.4238951,8.78325897 18.4060249,8.45404805 18.3715743,8.1299544 C18.2284291,6.79169401 18.3443086,5.44244097 18.6744452,4.1396224 C18.7359773,3.89721551 18.7923511,3.64571125 18.845593,3.38473058 C18.9824744,2.71379986 18.2877506,2.19335473 17.7114853,2.5375384 C17.4528292,2.69200409 17.1842247,2.84154203 16.9156203,2.97478054 C16.5740616,3.14421897 16.1683915,3.06954476 15.9023662,2.791317 C14.3087939,1.1219504 12.0925309,0.084092602 9.64395637,0.084092602 C7.19556607,0.084092602 4.97948729,1.12157134 3.38573074,2.79055888 C3.11988972,3.06878665 2.71421963,3.14346086 2.37247667,2.97383289 C2.10460913,2.84078392 1.83637314,2.69162503 1.57845393,2.5375384 C1.0021887,2.19335473 0.307464858,2.71379986 0.444346272,3.38454105 C0.497219712,3.64381597 0.553225029,3.89342494 0.614020273,4.1343156 C0.94360419,5.43694464 1.06040475,6.78638721 0.916522672,8.12426855 C0.881519349,8.45006795 0.863649232,8.78117416 0.863649232,9.11663952 L0.863649232,13.5881843 C0.863649232,19.2721425 4.17054208,24.1733482 8.90741277,26.3718783 L18.4238951,26.3718783 Z" id="Fill-1" fill="#29CAC5"></path>
                            <path d="M12.954865,4.35483871 C11.5205617,4.35483871 10.2991304,5.26658411 9.8368212,6.5426139 C9.37451195,5.26658411 8.15308073,4.35483871 6.71861843,4.35483871 C4.88718701,4.35483871 3.4026465,5.84109989 3.4026465,7.67445773 C3.4026465,11.4530528 3.76686607,14.516129 9.8368212,14.516129 C15.5695831,14.516129 16.2708369,11.4530528 16.2708369,7.67445773 C16.2708369,5.84109989 14.7862964,4.35483871 12.954865,4.35483871" id="Fill-4" fill="#DAF5F5" fill-rule="nonzero"></path>
                        </g>
                        <path d="M13.9934043,17.628392 C13.5941997,20.3738354 14.6214438,23.0443479 16.887042,25.1480646 L18,26.1818182 L18,11.4545455 C15.754772,13.0563506 14.3444609,15.2144864 13.9934043,17.628392" id="Fill-8" fill="#FF902C" fill-rule="nonzero"></path>
                    </g>
                </g>
            </g>
        </g>
    </g>
</svg>