<?xml version="1.0" encoding="UTF-8"?>
<svg width="80px" height="80px" viewBox="0 0 80 80" version="1.1" xmlns="http://www.w3.org/2000/svg" xmlns:xlink="http://www.w3.org/1999/xlink">
    <!-- Generator: Sketch 51.2 (57519) - http://www.bohemiancoding.com/sketch -->
    <title>icon3</title>
    <desc>Created with Sketch.</desc>
    <defs>
        <circle id="path-1" cx="40" cy="40" r="40"></circle>
    </defs>
    <g id="Latest" stroke="none" stroke-width="1" fill="none" fill-rule="evenodd">
        <g id="1024px---homepage-copy-5" transform="translate(-768.000000, -2569.000000)">
            <g id="icon3" transform="translate(768.000000, 2569.000000)">
                <g id="Group-69">
                    <mask id="mask-2" fill="white">
                        <use xlink:href="#path-1"></use>
                    </mask>
                    <use id="Mask" fill="#005960" fill-rule="nonzero" xlink:href="#path-1"></use>
                    <g mask="url(#mask-2)" fill-rule="nonzero">
                        <g transform="translate(-3.000000, 22.000000)">
                            <path d="M30.1653887,13.8081071 C30.3316651,13.7027024 30.5190918,13.65 30.7216981,13.65 C31.4943396,13.65 31.8254717,14.1974599 32.3773585,15.1828877 C32.9292453,16.1683155 32.3773585,20.4385027 32.3773585,20.8764706 C32.3773585,21.3144385 33.15,24.3802139 33.15,27.2270053 C33.15,30.0737968 32.1566038,31.3877005 31.1632075,32.3731283 C30.1698113,33.3585561 27.6311321,34.125 26.8584906,34.125 C26.3433962,34.125 24.540566,34.125 21.45,34.125 L21.45,23.6137701 C22.6273585,23.6137701 23.4,23.4312834 23.7679245,23.0663102 C24.1358491,22.7013369 24.3566038,22.153877 24.4301887,21.4239305 L24.4771049,21.4361778 C24.9053986,17.0176221 25.1195455,13.6629904 25.1195455,11.3722826 C25.1195455,7.6732337 26.0768182,1.28396739 26.5022727,0.499320652 C26.7859091,-0.0237771739 27.1404545,-0.135869565 27.5659091,0.163043478 L28.3104545,0.947690217 L28.3128667,0.976807993 C28.4335918,0.986521924 28.5651711,1.03603187 28.7083333,1.14105912 C29.4666667,1.69739067 29.4666667,2.47625482 29.4666667,4.14524945 C29.4666667,5.21328525 29.699574,8.43423781 30.1653887,13.8081071 Z" id="Combined-Shape" fill="#FAC9B6"></path>
                            <rect id="Rectangle-26" fill="#FFFFFF" x="2.925" y="22.425" width="18.525" height="14.625"></rect>
                            <rect id="Rectangle-26-Copy" fill="#118C8C" x="0" y="20.475" width="18.525" height="18.525"></rect>
                        </g>
                    </g>
                </g>
                <g id="Group-68" transform="translate(34.000000, 21.000000)">
                    <path d="M18.6911515,6 L12.3088485,6 C7.6017423,9.12041323 0,19.2145875 0,25.386884 C0,30.5899358 1.53294703,33.8659406 4.86307114,36.6954436 C5.85056576,37.534469 7.09075995,38 8.37343487,38 L22.6265651,38 C23.90924,38 25.1494342,37.534469 26.1369289,36.6954436 C29.4669316,33.8659406 31,30.5899358 31,25.386884 C31,19.2145875 23.3981363,9.12041323 18.6911515,6" id="Fill-10" fill="#29CAC5"></path>
                    <path d="M22.4256986,1.23071082 C22.0539982,1.06380948 21.4285087,1.02351437 21.0357812,1.1409174 L19.3404386,1.64796416 C18.9478442,1.76549155 18.3526977,1.67743928 18.0179943,1.45220953 L16.1105176,0.168860139 C15.7758142,-0.0563696076 15.2283113,-0.05624524 14.8936079,0.168984507 L12.9870629,1.45208517 C12.6523595,1.67731491 12.057346,1.76561592 11.6644854,1.64808852 L9.96714663,1.14079303 C9.57441911,1.02339001 8.94879658,1.06368511 8.57696307,1.23046208 L7.32358869,1.79272806 C6.95188826,1.95938066 6.89133556,2.31395272 7.189175,2.58059688 L11.5843695,6.51521505 C11.8820759,6.78198357 12.4632488,7 12.8756725,7 L18.1241944,7 C18.5364851,7 19.1176579,6.78198357 19.4153643,6.51521505 L23.810825,2.58022378 C24.1086644,2.31357962 24.0481117,1.95888319 23.6764113,1.79223059 L22.4256986,1.23071082 Z" id="Fill-12" fill="#29CAC5"></path>
                    <path d="M16.4516409,21.3925048 C14.7030294,20.6645999 14.4080136,20.3020348 14.4080136,19.7640449 C14.4080136,19.5269594 14.5099831,18.7538881 15.8222739,18.7538881 C16.9685993,18.7538881 17.6904046,19.1688648 17.9987339,19.3461394 L18.4288518,19.5933989 C18.5866474,19.6843485 18.7689521,19.6172924 18.8338555,19.4449507 L19.6421988,17.2982324 C19.6898552,17.1715196 19.634483,17.0121266 19.5190486,16.9441457 L19.2043651,16.7583927 C18.5312753,16.3616059 17.7901048,16.1145005 16.9534703,16.0095232 L16.9534703,14.2894971 C16.9534703,14.1302583 16.8257814,14 16.6693474,14 L14.5742814,14 C14.41815,14 14.2901586,14.1302583 14.2901586,14.2894971 L14.2901586,16.1778569 C12.4323155,16.701819 11.2639017,18.1523876 11.2639017,20.0060633 C11.2639017,22.3670526 13.1650137,23.4353247 15.0171077,24.1658502 C16.6153368,24.8179124 16.8356153,25.3811832 16.8356153,25.8929673 C16.8356153,26.6418368 16.1626767,27.1449884 15.1608333,27.1449884 C14.2965127,27.1449884 13.3636577,26.8656653 12.6653024,26.397352 L12.2144577,26.0952144 C12.0490976,25.9843793 11.8587746,26.0488147 11.7911479,26.2384215 L11.0147269,28.4179741 C10.9740298,28.5323548 11.0206272,28.6832694 11.1182093,28.7534085 L11.38448,28.9445567 C12.0648318,29.4330639 13.0988999,29.7897712 14.1499126,29.9150966 L14.1499126,31.7105029 C14.1499126,31.8695876 14.2777528,32 14.4340355,32 L16.549223,32 C16.7053545,32 16.8331946,31.8695876 16.8331946,31.7105029 L16.8331946,29.7598657 C18.750646,29.2130892 20,27.6640175 20,25.7519183 C20,23.1781995 18.1017625,22.0693854 16.4516409,21.3925048" id="Fill-14" fill="#DAF5F5"></path>
                    <path d="M18.888902,8 L11.1112163,8 C10.4975684,8 10,7.55228967 10,6.9998935 C10,6.44781683 10.4975684,6 11.1112163,6 L18.888902,6 C19.50255,6 20,6.44781683 20,6.9998935 C20,7.55228967 19.50255,8 18.888902,8" id="Fill-16" fill="#FF7900"></path>
                </g>
            </g>
        </g>
    </g>
</svg>