<?xml version="1.0" encoding="UTF-8"?>
<svg width="260px" height="260px" viewBox="0 0 260 260" version="1.1" xmlns="http://www.w3.org/2000/svg" xmlns:xlink="http://www.w3.org/1999/xlink">
    <!-- Generator: sketchtool 52.4 (67378) - http://www.bohemiancoding.com/sketch -->
    <title>252D24DD-51FE-4077-A6F2-443674E9620B</title>
    <desc>Created with sketchtool.</desc>
    <defs>
        <circle id="path-1" cx="130" cy="130" r="130"></circle>
    </defs>
    <g id="latest" stroke="none" stroke-width="1" fill="none" fill-rule="evenodd">
        <g id="1024px---Why-moneyowl" transform="translate(-108.000000, -1737.000000)">
            <g id="icon3" transform="translate(108.000000, 1737.000000)">
                <g id="Group-69">
                    <mask id="mask-2" fill="white">
                        <use xlink:href="#path-1"></use>
                    </mask>
                    <use id="Mask" fill="#005960" fill-rule="nonzero" xlink:href="#path-1"></use>
                    <g mask="url(#mask-2)" fill-rule="nonzero">
                        <g transform="translate(-9.750000, 71.500000)">
                            <path d="M98.0375131,44.8763482 C98.5779115,44.5337827 99.1870484,44.3625 99.8455189,44.3625 C102.356604,44.3625 103.432783,46.1417447 105.226415,49.344385 C107.020047,52.5470254 105.226415,66.4251337 105.226415,67.8485294 C105.226415,69.2719251 107.7375,79.2356952 107.7375,88.4877674 C107.7375,97.7398396 104.508962,102.010027 101.280425,105.212667 C98.0518868,108.415307 89.8011792,110.90625 87.2900943,110.90625 C85.6160377,110.90625 79.7568396,110.90625 69.7125,110.90625 L69.7125,76.7447527 C73.5389151,76.7447527 76.05,76.1516711 77.2457547,74.965508 C78.4415094,73.7793449 79.1589623,72.0001003 79.3981132,69.6277741 L79.5505908,69.6675779 C80.9425454,55.307272 81.6385227,44.4047188 81.6385227,36.9599185 C81.6385227,24.9380095 84.7496591,4.17289402 86.1323864,1.62279212 C87.0542045,-0.0772758152 88.2064773,-0.441576087 89.5892045,0.529891304 L92.0089773,3.07999321 L92.0168166,3.17462598 C92.4091735,3.20619625 92.8368061,3.36710359 93.3020833,3.70844215 C95.7666667,5.51651966 95.7666667,8.04782818 95.7666667,13.4720607 C95.7666667,16.9431771 96.5236155,27.4112729 98.0375131,44.8763482 Z" id="Combined-Shape" fill="#FAC9B6"></path>
                            <polygon id="Rectangle-26" fill="#FFFFFF" points="9.50625 72.88125 69.7125 72.88125 69.7125 120.4125 9.50625 120.4125"></polygon>
                            <polygon id="Rectangle-26-Copy" fill="#118C8C" points="0 66.54375 60.20625 66.54375 60.20625 126.75 0 126.75"></polygon>
                        </g>
                    </g>
                </g>
                <g id="Group-68" transform="translate(110.500000, 68.250000)">
                    <path d="M60.7462423,19.5 L40.0037577,19.5 C24.7056625,29.641343 0,62.4474093 0,82.507373 C0,99.4172915 4.98207784,110.064307 15.8049812,119.260192 C19.0143387,121.987024 23.0449699,123.5 27.2136633,123.5 L73.5363367,123.5 C77.7050301,123.5 81.7356613,121.987024 84.9450188,119.260192 C95.7675277,110.064307 100.75,99.4172915 100.75,82.507373 C100.75,62.4474093 76.0439431,29.641343 60.7462423,19.5" id="Fill-10" fill="#29CAC5"></path>
                    <path d="M72.8835204,3.99981015 C71.675494,3.45738081 69.6426533,3.32642171 68.3662889,3.70798155 L62.8564256,5.35588351 C61.5804937,5.73784754 59.6462674,5.45167766 58.5584813,4.71968099 L52.3591823,0.548795452 C51.2713962,-0.183201225 49.4920119,-0.18279703 48.4042258,0.549199646 L42.2079544,4.71927679 C41.1201684,5.45127347 39.1863746,5.73825173 37.9095776,5.3562877 L32.3932265,3.70757735 C31.1168621,3.32601752 29.0835889,3.45697661 27.87513,3.99900176 L23.8016632,5.82636619 C22.5936369,6.36798714 22.3968406,7.52034635 23.3648188,8.38693987 L37.649201,21.1744489 C38.6167467,22.0414466 40.5055584,22.75 41.8459357,22.75 L58.9036317,22.75 C60.2435765,22.75 62.1323883,22.0414466 63.0999339,21.1744489 L77.3851812,8.38572729 C78.3531594,7.51913376 78.1563631,6.36637036 76.9483368,5.82474941 L72.8835204,3.99981015 Z" id="Fill-12" fill="#29CAC5"></path>
                    <path d="M53.4678329,69.5256406 C47.7848454,67.1599496 46.8260441,65.9816131 46.8260441,64.2331461 C46.8260441,63.4626182 47.1574452,60.9501362 51.4223901,60.9501362 C55.1479478,60.9501362 57.493815,62.2988105 58.4958853,62.8749529 L59.8937684,63.6785463 C60.4066042,63.9741325 60.9990942,63.7562003 61.2100305,63.1960897 L63.8371461,56.2192553 C63.9920294,55.8074387 63.8120698,55.2894115 63.436908,55.0684734 L62.4141866,54.4647763 C60.2266446,53.1752192 57.8178407,52.3721268 55.0987785,52.0309503 L55.0987785,46.4408656 C55.0987785,45.9233394 54.6837896,45.5 54.1753791,45.5 L47.3664147,45.5 C46.8589876,45.5 46.4430153,45.9233394 46.4430153,46.4408656 L46.4430153,52.5780351 C40.4050255,54.2809117 36.6076806,58.9952598 36.6076806,65.0197057 C36.6076806,72.692921 42.7862946,76.1648054 48.8056001,78.5390133 C53.9998447,80.6582154 54.7157497,82.4888454 54.7157497,84.1521436 C54.7157497,86.5859696 52.5286993,88.2212121 49.2727084,88.2212121 C46.4636664,88.2212121 43.4318875,87.3134121 41.1622327,85.791394 L39.6969876,84.8094469 C39.1595672,84.4492327 38.5410174,84.6586479 38.3212307,85.2748698 L35.7978623,92.3584158 C35.6655969,92.730153 35.8170383,93.2206255 36.1341803,93.4485775 L36.9995599,94.0698094 C39.2107033,95.6574575 42.5714248,96.8167563 45.9872159,97.224064 L45.9872159,103.059134 C45.9872159,103.57616 46.4026965,104 46.9106153,104 L53.7849749,104 C54.292402,104 54.7078826,103.57616 54.7078826,103.059134 L54.7078826,96.7195636 C60.9395994,94.9425399 65,89.908057 65,83.6937346 C65,75.3291484 58.8307282,71.7255027 53.4678329,69.5256406" id="Fill-14" fill="#DAF5F5"></path>
                    <path d="M61.3889316,26 L36.1114529,26 C34.1170972,26 32.5,24.5449414 32.5,22.7496539 C32.5,20.9554047 34.1170972,19.5 36.1114529,19.5 L61.3889316,19.5 C63.3832874,19.5 65,20.9554047 65,22.7496539 C65,24.5449414 63.3832874,26 61.3889316,26" id="Fill-16" fill="#FF7900"></path>
                </g>
            </g>
        </g>
    </g>
</svg>