<?xml version="1.0" encoding="UTF-8"?>
<svg width="260px" height="260px" viewBox="0 0 260 260" version="1.1" xmlns="http://www.w3.org/2000/svg" xmlns:xlink="http://www.w3.org/1999/xlink">
    <!-- Generator: sketchtool 52.4 (67378) - http://www.bohemiancoding.com/sketch -->
    <title>E97C21FF-7F94-44B4-A390-0BE78E5F5130</title>
    <desc>Created with sketchtool.</desc>
    <g id="latest" stroke="none" stroke-width="1" fill="none" fill-rule="evenodd">
        <g id="1024px---Why-moneyowl" transform="translate(-108.000000, -2764.000000)">
            <g id="icon5" transform="translate(108.000000, 2764.000000)">
                <path d="M130,260 C201.797017,260 260,201.797017 260,130 C260,58.2029825 201.797017,0 130,0 C58.2029825,0 0,58.2029825 0,130 C0,201.797017 58.2029825,260 130,260 Z" id="Mask-Copy-3" fill="#005960" fill-rule="nonzero"></path>
                <g id="Group-4" stroke-width="1" fill-rule="evenodd" transform="translate(42.250000, 65.000000)">
                    <path d="M20.8091133,0 L157.076355,2.39808173e-14 C160.390063,2.3372099e-14 163.076355,2.6862915 163.076355,6 L163.076355,63.4721439 L163.076355,106.633202 L14.8091133,106.633202 L14.8091133,6 C14.8091133,2.6862915 17.4954048,6.08718376e-16 20.8091133,0 Z" id="Rectangle-16" fill="#158C8C" fill-rule="nonzero"></path>
                    <path d="M-2.91929543,97.5580357 L179.065412,97.5580357 C180.722266,97.5580357 182.065412,98.9011815 182.065412,100.558036 C182.065412,101.157082 181.88607,101.74241 181.550485,102.238635 L161.663455,131.645245 L14.4826613,131.645245 L-5.40436831,102.238635 C-6.33253747,100.866167 -5.97236222,99.001132 -4.59989437,98.0729628 C-4.10367001,97.7373775 -3.51834147,97.5580357 -2.91929543,97.5580357 Z" id="Rectangle-16-Copy" fill="#48B1B0" fill-rule="nonzero" transform="translate(88.072383, 114.601640) scale(1, -1) translate(-88.072383, -114.601640) "></path>
                </g>
                <g id="Group-5" stroke-width="1" fill-rule="evenodd" transform="translate(87.750000, 84.500000)">
                    <path d="M22.6624917,26.7899711 L58.4400018,26.0830964 L58.5812314,20.4859522 C58.5838166,20.3629962 58.5838166,20.3629962 58.5843337,20.2400142 C58.5843337,14.8552379 54.21911,10.4900142 48.8343337,10.4900142 L31.9349541,10.4900142 C31.6840226,10.4900142 31.4331846,10.4997014 31.1830005,10.5190541 C25.8142625,10.9343466 21.7987014,15.6232298 22.2139939,20.9919678 L22.6624917,26.7899711 Z M31.9349541,0.740014203 L48.8343337,0.740014203 C59.6038863,0.740014203 68.3343337,9.47046158 68.3343337,20.2400142 C68.3343337,20.4039924 68.3322653,20.5679641 68.3281291,20.7318901 L67.9517828,35.6470701 L13.6514839,36.719909 L12.4930338,21.7439214 C11.6624488,11.0064453 19.6935708,1.62867894 30.4310469,0.798093947 C30.9314151,0.759388544 31.4330911,0.740014203 31.9349541,0.740014203 Z" id="Rectangle-16" fill="#DAF5F5" fill-rule="nonzero"></path>
                    <path d="M2,34.9259312 L77.7008737,34.9259312 C78.8054432,34.9259312 79.7008737,35.8213617 79.7008737,36.9259312 L79.7008737,91.9614148 C79.7008737,93.0659843 78.8054432,93.9614148 77.7008737,93.9614148 L2,93.9614148 C0.8954305,93.9614148 1.82304889e-12,93.0659843 1.8189894e-12,91.9614148 L1.81854531e-12,36.9259312 C1.81841004e-12,35.8213617 0.8954305,34.9259312 2,34.9259312 Z" id="Rectangle-15" fill="#DAF5F5" fill-rule="nonzero"></path>
                    <g id="Group-40" transform="translate(32.604903, 45.016627)" fill="#FF902C" fill-rule="nonzero">
                        <g id="Group-8">
                            <path d="M6.12777713,16.002706 C2.60615699,15.1126338 0,11.9231672 0,8.125 C0,3.63768641 3.63768641,0 8.125,0 C12.6123136,0 16.25,3.63768641 16.25,8.125 C16.25,11.890486 13.6884993,15.0577014 10.2129236,15.9792206 L16.3483871,34.7257716 L-4.19220214e-13,34.7257716 L6.12777713,16.002706 Z" id="Combined-Shape"></path>
                        </g>
                    </g>
                </g>
            </g>
        </g>
    </g>
</svg>